<?xml version="1.0" encoding="UTF-8" standalone="no"?>
<!DOCTYPE svg PUBLIC "-//W3C//DTD SVG 1.1//EN"
 "http://www.w3.org/Graphics/SVG/1.1/DTD/svg11.dtd">
<!-- Generated by graphviz version 2.43.0 (0)
 -->
<!-- Title: oneDegreeRelationshipsDiagram Pages: 1 -->
<svg width="1126pt" height="992pt"
 viewBox="0.00 0.00 1126.00 992.00" xmlns="http://www.w3.org/2000/svg" xmlns:xlink="http://www.w3.org/1999/xlink">
<g id="graph0" class="graph" transform="scale(1 1) rotate(0) translate(4 988)">
<title>oneDegreeRelationshipsDiagram</title>
<polygon fill="#ffffff" stroke="transparent" points="-4,4 -4,-988 1122,-988 1122,4 -4,4"/>
<text text-anchor="middle" x="71.5" y="-7.2" font-family="Helvetica,sans-Serif" font-size="11.00">Generated by SchemaSpy</text>
<!-- a_asset -->
<g id="node1" class="node">
<title>a_asset</title>
<g id="a_node1"><a xlink:href="../../tables/a_asset.html" xlink:title="a_asset" target="_top">
<polygon fill="#ffffff" stroke="transparent" points="552,-172 552,-626 763,-626 763,-172 552,-172"/>
<polygon fill="#f5f5f5" stroke="transparent" points="552.5,-604 552.5,-626 763.5,-626 763.5,-604 552.5,-604"/>
<polygon fill="none" stroke="black" points="552.5,-604 552.5,-626 763.5,-626 763.5,-604 552.5,-604"/>
<text text-anchor="start" x="557.5" y="-613.2" font-family="Helvetica,sans-Serif" font-weight="bold" font-size="11.00">a_asset</text>
<text text-anchor="start" x="728.5" y="-612.2" font-family="Helvetica,sans-Serif" font-size="11.00">[table]</text>
<polygon fill="none" stroke="black" points="552.5,-582 552.5,-604 763.5,-604 763.5,-582 552.5,-582"/>
<image xlink:href="../../images/primaryKeys.png" width="11px" height="12px" preserveAspectRatio="xMinYMin meet" x="557.5" y="-599"/>
<text text-anchor="start" x="572.5" y="-590.2" font-family="Helvetica,sans-Serif" font-size="11.00">a_asset_id</text>
<polygon fill="none" stroke="black" points="552.5,-560 552.5,-582 763.5,-582 763.5,-560 552.5,-560"/>
<image xlink:href="../../images/foreignKeys.png" width="11px" height="12px" preserveAspectRatio="xMinYMin meet" x="557.5" y="-577"/>
<text text-anchor="start" x="572.5" y="-568.2" font-family="Helvetica,sans-Serif" font-size="11.00">a_asset_group_id</text>
<polygon fill="none" stroke="black" points="552.5,-538 552.5,-560 763.5,-560 763.5,-538 552.5,-538"/>
<image xlink:href="../../images/foreignKeys.png" width="11px" height="12px" preserveAspectRatio="xMinYMin meet" x="557.5" y="-555"/>
<text text-anchor="start" x="572.5" y="-546.2" font-family="Helvetica,sans-Serif" font-size="11.00">m_product_id</text>
<polygon fill="none" stroke="black" points="552.5,-516 552.5,-538 763.5,-538 763.5,-516 552.5,-516"/>
<image xlink:href="../../images/foreignKeys.png" width="11px" height="12px" preserveAspectRatio="xMinYMin meet" x="557.5" y="-533"/>
<text text-anchor="start" x="572.5" y="-524.2" font-family="Helvetica,sans-Serif" font-size="11.00">m_locator_id</text>
<polygon fill="none" stroke="black" points="552.5,-494 552.5,-516 763.5,-516 763.5,-494 552.5,-494"/>
<image xlink:href="../../images/foreignKeys.png" width="11px" height="12px" preserveAspectRatio="xMinYMin meet" x="557.5" y="-511"/>
<text text-anchor="start" x="572.5" y="-502.2" font-family="Helvetica,sans-Serif" font-size="11.00">c_bpartner_id</text>
<polygon fill="none" stroke="black" points="552.5,-472 552.5,-494 763.5,-494 763.5,-472 552.5,-472"/>
<image xlink:href="../../images/foreignKeys.png" width="11px" height="12px" preserveAspectRatio="xMinYMin meet" x="557.5" y="-489"/>
<text text-anchor="start" x="572.5" y="-480.2" font-family="Helvetica,sans-Serif" font-size="11.00">c_bpartner_location_id</text>
<polygon fill="none" stroke="black" points="552.5,-450 552.5,-472 763.5,-472 763.5,-450 552.5,-450"/>
<image xlink:href="../../images/foreignKeys.png" width="11px" height="12px" preserveAspectRatio="xMinYMin meet" x="557.5" y="-467"/>
<text text-anchor="start" x="572.5" y="-458.2" font-family="Helvetica,sans-Serif" font-size="11.00">c_location_id</text>
<polygon fill="none" stroke="black" points="552.5,-428 552.5,-450 763.5,-450 763.5,-428 552.5,-428"/>
<image xlink:href="../../images/foreignKeys.png" width="11px" height="12px" preserveAspectRatio="xMinYMin meet" x="557.5" y="-445"/>
<text text-anchor="start" x="572.5" y="-436.2" font-family="Helvetica,sans-Serif" font-size="11.00">ad_user_id</text>
<polygon fill="none" stroke="black" points="552.5,-406 552.5,-428 763.5,-428 763.5,-406 552.5,-406"/>
<image xlink:href="../../images/foreignKeys.png" width="11px" height="12px" preserveAspectRatio="xMinYMin meet" x="557.5" y="-423"/>
<text text-anchor="start" x="572.5" y="-414.2" font-family="Helvetica,sans-Serif" font-size="11.00">m_attributesetinstance_id</text>
<polygon fill="none" stroke="black" points="552.5,-384 552.5,-406 763.5,-406 763.5,-384 552.5,-384"/>
<image xlink:href="../../images/foreignKeys.png" width="11px" height="12px" preserveAspectRatio="xMinYMin meet" x="557.5" y="-401"/>
<text text-anchor="start" x="572.5" y="-392.2" font-family="Helvetica,sans-Serif" font-size="11.00">c_project_id</text>
<polygon fill="none" stroke="black" points="552.5,-362 552.5,-384 763.5,-384 763.5,-362 552.5,-362"/>
<image xlink:href="../../images/foreignKeys.png" width="11px" height="12px" preserveAspectRatio="xMinYMin meet" x="557.5" y="-379"/>
<text text-anchor="start" x="572.5" y="-370.2" font-family="Helvetica,sans-Serif" font-size="11.00">c_bpartnersr_id</text>
<polygon fill="none" stroke="black" points="552.5,-340 552.5,-362 763.5,-362 763.5,-340 552.5,-340"/>
<image xlink:href="../../images/foreignKeys.png" width="11px" height="12px" preserveAspectRatio="xMinYMin meet" x="557.5" y="-357"/>
<text text-anchor="start" x="572.5" y="-348.2" font-family="Helvetica,sans-Serif" font-size="11.00">m_inoutline_id</text>
<polygon fill="none" stroke="black" points="552.5,-318 552.5,-340 763.5,-340 763.5,-318 552.5,-318"/>
<image xlink:href="../../images/foreignKeys.png" width="11px" height="12px" preserveAspectRatio="xMinYMin meet" x="557.5" y="-335"/>
<text text-anchor="start" x="572.5" y="-326.2" font-family="Helvetica,sans-Serif" font-size="11.00">lease_bpartner_id</text>
<polygon fill="none" stroke="black" points="552.5,-296 552.5,-318 763.5,-318 763.5,-296 552.5,-296"/>
<image xlink:href="../../images/foreignKeys.png" width="11px" height="12px" preserveAspectRatio="xMinYMin meet" x="557.5" y="-313"/>
<text text-anchor="start" x="572.5" y="-304.2" font-family="Helvetica,sans-Serif" font-size="11.00">a_parent_asset_id</text>
<polygon fill="#ffffff" stroke="transparent" points="552.5,-274 552.5,-296 763.5,-296 763.5,-274 552.5,-274"/>
<polygon fill="none" stroke="black" points="552.5,-274 552.5,-296 763.5,-296 763.5,-274 552.5,-274"/>
<text text-anchor="start" x="572.5" y="-282.2" font-family="Helvetica,sans-Serif" font-size="11.00">a_asset_uu</text>
<polygon fill="none" stroke="black" points="552.5,-252 552.5,-274 763.5,-274 763.5,-252 552.5,-252"/>
<image xlink:href="../../images/foreignKeys.png" width="11px" height="12px" preserveAspectRatio="xMinYMin meet" x="557.5" y="-269"/>
<text text-anchor="start" x="572.5" y="-260.2" font-family="Helvetica,sans-Serif" font-size="11.00">a_asset_class_id</text>
<polygon fill="none" stroke="black" points="552.5,-230 552.5,-252 763.5,-252 763.5,-230 552.5,-230"/>
<image xlink:href="../../images/foreignKeys.png" width="11px" height="12px" preserveAspectRatio="xMinYMin meet" x="557.5" y="-247"/>
<text text-anchor="start" x="572.5" y="-238.2" font-family="Helvetica,sans-Serif" font-size="11.00">a_asset_type_id</text>
<polygon fill="none" stroke="black" points="552.5,-208 552.5,-230 763.5,-230 763.5,-208 552.5,-208"/>
<image xlink:href="../../images/foreignKeys.png" width="11px" height="12px" preserveAspectRatio="xMinYMin meet" x="557.5" y="-225"/>
<text text-anchor="start" x="572.5" y="-216.2" font-family="Helvetica,sans-Serif" font-size="11.00">c_activity_id</text>
<polygon fill="none" stroke="black" points="552.5,-190 552.5,-208 763.5,-208 763.5,-190 552.5,-190"/>
<text text-anchor="start" x="555.5" y="-196.2" font-family="Helvetica,sans-Serif" font-size="11.00">...</text>
<polygon fill="#ffffff" stroke="transparent" points="552.5,-172 552.5,-190 763.5,-190 763.5,-172 552.5,-172"/>
<polygon fill="none" stroke="black" points="552.5,-172 552.5,-190 763.5,-190 763.5,-172 552.5,-172"/>
<polygon fill="#ffffff" stroke="transparent" points="553.5,-173 553.5,-189 628.5,-189 628.5,-173 553.5,-173"/>
<text text-anchor="start" x="555.5" y="-178.2" font-family="Helvetica,sans-Serif" font-size="11.00">&lt; 16</text>
<polygon fill="#ffffff" stroke="transparent" points="628.5,-173 628.5,-189 688.5,-189 688.5,-173 628.5,-173"/>
<text text-anchor="start" x="655" y="-178.2" font-family="Helvetica,sans-Serif" font-size="11.00"> &#160;</text>
<polygon fill="#ffffff" stroke="transparent" points="688.5,-173 688.5,-189 762.5,-189 762.5,-173 688.5,-173"/>
<text text-anchor="start" x="738.5" y="-178.2" font-family="Helvetica,sans-Serif" font-size="11.00">52 &gt;</text>
<polygon fill="black" stroke="black" points="628.5,-173 628.5,-189 628.5,-189 628.5,-173 628.5,-173"/>
<polygon fill="black" stroke="black" points="688.5,-173 688.5,-189 688.5,-189 688.5,-173 688.5,-173"/>
</a>
</g>
</g>
<!-- m_attributesetinstance -->
<g id="node2" class="node">
<title>m_attributesetinstance</title>
<g id="a_node2"><a xlink:href="../../tables/m_attributesetinstance.html" xlink:title="m_attributesetinstance" target="_top">
<polygon fill="#ffffff" stroke="transparent" points="262,-90 262,-236 478,-236 478,-90 262,-90"/>
<polygon fill="#f5f5f5" stroke="transparent" points="262,-214 262,-236 478,-236 478,-214 262,-214"/>
<polygon fill="none" stroke="black" points="262,-214 262,-236 478,-236 478,-214 262,-214"/>
<text text-anchor="start" x="267" y="-223.2" font-family="Helvetica,sans-Serif" font-weight="bold" font-size="11.00">m_attributesetinstance</text>
<text text-anchor="start" x="443" y="-222.2" font-family="Helvetica,sans-Serif" font-size="11.00">[table]</text>
<polygon fill="none" stroke="black" points="262,-192 262,-214 478,-214 478,-192 262,-192"/>
<image xlink:href="../../images/primaryKeys.png" width="11px" height="12px" preserveAspectRatio="xMinYMin meet" x="267" y="-209"/>
<text text-anchor="start" x="282" y="-200.2" font-family="Helvetica,sans-Serif" font-size="11.00">m_attributesetinstance_id</text>
<polygon fill="none" stroke="black" points="262,-170 262,-192 478,-192 478,-170 262,-170"/>
<image xlink:href="../../images/foreignKeys.png" width="11px" height="12px" preserveAspectRatio="xMinYMin meet" x="267" y="-187"/>
<text text-anchor="start" x="282" y="-178.2" font-family="Helvetica,sans-Serif" font-size="11.00">m_attributeset_id</text>
<polygon fill="none" stroke="black" points="262,-148 262,-170 478,-170 478,-148 262,-148"/>
<image xlink:href="../../images/foreignKeys.png" width="11px" height="12px" preserveAspectRatio="xMinYMin meet" x="267" y="-165"/>
<text text-anchor="start" x="282" y="-156.2" font-family="Helvetica,sans-Serif" font-size="11.00">m_lot_id</text>
<polygon fill="#ffffff" stroke="transparent" points="262,-126 262,-148 478,-148 478,-126 262,-126"/>
<polygon fill="none" stroke="black" points="262,-126 262,-148 478,-148 478,-126 262,-126"/>
<text text-anchor="start" x="282" y="-134.2" font-family="Helvetica,sans-Serif" font-size="11.00">m_attributesetinstance_uu</text>
<polygon fill="none" stroke="black" points="262,-108 262,-126 478,-126 478,-108 262,-108"/>
<text text-anchor="start" x="265" y="-114.2" font-family="Helvetica,sans-Serif" font-size="11.00">...</text>
<polygon fill="#ffffff" stroke="transparent" points="262,-90 262,-108 478,-108 478,-90 262,-90"/>
<polygon fill="none" stroke="black" points="262,-90 262,-108 478,-108 478,-90 262,-90"/>
<polygon fill="#ffffff" stroke="transparent" points="263,-91 263,-107 329,-107 329,-91 263,-91"/>
<text text-anchor="start" x="265" y="-96.2" font-family="Helvetica,sans-Serif" font-size="11.00">&lt; 2</text>
<polygon fill="#ffffff" stroke="transparent" points="329,-91 329,-107 406,-107 406,-91 329,-91"/>
<text text-anchor="start" x="353.5" y="-96.2" font-family="Helvetica,sans-Serif" font-size="11.00">1 row</text>
<polygon fill="#ffffff" stroke="transparent" points="406,-91 406,-107 477,-107 477,-91 406,-91"/>
<text text-anchor="start" x="453" y="-96.2" font-family="Helvetica,sans-Serif" font-size="11.00">50 &gt;</text>
<polygon fill="black" stroke="black" points="329,-91 329,-107 329,-107 329,-91 329,-91"/>
<polygon fill="black" stroke="black" points="406,-91 406,-107 406,-107 406,-91 406,-91"/>
</a>
</g>
</g>
<!-- a_asset&#45;&gt;m_attributesetinstance -->
<g id="edge1" class="edge">
<title>a_asset:w&#45;&gt;m_attributesetinstance:e</title>
<path fill="none" stroke="black" d="M537.1,-415.52C484.28,-403.1 539.75,-314.76 511,-250 500.75,-226.9 504.27,-203 479,-203"/>
<polygon fill="black" stroke="black" points="543.54,-416.18 551.13,-420.58 547.52,-416.59 551.5,-417 551.5,-417 551.5,-417 547.52,-416.59 551.87,-413.42 543.54,-416.18 543.54,-416.18"/>
<ellipse fill="none" stroke="black" cx="540.36" cy="-415.86" rx="3.2" ry="3.2"/>
</g>
<!-- m_locator -->
<g id="node3" class="node">
<title>m_locator</title>
<g id="a_node3"><a xlink:href="../../tables/m_locator.html" xlink:title="m_locator" target="_top">
<polygon fill="#ffffff" stroke="transparent" points="8,-37 8,-293 188,-293 188,-37 8,-37"/>
<polygon fill="#f5f5f5" stroke="transparent" points="8,-271 8,-293 188,-293 188,-271 8,-271"/>
<polygon fill="none" stroke="black" points="8,-271 8,-293 188,-293 188,-271 8,-271"/>
<text text-anchor="start" x="13" y="-280.2" font-family="Helvetica,sans-Serif" font-weight="bold" font-size="11.00">m_locator</text>
<text text-anchor="start" x="153" y="-279.2" font-family="Helvetica,sans-Serif" font-size="11.00">[table]</text>
<polygon fill="none" stroke="black" points="8,-249 8,-271 188,-271 188,-249 8,-249"/>
<image xlink:href="../../images/primaryKeys.png" width="11px" height="12px" preserveAspectRatio="xMinYMin meet" x="13" y="-266"/>
<text text-anchor="start" x="28" y="-257.2" font-family="Helvetica,sans-Serif" font-size="11.00">m_locator_id</text>
<polygon fill="none" stroke="black" points="8,-227 8,-249 188,-249 188,-227 8,-227"/>
<image xlink:href="../../images/foreignKeys.png" width="11px" height="12px" preserveAspectRatio="xMinYMin meet" x="13" y="-244"/>
<text text-anchor="start" x="28" y="-235.2" font-family="Helvetica,sans-Serif" font-size="11.00">ad_client_id</text>
<polygon fill="none" stroke="black" points="8,-205 8,-227 188,-227 188,-205 8,-205"/>
<image xlink:href="../../images/foreignKeys.png" width="11px" height="12px" preserveAspectRatio="xMinYMin meet" x="13" y="-222"/>
<text text-anchor="start" x="28" y="-213.2" font-family="Helvetica,sans-Serif" font-size="11.00">ad_org_id</text>
<polygon fill="#ffffff" stroke="transparent" points="8,-183 8,-205 188,-205 188,-183 8,-183"/>
<polygon fill="none" stroke="black" points="8,-183 8,-205 188,-205 188,-183 8,-183"/>
<image xlink:href="../../images/foreignKeys.png" width="11px" height="12px" preserveAspectRatio="xMinYMin meet" x="13" y="-200"/>
<text text-anchor="start" x="28" y="-191.2" font-family="Helvetica,sans-Serif" font-size="11.00">m_warehouse_id</text>
<polygon fill="#ffffff" stroke="transparent" points="8,-161 8,-183 188,-183 188,-161 8,-161"/>
<polygon fill="none" stroke="black" points="8,-161 8,-183 188,-183 188,-161 8,-161"/>
<text text-anchor="start" x="28" y="-169.2" font-family="Helvetica,sans-Serif" font-size="11.00">x</text>
<polygon fill="#ffffff" stroke="transparent" points="8,-139 8,-161 188,-161 188,-139 8,-139"/>
<polygon fill="none" stroke="black" points="8,-139 8,-161 188,-161 188,-139 8,-139"/>
<text text-anchor="start" x="28" y="-147.2" font-family="Helvetica,sans-Serif" font-size="11.00">y</text>
<polygon fill="#ffffff" stroke="transparent" points="8,-117 8,-139 188,-139 188,-117 8,-117"/>
<polygon fill="none" stroke="black" points="8,-117 8,-139 188,-139 188,-117 8,-117"/>
<text text-anchor="start" x="28" y="-125.2" font-family="Helvetica,sans-Serif" font-size="11.00">z</text>
<polygon fill="#ffffff" stroke="transparent" points="8,-95 8,-117 188,-117 188,-95 8,-95"/>
<polygon fill="none" stroke="black" points="8,-95 8,-117 188,-117 188,-95 8,-95"/>
<text text-anchor="start" x="28" y="-103.2" font-family="Helvetica,sans-Serif" font-size="11.00">m_locator_uu</text>
<polygon fill="none" stroke="black" points="8,-73 8,-95 188,-95 188,-73 8,-73"/>
<image xlink:href="../../images/foreignKeys.png" width="11px" height="12px" preserveAspectRatio="xMinYMin meet" x="13" y="-90"/>
<text text-anchor="start" x="28" y="-81.2" font-family="Helvetica,sans-Serif" font-size="11.00">m_locatortype_id</text>
<polygon fill="none" stroke="black" points="8,-55 8,-73 188,-73 188,-55 8,-55"/>
<text text-anchor="start" x="11" y="-61.2" font-family="Helvetica,sans-Serif" font-size="11.00">...</text>
<polygon fill="#ffffff" stroke="transparent" points="8,-37 8,-55 188,-55 188,-37 8,-37"/>
<polygon fill="none" stroke="black" points="8,-37 8,-55 188,-55 188,-37 8,-37"/>
<polygon fill="#ffffff" stroke="transparent" points="9,-38 9,-54 61,-54 61,-38 9,-38"/>
<text text-anchor="start" x="11" y="-43.2" font-family="Helvetica,sans-Serif" font-size="11.00">&lt; 4</text>
<polygon fill="#ffffff" stroke="transparent" points="61,-38 61,-54 130,-54 130,-38 61,-38"/>
<text text-anchor="start" x="79" y="-43.2" font-family="Helvetica,sans-Serif" font-size="11.00">8 rows</text>
<polygon fill="#ffffff" stroke="transparent" points="130,-38 130,-54 187,-54 187,-38 130,-38"/>
<text text-anchor="start" x="163" y="-43.2" font-family="Helvetica,sans-Serif" font-size="11.00">39 &gt;</text>
<polygon fill="black" stroke="black" points="61,-38 61,-54 61,-54 61,-38 61,-38"/>
<polygon fill="black" stroke="black" points="130,-38 130,-54 130,-54 130,-38 130,-38"/>
</a>
</g>
</g>
<!-- a_asset&#45;&gt;m_locator -->
<g id="edge2" class="edge">
<title>a_asset:w&#45;&gt;m_locator:e</title>
<path fill="none" stroke="black" d="M537.93,-521.21C505.11,-486.67 549.36,-308.18 511,-274 457.52,-226.36 260.62,-260 189,-260"/>
<polygon fill="black" stroke="black" points="544.14,-523.86 550.09,-530.31 547.82,-525.43 551.5,-527 551.5,-527 551.5,-527 547.82,-525.43 552.91,-523.69 544.14,-523.86 544.14,-523.86"/>
<ellipse fill="none" stroke="black" cx="541.2" cy="-522.6" rx="3.2" ry="3.2"/>
</g>
<!-- m_product -->
<g id="node4" class="node">
<title>m_product</title>
<g id="a_node4"><a xlink:href="../../tables/m_product.html" xlink:title="m_product" target="_top">
<polygon fill="#ffffff" stroke="transparent" points="237,-284 237,-980 503,-980 503,-284 237,-284"/>
<polygon fill="#f5f5f5" stroke="transparent" points="237,-958 237,-980 503,-980 503,-958 237,-958"/>
<polygon fill="none" stroke="black" points="237,-958 237,-980 503,-980 503,-958 237,-958"/>
<text text-anchor="start" x="242" y="-967.2" font-family="Helvetica,sans-Serif" font-weight="bold" font-size="11.00">m_product</text>
<text text-anchor="start" x="468" y="-966.2" font-family="Helvetica,sans-Serif" font-size="11.00">[table]</text>
<polygon fill="none" stroke="black" points="237,-936 237,-958 503,-958 503,-936 237,-936"/>
<image xlink:href="../../images/primaryKeys.png" width="11px" height="12px" preserveAspectRatio="xMinYMin meet" x="242" y="-953"/>
<text text-anchor="start" x="257" y="-944.2" font-family="Helvetica,sans-Serif" font-size="11.00">m_product_id</text>
<polygon fill="#ffffff" stroke="transparent" points="237,-914 237,-936 503,-936 503,-914 237,-914"/>
<polygon fill="none" stroke="black" points="237,-914 237,-936 503,-936 503,-914 237,-914"/>
<image xlink:href="../../images/foreignKeys.png" width="11px" height="12px" preserveAspectRatio="xMinYMin meet" x="242" y="-931"/>
<text text-anchor="start" x="257" y="-922.2" font-family="Helvetica,sans-Serif" font-size="11.00">ad_client_id</text>
<polygon fill="none" stroke="black" points="237,-892 237,-914 503,-914 503,-892 237,-892"/>
<image xlink:href="../../images/foreignKeys.png" width="11px" height="12px" preserveAspectRatio="xMinYMin meet" x="242" y="-909"/>
<text text-anchor="start" x="257" y="-900.2" font-family="Helvetica,sans-Serif" font-size="11.00">ad_org_id</text>
<polygon fill="#ffffff" stroke="transparent" points="237,-870 237,-892 503,-892 503,-870 237,-870"/>
<polygon fill="none" stroke="black" points="237,-870 237,-892 503,-892 503,-870 237,-870"/>
<text text-anchor="start" x="257" y="-878.2" font-family="Helvetica,sans-Serif" font-size="11.00">value</text>
<polygon fill="#ffffff" stroke="transparent" points="237,-848 237,-870 503,-870 503,-848 237,-848"/>
<polygon fill="none" stroke="black" points="237,-848 237,-870 503,-870 503,-848 237,-848"/>
<text text-anchor="start" x="257" y="-856.2" font-family="Helvetica,sans-Serif" font-size="11.00">name</text>
<polygon fill="#ffffff" stroke="transparent" points="237,-826 237,-848 503,-848 503,-826 237,-826"/>
<polygon fill="none" stroke="black" points="237,-826 237,-848 503,-848 503,-826 237,-826"/>
<text text-anchor="start" x="257" y="-834.2" font-family="Helvetica,sans-Serif" font-size="11.00">upc</text>
<polygon fill="none" stroke="black" points="237,-804 237,-826 503,-826 503,-804 237,-804"/>
<image xlink:href="../../images/foreignKeys.png" width="11px" height="12px" preserveAspectRatio="xMinYMin meet" x="242" y="-821"/>
<text text-anchor="start" x="257" y="-812.2" font-family="Helvetica,sans-Serif" font-size="11.00">c_uom_id</text>
<polygon fill="none" stroke="black" points="237,-782 237,-804 503,-804 503,-782 237,-782"/>
<image xlink:href="../../images/foreignKeys.png" width="11px" height="12px" preserveAspectRatio="xMinYMin meet" x="242" y="-799"/>
<text text-anchor="start" x="257" y="-790.2" font-family="Helvetica,sans-Serif" font-size="11.00">salesrep_id</text>
<polygon fill="none" stroke="black" points="237,-760 237,-782 503,-782 503,-760 237,-760"/>
<image xlink:href="../../images/foreignKeys.png" width="11px" height="12px" preserveAspectRatio="xMinYMin meet" x="242" y="-777"/>
<text text-anchor="start" x="257" y="-768.2" font-family="Helvetica,sans-Serif" font-size="11.00">c_revenuerecognition_id</text>
<polygon fill="#ffffff" stroke="transparent" points="237,-738 237,-760 503,-760 503,-738 237,-738"/>
<polygon fill="none" stroke="black" points="237,-738 237,-760 503,-760 503,-738 237,-738"/>
<image xlink:href="../../images/foreignKeys.png" width="11px" height="12px" preserveAspectRatio="xMinYMin meet" x="242" y="-755"/>
<text text-anchor="start" x="257" y="-746.2" font-family="Helvetica,sans-Serif" font-size="11.00">m_product_category_id</text>
<polygon fill="none" stroke="black" points="237,-716 237,-738 503,-738 503,-716 237,-716"/>
<image xlink:href="../../images/foreignKeys.png" width="11px" height="12px" preserveAspectRatio="xMinYMin meet" x="242" y="-733"/>
<text text-anchor="start" x="257" y="-724.2" font-family="Helvetica,sans-Serif" font-size="11.00">c_taxcategory_id</text>
<polygon fill="#ffffff" stroke="transparent" points="237,-694 237,-716 503,-716 503,-694 237,-694"/>
<polygon fill="none" stroke="black" points="237,-694 237,-716 503,-716 503,-694 237,-694"/>
<image xlink:href="../../images/foreignKeys.png" width="11px" height="12px" preserveAspectRatio="xMinYMin meet" x="242" y="-711"/>
<text text-anchor="start" x="257" y="-702.2" font-family="Helvetica,sans-Serif" font-size="11.00">s_resource_id</text>
<polygon fill="#ffffff" stroke="transparent" points="237,-672 237,-694 503,-694 503,-672 237,-672"/>
<polygon fill="none" stroke="black" points="237,-672 237,-694 503,-694 503,-672 237,-672"/>
<image xlink:href="../../images/foreignKeys.png" width="11px" height="12px" preserveAspectRatio="xMinYMin meet" x="242" y="-689"/>
<text text-anchor="start" x="257" y="-680.2" font-family="Helvetica,sans-Serif" font-size="11.00">s_expensetype_id</text>
<polygon fill="none" stroke="black" points="237,-650 237,-672 503,-672 503,-650 237,-650"/>
<image xlink:href="../../images/foreignKeys.png" width="11px" height="12px" preserveAspectRatio="xMinYMin meet" x="242" y="-667"/>
<text text-anchor="start" x="257" y="-658.2" font-family="Helvetica,sans-Serif" font-size="11.00">r_mailtext_id</text>
<polygon fill="none" stroke="black" points="237,-628 237,-650 503,-650 503,-628 237,-628"/>
<image xlink:href="../../images/foreignKeys.png" width="11px" height="12px" preserveAspectRatio="xMinYMin meet" x="242" y="-645"/>
<text text-anchor="start" x="257" y="-636.2" font-family="Helvetica,sans-Serif" font-size="11.00">m_attributeset_id</text>
<polygon fill="none" stroke="black" points="237,-606 237,-628 503,-628 503,-606 237,-606"/>
<image xlink:href="../../images/foreignKeys.png" width="11px" height="12px" preserveAspectRatio="xMinYMin meet" x="242" y="-623"/>
<text text-anchor="start" x="257" y="-614.2" font-family="Helvetica,sans-Serif" font-size="11.00">m_freightcategory_id</text>
<polygon fill="none" stroke="black" points="237,-584 237,-606 503,-606 503,-584 237,-584"/>
<image xlink:href="../../images/foreignKeys.png" width="11px" height="12px" preserveAspectRatio="xMinYMin meet" x="242" y="-601"/>
<text text-anchor="start" x="257" y="-592.2" font-family="Helvetica,sans-Serif" font-size="11.00">m_locator_id</text>
<polygon fill="none" stroke="black" points="237,-562 237,-584 503,-584 503,-562 237,-562"/>
<image xlink:href="../../images/foreignKeys.png" width="11px" height="12px" preserveAspectRatio="xMinYMin meet" x="242" y="-579"/>
<text text-anchor="start" x="257" y="-570.2" font-family="Helvetica,sans-Serif" font-size="11.00">c_subscriptiontype_id</text>
<polygon fill="#ffffff" stroke="transparent" points="237,-540 237,-562 503,-562 503,-540 237,-540"/>
<polygon fill="none" stroke="black" points="237,-540 237,-562 503,-562 503,-540 237,-540"/>
<text text-anchor="start" x="257" y="-548.2" font-family="Helvetica,sans-Serif" font-size="11.00">m_product_uu</text>
<polygon fill="none" stroke="black" points="237,-518 237,-540 503,-540 503,-518 237,-518"/>
<image xlink:href="../../images/foreignKeys.png" width="11px" height="12px" preserveAspectRatio="xMinYMin meet" x="242" y="-535"/>
<text text-anchor="start" x="257" y="-526.2" font-family="Helvetica,sans-Serif" font-size="11.00">m_parttype_id</text>
<polygon fill="none" stroke="black" points="237,-496 237,-518 503,-518 503,-496 237,-496"/>
<image xlink:href="../../images/foreignKeys.png" width="11px" height="12px" preserveAspectRatio="xMinYMin meet" x="242" y="-513"/>
<text text-anchor="start" x="257" y="-504.2" font-family="Helvetica,sans-Serif" font-size="11.00">cof_cest_id</text>
<polygon fill="none" stroke="black" points="237,-474 237,-496 503,-496 503,-474 237,-474"/>
<image xlink:href="../../images/foreignKeys.png" width="11px" height="12px" preserveAspectRatio="xMinYMin meet" x="242" y="-491"/>
<text text-anchor="start" x="257" y="-482.2" font-family="Helvetica,sans-Serif" font-size="11.00">cof_c_generoitem_sped_id</text>
<polygon fill="none" stroke="black" points="237,-452 237,-474 503,-474 503,-452 237,-452"/>
<image xlink:href="../../images/foreignKeys.png" width="11px" height="12px" preserveAspectRatio="xMinYMin meet" x="242" y="-469"/>
<text text-anchor="start" x="257" y="-460.2" font-family="Helvetica,sans-Serif" font-size="11.00">cof_producttype_id</text>
<polygon fill="none" stroke="black" points="237,-430 237,-452 503,-452 503,-430 237,-430"/>
<image xlink:href="../../images/foreignKeys.png" width="11px" height="12px" preserveAspectRatio="xMinYMin meet" x="242" y="-447"/>
<text text-anchor="start" x="257" y="-438.2" font-family="Helvetica,sans-Serif" font-size="11.00">cof_productclass_id</text>
<polygon fill="none" stroke="black" points="237,-408 237,-430 503,-430 503,-408 237,-408"/>
<image xlink:href="../../images/foreignKeys.png" width="11px" height="12px" preserveAspectRatio="xMinYMin meet" x="242" y="-425"/>
<text text-anchor="start" x="257" y="-416.2" font-family="Helvetica,sans-Serif" font-size="11.00">cof_productgroup_id</text>
<polygon fill="none" stroke="black" points="237,-386 237,-408 503,-408 503,-386 237,-386"/>
<image xlink:href="../../images/foreignKeys.png" width="11px" height="12px" preserveAspectRatio="xMinYMin meet" x="242" y="-403"/>
<text text-anchor="start" x="257" y="-394.2" font-family="Helvetica,sans-Serif" font-size="11.00">cof_nbs_id</text>
<polygon fill="none" stroke="black" points="237,-364 237,-386 503,-386 503,-364 237,-364"/>
<image xlink:href="../../images/foreignKeys.png" width="11px" height="12px" preserveAspectRatio="xMinYMin meet" x="242" y="-381"/>
<text text-anchor="start" x="257" y="-372.2" font-family="Helvetica,sans-Serif" font-size="11.00">cof_grupofornecedor_id</text>
<polygon fill="none" stroke="black" points="237,-342 237,-364 503,-364 503,-342 237,-342"/>
<image xlink:href="../../images/foreignKeys.png" width="11px" height="12px" preserveAspectRatio="xMinYMin meet" x="242" y="-359"/>
<text text-anchor="start" x="257" y="-350.2" font-family="Helvetica,sans-Serif" font-size="11.00">cof_gruposeparacao_id</text>
<polygon fill="none" stroke="black" points="237,-320 237,-342 503,-342 503,-320 237,-320"/>
<image xlink:href="../../images/foreignKeys.png" width="11px" height="12px" preserveAspectRatio="xMinYMin meet" x="242" y="-337"/>
<text text-anchor="start" x="257" y="-328.2" font-family="Helvetica,sans-Serif" font-size="11.00">cof_servicoatrelado_id</text>
<polygon fill="none" stroke="black" points="237,-302 237,-320 503,-320 503,-302 237,-302"/>
<text text-anchor="start" x="240" y="-308.2" font-family="Helvetica,sans-Serif" font-size="11.00">...</text>
<polygon fill="#ffffff" stroke="transparent" points="237,-284 237,-302 503,-302 503,-284 237,-284"/>
<polygon fill="none" stroke="black" points="237,-284 237,-302 503,-302 503,-284 237,-284"/>
<polygon fill="#ffffff" stroke="transparent" points="238,-285 238,-301 322,-301 322,-285 238,-285"/>
<text text-anchor="start" x="240" y="-290.2" font-family="Helvetica,sans-Serif" font-size="11.00">&lt; 24</text>
<polygon fill="#ffffff" stroke="transparent" points="322,-285 322,-301 412,-301 412,-285 322,-285"/>
<text text-anchor="start" x="353" y="-290.2" font-family="Helvetica,sans-Serif" font-size="11.00">1 row</text>
<polygon fill="#ffffff" stroke="transparent" points="412,-285 412,-301 502,-301 502,-285 412,-285"/>
<text text-anchor="start" x="472" y="-290.2" font-family="Helvetica,sans-Serif" font-size="11.00">187 &gt;</text>
<polygon fill="black" stroke="black" points="322,-285 322,-301 322,-301 322,-285 322,-285"/>
<polygon fill="black" stroke="black" points="412,-285 412,-301 412,-301 412,-285 412,-285"/>
</a>
</g>
</g>
<!-- a_asset&#45;&gt;m_product -->
<g id="edge3" class="edge">
<title>a_asset:w&#45;&gt;m_product:e</title>
<path fill="none" stroke="black" d="M537.64,-553.2C477.44,-595.74 587.68,-947 504,-947"/>
<polygon fill="black" stroke="black" points="543.84,-551.32 552.54,-552.45 547.67,-550.16 551.5,-549 551.5,-549 551.5,-549 547.67,-550.16 550.46,-545.55 543.84,-551.32 543.84,-551.32"/>
<ellipse fill="none" stroke="black" cx="540.78" cy="-552.25" rx="3.2" ry="3.2"/>
</g>
<!-- m_product&#45;&gt;m_locator -->
<g id="edge8" class="edge">
<title>m_product:w&#45;&gt;m_locator:e</title>
<path fill="none" stroke="black" d="M221.61,-593.79C102.99,-571.86 334.06,-260 189,-260"/>
<polygon fill="black" stroke="black" points="228.03,-594.33 235.7,-598.59 232.01,-594.66 236,-595 236,-595 236,-595 232.01,-594.66 236.3,-591.41 228.03,-594.33 228.03,-594.33"/>
<ellipse fill="none" stroke="black" cx="224.84" cy="-594.06" rx="3.2" ry="3.2"/>
</g>
<!-- a_asset_product -->
<g id="node5" class="node">
<title>a_asset_product</title>
<g id="a_node5"><a xlink:href="../../tables/a_asset_product.html" xlink:title="a_asset_product" target="_top">
<polygon fill="#ffffff" stroke="transparent" points="812,-229 812,-603 1110,-603 1110,-229 812,-229"/>
<polygon fill="#f5f5f5" stroke="transparent" points="814,-579 814,-601 1108,-601 1108,-579 814,-579"/>
<polygon fill="none" stroke="black" points="814,-579 814,-601 1108,-601 1108,-579 814,-579"/>
<text text-anchor="start" x="819" y="-588.2" font-family="Helvetica,sans-Serif" font-weight="bold" font-size="11.00">a_asset_product</text>
<text text-anchor="start" x="1073" y="-587.2" font-family="Helvetica,sans-Serif" font-size="11.00">[table]</text>
<polygon fill="none" stroke="black" points="814,-557 814,-579 1025,-579 1025,-557 814,-557"/>
<image xlink:href="../../images/primaryKeys.png" width="11px" height="12px" preserveAspectRatio="xMinYMin meet" x="819" y="-574"/>
<text text-anchor="start" x="834" y="-565.2" font-family="Helvetica,sans-Serif" font-size="11.00">a_asset_product_id</text>
<polygon fill="none" stroke="black" points="1025,-557 1025,-579 1108,-579 1108,-557 1025,-557"/>
<text text-anchor="start" x="1028" y="-565.2" font-family="Helvetica,sans-Serif" font-size="11.00">numeric[10]</text>
<polygon fill="none" stroke="black" points="814,-535 814,-557 1025,-557 1025,-535 814,-535"/>
<text text-anchor="start" x="834" y="-543.2" font-family="Helvetica,sans-Serif" font-size="11.00">ad_client_id</text>
<polygon fill="none" stroke="black" points="1025,-535 1025,-557 1108,-557 1108,-535 1025,-535"/>
<text text-anchor="start" x="1028" y="-543.2" font-family="Helvetica,sans-Serif" font-size="11.00">numeric[10]</text>
<polygon fill="none" stroke="black" points="814,-513 814,-535 1025,-535 1025,-513 814,-513"/>
<text text-anchor="start" x="834" y="-521.2" font-family="Helvetica,sans-Serif" font-size="11.00">ad_org_id</text>
<polygon fill="none" stroke="black" points="1025,-513 1025,-535 1108,-535 1108,-513 1025,-513"/>
<text text-anchor="start" x="1028" y="-521.2" font-family="Helvetica,sans-Serif" font-size="11.00">numeric[10]</text>
<polygon fill="none" stroke="black" points="814,-491 814,-513 1025,-513 1025,-491 814,-491"/>
<text text-anchor="start" x="834" y="-499.2" font-family="Helvetica,sans-Serif" font-size="11.00">isactive</text>
<polygon fill="none" stroke="black" points="1025,-491 1025,-513 1108,-513 1108,-491 1025,-491"/>
<text text-anchor="start" x="1028" y="-499.2" font-family="Helvetica,sans-Serif" font-size="11.00">bpchar[1]</text>
<polygon fill="none" stroke="black" points="814,-469 814,-491 1025,-491 1025,-469 814,-469"/>
<text text-anchor="start" x="834" y="-477.2" font-family="Helvetica,sans-Serif" font-size="11.00">created</text>
<polygon fill="none" stroke="black" points="1025,-469 1025,-491 1108,-491 1108,-469 1025,-469"/>
<text text-anchor="start" x="1028" y="-477.2" font-family="Helvetica,sans-Serif" font-size="11.00">timestamp[29,6]</text>
<polygon fill="none" stroke="black" points="814,-447 814,-469 1025,-469 1025,-447 814,-447"/>
<text text-anchor="start" x="834" y="-455.2" font-family="Helvetica,sans-Serif" font-size="11.00">createdby</text>
<polygon fill="none" stroke="black" points="1025,-447 1025,-469 1108,-469 1108,-447 1025,-447"/>
<text text-anchor="start" x="1028" y="-455.2" font-family="Helvetica,sans-Serif" font-size="11.00">numeric[10]</text>
<polygon fill="none" stroke="black" points="814,-425 814,-447 1025,-447 1025,-425 814,-425"/>
<text text-anchor="start" x="834" y="-433.2" font-family="Helvetica,sans-Serif" font-size="11.00">updated</text>
<polygon fill="none" stroke="black" points="1025,-425 1025,-447 1108,-447 1108,-425 1025,-425"/>
<text text-anchor="start" x="1028" y="-433.2" font-family="Helvetica,sans-Serif" font-size="11.00">timestamp[29,6]</text>
<polygon fill="none" stroke="black" points="814,-403 814,-425 1025,-425 1025,-403 814,-403"/>
<text text-anchor="start" x="834" y="-411.2" font-family="Helvetica,sans-Serif" font-size="11.00">updatedby</text>
<polygon fill="none" stroke="black" points="1025,-403 1025,-425 1108,-425 1108,-403 1025,-403"/>
<text text-anchor="start" x="1028" y="-411.2" font-family="Helvetica,sans-Serif" font-size="11.00">numeric[10]</text>
<polygon fill="none" stroke="black" points="814,-381 814,-403 1025,-403 1025,-381 814,-381"/>
<image xlink:href="../../images/foreignKeys.png" width="11px" height="12px" preserveAspectRatio="xMinYMin meet" x="819" y="-398"/>
<text text-anchor="start" x="834" y="-389.2" font-family="Helvetica,sans-Serif" font-size="11.00">a_asset_id</text>
<polygon fill="none" stroke="black" points="1025,-381 1025,-403 1108,-403 1108,-381 1025,-381"/>
<text text-anchor="start" x="1028" y="-389.2" font-family="Helvetica,sans-Serif" font-size="11.00">numeric[10]</text>
<polygon fill="none" stroke="black" points="814,-359 814,-381 1025,-381 1025,-359 814,-359"/>
<image xlink:href="../../images/foreignKeys.png" width="11px" height="12px" preserveAspectRatio="xMinYMin meet" x="819" y="-376"/>
<text text-anchor="start" x="834" y="-367.2" font-family="Helvetica,sans-Serif" font-size="11.00">m_product_id</text>
<polygon fill="none" stroke="black" points="1025,-359 1025,-381 1108,-381 1108,-359 1025,-359"/>
<text text-anchor="start" x="1028" y="-367.2" font-family="Helvetica,sans-Serif" font-size="11.00">numeric[10]</text>
<polygon fill="none" stroke="black" points="814,-337 814,-359 1025,-359 1025,-337 814,-337"/>
<image xlink:href="../../images/foreignKeys.png" width="11px" height="12px" preserveAspectRatio="xMinYMin meet" x="819" y="-354"/>
<text text-anchor="start" x="834" y="-345.2" font-family="Helvetica,sans-Serif" font-size="11.00">m_attributesetinstance_id</text>
<polygon fill="none" stroke="black" points="1025,-337 1025,-359 1108,-359 1108,-337 1025,-337"/>
<text text-anchor="start" x="1028" y="-345.2" font-family="Helvetica,sans-Serif" font-size="11.00">numeric[10]</text>
<polygon fill="none" stroke="black" points="814,-315 814,-337 1025,-337 1025,-315 814,-315"/>
<image xlink:href="../../images/foreignKeys.png" width="11px" height="12px" preserveAspectRatio="xMinYMin meet" x="819" y="-332"/>
<text text-anchor="start" x="834" y="-323.2" font-family="Helvetica,sans-Serif" font-size="11.00">m_locator_id</text>
<polygon fill="none" stroke="black" points="1025,-315 1025,-337 1108,-337 1108,-315 1025,-315"/>
<text text-anchor="start" x="1028" y="-323.2" font-family="Helvetica,sans-Serif" font-size="11.00">numeric[10]</text>
<polygon fill="none" stroke="black" points="814,-293 814,-315 1025,-315 1025,-293 814,-293"/>
<text text-anchor="start" x="834" y="-301.2" font-family="Helvetica,sans-Serif" font-size="11.00">description</text>
<polygon fill="none" stroke="black" points="1025,-293 1025,-315 1108,-315 1108,-293 1025,-293"/>
<text text-anchor="start" x="1028" y="-301.2" font-family="Helvetica,sans-Serif" font-size="11.00">varchar[255]</text>
<polygon fill="none" stroke="black" points="814,-271 814,-293 1025,-293 1025,-271 814,-271"/>
<text text-anchor="start" x="834" y="-279.2" font-family="Helvetica,sans-Serif" font-size="11.00">a_qty_current</text>
<polygon fill="none" stroke="black" points="1025,-271 1025,-293 1108,-293 1108,-271 1025,-271"/>
<text text-anchor="start" x="1028" y="-279.2" font-family="Helvetica,sans-Serif" font-size="11.00">numeric[0]</text>
<polygon fill="#ffffff" stroke="transparent" points="814,-249 814,-271 1025,-271 1025,-249 814,-249"/>
<polygon fill="none" stroke="black" points="814,-249 814,-271 1025,-271 1025,-249 814,-249"/>
<text text-anchor="start" x="834" y="-257.2" font-family="Helvetica,sans-Serif" font-size="11.00">a_asset_product_uu</text>
<polygon fill="none" stroke="black" points="1025,-249 1025,-271 1108,-271 1108,-249 1025,-249"/>
<text text-anchor="start" x="1028" y="-257.2" font-family="Helvetica,sans-Serif" font-size="11.00">varchar[36]</text>
<polygon fill="#ffffff" stroke="transparent" points="814,-231 814,-249 1108,-249 1108,-231 814,-231"/>
<polygon fill="none" stroke="black" points="814,-231 814,-249 1108,-249 1108,-231 814,-231"/>
<polygon fill="#ffffff" stroke="transparent" points="815,-232 815,-248 916,-248 916,-232 815,-232"/>
<text text-anchor="start" x="817" y="-237.2" font-family="Helvetica,sans-Serif" font-size="11.00">&lt; 4</text>
<polygon fill="#ffffff" stroke="transparent" points="916,-232 916,-248 1007,-248 1007,-232 916,-232"/>
<text text-anchor="start" x="958" y="-237.2" font-family="Helvetica,sans-Serif" font-size="11.00"> &#160;</text>
<polygon fill="#ffffff" stroke="transparent" points="1007,-232 1007,-248 1107,-248 1107,-232 1007,-232"/>
<text text-anchor="start" x="1089" y="-237.2" font-family="Helvetica,sans-Serif" font-size="11.00">0 &gt;</text>
<polygon fill="black" stroke="black" points="916,-232 916,-248 916,-248 916,-232 916,-232"/>
<polygon fill="black" stroke="black" points="1007,-232 1007,-248 1007,-248 1007,-232 1007,-232"/>
<polygon fill="none" stroke="black" stroke-width="2" points="813,-230 813,-602 1109,-602 1109,-230 813,-230"/>
</a>
</g>
</g>
<!-- a_asset_product&#45;&gt;a_asset -->
<g id="edge4" class="edge">
<title>a_asset_product:w&#45;&gt;a_asset:e</title>
<path fill="none" stroke="black" d="M798.71,-394.12C736.65,-415.6 850.83,-593 764.5,-593"/>
<polygon fill="black" stroke="black" points="805.09,-393.17 813.53,-395.56 809.04,-392.59 813,-392 813,-392 813,-392 809.04,-392.59 812.47,-388.44 805.09,-393.17 805.09,-393.17"/>
<ellipse fill="none" stroke="black" cx="801.92" cy="-393.64" rx="3.2" ry="3.2"/>
</g>
<!-- a_asset_product&#45;&gt;m_attributesetinstance -->
<g id="edge5" class="edge">
<title>a_asset_product:w&#45;&gt;m_attributesetinstance:e</title>
<path fill="none" stroke="black" d="M798.57,-346.3C741.95,-330.68 832.8,-211.4 771,-162 692.19,-99.01 640.92,-133.99 544,-162 511.19,-171.48 513.16,-203 479,-203"/>
<polygon fill="black" stroke="black" points="805.05,-347.06 812.58,-351.58 809.03,-347.53 813,-348 813,-348 813,-348 809.03,-347.53 813.42,-344.42 805.05,-347.06 805.05,-347.06"/>
<ellipse fill="none" stroke="black" cx="801.88" cy="-346.69" rx="3.2" ry="3.2"/>
</g>
<!-- a_asset_product&#45;&gt;m_locator -->
<g id="edge6" class="edge">
<title>a_asset_product:w&#45;&gt;m_locator:e</title>
<path fill="none" stroke="black" d="M798.54,-324.53C734.64,-309.53 832.93,-183.88 771,-124 686.69,-42.48 627.84,-89.04 511,-79 386.13,-68.27 326.72,-0.52 229,-79 164.77,-130.59 271.39,-260 189,-260"/>
<polygon fill="black" stroke="black" points="805.04,-325.19 812.64,-329.58 809.02,-325.59 813,-326 813,-326 813,-326 809.02,-325.59 813.36,-322.42 805.04,-325.19 805.04,-325.19"/>
<ellipse fill="none" stroke="black" cx="801.86" cy="-324.86" rx="3.2" ry="3.2"/>
</g>
<!-- a_asset_product&#45;&gt;m_product -->
<g id="edge7" class="edge">
<title>a_asset_product:w&#45;&gt;m_product:e</title>
<path fill="none" stroke="black" d="M799.24,-374.86C760.33,-406.77 793.85,-586.56 771,-636 694.56,-801.36 686.17,-947 504,-947"/>
<polygon fill="black" stroke="black" points="805.46,-372.66 814.2,-373.39 809.23,-371.33 813,-370 813,-370 813,-370 809.23,-371.33 811.8,-366.61 805.46,-372.66 805.46,-372.66"/>
<ellipse fill="none" stroke="black" cx="802.44" cy="-373.73" rx="3.2" ry="3.2"/>
</g>
</g>
</svg>
