<?xml version="1.0" encoding="UTF-8" standalone="no"?>
<!DOCTYPE svg PUBLIC "-//W3C//DTD SVG 1.1//EN"
 "http://www.w3.org/Graphics/SVG/1.1/DTD/svg11.dtd">
<!-- Generated by graphviz version 2.43.0 (0)
 -->
<!-- Title: oneDegreeRelationshipsDiagram Pages: 1 -->
<svg width="849pt" height="1271pt"
 viewBox="0.00 0.00 849.00 1271.00" xmlns="http://www.w3.org/2000/svg" xmlns:xlink="http://www.w3.org/1999/xlink">
<g id="graph0" class="graph" transform="scale(1 1) rotate(0) translate(4 1267)">
<title>oneDegreeRelationshipsDiagram</title>
<polygon fill="#ffffff" stroke="transparent" points="-4,4 -4,-1267 845,-1267 845,4 -4,4"/>
<text text-anchor="middle" x="71.5" y="-7.2" font-family="Helvetica,sans-Serif" font-size="11.00">Generated by SchemaSpy</text>
<!-- a_asset -->
<g id="node1" class="node">
<title>a_asset</title>
<g id="a_node1"><a xlink:href="../../tables/a_asset.html" xlink:title="a_asset" target="_top">
<polygon fill="#ffffff" stroke="transparent" points="297,-805 297,-1259 508,-1259 508,-805 297,-805"/>
<polygon fill="#f5f5f5" stroke="transparent" points="297.5,-1237 297.5,-1259 508.5,-1259 508.5,-1237 297.5,-1237"/>
<polygon fill="none" stroke="black" points="297.5,-1237 297.5,-1259 508.5,-1259 508.5,-1237 297.5,-1237"/>
<text text-anchor="start" x="302.5" y="-1246.2" font-family="Helvetica,sans-Serif" font-weight="bold" font-size="11.00">a_asset</text>
<text text-anchor="start" x="473.5" y="-1245.2" font-family="Helvetica,sans-Serif" font-size="11.00">[table]</text>
<polygon fill="none" stroke="black" points="297.5,-1215 297.5,-1237 508.5,-1237 508.5,-1215 297.5,-1215"/>
<image xlink:href="../../images/primaryKeys.png" width="11px" height="12px" preserveAspectRatio="xMinYMin meet" x="302.5" y="-1232"/>
<text text-anchor="start" x="317.5" y="-1223.2" font-family="Helvetica,sans-Serif" font-size="11.00">a_asset_id</text>
<polygon fill="none" stroke="black" points="297.5,-1193 297.5,-1215 508.5,-1215 508.5,-1193 297.5,-1193"/>
<image xlink:href="../../images/foreignKeys.png" width="11px" height="12px" preserveAspectRatio="xMinYMin meet" x="302.5" y="-1210"/>
<text text-anchor="start" x="317.5" y="-1201.2" font-family="Helvetica,sans-Serif" font-size="11.00">a_asset_group_id</text>
<polygon fill="none" stroke="black" points="297.5,-1171 297.5,-1193 508.5,-1193 508.5,-1171 297.5,-1171"/>
<image xlink:href="../../images/foreignKeys.png" width="11px" height="12px" preserveAspectRatio="xMinYMin meet" x="302.5" y="-1188"/>
<text text-anchor="start" x="317.5" y="-1179.2" font-family="Helvetica,sans-Serif" font-size="11.00">m_product_id</text>
<polygon fill="none" stroke="black" points="297.5,-1149 297.5,-1171 508.5,-1171 508.5,-1149 297.5,-1149"/>
<image xlink:href="../../images/foreignKeys.png" width="11px" height="12px" preserveAspectRatio="xMinYMin meet" x="302.5" y="-1166"/>
<text text-anchor="start" x="317.5" y="-1157.2" font-family="Helvetica,sans-Serif" font-size="11.00">m_locator_id</text>
<polygon fill="none" stroke="black" points="297.5,-1127 297.5,-1149 508.5,-1149 508.5,-1127 297.5,-1127"/>
<image xlink:href="../../images/foreignKeys.png" width="11px" height="12px" preserveAspectRatio="xMinYMin meet" x="302.5" y="-1144"/>
<text text-anchor="start" x="317.5" y="-1135.2" font-family="Helvetica,sans-Serif" font-size="11.00">c_bpartner_id</text>
<polygon fill="none" stroke="black" points="297.5,-1105 297.5,-1127 508.5,-1127 508.5,-1105 297.5,-1105"/>
<image xlink:href="../../images/foreignKeys.png" width="11px" height="12px" preserveAspectRatio="xMinYMin meet" x="302.5" y="-1122"/>
<text text-anchor="start" x="317.5" y="-1113.2" font-family="Helvetica,sans-Serif" font-size="11.00">c_bpartner_location_id</text>
<polygon fill="none" stroke="black" points="297.5,-1083 297.5,-1105 508.5,-1105 508.5,-1083 297.5,-1083"/>
<image xlink:href="../../images/foreignKeys.png" width="11px" height="12px" preserveAspectRatio="xMinYMin meet" x="302.5" y="-1100"/>
<text text-anchor="start" x="317.5" y="-1091.2" font-family="Helvetica,sans-Serif" font-size="11.00">c_location_id</text>
<polygon fill="none" stroke="black" points="297.5,-1061 297.5,-1083 508.5,-1083 508.5,-1061 297.5,-1061"/>
<image xlink:href="../../images/foreignKeys.png" width="11px" height="12px" preserveAspectRatio="xMinYMin meet" x="302.5" y="-1078"/>
<text text-anchor="start" x="317.5" y="-1069.2" font-family="Helvetica,sans-Serif" font-size="11.00">ad_user_id</text>
<polygon fill="none" stroke="black" points="297.5,-1039 297.5,-1061 508.5,-1061 508.5,-1039 297.5,-1039"/>
<image xlink:href="../../images/foreignKeys.png" width="11px" height="12px" preserveAspectRatio="xMinYMin meet" x="302.5" y="-1056"/>
<text text-anchor="start" x="317.5" y="-1047.2" font-family="Helvetica,sans-Serif" font-size="11.00">m_attributesetinstance_id</text>
<polygon fill="none" stroke="black" points="297.5,-1017 297.5,-1039 508.5,-1039 508.5,-1017 297.5,-1017"/>
<image xlink:href="../../images/foreignKeys.png" width="11px" height="12px" preserveAspectRatio="xMinYMin meet" x="302.5" y="-1034"/>
<text text-anchor="start" x="317.5" y="-1025.2" font-family="Helvetica,sans-Serif" font-size="11.00">c_project_id</text>
<polygon fill="none" stroke="black" points="297.5,-995 297.5,-1017 508.5,-1017 508.5,-995 297.5,-995"/>
<image xlink:href="../../images/foreignKeys.png" width="11px" height="12px" preserveAspectRatio="xMinYMin meet" x="302.5" y="-1012"/>
<text text-anchor="start" x="317.5" y="-1003.2" font-family="Helvetica,sans-Serif" font-size="11.00">c_bpartnersr_id</text>
<polygon fill="none" stroke="black" points="297.5,-973 297.5,-995 508.5,-995 508.5,-973 297.5,-973"/>
<image xlink:href="../../images/foreignKeys.png" width="11px" height="12px" preserveAspectRatio="xMinYMin meet" x="302.5" y="-990"/>
<text text-anchor="start" x="317.5" y="-981.2" font-family="Helvetica,sans-Serif" font-size="11.00">m_inoutline_id</text>
<polygon fill="none" stroke="black" points="297.5,-951 297.5,-973 508.5,-973 508.5,-951 297.5,-951"/>
<image xlink:href="../../images/foreignKeys.png" width="11px" height="12px" preserveAspectRatio="xMinYMin meet" x="302.5" y="-968"/>
<text text-anchor="start" x="317.5" y="-959.2" font-family="Helvetica,sans-Serif" font-size="11.00">lease_bpartner_id</text>
<polygon fill="none" stroke="black" points="297.5,-929 297.5,-951 508.5,-951 508.5,-929 297.5,-929"/>
<image xlink:href="../../images/foreignKeys.png" width="11px" height="12px" preserveAspectRatio="xMinYMin meet" x="302.5" y="-946"/>
<text text-anchor="start" x="317.5" y="-937.2" font-family="Helvetica,sans-Serif" font-size="11.00">a_parent_asset_id</text>
<polygon fill="#ffffff" stroke="transparent" points="297.5,-907 297.5,-929 508.5,-929 508.5,-907 297.5,-907"/>
<polygon fill="none" stroke="black" points="297.5,-907 297.5,-929 508.5,-929 508.5,-907 297.5,-907"/>
<text text-anchor="start" x="317.5" y="-915.2" font-family="Helvetica,sans-Serif" font-size="11.00">a_asset_uu</text>
<polygon fill="none" stroke="black" points="297.5,-885 297.5,-907 508.5,-907 508.5,-885 297.5,-885"/>
<image xlink:href="../../images/foreignKeys.png" width="11px" height="12px" preserveAspectRatio="xMinYMin meet" x="302.5" y="-902"/>
<text text-anchor="start" x="317.5" y="-893.2" font-family="Helvetica,sans-Serif" font-size="11.00">a_asset_class_id</text>
<polygon fill="none" stroke="black" points="297.5,-863 297.5,-885 508.5,-885 508.5,-863 297.5,-863"/>
<image xlink:href="../../images/foreignKeys.png" width="11px" height="12px" preserveAspectRatio="xMinYMin meet" x="302.5" y="-880"/>
<text text-anchor="start" x="317.5" y="-871.2" font-family="Helvetica,sans-Serif" font-size="11.00">a_asset_type_id</text>
<polygon fill="none" stroke="black" points="297.5,-841 297.5,-863 508.5,-863 508.5,-841 297.5,-841"/>
<image xlink:href="../../images/foreignKeys.png" width="11px" height="12px" preserveAspectRatio="xMinYMin meet" x="302.5" y="-858"/>
<text text-anchor="start" x="317.5" y="-849.2" font-family="Helvetica,sans-Serif" font-size="11.00">c_activity_id</text>
<polygon fill="none" stroke="black" points="297.5,-823 297.5,-841 508.5,-841 508.5,-823 297.5,-823"/>
<text text-anchor="start" x="300.5" y="-829.2" font-family="Helvetica,sans-Serif" font-size="11.00">...</text>
<polygon fill="#ffffff" stroke="transparent" points="297.5,-805 297.5,-823 508.5,-823 508.5,-805 297.5,-805"/>
<polygon fill="none" stroke="black" points="297.5,-805 297.5,-823 508.5,-823 508.5,-805 297.5,-805"/>
<polygon fill="#ffffff" stroke="transparent" points="298.5,-806 298.5,-822 373.5,-822 373.5,-806 298.5,-806"/>
<text text-anchor="start" x="300.5" y="-811.2" font-family="Helvetica,sans-Serif" font-size="11.00">&lt; 16</text>
<polygon fill="#ffffff" stroke="transparent" points="373.5,-806 373.5,-822 433.5,-822 433.5,-806 373.5,-806"/>
<text text-anchor="start" x="400" y="-811.2" font-family="Helvetica,sans-Serif" font-size="11.00"> &#160;</text>
<polygon fill="#ffffff" stroke="transparent" points="433.5,-806 433.5,-822 507.5,-822 507.5,-806 433.5,-806"/>
<text text-anchor="start" x="483.5" y="-811.2" font-family="Helvetica,sans-Serif" font-size="11.00">52 &gt;</text>
<polygon fill="black" stroke="black" points="373.5,-806 373.5,-822 373.5,-822 373.5,-806 373.5,-806"/>
<polygon fill="black" stroke="black" points="433.5,-806 433.5,-822 433.5,-822 433.5,-806 433.5,-806"/>
</a>
</g>
</g>
<!-- ad_user -->
<g id="node2" class="node">
<title>ad_user</title>
<g id="a_node2"><a xlink:href="../../tables/ad_user.html" xlink:title="ad_user" target="_top">
<polygon fill="#ffffff" stroke="transparent" points="8,-688 8,-1252 248,-1252 248,-688 8,-688"/>
<polygon fill="#f5f5f5" stroke="transparent" points="8,-1230 8,-1252 248,-1252 248,-1230 8,-1230"/>
<polygon fill="none" stroke="black" points="8,-1230 8,-1252 248,-1252 248,-1230 8,-1230"/>
<text text-anchor="start" x="13" y="-1239.2" font-family="Helvetica,sans-Serif" font-weight="bold" font-size="11.00">ad_user</text>
<text text-anchor="start" x="213" y="-1238.2" font-family="Helvetica,sans-Serif" font-size="11.00">[table]</text>
<polygon fill="none" stroke="black" points="8,-1208 8,-1230 248,-1230 248,-1208 8,-1208"/>
<image xlink:href="../../images/primaryKeys.png" width="11px" height="12px" preserveAspectRatio="xMinYMin meet" x="13" y="-1225"/>
<text text-anchor="start" x="28" y="-1216.2" font-family="Helvetica,sans-Serif" font-size="11.00">ad_user_id</text>
<polygon fill="none" stroke="black" points="8,-1186 8,-1208 248,-1208 248,-1186 8,-1186"/>
<image xlink:href="../../images/foreignKeys.png" width="11px" height="12px" preserveAspectRatio="xMinYMin meet" x="13" y="-1203"/>
<text text-anchor="start" x="28" y="-1194.2" font-family="Helvetica,sans-Serif" font-size="11.00">ad_client_id</text>
<polygon fill="none" stroke="black" points="8,-1164 8,-1186 248,-1186 248,-1164 8,-1164"/>
<image xlink:href="../../images/foreignKeys.png" width="11px" height="12px" preserveAspectRatio="xMinYMin meet" x="13" y="-1181"/>
<text text-anchor="start" x="28" y="-1172.2" font-family="Helvetica,sans-Serif" font-size="11.00">ad_org_id</text>
<polygon fill="#ffffff" stroke="transparent" points="8,-1142 8,-1164 248,-1164 248,-1142 8,-1142"/>
<polygon fill="none" stroke="black" points="8,-1142 8,-1164 248,-1164 248,-1142 8,-1142"/>
<text text-anchor="start" x="28" y="-1150.2" font-family="Helvetica,sans-Serif" font-size="11.00">name</text>
<polygon fill="#ffffff" stroke="transparent" points="8,-1120 8,-1142 248,-1142 248,-1120 8,-1120"/>
<polygon fill="none" stroke="black" points="8,-1120 8,-1142 248,-1142 248,-1120 8,-1120"/>
<text text-anchor="start" x="28" y="-1128.2" font-family="Helvetica,sans-Serif" font-size="11.00">email</text>
<polygon fill="none" stroke="black" points="8,-1098 8,-1120 248,-1120 248,-1098 8,-1098"/>
<image xlink:href="../../images/foreignKeys.png" width="11px" height="12px" preserveAspectRatio="xMinYMin meet" x="13" y="-1115"/>
<text text-anchor="start" x="28" y="-1106.2" font-family="Helvetica,sans-Serif" font-size="11.00">supervisor_id</text>
<polygon fill="#ffffff" stroke="transparent" points="8,-1076 8,-1098 248,-1098 248,-1076 8,-1076"/>
<polygon fill="none" stroke="black" points="8,-1076 8,-1098 248,-1098 248,-1076 8,-1076"/>
<image xlink:href="../../images/foreignKeys.png" width="11px" height="12px" preserveAspectRatio="xMinYMin meet" x="13" y="-1093"/>
<text text-anchor="start" x="28" y="-1084.2" font-family="Helvetica,sans-Serif" font-size="11.00">c_bpartner_id</text>
<polygon fill="none" stroke="black" points="8,-1054 8,-1076 248,-1076 248,-1054 8,-1054"/>
<image xlink:href="../../images/foreignKeys.png" width="11px" height="12px" preserveAspectRatio="xMinYMin meet" x="13" y="-1071"/>
<text text-anchor="start" x="28" y="-1062.2" font-family="Helvetica,sans-Serif" font-size="11.00">c_bpartner_location_id</text>
<polygon fill="none" stroke="black" points="8,-1032 8,-1054 248,-1054 248,-1032 8,-1032"/>
<image xlink:href="../../images/foreignKeys.png" width="11px" height="12px" preserveAspectRatio="xMinYMin meet" x="13" y="-1049"/>
<text text-anchor="start" x="28" y="-1040.2" font-family="Helvetica,sans-Serif" font-size="11.00">c_greeting_id</text>
<polygon fill="none" stroke="black" points="8,-1010 8,-1032 248,-1032 248,-1010 8,-1010"/>
<image xlink:href="../../images/foreignKeys.png" width="11px" height="12px" preserveAspectRatio="xMinYMin meet" x="13" y="-1027"/>
<text text-anchor="start" x="28" y="-1018.2" font-family="Helvetica,sans-Serif" font-size="11.00">ad_orgtrx_id</text>
<polygon fill="none" stroke="black" points="8,-988 8,-1010 248,-1010 248,-988 8,-988"/>
<image xlink:href="../../images/foreignKeys.png" width="11px" height="12px" preserveAspectRatio="xMinYMin meet" x="13" y="-1005"/>
<text text-anchor="start" x="28" y="-996.2" font-family="Helvetica,sans-Serif" font-size="11.00">c_job_id</text>
<polygon fill="#ffffff" stroke="transparent" points="8,-966 8,-988 248,-988 248,-966 8,-966"/>
<polygon fill="none" stroke="black" points="8,-966 8,-988 248,-988 248,-966 8,-966"/>
<text text-anchor="start" x="28" y="-974.2" font-family="Helvetica,sans-Serif" font-size="11.00">ad_user_uu</text>
<polygon fill="none" stroke="black" points="8,-944 8,-966 248,-966 248,-944 8,-944"/>
<image xlink:href="../../images/foreignKeys.png" width="11px" height="12px" preserveAspectRatio="xMinYMin meet" x="13" y="-961"/>
<text text-anchor="start" x="28" y="-952.2" font-family="Helvetica,sans-Serif" font-size="11.00">c_location_id</text>
<polygon fill="none" stroke="black" points="8,-922 8,-944 248,-944 248,-922 8,-922"/>
<image xlink:href="../../images/foreignKeys.png" width="11px" height="12px" preserveAspectRatio="xMinYMin meet" x="13" y="-939"/>
<text text-anchor="start" x="28" y="-930.2" font-family="Helvetica,sans-Serif" font-size="11.00">c_campaign_id</text>
<polygon fill="none" stroke="black" points="8,-900 8,-922 248,-922 248,-900 8,-900"/>
<image xlink:href="../../images/foreignKeys.png" width="11px" height="12px" preserveAspectRatio="xMinYMin meet" x="13" y="-917"/>
<text text-anchor="start" x="28" y="-908.2" font-family="Helvetica,sans-Serif" font-size="11.00">salesrep_id</text>
<polygon fill="none" stroke="black" points="8,-878 8,-900 248,-900 248,-878 8,-878"/>
<image xlink:href="../../images/foreignKeys.png" width="11px" height="12px" preserveAspectRatio="xMinYMin meet" x="13" y="-895"/>
<text text-anchor="start" x="28" y="-886.2" font-family="Helvetica,sans-Serif" font-size="11.00">bp_location_id</text>
<polygon fill="none" stroke="black" points="8,-856 8,-878 248,-878 248,-856 8,-856"/>
<image xlink:href="../../images/foreignKeys.png" width="11px" height="12px" preserveAspectRatio="xMinYMin meet" x="13" y="-873"/>
<text text-anchor="start" x="28" y="-864.2" font-family="Helvetica,sans-Serif" font-size="11.00">r_defaultmailtext_id</text>
<polygon fill="none" stroke="black" points="8,-834 8,-856 248,-856 248,-834 8,-834"/>
<image xlink:href="../../images/foreignKeys.png" width="11px" height="12px" preserveAspectRatio="xMinYMin meet" x="13" y="-851"/>
<text text-anchor="start" x="28" y="-842.2" font-family="Helvetica,sans-Serif" font-size="11.00">cof_c_marketsegment_id</text>
<polygon fill="none" stroke="black" points="8,-812 8,-834 248,-834 248,-812 8,-812"/>
<image xlink:href="../../images/foreignKeys.png" width="11px" height="12px" preserveAspectRatio="xMinYMin meet" x="13" y="-829"/>
<text text-anchor="start" x="28" y="-820.2" font-family="Helvetica,sans-Serif" font-size="11.00">cof_c_leadexpirationreason_id</text>
<polygon fill="none" stroke="black" points="8,-790 8,-812 248,-812 248,-790 8,-790"/>
<image xlink:href="../../images/foreignKeys.png" width="11px" height="12px" preserveAspectRatio="xMinYMin meet" x="13" y="-807"/>
<text text-anchor="start" x="28" y="-798.2" font-family="Helvetica,sans-Serif" font-size="11.00">ad_image_id</text>
<polygon fill="none" stroke="black" points="8,-768 8,-790 248,-790 248,-768 8,-768"/>
<image xlink:href="../../images/foreignKeys.png" width="11px" height="12px" preserveAspectRatio="xMinYMin meet" x="13" y="-785"/>
<text text-anchor="start" x="28" y="-776.2" font-family="Helvetica,sans-Serif" font-size="11.00">c_subscription_id</text>
<polygon fill="none" stroke="black" points="8,-746 8,-768 248,-768 248,-746 8,-746"/>
<image xlink:href="../../images/foreignKeys.png" width="11px" height="12px" preserveAspectRatio="xMinYMin meet" x="13" y="-763"/>
<text text-anchor="start" x="28" y="-754.2" font-family="Helvetica,sans-Serif" font-size="11.00">cof_responsavelindicacao_id</text>
<polygon fill="none" stroke="black" points="8,-724 8,-746 248,-746 248,-724 8,-724"/>
<image xlink:href="../../images/foreignKeys.png" width="11px" height="12px" preserveAspectRatio="xMinYMin meet" x="13" y="-741"/>
<text text-anchor="start" x="28" y="-732.2" font-family="Helvetica,sans-Serif" font-size="11.00">cof_respatribuicao_id</text>
<polygon fill="none" stroke="black" points="8,-706 8,-724 248,-724 248,-706 8,-706"/>
<text text-anchor="start" x="11" y="-712.2" font-family="Helvetica,sans-Serif" font-size="11.00">...</text>
<polygon fill="#ffffff" stroke="transparent" points="8,-688 8,-706 248,-706 248,-688 8,-688"/>
<polygon fill="none" stroke="black" points="8,-688 8,-706 248,-706 248,-688 8,-688"/>
<polygon fill="#ffffff" stroke="transparent" points="9,-689 9,-705 83,-705 83,-689 9,-689"/>
<text text-anchor="start" x="11" y="-694.2" font-family="Helvetica,sans-Serif" font-size="11.00">&lt; 19</text>
<polygon fill="#ffffff" stroke="transparent" points="83,-689 83,-705 168,-705 168,-689 83,-689"/>
<text text-anchor="start" x="109" y="-694.2" font-family="Helvetica,sans-Serif" font-size="11.00">8 rows</text>
<polygon fill="#ffffff" stroke="transparent" points="168,-689 168,-705 247,-705 247,-689 168,-689"/>
<text text-anchor="start" x="217" y="-694.2" font-family="Helvetica,sans-Serif" font-size="11.00">446 &gt;</text>
<polygon fill="black" stroke="black" points="83,-689 83,-705 83,-705 83,-689 83,-689"/>
<polygon fill="black" stroke="black" points="168,-689 168,-705 168,-705 168,-689 168,-689"/>
</a>
</g>
</g>
<!-- a_asset&#45;&gt;ad_user -->
<g id="edge1" class="edge">
<title>a_asset:w&#45;&gt;ad_user:e</title>
<path fill="none" stroke="black" d="M282.37,-1074.94C241.81,-1095.65 311.89,-1219 249,-1219"/>
<polygon fill="black" stroke="black" points="288.67,-1073.63 297.23,-1075.52 292.58,-1072.81 296.5,-1072 296.5,-1072 296.5,-1072 292.58,-1072.81 295.77,-1068.48 288.67,-1073.63 288.67,-1073.63"/>
<ellipse fill="none" stroke="black" cx="285.53" cy="-1074.28" rx="3.2" ry="3.2"/>
</g>
<!-- m_inoutline -->
<g id="node3" class="node">
<title>m_inoutline</title>
<g id="a_node3"><a xlink:href="../../tables/m_inoutline.html" xlink:title="m_inoutline" target="_top">
<polygon fill="#ffffff" stroke="transparent" points="22.5,-37 22.5,-667 233.5,-667 233.5,-37 22.5,-37"/>
<polygon fill="#f5f5f5" stroke="transparent" points="23,-645 23,-667 234,-667 234,-645 23,-645"/>
<polygon fill="none" stroke="black" points="23,-645 23,-667 234,-667 234,-645 23,-645"/>
<text text-anchor="start" x="28" y="-654.2" font-family="Helvetica,sans-Serif" font-weight="bold" font-size="11.00">m_inoutline</text>
<text text-anchor="start" x="199" y="-653.2" font-family="Helvetica,sans-Serif" font-size="11.00">[table]</text>
<polygon fill="none" stroke="black" points="23,-623 23,-645 234,-645 234,-623 23,-623"/>
<image xlink:href="../../images/primaryKeys.png" width="11px" height="12px" preserveAspectRatio="xMinYMin meet" x="28" y="-640"/>
<text text-anchor="start" x="43" y="-631.2" font-family="Helvetica,sans-Serif" font-size="11.00">m_inoutline_id</text>
<polygon fill="none" stroke="black" points="23,-601 23,-623 234,-623 234,-601 23,-601"/>
<image xlink:href="../../images/foreignKeys.png" width="11px" height="12px" preserveAspectRatio="xMinYMin meet" x="28" y="-618"/>
<text text-anchor="start" x="43" y="-609.2" font-family="Helvetica,sans-Serif" font-size="11.00">ad_org_id</text>
<polygon fill="#ffffff" stroke="transparent" points="23,-579 23,-601 234,-601 234,-579 23,-579"/>
<polygon fill="none" stroke="black" points="23,-579 23,-601 234,-601 234,-579 23,-579"/>
<image xlink:href="../../images/foreignKeys.png" width="11px" height="12px" preserveAspectRatio="xMinYMin meet" x="28" y="-596"/>
<text text-anchor="start" x="43" y="-587.2" font-family="Helvetica,sans-Serif" font-size="11.00">m_inout_id</text>
<polygon fill="#ffffff" stroke="transparent" points="23,-557 23,-579 234,-579 234,-557 23,-557"/>
<polygon fill="none" stroke="black" points="23,-557 23,-579 234,-579 234,-557 23,-557"/>
<image xlink:href="../../images/foreignKeys.png" width="11px" height="12px" preserveAspectRatio="xMinYMin meet" x="28" y="-574"/>
<text text-anchor="start" x="43" y="-565.2" font-family="Helvetica,sans-Serif" font-size="11.00">c_orderline_id</text>
<polygon fill="none" stroke="black" points="23,-535 23,-557 234,-557 234,-535 23,-535"/>
<image xlink:href="../../images/foreignKeys.png" width="11px" height="12px" preserveAspectRatio="xMinYMin meet" x="28" y="-552"/>
<text text-anchor="start" x="43" y="-543.2" font-family="Helvetica,sans-Serif" font-size="11.00">m_locator_id</text>
<polygon fill="#ffffff" stroke="transparent" points="23,-513 23,-535 234,-535 234,-513 23,-513"/>
<polygon fill="none" stroke="black" points="23,-513 23,-535 234,-535 234,-513 23,-513"/>
<image xlink:href="../../images/foreignKeys.png" width="11px" height="12px" preserveAspectRatio="xMinYMin meet" x="28" y="-530"/>
<text text-anchor="start" x="43" y="-521.2" font-family="Helvetica,sans-Serif" font-size="11.00">m_product_id</text>
<polygon fill="none" stroke="black" points="23,-491 23,-513 234,-513 234,-491 23,-491"/>
<image xlink:href="../../images/foreignKeys.png" width="11px" height="12px" preserveAspectRatio="xMinYMin meet" x="28" y="-508"/>
<text text-anchor="start" x="43" y="-499.2" font-family="Helvetica,sans-Serif" font-size="11.00">c_uom_id</text>
<polygon fill="none" stroke="black" points="23,-469 23,-491 234,-491 234,-469 23,-469"/>
<image xlink:href="../../images/foreignKeys.png" width="11px" height="12px" preserveAspectRatio="xMinYMin meet" x="28" y="-486"/>
<text text-anchor="start" x="43" y="-477.2" font-family="Helvetica,sans-Serif" font-size="11.00">m_attributesetinstance_id</text>
<polygon fill="none" stroke="black" points="23,-447 23,-469 234,-469 234,-447 23,-447"/>
<image xlink:href="../../images/foreignKeys.png" width="11px" height="12px" preserveAspectRatio="xMinYMin meet" x="28" y="-464"/>
<text text-anchor="start" x="43" y="-455.2" font-family="Helvetica,sans-Serif" font-size="11.00">ref_inoutline_id</text>
<polygon fill="none" stroke="black" points="23,-425 23,-447 234,-447 234,-425 23,-425"/>
<image xlink:href="../../images/foreignKeys.png" width="11px" height="12px" preserveAspectRatio="xMinYMin meet" x="28" y="-442"/>
<text text-anchor="start" x="43" y="-433.2" font-family="Helvetica,sans-Serif" font-size="11.00">c_charge_id</text>
<polygon fill="none" stroke="black" points="23,-403 23,-425 234,-425 234,-403 23,-403"/>
<image xlink:href="../../images/foreignKeys.png" width="11px" height="12px" preserveAspectRatio="xMinYMin meet" x="28" y="-420"/>
<text text-anchor="start" x="43" y="-411.2" font-family="Helvetica,sans-Serif" font-size="11.00">c_project_id</text>
<polygon fill="none" stroke="black" points="23,-381 23,-403 234,-403 234,-381 23,-381"/>
<image xlink:href="../../images/foreignKeys.png" width="11px" height="12px" preserveAspectRatio="xMinYMin meet" x="28" y="-398"/>
<text text-anchor="start" x="43" y="-389.2" font-family="Helvetica,sans-Serif" font-size="11.00">c_projectphase_id</text>
<polygon fill="none" stroke="black" points="23,-359 23,-381 234,-381 234,-359 23,-359"/>
<image xlink:href="../../images/foreignKeys.png" width="11px" height="12px" preserveAspectRatio="xMinYMin meet" x="28" y="-376"/>
<text text-anchor="start" x="43" y="-367.2" font-family="Helvetica,sans-Serif" font-size="11.00">c_projecttask_id</text>
<polygon fill="none" stroke="black" points="23,-337 23,-359 234,-359 234,-337 23,-337"/>
<image xlink:href="../../images/foreignKeys.png" width="11px" height="12px" preserveAspectRatio="xMinYMin meet" x="28" y="-354"/>
<text text-anchor="start" x="43" y="-345.2" font-family="Helvetica,sans-Serif" font-size="11.00">c_campaign_id</text>
<polygon fill="none" stroke="black" points="23,-315 23,-337 234,-337 234,-315 23,-315"/>
<image xlink:href="../../images/foreignKeys.png" width="11px" height="12px" preserveAspectRatio="xMinYMin meet" x="28" y="-332"/>
<text text-anchor="start" x="43" y="-323.2" font-family="Helvetica,sans-Serif" font-size="11.00">c_activity_id</text>
<polygon fill="none" stroke="black" points="23,-293 23,-315 234,-315 234,-293 23,-293"/>
<image xlink:href="../../images/foreignKeys.png" width="11px" height="12px" preserveAspectRatio="xMinYMin meet" x="28" y="-310"/>
<text text-anchor="start" x="43" y="-301.2" font-family="Helvetica,sans-Serif" font-size="11.00">user1_id</text>
<polygon fill="none" stroke="black" points="23,-271 23,-293 234,-293 234,-271 23,-271"/>
<image xlink:href="../../images/foreignKeys.png" width="11px" height="12px" preserveAspectRatio="xMinYMin meet" x="28" y="-288"/>
<text text-anchor="start" x="43" y="-279.2" font-family="Helvetica,sans-Serif" font-size="11.00">user2_id</text>
<polygon fill="none" stroke="black" points="23,-249 23,-271 234,-271 234,-249 23,-249"/>
<image xlink:href="../../images/foreignKeys.png" width="11px" height="12px" preserveAspectRatio="xMinYMin meet" x="28" y="-266"/>
<text text-anchor="start" x="43" y="-257.2" font-family="Helvetica,sans-Serif" font-size="11.00">ad_orgtrx_id</text>
<polygon fill="none" stroke="black" points="23,-227 23,-249 234,-249 234,-227 23,-227"/>
<image xlink:href="../../images/foreignKeys.png" width="11px" height="12px" preserveAspectRatio="xMinYMin meet" x="28" y="-244"/>
<text text-anchor="start" x="43" y="-235.2" font-family="Helvetica,sans-Serif" font-size="11.00">m_rmaline_id</text>
<polygon fill="none" stroke="black" points="23,-205 23,-227 234,-227 234,-205 23,-205"/>
<image xlink:href="../../images/foreignKeys.png" width="11px" height="12px" preserveAspectRatio="xMinYMin meet" x="28" y="-222"/>
<text text-anchor="start" x="43" y="-213.2" font-family="Helvetica,sans-Serif" font-size="11.00">reversalline_id</text>
<polygon fill="#ffffff" stroke="transparent" points="23,-183 23,-205 234,-205 234,-183 23,-183"/>
<polygon fill="none" stroke="black" points="23,-183 23,-205 234,-205 234,-183 23,-183"/>
<text text-anchor="start" x="43" y="-191.2" font-family="Helvetica,sans-Serif" font-size="11.00">m_inoutline_uu</text>
<polygon fill="none" stroke="black" points="23,-161 23,-183 234,-183 234,-161 23,-161"/>
<image xlink:href="../../images/foreignKeys.png" width="11px" height="12px" preserveAspectRatio="xMinYMin meet" x="28" y="-178"/>
<text text-anchor="start" x="43" y="-169.2" font-family="Helvetica,sans-Serif" font-size="11.00">lbr_docfiscal_line_id</text>
<polygon fill="none" stroke="black" points="23,-139 23,-161 234,-161 234,-139 23,-139"/>
<image xlink:href="../../images/foreignKeys.png" width="11px" height="12px" preserveAspectRatio="xMinYMin meet" x="28" y="-156"/>
<text text-anchor="start" x="43" y="-147.2" font-family="Helvetica,sans-Serif" font-size="11.00">cof_pontoremessa_id</text>
<polygon fill="none" stroke="black" points="23,-117 23,-139 234,-139 234,-117 23,-117"/>
<image xlink:href="../../images/foreignKeys.png" width="11px" height="12px" preserveAspectRatio="xMinYMin meet" x="28" y="-134"/>
<text text-anchor="start" x="43" y="-125.2" font-family="Helvetica,sans-Serif" font-size="11.00">cof_kitvendas_id</text>
<polygon fill="none" stroke="black" points="23,-95 23,-117 234,-117 234,-95 23,-95"/>
<image xlink:href="../../images/foreignKeys.png" width="11px" height="12px" preserveAspectRatio="xMinYMin meet" x="28" y="-112"/>
<text text-anchor="start" x="43" y="-103.2" font-family="Helvetica,sans-Serif" font-size="11.00">pp_product_bom_id</text>
<polygon fill="none" stroke="black" points="23,-73 23,-95 234,-95 234,-73 23,-73"/>
<image xlink:href="../../images/foreignKeys.png" width="11px" height="12px" preserveAspectRatio="xMinYMin meet" x="28" y="-90"/>
<text text-anchor="start" x="43" y="-81.2" font-family="Helvetica,sans-Serif" font-size="11.00">cof_mprecebida_id</text>
<polygon fill="none" stroke="black" points="23,-55 23,-73 234,-73 234,-55 23,-55"/>
<text text-anchor="start" x="26" y="-61.2" font-family="Helvetica,sans-Serif" font-size="11.00">...</text>
<polygon fill="#ffffff" stroke="transparent" points="23,-37 23,-55 234,-55 234,-37 23,-37"/>
<polygon fill="none" stroke="black" points="23,-37 23,-55 234,-55 234,-37 23,-37"/>
<polygon fill="#ffffff" stroke="transparent" points="24,-38 24,-54 99,-54 99,-38 24,-38"/>
<text text-anchor="start" x="26" y="-43.2" font-family="Helvetica,sans-Serif" font-size="11.00">&lt; 24</text>
<polygon fill="#ffffff" stroke="transparent" points="99,-38 99,-54 159,-54 159,-38 99,-38"/>
<text text-anchor="start" x="125.5" y="-43.2" font-family="Helvetica,sans-Serif" font-size="11.00"> &#160;</text>
<polygon fill="#ffffff" stroke="transparent" points="159,-38 159,-54 233,-54 233,-38 159,-38"/>
<text text-anchor="start" x="209" y="-43.2" font-family="Helvetica,sans-Serif" font-size="11.00">23 &gt;</text>
<polygon fill="black" stroke="black" points="99,-38 99,-54 99,-54 99,-38 99,-38"/>
<polygon fill="black" stroke="black" points="159,-38 159,-54 159,-54 159,-38 159,-38"/>
</a>
</g>
</g>
<!-- a_asset&#45;&gt;m_inoutline -->
<g id="edge2" class="edge">
<title>a_asset:w&#45;&gt;m_inoutline:e</title>
<path fill="none" stroke="black" d="M282.65,-979.32C229.9,-937.78 308.57,-634 235,-634"/>
<polygon fill="black" stroke="black" points="288.92,-981.44 295.35,-987.41 292.71,-982.72 296.5,-984 296.5,-984 296.5,-984 292.71,-982.72 297.65,-980.59 288.92,-981.44 288.92,-981.44"/>
<ellipse fill="none" stroke="black" cx="285.89" cy="-980.41" rx="3.2" ry="3.2"/>
</g>
<!-- a_asset_delivery -->
<g id="node4" class="node">
<title>a_asset_delivery</title>
<g id="a_node4"><a xlink:href="../../tables/a_asset_delivery.html" xlink:title="a_asset_delivery" target="_top">
<polygon fill="#ffffff" stroke="transparent" points="557,-650 557,-1244 833,-1244 833,-650 557,-650"/>
<polygon fill="#f5f5f5" stroke="transparent" points="559,-1220 559,-1242 831,-1242 831,-1220 559,-1220"/>
<polygon fill="none" stroke="black" points="559,-1220 559,-1242 831,-1242 831,-1220 559,-1220"/>
<text text-anchor="start" x="564" y="-1229.2" font-family="Helvetica,sans-Serif" font-weight="bold" font-size="11.00">a_asset_delivery</text>
<text text-anchor="start" x="796" y="-1228.2" font-family="Helvetica,sans-Serif" font-size="11.00">[table]</text>
<polygon fill="none" stroke="black" points="559,-1198 559,-1220 748,-1220 748,-1198 559,-1198"/>
<image xlink:href="../../images/primaryKeys.png" width="11px" height="12px" preserveAspectRatio="xMinYMin meet" x="564" y="-1215"/>
<text text-anchor="start" x="579" y="-1206.2" font-family="Helvetica,sans-Serif" font-size="11.00">a_asset_delivery_id</text>
<polygon fill="none" stroke="black" points="748,-1198 748,-1220 831,-1220 831,-1198 748,-1198"/>
<text text-anchor="start" x="751" y="-1206.2" font-family="Helvetica,sans-Serif" font-size="11.00">numeric[10]</text>
<polygon fill="none" stroke="black" points="559,-1176 559,-1198 748,-1198 748,-1176 559,-1176"/>
<text text-anchor="start" x="579" y="-1184.2" font-family="Helvetica,sans-Serif" font-size="11.00">ad_client_id</text>
<polygon fill="none" stroke="black" points="748,-1176 748,-1198 831,-1198 831,-1176 748,-1176"/>
<text text-anchor="start" x="751" y="-1184.2" font-family="Helvetica,sans-Serif" font-size="11.00">numeric[10]</text>
<polygon fill="none" stroke="black" points="559,-1154 559,-1176 748,-1176 748,-1154 559,-1154"/>
<text text-anchor="start" x="579" y="-1162.2" font-family="Helvetica,sans-Serif" font-size="11.00">ad_org_id</text>
<polygon fill="none" stroke="black" points="748,-1154 748,-1176 831,-1176 831,-1154 748,-1154"/>
<text text-anchor="start" x="751" y="-1162.2" font-family="Helvetica,sans-Serif" font-size="11.00">numeric[10]</text>
<polygon fill="none" stroke="black" points="559,-1132 559,-1154 748,-1154 748,-1132 559,-1132"/>
<text text-anchor="start" x="579" y="-1140.2" font-family="Helvetica,sans-Serif" font-size="11.00">isactive</text>
<polygon fill="none" stroke="black" points="748,-1132 748,-1154 831,-1154 831,-1132 748,-1132"/>
<text text-anchor="start" x="751" y="-1140.2" font-family="Helvetica,sans-Serif" font-size="11.00">bpchar[1]</text>
<polygon fill="none" stroke="black" points="559,-1110 559,-1132 748,-1132 748,-1110 559,-1110"/>
<text text-anchor="start" x="579" y="-1118.2" font-family="Helvetica,sans-Serif" font-size="11.00">created</text>
<polygon fill="none" stroke="black" points="748,-1110 748,-1132 831,-1132 831,-1110 748,-1110"/>
<text text-anchor="start" x="751" y="-1118.2" font-family="Helvetica,sans-Serif" font-size="11.00">timestamp[29,6]</text>
<polygon fill="none" stroke="black" points="559,-1088 559,-1110 748,-1110 748,-1088 559,-1088"/>
<text text-anchor="start" x="579" y="-1096.2" font-family="Helvetica,sans-Serif" font-size="11.00">createdby</text>
<polygon fill="none" stroke="black" points="748,-1088 748,-1110 831,-1110 831,-1088 748,-1088"/>
<text text-anchor="start" x="751" y="-1096.2" font-family="Helvetica,sans-Serif" font-size="11.00">numeric[10]</text>
<polygon fill="none" stroke="black" points="559,-1066 559,-1088 748,-1088 748,-1066 559,-1066"/>
<text text-anchor="start" x="579" y="-1074.2" font-family="Helvetica,sans-Serif" font-size="11.00">updated</text>
<polygon fill="none" stroke="black" points="748,-1066 748,-1088 831,-1088 831,-1066 748,-1066"/>
<text text-anchor="start" x="751" y="-1074.2" font-family="Helvetica,sans-Serif" font-size="11.00">timestamp[29,6]</text>
<polygon fill="none" stroke="black" points="559,-1044 559,-1066 748,-1066 748,-1044 559,-1044"/>
<text text-anchor="start" x="579" y="-1052.2" font-family="Helvetica,sans-Serif" font-size="11.00">updatedby</text>
<polygon fill="none" stroke="black" points="748,-1044 748,-1066 831,-1066 831,-1044 748,-1044"/>
<text text-anchor="start" x="751" y="-1052.2" font-family="Helvetica,sans-Serif" font-size="11.00">numeric[10]</text>
<polygon fill="none" stroke="black" points="559,-1022 559,-1044 748,-1044 748,-1022 559,-1022"/>
<image xlink:href="../../images/foreignKeys.png" width="11px" height="12px" preserveAspectRatio="xMinYMin meet" x="564" y="-1039"/>
<text text-anchor="start" x="579" y="-1030.2" font-family="Helvetica,sans-Serif" font-size="11.00">a_asset_id</text>
<polygon fill="none" stroke="black" points="748,-1022 748,-1044 831,-1044 831,-1022 748,-1022"/>
<text text-anchor="start" x="751" y="-1030.2" font-family="Helvetica,sans-Serif" font-size="11.00">numeric[10]</text>
<polygon fill="none" stroke="black" points="559,-1000 559,-1022 748,-1022 748,-1000 559,-1000"/>
<text text-anchor="start" x="579" y="-1008.2" font-family="Helvetica,sans-Serif" font-size="11.00">movementdate</text>
<polygon fill="none" stroke="black" points="748,-1000 748,-1022 831,-1022 831,-1000 748,-1000"/>
<text text-anchor="start" x="751" y="-1008.2" font-family="Helvetica,sans-Serif" font-size="11.00">timestamp[29,6]</text>
<polygon fill="none" stroke="black" points="559,-978 559,-1000 748,-1000 748,-978 559,-978"/>
<text text-anchor="start" x="579" y="-986.2" font-family="Helvetica,sans-Serif" font-size="11.00">serno</text>
<polygon fill="none" stroke="black" points="748,-978 748,-1000 831,-1000 831,-978 748,-978"/>
<text text-anchor="start" x="751" y="-986.2" font-family="Helvetica,sans-Serif" font-size="11.00">varchar[40]</text>
<polygon fill="none" stroke="black" points="559,-956 559,-978 748,-978 748,-956 559,-956"/>
<text text-anchor="start" x="579" y="-964.2" font-family="Helvetica,sans-Serif" font-size="11.00">lot</text>
<polygon fill="none" stroke="black" points="748,-956 748,-978 831,-978 831,-956 748,-956"/>
<text text-anchor="start" x="751" y="-964.2" font-family="Helvetica,sans-Serif" font-size="11.00">varchar[40]</text>
<polygon fill="none" stroke="black" points="559,-934 559,-956 748,-956 748,-934 559,-934"/>
<text text-anchor="start" x="579" y="-942.2" font-family="Helvetica,sans-Serif" font-size="11.00">versionno</text>
<polygon fill="none" stroke="black" points="748,-934 748,-956 831,-956 831,-934 748,-934"/>
<text text-anchor="start" x="751" y="-942.2" font-family="Helvetica,sans-Serif" font-size="11.00">varchar[20]</text>
<polygon fill="none" stroke="black" points="559,-912 559,-934 748,-934 748,-912 559,-912"/>
<image xlink:href="../../images/foreignKeys.png" width="11px" height="12px" preserveAspectRatio="xMinYMin meet" x="564" y="-929"/>
<text text-anchor="start" x="579" y="-920.2" font-family="Helvetica,sans-Serif" font-size="11.00">m_inoutline_id</text>
<polygon fill="none" stroke="black" points="748,-912 748,-934 831,-934 831,-912 748,-912"/>
<text text-anchor="start" x="751" y="-920.2" font-family="Helvetica,sans-Serif" font-size="11.00">numeric[10]</text>
<polygon fill="none" stroke="black" points="559,-890 559,-912 748,-912 748,-890 559,-890"/>
<text text-anchor="start" x="579" y="-898.2" font-family="Helvetica,sans-Serif" font-size="11.00">email</text>
<polygon fill="none" stroke="black" points="748,-890 748,-912 831,-912 831,-890 748,-890"/>
<text text-anchor="start" x="751" y="-898.2" font-family="Helvetica,sans-Serif" font-size="11.00">varchar[60]</text>
<polygon fill="none" stroke="black" points="559,-868 559,-890 748,-890 748,-868 559,-868"/>
<text text-anchor="start" x="579" y="-876.2" font-family="Helvetica,sans-Serif" font-size="11.00">messageid</text>
<polygon fill="none" stroke="black" points="748,-868 748,-890 831,-890 831,-868 748,-868"/>
<text text-anchor="start" x="751" y="-876.2" font-family="Helvetica,sans-Serif" font-size="11.00">varchar[120]</text>
<polygon fill="none" stroke="black" points="559,-846 559,-868 748,-868 748,-846 559,-846"/>
<text text-anchor="start" x="579" y="-854.2" font-family="Helvetica,sans-Serif" font-size="11.00">deliveryconfirmation</text>
<polygon fill="none" stroke="black" points="748,-846 748,-868 831,-868 831,-846 748,-846"/>
<text text-anchor="start" x="751" y="-854.2" font-family="Helvetica,sans-Serif" font-size="11.00">varchar[120]</text>
<polygon fill="none" stroke="black" points="559,-824 559,-846 748,-846 748,-824 559,-824"/>
<text text-anchor="start" x="579" y="-832.2" font-family="Helvetica,sans-Serif" font-size="11.00">url</text>
<polygon fill="none" stroke="black" points="748,-824 748,-846 831,-846 831,-824 748,-824"/>
<text text-anchor="start" x="751" y="-832.2" font-family="Helvetica,sans-Serif" font-size="11.00">varchar[120]</text>
<polygon fill="none" stroke="black" points="559,-802 559,-824 748,-824 748,-802 559,-802"/>
<text text-anchor="start" x="579" y="-810.2" font-family="Helvetica,sans-Serif" font-size="11.00">remote_addr</text>
<polygon fill="none" stroke="black" points="748,-802 748,-824 831,-824 831,-802 748,-802"/>
<text text-anchor="start" x="751" y="-810.2" font-family="Helvetica,sans-Serif" font-size="11.00">varchar[60]</text>
<polygon fill="none" stroke="black" points="559,-780 559,-802 748,-802 748,-780 559,-780"/>
<text text-anchor="start" x="579" y="-788.2" font-family="Helvetica,sans-Serif" font-size="11.00">remote_host</text>
<polygon fill="none" stroke="black" points="748,-780 748,-802 831,-802 831,-780 748,-780"/>
<text text-anchor="start" x="751" y="-788.2" font-family="Helvetica,sans-Serif" font-size="11.00">varchar[60]</text>
<polygon fill="none" stroke="black" points="559,-758 559,-780 748,-780 748,-758 559,-758"/>
<text text-anchor="start" x="579" y="-766.2" font-family="Helvetica,sans-Serif" font-size="11.00">referrer</text>
<polygon fill="none" stroke="black" points="748,-758 748,-780 831,-780 831,-758 748,-758"/>
<text text-anchor="start" x="751" y="-766.2" font-family="Helvetica,sans-Serif" font-size="11.00">varchar[255]</text>
<polygon fill="none" stroke="black" points="559,-736 559,-758 748,-758 748,-736 559,-736"/>
<image xlink:href="../../images/foreignKeys.png" width="11px" height="12px" preserveAspectRatio="xMinYMin meet" x="564" y="-753"/>
<text text-anchor="start" x="579" y="-744.2" font-family="Helvetica,sans-Serif" font-size="11.00">ad_user_id</text>
<polygon fill="none" stroke="black" points="748,-736 748,-758 831,-758 831,-736 748,-736"/>
<text text-anchor="start" x="751" y="-744.2" font-family="Helvetica,sans-Serif" font-size="11.00">numeric[10]</text>
<polygon fill="none" stroke="black" points="559,-714 559,-736 748,-736 748,-714 559,-714"/>
<text text-anchor="start" x="579" y="-722.2" font-family="Helvetica,sans-Serif" font-size="11.00">description</text>
<polygon fill="none" stroke="black" points="748,-714 748,-736 831,-736 831,-714 748,-714"/>
<text text-anchor="start" x="751" y="-722.2" font-family="Helvetica,sans-Serif" font-size="11.00">varchar[255]</text>
<polygon fill="none" stroke="black" points="559,-692 559,-714 748,-714 748,-692 559,-692"/>
<image xlink:href="../../images/foreignKeys.png" width="11px" height="12px" preserveAspectRatio="xMinYMin meet" x="564" y="-709"/>
<text text-anchor="start" x="579" y="-700.2" font-family="Helvetica,sans-Serif" font-size="11.00">m_productdownload_id</text>
<polygon fill="none" stroke="black" points="748,-692 748,-714 831,-714 831,-692 748,-692"/>
<text text-anchor="start" x="751" y="-700.2" font-family="Helvetica,sans-Serif" font-size="11.00">numeric[10]</text>
<polygon fill="#ffffff" stroke="transparent" points="559,-670 559,-692 748,-692 748,-670 559,-670"/>
<polygon fill="none" stroke="black" points="559,-670 559,-692 748,-692 748,-670 559,-670"/>
<text text-anchor="start" x="579" y="-678.2" font-family="Helvetica,sans-Serif" font-size="11.00">a_asset_delivery_uu</text>
<polygon fill="none" stroke="black" points="748,-670 748,-692 831,-692 831,-670 748,-670"/>
<text text-anchor="start" x="751" y="-678.2" font-family="Helvetica,sans-Serif" font-size="11.00">varchar[36]</text>
<polygon fill="#ffffff" stroke="transparent" points="559,-652 559,-670 831,-670 831,-652 559,-652"/>
<polygon fill="none" stroke="black" points="559,-652 559,-670 831,-670 831,-652 559,-652"/>
<polygon fill="#ffffff" stroke="transparent" points="560,-653 560,-669 653,-669 653,-653 560,-653"/>
<text text-anchor="start" x="562" y="-658.2" font-family="Helvetica,sans-Serif" font-size="11.00">&lt; 4</text>
<polygon fill="#ffffff" stroke="transparent" points="653,-653 653,-669 737,-669 737,-653 653,-653"/>
<text text-anchor="start" x="691.5" y="-658.2" font-family="Helvetica,sans-Serif" font-size="11.00"> &#160;</text>
<polygon fill="#ffffff" stroke="transparent" points="737,-653 737,-669 830,-669 830,-653 737,-653"/>
<text text-anchor="start" x="812" y="-658.2" font-family="Helvetica,sans-Serif" font-size="11.00">0 &gt;</text>
<polygon fill="black" stroke="black" points="653,-653 653,-669 653,-669 653,-653 653,-653"/>
<polygon fill="black" stroke="black" points="737,-653 737,-669 737,-669 737,-653 737,-653"/>
<polygon fill="none" stroke="black" stroke-width="2" points="558,-651 558,-1243 832,-1243 832,-651 558,-651"/>
</a>
</g>
</g>
<!-- a_asset_delivery&#45;&gt;a_asset -->
<g id="edge3" class="edge">
<title>a_asset_delivery:w&#45;&gt;a_asset:e</title>
<path fill="none" stroke="black" d="M543.48,-1035.3C485.2,-1057.08 592.24,-1226 509.5,-1226"/>
<polygon fill="black" stroke="black" points="550.1,-1034.25 558.56,-1036.56 554.05,-1033.63 558,-1033 558,-1033 558,-1033 554.05,-1033.63 557.44,-1029.44 550.1,-1034.25 550.1,-1034.25"/>
<ellipse fill="none" stroke="black" cx="546.94" cy="-1034.75" rx="3.2" ry="3.2"/>
</g>
<!-- a_asset_delivery&#45;&gt;ad_user -->
<g id="edge4" class="edge">
<title>a_asset_delivery:w&#45;&gt;ad_user:e</title>
<path fill="none" stroke="black" d="M543.26,-747.07C473.78,-747.7 327.16,-753.56 289,-795 224.9,-864.62 343.64,-1219 249,-1219"/>
<polygon fill="black" stroke="black" points="550,-747.04 558.02,-750.6 554,-747.02 558,-747 558,-747 558,-747 554,-747.02 557.98,-743.4 550,-747.04 550,-747.04"/>
<ellipse fill="none" stroke="black" cx="546.8" cy="-747.05" rx="3.2" ry="3.2"/>
</g>
<!-- a_asset_delivery&#45;&gt;m_inoutline -->
<g id="edge5" class="edge">
<title>a_asset_delivery:w&#45;&gt;m_inoutline:e</title>
<path fill="none" stroke="black" d="M543.73,-920.62C509.21,-906.36 555.76,-831.57 516,-795 439.67,-724.79 370.38,-805.28 289,-741 247.2,-707.98 288.27,-634 235,-634"/>
<polygon fill="black" stroke="black" points="550.11,-921.69 557.41,-926.55 554.05,-922.34 558,-923 558,-923 558,-923 554.05,-922.34 558.59,-919.45 550.11,-921.69 550.11,-921.69"/>
<ellipse fill="none" stroke="black" cx="546.95" cy="-921.16" rx="3.2" ry="3.2"/>
</g>
<!-- m_productdownload -->
<g id="node5" class="node">
<title>m_productdownload</title>
<g id="a_node5"><a xlink:href="../../tables/m_productdownload.html" xlink:title="m_productdownload" target="_top">
<polygon fill="#ffffff" stroke="transparent" points="305.5,-606 305.5,-730 499.5,-730 499.5,-606 305.5,-606"/>
<polygon fill="#f5f5f5" stroke="transparent" points="305.5,-708 305.5,-730 499.5,-730 499.5,-708 305.5,-708"/>
<polygon fill="none" stroke="black" points="305.5,-708 305.5,-730 499.5,-730 499.5,-708 305.5,-708"/>
<text text-anchor="start" x="310.5" y="-717.2" font-family="Helvetica,sans-Serif" font-weight="bold" font-size="11.00">m_productdownload</text>
<text text-anchor="start" x="464.5" y="-716.2" font-family="Helvetica,sans-Serif" font-size="11.00">[table]</text>
<polygon fill="none" stroke="black" points="305.5,-686 305.5,-708 499.5,-708 499.5,-686 305.5,-686"/>
<image xlink:href="../../images/primaryKeys.png" width="11px" height="12px" preserveAspectRatio="xMinYMin meet" x="310.5" y="-703"/>
<text text-anchor="start" x="325.5" y="-694.2" font-family="Helvetica,sans-Serif" font-size="11.00">m_productdownload_id</text>
<polygon fill="none" stroke="black" points="305.5,-664 305.5,-686 499.5,-686 499.5,-664 305.5,-664"/>
<image xlink:href="../../images/foreignKeys.png" width="11px" height="12px" preserveAspectRatio="xMinYMin meet" x="310.5" y="-681"/>
<text text-anchor="start" x="325.5" y="-672.2" font-family="Helvetica,sans-Serif" font-size="11.00">m_product_id</text>
<polygon fill="#ffffff" stroke="transparent" points="305.5,-642 305.5,-664 499.5,-664 499.5,-642 305.5,-642"/>
<polygon fill="none" stroke="black" points="305.5,-642 305.5,-664 499.5,-664 499.5,-642 305.5,-642"/>
<text text-anchor="start" x="325.5" y="-650.2" font-family="Helvetica,sans-Serif" font-size="11.00">m_productdownload_uu</text>
<polygon fill="none" stroke="black" points="305.5,-624 305.5,-642 499.5,-642 499.5,-624 305.5,-624"/>
<text text-anchor="start" x="308.5" y="-630.2" font-family="Helvetica,sans-Serif" font-size="11.00">...</text>
<polygon fill="#ffffff" stroke="transparent" points="305.5,-606 305.5,-624 499.5,-624 499.5,-606 305.5,-606"/>
<polygon fill="none" stroke="black" points="305.5,-606 305.5,-624 499.5,-624 499.5,-606 305.5,-606"/>
<polygon fill="#ffffff" stroke="transparent" points="306.5,-607 306.5,-623 373.5,-623 373.5,-607 306.5,-607"/>
<text text-anchor="start" x="308.5" y="-612.2" font-family="Helvetica,sans-Serif" font-size="11.00">&lt; 1</text>
<polygon fill="#ffffff" stroke="transparent" points="373.5,-607 373.5,-623 431.5,-623 431.5,-607 373.5,-607"/>
<text text-anchor="start" x="399" y="-612.2" font-family="Helvetica,sans-Serif" font-size="11.00"> &#160;</text>
<polygon fill="#ffffff" stroke="transparent" points="431.5,-607 431.5,-623 498.5,-623 498.5,-607 431.5,-607"/>
<text text-anchor="start" x="480.5" y="-612.2" font-family="Helvetica,sans-Serif" font-size="11.00">1 &gt;</text>
<polygon fill="black" stroke="black" points="373.5,-607 373.5,-623 373.5,-623 373.5,-607 373.5,-607"/>
<polygon fill="black" stroke="black" points="431.5,-607 431.5,-623 431.5,-623 431.5,-607 431.5,-607"/>
</a>
</g>
</g>
<!-- a_asset_delivery&#45;&gt;m_productdownload -->
<g id="edge6" class="edge">
<title>a_asset_delivery:w&#45;&gt;m_productdownload:e</title>
<path fill="none" stroke="black" d="M543.54,-702.26C528.69,-700.66 520.57,-697 500.5,-697"/>
<polygon fill="black" stroke="black" points="550.01,-702.59 557.82,-706.6 554.01,-702.8 558,-703 558,-703 558,-703 554.01,-702.8 558.18,-699.4 550.01,-702.59 550.01,-702.59"/>
<ellipse fill="none" stroke="black" cx="546.81" cy="-702.43" rx="3.2" ry="3.2"/>
</g>
</g>
</svg>
