<?xml version="1.0" encoding="UTF-8" standalone="no"?>
<!DOCTYPE svg PUBLIC "-//W3C//DTD SVG 1.1//EN"
 "http://www.w3.org/Graphics/SVG/1.1/DTD/svg11.dtd">
<!-- Generated by graphviz version 2.43.0 (0)
 -->
<!-- Title: oneDegreeRelationshipsDiagram Pages: 1 -->
<svg width="529pt" height="813pt"
 viewBox="0.00 0.00 529.00 813.00" xmlns="http://www.w3.org/2000/svg" xmlns:xlink="http://www.w3.org/1999/xlink">
<g id="graph0" class="graph" transform="scale(1 1) rotate(0) translate(4 809)">
<title>oneDegreeRelationshipsDiagram</title>
<polygon fill="#ffffff" stroke="transparent" points="-4,4 -4,-809 525,-809 525,4 -4,4"/>
<text text-anchor="middle" x="71.5" y="-7.2" font-family="Helvetica,sans-Serif" font-size="11.00">Generated by SchemaSpy</text>
<!-- a_asset_info_lic -->
<g id="node1" class="node">
<title>a_asset_info_lic</title>
<g id="a_node1"><a xlink:href="../../tables/a_asset_info_lic.html" xlink:title="a_asset_info_lic" target="_top">
<polygon fill="#ffffff" stroke="transparent" points="268,-383 268,-801 513,-801 513,-383 268,-383"/>
<polygon fill="#f5f5f5" stroke="transparent" points="270.5,-777 270.5,-799 511.5,-799 511.5,-777 270.5,-777"/>
<polygon fill="none" stroke="black" points="270.5,-777 270.5,-799 511.5,-799 511.5,-777 270.5,-777"/>
<text text-anchor="start" x="275.5" y="-786.2" font-family="Helvetica,sans-Serif" font-weight="bold" font-size="11.00">a_asset_info_lic</text>
<text text-anchor="start" x="476.5" y="-785.2" font-family="Helvetica,sans-Serif" font-size="11.00">[table]</text>
<polygon fill="none" stroke="black" points="270.5,-755 270.5,-777 428.5,-777 428.5,-755 270.5,-755"/>
<image xlink:href="../../images/primaryKeys.png" width="11px" height="12px" preserveAspectRatio="xMinYMin meet" x="275.5" y="-772"/>
<text text-anchor="start" x="290.5" y="-763.2" font-family="Helvetica,sans-Serif" font-size="11.00">a_asset_info_lic_id</text>
<polygon fill="none" stroke="black" points="428.5,-755 428.5,-777 511.5,-777 511.5,-755 428.5,-755"/>
<text text-anchor="start" x="431.5" y="-763.2" font-family="Helvetica,sans-Serif" font-size="11.00">numeric[10]</text>
<polygon fill="none" stroke="black" points="270.5,-733 270.5,-755 428.5,-755 428.5,-733 270.5,-733"/>
<text text-anchor="start" x="290.5" y="-741.2" font-family="Helvetica,sans-Serif" font-size="11.00">ad_client_id</text>
<polygon fill="none" stroke="black" points="428.5,-733 428.5,-755 511.5,-755 511.5,-733 428.5,-733"/>
<text text-anchor="start" x="431.5" y="-741.2" font-family="Helvetica,sans-Serif" font-size="11.00">numeric[10]</text>
<polygon fill="none" stroke="black" points="270.5,-711 270.5,-733 428.5,-733 428.5,-711 270.5,-711"/>
<text text-anchor="start" x="290.5" y="-719.2" font-family="Helvetica,sans-Serif" font-size="11.00">ad_org_id</text>
<polygon fill="none" stroke="black" points="428.5,-711 428.5,-733 511.5,-733 511.5,-711 428.5,-711"/>
<text text-anchor="start" x="431.5" y="-719.2" font-family="Helvetica,sans-Serif" font-size="11.00">numeric[10]</text>
<polygon fill="none" stroke="black" points="270.5,-689 270.5,-711 428.5,-711 428.5,-689 270.5,-689"/>
<text text-anchor="start" x="290.5" y="-697.2" font-family="Helvetica,sans-Serif" font-size="11.00">a_license_fee</text>
<polygon fill="none" stroke="black" points="428.5,-689 428.5,-711 511.5,-711 511.5,-689 428.5,-689"/>
<text text-anchor="start" x="431.5" y="-697.2" font-family="Helvetica,sans-Serif" font-size="11.00">numeric[0]</text>
<polygon fill="none" stroke="black" points="270.5,-667 270.5,-689 428.5,-689 428.5,-667 270.5,-667"/>
<text text-anchor="start" x="290.5" y="-675.2" font-family="Helvetica,sans-Serif" font-size="11.00">a_renewal_date</text>
<polygon fill="none" stroke="black" points="428.5,-667 428.5,-689 511.5,-689 511.5,-667 428.5,-667"/>
<text text-anchor="start" x="431.5" y="-675.2" font-family="Helvetica,sans-Serif" font-size="11.00">timestamp[29,6]</text>
<polygon fill="none" stroke="black" points="270.5,-645 270.5,-667 428.5,-667 428.5,-645 270.5,-645"/>
<text text-anchor="start" x="290.5" y="-653.2" font-family="Helvetica,sans-Serif" font-size="11.00">created</text>
<polygon fill="none" stroke="black" points="428.5,-645 428.5,-667 511.5,-667 511.5,-645 428.5,-645"/>
<text text-anchor="start" x="431.5" y="-653.2" font-family="Helvetica,sans-Serif" font-size="11.00">timestamp[29,6]</text>
<polygon fill="none" stroke="black" points="270.5,-623 270.5,-645 428.5,-645 428.5,-623 270.5,-623"/>
<text text-anchor="start" x="290.5" y="-631.2" font-family="Helvetica,sans-Serif" font-size="11.00">isactive</text>
<polygon fill="none" stroke="black" points="428.5,-623 428.5,-645 511.5,-645 511.5,-623 428.5,-623"/>
<text text-anchor="start" x="431.5" y="-631.2" font-family="Helvetica,sans-Serif" font-size="11.00">bpchar[1]</text>
<polygon fill="none" stroke="black" points="270.5,-601 270.5,-623 428.5,-623 428.5,-601 270.5,-601"/>
<text text-anchor="start" x="290.5" y="-609.2" font-family="Helvetica,sans-Serif" font-size="11.00">updated</text>
<polygon fill="none" stroke="black" points="428.5,-601 428.5,-623 511.5,-623 511.5,-601 428.5,-601"/>
<text text-anchor="start" x="431.5" y="-609.2" font-family="Helvetica,sans-Serif" font-size="11.00">timestamp[29,6]</text>
<polygon fill="none" stroke="black" points="270.5,-579 270.5,-601 428.5,-601 428.5,-579 270.5,-579"/>
<text text-anchor="start" x="290.5" y="-587.2" font-family="Helvetica,sans-Serif" font-size="11.00">updatedby</text>
<polygon fill="none" stroke="black" points="428.5,-579 428.5,-601 511.5,-601 511.5,-579 428.5,-579"/>
<text text-anchor="start" x="431.5" y="-587.2" font-family="Helvetica,sans-Serif" font-size="11.00">numeric[10]</text>
<polygon fill="none" stroke="black" points="270.5,-557 270.5,-579 428.5,-579 428.5,-557 270.5,-557"/>
<text text-anchor="start" x="290.5" y="-565.2" font-family="Helvetica,sans-Serif" font-size="11.00">text</text>
<polygon fill="none" stroke="black" points="428.5,-557 428.5,-579 511.5,-579 511.5,-557 428.5,-557"/>
<text text-anchor="start" x="431.5" y="-565.2" font-family="Helvetica,sans-Serif" font-size="11.00">varchar[510]</text>
<polygon fill="none" stroke="black" points="270.5,-535 270.5,-557 428.5,-557 428.5,-535 270.5,-535"/>
<text text-anchor="start" x="290.5" y="-543.2" font-family="Helvetica,sans-Serif" font-size="11.00">createdby</text>
<polygon fill="none" stroke="black" points="428.5,-535 428.5,-557 511.5,-557 511.5,-535 428.5,-535"/>
<text text-anchor="start" x="431.5" y="-543.2" font-family="Helvetica,sans-Serif" font-size="11.00">numeric[10]</text>
<polygon fill="none" stroke="black" points="270.5,-513 270.5,-535 428.5,-535 428.5,-513 270.5,-513"/>
<text text-anchor="start" x="290.5" y="-521.2" font-family="Helvetica,sans-Serif" font-size="11.00">a_state</text>
<polygon fill="none" stroke="black" points="428.5,-513 428.5,-535 511.5,-535 511.5,-513 428.5,-513"/>
<text text-anchor="start" x="431.5" y="-521.2" font-family="Helvetica,sans-Serif" font-size="11.00">varchar[60]</text>
<polygon fill="none" stroke="black" points="270.5,-491 270.5,-513 428.5,-513 428.5,-491 270.5,-491"/>
<text text-anchor="start" x="290.5" y="-499.2" font-family="Helvetica,sans-Serif" font-size="11.00">a_license_no</text>
<polygon fill="none" stroke="black" points="428.5,-491 428.5,-513 511.5,-513 511.5,-491 428.5,-491"/>
<text text-anchor="start" x="431.5" y="-499.2" font-family="Helvetica,sans-Serif" font-size="11.00">varchar[120]</text>
<polygon fill="none" stroke="black" points="270.5,-469 270.5,-491 428.5,-491 428.5,-469 270.5,-469"/>
<text text-anchor="start" x="290.5" y="-477.2" font-family="Helvetica,sans-Serif" font-size="11.00">a_issuing_agency</text>
<polygon fill="none" stroke="black" points="428.5,-469 428.5,-491 511.5,-491 511.5,-469 428.5,-469"/>
<text text-anchor="start" x="431.5" y="-477.2" font-family="Helvetica,sans-Serif" font-size="11.00">varchar[22]</text>
<polygon fill="none" stroke="black" points="270.5,-447 270.5,-469 428.5,-469 428.5,-447 270.5,-447"/>
<image xlink:href="../../images/foreignKeys.png" width="11px" height="12px" preserveAspectRatio="xMinYMin meet" x="275.5" y="-464"/>
<text text-anchor="start" x="290.5" y="-455.2" font-family="Helvetica,sans-Serif" font-size="11.00">a_asset_id</text>
<polygon fill="none" stroke="black" points="428.5,-447 428.5,-469 511.5,-469 511.5,-447 428.5,-447"/>
<text text-anchor="start" x="431.5" y="-455.2" font-family="Helvetica,sans-Serif" font-size="11.00">numeric[10]</text>
<polygon fill="#ffffff" stroke="transparent" points="270.5,-425 270.5,-447 428.5,-447 428.5,-425 270.5,-425"/>
<polygon fill="none" stroke="black" points="270.5,-425 270.5,-447 428.5,-447 428.5,-425 270.5,-425"/>
<text text-anchor="start" x="290.5" y="-433.2" font-family="Helvetica,sans-Serif" font-size="11.00">a_asset_info_lic_uu</text>
<polygon fill="none" stroke="black" points="428.5,-425 428.5,-447 511.5,-447 511.5,-425 428.5,-425"/>
<text text-anchor="start" x="431.5" y="-433.2" font-family="Helvetica,sans-Serif" font-size="11.00">varchar[36]</text>
<polygon fill="none" stroke="black" points="270.5,-403 270.5,-425 428.5,-425 428.5,-403 270.5,-403"/>
<text text-anchor="start" x="290.5" y="-411.2" font-family="Helvetica,sans-Serif" font-size="11.00">processed</text>
<polygon fill="none" stroke="black" points="428.5,-403 428.5,-425 511.5,-425 511.5,-403 428.5,-403"/>
<text text-anchor="start" x="431.5" y="-411.2" font-family="Helvetica,sans-Serif" font-size="11.00">bpchar[1]</text>
<polygon fill="#ffffff" stroke="transparent" points="270.5,-385 270.5,-403 511.5,-403 511.5,-385 270.5,-385"/>
<polygon fill="none" stroke="black" points="270.5,-385 270.5,-403 511.5,-403 511.5,-385 270.5,-385"/>
<polygon fill="#ffffff" stroke="transparent" points="271.5,-386 271.5,-402 354.5,-402 354.5,-386 271.5,-386"/>
<text text-anchor="start" x="273.5" y="-391.2" font-family="Helvetica,sans-Serif" font-size="11.00">&lt; 1</text>
<polygon fill="#ffffff" stroke="transparent" points="354.5,-386 354.5,-402 428.5,-402 428.5,-386 354.5,-386"/>
<text text-anchor="start" x="388" y="-391.2" font-family="Helvetica,sans-Serif" font-size="11.00"> &#160;</text>
<polygon fill="#ffffff" stroke="transparent" points="428.5,-386 428.5,-402 510.5,-402 510.5,-386 428.5,-386"/>
<text text-anchor="start" x="492.5" y="-391.2" font-family="Helvetica,sans-Serif" font-size="11.00">0 &gt;</text>
<polygon fill="black" stroke="black" points="354.5,-386 354.5,-402 354.5,-402 354.5,-386 354.5,-386"/>
<polygon fill="black" stroke="black" points="428.5,-386 428.5,-402 428.5,-402 428.5,-386 428.5,-386"/>
<polygon fill="none" stroke="black" stroke-width="2" points="269,-384 269,-800 512,-800 512,-384 269,-384"/>
</a>
</g>
</g>
<!-- a_asset -->
<g id="node2" class="node">
<title>a_asset</title>
<g id="a_node2"><a xlink:href="../../tables/a_asset.html" xlink:title="a_asset" target="_top">
<polygon fill="#ffffff" stroke="transparent" points="8,-37 8,-491 219,-491 219,-37 8,-37"/>
<polygon fill="#f5f5f5" stroke="transparent" points="8.5,-469 8.5,-491 219.5,-491 219.5,-469 8.5,-469"/>
<polygon fill="none" stroke="black" points="8.5,-469 8.5,-491 219.5,-491 219.5,-469 8.5,-469"/>
<text text-anchor="start" x="13.5" y="-478.2" font-family="Helvetica,sans-Serif" font-weight="bold" font-size="11.00">a_asset</text>
<text text-anchor="start" x="184.5" y="-477.2" font-family="Helvetica,sans-Serif" font-size="11.00">[table]</text>
<polygon fill="none" stroke="black" points="8.5,-447 8.5,-469 219.5,-469 219.5,-447 8.5,-447"/>
<image xlink:href="../../images/primaryKeys.png" width="11px" height="12px" preserveAspectRatio="xMinYMin meet" x="13.5" y="-464"/>
<text text-anchor="start" x="28.5" y="-455.2" font-family="Helvetica,sans-Serif" font-size="11.00">a_asset_id</text>
<polygon fill="none" stroke="black" points="8.5,-425 8.5,-447 219.5,-447 219.5,-425 8.5,-425"/>
<image xlink:href="../../images/foreignKeys.png" width="11px" height="12px" preserveAspectRatio="xMinYMin meet" x="13.5" y="-442"/>
<text text-anchor="start" x="28.5" y="-433.2" font-family="Helvetica,sans-Serif" font-size="11.00">a_asset_group_id</text>
<polygon fill="none" stroke="black" points="8.5,-403 8.5,-425 219.5,-425 219.5,-403 8.5,-403"/>
<image xlink:href="../../images/foreignKeys.png" width="11px" height="12px" preserveAspectRatio="xMinYMin meet" x="13.5" y="-420"/>
<text text-anchor="start" x="28.5" y="-411.2" font-family="Helvetica,sans-Serif" font-size="11.00">m_product_id</text>
<polygon fill="none" stroke="black" points="8.5,-381 8.5,-403 219.5,-403 219.5,-381 8.5,-381"/>
<image xlink:href="../../images/foreignKeys.png" width="11px" height="12px" preserveAspectRatio="xMinYMin meet" x="13.5" y="-398"/>
<text text-anchor="start" x="28.5" y="-389.2" font-family="Helvetica,sans-Serif" font-size="11.00">m_locator_id</text>
<polygon fill="none" stroke="black" points="8.5,-359 8.5,-381 219.5,-381 219.5,-359 8.5,-359"/>
<image xlink:href="../../images/foreignKeys.png" width="11px" height="12px" preserveAspectRatio="xMinYMin meet" x="13.5" y="-376"/>
<text text-anchor="start" x="28.5" y="-367.2" font-family="Helvetica,sans-Serif" font-size="11.00">c_bpartner_id</text>
<polygon fill="none" stroke="black" points="8.5,-337 8.5,-359 219.5,-359 219.5,-337 8.5,-337"/>
<image xlink:href="../../images/foreignKeys.png" width="11px" height="12px" preserveAspectRatio="xMinYMin meet" x="13.5" y="-354"/>
<text text-anchor="start" x="28.5" y="-345.2" font-family="Helvetica,sans-Serif" font-size="11.00">c_bpartner_location_id</text>
<polygon fill="none" stroke="black" points="8.5,-315 8.5,-337 219.5,-337 219.5,-315 8.5,-315"/>
<image xlink:href="../../images/foreignKeys.png" width="11px" height="12px" preserveAspectRatio="xMinYMin meet" x="13.5" y="-332"/>
<text text-anchor="start" x="28.5" y="-323.2" font-family="Helvetica,sans-Serif" font-size="11.00">c_location_id</text>
<polygon fill="none" stroke="black" points="8.5,-293 8.5,-315 219.5,-315 219.5,-293 8.5,-293"/>
<image xlink:href="../../images/foreignKeys.png" width="11px" height="12px" preserveAspectRatio="xMinYMin meet" x="13.5" y="-310"/>
<text text-anchor="start" x="28.5" y="-301.2" font-family="Helvetica,sans-Serif" font-size="11.00">ad_user_id</text>
<polygon fill="none" stroke="black" points="8.5,-271 8.5,-293 219.5,-293 219.5,-271 8.5,-271"/>
<image xlink:href="../../images/foreignKeys.png" width="11px" height="12px" preserveAspectRatio="xMinYMin meet" x="13.5" y="-288"/>
<text text-anchor="start" x="28.5" y="-279.2" font-family="Helvetica,sans-Serif" font-size="11.00">m_attributesetinstance_id</text>
<polygon fill="none" stroke="black" points="8.5,-249 8.5,-271 219.5,-271 219.5,-249 8.5,-249"/>
<image xlink:href="../../images/foreignKeys.png" width="11px" height="12px" preserveAspectRatio="xMinYMin meet" x="13.5" y="-266"/>
<text text-anchor="start" x="28.5" y="-257.2" font-family="Helvetica,sans-Serif" font-size="11.00">c_project_id</text>
<polygon fill="none" stroke="black" points="8.5,-227 8.5,-249 219.5,-249 219.5,-227 8.5,-227"/>
<image xlink:href="../../images/foreignKeys.png" width="11px" height="12px" preserveAspectRatio="xMinYMin meet" x="13.5" y="-244"/>
<text text-anchor="start" x="28.5" y="-235.2" font-family="Helvetica,sans-Serif" font-size="11.00">c_bpartnersr_id</text>
<polygon fill="none" stroke="black" points="8.5,-205 8.5,-227 219.5,-227 219.5,-205 8.5,-205"/>
<image xlink:href="../../images/foreignKeys.png" width="11px" height="12px" preserveAspectRatio="xMinYMin meet" x="13.5" y="-222"/>
<text text-anchor="start" x="28.5" y="-213.2" font-family="Helvetica,sans-Serif" font-size="11.00">m_inoutline_id</text>
<polygon fill="none" stroke="black" points="8.5,-183 8.5,-205 219.5,-205 219.5,-183 8.5,-183"/>
<image xlink:href="../../images/foreignKeys.png" width="11px" height="12px" preserveAspectRatio="xMinYMin meet" x="13.5" y="-200"/>
<text text-anchor="start" x="28.5" y="-191.2" font-family="Helvetica,sans-Serif" font-size="11.00">lease_bpartner_id</text>
<polygon fill="none" stroke="black" points="8.5,-161 8.5,-183 219.5,-183 219.5,-161 8.5,-161"/>
<image xlink:href="../../images/foreignKeys.png" width="11px" height="12px" preserveAspectRatio="xMinYMin meet" x="13.5" y="-178"/>
<text text-anchor="start" x="28.5" y="-169.2" font-family="Helvetica,sans-Serif" font-size="11.00">a_parent_asset_id</text>
<polygon fill="#ffffff" stroke="transparent" points="8.5,-139 8.5,-161 219.5,-161 219.5,-139 8.5,-139"/>
<polygon fill="none" stroke="black" points="8.5,-139 8.5,-161 219.5,-161 219.5,-139 8.5,-139"/>
<text text-anchor="start" x="28.5" y="-147.2" font-family="Helvetica,sans-Serif" font-size="11.00">a_asset_uu</text>
<polygon fill="none" stroke="black" points="8.5,-117 8.5,-139 219.5,-139 219.5,-117 8.5,-117"/>
<image xlink:href="../../images/foreignKeys.png" width="11px" height="12px" preserveAspectRatio="xMinYMin meet" x="13.5" y="-134"/>
<text text-anchor="start" x="28.5" y="-125.2" font-family="Helvetica,sans-Serif" font-size="11.00">a_asset_class_id</text>
<polygon fill="none" stroke="black" points="8.5,-95 8.5,-117 219.5,-117 219.5,-95 8.5,-95"/>
<image xlink:href="../../images/foreignKeys.png" width="11px" height="12px" preserveAspectRatio="xMinYMin meet" x="13.5" y="-112"/>
<text text-anchor="start" x="28.5" y="-103.2" font-family="Helvetica,sans-Serif" font-size="11.00">a_asset_type_id</text>
<polygon fill="none" stroke="black" points="8.5,-73 8.5,-95 219.5,-95 219.5,-73 8.5,-73"/>
<image xlink:href="../../images/foreignKeys.png" width="11px" height="12px" preserveAspectRatio="xMinYMin meet" x="13.5" y="-90"/>
<text text-anchor="start" x="28.5" y="-81.2" font-family="Helvetica,sans-Serif" font-size="11.00">c_activity_id</text>
<polygon fill="none" stroke="black" points="8.5,-55 8.5,-73 219.5,-73 219.5,-55 8.5,-55"/>
<text text-anchor="start" x="11.5" y="-61.2" font-family="Helvetica,sans-Serif" font-size="11.00">...</text>
<polygon fill="#ffffff" stroke="transparent" points="8.5,-37 8.5,-55 219.5,-55 219.5,-37 8.5,-37"/>
<polygon fill="none" stroke="black" points="8.5,-37 8.5,-55 219.5,-55 219.5,-37 8.5,-37"/>
<polygon fill="#ffffff" stroke="transparent" points="9.5,-38 9.5,-54 84.5,-54 84.5,-38 9.5,-38"/>
<text text-anchor="start" x="11.5" y="-43.2" font-family="Helvetica,sans-Serif" font-size="11.00">&lt; 16</text>
<polygon fill="#ffffff" stroke="transparent" points="84.5,-38 84.5,-54 144.5,-54 144.5,-38 84.5,-38"/>
<text text-anchor="start" x="111" y="-43.2" font-family="Helvetica,sans-Serif" font-size="11.00"> &#160;</text>
<polygon fill="#ffffff" stroke="transparent" points="144.5,-38 144.5,-54 218.5,-54 218.5,-38 144.5,-38"/>
<text text-anchor="start" x="194.5" y="-43.2" font-family="Helvetica,sans-Serif" font-size="11.00">52 &gt;</text>
<polygon fill="black" stroke="black" points="84.5,-38 84.5,-54 84.5,-54 84.5,-38 84.5,-38"/>
<polygon fill="black" stroke="black" points="144.5,-38 144.5,-54 144.5,-54 144.5,-38 144.5,-38"/>
</a>
</g>
</g>
<!-- a_asset_info_lic&#45;&gt;a_asset -->
<g id="edge1" class="edge">
<title>a_asset_info_lic:w&#45;&gt;a_asset:e</title>
<path fill="none" stroke="black" d="M254.99,-458C243.68,-458 236.49,-458 220.5,-458"/>
<polygon fill="black" stroke="black" points="261.5,-458 269.5,-461.6 265.5,-458 269.5,-458 269.5,-458 269.5,-458 265.5,-458 269.5,-454.4 261.5,-458 261.5,-458"/>
<ellipse fill="none" stroke="black" cx="258.3" cy="-458" rx="3.2" ry="3.2"/>
</g>
</g>
</svg>
