<?xml version="1.0" encoding="UTF-8" standalone="no"?>
<!DOCTYPE svg PUBLIC "-//W3C//DTD SVG 1.1//EN"
 "http://www.w3.org/Graphics/SVG/1.1/DTD/svg11.dtd">
<!-- Generated by graphviz version 2.43.0 (0)
 -->
<!-- Title: oneDegreeRelationshipsDiagram Pages: 1 -->
<svg width="857pt" height="896pt"
 viewBox="0.00 0.00 857.00 896.00" xmlns="http://www.w3.org/2000/svg" xmlns:xlink="http://www.w3.org/1999/xlink">
<g id="graph0" class="graph" transform="scale(1 1) rotate(0) translate(4 892)">
<title>oneDegreeRelationshipsDiagram</title>
<polygon fill="#ffffff" stroke="transparent" points="-4,4 -4,-892 853,-892 853,4 -4,4"/>
<text text-anchor="middle" x="71.5" y="-7.2" font-family="Helvetica,sans-Serif" font-size="11.00">Generated by SchemaSpy</text>
<!-- ad_alertrecipient -->
<g id="node1" class="node">
<title>ad_alertrecipient</title>
<g id="a_node1"><a xlink:href="../../tables/ad_alertrecipient.html" xlink:title="ad_alertrecipient" target="_top">
<polygon fill="#ffffff" stroke="transparent" points="584,-576 584,-884 841,-884 841,-576 584,-576"/>
<polygon fill="#f5f5f5" stroke="transparent" points="586.5,-860 586.5,-882 839.5,-882 839.5,-860 586.5,-860"/>
<polygon fill="none" stroke="black" points="586.5,-860 586.5,-882 839.5,-882 839.5,-860 586.5,-860"/>
<text text-anchor="start" x="591.5" y="-869.2" font-family="Helvetica,sans-Serif" font-weight="bold" font-size="11.00">ad_alertrecipient</text>
<text text-anchor="start" x="804.5" y="-868.2" font-family="Helvetica,sans-Serif" font-size="11.00">[table]</text>
<polygon fill="none" stroke="black" points="586.5,-838 586.5,-860 756.5,-860 756.5,-838 586.5,-838"/>
<image xlink:href="../../images/primaryKeys.png" width="11px" height="12px" preserveAspectRatio="xMinYMin meet" x="591.5" y="-855"/>
<text text-anchor="start" x="606.5" y="-846.2" font-family="Helvetica,sans-Serif" font-size="11.00">ad_alertrecipient_id</text>
<polygon fill="none" stroke="black" points="756.5,-838 756.5,-860 839.5,-860 839.5,-838 756.5,-838"/>
<text text-anchor="start" x="759.5" y="-846.2" font-family="Helvetica,sans-Serif" font-size="11.00">numeric[10]</text>
<polygon fill="none" stroke="black" points="586.5,-816 586.5,-838 756.5,-838 756.5,-816 586.5,-816"/>
<text text-anchor="start" x="606.5" y="-824.2" font-family="Helvetica,sans-Serif" font-size="11.00">ad_client_id</text>
<polygon fill="none" stroke="black" points="756.5,-816 756.5,-838 839.5,-838 839.5,-816 756.5,-816"/>
<text text-anchor="start" x="759.5" y="-824.2" font-family="Helvetica,sans-Serif" font-size="11.00">numeric[10]</text>
<polygon fill="none" stroke="black" points="586.5,-794 586.5,-816 756.5,-816 756.5,-794 586.5,-794"/>
<text text-anchor="start" x="606.5" y="-802.2" font-family="Helvetica,sans-Serif" font-size="11.00">ad_org_id</text>
<polygon fill="none" stroke="black" points="756.5,-794 756.5,-816 839.5,-816 839.5,-794 756.5,-794"/>
<text text-anchor="start" x="759.5" y="-802.2" font-family="Helvetica,sans-Serif" font-size="11.00">numeric[10]</text>
<polygon fill="none" stroke="black" points="586.5,-772 586.5,-794 756.5,-794 756.5,-772 586.5,-772"/>
<text text-anchor="start" x="606.5" y="-780.2" font-family="Helvetica,sans-Serif" font-size="11.00">isactive</text>
<polygon fill="none" stroke="black" points="756.5,-772 756.5,-794 839.5,-794 839.5,-772 756.5,-772"/>
<text text-anchor="start" x="759.5" y="-780.2" font-family="Helvetica,sans-Serif" font-size="11.00">bpchar[1]</text>
<polygon fill="none" stroke="black" points="586.5,-750 586.5,-772 756.5,-772 756.5,-750 586.5,-750"/>
<text text-anchor="start" x="606.5" y="-758.2" font-family="Helvetica,sans-Serif" font-size="11.00">created</text>
<polygon fill="none" stroke="black" points="756.5,-750 756.5,-772 839.5,-772 839.5,-750 756.5,-750"/>
<text text-anchor="start" x="759.5" y="-758.2" font-family="Helvetica,sans-Serif" font-size="11.00">timestamp[29,6]</text>
<polygon fill="none" stroke="black" points="586.5,-728 586.5,-750 756.5,-750 756.5,-728 586.5,-728"/>
<text text-anchor="start" x="606.5" y="-736.2" font-family="Helvetica,sans-Serif" font-size="11.00">createdby</text>
<polygon fill="none" stroke="black" points="756.5,-728 756.5,-750 839.5,-750 839.5,-728 756.5,-728"/>
<text text-anchor="start" x="759.5" y="-736.2" font-family="Helvetica,sans-Serif" font-size="11.00">numeric[10]</text>
<polygon fill="none" stroke="black" points="586.5,-706 586.5,-728 756.5,-728 756.5,-706 586.5,-706"/>
<text text-anchor="start" x="606.5" y="-714.2" font-family="Helvetica,sans-Serif" font-size="11.00">updated</text>
<polygon fill="none" stroke="black" points="756.5,-706 756.5,-728 839.5,-728 839.5,-706 756.5,-706"/>
<text text-anchor="start" x="759.5" y="-714.2" font-family="Helvetica,sans-Serif" font-size="11.00">timestamp[29,6]</text>
<polygon fill="none" stroke="black" points="586.5,-684 586.5,-706 756.5,-706 756.5,-684 586.5,-684"/>
<text text-anchor="start" x="606.5" y="-692.2" font-family="Helvetica,sans-Serif" font-size="11.00">updatedby</text>
<polygon fill="none" stroke="black" points="756.5,-684 756.5,-706 839.5,-706 839.5,-684 756.5,-684"/>
<text text-anchor="start" x="759.5" y="-692.2" font-family="Helvetica,sans-Serif" font-size="11.00">numeric[10]</text>
<polygon fill="none" stroke="black" points="586.5,-662 586.5,-684 756.5,-684 756.5,-662 586.5,-662"/>
<image xlink:href="../../images/foreignKeys.png" width="11px" height="12px" preserveAspectRatio="xMinYMin meet" x="591.5" y="-679"/>
<text text-anchor="start" x="606.5" y="-670.2" font-family="Helvetica,sans-Serif" font-size="11.00">ad_alert_id</text>
<polygon fill="none" stroke="black" points="756.5,-662 756.5,-684 839.5,-684 839.5,-662 756.5,-662"/>
<text text-anchor="start" x="759.5" y="-670.2" font-family="Helvetica,sans-Serif" font-size="11.00">numeric[10]</text>
<polygon fill="none" stroke="black" points="586.5,-640 586.5,-662 756.5,-662 756.5,-640 586.5,-640"/>
<image xlink:href="../../images/foreignKeys.png" width="11px" height="12px" preserveAspectRatio="xMinYMin meet" x="591.5" y="-657"/>
<text text-anchor="start" x="606.5" y="-648.2" font-family="Helvetica,sans-Serif" font-size="11.00">ad_user_id</text>
<polygon fill="none" stroke="black" points="756.5,-640 756.5,-662 839.5,-662 839.5,-640 756.5,-640"/>
<text text-anchor="start" x="759.5" y="-648.2" font-family="Helvetica,sans-Serif" font-size="11.00">numeric[10]</text>
<polygon fill="none" stroke="black" points="586.5,-618 586.5,-640 756.5,-640 756.5,-618 586.5,-618"/>
<image xlink:href="../../images/foreignKeys.png" width="11px" height="12px" preserveAspectRatio="xMinYMin meet" x="591.5" y="-635"/>
<text text-anchor="start" x="606.5" y="-626.2" font-family="Helvetica,sans-Serif" font-size="11.00">ad_role_id</text>
<polygon fill="none" stroke="black" points="756.5,-618 756.5,-640 839.5,-640 839.5,-618 756.5,-618"/>
<text text-anchor="start" x="759.5" y="-626.2" font-family="Helvetica,sans-Serif" font-size="11.00">numeric[10]</text>
<polygon fill="#ffffff" stroke="transparent" points="586.5,-596 586.5,-618 756.5,-618 756.5,-596 586.5,-596"/>
<polygon fill="none" stroke="black" points="586.5,-596 586.5,-618 756.5,-618 756.5,-596 586.5,-596"/>
<text text-anchor="start" x="606.5" y="-604.2" font-family="Helvetica,sans-Serif" font-size="11.00">ad_alertrecipient_uu</text>
<polygon fill="none" stroke="black" points="756.5,-596 756.5,-618 839.5,-618 839.5,-596 756.5,-596"/>
<text text-anchor="start" x="759.5" y="-604.2" font-family="Helvetica,sans-Serif" font-size="11.00">varchar[36]</text>
<polygon fill="#ffffff" stroke="transparent" points="586.5,-578 586.5,-596 839.5,-596 839.5,-578 586.5,-578"/>
<polygon fill="none" stroke="black" points="586.5,-578 586.5,-596 839.5,-596 839.5,-578 586.5,-578"/>
<polygon fill="#ffffff" stroke="transparent" points="587.5,-579 587.5,-595 674.5,-595 674.5,-579 587.5,-579"/>
<text text-anchor="start" x="589.5" y="-584.2" font-family="Helvetica,sans-Serif" font-size="11.00">&lt; 3</text>
<polygon fill="#ffffff" stroke="transparent" points="674.5,-579 674.5,-595 752.5,-595 752.5,-579 674.5,-579"/>
<text text-anchor="start" x="710" y="-584.2" font-family="Helvetica,sans-Serif" font-size="11.00"> &#160;</text>
<polygon fill="#ffffff" stroke="transparent" points="752.5,-579 752.5,-595 838.5,-595 838.5,-579 752.5,-579"/>
<text text-anchor="start" x="820.5" y="-584.2" font-family="Helvetica,sans-Serif" font-size="11.00">0 &gt;</text>
<polygon fill="black" stroke="black" points="674.5,-579 674.5,-595 674.5,-595 674.5,-579 674.5,-579"/>
<polygon fill="black" stroke="black" points="752.5,-579 752.5,-595 752.5,-595 752.5,-579 752.5,-579"/>
<polygon fill="none" stroke="black" stroke-width="2" points="585,-577 585,-883 840,-883 840,-577 585,-577"/>
</a>
</g>
</g>
<!-- ad_alert -->
<g id="node2" class="node">
<title>ad_alert</title>
<g id="a_node2"><a xlink:href="../../tables/ad_alert.html" xlink:title="ad_alert" target="_top">
<polygon fill="#ffffff" stroke="transparent" points="297,-675 297,-821 535,-821 535,-675 297,-675"/>
<polygon fill="#f5f5f5" stroke="transparent" points="297,-799 297,-821 535,-821 535,-799 297,-799"/>
<polygon fill="none" stroke="black" points="297,-799 297,-821 535,-821 535,-799 297,-799"/>
<text text-anchor="start" x="302" y="-808.2" font-family="Helvetica,sans-Serif" font-weight="bold" font-size="11.00">ad_alert</text>
<text text-anchor="start" x="500" y="-807.2" font-family="Helvetica,sans-Serif" font-size="11.00">[table]</text>
<polygon fill="none" stroke="black" points="297,-777 297,-799 535,-799 535,-777 297,-777"/>
<image xlink:href="../../images/primaryKeys.png" width="11px" height="12px" preserveAspectRatio="xMinYMin meet" x="302" y="-794"/>
<text text-anchor="start" x="317" y="-785.2" font-family="Helvetica,sans-Serif" font-size="11.00">ad_alert_id</text>
<polygon fill="none" stroke="black" points="297,-755 297,-777 535,-777 535,-755 297,-755"/>
<image xlink:href="../../images/foreignKeys.png" width="11px" height="12px" preserveAspectRatio="xMinYMin meet" x="302" y="-772"/>
<text text-anchor="start" x="317" y="-763.2" font-family="Helvetica,sans-Serif" font-size="11.00">ad_alertprocessor_id</text>
<polygon fill="#ffffff" stroke="transparent" points="297,-733 297,-755 535,-755 535,-733 297,-733"/>
<polygon fill="none" stroke="black" points="297,-733 297,-755 535,-755 535,-733 297,-733"/>
<text text-anchor="start" x="317" y="-741.2" font-family="Helvetica,sans-Serif" font-size="11.00">ad_alert_uu</text>
<polygon fill="none" stroke="black" points="297,-711 297,-733 535,-733 535,-711 297,-711"/>
<image xlink:href="../../images/foreignKeys.png" width="11px" height="12px" preserveAspectRatio="xMinYMin meet" x="302" y="-728"/>
<text text-anchor="start" x="317" y="-719.2" font-family="Helvetica,sans-Serif" font-size="11.00">cof_armazenamentonuvem_id</text>
<polygon fill="none" stroke="black" points="297,-693 297,-711 535,-711 535,-693 297,-693"/>
<text text-anchor="start" x="300" y="-699.2" font-family="Helvetica,sans-Serif" font-size="11.00">...</text>
<polygon fill="#ffffff" stroke="transparent" points="297,-675 297,-693 535,-693 535,-675 297,-675"/>
<polygon fill="none" stroke="black" points="297,-675 297,-693 535,-693 535,-675 297,-675"/>
<polygon fill="#ffffff" stroke="transparent" points="298,-676 298,-692 380,-692 380,-676 298,-676"/>
<text text-anchor="start" x="300" y="-681.2" font-family="Helvetica,sans-Serif" font-size="11.00">&lt; 2</text>
<polygon fill="#ffffff" stroke="transparent" points="380,-676 380,-692 453,-692 453,-676 380,-676"/>
<text text-anchor="start" x="413" y="-681.2" font-family="Helvetica,sans-Serif" font-size="11.00"> &#160;</text>
<polygon fill="#ffffff" stroke="transparent" points="453,-676 453,-692 534,-692 534,-676 453,-676"/>
<text text-anchor="start" x="516" y="-681.2" font-family="Helvetica,sans-Serif" font-size="11.00">2 &gt;</text>
<polygon fill="black" stroke="black" points="380,-676 380,-692 380,-692 380,-676 380,-676"/>
<polygon fill="black" stroke="black" points="453,-676 453,-692 453,-692 453,-676 453,-676"/>
</a>
</g>
</g>
<!-- ad_alertrecipient&#45;&gt;ad_alert -->
<g id="edge1" class="edge">
<title>ad_alertrecipient:w&#45;&gt;ad_alert:e</title>
<path fill="none" stroke="black" d="M571.54,-676.57C541.58,-695.98 585.78,-788 536,-788"/>
<polygon fill="black" stroke="black" points="577.75,-674.98 586.39,-676.49 581.62,-673.99 585.5,-673 585.5,-673 585.5,-673 581.62,-673.99 584.61,-669.51 577.75,-674.98 577.75,-674.98"/>
<ellipse fill="none" stroke="black" cx="574.65" cy="-675.77" rx="3.2" ry="3.2"/>
</g>
<!-- ad_role -->
<g id="node3" class="node">
<title>ad_role</title>
<g id="a_node3"><a xlink:href="../../tables/ad_role.html" xlink:title="ad_role" target="_top">
<polygon fill="#ffffff" stroke="transparent" points="304.5,-393 304.5,-627 527.5,-627 527.5,-393 304.5,-393"/>
<polygon fill="#f5f5f5" stroke="transparent" points="305,-605 305,-627 528,-627 528,-605 305,-605"/>
<polygon fill="none" stroke="black" points="305,-605 305,-627 528,-627 528,-605 305,-605"/>
<text text-anchor="start" x="310" y="-614.2" font-family="Helvetica,sans-Serif" font-weight="bold" font-size="11.00">ad_role</text>
<text text-anchor="start" x="493" y="-613.2" font-family="Helvetica,sans-Serif" font-size="11.00">[table]</text>
<polygon fill="none" stroke="black" points="305,-583 305,-605 528,-605 528,-583 305,-583"/>
<image xlink:href="../../images/primaryKeys.png" width="11px" height="12px" preserveAspectRatio="xMinYMin meet" x="310" y="-600"/>
<text text-anchor="start" x="325" y="-591.2" font-family="Helvetica,sans-Serif" font-size="11.00">ad_role_id</text>
<polygon fill="none" stroke="black" points="305,-561 305,-583 528,-583 528,-561 305,-561"/>
<image xlink:href="../../images/foreignKeys.png" width="11px" height="12px" preserveAspectRatio="xMinYMin meet" x="310" y="-578"/>
<text text-anchor="start" x="325" y="-569.2" font-family="Helvetica,sans-Serif" font-size="11.00">ad_client_id</text>
<polygon fill="none" stroke="black" points="305,-539 305,-561 528,-561 528,-539 305,-539"/>
<image xlink:href="../../images/foreignKeys.png" width="11px" height="12px" preserveAspectRatio="xMinYMin meet" x="310" y="-556"/>
<text text-anchor="start" x="325" y="-547.2" font-family="Helvetica,sans-Serif" font-size="11.00">ad_org_id</text>
<polygon fill="none" stroke="black" points="305,-517 305,-539 528,-539 528,-517 305,-517"/>
<image xlink:href="../../images/foreignKeys.png" width="11px" height="12px" preserveAspectRatio="xMinYMin meet" x="310" y="-534"/>
<text text-anchor="start" x="325" y="-525.2" font-family="Helvetica,sans-Serif" font-size="11.00">c_currency_id</text>
<polygon fill="none" stroke="black" points="305,-495 305,-517 528,-517 528,-495 305,-495"/>
<image xlink:href="../../images/foreignKeys.png" width="11px" height="12px" preserveAspectRatio="xMinYMin meet" x="310" y="-512"/>
<text text-anchor="start" x="325" y="-503.2" font-family="Helvetica,sans-Serif" font-size="11.00">ad_tree_menu_id</text>
<polygon fill="none" stroke="black" points="305,-473 305,-495 528,-495 528,-473 305,-473"/>
<image xlink:href="../../images/foreignKeys.png" width="11px" height="12px" preserveAspectRatio="xMinYMin meet" x="310" y="-490"/>
<text text-anchor="start" x="325" y="-481.2" font-family="Helvetica,sans-Serif" font-size="11.00">supervisor_id</text>
<polygon fill="none" stroke="black" points="305,-451 305,-473 528,-473 528,-451 305,-451"/>
<image xlink:href="../../images/foreignKeys.png" width="11px" height="12px" preserveAspectRatio="xMinYMin meet" x="310" y="-468"/>
<text text-anchor="start" x="325" y="-459.2" font-family="Helvetica,sans-Serif" font-size="11.00">ad_tree_org_id</text>
<polygon fill="#ffffff" stroke="transparent" points="305,-429 305,-451 528,-451 528,-429 305,-429"/>
<polygon fill="none" stroke="black" points="305,-429 305,-451 528,-451 528,-429 305,-429"/>
<text text-anchor="start" x="325" y="-437.2" font-family="Helvetica,sans-Serif" font-size="11.00">ad_role_uu</text>
<polygon fill="none" stroke="black" points="305,-411 305,-429 528,-429 528,-411 305,-411"/>
<text text-anchor="start" x="308" y="-417.2" font-family="Helvetica,sans-Serif" font-size="11.00">...</text>
<polygon fill="#ffffff" stroke="transparent" points="305,-393 305,-411 528,-411 528,-393 305,-393"/>
<polygon fill="none" stroke="black" points="305,-393 305,-411 528,-411 528,-393 305,-393"/>
<polygon fill="#ffffff" stroke="transparent" points="306,-394 306,-410 370,-410 370,-394 306,-394"/>
<text text-anchor="start" x="308" y="-399.2" font-family="Helvetica,sans-Serif" font-size="11.00">&lt; 6</text>
<polygon fill="#ffffff" stroke="transparent" points="370,-394 370,-410 457,-410 457,-394 370,-394"/>
<text text-anchor="start" x="394" y="-399.2" font-family="Helvetica,sans-Serif" font-size="11.00">13 rows</text>
<polygon fill="#ffffff" stroke="transparent" points="457,-394 457,-410 527,-410 527,-394 457,-394"/>
<text text-anchor="start" x="503" y="-399.2" font-family="Helvetica,sans-Serif" font-size="11.00">45 &gt;</text>
<polygon fill="black" stroke="black" points="370,-394 370,-410 370,-410 370,-394 370,-394"/>
<polygon fill="black" stroke="black" points="457,-394 457,-410 457,-410 457,-394 457,-394"/>
</a>
</g>
</g>
<!-- ad_alertrecipient&#45;&gt;ad_role -->
<g id="edge2" class="edge">
<title>ad_alertrecipient:w&#45;&gt;ad_role:e</title>
<path fill="none" stroke="black" d="M571.39,-625.52C555.74,-616.66 552.77,-594 529,-594"/>
<polygon fill="black" stroke="black" points="577.73,-627.08 584.64,-632.5 581.62,-628.04 585.5,-629 585.5,-629 585.5,-629 581.62,-628.04 586.36,-625.5 577.73,-627.08 577.73,-627.08"/>
<ellipse fill="none" stroke="black" cx="574.63" cy="-626.32" rx="3.2" ry="3.2"/>
</g>
<!-- ad_user -->
<g id="node4" class="node">
<title>ad_user</title>
<g id="a_node4"><a xlink:href="../../tables/ad_user.html" xlink:title="ad_user" target="_top">
<polygon fill="#ffffff" stroke="transparent" points="8,-37 8,-601 248,-601 248,-37 8,-37"/>
<polygon fill="#f5f5f5" stroke="transparent" points="8,-579 8,-601 248,-601 248,-579 8,-579"/>
<polygon fill="none" stroke="black" points="8,-579 8,-601 248,-601 248,-579 8,-579"/>
<text text-anchor="start" x="13" y="-588.2" font-family="Helvetica,sans-Serif" font-weight="bold" font-size="11.00">ad_user</text>
<text text-anchor="start" x="213" y="-587.2" font-family="Helvetica,sans-Serif" font-size="11.00">[table]</text>
<polygon fill="none" stroke="black" points="8,-557 8,-579 248,-579 248,-557 8,-557"/>
<image xlink:href="../../images/primaryKeys.png" width="11px" height="12px" preserveAspectRatio="xMinYMin meet" x="13" y="-574"/>
<text text-anchor="start" x="28" y="-565.2" font-family="Helvetica,sans-Serif" font-size="11.00">ad_user_id</text>
<polygon fill="none" stroke="black" points="8,-535 8,-557 248,-557 248,-535 8,-535"/>
<image xlink:href="../../images/foreignKeys.png" width="11px" height="12px" preserveAspectRatio="xMinYMin meet" x="13" y="-552"/>
<text text-anchor="start" x="28" y="-543.2" font-family="Helvetica,sans-Serif" font-size="11.00">ad_client_id</text>
<polygon fill="none" stroke="black" points="8,-513 8,-535 248,-535 248,-513 8,-513"/>
<image xlink:href="../../images/foreignKeys.png" width="11px" height="12px" preserveAspectRatio="xMinYMin meet" x="13" y="-530"/>
<text text-anchor="start" x="28" y="-521.2" font-family="Helvetica,sans-Serif" font-size="11.00">ad_org_id</text>
<polygon fill="#ffffff" stroke="transparent" points="8,-491 8,-513 248,-513 248,-491 8,-491"/>
<polygon fill="none" stroke="black" points="8,-491 8,-513 248,-513 248,-491 8,-491"/>
<text text-anchor="start" x="28" y="-499.2" font-family="Helvetica,sans-Serif" font-size="11.00">name</text>
<polygon fill="#ffffff" stroke="transparent" points="8,-469 8,-491 248,-491 248,-469 8,-469"/>
<polygon fill="none" stroke="black" points="8,-469 8,-491 248,-491 248,-469 8,-469"/>
<text text-anchor="start" x="28" y="-477.2" font-family="Helvetica,sans-Serif" font-size="11.00">email</text>
<polygon fill="none" stroke="black" points="8,-447 8,-469 248,-469 248,-447 8,-447"/>
<image xlink:href="../../images/foreignKeys.png" width="11px" height="12px" preserveAspectRatio="xMinYMin meet" x="13" y="-464"/>
<text text-anchor="start" x="28" y="-455.2" font-family="Helvetica,sans-Serif" font-size="11.00">supervisor_id</text>
<polygon fill="#ffffff" stroke="transparent" points="8,-425 8,-447 248,-447 248,-425 8,-425"/>
<polygon fill="none" stroke="black" points="8,-425 8,-447 248,-447 248,-425 8,-425"/>
<image xlink:href="../../images/foreignKeys.png" width="11px" height="12px" preserveAspectRatio="xMinYMin meet" x="13" y="-442"/>
<text text-anchor="start" x="28" y="-433.2" font-family="Helvetica,sans-Serif" font-size="11.00">c_bpartner_id</text>
<polygon fill="none" stroke="black" points="8,-403 8,-425 248,-425 248,-403 8,-403"/>
<image xlink:href="../../images/foreignKeys.png" width="11px" height="12px" preserveAspectRatio="xMinYMin meet" x="13" y="-420"/>
<text text-anchor="start" x="28" y="-411.2" font-family="Helvetica,sans-Serif" font-size="11.00">c_bpartner_location_id</text>
<polygon fill="none" stroke="black" points="8,-381 8,-403 248,-403 248,-381 8,-381"/>
<image xlink:href="../../images/foreignKeys.png" width="11px" height="12px" preserveAspectRatio="xMinYMin meet" x="13" y="-398"/>
<text text-anchor="start" x="28" y="-389.2" font-family="Helvetica,sans-Serif" font-size="11.00">c_greeting_id</text>
<polygon fill="none" stroke="black" points="8,-359 8,-381 248,-381 248,-359 8,-359"/>
<image xlink:href="../../images/foreignKeys.png" width="11px" height="12px" preserveAspectRatio="xMinYMin meet" x="13" y="-376"/>
<text text-anchor="start" x="28" y="-367.2" font-family="Helvetica,sans-Serif" font-size="11.00">ad_orgtrx_id</text>
<polygon fill="none" stroke="black" points="8,-337 8,-359 248,-359 248,-337 8,-337"/>
<image xlink:href="../../images/foreignKeys.png" width="11px" height="12px" preserveAspectRatio="xMinYMin meet" x="13" y="-354"/>
<text text-anchor="start" x="28" y="-345.2" font-family="Helvetica,sans-Serif" font-size="11.00">c_job_id</text>
<polygon fill="#ffffff" stroke="transparent" points="8,-315 8,-337 248,-337 248,-315 8,-315"/>
<polygon fill="none" stroke="black" points="8,-315 8,-337 248,-337 248,-315 8,-315"/>
<text text-anchor="start" x="28" y="-323.2" font-family="Helvetica,sans-Serif" font-size="11.00">ad_user_uu</text>
<polygon fill="none" stroke="black" points="8,-293 8,-315 248,-315 248,-293 8,-293"/>
<image xlink:href="../../images/foreignKeys.png" width="11px" height="12px" preserveAspectRatio="xMinYMin meet" x="13" y="-310"/>
<text text-anchor="start" x="28" y="-301.2" font-family="Helvetica,sans-Serif" font-size="11.00">c_location_id</text>
<polygon fill="none" stroke="black" points="8,-271 8,-293 248,-293 248,-271 8,-271"/>
<image xlink:href="../../images/foreignKeys.png" width="11px" height="12px" preserveAspectRatio="xMinYMin meet" x="13" y="-288"/>
<text text-anchor="start" x="28" y="-279.2" font-family="Helvetica,sans-Serif" font-size="11.00">c_campaign_id</text>
<polygon fill="none" stroke="black" points="8,-249 8,-271 248,-271 248,-249 8,-249"/>
<image xlink:href="../../images/foreignKeys.png" width="11px" height="12px" preserveAspectRatio="xMinYMin meet" x="13" y="-266"/>
<text text-anchor="start" x="28" y="-257.2" font-family="Helvetica,sans-Serif" font-size="11.00">salesrep_id</text>
<polygon fill="none" stroke="black" points="8,-227 8,-249 248,-249 248,-227 8,-227"/>
<image xlink:href="../../images/foreignKeys.png" width="11px" height="12px" preserveAspectRatio="xMinYMin meet" x="13" y="-244"/>
<text text-anchor="start" x="28" y="-235.2" font-family="Helvetica,sans-Serif" font-size="11.00">bp_location_id</text>
<polygon fill="none" stroke="black" points="8,-205 8,-227 248,-227 248,-205 8,-205"/>
<image xlink:href="../../images/foreignKeys.png" width="11px" height="12px" preserveAspectRatio="xMinYMin meet" x="13" y="-222"/>
<text text-anchor="start" x="28" y="-213.2" font-family="Helvetica,sans-Serif" font-size="11.00">r_defaultmailtext_id</text>
<polygon fill="none" stroke="black" points="8,-183 8,-205 248,-205 248,-183 8,-183"/>
<image xlink:href="../../images/foreignKeys.png" width="11px" height="12px" preserveAspectRatio="xMinYMin meet" x="13" y="-200"/>
<text text-anchor="start" x="28" y="-191.2" font-family="Helvetica,sans-Serif" font-size="11.00">cof_c_marketsegment_id</text>
<polygon fill="none" stroke="black" points="8,-161 8,-183 248,-183 248,-161 8,-161"/>
<image xlink:href="../../images/foreignKeys.png" width="11px" height="12px" preserveAspectRatio="xMinYMin meet" x="13" y="-178"/>
<text text-anchor="start" x="28" y="-169.2" font-family="Helvetica,sans-Serif" font-size="11.00">cof_c_leadexpirationreason_id</text>
<polygon fill="none" stroke="black" points="8,-139 8,-161 248,-161 248,-139 8,-139"/>
<image xlink:href="../../images/foreignKeys.png" width="11px" height="12px" preserveAspectRatio="xMinYMin meet" x="13" y="-156"/>
<text text-anchor="start" x="28" y="-147.2" font-family="Helvetica,sans-Serif" font-size="11.00">ad_image_id</text>
<polygon fill="none" stroke="black" points="8,-117 8,-139 248,-139 248,-117 8,-117"/>
<image xlink:href="../../images/foreignKeys.png" width="11px" height="12px" preserveAspectRatio="xMinYMin meet" x="13" y="-134"/>
<text text-anchor="start" x="28" y="-125.2" font-family="Helvetica,sans-Serif" font-size="11.00">c_subscription_id</text>
<polygon fill="none" stroke="black" points="8,-95 8,-117 248,-117 248,-95 8,-95"/>
<image xlink:href="../../images/foreignKeys.png" width="11px" height="12px" preserveAspectRatio="xMinYMin meet" x="13" y="-112"/>
<text text-anchor="start" x="28" y="-103.2" font-family="Helvetica,sans-Serif" font-size="11.00">cof_responsavelindicacao_id</text>
<polygon fill="none" stroke="black" points="8,-73 8,-95 248,-95 248,-73 8,-73"/>
<image xlink:href="../../images/foreignKeys.png" width="11px" height="12px" preserveAspectRatio="xMinYMin meet" x="13" y="-90"/>
<text text-anchor="start" x="28" y="-81.2" font-family="Helvetica,sans-Serif" font-size="11.00">cof_respatribuicao_id</text>
<polygon fill="none" stroke="black" points="8,-55 8,-73 248,-73 248,-55 8,-55"/>
<text text-anchor="start" x="11" y="-61.2" font-family="Helvetica,sans-Serif" font-size="11.00">...</text>
<polygon fill="#ffffff" stroke="transparent" points="8,-37 8,-55 248,-55 248,-37 8,-37"/>
<polygon fill="none" stroke="black" points="8,-37 8,-55 248,-55 248,-37 8,-37"/>
<polygon fill="#ffffff" stroke="transparent" points="9,-38 9,-54 83,-54 83,-38 9,-38"/>
<text text-anchor="start" x="11" y="-43.2" font-family="Helvetica,sans-Serif" font-size="11.00">&lt; 19</text>
<polygon fill="#ffffff" stroke="transparent" points="83,-38 83,-54 168,-54 168,-38 83,-38"/>
<text text-anchor="start" x="109" y="-43.2" font-family="Helvetica,sans-Serif" font-size="11.00">8 rows</text>
<polygon fill="#ffffff" stroke="transparent" points="168,-38 168,-54 247,-54 247,-38 168,-38"/>
<text text-anchor="start" x="217" y="-43.2" font-family="Helvetica,sans-Serif" font-size="11.00">444 &gt;</text>
<polygon fill="black" stroke="black" points="83,-38 83,-54 83,-54 83,-38 83,-38"/>
<polygon fill="black" stroke="black" points="168,-38 168,-54 168,-54 168,-38 168,-38"/>
</a>
</g>
</g>
<!-- ad_alertrecipient&#45;&gt;ad_user -->
<g id="edge3" class="edge">
<title>ad_alertrecipient:w&#45;&gt;ad_user:e</title>
<path fill="none" stroke="black" d="M570.99,-651.25C496.92,-653.45 341.62,-668.99 289,-637 258.71,-618.58 284.45,-568 249,-568"/>
<polygon fill="black" stroke="black" points="577.5,-651.14 585.56,-654.6 581.5,-651.07 585.5,-651 585.5,-651 585.5,-651 581.5,-651.07 585.44,-647.4 577.5,-651.14 577.5,-651.14"/>
<ellipse fill="none" stroke="black" cx="574.3" cy="-651.19" rx="3.2" ry="3.2"/>
</g>
<!-- ad_role&#45;&gt;ad_user -->
<g id="edge4" class="edge">
<title>ad_role:w&#45;&gt;ad_user:e</title>
<path fill="none" stroke="black" d="M290.02,-488.05C267.08,-504.83 287.7,-568 249,-568"/>
<polygon fill="black" stroke="black" points="296.32,-486.23 305,-487.46 300.16,-485.11 304,-484 304,-484 304,-484 300.16,-485.11 303,-480.54 296.32,-486.23 296.32,-486.23"/>
<ellipse fill="none" stroke="black" cx="293.24" cy="-487.12" rx="3.2" ry="3.2"/>
</g>
</g>
</svg>
