<?xml version="1.0" encoding="UTF-8" standalone="no"?>
<!DOCTYPE svg PUBLIC "-//W3C//DTD SVG 1.1//EN"
 "http://www.w3.org/Graphics/SVG/1.1/DTD/svg11.dtd">
<!-- Generated by graphviz version 2.43.0 (0)
 -->
<!-- Title: oneDegreeRelationshipsDiagram Pages: 1 -->
<svg width="500pt" height="241pt"
 viewBox="0.00 0.00 500.00 241.00" xmlns="http://www.w3.org/2000/svg" xmlns:xlink="http://www.w3.org/1999/xlink">
<g id="graph0" class="graph" transform="scale(1 1) rotate(0) translate(4 237)">
<title>oneDegreeRelationshipsDiagram</title>
<polygon fill="#ffffff" stroke="transparent" points="-4,4 -4,-237 496,-237 496,4 -4,4"/>
<text text-anchor="middle" x="71.5" y="-7.2" font-family="Helvetica,sans-Serif" font-size="11.00">Generated by SchemaSpy</text>
<!-- ad_attachment_entry -->
<g id="node1" class="node">
<title>ad_attachment_entry</title>
<g id="a_node1"><a xlink:href="../../tables/ad_attachment_entry.html" xlink:title="ad_attachment_entry" target="_top">
<polygon fill="#ffffff" stroke="transparent" points="241,-119 241,-229 484,-229 484,-119 241,-119"/>
<polygon fill="#f5f5f5" stroke="transparent" points="243.5,-205 243.5,-227 482.5,-227 482.5,-205 243.5,-205"/>
<polygon fill="none" stroke="black" points="243.5,-205 243.5,-227 482.5,-227 482.5,-205 243.5,-205"/>
<text text-anchor="start" x="248.5" y="-214.2" font-family="Helvetica,sans-Serif" font-weight="bold" font-size="11.00">ad_attachment_entry</text>
<text text-anchor="start" x="447.5" y="-213.2" font-family="Helvetica,sans-Serif" font-size="11.00">[table]</text>
<polygon fill="#ffffff" stroke="transparent" points="243.5,-183 243.5,-205 419.5,-205 419.5,-183 243.5,-183"/>
<polygon fill="none" stroke="black" points="243.5,-183 243.5,-205 419.5,-205 419.5,-183 243.5,-183"/>
<image xlink:href="../../images/foreignKeys.png" width="11px" height="12px" preserveAspectRatio="xMinYMin meet" x="248.5" y="-200"/>
<text text-anchor="start" x="263.5" y="-191.2" font-family="Helvetica,sans-Serif" font-size="11.00">ad_attachment_id</text>
<polygon fill="none" stroke="black" points="419.5,-183 419.5,-205 482.5,-205 482.5,-183 419.5,-183"/>
<text text-anchor="start" x="422.5" y="-191.2" font-family="Helvetica,sans-Serif" font-size="11.00">numeric[10]</text>
<polygon fill="#ffffff" stroke="transparent" points="243.5,-161 243.5,-183 419.5,-183 419.5,-161 243.5,-161"/>
<polygon fill="none" stroke="black" points="243.5,-161 243.5,-183 419.5,-183 419.5,-161 243.5,-161"/>
<text text-anchor="start" x="263.5" y="-169.2" font-family="Helvetica,sans-Serif" font-size="11.00">seqno</text>
<polygon fill="none" stroke="black" points="419.5,-161 419.5,-183 482.5,-183 482.5,-161 419.5,-161"/>
<text text-anchor="start" x="422.5" y="-169.2" font-family="Helvetica,sans-Serif" font-size="11.00">numeric[10]</text>
<polygon fill="none" stroke="black" points="243.5,-139 243.5,-161 419.5,-161 419.5,-139 243.5,-139"/>
<text text-anchor="start" x="263.5" y="-147.2" font-family="Helvetica,sans-Serif" font-size="11.00">binarydata</text>
<polygon fill="none" stroke="black" points="419.5,-139 419.5,-161 482.5,-161 482.5,-139 419.5,-139"/>
<text text-anchor="start" x="422.5" y="-147.2" font-family="Helvetica,sans-Serif" font-size="11.00">oid[10]</text>
<polygon fill="#ffffff" stroke="transparent" points="243.5,-121 243.5,-139 482.5,-139 482.5,-121 243.5,-121"/>
<polygon fill="none" stroke="black" points="243.5,-121 243.5,-139 482.5,-139 482.5,-121 243.5,-121"/>
<polygon fill="#ffffff" stroke="transparent" points="244.5,-122 244.5,-138 326.5,-138 326.5,-122 244.5,-122"/>
<text text-anchor="start" x="246.5" y="-127.2" font-family="Helvetica,sans-Serif" font-size="11.00">&lt; 1</text>
<polygon fill="#ffffff" stroke="transparent" points="326.5,-122 326.5,-138 399.5,-138 399.5,-122 326.5,-122"/>
<text text-anchor="start" x="359.5" y="-127.2" font-family="Helvetica,sans-Serif" font-size="11.00"> &#160;</text>
<polygon fill="#ffffff" stroke="transparent" points="399.5,-122 399.5,-138 481.5,-138 481.5,-122 399.5,-122"/>
<text text-anchor="start" x="463.5" y="-127.2" font-family="Helvetica,sans-Serif" font-size="11.00">0 &gt;</text>
<polygon fill="black" stroke="black" points="326.5,-122 326.5,-138 326.5,-138 326.5,-122 326.5,-122"/>
<polygon fill="black" stroke="black" points="399.5,-122 399.5,-138 399.5,-138 399.5,-122 399.5,-122"/>
<polygon fill="none" stroke="black" stroke-width="2" points="242,-120 242,-228 483,-228 483,-120 242,-120"/>
</a>
</g>
</g>
<!-- ad_attachment -->
<g id="node2" class="node">
<title>ad_attachment</title>
<g id="a_node2"><a xlink:href="../../tables/ad_attachment.html" xlink:title="ad_attachment" target="_top">
<polygon fill="#ffffff" stroke="transparent" points="8,-37 8,-227 192,-227 192,-37 8,-37"/>
<polygon fill="#f5f5f5" stroke="transparent" points="8,-205 8,-227 192,-227 192,-205 8,-205"/>
<polygon fill="none" stroke="black" points="8,-205 8,-227 192,-227 192,-205 8,-205"/>
<text text-anchor="start" x="13" y="-214.2" font-family="Helvetica,sans-Serif" font-weight="bold" font-size="11.00">ad_attachment</text>
<text text-anchor="start" x="157" y="-213.2" font-family="Helvetica,sans-Serif" font-size="11.00">[table]</text>
<polygon fill="none" stroke="black" points="8,-183 8,-205 192,-205 192,-183 8,-183"/>
<image xlink:href="../../images/primaryKeys.png" width="11px" height="12px" preserveAspectRatio="xMinYMin meet" x="13" y="-200"/>
<text text-anchor="start" x="28" y="-191.2" font-family="Helvetica,sans-Serif" font-size="11.00">ad_attachment_id</text>
<polygon fill="#ffffff" stroke="transparent" points="8,-161 8,-183 192,-183 192,-161 8,-161"/>
<polygon fill="none" stroke="black" points="8,-161 8,-183 192,-183 192,-161 8,-161"/>
<image xlink:href="../../images/foreignKeys.png" width="11px" height="12px" preserveAspectRatio="xMinYMin meet" x="13" y="-178"/>
<text text-anchor="start" x="28" y="-169.2" font-family="Helvetica,sans-Serif" font-size="11.00">ad_table_id</text>
<polygon fill="#ffffff" stroke="transparent" points="8,-139 8,-161 192,-161 192,-139 8,-139"/>
<polygon fill="none" stroke="black" points="8,-139 8,-161 192,-161 192,-139 8,-139"/>
<text text-anchor="start" x="28" y="-147.2" font-family="Helvetica,sans-Serif" font-size="11.00">record_id</text>
<polygon fill="#ffffff" stroke="transparent" points="8,-117 8,-139 192,-139 192,-117 8,-117"/>
<polygon fill="none" stroke="black" points="8,-117 8,-139 192,-139 192,-117 8,-117"/>
<text text-anchor="start" x="28" y="-125.2" font-family="Helvetica,sans-Serif" font-size="11.00">ad_attachment_uu</text>
<polygon fill="none" stroke="black" points="8,-95 8,-117 192,-117 192,-95 8,-95"/>
<image xlink:href="../../images/foreignKeys.png" width="11px" height="12px" preserveAspectRatio="xMinYMin meet" x="13" y="-112"/>
<text text-anchor="start" x="28" y="-103.2" font-family="Helvetica,sans-Serif" font-size="11.00">ad_storageprovider_id</text>
<polygon fill="#ffffff" stroke="transparent" points="8,-73 8,-95 192,-95 192,-73 8,-73"/>
<polygon fill="none" stroke="black" points="8,-73 8,-95 192,-95 192,-73 8,-73"/>
<text text-anchor="start" x="28" y="-81.2" font-family="Helvetica,sans-Serif" font-size="11.00">record_uu</text>
<polygon fill="none" stroke="black" points="8,-55 8,-73 192,-73 192,-55 8,-55"/>
<text text-anchor="start" x="11" y="-61.2" font-family="Helvetica,sans-Serif" font-size="11.00">...</text>
<polygon fill="#ffffff" stroke="transparent" points="8,-37 8,-55 192,-55 192,-37 8,-37"/>
<polygon fill="none" stroke="black" points="8,-37 8,-55 192,-55 192,-37 8,-37"/>
<polygon fill="#ffffff" stroke="transparent" points="9,-38 9,-54 62,-54 62,-38 9,-38"/>
<text text-anchor="start" x="11" y="-43.2" font-family="Helvetica,sans-Serif" font-size="11.00">&lt; 2</text>
<polygon fill="#ffffff" stroke="transparent" points="62,-38 62,-54 138,-54 138,-38 62,-38"/>
<text text-anchor="start" x="80.5" y="-43.2" font-family="Helvetica,sans-Serif" font-size="11.00">22 rows</text>
<polygon fill="#ffffff" stroke="transparent" points="138,-38 138,-54 191,-54 191,-38 138,-38"/>
<text text-anchor="start" x="173" y="-43.2" font-family="Helvetica,sans-Serif" font-size="11.00">2 &gt;</text>
<polygon fill="black" stroke="black" points="62,-38 62,-54 62,-54 62,-38 62,-38"/>
<polygon fill="black" stroke="black" points="138,-38 138,-54 138,-54 138,-38 138,-38"/>
</a>
</g>
</g>
<!-- ad_attachment_entry&#45;&gt;ad_attachment -->
<g id="edge1" class="edge">
<title>ad_attachment_entry:w&#45;&gt;ad_attachment:e</title>
<path fill="none" stroke="black" d="M227.84,-194C216.41,-194 209.16,-194 193,-194"/>
<polygon fill="black" stroke="black" points="234.5,-194 242.5,-197.6 238.5,-194 242.5,-194 242.5,-194 242.5,-194 238.5,-194 242.5,-190.4 234.5,-194 234.5,-194"/>
<ellipse fill="none" stroke="black" cx="231.3" cy="-194" rx="3.2" ry="3.2"/>
</g>
</g>
</svg>
