<?xml version="1.0" encoding="UTF-8" standalone="no"?>
<!DOCTYPE svg PUBLIC "-//W3C//DTD SVG 1.1//EN"
 "http://www.w3.org/Graphics/SVG/1.1/DTD/svg11.dtd">
<!-- Generated by graphviz version 2.43.0 (0)
 -->
<!-- Title: oneDegreeRelationshipsDiagram Pages: 1 -->
<svg width="1455pt" height="1037pt"
 viewBox="0.00 0.00 1455.00 1037.37" xmlns="http://www.w3.org/2000/svg" xmlns:xlink="http://www.w3.org/1999/xlink">
<g id="graph0" class="graph" transform="scale(1 1) rotate(0) translate(4 1033.37)">
<title>oneDegreeRelationshipsDiagram</title>
<polygon fill="#ffffff" stroke="transparent" points="-4,4 -4,-1033.37 1451,-1033.37 1451,4 -4,4"/>
<text text-anchor="middle" x="71.5" y="-7.2" font-family="Helvetica,sans-Serif" font-size="11.00">Generated by SchemaSpy</text>
<!-- ad_importtemplate -->
<g id="node1" class="node">
<title>ad_importtemplate</title>
<g id="a_node1"><a xlink:href="../../tables/ad_importtemplate.html" xlink:title="ad_importtemplate" target="_top">
<polygon fill="#ffffff" stroke="transparent" points="865,-750 865,-984 1050,-984 1050,-750 865,-750"/>
<polygon fill="#f5f5f5" stroke="transparent" points="865.5,-962 865.5,-984 1050.5,-984 1050.5,-962 865.5,-962"/>
<polygon fill="none" stroke="black" points="865.5,-962 865.5,-984 1050.5,-984 1050.5,-962 865.5,-962"/>
<text text-anchor="start" x="870.5" y="-971.2" font-family="Helvetica,sans-Serif" font-weight="bold" font-size="11.00">ad_importtemplate</text>
<text text-anchor="start" x="1015.5" y="-970.2" font-family="Helvetica,sans-Serif" font-size="11.00">[table]</text>
<polygon fill="none" stroke="black" points="865.5,-940 865.5,-962 1050.5,-962 1050.5,-940 865.5,-940"/>
<image xlink:href="../../images/foreignKeys.png" width="11px" height="12px" preserveAspectRatio="xMinYMin meet" x="870.5" y="-957"/>
<text text-anchor="start" x="885.5" y="-948.2" font-family="Helvetica,sans-Serif" font-size="11.00">ad_client_id</text>
<polygon fill="none" stroke="black" points="865.5,-918 865.5,-940 1050.5,-940 1050.5,-918 865.5,-918"/>
<image xlink:href="../../images/primaryKeys.png" width="11px" height="12px" preserveAspectRatio="xMinYMin meet" x="870.5" y="-935"/>
<text text-anchor="start" x="885.5" y="-926.2" font-family="Helvetica,sans-Serif" font-size="11.00">ad_importtemplate_id</text>
<polygon fill="#ffffff" stroke="transparent" points="865.5,-896 865.5,-918 1050.5,-918 1050.5,-896 865.5,-896"/>
<polygon fill="none" stroke="black" points="865.5,-896 865.5,-918 1050.5,-918 1050.5,-896 865.5,-896"/>
<text text-anchor="start" x="885.5" y="-904.2" font-family="Helvetica,sans-Serif" font-size="11.00">ad_importtemplate_uu</text>
<polygon fill="none" stroke="black" points="865.5,-874 865.5,-896 1050.5,-896 1050.5,-874 865.5,-874"/>
<image xlink:href="../../images/foreignKeys.png" width="11px" height="12px" preserveAspectRatio="xMinYMin meet" x="870.5" y="-891"/>
<text text-anchor="start" x="885.5" y="-882.2" font-family="Helvetica,sans-Serif" font-size="11.00">ad_org_id</text>
<polygon fill="none" stroke="black" points="865.5,-852 865.5,-874 1050.5,-874 1050.5,-852 865.5,-852"/>
<image xlink:href="../../images/foreignKeys.png" width="11px" height="12px" preserveAspectRatio="xMinYMin meet" x="870.5" y="-869"/>
<text text-anchor="start" x="885.5" y="-860.2" font-family="Helvetica,sans-Serif" font-size="11.00">ad_tab_id</text>
<polygon fill="none" stroke="black" points="865.5,-830 865.5,-852 1050.5,-852 1050.5,-830 865.5,-830"/>
<image xlink:href="../../images/foreignKeys.png" width="11px" height="12px" preserveAspectRatio="xMinYMin meet" x="870.5" y="-847"/>
<text text-anchor="start" x="885.5" y="-838.2" font-family="Helvetica,sans-Serif" font-size="11.00">ad_window_id</text>
<polygon fill="none" stroke="black" points="865.5,-808 865.5,-830 1050.5,-830 1050.5,-808 865.5,-808"/>
<image xlink:href="../../images/foreignKeys.png" width="11px" height="12px" preserveAspectRatio="xMinYMin meet" x="870.5" y="-825"/>
<text text-anchor="start" x="885.5" y="-816.2" font-family="Helvetica,sans-Serif" font-size="11.00">createdby</text>
<polygon fill="none" stroke="black" points="865.5,-786 865.5,-808 1050.5,-808 1050.5,-786 865.5,-786"/>
<image xlink:href="../../images/foreignKeys.png" width="11px" height="12px" preserveAspectRatio="xMinYMin meet" x="870.5" y="-803"/>
<text text-anchor="start" x="885.5" y="-794.2" font-family="Helvetica,sans-Serif" font-size="11.00">updatedby</text>
<polygon fill="none" stroke="black" points="865.5,-768 865.5,-786 1050.5,-786 1050.5,-768 865.5,-768"/>
<text text-anchor="start" x="868.5" y="-774.2" font-family="Helvetica,sans-Serif" font-size="11.00">...</text>
<polygon fill="#ffffff" stroke="transparent" points="865.5,-750 865.5,-768 1050.5,-768 1050.5,-750 865.5,-750"/>
<polygon fill="none" stroke="black" points="865.5,-750 865.5,-768 1050.5,-768 1050.5,-750 865.5,-750"/>
<polygon fill="#ffffff" stroke="transparent" points="866.5,-751 866.5,-767 923.5,-767 923.5,-751 866.5,-751"/>
<text text-anchor="start" x="868.5" y="-756.2" font-family="Helvetica,sans-Serif" font-size="11.00">&lt; 6</text>
<polygon fill="#ffffff" stroke="transparent" points="923.5,-751 923.5,-767 992.5,-767 992.5,-751 923.5,-751"/>
<text text-anchor="start" x="944" y="-756.2" font-family="Helvetica,sans-Serif" font-size="11.00">1 row</text>
<polygon fill="#ffffff" stroke="transparent" points="992.5,-751 992.5,-767 1049.5,-767 1049.5,-751 992.5,-751"/>
<text text-anchor="start" x="1031.5" y="-756.2" font-family="Helvetica,sans-Serif" font-size="11.00">1 &gt;</text>
<polygon fill="black" stroke="black" points="923.5,-751 923.5,-767 923.5,-767 923.5,-751 923.5,-751"/>
<polygon fill="black" stroke="black" points="992.5,-751 992.5,-767 992.5,-767 992.5,-751 992.5,-751"/>
</a>
</g>
</g>
<!-- ad_client -->
<g id="node2" class="node">
<title>ad_client</title>
<g id="a_node2"><a xlink:href="../../tables/ad_client.html" xlink:title="ad_client" target="_top">
<polygon fill="#ffffff" stroke="transparent" points="8,-520 8,-732 253,-732 253,-520 8,-520"/>
<polygon fill="#f5f5f5" stroke="transparent" points="8.5,-710 8.5,-732 253.5,-732 253.5,-710 8.5,-710"/>
<polygon fill="none" stroke="black" points="8.5,-710 8.5,-732 253.5,-732 253.5,-710 8.5,-710"/>
<text text-anchor="start" x="13.5" y="-719.2" font-family="Helvetica,sans-Serif" font-weight="bold" font-size="11.00">ad_client</text>
<text text-anchor="start" x="218.5" y="-718.2" font-family="Helvetica,sans-Serif" font-size="11.00">[table]</text>
<polygon fill="none" stroke="black" points="8.5,-688 8.5,-710 253.5,-710 253.5,-688 8.5,-688"/>
<image xlink:href="../../images/primaryKeys.png" width="11px" height="12px" preserveAspectRatio="xMinYMin meet" x="13.5" y="-705"/>
<text text-anchor="start" x="28.5" y="-696.2" font-family="Helvetica,sans-Serif" font-size="11.00">ad_client_id</text>
<polygon fill="#ffffff" stroke="transparent" points="8.5,-666 8.5,-688 253.5,-688 253.5,-666 8.5,-666"/>
<polygon fill="none" stroke="black" points="8.5,-666 8.5,-688 253.5,-688 253.5,-666 8.5,-666"/>
<text text-anchor="start" x="28.5" y="-674.2" font-family="Helvetica,sans-Serif" font-size="11.00">value</text>
<polygon fill="none" stroke="black" points="8.5,-644 8.5,-666 253.5,-666 253.5,-644 8.5,-644"/>
<image xlink:href="../../images/foreignKeys.png" width="11px" height="12px" preserveAspectRatio="xMinYMin meet" x="13.5" y="-661"/>
<text text-anchor="start" x="28.5" y="-652.2" font-family="Helvetica,sans-Serif" font-size="11.00">ad_language</text>
<polygon fill="none" stroke="black" points="8.5,-622 8.5,-644 253.5,-644 253.5,-622 8.5,-622"/>
<image xlink:href="../../images/foreignKeys.png" width="11px" height="12px" preserveAspectRatio="xMinYMin meet" x="13.5" y="-639"/>
<text text-anchor="start" x="28.5" y="-630.2" font-family="Helvetica,sans-Serif" font-size="11.00">ad_replicationstrategy_id</text>
<polygon fill="#ffffff" stroke="transparent" points="8.5,-600 8.5,-622 253.5,-622 253.5,-600 8.5,-600"/>
<polygon fill="none" stroke="black" points="8.5,-600 8.5,-622 253.5,-622 253.5,-600 8.5,-600"/>
<text text-anchor="start" x="28.5" y="-608.2" font-family="Helvetica,sans-Serif" font-size="11.00">ad_client_uu</text>
<polygon fill="none" stroke="black" points="8.5,-578 8.5,-600 253.5,-600 253.5,-578 8.5,-578"/>
<image xlink:href="../../images/foreignKeys.png" width="11px" height="12px" preserveAspectRatio="xMinYMin meet" x="13.5" y="-595"/>
<text text-anchor="start" x="28.5" y="-586.2" font-family="Helvetica,sans-Serif" font-size="11.00">ad_passwordrule_id</text>
<polygon fill="#ffffff" stroke="transparent" points="8.5,-556 8.5,-578 253.5,-578 253.5,-556 8.5,-556"/>
<polygon fill="none" stroke="black" points="8.5,-556 8.5,-578 253.5,-578 253.5,-556 8.5,-556"/>
<text text-anchor="start" x="28.5" y="-564.2" font-family="Helvetica,sans-Serif" font-size="11.00">loginprefix</text>
<polygon fill="none" stroke="black" points="8.5,-538 8.5,-556 253.5,-556 253.5,-538 8.5,-538"/>
<text text-anchor="start" x="11.5" y="-544.2" font-family="Helvetica,sans-Serif" font-size="11.00">...</text>
<polygon fill="#ffffff" stroke="transparent" points="8.5,-520 8.5,-538 253.5,-538 253.5,-520 8.5,-520"/>
<polygon fill="none" stroke="black" points="8.5,-520 8.5,-538 253.5,-538 253.5,-520 8.5,-520"/>
<polygon fill="#ffffff" stroke="transparent" points="9.5,-521 9.5,-537 81.5,-537 81.5,-521 9.5,-521"/>
<text text-anchor="start" x="11.5" y="-526.2" font-family="Helvetica,sans-Serif" font-size="11.00">&lt; 3</text>
<polygon fill="#ffffff" stroke="transparent" points="81.5,-521 81.5,-537 169.5,-537 169.5,-521 81.5,-521"/>
<text text-anchor="start" x="109" y="-526.2" font-family="Helvetica,sans-Serif" font-size="11.00">2 rows</text>
<polygon fill="#ffffff" stroke="transparent" points="169.5,-521 169.5,-537 252.5,-537 252.5,-521 169.5,-521"/>
<text text-anchor="start" x="222.5" y="-526.2" font-family="Helvetica,sans-Serif" font-size="11.00">204 &gt;</text>
<polygon fill="black" stroke="black" points="81.5,-521 81.5,-537 81.5,-537 81.5,-521 81.5,-521"/>
<polygon fill="black" stroke="black" points="169.5,-521 169.5,-537 169.5,-537 169.5,-521 169.5,-521"/>
</a>
</g>
</g>
<!-- ad_importtemplate&#45;&gt;ad_client -->
<g id="edge1" class="edge">
<title>ad_importtemplate:w&#45;&gt;ad_client:e</title>
<path fill="none" stroke="black" d="M849.8,-950.23C697.6,-935.02 396.44,-699 254.5,-699"/>
<polygon fill="black" stroke="black" points="856.51,-950.58 864.31,-954.6 860.51,-950.79 864.5,-951 864.5,-951 864.5,-951 860.51,-950.79 864.69,-947.4 856.51,-950.58 856.51,-950.58"/>
<ellipse fill="none" stroke="black" cx="853.32" cy="-950.42" rx="3.2" ry="3.2"/>
</g>
<!-- ad_org -->
<g id="node3" class="node">
<title>ad_org</title>
<g id="a_node3"><a xlink:href="../../tables/ad_org.html" xlink:title="ad_org" target="_top">
<polygon fill="#ffffff" stroke="transparent" points="302,-485 302,-675 508,-675 508,-485 302,-485"/>
<polygon fill="#f5f5f5" stroke="transparent" points="302,-653 302,-675 508,-675 508,-653 302,-653"/>
<polygon fill="none" stroke="black" points="302,-653 302,-675 508,-675 508,-653 302,-653"/>
<text text-anchor="start" x="307" y="-662.2" font-family="Helvetica,sans-Serif" font-weight="bold" font-size="11.00">ad_org</text>
<text text-anchor="start" x="473" y="-661.2" font-family="Helvetica,sans-Serif" font-size="11.00">[table]</text>
<polygon fill="none" stroke="black" points="302,-631 302,-653 508,-653 508,-631 302,-631"/>
<image xlink:href="../../images/primaryKeys.png" width="11px" height="12px" preserveAspectRatio="xMinYMin meet" x="307" y="-648"/>
<text text-anchor="start" x="322" y="-639.2" font-family="Helvetica,sans-Serif" font-size="11.00">ad_org_id</text>
<polygon fill="#ffffff" stroke="transparent" points="302,-609 302,-631 508,-631 508,-609 302,-609"/>
<polygon fill="none" stroke="black" points="302,-609 302,-631 508,-631 508,-609 302,-609"/>
<image xlink:href="../../images/foreignKeys.png" width="11px" height="12px" preserveAspectRatio="xMinYMin meet" x="307" y="-626"/>
<text text-anchor="start" x="322" y="-617.2" font-family="Helvetica,sans-Serif" font-size="11.00">ad_client_id</text>
<polygon fill="#ffffff" stroke="transparent" points="302,-587 302,-609 508,-609 508,-587 302,-587"/>
<polygon fill="none" stroke="black" points="302,-587 302,-609 508,-609 508,-587 302,-587"/>
<text text-anchor="start" x="322" y="-595.2" font-family="Helvetica,sans-Serif" font-size="11.00">value</text>
<polygon fill="none" stroke="black" points="302,-565 302,-587 508,-587 508,-565 302,-565"/>
<image xlink:href="../../images/foreignKeys.png" width="11px" height="12px" preserveAspectRatio="xMinYMin meet" x="307" y="-582"/>
<text text-anchor="start" x="322" y="-573.2" font-family="Helvetica,sans-Serif" font-size="11.00">ad_replicationstrategy_id</text>
<polygon fill="#ffffff" stroke="transparent" points="302,-543 302,-565 508,-565 508,-543 302,-543"/>
<polygon fill="none" stroke="black" points="302,-543 302,-565 508,-565 508,-543 302,-543"/>
<text text-anchor="start" x="322" y="-551.2" font-family="Helvetica,sans-Serif" font-size="11.00">ad_org_uu</text>
<polygon fill="none" stroke="black" points="302,-521 302,-543 508,-543 508,-521 302,-521"/>
<image xlink:href="../../images/foreignKeys.png" width="11px" height="12px" preserveAspectRatio="xMinYMin meet" x="307" y="-538"/>
<text text-anchor="start" x="322" y="-529.2" font-family="Helvetica,sans-Serif" font-size="11.00">cof_c_snrange_id</text>
<polygon fill="none" stroke="black" points="302,-503 302,-521 508,-521 508,-503 302,-503"/>
<text text-anchor="start" x="305" y="-509.2" font-family="Helvetica,sans-Serif" font-size="11.00">...</text>
<polygon fill="#ffffff" stroke="transparent" points="302,-485 302,-503 508,-503 508,-485 302,-485"/>
<polygon fill="none" stroke="black" points="302,-485 302,-503 508,-503 508,-485 302,-485"/>
<polygon fill="#ffffff" stroke="transparent" points="303,-486 303,-502 362,-502 362,-486 303,-486"/>
<text text-anchor="start" x="305" y="-491.2" font-family="Helvetica,sans-Serif" font-size="11.00">&lt; 3</text>
<polygon fill="#ffffff" stroke="transparent" points="362,-486 362,-502 437,-502 437,-486 362,-486"/>
<text text-anchor="start" x="383" y="-491.2" font-family="Helvetica,sans-Serif" font-size="11.00">3 rows</text>
<polygon fill="#ffffff" stroke="transparent" points="437,-486 437,-502 507,-502 507,-486 437,-486"/>
<text text-anchor="start" x="477" y="-491.2" font-family="Helvetica,sans-Serif" font-size="11.00">284 &gt;</text>
<polygon fill="black" stroke="black" points="362,-486 362,-502 362,-502 362,-486 362,-486"/>
<polygon fill="black" stroke="black" points="437,-486 437,-502 437,-502 437,-486 437,-486"/>
</a>
</g>
</g>
<!-- ad_importtemplate&#45;&gt;ad_org -->
<g id="edge2" class="edge">
<title>ad_importtemplate:w&#45;&gt;ad_org:e</title>
<path fill="none" stroke="black" d="M849.8,-883.2C832.73,-878.48 826.45,-865.39 805,-855 692.08,-800.3 636.25,-826.16 549,-736 517.43,-703.37 554.4,-642 509,-642"/>
<polygon fill="black" stroke="black" points="856.56,-884.03 864.06,-888.57 860.53,-884.51 864.5,-885 864.5,-885 864.5,-885 860.53,-884.51 864.94,-881.43 856.56,-884.03 856.56,-884.03"/>
<ellipse fill="none" stroke="black" cx="853.38" cy="-883.64" rx="3.2" ry="3.2"/>
</g>
<!-- ad_user -->
<g id="node4" class="node">
<title>ad_user</title>
<g id="a_node4"><a xlink:href="../../tables/ad_user.html" xlink:title="ad_user" target="_top">
<polygon fill="#ffffff" stroke="transparent" points="557,-37 557,-601 797,-601 797,-37 557,-37"/>
<polygon fill="#f5f5f5" stroke="transparent" points="557,-579 557,-601 797,-601 797,-579 557,-579"/>
<polygon fill="none" stroke="black" points="557,-579 557,-601 797,-601 797,-579 557,-579"/>
<text text-anchor="start" x="562" y="-588.2" font-family="Helvetica,sans-Serif" font-weight="bold" font-size="11.00">ad_user</text>
<text text-anchor="start" x="762" y="-587.2" font-family="Helvetica,sans-Serif" font-size="11.00">[table]</text>
<polygon fill="none" stroke="black" points="557,-557 557,-579 797,-579 797,-557 557,-557"/>
<image xlink:href="../../images/primaryKeys.png" width="11px" height="12px" preserveAspectRatio="xMinYMin meet" x="562" y="-574"/>
<text text-anchor="start" x="577" y="-565.2" font-family="Helvetica,sans-Serif" font-size="11.00">ad_user_id</text>
<polygon fill="none" stroke="black" points="557,-535 557,-557 797,-557 797,-535 557,-535"/>
<image xlink:href="../../images/foreignKeys.png" width="11px" height="12px" preserveAspectRatio="xMinYMin meet" x="562" y="-552"/>
<text text-anchor="start" x="577" y="-543.2" font-family="Helvetica,sans-Serif" font-size="11.00">ad_client_id</text>
<polygon fill="none" stroke="black" points="557,-513 557,-535 797,-535 797,-513 557,-513"/>
<image xlink:href="../../images/foreignKeys.png" width="11px" height="12px" preserveAspectRatio="xMinYMin meet" x="562" y="-530"/>
<text text-anchor="start" x="577" y="-521.2" font-family="Helvetica,sans-Serif" font-size="11.00">ad_org_id</text>
<polygon fill="#ffffff" stroke="transparent" points="557,-491 557,-513 797,-513 797,-491 557,-491"/>
<polygon fill="none" stroke="black" points="557,-491 557,-513 797,-513 797,-491 557,-491"/>
<text text-anchor="start" x="577" y="-499.2" font-family="Helvetica,sans-Serif" font-size="11.00">name</text>
<polygon fill="#ffffff" stroke="transparent" points="557,-469 557,-491 797,-491 797,-469 557,-469"/>
<polygon fill="none" stroke="black" points="557,-469 557,-491 797,-491 797,-469 557,-469"/>
<text text-anchor="start" x="577" y="-477.2" font-family="Helvetica,sans-Serif" font-size="11.00">email</text>
<polygon fill="none" stroke="black" points="557,-447 557,-469 797,-469 797,-447 557,-447"/>
<image xlink:href="../../images/foreignKeys.png" width="11px" height="12px" preserveAspectRatio="xMinYMin meet" x="562" y="-464"/>
<text text-anchor="start" x="577" y="-455.2" font-family="Helvetica,sans-Serif" font-size="11.00">supervisor_id</text>
<polygon fill="#ffffff" stroke="transparent" points="557,-425 557,-447 797,-447 797,-425 557,-425"/>
<polygon fill="none" stroke="black" points="557,-425 557,-447 797,-447 797,-425 557,-425"/>
<image xlink:href="../../images/foreignKeys.png" width="11px" height="12px" preserveAspectRatio="xMinYMin meet" x="562" y="-442"/>
<text text-anchor="start" x="577" y="-433.2" font-family="Helvetica,sans-Serif" font-size="11.00">c_bpartner_id</text>
<polygon fill="none" stroke="black" points="557,-403 557,-425 797,-425 797,-403 557,-403"/>
<image xlink:href="../../images/foreignKeys.png" width="11px" height="12px" preserveAspectRatio="xMinYMin meet" x="562" y="-420"/>
<text text-anchor="start" x="577" y="-411.2" font-family="Helvetica,sans-Serif" font-size="11.00">c_bpartner_location_id</text>
<polygon fill="none" stroke="black" points="557,-381 557,-403 797,-403 797,-381 557,-381"/>
<image xlink:href="../../images/foreignKeys.png" width="11px" height="12px" preserveAspectRatio="xMinYMin meet" x="562" y="-398"/>
<text text-anchor="start" x="577" y="-389.2" font-family="Helvetica,sans-Serif" font-size="11.00">c_greeting_id</text>
<polygon fill="none" stroke="black" points="557,-359 557,-381 797,-381 797,-359 557,-359"/>
<image xlink:href="../../images/foreignKeys.png" width="11px" height="12px" preserveAspectRatio="xMinYMin meet" x="562" y="-376"/>
<text text-anchor="start" x="577" y="-367.2" font-family="Helvetica,sans-Serif" font-size="11.00">ad_orgtrx_id</text>
<polygon fill="none" stroke="black" points="557,-337 557,-359 797,-359 797,-337 557,-337"/>
<image xlink:href="../../images/foreignKeys.png" width="11px" height="12px" preserveAspectRatio="xMinYMin meet" x="562" y="-354"/>
<text text-anchor="start" x="577" y="-345.2" font-family="Helvetica,sans-Serif" font-size="11.00">c_job_id</text>
<polygon fill="#ffffff" stroke="transparent" points="557,-315 557,-337 797,-337 797,-315 557,-315"/>
<polygon fill="none" stroke="black" points="557,-315 557,-337 797,-337 797,-315 557,-315"/>
<text text-anchor="start" x="577" y="-323.2" font-family="Helvetica,sans-Serif" font-size="11.00">ad_user_uu</text>
<polygon fill="none" stroke="black" points="557,-293 557,-315 797,-315 797,-293 557,-293"/>
<image xlink:href="../../images/foreignKeys.png" width="11px" height="12px" preserveAspectRatio="xMinYMin meet" x="562" y="-310"/>
<text text-anchor="start" x="577" y="-301.2" font-family="Helvetica,sans-Serif" font-size="11.00">c_location_id</text>
<polygon fill="none" stroke="black" points="557,-271 557,-293 797,-293 797,-271 557,-271"/>
<image xlink:href="../../images/foreignKeys.png" width="11px" height="12px" preserveAspectRatio="xMinYMin meet" x="562" y="-288"/>
<text text-anchor="start" x="577" y="-279.2" font-family="Helvetica,sans-Serif" font-size="11.00">c_campaign_id</text>
<polygon fill="none" stroke="black" points="557,-249 557,-271 797,-271 797,-249 557,-249"/>
<image xlink:href="../../images/foreignKeys.png" width="11px" height="12px" preserveAspectRatio="xMinYMin meet" x="562" y="-266"/>
<text text-anchor="start" x="577" y="-257.2" font-family="Helvetica,sans-Serif" font-size="11.00">salesrep_id</text>
<polygon fill="none" stroke="black" points="557,-227 557,-249 797,-249 797,-227 557,-227"/>
<image xlink:href="../../images/foreignKeys.png" width="11px" height="12px" preserveAspectRatio="xMinYMin meet" x="562" y="-244"/>
<text text-anchor="start" x="577" y="-235.2" font-family="Helvetica,sans-Serif" font-size="11.00">bp_location_id</text>
<polygon fill="none" stroke="black" points="557,-205 557,-227 797,-227 797,-205 557,-205"/>
<image xlink:href="../../images/foreignKeys.png" width="11px" height="12px" preserveAspectRatio="xMinYMin meet" x="562" y="-222"/>
<text text-anchor="start" x="577" y="-213.2" font-family="Helvetica,sans-Serif" font-size="11.00">r_defaultmailtext_id</text>
<polygon fill="none" stroke="black" points="557,-183 557,-205 797,-205 797,-183 557,-183"/>
<image xlink:href="../../images/foreignKeys.png" width="11px" height="12px" preserveAspectRatio="xMinYMin meet" x="562" y="-200"/>
<text text-anchor="start" x="577" y="-191.2" font-family="Helvetica,sans-Serif" font-size="11.00">cof_c_marketsegment_id</text>
<polygon fill="none" stroke="black" points="557,-161 557,-183 797,-183 797,-161 557,-161"/>
<image xlink:href="../../images/foreignKeys.png" width="11px" height="12px" preserveAspectRatio="xMinYMin meet" x="562" y="-178"/>
<text text-anchor="start" x="577" y="-169.2" font-family="Helvetica,sans-Serif" font-size="11.00">cof_c_leadexpirationreason_id</text>
<polygon fill="none" stroke="black" points="557,-139 557,-161 797,-161 797,-139 557,-139"/>
<image xlink:href="../../images/foreignKeys.png" width="11px" height="12px" preserveAspectRatio="xMinYMin meet" x="562" y="-156"/>
<text text-anchor="start" x="577" y="-147.2" font-family="Helvetica,sans-Serif" font-size="11.00">ad_image_id</text>
<polygon fill="none" stroke="black" points="557,-117 557,-139 797,-139 797,-117 557,-117"/>
<image xlink:href="../../images/foreignKeys.png" width="11px" height="12px" preserveAspectRatio="xMinYMin meet" x="562" y="-134"/>
<text text-anchor="start" x="577" y="-125.2" font-family="Helvetica,sans-Serif" font-size="11.00">c_subscription_id</text>
<polygon fill="none" stroke="black" points="557,-95 557,-117 797,-117 797,-95 557,-95"/>
<image xlink:href="../../images/foreignKeys.png" width="11px" height="12px" preserveAspectRatio="xMinYMin meet" x="562" y="-112"/>
<text text-anchor="start" x="577" y="-103.2" font-family="Helvetica,sans-Serif" font-size="11.00">cof_responsavelindicacao_id</text>
<polygon fill="none" stroke="black" points="557,-73 557,-95 797,-95 797,-73 557,-73"/>
<image xlink:href="../../images/foreignKeys.png" width="11px" height="12px" preserveAspectRatio="xMinYMin meet" x="562" y="-90"/>
<text text-anchor="start" x="577" y="-81.2" font-family="Helvetica,sans-Serif" font-size="11.00">cof_respatribuicao_id</text>
<polygon fill="none" stroke="black" points="557,-55 557,-73 797,-73 797,-55 557,-55"/>
<text text-anchor="start" x="560" y="-61.2" font-family="Helvetica,sans-Serif" font-size="11.00">...</text>
<polygon fill="#ffffff" stroke="transparent" points="557,-37 557,-55 797,-55 797,-37 557,-37"/>
<polygon fill="none" stroke="black" points="557,-37 557,-55 797,-55 797,-37 557,-37"/>
<polygon fill="#ffffff" stroke="transparent" points="558,-38 558,-54 632,-54 632,-38 558,-38"/>
<text text-anchor="start" x="560" y="-43.2" font-family="Helvetica,sans-Serif" font-size="11.00">&lt; 19</text>
<polygon fill="#ffffff" stroke="transparent" points="632,-38 632,-54 717,-54 717,-38 632,-38"/>
<text text-anchor="start" x="658" y="-43.2" font-family="Helvetica,sans-Serif" font-size="11.00">8 rows</text>
<polygon fill="#ffffff" stroke="transparent" points="717,-38 717,-54 796,-54 796,-38 717,-38"/>
<text text-anchor="start" x="766" y="-43.2" font-family="Helvetica,sans-Serif" font-size="11.00">444 &gt;</text>
<polygon fill="black" stroke="black" points="632,-38 632,-54 632,-54 632,-38 632,-38"/>
<polygon fill="black" stroke="black" points="717,-38 717,-54 717,-54 717,-38 717,-38"/>
</a>
</g>
</g>
<!-- ad_importtemplate&#45;&gt;ad_user -->
<g id="edge3" class="edge">
<title>ad_importtemplate:w&#45;&gt;ad_user:e</title>
<path fill="none" stroke="black" d="M850.91,-812.8C815.03,-774.14 850.29,-568 798,-568"/>
<polygon fill="black" stroke="black" points="857.22,-815.68 863.01,-822.27 860.86,-817.34 864.5,-819 864.5,-819 864.5,-819 860.86,-817.34 865.99,-815.73 857.22,-815.68 857.22,-815.68"/>
<ellipse fill="none" stroke="black" cx="854.31" cy="-814.35" rx="3.2" ry="3.2"/>
</g>
<!-- ad_importtemplate&#45;&gt;ad_user -->
<g id="edge4" class="edge">
<title>ad_importtemplate:w&#45;&gt;ad_user:e</title>
<path fill="none" stroke="black" d="M851.45,-790.87C818.34,-754.46 845.82,-568 798,-568"/>
<polygon fill="black" stroke="black" points="857.26,-793.6 862.97,-800.26 860.88,-795.3 864.5,-797 864.5,-797 864.5,-797 860.88,-795.3 866.03,-793.74 857.26,-793.6 857.26,-793.6"/>
<ellipse fill="none" stroke="black" cx="854.36" cy="-792.24" rx="3.2" ry="3.2"/>
</g>
<!-- ad_org&#45;&gt;ad_client -->
<g id="edge11" class="edge">
<title>ad_org:w&#45;&gt;ad_client:e</title>
<path fill="none" stroke="black" d="M287.37,-624.71C268.98,-641.71 289.19,-699 254.5,-699"/>
<polygon fill="black" stroke="black" points="293.44,-622.61 302.17,-623.4 297.22,-621.31 301,-620 301,-620 301,-620 297.22,-621.31 299.83,-616.6 293.44,-622.61 293.44,-622.61"/>
<ellipse fill="none" stroke="black" cx="290.41" cy="-623.65" rx="3.2" ry="3.2"/>
</g>
<!-- ad_user&#45;&gt;ad_client -->
<g id="edge15" class="edge">
<title>ad_user:w&#45;&gt;ad_client:e</title>
<path fill="none" stroke="black" d="M541.94,-541.4C527.76,-528.16 541.65,-489.99 516,-475 430.81,-425.22 369.58,-411.58 294,-475 216.56,-539.98 355.59,-699 254.5,-699"/>
<polygon fill="black" stroke="black" points="548.4,-543.51 554.88,-549.42 552.2,-544.76 556,-546 556,-546 556,-546 552.2,-544.76 557.12,-542.58 548.4,-543.51 548.4,-543.51"/>
<ellipse fill="none" stroke="black" cx="545.36" cy="-542.52" rx="3.2" ry="3.2"/>
</g>
<!-- ad_user&#45;&gt;ad_org -->
<g id="edge16" class="edge">
<title>ad_user:w&#45;&gt;ad_org:e</title>
<path fill="none" stroke="black" d="M541.93,-527.66C512.09,-547.58 559.5,-642 509,-642"/>
<polygon fill="black" stroke="black" points="548.26,-526.02 556.91,-527.48 552.13,-525.01 556,-524 556,-524 556,-524 552.13,-525.01 555.09,-520.52 548.26,-526.02 548.26,-526.02"/>
<ellipse fill="none" stroke="black" cx="545.16" cy="-526.82" rx="3.2" ry="3.2"/>
</g>
<!-- ad_user&#45;&gt;ad_org -->
<g id="edge17" class="edge">
<title>ad_user:w&#45;&gt;ad_org:e</title>
<path fill="none" stroke="black" d="M542.82,-375.93C506.9,-415.71 564.95,-642 509,-642"/>
<polygon fill="black" stroke="black" points="548.7,-373.28 557.48,-373.28 552.35,-371.64 556,-370 556,-370 556,-370 552.35,-371.64 554.52,-366.72 548.7,-373.28 548.7,-373.28"/>
<ellipse fill="none" stroke="black" cx="545.79" cy="-374.6" rx="3.2" ry="3.2"/>
</g>
<!-- ad_importtemplateaccess -->
<g id="node5" class="node">
<title>ad_importtemplateaccess</title>
<g id="a_node5"><a xlink:href="../../tables/ad_importtemplateaccess.html" xlink:title="ad_importtemplateaccess" target="_top">
<polygon fill="#ffffff" stroke="transparent" points="1118,-479 1118,-831 1439,-831 1439,-479 1118,-479"/>
<polygon fill="#f5f5f5" stroke="transparent" points="1120.5,-807 1120.5,-829 1437.5,-829 1437.5,-807 1120.5,-807"/>
<polygon fill="none" stroke="black" points="1120.5,-807 1120.5,-829 1437.5,-829 1437.5,-807 1120.5,-807"/>
<text text-anchor="start" x="1125.5" y="-816.2" font-family="Helvetica,sans-Serif" font-weight="bold" font-size="11.00">ad_importtemplateaccess</text>
<text text-anchor="start" x="1402.5" y="-815.2" font-family="Helvetica,sans-Serif" font-size="11.00">[table]</text>
<polygon fill="none" stroke="black" points="1120.5,-785 1120.5,-807 1354.5,-807 1354.5,-785 1120.5,-785"/>
<image xlink:href="../../images/foreignKeys.png" width="11px" height="12px" preserveAspectRatio="xMinYMin meet" x="1125.5" y="-802"/>
<text text-anchor="start" x="1140.5" y="-793.2" font-family="Helvetica,sans-Serif" font-size="11.00">ad_client_id</text>
<polygon fill="none" stroke="black" points="1354.5,-785 1354.5,-807 1437.5,-807 1437.5,-785 1354.5,-785"/>
<text text-anchor="start" x="1357.5" y="-793.2" font-family="Helvetica,sans-Serif" font-size="11.00">numeric[10]</text>
<polygon fill="none" stroke="black" points="1120.5,-763 1120.5,-785 1354.5,-785 1354.5,-763 1120.5,-763"/>
<image xlink:href="../../images/primaryKeys.png" width="11px" height="12px" preserveAspectRatio="xMinYMin meet" x="1125.5" y="-780"/>
<text text-anchor="start" x="1140.5" y="-771.2" font-family="Helvetica,sans-Serif" font-size="11.00">ad_importtemplateaccess_id</text>
<polygon fill="none" stroke="black" points="1354.5,-763 1354.5,-785 1437.5,-785 1437.5,-763 1354.5,-763"/>
<text text-anchor="start" x="1357.5" y="-771.2" font-family="Helvetica,sans-Serif" font-size="11.00">numeric[10]</text>
<polygon fill="#ffffff" stroke="transparent" points="1120.5,-741 1120.5,-763 1354.5,-763 1354.5,-741 1120.5,-741"/>
<polygon fill="none" stroke="black" points="1120.5,-741 1120.5,-763 1354.5,-763 1354.5,-741 1120.5,-741"/>
<text text-anchor="start" x="1140.5" y="-749.2" font-family="Helvetica,sans-Serif" font-size="11.00">ad_importtemplateaccess_uu</text>
<polygon fill="none" stroke="black" points="1354.5,-741 1354.5,-763 1437.5,-763 1437.5,-741 1354.5,-741"/>
<text text-anchor="start" x="1357.5" y="-749.2" font-family="Helvetica,sans-Serif" font-size="11.00">varchar[36]</text>
<polygon fill="none" stroke="black" points="1120.5,-719 1120.5,-741 1354.5,-741 1354.5,-719 1120.5,-719"/>
<image xlink:href="../../images/foreignKeys.png" width="11px" height="12px" preserveAspectRatio="xMinYMin meet" x="1125.5" y="-736"/>
<text text-anchor="start" x="1140.5" y="-727.2" font-family="Helvetica,sans-Serif" font-size="11.00">ad_importtemplate_id</text>
<polygon fill="none" stroke="black" points="1354.5,-719 1354.5,-741 1437.5,-741 1437.5,-719 1354.5,-719"/>
<text text-anchor="start" x="1357.5" y="-727.2" font-family="Helvetica,sans-Serif" font-size="11.00">numeric[10]</text>
<polygon fill="none" stroke="black" points="1120.5,-697 1120.5,-719 1354.5,-719 1354.5,-697 1120.5,-697"/>
<image xlink:href="../../images/foreignKeys.png" width="11px" height="12px" preserveAspectRatio="xMinYMin meet" x="1125.5" y="-714"/>
<text text-anchor="start" x="1140.5" y="-705.2" font-family="Helvetica,sans-Serif" font-size="11.00">ad_org_id</text>
<polygon fill="none" stroke="black" points="1354.5,-697 1354.5,-719 1437.5,-719 1437.5,-697 1354.5,-697"/>
<text text-anchor="start" x="1357.5" y="-705.2" font-family="Helvetica,sans-Serif" font-size="11.00">numeric[10]</text>
<polygon fill="none" stroke="black" points="1120.5,-675 1120.5,-697 1354.5,-697 1354.5,-675 1120.5,-675"/>
<image xlink:href="../../images/foreignKeys.png" width="11px" height="12px" preserveAspectRatio="xMinYMin meet" x="1125.5" y="-692"/>
<text text-anchor="start" x="1140.5" y="-683.2" font-family="Helvetica,sans-Serif" font-size="11.00">ad_role_id</text>
<polygon fill="none" stroke="black" points="1354.5,-675 1354.5,-697 1437.5,-697 1437.5,-675 1354.5,-675"/>
<text text-anchor="start" x="1357.5" y="-683.2" font-family="Helvetica,sans-Serif" font-size="11.00">numeric[10]</text>
<polygon fill="none" stroke="black" points="1120.5,-653 1120.5,-675 1354.5,-675 1354.5,-653 1120.5,-653"/>
<text text-anchor="start" x="1140.5" y="-661.2" font-family="Helvetica,sans-Serif" font-size="11.00">created</text>
<polygon fill="none" stroke="black" points="1354.5,-653 1354.5,-675 1437.5,-675 1437.5,-653 1354.5,-653"/>
<text text-anchor="start" x="1357.5" y="-661.2" font-family="Helvetica,sans-Serif" font-size="11.00">timestamp[29,6]</text>
<polygon fill="none" stroke="black" points="1120.5,-631 1120.5,-653 1354.5,-653 1354.5,-631 1120.5,-631"/>
<image xlink:href="../../images/foreignKeys.png" width="11px" height="12px" preserveAspectRatio="xMinYMin meet" x="1125.5" y="-648"/>
<text text-anchor="start" x="1140.5" y="-639.2" font-family="Helvetica,sans-Serif" font-size="11.00">createdby</text>
<polygon fill="none" stroke="black" points="1354.5,-631 1354.5,-653 1437.5,-653 1437.5,-631 1354.5,-631"/>
<text text-anchor="start" x="1357.5" y="-639.2" font-family="Helvetica,sans-Serif" font-size="11.00">numeric[10]</text>
<polygon fill="none" stroke="black" points="1120.5,-609 1120.5,-631 1354.5,-631 1354.5,-609 1120.5,-609"/>
<text text-anchor="start" x="1140.5" y="-617.2" font-family="Helvetica,sans-Serif" font-size="11.00">isactive</text>
<polygon fill="none" stroke="black" points="1354.5,-609 1354.5,-631 1437.5,-631 1437.5,-609 1354.5,-609"/>
<text text-anchor="start" x="1357.5" y="-617.2" font-family="Helvetica,sans-Serif" font-size="11.00">bpchar[1]</text>
<polygon fill="none" stroke="black" points="1120.5,-587 1120.5,-609 1354.5,-609 1354.5,-587 1120.5,-587"/>
<text text-anchor="start" x="1140.5" y="-595.2" font-family="Helvetica,sans-Serif" font-size="11.00">isallowinsert</text>
<polygon fill="none" stroke="black" points="1354.5,-587 1354.5,-609 1437.5,-609 1437.5,-587 1354.5,-587"/>
<text text-anchor="start" x="1357.5" y="-595.2" font-family="Helvetica,sans-Serif" font-size="11.00">bpchar[1]</text>
<polygon fill="none" stroke="black" points="1120.5,-565 1120.5,-587 1354.5,-587 1354.5,-565 1120.5,-565"/>
<text text-anchor="start" x="1140.5" y="-573.2" font-family="Helvetica,sans-Serif" font-size="11.00">isallowmerge</text>
<polygon fill="none" stroke="black" points="1354.5,-565 1354.5,-587 1437.5,-587 1437.5,-565 1354.5,-565"/>
<text text-anchor="start" x="1357.5" y="-573.2" font-family="Helvetica,sans-Serif" font-size="11.00">bpchar[1]</text>
<polygon fill="none" stroke="black" points="1120.5,-543 1120.5,-565 1354.5,-565 1354.5,-543 1120.5,-543"/>
<text text-anchor="start" x="1140.5" y="-551.2" font-family="Helvetica,sans-Serif" font-size="11.00">isallowupdate</text>
<polygon fill="none" stroke="black" points="1354.5,-543 1354.5,-565 1437.5,-565 1437.5,-543 1354.5,-543"/>
<text text-anchor="start" x="1357.5" y="-551.2" font-family="Helvetica,sans-Serif" font-size="11.00">bpchar[1]</text>
<polygon fill="none" stroke="black" points="1120.5,-521 1120.5,-543 1354.5,-543 1354.5,-521 1120.5,-521"/>
<text text-anchor="start" x="1140.5" y="-529.2" font-family="Helvetica,sans-Serif" font-size="11.00">updated</text>
<polygon fill="none" stroke="black" points="1354.5,-521 1354.5,-543 1437.5,-543 1437.5,-521 1354.5,-521"/>
<text text-anchor="start" x="1357.5" y="-529.2" font-family="Helvetica,sans-Serif" font-size="11.00">timestamp[29,6]</text>
<polygon fill="none" stroke="black" points="1120.5,-499 1120.5,-521 1354.5,-521 1354.5,-499 1120.5,-499"/>
<image xlink:href="../../images/foreignKeys.png" width="11px" height="12px" preserveAspectRatio="xMinYMin meet" x="1125.5" y="-516"/>
<text text-anchor="start" x="1140.5" y="-507.2" font-family="Helvetica,sans-Serif" font-size="11.00">updatedby</text>
<polygon fill="none" stroke="black" points="1354.5,-499 1354.5,-521 1437.5,-521 1437.5,-499 1354.5,-499"/>
<text text-anchor="start" x="1357.5" y="-507.2" font-family="Helvetica,sans-Serif" font-size="11.00">numeric[10]</text>
<polygon fill="#ffffff" stroke="transparent" points="1120.5,-481 1120.5,-499 1437.5,-499 1437.5,-481 1120.5,-481"/>
<polygon fill="none" stroke="black" points="1120.5,-481 1120.5,-499 1437.5,-499 1437.5,-481 1120.5,-481"/>
<polygon fill="#ffffff" stroke="transparent" points="1121.5,-482 1121.5,-498 1222.5,-498 1222.5,-482 1121.5,-482"/>
<text text-anchor="start" x="1123.5" y="-487.2" font-family="Helvetica,sans-Serif" font-size="11.00">&lt; 6</text>
<polygon fill="#ffffff" stroke="transparent" points="1222.5,-482 1222.5,-498 1335.5,-498 1335.5,-482 1222.5,-482"/>
<text text-anchor="start" x="1265" y="-487.2" font-family="Helvetica,sans-Serif" font-size="11.00">1 row</text>
<polygon fill="#ffffff" stroke="transparent" points="1335.5,-482 1335.5,-498 1436.5,-498 1436.5,-482 1335.5,-482"/>
<text text-anchor="start" x="1418.5" y="-487.2" font-family="Helvetica,sans-Serif" font-size="11.00">0 &gt;</text>
<polygon fill="black" stroke="black" points="1222.5,-482 1222.5,-498 1222.5,-498 1222.5,-482 1222.5,-482"/>
<polygon fill="black" stroke="black" points="1335.5,-482 1335.5,-498 1335.5,-498 1335.5,-482 1335.5,-482"/>
<polygon fill="none" stroke="black" stroke-width="2" points="1119,-480 1119,-830 1438,-830 1438,-480 1119,-480"/>
</a>
</g>
</g>
<!-- ad_importtemplateaccess&#45;&gt;ad_importtemplate -->
<g id="edge6" class="edge">
<title>ad_importtemplateaccess:w&#45;&gt;ad_importtemplate:e</title>
<path fill="none" stroke="black" d="M1105.17,-731.97C1039.24,-752.64 1139.49,-929 1051.5,-929"/>
<polygon fill="black" stroke="black" points="1111.57,-731.09 1119.99,-733.57 1115.54,-730.54 1119.5,-730 1119.5,-730 1119.5,-730 1115.54,-730.54 1119.01,-726.43 1111.57,-731.09 1111.57,-731.09"/>
<ellipse fill="none" stroke="black" cx="1108.4" cy="-731.53" rx="3.2" ry="3.2"/>
</g>
<!-- ad_importtemplateaccess&#45;&gt;ad_client -->
<g id="edge5" class="edge">
<title>ad_importtemplateaccess:w&#45;&gt;ad_client:e</title>
<path fill="none" stroke="black" d="M1104.89,-797.61C1043.11,-813.43 1142.92,-941.67 1077,-995 994.42,-1061.81 942.59,-1013.58 838,-995 578.86,-948.97 489.36,-937.38 294,-761 269.75,-739.11 287.17,-699 254.5,-699"/>
<polygon fill="black" stroke="black" points="1111.55,-796.88 1119.89,-799.58 1115.52,-796.44 1119.5,-796 1119.5,-796 1119.5,-796 1115.52,-796.44 1119.11,-792.42 1111.55,-796.88 1111.55,-796.88"/>
<ellipse fill="none" stroke="black" cx="1108.37" cy="-797.23" rx="3.2" ry="3.2"/>
</g>
<!-- ad_importtemplateaccess&#45;&gt;ad_org -->
<g id="edge7" class="edge">
<title>ad_importtemplateaccess:w&#45;&gt;ad_org:e</title>
<path fill="none" stroke="black" d="M1105.04,-708.94C1096.26,-710.16 1090.05,-712.23 1077,-713 970.96,-719.22 943.62,-724.27 838,-713 689.26,-697.13 658.59,-642 509,-642"/>
<polygon fill="black" stroke="black" points="1111.52,-708.52 1119.73,-711.59 1115.51,-708.26 1119.5,-708 1119.5,-708 1119.5,-708 1115.51,-708.26 1119.27,-704.41 1111.52,-708.52 1111.52,-708.52"/>
<ellipse fill="none" stroke="black" cx="1108.32" cy="-708.72" rx="3.2" ry="3.2"/>
</g>
<!-- ad_importtemplateaccess&#45;&gt;ad_user -->
<g id="edge9" class="edge">
<title>ad_importtemplateaccess:w&#45;&gt;ad_user:e</title>
<path fill="none" stroke="black" d="M1104.85,-640.22C1049.41,-624.36 1138.2,-506.67 1077,-458 1035.43,-424.94 881.5,-427.53 838,-458 795.39,-487.84 850.02,-568 798,-568"/>
<polygon fill="black" stroke="black" points="1111.56,-641.04 1119.07,-645.57 1115.53,-641.52 1119.5,-642 1119.5,-642 1119.5,-642 1115.53,-641.52 1119.93,-638.43 1111.56,-641.04 1111.56,-641.04"/>
<ellipse fill="none" stroke="black" cx="1108.38" cy="-640.65" rx="3.2" ry="3.2"/>
</g>
<!-- ad_importtemplateaccess&#45;&gt;ad_user -->
<g id="edge10" class="edge">
<title>ad_importtemplateaccess:w&#45;&gt;ad_user:e</title>
<path fill="none" stroke="black" d="M1105.52,-506.08C1087.9,-492.63 1105.88,-448.26 1077,-431 985.82,-376.51 922.99,-367.28 838,-431 787.25,-469.05 861.43,-568 798,-568"/>
<polygon fill="black" stroke="black" points="1111.8,-507.84 1118.53,-513.47 1115.65,-508.92 1119.5,-510 1119.5,-510 1119.5,-510 1115.65,-508.92 1120.47,-506.53 1111.8,-507.84 1111.8,-507.84"/>
<ellipse fill="none" stroke="black" cx="1108.72" cy="-506.98" rx="3.2" ry="3.2"/>
</g>
<!-- ad_role -->
<g id="node6" class="node">
<title>ad_role</title>
<g id="a_node6"><a xlink:href="../../tables/ad_role.html" xlink:title="ad_role" target="_top">
<polygon fill="#ffffff" stroke="transparent" points="846,-468 846,-702 1069,-702 1069,-468 846,-468"/>
<polygon fill="#f5f5f5" stroke="transparent" points="846.5,-680 846.5,-702 1069.5,-702 1069.5,-680 846.5,-680"/>
<polygon fill="none" stroke="black" points="846.5,-680 846.5,-702 1069.5,-702 1069.5,-680 846.5,-680"/>
<text text-anchor="start" x="851.5" y="-689.2" font-family="Helvetica,sans-Serif" font-weight="bold" font-size="11.00">ad_role</text>
<text text-anchor="start" x="1034.5" y="-688.2" font-family="Helvetica,sans-Serif" font-size="11.00">[table]</text>
<polygon fill="none" stroke="black" points="846.5,-658 846.5,-680 1069.5,-680 1069.5,-658 846.5,-658"/>
<image xlink:href="../../images/primaryKeys.png" width="11px" height="12px" preserveAspectRatio="xMinYMin meet" x="851.5" y="-675"/>
<text text-anchor="start" x="866.5" y="-666.2" font-family="Helvetica,sans-Serif" font-size="11.00">ad_role_id</text>
<polygon fill="none" stroke="black" points="846.5,-636 846.5,-658 1069.5,-658 1069.5,-636 846.5,-636"/>
<image xlink:href="../../images/foreignKeys.png" width="11px" height="12px" preserveAspectRatio="xMinYMin meet" x="851.5" y="-653"/>
<text text-anchor="start" x="866.5" y="-644.2" font-family="Helvetica,sans-Serif" font-size="11.00">ad_client_id</text>
<polygon fill="none" stroke="black" points="846.5,-614 846.5,-636 1069.5,-636 1069.5,-614 846.5,-614"/>
<image xlink:href="../../images/foreignKeys.png" width="11px" height="12px" preserveAspectRatio="xMinYMin meet" x="851.5" y="-631"/>
<text text-anchor="start" x="866.5" y="-622.2" font-family="Helvetica,sans-Serif" font-size="11.00">ad_org_id</text>
<polygon fill="none" stroke="black" points="846.5,-592 846.5,-614 1069.5,-614 1069.5,-592 846.5,-592"/>
<image xlink:href="../../images/foreignKeys.png" width="11px" height="12px" preserveAspectRatio="xMinYMin meet" x="851.5" y="-609"/>
<text text-anchor="start" x="866.5" y="-600.2" font-family="Helvetica,sans-Serif" font-size="11.00">c_currency_id</text>
<polygon fill="none" stroke="black" points="846.5,-570 846.5,-592 1069.5,-592 1069.5,-570 846.5,-570"/>
<image xlink:href="../../images/foreignKeys.png" width="11px" height="12px" preserveAspectRatio="xMinYMin meet" x="851.5" y="-587"/>
<text text-anchor="start" x="866.5" y="-578.2" font-family="Helvetica,sans-Serif" font-size="11.00">ad_tree_menu_id</text>
<polygon fill="none" stroke="black" points="846.5,-548 846.5,-570 1069.5,-570 1069.5,-548 846.5,-548"/>
<image xlink:href="../../images/foreignKeys.png" width="11px" height="12px" preserveAspectRatio="xMinYMin meet" x="851.5" y="-565"/>
<text text-anchor="start" x="866.5" y="-556.2" font-family="Helvetica,sans-Serif" font-size="11.00">supervisor_id</text>
<polygon fill="none" stroke="black" points="846.5,-526 846.5,-548 1069.5,-548 1069.5,-526 846.5,-526"/>
<image xlink:href="../../images/foreignKeys.png" width="11px" height="12px" preserveAspectRatio="xMinYMin meet" x="851.5" y="-543"/>
<text text-anchor="start" x="866.5" y="-534.2" font-family="Helvetica,sans-Serif" font-size="11.00">ad_tree_org_id</text>
<polygon fill="#ffffff" stroke="transparent" points="846.5,-504 846.5,-526 1069.5,-526 1069.5,-504 846.5,-504"/>
<polygon fill="none" stroke="black" points="846.5,-504 846.5,-526 1069.5,-526 1069.5,-504 846.5,-504"/>
<text text-anchor="start" x="866.5" y="-512.2" font-family="Helvetica,sans-Serif" font-size="11.00">ad_role_uu</text>
<polygon fill="none" stroke="black" points="846.5,-486 846.5,-504 1069.5,-504 1069.5,-486 846.5,-486"/>
<text text-anchor="start" x="849.5" y="-492.2" font-family="Helvetica,sans-Serif" font-size="11.00">...</text>
<polygon fill="#ffffff" stroke="transparent" points="846.5,-468 846.5,-486 1069.5,-486 1069.5,-468 846.5,-468"/>
<polygon fill="none" stroke="black" points="846.5,-468 846.5,-486 1069.5,-486 1069.5,-468 846.5,-468"/>
<polygon fill="#ffffff" stroke="transparent" points="847.5,-469 847.5,-485 911.5,-485 911.5,-469 847.5,-469"/>
<text text-anchor="start" x="849.5" y="-474.2" font-family="Helvetica,sans-Serif" font-size="11.00">&lt; 6</text>
<polygon fill="#ffffff" stroke="transparent" points="911.5,-469 911.5,-485 998.5,-485 998.5,-469 911.5,-469"/>
<text text-anchor="start" x="935.5" y="-474.2" font-family="Helvetica,sans-Serif" font-size="11.00">13 rows</text>
<polygon fill="#ffffff" stroke="transparent" points="998.5,-469 998.5,-485 1068.5,-485 1068.5,-469 998.5,-469"/>
<text text-anchor="start" x="1044.5" y="-474.2" font-family="Helvetica,sans-Serif" font-size="11.00">45 &gt;</text>
<polygon fill="black" stroke="black" points="911.5,-469 911.5,-485 911.5,-485 911.5,-469 911.5,-469"/>
<polygon fill="black" stroke="black" points="998.5,-469 998.5,-485 998.5,-485 998.5,-469 998.5,-469"/>
</a>
</g>
</g>
<!-- ad_importtemplateaccess&#45;&gt;ad_role -->
<g id="edge8" class="edge">
<title>ad_importtemplateaccess:w&#45;&gt;ad_role:e</title>
<path fill="none" stroke="black" d="M1105,-683.19C1093.62,-678.36 1087.61,-669 1070.5,-669"/>
<polygon fill="black" stroke="black" points="1111.65,-684.48 1118.82,-689.53 1115.57,-685.24 1119.5,-686 1119.5,-686 1119.5,-686 1115.57,-685.24 1120.18,-682.47 1111.65,-684.48 1111.65,-684.48"/>
<ellipse fill="none" stroke="black" cx="1108.5" cy="-683.87" rx="3.2" ry="3.2"/>
</g>
<!-- ad_role&#45;&gt;ad_client -->
<g id="edge12" class="edge">
<title>ad_role:w&#45;&gt;ad_client:e</title>
<path fill="none" stroke="black" d="M830.76,-647.09C695.5,-648.81 657.93,-674.09 516,-686 400.04,-695.73 370.87,-699 254.5,-699"/>
<polygon fill="black" stroke="black" points="837.5,-647.05 845.52,-650.6 841.5,-647.02 845.5,-647 845.5,-647 845.5,-647 841.5,-647.02 845.48,-643.4 837.5,-647.05 837.5,-647.05"/>
<ellipse fill="none" stroke="black" cx="834.3" cy="-647.07" rx="3.2" ry="3.2"/>
</g>
<!-- ad_role&#45;&gt;ad_org -->
<g id="edge13" class="edge">
<title>ad_role:w&#45;&gt;ad_org:e</title>
<path fill="none" stroke="black" d="M830.95,-625.05C693.17,-626.11 653.77,-642 509,-642"/>
<polygon fill="black" stroke="black" points="837.5,-625.03 845.51,-628.6 841.5,-625.02 845.5,-625 845.5,-625 845.5,-625 841.5,-625.02 845.49,-621.4 837.5,-625.03 837.5,-625.03"/>
<ellipse fill="none" stroke="black" cx="834.3" cy="-625.04" rx="3.2" ry="3.2"/>
</g>
<!-- ad_role&#45;&gt;ad_user -->
<g id="edge14" class="edge">
<title>ad_role:w&#45;&gt;ad_user:e</title>
<path fill="none" stroke="black" d="M830.98,-560.65C820.27,-563.25 813.61,-568 798,-568"/>
<polygon fill="black" stroke="black" points="837.55,-559.9 845.91,-562.58 841.53,-559.45 845.5,-559 845.5,-559 845.5,-559 841.53,-559.45 845.09,-555.42 837.55,-559.9 837.55,-559.9"/>
<ellipse fill="none" stroke="black" cx="834.37" cy="-560.27" rx="3.2" ry="3.2"/>
</g>
</g>
</svg>
