<?xml version="1.0" encoding="UTF-8" standalone="no"?>
<!DOCTYPE svg PUBLIC "-//W3C//DTD SVG 1.1//EN"
 "http://www.w3.org/Graphics/SVG/1.1/DTD/svg11.dtd">
<!-- Generated by graphviz version 2.43.0 (0)
 -->
<!-- Title: oneDegreeRelationshipsDiagram Pages: 1 -->
<svg width="452pt" height="197pt"
 viewBox="0.00 0.00 452.00 197.00" xmlns="http://www.w3.org/2000/svg" xmlns:xlink="http://www.w3.org/1999/xlink">
<g id="graph0" class="graph" transform="scale(1 1) rotate(0) translate(4 193)">
<title>oneDegreeRelationshipsDiagram</title>
<polygon fill="#ffffff" stroke="transparent" points="-4,4 -4,-193 448,-193 448,4 -4,4"/>
<text text-anchor="middle" x="71.5" y="-7.2" font-family="Helvetica,sans-Serif" font-size="11.00">Generated by SchemaSpy</text>
<!-- ad_image_blob -->
<g id="node1" class="node">
<title>ad_image_blob</title>
<g id="a_node1"><a xlink:href="../../tables/ad_image_blob.html" xlink:title="ad_image_blob" target="_top">
<polygon fill="#ffffff" stroke="transparent" points="241,-97 241,-185 436,-185 436,-97 241,-97"/>
<polygon fill="#f5f5f5" stroke="transparent" points="243.5,-161 243.5,-183 434.5,-183 434.5,-161 243.5,-161"/>
<polygon fill="none" stroke="black" points="243.5,-161 243.5,-183 434.5,-183 434.5,-161 243.5,-161"/>
<text text-anchor="start" x="248.5" y="-170.2" font-family="Helvetica,sans-Serif" font-weight="bold" font-size="11.00">ad_image_blob</text>
<text text-anchor="start" x="399.5" y="-169.2" font-family="Helvetica,sans-Serif" font-size="11.00">[table]</text>
<polygon fill="#ffffff" stroke="transparent" points="243.5,-139 243.5,-161 371.5,-161 371.5,-139 243.5,-139"/>
<polygon fill="none" stroke="black" points="243.5,-139 243.5,-161 371.5,-161 371.5,-139 243.5,-139"/>
<image xlink:href="../../images/foreignKeys.png" width="11px" height="12px" preserveAspectRatio="xMinYMin meet" x="248.5" y="-156"/>
<text text-anchor="start" x="263.5" y="-147.2" font-family="Helvetica,sans-Serif" font-size="11.00">ad_image_id</text>
<polygon fill="none" stroke="black" points="371.5,-139 371.5,-161 434.5,-161 434.5,-139 371.5,-139"/>
<text text-anchor="start" x="374.5" y="-147.2" font-family="Helvetica,sans-Serif" font-size="11.00">numeric[10]</text>
<polygon fill="none" stroke="black" points="243.5,-117 243.5,-139 371.5,-139 371.5,-117 243.5,-117"/>
<text text-anchor="start" x="263.5" y="-125.2" font-family="Helvetica,sans-Serif" font-size="11.00">binarydata</text>
<polygon fill="none" stroke="black" points="371.5,-117 371.5,-139 434.5,-139 434.5,-117 371.5,-117"/>
<text text-anchor="start" x="374.5" y="-125.2" font-family="Helvetica,sans-Serif" font-size="11.00">oid[10]</text>
<polygon fill="#ffffff" stroke="transparent" points="243.5,-99 243.5,-117 434.5,-117 434.5,-99 243.5,-99"/>
<polygon fill="none" stroke="black" points="243.5,-99 243.5,-117 434.5,-117 434.5,-99 243.5,-99"/>
<polygon fill="#ffffff" stroke="transparent" points="244.5,-100 244.5,-116 310.5,-116 310.5,-100 244.5,-100"/>
<text text-anchor="start" x="246.5" y="-105.2" font-family="Helvetica,sans-Serif" font-size="11.00">&lt; 1</text>
<polygon fill="#ffffff" stroke="transparent" points="310.5,-100 310.5,-116 367.5,-116 367.5,-100 310.5,-100"/>
<text text-anchor="start" x="335.5" y="-105.2" font-family="Helvetica,sans-Serif" font-size="11.00"> &#160;</text>
<polygon fill="#ffffff" stroke="transparent" points="367.5,-100 367.5,-116 433.5,-116 433.5,-100 367.5,-100"/>
<text text-anchor="start" x="415.5" y="-105.2" font-family="Helvetica,sans-Serif" font-size="11.00">0 &gt;</text>
<polygon fill="black" stroke="black" points="310.5,-100 310.5,-116 310.5,-116 310.5,-100 310.5,-100"/>
<polygon fill="black" stroke="black" points="367.5,-100 367.5,-116 367.5,-116 367.5,-100 367.5,-100"/>
<polygon fill="none" stroke="black" stroke-width="2" points="242,-98 242,-184 435,-184 435,-98 242,-98"/>
</a>
</g>
</g>
<!-- ad_image -->
<g id="node2" class="node">
<title>ad_image</title>
<g id="a_node2"><a xlink:href="../../tables/ad_image.html" xlink:title="ad_image" target="_top">
<polygon fill="#ffffff" stroke="transparent" points="8,-37 8,-183 192,-183 192,-37 8,-37"/>
<polygon fill="#f5f5f5" stroke="transparent" points="8,-161 8,-183 192,-183 192,-161 8,-161"/>
<polygon fill="none" stroke="black" points="8,-161 8,-183 192,-183 192,-161 8,-161"/>
<text text-anchor="start" x="13" y="-170.2" font-family="Helvetica,sans-Serif" font-weight="bold" font-size="11.00">ad_image</text>
<text text-anchor="start" x="157" y="-169.2" font-family="Helvetica,sans-Serif" font-size="11.00">[table]</text>
<polygon fill="none" stroke="black" points="8,-139 8,-161 192,-161 192,-139 8,-139"/>
<image xlink:href="../../images/primaryKeys.png" width="11px" height="12px" preserveAspectRatio="xMinYMin meet" x="13" y="-156"/>
<text text-anchor="start" x="28" y="-147.2" font-family="Helvetica,sans-Serif" font-size="11.00">ad_image_id</text>
<polygon fill="none" stroke="black" points="8,-117 8,-139 192,-139 192,-117 8,-117"/>
<image xlink:href="../../images/foreignKeys.png" width="11px" height="12px" preserveAspectRatio="xMinYMin meet" x="13" y="-134"/>
<text text-anchor="start" x="28" y="-125.2" font-family="Helvetica,sans-Serif" font-size="11.00">entitytype</text>
<polygon fill="#ffffff" stroke="transparent" points="8,-95 8,-117 192,-117 192,-95 8,-95"/>
<polygon fill="none" stroke="black" points="8,-95 8,-117 192,-117 192,-95 8,-95"/>
<text text-anchor="start" x="28" y="-103.2" font-family="Helvetica,sans-Serif" font-size="11.00">ad_image_uu</text>
<polygon fill="none" stroke="black" points="8,-73 8,-95 192,-95 192,-73 8,-73"/>
<image xlink:href="../../images/foreignKeys.png" width="11px" height="12px" preserveAspectRatio="xMinYMin meet" x="13" y="-90"/>
<text text-anchor="start" x="28" y="-81.2" font-family="Helvetica,sans-Serif" font-size="11.00">ad_storageprovider_id</text>
<polygon fill="none" stroke="black" points="8,-55 8,-73 192,-73 192,-55 8,-55"/>
<text text-anchor="start" x="11" y="-61.2" font-family="Helvetica,sans-Serif" font-size="11.00">...</text>
<polygon fill="#ffffff" stroke="transparent" points="8,-37 8,-55 192,-55 192,-37 8,-37"/>
<polygon fill="none" stroke="black" points="8,-37 8,-55 192,-55 192,-37 8,-37"/>
<polygon fill="#ffffff" stroke="transparent" points="9,-38 9,-54 60,-54 60,-38 9,-38"/>
<text text-anchor="start" x="11" y="-43.2" font-family="Helvetica,sans-Serif" font-size="11.00">&lt; 2</text>
<polygon fill="#ffffff" stroke="transparent" points="60,-38 60,-54 134,-54 134,-38 60,-38"/>
<text text-anchor="start" x="77.5" y="-43.2" font-family="Helvetica,sans-Serif" font-size="11.00">15 rows</text>
<polygon fill="#ffffff" stroke="transparent" points="134,-38 134,-54 191,-54 191,-38 134,-38"/>
<text text-anchor="start" x="167" y="-43.2" font-family="Helvetica,sans-Serif" font-size="11.00">26 &gt;</text>
<polygon fill="black" stroke="black" points="60,-38 60,-54 60,-54 60,-38 60,-38"/>
<polygon fill="black" stroke="black" points="134,-38 134,-54 134,-54 134,-38 134,-38"/>
</a>
</g>
</g>
<!-- ad_image_blob&#45;&gt;ad_image -->
<g id="edge1" class="edge">
<title>ad_image_blob:w&#45;&gt;ad_image:e</title>
<path fill="none" stroke="black" d="M232.05,-150C217.99,-150 211.05,-150 193,-150"/>
<polygon fill="black" stroke="black" points="241.7,-146 241.7,-154 240.1,-154 240.1,-146 241.7,-146"/>
<polyline fill="none" stroke="black" points="242.5,-150 238.5,-150 "/>
<ellipse fill="none" stroke="black" cx="235.3" cy="-150" rx="3.2" ry="3.2"/>
</g>
</g>
</svg>
