<?xml version="1.0" encoding="UTF-8" standalone="no"?>
<!DOCTYPE svg PUBLIC "-//W3C//DTD SVG 1.1//EN"
 "http://www.w3.org/Graphics/SVG/1.1/DTD/svg11.dtd">
<!-- Generated by graphviz version 2.43.0 (0)
 -->
<!-- Title: oneDegreeRelationshipsDiagram Pages: 1 -->
<svg width="939pt" height="598pt"
 viewBox="0.00 0.00 939.00 598.00" xmlns="http://www.w3.org/2000/svg" xmlns:xlink="http://www.w3.org/1999/xlink">
<g id="graph0" class="graph" transform="scale(1 1) rotate(0) translate(4 594)">
<title>oneDegreeRelationshipsDiagram</title>
<polygon fill="#ffffff" stroke="transparent" points="-4,4 -4,-594 935,-594 935,4 -4,4"/>
<text text-anchor="middle" x="71.5" y="-7.2" font-family="Helvetica,sans-Serif" font-size="11.00">Generated by SchemaSpy</text>
<!-- ad_label -->
<g id="node1" class="node">
<title>ad_label</title>
<g id="a_node1"><a xlink:href="../../tables/ad_label.html" xlink:title="ad_label" target="_top">
<polygon fill="#ffffff" stroke="transparent" points="430,-108 430,-438 683,-438 683,-108 430,-108"/>
<polygon fill="#f5f5f5" stroke="transparent" points="432.5,-414 432.5,-436 681.5,-436 681.5,-414 432.5,-414"/>
<polygon fill="none" stroke="black" points="432.5,-414 432.5,-436 681.5,-436 681.5,-414 432.5,-414"/>
<text text-anchor="start" x="437.5" y="-423.2" font-family="Helvetica,sans-Serif" font-weight="bold" font-size="11.00">ad_label</text>
<text text-anchor="start" x="646.5" y="-422.2" font-family="Helvetica,sans-Serif" font-size="11.00">[table]</text>
<polygon fill="none" stroke="black" points="432.5,-392 432.5,-414 598.5,-414 598.5,-392 432.5,-392"/>
<image xlink:href="../../images/primaryKeys.png" width="11px" height="12px" preserveAspectRatio="xMinYMin meet" x="437.5" y="-409"/>
<text text-anchor="start" x="452.5" y="-400.2" font-family="Helvetica,sans-Serif" font-size="11.00">ad_label_id</text>
<polygon fill="none" stroke="black" points="598.5,-392 598.5,-414 681.5,-414 681.5,-392 598.5,-392"/>
<text text-anchor="start" x="601.5" y="-400.2" font-family="Helvetica,sans-Serif" font-size="11.00">numeric[10]</text>
<polygon fill="#ffffff" stroke="transparent" points="432.5,-370 432.5,-392 598.5,-392 598.5,-370 432.5,-370"/>
<polygon fill="none" stroke="black" points="432.5,-370 432.5,-392 598.5,-392 598.5,-370 432.5,-370"/>
<text text-anchor="start" x="452.5" y="-378.2" font-family="Helvetica,sans-Serif" font-size="11.00">ad_label_uu</text>
<polygon fill="none" stroke="black" points="598.5,-370 598.5,-392 681.5,-392 681.5,-370 598.5,-370"/>
<text text-anchor="start" x="601.5" y="-378.2" font-family="Helvetica,sans-Serif" font-size="11.00">varchar[36]</text>
<polygon fill="none" stroke="black" points="432.5,-348 432.5,-370 598.5,-370 598.5,-348 432.5,-348"/>
<text text-anchor="start" x="452.5" y="-356.2" font-family="Helvetica,sans-Serif" font-size="11.00">ad_client_id</text>
<polygon fill="none" stroke="black" points="598.5,-348 598.5,-370 681.5,-370 681.5,-348 598.5,-348"/>
<text text-anchor="start" x="601.5" y="-356.2" font-family="Helvetica,sans-Serif" font-size="11.00">numeric[10]</text>
<polygon fill="none" stroke="black" points="432.5,-326 432.5,-348 598.5,-348 598.5,-326 432.5,-326"/>
<text text-anchor="start" x="452.5" y="-334.2" font-family="Helvetica,sans-Serif" font-size="11.00">ad_org_id</text>
<polygon fill="none" stroke="black" points="598.5,-326 598.5,-348 681.5,-348 681.5,-326 598.5,-326"/>
<text text-anchor="start" x="601.5" y="-334.2" font-family="Helvetica,sans-Serif" font-size="11.00">numeric[10]</text>
<polygon fill="none" stroke="black" points="432.5,-304 432.5,-326 598.5,-326 598.5,-304 432.5,-304"/>
<text text-anchor="start" x="452.5" y="-312.2" font-family="Helvetica,sans-Serif" font-size="11.00">created</text>
<polygon fill="none" stroke="black" points="598.5,-304 598.5,-326 681.5,-326 681.5,-304 598.5,-304"/>
<text text-anchor="start" x="601.5" y="-312.2" font-family="Helvetica,sans-Serif" font-size="11.00">timestamp[29,6]</text>
<polygon fill="none" stroke="black" points="432.5,-282 432.5,-304 598.5,-304 598.5,-282 432.5,-282"/>
<text text-anchor="start" x="452.5" y="-290.2" font-family="Helvetica,sans-Serif" font-size="11.00">createdby</text>
<polygon fill="none" stroke="black" points="598.5,-282 598.5,-304 681.5,-304 681.5,-282 598.5,-282"/>
<text text-anchor="start" x="601.5" y="-290.2" font-family="Helvetica,sans-Serif" font-size="11.00">numeric[10]</text>
<polygon fill="none" stroke="black" points="432.5,-260 432.5,-282 598.5,-282 598.5,-260 432.5,-260"/>
<text text-anchor="start" x="452.5" y="-268.2" font-family="Helvetica,sans-Serif" font-size="11.00">updated</text>
<polygon fill="none" stroke="black" points="598.5,-260 598.5,-282 681.5,-282 681.5,-260 598.5,-260"/>
<text text-anchor="start" x="601.5" y="-268.2" font-family="Helvetica,sans-Serif" font-size="11.00">timestamp[29,6]</text>
<polygon fill="none" stroke="black" points="432.5,-238 432.5,-260 598.5,-260 598.5,-238 432.5,-238"/>
<text text-anchor="start" x="452.5" y="-246.2" font-family="Helvetica,sans-Serif" font-size="11.00">updatedby</text>
<polygon fill="none" stroke="black" points="598.5,-238 598.5,-260 681.5,-260 681.5,-238 598.5,-238"/>
<text text-anchor="start" x="601.5" y="-246.2" font-family="Helvetica,sans-Serif" font-size="11.00">numeric[10]</text>
<polygon fill="none" stroke="black" points="432.5,-216 432.5,-238 598.5,-238 598.5,-216 432.5,-216"/>
<text text-anchor="start" x="452.5" y="-224.2" font-family="Helvetica,sans-Serif" font-size="11.00">isactive</text>
<polygon fill="none" stroke="black" points="598.5,-216 598.5,-238 681.5,-238 681.5,-216 598.5,-216"/>
<text text-anchor="start" x="601.5" y="-224.2" font-family="Helvetica,sans-Serif" font-size="11.00">bpchar[1]</text>
<polygon fill="none" stroke="black" points="432.5,-194 432.5,-216 598.5,-216 598.5,-194 432.5,-194"/>
<text text-anchor="start" x="452.5" y="-202.2" font-family="Helvetica,sans-Serif" font-size="11.00">description</text>
<polygon fill="none" stroke="black" points="598.5,-194 598.5,-216 681.5,-216 681.5,-194 598.5,-194"/>
<text text-anchor="start" x="601.5" y="-202.2" font-family="Helvetica,sans-Serif" font-size="11.00">varchar[255]</text>
<polygon fill="none" stroke="black" points="432.5,-172 432.5,-194 598.5,-194 598.5,-172 432.5,-172"/>
<text text-anchor="start" x="452.5" y="-180.2" font-family="Helvetica,sans-Serif" font-size="11.00">name</text>
<polygon fill="none" stroke="black" points="598.5,-172 598.5,-194 681.5,-194 681.5,-172 598.5,-172"/>
<text text-anchor="start" x="601.5" y="-180.2" font-family="Helvetica,sans-Serif" font-size="11.00">varchar[60]</text>
<polygon fill="none" stroke="black" points="432.5,-150 432.5,-172 598.5,-172 598.5,-150 432.5,-150"/>
<image xlink:href="../../images/foreignKeys.png" width="11px" height="12px" preserveAspectRatio="xMinYMin meet" x="437.5" y="-167"/>
<text text-anchor="start" x="452.5" y="-158.2" font-family="Helvetica,sans-Serif" font-size="11.00">ad_labelcategory_id</text>
<polygon fill="none" stroke="black" points="598.5,-150 598.5,-172 681.5,-172 681.5,-150 598.5,-150"/>
<text text-anchor="start" x="601.5" y="-158.2" font-family="Helvetica,sans-Serif" font-size="11.00">numeric[10]</text>
<polygon fill="none" stroke="black" points="432.5,-128 432.5,-150 598.5,-150 598.5,-128 432.5,-128"/>
<image xlink:href="../../images/foreignKeys.png" width="11px" height="12px" preserveAspectRatio="xMinYMin meet" x="437.5" y="-145"/>
<text text-anchor="start" x="452.5" y="-136.2" font-family="Helvetica,sans-Serif" font-size="11.00">ad_labelstyle_id</text>
<polygon fill="none" stroke="black" points="598.5,-128 598.5,-150 681.5,-150 681.5,-128 598.5,-128"/>
<text text-anchor="start" x="601.5" y="-136.2" font-family="Helvetica,sans-Serif" font-size="11.00">numeric[10]</text>
<polygon fill="#ffffff" stroke="transparent" points="432.5,-110 432.5,-128 681.5,-128 681.5,-110 432.5,-110"/>
<polygon fill="none" stroke="black" points="432.5,-110 432.5,-128 681.5,-128 681.5,-110 432.5,-110"/>
<polygon fill="#ffffff" stroke="transparent" points="433.5,-111 433.5,-127 519.5,-127 519.5,-111 433.5,-111"/>
<text text-anchor="start" x="435.5" y="-116.2" font-family="Helvetica,sans-Serif" font-size="11.00">&lt; 2</text>
<polygon fill="#ffffff" stroke="transparent" points="519.5,-111 519.5,-127 595.5,-127 595.5,-111 519.5,-111"/>
<text text-anchor="start" x="554" y="-116.2" font-family="Helvetica,sans-Serif" font-size="11.00"> &#160;</text>
<polygon fill="#ffffff" stroke="transparent" points="595.5,-111 595.5,-127 680.5,-127 680.5,-111 595.5,-111"/>
<text text-anchor="start" x="662.5" y="-116.2" font-family="Helvetica,sans-Serif" font-size="11.00">2 &gt;</text>
<polygon fill="black" stroke="black" points="519.5,-111 519.5,-127 519.5,-127 519.5,-111 519.5,-111"/>
<polygon fill="black" stroke="black" points="595.5,-111 595.5,-127 595.5,-127 595.5,-111 595.5,-111"/>
<polygon fill="none" stroke="black" stroke-width="2" points="431,-109 431,-437 682,-437 682,-109 431,-109"/>
</a>
</g>
</g>
<!-- ad_labelcategory -->
<g id="node2" class="node">
<title>ad_labelcategory</title>
<g id="a_node2"><a xlink:href="../../tables/ad_labelcategory.html" xlink:title="ad_labelcategory" target="_top">
<polygon fill="#ffffff" stroke="transparent" points="193,-117 193,-241 381,-241 381,-117 193,-117"/>
<polygon fill="#f5f5f5" stroke="transparent" points="193,-219 193,-241 381,-241 381,-219 193,-219"/>
<polygon fill="none" stroke="black" points="193,-219 193,-241 381,-241 381,-219 193,-219"/>
<text text-anchor="start" x="198" y="-228.2" font-family="Helvetica,sans-Serif" font-weight="bold" font-size="11.00">ad_labelcategory</text>
<text text-anchor="start" x="346" y="-227.2" font-family="Helvetica,sans-Serif" font-size="11.00">[table]</text>
<polygon fill="none" stroke="black" points="193,-197 193,-219 381,-219 381,-197 193,-197"/>
<image xlink:href="../../images/primaryKeys.png" width="11px" height="12px" preserveAspectRatio="xMinYMin meet" x="198" y="-214"/>
<text text-anchor="start" x="213" y="-205.2" font-family="Helvetica,sans-Serif" font-size="11.00">ad_labelcategory_id</text>
<polygon fill="#ffffff" stroke="transparent" points="193,-175 193,-197 381,-197 381,-175 193,-175"/>
<polygon fill="none" stroke="black" points="193,-175 193,-197 381,-197 381,-175 193,-175"/>
<text text-anchor="start" x="213" y="-183.2" font-family="Helvetica,sans-Serif" font-size="11.00">ad_labelcategory_uu</text>
<polygon fill="none" stroke="black" points="193,-153 193,-175 381,-175 381,-153 193,-153"/>
<image xlink:href="../../images/foreignKeys.png" width="11px" height="12px" preserveAspectRatio="xMinYMin meet" x="198" y="-170"/>
<text text-anchor="start" x="213" y="-161.2" font-family="Helvetica,sans-Serif" font-size="11.00">ad_labelstyle_id</text>
<polygon fill="none" stroke="black" points="193,-135 193,-153 381,-153 381,-135 193,-135"/>
<text text-anchor="start" x="196" y="-141.2" font-family="Helvetica,sans-Serif" font-size="11.00">...</text>
<polygon fill="#ffffff" stroke="transparent" points="193,-117 193,-135 381,-135 381,-117 193,-117"/>
<polygon fill="none" stroke="black" points="193,-117 193,-135 381,-135 381,-117 193,-117"/>
<polygon fill="#ffffff" stroke="transparent" points="194,-118 194,-134 259,-134 259,-118 194,-118"/>
<text text-anchor="start" x="196" y="-123.2" font-family="Helvetica,sans-Serif" font-size="11.00">&lt; 1</text>
<polygon fill="#ffffff" stroke="transparent" points="259,-118 259,-134 315,-134 315,-118 259,-118"/>
<text text-anchor="start" x="283.5" y="-123.2" font-family="Helvetica,sans-Serif" font-size="11.00"> &#160;</text>
<polygon fill="#ffffff" stroke="transparent" points="315,-118 315,-134 380,-134 380,-118 315,-118"/>
<text text-anchor="start" x="362" y="-123.2" font-family="Helvetica,sans-Serif" font-size="11.00">3 &gt;</text>
<polygon fill="black" stroke="black" points="259,-118 259,-134 259,-134 259,-118 259,-118"/>
<polygon fill="black" stroke="black" points="315,-118 315,-134 315,-134 315,-118 315,-118"/>
</a>
</g>
</g>
<!-- ad_label&#45;&gt;ad_labelcategory -->
<g id="edge1" class="edge">
<title>ad_label:w&#45;&gt;ad_labelcategory:e</title>
<path fill="none" stroke="black" d="M417.86,-165.68C403.94,-177.57 406.41,-208 382,-208"/>
<polygon fill="black" stroke="black" points="423.93,-163.59 432.67,-164.41 427.72,-162.3 431.5,-161 431.5,-161 431.5,-161 427.72,-162.3 430.33,-157.59 423.93,-163.59 423.93,-163.59"/>
<ellipse fill="none" stroke="black" cx="420.91" cy="-164.63" rx="3.2" ry="3.2"/>
</g>
<!-- ad_style -->
<g id="node3" class="node">
<title>ad_style</title>
<g id="a_node3"><a xlink:href="../../tables/ad_style.html" xlink:title="ad_style" target="_top">
<polygon fill="#ffffff" stroke="transparent" points="8,-37 8,-161 144,-161 144,-37 8,-37"/>
<polygon fill="#f5f5f5" stroke="transparent" points="8,-139 8,-161 144,-161 144,-139 8,-139"/>
<polygon fill="none" stroke="black" points="8,-139 8,-161 144,-161 144,-139 8,-139"/>
<text text-anchor="start" x="13" y="-148.2" font-family="Helvetica,sans-Serif" font-weight="bold" font-size="11.00">ad_style</text>
<text text-anchor="start" x="109" y="-147.2" font-family="Helvetica,sans-Serif" font-size="11.00">[table]</text>
<polygon fill="none" stroke="black" points="8,-117 8,-139 144,-139 144,-117 8,-117"/>
<image xlink:href="../../images/primaryKeys.png" width="11px" height="12px" preserveAspectRatio="xMinYMin meet" x="13" y="-134"/>
<text text-anchor="start" x="28" y="-125.2" font-family="Helvetica,sans-Serif" font-size="11.00">ad_style_id</text>
<polygon fill="#ffffff" stroke="transparent" points="8,-95 8,-117 144,-117 144,-95 8,-95"/>
<polygon fill="none" stroke="black" points="8,-95 8,-117 144,-117 144,-95 8,-95"/>
<text text-anchor="start" x="28" y="-103.2" font-family="Helvetica,sans-Serif" font-size="11.00">ad_style_uu</text>
<polygon fill="none" stroke="black" points="8,-73 8,-95 144,-95 144,-73 8,-73"/>
<image xlink:href="../../images/foreignKeys.png" width="11px" height="12px" preserveAspectRatio="xMinYMin meet" x="13" y="-90"/>
<text text-anchor="start" x="28" y="-81.2" font-family="Helvetica,sans-Serif" font-size="11.00">entitytype</text>
<polygon fill="none" stroke="black" points="8,-55 8,-73 144,-73 144,-55 8,-55"/>
<text text-anchor="start" x="11" y="-61.2" font-family="Helvetica,sans-Serif" font-size="11.00">...</text>
<polygon fill="#ffffff" stroke="transparent" points="8,-37 8,-55 144,-55 144,-37 8,-37"/>
<polygon fill="none" stroke="black" points="8,-37 8,-55 144,-55 144,-37 8,-37"/>
<polygon fill="#ffffff" stroke="transparent" points="9,-38 9,-54 44,-54 44,-38 9,-38"/>
<text text-anchor="start" x="11" y="-43.2" font-family="Helvetica,sans-Serif" font-size="11.00">&lt; 1</text>
<polygon fill="#ffffff" stroke="transparent" points="44,-38 44,-54 102,-54 102,-38 44,-38"/>
<text text-anchor="start" x="53.5" y="-43.2" font-family="Helvetica,sans-Serif" font-size="11.00">11 rows</text>
<polygon fill="#ffffff" stroke="transparent" points="102,-38 102,-54 143,-54 143,-38 102,-38"/>
<text text-anchor="start" x="119" y="-43.2" font-family="Helvetica,sans-Serif" font-size="11.00">12 &gt;</text>
<polygon fill="black" stroke="black" points="44,-38 44,-54 44,-54 44,-38 44,-38"/>
<polygon fill="black" stroke="black" points="102,-38 102,-54 102,-54 102,-38 102,-38"/>
</a>
</g>
</g>
<!-- ad_label&#45;&gt;ad_style -->
<g id="edge2" class="edge">
<title>ad_label:w&#45;&gt;ad_style:e</title>
<path fill="none" stroke="black" d="M417.64,-134.7C407.9,-127.14 405.79,-111.75 389,-106 303.23,-76.61 272.82,-83.44 185,-106 165.35,-111.05 165.29,-128 145,-128"/>
<polygon fill="black" stroke="black" points="423.86,-136.63 430.43,-142.44 427.68,-137.81 431.5,-139 431.5,-139 431.5,-139 427.68,-137.81 432.57,-135.56 423.86,-136.63 423.86,-136.63"/>
<ellipse fill="none" stroke="black" cx="420.8" cy="-135.68" rx="3.2" ry="3.2"/>
</g>
<!-- ad_labelcategory&#45;&gt;ad_style -->
<g id="edge5" class="edge">
<title>ad_labelcategory:w&#45;&gt;ad_style:e</title>
<path fill="none" stroke="black" d="M178.29,-159.29C166.6,-149.54 165.35,-128 145,-128"/>
<polygon fill="black" stroke="black" points="184.43,-161.4 190.83,-167.4 188.22,-162.7 192,-164 192,-164 192,-164 188.22,-162.7 193.17,-160.6 184.43,-161.4 184.43,-161.4"/>
<ellipse fill="none" stroke="black" cx="181.41" cy="-160.36" rx="3.2" ry="3.2"/>
</g>
<!-- ad_label_trl -->
<g id="node4" class="node">
<title>ad_label_trl</title>
<g id="a_node4"><a xlink:href="../../tables/ad_label_trl.html" xlink:title="ad_label_trl" target="_top">
<polygon fill="#ffffff" stroke="transparent" points="763,-374 763,-586 892,-586 892,-374 763,-374"/>
<polygon fill="#f5f5f5" stroke="transparent" points="763.5,-564 763.5,-586 892.5,-586 892.5,-564 763.5,-564"/>
<polygon fill="none" stroke="black" points="763.5,-564 763.5,-586 892.5,-586 892.5,-564 763.5,-564"/>
<text text-anchor="start" x="768.5" y="-573.2" font-family="Helvetica,sans-Serif" font-weight="bold" font-size="11.00">ad_label_trl</text>
<text text-anchor="start" x="857.5" y="-572.2" font-family="Helvetica,sans-Serif" font-size="11.00">[table]</text>
<polygon fill="none" stroke="black" points="763.5,-542 763.5,-564 892.5,-564 892.5,-542 763.5,-542"/>
<image xlink:href="../../images/foreignKeys.png" width="11px" height="12px" preserveAspectRatio="xMinYMin meet" x="768.5" y="-559"/>
<text text-anchor="start" x="783.5" y="-550.2" font-family="Helvetica,sans-Serif" font-size="11.00">ad_client_id</text>
<polygon fill="none" stroke="black" points="763.5,-520 763.5,-542 892.5,-542 892.5,-520 763.5,-520"/>
<image xlink:href="../../images/primaryKeys.png" width="11px" height="12px" preserveAspectRatio="xMinYMin meet" x="768.5" y="-537"/>
<text text-anchor="start" x="783.5" y="-528.2" font-family="Helvetica,sans-Serif" font-size="11.00">ad_label_id</text>
<polygon fill="#ffffff" stroke="transparent" points="763.5,-498 763.5,-520 892.5,-520 892.5,-498 763.5,-498"/>
<polygon fill="none" stroke="black" points="763.5,-498 763.5,-520 892.5,-520 892.5,-498 763.5,-498"/>
<text text-anchor="start" x="783.5" y="-506.2" font-family="Helvetica,sans-Serif" font-size="11.00">ad_label_trl_uu</text>
<polygon fill="none" stroke="black" points="763.5,-476 763.5,-498 892.5,-498 892.5,-476 763.5,-476"/>
<image xlink:href="../../images/primaryKeys.png" width="11px" height="12px" preserveAspectRatio="xMinYMin meet" x="768.5" y="-493"/>
<text text-anchor="start" x="783.5" y="-484.2" font-family="Helvetica,sans-Serif" font-size="11.00">ad_language</text>
<polygon fill="none" stroke="black" points="763.5,-454 763.5,-476 892.5,-476 892.5,-454 763.5,-454"/>
<image xlink:href="../../images/foreignKeys.png" width="11px" height="12px" preserveAspectRatio="xMinYMin meet" x="768.5" y="-471"/>
<text text-anchor="start" x="783.5" y="-462.2" font-family="Helvetica,sans-Serif" font-size="11.00">ad_org_id</text>
<polygon fill="none" stroke="black" points="763.5,-432 763.5,-454 892.5,-454 892.5,-432 763.5,-432"/>
<image xlink:href="../../images/foreignKeys.png" width="11px" height="12px" preserveAspectRatio="xMinYMin meet" x="768.5" y="-449"/>
<text text-anchor="start" x="783.5" y="-440.2" font-family="Helvetica,sans-Serif" font-size="11.00">createdby</text>
<polygon fill="none" stroke="black" points="763.5,-410 763.5,-432 892.5,-432 892.5,-410 763.5,-410"/>
<image xlink:href="../../images/foreignKeys.png" width="11px" height="12px" preserveAspectRatio="xMinYMin meet" x="768.5" y="-427"/>
<text text-anchor="start" x="783.5" y="-418.2" font-family="Helvetica,sans-Serif" font-size="11.00">updatedby</text>
<polygon fill="none" stroke="black" points="763.5,-392 763.5,-410 892.5,-410 892.5,-392 763.5,-392"/>
<text text-anchor="start" x="766.5" y="-398.2" font-family="Helvetica,sans-Serif" font-size="11.00">...</text>
<polygon fill="#ffffff" stroke="transparent" points="763.5,-374 763.5,-392 892.5,-392 892.5,-374 763.5,-374"/>
<polygon fill="none" stroke="black" points="763.5,-374 763.5,-392 892.5,-392 892.5,-374 763.5,-374"/>
<polygon fill="#ffffff" stroke="transparent" points="764.5,-375 764.5,-391 813.5,-391 813.5,-375 764.5,-375"/>
<text text-anchor="start" x="766.5" y="-380.2" font-family="Helvetica,sans-Serif" font-size="11.00">&lt; 6</text>
<polygon fill="#ffffff" stroke="transparent" points="813.5,-375 813.5,-391 852.5,-391 852.5,-375 813.5,-375"/>
<text text-anchor="start" x="829.5" y="-380.2" font-family="Helvetica,sans-Serif" font-size="11.00"> &#160;</text>
<polygon fill="#ffffff" stroke="transparent" points="852.5,-375 852.5,-391 891.5,-391 891.5,-375 852.5,-375"/>
<text text-anchor="start" x="882.5" y="-380.2" font-family="Helvetica,sans-Serif" font-size="11.00"> &#160;</text>
<polygon fill="black" stroke="black" points="813.5,-375 813.5,-391 813.5,-391 813.5,-375 813.5,-375"/>
<polygon fill="black" stroke="black" points="852.5,-375 852.5,-391 852.5,-391 852.5,-375 852.5,-375"/>
</a>
</g>
</g>
<!-- ad_label_trl&#45;&gt;ad_label -->
<g id="edge3" class="edge">
<title>ad_label_trl:w&#45;&gt;ad_label:e</title>
<path fill="none" stroke="black" d="M748.3,-528.56C703.49,-510.86 744.08,-403 682.5,-403"/>
<polygon fill="black" stroke="black" points="754.62,-529.64 761.89,-534.55 758.56,-530.32 762.5,-531 762.5,-531 762.5,-531 758.56,-530.32 763.11,-527.45 754.62,-529.64 754.62,-529.64"/>
<ellipse fill="none" stroke="black" cx="751.46" cy="-529.1" rx="3.2" ry="3.2"/>
</g>
<!-- ad_labelassignment -->
<g id="node5" class="node">
<title>ad_labelassignment</title>
<g id="a_node5"><a xlink:href="../../tables/ad_labelassignment.html" xlink:title="ad_labelassignment" target="_top">
<polygon fill="#ffffff" stroke="transparent" points="732,-163 732,-353 923,-353 923,-163 732,-163"/>
<polygon fill="#f5f5f5" stroke="transparent" points="732.5,-331 732.5,-353 923.5,-353 923.5,-331 732.5,-331"/>
<polygon fill="none" stroke="black" points="732.5,-331 732.5,-353 923.5,-353 923.5,-331 732.5,-331"/>
<text text-anchor="start" x="737.5" y="-340.2" font-family="Helvetica,sans-Serif" font-weight="bold" font-size="11.00">ad_labelassignment</text>
<text text-anchor="start" x="888.5" y="-339.2" font-family="Helvetica,sans-Serif" font-size="11.00">[table]</text>
<polygon fill="none" stroke="black" points="732.5,-309 732.5,-331 923.5,-331 923.5,-309 732.5,-309"/>
<image xlink:href="../../images/primaryKeys.png" width="11px" height="12px" preserveAspectRatio="xMinYMin meet" x="737.5" y="-326"/>
<text text-anchor="start" x="752.5" y="-317.2" font-family="Helvetica,sans-Serif" font-size="11.00">ad_labelassignment_id</text>
<polygon fill="#ffffff" stroke="transparent" points="732.5,-287 732.5,-309 923.5,-309 923.5,-287 732.5,-287"/>
<polygon fill="none" stroke="black" points="732.5,-287 732.5,-309 923.5,-309 923.5,-287 732.5,-287"/>
<text text-anchor="start" x="752.5" y="-295.2" font-family="Helvetica,sans-Serif" font-size="11.00">ad_labelassignment_uu</text>
<polygon fill="none" stroke="black" points="732.5,-265 732.5,-287 923.5,-287 923.5,-265 732.5,-265"/>
<image xlink:href="../../images/foreignKeys.png" width="11px" height="12px" preserveAspectRatio="xMinYMin meet" x="737.5" y="-282"/>
<text text-anchor="start" x="752.5" y="-273.2" font-family="Helvetica,sans-Serif" font-size="11.00">ad_label_id</text>
<polygon fill="#ffffff" stroke="transparent" points="732.5,-243 732.5,-265 923.5,-265 923.5,-243 732.5,-243"/>
<polygon fill="none" stroke="black" points="732.5,-243 732.5,-265 923.5,-265 923.5,-243 732.5,-243"/>
<image xlink:href="../../images/foreignKeys.png" width="11px" height="12px" preserveAspectRatio="xMinYMin meet" x="737.5" y="-260"/>
<text text-anchor="start" x="752.5" y="-251.2" font-family="Helvetica,sans-Serif" font-size="11.00">ad_table_id</text>
<polygon fill="#ffffff" stroke="transparent" points="732.5,-221 732.5,-243 923.5,-243 923.5,-221 732.5,-221"/>
<polygon fill="none" stroke="black" points="732.5,-221 732.5,-243 923.5,-243 923.5,-221 732.5,-221"/>
<text text-anchor="start" x="752.5" y="-229.2" font-family="Helvetica,sans-Serif" font-size="11.00">record_id</text>
<polygon fill="#ffffff" stroke="transparent" points="732.5,-199 732.5,-221 923.5,-221 923.5,-199 732.5,-199"/>
<polygon fill="none" stroke="black" points="732.5,-199 732.5,-221 923.5,-221 923.5,-199 732.5,-199"/>
<text text-anchor="start" x="752.5" y="-207.2" font-family="Helvetica,sans-Serif" font-size="11.00">record_uu</text>
<polygon fill="none" stroke="black" points="732.5,-181 732.5,-199 923.5,-199 923.5,-181 732.5,-181"/>
<text text-anchor="start" x="735.5" y="-187.2" font-family="Helvetica,sans-Serif" font-size="11.00">...</text>
<polygon fill="#ffffff" stroke="transparent" points="732.5,-163 732.5,-181 923.5,-181 923.5,-163 732.5,-163"/>
<polygon fill="none" stroke="black" points="732.5,-163 732.5,-181 923.5,-181 923.5,-163 732.5,-163"/>
<polygon fill="#ffffff" stroke="transparent" points="733.5,-164 733.5,-180 802.5,-180 802.5,-164 733.5,-164"/>
<text text-anchor="start" x="735.5" y="-169.2" font-family="Helvetica,sans-Serif" font-size="11.00">&lt; 2</text>
<polygon fill="#ffffff" stroke="transparent" points="802.5,-164 802.5,-180 862.5,-180 862.5,-164 802.5,-164"/>
<text text-anchor="start" x="829" y="-169.2" font-family="Helvetica,sans-Serif" font-size="11.00"> &#160;</text>
<polygon fill="#ffffff" stroke="transparent" points="862.5,-164 862.5,-180 922.5,-180 922.5,-164 862.5,-164"/>
<text text-anchor="start" x="913.5" y="-169.2" font-family="Helvetica,sans-Serif" font-size="11.00"> &#160;</text>
<polygon fill="black" stroke="black" points="802.5,-164 802.5,-180 802.5,-180 802.5,-164 802.5,-164"/>
<polygon fill="black" stroke="black" points="862.5,-164 862.5,-180 862.5,-180 862.5,-164 862.5,-164"/>
</a>
</g>
</g>
<!-- ad_labelassignment&#45;&gt;ad_label -->
<g id="edge4" class="edge">
<title>ad_labelassignment:w&#45;&gt;ad_label:e</title>
<path fill="none" stroke="black" d="M717.32,-279.4C683.8,-299.59 737.09,-403 682.5,-403"/>
<polygon fill="black" stroke="black" points="723.72,-277.86 732.34,-279.5 727.61,-276.93 731.5,-276 731.5,-276 731.5,-276 727.61,-276.93 730.66,-272.5 723.72,-277.86 723.72,-277.86"/>
<ellipse fill="none" stroke="black" cx="720.61" cy="-278.61" rx="3.2" ry="3.2"/>
</g>
</g>
</svg>
