<?xml version="1.0" encoding="UTF-8" standalone="no"?>
<!DOCTYPE svg PUBLIC "-//W3C//DTD SVG 1.1//EN"
 "http://www.w3.org/Graphics/SVG/1.1/DTD/svg11.dtd">
<!-- Generated by graphviz version 2.43.0 (0)
 -->
<!-- Title: oneDegreeRelationshipsDiagram Pages: 1 -->
<svg width="734pt" height="780pt"
 viewBox="0.00 0.00 734.00 780.00" xmlns="http://www.w3.org/2000/svg" xmlns:xlink="http://www.w3.org/1999/xlink">
<g id="graph0" class="graph" transform="scale(1 1) rotate(0) translate(4 776)">
<title>oneDegreeRelationshipsDiagram</title>
<polygon fill="#ffffff" stroke="transparent" points="-4,4 -4,-776 730,-776 730,4 -4,4"/>
<text text-anchor="middle" x="71.5" y="-7.2" font-family="Helvetica,sans-Serif" font-size="11.00">Generated by SchemaSpy</text>
<!-- ad_orginfo -->
<g id="node1" class="node">
<title>ad_orginfo</title>
<g id="a_node1"><a xlink:href="../../tables/ad_orginfo.html" xlink:title="ad_orginfo" target="_top">
<polygon fill="#ffffff" stroke="transparent" points="472,-380 472,-768 718,-768 718,-380 472,-380"/>
<polygon fill="#f5f5f5" stroke="transparent" points="472,-746 472,-768 718,-768 718,-746 472,-746"/>
<polygon fill="none" stroke="black" points="472,-746 472,-768 718,-768 718,-746 472,-746"/>
<text text-anchor="start" x="477" y="-755.2" font-family="Helvetica,sans-Serif" font-weight="bold" font-size="11.00">ad_orginfo</text>
<text text-anchor="start" x="683" y="-754.2" font-family="Helvetica,sans-Serif" font-size="11.00">[table]</text>
<polygon fill="none" stroke="black" points="472,-724 472,-746 718,-746 718,-724 472,-724"/>
<image xlink:href="../../images/primaryKeys.png" width="11px" height="12px" preserveAspectRatio="xMinYMin meet" x="477" y="-741"/>
<text text-anchor="start" x="492" y="-732.2" font-family="Helvetica,sans-Serif" font-size="11.00">ad_org_id</text>
<polygon fill="none" stroke="black" points="472,-702 472,-724 718,-724 718,-702 472,-702"/>
<image xlink:href="../../images/foreignKeys.png" width="11px" height="12px" preserveAspectRatio="xMinYMin meet" x="477" y="-719"/>
<text text-anchor="start" x="492" y="-710.2" font-family="Helvetica,sans-Serif" font-size="11.00">c_location_id</text>
<polygon fill="none" stroke="black" points="472,-680 472,-702 718,-702 718,-680 472,-680"/>
<image xlink:href="../../images/foreignKeys.png" width="11px" height="12px" preserveAspectRatio="xMinYMin meet" x="477" y="-697"/>
<text text-anchor="start" x="492" y="-688.2" font-family="Helvetica,sans-Serif" font-size="11.00">supervisor_id</text>
<polygon fill="none" stroke="black" points="472,-658 472,-680 718,-680 718,-658 472,-658"/>
<image xlink:href="../../images/foreignKeys.png" width="11px" height="12px" preserveAspectRatio="xMinYMin meet" x="477" y="-675"/>
<text text-anchor="start" x="492" y="-666.2" font-family="Helvetica,sans-Serif" font-size="11.00">parent_org_id</text>
<polygon fill="none" stroke="black" points="472,-636 472,-658 718,-658 718,-636 472,-636"/>
<image xlink:href="../../images/foreignKeys.png" width="11px" height="12px" preserveAspectRatio="xMinYMin meet" x="477" y="-653"/>
<text text-anchor="start" x="492" y="-644.2" font-family="Helvetica,sans-Serif" font-size="11.00">ad_orgtype_id</text>
<polygon fill="none" stroke="black" points="472,-614 472,-636 718,-636 718,-614 472,-614"/>
<image xlink:href="../../images/foreignKeys.png" width="11px" height="12px" preserveAspectRatio="xMinYMin meet" x="477" y="-631"/>
<text text-anchor="start" x="492" y="-622.2" font-family="Helvetica,sans-Serif" font-size="11.00">m_warehouse_id</text>
<polygon fill="none" stroke="black" points="472,-592 472,-614 718,-614 718,-592 472,-592"/>
<image xlink:href="../../images/foreignKeys.png" width="11px" height="12px" preserveAspectRatio="xMinYMin meet" x="477" y="-609"/>
<text text-anchor="start" x="492" y="-600.2" font-family="Helvetica,sans-Serif" font-size="11.00">transferbank_id</text>
<polygon fill="none" stroke="black" points="472,-570 472,-592 718,-592 718,-570 472,-570"/>
<image xlink:href="../../images/foreignKeys.png" width="11px" height="12px" preserveAspectRatio="xMinYMin meet" x="477" y="-587"/>
<text text-anchor="start" x="492" y="-578.2" font-family="Helvetica,sans-Serif" font-size="11.00">transfercashbook_id</text>
<polygon fill="none" stroke="black" points="472,-548 472,-570 718,-570 718,-548 472,-548"/>
<image xlink:href="../../images/foreignKeys.png" width="11px" height="12px" preserveAspectRatio="xMinYMin meet" x="477" y="-565"/>
<text text-anchor="start" x="492" y="-556.2" font-family="Helvetica,sans-Serif" font-size="11.00">dropship_warehouse_id</text>
<polygon fill="none" stroke="black" points="472,-526 472,-548 718,-548 718,-526 472,-526"/>
<image xlink:href="../../images/foreignKeys.png" width="11px" height="12px" preserveAspectRatio="xMinYMin meet" x="477" y="-543"/>
<text text-anchor="start" x="492" y="-534.2" font-family="Helvetica,sans-Serif" font-size="11.00">c_calendar_id</text>
<polygon fill="none" stroke="black" points="472,-504 472,-526 718,-526 718,-504 472,-504"/>
<image xlink:href="../../images/foreignKeys.png" width="11px" height="12px" preserveAspectRatio="xMinYMin meet" x="477" y="-521"/>
<text text-anchor="start" x="492" y="-512.2" font-family="Helvetica,sans-Serif" font-size="11.00">logo_id</text>
<polygon fill="#ffffff" stroke="transparent" points="472,-482 472,-504 718,-504 718,-482 472,-482"/>
<polygon fill="none" stroke="black" points="472,-482 472,-504 718,-504 718,-482 472,-482"/>
<text text-anchor="start" x="492" y="-490.2" font-family="Helvetica,sans-Serif" font-size="11.00">ad_orginfo_uu</text>
<polygon fill="none" stroke="black" points="472,-460 472,-482 718,-482 718,-460 472,-460"/>
<image xlink:href="../../images/foreignKeys.png" width="11px" height="12px" preserveAspectRatio="xMinYMin meet" x="477" y="-477"/>
<text text-anchor="start" x="492" y="-468.2" font-family="Helvetica,sans-Serif" font-size="11.00">cof_cabecalhov_id</text>
<polygon fill="none" stroke="black" points="472,-438 472,-460 718,-460 718,-438 472,-438"/>
<image xlink:href="../../images/foreignKeys.png" width="11px" height="12px" preserveAspectRatio="xMinYMin meet" x="477" y="-455"/>
<text text-anchor="start" x="492" y="-446.2" font-family="Helvetica,sans-Serif" font-size="11.00">cof_cabecalhoh_id</text>
<polygon fill="none" stroke="black" points="472,-416 472,-438 718,-438 718,-416 472,-416"/>
<image xlink:href="../../images/foreignKeys.png" width="11px" height="12px" preserveAspectRatio="xMinYMin meet" x="477" y="-433"/>
<text text-anchor="start" x="492" y="-424.2" font-family="Helvetica,sans-Serif" font-size="11.00">cof_bpartnercashtrx_id</text>
<polygon fill="none" stroke="black" points="472,-398 472,-416 718,-416 718,-398 472,-398"/>
<text text-anchor="start" x="475" y="-404.2" font-family="Helvetica,sans-Serif" font-size="11.00">...</text>
<polygon fill="#ffffff" stroke="transparent" points="472,-380 472,-398 718,-398 718,-380 472,-380"/>
<polygon fill="none" stroke="black" points="472,-380 472,-398 718,-398 718,-380 472,-380"/>
<polygon fill="#ffffff" stroke="transparent" points="473,-381 473,-397 556,-397 556,-381 473,-381"/>
<text text-anchor="start" x="475" y="-386.2" font-family="Helvetica,sans-Serif" font-size="11.00">&lt; 14</text>
<polygon fill="#ffffff" stroke="transparent" points="556,-381 556,-397 650,-397 650,-381 556,-381"/>
<text text-anchor="start" x="586.5" y="-386.2" font-family="Helvetica,sans-Serif" font-size="11.00">3 rows</text>
<polygon fill="#ffffff" stroke="transparent" points="650,-381 650,-397 717,-397 717,-381 650,-381"/>
<text text-anchor="start" x="708" y="-386.2" font-family="Helvetica,sans-Serif" font-size="11.00"> &#160;</text>
<polygon fill="black" stroke="black" points="556,-381 556,-397 556,-397 556,-381 556,-381"/>
<polygon fill="black" stroke="black" points="650,-381 650,-397 650,-397 650,-381 650,-381"/>
</a>
</g>
</g>
<!-- ad_orgtype -->
<g id="node2" class="node">
<title>ad_orgtype</title>
<g id="a_node2"><a xlink:href="../../tables/ad_orgtype.html" xlink:title="ad_orgtype" target="_top">
<polygon fill="#ffffff" stroke="transparent" points="199,-103 199,-411 423,-411 423,-103 199,-103"/>
<polygon fill="#f5f5f5" stroke="transparent" points="201,-387 201,-409 421,-409 421,-387 201,-387"/>
<polygon fill="none" stroke="black" points="201,-387 201,-409 421,-409 421,-387 201,-387"/>
<text text-anchor="start" x="206" y="-396.2" font-family="Helvetica,sans-Serif" font-weight="bold" font-size="11.00">ad_orgtype</text>
<text text-anchor="start" x="386" y="-395.2" font-family="Helvetica,sans-Serif" font-size="11.00">[table]</text>
<polygon fill="none" stroke="black" points="201,-365 201,-387 338,-387 338,-365 201,-365"/>
<image xlink:href="../../images/primaryKeys.png" width="11px" height="12px" preserveAspectRatio="xMinYMin meet" x="206" y="-382"/>
<text text-anchor="start" x="221" y="-373.2" font-family="Helvetica,sans-Serif" font-size="11.00">ad_orgtype_id</text>
<polygon fill="none" stroke="black" points="338,-365 338,-387 421,-387 421,-365 338,-365"/>
<text text-anchor="start" x="341" y="-373.2" font-family="Helvetica,sans-Serif" font-size="11.00">numeric[10]</text>
<polygon fill="none" stroke="black" points="201,-343 201,-365 338,-365 338,-343 201,-343"/>
<text text-anchor="start" x="221" y="-351.2" font-family="Helvetica,sans-Serif" font-size="11.00">ad_client_id</text>
<polygon fill="none" stroke="black" points="338,-343 338,-365 421,-365 421,-343 338,-343"/>
<text text-anchor="start" x="341" y="-351.2" font-family="Helvetica,sans-Serif" font-size="11.00">numeric[10]</text>
<polygon fill="none" stroke="black" points="201,-321 201,-343 338,-343 338,-321 201,-321"/>
<text text-anchor="start" x="221" y="-329.2" font-family="Helvetica,sans-Serif" font-size="11.00">ad_org_id</text>
<polygon fill="none" stroke="black" points="338,-321 338,-343 421,-343 421,-321 338,-321"/>
<text text-anchor="start" x="341" y="-329.2" font-family="Helvetica,sans-Serif" font-size="11.00">numeric[10]</text>
<polygon fill="none" stroke="black" points="201,-299 201,-321 338,-321 338,-299 201,-299"/>
<text text-anchor="start" x="221" y="-307.2" font-family="Helvetica,sans-Serif" font-size="11.00">isactive</text>
<polygon fill="none" stroke="black" points="338,-299 338,-321 421,-321 421,-299 338,-299"/>
<text text-anchor="start" x="341" y="-307.2" font-family="Helvetica,sans-Serif" font-size="11.00">bpchar[1]</text>
<polygon fill="none" stroke="black" points="201,-277 201,-299 338,-299 338,-277 201,-277"/>
<text text-anchor="start" x="221" y="-285.2" font-family="Helvetica,sans-Serif" font-size="11.00">created</text>
<polygon fill="none" stroke="black" points="338,-277 338,-299 421,-299 421,-277 338,-277"/>
<text text-anchor="start" x="341" y="-285.2" font-family="Helvetica,sans-Serif" font-size="11.00">timestamp[29,6]</text>
<polygon fill="none" stroke="black" points="201,-255 201,-277 338,-277 338,-255 201,-255"/>
<text text-anchor="start" x="221" y="-263.2" font-family="Helvetica,sans-Serif" font-size="11.00">createdby</text>
<polygon fill="none" stroke="black" points="338,-255 338,-277 421,-277 421,-255 338,-255"/>
<text text-anchor="start" x="341" y="-263.2" font-family="Helvetica,sans-Serif" font-size="11.00">numeric[10]</text>
<polygon fill="none" stroke="black" points="201,-233 201,-255 338,-255 338,-233 201,-233"/>
<text text-anchor="start" x="221" y="-241.2" font-family="Helvetica,sans-Serif" font-size="11.00">updated</text>
<polygon fill="none" stroke="black" points="338,-233 338,-255 421,-255 421,-233 338,-233"/>
<text text-anchor="start" x="341" y="-241.2" font-family="Helvetica,sans-Serif" font-size="11.00">timestamp[29,6]</text>
<polygon fill="none" stroke="black" points="201,-211 201,-233 338,-233 338,-211 201,-211"/>
<text text-anchor="start" x="221" y="-219.2" font-family="Helvetica,sans-Serif" font-size="11.00">updatedby</text>
<polygon fill="none" stroke="black" points="338,-211 338,-233 421,-233 421,-211 338,-211"/>
<text text-anchor="start" x="341" y="-219.2" font-family="Helvetica,sans-Serif" font-size="11.00">numeric[10]</text>
<polygon fill="none" stroke="black" points="201,-189 201,-211 338,-211 338,-189 201,-189"/>
<text text-anchor="start" x="221" y="-197.2" font-family="Helvetica,sans-Serif" font-size="11.00">name</text>
<polygon fill="none" stroke="black" points="338,-189 338,-211 421,-211 421,-189 338,-189"/>
<text text-anchor="start" x="341" y="-197.2" font-family="Helvetica,sans-Serif" font-size="11.00">varchar[60]</text>
<polygon fill="none" stroke="black" points="201,-167 201,-189 338,-189 338,-167 201,-167"/>
<text text-anchor="start" x="221" y="-175.2" font-family="Helvetica,sans-Serif" font-size="11.00">description</text>
<polygon fill="none" stroke="black" points="338,-167 338,-189 421,-189 421,-167 338,-167"/>
<text text-anchor="start" x="341" y="-175.2" font-family="Helvetica,sans-Serif" font-size="11.00">varchar[255]</text>
<polygon fill="none" stroke="black" points="201,-145 201,-167 338,-167 338,-145 201,-145"/>
<image xlink:href="../../images/foreignKeys.png" width="11px" height="12px" preserveAspectRatio="xMinYMin meet" x="206" y="-162"/>
<text text-anchor="start" x="221" y="-153.2" font-family="Helvetica,sans-Serif" font-size="11.00">ad_printcolor_id</text>
<polygon fill="none" stroke="black" points="338,-145 338,-167 421,-167 421,-145 338,-145"/>
<text text-anchor="start" x="341" y="-153.2" font-family="Helvetica,sans-Serif" font-size="11.00">numeric[10]</text>
<polygon fill="#ffffff" stroke="transparent" points="201,-123 201,-145 338,-145 338,-123 201,-123"/>
<polygon fill="none" stroke="black" points="201,-123 201,-145 338,-145 338,-123 201,-123"/>
<text text-anchor="start" x="221" y="-131.2" font-family="Helvetica,sans-Serif" font-size="11.00">ad_orgtype_uu</text>
<polygon fill="none" stroke="black" points="338,-123 338,-145 421,-145 421,-123 338,-123"/>
<text text-anchor="start" x="341" y="-131.2" font-family="Helvetica,sans-Serif" font-size="11.00">varchar[36]</text>
<polygon fill="#ffffff" stroke="transparent" points="201,-105 201,-123 421,-123 421,-105 201,-105"/>
<polygon fill="none" stroke="black" points="201,-105 201,-123 421,-123 421,-105 201,-105"/>
<polygon fill="#ffffff" stroke="transparent" points="202,-106 202,-122 269,-122 269,-106 202,-106"/>
<text text-anchor="start" x="204" y="-111.2" font-family="Helvetica,sans-Serif" font-size="11.00">&lt; 1</text>
<polygon fill="#ffffff" stroke="transparent" points="269,-106 269,-122 353,-122 353,-106 269,-106"/>
<text text-anchor="start" x="294.5" y="-111.2" font-family="Helvetica,sans-Serif" font-size="11.00">2 rows</text>
<polygon fill="#ffffff" stroke="transparent" points="353,-106 353,-122 420,-122 420,-106 353,-106"/>
<text text-anchor="start" x="402" y="-111.2" font-family="Helvetica,sans-Serif" font-size="11.00">2 &gt;</text>
<polygon fill="black" stroke="black" points="269,-106 269,-122 269,-122 269,-106 269,-106"/>
<polygon fill="black" stroke="black" points="353,-106 353,-122 353,-122 353,-106 353,-106"/>
<polygon fill="none" stroke="black" stroke-width="2" points="200,-104 200,-410 422,-410 422,-104 200,-104"/>
</a>
</g>
</g>
<!-- ad_orginfo&#45;&gt;ad_orgtype -->
<g id="edge1" class="edge">
<title>ad_orginfo:w&#45;&gt;ad_orgtype:e</title>
<path fill="none" stroke="black" d="M456.65,-645.48C365.2,-623.7 539.02,-376 422,-376"/>
<polygon fill="black" stroke="black" points="463.04,-646.15 470.62,-650.58 467.02,-646.58 471,-647 471,-647 471,-647 467.02,-646.58 471.38,-643.42 463.04,-646.15 463.04,-646.15"/>
<ellipse fill="none" stroke="black" cx="459.86" cy="-645.82" rx="3.2" ry="3.2"/>
</g>
<!-- ad_printcolor -->
<g id="node3" class="node">
<title>ad_printcolor</title>
<g id="a_node3"><a xlink:href="../../tables/ad_printcolor.html" xlink:title="ad_printcolor" target="_top">
<polygon fill="#ffffff" stroke="transparent" points="8,-43 8,-189 150,-189 150,-43 8,-43"/>
<polygon fill="#f5f5f5" stroke="transparent" points="8,-167 8,-189 150,-189 150,-167 8,-167"/>
<polygon fill="none" stroke="black" points="8,-167 8,-189 150,-189 150,-167 8,-167"/>
<text text-anchor="start" x="13" y="-176.2" font-family="Helvetica,sans-Serif" font-weight="bold" font-size="11.00">ad_printcolor</text>
<text text-anchor="start" x="115" y="-175.2" font-family="Helvetica,sans-Serif" font-size="11.00">[table]</text>
<polygon fill="none" stroke="black" points="8,-145 8,-167 150,-167 150,-145 8,-145"/>
<image xlink:href="../../images/primaryKeys.png" width="11px" height="12px" preserveAspectRatio="xMinYMin meet" x="13" y="-162"/>
<text text-anchor="start" x="28" y="-153.2" font-family="Helvetica,sans-Serif" font-size="11.00">ad_printcolor_id</text>
<polygon fill="#ffffff" stroke="transparent" points="8,-123 8,-145 150,-145 150,-123 8,-123"/>
<polygon fill="none" stroke="black" points="8,-123 8,-145 150,-145 150,-123 8,-123"/>
<text text-anchor="start" x="28" y="-131.2" font-family="Helvetica,sans-Serif" font-size="11.00">ad_client_id</text>
<polygon fill="#ffffff" stroke="transparent" points="8,-101 8,-123 150,-123 150,-101 8,-101"/>
<polygon fill="none" stroke="black" points="8,-101 8,-123 150,-123 150,-101 8,-101"/>
<text text-anchor="start" x="28" y="-109.2" font-family="Helvetica,sans-Serif" font-size="11.00">name</text>
<polygon fill="#ffffff" stroke="transparent" points="8,-79 8,-101 150,-101 150,-79 8,-79"/>
<polygon fill="none" stroke="black" points="8,-79 8,-101 150,-101 150,-79 8,-79"/>
<text text-anchor="start" x="28" y="-87.2" font-family="Helvetica,sans-Serif" font-size="11.00">ad_printcolor_uu</text>
<polygon fill="none" stroke="black" points="8,-61 8,-79 150,-79 150,-61 8,-61"/>
<text text-anchor="start" x="11" y="-67.2" font-family="Helvetica,sans-Serif" font-size="11.00">...</text>
<polygon fill="#ffffff" stroke="transparent" points="8,-43 8,-61 150,-61 150,-43 8,-43"/>
<polygon fill="none" stroke="black" points="8,-43 8,-61 150,-61 150,-43 8,-43"/>
<polygon fill="#ffffff" stroke="transparent" points="9,-44 9,-60 40,-60 40,-44 9,-44"/>
<text text-anchor="start" x="11" y="-49.2" font-family="Helvetica,sans-Serif" font-size="11.00"> &#160;</text>
<polygon fill="#ffffff" stroke="transparent" points="40,-44 40,-60 103,-60 103,-44 40,-44"/>
<text text-anchor="start" x="52" y="-49.2" font-family="Helvetica,sans-Serif" font-size="11.00">23 rows</text>
<polygon fill="#ffffff" stroke="transparent" points="103,-44 103,-60 149,-60 149,-44 103,-44"/>
<text text-anchor="start" x="125" y="-49.2" font-family="Helvetica,sans-Serif" font-size="11.00">22 &gt;</text>
<polygon fill="black" stroke="black" points="40,-44 40,-60 40,-60 40,-44 40,-44"/>
<polygon fill="black" stroke="black" points="103,-44 103,-60 103,-60 103,-44 103,-44"/>
</a>
</g>
</g>
<!-- ad_orgtype&#45;&gt;ad_printcolor -->
<g id="edge2" class="edge">
<title>ad_orgtype:w&#45;&gt;ad_printcolor:e</title>
<path fill="none" stroke="black" d="M185.49,-156C174.18,-156 166.99,-156 151,-156"/>
<polygon fill="black" stroke="black" points="192,-156 200,-159.6 196,-156 200,-156 200,-156 200,-156 196,-156 200,-152.4 192,-156 192,-156"/>
<ellipse fill="none" stroke="black" cx="188.8" cy="-156" rx="3.2" ry="3.2"/>
</g>
<!-- c_taxdefinition -->
<g id="node4" class="node">
<title>c_taxdefinition</title>
<g id="a_node4"><a xlink:href="../../tables/c_taxdefinition.html" xlink:title="c_taxdefinition" target="_top">
<polygon fill="#ffffff" stroke="transparent" points="500.5,-37 500.5,-359 689.5,-359 689.5,-37 500.5,-37"/>
<polygon fill="#f5f5f5" stroke="transparent" points="501,-337 501,-359 690,-359 690,-337 501,-337"/>
<polygon fill="none" stroke="black" points="501,-337 501,-359 690,-359 690,-337 501,-337"/>
<text text-anchor="start" x="506" y="-346.2" font-family="Helvetica,sans-Serif" font-weight="bold" font-size="11.00">c_taxdefinition</text>
<text text-anchor="start" x="655" y="-345.2" font-family="Helvetica,sans-Serif" font-size="11.00">[table]</text>
<polygon fill="none" stroke="black" points="501,-315 501,-337 690,-337 690,-315 501,-315"/>
<image xlink:href="../../images/foreignKeys.png" width="11px" height="12px" preserveAspectRatio="xMinYMin meet" x="506" y="-332"/>
<text text-anchor="start" x="521" y="-323.2" font-family="Helvetica,sans-Serif" font-size="11.00">c_bp_group_id</text>
<polygon fill="none" stroke="black" points="501,-293 501,-315 690,-315 690,-293 501,-293"/>
<image xlink:href="../../images/foreignKeys.png" width="11px" height="12px" preserveAspectRatio="xMinYMin meet" x="506" y="-310"/>
<text text-anchor="start" x="521" y="-301.2" font-family="Helvetica,sans-Serif" font-size="11.00">c_bpartner_id</text>
<polygon fill="none" stroke="black" points="501,-271 501,-293 690,-293 690,-271 501,-271"/>
<image xlink:href="../../images/foreignKeys.png" width="11px" height="12px" preserveAspectRatio="xMinYMin meet" x="506" y="-288"/>
<text text-anchor="start" x="521" y="-279.2" font-family="Helvetica,sans-Serif" font-size="11.00">c_taxbase_id</text>
<polygon fill="none" stroke="black" points="501,-249 501,-271 690,-271 690,-249 501,-249"/>
<image xlink:href="../../images/foreignKeys.png" width="11px" height="12px" preserveAspectRatio="xMinYMin meet" x="506" y="-266"/>
<text text-anchor="start" x="521" y="-257.2" font-family="Helvetica,sans-Serif" font-size="11.00">c_taxcategory_id</text>
<polygon fill="none" stroke="black" points="501,-227 501,-249 690,-249 690,-227 501,-227"/>
<image xlink:href="../../images/primaryKeys.png" width="11px" height="12px" preserveAspectRatio="xMinYMin meet" x="506" y="-244"/>
<text text-anchor="start" x="521" y="-235.2" font-family="Helvetica,sans-Serif" font-size="11.00">c_taxdefinition_id</text>
<polygon fill="none" stroke="black" points="501,-205 501,-227 690,-227 690,-205 501,-205"/>
<image xlink:href="../../images/foreignKeys.png" width="11px" height="12px" preserveAspectRatio="xMinYMin meet" x="506" y="-222"/>
<text text-anchor="start" x="521" y="-213.2" font-family="Helvetica,sans-Serif" font-size="11.00">c_taxgroup_id</text>
<polygon fill="none" stroke="black" points="501,-183 501,-205 690,-205 690,-183 501,-183"/>
<image xlink:href="../../images/foreignKeys.png" width="11px" height="12px" preserveAspectRatio="xMinYMin meet" x="506" y="-200"/>
<text text-anchor="start" x="521" y="-191.2" font-family="Helvetica,sans-Serif" font-size="11.00">c_taxtype_id</text>
<polygon fill="none" stroke="black" points="501,-161 501,-183 690,-183 690,-161 501,-161"/>
<image xlink:href="../../images/foreignKeys.png" width="11px" height="12px" preserveAspectRatio="xMinYMin meet" x="506" y="-178"/>
<text text-anchor="start" x="521" y="-169.2" font-family="Helvetica,sans-Serif" font-size="11.00">c_tax_id</text>
<polygon fill="none" stroke="black" points="501,-139 501,-161 690,-161 690,-139 501,-139"/>
<image xlink:href="../../images/foreignKeys.png" width="11px" height="12px" preserveAspectRatio="xMinYMin meet" x="506" y="-156"/>
<text text-anchor="start" x="521" y="-147.2" font-family="Helvetica,sans-Serif" font-size="11.00">m_product_category_id</text>
<polygon fill="none" stroke="black" points="501,-117 501,-139 690,-139 690,-117 501,-117"/>
<image xlink:href="../../images/foreignKeys.png" width="11px" height="12px" preserveAspectRatio="xMinYMin meet" x="506" y="-134"/>
<text text-anchor="start" x="521" y="-125.2" font-family="Helvetica,sans-Serif" font-size="11.00">m_product_id</text>
<polygon fill="none" stroke="black" points="501,-95 501,-117 690,-117 690,-95 501,-95"/>
<image xlink:href="../../images/foreignKeys.png" width="11px" height="12px" preserveAspectRatio="xMinYMin meet" x="506" y="-112"/>
<text text-anchor="start" x="521" y="-103.2" font-family="Helvetica,sans-Serif" font-size="11.00">ad_orgtype_id</text>
<polygon fill="#ffffff" stroke="transparent" points="501,-73 501,-95 690,-95 690,-73 501,-73"/>
<polygon fill="none" stroke="black" points="501,-73 501,-95 690,-95 690,-73 501,-73"/>
<text text-anchor="start" x="521" y="-81.2" font-family="Helvetica,sans-Serif" font-size="11.00">c_taxdefinition_uu</text>
<polygon fill="none" stroke="black" points="501,-55 501,-73 690,-73 690,-55 501,-55"/>
<text text-anchor="start" x="504" y="-61.2" font-family="Helvetica,sans-Serif" font-size="11.00">...</text>
<polygon fill="#ffffff" stroke="transparent" points="501,-37 501,-55 690,-55 690,-37 501,-37"/>
<polygon fill="none" stroke="black" points="501,-37 501,-55 690,-55 690,-37 501,-37"/>
<polygon fill="#ffffff" stroke="transparent" points="502,-38 502,-54 575,-54 575,-38 502,-38"/>
<text text-anchor="start" x="504" y="-43.2" font-family="Helvetica,sans-Serif" font-size="11.00">&lt; 10</text>
<polygon fill="#ffffff" stroke="transparent" points="575,-38 575,-54 632,-54 632,-38 575,-38"/>
<text text-anchor="start" x="600" y="-43.2" font-family="Helvetica,sans-Serif" font-size="11.00"> &#160;</text>
<polygon fill="#ffffff" stroke="transparent" points="632,-38 632,-54 689,-54 689,-38 632,-38"/>
<text text-anchor="start" x="680" y="-43.2" font-family="Helvetica,sans-Serif" font-size="11.00"> &#160;</text>
<polygon fill="black" stroke="black" points="575,-38 575,-54 575,-54 575,-38 575,-38"/>
<polygon fill="black" stroke="black" points="632,-38 632,-54 632,-54 632,-38 632,-38"/>
</a>
</g>
</g>
<!-- c_taxdefinition&#45;&gt;ad_orgtype -->
<g id="edge3" class="edge">
<title>c_taxdefinition:w&#45;&gt;ad_orgtype:e</title>
<path fill="none" stroke="black" d="M485.5,-107.45C389.31,-128.7 541.54,-376 422,-376"/>
<polygon fill="black" stroke="black" points="492.04,-106.8 500.36,-109.58 496.02,-106.4 500,-106 500,-106 500,-106 496.02,-106.4 499.64,-102.42 492.04,-106.8 492.04,-106.8"/>
<ellipse fill="none" stroke="black" cx="488.86" cy="-107.12" rx="3.2" ry="3.2"/>
</g>
</g>
</svg>
