<?xml version="1.0" encoding="UTF-8" standalone="no"?>
<!DOCTYPE svg PUBLIC "-//W3C//DTD SVG 1.1//EN"
 "http://www.w3.org/Graphics/SVG/1.1/DTD/svg11.dtd">
<!-- Generated by graphviz version 2.43.0 (0)
 -->
<!-- Title: oneDegreeRelationshipsDiagram Pages: 1 -->
<svg width="632pt" height="793pt"
 viewBox="0.00 0.00 632.00 793.00" xmlns="http://www.w3.org/2000/svg" xmlns:xlink="http://www.w3.org/1999/xlink">
<g id="graph0" class="graph" transform="scale(1 1) rotate(0) translate(4 789)">
<title>oneDegreeRelationshipsDiagram</title>
<polygon fill="#ffffff" stroke="transparent" points="-4,4 -4,-789 628,-789 628,4 -4,4"/>
<text text-anchor="middle" x="71.5" y="-7.2" font-family="Helvetica,sans-Serif" font-size="11.00">Generated by SchemaSpy</text>
<!-- ad_printform -->
<g id="node1" class="node">
<title>ad_printform</title>
<g id="a_node1"><a xlink:href="../../tables/ad_printform.html" xlink:title="ad_printform" target="_top">
<polygon fill="#ffffff" stroke="transparent" points="302,-176 302,-770 616,-770 616,-176 302,-176"/>
<polygon fill="#f5f5f5" stroke="transparent" points="304,-746 304,-768 614,-768 614,-746 304,-746"/>
<polygon fill="none" stroke="black" points="304,-746 304,-768 614,-768 614,-746 304,-746"/>
<text text-anchor="start" x="309" y="-755.2" font-family="Helvetica,sans-Serif" font-weight="bold" font-size="11.00">ad_printform</text>
<text text-anchor="start" x="579" y="-754.2" font-family="Helvetica,sans-Serif" font-size="11.00">[table]</text>
<polygon fill="none" stroke="black" points="304,-724 304,-746 531,-746 531,-724 304,-724"/>
<image xlink:href="../../images/primaryKeys.png" width="11px" height="12px" preserveAspectRatio="xMinYMin meet" x="309" y="-741"/>
<text text-anchor="start" x="324" y="-732.2" font-family="Helvetica,sans-Serif" font-size="11.00">ad_printform_id</text>
<polygon fill="none" stroke="black" points="531,-724 531,-746 614,-746 614,-724 531,-724"/>
<text text-anchor="start" x="534" y="-732.2" font-family="Helvetica,sans-Serif" font-size="11.00">numeric[10]</text>
<polygon fill="#ffffff" stroke="transparent" points="304,-702 304,-724 531,-724 531,-702 304,-702"/>
<polygon fill="none" stroke="black" points="304,-702 304,-724 531,-724 531,-702 304,-702"/>
<image xlink:href="../../images/foreignKeys.png" width="11px" height="12px" preserveAspectRatio="xMinYMin meet" x="309" y="-719"/>
<text text-anchor="start" x="324" y="-710.2" font-family="Helvetica,sans-Serif" font-size="11.00">ad_client_id</text>
<polygon fill="none" stroke="black" points="531,-702 531,-724 614,-724 614,-702 531,-702"/>
<text text-anchor="start" x="534" y="-710.2" font-family="Helvetica,sans-Serif" font-size="11.00">numeric[10]</text>
<polygon fill="#ffffff" stroke="transparent" points="304,-680 304,-702 531,-702 531,-680 304,-680"/>
<polygon fill="none" stroke="black" points="304,-680 304,-702 531,-702 531,-680 304,-680"/>
<text text-anchor="start" x="324" y="-688.2" font-family="Helvetica,sans-Serif" font-size="11.00">ad_org_id</text>
<polygon fill="none" stroke="black" points="531,-680 531,-702 614,-702 614,-680 531,-680"/>
<text text-anchor="start" x="534" y="-688.2" font-family="Helvetica,sans-Serif" font-size="11.00">numeric[10]</text>
<polygon fill="none" stroke="black" points="304,-658 304,-680 531,-680 531,-658 304,-658"/>
<text text-anchor="start" x="324" y="-666.2" font-family="Helvetica,sans-Serif" font-size="11.00">isactive</text>
<polygon fill="none" stroke="black" points="531,-658 531,-680 614,-680 614,-658 531,-658"/>
<text text-anchor="start" x="534" y="-666.2" font-family="Helvetica,sans-Serif" font-size="11.00">bpchar[1]</text>
<polygon fill="none" stroke="black" points="304,-636 304,-658 531,-658 531,-636 304,-636"/>
<text text-anchor="start" x="324" y="-644.2" font-family="Helvetica,sans-Serif" font-size="11.00">created</text>
<polygon fill="none" stroke="black" points="531,-636 531,-658 614,-658 614,-636 531,-636"/>
<text text-anchor="start" x="534" y="-644.2" font-family="Helvetica,sans-Serif" font-size="11.00">timestamp[29,6]</text>
<polygon fill="none" stroke="black" points="304,-614 304,-636 531,-636 531,-614 304,-614"/>
<text text-anchor="start" x="324" y="-622.2" font-family="Helvetica,sans-Serif" font-size="11.00">createdby</text>
<polygon fill="none" stroke="black" points="531,-614 531,-636 614,-636 614,-614 531,-614"/>
<text text-anchor="start" x="534" y="-622.2" font-family="Helvetica,sans-Serif" font-size="11.00">numeric[10]</text>
<polygon fill="none" stroke="black" points="304,-592 304,-614 531,-614 531,-592 304,-592"/>
<text text-anchor="start" x="324" y="-600.2" font-family="Helvetica,sans-Serif" font-size="11.00">updated</text>
<polygon fill="none" stroke="black" points="531,-592 531,-614 614,-614 614,-592 531,-592"/>
<text text-anchor="start" x="534" y="-600.2" font-family="Helvetica,sans-Serif" font-size="11.00">timestamp[29,6]</text>
<polygon fill="none" stroke="black" points="304,-570 304,-592 531,-592 531,-570 304,-570"/>
<text text-anchor="start" x="324" y="-578.2" font-family="Helvetica,sans-Serif" font-size="11.00">updatedby</text>
<polygon fill="none" stroke="black" points="531,-570 531,-592 614,-592 614,-570 531,-570"/>
<text text-anchor="start" x="534" y="-578.2" font-family="Helvetica,sans-Serif" font-size="11.00">numeric[10]</text>
<polygon fill="none" stroke="black" points="304,-548 304,-570 531,-570 531,-548 304,-548"/>
<text text-anchor="start" x="324" y="-556.2" font-family="Helvetica,sans-Serif" font-size="11.00">name</text>
<polygon fill="none" stroke="black" points="531,-548 531,-570 614,-570 614,-548 531,-548"/>
<text text-anchor="start" x="534" y="-556.2" font-family="Helvetica,sans-Serif" font-size="11.00">varchar[60]</text>
<polygon fill="none" stroke="black" points="304,-526 304,-548 531,-548 531,-526 304,-526"/>
<text text-anchor="start" x="324" y="-534.2" font-family="Helvetica,sans-Serif" font-size="11.00">description</text>
<polygon fill="none" stroke="black" points="531,-526 531,-548 614,-548 614,-526 531,-526"/>
<text text-anchor="start" x="534" y="-534.2" font-family="Helvetica,sans-Serif" font-size="11.00">varchar[255]</text>
<polygon fill="none" stroke="black" points="304,-504 304,-526 531,-526 531,-504 304,-504"/>
<image xlink:href="../../images/foreignKeys.png" width="11px" height="12px" preserveAspectRatio="xMinYMin meet" x="309" y="-521"/>
<text text-anchor="start" x="324" y="-512.2" font-family="Helvetica,sans-Serif" font-size="11.00">invoice_printformat_id</text>
<polygon fill="none" stroke="black" points="531,-504 531,-526 614,-526 614,-504 531,-504"/>
<text text-anchor="start" x="534" y="-512.2" font-family="Helvetica,sans-Serif" font-size="11.00">numeric[10]</text>
<polygon fill="none" stroke="black" points="304,-482 304,-504 531,-504 531,-482 304,-482"/>
<image xlink:href="../../images/foreignKeys.png" width="11px" height="12px" preserveAspectRatio="xMinYMin meet" x="309" y="-499"/>
<text text-anchor="start" x="324" y="-490.2" font-family="Helvetica,sans-Serif" font-size="11.00">order_printformat_id</text>
<polygon fill="none" stroke="black" points="531,-482 531,-504 614,-504 614,-482 531,-482"/>
<text text-anchor="start" x="534" y="-490.2" font-family="Helvetica,sans-Serif" font-size="11.00">numeric[10]</text>
<polygon fill="none" stroke="black" points="304,-460 304,-482 531,-482 531,-460 304,-460"/>
<image xlink:href="../../images/foreignKeys.png" width="11px" height="12px" preserveAspectRatio="xMinYMin meet" x="309" y="-477"/>
<text text-anchor="start" x="324" y="-468.2" font-family="Helvetica,sans-Serif" font-size="11.00">remittance_printformat_id</text>
<polygon fill="none" stroke="black" points="531,-460 531,-482 614,-482 614,-460 531,-460"/>
<text text-anchor="start" x="534" y="-468.2" font-family="Helvetica,sans-Serif" font-size="11.00">numeric[10]</text>
<polygon fill="none" stroke="black" points="304,-438 304,-460 531,-460 531,-438 304,-438"/>
<image xlink:href="../../images/foreignKeys.png" width="11px" height="12px" preserveAspectRatio="xMinYMin meet" x="309" y="-455"/>
<text text-anchor="start" x="324" y="-446.2" font-family="Helvetica,sans-Serif" font-size="11.00">shipment_printformat_id</text>
<polygon fill="none" stroke="black" points="531,-438 531,-460 614,-460 614,-438 531,-438"/>
<text text-anchor="start" x="534" y="-446.2" font-family="Helvetica,sans-Serif" font-size="11.00">numeric[10]</text>
<polygon fill="none" stroke="black" points="304,-416 304,-438 531,-438 531,-416 304,-416"/>
<image xlink:href="../../images/foreignKeys.png" width="11px" height="12px" preserveAspectRatio="xMinYMin meet" x="309" y="-433"/>
<text text-anchor="start" x="324" y="-424.2" font-family="Helvetica,sans-Serif" font-size="11.00">invoice_mailtext_id</text>
<polygon fill="none" stroke="black" points="531,-416 531,-438 614,-438 614,-416 531,-416"/>
<text text-anchor="start" x="534" y="-424.2" font-family="Helvetica,sans-Serif" font-size="11.00">numeric[10]</text>
<polygon fill="none" stroke="black" points="304,-394 304,-416 531,-416 531,-394 304,-394"/>
<image xlink:href="../../images/foreignKeys.png" width="11px" height="12px" preserveAspectRatio="xMinYMin meet" x="309" y="-411"/>
<text text-anchor="start" x="324" y="-402.2" font-family="Helvetica,sans-Serif" font-size="11.00">order_mailtext_id</text>
<polygon fill="none" stroke="black" points="531,-394 531,-416 614,-416 614,-394 531,-394"/>
<text text-anchor="start" x="534" y="-402.2" font-family="Helvetica,sans-Serif" font-size="11.00">numeric[10]</text>
<polygon fill="none" stroke="black" points="304,-372 304,-394 531,-394 531,-372 304,-372"/>
<image xlink:href="../../images/foreignKeys.png" width="11px" height="12px" preserveAspectRatio="xMinYMin meet" x="309" y="-389"/>
<text text-anchor="start" x="324" y="-380.2" font-family="Helvetica,sans-Serif" font-size="11.00">remittance_mailtext_id</text>
<polygon fill="none" stroke="black" points="531,-372 531,-394 614,-394 614,-372 531,-372"/>
<text text-anchor="start" x="534" y="-380.2" font-family="Helvetica,sans-Serif" font-size="11.00">numeric[10]</text>
<polygon fill="none" stroke="black" points="304,-350 304,-372 531,-372 531,-350 304,-350"/>
<image xlink:href="../../images/foreignKeys.png" width="11px" height="12px" preserveAspectRatio="xMinYMin meet" x="309" y="-367"/>
<text text-anchor="start" x="324" y="-358.2" font-family="Helvetica,sans-Serif" font-size="11.00">shipment_mailtext_id</text>
<polygon fill="none" stroke="black" points="531,-350 531,-372 614,-372 614,-350 531,-350"/>
<text text-anchor="start" x="534" y="-358.2" font-family="Helvetica,sans-Serif" font-size="11.00">numeric[10]</text>
<polygon fill="none" stroke="black" points="304,-328 304,-350 531,-350 531,-328 304,-328"/>
<image xlink:href="../../images/foreignKeys.png" width="11px" height="12px" preserveAspectRatio="xMinYMin meet" x="309" y="-345"/>
<text text-anchor="start" x="324" y="-336.2" font-family="Helvetica,sans-Serif" font-size="11.00">project_mailtext_id</text>
<polygon fill="none" stroke="black" points="531,-328 531,-350 614,-350 614,-328 531,-328"/>
<text text-anchor="start" x="534" y="-336.2" font-family="Helvetica,sans-Serif" font-size="11.00">numeric[10]</text>
<polygon fill="none" stroke="black" points="304,-306 304,-328 531,-328 531,-306 304,-306"/>
<image xlink:href="../../images/foreignKeys.png" width="11px" height="12px" preserveAspectRatio="xMinYMin meet" x="309" y="-323"/>
<text text-anchor="start" x="324" y="-314.2" font-family="Helvetica,sans-Serif" font-size="11.00">project_printformat_id</text>
<polygon fill="none" stroke="black" points="531,-306 531,-328 614,-328 614,-306 531,-306"/>
<text text-anchor="start" x="534" y="-314.2" font-family="Helvetica,sans-Serif" font-size="11.00">numeric[10]</text>
<polygon fill="none" stroke="black" points="304,-284 304,-306 531,-306 531,-284 304,-284"/>
<image xlink:href="../../images/foreignKeys.png" width="11px" height="12px" preserveAspectRatio="xMinYMin meet" x="309" y="-301"/>
<text text-anchor="start" x="324" y="-292.2" font-family="Helvetica,sans-Serif" font-size="11.00">manuf_order_mailtext_id</text>
<polygon fill="none" stroke="black" points="531,-284 531,-306 614,-306 614,-284 531,-284"/>
<text text-anchor="start" x="534" y="-292.2" font-family="Helvetica,sans-Serif" font-size="11.00">numeric[10]</text>
<polygon fill="none" stroke="black" points="304,-262 304,-284 531,-284 531,-262 304,-262"/>
<image xlink:href="../../images/foreignKeys.png" width="11px" height="12px" preserveAspectRatio="xMinYMin meet" x="309" y="-279"/>
<text text-anchor="start" x="324" y="-270.2" font-family="Helvetica,sans-Serif" font-size="11.00">manuf_order_printformat_id</text>
<polygon fill="none" stroke="black" points="531,-262 531,-284 614,-284 614,-262 531,-262"/>
<text text-anchor="start" x="534" y="-270.2" font-family="Helvetica,sans-Serif" font-size="11.00">numeric[10]</text>
<polygon fill="none" stroke="black" points="304,-240 304,-262 531,-262 531,-240 304,-240"/>
<image xlink:href="../../images/foreignKeys.png" width="11px" height="12px" preserveAspectRatio="xMinYMin meet" x="309" y="-257"/>
<text text-anchor="start" x="324" y="-248.2" font-family="Helvetica,sans-Serif" font-size="11.00">distrib_order_mailtext_id</text>
<polygon fill="none" stroke="black" points="531,-240 531,-262 614,-262 614,-240 531,-240"/>
<text text-anchor="start" x="534" y="-248.2" font-family="Helvetica,sans-Serif" font-size="11.00">numeric[10]</text>
<polygon fill="none" stroke="black" points="304,-218 304,-240 531,-240 531,-218 304,-218"/>
<image xlink:href="../../images/foreignKeys.png" width="11px" height="12px" preserveAspectRatio="xMinYMin meet" x="309" y="-235"/>
<text text-anchor="start" x="324" y="-226.2" font-family="Helvetica,sans-Serif" font-size="11.00">distrib_order_printformat_id</text>
<polygon fill="none" stroke="black" points="531,-218 531,-240 614,-240 614,-218 531,-218"/>
<text text-anchor="start" x="534" y="-226.2" font-family="Helvetica,sans-Serif" font-size="11.00">numeric[10]</text>
<polygon fill="#ffffff" stroke="transparent" points="304,-196 304,-218 531,-218 531,-196 304,-196"/>
<polygon fill="none" stroke="black" points="304,-196 304,-218 531,-218 531,-196 304,-196"/>
<text text-anchor="start" x="324" y="-204.2" font-family="Helvetica,sans-Serif" font-size="11.00">ad_printform_uu</text>
<polygon fill="none" stroke="black" points="531,-196 531,-218 614,-218 614,-196 531,-196"/>
<text text-anchor="start" x="534" y="-204.2" font-family="Helvetica,sans-Serif" font-size="11.00">varchar[36]</text>
<polygon fill="#ffffff" stroke="transparent" points="304,-178 304,-196 614,-196 614,-178 304,-178"/>
<polygon fill="none" stroke="black" points="304,-178 304,-196 614,-196 614,-178 304,-178"/>
<polygon fill="#ffffff" stroke="transparent" points="305,-179 305,-195 406,-195 406,-179 305,-179"/>
<text text-anchor="start" x="307" y="-184.2" font-family="Helvetica,sans-Serif" font-size="11.00">&lt; 15</text>
<polygon fill="#ffffff" stroke="transparent" points="406,-179 406,-195 518,-195 518,-179 406,-179"/>
<text text-anchor="start" x="445.5" y="-184.2" font-family="Helvetica,sans-Serif" font-size="11.00">2 rows</text>
<polygon fill="#ffffff" stroke="transparent" points="518,-179 518,-195 613,-195 613,-179 518,-179"/>
<text text-anchor="start" x="595" y="-184.2" font-family="Helvetica,sans-Serif" font-size="11.00">0 &gt;</text>
<polygon fill="black" stroke="black" points="406,-179 406,-195 406,-195 406,-179 406,-179"/>
<polygon fill="black" stroke="black" points="518,-179 518,-195 518,-195 518,-179 518,-179"/>
<polygon fill="none" stroke="black" stroke-width="2" points="303,-177 303,-769 615,-769 615,-177 303,-177"/>
</a>
</g>
</g>
<!-- ad_client -->
<g id="node2" class="node">
<title>ad_client</title>
<g id="a_node2"><a xlink:href="../../tables/ad_client.html" xlink:title="ad_client" target="_top">
<polygon fill="#ffffff" stroke="transparent" points="8,-569 8,-781 253,-781 253,-569 8,-569"/>
<polygon fill="#f5f5f5" stroke="transparent" points="8.5,-759 8.5,-781 253.5,-781 253.5,-759 8.5,-759"/>
<polygon fill="none" stroke="black" points="8.5,-759 8.5,-781 253.5,-781 253.5,-759 8.5,-759"/>
<text text-anchor="start" x="13.5" y="-768.2" font-family="Helvetica,sans-Serif" font-weight="bold" font-size="11.00">ad_client</text>
<text text-anchor="start" x="218.5" y="-767.2" font-family="Helvetica,sans-Serif" font-size="11.00">[table]</text>
<polygon fill="none" stroke="black" points="8.5,-737 8.5,-759 253.5,-759 253.5,-737 8.5,-737"/>
<image xlink:href="../../images/primaryKeys.png" width="11px" height="12px" preserveAspectRatio="xMinYMin meet" x="13.5" y="-754"/>
<text text-anchor="start" x="28.5" y="-745.2" font-family="Helvetica,sans-Serif" font-size="11.00">ad_client_id</text>
<polygon fill="#ffffff" stroke="transparent" points="8.5,-715 8.5,-737 253.5,-737 253.5,-715 8.5,-715"/>
<polygon fill="none" stroke="black" points="8.5,-715 8.5,-737 253.5,-737 253.5,-715 8.5,-715"/>
<text text-anchor="start" x="28.5" y="-723.2" font-family="Helvetica,sans-Serif" font-size="11.00">value</text>
<polygon fill="none" stroke="black" points="8.5,-693 8.5,-715 253.5,-715 253.5,-693 8.5,-693"/>
<image xlink:href="../../images/foreignKeys.png" width="11px" height="12px" preserveAspectRatio="xMinYMin meet" x="13.5" y="-710"/>
<text text-anchor="start" x="28.5" y="-701.2" font-family="Helvetica,sans-Serif" font-size="11.00">ad_language</text>
<polygon fill="none" stroke="black" points="8.5,-671 8.5,-693 253.5,-693 253.5,-671 8.5,-671"/>
<image xlink:href="../../images/foreignKeys.png" width="11px" height="12px" preserveAspectRatio="xMinYMin meet" x="13.5" y="-688"/>
<text text-anchor="start" x="28.5" y="-679.2" font-family="Helvetica,sans-Serif" font-size="11.00">ad_replicationstrategy_id</text>
<polygon fill="#ffffff" stroke="transparent" points="8.5,-649 8.5,-671 253.5,-671 253.5,-649 8.5,-649"/>
<polygon fill="none" stroke="black" points="8.5,-649 8.5,-671 253.5,-671 253.5,-649 8.5,-649"/>
<text text-anchor="start" x="28.5" y="-657.2" font-family="Helvetica,sans-Serif" font-size="11.00">ad_client_uu</text>
<polygon fill="none" stroke="black" points="8.5,-627 8.5,-649 253.5,-649 253.5,-627 8.5,-627"/>
<image xlink:href="../../images/foreignKeys.png" width="11px" height="12px" preserveAspectRatio="xMinYMin meet" x="13.5" y="-644"/>
<text text-anchor="start" x="28.5" y="-635.2" font-family="Helvetica,sans-Serif" font-size="11.00">ad_passwordrule_id</text>
<polygon fill="#ffffff" stroke="transparent" points="8.5,-605 8.5,-627 253.5,-627 253.5,-605 8.5,-605"/>
<polygon fill="none" stroke="black" points="8.5,-605 8.5,-627 253.5,-627 253.5,-605 8.5,-605"/>
<text text-anchor="start" x="28.5" y="-613.2" font-family="Helvetica,sans-Serif" font-size="11.00">loginprefix</text>
<polygon fill="none" stroke="black" points="8.5,-587 8.5,-605 253.5,-605 253.5,-587 8.5,-587"/>
<text text-anchor="start" x="11.5" y="-593.2" font-family="Helvetica,sans-Serif" font-size="11.00">...</text>
<polygon fill="#ffffff" stroke="transparent" points="8.5,-569 8.5,-587 253.5,-587 253.5,-569 8.5,-569"/>
<polygon fill="none" stroke="black" points="8.5,-569 8.5,-587 253.5,-587 253.5,-569 8.5,-569"/>
<polygon fill="#ffffff" stroke="transparent" points="9.5,-570 9.5,-586 81.5,-586 81.5,-570 9.5,-570"/>
<text text-anchor="start" x="11.5" y="-575.2" font-family="Helvetica,sans-Serif" font-size="11.00">&lt; 3</text>
<polygon fill="#ffffff" stroke="transparent" points="81.5,-570 81.5,-586 169.5,-586 169.5,-570 81.5,-570"/>
<text text-anchor="start" x="109" y="-575.2" font-family="Helvetica,sans-Serif" font-size="11.00">2 rows</text>
<polygon fill="#ffffff" stroke="transparent" points="169.5,-570 169.5,-586 252.5,-586 252.5,-570 169.5,-570"/>
<text text-anchor="start" x="222.5" y="-575.2" font-family="Helvetica,sans-Serif" font-size="11.00">205 &gt;</text>
<polygon fill="black" stroke="black" points="81.5,-570 81.5,-586 81.5,-586 81.5,-570 81.5,-570"/>
<polygon fill="black" stroke="black" points="169.5,-570 169.5,-586 169.5,-586 169.5,-570 169.5,-570"/>
</a>
</g>
</g>
<!-- ad_printform&#45;&gt;ad_client -->
<g id="edge1" class="edge">
<title>ad_printform:w&#45;&gt;ad_client:e</title>
<path fill="none" stroke="black" d="M289.02,-717.58C276.93,-727.06 275.06,-748 254.5,-748"/>
<polygon fill="black" stroke="black" points="295.4,-715.49 304.12,-716.42 299.2,-714.24 303,-713 303,-713 303,-713 299.2,-714.24 301.88,-709.58 295.4,-715.49 295.4,-715.49"/>
<ellipse fill="none" stroke="black" cx="292.36" cy="-716.48" rx="3.2" ry="3.2"/>
</g>
<!-- r_mailtext -->
<g id="node3" class="node">
<title>r_mailtext</title>
<g id="a_node3"><a xlink:href="../../tables/r_mailtext.html" xlink:title="r_mailtext" target="_top">
<polygon fill="#ffffff" stroke="transparent" points="30.5,-37 30.5,-183 230.5,-183 230.5,-37 30.5,-37"/>
<polygon fill="#f5f5f5" stroke="transparent" points="30.5,-161 30.5,-183 230.5,-183 230.5,-161 30.5,-161"/>
<polygon fill="none" stroke="black" points="30.5,-161 30.5,-183 230.5,-183 230.5,-161 30.5,-161"/>
<text text-anchor="start" x="35.5" y="-170.2" font-family="Helvetica,sans-Serif" font-weight="bold" font-size="11.00">r_mailtext</text>
<text text-anchor="start" x="195.5" y="-169.2" font-family="Helvetica,sans-Serif" font-size="11.00">[table]</text>
<polygon fill="none" stroke="black" points="30.5,-139 30.5,-161 230.5,-161 230.5,-139 30.5,-139"/>
<image xlink:href="../../images/primaryKeys.png" width="11px" height="12px" preserveAspectRatio="xMinYMin meet" x="35.5" y="-156"/>
<text text-anchor="start" x="50.5" y="-147.2" font-family="Helvetica,sans-Serif" font-size="11.00">r_mailtext_id</text>
<polygon fill="#ffffff" stroke="transparent" points="30.5,-117 30.5,-139 230.5,-139 230.5,-117 30.5,-117"/>
<polygon fill="none" stroke="black" points="30.5,-117 30.5,-139 230.5,-139 230.5,-117 30.5,-117"/>
<text text-anchor="start" x="50.5" y="-125.2" font-family="Helvetica,sans-Serif" font-size="11.00">ad_org_id</text>
<polygon fill="#ffffff" stroke="transparent" points="30.5,-95 30.5,-117 230.5,-117 230.5,-95 30.5,-95"/>
<polygon fill="none" stroke="black" points="30.5,-95 30.5,-117 230.5,-117 230.5,-95 30.5,-95"/>
<text text-anchor="start" x="50.5" y="-103.2" font-family="Helvetica,sans-Serif" font-size="11.00">r_mailtext_uu</text>
<polygon fill="#ffffff" stroke="transparent" points="30.5,-73 30.5,-95 230.5,-95 230.5,-73 30.5,-73"/>
<polygon fill="none" stroke="black" points="30.5,-73 30.5,-95 230.5,-95 230.5,-73 30.5,-73"/>
<text text-anchor="start" x="50.5" y="-81.2" font-family="Helvetica,sans-Serif" font-size="11.00">cof_templatepadraopara</text>
<polygon fill="none" stroke="black" points="30.5,-55 30.5,-73 230.5,-73 230.5,-55 30.5,-55"/>
<text text-anchor="start" x="33.5" y="-61.2" font-family="Helvetica,sans-Serif" font-size="11.00">...</text>
<polygon fill="#ffffff" stroke="transparent" points="30.5,-37 30.5,-55 230.5,-55 230.5,-37 30.5,-37"/>
<polygon fill="none" stroke="black" points="30.5,-37 30.5,-55 230.5,-55 230.5,-37 30.5,-37"/>
<polygon fill="#ffffff" stroke="transparent" points="31.5,-38 31.5,-54 84.5,-54 84.5,-38 31.5,-38"/>
<text text-anchor="start" x="33.5" y="-43.2" font-family="Helvetica,sans-Serif" font-size="11.00"> &#160;</text>
<polygon fill="#ffffff" stroke="transparent" points="84.5,-38 84.5,-54 162.5,-54 162.5,-38 84.5,-38"/>
<text text-anchor="start" x="107" y="-43.2" font-family="Helvetica,sans-Serif" font-size="11.00">3 rows</text>
<polygon fill="#ffffff" stroke="transparent" points="162.5,-38 162.5,-54 229.5,-54 229.5,-38 162.5,-38"/>
<text text-anchor="start" x="205.5" y="-43.2" font-family="Helvetica,sans-Serif" font-size="11.00">16 &gt;</text>
<polygon fill="black" stroke="black" points="84.5,-38 84.5,-54 84.5,-54 84.5,-38 84.5,-38"/>
<polygon fill="black" stroke="black" points="162.5,-38 162.5,-54 162.5,-54 162.5,-38 162.5,-38"/>
</a>
</g>
</g>
<!-- ad_printform&#45;&gt;r_mailtext -->
<g id="edge2" class="edge">
<title>ad_printform:w&#45;&gt;r_mailtext:e</title>
<path fill="none" stroke="black" d="M288.5,-247.87C255.08,-230.82 280.7,-150 231.5,-150"/>
<polygon fill="black" stroke="black" points="295.18,-249.31 302.24,-254.52 299.09,-250.16 303,-251 303,-251 303,-251 299.09,-250.16 303.76,-247.48 295.18,-249.31 295.18,-249.31"/>
<ellipse fill="none" stroke="black" cx="292.05" cy="-248.63" rx="3.2" ry="3.2"/>
</g>
<!-- ad_printform&#45;&gt;r_mailtext -->
<g id="edge4" class="edge">
<title>ad_printform:w&#45;&gt;r_mailtext:e</title>
<path fill="none" stroke="black" d="M289.4,-421.63C256.04,-390.98 278.73,-237.82 261,-194 252.17,-172.17 255.04,-150 231.5,-150"/>
<polygon fill="black" stroke="black" points="295.56,-424.06 301.68,-430.35 299.28,-425.53 303,-427 303,-427 303,-427 299.28,-425.53 304.32,-423.65 295.56,-424.06 295.56,-424.06"/>
<ellipse fill="none" stroke="black" cx="292.58" cy="-422.89" rx="3.2" ry="3.2"/>
</g>
<!-- ad_printform&#45;&gt;r_mailtext -->
<g id="edge6" class="edge">
<title>ad_printform:w&#45;&gt;r_mailtext:e</title>
<path fill="none" stroke="black" d="M288.66,-292.48C241.55,-273.23 297.74,-150 231.5,-150"/>
<polygon fill="black" stroke="black" points="295.12,-293.62 302.38,-298.55 299.06,-294.31 303,-295 303,-295 303,-295 299.06,-294.31 303.62,-291.45 295.12,-293.62 295.12,-293.62"/>
<ellipse fill="none" stroke="black" cx="291.97" cy="-293.06" rx="3.2" ry="3.2"/>
</g>
<!-- ad_printform&#45;&gt;r_mailtext -->
<g id="edge8" class="edge">
<title>ad_printform:w&#45;&gt;r_mailtext:e</title>
<path fill="none" stroke="black" d="M289.36,-399C260.12,-368.77 277.26,-233.15 261,-194 251.97,-172.26 255.04,-150 231.5,-150"/>
<polygon fill="black" stroke="black" points="295.68,-401.78 301.55,-408.3 299.34,-403.39 303,-405 303,-405 303,-405 299.34,-403.39 304.45,-401.7 295.68,-401.78 295.68,-401.78"/>
<ellipse fill="none" stroke="black" cx="292.75" cy="-400.49" rx="3.2" ry="3.2"/>
</g>
<!-- ad_printform&#45;&gt;r_mailtext -->
<g id="edge10" class="edge">
<title>ad_printform:w&#45;&gt;r_mailtext:e</title>
<path fill="none" stroke="black" d="M288.38,-336.88C225.93,-316.11 315.7,-150 231.5,-150"/>
<polygon fill="black" stroke="black" points="295.08,-337.85 302.48,-342.56 299.04,-338.43 303,-339 303,-339 303,-339 299.04,-338.43 303.52,-335.44 295.08,-337.85 295.08,-337.85"/>
<ellipse fill="none" stroke="black" cx="291.92" cy="-337.39" rx="3.2" ry="3.2"/>
</g>
<!-- ad_printform&#45;&gt;r_mailtext -->
<g id="edge12" class="edge">
<title>ad_printform:w&#45;&gt;r_mailtext:e</title>
<path fill="none" stroke="black" d="M289.88,-376.89C263.81,-348.42 275.89,-228.76 261,-194 251.73,-172.36 255.04,-150 231.5,-150"/>
<polygon fill="black" stroke="black" points="295.75,-379.62 301.48,-386.26 299.37,-381.31 303,-383 303,-383 303,-383 299.37,-381.31 304.52,-379.74 295.75,-379.62 295.75,-379.62"/>
<ellipse fill="none" stroke="black" cx="292.85" cy="-378.27" rx="3.2" ry="3.2"/>
</g>
<!-- ad_printform&#45;&gt;r_mailtext -->
<g id="edge14" class="edge">
<title>ad_printform:w&#45;&gt;r_mailtext:e</title>
<path fill="none" stroke="black" d="M288.71,-359.18C217.15,-338.55 325.1,-150 231.5,-150"/>
<polygon fill="black" stroke="black" points="295.06,-359.99 302.54,-364.57 299.03,-360.49 303,-361 303,-361 303,-361 299.03,-360.49 303.46,-357.43 295.06,-359.99 295.06,-359.99"/>
<ellipse fill="none" stroke="black" cx="291.89" cy="-359.58" rx="3.2" ry="3.2"/>
</g>
<!-- ad_printformat -->
<g id="node4" class="node">
<title>ad_printformat</title>
<g id="a_node4"><a xlink:href="../../tables/ad_printformat.html" xlink:title="ad_printformat" target="_top">
<polygon fill="#ffffff" stroke="transparent" points="32,-204 32,-548 229,-548 229,-204 32,-204"/>
<polygon fill="#f5f5f5" stroke="transparent" points="32.5,-526 32.5,-548 229.5,-548 229.5,-526 32.5,-526"/>
<polygon fill="none" stroke="black" points="32.5,-526 32.5,-548 229.5,-548 229.5,-526 32.5,-526"/>
<text text-anchor="start" x="37.5" y="-535.2" font-family="Helvetica,sans-Serif" font-weight="bold" font-size="11.00">ad_printformat</text>
<text text-anchor="start" x="194.5" y="-534.2" font-family="Helvetica,sans-Serif" font-size="11.00">[table]</text>
<polygon fill="none" stroke="black" points="32.5,-504 32.5,-526 229.5,-526 229.5,-504 32.5,-504"/>
<image xlink:href="../../images/primaryKeys.png" width="11px" height="12px" preserveAspectRatio="xMinYMin meet" x="37.5" y="-521"/>
<text text-anchor="start" x="52.5" y="-512.2" font-family="Helvetica,sans-Serif" font-size="11.00">ad_printformat_id</text>
<polygon fill="#ffffff" stroke="transparent" points="32.5,-482 32.5,-504 229.5,-504 229.5,-482 32.5,-482"/>
<polygon fill="none" stroke="black" points="32.5,-482 32.5,-504 229.5,-504 229.5,-482 32.5,-482"/>
<text text-anchor="start" x="52.5" y="-490.2" font-family="Helvetica,sans-Serif" font-size="11.00">ad_client_id</text>
<polygon fill="#ffffff" stroke="transparent" points="32.5,-460 32.5,-482 229.5,-482 229.5,-460 32.5,-460"/>
<polygon fill="none" stroke="black" points="32.5,-460 32.5,-482 229.5,-482 229.5,-460 32.5,-460"/>
<text text-anchor="start" x="52.5" y="-468.2" font-family="Helvetica,sans-Serif" font-size="11.00">name</text>
<polygon fill="#ffffff" stroke="transparent" points="32.5,-438 32.5,-460 229.5,-460 229.5,-438 32.5,-438"/>
<polygon fill="none" stroke="black" points="32.5,-438 32.5,-460 229.5,-460 229.5,-438 32.5,-438"/>
<image xlink:href="../../images/foreignKeys.png" width="11px" height="12px" preserveAspectRatio="xMinYMin meet" x="37.5" y="-455"/>
<text text-anchor="start" x="52.5" y="-446.2" font-family="Helvetica,sans-Serif" font-size="11.00">ad_table_id</text>
<polygon fill="none" stroke="black" points="32.5,-416 32.5,-438 229.5,-438 229.5,-416 32.5,-416"/>
<image xlink:href="../../images/foreignKeys.png" width="11px" height="12px" preserveAspectRatio="xMinYMin meet" x="37.5" y="-433"/>
<text text-anchor="start" x="52.5" y="-424.2" font-family="Helvetica,sans-Serif" font-size="11.00">ad_printpaper_id</text>
<polygon fill="none" stroke="black" points="32.5,-394 32.5,-416 229.5,-416 229.5,-394 32.5,-394"/>
<image xlink:href="../../images/foreignKeys.png" width="11px" height="12px" preserveAspectRatio="xMinYMin meet" x="37.5" y="-411"/>
<text text-anchor="start" x="52.5" y="-402.2" font-family="Helvetica,sans-Serif" font-size="11.00">ad_printcolor_id</text>
<polygon fill="none" stroke="black" points="32.5,-372 32.5,-394 229.5,-394 229.5,-372 32.5,-372"/>
<image xlink:href="../../images/foreignKeys.png" width="11px" height="12px" preserveAspectRatio="xMinYMin meet" x="37.5" y="-389"/>
<text text-anchor="start" x="52.5" y="-380.2" font-family="Helvetica,sans-Serif" font-size="11.00">ad_printfont_id</text>
<polygon fill="none" stroke="black" points="32.5,-350 32.5,-372 229.5,-372 229.5,-350 32.5,-350"/>
<image xlink:href="../../images/foreignKeys.png" width="11px" height="12px" preserveAspectRatio="xMinYMin meet" x="37.5" y="-367"/>
<text text-anchor="start" x="52.5" y="-358.2" font-family="Helvetica,sans-Serif" font-size="11.00">ad_reportview_id</text>
<polygon fill="none" stroke="black" points="32.5,-328 32.5,-350 229.5,-350 229.5,-328 32.5,-328"/>
<image xlink:href="../../images/foreignKeys.png" width="11px" height="12px" preserveAspectRatio="xMinYMin meet" x="37.5" y="-345"/>
<text text-anchor="start" x="52.5" y="-336.2" font-family="Helvetica,sans-Serif" font-size="11.00">ad_printtableformat_id</text>
<polygon fill="none" stroke="black" points="32.5,-306 32.5,-328 229.5,-328 229.5,-306 32.5,-306"/>
<image xlink:href="../../images/foreignKeys.png" width="11px" height="12px" preserveAspectRatio="xMinYMin meet" x="37.5" y="-323"/>
<text text-anchor="start" x="52.5" y="-314.2" font-family="Helvetica,sans-Serif" font-size="11.00">jasperprocess_id</text>
<polygon fill="#ffffff" stroke="transparent" points="32.5,-284 32.5,-306 229.5,-306 229.5,-284 32.5,-284"/>
<polygon fill="none" stroke="black" points="32.5,-284 32.5,-306 229.5,-306 229.5,-284 32.5,-284"/>
<text text-anchor="start" x="52.5" y="-292.2" font-family="Helvetica,sans-Serif" font-size="11.00">ad_printformat_uu</text>
<polygon fill="none" stroke="black" points="32.5,-262 32.5,-284 229.5,-284 229.5,-262 32.5,-262"/>
<image xlink:href="../../images/foreignKeys.png" width="11px" height="12px" preserveAspectRatio="xMinYMin meet" x="37.5" y="-279"/>
<text text-anchor="start" x="52.5" y="-270.2" font-family="Helvetica,sans-Serif" font-size="11.00">ad_window_id</text>
<polygon fill="none" stroke="black" points="32.5,-240 32.5,-262 229.5,-262 229.5,-240 32.5,-240"/>
<image xlink:href="../../images/foreignKeys.png" width="11px" height="12px" preserveAspectRatio="xMinYMin meet" x="37.5" y="-257"/>
<text text-anchor="start" x="52.5" y="-248.2" font-family="Helvetica,sans-Serif" font-size="11.00">ad_printheaderfooter_id</text>
<polygon fill="none" stroke="black" points="32.5,-222 32.5,-240 229.5,-240 229.5,-222 32.5,-222"/>
<text text-anchor="start" x="35.5" y="-228.2" font-family="Helvetica,sans-Serif" font-size="11.00">...</text>
<polygon fill="#ffffff" stroke="transparent" points="32.5,-204 32.5,-222 229.5,-222 229.5,-204 32.5,-204"/>
<polygon fill="none" stroke="black" points="32.5,-204 32.5,-222 229.5,-222 229.5,-204 32.5,-204"/>
<polygon fill="#ffffff" stroke="transparent" points="33.5,-205 33.5,-221 87.5,-221 87.5,-205 33.5,-205"/>
<text text-anchor="start" x="35.5" y="-210.2" font-family="Helvetica,sans-Serif" font-size="11.00">&lt; 9</text>
<polygon fill="#ffffff" stroke="transparent" points="87.5,-205 87.5,-221 169.5,-221 169.5,-205 87.5,-205"/>
<text text-anchor="start" x="106" y="-210.2" font-family="Helvetica,sans-Serif" font-size="11.00">339 rows</text>
<polygon fill="#ffffff" stroke="transparent" points="169.5,-205 169.5,-221 228.5,-221 228.5,-205 169.5,-205"/>
<text text-anchor="start" x="204.5" y="-210.2" font-family="Helvetica,sans-Serif" font-size="11.00">25 &gt;</text>
<polygon fill="black" stroke="black" points="87.5,-205 87.5,-221 87.5,-221 87.5,-205 87.5,-205"/>
<polygon fill="black" stroke="black" points="169.5,-205 169.5,-221 169.5,-221 169.5,-205 169.5,-205"/>
</a>
</g>
</g>
<!-- ad_printform&#45;&gt;ad_printformat -->
<g id="edge3" class="edge">
<title>ad_printform:w&#45;&gt;ad_printformat:e</title>
<path fill="none" stroke="black" d="M288.44,-230.4C186.9,-251.98 356.25,-515 230.5,-515"/>
<polygon fill="black" stroke="black" points="295.04,-229.77 303.35,-232.58 299.02,-229.38 303,-229 303,-229 303,-229 299.02,-229.38 302.65,-225.42 295.04,-229.77 295.04,-229.77"/>
<ellipse fill="none" stroke="black" cx="291.85" cy="-230.08" rx="3.2" ry="3.2"/>
</g>
<!-- ad_printform&#45;&gt;ad_printformat -->
<g id="edge5" class="edge">
<title>ad_printform:w&#45;&gt;ad_printformat:e</title>
<path fill="none" stroke="black" d="M288.58,-515C267.39,-515 257.31,-515 230.5,-515"/>
<polygon fill="black" stroke="black" points="295,-515 303,-518.6 299,-515 303,-515 303,-515 303,-515 299,-515 303,-511.4 295,-515 295,-515"/>
<ellipse fill="none" stroke="black" cx="291.8" cy="-515" rx="3.2" ry="3.2"/>
</g>
<!-- ad_printform&#45;&gt;ad_printformat -->
<g id="edge7" class="edge">
<title>ad_printform:w&#45;&gt;ad_printformat:e</title>
<path fill="none" stroke="black" d="M288.64,-274.61C204.67,-295.61 337.41,-515 230.5,-515"/>
<polygon fill="black" stroke="black" points="295.05,-273.89 303.4,-276.58 299.02,-273.45 303,-273 303,-273 303,-273 299.02,-273.45 302.6,-269.42 295.05,-273.89 295.05,-273.89"/>
<ellipse fill="none" stroke="black" cx="291.87" cy="-274.25" rx="3.2" ry="3.2"/>
</g>
<!-- ad_printform&#45;&gt;ad_printformat -->
<g id="edge9" class="edge">
<title>ad_printform:w&#45;&gt;ad_printformat:e</title>
<path fill="none" stroke="black" d="M288.48,-494.58C266.87,-499.63 258.65,-515 230.5,-515"/>
<polygon fill="black" stroke="black" points="295.05,-493.87 303.39,-496.58 299.02,-493.43 303,-493 303,-493 303,-493 299.02,-493.43 302.61,-489.42 295.05,-493.87 295.05,-493.87"/>
<ellipse fill="none" stroke="black" cx="291.87" cy="-494.21" rx="3.2" ry="3.2"/>
</g>
<!-- ad_printform&#45;&gt;ad_printformat -->
<g id="edge11" class="edge">
<title>ad_printform:w&#45;&gt;ad_printformat:e</title>
<path fill="none" stroke="black" d="M288.59,-318.96C222.04,-339.52 318.72,-515 230.5,-515"/>
<polygon fill="black" stroke="black" points="295.07,-318.08 303.49,-320.57 299.04,-317.54 303,-317 303,-317 303,-317 299.04,-317.54 302.51,-313.43 295.07,-318.08 295.07,-318.08"/>
<ellipse fill="none" stroke="black" cx="291.9" cy="-318.51" rx="3.2" ry="3.2"/>
</g>
<!-- ad_printform&#45;&gt;ad_printformat -->
<g id="edge13" class="edge">
<title>ad_printform:w&#45;&gt;ad_printformat:e</title>
<path fill="none" stroke="black" d="M288.63,-473.62C265.27,-483.09 262.6,-515 230.5,-515"/>
<polygon fill="black" stroke="black" points="295.13,-472.44 303.65,-474.54 299.06,-471.72 303,-471 303,-471 303,-471 299.06,-471.72 302.35,-467.46 295.13,-472.44 295.13,-472.44"/>
<ellipse fill="none" stroke="black" cx="291.98" cy="-473.01" rx="3.2" ry="3.2"/>
</g>
<!-- ad_printform&#45;&gt;ad_printformat -->
<g id="edge15" class="edge">
<title>ad_printform:w&#45;&gt;ad_printformat:e</title>
<path fill="none" stroke="black" d="M288.8,-452.01C262.23,-464.92 268.46,-515 230.5,-515"/>
<polygon fill="black" stroke="black" points="295.17,-450.66 303.75,-452.52 299.09,-449.83 303,-449 303,-449 303,-449 299.09,-449.83 302.25,-445.48 295.17,-450.66 295.17,-450.66"/>
<ellipse fill="none" stroke="black" cx="292.04" cy="-451.32" rx="3.2" ry="3.2"/>
</g>
</g>
</svg>
