<?xml version="1.0" encoding="UTF-8" standalone="no"?>
<!DOCTYPE svg PUBLIC "-//W3C//DTD SVG 1.1//EN"
 "http://www.w3.org/Graphics/SVG/1.1/DTD/svg11.dtd">
<!-- Generated by graphviz version 2.43.0 (0)
 -->
<!-- Title: oneDegreeRelationshipsDiagram Pages: 1 -->
<svg width="492pt" height="533pt"
 viewBox="0.00 0.00 492.00 533.00" xmlns="http://www.w3.org/2000/svg" xmlns:xlink="http://www.w3.org/1999/xlink">
<g id="graph0" class="graph" transform="scale(1 1) rotate(0) translate(4 529)">
<title>oneDegreeRelationshipsDiagram</title>
<polygon fill="#ffffff" stroke="transparent" points="-4,4 -4,-529 488,-529 488,4 -4,4"/>
<text text-anchor="middle" x="71.5" y="-7.2" font-family="Helvetica,sans-Serif" font-size="11.00">Generated by SchemaSpy</text>
<!-- ad_pinstance_para -->
<g id="node1" class="node">
<title>ad_pinstance_para</title>
<g id="a_node1"><a xlink:href="../../tables/ad_pinstance_para.html" xlink:title="ad_pinstance_para" target="_top">
<polygon fill="#ffffff" stroke="transparent" points="208,-37 208,-521 476,-521 476,-37 208,-37"/>
<polygon fill="#f5f5f5" stroke="transparent" points="210,-497 210,-519 474,-519 474,-497 210,-497"/>
<polygon fill="none" stroke="black" points="210,-497 210,-519 474,-519 474,-497 210,-497"/>
<text text-anchor="start" x="215" y="-506.2" font-family="Helvetica,sans-Serif" font-weight="bold" font-size="11.00">ad_pinstance_para</text>
<text text-anchor="start" x="439" y="-505.2" font-family="Helvetica,sans-Serif" font-size="11.00">[table]</text>
<polygon fill="none" stroke="black" points="210,-475 210,-497 391,-497 391,-475 210,-475"/>
<image xlink:href="../../images/primaryKeys.png" width="11px" height="12px" preserveAspectRatio="xMinYMin meet" x="215" y="-492"/>
<text text-anchor="start" x="230" y="-483.2" font-family="Helvetica,sans-Serif" font-size="11.00">ad_pinstance_id</text>
<polygon fill="none" stroke="black" points="391,-475 391,-497 474,-497 474,-475 391,-475"/>
<text text-anchor="start" x="394" y="-483.2" font-family="Helvetica,sans-Serif" font-size="11.00">numeric[10]</text>
<polygon fill="none" stroke="black" points="210,-453 210,-475 391,-475 391,-453 210,-453"/>
<image xlink:href="../../images/primaryKeys.png" width="11px" height="12px" preserveAspectRatio="xMinYMin meet" x="215" y="-470"/>
<text text-anchor="start" x="230" y="-461.2" font-family="Helvetica,sans-Serif" font-size="11.00">seqno</text>
<polygon fill="none" stroke="black" points="391,-453 391,-475 474,-475 474,-453 391,-453"/>
<text text-anchor="start" x="394" y="-461.2" font-family="Helvetica,sans-Serif" font-size="11.00">numeric[10]</text>
<polygon fill="none" stroke="black" points="210,-431 210,-453 391,-453 391,-431 210,-431"/>
<text text-anchor="start" x="230" y="-439.2" font-family="Helvetica,sans-Serif" font-size="11.00">parametername</text>
<polygon fill="none" stroke="black" points="391,-431 391,-453 474,-453 474,-431 391,-431"/>
<text text-anchor="start" x="394" y="-439.2" font-family="Helvetica,sans-Serif" font-size="11.00">varchar[60]</text>
<polygon fill="none" stroke="black" points="210,-409 210,-431 391,-431 391,-409 210,-409"/>
<text text-anchor="start" x="230" y="-417.2" font-family="Helvetica,sans-Serif" font-size="11.00">p_string</text>
<polygon fill="none" stroke="black" points="391,-409 391,-431 474,-431 474,-409 391,-409"/>
<text text-anchor="start" x="394" y="-417.2" font-family="Helvetica,sans-Serif" font-size="11.00">varchar[4000]</text>
<polygon fill="none" stroke="black" points="210,-387 210,-409 391,-409 391,-387 210,-387"/>
<text text-anchor="start" x="230" y="-395.2" font-family="Helvetica,sans-Serif" font-size="11.00">p_string_to</text>
<polygon fill="none" stroke="black" points="391,-387 391,-409 474,-409 474,-387 391,-387"/>
<text text-anchor="start" x="394" y="-395.2" font-family="Helvetica,sans-Serif" font-size="11.00">varchar[4000]</text>
<polygon fill="none" stroke="black" points="210,-365 210,-387 391,-387 391,-365 210,-365"/>
<text text-anchor="start" x="230" y="-373.2" font-family="Helvetica,sans-Serif" font-size="11.00">p_number</text>
<polygon fill="none" stroke="black" points="391,-365 391,-387 474,-387 474,-365 391,-365"/>
<text text-anchor="start" x="394" y="-373.2" font-family="Helvetica,sans-Serif" font-size="11.00">numeric[0]</text>
<polygon fill="none" stroke="black" points="210,-343 210,-365 391,-365 391,-343 210,-343"/>
<text text-anchor="start" x="230" y="-351.2" font-family="Helvetica,sans-Serif" font-size="11.00">p_number_to</text>
<polygon fill="none" stroke="black" points="391,-343 391,-365 474,-365 474,-343 391,-343"/>
<text text-anchor="start" x="394" y="-351.2" font-family="Helvetica,sans-Serif" font-size="11.00">numeric[0]</text>
<polygon fill="none" stroke="black" points="210,-321 210,-343 391,-343 391,-321 210,-321"/>
<text text-anchor="start" x="230" y="-329.2" font-family="Helvetica,sans-Serif" font-size="11.00">p_date</text>
<polygon fill="none" stroke="black" points="391,-321 391,-343 474,-343 474,-321 391,-321"/>
<text text-anchor="start" x="394" y="-329.2" font-family="Helvetica,sans-Serif" font-size="11.00">timestamp[29,6]</text>
<polygon fill="none" stroke="black" points="210,-299 210,-321 391,-321 391,-299 210,-299"/>
<text text-anchor="start" x="230" y="-307.2" font-family="Helvetica,sans-Serif" font-size="11.00">p_date_to</text>
<polygon fill="none" stroke="black" points="391,-299 391,-321 474,-321 474,-299 391,-299"/>
<text text-anchor="start" x="394" y="-307.2" font-family="Helvetica,sans-Serif" font-size="11.00">timestamp[29,6]</text>
<polygon fill="none" stroke="black" points="210,-277 210,-299 391,-299 391,-277 210,-277"/>
<text text-anchor="start" x="230" y="-285.2" font-family="Helvetica,sans-Serif" font-size="11.00">info</text>
<polygon fill="none" stroke="black" points="391,-277 391,-299 474,-299 474,-277 391,-277"/>
<text text-anchor="start" x="394" y="-285.2" font-family="Helvetica,sans-Serif" font-size="11.00">varchar[4000]</text>
<polygon fill="none" stroke="black" points="210,-255 210,-277 391,-277 391,-255 210,-255"/>
<text text-anchor="start" x="230" y="-263.2" font-family="Helvetica,sans-Serif" font-size="11.00">info_to</text>
<polygon fill="none" stroke="black" points="391,-255 391,-277 474,-277 474,-255 391,-255"/>
<text text-anchor="start" x="394" y="-263.2" font-family="Helvetica,sans-Serif" font-size="11.00">varchar[4000]</text>
<polygon fill="none" stroke="black" points="210,-233 210,-255 391,-255 391,-233 210,-233"/>
<text text-anchor="start" x="230" y="-241.2" font-family="Helvetica,sans-Serif" font-size="11.00">ad_client_id</text>
<polygon fill="none" stroke="black" points="391,-233 391,-255 474,-255 474,-233 391,-233"/>
<text text-anchor="start" x="394" y="-241.2" font-family="Helvetica,sans-Serif" font-size="11.00">numeric[10]</text>
<polygon fill="none" stroke="black" points="210,-211 210,-233 391,-233 391,-211 210,-211"/>
<text text-anchor="start" x="230" y="-219.2" font-family="Helvetica,sans-Serif" font-size="11.00">ad_org_id</text>
<polygon fill="none" stroke="black" points="391,-211 391,-233 474,-233 474,-211 391,-211"/>
<text text-anchor="start" x="394" y="-219.2" font-family="Helvetica,sans-Serif" font-size="11.00">numeric[10]</text>
<polygon fill="none" stroke="black" points="210,-189 210,-211 391,-211 391,-189 210,-189"/>
<text text-anchor="start" x="230" y="-197.2" font-family="Helvetica,sans-Serif" font-size="11.00">created</text>
<polygon fill="none" stroke="black" points="391,-189 391,-211 474,-211 474,-189 391,-189"/>
<text text-anchor="start" x="394" y="-197.2" font-family="Helvetica,sans-Serif" font-size="11.00">timestamp[29,6]</text>
<polygon fill="none" stroke="black" points="210,-167 210,-189 391,-189 391,-167 210,-167"/>
<text text-anchor="start" x="230" y="-175.2" font-family="Helvetica,sans-Serif" font-size="11.00">createdby</text>
<polygon fill="none" stroke="black" points="391,-167 391,-189 474,-189 474,-167 391,-167"/>
<text text-anchor="start" x="394" y="-175.2" font-family="Helvetica,sans-Serif" font-size="11.00">numeric[10]</text>
<polygon fill="none" stroke="black" points="210,-145 210,-167 391,-167 391,-145 210,-145"/>
<text text-anchor="start" x="230" y="-153.2" font-family="Helvetica,sans-Serif" font-size="11.00">updated</text>
<polygon fill="none" stroke="black" points="391,-145 391,-167 474,-167 474,-145 391,-145"/>
<text text-anchor="start" x="394" y="-153.2" font-family="Helvetica,sans-Serif" font-size="11.00">timestamp[29,6]</text>
<polygon fill="none" stroke="black" points="210,-123 210,-145 391,-145 391,-123 210,-123"/>
<text text-anchor="start" x="230" y="-131.2" font-family="Helvetica,sans-Serif" font-size="11.00">updatedby</text>
<polygon fill="none" stroke="black" points="391,-123 391,-145 474,-145 474,-123 391,-123"/>
<text text-anchor="start" x="394" y="-131.2" font-family="Helvetica,sans-Serif" font-size="11.00">numeric[10]</text>
<polygon fill="none" stroke="black" points="210,-101 210,-123 391,-123 391,-101 210,-101"/>
<text text-anchor="start" x="230" y="-109.2" font-family="Helvetica,sans-Serif" font-size="11.00">isactive</text>
<polygon fill="none" stroke="black" points="391,-101 391,-123 474,-123 474,-101 391,-101"/>
<text text-anchor="start" x="394" y="-109.2" font-family="Helvetica,sans-Serif" font-size="11.00">bpchar[1]</text>
<polygon fill="#ffffff" stroke="transparent" points="210,-79 210,-101 391,-101 391,-79 210,-79"/>
<polygon fill="none" stroke="black" points="210,-79 210,-101 391,-101 391,-79 210,-79"/>
<text text-anchor="start" x="230" y="-87.2" font-family="Helvetica,sans-Serif" font-size="11.00">ad_pinstance_para_uu</text>
<polygon fill="none" stroke="black" points="391,-79 391,-101 474,-101 474,-79 391,-79"/>
<text text-anchor="start" x="394" y="-87.2" font-family="Helvetica,sans-Serif" font-size="11.00">varchar[36]</text>
<polygon fill="none" stroke="black" points="210,-57 210,-79 391,-79 391,-57 210,-57"/>
<text text-anchor="start" x="230" y="-65.2" font-family="Helvetica,sans-Serif" font-size="11.00">isnotclause</text>
<polygon fill="none" stroke="black" points="391,-57 391,-79 474,-79 474,-57 391,-57"/>
<text text-anchor="start" x="394" y="-65.2" font-family="Helvetica,sans-Serif" font-size="11.00">bpchar[1]</text>
<polygon fill="#ffffff" stroke="transparent" points="210,-39 210,-57 474,-57 474,-39 210,-39"/>
<polygon fill="none" stroke="black" points="210,-39 210,-57 474,-57 474,-39 210,-39"/>
<polygon fill="#ffffff" stroke="transparent" points="211,-40 211,-56 286,-56 286,-40 211,-40"/>
<text text-anchor="start" x="213" y="-45.2" font-family="Helvetica,sans-Serif" font-size="11.00">&lt; 1</text>
<polygon fill="#ffffff" stroke="transparent" points="286,-40 286,-56 399,-56 399,-40 286,-40"/>
<text text-anchor="start" x="315.5" y="-45.2" font-family="Helvetica,sans-Serif" font-size="11.00">1.562 rows</text>
<polygon fill="#ffffff" stroke="transparent" points="399,-40 399,-56 473,-56 473,-40 399,-40"/>
<text text-anchor="start" x="455" y="-45.2" font-family="Helvetica,sans-Serif" font-size="11.00">0 &gt;</text>
<polygon fill="black" stroke="black" points="286,-40 286,-56 286,-56 286,-40 286,-40"/>
<polygon fill="black" stroke="black" points="399,-40 399,-56 399,-56 399,-40 399,-40"/>
<polygon fill="none" stroke="black" stroke-width="2" points="209,-38 209,-520 475,-520 475,-38 209,-38"/>
</a>
</g>
</g>
<!-- ad_pinstance -->
<g id="node2" class="node">
<title>ad_pinstance</title>
<g id="a_node2"><a xlink:href="../../tables/ad_pinstance.html" xlink:title="ad_pinstance" target="_top">
<polygon fill="#ffffff" stroke="transparent" points="8,-197 8,-519 159,-519 159,-197 8,-197"/>
<polygon fill="#f5f5f5" stroke="transparent" points="8.5,-497 8.5,-519 159.5,-519 159.5,-497 8.5,-497"/>
<polygon fill="none" stroke="black" points="8.5,-497 8.5,-519 159.5,-519 159.5,-497 8.5,-497"/>
<text text-anchor="start" x="13.5" y="-506.2" font-family="Helvetica,sans-Serif" font-weight="bold" font-size="11.00">ad_pinstance</text>
<text text-anchor="start" x="124.5" y="-505.2" font-family="Helvetica,sans-Serif" font-size="11.00">[table]</text>
<polygon fill="none" stroke="black" points="8.5,-475 8.5,-497 159.5,-497 159.5,-475 8.5,-475"/>
<image xlink:href="../../images/primaryKeys.png" width="11px" height="12px" preserveAspectRatio="xMinYMin meet" x="13.5" y="-492"/>
<text text-anchor="start" x="28.5" y="-483.2" font-family="Helvetica,sans-Serif" font-size="11.00">ad_pinstance_id</text>
<polygon fill="#ffffff" stroke="transparent" points="8.5,-453 8.5,-475 159.5,-475 159.5,-453 8.5,-453"/>
<polygon fill="none" stroke="black" points="8.5,-453 8.5,-475 159.5,-475 159.5,-453 8.5,-453"/>
<image xlink:href="../../images/foreignKeys.png" width="11px" height="12px" preserveAspectRatio="xMinYMin meet" x="13.5" y="-470"/>
<text text-anchor="start" x="28.5" y="-461.2" font-family="Helvetica,sans-Serif" font-size="11.00">ad_process_id</text>
<polygon fill="#ffffff" stroke="transparent" points="8.5,-431 8.5,-453 159.5,-453 159.5,-431 8.5,-431"/>
<polygon fill="none" stroke="black" points="8.5,-431 8.5,-453 159.5,-453 159.5,-431 8.5,-431"/>
<text text-anchor="start" x="28.5" y="-439.2" font-family="Helvetica,sans-Serif" font-size="11.00">record_id</text>
<polygon fill="#ffffff" stroke="transparent" points="8.5,-409 8.5,-431 159.5,-431 159.5,-409 8.5,-409"/>
<polygon fill="none" stroke="black" points="8.5,-409 8.5,-431 159.5,-431 159.5,-409 8.5,-409"/>
<image xlink:href="../../images/foreignKeys.png" width="11px" height="12px" preserveAspectRatio="xMinYMin meet" x="13.5" y="-426"/>
<text text-anchor="start" x="28.5" y="-417.2" font-family="Helvetica,sans-Serif" font-size="11.00">ad_user_id</text>
<polygon fill="#ffffff" stroke="transparent" points="8.5,-387 8.5,-409 159.5,-409 159.5,-387 8.5,-387"/>
<polygon fill="none" stroke="black" points="8.5,-387 8.5,-409 159.5,-409 159.5,-387 8.5,-387"/>
<text text-anchor="start" x="28.5" y="-395.2" font-family="Helvetica,sans-Serif" font-size="11.00">ad_client_id</text>
<polygon fill="#ffffff" stroke="transparent" points="8.5,-365 8.5,-387 159.5,-387 159.5,-365 8.5,-365"/>
<polygon fill="none" stroke="black" points="8.5,-365 8.5,-387 159.5,-387 159.5,-365 8.5,-365"/>
<text text-anchor="start" x="28.5" y="-373.2" font-family="Helvetica,sans-Serif" font-size="11.00">isactive</text>
<polygon fill="#ffffff" stroke="transparent" points="8.5,-343 8.5,-365 159.5,-365 159.5,-343 8.5,-343"/>
<polygon fill="none" stroke="black" points="8.5,-343 8.5,-365 159.5,-365 159.5,-343 8.5,-343"/>
<text text-anchor="start" x="28.5" y="-351.2" font-family="Helvetica,sans-Serif" font-size="11.00">ad_pinstance_uu</text>
<polygon fill="#ffffff" stroke="transparent" points="8.5,-321 8.5,-343 159.5,-343 159.5,-321 8.5,-321"/>
<polygon fill="none" stroke="black" points="8.5,-321 8.5,-343 159.5,-343 159.5,-321 8.5,-321"/>
<text text-anchor="start" x="28.5" y="-329.2" font-family="Helvetica,sans-Serif" font-size="11.00">name</text>
<polygon fill="none" stroke="black" points="8.5,-299 8.5,-321 159.5,-321 159.5,-299 8.5,-299"/>
<image xlink:href="../../images/foreignKeys.png" width="11px" height="12px" preserveAspectRatio="xMinYMin meet" x="13.5" y="-316"/>
<text text-anchor="start" x="28.5" y="-307.2" font-family="Helvetica,sans-Serif" font-size="11.00">ad_printformat_id</text>
<polygon fill="none" stroke="black" points="8.5,-277 8.5,-299 159.5,-299 159.5,-277 8.5,-277"/>
<image xlink:href="../../images/foreignKeys.png" width="11px" height="12px" preserveAspectRatio="xMinYMin meet" x="13.5" y="-294"/>
<text text-anchor="start" x="28.5" y="-285.2" font-family="Helvetica,sans-Serif" font-size="11.00">ad_language_id</text>
<polygon fill="none" stroke="black" points="8.5,-255 8.5,-277 159.5,-277 159.5,-255 8.5,-255"/>
<image xlink:href="../../images/foreignKeys.png" width="11px" height="12px" preserveAspectRatio="xMinYMin meet" x="13.5" y="-272"/>
<text text-anchor="start" x="28.5" y="-263.2" font-family="Helvetica,sans-Serif" font-size="11.00">ad_session_id</text>
<polygon fill="none" stroke="black" points="8.5,-233 8.5,-255 159.5,-255 159.5,-233 8.5,-233"/>
<image xlink:href="../../images/foreignKeys.png" width="11px" height="12px" preserveAspectRatio="xMinYMin meet" x="13.5" y="-250"/>
<text text-anchor="start" x="28.5" y="-241.2" font-family="Helvetica,sans-Serif" font-size="11.00">ad_table_id</text>
<polygon fill="none" stroke="black" points="8.5,-215 8.5,-233 159.5,-233 159.5,-215 8.5,-215"/>
<text text-anchor="start" x="11.5" y="-221.2" font-family="Helvetica,sans-Serif" font-size="11.00">...</text>
<polygon fill="#ffffff" stroke="transparent" points="8.5,-197 8.5,-215 159.5,-215 159.5,-197 8.5,-197"/>
<polygon fill="none" stroke="black" points="8.5,-197 8.5,-215 159.5,-215 159.5,-197 8.5,-197"/>
<polygon fill="#ffffff" stroke="transparent" points="9.5,-198 9.5,-214 44.5,-214 44.5,-198 9.5,-198"/>
<text text-anchor="start" x="11.5" y="-203.2" font-family="Helvetica,sans-Serif" font-size="11.00">&lt; 6</text>
<polygon fill="#ffffff" stroke="transparent" points="44.5,-198 44.5,-214 117.5,-214 117.5,-198 44.5,-198"/>
<text text-anchor="start" x="54" y="-203.2" font-family="Helvetica,sans-Serif" font-size="11.00">1.652 rows</text>
<polygon fill="#ffffff" stroke="transparent" points="117.5,-198 117.5,-214 158.5,-214 158.5,-198 117.5,-198"/>
<text text-anchor="start" x="134.5" y="-203.2" font-family="Helvetica,sans-Serif" font-size="11.00">22 &gt;</text>
<polygon fill="black" stroke="black" points="44.5,-198 44.5,-214 44.5,-214 44.5,-198 44.5,-198"/>
<polygon fill="black" stroke="black" points="117.5,-198 117.5,-214 117.5,-214 117.5,-198 117.5,-198"/>
</a>
</g>
</g>
<!-- ad_pinstance_para&#45;&gt;ad_pinstance -->
<g id="edge1" class="edge">
<title>ad_pinstance_para:w&#45;&gt;ad_pinstance:e</title>
<path fill="none" stroke="black" d="M194.28,-486C183.29,-486 176.16,-486 160.5,-486"/>
<polygon fill="black" stroke="black" points="201,-486 209,-489.6 205,-486 209,-486 209,-486 209,-486 205,-486 209,-482.4 201,-486 201,-486"/>
<ellipse fill="none" stroke="black" cx="197.8" cy="-486" rx="3.2" ry="3.2"/>
</g>
</g>
</svg>
