<?xml version="1.0" encoding="UTF-8" standalone="no"?>
<!DOCTYPE svg PUBLIC "-//W3C//DTD SVG 1.1//EN"
 "http://www.w3.org/Graphics/SVG/1.1/DTD/svg11.dtd">
<!-- Generated by graphviz version 2.43.0 (0)
 -->
<!-- Title: oneDegreeRelationshipsDiagram Pages: 1 -->
<svg width="576pt" height="527pt"
 viewBox="0.00 0.00 576.00 527.00" xmlns="http://www.w3.org/2000/svg" xmlns:xlink="http://www.w3.org/1999/xlink">
<g id="graph0" class="graph" transform="scale(1 1) rotate(0) translate(4 523)">
<title>oneDegreeRelationshipsDiagram</title>
<polygon fill="#ffffff" stroke="transparent" points="-4,4 -4,-523 572,-523 572,4 -4,4"/>
<text text-anchor="middle" x="71.5" y="-7.2" font-family="Helvetica,sans-Serif" font-size="11.00">Generated by SchemaSpy</text>
<!-- ad_printformatitem_trl -->
<g id="node1" class="node">
<title>ad_printformatitem_trl</title>
<g id="a_node1"><a xlink:href="../../tables/ad_printformatitem_trl.html" xlink:title="ad_printformatitem_trl" target="_top">
<polygon fill="#ffffff" stroke="transparent" points="261,-37 261,-389 560,-389 560,-37 261,-37"/>
<polygon fill="#f5f5f5" stroke="transparent" points="263.5,-365 263.5,-387 558.5,-387 558.5,-365 263.5,-365"/>
<polygon fill="none" stroke="black" points="263.5,-365 263.5,-387 558.5,-387 558.5,-365 263.5,-365"/>
<text text-anchor="start" x="268.5" y="-374.2" font-family="Helvetica,sans-Serif" font-weight="bold" font-size="11.00">ad_printformatitem_trl</text>
<text text-anchor="start" x="523.5" y="-373.2" font-family="Helvetica,sans-Serif" font-size="11.00">[table]</text>
<polygon fill="none" stroke="black" points="263.5,-343 263.5,-365 475.5,-365 475.5,-343 263.5,-343"/>
<image xlink:href="../../images/primaryKeys.png" width="11px" height="12px" preserveAspectRatio="xMinYMin meet" x="268.5" y="-360"/>
<text text-anchor="start" x="283.5" y="-351.2" font-family="Helvetica,sans-Serif" font-size="11.00">ad_printformatitem_id</text>
<polygon fill="none" stroke="black" points="475.5,-343 475.5,-365 558.5,-365 558.5,-343 475.5,-343"/>
<text text-anchor="start" x="478.5" y="-351.2" font-family="Helvetica,sans-Serif" font-size="11.00">numeric[10]</text>
<polygon fill="none" stroke="black" points="263.5,-321 263.5,-343 475.5,-343 475.5,-321 263.5,-321"/>
<image xlink:href="../../images/primaryKeys.png" width="11px" height="12px" preserveAspectRatio="xMinYMin meet" x="268.5" y="-338"/>
<text text-anchor="start" x="283.5" y="-329.2" font-family="Helvetica,sans-Serif" font-size="11.00">ad_language</text>
<polygon fill="none" stroke="black" points="475.5,-321 475.5,-343 558.5,-343 558.5,-321 475.5,-321"/>
<text text-anchor="start" x="478.5" y="-329.2" font-family="Helvetica,sans-Serif" font-size="11.00">varchar[6]</text>
<polygon fill="none" stroke="black" points="263.5,-299 263.5,-321 475.5,-321 475.5,-299 263.5,-299"/>
<text text-anchor="start" x="283.5" y="-307.2" font-family="Helvetica,sans-Serif" font-size="11.00">ad_client_id</text>
<polygon fill="none" stroke="black" points="475.5,-299 475.5,-321 558.5,-321 558.5,-299 475.5,-299"/>
<text text-anchor="start" x="478.5" y="-307.2" font-family="Helvetica,sans-Serif" font-size="11.00">numeric[10]</text>
<polygon fill="none" stroke="black" points="263.5,-277 263.5,-299 475.5,-299 475.5,-277 263.5,-277"/>
<text text-anchor="start" x="283.5" y="-285.2" font-family="Helvetica,sans-Serif" font-size="11.00">ad_org_id</text>
<polygon fill="none" stroke="black" points="475.5,-277 475.5,-299 558.5,-299 558.5,-277 475.5,-277"/>
<text text-anchor="start" x="478.5" y="-285.2" font-family="Helvetica,sans-Serif" font-size="11.00">numeric[10]</text>
<polygon fill="none" stroke="black" points="263.5,-255 263.5,-277 475.5,-277 475.5,-255 263.5,-255"/>
<text text-anchor="start" x="283.5" y="-263.2" font-family="Helvetica,sans-Serif" font-size="11.00">isactive</text>
<polygon fill="none" stroke="black" points="475.5,-255 475.5,-277 558.5,-277 558.5,-255 475.5,-255"/>
<text text-anchor="start" x="478.5" y="-263.2" font-family="Helvetica,sans-Serif" font-size="11.00">bpchar[1]</text>
<polygon fill="none" stroke="black" points="263.5,-233 263.5,-255 475.5,-255 475.5,-233 263.5,-233"/>
<text text-anchor="start" x="283.5" y="-241.2" font-family="Helvetica,sans-Serif" font-size="11.00">created</text>
<polygon fill="none" stroke="black" points="475.5,-233 475.5,-255 558.5,-255 558.5,-233 475.5,-233"/>
<text text-anchor="start" x="478.5" y="-241.2" font-family="Helvetica,sans-Serif" font-size="11.00">timestamp[29,6]</text>
<polygon fill="none" stroke="black" points="263.5,-211 263.5,-233 475.5,-233 475.5,-211 263.5,-211"/>
<text text-anchor="start" x="283.5" y="-219.2" font-family="Helvetica,sans-Serif" font-size="11.00">createdby</text>
<polygon fill="none" stroke="black" points="475.5,-211 475.5,-233 558.5,-233 558.5,-211 475.5,-211"/>
<text text-anchor="start" x="478.5" y="-219.2" font-family="Helvetica,sans-Serif" font-size="11.00">numeric[10]</text>
<polygon fill="none" stroke="black" points="263.5,-189 263.5,-211 475.5,-211 475.5,-189 263.5,-189"/>
<text text-anchor="start" x="283.5" y="-197.2" font-family="Helvetica,sans-Serif" font-size="11.00">updated</text>
<polygon fill="none" stroke="black" points="475.5,-189 475.5,-211 558.5,-211 558.5,-189 475.5,-189"/>
<text text-anchor="start" x="478.5" y="-197.2" font-family="Helvetica,sans-Serif" font-size="11.00">timestamp[29,6]</text>
<polygon fill="none" stroke="black" points="263.5,-167 263.5,-189 475.5,-189 475.5,-167 263.5,-167"/>
<text text-anchor="start" x="283.5" y="-175.2" font-family="Helvetica,sans-Serif" font-size="11.00">updatedby</text>
<polygon fill="none" stroke="black" points="475.5,-167 475.5,-189 558.5,-189 558.5,-167 475.5,-167"/>
<text text-anchor="start" x="478.5" y="-175.2" font-family="Helvetica,sans-Serif" font-size="11.00">numeric[10]</text>
<polygon fill="none" stroke="black" points="263.5,-145 263.5,-167 475.5,-167 475.5,-145 263.5,-145"/>
<text text-anchor="start" x="283.5" y="-153.2" font-family="Helvetica,sans-Serif" font-size="11.00">printname</text>
<polygon fill="none" stroke="black" points="475.5,-145 475.5,-167 558.5,-167 558.5,-145 475.5,-145"/>
<text text-anchor="start" x="478.5" y="-153.2" font-family="Helvetica,sans-Serif" font-size="11.00">varchar[2000]</text>
<polygon fill="none" stroke="black" points="263.5,-123 263.5,-145 475.5,-145 475.5,-123 263.5,-123"/>
<text text-anchor="start" x="283.5" y="-131.2" font-family="Helvetica,sans-Serif" font-size="11.00">istranslated</text>
<polygon fill="none" stroke="black" points="475.5,-123 475.5,-145 558.5,-145 558.5,-123 475.5,-123"/>
<text text-anchor="start" x="478.5" y="-131.2" font-family="Helvetica,sans-Serif" font-size="11.00">bpchar[1]</text>
<polygon fill="none" stroke="black" points="263.5,-101 263.5,-123 475.5,-123 475.5,-101 263.5,-101"/>
<text text-anchor="start" x="283.5" y="-109.2" font-family="Helvetica,sans-Serif" font-size="11.00">printnamesuffix</text>
<polygon fill="none" stroke="black" points="475.5,-101 475.5,-123 558.5,-123 558.5,-101 475.5,-101"/>
<text text-anchor="start" x="478.5" y="-109.2" font-family="Helvetica,sans-Serif" font-size="11.00">varchar[60]</text>
<polygon fill="#ffffff" stroke="transparent" points="263.5,-79 263.5,-101 475.5,-101 475.5,-79 263.5,-79"/>
<polygon fill="none" stroke="black" points="263.5,-79 263.5,-101 475.5,-101 475.5,-79 263.5,-79"/>
<text text-anchor="start" x="283.5" y="-87.2" font-family="Helvetica,sans-Serif" font-size="11.00">ad_printformatitem_trl_uu</text>
<polygon fill="none" stroke="black" points="475.5,-79 475.5,-101 558.5,-101 558.5,-79 475.5,-79"/>
<text text-anchor="start" x="478.5" y="-87.2" font-family="Helvetica,sans-Serif" font-size="11.00">varchar[36]</text>
<polygon fill="none" stroke="black" points="263.5,-57 263.5,-79 475.5,-79 475.5,-57 263.5,-57"/>
<text text-anchor="start" x="283.5" y="-65.2" font-family="Helvetica,sans-Serif" font-size="11.00">name</text>
<polygon fill="none" stroke="black" points="475.5,-57 475.5,-79 558.5,-79 558.5,-57 475.5,-57"/>
<text text-anchor="start" x="478.5" y="-65.2" font-family="Helvetica,sans-Serif" font-size="11.00">varchar[60]</text>
<polygon fill="#ffffff" stroke="transparent" points="263.5,-39 263.5,-57 558.5,-57 558.5,-39 263.5,-39"/>
<polygon fill="none" stroke="black" points="263.5,-39 263.5,-57 558.5,-57 558.5,-39 263.5,-39"/>
<polygon fill="#ffffff" stroke="transparent" points="264.5,-40 264.5,-56 347.5,-56 347.5,-40 264.5,-40"/>
<text text-anchor="start" x="266.5" y="-45.2" font-family="Helvetica,sans-Serif" font-size="11.00">&lt; 2</text>
<polygon fill="#ffffff" stroke="transparent" points="347.5,-40 347.5,-56 474.5,-56 474.5,-40 347.5,-40"/>
<text text-anchor="start" x="381" y="-45.2" font-family="Helvetica,sans-Serif" font-size="11.00">38.832 rows</text>
<polygon fill="#ffffff" stroke="transparent" points="474.5,-40 474.5,-56 557.5,-56 557.5,-40 474.5,-40"/>
<text text-anchor="start" x="539.5" y="-45.2" font-family="Helvetica,sans-Serif" font-size="11.00">0 &gt;</text>
<polygon fill="black" stroke="black" points="347.5,-40 347.5,-56 347.5,-56 347.5,-40 347.5,-40"/>
<polygon fill="black" stroke="black" points="474.5,-40 474.5,-56 474.5,-56 474.5,-40 474.5,-40"/>
<polygon fill="none" stroke="black" stroke-width="2" points="262,-38 262,-388 559,-388 559,-38 262,-38"/>
</a>
</g>
</g>
<!-- ad_language -->
<g id="node2" class="node">
<title>ad_language</title>
<g id="a_node2"><a xlink:href="../../tables/ad_language.html" xlink:title="ad_language" target="_top">
<polygon fill="#ffffff" stroke="transparent" points="33.5,-48 33.5,-238 186.5,-238 186.5,-48 33.5,-48"/>
<polygon fill="#f5f5f5" stroke="transparent" points="34,-216 34,-238 187,-238 187,-216 34,-216"/>
<polygon fill="none" stroke="black" points="34,-216 34,-238 187,-238 187,-216 34,-216"/>
<text text-anchor="start" x="39" y="-225.2" font-family="Helvetica,sans-Serif" font-weight="bold" font-size="11.00">ad_language</text>
<text text-anchor="start" x="152" y="-224.2" font-family="Helvetica,sans-Serif" font-size="11.00">[table]</text>
<polygon fill="none" stroke="black" points="34,-194 34,-216 187,-216 187,-194 34,-194"/>
<image xlink:href="../../images/primaryKeys.png" width="11px" height="12px" preserveAspectRatio="xMinYMin meet" x="39" y="-211"/>
<text text-anchor="start" x="54" y="-202.2" font-family="Helvetica,sans-Serif" font-size="11.00">ad_language</text>
<polygon fill="none" stroke="black" points="34,-172 34,-194 187,-194 187,-172 34,-172"/>
<image xlink:href="../../images/foreignKeys.png" width="11px" height="12px" preserveAspectRatio="xMinYMin meet" x="39" y="-189"/>
<text text-anchor="start" x="54" y="-180.2" font-family="Helvetica,sans-Serif" font-size="11.00">ad_client_id</text>
<polygon fill="none" stroke="black" points="34,-150 34,-172 187,-172 187,-150 34,-150"/>
<image xlink:href="../../images/foreignKeys.png" width="11px" height="12px" preserveAspectRatio="xMinYMin meet" x="39" y="-167"/>
<text text-anchor="start" x="54" y="-158.2" font-family="Helvetica,sans-Serif" font-size="11.00">ad_org_id</text>
<polygon fill="#ffffff" stroke="transparent" points="34,-128 34,-150 187,-150 187,-128 34,-128"/>
<polygon fill="none" stroke="black" points="34,-128 34,-150 187,-150 187,-128 34,-128"/>
<text text-anchor="start" x="54" y="-136.2" font-family="Helvetica,sans-Serif" font-size="11.00">ad_language_id</text>
<polygon fill="#ffffff" stroke="transparent" points="34,-106 34,-128 187,-128 187,-106 34,-106"/>
<polygon fill="none" stroke="black" points="34,-106 34,-128 187,-128 187,-106 34,-106"/>
<text text-anchor="start" x="54" y="-114.2" font-family="Helvetica,sans-Serif" font-size="11.00">ad_language_uu</text>
<polygon fill="none" stroke="black" points="34,-84 34,-106 187,-106 187,-84 34,-84"/>
<image xlink:href="../../images/foreignKeys.png" width="11px" height="12px" preserveAspectRatio="xMinYMin meet" x="39" y="-101"/>
<text text-anchor="start" x="54" y="-92.2" font-family="Helvetica,sans-Serif" font-size="11.00">ad_printpaper_id</text>
<polygon fill="none" stroke="black" points="34,-66 34,-84 187,-84 187,-66 34,-66"/>
<text text-anchor="start" x="37" y="-72.2" font-family="Helvetica,sans-Serif" font-size="11.00">...</text>
<polygon fill="#ffffff" stroke="transparent" points="34,-48 34,-66 187,-66 187,-48 34,-48"/>
<polygon fill="none" stroke="black" points="34,-48 34,-66 187,-66 187,-48 34,-48"/>
<polygon fill="#ffffff" stroke="transparent" points="35,-49 35,-65 74,-65 74,-49 35,-49"/>
<text text-anchor="start" x="37" y="-54.2" font-family="Helvetica,sans-Serif" font-size="11.00">&lt; 3</text>
<polygon fill="#ffffff" stroke="transparent" points="74,-49 74,-65 142,-65 142,-49 74,-49"/>
<text text-anchor="start" x="85.5" y="-54.2" font-family="Helvetica,sans-Serif" font-size="11.00">109 rows</text>
<polygon fill="#ffffff" stroke="transparent" points="142,-49 142,-65 186,-65 186,-49 142,-49"/>
<text text-anchor="start" x="162" y="-54.2" font-family="Helvetica,sans-Serif" font-size="11.00">88 &gt;</text>
<polygon fill="black" stroke="black" points="74,-49 74,-65 74,-65 74,-49 74,-49"/>
<polygon fill="black" stroke="black" points="142,-49 142,-65 142,-65 142,-49 142,-49"/>
</a>
</g>
</g>
<!-- ad_printformatitem_trl&#45;&gt;ad_language -->
<g id="edge1" class="edge">
<title>ad_printformatitem_trl:w&#45;&gt;ad_language:e</title>
<path fill="none" stroke="black" d="M248.17,-329.35C205.85,-311.11 247.82,-205 188,-205"/>
<polygon fill="black" stroke="black" points="254.63,-330.54 261.84,-335.54 258.57,-331.27 262.5,-332 262.5,-332 262.5,-332 258.57,-331.27 263.16,-328.46 254.63,-330.54 254.63,-330.54"/>
<ellipse fill="none" stroke="black" cx="251.49" cy="-329.96" rx="3.2" ry="3.2"/>
</g>
<!-- ad_printformatitem -->
<g id="node3" class="node">
<title>ad_printformatitem</title>
<g id="a_node3"><a xlink:href="../../tables/ad_printformatitem.html" xlink:title="ad_printformatitem" target="_top">
<polygon fill="#ffffff" stroke="transparent" points="8,-259 8,-515 212,-515 212,-259 8,-259"/>
<polygon fill="#f5f5f5" stroke="transparent" points="8,-493 8,-515 212,-515 212,-493 8,-493"/>
<polygon fill="none" stroke="black" points="8,-493 8,-515 212,-515 212,-493 8,-493"/>
<text text-anchor="start" x="13" y="-502.2" font-family="Helvetica,sans-Serif" font-weight="bold" font-size="11.00">ad_printformatitem</text>
<text text-anchor="start" x="177" y="-501.2" font-family="Helvetica,sans-Serif" font-size="11.00">[table]</text>
<polygon fill="none" stroke="black" points="8,-471 8,-493 212,-493 212,-471 8,-471"/>
<image xlink:href="../../images/primaryKeys.png" width="11px" height="12px" preserveAspectRatio="xMinYMin meet" x="13" y="-488"/>
<text text-anchor="start" x="28" y="-479.2" font-family="Helvetica,sans-Serif" font-size="11.00">ad_printformatitem_id</text>
<polygon fill="#ffffff" stroke="transparent" points="8,-449 8,-471 212,-471 212,-449 8,-449"/>
<polygon fill="none" stroke="black" points="8,-449 8,-471 212,-471 212,-449 8,-449"/>
<image xlink:href="../../images/foreignKeys.png" width="11px" height="12px" preserveAspectRatio="xMinYMin meet" x="13" y="-466"/>
<text text-anchor="start" x="28" y="-457.2" font-family="Helvetica,sans-Serif" font-size="11.00">ad_printformat_id</text>
<polygon fill="none" stroke="black" points="8,-427 8,-449 212,-449 212,-427 8,-427"/>
<image xlink:href="../../images/foreignKeys.png" width="11px" height="12px" preserveAspectRatio="xMinYMin meet" x="13" y="-444"/>
<text text-anchor="start" x="28" y="-435.2" font-family="Helvetica,sans-Serif" font-size="11.00">ad_column_id</text>
<polygon fill="none" stroke="black" points="8,-405 8,-427 212,-427 212,-405 8,-405"/>
<image xlink:href="../../images/foreignKeys.png" width="11px" height="12px" preserveAspectRatio="xMinYMin meet" x="13" y="-422"/>
<text text-anchor="start" x="28" y="-413.2" font-family="Helvetica,sans-Serif" font-size="11.00">ad_printformatchild_id</text>
<polygon fill="none" stroke="black" points="8,-383 8,-405 212,-405 212,-383 8,-383"/>
<image xlink:href="../../images/foreignKeys.png" width="11px" height="12px" preserveAspectRatio="xMinYMin meet" x="13" y="-400"/>
<text text-anchor="start" x="28" y="-391.2" font-family="Helvetica,sans-Serif" font-size="11.00">ad_printcolor_id</text>
<polygon fill="none" stroke="black" points="8,-361 8,-383 212,-383 212,-361 8,-361"/>
<image xlink:href="../../images/foreignKeys.png" width="11px" height="12px" preserveAspectRatio="xMinYMin meet" x="13" y="-378"/>
<text text-anchor="start" x="28" y="-369.2" font-family="Helvetica,sans-Serif" font-size="11.00">ad_printfont_id</text>
<polygon fill="none" stroke="black" points="8,-339 8,-361 212,-361 212,-339 8,-339"/>
<image xlink:href="../../images/foreignKeys.png" width="11px" height="12px" preserveAspectRatio="xMinYMin meet" x="13" y="-356"/>
<text text-anchor="start" x="28" y="-347.2" font-family="Helvetica,sans-Serif" font-size="11.00">ad_printgraph_id</text>
<polygon fill="#ffffff" stroke="transparent" points="8,-317 8,-339 212,-339 212,-317 8,-317"/>
<polygon fill="none" stroke="black" points="8,-317 8,-339 212,-339 212,-317 8,-317"/>
<text text-anchor="start" x="28" y="-325.2" font-family="Helvetica,sans-Serif" font-size="11.00">ad_printformatitem_uu</text>
<polygon fill="none" stroke="black" points="8,-295 8,-317 212,-317 212,-295 8,-295"/>
<image xlink:href="../../images/foreignKeys.png" width="11px" height="12px" preserveAspectRatio="xMinYMin meet" x="13" y="-312"/>
<text text-anchor="start" x="28" y="-303.2" font-family="Helvetica,sans-Serif" font-size="11.00">ad_fieldstyle_id</text>
<polygon fill="none" stroke="black" points="8,-277 8,-295 212,-295 212,-277 8,-277"/>
<text text-anchor="start" x="11" y="-283.2" font-family="Helvetica,sans-Serif" font-size="11.00">...</text>
<polygon fill="#ffffff" stroke="transparent" points="8,-259 8,-277 212,-277 212,-259 8,-259"/>
<polygon fill="none" stroke="black" points="8,-259 8,-277 212,-277 212,-259 8,-259"/>
<polygon fill="#ffffff" stroke="transparent" points="9,-260 9,-276 62,-276 62,-260 9,-260"/>
<text text-anchor="start" x="11" y="-265.2" font-family="Helvetica,sans-Serif" font-size="11.00">&lt; 7</text>
<polygon fill="#ffffff" stroke="transparent" points="62,-260 62,-276 159,-276 159,-260 62,-260"/>
<text text-anchor="start" x="80.5" y="-265.2" font-family="Helvetica,sans-Serif" font-size="11.00">19.425 rows</text>
<polygon fill="#ffffff" stroke="transparent" points="159,-260 159,-276 211,-276 211,-260 159,-260"/>
<text text-anchor="start" x="193" y="-265.2" font-family="Helvetica,sans-Serif" font-size="11.00">7 &gt;</text>
<polygon fill="black" stroke="black" points="62,-260 62,-276 62,-276 62,-260 62,-260"/>
<polygon fill="black" stroke="black" points="159,-260 159,-276 159,-276 159,-260 159,-260"/>
</a>
</g>
</g>
<!-- ad_printformatitem_trl&#45;&gt;ad_printformatitem -->
<g id="edge2" class="edge">
<title>ad_printformatitem_trl:w&#45;&gt;ad_printformatitem:e</title>
<path fill="none" stroke="black" d="M248.2,-357.42C214.39,-377.78 268.04,-482 213,-482"/>
<polygon fill="black" stroke="black" points="254.72,-355.86 263.34,-357.5 258.61,-354.93 262.5,-354 262.5,-354 262.5,-354 258.61,-354.93 261.66,-350.5 254.72,-355.86 254.72,-355.86"/>
<ellipse fill="none" stroke="black" cx="251.61" cy="-356.61" rx="3.2" ry="3.2"/>
</g>
</g>
</svg>
