<?xml version="1.0" encoding="UTF-8" standalone="no"?>
<!DOCTYPE svg PUBLIC "-//W3C//DTD SVG 1.1//EN"
 "http://www.w3.org/Graphics/SVG/1.1/DTD/svg11.dtd">
<!-- Generated by graphviz version 2.43.0 (0)
 -->
<!-- Title: oneDegreeRelationshipsDiagram Pages: 1 -->
<svg width="775pt" height="565pt"
 viewBox="0.00 0.00 775.00 564.81" xmlns="http://www.w3.org/2000/svg" xmlns:xlink="http://www.w3.org/1999/xlink">
<g id="graph0" class="graph" transform="scale(1 1) rotate(0) translate(4 560.81)">
<title>oneDegreeRelationshipsDiagram</title>
<polygon fill="#ffffff" stroke="transparent" points="-4,4 -4,-560.81 771,-560.81 771,4 -4,4"/>
<text text-anchor="middle" x="71.5" y="-7.2" font-family="Helvetica,sans-Serif" font-size="11.00">Generated by SchemaSpy</text>
<!-- ad_column -->
<g id="node1" class="node">
<title>ad_column</title>
<g id="a_node1"><a xlink:href="../../tables/ad_column.html" xlink:title="ad_column" target="_top">
<polygon fill="#ffffff" stroke="transparent" points="198,-88.81 198,-498.81 398,-498.81 398,-88.81 198,-88.81"/>
<polygon fill="#f5f5f5" stroke="transparent" points="198,-476.81 198,-498.81 398,-498.81 398,-476.81 198,-476.81"/>
<polygon fill="none" stroke="black" points="198,-476.81 198,-498.81 398,-498.81 398,-476.81 198,-476.81"/>
<text text-anchor="start" x="203" y="-486.01" font-family="Helvetica,sans-Serif" font-weight="bold" font-size="11.00">ad_column</text>
<text text-anchor="start" x="363" y="-485.01" font-family="Helvetica,sans-Serif" font-size="11.00">[table]</text>
<polygon fill="none" stroke="black" points="198,-454.81 198,-476.81 398,-476.81 398,-454.81 198,-454.81"/>
<image xlink:href="../../images/primaryKeys.png" width="11px" height="12px" preserveAspectRatio="xMinYMin meet" x="203" y="-471.81"/>
<text text-anchor="start" x="218" y="-463.01" font-family="Helvetica,sans-Serif" font-size="11.00">ad_column_id</text>
<polygon fill="none" stroke="black" points="198,-432.81 198,-454.81 398,-454.81 398,-432.81 198,-432.81"/>
<image xlink:href="../../images/foreignKeys.png" width="11px" height="12px" preserveAspectRatio="xMinYMin meet" x="203" y="-449.81"/>
<text text-anchor="start" x="218" y="-441.01" font-family="Helvetica,sans-Serif" font-size="11.00">ad_client_id</text>
<polygon fill="none" stroke="black" points="198,-410.81 198,-432.81 398,-432.81 398,-410.81 198,-410.81"/>
<image xlink:href="../../images/foreignKeys.png" width="11px" height="12px" preserveAspectRatio="xMinYMin meet" x="203" y="-427.81"/>
<text text-anchor="start" x="218" y="-419.01" font-family="Helvetica,sans-Serif" font-size="11.00">ad_org_id</text>
<polygon fill="none" stroke="black" points="198,-388.81 198,-410.81 398,-410.81 398,-388.81 198,-388.81"/>
<image xlink:href="../../images/foreignKeys.png" width="11px" height="12px" preserveAspectRatio="xMinYMin meet" x="203" y="-405.81"/>
<text text-anchor="start" x="218" y="-397.01" font-family="Helvetica,sans-Serif" font-size="11.00">entitytype</text>
<polygon fill="#ffffff" stroke="transparent" points="198,-366.81 198,-388.81 398,-388.81 398,-366.81 198,-366.81"/>
<polygon fill="none" stroke="black" points="198,-366.81 198,-388.81 398,-388.81 398,-366.81 198,-366.81"/>
<image xlink:href="../../images/foreignKeys.png" width="11px" height="12px" preserveAspectRatio="xMinYMin meet" x="203" y="-383.81"/>
<text text-anchor="start" x="218" y="-375.01" font-family="Helvetica,sans-Serif" font-size="11.00">ad_table_id</text>
<polygon fill="none" stroke="black" points="198,-344.81 198,-366.81 398,-366.81 398,-344.81 198,-344.81"/>
<image xlink:href="../../images/foreignKeys.png" width="11px" height="12px" preserveAspectRatio="xMinYMin meet" x="203" y="-361.81"/>
<text text-anchor="start" x="218" y="-353.01" font-family="Helvetica,sans-Serif" font-size="11.00">ad_reference_id</text>
<polygon fill="none" stroke="black" points="198,-322.81 198,-344.81 398,-344.81 398,-322.81 198,-322.81"/>
<image xlink:href="../../images/foreignKeys.png" width="11px" height="12px" preserveAspectRatio="xMinYMin meet" x="203" y="-339.81"/>
<text text-anchor="start" x="218" y="-331.01" font-family="Helvetica,sans-Serif" font-size="11.00">ad_reference_value_id</text>
<polygon fill="none" stroke="black" points="198,-300.81 198,-322.81 398,-322.81 398,-300.81 198,-300.81"/>
<image xlink:href="../../images/foreignKeys.png" width="11px" height="12px" preserveAspectRatio="xMinYMin meet" x="203" y="-317.81"/>
<text text-anchor="start" x="218" y="-309.01" font-family="Helvetica,sans-Serif" font-size="11.00">ad_val_rule_id</text>
<polygon fill="none" stroke="black" points="198,-278.81 198,-300.81 398,-300.81 398,-278.81 198,-278.81"/>
<image xlink:href="../../images/foreignKeys.png" width="11px" height="12px" preserveAspectRatio="xMinYMin meet" x="203" y="-295.81"/>
<text text-anchor="start" x="218" y="-287.01" font-family="Helvetica,sans-Serif" font-size="11.00">ad_element_id</text>
<polygon fill="#ffffff" stroke="transparent" points="198,-256.81 198,-278.81 398,-278.81 398,-256.81 198,-256.81"/>
<polygon fill="none" stroke="black" points="198,-256.81 198,-278.81 398,-278.81 398,-256.81 198,-256.81"/>
<image xlink:href="../../images/foreignKeys.png" width="11px" height="12px" preserveAspectRatio="xMinYMin meet" x="203" y="-273.81"/>
<text text-anchor="start" x="218" y="-265.01" font-family="Helvetica,sans-Serif" font-size="11.00">ad_process_id</text>
<polygon fill="#ffffff" stroke="transparent" points="198,-234.81 198,-256.81 398,-256.81 398,-234.81 198,-234.81"/>
<polygon fill="none" stroke="black" points="198,-234.81 198,-256.81 398,-256.81 398,-234.81 198,-234.81"/>
<text text-anchor="start" x="218" y="-243.01" font-family="Helvetica,sans-Serif" font-size="11.00">ad_column_uu</text>
<polygon fill="none" stroke="black" points="198,-212.81 198,-234.81 398,-234.81 398,-212.81 198,-212.81"/>
<image xlink:href="../../images/foreignKeys.png" width="11px" height="12px" preserveAspectRatio="xMinYMin meet" x="203" y="-229.81"/>
<text text-anchor="start" x="218" y="-221.01" font-family="Helvetica,sans-Serif" font-size="11.00">ad_chart_id</text>
<polygon fill="none" stroke="black" points="198,-190.81 198,-212.81 398,-212.81 398,-190.81 198,-190.81"/>
<image xlink:href="../../images/foreignKeys.png" width="11px" height="12px" preserveAspectRatio="xMinYMin meet" x="203" y="-207.81"/>
<text text-anchor="start" x="218" y="-199.01" font-family="Helvetica,sans-Serif" font-size="11.00">pa_dashboardcontent_id</text>
<polygon fill="none" stroke="black" points="198,-168.81 198,-190.81 398,-190.81 398,-168.81 198,-168.81"/>
<image xlink:href="../../images/foreignKeys.png" width="11px" height="12px" preserveAspectRatio="xMinYMin meet" x="203" y="-185.81"/>
<text text-anchor="start" x="218" y="-177.01" font-family="Helvetica,sans-Serif" font-size="11.00">ad_val_rule_lookup_id</text>
<polygon fill="none" stroke="black" points="198,-146.81 198,-168.81 398,-168.81 398,-146.81 198,-146.81"/>
<image xlink:href="../../images/foreignKeys.png" width="11px" height="12px" preserveAspectRatio="xMinYMin meet" x="203" y="-163.81"/>
<text text-anchor="start" x="218" y="-155.01" font-family="Helvetica,sans-Serif" font-size="11.00">ad_infowindow_id</text>
<polygon fill="none" stroke="black" points="198,-124.81 198,-146.81 398,-146.81 398,-124.81 198,-124.81"/>
<image xlink:href="../../images/foreignKeys.png" width="11px" height="12px" preserveAspectRatio="xMinYMin meet" x="203" y="-141.81"/>
<text text-anchor="start" x="218" y="-133.01" font-family="Helvetica,sans-Serif" font-size="11.00">fkconstraintmsg_id</text>
<polygon fill="none" stroke="black" points="198,-106.81 198,-124.81 398,-124.81 398,-106.81 198,-106.81"/>
<text text-anchor="start" x="201" y="-113.01" font-family="Helvetica,sans-Serif" font-size="11.00">...</text>
<polygon fill="#ffffff" stroke="transparent" points="198,-88.81 198,-106.81 398,-106.81 398,-88.81 198,-88.81"/>
<polygon fill="none" stroke="black" points="198,-88.81 198,-106.81 398,-106.81 398,-88.81 198,-88.81"/>
<polygon fill="#ffffff" stroke="transparent" points="199,-89.81 199,-105.81 253,-105.81 253,-89.81 199,-89.81"/>
<text text-anchor="start" x="201" y="-95.01" font-family="Helvetica,sans-Serif" font-size="11.00">&lt; 14</text>
<polygon fill="#ffffff" stroke="transparent" points="253,-89.81 253,-105.81 344,-105.81 344,-89.81 253,-89.81"/>
<text text-anchor="start" x="268.5" y="-95.01" font-family="Helvetica,sans-Serif" font-size="11.00">37.906 rows</text>
<polygon fill="#ffffff" stroke="transparent" points="344,-89.81 344,-105.81 397,-105.81 397,-89.81 344,-89.81"/>
<text text-anchor="start" x="373" y="-95.01" font-family="Helvetica,sans-Serif" font-size="11.00">34 &gt;</text>
<polygon fill="black" stroke="black" points="253,-89.81 253,-105.81 253,-105.81 253,-89.81 253,-89.81"/>
<polygon fill="black" stroke="black" points="344,-89.81 344,-105.81 344,-105.81 344,-89.81 344,-89.81"/>
</a>
</g>
</g>
<!-- ad_reference -->
<g id="node2" class="node">
<title>ad_reference</title>
<g id="a_node2"><a xlink:href="../../tables/ad_reference.html" xlink:title="ad_reference" target="_top">
<polygon fill="#ffffff" stroke="transparent" points="8,-154.81 8,-366.81 149,-366.81 149,-154.81 8,-154.81"/>
<polygon fill="#f5f5f5" stroke="transparent" points="8.5,-344.81 8.5,-366.81 149.5,-366.81 149.5,-344.81 8.5,-344.81"/>
<polygon fill="none" stroke="black" points="8.5,-344.81 8.5,-366.81 149.5,-366.81 149.5,-344.81 8.5,-344.81"/>
<text text-anchor="start" x="13.5" y="-354.01" font-family="Helvetica,sans-Serif" font-weight="bold" font-size="11.00">ad_reference</text>
<text text-anchor="start" x="114.5" y="-353.01" font-family="Helvetica,sans-Serif" font-size="11.00">[table]</text>
<polygon fill="none" stroke="black" points="8.5,-322.81 8.5,-344.81 149.5,-344.81 149.5,-322.81 8.5,-322.81"/>
<image xlink:href="../../images/primaryKeys.png" width="11px" height="12px" preserveAspectRatio="xMinYMin meet" x="13.5" y="-339.81"/>
<text text-anchor="start" x="28.5" y="-331.01" font-family="Helvetica,sans-Serif" font-size="11.00">ad_reference_id</text>
<polygon fill="none" stroke="black" points="8.5,-300.81 8.5,-322.81 149.5,-322.81 149.5,-300.81 8.5,-300.81"/>
<image xlink:href="../../images/foreignKeys.png" width="11px" height="12px" preserveAspectRatio="xMinYMin meet" x="13.5" y="-317.81"/>
<text text-anchor="start" x="28.5" y="-309.01" font-family="Helvetica,sans-Serif" font-size="11.00">ad_client_id</text>
<polygon fill="none" stroke="black" points="8.5,-278.81 8.5,-300.81 149.5,-300.81 149.5,-278.81 8.5,-278.81"/>
<image xlink:href="../../images/foreignKeys.png" width="11px" height="12px" preserveAspectRatio="xMinYMin meet" x="13.5" y="-295.81"/>
<text text-anchor="start" x="28.5" y="-287.01" font-family="Helvetica,sans-Serif" font-size="11.00">ad_org_id</text>
<polygon fill="#ffffff" stroke="transparent" points="8.5,-256.81 8.5,-278.81 149.5,-278.81 149.5,-256.81 8.5,-256.81"/>
<polygon fill="none" stroke="black" points="8.5,-256.81 8.5,-278.81 149.5,-278.81 149.5,-256.81 8.5,-256.81"/>
<text text-anchor="start" x="28.5" y="-265.01" font-family="Helvetica,sans-Serif" font-size="11.00">name</text>
<polygon fill="none" stroke="black" points="8.5,-234.81 8.5,-256.81 149.5,-256.81 149.5,-234.81 8.5,-234.81"/>
<image xlink:href="../../images/foreignKeys.png" width="11px" height="12px" preserveAspectRatio="xMinYMin meet" x="13.5" y="-251.81"/>
<text text-anchor="start" x="28.5" y="-243.01" font-family="Helvetica,sans-Serif" font-size="11.00">entitytype</text>
<polygon fill="#ffffff" stroke="transparent" points="8.5,-212.81 8.5,-234.81 149.5,-234.81 149.5,-212.81 8.5,-212.81"/>
<polygon fill="none" stroke="black" points="8.5,-212.81 8.5,-234.81 149.5,-234.81 149.5,-212.81 8.5,-212.81"/>
<text text-anchor="start" x="28.5" y="-221.01" font-family="Helvetica,sans-Serif" font-size="11.00">ad_reference_uu</text>
<polygon fill="none" stroke="black" points="8.5,-190.81 8.5,-212.81 149.5,-212.81 149.5,-190.81 8.5,-190.81"/>
<image xlink:href="../../images/foreignKeys.png" width="11px" height="12px" preserveAspectRatio="xMinYMin meet" x="13.5" y="-207.81"/>
<text text-anchor="start" x="28.5" y="-199.01" font-family="Helvetica,sans-Serif" font-size="11.00">ad_element_id</text>
<polygon fill="none" stroke="black" points="8.5,-172.81 8.5,-190.81 149.5,-190.81 149.5,-172.81 8.5,-172.81"/>
<text text-anchor="start" x="11.5" y="-179.01" font-family="Helvetica,sans-Serif" font-size="11.00">...</text>
<polygon fill="#ffffff" stroke="transparent" points="8.5,-154.81 8.5,-172.81 149.5,-172.81 149.5,-154.81 8.5,-154.81"/>
<polygon fill="none" stroke="black" points="8.5,-154.81 8.5,-172.81 149.5,-172.81 149.5,-154.81 8.5,-154.81"/>
<polygon fill="#ffffff" stroke="transparent" points="9.5,-155.81 9.5,-171.81 41.5,-171.81 41.5,-155.81 9.5,-155.81"/>
<text text-anchor="start" x="11.5" y="-161.01" font-family="Helvetica,sans-Serif" font-size="11.00">&lt; 4</text>
<polygon fill="#ffffff" stroke="transparent" points="41.5,-155.81 41.5,-171.81 111.5,-171.81 111.5,-155.81 41.5,-155.81"/>
<text text-anchor="start" x="49.5" y="-161.01" font-family="Helvetica,sans-Serif" font-size="11.00">1.128 rows</text>
<polygon fill="#ffffff" stroke="transparent" points="111.5,-155.81 111.5,-171.81 148.5,-171.81 148.5,-155.81 111.5,-155.81"/>
<text text-anchor="start" x="124.5" y="-161.01" font-family="Helvetica,sans-Serif" font-size="11.00">31 &gt;</text>
<polygon fill="black" stroke="black" points="41.5,-155.81 41.5,-171.81 41.5,-171.81 41.5,-155.81 41.5,-155.81"/>
<polygon fill="black" stroke="black" points="111.5,-155.81 111.5,-171.81 111.5,-171.81 111.5,-155.81 111.5,-155.81"/>
</a>
</g>
</g>
<!-- ad_column&#45;&gt;ad_reference -->
<g id="edge1" class="edge">
<title>ad_column:w&#45;&gt;ad_reference:e</title>
<path fill="none" stroke="black" d="M182.96,-352.18C172.27,-345.93 167.47,-333.81 150.5,-333.81"/>
<polygon fill="black" stroke="black" points="189.26,-353.81 196.1,-359.3 193.13,-354.81 197,-355.81 197,-355.81 197,-355.81 193.13,-354.81 197.9,-352.32 189.26,-353.81 189.26,-353.81"/>
<ellipse fill="none" stroke="black" cx="186.16" cy="-353" rx="3.2" ry="3.2"/>
</g>
<!-- ad_column&#45;&gt;ad_reference -->
<g id="edge2" class="edge">
<title>ad_column:w&#45;&gt;ad_reference:e</title>
<path fill="none" stroke="black" d="M182.55,-333.81C172.2,-333.81 165.35,-333.81 150.5,-333.81"/>
<polygon fill="black" stroke="black" points="189,-333.81 197,-337.41 193,-333.81 197,-333.81 197,-333.81 197,-333.81 193,-333.81 197,-330.21 189,-333.81 189,-333.81"/>
<ellipse fill="none" stroke="black" cx="185.8" cy="-333.81" rx="3.2" ry="3.2"/>
</g>
<!-- ad_package_imp_backup -->
<g id="node3" class="node">
<title>ad_package_imp_backup</title>
<g id="a_node3"><a xlink:href="../../tables/ad_package_imp_backup.html" xlink:title="ad_package_imp_backup" target="_top">
<polygon fill="#ffffff" stroke="transparent" points="447,-112.81 447,-552.81 759,-552.81 759,-112.81 447,-112.81"/>
<polygon fill="#f5f5f5" stroke="transparent" points="449,-528.81 449,-550.81 757,-550.81 757,-528.81 449,-528.81"/>
<polygon fill="none" stroke="black" points="449,-528.81 449,-550.81 757,-550.81 757,-528.81 449,-528.81"/>
<text text-anchor="start" x="454" y="-538.01" font-family="Helvetica,sans-Serif" font-weight="bold" font-size="11.00">ad_package_imp_backup</text>
<text text-anchor="start" x="722" y="-537.01" font-family="Helvetica,sans-Serif" font-size="11.00">[table]</text>
<polygon fill="none" stroke="black" points="449,-506.81 449,-528.81 674,-528.81 674,-506.81 449,-506.81"/>
<image xlink:href="../../images/primaryKeys.png" width="11px" height="12px" preserveAspectRatio="xMinYMin meet" x="454" y="-523.81"/>
<text text-anchor="start" x="469" y="-515.01" font-family="Helvetica,sans-Serif" font-size="11.00">ad_package_imp_backup_id</text>
<polygon fill="none" stroke="black" points="674,-506.81 674,-528.81 757,-528.81 757,-506.81 674,-506.81"/>
<text text-anchor="start" x="677" y="-515.01" font-family="Helvetica,sans-Serif" font-size="11.00">numeric[10]</text>
<polygon fill="none" stroke="black" points="449,-484.81 449,-506.81 674,-506.81 674,-484.81 449,-484.81"/>
<text text-anchor="start" x="469" y="-493.01" font-family="Helvetica,sans-Serif" font-size="11.00">ad_client_id</text>
<polygon fill="none" stroke="black" points="674,-484.81 674,-506.81 757,-506.81 757,-484.81 674,-484.81"/>
<text text-anchor="start" x="677" y="-493.01" font-family="Helvetica,sans-Serif" font-size="11.00">numeric[10]</text>
<polygon fill="none" stroke="black" points="449,-462.81 449,-484.81 674,-484.81 674,-462.81 449,-462.81"/>
<text text-anchor="start" x="469" y="-471.01" font-family="Helvetica,sans-Serif" font-size="11.00">ad_org_id</text>
<polygon fill="none" stroke="black" points="674,-462.81 674,-484.81 757,-484.81 757,-462.81 674,-462.81"/>
<text text-anchor="start" x="677" y="-471.01" font-family="Helvetica,sans-Serif" font-size="11.00">numeric[10]</text>
<polygon fill="none" stroke="black" points="449,-440.81 449,-462.81 674,-462.81 674,-440.81 449,-440.81"/>
<text text-anchor="start" x="469" y="-449.01" font-family="Helvetica,sans-Serif" font-size="11.00">isactive</text>
<polygon fill="none" stroke="black" points="674,-440.81 674,-462.81 757,-462.81 757,-440.81 674,-440.81"/>
<text text-anchor="start" x="677" y="-449.01" font-family="Helvetica,sans-Serif" font-size="11.00">bpchar[1]</text>
<polygon fill="none" stroke="black" points="449,-418.81 449,-440.81 674,-440.81 674,-418.81 449,-418.81"/>
<text text-anchor="start" x="469" y="-427.01" font-family="Helvetica,sans-Serif" font-size="11.00">created</text>
<polygon fill="none" stroke="black" points="674,-418.81 674,-440.81 757,-440.81 757,-418.81 674,-418.81"/>
<text text-anchor="start" x="677" y="-427.01" font-family="Helvetica,sans-Serif" font-size="11.00">timestamp[29,6]</text>
<polygon fill="none" stroke="black" points="449,-396.81 449,-418.81 674,-418.81 674,-396.81 449,-396.81"/>
<text text-anchor="start" x="469" y="-405.01" font-family="Helvetica,sans-Serif" font-size="11.00">createdby</text>
<polygon fill="none" stroke="black" points="674,-396.81 674,-418.81 757,-418.81 757,-396.81 674,-396.81"/>
<text text-anchor="start" x="677" y="-405.01" font-family="Helvetica,sans-Serif" font-size="11.00">numeric[10]</text>
<polygon fill="none" stroke="black" points="449,-374.81 449,-396.81 674,-396.81 674,-374.81 449,-374.81"/>
<text text-anchor="start" x="469" y="-383.01" font-family="Helvetica,sans-Serif" font-size="11.00">updated</text>
<polygon fill="none" stroke="black" points="674,-374.81 674,-396.81 757,-396.81 757,-374.81 674,-374.81"/>
<text text-anchor="start" x="677" y="-383.01" font-family="Helvetica,sans-Serif" font-size="11.00">timestamp[29,6]</text>
<polygon fill="none" stroke="black" points="449,-352.81 449,-374.81 674,-374.81 674,-352.81 449,-352.81"/>
<text text-anchor="start" x="469" y="-361.01" font-family="Helvetica,sans-Serif" font-size="11.00">updatedby</text>
<polygon fill="none" stroke="black" points="674,-352.81 674,-374.81 757,-374.81 757,-352.81 674,-352.81"/>
<text text-anchor="start" x="677" y="-361.01" font-family="Helvetica,sans-Serif" font-size="11.00">numeric[10]</text>
<polygon fill="none" stroke="black" points="449,-330.81 449,-352.81 674,-352.81 674,-330.81 449,-330.81"/>
<text text-anchor="start" x="469" y="-339.01" font-family="Helvetica,sans-Serif" font-size="11.00">ad_package_imp_id</text>
<polygon fill="none" stroke="black" points="674,-330.81 674,-352.81 757,-352.81 757,-330.81 674,-330.81"/>
<text text-anchor="start" x="677" y="-339.01" font-family="Helvetica,sans-Serif" font-size="11.00">numeric[10]</text>
<polygon fill="none" stroke="black" points="449,-308.81 449,-330.81 674,-330.81 674,-308.81 449,-308.81"/>
<text text-anchor="start" x="469" y="-317.01" font-family="Helvetica,sans-Serif" font-size="11.00">ad_package_imp_detail_id</text>
<polygon fill="none" stroke="black" points="674,-308.81 674,-330.81 757,-330.81 757,-308.81 674,-308.81"/>
<text text-anchor="start" x="677" y="-317.01" font-family="Helvetica,sans-Serif" font-size="11.00">numeric[10]</text>
<polygon fill="none" stroke="black" points="449,-286.81 449,-308.81 674,-308.81 674,-286.81 449,-286.81"/>
<text text-anchor="start" x="469" y="-295.01" font-family="Helvetica,sans-Serif" font-size="11.00">ad_table_id</text>
<polygon fill="none" stroke="black" points="674,-286.81 674,-308.81 757,-308.81 757,-286.81 674,-286.81"/>
<text text-anchor="start" x="677" y="-295.01" font-family="Helvetica,sans-Serif" font-size="11.00">numeric[10]</text>
<polygon fill="none" stroke="black" points="449,-264.81 449,-286.81 674,-286.81 674,-264.81 449,-264.81"/>
<image xlink:href="../../images/foreignKeys.png" width="11px" height="12px" preserveAspectRatio="xMinYMin meet" x="454" y="-281.81"/>
<text text-anchor="start" x="469" y="-273.01" font-family="Helvetica,sans-Serif" font-size="11.00">ad_column_id</text>
<polygon fill="none" stroke="black" points="674,-264.81 674,-286.81 757,-286.81 757,-264.81 674,-264.81"/>
<text text-anchor="start" x="677" y="-273.01" font-family="Helvetica,sans-Serif" font-size="11.00">numeric[10]</text>
<polygon fill="none" stroke="black" points="449,-242.81 449,-264.81 674,-264.81 674,-242.81 449,-242.81"/>
<image xlink:href="../../images/foreignKeys.png" width="11px" height="12px" preserveAspectRatio="xMinYMin meet" x="454" y="-259.81"/>
<text text-anchor="start" x="469" y="-251.01" font-family="Helvetica,sans-Serif" font-size="11.00">ad_reference_id</text>
<polygon fill="none" stroke="black" points="674,-242.81 674,-264.81 757,-264.81 757,-242.81 674,-242.81"/>
<text text-anchor="start" x="677" y="-251.01" font-family="Helvetica,sans-Serif" font-size="11.00">numeric[10]</text>
<polygon fill="none" stroke="black" points="449,-220.81 449,-242.81 674,-242.81 674,-220.81 449,-220.81"/>
<text text-anchor="start" x="469" y="-229.01" font-family="Helvetica,sans-Serif" font-size="11.00">ad_package_imp_bck_dir</text>
<polygon fill="none" stroke="black" points="674,-220.81 674,-242.81 757,-242.81 757,-220.81 674,-220.81"/>
<text text-anchor="start" x="677" y="-229.01" font-family="Helvetica,sans-Serif" font-size="11.00">varchar[255]</text>
<polygon fill="none" stroke="black" points="449,-198.81 449,-220.81 674,-220.81 674,-198.81 449,-198.81"/>
<text text-anchor="start" x="469" y="-207.01" font-family="Helvetica,sans-Serif" font-size="11.00">ad_package_imp_org_dir</text>
<polygon fill="none" stroke="black" points="674,-198.81 674,-220.81 757,-220.81 757,-198.81 674,-198.81"/>
<text text-anchor="start" x="677" y="-207.01" font-family="Helvetica,sans-Serif" font-size="11.00">varchar[255]</text>
<polygon fill="none" stroke="black" points="449,-176.81 449,-198.81 674,-198.81 674,-176.81 449,-176.81"/>
<text text-anchor="start" x="469" y="-185.01" font-family="Helvetica,sans-Serif" font-size="11.00">colvalue</text>
<polygon fill="none" stroke="black" points="674,-176.81 674,-198.81 757,-198.81 757,-176.81 674,-176.81"/>
<text text-anchor="start" x="677" y="-185.01" font-family="Helvetica,sans-Serif" font-size="11.00">varchar[2000]</text>
<polygon fill="none" stroke="black" points="449,-154.81 449,-176.81 674,-176.81 674,-154.81 449,-154.81"/>
<text text-anchor="start" x="469" y="-163.01" font-family="Helvetica,sans-Serif" font-size="11.00">uninstall</text>
<polygon fill="none" stroke="black" points="674,-154.81 674,-176.81 757,-176.81 757,-154.81 674,-154.81"/>
<text text-anchor="start" x="677" y="-163.01" font-family="Helvetica,sans-Serif" font-size="11.00">bpchar[1]</text>
<polygon fill="#ffffff" stroke="transparent" points="449,-132.81 449,-154.81 674,-154.81 674,-132.81 449,-132.81"/>
<polygon fill="none" stroke="black" points="449,-132.81 449,-154.81 674,-154.81 674,-132.81 449,-132.81"/>
<text text-anchor="start" x="469" y="-141.01" font-family="Helvetica,sans-Serif" font-size="11.00">ad_package_imp_backup_uu</text>
<polygon fill="none" stroke="black" points="674,-132.81 674,-154.81 757,-154.81 757,-132.81 674,-132.81"/>
<text text-anchor="start" x="677" y="-141.01" font-family="Helvetica,sans-Serif" font-size="11.00">varchar[36]</text>
<polygon fill="#ffffff" stroke="transparent" points="449,-114.81 449,-132.81 757,-132.81 757,-114.81 449,-114.81"/>
<polygon fill="none" stroke="black" points="449,-114.81 449,-132.81 757,-132.81 757,-114.81 449,-114.81"/>
<polygon fill="#ffffff" stroke="transparent" points="450,-115.81 450,-131.81 547,-131.81 547,-115.81 450,-115.81"/>
<text text-anchor="start" x="452" y="-121.01" font-family="Helvetica,sans-Serif" font-size="11.00">&lt; 2</text>
<polygon fill="#ffffff" stroke="transparent" points="547,-115.81 547,-131.81 660,-131.81 660,-115.81 547,-115.81"/>
<text text-anchor="start" x="587" y="-121.01" font-family="Helvetica,sans-Serif" font-size="11.00">4 rows</text>
<polygon fill="#ffffff" stroke="transparent" points="660,-115.81 660,-131.81 756,-131.81 756,-115.81 660,-115.81"/>
<text text-anchor="start" x="738" y="-121.01" font-family="Helvetica,sans-Serif" font-size="11.00">0 &gt;</text>
<polygon fill="black" stroke="black" points="547,-115.81 547,-131.81 547,-131.81 547,-115.81 547,-115.81"/>
<polygon fill="black" stroke="black" points="660,-115.81 660,-131.81 660,-131.81 660,-115.81 660,-115.81"/>
<polygon fill="none" stroke="black" stroke-width="2" points="448,-113.81 448,-551.81 758,-551.81 758,-113.81 448,-113.81"/>
</a>
</g>
</g>
<!-- ad_package_imp_backup&#45;&gt;ad_column -->
<g id="edge3" class="edge">
<title>ad_package_imp_backup:w&#45;&gt;ad_column:e</title>
<path fill="none" stroke="black" d="M433.67,-278.08C376.08,-299.51 480.59,-465.81 399,-465.81"/>
<polygon fill="black" stroke="black" points="440.1,-277.06 448.56,-279.37 444.05,-276.43 448,-275.81 448,-275.81 448,-275.81 444.05,-276.43 447.44,-272.25 440.1,-277.06 440.1,-277.06"/>
<ellipse fill="none" stroke="black" cx="436.94" cy="-277.56" rx="3.2" ry="3.2"/>
</g>
<!-- ad_package_imp_backup&#45;&gt;ad_reference -->
<g id="edge4" class="edge">
<title>ad_package_imp_backup:w&#45;&gt;ad_reference:e</title>
<path fill="none" stroke="black" d="M433.69,-252.02C381.38,-236.54 464.4,-124.85 406,-78.81 330.61,-19.37 262.89,-16.34 190,-78.81 146.46,-116.12 207.84,-333.81 150.5,-333.81"/>
<polygon fill="black" stroke="black" points="440.06,-252.82 447.55,-257.38 444.03,-253.31 448,-253.81 448,-253.81 448,-253.81 444.03,-253.31 448.45,-250.24 440.06,-252.82 440.06,-252.82"/>
<ellipse fill="none" stroke="black" cx="436.89" cy="-252.42" rx="3.2" ry="3.2"/>
</g>
</g>
</svg>
