<?xml version="1.0" encoding="UTF-8" standalone="no"?>
<!DOCTYPE svg PUBLIC "-//W3C//DTD SVG 1.1//EN"
 "http://www.w3.org/Graphics/SVG/1.1/DTD/svg11.dtd">
<!-- Generated by graphviz version 2.43.0 (0)
 -->
<!-- Title: oneDegreeRelationshipsDiagram Pages: 1 -->
<svg width="1128pt" height="844pt"
 viewBox="0.00 0.00 1128.00 844.00" xmlns="http://www.w3.org/2000/svg" xmlns:xlink="http://www.w3.org/1999/xlink">
<g id="graph0" class="graph" transform="scale(1 1) rotate(0) translate(4 840)">
<title>oneDegreeRelationshipsDiagram</title>
<polygon fill="#ffffff" stroke="transparent" points="-4,4 -4,-840 1124,-840 1124,4 -4,4"/>
<text text-anchor="middle" x="71.5" y="-7.2" font-family="Helvetica,sans-Serif" font-size="11.00">Generated by SchemaSpy</text>
<!-- ad_org -->
<g id="node1" class="node">
<title>ad_org</title>
<g id="a_node1"><a xlink:href="../../tables/ad_org.html" xlink:title="ad_org" target="_top">
<polygon fill="#ffffff" stroke="transparent" points="302,-512 302,-702 508,-702 508,-512 302,-512"/>
<polygon fill="#f5f5f5" stroke="transparent" points="302,-680 302,-702 508,-702 508,-680 302,-680"/>
<polygon fill="none" stroke="black" points="302,-680 302,-702 508,-702 508,-680 302,-680"/>
<text text-anchor="start" x="307" y="-689.2" font-family="Helvetica,sans-Serif" font-weight="bold" font-size="11.00">ad_org</text>
<text text-anchor="start" x="473" y="-688.2" font-family="Helvetica,sans-Serif" font-size="11.00">[table]</text>
<polygon fill="none" stroke="black" points="302,-658 302,-680 508,-680 508,-658 302,-658"/>
<image xlink:href="../../images/primaryKeys.png" width="11px" height="12px" preserveAspectRatio="xMinYMin meet" x="307" y="-675"/>
<text text-anchor="start" x="322" y="-666.2" font-family="Helvetica,sans-Serif" font-size="11.00">ad_org_id</text>
<polygon fill="#ffffff" stroke="transparent" points="302,-636 302,-658 508,-658 508,-636 302,-636"/>
<polygon fill="none" stroke="black" points="302,-636 302,-658 508,-658 508,-636 302,-636"/>
<image xlink:href="../../images/foreignKeys.png" width="11px" height="12px" preserveAspectRatio="xMinYMin meet" x="307" y="-653"/>
<text text-anchor="start" x="322" y="-644.2" font-family="Helvetica,sans-Serif" font-size="11.00">ad_client_id</text>
<polygon fill="#ffffff" stroke="transparent" points="302,-614 302,-636 508,-636 508,-614 302,-614"/>
<polygon fill="none" stroke="black" points="302,-614 302,-636 508,-636 508,-614 302,-614"/>
<text text-anchor="start" x="322" y="-622.2" font-family="Helvetica,sans-Serif" font-size="11.00">value</text>
<polygon fill="none" stroke="black" points="302,-592 302,-614 508,-614 508,-592 302,-592"/>
<image xlink:href="../../images/foreignKeys.png" width="11px" height="12px" preserveAspectRatio="xMinYMin meet" x="307" y="-609"/>
<text text-anchor="start" x="322" y="-600.2" font-family="Helvetica,sans-Serif" font-size="11.00">ad_replicationstrategy_id</text>
<polygon fill="#ffffff" stroke="transparent" points="302,-570 302,-592 508,-592 508,-570 302,-570"/>
<polygon fill="none" stroke="black" points="302,-570 302,-592 508,-592 508,-570 302,-570"/>
<text text-anchor="start" x="322" y="-578.2" font-family="Helvetica,sans-Serif" font-size="11.00">ad_org_uu</text>
<polygon fill="none" stroke="black" points="302,-548 302,-570 508,-570 508,-548 302,-548"/>
<image xlink:href="../../images/foreignKeys.png" width="11px" height="12px" preserveAspectRatio="xMinYMin meet" x="307" y="-565"/>
<text text-anchor="start" x="322" y="-556.2" font-family="Helvetica,sans-Serif" font-size="11.00">cof_c_snrange_id</text>
<polygon fill="none" stroke="black" points="302,-530 302,-548 508,-548 508,-530 302,-530"/>
<text text-anchor="start" x="305" y="-536.2" font-family="Helvetica,sans-Serif" font-size="11.00">...</text>
<polygon fill="#ffffff" stroke="transparent" points="302,-512 302,-530 508,-530 508,-512 302,-512"/>
<polygon fill="none" stroke="black" points="302,-512 302,-530 508,-530 508,-512 302,-512"/>
<polygon fill="#ffffff" stroke="transparent" points="303,-513 303,-529 362,-529 362,-513 303,-513"/>
<text text-anchor="start" x="305" y="-518.2" font-family="Helvetica,sans-Serif" font-size="11.00">&lt; 3</text>
<polygon fill="#ffffff" stroke="transparent" points="362,-513 362,-529 437,-529 437,-513 362,-513"/>
<text text-anchor="start" x="383" y="-518.2" font-family="Helvetica,sans-Serif" font-size="11.00">3 rows</text>
<polygon fill="#ffffff" stroke="transparent" points="437,-513 437,-529 507,-529 507,-513 437,-513"/>
<text text-anchor="start" x="477" y="-518.2" font-family="Helvetica,sans-Serif" font-size="11.00">284 &gt;</text>
<polygon fill="black" stroke="black" points="362,-513 362,-529 362,-529 362,-513 362,-513"/>
<polygon fill="black" stroke="black" points="437,-513 437,-529 437,-529 437,-513 437,-513"/>
</a>
</g>
</g>
<!-- ad_client -->
<g id="node2" class="node">
<title>ad_client</title>
<g id="a_node2"><a xlink:href="../../tables/ad_client.html" xlink:title="ad_client" target="_top">
<polygon fill="#ffffff" stroke="transparent" points="8,-547 8,-759 253,-759 253,-547 8,-547"/>
<polygon fill="#f5f5f5" stroke="transparent" points="8.5,-737 8.5,-759 253.5,-759 253.5,-737 8.5,-737"/>
<polygon fill="none" stroke="black" points="8.5,-737 8.5,-759 253.5,-759 253.5,-737 8.5,-737"/>
<text text-anchor="start" x="13.5" y="-746.2" font-family="Helvetica,sans-Serif" font-weight="bold" font-size="11.00">ad_client</text>
<text text-anchor="start" x="218.5" y="-745.2" font-family="Helvetica,sans-Serif" font-size="11.00">[table]</text>
<polygon fill="none" stroke="black" points="8.5,-715 8.5,-737 253.5,-737 253.5,-715 8.5,-715"/>
<image xlink:href="../../images/primaryKeys.png" width="11px" height="12px" preserveAspectRatio="xMinYMin meet" x="13.5" y="-732"/>
<text text-anchor="start" x="28.5" y="-723.2" font-family="Helvetica,sans-Serif" font-size="11.00">ad_client_id</text>
<polygon fill="#ffffff" stroke="transparent" points="8.5,-693 8.5,-715 253.5,-715 253.5,-693 8.5,-693"/>
<polygon fill="none" stroke="black" points="8.5,-693 8.5,-715 253.5,-715 253.5,-693 8.5,-693"/>
<text text-anchor="start" x="28.5" y="-701.2" font-family="Helvetica,sans-Serif" font-size="11.00">value</text>
<polygon fill="none" stroke="black" points="8.5,-671 8.5,-693 253.5,-693 253.5,-671 8.5,-671"/>
<image xlink:href="../../images/foreignKeys.png" width="11px" height="12px" preserveAspectRatio="xMinYMin meet" x="13.5" y="-688"/>
<text text-anchor="start" x="28.5" y="-679.2" font-family="Helvetica,sans-Serif" font-size="11.00">ad_language</text>
<polygon fill="none" stroke="black" points="8.5,-649 8.5,-671 253.5,-671 253.5,-649 8.5,-649"/>
<image xlink:href="../../images/foreignKeys.png" width="11px" height="12px" preserveAspectRatio="xMinYMin meet" x="13.5" y="-666"/>
<text text-anchor="start" x="28.5" y="-657.2" font-family="Helvetica,sans-Serif" font-size="11.00">ad_replicationstrategy_id</text>
<polygon fill="#ffffff" stroke="transparent" points="8.5,-627 8.5,-649 253.5,-649 253.5,-627 8.5,-627"/>
<polygon fill="none" stroke="black" points="8.5,-627 8.5,-649 253.5,-649 253.5,-627 8.5,-627"/>
<text text-anchor="start" x="28.5" y="-635.2" font-family="Helvetica,sans-Serif" font-size="11.00">ad_client_uu</text>
<polygon fill="none" stroke="black" points="8.5,-605 8.5,-627 253.5,-627 253.5,-605 8.5,-605"/>
<image xlink:href="../../images/foreignKeys.png" width="11px" height="12px" preserveAspectRatio="xMinYMin meet" x="13.5" y="-622"/>
<text text-anchor="start" x="28.5" y="-613.2" font-family="Helvetica,sans-Serif" font-size="11.00">ad_passwordrule_id</text>
<polygon fill="#ffffff" stroke="transparent" points="8.5,-583 8.5,-605 253.5,-605 253.5,-583 8.5,-583"/>
<polygon fill="none" stroke="black" points="8.5,-583 8.5,-605 253.5,-605 253.5,-583 8.5,-583"/>
<text text-anchor="start" x="28.5" y="-591.2" font-family="Helvetica,sans-Serif" font-size="11.00">loginprefix</text>
<polygon fill="none" stroke="black" points="8.5,-565 8.5,-583 253.5,-583 253.5,-565 8.5,-565"/>
<text text-anchor="start" x="11.5" y="-571.2" font-family="Helvetica,sans-Serif" font-size="11.00">...</text>
<polygon fill="#ffffff" stroke="transparent" points="8.5,-547 8.5,-565 253.5,-565 253.5,-547 8.5,-547"/>
<polygon fill="none" stroke="black" points="8.5,-547 8.5,-565 253.5,-565 253.5,-547 8.5,-547"/>
<polygon fill="#ffffff" stroke="transparent" points="9.5,-548 9.5,-564 81.5,-564 81.5,-548 9.5,-548"/>
<text text-anchor="start" x="11.5" y="-553.2" font-family="Helvetica,sans-Serif" font-size="11.00">&lt; 3</text>
<polygon fill="#ffffff" stroke="transparent" points="81.5,-548 81.5,-564 169.5,-564 169.5,-548 81.5,-548"/>
<text text-anchor="start" x="109" y="-553.2" font-family="Helvetica,sans-Serif" font-size="11.00">2 rows</text>
<polygon fill="#ffffff" stroke="transparent" points="169.5,-548 169.5,-564 252.5,-564 252.5,-548 169.5,-548"/>
<text text-anchor="start" x="222.5" y="-553.2" font-family="Helvetica,sans-Serif" font-size="11.00">204 &gt;</text>
<polygon fill="black" stroke="black" points="81.5,-548 81.5,-564 81.5,-564 81.5,-548 81.5,-548"/>
<polygon fill="black" stroke="black" points="169.5,-548 169.5,-564 169.5,-564 169.5,-548 169.5,-548"/>
</a>
</g>
</g>
<!-- ad_org&#45;&gt;ad_client -->
<g id="edge1" class="edge">
<title>ad_org:w&#45;&gt;ad_client:e</title>
<path fill="none" stroke="black" d="M287.37,-651.71C268.98,-668.71 289.19,-726 254.5,-726"/>
<polygon fill="black" stroke="black" points="293.44,-649.61 302.17,-650.4 297.22,-648.31 301,-647 301,-647 301,-647 297.22,-648.31 299.83,-643.6 293.44,-649.61 293.44,-649.61"/>
<ellipse fill="none" stroke="black" cx="290.41" cy="-650.65" rx="3.2" ry="3.2"/>
</g>
<!-- ad_requiredplugin -->
<g id="node3" class="node">
<title>ad_requiredplugin</title>
<g id="a_node3"><a xlink:href="../../tables/ad_requiredplugin.html" xlink:title="ad_requiredplugin" target="_top">
<polygon fill="#ffffff" stroke="transparent" points="846,-546 846,-832 1112,-832 1112,-546 846,-546"/>
<polygon fill="#f5f5f5" stroke="transparent" points="848,-808 848,-830 1110,-830 1110,-808 848,-808"/>
<polygon fill="none" stroke="black" points="848,-808 848,-830 1110,-830 1110,-808 848,-808"/>
<text text-anchor="start" x="853" y="-817.2" font-family="Helvetica,sans-Serif" font-weight="bold" font-size="11.00">ad_requiredplugin</text>
<text text-anchor="start" x="1075" y="-816.2" font-family="Helvetica,sans-Serif" font-size="11.00">[table]</text>
<polygon fill="none" stroke="black" points="848,-786 848,-808 1027,-808 1027,-786 848,-786"/>
<image xlink:href="../../images/foreignKeys.png" width="11px" height="12px" preserveAspectRatio="xMinYMin meet" x="853" y="-803"/>
<text text-anchor="start" x="868" y="-794.2" font-family="Helvetica,sans-Serif" font-size="11.00">ad_client_id</text>
<polygon fill="none" stroke="black" points="1027,-786 1027,-808 1110,-808 1110,-786 1027,-786"/>
<text text-anchor="start" x="1030" y="-794.2" font-family="Helvetica,sans-Serif" font-size="11.00">numeric[10]</text>
<polygon fill="none" stroke="black" points="848,-764 848,-786 1027,-786 1027,-764 848,-764"/>
<image xlink:href="../../images/foreignKeys.png" width="11px" height="12px" preserveAspectRatio="xMinYMin meet" x="853" y="-781"/>
<text text-anchor="start" x="868" y="-772.2" font-family="Helvetica,sans-Serif" font-size="11.00">ad_org_id</text>
<polygon fill="none" stroke="black" points="1027,-764 1027,-786 1110,-786 1110,-764 1027,-764"/>
<text text-anchor="start" x="1030" y="-772.2" font-family="Helvetica,sans-Serif" font-size="11.00">numeric[10]</text>
<polygon fill="none" stroke="black" points="848,-742 848,-764 1027,-764 1027,-742 848,-742"/>
<image xlink:href="../../images/primaryKeys.png" width="11px" height="12px" preserveAspectRatio="xMinYMin meet" x="853" y="-759"/>
<text text-anchor="start" x="868" y="-750.2" font-family="Helvetica,sans-Serif" font-size="11.00">ad_requiredplugin_uu</text>
<polygon fill="none" stroke="black" points="1027,-742 1027,-764 1110,-764 1110,-742 1027,-742"/>
<text text-anchor="start" x="1030" y="-750.2" font-family="Helvetica,sans-Serif" font-size="11.00">varchar[36]</text>
<polygon fill="none" stroke="black" points="848,-720 848,-742 1027,-742 1027,-720 848,-720"/>
<text text-anchor="start" x="868" y="-728.2" font-family="Helvetica,sans-Serif" font-size="11.00">created</text>
<polygon fill="none" stroke="black" points="1027,-720 1027,-742 1110,-742 1110,-720 1027,-720"/>
<text text-anchor="start" x="1030" y="-728.2" font-family="Helvetica,sans-Serif" font-size="11.00">timestamp[29,6]</text>
<polygon fill="none" stroke="black" points="848,-698 848,-720 1027,-720 1027,-698 848,-698"/>
<image xlink:href="../../images/foreignKeys.png" width="11px" height="12px" preserveAspectRatio="xMinYMin meet" x="853" y="-715"/>
<text text-anchor="start" x="868" y="-706.2" font-family="Helvetica,sans-Serif" font-size="11.00">createdby</text>
<polygon fill="none" stroke="black" points="1027,-698 1027,-720 1110,-720 1110,-698 1027,-698"/>
<text text-anchor="start" x="1030" y="-706.2" font-family="Helvetica,sans-Serif" font-size="11.00">numeric[10]</text>
<polygon fill="none" stroke="black" points="848,-676 848,-698 1027,-698 1027,-676 848,-676"/>
<text text-anchor="start" x="868" y="-684.2" font-family="Helvetica,sans-Serif" font-size="11.00">isactive</text>
<polygon fill="none" stroke="black" points="1027,-676 1027,-698 1110,-698 1110,-676 1027,-676"/>
<text text-anchor="start" x="1030" y="-684.2" font-family="Helvetica,sans-Serif" font-size="11.00">bpchar[1]</text>
<polygon fill="none" stroke="black" points="848,-654 848,-676 1027,-676 1027,-654 848,-654"/>
<text text-anchor="start" x="868" y="-662.2" font-family="Helvetica,sans-Serif" font-size="11.00">pluginexpectedstate</text>
<polygon fill="none" stroke="black" points="1027,-654 1027,-676 1110,-676 1110,-654 1027,-654"/>
<text text-anchor="start" x="1030" y="-662.2" font-family="Helvetica,sans-Serif" font-size="11.00">varchar[20]</text>
<polygon fill="none" stroke="black" points="848,-632 848,-654 1027,-654 1027,-632 848,-632"/>
<text text-anchor="start" x="868" y="-640.2" font-family="Helvetica,sans-Serif" font-size="11.00">pluginname</text>
<polygon fill="none" stroke="black" points="1027,-632 1027,-654 1110,-654 1110,-632 1027,-632"/>
<text text-anchor="start" x="1030" y="-640.2" font-family="Helvetica,sans-Serif" font-size="11.00">varchar[1000]</text>
<polygon fill="none" stroke="black" points="848,-610 848,-632 1027,-632 1027,-610 848,-610"/>
<text text-anchor="start" x="868" y="-618.2" font-family="Helvetica,sans-Serif" font-size="11.00">updated</text>
<polygon fill="none" stroke="black" points="1027,-610 1027,-632 1110,-632 1110,-610 1027,-610"/>
<text text-anchor="start" x="1030" y="-618.2" font-family="Helvetica,sans-Serif" font-size="11.00">timestamp[29,6]</text>
<polygon fill="none" stroke="black" points="848,-588 848,-610 1027,-610 1027,-588 848,-588"/>
<image xlink:href="../../images/foreignKeys.png" width="11px" height="12px" preserveAspectRatio="xMinYMin meet" x="853" y="-605"/>
<text text-anchor="start" x="868" y="-596.2" font-family="Helvetica,sans-Serif" font-size="11.00">updatedby</text>
<polygon fill="none" stroke="black" points="1027,-588 1027,-610 1110,-610 1110,-588 1027,-588"/>
<text text-anchor="start" x="1030" y="-596.2" font-family="Helvetica,sans-Serif" font-size="11.00">numeric[10]</text>
<polygon fill="none" stroke="black" points="848,-566 848,-588 1027,-588 1027,-566 848,-566"/>
<image xlink:href="../../images/foreignKeys.png" width="11px" height="12px" preserveAspectRatio="xMinYMin meet" x="853" y="-583"/>
<text text-anchor="start" x="868" y="-574.2" font-family="Helvetica,sans-Serif" font-size="11.00">entitytype</text>
<polygon fill="none" stroke="black" points="1027,-566 1027,-588 1110,-588 1110,-566 1027,-566"/>
<text text-anchor="start" x="1030" y="-574.2" font-family="Helvetica,sans-Serif" font-size="11.00">varchar[40]</text>
<polygon fill="#ffffff" stroke="transparent" points="848,-548 848,-566 1110,-566 1110,-548 848,-548"/>
<polygon fill="none" stroke="black" points="848,-548 848,-566 1110,-566 1110,-548 848,-548"/>
<polygon fill="#ffffff" stroke="transparent" points="849,-549 849,-565 939,-565 939,-549 849,-549"/>
<text text-anchor="start" x="851" y="-554.2" font-family="Helvetica,sans-Serif" font-size="11.00">&lt; 5</text>
<polygon fill="#ffffff" stroke="transparent" points="939,-549 939,-565 1020,-565 1020,-549 939,-549"/>
<text text-anchor="start" x="976" y="-554.2" font-family="Helvetica,sans-Serif" font-size="11.00"> &#160;</text>
<polygon fill="#ffffff" stroke="transparent" points="1020,-549 1020,-565 1109,-565 1109,-549 1020,-549"/>
<text text-anchor="start" x="1091" y="-554.2" font-family="Helvetica,sans-Serif" font-size="11.00">0 &gt;</text>
<polygon fill="black" stroke="black" points="939,-549 939,-565 939,-565 939,-549 939,-549"/>
<polygon fill="black" stroke="black" points="1020,-549 1020,-565 1020,-565 1020,-549 1020,-549"/>
<polygon fill="none" stroke="black" stroke-width="2" points="847,-547 847,-831 1111,-831 1111,-547 847,-547"/>
</a>
</g>
</g>
<!-- ad_requiredplugin&#45;&gt;ad_org -->
<g id="edge3" class="edge">
<title>ad_requiredplugin:w&#45;&gt;ad_org:e</title>
<path fill="none" stroke="black" d="M832.39,-775.24C757.69,-777.35 600.04,-792.09 549,-757 513.6,-732.66 551.96,-669 509,-669"/>
<polygon fill="black" stroke="black" points="839,-775.13 847.06,-778.6 843,-775.06 847,-775 847,-775 847,-775 843,-775.06 846.94,-771.4 839,-775.13 839,-775.13"/>
<ellipse fill="none" stroke="black" cx="835.8" cy="-775.18" rx="3.2" ry="3.2"/>
</g>
<!-- ad_requiredplugin&#45;&gt;ad_client -->
<g id="edge2" class="edge">
<title>ad_requiredplugin:w&#45;&gt;ad_client:e</title>
<path fill="none" stroke="black" d="M832.26,-796.99C711.59,-796.74 675.75,-793.18 549,-778 540.75,-777.01 262.81,-726 254.5,-726"/>
<polygon fill="black" stroke="black" points="839,-796.99 847,-800.6 843,-797 847,-797 847,-797 847,-797 843,-797 847,-793.4 839,-796.99 839,-796.99"/>
<ellipse fill="none" stroke="black" cx="835.8" cy="-796.99" rx="3.2" ry="3.2"/>
</g>
<!-- ad_user -->
<g id="node4" class="node">
<title>ad_user</title>
<g id="a_node4"><a xlink:href="../../tables/ad_user.html" xlink:title="ad_user" target="_top">
<polygon fill="#ffffff" stroke="transparent" points="557,-182 557,-746 797,-746 797,-182 557,-182"/>
<polygon fill="#f5f5f5" stroke="transparent" points="557,-724 557,-746 797,-746 797,-724 557,-724"/>
<polygon fill="none" stroke="black" points="557,-724 557,-746 797,-746 797,-724 557,-724"/>
<text text-anchor="start" x="562" y="-733.2" font-family="Helvetica,sans-Serif" font-weight="bold" font-size="11.00">ad_user</text>
<text text-anchor="start" x="762" y="-732.2" font-family="Helvetica,sans-Serif" font-size="11.00">[table]</text>
<polygon fill="none" stroke="black" points="557,-702 557,-724 797,-724 797,-702 557,-702"/>
<image xlink:href="../../images/primaryKeys.png" width="11px" height="12px" preserveAspectRatio="xMinYMin meet" x="562" y="-719"/>
<text text-anchor="start" x="577" y="-710.2" font-family="Helvetica,sans-Serif" font-size="11.00">ad_user_id</text>
<polygon fill="none" stroke="black" points="557,-680 557,-702 797,-702 797,-680 557,-680"/>
<image xlink:href="../../images/foreignKeys.png" width="11px" height="12px" preserveAspectRatio="xMinYMin meet" x="562" y="-697"/>
<text text-anchor="start" x="577" y="-688.2" font-family="Helvetica,sans-Serif" font-size="11.00">ad_client_id</text>
<polygon fill="none" stroke="black" points="557,-658 557,-680 797,-680 797,-658 557,-658"/>
<image xlink:href="../../images/foreignKeys.png" width="11px" height="12px" preserveAspectRatio="xMinYMin meet" x="562" y="-675"/>
<text text-anchor="start" x="577" y="-666.2" font-family="Helvetica,sans-Serif" font-size="11.00">ad_org_id</text>
<polygon fill="#ffffff" stroke="transparent" points="557,-636 557,-658 797,-658 797,-636 557,-636"/>
<polygon fill="none" stroke="black" points="557,-636 557,-658 797,-658 797,-636 557,-636"/>
<text text-anchor="start" x="577" y="-644.2" font-family="Helvetica,sans-Serif" font-size="11.00">name</text>
<polygon fill="#ffffff" stroke="transparent" points="557,-614 557,-636 797,-636 797,-614 557,-614"/>
<polygon fill="none" stroke="black" points="557,-614 557,-636 797,-636 797,-614 557,-614"/>
<text text-anchor="start" x="577" y="-622.2" font-family="Helvetica,sans-Serif" font-size="11.00">email</text>
<polygon fill="none" stroke="black" points="557,-592 557,-614 797,-614 797,-592 557,-592"/>
<image xlink:href="../../images/foreignKeys.png" width="11px" height="12px" preserveAspectRatio="xMinYMin meet" x="562" y="-609"/>
<text text-anchor="start" x="577" y="-600.2" font-family="Helvetica,sans-Serif" font-size="11.00">supervisor_id</text>
<polygon fill="#ffffff" stroke="transparent" points="557,-570 557,-592 797,-592 797,-570 557,-570"/>
<polygon fill="none" stroke="black" points="557,-570 557,-592 797,-592 797,-570 557,-570"/>
<image xlink:href="../../images/foreignKeys.png" width="11px" height="12px" preserveAspectRatio="xMinYMin meet" x="562" y="-587"/>
<text text-anchor="start" x="577" y="-578.2" font-family="Helvetica,sans-Serif" font-size="11.00">c_bpartner_id</text>
<polygon fill="none" stroke="black" points="557,-548 557,-570 797,-570 797,-548 557,-548"/>
<image xlink:href="../../images/foreignKeys.png" width="11px" height="12px" preserveAspectRatio="xMinYMin meet" x="562" y="-565"/>
<text text-anchor="start" x="577" y="-556.2" font-family="Helvetica,sans-Serif" font-size="11.00">c_bpartner_location_id</text>
<polygon fill="none" stroke="black" points="557,-526 557,-548 797,-548 797,-526 557,-526"/>
<image xlink:href="../../images/foreignKeys.png" width="11px" height="12px" preserveAspectRatio="xMinYMin meet" x="562" y="-543"/>
<text text-anchor="start" x="577" y="-534.2" font-family="Helvetica,sans-Serif" font-size="11.00">c_greeting_id</text>
<polygon fill="none" stroke="black" points="557,-504 557,-526 797,-526 797,-504 557,-504"/>
<image xlink:href="../../images/foreignKeys.png" width="11px" height="12px" preserveAspectRatio="xMinYMin meet" x="562" y="-521"/>
<text text-anchor="start" x="577" y="-512.2" font-family="Helvetica,sans-Serif" font-size="11.00">ad_orgtrx_id</text>
<polygon fill="none" stroke="black" points="557,-482 557,-504 797,-504 797,-482 557,-482"/>
<image xlink:href="../../images/foreignKeys.png" width="11px" height="12px" preserveAspectRatio="xMinYMin meet" x="562" y="-499"/>
<text text-anchor="start" x="577" y="-490.2" font-family="Helvetica,sans-Serif" font-size="11.00">c_job_id</text>
<polygon fill="#ffffff" stroke="transparent" points="557,-460 557,-482 797,-482 797,-460 557,-460"/>
<polygon fill="none" stroke="black" points="557,-460 557,-482 797,-482 797,-460 557,-460"/>
<text text-anchor="start" x="577" y="-468.2" font-family="Helvetica,sans-Serif" font-size="11.00">ad_user_uu</text>
<polygon fill="none" stroke="black" points="557,-438 557,-460 797,-460 797,-438 557,-438"/>
<image xlink:href="../../images/foreignKeys.png" width="11px" height="12px" preserveAspectRatio="xMinYMin meet" x="562" y="-455"/>
<text text-anchor="start" x="577" y="-446.2" font-family="Helvetica,sans-Serif" font-size="11.00">c_location_id</text>
<polygon fill="none" stroke="black" points="557,-416 557,-438 797,-438 797,-416 557,-416"/>
<image xlink:href="../../images/foreignKeys.png" width="11px" height="12px" preserveAspectRatio="xMinYMin meet" x="562" y="-433"/>
<text text-anchor="start" x="577" y="-424.2" font-family="Helvetica,sans-Serif" font-size="11.00">c_campaign_id</text>
<polygon fill="none" stroke="black" points="557,-394 557,-416 797,-416 797,-394 557,-394"/>
<image xlink:href="../../images/foreignKeys.png" width="11px" height="12px" preserveAspectRatio="xMinYMin meet" x="562" y="-411"/>
<text text-anchor="start" x="577" y="-402.2" font-family="Helvetica,sans-Serif" font-size="11.00">salesrep_id</text>
<polygon fill="none" stroke="black" points="557,-372 557,-394 797,-394 797,-372 557,-372"/>
<image xlink:href="../../images/foreignKeys.png" width="11px" height="12px" preserveAspectRatio="xMinYMin meet" x="562" y="-389"/>
<text text-anchor="start" x="577" y="-380.2" font-family="Helvetica,sans-Serif" font-size="11.00">bp_location_id</text>
<polygon fill="none" stroke="black" points="557,-350 557,-372 797,-372 797,-350 557,-350"/>
<image xlink:href="../../images/foreignKeys.png" width="11px" height="12px" preserveAspectRatio="xMinYMin meet" x="562" y="-367"/>
<text text-anchor="start" x="577" y="-358.2" font-family="Helvetica,sans-Serif" font-size="11.00">r_defaultmailtext_id</text>
<polygon fill="none" stroke="black" points="557,-328 557,-350 797,-350 797,-328 557,-328"/>
<image xlink:href="../../images/foreignKeys.png" width="11px" height="12px" preserveAspectRatio="xMinYMin meet" x="562" y="-345"/>
<text text-anchor="start" x="577" y="-336.2" font-family="Helvetica,sans-Serif" font-size="11.00">cof_c_marketsegment_id</text>
<polygon fill="none" stroke="black" points="557,-306 557,-328 797,-328 797,-306 557,-306"/>
<image xlink:href="../../images/foreignKeys.png" width="11px" height="12px" preserveAspectRatio="xMinYMin meet" x="562" y="-323"/>
<text text-anchor="start" x="577" y="-314.2" font-family="Helvetica,sans-Serif" font-size="11.00">cof_c_leadexpirationreason_id</text>
<polygon fill="none" stroke="black" points="557,-284 557,-306 797,-306 797,-284 557,-284"/>
<image xlink:href="../../images/foreignKeys.png" width="11px" height="12px" preserveAspectRatio="xMinYMin meet" x="562" y="-301"/>
<text text-anchor="start" x="577" y="-292.2" font-family="Helvetica,sans-Serif" font-size="11.00">ad_image_id</text>
<polygon fill="none" stroke="black" points="557,-262 557,-284 797,-284 797,-262 557,-262"/>
<image xlink:href="../../images/foreignKeys.png" width="11px" height="12px" preserveAspectRatio="xMinYMin meet" x="562" y="-279"/>
<text text-anchor="start" x="577" y="-270.2" font-family="Helvetica,sans-Serif" font-size="11.00">c_subscription_id</text>
<polygon fill="none" stroke="black" points="557,-240 557,-262 797,-262 797,-240 557,-240"/>
<image xlink:href="../../images/foreignKeys.png" width="11px" height="12px" preserveAspectRatio="xMinYMin meet" x="562" y="-257"/>
<text text-anchor="start" x="577" y="-248.2" font-family="Helvetica,sans-Serif" font-size="11.00">cof_responsavelindicacao_id</text>
<polygon fill="none" stroke="black" points="557,-218 557,-240 797,-240 797,-218 557,-218"/>
<image xlink:href="../../images/foreignKeys.png" width="11px" height="12px" preserveAspectRatio="xMinYMin meet" x="562" y="-235"/>
<text text-anchor="start" x="577" y="-226.2" font-family="Helvetica,sans-Serif" font-size="11.00">cof_respatribuicao_id</text>
<polygon fill="none" stroke="black" points="557,-200 557,-218 797,-218 797,-200 557,-200"/>
<text text-anchor="start" x="560" y="-206.2" font-family="Helvetica,sans-Serif" font-size="11.00">...</text>
<polygon fill="#ffffff" stroke="transparent" points="557,-182 557,-200 797,-200 797,-182 557,-182"/>
<polygon fill="none" stroke="black" points="557,-182 557,-200 797,-200 797,-182 557,-182"/>
<polygon fill="#ffffff" stroke="transparent" points="558,-183 558,-199 632,-199 632,-183 558,-183"/>
<text text-anchor="start" x="560" y="-188.2" font-family="Helvetica,sans-Serif" font-size="11.00">&lt; 19</text>
<polygon fill="#ffffff" stroke="transparent" points="632,-183 632,-199 717,-199 717,-183 632,-183"/>
<text text-anchor="start" x="658" y="-188.2" font-family="Helvetica,sans-Serif" font-size="11.00">8 rows</text>
<polygon fill="#ffffff" stroke="transparent" points="717,-183 717,-199 796,-199 796,-183 717,-183"/>
<text text-anchor="start" x="766" y="-188.2" font-family="Helvetica,sans-Serif" font-size="11.00">444 &gt;</text>
<polygon fill="black" stroke="black" points="632,-183 632,-199 632,-199 632,-183 632,-183"/>
<polygon fill="black" stroke="black" points="717,-183 717,-199 717,-199 717,-183 717,-183"/>
</a>
</g>
</g>
<!-- ad_requiredplugin&#45;&gt;ad_user -->
<g id="edge4" class="edge">
<title>ad_requiredplugin:w&#45;&gt;ad_user:e</title>
<path fill="none" stroke="black" d="M832.47,-709.7C821.17,-710.84 814.05,-713 798,-713"/>
<polygon fill="black" stroke="black" points="839.01,-709.38 847.17,-712.6 843,-709.19 847,-709 847,-709 847,-709 843,-709.19 846.83,-705.4 839.01,-709.38 839.01,-709.38"/>
<ellipse fill="none" stroke="black" cx="835.81" cy="-709.54" rx="3.2" ry="3.2"/>
</g>
<!-- ad_requiredplugin&#45;&gt;ad_user -->
<g id="edge6" class="edge">
<title>ad_requiredplugin:w&#45;&gt;ad_user:e</title>
<path fill="none" stroke="black" d="M832.78,-602.79C803.87,-622.57 847.12,-713 798,-713"/>
<polygon fill="black" stroke="black" points="839.27,-601.06 847.93,-602.48 843.14,-600.03 847,-599 847,-599 847,-599 843.14,-600.03 846.07,-595.52 839.27,-601.06 839.27,-601.06"/>
<ellipse fill="none" stroke="black" cx="836.18" cy="-601.89" rx="3.2" ry="3.2"/>
</g>
<!-- ad_entitytype -->
<g id="node5" class="node">
<title>ad_entitytype</title>
<g id="a_node5"><a xlink:href="../../tables/ad_entitytype.html" xlink:title="ad_entitytype" target="_top">
<polygon fill="#ffffff" stroke="transparent" points="604,-37 604,-161 750,-161 750,-37 604,-37"/>
<polygon fill="#f5f5f5" stroke="transparent" points="604,-139 604,-161 750,-161 750,-139 604,-139"/>
<polygon fill="none" stroke="black" points="604,-139 604,-161 750,-161 750,-139 604,-139"/>
<text text-anchor="start" x="609" y="-148.2" font-family="Helvetica,sans-Serif" font-weight="bold" font-size="11.00">ad_entitytype</text>
<text text-anchor="start" x="715" y="-147.2" font-family="Helvetica,sans-Serif" font-size="11.00">[table]</text>
<polygon fill="none" stroke="black" points="604,-117 604,-139 750,-139 750,-117 604,-117"/>
<image xlink:href="../../images/primaryKeys.png" width="11px" height="12px" preserveAspectRatio="xMinYMin meet" x="609" y="-134"/>
<text text-anchor="start" x="624" y="-125.2" font-family="Helvetica,sans-Serif" font-size="11.00">entitytype</text>
<polygon fill="#ffffff" stroke="transparent" points="604,-95 604,-117 750,-117 750,-95 604,-95"/>
<polygon fill="none" stroke="black" points="604,-95 604,-117 750,-117 750,-95 604,-95"/>
<text text-anchor="start" x="624" y="-103.2" font-family="Helvetica,sans-Serif" font-size="11.00">ad_entitytype_id</text>
<polygon fill="#ffffff" stroke="transparent" points="604,-73 604,-95 750,-95 750,-73 604,-73"/>
<polygon fill="none" stroke="black" points="604,-73 604,-95 750,-95 750,-73 604,-73"/>
<text text-anchor="start" x="624" y="-81.2" font-family="Helvetica,sans-Serif" font-size="11.00">ad_entitytype_uu</text>
<polygon fill="none" stroke="black" points="604,-55 604,-73 750,-73 750,-55 604,-55"/>
<text text-anchor="start" x="607" y="-61.2" font-family="Helvetica,sans-Serif" font-size="11.00">...</text>
<polygon fill="#ffffff" stroke="transparent" points="604,-37 604,-55 750,-55 750,-37 604,-37"/>
<polygon fill="none" stroke="black" points="604,-37 604,-55 750,-55 750,-37 604,-37"/>
<polygon fill="#ffffff" stroke="transparent" points="605,-38 605,-54 638,-54 638,-38 605,-38"/>
<text text-anchor="start" x="607" y="-43.2" font-family="Helvetica,sans-Serif" font-size="11.00"> &#160;</text>
<polygon fill="#ffffff" stroke="transparent" points="638,-38 638,-54 702,-54 702,-38 638,-38"/>
<text text-anchor="start" x="650.5" y="-43.2" font-family="Helvetica,sans-Serif" font-size="11.00">35 rows</text>
<polygon fill="#ffffff" stroke="transparent" points="702,-38 702,-54 749,-54 749,-38 702,-38"/>
<text text-anchor="start" x="725" y="-43.2" font-family="Helvetica,sans-Serif" font-size="11.00">60 &gt;</text>
<polygon fill="black" stroke="black" points="638,-38 638,-54 638,-54 638,-38 638,-38"/>
<polygon fill="black" stroke="black" points="702,-38 702,-54 702,-54 702,-38 702,-38"/>
</a>
</g>
</g>
<!-- ad_requiredplugin&#45;&gt;ad_entitytype -->
<g id="edge5" class="edge">
<title>ad_requiredplugin:w&#45;&gt;ad_entitytype:e</title>
<path fill="none" stroke="black" d="M832.88,-573.75C766.64,-539.59 845.99,-245.91 805,-171 790.27,-144.09 781.68,-128 751,-128"/>
<polygon fill="black" stroke="black" points="839.2,-575.21 846.19,-580.51 843.1,-576.1 847,-577 847,-577 847,-577 843.1,-576.1 847.81,-573.49 839.2,-575.21 839.2,-575.21"/>
<ellipse fill="none" stroke="black" cx="836.08" cy="-574.49" rx="3.2" ry="3.2"/>
</g>
<!-- ad_user&#45;&gt;ad_org -->
<g id="edge8" class="edge">
<title>ad_user:w&#45;&gt;ad_org:e</title>
<path fill="none" stroke="black" d="M541.4,-669C530.93,-669 524.01,-669 509,-669"/>
<polygon fill="black" stroke="black" points="548,-669 556,-672.6 552,-669 556,-669 556,-669 556,-669 552,-669 556,-665.4 548,-669 548,-669"/>
<ellipse fill="none" stroke="black" cx="544.8" cy="-669" rx="3.2" ry="3.2"/>
</g>
<!-- ad_user&#45;&gt;ad_org -->
<g id="edge9" class="edge">
<title>ad_user:w&#45;&gt;ad_org:e</title>
<path fill="none" stroke="black" d="M541.86,-517.8C498.76,-538.68 574.83,-669 509,-669"/>
<polygon fill="black" stroke="black" points="548.15,-516.56 556.7,-518.53 552.08,-515.78 556,-515 556,-515 556,-515 552.08,-515.78 555.3,-511.47 548.15,-516.56 548.15,-516.56"/>
<ellipse fill="none" stroke="black" cx="545.01" cy="-517.18" rx="3.2" ry="3.2"/>
</g>
<!-- ad_user&#45;&gt;ad_client -->
<g id="edge7" class="edge">
<title>ad_user:w&#45;&gt;ad_client:e</title>
<path fill="none" stroke="black" d="M541.94,-694.81C533.8,-700.02 529.57,-709.15 516,-713 404.05,-744.74 370.87,-726 254.5,-726"/>
<polygon fill="black" stroke="black" points="548.28,-693.09 556.94,-694.47 552.14,-692.05 556,-691 556,-691 556,-691 552.14,-692.05 555.06,-687.53 548.28,-693.09 548.28,-693.09"/>
<ellipse fill="none" stroke="black" cx="545.19" cy="-693.93" rx="3.2" ry="3.2"/>
</g>
</g>
</svg>
