<?xml version="1.0" encoding="UTF-8" standalone="no"?>
<!DOCTYPE svg PUBLIC "-//W3C//DTD SVG 1.1//EN"
 "http://www.w3.org/Graphics/SVG/1.1/DTD/svg11.dtd">
<!-- Generated by graphviz version 2.43.0 (0)
 -->
<!-- Title: oneDegreeRelationshipsDiagram Pages: 1 -->
<svg width="477pt" height="505pt"
 viewBox="0.00 0.00 477.00 505.00" xmlns="http://www.w3.org/2000/svg" xmlns:xlink="http://www.w3.org/1999/xlink">
<g id="graph0" class="graph" transform="scale(1 1) rotate(0) translate(4 501)">
<title>oneDegreeRelationshipsDiagram</title>
<polygon fill="#ffffff" stroke="transparent" points="-4,4 -4,-501 473,-501 473,4 -4,4"/>
<text text-anchor="middle" x="71.5" y="-7.2" font-family="Helvetica,sans-Serif" font-size="11.00">Generated by SchemaSpy</text>
<!-- ad_reference_trl -->
<g id="node1" class="node">
<title>ad_reference_trl</title>
<g id="a_node1"><a xlink:href="../../tables/ad_reference_trl.html" xlink:title="ad_reference_trl" target="_top">
<polygon fill="#ffffff" stroke="transparent" points="210,-37 210,-389 461,-389 461,-37 210,-37"/>
<polygon fill="#f5f5f5" stroke="transparent" points="212.5,-365 212.5,-387 459.5,-387 459.5,-365 212.5,-365"/>
<polygon fill="none" stroke="black" points="212.5,-365 212.5,-387 459.5,-387 459.5,-365 212.5,-365"/>
<text text-anchor="start" x="217.5" y="-374.2" font-family="Helvetica,sans-Serif" font-weight="bold" font-size="11.00">ad_reference_trl</text>
<text text-anchor="start" x="424.5" y="-373.2" font-family="Helvetica,sans-Serif" font-size="11.00">[table]</text>
<polygon fill="none" stroke="black" points="212.5,-343 212.5,-365 376.5,-365 376.5,-343 212.5,-343"/>
<image xlink:href="../../images/primaryKeys.png" width="11px" height="12px" preserveAspectRatio="xMinYMin meet" x="217.5" y="-360"/>
<text text-anchor="start" x="232.5" y="-351.2" font-family="Helvetica,sans-Serif" font-size="11.00">ad_reference_id</text>
<polygon fill="none" stroke="black" points="376.5,-343 376.5,-365 459.5,-365 459.5,-343 376.5,-343"/>
<text text-anchor="start" x="379.5" y="-351.2" font-family="Helvetica,sans-Serif" font-size="11.00">numeric[10]</text>
<polygon fill="none" stroke="black" points="212.5,-321 212.5,-343 376.5,-343 376.5,-321 212.5,-321"/>
<image xlink:href="../../images/primaryKeys.png" width="11px" height="12px" preserveAspectRatio="xMinYMin meet" x="217.5" y="-338"/>
<text text-anchor="start" x="232.5" y="-329.2" font-family="Helvetica,sans-Serif" font-size="11.00">ad_language</text>
<polygon fill="none" stroke="black" points="376.5,-321 376.5,-343 459.5,-343 459.5,-321 376.5,-321"/>
<text text-anchor="start" x="379.5" y="-329.2" font-family="Helvetica,sans-Serif" font-size="11.00">varchar[6]</text>
<polygon fill="none" stroke="black" points="212.5,-299 212.5,-321 376.5,-321 376.5,-299 212.5,-299"/>
<text text-anchor="start" x="232.5" y="-307.2" font-family="Helvetica,sans-Serif" font-size="11.00">ad_client_id</text>
<polygon fill="none" stroke="black" points="376.5,-299 376.5,-321 459.5,-321 459.5,-299 376.5,-299"/>
<text text-anchor="start" x="379.5" y="-307.2" font-family="Helvetica,sans-Serif" font-size="11.00">numeric[10]</text>
<polygon fill="none" stroke="black" points="212.5,-277 212.5,-299 376.5,-299 376.5,-277 212.5,-277"/>
<text text-anchor="start" x="232.5" y="-285.2" font-family="Helvetica,sans-Serif" font-size="11.00">ad_org_id</text>
<polygon fill="none" stroke="black" points="376.5,-277 376.5,-299 459.5,-299 459.5,-277 376.5,-277"/>
<text text-anchor="start" x="379.5" y="-285.2" font-family="Helvetica,sans-Serif" font-size="11.00">numeric[10]</text>
<polygon fill="none" stroke="black" points="212.5,-255 212.5,-277 376.5,-277 376.5,-255 212.5,-255"/>
<text text-anchor="start" x="232.5" y="-263.2" font-family="Helvetica,sans-Serif" font-size="11.00">isactive</text>
<polygon fill="none" stroke="black" points="376.5,-255 376.5,-277 459.5,-277 459.5,-255 376.5,-255"/>
<text text-anchor="start" x="379.5" y="-263.2" font-family="Helvetica,sans-Serif" font-size="11.00">bpchar[1]</text>
<polygon fill="none" stroke="black" points="212.5,-233 212.5,-255 376.5,-255 376.5,-233 212.5,-233"/>
<text text-anchor="start" x="232.5" y="-241.2" font-family="Helvetica,sans-Serif" font-size="11.00">created</text>
<polygon fill="none" stroke="black" points="376.5,-233 376.5,-255 459.5,-255 459.5,-233 376.5,-233"/>
<text text-anchor="start" x="379.5" y="-241.2" font-family="Helvetica,sans-Serif" font-size="11.00">timestamp[29,6]</text>
<polygon fill="none" stroke="black" points="212.5,-211 212.5,-233 376.5,-233 376.5,-211 212.5,-211"/>
<text text-anchor="start" x="232.5" y="-219.2" font-family="Helvetica,sans-Serif" font-size="11.00">createdby</text>
<polygon fill="none" stroke="black" points="376.5,-211 376.5,-233 459.5,-233 459.5,-211 376.5,-211"/>
<text text-anchor="start" x="379.5" y="-219.2" font-family="Helvetica,sans-Serif" font-size="11.00">numeric[10]</text>
<polygon fill="none" stroke="black" points="212.5,-189 212.5,-211 376.5,-211 376.5,-189 212.5,-189"/>
<text text-anchor="start" x="232.5" y="-197.2" font-family="Helvetica,sans-Serif" font-size="11.00">updated</text>
<polygon fill="none" stroke="black" points="376.5,-189 376.5,-211 459.5,-211 459.5,-189 376.5,-189"/>
<text text-anchor="start" x="379.5" y="-197.2" font-family="Helvetica,sans-Serif" font-size="11.00">timestamp[29,6]</text>
<polygon fill="none" stroke="black" points="212.5,-167 212.5,-189 376.5,-189 376.5,-167 212.5,-167"/>
<text text-anchor="start" x="232.5" y="-175.2" font-family="Helvetica,sans-Serif" font-size="11.00">updatedby</text>
<polygon fill="none" stroke="black" points="376.5,-167 376.5,-189 459.5,-189 459.5,-167 376.5,-167"/>
<text text-anchor="start" x="379.5" y="-175.2" font-family="Helvetica,sans-Serif" font-size="11.00">numeric[10]</text>
<polygon fill="none" stroke="black" points="212.5,-145 212.5,-167 376.5,-167 376.5,-145 212.5,-145"/>
<text text-anchor="start" x="232.5" y="-153.2" font-family="Helvetica,sans-Serif" font-size="11.00">name</text>
<polygon fill="none" stroke="black" points="376.5,-145 376.5,-167 459.5,-167 459.5,-145 376.5,-145"/>
<text text-anchor="start" x="379.5" y="-153.2" font-family="Helvetica,sans-Serif" font-size="11.00">varchar[60]</text>
<polygon fill="none" stroke="black" points="212.5,-123 212.5,-145 376.5,-145 376.5,-123 212.5,-123"/>
<text text-anchor="start" x="232.5" y="-131.2" font-family="Helvetica,sans-Serif" font-size="11.00">description</text>
<polygon fill="none" stroke="black" points="376.5,-123 376.5,-145 459.5,-145 459.5,-123 376.5,-123"/>
<text text-anchor="start" x="379.5" y="-131.2" font-family="Helvetica,sans-Serif" font-size="11.00">varchar[255]</text>
<polygon fill="none" stroke="black" points="212.5,-101 212.5,-123 376.5,-123 376.5,-101 212.5,-101"/>
<text text-anchor="start" x="232.5" y="-109.2" font-family="Helvetica,sans-Serif" font-size="11.00">help</text>
<polygon fill="none" stroke="black" points="376.5,-101 376.5,-123 459.5,-123 459.5,-101 376.5,-101"/>
<text text-anchor="start" x="379.5" y="-109.2" font-family="Helvetica,sans-Serif" font-size="11.00">varchar[2000]</text>
<polygon fill="none" stroke="black" points="212.5,-79 212.5,-101 376.5,-101 376.5,-79 212.5,-79"/>
<text text-anchor="start" x="232.5" y="-87.2" font-family="Helvetica,sans-Serif" font-size="11.00">istranslated</text>
<polygon fill="none" stroke="black" points="376.5,-79 376.5,-101 459.5,-101 459.5,-79 376.5,-79"/>
<text text-anchor="start" x="379.5" y="-87.2" font-family="Helvetica,sans-Serif" font-size="11.00">bpchar[1]</text>
<polygon fill="#ffffff" stroke="transparent" points="212.5,-57 212.5,-79 376.5,-79 376.5,-57 212.5,-57"/>
<polygon fill="none" stroke="black" points="212.5,-57 212.5,-79 376.5,-79 376.5,-57 212.5,-57"/>
<text text-anchor="start" x="232.5" y="-65.2" font-family="Helvetica,sans-Serif" font-size="11.00">ad_reference_trl_uu</text>
<polygon fill="none" stroke="black" points="376.5,-57 376.5,-79 459.5,-79 459.5,-57 376.5,-57"/>
<text text-anchor="start" x="379.5" y="-65.2" font-family="Helvetica,sans-Serif" font-size="11.00">varchar[36]</text>
<polygon fill="#ffffff" stroke="transparent" points="212.5,-39 212.5,-57 459.5,-57 459.5,-39 212.5,-39"/>
<polygon fill="none" stroke="black" points="212.5,-39 212.5,-57 459.5,-57 459.5,-39 212.5,-39"/>
<polygon fill="#ffffff" stroke="transparent" points="213.5,-40 213.5,-56 282.5,-56 282.5,-40 213.5,-40"/>
<text text-anchor="start" x="215.5" y="-45.2" font-family="Helvetica,sans-Serif" font-size="11.00">&lt; 2</text>
<polygon fill="#ffffff" stroke="transparent" points="282.5,-40 282.5,-56 389.5,-56 389.5,-40 282.5,-40"/>
<text text-anchor="start" x="309" y="-45.2" font-family="Helvetica,sans-Serif" font-size="11.00">2.326 rows</text>
<polygon fill="#ffffff" stroke="transparent" points="389.5,-40 389.5,-56 458.5,-56 458.5,-40 389.5,-40"/>
<text text-anchor="start" x="440.5" y="-45.2" font-family="Helvetica,sans-Serif" font-size="11.00">0 &gt;</text>
<polygon fill="black" stroke="black" points="282.5,-40 282.5,-56 282.5,-56 282.5,-40 282.5,-40"/>
<polygon fill="black" stroke="black" points="389.5,-40 389.5,-56 389.5,-56 389.5,-40 389.5,-40"/>
<polygon fill="none" stroke="black" stroke-width="2" points="211,-38 211,-388 460,-388 460,-38 211,-38"/>
</a>
</g>
</g>
<!-- ad_language -->
<g id="node2" class="node">
<title>ad_language</title>
<g id="a_node2"><a xlink:href="../../tables/ad_language.html" xlink:title="ad_language" target="_top">
<polygon fill="#ffffff" stroke="transparent" points="8,-70 8,-260 161,-260 161,-70 8,-70"/>
<polygon fill="#f5f5f5" stroke="transparent" points="8.5,-238 8.5,-260 161.5,-260 161.5,-238 8.5,-238"/>
<polygon fill="none" stroke="black" points="8.5,-238 8.5,-260 161.5,-260 161.5,-238 8.5,-238"/>
<text text-anchor="start" x="13.5" y="-247.2" font-family="Helvetica,sans-Serif" font-weight="bold" font-size="11.00">ad_language</text>
<text text-anchor="start" x="126.5" y="-246.2" font-family="Helvetica,sans-Serif" font-size="11.00">[table]</text>
<polygon fill="none" stroke="black" points="8.5,-216 8.5,-238 161.5,-238 161.5,-216 8.5,-216"/>
<image xlink:href="../../images/primaryKeys.png" width="11px" height="12px" preserveAspectRatio="xMinYMin meet" x="13.5" y="-233"/>
<text text-anchor="start" x="28.5" y="-224.2" font-family="Helvetica,sans-Serif" font-size="11.00">ad_language</text>
<polygon fill="none" stroke="black" points="8.5,-194 8.5,-216 161.5,-216 161.5,-194 8.5,-194"/>
<image xlink:href="../../images/foreignKeys.png" width="11px" height="12px" preserveAspectRatio="xMinYMin meet" x="13.5" y="-211"/>
<text text-anchor="start" x="28.5" y="-202.2" font-family="Helvetica,sans-Serif" font-size="11.00">ad_client_id</text>
<polygon fill="none" stroke="black" points="8.5,-172 8.5,-194 161.5,-194 161.5,-172 8.5,-172"/>
<image xlink:href="../../images/foreignKeys.png" width="11px" height="12px" preserveAspectRatio="xMinYMin meet" x="13.5" y="-189"/>
<text text-anchor="start" x="28.5" y="-180.2" font-family="Helvetica,sans-Serif" font-size="11.00">ad_org_id</text>
<polygon fill="#ffffff" stroke="transparent" points="8.5,-150 8.5,-172 161.5,-172 161.5,-150 8.5,-150"/>
<polygon fill="none" stroke="black" points="8.5,-150 8.5,-172 161.5,-172 161.5,-150 8.5,-150"/>
<text text-anchor="start" x="28.5" y="-158.2" font-family="Helvetica,sans-Serif" font-size="11.00">ad_language_id</text>
<polygon fill="#ffffff" stroke="transparent" points="8.5,-128 8.5,-150 161.5,-150 161.5,-128 8.5,-128"/>
<polygon fill="none" stroke="black" points="8.5,-128 8.5,-150 161.5,-150 161.5,-128 8.5,-128"/>
<text text-anchor="start" x="28.5" y="-136.2" font-family="Helvetica,sans-Serif" font-size="11.00">ad_language_uu</text>
<polygon fill="none" stroke="black" points="8.5,-106 8.5,-128 161.5,-128 161.5,-106 8.5,-106"/>
<image xlink:href="../../images/foreignKeys.png" width="11px" height="12px" preserveAspectRatio="xMinYMin meet" x="13.5" y="-123"/>
<text text-anchor="start" x="28.5" y="-114.2" font-family="Helvetica,sans-Serif" font-size="11.00">ad_printpaper_id</text>
<polygon fill="none" stroke="black" points="8.5,-88 8.5,-106 161.5,-106 161.5,-88 8.5,-88"/>
<text text-anchor="start" x="11.5" y="-94.2" font-family="Helvetica,sans-Serif" font-size="11.00">...</text>
<polygon fill="#ffffff" stroke="transparent" points="8.5,-70 8.5,-88 161.5,-88 161.5,-70 8.5,-70"/>
<polygon fill="none" stroke="black" points="8.5,-70 8.5,-88 161.5,-88 161.5,-70 8.5,-70"/>
<polygon fill="#ffffff" stroke="transparent" points="9.5,-71 9.5,-87 48.5,-87 48.5,-71 9.5,-71"/>
<text text-anchor="start" x="11.5" y="-76.2" font-family="Helvetica,sans-Serif" font-size="11.00">&lt; 3</text>
<polygon fill="#ffffff" stroke="transparent" points="48.5,-71 48.5,-87 116.5,-87 116.5,-71 48.5,-71"/>
<text text-anchor="start" x="60" y="-76.2" font-family="Helvetica,sans-Serif" font-size="11.00">109 rows</text>
<polygon fill="#ffffff" stroke="transparent" points="116.5,-71 116.5,-87 160.5,-87 160.5,-71 116.5,-71"/>
<text text-anchor="start" x="136.5" y="-76.2" font-family="Helvetica,sans-Serif" font-size="11.00">88 &gt;</text>
<polygon fill="black" stroke="black" points="48.5,-71 48.5,-87 48.5,-87 48.5,-71 48.5,-71"/>
<polygon fill="black" stroke="black" points="116.5,-71 116.5,-87 116.5,-87 116.5,-71 116.5,-71"/>
</a>
</g>
</g>
<!-- ad_reference_trl&#45;&gt;ad_language -->
<g id="edge1" class="edge">
<title>ad_reference_trl:w&#45;&gt;ad_language:e</title>
<path fill="none" stroke="black" d="M197.4,-328.01C171.21,-308.83 207.96,-227 162.5,-227"/>
<polygon fill="black" stroke="black" points="203.8,-329.82 210.52,-335.46 207.65,-330.91 211.5,-332 211.5,-332 211.5,-332 207.65,-330.91 212.48,-328.54 203.8,-329.82 203.8,-329.82"/>
<ellipse fill="none" stroke="black" cx="200.72" cy="-328.95" rx="3.2" ry="3.2"/>
</g>
<!-- ad_reference -->
<g id="node3" class="node">
<title>ad_reference</title>
<g id="a_node3"><a xlink:href="../../tables/ad_reference.html" xlink:title="ad_reference" target="_top">
<polygon fill="#ffffff" stroke="transparent" points="14,-281 14,-493 155,-493 155,-281 14,-281"/>
<polygon fill="#f5f5f5" stroke="transparent" points="14.5,-471 14.5,-493 155.5,-493 155.5,-471 14.5,-471"/>
<polygon fill="none" stroke="black" points="14.5,-471 14.5,-493 155.5,-493 155.5,-471 14.5,-471"/>
<text text-anchor="start" x="19.5" y="-480.2" font-family="Helvetica,sans-Serif" font-weight="bold" font-size="11.00">ad_reference</text>
<text text-anchor="start" x="120.5" y="-479.2" font-family="Helvetica,sans-Serif" font-size="11.00">[table]</text>
<polygon fill="none" stroke="black" points="14.5,-449 14.5,-471 155.5,-471 155.5,-449 14.5,-449"/>
<image xlink:href="../../images/primaryKeys.png" width="11px" height="12px" preserveAspectRatio="xMinYMin meet" x="19.5" y="-466"/>
<text text-anchor="start" x="34.5" y="-457.2" font-family="Helvetica,sans-Serif" font-size="11.00">ad_reference_id</text>
<polygon fill="none" stroke="black" points="14.5,-427 14.5,-449 155.5,-449 155.5,-427 14.5,-427"/>
<image xlink:href="../../images/foreignKeys.png" width="11px" height="12px" preserveAspectRatio="xMinYMin meet" x="19.5" y="-444"/>
<text text-anchor="start" x="34.5" y="-435.2" font-family="Helvetica,sans-Serif" font-size="11.00">ad_client_id</text>
<polygon fill="none" stroke="black" points="14.5,-405 14.5,-427 155.5,-427 155.5,-405 14.5,-405"/>
<image xlink:href="../../images/foreignKeys.png" width="11px" height="12px" preserveAspectRatio="xMinYMin meet" x="19.5" y="-422"/>
<text text-anchor="start" x="34.5" y="-413.2" font-family="Helvetica,sans-Serif" font-size="11.00">ad_org_id</text>
<polygon fill="#ffffff" stroke="transparent" points="14.5,-383 14.5,-405 155.5,-405 155.5,-383 14.5,-383"/>
<polygon fill="none" stroke="black" points="14.5,-383 14.5,-405 155.5,-405 155.5,-383 14.5,-383"/>
<text text-anchor="start" x="34.5" y="-391.2" font-family="Helvetica,sans-Serif" font-size="11.00">name</text>
<polygon fill="none" stroke="black" points="14.5,-361 14.5,-383 155.5,-383 155.5,-361 14.5,-361"/>
<image xlink:href="../../images/foreignKeys.png" width="11px" height="12px" preserveAspectRatio="xMinYMin meet" x="19.5" y="-378"/>
<text text-anchor="start" x="34.5" y="-369.2" font-family="Helvetica,sans-Serif" font-size="11.00">entitytype</text>
<polygon fill="#ffffff" stroke="transparent" points="14.5,-339 14.5,-361 155.5,-361 155.5,-339 14.5,-339"/>
<polygon fill="none" stroke="black" points="14.5,-339 14.5,-361 155.5,-361 155.5,-339 14.5,-339"/>
<text text-anchor="start" x="34.5" y="-347.2" font-family="Helvetica,sans-Serif" font-size="11.00">ad_reference_uu</text>
<polygon fill="none" stroke="black" points="14.5,-317 14.5,-339 155.5,-339 155.5,-317 14.5,-317"/>
<image xlink:href="../../images/foreignKeys.png" width="11px" height="12px" preserveAspectRatio="xMinYMin meet" x="19.5" y="-334"/>
<text text-anchor="start" x="34.5" y="-325.2" font-family="Helvetica,sans-Serif" font-size="11.00">ad_element_id</text>
<polygon fill="none" stroke="black" points="14.5,-299 14.5,-317 155.5,-317 155.5,-299 14.5,-299"/>
<text text-anchor="start" x="17.5" y="-305.2" font-family="Helvetica,sans-Serif" font-size="11.00">...</text>
<polygon fill="#ffffff" stroke="transparent" points="14.5,-281 14.5,-299 155.5,-299 155.5,-281 14.5,-281"/>
<polygon fill="none" stroke="black" points="14.5,-281 14.5,-299 155.5,-299 155.5,-281 14.5,-281"/>
<polygon fill="#ffffff" stroke="transparent" points="15.5,-282 15.5,-298 47.5,-298 47.5,-282 15.5,-282"/>
<text text-anchor="start" x="17.5" y="-287.2" font-family="Helvetica,sans-Serif" font-size="11.00">&lt; 4</text>
<polygon fill="#ffffff" stroke="transparent" points="47.5,-282 47.5,-298 117.5,-298 117.5,-282 47.5,-282"/>
<text text-anchor="start" x="55.5" y="-287.2" font-family="Helvetica,sans-Serif" font-size="11.00">1.128 rows</text>
<polygon fill="#ffffff" stroke="transparent" points="117.5,-282 117.5,-298 154.5,-298 154.5,-282 117.5,-282"/>
<text text-anchor="start" x="130.5" y="-287.2" font-family="Helvetica,sans-Serif" font-size="11.00">31 &gt;</text>
<polygon fill="black" stroke="black" points="47.5,-282 47.5,-298 47.5,-298 47.5,-282 47.5,-282"/>
<polygon fill="black" stroke="black" points="117.5,-282 117.5,-298 117.5,-298 117.5,-282 117.5,-282"/>
</a>
</g>
</g>
<!-- ad_reference_trl&#45;&gt;ad_reference -->
<g id="edge2" class="edge">
<title>ad_reference_trl:w&#45;&gt;ad_reference:e</title>
<path fill="none" stroke="black" d="M197.17,-357.77C168.68,-376.66 203.56,-460 156.5,-460"/>
<polygon fill="black" stroke="black" points="203.76,-356.04 212.42,-357.48 207.63,-355.02 211.5,-354 211.5,-354 211.5,-354 207.63,-355.02 210.58,-350.52 203.76,-356.04 203.76,-356.04"/>
<ellipse fill="none" stroke="black" cx="200.67" cy="-356.85" rx="3.2" ry="3.2"/>
</g>
</g>
</svg>
