<?xml version="1.0" encoding="UTF-8" standalone="no"?>
<!DOCTYPE svg PUBLIC "-//W3C//DTD SVG 1.1//EN"
 "http://www.w3.org/Graphics/SVG/1.1/DTD/svg11.dtd">
<!-- Generated by graphviz version 2.43.0 (0)
 -->
<!-- Title: oneDegreeRelationshipsDiagram Pages: 1 -->
<svg width="579pt" height="445pt"
 viewBox="0.00 0.00 579.00 445.00" xmlns="http://www.w3.org/2000/svg" xmlns:xlink="http://www.w3.org/1999/xlink">
<g id="graph0" class="graph" transform="scale(1 1) rotate(0) translate(4 441)">
<title>oneDegreeRelationshipsDiagram</title>
<polygon fill="#ffffff" stroke="transparent" points="-4,4 -4,-441 575,-441 575,4 -4,4"/>
<text text-anchor="middle" x="71.5" y="-7.2" font-family="Helvetica,sans-Serif" font-size="11.00">Generated by SchemaSpy</text>
<!-- ad_schedulerlog -->
<g id="node1" class="node">
<title>ad_schedulerlog</title>
<g id="a_node1"><a xlink:href="../../tables/ad_schedulerlog.html" xlink:title="ad_schedulerlog" target="_top">
<polygon fill="#ffffff" stroke="transparent" points="295,-37 295,-433 563,-433 563,-37 295,-37"/>
<polygon fill="#f5f5f5" stroke="transparent" points="297,-409 297,-431 561,-431 561,-409 297,-409"/>
<polygon fill="none" stroke="black" points="297,-409 297,-431 561,-431 561,-409 297,-409"/>
<text text-anchor="start" x="302" y="-418.2" font-family="Helvetica,sans-Serif" font-weight="bold" font-size="11.00">ad_schedulerlog</text>
<text text-anchor="start" x="526" y="-417.2" font-family="Helvetica,sans-Serif" font-size="11.00">[table]</text>
<polygon fill="none" stroke="black" points="297,-387 297,-409 462,-409 462,-387 297,-387"/>
<image xlink:href="../../images/primaryKeys.png" width="11px" height="12px" preserveAspectRatio="xMinYMin meet" x="302" y="-404"/>
<text text-anchor="start" x="317" y="-395.2" font-family="Helvetica,sans-Serif" font-size="11.00">ad_scheduler_id</text>
<polygon fill="none" stroke="black" points="462,-387 462,-409 561,-409 561,-387 462,-387"/>
<text text-anchor="start" x="465" y="-395.2" font-family="Helvetica,sans-Serif" font-size="11.00">numeric[10]</text>
<polygon fill="none" stroke="black" points="297,-365 297,-387 462,-387 462,-365 297,-365"/>
<image xlink:href="../../images/primaryKeys.png" width="11px" height="12px" preserveAspectRatio="xMinYMin meet" x="302" y="-382"/>
<text text-anchor="start" x="317" y="-373.2" font-family="Helvetica,sans-Serif" font-size="11.00">ad_schedulerlog_id</text>
<polygon fill="none" stroke="black" points="462,-365 462,-387 561,-387 561,-365 462,-365"/>
<text text-anchor="start" x="465" y="-373.2" font-family="Helvetica,sans-Serif" font-size="11.00">numeric[10]</text>
<polygon fill="none" stroke="black" points="297,-343 297,-365 462,-365 462,-343 297,-343"/>
<text text-anchor="start" x="317" y="-351.2" font-family="Helvetica,sans-Serif" font-size="11.00">ad_client_id</text>
<polygon fill="none" stroke="black" points="462,-343 462,-365 561,-365 561,-343 462,-343"/>
<text text-anchor="start" x="465" y="-351.2" font-family="Helvetica,sans-Serif" font-size="11.00">numeric[10]</text>
<polygon fill="none" stroke="black" points="297,-321 297,-343 462,-343 462,-321 297,-321"/>
<text text-anchor="start" x="317" y="-329.2" font-family="Helvetica,sans-Serif" font-size="11.00">ad_org_id</text>
<polygon fill="none" stroke="black" points="462,-321 462,-343 561,-343 561,-321 462,-321"/>
<text text-anchor="start" x="465" y="-329.2" font-family="Helvetica,sans-Serif" font-size="11.00">numeric[10]</text>
<polygon fill="none" stroke="black" points="297,-299 297,-321 462,-321 462,-299 297,-299"/>
<text text-anchor="start" x="317" y="-307.2" font-family="Helvetica,sans-Serif" font-size="11.00">isactive</text>
<polygon fill="none" stroke="black" points="462,-299 462,-321 561,-321 561,-299 462,-299"/>
<text text-anchor="start" x="465" y="-307.2" font-family="Helvetica,sans-Serif" font-size="11.00">bpchar[1]</text>
<polygon fill="none" stroke="black" points="297,-277 297,-299 462,-299 462,-277 297,-277"/>
<text text-anchor="start" x="317" y="-285.2" font-family="Helvetica,sans-Serif" font-size="11.00">created</text>
<polygon fill="none" stroke="black" points="462,-277 462,-299 561,-299 561,-277 462,-277"/>
<text text-anchor="start" x="465" y="-285.2" font-family="Helvetica,sans-Serif" font-size="11.00">timestamp[29,6]</text>
<polygon fill="none" stroke="black" points="297,-255 297,-277 462,-277 462,-255 297,-255"/>
<text text-anchor="start" x="317" y="-263.2" font-family="Helvetica,sans-Serif" font-size="11.00">createdby</text>
<polygon fill="none" stroke="black" points="462,-255 462,-277 561,-277 561,-255 462,-255"/>
<text text-anchor="start" x="465" y="-263.2" font-family="Helvetica,sans-Serif" font-size="11.00">numeric[10]</text>
<polygon fill="none" stroke="black" points="297,-233 297,-255 462,-255 462,-233 297,-233"/>
<text text-anchor="start" x="317" y="-241.2" font-family="Helvetica,sans-Serif" font-size="11.00">updated</text>
<polygon fill="none" stroke="black" points="462,-233 462,-255 561,-255 561,-233 462,-233"/>
<text text-anchor="start" x="465" y="-241.2" font-family="Helvetica,sans-Serif" font-size="11.00">timestamp[29,6]</text>
<polygon fill="none" stroke="black" points="297,-211 297,-233 462,-233 462,-211 297,-211"/>
<text text-anchor="start" x="317" y="-219.2" font-family="Helvetica,sans-Serif" font-size="11.00">updatedby</text>
<polygon fill="none" stroke="black" points="462,-211 462,-233 561,-233 561,-211 462,-211"/>
<text text-anchor="start" x="465" y="-219.2" font-family="Helvetica,sans-Serif" font-size="11.00">numeric[10]</text>
<polygon fill="none" stroke="black" points="297,-189 297,-211 462,-211 462,-189 297,-189"/>
<text text-anchor="start" x="317" y="-197.2" font-family="Helvetica,sans-Serif" font-size="11.00">iserror</text>
<polygon fill="none" stroke="black" points="462,-189 462,-211 561,-211 561,-189 462,-189"/>
<text text-anchor="start" x="465" y="-197.2" font-family="Helvetica,sans-Serif" font-size="11.00">bpchar[1]</text>
<polygon fill="none" stroke="black" points="297,-167 297,-189 462,-189 462,-167 297,-167"/>
<text text-anchor="start" x="317" y="-175.2" font-family="Helvetica,sans-Serif" font-size="11.00">summary</text>
<polygon fill="none" stroke="black" points="462,-167 462,-189 561,-189 561,-167 462,-167"/>
<text text-anchor="start" x="465" y="-175.2" font-family="Helvetica,sans-Serif" font-size="11.00">varchar[2000]</text>
<polygon fill="none" stroke="black" points="297,-145 297,-167 462,-167 462,-145 297,-145"/>
<text text-anchor="start" x="317" y="-153.2" font-family="Helvetica,sans-Serif" font-size="11.00">reference</text>
<polygon fill="none" stroke="black" points="462,-145 462,-167 561,-167 561,-145 462,-145"/>
<text text-anchor="start" x="465" y="-153.2" font-family="Helvetica,sans-Serif" font-size="11.00">varchar[60]</text>
<polygon fill="none" stroke="black" points="297,-123 297,-145 462,-145 462,-123 297,-123"/>
<text text-anchor="start" x="317" y="-131.2" font-family="Helvetica,sans-Serif" font-size="11.00">description</text>
<polygon fill="none" stroke="black" points="462,-123 462,-145 561,-145 561,-123 462,-123"/>
<text text-anchor="start" x="465" y="-131.2" font-family="Helvetica,sans-Serif" font-size="11.00">varchar[255]</text>
<polygon fill="none" stroke="black" points="297,-101 297,-123 462,-123 462,-101 297,-101"/>
<text text-anchor="start" x="317" y="-109.2" font-family="Helvetica,sans-Serif" font-size="11.00">textmsg</text>
<polygon fill="none" stroke="black" points="462,-101 462,-123 561,-123 561,-101 462,-101"/>
<text text-anchor="start" x="465" y="-109.2" font-family="Helvetica,sans-Serif" font-size="11.00">varchar[2000]</text>
<polygon fill="none" stroke="black" points="297,-79 297,-101 462,-101 462,-79 297,-79"/>
<text text-anchor="start" x="317" y="-87.2" font-family="Helvetica,sans-Serif" font-size="11.00">binarydata</text>
<polygon fill="none" stroke="black" points="462,-79 462,-101 561,-101 561,-79 462,-79"/>
<text text-anchor="start" x="465" y="-87.2" font-family="Helvetica,sans-Serif" font-size="11.00">bytea[2147483647]</text>
<polygon fill="#ffffff" stroke="transparent" points="297,-57 297,-79 462,-79 462,-57 297,-57"/>
<polygon fill="none" stroke="black" points="297,-57 297,-79 462,-79 462,-57 297,-57"/>
<text text-anchor="start" x="317" y="-65.2" font-family="Helvetica,sans-Serif" font-size="11.00">ad_schedulerlog_uu</text>
<polygon fill="none" stroke="black" points="462,-57 462,-79 561,-79 561,-57 462,-57"/>
<text text-anchor="start" x="465" y="-65.2" font-family="Helvetica,sans-Serif" font-size="11.00">varchar[36]</text>
<polygon fill="#ffffff" stroke="transparent" points="297,-39 297,-57 561,-57 561,-39 297,-39"/>
<polygon fill="none" stroke="black" points="297,-39 297,-57 561,-57 561,-39 297,-39"/>
<polygon fill="#ffffff" stroke="transparent" points="298,-40 298,-56 378,-56 378,-40 298,-40"/>
<text text-anchor="start" x="300" y="-45.2" font-family="Helvetica,sans-Serif" font-size="11.00">&lt; 1</text>
<polygon fill="#ffffff" stroke="transparent" points="378,-40 378,-56 481,-56 481,-40 378,-40"/>
<text text-anchor="start" x="410" y="-45.2" font-family="Helvetica,sans-Serif" font-size="11.00">13 rows</text>
<polygon fill="#ffffff" stroke="transparent" points="481,-40 481,-56 560,-56 560,-40 481,-40"/>
<text text-anchor="start" x="542" y="-45.2" font-family="Helvetica,sans-Serif" font-size="11.00">0 &gt;</text>
<polygon fill="black" stroke="black" points="378,-40 378,-56 378,-56 378,-40 378,-40"/>
<polygon fill="black" stroke="black" points="481,-40 481,-56 481,-56 481,-40 481,-40"/>
<polygon fill="none" stroke="black" stroke-width="2" points="296,-38 296,-432 562,-432 562,-38 296,-38"/>
</a>
</g>
</g>
<!-- ad_scheduler -->
<g id="node2" class="node">
<title>ad_scheduler</title>
<g id="a_node2"><a xlink:href="../../tables/ad_scheduler.html" xlink:title="ad_scheduler" target="_top">
<polygon fill="#ffffff" stroke="transparent" points="8,-175 8,-431 246,-431 246,-175 8,-175"/>
<polygon fill="#f5f5f5" stroke="transparent" points="8,-409 8,-431 246,-431 246,-409 8,-409"/>
<polygon fill="none" stroke="black" points="8,-409 8,-431 246,-431 246,-409 8,-409"/>
<text text-anchor="start" x="13" y="-418.2" font-family="Helvetica,sans-Serif" font-weight="bold" font-size="11.00">ad_scheduler</text>
<text text-anchor="start" x="211" y="-417.2" font-family="Helvetica,sans-Serif" font-size="11.00">[table]</text>
<polygon fill="none" stroke="black" points="8,-387 8,-409 246,-409 246,-387 8,-387"/>
<image xlink:href="../../images/primaryKeys.png" width="11px" height="12px" preserveAspectRatio="xMinYMin meet" x="13" y="-404"/>
<text text-anchor="start" x="28" y="-395.2" font-family="Helvetica,sans-Serif" font-size="11.00">ad_scheduler_id</text>
<polygon fill="none" stroke="black" points="8,-365 8,-387 246,-387 246,-365 8,-365"/>
<image xlink:href="../../images/foreignKeys.png" width="11px" height="12px" preserveAspectRatio="xMinYMin meet" x="13" y="-382"/>
<text text-anchor="start" x="28" y="-373.2" font-family="Helvetica,sans-Serif" font-size="11.00">ad_process_id</text>
<polygon fill="none" stroke="black" points="8,-343 8,-365 246,-365 246,-343 8,-343"/>
<image xlink:href="../../images/foreignKeys.png" width="11px" height="12px" preserveAspectRatio="xMinYMin meet" x="13" y="-360"/>
<text text-anchor="start" x="28" y="-351.2" font-family="Helvetica,sans-Serif" font-size="11.00">supervisor_id</text>
<polygon fill="none" stroke="black" points="8,-321 8,-343 246,-343 246,-321 8,-321"/>
<image xlink:href="../../images/foreignKeys.png" width="11px" height="12px" preserveAspectRatio="xMinYMin meet" x="13" y="-338"/>
<text text-anchor="start" x="28" y="-329.2" font-family="Helvetica,sans-Serif" font-size="11.00">ad_table_id</text>
<polygon fill="#ffffff" stroke="transparent" points="8,-299 8,-321 246,-321 246,-299 8,-299"/>
<polygon fill="none" stroke="black" points="8,-299 8,-321 246,-321 246,-299 8,-299"/>
<text text-anchor="start" x="28" y="-307.2" font-family="Helvetica,sans-Serif" font-size="11.00">ad_scheduler_uu</text>
<polygon fill="none" stroke="black" points="8,-277 8,-299 246,-299 246,-277 8,-277"/>
<image xlink:href="../../images/foreignKeys.png" width="11px" height="12px" preserveAspectRatio="xMinYMin meet" x="13" y="-294"/>
<text text-anchor="start" x="28" y="-285.2" font-family="Helvetica,sans-Serif" font-size="11.00">ad_schedule_id</text>
<polygon fill="none" stroke="black" points="8,-255 8,-277 246,-277 246,-255 8,-255"/>
<image xlink:href="../../images/foreignKeys.png" width="11px" height="12px" preserveAspectRatio="xMinYMin meet" x="13" y="-272"/>
<text text-anchor="start" x="28" y="-263.2" font-family="Helvetica,sans-Serif" font-size="11.00">r_mailtext_id</text>
<polygon fill="none" stroke="black" points="8,-233 8,-255 246,-255 246,-233 8,-233"/>
<image xlink:href="../../images/foreignKeys.png" width="11px" height="12px" preserveAspectRatio="xMinYMin meet" x="13" y="-250"/>
<text text-anchor="start" x="28" y="-241.2" font-family="Helvetica,sans-Serif" font-size="11.00">ad_printformat_id</text>
<polygon fill="none" stroke="black" points="8,-211 8,-233 246,-233 246,-211 8,-211"/>
<image xlink:href="../../images/foreignKeys.png" width="11px" height="12px" preserveAspectRatio="xMinYMin meet" x="13" y="-228"/>
<text text-anchor="start" x="28" y="-219.2" font-family="Helvetica,sans-Serif" font-size="11.00">cof_armazenamentonuvem_id</text>
<polygon fill="none" stroke="black" points="8,-193 8,-211 246,-211 246,-193 8,-193"/>
<text text-anchor="start" x="11" y="-199.2" font-family="Helvetica,sans-Serif" font-size="11.00">...</text>
<polygon fill="#ffffff" stroke="transparent" points="8,-175 8,-193 246,-193 246,-175 8,-175"/>
<polygon fill="none" stroke="black" points="8,-175 8,-193 246,-193 246,-175 8,-175"/>
<polygon fill="#ffffff" stroke="transparent" points="9,-176 9,-192 80,-192 80,-176 9,-176"/>
<text text-anchor="start" x="11" y="-181.2" font-family="Helvetica,sans-Serif" font-size="11.00">&lt; 7</text>
<polygon fill="#ffffff" stroke="transparent" points="80,-176 80,-192 174,-192 174,-176 80,-176"/>
<text text-anchor="start" x="107.5" y="-181.2" font-family="Helvetica,sans-Serif" font-size="11.00">13 rows</text>
<polygon fill="#ffffff" stroke="transparent" points="174,-176 174,-192 245,-192 245,-176 174,-176"/>
<text text-anchor="start" x="227" y="-181.2" font-family="Helvetica,sans-Serif" font-size="11.00">3 &gt;</text>
<polygon fill="black" stroke="black" points="80,-176 80,-192 80,-192 80,-176 80,-176"/>
<polygon fill="black" stroke="black" points="174,-176 174,-192 174,-192 174,-176 174,-176"/>
</a>
</g>
</g>
<!-- ad_schedulerlog&#45;&gt;ad_scheduler -->
<g id="edge1" class="edge">
<title>ad_schedulerlog:w&#45;&gt;ad_scheduler:e</title>
<path fill="none" stroke="black" d="M281.49,-398C270.18,-398 262.99,-398 247,-398"/>
<polygon fill="black" stroke="black" points="288,-398 296,-401.6 292,-398 296,-398 296,-398 296,-398 292,-398 296,-394.4 288,-398 288,-398"/>
<ellipse fill="none" stroke="black" cx="284.8" cy="-398" rx="3.2" ry="3.2"/>
</g>
</g>
</svg>
