<?xml version="1.0" encoding="UTF-8" standalone="no"?>
<!DOCTYPE svg PUBLIC "-//W3C//DTD SVG 1.1//EN"
 "http://www.w3.org/Graphics/SVG/1.1/DTD/svg11.dtd">
<!-- Generated by graphviz version 2.43.0 (0)
 -->
<!-- Title: oneDegreeRelationshipsDiagram Pages: 1 -->
<svg width="580pt" height="604pt"
 viewBox="0.00 0.00 580.00 604.00" xmlns="http://www.w3.org/2000/svg" xmlns:xlink="http://www.w3.org/1999/xlink">
<g id="graph0" class="graph" transform="scale(1 1) rotate(0) translate(4 600)">
<title>oneDegreeRelationshipsDiagram</title>
<polygon fill="#ffffff" stroke="transparent" points="-4,4 -4,-600 576,-600 576,4 -4,4"/>
<text text-anchor="middle" x="71.5" y="-7.2" font-family="Helvetica,sans-Serif" font-size="11.00">Generated by SchemaSpy</text>
<!-- ad_scheduler_para -->
<g id="node1" class="node">
<title>ad_scheduler_para</title>
<g id="a_node1"><a xlink:href="../../tables/ad_scheduler_para.html" xlink:title="ad_scheduler_para" target="_top">
<polygon fill="#ffffff" stroke="transparent" points="295,-136 295,-466 564,-466 564,-136 295,-136"/>
<polygon fill="#f5f5f5" stroke="transparent" points="297.5,-442 297.5,-464 562.5,-464 562.5,-442 297.5,-442"/>
<polygon fill="none" stroke="black" points="297.5,-442 297.5,-464 562.5,-464 562.5,-442 297.5,-442"/>
<text text-anchor="start" x="302.5" y="-451.2" font-family="Helvetica,sans-Serif" font-weight="bold" font-size="11.00">ad_scheduler_para</text>
<text text-anchor="start" x="527.5" y="-450.2" font-family="Helvetica,sans-Serif" font-size="11.00">[table]</text>
<polygon fill="none" stroke="black" points="297.5,-420 297.5,-442 479.5,-442 479.5,-420 297.5,-420"/>
<image xlink:href="../../images/primaryKeys.png" width="11px" height="12px" preserveAspectRatio="xMinYMin meet" x="302.5" y="-437"/>
<text text-anchor="start" x="317.5" y="-428.2" font-family="Helvetica,sans-Serif" font-size="11.00">ad_scheduler_id</text>
<polygon fill="none" stroke="black" points="479.5,-420 479.5,-442 562.5,-442 562.5,-420 479.5,-420"/>
<text text-anchor="start" x="482.5" y="-428.2" font-family="Helvetica,sans-Serif" font-size="11.00">numeric[10]</text>
<polygon fill="none" stroke="black" points="297.5,-398 297.5,-420 479.5,-420 479.5,-398 297.5,-398"/>
<image xlink:href="../../images/primaryKeys.png" width="11px" height="12px" preserveAspectRatio="xMinYMin meet" x="302.5" y="-415"/>
<text text-anchor="start" x="317.5" y="-406.2" font-family="Helvetica,sans-Serif" font-size="11.00">ad_process_para_id</text>
<polygon fill="none" stroke="black" points="479.5,-398 479.5,-420 562.5,-420 562.5,-398 479.5,-398"/>
<text text-anchor="start" x="482.5" y="-406.2" font-family="Helvetica,sans-Serif" font-size="11.00">numeric[10]</text>
<polygon fill="none" stroke="black" points="297.5,-376 297.5,-398 479.5,-398 479.5,-376 297.5,-376"/>
<text text-anchor="start" x="317.5" y="-384.2" font-family="Helvetica,sans-Serif" font-size="11.00">ad_client_id</text>
<polygon fill="none" stroke="black" points="479.5,-376 479.5,-398 562.5,-398 562.5,-376 479.5,-376"/>
<text text-anchor="start" x="482.5" y="-384.2" font-family="Helvetica,sans-Serif" font-size="11.00">numeric[10]</text>
<polygon fill="none" stroke="black" points="297.5,-354 297.5,-376 479.5,-376 479.5,-354 297.5,-354"/>
<text text-anchor="start" x="317.5" y="-362.2" font-family="Helvetica,sans-Serif" font-size="11.00">ad_org_id</text>
<polygon fill="none" stroke="black" points="479.5,-354 479.5,-376 562.5,-376 562.5,-354 479.5,-354"/>
<text text-anchor="start" x="482.5" y="-362.2" font-family="Helvetica,sans-Serif" font-size="11.00">numeric[10]</text>
<polygon fill="none" stroke="black" points="297.5,-332 297.5,-354 479.5,-354 479.5,-332 297.5,-332"/>
<text text-anchor="start" x="317.5" y="-340.2" font-family="Helvetica,sans-Serif" font-size="11.00">isactive</text>
<polygon fill="none" stroke="black" points="479.5,-332 479.5,-354 562.5,-354 562.5,-332 479.5,-332"/>
<text text-anchor="start" x="482.5" y="-340.2" font-family="Helvetica,sans-Serif" font-size="11.00">bpchar[1]</text>
<polygon fill="none" stroke="black" points="297.5,-310 297.5,-332 479.5,-332 479.5,-310 297.5,-310"/>
<text text-anchor="start" x="317.5" y="-318.2" font-family="Helvetica,sans-Serif" font-size="11.00">created</text>
<polygon fill="none" stroke="black" points="479.5,-310 479.5,-332 562.5,-332 562.5,-310 479.5,-310"/>
<text text-anchor="start" x="482.5" y="-318.2" font-family="Helvetica,sans-Serif" font-size="11.00">timestamp[29,6]</text>
<polygon fill="none" stroke="black" points="297.5,-288 297.5,-310 479.5,-310 479.5,-288 297.5,-288"/>
<text text-anchor="start" x="317.5" y="-296.2" font-family="Helvetica,sans-Serif" font-size="11.00">createdby</text>
<polygon fill="none" stroke="black" points="479.5,-288 479.5,-310 562.5,-310 562.5,-288 479.5,-288"/>
<text text-anchor="start" x="482.5" y="-296.2" font-family="Helvetica,sans-Serif" font-size="11.00">numeric[10]</text>
<polygon fill="none" stroke="black" points="297.5,-266 297.5,-288 479.5,-288 479.5,-266 297.5,-266"/>
<text text-anchor="start" x="317.5" y="-274.2" font-family="Helvetica,sans-Serif" font-size="11.00">updated</text>
<polygon fill="none" stroke="black" points="479.5,-266 479.5,-288 562.5,-288 562.5,-266 479.5,-266"/>
<text text-anchor="start" x="482.5" y="-274.2" font-family="Helvetica,sans-Serif" font-size="11.00">timestamp[29,6]</text>
<polygon fill="none" stroke="black" points="297.5,-244 297.5,-266 479.5,-266 479.5,-244 297.5,-244"/>
<text text-anchor="start" x="317.5" y="-252.2" font-family="Helvetica,sans-Serif" font-size="11.00">updatedby</text>
<polygon fill="none" stroke="black" points="479.5,-244 479.5,-266 562.5,-266 562.5,-244 479.5,-244"/>
<text text-anchor="start" x="482.5" y="-252.2" font-family="Helvetica,sans-Serif" font-size="11.00">numeric[10]</text>
<polygon fill="none" stroke="black" points="297.5,-222 297.5,-244 479.5,-244 479.5,-222 297.5,-222"/>
<text text-anchor="start" x="317.5" y="-230.2" font-family="Helvetica,sans-Serif" font-size="11.00">parameterdefault</text>
<polygon fill="none" stroke="black" points="479.5,-222 479.5,-244 562.5,-244 562.5,-222 479.5,-222"/>
<text text-anchor="start" x="482.5" y="-230.2" font-family="Helvetica,sans-Serif" font-size="11.00">varchar[255]</text>
<polygon fill="none" stroke="black" points="297.5,-200 297.5,-222 479.5,-222 479.5,-200 297.5,-200"/>
<text text-anchor="start" x="317.5" y="-208.2" font-family="Helvetica,sans-Serif" font-size="11.00">description</text>
<polygon fill="none" stroke="black" points="479.5,-200 479.5,-222 562.5,-222 562.5,-200 479.5,-200"/>
<text text-anchor="start" x="482.5" y="-208.2" font-family="Helvetica,sans-Serif" font-size="11.00">varchar[255]</text>
<polygon fill="#ffffff" stroke="transparent" points="297.5,-178 297.5,-200 479.5,-200 479.5,-178 297.5,-178"/>
<polygon fill="none" stroke="black" points="297.5,-178 297.5,-200 479.5,-200 479.5,-178 297.5,-178"/>
<text text-anchor="start" x="317.5" y="-186.2" font-family="Helvetica,sans-Serif" font-size="11.00">ad_scheduler_para_uu</text>
<polygon fill="none" stroke="black" points="479.5,-178 479.5,-200 562.5,-200 562.5,-178 479.5,-178"/>
<text text-anchor="start" x="482.5" y="-186.2" font-family="Helvetica,sans-Serif" font-size="11.00">varchar[36]</text>
<polygon fill="none" stroke="black" points="297.5,-156 297.5,-178 479.5,-178 479.5,-156 297.5,-156"/>
<text text-anchor="start" x="317.5" y="-164.2" font-family="Helvetica,sans-Serif" font-size="11.00">parametertodefault</text>
<polygon fill="none" stroke="black" points="479.5,-156 479.5,-178 562.5,-178 562.5,-156 479.5,-156"/>
<text text-anchor="start" x="482.5" y="-164.2" font-family="Helvetica,sans-Serif" font-size="11.00">varchar[255]</text>
<polygon fill="#ffffff" stroke="transparent" points="297.5,-138 297.5,-156 562.5,-156 562.5,-138 297.5,-138"/>
<polygon fill="none" stroke="black" points="297.5,-138 297.5,-156 562.5,-156 562.5,-138 297.5,-138"/>
<polygon fill="#ffffff" stroke="transparent" points="298.5,-139 298.5,-155 378.5,-155 378.5,-139 298.5,-139"/>
<text text-anchor="start" x="300.5" y="-144.2" font-family="Helvetica,sans-Serif" font-size="11.00">&lt; 2</text>
<polygon fill="#ffffff" stroke="transparent" points="378.5,-139 378.5,-155 481.5,-155 481.5,-139 378.5,-139"/>
<text text-anchor="start" x="410.5" y="-144.2" font-family="Helvetica,sans-Serif" font-size="11.00">15 rows</text>
<polygon fill="#ffffff" stroke="transparent" points="481.5,-139 481.5,-155 561.5,-155 561.5,-139 481.5,-139"/>
<text text-anchor="start" x="543.5" y="-144.2" font-family="Helvetica,sans-Serif" font-size="11.00">0 &gt;</text>
<polygon fill="black" stroke="black" points="378.5,-139 378.5,-155 378.5,-155 378.5,-139 378.5,-139"/>
<polygon fill="black" stroke="black" points="481.5,-139 481.5,-155 481.5,-155 481.5,-139 481.5,-139"/>
<polygon fill="none" stroke="black" stroke-width="2" points="296,-137 296,-465 563,-465 563,-137 296,-137"/>
</a>
</g>
</g>
<!-- ad_process_para -->
<g id="node2" class="node">
<title>ad_process_para</title>
<g id="a_node2"><a xlink:href="../../tables/ad_process_para.html" xlink:title="ad_process_para" target="_top">
<polygon fill="#ffffff" stroke="transparent" points="36,-37 36,-315 218,-315 218,-37 36,-37"/>
<polygon fill="#f5f5f5" stroke="transparent" points="36,-293 36,-315 218,-315 218,-293 36,-293"/>
<polygon fill="none" stroke="black" points="36,-293 36,-315 218,-315 218,-293 36,-293"/>
<text text-anchor="start" x="41" y="-302.2" font-family="Helvetica,sans-Serif" font-weight="bold" font-size="11.00">ad_process_para</text>
<text text-anchor="start" x="183" y="-301.2" font-family="Helvetica,sans-Serif" font-size="11.00">[table]</text>
<polygon fill="none" stroke="black" points="36,-271 36,-293 218,-293 218,-271 36,-271"/>
<image xlink:href="../../images/primaryKeys.png" width="11px" height="12px" preserveAspectRatio="xMinYMin meet" x="41" y="-288"/>
<text text-anchor="start" x="56" y="-279.2" font-family="Helvetica,sans-Serif" font-size="11.00">ad_process_para_id</text>
<polygon fill="#ffffff" stroke="transparent" points="36,-249 36,-271 218,-271 218,-249 36,-249"/>
<polygon fill="none" stroke="black" points="36,-249 36,-271 218,-271 218,-249 36,-249"/>
<image xlink:href="../../images/foreignKeys.png" width="11px" height="12px" preserveAspectRatio="xMinYMin meet" x="41" y="-266"/>
<text text-anchor="start" x="56" y="-257.2" font-family="Helvetica,sans-Serif" font-size="11.00">ad_process_id</text>
<polygon fill="#ffffff" stroke="transparent" points="36,-227 36,-249 218,-249 218,-227 36,-227"/>
<polygon fill="none" stroke="black" points="36,-227 36,-249 218,-249 218,-227 36,-227"/>
<text text-anchor="start" x="56" y="-235.2" font-family="Helvetica,sans-Serif" font-size="11.00">seqno</text>
<polygon fill="none" stroke="black" points="36,-205 36,-227 218,-227 218,-205 36,-205"/>
<image xlink:href="../../images/foreignKeys.png" width="11px" height="12px" preserveAspectRatio="xMinYMin meet" x="41" y="-222"/>
<text text-anchor="start" x="56" y="-213.2" font-family="Helvetica,sans-Serif" font-size="11.00">ad_reference_id</text>
<polygon fill="none" stroke="black" points="36,-183 36,-205 218,-205 218,-183 36,-183"/>
<image xlink:href="../../images/foreignKeys.png" width="11px" height="12px" preserveAspectRatio="xMinYMin meet" x="41" y="-200"/>
<text text-anchor="start" x="56" y="-191.2" font-family="Helvetica,sans-Serif" font-size="11.00">ad_reference_value_id</text>
<polygon fill="none" stroke="black" points="36,-161 36,-183 218,-183 218,-161 36,-161"/>
<image xlink:href="../../images/foreignKeys.png" width="11px" height="12px" preserveAspectRatio="xMinYMin meet" x="41" y="-178"/>
<text text-anchor="start" x="56" y="-169.2" font-family="Helvetica,sans-Serif" font-size="11.00">ad_val_rule_id</text>
<polygon fill="none" stroke="black" points="36,-139 36,-161 218,-161 218,-139 36,-139"/>
<image xlink:href="../../images/foreignKeys.png" width="11px" height="12px" preserveAspectRatio="xMinYMin meet" x="41" y="-156"/>
<text text-anchor="start" x="56" y="-147.2" font-family="Helvetica,sans-Serif" font-size="11.00">ad_element_id</text>
<polygon fill="none" stroke="black" points="36,-117 36,-139 218,-139 218,-117 36,-117"/>
<image xlink:href="../../images/foreignKeys.png" width="11px" height="12px" preserveAspectRatio="xMinYMin meet" x="41" y="-134"/>
<text text-anchor="start" x="56" y="-125.2" font-family="Helvetica,sans-Serif" font-size="11.00">entitytype</text>
<polygon fill="#ffffff" stroke="transparent" points="36,-95 36,-117 218,-117 218,-95 36,-95"/>
<polygon fill="none" stroke="black" points="36,-95 36,-117 218,-117 218,-95 36,-95"/>
<text text-anchor="start" x="56" y="-103.2" font-family="Helvetica,sans-Serif" font-size="11.00">ad_process_para_uu</text>
<polygon fill="none" stroke="black" points="36,-73 36,-95 218,-95 218,-73 36,-73"/>
<image xlink:href="../../images/foreignKeys.png" width="11px" height="12px" preserveAspectRatio="xMinYMin meet" x="41" y="-90"/>
<text text-anchor="start" x="56" y="-81.2" font-family="Helvetica,sans-Serif" font-size="11.00">ad_fieldgroup_id</text>
<polygon fill="none" stroke="black" points="36,-55 36,-73 218,-73 218,-55 36,-55"/>
<text text-anchor="start" x="39" y="-61.2" font-family="Helvetica,sans-Serif" font-size="11.00">...</text>
<polygon fill="#ffffff" stroke="transparent" points="36,-37 36,-55 218,-55 218,-37 36,-37"/>
<polygon fill="none" stroke="black" points="36,-37 36,-55 218,-55 218,-37 36,-37"/>
<polygon fill="#ffffff" stroke="transparent" points="37,-38 37,-54 85,-54 85,-38 37,-38"/>
<text text-anchor="start" x="39" y="-43.2" font-family="Helvetica,sans-Serif" font-size="11.00">&lt; 7</text>
<polygon fill="#ffffff" stroke="transparent" points="85,-38 85,-54 170,-54 170,-38 85,-38"/>
<text text-anchor="start" x="100.5" y="-43.2" font-family="Helvetica,sans-Serif" font-size="11.00">3.964 rows</text>
<polygon fill="#ffffff" stroke="transparent" points="170,-38 170,-54 217,-54 217,-38 170,-38"/>
<text text-anchor="start" x="199" y="-43.2" font-family="Helvetica,sans-Serif" font-size="11.00">8 &gt;</text>
<polygon fill="black" stroke="black" points="85,-38 85,-54 85,-54 85,-38 85,-38"/>
<polygon fill="black" stroke="black" points="170,-38 170,-54 170,-54 170,-38 170,-38"/>
</a>
</g>
</g>
<!-- ad_scheduler_para&#45;&gt;ad_process_para -->
<g id="edge1" class="edge">
<title>ad_scheduler_para:w&#45;&gt;ad_process_para:e</title>
<path fill="none" stroke="black" d="M282.25,-406.46C238.72,-388.56 279.57,-282 219,-282"/>
<polygon fill="black" stroke="black" points="288.62,-407.6 295.87,-412.54 292.56,-408.3 296.5,-409 296.5,-409 296.5,-409 292.56,-408.3 297.13,-405.46 288.62,-407.6 288.62,-407.6"/>
<ellipse fill="none" stroke="black" cx="285.47" cy="-407.04" rx="3.2" ry="3.2"/>
</g>
<!-- ad_scheduler -->
<g id="node3" class="node">
<title>ad_scheduler</title>
<g id="a_node3"><a xlink:href="../../tables/ad_scheduler.html" xlink:title="ad_scheduler" target="_top">
<polygon fill="#ffffff" stroke="transparent" points="8,-336 8,-592 246,-592 246,-336 8,-336"/>
<polygon fill="#f5f5f5" stroke="transparent" points="8,-570 8,-592 246,-592 246,-570 8,-570"/>
<polygon fill="none" stroke="black" points="8,-570 8,-592 246,-592 246,-570 8,-570"/>
<text text-anchor="start" x="13" y="-579.2" font-family="Helvetica,sans-Serif" font-weight="bold" font-size="11.00">ad_scheduler</text>
<text text-anchor="start" x="211" y="-578.2" font-family="Helvetica,sans-Serif" font-size="11.00">[table]</text>
<polygon fill="none" stroke="black" points="8,-548 8,-570 246,-570 246,-548 8,-548"/>
<image xlink:href="../../images/primaryKeys.png" width="11px" height="12px" preserveAspectRatio="xMinYMin meet" x="13" y="-565"/>
<text text-anchor="start" x="28" y="-556.2" font-family="Helvetica,sans-Serif" font-size="11.00">ad_scheduler_id</text>
<polygon fill="none" stroke="black" points="8,-526 8,-548 246,-548 246,-526 8,-526"/>
<image xlink:href="../../images/foreignKeys.png" width="11px" height="12px" preserveAspectRatio="xMinYMin meet" x="13" y="-543"/>
<text text-anchor="start" x="28" y="-534.2" font-family="Helvetica,sans-Serif" font-size="11.00">ad_process_id</text>
<polygon fill="none" stroke="black" points="8,-504 8,-526 246,-526 246,-504 8,-504"/>
<image xlink:href="../../images/foreignKeys.png" width="11px" height="12px" preserveAspectRatio="xMinYMin meet" x="13" y="-521"/>
<text text-anchor="start" x="28" y="-512.2" font-family="Helvetica,sans-Serif" font-size="11.00">supervisor_id</text>
<polygon fill="none" stroke="black" points="8,-482 8,-504 246,-504 246,-482 8,-482"/>
<image xlink:href="../../images/foreignKeys.png" width="11px" height="12px" preserveAspectRatio="xMinYMin meet" x="13" y="-499"/>
<text text-anchor="start" x="28" y="-490.2" font-family="Helvetica,sans-Serif" font-size="11.00">ad_table_id</text>
<polygon fill="#ffffff" stroke="transparent" points="8,-460 8,-482 246,-482 246,-460 8,-460"/>
<polygon fill="none" stroke="black" points="8,-460 8,-482 246,-482 246,-460 8,-460"/>
<text text-anchor="start" x="28" y="-468.2" font-family="Helvetica,sans-Serif" font-size="11.00">ad_scheduler_uu</text>
<polygon fill="none" stroke="black" points="8,-438 8,-460 246,-460 246,-438 8,-438"/>
<image xlink:href="../../images/foreignKeys.png" width="11px" height="12px" preserveAspectRatio="xMinYMin meet" x="13" y="-455"/>
<text text-anchor="start" x="28" y="-446.2" font-family="Helvetica,sans-Serif" font-size="11.00">ad_schedule_id</text>
<polygon fill="none" stroke="black" points="8,-416 8,-438 246,-438 246,-416 8,-416"/>
<image xlink:href="../../images/foreignKeys.png" width="11px" height="12px" preserveAspectRatio="xMinYMin meet" x="13" y="-433"/>
<text text-anchor="start" x="28" y="-424.2" font-family="Helvetica,sans-Serif" font-size="11.00">r_mailtext_id</text>
<polygon fill="none" stroke="black" points="8,-394 8,-416 246,-416 246,-394 8,-394"/>
<image xlink:href="../../images/foreignKeys.png" width="11px" height="12px" preserveAspectRatio="xMinYMin meet" x="13" y="-411"/>
<text text-anchor="start" x="28" y="-402.2" font-family="Helvetica,sans-Serif" font-size="11.00">ad_printformat_id</text>
<polygon fill="none" stroke="black" points="8,-372 8,-394 246,-394 246,-372 8,-372"/>
<image xlink:href="../../images/foreignKeys.png" width="11px" height="12px" preserveAspectRatio="xMinYMin meet" x="13" y="-389"/>
<text text-anchor="start" x="28" y="-380.2" font-family="Helvetica,sans-Serif" font-size="11.00">cof_armazenamentonuvem_id</text>
<polygon fill="none" stroke="black" points="8,-354 8,-372 246,-372 246,-354 8,-354"/>
<text text-anchor="start" x="11" y="-360.2" font-family="Helvetica,sans-Serif" font-size="11.00">...</text>
<polygon fill="#ffffff" stroke="transparent" points="8,-336 8,-354 246,-354 246,-336 8,-336"/>
<polygon fill="none" stroke="black" points="8,-336 8,-354 246,-354 246,-336 8,-336"/>
<polygon fill="#ffffff" stroke="transparent" points="9,-337 9,-353 80,-353 80,-337 9,-337"/>
<text text-anchor="start" x="11" y="-342.2" font-family="Helvetica,sans-Serif" font-size="11.00">&lt; 7</text>
<polygon fill="#ffffff" stroke="transparent" points="80,-337 80,-353 174,-353 174,-337 80,-337"/>
<text text-anchor="start" x="107.5" y="-342.2" font-family="Helvetica,sans-Serif" font-size="11.00">13 rows</text>
<polygon fill="#ffffff" stroke="transparent" points="174,-337 174,-353 245,-353 245,-337 174,-337"/>
<text text-anchor="start" x="227" y="-342.2" font-family="Helvetica,sans-Serif" font-size="11.00">3 &gt;</text>
<polygon fill="black" stroke="black" points="80,-337 80,-353 80,-353 80,-337 80,-337"/>
<polygon fill="black" stroke="black" points="174,-337 174,-353 174,-353 174,-337 174,-337"/>
</a>
</g>
</g>
<!-- ad_scheduler_para&#45;&gt;ad_scheduler -->
<g id="edge2" class="edge">
<title>ad_scheduler_para:w&#45;&gt;ad_scheduler:e</title>
<path fill="none" stroke="black" d="M282.2,-434.42C248.39,-454.78 302.04,-559 247,-559"/>
<polygon fill="black" stroke="black" points="288.72,-432.86 297.34,-434.5 292.61,-431.93 296.5,-431 296.5,-431 296.5,-431 292.61,-431.93 295.66,-427.5 288.72,-432.86 288.72,-432.86"/>
<ellipse fill="none" stroke="black" cx="285.61" cy="-433.61" rx="3.2" ry="3.2"/>
</g>
</g>
</svg>
