<?xml version="1.0" encoding="UTF-8" standalone="no"?>
<!DOCTYPE svg PUBLIC "-//W3C//DTD SVG 1.1//EN"
 "http://www.w3.org/Graphics/SVG/1.1/DTD/svg11.dtd">
<!-- Generated by graphviz version 2.43.0 (0)
 -->
<!-- Title: oneDegreeRelationshipsDiagram Pages: 1 -->
<svg width="1125pt" height="944pt"
 viewBox="0.00 0.00 1125.00 944.00" xmlns="http://www.w3.org/2000/svg" xmlns:xlink="http://www.w3.org/1999/xlink">
<g id="graph0" class="graph" transform="scale(1 1) rotate(0) translate(4 940)">
<title>oneDegreeRelationshipsDiagram</title>
<polygon fill="#ffffff" stroke="transparent" points="-4,4 -4,-940 1121,-940 1121,4 -4,4"/>
<text text-anchor="middle" x="71.5" y="-7.2" font-family="Helvetica,sans-Serif" font-size="11.00">Generated by SchemaSpy</text>
<!-- ad_tab -->
<g id="node1" class="node">
<title>ad_tab</title>
<g id="a_node1"><a xlink:href="../../tables/ad_tab.html" xlink:title="ad_tab" target="_top">
<polygon fill="#ffffff" stroke="transparent" points="280,-262 280,-650 475,-650 475,-262 280,-262"/>
<polygon fill="#f5f5f5" stroke="transparent" points="280.5,-628 280.5,-650 475.5,-650 475.5,-628 280.5,-628"/>
<polygon fill="none" stroke="black" points="280.5,-628 280.5,-650 475.5,-650 475.5,-628 280.5,-628"/>
<text text-anchor="start" x="285.5" y="-637.2" font-family="Helvetica,sans-Serif" font-weight="bold" font-size="11.00">ad_tab</text>
<text text-anchor="start" x="440.5" y="-636.2" font-family="Helvetica,sans-Serif" font-size="11.00">[table]</text>
<polygon fill="none" stroke="black" points="280.5,-606 280.5,-628 475.5,-628 475.5,-606 280.5,-606"/>
<image xlink:href="../../images/primaryKeys.png" width="11px" height="12px" preserveAspectRatio="xMinYMin meet" x="285.5" y="-623"/>
<text text-anchor="start" x="300.5" y="-614.2" font-family="Helvetica,sans-Serif" font-size="11.00">ad_tab_id</text>
<polygon fill="none" stroke="black" points="280.5,-584 280.5,-606 475.5,-606 475.5,-584 280.5,-584"/>
<image xlink:href="../../images/foreignKeys.png" width="11px" height="12px" preserveAspectRatio="xMinYMin meet" x="285.5" y="-601"/>
<text text-anchor="start" x="300.5" y="-592.2" font-family="Helvetica,sans-Serif" font-size="11.00">ad_client_id</text>
<polygon fill="none" stroke="black" points="280.5,-562 280.5,-584 475.5,-584 475.5,-562 280.5,-562"/>
<image xlink:href="../../images/foreignKeys.png" width="11px" height="12px" preserveAspectRatio="xMinYMin meet" x="285.5" y="-579"/>
<text text-anchor="start" x="300.5" y="-570.2" font-family="Helvetica,sans-Serif" font-size="11.00">ad_org_id</text>
<polygon fill="#ffffff" stroke="transparent" points="280.5,-540 280.5,-562 475.5,-562 475.5,-540 280.5,-540"/>
<polygon fill="none" stroke="black" points="280.5,-540 280.5,-562 475.5,-562 475.5,-540 280.5,-540"/>
<image xlink:href="../../images/foreignKeys.png" width="11px" height="12px" preserveAspectRatio="xMinYMin meet" x="285.5" y="-557"/>
<text text-anchor="start" x="300.5" y="-548.2" font-family="Helvetica,sans-Serif" font-size="11.00">ad_table_id</text>
<polygon fill="#ffffff" stroke="transparent" points="280.5,-518 280.5,-540 475.5,-540 475.5,-518 280.5,-518"/>
<polygon fill="none" stroke="black" points="280.5,-518 280.5,-540 475.5,-540 475.5,-518 280.5,-518"/>
<image xlink:href="../../images/foreignKeys.png" width="11px" height="12px" preserveAspectRatio="xMinYMin meet" x="285.5" y="-535"/>
<text text-anchor="start" x="300.5" y="-526.2" font-family="Helvetica,sans-Serif" font-size="11.00">ad_window_id</text>
<polygon fill="none" stroke="black" points="280.5,-496 280.5,-518 475.5,-518 475.5,-496 280.5,-496"/>
<image xlink:href="../../images/foreignKeys.png" width="11px" height="12px" preserveAspectRatio="xMinYMin meet" x="285.5" y="-513"/>
<text text-anchor="start" x="300.5" y="-504.2" font-family="Helvetica,sans-Serif" font-size="11.00">ad_column_id</text>
<polygon fill="none" stroke="black" points="280.5,-474 280.5,-496 475.5,-496 475.5,-474 280.5,-474"/>
<image xlink:href="../../images/foreignKeys.png" width="11px" height="12px" preserveAspectRatio="xMinYMin meet" x="285.5" y="-491"/>
<text text-anchor="start" x="300.5" y="-482.2" font-family="Helvetica,sans-Serif" font-size="11.00">ad_process_id</text>
<polygon fill="none" stroke="black" points="280.5,-452 280.5,-474 475.5,-474 475.5,-452 280.5,-452"/>
<image xlink:href="../../images/foreignKeys.png" width="11px" height="12px" preserveAspectRatio="xMinYMin meet" x="285.5" y="-469"/>
<text text-anchor="start" x="300.5" y="-460.2" font-family="Helvetica,sans-Serif" font-size="11.00">ad_image_id</text>
<polygon fill="none" stroke="black" points="280.5,-430 280.5,-452 475.5,-452 475.5,-430 280.5,-430"/>
<image xlink:href="../../images/foreignKeys.png" width="11px" height="12px" preserveAspectRatio="xMinYMin meet" x="285.5" y="-447"/>
<text text-anchor="start" x="300.5" y="-438.2" font-family="Helvetica,sans-Serif" font-size="11.00">ad_columnsortorder_id</text>
<polygon fill="none" stroke="black" points="280.5,-408 280.5,-430 475.5,-430 475.5,-408 280.5,-408"/>
<image xlink:href="../../images/foreignKeys.png" width="11px" height="12px" preserveAspectRatio="xMinYMin meet" x="285.5" y="-425"/>
<text text-anchor="start" x="300.5" y="-416.2" font-family="Helvetica,sans-Serif" font-size="11.00">ad_columnsortyesno_id</text>
<polygon fill="none" stroke="black" points="280.5,-386 280.5,-408 475.5,-408 475.5,-386 280.5,-386"/>
<image xlink:href="../../images/foreignKeys.png" width="11px" height="12px" preserveAspectRatio="xMinYMin meet" x="285.5" y="-403"/>
<text text-anchor="start" x="300.5" y="-394.2" font-family="Helvetica,sans-Serif" font-size="11.00">entitytype</text>
<polygon fill="none" stroke="black" points="280.5,-364 280.5,-386 475.5,-386 475.5,-364 280.5,-364"/>
<image xlink:href="../../images/foreignKeys.png" width="11px" height="12px" preserveAspectRatio="xMinYMin meet" x="285.5" y="-381"/>
<text text-anchor="start" x="300.5" y="-372.2" font-family="Helvetica,sans-Serif" font-size="11.00">included_tab_id</text>
<polygon fill="none" stroke="black" points="280.5,-342 280.5,-364 475.5,-364 475.5,-342 280.5,-342"/>
<image xlink:href="../../images/foreignKeys.png" width="11px" height="12px" preserveAspectRatio="xMinYMin meet" x="285.5" y="-359"/>
<text text-anchor="start" x="300.5" y="-350.2" font-family="Helvetica,sans-Serif" font-size="11.00">parent_column_id</text>
<polygon fill="#ffffff" stroke="transparent" points="280.5,-320 280.5,-342 475.5,-342 475.5,-320 280.5,-320"/>
<polygon fill="none" stroke="black" points="280.5,-320 280.5,-342 475.5,-342 475.5,-320 280.5,-320"/>
<text text-anchor="start" x="300.5" y="-328.2" font-family="Helvetica,sans-Serif" font-size="11.00">ad_tab_uu</text>
<polygon fill="none" stroke="black" points="280.5,-298 280.5,-320 475.5,-320 475.5,-298 280.5,-298"/>
<image xlink:href="../../images/foreignKeys.png" width="11px" height="12px" preserveAspectRatio="xMinYMin meet" x="285.5" y="-315"/>
<text text-anchor="start" x="300.5" y="-306.2" font-family="Helvetica,sans-Serif" font-size="11.00">ad_ctxhelp_id</text>
<polygon fill="none" stroke="black" points="280.5,-280 280.5,-298 475.5,-298 475.5,-280 280.5,-280"/>
<text text-anchor="start" x="283.5" y="-286.2" font-family="Helvetica,sans-Serif" font-size="11.00">...</text>
<polygon fill="#ffffff" stroke="transparent" points="280.5,-262 280.5,-280 475.5,-280 475.5,-262 280.5,-262"/>
<polygon fill="none" stroke="black" points="280.5,-262 280.5,-280 475.5,-280 475.5,-262 280.5,-262"/>
<polygon fill="#ffffff" stroke="transparent" points="281.5,-263 281.5,-279 335.5,-279 335.5,-263 281.5,-263"/>
<text text-anchor="start" x="283.5" y="-268.2" font-family="Helvetica,sans-Serif" font-size="11.00">&lt; 13</text>
<polygon fill="#ffffff" stroke="transparent" points="335.5,-263 335.5,-279 421.5,-279 421.5,-263 335.5,-263"/>
<text text-anchor="start" x="351.5" y="-268.2" font-family="Helvetica,sans-Serif" font-size="11.00">1.508 rows</text>
<polygon fill="#ffffff" stroke="transparent" points="421.5,-263 421.5,-279 474.5,-279 474.5,-263 421.5,-263"/>
<text text-anchor="start" x="450.5" y="-268.2" font-family="Helvetica,sans-Serif" font-size="11.00">14 &gt;</text>
<polygon fill="black" stroke="black" points="335.5,-263 335.5,-279 335.5,-279 335.5,-263 335.5,-263"/>
<polygon fill="black" stroke="black" points="421.5,-263 421.5,-279 421.5,-279 421.5,-263 421.5,-263"/>
</a>
</g>
</g>
<!-- ad_process -->
<g id="node2" class="node">
<title>ad_process</title>
<g id="a_node2"><a xlink:href="../../tables/ad_process.html" xlink:title="ad_process" target="_top">
<polygon fill="#ffffff" stroke="transparent" points="24,-37 24,-271 215,-271 215,-37 24,-37"/>
<polygon fill="#f5f5f5" stroke="transparent" points="24.5,-249 24.5,-271 215.5,-271 215.5,-249 24.5,-249"/>
<polygon fill="none" stroke="black" points="24.5,-249 24.5,-271 215.5,-271 215.5,-249 24.5,-249"/>
<text text-anchor="start" x="29.5" y="-258.2" font-family="Helvetica,sans-Serif" font-weight="bold" font-size="11.00">ad_process</text>
<text text-anchor="start" x="180.5" y="-257.2" font-family="Helvetica,sans-Serif" font-size="11.00">[table]</text>
<polygon fill="none" stroke="black" points="24.5,-227 24.5,-249 215.5,-249 215.5,-227 24.5,-227"/>
<image xlink:href="../../images/primaryKeys.png" width="11px" height="12px" preserveAspectRatio="xMinYMin meet" x="29.5" y="-244"/>
<text text-anchor="start" x="44.5" y="-235.2" font-family="Helvetica,sans-Serif" font-size="11.00">ad_process_id</text>
<polygon fill="none" stroke="black" points="24.5,-205 24.5,-227 215.5,-227 215.5,-205 24.5,-205"/>
<image xlink:href="../../images/foreignKeys.png" width="11px" height="12px" preserveAspectRatio="xMinYMin meet" x="29.5" y="-222"/>
<text text-anchor="start" x="44.5" y="-213.2" font-family="Helvetica,sans-Serif" font-size="11.00">entitytype</text>
<polygon fill="none" stroke="black" points="24.5,-183 24.5,-205 215.5,-205 215.5,-183 24.5,-183"/>
<image xlink:href="../../images/foreignKeys.png" width="11px" height="12px" preserveAspectRatio="xMinYMin meet" x="29.5" y="-200"/>
<text text-anchor="start" x="44.5" y="-191.2" font-family="Helvetica,sans-Serif" font-size="11.00">ad_reportview_id</text>
<polygon fill="none" stroke="black" points="24.5,-161 24.5,-183 215.5,-183 215.5,-161 24.5,-161"/>
<image xlink:href="../../images/foreignKeys.png" width="11px" height="12px" preserveAspectRatio="xMinYMin meet" x="29.5" y="-178"/>
<text text-anchor="start" x="44.5" y="-169.2" font-family="Helvetica,sans-Serif" font-size="11.00">ad_printformat_id</text>
<polygon fill="none" stroke="black" points="24.5,-139 24.5,-161 215.5,-161 215.5,-139 24.5,-139"/>
<image xlink:href="../../images/foreignKeys.png" width="11px" height="12px" preserveAspectRatio="xMinYMin meet" x="29.5" y="-156"/>
<text text-anchor="start" x="44.5" y="-147.2" font-family="Helvetica,sans-Serif" font-size="11.00">ad_workflow_id</text>
<polygon fill="none" stroke="black" points="24.5,-117 24.5,-139 215.5,-139 215.5,-117 24.5,-117"/>
<image xlink:href="../../images/foreignKeys.png" width="11px" height="12px" preserveAspectRatio="xMinYMin meet" x="29.5" y="-134"/>
<text text-anchor="start" x="44.5" y="-125.2" font-family="Helvetica,sans-Serif" font-size="11.00">ad_form_id</text>
<polygon fill="#ffffff" stroke="transparent" points="24.5,-95 24.5,-117 215.5,-117 215.5,-95 24.5,-95"/>
<polygon fill="none" stroke="black" points="24.5,-95 24.5,-117 215.5,-117 215.5,-95 24.5,-95"/>
<text text-anchor="start" x="44.5" y="-103.2" font-family="Helvetica,sans-Serif" font-size="11.00">ad_process_uu</text>
<polygon fill="none" stroke="black" points="24.5,-73 24.5,-95 215.5,-95 215.5,-73 24.5,-73"/>
<image xlink:href="../../images/foreignKeys.png" width="11px" height="12px" preserveAspectRatio="xMinYMin meet" x="29.5" y="-90"/>
<text text-anchor="start" x="44.5" y="-81.2" font-family="Helvetica,sans-Serif" font-size="11.00">ad_ctxhelp_id</text>
<polygon fill="none" stroke="black" points="24.5,-55 24.5,-73 215.5,-73 215.5,-55 24.5,-55"/>
<text text-anchor="start" x="27.5" y="-61.2" font-family="Helvetica,sans-Serif" font-size="11.00">...</text>
<polygon fill="#ffffff" stroke="transparent" points="24.5,-37 24.5,-55 215.5,-55 215.5,-37 24.5,-37"/>
<polygon fill="none" stroke="black" points="24.5,-37 24.5,-55 215.5,-55 215.5,-37 24.5,-37"/>
<polygon fill="#ffffff" stroke="transparent" points="25.5,-38 25.5,-54 77.5,-54 77.5,-38 25.5,-38"/>
<text text-anchor="start" x="27.5" y="-43.2" font-family="Helvetica,sans-Serif" font-size="11.00">&lt; 6</text>
<polygon fill="#ffffff" stroke="transparent" points="77.5,-38 77.5,-54 157.5,-54 157.5,-38 77.5,-38"/>
<text text-anchor="start" x="95" y="-43.2" font-family="Helvetica,sans-Serif" font-size="11.00">957 rows</text>
<polygon fill="#ffffff" stroke="transparent" points="157.5,-38 157.5,-54 214.5,-54 214.5,-38 157.5,-38"/>
<text text-anchor="start" x="190.5" y="-43.2" font-family="Helvetica,sans-Serif" font-size="11.00">28 &gt;</text>
<polygon fill="black" stroke="black" points="77.5,-38 77.5,-54 77.5,-54 77.5,-38 77.5,-38"/>
<polygon fill="black" stroke="black" points="157.5,-38 157.5,-54 157.5,-54 157.5,-38 157.5,-38"/>
</a>
</g>
</g>
<!-- ad_tab&#45;&gt;ad_process -->
<g id="edge1" class="edge">
<title>ad_tab:w&#45;&gt;ad_process:e</title>
<path fill="none" stroke="black" d="M266.21,-478.89C231.34,-440.86 267.84,-238 216.5,-238"/>
<polygon fill="black" stroke="black" points="272.23,-481.66 278,-488.27 275.87,-483.33 279.5,-485 279.5,-485 279.5,-485 275.87,-483.33 281,-481.73 272.23,-481.66 272.23,-481.66"/>
<ellipse fill="none" stroke="black" cx="269.32" cy="-480.32" rx="3.2" ry="3.2"/>
</g>
<!-- ad_window -->
<g id="node3" class="node">
<title>ad_window</title>
<g id="a_node3"><a xlink:href="../../tables/ad_window.html" xlink:title="ad_window" target="_top">
<polygon fill="#ffffff" stroke="transparent" points="8,-400 8,-634 231,-634 231,-400 8,-400"/>
<polygon fill="#f5f5f5" stroke="transparent" points="8.5,-612 8.5,-634 231.5,-634 231.5,-612 8.5,-612"/>
<polygon fill="none" stroke="black" points="8.5,-612 8.5,-634 231.5,-634 231.5,-612 8.5,-612"/>
<text text-anchor="start" x="13.5" y="-621.2" font-family="Helvetica,sans-Serif" font-weight="bold" font-size="11.00">ad_window</text>
<text text-anchor="start" x="196.5" y="-620.2" font-family="Helvetica,sans-Serif" font-size="11.00">[table]</text>
<polygon fill="none" stroke="black" points="8.5,-590 8.5,-612 231.5,-612 231.5,-590 8.5,-590"/>
<image xlink:href="../../images/primaryKeys.png" width="11px" height="12px" preserveAspectRatio="xMinYMin meet" x="13.5" y="-607"/>
<text text-anchor="start" x="28.5" y="-598.2" font-family="Helvetica,sans-Serif" font-size="11.00">ad_window_id</text>
<polygon fill="#ffffff" stroke="transparent" points="8.5,-568 8.5,-590 231.5,-590 231.5,-568 8.5,-568"/>
<polygon fill="none" stroke="black" points="8.5,-568 8.5,-590 231.5,-590 231.5,-568 8.5,-568"/>
<image xlink:href="../../images/foreignKeys.png" width="11px" height="12px" preserveAspectRatio="xMinYMin meet" x="13.5" y="-585"/>
<text text-anchor="start" x="28.5" y="-576.2" font-family="Helvetica,sans-Serif" font-size="11.00">ad_client_id</text>
<polygon fill="none" stroke="black" points="8.5,-546 8.5,-568 231.5,-568 231.5,-546 8.5,-546"/>
<image xlink:href="../../images/foreignKeys.png" width="11px" height="12px" preserveAspectRatio="xMinYMin meet" x="13.5" y="-563"/>
<text text-anchor="start" x="28.5" y="-554.2" font-family="Helvetica,sans-Serif" font-size="11.00">ad_org_id</text>
<polygon fill="#ffffff" stroke="transparent" points="8.5,-524 8.5,-546 231.5,-546 231.5,-524 8.5,-524"/>
<polygon fill="none" stroke="black" points="8.5,-524 8.5,-546 231.5,-546 231.5,-524 8.5,-524"/>
<text text-anchor="start" x="28.5" y="-532.2" font-family="Helvetica,sans-Serif" font-size="11.00">name</text>
<polygon fill="none" stroke="black" points="8.5,-502 8.5,-524 231.5,-524 231.5,-502 8.5,-502"/>
<image xlink:href="../../images/foreignKeys.png" width="11px" height="12px" preserveAspectRatio="xMinYMin meet" x="13.5" y="-519"/>
<text text-anchor="start" x="28.5" y="-510.2" font-family="Helvetica,sans-Serif" font-size="11.00">entitytype</text>
<polygon fill="none" stroke="black" points="8.5,-480 8.5,-502 231.5,-502 231.5,-480 8.5,-480"/>
<image xlink:href="../../images/foreignKeys.png" width="11px" height="12px" preserveAspectRatio="xMinYMin meet" x="13.5" y="-497"/>
<text text-anchor="start" x="28.5" y="-488.2" font-family="Helvetica,sans-Serif" font-size="11.00">ad_image_id</text>
<polygon fill="none" stroke="black" points="8.5,-458 8.5,-480 231.5,-480 231.5,-458 8.5,-458"/>
<image xlink:href="../../images/foreignKeys.png" width="11px" height="12px" preserveAspectRatio="xMinYMin meet" x="13.5" y="-475"/>
<text text-anchor="start" x="28.5" y="-466.2" font-family="Helvetica,sans-Serif" font-size="11.00">ad_color_id</text>
<polygon fill="#ffffff" stroke="transparent" points="8.5,-436 8.5,-458 231.5,-458 231.5,-436 8.5,-436"/>
<polygon fill="none" stroke="black" points="8.5,-436 8.5,-458 231.5,-458 231.5,-436 8.5,-436"/>
<text text-anchor="start" x="28.5" y="-444.2" font-family="Helvetica,sans-Serif" font-size="11.00">ad_window_uu</text>
<polygon fill="none" stroke="black" points="8.5,-418 8.5,-436 231.5,-436 231.5,-418 8.5,-418"/>
<text text-anchor="start" x="11.5" y="-424.2" font-family="Helvetica,sans-Serif" font-size="11.00">...</text>
<polygon fill="#ffffff" stroke="transparent" points="8.5,-400 8.5,-418 231.5,-418 231.5,-400 8.5,-400"/>
<polygon fill="none" stroke="black" points="8.5,-400 8.5,-418 231.5,-418 231.5,-400 8.5,-400"/>
<polygon fill="#ffffff" stroke="transparent" points="9.5,-401 9.5,-417 71.5,-417 71.5,-401 9.5,-401"/>
<text text-anchor="start" x="11.5" y="-406.2" font-family="Helvetica,sans-Serif" font-size="11.00">&lt; 5</text>
<polygon fill="#ffffff" stroke="transparent" points="71.5,-401 71.5,-417 162.5,-417 162.5,-401 71.5,-401"/>
<text text-anchor="start" x="94.5" y="-406.2" font-family="Helvetica,sans-Serif" font-size="11.00">606 rows</text>
<polygon fill="#ffffff" stroke="transparent" points="162.5,-401 162.5,-417 230.5,-417 230.5,-401 162.5,-401"/>
<text text-anchor="start" x="206.5" y="-406.2" font-family="Helvetica,sans-Serif" font-size="11.00">32 &gt;</text>
<polygon fill="black" stroke="black" points="71.5,-401 71.5,-417 71.5,-417 71.5,-401 71.5,-401"/>
<polygon fill="black" stroke="black" points="162.5,-401 162.5,-417 162.5,-417 162.5,-401 162.5,-401"/>
</a>
</g>
</g>
<!-- ad_tab&#45;&gt;ad_window -->
<g id="edge2" class="edge">
<title>ad_tab:w&#45;&gt;ad_window:e</title>
<path fill="none" stroke="black" d="M265.56,-534.18C249.12,-550.69 264.44,-601 232.5,-601"/>
<polygon fill="black" stroke="black" points="272,-531.79 280.75,-532.37 275.75,-530.39 279.5,-529 279.5,-529 279.5,-529 275.75,-530.39 278.25,-525.63 272,-531.79 272,-531.79"/>
<ellipse fill="none" stroke="black" cx="269" cy="-532.9" rx="3.2" ry="3.2"/>
</g>
<!-- ad_toolbarbutton -->
<g id="node4" class="node">
<title>ad_toolbarbutton</title>
<g id="a_node4"><a xlink:href="../../tables/ad_toolbarbutton.html" xlink:title="ad_toolbarbutton" target="_top">
<polygon fill="#ffffff" stroke="transparent" points="549.5,-482 549.5,-650 721.5,-650 721.5,-482 549.5,-482"/>
<polygon fill="#f5f5f5" stroke="transparent" points="549.5,-628 549.5,-650 721.5,-650 721.5,-628 549.5,-628"/>
<polygon fill="none" stroke="black" points="549.5,-628 549.5,-650 721.5,-650 721.5,-628 549.5,-628"/>
<text text-anchor="start" x="554.5" y="-637.2" font-family="Helvetica,sans-Serif" font-weight="bold" font-size="11.00">ad_toolbarbutton</text>
<text text-anchor="start" x="686.5" y="-636.2" font-family="Helvetica,sans-Serif" font-size="11.00">[table]</text>
<polygon fill="none" stroke="black" points="549.5,-606 549.5,-628 721.5,-628 721.5,-606 549.5,-606"/>
<image xlink:href="../../images/primaryKeys.png" width="11px" height="12px" preserveAspectRatio="xMinYMin meet" x="554.5" y="-623"/>
<text text-anchor="start" x="569.5" y="-614.2" font-family="Helvetica,sans-Serif" font-size="11.00">ad_toolbarbutton_id</text>
<polygon fill="#ffffff" stroke="transparent" points="549.5,-584 549.5,-606 721.5,-606 721.5,-584 549.5,-584"/>
<polygon fill="none" stroke="black" points="549.5,-584 549.5,-606 721.5,-606 721.5,-584 549.5,-584"/>
<text text-anchor="start" x="569.5" y="-592.2" font-family="Helvetica,sans-Serif" font-size="11.00">ad_toolbarbutton_uu</text>
<polygon fill="none" stroke="black" points="549.5,-562 549.5,-584 721.5,-584 721.5,-562 549.5,-562"/>
<image xlink:href="../../images/foreignKeys.png" width="11px" height="12px" preserveAspectRatio="xMinYMin meet" x="554.5" y="-579"/>
<text text-anchor="start" x="569.5" y="-570.2" font-family="Helvetica,sans-Serif" font-size="11.00">ad_tab_id</text>
<polygon fill="none" stroke="black" points="549.5,-540 549.5,-562 721.5,-562 721.5,-540 549.5,-540"/>
<image xlink:href="../../images/foreignKeys.png" width="11px" height="12px" preserveAspectRatio="xMinYMin meet" x="554.5" y="-557"/>
<text text-anchor="start" x="569.5" y="-548.2" font-family="Helvetica,sans-Serif" font-size="11.00">ad_process_id</text>
<polygon fill="none" stroke="black" points="549.5,-518 549.5,-540 721.5,-540 721.5,-518 549.5,-518"/>
<image xlink:href="../../images/foreignKeys.png" width="11px" height="12px" preserveAspectRatio="xMinYMin meet" x="554.5" y="-535"/>
<text text-anchor="start" x="569.5" y="-526.2" font-family="Helvetica,sans-Serif" font-size="11.00">entitytype</text>
<polygon fill="none" stroke="black" points="549.5,-500 549.5,-518 721.5,-518 721.5,-500 549.5,-500"/>
<text text-anchor="start" x="552.5" y="-506.2" font-family="Helvetica,sans-Serif" font-size="11.00">...</text>
<polygon fill="#ffffff" stroke="transparent" points="549.5,-482 549.5,-500 721.5,-500 721.5,-482 549.5,-482"/>
<polygon fill="none" stroke="black" points="549.5,-482 549.5,-500 721.5,-500 721.5,-482 549.5,-482"/>
<polygon fill="#ffffff" stroke="transparent" points="550.5,-483 550.5,-499 597.5,-499 597.5,-483 550.5,-483"/>
<text text-anchor="start" x="552.5" y="-488.2" font-family="Helvetica,sans-Serif" font-size="11.00">&lt; 3</text>
<polygon fill="#ffffff" stroke="transparent" points="597.5,-483 597.5,-499 673.5,-499 673.5,-483 597.5,-483"/>
<text text-anchor="start" x="613" y="-488.2" font-family="Helvetica,sans-Serif" font-size="11.00">237 rows</text>
<polygon fill="#ffffff" stroke="transparent" points="673.5,-483 673.5,-499 720.5,-499 720.5,-483 673.5,-483"/>
<text text-anchor="start" x="702.5" y="-488.2" font-family="Helvetica,sans-Serif" font-size="11.00">1 &gt;</text>
<polygon fill="black" stroke="black" points="597.5,-483 597.5,-499 597.5,-499 597.5,-483 597.5,-483"/>
<polygon fill="black" stroke="black" points="673.5,-483 673.5,-499 673.5,-499 673.5,-483 673.5,-483"/>
</a>
</g>
</g>
<!-- ad_toolbarbutton&#45;&gt;ad_tab -->
<g id="edge4" class="edge">
<title>ad_toolbarbutton:w&#45;&gt;ad_tab:e</title>
<path fill="none" stroke="black" d="M534.21,-575.62C511,-585.09 508.44,-617 476.5,-617"/>
<polygon fill="black" stroke="black" points="540.63,-574.44 549.15,-576.54 544.57,-573.72 548.5,-573 548.5,-573 548.5,-573 544.57,-573.72 547.85,-569.46 540.63,-574.44 540.63,-574.44"/>
<ellipse fill="none" stroke="black" cx="537.48" cy="-575.02" rx="3.2" ry="3.2"/>
</g>
<!-- ad_toolbarbutton&#45;&gt;ad_process -->
<g id="edge3" class="edge">
<title>ad_toolbarbutton:w&#45;&gt;ad_process:e</title>
<path fill="none" stroke="black" d="M533.9,-550.05C425.28,-534.64 583.11,-335.71 483,-251 437.74,-212.7 275.79,-238 216.5,-238"/>
<polygon fill="black" stroke="black" points="540.52,-550.48 548.27,-554.59 544.51,-550.74 548.5,-551 548.5,-551 548.5,-551 544.51,-550.74 548.73,-547.41 540.52,-550.48 540.52,-550.48"/>
<ellipse fill="none" stroke="black" cx="537.32" cy="-550.27" rx="3.2" ry="3.2"/>
</g>
<!-- ad_toolbarbuttonrestrict -->
<g id="node5" class="node">
<title>ad_toolbarbuttonrestrict</title>
<g id="a_node5"><a xlink:href="../../tables/ad_toolbarbuttonrestrict.html" xlink:title="ad_toolbarbuttonrestrict" target="_top">
<polygon fill="#ffffff" stroke="transparent" points="796,-427 796,-823 1109,-823 1109,-427 796,-427"/>
<polygon fill="#f5f5f5" stroke="transparent" points="798.5,-799 798.5,-821 1107.5,-821 1107.5,-799 798.5,-799"/>
<polygon fill="none" stroke="black" points="798.5,-799 798.5,-821 1107.5,-821 1107.5,-799 798.5,-799"/>
<text text-anchor="start" x="803.5" y="-808.2" font-family="Helvetica,sans-Serif" font-weight="bold" font-size="11.00">ad_toolbarbuttonrestrict</text>
<text text-anchor="start" x="1072.5" y="-807.2" font-family="Helvetica,sans-Serif" font-size="11.00">[table]</text>
<polygon fill="none" stroke="black" points="798.5,-777 798.5,-799 1024.5,-799 1024.5,-777 798.5,-777"/>
<text text-anchor="start" x="818.5" y="-785.2" font-family="Helvetica,sans-Serif" font-size="11.00">action</text>
<polygon fill="none" stroke="black" points="1024.5,-777 1024.5,-799 1107.5,-799 1107.5,-777 1024.5,-777"/>
<text text-anchor="start" x="1027.5" y="-785.2" font-family="Helvetica,sans-Serif" font-size="11.00">bpchar[1]</text>
<polygon fill="none" stroke="black" points="798.5,-755 798.5,-777 1024.5,-777 1024.5,-755 798.5,-755"/>
<text text-anchor="start" x="818.5" y="-763.2" font-family="Helvetica,sans-Serif" font-size="11.00">ad_client_id</text>
<polygon fill="none" stroke="black" points="1024.5,-755 1024.5,-777 1107.5,-777 1107.5,-755 1024.5,-755"/>
<text text-anchor="start" x="1027.5" y="-763.2" font-family="Helvetica,sans-Serif" font-size="11.00">numeric[10]</text>
<polygon fill="none" stroke="black" points="798.5,-733 798.5,-755 1024.5,-755 1024.5,-733 798.5,-733"/>
<text text-anchor="start" x="818.5" y="-741.2" font-family="Helvetica,sans-Serif" font-size="11.00">ad_org_id</text>
<polygon fill="none" stroke="black" points="1024.5,-733 1024.5,-755 1107.5,-755 1107.5,-733 1024.5,-733"/>
<text text-anchor="start" x="1027.5" y="-741.2" font-family="Helvetica,sans-Serif" font-size="11.00">numeric[10]</text>
<polygon fill="none" stroke="black" points="798.5,-711 798.5,-733 1024.5,-733 1024.5,-711 798.5,-711"/>
<image xlink:href="../../images/foreignKeys.png" width="11px" height="12px" preserveAspectRatio="xMinYMin meet" x="803.5" y="-728"/>
<text text-anchor="start" x="818.5" y="-719.2" font-family="Helvetica,sans-Serif" font-size="11.00">ad_role_id</text>
<polygon fill="none" stroke="black" points="1024.5,-711 1024.5,-733 1107.5,-733 1107.5,-711 1024.5,-711"/>
<text text-anchor="start" x="1027.5" y="-719.2" font-family="Helvetica,sans-Serif" font-size="11.00">numeric[10]</text>
<polygon fill="none" stroke="black" points="798.5,-689 798.5,-711 1024.5,-711 1024.5,-689 798.5,-689"/>
<image xlink:href="../../images/foreignKeys.png" width="11px" height="12px" preserveAspectRatio="xMinYMin meet" x="803.5" y="-706"/>
<text text-anchor="start" x="818.5" y="-697.2" font-family="Helvetica,sans-Serif" font-size="11.00">ad_toolbarbutton_id</text>
<polygon fill="none" stroke="black" points="1024.5,-689 1024.5,-711 1107.5,-711 1107.5,-689 1024.5,-689"/>
<text text-anchor="start" x="1027.5" y="-697.2" font-family="Helvetica,sans-Serif" font-size="11.00">numeric[10]</text>
<polygon fill="none" stroke="black" points="798.5,-667 798.5,-689 1024.5,-689 1024.5,-667 798.5,-667"/>
<image xlink:href="../../images/primaryKeys.png" width="11px" height="12px" preserveAspectRatio="xMinYMin meet" x="803.5" y="-684"/>
<text text-anchor="start" x="818.5" y="-675.2" font-family="Helvetica,sans-Serif" font-size="11.00">ad_toolbarbuttonrestrict_id</text>
<polygon fill="none" stroke="black" points="1024.5,-667 1024.5,-689 1107.5,-689 1107.5,-667 1024.5,-667"/>
<text text-anchor="start" x="1027.5" y="-675.2" font-family="Helvetica,sans-Serif" font-size="11.00">numeric[10]</text>
<polygon fill="none" stroke="black" points="798.5,-645 798.5,-667 1024.5,-667 1024.5,-645 798.5,-645"/>
<image xlink:href="../../images/foreignKeys.png" width="11px" height="12px" preserveAspectRatio="xMinYMin meet" x="803.5" y="-662"/>
<text text-anchor="start" x="818.5" y="-653.2" font-family="Helvetica,sans-Serif" font-size="11.00">ad_window_id</text>
<polygon fill="none" stroke="black" points="1024.5,-645 1024.5,-667 1107.5,-667 1107.5,-645 1024.5,-645"/>
<text text-anchor="start" x="1027.5" y="-653.2" font-family="Helvetica,sans-Serif" font-size="11.00">numeric[10]</text>
<polygon fill="none" stroke="black" points="798.5,-623 798.5,-645 1024.5,-645 1024.5,-623 798.5,-623"/>
<text text-anchor="start" x="818.5" y="-631.2" font-family="Helvetica,sans-Serif" font-size="11.00">created</text>
<polygon fill="none" stroke="black" points="1024.5,-623 1024.5,-645 1107.5,-645 1107.5,-623 1024.5,-623"/>
<text text-anchor="start" x="1027.5" y="-631.2" font-family="Helvetica,sans-Serif" font-size="11.00">timestamp[29,6]</text>
<polygon fill="none" stroke="black" points="798.5,-601 798.5,-623 1024.5,-623 1024.5,-601 798.5,-601"/>
<text text-anchor="start" x="818.5" y="-609.2" font-family="Helvetica,sans-Serif" font-size="11.00">createdby</text>
<polygon fill="none" stroke="black" points="1024.5,-601 1024.5,-623 1107.5,-623 1107.5,-601 1024.5,-601"/>
<text text-anchor="start" x="1027.5" y="-609.2" font-family="Helvetica,sans-Serif" font-size="11.00">numeric[10]</text>
<polygon fill="none" stroke="black" points="798.5,-579 798.5,-601 1024.5,-601 1024.5,-579 798.5,-579"/>
<text text-anchor="start" x="818.5" y="-587.2" font-family="Helvetica,sans-Serif" font-size="11.00">isactive</text>
<polygon fill="none" stroke="black" points="1024.5,-579 1024.5,-601 1107.5,-601 1107.5,-579 1024.5,-579"/>
<text text-anchor="start" x="1027.5" y="-587.2" font-family="Helvetica,sans-Serif" font-size="11.00">bpchar[1]</text>
<polygon fill="none" stroke="black" points="798.5,-557 798.5,-579 1024.5,-579 1024.5,-557 798.5,-557"/>
<text text-anchor="start" x="818.5" y="-565.2" font-family="Helvetica,sans-Serif" font-size="11.00">updated</text>
<polygon fill="none" stroke="black" points="1024.5,-557 1024.5,-579 1107.5,-579 1107.5,-557 1024.5,-557"/>
<text text-anchor="start" x="1027.5" y="-565.2" font-family="Helvetica,sans-Serif" font-size="11.00">timestamp[29,6]</text>
<polygon fill="none" stroke="black" points="798.5,-535 798.5,-557 1024.5,-557 1024.5,-535 798.5,-535"/>
<text text-anchor="start" x="818.5" y="-543.2" font-family="Helvetica,sans-Serif" font-size="11.00">updatedby</text>
<polygon fill="none" stroke="black" points="1024.5,-535 1024.5,-557 1107.5,-557 1107.5,-535 1024.5,-535"/>
<text text-anchor="start" x="1027.5" y="-543.2" font-family="Helvetica,sans-Serif" font-size="11.00">numeric[10]</text>
<polygon fill="#ffffff" stroke="transparent" points="798.5,-513 798.5,-535 1024.5,-535 1024.5,-513 798.5,-513"/>
<polygon fill="none" stroke="black" points="798.5,-513 798.5,-535 1024.5,-535 1024.5,-513 798.5,-513"/>
<text text-anchor="start" x="818.5" y="-521.2" font-family="Helvetica,sans-Serif" font-size="11.00">ad_toolbarbuttonrestrict_uu</text>
<polygon fill="none" stroke="black" points="1024.5,-513 1024.5,-535 1107.5,-535 1107.5,-513 1024.5,-513"/>
<text text-anchor="start" x="1027.5" y="-521.2" font-family="Helvetica,sans-Serif" font-size="11.00">varchar[36]</text>
<polygon fill="none" stroke="black" points="798.5,-491 798.5,-513 1024.5,-513 1024.5,-491 798.5,-491"/>
<image xlink:href="../../images/foreignKeys.png" width="11px" height="12px" preserveAspectRatio="xMinYMin meet" x="803.5" y="-508"/>
<text text-anchor="start" x="818.5" y="-499.2" font-family="Helvetica,sans-Serif" font-size="11.00">ad_process_id</text>
<polygon fill="none" stroke="black" points="1024.5,-491 1024.5,-513 1107.5,-513 1107.5,-491 1024.5,-491"/>
<text text-anchor="start" x="1027.5" y="-499.2" font-family="Helvetica,sans-Serif" font-size="11.00">numeric[10]</text>
<polygon fill="none" stroke="black" points="798.5,-469 798.5,-491 1024.5,-491 1024.5,-469 798.5,-469"/>
<text text-anchor="start" x="818.5" y="-477.2" font-family="Helvetica,sans-Serif" font-size="11.00">isexclude</text>
<polygon fill="none" stroke="black" points="1024.5,-469 1024.5,-491 1107.5,-491 1107.5,-469 1024.5,-469"/>
<text text-anchor="start" x="1027.5" y="-477.2" font-family="Helvetica,sans-Serif" font-size="11.00">bpchar[1]</text>
<polygon fill="none" stroke="black" points="798.5,-447 798.5,-469 1024.5,-469 1024.5,-447 798.5,-447"/>
<image xlink:href="../../images/foreignKeys.png" width="11px" height="12px" preserveAspectRatio="xMinYMin meet" x="803.5" y="-464"/>
<text text-anchor="start" x="818.5" y="-455.2" font-family="Helvetica,sans-Serif" font-size="11.00">ad_tab_id</text>
<polygon fill="none" stroke="black" points="1024.5,-447 1024.5,-469 1107.5,-469 1107.5,-447 1024.5,-447"/>
<text text-anchor="start" x="1027.5" y="-455.2" font-family="Helvetica,sans-Serif" font-size="11.00">numeric[10]</text>
<polygon fill="#ffffff" stroke="transparent" points="798.5,-429 798.5,-447 1107.5,-447 1107.5,-429 798.5,-429"/>
<polygon fill="none" stroke="black" points="798.5,-429 798.5,-447 1107.5,-447 1107.5,-429 798.5,-429"/>
<polygon fill="#ffffff" stroke="transparent" points="799.5,-430 799.5,-446 898.5,-446 898.5,-430 799.5,-430"/>
<text text-anchor="start" x="801.5" y="-435.2" font-family="Helvetica,sans-Serif" font-size="11.00">&lt; 5</text>
<polygon fill="#ffffff" stroke="transparent" points="898.5,-430 898.5,-446 1008.5,-446 1008.5,-430 898.5,-430"/>
<text text-anchor="start" x="939.5" y="-435.2" font-family="Helvetica,sans-Serif" font-size="11.00">1 row</text>
<polygon fill="#ffffff" stroke="transparent" points="1008.5,-430 1008.5,-446 1106.5,-446 1106.5,-430 1008.5,-430"/>
<text text-anchor="start" x="1088.5" y="-435.2" font-family="Helvetica,sans-Serif" font-size="11.00">0 &gt;</text>
<polygon fill="black" stroke="black" points="898.5,-430 898.5,-446 898.5,-446 898.5,-430 898.5,-430"/>
<polygon fill="black" stroke="black" points="1008.5,-430 1008.5,-446 1008.5,-446 1008.5,-430 1008.5,-430"/>
<polygon fill="none" stroke="black" stroke-width="2" points="797,-428 797,-822 1108,-822 1108,-428 797,-428"/>
</a>
</g>
</g>
<!-- ad_toolbarbuttonrestrict&#45;&gt;ad_tab -->
<g id="edge7" class="edge">
<title>ad_toolbarbuttonrestrict:w&#45;&gt;ad_tab:e</title>
<path fill="none" stroke="black" d="M782.77,-457.7C667.48,-453.06 609.71,-396.64 516,-472 463.95,-513.86 543.29,-617 476.5,-617"/>
<polygon fill="black" stroke="black" points="789.5,-457.84 797.43,-461.6 793.5,-457.92 797.5,-458 797.5,-458 797.5,-458 793.5,-457.92 797.57,-454.4 789.5,-457.84 789.5,-457.84"/>
<ellipse fill="none" stroke="black" cx="786.3" cy="-457.77" rx="3.2" ry="3.2"/>
</g>
<!-- ad_toolbarbuttonrestrict&#45;&gt;ad_process -->
<g id="edge5" class="edge">
<title>ad_toolbarbuttonrestrict:w&#45;&gt;ad_process:e</title>
<path fill="none" stroke="black" d="M783.34,-498.69C765.54,-487.9 775.75,-453.12 755,-430 654.24,-317.74 626.16,-274.53 483,-227 394,-197.45 365.33,-217.84 272,-227 246.97,-229.46 241.65,-238 216.5,-238"/>
<polygon fill="black" stroke="black" points="789.71,-500.18 796.68,-505.51 793.61,-501.09 797.5,-502 797.5,-502 797.5,-502 793.61,-501.09 798.32,-498.49 789.71,-500.18 789.71,-500.18"/>
<ellipse fill="none" stroke="black" cx="786.59" cy="-499.45" rx="3.2" ry="3.2"/>
</g>
<!-- ad_toolbarbuttonrestrict&#45;&gt;ad_window -->
<g id="edge9" class="edge">
<title>ad_toolbarbuttonrestrict:w&#45;&gt;ad_window:e</title>
<path fill="none" stroke="black" d="M783.04,-656.94C774.26,-658.16 768.05,-660.23 755,-661 647.85,-667.28 366.49,-711.92 272,-661 243.89,-645.85 264.43,-601 232.5,-601"/>
<polygon fill="black" stroke="black" points="789.52,-656.52 797.73,-659.59 793.51,-656.26 797.5,-656 797.5,-656 797.5,-656 793.51,-656.26 797.27,-652.41 789.52,-656.52 789.52,-656.52"/>
<ellipse fill="none" stroke="black" cx="786.32" cy="-656.72" rx="3.2" ry="3.2"/>
</g>
<!-- ad_toolbarbuttonrestrict&#45;&gt;ad_toolbarbutton -->
<g id="edge8" class="edge">
<title>ad_toolbarbuttonrestrict:w&#45;&gt;ad_toolbarbutton:e</title>
<path fill="none" stroke="black" d="M783.24,-697.05C752.37,-682.26 766.59,-617 722.5,-617"/>
<polygon fill="black" stroke="black" points="789.67,-698.38 796.77,-703.53 793.58,-699.19 797.5,-700 797.5,-700 797.5,-700 793.58,-699.19 798.23,-696.47 789.67,-698.38 789.67,-698.38"/>
<ellipse fill="none" stroke="black" cx="786.53" cy="-697.73" rx="3.2" ry="3.2"/>
</g>
<!-- ad_role -->
<g id="node6" class="node">
<title>ad_role</title>
<g id="a_node6"><a xlink:href="../../tables/ad_role.html" xlink:title="ad_role" target="_top">
<polygon fill="#ffffff" stroke="transparent" points="524,-698 524,-932 747,-932 747,-698 524,-698"/>
<polygon fill="#f5f5f5" stroke="transparent" points="524.5,-910 524.5,-932 747.5,-932 747.5,-910 524.5,-910"/>
<polygon fill="none" stroke="black" points="524.5,-910 524.5,-932 747.5,-932 747.5,-910 524.5,-910"/>
<text text-anchor="start" x="529.5" y="-919.2" font-family="Helvetica,sans-Serif" font-weight="bold" font-size="11.00">ad_role</text>
<text text-anchor="start" x="712.5" y="-918.2" font-family="Helvetica,sans-Serif" font-size="11.00">[table]</text>
<polygon fill="none" stroke="black" points="524.5,-888 524.5,-910 747.5,-910 747.5,-888 524.5,-888"/>
<image xlink:href="../../images/primaryKeys.png" width="11px" height="12px" preserveAspectRatio="xMinYMin meet" x="529.5" y="-905"/>
<text text-anchor="start" x="544.5" y="-896.2" font-family="Helvetica,sans-Serif" font-size="11.00">ad_role_id</text>
<polygon fill="none" stroke="black" points="524.5,-866 524.5,-888 747.5,-888 747.5,-866 524.5,-866"/>
<image xlink:href="../../images/foreignKeys.png" width="11px" height="12px" preserveAspectRatio="xMinYMin meet" x="529.5" y="-883"/>
<text text-anchor="start" x="544.5" y="-874.2" font-family="Helvetica,sans-Serif" font-size="11.00">ad_client_id</text>
<polygon fill="none" stroke="black" points="524.5,-844 524.5,-866 747.5,-866 747.5,-844 524.5,-844"/>
<image xlink:href="../../images/foreignKeys.png" width="11px" height="12px" preserveAspectRatio="xMinYMin meet" x="529.5" y="-861"/>
<text text-anchor="start" x="544.5" y="-852.2" font-family="Helvetica,sans-Serif" font-size="11.00">ad_org_id</text>
<polygon fill="none" stroke="black" points="524.5,-822 524.5,-844 747.5,-844 747.5,-822 524.5,-822"/>
<image xlink:href="../../images/foreignKeys.png" width="11px" height="12px" preserveAspectRatio="xMinYMin meet" x="529.5" y="-839"/>
<text text-anchor="start" x="544.5" y="-830.2" font-family="Helvetica,sans-Serif" font-size="11.00">c_currency_id</text>
<polygon fill="none" stroke="black" points="524.5,-800 524.5,-822 747.5,-822 747.5,-800 524.5,-800"/>
<image xlink:href="../../images/foreignKeys.png" width="11px" height="12px" preserveAspectRatio="xMinYMin meet" x="529.5" y="-817"/>
<text text-anchor="start" x="544.5" y="-808.2" font-family="Helvetica,sans-Serif" font-size="11.00">ad_tree_menu_id</text>
<polygon fill="none" stroke="black" points="524.5,-778 524.5,-800 747.5,-800 747.5,-778 524.5,-778"/>
<image xlink:href="../../images/foreignKeys.png" width="11px" height="12px" preserveAspectRatio="xMinYMin meet" x="529.5" y="-795"/>
<text text-anchor="start" x="544.5" y="-786.2" font-family="Helvetica,sans-Serif" font-size="11.00">supervisor_id</text>
<polygon fill="none" stroke="black" points="524.5,-756 524.5,-778 747.5,-778 747.5,-756 524.5,-756"/>
<image xlink:href="../../images/foreignKeys.png" width="11px" height="12px" preserveAspectRatio="xMinYMin meet" x="529.5" y="-773"/>
<text text-anchor="start" x="544.5" y="-764.2" font-family="Helvetica,sans-Serif" font-size="11.00">ad_tree_org_id</text>
<polygon fill="#ffffff" stroke="transparent" points="524.5,-734 524.5,-756 747.5,-756 747.5,-734 524.5,-734"/>
<polygon fill="none" stroke="black" points="524.5,-734 524.5,-756 747.5,-756 747.5,-734 524.5,-734"/>
<text text-anchor="start" x="544.5" y="-742.2" font-family="Helvetica,sans-Serif" font-size="11.00">ad_role_uu</text>
<polygon fill="none" stroke="black" points="524.5,-716 524.5,-734 747.5,-734 747.5,-716 524.5,-716"/>
<text text-anchor="start" x="527.5" y="-722.2" font-family="Helvetica,sans-Serif" font-size="11.00">...</text>
<polygon fill="#ffffff" stroke="transparent" points="524.5,-698 524.5,-716 747.5,-716 747.5,-698 524.5,-698"/>
<polygon fill="none" stroke="black" points="524.5,-698 524.5,-716 747.5,-716 747.5,-698 524.5,-698"/>
<polygon fill="#ffffff" stroke="transparent" points="525.5,-699 525.5,-715 589.5,-715 589.5,-699 525.5,-699"/>
<text text-anchor="start" x="527.5" y="-704.2" font-family="Helvetica,sans-Serif" font-size="11.00">&lt; 6</text>
<polygon fill="#ffffff" stroke="transparent" points="589.5,-699 589.5,-715 676.5,-715 676.5,-699 589.5,-699"/>
<text text-anchor="start" x="613.5" y="-704.2" font-family="Helvetica,sans-Serif" font-size="11.00">13 rows</text>
<polygon fill="#ffffff" stroke="transparent" points="676.5,-699 676.5,-715 746.5,-715 746.5,-699 676.5,-699"/>
<text text-anchor="start" x="722.5" y="-704.2" font-family="Helvetica,sans-Serif" font-size="11.00">45 &gt;</text>
<polygon fill="black" stroke="black" points="589.5,-699 589.5,-715 589.5,-715 589.5,-699 589.5,-699"/>
<polygon fill="black" stroke="black" points="676.5,-699 676.5,-715 676.5,-715 676.5,-699 676.5,-699"/>
</a>
</g>
</g>
<!-- ad_toolbarbuttonrestrict&#45;&gt;ad_role -->
<g id="edge6" class="edge">
<title>ad_toolbarbuttonrestrict:w&#45;&gt;ad_role:e</title>
<path fill="none" stroke="black" d="M783.05,-724.5C730.97,-746.02 824.39,-899 748.5,-899"/>
<polygon fill="black" stroke="black" points="789.62,-723.37 798.11,-725.55 793.56,-722.68 797.5,-722 797.5,-722 797.5,-722 793.56,-722.68 796.89,-718.45 789.62,-723.37 789.62,-723.37"/>
<ellipse fill="none" stroke="black" cx="786.46" cy="-723.91" rx="3.2" ry="3.2"/>
</g>
</g>
</svg>
