<?xml version="1.0" encoding="UTF-8" standalone="no"?>
<!DOCTYPE svg PUBLIC "-//W3C//DTD SVG 1.1//EN"
 "http://www.w3.org/Graphics/SVG/1.1/DTD/svg11.dtd">
<!-- Generated by graphviz version 2.43.0 (0)
 -->
<!-- Title: oneDegreeRelationshipsDiagram Pages: 1 -->
<svg width="1095pt" height="745pt"
 viewBox="0.00 0.00 1095.00 745.00" xmlns="http://www.w3.org/2000/svg" xmlns:xlink="http://www.w3.org/1999/xlink">
<g id="graph0" class="graph" transform="scale(1 1) rotate(0) translate(4 741)">
<title>oneDegreeRelationshipsDiagram</title>
<polygon fill="#ffffff" stroke="transparent" points="-4,4 -4,-741 1091,-741 1091,4 -4,4"/>
<text text-anchor="middle" x="71.5" y="-7.2" font-family="Helvetica,sans-Serif" font-size="11.00">Generated by SchemaSpy</text>
<!-- ad_org -->
<g id="node1" class="node">
<title>ad_org</title>
<g id="a_node1"><a xlink:href="../../tables/ad_org.html" xlink:title="ad_org" target="_top">
<polygon fill="#ffffff" stroke="transparent" points="302,-244 302,-434 508,-434 508,-244 302,-244"/>
<polygon fill="#f5f5f5" stroke="transparent" points="302,-412 302,-434 508,-434 508,-412 302,-412"/>
<polygon fill="none" stroke="black" points="302,-412 302,-434 508,-434 508,-412 302,-412"/>
<text text-anchor="start" x="307" y="-421.2" font-family="Helvetica,sans-Serif" font-weight="bold" font-size="11.00">ad_org</text>
<text text-anchor="start" x="473" y="-420.2" font-family="Helvetica,sans-Serif" font-size="11.00">[table]</text>
<polygon fill="none" stroke="black" points="302,-390 302,-412 508,-412 508,-390 302,-390"/>
<image xlink:href="../../images/primaryKeys.png" width="11px" height="12px" preserveAspectRatio="xMinYMin meet" x="307" y="-407"/>
<text text-anchor="start" x="322" y="-398.2" font-family="Helvetica,sans-Serif" font-size="11.00">ad_org_id</text>
<polygon fill="#ffffff" stroke="transparent" points="302,-368 302,-390 508,-390 508,-368 302,-368"/>
<polygon fill="none" stroke="black" points="302,-368 302,-390 508,-390 508,-368 302,-368"/>
<image xlink:href="../../images/foreignKeys.png" width="11px" height="12px" preserveAspectRatio="xMinYMin meet" x="307" y="-385"/>
<text text-anchor="start" x="322" y="-376.2" font-family="Helvetica,sans-Serif" font-size="11.00">ad_client_id</text>
<polygon fill="#ffffff" stroke="transparent" points="302,-346 302,-368 508,-368 508,-346 302,-346"/>
<polygon fill="none" stroke="black" points="302,-346 302,-368 508,-368 508,-346 302,-346"/>
<text text-anchor="start" x="322" y="-354.2" font-family="Helvetica,sans-Serif" font-size="11.00">value</text>
<polygon fill="none" stroke="black" points="302,-324 302,-346 508,-346 508,-324 302,-324"/>
<image xlink:href="../../images/foreignKeys.png" width="11px" height="12px" preserveAspectRatio="xMinYMin meet" x="307" y="-341"/>
<text text-anchor="start" x="322" y="-332.2" font-family="Helvetica,sans-Serif" font-size="11.00">ad_replicationstrategy_id</text>
<polygon fill="#ffffff" stroke="transparent" points="302,-302 302,-324 508,-324 508,-302 302,-302"/>
<polygon fill="none" stroke="black" points="302,-302 302,-324 508,-324 508,-302 302,-302"/>
<text text-anchor="start" x="322" y="-310.2" font-family="Helvetica,sans-Serif" font-size="11.00">ad_org_uu</text>
<polygon fill="none" stroke="black" points="302,-280 302,-302 508,-302 508,-280 302,-280"/>
<image xlink:href="../../images/foreignKeys.png" width="11px" height="12px" preserveAspectRatio="xMinYMin meet" x="307" y="-297"/>
<text text-anchor="start" x="322" y="-288.2" font-family="Helvetica,sans-Serif" font-size="11.00">cof_c_snrange_id</text>
<polygon fill="none" stroke="black" points="302,-262 302,-280 508,-280 508,-262 302,-262"/>
<text text-anchor="start" x="305" y="-268.2" font-family="Helvetica,sans-Serif" font-size="11.00">...</text>
<polygon fill="#ffffff" stroke="transparent" points="302,-244 302,-262 508,-262 508,-244 302,-244"/>
<polygon fill="none" stroke="black" points="302,-244 302,-262 508,-262 508,-244 302,-244"/>
<polygon fill="#ffffff" stroke="transparent" points="303,-245 303,-261 362,-261 362,-245 303,-245"/>
<text text-anchor="start" x="305" y="-250.2" font-family="Helvetica,sans-Serif" font-size="11.00">&lt; 3</text>
<polygon fill="#ffffff" stroke="transparent" points="362,-245 362,-261 437,-261 437,-245 362,-245"/>
<text text-anchor="start" x="383" y="-250.2" font-family="Helvetica,sans-Serif" font-size="11.00">3 rows</text>
<polygon fill="#ffffff" stroke="transparent" points="437,-245 437,-261 507,-261 507,-245 437,-245"/>
<text text-anchor="start" x="477" y="-250.2" font-family="Helvetica,sans-Serif" font-size="11.00">285 &gt;</text>
<polygon fill="black" stroke="black" points="362,-245 362,-261 362,-261 362,-245 362,-245"/>
<polygon fill="black" stroke="black" points="437,-245 437,-261 437,-261 437,-245 437,-245"/>
</a>
</g>
</g>
<!-- ad_client -->
<g id="node2" class="node">
<title>ad_client</title>
<g id="a_node2"><a xlink:href="../../tables/ad_client.html" xlink:title="ad_client" target="_top">
<polygon fill="#ffffff" stroke="transparent" points="8,-239 8,-451 253,-451 253,-239 8,-239"/>
<polygon fill="#f5f5f5" stroke="transparent" points="8.5,-429 8.5,-451 253.5,-451 253.5,-429 8.5,-429"/>
<polygon fill="none" stroke="black" points="8.5,-429 8.5,-451 253.5,-451 253.5,-429 8.5,-429"/>
<text text-anchor="start" x="13.5" y="-438.2" font-family="Helvetica,sans-Serif" font-weight="bold" font-size="11.00">ad_client</text>
<text text-anchor="start" x="218.5" y="-437.2" font-family="Helvetica,sans-Serif" font-size="11.00">[table]</text>
<polygon fill="none" stroke="black" points="8.5,-407 8.5,-429 253.5,-429 253.5,-407 8.5,-407"/>
<image xlink:href="../../images/primaryKeys.png" width="11px" height="12px" preserveAspectRatio="xMinYMin meet" x="13.5" y="-424"/>
<text text-anchor="start" x="28.5" y="-415.2" font-family="Helvetica,sans-Serif" font-size="11.00">ad_client_id</text>
<polygon fill="#ffffff" stroke="transparent" points="8.5,-385 8.5,-407 253.5,-407 253.5,-385 8.5,-385"/>
<polygon fill="none" stroke="black" points="8.5,-385 8.5,-407 253.5,-407 253.5,-385 8.5,-385"/>
<text text-anchor="start" x="28.5" y="-393.2" font-family="Helvetica,sans-Serif" font-size="11.00">value</text>
<polygon fill="none" stroke="black" points="8.5,-363 8.5,-385 253.5,-385 253.5,-363 8.5,-363"/>
<image xlink:href="../../images/foreignKeys.png" width="11px" height="12px" preserveAspectRatio="xMinYMin meet" x="13.5" y="-380"/>
<text text-anchor="start" x="28.5" y="-371.2" font-family="Helvetica,sans-Serif" font-size="11.00">ad_language</text>
<polygon fill="none" stroke="black" points="8.5,-341 8.5,-363 253.5,-363 253.5,-341 8.5,-341"/>
<image xlink:href="../../images/foreignKeys.png" width="11px" height="12px" preserveAspectRatio="xMinYMin meet" x="13.5" y="-358"/>
<text text-anchor="start" x="28.5" y="-349.2" font-family="Helvetica,sans-Serif" font-size="11.00">ad_replicationstrategy_id</text>
<polygon fill="#ffffff" stroke="transparent" points="8.5,-319 8.5,-341 253.5,-341 253.5,-319 8.5,-319"/>
<polygon fill="none" stroke="black" points="8.5,-319 8.5,-341 253.5,-341 253.5,-319 8.5,-319"/>
<text text-anchor="start" x="28.5" y="-327.2" font-family="Helvetica,sans-Serif" font-size="11.00">ad_client_uu</text>
<polygon fill="none" stroke="black" points="8.5,-297 8.5,-319 253.5,-319 253.5,-297 8.5,-297"/>
<image xlink:href="../../images/foreignKeys.png" width="11px" height="12px" preserveAspectRatio="xMinYMin meet" x="13.5" y="-314"/>
<text text-anchor="start" x="28.5" y="-305.2" font-family="Helvetica,sans-Serif" font-size="11.00">ad_passwordrule_id</text>
<polygon fill="#ffffff" stroke="transparent" points="8.5,-275 8.5,-297 253.5,-297 253.5,-275 8.5,-275"/>
<polygon fill="none" stroke="black" points="8.5,-275 8.5,-297 253.5,-297 253.5,-275 8.5,-275"/>
<text text-anchor="start" x="28.5" y="-283.2" font-family="Helvetica,sans-Serif" font-size="11.00">loginprefix</text>
<polygon fill="none" stroke="black" points="8.5,-257 8.5,-275 253.5,-275 253.5,-257 8.5,-257"/>
<text text-anchor="start" x="11.5" y="-263.2" font-family="Helvetica,sans-Serif" font-size="11.00">...</text>
<polygon fill="#ffffff" stroke="transparent" points="8.5,-239 8.5,-257 253.5,-257 253.5,-239 8.5,-239"/>
<polygon fill="none" stroke="black" points="8.5,-239 8.5,-257 253.5,-257 253.5,-239 8.5,-239"/>
<polygon fill="#ffffff" stroke="transparent" points="9.5,-240 9.5,-256 81.5,-256 81.5,-240 9.5,-240"/>
<text text-anchor="start" x="11.5" y="-245.2" font-family="Helvetica,sans-Serif" font-size="11.00">&lt; 3</text>
<polygon fill="#ffffff" stroke="transparent" points="81.5,-240 81.5,-256 169.5,-256 169.5,-240 81.5,-240"/>
<text text-anchor="start" x="109" y="-245.2" font-family="Helvetica,sans-Serif" font-size="11.00">2 rows</text>
<polygon fill="#ffffff" stroke="transparent" points="169.5,-240 169.5,-256 252.5,-256 252.5,-240 169.5,-240"/>
<text text-anchor="start" x="222.5" y="-245.2" font-family="Helvetica,sans-Serif" font-size="11.00">205 &gt;</text>
<polygon fill="black" stroke="black" points="81.5,-240 81.5,-256 81.5,-256 81.5,-240 81.5,-240"/>
<polygon fill="black" stroke="black" points="169.5,-240 169.5,-256 169.5,-256 169.5,-240 169.5,-240"/>
</a>
</g>
</g>
<!-- ad_org&#45;&gt;ad_client -->
<g id="edge1" class="edge">
<title>ad_org:w&#45;&gt;ad_client:e</title>
<path fill="none" stroke="black" d="M287.17,-384.1C275.63,-394.67 275.36,-418 254.5,-418"/>
<polygon fill="black" stroke="black" points="293.49,-381.77 302.24,-382.38 297.25,-380.38 301,-379 301,-379 301,-379 297.25,-380.38 299.76,-375.62 293.49,-381.77 293.49,-381.77"/>
<ellipse fill="none" stroke="black" cx="290.49" cy="-382.87" rx="3.2" ry="3.2"/>
</g>
<!-- ad_role -->
<g id="node3" class="node">
<title>ad_role</title>
<g id="a_node3"><a xlink:href="../../tables/ad_role.html" xlink:title="ad_role" target="_top">
<polygon fill="#ffffff" stroke="transparent" points="557,-499 557,-733 780,-733 780,-499 557,-499"/>
<polygon fill="#f5f5f5" stroke="transparent" points="557.5,-711 557.5,-733 780.5,-733 780.5,-711 557.5,-711"/>
<polygon fill="none" stroke="black" points="557.5,-711 557.5,-733 780.5,-733 780.5,-711 557.5,-711"/>
<text text-anchor="start" x="562.5" y="-720.2" font-family="Helvetica,sans-Serif" font-weight="bold" font-size="11.00">ad_role</text>
<text text-anchor="start" x="745.5" y="-719.2" font-family="Helvetica,sans-Serif" font-size="11.00">[table]</text>
<polygon fill="none" stroke="black" points="557.5,-689 557.5,-711 780.5,-711 780.5,-689 557.5,-689"/>
<image xlink:href="../../images/primaryKeys.png" width="11px" height="12px" preserveAspectRatio="xMinYMin meet" x="562.5" y="-706"/>
<text text-anchor="start" x="577.5" y="-697.2" font-family="Helvetica,sans-Serif" font-size="11.00">ad_role_id</text>
<polygon fill="none" stroke="black" points="557.5,-667 557.5,-689 780.5,-689 780.5,-667 557.5,-667"/>
<image xlink:href="../../images/foreignKeys.png" width="11px" height="12px" preserveAspectRatio="xMinYMin meet" x="562.5" y="-684"/>
<text text-anchor="start" x="577.5" y="-675.2" font-family="Helvetica,sans-Serif" font-size="11.00">ad_client_id</text>
<polygon fill="none" stroke="black" points="557.5,-645 557.5,-667 780.5,-667 780.5,-645 557.5,-645"/>
<image xlink:href="../../images/foreignKeys.png" width="11px" height="12px" preserveAspectRatio="xMinYMin meet" x="562.5" y="-662"/>
<text text-anchor="start" x="577.5" y="-653.2" font-family="Helvetica,sans-Serif" font-size="11.00">ad_org_id</text>
<polygon fill="none" stroke="black" points="557.5,-623 557.5,-645 780.5,-645 780.5,-623 557.5,-623"/>
<image xlink:href="../../images/foreignKeys.png" width="11px" height="12px" preserveAspectRatio="xMinYMin meet" x="562.5" y="-640"/>
<text text-anchor="start" x="577.5" y="-631.2" font-family="Helvetica,sans-Serif" font-size="11.00">c_currency_id</text>
<polygon fill="none" stroke="black" points="557.5,-601 557.5,-623 780.5,-623 780.5,-601 557.5,-601"/>
<image xlink:href="../../images/foreignKeys.png" width="11px" height="12px" preserveAspectRatio="xMinYMin meet" x="562.5" y="-618"/>
<text text-anchor="start" x="577.5" y="-609.2" font-family="Helvetica,sans-Serif" font-size="11.00">ad_tree_menu_id</text>
<polygon fill="none" stroke="black" points="557.5,-579 557.5,-601 780.5,-601 780.5,-579 557.5,-579"/>
<image xlink:href="../../images/foreignKeys.png" width="11px" height="12px" preserveAspectRatio="xMinYMin meet" x="562.5" y="-596"/>
<text text-anchor="start" x="577.5" y="-587.2" font-family="Helvetica,sans-Serif" font-size="11.00">supervisor_id</text>
<polygon fill="none" stroke="black" points="557.5,-557 557.5,-579 780.5,-579 780.5,-557 557.5,-557"/>
<image xlink:href="../../images/foreignKeys.png" width="11px" height="12px" preserveAspectRatio="xMinYMin meet" x="562.5" y="-574"/>
<text text-anchor="start" x="577.5" y="-565.2" font-family="Helvetica,sans-Serif" font-size="11.00">ad_tree_org_id</text>
<polygon fill="#ffffff" stroke="transparent" points="557.5,-535 557.5,-557 780.5,-557 780.5,-535 557.5,-535"/>
<polygon fill="none" stroke="black" points="557.5,-535 557.5,-557 780.5,-557 780.5,-535 557.5,-535"/>
<text text-anchor="start" x="577.5" y="-543.2" font-family="Helvetica,sans-Serif" font-size="11.00">ad_role_uu</text>
<polygon fill="none" stroke="black" points="557.5,-517 557.5,-535 780.5,-535 780.5,-517 557.5,-517"/>
<text text-anchor="start" x="560.5" y="-523.2" font-family="Helvetica,sans-Serif" font-size="11.00">...</text>
<polygon fill="#ffffff" stroke="transparent" points="557.5,-499 557.5,-517 780.5,-517 780.5,-499 557.5,-499"/>
<polygon fill="none" stroke="black" points="557.5,-499 557.5,-517 780.5,-517 780.5,-499 557.5,-499"/>
<polygon fill="#ffffff" stroke="transparent" points="558.5,-500 558.5,-516 622.5,-516 622.5,-500 558.5,-500"/>
<text text-anchor="start" x="560.5" y="-505.2" font-family="Helvetica,sans-Serif" font-size="11.00">&lt; 6</text>
<polygon fill="#ffffff" stroke="transparent" points="622.5,-500 622.5,-516 709.5,-516 709.5,-500 622.5,-500"/>
<text text-anchor="start" x="646.5" y="-505.2" font-family="Helvetica,sans-Serif" font-size="11.00">13 rows</text>
<polygon fill="#ffffff" stroke="transparent" points="709.5,-500 709.5,-516 779.5,-516 779.5,-500 709.5,-500"/>
<text text-anchor="start" x="755.5" y="-505.2" font-family="Helvetica,sans-Serif" font-size="11.00">45 &gt;</text>
<polygon fill="black" stroke="black" points="622.5,-500 622.5,-516 622.5,-516 622.5,-500 622.5,-500"/>
<polygon fill="black" stroke="black" points="709.5,-500 709.5,-516 709.5,-516 709.5,-500 709.5,-500"/>
</a>
</g>
</g>
<!-- ad_role&#45;&gt;ad_org -->
<g id="edge3" class="edge">
<title>ad_role:w&#45;&gt;ad_org:e</title>
<path fill="none" stroke="black" d="M541.93,-654.3C458.05,-632.18 618.77,-401 509,-401"/>
<polygon fill="black" stroke="black" points="548.55,-655.07 556.08,-659.58 552.53,-655.54 556.5,-656 556.5,-656 556.5,-656 552.53,-655.54 556.92,-652.42 548.55,-655.07 548.55,-655.07"/>
<ellipse fill="none" stroke="black" cx="545.38" cy="-654.7" rx="3.2" ry="3.2"/>
</g>
<!-- ad_role&#45;&gt;ad_client -->
<g id="edge2" class="edge">
<title>ad_role:w&#45;&gt;ad_client:e</title>
<path fill="none" stroke="black" d="M541.98,-677.64C405.58,-670.77 398.21,-565.58 294,-464 274.7,-445.19 281.45,-418 254.5,-418"/>
<polygon fill="black" stroke="black" points="548.5,-677.8 556.41,-681.6 552.5,-677.9 556.5,-678 556.5,-678 556.5,-678 552.5,-677.9 556.59,-674.4 548.5,-677.8 548.5,-677.8"/>
<ellipse fill="none" stroke="black" cx="545.3" cy="-677.73" rx="3.2" ry="3.2"/>
</g>
<!-- ad_table -->
<g id="node4" class="node">
<title>ad_table</title>
<g id="a_node4"><a xlink:href="../../tables/ad_table.html" xlink:title="ad_table" target="_top">
<polygon fill="#ffffff" stroke="transparent" points="562,-244 562,-478 775,-478 775,-244 562,-244"/>
<polygon fill="#f5f5f5" stroke="transparent" points="562.5,-456 562.5,-478 775.5,-478 775.5,-456 562.5,-456"/>
<polygon fill="none" stroke="black" points="562.5,-456 562.5,-478 775.5,-478 775.5,-456 562.5,-456"/>
<text text-anchor="start" x="567.5" y="-465.2" font-family="Helvetica,sans-Serif" font-weight="bold" font-size="11.00">ad_table</text>
<text text-anchor="start" x="740.5" y="-464.2" font-family="Helvetica,sans-Serif" font-size="11.00">[table]</text>
<polygon fill="none" stroke="black" points="562.5,-434 562.5,-456 775.5,-456 775.5,-434 562.5,-434"/>
<image xlink:href="../../images/primaryKeys.png" width="11px" height="12px" preserveAspectRatio="xMinYMin meet" x="567.5" y="-451"/>
<text text-anchor="start" x="582.5" y="-442.2" font-family="Helvetica,sans-Serif" font-size="11.00">ad_table_id</text>
<polygon fill="none" stroke="black" points="562.5,-412 562.5,-434 775.5,-434 775.5,-412 562.5,-412"/>
<image xlink:href="../../images/foreignKeys.png" width="11px" height="12px" preserveAspectRatio="xMinYMin meet" x="567.5" y="-429"/>
<text text-anchor="start" x="582.5" y="-420.2" font-family="Helvetica,sans-Serif" font-size="11.00">ad_client_id</text>
<polygon fill="none" stroke="black" points="562.5,-390 562.5,-412 775.5,-412 775.5,-390 562.5,-390"/>
<image xlink:href="../../images/foreignKeys.png" width="11px" height="12px" preserveAspectRatio="xMinYMin meet" x="567.5" y="-407"/>
<text text-anchor="start" x="582.5" y="-398.2" font-family="Helvetica,sans-Serif" font-size="11.00">ad_org_id</text>
<polygon fill="none" stroke="black" points="562.5,-368 562.5,-390 775.5,-390 775.5,-368 562.5,-368"/>
<image xlink:href="../../images/foreignKeys.png" width="11px" height="12px" preserveAspectRatio="xMinYMin meet" x="567.5" y="-385"/>
<text text-anchor="start" x="582.5" y="-376.2" font-family="Helvetica,sans-Serif" font-size="11.00">entitytype</text>
<polygon fill="none" stroke="black" points="562.5,-346 562.5,-368 775.5,-368 775.5,-346 562.5,-346"/>
<image xlink:href="../../images/foreignKeys.png" width="11px" height="12px" preserveAspectRatio="xMinYMin meet" x="567.5" y="-363"/>
<text text-anchor="start" x="582.5" y="-354.2" font-family="Helvetica,sans-Serif" font-size="11.00">ad_window_id</text>
<polygon fill="none" stroke="black" points="562.5,-324 562.5,-346 775.5,-346 775.5,-324 562.5,-324"/>
<image xlink:href="../../images/foreignKeys.png" width="11px" height="12px" preserveAspectRatio="xMinYMin meet" x="567.5" y="-341"/>
<text text-anchor="start" x="582.5" y="-332.2" font-family="Helvetica,sans-Serif" font-size="11.00">ad_val_rule_id</text>
<polygon fill="none" stroke="black" points="562.5,-302 562.5,-324 775.5,-324 775.5,-302 562.5,-302"/>
<image xlink:href="../../images/foreignKeys.png" width="11px" height="12px" preserveAspectRatio="xMinYMin meet" x="567.5" y="-319"/>
<text text-anchor="start" x="582.5" y="-310.2" font-family="Helvetica,sans-Serif" font-size="11.00">po_window_id</text>
<polygon fill="#ffffff" stroke="transparent" points="562.5,-280 562.5,-302 775.5,-302 775.5,-280 562.5,-280"/>
<polygon fill="none" stroke="black" points="562.5,-280 562.5,-302 775.5,-302 775.5,-280 562.5,-280"/>
<text text-anchor="start" x="582.5" y="-288.2" font-family="Helvetica,sans-Serif" font-size="11.00">ad_table_uu</text>
<polygon fill="none" stroke="black" points="562.5,-262 562.5,-280 775.5,-280 775.5,-262 562.5,-262"/>
<text text-anchor="start" x="565.5" y="-268.2" font-family="Helvetica,sans-Serif" font-size="11.00">...</text>
<polygon fill="#ffffff" stroke="transparent" points="562.5,-244 562.5,-262 775.5,-262 775.5,-244 562.5,-244"/>
<polygon fill="none" stroke="black" points="562.5,-244 562.5,-262 775.5,-262 775.5,-244 562.5,-244"/>
<polygon fill="#ffffff" stroke="transparent" points="563.5,-245 563.5,-261 619.5,-261 619.5,-245 563.5,-245"/>
<text text-anchor="start" x="565.5" y="-250.2" font-family="Helvetica,sans-Serif" font-size="11.00">&lt; 6</text>
<polygon fill="#ffffff" stroke="transparent" points="619.5,-245 619.5,-261 713.5,-261 713.5,-245 619.5,-245"/>
<text text-anchor="start" x="639.5" y="-250.2" font-family="Helvetica,sans-Serif" font-size="11.00">1.443 rows</text>
<polygon fill="#ffffff" stroke="transparent" points="713.5,-245 713.5,-261 774.5,-261 774.5,-245 713.5,-245"/>
<text text-anchor="start" x="750.5" y="-250.2" font-family="Helvetica,sans-Serif" font-size="11.00">83 &gt;</text>
<polygon fill="black" stroke="black" points="619.5,-245 619.5,-261 619.5,-261 619.5,-245 619.5,-245"/>
<polygon fill="black" stroke="black" points="713.5,-245 713.5,-261 713.5,-261 713.5,-245 713.5,-245"/>
</a>
</g>
</g>
<!-- ad_table&#45;&gt;ad_org -->
<g id="edge5" class="edge">
<title>ad_table:w&#45;&gt;ad_org:e</title>
<path fill="none" stroke="black" d="M546.73,-401C534.16,-401 526.5,-401 509,-401"/>
<polygon fill="black" stroke="black" points="553.5,-401 561.5,-404.6 557.5,-401 561.5,-401 561.5,-401 561.5,-401 557.5,-401 561.5,-397.4 553.5,-401 553.5,-401"/>
<ellipse fill="none" stroke="black" cx="550.3" cy="-401" rx="3.2" ry="3.2"/>
</g>
<!-- ad_table&#45;&gt;ad_client -->
<g id="edge4" class="edge">
<title>ad_table:w&#45;&gt;ad_client:e</title>
<path fill="none" stroke="black" d="M547.32,-426.05C536.97,-431.18 532.08,-441.32 516,-445 419.82,-467.03 388.27,-474.14 294,-445 273.68,-438.72 275.76,-418 254.5,-418"/>
<polygon fill="black" stroke="black" points="553.68,-424.68 562.26,-426.52 557.59,-423.84 561.5,-423 561.5,-423 561.5,-423 557.59,-423.84 560.74,-419.48 553.68,-424.68 553.68,-424.68"/>
<ellipse fill="none" stroke="black" cx="550.55" cy="-425.36" rx="3.2" ry="3.2"/>
</g>
<!-- ad_table_access -->
<g id="node5" class="node">
<title>ad_table_access</title>
<g id="a_node5"><a xlink:href="../../tables/ad_table_access.html" xlink:title="ad_table_access" target="_top">
<polygon fill="#ffffff" stroke="transparent" points="829,-37 829,-411 1079,-411 1079,-37 829,-37"/>
<polygon fill="#f5f5f5" stroke="transparent" points="831,-387 831,-409 1077,-409 1077,-387 831,-387"/>
<polygon fill="none" stroke="black" points="831,-387 831,-409 1077,-409 1077,-387 831,-387"/>
<text text-anchor="start" x="836" y="-396.2" font-family="Helvetica,sans-Serif" font-weight="bold" font-size="11.00">ad_table_access</text>
<text text-anchor="start" x="1042" y="-395.2" font-family="Helvetica,sans-Serif" font-size="11.00">[table]</text>
<polygon fill="none" stroke="black" points="831,-365 831,-387 994,-387 994,-365 831,-365"/>
<image xlink:href="../../images/primaryKeys.png" width="11px" height="12px" preserveAspectRatio="xMinYMin meet" x="836" y="-382"/>
<text text-anchor="start" x="851" y="-373.2" font-family="Helvetica,sans-Serif" font-size="11.00">ad_role_id</text>
<polygon fill="none" stroke="black" points="994,-365 994,-387 1077,-387 1077,-365 994,-365"/>
<text text-anchor="start" x="997" y="-373.2" font-family="Helvetica,sans-Serif" font-size="11.00">numeric[10]</text>
<polygon fill="none" stroke="black" points="831,-343 831,-365 994,-365 994,-343 831,-343"/>
<image xlink:href="../../images/primaryKeys.png" width="11px" height="12px" preserveAspectRatio="xMinYMin meet" x="836" y="-360"/>
<text text-anchor="start" x="851" y="-351.2" font-family="Helvetica,sans-Serif" font-size="11.00">ad_table_id</text>
<polygon fill="none" stroke="black" points="994,-343 994,-365 1077,-365 1077,-343 994,-343"/>
<text text-anchor="start" x="997" y="-351.2" font-family="Helvetica,sans-Serif" font-size="11.00">numeric[10]</text>
<polygon fill="none" stroke="black" points="831,-321 831,-343 994,-343 994,-321 831,-321"/>
<image xlink:href="../../images/primaryKeys.png" width="11px" height="12px" preserveAspectRatio="xMinYMin meet" x="836" y="-338"/>
<text text-anchor="start" x="851" y="-329.2" font-family="Helvetica,sans-Serif" font-size="11.00">accesstyperule</text>
<polygon fill="none" stroke="black" points="994,-321 994,-343 1077,-343 1077,-321 994,-321"/>
<text text-anchor="start" x="997" y="-329.2" font-family="Helvetica,sans-Serif" font-size="11.00">bpchar[1]</text>
<polygon fill="none" stroke="black" points="831,-299 831,-321 994,-321 994,-299 831,-299"/>
<image xlink:href="../../images/foreignKeys.png" width="11px" height="12px" preserveAspectRatio="xMinYMin meet" x="836" y="-316"/>
<text text-anchor="start" x="851" y="-307.2" font-family="Helvetica,sans-Serif" font-size="11.00">ad_client_id</text>
<polygon fill="none" stroke="black" points="994,-299 994,-321 1077,-321 1077,-299 994,-299"/>
<text text-anchor="start" x="997" y="-307.2" font-family="Helvetica,sans-Serif" font-size="11.00">numeric[10]</text>
<polygon fill="none" stroke="black" points="831,-277 831,-299 994,-299 994,-277 831,-277"/>
<image xlink:href="../../images/foreignKeys.png" width="11px" height="12px" preserveAspectRatio="xMinYMin meet" x="836" y="-294"/>
<text text-anchor="start" x="851" y="-285.2" font-family="Helvetica,sans-Serif" font-size="11.00">ad_org_id</text>
<polygon fill="none" stroke="black" points="994,-277 994,-299 1077,-299 1077,-277 994,-277"/>
<text text-anchor="start" x="997" y="-285.2" font-family="Helvetica,sans-Serif" font-size="11.00">numeric[10]</text>
<polygon fill="none" stroke="black" points="831,-255 831,-277 994,-277 994,-255 831,-255"/>
<text text-anchor="start" x="851" y="-263.2" font-family="Helvetica,sans-Serif" font-size="11.00">isactive</text>
<polygon fill="none" stroke="black" points="994,-255 994,-277 1077,-277 1077,-255 994,-255"/>
<text text-anchor="start" x="997" y="-263.2" font-family="Helvetica,sans-Serif" font-size="11.00">bpchar[1]</text>
<polygon fill="none" stroke="black" points="831,-233 831,-255 994,-255 994,-233 831,-233"/>
<text text-anchor="start" x="851" y="-241.2" font-family="Helvetica,sans-Serif" font-size="11.00">created</text>
<polygon fill="none" stroke="black" points="994,-233 994,-255 1077,-255 1077,-233 994,-233"/>
<text text-anchor="start" x="997" y="-241.2" font-family="Helvetica,sans-Serif" font-size="11.00">timestamp[29,6]</text>
<polygon fill="none" stroke="black" points="831,-211 831,-233 994,-233 994,-211 831,-211"/>
<text text-anchor="start" x="851" y="-219.2" font-family="Helvetica,sans-Serif" font-size="11.00">createdby</text>
<polygon fill="none" stroke="black" points="994,-211 994,-233 1077,-233 1077,-211 994,-211"/>
<text text-anchor="start" x="997" y="-219.2" font-family="Helvetica,sans-Serif" font-size="11.00">numeric[10]</text>
<polygon fill="none" stroke="black" points="831,-189 831,-211 994,-211 994,-189 831,-189"/>
<text text-anchor="start" x="851" y="-197.2" font-family="Helvetica,sans-Serif" font-size="11.00">updatedby</text>
<polygon fill="none" stroke="black" points="994,-189 994,-211 1077,-211 1077,-189 994,-189"/>
<text text-anchor="start" x="997" y="-197.2" font-family="Helvetica,sans-Serif" font-size="11.00">numeric[10]</text>
<polygon fill="none" stroke="black" points="831,-167 831,-189 994,-189 994,-167 831,-167"/>
<text text-anchor="start" x="851" y="-175.2" font-family="Helvetica,sans-Serif" font-size="11.00">updated</text>
<polygon fill="none" stroke="black" points="994,-167 994,-189 1077,-189 1077,-167 994,-167"/>
<text text-anchor="start" x="997" y="-175.2" font-family="Helvetica,sans-Serif" font-size="11.00">timestamp[29,6]</text>
<polygon fill="none" stroke="black" points="831,-145 831,-167 994,-167 994,-145 831,-145"/>
<text text-anchor="start" x="851" y="-153.2" font-family="Helvetica,sans-Serif" font-size="11.00">isreadonly</text>
<polygon fill="none" stroke="black" points="994,-145 994,-167 1077,-167 1077,-145 994,-145"/>
<text text-anchor="start" x="997" y="-153.2" font-family="Helvetica,sans-Serif" font-size="11.00">bpchar[1]</text>
<polygon fill="none" stroke="black" points="831,-123 831,-145 994,-145 994,-123 831,-123"/>
<text text-anchor="start" x="851" y="-131.2" font-family="Helvetica,sans-Serif" font-size="11.00">iscanreport</text>
<polygon fill="none" stroke="black" points="994,-123 994,-145 1077,-145 1077,-123 994,-123"/>
<text text-anchor="start" x="997" y="-131.2" font-family="Helvetica,sans-Serif" font-size="11.00">bpchar[1]</text>
<polygon fill="none" stroke="black" points="831,-101 831,-123 994,-123 994,-101 831,-101"/>
<text text-anchor="start" x="851" y="-109.2" font-family="Helvetica,sans-Serif" font-size="11.00">iscanexport</text>
<polygon fill="none" stroke="black" points="994,-101 994,-123 1077,-123 1077,-101 994,-101"/>
<text text-anchor="start" x="997" y="-109.2" font-family="Helvetica,sans-Serif" font-size="11.00">bpchar[1]</text>
<polygon fill="none" stroke="black" points="831,-79 831,-101 994,-101 994,-79 831,-79"/>
<text text-anchor="start" x="851" y="-87.2" font-family="Helvetica,sans-Serif" font-size="11.00">isexclude</text>
<polygon fill="none" stroke="black" points="994,-79 994,-101 1077,-101 1077,-79 994,-79"/>
<text text-anchor="start" x="997" y="-87.2" font-family="Helvetica,sans-Serif" font-size="11.00">bpchar[1]</text>
<polygon fill="#ffffff" stroke="transparent" points="831,-57 831,-79 994,-79 994,-57 831,-57"/>
<polygon fill="none" stroke="black" points="831,-57 831,-79 994,-79 994,-57 831,-57"/>
<text text-anchor="start" x="851" y="-65.2" font-family="Helvetica,sans-Serif" font-size="11.00">ad_table_access_uu</text>
<polygon fill="none" stroke="black" points="994,-57 994,-79 1077,-79 1077,-57 994,-57"/>
<text text-anchor="start" x="997" y="-65.2" font-family="Helvetica,sans-Serif" font-size="11.00">varchar[36]</text>
<polygon fill="#ffffff" stroke="transparent" points="831,-39 831,-57 1077,-57 1077,-39 831,-39"/>
<polygon fill="none" stroke="black" points="831,-39 831,-57 1077,-57 1077,-39 831,-39"/>
<polygon fill="#ffffff" stroke="transparent" points="832,-40 832,-56 917,-56 917,-40 832,-40"/>
<text text-anchor="start" x="834" y="-45.2" font-family="Helvetica,sans-Serif" font-size="11.00">&lt; 4</text>
<polygon fill="#ffffff" stroke="transparent" points="917,-40 917,-56 992,-56 992,-40 917,-40"/>
<text text-anchor="start" x="951" y="-45.2" font-family="Helvetica,sans-Serif" font-size="11.00"> &#160;</text>
<polygon fill="#ffffff" stroke="transparent" points="992,-40 992,-56 1076,-56 1076,-40 992,-40"/>
<text text-anchor="start" x="1058" y="-45.2" font-family="Helvetica,sans-Serif" font-size="11.00">0 &gt;</text>
<polygon fill="black" stroke="black" points="917,-40 917,-56 917,-56 917,-40 917,-40"/>
<polygon fill="black" stroke="black" points="992,-40 992,-56 992,-56 992,-40 992,-40"/>
<polygon fill="none" stroke="black" stroke-width="2" points="830,-38 830,-410 1078,-410 1078,-38 830,-38"/>
</a>
</g>
</g>
<!-- ad_table_access&#45;&gt;ad_org -->
<g id="edge7" class="edge">
<title>ad_table_access:w&#45;&gt;ad_org:e</title>
<path fill="none" stroke="black" d="M816.32,-283.46C804.06,-272.34 809.97,-243.87 788,-233 692.79,-185.91 632.36,-167.16 549,-233 488.77,-280.57 585.75,-401 509,-401"/>
<polygon fill="black" stroke="black" points="822.41,-285.48 828.87,-291.42 826.2,-286.74 830,-288 830,-288 830,-288 826.2,-286.74 831.13,-284.58 822.41,-285.48 822.41,-285.48"/>
<ellipse fill="none" stroke="black" cx="819.37" cy="-284.47" rx="3.2" ry="3.2"/>
</g>
<!-- ad_table_access&#45;&gt;ad_client -->
<g id="edge6" class="edge">
<title>ad_table_access:w&#45;&gt;ad_client:e</title>
<path fill="none" stroke="black" d="M815.83,-305.81C799.3,-292.27 816.02,-249.63 788,-233 599.2,-120.92 464.69,-94.91 294,-233 228.64,-285.88 338.58,-418 254.5,-418"/>
<polygon fill="black" stroke="black" points="822.33,-307.73 828.98,-313.45 826.16,-308.86 830,-310 830,-310 830,-310 826.16,-308.86 831.02,-306.55 822.33,-307.73 822.33,-307.73"/>
<ellipse fill="none" stroke="black" cx="819.26" cy="-306.82" rx="3.2" ry="3.2"/>
</g>
<!-- ad_table_access&#45;&gt;ad_role -->
<g id="edge8" class="edge">
<title>ad_table_access:w&#45;&gt;ad_role:e</title>
<path fill="none" stroke="black" d="M816.46,-381.09C770.68,-422.31 848.9,-700 781.5,-700"/>
<polygon fill="black" stroke="black" points="822.51,-378.81 831.27,-379.37 826.26,-377.41 830,-376 830,-376 830,-376 826.26,-377.41 828.73,-372.63 822.51,-378.81 822.51,-378.81"/>
<ellipse fill="none" stroke="black" cx="819.52" cy="-379.94" rx="3.2" ry="3.2"/>
</g>
<!-- ad_table_access&#45;&gt;ad_table -->
<g id="edge9" class="edge">
<title>ad_table_access:w&#45;&gt;ad_table:e</title>
<path fill="none" stroke="black" d="M815.83,-358.15C792.03,-375.95 817.37,-445 776.5,-445"/>
<polygon fill="black" stroke="black" points="822.32,-356.25 831.01,-357.46 826.16,-355.12 830,-354 830,-354 830,-354 826.16,-355.12 828.99,-350.54 822.32,-356.25 822.32,-356.25"/>
<ellipse fill="none" stroke="black" cx="819.25" cy="-357.15" rx="3.2" ry="3.2"/>
</g>
</g>
</svg>
