<?xml version="1.0" encoding="UTF-8" standalone="no"?>
<!DOCTYPE svg PUBLIC "-//W3C//DTD SVG 1.1//EN"
 "http://www.w3.org/Graphics/SVG/1.1/DTD/svg11.dtd">
<!-- Generated by graphviz version 2.43.0 (0)
 -->
<!-- Title: oneDegreeRelationshipsDiagram Pages: 1 -->
<svg width="537pt" height="824pt"
 viewBox="0.00 0.00 537.00 824.00" xmlns="http://www.w3.org/2000/svg" xmlns:xlink="http://www.w3.org/1999/xlink">
<g id="graph0" class="graph" transform="scale(1 1) rotate(0) translate(4 820)">
<title>oneDegreeRelationshipsDiagram</title>
<polygon fill="#ffffff" stroke="transparent" points="-4,4 -4,-820 533,-820 533,4 -4,4"/>
<text text-anchor="middle" x="71.5" y="-7.2" font-family="Helvetica,sans-Serif" font-size="11.00">Generated by SchemaSpy</text>
<!-- ad_treebar -->
<g id="node1" class="node">
<title>ad_treebar</title>
<g id="a_node1"><a xlink:href="../../tables/ad_treebar.html" xlink:title="ad_treebar" target="_top">
<polygon fill="#ffffff" stroke="transparent" points="297,-389 297,-719 521,-719 521,-389 297,-389"/>
<polygon fill="#f5f5f5" stroke="transparent" points="299,-695 299,-717 519,-717 519,-695 299,-695"/>
<polygon fill="none" stroke="black" points="299,-695 299,-717 519,-717 519,-695 299,-695"/>
<text text-anchor="start" x="304" y="-704.2" font-family="Helvetica,sans-Serif" font-weight="bold" font-size="11.00">ad_treebar</text>
<text text-anchor="start" x="484" y="-703.2" font-family="Helvetica,sans-Serif" font-size="11.00">[table]</text>
<polygon fill="none" stroke="black" points="299,-673 299,-695 436,-695 436,-673 299,-673"/>
<image xlink:href="../../images/primaryKeys.png" width="11px" height="12px" preserveAspectRatio="xMinYMin meet" x="304" y="-690"/>
<text text-anchor="start" x="319" y="-681.2" font-family="Helvetica,sans-Serif" font-size="11.00">ad_tree_id</text>
<polygon fill="none" stroke="black" points="436,-673 436,-695 519,-695 519,-673 436,-673"/>
<text text-anchor="start" x="439" y="-681.2" font-family="Helvetica,sans-Serif" font-size="11.00">numeric[10]</text>
<polygon fill="none" stroke="black" points="299,-651 299,-673 436,-673 436,-651 299,-651"/>
<image xlink:href="../../images/primaryKeys.png" width="11px" height="12px" preserveAspectRatio="xMinYMin meet" x="304" y="-668"/>
<text text-anchor="start" x="319" y="-659.2" font-family="Helvetica,sans-Serif" font-size="11.00">ad_user_id</text>
<polygon fill="none" stroke="black" points="436,-651 436,-673 519,-673 519,-651 436,-651"/>
<text text-anchor="start" x="439" y="-659.2" font-family="Helvetica,sans-Serif" font-size="11.00">numeric[10]</text>
<polygon fill="none" stroke="black" points="299,-629 299,-651 436,-651 436,-629 299,-629"/>
<image xlink:href="../../images/primaryKeys.png" width="11px" height="12px" preserveAspectRatio="xMinYMin meet" x="304" y="-646"/>
<text text-anchor="start" x="319" y="-637.2" font-family="Helvetica,sans-Serif" font-size="11.00">node_id</text>
<polygon fill="none" stroke="black" points="436,-629 436,-651 519,-651 519,-629 436,-629"/>
<text text-anchor="start" x="439" y="-637.2" font-family="Helvetica,sans-Serif" font-size="11.00">numeric[10]</text>
<polygon fill="none" stroke="black" points="299,-607 299,-629 436,-629 436,-607 299,-607"/>
<text text-anchor="start" x="319" y="-615.2" font-family="Helvetica,sans-Serif" font-size="11.00">ad_client_id</text>
<polygon fill="none" stroke="black" points="436,-607 436,-629 519,-629 519,-607 436,-607"/>
<text text-anchor="start" x="439" y="-615.2" font-family="Helvetica,sans-Serif" font-size="11.00">numeric[10]</text>
<polygon fill="none" stroke="black" points="299,-585 299,-607 436,-607 436,-585 299,-585"/>
<text text-anchor="start" x="319" y="-593.2" font-family="Helvetica,sans-Serif" font-size="11.00">ad_org_id</text>
<polygon fill="none" stroke="black" points="436,-585 436,-607 519,-607 519,-585 436,-585"/>
<text text-anchor="start" x="439" y="-593.2" font-family="Helvetica,sans-Serif" font-size="11.00">numeric[10]</text>
<polygon fill="none" stroke="black" points="299,-563 299,-585 436,-585 436,-563 299,-563"/>
<text text-anchor="start" x="319" y="-571.2" font-family="Helvetica,sans-Serif" font-size="11.00">isactive</text>
<polygon fill="none" stroke="black" points="436,-563 436,-585 519,-585 519,-563 436,-563"/>
<text text-anchor="start" x="439" y="-571.2" font-family="Helvetica,sans-Serif" font-size="11.00">bpchar[1]</text>
<polygon fill="none" stroke="black" points="299,-541 299,-563 436,-563 436,-541 299,-541"/>
<text text-anchor="start" x="319" y="-549.2" font-family="Helvetica,sans-Serif" font-size="11.00">created</text>
<polygon fill="none" stroke="black" points="436,-541 436,-563 519,-563 519,-541 436,-541"/>
<text text-anchor="start" x="439" y="-549.2" font-family="Helvetica,sans-Serif" font-size="11.00">timestamp[29,6]</text>
<polygon fill="none" stroke="black" points="299,-519 299,-541 436,-541 436,-519 299,-519"/>
<text text-anchor="start" x="319" y="-527.2" font-family="Helvetica,sans-Serif" font-size="11.00">createdby</text>
<polygon fill="none" stroke="black" points="436,-519 436,-541 519,-541 519,-519 436,-519"/>
<text text-anchor="start" x="439" y="-527.2" font-family="Helvetica,sans-Serif" font-size="11.00">numeric[10]</text>
<polygon fill="none" stroke="black" points="299,-497 299,-519 436,-519 436,-497 299,-497"/>
<text text-anchor="start" x="319" y="-505.2" font-family="Helvetica,sans-Serif" font-size="11.00">updated</text>
<polygon fill="none" stroke="black" points="436,-497 436,-519 519,-519 519,-497 436,-497"/>
<text text-anchor="start" x="439" y="-505.2" font-family="Helvetica,sans-Serif" font-size="11.00">timestamp[29,6]</text>
<polygon fill="none" stroke="black" points="299,-475 299,-497 436,-497 436,-475 299,-475"/>
<text text-anchor="start" x="319" y="-483.2" font-family="Helvetica,sans-Serif" font-size="11.00">updatedby</text>
<polygon fill="none" stroke="black" points="436,-475 436,-497 519,-497 519,-475 436,-475"/>
<text text-anchor="start" x="439" y="-483.2" font-family="Helvetica,sans-Serif" font-size="11.00">numeric[10]</text>
<polygon fill="#ffffff" stroke="transparent" points="299,-453 299,-475 436,-475 436,-453 299,-453"/>
<polygon fill="none" stroke="black" points="299,-453 299,-475 436,-475 436,-453 299,-453"/>
<text text-anchor="start" x="319" y="-461.2" font-family="Helvetica,sans-Serif" font-size="11.00">ad_treebar_uu</text>
<polygon fill="none" stroke="black" points="436,-453 436,-475 519,-475 519,-453 436,-453"/>
<text text-anchor="start" x="439" y="-461.2" font-family="Helvetica,sans-Serif" font-size="11.00">varchar[36]</text>
<polygon fill="none" stroke="black" points="299,-431 299,-453 436,-453 436,-431 299,-431"/>
<text text-anchor="start" x="319" y="-439.2" font-family="Helvetica,sans-Serif" font-size="11.00">isfavourite</text>
<polygon fill="none" stroke="black" points="436,-431 436,-453 519,-453 519,-431 436,-431"/>
<text text-anchor="start" x="439" y="-439.2" font-family="Helvetica,sans-Serif" font-size="11.00">bpchar[1]</text>
<polygon fill="none" stroke="black" points="299,-409 299,-431 436,-431 436,-409 299,-409"/>
<text text-anchor="start" x="319" y="-417.2" font-family="Helvetica,sans-Serif" font-size="11.00">loginopenseqno</text>
<polygon fill="none" stroke="black" points="436,-409 436,-431 519,-431 519,-409 436,-409"/>
<text text-anchor="start" x="439" y="-417.2" font-family="Helvetica,sans-Serif" font-size="11.00">numeric[10]</text>
<polygon fill="#ffffff" stroke="transparent" points="299,-391 299,-409 519,-409 519,-391 299,-391"/>
<polygon fill="none" stroke="black" points="299,-391 299,-409 519,-409 519,-391 299,-391"/>
<polygon fill="#ffffff" stroke="transparent" points="300,-392 300,-408 365,-408 365,-392 300,-392"/>
<text text-anchor="start" x="302" y="-397.2" font-family="Helvetica,sans-Serif" font-size="11.00">&lt; 2</text>
<polygon fill="#ffffff" stroke="transparent" points="365,-392 365,-408 453,-408 453,-392 365,-392"/>
<text text-anchor="start" x="389.5" y="-397.2" font-family="Helvetica,sans-Serif" font-size="11.00">33 rows</text>
<polygon fill="#ffffff" stroke="transparent" points="453,-392 453,-408 518,-408 518,-392 453,-392"/>
<text text-anchor="start" x="500" y="-397.2" font-family="Helvetica,sans-Serif" font-size="11.00">0 &gt;</text>
<polygon fill="black" stroke="black" points="365,-392 365,-408 365,-408 365,-392 365,-392"/>
<polygon fill="black" stroke="black" points="453,-392 453,-408 453,-408 453,-392 453,-392"/>
<polygon fill="none" stroke="black" stroke-width="2" points="298,-390 298,-718 520,-718 520,-390 298,-390"/>
</a>
</g>
</g>
<!-- ad_tree -->
<g id="node2" class="node">
<title>ad_tree</title>
<g id="a_node2"><a xlink:href="../../tables/ad_tree.html" xlink:title="ad_tree" target="_top">
<polygon fill="#ffffff" stroke="transparent" points="19.5,-622 19.5,-812 236.5,-812 236.5,-622 19.5,-622"/>
<polygon fill="#f5f5f5" stroke="transparent" points="20,-790 20,-812 237,-812 237,-790 20,-790"/>
<polygon fill="none" stroke="black" points="20,-790 20,-812 237,-812 237,-790 20,-790"/>
<text text-anchor="start" x="25" y="-799.2" font-family="Helvetica,sans-Serif" font-weight="bold" font-size="11.00">ad_tree</text>
<text text-anchor="start" x="202" y="-798.2" font-family="Helvetica,sans-Serif" font-size="11.00">[table]</text>
<polygon fill="none" stroke="black" points="20,-768 20,-790 237,-790 237,-768 20,-768"/>
<image xlink:href="../../images/primaryKeys.png" width="11px" height="12px" preserveAspectRatio="xMinYMin meet" x="25" y="-785"/>
<text text-anchor="start" x="40" y="-776.2" font-family="Helvetica,sans-Serif" font-size="11.00">ad_tree_id</text>
<polygon fill="#ffffff" stroke="transparent" points="20,-746 20,-768 237,-768 237,-746 20,-746"/>
<polygon fill="none" stroke="black" points="20,-746 20,-768 237,-768 237,-746 20,-746"/>
<text text-anchor="start" x="40" y="-754.2" font-family="Helvetica,sans-Serif" font-size="11.00">ad_client_id</text>
<polygon fill="#ffffff" stroke="transparent" points="20,-724 20,-746 237,-746 237,-724 20,-724"/>
<polygon fill="none" stroke="black" points="20,-724 20,-746 237,-746 237,-724 20,-724"/>
<text text-anchor="start" x="40" y="-732.2" font-family="Helvetica,sans-Serif" font-size="11.00">name</text>
<polygon fill="#ffffff" stroke="transparent" points="20,-702 20,-724 237,-724 237,-702 20,-702"/>
<polygon fill="none" stroke="black" points="20,-702 20,-724 237,-724 237,-702 20,-702"/>
<text text-anchor="start" x="40" y="-710.2" font-family="Helvetica,sans-Serif" font-size="11.00">ad_tree_uu</text>
<polygon fill="none" stroke="black" points="20,-680 20,-702 237,-702 237,-680 20,-680"/>
<image xlink:href="../../images/foreignKeys.png" width="11px" height="12px" preserveAspectRatio="xMinYMin meet" x="25" y="-697"/>
<text text-anchor="start" x="40" y="-688.2" font-family="Helvetica,sans-Serif" font-size="11.00">ad_table_id</text>
<polygon fill="none" stroke="black" points="20,-658 20,-680 237,-680 237,-658 20,-658"/>
<image xlink:href="../../images/foreignKeys.png" width="11px" height="12px" preserveAspectRatio="xMinYMin meet" x="25" y="-675"/>
<text text-anchor="start" x="40" y="-666.2" font-family="Helvetica,sans-Serif" font-size="11.00">parent_column_id</text>
<polygon fill="none" stroke="black" points="20,-640 20,-658 237,-658 237,-640 20,-640"/>
<text text-anchor="start" x="23" y="-646.2" font-family="Helvetica,sans-Serif" font-size="11.00">...</text>
<polygon fill="#ffffff" stroke="transparent" points="20,-622 20,-640 237,-640 237,-622 20,-622"/>
<polygon fill="none" stroke="black" points="20,-622 20,-640 237,-640 237,-622 20,-622"/>
<polygon fill="#ffffff" stroke="transparent" points="21,-623 21,-639 83,-639 83,-623 21,-623"/>
<text text-anchor="start" x="23" y="-628.2" font-family="Helvetica,sans-Serif" font-size="11.00">&lt; 2</text>
<polygon fill="#ffffff" stroke="transparent" points="83,-623 83,-639 168,-639 168,-623 83,-623"/>
<text text-anchor="start" x="106" y="-628.2" font-family="Helvetica,sans-Serif" font-size="11.00">31 rows</text>
<polygon fill="#ffffff" stroke="transparent" points="168,-623 168,-639 236,-639 236,-623 168,-623"/>
<text text-anchor="start" x="212" y="-628.2" font-family="Helvetica,sans-Serif" font-size="11.00">36 &gt;</text>
<polygon fill="black" stroke="black" points="83,-623 83,-639 83,-639 83,-623 83,-623"/>
<polygon fill="black" stroke="black" points="168,-623 168,-639 168,-639 168,-623 168,-623"/>
</a>
</g>
</g>
<!-- ad_treebar&#45;&gt;ad_tree -->
<g id="edge1" class="edge">
<title>ad_treebar:w&#45;&gt;ad_tree:e</title>
<path fill="none" stroke="black" d="M283.85,-687.61C256.17,-704.96 282.09,-779 238,-779"/>
<polygon fill="black" stroke="black" points="290.25,-685.98 298.89,-687.49 294.12,-684.99 298,-684 298,-684 298,-684 294.12,-684.99 297.11,-680.51 290.25,-685.98 290.25,-685.98"/>
<ellipse fill="none" stroke="black" cx="287.15" cy="-686.77" rx="3.2" ry="3.2"/>
</g>
<!-- ad_user -->
<g id="node3" class="node">
<title>ad_user</title>
<g id="a_node3"><a xlink:href="../../tables/ad_user.html" xlink:title="ad_user" target="_top">
<polygon fill="#ffffff" stroke="transparent" points="8,-37 8,-601 248,-601 248,-37 8,-37"/>
<polygon fill="#f5f5f5" stroke="transparent" points="8,-579 8,-601 248,-601 248,-579 8,-579"/>
<polygon fill="none" stroke="black" points="8,-579 8,-601 248,-601 248,-579 8,-579"/>
<text text-anchor="start" x="13" y="-588.2" font-family="Helvetica,sans-Serif" font-weight="bold" font-size="11.00">ad_user</text>
<text text-anchor="start" x="213" y="-587.2" font-family="Helvetica,sans-Serif" font-size="11.00">[table]</text>
<polygon fill="none" stroke="black" points="8,-557 8,-579 248,-579 248,-557 8,-557"/>
<image xlink:href="../../images/primaryKeys.png" width="11px" height="12px" preserveAspectRatio="xMinYMin meet" x="13" y="-574"/>
<text text-anchor="start" x="28" y="-565.2" font-family="Helvetica,sans-Serif" font-size="11.00">ad_user_id</text>
<polygon fill="none" stroke="black" points="8,-535 8,-557 248,-557 248,-535 8,-535"/>
<image xlink:href="../../images/foreignKeys.png" width="11px" height="12px" preserveAspectRatio="xMinYMin meet" x="13" y="-552"/>
<text text-anchor="start" x="28" y="-543.2" font-family="Helvetica,sans-Serif" font-size="11.00">ad_client_id</text>
<polygon fill="none" stroke="black" points="8,-513 8,-535 248,-535 248,-513 8,-513"/>
<image xlink:href="../../images/foreignKeys.png" width="11px" height="12px" preserveAspectRatio="xMinYMin meet" x="13" y="-530"/>
<text text-anchor="start" x="28" y="-521.2" font-family="Helvetica,sans-Serif" font-size="11.00">ad_org_id</text>
<polygon fill="#ffffff" stroke="transparent" points="8,-491 8,-513 248,-513 248,-491 8,-491"/>
<polygon fill="none" stroke="black" points="8,-491 8,-513 248,-513 248,-491 8,-491"/>
<text text-anchor="start" x="28" y="-499.2" font-family="Helvetica,sans-Serif" font-size="11.00">name</text>
<polygon fill="#ffffff" stroke="transparent" points="8,-469 8,-491 248,-491 248,-469 8,-469"/>
<polygon fill="none" stroke="black" points="8,-469 8,-491 248,-491 248,-469 8,-469"/>
<text text-anchor="start" x="28" y="-477.2" font-family="Helvetica,sans-Serif" font-size="11.00">email</text>
<polygon fill="none" stroke="black" points="8,-447 8,-469 248,-469 248,-447 8,-447"/>
<image xlink:href="../../images/foreignKeys.png" width="11px" height="12px" preserveAspectRatio="xMinYMin meet" x="13" y="-464"/>
<text text-anchor="start" x="28" y="-455.2" font-family="Helvetica,sans-Serif" font-size="11.00">supervisor_id</text>
<polygon fill="#ffffff" stroke="transparent" points="8,-425 8,-447 248,-447 248,-425 8,-425"/>
<polygon fill="none" stroke="black" points="8,-425 8,-447 248,-447 248,-425 8,-425"/>
<image xlink:href="../../images/foreignKeys.png" width="11px" height="12px" preserveAspectRatio="xMinYMin meet" x="13" y="-442"/>
<text text-anchor="start" x="28" y="-433.2" font-family="Helvetica,sans-Serif" font-size="11.00">c_bpartner_id</text>
<polygon fill="none" stroke="black" points="8,-403 8,-425 248,-425 248,-403 8,-403"/>
<image xlink:href="../../images/foreignKeys.png" width="11px" height="12px" preserveAspectRatio="xMinYMin meet" x="13" y="-420"/>
<text text-anchor="start" x="28" y="-411.2" font-family="Helvetica,sans-Serif" font-size="11.00">c_bpartner_location_id</text>
<polygon fill="none" stroke="black" points="8,-381 8,-403 248,-403 248,-381 8,-381"/>
<image xlink:href="../../images/foreignKeys.png" width="11px" height="12px" preserveAspectRatio="xMinYMin meet" x="13" y="-398"/>
<text text-anchor="start" x="28" y="-389.2" font-family="Helvetica,sans-Serif" font-size="11.00">c_greeting_id</text>
<polygon fill="none" stroke="black" points="8,-359 8,-381 248,-381 248,-359 8,-359"/>
<image xlink:href="../../images/foreignKeys.png" width="11px" height="12px" preserveAspectRatio="xMinYMin meet" x="13" y="-376"/>
<text text-anchor="start" x="28" y="-367.2" font-family="Helvetica,sans-Serif" font-size="11.00">ad_orgtrx_id</text>
<polygon fill="none" stroke="black" points="8,-337 8,-359 248,-359 248,-337 8,-337"/>
<image xlink:href="../../images/foreignKeys.png" width="11px" height="12px" preserveAspectRatio="xMinYMin meet" x="13" y="-354"/>
<text text-anchor="start" x="28" y="-345.2" font-family="Helvetica,sans-Serif" font-size="11.00">c_job_id</text>
<polygon fill="#ffffff" stroke="transparent" points="8,-315 8,-337 248,-337 248,-315 8,-315"/>
<polygon fill="none" stroke="black" points="8,-315 8,-337 248,-337 248,-315 8,-315"/>
<text text-anchor="start" x="28" y="-323.2" font-family="Helvetica,sans-Serif" font-size="11.00">ad_user_uu</text>
<polygon fill="none" stroke="black" points="8,-293 8,-315 248,-315 248,-293 8,-293"/>
<image xlink:href="../../images/foreignKeys.png" width="11px" height="12px" preserveAspectRatio="xMinYMin meet" x="13" y="-310"/>
<text text-anchor="start" x="28" y="-301.2" font-family="Helvetica,sans-Serif" font-size="11.00">c_location_id</text>
<polygon fill="none" stroke="black" points="8,-271 8,-293 248,-293 248,-271 8,-271"/>
<image xlink:href="../../images/foreignKeys.png" width="11px" height="12px" preserveAspectRatio="xMinYMin meet" x="13" y="-288"/>
<text text-anchor="start" x="28" y="-279.2" font-family="Helvetica,sans-Serif" font-size="11.00">c_campaign_id</text>
<polygon fill="none" stroke="black" points="8,-249 8,-271 248,-271 248,-249 8,-249"/>
<image xlink:href="../../images/foreignKeys.png" width="11px" height="12px" preserveAspectRatio="xMinYMin meet" x="13" y="-266"/>
<text text-anchor="start" x="28" y="-257.2" font-family="Helvetica,sans-Serif" font-size="11.00">salesrep_id</text>
<polygon fill="none" stroke="black" points="8,-227 8,-249 248,-249 248,-227 8,-227"/>
<image xlink:href="../../images/foreignKeys.png" width="11px" height="12px" preserveAspectRatio="xMinYMin meet" x="13" y="-244"/>
<text text-anchor="start" x="28" y="-235.2" font-family="Helvetica,sans-Serif" font-size="11.00">bp_location_id</text>
<polygon fill="none" stroke="black" points="8,-205 8,-227 248,-227 248,-205 8,-205"/>
<image xlink:href="../../images/foreignKeys.png" width="11px" height="12px" preserveAspectRatio="xMinYMin meet" x="13" y="-222"/>
<text text-anchor="start" x="28" y="-213.2" font-family="Helvetica,sans-Serif" font-size="11.00">r_defaultmailtext_id</text>
<polygon fill="none" stroke="black" points="8,-183 8,-205 248,-205 248,-183 8,-183"/>
<image xlink:href="../../images/foreignKeys.png" width="11px" height="12px" preserveAspectRatio="xMinYMin meet" x="13" y="-200"/>
<text text-anchor="start" x="28" y="-191.2" font-family="Helvetica,sans-Serif" font-size="11.00">cof_c_marketsegment_id</text>
<polygon fill="none" stroke="black" points="8,-161 8,-183 248,-183 248,-161 8,-161"/>
<image xlink:href="../../images/foreignKeys.png" width="11px" height="12px" preserveAspectRatio="xMinYMin meet" x="13" y="-178"/>
<text text-anchor="start" x="28" y="-169.2" font-family="Helvetica,sans-Serif" font-size="11.00">cof_c_leadexpirationreason_id</text>
<polygon fill="none" stroke="black" points="8,-139 8,-161 248,-161 248,-139 8,-139"/>
<image xlink:href="../../images/foreignKeys.png" width="11px" height="12px" preserveAspectRatio="xMinYMin meet" x="13" y="-156"/>
<text text-anchor="start" x="28" y="-147.2" font-family="Helvetica,sans-Serif" font-size="11.00">ad_image_id</text>
<polygon fill="none" stroke="black" points="8,-117 8,-139 248,-139 248,-117 8,-117"/>
<image xlink:href="../../images/foreignKeys.png" width="11px" height="12px" preserveAspectRatio="xMinYMin meet" x="13" y="-134"/>
<text text-anchor="start" x="28" y="-125.2" font-family="Helvetica,sans-Serif" font-size="11.00">c_subscription_id</text>
<polygon fill="none" stroke="black" points="8,-95 8,-117 248,-117 248,-95 8,-95"/>
<image xlink:href="../../images/foreignKeys.png" width="11px" height="12px" preserveAspectRatio="xMinYMin meet" x="13" y="-112"/>
<text text-anchor="start" x="28" y="-103.2" font-family="Helvetica,sans-Serif" font-size="11.00">cof_responsavelindicacao_id</text>
<polygon fill="none" stroke="black" points="8,-73 8,-95 248,-95 248,-73 8,-73"/>
<image xlink:href="../../images/foreignKeys.png" width="11px" height="12px" preserveAspectRatio="xMinYMin meet" x="13" y="-90"/>
<text text-anchor="start" x="28" y="-81.2" font-family="Helvetica,sans-Serif" font-size="11.00">cof_respatribuicao_id</text>
<polygon fill="none" stroke="black" points="8,-55 8,-73 248,-73 248,-55 8,-55"/>
<text text-anchor="start" x="11" y="-61.2" font-family="Helvetica,sans-Serif" font-size="11.00">...</text>
<polygon fill="#ffffff" stroke="transparent" points="8,-37 8,-55 248,-55 248,-37 8,-37"/>
<polygon fill="none" stroke="black" points="8,-37 8,-55 248,-55 248,-37 8,-37"/>
<polygon fill="#ffffff" stroke="transparent" points="9,-38 9,-54 83,-54 83,-38 9,-38"/>
<text text-anchor="start" x="11" y="-43.2" font-family="Helvetica,sans-Serif" font-size="11.00">&lt; 19</text>
<polygon fill="#ffffff" stroke="transparent" points="83,-38 83,-54 168,-54 168,-38 83,-38"/>
<text text-anchor="start" x="109" y="-43.2" font-family="Helvetica,sans-Serif" font-size="11.00">8 rows</text>
<polygon fill="#ffffff" stroke="transparent" points="168,-38 168,-54 247,-54 247,-38 168,-38"/>
<text text-anchor="start" x="217" y="-43.2" font-family="Helvetica,sans-Serif" font-size="11.00">444 &gt;</text>
<polygon fill="black" stroke="black" points="83,-38 83,-54 83,-54 83,-38 83,-38"/>
<polygon fill="black" stroke="black" points="168,-38 168,-54 168,-54 168,-38 168,-38"/>
</a>
</g>
</g>
<!-- ad_treebar&#45;&gt;ad_user -->
<g id="edge2" class="edge">
<title>ad_treebar:w&#45;&gt;ad_user:e</title>
<path fill="none" stroke="black" d="M283.99,-657.72C261.01,-639.33 290.04,-568 249,-568"/>
<polygon fill="black" stroke="black" points="290.35,-659.66 296.95,-665.44 294.17,-660.83 298,-662 298,-662 298,-662 294.17,-660.83 299.05,-658.56 290.35,-659.66 290.35,-659.66"/>
<ellipse fill="none" stroke="black" cx="287.29" cy="-658.73" rx="3.2" ry="3.2"/>
</g>
</g>
</svg>
