<?xml version="1.0" encoding="UTF-8" standalone="no"?>
<!DOCTYPE svg PUBLIC "-//W3C//DTD SVG 1.1//EN"
 "http://www.w3.org/Graphics/SVG/1.1/DTD/svg11.dtd">
<!-- Generated by graphviz version 2.43.0 (0)
 -->
<!-- Title: oneDegreeRelationshipsDiagram Pages: 1 -->
<svg width="548pt" height="357pt"
 viewBox="0.00 0.00 548.00 357.00" xmlns="http://www.w3.org/2000/svg" xmlns:xlink="http://www.w3.org/1999/xlink">
<g id="graph0" class="graph" transform="scale(1 1) rotate(0) translate(4 353)">
<title>oneDegreeRelationshipsDiagram</title>
<polygon fill="#ffffff" stroke="transparent" points="-4,4 -4,-353 544,-353 544,4 -4,4"/>
<text text-anchor="middle" x="71.5" y="-7.2" font-family="Helvetica,sans-Serif" font-size="11.00">Generated by SchemaSpy</text>
<!-- ad_treenodecmm -->
<g id="node1" class="node">
<title>ad_treenodecmm</title>
<g id="a_node1"><a xlink:href="../../tables/ad_treenodecmm.html" xlink:title="ad_treenodecmm" target="_top">
<polygon fill="#ffffff" stroke="transparent" points="274,-37 274,-345 532,-345 532,-37 274,-37"/>
<polygon fill="#f5f5f5" stroke="transparent" points="276,-321 276,-343 530,-343 530,-321 276,-321"/>
<polygon fill="none" stroke="black" points="276,-321 276,-343 530,-343 530,-321 276,-321"/>
<text text-anchor="start" x="281" y="-330.2" font-family="Helvetica,sans-Serif" font-weight="bold" font-size="11.00">ad_treenodecmm</text>
<text text-anchor="start" x="495" y="-329.2" font-family="Helvetica,sans-Serif" font-size="11.00">[table]</text>
<polygon fill="none" stroke="black" points="276,-299 276,-321 447,-321 447,-299 276,-299"/>
<image xlink:href="../../images/primaryKeys.png" width="11px" height="12px" preserveAspectRatio="xMinYMin meet" x="281" y="-316"/>
<text text-anchor="start" x="296" y="-307.2" font-family="Helvetica,sans-Serif" font-size="11.00">ad_tree_id</text>
<polygon fill="none" stroke="black" points="447,-299 447,-321 530,-321 530,-299 447,-299"/>
<text text-anchor="start" x="450" y="-307.2" font-family="Helvetica,sans-Serif" font-size="11.00">numeric[10]</text>
<polygon fill="none" stroke="black" points="276,-277 276,-299 447,-299 447,-277 276,-277"/>
<image xlink:href="../../images/primaryKeys.png" width="11px" height="12px" preserveAspectRatio="xMinYMin meet" x="281" y="-294"/>
<text text-anchor="start" x="296" y="-285.2" font-family="Helvetica,sans-Serif" font-size="11.00">node_id</text>
<polygon fill="none" stroke="black" points="447,-277 447,-299 530,-299 530,-277 447,-277"/>
<text text-anchor="start" x="450" y="-285.2" font-family="Helvetica,sans-Serif" font-size="11.00">numeric[10]</text>
<polygon fill="none" stroke="black" points="276,-255 276,-277 447,-277 447,-255 276,-255"/>
<text text-anchor="start" x="296" y="-263.2" font-family="Helvetica,sans-Serif" font-size="11.00">ad_client_id</text>
<polygon fill="none" stroke="black" points="447,-255 447,-277 530,-277 530,-255 447,-255"/>
<text text-anchor="start" x="450" y="-263.2" font-family="Helvetica,sans-Serif" font-size="11.00">numeric[10]</text>
<polygon fill="none" stroke="black" points="276,-233 276,-255 447,-255 447,-233 276,-233"/>
<text text-anchor="start" x="296" y="-241.2" font-family="Helvetica,sans-Serif" font-size="11.00">ad_org_id</text>
<polygon fill="none" stroke="black" points="447,-233 447,-255 530,-255 530,-233 447,-233"/>
<text text-anchor="start" x="450" y="-241.2" font-family="Helvetica,sans-Serif" font-size="11.00">numeric[10]</text>
<polygon fill="none" stroke="black" points="276,-211 276,-233 447,-233 447,-211 276,-211"/>
<text text-anchor="start" x="296" y="-219.2" font-family="Helvetica,sans-Serif" font-size="11.00">isactive</text>
<polygon fill="none" stroke="black" points="447,-211 447,-233 530,-233 530,-211 447,-211"/>
<text text-anchor="start" x="450" y="-219.2" font-family="Helvetica,sans-Serif" font-size="11.00">bpchar[1]</text>
<polygon fill="none" stroke="black" points="276,-189 276,-211 447,-211 447,-189 276,-189"/>
<text text-anchor="start" x="296" y="-197.2" font-family="Helvetica,sans-Serif" font-size="11.00">created</text>
<polygon fill="none" stroke="black" points="447,-189 447,-211 530,-211 530,-189 447,-189"/>
<text text-anchor="start" x="450" y="-197.2" font-family="Helvetica,sans-Serif" font-size="11.00">timestamp[29,6]</text>
<polygon fill="none" stroke="black" points="276,-167 276,-189 447,-189 447,-167 276,-167"/>
<text text-anchor="start" x="296" y="-175.2" font-family="Helvetica,sans-Serif" font-size="11.00">createdby</text>
<polygon fill="none" stroke="black" points="447,-167 447,-189 530,-189 530,-167 447,-167"/>
<text text-anchor="start" x="450" y="-175.2" font-family="Helvetica,sans-Serif" font-size="11.00">numeric[10]</text>
<polygon fill="none" stroke="black" points="276,-145 276,-167 447,-167 447,-145 276,-145"/>
<text text-anchor="start" x="296" y="-153.2" font-family="Helvetica,sans-Serif" font-size="11.00">updatedby</text>
<polygon fill="none" stroke="black" points="447,-145 447,-167 530,-167 530,-145 447,-145"/>
<text text-anchor="start" x="450" y="-153.2" font-family="Helvetica,sans-Serif" font-size="11.00">numeric[10]</text>
<polygon fill="none" stroke="black" points="276,-123 276,-145 447,-145 447,-123 276,-123"/>
<text text-anchor="start" x="296" y="-131.2" font-family="Helvetica,sans-Serif" font-size="11.00">updated</text>
<polygon fill="none" stroke="black" points="447,-123 447,-145 530,-145 530,-123 447,-123"/>
<text text-anchor="start" x="450" y="-131.2" font-family="Helvetica,sans-Serif" font-size="11.00">timestamp[29,6]</text>
<polygon fill="none" stroke="black" points="276,-101 276,-123 447,-123 447,-101 276,-101"/>
<text text-anchor="start" x="296" y="-109.2" font-family="Helvetica,sans-Serif" font-size="11.00">parent_id</text>
<polygon fill="none" stroke="black" points="447,-101 447,-123 530,-123 530,-101 447,-101"/>
<text text-anchor="start" x="450" y="-109.2" font-family="Helvetica,sans-Serif" font-size="11.00">numeric[10]</text>
<polygon fill="none" stroke="black" points="276,-79 276,-101 447,-101 447,-79 276,-79"/>
<text text-anchor="start" x="296" y="-87.2" font-family="Helvetica,sans-Serif" font-size="11.00">seqno</text>
<polygon fill="none" stroke="black" points="447,-79 447,-101 530,-101 530,-79 447,-79"/>
<text text-anchor="start" x="450" y="-87.2" font-family="Helvetica,sans-Serif" font-size="11.00">numeric[10]</text>
<polygon fill="#ffffff" stroke="transparent" points="276,-57 276,-79 447,-79 447,-57 276,-57"/>
<polygon fill="none" stroke="black" points="276,-57 276,-79 447,-79 447,-57 276,-57"/>
<text text-anchor="start" x="296" y="-65.2" font-family="Helvetica,sans-Serif" font-size="11.00">ad_treenodecmm_uu</text>
<polygon fill="none" stroke="black" points="447,-57 447,-79 530,-79 530,-57 447,-57"/>
<text text-anchor="start" x="450" y="-65.2" font-family="Helvetica,sans-Serif" font-size="11.00">varchar[36]</text>
<polygon fill="#ffffff" stroke="transparent" points="276,-39 276,-57 530,-57 530,-39 276,-39"/>
<polygon fill="none" stroke="black" points="276,-39 276,-57 530,-57 530,-39 276,-39"/>
<polygon fill="#ffffff" stroke="transparent" points="277,-40 277,-56 364,-56 364,-40 277,-40"/>
<text text-anchor="start" x="279" y="-45.2" font-family="Helvetica,sans-Serif" font-size="11.00">&lt; 1</text>
<polygon fill="#ffffff" stroke="transparent" points="364,-40 364,-56 442,-56 442,-40 364,-40"/>
<text text-anchor="start" x="399.5" y="-45.2" font-family="Helvetica,sans-Serif" font-size="11.00"> &#160;</text>
<polygon fill="#ffffff" stroke="transparent" points="442,-40 442,-56 529,-56 529,-40 442,-40"/>
<text text-anchor="start" x="511" y="-45.2" font-family="Helvetica,sans-Serif" font-size="11.00">0 &gt;</text>
<polygon fill="black" stroke="black" points="364,-40 364,-56 364,-56 364,-40 364,-40"/>
<polygon fill="black" stroke="black" points="442,-40 442,-56 442,-56 442,-40 442,-40"/>
<polygon fill="none" stroke="black" stroke-width="2" points="275,-38 275,-344 531,-344 531,-38 275,-38"/>
</a>
</g>
</g>
<!-- ad_tree -->
<g id="node2" class="node">
<title>ad_tree</title>
<g id="a_node2"><a xlink:href="../../tables/ad_tree.html" xlink:title="ad_tree" target="_top">
<polygon fill="#ffffff" stroke="transparent" points="8,-153 8,-343 225,-343 225,-153 8,-153"/>
<polygon fill="#f5f5f5" stroke="transparent" points="8.5,-321 8.5,-343 225.5,-343 225.5,-321 8.5,-321"/>
<polygon fill="none" stroke="black" points="8.5,-321 8.5,-343 225.5,-343 225.5,-321 8.5,-321"/>
<text text-anchor="start" x="13.5" y="-330.2" font-family="Helvetica,sans-Serif" font-weight="bold" font-size="11.00">ad_tree</text>
<text text-anchor="start" x="190.5" y="-329.2" font-family="Helvetica,sans-Serif" font-size="11.00">[table]</text>
<polygon fill="none" stroke="black" points="8.5,-299 8.5,-321 225.5,-321 225.5,-299 8.5,-299"/>
<image xlink:href="../../images/primaryKeys.png" width="11px" height="12px" preserveAspectRatio="xMinYMin meet" x="13.5" y="-316"/>
<text text-anchor="start" x="28.5" y="-307.2" font-family="Helvetica,sans-Serif" font-size="11.00">ad_tree_id</text>
<polygon fill="#ffffff" stroke="transparent" points="8.5,-277 8.5,-299 225.5,-299 225.5,-277 8.5,-277"/>
<polygon fill="none" stroke="black" points="8.5,-277 8.5,-299 225.5,-299 225.5,-277 8.5,-277"/>
<text text-anchor="start" x="28.5" y="-285.2" font-family="Helvetica,sans-Serif" font-size="11.00">ad_client_id</text>
<polygon fill="#ffffff" stroke="transparent" points="8.5,-255 8.5,-277 225.5,-277 225.5,-255 8.5,-255"/>
<polygon fill="none" stroke="black" points="8.5,-255 8.5,-277 225.5,-277 225.5,-255 8.5,-255"/>
<text text-anchor="start" x="28.5" y="-263.2" font-family="Helvetica,sans-Serif" font-size="11.00">name</text>
<polygon fill="#ffffff" stroke="transparent" points="8.5,-233 8.5,-255 225.5,-255 225.5,-233 8.5,-233"/>
<polygon fill="none" stroke="black" points="8.5,-233 8.5,-255 225.5,-255 225.5,-233 8.5,-233"/>
<text text-anchor="start" x="28.5" y="-241.2" font-family="Helvetica,sans-Serif" font-size="11.00">ad_tree_uu</text>
<polygon fill="none" stroke="black" points="8.5,-211 8.5,-233 225.5,-233 225.5,-211 8.5,-211"/>
<image xlink:href="../../images/foreignKeys.png" width="11px" height="12px" preserveAspectRatio="xMinYMin meet" x="13.5" y="-228"/>
<text text-anchor="start" x="28.5" y="-219.2" font-family="Helvetica,sans-Serif" font-size="11.00">ad_table_id</text>
<polygon fill="none" stroke="black" points="8.5,-189 8.5,-211 225.5,-211 225.5,-189 8.5,-189"/>
<image xlink:href="../../images/foreignKeys.png" width="11px" height="12px" preserveAspectRatio="xMinYMin meet" x="13.5" y="-206"/>
<text text-anchor="start" x="28.5" y="-197.2" font-family="Helvetica,sans-Serif" font-size="11.00">parent_column_id</text>
<polygon fill="none" stroke="black" points="8.5,-171 8.5,-189 225.5,-189 225.5,-171 8.5,-171"/>
<text text-anchor="start" x="11.5" y="-177.2" font-family="Helvetica,sans-Serif" font-size="11.00">...</text>
<polygon fill="#ffffff" stroke="transparent" points="8.5,-153 8.5,-171 225.5,-171 225.5,-153 8.5,-153"/>
<polygon fill="none" stroke="black" points="8.5,-153 8.5,-171 225.5,-171 225.5,-153 8.5,-153"/>
<polygon fill="#ffffff" stroke="transparent" points="9.5,-154 9.5,-170 71.5,-170 71.5,-154 9.5,-154"/>
<text text-anchor="start" x="11.5" y="-159.2" font-family="Helvetica,sans-Serif" font-size="11.00">&lt; 2</text>
<polygon fill="#ffffff" stroke="transparent" points="71.5,-154 71.5,-170 156.5,-170 156.5,-154 71.5,-154"/>
<text text-anchor="start" x="94.5" y="-159.2" font-family="Helvetica,sans-Serif" font-size="11.00">31 rows</text>
<polygon fill="#ffffff" stroke="transparent" points="156.5,-154 156.5,-170 224.5,-170 224.5,-154 156.5,-154"/>
<text text-anchor="start" x="200.5" y="-159.2" font-family="Helvetica,sans-Serif" font-size="11.00">36 &gt;</text>
<polygon fill="black" stroke="black" points="71.5,-154 71.5,-170 71.5,-170 71.5,-154 71.5,-154"/>
<polygon fill="black" stroke="black" points="156.5,-154 156.5,-170 156.5,-170 156.5,-154 156.5,-154"/>
</a>
</g>
</g>
<!-- ad_treenodecmm&#45;&gt;ad_tree -->
<g id="edge1" class="edge">
<title>ad_treenodecmm:w&#45;&gt;ad_tree:e</title>
<path fill="none" stroke="black" d="M260.28,-310C249.29,-310 242.16,-310 226.5,-310"/>
<polygon fill="black" stroke="black" points="267,-310 275,-313.6 271,-310 275,-310 275,-310 275,-310 271,-310 275,-306.4 267,-310 267,-310"/>
<ellipse fill="none" stroke="black" cx="263.8" cy="-310" rx="3.2" ry="3.2"/>
</g>
</g>
</svg>
