<?xml version="1.0" encoding="UTF-8" standalone="no"?>
<!DOCTYPE svg PUBLIC "-//W3C//DTD SVG 1.1//EN"
 "http://www.w3.org/Graphics/SVG/1.1/DTD/svg11.dtd">
<!-- Generated by graphviz version 2.43.0 (0)
 -->
<!-- Title: oneDegreeRelationshipsDiagram Pages: 1 -->
<svg width="1135pt" height="838pt"
 viewBox="0.00 0.00 1135.00 838.00" xmlns="http://www.w3.org/2000/svg" xmlns:xlink="http://www.w3.org/1999/xlink">
<g id="graph0" class="graph" transform="scale(1 1) rotate(0) translate(4 834)">
<title>oneDegreeRelationshipsDiagram</title>
<polygon fill="#ffffff" stroke="transparent" points="-4,4 -4,-834 1131,-834 1131,4 -4,4"/>
<text text-anchor="middle" x="71.5" y="-7.2" font-family="Helvetica,sans-Serif" font-size="11.00">Generated by SchemaSpy</text>
<!-- ad_role -->
<g id="node1" class="node">
<title>ad_role</title>
<g id="a_node1"><a xlink:href="../../tables/ad_role.html" xlink:title="ad_role" target="_top">
<polygon fill="#ffffff" stroke="transparent" points="297,-538 297,-772 520,-772 520,-538 297,-538"/>
<polygon fill="#f5f5f5" stroke="transparent" points="297.5,-750 297.5,-772 520.5,-772 520.5,-750 297.5,-750"/>
<polygon fill="none" stroke="black" points="297.5,-750 297.5,-772 520.5,-772 520.5,-750 297.5,-750"/>
<text text-anchor="start" x="302.5" y="-759.2" font-family="Helvetica,sans-Serif" font-weight="bold" font-size="11.00">ad_role</text>
<text text-anchor="start" x="485.5" y="-758.2" font-family="Helvetica,sans-Serif" font-size="11.00">[table]</text>
<polygon fill="none" stroke="black" points="297.5,-728 297.5,-750 520.5,-750 520.5,-728 297.5,-728"/>
<image xlink:href="../../images/primaryKeys.png" width="11px" height="12px" preserveAspectRatio="xMinYMin meet" x="302.5" y="-745"/>
<text text-anchor="start" x="317.5" y="-736.2" font-family="Helvetica,sans-Serif" font-size="11.00">ad_role_id</text>
<polygon fill="none" stroke="black" points="297.5,-706 297.5,-728 520.5,-728 520.5,-706 297.5,-706"/>
<image xlink:href="../../images/foreignKeys.png" width="11px" height="12px" preserveAspectRatio="xMinYMin meet" x="302.5" y="-723"/>
<text text-anchor="start" x="317.5" y="-714.2" font-family="Helvetica,sans-Serif" font-size="11.00">ad_client_id</text>
<polygon fill="none" stroke="black" points="297.5,-684 297.5,-706 520.5,-706 520.5,-684 297.5,-684"/>
<image xlink:href="../../images/foreignKeys.png" width="11px" height="12px" preserveAspectRatio="xMinYMin meet" x="302.5" y="-701"/>
<text text-anchor="start" x="317.5" y="-692.2" font-family="Helvetica,sans-Serif" font-size="11.00">ad_org_id</text>
<polygon fill="none" stroke="black" points="297.5,-662 297.5,-684 520.5,-684 520.5,-662 297.5,-662"/>
<image xlink:href="../../images/foreignKeys.png" width="11px" height="12px" preserveAspectRatio="xMinYMin meet" x="302.5" y="-679"/>
<text text-anchor="start" x="317.5" y="-670.2" font-family="Helvetica,sans-Serif" font-size="11.00">c_currency_id</text>
<polygon fill="none" stroke="black" points="297.5,-640 297.5,-662 520.5,-662 520.5,-640 297.5,-640"/>
<image xlink:href="../../images/foreignKeys.png" width="11px" height="12px" preserveAspectRatio="xMinYMin meet" x="302.5" y="-657"/>
<text text-anchor="start" x="317.5" y="-648.2" font-family="Helvetica,sans-Serif" font-size="11.00">ad_tree_menu_id</text>
<polygon fill="none" stroke="black" points="297.5,-618 297.5,-640 520.5,-640 520.5,-618 297.5,-618"/>
<image xlink:href="../../images/foreignKeys.png" width="11px" height="12px" preserveAspectRatio="xMinYMin meet" x="302.5" y="-635"/>
<text text-anchor="start" x="317.5" y="-626.2" font-family="Helvetica,sans-Serif" font-size="11.00">supervisor_id</text>
<polygon fill="none" stroke="black" points="297.5,-596 297.5,-618 520.5,-618 520.5,-596 297.5,-596"/>
<image xlink:href="../../images/foreignKeys.png" width="11px" height="12px" preserveAspectRatio="xMinYMin meet" x="302.5" y="-613"/>
<text text-anchor="start" x="317.5" y="-604.2" font-family="Helvetica,sans-Serif" font-size="11.00">ad_tree_org_id</text>
<polygon fill="#ffffff" stroke="transparent" points="297.5,-574 297.5,-596 520.5,-596 520.5,-574 297.5,-574"/>
<polygon fill="none" stroke="black" points="297.5,-574 297.5,-596 520.5,-596 520.5,-574 297.5,-574"/>
<text text-anchor="start" x="317.5" y="-582.2" font-family="Helvetica,sans-Serif" font-size="11.00">ad_role_uu</text>
<polygon fill="none" stroke="black" points="297.5,-556 297.5,-574 520.5,-574 520.5,-556 297.5,-556"/>
<text text-anchor="start" x="300.5" y="-562.2" font-family="Helvetica,sans-Serif" font-size="11.00">...</text>
<polygon fill="#ffffff" stroke="transparent" points="297.5,-538 297.5,-556 520.5,-556 520.5,-538 297.5,-538"/>
<polygon fill="none" stroke="black" points="297.5,-538 297.5,-556 520.5,-556 520.5,-538 297.5,-538"/>
<polygon fill="#ffffff" stroke="transparent" points="298.5,-539 298.5,-555 362.5,-555 362.5,-539 298.5,-539"/>
<text text-anchor="start" x="300.5" y="-544.2" font-family="Helvetica,sans-Serif" font-size="11.00">&lt; 6</text>
<polygon fill="#ffffff" stroke="transparent" points="362.5,-539 362.5,-555 449.5,-555 449.5,-539 362.5,-539"/>
<text text-anchor="start" x="386.5" y="-544.2" font-family="Helvetica,sans-Serif" font-size="11.00">13 rows</text>
<polygon fill="#ffffff" stroke="transparent" points="449.5,-539 449.5,-555 519.5,-555 519.5,-539 449.5,-539"/>
<text text-anchor="start" x="495.5" y="-544.2" font-family="Helvetica,sans-Serif" font-size="11.00">45 &gt;</text>
<polygon fill="black" stroke="black" points="362.5,-539 362.5,-555 362.5,-555 362.5,-539 362.5,-539"/>
<polygon fill="black" stroke="black" points="449.5,-539 449.5,-555 449.5,-555 449.5,-539 449.5,-539"/>
</a>
</g>
</g>
<!-- ad_user -->
<g id="node2" class="node">
<title>ad_user</title>
<g id="a_node2"><a xlink:href="../../tables/ad_user.html" xlink:title="ad_user" target="_top">
<polygon fill="#ffffff" stroke="transparent" points="8,-40 8,-604 248,-604 248,-40 8,-40"/>
<polygon fill="#f5f5f5" stroke="transparent" points="8,-582 8,-604 248,-604 248,-582 8,-582"/>
<polygon fill="none" stroke="black" points="8,-582 8,-604 248,-604 248,-582 8,-582"/>
<text text-anchor="start" x="13" y="-591.2" font-family="Helvetica,sans-Serif" font-weight="bold" font-size="11.00">ad_user</text>
<text text-anchor="start" x="213" y="-590.2" font-family="Helvetica,sans-Serif" font-size="11.00">[table]</text>
<polygon fill="none" stroke="black" points="8,-560 8,-582 248,-582 248,-560 8,-560"/>
<image xlink:href="../../images/primaryKeys.png" width="11px" height="12px" preserveAspectRatio="xMinYMin meet" x="13" y="-577"/>
<text text-anchor="start" x="28" y="-568.2" font-family="Helvetica,sans-Serif" font-size="11.00">ad_user_id</text>
<polygon fill="none" stroke="black" points="8,-538 8,-560 248,-560 248,-538 8,-538"/>
<image xlink:href="../../images/foreignKeys.png" width="11px" height="12px" preserveAspectRatio="xMinYMin meet" x="13" y="-555"/>
<text text-anchor="start" x="28" y="-546.2" font-family="Helvetica,sans-Serif" font-size="11.00">ad_client_id</text>
<polygon fill="none" stroke="black" points="8,-516 8,-538 248,-538 248,-516 8,-516"/>
<image xlink:href="../../images/foreignKeys.png" width="11px" height="12px" preserveAspectRatio="xMinYMin meet" x="13" y="-533"/>
<text text-anchor="start" x="28" y="-524.2" font-family="Helvetica,sans-Serif" font-size="11.00">ad_org_id</text>
<polygon fill="#ffffff" stroke="transparent" points="8,-494 8,-516 248,-516 248,-494 8,-494"/>
<polygon fill="none" stroke="black" points="8,-494 8,-516 248,-516 248,-494 8,-494"/>
<text text-anchor="start" x="28" y="-502.2" font-family="Helvetica,sans-Serif" font-size="11.00">name</text>
<polygon fill="#ffffff" stroke="transparent" points="8,-472 8,-494 248,-494 248,-472 8,-472"/>
<polygon fill="none" stroke="black" points="8,-472 8,-494 248,-494 248,-472 8,-472"/>
<text text-anchor="start" x="28" y="-480.2" font-family="Helvetica,sans-Serif" font-size="11.00">email</text>
<polygon fill="none" stroke="black" points="8,-450 8,-472 248,-472 248,-450 8,-450"/>
<image xlink:href="../../images/foreignKeys.png" width="11px" height="12px" preserveAspectRatio="xMinYMin meet" x="13" y="-467"/>
<text text-anchor="start" x="28" y="-458.2" font-family="Helvetica,sans-Serif" font-size="11.00">supervisor_id</text>
<polygon fill="#ffffff" stroke="transparent" points="8,-428 8,-450 248,-450 248,-428 8,-428"/>
<polygon fill="none" stroke="black" points="8,-428 8,-450 248,-450 248,-428 8,-428"/>
<image xlink:href="../../images/foreignKeys.png" width="11px" height="12px" preserveAspectRatio="xMinYMin meet" x="13" y="-445"/>
<text text-anchor="start" x="28" y="-436.2" font-family="Helvetica,sans-Serif" font-size="11.00">c_bpartner_id</text>
<polygon fill="none" stroke="black" points="8,-406 8,-428 248,-428 248,-406 8,-406"/>
<image xlink:href="../../images/foreignKeys.png" width="11px" height="12px" preserveAspectRatio="xMinYMin meet" x="13" y="-423"/>
<text text-anchor="start" x="28" y="-414.2" font-family="Helvetica,sans-Serif" font-size="11.00">c_bpartner_location_id</text>
<polygon fill="none" stroke="black" points="8,-384 8,-406 248,-406 248,-384 8,-384"/>
<image xlink:href="../../images/foreignKeys.png" width="11px" height="12px" preserveAspectRatio="xMinYMin meet" x="13" y="-401"/>
<text text-anchor="start" x="28" y="-392.2" font-family="Helvetica,sans-Serif" font-size="11.00">c_greeting_id</text>
<polygon fill="none" stroke="black" points="8,-362 8,-384 248,-384 248,-362 8,-362"/>
<image xlink:href="../../images/foreignKeys.png" width="11px" height="12px" preserveAspectRatio="xMinYMin meet" x="13" y="-379"/>
<text text-anchor="start" x="28" y="-370.2" font-family="Helvetica,sans-Serif" font-size="11.00">ad_orgtrx_id</text>
<polygon fill="none" stroke="black" points="8,-340 8,-362 248,-362 248,-340 8,-340"/>
<image xlink:href="../../images/foreignKeys.png" width="11px" height="12px" preserveAspectRatio="xMinYMin meet" x="13" y="-357"/>
<text text-anchor="start" x="28" y="-348.2" font-family="Helvetica,sans-Serif" font-size="11.00">c_job_id</text>
<polygon fill="#ffffff" stroke="transparent" points="8,-318 8,-340 248,-340 248,-318 8,-318"/>
<polygon fill="none" stroke="black" points="8,-318 8,-340 248,-340 248,-318 8,-318"/>
<text text-anchor="start" x="28" y="-326.2" font-family="Helvetica,sans-Serif" font-size="11.00">ad_user_uu</text>
<polygon fill="none" stroke="black" points="8,-296 8,-318 248,-318 248,-296 8,-296"/>
<image xlink:href="../../images/foreignKeys.png" width="11px" height="12px" preserveAspectRatio="xMinYMin meet" x="13" y="-313"/>
<text text-anchor="start" x="28" y="-304.2" font-family="Helvetica,sans-Serif" font-size="11.00">c_location_id</text>
<polygon fill="none" stroke="black" points="8,-274 8,-296 248,-296 248,-274 8,-274"/>
<image xlink:href="../../images/foreignKeys.png" width="11px" height="12px" preserveAspectRatio="xMinYMin meet" x="13" y="-291"/>
<text text-anchor="start" x="28" y="-282.2" font-family="Helvetica,sans-Serif" font-size="11.00">c_campaign_id</text>
<polygon fill="none" stroke="black" points="8,-252 8,-274 248,-274 248,-252 8,-252"/>
<image xlink:href="../../images/foreignKeys.png" width="11px" height="12px" preserveAspectRatio="xMinYMin meet" x="13" y="-269"/>
<text text-anchor="start" x="28" y="-260.2" font-family="Helvetica,sans-Serif" font-size="11.00">salesrep_id</text>
<polygon fill="none" stroke="black" points="8,-230 8,-252 248,-252 248,-230 8,-230"/>
<image xlink:href="../../images/foreignKeys.png" width="11px" height="12px" preserveAspectRatio="xMinYMin meet" x="13" y="-247"/>
<text text-anchor="start" x="28" y="-238.2" font-family="Helvetica,sans-Serif" font-size="11.00">bp_location_id</text>
<polygon fill="none" stroke="black" points="8,-208 8,-230 248,-230 248,-208 8,-208"/>
<image xlink:href="../../images/foreignKeys.png" width="11px" height="12px" preserveAspectRatio="xMinYMin meet" x="13" y="-225"/>
<text text-anchor="start" x="28" y="-216.2" font-family="Helvetica,sans-Serif" font-size="11.00">r_defaultmailtext_id</text>
<polygon fill="none" stroke="black" points="8,-186 8,-208 248,-208 248,-186 8,-186"/>
<image xlink:href="../../images/foreignKeys.png" width="11px" height="12px" preserveAspectRatio="xMinYMin meet" x="13" y="-203"/>
<text text-anchor="start" x="28" y="-194.2" font-family="Helvetica,sans-Serif" font-size="11.00">cof_c_marketsegment_id</text>
<polygon fill="none" stroke="black" points="8,-164 8,-186 248,-186 248,-164 8,-164"/>
<image xlink:href="../../images/foreignKeys.png" width="11px" height="12px" preserveAspectRatio="xMinYMin meet" x="13" y="-181"/>
<text text-anchor="start" x="28" y="-172.2" font-family="Helvetica,sans-Serif" font-size="11.00">cof_c_leadexpirationreason_id</text>
<polygon fill="none" stroke="black" points="8,-142 8,-164 248,-164 248,-142 8,-142"/>
<image xlink:href="../../images/foreignKeys.png" width="11px" height="12px" preserveAspectRatio="xMinYMin meet" x="13" y="-159"/>
<text text-anchor="start" x="28" y="-150.2" font-family="Helvetica,sans-Serif" font-size="11.00">ad_image_id</text>
<polygon fill="none" stroke="black" points="8,-120 8,-142 248,-142 248,-120 8,-120"/>
<image xlink:href="../../images/foreignKeys.png" width="11px" height="12px" preserveAspectRatio="xMinYMin meet" x="13" y="-137"/>
<text text-anchor="start" x="28" y="-128.2" font-family="Helvetica,sans-Serif" font-size="11.00">c_subscription_id</text>
<polygon fill="none" stroke="black" points="8,-98 8,-120 248,-120 248,-98 8,-98"/>
<image xlink:href="../../images/foreignKeys.png" width="11px" height="12px" preserveAspectRatio="xMinYMin meet" x="13" y="-115"/>
<text text-anchor="start" x="28" y="-106.2" font-family="Helvetica,sans-Serif" font-size="11.00">cof_responsavelindicacao_id</text>
<polygon fill="none" stroke="black" points="8,-76 8,-98 248,-98 248,-76 8,-76"/>
<image xlink:href="../../images/foreignKeys.png" width="11px" height="12px" preserveAspectRatio="xMinYMin meet" x="13" y="-93"/>
<text text-anchor="start" x="28" y="-84.2" font-family="Helvetica,sans-Serif" font-size="11.00">cof_respatribuicao_id</text>
<polygon fill="none" stroke="black" points="8,-58 8,-76 248,-76 248,-58 8,-58"/>
<text text-anchor="start" x="11" y="-64.2" font-family="Helvetica,sans-Serif" font-size="11.00">...</text>
<polygon fill="#ffffff" stroke="transparent" points="8,-40 8,-58 248,-58 248,-40 8,-40"/>
<polygon fill="none" stroke="black" points="8,-40 8,-58 248,-58 248,-40 8,-40"/>
<polygon fill="#ffffff" stroke="transparent" points="9,-41 9,-57 83,-57 83,-41 9,-41"/>
<text text-anchor="start" x="11" y="-46.2" font-family="Helvetica,sans-Serif" font-size="11.00">&lt; 19</text>
<polygon fill="#ffffff" stroke="transparent" points="83,-41 83,-57 168,-57 168,-41 83,-41"/>
<text text-anchor="start" x="109" y="-46.2" font-family="Helvetica,sans-Serif" font-size="11.00">8 rows</text>
<polygon fill="#ffffff" stroke="transparent" points="168,-41 168,-57 247,-57 247,-41 168,-41"/>
<text text-anchor="start" x="217" y="-46.2" font-family="Helvetica,sans-Serif" font-size="11.00">444 &gt;</text>
<polygon fill="black" stroke="black" points="83,-41 83,-57 83,-57 83,-41 83,-41"/>
<polygon fill="black" stroke="black" points="168,-41 168,-57 168,-57 168,-41 168,-41"/>
</a>
</g>
</g>
<!-- ad_role&#45;&gt;ad_user -->
<g id="edge1" class="edge">
<title>ad_role:w&#45;&gt;ad_user:e</title>
<path fill="none" stroke="black" d="M282.6,-623.65C268.51,-609.29 276.07,-571 249,-571"/>
<polygon fill="black" stroke="black" points="289.03,-626.13 295.21,-632.36 292.77,-627.56 296.5,-629 296.5,-629 296.5,-629 292.77,-627.56 297.79,-625.64 289.03,-626.13 289.03,-626.13"/>
<ellipse fill="none" stroke="black" cx="286.05" cy="-624.98" rx="3.2" ry="3.2"/>
</g>
<!-- ad_userdef_proc -->
<g id="node3" class="node">
<title>ad_userdef_proc</title>
<g id="a_node3"><a xlink:href="../../tables/ad_userdef_proc.html" xlink:title="ad_userdef_proc" target="_top">
<polygon fill="#ffffff" stroke="transparent" points="569,-366 569,-784 821,-784 821,-366 569,-366"/>
<polygon fill="#f5f5f5" stroke="transparent" points="571,-760 571,-782 819,-782 819,-760 571,-760"/>
<polygon fill="none" stroke="black" points="571,-760 571,-782 819,-782 819,-760 571,-760"/>
<text text-anchor="start" x="576" y="-769.2" font-family="Helvetica,sans-Serif" font-weight="bold" font-size="11.00">ad_userdef_proc</text>
<text text-anchor="start" x="784" y="-768.2" font-family="Helvetica,sans-Serif" font-size="11.00">[table]</text>
<polygon fill="none" stroke="black" points="571,-738 571,-760 736,-760 736,-738 571,-738"/>
<image xlink:href="../../images/primaryKeys.png" width="11px" height="12px" preserveAspectRatio="xMinYMin meet" x="576" y="-755"/>
<text text-anchor="start" x="591" y="-746.2" font-family="Helvetica,sans-Serif" font-size="11.00">ad_userdef_proc_id</text>
<polygon fill="none" stroke="black" points="736,-738 736,-760 819,-760 819,-738 736,-738"/>
<text text-anchor="start" x="739" y="-746.2" font-family="Helvetica,sans-Serif" font-size="11.00">numeric[10]</text>
<polygon fill="#ffffff" stroke="transparent" points="571,-716 571,-738 736,-738 736,-716 571,-716"/>
<polygon fill="none" stroke="black" points="571,-716 571,-738 736,-738 736,-716 571,-716"/>
<text text-anchor="start" x="591" y="-724.2" font-family="Helvetica,sans-Serif" font-size="11.00">ad_userdef_proc_uu</text>
<polygon fill="none" stroke="black" points="736,-716 736,-738 819,-738 819,-716 736,-716"/>
<text text-anchor="start" x="739" y="-724.2" font-family="Helvetica,sans-Serif" font-size="11.00">varchar[36]</text>
<polygon fill="#ffffff" stroke="transparent" points="571,-694 571,-716 736,-716 736,-694 571,-694"/>
<polygon fill="none" stroke="black" points="571,-694 571,-716 736,-716 736,-694 571,-694"/>
<text text-anchor="start" x="591" y="-702.2" font-family="Helvetica,sans-Serif" font-size="11.00">ad_client_id</text>
<polygon fill="none" stroke="black" points="736,-694 736,-716 819,-716 819,-694 736,-694"/>
<text text-anchor="start" x="739" y="-702.2" font-family="Helvetica,sans-Serif" font-size="11.00">numeric[10]</text>
<polygon fill="#ffffff" stroke="transparent" points="571,-672 571,-694 736,-694 736,-672 571,-672"/>
<polygon fill="none" stroke="black" points="571,-672 571,-694 736,-694 736,-672 571,-672"/>
<text text-anchor="start" x="591" y="-680.2" font-family="Helvetica,sans-Serif" font-size="11.00">ad_org_id</text>
<polygon fill="none" stroke="black" points="736,-672 736,-694 819,-694 819,-672 736,-672"/>
<text text-anchor="start" x="739" y="-680.2" font-family="Helvetica,sans-Serif" font-size="11.00">numeric[10]</text>
<polygon fill="none" stroke="black" points="571,-650 571,-672 736,-672 736,-650 571,-650"/>
<text text-anchor="start" x="591" y="-658.2" font-family="Helvetica,sans-Serif" font-size="11.00">isactive</text>
<polygon fill="none" stroke="black" points="736,-650 736,-672 819,-672 819,-650 736,-650"/>
<text text-anchor="start" x="739" y="-658.2" font-family="Helvetica,sans-Serif" font-size="11.00">bpchar[1]</text>
<polygon fill="none" stroke="black" points="571,-628 571,-650 736,-650 736,-628 571,-628"/>
<text text-anchor="start" x="591" y="-636.2" font-family="Helvetica,sans-Serif" font-size="11.00">created</text>
<polygon fill="none" stroke="black" points="736,-628 736,-650 819,-650 819,-628 736,-628"/>
<text text-anchor="start" x="739" y="-636.2" font-family="Helvetica,sans-Serif" font-size="11.00">timestamp[29,6]</text>
<polygon fill="none" stroke="black" points="571,-606 571,-628 736,-628 736,-606 571,-606"/>
<text text-anchor="start" x="591" y="-614.2" font-family="Helvetica,sans-Serif" font-size="11.00">createdby</text>
<polygon fill="none" stroke="black" points="736,-606 736,-628 819,-628 819,-606 736,-606"/>
<text text-anchor="start" x="739" y="-614.2" font-family="Helvetica,sans-Serif" font-size="11.00">numeric[10]</text>
<polygon fill="none" stroke="black" points="571,-584 571,-606 736,-606 736,-584 571,-584"/>
<text text-anchor="start" x="591" y="-592.2" font-family="Helvetica,sans-Serif" font-size="11.00">updated</text>
<polygon fill="none" stroke="black" points="736,-584 736,-606 819,-606 819,-584 736,-584"/>
<text text-anchor="start" x="739" y="-592.2" font-family="Helvetica,sans-Serif" font-size="11.00">timestamp[29,6]</text>
<polygon fill="none" stroke="black" points="571,-562 571,-584 736,-584 736,-562 571,-562"/>
<text text-anchor="start" x="591" y="-570.2" font-family="Helvetica,sans-Serif" font-size="11.00">updatedby</text>
<polygon fill="none" stroke="black" points="736,-562 736,-584 819,-584 819,-562 736,-562"/>
<text text-anchor="start" x="739" y="-570.2" font-family="Helvetica,sans-Serif" font-size="11.00">numeric[10]</text>
<polygon fill="none" stroke="black" points="571,-540 571,-562 736,-562 736,-540 571,-540"/>
<image xlink:href="../../images/foreignKeys.png" width="11px" height="12px" preserveAspectRatio="xMinYMin meet" x="576" y="-557"/>
<text text-anchor="start" x="591" y="-548.2" font-family="Helvetica,sans-Serif" font-size="11.00">ad_role_id</text>
<polygon fill="none" stroke="black" points="736,-540 736,-562 819,-562 819,-540 736,-540"/>
<text text-anchor="start" x="739" y="-548.2" font-family="Helvetica,sans-Serif" font-size="11.00">numeric[10]</text>
<polygon fill="none" stroke="black" points="571,-518 571,-540 736,-540 736,-518 571,-518"/>
<image xlink:href="../../images/foreignKeys.png" width="11px" height="12px" preserveAspectRatio="xMinYMin meet" x="576" y="-535"/>
<text text-anchor="start" x="591" y="-526.2" font-family="Helvetica,sans-Serif" font-size="11.00">ad_user_id</text>
<polygon fill="none" stroke="black" points="736,-518 736,-540 819,-540 819,-518 736,-518"/>
<text text-anchor="start" x="739" y="-526.2" font-family="Helvetica,sans-Serif" font-size="11.00">numeric[10]</text>
<polygon fill="none" stroke="black" points="571,-496 571,-518 736,-518 736,-496 571,-496"/>
<text text-anchor="start" x="591" y="-504.2" font-family="Helvetica,sans-Serif" font-size="11.00">name</text>
<polygon fill="none" stroke="black" points="736,-496 736,-518 819,-518 819,-496 736,-496"/>
<text text-anchor="start" x="739" y="-504.2" font-family="Helvetica,sans-Serif" font-size="11.00">varchar[60]</text>
<polygon fill="none" stroke="black" points="571,-474 571,-496 736,-496 736,-474 571,-474"/>
<text text-anchor="start" x="591" y="-482.2" font-family="Helvetica,sans-Serif" font-size="11.00">description</text>
<polygon fill="none" stroke="black" points="736,-474 736,-496 819,-496 819,-474 736,-474"/>
<text text-anchor="start" x="739" y="-482.2" font-family="Helvetica,sans-Serif" font-size="11.00">varchar[255]</text>
<polygon fill="none" stroke="black" points="571,-452 571,-474 736,-474 736,-452 571,-452"/>
<text text-anchor="start" x="591" y="-460.2" font-family="Helvetica,sans-Serif" font-size="11.00">help</text>
<polygon fill="none" stroke="black" points="736,-452 736,-474 819,-474 819,-452 736,-452"/>
<text text-anchor="start" x="739" y="-460.2" font-family="Helvetica,sans-Serif" font-size="11.00">varchar[2000]</text>
<polygon fill="none" stroke="black" points="571,-430 571,-452 736,-452 736,-430 571,-430"/>
<image xlink:href="../../images/foreignKeys.png" width="11px" height="12px" preserveAspectRatio="xMinYMin meet" x="576" y="-447"/>
<text text-anchor="start" x="591" y="-438.2" font-family="Helvetica,sans-Serif" font-size="11.00">ad_language</text>
<polygon fill="none" stroke="black" points="736,-430 736,-452 819,-452 819,-430 736,-430"/>
<text text-anchor="start" x="739" y="-438.2" font-family="Helvetica,sans-Serif" font-size="11.00">varchar[6]</text>
<polygon fill="none" stroke="black" points="571,-408 571,-430 736,-430 736,-408 571,-408"/>
<text text-anchor="start" x="591" y="-416.2" font-family="Helvetica,sans-Serif" font-size="11.00">isuserupdateable</text>
<polygon fill="none" stroke="black" points="736,-408 736,-430 819,-430 819,-408 736,-408"/>
<text text-anchor="start" x="739" y="-416.2" font-family="Helvetica,sans-Serif" font-size="11.00">bpchar[1]</text>
<polygon fill="#ffffff" stroke="transparent" points="571,-386 571,-408 736,-408 736,-386 571,-386"/>
<polygon fill="none" stroke="black" points="571,-386 571,-408 736,-408 736,-386 571,-386"/>
<image xlink:href="../../images/foreignKeys.png" width="11px" height="12px" preserveAspectRatio="xMinYMin meet" x="576" y="-403"/>
<text text-anchor="start" x="591" y="-394.2" font-family="Helvetica,sans-Serif" font-size="11.00">ad_process_id</text>
<polygon fill="none" stroke="black" points="736,-386 736,-408 819,-408 819,-386 736,-386"/>
<text text-anchor="start" x="739" y="-394.2" font-family="Helvetica,sans-Serif" font-size="11.00">numeric[10]</text>
<polygon fill="#ffffff" stroke="transparent" points="571,-368 571,-386 819,-386 819,-368 571,-368"/>
<polygon fill="none" stroke="black" points="571,-368 571,-386 819,-386 819,-368 571,-368"/>
<polygon fill="#ffffff" stroke="transparent" points="572,-369 572,-385 657,-385 657,-369 572,-369"/>
<text text-anchor="start" x="574" y="-374.2" font-family="Helvetica,sans-Serif" font-size="11.00">&lt; 4</text>
<polygon fill="#ffffff" stroke="transparent" points="657,-369 657,-385 733,-385 733,-369 657,-369"/>
<text text-anchor="start" x="691.5" y="-374.2" font-family="Helvetica,sans-Serif" font-size="11.00"> &#160;</text>
<polygon fill="#ffffff" stroke="transparent" points="733,-369 733,-385 818,-385 818,-369 733,-369"/>
<text text-anchor="start" x="800" y="-374.2" font-family="Helvetica,sans-Serif" font-size="11.00">1 &gt;</text>
<polygon fill="black" stroke="black" points="657,-369 657,-385 657,-385 657,-369 657,-369"/>
<polygon fill="black" stroke="black" points="733,-369 733,-385 733,-385 733,-369 733,-369"/>
<polygon fill="none" stroke="black" stroke-width="2" points="570,-367 570,-783 820,-783 820,-367 570,-367"/>
</a>
</g>
</g>
<!-- ad_userdef_proc&#45;&gt;ad_role -->
<g id="edge4" class="edge">
<title>ad_userdef_proc:w&#45;&gt;ad_role:e</title>
<path fill="none" stroke="black" d="M555.47,-553.38C499.26,-575.14 602.06,-739 521.5,-739"/>
<polygon fill="black" stroke="black" points="562.1,-552.29 570.58,-554.55 566.05,-551.65 570,-551 570,-551 570,-551 566.05,-551.65 569.42,-547.45 562.1,-552.29 562.1,-552.29"/>
<ellipse fill="none" stroke="black" cx="558.95" cy="-552.81" rx="3.2" ry="3.2"/>
</g>
<!-- ad_userdef_proc&#45;&gt;ad_user -->
<g id="edge5" class="edge">
<title>ad_userdef_proc:w&#45;&gt;ad_user:e</title>
<path fill="none" stroke="black" d="M555.39,-528.77C441.66,-525.09 398.92,-480.13 289,-528 265.07,-538.42 275.1,-571 249,-571"/>
<polygon fill="black" stroke="black" points="562,-528.87 569.94,-532.6 566,-528.94 570,-529 570,-529 570,-529 566,-528.94 570.06,-525.4 562,-528.87 562,-528.87"/>
<ellipse fill="none" stroke="black" cx="558.8" cy="-528.82" rx="3.2" ry="3.2"/>
</g>
<!-- ad_language -->
<g id="node4" class="node">
<title>ad_language</title>
<g id="a_node4"><a xlink:href="../../tables/ad_language.html" xlink:title="ad_language" target="_top">
<polygon fill="#ffffff" stroke="transparent" points="332,-292 332,-482 485,-482 485,-292 332,-292"/>
<polygon fill="#f5f5f5" stroke="transparent" points="332.5,-460 332.5,-482 485.5,-482 485.5,-460 332.5,-460"/>
<polygon fill="none" stroke="black" points="332.5,-460 332.5,-482 485.5,-482 485.5,-460 332.5,-460"/>
<text text-anchor="start" x="337.5" y="-469.2" font-family="Helvetica,sans-Serif" font-weight="bold" font-size="11.00">ad_language</text>
<text text-anchor="start" x="450.5" y="-468.2" font-family="Helvetica,sans-Serif" font-size="11.00">[table]</text>
<polygon fill="none" stroke="black" points="332.5,-438 332.5,-460 485.5,-460 485.5,-438 332.5,-438"/>
<image xlink:href="../../images/primaryKeys.png" width="11px" height="12px" preserveAspectRatio="xMinYMin meet" x="337.5" y="-455"/>
<text text-anchor="start" x="352.5" y="-446.2" font-family="Helvetica,sans-Serif" font-size="11.00">ad_language</text>
<polygon fill="none" stroke="black" points="332.5,-416 332.5,-438 485.5,-438 485.5,-416 332.5,-416"/>
<image xlink:href="../../images/foreignKeys.png" width="11px" height="12px" preserveAspectRatio="xMinYMin meet" x="337.5" y="-433"/>
<text text-anchor="start" x="352.5" y="-424.2" font-family="Helvetica,sans-Serif" font-size="11.00">ad_client_id</text>
<polygon fill="none" stroke="black" points="332.5,-394 332.5,-416 485.5,-416 485.5,-394 332.5,-394"/>
<image xlink:href="../../images/foreignKeys.png" width="11px" height="12px" preserveAspectRatio="xMinYMin meet" x="337.5" y="-411"/>
<text text-anchor="start" x="352.5" y="-402.2" font-family="Helvetica,sans-Serif" font-size="11.00">ad_org_id</text>
<polygon fill="#ffffff" stroke="transparent" points="332.5,-372 332.5,-394 485.5,-394 485.5,-372 332.5,-372"/>
<polygon fill="none" stroke="black" points="332.5,-372 332.5,-394 485.5,-394 485.5,-372 332.5,-372"/>
<text text-anchor="start" x="352.5" y="-380.2" font-family="Helvetica,sans-Serif" font-size="11.00">ad_language_id</text>
<polygon fill="#ffffff" stroke="transparent" points="332.5,-350 332.5,-372 485.5,-372 485.5,-350 332.5,-350"/>
<polygon fill="none" stroke="black" points="332.5,-350 332.5,-372 485.5,-372 485.5,-350 332.5,-350"/>
<text text-anchor="start" x="352.5" y="-358.2" font-family="Helvetica,sans-Serif" font-size="11.00">ad_language_uu</text>
<polygon fill="none" stroke="black" points="332.5,-328 332.5,-350 485.5,-350 485.5,-328 332.5,-328"/>
<image xlink:href="../../images/foreignKeys.png" width="11px" height="12px" preserveAspectRatio="xMinYMin meet" x="337.5" y="-345"/>
<text text-anchor="start" x="352.5" y="-336.2" font-family="Helvetica,sans-Serif" font-size="11.00">ad_printpaper_id</text>
<polygon fill="none" stroke="black" points="332.5,-310 332.5,-328 485.5,-328 485.5,-310 332.5,-310"/>
<text text-anchor="start" x="335.5" y="-316.2" font-family="Helvetica,sans-Serif" font-size="11.00">...</text>
<polygon fill="#ffffff" stroke="transparent" points="332.5,-292 332.5,-310 485.5,-310 485.5,-292 332.5,-292"/>
<polygon fill="none" stroke="black" points="332.5,-292 332.5,-310 485.5,-310 485.5,-292 332.5,-292"/>
<polygon fill="#ffffff" stroke="transparent" points="333.5,-293 333.5,-309 372.5,-309 372.5,-293 333.5,-293"/>
<text text-anchor="start" x="335.5" y="-298.2" font-family="Helvetica,sans-Serif" font-size="11.00">&lt; 3</text>
<polygon fill="#ffffff" stroke="transparent" points="372.5,-293 372.5,-309 440.5,-309 440.5,-293 372.5,-293"/>
<text text-anchor="start" x="384" y="-298.2" font-family="Helvetica,sans-Serif" font-size="11.00">109 rows</text>
<polygon fill="#ffffff" stroke="transparent" points="440.5,-293 440.5,-309 484.5,-309 484.5,-293 440.5,-293"/>
<text text-anchor="start" x="460.5" y="-298.2" font-family="Helvetica,sans-Serif" font-size="11.00">88 &gt;</text>
<polygon fill="black" stroke="black" points="372.5,-293 372.5,-309 372.5,-309 372.5,-293 372.5,-293"/>
<polygon fill="black" stroke="black" points="440.5,-293 440.5,-309 440.5,-309 440.5,-293 440.5,-293"/>
</a>
</g>
</g>
<!-- ad_userdef_proc&#45;&gt;ad_language -->
<g id="edge2" class="edge">
<title>ad_userdef_proc:w&#45;&gt;ad_language:e</title>
<path fill="none" stroke="black" d="M555.44,-441.45C529.54,-443.15 518.39,-449 486.5,-449"/>
<polygon fill="black" stroke="black" points="562,-441.25 570.11,-444.6 566,-441.12 570,-441 570,-441 570,-441 566,-441.12 569.89,-437.4 562,-441.25 562,-441.25"/>
<ellipse fill="none" stroke="black" cx="558.81" cy="-441.35" rx="3.2" ry="3.2"/>
</g>
<!-- ad_process -->
<g id="node5" class="node">
<title>ad_process</title>
<g id="a_node5"><a xlink:href="../../tables/ad_process.html" xlink:title="ad_process" target="_top">
<polygon fill="#ffffff" stroke="transparent" points="313,-37 313,-271 504,-271 504,-37 313,-37"/>
<polygon fill="#f5f5f5" stroke="transparent" points="313.5,-249 313.5,-271 504.5,-271 504.5,-249 313.5,-249"/>
<polygon fill="none" stroke="black" points="313.5,-249 313.5,-271 504.5,-271 504.5,-249 313.5,-249"/>
<text text-anchor="start" x="318.5" y="-258.2" font-family="Helvetica,sans-Serif" font-weight="bold" font-size="11.00">ad_process</text>
<text text-anchor="start" x="469.5" y="-257.2" font-family="Helvetica,sans-Serif" font-size="11.00">[table]</text>
<polygon fill="none" stroke="black" points="313.5,-227 313.5,-249 504.5,-249 504.5,-227 313.5,-227"/>
<image xlink:href="../../images/primaryKeys.png" width="11px" height="12px" preserveAspectRatio="xMinYMin meet" x="318.5" y="-244"/>
<text text-anchor="start" x="333.5" y="-235.2" font-family="Helvetica,sans-Serif" font-size="11.00">ad_process_id</text>
<polygon fill="none" stroke="black" points="313.5,-205 313.5,-227 504.5,-227 504.5,-205 313.5,-205"/>
<image xlink:href="../../images/foreignKeys.png" width="11px" height="12px" preserveAspectRatio="xMinYMin meet" x="318.5" y="-222"/>
<text text-anchor="start" x="333.5" y="-213.2" font-family="Helvetica,sans-Serif" font-size="11.00">entitytype</text>
<polygon fill="none" stroke="black" points="313.5,-183 313.5,-205 504.5,-205 504.5,-183 313.5,-183"/>
<image xlink:href="../../images/foreignKeys.png" width="11px" height="12px" preserveAspectRatio="xMinYMin meet" x="318.5" y="-200"/>
<text text-anchor="start" x="333.5" y="-191.2" font-family="Helvetica,sans-Serif" font-size="11.00">ad_reportview_id</text>
<polygon fill="none" stroke="black" points="313.5,-161 313.5,-183 504.5,-183 504.5,-161 313.5,-161"/>
<image xlink:href="../../images/foreignKeys.png" width="11px" height="12px" preserveAspectRatio="xMinYMin meet" x="318.5" y="-178"/>
<text text-anchor="start" x="333.5" y="-169.2" font-family="Helvetica,sans-Serif" font-size="11.00">ad_printformat_id</text>
<polygon fill="none" stroke="black" points="313.5,-139 313.5,-161 504.5,-161 504.5,-139 313.5,-139"/>
<image xlink:href="../../images/foreignKeys.png" width="11px" height="12px" preserveAspectRatio="xMinYMin meet" x="318.5" y="-156"/>
<text text-anchor="start" x="333.5" y="-147.2" font-family="Helvetica,sans-Serif" font-size="11.00">ad_workflow_id</text>
<polygon fill="none" stroke="black" points="313.5,-117 313.5,-139 504.5,-139 504.5,-117 313.5,-117"/>
<image xlink:href="../../images/foreignKeys.png" width="11px" height="12px" preserveAspectRatio="xMinYMin meet" x="318.5" y="-134"/>
<text text-anchor="start" x="333.5" y="-125.2" font-family="Helvetica,sans-Serif" font-size="11.00">ad_form_id</text>
<polygon fill="#ffffff" stroke="transparent" points="313.5,-95 313.5,-117 504.5,-117 504.5,-95 313.5,-95"/>
<polygon fill="none" stroke="black" points="313.5,-95 313.5,-117 504.5,-117 504.5,-95 313.5,-95"/>
<text text-anchor="start" x="333.5" y="-103.2" font-family="Helvetica,sans-Serif" font-size="11.00">ad_process_uu</text>
<polygon fill="none" stroke="black" points="313.5,-73 313.5,-95 504.5,-95 504.5,-73 313.5,-73"/>
<image xlink:href="../../images/foreignKeys.png" width="11px" height="12px" preserveAspectRatio="xMinYMin meet" x="318.5" y="-90"/>
<text text-anchor="start" x="333.5" y="-81.2" font-family="Helvetica,sans-Serif" font-size="11.00">ad_ctxhelp_id</text>
<polygon fill="none" stroke="black" points="313.5,-55 313.5,-73 504.5,-73 504.5,-55 313.5,-55"/>
<text text-anchor="start" x="316.5" y="-61.2" font-family="Helvetica,sans-Serif" font-size="11.00">...</text>
<polygon fill="#ffffff" stroke="transparent" points="313.5,-37 313.5,-55 504.5,-55 504.5,-37 313.5,-37"/>
<polygon fill="none" stroke="black" points="313.5,-37 313.5,-55 504.5,-55 504.5,-37 313.5,-37"/>
<polygon fill="#ffffff" stroke="transparent" points="314.5,-38 314.5,-54 366.5,-54 366.5,-38 314.5,-38"/>
<text text-anchor="start" x="316.5" y="-43.2" font-family="Helvetica,sans-Serif" font-size="11.00">&lt; 6</text>
<polygon fill="#ffffff" stroke="transparent" points="366.5,-38 366.5,-54 446.5,-54 446.5,-38 366.5,-38"/>
<text text-anchor="start" x="384" y="-43.2" font-family="Helvetica,sans-Serif" font-size="11.00">957 rows</text>
<polygon fill="#ffffff" stroke="transparent" points="446.5,-38 446.5,-54 503.5,-54 503.5,-38 446.5,-38"/>
<text text-anchor="start" x="479.5" y="-43.2" font-family="Helvetica,sans-Serif" font-size="11.00">28 &gt;</text>
<polygon fill="black" stroke="black" points="366.5,-38 366.5,-54 366.5,-54 366.5,-38 366.5,-38"/>
<polygon fill="black" stroke="black" points="446.5,-38 446.5,-54 446.5,-54 446.5,-38 446.5,-38"/>
</a>
</g>
</g>
<!-- ad_userdef_proc&#45;&gt;ad_process -->
<g id="edge3" class="edge">
<title>ad_userdef_proc:w&#45;&gt;ad_process:e</title>
<path fill="none" stroke="black" d="M555.6,-394.5C505.9,-374.27 576.1,-238 505.5,-238"/>
<polygon fill="black" stroke="black" points="562.12,-395.63 569.38,-400.55 566.06,-396.32 570,-397 570,-397 570,-397 566.06,-396.32 570.62,-393.45 562.12,-395.63 562.12,-395.63"/>
<ellipse fill="none" stroke="black" cx="558.96" cy="-395.09" rx="3.2" ry="3.2"/>
</g>
<!-- ad_userdef_proc_parameter -->
<g id="node6" class="node">
<title>ad_userdef_proc_parameter</title>
<g id="a_node6"><a xlink:href="../../tables/ad_userdef_proc_parameter.html" xlink:title="ad_userdef_proc_parameter" target="_top">
<polygon fill="#ffffff" stroke="transparent" points="870,-592 870,-826 1119,-826 1119,-592 870,-592"/>
<polygon fill="#f5f5f5" stroke="transparent" points="870.5,-804 870.5,-826 1119.5,-826 1119.5,-804 870.5,-804"/>
<polygon fill="none" stroke="black" points="870.5,-804 870.5,-826 1119.5,-826 1119.5,-804 870.5,-804"/>
<text text-anchor="start" x="875.5" y="-813.2" font-family="Helvetica,sans-Serif" font-weight="bold" font-size="11.00">ad_userdef_proc_parameter</text>
<text text-anchor="start" x="1084.5" y="-812.2" font-family="Helvetica,sans-Serif" font-size="11.00">[table]</text>
<polygon fill="none" stroke="black" points="870.5,-782 870.5,-804 1119.5,-804 1119.5,-782 870.5,-782"/>
<image xlink:href="../../images/primaryKeys.png" width="11px" height="12px" preserveAspectRatio="xMinYMin meet" x="875.5" y="-799"/>
<text text-anchor="start" x="890.5" y="-790.2" font-family="Helvetica,sans-Serif" font-size="11.00">ad_userdef_proc_parameter_id</text>
<polygon fill="#ffffff" stroke="transparent" points="870.5,-760 870.5,-782 1119.5,-782 1119.5,-760 870.5,-760"/>
<polygon fill="none" stroke="black" points="870.5,-760 870.5,-782 1119.5,-782 1119.5,-760 870.5,-760"/>
<text text-anchor="start" x="890.5" y="-768.2" font-family="Helvetica,sans-Serif" font-size="11.00">ad_userdef_proc_parameter_uu</text>
<polygon fill="#ffffff" stroke="transparent" points="870.5,-738 870.5,-760 1119.5,-760 1119.5,-738 870.5,-738"/>
<polygon fill="none" stroke="black" points="870.5,-738 870.5,-760 1119.5,-760 1119.5,-738 870.5,-738"/>
<image xlink:href="../../images/foreignKeys.png" width="11px" height="12px" preserveAspectRatio="xMinYMin meet" x="875.5" y="-755"/>
<text text-anchor="start" x="890.5" y="-746.2" font-family="Helvetica,sans-Serif" font-size="11.00">ad_userdef_proc_id</text>
<polygon fill="#ffffff" stroke="transparent" points="870.5,-716 870.5,-738 1119.5,-738 1119.5,-716 870.5,-716"/>
<polygon fill="none" stroke="black" points="870.5,-716 870.5,-738 1119.5,-738 1119.5,-716 870.5,-716"/>
<image xlink:href="../../images/foreignKeys.png" width="11px" height="12px" preserveAspectRatio="xMinYMin meet" x="875.5" y="-733"/>
<text text-anchor="start" x="890.5" y="-724.2" font-family="Helvetica,sans-Serif" font-size="11.00">ad_process_para_id</text>
<polygon fill="none" stroke="black" points="870.5,-694 870.5,-716 1119.5,-716 1119.5,-694 870.5,-694"/>
<image xlink:href="../../images/foreignKeys.png" width="11px" height="12px" preserveAspectRatio="xMinYMin meet" x="875.5" y="-711"/>
<text text-anchor="start" x="890.5" y="-702.2" font-family="Helvetica,sans-Serif" font-size="11.00">ad_reference_id</text>
<polygon fill="none" stroke="black" points="870.5,-672 870.5,-694 1119.5,-694 1119.5,-672 870.5,-672"/>
<image xlink:href="../../images/foreignKeys.png" width="11px" height="12px" preserveAspectRatio="xMinYMin meet" x="875.5" y="-689"/>
<text text-anchor="start" x="890.5" y="-680.2" font-family="Helvetica,sans-Serif" font-size="11.00">ad_reference_value_id</text>
<polygon fill="none" stroke="black" points="870.5,-650 870.5,-672 1119.5,-672 1119.5,-650 870.5,-650"/>
<image xlink:href="../../images/foreignKeys.png" width="11px" height="12px" preserveAspectRatio="xMinYMin meet" x="875.5" y="-667"/>
<text text-anchor="start" x="890.5" y="-658.2" font-family="Helvetica,sans-Serif" font-size="11.00">ad_val_rule_id</text>
<polygon fill="none" stroke="black" points="870.5,-628 870.5,-650 1119.5,-650 1119.5,-628 870.5,-628"/>
<image xlink:href="../../images/foreignKeys.png" width="11px" height="12px" preserveAspectRatio="xMinYMin meet" x="875.5" y="-645"/>
<text text-anchor="start" x="890.5" y="-636.2" font-family="Helvetica,sans-Serif" font-size="11.00">ad_fieldgroup_id</text>
<polygon fill="none" stroke="black" points="870.5,-610 870.5,-628 1119.5,-628 1119.5,-610 870.5,-610"/>
<text text-anchor="start" x="873.5" y="-616.2" font-family="Helvetica,sans-Serif" font-size="11.00">...</text>
<polygon fill="#ffffff" stroke="transparent" points="870.5,-592 870.5,-610 1119.5,-610 1119.5,-592 870.5,-592"/>
<polygon fill="none" stroke="black" points="870.5,-592 870.5,-610 1119.5,-610 1119.5,-592 870.5,-592"/>
<polygon fill="#ffffff" stroke="transparent" points="871.5,-593 871.5,-609 960.5,-609 960.5,-593 871.5,-593"/>
<text text-anchor="start" x="873.5" y="-598.2" font-family="Helvetica,sans-Serif" font-size="11.00">&lt; 6</text>
<polygon fill="#ffffff" stroke="transparent" points="960.5,-593 960.5,-609 1039.5,-609 1039.5,-593 960.5,-593"/>
<text text-anchor="start" x="996.5" y="-598.2" font-family="Helvetica,sans-Serif" font-size="11.00"> &#160;</text>
<polygon fill="#ffffff" stroke="transparent" points="1039.5,-593 1039.5,-609 1118.5,-609 1118.5,-593 1039.5,-593"/>
<text text-anchor="start" x="1109.5" y="-598.2" font-family="Helvetica,sans-Serif" font-size="11.00"> &#160;</text>
<polygon fill="black" stroke="black" points="960.5,-593 960.5,-609 960.5,-609 960.5,-593 960.5,-593"/>
<polygon fill="black" stroke="black" points="1039.5,-593 1039.5,-609 1039.5,-609 1039.5,-593 1039.5,-593"/>
</a>
</g>
</g>
<!-- ad_userdef_proc_parameter&#45;&gt;ad_userdef_proc -->
<g id="edge6" class="edge">
<title>ad_userdef_proc_parameter:w&#45;&gt;ad_userdef_proc:e</title>
<path fill="none" stroke="black" d="M854.84,-749C843.41,-749 836.16,-749 820,-749"/>
<polygon fill="black" stroke="black" points="861.5,-749 869.5,-752.6 865.5,-749 869.5,-749 869.5,-749 869.5,-749 865.5,-749 869.5,-745.4 861.5,-749 861.5,-749"/>
<ellipse fill="none" stroke="black" cx="858.3" cy="-749" rx="3.2" ry="3.2"/>
</g>
</g>
</svg>
