<?xml version="1.0" encoding="UTF-8" standalone="no"?>
<!DOCTYPE svg PUBLIC "-//W3C//DTD SVG 1.1//EN"
 "http://www.w3.org/Graphics/SVG/1.1/DTD/svg11.dtd">
<!-- Generated by graphviz version 2.43.0 (0)
 -->
<!-- Title: oneDegreeRelationshipsDiagram Pages: 1 -->
<svg width="984pt" height="615pt"
 viewBox="0.00 0.00 984.00 615.46" xmlns="http://www.w3.org/2000/svg" xmlns:xlink="http://www.w3.org/1999/xlink">
<g id="graph0" class="graph" transform="scale(1 1) rotate(0) translate(4 611.46)">
<title>oneDegreeRelationshipsDiagram</title>
<polygon fill="#ffffff" stroke="transparent" points="-4,4 -4,-611.46 980,-611.46 980,4 -4,4"/>
<text text-anchor="middle" x="71.5" y="-7.2" font-family="Helvetica,sans-Serif" font-size="11.00">Generated by SchemaSpy</text>
<!-- ad_table -->
<g id="node1" class="node">
<title>ad_table</title>
<g id="a_node1"><a xlink:href="../../tables/ad_table.html" xlink:title="ad_table" target="_top">
<polygon fill="#ffffff" stroke="transparent" points="203,-106.46 203,-340.46 416,-340.46 416,-106.46 203,-106.46"/>
<polygon fill="#f5f5f5" stroke="transparent" points="203.5,-318.46 203.5,-340.46 416.5,-340.46 416.5,-318.46 203.5,-318.46"/>
<polygon fill="none" stroke="black" points="203.5,-318.46 203.5,-340.46 416.5,-340.46 416.5,-318.46 203.5,-318.46"/>
<text text-anchor="start" x="208.5" y="-327.66" font-family="Helvetica,sans-Serif" font-weight="bold" font-size="11.00">ad_table</text>
<text text-anchor="start" x="381.5" y="-326.66" font-family="Helvetica,sans-Serif" font-size="11.00">[table]</text>
<polygon fill="none" stroke="black" points="203.5,-296.46 203.5,-318.46 416.5,-318.46 416.5,-296.46 203.5,-296.46"/>
<image xlink:href="../../images/primaryKeys.png" width="11px" height="12px" preserveAspectRatio="xMinYMin meet" x="208.5" y="-313.463"/>
<text text-anchor="start" x="223.5" y="-304.66" font-family="Helvetica,sans-Serif" font-size="11.00">ad_table_id</text>
<polygon fill="none" stroke="black" points="203.5,-274.46 203.5,-296.46 416.5,-296.46 416.5,-274.46 203.5,-274.46"/>
<image xlink:href="../../images/foreignKeys.png" width="11px" height="12px" preserveAspectRatio="xMinYMin meet" x="208.5" y="-291.463"/>
<text text-anchor="start" x="223.5" y="-282.66" font-family="Helvetica,sans-Serif" font-size="11.00">ad_client_id</text>
<polygon fill="none" stroke="black" points="203.5,-252.46 203.5,-274.46 416.5,-274.46 416.5,-252.46 203.5,-252.46"/>
<image xlink:href="../../images/foreignKeys.png" width="11px" height="12px" preserveAspectRatio="xMinYMin meet" x="208.5" y="-269.463"/>
<text text-anchor="start" x="223.5" y="-260.66" font-family="Helvetica,sans-Serif" font-size="11.00">ad_org_id</text>
<polygon fill="none" stroke="black" points="203.5,-230.46 203.5,-252.46 416.5,-252.46 416.5,-230.46 203.5,-230.46"/>
<image xlink:href="../../images/foreignKeys.png" width="11px" height="12px" preserveAspectRatio="xMinYMin meet" x="208.5" y="-247.463"/>
<text text-anchor="start" x="223.5" y="-238.66" font-family="Helvetica,sans-Serif" font-size="11.00">entitytype</text>
<polygon fill="none" stroke="black" points="203.5,-208.46 203.5,-230.46 416.5,-230.46 416.5,-208.46 203.5,-208.46"/>
<image xlink:href="../../images/foreignKeys.png" width="11px" height="12px" preserveAspectRatio="xMinYMin meet" x="208.5" y="-225.463"/>
<text text-anchor="start" x="223.5" y="-216.66" font-family="Helvetica,sans-Serif" font-size="11.00">ad_window_id</text>
<polygon fill="none" stroke="black" points="203.5,-186.46 203.5,-208.46 416.5,-208.46 416.5,-186.46 203.5,-186.46"/>
<image xlink:href="../../images/foreignKeys.png" width="11px" height="12px" preserveAspectRatio="xMinYMin meet" x="208.5" y="-203.463"/>
<text text-anchor="start" x="223.5" y="-194.66" font-family="Helvetica,sans-Serif" font-size="11.00">ad_val_rule_id</text>
<polygon fill="none" stroke="black" points="203.5,-164.46 203.5,-186.46 416.5,-186.46 416.5,-164.46 203.5,-164.46"/>
<image xlink:href="../../images/foreignKeys.png" width="11px" height="12px" preserveAspectRatio="xMinYMin meet" x="208.5" y="-181.463"/>
<text text-anchor="start" x="223.5" y="-172.66" font-family="Helvetica,sans-Serif" font-size="11.00">po_window_id</text>
<polygon fill="#ffffff" stroke="transparent" points="203.5,-142.46 203.5,-164.46 416.5,-164.46 416.5,-142.46 203.5,-142.46"/>
<polygon fill="none" stroke="black" points="203.5,-142.46 203.5,-164.46 416.5,-164.46 416.5,-142.46 203.5,-142.46"/>
<text text-anchor="start" x="223.5" y="-150.66" font-family="Helvetica,sans-Serif" font-size="11.00">ad_table_uu</text>
<polygon fill="none" stroke="black" points="203.5,-124.46 203.5,-142.46 416.5,-142.46 416.5,-124.46 203.5,-124.46"/>
<text text-anchor="start" x="206.5" y="-130.66" font-family="Helvetica,sans-Serif" font-size="11.00">...</text>
<polygon fill="#ffffff" stroke="transparent" points="203.5,-106.46 203.5,-124.46 416.5,-124.46 416.5,-106.46 203.5,-106.46"/>
<polygon fill="none" stroke="black" points="203.5,-106.46 203.5,-124.46 416.5,-124.46 416.5,-106.46 203.5,-106.46"/>
<polygon fill="#ffffff" stroke="transparent" points="204.5,-107.46 204.5,-123.46 260.5,-123.46 260.5,-107.46 204.5,-107.46"/>
<text text-anchor="start" x="206.5" y="-112.66" font-family="Helvetica,sans-Serif" font-size="11.00">&lt; 6</text>
<polygon fill="#ffffff" stroke="transparent" points="260.5,-107.46 260.5,-123.46 354.5,-123.46 354.5,-107.46 260.5,-107.46"/>
<text text-anchor="start" x="280.5" y="-112.66" font-family="Helvetica,sans-Serif" font-size="11.00">1.443 rows</text>
<polygon fill="#ffffff" stroke="transparent" points="354.5,-107.46 354.5,-123.46 415.5,-123.46 415.5,-107.46 354.5,-107.46"/>
<text text-anchor="start" x="391.5" y="-112.66" font-family="Helvetica,sans-Serif" font-size="11.00">83 &gt;</text>
<polygon fill="black" stroke="black" points="260.5,-107.46 260.5,-123.46 260.5,-123.46 260.5,-107.46 260.5,-107.46"/>
<polygon fill="black" stroke="black" points="354.5,-107.46 354.5,-123.46 354.5,-123.46 354.5,-107.46 354.5,-107.46"/>
</a>
</g>
</g>
<!-- ad_entitytype -->
<g id="node2" class="node">
<title>ad_entitytype</title>
<g id="a_node2"><a xlink:href="../../tables/ad_entitytype.html" xlink:title="ad_entitytype" target="_top">
<polygon fill="#ffffff" stroke="transparent" points="8,-150.46 8,-274.46 154,-274.46 154,-150.46 8,-150.46"/>
<polygon fill="#f5f5f5" stroke="transparent" points="8,-252.46 8,-274.46 154,-274.46 154,-252.46 8,-252.46"/>
<polygon fill="none" stroke="black" points="8,-252.46 8,-274.46 154,-274.46 154,-252.46 8,-252.46"/>
<text text-anchor="start" x="13" y="-261.66" font-family="Helvetica,sans-Serif" font-weight="bold" font-size="11.00">ad_entitytype</text>
<text text-anchor="start" x="119" y="-260.66" font-family="Helvetica,sans-Serif" font-size="11.00">[table]</text>
<polygon fill="none" stroke="black" points="8,-230.46 8,-252.46 154,-252.46 154,-230.46 8,-230.46"/>
<image xlink:href="../../images/primaryKeys.png" width="11px" height="12px" preserveAspectRatio="xMinYMin meet" x="13" y="-247.463"/>
<text text-anchor="start" x="28" y="-238.66" font-family="Helvetica,sans-Serif" font-size="11.00">entitytype</text>
<polygon fill="#ffffff" stroke="transparent" points="8,-208.46 8,-230.46 154,-230.46 154,-208.46 8,-208.46"/>
<polygon fill="none" stroke="black" points="8,-208.46 8,-230.46 154,-230.46 154,-208.46 8,-208.46"/>
<text text-anchor="start" x="28" y="-216.66" font-family="Helvetica,sans-Serif" font-size="11.00">ad_entitytype_id</text>
<polygon fill="#ffffff" stroke="transparent" points="8,-186.46 8,-208.46 154,-208.46 154,-186.46 8,-186.46"/>
<polygon fill="none" stroke="black" points="8,-186.46 8,-208.46 154,-208.46 154,-186.46 8,-186.46"/>
<text text-anchor="start" x="28" y="-194.66" font-family="Helvetica,sans-Serif" font-size="11.00">ad_entitytype_uu</text>
<polygon fill="none" stroke="black" points="8,-168.46 8,-186.46 154,-186.46 154,-168.46 8,-168.46"/>
<text text-anchor="start" x="11" y="-174.66" font-family="Helvetica,sans-Serif" font-size="11.00">...</text>
<polygon fill="#ffffff" stroke="transparent" points="8,-150.46 8,-168.46 154,-168.46 154,-150.46 8,-150.46"/>
<polygon fill="none" stroke="black" points="8,-150.46 8,-168.46 154,-168.46 154,-150.46 8,-150.46"/>
<polygon fill="#ffffff" stroke="transparent" points="9,-151.46 9,-167.46 42,-167.46 42,-151.46 9,-151.46"/>
<text text-anchor="start" x="11" y="-156.66" font-family="Helvetica,sans-Serif" font-size="11.00"> &#160;</text>
<polygon fill="#ffffff" stroke="transparent" points="42,-151.46 42,-167.46 106,-167.46 106,-151.46 42,-151.46"/>
<text text-anchor="start" x="54.5" y="-156.66" font-family="Helvetica,sans-Serif" font-size="11.00">35 rows</text>
<polygon fill="#ffffff" stroke="transparent" points="106,-151.46 106,-167.46 153,-167.46 153,-151.46 106,-151.46"/>
<text text-anchor="start" x="129" y="-156.66" font-family="Helvetica,sans-Serif" font-size="11.00">60 &gt;</text>
<polygon fill="black" stroke="black" points="42,-151.46 42,-167.46 42,-167.46 42,-151.46 42,-151.46"/>
<polygon fill="black" stroke="black" points="106,-151.46 106,-167.46 106,-167.46 106,-151.46 106,-151.46"/>
</a>
</g>
</g>
<!-- ad_table&#45;&gt;ad_entitytype -->
<g id="edge1" class="edge">
<title>ad_table:w&#45;&gt;ad_entitytype:e</title>
<path fill="none" stroke="black" d="M188.09,-241.46C177.32,-241.46 170.34,-241.46 155,-241.46"/>
<polygon fill="black" stroke="black" points="194.5,-241.46 202.5,-245.06 198.5,-241.46 202.5,-241.46 202.5,-241.46 202.5,-241.46 198.5,-241.46 202.5,-237.86 194.5,-241.46 194.5,-241.46"/>
<ellipse fill="none" stroke="black" cx="191.3" cy="-241.46" rx="3.2" ry="3.2"/>
</g>
<!-- ad_viewcolumn -->
<g id="node3" class="node">
<title>ad_viewcolumn</title>
<g id="a_node3"><a xlink:href="../../tables/ad_viewcolumn.html" xlink:title="ad_viewcolumn" target="_top">
<polygon fill="#ffffff" stroke="transparent" points="787,-229.46 787,-375.46 968,-375.46 968,-229.46 787,-229.46"/>
<polygon fill="#f5f5f5" stroke="transparent" points="787.5,-353.46 787.5,-375.46 968.5,-375.46 968.5,-353.46 787.5,-353.46"/>
<polygon fill="none" stroke="black" points="787.5,-353.46 787.5,-375.46 968.5,-375.46 968.5,-353.46 787.5,-353.46"/>
<text text-anchor="start" x="792.5" y="-362.66" font-family="Helvetica,sans-Serif" font-weight="bold" font-size="11.00">ad_viewcolumn</text>
<text text-anchor="start" x="933.5" y="-361.66" font-family="Helvetica,sans-Serif" font-size="11.00">[table]</text>
<polygon fill="none" stroke="black" points="787.5,-331.46 787.5,-353.46 968.5,-353.46 968.5,-331.46 787.5,-331.46"/>
<image xlink:href="../../images/primaryKeys.png" width="11px" height="12px" preserveAspectRatio="xMinYMin meet" x="792.5" y="-348.463"/>
<text text-anchor="start" x="807.5" y="-339.66" font-family="Helvetica,sans-Serif" font-size="11.00">ad_viewcolumn_id</text>
<polygon fill="#ffffff" stroke="transparent" points="787.5,-309.46 787.5,-331.46 968.5,-331.46 968.5,-309.46 787.5,-309.46"/>
<polygon fill="none" stroke="black" points="787.5,-309.46 787.5,-331.46 968.5,-331.46 968.5,-309.46 787.5,-309.46"/>
<text text-anchor="start" x="807.5" y="-317.66" font-family="Helvetica,sans-Serif" font-size="11.00">ad_viewcolumn_uu</text>
<polygon fill="none" stroke="black" points="787.5,-287.46 787.5,-309.46 968.5,-309.46 968.5,-287.46 787.5,-287.46"/>
<image xlink:href="../../images/foreignKeys.png" width="11px" height="12px" preserveAspectRatio="xMinYMin meet" x="792.5" y="-304.463"/>
<text text-anchor="start" x="807.5" y="-295.66" font-family="Helvetica,sans-Serif" font-size="11.00">ad_viewcomponent_id</text>
<polygon fill="none" stroke="black" points="787.5,-265.46 787.5,-287.46 968.5,-287.46 968.5,-265.46 787.5,-265.46"/>
<image xlink:href="../../images/foreignKeys.png" width="11px" height="12px" preserveAspectRatio="xMinYMin meet" x="792.5" y="-282.463"/>
<text text-anchor="start" x="807.5" y="-273.66" font-family="Helvetica,sans-Serif" font-size="11.00">entitytype</text>
<polygon fill="none" stroke="black" points="787.5,-247.46 787.5,-265.46 968.5,-265.46 968.5,-247.46 787.5,-247.46"/>
<text text-anchor="start" x="790.5" y="-253.66" font-family="Helvetica,sans-Serif" font-size="11.00">...</text>
<polygon fill="#ffffff" stroke="transparent" points="787.5,-229.46 787.5,-247.46 968.5,-247.46 968.5,-229.46 787.5,-229.46"/>
<polygon fill="none" stroke="black" points="787.5,-229.46 787.5,-247.46 968.5,-247.46 968.5,-229.46 787.5,-229.46"/>
<polygon fill="#ffffff" stroke="transparent" points="788.5,-230.46 788.5,-246.46 836.5,-246.46 836.5,-230.46 788.5,-230.46"/>
<text text-anchor="start" x="790.5" y="-235.66" font-family="Helvetica,sans-Serif" font-size="11.00">&lt; 2</text>
<polygon fill="#ffffff" stroke="transparent" points="836.5,-230.46 836.5,-246.46 928.5,-246.46 928.5,-230.46 836.5,-230.46"/>
<text text-anchor="start" x="852.5" y="-235.66" font-family="Helvetica,sans-Serif" font-size="11.00">22.554 rows</text>
<polygon fill="#ffffff" stroke="transparent" points="928.5,-230.46 928.5,-246.46 967.5,-246.46 967.5,-230.46 928.5,-230.46"/>
<text text-anchor="start" x="958.5" y="-235.66" font-family="Helvetica,sans-Serif" font-size="11.00"> &#160;</text>
<polygon fill="black" stroke="black" points="836.5,-230.46 836.5,-246.46 836.5,-246.46 836.5,-230.46 836.5,-230.46"/>
<polygon fill="black" stroke="black" points="928.5,-230.46 928.5,-246.46 928.5,-246.46 928.5,-230.46 928.5,-230.46"/>
</a>
</g>
</g>
<!-- ad_viewcolumn&#45;&gt;ad_entitytype -->
<g id="edge3" class="edge">
<title>ad_viewcolumn:w&#45;&gt;ad_entitytype:e</title>
<path fill="none" stroke="black" d="M772.19,-274.83C713.97,-259.31 808.79,-137.28 746,-86.46 650.81,-9.42 291.07,-19.53 195,-95.46 142.22,-137.18 222.28,-241.46 155,-241.46"/>
<polygon fill="black" stroke="black" points="778.55,-275.56 786.09,-280.04 782.53,-276.01 786.5,-276.46 786.5,-276.46 786.5,-276.46 782.53,-276.01 786.91,-272.89 778.55,-275.56 778.55,-275.56"/>
<ellipse fill="none" stroke="black" cx="775.37" cy="-275.19" rx="3.2" ry="3.2"/>
</g>
<!-- ad_viewcomponent -->
<g id="node4" class="node">
<title>ad_viewcomponent</title>
<g id="a_node4"><a xlink:href="../../tables/ad_viewcomponent.html" xlink:title="ad_viewcomponent" target="_top">
<polygon fill="#ffffff" stroke="transparent" points="465,-97.46 465,-603.46 738,-603.46 738,-97.46 465,-97.46"/>
<polygon fill="#f5f5f5" stroke="transparent" points="467.5,-579.46 467.5,-601.46 736.5,-601.46 736.5,-579.46 467.5,-579.46"/>
<polygon fill="none" stroke="black" points="467.5,-579.46 467.5,-601.46 736.5,-601.46 736.5,-579.46 467.5,-579.46"/>
<text text-anchor="start" x="472.5" y="-588.66" font-family="Helvetica,sans-Serif" font-weight="bold" font-size="11.00">ad_viewcomponent</text>
<text text-anchor="start" x="701.5" y="-587.66" font-family="Helvetica,sans-Serif" font-size="11.00">[table]</text>
<polygon fill="none" stroke="black" points="467.5,-557.46 467.5,-579.46 653.5,-579.46 653.5,-557.46 467.5,-557.46"/>
<text text-anchor="start" x="487.5" y="-565.66" font-family="Helvetica,sans-Serif" font-size="11.00">ad_client_id</text>
<polygon fill="none" stroke="black" points="653.5,-557.46 653.5,-579.46 736.5,-579.46 736.5,-557.46 653.5,-557.46"/>
<text text-anchor="start" x="656.5" y="-565.66" font-family="Helvetica,sans-Serif" font-size="11.00">numeric[10]</text>
<polygon fill="none" stroke="black" points="467.5,-535.46 467.5,-557.46 653.5,-557.46 653.5,-535.46 467.5,-535.46"/>
<text text-anchor="start" x="487.5" y="-543.66" font-family="Helvetica,sans-Serif" font-size="11.00">ad_org_id</text>
<polygon fill="none" stroke="black" points="653.5,-535.46 653.5,-557.46 736.5,-557.46 736.5,-535.46 653.5,-535.46"/>
<text text-anchor="start" x="656.5" y="-543.66" font-family="Helvetica,sans-Serif" font-size="11.00">numeric[10]</text>
<polygon fill="none" stroke="black" points="467.5,-513.46 467.5,-535.46 653.5,-535.46 653.5,-513.46 467.5,-513.46"/>
<image xlink:href="../../images/foreignKeys.png" width="11px" height="12px" preserveAspectRatio="xMinYMin meet" x="472.5" y="-530.463"/>
<text text-anchor="start" x="487.5" y="-521.66" font-family="Helvetica,sans-Serif" font-size="11.00">ad_table_id</text>
<polygon fill="none" stroke="black" points="653.5,-513.46 653.5,-535.46 736.5,-535.46 736.5,-513.46 653.5,-513.46"/>
<text text-anchor="start" x="656.5" y="-521.66" font-family="Helvetica,sans-Serif" font-size="11.00">numeric[10]</text>
<polygon fill="none" stroke="black" points="467.5,-491.46 467.5,-513.46 653.5,-513.46 653.5,-491.46 467.5,-491.46"/>
<image xlink:href="../../images/primaryKeys.png" width="11px" height="12px" preserveAspectRatio="xMinYMin meet" x="472.5" y="-508.463"/>
<text text-anchor="start" x="487.5" y="-499.66" font-family="Helvetica,sans-Serif" font-size="11.00">ad_viewcomponent_id</text>
<polygon fill="none" stroke="black" points="653.5,-491.46 653.5,-513.46 736.5,-513.46 736.5,-491.46 653.5,-491.46"/>
<text text-anchor="start" x="656.5" y="-499.66" font-family="Helvetica,sans-Serif" font-size="11.00">numeric[10]</text>
<polygon fill="#ffffff" stroke="transparent" points="467.5,-469.46 467.5,-491.46 653.5,-491.46 653.5,-469.46 467.5,-469.46"/>
<polygon fill="none" stroke="black" points="467.5,-469.46 467.5,-491.46 653.5,-491.46 653.5,-469.46 467.5,-469.46"/>
<text text-anchor="start" x="487.5" y="-477.66" font-family="Helvetica,sans-Serif" font-size="11.00">ad_viewcomponent_uu</text>
<polygon fill="none" stroke="black" points="653.5,-469.46 653.5,-491.46 736.5,-491.46 736.5,-469.46 653.5,-469.46"/>
<text text-anchor="start" x="656.5" y="-477.66" font-family="Helvetica,sans-Serif" font-size="11.00">varchar[36]</text>
<polygon fill="none" stroke="black" points="467.5,-447.46 467.5,-469.46 653.5,-469.46 653.5,-447.46 467.5,-447.46"/>
<text text-anchor="start" x="487.5" y="-455.66" font-family="Helvetica,sans-Serif" font-size="11.00">created</text>
<polygon fill="none" stroke="black" points="653.5,-447.46 653.5,-469.46 736.5,-469.46 736.5,-447.46 653.5,-447.46"/>
<text text-anchor="start" x="656.5" y="-455.66" font-family="Helvetica,sans-Serif" font-size="11.00">timestamp[29,6]</text>
<polygon fill="none" stroke="black" points="467.5,-425.46 467.5,-447.46 653.5,-447.46 653.5,-425.46 467.5,-425.46"/>
<text text-anchor="start" x="487.5" y="-433.66" font-family="Helvetica,sans-Serif" font-size="11.00">createdby</text>
<polygon fill="none" stroke="black" points="653.5,-425.46 653.5,-447.46 736.5,-447.46 736.5,-425.46 653.5,-425.46"/>
<text text-anchor="start" x="656.5" y="-433.66" font-family="Helvetica,sans-Serif" font-size="11.00">numeric[10]</text>
<polygon fill="none" stroke="black" points="467.5,-403.46 467.5,-425.46 653.5,-425.46 653.5,-403.46 467.5,-403.46"/>
<text text-anchor="start" x="487.5" y="-411.66" font-family="Helvetica,sans-Serif" font-size="11.00">description</text>
<polygon fill="none" stroke="black" points="653.5,-403.46 653.5,-425.46 736.5,-425.46 736.5,-403.46 653.5,-403.46"/>
<text text-anchor="start" x="656.5" y="-411.66" font-family="Helvetica,sans-Serif" font-size="11.00">varchar[255]</text>
<polygon fill="none" stroke="black" points="467.5,-381.46 467.5,-403.46 653.5,-403.46 653.5,-381.46 467.5,-381.46"/>
<image xlink:href="../../images/foreignKeys.png" width="11px" height="12px" preserveAspectRatio="xMinYMin meet" x="472.5" y="-398.463"/>
<text text-anchor="start" x="487.5" y="-389.66" font-family="Helvetica,sans-Serif" font-size="11.00">entitytype</text>
<polygon fill="none" stroke="black" points="653.5,-381.46 653.5,-403.46 736.5,-403.46 736.5,-381.46 653.5,-381.46"/>
<text text-anchor="start" x="656.5" y="-389.66" font-family="Helvetica,sans-Serif" font-size="11.00">varchar[40]</text>
<polygon fill="none" stroke="black" points="467.5,-359.46 467.5,-381.46 653.5,-381.46 653.5,-359.46 467.5,-359.46"/>
<text text-anchor="start" x="487.5" y="-367.66" font-family="Helvetica,sans-Serif" font-size="11.00">fromclause</text>
<polygon fill="none" stroke="black" points="653.5,-359.46 653.5,-381.46 736.5,-381.46 736.5,-359.46 653.5,-359.46"/>
<text text-anchor="start" x="656.5" y="-367.66" font-family="Helvetica,sans-Serif" font-size="11.00">varchar[4000]</text>
<polygon fill="none" stroke="black" points="467.5,-337.46 467.5,-359.46 653.5,-359.46 653.5,-337.46 467.5,-337.46"/>
<text text-anchor="start" x="487.5" y="-345.66" font-family="Helvetica,sans-Serif" font-size="11.00">help</text>
<polygon fill="none" stroke="black" points="653.5,-337.46 653.5,-359.46 736.5,-359.46 736.5,-337.46 653.5,-337.46"/>
<text text-anchor="start" x="656.5" y="-345.66" font-family="Helvetica,sans-Serif" font-size="11.00">varchar[2000]</text>
<polygon fill="none" stroke="black" points="467.5,-315.46 467.5,-337.46 653.5,-337.46 653.5,-315.46 467.5,-315.46"/>
<text text-anchor="start" x="487.5" y="-323.66" font-family="Helvetica,sans-Serif" font-size="11.00">isactive</text>
<polygon fill="none" stroke="black" points="653.5,-315.46 653.5,-337.46 736.5,-337.46 736.5,-315.46 653.5,-315.46"/>
<text text-anchor="start" x="656.5" y="-323.66" font-family="Helvetica,sans-Serif" font-size="11.00">bpchar[1]</text>
<polygon fill="none" stroke="black" points="467.5,-293.46 467.5,-315.46 653.5,-315.46 653.5,-293.46 467.5,-293.46"/>
<text text-anchor="start" x="487.5" y="-301.66" font-family="Helvetica,sans-Serif" font-size="11.00">name</text>
<polygon fill="none" stroke="black" points="653.5,-293.46 653.5,-315.46 736.5,-315.46 736.5,-293.46 653.5,-293.46"/>
<text text-anchor="start" x="656.5" y="-301.66" font-family="Helvetica,sans-Serif" font-size="11.00">varchar[50]</text>
<polygon fill="none" stroke="black" points="467.5,-271.46 467.5,-293.46 653.5,-293.46 653.5,-271.46 467.5,-271.46"/>
<text text-anchor="start" x="487.5" y="-279.66" font-family="Helvetica,sans-Serif" font-size="11.00">otherclause</text>
<polygon fill="none" stroke="black" points="653.5,-271.46 653.5,-293.46 736.5,-293.46 736.5,-271.46 653.5,-271.46"/>
<text text-anchor="start" x="656.5" y="-279.66" font-family="Helvetica,sans-Serif" font-size="11.00">varchar[4000]</text>
<polygon fill="none" stroke="black" points="467.5,-249.46 467.5,-271.46 653.5,-271.46 653.5,-249.46 467.5,-249.46"/>
<image xlink:href="../../images/foreignKeys.png" width="11px" height="12px" preserveAspectRatio="xMinYMin meet" x="472.5" y="-266.463"/>
<text text-anchor="start" x="487.5" y="-257.66" font-family="Helvetica,sans-Serif" font-size="11.00">referenced_table_id</text>
<polygon fill="none" stroke="black" points="653.5,-249.46 653.5,-271.46 736.5,-271.46 736.5,-249.46 653.5,-249.46"/>
<text text-anchor="start" x="656.5" y="-257.66" font-family="Helvetica,sans-Serif" font-size="11.00">numeric[10]</text>
<polygon fill="none" stroke="black" points="467.5,-227.46 467.5,-249.46 653.5,-249.46 653.5,-227.46 467.5,-227.46"/>
<text text-anchor="start" x="487.5" y="-235.66" font-family="Helvetica,sans-Serif" font-size="11.00">seqno</text>
<polygon fill="none" stroke="black" points="653.5,-227.46 653.5,-249.46 736.5,-249.46 736.5,-227.46 653.5,-227.46"/>
<text text-anchor="start" x="656.5" y="-235.66" font-family="Helvetica,sans-Serif" font-size="11.00">numeric[10]</text>
<polygon fill="none" stroke="black" points="467.5,-205.46 467.5,-227.46 653.5,-227.46 653.5,-205.46 467.5,-205.46"/>
<text text-anchor="start" x="487.5" y="-213.66" font-family="Helvetica,sans-Serif" font-size="11.00">updated</text>
<polygon fill="none" stroke="black" points="653.5,-205.46 653.5,-227.46 736.5,-227.46 736.5,-205.46 653.5,-205.46"/>
<text text-anchor="start" x="656.5" y="-213.66" font-family="Helvetica,sans-Serif" font-size="11.00">timestamp[29,6]</text>
<polygon fill="none" stroke="black" points="467.5,-183.46 467.5,-205.46 653.5,-205.46 653.5,-183.46 467.5,-183.46"/>
<text text-anchor="start" x="487.5" y="-191.66" font-family="Helvetica,sans-Serif" font-size="11.00">updatedby</text>
<polygon fill="none" stroke="black" points="653.5,-183.46 653.5,-205.46 736.5,-205.46 736.5,-183.46 653.5,-183.46"/>
<text text-anchor="start" x="656.5" y="-191.66" font-family="Helvetica,sans-Serif" font-size="11.00">numeric[10]</text>
<polygon fill="none" stroke="black" points="467.5,-161.46 467.5,-183.46 653.5,-183.46 653.5,-161.46 467.5,-161.46"/>
<text text-anchor="start" x="487.5" y="-169.66" font-family="Helvetica,sans-Serif" font-size="11.00">whereclause</text>
<polygon fill="none" stroke="black" points="653.5,-161.46 653.5,-183.46 736.5,-183.46 736.5,-161.46 653.5,-161.46"/>
<text text-anchor="start" x="656.5" y="-169.66" font-family="Helvetica,sans-Serif" font-size="11.00">varchar[2000]</text>
<polygon fill="none" stroke="black" points="467.5,-139.46 467.5,-161.46 653.5,-161.46 653.5,-139.46 467.5,-139.46"/>
<text text-anchor="start" x="487.5" y="-147.66" font-family="Helvetica,sans-Serif" font-size="11.00">isunionall</text>
<polygon fill="none" stroke="black" points="653.5,-139.46 653.5,-161.46 736.5,-161.46 736.5,-139.46 653.5,-139.46"/>
<text text-anchor="start" x="656.5" y="-147.66" font-family="Helvetica,sans-Serif" font-size="11.00">bpchar[1]</text>
<polygon fill="none" stroke="black" points="467.5,-117.46 467.5,-139.46 653.5,-139.46 653.5,-117.46 467.5,-117.46"/>
<text text-anchor="start" x="487.5" y="-125.66" font-family="Helvetica,sans-Serif" font-size="11.00">isdistinct</text>
<polygon fill="none" stroke="black" points="653.5,-117.46 653.5,-139.46 736.5,-139.46 736.5,-117.46 653.5,-117.46"/>
<text text-anchor="start" x="656.5" y="-125.66" font-family="Helvetica,sans-Serif" font-size="11.00">bpchar[1]</text>
<polygon fill="#ffffff" stroke="transparent" points="467.5,-99.46 467.5,-117.46 736.5,-117.46 736.5,-99.46 467.5,-99.46"/>
<polygon fill="none" stroke="black" points="467.5,-99.46 467.5,-117.46 736.5,-117.46 736.5,-99.46 467.5,-99.46"/>
<polygon fill="#ffffff" stroke="transparent" points="468.5,-100.46 468.5,-116.46 548.5,-116.46 548.5,-100.46 468.5,-100.46"/>
<text text-anchor="start" x="470.5" y="-105.66" font-family="Helvetica,sans-Serif" font-size="11.00">&lt; 3</text>
<polygon fill="#ffffff" stroke="transparent" points="548.5,-100.46 548.5,-116.46 656.5,-116.46 656.5,-100.46 548.5,-100.46"/>
<text text-anchor="start" x="580" y="-105.66" font-family="Helvetica,sans-Serif" font-size="11.00">376 rows</text>
<polygon fill="#ffffff" stroke="transparent" points="656.5,-100.46 656.5,-116.46 735.5,-116.46 735.5,-100.46 656.5,-100.46"/>
<text text-anchor="start" x="717.5" y="-105.66" font-family="Helvetica,sans-Serif" font-size="11.00">1 &gt;</text>
<polygon fill="black" stroke="black" points="548.5,-100.46 548.5,-116.46 548.5,-116.46 548.5,-100.46 548.5,-100.46"/>
<polygon fill="black" stroke="black" points="656.5,-100.46 656.5,-116.46 656.5,-116.46 656.5,-100.46 656.5,-100.46"/>
<polygon fill="none" stroke="black" stroke-width="2" points="466,-98.46 466,-602.46 737,-602.46 737,-98.46 466,-98.46"/>
</a>
</g>
</g>
<!-- ad_viewcolumn&#45;&gt;ad_viewcomponent -->
<g id="edge2" class="edge">
<title>ad_viewcolumn:w&#45;&gt;ad_viewcomponent:e</title>
<path fill="none" stroke="black" d="M772,-300.62C709.06,-322.42 825.1,-502.46 737.5,-502.46"/>
<polygon fill="black" stroke="black" points="778.59,-299.64 787.03,-302.02 782.54,-299.05 786.5,-298.46 786.5,-298.46 786.5,-298.46 782.54,-299.05 785.97,-294.9 778.59,-299.64 778.59,-299.64"/>
<ellipse fill="none" stroke="black" cx="775.42" cy="-300.11" rx="3.2" ry="3.2"/>
</g>
<!-- ad_viewcomponent&#45;&gt;ad_table -->
<g id="edge4" class="edge">
<title>ad_viewcomponent:w&#45;&gt;ad_table:e</title>
<path fill="none" stroke="black" d="M451.99,-522.45C383.68,-500.58 510.77,-307.46 417.5,-307.46"/>
<polygon fill="black" stroke="black" points="458.58,-523.37 466.01,-528.03 462.54,-523.91 466.5,-524.46 466.5,-524.46 466.5,-524.46 462.54,-523.91 466.99,-520.9 458.58,-523.37 458.58,-523.37"/>
<ellipse fill="none" stroke="black" cx="455.41" cy="-522.93" rx="3.2" ry="3.2"/>
</g>
<!-- ad_viewcomponent&#45;&gt;ad_table -->
<g id="edge6" class="edge">
<title>ad_viewcomponent:w&#45;&gt;ad_table:e</title>
<path fill="none" stroke="black" d="M452.56,-265.49C439.22,-277.62 441.55,-307.46 417.5,-307.46"/>
<polygon fill="black" stroke="black" points="458.97,-263.18 467.72,-263.85 462.74,-261.82 466.5,-260.46 466.5,-260.46 466.5,-260.46 462.74,-261.82 465.28,-257.08 458.97,-263.18 458.97,-263.18"/>
<ellipse fill="none" stroke="black" cx="455.96" cy="-264.26" rx="3.2" ry="3.2"/>
</g>
<!-- ad_viewcomponent&#45;&gt;ad_entitytype -->
<g id="edge5" class="edge">
<title>ad_viewcomponent:w&#45;&gt;ad_entitytype:e</title>
<path fill="none" stroke="black" d="M451.81,-392.63C339.82,-395.18 285.58,-424.66 195,-350.46 155.08,-317.76 206.6,-241.46 155,-241.46"/>
<polygon fill="black" stroke="black" points="458.5,-392.55 466.54,-396.06 462.5,-392.51 466.5,-392.46 466.5,-392.46 466.5,-392.46 462.5,-392.51 466.46,-388.86 458.5,-392.55 458.5,-392.55"/>
<ellipse fill="none" stroke="black" cx="455.3" cy="-392.59" rx="3.2" ry="3.2"/>
</g>
</g>
</svg>
