<?xml version="1.0" encoding="UTF-8" standalone="no"?>
<!DOCTYPE svg PUBLIC "-//W3C//DTD SVG 1.1//EN"
 "http://www.w3.org/Graphics/SVG/1.1/DTD/svg11.dtd">
<!-- Generated by graphviz version 2.43.0 (0)
 -->
<!-- Title: oneDegreeRelationshipsDiagram Pages: 1 -->
<svg width="532pt" height="604pt"
 viewBox="0.00 0.00 532.00 604.00" xmlns="http://www.w3.org/2000/svg" xmlns:xlink="http://www.w3.org/1999/xlink">
<g id="graph0" class="graph" transform="scale(1 1) rotate(0) translate(4 600)">
<title>oneDegreeRelationshipsDiagram</title>
<polygon fill="#ffffff" stroke="transparent" points="-4,4 -4,-600 528,-600 528,4 -4,4"/>
<text text-anchor="middle" x="71.5" y="-7.2" font-family="Helvetica,sans-Serif" font-size="11.00">Generated by SchemaSpy</text>
<!-- ad_workflow_trl -->
<g id="node1" class="node">
<title>ad_workflow_trl</title>
<g id="a_node1"><a xlink:href="../../tables/ad_workflow_trl.html" xlink:title="ad_workflow_trl" target="_top">
<polygon fill="#ffffff" stroke="transparent" points="261,-37 261,-433 516,-433 516,-37 261,-37"/>
<polygon fill="#f5f5f5" stroke="transparent" points="263.5,-409 263.5,-431 514.5,-431 514.5,-409 263.5,-409"/>
<polygon fill="none" stroke="black" points="263.5,-409 263.5,-431 514.5,-431 514.5,-409 263.5,-409"/>
<text text-anchor="start" x="268.5" y="-418.2" font-family="Helvetica,sans-Serif" font-weight="bold" font-size="11.00">ad_workflow_trl</text>
<text text-anchor="start" x="479.5" y="-417.2" font-family="Helvetica,sans-Serif" font-size="11.00">[table]</text>
<polygon fill="none" stroke="black" points="263.5,-387 263.5,-409 424.5,-409 424.5,-387 263.5,-387"/>
<image xlink:href="../../images/primaryKeys.png" width="11px" height="12px" preserveAspectRatio="xMinYMin meet" x="268.5" y="-404"/>
<text text-anchor="start" x="283.5" y="-395.2" font-family="Helvetica,sans-Serif" font-size="11.00">ad_workflow_id</text>
<polygon fill="none" stroke="black" points="424.5,-387 424.5,-409 514.5,-409 514.5,-387 424.5,-387"/>
<text text-anchor="start" x="427.5" y="-395.2" font-family="Helvetica,sans-Serif" font-size="11.00">numeric[10]</text>
<polygon fill="none" stroke="black" points="263.5,-365 263.5,-387 424.5,-387 424.5,-365 263.5,-365"/>
<image xlink:href="../../images/primaryKeys.png" width="11px" height="12px" preserveAspectRatio="xMinYMin meet" x="268.5" y="-382"/>
<text text-anchor="start" x="283.5" y="-373.2" font-family="Helvetica,sans-Serif" font-size="11.00">ad_language</text>
<polygon fill="none" stroke="black" points="424.5,-365 424.5,-387 514.5,-387 514.5,-365 424.5,-365"/>
<text text-anchor="start" x="427.5" y="-373.2" font-family="Helvetica,sans-Serif" font-size="11.00">varchar[6]</text>
<polygon fill="none" stroke="black" points="263.5,-343 263.5,-365 424.5,-365 424.5,-343 263.5,-343"/>
<text text-anchor="start" x="283.5" y="-351.2" font-family="Helvetica,sans-Serif" font-size="11.00">ad_client_id</text>
<polygon fill="none" stroke="black" points="424.5,-343 424.5,-365 514.5,-365 514.5,-343 424.5,-343"/>
<text text-anchor="start" x="427.5" y="-351.2" font-family="Helvetica,sans-Serif" font-size="11.00">numeric[10]</text>
<polygon fill="none" stroke="black" points="263.5,-321 263.5,-343 424.5,-343 424.5,-321 263.5,-321"/>
<text text-anchor="start" x="283.5" y="-329.2" font-family="Helvetica,sans-Serif" font-size="11.00">ad_org_id</text>
<polygon fill="none" stroke="black" points="424.5,-321 424.5,-343 514.5,-343 514.5,-321 424.5,-321"/>
<text text-anchor="start" x="427.5" y="-329.2" font-family="Helvetica,sans-Serif" font-size="11.00">numeric[10]</text>
<polygon fill="none" stroke="black" points="263.5,-299 263.5,-321 424.5,-321 424.5,-299 263.5,-299"/>
<text text-anchor="start" x="283.5" y="-307.2" font-family="Helvetica,sans-Serif" font-size="11.00">isactive</text>
<polygon fill="none" stroke="black" points="424.5,-299 424.5,-321 514.5,-321 514.5,-299 424.5,-299"/>
<text text-anchor="start" x="427.5" y="-307.2" font-family="Helvetica,sans-Serif" font-size="11.00">bpchar[1]</text>
<polygon fill="none" stroke="black" points="263.5,-277 263.5,-299 424.5,-299 424.5,-277 263.5,-277"/>
<text text-anchor="start" x="283.5" y="-285.2" font-family="Helvetica,sans-Serif" font-size="11.00">created</text>
<polygon fill="none" stroke="black" points="424.5,-277 424.5,-299 514.5,-299 514.5,-277 424.5,-277"/>
<text text-anchor="start" x="427.5" y="-285.2" font-family="Helvetica,sans-Serif" font-size="11.00">timestamp[29,6]</text>
<polygon fill="none" stroke="black" points="263.5,-255 263.5,-277 424.5,-277 424.5,-255 263.5,-255"/>
<text text-anchor="start" x="283.5" y="-263.2" font-family="Helvetica,sans-Serif" font-size="11.00">createdby</text>
<polygon fill="none" stroke="black" points="424.5,-255 424.5,-277 514.5,-277 514.5,-255 424.5,-255"/>
<text text-anchor="start" x="427.5" y="-263.2" font-family="Helvetica,sans-Serif" font-size="11.00">numeric[10]</text>
<polygon fill="none" stroke="black" points="263.5,-233 263.5,-255 424.5,-255 424.5,-233 263.5,-233"/>
<text text-anchor="start" x="283.5" y="-241.2" font-family="Helvetica,sans-Serif" font-size="11.00">updated</text>
<polygon fill="none" stroke="black" points="424.5,-233 424.5,-255 514.5,-255 514.5,-233 424.5,-233"/>
<text text-anchor="start" x="427.5" y="-241.2" font-family="Helvetica,sans-Serif" font-size="11.00">timestamp[29,6]</text>
<polygon fill="none" stroke="black" points="263.5,-211 263.5,-233 424.5,-233 424.5,-211 263.5,-211"/>
<text text-anchor="start" x="283.5" y="-219.2" font-family="Helvetica,sans-Serif" font-size="11.00">updatedby</text>
<polygon fill="none" stroke="black" points="424.5,-211 424.5,-233 514.5,-233 514.5,-211 424.5,-211"/>
<text text-anchor="start" x="427.5" y="-219.2" font-family="Helvetica,sans-Serif" font-size="11.00">numeric[10]</text>
<polygon fill="none" stroke="black" points="263.5,-189 263.5,-211 424.5,-211 424.5,-189 263.5,-189"/>
<text text-anchor="start" x="283.5" y="-197.2" font-family="Helvetica,sans-Serif" font-size="11.00">name</text>
<polygon fill="none" stroke="black" points="424.5,-189 424.5,-211 514.5,-211 514.5,-189 424.5,-189"/>
<text text-anchor="start" x="427.5" y="-197.2" font-family="Helvetica,sans-Serif" font-size="11.00">varchar[60]</text>
<polygon fill="none" stroke="black" points="263.5,-167 263.5,-189 424.5,-189 424.5,-167 263.5,-167"/>
<text text-anchor="start" x="283.5" y="-175.2" font-family="Helvetica,sans-Serif" font-size="11.00">description</text>
<polygon fill="none" stroke="black" points="424.5,-167 424.5,-189 514.5,-189 514.5,-167 424.5,-167"/>
<text text-anchor="start" x="427.5" y="-175.2" font-family="Helvetica,sans-Serif" font-size="11.00">varchar[255]</text>
<polygon fill="none" stroke="black" points="263.5,-145 263.5,-167 424.5,-167 424.5,-145 263.5,-145"/>
<text text-anchor="start" x="283.5" y="-153.2" font-family="Helvetica,sans-Serif" font-size="11.00">help</text>
<polygon fill="none" stroke="black" points="424.5,-145 424.5,-167 514.5,-167 514.5,-145 424.5,-145"/>
<text text-anchor="start" x="427.5" y="-153.2" font-family="Helvetica,sans-Serif" font-size="11.00">text[2147483647]</text>
<polygon fill="none" stroke="black" points="263.5,-123 263.5,-145 424.5,-145 424.5,-123 263.5,-123"/>
<text text-anchor="start" x="283.5" y="-131.2" font-family="Helvetica,sans-Serif" font-size="11.00">istranslated</text>
<polygon fill="none" stroke="black" points="424.5,-123 424.5,-145 514.5,-145 514.5,-123 424.5,-123"/>
<text text-anchor="start" x="427.5" y="-131.2" font-family="Helvetica,sans-Serif" font-size="11.00">bpchar[1]</text>
<polygon fill="#ffffff" stroke="transparent" points="263.5,-101 263.5,-123 424.5,-123 424.5,-101 263.5,-101"/>
<polygon fill="none" stroke="black" points="263.5,-101 263.5,-123 424.5,-123 424.5,-101 263.5,-101"/>
<text text-anchor="start" x="283.5" y="-109.2" font-family="Helvetica,sans-Serif" font-size="11.00">ad_workflow_trl_uu</text>
<polygon fill="none" stroke="black" points="424.5,-101 424.5,-123 514.5,-123 514.5,-101 424.5,-101"/>
<text text-anchor="start" x="427.5" y="-109.2" font-family="Helvetica,sans-Serif" font-size="11.00">varchar[36]</text>
<polygon fill="none" stroke="black" points="263.5,-79 263.5,-101 424.5,-101 424.5,-79 263.5,-79"/>
<text text-anchor="start" x="283.5" y="-87.2" font-family="Helvetica,sans-Serif" font-size="11.00">cof_pretranslated</text>
<polygon fill="none" stroke="black" points="424.5,-79 424.5,-101 514.5,-101 514.5,-79 424.5,-79"/>
<text text-anchor="start" x="427.5" y="-87.2" font-family="Helvetica,sans-Serif" font-size="11.00">bpchar[1]</text>
<polygon fill="none" stroke="black" points="263.5,-57 263.5,-79 424.5,-79 424.5,-57 263.5,-57"/>
<text text-anchor="start" x="283.5" y="-65.2" font-family="Helvetica,sans-Serif" font-size="11.00">cof_checked</text>
<polygon fill="none" stroke="black" points="424.5,-57 424.5,-79 514.5,-79 514.5,-57 424.5,-57"/>
<text text-anchor="start" x="427.5" y="-65.2" font-family="Helvetica,sans-Serif" font-size="11.00">bpchar[1]</text>
<polygon fill="#ffffff" stroke="transparent" points="263.5,-39 263.5,-57 514.5,-57 514.5,-39 263.5,-39"/>
<polygon fill="none" stroke="black" points="263.5,-39 263.5,-57 514.5,-57 514.5,-39 263.5,-39"/>
<polygon fill="#ffffff" stroke="transparent" points="264.5,-40 264.5,-56 338.5,-56 338.5,-40 264.5,-40"/>
<text text-anchor="start" x="266.5" y="-45.2" font-family="Helvetica,sans-Serif" font-size="11.00">&lt; 2</text>
<polygon fill="#ffffff" stroke="transparent" points="338.5,-40 338.5,-56 440.5,-56 440.5,-40 338.5,-40"/>
<text text-anchor="start" x="367" y="-45.2" font-family="Helvetica,sans-Serif" font-size="11.00">120 rows</text>
<polygon fill="#ffffff" stroke="transparent" points="440.5,-40 440.5,-56 513.5,-56 513.5,-40 440.5,-40"/>
<text text-anchor="start" x="495.5" y="-45.2" font-family="Helvetica,sans-Serif" font-size="11.00">0 &gt;</text>
<polygon fill="black" stroke="black" points="338.5,-40 338.5,-56 338.5,-56 338.5,-40 338.5,-40"/>
<polygon fill="black" stroke="black" points="440.5,-40 440.5,-56 440.5,-56 440.5,-40 440.5,-40"/>
<polygon fill="none" stroke="black" stroke-width="2" points="262,-38 262,-432 515,-432 515,-38 262,-38"/>
</a>
</g>
</g>
<!-- ad_language -->
<g id="node2" class="node">
<title>ad_language</title>
<g id="a_node2"><a xlink:href="../../tables/ad_language.html" xlink:title="ad_language" target="_top">
<polygon fill="#ffffff" stroke="transparent" points="33.5,-59 33.5,-249 186.5,-249 186.5,-59 33.5,-59"/>
<polygon fill="#f5f5f5" stroke="transparent" points="34,-227 34,-249 187,-249 187,-227 34,-227"/>
<polygon fill="none" stroke="black" points="34,-227 34,-249 187,-249 187,-227 34,-227"/>
<text text-anchor="start" x="39" y="-236.2" font-family="Helvetica,sans-Serif" font-weight="bold" font-size="11.00">ad_language</text>
<text text-anchor="start" x="152" y="-235.2" font-family="Helvetica,sans-Serif" font-size="11.00">[table]</text>
<polygon fill="none" stroke="black" points="34,-205 34,-227 187,-227 187,-205 34,-205"/>
<image xlink:href="../../images/primaryKeys.png" width="11px" height="12px" preserveAspectRatio="xMinYMin meet" x="39" y="-222"/>
<text text-anchor="start" x="54" y="-213.2" font-family="Helvetica,sans-Serif" font-size="11.00">ad_language</text>
<polygon fill="none" stroke="black" points="34,-183 34,-205 187,-205 187,-183 34,-183"/>
<image xlink:href="../../images/foreignKeys.png" width="11px" height="12px" preserveAspectRatio="xMinYMin meet" x="39" y="-200"/>
<text text-anchor="start" x="54" y="-191.2" font-family="Helvetica,sans-Serif" font-size="11.00">ad_client_id</text>
<polygon fill="none" stroke="black" points="34,-161 34,-183 187,-183 187,-161 34,-161"/>
<image xlink:href="../../images/foreignKeys.png" width="11px" height="12px" preserveAspectRatio="xMinYMin meet" x="39" y="-178"/>
<text text-anchor="start" x="54" y="-169.2" font-family="Helvetica,sans-Serif" font-size="11.00">ad_org_id</text>
<polygon fill="#ffffff" stroke="transparent" points="34,-139 34,-161 187,-161 187,-139 34,-139"/>
<polygon fill="none" stroke="black" points="34,-139 34,-161 187,-161 187,-139 34,-139"/>
<text text-anchor="start" x="54" y="-147.2" font-family="Helvetica,sans-Serif" font-size="11.00">ad_language_id</text>
<polygon fill="#ffffff" stroke="transparent" points="34,-117 34,-139 187,-139 187,-117 34,-117"/>
<polygon fill="none" stroke="black" points="34,-117 34,-139 187,-139 187,-117 34,-117"/>
<text text-anchor="start" x="54" y="-125.2" font-family="Helvetica,sans-Serif" font-size="11.00">ad_language_uu</text>
<polygon fill="none" stroke="black" points="34,-95 34,-117 187,-117 187,-95 34,-95"/>
<image xlink:href="../../images/foreignKeys.png" width="11px" height="12px" preserveAspectRatio="xMinYMin meet" x="39" y="-112"/>
<text text-anchor="start" x="54" y="-103.2" font-family="Helvetica,sans-Serif" font-size="11.00">ad_printpaper_id</text>
<polygon fill="none" stroke="black" points="34,-77 34,-95 187,-95 187,-77 34,-77"/>
<text text-anchor="start" x="37" y="-83.2" font-family="Helvetica,sans-Serif" font-size="11.00">...</text>
<polygon fill="#ffffff" stroke="transparent" points="34,-59 34,-77 187,-77 187,-59 34,-59"/>
<polygon fill="none" stroke="black" points="34,-59 34,-77 187,-77 187,-59 34,-59"/>
<polygon fill="#ffffff" stroke="transparent" points="35,-60 35,-76 74,-76 74,-60 35,-60"/>
<text text-anchor="start" x="37" y="-65.2" font-family="Helvetica,sans-Serif" font-size="11.00">&lt; 3</text>
<polygon fill="#ffffff" stroke="transparent" points="74,-60 74,-76 142,-76 142,-60 74,-60"/>
<text text-anchor="start" x="85.5" y="-65.2" font-family="Helvetica,sans-Serif" font-size="11.00">109 rows</text>
<polygon fill="#ffffff" stroke="transparent" points="142,-60 142,-76 186,-76 186,-60 142,-60"/>
<text text-anchor="start" x="162" y="-65.2" font-family="Helvetica,sans-Serif" font-size="11.00">88 &gt;</text>
<polygon fill="black" stroke="black" points="74,-60 74,-76 74,-76 74,-60 74,-60"/>
<polygon fill="black" stroke="black" points="142,-60 142,-76 142,-76 142,-60 142,-60"/>
</a>
</g>
</g>
<!-- ad_workflow_trl&#45;&gt;ad_language -->
<g id="edge1" class="edge">
<title>ad_workflow_trl:w&#45;&gt;ad_language:e</title>
<path fill="none" stroke="black" d="M248.23,-373.74C194.85,-354.29 260.93,-216 188,-216"/>
<polygon fill="black" stroke="black" points="254.6,-374.75 261.94,-379.56 258.55,-375.37 262.5,-376 262.5,-376 262.5,-376 258.55,-375.37 263.06,-372.44 254.6,-374.75 254.6,-374.75"/>
<ellipse fill="none" stroke="black" cx="251.44" cy="-374.25" rx="3.2" ry="3.2"/>
</g>
<!-- ad_workflow -->
<g id="node3" class="node">
<title>ad_workflow</title>
<g id="a_node3"><a xlink:href="../../tables/ad_workflow.html" xlink:title="ad_workflow" target="_top">
<polygon fill="#ffffff" stroke="transparent" points="8,-270 8,-592 212,-592 212,-270 8,-270"/>
<polygon fill="#f5f5f5" stroke="transparent" points="8,-570 8,-592 212,-592 212,-570 8,-570"/>
<polygon fill="none" stroke="black" points="8,-570 8,-592 212,-592 212,-570 8,-570"/>
<text text-anchor="start" x="13" y="-579.2" font-family="Helvetica,sans-Serif" font-weight="bold" font-size="11.00">ad_workflow</text>
<text text-anchor="start" x="177" y="-578.2" font-family="Helvetica,sans-Serif" font-size="11.00">[table]</text>
<polygon fill="none" stroke="black" points="8,-548 8,-570 212,-570 212,-548 8,-548"/>
<image xlink:href="../../images/primaryKeys.png" width="11px" height="12px" preserveAspectRatio="xMinYMin meet" x="13" y="-565"/>
<text text-anchor="start" x="28" y="-556.2" font-family="Helvetica,sans-Serif" font-size="11.00">ad_workflow_id</text>
<polygon fill="#ffffff" stroke="transparent" points="8,-526 8,-548 212,-548 212,-526 8,-526"/>
<polygon fill="none" stroke="black" points="8,-526 8,-548 212,-548 212,-526 8,-526"/>
<image xlink:href="../../images/foreignKeys.png" width="11px" height="12px" preserveAspectRatio="xMinYMin meet" x="13" y="-543"/>
<text text-anchor="start" x="28" y="-534.2" font-family="Helvetica,sans-Serif" font-size="11.00">ad_client_id</text>
<polygon fill="none" stroke="black" points="8,-504 8,-526 212,-526 212,-504 8,-504"/>
<image xlink:href="../../images/foreignKeys.png" width="11px" height="12px" preserveAspectRatio="xMinYMin meet" x="13" y="-521"/>
<text text-anchor="start" x="28" y="-512.2" font-family="Helvetica,sans-Serif" font-size="11.00">ad_org_id</text>
<polygon fill="#ffffff" stroke="transparent" points="8,-482 8,-504 212,-504 212,-482 8,-482"/>
<polygon fill="none" stroke="black" points="8,-482 8,-504 212,-504 212,-482 8,-482"/>
<text text-anchor="start" x="28" y="-490.2" font-family="Helvetica,sans-Serif" font-size="11.00">name</text>
<polygon fill="none" stroke="black" points="8,-460 8,-482 212,-482 212,-460 8,-460"/>
<image xlink:href="../../images/foreignKeys.png" width="11px" height="12px" preserveAspectRatio="xMinYMin meet" x="13" y="-477"/>
<text text-anchor="start" x="28" y="-468.2" font-family="Helvetica,sans-Serif" font-size="11.00">ad_wf_node_id</text>
<polygon fill="none" stroke="black" points="8,-438 8,-460 212,-460 212,-438 8,-438"/>
<image xlink:href="../../images/foreignKeys.png" width="11px" height="12px" preserveAspectRatio="xMinYMin meet" x="13" y="-455"/>
<text text-anchor="start" x="28" y="-446.2" font-family="Helvetica,sans-Serif" font-size="11.00">entitytype</text>
<polygon fill="none" stroke="black" points="8,-416 8,-438 212,-438 212,-416 8,-416"/>
<image xlink:href="../../images/foreignKeys.png" width="11px" height="12px" preserveAspectRatio="xMinYMin meet" x="13" y="-433"/>
<text text-anchor="start" x="28" y="-424.2" font-family="Helvetica,sans-Serif" font-size="11.00">ad_wf_responsible_id</text>
<polygon fill="none" stroke="black" points="8,-394 8,-416 212,-416 212,-394 8,-394"/>
<image xlink:href="../../images/foreignKeys.png" width="11px" height="12px" preserveAspectRatio="xMinYMin meet" x="13" y="-411"/>
<text text-anchor="start" x="28" y="-402.2" font-family="Helvetica,sans-Serif" font-size="11.00">ad_workflowprocessor_id</text>
<polygon fill="none" stroke="black" points="8,-372 8,-394 212,-394 212,-372 8,-372"/>
<image xlink:href="../../images/foreignKeys.png" width="11px" height="12px" preserveAspectRatio="xMinYMin meet" x="13" y="-389"/>
<text text-anchor="start" x="28" y="-380.2" font-family="Helvetica,sans-Serif" font-size="11.00">ad_table_id</text>
<polygon fill="none" stroke="black" points="8,-350 8,-372 212,-372 212,-350 8,-350"/>
<image xlink:href="../../images/foreignKeys.png" width="11px" height="12px" preserveAspectRatio="xMinYMin meet" x="13" y="-367"/>
<text text-anchor="start" x="28" y="-358.2" font-family="Helvetica,sans-Serif" font-size="11.00">s_resource_id</text>
<polygon fill="#ffffff" stroke="transparent" points="8,-328 8,-350 212,-350 212,-328 8,-328"/>
<polygon fill="none" stroke="black" points="8,-328 8,-350 212,-350 212,-328 8,-328"/>
<text text-anchor="start" x="28" y="-336.2" font-family="Helvetica,sans-Serif" font-size="11.00">ad_workflow_uu</text>
<polygon fill="none" stroke="black" points="8,-306 8,-328 212,-328 212,-306 8,-306"/>
<image xlink:href="../../images/foreignKeys.png" width="11px" height="12px" preserveAspectRatio="xMinYMin meet" x="13" y="-323"/>
<text text-anchor="start" x="28" y="-314.2" font-family="Helvetica,sans-Serif" font-size="11.00">ad_ctxhelp_id</text>
<polygon fill="none" stroke="black" points="8,-288 8,-306 212,-306 212,-288 8,-288"/>
<text text-anchor="start" x="11" y="-294.2" font-family="Helvetica,sans-Serif" font-size="11.00">...</text>
<polygon fill="#ffffff" stroke="transparent" points="8,-270 8,-288 212,-288 212,-270 8,-270"/>
<polygon fill="none" stroke="black" points="8,-270 8,-288 212,-288 212,-270 8,-270"/>
<polygon fill="#ffffff" stroke="transparent" points="9,-271 9,-287 67,-287 67,-271 9,-271"/>
<text text-anchor="start" x="11" y="-276.2" font-family="Helvetica,sans-Serif" font-size="11.00">&lt; 9</text>
<polygon fill="#ffffff" stroke="transparent" points="67,-271 67,-287 148,-287 148,-271 67,-271"/>
<text text-anchor="start" x="88" y="-276.2" font-family="Helvetica,sans-Serif" font-size="11.00">59 rows</text>
<polygon fill="#ffffff" stroke="transparent" points="148,-271 148,-287 211,-287 211,-271 148,-271"/>
<text text-anchor="start" x="187" y="-276.2" font-family="Helvetica,sans-Serif" font-size="11.00">22 &gt;</text>
<polygon fill="black" stroke="black" points="67,-271 67,-287 67,-287 67,-271 67,-271"/>
<polygon fill="black" stroke="black" points="148,-271 148,-287 148,-287 148,-271 148,-271"/>
</a>
</g>
</g>
<!-- ad_workflow_trl&#45;&gt;ad_workflow -->
<g id="edge2" class="edge">
<title>ad_workflow_trl:w&#45;&gt;ad_workflow:e</title>
<path fill="none" stroke="black" d="M248.29,-400.66C201.89,-421.59 282.16,-559 213,-559"/>
<polygon fill="black" stroke="black" points="254.64,-399.47 263.16,-401.54 258.57,-398.74 262.5,-398 262.5,-398 262.5,-398 258.57,-398.74 261.84,-394.46 254.64,-399.47 254.64,-399.47"/>
<ellipse fill="none" stroke="black" cx="251.49" cy="-400.06" rx="3.2" ry="3.2"/>
</g>
</g>
</svg>
