<?xml version="1.0" encoding="UTF-8" standalone="no"?>
<!DOCTYPE svg PUBLIC "-//W3C//DTD SVG 1.1//EN"
 "http://www.w3.org/Graphics/SVG/1.1/DTD/svg11.dtd">
<!-- Generated by graphviz version 2.43.0 (0)
 -->
<!-- Title: oneDegreeRelationshipsDiagram Pages: 1 -->
<svg width="519pt" height="483pt"
 viewBox="0.00 0.00 519.00 483.00" xmlns="http://www.w3.org/2000/svg" xmlns:xlink="http://www.w3.org/1999/xlink">
<g id="graph0" class="graph" transform="scale(1 1) rotate(0) translate(4 479)">
<title>oneDegreeRelationshipsDiagram</title>
<polygon fill="#ffffff" stroke="transparent" points="-4,4 -4,-479 515,-479 515,4 -4,4"/>
<text text-anchor="middle" x="71.5" y="-7.2" font-family="Helvetica,sans-Serif" font-size="11.00">Generated by SchemaSpy</text>
<!-- ad_wf_processdata -->
<g id="node1" class="node">
<title>ad_wf_processdata</title>
<g id="a_node1"><a xlink:href="../../tables/ad_wf_processdata.html" xlink:title="ad_wf_processdata" target="_top">
<polygon fill="#ffffff" stroke="transparent" points="232,-163 232,-471 503,-471 503,-163 232,-163"/>
<polygon fill="#f5f5f5" stroke="transparent" points="234.5,-447 234.5,-469 501.5,-469 501.5,-447 234.5,-447"/>
<polygon fill="none" stroke="black" points="234.5,-447 234.5,-469 501.5,-469 501.5,-447 234.5,-447"/>
<text text-anchor="start" x="239.5" y="-456.2" font-family="Helvetica,sans-Serif" font-weight="bold" font-size="11.00">ad_wf_processdata</text>
<text text-anchor="start" x="466.5" y="-455.2" font-family="Helvetica,sans-Serif" font-size="11.00">[table]</text>
<polygon fill="none" stroke="black" points="234.5,-425 234.5,-447 418.5,-447 418.5,-425 234.5,-425"/>
<image xlink:href="../../images/primaryKeys.png" width="11px" height="12px" preserveAspectRatio="xMinYMin meet" x="239.5" y="-442"/>
<text text-anchor="start" x="254.5" y="-433.2" font-family="Helvetica,sans-Serif" font-size="11.00">ad_wf_processdata_id</text>
<polygon fill="none" stroke="black" points="418.5,-425 418.5,-447 501.5,-447 501.5,-425 418.5,-425"/>
<text text-anchor="start" x="421.5" y="-433.2" font-family="Helvetica,sans-Serif" font-size="11.00">numeric[10]</text>
<polygon fill="none" stroke="black" points="234.5,-403 234.5,-425 418.5,-425 418.5,-403 234.5,-403"/>
<text text-anchor="start" x="254.5" y="-411.2" font-family="Helvetica,sans-Serif" font-size="11.00">ad_client_id</text>
<polygon fill="none" stroke="black" points="418.5,-403 418.5,-425 501.5,-425 501.5,-403 418.5,-403"/>
<text text-anchor="start" x="421.5" y="-411.2" font-family="Helvetica,sans-Serif" font-size="11.00">numeric[10]</text>
<polygon fill="none" stroke="black" points="234.5,-381 234.5,-403 418.5,-403 418.5,-381 234.5,-381"/>
<text text-anchor="start" x="254.5" y="-389.2" font-family="Helvetica,sans-Serif" font-size="11.00">ad_org_id</text>
<polygon fill="none" stroke="black" points="418.5,-381 418.5,-403 501.5,-403 501.5,-381 418.5,-381"/>
<text text-anchor="start" x="421.5" y="-389.2" font-family="Helvetica,sans-Serif" font-size="11.00">numeric[10]</text>
<polygon fill="none" stroke="black" points="234.5,-359 234.5,-381 418.5,-381 418.5,-359 234.5,-359"/>
<text text-anchor="start" x="254.5" y="-367.2" font-family="Helvetica,sans-Serif" font-size="11.00">isactive</text>
<polygon fill="none" stroke="black" points="418.5,-359 418.5,-381 501.5,-381 501.5,-359 418.5,-359"/>
<text text-anchor="start" x="421.5" y="-367.2" font-family="Helvetica,sans-Serif" font-size="11.00">bpchar[1]</text>
<polygon fill="none" stroke="black" points="234.5,-337 234.5,-359 418.5,-359 418.5,-337 234.5,-337"/>
<text text-anchor="start" x="254.5" y="-345.2" font-family="Helvetica,sans-Serif" font-size="11.00">created</text>
<polygon fill="none" stroke="black" points="418.5,-337 418.5,-359 501.5,-359 501.5,-337 418.5,-337"/>
<text text-anchor="start" x="421.5" y="-345.2" font-family="Helvetica,sans-Serif" font-size="11.00">timestamp[29,6]</text>
<polygon fill="none" stroke="black" points="234.5,-315 234.5,-337 418.5,-337 418.5,-315 234.5,-315"/>
<text text-anchor="start" x="254.5" y="-323.2" font-family="Helvetica,sans-Serif" font-size="11.00">createdby</text>
<polygon fill="none" stroke="black" points="418.5,-315 418.5,-337 501.5,-337 501.5,-315 418.5,-315"/>
<text text-anchor="start" x="421.5" y="-323.2" font-family="Helvetica,sans-Serif" font-size="11.00">numeric[10]</text>
<polygon fill="none" stroke="black" points="234.5,-293 234.5,-315 418.5,-315 418.5,-293 234.5,-293"/>
<text text-anchor="start" x="254.5" y="-301.2" font-family="Helvetica,sans-Serif" font-size="11.00">updated</text>
<polygon fill="none" stroke="black" points="418.5,-293 418.5,-315 501.5,-315 501.5,-293 418.5,-293"/>
<text text-anchor="start" x="421.5" y="-301.2" font-family="Helvetica,sans-Serif" font-size="11.00">timestamp[29,6]</text>
<polygon fill="none" stroke="black" points="234.5,-271 234.5,-293 418.5,-293 418.5,-271 234.5,-271"/>
<text text-anchor="start" x="254.5" y="-279.2" font-family="Helvetica,sans-Serif" font-size="11.00">updatedby</text>
<polygon fill="none" stroke="black" points="418.5,-271 418.5,-293 501.5,-293 501.5,-271 418.5,-271"/>
<text text-anchor="start" x="421.5" y="-279.2" font-family="Helvetica,sans-Serif" font-size="11.00">numeric[10]</text>
<polygon fill="#ffffff" stroke="transparent" points="234.5,-249 234.5,-271 418.5,-271 418.5,-249 234.5,-249"/>
<polygon fill="none" stroke="black" points="234.5,-249 234.5,-271 418.5,-271 418.5,-249 234.5,-249"/>
<image xlink:href="../../images/foreignKeys.png" width="11px" height="12px" preserveAspectRatio="xMinYMin meet" x="239.5" y="-266"/>
<text text-anchor="start" x="254.5" y="-257.2" font-family="Helvetica,sans-Serif" font-size="11.00">ad_wf_process_id</text>
<polygon fill="none" stroke="black" points="418.5,-249 418.5,-271 501.5,-271 501.5,-249 418.5,-249"/>
<text text-anchor="start" x="421.5" y="-257.2" font-family="Helvetica,sans-Serif" font-size="11.00">numeric[10]</text>
<polygon fill="none" stroke="black" points="234.5,-227 234.5,-249 418.5,-249 418.5,-227 234.5,-227"/>
<text text-anchor="start" x="254.5" y="-235.2" font-family="Helvetica,sans-Serif" font-size="11.00">attributename</text>
<polygon fill="none" stroke="black" points="418.5,-227 418.5,-249 501.5,-249 501.5,-227 418.5,-227"/>
<text text-anchor="start" x="421.5" y="-235.2" font-family="Helvetica,sans-Serif" font-size="11.00">varchar[60]</text>
<polygon fill="none" stroke="black" points="234.5,-205 234.5,-227 418.5,-227 418.5,-205 234.5,-205"/>
<text text-anchor="start" x="254.5" y="-213.2" font-family="Helvetica,sans-Serif" font-size="11.00">attributevalue</text>
<polygon fill="none" stroke="black" points="418.5,-205 418.5,-227 501.5,-227 501.5,-205 418.5,-205"/>
<text text-anchor="start" x="421.5" y="-213.2" font-family="Helvetica,sans-Serif" font-size="11.00">varchar[60]</text>
<polygon fill="#ffffff" stroke="transparent" points="234.5,-183 234.5,-205 418.5,-205 418.5,-183 234.5,-183"/>
<polygon fill="none" stroke="black" points="234.5,-183 234.5,-205 418.5,-205 418.5,-183 234.5,-183"/>
<text text-anchor="start" x="254.5" y="-191.2" font-family="Helvetica,sans-Serif" font-size="11.00">ad_wf_processdata_uu</text>
<polygon fill="none" stroke="black" points="418.5,-183 418.5,-205 501.5,-205 501.5,-183 418.5,-183"/>
<text text-anchor="start" x="421.5" y="-191.2" font-family="Helvetica,sans-Serif" font-size="11.00">varchar[36]</text>
<polygon fill="#ffffff" stroke="transparent" points="234.5,-165 234.5,-183 501.5,-183 501.5,-165 234.5,-165"/>
<polygon fill="none" stroke="black" points="234.5,-165 234.5,-183 501.5,-183 501.5,-165 234.5,-165"/>
<polygon fill="#ffffff" stroke="transparent" points="235.5,-166 235.5,-182 327.5,-182 327.5,-166 235.5,-166"/>
<text text-anchor="start" x="237.5" y="-171.2" font-family="Helvetica,sans-Serif" font-size="11.00">&lt; 1</text>
<polygon fill="#ffffff" stroke="transparent" points="327.5,-166 327.5,-182 409.5,-182 409.5,-166 327.5,-166"/>
<text text-anchor="start" x="365" y="-171.2" font-family="Helvetica,sans-Serif" font-size="11.00"> &#160;</text>
<polygon fill="#ffffff" stroke="transparent" points="409.5,-166 409.5,-182 500.5,-182 500.5,-166 409.5,-166"/>
<text text-anchor="start" x="482.5" y="-171.2" font-family="Helvetica,sans-Serif" font-size="11.00">0 &gt;</text>
<polygon fill="black" stroke="black" points="327.5,-166 327.5,-182 327.5,-182 327.5,-166 327.5,-166"/>
<polygon fill="black" stroke="black" points="409.5,-166 409.5,-182 409.5,-182 409.5,-166 409.5,-166"/>
<polygon fill="none" stroke="black" stroke-width="2" points="233,-164 233,-470 502,-470 502,-164 233,-164"/>
</a>
</g>
</g>
<!-- ad_wf_process -->
<g id="node2" class="node">
<title>ad_wf_process</title>
<g id="a_node2"><a xlink:href="../../tables/ad_wf_process.html" xlink:title="ad_wf_process" target="_top">
<polygon fill="#ffffff" stroke="transparent" points="8,-37 8,-293 183,-293 183,-37 8,-37"/>
<polygon fill="#f5f5f5" stroke="transparent" points="8.5,-271 8.5,-293 183.5,-293 183.5,-271 8.5,-271"/>
<polygon fill="none" stroke="black" points="8.5,-271 8.5,-293 183.5,-293 183.5,-271 8.5,-271"/>
<text text-anchor="start" x="13.5" y="-280.2" font-family="Helvetica,sans-Serif" font-weight="bold" font-size="11.00">ad_wf_process</text>
<text text-anchor="start" x="148.5" y="-279.2" font-family="Helvetica,sans-Serif" font-size="11.00">[table]</text>
<polygon fill="none" stroke="black" points="8.5,-249 8.5,-271 183.5,-271 183.5,-249 8.5,-249"/>
<image xlink:href="../../images/primaryKeys.png" width="11px" height="12px" preserveAspectRatio="xMinYMin meet" x="13.5" y="-266"/>
<text text-anchor="start" x="28.5" y="-257.2" font-family="Helvetica,sans-Serif" font-size="11.00">ad_wf_process_id</text>
<polygon fill="none" stroke="black" points="8.5,-227 8.5,-249 183.5,-249 183.5,-227 8.5,-227"/>
<image xlink:href="../../images/foreignKeys.png" width="11px" height="12px" preserveAspectRatio="xMinYMin meet" x="13.5" y="-244"/>
<text text-anchor="start" x="28.5" y="-235.2" font-family="Helvetica,sans-Serif" font-size="11.00">ad_client_id</text>
<polygon fill="none" stroke="black" points="8.5,-205 8.5,-227 183.5,-227 183.5,-205 8.5,-205"/>
<image xlink:href="../../images/foreignKeys.png" width="11px" height="12px" preserveAspectRatio="xMinYMin meet" x="13.5" y="-222"/>
<text text-anchor="start" x="28.5" y="-213.2" font-family="Helvetica,sans-Serif" font-size="11.00">ad_org_id</text>
<polygon fill="#ffffff" stroke="transparent" points="8.5,-183 8.5,-205 183.5,-205 183.5,-183 8.5,-183"/>
<polygon fill="none" stroke="black" points="8.5,-183 8.5,-205 183.5,-205 183.5,-183 8.5,-183"/>
<image xlink:href="../../images/foreignKeys.png" width="11px" height="12px" preserveAspectRatio="xMinYMin meet" x="13.5" y="-200"/>
<text text-anchor="start" x="28.5" y="-191.2" font-family="Helvetica,sans-Serif" font-size="11.00">ad_workflow_id</text>
<polygon fill="none" stroke="black" points="8.5,-161 8.5,-183 183.5,-183 183.5,-161 8.5,-161"/>
<image xlink:href="../../images/foreignKeys.png" width="11px" height="12px" preserveAspectRatio="xMinYMin meet" x="13.5" y="-178"/>
<text text-anchor="start" x="28.5" y="-169.2" font-family="Helvetica,sans-Serif" font-size="11.00">ad_wf_responsible_id</text>
<polygon fill="none" stroke="black" points="8.5,-139 8.5,-161 183.5,-161 183.5,-139 8.5,-139"/>
<image xlink:href="../../images/foreignKeys.png" width="11px" height="12px" preserveAspectRatio="xMinYMin meet" x="13.5" y="-156"/>
<text text-anchor="start" x="28.5" y="-147.2" font-family="Helvetica,sans-Serif" font-size="11.00">ad_user_id</text>
<polygon fill="none" stroke="black" points="8.5,-117 8.5,-139 183.5,-139 183.5,-117 8.5,-117"/>
<image xlink:href="../../images/foreignKeys.png" width="11px" height="12px" preserveAspectRatio="xMinYMin meet" x="13.5" y="-134"/>
<text text-anchor="start" x="28.5" y="-125.2" font-family="Helvetica,sans-Serif" font-size="11.00">ad_message_id</text>
<polygon fill="none" stroke="black" points="8.5,-95 8.5,-117 183.5,-117 183.5,-95 8.5,-95"/>
<image xlink:href="../../images/foreignKeys.png" width="11px" height="12px" preserveAspectRatio="xMinYMin meet" x="13.5" y="-112"/>
<text text-anchor="start" x="28.5" y="-103.2" font-family="Helvetica,sans-Serif" font-size="11.00">ad_table_id</text>
<polygon fill="#ffffff" stroke="transparent" points="8.5,-73 8.5,-95 183.5,-95 183.5,-73 8.5,-73"/>
<polygon fill="none" stroke="black" points="8.5,-73 8.5,-95 183.5,-95 183.5,-73 8.5,-73"/>
<text text-anchor="start" x="28.5" y="-81.2" font-family="Helvetica,sans-Serif" font-size="11.00">ad_wf_process_uu</text>
<polygon fill="none" stroke="black" points="8.5,-55 8.5,-73 183.5,-73 183.5,-55 8.5,-55"/>
<text text-anchor="start" x="11.5" y="-61.2" font-family="Helvetica,sans-Serif" font-size="11.00">...</text>
<polygon fill="#ffffff" stroke="transparent" points="8.5,-37 8.5,-55 183.5,-55 183.5,-37 8.5,-37"/>
<polygon fill="none" stroke="black" points="8.5,-37 8.5,-55 183.5,-55 183.5,-37 8.5,-37"/>
<polygon fill="#ffffff" stroke="transparent" points="9.5,-38 9.5,-54 70.5,-54 70.5,-38 9.5,-38"/>
<text text-anchor="start" x="11.5" y="-43.2" font-family="Helvetica,sans-Serif" font-size="11.00">&lt; 8</text>
<polygon fill="#ffffff" stroke="transparent" points="70.5,-38 70.5,-54 122.5,-54 122.5,-38 70.5,-38"/>
<text text-anchor="start" x="93" y="-43.2" font-family="Helvetica,sans-Serif" font-size="11.00"> &#160;</text>
<polygon fill="#ffffff" stroke="transparent" points="122.5,-38 122.5,-54 182.5,-54 182.5,-38 122.5,-38"/>
<text text-anchor="start" x="164.5" y="-43.2" font-family="Helvetica,sans-Serif" font-size="11.00">4 &gt;</text>
<polygon fill="black" stroke="black" points="70.5,-38 70.5,-54 70.5,-54 70.5,-38 70.5,-38"/>
<polygon fill="black" stroke="black" points="122.5,-38 122.5,-54 122.5,-54 122.5,-38 122.5,-38"/>
</a>
</g>
</g>
<!-- ad_wf_processdata&#45;&gt;ad_wf_process -->
<g id="edge1" class="edge">
<title>ad_wf_processdata:w&#45;&gt;ad_wf_process:e</title>
<path fill="none" stroke="black" d="M218.99,-260C207.68,-260 200.49,-260 184.5,-260"/>
<polygon fill="black" stroke="black" points="225.5,-260 233.5,-263.6 229.5,-260 233.5,-260 233.5,-260 233.5,-260 229.5,-260 233.5,-256.4 225.5,-260 225.5,-260"/>
<ellipse fill="none" stroke="black" cx="222.3" cy="-260" rx="3.2" ry="3.2"/>
</g>
</g>
</svg>
