<?xml version="1.0" encoding="UTF-8" standalone="no"?>
<!DOCTYPE svg PUBLIC "-//W3C//DTD SVG 1.1//EN"
 "http://www.w3.org/Graphics/SVG/1.1/DTD/svg11.dtd">
<!-- Generated by graphviz version 2.43.0 (0)
 -->
<!-- Title: oneDegreeRelationshipsDiagram Pages: 1 -->
<svg width="516pt" height="494pt"
 viewBox="0.00 0.00 516.00 494.00" xmlns="http://www.w3.org/2000/svg" xmlns:xlink="http://www.w3.org/1999/xlink">
<g id="graph0" class="graph" transform="scale(1 1) rotate(0) translate(4 490)">
<title>oneDegreeRelationshipsDiagram</title>
<polygon fill="#ffffff" stroke="transparent" points="-4,4 -4,-490 512,-490 512,4 -4,4"/>
<text text-anchor="middle" x="71.5" y="-7.2" font-family="Helvetica,sans-Serif" font-size="11.00">Generated by SchemaSpy</text>
<!-- asp_process_para -->
<g id="node1" class="node">
<title>asp_process_para</title>
<g id="a_node1"><a xlink:href="../../tables/asp_process_para.html" xlink:title="asp_process_para" target="_top">
<polygon fill="#ffffff" stroke="transparent" points="239,-136 239,-444 500,-444 500,-136 239,-136"/>
<polygon fill="#f5f5f5" stroke="transparent" points="241.5,-420 241.5,-442 498.5,-442 498.5,-420 241.5,-420"/>
<polygon fill="none" stroke="black" points="241.5,-420 241.5,-442 498.5,-442 498.5,-420 241.5,-420"/>
<text text-anchor="start" x="246.5" y="-429.2" font-family="Helvetica,sans-Serif" font-weight="bold" font-size="11.00">asp_process_para</text>
<text text-anchor="start" x="463.5" y="-428.2" font-family="Helvetica,sans-Serif" font-size="11.00">[table]</text>
<polygon fill="none" stroke="black" points="241.5,-398 241.5,-420 415.5,-420 415.5,-398 241.5,-398"/>
<text text-anchor="start" x="261.5" y="-406.2" font-family="Helvetica,sans-Serif" font-size="11.00">ad_client_id</text>
<polygon fill="none" stroke="black" points="415.5,-398 415.5,-420 498.5,-420 498.5,-398 415.5,-398"/>
<text text-anchor="start" x="418.5" y="-406.2" font-family="Helvetica,sans-Serif" font-size="11.00">numeric[10]</text>
<polygon fill="none" stroke="black" points="241.5,-376 241.5,-398 415.5,-398 415.5,-376 241.5,-376"/>
<text text-anchor="start" x="261.5" y="-384.2" font-family="Helvetica,sans-Serif" font-size="11.00">ad_org_id</text>
<polygon fill="none" stroke="black" points="415.5,-376 415.5,-398 498.5,-398 498.5,-376 415.5,-376"/>
<text text-anchor="start" x="418.5" y="-384.2" font-family="Helvetica,sans-Serif" font-size="11.00">numeric[10]</text>
<polygon fill="#ffffff" stroke="transparent" points="241.5,-354 241.5,-376 415.5,-376 415.5,-354 241.5,-354"/>
<polygon fill="none" stroke="black" points="241.5,-354 241.5,-376 415.5,-376 415.5,-354 241.5,-354"/>
<image xlink:href="../../images/foreignKeys.png" width="11px" height="12px" preserveAspectRatio="xMinYMin meet" x="246.5" y="-371"/>
<text text-anchor="start" x="261.5" y="-362.2" font-family="Helvetica,sans-Serif" font-size="11.00">ad_process_para_id</text>
<polygon fill="none" stroke="black" points="415.5,-354 415.5,-376 498.5,-376 498.5,-354 415.5,-354"/>
<text text-anchor="start" x="418.5" y="-362.2" font-family="Helvetica,sans-Serif" font-size="11.00">numeric[10]</text>
<polygon fill="none" stroke="black" points="241.5,-332 241.5,-354 415.5,-354 415.5,-332 241.5,-332"/>
<text text-anchor="start" x="261.5" y="-340.2" font-family="Helvetica,sans-Serif" font-size="11.00">asp_status</text>
<polygon fill="none" stroke="black" points="415.5,-332 415.5,-354 498.5,-354 498.5,-332 415.5,-332"/>
<text text-anchor="start" x="418.5" y="-340.2" font-family="Helvetica,sans-Serif" font-size="11.00">bpchar[1]</text>
<polygon fill="none" stroke="black" points="241.5,-310 241.5,-332 415.5,-332 415.5,-310 241.5,-310"/>
<text text-anchor="start" x="261.5" y="-318.2" font-family="Helvetica,sans-Serif" font-size="11.00">created</text>
<polygon fill="none" stroke="black" points="415.5,-310 415.5,-332 498.5,-332 498.5,-310 415.5,-310"/>
<text text-anchor="start" x="418.5" y="-318.2" font-family="Helvetica,sans-Serif" font-size="11.00">timestamp[29,6]</text>
<polygon fill="none" stroke="black" points="241.5,-288 241.5,-310 415.5,-310 415.5,-288 241.5,-288"/>
<text text-anchor="start" x="261.5" y="-296.2" font-family="Helvetica,sans-Serif" font-size="11.00">createdby</text>
<polygon fill="none" stroke="black" points="415.5,-288 415.5,-310 498.5,-310 498.5,-288 415.5,-288"/>
<text text-anchor="start" x="418.5" y="-296.2" font-family="Helvetica,sans-Serif" font-size="11.00">numeric[10]</text>
<polygon fill="none" stroke="black" points="241.5,-266 241.5,-288 415.5,-288 415.5,-266 241.5,-266"/>
<text text-anchor="start" x="261.5" y="-274.2" font-family="Helvetica,sans-Serif" font-size="11.00">isactive</text>
<polygon fill="none" stroke="black" points="415.5,-266 415.5,-288 498.5,-288 498.5,-266 415.5,-266"/>
<text text-anchor="start" x="418.5" y="-274.2" font-family="Helvetica,sans-Serif" font-size="11.00">bpchar[1]</text>
<polygon fill="none" stroke="black" points="241.5,-244 241.5,-266 415.5,-266 415.5,-244 241.5,-244"/>
<text text-anchor="start" x="261.5" y="-252.2" font-family="Helvetica,sans-Serif" font-size="11.00">updated</text>
<polygon fill="none" stroke="black" points="415.5,-244 415.5,-266 498.5,-266 498.5,-244 415.5,-244"/>
<text text-anchor="start" x="418.5" y="-252.2" font-family="Helvetica,sans-Serif" font-size="11.00">timestamp[29,6]</text>
<polygon fill="none" stroke="black" points="241.5,-222 241.5,-244 415.5,-244 415.5,-222 241.5,-222"/>
<text text-anchor="start" x="261.5" y="-230.2" font-family="Helvetica,sans-Serif" font-size="11.00">updatedby</text>
<polygon fill="none" stroke="black" points="415.5,-222 415.5,-244 498.5,-244 498.5,-222 415.5,-222"/>
<text text-anchor="start" x="418.5" y="-230.2" font-family="Helvetica,sans-Serif" font-size="11.00">numeric[10]</text>
<polygon fill="none" stroke="black" points="241.5,-200 241.5,-222 415.5,-222 415.5,-200 241.5,-200"/>
<image xlink:href="../../images/primaryKeys.png" width="11px" height="12px" preserveAspectRatio="xMinYMin meet" x="246.5" y="-217"/>
<text text-anchor="start" x="261.5" y="-208.2" font-family="Helvetica,sans-Serif" font-size="11.00">asp_process_para_id</text>
<polygon fill="none" stroke="black" points="415.5,-200 415.5,-222 498.5,-222 498.5,-200 415.5,-200"/>
<text text-anchor="start" x="418.5" y="-208.2" font-family="Helvetica,sans-Serif" font-size="11.00">numeric[10]</text>
<polygon fill="#ffffff" stroke="transparent" points="241.5,-178 241.5,-200 415.5,-200 415.5,-178 241.5,-178"/>
<polygon fill="none" stroke="black" points="241.5,-178 241.5,-200 415.5,-200 415.5,-178 241.5,-178"/>
<image xlink:href="../../images/foreignKeys.png" width="11px" height="12px" preserveAspectRatio="xMinYMin meet" x="246.5" y="-195"/>
<text text-anchor="start" x="261.5" y="-186.2" font-family="Helvetica,sans-Serif" font-size="11.00">asp_process_id</text>
<polygon fill="none" stroke="black" points="415.5,-178 415.5,-200 498.5,-200 498.5,-178 415.5,-178"/>
<text text-anchor="start" x="418.5" y="-186.2" font-family="Helvetica,sans-Serif" font-size="11.00">numeric[10]</text>
<polygon fill="#ffffff" stroke="transparent" points="241.5,-156 241.5,-178 415.5,-178 415.5,-156 241.5,-156"/>
<polygon fill="none" stroke="black" points="241.5,-156 241.5,-178 415.5,-178 415.5,-156 241.5,-156"/>
<text text-anchor="start" x="261.5" y="-164.2" font-family="Helvetica,sans-Serif" font-size="11.00">asp_process_para_uu</text>
<polygon fill="none" stroke="black" points="415.5,-156 415.5,-178 498.5,-178 498.5,-156 415.5,-156"/>
<text text-anchor="start" x="418.5" y="-164.2" font-family="Helvetica,sans-Serif" font-size="11.00">varchar[36]</text>
<polygon fill="#ffffff" stroke="transparent" points="241.5,-138 241.5,-156 498.5,-156 498.5,-138 241.5,-138"/>
<polygon fill="none" stroke="black" points="241.5,-138 241.5,-156 498.5,-156 498.5,-138 241.5,-138"/>
<polygon fill="#ffffff" stroke="transparent" points="242.5,-139 242.5,-155 330.5,-155 330.5,-139 242.5,-139"/>
<text text-anchor="start" x="244.5" y="-144.2" font-family="Helvetica,sans-Serif" font-size="11.00">&lt; 2</text>
<polygon fill="#ffffff" stroke="transparent" points="330.5,-139 330.5,-155 409.5,-155 409.5,-139 330.5,-139"/>
<text text-anchor="start" x="366.5" y="-144.2" font-family="Helvetica,sans-Serif" font-size="11.00"> &#160;</text>
<polygon fill="#ffffff" stroke="transparent" points="409.5,-139 409.5,-155 497.5,-155 497.5,-139 409.5,-139"/>
<text text-anchor="start" x="479.5" y="-144.2" font-family="Helvetica,sans-Serif" font-size="11.00">0 &gt;</text>
<polygon fill="black" stroke="black" points="330.5,-139 330.5,-155 330.5,-155 330.5,-139 330.5,-139"/>
<polygon fill="black" stroke="black" points="409.5,-139 409.5,-155 409.5,-155 409.5,-139 409.5,-139"/>
<polygon fill="none" stroke="black" stroke-width="2" points="240,-137 240,-443 499,-443 499,-137 240,-137"/>
</a>
</g>
</g>
<!-- ad_process_para -->
<g id="node2" class="node">
<title>ad_process_para</title>
<g id="a_node2"><a xlink:href="../../tables/ad_process_para.html" xlink:title="ad_process_para" target="_top">
<polygon fill="#ffffff" stroke="transparent" points="8,-204 8,-482 190,-482 190,-204 8,-204"/>
<polygon fill="#f5f5f5" stroke="transparent" points="8,-460 8,-482 190,-482 190,-460 8,-460"/>
<polygon fill="none" stroke="black" points="8,-460 8,-482 190,-482 190,-460 8,-460"/>
<text text-anchor="start" x="13" y="-469.2" font-family="Helvetica,sans-Serif" font-weight="bold" font-size="11.00">ad_process_para</text>
<text text-anchor="start" x="155" y="-468.2" font-family="Helvetica,sans-Serif" font-size="11.00">[table]</text>
<polygon fill="none" stroke="black" points="8,-438 8,-460 190,-460 190,-438 8,-438"/>
<image xlink:href="../../images/primaryKeys.png" width="11px" height="12px" preserveAspectRatio="xMinYMin meet" x="13" y="-455"/>
<text text-anchor="start" x="28" y="-446.2" font-family="Helvetica,sans-Serif" font-size="11.00">ad_process_para_id</text>
<polygon fill="#ffffff" stroke="transparent" points="8,-416 8,-438 190,-438 190,-416 8,-416"/>
<polygon fill="none" stroke="black" points="8,-416 8,-438 190,-438 190,-416 8,-416"/>
<image xlink:href="../../images/foreignKeys.png" width="11px" height="12px" preserveAspectRatio="xMinYMin meet" x="13" y="-433"/>
<text text-anchor="start" x="28" y="-424.2" font-family="Helvetica,sans-Serif" font-size="11.00">ad_process_id</text>
<polygon fill="#ffffff" stroke="transparent" points="8,-394 8,-416 190,-416 190,-394 8,-394"/>
<polygon fill="none" stroke="black" points="8,-394 8,-416 190,-416 190,-394 8,-394"/>
<text text-anchor="start" x="28" y="-402.2" font-family="Helvetica,sans-Serif" font-size="11.00">seqno</text>
<polygon fill="none" stroke="black" points="8,-372 8,-394 190,-394 190,-372 8,-372"/>
<image xlink:href="../../images/foreignKeys.png" width="11px" height="12px" preserveAspectRatio="xMinYMin meet" x="13" y="-389"/>
<text text-anchor="start" x="28" y="-380.2" font-family="Helvetica,sans-Serif" font-size="11.00">ad_reference_id</text>
<polygon fill="none" stroke="black" points="8,-350 8,-372 190,-372 190,-350 8,-350"/>
<image xlink:href="../../images/foreignKeys.png" width="11px" height="12px" preserveAspectRatio="xMinYMin meet" x="13" y="-367"/>
<text text-anchor="start" x="28" y="-358.2" font-family="Helvetica,sans-Serif" font-size="11.00">ad_reference_value_id</text>
<polygon fill="none" stroke="black" points="8,-328 8,-350 190,-350 190,-328 8,-328"/>
<image xlink:href="../../images/foreignKeys.png" width="11px" height="12px" preserveAspectRatio="xMinYMin meet" x="13" y="-345"/>
<text text-anchor="start" x="28" y="-336.2" font-family="Helvetica,sans-Serif" font-size="11.00">ad_val_rule_id</text>
<polygon fill="none" stroke="black" points="8,-306 8,-328 190,-328 190,-306 8,-306"/>
<image xlink:href="../../images/foreignKeys.png" width="11px" height="12px" preserveAspectRatio="xMinYMin meet" x="13" y="-323"/>
<text text-anchor="start" x="28" y="-314.2" font-family="Helvetica,sans-Serif" font-size="11.00">ad_element_id</text>
<polygon fill="none" stroke="black" points="8,-284 8,-306 190,-306 190,-284 8,-284"/>
<image xlink:href="../../images/foreignKeys.png" width="11px" height="12px" preserveAspectRatio="xMinYMin meet" x="13" y="-301"/>
<text text-anchor="start" x="28" y="-292.2" font-family="Helvetica,sans-Serif" font-size="11.00">entitytype</text>
<polygon fill="#ffffff" stroke="transparent" points="8,-262 8,-284 190,-284 190,-262 8,-262"/>
<polygon fill="none" stroke="black" points="8,-262 8,-284 190,-284 190,-262 8,-262"/>
<text text-anchor="start" x="28" y="-270.2" font-family="Helvetica,sans-Serif" font-size="11.00">ad_process_para_uu</text>
<polygon fill="none" stroke="black" points="8,-240 8,-262 190,-262 190,-240 8,-240"/>
<image xlink:href="../../images/foreignKeys.png" width="11px" height="12px" preserveAspectRatio="xMinYMin meet" x="13" y="-257"/>
<text text-anchor="start" x="28" y="-248.2" font-family="Helvetica,sans-Serif" font-size="11.00">ad_fieldgroup_id</text>
<polygon fill="none" stroke="black" points="8,-222 8,-240 190,-240 190,-222 8,-222"/>
<text text-anchor="start" x="11" y="-228.2" font-family="Helvetica,sans-Serif" font-size="11.00">...</text>
<polygon fill="#ffffff" stroke="transparent" points="8,-204 8,-222 190,-222 190,-204 8,-204"/>
<polygon fill="none" stroke="black" points="8,-204 8,-222 190,-222 190,-204 8,-204"/>
<polygon fill="#ffffff" stroke="transparent" points="9,-205 9,-221 57,-221 57,-205 9,-205"/>
<text text-anchor="start" x="11" y="-210.2" font-family="Helvetica,sans-Serif" font-size="11.00">&lt; 7</text>
<polygon fill="#ffffff" stroke="transparent" points="57,-205 57,-221 142,-221 142,-205 57,-205"/>
<text text-anchor="start" x="72.5" y="-210.2" font-family="Helvetica,sans-Serif" font-size="11.00">3.964 rows</text>
<polygon fill="#ffffff" stroke="transparent" points="142,-205 142,-221 189,-221 189,-205 142,-205"/>
<text text-anchor="start" x="171" y="-210.2" font-family="Helvetica,sans-Serif" font-size="11.00">8 &gt;</text>
<polygon fill="black" stroke="black" points="57,-205 57,-221 57,-221 57,-205 57,-205"/>
<polygon fill="black" stroke="black" points="142,-205 142,-221 142,-221 142,-205 142,-205"/>
</a>
</g>
</g>
<!-- asp_process_para&#45;&gt;ad_process_para -->
<g id="edge1" class="edge">
<title>asp_process_para:w&#45;&gt;ad_process_para:e</title>
<path fill="none" stroke="black" d="M226.55,-369.52C206.03,-386.96 228.24,-449 191,-449"/>
<polygon fill="black" stroke="black" points="232.89,-367.46 241.61,-368.43 236.69,-366.23 240.5,-365 240.5,-365 240.5,-365 236.69,-366.23 239.39,-361.57 232.89,-367.46 232.89,-367.46"/>
<ellipse fill="none" stroke="black" cx="229.84" cy="-368.45" rx="3.2" ry="3.2"/>
</g>
<!-- asp_process -->
<g id="node3" class="node">
<title>asp_process</title>
<g id="a_node3"><a xlink:href="../../tables/asp_process.html" xlink:title="asp_process" target="_top">
<polygon fill="#ffffff" stroke="transparent" points="32,-37 32,-183 166,-183 166,-37 32,-37"/>
<polygon fill="#f5f5f5" stroke="transparent" points="32,-161 32,-183 166,-183 166,-161 32,-161"/>
<polygon fill="none" stroke="black" points="32,-161 32,-183 166,-183 166,-161 32,-161"/>
<text text-anchor="start" x="37" y="-170.2" font-family="Helvetica,sans-Serif" font-weight="bold" font-size="11.00">asp_process</text>
<text text-anchor="start" x="131" y="-169.2" font-family="Helvetica,sans-Serif" font-size="11.00">[table]</text>
<polygon fill="#ffffff" stroke="transparent" points="32,-139 32,-161 166,-161 166,-139 32,-139"/>
<polygon fill="none" stroke="black" points="32,-139 32,-161 166,-161 166,-139 32,-139"/>
<image xlink:href="../../images/foreignKeys.png" width="11px" height="12px" preserveAspectRatio="xMinYMin meet" x="37" y="-156"/>
<text text-anchor="start" x="52" y="-147.2" font-family="Helvetica,sans-Serif" font-size="11.00">ad_process_id</text>
<polygon fill="#ffffff" stroke="transparent" points="32,-117 32,-139 166,-139 166,-117 32,-117"/>
<polygon fill="none" stroke="black" points="32,-117 32,-139 166,-139 166,-117 32,-117"/>
<image xlink:href="../../images/foreignKeys.png" width="11px" height="12px" preserveAspectRatio="xMinYMin meet" x="37" y="-134"/>
<text text-anchor="start" x="52" y="-125.2" font-family="Helvetica,sans-Serif" font-size="11.00">asp_level_id</text>
<polygon fill="none" stroke="black" points="32,-95 32,-117 166,-117 166,-95 32,-95"/>
<image xlink:href="../../images/primaryKeys.png" width="11px" height="12px" preserveAspectRatio="xMinYMin meet" x="37" y="-112"/>
<text text-anchor="start" x="52" y="-103.2" font-family="Helvetica,sans-Serif" font-size="11.00">asp_process_id</text>
<polygon fill="#ffffff" stroke="transparent" points="32,-73 32,-95 166,-95 166,-73 32,-73"/>
<polygon fill="none" stroke="black" points="32,-73 32,-95 166,-95 166,-73 32,-73"/>
<text text-anchor="start" x="52" y="-81.2" font-family="Helvetica,sans-Serif" font-size="11.00">asp_process_uu</text>
<polygon fill="none" stroke="black" points="32,-55 32,-73 166,-73 166,-55 32,-55"/>
<text text-anchor="start" x="35" y="-61.2" font-family="Helvetica,sans-Serif" font-size="11.00">...</text>
<polygon fill="#ffffff" stroke="transparent" points="32,-37 32,-55 166,-55 166,-37 32,-37"/>
<polygon fill="none" stroke="black" points="32,-37 32,-55 166,-55 166,-37 32,-37"/>
<polygon fill="#ffffff" stroke="transparent" points="33,-38 33,-54 80,-54 80,-38 33,-38"/>
<text text-anchor="start" x="35" y="-43.2" font-family="Helvetica,sans-Serif" font-size="11.00">&lt; 2</text>
<polygon fill="#ffffff" stroke="transparent" points="80,-38 80,-54 118,-54 118,-38 80,-38"/>
<text text-anchor="start" x="95.5" y="-43.2" font-family="Helvetica,sans-Serif" font-size="11.00"> &#160;</text>
<polygon fill="#ffffff" stroke="transparent" points="118,-38 118,-54 165,-54 165,-38 118,-38"/>
<text text-anchor="start" x="147" y="-43.2" font-family="Helvetica,sans-Serif" font-size="11.00">1 &gt;</text>
<polygon fill="black" stroke="black" points="80,-38 80,-54 80,-54 80,-38 80,-38"/>
<polygon fill="black" stroke="black" points="118,-38 118,-54 118,-54 118,-38 118,-38"/>
</a>
</g>
</g>
<!-- asp_process_para&#45;&gt;asp_process -->
<g id="edge2" class="edge">
<title>asp_process_para:w&#45;&gt;asp_process:e</title>
<path fill="none" stroke="black" d="M226.4,-186.05C195.95,-171.26 210.69,-106 167,-106"/>
<polygon fill="black" stroke="black" points="232.67,-187.36 239.76,-192.52 236.58,-188.18 240.5,-189 240.5,-189 240.5,-189 236.58,-188.18 241.24,-185.48 232.67,-187.36 232.67,-187.36"/>
<ellipse fill="none" stroke="black" cx="229.54" cy="-186.7" rx="3.2" ry="3.2"/>
</g>
</g>
</svg>
