<?xml version="1.0" encoding="UTF-8" standalone="no"?>
<!DOCTYPE svg PUBLIC "-//W3C//DTD SVG 1.1//EN"
 "http://www.w3.org/Graphics/SVG/1.1/DTD/svg11.dtd">
<!-- Generated by graphviz version 2.43.0 (0)
 -->
<!-- Title: oneDegreeRelationshipsDiagram Pages: 1 -->
<svg width="622pt" height="357pt"
 viewBox="0.00 0.00 622.00 357.00" xmlns="http://www.w3.org/2000/svg" xmlns:xlink="http://www.w3.org/1999/xlink">
<g id="graph0" class="graph" transform="scale(1 1) rotate(0) translate(4 353)">
<title>oneDegreeRelationshipsDiagram</title>
<polygon fill="#ffffff" stroke="transparent" points="-4,4 -4,-353 618,-353 618,4 -4,4"/>
<text text-anchor="middle" x="71.5" y="-7.2" font-family="Helvetica,sans-Serif" font-size="11.00">Generated by SchemaSpy</text>
<!-- asp_clientlevel -->
<g id="node1" class="node">
<title>asp_clientlevel</title>
<g id="a_node1"><a xlink:href="../../tables/asp_clientlevel.html" xlink:title="asp_clientlevel" target="_top">
<polygon fill="#ffffff" stroke="transparent" points="365,-37 365,-345 606,-345 606,-37 365,-37"/>
<polygon fill="#f5f5f5" stroke="transparent" points="367.5,-321 367.5,-343 604.5,-343 604.5,-321 367.5,-321"/>
<polygon fill="none" stroke="black" points="367.5,-321 367.5,-343 604.5,-343 604.5,-321 367.5,-321"/>
<text text-anchor="start" x="372.5" y="-330.2" font-family="Helvetica,sans-Serif" font-weight="bold" font-size="11.00">asp_clientlevel</text>
<text text-anchor="start" x="569.5" y="-329.2" font-family="Helvetica,sans-Serif" font-size="11.00">[table]</text>
<polygon fill="#ffffff" stroke="transparent" points="367.5,-299 367.5,-321 521.5,-321 521.5,-299 367.5,-299"/>
<polygon fill="none" stroke="black" points="367.5,-299 367.5,-321 521.5,-321 521.5,-299 367.5,-299"/>
<text text-anchor="start" x="387.5" y="-307.2" font-family="Helvetica,sans-Serif" font-size="11.00">ad_client_id</text>
<polygon fill="none" stroke="black" points="521.5,-299 521.5,-321 604.5,-321 604.5,-299 521.5,-299"/>
<text text-anchor="start" x="524.5" y="-307.2" font-family="Helvetica,sans-Serif" font-size="11.00">numeric[10]</text>
<polygon fill="none" stroke="black" points="367.5,-277 367.5,-299 521.5,-299 521.5,-277 367.5,-277"/>
<text text-anchor="start" x="387.5" y="-285.2" font-family="Helvetica,sans-Serif" font-size="11.00">ad_org_id</text>
<polygon fill="none" stroke="black" points="521.5,-277 521.5,-299 604.5,-299 604.5,-277 521.5,-277"/>
<text text-anchor="start" x="524.5" y="-285.2" font-family="Helvetica,sans-Serif" font-size="11.00">numeric[10]</text>
<polygon fill="none" stroke="black" points="367.5,-255 367.5,-277 521.5,-277 521.5,-255 367.5,-255"/>
<image xlink:href="../../images/primaryKeys.png" width="11px" height="12px" preserveAspectRatio="xMinYMin meet" x="372.5" y="-272"/>
<text text-anchor="start" x="387.5" y="-263.2" font-family="Helvetica,sans-Serif" font-size="11.00">asp_clientlevel_id</text>
<polygon fill="none" stroke="black" points="521.5,-255 521.5,-277 604.5,-277 604.5,-255 521.5,-255"/>
<text text-anchor="start" x="524.5" y="-263.2" font-family="Helvetica,sans-Serif" font-size="11.00">numeric[10]</text>
<polygon fill="#ffffff" stroke="transparent" points="367.5,-233 367.5,-255 521.5,-255 521.5,-233 367.5,-233"/>
<polygon fill="none" stroke="black" points="367.5,-233 367.5,-255 521.5,-255 521.5,-233 367.5,-233"/>
<image xlink:href="../../images/foreignKeys.png" width="11px" height="12px" preserveAspectRatio="xMinYMin meet" x="372.5" y="-250"/>
<text text-anchor="start" x="387.5" y="-241.2" font-family="Helvetica,sans-Serif" font-size="11.00">asp_level_id</text>
<polygon fill="none" stroke="black" points="521.5,-233 521.5,-255 604.5,-255 604.5,-233 521.5,-233"/>
<text text-anchor="start" x="524.5" y="-241.2" font-family="Helvetica,sans-Serif" font-size="11.00">numeric[10]</text>
<polygon fill="none" stroke="black" points="367.5,-211 367.5,-233 521.5,-233 521.5,-211 367.5,-211"/>
<image xlink:href="../../images/foreignKeys.png" width="11px" height="12px" preserveAspectRatio="xMinYMin meet" x="372.5" y="-228"/>
<text text-anchor="start" x="387.5" y="-219.2" font-family="Helvetica,sans-Serif" font-size="11.00">asp_module_id</text>
<polygon fill="none" stroke="black" points="521.5,-211 521.5,-233 604.5,-233 604.5,-211 521.5,-211"/>
<text text-anchor="start" x="524.5" y="-219.2" font-family="Helvetica,sans-Serif" font-size="11.00">numeric[10]</text>
<polygon fill="none" stroke="black" points="367.5,-189 367.5,-211 521.5,-211 521.5,-189 367.5,-189"/>
<text text-anchor="start" x="387.5" y="-197.2" font-family="Helvetica,sans-Serif" font-size="11.00">created</text>
<polygon fill="none" stroke="black" points="521.5,-189 521.5,-211 604.5,-211 604.5,-189 521.5,-189"/>
<text text-anchor="start" x="524.5" y="-197.2" font-family="Helvetica,sans-Serif" font-size="11.00">timestamp[29,6]</text>
<polygon fill="none" stroke="black" points="367.5,-167 367.5,-189 521.5,-189 521.5,-167 367.5,-167"/>
<text text-anchor="start" x="387.5" y="-175.2" font-family="Helvetica,sans-Serif" font-size="11.00">createdby</text>
<polygon fill="none" stroke="black" points="521.5,-167 521.5,-189 604.5,-189 604.5,-167 521.5,-167"/>
<text text-anchor="start" x="524.5" y="-175.2" font-family="Helvetica,sans-Serif" font-size="11.00">numeric[10]</text>
<polygon fill="none" stroke="black" points="367.5,-145 367.5,-167 521.5,-167 521.5,-145 367.5,-145"/>
<text text-anchor="start" x="387.5" y="-153.2" font-family="Helvetica,sans-Serif" font-size="11.00">help</text>
<polygon fill="none" stroke="black" points="521.5,-145 521.5,-167 604.5,-167 604.5,-145 521.5,-145"/>
<text text-anchor="start" x="524.5" y="-153.2" font-family="Helvetica,sans-Serif" font-size="11.00">varchar[2000]</text>
<polygon fill="none" stroke="black" points="367.5,-123 367.5,-145 521.5,-145 521.5,-123 367.5,-123"/>
<text text-anchor="start" x="387.5" y="-131.2" font-family="Helvetica,sans-Serif" font-size="11.00">isactive</text>
<polygon fill="none" stroke="black" points="521.5,-123 521.5,-145 604.5,-145 604.5,-123 521.5,-123"/>
<text text-anchor="start" x="524.5" y="-131.2" font-family="Helvetica,sans-Serif" font-size="11.00">bpchar[1]</text>
<polygon fill="none" stroke="black" points="367.5,-101 367.5,-123 521.5,-123 521.5,-101 367.5,-101"/>
<text text-anchor="start" x="387.5" y="-109.2" font-family="Helvetica,sans-Serif" font-size="11.00">updated</text>
<polygon fill="none" stroke="black" points="521.5,-101 521.5,-123 604.5,-123 604.5,-101 521.5,-101"/>
<text text-anchor="start" x="524.5" y="-109.2" font-family="Helvetica,sans-Serif" font-size="11.00">timestamp[29,6]</text>
<polygon fill="none" stroke="black" points="367.5,-79 367.5,-101 521.5,-101 521.5,-79 367.5,-79"/>
<text text-anchor="start" x="387.5" y="-87.2" font-family="Helvetica,sans-Serif" font-size="11.00">updatedby</text>
<polygon fill="none" stroke="black" points="521.5,-79 521.5,-101 604.5,-101 604.5,-79 521.5,-79"/>
<text text-anchor="start" x="524.5" y="-87.2" font-family="Helvetica,sans-Serif" font-size="11.00">numeric[10]</text>
<polygon fill="#ffffff" stroke="transparent" points="367.5,-57 367.5,-79 521.5,-79 521.5,-57 367.5,-57"/>
<polygon fill="none" stroke="black" points="367.5,-57 367.5,-79 521.5,-79 521.5,-57 367.5,-57"/>
<text text-anchor="start" x="387.5" y="-65.2" font-family="Helvetica,sans-Serif" font-size="11.00">asp_clientlevel_uu</text>
<polygon fill="none" stroke="black" points="521.5,-57 521.5,-79 604.5,-79 604.5,-57 521.5,-57"/>
<text text-anchor="start" x="524.5" y="-65.2" font-family="Helvetica,sans-Serif" font-size="11.00">varchar[36]</text>
<polygon fill="#ffffff" stroke="transparent" points="367.5,-39 367.5,-57 604.5,-57 604.5,-39 367.5,-39"/>
<polygon fill="none" stroke="black" points="367.5,-39 367.5,-57 604.5,-57 604.5,-39 367.5,-39"/>
<polygon fill="#ffffff" stroke="transparent" points="368.5,-40 368.5,-56 450.5,-56 450.5,-40 368.5,-40"/>
<text text-anchor="start" x="370.5" y="-45.2" font-family="Helvetica,sans-Serif" font-size="11.00">&lt; 2</text>
<polygon fill="#ffffff" stroke="transparent" points="450.5,-40 450.5,-56 522.5,-56 522.5,-40 450.5,-40"/>
<text text-anchor="start" x="483" y="-45.2" font-family="Helvetica,sans-Serif" font-size="11.00"> &#160;</text>
<polygon fill="#ffffff" stroke="transparent" points="522.5,-40 522.5,-56 603.5,-56 603.5,-40 522.5,-40"/>
<text text-anchor="start" x="585.5" y="-45.2" font-family="Helvetica,sans-Serif" font-size="11.00">0 &gt;</text>
<polygon fill="black" stroke="black" points="450.5,-40 450.5,-56 450.5,-56 450.5,-40 450.5,-40"/>
<polygon fill="black" stroke="black" points="522.5,-40 522.5,-56 522.5,-56 522.5,-40 522.5,-40"/>
<polygon fill="none" stroke="black" stroke-width="2" points="366,-38 366,-344 605,-344 605,-38 366,-38"/>
</a>
</g>
</g>
<!-- asp_level -->
<g id="node2" class="node">
<title>asp_level</title>
<g id="a_node2"><a xlink:href="../../tables/asp_level.html" xlink:title="asp_level" target="_top">
<polygon fill="#ffffff" stroke="transparent" points="189,-200 189,-324 316,-324 316,-200 189,-200"/>
<polygon fill="#f5f5f5" stroke="transparent" points="189.5,-302 189.5,-324 316.5,-324 316.5,-302 189.5,-302"/>
<polygon fill="none" stroke="black" points="189.5,-302 189.5,-324 316.5,-324 316.5,-302 189.5,-302"/>
<text text-anchor="start" x="194.5" y="-311.2" font-family="Helvetica,sans-Serif" font-weight="bold" font-size="11.00">asp_level</text>
<text text-anchor="start" x="281.5" y="-310.2" font-family="Helvetica,sans-Serif" font-size="11.00">[table]</text>
<polygon fill="none" stroke="black" points="189.5,-280 189.5,-302 316.5,-302 316.5,-280 189.5,-280"/>
<image xlink:href="../../images/primaryKeys.png" width="11px" height="12px" preserveAspectRatio="xMinYMin meet" x="194.5" y="-297"/>
<text text-anchor="start" x="209.5" y="-288.2" font-family="Helvetica,sans-Serif" font-size="11.00">asp_level_id</text>
<polygon fill="none" stroke="black" points="189.5,-258 189.5,-280 316.5,-280 316.5,-258 189.5,-258"/>
<image xlink:href="../../images/foreignKeys.png" width="11px" height="12px" preserveAspectRatio="xMinYMin meet" x="194.5" y="-275"/>
<text text-anchor="start" x="209.5" y="-266.2" font-family="Helvetica,sans-Serif" font-size="11.00">asp_module_id</text>
<polygon fill="#ffffff" stroke="transparent" points="189.5,-236 189.5,-258 316.5,-258 316.5,-236 189.5,-236"/>
<polygon fill="none" stroke="black" points="189.5,-236 189.5,-258 316.5,-258 316.5,-236 189.5,-236"/>
<text text-anchor="start" x="209.5" y="-244.2" font-family="Helvetica,sans-Serif" font-size="11.00">asp_level_uu</text>
<polygon fill="none" stroke="black" points="189.5,-218 189.5,-236 316.5,-236 316.5,-218 189.5,-218"/>
<text text-anchor="start" x="192.5" y="-224.2" font-family="Helvetica,sans-Serif" font-size="11.00">...</text>
<polygon fill="#ffffff" stroke="transparent" points="189.5,-200 189.5,-218 316.5,-218 316.5,-200 189.5,-200"/>
<polygon fill="none" stroke="black" points="189.5,-200 189.5,-218 316.5,-218 316.5,-200 189.5,-200"/>
<polygon fill="#ffffff" stroke="transparent" points="190.5,-201 190.5,-217 235.5,-217 235.5,-201 190.5,-201"/>
<text text-anchor="start" x="192.5" y="-206.2" font-family="Helvetica,sans-Serif" font-size="11.00">&lt; 1</text>
<polygon fill="#ffffff" stroke="transparent" points="235.5,-201 235.5,-217 271.5,-217 271.5,-201 235.5,-201"/>
<text text-anchor="start" x="250" y="-206.2" font-family="Helvetica,sans-Serif" font-size="11.00"> &#160;</text>
<polygon fill="#ffffff" stroke="transparent" points="271.5,-201 271.5,-217 315.5,-217 315.5,-201 271.5,-201"/>
<text text-anchor="start" x="297.5" y="-206.2" font-family="Helvetica,sans-Serif" font-size="11.00">7 &gt;</text>
<polygon fill="black" stroke="black" points="235.5,-201 235.5,-217 235.5,-217 235.5,-201 235.5,-201"/>
<polygon fill="black" stroke="black" points="271.5,-201 271.5,-217 271.5,-217 271.5,-201 271.5,-201"/>
</a>
</g>
</g>
<!-- asp_clientlevel&#45;&gt;asp_level -->
<g id="edge1" class="edge">
<title>asp_clientlevel:w&#45;&gt;asp_level:e</title>
<path fill="none" stroke="black" d="M352.56,-249.03C339.22,-261.15 341.55,-291 317.5,-291"/>
<polygon fill="black" stroke="black" points="358.97,-246.71 367.72,-247.39 362.74,-245.36 366.5,-244 366.5,-244 366.5,-244 362.74,-245.36 365.28,-240.61 358.97,-246.71 358.97,-246.71"/>
<ellipse fill="none" stroke="black" cx="355.96" cy="-247.8" rx="3.2" ry="3.2"/>
</g>
<!-- asp_module -->
<g id="node3" class="node">
<title>asp_module</title>
<g id="a_node3"><a xlink:href="../../tables/asp_module.html" xlink:title="asp_module" target="_top">
<polygon fill="#ffffff" stroke="transparent" points="8,-131 8,-277 140,-277 140,-131 8,-131"/>
<polygon fill="#f5f5f5" stroke="transparent" points="8,-255 8,-277 140,-277 140,-255 8,-255"/>
<polygon fill="none" stroke="black" points="8,-255 8,-277 140,-277 140,-255 8,-255"/>
<text text-anchor="start" x="13" y="-264.2" font-family="Helvetica,sans-Serif" font-weight="bold" font-size="11.00">asp_module</text>
<text text-anchor="start" x="105" y="-263.2" font-family="Helvetica,sans-Serif" font-size="11.00">[table]</text>
<polygon fill="#ffffff" stroke="transparent" points="8,-233 8,-255 140,-255 140,-233 8,-233"/>
<polygon fill="none" stroke="black" points="8,-233 8,-255 140,-255 140,-233 8,-233"/>
<text text-anchor="start" x="28" y="-241.2" font-family="Helvetica,sans-Serif" font-size="11.00">ad_client_id</text>
<polygon fill="none" stroke="black" points="8,-211 8,-233 140,-233 140,-211 8,-211"/>
<image xlink:href="../../images/primaryKeys.png" width="11px" height="12px" preserveAspectRatio="xMinYMin meet" x="13" y="-228"/>
<text text-anchor="start" x="28" y="-219.2" font-family="Helvetica,sans-Serif" font-size="11.00">asp_module_id</text>
<polygon fill="#ffffff" stroke="transparent" points="8,-189 8,-211 140,-211 140,-189 8,-189"/>
<polygon fill="none" stroke="black" points="8,-189 8,-211 140,-211 140,-189 8,-189"/>
<text text-anchor="start" x="28" y="-197.2" font-family="Helvetica,sans-Serif" font-size="11.00">value</text>
<polygon fill="#ffffff" stroke="transparent" points="8,-167 8,-189 140,-189 140,-167 8,-167"/>
<polygon fill="none" stroke="black" points="8,-167 8,-189 140,-189 140,-167 8,-167"/>
<text text-anchor="start" x="28" y="-175.2" font-family="Helvetica,sans-Serif" font-size="11.00">asp_module_uu</text>
<polygon fill="none" stroke="black" points="8,-149 8,-167 140,-167 140,-149 8,-149"/>
<text text-anchor="start" x="11" y="-155.2" font-family="Helvetica,sans-Serif" font-size="11.00">...</text>
<polygon fill="#ffffff" stroke="transparent" points="8,-131 8,-149 140,-149 140,-131 8,-131"/>
<polygon fill="none" stroke="black" points="8,-131 8,-149 140,-149 140,-131 8,-131"/>
<polygon fill="#ffffff" stroke="transparent" points="9,-132 9,-148 50,-148 50,-132 9,-132"/>
<text text-anchor="start" x="11" y="-137.2" font-family="Helvetica,sans-Serif" font-size="11.00"> &#160;</text>
<polygon fill="#ffffff" stroke="transparent" points="50,-132 50,-148 90,-148 90,-132 50,-132"/>
<text text-anchor="start" x="66.5" y="-137.2" font-family="Helvetica,sans-Serif" font-size="11.00"> &#160;</text>
<polygon fill="#ffffff" stroke="transparent" points="90,-132 90,-148 139,-148 139,-132 90,-132"/>
<text text-anchor="start" x="121" y="-137.2" font-family="Helvetica,sans-Serif" font-size="11.00">2 &gt;</text>
<polygon fill="black" stroke="black" points="50,-132 50,-148 50,-148 50,-132 50,-132"/>
<polygon fill="black" stroke="black" points="90,-132 90,-148 90,-148 90,-132 90,-132"/>
</a>
</g>
</g>
<!-- asp_clientlevel&#45;&gt;asp_module -->
<g id="edge2" class="edge">
<title>asp_clientlevel:w&#45;&gt;asp_module:e</title>
<path fill="none" stroke="black" d="M352.42,-217.59C342.92,-210.18 340.47,-195.51 324,-190 263.72,-169.85 240.97,-168.96 181,-190 159.52,-197.54 163.77,-222 141,-222"/>
<polygon fill="black" stroke="black" points="358.87,-219.61 365.42,-225.44 362.68,-220.8 366.5,-222 366.5,-222 366.5,-222 362.68,-220.8 367.58,-218.56 358.87,-219.61 358.87,-219.61"/>
<ellipse fill="none" stroke="black" cx="355.81" cy="-218.65" rx="3.2" ry="3.2"/>
</g>
<!-- asp_level&#45;&gt;asp_module -->
<g id="edge3" class="edge">
<title>asp_level:w&#45;&gt;asp_module:e</title>
<path fill="none" stroke="black" d="M174.85,-263.97C161.92,-251.85 164.67,-222 141,-222"/>
<polygon fill="black" stroke="black" points="180.99,-266.23 187.25,-272.38 184.75,-267.62 188.5,-269 188.5,-269 188.5,-269 184.75,-267.62 189.75,-265.62 180.99,-266.23 180.99,-266.23"/>
<ellipse fill="none" stroke="black" cx="177.99" cy="-265.13" rx="3.2" ry="3.2"/>
</g>
</g>
</svg>
