<?xml version="1.0" encoding="UTF-8" standalone="no"?>
<!DOCTYPE svg PUBLIC "-//W3C//DTD SVG 1.1//EN"
 "http://www.w3.org/Graphics/SVG/1.1/DTD/svg11.dtd">
<!-- Generated by graphviz version 2.43.0 (0)
 -->
<!-- Title: oneDegreeRelationshipsDiagram Pages: 1 -->
<svg width="1421pt" height="872pt"
 viewBox="0.00 0.00 1421.00 871.82" xmlns="http://www.w3.org/2000/svg" xmlns:xlink="http://www.w3.org/1999/xlink">
<g id="graph0" class="graph" transform="scale(1 1) rotate(0) translate(4 867.82)">
<title>oneDegreeRelationshipsDiagram</title>
<polygon fill="#ffffff" stroke="transparent" points="-4,4 -4,-867.82 1417,-867.82 1417,4 -4,4"/>
<text text-anchor="middle" x="71.5" y="-7.2" font-family="Helvetica,sans-Serif" font-size="11.00">Generated by SchemaSpy</text>
<!-- ad_org -->
<g id="node1" class="node">
<title>ad_org</title>
<g id="a_node1"><a xlink:href="../../tables/ad_org.html" xlink:title="ad_org" target="_top">
<polygon fill="#ffffff" stroke="transparent" points="302,-570 302,-760 508,-760 508,-570 302,-570"/>
<polygon fill="#f5f5f5" stroke="transparent" points="302,-738 302,-760 508,-760 508,-738 302,-738"/>
<polygon fill="none" stroke="black" points="302,-738 302,-760 508,-760 508,-738 302,-738"/>
<text text-anchor="start" x="307" y="-747.2" font-family="Helvetica,sans-Serif" font-weight="bold" font-size="11.00">ad_org</text>
<text text-anchor="start" x="473" y="-746.2" font-family="Helvetica,sans-Serif" font-size="11.00">[table]</text>
<polygon fill="none" stroke="black" points="302,-716 302,-738 508,-738 508,-716 302,-716"/>
<image xlink:href="../../images/primaryKeys.png" width="11px" height="12px" preserveAspectRatio="xMinYMin meet" x="307" y="-733"/>
<text text-anchor="start" x="322" y="-724.2" font-family="Helvetica,sans-Serif" font-size="11.00">ad_org_id</text>
<polygon fill="#ffffff" stroke="transparent" points="302,-694 302,-716 508,-716 508,-694 302,-694"/>
<polygon fill="none" stroke="black" points="302,-694 302,-716 508,-716 508,-694 302,-694"/>
<image xlink:href="../../images/foreignKeys.png" width="11px" height="12px" preserveAspectRatio="xMinYMin meet" x="307" y="-711"/>
<text text-anchor="start" x="322" y="-702.2" font-family="Helvetica,sans-Serif" font-size="11.00">ad_client_id</text>
<polygon fill="#ffffff" stroke="transparent" points="302,-672 302,-694 508,-694 508,-672 302,-672"/>
<polygon fill="none" stroke="black" points="302,-672 302,-694 508,-694 508,-672 302,-672"/>
<text text-anchor="start" x="322" y="-680.2" font-family="Helvetica,sans-Serif" font-size="11.00">value</text>
<polygon fill="none" stroke="black" points="302,-650 302,-672 508,-672 508,-650 302,-650"/>
<image xlink:href="../../images/foreignKeys.png" width="11px" height="12px" preserveAspectRatio="xMinYMin meet" x="307" y="-667"/>
<text text-anchor="start" x="322" y="-658.2" font-family="Helvetica,sans-Serif" font-size="11.00">ad_replicationstrategy_id</text>
<polygon fill="#ffffff" stroke="transparent" points="302,-628 302,-650 508,-650 508,-628 302,-628"/>
<polygon fill="none" stroke="black" points="302,-628 302,-650 508,-650 508,-628 302,-628"/>
<text text-anchor="start" x="322" y="-636.2" font-family="Helvetica,sans-Serif" font-size="11.00">ad_org_uu</text>
<polygon fill="none" stroke="black" points="302,-606 302,-628 508,-628 508,-606 302,-606"/>
<image xlink:href="../../images/foreignKeys.png" width="11px" height="12px" preserveAspectRatio="xMinYMin meet" x="307" y="-623"/>
<text text-anchor="start" x="322" y="-614.2" font-family="Helvetica,sans-Serif" font-size="11.00">cof_c_snrange_id</text>
<polygon fill="none" stroke="black" points="302,-588 302,-606 508,-606 508,-588 302,-588"/>
<text text-anchor="start" x="305" y="-594.2" font-family="Helvetica,sans-Serif" font-size="11.00">...</text>
<polygon fill="#ffffff" stroke="transparent" points="302,-570 302,-588 508,-588 508,-570 302,-570"/>
<polygon fill="none" stroke="black" points="302,-570 302,-588 508,-588 508,-570 302,-570"/>
<polygon fill="#ffffff" stroke="transparent" points="303,-571 303,-587 362,-587 362,-571 303,-571"/>
<text text-anchor="start" x="305" y="-576.2" font-family="Helvetica,sans-Serif" font-size="11.00">&lt; 3</text>
<polygon fill="#ffffff" stroke="transparent" points="362,-571 362,-587 437,-587 437,-571 362,-571"/>
<text text-anchor="start" x="383" y="-576.2" font-family="Helvetica,sans-Serif" font-size="11.00">3 rows</text>
<polygon fill="#ffffff" stroke="transparent" points="437,-571 437,-587 507,-587 507,-571 437,-571"/>
<text text-anchor="start" x="477" y="-576.2" font-family="Helvetica,sans-Serif" font-size="11.00">284 &gt;</text>
<polygon fill="black" stroke="black" points="362,-571 362,-587 362,-587 362,-571 362,-571"/>
<polygon fill="black" stroke="black" points="437,-571 437,-587 437,-587 437,-571 437,-571"/>
</a>
</g>
</g>
<!-- ad_client -->
<g id="node2" class="node">
<title>ad_client</title>
<g id="a_node2"><a xlink:href="../../tables/ad_client.html" xlink:title="ad_client" target="_top">
<polygon fill="#ffffff" stroke="transparent" points="8,-565 8,-777 253,-777 253,-565 8,-565"/>
<polygon fill="#f5f5f5" stroke="transparent" points="8.5,-755 8.5,-777 253.5,-777 253.5,-755 8.5,-755"/>
<polygon fill="none" stroke="black" points="8.5,-755 8.5,-777 253.5,-777 253.5,-755 8.5,-755"/>
<text text-anchor="start" x="13.5" y="-764.2" font-family="Helvetica,sans-Serif" font-weight="bold" font-size="11.00">ad_client</text>
<text text-anchor="start" x="218.5" y="-763.2" font-family="Helvetica,sans-Serif" font-size="11.00">[table]</text>
<polygon fill="none" stroke="black" points="8.5,-733 8.5,-755 253.5,-755 253.5,-733 8.5,-733"/>
<image xlink:href="../../images/primaryKeys.png" width="11px" height="12px" preserveAspectRatio="xMinYMin meet" x="13.5" y="-750"/>
<text text-anchor="start" x="28.5" y="-741.2" font-family="Helvetica,sans-Serif" font-size="11.00">ad_client_id</text>
<polygon fill="#ffffff" stroke="transparent" points="8.5,-711 8.5,-733 253.5,-733 253.5,-711 8.5,-711"/>
<polygon fill="none" stroke="black" points="8.5,-711 8.5,-733 253.5,-733 253.5,-711 8.5,-711"/>
<text text-anchor="start" x="28.5" y="-719.2" font-family="Helvetica,sans-Serif" font-size="11.00">value</text>
<polygon fill="none" stroke="black" points="8.5,-689 8.5,-711 253.5,-711 253.5,-689 8.5,-689"/>
<image xlink:href="../../images/foreignKeys.png" width="11px" height="12px" preserveAspectRatio="xMinYMin meet" x="13.5" y="-706"/>
<text text-anchor="start" x="28.5" y="-697.2" font-family="Helvetica,sans-Serif" font-size="11.00">ad_language</text>
<polygon fill="none" stroke="black" points="8.5,-667 8.5,-689 253.5,-689 253.5,-667 8.5,-667"/>
<image xlink:href="../../images/foreignKeys.png" width="11px" height="12px" preserveAspectRatio="xMinYMin meet" x="13.5" y="-684"/>
<text text-anchor="start" x="28.5" y="-675.2" font-family="Helvetica,sans-Serif" font-size="11.00">ad_replicationstrategy_id</text>
<polygon fill="#ffffff" stroke="transparent" points="8.5,-645 8.5,-667 253.5,-667 253.5,-645 8.5,-645"/>
<polygon fill="none" stroke="black" points="8.5,-645 8.5,-667 253.5,-667 253.5,-645 8.5,-645"/>
<text text-anchor="start" x="28.5" y="-653.2" font-family="Helvetica,sans-Serif" font-size="11.00">ad_client_uu</text>
<polygon fill="none" stroke="black" points="8.5,-623 8.5,-645 253.5,-645 253.5,-623 8.5,-623"/>
<image xlink:href="../../images/foreignKeys.png" width="11px" height="12px" preserveAspectRatio="xMinYMin meet" x="13.5" y="-640"/>
<text text-anchor="start" x="28.5" y="-631.2" font-family="Helvetica,sans-Serif" font-size="11.00">ad_passwordrule_id</text>
<polygon fill="#ffffff" stroke="transparent" points="8.5,-601 8.5,-623 253.5,-623 253.5,-601 8.5,-601"/>
<polygon fill="none" stroke="black" points="8.5,-601 8.5,-623 253.5,-623 253.5,-601 8.5,-601"/>
<text text-anchor="start" x="28.5" y="-609.2" font-family="Helvetica,sans-Serif" font-size="11.00">loginprefix</text>
<polygon fill="none" stroke="black" points="8.5,-583 8.5,-601 253.5,-601 253.5,-583 8.5,-583"/>
<text text-anchor="start" x="11.5" y="-589.2" font-family="Helvetica,sans-Serif" font-size="11.00">...</text>
<polygon fill="#ffffff" stroke="transparent" points="8.5,-565 8.5,-583 253.5,-583 253.5,-565 8.5,-565"/>
<polygon fill="none" stroke="black" points="8.5,-565 8.5,-583 253.5,-583 253.5,-565 8.5,-565"/>
<polygon fill="#ffffff" stroke="transparent" points="9.5,-566 9.5,-582 81.5,-582 81.5,-566 9.5,-566"/>
<text text-anchor="start" x="11.5" y="-571.2" font-family="Helvetica,sans-Serif" font-size="11.00">&lt; 3</text>
<polygon fill="#ffffff" stroke="transparent" points="81.5,-566 81.5,-582 169.5,-582 169.5,-566 81.5,-566"/>
<text text-anchor="start" x="109" y="-571.2" font-family="Helvetica,sans-Serif" font-size="11.00">2 rows</text>
<polygon fill="#ffffff" stroke="transparent" points="169.5,-566 169.5,-582 252.5,-582 252.5,-566 169.5,-566"/>
<text text-anchor="start" x="222.5" y="-571.2" font-family="Helvetica,sans-Serif" font-size="11.00">204 &gt;</text>
<polygon fill="black" stroke="black" points="81.5,-566 81.5,-582 81.5,-582 81.5,-566 81.5,-566"/>
<polygon fill="black" stroke="black" points="169.5,-566 169.5,-582 169.5,-582 169.5,-566 169.5,-566"/>
</a>
</g>
</g>
<!-- ad_org&#45;&gt;ad_client -->
<g id="edge1" class="edge">
<title>ad_org:w&#45;&gt;ad_client:e</title>
<path fill="none" stroke="black" d="M287.17,-710.1C275.63,-720.67 275.36,-744 254.5,-744"/>
<polygon fill="black" stroke="black" points="293.49,-707.77 302.24,-708.38 297.25,-706.38 301,-705 301,-705 301,-705 297.25,-706.38 299.76,-701.62 293.49,-707.77 293.49,-707.77"/>
<ellipse fill="none" stroke="black" cx="290.49" cy="-708.87" rx="3.2" ry="3.2"/>
</g>
<!-- ad_user -->
<g id="node3" class="node">
<title>ad_user</title>
<g id="a_node3"><a xlink:href="../../tables/ad_user.html" xlink:title="ad_user" target="_top">
<polygon fill="#ffffff" stroke="transparent" points="557,-37 557,-601 797,-601 797,-37 557,-37"/>
<polygon fill="#f5f5f5" stroke="transparent" points="557,-579 557,-601 797,-601 797,-579 557,-579"/>
<polygon fill="none" stroke="black" points="557,-579 557,-601 797,-601 797,-579 557,-579"/>
<text text-anchor="start" x="562" y="-588.2" font-family="Helvetica,sans-Serif" font-weight="bold" font-size="11.00">ad_user</text>
<text text-anchor="start" x="762" y="-587.2" font-family="Helvetica,sans-Serif" font-size="11.00">[table]</text>
<polygon fill="none" stroke="black" points="557,-557 557,-579 797,-579 797,-557 557,-557"/>
<image xlink:href="../../images/primaryKeys.png" width="11px" height="12px" preserveAspectRatio="xMinYMin meet" x="562" y="-574"/>
<text text-anchor="start" x="577" y="-565.2" font-family="Helvetica,sans-Serif" font-size="11.00">ad_user_id</text>
<polygon fill="none" stroke="black" points="557,-535 557,-557 797,-557 797,-535 557,-535"/>
<image xlink:href="../../images/foreignKeys.png" width="11px" height="12px" preserveAspectRatio="xMinYMin meet" x="562" y="-552"/>
<text text-anchor="start" x="577" y="-543.2" font-family="Helvetica,sans-Serif" font-size="11.00">ad_client_id</text>
<polygon fill="none" stroke="black" points="557,-513 557,-535 797,-535 797,-513 557,-513"/>
<image xlink:href="../../images/foreignKeys.png" width="11px" height="12px" preserveAspectRatio="xMinYMin meet" x="562" y="-530"/>
<text text-anchor="start" x="577" y="-521.2" font-family="Helvetica,sans-Serif" font-size="11.00">ad_org_id</text>
<polygon fill="#ffffff" stroke="transparent" points="557,-491 557,-513 797,-513 797,-491 557,-491"/>
<polygon fill="none" stroke="black" points="557,-491 557,-513 797,-513 797,-491 557,-491"/>
<text text-anchor="start" x="577" y="-499.2" font-family="Helvetica,sans-Serif" font-size="11.00">name</text>
<polygon fill="#ffffff" stroke="transparent" points="557,-469 557,-491 797,-491 797,-469 557,-469"/>
<polygon fill="none" stroke="black" points="557,-469 557,-491 797,-491 797,-469 557,-469"/>
<text text-anchor="start" x="577" y="-477.2" font-family="Helvetica,sans-Serif" font-size="11.00">email</text>
<polygon fill="none" stroke="black" points="557,-447 557,-469 797,-469 797,-447 557,-447"/>
<image xlink:href="../../images/foreignKeys.png" width="11px" height="12px" preserveAspectRatio="xMinYMin meet" x="562" y="-464"/>
<text text-anchor="start" x="577" y="-455.2" font-family="Helvetica,sans-Serif" font-size="11.00">supervisor_id</text>
<polygon fill="#ffffff" stroke="transparent" points="557,-425 557,-447 797,-447 797,-425 557,-425"/>
<polygon fill="none" stroke="black" points="557,-425 557,-447 797,-447 797,-425 557,-425"/>
<image xlink:href="../../images/foreignKeys.png" width="11px" height="12px" preserveAspectRatio="xMinYMin meet" x="562" y="-442"/>
<text text-anchor="start" x="577" y="-433.2" font-family="Helvetica,sans-Serif" font-size="11.00">c_bpartner_id</text>
<polygon fill="none" stroke="black" points="557,-403 557,-425 797,-425 797,-403 557,-403"/>
<image xlink:href="../../images/foreignKeys.png" width="11px" height="12px" preserveAspectRatio="xMinYMin meet" x="562" y="-420"/>
<text text-anchor="start" x="577" y="-411.2" font-family="Helvetica,sans-Serif" font-size="11.00">c_bpartner_location_id</text>
<polygon fill="none" stroke="black" points="557,-381 557,-403 797,-403 797,-381 557,-381"/>
<image xlink:href="../../images/foreignKeys.png" width="11px" height="12px" preserveAspectRatio="xMinYMin meet" x="562" y="-398"/>
<text text-anchor="start" x="577" y="-389.2" font-family="Helvetica,sans-Serif" font-size="11.00">c_greeting_id</text>
<polygon fill="none" stroke="black" points="557,-359 557,-381 797,-381 797,-359 557,-359"/>
<image xlink:href="../../images/foreignKeys.png" width="11px" height="12px" preserveAspectRatio="xMinYMin meet" x="562" y="-376"/>
<text text-anchor="start" x="577" y="-367.2" font-family="Helvetica,sans-Serif" font-size="11.00">ad_orgtrx_id</text>
<polygon fill="none" stroke="black" points="557,-337 557,-359 797,-359 797,-337 557,-337"/>
<image xlink:href="../../images/foreignKeys.png" width="11px" height="12px" preserveAspectRatio="xMinYMin meet" x="562" y="-354"/>
<text text-anchor="start" x="577" y="-345.2" font-family="Helvetica,sans-Serif" font-size="11.00">c_job_id</text>
<polygon fill="#ffffff" stroke="transparent" points="557,-315 557,-337 797,-337 797,-315 557,-315"/>
<polygon fill="none" stroke="black" points="557,-315 557,-337 797,-337 797,-315 557,-315"/>
<text text-anchor="start" x="577" y="-323.2" font-family="Helvetica,sans-Serif" font-size="11.00">ad_user_uu</text>
<polygon fill="none" stroke="black" points="557,-293 557,-315 797,-315 797,-293 557,-293"/>
<image xlink:href="../../images/foreignKeys.png" width="11px" height="12px" preserveAspectRatio="xMinYMin meet" x="562" y="-310"/>
<text text-anchor="start" x="577" y="-301.2" font-family="Helvetica,sans-Serif" font-size="11.00">c_location_id</text>
<polygon fill="none" stroke="black" points="557,-271 557,-293 797,-293 797,-271 557,-271"/>
<image xlink:href="../../images/foreignKeys.png" width="11px" height="12px" preserveAspectRatio="xMinYMin meet" x="562" y="-288"/>
<text text-anchor="start" x="577" y="-279.2" font-family="Helvetica,sans-Serif" font-size="11.00">c_campaign_id</text>
<polygon fill="none" stroke="black" points="557,-249 557,-271 797,-271 797,-249 557,-249"/>
<image xlink:href="../../images/foreignKeys.png" width="11px" height="12px" preserveAspectRatio="xMinYMin meet" x="562" y="-266"/>
<text text-anchor="start" x="577" y="-257.2" font-family="Helvetica,sans-Serif" font-size="11.00">salesrep_id</text>
<polygon fill="none" stroke="black" points="557,-227 557,-249 797,-249 797,-227 557,-227"/>
<image xlink:href="../../images/foreignKeys.png" width="11px" height="12px" preserveAspectRatio="xMinYMin meet" x="562" y="-244"/>
<text text-anchor="start" x="577" y="-235.2" font-family="Helvetica,sans-Serif" font-size="11.00">bp_location_id</text>
<polygon fill="none" stroke="black" points="557,-205 557,-227 797,-227 797,-205 557,-205"/>
<image xlink:href="../../images/foreignKeys.png" width="11px" height="12px" preserveAspectRatio="xMinYMin meet" x="562" y="-222"/>
<text text-anchor="start" x="577" y="-213.2" font-family="Helvetica,sans-Serif" font-size="11.00">r_defaultmailtext_id</text>
<polygon fill="none" stroke="black" points="557,-183 557,-205 797,-205 797,-183 557,-183"/>
<image xlink:href="../../images/foreignKeys.png" width="11px" height="12px" preserveAspectRatio="xMinYMin meet" x="562" y="-200"/>
<text text-anchor="start" x="577" y="-191.2" font-family="Helvetica,sans-Serif" font-size="11.00">cof_c_marketsegment_id</text>
<polygon fill="none" stroke="black" points="557,-161 557,-183 797,-183 797,-161 557,-161"/>
<image xlink:href="../../images/foreignKeys.png" width="11px" height="12px" preserveAspectRatio="xMinYMin meet" x="562" y="-178"/>
<text text-anchor="start" x="577" y="-169.2" font-family="Helvetica,sans-Serif" font-size="11.00">cof_c_leadexpirationreason_id</text>
<polygon fill="none" stroke="black" points="557,-139 557,-161 797,-161 797,-139 557,-139"/>
<image xlink:href="../../images/foreignKeys.png" width="11px" height="12px" preserveAspectRatio="xMinYMin meet" x="562" y="-156"/>
<text text-anchor="start" x="577" y="-147.2" font-family="Helvetica,sans-Serif" font-size="11.00">ad_image_id</text>
<polygon fill="none" stroke="black" points="557,-117 557,-139 797,-139 797,-117 557,-117"/>
<image xlink:href="../../images/foreignKeys.png" width="11px" height="12px" preserveAspectRatio="xMinYMin meet" x="562" y="-134"/>
<text text-anchor="start" x="577" y="-125.2" font-family="Helvetica,sans-Serif" font-size="11.00">c_subscription_id</text>
<polygon fill="none" stroke="black" points="557,-95 557,-117 797,-117 797,-95 557,-95"/>
<image xlink:href="../../images/foreignKeys.png" width="11px" height="12px" preserveAspectRatio="xMinYMin meet" x="562" y="-112"/>
<text text-anchor="start" x="577" y="-103.2" font-family="Helvetica,sans-Serif" font-size="11.00">cof_responsavelindicacao_id</text>
<polygon fill="none" stroke="black" points="557,-73 557,-95 797,-95 797,-73 557,-73"/>
<image xlink:href="../../images/foreignKeys.png" width="11px" height="12px" preserveAspectRatio="xMinYMin meet" x="562" y="-90"/>
<text text-anchor="start" x="577" y="-81.2" font-family="Helvetica,sans-Serif" font-size="11.00">cof_respatribuicao_id</text>
<polygon fill="none" stroke="black" points="557,-55 557,-73 797,-73 797,-55 557,-55"/>
<text text-anchor="start" x="560" y="-61.2" font-family="Helvetica,sans-Serif" font-size="11.00">...</text>
<polygon fill="#ffffff" stroke="transparent" points="557,-37 557,-55 797,-55 797,-37 557,-37"/>
<polygon fill="none" stroke="black" points="557,-37 557,-55 797,-55 797,-37 557,-37"/>
<polygon fill="#ffffff" stroke="transparent" points="558,-38 558,-54 632,-54 632,-38 558,-38"/>
<text text-anchor="start" x="560" y="-43.2" font-family="Helvetica,sans-Serif" font-size="11.00">&lt; 19</text>
<polygon fill="#ffffff" stroke="transparent" points="632,-38 632,-54 717,-54 717,-38 632,-38"/>
<text text-anchor="start" x="658" y="-43.2" font-family="Helvetica,sans-Serif" font-size="11.00">8 rows</text>
<polygon fill="#ffffff" stroke="transparent" points="717,-38 717,-54 796,-54 796,-38 717,-38"/>
<text text-anchor="start" x="766" y="-43.2" font-family="Helvetica,sans-Serif" font-size="11.00">444 &gt;</text>
<polygon fill="black" stroke="black" points="632,-38 632,-54 632,-54 632,-38 632,-38"/>
<polygon fill="black" stroke="black" points="717,-38 717,-54 717,-54 717,-38 717,-38"/>
</a>
</g>
</g>
<!-- ad_user&#45;&gt;ad_org -->
<g id="edge3" class="edge">
<title>ad_user:w&#45;&gt;ad_org:e</title>
<path fill="none" stroke="black" d="M541.61,-526.14C479.28,-547.84 596,-727 509,-727"/>
<polygon fill="black" stroke="black" points="548.09,-525.18 556.53,-527.56 552.04,-524.59 556,-524 556,-524 556,-524 552.04,-524.59 555.47,-520.44 548.09,-525.18 548.09,-525.18"/>
<ellipse fill="none" stroke="black" cx="544.92" cy="-525.65" rx="3.2" ry="3.2"/>
</g>
<!-- ad_user&#45;&gt;ad_org -->
<g id="edge4" class="edge">
<title>ad_user:w&#45;&gt;ad_org:e</title>
<path fill="none" stroke="black" d="M542.17,-374.78C490.53,-417.14 583.55,-727 509,-727"/>
<polygon fill="black" stroke="black" points="548.44,-372.61 557.18,-373.4 552.22,-371.31 556,-370 556,-370 556,-370 552.22,-371.31 554.82,-366.6 548.44,-372.61 548.44,-372.61"/>
<ellipse fill="none" stroke="black" cx="545.41" cy="-373.66" rx="3.2" ry="3.2"/>
</g>
<!-- ad_user&#45;&gt;ad_client -->
<g id="edge2" class="edge">
<title>ad_user:w&#45;&gt;ad_client:e</title>
<path fill="none" stroke="black" d="M541.3,-545.67C434.49,-540.88 378.98,-486.69 294,-559 229.97,-613.48 338.58,-744 254.5,-744"/>
<polygon fill="black" stroke="black" points="548,-545.82 555.92,-549.6 552,-545.91 556,-546 556,-546 556,-546 552,-545.91 556.08,-542.4 548,-545.82 548,-545.82"/>
<ellipse fill="none" stroke="black" cx="544.8" cy="-545.75" rx="3.2" ry="3.2"/>
</g>
<!-- c_addressvalidation -->
<g id="node4" class="node">
<title>c_addressvalidation</title>
<g id="a_node4"><a xlink:href="../../tables/c_addressvalidation.html" xlink:title="c_addressvalidation" target="_top">
<polygon fill="#ffffff" stroke="transparent" points="1196,-609 1196,-821 1405,-821 1405,-609 1196,-609"/>
<polygon fill="#f5f5f5" stroke="transparent" points="1196.5,-799 1196.5,-821 1405.5,-821 1405.5,-799 1196.5,-799"/>
<polygon fill="none" stroke="black" points="1196.5,-799 1196.5,-821 1405.5,-821 1405.5,-799 1196.5,-799"/>
<text text-anchor="start" x="1201.5" y="-808.2" font-family="Helvetica,sans-Serif" font-weight="bold" font-size="11.00">c_addressvalidation</text>
<text text-anchor="start" x="1370.5" y="-807.2" font-family="Helvetica,sans-Serif" font-size="11.00">[table]</text>
<polygon fill="none" stroke="black" points="1196.5,-777 1196.5,-799 1405.5,-799 1405.5,-777 1196.5,-777"/>
<image xlink:href="../../images/foreignKeys.png" width="11px" height="12px" preserveAspectRatio="xMinYMin meet" x="1201.5" y="-794"/>
<text text-anchor="start" x="1216.5" y="-785.2" font-family="Helvetica,sans-Serif" font-size="11.00">ad_client_id</text>
<polygon fill="none" stroke="black" points="1196.5,-755 1196.5,-777 1405.5,-777 1405.5,-755 1196.5,-755"/>
<image xlink:href="../../images/foreignKeys.png" width="11px" height="12px" preserveAspectRatio="xMinYMin meet" x="1201.5" y="-772"/>
<text text-anchor="start" x="1216.5" y="-763.2" font-family="Helvetica,sans-Serif" font-size="11.00">ad_org_id</text>
<polygon fill="none" stroke="black" points="1196.5,-733 1196.5,-755 1405.5,-755 1405.5,-733 1196.5,-733"/>
<image xlink:href="../../images/primaryKeys.png" width="11px" height="12px" preserveAspectRatio="xMinYMin meet" x="1201.5" y="-750"/>
<text text-anchor="start" x="1216.5" y="-741.2" font-family="Helvetica,sans-Serif" font-size="11.00">c_addressvalidation_id</text>
<polygon fill="#ffffff" stroke="transparent" points="1196.5,-711 1196.5,-733 1405.5,-733 1405.5,-711 1196.5,-711"/>
<polygon fill="none" stroke="black" points="1196.5,-711 1196.5,-733 1405.5,-733 1405.5,-711 1196.5,-711"/>
<text text-anchor="start" x="1216.5" y="-719.2" font-family="Helvetica,sans-Serif" font-size="11.00">c_addressvalidation_uu</text>
<polygon fill="none" stroke="black" points="1196.5,-689 1196.5,-711 1405.5,-711 1405.5,-689 1196.5,-689"/>
<image xlink:href="../../images/foreignKeys.png" width="11px" height="12px" preserveAspectRatio="xMinYMin meet" x="1201.5" y="-706"/>
<text text-anchor="start" x="1216.5" y="-697.2" font-family="Helvetica,sans-Serif" font-size="11.00">c_addressvalidationcfg_id</text>
<polygon fill="none" stroke="black" points="1196.5,-667 1196.5,-689 1405.5,-689 1405.5,-667 1196.5,-667"/>
<image xlink:href="../../images/foreignKeys.png" width="11px" height="12px" preserveAspectRatio="xMinYMin meet" x="1201.5" y="-684"/>
<text text-anchor="start" x="1216.5" y="-675.2" font-family="Helvetica,sans-Serif" font-size="11.00">createdby</text>
<polygon fill="none" stroke="black" points="1196.5,-645 1196.5,-667 1405.5,-667 1405.5,-645 1196.5,-645"/>
<image xlink:href="../../images/foreignKeys.png" width="11px" height="12px" preserveAspectRatio="xMinYMin meet" x="1201.5" y="-662"/>
<text text-anchor="start" x="1216.5" y="-653.2" font-family="Helvetica,sans-Serif" font-size="11.00">updatedby</text>
<polygon fill="none" stroke="black" points="1196.5,-627 1196.5,-645 1405.5,-645 1405.5,-627 1196.5,-627"/>
<text text-anchor="start" x="1199.5" y="-633.2" font-family="Helvetica,sans-Serif" font-size="11.00">...</text>
<polygon fill="#ffffff" stroke="transparent" points="1196.5,-609 1196.5,-627 1405.5,-627 1405.5,-609 1196.5,-609"/>
<polygon fill="none" stroke="black" points="1196.5,-609 1196.5,-627 1405.5,-627 1405.5,-609 1196.5,-609"/>
<polygon fill="#ffffff" stroke="transparent" points="1197.5,-610 1197.5,-626 1269.5,-626 1269.5,-610 1197.5,-610"/>
<text text-anchor="start" x="1199.5" y="-615.2" font-family="Helvetica,sans-Serif" font-size="11.00">&lt; 5</text>
<polygon fill="#ffffff" stroke="transparent" points="1269.5,-610 1269.5,-626 1332.5,-626 1332.5,-610 1269.5,-610"/>
<text text-anchor="start" x="1297.5" y="-615.2" font-family="Helvetica,sans-Serif" font-size="11.00"> &#160;</text>
<polygon fill="#ffffff" stroke="transparent" points="1332.5,-610 1332.5,-626 1404.5,-626 1404.5,-610 1332.5,-610"/>
<text text-anchor="start" x="1386.5" y="-615.2" font-family="Helvetica,sans-Serif" font-size="11.00">2 &gt;</text>
<polygon fill="black" stroke="black" points="1269.5,-610 1269.5,-626 1269.5,-626 1269.5,-610 1269.5,-610"/>
<polygon fill="black" stroke="black" points="1332.5,-610 1332.5,-626 1332.5,-626 1332.5,-610 1332.5,-610"/>
</a>
</g>
</g>
<!-- c_addressvalidation&#45;&gt;ad_org -->
<g id="edge6" class="edge">
<title>c_addressvalidation:w&#45;&gt;ad_org:e</title>
<path fill="none" stroke="black" d="M1181.77,-770.98C1171.68,-781.01 1174,-803.41 1155,-812 1026.61,-870.02 977.98,-828.01 838,-812 707,-797.01 673.93,-787.14 549,-745 530.53,-738.77 528.49,-727 509,-727"/>
<polygon fill="black" stroke="black" points="1187.98,-768.73 1196.73,-769.38 1191.74,-767.36 1195.5,-766 1195.5,-766 1195.5,-766 1191.74,-767.36 1194.27,-762.62 1187.98,-768.73 1187.98,-768.73"/>
<ellipse fill="none" stroke="black" cx="1184.97" cy="-769.82" rx="3.2" ry="3.2"/>
</g>
<!-- c_addressvalidation&#45;&gt;ad_client -->
<g id="edge5" class="edge">
<title>c_addressvalidation:w&#45;&gt;ad_client:e</title>
<path fill="none" stroke="black" d="M1181.87,-792.87C1171.4,-803.16 1174.58,-826.9 1155,-836 1027.23,-895.37 978.79,-841.17 838,-836 595.73,-827.11 507.07,-911.65 294,-796 268.49,-782.15 283.52,-744 254.5,-744"/>
<polygon fill="black" stroke="black" points="1187.97,-790.69 1196.71,-791.39 1191.73,-789.35 1195.5,-788 1195.5,-788 1195.5,-788 1191.73,-789.35 1194.29,-784.61 1187.97,-790.69 1187.97,-790.69"/>
<ellipse fill="none" stroke="black" cx="1184.95" cy="-791.77" rx="3.2" ry="3.2"/>
</g>
<!-- c_addressvalidation&#45;&gt;ad_user -->
<g id="edge8" class="edge">
<title>c_addressvalidation:w&#45;&gt;ad_user:e</title>
<path fill="none" stroke="black" d="M1181.46,-673.77C1129.97,-637.32 1209.35,-376.42 1155,-328 1128.7,-304.57 864.88,-305.23 838,-328 796.74,-362.95 852.07,-568 798,-568"/>
<polygon fill="black" stroke="black" points="1187.84,-675.69 1194.46,-681.45 1191.67,-676.85 1195.5,-678 1195.5,-678 1195.5,-678 1191.67,-676.85 1196.54,-674.55 1187.84,-675.69 1187.84,-675.69"/>
<ellipse fill="none" stroke="black" cx="1184.78" cy="-674.77" rx="3.2" ry="3.2"/>
</g>
<!-- c_addressvalidation&#45;&gt;ad_user -->
<g id="edge9" class="edge">
<title>c_addressvalidation:w&#45;&gt;ad_user:e</title>
<path fill="none" stroke="black" d="M1181.53,-651.79C1130.32,-615.55 1209.06,-356.13 1155,-308 1049.78,-214.31 944.93,-216.26 838,-308 793.63,-346.06 856.46,-568 798,-568"/>
<polygon fill="black" stroke="black" points="1187.84,-653.69 1194.46,-659.45 1191.67,-654.85 1195.5,-656 1195.5,-656 1195.5,-656 1191.67,-654.85 1196.54,-652.55 1187.84,-653.69 1187.84,-653.69"/>
<ellipse fill="none" stroke="black" cx="1184.78" cy="-652.77" rx="3.2" ry="3.2"/>
</g>
<!-- c_addressvalidationcfg -->
<g id="node5" class="node">
<title>c_addressvalidationcfg</title>
<g id="a_node5"><a xlink:href="../../tables/c_addressvalidationcfg.html" xlink:title="c_addressvalidationcfg" target="_top">
<polygon fill="#ffffff" stroke="transparent" points="846,-339 846,-801 1147,-801 1147,-339 846,-339"/>
<polygon fill="#f5f5f5" stroke="transparent" points="848.5,-777 848.5,-799 1145.5,-799 1145.5,-777 848.5,-777"/>
<polygon fill="none" stroke="black" points="848.5,-777 848.5,-799 1145.5,-799 1145.5,-777 848.5,-777"/>
<text text-anchor="start" x="853.5" y="-786.2" font-family="Helvetica,sans-Serif" font-weight="bold" font-size="11.00">c_addressvalidationcfg</text>
<text text-anchor="start" x="1110.5" y="-785.2" font-family="Helvetica,sans-Serif" font-size="11.00">[table]</text>
<polygon fill="none" stroke="black" points="848.5,-755 848.5,-777 1062.5,-777 1062.5,-755 848.5,-755"/>
<image xlink:href="../../images/foreignKeys.png" width="11px" height="12px" preserveAspectRatio="xMinYMin meet" x="853.5" y="-772"/>
<text text-anchor="start" x="868.5" y="-763.2" font-family="Helvetica,sans-Serif" font-size="11.00">ad_client_id</text>
<polygon fill="none" stroke="black" points="1062.5,-755 1062.5,-777 1145.5,-777 1145.5,-755 1062.5,-755"/>
<text text-anchor="start" x="1065.5" y="-763.2" font-family="Helvetica,sans-Serif" font-size="11.00">numeric[10]</text>
<polygon fill="none" stroke="black" points="848.5,-733 848.5,-755 1062.5,-755 1062.5,-733 848.5,-733"/>
<image xlink:href="../../images/foreignKeys.png" width="11px" height="12px" preserveAspectRatio="xMinYMin meet" x="853.5" y="-750"/>
<text text-anchor="start" x="868.5" y="-741.2" font-family="Helvetica,sans-Serif" font-size="11.00">ad_org_id</text>
<polygon fill="none" stroke="black" points="1062.5,-733 1062.5,-755 1145.5,-755 1145.5,-733 1062.5,-733"/>
<text text-anchor="start" x="1065.5" y="-741.2" font-family="Helvetica,sans-Serif" font-size="11.00">numeric[10]</text>
<polygon fill="none" stroke="black" points="848.5,-711 848.5,-733 1062.5,-733 1062.5,-711 848.5,-711"/>
<text text-anchor="start" x="868.5" y="-719.2" font-family="Helvetica,sans-Serif" font-size="11.00">addressvalidationclass</text>
<polygon fill="none" stroke="black" points="1062.5,-711 1062.5,-733 1145.5,-733 1145.5,-711 1062.5,-711"/>
<text text-anchor="start" x="1065.5" y="-719.2" font-family="Helvetica,sans-Serif" font-size="11.00">varchar[100]</text>
<polygon fill="none" stroke="black" points="848.5,-689 848.5,-711 1062.5,-711 1062.5,-689 848.5,-689"/>
<image xlink:href="../../images/primaryKeys.png" width="11px" height="12px" preserveAspectRatio="xMinYMin meet" x="853.5" y="-706"/>
<text text-anchor="start" x="868.5" y="-697.2" font-family="Helvetica,sans-Serif" font-size="11.00">c_addressvalidationcfg_id</text>
<polygon fill="none" stroke="black" points="1062.5,-689 1062.5,-711 1145.5,-711 1145.5,-689 1062.5,-689"/>
<text text-anchor="start" x="1065.5" y="-697.2" font-family="Helvetica,sans-Serif" font-size="11.00">numeric[10]</text>
<polygon fill="#ffffff" stroke="transparent" points="848.5,-667 848.5,-689 1062.5,-689 1062.5,-667 848.5,-667"/>
<polygon fill="none" stroke="black" points="848.5,-667 848.5,-689 1062.5,-689 1062.5,-667 848.5,-667"/>
<text text-anchor="start" x="868.5" y="-675.2" font-family="Helvetica,sans-Serif" font-size="11.00">c_addressvalidationcfg_uu</text>
<polygon fill="none" stroke="black" points="1062.5,-667 1062.5,-689 1145.5,-689 1145.5,-667 1062.5,-667"/>
<text text-anchor="start" x="1065.5" y="-675.2" font-family="Helvetica,sans-Serif" font-size="11.00">varchar[36]</text>
<polygon fill="none" stroke="black" points="848.5,-645 848.5,-667 1062.5,-667 1062.5,-645 848.5,-645"/>
<text text-anchor="start" x="868.5" y="-653.2" font-family="Helvetica,sans-Serif" font-size="11.00">created</text>
<polygon fill="none" stroke="black" points="1062.5,-645 1062.5,-667 1145.5,-667 1145.5,-645 1062.5,-645"/>
<text text-anchor="start" x="1065.5" y="-653.2" font-family="Helvetica,sans-Serif" font-size="11.00">timestamp[29,6]</text>
<polygon fill="none" stroke="black" points="848.5,-623 848.5,-645 1062.5,-645 1062.5,-623 848.5,-623"/>
<image xlink:href="../../images/foreignKeys.png" width="11px" height="12px" preserveAspectRatio="xMinYMin meet" x="853.5" y="-640"/>
<text text-anchor="start" x="868.5" y="-631.2" font-family="Helvetica,sans-Serif" font-size="11.00">createdby</text>
<polygon fill="none" stroke="black" points="1062.5,-623 1062.5,-645 1145.5,-645 1145.5,-623 1062.5,-623"/>
<text text-anchor="start" x="1065.5" y="-631.2" font-family="Helvetica,sans-Serif" font-size="11.00">numeric[10]</text>
<polygon fill="none" stroke="black" points="848.5,-601 848.5,-623 1062.5,-623 1062.5,-601 848.5,-601"/>
<text text-anchor="start" x="868.5" y="-609.2" font-family="Helvetica,sans-Serif" font-size="11.00">description</text>
<polygon fill="none" stroke="black" points="1062.5,-601 1062.5,-623 1145.5,-623 1145.5,-601 1062.5,-601"/>
<text text-anchor="start" x="1065.5" y="-609.2" font-family="Helvetica,sans-Serif" font-size="11.00">varchar[255]</text>
<polygon fill="none" stroke="black" points="848.5,-579 848.5,-601 1062.5,-601 1062.5,-579 848.5,-579"/>
<text text-anchor="start" x="868.5" y="-587.2" font-family="Helvetica,sans-Serif" font-size="11.00">hostaddress</text>
<polygon fill="none" stroke="black" points="1062.5,-579 1062.5,-601 1145.5,-601 1145.5,-579 1062.5,-579"/>
<text text-anchor="start" x="1065.5" y="-587.2" font-family="Helvetica,sans-Serif" font-size="11.00">varchar[60]</text>
<polygon fill="none" stroke="black" points="848.5,-557 848.5,-579 1062.5,-579 1062.5,-557 848.5,-557"/>
<text text-anchor="start" x="868.5" y="-565.2" font-family="Helvetica,sans-Serif" font-size="11.00">hostport</text>
<polygon fill="none" stroke="black" points="1062.5,-557 1062.5,-579 1145.5,-579 1145.5,-557 1062.5,-557"/>
<text text-anchor="start" x="1065.5" y="-565.2" font-family="Helvetica,sans-Serif" font-size="11.00">numeric[10]</text>
<polygon fill="none" stroke="black" points="848.5,-535 848.5,-557 1062.5,-557 1062.5,-535 848.5,-535"/>
<text text-anchor="start" x="868.5" y="-543.2" font-family="Helvetica,sans-Serif" font-size="11.00">isactive</text>
<polygon fill="none" stroke="black" points="1062.5,-535 1062.5,-557 1145.5,-557 1145.5,-535 1062.5,-535"/>
<text text-anchor="start" x="1065.5" y="-543.2" font-family="Helvetica,sans-Serif" font-size="11.00">bpchar[1]</text>
<polygon fill="none" stroke="black" points="848.5,-513 848.5,-535 1062.5,-535 1062.5,-513 848.5,-513"/>
<text text-anchor="start" x="868.5" y="-521.2" font-family="Helvetica,sans-Serif" font-size="11.00">name</text>
<polygon fill="none" stroke="black" points="1062.5,-513 1062.5,-535 1145.5,-535 1145.5,-513 1062.5,-513"/>
<text text-anchor="start" x="1065.5" y="-521.2" font-family="Helvetica,sans-Serif" font-size="11.00">varchar[60]</text>
<polygon fill="none" stroke="black" points="848.5,-491 848.5,-513 1062.5,-513 1062.5,-491 848.5,-491"/>
<text text-anchor="start" x="868.5" y="-499.2" font-family="Helvetica,sans-Serif" font-size="11.00">proxyaddress</text>
<polygon fill="none" stroke="black" points="1062.5,-491 1062.5,-513 1145.5,-513 1145.5,-491 1062.5,-491"/>
<text text-anchor="start" x="1065.5" y="-499.2" font-family="Helvetica,sans-Serif" font-size="11.00">varchar[60]</text>
<polygon fill="none" stroke="black" points="848.5,-469 848.5,-491 1062.5,-491 1062.5,-469 848.5,-469"/>
<text text-anchor="start" x="868.5" y="-477.2" font-family="Helvetica,sans-Serif" font-size="11.00">proxylogon</text>
<polygon fill="none" stroke="black" points="1062.5,-469 1062.5,-491 1145.5,-491 1145.5,-469 1062.5,-469"/>
<text text-anchor="start" x="1065.5" y="-477.2" font-family="Helvetica,sans-Serif" font-size="11.00">varchar[60]</text>
<polygon fill="none" stroke="black" points="848.5,-447 848.5,-469 1062.5,-469 1062.5,-447 848.5,-447"/>
<text text-anchor="start" x="868.5" y="-455.2" font-family="Helvetica,sans-Serif" font-size="11.00">proxypassword</text>
<polygon fill="none" stroke="black" points="1062.5,-447 1062.5,-469 1145.5,-469 1145.5,-447 1062.5,-447"/>
<text text-anchor="start" x="1065.5" y="-455.2" font-family="Helvetica,sans-Serif" font-size="11.00">varchar[60]</text>
<polygon fill="none" stroke="black" points="848.5,-425 848.5,-447 1062.5,-447 1062.5,-425 848.5,-425"/>
<text text-anchor="start" x="868.5" y="-433.2" font-family="Helvetica,sans-Serif" font-size="11.00">proxyport</text>
<polygon fill="none" stroke="black" points="1062.5,-425 1062.5,-447 1145.5,-447 1145.5,-425 1062.5,-425"/>
<text text-anchor="start" x="1065.5" y="-433.2" font-family="Helvetica,sans-Serif" font-size="11.00">numeric[10]</text>
<polygon fill="none" stroke="black" points="848.5,-403 848.5,-425 1062.5,-425 1062.5,-403 848.5,-403"/>
<text text-anchor="start" x="868.5" y="-411.2" font-family="Helvetica,sans-Serif" font-size="11.00">servicepath</text>
<polygon fill="none" stroke="black" points="1062.5,-403 1062.5,-425 1145.5,-425 1145.5,-403 1062.5,-403"/>
<text text-anchor="start" x="1065.5" y="-411.2" font-family="Helvetica,sans-Serif" font-size="11.00">varchar[60]</text>
<polygon fill="none" stroke="black" points="848.5,-381 848.5,-403 1062.5,-403 1062.5,-381 848.5,-381"/>
<text text-anchor="start" x="868.5" y="-389.2" font-family="Helvetica,sans-Serif" font-size="11.00">updated</text>
<polygon fill="none" stroke="black" points="1062.5,-381 1062.5,-403 1145.5,-403 1145.5,-381 1062.5,-381"/>
<text text-anchor="start" x="1065.5" y="-389.2" font-family="Helvetica,sans-Serif" font-size="11.00">timestamp[29,6]</text>
<polygon fill="none" stroke="black" points="848.5,-359 848.5,-381 1062.5,-381 1062.5,-359 848.5,-359"/>
<image xlink:href="../../images/foreignKeys.png" width="11px" height="12px" preserveAspectRatio="xMinYMin meet" x="853.5" y="-376"/>
<text text-anchor="start" x="868.5" y="-367.2" font-family="Helvetica,sans-Serif" font-size="11.00">updatedby</text>
<polygon fill="none" stroke="black" points="1062.5,-359 1062.5,-381 1145.5,-381 1145.5,-359 1062.5,-359"/>
<text text-anchor="start" x="1065.5" y="-367.2" font-family="Helvetica,sans-Serif" font-size="11.00">numeric[10]</text>
<polygon fill="#ffffff" stroke="transparent" points="848.5,-341 848.5,-359 1145.5,-359 1145.5,-341 848.5,-341"/>
<polygon fill="none" stroke="black" points="848.5,-341 848.5,-359 1145.5,-359 1145.5,-341 848.5,-341"/>
<polygon fill="#ffffff" stroke="transparent" points="849.5,-342 849.5,-358 951.5,-358 951.5,-342 849.5,-342"/>
<text text-anchor="start" x="851.5" y="-347.2" font-family="Helvetica,sans-Serif" font-size="11.00">&lt; 4</text>
<polygon fill="#ffffff" stroke="transparent" points="951.5,-342 951.5,-358 1043.5,-358 1043.5,-342 951.5,-342"/>
<text text-anchor="start" x="994" y="-347.2" font-family="Helvetica,sans-Serif" font-size="11.00"> &#160;</text>
<polygon fill="#ffffff" stroke="transparent" points="1043.5,-342 1043.5,-358 1144.5,-358 1144.5,-342 1043.5,-342"/>
<text text-anchor="start" x="1126.5" y="-347.2" font-family="Helvetica,sans-Serif" font-size="11.00">1 &gt;</text>
<polygon fill="black" stroke="black" points="951.5,-342 951.5,-358 951.5,-358 951.5,-342 951.5,-342"/>
<polygon fill="black" stroke="black" points="1043.5,-342 1043.5,-358 1043.5,-358 1043.5,-342 1043.5,-342"/>
<polygon fill="none" stroke="black" stroke-width="2" points="847,-340 847,-800 1146,-800 1146,-340 847,-340"/>
</a>
</g>
</g>
<!-- c_addressvalidation&#45;&gt;c_addressvalidationcfg -->
<g id="edge7" class="edge">
<title>c_addressvalidation:w&#45;&gt;c_addressvalidationcfg:e</title>
<path fill="none" stroke="black" d="M1180.99,-700C1169.68,-700 1162.49,-700 1146.5,-700"/>
<polygon fill="black" stroke="black" points="1187.5,-700 1195.5,-703.6 1191.5,-700 1195.5,-700 1195.5,-700 1195.5,-700 1191.5,-700 1195.5,-696.4 1187.5,-700 1187.5,-700"/>
<ellipse fill="none" stroke="black" cx="1184.3" cy="-700" rx="3.2" ry="3.2"/>
</g>
<!-- c_addressvalidationcfg&#45;&gt;ad_org -->
<g id="edge11" class="edge">
<title>c_addressvalidationcfg:w&#45;&gt;ad_org:e</title>
<path fill="none" stroke="black" d="M832.86,-743.95C694.27,-742.89 654.63,-727 509,-727"/>
<polygon fill="black" stroke="black" points="839.5,-743.97 847.49,-747.6 843.5,-743.98 847.5,-744 847.5,-744 847.5,-744 843.5,-743.98 847.51,-740.4 839.5,-743.97 839.5,-743.97"/>
<ellipse fill="none" stroke="black" cx="836.3" cy="-743.96" rx="3.2" ry="3.2"/>
</g>
<!-- c_addressvalidationcfg&#45;&gt;ad_client -->
<g id="edge10" class="edge">
<title>c_addressvalidationcfg:w&#45;&gt;ad_client:e</title>
<path fill="none" stroke="black" d="M832.93,-766.09C598.52,-769.05 524.33,-842.2 294,-771 273.68,-764.72 275.76,-744 254.5,-744"/>
<polygon fill="black" stroke="black" points="839.5,-766.05 847.52,-769.6 843.5,-766.03 847.5,-766 847.5,-766 847.5,-766 843.5,-766.03 847.48,-762.4 839.5,-766.05 839.5,-766.05"/>
<ellipse fill="none" stroke="black" cx="836.3" cy="-766.07" rx="3.2" ry="3.2"/>
</g>
<!-- c_addressvalidationcfg&#45;&gt;ad_user -->
<g id="edge12" class="edge">
<title>c_addressvalidationcfg:w&#45;&gt;ad_user:e</title>
<path fill="none" stroke="black" d="M833.8,-629.25C817.03,-614.12 828.65,-568 798,-568"/>
<polygon fill="black" stroke="black" points="839.94,-631.38 846.32,-637.4 843.72,-632.69 847.5,-634 847.5,-634 847.5,-634 843.72,-632.69 848.68,-630.6 839.94,-631.38 839.94,-631.38"/>
<ellipse fill="none" stroke="black" cx="836.92" cy="-630.33" rx="3.2" ry="3.2"/>
</g>
<!-- c_addressvalidationcfg&#45;&gt;ad_user -->
<g id="edge13" class="edge">
<title>c_addressvalidationcfg:w&#45;&gt;ad_user:e</title>
<path fill="none" stroke="black" d="M832.99,-372.22C772.41,-393.98 883.04,-568 798,-568"/>
<polygon fill="black" stroke="black" points="839.59,-371.21 848.05,-373.56 843.55,-370.61 847.5,-370 847.5,-370 847.5,-370 843.55,-370.61 846.95,-366.44 839.59,-371.21 839.59,-371.21"/>
<ellipse fill="none" stroke="black" cx="836.43" cy="-371.7" rx="3.2" ry="3.2"/>
</g>
</g>
</svg>
