<?xml version="1.0" encoding="UTF-8" standalone="no"?>
<!DOCTYPE svg PUBLIC "-//W3C//DTD SVG 1.1//EN"
 "http://www.w3.org/Graphics/SVG/1.1/DTD/svg11.dtd">
<!-- Generated by graphviz version 2.43.0 (0)
 -->
<!-- Title: oneDegreeRelationshipsDiagram Pages: 1 -->
<svg width="753pt" height="829pt"
 viewBox="0.00 0.00 753.00 829.00" xmlns="http://www.w3.org/2000/svg" xmlns:xlink="http://www.w3.org/1999/xlink">
<g id="graph0" class="graph" transform="scale(1 1) rotate(0) translate(4 825)">
<title>oneDegreeRelationshipsDiagram</title>
<polygon fill="#ffffff" stroke="transparent" points="-4,4 -4,-825 749,-825 749,4 -4,4"/>
<text text-anchor="middle" x="71.5" y="-7.2" font-family="Helvetica,sans-Serif" font-size="11.00">Generated by SchemaSpy</text>
<!-- c_charge_acct -->
<g id="node1" class="node">
<title>c_charge_acct</title>
<g id="a_node1"><a xlink:href="../../tables/c_charge_acct.html" xlink:title="c_charge_acct" target="_top">
<polygon fill="#ffffff" stroke="transparent" points="503,-460 503,-768 737,-768 737,-460 503,-460"/>
<polygon fill="#f5f5f5" stroke="transparent" points="505,-744 505,-766 735,-766 735,-744 505,-744"/>
<polygon fill="none" stroke="black" points="505,-744 505,-766 735,-766 735,-744 505,-744"/>
<text text-anchor="start" x="510" y="-753.2" font-family="Helvetica,sans-Serif" font-weight="bold" font-size="11.00">c_charge_acct</text>
<text text-anchor="start" x="700" y="-752.2" font-family="Helvetica,sans-Serif" font-size="11.00">[table]</text>
<polygon fill="none" stroke="black" points="505,-722 505,-744 652,-744 652,-722 505,-722"/>
<image xlink:href="../../images/primaryKeys.png" width="11px" height="12px" preserveAspectRatio="xMinYMin meet" x="510" y="-739"/>
<text text-anchor="start" x="525" y="-730.2" font-family="Helvetica,sans-Serif" font-size="11.00">c_charge_id</text>
<polygon fill="none" stroke="black" points="652,-722 652,-744 735,-744 735,-722 652,-722"/>
<text text-anchor="start" x="655" y="-730.2" font-family="Helvetica,sans-Serif" font-size="11.00">numeric[10]</text>
<polygon fill="none" stroke="black" points="505,-700 505,-722 652,-722 652,-700 505,-700"/>
<image xlink:href="../../images/primaryKeys.png" width="11px" height="12px" preserveAspectRatio="xMinYMin meet" x="510" y="-717"/>
<text text-anchor="start" x="525" y="-708.2" font-family="Helvetica,sans-Serif" font-size="11.00">c_acctschema_id</text>
<polygon fill="none" stroke="black" points="652,-700 652,-722 735,-722 735,-700 652,-700"/>
<text text-anchor="start" x="655" y="-708.2" font-family="Helvetica,sans-Serif" font-size="11.00">numeric[10]</text>
<polygon fill="none" stroke="black" points="505,-678 505,-700 652,-700 652,-678 505,-678"/>
<text text-anchor="start" x="525" y="-686.2" font-family="Helvetica,sans-Serif" font-size="11.00">ad_client_id</text>
<polygon fill="none" stroke="black" points="652,-678 652,-700 735,-700 735,-678 652,-678"/>
<text text-anchor="start" x="655" y="-686.2" font-family="Helvetica,sans-Serif" font-size="11.00">numeric[10]</text>
<polygon fill="none" stroke="black" points="505,-656 505,-678 652,-678 652,-656 505,-656"/>
<text text-anchor="start" x="525" y="-664.2" font-family="Helvetica,sans-Serif" font-size="11.00">ad_org_id</text>
<polygon fill="none" stroke="black" points="652,-656 652,-678 735,-678 735,-656 652,-656"/>
<text text-anchor="start" x="655" y="-664.2" font-family="Helvetica,sans-Serif" font-size="11.00">numeric[10]</text>
<polygon fill="none" stroke="black" points="505,-634 505,-656 652,-656 652,-634 505,-634"/>
<text text-anchor="start" x="525" y="-642.2" font-family="Helvetica,sans-Serif" font-size="11.00">isactive</text>
<polygon fill="none" stroke="black" points="652,-634 652,-656 735,-656 735,-634 652,-634"/>
<text text-anchor="start" x="655" y="-642.2" font-family="Helvetica,sans-Serif" font-size="11.00">bpchar[1]</text>
<polygon fill="none" stroke="black" points="505,-612 505,-634 652,-634 652,-612 505,-612"/>
<text text-anchor="start" x="525" y="-620.2" font-family="Helvetica,sans-Serif" font-size="11.00">created</text>
<polygon fill="none" stroke="black" points="652,-612 652,-634 735,-634 735,-612 652,-612"/>
<text text-anchor="start" x="655" y="-620.2" font-family="Helvetica,sans-Serif" font-size="11.00">timestamp[29,6]</text>
<polygon fill="none" stroke="black" points="505,-590 505,-612 652,-612 652,-590 505,-590"/>
<text text-anchor="start" x="525" y="-598.2" font-family="Helvetica,sans-Serif" font-size="11.00">createdby</text>
<polygon fill="none" stroke="black" points="652,-590 652,-612 735,-612 735,-590 652,-590"/>
<text text-anchor="start" x="655" y="-598.2" font-family="Helvetica,sans-Serif" font-size="11.00">numeric[10]</text>
<polygon fill="none" stroke="black" points="505,-568 505,-590 652,-590 652,-568 505,-568"/>
<text text-anchor="start" x="525" y="-576.2" font-family="Helvetica,sans-Serif" font-size="11.00">updated</text>
<polygon fill="none" stroke="black" points="652,-568 652,-590 735,-590 735,-568 652,-568"/>
<text text-anchor="start" x="655" y="-576.2" font-family="Helvetica,sans-Serif" font-size="11.00">timestamp[29,6]</text>
<polygon fill="none" stroke="black" points="505,-546 505,-568 652,-568 652,-546 505,-546"/>
<text text-anchor="start" x="525" y="-554.2" font-family="Helvetica,sans-Serif" font-size="11.00">updatedby</text>
<polygon fill="none" stroke="black" points="652,-546 652,-568 735,-568 735,-546 652,-546"/>
<text text-anchor="start" x="655" y="-554.2" font-family="Helvetica,sans-Serif" font-size="11.00">numeric[10]</text>
<polygon fill="none" stroke="black" points="505,-524 505,-546 652,-546 652,-524 505,-524"/>
<image xlink:href="../../images/foreignKeys.png" width="11px" height="12px" preserveAspectRatio="xMinYMin meet" x="510" y="-541"/>
<text text-anchor="start" x="525" y="-532.2" font-family="Helvetica,sans-Serif" font-size="11.00">ch_expense_acct</text>
<polygon fill="none" stroke="black" points="652,-524 652,-546 735,-546 735,-524 652,-524"/>
<text text-anchor="start" x="655" y="-532.2" font-family="Helvetica,sans-Serif" font-size="11.00">numeric[10]</text>
<polygon fill="none" stroke="black" points="505,-502 505,-524 652,-524 652,-502 505,-502"/>
<image xlink:href="../../images/foreignKeys.png" width="11px" height="12px" preserveAspectRatio="xMinYMin meet" x="510" y="-519"/>
<text text-anchor="start" x="525" y="-510.2" font-family="Helvetica,sans-Serif" font-size="11.00">ch_revenue_acct</text>
<polygon fill="none" stroke="black" points="652,-502 652,-524 735,-524 735,-502 652,-502"/>
<text text-anchor="start" x="655" y="-510.2" font-family="Helvetica,sans-Serif" font-size="11.00">numeric[10]</text>
<polygon fill="#ffffff" stroke="transparent" points="505,-480 505,-502 652,-502 652,-480 505,-480"/>
<polygon fill="none" stroke="black" points="505,-480 505,-502 652,-502 652,-480 505,-480"/>
<text text-anchor="start" x="525" y="-488.2" font-family="Helvetica,sans-Serif" font-size="11.00">c_charge_acct_uu</text>
<polygon fill="none" stroke="black" points="652,-480 652,-502 735,-502 735,-480 652,-480"/>
<text text-anchor="start" x="655" y="-488.2" font-family="Helvetica,sans-Serif" font-size="11.00">varchar[36]</text>
<polygon fill="#ffffff" stroke="transparent" points="505,-462 505,-480 735,-480 735,-462 505,-462"/>
<polygon fill="none" stroke="black" points="505,-462 505,-480 735,-480 735,-462 505,-462"/>
<polygon fill="#ffffff" stroke="transparent" points="506,-463 506,-479 573,-479 573,-463 506,-463"/>
<text text-anchor="start" x="508" y="-468.2" font-family="Helvetica,sans-Serif" font-size="11.00">&lt; 4</text>
<polygon fill="#ffffff" stroke="transparent" points="573,-463 573,-479 668,-479 668,-463 573,-463"/>
<text text-anchor="start" x="598" y="-468.2" font-family="Helvetica,sans-Serif" font-size="11.00">266 rows</text>
<polygon fill="#ffffff" stroke="transparent" points="668,-463 668,-479 734,-479 734,-463 668,-463"/>
<text text-anchor="start" x="716" y="-468.2" font-family="Helvetica,sans-Serif" font-size="11.00">0 &gt;</text>
<polygon fill="black" stroke="black" points="573,-463 573,-479 573,-479 573,-463 573,-463"/>
<polygon fill="black" stroke="black" points="668,-463 668,-479 668,-479 668,-463 668,-463"/>
<polygon fill="none" stroke="black" stroke-width="2" points="504,-461 504,-767 736,-767 736,-461 504,-461"/>
</a>
</g>
</g>
<!-- c_acctschema -->
<g id="node2" class="node">
<title>c_acctschema</title>
<g id="a_node2"><a xlink:href="../../tables/c_acctschema.html" xlink:title="c_acctschema" target="_top">
<polygon fill="#ffffff" stroke="transparent" points="8,-285 8,-541 209,-541 209,-285 8,-285"/>
<polygon fill="#f5f5f5" stroke="transparent" points="8.5,-519 8.5,-541 209.5,-541 209.5,-519 8.5,-519"/>
<polygon fill="none" stroke="black" points="8.5,-519 8.5,-541 209.5,-541 209.5,-519 8.5,-519"/>
<text text-anchor="start" x="13.5" y="-528.2" font-family="Helvetica,sans-Serif" font-weight="bold" font-size="11.00">c_acctschema</text>
<text text-anchor="start" x="174.5" y="-527.2" font-family="Helvetica,sans-Serif" font-size="11.00">[table]</text>
<polygon fill="none" stroke="black" points="8.5,-497 8.5,-519 209.5,-519 209.5,-497 8.5,-497"/>
<image xlink:href="../../images/primaryKeys.png" width="11px" height="12px" preserveAspectRatio="xMinYMin meet" x="13.5" y="-514"/>
<text text-anchor="start" x="28.5" y="-505.2" font-family="Helvetica,sans-Serif" font-size="11.00">c_acctschema_id</text>
<polygon fill="#ffffff" stroke="transparent" points="8.5,-475 8.5,-497 209.5,-497 209.5,-475 8.5,-475"/>
<polygon fill="none" stroke="black" points="8.5,-475 8.5,-497 209.5,-497 209.5,-475 8.5,-475"/>
<image xlink:href="../../images/foreignKeys.png" width="11px" height="12px" preserveAspectRatio="xMinYMin meet" x="13.5" y="-492"/>
<text text-anchor="start" x="28.5" y="-483.2" font-family="Helvetica,sans-Serif" font-size="11.00">ad_client_id</text>
<polygon fill="none" stroke="black" points="8.5,-453 8.5,-475 209.5,-475 209.5,-453 8.5,-453"/>
<image xlink:href="../../images/foreignKeys.png" width="11px" height="12px" preserveAspectRatio="xMinYMin meet" x="13.5" y="-470"/>
<text text-anchor="start" x="28.5" y="-461.2" font-family="Helvetica,sans-Serif" font-size="11.00">ad_org_id</text>
<polygon fill="#ffffff" stroke="transparent" points="8.5,-431 8.5,-453 209.5,-453 209.5,-431 8.5,-431"/>
<polygon fill="none" stroke="black" points="8.5,-431 8.5,-453 209.5,-453 209.5,-431 8.5,-431"/>
<text text-anchor="start" x="28.5" y="-439.2" font-family="Helvetica,sans-Serif" font-size="11.00">name</text>
<polygon fill="none" stroke="black" points="8.5,-409 8.5,-431 209.5,-431 209.5,-409 8.5,-409"/>
<image xlink:href="../../images/foreignKeys.png" width="11px" height="12px" preserveAspectRatio="xMinYMin meet" x="13.5" y="-426"/>
<text text-anchor="start" x="28.5" y="-417.2" font-family="Helvetica,sans-Serif" font-size="11.00">c_currency_id</text>
<polygon fill="none" stroke="black" points="8.5,-387 8.5,-409 209.5,-409 209.5,-387 8.5,-387"/>
<image xlink:href="../../images/foreignKeys.png" width="11px" height="12px" preserveAspectRatio="xMinYMin meet" x="13.5" y="-404"/>
<text text-anchor="start" x="28.5" y="-395.2" font-family="Helvetica,sans-Serif" font-size="11.00">c_period_id</text>
<polygon fill="none" stroke="black" points="8.5,-365 8.5,-387 209.5,-387 209.5,-365 8.5,-365"/>
<image xlink:href="../../images/foreignKeys.png" width="11px" height="12px" preserveAspectRatio="xMinYMin meet" x="13.5" y="-382"/>
<text text-anchor="start" x="28.5" y="-373.2" font-family="Helvetica,sans-Serif" font-size="11.00">m_costtype_id</text>
<polygon fill="none" stroke="black" points="8.5,-343 8.5,-365 209.5,-365 209.5,-343 8.5,-343"/>
<image xlink:href="../../images/foreignKeys.png" width="11px" height="12px" preserveAspectRatio="xMinYMin meet" x="13.5" y="-360"/>
<text text-anchor="start" x="28.5" y="-351.2" font-family="Helvetica,sans-Serif" font-size="11.00">ad_orgonly_id</text>
<polygon fill="#ffffff" stroke="transparent" points="8.5,-321 8.5,-343 209.5,-343 209.5,-321 8.5,-321"/>
<polygon fill="none" stroke="black" points="8.5,-321 8.5,-343 209.5,-343 209.5,-321 8.5,-321"/>
<text text-anchor="start" x="28.5" y="-329.2" font-family="Helvetica,sans-Serif" font-size="11.00">c_acctschema_uu</text>
<polygon fill="none" stroke="black" points="8.5,-303 8.5,-321 209.5,-321 209.5,-303 8.5,-303"/>
<text text-anchor="start" x="11.5" y="-309.2" font-family="Helvetica,sans-Serif" font-size="11.00">...</text>
<polygon fill="#ffffff" stroke="transparent" points="8.5,-285 8.5,-303 209.5,-303 209.5,-285 8.5,-285"/>
<polygon fill="none" stroke="black" points="8.5,-285 8.5,-303 209.5,-303 209.5,-285 8.5,-285"/>
<polygon fill="#ffffff" stroke="transparent" points="9.5,-286 9.5,-302 70.5,-302 70.5,-286 9.5,-286"/>
<text text-anchor="start" x="11.5" y="-291.2" font-family="Helvetica,sans-Serif" font-size="11.00">&lt; 6</text>
<polygon fill="#ffffff" stroke="transparent" points="70.5,-286 70.5,-302 142.5,-302 142.5,-286 70.5,-286"/>
<text text-anchor="start" x="92.5" y="-291.2" font-family="Helvetica,sans-Serif" font-size="11.00">1 row</text>
<polygon fill="#ffffff" stroke="transparent" points="142.5,-286 142.5,-302 208.5,-302 208.5,-286 142.5,-286"/>
<text text-anchor="start" x="184.5" y="-291.2" font-family="Helvetica,sans-Serif" font-size="11.00">55 &gt;</text>
<polygon fill="black" stroke="black" points="70.5,-286 70.5,-302 70.5,-302 70.5,-286 70.5,-286"/>
<polygon fill="black" stroke="black" points="142.5,-286 142.5,-302 142.5,-302 142.5,-286 142.5,-286"/>
</a>
</g>
</g>
<!-- c_charge_acct&#45;&gt;c_acctschema -->
<g id="edge1" class="edge">
<title>c_charge_acct:w&#45;&gt;c_acctschema:e</title>
<path fill="none" stroke="black" d="M489.7,-708.24C460.16,-693.69 500.12,-625.52 462,-595 387.85,-535.64 330.59,-618.26 250,-568 222.91,-551.11 242.43,-508 210.5,-508"/>
<polygon fill="black" stroke="black" points="496.15,-709.48 503.32,-714.53 500.07,-710.24 504,-711 504,-711 504,-711 500.07,-710.24 504.68,-707.47 496.15,-709.48 496.15,-709.48"/>
<ellipse fill="none" stroke="black" cx="493" cy="-708.87" rx="3.2" ry="3.2"/>
</g>
<!-- c_charge -->
<g id="node3" class="node">
<title>c_charge</title>
<g id="a_node3"><a xlink:href="../../tables/c_charge.html" xlink:title="c_charge" target="_top">
<polygon fill="#ffffff" stroke="transparent" points="258,-605 258,-817 454,-817 454,-605 258,-605"/>
<polygon fill="#f5f5f5" stroke="transparent" points="258,-795 258,-817 454,-817 454,-795 258,-795"/>
<polygon fill="none" stroke="black" points="258,-795 258,-817 454,-817 454,-795 258,-795"/>
<text text-anchor="start" x="263" y="-804.2" font-family="Helvetica,sans-Serif" font-weight="bold" font-size="11.00">c_charge</text>
<text text-anchor="start" x="419" y="-803.2" font-family="Helvetica,sans-Serif" font-size="11.00">[table]</text>
<polygon fill="none" stroke="black" points="258,-773 258,-795 454,-795 454,-773 258,-773"/>
<image xlink:href="../../images/primaryKeys.png" width="11px" height="12px" preserveAspectRatio="xMinYMin meet" x="263" y="-790"/>
<text text-anchor="start" x="278" y="-781.2" font-family="Helvetica,sans-Serif" font-size="11.00">c_charge_id</text>
<polygon fill="#ffffff" stroke="transparent" points="258,-751 258,-773 454,-773 454,-751 258,-751"/>
<polygon fill="none" stroke="black" points="258,-751 258,-773 454,-773 454,-751 258,-751"/>
<text text-anchor="start" x="278" y="-759.2" font-family="Helvetica,sans-Serif" font-size="11.00">ad_client_id</text>
<polygon fill="#ffffff" stroke="transparent" points="258,-729 258,-751 454,-751 454,-729 258,-729"/>
<polygon fill="none" stroke="black" points="258,-729 258,-751 454,-751 454,-729 258,-729"/>
<text text-anchor="start" x="278" y="-737.2" font-family="Helvetica,sans-Serif" font-size="11.00">name</text>
<polygon fill="none" stroke="black" points="258,-707 258,-729 454,-729 454,-707 258,-707"/>
<image xlink:href="../../images/foreignKeys.png" width="11px" height="12px" preserveAspectRatio="xMinYMin meet" x="263" y="-724"/>
<text text-anchor="start" x="278" y="-715.2" font-family="Helvetica,sans-Serif" font-size="11.00">c_taxcategory_id</text>
<polygon fill="none" stroke="black" points="258,-685 258,-707 454,-707 454,-685 258,-685"/>
<image xlink:href="../../images/foreignKeys.png" width="11px" height="12px" preserveAspectRatio="xMinYMin meet" x="263" y="-702"/>
<text text-anchor="start" x="278" y="-693.2" font-family="Helvetica,sans-Serif" font-size="11.00">c_bpartner_id</text>
<polygon fill="none" stroke="black" points="258,-663 258,-685 454,-685 454,-663 258,-663"/>
<image xlink:href="../../images/foreignKeys.png" width="11px" height="12px" preserveAspectRatio="xMinYMin meet" x="263" y="-680"/>
<text text-anchor="start" x="278" y="-671.2" font-family="Helvetica,sans-Serif" font-size="11.00">c_chargetype_id</text>
<polygon fill="#ffffff" stroke="transparent" points="258,-641 258,-663 454,-663 454,-641 258,-641"/>
<polygon fill="none" stroke="black" points="258,-641 258,-663 454,-663 454,-641 258,-641"/>
<text text-anchor="start" x="278" y="-649.2" font-family="Helvetica,sans-Serif" font-size="11.00">c_charge_uu</text>
<polygon fill="none" stroke="black" points="258,-623 258,-641 454,-641 454,-623 258,-623"/>
<text text-anchor="start" x="261" y="-629.2" font-family="Helvetica,sans-Serif" font-size="11.00">...</text>
<polygon fill="#ffffff" stroke="transparent" points="258,-605 258,-623 454,-623 454,-605 258,-605"/>
<polygon fill="none" stroke="black" points="258,-605 258,-623 454,-623 454,-605 258,-605"/>
<polygon fill="#ffffff" stroke="transparent" points="259,-606 259,-622 312,-622 312,-606 259,-606"/>
<text text-anchor="start" x="261" y="-611.2" font-family="Helvetica,sans-Serif" font-size="11.00">&lt; 3</text>
<polygon fill="#ffffff" stroke="transparent" points="312,-606 312,-622 394,-622 394,-606 312,-606"/>
<text text-anchor="start" x="330.5" y="-611.2" font-family="Helvetica,sans-Serif" font-size="11.00">266 rows</text>
<polygon fill="#ffffff" stroke="transparent" points="394,-606 394,-622 453,-622 453,-606 394,-606"/>
<text text-anchor="start" x="429" y="-611.2" font-family="Helvetica,sans-Serif" font-size="11.00">38 &gt;</text>
<polygon fill="black" stroke="black" points="312,-606 312,-622 312,-622 312,-606 312,-606"/>
<polygon fill="black" stroke="black" points="394,-606 394,-622 394,-622 394,-606 394,-606"/>
</a>
</g>
</g>
<!-- c_charge_acct&#45;&gt;c_charge -->
<g id="edge2" class="edge">
<title>c_charge_acct:w&#45;&gt;c_charge:e</title>
<path fill="none" stroke="black" d="M490.09,-738.08C476.26,-750.98 480.29,-784 455,-784"/>
<polygon fill="black" stroke="black" points="496.48,-735.74 505.23,-736.38 500.24,-734.37 504,-733 504,-733 504,-733 500.24,-734.37 502.77,-729.62 496.48,-735.74 496.48,-735.74"/>
<ellipse fill="none" stroke="black" cx="493.48" cy="-736.84" rx="3.2" ry="3.2"/>
</g>
<!-- c_validcombination -->
<g id="node4" class="node">
<title>c_validcombination</title>
<g id="a_node4"><a xlink:href="../../tables/c_validcombination.html" xlink:title="c_validcombination" target="_top">
<polygon fill="#ffffff" stroke="transparent" points="263,-37 263,-557 449,-557 449,-37 263,-37"/>
<polygon fill="#f5f5f5" stroke="transparent" points="263,-535 263,-557 449,-557 449,-535 263,-535"/>
<polygon fill="none" stroke="black" points="263,-535 263,-557 449,-557 449,-535 263,-535"/>
<text text-anchor="start" x="268" y="-544.2" font-family="Helvetica,sans-Serif" font-weight="bold" font-size="11.00">c_validcombination</text>
<text text-anchor="start" x="414" y="-543.2" font-family="Helvetica,sans-Serif" font-size="11.00">[table]</text>
<polygon fill="none" stroke="black" points="263,-513 263,-535 449,-535 449,-513 263,-513"/>
<image xlink:href="../../images/primaryKeys.png" width="11px" height="12px" preserveAspectRatio="xMinYMin meet" x="268" y="-530"/>
<text text-anchor="start" x="283" y="-521.2" font-family="Helvetica,sans-Serif" font-size="11.00">c_validcombination_id</text>
<polygon fill="#ffffff" stroke="transparent" points="263,-491 263,-513 449,-513 449,-491 263,-491"/>
<polygon fill="none" stroke="black" points="263,-491 263,-513 449,-513 449,-491 263,-491"/>
<image xlink:href="../../images/foreignKeys.png" width="11px" height="12px" preserveAspectRatio="xMinYMin meet" x="268" y="-508"/>
<text text-anchor="start" x="283" y="-499.2" font-family="Helvetica,sans-Serif" font-size="11.00">ad_client_id</text>
<polygon fill="#ffffff" stroke="transparent" points="263,-469 263,-491 449,-491 449,-469 263,-469"/>
<polygon fill="none" stroke="black" points="263,-469 263,-491 449,-491 449,-469 263,-469"/>
<image xlink:href="../../images/foreignKeys.png" width="11px" height="12px" preserveAspectRatio="xMinYMin meet" x="268" y="-486"/>
<text text-anchor="start" x="283" y="-477.2" font-family="Helvetica,sans-Serif" font-size="11.00">ad_org_id</text>
<polygon fill="#ffffff" stroke="transparent" points="263,-447 263,-469 449,-469 449,-447 263,-447"/>
<polygon fill="none" stroke="black" points="263,-447 263,-469 449,-469 449,-447 263,-447"/>
<text text-anchor="start" x="283" y="-455.2" font-family="Helvetica,sans-Serif" font-size="11.00">alias</text>
<polygon fill="#ffffff" stroke="transparent" points="263,-425 263,-447 449,-447 449,-425 263,-425"/>
<polygon fill="none" stroke="black" points="263,-425 263,-447 449,-447 449,-425 263,-425"/>
<image xlink:href="../../images/foreignKeys.png" width="11px" height="12px" preserveAspectRatio="xMinYMin meet" x="268" y="-442"/>
<text text-anchor="start" x="283" y="-433.2" font-family="Helvetica,sans-Serif" font-size="11.00">c_acctschema_id</text>
<polygon fill="#ffffff" stroke="transparent" points="263,-403 263,-425 449,-425 449,-403 263,-403"/>
<polygon fill="none" stroke="black" points="263,-403 263,-425 449,-425 449,-403 263,-403"/>
<image xlink:href="../../images/foreignKeys.png" width="11px" height="12px" preserveAspectRatio="xMinYMin meet" x="268" y="-420"/>
<text text-anchor="start" x="283" y="-411.2" font-family="Helvetica,sans-Serif" font-size="11.00">account_id</text>
<polygon fill="#ffffff" stroke="transparent" points="263,-381 263,-403 449,-403 449,-381 263,-381"/>
<polygon fill="none" stroke="black" points="263,-381 263,-403 449,-403 449,-381 263,-381"/>
<image xlink:href="../../images/foreignKeys.png" width="11px" height="12px" preserveAspectRatio="xMinYMin meet" x="268" y="-398"/>
<text text-anchor="start" x="283" y="-389.2" font-family="Helvetica,sans-Serif" font-size="11.00">m_product_id</text>
<polygon fill="#ffffff" stroke="transparent" points="263,-359 263,-381 449,-381 449,-359 263,-359"/>
<polygon fill="none" stroke="black" points="263,-359 263,-381 449,-381 449,-359 263,-359"/>
<image xlink:href="../../images/foreignKeys.png" width="11px" height="12px" preserveAspectRatio="xMinYMin meet" x="268" y="-376"/>
<text text-anchor="start" x="283" y="-367.2" font-family="Helvetica,sans-Serif" font-size="11.00">c_bpartner_id</text>
<polygon fill="#ffffff" stroke="transparent" points="263,-337 263,-359 449,-359 449,-337 263,-337"/>
<polygon fill="none" stroke="black" points="263,-337 263,-359 449,-359 449,-337 263,-337"/>
<image xlink:href="../../images/foreignKeys.png" width="11px" height="12px" preserveAspectRatio="xMinYMin meet" x="268" y="-354"/>
<text text-anchor="start" x="283" y="-345.2" font-family="Helvetica,sans-Serif" font-size="11.00">ad_orgtrx_id</text>
<polygon fill="#ffffff" stroke="transparent" points="263,-315 263,-337 449,-337 449,-315 263,-315"/>
<polygon fill="none" stroke="black" points="263,-315 263,-337 449,-337 449,-315 263,-315"/>
<image xlink:href="../../images/foreignKeys.png" width="11px" height="12px" preserveAspectRatio="xMinYMin meet" x="268" y="-332"/>
<text text-anchor="start" x="283" y="-323.2" font-family="Helvetica,sans-Serif" font-size="11.00">c_locfrom_id</text>
<polygon fill="#ffffff" stroke="transparent" points="263,-293 263,-315 449,-315 449,-293 263,-293"/>
<polygon fill="none" stroke="black" points="263,-293 263,-315 449,-315 449,-293 263,-293"/>
<image xlink:href="../../images/foreignKeys.png" width="11px" height="12px" preserveAspectRatio="xMinYMin meet" x="268" y="-310"/>
<text text-anchor="start" x="283" y="-301.2" font-family="Helvetica,sans-Serif" font-size="11.00">c_locto_id</text>
<polygon fill="#ffffff" stroke="transparent" points="263,-271 263,-293 449,-293 449,-271 263,-271"/>
<polygon fill="none" stroke="black" points="263,-271 263,-293 449,-293 449,-271 263,-271"/>
<image xlink:href="../../images/foreignKeys.png" width="11px" height="12px" preserveAspectRatio="xMinYMin meet" x="268" y="-288"/>
<text text-anchor="start" x="283" y="-279.2" font-family="Helvetica,sans-Serif" font-size="11.00">c_salesregion_id</text>
<polygon fill="#ffffff" stroke="transparent" points="263,-249 263,-271 449,-271 449,-249 263,-249"/>
<polygon fill="none" stroke="black" points="263,-249 263,-271 449,-271 449,-249 263,-249"/>
<image xlink:href="../../images/foreignKeys.png" width="11px" height="12px" preserveAspectRatio="xMinYMin meet" x="268" y="-266"/>
<text text-anchor="start" x="283" y="-257.2" font-family="Helvetica,sans-Serif" font-size="11.00">c_project_id</text>
<polygon fill="#ffffff" stroke="transparent" points="263,-227 263,-249 449,-249 449,-227 263,-227"/>
<polygon fill="none" stroke="black" points="263,-227 263,-249 449,-249 449,-227 263,-227"/>
<image xlink:href="../../images/foreignKeys.png" width="11px" height="12px" preserveAspectRatio="xMinYMin meet" x="268" y="-244"/>
<text text-anchor="start" x="283" y="-235.2" font-family="Helvetica,sans-Serif" font-size="11.00">c_campaign_id</text>
<polygon fill="#ffffff" stroke="transparent" points="263,-205 263,-227 449,-227 449,-205 263,-205"/>
<polygon fill="none" stroke="black" points="263,-205 263,-227 449,-227 449,-205 263,-205"/>
<image xlink:href="../../images/foreignKeys.png" width="11px" height="12px" preserveAspectRatio="xMinYMin meet" x="268" y="-222"/>
<text text-anchor="start" x="283" y="-213.2" font-family="Helvetica,sans-Serif" font-size="11.00">c_activity_id</text>
<polygon fill="#ffffff" stroke="transparent" points="263,-183 263,-205 449,-205 449,-183 263,-183"/>
<polygon fill="none" stroke="black" points="263,-183 263,-205 449,-205 449,-183 263,-183"/>
<image xlink:href="../../images/foreignKeys.png" width="11px" height="12px" preserveAspectRatio="xMinYMin meet" x="268" y="-200"/>
<text text-anchor="start" x="283" y="-191.2" font-family="Helvetica,sans-Serif" font-size="11.00">user1_id</text>
<polygon fill="#ffffff" stroke="transparent" points="263,-161 263,-183 449,-183 449,-161 263,-161"/>
<polygon fill="none" stroke="black" points="263,-161 263,-183 449,-183 449,-161 263,-161"/>
<image xlink:href="../../images/foreignKeys.png" width="11px" height="12px" preserveAspectRatio="xMinYMin meet" x="268" y="-178"/>
<text text-anchor="start" x="283" y="-169.2" font-family="Helvetica,sans-Serif" font-size="11.00">user2_id</text>
<polygon fill="#ffffff" stroke="transparent" points="263,-139 263,-161 449,-161 449,-139 263,-139"/>
<polygon fill="none" stroke="black" points="263,-139 263,-161 449,-161 449,-139 263,-139"/>
<image xlink:href="../../images/foreignKeys.png" width="11px" height="12px" preserveAspectRatio="xMinYMin meet" x="268" y="-156"/>
<text text-anchor="start" x="283" y="-147.2" font-family="Helvetica,sans-Serif" font-size="11.00">c_subacct_id</text>
<polygon fill="#ffffff" stroke="transparent" points="263,-117 263,-139 449,-139 449,-117 263,-117"/>
<polygon fill="none" stroke="black" points="263,-117 263,-139 449,-139 449,-117 263,-117"/>
<text text-anchor="start" x="283" y="-125.2" font-family="Helvetica,sans-Serif" font-size="11.00">userelement1_id</text>
<polygon fill="#ffffff" stroke="transparent" points="263,-95 263,-117 449,-117 449,-95 263,-95"/>
<polygon fill="none" stroke="black" points="263,-95 263,-117 449,-117 449,-95 263,-95"/>
<text text-anchor="start" x="283" y="-103.2" font-family="Helvetica,sans-Serif" font-size="11.00">userelement2_id</text>
<polygon fill="#ffffff" stroke="transparent" points="263,-73 263,-95 449,-95 449,-73 263,-73"/>
<polygon fill="none" stroke="black" points="263,-73 263,-95 449,-95 449,-73 263,-73"/>
<text text-anchor="start" x="283" y="-81.2" font-family="Helvetica,sans-Serif" font-size="11.00">c_validcombination_uu</text>
<polygon fill="none" stroke="black" points="263,-55 263,-73 449,-73 449,-55 263,-55"/>
<text text-anchor="start" x="266" y="-61.2" font-family="Helvetica,sans-Serif" font-size="11.00">...</text>
<polygon fill="#ffffff" stroke="transparent" points="263,-37 263,-55 449,-55 449,-37 263,-37"/>
<polygon fill="none" stroke="black" points="263,-37 263,-55 449,-55 449,-37 263,-37"/>
<polygon fill="#ffffff" stroke="transparent" points="264,-38 264,-54 316,-54 316,-38 264,-38"/>
<text text-anchor="start" x="266" y="-43.2" font-family="Helvetica,sans-Serif" font-size="11.00">&lt; 16</text>
<polygon fill="#ffffff" stroke="transparent" points="316,-38 316,-54 391,-54 391,-38 316,-38"/>
<text text-anchor="start" x="331" y="-43.2" font-family="Helvetica,sans-Serif" font-size="11.00">784 rows</text>
<polygon fill="#ffffff" stroke="transparent" points="391,-38 391,-54 448,-54 448,-38 391,-38"/>
<text text-anchor="start" x="418" y="-43.2" font-family="Helvetica,sans-Serif" font-size="11.00">262 &gt;</text>
<polygon fill="black" stroke="black" points="316,-38 316,-54 316,-54 316,-38 316,-38"/>
<polygon fill="black" stroke="black" points="391,-38 391,-54 391,-54 391,-38 391,-38"/>
</a>
</g>
</g>
<!-- c_charge_acct&#45;&gt;c_validcombination -->
<g id="edge3" class="edge">
<title>c_charge_acct:w&#45;&gt;c_validcombination:e</title>
<path fill="none" stroke="black" d="M489.49,-533.47C476.09,-530.45 468.75,-524 450,-524"/>
<polygon fill="black" stroke="black" points="496.04,-534.16 503.62,-538.58 500.02,-534.58 504,-535 504,-535 504,-535 500.02,-534.58 504.38,-531.42 496.04,-534.16 496.04,-534.16"/>
<ellipse fill="none" stroke="black" cx="492.86" cy="-533.83" rx="3.2" ry="3.2"/>
</g>
<!-- c_charge_acct&#45;&gt;c_validcombination -->
<g id="edge4" class="edge">
<title>c_charge_acct:w&#45;&gt;c_validcombination:e</title>
<path fill="none" stroke="black" d="M489.49,-514.53C476.09,-517.55 468.75,-524 450,-524"/>
<polygon fill="black" stroke="black" points="496.04,-513.84 504.38,-516.58 500.02,-513.42 504,-513 504,-513 504,-513 500.02,-513.42 503.62,-509.42 496.04,-513.84 496.04,-513.84"/>
<ellipse fill="none" stroke="black" cx="492.86" cy="-514.17" rx="3.2" ry="3.2"/>
</g>
<!-- c_validcombination&#45;&gt;c_acctschema -->
<g id="edge5" class="edge">
<title>c_validcombination:w&#45;&gt;c_acctschema:e</title>
<path fill="none" stroke="black" d="M248.18,-440.5C229.4,-456.27 243.85,-508 210.5,-508"/>
<polygon fill="black" stroke="black" points="254.39,-438.48 263.12,-439.42 258.2,-437.24 262,-436 262,-436 262,-436 258.2,-437.24 260.88,-432.58 254.39,-438.48 254.39,-438.48"/>
<ellipse fill="none" stroke="black" cx="251.35" cy="-439.47" rx="3.2" ry="3.2"/>
</g>
</g>
</svg>
