<?xml version="1.0" encoding="UTF-8" standalone="no"?>
<!DOCTYPE svg PUBLIC "-//W3C//DTD SVG 1.1//EN"
 "http://www.w3.org/Graphics/SVG/1.1/DTD/svg11.dtd">
<!-- Generated by graphviz version 2.43.0 (0)
 -->
<!-- Title: oneDegreeRelationshipsDiagram Pages: 1 -->
<svg width="598pt" height="395pt"
 viewBox="0.00 0.00 598.00 395.00" xmlns="http://www.w3.org/2000/svg" xmlns:xlink="http://www.w3.org/1999/xlink">
<g id="graph0" class="graph" transform="scale(1 1) rotate(0) translate(4 391)">
<title>oneDegreeRelationshipsDiagram</title>
<polygon fill="#ffffff" stroke="transparent" points="-4,4 -4,-391 594,-391 594,4 -4,4"/>
<text text-anchor="middle" x="71.5" y="-7.2" font-family="Helvetica,sans-Serif" font-size="11.00">Generated by SchemaSpy</text>
<!-- c_cyclephase -->
<g id="node1" class="node">
<title>c_cyclephase</title>
<g id="a_node1"><a xlink:href="../../tables/c_cyclephase.html" xlink:title="c_cyclephase" target="_top">
<polygon fill="#ffffff" stroke="transparent" points="441,-257 441,-381 582,-381 582,-257 441,-257"/>
<polygon fill="#f5f5f5" stroke="transparent" points="441.5,-359 441.5,-381 582.5,-381 582.5,-359 441.5,-359"/>
<polygon fill="none" stroke="black" points="441.5,-359 441.5,-381 582.5,-381 582.5,-359 441.5,-359"/>
<text text-anchor="start" x="446.5" y="-368.2" font-family="Helvetica,sans-Serif" font-weight="bold" font-size="11.00">c_cyclephase</text>
<text text-anchor="start" x="547.5" y="-367.2" font-family="Helvetica,sans-Serif" font-size="11.00">[table]</text>
<polygon fill="none" stroke="black" points="441.5,-337 441.5,-359 582.5,-359 582.5,-337 441.5,-337"/>
<image xlink:href="../../images/primaryKeys.png" width="11px" height="12px" preserveAspectRatio="xMinYMin meet" x="446.5" y="-354"/>
<text text-anchor="start" x="461.5" y="-345.2" font-family="Helvetica,sans-Serif" font-size="11.00">c_cyclestep_id</text>
<polygon fill="none" stroke="black" points="441.5,-315 441.5,-337 582.5,-337 582.5,-315 441.5,-315"/>
<image xlink:href="../../images/primaryKeys.png" width="11px" height="12px" preserveAspectRatio="xMinYMin meet" x="446.5" y="-332"/>
<text text-anchor="start" x="461.5" y="-323.2" font-family="Helvetica,sans-Serif" font-size="11.00">c_phase_id</text>
<polygon fill="#ffffff" stroke="transparent" points="441.5,-293 441.5,-315 582.5,-315 582.5,-293 441.5,-293"/>
<polygon fill="none" stroke="black" points="441.5,-293 441.5,-315 582.5,-315 582.5,-293 441.5,-293"/>
<text text-anchor="start" x="461.5" y="-301.2" font-family="Helvetica,sans-Serif" font-size="11.00">c_cyclephase_uu</text>
<polygon fill="none" stroke="black" points="441.5,-275 441.5,-293 582.5,-293 582.5,-275 441.5,-275"/>
<text text-anchor="start" x="444.5" y="-281.2" font-family="Helvetica,sans-Serif" font-size="11.00">...</text>
<polygon fill="#ffffff" stroke="transparent" points="441.5,-257 441.5,-275 582.5,-275 582.5,-257 441.5,-257"/>
<polygon fill="none" stroke="black" points="441.5,-257 441.5,-275 582.5,-275 582.5,-257 441.5,-257"/>
<polygon fill="#ffffff" stroke="transparent" points="442.5,-258 442.5,-274 495.5,-274 495.5,-258 442.5,-258"/>
<text text-anchor="start" x="444.5" y="-263.2" font-family="Helvetica,sans-Serif" font-size="11.00">&lt; 2</text>
<polygon fill="#ffffff" stroke="transparent" points="495.5,-258 495.5,-274 538.5,-274 538.5,-258 495.5,-258"/>
<text text-anchor="start" x="513.5" y="-263.2" font-family="Helvetica,sans-Serif" font-size="11.00"> &#160;</text>
<polygon fill="#ffffff" stroke="transparent" points="538.5,-258 538.5,-274 581.5,-274 581.5,-258 538.5,-258"/>
<text text-anchor="start" x="572.5" y="-263.2" font-family="Helvetica,sans-Serif" font-size="11.00"> &#160;</text>
<polygon fill="black" stroke="black" points="495.5,-258 495.5,-274 495.5,-274 495.5,-258 495.5,-258"/>
<polygon fill="black" stroke="black" points="538.5,-258 538.5,-274 538.5,-274 538.5,-258 538.5,-258"/>
</a>
</g>
</g>
<!-- c_cyclestep -->
<g id="node2" class="node">
<title>c_cyclestep</title>
<g id="a_node2"><a xlink:href="../../tables/c_cyclestep.html" xlink:title="c_cyclestep" target="_top">
<polygon fill="#ffffff" stroke="transparent" points="176,-53 176,-383 392,-383 392,-53 176,-53"/>
<polygon fill="#f5f5f5" stroke="transparent" points="178,-359 178,-381 390,-381 390,-359 178,-359"/>
<polygon fill="none" stroke="black" points="178,-359 178,-381 390,-381 390,-359 178,-359"/>
<text text-anchor="start" x="183" y="-368.2" font-family="Helvetica,sans-Serif" font-weight="bold" font-size="11.00">c_cyclestep</text>
<text text-anchor="start" x="355" y="-367.2" font-family="Helvetica,sans-Serif" font-size="11.00">[table]</text>
<polygon fill="none" stroke="black" points="178,-337 178,-359 307,-359 307,-337 178,-337"/>
<image xlink:href="../../images/primaryKeys.png" width="11px" height="12px" preserveAspectRatio="xMinYMin meet" x="183" y="-354"/>
<text text-anchor="start" x="198" y="-345.2" font-family="Helvetica,sans-Serif" font-size="11.00">c_cyclestep_id</text>
<polygon fill="none" stroke="black" points="307,-337 307,-359 390,-359 390,-337 307,-337"/>
<text text-anchor="start" x="310" y="-345.2" font-family="Helvetica,sans-Serif" font-size="11.00">numeric[10]</text>
<polygon fill="none" stroke="black" points="178,-315 178,-337 307,-337 307,-315 178,-315"/>
<text text-anchor="start" x="198" y="-323.2" font-family="Helvetica,sans-Serif" font-size="11.00">ad_client_id</text>
<polygon fill="none" stroke="black" points="307,-315 307,-337 390,-337 390,-315 307,-315"/>
<text text-anchor="start" x="310" y="-323.2" font-family="Helvetica,sans-Serif" font-size="11.00">numeric[10]</text>
<polygon fill="none" stroke="black" points="178,-293 178,-315 307,-315 307,-293 178,-293"/>
<text text-anchor="start" x="198" y="-301.2" font-family="Helvetica,sans-Serif" font-size="11.00">ad_org_id</text>
<polygon fill="none" stroke="black" points="307,-293 307,-315 390,-315 390,-293 307,-293"/>
<text text-anchor="start" x="310" y="-301.2" font-family="Helvetica,sans-Serif" font-size="11.00">numeric[10]</text>
<polygon fill="none" stroke="black" points="178,-271 178,-293 307,-293 307,-271 178,-271"/>
<text text-anchor="start" x="198" y="-279.2" font-family="Helvetica,sans-Serif" font-size="11.00">isactive</text>
<polygon fill="none" stroke="black" points="307,-271 307,-293 390,-293 390,-271 307,-271"/>
<text text-anchor="start" x="310" y="-279.2" font-family="Helvetica,sans-Serif" font-size="11.00">bpchar[1]</text>
<polygon fill="none" stroke="black" points="178,-249 178,-271 307,-271 307,-249 178,-249"/>
<text text-anchor="start" x="198" y="-257.2" font-family="Helvetica,sans-Serif" font-size="11.00">created</text>
<polygon fill="none" stroke="black" points="307,-249 307,-271 390,-271 390,-249 307,-249"/>
<text text-anchor="start" x="310" y="-257.2" font-family="Helvetica,sans-Serif" font-size="11.00">timestamp[29,6]</text>
<polygon fill="none" stroke="black" points="178,-227 178,-249 307,-249 307,-227 178,-227"/>
<text text-anchor="start" x="198" y="-235.2" font-family="Helvetica,sans-Serif" font-size="11.00">createdby</text>
<polygon fill="none" stroke="black" points="307,-227 307,-249 390,-249 390,-227 307,-227"/>
<text text-anchor="start" x="310" y="-235.2" font-family="Helvetica,sans-Serif" font-size="11.00">numeric[10]</text>
<polygon fill="none" stroke="black" points="178,-205 178,-227 307,-227 307,-205 178,-205"/>
<text text-anchor="start" x="198" y="-213.2" font-family="Helvetica,sans-Serif" font-size="11.00">updated</text>
<polygon fill="none" stroke="black" points="307,-205 307,-227 390,-227 390,-205 307,-205"/>
<text text-anchor="start" x="310" y="-213.2" font-family="Helvetica,sans-Serif" font-size="11.00">timestamp[29,6]</text>
<polygon fill="none" stroke="black" points="178,-183 178,-205 307,-205 307,-183 178,-183"/>
<text text-anchor="start" x="198" y="-191.2" font-family="Helvetica,sans-Serif" font-size="11.00">updatedby</text>
<polygon fill="none" stroke="black" points="307,-183 307,-205 390,-205 390,-183 307,-183"/>
<text text-anchor="start" x="310" y="-191.2" font-family="Helvetica,sans-Serif" font-size="11.00">numeric[10]</text>
<polygon fill="none" stroke="black" points="178,-161 178,-183 307,-183 307,-161 178,-161"/>
<image xlink:href="../../images/foreignKeys.png" width="11px" height="12px" preserveAspectRatio="xMinYMin meet" x="183" y="-178"/>
<text text-anchor="start" x="198" y="-169.2" font-family="Helvetica,sans-Serif" font-size="11.00">c_cycle_id</text>
<polygon fill="none" stroke="black" points="307,-161 307,-183 390,-183 390,-161 307,-161"/>
<text text-anchor="start" x="310" y="-169.2" font-family="Helvetica,sans-Serif" font-size="11.00">numeric[10]</text>
<polygon fill="none" stroke="black" points="178,-139 178,-161 307,-161 307,-139 178,-139"/>
<text text-anchor="start" x="198" y="-147.2" font-family="Helvetica,sans-Serif" font-size="11.00">seqno</text>
<polygon fill="none" stroke="black" points="307,-139 307,-161 390,-161 390,-139 307,-139"/>
<text text-anchor="start" x="310" y="-147.2" font-family="Helvetica,sans-Serif" font-size="11.00">numeric[10]</text>
<polygon fill="none" stroke="black" points="178,-117 178,-139 307,-139 307,-117 178,-117"/>
<text text-anchor="start" x="198" y="-125.2" font-family="Helvetica,sans-Serif" font-size="11.00">relativeweight</text>
<polygon fill="none" stroke="black" points="307,-117 307,-139 390,-139 390,-117 307,-117"/>
<text text-anchor="start" x="310" y="-125.2" font-family="Helvetica,sans-Serif" font-size="11.00">numeric[0]</text>
<polygon fill="none" stroke="black" points="178,-95 178,-117 307,-117 307,-95 178,-95"/>
<text text-anchor="start" x="198" y="-103.2" font-family="Helvetica,sans-Serif" font-size="11.00">name</text>
<polygon fill="none" stroke="black" points="307,-95 307,-117 390,-117 390,-95 307,-95"/>
<text text-anchor="start" x="310" y="-103.2" font-family="Helvetica,sans-Serif" font-size="11.00">varchar[60]</text>
<polygon fill="#ffffff" stroke="transparent" points="178,-73 178,-95 307,-95 307,-73 178,-73"/>
<polygon fill="none" stroke="black" points="178,-73 178,-95 307,-95 307,-73 178,-73"/>
<text text-anchor="start" x="198" y="-81.2" font-family="Helvetica,sans-Serif" font-size="11.00">c_cyclestep_uu</text>
<polygon fill="none" stroke="black" points="307,-73 307,-95 390,-95 390,-73 307,-73"/>
<text text-anchor="start" x="310" y="-81.2" font-family="Helvetica,sans-Serif" font-size="11.00">varchar[36]</text>
<polygon fill="#ffffff" stroke="transparent" points="178,-55 178,-73 390,-73 390,-55 178,-55"/>
<polygon fill="none" stroke="black" points="178,-55 178,-73 390,-73 390,-55 178,-55"/>
<polygon fill="#ffffff" stroke="transparent" points="179,-56 179,-72 252,-72 252,-56 179,-56"/>
<text text-anchor="start" x="181" y="-61.2" font-family="Helvetica,sans-Serif" font-size="11.00">&lt; 1</text>
<polygon fill="#ffffff" stroke="transparent" points="252,-56 252,-72 316,-72 316,-56 252,-56"/>
<text text-anchor="start" x="280.5" y="-61.2" font-family="Helvetica,sans-Serif" font-size="11.00"> &#160;</text>
<polygon fill="#ffffff" stroke="transparent" points="316,-56 316,-72 389,-72 389,-56 316,-56"/>
<text text-anchor="start" x="371" y="-61.2" font-family="Helvetica,sans-Serif" font-size="11.00">1 &gt;</text>
<polygon fill="black" stroke="black" points="252,-56 252,-72 252,-72 252,-56 252,-56"/>
<polygon fill="black" stroke="black" points="316,-56 316,-72 316,-72 316,-56 316,-56"/>
<polygon fill="none" stroke="black" stroke-width="2" points="177,-54 177,-382 391,-382 391,-54 177,-54"/>
</a>
</g>
</g>
<!-- c_cyclephase&#45;&gt;c_cyclestep -->
<g id="edge1" class="edge">
<title>c_cyclephase:w&#45;&gt;c_cyclestep:e</title>
<path fill="none" stroke="black" d="M425.84,-348C414.41,-348 407.16,-348 391,-348"/>
<polygon fill="black" stroke="black" points="432.5,-348 440.5,-351.6 436.5,-348 440.5,-348 440.5,-348 440.5,-348 436.5,-348 440.5,-344.4 432.5,-348 432.5,-348"/>
<ellipse fill="none" stroke="black" cx="429.3" cy="-348" rx="3.2" ry="3.2"/>
</g>
<!-- c_cycle -->
<g id="node3" class="node">
<title>c_cycle</title>
<g id="a_node3"><a xlink:href="../../tables/c_cycle.html" xlink:title="c_cycle" target="_top">
<polygon fill="#ffffff" stroke="transparent" points="8,-37 8,-205 127,-205 127,-37 8,-37"/>
<polygon fill="#f5f5f5" stroke="transparent" points="8.5,-183 8.5,-205 127.5,-205 127.5,-183 8.5,-183"/>
<polygon fill="none" stroke="black" points="8.5,-183 8.5,-205 127.5,-205 127.5,-183 8.5,-183"/>
<text text-anchor="start" x="13.5" y="-192.2" font-family="Helvetica,sans-Serif" font-weight="bold" font-size="11.00">c_cycle</text>
<text text-anchor="start" x="92.5" y="-191.2" font-family="Helvetica,sans-Serif" font-size="11.00">[table]</text>
<polygon fill="none" stroke="black" points="8.5,-161 8.5,-183 127.5,-183 127.5,-161 8.5,-161"/>
<image xlink:href="../../images/primaryKeys.png" width="11px" height="12px" preserveAspectRatio="xMinYMin meet" x="13.5" y="-178"/>
<text text-anchor="start" x="28.5" y="-169.2" font-family="Helvetica,sans-Serif" font-size="11.00">c_cycle_id</text>
<polygon fill="#ffffff" stroke="transparent" points="8.5,-139 8.5,-161 127.5,-161 127.5,-139 8.5,-139"/>
<polygon fill="none" stroke="black" points="8.5,-139 8.5,-161 127.5,-161 127.5,-139 8.5,-139"/>
<text text-anchor="start" x="28.5" y="-147.2" font-family="Helvetica,sans-Serif" font-size="11.00">ad_client_id</text>
<polygon fill="#ffffff" stroke="transparent" points="8.5,-117 8.5,-139 127.5,-139 127.5,-117 8.5,-117"/>
<polygon fill="none" stroke="black" points="8.5,-117 8.5,-139 127.5,-139 127.5,-117 8.5,-117"/>
<text text-anchor="start" x="28.5" y="-125.2" font-family="Helvetica,sans-Serif" font-size="11.00">name</text>
<polygon fill="none" stroke="black" points="8.5,-95 8.5,-117 127.5,-117 127.5,-95 8.5,-95"/>
<image xlink:href="../../images/foreignKeys.png" width="11px" height="12px" preserveAspectRatio="xMinYMin meet" x="13.5" y="-112"/>
<text text-anchor="start" x="28.5" y="-103.2" font-family="Helvetica,sans-Serif" font-size="11.00">c_currency_id</text>
<polygon fill="#ffffff" stroke="transparent" points="8.5,-73 8.5,-95 127.5,-95 127.5,-73 8.5,-73"/>
<polygon fill="none" stroke="black" points="8.5,-73 8.5,-95 127.5,-95 127.5,-73 8.5,-73"/>
<text text-anchor="start" x="28.5" y="-81.2" font-family="Helvetica,sans-Serif" font-size="11.00">c_cycle_uu</text>
<polygon fill="none" stroke="black" points="8.5,-55 8.5,-73 127.5,-73 127.5,-55 8.5,-55"/>
<text text-anchor="start" x="11.5" y="-61.2" font-family="Helvetica,sans-Serif" font-size="11.00">...</text>
<polygon fill="#ffffff" stroke="transparent" points="8.5,-37 8.5,-55 127.5,-55 127.5,-37 8.5,-37"/>
<polygon fill="none" stroke="black" points="8.5,-37 8.5,-55 127.5,-55 127.5,-37 8.5,-37"/>
<polygon fill="#ffffff" stroke="transparent" points="9.5,-38 9.5,-54 44.5,-54 44.5,-38 9.5,-38"/>
<text text-anchor="start" x="11.5" y="-43.2" font-family="Helvetica,sans-Serif" font-size="11.00">&lt; 1</text>
<polygon fill="#ffffff" stroke="transparent" points="44.5,-38 44.5,-54 91.5,-54 91.5,-38 44.5,-38"/>
<text text-anchor="start" x="54" y="-43.2" font-family="Helvetica,sans-Serif" font-size="11.00">1 row</text>
<polygon fill="#ffffff" stroke="transparent" points="91.5,-38 91.5,-54 126.5,-54 126.5,-38 91.5,-38"/>
<text text-anchor="start" x="108.5" y="-43.2" font-family="Helvetica,sans-Serif" font-size="11.00">1 &gt;</text>
<polygon fill="black" stroke="black" points="44.5,-38 44.5,-54 44.5,-54 44.5,-38 44.5,-38"/>
<polygon fill="black" stroke="black" points="91.5,-38 91.5,-54 91.5,-54 91.5,-38 91.5,-38"/>
</a>
</g>
</g>
<!-- c_cyclestep&#45;&gt;c_cycle -->
<g id="edge2" class="edge">
<title>c_cyclestep:w&#45;&gt;c_cycle:e</title>
<path fill="none" stroke="black" d="M162.28,-172C151.29,-172 144.16,-172 128.5,-172"/>
<polygon fill="black" stroke="black" points="169,-172 177,-175.6 173,-172 177,-172 177,-172 177,-172 173,-172 177,-168.4 169,-172 169,-172"/>
<ellipse fill="none" stroke="black" cx="165.8" cy="-172" rx="3.2" ry="3.2"/>
</g>
</g>
</svg>
