<?xml version="1.0" encoding="UTF-8" standalone="no"?>
<!DOCTYPE svg PUBLIC "-//W3C//DTD SVG 1.1//EN"
 "http://www.w3.org/Graphics/SVG/1.1/DTD/svg11.dtd">
<!-- Generated by graphviz version 2.43.0 (0)
 -->
<!-- Title: oneDegreeRelationshipsDiagram Pages: 1 -->
<svg width="531pt" height="472pt"
 viewBox="0.00 0.00 531.00 472.00" xmlns="http://www.w3.org/2000/svg" xmlns:xlink="http://www.w3.org/1999/xlink">
<g id="graph0" class="graph" transform="scale(1 1) rotate(0) translate(4 468)">
<title>oneDegreeRelationshipsDiagram</title>
<polygon fill="#ffffff" stroke="transparent" points="-4,4 -4,-468 527,-468 527,4 -4,4"/>
<text text-anchor="middle" x="71.5" y="-7.2" font-family="Helvetica,sans-Serif" font-size="11.00">Generated by SchemaSpy</text>
<!-- c_dunninglevel_trl -->
<g id="node1" class="node">
<title>c_dunninglevel_trl</title>
<g id="a_node1"><a xlink:href="../../tables/c_dunninglevel_trl.html" xlink:title="c_dunninglevel_trl" target="_top">
<polygon fill="#ffffff" stroke="transparent" points="250,-37 250,-367 515,-367 515,-37 250,-37"/>
<polygon fill="#f5f5f5" stroke="transparent" points="252.5,-343 252.5,-365 513.5,-365 513.5,-343 252.5,-343"/>
<polygon fill="none" stroke="black" points="252.5,-343 252.5,-365 513.5,-365 513.5,-343 252.5,-343"/>
<text text-anchor="start" x="257.5" y="-352.2" font-family="Helvetica,sans-Serif" font-weight="bold" font-size="11.00">c_dunninglevel_trl</text>
<text text-anchor="start" x="478.5" y="-351.2" font-family="Helvetica,sans-Serif" font-size="11.00">[table]</text>
<polygon fill="none" stroke="black" points="252.5,-321 252.5,-343 430.5,-343 430.5,-321 252.5,-321"/>
<image xlink:href="../../images/primaryKeys.png" width="11px" height="12px" preserveAspectRatio="xMinYMin meet" x="257.5" y="-338"/>
<text text-anchor="start" x="272.5" y="-329.2" font-family="Helvetica,sans-Serif" font-size="11.00">ad_language</text>
<polygon fill="none" stroke="black" points="430.5,-321 430.5,-343 513.5,-343 513.5,-321 430.5,-321"/>
<text text-anchor="start" x="433.5" y="-329.2" font-family="Helvetica,sans-Serif" font-size="11.00">varchar[6]</text>
<polygon fill="none" stroke="black" points="252.5,-299 252.5,-321 430.5,-321 430.5,-299 252.5,-299"/>
<image xlink:href="../../images/primaryKeys.png" width="11px" height="12px" preserveAspectRatio="xMinYMin meet" x="257.5" y="-316"/>
<text text-anchor="start" x="272.5" y="-307.2" font-family="Helvetica,sans-Serif" font-size="11.00">c_dunninglevel_id</text>
<polygon fill="none" stroke="black" points="430.5,-299 430.5,-321 513.5,-321 513.5,-299 430.5,-299"/>
<text text-anchor="start" x="433.5" y="-307.2" font-family="Helvetica,sans-Serif" font-size="11.00">numeric[10]</text>
<polygon fill="none" stroke="black" points="252.5,-277 252.5,-299 430.5,-299 430.5,-277 252.5,-277"/>
<text text-anchor="start" x="272.5" y="-285.2" font-family="Helvetica,sans-Serif" font-size="11.00">ad_client_id</text>
<polygon fill="none" stroke="black" points="430.5,-277 430.5,-299 513.5,-299 513.5,-277 430.5,-277"/>
<text text-anchor="start" x="433.5" y="-285.2" font-family="Helvetica,sans-Serif" font-size="11.00">numeric[10]</text>
<polygon fill="none" stroke="black" points="252.5,-255 252.5,-277 430.5,-277 430.5,-255 252.5,-255"/>
<text text-anchor="start" x="272.5" y="-263.2" font-family="Helvetica,sans-Serif" font-size="11.00">ad_org_id</text>
<polygon fill="none" stroke="black" points="430.5,-255 430.5,-277 513.5,-277 513.5,-255 430.5,-255"/>
<text text-anchor="start" x="433.5" y="-263.2" font-family="Helvetica,sans-Serif" font-size="11.00">numeric[10]</text>
<polygon fill="none" stroke="black" points="252.5,-233 252.5,-255 430.5,-255 430.5,-233 252.5,-233"/>
<text text-anchor="start" x="272.5" y="-241.2" font-family="Helvetica,sans-Serif" font-size="11.00">isactive</text>
<polygon fill="none" stroke="black" points="430.5,-233 430.5,-255 513.5,-255 513.5,-233 430.5,-233"/>
<text text-anchor="start" x="433.5" y="-241.2" font-family="Helvetica,sans-Serif" font-size="11.00">bpchar[1]</text>
<polygon fill="none" stroke="black" points="252.5,-211 252.5,-233 430.5,-233 430.5,-211 252.5,-211"/>
<text text-anchor="start" x="272.5" y="-219.2" font-family="Helvetica,sans-Serif" font-size="11.00">created</text>
<polygon fill="none" stroke="black" points="430.5,-211 430.5,-233 513.5,-233 513.5,-211 430.5,-211"/>
<text text-anchor="start" x="433.5" y="-219.2" font-family="Helvetica,sans-Serif" font-size="11.00">timestamp[29,6]</text>
<polygon fill="none" stroke="black" points="252.5,-189 252.5,-211 430.5,-211 430.5,-189 252.5,-189"/>
<text text-anchor="start" x="272.5" y="-197.2" font-family="Helvetica,sans-Serif" font-size="11.00">createdby</text>
<polygon fill="none" stroke="black" points="430.5,-189 430.5,-211 513.5,-211 513.5,-189 430.5,-189"/>
<text text-anchor="start" x="433.5" y="-197.2" font-family="Helvetica,sans-Serif" font-size="11.00">numeric[10]</text>
<polygon fill="none" stroke="black" points="252.5,-167 252.5,-189 430.5,-189 430.5,-167 252.5,-167"/>
<text text-anchor="start" x="272.5" y="-175.2" font-family="Helvetica,sans-Serif" font-size="11.00">updated</text>
<polygon fill="none" stroke="black" points="430.5,-167 430.5,-189 513.5,-189 513.5,-167 430.5,-167"/>
<text text-anchor="start" x="433.5" y="-175.2" font-family="Helvetica,sans-Serif" font-size="11.00">timestamp[29,6]</text>
<polygon fill="none" stroke="black" points="252.5,-145 252.5,-167 430.5,-167 430.5,-145 252.5,-145"/>
<text text-anchor="start" x="272.5" y="-153.2" font-family="Helvetica,sans-Serif" font-size="11.00">updatedby</text>
<polygon fill="none" stroke="black" points="430.5,-145 430.5,-167 513.5,-167 513.5,-145 430.5,-145"/>
<text text-anchor="start" x="433.5" y="-153.2" font-family="Helvetica,sans-Serif" font-size="11.00">numeric[10]</text>
<polygon fill="none" stroke="black" points="252.5,-123 252.5,-145 430.5,-145 430.5,-123 252.5,-123"/>
<text text-anchor="start" x="272.5" y="-131.2" font-family="Helvetica,sans-Serif" font-size="11.00">printname</text>
<polygon fill="none" stroke="black" points="430.5,-123 430.5,-145 513.5,-145 513.5,-123 430.5,-123"/>
<text text-anchor="start" x="433.5" y="-131.2" font-family="Helvetica,sans-Serif" font-size="11.00">varchar[60]</text>
<polygon fill="none" stroke="black" points="252.5,-101 252.5,-123 430.5,-123 430.5,-101 252.5,-101"/>
<text text-anchor="start" x="272.5" y="-109.2" font-family="Helvetica,sans-Serif" font-size="11.00">note</text>
<polygon fill="none" stroke="black" points="430.5,-101 430.5,-123 513.5,-123 513.5,-101 430.5,-101"/>
<text text-anchor="start" x="433.5" y="-109.2" font-family="Helvetica,sans-Serif" font-size="11.00">varchar[2000]</text>
<polygon fill="none" stroke="black" points="252.5,-79 252.5,-101 430.5,-101 430.5,-79 252.5,-79"/>
<text text-anchor="start" x="272.5" y="-87.2" font-family="Helvetica,sans-Serif" font-size="11.00">istranslated</text>
<polygon fill="none" stroke="black" points="430.5,-79 430.5,-101 513.5,-101 513.5,-79 430.5,-79"/>
<text text-anchor="start" x="433.5" y="-87.2" font-family="Helvetica,sans-Serif" font-size="11.00">bpchar[1]</text>
<polygon fill="#ffffff" stroke="transparent" points="252.5,-57 252.5,-79 430.5,-79 430.5,-57 252.5,-57"/>
<polygon fill="none" stroke="black" points="252.5,-57 252.5,-79 430.5,-79 430.5,-57 252.5,-57"/>
<text text-anchor="start" x="272.5" y="-65.2" font-family="Helvetica,sans-Serif" font-size="11.00">c_dunninglevel_trl_uu</text>
<polygon fill="none" stroke="black" points="430.5,-57 430.5,-79 513.5,-79 513.5,-57 430.5,-57"/>
<text text-anchor="start" x="433.5" y="-65.2" font-family="Helvetica,sans-Serif" font-size="11.00">varchar[36]</text>
<polygon fill="#ffffff" stroke="transparent" points="252.5,-39 252.5,-57 513.5,-57 513.5,-39 252.5,-39"/>
<polygon fill="none" stroke="black" points="252.5,-39 252.5,-57 513.5,-57 513.5,-39 252.5,-39"/>
<polygon fill="#ffffff" stroke="transparent" points="253.5,-40 253.5,-56 343.5,-56 343.5,-40 253.5,-40"/>
<text text-anchor="start" x="255.5" y="-45.2" font-family="Helvetica,sans-Serif" font-size="11.00">&lt; 2</text>
<polygon fill="#ffffff" stroke="transparent" points="343.5,-40 343.5,-56 423.5,-56 423.5,-40 343.5,-40"/>
<text text-anchor="start" x="380" y="-45.2" font-family="Helvetica,sans-Serif" font-size="11.00"> &#160;</text>
<polygon fill="#ffffff" stroke="transparent" points="423.5,-40 423.5,-56 512.5,-56 512.5,-40 423.5,-40"/>
<text text-anchor="start" x="494.5" y="-45.2" font-family="Helvetica,sans-Serif" font-size="11.00">0 &gt;</text>
<polygon fill="black" stroke="black" points="343.5,-40 343.5,-56 343.5,-56 343.5,-40 343.5,-40"/>
<polygon fill="black" stroke="black" points="423.5,-40 423.5,-56 423.5,-56 423.5,-40 423.5,-40"/>
<polygon fill="none" stroke="black" stroke-width="2" points="251,-38 251,-366 514,-366 514,-38 251,-38"/>
</a>
</g>
</g>
<!-- ad_language -->
<g id="node2" class="node">
<title>ad_language</title>
<g id="a_node2"><a xlink:href="../../tables/ad_language.html" xlink:title="ad_language" target="_top">
<polygon fill="#ffffff" stroke="transparent" points="28,-270 28,-460 181,-460 181,-270 28,-270"/>
<polygon fill="#f5f5f5" stroke="transparent" points="28.5,-438 28.5,-460 181.5,-460 181.5,-438 28.5,-438"/>
<polygon fill="none" stroke="black" points="28.5,-438 28.5,-460 181.5,-460 181.5,-438 28.5,-438"/>
<text text-anchor="start" x="33.5" y="-447.2" font-family="Helvetica,sans-Serif" font-weight="bold" font-size="11.00">ad_language</text>
<text text-anchor="start" x="146.5" y="-446.2" font-family="Helvetica,sans-Serif" font-size="11.00">[table]</text>
<polygon fill="none" stroke="black" points="28.5,-416 28.5,-438 181.5,-438 181.5,-416 28.5,-416"/>
<image xlink:href="../../images/primaryKeys.png" width="11px" height="12px" preserveAspectRatio="xMinYMin meet" x="33.5" y="-433"/>
<text text-anchor="start" x="48.5" y="-424.2" font-family="Helvetica,sans-Serif" font-size="11.00">ad_language</text>
<polygon fill="none" stroke="black" points="28.5,-394 28.5,-416 181.5,-416 181.5,-394 28.5,-394"/>
<image xlink:href="../../images/foreignKeys.png" width="11px" height="12px" preserveAspectRatio="xMinYMin meet" x="33.5" y="-411"/>
<text text-anchor="start" x="48.5" y="-402.2" font-family="Helvetica,sans-Serif" font-size="11.00">ad_client_id</text>
<polygon fill="none" stroke="black" points="28.5,-372 28.5,-394 181.5,-394 181.5,-372 28.5,-372"/>
<image xlink:href="../../images/foreignKeys.png" width="11px" height="12px" preserveAspectRatio="xMinYMin meet" x="33.5" y="-389"/>
<text text-anchor="start" x="48.5" y="-380.2" font-family="Helvetica,sans-Serif" font-size="11.00">ad_org_id</text>
<polygon fill="#ffffff" stroke="transparent" points="28.5,-350 28.5,-372 181.5,-372 181.5,-350 28.5,-350"/>
<polygon fill="none" stroke="black" points="28.5,-350 28.5,-372 181.5,-372 181.5,-350 28.5,-350"/>
<text text-anchor="start" x="48.5" y="-358.2" font-family="Helvetica,sans-Serif" font-size="11.00">ad_language_id</text>
<polygon fill="#ffffff" stroke="transparent" points="28.5,-328 28.5,-350 181.5,-350 181.5,-328 28.5,-328"/>
<polygon fill="none" stroke="black" points="28.5,-328 28.5,-350 181.5,-350 181.5,-328 28.5,-328"/>
<text text-anchor="start" x="48.5" y="-336.2" font-family="Helvetica,sans-Serif" font-size="11.00">ad_language_uu</text>
<polygon fill="none" stroke="black" points="28.5,-306 28.5,-328 181.5,-328 181.5,-306 28.5,-306"/>
<image xlink:href="../../images/foreignKeys.png" width="11px" height="12px" preserveAspectRatio="xMinYMin meet" x="33.5" y="-323"/>
<text text-anchor="start" x="48.5" y="-314.2" font-family="Helvetica,sans-Serif" font-size="11.00">ad_printpaper_id</text>
<polygon fill="none" stroke="black" points="28.5,-288 28.5,-306 181.5,-306 181.5,-288 28.5,-288"/>
<text text-anchor="start" x="31.5" y="-294.2" font-family="Helvetica,sans-Serif" font-size="11.00">...</text>
<polygon fill="#ffffff" stroke="transparent" points="28.5,-270 28.5,-288 181.5,-288 181.5,-270 28.5,-270"/>
<polygon fill="none" stroke="black" points="28.5,-270 28.5,-288 181.5,-288 181.5,-270 28.5,-270"/>
<polygon fill="#ffffff" stroke="transparent" points="29.5,-271 29.5,-287 68.5,-287 68.5,-271 29.5,-271"/>
<text text-anchor="start" x="31.5" y="-276.2" font-family="Helvetica,sans-Serif" font-size="11.00">&lt; 3</text>
<polygon fill="#ffffff" stroke="transparent" points="68.5,-271 68.5,-287 136.5,-287 136.5,-271 68.5,-271"/>
<text text-anchor="start" x="80" y="-276.2" font-family="Helvetica,sans-Serif" font-size="11.00">109 rows</text>
<polygon fill="#ffffff" stroke="transparent" points="136.5,-271 136.5,-287 180.5,-287 180.5,-271 136.5,-271"/>
<text text-anchor="start" x="156.5" y="-276.2" font-family="Helvetica,sans-Serif" font-size="11.00">88 &gt;</text>
<polygon fill="black" stroke="black" points="68.5,-271 68.5,-287 68.5,-287 68.5,-271 68.5,-271"/>
<polygon fill="black" stroke="black" points="136.5,-271 136.5,-287 136.5,-287 136.5,-271 136.5,-271"/>
</a>
</g>
</g>
<!-- c_dunninglevel_trl&#45;&gt;ad_language -->
<g id="edge1" class="edge">
<title>c_dunninglevel_trl:w&#45;&gt;ad_language:e</title>
<path fill="none" stroke="black" d="M237.29,-335.16C206.01,-351.64 228.98,-427 182.5,-427"/>
<polygon fill="black" stroke="black" points="243.69,-333.74 252.28,-335.51 247.6,-332.87 251.5,-332 251.5,-332 251.5,-332 247.6,-332.87 250.72,-328.49 243.69,-333.74 243.69,-333.74"/>
<ellipse fill="none" stroke="black" cx="240.57" cy="-334.43" rx="3.2" ry="3.2"/>
</g>
<!-- c_dunninglevel -->
<g id="node3" class="node">
<title>c_dunninglevel</title>
<g id="a_node3"><a xlink:href="../../tables/c_dunninglevel.html" xlink:title="c_dunninglevel" target="_top">
<polygon fill="#ffffff" stroke="transparent" points="8,-81 8,-249 201,-249 201,-81 8,-81"/>
<polygon fill="#f5f5f5" stroke="transparent" points="8.5,-227 8.5,-249 201.5,-249 201.5,-227 8.5,-227"/>
<polygon fill="none" stroke="black" points="8.5,-227 8.5,-249 201.5,-249 201.5,-227 8.5,-227"/>
<text text-anchor="start" x="13.5" y="-236.2" font-family="Helvetica,sans-Serif" font-weight="bold" font-size="11.00">c_dunninglevel</text>
<text text-anchor="start" x="166.5" y="-235.2" font-family="Helvetica,sans-Serif" font-size="11.00">[table]</text>
<polygon fill="none" stroke="black" points="8.5,-205 8.5,-227 201.5,-227 201.5,-205 8.5,-205"/>
<image xlink:href="../../images/primaryKeys.png" width="11px" height="12px" preserveAspectRatio="xMinYMin meet" x="13.5" y="-222"/>
<text text-anchor="start" x="28.5" y="-213.2" font-family="Helvetica,sans-Serif" font-size="11.00">c_dunninglevel_id</text>
<polygon fill="none" stroke="black" points="8.5,-183 8.5,-205 201.5,-205 201.5,-183 8.5,-183"/>
<image xlink:href="../../images/foreignKeys.png" width="11px" height="12px" preserveAspectRatio="xMinYMin meet" x="13.5" y="-200"/>
<text text-anchor="start" x="28.5" y="-191.2" font-family="Helvetica,sans-Serif" font-size="11.00">c_dunning_id</text>
<polygon fill="none" stroke="black" points="8.5,-161 8.5,-183 201.5,-183 201.5,-161 8.5,-161"/>
<image xlink:href="../../images/foreignKeys.png" width="11px" height="12px" preserveAspectRatio="xMinYMin meet" x="13.5" y="-178"/>
<text text-anchor="start" x="28.5" y="-169.2" font-family="Helvetica,sans-Serif" font-size="11.00">dunning_printformat_id</text>
<polygon fill="none" stroke="black" points="8.5,-139 8.5,-161 201.5,-161 201.5,-139 8.5,-139"/>
<image xlink:href="../../images/foreignKeys.png" width="11px" height="12px" preserveAspectRatio="xMinYMin meet" x="13.5" y="-156"/>
<text text-anchor="start" x="28.5" y="-147.2" font-family="Helvetica,sans-Serif" font-size="11.00">c_paymentterm_id</text>
<polygon fill="#ffffff" stroke="transparent" points="8.5,-117 8.5,-139 201.5,-139 201.5,-117 8.5,-117"/>
<polygon fill="none" stroke="black" points="8.5,-117 8.5,-139 201.5,-139 201.5,-117 8.5,-117"/>
<text text-anchor="start" x="28.5" y="-125.2" font-family="Helvetica,sans-Serif" font-size="11.00">c_dunninglevel_uu</text>
<polygon fill="none" stroke="black" points="8.5,-99 8.5,-117 201.5,-117 201.5,-99 8.5,-99"/>
<text text-anchor="start" x="11.5" y="-105.2" font-family="Helvetica,sans-Serif" font-size="11.00">...</text>
<polygon fill="#ffffff" stroke="transparent" points="8.5,-81 8.5,-99 201.5,-99 201.5,-81 8.5,-81"/>
<polygon fill="none" stroke="black" points="8.5,-81 8.5,-99 201.5,-99 201.5,-81 8.5,-81"/>
<polygon fill="#ffffff" stroke="transparent" points="9.5,-82 9.5,-98 76.5,-98 76.5,-82 9.5,-82"/>
<text text-anchor="start" x="11.5" y="-87.2" font-family="Helvetica,sans-Serif" font-size="11.00">&lt; 3</text>
<polygon fill="#ffffff" stroke="transparent" points="76.5,-82 76.5,-98 134.5,-98 134.5,-82 76.5,-82"/>
<text text-anchor="start" x="102" y="-87.2" font-family="Helvetica,sans-Serif" font-size="11.00"> &#160;</text>
<polygon fill="#ffffff" stroke="transparent" points="134.5,-82 134.5,-98 200.5,-98 200.5,-82 134.5,-82"/>
<text text-anchor="start" x="182.5" y="-87.2" font-family="Helvetica,sans-Serif" font-size="11.00">4 &gt;</text>
<polygon fill="black" stroke="black" points="76.5,-82 76.5,-98 76.5,-98 76.5,-82 76.5,-82"/>
<polygon fill="black" stroke="black" points="134.5,-82 134.5,-98 134.5,-98 134.5,-82 134.5,-82"/>
</a>
</g>
</g>
<!-- c_dunninglevel_trl&#45;&gt;c_dunninglevel -->
<g id="edge2" class="edge">
<title>c_dunninglevel_trl:w&#45;&gt;c_dunninglevel:e</title>
<path fill="none" stroke="black" d="M237.49,-305.72C214.51,-287.33 243.54,-216 202.5,-216"/>
<polygon fill="black" stroke="black" points="243.85,-307.66 250.45,-313.44 247.67,-308.83 251.5,-310 251.5,-310 251.5,-310 247.67,-308.83 252.55,-306.56 243.85,-307.66 243.85,-307.66"/>
<ellipse fill="none" stroke="black" cx="240.79" cy="-306.73" rx="3.2" ry="3.2"/>
</g>
</g>
</svg>
