<?xml version="1.0" encoding="UTF-8" standalone="no"?>
<!DOCTYPE svg PUBLIC "-//W3C//DTD SVG 1.1//EN"
 "http://www.w3.org/Graphics/SVG/1.1/DTD/svg11.dtd">
<!-- Generated by graphviz version 2.43.0 (0)
 -->
<!-- Title: oneDegreeRelationshipsDiagram Pages: 1 -->
<svg width="512pt" height="614pt"
 viewBox="0.00 0.00 512.00 614.00" xmlns="http://www.w3.org/2000/svg" xmlns:xlink="http://www.w3.org/1999/xlink">
<g id="graph0" class="graph" transform="scale(1 1) rotate(0) translate(4 610)">
<title>oneDegreeRelationshipsDiagram</title>
<polygon fill="#ffffff" stroke="transparent" points="-4,4 -4,-610 508,-610 508,4 -4,4"/>
<text text-anchor="middle" x="71.5" y="-7.2" font-family="Helvetica,sans-Serif" font-size="11.00">Generated by SchemaSpy</text>
<!-- c_jobremuneration -->
<g id="node1" class="node">
<title>c_jobremuneration</title>
<g id="a_node1"><a xlink:href="../../tables/c_jobremuneration.html" xlink:title="c_jobremuneration" target="_top">
<polygon fill="#ffffff" stroke="transparent" points="308.5,-456 308.5,-602 491.5,-602 491.5,-456 308.5,-456"/>
<polygon fill="#f5f5f5" stroke="transparent" points="309,-580 309,-602 492,-602 492,-580 309,-580"/>
<polygon fill="none" stroke="black" points="309,-580 309,-602 492,-602 492,-580 309,-580"/>
<text text-anchor="start" x="314" y="-589.2" font-family="Helvetica,sans-Serif" font-weight="bold" font-size="11.00">c_jobremuneration</text>
<text text-anchor="start" x="457" y="-588.2" font-family="Helvetica,sans-Serif" font-size="11.00">[table]</text>
<polygon fill="none" stroke="black" points="309,-558 309,-580 492,-580 492,-558 309,-558"/>
<image xlink:href="../../images/primaryKeys.png" width="11px" height="12px" preserveAspectRatio="xMinYMin meet" x="314" y="-575"/>
<text text-anchor="start" x="329" y="-566.2" font-family="Helvetica,sans-Serif" font-size="11.00">c_jobremuneration_id</text>
<polygon fill="none" stroke="black" points="309,-536 309,-558 492,-558 492,-536 309,-536"/>
<image xlink:href="../../images/foreignKeys.png" width="11px" height="12px" preserveAspectRatio="xMinYMin meet" x="314" y="-553"/>
<text text-anchor="start" x="329" y="-544.2" font-family="Helvetica,sans-Serif" font-size="11.00">c_job_id</text>
<polygon fill="none" stroke="black" points="309,-514 309,-536 492,-536 492,-514 309,-514"/>
<image xlink:href="../../images/foreignKeys.png" width="11px" height="12px" preserveAspectRatio="xMinYMin meet" x="314" y="-531"/>
<text text-anchor="start" x="329" y="-522.2" font-family="Helvetica,sans-Serif" font-size="11.00">c_remuneration_id</text>
<polygon fill="#ffffff" stroke="transparent" points="309,-492 309,-514 492,-514 492,-492 309,-492"/>
<polygon fill="none" stroke="black" points="309,-492 309,-514 492,-514 492,-492 309,-492"/>
<text text-anchor="start" x="329" y="-500.2" font-family="Helvetica,sans-Serif" font-size="11.00">c_jobremuneration_uu</text>
<polygon fill="none" stroke="black" points="309,-474 309,-492 492,-492 492,-474 309,-474"/>
<text text-anchor="start" x="312" y="-480.2" font-family="Helvetica,sans-Serif" font-size="11.00">...</text>
<polygon fill="#ffffff" stroke="transparent" points="309,-456 309,-474 492,-474 492,-456 309,-456"/>
<polygon fill="none" stroke="black" points="309,-456 309,-474 492,-474 492,-456 309,-456"/>
<polygon fill="#ffffff" stroke="transparent" points="310,-457 310,-473 377,-473 377,-457 310,-457"/>
<text text-anchor="start" x="312" y="-462.2" font-family="Helvetica,sans-Serif" font-size="11.00">&lt; 2</text>
<polygon fill="#ffffff" stroke="transparent" points="377,-457 377,-473 434,-473 434,-457 377,-457"/>
<text text-anchor="start" x="402" y="-462.2" font-family="Helvetica,sans-Serif" font-size="11.00"> &#160;</text>
<polygon fill="#ffffff" stroke="transparent" points="434,-457 434,-473 491,-473 491,-457 434,-457"/>
<text text-anchor="start" x="482" y="-462.2" font-family="Helvetica,sans-Serif" font-size="11.00"> &#160;</text>
<polygon fill="black" stroke="black" points="377,-457 377,-473 377,-473 377,-457 377,-457"/>
<polygon fill="black" stroke="black" points="434,-457 434,-473 434,-473 434,-457 434,-457"/>
</a>
</g>
</g>
<!-- c_remuneration -->
<g id="node2" class="node">
<title>c_remuneration</title>
<g id="a_node2"><a xlink:href="../../tables/c_remuneration.html" xlink:title="c_remuneration" target="_top">
<polygon fill="#ffffff" stroke="transparent" points="8,-37 8,-477 255,-477 255,-37 8,-37"/>
<polygon fill="#f5f5f5" stroke="transparent" points="10.5,-453 10.5,-475 253.5,-475 253.5,-453 10.5,-453"/>
<polygon fill="none" stroke="black" points="10.5,-453 10.5,-475 253.5,-475 253.5,-453 10.5,-453"/>
<text text-anchor="start" x="15.5" y="-462.2" font-family="Helvetica,sans-Serif" font-weight="bold" font-size="11.00">c_remuneration</text>
<text text-anchor="start" x="218.5" y="-461.2" font-family="Helvetica,sans-Serif" font-size="11.00">[table]</text>
<polygon fill="none" stroke="black" points="10.5,-431 10.5,-453 170.5,-453 170.5,-431 10.5,-431"/>
<image xlink:href="../../images/primaryKeys.png" width="11px" height="12px" preserveAspectRatio="xMinYMin meet" x="15.5" y="-448"/>
<text text-anchor="start" x="30.5" y="-439.2" font-family="Helvetica,sans-Serif" font-size="11.00">c_remuneration_id</text>
<polygon fill="none" stroke="black" points="170.5,-431 170.5,-453 253.5,-453 253.5,-431 170.5,-431"/>
<text text-anchor="start" x="173.5" y="-439.2" font-family="Helvetica,sans-Serif" font-size="11.00">numeric[10]</text>
<polygon fill="none" stroke="black" points="10.5,-409 10.5,-431 170.5,-431 170.5,-409 10.5,-409"/>
<text text-anchor="start" x="30.5" y="-417.2" font-family="Helvetica,sans-Serif" font-size="11.00">ad_client_id</text>
<polygon fill="none" stroke="black" points="170.5,-409 170.5,-431 253.5,-431 253.5,-409 170.5,-409"/>
<text text-anchor="start" x="173.5" y="-417.2" font-family="Helvetica,sans-Serif" font-size="11.00">numeric[10]</text>
<polygon fill="none" stroke="black" points="10.5,-387 10.5,-409 170.5,-409 170.5,-387 10.5,-387"/>
<text text-anchor="start" x="30.5" y="-395.2" font-family="Helvetica,sans-Serif" font-size="11.00">ad_org_id</text>
<polygon fill="none" stroke="black" points="170.5,-387 170.5,-409 253.5,-409 253.5,-387 170.5,-387"/>
<text text-anchor="start" x="173.5" y="-395.2" font-family="Helvetica,sans-Serif" font-size="11.00">numeric[10]</text>
<polygon fill="none" stroke="black" points="10.5,-365 10.5,-387 170.5,-387 170.5,-365 10.5,-365"/>
<text text-anchor="start" x="30.5" y="-373.2" font-family="Helvetica,sans-Serif" font-size="11.00">isactive</text>
<polygon fill="none" stroke="black" points="170.5,-365 170.5,-387 253.5,-387 253.5,-365 170.5,-365"/>
<text text-anchor="start" x="173.5" y="-373.2" font-family="Helvetica,sans-Serif" font-size="11.00">bpchar[1]</text>
<polygon fill="none" stroke="black" points="10.5,-343 10.5,-365 170.5,-365 170.5,-343 10.5,-343"/>
<text text-anchor="start" x="30.5" y="-351.2" font-family="Helvetica,sans-Serif" font-size="11.00">created</text>
<polygon fill="none" stroke="black" points="170.5,-343 170.5,-365 253.5,-365 253.5,-343 170.5,-343"/>
<text text-anchor="start" x="173.5" y="-351.2" font-family="Helvetica,sans-Serif" font-size="11.00">timestamp[29,6]</text>
<polygon fill="none" stroke="black" points="10.5,-321 10.5,-343 170.5,-343 170.5,-321 10.5,-321"/>
<text text-anchor="start" x="30.5" y="-329.2" font-family="Helvetica,sans-Serif" font-size="11.00">createdby</text>
<polygon fill="none" stroke="black" points="170.5,-321 170.5,-343 253.5,-343 253.5,-321 170.5,-321"/>
<text text-anchor="start" x="173.5" y="-329.2" font-family="Helvetica,sans-Serif" font-size="11.00">numeric[10]</text>
<polygon fill="none" stroke="black" points="10.5,-299 10.5,-321 170.5,-321 170.5,-299 10.5,-299"/>
<text text-anchor="start" x="30.5" y="-307.2" font-family="Helvetica,sans-Serif" font-size="11.00">updated</text>
<polygon fill="none" stroke="black" points="170.5,-299 170.5,-321 253.5,-321 253.5,-299 170.5,-299"/>
<text text-anchor="start" x="173.5" y="-307.2" font-family="Helvetica,sans-Serif" font-size="11.00">timestamp[29,6]</text>
<polygon fill="none" stroke="black" points="10.5,-277 10.5,-299 170.5,-299 170.5,-277 10.5,-277"/>
<text text-anchor="start" x="30.5" y="-285.2" font-family="Helvetica,sans-Serif" font-size="11.00">updatedby</text>
<polygon fill="none" stroke="black" points="170.5,-277 170.5,-299 253.5,-299 253.5,-277 170.5,-277"/>
<text text-anchor="start" x="173.5" y="-285.2" font-family="Helvetica,sans-Serif" font-size="11.00">numeric[10]</text>
<polygon fill="none" stroke="black" points="10.5,-255 10.5,-277 170.5,-277 170.5,-255 10.5,-255"/>
<text text-anchor="start" x="30.5" y="-263.2" font-family="Helvetica,sans-Serif" font-size="11.00">name</text>
<polygon fill="none" stroke="black" points="170.5,-255 170.5,-277 253.5,-277 253.5,-255 170.5,-255"/>
<text text-anchor="start" x="173.5" y="-263.2" font-family="Helvetica,sans-Serif" font-size="11.00">varchar[60]</text>
<polygon fill="none" stroke="black" points="10.5,-233 10.5,-255 170.5,-255 170.5,-233 10.5,-233"/>
<text text-anchor="start" x="30.5" y="-241.2" font-family="Helvetica,sans-Serif" font-size="11.00">description</text>
<polygon fill="none" stroke="black" points="170.5,-233 170.5,-255 253.5,-255 253.5,-233 170.5,-233"/>
<text text-anchor="start" x="173.5" y="-241.2" font-family="Helvetica,sans-Serif" font-size="11.00">varchar[255]</text>
<polygon fill="none" stroke="black" points="10.5,-211 10.5,-233 170.5,-233 170.5,-211 10.5,-211"/>
<text text-anchor="start" x="30.5" y="-219.2" font-family="Helvetica,sans-Serif" font-size="11.00">help</text>
<polygon fill="none" stroke="black" points="170.5,-211 170.5,-233 253.5,-233 253.5,-211 170.5,-211"/>
<text text-anchor="start" x="173.5" y="-219.2" font-family="Helvetica,sans-Serif" font-size="11.00">varchar[2000]</text>
<polygon fill="none" stroke="black" points="10.5,-189 10.5,-211 170.5,-211 170.5,-189 10.5,-189"/>
<text text-anchor="start" x="30.5" y="-197.2" font-family="Helvetica,sans-Serif" font-size="11.00">remunerationtype</text>
<polygon fill="none" stroke="black" points="170.5,-189 170.5,-211 253.5,-211 253.5,-189 170.5,-189"/>
<text text-anchor="start" x="173.5" y="-197.2" font-family="Helvetica,sans-Serif" font-size="11.00">bpchar[1]</text>
<polygon fill="none" stroke="black" points="10.5,-167 10.5,-189 170.5,-189 170.5,-167 10.5,-167"/>
<text text-anchor="start" x="30.5" y="-175.2" font-family="Helvetica,sans-Serif" font-size="11.00">standardhours</text>
<polygon fill="none" stroke="black" points="170.5,-167 170.5,-189 253.5,-189 253.5,-167 170.5,-167"/>
<text text-anchor="start" x="173.5" y="-175.2" font-family="Helvetica,sans-Serif" font-size="11.00">numeric[10]</text>
<polygon fill="none" stroke="black" points="10.5,-145 10.5,-167 170.5,-167 170.5,-145 10.5,-145"/>
<text text-anchor="start" x="30.5" y="-153.2" font-family="Helvetica,sans-Serif" font-size="11.00">grossramt</text>
<polygon fill="none" stroke="black" points="170.5,-145 170.5,-167 253.5,-167 253.5,-145 170.5,-145"/>
<text text-anchor="start" x="173.5" y="-153.2" font-family="Helvetica,sans-Serif" font-size="11.00">numeric[0]</text>
<polygon fill="none" stroke="black" points="10.5,-123 10.5,-145 170.5,-145 170.5,-123 10.5,-123"/>
<text text-anchor="start" x="30.5" y="-131.2" font-family="Helvetica,sans-Serif" font-size="11.00">grossrcost</text>
<polygon fill="none" stroke="black" points="170.5,-123 170.5,-145 253.5,-145 253.5,-123 170.5,-123"/>
<text text-anchor="start" x="173.5" y="-131.2" font-family="Helvetica,sans-Serif" font-size="11.00">numeric[0]</text>
<polygon fill="none" stroke="black" points="10.5,-101 10.5,-123 170.5,-123 170.5,-101 10.5,-101"/>
<text text-anchor="start" x="30.5" y="-109.2" font-family="Helvetica,sans-Serif" font-size="11.00">overtimeamt</text>
<polygon fill="none" stroke="black" points="170.5,-101 170.5,-123 253.5,-123 253.5,-101 170.5,-101"/>
<text text-anchor="start" x="173.5" y="-109.2" font-family="Helvetica,sans-Serif" font-size="11.00">numeric[0]</text>
<polygon fill="none" stroke="black" points="10.5,-79 10.5,-101 170.5,-101 170.5,-79 10.5,-79"/>
<text text-anchor="start" x="30.5" y="-87.2" font-family="Helvetica,sans-Serif" font-size="11.00">overtimecost</text>
<polygon fill="none" stroke="black" points="170.5,-79 170.5,-101 253.5,-101 253.5,-79 170.5,-79"/>
<text text-anchor="start" x="173.5" y="-87.2" font-family="Helvetica,sans-Serif" font-size="11.00">numeric[0]</text>
<polygon fill="#ffffff" stroke="transparent" points="10.5,-57 10.5,-79 170.5,-79 170.5,-57 10.5,-57"/>
<polygon fill="none" stroke="black" points="10.5,-57 10.5,-79 170.5,-79 170.5,-57 10.5,-57"/>
<text text-anchor="start" x="30.5" y="-65.2" font-family="Helvetica,sans-Serif" font-size="11.00">c_remuneration_uu</text>
<polygon fill="none" stroke="black" points="170.5,-57 170.5,-79 253.5,-79 253.5,-57 170.5,-57"/>
<text text-anchor="start" x="173.5" y="-65.2" font-family="Helvetica,sans-Serif" font-size="11.00">varchar[36]</text>
<polygon fill="#ffffff" stroke="transparent" points="10.5,-39 10.5,-57 253.5,-57 253.5,-39 10.5,-39"/>
<polygon fill="none" stroke="black" points="10.5,-39 10.5,-57 253.5,-57 253.5,-39 10.5,-39"/>
<polygon fill="#ffffff" stroke="transparent" points="11.5,-40 11.5,-56 95.5,-56 95.5,-40 11.5,-40"/>
<text text-anchor="start" x="13.5" y="-45.2" font-family="Helvetica,sans-Serif" font-size="11.00">&lt; 0</text>
<polygon fill="#ffffff" stroke="transparent" points="95.5,-40 95.5,-56 169.5,-56 169.5,-40 95.5,-40"/>
<text text-anchor="start" x="129" y="-45.2" font-family="Helvetica,sans-Serif" font-size="11.00"> &#160;</text>
<polygon fill="#ffffff" stroke="transparent" points="169.5,-40 169.5,-56 252.5,-56 252.5,-40 169.5,-40"/>
<text text-anchor="start" x="234.5" y="-45.2" font-family="Helvetica,sans-Serif" font-size="11.00">2 &gt;</text>
<polygon fill="black" stroke="black" points="95.5,-40 95.5,-56 95.5,-56 95.5,-40 95.5,-40"/>
<polygon fill="black" stroke="black" points="169.5,-40 169.5,-56 169.5,-56 169.5,-40 169.5,-40"/>
<polygon fill="none" stroke="black" stroke-width="2" points="9,-38 9,-476 254,-476 254,-38 9,-38"/>
</a>
</g>
</g>
<!-- c_jobremuneration&#45;&gt;c_remuneration -->
<g id="edge1" class="edge">
<title>c_jobremuneration:w&#45;&gt;c_remuneration:e</title>
<path fill="none" stroke="black" d="M293.98,-520.77C272.02,-503.86 292.39,-442 254.5,-442"/>
<polygon fill="black" stroke="black" points="300.34,-522.69 306.96,-528.45 304.17,-523.84 308,-525 308,-525 308,-525 304.17,-523.84 309.04,-521.55 300.34,-522.69 300.34,-522.69"/>
<ellipse fill="none" stroke="black" cx="297.28" cy="-521.76" rx="3.2" ry="3.2"/>
</g>
<!-- c_userremuneration -->
<g id="node3" class="node">
<title>c_userremuneration</title>
<g id="a_node3"><a xlink:href="../../tables/c_userremuneration.html" xlink:title="c_userremuneration" target="_top">
<polygon fill="#ffffff" stroke="transparent" points="304,-289 304,-435 496,-435 496,-289 304,-289"/>
<polygon fill="#f5f5f5" stroke="transparent" points="304,-413 304,-435 496,-435 496,-413 304,-413"/>
<polygon fill="none" stroke="black" points="304,-413 304,-435 496,-435 496,-413 304,-413"/>
<text text-anchor="start" x="309" y="-422.2" font-family="Helvetica,sans-Serif" font-weight="bold" font-size="11.00">c_userremuneration</text>
<text text-anchor="start" x="461" y="-421.2" font-family="Helvetica,sans-Serif" font-size="11.00">[table]</text>
<polygon fill="none" stroke="black" points="304,-391 304,-413 496,-413 496,-391 304,-391"/>
<image xlink:href="../../images/primaryKeys.png" width="11px" height="12px" preserveAspectRatio="xMinYMin meet" x="309" y="-408"/>
<text text-anchor="start" x="324" y="-399.2" font-family="Helvetica,sans-Serif" font-size="11.00">c_userremuneration_id</text>
<polygon fill="none" stroke="black" points="304,-369 304,-391 496,-391 496,-369 304,-369"/>
<image xlink:href="../../images/foreignKeys.png" width="11px" height="12px" preserveAspectRatio="xMinYMin meet" x="309" y="-386"/>
<text text-anchor="start" x="324" y="-377.2" font-family="Helvetica,sans-Serif" font-size="11.00">ad_user_id</text>
<polygon fill="none" stroke="black" points="304,-347 304,-369 496,-369 496,-347 304,-347"/>
<image xlink:href="../../images/foreignKeys.png" width="11px" height="12px" preserveAspectRatio="xMinYMin meet" x="309" y="-364"/>
<text text-anchor="start" x="324" y="-355.2" font-family="Helvetica,sans-Serif" font-size="11.00">c_remuneration_id</text>
<polygon fill="#ffffff" stroke="transparent" points="304,-325 304,-347 496,-347 496,-325 304,-325"/>
<polygon fill="none" stroke="black" points="304,-325 304,-347 496,-347 496,-325 304,-325"/>
<text text-anchor="start" x="324" y="-333.2" font-family="Helvetica,sans-Serif" font-size="11.00">c_userremuneration_uu</text>
<polygon fill="none" stroke="black" points="304,-307 304,-325 496,-325 496,-307 304,-307"/>
<text text-anchor="start" x="307" y="-313.2" font-family="Helvetica,sans-Serif" font-size="11.00">...</text>
<polygon fill="#ffffff" stroke="transparent" points="304,-289 304,-307 496,-307 496,-289 304,-289"/>
<polygon fill="none" stroke="black" points="304,-289 304,-307 496,-307 496,-289 304,-289"/>
<polygon fill="#ffffff" stroke="transparent" points="305,-290 305,-306 375,-306 375,-290 305,-290"/>
<text text-anchor="start" x="307" y="-295.2" font-family="Helvetica,sans-Serif" font-size="11.00">&lt; 2</text>
<polygon fill="#ffffff" stroke="transparent" points="375,-290 375,-306 435,-306 435,-290 375,-290"/>
<text text-anchor="start" x="401.5" y="-295.2" font-family="Helvetica,sans-Serif" font-size="11.00"> &#160;</text>
<polygon fill="#ffffff" stroke="transparent" points="435,-290 435,-306 495,-306 495,-290 435,-290"/>
<text text-anchor="start" x="486" y="-295.2" font-family="Helvetica,sans-Serif" font-size="11.00"> &#160;</text>
<polygon fill="black" stroke="black" points="375,-290 375,-306 375,-306 375,-290 375,-290"/>
<polygon fill="black" stroke="black" points="435,-290 435,-306 435,-306 435,-290 435,-290"/>
</a>
</g>
</g>
<!-- c_userremuneration&#45;&gt;c_remuneration -->
<g id="edge2" class="edge">
<title>c_userremuneration:w&#45;&gt;c_remuneration:e</title>
<path fill="none" stroke="black" d="M289.16,-362.52C268.9,-379.96 291.55,-442 254.5,-442"/>
<polygon fill="black" stroke="black" points="295.39,-360.48 304.12,-361.42 299.2,-359.24 303,-358 303,-358 303,-358 299.2,-359.24 301.88,-354.58 295.39,-360.48 295.39,-360.48"/>
<ellipse fill="none" stroke="black" cx="292.35" cy="-361.47" rx="3.2" ry="3.2"/>
</g>
</g>
</svg>
