<?xml version="1.0" encoding="UTF-8" standalone="no"?>
<!DOCTYPE svg PUBLIC "-//W3C//DTD SVG 1.1//EN"
 "http://www.w3.org/Graphics/SVG/1.1/DTD/svg11.dtd">
<!-- Generated by graphviz version 2.43.0 (0)
 -->
<!-- Title: oneDegreeRelationshipsDiagram Pages: 1 -->
<svg width="767pt" height="564pt"
 viewBox="0.00 0.00 767.00 564.00" xmlns="http://www.w3.org/2000/svg" xmlns:xlink="http://www.w3.org/1999/xlink">
<g id="graph0" class="graph" transform="scale(1 1) rotate(0) translate(4 560)">
<title>oneDegreeRelationshipsDiagram</title>
<polygon fill="#ffffff" stroke="transparent" points="-4,4 -4,-560 763,-560 763,4 -4,4"/>
<text text-anchor="middle" x="71.5" y="-7.2" font-family="Helvetica,sans-Serif" font-size="11.00">Generated by SchemaSpy</text>
<!-- c_rfqlineqty -->
<g id="node1" class="node">
<title>c_rfqlineqty</title>
<g id="a_node1"><a xlink:href="../../tables/c_rfqlineqty.html" xlink:title="c_rfqlineqty" target="_top">
<polygon fill="#ffffff" stroke="transparent" points="268,-48 268,-510 503,-510 503,-48 268,-48"/>
<polygon fill="#f5f5f5" stroke="transparent" points="270.5,-486 270.5,-508 501.5,-508 501.5,-486 270.5,-486"/>
<polygon fill="none" stroke="black" points="270.5,-486 270.5,-508 501.5,-508 501.5,-486 270.5,-486"/>
<text text-anchor="start" x="275.5" y="-495.2" font-family="Helvetica,sans-Serif" font-weight="bold" font-size="11.00">c_rfqlineqty</text>
<text text-anchor="start" x="466.5" y="-494.2" font-family="Helvetica,sans-Serif" font-size="11.00">[table]</text>
<polygon fill="none" stroke="black" points="270.5,-464 270.5,-486 418.5,-486 418.5,-464 270.5,-464"/>
<image xlink:href="../../images/primaryKeys.png" width="11px" height="12px" preserveAspectRatio="xMinYMin meet" x="275.5" y="-481"/>
<text text-anchor="start" x="290.5" y="-472.2" font-family="Helvetica,sans-Serif" font-size="11.00">c_rfqlineqty_id</text>
<polygon fill="none" stroke="black" points="418.5,-464 418.5,-486 501.5,-486 501.5,-464 418.5,-464"/>
<text text-anchor="start" x="421.5" y="-472.2" font-family="Helvetica,sans-Serif" font-size="11.00">numeric[10]</text>
<polygon fill="none" stroke="black" points="270.5,-442 270.5,-464 418.5,-464 418.5,-442 270.5,-442"/>
<text text-anchor="start" x="290.5" y="-450.2" font-family="Helvetica,sans-Serif" font-size="11.00">ad_client_id</text>
<polygon fill="none" stroke="black" points="418.5,-442 418.5,-464 501.5,-464 501.5,-442 418.5,-442"/>
<text text-anchor="start" x="421.5" y="-450.2" font-family="Helvetica,sans-Serif" font-size="11.00">numeric[10]</text>
<polygon fill="none" stroke="black" points="270.5,-420 270.5,-442 418.5,-442 418.5,-420 270.5,-420"/>
<text text-anchor="start" x="290.5" y="-428.2" font-family="Helvetica,sans-Serif" font-size="11.00">ad_org_id</text>
<polygon fill="none" stroke="black" points="418.5,-420 418.5,-442 501.5,-442 501.5,-420 418.5,-420"/>
<text text-anchor="start" x="421.5" y="-428.2" font-family="Helvetica,sans-Serif" font-size="11.00">numeric[10]</text>
<polygon fill="none" stroke="black" points="270.5,-398 270.5,-420 418.5,-420 418.5,-398 270.5,-398"/>
<text text-anchor="start" x="290.5" y="-406.2" font-family="Helvetica,sans-Serif" font-size="11.00">isactive</text>
<polygon fill="none" stroke="black" points="418.5,-398 418.5,-420 501.5,-420 501.5,-398 418.5,-398"/>
<text text-anchor="start" x="421.5" y="-406.2" font-family="Helvetica,sans-Serif" font-size="11.00">bpchar[1]</text>
<polygon fill="none" stroke="black" points="270.5,-376 270.5,-398 418.5,-398 418.5,-376 270.5,-376"/>
<text text-anchor="start" x="290.5" y="-384.2" font-family="Helvetica,sans-Serif" font-size="11.00">created</text>
<polygon fill="none" stroke="black" points="418.5,-376 418.5,-398 501.5,-398 501.5,-376 418.5,-376"/>
<text text-anchor="start" x="421.5" y="-384.2" font-family="Helvetica,sans-Serif" font-size="11.00">timestamp[29,6]</text>
<polygon fill="none" stroke="black" points="270.5,-354 270.5,-376 418.5,-376 418.5,-354 270.5,-354"/>
<text text-anchor="start" x="290.5" y="-362.2" font-family="Helvetica,sans-Serif" font-size="11.00">createdby</text>
<polygon fill="none" stroke="black" points="418.5,-354 418.5,-376 501.5,-376 501.5,-354 418.5,-354"/>
<text text-anchor="start" x="421.5" y="-362.2" font-family="Helvetica,sans-Serif" font-size="11.00">numeric[10]</text>
<polygon fill="none" stroke="black" points="270.5,-332 270.5,-354 418.5,-354 418.5,-332 270.5,-332"/>
<text text-anchor="start" x="290.5" y="-340.2" font-family="Helvetica,sans-Serif" font-size="11.00">updated</text>
<polygon fill="none" stroke="black" points="418.5,-332 418.5,-354 501.5,-354 501.5,-332 418.5,-332"/>
<text text-anchor="start" x="421.5" y="-340.2" font-family="Helvetica,sans-Serif" font-size="11.00">timestamp[29,6]</text>
<polygon fill="none" stroke="black" points="270.5,-310 270.5,-332 418.5,-332 418.5,-310 270.5,-310"/>
<text text-anchor="start" x="290.5" y="-318.2" font-family="Helvetica,sans-Serif" font-size="11.00">updatedby</text>
<polygon fill="none" stroke="black" points="418.5,-310 418.5,-332 501.5,-332 501.5,-310 418.5,-310"/>
<text text-anchor="start" x="421.5" y="-318.2" font-family="Helvetica,sans-Serif" font-size="11.00">numeric[10]</text>
<polygon fill="none" stroke="black" points="270.5,-288 270.5,-310 418.5,-310 418.5,-288 270.5,-288"/>
<image xlink:href="../../images/foreignKeys.png" width="11px" height="12px" preserveAspectRatio="xMinYMin meet" x="275.5" y="-305"/>
<text text-anchor="start" x="290.5" y="-296.2" font-family="Helvetica,sans-Serif" font-size="11.00">c_rfqline_id</text>
<polygon fill="none" stroke="black" points="418.5,-288 418.5,-310 501.5,-310 501.5,-288 418.5,-288"/>
<text text-anchor="start" x="421.5" y="-296.2" font-family="Helvetica,sans-Serif" font-size="11.00">numeric[10]</text>
<polygon fill="none" stroke="black" points="270.5,-266 270.5,-288 418.5,-288 418.5,-266 270.5,-266"/>
<image xlink:href="../../images/foreignKeys.png" width="11px" height="12px" preserveAspectRatio="xMinYMin meet" x="275.5" y="-283"/>
<text text-anchor="start" x="290.5" y="-274.2" font-family="Helvetica,sans-Serif" font-size="11.00">c_uom_id</text>
<polygon fill="none" stroke="black" points="418.5,-266 418.5,-288 501.5,-288 501.5,-266 418.5,-266"/>
<text text-anchor="start" x="421.5" y="-274.2" font-family="Helvetica,sans-Serif" font-size="11.00">numeric[10]</text>
<polygon fill="none" stroke="black" points="270.5,-244 270.5,-266 418.5,-266 418.5,-244 270.5,-244"/>
<text text-anchor="start" x="290.5" y="-252.2" font-family="Helvetica,sans-Serif" font-size="11.00">qty</text>
<polygon fill="none" stroke="black" points="418.5,-244 418.5,-266 501.5,-266 501.5,-244 418.5,-244"/>
<text text-anchor="start" x="421.5" y="-252.2" font-family="Helvetica,sans-Serif" font-size="11.00">numeric[0]</text>
<polygon fill="none" stroke="black" points="270.5,-222 270.5,-244 418.5,-244 418.5,-222 270.5,-222"/>
<text text-anchor="start" x="290.5" y="-230.2" font-family="Helvetica,sans-Serif" font-size="11.00">margin</text>
<polygon fill="none" stroke="black" points="418.5,-222 418.5,-244 501.5,-244 501.5,-222 418.5,-222"/>
<text text-anchor="start" x="421.5" y="-230.2" font-family="Helvetica,sans-Serif" font-size="11.00">numeric[0]</text>
<polygon fill="none" stroke="black" points="270.5,-200 270.5,-222 418.5,-222 418.5,-200 270.5,-200"/>
<text text-anchor="start" x="290.5" y="-208.2" font-family="Helvetica,sans-Serif" font-size="11.00">ispurchaseqty</text>
<polygon fill="none" stroke="black" points="418.5,-200 418.5,-222 501.5,-222 501.5,-200 418.5,-200"/>
<text text-anchor="start" x="421.5" y="-208.2" font-family="Helvetica,sans-Serif" font-size="11.00">bpchar[1]</text>
<polygon fill="none" stroke="black" points="270.5,-178 270.5,-200 418.5,-200 418.5,-178 270.5,-178"/>
<text text-anchor="start" x="290.5" y="-186.2" font-family="Helvetica,sans-Serif" font-size="11.00">bestresponseamt</text>
<polygon fill="none" stroke="black" points="418.5,-178 418.5,-200 501.5,-200 501.5,-178 418.5,-178"/>
<text text-anchor="start" x="421.5" y="-186.2" font-family="Helvetica,sans-Serif" font-size="11.00">numeric[0]</text>
<polygon fill="none" stroke="black" points="270.5,-156 270.5,-178 418.5,-178 418.5,-156 270.5,-156"/>
<text text-anchor="start" x="290.5" y="-164.2" font-family="Helvetica,sans-Serif" font-size="11.00">isofferqty</text>
<polygon fill="none" stroke="black" points="418.5,-156 418.5,-178 501.5,-178 501.5,-156 418.5,-156"/>
<text text-anchor="start" x="421.5" y="-164.2" font-family="Helvetica,sans-Serif" font-size="11.00">bpchar[1]</text>
<polygon fill="none" stroke="black" points="270.5,-134 270.5,-156 418.5,-156 418.5,-134 270.5,-134"/>
<text text-anchor="start" x="290.5" y="-142.2" font-family="Helvetica,sans-Serif" font-size="11.00">offeramt</text>
<polygon fill="none" stroke="black" points="418.5,-134 418.5,-156 501.5,-156 501.5,-134 418.5,-134"/>
<text text-anchor="start" x="421.5" y="-142.2" font-family="Helvetica,sans-Serif" font-size="11.00">numeric[0]</text>
<polygon fill="none" stroke="black" points="270.5,-112 270.5,-134 418.5,-134 418.5,-112 270.5,-112"/>
<text text-anchor="start" x="290.5" y="-120.2" font-family="Helvetica,sans-Serif" font-size="11.00">benchmarkprice</text>
<polygon fill="none" stroke="black" points="418.5,-112 418.5,-134 501.5,-134 501.5,-112 418.5,-112"/>
<text text-anchor="start" x="421.5" y="-120.2" font-family="Helvetica,sans-Serif" font-size="11.00">numeric[0]</text>
<polygon fill="none" stroke="black" points="270.5,-90 270.5,-112 418.5,-112 418.5,-90 270.5,-90"/>
<text text-anchor="start" x="290.5" y="-98.2" font-family="Helvetica,sans-Serif" font-size="11.00">isrfqqty</text>
<polygon fill="none" stroke="black" points="418.5,-90 418.5,-112 501.5,-112 501.5,-90 418.5,-90"/>
<text text-anchor="start" x="421.5" y="-98.2" font-family="Helvetica,sans-Serif" font-size="11.00">bpchar[1]</text>
<polygon fill="#ffffff" stroke="transparent" points="270.5,-68 270.5,-90 418.5,-90 418.5,-68 270.5,-68"/>
<polygon fill="none" stroke="black" points="270.5,-68 270.5,-90 418.5,-90 418.5,-68 270.5,-68"/>
<text text-anchor="start" x="290.5" y="-76.2" font-family="Helvetica,sans-Serif" font-size="11.00">c_rfqlineqty_uu</text>
<polygon fill="none" stroke="black" points="418.5,-68 418.5,-90 501.5,-90 501.5,-68 418.5,-68"/>
<text text-anchor="start" x="421.5" y="-76.2" font-family="Helvetica,sans-Serif" font-size="11.00">varchar[36]</text>
<polygon fill="#ffffff" stroke="transparent" points="270.5,-50 270.5,-68 501.5,-68 501.5,-50 270.5,-50"/>
<polygon fill="none" stroke="black" points="270.5,-50 270.5,-68 501.5,-68 501.5,-50 270.5,-50"/>
<polygon fill="#ffffff" stroke="transparent" points="271.5,-51 271.5,-67 351.5,-67 351.5,-51 271.5,-51"/>
<text text-anchor="start" x="273.5" y="-56.2" font-family="Helvetica,sans-Serif" font-size="11.00">&lt; 2</text>
<polygon fill="#ffffff" stroke="transparent" points="351.5,-51 351.5,-67 421.5,-67 421.5,-51 351.5,-51"/>
<text text-anchor="start" x="383" y="-56.2" font-family="Helvetica,sans-Serif" font-size="11.00"> &#160;</text>
<polygon fill="#ffffff" stroke="transparent" points="421.5,-51 421.5,-67 500.5,-67 500.5,-51 421.5,-51"/>
<text text-anchor="start" x="482.5" y="-56.2" font-family="Helvetica,sans-Serif" font-size="11.00">1 &gt;</text>
<polygon fill="black" stroke="black" points="351.5,-51 351.5,-67 351.5,-67 351.5,-51 351.5,-51"/>
<polygon fill="black" stroke="black" points="421.5,-51 421.5,-67 421.5,-67 421.5,-51 421.5,-51"/>
<polygon fill="none" stroke="black" stroke-width="2" points="269,-49 269,-509 502,-509 502,-49 269,-49"/>
</a>
</g>
</g>
<!-- c_rfqline -->
<g id="node2" class="node">
<title>c_rfqline</title>
<g id="a_node2"><a xlink:href="../../tables/c_rfqline.html" xlink:title="c_rfqline" target="_top">
<polygon fill="#ffffff" stroke="transparent" points="8,-248 8,-416 219,-416 219,-248 8,-248"/>
<polygon fill="#f5f5f5" stroke="transparent" points="8.5,-394 8.5,-416 219.5,-416 219.5,-394 8.5,-394"/>
<polygon fill="none" stroke="black" points="8.5,-394 8.5,-416 219.5,-416 219.5,-394 8.5,-394"/>
<text text-anchor="start" x="13.5" y="-403.2" font-family="Helvetica,sans-Serif" font-weight="bold" font-size="11.00">c_rfqline</text>
<text text-anchor="start" x="184.5" y="-402.2" font-family="Helvetica,sans-Serif" font-size="11.00">[table]</text>
<polygon fill="none" stroke="black" points="8.5,-372 8.5,-394 219.5,-394 219.5,-372 8.5,-372"/>
<image xlink:href="../../images/primaryKeys.png" width="11px" height="12px" preserveAspectRatio="xMinYMin meet" x="13.5" y="-389"/>
<text text-anchor="start" x="28.5" y="-380.2" font-family="Helvetica,sans-Serif" font-size="11.00">c_rfqline_id</text>
<polygon fill="none" stroke="black" points="8.5,-350 8.5,-372 219.5,-372 219.5,-350 8.5,-350"/>
<image xlink:href="../../images/foreignKeys.png" width="11px" height="12px" preserveAspectRatio="xMinYMin meet" x="13.5" y="-367"/>
<text text-anchor="start" x="28.5" y="-358.2" font-family="Helvetica,sans-Serif" font-size="11.00">c_rfq_id</text>
<polygon fill="none" stroke="black" points="8.5,-328 8.5,-350 219.5,-350 219.5,-328 8.5,-328"/>
<image xlink:href="../../images/foreignKeys.png" width="11px" height="12px" preserveAspectRatio="xMinYMin meet" x="13.5" y="-345"/>
<text text-anchor="start" x="28.5" y="-336.2" font-family="Helvetica,sans-Serif" font-size="11.00">m_product_id</text>
<polygon fill="none" stroke="black" points="8.5,-306 8.5,-328 219.5,-328 219.5,-306 8.5,-306"/>
<image xlink:href="../../images/foreignKeys.png" width="11px" height="12px" preserveAspectRatio="xMinYMin meet" x="13.5" y="-323"/>
<text text-anchor="start" x="28.5" y="-314.2" font-family="Helvetica,sans-Serif" font-size="11.00">m_attributesetinstance_id</text>
<polygon fill="#ffffff" stroke="transparent" points="8.5,-284 8.5,-306 219.5,-306 219.5,-284 8.5,-284"/>
<polygon fill="none" stroke="black" points="8.5,-284 8.5,-306 219.5,-306 219.5,-284 8.5,-284"/>
<text text-anchor="start" x="28.5" y="-292.2" font-family="Helvetica,sans-Serif" font-size="11.00">c_rfqline_uu</text>
<polygon fill="none" stroke="black" points="8.5,-266 8.5,-284 219.5,-284 219.5,-266 8.5,-266"/>
<text text-anchor="start" x="11.5" y="-272.2" font-family="Helvetica,sans-Serif" font-size="11.00">...</text>
<polygon fill="#ffffff" stroke="transparent" points="8.5,-248 8.5,-266 219.5,-266 219.5,-248 8.5,-248"/>
<polygon fill="none" stroke="black" points="8.5,-248 8.5,-266 219.5,-266 219.5,-248 8.5,-248"/>
<polygon fill="#ffffff" stroke="transparent" points="9.5,-249 9.5,-265 82.5,-265 82.5,-249 9.5,-249"/>
<text text-anchor="start" x="11.5" y="-254.2" font-family="Helvetica,sans-Serif" font-size="11.00">&lt; 3</text>
<polygon fill="#ffffff" stroke="transparent" points="82.5,-249 82.5,-265 146.5,-265 146.5,-249 82.5,-249"/>
<text text-anchor="start" x="111" y="-254.2" font-family="Helvetica,sans-Serif" font-size="11.00"> &#160;</text>
<polygon fill="#ffffff" stroke="transparent" points="146.5,-249 146.5,-265 218.5,-265 218.5,-249 146.5,-249"/>
<text text-anchor="start" x="200.5" y="-254.2" font-family="Helvetica,sans-Serif" font-size="11.00">2 &gt;</text>
<polygon fill="black" stroke="black" points="82.5,-249 82.5,-265 82.5,-265 82.5,-249 82.5,-249"/>
<polygon fill="black" stroke="black" points="146.5,-249 146.5,-265 146.5,-265 146.5,-249 146.5,-249"/>
</a>
</g>
</g>
<!-- c_rfqlineqty&#45;&gt;c_rfqline -->
<g id="edge1" class="edge">
<title>c_rfqlineqty:w&#45;&gt;c_rfqline:e</title>
<path fill="none" stroke="black" d="M255.6,-303.52C235.21,-320.96 257.64,-383 220.5,-383"/>
<polygon fill="black" stroke="black" points="261.89,-301.47 270.61,-302.42 265.7,-300.24 269.5,-299 269.5,-299 269.5,-299 265.7,-300.24 268.39,-295.58 261.89,-301.47 261.89,-301.47"/>
<ellipse fill="none" stroke="black" cx="258.85" cy="-302.46" rx="3.2" ry="3.2"/>
</g>
<!-- c_uom -->
<g id="node3" class="node">
<title>c_uom</title>
<g id="a_node3"><a xlink:href="../../tables/c_uom.html" xlink:title="c_uom" target="_top">
<polygon fill="#ffffff" stroke="transparent" points="43,-37 43,-227 184,-227 184,-37 43,-37"/>
<polygon fill="#f5f5f5" stroke="transparent" points="43.5,-205 43.5,-227 184.5,-227 184.5,-205 43.5,-205"/>
<polygon fill="none" stroke="black" points="43.5,-205 43.5,-227 184.5,-227 184.5,-205 43.5,-205"/>
<text text-anchor="start" x="48.5" y="-214.2" font-family="Helvetica,sans-Serif" font-weight="bold" font-size="11.00">c_uom</text>
<text text-anchor="start" x="149.5" y="-213.2" font-family="Helvetica,sans-Serif" font-size="11.00">[table]</text>
<polygon fill="none" stroke="black" points="43.5,-183 43.5,-205 184.5,-205 184.5,-183 43.5,-183"/>
<image xlink:href="../../images/primaryKeys.png" width="11px" height="12px" preserveAspectRatio="xMinYMin meet" x="48.5" y="-200"/>
<text text-anchor="start" x="63.5" y="-191.2" font-family="Helvetica,sans-Serif" font-size="11.00">c_uom_id</text>
<polygon fill="#ffffff" stroke="transparent" points="43.5,-161 43.5,-183 184.5,-183 184.5,-161 43.5,-161"/>
<polygon fill="none" stroke="black" points="43.5,-161 43.5,-183 184.5,-183 184.5,-161 43.5,-161"/>
<image xlink:href="../../images/foreignKeys.png" width="11px" height="12px" preserveAspectRatio="xMinYMin meet" x="48.5" y="-178"/>
<text text-anchor="start" x="63.5" y="-169.2" font-family="Helvetica,sans-Serif" font-size="11.00">ad_client_id</text>
<polygon fill="none" stroke="black" points="43.5,-139 43.5,-161 184.5,-161 184.5,-139 43.5,-139"/>
<image xlink:href="../../images/foreignKeys.png" width="11px" height="12px" preserveAspectRatio="xMinYMin meet" x="48.5" y="-156"/>
<text text-anchor="start" x="63.5" y="-147.2" font-family="Helvetica,sans-Serif" font-size="11.00">ad_org_id</text>
<polygon fill="#ffffff" stroke="transparent" points="43.5,-117 43.5,-139 184.5,-139 184.5,-117 43.5,-117"/>
<polygon fill="none" stroke="black" points="43.5,-117 43.5,-139 184.5,-139 184.5,-117 43.5,-117"/>
<text text-anchor="start" x="63.5" y="-125.2" font-family="Helvetica,sans-Serif" font-size="11.00">x12de355</text>
<polygon fill="#ffffff" stroke="transparent" points="43.5,-95 43.5,-117 184.5,-117 184.5,-95 43.5,-95"/>
<polygon fill="none" stroke="black" points="43.5,-95 43.5,-117 184.5,-117 184.5,-95 43.5,-95"/>
<text text-anchor="start" x="63.5" y="-103.2" font-family="Helvetica,sans-Serif" font-size="11.00">name</text>
<polygon fill="#ffffff" stroke="transparent" points="43.5,-73 43.5,-95 184.5,-95 184.5,-73 43.5,-73"/>
<polygon fill="none" stroke="black" points="43.5,-73 43.5,-95 184.5,-95 184.5,-73 43.5,-73"/>
<text text-anchor="start" x="63.5" y="-81.2" font-family="Helvetica,sans-Serif" font-size="11.00">c_uom_uu</text>
<polygon fill="none" stroke="black" points="43.5,-55 43.5,-73 184.5,-73 184.5,-55 43.5,-55"/>
<text text-anchor="start" x="46.5" y="-61.2" font-family="Helvetica,sans-Serif" font-size="11.00">...</text>
<polygon fill="#ffffff" stroke="transparent" points="43.5,-37 43.5,-55 184.5,-55 184.5,-37 43.5,-37"/>
<polygon fill="none" stroke="black" points="43.5,-37 43.5,-55 184.5,-55 184.5,-37 43.5,-37"/>
<polygon fill="#ffffff" stroke="transparent" points="44.5,-38 44.5,-54 81.5,-54 81.5,-38 44.5,-38"/>
<text text-anchor="start" x="46.5" y="-43.2" font-family="Helvetica,sans-Serif" font-size="11.00">&lt; 2</text>
<polygon fill="#ffffff" stroke="transparent" points="81.5,-38 81.5,-54 141.5,-54 141.5,-38 81.5,-38"/>
<text text-anchor="start" x="92" y="-43.2" font-family="Helvetica,sans-Serif" font-size="11.00">72 rows</text>
<polygon fill="#ffffff" stroke="transparent" points="141.5,-38 141.5,-54 183.5,-54 183.5,-38 141.5,-38"/>
<text text-anchor="start" x="159.5" y="-43.2" font-family="Helvetica,sans-Serif" font-size="11.00">55 &gt;</text>
<polygon fill="black" stroke="black" points="81.5,-38 81.5,-54 81.5,-54 81.5,-38 81.5,-38"/>
<polygon fill="black" stroke="black" points="141.5,-38 141.5,-54 141.5,-54 141.5,-38 141.5,-38"/>
</a>
</g>
</g>
<!-- c_rfqlineqty&#45;&gt;c_uom -->
<g id="edge2" class="edge">
<title>c_rfqlineqty:w&#45;&gt;c_uom:e</title>
<path fill="none" stroke="black" d="M255.17,-274.42C220.62,-260.42 232.45,-194 185.5,-194"/>
<polygon fill="black" stroke="black" points="261.63,-275.58 268.86,-280.54 265.56,-276.29 269.5,-277 269.5,-277 269.5,-277 265.56,-276.29 270.14,-273.46 261.63,-275.58 261.63,-275.58"/>
<ellipse fill="none" stroke="black" cx="258.48" cy="-275.02" rx="3.2" ry="3.2"/>
</g>
<!-- c_rfqresponselineqty -->
<g id="node4" class="node">
<title>c_rfqresponselineqty</title>
<g id="a_node4"><a xlink:href="../../tables/c_rfqresponselineqty.html" xlink:title="c_rfqresponselineqty" target="_top">
<polygon fill="#ffffff" stroke="transparent" points="552,-406 552,-552 751,-552 751,-406 552,-406"/>
<polygon fill="#f5f5f5" stroke="transparent" points="552.5,-530 552.5,-552 751.5,-552 751.5,-530 552.5,-530"/>
<polygon fill="none" stroke="black" points="552.5,-530 552.5,-552 751.5,-552 751.5,-530 552.5,-530"/>
<text text-anchor="start" x="557.5" y="-539.2" font-family="Helvetica,sans-Serif" font-weight="bold" font-size="11.00">c_rfqresponselineqty</text>
<text text-anchor="start" x="716.5" y="-538.2" font-family="Helvetica,sans-Serif" font-size="11.00">[table]</text>
<polygon fill="none" stroke="black" points="552.5,-508 552.5,-530 751.5,-530 751.5,-508 552.5,-508"/>
<image xlink:href="../../images/primaryKeys.png" width="11px" height="12px" preserveAspectRatio="xMinYMin meet" x="557.5" y="-525"/>
<text text-anchor="start" x="572.5" y="-516.2" font-family="Helvetica,sans-Serif" font-size="11.00">c_rfqresponselineqty_id</text>
<polygon fill="none" stroke="black" points="552.5,-486 552.5,-508 751.5,-508 751.5,-486 552.5,-486"/>
<image xlink:href="../../images/foreignKeys.png" width="11px" height="12px" preserveAspectRatio="xMinYMin meet" x="557.5" y="-503"/>
<text text-anchor="start" x="572.5" y="-494.2" font-family="Helvetica,sans-Serif" font-size="11.00">c_rfqresponseline_id</text>
<polygon fill="none" stroke="black" points="552.5,-464 552.5,-486 751.5,-486 751.5,-464 552.5,-464"/>
<image xlink:href="../../images/foreignKeys.png" width="11px" height="12px" preserveAspectRatio="xMinYMin meet" x="557.5" y="-481"/>
<text text-anchor="start" x="572.5" y="-472.2" font-family="Helvetica,sans-Serif" font-size="11.00">c_rfqlineqty_id</text>
<polygon fill="#ffffff" stroke="transparent" points="552.5,-442 552.5,-464 751.5,-464 751.5,-442 552.5,-442"/>
<polygon fill="none" stroke="black" points="552.5,-442 552.5,-464 751.5,-464 751.5,-442 552.5,-442"/>
<text text-anchor="start" x="572.5" y="-450.2" font-family="Helvetica,sans-Serif" font-size="11.00">c_rfqresponselineqty_uu</text>
<polygon fill="none" stroke="black" points="552.5,-424 552.5,-442 751.5,-442 751.5,-424 552.5,-424"/>
<text text-anchor="start" x="555.5" y="-430.2" font-family="Helvetica,sans-Serif" font-size="11.00">...</text>
<polygon fill="#ffffff" stroke="transparent" points="552.5,-406 552.5,-424 751.5,-424 751.5,-406 552.5,-406"/>
<polygon fill="none" stroke="black" points="552.5,-406 552.5,-424 751.5,-424 751.5,-406 552.5,-406"/>
<polygon fill="#ffffff" stroke="transparent" points="553.5,-407 553.5,-423 625.5,-423 625.5,-407 553.5,-407"/>
<text text-anchor="start" x="555.5" y="-412.2" font-family="Helvetica,sans-Serif" font-size="11.00">&lt; 2</text>
<polygon fill="#ffffff" stroke="transparent" points="625.5,-407 625.5,-423 688.5,-423 688.5,-407 625.5,-407"/>
<text text-anchor="start" x="653.5" y="-412.2" font-family="Helvetica,sans-Serif" font-size="11.00"> &#160;</text>
<polygon fill="#ffffff" stroke="transparent" points="688.5,-407 688.5,-423 750.5,-423 750.5,-407 688.5,-407"/>
<text text-anchor="start" x="741.5" y="-412.2" font-family="Helvetica,sans-Serif" font-size="11.00"> &#160;</text>
<polygon fill="black" stroke="black" points="625.5,-407 625.5,-423 625.5,-423 625.5,-407 625.5,-407"/>
<polygon fill="black" stroke="black" points="688.5,-407 688.5,-423 688.5,-423 688.5,-407 688.5,-407"/>
</a>
</g>
</g>
<!-- c_rfqresponselineqty&#45;&gt;c_rfqlineqty -->
<g id="edge3" class="edge">
<title>c_rfqresponselineqty:w&#45;&gt;c_rfqlineqty:e</title>
<path fill="none" stroke="black" d="M536.99,-475C525.68,-475 518.49,-475 502.5,-475"/>
<polygon fill="black" stroke="black" points="543.5,-475 551.5,-478.6 547.5,-475 551.5,-475 551.5,-475 551.5,-475 547.5,-475 551.5,-471.4 543.5,-475 543.5,-475"/>
<ellipse fill="none" stroke="black" cx="540.3" cy="-475" rx="3.2" ry="3.2"/>
</g>
</g>
</svg>
