<?xml version="1.0" encoding="UTF-8" standalone="no"?>
<!DOCTYPE svg PUBLIC "-//W3C//DTD SVG 1.1//EN"
 "http://www.w3.org/Graphics/SVG/1.1/DTD/svg11.dtd">
<!-- Generated by graphviz version 2.43.0 (0)
 -->
<!-- Title: oneDegreeRelationshipsDiagram Pages: 1 -->
<svg width="322pt" height="713pt"
 viewBox="0.00 0.00 322.00 713.00" xmlns="http://www.w3.org/2000/svg" xmlns:xlink="http://www.w3.org/1999/xlink">
<g id="graph0" class="graph" transform="scale(1 1) rotate(0) translate(4 709)">
<title>oneDegreeRelationshipsDiagram</title>
<polygon fill="#ffffff" stroke="transparent" points="-4,4 -4,-709 318,-709 318,4 -4,4"/>
<text text-anchor="middle" x="71.5" y="-7.2" font-family="Helvetica,sans-Serif" font-size="11.00">Generated by SchemaSpy</text>
<!-- c_rfqresponse_v -->
<g id="node1" class="node">
<title>c_rfqresponse_v</title>
<g id="a_node1"><a xlink:href="../../tables/c_rfqresponse_v.html" xlink:title="c_rfqresponse_v" target="_top">
<polygon fill="#ffffff" stroke="transparent" points="8,-37 8,-701 306,-701 306,-37 8,-37"/>
<polygon fill="#f5f5f5" stroke="transparent" points="10,-677 10,-699 304,-699 304,-677 10,-677"/>
<polygon fill="none" stroke="black" points="10,-677 10,-699 304,-699 304,-677 10,-677"/>
<text text-anchor="start" x="15" y="-686.2" font-family="Helvetica,sans-Serif" font-weight="bold" font-size="11.00">c_rfqresponse_v</text>
<text text-anchor="start" x="271" y="-685.2" font-family="Helvetica,sans-Serif" font-size="11.00">[view]</text>
<polygon fill="none" stroke="black" points="10,-655 10,-677 195,-677 195,-655 10,-655"/>
<text text-anchor="start" x="30" y="-663.2" font-family="Helvetica,sans-Serif" font-size="11.00">c_rfqresponse_id</text>
<polygon fill="none" stroke="black" points="195,-655 195,-677 304,-677 304,-655 195,-655"/>
<text text-anchor="start" x="198" y="-663.2" font-family="Helvetica,sans-Serif" font-size="11.00">numeric[10]</text>
<polygon fill="none" stroke="black" points="10,-633 10,-655 195,-655 195,-633 10,-633"/>
<text text-anchor="start" x="30" y="-641.2" font-family="Helvetica,sans-Serif" font-size="11.00">c_rfq_id</text>
<polygon fill="none" stroke="black" points="195,-633 195,-655 304,-655 304,-633 195,-633"/>
<text text-anchor="start" x="198" y="-641.2" font-family="Helvetica,sans-Serif" font-size="11.00">numeric[10]</text>
<polygon fill="none" stroke="black" points="10,-611 10,-633 195,-633 195,-611 10,-611"/>
<text text-anchor="start" x="30" y="-619.2" font-family="Helvetica,sans-Serif" font-size="11.00">ad_client_id</text>
<polygon fill="none" stroke="black" points="195,-611 195,-633 304,-633 304,-611 195,-611"/>
<text text-anchor="start" x="198" y="-619.2" font-family="Helvetica,sans-Serif" font-size="11.00">numeric[10]</text>
<polygon fill="none" stroke="black" points="10,-589 10,-611 195,-611 195,-589 10,-589"/>
<text text-anchor="start" x="30" y="-597.2" font-family="Helvetica,sans-Serif" font-size="11.00">ad_org_id</text>
<polygon fill="none" stroke="black" points="195,-589 195,-611 304,-611 304,-589 195,-589"/>
<text text-anchor="start" x="198" y="-597.2" font-family="Helvetica,sans-Serif" font-size="11.00">numeric[10]</text>
<polygon fill="none" stroke="black" points="10,-567 10,-589 195,-589 195,-567 10,-567"/>
<text text-anchor="start" x="30" y="-575.2" font-family="Helvetica,sans-Serif" font-size="11.00">isactive</text>
<polygon fill="none" stroke="black" points="195,-567 195,-589 304,-589 304,-567 195,-567"/>
<text text-anchor="start" x="198" y="-575.2" font-family="Helvetica,sans-Serif" font-size="11.00">bpchar[1]</text>
<polygon fill="none" stroke="black" points="10,-545 10,-567 195,-567 195,-545 10,-545"/>
<text text-anchor="start" x="30" y="-553.2" font-family="Helvetica,sans-Serif" font-size="11.00">created</text>
<polygon fill="none" stroke="black" points="195,-545 195,-567 304,-567 304,-545 195,-545"/>
<text text-anchor="start" x="198" y="-553.2" font-family="Helvetica,sans-Serif" font-size="11.00">timestamp[29,6]</text>
<polygon fill="none" stroke="black" points="10,-523 10,-545 195,-545 195,-523 10,-523"/>
<text text-anchor="start" x="30" y="-531.2" font-family="Helvetica,sans-Serif" font-size="11.00">createdby</text>
<polygon fill="none" stroke="black" points="195,-523 195,-545 304,-545 304,-523 195,-523"/>
<text text-anchor="start" x="198" y="-531.2" font-family="Helvetica,sans-Serif" font-size="11.00">numeric[10]</text>
<polygon fill="none" stroke="black" points="10,-501 10,-523 195,-523 195,-501 10,-501"/>
<text text-anchor="start" x="30" y="-509.2" font-family="Helvetica,sans-Serif" font-size="11.00">updated</text>
<polygon fill="none" stroke="black" points="195,-501 195,-523 304,-523 304,-501 195,-501"/>
<text text-anchor="start" x="198" y="-509.2" font-family="Helvetica,sans-Serif" font-size="11.00">timestamp[29,6]</text>
<polygon fill="none" stroke="black" points="10,-479 10,-501 195,-501 195,-479 10,-479"/>
<text text-anchor="start" x="30" y="-487.2" font-family="Helvetica,sans-Serif" font-size="11.00">updatedby</text>
<polygon fill="none" stroke="black" points="195,-479 195,-501 304,-501 304,-479 195,-479"/>
<text text-anchor="start" x="198" y="-487.2" font-family="Helvetica,sans-Serif" font-size="11.00">numeric[10]</text>
<polygon fill="none" stroke="black" points="10,-457 10,-479 195,-479 195,-457 10,-457"/>
<text text-anchor="start" x="30" y="-465.2" font-family="Helvetica,sans-Serif" font-size="11.00">ad_language</text>
<polygon fill="none" stroke="black" points="195,-457 195,-479 304,-479 304,-457 195,-457"/>
<text text-anchor="start" x="198" y="-465.2" font-family="Helvetica,sans-Serif" font-size="11.00">varchar[2147483647]</text>
<polygon fill="none" stroke="black" points="10,-435 10,-457 195,-457 195,-435 10,-435"/>
<text text-anchor="start" x="30" y="-443.2" font-family="Helvetica,sans-Serif" font-size="11.00">org_location_id</text>
<polygon fill="none" stroke="black" points="195,-435 195,-457 304,-457 304,-435 195,-435"/>
<text text-anchor="start" x="198" y="-443.2" font-family="Helvetica,sans-Serif" font-size="11.00">numeric[10]</text>
<polygon fill="none" stroke="black" points="10,-413 10,-435 195,-435 195,-413 10,-413"/>
<text text-anchor="start" x="30" y="-421.2" font-family="Helvetica,sans-Serif" font-size="11.00">taxid</text>
<polygon fill="none" stroke="black" points="195,-413 195,-435 304,-435 304,-413 195,-413"/>
<text text-anchor="start" x="198" y="-421.2" font-family="Helvetica,sans-Serif" font-size="11.00">varchar[20]</text>
<polygon fill="none" stroke="black" points="10,-391 10,-413 195,-413 195,-391 10,-391"/>
<text text-anchor="start" x="30" y="-399.2" font-family="Helvetica,sans-Serif" font-size="11.00">name</text>
<polygon fill="none" stroke="black" points="195,-391 195,-413 304,-413 304,-391 195,-391"/>
<text text-anchor="start" x="198" y="-399.2" font-family="Helvetica,sans-Serif" font-size="11.00">varchar[60]</text>
<polygon fill="none" stroke="black" points="10,-369 10,-391 195,-391 195,-369 10,-369"/>
<text text-anchor="start" x="30" y="-377.2" font-family="Helvetica,sans-Serif" font-size="11.00">description</text>
<polygon fill="none" stroke="black" points="195,-369 195,-391 304,-391 304,-369 195,-369"/>
<text text-anchor="start" x="198" y="-377.2" font-family="Helvetica,sans-Serif" font-size="11.00">varchar[255]</text>
<polygon fill="none" stroke="black" points="10,-347 10,-369 195,-369 195,-347 10,-347"/>
<text text-anchor="start" x="30" y="-355.2" font-family="Helvetica,sans-Serif" font-size="11.00">help</text>
<polygon fill="none" stroke="black" points="195,-347 195,-369 304,-369 304,-347 195,-347"/>
<text text-anchor="start" x="198" y="-355.2" font-family="Helvetica,sans-Serif" font-size="11.00">varchar[2000]</text>
<polygon fill="none" stroke="black" points="10,-325 10,-347 195,-347 195,-325 10,-325"/>
<text text-anchor="start" x="30" y="-333.2" font-family="Helvetica,sans-Serif" font-size="11.00">c_currency_id</text>
<polygon fill="none" stroke="black" points="195,-325 195,-347 304,-347 304,-325 195,-325"/>
<text text-anchor="start" x="198" y="-333.2" font-family="Helvetica,sans-Serif" font-size="11.00">numeric[10]</text>
<polygon fill="none" stroke="black" points="10,-303 10,-325 195,-325 195,-303 10,-303"/>
<text text-anchor="start" x="30" y="-311.2" font-family="Helvetica,sans-Serif" font-size="11.00">iso_code</text>
<polygon fill="none" stroke="black" points="195,-303 195,-325 304,-325 304,-303 195,-303"/>
<text text-anchor="start" x="198" y="-311.2" font-family="Helvetica,sans-Serif" font-size="11.00">bpchar[3]</text>
<polygon fill="none" stroke="black" points="10,-281 10,-303 195,-303 195,-281 10,-281"/>
<text text-anchor="start" x="30" y="-289.2" font-family="Helvetica,sans-Serif" font-size="11.00">dateresponse</text>
<polygon fill="none" stroke="black" points="195,-281 195,-303 304,-303 304,-281 195,-281"/>
<text text-anchor="start" x="198" y="-289.2" font-family="Helvetica,sans-Serif" font-size="11.00">timestamp[29,6]</text>
<polygon fill="none" stroke="black" points="10,-259 10,-281 195,-281 195,-259 10,-259"/>
<text text-anchor="start" x="30" y="-267.2" font-family="Helvetica,sans-Serif" font-size="11.00">dateworkstart</text>
<polygon fill="none" stroke="black" points="195,-259 195,-281 304,-281 304,-259 195,-259"/>
<text text-anchor="start" x="198" y="-267.2" font-family="Helvetica,sans-Serif" font-size="11.00">timestamp[29,6]</text>
<polygon fill="none" stroke="black" points="10,-237 10,-259 195,-259 195,-237 10,-237"/>
<text text-anchor="start" x="30" y="-245.2" font-family="Helvetica,sans-Serif" font-size="11.00">deliverydays</text>
<polygon fill="none" stroke="black" points="195,-237 195,-259 304,-259 304,-237 195,-237"/>
<text text-anchor="start" x="198" y="-245.2" font-family="Helvetica,sans-Serif" font-size="11.00">numeric[10]</text>
<polygon fill="none" stroke="black" points="10,-215 10,-237 195,-237 195,-215 10,-215"/>
<text text-anchor="start" x="30" y="-223.2" font-family="Helvetica,sans-Serif" font-size="11.00">c_bpartner_id</text>
<polygon fill="none" stroke="black" points="195,-215 195,-237 304,-237 304,-215 195,-215"/>
<text text-anchor="start" x="198" y="-223.2" font-family="Helvetica,sans-Serif" font-size="11.00">numeric[10]</text>
<polygon fill="none" stroke="black" points="10,-193 10,-215 195,-215 195,-193 10,-193"/>
<text text-anchor="start" x="30" y="-201.2" font-family="Helvetica,sans-Serif" font-size="11.00">bpname</text>
<polygon fill="none" stroke="black" points="195,-193 195,-215 304,-215 304,-193 195,-193"/>
<text text-anchor="start" x="198" y="-201.2" font-family="Helvetica,sans-Serif" font-size="11.00">varchar[120]</text>
<polygon fill="none" stroke="black" points="10,-171 10,-193 195,-193 195,-171 10,-171"/>
<text text-anchor="start" x="30" y="-179.2" font-family="Helvetica,sans-Serif" font-size="11.00">bpname2</text>
<polygon fill="none" stroke="black" points="195,-171 195,-193 304,-193 304,-171 195,-171"/>
<text text-anchor="start" x="198" y="-179.2" font-family="Helvetica,sans-Serif" font-size="11.00">varchar[60]</text>
<polygon fill="none" stroke="black" points="10,-149 10,-171 195,-171 195,-149 10,-149"/>
<text text-anchor="start" x="30" y="-157.2" font-family="Helvetica,sans-Serif" font-size="11.00">c_bpartner_location_id</text>
<polygon fill="none" stroke="black" points="195,-149 195,-171 304,-171 304,-149 195,-149"/>
<text text-anchor="start" x="198" y="-157.2" font-family="Helvetica,sans-Serif" font-size="11.00">numeric[10]</text>
<polygon fill="none" stroke="black" points="10,-127 10,-149 195,-149 195,-127 10,-127"/>
<text text-anchor="start" x="30" y="-135.2" font-family="Helvetica,sans-Serif" font-size="11.00">c_location_id</text>
<polygon fill="none" stroke="black" points="195,-127 195,-149 304,-149 304,-127 195,-127"/>
<text text-anchor="start" x="198" y="-135.2" font-family="Helvetica,sans-Serif" font-size="11.00">numeric[10]</text>
<polygon fill="none" stroke="black" points="10,-105 10,-127 195,-127 195,-105 10,-105"/>
<text text-anchor="start" x="30" y="-113.2" font-family="Helvetica,sans-Serif" font-size="11.00">ad_user_id</text>
<polygon fill="none" stroke="black" points="195,-105 195,-127 304,-127 304,-105 195,-105"/>
<text text-anchor="start" x="198" y="-113.2" font-family="Helvetica,sans-Serif" font-size="11.00">numeric[10]</text>
<polygon fill="none" stroke="black" points="10,-83 10,-105 195,-105 195,-83 10,-83"/>
<text text-anchor="start" x="30" y="-91.2" font-family="Helvetica,sans-Serif" font-size="11.00">title</text>
<polygon fill="none" stroke="black" points="195,-83 195,-105 304,-105 304,-83 195,-83"/>
<text text-anchor="start" x="198" y="-91.2" font-family="Helvetica,sans-Serif" font-size="11.00">varchar[40]</text>
<polygon fill="none" stroke="black" points="10,-61 10,-83 195,-83 195,-61 10,-61"/>
<text text-anchor="start" x="30" y="-69.2" font-family="Helvetica,sans-Serif" font-size="11.00">phone</text>
<polygon fill="none" stroke="black" points="195,-61 195,-83 304,-83 304,-61 195,-61"/>
<text text-anchor="start" x="198" y="-69.2" font-family="Helvetica,sans-Serif" font-size="11.00">varchar[40]</text>
<polygon fill="none" stroke="black" points="10,-39 10,-61 195,-61 195,-39 10,-39"/>
<text text-anchor="start" x="30" y="-47.2" font-family="Helvetica,sans-Serif" font-size="11.00">contactname</text>
<polygon fill="none" stroke="black" points="195,-39 195,-61 304,-61 304,-39 195,-39"/>
<text text-anchor="start" x="198" y="-47.2" font-family="Helvetica,sans-Serif" font-size="11.00">text[2147483647]</text>
<polygon fill="none" stroke="black" stroke-width="2" points="9,-38 9,-700 305,-700 305,-38 9,-38"/>
</a>
</g>
</g>
</g>
</svg>
