<?xml version="1.0" encoding="UTF-8" standalone="no"?>
<!DOCTYPE svg PUBLIC "-//W3C//DTD SVG 1.1//EN"
 "http://www.w3.org/Graphics/SVG/1.1/DTD/svg11.dtd">
<!-- Generated by graphviz version 2.43.0 (0)
 -->
<!-- Title: oneDegreeRelationshipsDiagram Pages: 1 -->
<svg width="303pt" height="713pt"
 viewBox="0.00 0.00 303.00 713.00" xmlns="http://www.w3.org/2000/svg" xmlns:xlink="http://www.w3.org/1999/xlink">
<g id="graph0" class="graph" transform="scale(1 1) rotate(0) translate(4 709)">
<title>oneDegreeRelationshipsDiagram</title>
<polygon fill="#ffffff" stroke="transparent" points="-4,4 -4,-709 299,-709 299,4 -4,4"/>
<text text-anchor="middle" x="71.5" y="-7.2" font-family="Helvetica,sans-Serif" font-size="11.00">Generated by SchemaSpy</text>
<!-- c_rfqresponse_vt -->
<g id="node1" class="node">
<title>c_rfqresponse_vt</title>
<g id="a_node1"><a xlink:href="../../tables/c_rfqresponse_vt.html" xlink:title="c_rfqresponse_vt" target="_top">
<polygon fill="#ffffff" stroke="transparent" points="8,-37 8,-701 287,-701 287,-37 8,-37"/>
<polygon fill="#f5f5f5" stroke="transparent" points="10.5,-677 10.5,-699 285.5,-699 285.5,-677 10.5,-677"/>
<polygon fill="none" stroke="black" points="10.5,-677 10.5,-699 285.5,-699 285.5,-677 10.5,-677"/>
<text text-anchor="start" x="15.5" y="-686.2" font-family="Helvetica,sans-Serif" font-weight="bold" font-size="11.00">c_rfqresponse_vt</text>
<text text-anchor="start" x="252.5" y="-685.2" font-family="Helvetica,sans-Serif" font-size="11.00">[view]</text>
<polygon fill="none" stroke="black" points="10.5,-655 10.5,-677 195.5,-677 195.5,-655 10.5,-655"/>
<text text-anchor="start" x="30.5" y="-663.2" font-family="Helvetica,sans-Serif" font-size="11.00">c_rfqresponse_id</text>
<polygon fill="none" stroke="black" points="195.5,-655 195.5,-677 285.5,-677 285.5,-655 195.5,-655"/>
<text text-anchor="start" x="198.5" y="-663.2" font-family="Helvetica,sans-Serif" font-size="11.00">numeric[10]</text>
<polygon fill="none" stroke="black" points="10.5,-633 10.5,-655 195.5,-655 195.5,-633 10.5,-633"/>
<text text-anchor="start" x="30.5" y="-641.2" font-family="Helvetica,sans-Serif" font-size="11.00">c_rfq_id</text>
<polygon fill="none" stroke="black" points="195.5,-633 195.5,-655 285.5,-655 285.5,-633 195.5,-633"/>
<text text-anchor="start" x="198.5" y="-641.2" font-family="Helvetica,sans-Serif" font-size="11.00">numeric[10]</text>
<polygon fill="none" stroke="black" points="10.5,-611 10.5,-633 195.5,-633 195.5,-611 10.5,-611"/>
<text text-anchor="start" x="30.5" y="-619.2" font-family="Helvetica,sans-Serif" font-size="11.00">ad_client_id</text>
<polygon fill="none" stroke="black" points="195.5,-611 195.5,-633 285.5,-633 285.5,-611 195.5,-611"/>
<text text-anchor="start" x="198.5" y="-619.2" font-family="Helvetica,sans-Serif" font-size="11.00">numeric[10]</text>
<polygon fill="none" stroke="black" points="10.5,-589 10.5,-611 195.5,-611 195.5,-589 10.5,-589"/>
<text text-anchor="start" x="30.5" y="-597.2" font-family="Helvetica,sans-Serif" font-size="11.00">ad_org_id</text>
<polygon fill="none" stroke="black" points="195.5,-589 195.5,-611 285.5,-611 285.5,-589 195.5,-589"/>
<text text-anchor="start" x="198.5" y="-597.2" font-family="Helvetica,sans-Serif" font-size="11.00">numeric[10]</text>
<polygon fill="none" stroke="black" points="10.5,-567 10.5,-589 195.5,-589 195.5,-567 10.5,-567"/>
<text text-anchor="start" x="30.5" y="-575.2" font-family="Helvetica,sans-Serif" font-size="11.00">isactive</text>
<polygon fill="none" stroke="black" points="195.5,-567 195.5,-589 285.5,-589 285.5,-567 195.5,-567"/>
<text text-anchor="start" x="198.5" y="-575.2" font-family="Helvetica,sans-Serif" font-size="11.00">bpchar[1]</text>
<polygon fill="none" stroke="black" points="10.5,-545 10.5,-567 195.5,-567 195.5,-545 10.5,-545"/>
<text text-anchor="start" x="30.5" y="-553.2" font-family="Helvetica,sans-Serif" font-size="11.00">created</text>
<polygon fill="none" stroke="black" points="195.5,-545 195.5,-567 285.5,-567 285.5,-545 195.5,-545"/>
<text text-anchor="start" x="198.5" y="-553.2" font-family="Helvetica,sans-Serif" font-size="11.00">timestamp[29,6]</text>
<polygon fill="none" stroke="black" points="10.5,-523 10.5,-545 195.5,-545 195.5,-523 10.5,-523"/>
<text text-anchor="start" x="30.5" y="-531.2" font-family="Helvetica,sans-Serif" font-size="11.00">createdby</text>
<polygon fill="none" stroke="black" points="195.5,-523 195.5,-545 285.5,-545 285.5,-523 195.5,-523"/>
<text text-anchor="start" x="198.5" y="-531.2" font-family="Helvetica,sans-Serif" font-size="11.00">numeric[10]</text>
<polygon fill="none" stroke="black" points="10.5,-501 10.5,-523 195.5,-523 195.5,-501 10.5,-501"/>
<text text-anchor="start" x="30.5" y="-509.2" font-family="Helvetica,sans-Serif" font-size="11.00">updated</text>
<polygon fill="none" stroke="black" points="195.5,-501 195.5,-523 285.5,-523 285.5,-501 195.5,-501"/>
<text text-anchor="start" x="198.5" y="-509.2" font-family="Helvetica,sans-Serif" font-size="11.00">timestamp[29,6]</text>
<polygon fill="none" stroke="black" points="10.5,-479 10.5,-501 195.5,-501 195.5,-479 10.5,-479"/>
<text text-anchor="start" x="30.5" y="-487.2" font-family="Helvetica,sans-Serif" font-size="11.00">updatedby</text>
<polygon fill="none" stroke="black" points="195.5,-479 195.5,-501 285.5,-501 285.5,-479 195.5,-479"/>
<text text-anchor="start" x="198.5" y="-487.2" font-family="Helvetica,sans-Serif" font-size="11.00">numeric[10]</text>
<polygon fill="none" stroke="black" points="10.5,-457 10.5,-479 195.5,-479 195.5,-457 10.5,-457"/>
<text text-anchor="start" x="30.5" y="-465.2" font-family="Helvetica,sans-Serif" font-size="11.00">ad_language</text>
<polygon fill="none" stroke="black" points="195.5,-457 195.5,-479 285.5,-479 285.5,-457 195.5,-457"/>
<text text-anchor="start" x="198.5" y="-465.2" font-family="Helvetica,sans-Serif" font-size="11.00">varchar[6]</text>
<polygon fill="none" stroke="black" points="10.5,-435 10.5,-457 195.5,-457 195.5,-435 10.5,-435"/>
<text text-anchor="start" x="30.5" y="-443.2" font-family="Helvetica,sans-Serif" font-size="11.00">org_location_id</text>
<polygon fill="none" stroke="black" points="195.5,-435 195.5,-457 285.5,-457 285.5,-435 195.5,-435"/>
<text text-anchor="start" x="198.5" y="-443.2" font-family="Helvetica,sans-Serif" font-size="11.00">numeric[10]</text>
<polygon fill="none" stroke="black" points="10.5,-413 10.5,-435 195.5,-435 195.5,-413 10.5,-413"/>
<text text-anchor="start" x="30.5" y="-421.2" font-family="Helvetica,sans-Serif" font-size="11.00">taxid</text>
<polygon fill="none" stroke="black" points="195.5,-413 195.5,-435 285.5,-435 285.5,-413 195.5,-413"/>
<text text-anchor="start" x="198.5" y="-421.2" font-family="Helvetica,sans-Serif" font-size="11.00">varchar[20]</text>
<polygon fill="none" stroke="black" points="10.5,-391 10.5,-413 195.5,-413 195.5,-391 10.5,-391"/>
<text text-anchor="start" x="30.5" y="-399.2" font-family="Helvetica,sans-Serif" font-size="11.00">name</text>
<polygon fill="none" stroke="black" points="195.5,-391 195.5,-413 285.5,-413 285.5,-391 195.5,-391"/>
<text text-anchor="start" x="198.5" y="-399.2" font-family="Helvetica,sans-Serif" font-size="11.00">varchar[60]</text>
<polygon fill="none" stroke="black" points="10.5,-369 10.5,-391 195.5,-391 195.5,-369 10.5,-369"/>
<text text-anchor="start" x="30.5" y="-377.2" font-family="Helvetica,sans-Serif" font-size="11.00">description</text>
<polygon fill="none" stroke="black" points="195.5,-369 195.5,-391 285.5,-391 285.5,-369 195.5,-369"/>
<text text-anchor="start" x="198.5" y="-377.2" font-family="Helvetica,sans-Serif" font-size="11.00">varchar[255]</text>
<polygon fill="none" stroke="black" points="10.5,-347 10.5,-369 195.5,-369 195.5,-347 10.5,-347"/>
<text text-anchor="start" x="30.5" y="-355.2" font-family="Helvetica,sans-Serif" font-size="11.00">help</text>
<polygon fill="none" stroke="black" points="195.5,-347 195.5,-369 285.5,-369 285.5,-347 195.5,-347"/>
<text text-anchor="start" x="198.5" y="-355.2" font-family="Helvetica,sans-Serif" font-size="11.00">varchar[2000]</text>
<polygon fill="none" stroke="black" points="10.5,-325 10.5,-347 195.5,-347 195.5,-325 10.5,-325"/>
<text text-anchor="start" x="30.5" y="-333.2" font-family="Helvetica,sans-Serif" font-size="11.00">c_currency_id</text>
<polygon fill="none" stroke="black" points="195.5,-325 195.5,-347 285.5,-347 285.5,-325 195.5,-325"/>
<text text-anchor="start" x="198.5" y="-333.2" font-family="Helvetica,sans-Serif" font-size="11.00">numeric[10]</text>
<polygon fill="none" stroke="black" points="10.5,-303 10.5,-325 195.5,-325 195.5,-303 10.5,-303"/>
<text text-anchor="start" x="30.5" y="-311.2" font-family="Helvetica,sans-Serif" font-size="11.00">iso_code</text>
<polygon fill="none" stroke="black" points="195.5,-303 195.5,-325 285.5,-325 285.5,-303 195.5,-303"/>
<text text-anchor="start" x="198.5" y="-311.2" font-family="Helvetica,sans-Serif" font-size="11.00">bpchar[3]</text>
<polygon fill="none" stroke="black" points="10.5,-281 10.5,-303 195.5,-303 195.5,-281 10.5,-281"/>
<text text-anchor="start" x="30.5" y="-289.2" font-family="Helvetica,sans-Serif" font-size="11.00">dateresponse</text>
<polygon fill="none" stroke="black" points="195.5,-281 195.5,-303 285.5,-303 285.5,-281 195.5,-281"/>
<text text-anchor="start" x="198.5" y="-289.2" font-family="Helvetica,sans-Serif" font-size="11.00">timestamp[29,6]</text>
<polygon fill="none" stroke="black" points="10.5,-259 10.5,-281 195.5,-281 195.5,-259 10.5,-259"/>
<text text-anchor="start" x="30.5" y="-267.2" font-family="Helvetica,sans-Serif" font-size="11.00">dateworkstart</text>
<polygon fill="none" stroke="black" points="195.5,-259 195.5,-281 285.5,-281 285.5,-259 195.5,-259"/>
<text text-anchor="start" x="198.5" y="-267.2" font-family="Helvetica,sans-Serif" font-size="11.00">timestamp[29,6]</text>
<polygon fill="none" stroke="black" points="10.5,-237 10.5,-259 195.5,-259 195.5,-237 10.5,-237"/>
<text text-anchor="start" x="30.5" y="-245.2" font-family="Helvetica,sans-Serif" font-size="11.00">deliverydays</text>
<polygon fill="none" stroke="black" points="195.5,-237 195.5,-259 285.5,-259 285.5,-237 195.5,-237"/>
<text text-anchor="start" x="198.5" y="-245.2" font-family="Helvetica,sans-Serif" font-size="11.00">numeric[10]</text>
<polygon fill="none" stroke="black" points="10.5,-215 10.5,-237 195.5,-237 195.5,-215 10.5,-215"/>
<text text-anchor="start" x="30.5" y="-223.2" font-family="Helvetica,sans-Serif" font-size="11.00">c_bpartner_id</text>
<polygon fill="none" stroke="black" points="195.5,-215 195.5,-237 285.5,-237 285.5,-215 195.5,-215"/>
<text text-anchor="start" x="198.5" y="-223.2" font-family="Helvetica,sans-Serif" font-size="11.00">numeric[10]</text>
<polygon fill="none" stroke="black" points="10.5,-193 10.5,-215 195.5,-215 195.5,-193 10.5,-193"/>
<text text-anchor="start" x="30.5" y="-201.2" font-family="Helvetica,sans-Serif" font-size="11.00">bpname</text>
<polygon fill="none" stroke="black" points="195.5,-193 195.5,-215 285.5,-215 285.5,-193 195.5,-193"/>
<text text-anchor="start" x="198.5" y="-201.2" font-family="Helvetica,sans-Serif" font-size="11.00">varchar[120]</text>
<polygon fill="none" stroke="black" points="10.5,-171 10.5,-193 195.5,-193 195.5,-171 10.5,-171"/>
<text text-anchor="start" x="30.5" y="-179.2" font-family="Helvetica,sans-Serif" font-size="11.00">bpname2</text>
<polygon fill="none" stroke="black" points="195.5,-171 195.5,-193 285.5,-193 285.5,-171 195.5,-171"/>
<text text-anchor="start" x="198.5" y="-179.2" font-family="Helvetica,sans-Serif" font-size="11.00">varchar[60]</text>
<polygon fill="none" stroke="black" points="10.5,-149 10.5,-171 195.5,-171 195.5,-149 10.5,-149"/>
<text text-anchor="start" x="30.5" y="-157.2" font-family="Helvetica,sans-Serif" font-size="11.00">c_bpartner_location_id</text>
<polygon fill="none" stroke="black" points="195.5,-149 195.5,-171 285.5,-171 285.5,-149 195.5,-149"/>
<text text-anchor="start" x="198.5" y="-157.2" font-family="Helvetica,sans-Serif" font-size="11.00">numeric[10]</text>
<polygon fill="none" stroke="black" points="10.5,-127 10.5,-149 195.5,-149 195.5,-127 10.5,-127"/>
<text text-anchor="start" x="30.5" y="-135.2" font-family="Helvetica,sans-Serif" font-size="11.00">c_location_id</text>
<polygon fill="none" stroke="black" points="195.5,-127 195.5,-149 285.5,-149 285.5,-127 195.5,-127"/>
<text text-anchor="start" x="198.5" y="-135.2" font-family="Helvetica,sans-Serif" font-size="11.00">numeric[10]</text>
<polygon fill="none" stroke="black" points="10.5,-105 10.5,-127 195.5,-127 195.5,-105 10.5,-105"/>
<text text-anchor="start" x="30.5" y="-113.2" font-family="Helvetica,sans-Serif" font-size="11.00">ad_user_id</text>
<polygon fill="none" stroke="black" points="195.5,-105 195.5,-127 285.5,-127 285.5,-105 195.5,-105"/>
<text text-anchor="start" x="198.5" y="-113.2" font-family="Helvetica,sans-Serif" font-size="11.00">numeric[10]</text>
<polygon fill="none" stroke="black" points="10.5,-83 10.5,-105 195.5,-105 195.5,-83 10.5,-83"/>
<text text-anchor="start" x="30.5" y="-91.2" font-family="Helvetica,sans-Serif" font-size="11.00">title</text>
<polygon fill="none" stroke="black" points="195.5,-83 195.5,-105 285.5,-105 285.5,-83 195.5,-83"/>
<text text-anchor="start" x="198.5" y="-91.2" font-family="Helvetica,sans-Serif" font-size="11.00">varchar[40]</text>
<polygon fill="none" stroke="black" points="10.5,-61 10.5,-83 195.5,-83 195.5,-61 10.5,-61"/>
<text text-anchor="start" x="30.5" y="-69.2" font-family="Helvetica,sans-Serif" font-size="11.00">phone</text>
<polygon fill="none" stroke="black" points="195.5,-61 195.5,-83 285.5,-83 285.5,-61 195.5,-61"/>
<text text-anchor="start" x="198.5" y="-69.2" font-family="Helvetica,sans-Serif" font-size="11.00">varchar[40]</text>
<polygon fill="none" stroke="black" points="10.5,-39 10.5,-61 195.5,-61 195.5,-39 10.5,-39"/>
<text text-anchor="start" x="30.5" y="-47.2" font-family="Helvetica,sans-Serif" font-size="11.00">contactname</text>
<polygon fill="none" stroke="black" points="195.5,-39 195.5,-61 285.5,-61 285.5,-39 195.5,-39"/>
<text text-anchor="start" x="198.5" y="-47.2" font-family="Helvetica,sans-Serif" font-size="11.00">text[2147483647]</text>
<polygon fill="none" stroke="black" stroke-width="2" points="9,-38 9,-700 286,-700 286,-38 9,-38"/>
</a>
</g>
</g>
</g>
</svg>
