<?xml version="1.0" encoding="UTF-8" standalone="no"?>
<!DOCTYPE svg PUBLIC "-//W3C//DTD SVG 1.1//EN"
 "http://www.w3.org/Graphics/SVG/1.1/DTD/svg11.dtd">
<!-- Generated by graphviz version 2.43.0 (0)
 -->
<!-- Title: oneDegreeRelationshipsDiagram Pages: 1 -->
<svg width="495pt" height="362pt"
 viewBox="0.00 0.00 495.00 362.00" xmlns="http://www.w3.org/2000/svg" xmlns:xlink="http://www.w3.org/1999/xlink">
<g id="graph0" class="graph" transform="scale(1 1) rotate(0) translate(4 358)">
<title>oneDegreeRelationshipsDiagram</title>
<polygon fill="#ffffff" stroke="transparent" points="-4,4 -4,-358 491,-358 491,4 -4,4"/>
<text text-anchor="middle" x="71.5" y="-7.2" font-family="Helvetica,sans-Serif" font-size="11.00">Generated by SchemaSpy</text>
<!-- cm_accessstage -->
<g id="node1" class="node">
<title>cm_accessstage</title>
<g id="a_node1"><a xlink:href="../../tables/cm_accessstage.html" xlink:title="cm_accessstage" target="_top">
<polygon fill="#ffffff" stroke="transparent" points="227,-37 227,-301 479,-301 479,-37 227,-37"/>
<polygon fill="#f5f5f5" stroke="transparent" points="229,-277 229,-299 477,-299 477,-277 229,-277"/>
<polygon fill="none" stroke="black" points="229,-277 229,-299 477,-299 477,-277 229,-277"/>
<text text-anchor="start" x="234" y="-286.2" font-family="Helvetica,sans-Serif" font-weight="bold" font-size="11.00">cm_accessstage</text>
<text text-anchor="start" x="442" y="-285.2" font-family="Helvetica,sans-Serif" font-size="11.00">[table]</text>
<polygon fill="none" stroke="black" points="229,-255 229,-277 394,-277 394,-255 229,-255"/>
<image xlink:href="../../images/primaryKeys.png" width="11px" height="12px" preserveAspectRatio="xMinYMin meet" x="234" y="-272"/>
<text text-anchor="start" x="249" y="-263.2" font-family="Helvetica,sans-Serif" font-size="11.00">cm_accessprofile_id</text>
<polygon fill="none" stroke="black" points="394,-255 394,-277 477,-277 477,-255 394,-255"/>
<text text-anchor="start" x="397" y="-263.2" font-family="Helvetica,sans-Serif" font-size="11.00">numeric[10]</text>
<polygon fill="none" stroke="black" points="229,-233 229,-255 394,-255 394,-233 229,-233"/>
<image xlink:href="../../images/primaryKeys.png" width="11px" height="12px" preserveAspectRatio="xMinYMin meet" x="234" y="-250"/>
<text text-anchor="start" x="249" y="-241.2" font-family="Helvetica,sans-Serif" font-size="11.00">cm_cstage_id</text>
<polygon fill="none" stroke="black" points="394,-233 394,-255 477,-255 477,-233 394,-233"/>
<text text-anchor="start" x="397" y="-241.2" font-family="Helvetica,sans-Serif" font-size="11.00">numeric[10]</text>
<polygon fill="none" stroke="black" points="229,-211 229,-233 394,-233 394,-211 229,-211"/>
<text text-anchor="start" x="249" y="-219.2" font-family="Helvetica,sans-Serif" font-size="11.00">ad_client_id</text>
<polygon fill="none" stroke="black" points="394,-211 394,-233 477,-233 477,-211 394,-211"/>
<text text-anchor="start" x="397" y="-219.2" font-family="Helvetica,sans-Serif" font-size="11.00">numeric[10]</text>
<polygon fill="none" stroke="black" points="229,-189 229,-211 394,-211 394,-189 229,-189"/>
<text text-anchor="start" x="249" y="-197.2" font-family="Helvetica,sans-Serif" font-size="11.00">ad_org_id</text>
<polygon fill="none" stroke="black" points="394,-189 394,-211 477,-211 477,-189 394,-189"/>
<text text-anchor="start" x="397" y="-197.2" font-family="Helvetica,sans-Serif" font-size="11.00">numeric[10]</text>
<polygon fill="none" stroke="black" points="229,-167 229,-189 394,-189 394,-167 229,-167"/>
<text text-anchor="start" x="249" y="-175.2" font-family="Helvetica,sans-Serif" font-size="11.00">isactive</text>
<polygon fill="none" stroke="black" points="394,-167 394,-189 477,-189 477,-167 394,-167"/>
<text text-anchor="start" x="397" y="-175.2" font-family="Helvetica,sans-Serif" font-size="11.00">bpchar[1]</text>
<polygon fill="none" stroke="black" points="229,-145 229,-167 394,-167 394,-145 229,-145"/>
<text text-anchor="start" x="249" y="-153.2" font-family="Helvetica,sans-Serif" font-size="11.00">created</text>
<polygon fill="none" stroke="black" points="394,-145 394,-167 477,-167 477,-145 394,-145"/>
<text text-anchor="start" x="397" y="-153.2" font-family="Helvetica,sans-Serif" font-size="11.00">timestamp[29,6]</text>
<polygon fill="none" stroke="black" points="229,-123 229,-145 394,-145 394,-123 229,-123"/>
<text text-anchor="start" x="249" y="-131.2" font-family="Helvetica,sans-Serif" font-size="11.00">createdby</text>
<polygon fill="none" stroke="black" points="394,-123 394,-145 477,-145 477,-123 394,-123"/>
<text text-anchor="start" x="397" y="-131.2" font-family="Helvetica,sans-Serif" font-size="11.00">numeric[10]</text>
<polygon fill="none" stroke="black" points="229,-101 229,-123 394,-123 394,-101 229,-101"/>
<text text-anchor="start" x="249" y="-109.2" font-family="Helvetica,sans-Serif" font-size="11.00">updated</text>
<polygon fill="none" stroke="black" points="394,-101 394,-123 477,-123 477,-101 394,-101"/>
<text text-anchor="start" x="397" y="-109.2" font-family="Helvetica,sans-Serif" font-size="11.00">timestamp[29,6]</text>
<polygon fill="none" stroke="black" points="229,-79 229,-101 394,-101 394,-79 229,-79"/>
<text text-anchor="start" x="249" y="-87.2" font-family="Helvetica,sans-Serif" font-size="11.00">updatedby</text>
<polygon fill="none" stroke="black" points="394,-79 394,-101 477,-101 477,-79 394,-79"/>
<text text-anchor="start" x="397" y="-87.2" font-family="Helvetica,sans-Serif" font-size="11.00">numeric[10]</text>
<polygon fill="#ffffff" stroke="transparent" points="229,-57 229,-79 394,-79 394,-57 229,-57"/>
<polygon fill="none" stroke="black" points="229,-57 229,-79 394,-79 394,-57 229,-57"/>
<text text-anchor="start" x="249" y="-65.2" font-family="Helvetica,sans-Serif" font-size="11.00">cm_accessstage_uu</text>
<polygon fill="none" stroke="black" points="394,-57 394,-79 477,-79 477,-57 394,-57"/>
<text text-anchor="start" x="397" y="-65.2" font-family="Helvetica,sans-Serif" font-size="11.00">varchar[36]</text>
<polygon fill="#ffffff" stroke="transparent" points="229,-39 229,-57 477,-57 477,-39 229,-39"/>
<polygon fill="none" stroke="black" points="229,-39 229,-57 477,-57 477,-39 229,-39"/>
<polygon fill="#ffffff" stroke="transparent" points="230,-40 230,-56 315,-56 315,-40 230,-40"/>
<text text-anchor="start" x="232" y="-45.2" font-family="Helvetica,sans-Serif" font-size="11.00">&lt; 2</text>
<polygon fill="#ffffff" stroke="transparent" points="315,-40 315,-56 391,-56 391,-40 315,-40"/>
<text text-anchor="start" x="349.5" y="-45.2" font-family="Helvetica,sans-Serif" font-size="11.00"> &#160;</text>
<polygon fill="#ffffff" stroke="transparent" points="391,-40 391,-56 476,-56 476,-40 391,-40"/>
<text text-anchor="start" x="458" y="-45.2" font-family="Helvetica,sans-Serif" font-size="11.00">0 &gt;</text>
<polygon fill="black" stroke="black" points="315,-40 315,-56 315,-56 315,-40 315,-40"/>
<polygon fill="black" stroke="black" points="391,-40 391,-56 391,-56 391,-40 391,-40"/>
<polygon fill="none" stroke="black" stroke-width="2" points="228,-38 228,-300 478,-300 478,-38 228,-38"/>
</a>
</g>
</g>
<!-- cm_accessprofile -->
<g id="node2" class="node">
<title>cm_accessprofile</title>
<g id="a_node2"><a xlink:href="../../tables/cm_accessprofile.html" xlink:title="cm_accessprofile" target="_top">
<polygon fill="#ffffff" stroke="transparent" points="8,-248 8,-350 178,-350 178,-248 8,-248"/>
<polygon fill="#f5f5f5" stroke="transparent" points="8,-328 8,-350 178,-350 178,-328 8,-328"/>
<polygon fill="none" stroke="black" points="8,-328 8,-350 178,-350 178,-328 8,-328"/>
<text text-anchor="start" x="13" y="-337.2" font-family="Helvetica,sans-Serif" font-weight="bold" font-size="11.00">cm_accessprofile</text>
<text text-anchor="start" x="143" y="-336.2" font-family="Helvetica,sans-Serif" font-size="11.00">[table]</text>
<polygon fill="none" stroke="black" points="8,-306 8,-328 178,-328 178,-306 8,-306"/>
<image xlink:href="../../images/primaryKeys.png" width="11px" height="12px" preserveAspectRatio="xMinYMin meet" x="13" y="-323"/>
<text text-anchor="start" x="28" y="-314.2" font-family="Helvetica,sans-Serif" font-size="11.00">cm_accessprofile_id</text>
<polygon fill="#ffffff" stroke="transparent" points="8,-284 8,-306 178,-306 178,-284 8,-284"/>
<polygon fill="none" stroke="black" points="8,-284 8,-306 178,-306 178,-284 8,-284"/>
<text text-anchor="start" x="28" y="-292.2" font-family="Helvetica,sans-Serif" font-size="11.00">cm_accessprofile_uu</text>
<polygon fill="none" stroke="black" points="8,-266 8,-284 178,-284 178,-266 8,-266"/>
<text text-anchor="start" x="11" y="-272.2" font-family="Helvetica,sans-Serif" font-size="11.00">...</text>
<polygon fill="#ffffff" stroke="transparent" points="8,-248 8,-266 178,-266 178,-248 8,-248"/>
<polygon fill="none" stroke="black" points="8,-248 8,-266 178,-266 178,-248 8,-248"/>
<polygon fill="#ffffff" stroke="transparent" points="9,-249 9,-265 62,-265 62,-249 9,-249"/>
<text text-anchor="start" x="11" y="-254.2" font-family="Helvetica,sans-Serif" font-size="11.00"> &#160;</text>
<polygon fill="#ffffff" stroke="transparent" points="62,-249 62,-265 115,-265 115,-249 62,-249"/>
<text text-anchor="start" x="85" y="-254.2" font-family="Helvetica,sans-Serif" font-size="11.00"> &#160;</text>
<polygon fill="#ffffff" stroke="transparent" points="115,-249 115,-265 177,-265 177,-249 115,-249"/>
<text text-anchor="start" x="159" y="-254.2" font-family="Helvetica,sans-Serif" font-size="11.00">6 &gt;</text>
<polygon fill="black" stroke="black" points="62,-249 62,-265 62,-265 62,-249 62,-249"/>
<polygon fill="black" stroke="black" points="115,-249 115,-265 115,-265 115,-249 115,-249"/>
</a>
</g>
</g>
<!-- cm_accessstage&#45;&gt;cm_accessprofile -->
<g id="edge1" class="edge">
<title>cm_accessstage:w&#45;&gt;cm_accessprofile:e</title>
<path fill="none" stroke="black" d="M214.09,-271.08C200.26,-283.98 204.29,-317 179,-317"/>
<polygon fill="black" stroke="black" points="220.48,-268.74 229.23,-269.38 224.24,-267.37 228,-266 228,-266 228,-266 224.24,-267.37 226.77,-262.62 220.48,-268.74 220.48,-268.74"/>
<ellipse fill="none" stroke="black" cx="217.48" cy="-269.84" rx="3.2" ry="3.2"/>
</g>
<!-- cm_cstage -->
<g id="node3" class="node">
<title>cm_cstage</title>
<g id="a_node3"><a xlink:href="../../tables/cm_cstage.html" xlink:title="cm_cstage" target="_top">
<polygon fill="#ffffff" stroke="transparent" points="18,-59 18,-227 168,-227 168,-59 18,-59"/>
<polygon fill="#f5f5f5" stroke="transparent" points="18,-205 18,-227 168,-227 168,-205 18,-205"/>
<polygon fill="none" stroke="black" points="18,-205 18,-227 168,-227 168,-205 18,-205"/>
<text text-anchor="start" x="23" y="-214.2" font-family="Helvetica,sans-Serif" font-weight="bold" font-size="11.00">cm_cstage</text>
<text text-anchor="start" x="133" y="-213.2" font-family="Helvetica,sans-Serif" font-size="11.00">[table]</text>
<polygon fill="none" stroke="black" points="18,-183 18,-205 168,-205 168,-183 18,-183"/>
<image xlink:href="../../images/primaryKeys.png" width="11px" height="12px" preserveAspectRatio="xMinYMin meet" x="23" y="-200"/>
<text text-anchor="start" x="38" y="-191.2" font-family="Helvetica,sans-Serif" font-size="11.00">cm_cstage_id</text>
<polygon fill="none" stroke="black" points="18,-161 18,-183 168,-183 168,-161 18,-161"/>
<image xlink:href="../../images/foreignKeys.png" width="11px" height="12px" preserveAspectRatio="xMinYMin meet" x="23" y="-178"/>
<text text-anchor="start" x="38" y="-169.2" font-family="Helvetica,sans-Serif" font-size="11.00">cm_webproject_id</text>
<polygon fill="none" stroke="black" points="18,-139 18,-161 168,-161 168,-139 18,-139"/>
<image xlink:href="../../images/foreignKeys.png" width="11px" height="12px" preserveAspectRatio="xMinYMin meet" x="23" y="-156"/>
<text text-anchor="start" x="38" y="-147.2" font-family="Helvetica,sans-Serif" font-size="11.00">cm_template_id</text>
<polygon fill="none" stroke="black" points="18,-117 18,-139 168,-139 168,-117 18,-117"/>
<image xlink:href="../../images/foreignKeys.png" width="11px" height="12px" preserveAspectRatio="xMinYMin meet" x="23" y="-134"/>
<text text-anchor="start" x="38" y="-125.2" font-family="Helvetica,sans-Serif" font-size="11.00">cm_cstagelink_id</text>
<polygon fill="#ffffff" stroke="transparent" points="18,-95 18,-117 168,-117 168,-95 18,-95"/>
<polygon fill="none" stroke="black" points="18,-95 18,-117 168,-117 168,-95 18,-95"/>
<text text-anchor="start" x="38" y="-103.2" font-family="Helvetica,sans-Serif" font-size="11.00">cm_cstage_uu</text>
<polygon fill="none" stroke="black" points="18,-77 18,-95 168,-95 168,-77 18,-77"/>
<text text-anchor="start" x="21" y="-83.2" font-family="Helvetica,sans-Serif" font-size="11.00">...</text>
<polygon fill="#ffffff" stroke="transparent" points="18,-59 18,-77 168,-77 168,-59 18,-59"/>
<polygon fill="none" stroke="black" points="18,-59 18,-77 168,-77 168,-59 18,-59"/>
<polygon fill="#ffffff" stroke="transparent" points="19,-60 19,-76 72,-76 72,-60 19,-60"/>
<text text-anchor="start" x="21" y="-65.2" font-family="Helvetica,sans-Serif" font-size="11.00">&lt; 3</text>
<polygon fill="#ffffff" stroke="transparent" points="72,-60 72,-76 115,-76 115,-60 72,-60"/>
<text text-anchor="start" x="90" y="-65.2" font-family="Helvetica,sans-Serif" font-size="11.00"> &#160;</text>
<polygon fill="#ffffff" stroke="transparent" points="115,-60 115,-76 167,-76 167,-60 115,-60"/>
<text text-anchor="start" x="149" y="-65.2" font-family="Helvetica,sans-Serif" font-size="11.00">5 &gt;</text>
<polygon fill="black" stroke="black" points="72,-60 72,-76 72,-76 72,-60 72,-60"/>
<polygon fill="black" stroke="black" points="115,-60 115,-76 115,-76 115,-60 115,-60"/>
</a>
</g>
</g>
<!-- cm_accessstage&#45;&gt;cm_cstage -->
<g id="edge2" class="edge">
<title>cm_accessstage:w&#45;&gt;cm_cstage:e</title>
<path fill="none" stroke="black" d="M214,-240.24C195.66,-228.61 197.6,-194 169,-194"/>
<polygon fill="black" stroke="black" points="220.27,-241.93 227.07,-247.48 224.14,-242.96 228,-244 228,-244 228,-244 224.14,-242.96 228.93,-240.52 220.27,-241.93 220.27,-241.93"/>
<ellipse fill="none" stroke="black" cx="217.18" cy="-241.1" rx="3.2" ry="3.2"/>
</g>
</g>
</svg>
