<?xml version="1.0" encoding="UTF-8" standalone="no"?>
<!DOCTYPE svg PUBLIC "-//W3C//DTD SVG 1.1//EN"
 "http://www.w3.org/Graphics/SVG/1.1/DTD/svg11.dtd">
<!-- Generated by graphviz version 2.43.0 (0)
 -->
<!-- Title: oneDegreeRelationshipsDiagram Pages: 1 -->
<svg width="840pt" height="1462pt"
 viewBox="0.00 0.00 840.00 1462.00" xmlns="http://www.w3.org/2000/svg" xmlns:xlink="http://www.w3.org/1999/xlink">
<g id="graph0" class="graph" transform="scale(1 1) rotate(0) translate(4 1458)">
<title>oneDegreeRelationshipsDiagram</title>
<polygon fill="#ffffff" stroke="transparent" points="-4,4 -4,-1458 836,-1458 836,4 -4,4"/>
<text text-anchor="middle" x="71.5" y="-7.2" font-family="Helvetica,sans-Serif" font-size="11.00">Generated by SchemaSpy</text>
<!-- c_invoice -->
<g id="node1" class="node">
<title>c_invoice</title>
<g id="a_node1"><a xlink:href="../../tables/c_invoice.html" xlink:title="c_invoice" target="_top">
<polygon fill="#ffffff" stroke="transparent" points="512,-292 512,-1450 824,-1450 824,-292 512,-292"/>
<polygon fill="#f5f5f5" stroke="transparent" points="512,-1428 512,-1450 824,-1450 824,-1428 512,-1428"/>
<polygon fill="none" stroke="black" points="512,-1428 512,-1450 824,-1450 824,-1428 512,-1428"/>
<text text-anchor="start" x="517" y="-1437.2" font-family="Helvetica,sans-Serif" font-weight="bold" font-size="11.00">c_invoice</text>
<text text-anchor="start" x="789" y="-1436.2" font-family="Helvetica,sans-Serif" font-size="11.00">[table]</text>
<polygon fill="none" stroke="black" points="512,-1406 512,-1428 824,-1428 824,-1406 512,-1406"/>
<image xlink:href="../../images/primaryKeys.png" width="11px" height="12px" preserveAspectRatio="xMinYMin meet" x="517" y="-1423"/>
<text text-anchor="start" x="532" y="-1414.2" font-family="Helvetica,sans-Serif" font-size="11.00">c_invoice_id</text>
<polygon fill="#ffffff" stroke="transparent" points="512,-1384 512,-1406 824,-1406 824,-1384 512,-1384"/>
<polygon fill="none" stroke="black" points="512,-1384 512,-1406 824,-1406 824,-1384 512,-1384"/>
<text text-anchor="start" x="532" y="-1392.2" font-family="Helvetica,sans-Serif" font-size="11.00">ad_client_id</text>
<polygon fill="none" stroke="black" points="512,-1362 512,-1384 824,-1384 824,-1362 512,-1362"/>
<image xlink:href="../../images/foreignKeys.png" width="11px" height="12px" preserveAspectRatio="xMinYMin meet" x="517" y="-1379"/>
<text text-anchor="start" x="532" y="-1370.2" font-family="Helvetica,sans-Serif" font-size="11.00">ad_org_id</text>
<polygon fill="#ffffff" stroke="transparent" points="512,-1340 512,-1362 824,-1362 824,-1340 512,-1340"/>
<polygon fill="none" stroke="black" points="512,-1340 512,-1362 824,-1362 824,-1340 512,-1340"/>
<text text-anchor="start" x="532" y="-1348.2" font-family="Helvetica,sans-Serif" font-size="11.00">documentno</text>
<polygon fill="#ffffff" stroke="transparent" points="512,-1318 512,-1340 824,-1340 824,-1318 512,-1318"/>
<polygon fill="none" stroke="black" points="512,-1318 512,-1340 824,-1340 824,-1318 512,-1318"/>
<text text-anchor="start" x="532" y="-1326.2" font-family="Helvetica,sans-Serif" font-size="11.00">processed</text>
<polygon fill="#ffffff" stroke="transparent" points="512,-1296 512,-1318 824,-1318 824,-1296 512,-1296"/>
<polygon fill="none" stroke="black" points="512,-1296 512,-1318 824,-1318 824,-1296 512,-1296"/>
<text text-anchor="start" x="532" y="-1304.2" font-family="Helvetica,sans-Serif" font-size="11.00">posted</text>
<polygon fill="#ffffff" stroke="transparent" points="512,-1274 512,-1296 824,-1296 824,-1274 512,-1274"/>
<polygon fill="none" stroke="black" points="512,-1274 512,-1296 824,-1296 824,-1274 512,-1274"/>
<image xlink:href="../../images/foreignKeys.png" width="11px" height="12px" preserveAspectRatio="xMinYMin meet" x="517" y="-1291"/>
<text text-anchor="start" x="532" y="-1282.2" font-family="Helvetica,sans-Serif" font-size="11.00">c_doctype_id</text>
<polygon fill="#ffffff" stroke="transparent" points="512,-1252 512,-1274 824,-1274 824,-1252 512,-1252"/>
<polygon fill="none" stroke="black" points="512,-1252 512,-1274 824,-1274 824,-1252 512,-1252"/>
<image xlink:href="../../images/foreignKeys.png" width="11px" height="12px" preserveAspectRatio="xMinYMin meet" x="517" y="-1269"/>
<text text-anchor="start" x="532" y="-1260.2" font-family="Helvetica,sans-Serif" font-size="11.00">c_doctypetarget_id</text>
<polygon fill="#ffffff" stroke="transparent" points="512,-1230 512,-1252 824,-1252 824,-1230 512,-1230"/>
<polygon fill="none" stroke="black" points="512,-1230 512,-1252 824,-1252 824,-1230 512,-1230"/>
<image xlink:href="../../images/foreignKeys.png" width="11px" height="12px" preserveAspectRatio="xMinYMin meet" x="517" y="-1247"/>
<text text-anchor="start" x="532" y="-1238.2" font-family="Helvetica,sans-Serif" font-size="11.00">c_order_id</text>
<polygon fill="none" stroke="black" points="512,-1208 512,-1230 824,-1230 824,-1208 512,-1208"/>
<image xlink:href="../../images/foreignKeys.png" width="11px" height="12px" preserveAspectRatio="xMinYMin meet" x="517" y="-1225"/>
<text text-anchor="start" x="532" y="-1216.2" font-family="Helvetica,sans-Serif" font-size="11.00">salesrep_id</text>
<polygon fill="#ffffff" stroke="transparent" points="512,-1186 512,-1208 824,-1208 824,-1186 512,-1186"/>
<polygon fill="none" stroke="black" points="512,-1186 512,-1208 824,-1208 824,-1186 512,-1186"/>
<image xlink:href="../../images/foreignKeys.png" width="11px" height="12px" preserveAspectRatio="xMinYMin meet" x="517" y="-1203"/>
<text text-anchor="start" x="532" y="-1194.2" font-family="Helvetica,sans-Serif" font-size="11.00">c_bpartner_id</text>
<polygon fill="none" stroke="black" points="512,-1164 512,-1186 824,-1186 824,-1164 512,-1164"/>
<image xlink:href="../../images/foreignKeys.png" width="11px" height="12px" preserveAspectRatio="xMinYMin meet" x="517" y="-1181"/>
<text text-anchor="start" x="532" y="-1172.2" font-family="Helvetica,sans-Serif" font-size="11.00">c_bpartner_location_id</text>
<polygon fill="none" stroke="black" points="512,-1142 512,-1164 824,-1164 824,-1142 512,-1142"/>
<image xlink:href="../../images/foreignKeys.png" width="11px" height="12px" preserveAspectRatio="xMinYMin meet" x="517" y="-1159"/>
<text text-anchor="start" x="532" y="-1150.2" font-family="Helvetica,sans-Serif" font-size="11.00">c_currency_id</text>
<polygon fill="none" stroke="black" points="512,-1120 512,-1142 824,-1142 824,-1120 512,-1120"/>
<image xlink:href="../../images/foreignKeys.png" width="11px" height="12px" preserveAspectRatio="xMinYMin meet" x="517" y="-1137"/>
<text text-anchor="start" x="532" y="-1128.2" font-family="Helvetica,sans-Serif" font-size="11.00">c_paymentterm_id</text>
<polygon fill="none" stroke="black" points="512,-1098 512,-1120 824,-1120 824,-1098 512,-1098"/>
<image xlink:href="../../images/foreignKeys.png" width="11px" height="12px" preserveAspectRatio="xMinYMin meet" x="517" y="-1115"/>
<text text-anchor="start" x="532" y="-1106.2" font-family="Helvetica,sans-Serif" font-size="11.00">c_charge_id</text>
<polygon fill="none" stroke="black" points="512,-1076 512,-1098 824,-1098 824,-1076 512,-1076"/>
<image xlink:href="../../images/foreignKeys.png" width="11px" height="12px" preserveAspectRatio="xMinYMin meet" x="517" y="-1093"/>
<text text-anchor="start" x="532" y="-1084.2" font-family="Helvetica,sans-Serif" font-size="11.00">m_pricelist_id</text>
<polygon fill="none" stroke="black" points="512,-1054 512,-1076 824,-1076 824,-1054 512,-1054"/>
<image xlink:href="../../images/foreignKeys.png" width="11px" height="12px" preserveAspectRatio="xMinYMin meet" x="517" y="-1071"/>
<text text-anchor="start" x="532" y="-1062.2" font-family="Helvetica,sans-Serif" font-size="11.00">c_campaign_id</text>
<polygon fill="none" stroke="black" points="512,-1032 512,-1054 824,-1054 824,-1032 512,-1032"/>
<image xlink:href="../../images/foreignKeys.png" width="11px" height="12px" preserveAspectRatio="xMinYMin meet" x="517" y="-1049"/>
<text text-anchor="start" x="532" y="-1040.2" font-family="Helvetica,sans-Serif" font-size="11.00">c_project_id</text>
<polygon fill="none" stroke="black" points="512,-1010 512,-1032 824,-1032 824,-1010 512,-1010"/>
<image xlink:href="../../images/foreignKeys.png" width="11px" height="12px" preserveAspectRatio="xMinYMin meet" x="517" y="-1027"/>
<text text-anchor="start" x="532" y="-1018.2" font-family="Helvetica,sans-Serif" font-size="11.00">c_activity_id</text>
<polygon fill="#ffffff" stroke="transparent" points="512,-988 512,-1010 824,-1010 824,-988 512,-988"/>
<polygon fill="none" stroke="black" points="512,-988 512,-1010 824,-1010 824,-988 512,-988"/>
<text text-anchor="start" x="532" y="-996.2" font-family="Helvetica,sans-Serif" font-size="11.00">ispaid</text>
<polygon fill="none" stroke="black" points="512,-966 512,-988 824,-988 824,-966 512,-966"/>
<image xlink:href="../../images/foreignKeys.png" width="11px" height="12px" preserveAspectRatio="xMinYMin meet" x="517" y="-983"/>
<text text-anchor="start" x="532" y="-974.2" font-family="Helvetica,sans-Serif" font-size="11.00">c_payment_id</text>
<polygon fill="none" stroke="black" points="512,-944 512,-966 824,-966 824,-944 512,-944"/>
<image xlink:href="../../images/foreignKeys.png" width="11px" height="12px" preserveAspectRatio="xMinYMin meet" x="517" y="-961"/>
<text text-anchor="start" x="532" y="-952.2" font-family="Helvetica,sans-Serif" font-size="11.00">c_cashline_id</text>
<polygon fill="none" stroke="black" points="512,-922 512,-944 824,-944 824,-922 512,-922"/>
<image xlink:href="../../images/foreignKeys.png" width="11px" height="12px" preserveAspectRatio="xMinYMin meet" x="517" y="-939"/>
<text text-anchor="start" x="532" y="-930.2" font-family="Helvetica,sans-Serif" font-size="11.00">ad_user_id</text>
<polygon fill="none" stroke="black" points="512,-900 512,-922 824,-922 824,-900 512,-900"/>
<image xlink:href="../../images/foreignKeys.png" width="11px" height="12px" preserveAspectRatio="xMinYMin meet" x="517" y="-917"/>
<text text-anchor="start" x="532" y="-908.2" font-family="Helvetica,sans-Serif" font-size="11.00">ad_orgtrx_id</text>
<polygon fill="none" stroke="black" points="512,-878 512,-900 824,-900 824,-878 512,-878"/>
<image xlink:href="../../images/foreignKeys.png" width="11px" height="12px" preserveAspectRatio="xMinYMin meet" x="517" y="-895"/>
<text text-anchor="start" x="532" y="-886.2" font-family="Helvetica,sans-Serif" font-size="11.00">user1_id</text>
<polygon fill="none" stroke="black" points="512,-856 512,-878 824,-878 824,-856 512,-856"/>
<image xlink:href="../../images/foreignKeys.png" width="11px" height="12px" preserveAspectRatio="xMinYMin meet" x="517" y="-873"/>
<text text-anchor="start" x="532" y="-864.2" font-family="Helvetica,sans-Serif" font-size="11.00">user2_id</text>
<polygon fill="none" stroke="black" points="512,-834 512,-856 824,-856 824,-834 512,-834"/>
<image xlink:href="../../images/foreignKeys.png" width="11px" height="12px" preserveAspectRatio="xMinYMin meet" x="517" y="-851"/>
<text text-anchor="start" x="532" y="-842.2" font-family="Helvetica,sans-Serif" font-size="11.00">c_conversiontype_id</text>
<polygon fill="#ffffff" stroke="transparent" points="512,-812 512,-834 824,-834 824,-812 512,-812"/>
<polygon fill="none" stroke="black" points="512,-812 512,-834 824,-834 824,-812 512,-812"/>
<image xlink:href="../../images/foreignKeys.png" width="11px" height="12px" preserveAspectRatio="xMinYMin meet" x="517" y="-829"/>
<text text-anchor="start" x="532" y="-820.2" font-family="Helvetica,sans-Serif" font-size="11.00">ref_invoice_id</text>
<polygon fill="none" stroke="black" points="512,-790 512,-812 824,-812 824,-790 512,-790"/>
<image xlink:href="../../images/foreignKeys.png" width="11px" height="12px" preserveAspectRatio="xMinYMin meet" x="517" y="-807"/>
<text text-anchor="start" x="532" y="-798.2" font-family="Helvetica,sans-Serif" font-size="11.00">m_rma_id</text>
<polygon fill="none" stroke="black" points="512,-768 512,-790 824,-790 824,-768 512,-768"/>
<image xlink:href="../../images/foreignKeys.png" width="11px" height="12px" preserveAspectRatio="xMinYMin meet" x="517" y="-785"/>
<text text-anchor="start" x="532" y="-776.2" font-family="Helvetica,sans-Serif" font-size="11.00">c_dunninglevel_id</text>
<polygon fill="#ffffff" stroke="transparent" points="512,-746 512,-768 824,-768 824,-746 512,-746"/>
<polygon fill="none" stroke="black" points="512,-746 512,-768 824,-768 824,-746 512,-746"/>
<image xlink:href="../../images/foreignKeys.png" width="11px" height="12px" preserveAspectRatio="xMinYMin meet" x="517" y="-763"/>
<text text-anchor="start" x="532" y="-754.2" font-family="Helvetica,sans-Serif" font-size="11.00">reversal_id</text>
<polygon fill="#ffffff" stroke="transparent" points="512,-724 512,-746 824,-746 824,-724 512,-724"/>
<polygon fill="none" stroke="black" points="512,-724 512,-746 824,-746 824,-724 512,-724"/>
<text text-anchor="start" x="532" y="-732.2" font-family="Helvetica,sans-Serif" font-size="11.00">processedon</text>
<polygon fill="#ffffff" stroke="transparent" points="512,-702 512,-724 824,-724 824,-702 512,-702"/>
<polygon fill="none" stroke="black" points="512,-702 512,-724 824,-724 824,-702 512,-702"/>
<image xlink:href="../../images/foreignKeys.png" width="11px" height="12px" preserveAspectRatio="xMinYMin meet" x="517" y="-719"/>
<text text-anchor="start" x="532" y="-710.2" font-family="Helvetica,sans-Serif" font-size="11.00">c_cashplanline_id</text>
<polygon fill="#ffffff" stroke="transparent" points="512,-680 512,-702 824,-702 824,-680 512,-680"/>
<polygon fill="none" stroke="black" points="512,-680 512,-702 824,-702 824,-680 512,-680"/>
<text text-anchor="start" x="532" y="-688.2" font-family="Helvetica,sans-Serif" font-size="11.00">c_invoice_uu</text>
<polygon fill="none" stroke="black" points="512,-658 512,-680 824,-680 824,-658 512,-658"/>
<image xlink:href="../../images/foreignKeys.png" width="11px" height="12px" preserveAspectRatio="xMinYMin meet" x="517" y="-675"/>
<text text-anchor="start" x="532" y="-666.2" font-family="Helvetica,sans-Serif" font-size="11.00">lbr_docfiscal_id</text>
<polygon fill="#ffffff" stroke="transparent" points="512,-636 512,-658 824,-658 824,-636 512,-636"/>
<polygon fill="none" stroke="black" points="512,-636 512,-658 824,-658 824,-636 512,-636"/>
<image xlink:href="../../images/foreignKeys.png" width="11px" height="12px" preserveAspectRatio="xMinYMin meet" x="517" y="-653"/>
<text text-anchor="start" x="532" y="-644.2" font-family="Helvetica,sans-Serif" font-size="11.00">cof_sourceinvoice_id</text>
<polygon fill="none" stroke="black" points="512,-614 512,-636 824,-636 824,-614 512,-614"/>
<image xlink:href="../../images/foreignKeys.png" width="11px" height="12px" preserveAspectRatio="xMinYMin meet" x="517" y="-631"/>
<text text-anchor="start" x="532" y="-622.2" font-family="Helvetica,sans-Serif" font-size="11.00">cof_c_custody_id</text>
<polygon fill="none" stroke="black" points="512,-592 512,-614 824,-614 824,-592 512,-592"/>
<image xlink:href="../../images/foreignKeys.png" width="11px" height="12px" preserveAspectRatio="xMinYMin meet" x="517" y="-609"/>
<text text-anchor="start" x="532" y="-600.2" font-family="Helvetica,sans-Serif" font-size="11.00">cof_payfrom_location_id</text>
<polygon fill="none" stroke="black" points="512,-570 512,-592 824,-592 824,-570 512,-570"/>
<image xlink:href="../../images/foreignKeys.png" width="11px" height="12px" preserveAspectRatio="xMinYMin meet" x="517" y="-587"/>
<text text-anchor="start" x="532" y="-578.2" font-family="Helvetica,sans-Serif" font-size="11.00">cof_orgst_id</text>
<polygon fill="none" stroke="black" points="512,-548 512,-570 824,-570 824,-548 512,-548"/>
<image xlink:href="../../images/foreignKeys.png" width="11px" height="12px" preserveAspectRatio="xMinYMin meet" x="517" y="-565"/>
<text text-anchor="start" x="532" y="-556.2" font-family="Helvetica,sans-Serif" font-size="11.00">cof_c_planofinanceiro_id</text>
<polygon fill="none" stroke="black" points="512,-526 512,-548 824,-548 824,-526 512,-526"/>
<image xlink:href="../../images/foreignKeys.png" width="11px" height="12px" preserveAspectRatio="xMinYMin meet" x="517" y="-543"/>
<text text-anchor="start" x="532" y="-534.2" font-family="Helvetica,sans-Serif" font-size="11.00">c_elementvalue_id</text>
<polygon fill="#ffffff" stroke="transparent" points="512,-504 512,-526 824,-526 824,-504 512,-504"/>
<polygon fill="none" stroke="black" points="512,-504 512,-526 824,-526 824,-504 512,-504"/>
<image xlink:href="../../images/foreignKeys.png" width="11px" height="12px" preserveAspectRatio="xMinYMin meet" x="517" y="-521"/>
<text text-anchor="start" x="532" y="-512.2" font-family="Helvetica,sans-Serif" font-size="11.00">cof_invoice_id</text>
<polygon fill="#ffffff" stroke="transparent" points="512,-482 512,-504 824,-504 824,-482 512,-482"/>
<polygon fill="none" stroke="black" points="512,-482 512,-504 824,-504 824,-482 512,-482"/>
<image xlink:href="../../images/foreignKeys.png" width="11px" height="12px" preserveAspectRatio="xMinYMin meet" x="517" y="-499"/>
<text text-anchor="start" x="532" y="-490.2" font-family="Helvetica,sans-Serif" font-size="11.00">cof_ref_order_id</text>
<polygon fill="none" stroke="black" points="512,-460 512,-482 824,-482 824,-460 512,-460"/>
<image xlink:href="../../images/foreignKeys.png" width="11px" height="12px" preserveAspectRatio="xMinYMin meet" x="517" y="-477"/>
<text text-anchor="start" x="532" y="-468.2" font-family="Helvetica,sans-Serif" font-size="11.00">cof_contract_id</text>
<polygon fill="none" stroke="black" points="512,-438 512,-460 824,-460 824,-438 512,-438"/>
<image xlink:href="../../images/foreignKeys.png" width="11px" height="12px" preserveAspectRatio="xMinYMin meet" x="517" y="-455"/>
<text text-anchor="start" x="532" y="-446.2" font-family="Helvetica,sans-Serif" font-size="11.00">cof_digitador_id</text>
<polygon fill="none" stroke="black" points="512,-416 512,-438 824,-438 824,-416 512,-416"/>
<image xlink:href="../../images/foreignKeys.png" width="11px" height="12px" preserveAspectRatio="xMinYMin meet" x="517" y="-433"/>
<text text-anchor="start" x="532" y="-424.2" font-family="Helvetica,sans-Serif" font-size="11.00">cof_bpespecialista_id</text>
<polygon fill="#ffffff" stroke="transparent" points="512,-394 512,-416 824,-416 824,-394 512,-394"/>
<polygon fill="none" stroke="black" points="512,-394 512,-416 824,-416 824,-394 512,-394"/>
<image xlink:href="../../images/foreignKeys.png" width="11px" height="12px" preserveAspectRatio="xMinYMin meet" x="517" y="-411"/>
<text text-anchor="start" x="532" y="-402.2" font-family="Helvetica,sans-Serif" font-size="11.00">relatedinvoice_id</text>
<polygon fill="#ffffff" stroke="transparent" points="512,-372 512,-394 824,-394 824,-372 512,-372"/>
<polygon fill="none" stroke="black" points="512,-372 512,-394 824,-394 824,-372 512,-372"/>
<image xlink:href="../../images/foreignKeys.png" width="11px" height="12px" preserveAspectRatio="xMinYMin meet" x="517" y="-389"/>
<text text-anchor="start" x="532" y="-380.2" font-family="Helvetica,sans-Serif" font-size="11.00">cof_invoice_substituta_id</text>
<polygon fill="none" stroke="black" points="512,-350 512,-372 824,-372 824,-350 512,-350"/>
<image xlink:href="../../images/foreignKeys.png" width="11px" height="12px" preserveAspectRatio="xMinYMin meet" x="517" y="-367"/>
<text text-anchor="start" x="532" y="-358.2" font-family="Helvetica,sans-Serif" font-size="11.00">cof_vendedorinterno_id</text>
<polygon fill="none" stroke="black" points="512,-328 512,-350 824,-350 824,-328 512,-328"/>
<image xlink:href="../../images/foreignKeys.png" width="11px" height="12px" preserveAspectRatio="xMinYMin meet" x="517" y="-345"/>
<text text-anchor="start" x="532" y="-336.2" font-family="Helvetica,sans-Serif" font-size="11.00">cof_parceirointermediador_id</text>
<polygon fill="none" stroke="black" points="512,-310 512,-328 824,-328 824,-310 512,-310"/>
<text text-anchor="start" x="515" y="-316.2" font-family="Helvetica,sans-Serif" font-size="11.00">...</text>
<polygon fill="#ffffff" stroke="transparent" points="512,-292 512,-310 824,-310 824,-292 512,-292"/>
<polygon fill="none" stroke="black" points="512,-292 512,-310 824,-310 824,-292 512,-292"/>
<polygon fill="#ffffff" stroke="transparent" points="513,-293 513,-309 622,-309 622,-293 513,-293"/>
<text text-anchor="start" x="515" y="-298.2" font-family="Helvetica,sans-Serif" font-size="11.00">&lt; 42</text>
<polygon fill="#ffffff" stroke="transparent" points="622,-293 622,-309 715,-309 715,-293 622,-293"/>
<text text-anchor="start" x="665" y="-298.2" font-family="Helvetica,sans-Serif" font-size="11.00"> &#160;</text>
<polygon fill="#ffffff" stroke="transparent" points="715,-293 715,-309 823,-309 823,-293 715,-293"/>
<text text-anchor="start" x="799" y="-298.2" font-family="Helvetica,sans-Serif" font-size="11.00">50 &gt;</text>
<polygon fill="black" stroke="black" points="622,-293 622,-309 622,-309 622,-293 622,-293"/>
<polygon fill="black" stroke="black" points="715,-293 715,-309 715,-309 715,-293 715,-293"/>
</a>
</g>
</g>
<!-- ad_org -->
<g id="node2" class="node">
<title>ad_org</title>
<g id="a_node2"><a xlink:href="../../tables/ad_org.html" xlink:title="ad_org" target="_top">
<polygon fill="#ffffff" stroke="transparent" points="8,-754 8,-944 214,-944 214,-754 8,-754"/>
<polygon fill="#f5f5f5" stroke="transparent" points="8,-922 8,-944 214,-944 214,-922 8,-922"/>
<polygon fill="none" stroke="black" points="8,-922 8,-944 214,-944 214,-922 8,-922"/>
<text text-anchor="start" x="13" y="-931.2" font-family="Helvetica,sans-Serif" font-weight="bold" font-size="11.00">ad_org</text>
<text text-anchor="start" x="179" y="-930.2" font-family="Helvetica,sans-Serif" font-size="11.00">[table]</text>
<polygon fill="none" stroke="black" points="8,-900 8,-922 214,-922 214,-900 8,-900"/>
<image xlink:href="../../images/primaryKeys.png" width="11px" height="12px" preserveAspectRatio="xMinYMin meet" x="13" y="-917"/>
<text text-anchor="start" x="28" y="-908.2" font-family="Helvetica,sans-Serif" font-size="11.00">ad_org_id</text>
<polygon fill="#ffffff" stroke="transparent" points="8,-878 8,-900 214,-900 214,-878 8,-878"/>
<polygon fill="none" stroke="black" points="8,-878 8,-900 214,-900 214,-878 8,-878"/>
<image xlink:href="../../images/foreignKeys.png" width="11px" height="12px" preserveAspectRatio="xMinYMin meet" x="13" y="-895"/>
<text text-anchor="start" x="28" y="-886.2" font-family="Helvetica,sans-Serif" font-size="11.00">ad_client_id</text>
<polygon fill="#ffffff" stroke="transparent" points="8,-856 8,-878 214,-878 214,-856 8,-856"/>
<polygon fill="none" stroke="black" points="8,-856 8,-878 214,-878 214,-856 8,-856"/>
<text text-anchor="start" x="28" y="-864.2" font-family="Helvetica,sans-Serif" font-size="11.00">value</text>
<polygon fill="none" stroke="black" points="8,-834 8,-856 214,-856 214,-834 8,-834"/>
<image xlink:href="../../images/foreignKeys.png" width="11px" height="12px" preserveAspectRatio="xMinYMin meet" x="13" y="-851"/>
<text text-anchor="start" x="28" y="-842.2" font-family="Helvetica,sans-Serif" font-size="11.00">ad_replicationstrategy_id</text>
<polygon fill="#ffffff" stroke="transparent" points="8,-812 8,-834 214,-834 214,-812 8,-812"/>
<polygon fill="none" stroke="black" points="8,-812 8,-834 214,-834 214,-812 8,-812"/>
<text text-anchor="start" x="28" y="-820.2" font-family="Helvetica,sans-Serif" font-size="11.00">ad_org_uu</text>
<polygon fill="none" stroke="black" points="8,-790 8,-812 214,-812 214,-790 8,-790"/>
<image xlink:href="../../images/foreignKeys.png" width="11px" height="12px" preserveAspectRatio="xMinYMin meet" x="13" y="-807"/>
<text text-anchor="start" x="28" y="-798.2" font-family="Helvetica,sans-Serif" font-size="11.00">cof_c_snrange_id</text>
<polygon fill="none" stroke="black" points="8,-772 8,-790 214,-790 214,-772 8,-772"/>
<text text-anchor="start" x="11" y="-778.2" font-family="Helvetica,sans-Serif" font-size="11.00">...</text>
<polygon fill="#ffffff" stroke="transparent" points="8,-754 8,-772 214,-772 214,-754 8,-754"/>
<polygon fill="none" stroke="black" points="8,-754 8,-772 214,-772 214,-754 8,-754"/>
<polygon fill="#ffffff" stroke="transparent" points="9,-755 9,-771 68,-771 68,-755 9,-755"/>
<text text-anchor="start" x="11" y="-760.2" font-family="Helvetica,sans-Serif" font-size="11.00">&lt; 3</text>
<polygon fill="#ffffff" stroke="transparent" points="68,-755 68,-771 143,-771 143,-755 68,-755"/>
<text text-anchor="start" x="89" y="-760.2" font-family="Helvetica,sans-Serif" font-size="11.00">3 rows</text>
<polygon fill="#ffffff" stroke="transparent" points="143,-755 143,-771 213,-771 213,-755 143,-755"/>
<text text-anchor="start" x="183" y="-760.2" font-family="Helvetica,sans-Serif" font-size="11.00">284 &gt;</text>
<polygon fill="black" stroke="black" points="68,-755 68,-771 68,-771 68,-755 68,-755"/>
<polygon fill="black" stroke="black" points="143,-755 143,-771 143,-771 143,-755 143,-755"/>
</a>
</g>
</g>
<!-- c_invoice&#45;&gt;ad_org -->
<g id="edge1" class="edge">
<title>c_invoice:w&#45;&gt;ad_org:e</title>
<path fill="none" stroke="black" d="M496.68,-1370.84C384.78,-1336.74 332.05,-911 215,-911"/>
<polygon fill="black" stroke="black" points="503.09,-1371.81 510.46,-1376.56 507.04,-1372.4 511,-1373 511,-1373 511,-1373 507.04,-1372.4 511.54,-1369.44 503.09,-1371.81 503.09,-1371.81"/>
<ellipse fill="none" stroke="black" cx="499.93" cy="-1371.33" rx="3.2" ry="3.2"/>
</g>
<!-- c_invoice&#45;&gt;ad_org -->
<g id="edge2" class="edge">
<title>c_invoice:w&#45;&gt;ad_org:e</title>
<path fill="none" stroke="black" d="M496.39,-911C376.8,-911 341.55,-911 215,-911"/>
<polygon fill="black" stroke="black" points="503,-911 511,-914.6 507,-911 511,-911 511,-911 511,-911 507,-911 511,-907.4 503,-911 503,-911"/>
<ellipse fill="none" stroke="black" cx="499.8" cy="-911" rx="3.2" ry="3.2"/>
</g>
<!-- cof_orgst -->
<g id="node3" class="node">
<title>cof_orgst</title>
<g id="a_node3"><a xlink:href="../../tables/cof_orgst.html" xlink:title="cof_orgst" target="_top">
<polygon fill="#ffffff" stroke="transparent" points="263,-308 263,-616 463,-616 463,-308 263,-308"/>
<polygon fill="#f5f5f5" stroke="transparent" points="265,-592 265,-614 461,-614 461,-592 265,-592"/>
<polygon fill="none" stroke="black" points="265,-592 265,-614 461,-614 461,-592 265,-592"/>
<text text-anchor="start" x="270" y="-601.2" font-family="Helvetica,sans-Serif" font-weight="bold" font-size="11.00">cof_orgst</text>
<text text-anchor="start" x="426" y="-600.2" font-family="Helvetica,sans-Serif" font-size="11.00">[table]</text>
<polygon fill="none" stroke="black" points="265,-570 265,-592 378,-592 378,-570 265,-570"/>
<image xlink:href="../../images/primaryKeys.png" width="11px" height="12px" preserveAspectRatio="xMinYMin meet" x="270" y="-587"/>
<text text-anchor="start" x="285" y="-578.2" font-family="Helvetica,sans-Serif" font-size="11.00">cof_orgst_id</text>
<polygon fill="none" stroke="black" points="378,-570 378,-592 461,-592 461,-570 378,-570"/>
<text text-anchor="start" x="381" y="-578.2" font-family="Helvetica,sans-Serif" font-size="11.00">numeric[10]</text>
<polygon fill="none" stroke="black" points="265,-548 265,-570 378,-570 378,-548 265,-548"/>
<text text-anchor="start" x="285" y="-556.2" font-family="Helvetica,sans-Serif" font-size="11.00">ad_client_id</text>
<polygon fill="none" stroke="black" points="378,-548 378,-570 461,-570 461,-548 378,-548"/>
<text text-anchor="start" x="381" y="-556.2" font-family="Helvetica,sans-Serif" font-size="11.00">numeric[10]</text>
<polygon fill="none" stroke="black" points="265,-526 265,-548 378,-548 378,-526 265,-526"/>
<image xlink:href="../../images/foreignKeys.png" width="11px" height="12px" preserveAspectRatio="xMinYMin meet" x="270" y="-543"/>
<text text-anchor="start" x="285" y="-534.2" font-family="Helvetica,sans-Serif" font-size="11.00">ad_org_id</text>
<polygon fill="none" stroke="black" points="378,-526 378,-548 461,-548 461,-526 378,-526"/>
<text text-anchor="start" x="381" y="-534.2" font-family="Helvetica,sans-Serif" font-size="11.00">numeric[10]</text>
<polygon fill="none" stroke="black" points="265,-504 265,-526 378,-526 378,-504 265,-504"/>
<text text-anchor="start" x="285" y="-512.2" font-family="Helvetica,sans-Serif" font-size="11.00">isactive</text>
<polygon fill="none" stroke="black" points="378,-504 378,-526 461,-526 461,-504 378,-504"/>
<text text-anchor="start" x="381" y="-512.2" font-family="Helvetica,sans-Serif" font-size="11.00">bpchar[1]</text>
<polygon fill="none" stroke="black" points="265,-482 265,-504 378,-504 378,-482 265,-482"/>
<text text-anchor="start" x="285" y="-490.2" font-family="Helvetica,sans-Serif" font-size="11.00">created</text>
<polygon fill="none" stroke="black" points="378,-482 378,-504 461,-504 461,-482 378,-482"/>
<text text-anchor="start" x="381" y="-490.2" font-family="Helvetica,sans-Serif" font-size="11.00">timestamp[29,6]</text>
<polygon fill="none" stroke="black" points="265,-460 265,-482 378,-482 378,-460 265,-460"/>
<text text-anchor="start" x="285" y="-468.2" font-family="Helvetica,sans-Serif" font-size="11.00">createdby</text>
<polygon fill="none" stroke="black" points="378,-460 378,-482 461,-482 461,-460 378,-460"/>
<text text-anchor="start" x="381" y="-468.2" font-family="Helvetica,sans-Serif" font-size="11.00">numeric[10]</text>
<polygon fill="none" stroke="black" points="265,-438 265,-460 378,-460 378,-438 265,-438"/>
<text text-anchor="start" x="285" y="-446.2" font-family="Helvetica,sans-Serif" font-size="11.00">updated</text>
<polygon fill="none" stroke="black" points="378,-438 378,-460 461,-460 461,-438 378,-438"/>
<text text-anchor="start" x="381" y="-446.2" font-family="Helvetica,sans-Serif" font-size="11.00">timestamp[29,6]</text>
<polygon fill="none" stroke="black" points="265,-416 265,-438 378,-438 378,-416 265,-416"/>
<text text-anchor="start" x="285" y="-424.2" font-family="Helvetica,sans-Serif" font-size="11.00">updatedby</text>
<polygon fill="none" stroke="black" points="378,-416 378,-438 461,-438 461,-416 378,-416"/>
<text text-anchor="start" x="381" y="-424.2" font-family="Helvetica,sans-Serif" font-size="11.00">numeric[10]</text>
<polygon fill="none" stroke="black" points="265,-394 265,-416 378,-416 378,-394 265,-394"/>
<text text-anchor="start" x="285" y="-402.2" font-family="Helvetica,sans-Serif" font-size="11.00">c_country_id</text>
<polygon fill="none" stroke="black" points="378,-394 378,-416 461,-416 461,-394 378,-394"/>
<text text-anchor="start" x="381" y="-402.2" font-family="Helvetica,sans-Serif" font-size="11.00">numeric[10]</text>
<polygon fill="none" stroke="black" points="265,-372 265,-394 378,-394 378,-372 265,-372"/>
<text text-anchor="start" x="285" y="-380.2" font-family="Helvetica,sans-Serif" font-size="11.00">c_region_id</text>
<polygon fill="none" stroke="black" points="378,-372 378,-394 461,-394 461,-372 378,-372"/>
<text text-anchor="start" x="381" y="-380.2" font-family="Helvetica,sans-Serif" font-size="11.00">numeric[10]</text>
<polygon fill="none" stroke="black" points="265,-350 265,-372 378,-372 378,-350 265,-350"/>
<text text-anchor="start" x="285" y="-358.2" font-family="Helvetica,sans-Serif" font-size="11.00">cof_iest</text>
<polygon fill="none" stroke="black" points="378,-350 378,-372 461,-372 461,-350 378,-350"/>
<text text-anchor="start" x="381" y="-358.2" font-family="Helvetica,sans-Serif" font-size="11.00">varchar[20]</text>
<polygon fill="#ffffff" stroke="transparent" points="265,-328 265,-350 378,-350 378,-328 265,-328"/>
<polygon fill="none" stroke="black" points="265,-328 265,-350 378,-350 378,-328 265,-328"/>
<text text-anchor="start" x="285" y="-336.2" font-family="Helvetica,sans-Serif" font-size="11.00">cof_orgst_uu</text>
<polygon fill="none" stroke="black" points="378,-328 378,-350 461,-350 461,-328 378,-328"/>
<text text-anchor="start" x="381" y="-336.2" font-family="Helvetica,sans-Serif" font-size="11.00">varchar[36]</text>
<polygon fill="#ffffff" stroke="transparent" points="265,-310 265,-328 461,-328 461,-310 265,-310"/>
<polygon fill="none" stroke="black" points="265,-310 265,-328 461,-328 461,-310 265,-310"/>
<polygon fill="#ffffff" stroke="transparent" points="266,-311 266,-327 327,-327 327,-311 266,-311"/>
<text text-anchor="start" x="268" y="-316.2" font-family="Helvetica,sans-Serif" font-size="11.00">&lt; 1</text>
<polygon fill="#ffffff" stroke="transparent" points="327,-311 327,-327 400,-327 400,-311 327,-311"/>
<text text-anchor="start" x="349.5" y="-316.2" font-family="Helvetica,sans-Serif" font-size="11.00">1 row</text>
<polygon fill="#ffffff" stroke="transparent" points="400,-311 400,-327 460,-327 460,-311 400,-311"/>
<text text-anchor="start" x="442" y="-316.2" font-family="Helvetica,sans-Serif" font-size="11.00">2 &gt;</text>
<polygon fill="black" stroke="black" points="327,-311 327,-327 327,-327 327,-311 327,-311"/>
<polygon fill="black" stroke="black" points="400,-311 400,-327 400,-327 400,-311 400,-311"/>
<polygon fill="none" stroke="black" stroke-width="2" points="264,-309 264,-615 462,-615 462,-309 264,-309"/>
</a>
</g>
</g>
<!-- c_invoice&#45;&gt;cof_orgst -->
<g id="edge3" class="edge">
<title>c_invoice:w&#45;&gt;cof_orgst:e</title>
<path fill="none" stroke="black" d="M496.49,-581C485.18,-581 477.99,-581 462,-581"/>
<polygon fill="black" stroke="black" points="503,-581 511,-584.6 507,-581 511,-581 511,-581 511,-581 507,-581 511,-577.4 503,-581 503,-581"/>
<ellipse fill="none" stroke="black" cx="499.8" cy="-581" rx="3.2" ry="3.2"/>
</g>
<!-- cof_orgst&#45;&gt;ad_org -->
<g id="edge5" class="edge">
<title>cof_orgst:w&#45;&gt;ad_org:e</title>
<path fill="none" stroke="black" d="M249.59,-538.07C113.81,-560.01 377.4,-911 215,-911"/>
<polygon fill="black" stroke="black" points="256.02,-537.59 264.27,-540.59 260.01,-537.3 264,-537 264,-537 264,-537 260.01,-537.3 263.73,-533.41 256.02,-537.59 256.02,-537.59"/>
<ellipse fill="none" stroke="black" cx="252.83" cy="-537.83" rx="3.2" ry="3.2"/>
</g>
<!-- cof_c_taxdetermination_hdr -->
<g id="node4" class="node">
<title>cof_c_taxdetermination_hdr</title>
<g id="a_node4"><a xlink:href="../../tables/cof_c_taxdetermination_hdr.html" xlink:title="cof_c_taxdetermination_hdr" target="_top">
<polygon fill="#ffffff" stroke="transparent" points="531,-37 531,-271 805,-271 805,-37 531,-37"/>
<polygon fill="#f5f5f5" stroke="transparent" points="531,-249 531,-271 805,-271 805,-249 531,-249"/>
<polygon fill="none" stroke="black" points="531,-249 531,-271 805,-271 805,-249 531,-249"/>
<text text-anchor="start" x="536" y="-258.2" font-family="Helvetica,sans-Serif" font-weight="bold" font-size="11.00">cof_c_taxdetermination_hdr</text>
<text text-anchor="start" x="770" y="-257.2" font-family="Helvetica,sans-Serif" font-size="11.00">[table]</text>
<polygon fill="none" stroke="black" points="531,-227 531,-249 805,-249 805,-227 531,-227"/>
<image xlink:href="../../images/primaryKeys.png" width="11px" height="12px" preserveAspectRatio="xMinYMin meet" x="536" y="-244"/>
<text text-anchor="start" x="551" y="-235.2" font-family="Helvetica,sans-Serif" font-size="11.00">cof_c_taxdetermination_hdr_id</text>
<polygon fill="#ffffff" stroke="transparent" points="531,-205 531,-227 805,-227 805,-205 531,-205"/>
<polygon fill="none" stroke="black" points="531,-205 531,-227 805,-227 805,-205 531,-205"/>
<text text-anchor="start" x="551" y="-213.2" font-family="Helvetica,sans-Serif" font-size="11.00">cof_c_taxdetermination_hdr_uu</text>
<polygon fill="none" stroke="black" points="531,-183 531,-205 805,-205 805,-183 531,-183"/>
<image xlink:href="../../images/foreignKeys.png" width="11px" height="12px" preserveAspectRatio="xMinYMin meet" x="536" y="-200"/>
<text text-anchor="start" x="551" y="-191.2" font-family="Helvetica,sans-Serif" font-size="11.00">lbr_taxname_id</text>
<polygon fill="none" stroke="black" points="531,-161 531,-183 805,-183 805,-161 531,-161"/>
<image xlink:href="../../images/foreignKeys.png" width="11px" height="12px" preserveAspectRatio="xMinYMin meet" x="536" y="-178"/>
<text text-anchor="start" x="551" y="-169.2" font-family="Helvetica,sans-Serif" font-size="11.00">cof_orgst_id</text>
<polygon fill="none" stroke="black" points="531,-139 531,-161 805,-161 805,-139 531,-139"/>
<image xlink:href="../../images/foreignKeys.png" width="11px" height="12px" preserveAspectRatio="xMinYMin meet" x="536" y="-156"/>
<text text-anchor="start" x="551" y="-147.2" font-family="Helvetica,sans-Serif" font-size="11.00">cof_c_snrange_id</text>
<polygon fill="none" stroke="black" points="531,-117 531,-139 805,-139 805,-117 531,-117"/>
<image xlink:href="../../images/foreignKeys.png" width="11px" height="12px" preserveAspectRatio="xMinYMin meet" x="536" y="-134"/>
<text text-anchor="start" x="551" y="-125.2" font-family="Helvetica,sans-Serif" font-size="11.00">cof_estadodestino_id</text>
<polygon fill="none" stroke="black" points="531,-95 531,-117 805,-117 805,-95 531,-95"/>
<image xlink:href="../../images/foreignKeys.png" width="11px" height="12px" preserveAspectRatio="xMinYMin meet" x="536" y="-112"/>
<text text-anchor="start" x="551" y="-103.2" font-family="Helvetica,sans-Serif" font-size="11.00">parent_id</text>
<polygon fill="none" stroke="black" points="531,-73 531,-95 805,-95 805,-73 531,-73"/>
<image xlink:href="../../images/foreignKeys.png" width="11px" height="12px" preserveAspectRatio="xMinYMin meet" x="536" y="-90"/>
<text text-anchor="start" x="551" y="-81.2" font-family="Helvetica,sans-Serif" font-size="11.00">cof_c_taxdetermination_hdr_ant_id</text>
<polygon fill="none" stroke="black" points="531,-55 531,-73 805,-73 805,-55 531,-55"/>
<text text-anchor="start" x="534" y="-61.2" font-family="Helvetica,sans-Serif" font-size="11.00">...</text>
<polygon fill="#ffffff" stroke="transparent" points="531,-37 531,-55 805,-55 805,-37 531,-37"/>
<polygon fill="none" stroke="black" points="531,-37 531,-55 805,-55 805,-37 531,-37"/>
<polygon fill="#ffffff" stroke="transparent" points="532,-38 532,-54 619,-54 619,-38 532,-38"/>
<text text-anchor="start" x="534" y="-43.2" font-family="Helvetica,sans-Serif" font-size="11.00">&lt; 6</text>
<polygon fill="#ffffff" stroke="transparent" points="619,-38 619,-54 718,-54 718,-38 619,-38"/>
<text text-anchor="start" x="654.5" y="-43.2" font-family="Helvetica,sans-Serif" font-size="11.00">1 row</text>
<polygon fill="#ffffff" stroke="transparent" points="718,-38 718,-54 804,-54 804,-38 718,-38"/>
<text text-anchor="start" x="786" y="-43.2" font-family="Helvetica,sans-Serif" font-size="11.00">6 &gt;</text>
<polygon fill="black" stroke="black" points="619,-38 619,-54 619,-54 619,-38 619,-38"/>
<polygon fill="black" stroke="black" points="718,-38 718,-54 718,-54 718,-38 718,-38"/>
</a>
</g>
</g>
<!-- cof_c_taxdetermination_hdr&#45;&gt;cof_orgst -->
<g id="edge4" class="edge">
<title>cof_c_taxdetermination_hdr:w&#45;&gt;cof_orgst:e</title>
<path fill="none" stroke="black" d="M515.87,-176.05C450.77,-218.53 548.74,-581 462,-581"/>
<polygon fill="black" stroke="black" points="522.31,-174.2 530.99,-175.46 526.15,-173.1 530,-172 530,-172 530,-172 526.15,-173.1 529.01,-168.54 522.31,-174.2 522.31,-174.2"/>
<ellipse fill="none" stroke="black" cx="519.23" cy="-175.08" rx="3.2" ry="3.2"/>
</g>
</g>
</svg>
