<?xml version="1.0" encoding="UTF-8" standalone="no"?>
<!DOCTYPE svg PUBLIC "-//W3C//DTD SVG 1.1//EN"
 "http://www.w3.org/Graphics/SVG/1.1/DTD/svg11.dtd">
<!-- Generated by graphviz version 2.43.0 (0)
 -->
<!-- Title: oneDegreeRelationshipsDiagram Pages: 1 -->
<svg width="323pt" height="357pt"
 viewBox="0.00 0.00 323.00 357.00" xmlns="http://www.w3.org/2000/svg" xmlns:xlink="http://www.w3.org/1999/xlink">
<g id="graph0" class="graph" transform="scale(1 1) rotate(0) translate(4 353)">
<title>oneDegreeRelationshipsDiagram</title>
<polygon fill="#ffffff" stroke="transparent" points="-4,4 -4,-353 319,-353 319,4 -4,4"/>
<text text-anchor="middle" x="71.5" y="-7.2" font-family="Helvetica,sans-Serif" font-size="11.00">Generated by SchemaSpy</text>
<!-- cof_cte_compl_obscont -->
<g id="node1" class="node">
<title>cof_cte_compl_obscont</title>
<g id="a_node1"><a xlink:href="../../tables/cof_cte_compl_obscont.html" xlink:title="cof_cte_compl_obscont" target="_top">
<polygon fill="#ffffff" stroke="transparent" points="8,-37 8,-345 307,-345 307,-37 8,-37"/>
<polygon fill="#f5f5f5" stroke="transparent" points="10.5,-321 10.5,-343 305.5,-343 305.5,-321 10.5,-321"/>
<polygon fill="none" stroke="black" points="10.5,-321 10.5,-343 305.5,-343 305.5,-321 10.5,-321"/>
<text text-anchor="start" x="15.5" y="-330.2" font-family="Helvetica,sans-Serif" font-weight="bold" font-size="11.00">cof_cte_compl_obscont</text>
<text text-anchor="start" x="270.5" y="-329.2" font-family="Helvetica,sans-Serif" font-size="11.00">[table]</text>
<polygon fill="none" stroke="black" points="10.5,-299 10.5,-321 222.5,-321 222.5,-299 10.5,-299"/>
<image xlink:href="../../images/primaryKeys.png" width="11px" height="12px" preserveAspectRatio="xMinYMin meet" x="15.5" y="-316"/>
<text text-anchor="start" x="30.5" y="-307.2" font-family="Helvetica,sans-Serif" font-size="11.00">cof_cte_compl_obscont_id</text>
<polygon fill="none" stroke="black" points="222.5,-299 222.5,-321 305.5,-321 305.5,-299 222.5,-299"/>
<text text-anchor="start" x="225.5" y="-307.2" font-family="Helvetica,sans-Serif" font-size="11.00">numeric[10]</text>
<polygon fill="none" stroke="black" points="10.5,-277 10.5,-299 222.5,-299 222.5,-277 10.5,-277"/>
<text text-anchor="start" x="30.5" y="-285.2" font-family="Helvetica,sans-Serif" font-size="11.00">ad_client_id</text>
<polygon fill="none" stroke="black" points="222.5,-277 222.5,-299 305.5,-299 305.5,-277 222.5,-277"/>
<text text-anchor="start" x="225.5" y="-285.2" font-family="Helvetica,sans-Serif" font-size="11.00">numeric[10]</text>
<polygon fill="none" stroke="black" points="10.5,-255 10.5,-277 222.5,-277 222.5,-255 10.5,-255"/>
<text text-anchor="start" x="30.5" y="-263.2" font-family="Helvetica,sans-Serif" font-size="11.00">ad_org_id</text>
<polygon fill="none" stroke="black" points="222.5,-255 222.5,-277 305.5,-277 305.5,-255 222.5,-255"/>
<text text-anchor="start" x="225.5" y="-263.2" font-family="Helvetica,sans-Serif" font-size="11.00">numeric[10]</text>
<polygon fill="none" stroke="black" points="10.5,-233 10.5,-255 222.5,-255 222.5,-233 10.5,-233"/>
<text text-anchor="start" x="30.5" y="-241.2" font-family="Helvetica,sans-Serif" font-size="11.00">isactive</text>
<polygon fill="none" stroke="black" points="222.5,-233 222.5,-255 305.5,-255 305.5,-233 222.5,-233"/>
<text text-anchor="start" x="225.5" y="-241.2" font-family="Helvetica,sans-Serif" font-size="11.00">bpchar[1]</text>
<polygon fill="none" stroke="black" points="10.5,-211 10.5,-233 222.5,-233 222.5,-211 10.5,-211"/>
<text text-anchor="start" x="30.5" y="-219.2" font-family="Helvetica,sans-Serif" font-size="11.00">created</text>
<polygon fill="none" stroke="black" points="222.5,-211 222.5,-233 305.5,-233 305.5,-211 222.5,-211"/>
<text text-anchor="start" x="225.5" y="-219.2" font-family="Helvetica,sans-Serif" font-size="11.00">timestamp[29,6]</text>
<polygon fill="none" stroke="black" points="10.5,-189 10.5,-211 222.5,-211 222.5,-189 10.5,-189"/>
<text text-anchor="start" x="30.5" y="-197.2" font-family="Helvetica,sans-Serif" font-size="11.00">createdby</text>
<polygon fill="none" stroke="black" points="222.5,-189 222.5,-211 305.5,-211 305.5,-189 222.5,-189"/>
<text text-anchor="start" x="225.5" y="-197.2" font-family="Helvetica,sans-Serif" font-size="11.00">numeric[10]</text>
<polygon fill="none" stroke="black" points="10.5,-167 10.5,-189 222.5,-189 222.5,-167 10.5,-167"/>
<text text-anchor="start" x="30.5" y="-175.2" font-family="Helvetica,sans-Serif" font-size="11.00">updated</text>
<polygon fill="none" stroke="black" points="222.5,-167 222.5,-189 305.5,-189 305.5,-167 222.5,-167"/>
<text text-anchor="start" x="225.5" y="-175.2" font-family="Helvetica,sans-Serif" font-size="11.00">timestamp[29,6]</text>
<polygon fill="none" stroke="black" points="10.5,-145 10.5,-167 222.5,-167 222.5,-145 10.5,-145"/>
<text text-anchor="start" x="30.5" y="-153.2" font-family="Helvetica,sans-Serif" font-size="11.00">updatedby</text>
<polygon fill="none" stroke="black" points="222.5,-145 222.5,-167 305.5,-167 305.5,-145 222.5,-145"/>
<text text-anchor="start" x="225.5" y="-153.2" font-family="Helvetica,sans-Serif" font-size="11.00">numeric[10]</text>
<polygon fill="none" stroke="black" points="10.5,-123 10.5,-145 222.5,-145 222.5,-123 10.5,-123"/>
<text text-anchor="start" x="30.5" y="-131.2" font-family="Helvetica,sans-Serif" font-size="11.00">compl_obscont_xcampo</text>
<polygon fill="none" stroke="black" points="222.5,-123 222.5,-145 305.5,-145 305.5,-123 222.5,-123"/>
<text text-anchor="start" x="225.5" y="-131.2" font-family="Helvetica,sans-Serif" font-size="11.00">varchar[20]</text>
<polygon fill="none" stroke="black" points="10.5,-101 10.5,-123 222.5,-123 222.5,-101 10.5,-101"/>
<text text-anchor="start" x="30.5" y="-109.2" font-family="Helvetica,sans-Serif" font-size="11.00">compl_obscont_xtexto</text>
<polygon fill="none" stroke="black" points="222.5,-101 222.5,-123 305.5,-123 305.5,-101 222.5,-101"/>
<text text-anchor="start" x="225.5" y="-109.2" font-family="Helvetica,sans-Serif" font-size="11.00">varchar[160]</text>
<polygon fill="none" stroke="black" points="10.5,-79 10.5,-101 222.5,-101 222.5,-79 10.5,-79"/>
<text text-anchor="start" x="30.5" y="-87.2" font-family="Helvetica,sans-Serif" font-size="11.00">cof_cte_id</text>
<polygon fill="none" stroke="black" points="222.5,-79 222.5,-101 305.5,-101 305.5,-79 222.5,-79"/>
<text text-anchor="start" x="225.5" y="-87.2" font-family="Helvetica,sans-Serif" font-size="11.00">numeric[10]</text>
<polygon fill="#ffffff" stroke="transparent" points="10.5,-57 10.5,-79 222.5,-79 222.5,-57 10.5,-57"/>
<polygon fill="none" stroke="black" points="10.5,-57 10.5,-79 222.5,-79 222.5,-57 10.5,-57"/>
<text text-anchor="start" x="30.5" y="-65.2" font-family="Helvetica,sans-Serif" font-size="11.00">cof_cte_compl_obscont_uu</text>
<polygon fill="none" stroke="black" points="222.5,-57 222.5,-79 305.5,-79 305.5,-57 222.5,-57"/>
<text text-anchor="start" x="225.5" y="-65.2" font-family="Helvetica,sans-Serif" font-size="11.00">varchar[36]</text>
<polygon fill="#ffffff" stroke="transparent" points="10.5,-39 10.5,-57 305.5,-57 305.5,-39 10.5,-39"/>
<polygon fill="none" stroke="black" points="10.5,-39 10.5,-57 305.5,-57 305.5,-39 10.5,-39"/>
<polygon fill="#ffffff" stroke="transparent" points="11.5,-40 11.5,-56 112.5,-56 112.5,-40 11.5,-40"/>
<text text-anchor="start" x="13.5" y="-45.2" font-family="Helvetica,sans-Serif" font-size="11.00">&lt; 0</text>
<polygon fill="#ffffff" stroke="transparent" points="112.5,-40 112.5,-56 204.5,-56 204.5,-40 112.5,-40"/>
<text text-anchor="start" x="155" y="-45.2" font-family="Helvetica,sans-Serif" font-size="11.00"> &#160;</text>
<polygon fill="#ffffff" stroke="transparent" points="204.5,-40 204.5,-56 304.5,-56 304.5,-40 204.5,-40"/>
<text text-anchor="start" x="286.5" y="-45.2" font-family="Helvetica,sans-Serif" font-size="11.00">0 &gt;</text>
<polygon fill="black" stroke="black" points="112.5,-40 112.5,-56 112.5,-56 112.5,-40 112.5,-40"/>
<polygon fill="black" stroke="black" points="204.5,-40 204.5,-56 204.5,-56 204.5,-40 204.5,-40"/>
<polygon fill="none" stroke="black" stroke-width="2" points="9,-38 9,-344 306,-344 306,-38 9,-38"/>
</a>
</g>
</g>
</g>
</svg>
