<?xml version="1.0" encoding="UTF-8" standalone="no"?>
<!DOCTYPE svg PUBLIC "-//W3C//DTD SVG 1.1//EN"
 "http://www.w3.org/Graphics/SVG/1.1/DTD/svg11.dtd">
<!-- Generated by graphviz version 2.43.0 (0)
 -->
<!-- Title: oneDegreeRelationshipsDiagram Pages: 1 -->
<svg width="368pt" height="1747pt"
 viewBox="0.00 0.00 368.00 1747.00" xmlns="http://www.w3.org/2000/svg" xmlns:xlink="http://www.w3.org/1999/xlink">
<g id="graph0" class="graph" transform="scale(1 1) rotate(0) translate(4 1743)">
<title>oneDegreeRelationshipsDiagram</title>
<polygon fill="#ffffff" stroke="transparent" points="-4,4 -4,-1743 364,-1743 364,4 -4,4"/>
<text text-anchor="middle" x="71.5" y="-7.2" font-family="Helvetica,sans-Serif" font-size="11.00">Generated by SchemaSpy</text>
<!-- cof_rv_personalizacao -->
<g id="node1" class="node">
<title>cof_rv_personalizacao</title>
<g id="a_node1"><a xlink:href="../../tables/cof_rv_personalizacao.html" xlink:title="cof_rv_personalizacao" target="_top">
<polygon fill="#ffffff" stroke="transparent" points="8,-37 8,-1735 352,-1735 352,-37 8,-37"/>
<polygon fill="#f5f5f5" stroke="transparent" points="10,-1711 10,-1733 350,-1733 350,-1711 10,-1711"/>
<polygon fill="none" stroke="black" points="10,-1711 10,-1733 350,-1733 350,-1711 10,-1711"/>
<text text-anchor="start" x="15" y="-1720.2" font-family="Helvetica,sans-Serif" font-weight="bold" font-size="11.00">cof_rv_personalizacao</text>
<text text-anchor="start" x="317" y="-1719.2" font-family="Helvetica,sans-Serif" font-size="11.00">[view]</text>
<polygon fill="none" stroke="black" points="10,-1689 10,-1711 241,-1711 241,-1689 10,-1689"/>
<text text-anchor="start" x="30" y="-1697.2" font-family="Helvetica,sans-Serif" font-size="11.00">tipo</text>
<polygon fill="none" stroke="black" points="241,-1689 241,-1711 350,-1711 350,-1689 241,-1689"/>
<text text-anchor="start" x="244" y="-1697.2" font-family="Helvetica,sans-Serif" font-size="11.00">text[2147483647]</text>
<polygon fill="none" stroke="black" points="10,-1667 10,-1689 241,-1689 241,-1667 10,-1667"/>
<text text-anchor="start" x="30" y="-1675.2" font-family="Helvetica,sans-Serif" font-size="11.00">ad_client_id</text>
<polygon fill="none" stroke="black" points="241,-1667 241,-1689 350,-1689 350,-1667 241,-1667"/>
<text text-anchor="start" x="244" y="-1675.2" font-family="Helvetica,sans-Serif" font-size="11.00">numeric[10]</text>
<polygon fill="none" stroke="black" points="10,-1645 10,-1667 241,-1667 241,-1645 10,-1645"/>
<text text-anchor="start" x="30" y="-1653.2" font-family="Helvetica,sans-Serif" font-size="11.00">ad_org_id</text>
<polygon fill="none" stroke="black" points="241,-1645 241,-1667 350,-1667 350,-1645 241,-1645"/>
<text text-anchor="start" x="244" y="-1653.2" font-family="Helvetica,sans-Serif" font-size="11.00">numeric[10]</text>
<polygon fill="none" stroke="black" points="10,-1623 10,-1645 241,-1645 241,-1623 10,-1623"/>
<text text-anchor="start" x="30" y="-1631.2" font-family="Helvetica,sans-Serif" font-size="11.00">entitytype</text>
<polygon fill="none" stroke="black" points="241,-1623 241,-1645 350,-1645 350,-1623 241,-1623"/>
<text text-anchor="start" x="244" y="-1631.2" font-family="Helvetica,sans-Serif" font-size="11.00">varchar[40]</text>
<polygon fill="none" stroke="black" points="10,-1601 10,-1623 241,-1623 241,-1601 10,-1601"/>
<text text-anchor="start" x="30" y="-1609.2" font-family="Helvetica,sans-Serif" font-size="11.00">created</text>
<polygon fill="none" stroke="black" points="241,-1601 241,-1623 350,-1623 350,-1601 241,-1601"/>
<text text-anchor="start" x="244" y="-1609.2" font-family="Helvetica,sans-Serif" font-size="11.00">timestamp[29,6]</text>
<polygon fill="none" stroke="black" points="10,-1579 10,-1601 241,-1601 241,-1579 10,-1579"/>
<text text-anchor="start" x="30" y="-1587.2" font-family="Helvetica,sans-Serif" font-size="11.00">ad_field_id</text>
<polygon fill="none" stroke="black" points="241,-1579 241,-1601 350,-1601 350,-1579 241,-1579"/>
<text text-anchor="start" x="244" y="-1587.2" font-family="Helvetica,sans-Serif" font-size="11.00">numeric[0]</text>
<polygon fill="none" stroke="black" points="10,-1557 10,-1579 241,-1579 241,-1557 10,-1557"/>
<text text-anchor="start" x="30" y="-1565.2" font-family="Helvetica,sans-Serif" font-size="11.00">ad_tab_id</text>
<polygon fill="none" stroke="black" points="241,-1557 241,-1579 350,-1579 350,-1557 241,-1557"/>
<text text-anchor="start" x="244" y="-1565.2" font-family="Helvetica,sans-Serif" font-size="11.00">numeric[0]</text>
<polygon fill="none" stroke="black" points="10,-1535 10,-1557 241,-1557 241,-1535 10,-1535"/>
<text text-anchor="start" x="30" y="-1543.2" font-family="Helvetica,sans-Serif" font-size="11.00">ad_window_id</text>
<polygon fill="none" stroke="black" points="241,-1535 241,-1557 350,-1557 350,-1535 241,-1535"/>
<text text-anchor="start" x="244" y="-1543.2" font-family="Helvetica,sans-Serif" font-size="11.00">numeric[0]</text>
<polygon fill="none" stroke="black" points="10,-1513 10,-1535 241,-1535 241,-1513 10,-1513"/>
<text text-anchor="start" x="30" y="-1521.2" font-family="Helvetica,sans-Serif" font-size="11.00">ad_column_id</text>
<polygon fill="none" stroke="black" points="241,-1513 241,-1535 350,-1535 350,-1513 241,-1513"/>
<text text-anchor="start" x="244" y="-1521.2" font-family="Helvetica,sans-Serif" font-size="11.00">numeric[0]</text>
<polygon fill="none" stroke="black" points="10,-1491 10,-1513 241,-1513 241,-1491 10,-1491"/>
<text text-anchor="start" x="30" y="-1499.2" font-family="Helvetica,sans-Serif" font-size="11.00">ad_table_id</text>
<polygon fill="none" stroke="black" points="241,-1491 241,-1513 350,-1513 350,-1491 241,-1491"/>
<text text-anchor="start" x="244" y="-1499.2" font-family="Helvetica,sans-Serif" font-size="11.00">numeric[0]</text>
<polygon fill="none" stroke="black" points="10,-1469 10,-1491 241,-1491 241,-1469 10,-1469"/>
<text text-anchor="start" x="30" y="-1477.2" font-family="Helvetica,sans-Serif" font-size="11.00">ad_process_id</text>
<polygon fill="none" stroke="black" points="241,-1469 241,-1491 350,-1491 350,-1469 241,-1469"/>
<text text-anchor="start" x="244" y="-1477.2" font-family="Helvetica,sans-Serif" font-size="11.00">numeric[0]</text>
<polygon fill="none" stroke="black" points="10,-1447 10,-1469 241,-1469 241,-1447 10,-1447"/>
<text text-anchor="start" x="30" y="-1455.2" font-family="Helvetica,sans-Serif" font-size="11.00">ad_infowindow_id</text>
<polygon fill="none" stroke="black" points="241,-1447 241,-1469 350,-1469 350,-1447 241,-1447"/>
<text text-anchor="start" x="244" y="-1455.2" font-family="Helvetica,sans-Serif" font-size="11.00">numeric[0]</text>
<polygon fill="none" stroke="black" points="10,-1425 10,-1447 241,-1447 241,-1425 10,-1425"/>
<text text-anchor="start" x="30" y="-1433.2" font-family="Helvetica,sans-Serif" font-size="11.00">ad_menu_id</text>
<polygon fill="none" stroke="black" points="241,-1425 241,-1447 350,-1447 350,-1425 241,-1425"/>
<text text-anchor="start" x="244" y="-1433.2" font-family="Helvetica,sans-Serif" font-size="11.00">numeric[0]</text>
<polygon fill="none" stroke="black" points="10,-1403 10,-1425 241,-1425 241,-1403 10,-1403"/>
<text text-anchor="start" x="30" y="-1411.2" font-family="Helvetica,sans-Serif" font-size="11.00">ad_process_value</text>
<polygon fill="none" stroke="black" points="241,-1403 241,-1425 350,-1425 350,-1403 241,-1403"/>
<text text-anchor="start" x="244" y="-1411.2" font-family="Helvetica,sans-Serif" font-size="11.00">text[2147483647]</text>
<polygon fill="none" stroke="black" points="10,-1381 10,-1403 241,-1403 241,-1381 10,-1381"/>
<text text-anchor="start" x="30" y="-1389.2" font-family="Helvetica,sans-Serif" font-size="11.00">ad_process_name</text>
<polygon fill="none" stroke="black" points="241,-1381 241,-1403 350,-1403 350,-1381 241,-1381"/>
<text text-anchor="start" x="244" y="-1389.2" font-family="Helvetica,sans-Serif" font-size="11.00">text[2147483647]</text>
<polygon fill="none" stroke="black" points="10,-1359 10,-1381 241,-1381 241,-1359 10,-1359"/>
<text text-anchor="start" x="30" y="-1367.2" font-family="Helvetica,sans-Serif" font-size="11.00">ad_process_description</text>
<polygon fill="none" stroke="black" points="241,-1359 241,-1381 350,-1381 350,-1359 241,-1359"/>
<text text-anchor="start" x="244" y="-1367.2" font-family="Helvetica,sans-Serif" font-size="11.00">text[2147483647]</text>
<polygon fill="none" stroke="black" points="10,-1337 10,-1359 241,-1359 241,-1337 10,-1337"/>
<text text-anchor="start" x="30" y="-1345.2" font-family="Helvetica,sans-Serif" font-size="11.00">ad_process_help</text>
<polygon fill="none" stroke="black" points="241,-1337 241,-1359 350,-1359 350,-1337 241,-1337"/>
<text text-anchor="start" x="244" y="-1345.2" font-family="Helvetica,sans-Serif" font-size="11.00">text[2147483647]</text>
<polygon fill="none" stroke="black" points="10,-1315 10,-1337 241,-1337 241,-1315 10,-1315"/>
<text text-anchor="start" x="30" y="-1323.2" font-family="Helvetica,sans-Serif" font-size="11.00">ad_process_created</text>
<polygon fill="none" stroke="black" points="241,-1315 241,-1337 350,-1337 350,-1315 241,-1315"/>
<text text-anchor="start" x="244" y="-1323.2" font-family="Helvetica,sans-Serif" font-size="11.00">timestamp[29,6]</text>
<polygon fill="none" stroke="black" points="10,-1293 10,-1315 241,-1315 241,-1293 10,-1293"/>
<text text-anchor="start" x="30" y="-1301.2" font-family="Helvetica,sans-Serif" font-size="11.00">ad_process_entitytype</text>
<polygon fill="none" stroke="black" points="241,-1293 241,-1315 350,-1315 350,-1293 241,-1293"/>
<text text-anchor="start" x="244" y="-1301.2" font-family="Helvetica,sans-Serif" font-size="11.00">text[2147483647]</text>
<polygon fill="none" stroke="black" points="10,-1271 10,-1293 241,-1293 241,-1271 10,-1271"/>
<text text-anchor="start" x="30" y="-1279.2" font-family="Helvetica,sans-Serif" font-size="11.00">isreport</text>
<polygon fill="none" stroke="black" points="241,-1271 241,-1293 350,-1293 350,-1271 241,-1271"/>
<text text-anchor="start" x="244" y="-1279.2" font-family="Helvetica,sans-Serif" font-size="11.00">text[2147483647]</text>
<polygon fill="none" stroke="black" points="10,-1249 10,-1271 241,-1271 241,-1249 10,-1249"/>
<text text-anchor="start" x="30" y="-1257.2" font-family="Helvetica,sans-Serif" font-size="11.00">jasperreport</text>
<polygon fill="none" stroke="black" points="241,-1249 241,-1271 350,-1271 350,-1249 241,-1249"/>
<text text-anchor="start" x="244" y="-1257.2" font-family="Helvetica,sans-Serif" font-size="11.00">text[2147483647]</text>
<polygon fill="none" stroke="black" points="10,-1227 10,-1249 241,-1249 241,-1227 10,-1227"/>
<text text-anchor="start" x="30" y="-1235.2" font-family="Helvetica,sans-Serif" font-size="11.00">classname</text>
<polygon fill="none" stroke="black" points="241,-1227 241,-1249 350,-1249 350,-1227 241,-1227"/>
<text text-anchor="start" x="244" y="-1235.2" font-family="Helvetica,sans-Serif" font-size="11.00">text[2147483647]</text>
<polygon fill="none" stroke="black" points="10,-1205 10,-1227 241,-1227 241,-1205 10,-1205"/>
<text text-anchor="start" x="30" y="-1213.2" font-family="Helvetica,sans-Serif" font-size="11.00">ad_reportview_id</text>
<polygon fill="none" stroke="black" points="241,-1205 241,-1227 350,-1227 350,-1205 241,-1205"/>
<text text-anchor="start" x="244" y="-1213.2" font-family="Helvetica,sans-Serif" font-size="11.00">numeric[0]</text>
<polygon fill="none" stroke="black" points="10,-1183 10,-1205 241,-1205 241,-1183 10,-1183"/>
<text text-anchor="start" x="30" y="-1191.2" font-family="Helvetica,sans-Serif" font-size="11.00">ad_tab_name</text>
<polygon fill="none" stroke="black" points="241,-1183 241,-1205 350,-1205 350,-1183 241,-1183"/>
<text text-anchor="start" x="244" y="-1191.2" font-family="Helvetica,sans-Serif" font-size="11.00">varchar[2147483647]</text>
<polygon fill="none" stroke="black" points="10,-1161 10,-1183 241,-1183 241,-1161 10,-1161"/>
<text text-anchor="start" x="30" y="-1169.2" font-family="Helvetica,sans-Serif" font-size="11.00">ad_tab_description</text>
<polygon fill="none" stroke="black" points="241,-1161 241,-1183 350,-1183 350,-1161 241,-1161"/>
<text text-anchor="start" x="244" y="-1169.2" font-family="Helvetica,sans-Serif" font-size="11.00">varchar[2147483647]</text>
<polygon fill="none" stroke="black" points="10,-1139 10,-1161 241,-1161 241,-1139 10,-1139"/>
<text text-anchor="start" x="30" y="-1147.2" font-family="Helvetica,sans-Serif" font-size="11.00">ad_tab_help</text>
<polygon fill="none" stroke="black" points="241,-1139 241,-1161 350,-1161 350,-1139 241,-1139"/>
<text text-anchor="start" x="244" y="-1147.2" font-family="Helvetica,sans-Serif" font-size="11.00">varchar[2147483647]</text>
<polygon fill="none" stroke="black" points="10,-1117 10,-1139 241,-1139 241,-1117 10,-1117"/>
<text text-anchor="start" x="30" y="-1125.2" font-family="Helvetica,sans-Serif" font-size="11.00">ad_tab_created</text>
<polygon fill="none" stroke="black" points="241,-1117 241,-1139 350,-1139 350,-1117 241,-1117"/>
<text text-anchor="start" x="244" y="-1125.2" font-family="Helvetica,sans-Serif" font-size="11.00">timestamp[29,6]</text>
<polygon fill="none" stroke="black" points="10,-1095 10,-1117 241,-1117 241,-1095 10,-1095"/>
<text text-anchor="start" x="30" y="-1103.2" font-family="Helvetica,sans-Serif" font-size="11.00">ad_tab_entitytype</text>
<polygon fill="none" stroke="black" points="241,-1095 241,-1117 350,-1117 350,-1095 241,-1095"/>
<text text-anchor="start" x="244" y="-1103.2" font-family="Helvetica,sans-Serif" font-size="11.00">varchar[2147483647]</text>
<polygon fill="none" stroke="black" points="10,-1073 10,-1095 241,-1095 241,-1073 10,-1073"/>
<text text-anchor="start" x="30" y="-1081.2" font-family="Helvetica,sans-Serif" font-size="11.00">ad_window_name</text>
<polygon fill="none" stroke="black" points="241,-1073 241,-1095 350,-1095 350,-1073 241,-1073"/>
<text text-anchor="start" x="244" y="-1081.2" font-family="Helvetica,sans-Serif" font-size="11.00">varchar[2147483647]</text>
<polygon fill="none" stroke="black" points="10,-1051 10,-1073 241,-1073 241,-1051 10,-1051"/>
<text text-anchor="start" x="30" y="-1059.2" font-family="Helvetica,sans-Serif" font-size="11.00">ad_window_description</text>
<polygon fill="none" stroke="black" points="241,-1051 241,-1073 350,-1073 350,-1051 241,-1051"/>
<text text-anchor="start" x="244" y="-1059.2" font-family="Helvetica,sans-Serif" font-size="11.00">varchar[2147483647]</text>
<polygon fill="none" stroke="black" points="10,-1029 10,-1051 241,-1051 241,-1029 10,-1029"/>
<text text-anchor="start" x="30" y="-1037.2" font-family="Helvetica,sans-Serif" font-size="11.00">ad_window_help</text>
<polygon fill="none" stroke="black" points="241,-1029 241,-1051 350,-1051 350,-1029 241,-1029"/>
<text text-anchor="start" x="244" y="-1037.2" font-family="Helvetica,sans-Serif" font-size="11.00">varchar[2147483647]</text>
<polygon fill="none" stroke="black" points="10,-1007 10,-1029 241,-1029 241,-1007 10,-1007"/>
<text text-anchor="start" x="30" y="-1015.2" font-family="Helvetica,sans-Serif" font-size="11.00">ad_window_created</text>
<polygon fill="none" stroke="black" points="241,-1007 241,-1029 350,-1029 350,-1007 241,-1007"/>
<text text-anchor="start" x="244" y="-1015.2" font-family="Helvetica,sans-Serif" font-size="11.00">timestamp[29,6]</text>
<polygon fill="none" stroke="black" points="10,-985 10,-1007 241,-1007 241,-985 10,-985"/>
<text text-anchor="start" x="30" y="-993.2" font-family="Helvetica,sans-Serif" font-size="11.00">ad_window_entitytype</text>
<polygon fill="none" stroke="black" points="241,-985 241,-1007 350,-1007 350,-985 241,-985"/>
<text text-anchor="start" x="244" y="-993.2" font-family="Helvetica,sans-Serif" font-size="11.00">varchar[2147483647]</text>
<polygon fill="none" stroke="black" points="10,-963 10,-985 241,-985 241,-963 10,-963"/>
<text text-anchor="start" x="30" y="-971.2" font-family="Helvetica,sans-Serif" font-size="11.00">tablename</text>
<polygon fill="none" stroke="black" points="241,-963 241,-985 350,-985 350,-963 241,-963"/>
<text text-anchor="start" x="244" y="-971.2" font-family="Helvetica,sans-Serif" font-size="11.00">varchar[2147483647]</text>
<polygon fill="none" stroke="black" points="10,-941 10,-963 241,-963 241,-941 10,-941"/>
<text text-anchor="start" x="30" y="-949.2" font-family="Helvetica,sans-Serif" font-size="11.00">ad_table_name</text>
<polygon fill="none" stroke="black" points="241,-941 241,-963 350,-963 350,-941 241,-941"/>
<text text-anchor="start" x="244" y="-949.2" font-family="Helvetica,sans-Serif" font-size="11.00">varchar[2147483647]</text>
<polygon fill="none" stroke="black" points="10,-919 10,-941 241,-941 241,-919 10,-919"/>
<text text-anchor="start" x="30" y="-927.2" font-family="Helvetica,sans-Serif" font-size="11.00">ad_table_description</text>
<polygon fill="none" stroke="black" points="241,-919 241,-941 350,-941 350,-919 241,-919"/>
<text text-anchor="start" x="244" y="-927.2" font-family="Helvetica,sans-Serif" font-size="11.00">varchar[2147483647]</text>
<polygon fill="none" stroke="black" points="10,-897 10,-919 241,-919 241,-897 10,-897"/>
<text text-anchor="start" x="30" y="-905.2" font-family="Helvetica,sans-Serif" font-size="11.00">ad_table_help</text>
<polygon fill="none" stroke="black" points="241,-897 241,-919 350,-919 350,-897 241,-897"/>
<text text-anchor="start" x="244" y="-905.2" font-family="Helvetica,sans-Serif" font-size="11.00">varchar[2147483647]</text>
<polygon fill="none" stroke="black" points="10,-875 10,-897 241,-897 241,-875 10,-875"/>
<text text-anchor="start" x="30" y="-883.2" font-family="Helvetica,sans-Serif" font-size="11.00">ad_table_created</text>
<polygon fill="none" stroke="black" points="241,-875 241,-897 350,-897 350,-875 241,-875"/>
<text text-anchor="start" x="244" y="-883.2" font-family="Helvetica,sans-Serif" font-size="11.00">timestamp[29,6]</text>
<polygon fill="none" stroke="black" points="10,-853 10,-875 241,-875 241,-853 10,-853"/>
<text text-anchor="start" x="30" y="-861.2" font-family="Helvetica,sans-Serif" font-size="11.00">ad_table_entitytype</text>
<polygon fill="none" stroke="black" points="241,-853 241,-875 350,-875 350,-853 241,-853"/>
<text text-anchor="start" x="244" y="-861.2" font-family="Helvetica,sans-Serif" font-size="11.00">varchar[2147483647]</text>
<polygon fill="none" stroke="black" points="10,-831 10,-853 241,-853 241,-831 10,-831"/>
<text text-anchor="start" x="30" y="-839.2" font-family="Helvetica,sans-Serif" font-size="11.00">isview</text>
<polygon fill="none" stroke="black" points="241,-831 241,-853 350,-853 350,-831 241,-831"/>
<text text-anchor="start" x="244" y="-839.2" font-family="Helvetica,sans-Serif" font-size="11.00">bpchar[2147483647]</text>
<polygon fill="none" stroke="black" points="10,-809 10,-831 241,-831 241,-809 10,-809"/>
<text text-anchor="start" x="30" y="-817.2" font-family="Helvetica,sans-Serif" font-size="11.00">columnname</text>
<polygon fill="none" stroke="black" points="241,-809 241,-831 350,-831 350,-809 241,-809"/>
<text text-anchor="start" x="244" y="-817.2" font-family="Helvetica,sans-Serif" font-size="11.00">varchar[2147483647]</text>
<polygon fill="none" stroke="black" points="10,-787 10,-809 241,-809 241,-787 10,-787"/>
<text text-anchor="start" x="30" y="-795.2" font-family="Helvetica,sans-Serif" font-size="11.00">ad_column_name</text>
<polygon fill="none" stroke="black" points="241,-787 241,-809 350,-809 350,-787 241,-787"/>
<text text-anchor="start" x="244" y="-795.2" font-family="Helvetica,sans-Serif" font-size="11.00">varchar[2147483647]</text>
<polygon fill="none" stroke="black" points="10,-765 10,-787 241,-787 241,-765 10,-765"/>
<text text-anchor="start" x="30" y="-773.2" font-family="Helvetica,sans-Serif" font-size="11.00">ad_column_description</text>
<polygon fill="none" stroke="black" points="241,-765 241,-787 350,-787 350,-765 241,-765"/>
<text text-anchor="start" x="244" y="-773.2" font-family="Helvetica,sans-Serif" font-size="11.00">varchar[2147483647]</text>
<polygon fill="none" stroke="black" points="10,-743 10,-765 241,-765 241,-743 10,-743"/>
<text text-anchor="start" x="30" y="-751.2" font-family="Helvetica,sans-Serif" font-size="11.00">ad_column_help</text>
<polygon fill="none" stroke="black" points="241,-743 241,-765 350,-765 350,-743 241,-743"/>
<text text-anchor="start" x="244" y="-751.2" font-family="Helvetica,sans-Serif" font-size="11.00">varchar[2147483647]</text>
<polygon fill="none" stroke="black" points="10,-721 10,-743 241,-743 241,-721 10,-721"/>
<text text-anchor="start" x="30" y="-729.2" font-family="Helvetica,sans-Serif" font-size="11.00">ad_column_created</text>
<polygon fill="none" stroke="black" points="241,-721 241,-743 350,-743 350,-721 241,-721"/>
<text text-anchor="start" x="244" y="-729.2" font-family="Helvetica,sans-Serif" font-size="11.00">timestamp[29,6]</text>
<polygon fill="none" stroke="black" points="10,-699 10,-721 241,-721 241,-699 10,-699"/>
<text text-anchor="start" x="30" y="-707.2" font-family="Helvetica,sans-Serif" font-size="11.00">ad_column_entitytype</text>
<polygon fill="none" stroke="black" points="241,-699 241,-721 350,-721 350,-699 241,-699"/>
<text text-anchor="start" x="244" y="-707.2" font-family="Helvetica,sans-Serif" font-size="11.00">varchar[2147483647]</text>
<polygon fill="none" stroke="black" points="10,-677 10,-699 241,-699 241,-677 10,-677"/>
<text text-anchor="start" x="30" y="-685.2" font-family="Helvetica,sans-Serif" font-size="11.00">columnsql</text>
<polygon fill="none" stroke="black" points="241,-677 241,-699 350,-699 350,-677 241,-677"/>
<text text-anchor="start" x="244" y="-685.2" font-family="Helvetica,sans-Serif" font-size="11.00">varchar[2147483647]</text>
<polygon fill="none" stroke="black" points="10,-655 10,-677 241,-677 241,-655 10,-655"/>
<text text-anchor="start" x="30" y="-663.2" font-family="Helvetica,sans-Serif" font-size="11.00">ad_process_para_name</text>
<polygon fill="none" stroke="black" points="241,-655 241,-677 350,-677 350,-655 241,-655"/>
<text text-anchor="start" x="244" y="-663.2" font-family="Helvetica,sans-Serif" font-size="11.00">text[2147483647]</text>
<polygon fill="none" stroke="black" points="10,-633 10,-655 241,-655 241,-633 10,-633"/>
<text text-anchor="start" x="30" y="-641.2" font-family="Helvetica,sans-Serif" font-size="11.00">ad_process_para_description</text>
<polygon fill="none" stroke="black" points="241,-633 241,-655 350,-655 350,-633 241,-633"/>
<text text-anchor="start" x="244" y="-641.2" font-family="Helvetica,sans-Serif" font-size="11.00">text[2147483647]</text>
<polygon fill="none" stroke="black" points="10,-611 10,-633 241,-633 241,-611 10,-611"/>
<text text-anchor="start" x="30" y="-619.2" font-family="Helvetica,sans-Serif" font-size="11.00">ad_process_para_help</text>
<polygon fill="none" stroke="black" points="241,-611 241,-633 350,-633 350,-611 241,-611"/>
<text text-anchor="start" x="244" y="-619.2" font-family="Helvetica,sans-Serif" font-size="11.00">text[2147483647]</text>
<polygon fill="none" stroke="black" points="10,-589 10,-611 241,-611 241,-589 10,-589"/>
<text text-anchor="start" x="30" y="-597.2" font-family="Helvetica,sans-Serif" font-size="11.00">ad_process_para_created</text>
<polygon fill="none" stroke="black" points="241,-589 241,-611 350,-611 350,-589 241,-589"/>
<text text-anchor="start" x="244" y="-597.2" font-family="Helvetica,sans-Serif" font-size="11.00">timestamp[29,6]</text>
<polygon fill="none" stroke="black" points="10,-567 10,-589 241,-589 241,-567 10,-567"/>
<text text-anchor="start" x="30" y="-575.2" font-family="Helvetica,sans-Serif" font-size="11.00">ad_process_para_entitytype</text>
<polygon fill="none" stroke="black" points="241,-567 241,-589 350,-589 350,-567 241,-567"/>
<text text-anchor="start" x="244" y="-575.2" font-family="Helvetica,sans-Serif" font-size="11.00">text[2147483647]</text>
<polygon fill="none" stroke="black" points="10,-545 10,-567 241,-567 241,-545 10,-545"/>
<text text-anchor="start" x="30" y="-553.2" font-family="Helvetica,sans-Serif" font-size="11.00">ad_menu_name</text>
<polygon fill="none" stroke="black" points="241,-545 241,-567 350,-567 350,-545 241,-545"/>
<text text-anchor="start" x="244" y="-553.2" font-family="Helvetica,sans-Serif" font-size="11.00">text[2147483647]</text>
<polygon fill="none" stroke="black" points="10,-523 10,-545 241,-545 241,-523 10,-523"/>
<text text-anchor="start" x="30" y="-531.2" font-family="Helvetica,sans-Serif" font-size="11.00">ad_menu_description</text>
<polygon fill="none" stroke="black" points="241,-523 241,-545 350,-545 350,-523 241,-523"/>
<text text-anchor="start" x="244" y="-531.2" font-family="Helvetica,sans-Serif" font-size="11.00">text[2147483647]</text>
<polygon fill="none" stroke="black" points="10,-501 10,-523 241,-523 241,-501 10,-501"/>
<text text-anchor="start" x="30" y="-509.2" font-family="Helvetica,sans-Serif" font-size="11.00">ad_menu_entitytype</text>
<polygon fill="none" stroke="black" points="241,-501 241,-523 350,-523 350,-501 241,-501"/>
<text text-anchor="start" x="244" y="-509.2" font-family="Helvetica,sans-Serif" font-size="11.00">text[2147483647]</text>
<polygon fill="none" stroke="black" points="10,-479 10,-501 241,-501 241,-479 10,-479"/>
<text text-anchor="start" x="30" y="-487.2" font-family="Helvetica,sans-Serif" font-size="11.00">ad_menu_created</text>
<polygon fill="none" stroke="black" points="241,-479 241,-501 350,-501 350,-479 241,-479"/>
<text text-anchor="start" x="244" y="-487.2" font-family="Helvetica,sans-Serif" font-size="11.00">timestamp[29,6]</text>
<polygon fill="none" stroke="black" points="10,-457 10,-479 241,-479 241,-457 10,-457"/>
<text text-anchor="start" x="30" y="-465.2" font-family="Helvetica,sans-Serif" font-size="11.00">ad_menu_action</text>
<polygon fill="none" stroke="black" points="241,-457 241,-479 350,-479 350,-457 241,-457"/>
<text text-anchor="start" x="244" y="-465.2" font-family="Helvetica,sans-Serif" font-size="11.00">text[2147483647]</text>
<polygon fill="none" stroke="black" points="10,-435 10,-457 241,-457 241,-435 10,-435"/>
<text text-anchor="start" x="30" y="-443.2" font-family="Helvetica,sans-Serif" font-size="11.00">ad_menu_ad_window_name</text>
<polygon fill="none" stroke="black" points="241,-435 241,-457 350,-457 350,-435 241,-435"/>
<text text-anchor="start" x="244" y="-443.2" font-family="Helvetica,sans-Serif" font-size="11.00">text[2147483647]</text>
<polygon fill="none" stroke="black" points="10,-413 10,-435 241,-435 241,-413 10,-413"/>
<text text-anchor="start" x="30" y="-421.2" font-family="Helvetica,sans-Serif" font-size="11.00">ad_menu_nomedaacao</text>
<polygon fill="none" stroke="black" points="241,-413 241,-435 350,-435 350,-413 241,-413"/>
<text text-anchor="start" x="244" y="-421.2" font-family="Helvetica,sans-Serif" font-size="11.00">text[2147483647]</text>
<polygon fill="none" stroke="black" points="10,-391 10,-413 241,-413 241,-391 10,-391"/>
<text text-anchor="start" x="30" y="-399.2" font-family="Helvetica,sans-Serif" font-size="11.00">ad_menu_entitytypeacao</text>
<polygon fill="none" stroke="black" points="241,-391 241,-413 350,-413 350,-391 241,-391"/>
<text text-anchor="start" x="244" y="-399.2" font-family="Helvetica,sans-Serif" font-size="11.00">text[2147483647]</text>
<polygon fill="none" stroke="black" points="10,-369 10,-391 241,-391 241,-369 10,-369"/>
<text text-anchor="start" x="30" y="-377.2" font-family="Helvetica,sans-Serif" font-size="11.00">ad_field_name</text>
<polygon fill="none" stroke="black" points="241,-369 241,-391 350,-391 350,-369 241,-369"/>
<text text-anchor="start" x="244" y="-377.2" font-family="Helvetica,sans-Serif" font-size="11.00">varchar[2147483647]</text>
<polygon fill="none" stroke="black" points="10,-347 10,-369 241,-369 241,-347 10,-347"/>
<text text-anchor="start" x="30" y="-355.2" font-family="Helvetica,sans-Serif" font-size="11.00">ad_field_description</text>
<polygon fill="none" stroke="black" points="241,-347 241,-369 350,-369 350,-347 241,-347"/>
<text text-anchor="start" x="244" y="-355.2" font-family="Helvetica,sans-Serif" font-size="11.00">varchar[2147483647]</text>
<polygon fill="none" stroke="black" points="10,-325 10,-347 241,-347 241,-325 10,-325"/>
<text text-anchor="start" x="30" y="-333.2" font-family="Helvetica,sans-Serif" font-size="11.00">ad_field_help</text>
<polygon fill="none" stroke="black" points="241,-325 241,-347 350,-347 350,-325 241,-325"/>
<text text-anchor="start" x="244" y="-333.2" font-family="Helvetica,sans-Serif" font-size="11.00">varchar[2147483647]</text>
<polygon fill="none" stroke="black" points="10,-303 10,-325 241,-325 241,-303 10,-303"/>
<text text-anchor="start" x="30" y="-311.2" font-family="Helvetica,sans-Serif" font-size="11.00">ad_field_created</text>
<polygon fill="none" stroke="black" points="241,-303 241,-325 350,-325 350,-303 241,-303"/>
<text text-anchor="start" x="244" y="-311.2" font-family="Helvetica,sans-Serif" font-size="11.00">timestamp[29,6]</text>
<polygon fill="none" stroke="black" points="10,-281 10,-303 241,-303 241,-281 10,-281"/>
<text text-anchor="start" x="30" y="-289.2" font-family="Helvetica,sans-Serif" font-size="11.00">ad_field_entitytype</text>
<polygon fill="none" stroke="black" points="241,-281 241,-303 350,-303 350,-281 241,-281"/>
<text text-anchor="start" x="244" y="-289.2" font-family="Helvetica,sans-Serif" font-size="11.00">varchar[2147483647]</text>
<polygon fill="none" stroke="black" points="10,-259 10,-281 241,-281 241,-259 10,-259"/>
<text text-anchor="start" x="30" y="-267.2" font-family="Helvetica,sans-Serif" font-size="11.00">ad_infowindow_name</text>
<polygon fill="none" stroke="black" points="241,-259 241,-281 350,-281 350,-259 241,-259"/>
<text text-anchor="start" x="244" y="-267.2" font-family="Helvetica,sans-Serif" font-size="11.00">text[2147483647]</text>
<polygon fill="none" stroke="black" points="10,-237 10,-259 241,-259 241,-237 10,-237"/>
<text text-anchor="start" x="30" y="-245.2" font-family="Helvetica,sans-Serif" font-size="11.00">ad_infowindow_description</text>
<polygon fill="none" stroke="black" points="241,-237 241,-259 350,-259 350,-237 241,-237"/>
<text text-anchor="start" x="244" y="-245.2" font-family="Helvetica,sans-Serif" font-size="11.00">text[2147483647]</text>
<polygon fill="none" stroke="black" points="10,-215 10,-237 241,-237 241,-215 10,-215"/>
<text text-anchor="start" x="30" y="-223.2" font-family="Helvetica,sans-Serif" font-size="11.00">ad_infowindow_help</text>
<polygon fill="none" stroke="black" points="241,-215 241,-237 350,-237 350,-215 241,-215"/>
<text text-anchor="start" x="244" y="-223.2" font-family="Helvetica,sans-Serif" font-size="11.00">text[2147483647]</text>
<polygon fill="none" stroke="black" points="10,-193 10,-215 241,-215 241,-193 10,-193"/>
<text text-anchor="start" x="30" y="-201.2" font-family="Helvetica,sans-Serif" font-size="11.00">ad_infowindow_created</text>
<polygon fill="none" stroke="black" points="241,-193 241,-215 350,-215 350,-193 241,-193"/>
<text text-anchor="start" x="244" y="-201.2" font-family="Helvetica,sans-Serif" font-size="11.00">timestamp[29,6]</text>
<polygon fill="none" stroke="black" points="10,-171 10,-193 241,-193 241,-171 10,-171"/>
<text text-anchor="start" x="30" y="-179.2" font-family="Helvetica,sans-Serif" font-size="11.00">ad_infowindow_entitytype</text>
<polygon fill="none" stroke="black" points="241,-171 241,-193 350,-193 350,-171 241,-171"/>
<text text-anchor="start" x="244" y="-179.2" font-family="Helvetica,sans-Serif" font-size="11.00">text[2147483647]</text>
<polygon fill="none" stroke="black" points="10,-149 10,-171 241,-171 241,-149 10,-149"/>
<text text-anchor="start" x="30" y="-157.2" font-family="Helvetica,sans-Serif" font-size="11.00">ad_infocolumn_selectclause</text>
<polygon fill="none" stroke="black" points="241,-149 241,-171 350,-171 350,-149 241,-149"/>
<text text-anchor="start" x="244" y="-157.2" font-family="Helvetica,sans-Serif" font-size="11.00">text[2147483647]</text>
<polygon fill="none" stroke="black" points="10,-127 10,-149 241,-149 241,-127 10,-127"/>
<text text-anchor="start" x="30" y="-135.2" font-family="Helvetica,sans-Serif" font-size="11.00">ad_infocolumn_columnname</text>
<polygon fill="none" stroke="black" points="241,-127 241,-149 350,-149 350,-127 241,-127"/>
<text text-anchor="start" x="244" y="-135.2" font-family="Helvetica,sans-Serif" font-size="11.00">text[2147483647]</text>
<polygon fill="none" stroke="black" points="10,-105 10,-127 241,-127 241,-105 10,-105"/>
<text text-anchor="start" x="30" y="-113.2" font-family="Helvetica,sans-Serif" font-size="11.00">ad_infocolumn_description</text>
<polygon fill="none" stroke="black" points="241,-105 241,-127 350,-127 350,-105 241,-105"/>
<text text-anchor="start" x="244" y="-113.2" font-family="Helvetica,sans-Serif" font-size="11.00">text[2147483647]</text>
<polygon fill="none" stroke="black" points="10,-83 10,-105 241,-105 241,-83 10,-83"/>
<text text-anchor="start" x="30" y="-91.2" font-family="Helvetica,sans-Serif" font-size="11.00">ad_infocolumn_help</text>
<polygon fill="none" stroke="black" points="241,-83 241,-105 350,-105 350,-83 241,-83"/>
<text text-anchor="start" x="244" y="-91.2" font-family="Helvetica,sans-Serif" font-size="11.00">text[2147483647]</text>
<polygon fill="none" stroke="black" points="10,-61 10,-83 241,-83 241,-61 10,-61"/>
<text text-anchor="start" x="30" y="-69.2" font-family="Helvetica,sans-Serif" font-size="11.00">ad_infocolumn_created</text>
<polygon fill="none" stroke="black" points="241,-61 241,-83 350,-83 350,-61 241,-61"/>
<text text-anchor="start" x="244" y="-69.2" font-family="Helvetica,sans-Serif" font-size="11.00">timestamp[29,6]</text>
<polygon fill="none" stroke="black" points="10,-39 10,-61 241,-61 241,-39 10,-39"/>
<text text-anchor="start" x="30" y="-47.2" font-family="Helvetica,sans-Serif" font-size="11.00">ad_infocolumn_entitytype</text>
<polygon fill="none" stroke="black" points="241,-39 241,-61 350,-61 350,-39 241,-39"/>
<text text-anchor="start" x="244" y="-47.2" font-family="Helvetica,sans-Serif" font-size="11.00">text[2147483647]</text>
<polygon fill="none" stroke="black" stroke-width="2" points="9,-38 9,-1734 351,-1734 351,-38 9,-38"/>
</a>
</g>
</g>
</g>
</svg>
