<?xml version="1.0" encoding="UTF-8" standalone="no"?>
<!DOCTYPE svg PUBLIC "-//W3C//DTD SVG 1.1//EN"
 "http://www.w3.org/Graphics/SVG/1.1/DTD/svg11.dtd">
<!-- Generated by graphviz version 2.43.0 (0)
 -->
<!-- Title: oneDegreeRelationshipsDiagram Pages: 1 -->
<svg width="654pt" height="685pt"
 viewBox="0.00 0.00 654.00 685.00" xmlns="http://www.w3.org/2000/svg" xmlns:xlink="http://www.w3.org/1999/xlink">
<g id="graph0" class="graph" transform="scale(1 1) rotate(0) translate(4 681)">
<title>oneDegreeRelationshipsDiagram</title>
<polygon fill="#ffffff" stroke="transparent" points="-4,4 -4,-681 650,-681 650,4 -4,4"/>
<text text-anchor="middle" x="71.5" y="-7.2" font-family="Helvetica,sans-Serif" font-size="11.00">Generated by SchemaSpy</text>
<!-- cof_rps -->
<g id="node1" class="node">
<title>cof_rps</title>
<g id="a_node1"><a xlink:href="../../tables/cof_rps.html" xlink:title="cof_rps" target="_top">
<polygon fill="#ffffff" stroke="transparent" points="352,-241 352,-673 638,-673 638,-241 352,-241"/>
<polygon fill="#f5f5f5" stroke="transparent" points="352,-651 352,-673 638,-673 638,-651 352,-651"/>
<polygon fill="none" stroke="black" points="352,-651 352,-673 638,-673 638,-651 352,-651"/>
<text text-anchor="start" x="357" y="-660.2" font-family="Helvetica,sans-Serif" font-weight="bold" font-size="11.00">cof_rps</text>
<text text-anchor="start" x="603" y="-659.2" font-family="Helvetica,sans-Serif" font-size="11.00">[table]</text>
<polygon fill="none" stroke="black" points="352,-629 352,-651 638,-651 638,-629 352,-629"/>
<image xlink:href="../../images/primaryKeys.png" width="11px" height="12px" preserveAspectRatio="xMinYMin meet" x="357" y="-646"/>
<text text-anchor="start" x="372" y="-637.2" font-family="Helvetica,sans-Serif" font-size="11.00">cof_rps_id</text>
<polygon fill="none" stroke="black" points="352,-607 352,-629 638,-629 638,-607 352,-607"/>
<image xlink:href="../../images/foreignKeys.png" width="11px" height="12px" preserveAspectRatio="xMinYMin meet" x="357" y="-624"/>
<text text-anchor="start" x="372" y="-615.2" font-family="Helvetica,sans-Serif" font-size="11.00">ad_org_id</text>
<polygon fill="#ffffff" stroke="transparent" points="352,-585 352,-607 638,-607 638,-585 352,-585"/>
<polygon fill="none" stroke="black" points="352,-585 352,-607 638,-607 638,-585 352,-585"/>
<text text-anchor="start" x="372" y="-593.2" font-family="Helvetica,sans-Serif" font-size="11.00">cof_rps_uu</text>
<polygon fill="none" stroke="black" points="352,-563 352,-585 638,-585 638,-563 352,-563"/>
<image xlink:href="../../images/foreignKeys.png" width="11px" height="12px" preserveAspectRatio="xMinYMin meet" x="357" y="-580"/>
<text text-anchor="start" x="372" y="-571.2" font-family="Helvetica,sans-Serif" font-size="11.00">c_doctype_id</text>
<polygon fill="none" stroke="black" points="352,-541 352,-563 638,-563 638,-541 352,-541"/>
<image xlink:href="../../images/foreignKeys.png" width="11px" height="12px" preserveAspectRatio="xMinYMin meet" x="357" y="-558"/>
<text text-anchor="start" x="372" y="-549.2" font-family="Helvetica,sans-Serif" font-size="11.00">c_doctypetarget_id</text>
<polygon fill="none" stroke="black" points="352,-519 352,-541 638,-541 638,-519 352,-519"/>
<image xlink:href="../../images/foreignKeys.png" width="11px" height="12px" preserveAspectRatio="xMinYMin meet" x="357" y="-536"/>
<text text-anchor="start" x="372" y="-527.2" font-family="Helvetica,sans-Serif" font-size="11.00">cof_rps_lote_id</text>
<polygon fill="#ffffff" stroke="transparent" points="352,-497 352,-519 638,-519 638,-497 352,-497"/>
<polygon fill="none" stroke="black" points="352,-497 352,-519 638,-519 638,-497 352,-497"/>
<image xlink:href="../../images/foreignKeys.png" width="11px" height="12px" preserveAspectRatio="xMinYMin meet" x="357" y="-514"/>
<text text-anchor="start" x="372" y="-505.2" font-family="Helvetica,sans-Serif" font-size="11.00">c_invoice_id</text>
<polygon fill="#ffffff" stroke="transparent" points="352,-475 352,-497 638,-497 638,-475 352,-475"/>
<polygon fill="none" stroke="black" points="352,-475 352,-497 638,-497 638,-475 352,-475"/>
<image xlink:href="../../images/foreignKeys.png" width="11px" height="12px" preserveAspectRatio="xMinYMin meet" x="357" y="-492"/>
<text text-anchor="start" x="372" y="-483.2" font-family="Helvetica,sans-Serif" font-size="11.00">c_order_id</text>
<polygon fill="none" stroke="black" points="352,-453 352,-475 638,-475 638,-453 352,-453"/>
<image xlink:href="../../images/foreignKeys.png" width="11px" height="12px" preserveAspectRatio="xMinYMin meet" x="357" y="-470"/>
<text text-anchor="start" x="372" y="-461.2" font-family="Helvetica,sans-Serif" font-size="11.00">c_currency_id</text>
<polygon fill="none" stroke="black" points="352,-431 352,-453 638,-453 638,-431 352,-431"/>
<image xlink:href="../../images/foreignKeys.png" width="11px" height="12px" preserveAspectRatio="xMinYMin meet" x="357" y="-448"/>
<text text-anchor="start" x="372" y="-439.2" font-family="Helvetica,sans-Serif" font-size="11.00">c_paymentterm_id</text>
<polygon fill="none" stroke="black" points="352,-409 352,-431 638,-431 638,-409 352,-409"/>
<image xlink:href="../../images/foreignKeys.png" width="11px" height="12px" preserveAspectRatio="xMinYMin meet" x="357" y="-426"/>
<text text-anchor="start" x="372" y="-417.2" font-family="Helvetica,sans-Serif" font-size="11.00">m_pricelist_id</text>
<polygon fill="none" stroke="black" points="352,-387 352,-409 638,-409 638,-387 352,-387"/>
<image xlink:href="../../images/foreignKeys.png" width="11px" height="12px" preserveAspectRatio="xMinYMin meet" x="357" y="-404"/>
<text text-anchor="start" x="372" y="-395.2" font-family="Helvetica,sans-Serif" font-size="11.00">org_location_id</text>
<polygon fill="none" stroke="black" points="352,-365 352,-387 638,-387 638,-365 352,-365"/>
<image xlink:href="../../images/foreignKeys.png" width="11px" height="12px" preserveAspectRatio="xMinYMin meet" x="357" y="-382"/>
<text text-anchor="start" x="372" y="-373.2" font-family="Helvetica,sans-Serif" font-size="11.00">dest_bpartner_id</text>
<polygon fill="none" stroke="black" points="352,-343 352,-365 638,-365 638,-343 352,-343"/>
<image xlink:href="../../images/foreignKeys.png" width="11px" height="12px" preserveAspectRatio="xMinYMin meet" x="357" y="-360"/>
<text text-anchor="start" x="372" y="-351.2" font-family="Helvetica,sans-Serif" font-size="11.00">dest_city_id</text>
<polygon fill="none" stroke="black" points="352,-321 352,-343 638,-343 638,-321 352,-321"/>
<image xlink:href="../../images/foreignKeys.png" width="11px" height="12px" preserveAspectRatio="xMinYMin meet" x="357" y="-338"/>
<text text-anchor="start" x="372" y="-329.2" font-family="Helvetica,sans-Serif" font-size="11.00">dest_region_id</text>
<polygon fill="none" stroke="black" points="352,-299 352,-321 638,-321 638,-299 352,-299"/>
<image xlink:href="../../images/foreignKeys.png" width="11px" height="12px" preserveAspectRatio="xMinYMin meet" x="357" y="-316"/>
<text text-anchor="start" x="372" y="-307.2" font-family="Helvetica,sans-Serif" font-size="11.00">dest_country_id</text>
<polygon fill="none" stroke="black" points="352,-277 352,-299 638,-299 638,-277 352,-277"/>
<image xlink:href="../../images/foreignKeys.png" width="11px" height="12px" preserveAspectRatio="xMinYMin meet" x="357" y="-294"/>
<text text-anchor="start" x="372" y="-285.2" font-family="Helvetica,sans-Serif" font-size="11.00">cof_nfsecancelamento_id</text>
<polygon fill="none" stroke="black" points="352,-259 352,-277 638,-277 638,-259 352,-259"/>
<text text-anchor="start" x="355" y="-265.2" font-family="Helvetica,sans-Serif" font-size="11.00">...</text>
<polygon fill="#ffffff" stroke="transparent" points="352,-241 352,-259 638,-259 638,-241 352,-241"/>
<polygon fill="none" stroke="black" points="352,-241 352,-259 638,-259 638,-241 352,-241"/>
<polygon fill="#ffffff" stroke="transparent" points="353,-242 353,-258 455,-258 455,-242 353,-242"/>
<text text-anchor="start" x="355" y="-247.2" font-family="Helvetica,sans-Serif" font-size="11.00">&lt; 15</text>
<polygon fill="#ffffff" stroke="transparent" points="455,-242 455,-258 542,-258 542,-242 455,-242"/>
<text text-anchor="start" x="495" y="-247.2" font-family="Helvetica,sans-Serif" font-size="11.00"> &#160;</text>
<polygon fill="#ffffff" stroke="transparent" points="542,-242 542,-258 637,-258 637,-242 542,-242"/>
<text text-anchor="start" x="619" y="-247.2" font-family="Helvetica,sans-Serif" font-size="11.00">1 &gt;</text>
<polygon fill="black" stroke="black" points="455,-242 455,-258 455,-258 455,-242 455,-242"/>
<polygon fill="black" stroke="black" points="542,-242 542,-258 542,-258 542,-242 542,-242"/>
</a>
</g>
</g>
<!-- cof_nfsecancelamento -->
<g id="node2" class="node">
<title>cof_nfsecancelamento</title>
<g id="a_node2"><a xlink:href="../../tables/cof_nfsecancelamento.html" xlink:title="cof_nfsecancelamento" target="_top">
<polygon fill="#ffffff" stroke="transparent" points="8,-37 8,-323 303,-323 303,-37 8,-37"/>
<polygon fill="#f5f5f5" stroke="transparent" points="10.5,-299 10.5,-321 301.5,-321 301.5,-299 10.5,-299"/>
<polygon fill="none" stroke="black" points="10.5,-299 10.5,-321 301.5,-321 301.5,-299 10.5,-299"/>
<text text-anchor="start" x="15.5" y="-308.2" font-family="Helvetica,sans-Serif" font-weight="bold" font-size="11.00">cof_nfsecancelamento</text>
<text text-anchor="start" x="266.5" y="-307.2" font-family="Helvetica,sans-Serif" font-size="11.00">[table]</text>
<polygon fill="none" stroke="black" points="10.5,-277 10.5,-299 218.5,-299 218.5,-277 10.5,-277"/>
<image xlink:href="../../images/primaryKeys.png" width="11px" height="12px" preserveAspectRatio="xMinYMin meet" x="15.5" y="-294"/>
<text text-anchor="start" x="30.5" y="-285.2" font-family="Helvetica,sans-Serif" font-size="11.00">cof_nfsecancelamento_id</text>
<polygon fill="none" stroke="black" points="218.5,-277 218.5,-299 301.5,-299 301.5,-277 218.5,-277"/>
<text text-anchor="start" x="221.5" y="-285.2" font-family="Helvetica,sans-Serif" font-size="11.00">numeric[10]</text>
<polygon fill="#ffffff" stroke="transparent" points="10.5,-255 10.5,-277 218.5,-277 218.5,-255 10.5,-255"/>
<polygon fill="none" stroke="black" points="10.5,-255 10.5,-277 218.5,-277 218.5,-255 10.5,-255"/>
<text text-anchor="start" x="30.5" y="-263.2" font-family="Helvetica,sans-Serif" font-size="11.00">cof_nfsecancelamento_uu</text>
<polygon fill="none" stroke="black" points="218.5,-255 218.5,-277 301.5,-277 301.5,-255 218.5,-255"/>
<text text-anchor="start" x="221.5" y="-263.2" font-family="Helvetica,sans-Serif" font-size="11.00">varchar[36]</text>
<polygon fill="none" stroke="black" points="10.5,-233 10.5,-255 218.5,-255 218.5,-233 10.5,-233"/>
<text text-anchor="start" x="30.5" y="-241.2" font-family="Helvetica,sans-Serif" font-size="11.00">ad_client_id</text>
<polygon fill="none" stroke="black" points="218.5,-233 218.5,-255 301.5,-255 301.5,-233 218.5,-233"/>
<text text-anchor="start" x="221.5" y="-241.2" font-family="Helvetica,sans-Serif" font-size="11.00">numeric[10]</text>
<polygon fill="none" stroke="black" points="10.5,-211 10.5,-233 218.5,-233 218.5,-211 10.5,-211"/>
<text text-anchor="start" x="30.5" y="-219.2" font-family="Helvetica,sans-Serif" font-size="11.00">ad_org_id</text>
<polygon fill="none" stroke="black" points="218.5,-211 218.5,-233 301.5,-233 301.5,-211 218.5,-211"/>
<text text-anchor="start" x="221.5" y="-219.2" font-family="Helvetica,sans-Serif" font-size="11.00">numeric[10]</text>
<polygon fill="none" stroke="black" points="10.5,-189 10.5,-211 218.5,-211 218.5,-189 10.5,-189"/>
<text text-anchor="start" x="30.5" y="-197.2" font-family="Helvetica,sans-Serif" font-size="11.00">isactive</text>
<polygon fill="none" stroke="black" points="218.5,-189 218.5,-211 301.5,-211 301.5,-189 218.5,-189"/>
<text text-anchor="start" x="221.5" y="-197.2" font-family="Helvetica,sans-Serif" font-size="11.00">bpchar[1]</text>
<polygon fill="none" stroke="black" points="10.5,-167 10.5,-189 218.5,-189 218.5,-167 10.5,-167"/>
<text text-anchor="start" x="30.5" y="-175.2" font-family="Helvetica,sans-Serif" font-size="11.00">created</text>
<polygon fill="none" stroke="black" points="218.5,-167 218.5,-189 301.5,-189 301.5,-167 218.5,-167"/>
<text text-anchor="start" x="221.5" y="-175.2" font-family="Helvetica,sans-Serif" font-size="11.00">timestamp[29,6]</text>
<polygon fill="none" stroke="black" points="10.5,-145 10.5,-167 218.5,-167 218.5,-145 10.5,-145"/>
<text text-anchor="start" x="30.5" y="-153.2" font-family="Helvetica,sans-Serif" font-size="11.00">createdby</text>
<polygon fill="none" stroke="black" points="218.5,-145 218.5,-167 301.5,-167 301.5,-145 218.5,-145"/>
<text text-anchor="start" x="221.5" y="-153.2" font-family="Helvetica,sans-Serif" font-size="11.00">numeric[10]</text>
<polygon fill="none" stroke="black" points="10.5,-123 10.5,-145 218.5,-145 218.5,-123 10.5,-123"/>
<text text-anchor="start" x="30.5" y="-131.2" font-family="Helvetica,sans-Serif" font-size="11.00">updated</text>
<polygon fill="none" stroke="black" points="218.5,-123 218.5,-145 301.5,-145 301.5,-123 218.5,-123"/>
<text text-anchor="start" x="221.5" y="-131.2" font-family="Helvetica,sans-Serif" font-size="11.00">timestamp[29,6]</text>
<polygon fill="none" stroke="black" points="10.5,-101 10.5,-123 218.5,-123 218.5,-101 10.5,-101"/>
<text text-anchor="start" x="30.5" y="-109.2" font-family="Helvetica,sans-Serif" font-size="11.00">updatedby</text>
<polygon fill="none" stroke="black" points="218.5,-101 218.5,-123 301.5,-123 301.5,-101 218.5,-101"/>
<text text-anchor="start" x="221.5" y="-109.2" font-family="Helvetica,sans-Serif" font-size="11.00">numeric[10]</text>
<polygon fill="none" stroke="black" points="10.5,-79 10.5,-101 218.5,-101 218.5,-79 10.5,-79"/>
<text text-anchor="start" x="30.5" y="-87.2" font-family="Helvetica,sans-Serif" font-size="11.00">value</text>
<polygon fill="none" stroke="black" points="218.5,-79 218.5,-101 301.5,-101 301.5,-79 218.5,-79"/>
<text text-anchor="start" x="221.5" y="-87.2" font-family="Helvetica,sans-Serif" font-size="11.00">varchar[40]</text>
<polygon fill="none" stroke="black" points="10.5,-57 10.5,-79 218.5,-79 218.5,-57 10.5,-57"/>
<text text-anchor="start" x="30.5" y="-65.2" font-family="Helvetica,sans-Serif" font-size="11.00">name</text>
<polygon fill="none" stroke="black" points="218.5,-57 218.5,-79 301.5,-79 301.5,-57 218.5,-57"/>
<text text-anchor="start" x="221.5" y="-65.2" font-family="Helvetica,sans-Serif" font-size="11.00">varchar[60]</text>
<polygon fill="#ffffff" stroke="transparent" points="10.5,-39 10.5,-57 301.5,-57 301.5,-39 10.5,-39"/>
<polygon fill="none" stroke="black" points="10.5,-39 10.5,-57 301.5,-57 301.5,-39 10.5,-39"/>
<polygon fill="#ffffff" stroke="transparent" points="11.5,-40 11.5,-56 102.5,-56 102.5,-40 11.5,-40"/>
<text text-anchor="start" x="13.5" y="-45.2" font-family="Helvetica,sans-Serif" font-size="11.00">&lt; 0</text>
<polygon fill="#ffffff" stroke="transparent" points="102.5,-40 102.5,-56 210.5,-56 210.5,-40 102.5,-40"/>
<text text-anchor="start" x="140" y="-45.2" font-family="Helvetica,sans-Serif" font-size="11.00">6 rows</text>
<polygon fill="#ffffff" stroke="transparent" points="210.5,-40 210.5,-56 300.5,-56 300.5,-40 210.5,-40"/>
<text text-anchor="start" x="282.5" y="-45.2" font-family="Helvetica,sans-Serif" font-size="11.00">1 &gt;</text>
<polygon fill="black" stroke="black" points="102.5,-40 102.5,-56 102.5,-56 102.5,-40 102.5,-40"/>
<polygon fill="black" stroke="black" points="210.5,-40 210.5,-56 210.5,-56 210.5,-40 210.5,-40"/>
<polygon fill="none" stroke="black" stroke-width="2" points="9,-38 9,-322 302,-322 302,-38 9,-38"/>
</a>
</g>
</g>
<!-- cof_rps&#45;&gt;cof_nfsecancelamento -->
<g id="edge1" class="edge">
<title>cof_rps:w&#45;&gt;cof_nfsecancelamento:e</title>
<path fill="none" stroke="black" d="M336.28,-288C325.29,-288 318.16,-288 302.5,-288"/>
<polygon fill="black" stroke="black" points="343,-288 351,-291.6 347,-288 351,-288 351,-288 351,-288 347,-288 351,-284.4 343,-288 343,-288"/>
<ellipse fill="none" stroke="black" cx="339.8" cy="-288" rx="3.2" ry="3.2"/>
</g>
</g>
</svg>
