<?xml version="1.0" encoding="UTF-8" standalone="no"?>
<!DOCTYPE svg PUBLIC "-//W3C//DTD SVG 1.1//EN"
 "http://www.w3.org/Graphics/SVG/1.1/DTD/svg11.dtd">
<!-- Generated by graphviz version 2.43.0 (0)
 -->
<!-- Title: oneDegreeRelationshipsDiagram Pages: 1 -->
<svg width="346pt" height="911pt"
 viewBox="0.00 0.00 346.00 911.00" xmlns="http://www.w3.org/2000/svg" xmlns:xlink="http://www.w3.org/1999/xlink">
<g id="graph0" class="graph" transform="scale(1 1) rotate(0) translate(4 907)">
<title>oneDegreeRelationshipsDiagram</title>
<polygon fill="#ffffff" stroke="transparent" points="-4,4 -4,-907 342,-907 342,4 -4,4"/>
<text text-anchor="middle" x="71.5" y="-7.2" font-family="Helvetica,sans-Serif" font-size="11.00">Generated by SchemaSpy</text>
<!-- cof_rv_oportunidadevenda -->
<g id="node1" class="node">
<title>cof_rv_oportunidadevenda</title>
<g id="a_node1"><a xlink:href="../../tables/cof_rv_oportunidadevenda.html" xlink:title="cof_rv_oportunidadevenda" target="_top">
<polygon fill="#ffffff" stroke="transparent" points="8,-37 8,-899 330,-899 330,-37 8,-37"/>
<polygon fill="#f5f5f5" stroke="transparent" points="10,-875 10,-897 328,-897 328,-875 10,-875"/>
<polygon fill="none" stroke="black" points="10,-875 10,-897 328,-897 328,-875 10,-875"/>
<text text-anchor="start" x="15" y="-884.2" font-family="Helvetica,sans-Serif" font-weight="bold" font-size="11.00">cof_rv_oportunidadevenda</text>
<text text-anchor="start" x="295" y="-883.2" font-family="Helvetica,sans-Serif" font-size="11.00">[view]</text>
<polygon fill="none" stroke="black" points="10,-853 10,-875 238,-875 238,-853 10,-853"/>
<text text-anchor="start" x="30" y="-861.2" font-family="Helvetica,sans-Serif" font-size="11.00">ad_client_id</text>
<polygon fill="none" stroke="black" points="238,-853 238,-875 328,-875 328,-853 238,-853"/>
<text text-anchor="start" x="241" y="-861.2" font-family="Helvetica,sans-Serif" font-size="11.00">numeric[10]</text>
<polygon fill="none" stroke="black" points="10,-831 10,-853 238,-853 238,-831 10,-831"/>
<text text-anchor="start" x="30" y="-839.2" font-family="Helvetica,sans-Serif" font-size="11.00">ad_org_id</text>
<polygon fill="none" stroke="black" points="238,-831 238,-853 328,-853 328,-831 238,-831"/>
<text text-anchor="start" x="241" y="-839.2" font-family="Helvetica,sans-Serif" font-size="11.00">numeric[10]</text>
<polygon fill="none" stroke="black" points="10,-809 10,-831 238,-831 238,-809 10,-809"/>
<text text-anchor="start" x="30" y="-817.2" font-family="Helvetica,sans-Serif" font-size="11.00">ad_user_id</text>
<polygon fill="none" stroke="black" points="238,-809 238,-831 328,-831 328,-809 238,-809"/>
<text text-anchor="start" x="241" y="-817.2" font-family="Helvetica,sans-Serif" font-size="11.00">numeric[10]</text>
<polygon fill="none" stroke="black" points="10,-787 10,-809 238,-809 238,-787 10,-787"/>
<text text-anchor="start" x="30" y="-795.2" font-family="Helvetica,sans-Serif" font-size="11.00">c_bpartner_id</text>
<polygon fill="none" stroke="black" points="238,-787 238,-809 328,-809 328,-787 238,-787"/>
<text text-anchor="start" x="241" y="-795.2" font-family="Helvetica,sans-Serif" font-size="11.00">numeric[10]</text>
<polygon fill="none" stroke="black" points="10,-765 10,-787 238,-787 238,-765 10,-765"/>
<text text-anchor="start" x="30" y="-773.2" font-family="Helvetica,sans-Serif" font-size="11.00">c_campaign_id</text>
<polygon fill="none" stroke="black" points="238,-765 238,-787 328,-787 328,-765 238,-765"/>
<text text-anchor="start" x="241" y="-773.2" font-family="Helvetica,sans-Serif" font-size="11.00">numeric[10]</text>
<polygon fill="none" stroke="black" points="10,-743 10,-765 238,-765 238,-743 10,-743"/>
<text text-anchor="start" x="30" y="-751.2" font-family="Helvetica,sans-Serif" font-size="11.00">c_currency_id</text>
<polygon fill="none" stroke="black" points="238,-743 238,-765 328,-765 328,-743 238,-743"/>
<text text-anchor="start" x="241" y="-751.2" font-family="Helvetica,sans-Serif" font-size="11.00">numeric[10]</text>
<polygon fill="none" stroke="black" points="10,-721 10,-743 238,-743 238,-721 10,-721"/>
<text text-anchor="start" x="30" y="-729.2" font-family="Helvetica,sans-Serif" font-size="11.00">closedate</text>
<polygon fill="none" stroke="black" points="238,-721 238,-743 328,-743 328,-721 238,-721"/>
<text text-anchor="start" x="241" y="-729.2" font-family="Helvetica,sans-Serif" font-size="11.00">timestamp[29,6]</text>
<polygon fill="none" stroke="black" points="10,-699 10,-721 238,-721 238,-699 10,-699"/>
<text text-anchor="start" x="30" y="-707.2" font-family="Helvetica,sans-Serif" font-size="11.00">cof_contract_id</text>
<polygon fill="none" stroke="black" points="238,-699 238,-721 328,-721 328,-699 238,-699"/>
<text text-anchor="start" x="241" y="-707.2" font-family="Helvetica,sans-Serif" font-size="11.00">numeric[10]</text>
<polygon fill="none" stroke="black" points="10,-677 10,-699 238,-699 238,-677 10,-677"/>
<text text-anchor="start" x="30" y="-685.2" font-family="Helvetica,sans-Serif" font-size="11.00">cof_descricaoencerramento</text>
<polygon fill="none" stroke="black" points="238,-677 238,-699 328,-699 328,-677 238,-677"/>
<text text-anchor="start" x="241" y="-685.2" font-family="Helvetica,sans-Serif" font-size="11.00">varchar[255]</text>
<polygon fill="none" stroke="black" points="10,-655 10,-677 238,-677 238,-655 10,-655"/>
<text text-anchor="start" x="30" y="-663.2" font-family="Helvetica,sans-Serif" font-size="11.00">cof_processing</text>
<polygon fill="none" stroke="black" points="238,-655 238,-677 328,-677 328,-655 238,-655"/>
<text text-anchor="start" x="241" y="-663.2" font-family="Helvetica,sans-Serif" font-size="11.00">bpchar[1]</text>
<polygon fill="none" stroke="black" points="10,-633 10,-655 238,-655 238,-633 10,-633"/>
<text text-anchor="start" x="30" y="-641.2" font-family="Helvetica,sans-Serif" font-size="11.00">comments</text>
<polygon fill="none" stroke="black" points="238,-633 238,-655 328,-655 328,-633 238,-633"/>
<text text-anchor="start" x="241" y="-641.2" font-family="Helvetica,sans-Serif" font-size="11.00">text[2147483647]</text>
<polygon fill="none" stroke="black" points="10,-611 10,-633 238,-633 238,-611 10,-611"/>
<text text-anchor="start" x="30" y="-619.2" font-family="Helvetica,sans-Serif" font-size="11.00">c_opportunity_id</text>
<polygon fill="none" stroke="black" points="238,-611 238,-633 328,-633 328,-611 238,-611"/>
<text text-anchor="start" x="241" y="-619.2" font-family="Helvetica,sans-Serif" font-size="11.00">numeric[10]</text>
<polygon fill="none" stroke="black" points="10,-589 10,-611 238,-611 238,-589 10,-589"/>
<text text-anchor="start" x="30" y="-597.2" font-family="Helvetica,sans-Serif" font-size="11.00">c_order_id</text>
<polygon fill="none" stroke="black" points="238,-589 238,-611 328,-611 328,-589 238,-589"/>
<text text-anchor="start" x="241" y="-597.2" font-family="Helvetica,sans-Serif" font-size="11.00">numeric[10]</text>
<polygon fill="none" stroke="black" points="10,-567 10,-589 238,-589 238,-567 10,-567"/>
<text text-anchor="start" x="30" y="-575.2" font-family="Helvetica,sans-Serif" font-size="11.00">cost</text>
<polygon fill="none" stroke="black" points="238,-567 238,-589 328,-589 328,-567 238,-567"/>
<text text-anchor="start" x="241" y="-575.2" font-family="Helvetica,sans-Serif" font-size="11.00">numeric[0]</text>
<polygon fill="none" stroke="black" points="10,-545 10,-567 238,-567 238,-545 10,-545"/>
<text text-anchor="start" x="30" y="-553.2" font-family="Helvetica,sans-Serif" font-size="11.00">c_salesstage_id</text>
<polygon fill="none" stroke="black" points="238,-545 238,-567 328,-567 328,-545 238,-545"/>
<text text-anchor="start" x="241" y="-553.2" font-family="Helvetica,sans-Serif" font-size="11.00">numeric[10]</text>
<polygon fill="none" stroke="black" points="10,-523 10,-545 238,-545 238,-523 10,-523"/>
<text text-anchor="start" x="30" y="-531.2" font-family="Helvetica,sans-Serif" font-size="11.00">description</text>
<polygon fill="none" stroke="black" points="238,-523 238,-545 328,-545 328,-523 238,-523"/>
<text text-anchor="start" x="241" y="-531.2" font-family="Helvetica,sans-Serif" font-size="11.00">varchar[255]</text>
<polygon fill="none" stroke="black" points="10,-501 10,-523 238,-523 238,-501 10,-501"/>
<text text-anchor="start" x="30" y="-509.2" font-family="Helvetica,sans-Serif" font-size="11.00">documentno</text>
<polygon fill="none" stroke="black" points="238,-501 238,-523 328,-523 328,-501 238,-501"/>
<text text-anchor="start" x="241" y="-509.2" font-family="Helvetica,sans-Serif" font-size="11.00">varchar[60]</text>
<polygon fill="none" stroke="black" points="10,-479 10,-501 238,-501 238,-479 10,-479"/>
<text text-anchor="start" x="30" y="-487.2" font-family="Helvetica,sans-Serif" font-size="11.00">expectedclosedate</text>
<polygon fill="none" stroke="black" points="238,-479 238,-501 328,-501 328,-479 238,-479"/>
<text text-anchor="start" x="241" y="-487.2" font-family="Helvetica,sans-Serif" font-size="11.00">timestamp[29,6]</text>
<polygon fill="none" stroke="black" points="10,-457 10,-479 238,-479 238,-457 10,-457"/>
<text text-anchor="start" x="30" y="-465.2" font-family="Helvetica,sans-Serif" font-size="11.00">isactive</text>
<polygon fill="none" stroke="black" points="238,-457 238,-479 328,-479 328,-457 238,-457"/>
<text text-anchor="start" x="241" y="-465.2" font-family="Helvetica,sans-Serif" font-size="11.00">bpchar[1]</text>
<polygon fill="none" stroke="black" points="10,-435 10,-457 238,-457 238,-435 10,-435"/>
<text text-anchor="start" x="30" y="-443.2" font-family="Helvetica,sans-Serif" font-size="11.00">isclosed</text>
<polygon fill="none" stroke="black" points="238,-435 238,-457 328,-457 328,-435 238,-435"/>
<text text-anchor="start" x="241" y="-443.2" font-family="Helvetica,sans-Serif" font-size="11.00">bpchar[1]</text>
<polygon fill="none" stroke="black" points="10,-413 10,-435 238,-435 238,-413 10,-413"/>
<text text-anchor="start" x="30" y="-421.2" font-family="Helvetica,sans-Serif" font-size="11.00">opportunityamt</text>
<polygon fill="none" stroke="black" points="238,-413 238,-435 328,-435 328,-413 238,-413"/>
<text text-anchor="start" x="241" y="-421.2" font-family="Helvetica,sans-Serif" font-size="11.00">numeric[0]</text>
<polygon fill="none" stroke="black" points="10,-391 10,-413 238,-413 238,-391 10,-391"/>
<text text-anchor="start" x="30" y="-399.2" font-family="Helvetica,sans-Serif" font-size="11.00">probability</text>
<polygon fill="none" stroke="black" points="238,-391 238,-413 328,-413 328,-391 238,-391"/>
<text text-anchor="start" x="241" y="-399.2" font-family="Helvetica,sans-Serif" font-size="11.00">numeric[0]</text>
<polygon fill="none" stroke="black" points="10,-369 10,-391 238,-391 238,-369 10,-369"/>
<text text-anchor="start" x="30" y="-377.2" font-family="Helvetica,sans-Serif" font-size="11.00">processed</text>
<polygon fill="none" stroke="black" points="238,-369 238,-391 328,-391 328,-369 238,-369"/>
<text text-anchor="start" x="241" y="-377.2" font-family="Helvetica,sans-Serif" font-size="11.00">bpchar[1]</text>
<polygon fill="none" stroke="black" points="10,-347 10,-369 238,-369 238,-347 10,-347"/>
<text text-anchor="start" x="30" y="-355.2" font-family="Helvetica,sans-Serif" font-size="11.00">salesrep_id</text>
<polygon fill="none" stroke="black" points="238,-347 238,-369 328,-369 328,-347 238,-347"/>
<text text-anchor="start" x="241" y="-355.2" font-family="Helvetica,sans-Serif" font-size="11.00">numeric[10]</text>
<polygon fill="none" stroke="black" points="10,-325 10,-347 238,-347 238,-325 10,-325"/>
<text text-anchor="start" x="30" y="-333.2" font-family="Helvetica,sans-Serif" font-size="11.00">weightedamt</text>
<polygon fill="none" stroke="black" points="238,-325 238,-347 328,-347 328,-325 238,-325"/>
<text text-anchor="start" x="241" y="-333.2" font-family="Helvetica,sans-Serif" font-size="11.00">numeric[0]</text>
<polygon fill="none" stroke="black" points="10,-303 10,-325 238,-325 238,-303 10,-303"/>
<text text-anchor="start" x="30" y="-311.2" font-family="Helvetica,sans-Serif" font-size="11.00">email</text>
<polygon fill="none" stroke="black" points="238,-303 238,-325 328,-325 328,-303 238,-303"/>
<text text-anchor="start" x="241" y="-311.2" font-family="Helvetica,sans-Serif" font-size="11.00">varchar[60]</text>
<polygon fill="none" stroke="black" points="10,-281 10,-303 238,-303 238,-281 10,-281"/>
<text text-anchor="start" x="30" y="-289.2" font-family="Helvetica,sans-Serif" font-size="11.00">phone</text>
<polygon fill="none" stroke="black" points="238,-281 238,-303 328,-303 328,-281 238,-281"/>
<text text-anchor="start" x="241" y="-289.2" font-family="Helvetica,sans-Serif" font-size="11.00">varchar[40]</text>
<polygon fill="none" stroke="black" points="10,-259 10,-281 238,-281 238,-259 10,-259"/>
<text text-anchor="start" x="30" y="-267.2" font-family="Helvetica,sans-Serif" font-size="11.00">phone2</text>
<polygon fill="none" stroke="black" points="238,-259 238,-281 328,-281 328,-259 238,-259"/>
<text text-anchor="start" x="241" y="-267.2" font-family="Helvetica,sans-Serif" font-size="11.00">varchar[40]</text>
<polygon fill="none" stroke="black" points="10,-237 10,-259 238,-259 238,-237 10,-237"/>
<text text-anchor="start" x="30" y="-245.2" font-family="Helvetica,sans-Serif" font-size="11.00">cof_vendedorinterno_id</text>
<polygon fill="none" stroke="black" points="238,-237 238,-259 328,-259 328,-237 238,-237"/>
<text text-anchor="start" x="241" y="-245.2" font-family="Helvetica,sans-Serif" font-size="11.00">numeric[10]</text>
<polygon fill="none" stroke="black" points="10,-215 10,-237 238,-237 238,-215 10,-215"/>
<text text-anchor="start" x="30" y="-223.2" font-family="Helvetica,sans-Serif" font-size="11.00">cof_responsavelindicacao_id</text>
<polygon fill="none" stroke="black" points="238,-215 238,-237 328,-237 328,-215 238,-215"/>
<text text-anchor="start" x="241" y="-223.2" font-family="Helvetica,sans-Serif" font-size="11.00">numeric[10]</text>
<polygon fill="none" stroke="black" points="10,-193 10,-215 238,-215 238,-193 10,-193"/>
<text text-anchor="start" x="30" y="-201.2" font-family="Helvetica,sans-Serif" font-size="11.00">cof_totalordemvendaco</text>
<polygon fill="none" stroke="black" points="238,-193 238,-215 328,-215 328,-193 238,-193"/>
<text text-anchor="start" x="241" y="-201.2" font-family="Helvetica,sans-Serif" font-size="11.00">numeric[0]</text>
<polygon fill="none" stroke="black" points="10,-171 10,-193 238,-193 238,-171 10,-171"/>
<text text-anchor="start" x="30" y="-179.2" font-family="Helvetica,sans-Serif" font-size="11.00">cof_totalordemvendaip</text>
<polygon fill="none" stroke="black" points="238,-171 238,-193 328,-193 328,-171 238,-171"/>
<text text-anchor="start" x="241" y="-179.2" font-family="Helvetica,sans-Serif" font-size="11.00">numeric[0]</text>
<polygon fill="none" stroke="black" points="10,-149 10,-171 238,-171 238,-149 10,-149"/>
<text text-anchor="start" x="30" y="-157.2" font-family="Helvetica,sans-Serif" font-size="11.00">cof_totalordemvendadr</text>
<polygon fill="none" stroke="black" points="238,-149 238,-171 328,-171 328,-149 238,-149"/>
<text text-anchor="start" x="241" y="-157.2" font-family="Helvetica,sans-Serif" font-size="11.00">numeric[0]</text>
<polygon fill="none" stroke="black" points="10,-127 10,-149 238,-149 238,-127 10,-127"/>
<text text-anchor="start" x="30" y="-135.2" font-family="Helvetica,sans-Serif" font-size="11.00">cof_totalordemvendacl</text>
<polygon fill="none" stroke="black" points="238,-127 238,-149 328,-149 328,-127 238,-127"/>
<text text-anchor="start" x="241" y="-135.2" font-family="Helvetica,sans-Serif" font-size="11.00">numeric[0]</text>
<polygon fill="none" stroke="black" points="10,-105 10,-127 238,-127 238,-105 10,-105"/>
<text text-anchor="start" x="30" y="-113.2" font-family="Helvetica,sans-Serif" font-size="11.00">cof_totalordemvendavo</text>
<polygon fill="none" stroke="black" points="238,-105 238,-127 328,-127 328,-105 238,-105"/>
<text text-anchor="start" x="241" y="-113.2" font-family="Helvetica,sans-Serif" font-size="11.00">numeric[0]</text>
<polygon fill="none" stroke="black" points="10,-83 10,-105 238,-105 238,-83 10,-83"/>
<text text-anchor="start" x="30" y="-91.2" font-family="Helvetica,sans-Serif" font-size="11.00">created</text>
<polygon fill="none" stroke="black" points="238,-83 238,-105 328,-105 328,-83 238,-83"/>
<text text-anchor="start" x="241" y="-91.2" font-family="Helvetica,sans-Serif" font-size="11.00">timestamp[29,6]</text>
<polygon fill="none" stroke="black" points="10,-61 10,-83 238,-83 238,-61 10,-61"/>
<text text-anchor="start" x="30" y="-69.2" font-family="Helvetica,sans-Serif" font-size="11.00">c_city_id</text>
<polygon fill="none" stroke="black" points="238,-61 238,-83 328,-83 328,-61 238,-61"/>
<text text-anchor="start" x="241" y="-69.2" font-family="Helvetica,sans-Serif" font-size="11.00">numeric[10]</text>
<polygon fill="none" stroke="black" points="10,-39 10,-61 238,-61 238,-39 10,-39"/>
<text text-anchor="start" x="30" y="-47.2" font-family="Helvetica,sans-Serif" font-size="11.00">address3</text>
<polygon fill="none" stroke="black" points="238,-39 238,-61 328,-61 328,-39 238,-39"/>
<text text-anchor="start" x="241" y="-47.2" font-family="Helvetica,sans-Serif" font-size="11.00">varchar[60]</text>
<polygon fill="none" stroke="black" stroke-width="2" points="9,-38 9,-898 329,-898 329,-38 9,-38"/>
</a>
</g>
</g>
</g>
</svg>
