<?xml version="1.0" encoding="UTF-8" standalone="no"?>
<!DOCTYPE svg PUBLIC "-//W3C//DTD SVG 1.1//EN"
 "http://www.w3.org/Graphics/SVG/1.1/DTD/svg11.dtd">
<!-- Generated by graphviz version 2.43.0 (0)
 -->
<!-- Title: oneDegreeRelationshipsDiagram Pages: 1 -->
<svg width="639pt" height="712pt"
 viewBox="0.00 0.00 638.89 712.00" xmlns="http://www.w3.org/2000/svg" xmlns:xlink="http://www.w3.org/1999/xlink">
<g id="graph0" class="graph" transform="scale(1 1) rotate(0) translate(4 708)">
<title>oneDegreeRelationshipsDiagram</title>
<polygon fill="#ffffff" stroke="transparent" points="-4,4 -4,-708 634.89,-708 634.89,4 -4,4"/>
<text text-anchor="middle" x="71.5" y="-7.2" font-family="Helvetica,sans-Serif" font-size="11.00">Generated by SchemaSpy</text>
<!-- cof_pesagem -->
<g id="node1" class="node">
<title>cof_pesagem</title>
<g id="a_node1"><a xlink:href="../../tables/cof_pesagem.html" xlink:title="cof_pesagem" target="_top">
<polygon fill="#ffffff" stroke="transparent" points="327,-220 327,-682 584,-682 584,-220 327,-220"/>
<polygon fill="#f5f5f5" stroke="transparent" points="329.5,-658 329.5,-680 582.5,-680 582.5,-658 329.5,-658"/>
<polygon fill="none" stroke="black" points="329.5,-658 329.5,-680 582.5,-680 582.5,-658 329.5,-658"/>
<text text-anchor="start" x="334.5" y="-667.2" font-family="Helvetica,sans-Serif" font-weight="bold" font-size="11.00">cof_pesagem</text>
<text text-anchor="start" x="547.5" y="-666.2" font-family="Helvetica,sans-Serif" font-size="11.00">[table]</text>
<polygon fill="none" stroke="black" points="329.5,-636 329.5,-658 499.5,-658 499.5,-636 329.5,-636"/>
<image xlink:href="../../images/primaryKeys.png" width="11px" height="12px" preserveAspectRatio="xMinYMin meet" x="334.5" y="-653"/>
<text text-anchor="start" x="349.5" y="-644.2" font-family="Helvetica,sans-Serif" font-size="11.00">cof_pesagem_id</text>
<polygon fill="none" stroke="black" points="499.5,-636 499.5,-658 582.5,-658 582.5,-636 499.5,-636"/>
<text text-anchor="start" x="502.5" y="-644.2" font-family="Helvetica,sans-Serif" font-size="11.00">numeric[10]</text>
<polygon fill="#ffffff" stroke="transparent" points="329.5,-614 329.5,-636 499.5,-636 499.5,-614 329.5,-614"/>
<polygon fill="none" stroke="black" points="329.5,-614 329.5,-636 499.5,-636 499.5,-614 329.5,-614"/>
<text text-anchor="start" x="349.5" y="-622.2" font-family="Helvetica,sans-Serif" font-size="11.00">cof_pesagem_uu</text>
<polygon fill="none" stroke="black" points="499.5,-614 499.5,-636 582.5,-636 582.5,-614 499.5,-614"/>
<text text-anchor="start" x="502.5" y="-622.2" font-family="Helvetica,sans-Serif" font-size="11.00">varchar[36]</text>
<polygon fill="none" stroke="black" points="329.5,-592 329.5,-614 499.5,-614 499.5,-592 329.5,-592"/>
<text text-anchor="start" x="349.5" y="-600.2" font-family="Helvetica,sans-Serif" font-size="11.00">ad_client_id</text>
<polygon fill="none" stroke="black" points="499.5,-592 499.5,-614 582.5,-614 582.5,-592 499.5,-592"/>
<text text-anchor="start" x="502.5" y="-600.2" font-family="Helvetica,sans-Serif" font-size="11.00">numeric[10]</text>
<polygon fill="none" stroke="black" points="329.5,-570 329.5,-592 499.5,-592 499.5,-570 329.5,-570"/>
<text text-anchor="start" x="349.5" y="-578.2" font-family="Helvetica,sans-Serif" font-size="11.00">ad_org_id</text>
<polygon fill="none" stroke="black" points="499.5,-570 499.5,-592 582.5,-592 582.5,-570 499.5,-570"/>
<text text-anchor="start" x="502.5" y="-578.2" font-family="Helvetica,sans-Serif" font-size="11.00">numeric[10]</text>
<polygon fill="none" stroke="black" points="329.5,-548 329.5,-570 499.5,-570 499.5,-548 329.5,-548"/>
<text text-anchor="start" x="349.5" y="-556.2" font-family="Helvetica,sans-Serif" font-size="11.00">isactive</text>
<polygon fill="none" stroke="black" points="499.5,-548 499.5,-570 582.5,-570 582.5,-548 499.5,-548"/>
<text text-anchor="start" x="502.5" y="-556.2" font-family="Helvetica,sans-Serif" font-size="11.00">bpchar[1]</text>
<polygon fill="none" stroke="black" points="329.5,-526 329.5,-548 499.5,-548 499.5,-526 329.5,-526"/>
<text text-anchor="start" x="349.5" y="-534.2" font-family="Helvetica,sans-Serif" font-size="11.00">created</text>
<polygon fill="none" stroke="black" points="499.5,-526 499.5,-548 582.5,-548 582.5,-526 499.5,-526"/>
<text text-anchor="start" x="502.5" y="-534.2" font-family="Helvetica,sans-Serif" font-size="11.00">timestamp[29,6]</text>
<polygon fill="none" stroke="black" points="329.5,-504 329.5,-526 499.5,-526 499.5,-504 329.5,-504"/>
<text text-anchor="start" x="349.5" y="-512.2" font-family="Helvetica,sans-Serif" font-size="11.00">createdby</text>
<polygon fill="none" stroke="black" points="499.5,-504 499.5,-526 582.5,-526 582.5,-504 499.5,-504"/>
<text text-anchor="start" x="502.5" y="-512.2" font-family="Helvetica,sans-Serif" font-size="11.00">numeric[10]</text>
<polygon fill="none" stroke="black" points="329.5,-482 329.5,-504 499.5,-504 499.5,-482 329.5,-482"/>
<text text-anchor="start" x="349.5" y="-490.2" font-family="Helvetica,sans-Serif" font-size="11.00">updated</text>
<polygon fill="none" stroke="black" points="499.5,-482 499.5,-504 582.5,-504 582.5,-482 499.5,-482"/>
<text text-anchor="start" x="502.5" y="-490.2" font-family="Helvetica,sans-Serif" font-size="11.00">timestamp[29,6]</text>
<polygon fill="none" stroke="black" points="329.5,-460 329.5,-482 499.5,-482 499.5,-460 329.5,-460"/>
<text text-anchor="start" x="349.5" y="-468.2" font-family="Helvetica,sans-Serif" font-size="11.00">updatedby</text>
<polygon fill="none" stroke="black" points="499.5,-460 499.5,-482 582.5,-482 582.5,-460 499.5,-460"/>
<text text-anchor="start" x="502.5" y="-468.2" font-family="Helvetica,sans-Serif" font-size="11.00">numeric[10]</text>
<polygon fill="none" stroke="black" points="329.5,-438 329.5,-460 499.5,-460 499.5,-438 329.5,-438"/>
<text text-anchor="start" x="349.5" y="-446.2" font-family="Helvetica,sans-Serif" font-size="11.00">dateprocessed</text>
<polygon fill="none" stroke="black" points="499.5,-438 499.5,-460 582.5,-460 582.5,-438 499.5,-438"/>
<text text-anchor="start" x="502.5" y="-446.2" font-family="Helvetica,sans-Serif" font-size="11.00">timestamp[29,6]</text>
<polygon fill="none" stroke="black" points="329.5,-416 329.5,-438 499.5,-438 499.5,-416 329.5,-416"/>
<text text-anchor="start" x="349.5" y="-424.2" font-family="Helvetica,sans-Serif" font-size="11.00">description</text>
<polygon fill="none" stroke="black" points="499.5,-416 499.5,-438 582.5,-438 582.5,-416 499.5,-416"/>
<text text-anchor="start" x="502.5" y="-424.2" font-family="Helvetica,sans-Serif" font-size="11.00">varchar[255]</text>
<polygon fill="none" stroke="black" points="329.5,-394 329.5,-416 499.5,-416 499.5,-394 329.5,-394"/>
<image xlink:href="../../images/foreignKeys.png" width="11px" height="12px" preserveAspectRatio="xMinYMin meet" x="334.5" y="-411"/>
<text text-anchor="start" x="349.5" y="-402.2" font-family="Helvetica,sans-Serif" font-size="11.00">cof_equipments_id</text>
<polygon fill="none" stroke="black" points="499.5,-394 499.5,-416 582.5,-416 582.5,-394 499.5,-394"/>
<text text-anchor="start" x="502.5" y="-402.2" font-family="Helvetica,sans-Serif" font-size="11.00">numeric[10]</text>
<polygon fill="none" stroke="black" points="329.5,-372 329.5,-394 499.5,-394 499.5,-372 329.5,-372"/>
<text text-anchor="start" x="349.5" y="-380.2" font-family="Helvetica,sans-Serif" font-size="11.00">cof_peso</text>
<polygon fill="none" stroke="black" points="499.5,-372 499.5,-394 582.5,-394 582.5,-372 499.5,-372"/>
<text text-anchor="start" x="502.5" y="-380.2" font-family="Helvetica,sans-Serif" font-size="11.00">numeric[0]</text>
<polygon fill="none" stroke="black" points="329.5,-350 329.5,-372 499.5,-372 499.5,-350 329.5,-350"/>
<image xlink:href="../../images/foreignKeys.png" width="11px" height="12px" preserveAspectRatio="xMinYMin meet" x="334.5" y="-367"/>
<text text-anchor="start" x="349.5" y="-358.2" font-family="Helvetica,sans-Serif" font-size="11.00">ad_table_id</text>
<polygon fill="none" stroke="black" points="499.5,-350 499.5,-372 582.5,-372 582.5,-350 499.5,-350"/>
<text text-anchor="start" x="502.5" y="-358.2" font-family="Helvetica,sans-Serif" font-size="11.00">numeric[10]</text>
<polygon fill="none" stroke="black" points="329.5,-328 329.5,-350 499.5,-350 499.5,-328 329.5,-328"/>
<text text-anchor="start" x="349.5" y="-336.2" font-family="Helvetica,sans-Serif" font-size="11.00">cof_record_id</text>
<polygon fill="none" stroke="black" points="499.5,-328 499.5,-350 582.5,-350 582.5,-328 499.5,-328"/>
<text text-anchor="start" x="502.5" y="-336.2" font-family="Helvetica,sans-Serif" font-size="11.00">numeric[0]</text>
<polygon fill="none" stroke="black" points="329.5,-306 329.5,-328 499.5,-328 499.5,-306 329.5,-306"/>
<text text-anchor="start" x="349.5" y="-314.2" font-family="Helvetica,sans-Serif" font-size="11.00">cof_columnname</text>
<polygon fill="none" stroke="black" points="499.5,-306 499.5,-328 582.5,-328 582.5,-306 499.5,-306"/>
<text text-anchor="start" x="502.5" y="-314.2" font-family="Helvetica,sans-Serif" font-size="11.00">varchar[100]</text>
<polygon fill="none" stroke="black" points="329.5,-284 329.5,-306 499.5,-306 499.5,-284 329.5,-284"/>
<image xlink:href="../../images/foreignKeys.png" width="11px" height="12px" preserveAspectRatio="xMinYMin meet" x="334.5" y="-301"/>
<text text-anchor="start" x="349.5" y="-292.2" font-family="Helvetica,sans-Serif" font-size="11.00">cof_equipleitura_id</text>
<polygon fill="none" stroke="black" points="499.5,-284 499.5,-306 582.5,-306 582.5,-284 499.5,-284"/>
<text text-anchor="start" x="502.5" y="-292.2" font-family="Helvetica,sans-Serif" font-size="11.00">numeric[10]</text>
<polygon fill="none" stroke="black" points="329.5,-262 329.5,-284 499.5,-284 499.5,-262 329.5,-262"/>
<image xlink:href="../../images/foreignKeys.png" width="11px" height="12px" preserveAspectRatio="xMinYMin meet" x="334.5" y="-279"/>
<text text-anchor="start" x="349.5" y="-270.2" font-family="Helvetica,sans-Serif" font-size="11.00">cof_pesagempai_id</text>
<polygon fill="none" stroke="black" points="499.5,-262 499.5,-284 582.5,-284 582.5,-262 499.5,-262"/>
<text text-anchor="start" x="502.5" y="-270.2" font-family="Helvetica,sans-Serif" font-size="11.00">numeric[10]</text>
<polygon fill="none" stroke="black" points="329.5,-240 329.5,-262 499.5,-262 499.5,-240 329.5,-240"/>
<text text-anchor="start" x="349.5" y="-248.2" font-family="Helvetica,sans-Serif" font-size="11.00">cof_isleituramultipla</text>
<polygon fill="none" stroke="black" points="499.5,-240 499.5,-262 582.5,-262 582.5,-240 499.5,-240"/>
<text text-anchor="start" x="502.5" y="-248.2" font-family="Helvetica,sans-Serif" font-size="11.00">bpchar[1]</text>
<polygon fill="#ffffff" stroke="transparent" points="329.5,-222 329.5,-240 582.5,-240 582.5,-222 329.5,-222"/>
<polygon fill="none" stroke="black" points="329.5,-222 329.5,-240 582.5,-240 582.5,-222 329.5,-222"/>
<polygon fill="#ffffff" stroke="transparent" points="330.5,-223 330.5,-239 417.5,-239 417.5,-223 330.5,-223"/>
<text text-anchor="start" x="332.5" y="-228.2" font-family="Helvetica,sans-Serif" font-size="11.00">&lt; 4</text>
<polygon fill="#ffffff" stroke="transparent" points="417.5,-223 417.5,-239 495.5,-239 495.5,-223 417.5,-223"/>
<text text-anchor="start" x="453" y="-228.2" font-family="Helvetica,sans-Serif" font-size="11.00"> &#160;</text>
<polygon fill="#ffffff" stroke="transparent" points="495.5,-223 495.5,-239 581.5,-239 581.5,-223 495.5,-223"/>
<text text-anchor="start" x="563.5" y="-228.2" font-family="Helvetica,sans-Serif" font-size="11.00">1 &gt;</text>
<polygon fill="black" stroke="black" points="417.5,-223 417.5,-239 417.5,-239 417.5,-223 417.5,-223"/>
<polygon fill="black" stroke="black" points="495.5,-223 495.5,-239 495.5,-239 495.5,-223 495.5,-223"/>
<polygon fill="none" stroke="black" stroke-width="2" points="328,-221 328,-681 583,-681 583,-221 328,-221"/>
</a>
</g>
</g>
<!-- cof_pesagem&#45;&gt;cof_pesagem -->
<g id="edge4" class="edge">
<title>cof_pesagem:w&#45;&gt;cof_pesagem:e</title>
<path fill="none" stroke="black" d="M320.3,-284.45C251.84,-383.25 259.89,-699 456,-699 660.5,-699 660.5,-690.33 582.5,-647"/>
<polygon fill="black" stroke="black" points="324.49,-279.24 332.31,-275.25 326.99,-276.12 329.5,-273 329.5,-273 329.5,-273 326.99,-276.12 326.69,-270.75 324.49,-279.24 324.49,-279.24"/>
<ellipse fill="none" stroke="black" cx="322.49" cy="-281.73" rx="3.2" ry="3.2"/>
</g>
<!-- ad_table -->
<g id="node2" class="node">
<title>ad_table</title>
<g id="a_node2"><a xlink:href="../../tables/ad_table.html" xlink:title="ad_table" target="_top">
<polygon fill="#ffffff" stroke="transparent" points="36.5,-160 36.5,-394 249.5,-394 249.5,-160 36.5,-160"/>
<polygon fill="#f5f5f5" stroke="transparent" points="37,-372 37,-394 250,-394 250,-372 37,-372"/>
<polygon fill="none" stroke="black" points="37,-372 37,-394 250,-394 250,-372 37,-372"/>
<text text-anchor="start" x="42" y="-381.2" font-family="Helvetica,sans-Serif" font-weight="bold" font-size="11.00">ad_table</text>
<text text-anchor="start" x="215" y="-380.2" font-family="Helvetica,sans-Serif" font-size="11.00">[table]</text>
<polygon fill="none" stroke="black" points="37,-350 37,-372 250,-372 250,-350 37,-350"/>
<image xlink:href="../../images/primaryKeys.png" width="11px" height="12px" preserveAspectRatio="xMinYMin meet" x="42" y="-367"/>
<text text-anchor="start" x="57" y="-358.2" font-family="Helvetica,sans-Serif" font-size="11.00">ad_table_id</text>
<polygon fill="none" stroke="black" points="37,-328 37,-350 250,-350 250,-328 37,-328"/>
<image xlink:href="../../images/foreignKeys.png" width="11px" height="12px" preserveAspectRatio="xMinYMin meet" x="42" y="-345"/>
<text text-anchor="start" x="57" y="-336.2" font-family="Helvetica,sans-Serif" font-size="11.00">ad_client_id</text>
<polygon fill="none" stroke="black" points="37,-306 37,-328 250,-328 250,-306 37,-306"/>
<image xlink:href="../../images/foreignKeys.png" width="11px" height="12px" preserveAspectRatio="xMinYMin meet" x="42" y="-323"/>
<text text-anchor="start" x="57" y="-314.2" font-family="Helvetica,sans-Serif" font-size="11.00">ad_org_id</text>
<polygon fill="none" stroke="black" points="37,-284 37,-306 250,-306 250,-284 37,-284"/>
<image xlink:href="../../images/foreignKeys.png" width="11px" height="12px" preserveAspectRatio="xMinYMin meet" x="42" y="-301"/>
<text text-anchor="start" x="57" y="-292.2" font-family="Helvetica,sans-Serif" font-size="11.00">entitytype</text>
<polygon fill="none" stroke="black" points="37,-262 37,-284 250,-284 250,-262 37,-262"/>
<image xlink:href="../../images/foreignKeys.png" width="11px" height="12px" preserveAspectRatio="xMinYMin meet" x="42" y="-279"/>
<text text-anchor="start" x="57" y="-270.2" font-family="Helvetica,sans-Serif" font-size="11.00">ad_window_id</text>
<polygon fill="none" stroke="black" points="37,-240 37,-262 250,-262 250,-240 37,-240"/>
<image xlink:href="../../images/foreignKeys.png" width="11px" height="12px" preserveAspectRatio="xMinYMin meet" x="42" y="-257"/>
<text text-anchor="start" x="57" y="-248.2" font-family="Helvetica,sans-Serif" font-size="11.00">ad_val_rule_id</text>
<polygon fill="none" stroke="black" points="37,-218 37,-240 250,-240 250,-218 37,-218"/>
<image xlink:href="../../images/foreignKeys.png" width="11px" height="12px" preserveAspectRatio="xMinYMin meet" x="42" y="-235"/>
<text text-anchor="start" x="57" y="-226.2" font-family="Helvetica,sans-Serif" font-size="11.00">po_window_id</text>
<polygon fill="#ffffff" stroke="transparent" points="37,-196 37,-218 250,-218 250,-196 37,-196"/>
<polygon fill="none" stroke="black" points="37,-196 37,-218 250,-218 250,-196 37,-196"/>
<text text-anchor="start" x="57" y="-204.2" font-family="Helvetica,sans-Serif" font-size="11.00">ad_table_uu</text>
<polygon fill="none" stroke="black" points="37,-178 37,-196 250,-196 250,-178 37,-178"/>
<text text-anchor="start" x="40" y="-184.2" font-family="Helvetica,sans-Serif" font-size="11.00">...</text>
<polygon fill="#ffffff" stroke="transparent" points="37,-160 37,-178 250,-178 250,-160 37,-160"/>
<polygon fill="none" stroke="black" points="37,-160 37,-178 250,-178 250,-160 37,-160"/>
<polygon fill="#ffffff" stroke="transparent" points="38,-161 38,-177 94,-177 94,-161 38,-161"/>
<text text-anchor="start" x="40" y="-166.2" font-family="Helvetica,sans-Serif" font-size="11.00">&lt; 6</text>
<polygon fill="#ffffff" stroke="transparent" points="94,-161 94,-177 188,-177 188,-161 94,-161"/>
<text text-anchor="start" x="114" y="-166.2" font-family="Helvetica,sans-Serif" font-size="11.00">1.443 rows</text>
<polygon fill="#ffffff" stroke="transparent" points="188,-161 188,-177 249,-177 249,-161 188,-161"/>
<text text-anchor="start" x="225" y="-166.2" font-family="Helvetica,sans-Serif" font-size="11.00">83 &gt;</text>
<polygon fill="black" stroke="black" points="94,-161 94,-177 94,-177 94,-161 94,-161"/>
<polygon fill="black" stroke="black" points="188,-161 188,-177 188,-177 188,-161 188,-161"/>
</a>
</g>
</g>
<!-- cof_pesagem&#45;&gt;ad_table -->
<g id="edge1" class="edge">
<title>cof_pesagem:w&#45;&gt;ad_table:e</title>
<path fill="none" stroke="black" d="M314.05,-361C290.73,-361 280.06,-361 251,-361"/>
<polygon fill="black" stroke="black" points="320.5,-361 328.5,-364.6 324.5,-361 328.5,-361 328.5,-361 328.5,-361 324.5,-361 328.5,-357.4 320.5,-361 320.5,-361"/>
<ellipse fill="none" stroke="black" cx="317.3" cy="-361" rx="3.2" ry="3.2"/>
</g>
<!-- cof_equipleitura -->
<g id="node3" class="node">
<title>cof_equipleitura</title>
<g id="a_node3"><a xlink:href="../../tables/cof_equipleitura.html" xlink:title="cof_equipleitura" target="_top">
<polygon fill="#ffffff" stroke="transparent" points="25,-37 25,-139 261,-139 261,-37 25,-37"/>
<polygon fill="#f5f5f5" stroke="transparent" points="25,-117 25,-139 261,-139 261,-117 25,-117"/>
<polygon fill="none" stroke="black" points="25,-117 25,-139 261,-139 261,-117 25,-117"/>
<text text-anchor="start" x="30" y="-126.2" font-family="Helvetica,sans-Serif" font-weight="bold" font-size="11.00">cof_equipleitura</text>
<text text-anchor="start" x="226" y="-125.2" font-family="Helvetica,sans-Serif" font-size="11.00">[table]</text>
<polygon fill="none" stroke="black" points="25,-95 25,-117 261,-117 261,-95 25,-95"/>
<image xlink:href="../../images/primaryKeys.png" width="11px" height="12px" preserveAspectRatio="xMinYMin meet" x="30" y="-112"/>
<text text-anchor="start" x="45" y="-103.2" font-family="Helvetica,sans-Serif" font-size="11.00">cof_equipleitura_id</text>
<polygon fill="#ffffff" stroke="transparent" points="25,-73 25,-95 261,-95 261,-73 25,-73"/>
<polygon fill="none" stroke="black" points="25,-73 25,-95 261,-95 261,-73 25,-73"/>
<text text-anchor="start" x="45" y="-81.2" font-family="Helvetica,sans-Serif" font-size="11.00">cof_equipleitura_uu</text>
<polygon fill="none" stroke="black" points="25,-55 25,-73 261,-73 261,-55 25,-55"/>
<text text-anchor="start" x="28" y="-61.2" font-family="Helvetica,sans-Serif" font-size="11.00">...</text>
<polygon fill="#ffffff" stroke="transparent" points="25,-37 25,-55 261,-55 261,-37 25,-37"/>
<polygon fill="none" stroke="black" points="25,-37 25,-55 261,-55 261,-37 25,-37"/>
<polygon fill="#ffffff" stroke="transparent" points="26,-38 26,-54 101,-54 101,-38 26,-38"/>
<text text-anchor="start" x="28" y="-43.2" font-family="Helvetica,sans-Serif" font-size="11.00"> &#160;</text>
<polygon fill="#ffffff" stroke="transparent" points="101,-38 101,-54 176,-54 176,-38 101,-38"/>
<text text-anchor="start" x="135" y="-43.2" font-family="Helvetica,sans-Serif" font-size="11.00"> &#160;</text>
<polygon fill="#ffffff" stroke="transparent" points="176,-38 176,-54 260,-54 260,-38 176,-38"/>
<text text-anchor="start" x="242" y="-43.2" font-family="Helvetica,sans-Serif" font-size="11.00">1 &gt;</text>
<polygon fill="black" stroke="black" points="101,-38 101,-54 101,-54 101,-38 101,-38"/>
<polygon fill="black" stroke="black" points="176,-38 176,-54 176,-54 176,-38 176,-38"/>
</a>
</g>
</g>
<!-- cof_pesagem&#45;&gt;cof_equipleitura -->
<g id="edge2" class="edge">
<title>cof_pesagem:w&#45;&gt;cof_equipleitura:e</title>
<path fill="none" stroke="black" d="M314.06,-292.88C252.62,-272.11 345.48,-106 262,-106"/>
<polygon fill="black" stroke="black" points="320.59,-293.84 327.98,-298.56 324.54,-294.42 328.5,-295 328.5,-295 328.5,-295 324.54,-294.42 329.02,-291.44 320.59,-293.84 320.59,-293.84"/>
<ellipse fill="none" stroke="black" cx="317.42" cy="-293.37" rx="3.2" ry="3.2"/>
</g>
<!-- cof_equipments -->
<g id="node4" class="node">
<title>cof_equipments</title>
<g id="a_node4"><a xlink:href="../../tables/cof_equipments.html" xlink:title="cof_equipments" target="_top">
<polygon fill="#ffffff" stroke="transparent" points="8,-415 8,-649 278,-649 278,-415 8,-415"/>
<polygon fill="#f5f5f5" stroke="transparent" points="8,-627 8,-649 278,-649 278,-627 8,-627"/>
<polygon fill="none" stroke="black" points="8,-627 8,-649 278,-649 278,-627 8,-627"/>
<text text-anchor="start" x="13" y="-636.2" font-family="Helvetica,sans-Serif" font-weight="bold" font-size="11.00">cof_equipments</text>
<text text-anchor="start" x="243" y="-635.2" font-family="Helvetica,sans-Serif" font-size="11.00">[table]</text>
<polygon fill="none" stroke="black" points="8,-605 8,-627 278,-627 278,-605 8,-605"/>
<image xlink:href="../../images/primaryKeys.png" width="11px" height="12px" preserveAspectRatio="xMinYMin meet" x="13" y="-622"/>
<text text-anchor="start" x="28" y="-613.2" font-family="Helvetica,sans-Serif" font-size="11.00">cof_equipments_id</text>
<polygon fill="#ffffff" stroke="transparent" points="8,-583 8,-605 278,-605 278,-583 8,-583"/>
<polygon fill="none" stroke="black" points="8,-583 8,-605 278,-605 278,-583 8,-583"/>
<text text-anchor="start" x="28" y="-591.2" font-family="Helvetica,sans-Serif" font-size="11.00">cof_equipments_uu</text>
<polygon fill="none" stroke="black" points="8,-561 8,-583 278,-583 278,-561 8,-561"/>
<image xlink:href="../../images/foreignKeys.png" width="11px" height="12px" preserveAspectRatio="xMinYMin meet" x="13" y="-578"/>
<text text-anchor="start" x="28" y="-569.2" font-family="Helvetica,sans-Serif" font-size="11.00">cof_stateplate_id</text>
<polygon fill="none" stroke="black" points="8,-539 8,-561 278,-561 278,-539 8,-539"/>
<image xlink:href="../../images/foreignKeys.png" width="11px" height="12px" preserveAspectRatio="xMinYMin meet" x="13" y="-556"/>
<text text-anchor="start" x="28" y="-547.2" font-family="Helvetica,sans-Serif" font-size="11.00">cof_driver_id</text>
<polygon fill="none" stroke="black" points="8,-517 8,-539 278,-539 278,-517 8,-517"/>
<image xlink:href="../../images/foreignKeys.png" width="11px" height="12px" preserveAspectRatio="xMinYMin meet" x="13" y="-534"/>
<text text-anchor="start" x="28" y="-525.2" font-family="Helvetica,sans-Serif" font-size="11.00">a_asset_id</text>
<polygon fill="none" stroke="black" points="8,-495 8,-517 278,-517 278,-495 8,-495"/>
<image xlink:href="../../images/foreignKeys.png" width="11px" height="12px" preserveAspectRatio="xMinYMin meet" x="13" y="-512"/>
<text text-anchor="start" x="28" y="-503.2" font-family="Helvetica,sans-Serif" font-size="11.00">cof_warehouseto_id</text>
<polygon fill="none" stroke="black" points="8,-473 8,-495 278,-495 278,-473 8,-473"/>
<image xlink:href="../../images/foreignKeys.png" width="11px" height="12px" preserveAspectRatio="xMinYMin meet" x="13" y="-490"/>
<text text-anchor="start" x="28" y="-481.2" font-family="Helvetica,sans-Serif" font-size="11.00">cof_warehouse_id</text>
<polygon fill="none" stroke="black" points="8,-451 8,-473 278,-473 278,-451 8,-451"/>
<image xlink:href="../../images/foreignKeys.png" width="11px" height="12px" preserveAspectRatio="xMinYMin meet" x="13" y="-468"/>
<text text-anchor="start" x="28" y="-459.2" font-family="Helvetica,sans-Serif" font-size="11.00">cof_combustivel_id</text>
<polygon fill="none" stroke="black" points="8,-433 8,-451 278,-451 278,-433 8,-433"/>
<text text-anchor="start" x="11" y="-439.2" font-family="Helvetica,sans-Serif" font-size="11.00">...</text>
<polygon fill="#ffffff" stroke="transparent" points="8,-415 8,-433 278,-433 278,-415 8,-415"/>
<polygon fill="none" stroke="black" points="8,-415 8,-433 278,-433 278,-415 8,-415"/>
<polygon fill="#ffffff" stroke="transparent" points="9,-416 9,-432 100,-432 100,-416 9,-416"/>
<text text-anchor="start" x="11" y="-421.2" font-family="Helvetica,sans-Serif" font-size="11.00">&lt; 6</text>
<polygon fill="#ffffff" stroke="transparent" points="100,-416 100,-432 181,-432 181,-416 100,-416"/>
<text text-anchor="start" x="137" y="-421.2" font-family="Helvetica,sans-Serif" font-size="11.00"> &#160;</text>
<polygon fill="#ffffff" stroke="transparent" points="181,-416 181,-432 277,-432 277,-416 181,-416"/>
<text text-anchor="start" x="253" y="-421.2" font-family="Helvetica,sans-Serif" font-size="11.00">11 &gt;</text>
<polygon fill="black" stroke="black" points="100,-416 100,-432 100,-432 100,-416 100,-416"/>
<polygon fill="black" stroke="black" points="181,-416 181,-432 181,-432 181,-416 181,-416"/>
</a>
</g>
</g>
<!-- cof_pesagem&#45;&gt;cof_equipments -->
<g id="edge3" class="edge">
<title>cof_pesagem:w&#45;&gt;cof_equipments:e</title>
<path fill="none" stroke="black" d="M313.94,-407.09C248.13,-429 369.68,-616 279,-616"/>
<polygon fill="black" stroke="black" points="320.58,-406.14 329.01,-408.56 324.54,-405.57 328.5,-405 328.5,-405 328.5,-405 324.54,-405.57 327.99,-401.44 320.58,-406.14 320.58,-406.14"/>
<ellipse fill="none" stroke="black" cx="317.41" cy="-406.59" rx="3.2" ry="3.2"/>
</g>
</g>
</svg>
