<?xml version="1.0" encoding="UTF-8" standalone="no"?>
<!DOCTYPE svg PUBLIC "-//W3C//DTD SVG 1.1//EN"
 "http://www.w3.org/Graphics/SVG/1.1/DTD/svg11.dtd">
<!-- Generated by graphviz version 2.43.0 (0)
 -->
<!-- Title: oneDegreeRelationshipsDiagram Pages: 1 -->
<svg width="848pt" height="667pt"
 viewBox="0.00 0.00 848.00 667.00" xmlns="http://www.w3.org/2000/svg" xmlns:xlink="http://www.w3.org/1999/xlink">
<g id="graph0" class="graph" transform="scale(1 1) rotate(0) translate(4 663)">
<title>oneDegreeRelationshipsDiagram</title>
<polygon fill="#ffffff" stroke="transparent" points="-4,4 -4,-663 844,-663 844,4 -4,4"/>
<text text-anchor="middle" x="71.5" y="-7.2" font-family="Helvetica,sans-Serif" font-size="11.00">Generated by SchemaSpy</text>
<!-- cof_pp_recursos -->
<g id="node1" class="node">
<title>cof_pp_recursos</title>
<g id="a_node1"><a xlink:href="../../tables/cof_pp_recursos.html" xlink:title="cof_pp_recursos" target="_top">
<polygon fill="#ffffff" stroke="transparent" points="266,-442 266,-632 491,-632 491,-442 266,-442"/>
<polygon fill="#f5f5f5" stroke="transparent" points="266.5,-610 266.5,-632 491.5,-632 491.5,-610 266.5,-610"/>
<polygon fill="none" stroke="black" points="266.5,-610 266.5,-632 491.5,-632 491.5,-610 266.5,-610"/>
<text text-anchor="start" x="271.5" y="-619.2" font-family="Helvetica,sans-Serif" font-weight="bold" font-size="11.00">cof_pp_recursos</text>
<text text-anchor="start" x="456.5" y="-618.2" font-family="Helvetica,sans-Serif" font-size="11.00">[table]</text>
<polygon fill="none" stroke="black" points="266.5,-588 266.5,-610 491.5,-610 491.5,-588 266.5,-588"/>
<image xlink:href="../../images/primaryKeys.png" width="11px" height="12px" preserveAspectRatio="xMinYMin meet" x="271.5" y="-605"/>
<text text-anchor="start" x="286.5" y="-596.2" font-family="Helvetica,sans-Serif" font-size="11.00">cof_pp_recursos_id</text>
<polygon fill="#ffffff" stroke="transparent" points="266.5,-566 266.5,-588 491.5,-588 491.5,-566 266.5,-566"/>
<polygon fill="none" stroke="black" points="266.5,-566 266.5,-588 491.5,-588 491.5,-566 266.5,-566"/>
<text text-anchor="start" x="286.5" y="-574.2" font-family="Helvetica,sans-Serif" font-size="11.00">cof_pp_recursos_uu</text>
<polygon fill="none" stroke="black" points="266.5,-544 266.5,-566 491.5,-566 491.5,-544 266.5,-544"/>
<image xlink:href="../../images/foreignKeys.png" width="11px" height="12px" preserveAspectRatio="xMinYMin meet" x="271.5" y="-561"/>
<text text-anchor="start" x="286.5" y="-552.2" font-family="Helvetica,sans-Serif" font-size="11.00">cof_pp_centrotrabalho_id</text>
<polygon fill="none" stroke="black" points="266.5,-522 266.5,-544 491.5,-544 491.5,-522 266.5,-522"/>
<image xlink:href="../../images/foreignKeys.png" width="11px" height="12px" preserveAspectRatio="xMinYMin meet" x="271.5" y="-539"/>
<text text-anchor="start" x="286.5" y="-530.2" font-family="Helvetica,sans-Serif" font-size="11.00">user1_id</text>
<polygon fill="none" stroke="black" points="266.5,-500 266.5,-522 491.5,-522 491.5,-500 266.5,-500"/>
<image xlink:href="../../images/foreignKeys.png" width="11px" height="12px" preserveAspectRatio="xMinYMin meet" x="271.5" y="-517"/>
<text text-anchor="start" x="286.5" y="-508.2" font-family="Helvetica,sans-Serif" font-size="11.00">cof_pp_recursosubstituto_id</text>
<polygon fill="none" stroke="black" points="266.5,-478 266.5,-500 491.5,-500 491.5,-478 266.5,-478"/>
<image xlink:href="../../images/foreignKeys.png" width="11px" height="12px" preserveAspectRatio="xMinYMin meet" x="271.5" y="-495"/>
<text text-anchor="start" x="286.5" y="-486.2" font-family="Helvetica,sans-Serif" font-size="11.00">a_asset_id</text>
<polygon fill="none" stroke="black" points="266.5,-460 266.5,-478 491.5,-478 491.5,-460 266.5,-460"/>
<text text-anchor="start" x="269.5" y="-466.2" font-family="Helvetica,sans-Serif" font-size="11.00">...</text>
<polygon fill="#ffffff" stroke="transparent" points="266.5,-442 266.5,-460 491.5,-460 491.5,-442 266.5,-442"/>
<polygon fill="none" stroke="black" points="266.5,-442 266.5,-460 491.5,-460 491.5,-442 266.5,-442"/>
<polygon fill="#ffffff" stroke="transparent" points="267.5,-443 267.5,-459 345.5,-459 345.5,-443 267.5,-443"/>
<text text-anchor="start" x="269.5" y="-448.2" font-family="Helvetica,sans-Serif" font-size="11.00">&lt; 4</text>
<polygon fill="#ffffff" stroke="transparent" points="345.5,-443 345.5,-459 413.5,-459 413.5,-443 345.5,-443"/>
<text text-anchor="start" x="376" y="-448.2" font-family="Helvetica,sans-Serif" font-size="11.00"> &#160;</text>
<polygon fill="#ffffff" stroke="transparent" points="413.5,-443 413.5,-459 490.5,-459 490.5,-443 413.5,-443"/>
<text text-anchor="start" x="472.5" y="-448.2" font-family="Helvetica,sans-Serif" font-size="11.00">4 &gt;</text>
<polygon fill="black" stroke="black" points="345.5,-443 345.5,-459 345.5,-459 345.5,-443 345.5,-443"/>
<polygon fill="black" stroke="black" points="413.5,-443 413.5,-459 413.5,-459 413.5,-443 413.5,-443"/>
</a>
</g>
</g>
<!-- cof_pp_centrotrabalho -->
<g id="node2" class="node">
<title>cof_pp_centrotrabalho</title>
<g id="a_node2"><a xlink:href="../../tables/cof_pp_centrotrabalho.html" xlink:title="cof_pp_centrotrabalho" target="_top">
<polygon fill="#ffffff" stroke="transparent" points="8,-395 8,-519 217,-519 217,-395 8,-395"/>
<polygon fill="#f5f5f5" stroke="transparent" points="8.5,-497 8.5,-519 217.5,-519 217.5,-497 8.5,-497"/>
<polygon fill="none" stroke="black" points="8.5,-497 8.5,-519 217.5,-519 217.5,-497 8.5,-497"/>
<text text-anchor="start" x="13.5" y="-506.2" font-family="Helvetica,sans-Serif" font-weight="bold" font-size="11.00">cof_pp_centrotrabalho</text>
<text text-anchor="start" x="182.5" y="-505.2" font-family="Helvetica,sans-Serif" font-size="11.00">[table]</text>
<polygon fill="none" stroke="black" points="8.5,-475 8.5,-497 217.5,-497 217.5,-475 8.5,-475"/>
<image xlink:href="../../images/primaryKeys.png" width="11px" height="12px" preserveAspectRatio="xMinYMin meet" x="13.5" y="-492"/>
<text text-anchor="start" x="28.5" y="-483.2" font-family="Helvetica,sans-Serif" font-size="11.00">cof_pp_centrotrabalho_id</text>
<polygon fill="#ffffff" stroke="transparent" points="8.5,-453 8.5,-475 217.5,-475 217.5,-453 8.5,-453"/>
<polygon fill="none" stroke="black" points="8.5,-453 8.5,-475 217.5,-475 217.5,-453 8.5,-453"/>
<text text-anchor="start" x="28.5" y="-461.2" font-family="Helvetica,sans-Serif" font-size="11.00">cof_pp_centrotrabalho_uu</text>
<polygon fill="none" stroke="black" points="8.5,-431 8.5,-453 217.5,-453 217.5,-431 8.5,-431"/>
<image xlink:href="../../images/foreignKeys.png" width="11px" height="12px" preserveAspectRatio="xMinYMin meet" x="13.5" y="-448"/>
<text text-anchor="start" x="28.5" y="-439.2" font-family="Helvetica,sans-Serif" font-size="11.00">m_locator_id</text>
<polygon fill="none" stroke="black" points="8.5,-413 8.5,-431 217.5,-431 217.5,-413 8.5,-413"/>
<text text-anchor="start" x="11.5" y="-419.2" font-family="Helvetica,sans-Serif" font-size="11.00">...</text>
<polygon fill="#ffffff" stroke="transparent" points="8.5,-395 8.5,-413 217.5,-413 217.5,-395 8.5,-395"/>
<polygon fill="none" stroke="black" points="8.5,-395 8.5,-413 217.5,-413 217.5,-395 8.5,-395"/>
<polygon fill="#ffffff" stroke="transparent" points="9.5,-396 9.5,-412 81.5,-412 81.5,-396 9.5,-396"/>
<text text-anchor="start" x="11.5" y="-401.2" font-family="Helvetica,sans-Serif" font-size="11.00">&lt; 1</text>
<polygon fill="#ffffff" stroke="transparent" points="81.5,-396 81.5,-412 144.5,-412 144.5,-396 81.5,-396"/>
<text text-anchor="start" x="109.5" y="-401.2" font-family="Helvetica,sans-Serif" font-size="11.00"> &#160;</text>
<polygon fill="#ffffff" stroke="transparent" points="144.5,-396 144.5,-412 216.5,-412 216.5,-396 144.5,-396"/>
<text text-anchor="start" x="198.5" y="-401.2" font-family="Helvetica,sans-Serif" font-size="11.00">3 &gt;</text>
<polygon fill="black" stroke="black" points="81.5,-396 81.5,-412 81.5,-412 81.5,-396 81.5,-396"/>
<polygon fill="black" stroke="black" points="144.5,-396 144.5,-412 144.5,-412 144.5,-396 144.5,-396"/>
</a>
</g>
</g>
<!-- cof_pp_recursos&#45;&gt;cof_pp_centrotrabalho -->
<g id="edge1" class="edge">
<title>cof_pp_recursos:w&#45;&gt;cof_pp_centrotrabalho:e</title>
<path fill="none" stroke="black" d="M251.86,-550.04C235.59,-534.22 249.52,-486 218.5,-486"/>
<polygon fill="black" stroke="black" points="257.98,-552.26 264.27,-558.38 261.74,-553.63 265.5,-555 265.5,-555 265.5,-555 261.74,-553.63 266.73,-551.62 257.98,-552.26 257.98,-552.26"/>
<ellipse fill="none" stroke="black" cx="254.98" cy="-551.17" rx="3.2" ry="3.2"/>
</g>
<!-- cof_pp_roteirodetalhe -->
<g id="node3" class="node">
<title>cof_pp_roteirodetalhe</title>
<g id="a_node3"><a xlink:href="../../tables/cof_pp_roteirodetalhe.html" xlink:title="cof_pp_roteirodetalhe" target="_top">
<polygon fill="#ffffff" stroke="transparent" points="540,-281 540,-655 832,-655 832,-281 540,-281"/>
<polygon fill="#f5f5f5" stroke="transparent" points="542,-631 542,-653 830,-653 830,-631 542,-631"/>
<polygon fill="none" stroke="black" points="542,-631 542,-653 830,-653 830,-631 542,-631"/>
<text text-anchor="start" x="547" y="-640.2" font-family="Helvetica,sans-Serif" font-weight="bold" font-size="11.00">cof_pp_roteirodetalhe</text>
<text text-anchor="start" x="795" y="-639.2" font-family="Helvetica,sans-Serif" font-size="11.00">[table]</text>
<polygon fill="none" stroke="black" points="542,-609 542,-631 747,-631 747,-609 542,-609"/>
<image xlink:href="../../images/primaryKeys.png" width="11px" height="12px" preserveAspectRatio="xMinYMin meet" x="547" y="-626"/>
<text text-anchor="start" x="562" y="-617.2" font-family="Helvetica,sans-Serif" font-size="11.00">cof_pp_roteirodetalhe_id</text>
<polygon fill="none" stroke="black" points="747,-609 747,-631 830,-631 830,-609 747,-609"/>
<text text-anchor="start" x="750" y="-617.2" font-family="Helvetica,sans-Serif" font-size="11.00">numeric[10]</text>
<polygon fill="#ffffff" stroke="transparent" points="542,-587 542,-609 747,-609 747,-587 542,-587"/>
<polygon fill="none" stroke="black" points="542,-587 542,-609 747,-609 747,-587 542,-587"/>
<text text-anchor="start" x="562" y="-595.2" font-family="Helvetica,sans-Serif" font-size="11.00">cof_pp_roteirodetalhe_uu</text>
<polygon fill="none" stroke="black" points="747,-587 747,-609 830,-609 830,-587 747,-587"/>
<text text-anchor="start" x="750" y="-595.2" font-family="Helvetica,sans-Serif" font-size="11.00">varchar[36]</text>
<polygon fill="none" stroke="black" points="542,-565 542,-587 747,-587 747,-565 542,-565"/>
<text text-anchor="start" x="562" y="-573.2" font-family="Helvetica,sans-Serif" font-size="11.00">ad_client_id</text>
<polygon fill="none" stroke="black" points="747,-565 747,-587 830,-587 830,-565 747,-565"/>
<text text-anchor="start" x="750" y="-573.2" font-family="Helvetica,sans-Serif" font-size="11.00">numeric[10]</text>
<polygon fill="none" stroke="black" points="542,-543 542,-565 747,-565 747,-543 542,-543"/>
<text text-anchor="start" x="562" y="-551.2" font-family="Helvetica,sans-Serif" font-size="11.00">ad_org_id</text>
<polygon fill="none" stroke="black" points="747,-543 747,-565 830,-565 830,-543 747,-543"/>
<text text-anchor="start" x="750" y="-551.2" font-family="Helvetica,sans-Serif" font-size="11.00">numeric[10]</text>
<polygon fill="none" stroke="black" points="542,-521 542,-543 747,-543 747,-521 542,-521"/>
<text text-anchor="start" x="562" y="-529.2" font-family="Helvetica,sans-Serif" font-size="11.00">isactive</text>
<polygon fill="none" stroke="black" points="747,-521 747,-543 830,-543 830,-521 747,-521"/>
<text text-anchor="start" x="750" y="-529.2" font-family="Helvetica,sans-Serif" font-size="11.00">bpchar[1]</text>
<polygon fill="none" stroke="black" points="542,-499 542,-521 747,-521 747,-499 542,-499"/>
<text text-anchor="start" x="562" y="-507.2" font-family="Helvetica,sans-Serif" font-size="11.00">created</text>
<polygon fill="none" stroke="black" points="747,-499 747,-521 830,-521 830,-499 747,-499"/>
<text text-anchor="start" x="750" y="-507.2" font-family="Helvetica,sans-Serif" font-size="11.00">timestamp[29,6]</text>
<polygon fill="none" stroke="black" points="542,-477 542,-499 747,-499 747,-477 542,-477"/>
<text text-anchor="start" x="562" y="-485.2" font-family="Helvetica,sans-Serif" font-size="11.00">createdby</text>
<polygon fill="none" stroke="black" points="747,-477 747,-499 830,-499 830,-477 747,-477"/>
<text text-anchor="start" x="750" y="-485.2" font-family="Helvetica,sans-Serif" font-size="11.00">numeric[10]</text>
<polygon fill="none" stroke="black" points="542,-455 542,-477 747,-477 747,-455 542,-455"/>
<text text-anchor="start" x="562" y="-463.2" font-family="Helvetica,sans-Serif" font-size="11.00">updated</text>
<polygon fill="none" stroke="black" points="747,-455 747,-477 830,-477 830,-455 747,-455"/>
<text text-anchor="start" x="750" y="-463.2" font-family="Helvetica,sans-Serif" font-size="11.00">timestamp[29,6]</text>
<polygon fill="none" stroke="black" points="542,-433 542,-455 747,-455 747,-433 542,-433"/>
<text text-anchor="start" x="562" y="-441.2" font-family="Helvetica,sans-Serif" font-size="11.00">updatedby</text>
<polygon fill="none" stroke="black" points="747,-433 747,-455 830,-455 830,-433 747,-433"/>
<text text-anchor="start" x="750" y="-441.2" font-family="Helvetica,sans-Serif" font-size="11.00">numeric[10]</text>
<polygon fill="none" stroke="black" points="542,-411 542,-433 747,-433 747,-411 542,-411"/>
<image xlink:href="../../images/foreignKeys.png" width="11px" height="12px" preserveAspectRatio="xMinYMin meet" x="547" y="-428"/>
<text text-anchor="start" x="562" y="-419.2" font-family="Helvetica,sans-Serif" font-size="11.00">cof_pp_recursos_id</text>
<polygon fill="none" stroke="black" points="747,-411 747,-433 830,-433 830,-411 747,-411"/>
<text text-anchor="start" x="750" y="-419.2" font-family="Helvetica,sans-Serif" font-size="11.00">numeric[10]</text>
<polygon fill="none" stroke="black" points="542,-389 542,-411 747,-411 747,-389 542,-389"/>
<image xlink:href="../../images/foreignKeys.png" width="11px" height="12px" preserveAspectRatio="xMinYMin meet" x="547" y="-406"/>
<text text-anchor="start" x="562" y="-397.2" font-family="Helvetica,sans-Serif" font-size="11.00">cof_pp_centrotrabalho_id</text>
<polygon fill="none" stroke="black" points="747,-389 747,-411 830,-411 830,-389 747,-389"/>
<text text-anchor="start" x="750" y="-397.2" font-family="Helvetica,sans-Serif" font-size="11.00">numeric[10]</text>
<polygon fill="none" stroke="black" points="542,-367 542,-389 747,-389 747,-367 542,-367"/>
<image xlink:href="../../images/foreignKeys.png" width="11px" height="12px" preserveAspectRatio="xMinYMin meet" x="547" y="-384"/>
<text text-anchor="start" x="562" y="-375.2" font-family="Helvetica,sans-Serif" font-size="11.00">cof_pp_ferramenta_id</text>
<polygon fill="none" stroke="black" points="747,-367 747,-389 830,-389 830,-367 747,-367"/>
<text text-anchor="start" x="750" y="-375.2" font-family="Helvetica,sans-Serif" font-size="11.00">numeric[10]</text>
<polygon fill="none" stroke="black" points="542,-345 542,-367 747,-367 747,-345 542,-345"/>
<text text-anchor="start" x="562" y="-353.2" font-family="Helvetica,sans-Serif" font-size="11.00">cof_pp_qtdhorassetup</text>
<polygon fill="none" stroke="black" points="747,-345 747,-367 830,-367 830,-345 747,-345"/>
<text text-anchor="start" x="750" y="-353.2" font-family="Helvetica,sans-Serif" font-size="11.00">numeric[0]</text>
<polygon fill="none" stroke="black" points="542,-323 542,-345 747,-345 747,-323 542,-323"/>
<text text-anchor="start" x="562" y="-331.2" font-family="Helvetica,sans-Serif" font-size="11.00">cof_pp_horasciclo</text>
<polygon fill="none" stroke="black" points="747,-323 747,-345 830,-345 830,-323 747,-323"/>
<text text-anchor="start" x="750" y="-331.2" font-family="Helvetica,sans-Serif" font-size="11.00">numeric[0]</text>
<polygon fill="none" stroke="black" points="542,-301 542,-323 747,-323 747,-301 542,-301"/>
<image xlink:href="../../images/foreignKeys.png" width="11px" height="12px" preserveAspectRatio="xMinYMin meet" x="547" y="-318"/>
<text text-anchor="start" x="562" y="-309.2" font-family="Helvetica,sans-Serif" font-size="11.00">cof_pp_roteiroprod_id</text>
<polygon fill="none" stroke="black" points="747,-301 747,-323 830,-323 830,-301 747,-301"/>
<text text-anchor="start" x="750" y="-309.2" font-family="Helvetica,sans-Serif" font-size="11.00">numeric[10]</text>
<polygon fill="#ffffff" stroke="transparent" points="542,-283 542,-301 830,-301 830,-283 542,-283"/>
<polygon fill="none" stroke="black" points="542,-283 542,-301 830,-301 830,-283 542,-283"/>
<polygon fill="#ffffff" stroke="transparent" points="543,-284 543,-300 642,-300 642,-284 543,-284"/>
<text text-anchor="start" x="545" y="-289.2" font-family="Helvetica,sans-Serif" font-size="11.00">&lt; 4</text>
<polygon fill="#ffffff" stroke="transparent" points="642,-284 642,-300 731,-300 731,-284 642,-284"/>
<text text-anchor="start" x="683" y="-289.2" font-family="Helvetica,sans-Serif" font-size="11.00"> &#160;</text>
<polygon fill="#ffffff" stroke="transparent" points="731,-284 731,-300 829,-300 829,-284 731,-284"/>
<text text-anchor="start" x="811" y="-289.2" font-family="Helvetica,sans-Serif" font-size="11.00">0 &gt;</text>
<polygon fill="black" stroke="black" points="642,-284 642,-300 642,-300 642,-284 642,-284"/>
<polygon fill="black" stroke="black" points="731,-284 731,-300 731,-300 731,-284 731,-284"/>
<polygon fill="none" stroke="black" stroke-width="2" points="541,-282 541,-654 831,-654 831,-282 541,-282"/>
</a>
</g>
</g>
<!-- cof_pp_roteirodetalhe&#45;&gt;cof_pp_recursos -->
<g id="edge4" class="edge">
<title>cof_pp_roteirodetalhe:w&#45;&gt;cof_pp_recursos:e</title>
<path fill="none" stroke="black" d="M526.57,-424.5C474.58,-446.02 568.33,-599 492.5,-599"/>
<polygon fill="black" stroke="black" points="533.12,-423.37 541.61,-425.55 537.06,-422.68 541,-422 541,-422 541,-422 537.06,-422.68 540.39,-418.45 533.12,-423.37 533.12,-423.37"/>
<ellipse fill="none" stroke="black" cx="529.96" cy="-423.91" rx="3.2" ry="3.2"/>
</g>
<!-- cof_pp_roteirodetalhe&#45;&gt;cof_pp_centrotrabalho -->
<g id="edge2" class="edge">
<title>cof_pp_roteirodetalhe:w&#45;&gt;cof_pp_centrotrabalho:e</title>
<path fill="none" stroke="black" d="M526.39,-400.76C517.85,-401.75 511.69,-403.53 499,-405 445.47,-411.19 304.62,-404.97 258,-432 232.28,-446.91 248.24,-486 218.5,-486"/>
<polygon fill="black" stroke="black" points="533.01,-400.42 541.19,-403.6 537.01,-400.21 541,-400 541,-400 541,-400 537.01,-400.21 540.81,-396.4 533.01,-400.42 533.01,-400.42"/>
<ellipse fill="none" stroke="black" cx="529.82" cy="-400.58" rx="3.2" ry="3.2"/>
</g>
<!-- cof_pp_ferramenta -->
<g id="node4" class="node">
<title>cof_pp_ferramenta</title>
<g id="a_node4"><a xlink:href="../../tables/cof_pp_ferramenta.html" xlink:title="cof_pp_ferramenta" target="_top">
<polygon fill="#ffffff" stroke="transparent" points="287.5,-270 287.5,-394 469.5,-394 469.5,-270 287.5,-270"/>
<polygon fill="#f5f5f5" stroke="transparent" points="287.5,-372 287.5,-394 469.5,-394 469.5,-372 287.5,-372"/>
<polygon fill="none" stroke="black" points="287.5,-372 287.5,-394 469.5,-394 469.5,-372 287.5,-372"/>
<text text-anchor="start" x="292.5" y="-381.2" font-family="Helvetica,sans-Serif" font-weight="bold" font-size="11.00">cof_pp_ferramenta</text>
<text text-anchor="start" x="434.5" y="-380.2" font-family="Helvetica,sans-Serif" font-size="11.00">[table]</text>
<polygon fill="none" stroke="black" points="287.5,-350 287.5,-372 469.5,-372 469.5,-350 287.5,-350"/>
<image xlink:href="../../images/primaryKeys.png" width="11px" height="12px" preserveAspectRatio="xMinYMin meet" x="292.5" y="-367"/>
<text text-anchor="start" x="307.5" y="-358.2" font-family="Helvetica,sans-Serif" font-size="11.00">cof_pp_ferramenta_id</text>
<polygon fill="#ffffff" stroke="transparent" points="287.5,-328 287.5,-350 469.5,-350 469.5,-328 287.5,-328"/>
<polygon fill="none" stroke="black" points="287.5,-328 287.5,-350 469.5,-350 469.5,-328 287.5,-328"/>
<text text-anchor="start" x="307.5" y="-336.2" font-family="Helvetica,sans-Serif" font-size="11.00">cof_pp_ferramenta_uu</text>
<polygon fill="none" stroke="black" points="287.5,-306 287.5,-328 469.5,-328 469.5,-306 287.5,-306"/>
<image xlink:href="../../images/foreignKeys.png" width="11px" height="12px" preserveAspectRatio="xMinYMin meet" x="292.5" y="-323"/>
<text text-anchor="start" x="307.5" y="-314.2" font-family="Helvetica,sans-Serif" font-size="11.00">a_asset_id</text>
<polygon fill="none" stroke="black" points="287.5,-288 287.5,-306 469.5,-306 469.5,-288 287.5,-288"/>
<text text-anchor="start" x="290.5" y="-294.2" font-family="Helvetica,sans-Serif" font-size="11.00">...</text>
<polygon fill="#ffffff" stroke="transparent" points="287.5,-270 287.5,-288 469.5,-288 469.5,-270 287.5,-270"/>
<polygon fill="none" stroke="black" points="287.5,-270 287.5,-288 469.5,-288 469.5,-270 287.5,-270"/>
<polygon fill="#ffffff" stroke="transparent" points="288.5,-271 288.5,-287 351.5,-287 351.5,-271 288.5,-271"/>
<text text-anchor="start" x="290.5" y="-276.2" font-family="Helvetica,sans-Serif" font-size="11.00">&lt; 1</text>
<polygon fill="#ffffff" stroke="transparent" points="351.5,-271 351.5,-287 405.5,-287 405.5,-271 351.5,-271"/>
<text text-anchor="start" x="375" y="-276.2" font-family="Helvetica,sans-Serif" font-size="11.00"> &#160;</text>
<polygon fill="#ffffff" stroke="transparent" points="405.5,-271 405.5,-287 468.5,-287 468.5,-271 405.5,-271"/>
<text text-anchor="start" x="450.5" y="-276.2" font-family="Helvetica,sans-Serif" font-size="11.00">4 &gt;</text>
<polygon fill="black" stroke="black" points="351.5,-271 351.5,-287 351.5,-287 351.5,-271 351.5,-271"/>
<polygon fill="black" stroke="black" points="405.5,-271 405.5,-287 405.5,-287 405.5,-271 405.5,-271"/>
</a>
</g>
</g>
<!-- cof_pp_roteirodetalhe&#45;&gt;cof_pp_ferramenta -->
<g id="edge3" class="edge">
<title>cof_pp_roteirodetalhe:w&#45;&gt;cof_pp_ferramenta:e</title>
<path fill="none" stroke="black" d="M526.44,-376.67C505.92,-372.66 497.19,-361 470.5,-361"/>
<polygon fill="black" stroke="black" points="533.03,-377.27 540.67,-381.58 537.02,-377.64 541,-378 541,-378 541,-378 537.02,-377.64 541.33,-374.42 533.03,-377.27 533.03,-377.27"/>
<ellipse fill="none" stroke="black" cx="529.85" cy="-376.98" rx="3.2" ry="3.2"/>
</g>
<!-- cof_pp_roteiroprod -->
<g id="node5" class="node">
<title>cof_pp_roteiroprod</title>
<g id="a_node5"><a xlink:href="../../tables/cof_pp_roteiroprod.html" xlink:title="cof_pp_roteiroprod" target="_top">
<polygon fill="#ffffff" stroke="transparent" points="284.5,-37 284.5,-249 472.5,-249 472.5,-37 284.5,-37"/>
<polygon fill="#f5f5f5" stroke="transparent" points="284.5,-227 284.5,-249 472.5,-249 472.5,-227 284.5,-227"/>
<polygon fill="none" stroke="black" points="284.5,-227 284.5,-249 472.5,-249 472.5,-227 284.5,-227"/>
<text text-anchor="start" x="289.5" y="-236.2" font-family="Helvetica,sans-Serif" font-weight="bold" font-size="11.00">cof_pp_roteiroprod</text>
<text text-anchor="start" x="437.5" y="-235.2" font-family="Helvetica,sans-Serif" font-size="11.00">[table]</text>
<polygon fill="none" stroke="black" points="284.5,-205 284.5,-227 472.5,-227 472.5,-205 284.5,-205"/>
<image xlink:href="../../images/primaryKeys.png" width="11px" height="12px" preserveAspectRatio="xMinYMin meet" x="289.5" y="-222"/>
<text text-anchor="start" x="304.5" y="-213.2" font-family="Helvetica,sans-Serif" font-size="11.00">cof_pp_roteiroprod_id</text>
<polygon fill="#ffffff" stroke="transparent" points="284.5,-183 284.5,-205 472.5,-205 472.5,-183 284.5,-183"/>
<polygon fill="none" stroke="black" points="284.5,-183 284.5,-205 472.5,-205 472.5,-183 284.5,-183"/>
<text text-anchor="start" x="304.5" y="-191.2" font-family="Helvetica,sans-Serif" font-size="11.00">cof_pp_roteiroprod_uu</text>
<polygon fill="none" stroke="black" points="284.5,-161 284.5,-183 472.5,-183 472.5,-161 284.5,-161"/>
<image xlink:href="../../images/foreignKeys.png" width="11px" height="12px" preserveAspectRatio="xMinYMin meet" x="289.5" y="-178"/>
<text text-anchor="start" x="304.5" y="-169.2" font-family="Helvetica,sans-Serif" font-size="11.00">m_product_id</text>
<polygon fill="none" stroke="black" points="284.5,-139 284.5,-161 472.5,-161 472.5,-139 284.5,-139"/>
<image xlink:href="../../images/foreignKeys.png" width="11px" height="12px" preserveAspectRatio="xMinYMin meet" x="289.5" y="-156"/>
<text text-anchor="start" x="304.5" y="-147.2" font-family="Helvetica,sans-Serif" font-size="11.00">cof_producttype_id</text>
<polygon fill="none" stroke="black" points="284.5,-117 284.5,-139 472.5,-139 472.5,-117 284.5,-117"/>
<image xlink:href="../../images/foreignKeys.png" width="11px" height="12px" preserveAspectRatio="xMinYMin meet" x="289.5" y="-134"/>
<text text-anchor="start" x="304.5" y="-125.2" font-family="Helvetica,sans-Serif" font-size="11.00">cof_productclass_id</text>
<polygon fill="none" stroke="black" points="284.5,-95 284.5,-117 472.5,-117 472.5,-95 284.5,-95"/>
<image xlink:href="../../images/foreignKeys.png" width="11px" height="12px" preserveAspectRatio="xMinYMin meet" x="289.5" y="-112"/>
<text text-anchor="start" x="304.5" y="-103.2" font-family="Helvetica,sans-Serif" font-size="11.00">cof_productgroup_id</text>
<polygon fill="none" stroke="black" points="284.5,-73 284.5,-95 472.5,-95 472.5,-73 284.5,-73"/>
<image xlink:href="../../images/foreignKeys.png" width="11px" height="12px" preserveAspectRatio="xMinYMin meet" x="289.5" y="-90"/>
<text text-anchor="start" x="304.5" y="-81.2" font-family="Helvetica,sans-Serif" font-size="11.00">c_uom_id</text>
<polygon fill="none" stroke="black" points="284.5,-55 284.5,-73 472.5,-73 472.5,-55 284.5,-55"/>
<text text-anchor="start" x="287.5" y="-61.2" font-family="Helvetica,sans-Serif" font-size="11.00">...</text>
<polygon fill="#ffffff" stroke="transparent" points="284.5,-37 284.5,-55 472.5,-55 472.5,-37 284.5,-37"/>
<polygon fill="none" stroke="black" points="284.5,-37 284.5,-55 472.5,-55 472.5,-37 284.5,-37"/>
<polygon fill="#ffffff" stroke="transparent" points="285.5,-38 285.5,-54 350.5,-54 350.5,-38 285.5,-38"/>
<text text-anchor="start" x="287.5" y="-43.2" font-family="Helvetica,sans-Serif" font-size="11.00">&lt; 5</text>
<polygon fill="#ffffff" stroke="transparent" points="350.5,-38 350.5,-54 406.5,-54 406.5,-38 350.5,-38"/>
<text text-anchor="start" x="375" y="-43.2" font-family="Helvetica,sans-Serif" font-size="11.00"> &#160;</text>
<polygon fill="#ffffff" stroke="transparent" points="406.5,-38 406.5,-54 471.5,-54 471.5,-38 406.5,-38"/>
<text text-anchor="start" x="453.5" y="-43.2" font-family="Helvetica,sans-Serif" font-size="11.00">2 &gt;</text>
<polygon fill="black" stroke="black" points="350.5,-38 350.5,-54 350.5,-54 350.5,-38 350.5,-38"/>
<polygon fill="black" stroke="black" points="406.5,-38 406.5,-54 406.5,-54 406.5,-38 406.5,-38"/>
</a>
</g>
</g>
<!-- cof_pp_roteirodetalhe&#45;&gt;cof_pp_roteiroprod -->
<g id="edge5" class="edge">
<title>cof_pp_roteirodetalhe:w&#45;&gt;cof_pp_roteiroprod:e</title>
<path fill="none" stroke="black" d="M526.85,-308.81C495.83,-292.15 519.95,-216 473.5,-216"/>
<polygon fill="black" stroke="black" points="533.2,-310.24 540.21,-315.51 537.1,-311.12 541,-312 541,-312 541,-312 537.1,-311.12 541.79,-308.49 533.2,-310.24 533.2,-310.24"/>
<ellipse fill="none" stroke="black" cx="530.07" cy="-309.53" rx="3.2" ry="3.2"/>
</g>
</g>
</svg>
