<?xml version="1.0" encoding="UTF-8" standalone="no"?>
<!DOCTYPE svg PUBLIC "-//W3C//DTD SVG 1.1//EN"
 "http://www.w3.org/Graphics/SVG/1.1/DTD/svg11.dtd">
<!-- Generated by graphviz version 2.43.0 (0)
 -->
<!-- Title: oneDegreeRelationshipsDiagram Pages: 1 -->
<svg width="764pt" height="610pt"
 viewBox="0.00 0.00 764.00 610.00" xmlns="http://www.w3.org/2000/svg" xmlns:xlink="http://www.w3.org/1999/xlink">
<g id="graph0" class="graph" transform="scale(1 1) rotate(0) translate(4 606)">
<title>oneDegreeRelationshipsDiagram</title>
<polygon fill="#ffffff" stroke="transparent" points="-4,4 -4,-606 760,-606 760,4 -4,4"/>
<text text-anchor="middle" x="71.5" y="-7.2" font-family="Helvetica,sans-Serif" font-size="11.00">Generated by SchemaSpy</text>
<!-- cof_pneu -->
<g id="node1" class="node">
<title>cof_pneu</title>
<g id="a_node1"><a xlink:href="../../tables/cof_pneu.html" xlink:title="cof_pneu" target="_top">
<polygon fill="#ffffff" stroke="transparent" points="307,-342 307,-598 491,-598 491,-342 307,-342"/>
<polygon fill="#f5f5f5" stroke="transparent" points="307,-576 307,-598 491,-598 491,-576 307,-576"/>
<polygon fill="none" stroke="black" points="307,-576 307,-598 491,-598 491,-576 307,-576"/>
<text text-anchor="start" x="312" y="-585.2" font-family="Helvetica,sans-Serif" font-weight="bold" font-size="11.00">cof_pneu</text>
<text text-anchor="start" x="456" y="-584.2" font-family="Helvetica,sans-Serif" font-size="11.00">[table]</text>
<polygon fill="none" stroke="black" points="307,-554 307,-576 491,-576 491,-554 307,-554"/>
<image xlink:href="../../images/primaryKeys.png" width="11px" height="12px" preserveAspectRatio="xMinYMin meet" x="312" y="-571"/>
<text text-anchor="start" x="327" y="-562.2" font-family="Helvetica,sans-Serif" font-size="11.00">cof_pneu_id</text>
<polygon fill="#ffffff" stroke="transparent" points="307,-532 307,-554 491,-554 491,-532 307,-532"/>
<polygon fill="none" stroke="black" points="307,-532 307,-554 491,-554 491,-532 307,-532"/>
<text text-anchor="start" x="327" y="-540.2" font-family="Helvetica,sans-Serif" font-size="11.00">cof_pneu_uu</text>
<polygon fill="none" stroke="black" points="307,-510 307,-532 491,-532 491,-510 307,-510"/>
<image xlink:href="../../images/foreignKeys.png" width="11px" height="12px" preserveAspectRatio="xMinYMin meet" x="312" y="-527"/>
<text text-anchor="start" x="327" y="-518.2" font-family="Helvetica,sans-Serif" font-size="11.00">lbr_docfiscal_id</text>
<polygon fill="none" stroke="black" points="307,-488 307,-510 491,-510 491,-488 307,-488"/>
<image xlink:href="../../images/foreignKeys.png" width="11px" height="12px" preserveAspectRatio="xMinYMin meet" x="312" y="-505"/>
<text text-anchor="start" x="327" y="-496.2" font-family="Helvetica,sans-Serif" font-size="11.00">mp_meter_id</text>
<polygon fill="none" stroke="black" points="307,-466 307,-488 491,-488 491,-466 307,-466"/>
<image xlink:href="../../images/foreignKeys.png" width="11px" height="12px" preserveAspectRatio="xMinYMin meet" x="312" y="-483"/>
<text text-anchor="start" x="327" y="-474.2" font-family="Helvetica,sans-Serif" font-size="11.00">cof_equipments_id</text>
<polygon fill="none" stroke="black" points="307,-444 307,-466 491,-466 491,-444 307,-444"/>
<image xlink:href="../../images/foreignKeys.png" width="11px" height="12px" preserveAspectRatio="xMinYMin meet" x="312" y="-461"/>
<text text-anchor="start" x="327" y="-452.2" font-family="Helvetica,sans-Serif" font-size="11.00">cof_pneu_dimensao_id</text>
<polygon fill="none" stroke="black" points="307,-422 307,-444 491,-444 491,-422 307,-422"/>
<image xlink:href="../../images/foreignKeys.png" width="11px" height="12px" preserveAspectRatio="xMinYMin meet" x="312" y="-439"/>
<text text-anchor="start" x="327" y="-430.2" font-family="Helvetica,sans-Serif" font-size="11.00">cof_pneu_marca_id</text>
<polygon fill="none" stroke="black" points="307,-400 307,-422 491,-422 491,-400 307,-400"/>
<image xlink:href="../../images/foreignKeys.png" width="11px" height="12px" preserveAspectRatio="xMinYMin meet" x="312" y="-417"/>
<text text-anchor="start" x="327" y="-408.2" font-family="Helvetica,sans-Serif" font-size="11.00">cof_pneu_tipo_id</text>
<polygon fill="none" stroke="black" points="307,-378 307,-400 491,-400 491,-378 307,-378"/>
<image xlink:href="../../images/foreignKeys.png" width="11px" height="12px" preserveAspectRatio="xMinYMin meet" x="312" y="-395"/>
<text text-anchor="start" x="327" y="-386.2" font-family="Helvetica,sans-Serif" font-size="11.00">cof_pneu_status_id</text>
<polygon fill="none" stroke="black" points="307,-360 307,-378 491,-378 491,-360 307,-360"/>
<text text-anchor="start" x="310" y="-366.2" font-family="Helvetica,sans-Serif" font-size="11.00">...</text>
<polygon fill="#ffffff" stroke="transparent" points="307,-342 307,-360 491,-360 491,-342 307,-342"/>
<polygon fill="none" stroke="black" points="307,-342 307,-360 491,-360 491,-342 307,-342"/>
<polygon fill="#ffffff" stroke="transparent" points="308,-343 308,-359 372,-359 372,-343 308,-343"/>
<text text-anchor="start" x="310" y="-348.2" font-family="Helvetica,sans-Serif" font-size="11.00">&lt; 7</text>
<polygon fill="#ffffff" stroke="transparent" points="372,-343 372,-359 427,-359 427,-343 372,-343"/>
<text text-anchor="start" x="396" y="-348.2" font-family="Helvetica,sans-Serif" font-size="11.00"> &#160;</text>
<polygon fill="#ffffff" stroke="transparent" points="427,-343 427,-359 490,-359 490,-343 427,-343"/>
<text text-anchor="start" x="472" y="-348.2" font-family="Helvetica,sans-Serif" font-size="11.00">2 &gt;</text>
<polygon fill="black" stroke="black" points="372,-343 372,-359 372,-359 372,-343 372,-343"/>
<polygon fill="black" stroke="black" points="427,-343 427,-359 427,-359 427,-343 427,-343"/>
</a>
</g>
</g>
<!-- cof_pneu_status -->
<g id="node2" class="node">
<title>cof_pneu_status</title>
<g id="a_node2"><a xlink:href="../../tables/cof_pneu_status.html" xlink:title="cof_pneu_status" target="_top">
<polygon fill="#ffffff" stroke="transparent" points="8,-37 8,-389 258,-389 258,-37 8,-37"/>
<polygon fill="#f5f5f5" stroke="transparent" points="10,-365 10,-387 256,-387 256,-365 10,-365"/>
<polygon fill="none" stroke="black" points="10,-365 10,-387 256,-387 256,-365 10,-365"/>
<text text-anchor="start" x="15" y="-374.2" font-family="Helvetica,sans-Serif" font-weight="bold" font-size="11.00">cof_pneu_status</text>
<text text-anchor="start" x="221" y="-373.2" font-family="Helvetica,sans-Serif" font-size="11.00">[table]</text>
<polygon fill="none" stroke="black" points="10,-343 10,-365 173,-365 173,-343 10,-343"/>
<image xlink:href="../../images/primaryKeys.png" width="11px" height="12px" preserveAspectRatio="xMinYMin meet" x="15" y="-360"/>
<text text-anchor="start" x="30" y="-351.2" font-family="Helvetica,sans-Serif" font-size="11.00">cof_pneu_status_id</text>
<polygon fill="none" stroke="black" points="173,-343 173,-365 256,-365 256,-343 173,-343"/>
<text text-anchor="start" x="176" y="-351.2" font-family="Helvetica,sans-Serif" font-size="11.00">numeric[10]</text>
<polygon fill="#ffffff" stroke="transparent" points="10,-321 10,-343 173,-343 173,-321 10,-321"/>
<polygon fill="none" stroke="black" points="10,-321 10,-343 173,-343 173,-321 10,-321"/>
<text text-anchor="start" x="30" y="-329.2" font-family="Helvetica,sans-Serif" font-size="11.00">cof_pneu_status_uu</text>
<polygon fill="none" stroke="black" points="173,-321 173,-343 256,-343 256,-321 173,-321"/>
<text text-anchor="start" x="176" y="-329.2" font-family="Helvetica,sans-Serif" font-size="11.00">varchar[36]</text>
<polygon fill="none" stroke="black" points="10,-299 10,-321 173,-321 173,-299 10,-299"/>
<text text-anchor="start" x="30" y="-307.2" font-family="Helvetica,sans-Serif" font-size="11.00">ad_client_id</text>
<polygon fill="none" stroke="black" points="173,-299 173,-321 256,-321 256,-299 173,-299"/>
<text text-anchor="start" x="176" y="-307.2" font-family="Helvetica,sans-Serif" font-size="11.00">numeric[10]</text>
<polygon fill="none" stroke="black" points="10,-277 10,-299 173,-299 173,-277 10,-277"/>
<text text-anchor="start" x="30" y="-285.2" font-family="Helvetica,sans-Serif" font-size="11.00">ad_org_id</text>
<polygon fill="none" stroke="black" points="173,-277 173,-299 256,-299 256,-277 173,-277"/>
<text text-anchor="start" x="176" y="-285.2" font-family="Helvetica,sans-Serif" font-size="11.00">numeric[10]</text>
<polygon fill="none" stroke="black" points="10,-255 10,-277 173,-277 173,-255 10,-255"/>
<text text-anchor="start" x="30" y="-263.2" font-family="Helvetica,sans-Serif" font-size="11.00">isactive</text>
<polygon fill="none" stroke="black" points="173,-255 173,-277 256,-277 256,-255 173,-255"/>
<text text-anchor="start" x="176" y="-263.2" font-family="Helvetica,sans-Serif" font-size="11.00">bpchar[1]</text>
<polygon fill="none" stroke="black" points="10,-233 10,-255 173,-255 173,-233 10,-233"/>
<text text-anchor="start" x="30" y="-241.2" font-family="Helvetica,sans-Serif" font-size="11.00">created</text>
<polygon fill="none" stroke="black" points="173,-233 173,-255 256,-255 256,-233 173,-233"/>
<text text-anchor="start" x="176" y="-241.2" font-family="Helvetica,sans-Serif" font-size="11.00">timestamp[29,6]</text>
<polygon fill="none" stroke="black" points="10,-211 10,-233 173,-233 173,-211 10,-211"/>
<text text-anchor="start" x="30" y="-219.2" font-family="Helvetica,sans-Serif" font-size="11.00">createdby</text>
<polygon fill="none" stroke="black" points="173,-211 173,-233 256,-233 256,-211 173,-211"/>
<text text-anchor="start" x="176" y="-219.2" font-family="Helvetica,sans-Serif" font-size="11.00">numeric[10]</text>
<polygon fill="none" stroke="black" points="10,-189 10,-211 173,-211 173,-189 10,-189"/>
<text text-anchor="start" x="30" y="-197.2" font-family="Helvetica,sans-Serif" font-size="11.00">updated</text>
<polygon fill="none" stroke="black" points="173,-189 173,-211 256,-211 256,-189 173,-189"/>
<text text-anchor="start" x="176" y="-197.2" font-family="Helvetica,sans-Serif" font-size="11.00">timestamp[29,6]</text>
<polygon fill="none" stroke="black" points="10,-167 10,-189 173,-189 173,-167 10,-167"/>
<text text-anchor="start" x="30" y="-175.2" font-family="Helvetica,sans-Serif" font-size="11.00">updatedby</text>
<polygon fill="none" stroke="black" points="173,-167 173,-189 256,-189 256,-167 173,-167"/>
<text text-anchor="start" x="176" y="-175.2" font-family="Helvetica,sans-Serif" font-size="11.00">numeric[10]</text>
<polygon fill="none" stroke="black" points="10,-145 10,-167 173,-167 173,-145 10,-145"/>
<text text-anchor="start" x="30" y="-153.2" font-family="Helvetica,sans-Serif" font-size="11.00">value</text>
<polygon fill="none" stroke="black" points="173,-145 173,-167 256,-167 256,-145 173,-145"/>
<text text-anchor="start" x="176" y="-153.2" font-family="Helvetica,sans-Serif" font-size="11.00">varchar[40]</text>
<polygon fill="none" stroke="black" points="10,-123 10,-145 173,-145 173,-123 10,-123"/>
<text text-anchor="start" x="30" y="-131.2" font-family="Helvetica,sans-Serif" font-size="11.00">name</text>
<polygon fill="none" stroke="black" points="173,-123 173,-145 256,-145 256,-123 173,-123"/>
<text text-anchor="start" x="176" y="-131.2" font-family="Helvetica,sans-Serif" font-size="11.00">varchar[60]</text>
<polygon fill="none" stroke="black" points="10,-101 10,-123 173,-123 173,-101 10,-101"/>
<text text-anchor="start" x="30" y="-109.2" font-family="Helvetica,sans-Serif" font-size="11.00">seqno</text>
<polygon fill="none" stroke="black" points="173,-101 173,-123 256,-123 256,-101 173,-101"/>
<text text-anchor="start" x="176" y="-109.2" font-family="Helvetica,sans-Serif" font-size="11.00">numeric[10]</text>
<polygon fill="none" stroke="black" points="10,-79 10,-101 173,-101 173,-79 10,-79"/>
<text text-anchor="start" x="30" y="-87.2" font-family="Helvetica,sans-Serif" font-size="11.00">description</text>
<polygon fill="none" stroke="black" points="173,-79 173,-101 256,-101 256,-79 173,-79"/>
<text text-anchor="start" x="176" y="-87.2" font-family="Helvetica,sans-Serif" font-size="11.00">varchar[255]</text>
<polygon fill="none" stroke="black" points="10,-57 10,-79 173,-79 173,-57 10,-57"/>
<text text-anchor="start" x="30" y="-65.2" font-family="Helvetica,sans-Serif" font-size="11.00">cof_fimvidautil</text>
<polygon fill="none" stroke="black" points="173,-57 173,-79 256,-79 256,-57 173,-57"/>
<text text-anchor="start" x="176" y="-65.2" font-family="Helvetica,sans-Serif" font-size="11.00">bpchar[1]</text>
<polygon fill="#ffffff" stroke="transparent" points="10,-39 10,-57 256,-57 256,-39 10,-39"/>
<polygon fill="none" stroke="black" points="10,-39 10,-57 256,-57 256,-39 10,-39"/>
<polygon fill="#ffffff" stroke="transparent" points="11,-40 11,-56 96,-56 96,-40 11,-40"/>
<text text-anchor="start" x="13" y="-45.2" font-family="Helvetica,sans-Serif" font-size="11.00">&lt; 0</text>
<polygon fill="#ffffff" stroke="transparent" points="96,-40 96,-56 171,-56 171,-40 96,-40"/>
<text text-anchor="start" x="130" y="-45.2" font-family="Helvetica,sans-Serif" font-size="11.00"> &#160;</text>
<polygon fill="#ffffff" stroke="transparent" points="171,-40 171,-56 255,-56 255,-40 171,-40"/>
<text text-anchor="start" x="237" y="-45.2" font-family="Helvetica,sans-Serif" font-size="11.00">2 &gt;</text>
<polygon fill="black" stroke="black" points="96,-40 96,-56 96,-56 96,-40 96,-40"/>
<polygon fill="black" stroke="black" points="171,-40 171,-56 171,-56 171,-40 171,-40"/>
<polygon fill="none" stroke="black" stroke-width="2" points="9,-38 9,-388 257,-388 257,-38 9,-38"/>
</a>
</g>
</g>
<!-- cof_pneu&#45;&gt;cof_pneu_status -->
<g id="edge1" class="edge">
<title>cof_pneu:w&#45;&gt;cof_pneu_status:e</title>
<path fill="none" stroke="black" d="M291.9,-384.42C279.68,-374.94 277.7,-354 257,-354"/>
<polygon fill="black" stroke="black" points="298.39,-386.53 304.89,-392.42 302.2,-387.77 306,-389 306,-389 306,-389 302.2,-387.77 307.11,-385.58 298.39,-386.53 298.39,-386.53"/>
<ellipse fill="none" stroke="black" cx="295.35" cy="-385.54" rx="3.2" ry="3.2"/>
</g>
<!-- cof_pneu_manutencao -->
<g id="node3" class="node">
<title>cof_pneu_manutencao</title>
<g id="a_node3"><a xlink:href="../../tables/cof_pneu_manutencao.html" xlink:title="cof_pneu_manutencao" target="_top">
<polygon fill="#ffffff" stroke="transparent" points="540,-328 540,-540 748,-540 748,-328 540,-328"/>
<polygon fill="#f5f5f5" stroke="transparent" points="540,-518 540,-540 748,-540 748,-518 540,-518"/>
<polygon fill="none" stroke="black" points="540,-518 540,-540 748,-540 748,-518 540,-518"/>
<text text-anchor="start" x="545" y="-527.2" font-family="Helvetica,sans-Serif" font-weight="bold" font-size="11.00">cof_pneu_manutencao</text>
<text text-anchor="start" x="713" y="-526.2" font-family="Helvetica,sans-Serif" font-size="11.00">[table]</text>
<polygon fill="none" stroke="black" points="540,-496 540,-518 748,-518 748,-496 540,-496"/>
<image xlink:href="../../images/primaryKeys.png" width="11px" height="12px" preserveAspectRatio="xMinYMin meet" x="545" y="-513"/>
<text text-anchor="start" x="560" y="-504.2" font-family="Helvetica,sans-Serif" font-size="11.00">cof_pneu_manutencao_id</text>
<polygon fill="#ffffff" stroke="transparent" points="540,-474 540,-496 748,-496 748,-474 540,-474"/>
<polygon fill="none" stroke="black" points="540,-474 540,-496 748,-496 748,-474 540,-474"/>
<text text-anchor="start" x="560" y="-482.2" font-family="Helvetica,sans-Serif" font-size="11.00">cof_pneu_manutencao_uu</text>
<polygon fill="none" stroke="black" points="540,-452 540,-474 748,-474 748,-452 540,-452"/>
<image xlink:href="../../images/foreignKeys.png" width="11px" height="12px" preserveAspectRatio="xMinYMin meet" x="545" y="-469"/>
<text text-anchor="start" x="560" y="-460.2" font-family="Helvetica,sans-Serif" font-size="11.00">cof_pneu_id</text>
<polygon fill="none" stroke="black" points="540,-430 540,-452 748,-452 748,-430 540,-430"/>
<image xlink:href="../../images/foreignKeys.png" width="11px" height="12px" preserveAspectRatio="xMinYMin meet" x="545" y="-447"/>
<text text-anchor="start" x="560" y="-438.2" font-family="Helvetica,sans-Serif" font-size="11.00">c_bpartner_id</text>
<polygon fill="none" stroke="black" points="540,-408 540,-430 748,-430 748,-408 540,-408"/>
<image xlink:href="../../images/foreignKeys.png" width="11px" height="12px" preserveAspectRatio="xMinYMin meet" x="545" y="-425"/>
<text text-anchor="start" x="560" y="-416.2" font-family="Helvetica,sans-Serif" font-size="11.00">cof_pneu_status_id</text>
<polygon fill="none" stroke="black" points="540,-386 540,-408 748,-408 748,-386 540,-386"/>
<image xlink:href="../../images/foreignKeys.png" width="11px" height="12px" preserveAspectRatio="xMinYMin meet" x="545" y="-403"/>
<text text-anchor="start" x="560" y="-394.2" font-family="Helvetica,sans-Serif" font-size="11.00">lbr_docfiscal_id</text>
<polygon fill="none" stroke="black" points="540,-364 540,-386 748,-386 748,-364 540,-364"/>
<image xlink:href="../../images/foreignKeys.png" width="11px" height="12px" preserveAspectRatio="xMinYMin meet" x="545" y="-381"/>
<text text-anchor="start" x="560" y="-372.2" font-family="Helvetica,sans-Serif" font-size="11.00">cof_docfiscal_id</text>
<polygon fill="none" stroke="black" points="540,-346 540,-364 748,-364 748,-346 540,-346"/>
<text text-anchor="start" x="543" y="-352.2" font-family="Helvetica,sans-Serif" font-size="11.00">...</text>
<polygon fill="#ffffff" stroke="transparent" points="540,-328 540,-346 748,-346 748,-328 540,-328"/>
<polygon fill="none" stroke="black" points="540,-328 540,-346 748,-346 748,-328 540,-328"/>
<polygon fill="#ffffff" stroke="transparent" points="541,-329 541,-345 616,-345 616,-329 541,-329"/>
<text text-anchor="start" x="543" y="-334.2" font-family="Helvetica,sans-Serif" font-size="11.00">&lt; 5</text>
<polygon fill="#ffffff" stroke="transparent" points="616,-329 616,-345 682,-345 682,-329 616,-329"/>
<text text-anchor="start" x="645.5" y="-334.2" font-family="Helvetica,sans-Serif" font-size="11.00"> &#160;</text>
<polygon fill="#ffffff" stroke="transparent" points="682,-329 682,-345 747,-345 747,-329 682,-329"/>
<text text-anchor="start" x="738" y="-334.2" font-family="Helvetica,sans-Serif" font-size="11.00"> &#160;</text>
<polygon fill="black" stroke="black" points="616,-329 616,-345 616,-345 616,-329 616,-329"/>
<polygon fill="black" stroke="black" points="682,-329 682,-345 682,-345 682,-329 682,-329"/>
</a>
</g>
</g>
<!-- cof_pneu_manutencao&#45;&gt;cof_pneu -->
<g id="edge2" class="edge">
<title>cof_pneu_manutencao:w&#45;&gt;cof_pneu:e</title>
<path fill="none" stroke="black" d="M525.02,-467.12C500.37,-486.21 535.87,-565 492,-565"/>
<polygon fill="black" stroke="black" points="531.33,-465.26 540.02,-466.45 535.16,-464.13 539,-463 539,-463 539,-463 535.16,-464.13 537.98,-459.55 531.33,-465.26 531.33,-465.26"/>
<ellipse fill="none" stroke="black" cx="528.26" cy="-466.17" rx="3.2" ry="3.2"/>
</g>
<!-- cof_pneu_manutencao&#45;&gt;cof_pneu_status -->
<g id="edge3" class="edge">
<title>cof_pneu_manutencao:w&#45;&gt;cof_pneu_status:e</title>
<path fill="none" stroke="black" d="M524.89,-415.11C506.2,-400.89 529.51,-351.55 499,-332 424.16,-284.04 385.31,-310.76 299,-332 278.54,-337.03 278.07,-354 257,-354"/>
<polygon fill="black" stroke="black" points="531.29,-416.87 538.04,-422.47 535.14,-417.94 539,-419 539,-419 539,-419 535.14,-417.94 539.96,-415.53 531.29,-416.87 531.29,-416.87"/>
<ellipse fill="none" stroke="black" cx="528.2" cy="-416.02" rx="3.2" ry="3.2"/>
</g>
</g>
</svg>
