<?xml version="1.0" encoding="UTF-8" standalone="no"?>
<!DOCTYPE svg PUBLIC "-//W3C//DTD SVG 1.1//EN"
 "http://www.w3.org/Graphics/SVG/1.1/DTD/svg11.dtd">
<!-- Generated by graphviz version 2.43.0 (0)
 -->
<!-- Title: oneDegreeRelationshipsDiagram Pages: 1 -->
<svg width="364pt" height="581pt"
 viewBox="0.00 0.00 364.00 581.00" xmlns="http://www.w3.org/2000/svg" xmlns:xlink="http://www.w3.org/1999/xlink">
<g id="graph0" class="graph" transform="scale(1 1) rotate(0) translate(4 577)">
<title>oneDegreeRelationshipsDiagram</title>
<polygon fill="#ffffff" stroke="transparent" points="-4,4 -4,-577 360,-577 360,4 -4,4"/>
<text text-anchor="middle" x="71.5" y="-7.2" font-family="Helvetica,sans-Serif" font-size="11.00">Generated by SchemaSpy</text>
<!-- cof_rv_detalhesestoqueprevisto -->
<g id="node1" class="node">
<title>cof_rv_detalhesestoqueprevisto</title>
<g id="a_node1"><a xlink:href="../../tables/cof_rv_detalhesestoqueprevisto.html" xlink:title="cof_rv_detalhesestoqueprevisto" target="_top">
<polygon fill="#ffffff" stroke="transparent" points="8,-37 8,-569 348,-569 348,-37 8,-37"/>
<polygon fill="#f5f5f5" stroke="transparent" points="10,-545 10,-567 346,-567 346,-545 10,-545"/>
<polygon fill="none" stroke="black" points="10,-545 10,-567 346,-567 346,-545 10,-545"/>
<text text-anchor="start" x="15" y="-554.2" font-family="Helvetica,sans-Serif" font-weight="bold" font-size="11.00">cof_rv_detalhesestoqueprevisto</text>
<text text-anchor="start" x="313" y="-553.2" font-family="Helvetica,sans-Serif" font-size="11.00">[view]</text>
<polygon fill="none" stroke="black" points="10,-523 10,-545 263,-545 263,-523 10,-523"/>
<text text-anchor="start" x="30" y="-531.2" font-family="Helvetica,sans-Serif" font-size="11.00">ad_org_id</text>
<polygon fill="none" stroke="black" points="263,-523 263,-545 346,-545 346,-523 263,-523"/>
<text text-anchor="start" x="266" y="-531.2" font-family="Helvetica,sans-Serif" font-size="11.00">numeric[10]</text>
<polygon fill="none" stroke="black" points="10,-501 10,-523 263,-523 263,-501 10,-501"/>
<text text-anchor="start" x="30" y="-509.2" font-family="Helvetica,sans-Serif" font-size="11.00">ad_client_id</text>
<polygon fill="none" stroke="black" points="263,-501 263,-523 346,-523 346,-501 263,-501"/>
<text text-anchor="start" x="266" y="-509.2" font-family="Helvetica,sans-Serif" font-size="11.00">numeric[10]</text>
<polygon fill="none" stroke="black" points="10,-479 10,-501 263,-501 263,-479 10,-479"/>
<text text-anchor="start" x="30" y="-487.2" font-family="Helvetica,sans-Serif" font-size="11.00">cof_identificadortransacao</text>
<polygon fill="none" stroke="black" points="263,-479 263,-501 346,-501 346,-479 263,-479"/>
<text text-anchor="start" x="266" y="-487.2" font-family="Helvetica,sans-Serif" font-size="11.00">varchar[2]</text>
<polygon fill="none" stroke="black" points="10,-457 10,-479 263,-479 263,-457 10,-457"/>
<text text-anchor="start" x="30" y="-465.2" font-family="Helvetica,sans-Serif" font-size="11.00">m_product_id</text>
<polygon fill="none" stroke="black" points="263,-457 263,-479 346,-479 346,-457 263,-457"/>
<text text-anchor="start" x="266" y="-465.2" font-family="Helvetica,sans-Serif" font-size="11.00">numeric[10]</text>
<polygon fill="none" stroke="black" points="10,-435 10,-457 263,-457 263,-435 10,-435"/>
<text text-anchor="start" x="30" y="-443.2" font-family="Helvetica,sans-Serif" font-size="11.00">cof_producttype_id</text>
<polygon fill="none" stroke="black" points="263,-435 263,-457 346,-457 346,-435 263,-435"/>
<text text-anchor="start" x="266" y="-443.2" font-family="Helvetica,sans-Serif" font-size="11.00">numeric[10]</text>
<polygon fill="none" stroke="black" points="10,-413 10,-435 263,-435 263,-413 10,-413"/>
<text text-anchor="start" x="30" y="-421.2" font-family="Helvetica,sans-Serif" font-size="11.00">cof_productclass_id</text>
<polygon fill="none" stroke="black" points="263,-413 263,-435 346,-435 346,-413 263,-413"/>
<text text-anchor="start" x="266" y="-421.2" font-family="Helvetica,sans-Serif" font-size="11.00">numeric[10]</text>
<polygon fill="none" stroke="black" points="10,-391 10,-413 263,-413 263,-391 10,-391"/>
<text text-anchor="start" x="30" y="-399.2" font-family="Helvetica,sans-Serif" font-size="11.00">cof_productgroup_id</text>
<polygon fill="none" stroke="black" points="263,-391 263,-413 346,-413 346,-391 263,-391"/>
<text text-anchor="start" x="266" y="-399.2" font-family="Helvetica,sans-Serif" font-size="11.00">numeric[10]</text>
<polygon fill="none" stroke="black" points="10,-369 10,-391 263,-391 263,-369 10,-369"/>
<text text-anchor="start" x="30" y="-377.2" font-family="Helvetica,sans-Serif" font-size="11.00">movementdate</text>
<polygon fill="none" stroke="black" points="263,-369 263,-391 346,-391 346,-369 263,-369"/>
<text text-anchor="start" x="266" y="-377.2" font-family="Helvetica,sans-Serif" font-size="11.00">timestamp[29,6]</text>
<polygon fill="none" stroke="black" points="10,-347 10,-369 263,-369 263,-347 10,-347"/>
<text text-anchor="start" x="30" y="-355.2" font-family="Helvetica,sans-Serif" font-size="11.00">quantidade_antiga</text>
<polygon fill="none" stroke="black" points="263,-347 263,-369 346,-369 346,-347 263,-347"/>
<text text-anchor="start" x="266" y="-355.2" font-family="Helvetica,sans-Serif" font-size="11.00">numeric[0]</text>
<polygon fill="none" stroke="black" points="10,-325 10,-347 263,-347 263,-325 10,-325"/>
<text text-anchor="start" x="30" y="-333.2" font-family="Helvetica,sans-Serif" font-size="11.00">qty</text>
<polygon fill="none" stroke="black" points="263,-325 263,-347 346,-347 346,-325 263,-325"/>
<text text-anchor="start" x="266" y="-333.2" font-family="Helvetica,sans-Serif" font-size="11.00">numeric[0]</text>
<polygon fill="none" stroke="black" points="10,-303 10,-325 263,-325 263,-303 10,-303"/>
<text text-anchor="start" x="30" y="-311.2" font-family="Helvetica,sans-Serif" font-size="11.00">quantidade_atual</text>
<polygon fill="none" stroke="black" points="263,-303 263,-325 346,-325 346,-303 263,-303"/>
<text text-anchor="start" x="266" y="-311.2" font-family="Helvetica,sans-Serif" font-size="11.00">numeric[0]</text>
<polygon fill="none" stroke="black" points="10,-281 10,-303 263,-303 263,-281 10,-281"/>
<text text-anchor="start" x="30" y="-289.2" font-family="Helvetica,sans-Serif" font-size="11.00">lbr_docfiscal_line_id</text>
<polygon fill="none" stroke="black" points="263,-281 263,-303 346,-303 346,-281 263,-281"/>
<text text-anchor="start" x="266" y="-289.2" font-family="Helvetica,sans-Serif" font-size="11.00">numeric[10]</text>
<polygon fill="none" stroke="black" points="10,-259 10,-281 263,-281 263,-259 10,-259"/>
<text text-anchor="start" x="30" y="-267.2" font-family="Helvetica,sans-Serif" font-size="11.00">m_productionline_id</text>
<polygon fill="none" stroke="black" points="263,-259 263,-281 346,-281 346,-259 263,-259"/>
<text text-anchor="start" x="266" y="-267.2" font-family="Helvetica,sans-Serif" font-size="11.00">numeric[10]</text>
<polygon fill="none" stroke="black" points="10,-237 10,-259 263,-259 263,-237 10,-237"/>
<text text-anchor="start" x="30" y="-245.2" font-family="Helvetica,sans-Serif" font-size="11.00">cof_ajusteestoqueprvstline_id</text>
<polygon fill="none" stroke="black" points="263,-237 263,-259 346,-259 346,-237 263,-237"/>
<text text-anchor="start" x="266" y="-245.2" font-family="Helvetica,sans-Serif" font-size="11.00">numeric[10]</text>
<polygon fill="none" stroke="black" points="10,-215 10,-237 263,-237 263,-215 10,-215"/>
<text text-anchor="start" x="30" y="-223.2" font-family="Helvetica,sans-Serif" font-size="11.00">cof_cumulatedcostamt</text>
<polygon fill="none" stroke="black" points="263,-215 263,-237 346,-237 346,-215 263,-215"/>
<text text-anchor="start" x="266" y="-223.2" font-family="Helvetica,sans-Serif" font-size="11.00">numeric[0]</text>
<polygon fill="none" stroke="black" points="10,-193 10,-215 263,-215 263,-193 10,-193"/>
<text text-anchor="start" x="30" y="-201.2" font-family="Helvetica,sans-Serif" font-size="11.00">currentcostprice</text>
<polygon fill="none" stroke="black" points="263,-193 263,-215 346,-215 346,-193 263,-193"/>
<text text-anchor="start" x="266" y="-201.2" font-family="Helvetica,sans-Serif" font-size="11.00">numeric[0]</text>
<polygon fill="none" stroke="black" points="10,-171 10,-193 263,-193 263,-171 10,-171"/>
<text text-anchor="start" x="30" y="-179.2" font-family="Helvetica,sans-Serif" font-size="11.00">amt</text>
<polygon fill="none" stroke="black" points="263,-171 263,-193 346,-193 346,-171 263,-171"/>
<text text-anchor="start" x="266" y="-179.2" font-family="Helvetica,sans-Serif" font-size="11.00">numeric[0]</text>
<polygon fill="none" stroke="black" points="10,-149 10,-171 263,-171 263,-149 10,-149"/>
<text text-anchor="start" x="30" y="-157.2" font-family="Helvetica,sans-Serif" font-size="11.00">cumulatedamt</text>
<polygon fill="none" stroke="black" points="263,-149 263,-171 346,-171 346,-149 263,-149"/>
<text text-anchor="start" x="266" y="-157.2" font-family="Helvetica,sans-Serif" font-size="11.00">numeric[0]</text>
<polygon fill="none" stroke="black" points="10,-127 10,-149 263,-149 263,-127 10,-127"/>
<text text-anchor="start" x="30" y="-135.2" font-family="Helvetica,sans-Serif" font-size="11.00">documentno</text>
<polygon fill="none" stroke="black" points="263,-127 263,-149 346,-149 346,-127 263,-127"/>
<text text-anchor="start" x="266" y="-135.2" font-family="Helvetica,sans-Serif" font-size="11.00">varchar[30]</text>
<polygon fill="none" stroke="black" points="10,-105 10,-127 263,-127 263,-105 10,-105"/>
<text text-anchor="start" x="30" y="-113.2" font-family="Helvetica,sans-Serif" font-size="11.00">ide_dhemi</text>
<polygon fill="none" stroke="black" points="263,-105 263,-127 346,-127 346,-105 263,-105"/>
<text text-anchor="start" x="266" y="-113.2" font-family="Helvetica,sans-Serif" font-size="11.00">timestamp[29,6]</text>
<polygon fill="none" stroke="black" points="10,-83 10,-105 263,-105 263,-83 10,-83"/>
<text text-anchor="start" x="30" y="-91.2" font-family="Helvetica,sans-Serif" font-size="11.00">dateacct</text>
<polygon fill="none" stroke="black" points="263,-83 263,-105 346,-105 346,-83 263,-83"/>
<text text-anchor="start" x="266" y="-91.2" font-family="Helvetica,sans-Serif" font-size="11.00">timestamp[29,6]</text>
<polygon fill="none" stroke="black" points="10,-61 10,-83 263,-83 263,-61 10,-61"/>
<text text-anchor="start" x="30" y="-69.2" font-family="Helvetica,sans-Serif" font-size="11.00">det_prod_cfop</text>
<polygon fill="none" stroke="black" points="263,-61 263,-83 346,-83 346,-61 263,-61"/>
<text text-anchor="start" x="266" y="-69.2" font-family="Helvetica,sans-Serif" font-size="11.00">varchar[4]</text>
<polygon fill="none" stroke="black" points="10,-39 10,-61 263,-61 263,-39 10,-39"/>
<text text-anchor="start" x="30" y="-47.2" font-family="Helvetica,sans-Serif" font-size="11.00">lbr_cfop_id</text>
<polygon fill="none" stroke="black" points="263,-39 263,-61 346,-61 346,-39 263,-39"/>
<text text-anchor="start" x="266" y="-47.2" font-family="Helvetica,sans-Serif" font-size="11.00">numeric[10]</text>
<polygon fill="none" stroke="black" stroke-width="2" points="9,-38 9,-568 347,-568 347,-38 9,-38"/>
</a>
</g>
</g>
</g>
</svg>
