<?xml version="1.0" encoding="UTF-8" standalone="no"?>
<!DOCTYPE svg PUBLIC "-//W3C//DTD SVG 1.1//EN"
 "http://www.w3.org/Graphics/SVG/1.1/DTD/svg11.dtd">
<!-- Generated by graphviz version 2.43.0 (0)
 -->
<!-- Title: oneDegreeRelationshipsDiagram Pages: 1 -->
<svg width="744pt" height="453pt"
 viewBox="0.00 0.00 744.00 453.00" xmlns="http://www.w3.org/2000/svg" xmlns:xlink="http://www.w3.org/1999/xlink">
<g id="graph0" class="graph" transform="scale(1 1) rotate(0) translate(4 449)">
<title>oneDegreeRelationshipsDiagram</title>
<polygon fill="#ffffff" stroke="transparent" points="-4,4 -4,-449 740,-449 740,4 -4,4"/>
<text text-anchor="middle" x="71.5" y="-7.2" font-family="Helvetica,sans-Serif" font-size="11.00">Generated by SchemaSpy</text>
<!-- cof_activity -->
<g id="node1" class="node">
<title>cof_activity</title>
<g id="a_node1"><a xlink:href="../../tables/cof_activity.html" xlink:title="cof_activity" target="_top">
<polygon fill="#ffffff" stroke="transparent" points="543,-141 543,-441 728,-441 728,-141 543,-141"/>
<polygon fill="#f5f5f5" stroke="transparent" points="543.5,-419 543.5,-441 728.5,-441 728.5,-419 543.5,-419"/>
<polygon fill="none" stroke="black" points="543.5,-419 543.5,-441 728.5,-441 728.5,-419 543.5,-419"/>
<text text-anchor="start" x="548.5" y="-428.2" font-family="Helvetica,sans-Serif" font-weight="bold" font-size="11.00">cof_activity</text>
<text text-anchor="start" x="693.5" y="-427.2" font-family="Helvetica,sans-Serif" font-size="11.00">[table]</text>
<polygon fill="none" stroke="black" points="543.5,-397 543.5,-419 728.5,-419 728.5,-397 543.5,-397"/>
<image xlink:href="../../images/primaryKeys.png" width="11px" height="12px" preserveAspectRatio="xMinYMin meet" x="548.5" y="-414"/>
<text text-anchor="start" x="563.5" y="-405.2" font-family="Helvetica,sans-Serif" font-size="11.00">cof_activity_id</text>
<polygon fill="#ffffff" stroke="transparent" points="543.5,-375 543.5,-397 728.5,-397 728.5,-375 543.5,-375"/>
<polygon fill="none" stroke="black" points="543.5,-375 543.5,-397 728.5,-397 728.5,-375 543.5,-375"/>
<text text-anchor="start" x="563.5" y="-383.2" font-family="Helvetica,sans-Serif" font-size="11.00">cof_activity_uu</text>
<polygon fill="none" stroke="black" points="543.5,-353 543.5,-375 728.5,-375 728.5,-353 543.5,-353"/>
<image xlink:href="../../images/foreignKeys.png" width="11px" height="12px" preserveAspectRatio="xMinYMin meet" x="548.5" y="-370"/>
<text text-anchor="start" x="563.5" y="-361.2" font-family="Helvetica,sans-Serif" font-size="11.00">ad_user_id</text>
<polygon fill="none" stroke="black" points="543.5,-331 543.5,-353 728.5,-353 728.5,-331 543.5,-331"/>
<image xlink:href="../../images/foreignKeys.png" width="11px" height="12px" preserveAspectRatio="xMinYMin meet" x="548.5" y="-348"/>
<text text-anchor="start" x="563.5" y="-339.2" font-family="Helvetica,sans-Serif" font-size="11.00">cof_activity_type_id</text>
<polygon fill="none" stroke="black" points="543.5,-309 543.5,-331 728.5,-331 728.5,-309 543.5,-309"/>
<image xlink:href="../../images/foreignKeys.png" width="11px" height="12px" preserveAspectRatio="xMinYMin meet" x="548.5" y="-326"/>
<text text-anchor="start" x="563.5" y="-317.2" font-family="Helvetica,sans-Serif" font-size="11.00">cof_activity_status_id</text>
<polygon fill="none" stroke="black" points="543.5,-287 543.5,-309 728.5,-309 728.5,-287 543.5,-287"/>
<image xlink:href="../../images/foreignKeys.png" width="11px" height="12px" preserveAspectRatio="xMinYMin meet" x="548.5" y="-304"/>
<text text-anchor="start" x="563.5" y="-295.2" font-family="Helvetica,sans-Serif" font-size="11.00">cof_activity_action_id</text>
<polygon fill="none" stroke="black" points="543.5,-265 543.5,-287 728.5,-287 728.5,-265 543.5,-265"/>
<image xlink:href="../../images/foreignKeys.png" width="11px" height="12px" preserveAspectRatio="xMinYMin meet" x="548.5" y="-282"/>
<text text-anchor="start" x="563.5" y="-273.2" font-family="Helvetica,sans-Serif" font-size="11.00">c_bpartner_id</text>
<polygon fill="none" stroke="black" points="543.5,-243 543.5,-265 728.5,-265 728.5,-243 543.5,-243"/>
<image xlink:href="../../images/foreignKeys.png" width="11px" height="12px" preserveAspectRatio="xMinYMin meet" x="548.5" y="-260"/>
<text text-anchor="start" x="563.5" y="-251.2" font-family="Helvetica,sans-Serif" font-size="11.00">salesrep_id</text>
<polygon fill="none" stroke="black" points="543.5,-221 543.5,-243 728.5,-243 728.5,-221 543.5,-221"/>
<image xlink:href="../../images/foreignKeys.png" width="11px" height="12px" preserveAspectRatio="xMinYMin meet" x="548.5" y="-238"/>
<text text-anchor="start" x="563.5" y="-229.2" font-family="Helvetica,sans-Serif" font-size="11.00">cof_lead_id</text>
<polygon fill="none" stroke="black" points="543.5,-199 543.5,-221 728.5,-221 728.5,-199 543.5,-199"/>
<image xlink:href="../../images/foreignKeys.png" width="11px" height="12px" preserveAspectRatio="xMinYMin meet" x="548.5" y="-216"/>
<text text-anchor="start" x="563.5" y="-207.2" font-family="Helvetica,sans-Serif" font-size="11.00">c_bpartner_location_id</text>
<polygon fill="none" stroke="black" points="543.5,-177 543.5,-199 728.5,-199 728.5,-177 543.5,-177"/>
<image xlink:href="../../images/foreignKeys.png" width="11px" height="12px" preserveAspectRatio="xMinYMin meet" x="548.5" y="-194"/>
<text text-anchor="start" x="563.5" y="-185.2" font-family="Helvetica,sans-Serif" font-size="11.00">c_opportunity_id</text>
<polygon fill="none" stroke="black" points="543.5,-159 543.5,-177 728.5,-177 728.5,-159 543.5,-159"/>
<text text-anchor="start" x="546.5" y="-165.2" font-family="Helvetica,sans-Serif" font-size="11.00">...</text>
<polygon fill="#ffffff" stroke="transparent" points="543.5,-141 543.5,-159 728.5,-159 728.5,-141 543.5,-141"/>
<polygon fill="none" stroke="black" points="543.5,-141 543.5,-159 728.5,-159 728.5,-141 543.5,-141"/>
<polygon fill="#ffffff" stroke="transparent" points="544.5,-142 544.5,-158 611.5,-158 611.5,-142 544.5,-142"/>
<text text-anchor="start" x="546.5" y="-147.2" font-family="Helvetica,sans-Serif" font-size="11.00">&lt; 9</text>
<polygon fill="#ffffff" stroke="transparent" points="611.5,-142 611.5,-158 669.5,-158 669.5,-142 611.5,-142"/>
<text text-anchor="start" x="637" y="-147.2" font-family="Helvetica,sans-Serif" font-size="11.00"> &#160;</text>
<polygon fill="#ffffff" stroke="transparent" points="669.5,-142 669.5,-158 727.5,-158 727.5,-142 669.5,-142"/>
<text text-anchor="start" x="718.5" y="-147.2" font-family="Helvetica,sans-Serif" font-size="11.00"> &#160;</text>
<polygon fill="black" stroke="black" points="611.5,-142 611.5,-158 611.5,-158 611.5,-142 611.5,-142"/>
<polygon fill="black" stroke="black" points="669.5,-142 669.5,-158 669.5,-158 669.5,-142 669.5,-142"/>
</a>
</g>
</g>
<!-- cof_activity_status -->
<g id="node2" class="node">
<title>cof_activity_status</title>
<g id="a_node2"><a xlink:href="../../tables/cof_activity_status.html" xlink:title="cof_activity_status" target="_top">
<polygon fill="#ffffff" stroke="transparent" points="312,-212 312,-336 494,-336 494,-212 312,-212"/>
<polygon fill="#f5f5f5" stroke="transparent" points="312,-314 312,-336 494,-336 494,-314 312,-314"/>
<polygon fill="none" stroke="black" points="312,-314 312,-336 494,-336 494,-314 312,-314"/>
<text text-anchor="start" x="317" y="-323.2" font-family="Helvetica,sans-Serif" font-weight="bold" font-size="11.00">cof_activity_status</text>
<text text-anchor="start" x="459" y="-322.2" font-family="Helvetica,sans-Serif" font-size="11.00">[table]</text>
<polygon fill="none" stroke="black" points="312,-292 312,-314 494,-314 494,-292 312,-292"/>
<image xlink:href="../../images/primaryKeys.png" width="11px" height="12px" preserveAspectRatio="xMinYMin meet" x="317" y="-309"/>
<text text-anchor="start" x="332" y="-300.2" font-family="Helvetica,sans-Serif" font-size="11.00">cof_activity_status_id</text>
<polygon fill="#ffffff" stroke="transparent" points="312,-270 312,-292 494,-292 494,-270 312,-270"/>
<polygon fill="none" stroke="black" points="312,-270 312,-292 494,-292 494,-270 312,-270"/>
<text text-anchor="start" x="332" y="-278.2" font-family="Helvetica,sans-Serif" font-size="11.00">cof_activity_status_uu</text>
<polygon fill="none" stroke="black" points="312,-248 312,-270 494,-270 494,-248 312,-248"/>
<image xlink:href="../../images/foreignKeys.png" width="11px" height="12px" preserveAspectRatio="xMinYMin meet" x="317" y="-265"/>
<text text-anchor="start" x="332" y="-256.2" font-family="Helvetica,sans-Serif" font-size="11.00">cof_activity_type_id</text>
<polygon fill="none" stroke="black" points="312,-230 312,-248 494,-248 494,-230 312,-230"/>
<text text-anchor="start" x="315" y="-236.2" font-family="Helvetica,sans-Serif" font-size="11.00">...</text>
<polygon fill="#ffffff" stroke="transparent" points="312,-212 312,-230 494,-230 494,-212 312,-212"/>
<polygon fill="none" stroke="black" points="312,-212 312,-230 494,-230 494,-212 312,-212"/>
<polygon fill="#ffffff" stroke="transparent" points="313,-213 313,-229 366,-229 366,-213 313,-213"/>
<text text-anchor="start" x="315" y="-218.2" font-family="Helvetica,sans-Serif" font-size="11.00">&lt; 1</text>
<polygon fill="#ffffff" stroke="transparent" points="366,-213 366,-229 441,-229 441,-213 366,-213"/>
<text text-anchor="start" x="384" y="-218.2" font-family="Helvetica,sans-Serif" font-size="11.00">20 rows</text>
<polygon fill="#ffffff" stroke="transparent" points="441,-213 441,-229 493,-229 493,-213 441,-213"/>
<text text-anchor="start" x="475" y="-218.2" font-family="Helvetica,sans-Serif" font-size="11.00">1 &gt;</text>
<polygon fill="black" stroke="black" points="366,-213 366,-229 366,-229 366,-213 366,-213"/>
<polygon fill="black" stroke="black" points="441,-213 441,-229 441,-229 441,-213 441,-213"/>
</a>
</g>
</g>
<!-- cof_activity&#45;&gt;cof_activity_status -->
<g id="edge1" class="edge">
<title>cof_activity:w&#45;&gt;cof_activity_status:e</title>
<path fill="none" stroke="black" d="M528.08,-317.04C517.27,-312.17 511.47,-303 495,-303"/>
<polygon fill="black" stroke="black" points="534.66,-318.39 541.78,-323.53 538.58,-319.2 542.5,-320 542.5,-320 542.5,-320 538.58,-319.2 543.22,-316.47 534.66,-318.39 534.66,-318.39"/>
<ellipse fill="none" stroke="black" cx="531.53" cy="-317.75" rx="3.2" ry="3.2"/>
</g>
<!-- cof_activity_type -->
<g id="node3" class="node">
<title>cof_activity_type</title>
<g id="a_node3"><a xlink:href="../../tables/cof_activity_type.html" xlink:title="cof_activity_type" target="_top">
<polygon fill="#ffffff" stroke="transparent" points="8,-37 8,-345 263,-345 263,-37 8,-37"/>
<polygon fill="#f5f5f5" stroke="transparent" points="10.5,-321 10.5,-343 261.5,-343 261.5,-321 10.5,-321"/>
<polygon fill="none" stroke="black" points="10.5,-321 10.5,-343 261.5,-343 261.5,-321 10.5,-321"/>
<text text-anchor="start" x="15.5" y="-330.2" font-family="Helvetica,sans-Serif" font-weight="bold" font-size="11.00">cof_activity_type</text>
<text text-anchor="start" x="226.5" y="-329.2" font-family="Helvetica,sans-Serif" font-size="11.00">[table]</text>
<polygon fill="none" stroke="black" points="10.5,-299 10.5,-321 178.5,-321 178.5,-299 10.5,-299"/>
<image xlink:href="../../images/primaryKeys.png" width="11px" height="12px" preserveAspectRatio="xMinYMin meet" x="15.5" y="-316"/>
<text text-anchor="start" x="30.5" y="-307.2" font-family="Helvetica,sans-Serif" font-size="11.00">cof_activity_type_id</text>
<polygon fill="none" stroke="black" points="178.5,-299 178.5,-321 261.5,-321 261.5,-299 178.5,-299"/>
<text text-anchor="start" x="181.5" y="-307.2" font-family="Helvetica,sans-Serif" font-size="11.00">numeric[10]</text>
<polygon fill="#ffffff" stroke="transparent" points="10.5,-277 10.5,-299 178.5,-299 178.5,-277 10.5,-277"/>
<polygon fill="none" stroke="black" points="10.5,-277 10.5,-299 178.5,-299 178.5,-277 10.5,-277"/>
<text text-anchor="start" x="30.5" y="-285.2" font-family="Helvetica,sans-Serif" font-size="11.00">cof_activity_type_uu</text>
<polygon fill="none" stroke="black" points="178.5,-277 178.5,-299 261.5,-299 261.5,-277 178.5,-277"/>
<text text-anchor="start" x="181.5" y="-285.2" font-family="Helvetica,sans-Serif" font-size="11.00">varchar[36]</text>
<polygon fill="none" stroke="black" points="10.5,-255 10.5,-277 178.5,-277 178.5,-255 10.5,-255"/>
<text text-anchor="start" x="30.5" y="-263.2" font-family="Helvetica,sans-Serif" font-size="11.00">ad_client_id</text>
<polygon fill="none" stroke="black" points="178.5,-255 178.5,-277 261.5,-277 261.5,-255 178.5,-255"/>
<text text-anchor="start" x="181.5" y="-263.2" font-family="Helvetica,sans-Serif" font-size="11.00">numeric[10]</text>
<polygon fill="none" stroke="black" points="10.5,-233 10.5,-255 178.5,-255 178.5,-233 10.5,-233"/>
<text text-anchor="start" x="30.5" y="-241.2" font-family="Helvetica,sans-Serif" font-size="11.00">ad_org_id</text>
<polygon fill="none" stroke="black" points="178.5,-233 178.5,-255 261.5,-255 261.5,-233 178.5,-233"/>
<text text-anchor="start" x="181.5" y="-241.2" font-family="Helvetica,sans-Serif" font-size="11.00">numeric[10]</text>
<polygon fill="none" stroke="black" points="10.5,-211 10.5,-233 178.5,-233 178.5,-211 10.5,-211"/>
<text text-anchor="start" x="30.5" y="-219.2" font-family="Helvetica,sans-Serif" font-size="11.00">isactive</text>
<polygon fill="none" stroke="black" points="178.5,-211 178.5,-233 261.5,-233 261.5,-211 178.5,-211"/>
<text text-anchor="start" x="181.5" y="-219.2" font-family="Helvetica,sans-Serif" font-size="11.00">bpchar[1]</text>
<polygon fill="none" stroke="black" points="10.5,-189 10.5,-211 178.5,-211 178.5,-189 10.5,-189"/>
<text text-anchor="start" x="30.5" y="-197.2" font-family="Helvetica,sans-Serif" font-size="11.00">created</text>
<polygon fill="none" stroke="black" points="178.5,-189 178.5,-211 261.5,-211 261.5,-189 178.5,-189"/>
<text text-anchor="start" x="181.5" y="-197.2" font-family="Helvetica,sans-Serif" font-size="11.00">timestamp[29,6]</text>
<polygon fill="none" stroke="black" points="10.5,-167 10.5,-189 178.5,-189 178.5,-167 10.5,-167"/>
<text text-anchor="start" x="30.5" y="-175.2" font-family="Helvetica,sans-Serif" font-size="11.00">createdby</text>
<polygon fill="none" stroke="black" points="178.5,-167 178.5,-189 261.5,-189 261.5,-167 178.5,-167"/>
<text text-anchor="start" x="181.5" y="-175.2" font-family="Helvetica,sans-Serif" font-size="11.00">numeric[10]</text>
<polygon fill="none" stroke="black" points="10.5,-145 10.5,-167 178.5,-167 178.5,-145 10.5,-145"/>
<text text-anchor="start" x="30.5" y="-153.2" font-family="Helvetica,sans-Serif" font-size="11.00">updated</text>
<polygon fill="none" stroke="black" points="178.5,-145 178.5,-167 261.5,-167 261.5,-145 178.5,-145"/>
<text text-anchor="start" x="181.5" y="-153.2" font-family="Helvetica,sans-Serif" font-size="11.00">timestamp[29,6]</text>
<polygon fill="none" stroke="black" points="10.5,-123 10.5,-145 178.5,-145 178.5,-123 10.5,-123"/>
<text text-anchor="start" x="30.5" y="-131.2" font-family="Helvetica,sans-Serif" font-size="11.00">updatedby</text>
<polygon fill="none" stroke="black" points="178.5,-123 178.5,-145 261.5,-145 261.5,-123 178.5,-123"/>
<text text-anchor="start" x="181.5" y="-131.2" font-family="Helvetica,sans-Serif" font-size="11.00">numeric[10]</text>
<polygon fill="none" stroke="black" points="10.5,-101 10.5,-123 178.5,-123 178.5,-101 10.5,-101"/>
<text text-anchor="start" x="30.5" y="-109.2" font-family="Helvetica,sans-Serif" font-size="11.00">value</text>
<polygon fill="none" stroke="black" points="178.5,-101 178.5,-123 261.5,-123 261.5,-101 178.5,-101"/>
<text text-anchor="start" x="181.5" y="-109.2" font-family="Helvetica,sans-Serif" font-size="11.00">varchar[40]</text>
<polygon fill="none" stroke="black" points="10.5,-79 10.5,-101 178.5,-101 178.5,-79 10.5,-79"/>
<text text-anchor="start" x="30.5" y="-87.2" font-family="Helvetica,sans-Serif" font-size="11.00">name</text>
<polygon fill="none" stroke="black" points="178.5,-79 178.5,-101 261.5,-101 261.5,-79 178.5,-79"/>
<text text-anchor="start" x="181.5" y="-87.2" font-family="Helvetica,sans-Serif" font-size="11.00">varchar[60]</text>
<polygon fill="none" stroke="black" points="10.5,-57 10.5,-79 178.5,-79 178.5,-57 10.5,-57"/>
<text text-anchor="start" x="30.5" y="-65.2" font-family="Helvetica,sans-Serif" font-size="11.00">description</text>
<polygon fill="none" stroke="black" points="178.5,-57 178.5,-79 261.5,-79 261.5,-57 178.5,-57"/>
<text text-anchor="start" x="181.5" y="-65.2" font-family="Helvetica,sans-Serif" font-size="11.00">varchar[255]</text>
<polygon fill="#ffffff" stroke="transparent" points="10.5,-39 10.5,-57 261.5,-57 261.5,-39 10.5,-39"/>
<polygon fill="none" stroke="black" points="10.5,-39 10.5,-57 261.5,-57 261.5,-39 10.5,-39"/>
<polygon fill="#ffffff" stroke="transparent" points="11.5,-40 11.5,-56 89.5,-56 89.5,-40 11.5,-40"/>
<text text-anchor="start" x="13.5" y="-45.2" font-family="Helvetica,sans-Serif" font-size="11.00">&lt; 0</text>
<polygon fill="#ffffff" stroke="transparent" points="89.5,-40 89.5,-56 183.5,-56 183.5,-40 89.5,-40"/>
<text text-anchor="start" x="120" y="-45.2" font-family="Helvetica,sans-Serif" font-size="11.00">4 rows</text>
<polygon fill="#ffffff" stroke="transparent" points="183.5,-40 183.5,-56 260.5,-56 260.5,-40 183.5,-40"/>
<text text-anchor="start" x="242.5" y="-45.2" font-family="Helvetica,sans-Serif" font-size="11.00">2 &gt;</text>
<polygon fill="black" stroke="black" points="89.5,-40 89.5,-56 89.5,-56 89.5,-40 89.5,-40"/>
<polygon fill="black" stroke="black" points="183.5,-40 183.5,-56 183.5,-56 183.5,-40 183.5,-40"/>
<polygon fill="none" stroke="black" stroke-width="2" points="9,-38 9,-344 262,-344 262,-38 9,-38"/>
</a>
</g>
</g>
<!-- cof_activity&#45;&gt;cof_activity_type -->
<g id="edge2" class="edge">
<title>cof_activity:w&#45;&gt;cof_activity_type:e</title>
<path fill="none" stroke="black" d="M527.87,-343.06C519.94,-344.3 514.02,-346.26 502,-347 414.17,-352.4 386.23,-378.33 304,-347 280.91,-338.2 287.21,-310 262.5,-310"/>
<polygon fill="black" stroke="black" points="534.52,-342.58 542.76,-345.59 538.51,-342.29 542.5,-342 542.5,-342 542.5,-342 538.51,-342.29 542.24,-338.41 534.52,-342.58 534.52,-342.58"/>
<ellipse fill="none" stroke="black" cx="531.33" cy="-342.81" rx="3.2" ry="3.2"/>
</g>
<!-- cof_activity_status&#45;&gt;cof_activity_type -->
<g id="edge3" class="edge">
<title>cof_activity_status:w&#45;&gt;cof_activity_type:e</title>
<path fill="none" stroke="black" d="M297.19,-264.08C283.48,-276.98 287.67,-310 262.5,-310"/>
<polygon fill="black" stroke="black" points="303.49,-261.76 312.24,-262.38 307.25,-260.38 311,-259 311,-259 311,-259 307.25,-260.38 309.76,-255.62 303.49,-261.76 303.49,-261.76"/>
<ellipse fill="none" stroke="black" cx="300.49" cy="-262.86" rx="3.2" ry="3.2"/>
</g>
</g>
</svg>
