<?xml version="1.0" encoding="UTF-8" standalone="no"?>
<!DOCTYPE svg PUBLIC "-//W3C//DTD SVG 1.1//EN"
 "http://www.w3.org/Graphics/SVG/1.1/DTD/svg11.dtd">
<!-- Generated by graphviz version 2.43.0 (0)
 -->
<!-- Title: oneDegreeRelationshipsDiagram Pages: 1 -->
<svg width="664pt" height="868pt"
 viewBox="0.00 0.00 664.00 868.00" xmlns="http://www.w3.org/2000/svg" xmlns:xlink="http://www.w3.org/1999/xlink">
<g id="graph0" class="graph" transform="scale(1 1) rotate(0) translate(4 864)">
<title>oneDegreeRelationshipsDiagram</title>
<polygon fill="#ffffff" stroke="transparent" points="-4,4 -4,-864 660,-864 660,4 -4,4"/>
<text text-anchor="middle" x="71.5" y="-7.2" font-family="Helvetica,sans-Serif" font-size="11.00">Generated by SchemaSpy</text>
<!-- cof_infofechamentoblocoh -->
<g id="node1" class="node">
<title>cof_infofechamentoblocoh</title>
<g id="a_node1"><a xlink:href="../../tables/cof_infofechamentoblocoh.html" xlink:title="cof_infofechamentoblocoh" target="_top">
<polygon fill="#ffffff" stroke="transparent" points="323,-180 323,-708 648,-708 648,-180 323,-180"/>
<polygon fill="#f5f5f5" stroke="transparent" points="325.5,-684 325.5,-706 646.5,-706 646.5,-684 325.5,-684"/>
<polygon fill="none" stroke="black" points="325.5,-684 325.5,-706 646.5,-706 646.5,-684 325.5,-684"/>
<text text-anchor="start" x="330.5" y="-693.2" font-family="Helvetica,sans-Serif" font-weight="bold" font-size="11.00">cof_infofechamentoblocoh</text>
<text text-anchor="start" x="611.5" y="-692.2" font-family="Helvetica,sans-Serif" font-size="11.00">[table]</text>
<polygon fill="none" stroke="black" points="325.5,-662 325.5,-684 563.5,-684 563.5,-662 325.5,-662"/>
<image xlink:href="../../images/primaryKeys.png" width="11px" height="12px" preserveAspectRatio="xMinYMin meet" x="330.5" y="-679"/>
<text text-anchor="start" x="345.5" y="-670.2" font-family="Helvetica,sans-Serif" font-size="11.00">cof_infofechamentoblocoh_id</text>
<polygon fill="none" stroke="black" points="563.5,-662 563.5,-684 646.5,-684 646.5,-662 563.5,-662"/>
<text text-anchor="start" x="566.5" y="-670.2" font-family="Helvetica,sans-Serif" font-size="11.00">numeric[10]</text>
<polygon fill="#ffffff" stroke="transparent" points="325.5,-640 325.5,-662 563.5,-662 563.5,-640 325.5,-640"/>
<polygon fill="none" stroke="black" points="325.5,-640 325.5,-662 563.5,-662 563.5,-640 325.5,-640"/>
<text text-anchor="start" x="345.5" y="-648.2" font-family="Helvetica,sans-Serif" font-size="11.00">cof_infofechamentoblocoh_uu</text>
<polygon fill="none" stroke="black" points="563.5,-640 563.5,-662 646.5,-662 646.5,-640 563.5,-640"/>
<text text-anchor="start" x="566.5" y="-648.2" font-family="Helvetica,sans-Serif" font-size="11.00">varchar[36]</text>
<polygon fill="none" stroke="black" points="325.5,-618 325.5,-640 563.5,-640 563.5,-618 325.5,-618"/>
<text text-anchor="start" x="345.5" y="-626.2" font-family="Helvetica,sans-Serif" font-size="11.00">ad_client_id</text>
<polygon fill="none" stroke="black" points="563.5,-618 563.5,-640 646.5,-640 646.5,-618 563.5,-618"/>
<text text-anchor="start" x="566.5" y="-626.2" font-family="Helvetica,sans-Serif" font-size="11.00">numeric[10]</text>
<polygon fill="none" stroke="black" points="325.5,-596 325.5,-618 563.5,-618 563.5,-596 325.5,-596"/>
<text text-anchor="start" x="345.5" y="-604.2" font-family="Helvetica,sans-Serif" font-size="11.00">ad_org_id</text>
<polygon fill="none" stroke="black" points="563.5,-596 563.5,-618 646.5,-618 646.5,-596 563.5,-596"/>
<text text-anchor="start" x="566.5" y="-604.2" font-family="Helvetica,sans-Serif" font-size="11.00">numeric[10]</text>
<polygon fill="none" stroke="black" points="325.5,-574 325.5,-596 563.5,-596 563.5,-574 325.5,-574"/>
<text text-anchor="start" x="345.5" y="-582.2" font-family="Helvetica,sans-Serif" font-size="11.00">isactive</text>
<polygon fill="none" stroke="black" points="563.5,-574 563.5,-596 646.5,-596 646.5,-574 563.5,-574"/>
<text text-anchor="start" x="566.5" y="-582.2" font-family="Helvetica,sans-Serif" font-size="11.00">bpchar[1]</text>
<polygon fill="none" stroke="black" points="325.5,-552 325.5,-574 563.5,-574 563.5,-552 325.5,-552"/>
<text text-anchor="start" x="345.5" y="-560.2" font-family="Helvetica,sans-Serif" font-size="11.00">created</text>
<polygon fill="none" stroke="black" points="563.5,-552 563.5,-574 646.5,-574 646.5,-552 563.5,-552"/>
<text text-anchor="start" x="566.5" y="-560.2" font-family="Helvetica,sans-Serif" font-size="11.00">timestamp[29,6]</text>
<polygon fill="none" stroke="black" points="325.5,-530 325.5,-552 563.5,-552 563.5,-530 325.5,-530"/>
<text text-anchor="start" x="345.5" y="-538.2" font-family="Helvetica,sans-Serif" font-size="11.00">createdby</text>
<polygon fill="none" stroke="black" points="563.5,-530 563.5,-552 646.5,-552 646.5,-530 563.5,-530"/>
<text text-anchor="start" x="566.5" y="-538.2" font-family="Helvetica,sans-Serif" font-size="11.00">numeric[10]</text>
<polygon fill="none" stroke="black" points="325.5,-508 325.5,-530 563.5,-530 563.5,-508 325.5,-508"/>
<text text-anchor="start" x="345.5" y="-516.2" font-family="Helvetica,sans-Serif" font-size="11.00">updated</text>
<polygon fill="none" stroke="black" points="563.5,-508 563.5,-530 646.5,-530 646.5,-508 563.5,-508"/>
<text text-anchor="start" x="566.5" y="-516.2" font-family="Helvetica,sans-Serif" font-size="11.00">timestamp[29,6]</text>
<polygon fill="none" stroke="black" points="325.5,-486 325.5,-508 563.5,-508 563.5,-486 325.5,-486"/>
<text text-anchor="start" x="345.5" y="-494.2" font-family="Helvetica,sans-Serif" font-size="11.00">updatedby</text>
<polygon fill="none" stroke="black" points="563.5,-486 563.5,-508 646.5,-508 646.5,-486 563.5,-486"/>
<text text-anchor="start" x="566.5" y="-494.2" font-family="Helvetica,sans-Serif" font-size="11.00">numeric[10]</text>
<polygon fill="none" stroke="black" points="325.5,-464 325.5,-486 563.5,-486 563.5,-464 325.5,-464"/>
<image xlink:href="../../images/foreignKeys.png" width="11px" height="12px" preserveAspectRatio="xMinYMin meet" x="330.5" y="-481"/>
<text text-anchor="start" x="345.5" y="-472.2" font-family="Helvetica,sans-Serif" font-size="11.00">m_product_id</text>
<polygon fill="none" stroke="black" points="563.5,-464 563.5,-486 646.5,-486 646.5,-464 563.5,-464"/>
<text text-anchor="start" x="566.5" y="-472.2" font-family="Helvetica,sans-Serif" font-size="11.00">numeric[10]</text>
<polygon fill="none" stroke="black" points="325.5,-442 325.5,-464 563.5,-464 563.5,-442 325.5,-442"/>
<image xlink:href="../../images/foreignKeys.png" width="11px" height="12px" preserveAspectRatio="xMinYMin meet" x="330.5" y="-459"/>
<text text-anchor="start" x="345.5" y="-450.2" font-family="Helvetica,sans-Serif" font-size="11.00">cof_encerramentoblocoh_id</text>
<polygon fill="none" stroke="black" points="563.5,-442 563.5,-464 646.5,-464 646.5,-442 563.5,-442"/>
<text text-anchor="start" x="566.5" y="-450.2" font-family="Helvetica,sans-Serif" font-size="11.00">numeric[10]</text>
<polygon fill="none" stroke="black" points="325.5,-420 325.5,-442 563.5,-442 563.5,-420 325.5,-420"/>
<text text-anchor="start" x="345.5" y="-428.2" font-family="Helvetica,sans-Serif" font-size="11.00">h010_cod_item</text>
<polygon fill="none" stroke="black" points="563.5,-420 563.5,-442 646.5,-442 646.5,-420 563.5,-420"/>
<text text-anchor="start" x="566.5" y="-428.2" font-family="Helvetica,sans-Serif" font-size="11.00">varchar[60]</text>
<polygon fill="none" stroke="black" points="325.5,-398 325.5,-420 563.5,-420 563.5,-398 325.5,-398"/>
<text text-anchor="start" x="345.5" y="-406.2" font-family="Helvetica,sans-Serif" font-size="11.00">h010_unid</text>
<polygon fill="none" stroke="black" points="563.5,-398 563.5,-420 646.5,-420 646.5,-398 563.5,-398"/>
<text text-anchor="start" x="566.5" y="-406.2" font-family="Helvetica,sans-Serif" font-size="11.00">varchar[6]</text>
<polygon fill="none" stroke="black" points="325.5,-376 325.5,-398 563.5,-398 563.5,-376 325.5,-376"/>
<text text-anchor="start" x="345.5" y="-384.2" font-family="Helvetica,sans-Serif" font-size="11.00">h010_qtd</text>
<polygon fill="none" stroke="black" points="563.5,-376 563.5,-398 646.5,-398 646.5,-376 563.5,-376"/>
<text text-anchor="start" x="566.5" y="-384.2" font-family="Helvetica,sans-Serif" font-size="11.00">numeric[0]</text>
<polygon fill="none" stroke="black" points="325.5,-354 325.5,-376 563.5,-376 563.5,-354 325.5,-354"/>
<text text-anchor="start" x="345.5" y="-362.2" font-family="Helvetica,sans-Serif" font-size="11.00">h010_vl_unit</text>
<polygon fill="none" stroke="black" points="563.5,-354 563.5,-376 646.5,-376 646.5,-354 563.5,-354"/>
<text text-anchor="start" x="566.5" y="-362.2" font-family="Helvetica,sans-Serif" font-size="11.00">numeric[0]</text>
<polygon fill="none" stroke="black" points="325.5,-332 325.5,-354 563.5,-354 563.5,-332 325.5,-332"/>
<text text-anchor="start" x="345.5" y="-340.2" font-family="Helvetica,sans-Serif" font-size="11.00">h010_vl_item</text>
<polygon fill="none" stroke="black" points="563.5,-332 563.5,-354 646.5,-354 646.5,-332 563.5,-332"/>
<text text-anchor="start" x="566.5" y="-340.2" font-family="Helvetica,sans-Serif" font-size="11.00">numeric[0]</text>
<polygon fill="none" stroke="black" points="325.5,-310 325.5,-332 563.5,-332 563.5,-310 325.5,-310"/>
<text text-anchor="start" x="345.5" y="-318.2" font-family="Helvetica,sans-Serif" font-size="11.00">h010_ind_prop</text>
<polygon fill="none" stroke="black" points="563.5,-310 563.5,-332 646.5,-332 646.5,-310 563.5,-310"/>
<text text-anchor="start" x="566.5" y="-318.2" font-family="Helvetica,sans-Serif" font-size="11.00">bpchar[1]</text>
<polygon fill="none" stroke="black" points="325.5,-288 325.5,-310 563.5,-310 563.5,-288 325.5,-288"/>
<text text-anchor="start" x="345.5" y="-296.2" font-family="Helvetica,sans-Serif" font-size="11.00">h010_cod_part</text>
<polygon fill="none" stroke="black" points="563.5,-288 563.5,-310 646.5,-310 646.5,-288 563.5,-288"/>
<text text-anchor="start" x="566.5" y="-296.2" font-family="Helvetica,sans-Serif" font-size="11.00">varchar[60]</text>
<polygon fill="none" stroke="black" points="325.5,-266 325.5,-288 563.5,-288 563.5,-266 325.5,-266"/>
<text text-anchor="start" x="345.5" y="-274.2" font-family="Helvetica,sans-Serif" font-size="11.00">h010_txt_compl</text>
<polygon fill="none" stroke="black" points="563.5,-266 563.5,-288 646.5,-288 646.5,-266 563.5,-266"/>
<text text-anchor="start" x="566.5" y="-274.2" font-family="Helvetica,sans-Serif" font-size="11.00">varchar[2000]</text>
<polygon fill="none" stroke="black" points="325.5,-244 325.5,-266 563.5,-266 563.5,-244 325.5,-244"/>
<text text-anchor="start" x="345.5" y="-252.2" font-family="Helvetica,sans-Serif" font-size="11.00">h010_cod_cta</text>
<polygon fill="none" stroke="black" points="563.5,-244 563.5,-266 646.5,-266 646.5,-244 563.5,-244"/>
<text text-anchor="start" x="566.5" y="-252.2" font-family="Helvetica,sans-Serif" font-size="11.00">varchar[60]</text>
<polygon fill="none" stroke="black" points="325.5,-222 325.5,-244 563.5,-244 563.5,-222 325.5,-222"/>
<text text-anchor="start" x="345.5" y="-230.2" font-family="Helvetica,sans-Serif" font-size="11.00">h010_vl_item_ir</text>
<polygon fill="none" stroke="black" points="563.5,-222 563.5,-244 646.5,-244 646.5,-222 563.5,-222"/>
<text text-anchor="start" x="566.5" y="-230.2" font-family="Helvetica,sans-Serif" font-size="11.00">numeric[0]</text>
<polygon fill="none" stroke="black" points="325.5,-200 325.5,-222 563.5,-222 563.5,-200 325.5,-200"/>
<text text-anchor="start" x="345.5" y="-208.2" font-family="Helvetica,sans-Serif" font-size="11.00">cof_estoqueprevisto</text>
<polygon fill="none" stroke="black" points="563.5,-200 563.5,-222 646.5,-222 646.5,-200 563.5,-200"/>
<text text-anchor="start" x="566.5" y="-208.2" font-family="Helvetica,sans-Serif" font-size="11.00">bpchar[1]</text>
<polygon fill="#ffffff" stroke="transparent" points="325.5,-182 325.5,-200 646.5,-200 646.5,-182 325.5,-182"/>
<polygon fill="none" stroke="black" points="325.5,-182 325.5,-200 646.5,-200 646.5,-182 325.5,-182"/>
<polygon fill="#ffffff" stroke="transparent" points="326.5,-183 326.5,-199 436.5,-199 436.5,-183 326.5,-183"/>
<text text-anchor="start" x="328.5" y="-188.2" font-family="Helvetica,sans-Serif" font-size="11.00">&lt; 2</text>
<polygon fill="#ffffff" stroke="transparent" points="436.5,-183 436.5,-199 536.5,-199 536.5,-183 436.5,-183"/>
<text text-anchor="start" x="483" y="-188.2" font-family="Helvetica,sans-Serif" font-size="11.00"> &#160;</text>
<polygon fill="#ffffff" stroke="transparent" points="536.5,-183 536.5,-199 645.5,-199 645.5,-183 536.5,-183"/>
<text text-anchor="start" x="627.5" y="-188.2" font-family="Helvetica,sans-Serif" font-size="11.00">0 &gt;</text>
<polygon fill="black" stroke="black" points="436.5,-183 436.5,-199 436.5,-199 436.5,-183 436.5,-183"/>
<polygon fill="black" stroke="black" points="536.5,-183 536.5,-199 536.5,-199 536.5,-183 536.5,-183"/>
<polygon fill="none" stroke="black" stroke-width="2" points="324,-181 324,-707 647,-707 647,-181 324,-181"/>
</a>
</g>
</g>
<!-- cof_encerramentoblocoh -->
<g id="node2" class="node">
<title>cof_encerramentoblocoh</title>
<g id="a_node2"><a xlink:href="../../tables/cof_encerramentoblocoh.html" xlink:title="cof_encerramentoblocoh" target="_top">
<polygon fill="#ffffff" stroke="transparent" points="28,-37 28,-139 254,-139 254,-37 28,-37"/>
<polygon fill="#f5f5f5" stroke="transparent" points="28,-117 28,-139 254,-139 254,-117 28,-117"/>
<polygon fill="none" stroke="black" points="28,-117 28,-139 254,-139 254,-117 28,-117"/>
<text text-anchor="start" x="33" y="-126.2" font-family="Helvetica,sans-Serif" font-weight="bold" font-size="11.00">cof_encerramentoblocoh</text>
<text text-anchor="start" x="219" y="-125.2" font-family="Helvetica,sans-Serif" font-size="11.00">[table]</text>
<polygon fill="none" stroke="black" points="28,-95 28,-117 254,-117 254,-95 28,-95"/>
<image xlink:href="../../images/primaryKeys.png" width="11px" height="12px" preserveAspectRatio="xMinYMin meet" x="33" y="-112"/>
<text text-anchor="start" x="48" y="-103.2" font-family="Helvetica,sans-Serif" font-size="11.00">cof_encerramentoblocoh_id</text>
<polygon fill="#ffffff" stroke="transparent" points="28,-73 28,-95 254,-95 254,-73 28,-73"/>
<polygon fill="none" stroke="black" points="28,-73 28,-95 254,-95 254,-73 28,-73"/>
<text text-anchor="start" x="48" y="-81.2" font-family="Helvetica,sans-Serif" font-size="11.00">cof_encerramentoblocoh_uu</text>
<polygon fill="none" stroke="black" points="28,-55 28,-73 254,-73 254,-55 28,-55"/>
<text text-anchor="start" x="31" y="-61.2" font-family="Helvetica,sans-Serif" font-size="11.00">...</text>
<polygon fill="#ffffff" stroke="transparent" points="28,-37 28,-55 254,-55 254,-37 28,-37"/>
<polygon fill="none" stroke="black" points="28,-37 28,-55 254,-55 254,-37 28,-37"/>
<polygon fill="#ffffff" stroke="transparent" points="29,-38 29,-54 101,-54 101,-38 29,-38"/>
<text text-anchor="start" x="31" y="-43.2" font-family="Helvetica,sans-Serif" font-size="11.00"> &#160;</text>
<polygon fill="#ffffff" stroke="transparent" points="101,-38 101,-54 173,-54 173,-38 101,-38"/>
<text text-anchor="start" x="133.5" y="-43.2" font-family="Helvetica,sans-Serif" font-size="11.00"> &#160;</text>
<polygon fill="#ffffff" stroke="transparent" points="173,-38 173,-54 253,-54 253,-38 173,-38"/>
<text text-anchor="start" x="235" y="-43.2" font-family="Helvetica,sans-Serif" font-size="11.00">2 &gt;</text>
<polygon fill="black" stroke="black" points="101,-38 101,-54 101,-54 101,-38 101,-38"/>
<polygon fill="black" stroke="black" points="173,-38 173,-54 173,-54 173,-38 173,-38"/>
</a>
</g>
</g>
<!-- cof_infofechamentoblocoh&#45;&gt;cof_encerramentoblocoh -->
<g id="edge1" class="edge">
<title>cof_infofechamentoblocoh:w&#45;&gt;cof_encerramentoblocoh:e</title>
<path fill="none" stroke="black" d="M310.6,-448.36C257.08,-407.18 328.27,-106 255,-106"/>
<polygon fill="black" stroke="black" points="316.91,-450.47 323.36,-456.41 320.71,-451.73 324.5,-453 324.5,-453 324.5,-453 320.71,-451.73 325.64,-449.59 316.91,-450.47 316.91,-450.47"/>
<ellipse fill="none" stroke="black" cx="313.88" cy="-449.45" rx="3.2" ry="3.2"/>
</g>
<!-- m_product -->
<g id="node3" class="node">
<title>m_product</title>
<g id="a_node3"><a xlink:href="../../tables/m_product.html" xlink:title="m_product" target="_top">
<polygon fill="#ffffff" stroke="transparent" points="8,-160 8,-856 274,-856 274,-160 8,-160"/>
<polygon fill="#f5f5f5" stroke="transparent" points="8,-834 8,-856 274,-856 274,-834 8,-834"/>
<polygon fill="none" stroke="black" points="8,-834 8,-856 274,-856 274,-834 8,-834"/>
<text text-anchor="start" x="13" y="-843.2" font-family="Helvetica,sans-Serif" font-weight="bold" font-size="11.00">m_product</text>
<text text-anchor="start" x="239" y="-842.2" font-family="Helvetica,sans-Serif" font-size="11.00">[table]</text>
<polygon fill="none" stroke="black" points="8,-812 8,-834 274,-834 274,-812 8,-812"/>
<image xlink:href="../../images/primaryKeys.png" width="11px" height="12px" preserveAspectRatio="xMinYMin meet" x="13" y="-829"/>
<text text-anchor="start" x="28" y="-820.2" font-family="Helvetica,sans-Serif" font-size="11.00">m_product_id</text>
<polygon fill="#ffffff" stroke="transparent" points="8,-790 8,-812 274,-812 274,-790 8,-790"/>
<polygon fill="none" stroke="black" points="8,-790 8,-812 274,-812 274,-790 8,-790"/>
<image xlink:href="../../images/foreignKeys.png" width="11px" height="12px" preserveAspectRatio="xMinYMin meet" x="13" y="-807"/>
<text text-anchor="start" x="28" y="-798.2" font-family="Helvetica,sans-Serif" font-size="11.00">ad_client_id</text>
<polygon fill="none" stroke="black" points="8,-768 8,-790 274,-790 274,-768 8,-768"/>
<image xlink:href="../../images/foreignKeys.png" width="11px" height="12px" preserveAspectRatio="xMinYMin meet" x="13" y="-785"/>
<text text-anchor="start" x="28" y="-776.2" font-family="Helvetica,sans-Serif" font-size="11.00">ad_org_id</text>
<polygon fill="#ffffff" stroke="transparent" points="8,-746 8,-768 274,-768 274,-746 8,-746"/>
<polygon fill="none" stroke="black" points="8,-746 8,-768 274,-768 274,-746 8,-746"/>
<text text-anchor="start" x="28" y="-754.2" font-family="Helvetica,sans-Serif" font-size="11.00">value</text>
<polygon fill="#ffffff" stroke="transparent" points="8,-724 8,-746 274,-746 274,-724 8,-724"/>
<polygon fill="none" stroke="black" points="8,-724 8,-746 274,-746 274,-724 8,-724"/>
<text text-anchor="start" x="28" y="-732.2" font-family="Helvetica,sans-Serif" font-size="11.00">name</text>
<polygon fill="#ffffff" stroke="transparent" points="8,-702 8,-724 274,-724 274,-702 8,-702"/>
<polygon fill="none" stroke="black" points="8,-702 8,-724 274,-724 274,-702 8,-702"/>
<text text-anchor="start" x="28" y="-710.2" font-family="Helvetica,sans-Serif" font-size="11.00">upc</text>
<polygon fill="none" stroke="black" points="8,-680 8,-702 274,-702 274,-680 8,-680"/>
<image xlink:href="../../images/foreignKeys.png" width="11px" height="12px" preserveAspectRatio="xMinYMin meet" x="13" y="-697"/>
<text text-anchor="start" x="28" y="-688.2" font-family="Helvetica,sans-Serif" font-size="11.00">c_uom_id</text>
<polygon fill="none" stroke="black" points="8,-658 8,-680 274,-680 274,-658 8,-658"/>
<image xlink:href="../../images/foreignKeys.png" width="11px" height="12px" preserveAspectRatio="xMinYMin meet" x="13" y="-675"/>
<text text-anchor="start" x="28" y="-666.2" font-family="Helvetica,sans-Serif" font-size="11.00">salesrep_id</text>
<polygon fill="none" stroke="black" points="8,-636 8,-658 274,-658 274,-636 8,-636"/>
<image xlink:href="../../images/foreignKeys.png" width="11px" height="12px" preserveAspectRatio="xMinYMin meet" x="13" y="-653"/>
<text text-anchor="start" x="28" y="-644.2" font-family="Helvetica,sans-Serif" font-size="11.00">c_revenuerecognition_id</text>
<polygon fill="#ffffff" stroke="transparent" points="8,-614 8,-636 274,-636 274,-614 8,-614"/>
<polygon fill="none" stroke="black" points="8,-614 8,-636 274,-636 274,-614 8,-614"/>
<image xlink:href="../../images/foreignKeys.png" width="11px" height="12px" preserveAspectRatio="xMinYMin meet" x="13" y="-631"/>
<text text-anchor="start" x="28" y="-622.2" font-family="Helvetica,sans-Serif" font-size="11.00">m_product_category_id</text>
<polygon fill="none" stroke="black" points="8,-592 8,-614 274,-614 274,-592 8,-592"/>
<image xlink:href="../../images/foreignKeys.png" width="11px" height="12px" preserveAspectRatio="xMinYMin meet" x="13" y="-609"/>
<text text-anchor="start" x="28" y="-600.2" font-family="Helvetica,sans-Serif" font-size="11.00">c_taxcategory_id</text>
<polygon fill="#ffffff" stroke="transparent" points="8,-570 8,-592 274,-592 274,-570 8,-570"/>
<polygon fill="none" stroke="black" points="8,-570 8,-592 274,-592 274,-570 8,-570"/>
<image xlink:href="../../images/foreignKeys.png" width="11px" height="12px" preserveAspectRatio="xMinYMin meet" x="13" y="-587"/>
<text text-anchor="start" x="28" y="-578.2" font-family="Helvetica,sans-Serif" font-size="11.00">s_resource_id</text>
<polygon fill="#ffffff" stroke="transparent" points="8,-548 8,-570 274,-570 274,-548 8,-548"/>
<polygon fill="none" stroke="black" points="8,-548 8,-570 274,-570 274,-548 8,-548"/>
<image xlink:href="../../images/foreignKeys.png" width="11px" height="12px" preserveAspectRatio="xMinYMin meet" x="13" y="-565"/>
<text text-anchor="start" x="28" y="-556.2" font-family="Helvetica,sans-Serif" font-size="11.00">s_expensetype_id</text>
<polygon fill="none" stroke="black" points="8,-526 8,-548 274,-548 274,-526 8,-526"/>
<image xlink:href="../../images/foreignKeys.png" width="11px" height="12px" preserveAspectRatio="xMinYMin meet" x="13" y="-543"/>
<text text-anchor="start" x="28" y="-534.2" font-family="Helvetica,sans-Serif" font-size="11.00">r_mailtext_id</text>
<polygon fill="none" stroke="black" points="8,-504 8,-526 274,-526 274,-504 8,-504"/>
<image xlink:href="../../images/foreignKeys.png" width="11px" height="12px" preserveAspectRatio="xMinYMin meet" x="13" y="-521"/>
<text text-anchor="start" x="28" y="-512.2" font-family="Helvetica,sans-Serif" font-size="11.00">m_attributeset_id</text>
<polygon fill="none" stroke="black" points="8,-482 8,-504 274,-504 274,-482 8,-482"/>
<image xlink:href="../../images/foreignKeys.png" width="11px" height="12px" preserveAspectRatio="xMinYMin meet" x="13" y="-499"/>
<text text-anchor="start" x="28" y="-490.2" font-family="Helvetica,sans-Serif" font-size="11.00">m_freightcategory_id</text>
<polygon fill="none" stroke="black" points="8,-460 8,-482 274,-482 274,-460 8,-460"/>
<image xlink:href="../../images/foreignKeys.png" width="11px" height="12px" preserveAspectRatio="xMinYMin meet" x="13" y="-477"/>
<text text-anchor="start" x="28" y="-468.2" font-family="Helvetica,sans-Serif" font-size="11.00">m_locator_id</text>
<polygon fill="none" stroke="black" points="8,-438 8,-460 274,-460 274,-438 8,-438"/>
<image xlink:href="../../images/foreignKeys.png" width="11px" height="12px" preserveAspectRatio="xMinYMin meet" x="13" y="-455"/>
<text text-anchor="start" x="28" y="-446.2" font-family="Helvetica,sans-Serif" font-size="11.00">c_subscriptiontype_id</text>
<polygon fill="#ffffff" stroke="transparent" points="8,-416 8,-438 274,-438 274,-416 8,-416"/>
<polygon fill="none" stroke="black" points="8,-416 8,-438 274,-438 274,-416 8,-416"/>
<text text-anchor="start" x="28" y="-424.2" font-family="Helvetica,sans-Serif" font-size="11.00">m_product_uu</text>
<polygon fill="none" stroke="black" points="8,-394 8,-416 274,-416 274,-394 8,-394"/>
<image xlink:href="../../images/foreignKeys.png" width="11px" height="12px" preserveAspectRatio="xMinYMin meet" x="13" y="-411"/>
<text text-anchor="start" x="28" y="-402.2" font-family="Helvetica,sans-Serif" font-size="11.00">m_parttype_id</text>
<polygon fill="none" stroke="black" points="8,-372 8,-394 274,-394 274,-372 8,-372"/>
<image xlink:href="../../images/foreignKeys.png" width="11px" height="12px" preserveAspectRatio="xMinYMin meet" x="13" y="-389"/>
<text text-anchor="start" x="28" y="-380.2" font-family="Helvetica,sans-Serif" font-size="11.00">cof_cest_id</text>
<polygon fill="none" stroke="black" points="8,-350 8,-372 274,-372 274,-350 8,-350"/>
<image xlink:href="../../images/foreignKeys.png" width="11px" height="12px" preserveAspectRatio="xMinYMin meet" x="13" y="-367"/>
<text text-anchor="start" x="28" y="-358.2" font-family="Helvetica,sans-Serif" font-size="11.00">cof_c_generoitem_sped_id</text>
<polygon fill="none" stroke="black" points="8,-328 8,-350 274,-350 274,-328 8,-328"/>
<image xlink:href="../../images/foreignKeys.png" width="11px" height="12px" preserveAspectRatio="xMinYMin meet" x="13" y="-345"/>
<text text-anchor="start" x="28" y="-336.2" font-family="Helvetica,sans-Serif" font-size="11.00">cof_producttype_id</text>
<polygon fill="none" stroke="black" points="8,-306 8,-328 274,-328 274,-306 8,-306"/>
<image xlink:href="../../images/foreignKeys.png" width="11px" height="12px" preserveAspectRatio="xMinYMin meet" x="13" y="-323"/>
<text text-anchor="start" x="28" y="-314.2" font-family="Helvetica,sans-Serif" font-size="11.00">cof_productclass_id</text>
<polygon fill="none" stroke="black" points="8,-284 8,-306 274,-306 274,-284 8,-284"/>
<image xlink:href="../../images/foreignKeys.png" width="11px" height="12px" preserveAspectRatio="xMinYMin meet" x="13" y="-301"/>
<text text-anchor="start" x="28" y="-292.2" font-family="Helvetica,sans-Serif" font-size="11.00">cof_productgroup_id</text>
<polygon fill="none" stroke="black" points="8,-262 8,-284 274,-284 274,-262 8,-262"/>
<image xlink:href="../../images/foreignKeys.png" width="11px" height="12px" preserveAspectRatio="xMinYMin meet" x="13" y="-279"/>
<text text-anchor="start" x="28" y="-270.2" font-family="Helvetica,sans-Serif" font-size="11.00">cof_nbs_id</text>
<polygon fill="none" stroke="black" points="8,-240 8,-262 274,-262 274,-240 8,-240"/>
<image xlink:href="../../images/foreignKeys.png" width="11px" height="12px" preserveAspectRatio="xMinYMin meet" x="13" y="-257"/>
<text text-anchor="start" x="28" y="-248.2" font-family="Helvetica,sans-Serif" font-size="11.00">cof_grupofornecedor_id</text>
<polygon fill="none" stroke="black" points="8,-218 8,-240 274,-240 274,-218 8,-218"/>
<image xlink:href="../../images/foreignKeys.png" width="11px" height="12px" preserveAspectRatio="xMinYMin meet" x="13" y="-235"/>
<text text-anchor="start" x="28" y="-226.2" font-family="Helvetica,sans-Serif" font-size="11.00">cof_gruposeparacao_id</text>
<polygon fill="none" stroke="black" points="8,-196 8,-218 274,-218 274,-196 8,-196"/>
<image xlink:href="../../images/foreignKeys.png" width="11px" height="12px" preserveAspectRatio="xMinYMin meet" x="13" y="-213"/>
<text text-anchor="start" x="28" y="-204.2" font-family="Helvetica,sans-Serif" font-size="11.00">cof_servicoatrelado_id</text>
<polygon fill="none" stroke="black" points="8,-178 8,-196 274,-196 274,-178 8,-178"/>
<text text-anchor="start" x="11" y="-184.2" font-family="Helvetica,sans-Serif" font-size="11.00">...</text>
<polygon fill="#ffffff" stroke="transparent" points="8,-160 8,-178 274,-178 274,-160 8,-160"/>
<polygon fill="none" stroke="black" points="8,-160 8,-178 274,-178 274,-160 8,-160"/>
<polygon fill="#ffffff" stroke="transparent" points="9,-161 9,-177 93,-177 93,-161 9,-161"/>
<text text-anchor="start" x="11" y="-166.2" font-family="Helvetica,sans-Serif" font-size="11.00">&lt; 24</text>
<polygon fill="#ffffff" stroke="transparent" points="93,-161 93,-177 183,-177 183,-161 93,-161"/>
<text text-anchor="start" x="124" y="-166.2" font-family="Helvetica,sans-Serif" font-size="11.00">1 row</text>
<polygon fill="#ffffff" stroke="transparent" points="183,-161 183,-177 273,-177 273,-161 183,-161"/>
<text text-anchor="start" x="243" y="-166.2" font-family="Helvetica,sans-Serif" font-size="11.00">187 &gt;</text>
<polygon fill="black" stroke="black" points="93,-161 93,-177 93,-177 93,-161 93,-161"/>
<polygon fill="black" stroke="black" points="183,-161 183,-177 183,-177 183,-161 183,-161"/>
</a>
</g>
</g>
<!-- cof_infofechamentoblocoh&#45;&gt;m_product -->
<g id="edge2" class="edge">
<title>cof_infofechamentoblocoh:w&#45;&gt;m_product:e</title>
<path fill="none" stroke="black" d="M309.92,-476.19C185.76,-498.38 425.88,-823 275,-823"/>
<polygon fill="black" stroke="black" points="316.53,-475.65 324.79,-478.59 320.51,-475.33 324.5,-475 324.5,-475 324.5,-475 320.51,-475.33 324.21,-471.41 316.53,-475.65 316.53,-475.65"/>
<ellipse fill="none" stroke="black" cx="313.34" cy="-475.91" rx="3.2" ry="3.2"/>
</g>
</g>
</svg>
