<?xml version="1.0" encoding="UTF-8" standalone="no"?>
<!DOCTYPE svg PUBLIC "-//W3C//DTD SVG 1.1//EN"
 "http://www.w3.org/Graphics/SVG/1.1/DTD/svg11.dtd">
<!-- Generated by graphviz version 2.43.0 (0)
 -->
<!-- Title: oneDegreeRelationshipsDiagram Pages: 1 -->
<svg width="324pt" height="1153pt"
 viewBox="0.00 0.00 324.00 1153.00" xmlns="http://www.w3.org/2000/svg" xmlns:xlink="http://www.w3.org/1999/xlink">
<g id="graph0" class="graph" transform="scale(1 1) rotate(0) translate(4 1149)">
<title>oneDegreeRelationshipsDiagram</title>
<polygon fill="#ffffff" stroke="transparent" points="-4,4 -4,-1149 320,-1149 320,4 -4,4"/>
<text text-anchor="middle" x="71.5" y="-7.2" font-family="Helvetica,sans-Serif" font-size="11.00">Generated by SchemaSpy</text>
<!-- cof_rv_detalheslocalizacao -->
<g id="node1" class="node">
<title>cof_rv_detalheslocalizacao</title>
<g id="a_node1"><a xlink:href="../../tables/cof_rv_detalheslocalizacao.html" xlink:title="cof_rv_detalheslocalizacao" target="_top">
<polygon fill="#ffffff" stroke="transparent" points="8,-37 8,-1141 308,-1141 308,-37 8,-37"/>
<polygon fill="#f5f5f5" stroke="transparent" points="10,-1117 10,-1139 306,-1139 306,-1117 10,-1117"/>
<polygon fill="none" stroke="black" points="10,-1117 10,-1139 306,-1139 306,-1117 10,-1117"/>
<text text-anchor="start" x="15" y="-1126.2" font-family="Helvetica,sans-Serif" font-weight="bold" font-size="11.00">cof_rv_detalheslocalizacao</text>
<text text-anchor="start" x="273" y="-1125.2" font-family="Helvetica,sans-Serif" font-size="11.00">[view]</text>
<polygon fill="none" stroke="black" points="10,-1095 10,-1117 239,-1117 239,-1095 10,-1095"/>
<text text-anchor="start" x="30" y="-1103.2" font-family="Helvetica,sans-Serif" font-size="11.00">ad_org_id</text>
<polygon fill="none" stroke="black" points="239,-1095 239,-1117 306,-1117 306,-1095 239,-1095"/>
<text text-anchor="start" x="242" y="-1103.2" font-family="Helvetica,sans-Serif" font-size="11.00">numeric[10]</text>
<polygon fill="none" stroke="black" points="10,-1073 10,-1095 239,-1095 239,-1073 10,-1073"/>
<text text-anchor="start" x="30" y="-1081.2" font-family="Helvetica,sans-Serif" font-size="11.00">ad_client_id</text>
<polygon fill="none" stroke="black" points="239,-1073 239,-1095 306,-1095 306,-1073 239,-1073"/>
<text text-anchor="start" x="242" y="-1081.2" font-family="Helvetica,sans-Serif" font-size="11.00">numeric[10]</text>
<polygon fill="none" stroke="black" points="10,-1051 10,-1073 239,-1073 239,-1051 10,-1051"/>
<text text-anchor="start" x="30" y="-1059.2" font-family="Helvetica,sans-Serif" font-size="11.00">c_bpartner_id</text>
<polygon fill="none" stroke="black" points="239,-1051 239,-1073 306,-1073 306,-1051 239,-1051"/>
<text text-anchor="start" x="242" y="-1059.2" font-family="Helvetica,sans-Serif" font-size="11.00">numeric[10]</text>
<polygon fill="none" stroke="black" points="10,-1029 10,-1051 239,-1051 239,-1029 10,-1029"/>
<text text-anchor="start" x="30" y="-1037.2" font-family="Helvetica,sans-Serif" font-size="11.00">c_bp_group_id</text>
<polygon fill="none" stroke="black" points="239,-1029 239,-1051 306,-1051 306,-1029 239,-1029"/>
<text text-anchor="start" x="242" y="-1037.2" font-family="Helvetica,sans-Serif" font-size="11.00">numeric[10]</text>
<polygon fill="none" stroke="black" points="10,-1007 10,-1029 239,-1029 239,-1007 10,-1007"/>
<text text-anchor="start" x="30" y="-1015.2" font-family="Helvetica,sans-Serif" font-size="11.00">name</text>
<polygon fill="none" stroke="black" points="239,-1007 239,-1029 306,-1029 306,-1007 239,-1007"/>
<text text-anchor="start" x="242" y="-1015.2" font-family="Helvetica,sans-Serif" font-size="11.00">varchar[120]</text>
<polygon fill="none" stroke="black" points="10,-985 10,-1007 239,-1007 239,-985 10,-985"/>
<text text-anchor="start" x="30" y="-993.2" font-family="Helvetica,sans-Serif" font-size="11.00">cof_situacaocomercial</text>
<polygon fill="none" stroke="black" points="239,-985 239,-1007 306,-1007 306,-985 239,-985"/>
<text text-anchor="start" x="242" y="-993.2" font-family="Helvetica,sans-Serif" font-size="11.00">varchar[4]</text>
<polygon fill="none" stroke="black" points="10,-963 10,-985 239,-985 239,-963 10,-963"/>
<text text-anchor="start" x="30" y="-971.2" font-family="Helvetica,sans-Serif" font-size="11.00">cof_nameloc</text>
<polygon fill="none" stroke="black" points="239,-963 239,-985 306,-985 306,-963 239,-963"/>
<text text-anchor="start" x="242" y="-971.2" font-family="Helvetica,sans-Serif" font-size="11.00">varchar[60]</text>
<polygon fill="none" stroke="black" points="10,-941 10,-963 239,-963 239,-941 10,-941"/>
<text text-anchor="start" x="30" y="-949.2" font-family="Helvetica,sans-Serif" font-size="11.00">phone</text>
<polygon fill="none" stroke="black" points="239,-941 239,-963 306,-963 306,-941 239,-941"/>
<text text-anchor="start" x="242" y="-949.2" font-family="Helvetica,sans-Serif" font-size="11.00">varchar[40]</text>
<polygon fill="none" stroke="black" points="10,-919 10,-941 239,-941 239,-919 10,-919"/>
<text text-anchor="start" x="30" y="-927.2" font-family="Helvetica,sans-Serif" font-size="11.00">isshipto</text>
<polygon fill="none" stroke="black" points="239,-919 239,-941 306,-941 306,-919 239,-919"/>
<text text-anchor="start" x="242" y="-927.2" font-family="Helvetica,sans-Serif" font-size="11.00">bpchar[1]</text>
<polygon fill="none" stroke="black" points="10,-897 10,-919 239,-919 239,-897 10,-897"/>
<text text-anchor="start" x="30" y="-905.2" font-family="Helvetica,sans-Serif" font-size="11.00">ispayfrom</text>
<polygon fill="none" stroke="black" points="239,-897 239,-919 306,-919 306,-897 239,-897"/>
<text text-anchor="start" x="242" y="-905.2" font-family="Helvetica,sans-Serif" font-size="11.00">bpchar[1]</text>
<polygon fill="none" stroke="black" points="10,-875 10,-897 239,-897 239,-875 10,-875"/>
<text text-anchor="start" x="30" y="-883.2" font-family="Helvetica,sans-Serif" font-size="11.00">isbillto</text>
<polygon fill="none" stroke="black" points="239,-875 239,-897 306,-897 306,-875 239,-875"/>
<text text-anchor="start" x="242" y="-883.2" font-family="Helvetica,sans-Serif" font-size="11.00">bpchar[1]</text>
<polygon fill="none" stroke="black" points="10,-853 10,-875 239,-875 239,-853 10,-853"/>
<text text-anchor="start" x="30" y="-861.2" font-family="Helvetica,sans-Serif" font-size="11.00">isremitto</text>
<polygon fill="none" stroke="black" points="239,-853 239,-875 306,-875 306,-853 239,-853"/>
<text text-anchor="start" x="242" y="-861.2" font-family="Helvetica,sans-Serif" font-size="11.00">bpchar[1]</text>
<polygon fill="none" stroke="black" points="10,-831 10,-853 239,-853 239,-831 10,-831"/>
<text text-anchor="start" x="30" y="-839.2" font-family="Helvetica,sans-Serif" font-size="11.00">cof_m_shipregion_id</text>
<polygon fill="none" stroke="black" points="239,-831 239,-853 306,-853 306,-831 239,-831"/>
<text text-anchor="start" x="242" y="-839.2" font-family="Helvetica,sans-Serif" font-size="11.00">numeric[10]</text>
<polygon fill="none" stroke="black" points="10,-809 10,-831 239,-831 239,-809 10,-809"/>
<text text-anchor="start" x="30" y="-817.2" font-family="Helvetica,sans-Serif" font-size="11.00">cof_modfrete</text>
<polygon fill="none" stroke="black" points="239,-809 239,-831 306,-831 306,-809 239,-809"/>
<text text-anchor="start" x="242" y="-817.2" font-family="Helvetica,sans-Serif" font-size="11.00">bpchar[1]</text>
<polygon fill="none" stroke="black" points="10,-787 10,-809 239,-809 239,-787 10,-787"/>
<text text-anchor="start" x="30" y="-795.2" font-family="Helvetica,sans-Serif" font-size="11.00">cof_sequenciaentrega</text>
<polygon fill="none" stroke="black" points="239,-787 239,-809 306,-809 306,-787 239,-787"/>
<text text-anchor="start" x="242" y="-795.2" font-family="Helvetica,sans-Serif" font-size="11.00">numeric[10]</text>
<polygon fill="none" stroke="black" points="10,-765 10,-787 239,-787 239,-765 10,-765"/>
<text text-anchor="start" x="30" y="-773.2" font-family="Helvetica,sans-Serif" font-size="11.00">cof_sequenciaentregacidade</text>
<polygon fill="none" stroke="black" points="239,-765 239,-787 306,-787 306,-765 239,-765"/>
<text text-anchor="start" x="242" y="-773.2" font-family="Helvetica,sans-Serif" font-size="11.00">numeric[10]</text>
<polygon fill="none" stroke="black" points="10,-743 10,-765 239,-765 239,-743 10,-743"/>
<text text-anchor="start" x="30" y="-751.2" font-family="Helvetica,sans-Serif" font-size="11.00">cof_sequenciaentregaregiao</text>
<polygon fill="none" stroke="black" points="239,-743 239,-765 306,-765 306,-743 239,-743"/>
<text text-anchor="start" x="242" y="-751.2" font-family="Helvetica,sans-Serif" font-size="11.00">numeric[10]</text>
<polygon fill="none" stroke="black" points="10,-721 10,-743 239,-743 239,-721 10,-721"/>
<text text-anchor="start" x="30" y="-729.2" font-family="Helvetica,sans-Serif" font-size="11.00">c_salesregion_id</text>
<polygon fill="none" stroke="black" points="239,-721 239,-743 306,-743 306,-721 239,-721"/>
<text text-anchor="start" x="242" y="-729.2" font-family="Helvetica,sans-Serif" font-size="11.00">numeric[10]</text>
<polygon fill="none" stroke="black" points="10,-699 10,-721 239,-721 239,-699 10,-699"/>
<text text-anchor="start" x="30" y="-707.2" font-family="Helvetica,sans-Serif" font-size="11.00">cof_shipper_id</text>
<polygon fill="none" stroke="black" points="239,-699 239,-721 306,-721 306,-699 239,-699"/>
<text text-anchor="start" x="242" y="-707.2" font-family="Helvetica,sans-Serif" font-size="11.00">numeric[10]</text>
<polygon fill="none" stroke="black" points="10,-677 10,-699 239,-699 239,-677 10,-677"/>
<text text-anchor="start" x="30" y="-685.2" font-family="Helvetica,sans-Serif" font-size="11.00">address1</text>
<polygon fill="none" stroke="black" points="239,-677 239,-699 306,-699 306,-677 239,-677"/>
<text text-anchor="start" x="242" y="-685.2" font-family="Helvetica,sans-Serif" font-size="11.00">varchar[60]</text>
<polygon fill="none" stroke="black" points="10,-655 10,-677 239,-677 239,-655 10,-655"/>
<text text-anchor="start" x="30" y="-663.2" font-family="Helvetica,sans-Serif" font-size="11.00">address2</text>
<polygon fill="none" stroke="black" points="239,-655 239,-677 306,-677 306,-655 239,-655"/>
<text text-anchor="start" x="242" y="-663.2" font-family="Helvetica,sans-Serif" font-size="11.00">varchar[60]</text>
<polygon fill="none" stroke="black" points="10,-633 10,-655 239,-655 239,-633 10,-633"/>
<text text-anchor="start" x="30" y="-641.2" font-family="Helvetica,sans-Serif" font-size="11.00">address3</text>
<polygon fill="none" stroke="black" points="239,-633 239,-655 306,-655 306,-633 239,-633"/>
<text text-anchor="start" x="242" y="-641.2" font-family="Helvetica,sans-Serif" font-size="11.00">varchar[60]</text>
<polygon fill="none" stroke="black" points="10,-611 10,-633 239,-633 239,-611 10,-611"/>
<text text-anchor="start" x="30" y="-619.2" font-family="Helvetica,sans-Serif" font-size="11.00">address4</text>
<polygon fill="none" stroke="black" points="239,-611 239,-633 306,-633 306,-611 239,-611"/>
<text text-anchor="start" x="242" y="-619.2" font-family="Helvetica,sans-Serif" font-size="11.00">varchar[60]</text>
<polygon fill="none" stroke="black" points="10,-589 10,-611 239,-611 239,-589 10,-589"/>
<text text-anchor="start" x="30" y="-597.2" font-family="Helvetica,sans-Serif" font-size="11.00">address5</text>
<polygon fill="none" stroke="black" points="239,-589 239,-611 306,-611 306,-589 239,-589"/>
<text text-anchor="start" x="242" y="-597.2" font-family="Helvetica,sans-Serif" font-size="11.00">varchar[60]</text>
<polygon fill="none" stroke="black" points="10,-567 10,-589 239,-589 239,-567 10,-567"/>
<text text-anchor="start" x="30" y="-575.2" font-family="Helvetica,sans-Serif" font-size="11.00">c_city_id</text>
<polygon fill="none" stroke="black" points="239,-567 239,-589 306,-589 306,-567 239,-567"/>
<text text-anchor="start" x="242" y="-575.2" font-family="Helvetica,sans-Serif" font-size="11.00">numeric[10]</text>
<polygon fill="none" stroke="black" points="10,-545 10,-567 239,-567 239,-545 10,-545"/>
<text text-anchor="start" x="30" y="-553.2" font-family="Helvetica,sans-Serif" font-size="11.00">c_country_id</text>
<polygon fill="none" stroke="black" points="239,-545 239,-567 306,-567 306,-545 239,-545"/>
<text text-anchor="start" x="242" y="-553.2" font-family="Helvetica,sans-Serif" font-size="11.00">numeric[10]</text>
<polygon fill="none" stroke="black" points="10,-523 10,-545 239,-545 239,-523 10,-523"/>
<text text-anchor="start" x="30" y="-531.2" font-family="Helvetica,sans-Serif" font-size="11.00">c_region_id</text>
<polygon fill="none" stroke="black" points="239,-523 239,-545 306,-545 306,-523 239,-523"/>
<text text-anchor="start" x="242" y="-531.2" font-family="Helvetica,sans-Serif" font-size="11.00">numeric[10]</text>
<polygon fill="none" stroke="black" points="10,-501 10,-523 239,-523 239,-501 10,-501"/>
<text text-anchor="start" x="30" y="-509.2" font-family="Helvetica,sans-Serif" font-size="11.00">regionname</text>
<polygon fill="none" stroke="black" points="239,-501 239,-523 306,-523 306,-501 239,-501"/>
<text text-anchor="start" x="242" y="-509.2" font-family="Helvetica,sans-Serif" font-size="11.00">varchar[40]</text>
<polygon fill="none" stroke="black" points="10,-479 10,-501 239,-501 239,-479 10,-479"/>
<text text-anchor="start" x="30" y="-487.2" font-family="Helvetica,sans-Serif" font-size="11.00">city</text>
<polygon fill="none" stroke="black" points="239,-479 239,-501 306,-501 306,-479 239,-479"/>
<text text-anchor="start" x="242" y="-487.2" font-family="Helvetica,sans-Serif" font-size="11.00">varchar[60]</text>
<polygon fill="none" stroke="black" points="10,-457 10,-479 239,-479 239,-457 10,-457"/>
<text text-anchor="start" x="30" y="-465.2" font-family="Helvetica,sans-Serif" font-size="11.00">cof_latitude</text>
<polygon fill="none" stroke="black" points="239,-457 239,-479 306,-479 306,-457 239,-457"/>
<text text-anchor="start" x="242" y="-465.2" font-family="Helvetica,sans-Serif" font-size="11.00">varchar[15]</text>
<polygon fill="none" stroke="black" points="10,-435 10,-457 239,-457 239,-435 10,-435"/>
<text text-anchor="start" x="30" y="-443.2" font-family="Helvetica,sans-Serif" font-size="11.00">cof_longitude</text>
<polygon fill="none" stroke="black" points="239,-435 239,-457 306,-457 306,-435 239,-435"/>
<text text-anchor="start" x="242" y="-443.2" font-family="Helvetica,sans-Serif" font-size="11.00">varchar[15]</text>
<polygon fill="none" stroke="black" points="10,-413 10,-435 239,-435 239,-413 10,-413"/>
<text text-anchor="start" x="30" y="-421.2" font-family="Helvetica,sans-Serif" font-size="11.00">postal</text>
<polygon fill="none" stroke="black" points="239,-413 239,-435 306,-435 306,-413 239,-413"/>
<text text-anchor="start" x="242" y="-421.2" font-family="Helvetica,sans-Serif" font-size="11.00">varchar[10]</text>
<polygon fill="none" stroke="black" points="10,-391 10,-413 239,-413 239,-391 10,-391"/>
<text text-anchor="start" x="30" y="-399.2" font-family="Helvetica,sans-Serif" font-size="11.00">cityname</text>
<polygon fill="none" stroke="black" points="239,-391 239,-413 306,-413 306,-391 239,-391"/>
<text text-anchor="start" x="242" y="-399.2" font-family="Helvetica,sans-Serif" font-size="11.00">varchar[60]</text>
<polygon fill="none" stroke="black" points="10,-369 10,-391 239,-391 239,-369 10,-369"/>
<text text-anchor="start" x="30" y="-377.2" font-family="Helvetica,sans-Serif" font-size="11.00">areacode</text>
<polygon fill="none" stroke="black" points="239,-369 239,-391 306,-391 306,-369 239,-369"/>
<text text-anchor="start" x="242" y="-377.2" font-family="Helvetica,sans-Serif" font-size="11.00">varchar[10]</text>
<polygon fill="none" stroke="black" points="10,-347 10,-369 239,-369 239,-347 10,-347"/>
<text text-anchor="start" x="30" y="-355.2" font-family="Helvetica,sans-Serif" font-size="11.00">locode</text>
<polygon fill="none" stroke="black" points="239,-347 239,-369 306,-369 306,-347 239,-347"/>
<text text-anchor="start" x="242" y="-355.2" font-family="Helvetica,sans-Serif" font-size="11.00">varchar[10]</text>
<polygon fill="none" stroke="black" points="10,-325 10,-347 239,-347 239,-325 10,-325"/>
<text text-anchor="start" x="30" y="-333.2" font-family="Helvetica,sans-Serif" font-size="11.00">coordinates</text>
<polygon fill="none" stroke="black" points="239,-325 239,-347 306,-347 306,-325 239,-325"/>
<text text-anchor="start" x="242" y="-333.2" font-family="Helvetica,sans-Serif" font-size="11.00">varchar[15]</text>
<polygon fill="none" stroke="black" points="10,-303 10,-325 239,-325 239,-303 10,-303"/>
<text text-anchor="start" x="30" y="-311.2" font-family="Helvetica,sans-Serif" font-size="11.00">lbr_citycode</text>
<polygon fill="none" stroke="black" points="239,-303 239,-325 306,-325 306,-303 239,-303"/>
<text text-anchor="start" x="242" y="-311.2" font-family="Helvetica,sans-Serif" font-size="11.00">varchar[10]</text>
<polygon fill="none" stroke="black" points="10,-281 10,-303 239,-303 239,-281 10,-281"/>
<text text-anchor="start" x="30" y="-289.2" font-family="Helvetica,sans-Serif" font-size="11.00">lbr_regioncode</text>
<polygon fill="none" stroke="black" points="239,-281 239,-303 306,-303 306,-281 239,-281"/>
<text text-anchor="start" x="242" y="-289.2" font-family="Helvetica,sans-Serif" font-size="11.00">numeric[10]</text>
<polygon fill="none" stroke="black" points="10,-259 10,-281 239,-281 239,-259 10,-259"/>
<text text-anchor="start" x="30" y="-267.2" font-family="Helvetica,sans-Serif" font-size="11.00">cof_regiondescription</text>
<polygon fill="none" stroke="black" points="239,-259 239,-281 306,-281 306,-259 239,-259"/>
<text text-anchor="start" x="242" y="-267.2" font-family="Helvetica,sans-Serif" font-size="11.00">varchar[255]</text>
<polygon fill="none" stroke="black" points="10,-237 10,-259 239,-259 239,-237 10,-237"/>
<text text-anchor="start" x="30" y="-245.2" font-family="Helvetica,sans-Serif" font-size="11.00">ad_language</text>
<polygon fill="none" stroke="black" points="239,-237 239,-259 306,-259 306,-237 239,-237"/>
<text text-anchor="start" x="242" y="-245.2" font-family="Helvetica,sans-Serif" font-size="11.00">varchar[6]</text>
<polygon fill="none" stroke="black" points="10,-215 10,-237 239,-237 239,-215 10,-215"/>
<text text-anchor="start" x="30" y="-223.2" font-family="Helvetica,sans-Serif" font-size="11.00">cof_countryname</text>
<polygon fill="none" stroke="black" points="239,-215 239,-237 306,-237 306,-215 239,-215"/>
<text text-anchor="start" x="242" y="-223.2" font-family="Helvetica,sans-Serif" font-size="11.00">varchar[60]</text>
<polygon fill="none" stroke="black" points="10,-193 10,-215 239,-215 239,-193 10,-193"/>
<text text-anchor="start" x="30" y="-201.2" font-family="Helvetica,sans-Serif" font-size="11.00">cof_countrydescription</text>
<polygon fill="none" stroke="black" points="239,-193 239,-215 306,-215 306,-193 239,-193"/>
<text text-anchor="start" x="242" y="-201.2" font-family="Helvetica,sans-Serif" font-size="11.00">varchar[255]</text>
<polygon fill="none" stroke="black" points="10,-171 10,-193 239,-193 239,-171 10,-171"/>
<text text-anchor="start" x="30" y="-179.2" font-family="Helvetica,sans-Serif" font-size="11.00">c_currency_id</text>
<polygon fill="none" stroke="black" points="239,-171 239,-193 306,-193 306,-171 239,-171"/>
<text text-anchor="start" x="242" y="-179.2" font-family="Helvetica,sans-Serif" font-size="11.00">numeric[10]</text>
<polygon fill="none" stroke="black" points="10,-149 10,-171 239,-171 239,-149 10,-149"/>
<text text-anchor="start" x="30" y="-157.2" font-family="Helvetica,sans-Serif" font-size="11.00">countrycode</text>
<polygon fill="none" stroke="black" points="239,-149 239,-171 306,-171 306,-149 239,-149"/>
<text text-anchor="start" x="242" y="-157.2" font-family="Helvetica,sans-Serif" font-size="11.00">bpchar[2]</text>
<polygon fill="none" stroke="black" points="10,-127 10,-149 239,-149 239,-127 10,-127"/>
<text text-anchor="start" x="30" y="-135.2" font-family="Helvetica,sans-Serif" font-size="11.00">value</text>
<polygon fill="none" stroke="black" points="239,-127 239,-149 306,-149 306,-127 239,-127"/>
<text text-anchor="start" x="242" y="-135.2" font-family="Helvetica,sans-Serif" font-size="11.00">varchar[40]</text>
<polygon fill="none" stroke="black" points="10,-105 10,-127 239,-127 239,-105 10,-105"/>
<text text-anchor="start" x="30" y="-113.2" font-family="Helvetica,sans-Serif" font-size="11.00">cof_nameregiaoentrega</text>
<polygon fill="none" stroke="black" points="239,-105 239,-127 306,-127 306,-105 239,-105"/>
<text text-anchor="start" x="242" y="-113.2" font-family="Helvetica,sans-Serif" font-size="11.00">varchar[60]</text>
<polygon fill="none" stroke="black" points="10,-83 10,-105 239,-105 239,-83 10,-83"/>
<text text-anchor="start" x="30" y="-91.2" font-family="Helvetica,sans-Serif" font-size="11.00">cof_shipregiondescription</text>
<polygon fill="none" stroke="black" points="239,-83 239,-105 306,-105 306,-83 239,-83"/>
<text text-anchor="start" x="242" y="-91.2" font-family="Helvetica,sans-Serif" font-size="11.00">varchar[255]</text>
<polygon fill="none" stroke="black" points="10,-61 10,-83 239,-83 239,-61 10,-61"/>
<text text-anchor="start" x="30" y="-69.2" font-family="Helvetica,sans-Serif" font-size="11.00">isactive</text>
<polygon fill="none" stroke="black" points="239,-61 239,-83 306,-83 306,-61 239,-61"/>
<text text-anchor="start" x="242" y="-69.2" font-family="Helvetica,sans-Serif" font-size="11.00">bpchar[1]</text>
<polygon fill="none" stroke="black" points="10,-39 10,-61 239,-61 239,-39 10,-39"/>
<text text-anchor="start" x="30" y="-47.2" font-family="Helvetica,sans-Serif" font-size="11.00">isdefault</text>
<polygon fill="none" stroke="black" points="239,-39 239,-61 306,-61 306,-39 239,-39"/>
<text text-anchor="start" x="242" y="-47.2" font-family="Helvetica,sans-Serif" font-size="11.00">bpchar[1]</text>
<polygon fill="none" stroke="black" stroke-width="2" points="9,-38 9,-1140 307,-1140 307,-38 9,-38"/>
</a>
</g>
</g>
</g>
</svg>
