<?xml version="1.0" encoding="UTF-8" standalone="no"?>
<!DOCTYPE svg PUBLIC "-//W3C//DTD SVG 1.1//EN"
 "http://www.w3.org/Graphics/SVG/1.1/DTD/svg11.dtd">
<!-- Generated by graphviz version 2.43.0 (0)
 -->
<!-- Title: oneDegreeRelationshipsDiagram Pages: 1 -->
<svg width="595pt" height="1075pt"
 viewBox="0.00 0.00 595.00 1075.00" xmlns="http://www.w3.org/2000/svg" xmlns:xlink="http://www.w3.org/1999/xlink">
<g id="graph0" class="graph" transform="scale(1 1) rotate(0) translate(4 1071)">
<title>oneDegreeRelationshipsDiagram</title>
<polygon fill="#ffffff" stroke="transparent" points="-4,4 -4,-1071 591,-1071 591,4 -4,4"/>
<text text-anchor="middle" x="71.5" y="-7.2" font-family="Helvetica,sans-Serif" font-size="11.00">Generated by SchemaSpy</text>
<!-- cte_cte -->
<g id="node1" class="node">
<title>cte_cte</title>
<g id="a_node1"><a xlink:href="../../tables/cte_cte.html" xlink:title="cte_cte" target="_top">
<polygon fill="#ffffff" stroke="transparent" points="299,-37 299,-1063 579,-1063 579,-37 299,-37"/>
<polygon fill="#f5f5f5" stroke="transparent" points="299,-1041 299,-1063 579,-1063 579,-1041 299,-1041"/>
<polygon fill="none" stroke="black" points="299,-1041 299,-1063 579,-1063 579,-1041 299,-1041"/>
<text text-anchor="start" x="304" y="-1050.2" font-family="Helvetica,sans-Serif" font-weight="bold" font-size="11.00">cte_cte</text>
<text text-anchor="start" x="544" y="-1049.2" font-family="Helvetica,sans-Serif" font-size="11.00">[table]</text>
<polygon fill="none" stroke="black" points="299,-1019 299,-1041 579,-1041 579,-1019 299,-1019"/>
<image xlink:href="../../images/primaryKeys.png" width="11px" height="12px" preserveAspectRatio="xMinYMin meet" x="304" y="-1036"/>
<text text-anchor="start" x="319" y="-1027.2" font-family="Helvetica,sans-Serif" font-size="11.00">cte_cte_id</text>
<polygon fill="#ffffff" stroke="transparent" points="299,-997 299,-1019 579,-1019 579,-997 299,-997"/>
<polygon fill="none" stroke="black" points="299,-997 299,-1019 579,-1019 579,-997 299,-997"/>
<text text-anchor="start" x="319" y="-1005.2" font-family="Helvetica,sans-Serif" font-size="11.00">cte_cte_uu</text>
<polygon fill="none" stroke="black" points="299,-975 299,-997 579,-997 579,-975 299,-975"/>
<image xlink:href="../../images/foreignKeys.png" width="11px" height="12px" preserveAspectRatio="xMinYMin meet" x="304" y="-992"/>
<text text-anchor="start" x="319" y="-983.2" font-family="Helvetica,sans-Serif" font-size="11.00">cte_lote_id</text>
<polygon fill="#ffffff" stroke="transparent" points="299,-953 299,-975 579,-975 579,-953 299,-953"/>
<polygon fill="none" stroke="black" points="299,-953 299,-975 579,-975 579,-953 299,-953"/>
<image xlink:href="../../images/foreignKeys.png" width="11px" height="12px" preserveAspectRatio="xMinYMin meet" x="304" y="-970"/>
<text text-anchor="start" x="319" y="-961.2" font-family="Helvetica,sans-Serif" font-size="11.00">c_order_id</text>
<polygon fill="#ffffff" stroke="transparent" points="299,-931 299,-953 579,-953 579,-931 299,-931"/>
<polygon fill="none" stroke="black" points="299,-931 299,-953 579,-953 579,-931 299,-931"/>
<image xlink:href="../../images/foreignKeys.png" width="11px" height="12px" preserveAspectRatio="xMinYMin meet" x="304" y="-948"/>
<text text-anchor="start" x="319" y="-939.2" font-family="Helvetica,sans-Serif" font-size="11.00">c_invoice_id</text>
<polygon fill="none" stroke="black" points="299,-909 299,-931 579,-931 579,-909 299,-909"/>
<image xlink:href="../../images/foreignKeys.png" width="11px" height="12px" preserveAspectRatio="xMinYMin meet" x="304" y="-926"/>
<text text-anchor="start" x="319" y="-917.2" font-family="Helvetica,sans-Serif" font-size="11.00">c_doctype_id</text>
<polygon fill="none" stroke="black" points="299,-887 299,-909 579,-909 579,-887 299,-887"/>
<image xlink:href="../../images/foreignKeys.png" width="11px" height="12px" preserveAspectRatio="xMinYMin meet" x="304" y="-904"/>
<text text-anchor="start" x="319" y="-895.2" font-family="Helvetica,sans-Serif" font-size="11.00">c_doctypetarget_id</text>
<polygon fill="none" stroke="black" points="299,-865 299,-887 579,-887 579,-865 299,-865"/>
<image xlink:href="../../images/foreignKeys.png" width="11px" height="12px" preserveAspectRatio="xMinYMin meet" x="304" y="-882"/>
<text text-anchor="start" x="319" y="-873.2" font-family="Helvetica,sans-Serif" font-size="11.00">cte_bptomador_id</text>
<polygon fill="none" stroke="black" points="299,-843 299,-865 579,-865 579,-843 299,-843"/>
<image xlink:href="../../images/foreignKeys.png" width="11px" height="12px" preserveAspectRatio="xMinYMin meet" x="304" y="-860"/>
<text text-anchor="start" x="319" y="-851.2" font-family="Helvetica,sans-Serif" font-size="11.00">cte_bpdestinatario_id</text>
<polygon fill="none" stroke="black" points="299,-821 299,-843 579,-843 579,-821 299,-821"/>
<image xlink:href="../../images/foreignKeys.png" width="11px" height="12px" preserveAspectRatio="xMinYMin meet" x="304" y="-838"/>
<text text-anchor="start" x="319" y="-829.2" font-family="Helvetica,sans-Serif" font-size="11.00">cte_bpremetente_id</text>
<polygon fill="none" stroke="black" points="299,-799 299,-821 579,-821 579,-799 299,-799"/>
<image xlink:href="../../images/foreignKeys.png" width="11px" height="12px" preserveAspectRatio="xMinYMin meet" x="304" y="-816"/>
<text text-anchor="start" x="319" y="-807.2" font-family="Helvetica,sans-Serif" font-size="11.00">cte_bpdestinatarioloc_id</text>
<polygon fill="none" stroke="black" points="299,-777 299,-799 579,-799 579,-777 299,-777"/>
<image xlink:href="../../images/foreignKeys.png" width="11px" height="12px" preserveAspectRatio="xMinYMin meet" x="304" y="-794"/>
<text text-anchor="start" x="319" y="-785.2" font-family="Helvetica,sans-Serif" font-size="11.00">cte_bpremetenteloc_id</text>
<polygon fill="none" stroke="black" points="299,-755 299,-777 579,-777 579,-755 299,-755"/>
<image xlink:href="../../images/foreignKeys.png" width="11px" height="12px" preserveAspectRatio="xMinYMin meet" x="304" y="-772"/>
<text text-anchor="start" x="319" y="-763.2" font-family="Helvetica,sans-Serif" font-size="11.00">cte_bptomadorloc_id</text>
<polygon fill="none" stroke="black" points="299,-733 299,-755 579,-755 579,-733 299,-733"/>
<image xlink:href="../../images/foreignKeys.png" width="11px" height="12px" preserveAspectRatio="xMinYMin meet" x="304" y="-750"/>
<text text-anchor="start" x="319" y="-741.2" font-family="Helvetica,sans-Serif" font-size="11.00">cte_cfop_id</text>
<polygon fill="none" stroke="black" points="299,-711 299,-733 579,-733 579,-711 299,-711"/>
<image xlink:href="../../images/foreignKeys.png" width="11px" height="12px" preserveAspectRatio="xMinYMin meet" x="304" y="-728"/>
<text text-anchor="start" x="319" y="-719.2" font-family="Helvetica,sans-Serif" font-size="11.00">cte_dest_city_id</text>
<polygon fill="none" stroke="black" points="299,-689 299,-711 579,-711 579,-689 299,-689"/>
<image xlink:href="../../images/foreignKeys.png" width="11px" height="12px" preserveAspectRatio="xMinYMin meet" x="304" y="-706"/>
<text text-anchor="start" x="319" y="-697.2" font-family="Helvetica,sans-Serif" font-size="11.00">cte_dest_country_id</text>
<polygon fill="none" stroke="black" points="299,-667 299,-689 579,-689 579,-667 299,-667"/>
<image xlink:href="../../images/foreignKeys.png" width="11px" height="12px" preserveAspectRatio="xMinYMin meet" x="304" y="-684"/>
<text text-anchor="start" x="319" y="-675.2" font-family="Helvetica,sans-Serif" font-size="11.00">cte_dest_region_id</text>
<polygon fill="none" stroke="black" points="299,-645 299,-667 579,-667 579,-645 299,-645"/>
<image xlink:href="../../images/foreignKeys.png" width="11px" height="12px" preserveAspectRatio="xMinYMin meet" x="304" y="-662"/>
<text text-anchor="start" x="319" y="-653.2" font-family="Helvetica,sans-Serif" font-size="11.00">cte_emit_city_id</text>
<polygon fill="none" stroke="black" points="299,-623 299,-645 579,-645 579,-623 299,-623"/>
<image xlink:href="../../images/foreignKeys.png" width="11px" height="12px" preserveAspectRatio="xMinYMin meet" x="304" y="-640"/>
<text text-anchor="start" x="319" y="-631.2" font-family="Helvetica,sans-Serif" font-size="11.00">cte_emit_country_id</text>
<polygon fill="none" stroke="black" points="299,-601 299,-623 579,-623 579,-601 299,-601"/>
<image xlink:href="../../images/foreignKeys.png" width="11px" height="12px" preserveAspectRatio="xMinYMin meet" x="304" y="-618"/>
<text text-anchor="start" x="319" y="-609.2" font-family="Helvetica,sans-Serif" font-size="11.00">cte_emit_region_id</text>
<polygon fill="none" stroke="black" points="299,-579 299,-601 579,-601 579,-579 299,-579"/>
<image xlink:href="../../images/foreignKeys.png" width="11px" height="12px" preserveAspectRatio="xMinYMin meet" x="304" y="-596"/>
<text text-anchor="start" x="319" y="-587.2" font-family="Helvetica,sans-Serif" font-size="11.00">cte_rem_city_id</text>
<polygon fill="none" stroke="black" points="299,-557 299,-579 579,-579 579,-557 299,-557"/>
<image xlink:href="../../images/foreignKeys.png" width="11px" height="12px" preserveAspectRatio="xMinYMin meet" x="304" y="-574"/>
<text text-anchor="start" x="319" y="-565.2" font-family="Helvetica,sans-Serif" font-size="11.00">cte_rem_country_id</text>
<polygon fill="none" stroke="black" points="299,-535 299,-557 579,-557 579,-535 299,-535"/>
<image xlink:href="../../images/foreignKeys.png" width="11px" height="12px" preserveAspectRatio="xMinYMin meet" x="304" y="-552"/>
<text text-anchor="start" x="319" y="-543.2" font-family="Helvetica,sans-Serif" font-size="11.00">cte_rem_region_id</text>
<polygon fill="none" stroke="black" points="299,-513 299,-535 579,-535 579,-513 299,-513"/>
<image xlink:href="../../images/foreignKeys.png" width="11px" height="12px" preserveAspectRatio="xMinYMin meet" x="304" y="-530"/>
<text text-anchor="start" x="319" y="-521.2" font-family="Helvetica,sans-Serif" font-size="11.00">cte_toma_city_id</text>
<polygon fill="none" stroke="black" points="299,-491 299,-513 579,-513 579,-491 299,-491"/>
<image xlink:href="../../images/foreignKeys.png" width="11px" height="12px" preserveAspectRatio="xMinYMin meet" x="304" y="-508"/>
<text text-anchor="start" x="319" y="-499.2" font-family="Helvetica,sans-Serif" font-size="11.00">cte_toma_country_id</text>
<polygon fill="none" stroke="black" points="299,-469 299,-491 579,-491 579,-469 299,-469"/>
<image xlink:href="../../images/foreignKeys.png" width="11px" height="12px" preserveAspectRatio="xMinYMin meet" x="304" y="-486"/>
<text text-anchor="start" x="319" y="-477.2" font-family="Helvetica,sans-Serif" font-size="11.00">cte_toma_region_id</text>
<polygon fill="none" stroke="black" points="299,-447 299,-469 579,-469 579,-447 299,-447"/>
<image xlink:href="../../images/foreignKeys.png" width="11px" height="12px" preserveAspectRatio="xMinYMin meet" x="304" y="-464"/>
<text text-anchor="start" x="319" y="-455.2" font-family="Helvetica,sans-Serif" font-size="11.00">c_currency_id</text>
<polygon fill="none" stroke="black" points="299,-425 299,-447 579,-447 579,-425 299,-425"/>
<image xlink:href="../../images/foreignKeys.png" width="11px" height="12px" preserveAspectRatio="xMinYMin meet" x="304" y="-442"/>
<text text-anchor="start" x="319" y="-433.2" font-family="Helvetica,sans-Serif" font-size="11.00">m_pricelist_id</text>
<polygon fill="none" stroke="black" points="299,-403 299,-425 579,-425 579,-403 299,-403"/>
<image xlink:href="../../images/foreignKeys.png" width="11px" height="12px" preserveAspectRatio="xMinYMin meet" x="304" y="-420"/>
<text text-anchor="start" x="319" y="-411.2" font-family="Helvetica,sans-Serif" font-size="11.00">cte_bprecebedor_id</text>
<polygon fill="none" stroke="black" points="299,-381 299,-403 579,-403 579,-381 299,-381"/>
<image xlink:href="../../images/foreignKeys.png" width="11px" height="12px" preserveAspectRatio="xMinYMin meet" x="304" y="-398"/>
<text text-anchor="start" x="319" y="-389.2" font-family="Helvetica,sans-Serif" font-size="11.00">cte_bpexpedidor_id</text>
<polygon fill="none" stroke="black" points="299,-359 299,-381 579,-381 579,-359 299,-359"/>
<image xlink:href="../../images/foreignKeys.png" width="11px" height="12px" preserveAspectRatio="xMinYMin meet" x="304" y="-376"/>
<text text-anchor="start" x="319" y="-367.2" font-family="Helvetica,sans-Serif" font-size="11.00">cte_bpexpedidorloc_id</text>
<polygon fill="none" stroke="black" points="299,-337 299,-359 579,-359 579,-337 299,-337"/>
<image xlink:href="../../images/foreignKeys.png" width="11px" height="12px" preserveAspectRatio="xMinYMin meet" x="304" y="-354"/>
<text text-anchor="start" x="319" y="-345.2" font-family="Helvetica,sans-Serif" font-size="11.00">cte_bprecebedorloc_id</text>
<polygon fill="none" stroke="black" points="299,-315 299,-337 579,-337 579,-315 299,-315"/>
<image xlink:href="../../images/foreignKeys.png" width="11px" height="12px" preserveAspectRatio="xMinYMin meet" x="304" y="-332"/>
<text text-anchor="start" x="319" y="-323.2" font-family="Helvetica,sans-Serif" font-size="11.00">cte_exped_city_id</text>
<polygon fill="none" stroke="black" points="299,-293 299,-315 579,-315 579,-293 299,-293"/>
<image xlink:href="../../images/foreignKeys.png" width="11px" height="12px" preserveAspectRatio="xMinYMin meet" x="304" y="-310"/>
<text text-anchor="start" x="319" y="-301.2" font-family="Helvetica,sans-Serif" font-size="11.00">cte_receb_city_id</text>
<polygon fill="none" stroke="black" points="299,-271 299,-293 579,-293 579,-271 299,-271"/>
<image xlink:href="../../images/foreignKeys.png" width="11px" height="12px" preserveAspectRatio="xMinYMin meet" x="304" y="-288"/>
<text text-anchor="start" x="319" y="-279.2" font-family="Helvetica,sans-Serif" font-size="11.00">cte_exped_region_id</text>
<polygon fill="none" stroke="black" points="299,-249 299,-271 579,-271 579,-249 299,-249"/>
<image xlink:href="../../images/foreignKeys.png" width="11px" height="12px" preserveAspectRatio="xMinYMin meet" x="304" y="-266"/>
<text text-anchor="start" x="319" y="-257.2" font-family="Helvetica,sans-Serif" font-size="11.00">cte_receb_region_id</text>
<polygon fill="none" stroke="black" points="299,-227 299,-249 579,-249 579,-227 299,-227"/>
<image xlink:href="../../images/foreignKeys.png" width="11px" height="12px" preserveAspectRatio="xMinYMin meet" x="304" y="-244"/>
<text text-anchor="start" x="319" y="-235.2" font-family="Helvetica,sans-Serif" font-size="11.00">cte_receb_country_id</text>
<polygon fill="none" stroke="black" points="299,-205 299,-227 579,-227 579,-205 299,-205"/>
<image xlink:href="../../images/foreignKeys.png" width="11px" height="12px" preserveAspectRatio="xMinYMin meet" x="304" y="-222"/>
<text text-anchor="start" x="319" y="-213.2" font-family="Helvetica,sans-Serif" font-size="11.00">cte_exped_country_id</text>
<polygon fill="none" stroke="black" points="299,-183 299,-205 579,-205 579,-183 299,-183"/>
<image xlink:href="../../images/foreignKeys.png" width="11px" height="12px" preserveAspectRatio="xMinYMin meet" x="304" y="-200"/>
<text text-anchor="start" x="319" y="-191.2" font-family="Helvetica,sans-Serif" font-size="11.00">cof_ufinicio_id</text>
<polygon fill="none" stroke="black" points="299,-161 299,-183 579,-183 579,-161 299,-161"/>
<image xlink:href="../../images/foreignKeys.png" width="11px" height="12px" preserveAspectRatio="xMinYMin meet" x="304" y="-178"/>
<text text-anchor="start" x="319" y="-169.2" font-family="Helvetica,sans-Serif" font-size="11.00">cof_uftermino_id</text>
<polygon fill="none" stroke="black" points="299,-139 299,-161 579,-161 579,-139 299,-139"/>
<image xlink:href="../../images/foreignKeys.png" width="11px" height="12px" preserveAspectRatio="xMinYMin meet" x="304" y="-156"/>
<text text-anchor="start" x="319" y="-147.2" font-family="Helvetica,sans-Serif" font-size="11.00">cof_municipioinicio_id</text>
<polygon fill="none" stroke="black" points="299,-117 299,-139 579,-139 579,-117 299,-117"/>
<image xlink:href="../../images/foreignKeys.png" width="11px" height="12px" preserveAspectRatio="xMinYMin meet" x="304" y="-134"/>
<text text-anchor="start" x="319" y="-125.2" font-family="Helvetica,sans-Serif" font-size="11.00">cof_municipiotermino_id</text>
<polygon fill="none" stroke="black" points="299,-95 299,-117 579,-117 579,-95 299,-95"/>
<image xlink:href="../../images/foreignKeys.png" width="11px" height="12px" preserveAspectRatio="xMinYMin meet" x="304" y="-112"/>
<text text-anchor="start" x="319" y="-103.2" font-family="Helvetica,sans-Serif" font-size="11.00">cte_emit_bpartner_id</text>
<polygon fill="none" stroke="black" points="299,-73 299,-95 579,-95 579,-73 299,-73"/>
<image xlink:href="../../images/foreignKeys.png" width="11px" height="12px" preserveAspectRatio="xMinYMin meet" x="304" y="-90"/>
<text text-anchor="start" x="319" y="-81.2" font-family="Helvetica,sans-Serif" font-size="11.00">cte_emit_location_id</text>
<polygon fill="none" stroke="black" points="299,-55 299,-73 579,-73 579,-55 299,-55"/>
<text text-anchor="start" x="302" y="-61.2" font-family="Helvetica,sans-Serif" font-size="11.00">...</text>
<polygon fill="#ffffff" stroke="transparent" points="299,-37 299,-55 579,-55 579,-37 299,-37"/>
<polygon fill="none" stroke="black" points="299,-37 299,-55 579,-55 579,-37 299,-37"/>
<polygon fill="#ffffff" stroke="transparent" points="300,-38 300,-54 398,-54 398,-38 300,-38"/>
<text text-anchor="start" x="302" y="-43.2" font-family="Helvetica,sans-Serif" font-size="11.00">&lt; 42</text>
<polygon fill="#ffffff" stroke="transparent" points="398,-38 398,-54 481,-54 481,-38 398,-38"/>
<text text-anchor="start" x="436" y="-43.2" font-family="Helvetica,sans-Serif" font-size="11.00"> &#160;</text>
<polygon fill="#ffffff" stroke="transparent" points="481,-38 481,-54 578,-54 578,-38 481,-38"/>
<text text-anchor="start" x="554" y="-43.2" font-family="Helvetica,sans-Serif" font-size="11.00">14 &gt;</text>
<polygon fill="black" stroke="black" points="398,-38 398,-54 398,-54 398,-38 398,-38"/>
<polygon fill="black" stroke="black" points="481,-38 481,-54 481,-54 481,-38 481,-38"/>
</a>
</g>
</g>
<!-- cte_lote -->
<g id="node2" class="node">
<title>cte_lote</title>
<g id="a_node2"><a xlink:href="../../tables/cte_lote.html" xlink:title="cte_lote" target="_top">
<polygon fill="#ffffff" stroke="transparent" points="8,-559 8,-1021 250,-1021 250,-559 8,-559"/>
<polygon fill="#f5f5f5" stroke="transparent" points="10,-997 10,-1019 248,-1019 248,-997 10,-997"/>
<polygon fill="none" stroke="black" points="10,-997 10,-1019 248,-1019 248,-997 10,-997"/>
<text text-anchor="start" x="15" y="-1006.2" font-family="Helvetica,sans-Serif" font-weight="bold" font-size="11.00">cte_lote</text>
<text text-anchor="start" x="213" y="-1005.2" font-family="Helvetica,sans-Serif" font-size="11.00">[table]</text>
<polygon fill="none" stroke="black" points="10,-975 10,-997 158,-997 158,-975 10,-975"/>
<image xlink:href="../../images/primaryKeys.png" width="11px" height="12px" preserveAspectRatio="xMinYMin meet" x="15" y="-992"/>
<text text-anchor="start" x="30" y="-983.2" font-family="Helvetica,sans-Serif" font-size="11.00">cte_lote_id</text>
<polygon fill="none" stroke="black" points="158,-975 158,-997 248,-997 248,-975 158,-975"/>
<text text-anchor="start" x="161" y="-983.2" font-family="Helvetica,sans-Serif" font-size="11.00">numeric[10]</text>
<polygon fill="#ffffff" stroke="transparent" points="10,-953 10,-975 158,-975 158,-953 10,-953"/>
<polygon fill="none" stroke="black" points="10,-953 10,-975 158,-975 158,-953 10,-953"/>
<text text-anchor="start" x="30" y="-961.2" font-family="Helvetica,sans-Serif" font-size="11.00">cte_lote_uu</text>
<polygon fill="none" stroke="black" points="158,-953 158,-975 248,-975 248,-953 158,-953"/>
<text text-anchor="start" x="161" y="-961.2" font-family="Helvetica,sans-Serif" font-size="11.00">varchar[36]</text>
<polygon fill="none" stroke="black" points="10,-931 10,-953 158,-953 158,-931 10,-931"/>
<text text-anchor="start" x="30" y="-939.2" font-family="Helvetica,sans-Serif" font-size="11.00">ad_client_id</text>
<polygon fill="none" stroke="black" points="158,-931 158,-953 248,-953 248,-931 158,-931"/>
<text text-anchor="start" x="161" y="-939.2" font-family="Helvetica,sans-Serif" font-size="11.00">numeric[10]</text>
<polygon fill="none" stroke="black" points="10,-909 10,-931 158,-931 158,-909 10,-909"/>
<text text-anchor="start" x="30" y="-917.2" font-family="Helvetica,sans-Serif" font-size="11.00">ad_org_id</text>
<polygon fill="none" stroke="black" points="158,-909 158,-931 248,-931 248,-909 158,-909"/>
<text text-anchor="start" x="161" y="-917.2" font-family="Helvetica,sans-Serif" font-size="11.00">numeric[10]</text>
<polygon fill="none" stroke="black" points="10,-887 10,-909 158,-909 158,-887 10,-887"/>
<text text-anchor="start" x="30" y="-895.2" font-family="Helvetica,sans-Serif" font-size="11.00">isactive</text>
<polygon fill="none" stroke="black" points="158,-887 158,-909 248,-909 248,-887 158,-887"/>
<text text-anchor="start" x="161" y="-895.2" font-family="Helvetica,sans-Serif" font-size="11.00">bpchar[1]</text>
<polygon fill="none" stroke="black" points="10,-865 10,-887 158,-887 158,-865 10,-865"/>
<text text-anchor="start" x="30" y="-873.2" font-family="Helvetica,sans-Serif" font-size="11.00">created</text>
<polygon fill="none" stroke="black" points="158,-865 158,-887 248,-887 248,-865 158,-865"/>
<text text-anchor="start" x="161" y="-873.2" font-family="Helvetica,sans-Serif" font-size="11.00">timestamp[29,6]</text>
<polygon fill="none" stroke="black" points="10,-843 10,-865 158,-865 158,-843 10,-843"/>
<text text-anchor="start" x="30" y="-851.2" font-family="Helvetica,sans-Serif" font-size="11.00">createdby</text>
<polygon fill="none" stroke="black" points="158,-843 158,-865 248,-865 248,-843 158,-843"/>
<text text-anchor="start" x="161" y="-851.2" font-family="Helvetica,sans-Serif" font-size="11.00">numeric[10]</text>
<polygon fill="none" stroke="black" points="10,-821 10,-843 158,-843 158,-821 10,-821"/>
<text text-anchor="start" x="30" y="-829.2" font-family="Helvetica,sans-Serif" font-size="11.00">updated</text>
<polygon fill="none" stroke="black" points="158,-821 158,-843 248,-843 248,-821 158,-821"/>
<text text-anchor="start" x="161" y="-829.2" font-family="Helvetica,sans-Serif" font-size="11.00">timestamp[29,6]</text>
<polygon fill="none" stroke="black" points="10,-799 10,-821 158,-821 158,-799 10,-799"/>
<text text-anchor="start" x="30" y="-807.2" font-family="Helvetica,sans-Serif" font-size="11.00">updatedby</text>
<polygon fill="none" stroke="black" points="158,-799 158,-821 248,-821 248,-799 158,-799"/>
<text text-anchor="start" x="161" y="-807.2" font-family="Helvetica,sans-Serif" font-size="11.00">numeric[10]</text>
<polygon fill="none" stroke="black" points="10,-777 10,-799 158,-799 158,-777 10,-777"/>
<text text-anchor="start" x="30" y="-785.2" font-family="Helvetica,sans-Serif" font-size="11.00">name</text>
<polygon fill="none" stroke="black" points="158,-777 158,-799 248,-799 248,-777 158,-777"/>
<text text-anchor="start" x="161" y="-785.2" font-family="Helvetica,sans-Serif" font-size="11.00">varchar[60]</text>
<polygon fill="none" stroke="black" points="10,-755 10,-777 158,-777 158,-755 10,-755"/>
<text text-anchor="start" x="30" y="-763.2" font-family="Helvetica,sans-Serif" font-size="11.00">description</text>
<polygon fill="none" stroke="black" points="158,-755 158,-777 248,-777 248,-755 158,-755"/>
<text text-anchor="start" x="161" y="-763.2" font-family="Helvetica,sans-Serif" font-size="11.00">text[2147483647]</text>
<polygon fill="none" stroke="black" points="10,-733 10,-755 158,-755 158,-733 10,-733"/>
<text text-anchor="start" x="30" y="-741.2" font-family="Helvetica,sans-Serif" font-size="11.00">processed</text>
<polygon fill="none" stroke="black" points="158,-733 158,-755 248,-755 248,-733 158,-733"/>
<text text-anchor="start" x="161" y="-741.2" font-family="Helvetica,sans-Serif" font-size="11.00">bpchar[1]</text>
<polygon fill="none" stroke="black" points="10,-711 10,-733 158,-733 158,-711 10,-711"/>
<text text-anchor="start" x="30" y="-719.2" font-family="Helvetica,sans-Serif" font-size="11.00">cte_nfmodel</text>
<polygon fill="none" stroke="black" points="158,-711 158,-733 248,-733 248,-711 158,-711"/>
<text text-anchor="start" x="161" y="-719.2" font-family="Helvetica,sans-Serif" font-size="11.00">varchar[2]</text>
<polygon fill="none" stroke="black" points="10,-689 10,-711 158,-711 158,-689 10,-689"/>
<text text-anchor="start" x="30" y="-697.2" font-family="Helvetica,sans-Serif" font-size="11.00">cte_status</text>
<polygon fill="none" stroke="black" points="158,-689 158,-711 248,-711 248,-689 158,-689"/>
<text text-anchor="start" x="161" y="-697.2" font-family="Helvetica,sans-Serif" font-size="11.00">varchar[3]</text>
<polygon fill="none" stroke="black" points="10,-667 10,-689 158,-689 158,-667 10,-667"/>
<text text-anchor="start" x="30" y="-675.2" font-family="Helvetica,sans-Serif" font-size="11.00">documentno</text>
<polygon fill="none" stroke="black" points="158,-667 158,-689 248,-689 248,-667 158,-667"/>
<text text-anchor="start" x="161" y="-675.2" font-family="Helvetica,sans-Serif" font-size="11.00">varchar[30]</text>
<polygon fill="none" stroke="black" points="10,-645 10,-667 158,-667 158,-645 10,-645"/>
<text text-anchor="start" x="30" y="-653.2" font-family="Helvetica,sans-Serif" font-size="11.00">datetrx</text>
<polygon fill="none" stroke="black" points="158,-645 158,-667 248,-667 248,-645 158,-645"/>
<text text-anchor="start" x="161" y="-653.2" font-family="Helvetica,sans-Serif" font-size="11.00">timestamp[29,6]</text>
<polygon fill="none" stroke="black" points="10,-623 10,-645 158,-645 158,-623 10,-623"/>
<text text-anchor="start" x="30" y="-631.2" font-family="Helvetica,sans-Serif" font-size="11.00">cte_isloteenviado</text>
<polygon fill="none" stroke="black" points="158,-623 158,-645 248,-645 248,-623 158,-623"/>
<text text-anchor="start" x="161" y="-631.2" font-family="Helvetica,sans-Serif" font-size="11.00">bpchar[1]</text>
<polygon fill="none" stroke="black" points="10,-601 10,-623 158,-623 158,-601 10,-601"/>
<text text-anchor="start" x="30" y="-609.2" font-family="Helvetica,sans-Serif" font-size="11.00">processing</text>
<polygon fill="none" stroke="black" points="158,-601 158,-623 248,-623 248,-601 158,-601"/>
<text text-anchor="start" x="161" y="-609.2" font-family="Helvetica,sans-Serif" font-size="11.00">bpchar[1]</text>
<polygon fill="none" stroke="black" points="10,-579 10,-601 158,-601 158,-579 10,-579"/>
<text text-anchor="start" x="30" y="-587.2" font-family="Helvetica,sans-Serif" font-size="11.00">createfrom</text>
<polygon fill="none" stroke="black" points="158,-579 158,-601 248,-601 248,-579 158,-579"/>
<text text-anchor="start" x="161" y="-587.2" font-family="Helvetica,sans-Serif" font-size="11.00">bpchar[1]</text>
<polygon fill="#ffffff" stroke="transparent" points="10,-561 10,-579 248,-579 248,-561 10,-561"/>
<polygon fill="none" stroke="black" points="10,-561 10,-579 248,-579 248,-561 10,-561"/>
<polygon fill="#ffffff" stroke="transparent" points="11,-562 11,-578 93,-578 93,-562 11,-562"/>
<text text-anchor="start" x="13" y="-567.2" font-family="Helvetica,sans-Serif" font-size="11.00">&lt; 0</text>
<polygon fill="#ffffff" stroke="transparent" points="93,-562 93,-578 166,-578 166,-562 93,-562"/>
<text text-anchor="start" x="126" y="-567.2" font-family="Helvetica,sans-Serif" font-size="11.00"> &#160;</text>
<polygon fill="#ffffff" stroke="transparent" points="166,-562 166,-578 247,-578 247,-562 166,-562"/>
<text text-anchor="start" x="229" y="-567.2" font-family="Helvetica,sans-Serif" font-size="11.00">1 &gt;</text>
<polygon fill="black" stroke="black" points="93,-562 93,-578 93,-578 93,-562 93,-562"/>
<polygon fill="black" stroke="black" points="166,-562 166,-578 166,-578 166,-562 166,-562"/>
<polygon fill="none" stroke="black" stroke-width="2" points="9,-560 9,-1020 249,-1020 249,-560 9,-560"/>
</a>
</g>
</g>
<!-- cte_cte&#45;&gt;cte_lote -->
<g id="edge1" class="edge">
<title>cte_cte:w&#45;&gt;cte_lote:e</title>
<path fill="none" stroke="black" d="M283.49,-986C272.18,-986 264.99,-986 249,-986"/>
<polygon fill="black" stroke="black" points="290,-986 298,-989.6 294,-986 298,-986 298,-986 298,-986 294,-986 298,-982.4 290,-986 290,-986"/>
<ellipse fill="none" stroke="black" cx="286.8" cy="-986" rx="3.2" ry="3.2"/>
</g>
</g>
</svg>
