<?xml version="1.0" encoding="UTF-8" standalone="no"?>
<!DOCTYPE svg PUBLIC "-//W3C//DTD SVG 1.1//EN"
 "http://www.w3.org/Graphics/SVG/1.1/DTD/svg11.dtd">
<!-- Generated by graphviz version 2.43.0 (0)
 -->
<!-- Title: oneDegreeRelationshipsDiagram Pages: 1 -->
<svg width="889pt" height="505pt"
 viewBox="0.00 0.00 889.00 505.00" xmlns="http://www.w3.org/2000/svg" xmlns:xlink="http://www.w3.org/1999/xlink">
<g id="graph0" class="graph" transform="scale(1 1) rotate(0) translate(4 501)">
<title>oneDegreeRelationshipsDiagram</title>
<polygon fill="#ffffff" stroke="transparent" points="-4,4 -4,-501 885,-501 885,4 -4,4"/>
<text text-anchor="middle" x="71.5" y="-7.2" font-family="Helvetica,sans-Serif" font-size="11.00">Generated by SchemaSpy</text>
<!-- gl_journalgeneratorline -->
<g id="node1" class="node">
<title>gl_journalgeneratorline</title>
<g id="a_node1"><a xlink:href="../../tables/gl_journalgeneratorline.html" xlink:title="gl_journalgeneratorline" target="_top">
<polygon fill="#ffffff" stroke="transparent" points="281,-257 281,-447 498,-447 498,-257 281,-257"/>
<polygon fill="#f5f5f5" stroke="transparent" points="281.5,-425 281.5,-447 498.5,-447 498.5,-425 281.5,-425"/>
<polygon fill="none" stroke="black" points="281.5,-425 281.5,-447 498.5,-447 498.5,-425 281.5,-425"/>
<text text-anchor="start" x="286.5" y="-434.2" font-family="Helvetica,sans-Serif" font-weight="bold" font-size="11.00">gl_journalgeneratorline</text>
<text text-anchor="start" x="463.5" y="-433.2" font-family="Helvetica,sans-Serif" font-size="11.00">[table]</text>
<polygon fill="none" stroke="black" points="281.5,-403 281.5,-425 498.5,-425 498.5,-403 281.5,-403"/>
<image xlink:href="../../images/primaryKeys.png" width="11px" height="12px" preserveAspectRatio="xMinYMin meet" x="286.5" y="-420"/>
<text text-anchor="start" x="301.5" y="-411.2" font-family="Helvetica,sans-Serif" font-size="11.00">gl_journalgeneratorline_id</text>
<polygon fill="none" stroke="black" points="281.5,-381 281.5,-403 498.5,-403 498.5,-381 281.5,-381"/>
<image xlink:href="../../images/foreignKeys.png" width="11px" height="12px" preserveAspectRatio="xMinYMin meet" x="286.5" y="-398"/>
<text text-anchor="start" x="301.5" y="-389.2" font-family="Helvetica,sans-Serif" font-size="11.00">gl_journalgenerator_id</text>
<polygon fill="none" stroke="black" points="281.5,-359 281.5,-381 498.5,-381 498.5,-359 281.5,-359"/>
<image xlink:href="../../images/foreignKeys.png" width="11px" height="12px" preserveAspectRatio="xMinYMin meet" x="286.5" y="-376"/>
<text text-anchor="start" x="301.5" y="-367.2" font-family="Helvetica,sans-Serif" font-size="11.00">c_elementvaluedr_id</text>
<polygon fill="none" stroke="black" points="281.5,-337 281.5,-359 498.5,-359 498.5,-337 281.5,-337"/>
<image xlink:href="../../images/foreignKeys.png" width="11px" height="12px" preserveAspectRatio="xMinYMin meet" x="286.5" y="-354"/>
<text text-anchor="start" x="301.5" y="-345.2" font-family="Helvetica,sans-Serif" font-size="11.00">c_elementvaluecr_id</text>
<polygon fill="none" stroke="black" points="281.5,-315 281.5,-337 498.5,-337 498.5,-315 281.5,-315"/>
<image xlink:href="../../images/foreignKeys.png" width="11px" height="12px" preserveAspectRatio="xMinYMin meet" x="286.5" y="-332"/>
<text text-anchor="start" x="301.5" y="-323.2" font-family="Helvetica,sans-Serif" font-size="11.00">c_bpartner_id</text>
<polygon fill="#ffffff" stroke="transparent" points="281.5,-293 281.5,-315 498.5,-315 498.5,-293 281.5,-293"/>
<polygon fill="none" stroke="black" points="281.5,-293 281.5,-315 498.5,-315 498.5,-293 281.5,-293"/>
<text text-anchor="start" x="301.5" y="-301.2" font-family="Helvetica,sans-Serif" font-size="11.00">gl_journalgeneratorline_uu</text>
<polygon fill="none" stroke="black" points="281.5,-275 281.5,-293 498.5,-293 498.5,-275 281.5,-275"/>
<text text-anchor="start" x="284.5" y="-281.2" font-family="Helvetica,sans-Serif" font-size="11.00">...</text>
<polygon fill="#ffffff" stroke="transparent" points="281.5,-257 281.5,-275 498.5,-275 498.5,-257 281.5,-257"/>
<polygon fill="none" stroke="black" points="281.5,-257 281.5,-275 498.5,-275 498.5,-257 281.5,-257"/>
<polygon fill="#ffffff" stroke="transparent" points="282.5,-258 282.5,-274 357.5,-274 357.5,-258 282.5,-258"/>
<text text-anchor="start" x="284.5" y="-263.2" font-family="Helvetica,sans-Serif" font-size="11.00">&lt; 4</text>
<polygon fill="#ffffff" stroke="transparent" points="357.5,-258 357.5,-274 423.5,-274 423.5,-258 357.5,-258"/>
<text text-anchor="start" x="387" y="-263.2" font-family="Helvetica,sans-Serif" font-size="11.00"> &#160;</text>
<polygon fill="#ffffff" stroke="transparent" points="423.5,-258 423.5,-274 497.5,-274 497.5,-258 423.5,-258"/>
<text text-anchor="start" x="479.5" y="-263.2" font-family="Helvetica,sans-Serif" font-size="11.00">1 &gt;</text>
<polygon fill="black" stroke="black" points="357.5,-258 357.5,-274 357.5,-274 357.5,-258 357.5,-258"/>
<polygon fill="black" stroke="black" points="423.5,-258 423.5,-274 423.5,-274 423.5,-258 423.5,-258"/>
</a>
</g>
</g>
<!-- c_elementvalue -->
<g id="node2" class="node">
<title>c_elementvalue</title>
<g id="a_node2"><a xlink:href="../../tables/c_elementvalue.html" xlink:title="c_elementvalue" target="_top">
<polygon fill="#ffffff" stroke="transparent" points="8,-103 8,-381 232,-381 232,-103 8,-103"/>
<polygon fill="#f5f5f5" stroke="transparent" points="8,-359 8,-381 232,-381 232,-359 8,-359"/>
<polygon fill="none" stroke="black" points="8,-359 8,-381 232,-381 232,-359 8,-359"/>
<text text-anchor="start" x="13" y="-368.2" font-family="Helvetica,sans-Serif" font-weight="bold" font-size="11.00">c_elementvalue</text>
<text text-anchor="start" x="197" y="-367.2" font-family="Helvetica,sans-Serif" font-size="11.00">[table]</text>
<polygon fill="none" stroke="black" points="8,-337 8,-359 232,-359 232,-337 8,-337"/>
<image xlink:href="../../images/primaryKeys.png" width="11px" height="12px" preserveAspectRatio="xMinYMin meet" x="13" y="-354"/>
<text text-anchor="start" x="28" y="-345.2" font-family="Helvetica,sans-Serif" font-size="11.00">c_elementvalue_id</text>
<polygon fill="none" stroke="black" points="8,-315 8,-337 232,-337 232,-315 8,-315"/>
<image xlink:href="../../images/foreignKeys.png" width="11px" height="12px" preserveAspectRatio="xMinYMin meet" x="13" y="-332"/>
<text text-anchor="start" x="28" y="-323.2" font-family="Helvetica,sans-Serif" font-size="11.00">ad_client_id</text>
<polygon fill="none" stroke="black" points="8,-293 8,-315 232,-315 232,-293 8,-293"/>
<image xlink:href="../../images/foreignKeys.png" width="11px" height="12px" preserveAspectRatio="xMinYMin meet" x="13" y="-310"/>
<text text-anchor="start" x="28" y="-301.2" font-family="Helvetica,sans-Serif" font-size="11.00">ad_org_id</text>
<polygon fill="#ffffff" stroke="transparent" points="8,-271 8,-293 232,-293 232,-271 8,-271"/>
<polygon fill="none" stroke="black" points="8,-271 8,-293 232,-293 232,-271 8,-271"/>
<text text-anchor="start" x="28" y="-279.2" font-family="Helvetica,sans-Serif" font-size="11.00">value</text>
<polygon fill="#ffffff" stroke="transparent" points="8,-249 8,-271 232,-271 232,-249 8,-249"/>
<polygon fill="none" stroke="black" points="8,-249 8,-271 232,-271 232,-249 8,-249"/>
<text text-anchor="start" x="28" y="-257.2" font-family="Helvetica,sans-Serif" font-size="11.00">name</text>
<polygon fill="#ffffff" stroke="transparent" points="8,-227 8,-249 232,-249 232,-227 8,-227"/>
<polygon fill="none" stroke="black" points="8,-227 8,-249 232,-249 232,-227 8,-227"/>
<image xlink:href="../../images/foreignKeys.png" width="11px" height="12px" preserveAspectRatio="xMinYMin meet" x="13" y="-244"/>
<text text-anchor="start" x="28" y="-235.2" font-family="Helvetica,sans-Serif" font-size="11.00">c_element_id</text>
<polygon fill="none" stroke="black" points="8,-205 8,-227 232,-227 232,-205 8,-205"/>
<image xlink:href="../../images/foreignKeys.png" width="11px" height="12px" preserveAspectRatio="xMinYMin meet" x="13" y="-222"/>
<text text-anchor="start" x="28" y="-213.2" font-family="Helvetica,sans-Serif" font-size="11.00">c_bankaccount_id</text>
<polygon fill="none" stroke="black" points="8,-183 8,-205 232,-205 232,-183 8,-183"/>
<image xlink:href="../../images/foreignKeys.png" width="11px" height="12px" preserveAspectRatio="xMinYMin meet" x="13" y="-200"/>
<text text-anchor="start" x="28" y="-191.2" font-family="Helvetica,sans-Serif" font-size="11.00">c_currency_id</text>
<polygon fill="#ffffff" stroke="transparent" points="8,-161 8,-183 232,-183 232,-161 8,-161"/>
<polygon fill="none" stroke="black" points="8,-161 8,-183 232,-183 232,-161 8,-161"/>
<text text-anchor="start" x="28" y="-169.2" font-family="Helvetica,sans-Serif" font-size="11.00">c_elementvalue_uu</text>
<polygon fill="none" stroke="black" points="8,-139 8,-161 232,-161 232,-139 8,-139"/>
<image xlink:href="../../images/foreignKeys.png" width="11px" height="12px" preserveAspectRatio="xMinYMin meet" x="13" y="-156"/>
<text text-anchor="start" x="28" y="-147.2" font-family="Helvetica,sans-Serif" font-size="11.00">cof_codagl_id</text>
<polygon fill="none" stroke="black" points="8,-121 8,-139 232,-139 232,-121 8,-121"/>
<text text-anchor="start" x="11" y="-127.2" font-family="Helvetica,sans-Serif" font-size="11.00">...</text>
<polygon fill="#ffffff" stroke="transparent" points="8,-103 8,-121 232,-121 232,-103 8,-103"/>
<polygon fill="none" stroke="black" points="8,-103 8,-121 232,-121 232,-103 8,-103"/>
<polygon fill="#ffffff" stroke="transparent" points="9,-104 9,-120 67,-120 67,-104 9,-104"/>
<text text-anchor="start" x="11" y="-109.2" font-family="Helvetica,sans-Serif" font-size="11.00">&lt; 6</text>
<polygon fill="#ffffff" stroke="transparent" points="67,-104 67,-120 162,-120 162,-104 67,-104"/>
<text text-anchor="start" x="87.5" y="-109.2" font-family="Helvetica,sans-Serif" font-size="11.00">1.835 rows</text>
<polygon fill="#ffffff" stroke="transparent" points="162,-104 162,-120 231,-120 231,-104 162,-104"/>
<text text-anchor="start" x="201" y="-109.2" font-family="Helvetica,sans-Serif" font-size="11.00">120 &gt;</text>
<polygon fill="black" stroke="black" points="67,-104 67,-120 67,-120 67,-104 67,-104"/>
<polygon fill="black" stroke="black" points="162,-104 162,-120 162,-120 162,-104 162,-104"/>
</a>
</g>
</g>
<!-- gl_journalgeneratorline&#45;&gt;c_elementvalue -->
<g id="edge1" class="edge">
<title>gl_journalgeneratorline:w&#45;&gt;c_elementvalue:e</title>
<path fill="none" stroke="black" d="M266.09,-348C255.32,-348 248.34,-348 233,-348"/>
<polygon fill="black" stroke="black" points="272.5,-348 280.5,-351.6 276.5,-348 280.5,-348 280.5,-348 280.5,-348 276.5,-348 280.5,-344.4 272.5,-348 272.5,-348"/>
<ellipse fill="none" stroke="black" cx="269.3" cy="-348" rx="3.2" ry="3.2"/>
</g>
<!-- gl_journalgeneratorline&#45;&gt;c_elementvalue -->
<g id="edge2" class="edge">
<title>gl_journalgeneratorline:w&#45;&gt;c_elementvalue:e</title>
<path fill="none" stroke="black" d="M266.19,-366.37C255.25,-360.12 250.27,-348 233,-348"/>
<polygon fill="black" stroke="black" points="272.75,-368.03 279.61,-373.49 276.62,-369.02 280.5,-370 280.5,-370 280.5,-370 276.62,-369.02 281.39,-366.51 272.75,-368.03 272.75,-368.03"/>
<ellipse fill="none" stroke="black" cx="269.64" cy="-367.24" rx="3.2" ry="3.2"/>
</g>
<!-- gl_journalgeneratorsource -->
<g id="node3" class="node">
<title>gl_journalgeneratorsource</title>
<g id="a_node3"><a xlink:href="../../tables/gl_journalgeneratorsource.html" xlink:title="gl_journalgeneratorsource" target="_top">
<polygon fill="#ffffff" stroke="transparent" points="547,-119 547,-493 873,-493 873,-119 547,-119"/>
<polygon fill="#f5f5f5" stroke="transparent" points="549,-469 549,-491 871,-491 871,-469 549,-469"/>
<polygon fill="none" stroke="black" points="549,-469 549,-491 871,-491 871,-469 549,-469"/>
<text text-anchor="start" x="554" y="-478.2" font-family="Helvetica,sans-Serif" font-weight="bold" font-size="11.00">gl_journalgeneratorsource</text>
<text text-anchor="start" x="836" y="-477.2" font-family="Helvetica,sans-Serif" font-size="11.00">[table]</text>
<polygon fill="none" stroke="black" points="549,-447 549,-469 788,-469 788,-447 549,-447"/>
<image xlink:href="../../images/primaryKeys.png" width="11px" height="12px" preserveAspectRatio="xMinYMin meet" x="554" y="-464"/>
<text text-anchor="start" x="569" y="-455.2" font-family="Helvetica,sans-Serif" font-size="11.00">gl_journalgeneratorsource_id</text>
<polygon fill="none" stroke="black" points="788,-447 788,-469 871,-469 871,-447 788,-447"/>
<text text-anchor="start" x="791" y="-455.2" font-family="Helvetica,sans-Serif" font-size="11.00">numeric[10]</text>
<polygon fill="none" stroke="black" points="549,-425 549,-447 788,-447 788,-425 549,-425"/>
<text text-anchor="start" x="569" y="-433.2" font-family="Helvetica,sans-Serif" font-size="11.00">ad_client_id</text>
<polygon fill="none" stroke="black" points="788,-425 788,-447 871,-447 871,-425 788,-425"/>
<text text-anchor="start" x="791" y="-433.2" font-family="Helvetica,sans-Serif" font-size="11.00">numeric[10]</text>
<polygon fill="none" stroke="black" points="549,-403 549,-425 788,-425 788,-403 549,-403"/>
<text text-anchor="start" x="569" y="-411.2" font-family="Helvetica,sans-Serif" font-size="11.00">ad_org_id</text>
<polygon fill="none" stroke="black" points="788,-403 788,-425 871,-425 871,-403 788,-403"/>
<text text-anchor="start" x="791" y="-411.2" font-family="Helvetica,sans-Serif" font-size="11.00">numeric[10]</text>
<polygon fill="none" stroke="black" points="549,-381 549,-403 788,-403 788,-381 549,-381"/>
<text text-anchor="start" x="569" y="-389.2" font-family="Helvetica,sans-Serif" font-size="11.00">created</text>
<polygon fill="none" stroke="black" points="788,-381 788,-403 871,-403 871,-381 788,-381"/>
<text text-anchor="start" x="791" y="-389.2" font-family="Helvetica,sans-Serif" font-size="11.00">timestamp[29,6]</text>
<polygon fill="none" stroke="black" points="549,-359 549,-381 788,-381 788,-359 549,-359"/>
<text text-anchor="start" x="569" y="-367.2" font-family="Helvetica,sans-Serif" font-size="11.00">createdby</text>
<polygon fill="none" stroke="black" points="788,-359 788,-381 871,-381 871,-359 788,-359"/>
<text text-anchor="start" x="791" y="-367.2" font-family="Helvetica,sans-Serif" font-size="11.00">numeric[10]</text>
<polygon fill="none" stroke="black" points="549,-337 549,-359 788,-359 788,-337 549,-337"/>
<text text-anchor="start" x="569" y="-345.2" font-family="Helvetica,sans-Serif" font-size="11.00">help</text>
<polygon fill="none" stroke="black" points="788,-337 788,-359 871,-359 871,-337 788,-337"/>
<text text-anchor="start" x="791" y="-345.2" font-family="Helvetica,sans-Serif" font-size="11.00">varchar[2000]</text>
<polygon fill="none" stroke="black" points="549,-315 549,-337 788,-337 788,-315 549,-315"/>
<text text-anchor="start" x="569" y="-323.2" font-family="Helvetica,sans-Serif" font-size="11.00">isactive</text>
<polygon fill="none" stroke="black" points="788,-315 788,-337 871,-337 871,-315 788,-315"/>
<text text-anchor="start" x="791" y="-323.2" font-family="Helvetica,sans-Serif" font-size="11.00">bpchar[1]</text>
<polygon fill="none" stroke="black" points="549,-293 549,-315 788,-315 788,-293 549,-293"/>
<text text-anchor="start" x="569" y="-301.2" font-family="Helvetica,sans-Serif" font-size="11.00">updated</text>
<polygon fill="none" stroke="black" points="788,-293 788,-315 871,-315 871,-293 788,-293"/>
<text text-anchor="start" x="791" y="-301.2" font-family="Helvetica,sans-Serif" font-size="11.00">timestamp[29,6]</text>
<polygon fill="none" stroke="black" points="549,-271 549,-293 788,-293 788,-271 549,-271"/>
<text text-anchor="start" x="569" y="-279.2" font-family="Helvetica,sans-Serif" font-size="11.00">updatedby</text>
<polygon fill="none" stroke="black" points="788,-271 788,-293 871,-293 871,-271 788,-271"/>
<text text-anchor="start" x="791" y="-279.2" font-family="Helvetica,sans-Serif" font-size="11.00">numeric[10]</text>
<polygon fill="none" stroke="black" points="549,-249 549,-271 788,-271 788,-249 549,-249"/>
<image xlink:href="../../images/foreignKeys.png" width="11px" height="12px" preserveAspectRatio="xMinYMin meet" x="554" y="-266"/>
<text text-anchor="start" x="569" y="-257.2" font-family="Helvetica,sans-Serif" font-size="11.00">gl_journalgeneratorline_id</text>
<polygon fill="none" stroke="black" points="788,-249 788,-271 871,-271 871,-249 788,-249"/>
<text text-anchor="start" x="791" y="-257.2" font-family="Helvetica,sans-Serif" font-size="11.00">numeric[10]</text>
<polygon fill="none" stroke="black" points="549,-227 549,-249 788,-249 788,-227 549,-227"/>
<image xlink:href="../../images/foreignKeys.png" width="11px" height="12px" preserveAspectRatio="xMinYMin meet" x="554" y="-244"/>
<text text-anchor="start" x="569" y="-235.2" font-family="Helvetica,sans-Serif" font-size="11.00">c_elementvalue_id</text>
<polygon fill="none" stroke="black" points="788,-227 788,-249 871,-249 871,-227 788,-227"/>
<text text-anchor="start" x="791" y="-235.2" font-family="Helvetica,sans-Serif" font-size="11.00">numeric[10]</text>
<polygon fill="none" stroke="black" points="549,-205 549,-227 788,-227 788,-205 549,-205"/>
<text text-anchor="start" x="569" y="-213.2" font-family="Helvetica,sans-Serif" font-size="11.00">amtmultiplier</text>
<polygon fill="none" stroke="black" points="788,-205 788,-227 871,-227 871,-205 788,-205"/>
<text text-anchor="start" x="791" y="-213.2" font-family="Helvetica,sans-Serif" font-size="11.00">numeric[0]</text>
<polygon fill="none" stroke="black" points="549,-183 549,-205 788,-205 788,-183 549,-183"/>
<text text-anchor="start" x="569" y="-191.2" font-family="Helvetica,sans-Serif" font-size="11.00">roundfactor</text>
<polygon fill="none" stroke="black" points="788,-183 788,-205 871,-205 871,-183 788,-183"/>
<text text-anchor="start" x="791" y="-191.2" font-family="Helvetica,sans-Serif" font-size="11.00">numeric[10]</text>
<polygon fill="none" stroke="black" points="549,-161 549,-183 788,-183 788,-161 549,-161"/>
<image xlink:href="../../images/foreignKeys.png" width="11px" height="12px" preserveAspectRatio="xMinYMin meet" x="554" y="-178"/>
<text text-anchor="start" x="569" y="-169.2" font-family="Helvetica,sans-Serif" font-size="11.00">gl_category_id</text>
<polygon fill="none" stroke="black" points="788,-161 788,-183 871,-183 871,-161 788,-161"/>
<text text-anchor="start" x="791" y="-169.2" font-family="Helvetica,sans-Serif" font-size="11.00">numeric[10]</text>
<polygon fill="#ffffff" stroke="transparent" points="549,-139 549,-161 788,-161 788,-139 549,-139"/>
<polygon fill="none" stroke="black" points="549,-139 549,-161 788,-161 788,-139 549,-139"/>
<text text-anchor="start" x="569" y="-147.2" font-family="Helvetica,sans-Serif" font-size="11.00">gl_journalgeneratorsource_uu</text>
<polygon fill="none" stroke="black" points="788,-139 788,-161 871,-161 871,-139 788,-139"/>
<text text-anchor="start" x="791" y="-147.2" font-family="Helvetica,sans-Serif" font-size="11.00">varchar[36]</text>
<polygon fill="#ffffff" stroke="transparent" points="549,-121 549,-139 871,-139 871,-121 549,-121"/>
<polygon fill="none" stroke="black" points="549,-121 549,-139 871,-139 871,-121 549,-121"/>
<polygon fill="#ffffff" stroke="transparent" points="550,-122 550,-138 660,-138 660,-122 550,-122"/>
<text text-anchor="start" x="552" y="-127.2" font-family="Helvetica,sans-Serif" font-size="11.00">&lt; 3</text>
<polygon fill="#ffffff" stroke="transparent" points="660,-122 660,-138 761,-138 761,-122 660,-122"/>
<text text-anchor="start" x="707" y="-127.2" font-family="Helvetica,sans-Serif" font-size="11.00"> &#160;</text>
<polygon fill="#ffffff" stroke="transparent" points="761,-122 761,-138 870,-138 870,-122 761,-122"/>
<text text-anchor="start" x="852" y="-127.2" font-family="Helvetica,sans-Serif" font-size="11.00">0 &gt;</text>
<polygon fill="black" stroke="black" points="660,-122 660,-138 660,-138 660,-122 660,-122"/>
<polygon fill="black" stroke="black" points="761,-122 761,-138 761,-138 761,-122 761,-122"/>
<polygon fill="none" stroke="black" stroke-width="2" points="548,-120 548,-492 872,-492 872,-120 548,-120"/>
</a>
</g>
</g>
<!-- gl_journalgeneratorsource&#45;&gt;gl_journalgeneratorline -->
<g id="edge5" class="edge">
<title>gl_journalgeneratorsource:w&#45;&gt;gl_journalgeneratorline:e</title>
<path fill="none" stroke="black" d="M533.8,-262.8C490.39,-283.68 565.51,-414 499.5,-414"/>
<polygon fill="black" stroke="black" points="540.15,-261.55 548.7,-263.53 544.08,-260.77 548,-260 548,-260 548,-260 544.08,-260.77 547.3,-256.47 540.15,-261.55 540.15,-261.55"/>
<ellipse fill="none" stroke="black" cx="537.01" cy="-262.17" rx="3.2" ry="3.2"/>
</g>
<!-- gl_journalgeneratorsource&#45;&gt;c_elementvalue -->
<g id="edge3" class="edge">
<title>gl_journalgeneratorsource:w&#45;&gt;c_elementvalue:e</title>
<path fill="none" stroke="black" d="M533.22,-237.62C463.77,-234.54 319.39,-214.35 273,-247 233.52,-274.79 281.28,-348 233,-348"/>
<polygon fill="black" stroke="black" points="540,-237.8 547.91,-241.6 544,-237.9 548,-238 548,-238 548,-238 544,-237.9 548.09,-234.4 540,-237.8 540,-237.8"/>
<ellipse fill="none" stroke="black" cx="536.8" cy="-237.71" rx="3.2" ry="3.2"/>
</g>
<!-- gl_category -->
<g id="node4" class="node">
<title>gl_category</title>
<g id="a_node4"><a xlink:href="../../tables/gl_category.html" xlink:title="gl_category" target="_top">
<polygon fill="#ffffff" stroke="transparent" points="324.5,-37 324.5,-205 454.5,-205 454.5,-37 324.5,-37"/>
<polygon fill="#f5f5f5" stroke="transparent" points="324.5,-183 324.5,-205 454.5,-205 454.5,-183 324.5,-183"/>
<polygon fill="none" stroke="black" points="324.5,-183 324.5,-205 454.5,-205 454.5,-183 324.5,-183"/>
<text text-anchor="start" x="329.5" y="-192.2" font-family="Helvetica,sans-Serif" font-weight="bold" font-size="11.00">gl_category</text>
<text text-anchor="start" x="419.5" y="-191.2" font-family="Helvetica,sans-Serif" font-size="11.00">[table]</text>
<polygon fill="none" stroke="black" points="324.5,-161 324.5,-183 454.5,-183 454.5,-161 324.5,-161"/>
<image xlink:href="../../images/primaryKeys.png" width="11px" height="12px" preserveAspectRatio="xMinYMin meet" x="329.5" y="-178"/>
<text text-anchor="start" x="344.5" y="-169.2" font-family="Helvetica,sans-Serif" font-size="11.00">gl_category_id</text>
<polygon fill="#ffffff" stroke="transparent" points="324.5,-139 324.5,-161 454.5,-161 454.5,-139 324.5,-139"/>
<polygon fill="none" stroke="black" points="324.5,-139 324.5,-161 454.5,-161 454.5,-139 324.5,-139"/>
<text text-anchor="start" x="344.5" y="-147.2" font-family="Helvetica,sans-Serif" font-size="11.00">ad_client_id</text>
<polygon fill="#ffffff" stroke="transparent" points="324.5,-117 324.5,-139 454.5,-139 454.5,-117 324.5,-117"/>
<polygon fill="none" stroke="black" points="324.5,-117 324.5,-139 454.5,-139 454.5,-117 324.5,-117"/>
<text text-anchor="start" x="344.5" y="-125.2" font-family="Helvetica,sans-Serif" font-size="11.00">name</text>
<polygon fill="#ffffff" stroke="transparent" points="324.5,-95 324.5,-117 454.5,-117 454.5,-95 324.5,-95"/>
<polygon fill="none" stroke="black" points="324.5,-95 324.5,-117 454.5,-117 454.5,-95 324.5,-95"/>
<text text-anchor="start" x="344.5" y="-103.2" font-family="Helvetica,sans-Serif" font-size="11.00">gl_category_uu</text>
<polygon fill="#ffffff" stroke="transparent" points="324.5,-73 324.5,-95 454.5,-95 454.5,-73 324.5,-73"/>
<polygon fill="none" stroke="black" points="324.5,-73 324.5,-95 454.5,-95 454.5,-73 324.5,-73"/>
<text text-anchor="start" x="344.5" y="-81.2" font-family="Helvetica,sans-Serif" font-size="11.00">value</text>
<polygon fill="none" stroke="black" points="324.5,-55 324.5,-73 454.5,-73 454.5,-55 324.5,-55"/>
<text text-anchor="start" x="327.5" y="-61.2" font-family="Helvetica,sans-Serif" font-size="11.00">...</text>
<polygon fill="#ffffff" stroke="transparent" points="324.5,-37 324.5,-55 454.5,-55 454.5,-37 324.5,-37"/>
<polygon fill="none" stroke="black" points="324.5,-37 324.5,-55 454.5,-55 454.5,-37 324.5,-37"/>
<polygon fill="#ffffff" stroke="transparent" points="325.5,-38 325.5,-54 352.5,-54 352.5,-38 325.5,-38"/>
<text text-anchor="start" x="327.5" y="-43.2" font-family="Helvetica,sans-Serif" font-size="11.00"> &#160;</text>
<polygon fill="#ffffff" stroke="transparent" points="352.5,-38 352.5,-54 411.5,-54 411.5,-38 352.5,-38"/>
<text text-anchor="start" x="362.5" y="-43.2" font-family="Helvetica,sans-Serif" font-size="11.00">47 rows</text>
<polygon fill="#ffffff" stroke="transparent" points="411.5,-38 411.5,-54 453.5,-54 453.5,-38 411.5,-38"/>
<text text-anchor="start" x="429.5" y="-43.2" font-family="Helvetica,sans-Serif" font-size="11.00">12 &gt;</text>
<polygon fill="black" stroke="black" points="352.5,-38 352.5,-54 352.5,-54 352.5,-38 352.5,-38"/>
<polygon fill="black" stroke="black" points="411.5,-38 411.5,-54 411.5,-54 411.5,-38 411.5,-38"/>
</a>
</g>
</g>
<!-- gl_journalgeneratorsource&#45;&gt;gl_category -->
<g id="edge4" class="edge">
<title>gl_journalgeneratorsource:w&#45;&gt;gl_category:e</title>
<path fill="none" stroke="black" d="M533.51,-172C503.73,-172 491.31,-172 455.5,-172"/>
<polygon fill="black" stroke="black" points="540,-172 548,-175.6 544,-172 548,-172 548,-172 548,-172 544,-172 548,-168.4 540,-172 540,-172"/>
<ellipse fill="none" stroke="black" cx="536.8" cy="-172" rx="3.2" ry="3.2"/>
</g>
</g>
</svg>
