<?xml version="1.0" encoding="UTF-8" standalone="no"?>
<!DOCTYPE svg PUBLIC "-//W3C//DTD SVG 1.1//EN"
 "http://www.w3.org/Graphics/SVG/1.1/DTD/svg11.dtd">
<!-- Generated by graphviz version 2.43.0 (0)
 -->
<!-- Title: oneDegreeRelationshipsDiagram Pages: 1 -->
<svg width="1025pt" height="681pt"
 viewBox="0.00 0.00 1025.00 681.00" xmlns="http://www.w3.org/2000/svg" xmlns:xlink="http://www.w3.org/1999/xlink">
<g id="graph0" class="graph" transform="scale(1 1) rotate(0) translate(4 677)">
<title>oneDegreeRelationshipsDiagram</title>
<polygon fill="#ffffff" stroke="transparent" points="-4,4 -4,-677 1021,-677 1021,4 -4,4"/>
<text text-anchor="middle" x="71.5" y="-7.2" font-family="Helvetica,sans-Serif" font-size="11.00">Generated by SchemaSpy</text>
<!-- hr_concept -->
<g id="node1" class="node">
<title>hr_concept</title>
<g id="a_node1"><a xlink:href="../../tables/hr_concept.html" xlink:title="hr_concept" target="_top">
<polygon fill="#ffffff" stroke="transparent" points="576,-295 576,-507 768,-507 768,-295 576,-295"/>
<polygon fill="#f5f5f5" stroke="transparent" points="576,-485 576,-507 768,-507 768,-485 576,-485"/>
<polygon fill="none" stroke="black" points="576,-485 576,-507 768,-507 768,-485 576,-485"/>
<text text-anchor="start" x="581" y="-494.2" font-family="Helvetica,sans-Serif" font-weight="bold" font-size="11.00">hr_concept</text>
<text text-anchor="start" x="733" y="-493.2" font-family="Helvetica,sans-Serif" font-size="11.00">[table]</text>
<polygon fill="none" stroke="black" points="576,-463 576,-485 768,-485 768,-463 576,-463"/>
<image xlink:href="../../images/foreignKeys.png" width="11px" height="12px" preserveAspectRatio="xMinYMin meet" x="581" y="-480"/>
<text text-anchor="start" x="596" y="-471.2" font-family="Helvetica,sans-Serif" font-size="11.00">hr_concept_category_id</text>
<polygon fill="none" stroke="black" points="576,-441 576,-463 768,-463 768,-441 576,-441"/>
<image xlink:href="../../images/primaryKeys.png" width="11px" height="12px" preserveAspectRatio="xMinYMin meet" x="581" y="-458"/>
<text text-anchor="start" x="596" y="-449.2" font-family="Helvetica,sans-Serif" font-size="11.00">hr_concept_id</text>
<polygon fill="none" stroke="black" points="576,-419 576,-441 768,-441 768,-419 576,-419"/>
<image xlink:href="../../images/foreignKeys.png" width="11px" height="12px" preserveAspectRatio="xMinYMin meet" x="581" y="-436"/>
<text text-anchor="start" x="596" y="-427.2" font-family="Helvetica,sans-Serif" font-size="11.00">hr_department_id</text>
<polygon fill="none" stroke="black" points="576,-397 576,-419 768,-419 768,-397 576,-397"/>
<image xlink:href="../../images/foreignKeys.png" width="11px" height="12px" preserveAspectRatio="xMinYMin meet" x="581" y="-414"/>
<text text-anchor="start" x="596" y="-405.2" font-family="Helvetica,sans-Serif" font-size="11.00">hr_job_id</text>
<polygon fill="none" stroke="black" points="576,-375 576,-397 768,-397 768,-375 576,-375"/>
<image xlink:href="../../images/foreignKeys.png" width="11px" height="12px" preserveAspectRatio="xMinYMin meet" x="581" y="-392"/>
<text text-anchor="start" x="596" y="-383.2" font-family="Helvetica,sans-Serif" font-size="11.00">hr_payroll_id</text>
<polygon fill="none" stroke="black" points="576,-353 576,-375 768,-375 768,-353 576,-353"/>
<image xlink:href="../../images/foreignKeys.png" width="11px" height="12px" preserveAspectRatio="xMinYMin meet" x="581" y="-370"/>
<text text-anchor="start" x="596" y="-361.2" font-family="Helvetica,sans-Serif" font-size="11.00">ad_reference_id</text>
<polygon fill="#ffffff" stroke="transparent" points="576,-331 576,-353 768,-353 768,-331 576,-331"/>
<polygon fill="none" stroke="black" points="576,-331 576,-353 768,-353 768,-331 576,-331"/>
<text text-anchor="start" x="596" y="-339.2" font-family="Helvetica,sans-Serif" font-size="11.00">hr_concept_uu</text>
<polygon fill="none" stroke="black" points="576,-313 576,-331 768,-331 768,-313 576,-313"/>
<text text-anchor="start" x="579" y="-319.2" font-family="Helvetica,sans-Serif" font-size="11.00">...</text>
<polygon fill="#ffffff" stroke="transparent" points="576,-295 576,-313 768,-313 768,-295 576,-295"/>
<polygon fill="none" stroke="black" points="576,-295 576,-313 768,-313 768,-295 576,-295"/>
<polygon fill="#ffffff" stroke="transparent" points="577,-296 577,-312 644,-312 644,-296 577,-296"/>
<text text-anchor="start" x="579" y="-301.2" font-family="Helvetica,sans-Serif" font-size="11.00">&lt; 5</text>
<polygon fill="#ffffff" stroke="transparent" points="644,-296 644,-312 701,-312 701,-296 644,-296"/>
<text text-anchor="start" x="669" y="-301.2" font-family="Helvetica,sans-Serif" font-size="11.00"> &#160;</text>
<polygon fill="#ffffff" stroke="transparent" points="701,-296 701,-312 767,-312 767,-296 701,-296"/>
<text text-anchor="start" x="749" y="-301.2" font-family="Helvetica,sans-Serif" font-size="11.00">5 &gt;</text>
<polygon fill="black" stroke="black" points="644,-296 644,-312 644,-312 644,-296 644,-296"/>
<polygon fill="black" stroke="black" points="701,-296 701,-312 701,-312 701,-296 701,-296"/>
</a>
</g>
</g>
<!-- hr_concept_category -->
<g id="node2" class="node">
<title>hr_concept_category</title>
<g id="a_node2"><a xlink:href="../../tables/hr_concept_category.html" xlink:title="hr_concept_category" target="_top">
<polygon fill="#ffffff" stroke="transparent" points="243,-317 243,-669 527,-669 527,-317 243,-317"/>
<polygon fill="#f5f5f5" stroke="transparent" points="245,-645 245,-667 525,-667 525,-645 245,-645"/>
<polygon fill="none" stroke="black" points="245,-645 245,-667 525,-667 525,-645 245,-645"/>
<text text-anchor="start" x="250" y="-654.2" font-family="Helvetica,sans-Serif" font-weight="bold" font-size="11.00">hr_concept_category</text>
<text text-anchor="start" x="490" y="-653.2" font-family="Helvetica,sans-Serif" font-size="11.00">[table]</text>
<polygon fill="none" stroke="black" points="245,-623 245,-645 442,-645 442,-623 245,-623"/>
<text text-anchor="start" x="265" y="-631.2" font-family="Helvetica,sans-Serif" font-size="11.00">name</text>
<polygon fill="none" stroke="black" points="442,-623 442,-645 525,-645 525,-623 442,-623"/>
<text text-anchor="start" x="445" y="-631.2" font-family="Helvetica,sans-Serif" font-size="11.00">varchar[60]</text>
<polygon fill="none" stroke="black" points="245,-601 245,-623 442,-623 442,-601 245,-601"/>
<text text-anchor="start" x="265" y="-609.2" font-family="Helvetica,sans-Serif" font-size="11.00">ad_org_id</text>
<polygon fill="none" stroke="black" points="442,-601 442,-623 525,-623 525,-601 442,-601"/>
<text text-anchor="start" x="445" y="-609.2" font-family="Helvetica,sans-Serif" font-size="11.00">numeric[10]</text>
<polygon fill="none" stroke="black" points="245,-579 245,-601 442,-601 442,-579 245,-579"/>
<text text-anchor="start" x="265" y="-587.2" font-family="Helvetica,sans-Serif" font-size="11.00">created</text>
<polygon fill="none" stroke="black" points="442,-579 442,-601 525,-601 525,-579 442,-579"/>
<text text-anchor="start" x="445" y="-587.2" font-family="Helvetica,sans-Serif" font-size="11.00">timestamp[29,6]</text>
<polygon fill="none" stroke="black" points="245,-557 245,-579 442,-579 442,-557 245,-557"/>
<text text-anchor="start" x="265" y="-565.2" font-family="Helvetica,sans-Serif" font-size="11.00">createdby</text>
<polygon fill="none" stroke="black" points="442,-557 442,-579 525,-579 525,-557 442,-557"/>
<text text-anchor="start" x="445" y="-565.2" font-family="Helvetica,sans-Serif" font-size="11.00">numeric[10]</text>
<polygon fill="none" stroke="black" points="245,-535 245,-557 442,-557 442,-535 245,-535"/>
<text text-anchor="start" x="265" y="-543.2" font-family="Helvetica,sans-Serif" font-size="11.00">description</text>
<polygon fill="none" stroke="black" points="442,-535 442,-557 525,-557 525,-535 442,-535"/>
<text text-anchor="start" x="445" y="-543.2" font-family="Helvetica,sans-Serif" font-size="11.00">varchar[255]</text>
<polygon fill="none" stroke="black" points="245,-513 245,-535 442,-535 442,-513 245,-513"/>
<image xlink:href="../../images/foreignKeys.png" width="11px" height="12px" preserveAspectRatio="xMinYMin meet" x="250" y="-530"/>
<text text-anchor="start" x="265" y="-521.2" font-family="Helvetica,sans-Serif" font-size="11.00">hr_concept_acct</text>
<polygon fill="none" stroke="black" points="442,-513 442,-535 525,-535 525,-513 442,-513"/>
<text text-anchor="start" x="445" y="-521.2" font-family="Helvetica,sans-Serif" font-size="11.00">numeric[10]</text>
<polygon fill="none" stroke="black" points="245,-491 245,-513 442,-513 442,-491 245,-491"/>
<image xlink:href="../../images/primaryKeys.png" width="11px" height="12px" preserveAspectRatio="xMinYMin meet" x="250" y="-508"/>
<text text-anchor="start" x="265" y="-499.2" font-family="Helvetica,sans-Serif" font-size="11.00">hr_concept_category_id</text>
<polygon fill="none" stroke="black" points="442,-491 442,-513 525,-513 525,-491 442,-491"/>
<text text-anchor="start" x="445" y="-499.2" font-family="Helvetica,sans-Serif" font-size="11.00">numeric[10]</text>
<polygon fill="none" stroke="black" points="245,-469 245,-491 442,-491 442,-469 245,-469"/>
<text text-anchor="start" x="265" y="-477.2" font-family="Helvetica,sans-Serif" font-size="11.00">isactive</text>
<polygon fill="none" stroke="black" points="442,-469 442,-491 525,-491 525,-469 442,-469"/>
<text text-anchor="start" x="445" y="-477.2" font-family="Helvetica,sans-Serif" font-size="11.00">bpchar[1]</text>
<polygon fill="none" stroke="black" points="245,-447 245,-469 442,-469 442,-447 245,-447"/>
<text text-anchor="start" x="265" y="-455.2" font-family="Helvetica,sans-Serif" font-size="11.00">isdefault</text>
<polygon fill="none" stroke="black" points="442,-447 442,-469 525,-469 525,-447 442,-447"/>
<text text-anchor="start" x="445" y="-455.2" font-family="Helvetica,sans-Serif" font-size="11.00">bpchar[1]</text>
<polygon fill="none" stroke="black" points="245,-425 245,-447 442,-447 442,-425 245,-425"/>
<text text-anchor="start" x="265" y="-433.2" font-family="Helvetica,sans-Serif" font-size="11.00">updated</text>
<polygon fill="none" stroke="black" points="442,-425 442,-447 525,-447 525,-425 442,-425"/>
<text text-anchor="start" x="445" y="-433.2" font-family="Helvetica,sans-Serif" font-size="11.00">timestamp[29,6]</text>
<polygon fill="none" stroke="black" points="245,-403 245,-425 442,-425 442,-403 245,-403"/>
<text text-anchor="start" x="265" y="-411.2" font-family="Helvetica,sans-Serif" font-size="11.00">updatedby</text>
<polygon fill="none" stroke="black" points="442,-403 442,-425 525,-425 525,-403 442,-403"/>
<text text-anchor="start" x="445" y="-411.2" font-family="Helvetica,sans-Serif" font-size="11.00">numeric[10]</text>
<polygon fill="none" stroke="black" points="245,-381 245,-403 442,-403 442,-381 245,-381"/>
<text text-anchor="start" x="265" y="-389.2" font-family="Helvetica,sans-Serif" font-size="11.00">ad_client_id</text>
<polygon fill="none" stroke="black" points="442,-381 442,-403 525,-403 525,-381 442,-381"/>
<text text-anchor="start" x="445" y="-389.2" font-family="Helvetica,sans-Serif" font-size="11.00">numeric[10]</text>
<polygon fill="none" stroke="black" points="245,-359 245,-381 442,-381 442,-359 245,-359"/>
<text text-anchor="start" x="265" y="-367.2" font-family="Helvetica,sans-Serif" font-size="11.00">value</text>
<polygon fill="none" stroke="black" points="442,-359 442,-381 525,-381 525,-359 442,-359"/>
<text text-anchor="start" x="445" y="-367.2" font-family="Helvetica,sans-Serif" font-size="11.00">varchar[40]</text>
<polygon fill="#ffffff" stroke="transparent" points="245,-337 245,-359 442,-359 442,-337 245,-337"/>
<polygon fill="none" stroke="black" points="245,-337 245,-359 442,-359 442,-337 245,-337"/>
<text text-anchor="start" x="265" y="-345.2" font-family="Helvetica,sans-Serif" font-size="11.00">hr_concept_category_uu</text>
<polygon fill="none" stroke="black" points="442,-337 442,-359 525,-359 525,-337 442,-337"/>
<text text-anchor="start" x="445" y="-345.2" font-family="Helvetica,sans-Serif" font-size="11.00">varchar[36]</text>
<polygon fill="#ffffff" stroke="transparent" points="245,-319 245,-337 525,-337 525,-319 245,-319"/>
<polygon fill="none" stroke="black" points="245,-319 245,-337 525,-337 525,-319 245,-319"/>
<polygon fill="#ffffff" stroke="transparent" points="246,-320 246,-336 342,-336 342,-320 246,-320"/>
<text text-anchor="start" x="248" y="-325.2" font-family="Helvetica,sans-Serif" font-size="11.00">&lt; 1</text>
<polygon fill="#ffffff" stroke="transparent" points="342,-320 342,-336 429,-336 429,-320 342,-320"/>
<text text-anchor="start" x="382" y="-325.2" font-family="Helvetica,sans-Serif" font-size="11.00"> &#160;</text>
<polygon fill="#ffffff" stroke="transparent" points="429,-320 429,-336 524,-336 524,-320 429,-320"/>
<text text-anchor="start" x="506" y="-325.2" font-family="Helvetica,sans-Serif" font-size="11.00">2 &gt;</text>
<polygon fill="black" stroke="black" points="342,-320 342,-336 342,-336 342,-320 342,-320"/>
<polygon fill="black" stroke="black" points="429,-320 429,-336 429,-336 429,-320 429,-320"/>
<polygon fill="none" stroke="black" stroke-width="2" points="244,-318 244,-668 526,-668 526,-318 244,-318"/>
</a>
</g>
</g>
<!-- hr_concept&#45;&gt;hr_concept_category -->
<g id="edge1" class="edge">
<title>hr_concept:w&#45;&gt;hr_concept_category:e</title>
<path fill="none" stroke="black" d="M561.01,-477.89C549.02,-485.59 545.2,-502 526,-502"/>
<polygon fill="black" stroke="black" points="567.29,-476.15 575.97,-477.47 571.15,-475.07 575,-474 575,-474 575,-474 571.15,-475.07 574.03,-470.53 567.29,-476.15 567.29,-476.15"/>
<ellipse fill="none" stroke="black" cx="564.21" cy="-477" rx="3.2" ry="3.2"/>
</g>
<!-- c_validcombination -->
<g id="node3" class="node">
<title>c_validcombination</title>
<g id="a_node3"><a xlink:href="../../tables/c_validcombination.html" xlink:title="c_validcombination" target="_top">
<polygon fill="#ffffff" stroke="transparent" points="8,-37 8,-557 194,-557 194,-37 8,-37"/>
<polygon fill="#f5f5f5" stroke="transparent" points="8,-535 8,-557 194,-557 194,-535 8,-535"/>
<polygon fill="none" stroke="black" points="8,-535 8,-557 194,-557 194,-535 8,-535"/>
<text text-anchor="start" x="13" y="-544.2" font-family="Helvetica,sans-Serif" font-weight="bold" font-size="11.00">c_validcombination</text>
<text text-anchor="start" x="159" y="-543.2" font-family="Helvetica,sans-Serif" font-size="11.00">[table]</text>
<polygon fill="none" stroke="black" points="8,-513 8,-535 194,-535 194,-513 8,-513"/>
<image xlink:href="../../images/primaryKeys.png" width="11px" height="12px" preserveAspectRatio="xMinYMin meet" x="13" y="-530"/>
<text text-anchor="start" x="28" y="-521.2" font-family="Helvetica,sans-Serif" font-size="11.00">c_validcombination_id</text>
<polygon fill="#ffffff" stroke="transparent" points="8,-491 8,-513 194,-513 194,-491 8,-491"/>
<polygon fill="none" stroke="black" points="8,-491 8,-513 194,-513 194,-491 8,-491"/>
<image xlink:href="../../images/foreignKeys.png" width="11px" height="12px" preserveAspectRatio="xMinYMin meet" x="13" y="-508"/>
<text text-anchor="start" x="28" y="-499.2" font-family="Helvetica,sans-Serif" font-size="11.00">ad_client_id</text>
<polygon fill="#ffffff" stroke="transparent" points="8,-469 8,-491 194,-491 194,-469 8,-469"/>
<polygon fill="none" stroke="black" points="8,-469 8,-491 194,-491 194,-469 8,-469"/>
<image xlink:href="../../images/foreignKeys.png" width="11px" height="12px" preserveAspectRatio="xMinYMin meet" x="13" y="-486"/>
<text text-anchor="start" x="28" y="-477.2" font-family="Helvetica,sans-Serif" font-size="11.00">ad_org_id</text>
<polygon fill="#ffffff" stroke="transparent" points="8,-447 8,-469 194,-469 194,-447 8,-447"/>
<polygon fill="none" stroke="black" points="8,-447 8,-469 194,-469 194,-447 8,-447"/>
<text text-anchor="start" x="28" y="-455.2" font-family="Helvetica,sans-Serif" font-size="11.00">alias</text>
<polygon fill="#ffffff" stroke="transparent" points="8,-425 8,-447 194,-447 194,-425 8,-425"/>
<polygon fill="none" stroke="black" points="8,-425 8,-447 194,-447 194,-425 8,-425"/>
<image xlink:href="../../images/foreignKeys.png" width="11px" height="12px" preserveAspectRatio="xMinYMin meet" x="13" y="-442"/>
<text text-anchor="start" x="28" y="-433.2" font-family="Helvetica,sans-Serif" font-size="11.00">c_acctschema_id</text>
<polygon fill="#ffffff" stroke="transparent" points="8,-403 8,-425 194,-425 194,-403 8,-403"/>
<polygon fill="none" stroke="black" points="8,-403 8,-425 194,-425 194,-403 8,-403"/>
<image xlink:href="../../images/foreignKeys.png" width="11px" height="12px" preserveAspectRatio="xMinYMin meet" x="13" y="-420"/>
<text text-anchor="start" x="28" y="-411.2" font-family="Helvetica,sans-Serif" font-size="11.00">account_id</text>
<polygon fill="#ffffff" stroke="transparent" points="8,-381 8,-403 194,-403 194,-381 8,-381"/>
<polygon fill="none" stroke="black" points="8,-381 8,-403 194,-403 194,-381 8,-381"/>
<image xlink:href="../../images/foreignKeys.png" width="11px" height="12px" preserveAspectRatio="xMinYMin meet" x="13" y="-398"/>
<text text-anchor="start" x="28" y="-389.2" font-family="Helvetica,sans-Serif" font-size="11.00">m_product_id</text>
<polygon fill="#ffffff" stroke="transparent" points="8,-359 8,-381 194,-381 194,-359 8,-359"/>
<polygon fill="none" stroke="black" points="8,-359 8,-381 194,-381 194,-359 8,-359"/>
<image xlink:href="../../images/foreignKeys.png" width="11px" height="12px" preserveAspectRatio="xMinYMin meet" x="13" y="-376"/>
<text text-anchor="start" x="28" y="-367.2" font-family="Helvetica,sans-Serif" font-size="11.00">c_bpartner_id</text>
<polygon fill="#ffffff" stroke="transparent" points="8,-337 8,-359 194,-359 194,-337 8,-337"/>
<polygon fill="none" stroke="black" points="8,-337 8,-359 194,-359 194,-337 8,-337"/>
<image xlink:href="../../images/foreignKeys.png" width="11px" height="12px" preserveAspectRatio="xMinYMin meet" x="13" y="-354"/>
<text text-anchor="start" x="28" y="-345.2" font-family="Helvetica,sans-Serif" font-size="11.00">ad_orgtrx_id</text>
<polygon fill="#ffffff" stroke="transparent" points="8,-315 8,-337 194,-337 194,-315 8,-315"/>
<polygon fill="none" stroke="black" points="8,-315 8,-337 194,-337 194,-315 8,-315"/>
<image xlink:href="../../images/foreignKeys.png" width="11px" height="12px" preserveAspectRatio="xMinYMin meet" x="13" y="-332"/>
<text text-anchor="start" x="28" y="-323.2" font-family="Helvetica,sans-Serif" font-size="11.00">c_locfrom_id</text>
<polygon fill="#ffffff" stroke="transparent" points="8,-293 8,-315 194,-315 194,-293 8,-293"/>
<polygon fill="none" stroke="black" points="8,-293 8,-315 194,-315 194,-293 8,-293"/>
<image xlink:href="../../images/foreignKeys.png" width="11px" height="12px" preserveAspectRatio="xMinYMin meet" x="13" y="-310"/>
<text text-anchor="start" x="28" y="-301.2" font-family="Helvetica,sans-Serif" font-size="11.00">c_locto_id</text>
<polygon fill="#ffffff" stroke="transparent" points="8,-271 8,-293 194,-293 194,-271 8,-271"/>
<polygon fill="none" stroke="black" points="8,-271 8,-293 194,-293 194,-271 8,-271"/>
<image xlink:href="../../images/foreignKeys.png" width="11px" height="12px" preserveAspectRatio="xMinYMin meet" x="13" y="-288"/>
<text text-anchor="start" x="28" y="-279.2" font-family="Helvetica,sans-Serif" font-size="11.00">c_salesregion_id</text>
<polygon fill="#ffffff" stroke="transparent" points="8,-249 8,-271 194,-271 194,-249 8,-249"/>
<polygon fill="none" stroke="black" points="8,-249 8,-271 194,-271 194,-249 8,-249"/>
<image xlink:href="../../images/foreignKeys.png" width="11px" height="12px" preserveAspectRatio="xMinYMin meet" x="13" y="-266"/>
<text text-anchor="start" x="28" y="-257.2" font-family="Helvetica,sans-Serif" font-size="11.00">c_project_id</text>
<polygon fill="#ffffff" stroke="transparent" points="8,-227 8,-249 194,-249 194,-227 8,-227"/>
<polygon fill="none" stroke="black" points="8,-227 8,-249 194,-249 194,-227 8,-227"/>
<image xlink:href="../../images/foreignKeys.png" width="11px" height="12px" preserveAspectRatio="xMinYMin meet" x="13" y="-244"/>
<text text-anchor="start" x="28" y="-235.2" font-family="Helvetica,sans-Serif" font-size="11.00">c_campaign_id</text>
<polygon fill="#ffffff" stroke="transparent" points="8,-205 8,-227 194,-227 194,-205 8,-205"/>
<polygon fill="none" stroke="black" points="8,-205 8,-227 194,-227 194,-205 8,-205"/>
<image xlink:href="../../images/foreignKeys.png" width="11px" height="12px" preserveAspectRatio="xMinYMin meet" x="13" y="-222"/>
<text text-anchor="start" x="28" y="-213.2" font-family="Helvetica,sans-Serif" font-size="11.00">c_activity_id</text>
<polygon fill="#ffffff" stroke="transparent" points="8,-183 8,-205 194,-205 194,-183 8,-183"/>
<polygon fill="none" stroke="black" points="8,-183 8,-205 194,-205 194,-183 8,-183"/>
<image xlink:href="../../images/foreignKeys.png" width="11px" height="12px" preserveAspectRatio="xMinYMin meet" x="13" y="-200"/>
<text text-anchor="start" x="28" y="-191.2" font-family="Helvetica,sans-Serif" font-size="11.00">user1_id</text>
<polygon fill="#ffffff" stroke="transparent" points="8,-161 8,-183 194,-183 194,-161 8,-161"/>
<polygon fill="none" stroke="black" points="8,-161 8,-183 194,-183 194,-161 8,-161"/>
<image xlink:href="../../images/foreignKeys.png" width="11px" height="12px" preserveAspectRatio="xMinYMin meet" x="13" y="-178"/>
<text text-anchor="start" x="28" y="-169.2" font-family="Helvetica,sans-Serif" font-size="11.00">user2_id</text>
<polygon fill="#ffffff" stroke="transparent" points="8,-139 8,-161 194,-161 194,-139 8,-139"/>
<polygon fill="none" stroke="black" points="8,-139 8,-161 194,-161 194,-139 8,-139"/>
<image xlink:href="../../images/foreignKeys.png" width="11px" height="12px" preserveAspectRatio="xMinYMin meet" x="13" y="-156"/>
<text text-anchor="start" x="28" y="-147.2" font-family="Helvetica,sans-Serif" font-size="11.00">c_subacct_id</text>
<polygon fill="#ffffff" stroke="transparent" points="8,-117 8,-139 194,-139 194,-117 8,-117"/>
<polygon fill="none" stroke="black" points="8,-117 8,-139 194,-139 194,-117 8,-117"/>
<text text-anchor="start" x="28" y="-125.2" font-family="Helvetica,sans-Serif" font-size="11.00">userelement1_id</text>
<polygon fill="#ffffff" stroke="transparent" points="8,-95 8,-117 194,-117 194,-95 8,-95"/>
<polygon fill="none" stroke="black" points="8,-95 8,-117 194,-117 194,-95 8,-95"/>
<text text-anchor="start" x="28" y="-103.2" font-family="Helvetica,sans-Serif" font-size="11.00">userelement2_id</text>
<polygon fill="#ffffff" stroke="transparent" points="8,-73 8,-95 194,-95 194,-73 8,-73"/>
<polygon fill="none" stroke="black" points="8,-73 8,-95 194,-95 194,-73 8,-73"/>
<text text-anchor="start" x="28" y="-81.2" font-family="Helvetica,sans-Serif" font-size="11.00">c_validcombination_uu</text>
<polygon fill="none" stroke="black" points="8,-55 8,-73 194,-73 194,-55 8,-55"/>
<text text-anchor="start" x="11" y="-61.2" font-family="Helvetica,sans-Serif" font-size="11.00">...</text>
<polygon fill="#ffffff" stroke="transparent" points="8,-37 8,-55 194,-55 194,-37 8,-37"/>
<polygon fill="none" stroke="black" points="8,-37 8,-55 194,-55 194,-37 8,-37"/>
<polygon fill="#ffffff" stroke="transparent" points="9,-38 9,-54 61,-54 61,-38 9,-38"/>
<text text-anchor="start" x="11" y="-43.2" font-family="Helvetica,sans-Serif" font-size="11.00">&lt; 16</text>
<polygon fill="#ffffff" stroke="transparent" points="61,-38 61,-54 136,-54 136,-38 61,-38"/>
<text text-anchor="start" x="76" y="-43.2" font-family="Helvetica,sans-Serif" font-size="11.00">784 rows</text>
<polygon fill="#ffffff" stroke="transparent" points="136,-38 136,-54 193,-54 193,-38 136,-38"/>
<text text-anchor="start" x="163" y="-43.2" font-family="Helvetica,sans-Serif" font-size="11.00">262 &gt;</text>
<polygon fill="black" stroke="black" points="61,-38 61,-54 61,-54 61,-38 61,-38"/>
<polygon fill="black" stroke="black" points="136,-38 136,-54 136,-54 136,-38 136,-38"/>
</a>
</g>
</g>
<!-- hr_concept_category&#45;&gt;c_validcombination -->
<g id="edge2" class="edge">
<title>hr_concept_category:w&#45;&gt;c_validcombination:e</title>
<path fill="none" stroke="black" d="M229.49,-524C218.18,-524 210.99,-524 195,-524"/>
<polygon fill="black" stroke="black" points="236,-524 244,-527.6 240,-524 244,-524 244,-524 244,-524 240,-524 244,-520.4 236,-524 236,-524"/>
<ellipse fill="none" stroke="black" cx="232.8" cy="-524" rx="3.2" ry="3.2"/>
</g>
<!-- hr_movement -->
<g id="node4" class="node">
<title>hr_movement</title>
<g id="a_node4"><a xlink:href="../../tables/hr_movement.html" xlink:title="hr_movement" target="_top">
<polygon fill="#ffffff" stroke="transparent" points="817,-60 817,-558 1009,-558 1009,-60 817,-60"/>
<polygon fill="#f5f5f5" stroke="transparent" points="817,-536 817,-558 1009,-558 1009,-536 817,-536"/>
<polygon fill="none" stroke="black" points="817,-536 817,-558 1009,-558 1009,-536 817,-536"/>
<text text-anchor="start" x="822" y="-545.2" font-family="Helvetica,sans-Serif" font-weight="bold" font-size="11.00">hr_movement</text>
<text text-anchor="start" x="974" y="-544.2" font-family="Helvetica,sans-Serif" font-size="11.00">[table]</text>
<polygon fill="none" stroke="black" points="817,-514 817,-536 1009,-536 1009,-514 817,-514"/>
<image xlink:href="../../images/foreignKeys.png" width="11px" height="12px" preserveAspectRatio="xMinYMin meet" x="822" y="-531"/>
<text text-anchor="start" x="837" y="-522.2" font-family="Helvetica,sans-Serif" font-size="11.00">hr_concept_category_id</text>
<polygon fill="none" stroke="black" points="817,-492 817,-514 1009,-514 1009,-492 817,-492"/>
<image xlink:href="../../images/foreignKeys.png" width="11px" height="12px" preserveAspectRatio="xMinYMin meet" x="822" y="-509"/>
<text text-anchor="start" x="837" y="-500.2" font-family="Helvetica,sans-Serif" font-size="11.00">hr_process_id</text>
<polygon fill="none" stroke="black" points="817,-470 817,-492 1009,-492 1009,-470 817,-470"/>
<image xlink:href="../../images/foreignKeys.png" width="11px" height="12px" preserveAspectRatio="xMinYMin meet" x="822" y="-487"/>
<text text-anchor="start" x="837" y="-478.2" font-family="Helvetica,sans-Serif" font-size="11.00">c_bpartner_id</text>
<polygon fill="none" stroke="black" points="817,-448 817,-470 1009,-470 1009,-448 817,-448"/>
<image xlink:href="../../images/foreignKeys.png" width="11px" height="12px" preserveAspectRatio="xMinYMin meet" x="822" y="-465"/>
<text text-anchor="start" x="837" y="-456.2" font-family="Helvetica,sans-Serif" font-size="11.00">hr_concept_id</text>
<polygon fill="none" stroke="black" points="817,-426 817,-448 1009,-448 1009,-426 817,-426"/>
<image xlink:href="../../images/foreignKeys.png" width="11px" height="12px" preserveAspectRatio="xMinYMin meet" x="822" y="-443"/>
<text text-anchor="start" x="837" y="-434.2" font-family="Helvetica,sans-Serif" font-size="11.00">hr_department_id</text>
<polygon fill="none" stroke="black" points="817,-404 817,-426 1009,-426 1009,-404 817,-404"/>
<image xlink:href="../../images/foreignKeys.png" width="11px" height="12px" preserveAspectRatio="xMinYMin meet" x="822" y="-421"/>
<text text-anchor="start" x="837" y="-412.2" font-family="Helvetica,sans-Serif" font-size="11.00">hr_job_id</text>
<polygon fill="none" stroke="black" points="817,-382 817,-404 1009,-404 1009,-382 817,-382"/>
<image xlink:href="../../images/primaryKeys.png" width="11px" height="12px" preserveAspectRatio="xMinYMin meet" x="822" y="-399"/>
<text text-anchor="start" x="837" y="-390.2" font-family="Helvetica,sans-Serif" font-size="11.00">hr_movement_id</text>
<polygon fill="none" stroke="black" points="817,-360 817,-382 1009,-382 1009,-360 817,-360"/>
<image xlink:href="../../images/foreignKeys.png" width="11px" height="12px" preserveAspectRatio="xMinYMin meet" x="822" y="-377"/>
<text text-anchor="start" x="837" y="-368.2" font-family="Helvetica,sans-Serif" font-size="11.00">ad_rule_id</text>
<polygon fill="none" stroke="black" points="817,-338 817,-360 1009,-360 1009,-338 817,-338"/>
<image xlink:href="../../images/foreignKeys.png" width="11px" height="12px" preserveAspectRatio="xMinYMin meet" x="822" y="-355"/>
<text text-anchor="start" x="837" y="-346.2" font-family="Helvetica,sans-Serif" font-size="11.00">c_activity_id</text>
<polygon fill="none" stroke="black" points="817,-316 817,-338 1009,-338 1009,-316 817,-316"/>
<image xlink:href="../../images/foreignKeys.png" width="11px" height="12px" preserveAspectRatio="xMinYMin meet" x="822" y="-333"/>
<text text-anchor="start" x="837" y="-324.2" font-family="Helvetica,sans-Serif" font-size="11.00">c_campaign_id</text>
<polygon fill="none" stroke="black" points="817,-294 817,-316 1009,-316 1009,-294 817,-294"/>
<image xlink:href="../../images/foreignKeys.png" width="11px" height="12px" preserveAspectRatio="xMinYMin meet" x="822" y="-311"/>
<text text-anchor="start" x="837" y="-302.2" font-family="Helvetica,sans-Serif" font-size="11.00">ad_orgtrx_id</text>
<polygon fill="none" stroke="black" points="817,-272 817,-294 1009,-294 1009,-272 817,-272"/>
<image xlink:href="../../images/foreignKeys.png" width="11px" height="12px" preserveAspectRatio="xMinYMin meet" x="822" y="-289"/>
<text text-anchor="start" x="837" y="-280.2" font-family="Helvetica,sans-Serif" font-size="11.00">c_projectphase_id</text>
<polygon fill="none" stroke="black" points="817,-250 817,-272 1009,-272 1009,-250 817,-250"/>
<image xlink:href="../../images/foreignKeys.png" width="11px" height="12px" preserveAspectRatio="xMinYMin meet" x="822" y="-267"/>
<text text-anchor="start" x="837" y="-258.2" font-family="Helvetica,sans-Serif" font-size="11.00">c_projecttask_id</text>
<polygon fill="none" stroke="black" points="817,-228 817,-250 1009,-250 1009,-228 817,-228"/>
<image xlink:href="../../images/foreignKeys.png" width="11px" height="12px" preserveAspectRatio="xMinYMin meet" x="822" y="-245"/>
<text text-anchor="start" x="837" y="-236.2" font-family="Helvetica,sans-Serif" font-size="11.00">c_project_id</text>
<polygon fill="none" stroke="black" points="817,-206 817,-228 1009,-228 1009,-206 817,-206"/>
<image xlink:href="../../images/foreignKeys.png" width="11px" height="12px" preserveAspectRatio="xMinYMin meet" x="822" y="-223"/>
<text text-anchor="start" x="837" y="-214.2" font-family="Helvetica,sans-Serif" font-size="11.00">user1_id</text>
<polygon fill="none" stroke="black" points="817,-184 817,-206 1009,-206 1009,-184 817,-184"/>
<image xlink:href="../../images/foreignKeys.png" width="11px" height="12px" preserveAspectRatio="xMinYMin meet" x="822" y="-201"/>
<text text-anchor="start" x="837" y="-192.2" font-family="Helvetica,sans-Serif" font-size="11.00">user2_id</text>
<polygon fill="none" stroke="black" points="817,-162 817,-184 1009,-184 1009,-162 817,-162"/>
<image xlink:href="../../images/foreignKeys.png" width="11px" height="12px" preserveAspectRatio="xMinYMin meet" x="822" y="-179"/>
<text text-anchor="start" x="837" y="-170.2" font-family="Helvetica,sans-Serif" font-size="11.00">pp_cost_collector_id</text>
<polygon fill="none" stroke="black" points="817,-140 817,-162 1009,-162 1009,-140 817,-140"/>
<image xlink:href="../../images/foreignKeys.png" width="11px" height="12px" preserveAspectRatio="xMinYMin meet" x="822" y="-157"/>
<text text-anchor="start" x="837" y="-148.2" font-family="Helvetica,sans-Serif" font-size="11.00">c_bp_group_id</text>
<polygon fill="none" stroke="black" points="817,-118 817,-140 1009,-140 1009,-118 817,-118"/>
<image xlink:href="../../images/foreignKeys.png" width="11px" height="12px" preserveAspectRatio="xMinYMin meet" x="822" y="-135"/>
<text text-anchor="start" x="837" y="-126.2" font-family="Helvetica,sans-Serif" font-size="11.00">c_bp_bankaccount_id</text>
<polygon fill="#ffffff" stroke="transparent" points="817,-96 817,-118 1009,-118 1009,-96 817,-96"/>
<polygon fill="none" stroke="black" points="817,-96 817,-118 1009,-118 1009,-96 817,-96"/>
<text text-anchor="start" x="837" y="-104.2" font-family="Helvetica,sans-Serif" font-size="11.00">hr_movement_uu</text>
<polygon fill="none" stroke="black" points="817,-78 817,-96 1009,-96 1009,-78 817,-78"/>
<text text-anchor="start" x="820" y="-84.2" font-family="Helvetica,sans-Serif" font-size="11.00">...</text>
<polygon fill="#ffffff" stroke="transparent" points="817,-60 817,-78 1009,-78 1009,-60 817,-60"/>
<polygon fill="none" stroke="black" points="817,-60 817,-78 1009,-78 1009,-60 817,-60"/>
<polygon fill="#ffffff" stroke="transparent" points="818,-61 818,-77 889,-77 889,-61 818,-61"/>
<text text-anchor="start" x="820" y="-66.2" font-family="Helvetica,sans-Serif" font-size="11.00">&lt; 18</text>
<polygon fill="#ffffff" stroke="transparent" points="889,-61 889,-77 944,-77 944,-61 889,-61"/>
<text text-anchor="start" x="913" y="-66.2" font-family="Helvetica,sans-Serif" font-size="11.00"> &#160;</text>
<polygon fill="#ffffff" stroke="transparent" points="944,-61 944,-77 1008,-77 1008,-61 944,-61"/>
<text text-anchor="start" x="990" y="-66.2" font-family="Helvetica,sans-Serif" font-size="11.00">1 &gt;</text>
<polygon fill="black" stroke="black" points="889,-61 889,-77 889,-77 889,-61 889,-61"/>
<polygon fill="black" stroke="black" points="944,-61 944,-77 944,-77 944,-61 944,-61"/>
</a>
</g>
</g>
<!-- hr_movement&#45;&gt;hr_concept -->
<g id="edge4" class="edge">
<title>hr_movement:w&#45;&gt;hr_concept:e</title>
<path fill="none" stroke="black" d="M801.33,-457.65C790.91,-455.62 784.18,-452 769,-452"/>
<polygon fill="black" stroke="black" points="808.03,-458.27 815.67,-462.58 812.02,-458.63 816,-459 816,-459 816,-459 812.02,-458.63 816.33,-455.42 808.03,-458.27 808.03,-458.27"/>
<ellipse fill="none" stroke="black" cx="804.85" cy="-457.97" rx="3.2" ry="3.2"/>
</g>
<!-- hr_movement&#45;&gt;hr_concept_category -->
<g id="edge3" class="edge">
<title>hr_movement:w&#45;&gt;hr_concept_category:e</title>
<path fill="none" stroke="black" d="M801.31,-525.09C702.85,-526.25 671.19,-538.5 568,-518 548.41,-514.11 545.98,-502 526,-502"/>
<polygon fill="black" stroke="black" points="808,-525.05 816.02,-528.6 812,-525.02 816,-525 816,-525 816,-525 812,-525.02 815.98,-521.4 808,-525.05 808,-525.05"/>
<ellipse fill="none" stroke="black" cx="804.8" cy="-525.07" rx="3.2" ry="3.2"/>
</g>
</g>
</svg>
