<?xml version="1.0" encoding="UTF-8" standalone="no"?>
<!DOCTYPE svg PUBLIC "-//W3C//DTD SVG 1.1//EN"
 "http://www.w3.org/Graphics/SVG/1.1/DTD/svg11.dtd">
<!-- Generated by graphviz version 2.43.0 (0)
 -->
<!-- Title: oneDegreeRelationshipsDiagram Pages: 1 -->
<svg width="390pt" height="421pt"
 viewBox="0.00 0.00 390.00 421.00" xmlns="http://www.w3.org/2000/svg" xmlns:xlink="http://www.w3.org/1999/xlink">
<g id="graph0" class="graph" transform="scale(1 1) rotate(0) translate(4 417)">
<title>oneDegreeRelationshipsDiagram</title>
<polygon fill="#ffffff" stroke="transparent" points="-4,4 -4,-417 386,-417 386,4 -4,4"/>
<text text-anchor="middle" x="71.5" y="-7.2" font-family="Helvetica,sans-Serif" font-size="11.00">Generated by SchemaSpy</text>
<!-- k_topic -->
<g id="node1" class="node">
<title>k_topic</title>
<g id="a_node1"><a xlink:href="../../tables/k_topic.html" xlink:title="k_topic" target="_top">
<polygon fill="#ffffff" stroke="transparent" points="259,-285 259,-409 374,-409 374,-285 259,-285"/>
<polygon fill="#f5f5f5" stroke="transparent" points="259.5,-387 259.5,-409 374.5,-409 374.5,-387 259.5,-387"/>
<polygon fill="none" stroke="black" points="259.5,-387 259.5,-409 374.5,-409 374.5,-387 259.5,-387"/>
<text text-anchor="start" x="264.5" y="-396.2" font-family="Helvetica,sans-Serif" font-weight="bold" font-size="11.00">k_topic</text>
<text text-anchor="start" x="339.5" y="-395.2" font-family="Helvetica,sans-Serif" font-size="11.00">[table]</text>
<polygon fill="none" stroke="black" points="259.5,-365 259.5,-387 374.5,-387 374.5,-365 259.5,-365"/>
<image xlink:href="../../images/primaryKeys.png" width="11px" height="12px" preserveAspectRatio="xMinYMin meet" x="264.5" y="-382"/>
<text text-anchor="start" x="279.5" y="-373.2" font-family="Helvetica,sans-Serif" font-size="11.00">k_topic_id</text>
<polygon fill="none" stroke="black" points="259.5,-343 259.5,-365 374.5,-365 374.5,-343 259.5,-343"/>
<image xlink:href="../../images/foreignKeys.png" width="11px" height="12px" preserveAspectRatio="xMinYMin meet" x="264.5" y="-360"/>
<text text-anchor="start" x="279.5" y="-351.2" font-family="Helvetica,sans-Serif" font-size="11.00">k_type_id</text>
<polygon fill="#ffffff" stroke="transparent" points="259.5,-321 259.5,-343 374.5,-343 374.5,-321 259.5,-321"/>
<polygon fill="none" stroke="black" points="259.5,-321 259.5,-343 374.5,-343 374.5,-321 259.5,-321"/>
<text text-anchor="start" x="279.5" y="-329.2" font-family="Helvetica,sans-Serif" font-size="11.00">k_topic_uu</text>
<polygon fill="none" stroke="black" points="259.5,-303 259.5,-321 374.5,-321 374.5,-303 259.5,-303"/>
<text text-anchor="start" x="262.5" y="-309.2" font-family="Helvetica,sans-Serif" font-size="11.00">...</text>
<polygon fill="#ffffff" stroke="transparent" points="259.5,-285 259.5,-303 374.5,-303 374.5,-285 259.5,-285"/>
<polygon fill="none" stroke="black" points="259.5,-285 259.5,-303 374.5,-303 374.5,-285 259.5,-285"/>
<polygon fill="#ffffff" stroke="transparent" points="260.5,-286 260.5,-302 301.5,-302 301.5,-286 260.5,-286"/>
<text text-anchor="start" x="262.5" y="-291.2" font-family="Helvetica,sans-Serif" font-size="11.00">&lt; 1</text>
<polygon fill="#ffffff" stroke="transparent" points="301.5,-286 301.5,-302 333.5,-302 333.5,-286 301.5,-286"/>
<text text-anchor="start" x="314" y="-291.2" font-family="Helvetica,sans-Serif" font-size="11.00"> &#160;</text>
<polygon fill="#ffffff" stroke="transparent" points="333.5,-286 333.5,-302 373.5,-302 373.5,-286 333.5,-286"/>
<text text-anchor="start" x="355.5" y="-291.2" font-family="Helvetica,sans-Serif" font-size="11.00">1 &gt;</text>
<polygon fill="black" stroke="black" points="301.5,-286 301.5,-302 301.5,-302 301.5,-286 301.5,-286"/>
<polygon fill="black" stroke="black" points="333.5,-286 333.5,-302 333.5,-302 333.5,-286 333.5,-286"/>
</a>
</g>
</g>
<!-- k_type -->
<g id="node2" class="node">
<title>k_type</title>
<g id="a_node2"><a xlink:href="../../tables/k_type.html" xlink:title="k_type" target="_top">
<polygon fill="#ffffff" stroke="transparent" points="8,-37 8,-389 210,-389 210,-37 8,-37"/>
<polygon fill="#f5f5f5" stroke="transparent" points="10,-365 10,-387 208,-387 208,-365 10,-365"/>
<polygon fill="none" stroke="black" points="10,-365 10,-387 208,-387 208,-365 10,-365"/>
<text text-anchor="start" x="15" y="-374.2" font-family="Helvetica,sans-Serif" font-weight="bold" font-size="11.00">k_type</text>
<text text-anchor="start" x="173" y="-373.2" font-family="Helvetica,sans-Serif" font-size="11.00">[table]</text>
<polygon fill="none" stroke="black" points="10,-343 10,-365 125,-365 125,-343 10,-343"/>
<image xlink:href="../../images/primaryKeys.png" width="11px" height="12px" preserveAspectRatio="xMinYMin meet" x="15" y="-360"/>
<text text-anchor="start" x="30" y="-351.2" font-family="Helvetica,sans-Serif" font-size="11.00">k_type_id</text>
<polygon fill="none" stroke="black" points="125,-343 125,-365 208,-365 208,-343 125,-343"/>
<text text-anchor="start" x="128" y="-351.2" font-family="Helvetica,sans-Serif" font-size="11.00">numeric[10]</text>
<polygon fill="none" stroke="black" points="10,-321 10,-343 125,-343 125,-321 10,-321"/>
<text text-anchor="start" x="30" y="-329.2" font-family="Helvetica,sans-Serif" font-size="11.00">ad_client_id</text>
<polygon fill="none" stroke="black" points="125,-321 125,-343 208,-343 208,-321 125,-321"/>
<text text-anchor="start" x="128" y="-329.2" font-family="Helvetica,sans-Serif" font-size="11.00">numeric[10]</text>
<polygon fill="none" stroke="black" points="10,-299 10,-321 125,-321 125,-299 10,-299"/>
<text text-anchor="start" x="30" y="-307.2" font-family="Helvetica,sans-Serif" font-size="11.00">ad_org_id</text>
<polygon fill="none" stroke="black" points="125,-299 125,-321 208,-321 208,-299 125,-299"/>
<text text-anchor="start" x="128" y="-307.2" font-family="Helvetica,sans-Serif" font-size="11.00">numeric[10]</text>
<polygon fill="none" stroke="black" points="10,-277 10,-299 125,-299 125,-277 10,-277"/>
<text text-anchor="start" x="30" y="-285.2" font-family="Helvetica,sans-Serif" font-size="11.00">isactive</text>
<polygon fill="none" stroke="black" points="125,-277 125,-299 208,-299 208,-277 125,-277"/>
<text text-anchor="start" x="128" y="-285.2" font-family="Helvetica,sans-Serif" font-size="11.00">bpchar[1]</text>
<polygon fill="none" stroke="black" points="10,-255 10,-277 125,-277 125,-255 10,-255"/>
<text text-anchor="start" x="30" y="-263.2" font-family="Helvetica,sans-Serif" font-size="11.00">created</text>
<polygon fill="none" stroke="black" points="125,-255 125,-277 208,-277 208,-255 125,-255"/>
<text text-anchor="start" x="128" y="-263.2" font-family="Helvetica,sans-Serif" font-size="11.00">timestamp[29,6]</text>
<polygon fill="none" stroke="black" points="10,-233 10,-255 125,-255 125,-233 10,-233"/>
<text text-anchor="start" x="30" y="-241.2" font-family="Helvetica,sans-Serif" font-size="11.00">createdby</text>
<polygon fill="none" stroke="black" points="125,-233 125,-255 208,-255 208,-233 125,-233"/>
<text text-anchor="start" x="128" y="-241.2" font-family="Helvetica,sans-Serif" font-size="11.00">numeric[10]</text>
<polygon fill="none" stroke="black" points="10,-211 10,-233 125,-233 125,-211 10,-211"/>
<text text-anchor="start" x="30" y="-219.2" font-family="Helvetica,sans-Serif" font-size="11.00">updated</text>
<polygon fill="none" stroke="black" points="125,-211 125,-233 208,-233 208,-211 125,-211"/>
<text text-anchor="start" x="128" y="-219.2" font-family="Helvetica,sans-Serif" font-size="11.00">timestamp[29,6]</text>
<polygon fill="none" stroke="black" points="10,-189 10,-211 125,-211 125,-189 10,-189"/>
<text text-anchor="start" x="30" y="-197.2" font-family="Helvetica,sans-Serif" font-size="11.00">updatedby</text>
<polygon fill="none" stroke="black" points="125,-189 125,-211 208,-211 208,-189 125,-189"/>
<text text-anchor="start" x="128" y="-197.2" font-family="Helvetica,sans-Serif" font-size="11.00">numeric[10]</text>
<polygon fill="none" stroke="black" points="10,-167 10,-189 125,-189 125,-167 10,-167"/>
<text text-anchor="start" x="30" y="-175.2" font-family="Helvetica,sans-Serif" font-size="11.00">name</text>
<polygon fill="none" stroke="black" points="125,-167 125,-189 208,-189 208,-167 125,-167"/>
<text text-anchor="start" x="128" y="-175.2" font-family="Helvetica,sans-Serif" font-size="11.00">varchar[60]</text>
<polygon fill="none" stroke="black" points="10,-145 10,-167 125,-167 125,-145 10,-145"/>
<text text-anchor="start" x="30" y="-153.2" font-family="Helvetica,sans-Serif" font-size="11.00">description</text>
<polygon fill="none" stroke="black" points="125,-145 125,-167 208,-167 208,-145 125,-145"/>
<text text-anchor="start" x="128" y="-153.2" font-family="Helvetica,sans-Serif" font-size="11.00">varchar[255]</text>
<polygon fill="none" stroke="black" points="10,-123 10,-145 125,-145 125,-123 10,-123"/>
<text text-anchor="start" x="30" y="-131.2" font-family="Helvetica,sans-Serif" font-size="11.00">help</text>
<polygon fill="none" stroke="black" points="125,-123 125,-145 208,-145 208,-123 125,-123"/>
<text text-anchor="start" x="128" y="-131.2" font-family="Helvetica,sans-Serif" font-size="11.00">varchar[2000]</text>
<polygon fill="none" stroke="black" points="10,-101 10,-123 125,-123 125,-101 10,-101"/>
<text text-anchor="start" x="30" y="-109.2" font-family="Helvetica,sans-Serif" font-size="11.00">ispublic</text>
<polygon fill="none" stroke="black" points="125,-101 125,-123 208,-123 208,-101 125,-101"/>
<text text-anchor="start" x="128" y="-109.2" font-family="Helvetica,sans-Serif" font-size="11.00">bpchar[1]</text>
<polygon fill="none" stroke="black" points="10,-79 10,-101 125,-101 125,-79 10,-79"/>
<text text-anchor="start" x="30" y="-87.2" font-family="Helvetica,sans-Serif" font-size="11.00">ispublicwrite</text>
<polygon fill="none" stroke="black" points="125,-79 125,-101 208,-101 208,-79 125,-79"/>
<text text-anchor="start" x="128" y="-87.2" font-family="Helvetica,sans-Serif" font-size="11.00">bpchar[1]</text>
<polygon fill="#ffffff" stroke="transparent" points="10,-57 10,-79 125,-79 125,-57 10,-57"/>
<polygon fill="none" stroke="black" points="10,-57 10,-79 125,-79 125,-57 10,-57"/>
<text text-anchor="start" x="30" y="-65.2" font-family="Helvetica,sans-Serif" font-size="11.00">k_type_uu</text>
<polygon fill="none" stroke="black" points="125,-57 125,-79 208,-79 208,-57 125,-57"/>
<text text-anchor="start" x="128" y="-65.2" font-family="Helvetica,sans-Serif" font-size="11.00">varchar[36]</text>
<polygon fill="#ffffff" stroke="transparent" points="10,-39 10,-57 208,-57 208,-39 10,-39"/>
<polygon fill="none" stroke="black" points="10,-39 10,-57 208,-57 208,-39 10,-39"/>
<polygon fill="#ffffff" stroke="transparent" points="11,-40 11,-56 80,-56 80,-40 11,-40"/>
<text text-anchor="start" x="13" y="-45.2" font-family="Helvetica,sans-Serif" font-size="11.00">&lt; 0</text>
<polygon fill="#ffffff" stroke="transparent" points="80,-40 80,-56 139,-56 139,-40 80,-40"/>
<text text-anchor="start" x="106" y="-45.2" font-family="Helvetica,sans-Serif" font-size="11.00"> &#160;</text>
<polygon fill="#ffffff" stroke="transparent" points="139,-40 139,-56 207,-56 207,-40 139,-40"/>
<text text-anchor="start" x="189" y="-45.2" font-family="Helvetica,sans-Serif" font-size="11.00">1 &gt;</text>
<polygon fill="black" stroke="black" points="80,-40 80,-56 80,-56 80,-40 80,-40"/>
<polygon fill="black" stroke="black" points="139,-40 139,-56 139,-56 139,-40 139,-40"/>
<polygon fill="none" stroke="black" stroke-width="2" points="9,-38 9,-388 209,-388 209,-38 9,-38"/>
</a>
</g>
</g>
<!-- k_topic&#45;&gt;k_type -->
<g id="edge1" class="edge">
<title>k_topic:w&#45;&gt;k_type:e</title>
<path fill="none" stroke="black" d="M243.84,-354C232.41,-354 225.16,-354 209,-354"/>
<polygon fill="black" stroke="black" points="250.5,-354 258.5,-357.6 254.5,-354 258.5,-354 258.5,-354 258.5,-354 254.5,-354 258.5,-350.4 250.5,-354 250.5,-354"/>
<ellipse fill="none" stroke="black" cx="247.3" cy="-354" rx="3.2" ry="3.2"/>
</g>
</g>
</svg>
