<?xml version="1.0" encoding="UTF-8" standalone="no"?>
<!DOCTYPE svg PUBLIC "-//W3C//DTD SVG 1.1//EN"
 "http://www.w3.org/Graphics/SVG/1.1/DTD/svg11.dtd">
<!-- Generated by graphviz version 2.43.0 (0)
 -->
<!-- Title: oneDegreeRelationshipsDiagram Pages: 1 -->
<svg width="1250pt" height="1103pt"
 viewBox="0.00 0.00 1250.00 1103.00" xmlns="http://www.w3.org/2000/svg" xmlns:xlink="http://www.w3.org/1999/xlink">
<g id="graph0" class="graph" transform="scale(1 1) rotate(0) translate(4 1099)">
<title>oneDegreeRelationshipsDiagram</title>
<polygon fill="#ffffff" stroke="transparent" points="-4,4 -4,-1099 1246,-1099 1246,4 -4,4"/>
<text text-anchor="middle" x="71.5" y="-7.2" font-family="Helvetica,sans-Serif" font-size="11.00">Generated by SchemaSpy</text>
<!-- ad_org -->
<g id="node1" class="node">
<title>ad_org</title>
<g id="a_node1"><a xlink:href="../../tables/ad_org.html" xlink:title="ad_org" target="_top">
<polygon fill="#ffffff" stroke="transparent" points="302,-776 302,-966 508,-966 508,-776 302,-776"/>
<polygon fill="#f5f5f5" stroke="transparent" points="302,-944 302,-966 508,-966 508,-944 302,-944"/>
<polygon fill="none" stroke="black" points="302,-944 302,-966 508,-966 508,-944 302,-944"/>
<text text-anchor="start" x="307" y="-953.2" font-family="Helvetica,sans-Serif" font-weight="bold" font-size="11.00">ad_org</text>
<text text-anchor="start" x="473" y="-952.2" font-family="Helvetica,sans-Serif" font-size="11.00">[table]</text>
<polygon fill="none" stroke="black" points="302,-922 302,-944 508,-944 508,-922 302,-922"/>
<image xlink:href="../../images/primaryKeys.png" width="11px" height="12px" preserveAspectRatio="xMinYMin meet" x="307" y="-939"/>
<text text-anchor="start" x="322" y="-930.2" font-family="Helvetica,sans-Serif" font-size="11.00">ad_org_id</text>
<polygon fill="#ffffff" stroke="transparent" points="302,-900 302,-922 508,-922 508,-900 302,-900"/>
<polygon fill="none" stroke="black" points="302,-900 302,-922 508,-922 508,-900 302,-900"/>
<image xlink:href="../../images/foreignKeys.png" width="11px" height="12px" preserveAspectRatio="xMinYMin meet" x="307" y="-917"/>
<text text-anchor="start" x="322" y="-908.2" font-family="Helvetica,sans-Serif" font-size="11.00">ad_client_id</text>
<polygon fill="#ffffff" stroke="transparent" points="302,-878 302,-900 508,-900 508,-878 302,-878"/>
<polygon fill="none" stroke="black" points="302,-878 302,-900 508,-900 508,-878 302,-878"/>
<text text-anchor="start" x="322" y="-886.2" font-family="Helvetica,sans-Serif" font-size="11.00">value</text>
<polygon fill="none" stroke="black" points="302,-856 302,-878 508,-878 508,-856 302,-856"/>
<image xlink:href="../../images/foreignKeys.png" width="11px" height="12px" preserveAspectRatio="xMinYMin meet" x="307" y="-873"/>
<text text-anchor="start" x="322" y="-864.2" font-family="Helvetica,sans-Serif" font-size="11.00">ad_replicationstrategy_id</text>
<polygon fill="#ffffff" stroke="transparent" points="302,-834 302,-856 508,-856 508,-834 302,-834"/>
<polygon fill="none" stroke="black" points="302,-834 302,-856 508,-856 508,-834 302,-834"/>
<text text-anchor="start" x="322" y="-842.2" font-family="Helvetica,sans-Serif" font-size="11.00">ad_org_uu</text>
<polygon fill="none" stroke="black" points="302,-812 302,-834 508,-834 508,-812 302,-812"/>
<image xlink:href="../../images/foreignKeys.png" width="11px" height="12px" preserveAspectRatio="xMinYMin meet" x="307" y="-829"/>
<text text-anchor="start" x="322" y="-820.2" font-family="Helvetica,sans-Serif" font-size="11.00">cof_c_snrange_id</text>
<polygon fill="none" stroke="black" points="302,-794 302,-812 508,-812 508,-794 302,-794"/>
<text text-anchor="start" x="305" y="-800.2" font-family="Helvetica,sans-Serif" font-size="11.00">...</text>
<polygon fill="#ffffff" stroke="transparent" points="302,-776 302,-794 508,-794 508,-776 302,-776"/>
<polygon fill="none" stroke="black" points="302,-776 302,-794 508,-794 508,-776 302,-776"/>
<polygon fill="#ffffff" stroke="transparent" points="303,-777 303,-793 362,-793 362,-777 303,-777"/>
<text text-anchor="start" x="305" y="-782.2" font-family="Helvetica,sans-Serif" font-size="11.00">&lt; 3</text>
<polygon fill="#ffffff" stroke="transparent" points="362,-777 362,-793 437,-793 437,-777 362,-777"/>
<text text-anchor="start" x="383" y="-782.2" font-family="Helvetica,sans-Serif" font-size="11.00">3 rows</text>
<polygon fill="#ffffff" stroke="transparent" points="437,-777 437,-793 507,-793 507,-777 437,-777"/>
<text text-anchor="start" x="477" y="-782.2" font-family="Helvetica,sans-Serif" font-size="11.00">298 &gt;</text>
<polygon fill="black" stroke="black" points="362,-777 362,-793 362,-793 362,-777 362,-777"/>
<polygon fill="black" stroke="black" points="437,-777 437,-793 437,-793 437,-777 437,-777"/>
</a>
</g>
</g>
<!-- ad_client -->
<g id="node2" class="node">
<title>ad_client</title>
<g id="a_node2"><a xlink:href="../../tables/ad_client.html" xlink:title="ad_client" target="_top">
<polygon fill="#ffffff" stroke="transparent" points="8,-811 8,-1023 253,-1023 253,-811 8,-811"/>
<polygon fill="#f5f5f5" stroke="transparent" points="8.5,-1001 8.5,-1023 253.5,-1023 253.5,-1001 8.5,-1001"/>
<polygon fill="none" stroke="black" points="8.5,-1001 8.5,-1023 253.5,-1023 253.5,-1001 8.5,-1001"/>
<text text-anchor="start" x="13.5" y="-1010.2" font-family="Helvetica,sans-Serif" font-weight="bold" font-size="11.00">ad_client</text>
<text text-anchor="start" x="218.5" y="-1009.2" font-family="Helvetica,sans-Serif" font-size="11.00">[table]</text>
<polygon fill="none" stroke="black" points="8.5,-979 8.5,-1001 253.5,-1001 253.5,-979 8.5,-979"/>
<image xlink:href="../../images/primaryKeys.png" width="11px" height="12px" preserveAspectRatio="xMinYMin meet" x="13.5" y="-996"/>
<text text-anchor="start" x="28.5" y="-987.2" font-family="Helvetica,sans-Serif" font-size="11.00">ad_client_id</text>
<polygon fill="#ffffff" stroke="transparent" points="8.5,-957 8.5,-979 253.5,-979 253.5,-957 8.5,-957"/>
<polygon fill="none" stroke="black" points="8.5,-957 8.5,-979 253.5,-979 253.5,-957 8.5,-957"/>
<text text-anchor="start" x="28.5" y="-965.2" font-family="Helvetica,sans-Serif" font-size="11.00">value</text>
<polygon fill="none" stroke="black" points="8.5,-935 8.5,-957 253.5,-957 253.5,-935 8.5,-935"/>
<image xlink:href="../../images/foreignKeys.png" width="11px" height="12px" preserveAspectRatio="xMinYMin meet" x="13.5" y="-952"/>
<text text-anchor="start" x="28.5" y="-943.2" font-family="Helvetica,sans-Serif" font-size="11.00">ad_language</text>
<polygon fill="none" stroke="black" points="8.5,-913 8.5,-935 253.5,-935 253.5,-913 8.5,-913"/>
<image xlink:href="../../images/foreignKeys.png" width="11px" height="12px" preserveAspectRatio="xMinYMin meet" x="13.5" y="-930"/>
<text text-anchor="start" x="28.5" y="-921.2" font-family="Helvetica,sans-Serif" font-size="11.00">ad_replicationstrategy_id</text>
<polygon fill="#ffffff" stroke="transparent" points="8.5,-891 8.5,-913 253.5,-913 253.5,-891 8.5,-891"/>
<polygon fill="none" stroke="black" points="8.5,-891 8.5,-913 253.5,-913 253.5,-891 8.5,-891"/>
<text text-anchor="start" x="28.5" y="-899.2" font-family="Helvetica,sans-Serif" font-size="11.00">ad_client_uu</text>
<polygon fill="none" stroke="black" points="8.5,-869 8.5,-891 253.5,-891 253.5,-869 8.5,-869"/>
<image xlink:href="../../images/foreignKeys.png" width="11px" height="12px" preserveAspectRatio="xMinYMin meet" x="13.5" y="-886"/>
<text text-anchor="start" x="28.5" y="-877.2" font-family="Helvetica,sans-Serif" font-size="11.00">ad_passwordrule_id</text>
<polygon fill="#ffffff" stroke="transparent" points="8.5,-847 8.5,-869 253.5,-869 253.5,-847 8.5,-847"/>
<polygon fill="none" stroke="black" points="8.5,-847 8.5,-869 253.5,-869 253.5,-847 8.5,-847"/>
<text text-anchor="start" x="28.5" y="-855.2" font-family="Helvetica,sans-Serif" font-size="11.00">loginprefix</text>
<polygon fill="none" stroke="black" points="8.5,-829 8.5,-847 253.5,-847 253.5,-829 8.5,-829"/>
<text text-anchor="start" x="11.5" y="-835.2" font-family="Helvetica,sans-Serif" font-size="11.00">...</text>
<polygon fill="#ffffff" stroke="transparent" points="8.5,-811 8.5,-829 253.5,-829 253.5,-811 8.5,-811"/>
<polygon fill="none" stroke="black" points="8.5,-811 8.5,-829 253.5,-829 253.5,-811 8.5,-811"/>
<polygon fill="#ffffff" stroke="transparent" points="9.5,-812 9.5,-828 81.5,-828 81.5,-812 9.5,-812"/>
<text text-anchor="start" x="11.5" y="-817.2" font-family="Helvetica,sans-Serif" font-size="11.00">&lt; 3</text>
<polygon fill="#ffffff" stroke="transparent" points="81.5,-812 81.5,-828 169.5,-828 169.5,-812 81.5,-812"/>
<text text-anchor="start" x="109" y="-817.2" font-family="Helvetica,sans-Serif" font-size="11.00">2 rows</text>
<polygon fill="#ffffff" stroke="transparent" points="169.5,-812 169.5,-828 252.5,-828 252.5,-812 169.5,-812"/>
<text text-anchor="start" x="222.5" y="-817.2" font-family="Helvetica,sans-Serif" font-size="11.00">217 &gt;</text>
<polygon fill="black" stroke="black" points="81.5,-812 81.5,-828 81.5,-828 81.5,-812 81.5,-812"/>
<polygon fill="black" stroke="black" points="169.5,-812 169.5,-828 169.5,-828 169.5,-812 169.5,-812"/>
</a>
</g>
</g>
<!-- ad_org&#45;&gt;ad_client -->
<g id="edge1" class="edge">
<title>ad_org:w&#45;&gt;ad_client:e</title>
<path fill="none" stroke="black" d="M287.37,-915.71C268.98,-932.71 289.19,-990 254.5,-990"/>
<polygon fill="black" stroke="black" points="293.44,-913.61 302.17,-914.4 297.22,-912.31 301,-911 301,-911 301,-911 297.22,-912.31 299.83,-907.6 293.44,-913.61 293.44,-913.61"/>
<ellipse fill="none" stroke="black" cx="290.41" cy="-914.65" rx="3.2" ry="3.2"/>
</g>
<!-- ad_user -->
<g id="node3" class="node">
<title>ad_user</title>
<g id="a_node3"><a xlink:href="../../tables/ad_user.html" xlink:title="ad_user" target="_top">
<polygon fill="#ffffff" stroke="transparent" points="593,-446 593,-1010 833,-1010 833,-446 593,-446"/>
<polygon fill="#f5f5f5" stroke="transparent" points="593,-988 593,-1010 833,-1010 833,-988 593,-988"/>
<polygon fill="none" stroke="black" points="593,-988 593,-1010 833,-1010 833,-988 593,-988"/>
<text text-anchor="start" x="598" y="-997.2" font-family="Helvetica,sans-Serif" font-weight="bold" font-size="11.00">ad_user</text>
<text text-anchor="start" x="798" y="-996.2" font-family="Helvetica,sans-Serif" font-size="11.00">[table]</text>
<polygon fill="none" stroke="black" points="593,-966 593,-988 833,-988 833,-966 593,-966"/>
<image xlink:href="../../images/primaryKeys.png" width="11px" height="12px" preserveAspectRatio="xMinYMin meet" x="598" y="-983"/>
<text text-anchor="start" x="613" y="-974.2" font-family="Helvetica,sans-Serif" font-size="11.00">ad_user_id</text>
<polygon fill="none" stroke="black" points="593,-944 593,-966 833,-966 833,-944 593,-944"/>
<image xlink:href="../../images/foreignKeys.png" width="11px" height="12px" preserveAspectRatio="xMinYMin meet" x="598" y="-961"/>
<text text-anchor="start" x="613" y="-952.2" font-family="Helvetica,sans-Serif" font-size="11.00">ad_client_id</text>
<polygon fill="none" stroke="black" points="593,-922 593,-944 833,-944 833,-922 593,-922"/>
<image xlink:href="../../images/foreignKeys.png" width="11px" height="12px" preserveAspectRatio="xMinYMin meet" x="598" y="-939"/>
<text text-anchor="start" x="613" y="-930.2" font-family="Helvetica,sans-Serif" font-size="11.00">ad_org_id</text>
<polygon fill="#ffffff" stroke="transparent" points="593,-900 593,-922 833,-922 833,-900 593,-900"/>
<polygon fill="none" stroke="black" points="593,-900 593,-922 833,-922 833,-900 593,-900"/>
<text text-anchor="start" x="613" y="-908.2" font-family="Helvetica,sans-Serif" font-size="11.00">name</text>
<polygon fill="#ffffff" stroke="transparent" points="593,-878 593,-900 833,-900 833,-878 593,-878"/>
<polygon fill="none" stroke="black" points="593,-878 593,-900 833,-900 833,-878 593,-878"/>
<text text-anchor="start" x="613" y="-886.2" font-family="Helvetica,sans-Serif" font-size="11.00">email</text>
<polygon fill="none" stroke="black" points="593,-856 593,-878 833,-878 833,-856 593,-856"/>
<image xlink:href="../../images/foreignKeys.png" width="11px" height="12px" preserveAspectRatio="xMinYMin meet" x="598" y="-873"/>
<text text-anchor="start" x="613" y="-864.2" font-family="Helvetica,sans-Serif" font-size="11.00">supervisor_id</text>
<polygon fill="#ffffff" stroke="transparent" points="593,-834 593,-856 833,-856 833,-834 593,-834"/>
<polygon fill="none" stroke="black" points="593,-834 593,-856 833,-856 833,-834 593,-834"/>
<image xlink:href="../../images/foreignKeys.png" width="11px" height="12px" preserveAspectRatio="xMinYMin meet" x="598" y="-851"/>
<text text-anchor="start" x="613" y="-842.2" font-family="Helvetica,sans-Serif" font-size="11.00">c_bpartner_id</text>
<polygon fill="none" stroke="black" points="593,-812 593,-834 833,-834 833,-812 593,-812"/>
<image xlink:href="../../images/foreignKeys.png" width="11px" height="12px" preserveAspectRatio="xMinYMin meet" x="598" y="-829"/>
<text text-anchor="start" x="613" y="-820.2" font-family="Helvetica,sans-Serif" font-size="11.00">c_bpartner_location_id</text>
<polygon fill="none" stroke="black" points="593,-790 593,-812 833,-812 833,-790 593,-790"/>
<image xlink:href="../../images/foreignKeys.png" width="11px" height="12px" preserveAspectRatio="xMinYMin meet" x="598" y="-807"/>
<text text-anchor="start" x="613" y="-798.2" font-family="Helvetica,sans-Serif" font-size="11.00">c_greeting_id</text>
<polygon fill="none" stroke="black" points="593,-768 593,-790 833,-790 833,-768 593,-768"/>
<image xlink:href="../../images/foreignKeys.png" width="11px" height="12px" preserveAspectRatio="xMinYMin meet" x="598" y="-785"/>
<text text-anchor="start" x="613" y="-776.2" font-family="Helvetica,sans-Serif" font-size="11.00">ad_orgtrx_id</text>
<polygon fill="none" stroke="black" points="593,-746 593,-768 833,-768 833,-746 593,-746"/>
<image xlink:href="../../images/foreignKeys.png" width="11px" height="12px" preserveAspectRatio="xMinYMin meet" x="598" y="-763"/>
<text text-anchor="start" x="613" y="-754.2" font-family="Helvetica,sans-Serif" font-size="11.00">c_job_id</text>
<polygon fill="#ffffff" stroke="transparent" points="593,-724 593,-746 833,-746 833,-724 593,-724"/>
<polygon fill="none" stroke="black" points="593,-724 593,-746 833,-746 833,-724 593,-724"/>
<text text-anchor="start" x="613" y="-732.2" font-family="Helvetica,sans-Serif" font-size="11.00">ad_user_uu</text>
<polygon fill="none" stroke="black" points="593,-702 593,-724 833,-724 833,-702 593,-702"/>
<image xlink:href="../../images/foreignKeys.png" width="11px" height="12px" preserveAspectRatio="xMinYMin meet" x="598" y="-719"/>
<text text-anchor="start" x="613" y="-710.2" font-family="Helvetica,sans-Serif" font-size="11.00">c_location_id</text>
<polygon fill="none" stroke="black" points="593,-680 593,-702 833,-702 833,-680 593,-680"/>
<image xlink:href="../../images/foreignKeys.png" width="11px" height="12px" preserveAspectRatio="xMinYMin meet" x="598" y="-697"/>
<text text-anchor="start" x="613" y="-688.2" font-family="Helvetica,sans-Serif" font-size="11.00">c_campaign_id</text>
<polygon fill="none" stroke="black" points="593,-658 593,-680 833,-680 833,-658 593,-658"/>
<image xlink:href="../../images/foreignKeys.png" width="11px" height="12px" preserveAspectRatio="xMinYMin meet" x="598" y="-675"/>
<text text-anchor="start" x="613" y="-666.2" font-family="Helvetica,sans-Serif" font-size="11.00">salesrep_id</text>
<polygon fill="none" stroke="black" points="593,-636 593,-658 833,-658 833,-636 593,-636"/>
<image xlink:href="../../images/foreignKeys.png" width="11px" height="12px" preserveAspectRatio="xMinYMin meet" x="598" y="-653"/>
<text text-anchor="start" x="613" y="-644.2" font-family="Helvetica,sans-Serif" font-size="11.00">bp_location_id</text>
<polygon fill="none" stroke="black" points="593,-614 593,-636 833,-636 833,-614 593,-614"/>
<image xlink:href="../../images/foreignKeys.png" width="11px" height="12px" preserveAspectRatio="xMinYMin meet" x="598" y="-631"/>
<text text-anchor="start" x="613" y="-622.2" font-family="Helvetica,sans-Serif" font-size="11.00">r_defaultmailtext_id</text>
<polygon fill="none" stroke="black" points="593,-592 593,-614 833,-614 833,-592 593,-592"/>
<image xlink:href="../../images/foreignKeys.png" width="11px" height="12px" preserveAspectRatio="xMinYMin meet" x="598" y="-609"/>
<text text-anchor="start" x="613" y="-600.2" font-family="Helvetica,sans-Serif" font-size="11.00">cof_c_marketsegment_id</text>
<polygon fill="none" stroke="black" points="593,-570 593,-592 833,-592 833,-570 593,-570"/>
<image xlink:href="../../images/foreignKeys.png" width="11px" height="12px" preserveAspectRatio="xMinYMin meet" x="598" y="-587"/>
<text text-anchor="start" x="613" y="-578.2" font-family="Helvetica,sans-Serif" font-size="11.00">cof_c_leadexpirationreason_id</text>
<polygon fill="none" stroke="black" points="593,-548 593,-570 833,-570 833,-548 593,-548"/>
<image xlink:href="../../images/foreignKeys.png" width="11px" height="12px" preserveAspectRatio="xMinYMin meet" x="598" y="-565"/>
<text text-anchor="start" x="613" y="-556.2" font-family="Helvetica,sans-Serif" font-size="11.00">ad_image_id</text>
<polygon fill="none" stroke="black" points="593,-526 593,-548 833,-548 833,-526 593,-526"/>
<image xlink:href="../../images/foreignKeys.png" width="11px" height="12px" preserveAspectRatio="xMinYMin meet" x="598" y="-543"/>
<text text-anchor="start" x="613" y="-534.2" font-family="Helvetica,sans-Serif" font-size="11.00">c_subscription_id</text>
<polygon fill="none" stroke="black" points="593,-504 593,-526 833,-526 833,-504 593,-504"/>
<image xlink:href="../../images/foreignKeys.png" width="11px" height="12px" preserveAspectRatio="xMinYMin meet" x="598" y="-521"/>
<text text-anchor="start" x="613" y="-512.2" font-family="Helvetica,sans-Serif" font-size="11.00">cof_responsavelindicacao_id</text>
<polygon fill="none" stroke="black" points="593,-482 593,-504 833,-504 833,-482 593,-482"/>
<image xlink:href="../../images/foreignKeys.png" width="11px" height="12px" preserveAspectRatio="xMinYMin meet" x="598" y="-499"/>
<text text-anchor="start" x="613" y="-490.2" font-family="Helvetica,sans-Serif" font-size="11.00">cof_respatribuicao_id</text>
<polygon fill="none" stroke="black" points="593,-464 593,-482 833,-482 833,-464 593,-464"/>
<text text-anchor="start" x="596" y="-470.2" font-family="Helvetica,sans-Serif" font-size="11.00">...</text>
<polygon fill="#ffffff" stroke="transparent" points="593,-446 593,-464 833,-464 833,-446 593,-446"/>
<polygon fill="none" stroke="black" points="593,-446 593,-464 833,-464 833,-446 593,-446"/>
<polygon fill="#ffffff" stroke="transparent" points="594,-447 594,-463 668,-463 668,-447 594,-447"/>
<text text-anchor="start" x="596" y="-452.2" font-family="Helvetica,sans-Serif" font-size="11.00">&lt; 19</text>
<polygon fill="#ffffff" stroke="transparent" points="668,-447 668,-463 753,-463 753,-447 668,-447"/>
<text text-anchor="start" x="694" y="-452.2" font-family="Helvetica,sans-Serif" font-size="11.00">8 rows</text>
<polygon fill="#ffffff" stroke="transparent" points="753,-447 753,-463 832,-463 832,-447 753,-447"/>
<text text-anchor="start" x="802" y="-452.2" font-family="Helvetica,sans-Serif" font-size="11.00">468 &gt;</text>
<polygon fill="black" stroke="black" points="668,-447 668,-463 668,-463 668,-447 668,-447"/>
<polygon fill="black" stroke="black" points="753,-447 753,-463 753,-463 753,-447 753,-447"/>
</a>
</g>
</g>
<!-- ad_user&#45;&gt;ad_org -->
<g id="edge3" class="edge">
<title>ad_user:w&#45;&gt;ad_org:e</title>
<path fill="none" stroke="black" d="M577.57,-933C551.87,-933 540.56,-933 509,-933"/>
<polygon fill="black" stroke="black" points="584,-933 592,-936.6 588,-933 592,-933 592,-933 592,-933 588,-933 592,-929.4 584,-933 584,-933"/>
<ellipse fill="none" stroke="black" cx="580.8" cy="-933" rx="3.2" ry="3.2"/>
</g>
<!-- ad_user&#45;&gt;ad_org -->
<g id="edge4" class="edge">
<title>ad_user:w&#45;&gt;ad_org:e</title>
<path fill="none" stroke="black" d="M577.72,-781.18C523.7,-799.89 581.29,-933 509,-933"/>
<polygon fill="black" stroke="black" points="584.09,-780.21 592.54,-782.56 588.05,-779.6 592,-779 592,-779 592,-779 588.05,-779.6 591.46,-775.44 584.09,-780.21 584.09,-780.21"/>
<ellipse fill="none" stroke="black" cx="580.93" cy="-780.69" rx="3.2" ry="3.2"/>
</g>
<!-- ad_user&#45;&gt;ad_client -->
<g id="edge2" class="edge">
<title>ad_user:w&#45;&gt;ad_client:e</title>
<path fill="none" stroke="black" d="M577.42,-956.08C554.22,-959.81 545.26,-972.11 516,-977 401.23,-996.2 370.87,-990 254.5,-990"/>
<polygon fill="black" stroke="black" points="584.02,-955.59 592.27,-958.59 588.01,-955.3 592,-955 592,-955 592,-955 588.01,-955.3 591.73,-951.41 584.02,-955.59 584.02,-955.59"/>
<ellipse fill="none" stroke="black" cx="580.83" cy="-955.83" rx="3.2" ry="3.2"/>
</g>
<!-- lbr_docfiscal_cana_deduc -->
<g id="node4" class="node">
<title>lbr_docfiscal_cana_deduc</title>
<g id="a_node4"><a xlink:href="../../tables/lbr_docfiscal_cana_deduc.html" xlink:title="lbr_docfiscal_cana_deduc" target="_top">
<polygon fill="#ffffff" stroke="transparent" points="918,-717 918,-1091 1234,-1091 1234,-717 918,-717"/>
<polygon fill="#f5f5f5" stroke="transparent" points="920,-1067 920,-1089 1232,-1089 1232,-1067 920,-1067"/>
<polygon fill="none" stroke="black" points="920,-1067 920,-1089 1232,-1089 1232,-1067 920,-1067"/>
<text text-anchor="start" x="925" y="-1076.2" font-family="Helvetica,sans-Serif" font-weight="bold" font-size="11.00">lbr_docfiscal_cana_deduc</text>
<text text-anchor="start" x="1197" y="-1075.2" font-family="Helvetica,sans-Serif" font-size="11.00">[table]</text>
<polygon fill="none" stroke="black" points="920,-1045 920,-1067 1149,-1067 1149,-1045 920,-1045"/>
<image xlink:href="../../images/foreignKeys.png" width="11px" height="12px" preserveAspectRatio="xMinYMin meet" x="925" y="-1062"/>
<text text-anchor="start" x="940" y="-1053.2" font-family="Helvetica,sans-Serif" font-size="11.00">ad_client_id</text>
<polygon fill="none" stroke="black" points="1149,-1045 1149,-1067 1232,-1067 1232,-1045 1149,-1045"/>
<text text-anchor="start" x="1152" y="-1053.2" font-family="Helvetica,sans-Serif" font-size="11.00">numeric[10]</text>
<polygon fill="none" stroke="black" points="920,-1023 920,-1045 1149,-1045 1149,-1023 920,-1023"/>
<image xlink:href="../../images/foreignKeys.png" width="11px" height="12px" preserveAspectRatio="xMinYMin meet" x="925" y="-1040"/>
<text text-anchor="start" x="940" y="-1031.2" font-family="Helvetica,sans-Serif" font-size="11.00">ad_org_id</text>
<polygon fill="none" stroke="black" points="1149,-1023 1149,-1045 1232,-1045 1232,-1023 1149,-1023"/>
<text text-anchor="start" x="1152" y="-1031.2" font-family="Helvetica,sans-Serif" font-size="11.00">numeric[10]</text>
<polygon fill="none" stroke="black" points="920,-1001 920,-1023 1149,-1023 1149,-1001 920,-1001"/>
<text text-anchor="start" x="940" y="-1009.2" font-family="Helvetica,sans-Serif" font-size="11.00">created</text>
<polygon fill="none" stroke="black" points="1149,-1001 1149,-1023 1232,-1023 1232,-1001 1149,-1001"/>
<text text-anchor="start" x="1152" y="-1009.2" font-family="Helvetica,sans-Serif" font-size="11.00">timestamp[29,6]</text>
<polygon fill="none" stroke="black" points="920,-979 920,-1001 1149,-1001 1149,-979 920,-979"/>
<image xlink:href="../../images/foreignKeys.png" width="11px" height="12px" preserveAspectRatio="xMinYMin meet" x="925" y="-996"/>
<text text-anchor="start" x="940" y="-987.2" font-family="Helvetica,sans-Serif" font-size="11.00">createdby</text>
<polygon fill="none" stroke="black" points="1149,-979 1149,-1001 1232,-1001 1232,-979 1149,-979"/>
<text text-anchor="start" x="1152" y="-987.2" font-family="Helvetica,sans-Serif" font-size="11.00">numeric[10]</text>
<polygon fill="none" stroke="black" points="920,-957 920,-979 1149,-979 1149,-957 920,-957"/>
<text text-anchor="start" x="940" y="-965.2" font-family="Helvetica,sans-Serif" font-size="11.00">isactive</text>
<polygon fill="none" stroke="black" points="1149,-957 1149,-979 1232,-979 1232,-957 1149,-957"/>
<text text-anchor="start" x="1152" y="-965.2" font-family="Helvetica,sans-Serif" font-size="11.00">bpchar[1]</text>
<polygon fill="none" stroke="black" points="920,-935 920,-957 1149,-957 1149,-935 920,-935"/>
<image xlink:href="../../images/primaryKeys.png" width="11px" height="12px" preserveAspectRatio="xMinYMin meet" x="925" y="-952"/>
<text text-anchor="start" x="940" y="-943.2" font-family="Helvetica,sans-Serif" font-size="11.00">lbr_docfiscal_cana_deduc_id</text>
<polygon fill="none" stroke="black" points="1149,-935 1149,-957 1232,-957 1232,-935 1149,-935"/>
<text text-anchor="start" x="1152" y="-943.2" font-family="Helvetica,sans-Serif" font-size="11.00">numeric[10]</text>
<polygon fill="none" stroke="black" points="920,-913 920,-935 1149,-935 1149,-913 920,-913"/>
<image xlink:href="../../images/foreignKeys.png" width="11px" height="12px" preserveAspectRatio="xMinYMin meet" x="925" y="-930"/>
<text text-anchor="start" x="940" y="-921.2" font-family="Helvetica,sans-Serif" font-size="11.00">lbr_docfiscal_id</text>
<polygon fill="none" stroke="black" points="1149,-913 1149,-935 1232,-935 1232,-913 1149,-913"/>
<text text-anchor="start" x="1152" y="-921.2" font-family="Helvetica,sans-Serif" font-size="11.00">numeric[10]</text>
<polygon fill="none" stroke="black" points="920,-891 920,-913 1149,-913 1149,-891 920,-891"/>
<text text-anchor="start" x="940" y="-899.2" font-family="Helvetica,sans-Serif" font-size="11.00">updated</text>
<polygon fill="none" stroke="black" points="1149,-891 1149,-913 1232,-913 1232,-891 1149,-891"/>
<text text-anchor="start" x="1152" y="-899.2" font-family="Helvetica,sans-Serif" font-size="11.00">timestamp[29,6]</text>
<polygon fill="none" stroke="black" points="920,-869 920,-891 1149,-891 1149,-869 920,-869"/>
<image xlink:href="../../images/foreignKeys.png" width="11px" height="12px" preserveAspectRatio="xMinYMin meet" x="925" y="-886"/>
<text text-anchor="start" x="940" y="-877.2" font-family="Helvetica,sans-Serif" font-size="11.00">updatedby</text>
<polygon fill="none" stroke="black" points="1149,-869 1149,-891 1232,-891 1232,-869 1149,-869"/>
<text text-anchor="start" x="1152" y="-877.2" font-family="Helvetica,sans-Serif" font-size="11.00">numeric[10]</text>
<polygon fill="none" stroke="black" points="920,-847 920,-869 1149,-869 1149,-847 920,-847"/>
<text text-anchor="start" x="940" y="-855.2" font-family="Helvetica,sans-Serif" font-size="11.00">cana_deduc_xded</text>
<polygon fill="none" stroke="black" points="1149,-847 1149,-869 1232,-869 1232,-847 1149,-847"/>
<text text-anchor="start" x="1152" y="-855.2" font-family="Helvetica,sans-Serif" font-size="11.00">varchar[60]</text>
<polygon fill="none" stroke="black" points="920,-825 920,-847 1149,-847 1149,-825 920,-825"/>
<text text-anchor="start" x="940" y="-833.2" font-family="Helvetica,sans-Serif" font-size="11.00">cana_deduc_vded</text>
<polygon fill="none" stroke="black" points="1149,-825 1149,-847 1232,-847 1232,-825 1149,-825"/>
<text text-anchor="start" x="1152" y="-833.2" font-family="Helvetica,sans-Serif" font-size="11.00">numeric[0]</text>
<polygon fill="none" stroke="black" points="920,-803 920,-825 1149,-825 1149,-803 920,-803"/>
<text text-anchor="start" x="940" y="-811.2" font-family="Helvetica,sans-Serif" font-size="11.00">cana_deduc_vfor</text>
<polygon fill="none" stroke="black" points="1149,-803 1149,-825 1232,-825 1232,-803 1149,-803"/>
<text text-anchor="start" x="1152" y="-811.2" font-family="Helvetica,sans-Serif" font-size="11.00">numeric[0]</text>
<polygon fill="none" stroke="black" points="920,-781 920,-803 1149,-803 1149,-781 920,-781"/>
<text text-anchor="start" x="940" y="-789.2" font-family="Helvetica,sans-Serif" font-size="11.00">cana_deduc_vtotded</text>
<polygon fill="none" stroke="black" points="1149,-781 1149,-803 1232,-803 1232,-781 1149,-781"/>
<text text-anchor="start" x="1152" y="-789.2" font-family="Helvetica,sans-Serif" font-size="11.00">numeric[0]</text>
<polygon fill="none" stroke="black" points="920,-759 920,-781 1149,-781 1149,-759 920,-759"/>
<text text-anchor="start" x="940" y="-767.2" font-family="Helvetica,sans-Serif" font-size="11.00">cana_deduc_vliqfor</text>
<polygon fill="none" stroke="black" points="1149,-759 1149,-781 1232,-781 1232,-759 1149,-759"/>
<text text-anchor="start" x="1152" y="-767.2" font-family="Helvetica,sans-Serif" font-size="11.00">numeric[0]</text>
<polygon fill="#ffffff" stroke="transparent" points="920,-737 920,-759 1149,-759 1149,-737 920,-737"/>
<polygon fill="none" stroke="black" points="920,-737 920,-759 1149,-759 1149,-737 920,-737"/>
<text text-anchor="start" x="940" y="-745.2" font-family="Helvetica,sans-Serif" font-size="11.00">lbr_docfiscal_cana_deduc_uu</text>
<polygon fill="none" stroke="black" points="1149,-737 1149,-759 1232,-759 1232,-737 1149,-737"/>
<text text-anchor="start" x="1152" y="-745.2" font-family="Helvetica,sans-Serif" font-size="11.00">varchar[36]</text>
<polygon fill="#ffffff" stroke="transparent" points="920,-719 920,-737 1232,-737 1232,-719 920,-719"/>
<polygon fill="none" stroke="black" points="920,-719 920,-737 1232,-737 1232,-719 920,-719"/>
<polygon fill="#ffffff" stroke="transparent" points="921,-720 921,-736 1028,-736 1028,-720 921,-720"/>
<text text-anchor="start" x="923" y="-725.2" font-family="Helvetica,sans-Serif" font-size="11.00">&lt; 5</text>
<polygon fill="#ffffff" stroke="transparent" points="1028,-720 1028,-736 1125,-736 1125,-720 1028,-720"/>
<text text-anchor="start" x="1073" y="-725.2" font-family="Helvetica,sans-Serif" font-size="11.00"> &#160;</text>
<polygon fill="#ffffff" stroke="transparent" points="1125,-720 1125,-736 1231,-736 1231,-720 1125,-720"/>
<text text-anchor="start" x="1213" y="-725.2" font-family="Helvetica,sans-Serif" font-size="11.00">0 &gt;</text>
<polygon fill="black" stroke="black" points="1028,-720 1028,-736 1028,-736 1028,-720 1028,-720"/>
<polygon fill="black" stroke="black" points="1125,-720 1125,-736 1125,-736 1125,-720 1125,-720"/>
<polygon fill="none" stroke="black" stroke-width="2" points="919,-718 919,-1090 1233,-1090 1233,-718 919,-718"/>
</a>
</g>
</g>
<!-- lbr_docfiscal_cana_deduc&#45;&gt;ad_org -->
<g id="edge6" class="edge">
<title>lbr_docfiscal_cana_deduc:w&#45;&gt;ad_org:e</title>
<path fill="none" stroke="black" d="M904.6,-1034.27C813.6,-1037.29 613.71,-1064.29 549,-1021 513.29,-997.11 551.96,-933 509,-933"/>
<polygon fill="black" stroke="black" points="911,-1034.15 919.07,-1037.6 915,-1034.07 919,-1034 919,-1034 919,-1034 915,-1034.07 918.93,-1030.4 911,-1034.15 911,-1034.15"/>
<ellipse fill="none" stroke="black" cx="907.8" cy="-1034.21" rx="3.2" ry="3.2"/>
</g>
<!-- lbr_docfiscal_cana_deduc&#45;&gt;ad_client -->
<g id="edge5" class="edge">
<title>lbr_docfiscal_cana_deduc:w&#45;&gt;ad_client:e</title>
<path fill="none" stroke="black" d="M904.39,-1056.01C751.81,-1056.25 707.66,-1059.98 549,-1043 482.88,-1035.93 321,-990 254.5,-990"/>
<polygon fill="black" stroke="black" points="911,-1056.01 919,-1059.6 915,-1056 919,-1056 919,-1056 919,-1056 915,-1056 919,-1052.4 911,-1056.01 911,-1056.01"/>
<ellipse fill="none" stroke="black" cx="907.8" cy="-1056.01" rx="3.2" ry="3.2"/>
</g>
<!-- lbr_docfiscal_cana_deduc&#45;&gt;ad_user -->
<g id="edge7" class="edge">
<title>lbr_docfiscal_cana_deduc:w&#45;&gt;ad_user:e</title>
<path fill="none" stroke="black" d="M904.47,-989.3C877.79,-986.6 866.84,-977 834,-977"/>
<polygon fill="black" stroke="black" points="911.01,-989.62 918.83,-993.6 915,-989.81 919,-990 919,-990 919,-990 915,-989.81 919.17,-986.4 911.01,-989.62 911.01,-989.62"/>
<ellipse fill="none" stroke="black" cx="907.81" cy="-989.46" rx="3.2" ry="3.2"/>
</g>
<!-- lbr_docfiscal_cana_deduc&#45;&gt;ad_user -->
<g id="edge9" class="edge">
<title>lbr_docfiscal_cana_deduc:w&#45;&gt;ad_user:e</title>
<path fill="none" stroke="black" d="M904.53,-882.59C866.64,-898.02 885.72,-977 834,-977"/>
<polygon fill="black" stroke="black" points="911.13,-881.41 919.64,-883.54 915.06,-880.71 919,-880 919,-880 919,-880 915.06,-880.71 918.36,-876.46 911.13,-881.41 911.13,-881.41"/>
<ellipse fill="none" stroke="black" cx="907.98" cy="-881.98" rx="3.2" ry="3.2"/>
</g>
<!-- lbr_docfiscal -->
<g id="node5" class="node">
<title>lbr_docfiscal</title>
<g id="a_node5"><a xlink:href="../../tables/lbr_docfiscal.html" xlink:title="lbr_docfiscal" target="_top">
<polygon fill="#ffffff" stroke="transparent" points="557,-37 557,-425 869,-425 869,-37 557,-37"/>
<polygon fill="#f5f5f5" stroke="transparent" points="557,-403 557,-425 869,-425 869,-403 557,-403"/>
<polygon fill="none" stroke="black" points="557,-403 557,-425 869,-425 869,-403 557,-403"/>
<text text-anchor="start" x="562" y="-412.2" font-family="Helvetica,sans-Serif" font-weight="bold" font-size="11.00">lbr_docfiscal</text>
<text text-anchor="start" x="834" y="-411.2" font-family="Helvetica,sans-Serif" font-size="11.00">[table]</text>
<polygon fill="none" stroke="black" points="557,-381 557,-403 869,-403 869,-381 557,-381"/>
<image xlink:href="../../images/primaryKeys.png" width="11px" height="12px" preserveAspectRatio="xMinYMin meet" x="562" y="-398"/>
<text text-anchor="start" x="577" y="-389.2" font-family="Helvetica,sans-Serif" font-size="11.00">lbr_docfiscal_id</text>
<polygon fill="#ffffff" stroke="transparent" points="557,-359 557,-381 869,-381 869,-359 557,-359"/>
<polygon fill="none" stroke="black" points="557,-359 557,-381 869,-381 869,-359 557,-359"/>
<text text-anchor="start" x="577" y="-367.2" font-family="Helvetica,sans-Serif" font-size="11.00">c_invoice_id</text>
<polygon fill="#ffffff" stroke="transparent" points="557,-337 557,-359 869,-359 869,-337 557,-337"/>
<polygon fill="none" stroke="black" points="557,-337 557,-359 869,-359 869,-337 557,-337"/>
<text text-anchor="start" x="577" y="-345.2" font-family="Helvetica,sans-Serif" font-size="11.00">lbr_nfestatus</text>
<polygon fill="#ffffff" stroke="transparent" points="557,-315 557,-337 869,-337 869,-315 557,-315"/>
<polygon fill="none" stroke="black" points="557,-315 557,-337 869,-337 869,-315 557,-315"/>
<text text-anchor="start" x="577" y="-323.2" font-family="Helvetica,sans-Serif" font-size="11.00">lbr_docfiscal_uu</text>
<polygon fill="none" stroke="black" points="557,-293 557,-315 869,-315 869,-293 557,-293"/>
<image xlink:href="../../images/foreignKeys.png" width="11px" height="12px" preserveAspectRatio="xMinYMin meet" x="562" y="-310"/>
<text text-anchor="start" x="577" y="-301.2" font-family="Helvetica,sans-Serif" font-size="11.00">c_currency_id</text>
<polygon fill="none" stroke="black" points="557,-271 557,-293 869,-293 869,-271 557,-271"/>
<image xlink:href="../../images/foreignKeys.png" width="11px" height="12px" preserveAspectRatio="xMinYMin meet" x="562" y="-288"/>
<text text-anchor="start" x="577" y="-279.2" font-family="Helvetica,sans-Serif" font-size="11.00">m_movement_id</text>
<polygon fill="none" stroke="black" points="557,-249 557,-271 869,-271 869,-249 557,-249"/>
<image xlink:href="../../images/foreignKeys.png" width="11px" height="12px" preserveAspectRatio="xMinYMin meet" x="562" y="-266"/>
<text text-anchor="start" x="577" y="-257.2" font-family="Helvetica,sans-Serif" font-size="11.00">cof_dfe_id</text>
<polygon fill="none" stroke="black" points="557,-227 557,-249 869,-249 869,-227 557,-227"/>
<image xlink:href="../../images/foreignKeys.png" width="11px" height="12px" preserveAspectRatio="xMinYMin meet" x="562" y="-244"/>
<text text-anchor="start" x="577" y="-235.2" font-family="Helvetica,sans-Serif" font-size="11.00">cof_pnretira_id</text>
<polygon fill="none" stroke="black" points="557,-205 557,-227 869,-227 869,-205 557,-205"/>
<image xlink:href="../../images/foreignKeys.png" width="11px" height="12px" preserveAspectRatio="xMinYMin meet" x="562" y="-222"/>
<text text-anchor="start" x="577" y="-213.2" font-family="Helvetica,sans-Serif" font-size="11.00">cof_pnlocationretira_id</text>
<polygon fill="none" stroke="black" points="557,-183 557,-205 869,-205 869,-183 557,-183"/>
<image xlink:href="../../images/foreignKeys.png" width="11px" height="12px" preserveAspectRatio="xMinYMin meet" x="562" y="-200"/>
<text text-anchor="start" x="577" y="-191.2" font-family="Helvetica,sans-Serif" font-size="11.00">retira_city_id</text>
<polygon fill="none" stroke="black" points="557,-161 557,-183 869,-183 869,-161 557,-161"/>
<image xlink:href="../../images/foreignKeys.png" width="11px" height="12px" preserveAspectRatio="xMinYMin meet" x="562" y="-178"/>
<text text-anchor="start" x="577" y="-169.2" font-family="Helvetica,sans-Serif" font-size="11.00">retira_region_id</text>
<polygon fill="none" stroke="black" points="557,-139 557,-161 869,-161 869,-139 557,-139"/>
<image xlink:href="../../images/foreignKeys.png" width="11px" height="12px" preserveAspectRatio="xMinYMin meet" x="562" y="-156"/>
<text text-anchor="start" x="577" y="-147.2" font-family="Helvetica,sans-Serif" font-size="11.00">retira_country_id</text>
<polygon fill="none" stroke="black" points="557,-117 557,-139 869,-139 869,-117 557,-117"/>
<image xlink:href="../../images/foreignKeys.png" width="11px" height="12px" preserveAspectRatio="xMinYMin meet" x="562" y="-134"/>
<text text-anchor="start" x="577" y="-125.2" font-family="Helvetica,sans-Serif" font-size="11.00">entrega_country_id</text>
<polygon fill="none" stroke="black" points="557,-95 557,-117 869,-117 869,-95 557,-95"/>
<image xlink:href="../../images/foreignKeys.png" width="11px" height="12px" preserveAspectRatio="xMinYMin meet" x="562" y="-112"/>
<text text-anchor="start" x="577" y="-103.2" font-family="Helvetica,sans-Serif" font-size="11.00">gl_journal_id</text>
<polygon fill="none" stroke="black" points="557,-73 557,-95 869,-95 869,-73 557,-73"/>
<image xlink:href="../../images/foreignKeys.png" width="11px" height="12px" preserveAspectRatio="xMinYMin meet" x="562" y="-90"/>
<text text-anchor="start" x="577" y="-81.2" font-family="Helvetica,sans-Serif" font-size="11.00">cof_codigooperacao_id</text>
<polygon fill="none" stroke="black" points="557,-55 557,-73 869,-73 869,-55 557,-55"/>
<text text-anchor="start" x="560" y="-61.2" font-family="Helvetica,sans-Serif" font-size="11.00">...</text>
<polygon fill="#ffffff" stroke="transparent" points="557,-37 557,-55 869,-55 869,-37 557,-37"/>
<polygon fill="none" stroke="black" points="557,-37 557,-55 869,-55 869,-37 557,-37"/>
<polygon fill="#ffffff" stroke="transparent" points="558,-38 558,-54 667,-54 667,-38 558,-38"/>
<text text-anchor="start" x="560" y="-43.2" font-family="Helvetica,sans-Serif" font-size="11.00">&lt; 11</text>
<polygon fill="#ffffff" stroke="transparent" points="667,-38 667,-54 760,-54 760,-38 667,-38"/>
<text text-anchor="start" x="710" y="-43.2" font-family="Helvetica,sans-Serif" font-size="11.00"> &#160;</text>
<polygon fill="#ffffff" stroke="transparent" points="760,-38 760,-54 868,-54 868,-38 760,-38"/>
<text text-anchor="start" x="844" y="-43.2" font-family="Helvetica,sans-Serif" font-size="11.00">34 &gt;</text>
<polygon fill="black" stroke="black" points="667,-38 667,-54 667,-54 667,-38 667,-38"/>
<polygon fill="black" stroke="black" points="760,-38 760,-54 760,-54 760,-38 760,-38"/>
</a>
</g>
</g>
<!-- lbr_docfiscal_cana_deduc&#45;&gt;lbr_docfiscal -->
<g id="edge8" class="edge">
<title>lbr_docfiscal_cana_deduc:w&#45;&gt;lbr_docfiscal:e</title>
<path fill="none" stroke="black" d="M904.8,-920.88C816.59,-877.28 983.39,-392 870,-392"/>
<polygon fill="black" stroke="black" points="911.19,-922.28 918.23,-927.52 915.09,-923.14 919,-924 919,-924 919,-924 915.09,-923.14 919.77,-920.48 911.19,-922.28 911.19,-922.28"/>
<ellipse fill="none" stroke="black" cx="908.06" cy="-921.59" rx="3.2" ry="3.2"/>
</g>
</g>
</svg>
