<?xml version="1.0" encoding="UTF-8" standalone="no"?>
<!DOCTYPE svg PUBLIC "-//W3C//DTD SVG 1.1//EN"
 "http://www.w3.org/Graphics/SVG/1.1/DTD/svg11.dtd">
<!-- Generated by graphviz version 2.43.0 (0)
 -->
<!-- Title: oneDegreeRelationshipsDiagram Pages: 1 -->
<svg width="312pt" height="335pt"
 viewBox="0.00 0.00 312.00 335.00" xmlns="http://www.w3.org/2000/svg" xmlns:xlink="http://www.w3.org/1999/xlink">
<g id="graph0" class="graph" transform="scale(1 1) rotate(0) translate(4 331)">
<title>oneDegreeRelationshipsDiagram</title>
<polygon fill="#ffffff" stroke="transparent" points="-4,4 -4,-331 308,-331 308,4 -4,4"/>
<text text-anchor="middle" x="71.5" y="-7.2" font-family="Helvetica,sans-Serif" font-size="11.00">Generated by SchemaSpy</text>
<!-- lbr_bpartnercategory -->
<g id="node1" class="node">
<title>lbr_bpartnercategory</title>
<g id="a_node1"><a xlink:href="../../tables/lbr_bpartnercategory.html" xlink:title="lbr_bpartnercategory" target="_top">
<polygon fill="#ffffff" stroke="transparent" points="8,-37 8,-323 296,-323 296,-37 8,-37"/>
<polygon fill="#f5f5f5" stroke="transparent" points="10,-299 10,-321 294,-321 294,-299 10,-299"/>
<polygon fill="none" stroke="black" points="10,-299 10,-321 294,-321 294,-299 10,-299"/>
<text text-anchor="start" x="15" y="-308.2" font-family="Helvetica,sans-Serif" font-weight="bold" font-size="11.00">lbr_bpartnercategory</text>
<text text-anchor="start" x="259" y="-307.2" font-family="Helvetica,sans-Serif" font-size="11.00">[table]</text>
<polygon fill="none" stroke="black" points="10,-277 10,-299 211,-299 211,-277 10,-277"/>
<image xlink:href="../../images/primaryKeys.png" width="11px" height="12px" preserveAspectRatio="xMinYMin meet" x="15" y="-294"/>
<text text-anchor="start" x="30" y="-285.2" font-family="Helvetica,sans-Serif" font-size="11.00">lbr_bpartnercategory_id</text>
<polygon fill="none" stroke="black" points="211,-277 211,-299 294,-299 294,-277 211,-277"/>
<text text-anchor="start" x="214" y="-285.2" font-family="Helvetica,sans-Serif" font-size="11.00">numeric[10]</text>
<polygon fill="none" stroke="black" points="10,-255 10,-277 211,-277 211,-255 10,-255"/>
<text text-anchor="start" x="30" y="-263.2" font-family="Helvetica,sans-Serif" font-size="11.00">ad_org_id</text>
<polygon fill="none" stroke="black" points="211,-255 211,-277 294,-277 294,-255 211,-255"/>
<text text-anchor="start" x="214" y="-263.2" font-family="Helvetica,sans-Serif" font-size="11.00">numeric[10]</text>
<polygon fill="none" stroke="black" points="10,-233 10,-255 211,-255 211,-233 10,-233"/>
<text text-anchor="start" x="30" y="-241.2" font-family="Helvetica,sans-Serif" font-size="11.00">ad_client_id</text>
<polygon fill="none" stroke="black" points="211,-233 211,-255 294,-255 294,-233 211,-233"/>
<text text-anchor="start" x="214" y="-241.2" font-family="Helvetica,sans-Serif" font-size="11.00">numeric[10]</text>
<polygon fill="none" stroke="black" points="10,-211 10,-233 211,-233 211,-211 10,-211"/>
<text text-anchor="start" x="30" y="-219.2" font-family="Helvetica,sans-Serif" font-size="11.00">isactive</text>
<polygon fill="none" stroke="black" points="211,-211 211,-233 294,-233 294,-211 211,-211"/>
<text text-anchor="start" x="214" y="-219.2" font-family="Helvetica,sans-Serif" font-size="11.00">bpchar[1]</text>
<polygon fill="none" stroke="black" points="10,-189 10,-211 211,-211 211,-189 10,-189"/>
<text text-anchor="start" x="30" y="-197.2" font-family="Helvetica,sans-Serif" font-size="11.00">created</text>
<polygon fill="none" stroke="black" points="211,-189 211,-211 294,-211 294,-189 211,-189"/>
<text text-anchor="start" x="214" y="-197.2" font-family="Helvetica,sans-Serif" font-size="11.00">timestamp[29,6]</text>
<polygon fill="none" stroke="black" points="10,-167 10,-189 211,-189 211,-167 10,-167"/>
<text text-anchor="start" x="30" y="-175.2" font-family="Helvetica,sans-Serif" font-size="11.00">createdby</text>
<polygon fill="none" stroke="black" points="211,-167 211,-189 294,-189 294,-167 211,-167"/>
<text text-anchor="start" x="214" y="-175.2" font-family="Helvetica,sans-Serif" font-size="11.00">numeric[10]</text>
<polygon fill="none" stroke="black" points="10,-145 10,-167 211,-167 211,-145 10,-145"/>
<text text-anchor="start" x="30" y="-153.2" font-family="Helvetica,sans-Serif" font-size="11.00">updated</text>
<polygon fill="none" stroke="black" points="211,-145 211,-167 294,-167 294,-145 211,-145"/>
<text text-anchor="start" x="214" y="-153.2" font-family="Helvetica,sans-Serif" font-size="11.00">timestamp[29,6]</text>
<polygon fill="none" stroke="black" points="10,-123 10,-145 211,-145 211,-123 10,-123"/>
<text text-anchor="start" x="30" y="-131.2" font-family="Helvetica,sans-Serif" font-size="11.00">updatedby</text>
<polygon fill="none" stroke="black" points="211,-123 211,-145 294,-145 294,-123 211,-123"/>
<text text-anchor="start" x="214" y="-131.2" font-family="Helvetica,sans-Serif" font-size="11.00">numeric[10]</text>
<polygon fill="none" stroke="black" points="10,-101 10,-123 211,-123 211,-101 10,-101"/>
<text text-anchor="start" x="30" y="-109.2" font-family="Helvetica,sans-Serif" font-size="11.00">name</text>
<polygon fill="none" stroke="black" points="211,-101 211,-123 294,-123 294,-101 211,-101"/>
<text text-anchor="start" x="214" y="-109.2" font-family="Helvetica,sans-Serif" font-size="11.00">varchar[60]</text>
<polygon fill="none" stroke="black" points="10,-79 10,-101 211,-101 211,-79 10,-79"/>
<text text-anchor="start" x="30" y="-87.2" font-family="Helvetica,sans-Serif" font-size="11.00">description</text>
<polygon fill="none" stroke="black" points="211,-79 211,-101 294,-101 294,-79 211,-79"/>
<text text-anchor="start" x="214" y="-87.2" font-family="Helvetica,sans-Serif" font-size="11.00">varchar[255]</text>
<polygon fill="#ffffff" stroke="transparent" points="10,-57 10,-79 211,-79 211,-57 10,-57"/>
<polygon fill="none" stroke="black" points="10,-57 10,-79 211,-79 211,-57 10,-57"/>
<text text-anchor="start" x="30" y="-65.2" font-family="Helvetica,sans-Serif" font-size="11.00">lbr_bpartnercategory_uu</text>
<polygon fill="none" stroke="black" points="211,-57 211,-79 294,-79 294,-57 211,-57"/>
<text text-anchor="start" x="214" y="-65.2" font-family="Helvetica,sans-Serif" font-size="11.00">varchar[36]</text>
<polygon fill="#ffffff" stroke="transparent" points="10,-39 10,-57 294,-57 294,-39 10,-39"/>
<polygon fill="none" stroke="black" points="10,-39 10,-57 294,-57 294,-39 10,-39"/>
<polygon fill="#ffffff" stroke="transparent" points="11,-40 11,-56 100,-56 100,-40 11,-40"/>
<text text-anchor="start" x="13" y="-45.2" font-family="Helvetica,sans-Serif" font-size="11.00">&lt; 0</text>
<polygon fill="#ffffff" stroke="transparent" points="100,-40 100,-56 205,-56 205,-40 100,-40"/>
<text text-anchor="start" x="136" y="-45.2" font-family="Helvetica,sans-Serif" font-size="11.00">8 rows</text>
<polygon fill="#ffffff" stroke="transparent" points="205,-40 205,-56 293,-56 293,-40 205,-40"/>
<text text-anchor="start" x="275" y="-45.2" font-family="Helvetica,sans-Serif" font-size="11.00">0 &gt;</text>
<polygon fill="black" stroke="black" points="100,-40 100,-56 100,-56 100,-40 100,-40"/>
<polygon fill="black" stroke="black" points="205,-40 205,-56 205,-56 205,-40 205,-40"/>
<polygon fill="none" stroke="black" stroke-width="2" points="9,-38 9,-322 295,-322 295,-38 9,-38"/>
</a>
</g>
</g>
</g>
</svg>
