<?xml version="1.0" encoding="UTF-8" standalone="no"?>
<!DOCTYPE svg PUBLIC "-//W3C//DTD SVG 1.1//EN"
 "http://www.w3.org/Graphics/SVG/1.1/DTD/svg11.dtd">
<!-- Generated by graphviz version 2.43.0 (0)
 -->
<!-- Title: oneDegreeRelationshipsDiagram Pages: 1 -->
<svg width="604pt" height="555pt"
 viewBox="0.00 0.00 604.00 555.00" xmlns="http://www.w3.org/2000/svg" xmlns:xlink="http://www.w3.org/1999/xlink">
<g id="graph0" class="graph" transform="scale(1 1) rotate(0) translate(4 551)">
<title>oneDegreeRelationshipsDiagram</title>
<polygon fill="#ffffff" stroke="transparent" points="-4,4 -4,-551 600,-551 600,4 -4,4"/>
<text text-anchor="middle" x="71.5" y="-7.2" font-family="Helvetica,sans-Serif" font-size="11.00">Generated by SchemaSpy</text>
<!-- m_attributesetexclude -->
<g id="node1" class="node">
<title>m_attributesetexclude</title>
<g id="a_node1"><a xlink:href="../../tables/m_attributesetexclude.html" xlink:title="m_attributesetexclude" target="_top">
<polygon fill="#ffffff" stroke="transparent" points="290,-235 290,-543 588,-543 588,-235 290,-235"/>
<polygon fill="#f5f5f5" stroke="transparent" points="292,-519 292,-541 586,-541 586,-519 292,-519"/>
<polygon fill="none" stroke="black" points="292,-519 292,-541 586,-541 586,-519 292,-519"/>
<text text-anchor="start" x="297" y="-528.2" font-family="Helvetica,sans-Serif" font-weight="bold" font-size="11.00">m_attributesetexclude</text>
<text text-anchor="start" x="551" y="-527.2" font-family="Helvetica,sans-Serif" font-size="11.00">[table]</text>
<polygon fill="none" stroke="black" points="292,-497 292,-519 503,-519 503,-497 292,-497"/>
<image xlink:href="../../images/primaryKeys.png" width="11px" height="12px" preserveAspectRatio="xMinYMin meet" x="297" y="-514"/>
<text text-anchor="start" x="312" y="-505.2" font-family="Helvetica,sans-Serif" font-size="11.00">m_attributesetexclude_id</text>
<polygon fill="none" stroke="black" points="503,-497 503,-519 586,-519 586,-497 503,-497"/>
<text text-anchor="start" x="506" y="-505.2" font-family="Helvetica,sans-Serif" font-size="11.00">numeric[10]</text>
<polygon fill="none" stroke="black" points="292,-475 292,-497 503,-497 503,-475 292,-475"/>
<text text-anchor="start" x="312" y="-483.2" font-family="Helvetica,sans-Serif" font-size="11.00">ad_client_id</text>
<polygon fill="none" stroke="black" points="503,-475 503,-497 586,-497 586,-475 503,-475"/>
<text text-anchor="start" x="506" y="-483.2" font-family="Helvetica,sans-Serif" font-size="11.00">numeric[10]</text>
<polygon fill="none" stroke="black" points="292,-453 292,-475 503,-475 503,-453 292,-453"/>
<text text-anchor="start" x="312" y="-461.2" font-family="Helvetica,sans-Serif" font-size="11.00">ad_org_id</text>
<polygon fill="none" stroke="black" points="503,-453 503,-475 586,-475 586,-453 503,-453"/>
<text text-anchor="start" x="506" y="-461.2" font-family="Helvetica,sans-Serif" font-size="11.00">numeric[10]</text>
<polygon fill="none" stroke="black" points="292,-431 292,-453 503,-453 503,-431 292,-431"/>
<text text-anchor="start" x="312" y="-439.2" font-family="Helvetica,sans-Serif" font-size="11.00">isactive</text>
<polygon fill="none" stroke="black" points="503,-431 503,-453 586,-453 586,-431 503,-431"/>
<text text-anchor="start" x="506" y="-439.2" font-family="Helvetica,sans-Serif" font-size="11.00">bpchar[1]</text>
<polygon fill="none" stroke="black" points="292,-409 292,-431 503,-431 503,-409 292,-409"/>
<text text-anchor="start" x="312" y="-417.2" font-family="Helvetica,sans-Serif" font-size="11.00">created</text>
<polygon fill="none" stroke="black" points="503,-409 503,-431 586,-431 586,-409 503,-409"/>
<text text-anchor="start" x="506" y="-417.2" font-family="Helvetica,sans-Serif" font-size="11.00">timestamp[29,6]</text>
<polygon fill="none" stroke="black" points="292,-387 292,-409 503,-409 503,-387 292,-387"/>
<text text-anchor="start" x="312" y="-395.2" font-family="Helvetica,sans-Serif" font-size="11.00">createdby</text>
<polygon fill="none" stroke="black" points="503,-387 503,-409 586,-409 586,-387 503,-387"/>
<text text-anchor="start" x="506" y="-395.2" font-family="Helvetica,sans-Serif" font-size="11.00">numeric[10]</text>
<polygon fill="none" stroke="black" points="292,-365 292,-387 503,-387 503,-365 292,-365"/>
<text text-anchor="start" x="312" y="-373.2" font-family="Helvetica,sans-Serif" font-size="11.00">updated</text>
<polygon fill="none" stroke="black" points="503,-365 503,-387 586,-387 586,-365 503,-365"/>
<text text-anchor="start" x="506" y="-373.2" font-family="Helvetica,sans-Serif" font-size="11.00">timestamp[29,6]</text>
<polygon fill="none" stroke="black" points="292,-343 292,-365 503,-365 503,-343 292,-343"/>
<text text-anchor="start" x="312" y="-351.2" font-family="Helvetica,sans-Serif" font-size="11.00">updatedby</text>
<polygon fill="none" stroke="black" points="503,-343 503,-365 586,-365 586,-343 503,-343"/>
<text text-anchor="start" x="506" y="-351.2" font-family="Helvetica,sans-Serif" font-size="11.00">numeric[10]</text>
<polygon fill="none" stroke="black" points="292,-321 292,-343 503,-343 503,-321 292,-321"/>
<image xlink:href="../../images/foreignKeys.png" width="11px" height="12px" preserveAspectRatio="xMinYMin meet" x="297" y="-338"/>
<text text-anchor="start" x="312" y="-329.2" font-family="Helvetica,sans-Serif" font-size="11.00">m_attributeset_id</text>
<polygon fill="none" stroke="black" points="503,-321 503,-343 586,-343 586,-321 503,-321"/>
<text text-anchor="start" x="506" y="-329.2" font-family="Helvetica,sans-Serif" font-size="11.00">numeric[10]</text>
<polygon fill="none" stroke="black" points="292,-299 292,-321 503,-321 503,-299 292,-299"/>
<image xlink:href="../../images/foreignKeys.png" width="11px" height="12px" preserveAspectRatio="xMinYMin meet" x="297" y="-316"/>
<text text-anchor="start" x="312" y="-307.2" font-family="Helvetica,sans-Serif" font-size="11.00">ad_table_id</text>
<polygon fill="none" stroke="black" points="503,-299 503,-321 586,-321 586,-299 503,-299"/>
<text text-anchor="start" x="506" y="-307.2" font-family="Helvetica,sans-Serif" font-size="11.00">numeric[10]</text>
<polygon fill="none" stroke="black" points="292,-277 292,-299 503,-299 503,-277 292,-277"/>
<text text-anchor="start" x="312" y="-285.2" font-family="Helvetica,sans-Serif" font-size="11.00">issotrx</text>
<polygon fill="none" stroke="black" points="503,-277 503,-299 586,-299 586,-277 503,-277"/>
<text text-anchor="start" x="506" y="-285.2" font-family="Helvetica,sans-Serif" font-size="11.00">bpchar[1]</text>
<polygon fill="#ffffff" stroke="transparent" points="292,-255 292,-277 503,-277 503,-255 292,-255"/>
<polygon fill="none" stroke="black" points="292,-255 292,-277 503,-277 503,-255 292,-255"/>
<text text-anchor="start" x="312" y="-263.2" font-family="Helvetica,sans-Serif" font-size="11.00">m_attributesetexclude_uu</text>
<polygon fill="none" stroke="black" points="503,-255 503,-277 586,-277 586,-255 503,-255"/>
<text text-anchor="start" x="506" y="-263.2" font-family="Helvetica,sans-Serif" font-size="11.00">varchar[36]</text>
<polygon fill="#ffffff" stroke="transparent" points="292,-237 292,-255 586,-255 586,-237 292,-237"/>
<polygon fill="none" stroke="black" points="292,-237 292,-255 586,-255 586,-237 292,-237"/>
<polygon fill="#ffffff" stroke="transparent" points="293,-238 293,-254 394,-254 394,-238 293,-238"/>
<text text-anchor="start" x="295" y="-243.2" font-family="Helvetica,sans-Serif" font-size="11.00">&lt; 2</text>
<polygon fill="#ffffff" stroke="transparent" points="394,-238 394,-254 485,-254 485,-238 394,-238"/>
<text text-anchor="start" x="436" y="-243.2" font-family="Helvetica,sans-Serif" font-size="11.00"> &#160;</text>
<polygon fill="#ffffff" stroke="transparent" points="485,-238 485,-254 585,-254 585,-238 485,-238"/>
<text text-anchor="start" x="567" y="-243.2" font-family="Helvetica,sans-Serif" font-size="11.00">0 &gt;</text>
<polygon fill="black" stroke="black" points="394,-238 394,-254 394,-254 394,-238 394,-238"/>
<polygon fill="black" stroke="black" points="485,-238 485,-254 485,-254 485,-238 485,-238"/>
<polygon fill="none" stroke="black" stroke-width="2" points="291,-236 291,-542 587,-542 587,-236 291,-236"/>
</a>
</g>
</g>
<!-- ad_table -->
<g id="node2" class="node">
<title>ad_table</title>
<g id="a_node2"><a xlink:href="../../tables/ad_table.html" xlink:title="ad_table" target="_top">
<polygon fill="#ffffff" stroke="transparent" points="18,-37 18,-271 231,-271 231,-37 18,-37"/>
<polygon fill="#f5f5f5" stroke="transparent" points="18.5,-249 18.5,-271 231.5,-271 231.5,-249 18.5,-249"/>
<polygon fill="none" stroke="black" points="18.5,-249 18.5,-271 231.5,-271 231.5,-249 18.5,-249"/>
<text text-anchor="start" x="23.5" y="-258.2" font-family="Helvetica,sans-Serif" font-weight="bold" font-size="11.00">ad_table</text>
<text text-anchor="start" x="196.5" y="-257.2" font-family="Helvetica,sans-Serif" font-size="11.00">[table]</text>
<polygon fill="none" stroke="black" points="18.5,-227 18.5,-249 231.5,-249 231.5,-227 18.5,-227"/>
<image xlink:href="../../images/primaryKeys.png" width="11px" height="12px" preserveAspectRatio="xMinYMin meet" x="23.5" y="-244"/>
<text text-anchor="start" x="38.5" y="-235.2" font-family="Helvetica,sans-Serif" font-size="11.00">ad_table_id</text>
<polygon fill="none" stroke="black" points="18.5,-205 18.5,-227 231.5,-227 231.5,-205 18.5,-205"/>
<image xlink:href="../../images/foreignKeys.png" width="11px" height="12px" preserveAspectRatio="xMinYMin meet" x="23.5" y="-222"/>
<text text-anchor="start" x="38.5" y="-213.2" font-family="Helvetica,sans-Serif" font-size="11.00">ad_client_id</text>
<polygon fill="none" stroke="black" points="18.5,-183 18.5,-205 231.5,-205 231.5,-183 18.5,-183"/>
<image xlink:href="../../images/foreignKeys.png" width="11px" height="12px" preserveAspectRatio="xMinYMin meet" x="23.5" y="-200"/>
<text text-anchor="start" x="38.5" y="-191.2" font-family="Helvetica,sans-Serif" font-size="11.00">ad_org_id</text>
<polygon fill="none" stroke="black" points="18.5,-161 18.5,-183 231.5,-183 231.5,-161 18.5,-161"/>
<image xlink:href="../../images/foreignKeys.png" width="11px" height="12px" preserveAspectRatio="xMinYMin meet" x="23.5" y="-178"/>
<text text-anchor="start" x="38.5" y="-169.2" font-family="Helvetica,sans-Serif" font-size="11.00">entitytype</text>
<polygon fill="none" stroke="black" points="18.5,-139 18.5,-161 231.5,-161 231.5,-139 18.5,-139"/>
<image xlink:href="../../images/foreignKeys.png" width="11px" height="12px" preserveAspectRatio="xMinYMin meet" x="23.5" y="-156"/>
<text text-anchor="start" x="38.5" y="-147.2" font-family="Helvetica,sans-Serif" font-size="11.00">ad_window_id</text>
<polygon fill="none" stroke="black" points="18.5,-117 18.5,-139 231.5,-139 231.5,-117 18.5,-117"/>
<image xlink:href="../../images/foreignKeys.png" width="11px" height="12px" preserveAspectRatio="xMinYMin meet" x="23.5" y="-134"/>
<text text-anchor="start" x="38.5" y="-125.2" font-family="Helvetica,sans-Serif" font-size="11.00">ad_val_rule_id</text>
<polygon fill="none" stroke="black" points="18.5,-95 18.5,-117 231.5,-117 231.5,-95 18.5,-95"/>
<image xlink:href="../../images/foreignKeys.png" width="11px" height="12px" preserveAspectRatio="xMinYMin meet" x="23.5" y="-112"/>
<text text-anchor="start" x="38.5" y="-103.2" font-family="Helvetica,sans-Serif" font-size="11.00">po_window_id</text>
<polygon fill="#ffffff" stroke="transparent" points="18.5,-73 18.5,-95 231.5,-95 231.5,-73 18.5,-73"/>
<polygon fill="none" stroke="black" points="18.5,-73 18.5,-95 231.5,-95 231.5,-73 18.5,-73"/>
<text text-anchor="start" x="38.5" y="-81.2" font-family="Helvetica,sans-Serif" font-size="11.00">ad_table_uu</text>
<polygon fill="none" stroke="black" points="18.5,-55 18.5,-73 231.5,-73 231.5,-55 18.5,-55"/>
<text text-anchor="start" x="21.5" y="-61.2" font-family="Helvetica,sans-Serif" font-size="11.00">...</text>
<polygon fill="#ffffff" stroke="transparent" points="18.5,-37 18.5,-55 231.5,-55 231.5,-37 18.5,-37"/>
<polygon fill="none" stroke="black" points="18.5,-37 18.5,-55 231.5,-55 231.5,-37 18.5,-37"/>
<polygon fill="#ffffff" stroke="transparent" points="19.5,-38 19.5,-54 75.5,-54 75.5,-38 19.5,-38"/>
<text text-anchor="start" x="21.5" y="-43.2" font-family="Helvetica,sans-Serif" font-size="11.00">&lt; 6</text>
<polygon fill="#ffffff" stroke="transparent" points="75.5,-38 75.5,-54 169.5,-54 169.5,-38 75.5,-38"/>
<text text-anchor="start" x="95.5" y="-43.2" font-family="Helvetica,sans-Serif" font-size="11.00">1.443 rows</text>
<polygon fill="#ffffff" stroke="transparent" points="169.5,-38 169.5,-54 230.5,-54 230.5,-38 169.5,-38"/>
<text text-anchor="start" x="206.5" y="-43.2" font-family="Helvetica,sans-Serif" font-size="11.00">83 &gt;</text>
<polygon fill="black" stroke="black" points="75.5,-38 75.5,-54 75.5,-54 75.5,-38 75.5,-38"/>
<polygon fill="black" stroke="black" points="169.5,-38 169.5,-54 169.5,-54 169.5,-38 169.5,-38"/>
</a>
</g>
</g>
<!-- m_attributesetexclude&#45;&gt;ad_table -->
<g id="edge1" class="edge">
<title>m_attributesetexclude:w&#45;&gt;ad_table:e</title>
<path fill="none" stroke="black" d="M277.11,-306.13C255.22,-291.17 267.93,-238 232.5,-238"/>
<polygon fill="black" stroke="black" points="283.29,-307.85 290.03,-313.47 287.15,-308.93 291,-310 291,-310 291,-310 287.15,-308.93 291.97,-306.53 283.29,-307.85 283.29,-307.85"/>
<ellipse fill="none" stroke="black" cx="280.21" cy="-306.99" rx="3.2" ry="3.2"/>
</g>
<!-- m_attributeset -->
<g id="node3" class="node">
<title>m_attributeset</title>
<g id="a_node3"><a xlink:href="../../tables/m_attributeset.html" xlink:title="m_attributeset" target="_top">
<polygon fill="#ffffff" stroke="transparent" points="8,-292 8,-438 241,-438 241,-292 8,-292"/>
<polygon fill="#f5f5f5" stroke="transparent" points="8.5,-416 8.5,-438 241.5,-438 241.5,-416 8.5,-416"/>
<polygon fill="none" stroke="black" points="8.5,-416 8.5,-438 241.5,-438 241.5,-416 8.5,-416"/>
<text text-anchor="start" x="13.5" y="-425.2" font-family="Helvetica,sans-Serif" font-weight="bold" font-size="11.00">m_attributeset</text>
<text text-anchor="start" x="206.5" y="-424.2" font-family="Helvetica,sans-Serif" font-size="11.00">[table]</text>
<polygon fill="none" stroke="black" points="8.5,-394 8.5,-416 241.5,-416 241.5,-394 8.5,-394"/>
<image xlink:href="../../images/primaryKeys.png" width="11px" height="12px" preserveAspectRatio="xMinYMin meet" x="13.5" y="-411"/>
<text text-anchor="start" x="28.5" y="-402.2" font-family="Helvetica,sans-Serif" font-size="11.00">m_attributeset_id</text>
<polygon fill="none" stroke="black" points="8.5,-372 8.5,-394 241.5,-394 241.5,-372 8.5,-372"/>
<image xlink:href="../../images/foreignKeys.png" width="11px" height="12px" preserveAspectRatio="xMinYMin meet" x="13.5" y="-389"/>
<text text-anchor="start" x="28.5" y="-380.2" font-family="Helvetica,sans-Serif" font-size="11.00">m_sernoctl_id</text>
<polygon fill="none" stroke="black" points="8.5,-350 8.5,-372 241.5,-372 241.5,-350 8.5,-350"/>
<image xlink:href="../../images/foreignKeys.png" width="11px" height="12px" preserveAspectRatio="xMinYMin meet" x="13.5" y="-367"/>
<text text-anchor="start" x="28.5" y="-358.2" font-family="Helvetica,sans-Serif" font-size="11.00">m_lotctl_id</text>
<polygon fill="#ffffff" stroke="transparent" points="8.5,-328 8.5,-350 241.5,-350 241.5,-328 8.5,-328"/>
<polygon fill="none" stroke="black" points="8.5,-328 8.5,-350 241.5,-350 241.5,-328 8.5,-328"/>
<text text-anchor="start" x="28.5" y="-336.2" font-family="Helvetica,sans-Serif" font-size="11.00">m_attributeset_uu</text>
<polygon fill="none" stroke="black" points="8.5,-310 8.5,-328 241.5,-328 241.5,-310 8.5,-310"/>
<text text-anchor="start" x="11.5" y="-316.2" font-family="Helvetica,sans-Serif" font-size="11.00">...</text>
<polygon fill="#ffffff" stroke="transparent" points="8.5,-292 8.5,-310 241.5,-310 241.5,-292 8.5,-292"/>
<polygon fill="none" stroke="black" points="8.5,-292 8.5,-310 241.5,-310 241.5,-292 8.5,-292"/>
<polygon fill="#ffffff" stroke="transparent" points="9.5,-293 9.5,-309 82.5,-309 82.5,-293 9.5,-293"/>
<text text-anchor="start" x="11.5" y="-298.2" font-family="Helvetica,sans-Serif" font-size="11.00">&lt; 2</text>
<polygon fill="#ffffff" stroke="transparent" points="82.5,-293 82.5,-309 167.5,-309 167.5,-293 82.5,-293"/>
<text text-anchor="start" x="111" y="-298.2" font-family="Helvetica,sans-Serif" font-size="11.00">1 row</text>
<polygon fill="#ffffff" stroke="transparent" points="167.5,-293 167.5,-309 240.5,-309 240.5,-293 167.5,-293"/>
<text text-anchor="start" x="222.5" y="-298.2" font-family="Helvetica,sans-Serif" font-size="11.00">6 &gt;</text>
<polygon fill="black" stroke="black" points="82.5,-293 82.5,-309 82.5,-309 82.5,-293 82.5,-293"/>
<polygon fill="black" stroke="black" points="167.5,-293 167.5,-309 167.5,-309 167.5,-293 167.5,-293"/>
</a>
</g>
</g>
<!-- m_attributesetexclude&#45;&gt;m_attributeset -->
<g id="edge2" class="edge">
<title>m_attributesetexclude:w&#45;&gt;m_attributeset:e</title>
<path fill="none" stroke="black" d="M277.23,-336.79C259.57,-353.03 275.37,-405 242.5,-405"/>
<polygon fill="black" stroke="black" points="283.44,-334.63 292.18,-335.4 287.22,-333.31 291,-332 291,-332 291,-332 287.22,-333.31 289.82,-328.6 283.44,-334.63 283.44,-334.63"/>
<ellipse fill="none" stroke="black" cx="280.42" cy="-335.68" rx="3.2" ry="3.2"/>
</g>
</g>
</svg>
