<?xml version="1.0" encoding="UTF-8" standalone="no"?>
<!DOCTYPE svg PUBLIC "-//W3C//DTD SVG 1.1//EN"
 "http://www.w3.org/Graphics/SVG/1.1/DTD/svg11.dtd">
<!-- Generated by graphviz version 2.43.0 (0)
 -->
<!-- Title: oneDegreeRelationshipsDiagram Pages: 1 -->
<svg width="847pt" height="479pt"
 viewBox="0.00 0.00 847.00 479.00" xmlns="http://www.w3.org/2000/svg" xmlns:xlink="http://www.w3.org/1999/xlink">
<g id="graph0" class="graph" transform="scale(1 1) rotate(0) translate(4 475)">
<title>oneDegreeRelationshipsDiagram</title>
<polygon fill="#ffffff" stroke="transparent" points="-4,4 -4,-475 843,-475 843,4 -4,4"/>
<text text-anchor="middle" x="71.5" y="-7.2" font-family="Helvetica,sans-Serif" font-size="11.00">Generated by SchemaSpy</text>
<!-- m_inventoryline -->
<g id="node1" class="node">
<title>m_inventoryline</title>
<g id="a_node1"><a xlink:href="../../tables/m_inventoryline.html" xlink:title="m_inventoryline" target="_top">
<polygon fill="#ffffff" stroke="transparent" points="273,-233 273,-467 484,-467 484,-233 273,-233"/>
<polygon fill="#f5f5f5" stroke="transparent" points="273.5,-445 273.5,-467 484.5,-467 484.5,-445 273.5,-445"/>
<polygon fill="none" stroke="black" points="273.5,-445 273.5,-467 484.5,-467 484.5,-445 273.5,-445"/>
<text text-anchor="start" x="278.5" y="-454.2" font-family="Helvetica,sans-Serif" font-weight="bold" font-size="11.00">m_inventoryline</text>
<text text-anchor="start" x="449.5" y="-453.2" font-family="Helvetica,sans-Serif" font-size="11.00">[table]</text>
<polygon fill="none" stroke="black" points="273.5,-423 273.5,-445 484.5,-445 484.5,-423 273.5,-423"/>
<image xlink:href="../../images/primaryKeys.png" width="11px" height="12px" preserveAspectRatio="xMinYMin meet" x="278.5" y="-440"/>
<text text-anchor="start" x="293.5" y="-431.2" font-family="Helvetica,sans-Serif" font-size="11.00">m_inventoryline_id</text>
<polygon fill="#ffffff" stroke="transparent" points="273.5,-401 273.5,-423 484.5,-423 484.5,-401 273.5,-401"/>
<polygon fill="none" stroke="black" points="273.5,-401 273.5,-423 484.5,-423 484.5,-401 273.5,-401"/>
<image xlink:href="../../images/foreignKeys.png" width="11px" height="12px" preserveAspectRatio="xMinYMin meet" x="278.5" y="-418"/>
<text text-anchor="start" x="293.5" y="-409.2" font-family="Helvetica,sans-Serif" font-size="11.00">m_inventory_id</text>
<polygon fill="#ffffff" stroke="transparent" points="273.5,-379 273.5,-401 484.5,-401 484.5,-379 273.5,-379"/>
<polygon fill="none" stroke="black" points="273.5,-379 273.5,-401 484.5,-401 484.5,-379 273.5,-379"/>
<image xlink:href="../../images/foreignKeys.png" width="11px" height="12px" preserveAspectRatio="xMinYMin meet" x="278.5" y="-396"/>
<text text-anchor="start" x="293.5" y="-387.2" font-family="Helvetica,sans-Serif" font-size="11.00">m_locator_id</text>
<polygon fill="#ffffff" stroke="transparent" points="273.5,-357 273.5,-379 484.5,-379 484.5,-357 273.5,-357"/>
<polygon fill="none" stroke="black" points="273.5,-357 273.5,-379 484.5,-379 484.5,-357 273.5,-357"/>
<image xlink:href="../../images/foreignKeys.png" width="11px" height="12px" preserveAspectRatio="xMinYMin meet" x="278.5" y="-374"/>
<text text-anchor="start" x="293.5" y="-365.2" font-family="Helvetica,sans-Serif" font-size="11.00">m_product_id</text>
<polygon fill="#ffffff" stroke="transparent" points="273.5,-335 273.5,-357 484.5,-357 484.5,-335 273.5,-335"/>
<polygon fill="none" stroke="black" points="273.5,-335 273.5,-357 484.5,-357 484.5,-335 273.5,-335"/>
<image xlink:href="../../images/foreignKeys.png" width="11px" height="12px" preserveAspectRatio="xMinYMin meet" x="278.5" y="-352"/>
<text text-anchor="start" x="293.5" y="-343.2" font-family="Helvetica,sans-Serif" font-size="11.00">m_attributesetinstance_id</text>
<polygon fill="none" stroke="black" points="273.5,-313 273.5,-335 484.5,-335 484.5,-313 273.5,-313"/>
<image xlink:href="../../images/foreignKeys.png" width="11px" height="12px" preserveAspectRatio="xMinYMin meet" x="278.5" y="-330"/>
<text text-anchor="start" x="293.5" y="-321.2" font-family="Helvetica,sans-Serif" font-size="11.00">c_charge_id</text>
<polygon fill="none" stroke="black" points="273.5,-291 273.5,-313 484.5,-313 484.5,-291 273.5,-291"/>
<image xlink:href="../../images/foreignKeys.png" width="11px" height="12px" preserveAspectRatio="xMinYMin meet" x="278.5" y="-308"/>
<text text-anchor="start" x="293.5" y="-299.2" font-family="Helvetica,sans-Serif" font-size="11.00">reversalline_id</text>
<polygon fill="#ffffff" stroke="transparent" points="273.5,-269 273.5,-291 484.5,-291 484.5,-269 273.5,-269"/>
<polygon fill="none" stroke="black" points="273.5,-269 273.5,-291 484.5,-291 484.5,-269 273.5,-269"/>
<text text-anchor="start" x="293.5" y="-277.2" font-family="Helvetica,sans-Serif" font-size="11.00">m_inventoryline_uu</text>
<polygon fill="none" stroke="black" points="273.5,-251 273.5,-269 484.5,-269 484.5,-251 273.5,-251"/>
<text text-anchor="start" x="276.5" y="-257.2" font-family="Helvetica,sans-Serif" font-size="11.00">...</text>
<polygon fill="#ffffff" stroke="transparent" points="273.5,-233 273.5,-251 484.5,-251 484.5,-233 273.5,-233"/>
<polygon fill="none" stroke="black" points="273.5,-233 273.5,-251 484.5,-251 484.5,-233 273.5,-233"/>
<polygon fill="#ffffff" stroke="transparent" points="274.5,-234 274.5,-250 345.5,-250 345.5,-234 274.5,-234"/>
<text text-anchor="start" x="276.5" y="-239.2" font-family="Helvetica,sans-Serif" font-size="11.00">&lt; 6</text>
<polygon fill="#ffffff" stroke="transparent" points="345.5,-234 345.5,-250 407.5,-250 407.5,-234 345.5,-234"/>
<text text-anchor="start" x="373" y="-239.2" font-family="Helvetica,sans-Serif" font-size="11.00"> &#160;</text>
<polygon fill="#ffffff" stroke="transparent" points="407.5,-234 407.5,-250 483.5,-250 483.5,-234 407.5,-234"/>
<text text-anchor="start" x="459.5" y="-239.2" font-family="Helvetica,sans-Serif" font-size="11.00">13 &gt;</text>
<polygon fill="black" stroke="black" points="345.5,-234 345.5,-250 345.5,-250 345.5,-234 345.5,-234"/>
<polygon fill="black" stroke="black" points="407.5,-234 407.5,-250 407.5,-250 407.5,-234 407.5,-234"/>
</a>
</g>
</g>
<!-- m_attributesetinstance -->
<g id="node2" class="node">
<title>m_attributesetinstance</title>
<g id="a_node2"><a xlink:href="../../tables/m_attributesetinstance.html" xlink:title="m_attributesetinstance" target="_top">
<polygon fill="#ffffff" stroke="transparent" points="8,-164 8,-310 224,-310 224,-164 8,-164"/>
<polygon fill="#f5f5f5" stroke="transparent" points="8,-288 8,-310 224,-310 224,-288 8,-288"/>
<polygon fill="none" stroke="black" points="8,-288 8,-310 224,-310 224,-288 8,-288"/>
<text text-anchor="start" x="13" y="-297.2" font-family="Helvetica,sans-Serif" font-weight="bold" font-size="11.00">m_attributesetinstance</text>
<text text-anchor="start" x="189" y="-296.2" font-family="Helvetica,sans-Serif" font-size="11.00">[table]</text>
<polygon fill="none" stroke="black" points="8,-266 8,-288 224,-288 224,-266 8,-266"/>
<image xlink:href="../../images/primaryKeys.png" width="11px" height="12px" preserveAspectRatio="xMinYMin meet" x="13" y="-283"/>
<text text-anchor="start" x="28" y="-274.2" font-family="Helvetica,sans-Serif" font-size="11.00">m_attributesetinstance_id</text>
<polygon fill="none" stroke="black" points="8,-244 8,-266 224,-266 224,-244 8,-244"/>
<image xlink:href="../../images/foreignKeys.png" width="11px" height="12px" preserveAspectRatio="xMinYMin meet" x="13" y="-261"/>
<text text-anchor="start" x="28" y="-252.2" font-family="Helvetica,sans-Serif" font-size="11.00">m_attributeset_id</text>
<polygon fill="none" stroke="black" points="8,-222 8,-244 224,-244 224,-222 8,-222"/>
<image xlink:href="../../images/foreignKeys.png" width="11px" height="12px" preserveAspectRatio="xMinYMin meet" x="13" y="-239"/>
<text text-anchor="start" x="28" y="-230.2" font-family="Helvetica,sans-Serif" font-size="11.00">m_lot_id</text>
<polygon fill="#ffffff" stroke="transparent" points="8,-200 8,-222 224,-222 224,-200 8,-200"/>
<polygon fill="none" stroke="black" points="8,-200 8,-222 224,-222 224,-200 8,-200"/>
<text text-anchor="start" x="28" y="-208.2" font-family="Helvetica,sans-Serif" font-size="11.00">m_attributesetinstance_uu</text>
<polygon fill="none" stroke="black" points="8,-182 8,-200 224,-200 224,-182 8,-182"/>
<text text-anchor="start" x="11" y="-188.2" font-family="Helvetica,sans-Serif" font-size="11.00">...</text>
<polygon fill="#ffffff" stroke="transparent" points="8,-164 8,-182 224,-182 224,-164 8,-164"/>
<polygon fill="none" stroke="black" points="8,-164 8,-182 224,-182 224,-164 8,-164"/>
<polygon fill="#ffffff" stroke="transparent" points="9,-165 9,-181 75,-181 75,-165 9,-165"/>
<text text-anchor="start" x="11" y="-170.2" font-family="Helvetica,sans-Serif" font-size="11.00">&lt; 2</text>
<polygon fill="#ffffff" stroke="transparent" points="75,-165 75,-181 152,-181 152,-165 75,-165"/>
<text text-anchor="start" x="99.5" y="-170.2" font-family="Helvetica,sans-Serif" font-size="11.00">1 row</text>
<polygon fill="#ffffff" stroke="transparent" points="152,-165 152,-181 223,-181 223,-165 152,-165"/>
<text text-anchor="start" x="199" y="-170.2" font-family="Helvetica,sans-Serif" font-size="11.00">50 &gt;</text>
<polygon fill="black" stroke="black" points="75,-165 75,-181 75,-181 75,-165 75,-165"/>
<polygon fill="black" stroke="black" points="152,-165 152,-181 152,-181 152,-165 152,-165"/>
</a>
</g>
</g>
<!-- m_inventoryline&#45;&gt;m_attributesetinstance -->
<g id="edge1" class="edge">
<title>m_inventoryline:w&#45;&gt;m_attributesetinstance:e</title>
<path fill="none" stroke="black" d="M258.79,-341.04C242.39,-325.22 256.12,-277 225,-277"/>
<polygon fill="black" stroke="black" points="264.98,-343.28 271.27,-349.39 268.74,-344.64 272.5,-346 272.5,-346 272.5,-346 268.74,-344.64 273.73,-342.61 264.98,-343.28 264.98,-343.28"/>
<ellipse fill="none" stroke="black" cx="261.97" cy="-342.19" rx="3.2" ry="3.2"/>
</g>
<!-- m_inventorylinema -->
<g id="node3" class="node">
<title>m_inventorylinema</title>
<g id="a_node3"><a xlink:href="../../tables/m_inventorylinema.html" xlink:title="m_inventorylinema" target="_top">
<polygon fill="#ffffff" stroke="transparent" points="533,-37 533,-367 831,-367 831,-37 533,-37"/>
<polygon fill="#f5f5f5" stroke="transparent" points="535,-343 535,-365 829,-365 829,-343 535,-343"/>
<polygon fill="none" stroke="black" points="535,-343 535,-365 829,-365 829,-343 535,-343"/>
<text text-anchor="start" x="540" y="-352.2" font-family="Helvetica,sans-Serif" font-weight="bold" font-size="11.00">m_inventorylinema</text>
<text text-anchor="start" x="794" y="-351.2" font-family="Helvetica,sans-Serif" font-size="11.00">[table]</text>
<polygon fill="none" stroke="black" points="535,-321 535,-343 746,-343 746,-321 535,-321"/>
<image xlink:href="../../images/primaryKeys.png" width="11px" height="12px" preserveAspectRatio="xMinYMin meet" x="540" y="-338"/>
<text text-anchor="start" x="555" y="-329.2" font-family="Helvetica,sans-Serif" font-size="11.00">m_inventoryline_id</text>
<polygon fill="none" stroke="black" points="746,-321 746,-343 829,-343 829,-321 746,-321"/>
<text text-anchor="start" x="749" y="-329.2" font-family="Helvetica,sans-Serif" font-size="11.00">numeric[10]</text>
<polygon fill="none" stroke="black" points="535,-299 535,-321 746,-321 746,-299 535,-299"/>
<image xlink:href="../../images/primaryKeys.png" width="11px" height="12px" preserveAspectRatio="xMinYMin meet" x="540" y="-316"/>
<text text-anchor="start" x="555" y="-307.2" font-family="Helvetica,sans-Serif" font-size="11.00">m_attributesetinstance_id</text>
<polygon fill="none" stroke="black" points="746,-299 746,-321 829,-321 829,-299 746,-299"/>
<text text-anchor="start" x="749" y="-307.2" font-family="Helvetica,sans-Serif" font-size="11.00">numeric[10]</text>
<polygon fill="none" stroke="black" points="535,-277 535,-299 746,-299 746,-277 535,-277"/>
<text text-anchor="start" x="555" y="-285.2" font-family="Helvetica,sans-Serif" font-size="11.00">ad_client_id</text>
<polygon fill="none" stroke="black" points="746,-277 746,-299 829,-299 829,-277 746,-277"/>
<text text-anchor="start" x="749" y="-285.2" font-family="Helvetica,sans-Serif" font-size="11.00">numeric[10]</text>
<polygon fill="none" stroke="black" points="535,-255 535,-277 746,-277 746,-255 535,-255"/>
<text text-anchor="start" x="555" y="-263.2" font-family="Helvetica,sans-Serif" font-size="11.00">ad_org_id</text>
<polygon fill="none" stroke="black" points="746,-255 746,-277 829,-277 829,-255 746,-255"/>
<text text-anchor="start" x="749" y="-263.2" font-family="Helvetica,sans-Serif" font-size="11.00">numeric[10]</text>
<polygon fill="none" stroke="black" points="535,-233 535,-255 746,-255 746,-233 535,-233"/>
<text text-anchor="start" x="555" y="-241.2" font-family="Helvetica,sans-Serif" font-size="11.00">isactive</text>
<polygon fill="none" stroke="black" points="746,-233 746,-255 829,-255 829,-233 746,-233"/>
<text text-anchor="start" x="749" y="-241.2" font-family="Helvetica,sans-Serif" font-size="11.00">bpchar[1]</text>
<polygon fill="none" stroke="black" points="535,-211 535,-233 746,-233 746,-211 535,-211"/>
<text text-anchor="start" x="555" y="-219.2" font-family="Helvetica,sans-Serif" font-size="11.00">created</text>
<polygon fill="none" stroke="black" points="746,-211 746,-233 829,-233 829,-211 746,-211"/>
<text text-anchor="start" x="749" y="-219.2" font-family="Helvetica,sans-Serif" font-size="11.00">timestamp[29,6]</text>
<polygon fill="none" stroke="black" points="535,-189 535,-211 746,-211 746,-189 535,-189"/>
<text text-anchor="start" x="555" y="-197.2" font-family="Helvetica,sans-Serif" font-size="11.00">createdby</text>
<polygon fill="none" stroke="black" points="746,-189 746,-211 829,-211 829,-189 746,-189"/>
<text text-anchor="start" x="749" y="-197.2" font-family="Helvetica,sans-Serif" font-size="11.00">numeric[10]</text>
<polygon fill="none" stroke="black" points="535,-167 535,-189 746,-189 746,-167 535,-167"/>
<text text-anchor="start" x="555" y="-175.2" font-family="Helvetica,sans-Serif" font-size="11.00">updated</text>
<polygon fill="none" stroke="black" points="746,-167 746,-189 829,-189 829,-167 746,-167"/>
<text text-anchor="start" x="749" y="-175.2" font-family="Helvetica,sans-Serif" font-size="11.00">timestamp[29,6]</text>
<polygon fill="none" stroke="black" points="535,-145 535,-167 746,-167 746,-145 535,-145"/>
<text text-anchor="start" x="555" y="-153.2" font-family="Helvetica,sans-Serif" font-size="11.00">updatedby</text>
<polygon fill="none" stroke="black" points="746,-145 746,-167 829,-167 829,-145 746,-145"/>
<text text-anchor="start" x="749" y="-153.2" font-family="Helvetica,sans-Serif" font-size="11.00">numeric[10]</text>
<polygon fill="none" stroke="black" points="535,-123 535,-145 746,-145 746,-123 535,-123"/>
<text text-anchor="start" x="555" y="-131.2" font-family="Helvetica,sans-Serif" font-size="11.00">movementqty</text>
<polygon fill="none" stroke="black" points="746,-123 746,-145 829,-145 829,-123 746,-123"/>
<text text-anchor="start" x="749" y="-131.2" font-family="Helvetica,sans-Serif" font-size="11.00">numeric[0]</text>
<polygon fill="#ffffff" stroke="transparent" points="535,-101 535,-123 746,-123 746,-101 535,-101"/>
<polygon fill="none" stroke="black" points="535,-101 535,-123 746,-123 746,-101 535,-101"/>
<text text-anchor="start" x="555" y="-109.2" font-family="Helvetica,sans-Serif" font-size="11.00">m_inventorylinema_uu</text>
<polygon fill="none" stroke="black" points="746,-101 746,-123 829,-123 829,-101 746,-101"/>
<text text-anchor="start" x="749" y="-109.2" font-family="Helvetica,sans-Serif" font-size="11.00">varchar[36]</text>
<polygon fill="none" stroke="black" points="535,-79 535,-101 746,-101 746,-79 535,-79"/>
<image xlink:href="../../images/primaryKeys.png" width="11px" height="12px" preserveAspectRatio="xMinYMin meet" x="540" y="-96"/>
<text text-anchor="start" x="555" y="-87.2" font-family="Helvetica,sans-Serif" font-size="11.00">datematerialpolicy</text>
<polygon fill="none" stroke="black" points="746,-79 746,-101 829,-101 829,-79 746,-79"/>
<text text-anchor="start" x="749" y="-87.2" font-family="Helvetica,sans-Serif" font-size="11.00">timestamp[29,6]</text>
<polygon fill="none" stroke="black" points="535,-57 535,-79 746,-79 746,-57 535,-57"/>
<text text-anchor="start" x="555" y="-65.2" font-family="Helvetica,sans-Serif" font-size="11.00">isautogenerated</text>
<polygon fill="none" stroke="black" points="746,-57 746,-79 829,-79 829,-57 746,-57"/>
<text text-anchor="start" x="749" y="-65.2" font-family="Helvetica,sans-Serif" font-size="11.00">bpchar[1]</text>
<polygon fill="#ffffff" stroke="transparent" points="535,-39 535,-57 829,-57 829,-39 535,-39"/>
<polygon fill="none" stroke="black" points="535,-39 535,-57 829,-57 829,-39 535,-39"/>
<polygon fill="#ffffff" stroke="transparent" points="536,-40 536,-56 637,-56 637,-40 536,-40"/>
<text text-anchor="start" x="538" y="-45.2" font-family="Helvetica,sans-Serif" font-size="11.00">&lt; 2</text>
<polygon fill="#ffffff" stroke="transparent" points="637,-40 637,-56 728,-56 728,-40 637,-40"/>
<text text-anchor="start" x="679" y="-45.2" font-family="Helvetica,sans-Serif" font-size="11.00"> &#160;</text>
<polygon fill="#ffffff" stroke="transparent" points="728,-40 728,-56 828,-56 828,-40 728,-40"/>
<text text-anchor="start" x="810" y="-45.2" font-family="Helvetica,sans-Serif" font-size="11.00">0 &gt;</text>
<polygon fill="black" stroke="black" points="637,-40 637,-56 637,-56 637,-40 637,-40"/>
<polygon fill="black" stroke="black" points="728,-40 728,-56 728,-56 728,-40 728,-40"/>
<polygon fill="none" stroke="black" stroke-width="2" points="534,-38 534,-366 830,-366 830,-38 534,-38"/>
</a>
</g>
</g>
<!-- m_inventorylinema&#45;&gt;m_inventoryline -->
<g id="edge3" class="edge">
<title>m_inventorylinema:w&#45;&gt;m_inventoryline:e</title>
<path fill="none" stroke="black" d="M519.89,-336.12C494.87,-355.21 529.62,-434 485.5,-434"/>
<polygon fill="black" stroke="black" points="526.32,-334.25 535.01,-335.46 530.16,-333.12 534,-332 534,-332 534,-332 530.16,-333.12 532.99,-328.54 526.32,-334.25 526.32,-334.25"/>
<ellipse fill="none" stroke="black" cx="523.25" cy="-335.14" rx="3.2" ry="3.2"/>
</g>
<!-- m_inventorylinema&#45;&gt;m_attributesetinstance -->
<g id="edge2" class="edge">
<title>m_inventorylinema:w&#45;&gt;m_attributesetinstance:e</title>
<path fill="none" stroke="black" d="M519.95,-306.3C500.31,-292.31 523.11,-242.53 492,-223 406.55,-169.36 355.1,-177.61 265,-223 238.33,-236.44 254.87,-277 225,-277"/>
<polygon fill="black" stroke="black" points="526.26,-307.96 533.08,-313.48 530.13,-308.98 534,-310 534,-310 534,-310 530.13,-308.98 534.92,-306.52 526.26,-307.96 526.26,-307.96"/>
<ellipse fill="none" stroke="black" cx="523.17" cy="-307.15" rx="3.2" ry="3.2"/>
</g>
</g>
</svg>
