<?xml version="1.0" encoding="UTF-8" standalone="no"?>
<!DOCTYPE svg PUBLIC "-//W3C//DTD SVG 1.1//EN"
 "http://www.w3.org/Graphics/SVG/1.1/DTD/svg11.dtd">
<!-- Generated by graphviz version 2.43.0 (0)
 -->
<!-- Title: oneDegreeRelationshipsDiagram Pages: 1 -->
<svg width="533pt" height="533pt"
 viewBox="0.00 0.00 533.00 533.00" xmlns="http://www.w3.org/2000/svg" xmlns:xlink="http://www.w3.org/1999/xlink">
<g id="graph0" class="graph" transform="scale(1 1) rotate(0) translate(4 529)">
<title>oneDegreeRelationshipsDiagram</title>
<polygon fill="#ffffff" stroke="transparent" points="-4,4 -4,-529 529,-529 529,4 -4,4"/>
<text text-anchor="middle" x="71.5" y="-7.2" font-family="Helvetica,sans-Serif" font-size="11.00">Generated by SchemaSpy</text>
<!-- m_lotctlexclude -->
<g id="node1" class="node">
<title>m_lotctlexclude</title>
<g id="a_node1"><a xlink:href="../../tables/m_lotctlexclude.html" xlink:title="m_lotctlexclude" target="_top">
<polygon fill="#ffffff" stroke="transparent" points="270,-213 270,-521 517,-521 517,-213 270,-213"/>
<polygon fill="#f5f5f5" stroke="transparent" points="272.5,-497 272.5,-519 515.5,-519 515.5,-497 272.5,-497"/>
<polygon fill="none" stroke="black" points="272.5,-497 272.5,-519 515.5,-519 515.5,-497 272.5,-497"/>
<text text-anchor="start" x="277.5" y="-506.2" font-family="Helvetica,sans-Serif" font-weight="bold" font-size="11.00">m_lotctlexclude</text>
<text text-anchor="start" x="480.5" y="-505.2" font-family="Helvetica,sans-Serif" font-size="11.00">[table]</text>
<polygon fill="none" stroke="black" points="272.5,-475 272.5,-497 432.5,-497 432.5,-475 272.5,-475"/>
<image xlink:href="../../images/primaryKeys.png" width="11px" height="12px" preserveAspectRatio="xMinYMin meet" x="277.5" y="-492"/>
<text text-anchor="start" x="292.5" y="-483.2" font-family="Helvetica,sans-Serif" font-size="11.00">m_lotctlexclude_id</text>
<polygon fill="none" stroke="black" points="432.5,-475 432.5,-497 515.5,-497 515.5,-475 432.5,-475"/>
<text text-anchor="start" x="435.5" y="-483.2" font-family="Helvetica,sans-Serif" font-size="11.00">numeric[10]</text>
<polygon fill="none" stroke="black" points="272.5,-453 272.5,-475 432.5,-475 432.5,-453 272.5,-453"/>
<text text-anchor="start" x="292.5" y="-461.2" font-family="Helvetica,sans-Serif" font-size="11.00">ad_client_id</text>
<polygon fill="none" stroke="black" points="432.5,-453 432.5,-475 515.5,-475 515.5,-453 432.5,-453"/>
<text text-anchor="start" x="435.5" y="-461.2" font-family="Helvetica,sans-Serif" font-size="11.00">numeric[10]</text>
<polygon fill="none" stroke="black" points="272.5,-431 272.5,-453 432.5,-453 432.5,-431 272.5,-431"/>
<text text-anchor="start" x="292.5" y="-439.2" font-family="Helvetica,sans-Serif" font-size="11.00">ad_org_id</text>
<polygon fill="none" stroke="black" points="432.5,-431 432.5,-453 515.5,-453 515.5,-431 432.5,-431"/>
<text text-anchor="start" x="435.5" y="-439.2" font-family="Helvetica,sans-Serif" font-size="11.00">numeric[10]</text>
<polygon fill="none" stroke="black" points="272.5,-409 272.5,-431 432.5,-431 432.5,-409 272.5,-409"/>
<text text-anchor="start" x="292.5" y="-417.2" font-family="Helvetica,sans-Serif" font-size="11.00">isactive</text>
<polygon fill="none" stroke="black" points="432.5,-409 432.5,-431 515.5,-431 515.5,-409 432.5,-409"/>
<text text-anchor="start" x="435.5" y="-417.2" font-family="Helvetica,sans-Serif" font-size="11.00">bpchar[1]</text>
<polygon fill="none" stroke="black" points="272.5,-387 272.5,-409 432.5,-409 432.5,-387 272.5,-387"/>
<text text-anchor="start" x="292.5" y="-395.2" font-family="Helvetica,sans-Serif" font-size="11.00">created</text>
<polygon fill="none" stroke="black" points="432.5,-387 432.5,-409 515.5,-409 515.5,-387 432.5,-387"/>
<text text-anchor="start" x="435.5" y="-395.2" font-family="Helvetica,sans-Serif" font-size="11.00">timestamp[29,6]</text>
<polygon fill="none" stroke="black" points="272.5,-365 272.5,-387 432.5,-387 432.5,-365 272.5,-365"/>
<text text-anchor="start" x="292.5" y="-373.2" font-family="Helvetica,sans-Serif" font-size="11.00">createdby</text>
<polygon fill="none" stroke="black" points="432.5,-365 432.5,-387 515.5,-387 515.5,-365 432.5,-365"/>
<text text-anchor="start" x="435.5" y="-373.2" font-family="Helvetica,sans-Serif" font-size="11.00">numeric[10]</text>
<polygon fill="none" stroke="black" points="272.5,-343 272.5,-365 432.5,-365 432.5,-343 272.5,-343"/>
<text text-anchor="start" x="292.5" y="-351.2" font-family="Helvetica,sans-Serif" font-size="11.00">updated</text>
<polygon fill="none" stroke="black" points="432.5,-343 432.5,-365 515.5,-365 515.5,-343 432.5,-343"/>
<text text-anchor="start" x="435.5" y="-351.2" font-family="Helvetica,sans-Serif" font-size="11.00">timestamp[29,6]</text>
<polygon fill="none" stroke="black" points="272.5,-321 272.5,-343 432.5,-343 432.5,-321 272.5,-321"/>
<text text-anchor="start" x="292.5" y="-329.2" font-family="Helvetica,sans-Serif" font-size="11.00">updatedby</text>
<polygon fill="none" stroke="black" points="432.5,-321 432.5,-343 515.5,-343 515.5,-321 432.5,-321"/>
<text text-anchor="start" x="435.5" y="-329.2" font-family="Helvetica,sans-Serif" font-size="11.00">numeric[10]</text>
<polygon fill="none" stroke="black" points="272.5,-299 272.5,-321 432.5,-321 432.5,-299 272.5,-299"/>
<image xlink:href="../../images/foreignKeys.png" width="11px" height="12px" preserveAspectRatio="xMinYMin meet" x="277.5" y="-316"/>
<text text-anchor="start" x="292.5" y="-307.2" font-family="Helvetica,sans-Serif" font-size="11.00">m_lotctl_id</text>
<polygon fill="none" stroke="black" points="432.5,-299 432.5,-321 515.5,-321 515.5,-299 432.5,-299"/>
<text text-anchor="start" x="435.5" y="-307.2" font-family="Helvetica,sans-Serif" font-size="11.00">numeric[10]</text>
<polygon fill="none" stroke="black" points="272.5,-277 272.5,-299 432.5,-299 432.5,-277 272.5,-277"/>
<image xlink:href="../../images/foreignKeys.png" width="11px" height="12px" preserveAspectRatio="xMinYMin meet" x="277.5" y="-294"/>
<text text-anchor="start" x="292.5" y="-285.2" font-family="Helvetica,sans-Serif" font-size="11.00">ad_table_id</text>
<polygon fill="none" stroke="black" points="432.5,-277 432.5,-299 515.5,-299 515.5,-277 432.5,-277"/>
<text text-anchor="start" x="435.5" y="-285.2" font-family="Helvetica,sans-Serif" font-size="11.00">numeric[10]</text>
<polygon fill="none" stroke="black" points="272.5,-255 272.5,-277 432.5,-277 432.5,-255 272.5,-255"/>
<text text-anchor="start" x="292.5" y="-263.2" font-family="Helvetica,sans-Serif" font-size="11.00">issotrx</text>
<polygon fill="none" stroke="black" points="432.5,-255 432.5,-277 515.5,-277 515.5,-255 432.5,-255"/>
<text text-anchor="start" x="435.5" y="-263.2" font-family="Helvetica,sans-Serif" font-size="11.00">bpchar[1]</text>
<polygon fill="#ffffff" stroke="transparent" points="272.5,-233 272.5,-255 432.5,-255 432.5,-233 272.5,-233"/>
<polygon fill="none" stroke="black" points="272.5,-233 272.5,-255 432.5,-255 432.5,-233 272.5,-233"/>
<text text-anchor="start" x="292.5" y="-241.2" font-family="Helvetica,sans-Serif" font-size="11.00">m_lotctlexclude_uu</text>
<polygon fill="none" stroke="black" points="432.5,-233 432.5,-255 515.5,-255 515.5,-233 432.5,-233"/>
<text text-anchor="start" x="435.5" y="-241.2" font-family="Helvetica,sans-Serif" font-size="11.00">varchar[36]</text>
<polygon fill="#ffffff" stroke="transparent" points="272.5,-215 272.5,-233 515.5,-233 515.5,-215 272.5,-215"/>
<polygon fill="none" stroke="black" points="272.5,-215 272.5,-233 515.5,-233 515.5,-215 272.5,-215"/>
<polygon fill="#ffffff" stroke="transparent" points="273.5,-216 273.5,-232 357.5,-232 357.5,-216 273.5,-216"/>
<text text-anchor="start" x="275.5" y="-221.2" font-family="Helvetica,sans-Serif" font-size="11.00">&lt; 2</text>
<polygon fill="#ffffff" stroke="transparent" points="357.5,-216 357.5,-232 431.5,-232 431.5,-216 357.5,-216"/>
<text text-anchor="start" x="391" y="-221.2" font-family="Helvetica,sans-Serif" font-size="11.00"> &#160;</text>
<polygon fill="#ffffff" stroke="transparent" points="431.5,-216 431.5,-232 514.5,-232 514.5,-216 431.5,-216"/>
<text text-anchor="start" x="496.5" y="-221.2" font-family="Helvetica,sans-Serif" font-size="11.00">0 &gt;</text>
<polygon fill="black" stroke="black" points="357.5,-216 357.5,-232 357.5,-232 357.5,-216 357.5,-216"/>
<polygon fill="black" stroke="black" points="431.5,-216 431.5,-232 431.5,-232 431.5,-216 431.5,-216"/>
<polygon fill="none" stroke="black" stroke-width="2" points="271,-214 271,-520 516,-520 516,-214 271,-214"/>
</a>
</g>
</g>
<!-- ad_table -->
<g id="node2" class="node">
<title>ad_table</title>
<g id="a_node2"><a xlink:href="../../tables/ad_table.html" xlink:title="ad_table" target="_top">
<polygon fill="#ffffff" stroke="transparent" points="8,-37 8,-271 221,-271 221,-37 8,-37"/>
<polygon fill="#f5f5f5" stroke="transparent" points="8.5,-249 8.5,-271 221.5,-271 221.5,-249 8.5,-249"/>
<polygon fill="none" stroke="black" points="8.5,-249 8.5,-271 221.5,-271 221.5,-249 8.5,-249"/>
<text text-anchor="start" x="13.5" y="-258.2" font-family="Helvetica,sans-Serif" font-weight="bold" font-size="11.00">ad_table</text>
<text text-anchor="start" x="186.5" y="-257.2" font-family="Helvetica,sans-Serif" font-size="11.00">[table]</text>
<polygon fill="none" stroke="black" points="8.5,-227 8.5,-249 221.5,-249 221.5,-227 8.5,-227"/>
<image xlink:href="../../images/primaryKeys.png" width="11px" height="12px" preserveAspectRatio="xMinYMin meet" x="13.5" y="-244"/>
<text text-anchor="start" x="28.5" y="-235.2" font-family="Helvetica,sans-Serif" font-size="11.00">ad_table_id</text>
<polygon fill="none" stroke="black" points="8.5,-205 8.5,-227 221.5,-227 221.5,-205 8.5,-205"/>
<image xlink:href="../../images/foreignKeys.png" width="11px" height="12px" preserveAspectRatio="xMinYMin meet" x="13.5" y="-222"/>
<text text-anchor="start" x="28.5" y="-213.2" font-family="Helvetica,sans-Serif" font-size="11.00">ad_client_id</text>
<polygon fill="none" stroke="black" points="8.5,-183 8.5,-205 221.5,-205 221.5,-183 8.5,-183"/>
<image xlink:href="../../images/foreignKeys.png" width="11px" height="12px" preserveAspectRatio="xMinYMin meet" x="13.5" y="-200"/>
<text text-anchor="start" x="28.5" y="-191.2" font-family="Helvetica,sans-Serif" font-size="11.00">ad_org_id</text>
<polygon fill="none" stroke="black" points="8.5,-161 8.5,-183 221.5,-183 221.5,-161 8.5,-161"/>
<image xlink:href="../../images/foreignKeys.png" width="11px" height="12px" preserveAspectRatio="xMinYMin meet" x="13.5" y="-178"/>
<text text-anchor="start" x="28.5" y="-169.2" font-family="Helvetica,sans-Serif" font-size="11.00">entitytype</text>
<polygon fill="none" stroke="black" points="8.5,-139 8.5,-161 221.5,-161 221.5,-139 8.5,-139"/>
<image xlink:href="../../images/foreignKeys.png" width="11px" height="12px" preserveAspectRatio="xMinYMin meet" x="13.5" y="-156"/>
<text text-anchor="start" x="28.5" y="-147.2" font-family="Helvetica,sans-Serif" font-size="11.00">ad_window_id</text>
<polygon fill="none" stroke="black" points="8.5,-117 8.5,-139 221.5,-139 221.5,-117 8.5,-117"/>
<image xlink:href="../../images/foreignKeys.png" width="11px" height="12px" preserveAspectRatio="xMinYMin meet" x="13.5" y="-134"/>
<text text-anchor="start" x="28.5" y="-125.2" font-family="Helvetica,sans-Serif" font-size="11.00">ad_val_rule_id</text>
<polygon fill="none" stroke="black" points="8.5,-95 8.5,-117 221.5,-117 221.5,-95 8.5,-95"/>
<image xlink:href="../../images/foreignKeys.png" width="11px" height="12px" preserveAspectRatio="xMinYMin meet" x="13.5" y="-112"/>
<text text-anchor="start" x="28.5" y="-103.2" font-family="Helvetica,sans-Serif" font-size="11.00">po_window_id</text>
<polygon fill="#ffffff" stroke="transparent" points="8.5,-73 8.5,-95 221.5,-95 221.5,-73 8.5,-73"/>
<polygon fill="none" stroke="black" points="8.5,-73 8.5,-95 221.5,-95 221.5,-73 8.5,-73"/>
<text text-anchor="start" x="28.5" y="-81.2" font-family="Helvetica,sans-Serif" font-size="11.00">ad_table_uu</text>
<polygon fill="none" stroke="black" points="8.5,-55 8.5,-73 221.5,-73 221.5,-55 8.5,-55"/>
<text text-anchor="start" x="11.5" y="-61.2" font-family="Helvetica,sans-Serif" font-size="11.00">...</text>
<polygon fill="#ffffff" stroke="transparent" points="8.5,-37 8.5,-55 221.5,-55 221.5,-37 8.5,-37"/>
<polygon fill="none" stroke="black" points="8.5,-37 8.5,-55 221.5,-55 221.5,-37 8.5,-37"/>
<polygon fill="#ffffff" stroke="transparent" points="9.5,-38 9.5,-54 65.5,-54 65.5,-38 9.5,-38"/>
<text text-anchor="start" x="11.5" y="-43.2" font-family="Helvetica,sans-Serif" font-size="11.00">&lt; 6</text>
<polygon fill="#ffffff" stroke="transparent" points="65.5,-38 65.5,-54 159.5,-54 159.5,-38 65.5,-38"/>
<text text-anchor="start" x="85.5" y="-43.2" font-family="Helvetica,sans-Serif" font-size="11.00">1.443 rows</text>
<polygon fill="#ffffff" stroke="transparent" points="159.5,-38 159.5,-54 220.5,-54 220.5,-38 159.5,-38"/>
<text text-anchor="start" x="196.5" y="-43.2" font-family="Helvetica,sans-Serif" font-size="11.00">83 &gt;</text>
<polygon fill="black" stroke="black" points="65.5,-38 65.5,-54 65.5,-54 65.5,-38 65.5,-38"/>
<polygon fill="black" stroke="black" points="159.5,-38 159.5,-54 159.5,-54 159.5,-38 159.5,-38"/>
</a>
</g>
</g>
<!-- m_lotctlexclude&#45;&gt;ad_table -->
<g id="edge1" class="edge">
<title>m_lotctlexclude:w&#45;&gt;ad_table:e</title>
<path fill="none" stroke="black" d="M257.68,-283.02C243.86,-270.38 247.54,-238 222.5,-238"/>
<polygon fill="black" stroke="black" points="263.97,-285.29 270.28,-291.39 267.74,-286.64 271.5,-288 271.5,-288 271.5,-288 267.74,-286.64 272.72,-284.61 263.97,-285.29 263.97,-285.29"/>
<ellipse fill="none" stroke="black" cx="260.96" cy="-284.2" rx="3.2" ry="3.2"/>
</g>
<!-- m_lotctl -->
<g id="node3" class="node">
<title>m_lotctl</title>
<g id="a_node3"><a xlink:href="../../tables/m_lotctl.html" xlink:title="m_lotctl" target="_top">
<polygon fill="#ffffff" stroke="transparent" points="58,-292 58,-394 171,-394 171,-292 58,-292"/>
<polygon fill="#f5f5f5" stroke="transparent" points="58.5,-372 58.5,-394 171.5,-394 171.5,-372 58.5,-372"/>
<polygon fill="none" stroke="black" points="58.5,-372 58.5,-394 171.5,-394 171.5,-372 58.5,-372"/>
<text text-anchor="start" x="63.5" y="-381.2" font-family="Helvetica,sans-Serif" font-weight="bold" font-size="11.00">m_lotctl</text>
<text text-anchor="start" x="136.5" y="-380.2" font-family="Helvetica,sans-Serif" font-size="11.00">[table]</text>
<polygon fill="none" stroke="black" points="58.5,-350 58.5,-372 171.5,-372 171.5,-350 58.5,-350"/>
<image xlink:href="../../images/primaryKeys.png" width="11px" height="12px" preserveAspectRatio="xMinYMin meet" x="63.5" y="-367"/>
<text text-anchor="start" x="78.5" y="-358.2" font-family="Helvetica,sans-Serif" font-size="11.00">m_lotctl_id</text>
<polygon fill="#ffffff" stroke="transparent" points="58.5,-328 58.5,-350 171.5,-350 171.5,-328 58.5,-328"/>
<polygon fill="none" stroke="black" points="58.5,-328 58.5,-350 171.5,-350 171.5,-328 58.5,-328"/>
<text text-anchor="start" x="78.5" y="-336.2" font-family="Helvetica,sans-Serif" font-size="11.00">m_lotctl_uu</text>
<polygon fill="none" stroke="black" points="58.5,-310 58.5,-328 171.5,-328 171.5,-310 58.5,-310"/>
<text text-anchor="start" x="61.5" y="-316.2" font-family="Helvetica,sans-Serif" font-size="11.00">...</text>
<polygon fill="#ffffff" stroke="transparent" points="58.5,-292 58.5,-310 171.5,-310 171.5,-292 58.5,-292"/>
<polygon fill="none" stroke="black" points="58.5,-292 58.5,-310 171.5,-310 171.5,-292 58.5,-292"/>
<polygon fill="#ffffff" stroke="transparent" points="59.5,-293 59.5,-309 93.5,-309 93.5,-293 59.5,-293"/>
<text text-anchor="start" x="61.5" y="-298.2" font-family="Helvetica,sans-Serif" font-size="11.00"> &#160;</text>
<polygon fill="#ffffff" stroke="transparent" points="93.5,-293 93.5,-309 127.5,-309 127.5,-293 93.5,-293"/>
<text text-anchor="start" x="107" y="-298.2" font-family="Helvetica,sans-Serif" font-size="11.00"> &#160;</text>
<polygon fill="#ffffff" stroke="transparent" points="127.5,-293 127.5,-309 170.5,-309 170.5,-293 127.5,-293"/>
<text text-anchor="start" x="152.5" y="-298.2" font-family="Helvetica,sans-Serif" font-size="11.00">3 &gt;</text>
<polygon fill="black" stroke="black" points="93.5,-293 93.5,-309 93.5,-309 93.5,-293 93.5,-293"/>
<polygon fill="black" stroke="black" points="127.5,-293 127.5,-309 127.5,-309 127.5,-293 127.5,-293"/>
</a>
</g>
</g>
<!-- m_lotctlexclude&#45;&gt;m_lotctl -->
<g id="edge2" class="edge">
<title>m_lotctlexclude:w&#45;&gt;m_lotctl:e</title>
<path fill="none" stroke="black" d="M256.91,-311.7C221.41,-320.55 216.58,-361 172.5,-361"/>
<polygon fill="black" stroke="black" points="263.55,-310.92 271.92,-313.58 267.53,-310.46 271.5,-310 271.5,-310 271.5,-310 267.53,-310.46 271.08,-306.42 263.55,-310.92 263.55,-310.92"/>
<ellipse fill="none" stroke="black" cx="260.37" cy="-311.29" rx="3.2" ry="3.2"/>
</g>
</g>
</svg>
