<?xml version="1.0" encoding="UTF-8" standalone="no"?>
<!DOCTYPE svg PUBLIC "-//W3C//DTD SVG 1.1//EN"
 "http://www.w3.org/Graphics/SVG/1.1/DTD/svg11.dtd">
<!-- Generated by graphviz version 2.43.0 (0)
 -->
<!-- Title: oneDegreeRelationshipsDiagram Pages: 1 -->
<svg width="269pt" height="449pt"
 viewBox="0.00 0.00 269.00 449.00" xmlns="http://www.w3.org/2000/svg" xmlns:xlink="http://www.w3.org/1999/xlink">
<g id="graph0" class="graph" transform="scale(1 1) rotate(0) translate(4 445)">
<title>oneDegreeRelationshipsDiagram</title>
<polygon fill="#ffffff" stroke="transparent" points="-4,4 -4,-445 265,-445 265,4 -4,4"/>
<text text-anchor="middle" x="71.5" y="-7.2" font-family="Helvetica,sans-Serif" font-size="11.00">Generated by SchemaSpy</text>
<!-- m_product_stock_v -->
<g id="node1" class="node">
<title>m_product_stock_v</title>
<g id="a_node1"><a xlink:href="../../tables/m_product_stock_v.html" xlink:title="m_product_stock_v" target="_top">
<polygon fill="#ffffff" stroke="transparent" points="8,-37 8,-437 253,-437 253,-37 8,-37"/>
<polygon fill="#f5f5f5" stroke="transparent" points="10.5,-413 10.5,-435 251.5,-435 251.5,-413 10.5,-413"/>
<polygon fill="none" stroke="black" points="10.5,-413 10.5,-435 251.5,-435 251.5,-413 10.5,-413"/>
<text text-anchor="start" x="15.5" y="-422.2" font-family="Helvetica,sans-Serif" font-weight="bold" font-size="11.00">m_product_stock_v</text>
<text text-anchor="start" x="218.5" y="-421.2" font-family="Helvetica,sans-Serif" font-size="11.00">[view]</text>
<polygon fill="none" stroke="black" points="10.5,-391 10.5,-413 168.5,-413 168.5,-391 10.5,-391"/>
<text text-anchor="start" x="30.5" y="-399.2" font-family="Helvetica,sans-Serif" font-size="11.00">isactive</text>
<polygon fill="none" stroke="black" points="168.5,-391 168.5,-413 251.5,-413 251.5,-391 168.5,-391"/>
<text text-anchor="start" x="171.5" y="-399.2" font-family="Helvetica,sans-Serif" font-size="11.00">bpchar[1]</text>
<polygon fill="none" stroke="black" points="10.5,-369 10.5,-391 168.5,-391 168.5,-369 10.5,-369"/>
<text text-anchor="start" x="30.5" y="-377.2" font-family="Helvetica,sans-Serif" font-size="11.00">created</text>
<polygon fill="none" stroke="black" points="168.5,-369 168.5,-391 251.5,-391 251.5,-369 168.5,-369"/>
<text text-anchor="start" x="171.5" y="-377.2" font-family="Helvetica,sans-Serif" font-size="11.00">timestamp[29,6]</text>
<polygon fill="none" stroke="black" points="10.5,-347 10.5,-369 168.5,-369 168.5,-347 10.5,-347"/>
<text text-anchor="start" x="30.5" y="-355.2" font-family="Helvetica,sans-Serif" font-size="11.00">createdby</text>
<polygon fill="none" stroke="black" points="168.5,-347 168.5,-369 251.5,-369 251.5,-347 168.5,-347"/>
<text text-anchor="start" x="171.5" y="-355.2" font-family="Helvetica,sans-Serif" font-size="11.00">numeric[10]</text>
<polygon fill="none" stroke="black" points="10.5,-325 10.5,-347 168.5,-347 168.5,-325 10.5,-325"/>
<text text-anchor="start" x="30.5" y="-333.2" font-family="Helvetica,sans-Serif" font-size="11.00">updated</text>
<polygon fill="none" stroke="black" points="168.5,-325 168.5,-347 251.5,-347 251.5,-325 168.5,-325"/>
<text text-anchor="start" x="171.5" y="-333.2" font-family="Helvetica,sans-Serif" font-size="11.00">timestamp[29,6]</text>
<polygon fill="none" stroke="black" points="10.5,-303 10.5,-325 168.5,-325 168.5,-303 10.5,-303"/>
<text text-anchor="start" x="30.5" y="-311.2" font-family="Helvetica,sans-Serif" font-size="11.00">updatedby</text>
<polygon fill="none" stroke="black" points="168.5,-303 168.5,-325 251.5,-325 251.5,-303 168.5,-303"/>
<text text-anchor="start" x="171.5" y="-311.2" font-family="Helvetica,sans-Serif" font-size="11.00">numeric[10]</text>
<polygon fill="none" stroke="black" points="10.5,-281 10.5,-303 168.5,-303 168.5,-281 10.5,-281"/>
<text text-anchor="start" x="30.5" y="-289.2" font-family="Helvetica,sans-Serif" font-size="11.00">value</text>
<polygon fill="none" stroke="black" points="168.5,-281 168.5,-303 251.5,-303 251.5,-281 168.5,-281"/>
<text text-anchor="start" x="171.5" y="-289.2" font-family="Helvetica,sans-Serif" font-size="11.00">varchar[510]</text>
<polygon fill="none" stroke="black" points="10.5,-259 10.5,-281 168.5,-281 168.5,-259 10.5,-259"/>
<text text-anchor="start" x="30.5" y="-267.2" font-family="Helvetica,sans-Serif" font-size="11.00">help</text>
<polygon fill="none" stroke="black" points="168.5,-259 168.5,-281 251.5,-281 251.5,-259 168.5,-259"/>
<text text-anchor="start" x="171.5" y="-267.2" font-family="Helvetica,sans-Serif" font-size="11.00">varchar[2000]</text>
<polygon fill="none" stroke="black" points="10.5,-237 10.5,-259 168.5,-259 168.5,-237 10.5,-237"/>
<text text-anchor="start" x="30.5" y="-245.2" font-family="Helvetica,sans-Serif" font-size="11.00">qtyavailable</text>
<polygon fill="none" stroke="black" points="168.5,-237 168.5,-259 251.5,-259 251.5,-237 168.5,-237"/>
<text text-anchor="start" x="171.5" y="-245.2" font-family="Helvetica,sans-Serif" font-size="11.00">numeric[0]</text>
<polygon fill="none" stroke="black" points="10.5,-215 10.5,-237 168.5,-237 168.5,-215 10.5,-215"/>
<text text-anchor="start" x="30.5" y="-223.2" font-family="Helvetica,sans-Serif" font-size="11.00">qtyonhand</text>
<polygon fill="none" stroke="black" points="168.5,-215 168.5,-237 251.5,-237 251.5,-215 168.5,-215"/>
<text text-anchor="start" x="171.5" y="-223.2" font-family="Helvetica,sans-Serif" font-size="11.00">numeric[0]</text>
<polygon fill="none" stroke="black" points="10.5,-193 10.5,-215 168.5,-215 168.5,-193 10.5,-193"/>
<text text-anchor="start" x="30.5" y="-201.2" font-family="Helvetica,sans-Serif" font-size="11.00">qtyreserved</text>
<polygon fill="none" stroke="black" points="168.5,-193 168.5,-215 251.5,-215 251.5,-193 168.5,-193"/>
<text text-anchor="start" x="171.5" y="-201.2" font-family="Helvetica,sans-Serif" font-size="11.00">numeric[0]</text>
<polygon fill="none" stroke="black" points="10.5,-171 10.5,-193 168.5,-193 168.5,-171 10.5,-171"/>
<text text-anchor="start" x="30.5" y="-179.2" font-family="Helvetica,sans-Serif" font-size="11.00">description</text>
<polygon fill="none" stroke="black" points="168.5,-171 168.5,-193 251.5,-193 251.5,-171 168.5,-171"/>
<text text-anchor="start" x="171.5" y="-179.2" font-family="Helvetica,sans-Serif" font-size="11.00">varchar[255]</text>
<polygon fill="none" stroke="black" points="10.5,-149 10.5,-171 168.5,-171 168.5,-149 10.5,-149"/>
<text text-anchor="start" x="30.5" y="-157.2" font-family="Helvetica,sans-Serif" font-size="11.00">warehouse</text>
<polygon fill="none" stroke="black" points="168.5,-149 168.5,-171 251.5,-171 251.5,-149 168.5,-149"/>
<text text-anchor="start" x="171.5" y="-157.2" font-family="Helvetica,sans-Serif" font-size="11.00">varchar[60]</text>
<polygon fill="none" stroke="black" points="10.5,-127 10.5,-149 168.5,-149 168.5,-127 10.5,-127"/>
<text text-anchor="start" x="30.5" y="-135.2" font-family="Helvetica,sans-Serif" font-size="11.00">m_warehouse_id</text>
<polygon fill="none" stroke="black" points="168.5,-127 168.5,-149 251.5,-149 251.5,-127 168.5,-127"/>
<text text-anchor="start" x="171.5" y="-135.2" font-family="Helvetica,sans-Serif" font-size="11.00">numeric[10]</text>
<polygon fill="none" stroke="black" points="10.5,-105 10.5,-127 168.5,-127 168.5,-105 10.5,-105"/>
<text text-anchor="start" x="30.5" y="-113.2" font-family="Helvetica,sans-Serif" font-size="11.00">ad_client_id</text>
<polygon fill="none" stroke="black" points="168.5,-105 168.5,-127 251.5,-127 251.5,-105 168.5,-105"/>
<text text-anchor="start" x="171.5" y="-113.2" font-family="Helvetica,sans-Serif" font-size="11.00">numeric[10]</text>
<polygon fill="none" stroke="black" points="10.5,-83 10.5,-105 168.5,-105 168.5,-83 10.5,-83"/>
<text text-anchor="start" x="30.5" y="-91.2" font-family="Helvetica,sans-Serif" font-size="11.00">ad_org_id</text>
<polygon fill="none" stroke="black" points="168.5,-83 168.5,-105 251.5,-105 251.5,-83 168.5,-83"/>
<text text-anchor="start" x="171.5" y="-91.2" font-family="Helvetica,sans-Serif" font-size="11.00">numeric[10]</text>
<polygon fill="none" stroke="black" points="10.5,-61 10.5,-83 168.5,-83 168.5,-61 10.5,-61"/>
<text text-anchor="start" x="30.5" y="-69.2" font-family="Helvetica,sans-Serif" font-size="11.00">documentnote</text>
<polygon fill="none" stroke="black" points="168.5,-61 168.5,-83 251.5,-83 251.5,-61 168.5,-61"/>
<text text-anchor="start" x="171.5" y="-69.2" font-family="Helvetica,sans-Serif" font-size="11.00">varchar[2000]</text>
<polygon fill="none" stroke="black" points="10.5,-39 10.5,-61 168.5,-61 168.5,-39 10.5,-39"/>
<text text-anchor="start" x="30.5" y="-47.2" font-family="Helvetica,sans-Serif" font-size="11.00">m_product_id</text>
<polygon fill="none" stroke="black" points="168.5,-39 168.5,-61 251.5,-61 251.5,-39 168.5,-39"/>
<text text-anchor="start" x="171.5" y="-47.2" font-family="Helvetica,sans-Serif" font-size="11.00">numeric[10]</text>
<polygon fill="none" stroke="black" stroke-width="2" points="9,-38 9,-436 252,-436 252,-38 9,-38"/>
</a>
</g>
</g>
</g>
</svg>
