<?xml version="1.0" encoding="UTF-8" standalone="no"?>
<!DOCTYPE svg PUBLIC "-//W3C//DTD SVG 1.1//EN"
 "http://www.w3.org/Graphics/SVG/1.1/DTD/svg11.dtd">
<!-- Generated by graphviz version 2.43.0 (0)
 -->
<!-- Title: oneDegreeRelationshipsDiagram Pages: 1 -->
<svg width="679pt" height="1717pt"
 viewBox="0.00 0.00 679.00 1717.00" xmlns="http://www.w3.org/2000/svg" xmlns:xlink="http://www.w3.org/1999/xlink">
<g id="graph0" class="graph" transform="scale(1 1) rotate(0) translate(4 1713)">
<title>oneDegreeRelationshipsDiagram</title>
<polygon fill="#ffffff" stroke="transparent" points="-4,4 -4,-1713 675,-1713 675,4 -4,4"/>
<text text-anchor="middle" x="71.5" y="-7.2" font-family="Helvetica,sans-Serif" font-size="11.00">Generated by SchemaSpy</text>
<!-- m_productpricevendorbreak -->
<g id="node1" class="node">
<title>m_productpricevendorbreak</title>
<g id="a_node1"><a xlink:href="../../tables/m_productpricevendorbreak.html" xlink:title="m_productpricevendorbreak" target="_top">
<polygon fill="#ffffff" stroke="transparent" points="323,-704 323,-1100 663,-1100 663,-704 323,-704"/>
<polygon fill="#f5f5f5" stroke="transparent" points="325,-1076 325,-1098 661,-1098 661,-1076 325,-1076"/>
<polygon fill="none" stroke="black" points="325,-1076 325,-1098 661,-1098 661,-1076 325,-1076"/>
<text text-anchor="start" x="330" y="-1085.2" font-family="Helvetica,sans-Serif" font-weight="bold" font-size="11.00">m_productpricevendorbreak</text>
<text text-anchor="start" x="626" y="-1084.2" font-family="Helvetica,sans-Serif" font-size="11.00">[table]</text>
<polygon fill="none" stroke="black" points="325,-1054 325,-1076 578,-1076 578,-1054 325,-1054"/>
<text text-anchor="start" x="345" y="-1062.2" font-family="Helvetica,sans-Serif" font-size="11.00">ad_client_id</text>
<polygon fill="none" stroke="black" points="578,-1054 578,-1076 661,-1076 661,-1054 578,-1054"/>
<text text-anchor="start" x="581" y="-1062.2" font-family="Helvetica,sans-Serif" font-size="11.00">numeric[10]</text>
<polygon fill="none" stroke="black" points="325,-1032 325,-1054 578,-1054 578,-1032 325,-1032"/>
<text text-anchor="start" x="345" y="-1040.2" font-family="Helvetica,sans-Serif" font-size="11.00">ad_org_id</text>
<polygon fill="none" stroke="black" points="578,-1032 578,-1054 661,-1054 661,-1032 578,-1032"/>
<text text-anchor="start" x="581" y="-1040.2" font-family="Helvetica,sans-Serif" font-size="11.00">numeric[10]</text>
<polygon fill="#ffffff" stroke="transparent" points="325,-1010 325,-1032 578,-1032 578,-1010 325,-1010"/>
<polygon fill="none" stroke="black" points="325,-1010 325,-1032 578,-1032 578,-1010 325,-1010"/>
<text text-anchor="start" x="345" y="-1018.2" font-family="Helvetica,sans-Serif" font-size="11.00">breakvalue</text>
<polygon fill="none" stroke="black" points="578,-1010 578,-1032 661,-1032 661,-1010 578,-1010"/>
<text text-anchor="start" x="581" y="-1018.2" font-family="Helvetica,sans-Serif" font-size="11.00">numeric[0]</text>
<polygon fill="none" stroke="black" points="325,-988 325,-1010 578,-1010 578,-988 325,-988"/>
<image xlink:href="../../images/foreignKeys.png" width="11px" height="12px" preserveAspectRatio="xMinYMin meet" x="330" y="-1005"/>
<text text-anchor="start" x="345" y="-996.2" font-family="Helvetica,sans-Serif" font-size="11.00">c_bpartner_id</text>
<polygon fill="none" stroke="black" points="578,-988 578,-1010 661,-1010 661,-988 578,-988"/>
<text text-anchor="start" x="581" y="-996.2" font-family="Helvetica,sans-Serif" font-size="11.00">numeric[10]</text>
<polygon fill="none" stroke="black" points="325,-966 325,-988 578,-988 578,-966 325,-966"/>
<text text-anchor="start" x="345" y="-974.2" font-family="Helvetica,sans-Serif" font-size="11.00">created</text>
<polygon fill="none" stroke="black" points="578,-966 578,-988 661,-988 661,-966 578,-966"/>
<text text-anchor="start" x="581" y="-974.2" font-family="Helvetica,sans-Serif" font-size="11.00">timestamp[29,6]</text>
<polygon fill="none" stroke="black" points="325,-944 325,-966 578,-966 578,-944 325,-944"/>
<text text-anchor="start" x="345" y="-952.2" font-family="Helvetica,sans-Serif" font-size="11.00">createdby</text>
<polygon fill="none" stroke="black" points="578,-944 578,-966 661,-966 661,-944 578,-944"/>
<text text-anchor="start" x="581" y="-952.2" font-family="Helvetica,sans-Serif" font-size="11.00">numeric[10]</text>
<polygon fill="none" stroke="black" points="325,-922 325,-944 578,-944 578,-922 325,-922"/>
<text text-anchor="start" x="345" y="-930.2" font-family="Helvetica,sans-Serif" font-size="11.00">isactive</text>
<polygon fill="none" stroke="black" points="578,-922 578,-944 661,-944 661,-922 578,-922"/>
<text text-anchor="start" x="581" y="-930.2" font-family="Helvetica,sans-Serif" font-size="11.00">bpchar[1]</text>
<polygon fill="#ffffff" stroke="transparent" points="325,-900 325,-922 578,-922 578,-900 325,-900"/>
<polygon fill="none" stroke="black" points="325,-900 325,-922 578,-922 578,-900 325,-900"/>
<image xlink:href="../../images/foreignKeys.png" width="11px" height="12px" preserveAspectRatio="xMinYMin meet" x="330" y="-917"/>
<text text-anchor="start" x="345" y="-908.2" font-family="Helvetica,sans-Serif" font-size="11.00">m_pricelist_version_id</text>
<polygon fill="none" stroke="black" points="578,-900 578,-922 661,-922 661,-900 578,-900"/>
<text text-anchor="start" x="581" y="-908.2" font-family="Helvetica,sans-Serif" font-size="11.00">numeric[10]</text>
<polygon fill="#ffffff" stroke="transparent" points="325,-878 325,-900 578,-900 578,-878 325,-878"/>
<polygon fill="none" stroke="black" points="325,-878 325,-900 578,-900 578,-878 325,-878"/>
<image xlink:href="../../images/foreignKeys.png" width="11px" height="12px" preserveAspectRatio="xMinYMin meet" x="330" y="-895"/>
<text text-anchor="start" x="345" y="-886.2" font-family="Helvetica,sans-Serif" font-size="11.00">m_product_id</text>
<polygon fill="none" stroke="black" points="578,-878 578,-900 661,-900 661,-878 578,-878"/>
<text text-anchor="start" x="581" y="-886.2" font-family="Helvetica,sans-Serif" font-size="11.00">numeric[10]</text>
<polygon fill="none" stroke="black" points="325,-856 325,-878 578,-878 578,-856 325,-856"/>
<text text-anchor="start" x="345" y="-864.2" font-family="Helvetica,sans-Serif" font-size="11.00">pricelimit</text>
<polygon fill="none" stroke="black" points="578,-856 578,-878 661,-878 661,-856 578,-856"/>
<text text-anchor="start" x="581" y="-864.2" font-family="Helvetica,sans-Serif" font-size="11.00">numeric[0]</text>
<polygon fill="none" stroke="black" points="325,-834 325,-856 578,-856 578,-834 325,-834"/>
<text text-anchor="start" x="345" y="-842.2" font-family="Helvetica,sans-Serif" font-size="11.00">pricelist</text>
<polygon fill="none" stroke="black" points="578,-834 578,-856 661,-856 661,-834 578,-834"/>
<text text-anchor="start" x="581" y="-842.2" font-family="Helvetica,sans-Serif" font-size="11.00">numeric[0]</text>
<polygon fill="none" stroke="black" points="325,-812 325,-834 578,-834 578,-812 325,-812"/>
<text text-anchor="start" x="345" y="-820.2" font-family="Helvetica,sans-Serif" font-size="11.00">pricestd</text>
<polygon fill="none" stroke="black" points="578,-812 578,-834 661,-834 661,-812 578,-812"/>
<text text-anchor="start" x="581" y="-820.2" font-family="Helvetica,sans-Serif" font-size="11.00">numeric[0]</text>
<polygon fill="none" stroke="black" points="325,-790 325,-812 578,-812 578,-790 325,-790"/>
<text text-anchor="start" x="345" y="-798.2" font-family="Helvetica,sans-Serif" font-size="11.00">updated</text>
<polygon fill="none" stroke="black" points="578,-790 578,-812 661,-812 661,-790 578,-790"/>
<text text-anchor="start" x="581" y="-798.2" font-family="Helvetica,sans-Serif" font-size="11.00">timestamp[29,6]</text>
<polygon fill="none" stroke="black" points="325,-768 325,-790 578,-790 578,-768 325,-768"/>
<text text-anchor="start" x="345" y="-776.2" font-family="Helvetica,sans-Serif" font-size="11.00">updatedby</text>
<polygon fill="none" stroke="black" points="578,-768 578,-790 661,-790 661,-768 578,-768"/>
<text text-anchor="start" x="581" y="-776.2" font-family="Helvetica,sans-Serif" font-size="11.00">numeric[10]</text>
<polygon fill="none" stroke="black" points="325,-746 325,-768 578,-768 578,-746 325,-746"/>
<image xlink:href="../../images/primaryKeys.png" width="11px" height="12px" preserveAspectRatio="xMinYMin meet" x="330" y="-763"/>
<text text-anchor="start" x="345" y="-754.2" font-family="Helvetica,sans-Serif" font-size="11.00">m_productpricevendorbreak_id</text>
<polygon fill="none" stroke="black" points="578,-746 578,-768 661,-768 661,-746 578,-746"/>
<text text-anchor="start" x="581" y="-754.2" font-family="Helvetica,sans-Serif" font-size="11.00">numeric[10]</text>
<polygon fill="#ffffff" stroke="transparent" points="325,-724 325,-746 578,-746 578,-724 325,-724"/>
<polygon fill="none" stroke="black" points="325,-724 325,-746 578,-746 578,-724 325,-724"/>
<text text-anchor="start" x="345" y="-732.2" font-family="Helvetica,sans-Serif" font-size="11.00">m_productpricevendorbreak_uu</text>
<polygon fill="none" stroke="black" points="578,-724 578,-746 661,-746 661,-724 578,-724"/>
<text text-anchor="start" x="581" y="-732.2" font-family="Helvetica,sans-Serif" font-size="11.00">varchar[36]</text>
<polygon fill="#ffffff" stroke="transparent" points="325,-706 325,-724 661,-724 661,-706 325,-706"/>
<polygon fill="none" stroke="black" points="325,-706 325,-724 661,-724 661,-706 325,-706"/>
<polygon fill="#ffffff" stroke="transparent" points="326,-707 326,-723 441,-723 441,-707 326,-707"/>
<text text-anchor="start" x="328" y="-712.2" font-family="Helvetica,sans-Serif" font-size="11.00">&lt; 3</text>
<polygon fill="#ffffff" stroke="transparent" points="441,-707 441,-723 546,-723 546,-707 441,-707"/>
<text text-anchor="start" x="490" y="-712.2" font-family="Helvetica,sans-Serif" font-size="11.00"> &#160;</text>
<polygon fill="#ffffff" stroke="transparent" points="546,-707 546,-723 660,-723 660,-707 546,-707"/>
<text text-anchor="start" x="642" y="-712.2" font-family="Helvetica,sans-Serif" font-size="11.00">0 &gt;</text>
<polygon fill="black" stroke="black" points="441,-707 441,-723 441,-723 441,-707 441,-707"/>
<polygon fill="black" stroke="black" points="546,-707 546,-723 546,-723 546,-707 546,-707"/>
<polygon fill="none" stroke="black" stroke-width="2" points="324,-705 324,-1099 662,-1099 662,-705 324,-705"/>
</a>
</g>
</g>
<!-- c_bpartner -->
<g id="node2" class="node">
<title>c_bpartner</title>
<g id="a_node2"><a xlink:href="../../tables/c_bpartner.html" xlink:title="c_bpartner" target="_top">
<polygon fill="#ffffff" stroke="transparent" points="14,-965 14,-1705 268,-1705 268,-965 14,-965"/>
<polygon fill="#f5f5f5" stroke="transparent" points="14,-1683 14,-1705 268,-1705 268,-1683 14,-1683"/>
<polygon fill="none" stroke="black" points="14,-1683 14,-1705 268,-1705 268,-1683 14,-1683"/>
<text text-anchor="start" x="19" y="-1692.2" font-family="Helvetica,sans-Serif" font-weight="bold" font-size="11.00">c_bpartner</text>
<text text-anchor="start" x="233" y="-1691.2" font-family="Helvetica,sans-Serif" font-size="11.00">[table]</text>
<polygon fill="none" stroke="black" points="14,-1661 14,-1683 268,-1683 268,-1661 14,-1661"/>
<image xlink:href="../../images/primaryKeys.png" width="11px" height="12px" preserveAspectRatio="xMinYMin meet" x="19" y="-1678"/>
<text text-anchor="start" x="34" y="-1669.2" font-family="Helvetica,sans-Serif" font-size="11.00">c_bpartner_id</text>
<polygon fill="#ffffff" stroke="transparent" points="14,-1639 14,-1661 268,-1661 268,-1639 14,-1639"/>
<polygon fill="none" stroke="black" points="14,-1639 14,-1661 268,-1661 268,-1639 14,-1639"/>
<image xlink:href="../../images/foreignKeys.png" width="11px" height="12px" preserveAspectRatio="xMinYMin meet" x="19" y="-1656"/>
<text text-anchor="start" x="34" y="-1647.2" font-family="Helvetica,sans-Serif" font-size="11.00">ad_client_id</text>
<polygon fill="none" stroke="black" points="14,-1617 14,-1639 268,-1639 268,-1617 14,-1617"/>
<image xlink:href="../../images/foreignKeys.png" width="11px" height="12px" preserveAspectRatio="xMinYMin meet" x="19" y="-1634"/>
<text text-anchor="start" x="34" y="-1625.2" font-family="Helvetica,sans-Serif" font-size="11.00">ad_org_id</text>
<polygon fill="#ffffff" stroke="transparent" points="14,-1595 14,-1617 268,-1617 268,-1595 14,-1595"/>
<polygon fill="none" stroke="black" points="14,-1595 14,-1617 268,-1617 268,-1595 14,-1595"/>
<text text-anchor="start" x="34" y="-1603.2" font-family="Helvetica,sans-Serif" font-size="11.00">value</text>
<polygon fill="#ffffff" stroke="transparent" points="14,-1573 14,-1595 268,-1595 268,-1573 14,-1573"/>
<polygon fill="none" stroke="black" points="14,-1573 14,-1595 268,-1595 268,-1573 14,-1573"/>
<text text-anchor="start" x="34" y="-1581.2" font-family="Helvetica,sans-Serif" font-size="11.00">name</text>
<polygon fill="none" stroke="black" points="14,-1551 14,-1573 268,-1573 268,-1551 14,-1551"/>
<image xlink:href="../../images/foreignKeys.png" width="11px" height="12px" preserveAspectRatio="xMinYMin meet" x="19" y="-1568"/>
<text text-anchor="start" x="34" y="-1559.2" font-family="Helvetica,sans-Serif" font-size="11.00">c_bp_group_id</text>
<polygon fill="none" stroke="black" points="14,-1529 14,-1551 268,-1551 268,-1529 14,-1529"/>
<image xlink:href="../../images/foreignKeys.png" width="11px" height="12px" preserveAspectRatio="xMinYMin meet" x="19" y="-1546"/>
<text text-anchor="start" x="34" y="-1537.2" font-family="Helvetica,sans-Serif" font-size="11.00">ad_language</text>
<polygon fill="none" stroke="black" points="14,-1507 14,-1529 268,-1529 268,-1507 14,-1507"/>
<image xlink:href="../../images/foreignKeys.png" width="11px" height="12px" preserveAspectRatio="xMinYMin meet" x="19" y="-1524"/>
<text text-anchor="start" x="34" y="-1515.2" font-family="Helvetica,sans-Serif" font-size="11.00">c_invoiceschedule_id</text>
<polygon fill="none" stroke="black" points="14,-1485 14,-1507 268,-1507 268,-1485 14,-1485"/>
<image xlink:href="../../images/foreignKeys.png" width="11px" height="12px" preserveAspectRatio="xMinYMin meet" x="19" y="-1502"/>
<text text-anchor="start" x="34" y="-1493.2" font-family="Helvetica,sans-Serif" font-size="11.00">c_paymentterm_id</text>
<polygon fill="none" stroke="black" points="14,-1463 14,-1485 268,-1485 268,-1463 14,-1463"/>
<image xlink:href="../../images/foreignKeys.png" width="11px" height="12px" preserveAspectRatio="xMinYMin meet" x="19" y="-1480"/>
<text text-anchor="start" x="34" y="-1471.2" font-family="Helvetica,sans-Serif" font-size="11.00">m_pricelist_id</text>
<polygon fill="none" stroke="black" points="14,-1441 14,-1463 268,-1463 268,-1441 14,-1441"/>
<image xlink:href="../../images/foreignKeys.png" width="11px" height="12px" preserveAspectRatio="xMinYMin meet" x="19" y="-1458"/>
<text text-anchor="start" x="34" y="-1449.2" font-family="Helvetica,sans-Serif" font-size="11.00">m_discountschema_id</text>
<polygon fill="none" stroke="black" points="14,-1419 14,-1441 268,-1441 268,-1419 14,-1419"/>
<image xlink:href="../../images/foreignKeys.png" width="11px" height="12px" preserveAspectRatio="xMinYMin meet" x="19" y="-1436"/>
<text text-anchor="start" x="34" y="-1427.2" font-family="Helvetica,sans-Serif" font-size="11.00">c_dunning_id</text>
<polygon fill="none" stroke="black" points="14,-1397 14,-1419 268,-1419 268,-1397 14,-1397"/>
<image xlink:href="../../images/foreignKeys.png" width="11px" height="12px" preserveAspectRatio="xMinYMin meet" x="19" y="-1414"/>
<text text-anchor="start" x="34" y="-1405.2" font-family="Helvetica,sans-Serif" font-size="11.00">po_pricelist_id</text>
<polygon fill="none" stroke="black" points="14,-1375 14,-1397 268,-1397 268,-1375 14,-1375"/>
<image xlink:href="../../images/foreignKeys.png" width="11px" height="12px" preserveAspectRatio="xMinYMin meet" x="19" y="-1392"/>
<text text-anchor="start" x="34" y="-1383.2" font-family="Helvetica,sans-Serif" font-size="11.00">po_discountschema_id</text>
<polygon fill="none" stroke="black" points="14,-1353 14,-1375 268,-1375 268,-1353 14,-1353"/>
<image xlink:href="../../images/foreignKeys.png" width="11px" height="12px" preserveAspectRatio="xMinYMin meet" x="19" y="-1370"/>
<text text-anchor="start" x="34" y="-1361.2" font-family="Helvetica,sans-Serif" font-size="11.00">po_paymentterm_id</text>
<polygon fill="none" stroke="black" points="14,-1331 14,-1353 268,-1353 268,-1331 14,-1331"/>
<image xlink:href="../../images/foreignKeys.png" width="11px" height="12px" preserveAspectRatio="xMinYMin meet" x="19" y="-1348"/>
<text text-anchor="start" x="34" y="-1339.2" font-family="Helvetica,sans-Serif" font-size="11.00">c_greeting_id</text>
<polygon fill="none" stroke="black" points="14,-1309 14,-1331 268,-1331 268,-1309 14,-1309"/>
<image xlink:href="../../images/foreignKeys.png" width="11px" height="12px" preserveAspectRatio="xMinYMin meet" x="19" y="-1326"/>
<text text-anchor="start" x="34" y="-1317.2" font-family="Helvetica,sans-Serif" font-size="11.00">salesrep_id</text>
<polygon fill="none" stroke="black" points="14,-1287 14,-1309 268,-1309 268,-1287 14,-1287"/>
<image xlink:href="../../images/foreignKeys.png" width="11px" height="12px" preserveAspectRatio="xMinYMin meet" x="19" y="-1304"/>
<text text-anchor="start" x="34" y="-1295.2" font-family="Helvetica,sans-Serif" font-size="11.00">bpartner_parent_id</text>
<polygon fill="none" stroke="black" points="14,-1265 14,-1287 268,-1287 268,-1265 14,-1265"/>
<image xlink:href="../../images/foreignKeys.png" width="11px" height="12px" preserveAspectRatio="xMinYMin meet" x="19" y="-1282"/>
<text text-anchor="start" x="34" y="-1273.2" font-family="Helvetica,sans-Serif" font-size="11.00">invoice_printformat_id</text>
<polygon fill="#ffffff" stroke="transparent" points="14,-1243 14,-1265 268,-1265 268,-1243 14,-1243"/>
<polygon fill="none" stroke="black" points="14,-1243 14,-1265 268,-1265 268,-1243 14,-1243"/>
<image xlink:href="../../images/foreignKeys.png" width="11px" height="12px" preserveAspectRatio="xMinYMin meet" x="19" y="-1260"/>
<text text-anchor="start" x="34" y="-1251.2" font-family="Helvetica,sans-Serif" font-size="11.00">ad_orgbp_id</text>
<polygon fill="none" stroke="black" points="14,-1221 14,-1243 268,-1243 268,-1221 14,-1221"/>
<image xlink:href="../../images/foreignKeys.png" width="11px" height="12px" preserveAspectRatio="xMinYMin meet" x="19" y="-1238"/>
<text text-anchor="start" x="34" y="-1229.2" font-family="Helvetica,sans-Serif" font-size="11.00">c_taxgroup_id</text>
<polygon fill="none" stroke="black" points="14,-1199 14,-1221 268,-1221 268,-1199 14,-1199"/>
<image xlink:href="../../images/foreignKeys.png" width="11px" height="12px" preserveAspectRatio="xMinYMin meet" x="19" y="-1216"/>
<text text-anchor="start" x="34" y="-1207.2" font-family="Helvetica,sans-Serif" font-size="11.00">logo_id</text>
<polygon fill="#ffffff" stroke="transparent" points="14,-1177 14,-1199 268,-1199 268,-1177 14,-1177"/>
<polygon fill="none" stroke="black" points="14,-1177 14,-1199 268,-1199 268,-1177 14,-1177"/>
<text text-anchor="start" x="34" y="-1185.2" font-family="Helvetica,sans-Serif" font-size="11.00">c_bpartner_uu</text>
<polygon fill="none" stroke="black" points="14,-1155 14,-1177 268,-1177 268,-1155 14,-1155"/>
<image xlink:href="../../images/foreignKeys.png" width="11px" height="12px" preserveAspectRatio="xMinYMin meet" x="19" y="-1172"/>
<text text-anchor="start" x="34" y="-1163.2" font-family="Helvetica,sans-Serif" font-size="11.00">default1099box_id</text>
<polygon fill="none" stroke="black" points="14,-1133 14,-1155 268,-1155 268,-1133 14,-1133"/>
<image xlink:href="../../images/foreignKeys.png" width="11px" height="12px" preserveAspectRatio="xMinYMin meet" x="19" y="-1150"/>
<text text-anchor="start" x="34" y="-1141.2" font-family="Helvetica,sans-Serif" font-size="11.00">cof_c_custody_id</text>
<polygon fill="none" stroke="black" points="14,-1111 14,-1133 268,-1133 268,-1111 14,-1111"/>
<image xlink:href="../../images/foreignKeys.png" width="11px" height="12px" preserveAspectRatio="xMinYMin meet" x="19" y="-1128"/>
<text text-anchor="start" x="34" y="-1119.2" font-family="Helvetica,sans-Serif" font-size="11.00">cof_doctypepurchase_id</text>
<polygon fill="none" stroke="black" points="14,-1089 14,-1111 268,-1111 268,-1089 14,-1089"/>
<image xlink:href="../../images/foreignKeys.png" width="11px" height="12px" preserveAspectRatio="xMinYMin meet" x="19" y="-1106"/>
<text text-anchor="start" x="34" y="-1097.2" font-family="Helvetica,sans-Serif" font-size="11.00">cof_doctypesale_id</text>
<polygon fill="none" stroke="black" points="14,-1067 14,-1089 268,-1089 268,-1067 14,-1067"/>
<image xlink:href="../../images/foreignKeys.png" width="11px" height="12px" preserveAspectRatio="xMinYMin meet" x="19" y="-1084"/>
<text text-anchor="start" x="34" y="-1075.2" font-family="Helvetica,sans-Serif" font-size="11.00">cof_grupofornecedor_id</text>
<polygon fill="none" stroke="black" points="14,-1045 14,-1067 268,-1067 268,-1045 14,-1045"/>
<image xlink:href="../../images/foreignKeys.png" width="11px" height="12px" preserveAspectRatio="xMinYMin meet" x="19" y="-1062"/>
<text text-anchor="start" x="34" y="-1053.2" font-family="Helvetica,sans-Serif" font-size="11.00">cof_vendedorinterno_id</text>
<polygon fill="none" stroke="black" points="14,-1023 14,-1045 268,-1045 268,-1023 14,-1023"/>
<image xlink:href="../../images/foreignKeys.png" width="11px" height="12px" preserveAspectRatio="xMinYMin meet" x="19" y="-1040"/>
<text text-anchor="start" x="34" y="-1031.2" font-family="Helvetica,sans-Serif" font-size="11.00">cof_tipoparceiro_id</text>
<polygon fill="none" stroke="black" points="14,-1001 14,-1023 268,-1023 268,-1001 14,-1001"/>
<image xlink:href="../../images/foreignKeys.png" width="11px" height="12px" preserveAspectRatio="xMinYMin meet" x="19" y="-1018"/>
<text text-anchor="start" x="34" y="-1009.2" font-family="Helvetica,sans-Serif" font-size="11.00">cof_classeparceiro_id</text>
<polygon fill="none" stroke="black" points="14,-983 14,-1001 268,-1001 268,-983 14,-983"/>
<text text-anchor="start" x="17" y="-989.2" font-family="Helvetica,sans-Serif" font-size="11.00">...</text>
<polygon fill="#ffffff" stroke="transparent" points="14,-965 14,-983 268,-983 268,-965 14,-965"/>
<polygon fill="none" stroke="black" points="14,-965 14,-983 268,-983 268,-965 14,-965"/>
<polygon fill="#ffffff" stroke="transparent" points="15,-966 15,-982 94,-982 94,-966 15,-966"/>
<text text-anchor="start" x="17" y="-971.2" font-family="Helvetica,sans-Serif" font-size="11.00">&lt; 27</text>
<polygon fill="#ffffff" stroke="transparent" points="94,-966 94,-982 183,-982 183,-966 94,-966"/>
<text text-anchor="start" x="122" y="-971.2" font-family="Helvetica,sans-Serif" font-size="11.00">4 rows</text>
<polygon fill="#ffffff" stroke="transparent" points="183,-966 183,-982 267,-982 267,-966 183,-966"/>
<text text-anchor="start" x="237" y="-971.2" font-family="Helvetica,sans-Serif" font-size="11.00">186 &gt;</text>
<polygon fill="black" stroke="black" points="94,-966 94,-982 94,-982 94,-966 94,-966"/>
<polygon fill="black" stroke="black" points="183,-966 183,-982 183,-982 183,-966 183,-966"/>
</a>
</g>
</g>
<!-- m_productpricevendorbreak&#45;&gt;c_bpartner -->
<g id="edge1" class="edge">
<title>m_productpricevendorbreak:w&#45;&gt;c_bpartner:e</title>
<path fill="none" stroke="black" d="M309.35,-999.58C42.28,-1021.81 563.98,-1672 269,-1672"/>
<polygon fill="black" stroke="black" points="316.01,-999.32 324.14,-1002.6 320,-999.16 324,-999 324,-999 324,-999 320,-999.16 323.86,-995.4 316.01,-999.32 316.01,-999.32"/>
<ellipse fill="none" stroke="black" cx="312.81" cy="-999.45" rx="3.2" ry="3.2"/>
</g>
<!-- m_pricelist_version -->
<g id="node3" class="node">
<title>m_pricelist_version</title>
<g id="a_node3"><a xlink:href="../../tables/m_pricelist_version.html" xlink:title="m_pricelist_version" target="_top">
<polygon fill="#ffffff" stroke="transparent" points="30,-754 30,-944 252,-944 252,-754 30,-754"/>
<polygon fill="#f5f5f5" stroke="transparent" points="30,-922 30,-944 252,-944 252,-922 30,-922"/>
<polygon fill="none" stroke="black" points="30,-922 30,-944 252,-944 252,-922 30,-922"/>
<text text-anchor="start" x="35" y="-931.2" font-family="Helvetica,sans-Serif" font-weight="bold" font-size="11.00">m_pricelist_version</text>
<text text-anchor="start" x="217" y="-930.2" font-family="Helvetica,sans-Serif" font-size="11.00">[table]</text>
<polygon fill="none" stroke="black" points="30,-900 30,-922 252,-922 252,-900 30,-900"/>
<image xlink:href="../../images/primaryKeys.png" width="11px" height="12px" preserveAspectRatio="xMinYMin meet" x="35" y="-917"/>
<text text-anchor="start" x="50" y="-908.2" font-family="Helvetica,sans-Serif" font-size="11.00">m_pricelist_version_id</text>
<polygon fill="#ffffff" stroke="transparent" points="30,-878 30,-900 252,-900 252,-878 30,-878"/>
<polygon fill="none" stroke="black" points="30,-878 30,-900 252,-900 252,-878 30,-878"/>
<image xlink:href="../../images/foreignKeys.png" width="11px" height="12px" preserveAspectRatio="xMinYMin meet" x="35" y="-895"/>
<text text-anchor="start" x="50" y="-886.2" font-family="Helvetica,sans-Serif" font-size="11.00">m_pricelist_id</text>
<polygon fill="none" stroke="black" points="30,-856 30,-878 252,-878 252,-856 30,-856"/>
<image xlink:href="../../images/foreignKeys.png" width="11px" height="12px" preserveAspectRatio="xMinYMin meet" x="35" y="-873"/>
<text text-anchor="start" x="50" y="-864.2" font-family="Helvetica,sans-Serif" font-size="11.00">m_discountschema_id</text>
<polygon fill="#ffffff" stroke="transparent" points="30,-834 30,-856 252,-856 252,-834 30,-834"/>
<polygon fill="none" stroke="black" points="30,-834 30,-856 252,-856 252,-834 30,-834"/>
<text text-anchor="start" x="50" y="-842.2" font-family="Helvetica,sans-Serif" font-size="11.00">validfrom</text>
<polygon fill="none" stroke="black" points="30,-812 30,-834 252,-834 252,-812 30,-812"/>
<image xlink:href="../../images/foreignKeys.png" width="11px" height="12px" preserveAspectRatio="xMinYMin meet" x="35" y="-829"/>
<text text-anchor="start" x="50" y="-820.2" font-family="Helvetica,sans-Serif" font-size="11.00">m_pricelist_version_base_id</text>
<polygon fill="#ffffff" stroke="transparent" points="30,-790 30,-812 252,-812 252,-790 30,-790"/>
<polygon fill="none" stroke="black" points="30,-790 30,-812 252,-812 252,-790 30,-790"/>
<text text-anchor="start" x="50" y="-798.2" font-family="Helvetica,sans-Serif" font-size="11.00">m_pricelist_version_uu</text>
<polygon fill="none" stroke="black" points="30,-772 30,-790 252,-790 252,-772 30,-772"/>
<text text-anchor="start" x="33" y="-778.2" font-family="Helvetica,sans-Serif" font-size="11.00">...</text>
<polygon fill="#ffffff" stroke="transparent" points="30,-754 30,-772 252,-772 252,-754 30,-754"/>
<polygon fill="none" stroke="black" points="30,-754 30,-772 252,-772 252,-754 30,-754"/>
<polygon fill="#ffffff" stroke="transparent" points="31,-755 31,-771 97,-771 97,-755 31,-755"/>
<text text-anchor="start" x="33" y="-760.2" font-family="Helvetica,sans-Serif" font-size="11.00">&lt; 3</text>
<polygon fill="#ffffff" stroke="transparent" points="97,-755 97,-771 180,-771 180,-755 97,-755"/>
<text text-anchor="start" x="122" y="-760.2" font-family="Helvetica,sans-Serif" font-size="11.00">3 rows</text>
<polygon fill="#ffffff" stroke="transparent" points="180,-755 180,-771 251,-771 251,-755 180,-755"/>
<text text-anchor="start" x="227" y="-760.2" font-family="Helvetica,sans-Serif" font-size="11.00">10 &gt;</text>
<polygon fill="black" stroke="black" points="97,-755 97,-771 97,-771 97,-755 97,-755"/>
<polygon fill="black" stroke="black" points="180,-755 180,-771 180,-771 180,-755 180,-755"/>
</a>
</g>
</g>
<!-- m_productpricevendorbreak&#45;&gt;m_pricelist_version -->
<g id="edge2" class="edge">
<title>m_productpricevendorbreak:w&#45;&gt;m_pricelist_version:e</title>
<path fill="none" stroke="black" d="M309.59,-911C289.03,-911 279.13,-911 253,-911"/>
<polygon fill="black" stroke="black" points="316,-911 324,-914.6 320,-911 324,-911 324,-911 324,-911 320,-911 324,-907.4 316,-911 316,-911"/>
<ellipse fill="none" stroke="black" cx="312.8" cy="-911" rx="3.2" ry="3.2"/>
</g>
<!-- m_product -->
<g id="node4" class="node">
<title>m_product</title>
<g id="a_node4"><a xlink:href="../../tables/m_product.html" xlink:title="m_product" target="_top">
<polygon fill="#ffffff" stroke="transparent" points="8,-37 8,-733 274,-733 274,-37 8,-37"/>
<polygon fill="#f5f5f5" stroke="transparent" points="8,-711 8,-733 274,-733 274,-711 8,-711"/>
<polygon fill="none" stroke="black" points="8,-711 8,-733 274,-733 274,-711 8,-711"/>
<text text-anchor="start" x="13" y="-720.2" font-family="Helvetica,sans-Serif" font-weight="bold" font-size="11.00">m_product</text>
<text text-anchor="start" x="239" y="-719.2" font-family="Helvetica,sans-Serif" font-size="11.00">[table]</text>
<polygon fill="none" stroke="black" points="8,-689 8,-711 274,-711 274,-689 8,-689"/>
<image xlink:href="../../images/primaryKeys.png" width="11px" height="12px" preserveAspectRatio="xMinYMin meet" x="13" y="-706"/>
<text text-anchor="start" x="28" y="-697.2" font-family="Helvetica,sans-Serif" font-size="11.00">m_product_id</text>
<polygon fill="#ffffff" stroke="transparent" points="8,-667 8,-689 274,-689 274,-667 8,-667"/>
<polygon fill="none" stroke="black" points="8,-667 8,-689 274,-689 274,-667 8,-667"/>
<image xlink:href="../../images/foreignKeys.png" width="11px" height="12px" preserveAspectRatio="xMinYMin meet" x="13" y="-684"/>
<text text-anchor="start" x="28" y="-675.2" font-family="Helvetica,sans-Serif" font-size="11.00">ad_client_id</text>
<polygon fill="none" stroke="black" points="8,-645 8,-667 274,-667 274,-645 8,-645"/>
<image xlink:href="../../images/foreignKeys.png" width="11px" height="12px" preserveAspectRatio="xMinYMin meet" x="13" y="-662"/>
<text text-anchor="start" x="28" y="-653.2" font-family="Helvetica,sans-Serif" font-size="11.00">ad_org_id</text>
<polygon fill="#ffffff" stroke="transparent" points="8,-623 8,-645 274,-645 274,-623 8,-623"/>
<polygon fill="none" stroke="black" points="8,-623 8,-645 274,-645 274,-623 8,-623"/>
<text text-anchor="start" x="28" y="-631.2" font-family="Helvetica,sans-Serif" font-size="11.00">value</text>
<polygon fill="#ffffff" stroke="transparent" points="8,-601 8,-623 274,-623 274,-601 8,-601"/>
<polygon fill="none" stroke="black" points="8,-601 8,-623 274,-623 274,-601 8,-601"/>
<text text-anchor="start" x="28" y="-609.2" font-family="Helvetica,sans-Serif" font-size="11.00">name</text>
<polygon fill="#ffffff" stroke="transparent" points="8,-579 8,-601 274,-601 274,-579 8,-579"/>
<polygon fill="none" stroke="black" points="8,-579 8,-601 274,-601 274,-579 8,-579"/>
<text text-anchor="start" x="28" y="-587.2" font-family="Helvetica,sans-Serif" font-size="11.00">upc</text>
<polygon fill="none" stroke="black" points="8,-557 8,-579 274,-579 274,-557 8,-557"/>
<image xlink:href="../../images/foreignKeys.png" width="11px" height="12px" preserveAspectRatio="xMinYMin meet" x="13" y="-574"/>
<text text-anchor="start" x="28" y="-565.2" font-family="Helvetica,sans-Serif" font-size="11.00">c_uom_id</text>
<polygon fill="none" stroke="black" points="8,-535 8,-557 274,-557 274,-535 8,-535"/>
<image xlink:href="../../images/foreignKeys.png" width="11px" height="12px" preserveAspectRatio="xMinYMin meet" x="13" y="-552"/>
<text text-anchor="start" x="28" y="-543.2" font-family="Helvetica,sans-Serif" font-size="11.00">salesrep_id</text>
<polygon fill="none" stroke="black" points="8,-513 8,-535 274,-535 274,-513 8,-513"/>
<image xlink:href="../../images/foreignKeys.png" width="11px" height="12px" preserveAspectRatio="xMinYMin meet" x="13" y="-530"/>
<text text-anchor="start" x="28" y="-521.2" font-family="Helvetica,sans-Serif" font-size="11.00">c_revenuerecognition_id</text>
<polygon fill="#ffffff" stroke="transparent" points="8,-491 8,-513 274,-513 274,-491 8,-491"/>
<polygon fill="none" stroke="black" points="8,-491 8,-513 274,-513 274,-491 8,-491"/>
<image xlink:href="../../images/foreignKeys.png" width="11px" height="12px" preserveAspectRatio="xMinYMin meet" x="13" y="-508"/>
<text text-anchor="start" x="28" y="-499.2" font-family="Helvetica,sans-Serif" font-size="11.00">m_product_category_id</text>
<polygon fill="none" stroke="black" points="8,-469 8,-491 274,-491 274,-469 8,-469"/>
<image xlink:href="../../images/foreignKeys.png" width="11px" height="12px" preserveAspectRatio="xMinYMin meet" x="13" y="-486"/>
<text text-anchor="start" x="28" y="-477.2" font-family="Helvetica,sans-Serif" font-size="11.00">c_taxcategory_id</text>
<polygon fill="#ffffff" stroke="transparent" points="8,-447 8,-469 274,-469 274,-447 8,-447"/>
<polygon fill="none" stroke="black" points="8,-447 8,-469 274,-469 274,-447 8,-447"/>
<image xlink:href="../../images/foreignKeys.png" width="11px" height="12px" preserveAspectRatio="xMinYMin meet" x="13" y="-464"/>
<text text-anchor="start" x="28" y="-455.2" font-family="Helvetica,sans-Serif" font-size="11.00">s_resource_id</text>
<polygon fill="#ffffff" stroke="transparent" points="8,-425 8,-447 274,-447 274,-425 8,-425"/>
<polygon fill="none" stroke="black" points="8,-425 8,-447 274,-447 274,-425 8,-425"/>
<image xlink:href="../../images/foreignKeys.png" width="11px" height="12px" preserveAspectRatio="xMinYMin meet" x="13" y="-442"/>
<text text-anchor="start" x="28" y="-433.2" font-family="Helvetica,sans-Serif" font-size="11.00">s_expensetype_id</text>
<polygon fill="none" stroke="black" points="8,-403 8,-425 274,-425 274,-403 8,-403"/>
<image xlink:href="../../images/foreignKeys.png" width="11px" height="12px" preserveAspectRatio="xMinYMin meet" x="13" y="-420"/>
<text text-anchor="start" x="28" y="-411.2" font-family="Helvetica,sans-Serif" font-size="11.00">r_mailtext_id</text>
<polygon fill="none" stroke="black" points="8,-381 8,-403 274,-403 274,-381 8,-381"/>
<image xlink:href="../../images/foreignKeys.png" width="11px" height="12px" preserveAspectRatio="xMinYMin meet" x="13" y="-398"/>
<text text-anchor="start" x="28" y="-389.2" font-family="Helvetica,sans-Serif" font-size="11.00">m_attributeset_id</text>
<polygon fill="none" stroke="black" points="8,-359 8,-381 274,-381 274,-359 8,-359"/>
<image xlink:href="../../images/foreignKeys.png" width="11px" height="12px" preserveAspectRatio="xMinYMin meet" x="13" y="-376"/>
<text text-anchor="start" x="28" y="-367.2" font-family="Helvetica,sans-Serif" font-size="11.00">m_freightcategory_id</text>
<polygon fill="none" stroke="black" points="8,-337 8,-359 274,-359 274,-337 8,-337"/>
<image xlink:href="../../images/foreignKeys.png" width="11px" height="12px" preserveAspectRatio="xMinYMin meet" x="13" y="-354"/>
<text text-anchor="start" x="28" y="-345.2" font-family="Helvetica,sans-Serif" font-size="11.00">m_locator_id</text>
<polygon fill="none" stroke="black" points="8,-315 8,-337 274,-337 274,-315 8,-315"/>
<image xlink:href="../../images/foreignKeys.png" width="11px" height="12px" preserveAspectRatio="xMinYMin meet" x="13" y="-332"/>
<text text-anchor="start" x="28" y="-323.2" font-family="Helvetica,sans-Serif" font-size="11.00">c_subscriptiontype_id</text>
<polygon fill="#ffffff" stroke="transparent" points="8,-293 8,-315 274,-315 274,-293 8,-293"/>
<polygon fill="none" stroke="black" points="8,-293 8,-315 274,-315 274,-293 8,-293"/>
<text text-anchor="start" x="28" y="-301.2" font-family="Helvetica,sans-Serif" font-size="11.00">m_product_uu</text>
<polygon fill="none" stroke="black" points="8,-271 8,-293 274,-293 274,-271 8,-271"/>
<image xlink:href="../../images/foreignKeys.png" width="11px" height="12px" preserveAspectRatio="xMinYMin meet" x="13" y="-288"/>
<text text-anchor="start" x="28" y="-279.2" font-family="Helvetica,sans-Serif" font-size="11.00">m_parttype_id</text>
<polygon fill="none" stroke="black" points="8,-249 8,-271 274,-271 274,-249 8,-249"/>
<image xlink:href="../../images/foreignKeys.png" width="11px" height="12px" preserveAspectRatio="xMinYMin meet" x="13" y="-266"/>
<text text-anchor="start" x="28" y="-257.2" font-family="Helvetica,sans-Serif" font-size="11.00">cof_cest_id</text>
<polygon fill="none" stroke="black" points="8,-227 8,-249 274,-249 274,-227 8,-227"/>
<image xlink:href="../../images/foreignKeys.png" width="11px" height="12px" preserveAspectRatio="xMinYMin meet" x="13" y="-244"/>
<text text-anchor="start" x="28" y="-235.2" font-family="Helvetica,sans-Serif" font-size="11.00">cof_c_generoitem_sped_id</text>
<polygon fill="none" stroke="black" points="8,-205 8,-227 274,-227 274,-205 8,-205"/>
<image xlink:href="../../images/foreignKeys.png" width="11px" height="12px" preserveAspectRatio="xMinYMin meet" x="13" y="-222"/>
<text text-anchor="start" x="28" y="-213.2" font-family="Helvetica,sans-Serif" font-size="11.00">cof_producttype_id</text>
<polygon fill="none" stroke="black" points="8,-183 8,-205 274,-205 274,-183 8,-183"/>
<image xlink:href="../../images/foreignKeys.png" width="11px" height="12px" preserveAspectRatio="xMinYMin meet" x="13" y="-200"/>
<text text-anchor="start" x="28" y="-191.2" font-family="Helvetica,sans-Serif" font-size="11.00">cof_productclass_id</text>
<polygon fill="none" stroke="black" points="8,-161 8,-183 274,-183 274,-161 8,-161"/>
<image xlink:href="../../images/foreignKeys.png" width="11px" height="12px" preserveAspectRatio="xMinYMin meet" x="13" y="-178"/>
<text text-anchor="start" x="28" y="-169.2" font-family="Helvetica,sans-Serif" font-size="11.00">cof_productgroup_id</text>
<polygon fill="none" stroke="black" points="8,-139 8,-161 274,-161 274,-139 8,-139"/>
<image xlink:href="../../images/foreignKeys.png" width="11px" height="12px" preserveAspectRatio="xMinYMin meet" x="13" y="-156"/>
<text text-anchor="start" x="28" y="-147.2" font-family="Helvetica,sans-Serif" font-size="11.00">cof_nbs_id</text>
<polygon fill="none" stroke="black" points="8,-117 8,-139 274,-139 274,-117 8,-117"/>
<image xlink:href="../../images/foreignKeys.png" width="11px" height="12px" preserveAspectRatio="xMinYMin meet" x="13" y="-134"/>
<text text-anchor="start" x="28" y="-125.2" font-family="Helvetica,sans-Serif" font-size="11.00">cof_grupofornecedor_id</text>
<polygon fill="none" stroke="black" points="8,-95 8,-117 274,-117 274,-95 8,-95"/>
<image xlink:href="../../images/foreignKeys.png" width="11px" height="12px" preserveAspectRatio="xMinYMin meet" x="13" y="-112"/>
<text text-anchor="start" x="28" y="-103.2" font-family="Helvetica,sans-Serif" font-size="11.00">cof_gruposeparacao_id</text>
<polygon fill="none" stroke="black" points="8,-73 8,-95 274,-95 274,-73 8,-73"/>
<image xlink:href="../../images/foreignKeys.png" width="11px" height="12px" preserveAspectRatio="xMinYMin meet" x="13" y="-90"/>
<text text-anchor="start" x="28" y="-81.2" font-family="Helvetica,sans-Serif" font-size="11.00">cof_servicoatrelado_id</text>
<polygon fill="none" stroke="black" points="8,-55 8,-73 274,-73 274,-55 8,-55"/>
<text text-anchor="start" x="11" y="-61.2" font-family="Helvetica,sans-Serif" font-size="11.00">...</text>
<polygon fill="#ffffff" stroke="transparent" points="8,-37 8,-55 274,-55 274,-37 8,-37"/>
<polygon fill="none" stroke="black" points="8,-37 8,-55 274,-55 274,-37 8,-37"/>
<polygon fill="#ffffff" stroke="transparent" points="9,-38 9,-54 93,-54 93,-38 9,-38"/>
<text text-anchor="start" x="11" y="-43.2" font-family="Helvetica,sans-Serif" font-size="11.00">&lt; 24</text>
<polygon fill="#ffffff" stroke="transparent" points="93,-38 93,-54 183,-54 183,-38 93,-38"/>
<text text-anchor="start" x="124" y="-43.2" font-family="Helvetica,sans-Serif" font-size="11.00">1 row</text>
<polygon fill="#ffffff" stroke="transparent" points="183,-38 183,-54 273,-54 273,-38 183,-38"/>
<text text-anchor="start" x="243" y="-43.2" font-family="Helvetica,sans-Serif" font-size="11.00">187 &gt;</text>
<polygon fill="black" stroke="black" points="93,-38 93,-54 93,-54 93,-38 93,-38"/>
<polygon fill="black" stroke="black" points="183,-38 183,-54 183,-54 183,-38 183,-38"/>
</a>
</g>
</g>
<!-- m_productpricevendorbreak&#45;&gt;m_product -->
<g id="edge3" class="edge">
<title>m_productpricevendorbreak:w&#45;&gt;m_product:e</title>
<path fill="none" stroke="black" d="M309.74,-886.75C252.4,-865.42 356.18,-700 275,-700"/>
<polygon fill="black" stroke="black" points="316.1,-887.75 323.44,-892.56 320.05,-888.38 324,-889 324,-889 324,-889 320.05,-888.38 324.56,-885.44 316.1,-887.75 316.1,-887.75"/>
<ellipse fill="none" stroke="black" cx="312.94" cy="-887.25" rx="3.2" ry="3.2"/>
</g>
</g>
</svg>
