<?xml version="1.0" encoding="UTF-8" standalone="no"?>
<!DOCTYPE svg PUBLIC "-//W3C//DTD SVG 1.1//EN"
 "http://www.w3.org/Graphics/SVG/1.1/DTD/svg11.dtd">
<!-- Generated by graphviz version 2.43.0 (0)
 -->
<!-- Title: oneDegreeRelationshipsDiagram Pages: 1 -->
<svg width="635pt" height="868pt"
 viewBox="0.00 0.00 635.00 868.00" xmlns="http://www.w3.org/2000/svg" xmlns:xlink="http://www.w3.org/1999/xlink">
<g id="graph0" class="graph" transform="scale(1 1) rotate(0) translate(4 864)">
<title>oneDegreeRelationshipsDiagram</title>
<polygon fill="#ffffff" stroke="transparent" points="-4,4 -4,-864 631,-864 631,4 -4,4"/>
<text text-anchor="middle" x="71.5" y="-7.2" font-family="Helvetica,sans-Serif" font-size="11.00">Generated by SchemaSpy</text>
<!-- m_product_qualitytest -->
<g id="node1" class="node">
<title>m_product_qualitytest</title>
<g id="a_node1"><a xlink:href="../../tables/m_product_qualitytest.html" xlink:title="m_product_qualitytest" target="_top">
<polygon fill="#ffffff" stroke="transparent" points="323,-378 323,-686 619,-686 619,-378 323,-378"/>
<polygon fill="#f5f5f5" stroke="transparent" points="325,-662 325,-684 617,-684 617,-662 325,-662"/>
<polygon fill="none" stroke="black" points="325,-662 325,-684 617,-684 617,-662 325,-662"/>
<text text-anchor="start" x="330" y="-671.2" font-family="Helvetica,sans-Serif" font-weight="bold" font-size="11.00">m_product_qualitytest</text>
<text text-anchor="start" x="582" y="-670.2" font-family="Helvetica,sans-Serif" font-size="11.00">[table]</text>
<polygon fill="none" stroke="black" points="325,-640 325,-662 534,-662 534,-640 325,-640"/>
<image xlink:href="../../images/primaryKeys.png" width="11px" height="12px" preserveAspectRatio="xMinYMin meet" x="330" y="-657"/>
<text text-anchor="start" x="345" y="-648.2" font-family="Helvetica,sans-Serif" font-size="11.00">m_product_qualitytest_id</text>
<polygon fill="none" stroke="black" points="534,-640 534,-662 617,-662 617,-640 534,-640"/>
<text text-anchor="start" x="537" y="-648.2" font-family="Helvetica,sans-Serif" font-size="11.00">numeric[10]</text>
<polygon fill="none" stroke="black" points="325,-618 325,-640 534,-640 534,-618 325,-618"/>
<text text-anchor="start" x="345" y="-626.2" font-family="Helvetica,sans-Serif" font-size="11.00">ad_client_id</text>
<polygon fill="none" stroke="black" points="534,-618 534,-640 617,-640 617,-618 534,-618"/>
<text text-anchor="start" x="537" y="-626.2" font-family="Helvetica,sans-Serif" font-size="11.00">numeric[10]</text>
<polygon fill="none" stroke="black" points="325,-596 325,-618 534,-618 534,-596 325,-596"/>
<text text-anchor="start" x="345" y="-604.2" font-family="Helvetica,sans-Serif" font-size="11.00">ad_org_id</text>
<polygon fill="none" stroke="black" points="534,-596 534,-618 617,-618 617,-596 534,-596"/>
<text text-anchor="start" x="537" y="-604.2" font-family="Helvetica,sans-Serif" font-size="11.00">numeric[10]</text>
<polygon fill="none" stroke="black" points="325,-574 325,-596 534,-596 534,-574 325,-574"/>
<text text-anchor="start" x="345" y="-582.2" font-family="Helvetica,sans-Serif" font-size="11.00">created</text>
<polygon fill="none" stroke="black" points="534,-574 534,-596 617,-596 617,-574 534,-574"/>
<text text-anchor="start" x="537" y="-582.2" font-family="Helvetica,sans-Serif" font-size="11.00">timestamp[29,6]</text>
<polygon fill="none" stroke="black" points="325,-552 325,-574 534,-574 534,-552 325,-552"/>
<text text-anchor="start" x="345" y="-560.2" font-family="Helvetica,sans-Serif" font-size="11.00">createdby</text>
<polygon fill="none" stroke="black" points="534,-552 534,-574 617,-574 617,-552 534,-552"/>
<text text-anchor="start" x="537" y="-560.2" font-family="Helvetica,sans-Serif" font-size="11.00">numeric[10]</text>
<polygon fill="none" stroke="black" points="325,-530 325,-552 534,-552 534,-530 325,-530"/>
<text text-anchor="start" x="345" y="-538.2" font-family="Helvetica,sans-Serif" font-size="11.00">isactive</text>
<polygon fill="none" stroke="black" points="534,-530 534,-552 617,-552 617,-530 534,-530"/>
<text text-anchor="start" x="537" y="-538.2" font-family="Helvetica,sans-Serif" font-size="11.00">bpchar[1]</text>
<polygon fill="none" stroke="black" points="325,-508 325,-530 534,-530 534,-508 325,-508"/>
<text text-anchor="start" x="345" y="-516.2" font-family="Helvetica,sans-Serif" font-size="11.00">updated</text>
<polygon fill="none" stroke="black" points="534,-508 534,-530 617,-530 617,-508 534,-508"/>
<text text-anchor="start" x="537" y="-516.2" font-family="Helvetica,sans-Serif" font-size="11.00">timestamp[29,6]</text>
<polygon fill="none" stroke="black" points="325,-486 325,-508 534,-508 534,-486 325,-486"/>
<text text-anchor="start" x="345" y="-494.2" font-family="Helvetica,sans-Serif" font-size="11.00">updatedby</text>
<polygon fill="none" stroke="black" points="534,-486 534,-508 617,-508 617,-486 534,-486"/>
<text text-anchor="start" x="537" y="-494.2" font-family="Helvetica,sans-Serif" font-size="11.00">numeric[10]</text>
<polygon fill="none" stroke="black" points="325,-464 325,-486 534,-486 534,-464 325,-464"/>
<image xlink:href="../../images/foreignKeys.png" width="11px" height="12px" preserveAspectRatio="xMinYMin meet" x="330" y="-481"/>
<text text-anchor="start" x="345" y="-472.2" font-family="Helvetica,sans-Serif" font-size="11.00">m_product_id</text>
<polygon fill="none" stroke="black" points="534,-464 534,-486 617,-486 617,-464 534,-464"/>
<text text-anchor="start" x="537" y="-472.2" font-family="Helvetica,sans-Serif" font-size="11.00">numeric[10]</text>
<polygon fill="none" stroke="black" points="325,-442 325,-464 534,-464 534,-442 325,-442"/>
<image xlink:href="../../images/foreignKeys.png" width="11px" height="12px" preserveAspectRatio="xMinYMin meet" x="330" y="-459"/>
<text text-anchor="start" x="345" y="-450.2" font-family="Helvetica,sans-Serif" font-size="11.00">m_qualitytest_id</text>
<polygon fill="none" stroke="black" points="534,-442 534,-464 617,-464 617,-442 534,-442"/>
<text text-anchor="start" x="537" y="-450.2" font-family="Helvetica,sans-Serif" font-size="11.00">numeric[10]</text>
<polygon fill="none" stroke="black" points="325,-420 325,-442 534,-442 534,-420 325,-420"/>
<text text-anchor="start" x="345" y="-428.2" font-family="Helvetica,sans-Serif" font-size="11.00">expectedresult</text>
<polygon fill="none" stroke="black" points="534,-420 534,-442 617,-442 617,-420 534,-420"/>
<text text-anchor="start" x="537" y="-428.2" font-family="Helvetica,sans-Serif" font-size="11.00">varchar[255]</text>
<polygon fill="#ffffff" stroke="transparent" points="325,-398 325,-420 534,-420 534,-398 325,-398"/>
<polygon fill="none" stroke="black" points="325,-398 325,-420 534,-420 534,-398 325,-398"/>
<text text-anchor="start" x="345" y="-406.2" font-family="Helvetica,sans-Serif" font-size="11.00">m_product_qualitytest_uu</text>
<polygon fill="none" stroke="black" points="534,-398 534,-420 617,-420 617,-398 534,-398"/>
<text text-anchor="start" x="537" y="-406.2" font-family="Helvetica,sans-Serif" font-size="11.00">varchar[36]</text>
<polygon fill="#ffffff" stroke="transparent" points="325,-380 325,-398 617,-398 617,-380 325,-380"/>
<polygon fill="none" stroke="black" points="325,-380 325,-398 617,-398 617,-380 325,-380"/>
<polygon fill="#ffffff" stroke="transparent" points="326,-381 326,-397 426,-397 426,-381 326,-381"/>
<text text-anchor="start" x="328" y="-386.2" font-family="Helvetica,sans-Serif" font-size="11.00">&lt; 2</text>
<polygon fill="#ffffff" stroke="transparent" points="426,-381 426,-397 517,-397 517,-381 426,-381"/>
<text text-anchor="start" x="468" y="-386.2" font-family="Helvetica,sans-Serif" font-size="11.00"> &#160;</text>
<polygon fill="#ffffff" stroke="transparent" points="517,-381 517,-397 616,-397 616,-381 517,-381"/>
<text text-anchor="start" x="598" y="-386.2" font-family="Helvetica,sans-Serif" font-size="11.00">0 &gt;</text>
<polygon fill="black" stroke="black" points="426,-381 426,-397 426,-397 426,-381 426,-381"/>
<polygon fill="black" stroke="black" points="517,-381 517,-397 517,-397 517,-381 517,-381"/>
<polygon fill="none" stroke="black" stroke-width="2" points="324,-379 324,-685 618,-685 618,-379 324,-379"/>
</a>
</g>
</g>
<!-- m_product -->
<g id="node2" class="node">
<title>m_product</title>
<g id="a_node2"><a xlink:href="../../tables/m_product.html" xlink:title="m_product" target="_top">
<polygon fill="#ffffff" stroke="transparent" points="8,-160 8,-856 274,-856 274,-160 8,-160"/>
<polygon fill="#f5f5f5" stroke="transparent" points="8,-834 8,-856 274,-856 274,-834 8,-834"/>
<polygon fill="none" stroke="black" points="8,-834 8,-856 274,-856 274,-834 8,-834"/>
<text text-anchor="start" x="13" y="-843.2" font-family="Helvetica,sans-Serif" font-weight="bold" font-size="11.00">m_product</text>
<text text-anchor="start" x="239" y="-842.2" font-family="Helvetica,sans-Serif" font-size="11.00">[table]</text>
<polygon fill="none" stroke="black" points="8,-812 8,-834 274,-834 274,-812 8,-812"/>
<image xlink:href="../../images/primaryKeys.png" width="11px" height="12px" preserveAspectRatio="xMinYMin meet" x="13" y="-829"/>
<text text-anchor="start" x="28" y="-820.2" font-family="Helvetica,sans-Serif" font-size="11.00">m_product_id</text>
<polygon fill="#ffffff" stroke="transparent" points="8,-790 8,-812 274,-812 274,-790 8,-790"/>
<polygon fill="none" stroke="black" points="8,-790 8,-812 274,-812 274,-790 8,-790"/>
<image xlink:href="../../images/foreignKeys.png" width="11px" height="12px" preserveAspectRatio="xMinYMin meet" x="13" y="-807"/>
<text text-anchor="start" x="28" y="-798.2" font-family="Helvetica,sans-Serif" font-size="11.00">ad_client_id</text>
<polygon fill="none" stroke="black" points="8,-768 8,-790 274,-790 274,-768 8,-768"/>
<image xlink:href="../../images/foreignKeys.png" width="11px" height="12px" preserveAspectRatio="xMinYMin meet" x="13" y="-785"/>
<text text-anchor="start" x="28" y="-776.2" font-family="Helvetica,sans-Serif" font-size="11.00">ad_org_id</text>
<polygon fill="#ffffff" stroke="transparent" points="8,-746 8,-768 274,-768 274,-746 8,-746"/>
<polygon fill="none" stroke="black" points="8,-746 8,-768 274,-768 274,-746 8,-746"/>
<text text-anchor="start" x="28" y="-754.2" font-family="Helvetica,sans-Serif" font-size="11.00">value</text>
<polygon fill="#ffffff" stroke="transparent" points="8,-724 8,-746 274,-746 274,-724 8,-724"/>
<polygon fill="none" stroke="black" points="8,-724 8,-746 274,-746 274,-724 8,-724"/>
<text text-anchor="start" x="28" y="-732.2" font-family="Helvetica,sans-Serif" font-size="11.00">name</text>
<polygon fill="#ffffff" stroke="transparent" points="8,-702 8,-724 274,-724 274,-702 8,-702"/>
<polygon fill="none" stroke="black" points="8,-702 8,-724 274,-724 274,-702 8,-702"/>
<text text-anchor="start" x="28" y="-710.2" font-family="Helvetica,sans-Serif" font-size="11.00">upc</text>
<polygon fill="none" stroke="black" points="8,-680 8,-702 274,-702 274,-680 8,-680"/>
<image xlink:href="../../images/foreignKeys.png" width="11px" height="12px" preserveAspectRatio="xMinYMin meet" x="13" y="-697"/>
<text text-anchor="start" x="28" y="-688.2" font-family="Helvetica,sans-Serif" font-size="11.00">c_uom_id</text>
<polygon fill="none" stroke="black" points="8,-658 8,-680 274,-680 274,-658 8,-658"/>
<image xlink:href="../../images/foreignKeys.png" width="11px" height="12px" preserveAspectRatio="xMinYMin meet" x="13" y="-675"/>
<text text-anchor="start" x="28" y="-666.2" font-family="Helvetica,sans-Serif" font-size="11.00">salesrep_id</text>
<polygon fill="none" stroke="black" points="8,-636 8,-658 274,-658 274,-636 8,-636"/>
<image xlink:href="../../images/foreignKeys.png" width="11px" height="12px" preserveAspectRatio="xMinYMin meet" x="13" y="-653"/>
<text text-anchor="start" x="28" y="-644.2" font-family="Helvetica,sans-Serif" font-size="11.00">c_revenuerecognition_id</text>
<polygon fill="#ffffff" stroke="transparent" points="8,-614 8,-636 274,-636 274,-614 8,-614"/>
<polygon fill="none" stroke="black" points="8,-614 8,-636 274,-636 274,-614 8,-614"/>
<image xlink:href="../../images/foreignKeys.png" width="11px" height="12px" preserveAspectRatio="xMinYMin meet" x="13" y="-631"/>
<text text-anchor="start" x="28" y="-622.2" font-family="Helvetica,sans-Serif" font-size="11.00">m_product_category_id</text>
<polygon fill="none" stroke="black" points="8,-592 8,-614 274,-614 274,-592 8,-592"/>
<image xlink:href="../../images/foreignKeys.png" width="11px" height="12px" preserveAspectRatio="xMinYMin meet" x="13" y="-609"/>
<text text-anchor="start" x="28" y="-600.2" font-family="Helvetica,sans-Serif" font-size="11.00">c_taxcategory_id</text>
<polygon fill="#ffffff" stroke="transparent" points="8,-570 8,-592 274,-592 274,-570 8,-570"/>
<polygon fill="none" stroke="black" points="8,-570 8,-592 274,-592 274,-570 8,-570"/>
<image xlink:href="../../images/foreignKeys.png" width="11px" height="12px" preserveAspectRatio="xMinYMin meet" x="13" y="-587"/>
<text text-anchor="start" x="28" y="-578.2" font-family="Helvetica,sans-Serif" font-size="11.00">s_resource_id</text>
<polygon fill="#ffffff" stroke="transparent" points="8,-548 8,-570 274,-570 274,-548 8,-548"/>
<polygon fill="none" stroke="black" points="8,-548 8,-570 274,-570 274,-548 8,-548"/>
<image xlink:href="../../images/foreignKeys.png" width="11px" height="12px" preserveAspectRatio="xMinYMin meet" x="13" y="-565"/>
<text text-anchor="start" x="28" y="-556.2" font-family="Helvetica,sans-Serif" font-size="11.00">s_expensetype_id</text>
<polygon fill="none" stroke="black" points="8,-526 8,-548 274,-548 274,-526 8,-526"/>
<image xlink:href="../../images/foreignKeys.png" width="11px" height="12px" preserveAspectRatio="xMinYMin meet" x="13" y="-543"/>
<text text-anchor="start" x="28" y="-534.2" font-family="Helvetica,sans-Serif" font-size="11.00">r_mailtext_id</text>
<polygon fill="none" stroke="black" points="8,-504 8,-526 274,-526 274,-504 8,-504"/>
<image xlink:href="../../images/foreignKeys.png" width="11px" height="12px" preserveAspectRatio="xMinYMin meet" x="13" y="-521"/>
<text text-anchor="start" x="28" y="-512.2" font-family="Helvetica,sans-Serif" font-size="11.00">m_attributeset_id</text>
<polygon fill="none" stroke="black" points="8,-482 8,-504 274,-504 274,-482 8,-482"/>
<image xlink:href="../../images/foreignKeys.png" width="11px" height="12px" preserveAspectRatio="xMinYMin meet" x="13" y="-499"/>
<text text-anchor="start" x="28" y="-490.2" font-family="Helvetica,sans-Serif" font-size="11.00">m_freightcategory_id</text>
<polygon fill="none" stroke="black" points="8,-460 8,-482 274,-482 274,-460 8,-460"/>
<image xlink:href="../../images/foreignKeys.png" width="11px" height="12px" preserveAspectRatio="xMinYMin meet" x="13" y="-477"/>
<text text-anchor="start" x="28" y="-468.2" font-family="Helvetica,sans-Serif" font-size="11.00">m_locator_id</text>
<polygon fill="none" stroke="black" points="8,-438 8,-460 274,-460 274,-438 8,-438"/>
<image xlink:href="../../images/foreignKeys.png" width="11px" height="12px" preserveAspectRatio="xMinYMin meet" x="13" y="-455"/>
<text text-anchor="start" x="28" y="-446.2" font-family="Helvetica,sans-Serif" font-size="11.00">c_subscriptiontype_id</text>
<polygon fill="#ffffff" stroke="transparent" points="8,-416 8,-438 274,-438 274,-416 8,-416"/>
<polygon fill="none" stroke="black" points="8,-416 8,-438 274,-438 274,-416 8,-416"/>
<text text-anchor="start" x="28" y="-424.2" font-family="Helvetica,sans-Serif" font-size="11.00">m_product_uu</text>
<polygon fill="none" stroke="black" points="8,-394 8,-416 274,-416 274,-394 8,-394"/>
<image xlink:href="../../images/foreignKeys.png" width="11px" height="12px" preserveAspectRatio="xMinYMin meet" x="13" y="-411"/>
<text text-anchor="start" x="28" y="-402.2" font-family="Helvetica,sans-Serif" font-size="11.00">m_parttype_id</text>
<polygon fill="none" stroke="black" points="8,-372 8,-394 274,-394 274,-372 8,-372"/>
<image xlink:href="../../images/foreignKeys.png" width="11px" height="12px" preserveAspectRatio="xMinYMin meet" x="13" y="-389"/>
<text text-anchor="start" x="28" y="-380.2" font-family="Helvetica,sans-Serif" font-size="11.00">cof_cest_id</text>
<polygon fill="none" stroke="black" points="8,-350 8,-372 274,-372 274,-350 8,-350"/>
<image xlink:href="../../images/foreignKeys.png" width="11px" height="12px" preserveAspectRatio="xMinYMin meet" x="13" y="-367"/>
<text text-anchor="start" x="28" y="-358.2" font-family="Helvetica,sans-Serif" font-size="11.00">cof_c_generoitem_sped_id</text>
<polygon fill="none" stroke="black" points="8,-328 8,-350 274,-350 274,-328 8,-328"/>
<image xlink:href="../../images/foreignKeys.png" width="11px" height="12px" preserveAspectRatio="xMinYMin meet" x="13" y="-345"/>
<text text-anchor="start" x="28" y="-336.2" font-family="Helvetica,sans-Serif" font-size="11.00">cof_producttype_id</text>
<polygon fill="none" stroke="black" points="8,-306 8,-328 274,-328 274,-306 8,-306"/>
<image xlink:href="../../images/foreignKeys.png" width="11px" height="12px" preserveAspectRatio="xMinYMin meet" x="13" y="-323"/>
<text text-anchor="start" x="28" y="-314.2" font-family="Helvetica,sans-Serif" font-size="11.00">cof_productclass_id</text>
<polygon fill="none" stroke="black" points="8,-284 8,-306 274,-306 274,-284 8,-284"/>
<image xlink:href="../../images/foreignKeys.png" width="11px" height="12px" preserveAspectRatio="xMinYMin meet" x="13" y="-301"/>
<text text-anchor="start" x="28" y="-292.2" font-family="Helvetica,sans-Serif" font-size="11.00">cof_productgroup_id</text>
<polygon fill="none" stroke="black" points="8,-262 8,-284 274,-284 274,-262 8,-262"/>
<image xlink:href="../../images/foreignKeys.png" width="11px" height="12px" preserveAspectRatio="xMinYMin meet" x="13" y="-279"/>
<text text-anchor="start" x="28" y="-270.2" font-family="Helvetica,sans-Serif" font-size="11.00">cof_nbs_id</text>
<polygon fill="none" stroke="black" points="8,-240 8,-262 274,-262 274,-240 8,-240"/>
<image xlink:href="../../images/foreignKeys.png" width="11px" height="12px" preserveAspectRatio="xMinYMin meet" x="13" y="-257"/>
<text text-anchor="start" x="28" y="-248.2" font-family="Helvetica,sans-Serif" font-size="11.00">cof_grupofornecedor_id</text>
<polygon fill="none" stroke="black" points="8,-218 8,-240 274,-240 274,-218 8,-218"/>
<image xlink:href="../../images/foreignKeys.png" width="11px" height="12px" preserveAspectRatio="xMinYMin meet" x="13" y="-235"/>
<text text-anchor="start" x="28" y="-226.2" font-family="Helvetica,sans-Serif" font-size="11.00">cof_gruposeparacao_id</text>
<polygon fill="none" stroke="black" points="8,-196 8,-218 274,-218 274,-196 8,-196"/>
<image xlink:href="../../images/foreignKeys.png" width="11px" height="12px" preserveAspectRatio="xMinYMin meet" x="13" y="-213"/>
<text text-anchor="start" x="28" y="-204.2" font-family="Helvetica,sans-Serif" font-size="11.00">cof_servicoatrelado_id</text>
<polygon fill="none" stroke="black" points="8,-178 8,-196 274,-196 274,-178 8,-178"/>
<text text-anchor="start" x="11" y="-184.2" font-family="Helvetica,sans-Serif" font-size="11.00">...</text>
<polygon fill="#ffffff" stroke="transparent" points="8,-160 8,-178 274,-178 274,-160 8,-160"/>
<polygon fill="none" stroke="black" points="8,-160 8,-178 274,-178 274,-160 8,-160"/>
<polygon fill="#ffffff" stroke="transparent" points="9,-161 9,-177 93,-177 93,-161 9,-161"/>
<text text-anchor="start" x="11" y="-166.2" font-family="Helvetica,sans-Serif" font-size="11.00">&lt; 24</text>
<polygon fill="#ffffff" stroke="transparent" points="93,-161 93,-177 183,-177 183,-161 93,-161"/>
<text text-anchor="start" x="124" y="-166.2" font-family="Helvetica,sans-Serif" font-size="11.00">1 row</text>
<polygon fill="#ffffff" stroke="transparent" points="183,-161 183,-177 273,-177 273,-161 183,-161"/>
<text text-anchor="start" x="243" y="-166.2" font-family="Helvetica,sans-Serif" font-size="11.00">187 &gt;</text>
<polygon fill="black" stroke="black" points="93,-161 93,-177 93,-177 93,-161 93,-161"/>
<polygon fill="black" stroke="black" points="183,-161 183,-177 183,-177 183,-161 183,-161"/>
</a>
</g>
</g>
<!-- m_product_qualitytest&#45;&gt;m_product -->
<g id="edge1" class="edge">
<title>m_product_qualitytest:w&#45;&gt;m_product:e</title>
<path fill="none" stroke="black" d="M309.42,-476.19C185.32,-498.38 425.85,-823 275,-823"/>
<polygon fill="black" stroke="black" points="316.03,-475.65 324.29,-478.59 320.01,-475.33 324,-475 324,-475 324,-475 320.01,-475.33 323.71,-471.41 316.03,-475.65 316.03,-475.65"/>
<ellipse fill="none" stroke="black" cx="312.84" cy="-475.91" rx="3.2" ry="3.2"/>
</g>
<!-- m_qualitytest -->
<g id="node3" class="node">
<title>m_qualitytest</title>
<g id="a_node3"><a xlink:href="../../tables/m_qualitytest.html" xlink:title="m_qualitytest" target="_top">
<polygon fill="#ffffff" stroke="transparent" points="68.5,-37 68.5,-139 213.5,-139 213.5,-37 68.5,-37"/>
<polygon fill="#f5f5f5" stroke="transparent" points="69,-117 69,-139 214,-139 214,-117 69,-117"/>
<polygon fill="none" stroke="black" points="69,-117 69,-139 214,-139 214,-117 69,-117"/>
<text text-anchor="start" x="74" y="-126.2" font-family="Helvetica,sans-Serif" font-weight="bold" font-size="11.00">m_qualitytest</text>
<text text-anchor="start" x="179" y="-125.2" font-family="Helvetica,sans-Serif" font-size="11.00">[table]</text>
<polygon fill="none" stroke="black" points="69,-95 69,-117 214,-117 214,-95 69,-95"/>
<image xlink:href="../../images/primaryKeys.png" width="11px" height="12px" preserveAspectRatio="xMinYMin meet" x="74" y="-112"/>
<text text-anchor="start" x="89" y="-103.2" font-family="Helvetica,sans-Serif" font-size="11.00">m_qualitytest_id</text>
<polygon fill="#ffffff" stroke="transparent" points="69,-73 69,-95 214,-95 214,-73 69,-73"/>
<polygon fill="none" stroke="black" points="69,-73 69,-95 214,-95 214,-73 69,-73"/>
<text text-anchor="start" x="89" y="-81.2" font-family="Helvetica,sans-Serif" font-size="11.00">m_qualitytest_uu</text>
<polygon fill="none" stroke="black" points="69,-55 69,-73 214,-73 214,-55 69,-55"/>
<text text-anchor="start" x="72" y="-61.2" font-family="Helvetica,sans-Serif" font-size="11.00">...</text>
<polygon fill="#ffffff" stroke="transparent" points="69,-37 69,-55 214,-55 214,-37 69,-37"/>
<polygon fill="none" stroke="black" points="69,-37 69,-55 214,-55 214,-37 69,-37"/>
<polygon fill="#ffffff" stroke="transparent" points="70,-38 70,-54 115,-54 115,-38 70,-38"/>
<text text-anchor="start" x="72" y="-43.2" font-family="Helvetica,sans-Serif" font-size="11.00"> &#160;</text>
<polygon fill="#ffffff" stroke="transparent" points="115,-38 115,-54 160,-54 160,-38 115,-38"/>
<text text-anchor="start" x="134" y="-43.2" font-family="Helvetica,sans-Serif" font-size="11.00"> &#160;</text>
<polygon fill="#ffffff" stroke="transparent" points="160,-38 160,-54 213,-54 213,-38 160,-38"/>
<text text-anchor="start" x="195" y="-43.2" font-family="Helvetica,sans-Serif" font-size="11.00">2 &gt;</text>
<polygon fill="black" stroke="black" points="115,-38 115,-54 115,-54 115,-38 115,-38"/>
<polygon fill="black" stroke="black" points="160,-38 160,-54 160,-54 160,-38 160,-38"/>
</a>
</g>
</g>
<!-- m_product_qualitytest&#45;&gt;m_qualitytest -->
<g id="edge2" class="edge">
<title>m_product_qualitytest:w&#45;&gt;m_qualitytest:e</title>
<path fill="none" stroke="black" d="M310.06,-448.5C265.37,-414.88 315.41,-202.86 282,-150 262.96,-119.89 250.62,-106 215,-106"/>
<polygon fill="black" stroke="black" points="316.39,-450.54 322.89,-456.43 320.19,-451.77 324,-453 324,-453 324,-453 320.19,-451.77 325.11,-449.57 316.39,-450.54 316.39,-450.54"/>
<ellipse fill="none" stroke="black" cx="313.34" cy="-449.56" rx="3.2" ry="3.2"/>
</g>
</g>
</svg>
