<?xml version="1.0" encoding="UTF-8" standalone="no"?>
<!DOCTYPE svg PUBLIC "-//W3C//DTD SVG 1.1//EN"
 "http://www.w3.org/Graphics/SVG/1.1/DTD/svg11.dtd">
<!-- Generated by graphviz version 2.43.0 (0)
 -->
<!-- Title: oneDegreeRelationshipsDiagram Pages: 1 -->
<svg width="518pt" height="570pt"
 viewBox="0.00 0.00 518.00 570.00" xmlns="http://www.w3.org/2000/svg" xmlns:xlink="http://www.w3.org/1999/xlink">
<g id="graph0" class="graph" transform="scale(1 1) rotate(0) translate(4 566)">
<title>oneDegreeRelationshipsDiagram</title>
<polygon fill="#ffffff" stroke="transparent" points="-4,4 -4,-566 514,-566 514,4 -4,4"/>
<text text-anchor="middle" x="71.5" y="-7.2" font-family="Helvetica,sans-Serif" font-size="11.00">Generated by SchemaSpy</text>
<!-- m_attributeset -->
<g id="node1" class="node">
<title>m_attributeset</title>
<g id="a_node1"><a xlink:href="../../tables/m_attributeset.html" xlink:title="m_attributeset" target="_top">
<polygon fill="#ffffff" stroke="transparent" points="269,-412 269,-558 502,-558 502,-412 269,-412"/>
<polygon fill="#f5f5f5" stroke="transparent" points="269.5,-536 269.5,-558 502.5,-558 502.5,-536 269.5,-536"/>
<polygon fill="none" stroke="black" points="269.5,-536 269.5,-558 502.5,-558 502.5,-536 269.5,-536"/>
<text text-anchor="start" x="274.5" y="-545.2" font-family="Helvetica,sans-Serif" font-weight="bold" font-size="11.00">m_attributeset</text>
<text text-anchor="start" x="467.5" y="-544.2" font-family="Helvetica,sans-Serif" font-size="11.00">[table]</text>
<polygon fill="none" stroke="black" points="269.5,-514 269.5,-536 502.5,-536 502.5,-514 269.5,-514"/>
<image xlink:href="../../images/primaryKeys.png" width="11px" height="12px" preserveAspectRatio="xMinYMin meet" x="274.5" y="-531"/>
<text text-anchor="start" x="289.5" y="-522.2" font-family="Helvetica,sans-Serif" font-size="11.00">m_attributeset_id</text>
<polygon fill="none" stroke="black" points="269.5,-492 269.5,-514 502.5,-514 502.5,-492 269.5,-492"/>
<image xlink:href="../../images/foreignKeys.png" width="11px" height="12px" preserveAspectRatio="xMinYMin meet" x="274.5" y="-509"/>
<text text-anchor="start" x="289.5" y="-500.2" font-family="Helvetica,sans-Serif" font-size="11.00">m_sernoctl_id</text>
<polygon fill="none" stroke="black" points="269.5,-470 269.5,-492 502.5,-492 502.5,-470 269.5,-470"/>
<image xlink:href="../../images/foreignKeys.png" width="11px" height="12px" preserveAspectRatio="xMinYMin meet" x="274.5" y="-487"/>
<text text-anchor="start" x="289.5" y="-478.2" font-family="Helvetica,sans-Serif" font-size="11.00">m_lotctl_id</text>
<polygon fill="#ffffff" stroke="transparent" points="269.5,-448 269.5,-470 502.5,-470 502.5,-448 269.5,-448"/>
<polygon fill="none" stroke="black" points="269.5,-448 269.5,-470 502.5,-470 502.5,-448 269.5,-448"/>
<text text-anchor="start" x="289.5" y="-456.2" font-family="Helvetica,sans-Serif" font-size="11.00">m_attributeset_uu</text>
<polygon fill="none" stroke="black" points="269.5,-430 269.5,-448 502.5,-448 502.5,-430 269.5,-430"/>
<text text-anchor="start" x="272.5" y="-436.2" font-family="Helvetica,sans-Serif" font-size="11.00">...</text>
<polygon fill="#ffffff" stroke="transparent" points="269.5,-412 269.5,-430 502.5,-430 502.5,-412 269.5,-412"/>
<polygon fill="none" stroke="black" points="269.5,-412 269.5,-430 502.5,-430 502.5,-412 269.5,-412"/>
<polygon fill="#ffffff" stroke="transparent" points="270.5,-413 270.5,-429 343.5,-429 343.5,-413 270.5,-413"/>
<text text-anchor="start" x="272.5" y="-418.2" font-family="Helvetica,sans-Serif" font-size="11.00">&lt; 2</text>
<polygon fill="#ffffff" stroke="transparent" points="343.5,-413 343.5,-429 428.5,-429 428.5,-413 343.5,-413"/>
<text text-anchor="start" x="372" y="-418.2" font-family="Helvetica,sans-Serif" font-size="11.00">1 row</text>
<polygon fill="#ffffff" stroke="transparent" points="428.5,-413 428.5,-429 501.5,-429 501.5,-413 428.5,-413"/>
<text text-anchor="start" x="483.5" y="-418.2" font-family="Helvetica,sans-Serif" font-size="11.00">6 &gt;</text>
<polygon fill="black" stroke="black" points="343.5,-413 343.5,-429 343.5,-429 343.5,-413 343.5,-413"/>
<polygon fill="black" stroke="black" points="428.5,-413 428.5,-429 428.5,-429 428.5,-413 428.5,-413"/>
</a>
</g>
</g>
<!-- m_sernoctl -->
<g id="node2" class="node">
<title>m_sernoctl</title>
<g id="a_node2"><a xlink:href="../../tables/m_sernoctl.html" xlink:title="m_sernoctl" target="_top">
<polygon fill="#ffffff" stroke="transparent" points="8,-37 8,-455 220,-455 220,-37 8,-37"/>
<polygon fill="#f5f5f5" stroke="transparent" points="10,-431 10,-453 218,-453 218,-431 10,-431"/>
<polygon fill="none" stroke="black" points="10,-431 10,-453 218,-453 218,-431 10,-431"/>
<text text-anchor="start" x="15" y="-440.2" font-family="Helvetica,sans-Serif" font-weight="bold" font-size="11.00">m_sernoctl</text>
<text text-anchor="start" x="183" y="-439.2" font-family="Helvetica,sans-Serif" font-size="11.00">[table]</text>
<polygon fill="none" stroke="black" points="10,-409 10,-431 135,-431 135,-409 10,-409"/>
<image xlink:href="../../images/primaryKeys.png" width="11px" height="12px" preserveAspectRatio="xMinYMin meet" x="15" y="-426"/>
<text text-anchor="start" x="30" y="-417.2" font-family="Helvetica,sans-Serif" font-size="11.00">m_sernoctl_id</text>
<polygon fill="none" stroke="black" points="135,-409 135,-431 218,-431 218,-409 135,-409"/>
<text text-anchor="start" x="138" y="-417.2" font-family="Helvetica,sans-Serif" font-size="11.00">numeric[10]</text>
<polygon fill="none" stroke="black" points="10,-387 10,-409 135,-409 135,-387 10,-387"/>
<text text-anchor="start" x="30" y="-395.2" font-family="Helvetica,sans-Serif" font-size="11.00">ad_client_id</text>
<polygon fill="none" stroke="black" points="135,-387 135,-409 218,-409 218,-387 135,-387"/>
<text text-anchor="start" x="138" y="-395.2" font-family="Helvetica,sans-Serif" font-size="11.00">numeric[10]</text>
<polygon fill="none" stroke="black" points="10,-365 10,-387 135,-387 135,-365 10,-365"/>
<text text-anchor="start" x="30" y="-373.2" font-family="Helvetica,sans-Serif" font-size="11.00">ad_org_id</text>
<polygon fill="none" stroke="black" points="135,-365 135,-387 218,-387 218,-365 135,-365"/>
<text text-anchor="start" x="138" y="-373.2" font-family="Helvetica,sans-Serif" font-size="11.00">numeric[10]</text>
<polygon fill="none" stroke="black" points="10,-343 10,-365 135,-365 135,-343 10,-343"/>
<text text-anchor="start" x="30" y="-351.2" font-family="Helvetica,sans-Serif" font-size="11.00">isactive</text>
<polygon fill="none" stroke="black" points="135,-343 135,-365 218,-365 218,-343 135,-343"/>
<text text-anchor="start" x="138" y="-351.2" font-family="Helvetica,sans-Serif" font-size="11.00">bpchar[1]</text>
<polygon fill="none" stroke="black" points="10,-321 10,-343 135,-343 135,-321 10,-321"/>
<text text-anchor="start" x="30" y="-329.2" font-family="Helvetica,sans-Serif" font-size="11.00">created</text>
<polygon fill="none" stroke="black" points="135,-321 135,-343 218,-343 218,-321 135,-321"/>
<text text-anchor="start" x="138" y="-329.2" font-family="Helvetica,sans-Serif" font-size="11.00">timestamp[29,6]</text>
<polygon fill="none" stroke="black" points="10,-299 10,-321 135,-321 135,-299 10,-299"/>
<text text-anchor="start" x="30" y="-307.2" font-family="Helvetica,sans-Serif" font-size="11.00">updatedby</text>
<polygon fill="none" stroke="black" points="135,-299 135,-321 218,-321 218,-299 135,-299"/>
<text text-anchor="start" x="138" y="-307.2" font-family="Helvetica,sans-Serif" font-size="11.00">numeric[10]</text>
<polygon fill="none" stroke="black" points="10,-277 10,-299 135,-299 135,-277 10,-277"/>
<text text-anchor="start" x="30" y="-285.2" font-family="Helvetica,sans-Serif" font-size="11.00">name</text>
<polygon fill="none" stroke="black" points="135,-277 135,-299 218,-299 218,-277 135,-277"/>
<text text-anchor="start" x="138" y="-285.2" font-family="Helvetica,sans-Serif" font-size="11.00">varchar[60]</text>
<polygon fill="none" stroke="black" points="10,-255 10,-277 135,-277 135,-255 10,-255"/>
<text text-anchor="start" x="30" y="-263.2" font-family="Helvetica,sans-Serif" font-size="11.00">description</text>
<polygon fill="none" stroke="black" points="135,-255 135,-277 218,-277 218,-255 135,-255"/>
<text text-anchor="start" x="138" y="-263.2" font-family="Helvetica,sans-Serif" font-size="11.00">varchar[255]</text>
<polygon fill="none" stroke="black" points="10,-233 10,-255 135,-255 135,-233 10,-233"/>
<text text-anchor="start" x="30" y="-241.2" font-family="Helvetica,sans-Serif" font-size="11.00">startno</text>
<polygon fill="none" stroke="black" points="135,-233 135,-255 218,-255 218,-233 135,-233"/>
<text text-anchor="start" x="138" y="-241.2" font-family="Helvetica,sans-Serif" font-size="11.00">numeric[10]</text>
<polygon fill="none" stroke="black" points="10,-211 10,-233 135,-233 135,-211 10,-211"/>
<text text-anchor="start" x="30" y="-219.2" font-family="Helvetica,sans-Serif" font-size="11.00">incrementno</text>
<polygon fill="none" stroke="black" points="135,-211 135,-233 218,-233 218,-211 135,-211"/>
<text text-anchor="start" x="138" y="-219.2" font-family="Helvetica,sans-Serif" font-size="11.00">numeric[10]</text>
<polygon fill="none" stroke="black" points="10,-189 10,-211 135,-211 135,-189 10,-189"/>
<text text-anchor="start" x="30" y="-197.2" font-family="Helvetica,sans-Serif" font-size="11.00">currentnext</text>
<polygon fill="none" stroke="black" points="135,-189 135,-211 218,-211 218,-189 135,-189"/>
<text text-anchor="start" x="138" y="-197.2" font-family="Helvetica,sans-Serif" font-size="11.00">numeric[10]</text>
<polygon fill="none" stroke="black" points="10,-167 10,-189 135,-189 135,-167 10,-167"/>
<text text-anchor="start" x="30" y="-175.2" font-family="Helvetica,sans-Serif" font-size="11.00">prefix</text>
<polygon fill="none" stroke="black" points="135,-167 135,-189 218,-189 218,-167 135,-167"/>
<text text-anchor="start" x="138" y="-175.2" font-family="Helvetica,sans-Serif" font-size="11.00">varchar[10]</text>
<polygon fill="none" stroke="black" points="10,-145 10,-167 135,-167 135,-145 10,-145"/>
<text text-anchor="start" x="30" y="-153.2" font-family="Helvetica,sans-Serif" font-size="11.00">suffix</text>
<polygon fill="none" stroke="black" points="135,-145 135,-167 218,-167 218,-145 135,-145"/>
<text text-anchor="start" x="138" y="-153.2" font-family="Helvetica,sans-Serif" font-size="11.00">varchar[10]</text>
<polygon fill="none" stroke="black" points="10,-123 10,-145 135,-145 135,-123 10,-123"/>
<text text-anchor="start" x="30" y="-131.2" font-family="Helvetica,sans-Serif" font-size="11.00">createdby</text>
<polygon fill="none" stroke="black" points="135,-123 135,-145 218,-145 218,-123 135,-123"/>
<text text-anchor="start" x="138" y="-131.2" font-family="Helvetica,sans-Serif" font-size="11.00">numeric[10]</text>
<polygon fill="none" stroke="black" points="10,-101 10,-123 135,-123 135,-101 10,-101"/>
<text text-anchor="start" x="30" y="-109.2" font-family="Helvetica,sans-Serif" font-size="11.00">updated</text>
<polygon fill="none" stroke="black" points="135,-101 135,-123 218,-123 218,-101 135,-101"/>
<text text-anchor="start" x="138" y="-109.2" font-family="Helvetica,sans-Serif" font-size="11.00">timestamp[29,6]</text>
<polygon fill="#ffffff" stroke="transparent" points="10,-79 10,-101 135,-101 135,-79 10,-79"/>
<polygon fill="none" stroke="black" points="10,-79 10,-101 135,-101 135,-79 10,-79"/>
<text text-anchor="start" x="30" y="-87.2" font-family="Helvetica,sans-Serif" font-size="11.00">m_sernoctl_uu</text>
<polygon fill="none" stroke="black" points="135,-79 135,-101 218,-101 218,-79 135,-79"/>
<text text-anchor="start" x="138" y="-87.2" font-family="Helvetica,sans-Serif" font-size="11.00">varchar[36]</text>
<polygon fill="none" stroke="black" points="10,-57 10,-79 135,-79 135,-57 10,-57"/>
<text text-anchor="start" x="30" y="-65.2" font-family="Helvetica,sans-Serif" font-size="11.00">cof_formato</text>
<polygon fill="none" stroke="black" points="135,-57 135,-79 218,-79 218,-57 135,-57"/>
<text text-anchor="start" x="138" y="-65.2" font-family="Helvetica,sans-Serif" font-size="11.00">varchar[20]</text>
<polygon fill="#ffffff" stroke="transparent" points="10,-39 10,-57 218,-57 218,-39 10,-39"/>
<polygon fill="none" stroke="black" points="10,-39 10,-57 218,-57 218,-39 10,-39"/>
<polygon fill="#ffffff" stroke="transparent" points="11,-40 11,-56 83,-56 83,-40 11,-40"/>
<text text-anchor="start" x="13" y="-45.2" font-family="Helvetica,sans-Serif" font-size="11.00">&lt; 0</text>
<polygon fill="#ffffff" stroke="transparent" points="83,-40 83,-56 146,-56 146,-40 83,-40"/>
<text text-anchor="start" x="111" y="-45.2" font-family="Helvetica,sans-Serif" font-size="11.00"> &#160;</text>
<polygon fill="#ffffff" stroke="transparent" points="146,-40 146,-56 217,-56 217,-40 146,-40"/>
<text text-anchor="start" x="199" y="-45.2" font-family="Helvetica,sans-Serif" font-size="11.00">2 &gt;</text>
<polygon fill="black" stroke="black" points="83,-40 83,-56 83,-56 83,-40 83,-40"/>
<polygon fill="black" stroke="black" points="146,-40 146,-56 146,-56 146,-40 146,-40"/>
<polygon fill="none" stroke="black" stroke-width="2" points="9,-38 9,-454 219,-454 219,-38 9,-38"/>
</a>
</g>
</g>
<!-- m_attributeset&#45;&gt;m_sernoctl -->
<g id="edge1" class="edge">
<title>m_attributeset:w&#45;&gt;m_sernoctl:e</title>
<path fill="none" stroke="black" d="M254.65,-498.54C234.22,-481.3 255.91,-420 219,-420"/>
<polygon fill="black" stroke="black" points="260.89,-500.55 267.4,-506.43 264.69,-501.77 268.5,-503 268.5,-503 268.5,-503 264.69,-501.77 269.6,-499.57 260.89,-500.55 260.89,-500.55"/>
<ellipse fill="none" stroke="black" cx="257.84" cy="-499.57" rx="3.2" ry="3.2"/>
</g>
<!-- m_sernoctlexclude -->
<g id="node3" class="node">
<title>m_sernoctlexclude</title>
<g id="a_node3"><a xlink:href="../../tables/m_sernoctlexclude.html" xlink:title="m_sernoctlexclude" target="_top">
<polygon fill="#ffffff" stroke="transparent" points="294.5,-245 294.5,-391 476.5,-391 476.5,-245 294.5,-245"/>
<polygon fill="#f5f5f5" stroke="transparent" points="294.5,-369 294.5,-391 476.5,-391 476.5,-369 294.5,-369"/>
<polygon fill="none" stroke="black" points="294.5,-369 294.5,-391 476.5,-391 476.5,-369 294.5,-369"/>
<text text-anchor="start" x="299.5" y="-378.2" font-family="Helvetica,sans-Serif" font-weight="bold" font-size="11.00">m_sernoctlexclude</text>
<text text-anchor="start" x="441.5" y="-377.2" font-family="Helvetica,sans-Serif" font-size="11.00">[table]</text>
<polygon fill="none" stroke="black" points="294.5,-347 294.5,-369 476.5,-369 476.5,-347 294.5,-347"/>
<image xlink:href="../../images/primaryKeys.png" width="11px" height="12px" preserveAspectRatio="xMinYMin meet" x="299.5" y="-364"/>
<text text-anchor="start" x="314.5" y="-355.2" font-family="Helvetica,sans-Serif" font-size="11.00">m_sernoctlexclude_id</text>
<polygon fill="none" stroke="black" points="294.5,-325 294.5,-347 476.5,-347 476.5,-325 294.5,-325"/>
<image xlink:href="../../images/foreignKeys.png" width="11px" height="12px" preserveAspectRatio="xMinYMin meet" x="299.5" y="-342"/>
<text text-anchor="start" x="314.5" y="-333.2" font-family="Helvetica,sans-Serif" font-size="11.00">m_sernoctl_id</text>
<polygon fill="none" stroke="black" points="294.5,-303 294.5,-325 476.5,-325 476.5,-303 294.5,-303"/>
<image xlink:href="../../images/foreignKeys.png" width="11px" height="12px" preserveAspectRatio="xMinYMin meet" x="299.5" y="-320"/>
<text text-anchor="start" x="314.5" y="-311.2" font-family="Helvetica,sans-Serif" font-size="11.00">ad_table_id</text>
<polygon fill="#ffffff" stroke="transparent" points="294.5,-281 294.5,-303 476.5,-303 476.5,-281 294.5,-281"/>
<polygon fill="none" stroke="black" points="294.5,-281 294.5,-303 476.5,-303 476.5,-281 294.5,-281"/>
<text text-anchor="start" x="314.5" y="-289.2" font-family="Helvetica,sans-Serif" font-size="11.00">m_sernoctlexclude_uu</text>
<polygon fill="none" stroke="black" points="294.5,-263 294.5,-281 476.5,-281 476.5,-263 294.5,-263"/>
<text text-anchor="start" x="297.5" y="-269.2" font-family="Helvetica,sans-Serif" font-size="11.00">...</text>
<polygon fill="#ffffff" stroke="transparent" points="294.5,-245 294.5,-263 476.5,-263 476.5,-245 294.5,-245"/>
<polygon fill="none" stroke="black" points="294.5,-245 294.5,-263 476.5,-263 476.5,-245 294.5,-245"/>
<polygon fill="#ffffff" stroke="transparent" points="295.5,-246 295.5,-262 361.5,-262 361.5,-246 295.5,-246"/>
<text text-anchor="start" x="297.5" y="-251.2" font-family="Helvetica,sans-Serif" font-size="11.00">&lt; 2</text>
<polygon fill="#ffffff" stroke="transparent" points="361.5,-246 361.5,-262 418.5,-262 418.5,-246 361.5,-246"/>
<text text-anchor="start" x="386.5" y="-251.2" font-family="Helvetica,sans-Serif" font-size="11.00"> &#160;</text>
<polygon fill="#ffffff" stroke="transparent" points="418.5,-246 418.5,-262 475.5,-262 475.5,-246 418.5,-246"/>
<text text-anchor="start" x="466.5" y="-251.2" font-family="Helvetica,sans-Serif" font-size="11.00"> &#160;</text>
<polygon fill="black" stroke="black" points="361.5,-246 361.5,-262 361.5,-262 361.5,-246 361.5,-246"/>
<polygon fill="black" stroke="black" points="418.5,-246 418.5,-262 418.5,-262 418.5,-246 418.5,-246"/>
</a>
</g>
</g>
<!-- m_sernoctlexclude&#45;&gt;m_sernoctl -->
<g id="edge2" class="edge">
<title>m_sernoctlexclude:w&#45;&gt;m_sernoctl:e</title>
<path fill="none" stroke="black" d="M279.22,-338.99C248.37,-353.95 263.25,-420 219,-420"/>
<polygon fill="black" stroke="black" points="285.67,-337.64 294.24,-339.52 289.58,-336.82 293.5,-336 293.5,-336 293.5,-336 289.58,-336.82 292.76,-332.48 285.67,-337.64 285.67,-337.64"/>
<ellipse fill="none" stroke="black" cx="282.54" cy="-338.29" rx="3.2" ry="3.2"/>
</g>
</g>
</svg>
