<?xml version="1.0" encoding="UTF-8" standalone="no"?>
<!DOCTYPE svg PUBLIC "-//W3C//DTD SVG 1.1//EN"
 "http://www.w3.org/Graphics/SVG/1.1/DTD/svg11.dtd">
<!-- Generated by graphviz version 2.43.0 (0)
 -->
<!-- Title: oneDegreeRelationshipsDiagram Pages: 1 -->
<svg width="820pt" height="923pt"
 viewBox="0.00 0.00 820.00 923.41" xmlns="http://www.w3.org/2000/svg" xmlns:xlink="http://www.w3.org/1999/xlink">
<g id="graph0" class="graph" transform="scale(1 1) rotate(0) translate(4 919.41)">
<title>oneDegreeRelationshipsDiagram</title>
<polygon fill="#ffffff" stroke="transparent" points="-4,4 -4,-919.41 816,-919.41 816,4 -4,4"/>
<text text-anchor="middle" x="71.5" y="-7.2" font-family="Helvetica,sans-Serif" font-size="11.00">Generated by SchemaSpy</text>
<!-- m_packagemps -->
<g id="node1" class="node">
<title>m_packagemps</title>
<g id="a_node1"><a xlink:href="../../tables/m_packagemps.html" xlink:title="m_packagemps" target="_top">
<polygon fill="#ffffff" stroke="transparent" points="235,-37 235,-205 392,-205 392,-37 235,-37"/>
<polygon fill="#f5f5f5" stroke="transparent" points="235.5,-183 235.5,-205 392.5,-205 392.5,-183 235.5,-183"/>
<polygon fill="none" stroke="black" points="235.5,-183 235.5,-205 392.5,-205 392.5,-183 235.5,-183"/>
<text text-anchor="start" x="240.5" y="-192.2" font-family="Helvetica,sans-Serif" font-weight="bold" font-size="11.00">m_packagemps</text>
<text text-anchor="start" x="357.5" y="-191.2" font-family="Helvetica,sans-Serif" font-size="11.00">[table]</text>
<polygon fill="none" stroke="black" points="235.5,-161 235.5,-183 392.5,-183 392.5,-161 235.5,-161"/>
<image xlink:href="../../images/foreignKeys.png" width="11px" height="12px" preserveAspectRatio="xMinYMin meet" x="240.5" y="-178"/>
<text text-anchor="start" x="255.5" y="-169.2" font-family="Helvetica,sans-Serif" font-size="11.00">c_uom_length_id</text>
<polygon fill="none" stroke="black" points="235.5,-139 235.5,-161 392.5,-161 392.5,-139 235.5,-139"/>
<image xlink:href="../../images/foreignKeys.png" width="11px" height="12px" preserveAspectRatio="xMinYMin meet" x="240.5" y="-156"/>
<text text-anchor="start" x="255.5" y="-147.2" font-family="Helvetica,sans-Serif" font-size="11.00">c_uom_weight_id</text>
<polygon fill="none" stroke="black" points="235.5,-117 235.5,-139 392.5,-139 392.5,-117 235.5,-117"/>
<image xlink:href="../../images/foreignKeys.png" width="11px" height="12px" preserveAspectRatio="xMinYMin meet" x="240.5" y="-134"/>
<text text-anchor="start" x="255.5" y="-125.2" font-family="Helvetica,sans-Serif" font-size="11.00">m_package_id</text>
<polygon fill="none" stroke="black" points="235.5,-95 235.5,-117 392.5,-117 392.5,-95 235.5,-95"/>
<image xlink:href="../../images/primaryKeys.png" width="11px" height="12px" preserveAspectRatio="xMinYMin meet" x="240.5" y="-112"/>
<text text-anchor="start" x="255.5" y="-103.2" font-family="Helvetica,sans-Serif" font-size="11.00">m_packagemps_id</text>
<polygon fill="#ffffff" stroke="transparent" points="235.5,-73 235.5,-95 392.5,-95 392.5,-73 235.5,-73"/>
<polygon fill="none" stroke="black" points="235.5,-73 235.5,-95 392.5,-95 392.5,-73 235.5,-73"/>
<text text-anchor="start" x="255.5" y="-81.2" font-family="Helvetica,sans-Serif" font-size="11.00">m_packagemps_uu</text>
<polygon fill="none" stroke="black" points="235.5,-55 235.5,-73 392.5,-73 392.5,-55 235.5,-55"/>
<text text-anchor="start" x="238.5" y="-61.2" font-family="Helvetica,sans-Serif" font-size="11.00">...</text>
<polygon fill="#ffffff" stroke="transparent" points="235.5,-37 235.5,-55 392.5,-55 392.5,-37 235.5,-37"/>
<polygon fill="none" stroke="black" points="235.5,-37 235.5,-55 392.5,-55 392.5,-37 235.5,-37"/>
<polygon fill="#ffffff" stroke="transparent" points="236.5,-38 236.5,-54 291.5,-54 291.5,-38 236.5,-38"/>
<text text-anchor="start" x="238.5" y="-43.2" font-family="Helvetica,sans-Serif" font-size="11.00">&lt; 3</text>
<polygon fill="#ffffff" stroke="transparent" points="291.5,-38 291.5,-54 337.5,-54 337.5,-38 291.5,-38"/>
<text text-anchor="start" x="311" y="-43.2" font-family="Helvetica,sans-Serif" font-size="11.00"> &#160;</text>
<polygon fill="#ffffff" stroke="transparent" points="337.5,-38 337.5,-54 391.5,-54 391.5,-38 337.5,-38"/>
<text text-anchor="start" x="373.5" y="-43.2" font-family="Helvetica,sans-Serif" font-size="11.00">2 &gt;</text>
<polygon fill="black" stroke="black" points="291.5,-38 291.5,-54 291.5,-54 291.5,-38 291.5,-38"/>
<polygon fill="black" stroke="black" points="337.5,-38 337.5,-54 337.5,-54 337.5,-38 337.5,-38"/>
</a>
</g>
</g>
<!-- c_uom -->
<g id="node2" class="node">
<title>c_uom</title>
<g id="a_node2"><a xlink:href="../../tables/c_uom.html" xlink:title="c_uom" target="_top">
<polygon fill="#ffffff" stroke="transparent" points="8,-545 8,-735 149,-735 149,-545 8,-545"/>
<polygon fill="#f5f5f5" stroke="transparent" points="8.5,-713 8.5,-735 149.5,-735 149.5,-713 8.5,-713"/>
<polygon fill="none" stroke="black" points="8.5,-713 8.5,-735 149.5,-735 149.5,-713 8.5,-713"/>
<text text-anchor="start" x="13.5" y="-722.2" font-family="Helvetica,sans-Serif" font-weight="bold" font-size="11.00">c_uom</text>
<text text-anchor="start" x="114.5" y="-721.2" font-family="Helvetica,sans-Serif" font-size="11.00">[table]</text>
<polygon fill="none" stroke="black" points="8.5,-691 8.5,-713 149.5,-713 149.5,-691 8.5,-691"/>
<image xlink:href="../../images/primaryKeys.png" width="11px" height="12px" preserveAspectRatio="xMinYMin meet" x="13.5" y="-708"/>
<text text-anchor="start" x="28.5" y="-699.2" font-family="Helvetica,sans-Serif" font-size="11.00">c_uom_id</text>
<polygon fill="#ffffff" stroke="transparent" points="8.5,-669 8.5,-691 149.5,-691 149.5,-669 8.5,-669"/>
<polygon fill="none" stroke="black" points="8.5,-669 8.5,-691 149.5,-691 149.5,-669 8.5,-669"/>
<image xlink:href="../../images/foreignKeys.png" width="11px" height="12px" preserveAspectRatio="xMinYMin meet" x="13.5" y="-686"/>
<text text-anchor="start" x="28.5" y="-677.2" font-family="Helvetica,sans-Serif" font-size="11.00">ad_client_id</text>
<polygon fill="none" stroke="black" points="8.5,-647 8.5,-669 149.5,-669 149.5,-647 8.5,-647"/>
<image xlink:href="../../images/foreignKeys.png" width="11px" height="12px" preserveAspectRatio="xMinYMin meet" x="13.5" y="-664"/>
<text text-anchor="start" x="28.5" y="-655.2" font-family="Helvetica,sans-Serif" font-size="11.00">ad_org_id</text>
<polygon fill="#ffffff" stroke="transparent" points="8.5,-625 8.5,-647 149.5,-647 149.5,-625 8.5,-625"/>
<polygon fill="none" stroke="black" points="8.5,-625 8.5,-647 149.5,-647 149.5,-625 8.5,-625"/>
<text text-anchor="start" x="28.5" y="-633.2" font-family="Helvetica,sans-Serif" font-size="11.00">x12de355</text>
<polygon fill="#ffffff" stroke="transparent" points="8.5,-603 8.5,-625 149.5,-625 149.5,-603 8.5,-603"/>
<polygon fill="none" stroke="black" points="8.5,-603 8.5,-625 149.5,-625 149.5,-603 8.5,-603"/>
<text text-anchor="start" x="28.5" y="-611.2" font-family="Helvetica,sans-Serif" font-size="11.00">name</text>
<polygon fill="#ffffff" stroke="transparent" points="8.5,-581 8.5,-603 149.5,-603 149.5,-581 8.5,-581"/>
<polygon fill="none" stroke="black" points="8.5,-581 8.5,-603 149.5,-603 149.5,-581 8.5,-581"/>
<text text-anchor="start" x="28.5" y="-589.2" font-family="Helvetica,sans-Serif" font-size="11.00">c_uom_uu</text>
<polygon fill="none" stroke="black" points="8.5,-563 8.5,-581 149.5,-581 149.5,-563 8.5,-563"/>
<text text-anchor="start" x="11.5" y="-569.2" font-family="Helvetica,sans-Serif" font-size="11.00">...</text>
<polygon fill="#ffffff" stroke="transparent" points="8.5,-545 8.5,-563 149.5,-563 149.5,-545 8.5,-545"/>
<polygon fill="none" stroke="black" points="8.5,-545 8.5,-563 149.5,-563 149.5,-545 8.5,-545"/>
<polygon fill="#ffffff" stroke="transparent" points="9.5,-546 9.5,-562 46.5,-562 46.5,-546 9.5,-546"/>
<text text-anchor="start" x="11.5" y="-551.2" font-family="Helvetica,sans-Serif" font-size="11.00">&lt; 2</text>
<polygon fill="#ffffff" stroke="transparent" points="46.5,-546 46.5,-562 106.5,-562 106.5,-546 46.5,-546"/>
<text text-anchor="start" x="57" y="-551.2" font-family="Helvetica,sans-Serif" font-size="11.00">72 rows</text>
<polygon fill="#ffffff" stroke="transparent" points="106.5,-546 106.5,-562 148.5,-562 148.5,-546 106.5,-546"/>
<text text-anchor="start" x="124.5" y="-551.2" font-family="Helvetica,sans-Serif" font-size="11.00">55 &gt;</text>
<polygon fill="black" stroke="black" points="46.5,-546 46.5,-562 46.5,-562 46.5,-546 46.5,-546"/>
<polygon fill="black" stroke="black" points="106.5,-546 106.5,-562 106.5,-562 106.5,-546 106.5,-546"/>
</a>
</g>
</g>
<!-- m_packagemps&#45;&gt;c_uom -->
<g id="edge1" class="edge">
<title>m_packagemps:w&#45;&gt;c_uom:e</title>
<path fill="none" stroke="black" d="M220.26,-174.15C204.6,-179.65 199.37,-195.19 190,-215 166.79,-264.08 204.79,-702 150.5,-702"/>
<polygon fill="black" stroke="black" points="226.59,-173.19 235.04,-175.56 230.54,-172.6 234.5,-172 234.5,-172 234.5,-172 230.54,-172.6 233.96,-168.44 226.59,-173.19 226.59,-173.19"/>
<ellipse fill="none" stroke="black" cx="223.43" cy="-173.67" rx="3.2" ry="3.2"/>
</g>
<!-- m_packagemps&#45;&gt;c_uom -->
<g id="edge2" class="edge">
<title>m_packagemps:w&#45;&gt;c_uom:e</title>
<path fill="none" stroke="black" d="M220.05,-152.45C199.84,-160.53 199.78,-187.42 190,-215 171.86,-266.17 204.79,-702 150.5,-702"/>
<polygon fill="black" stroke="black" points="226.61,-151.34 235.1,-153.55 230.56,-150.67 234.5,-150 234.5,-150 234.5,-150 230.56,-150.67 233.9,-146.45 226.61,-151.34 226.61,-151.34"/>
<ellipse fill="none" stroke="black" cx="223.46" cy="-151.87" rx="3.2" ry="3.2"/>
</g>
<!-- m_shippingtransaction -->
<g id="node3" class="node">
<title>m_shippingtransaction</title>
<g id="a_node3"><a xlink:href="../../tables/m_shippingtransaction.html" xlink:title="m_shippingtransaction" target="_top">
<polygon fill="#ffffff" stroke="transparent" points="198,-226 198,-834 429,-834 429,-226 198,-226"/>
<polygon fill="#f5f5f5" stroke="transparent" points="198.5,-812 198.5,-834 429.5,-834 429.5,-812 198.5,-812"/>
<polygon fill="none" stroke="black" points="198.5,-812 198.5,-834 429.5,-834 429.5,-812 198.5,-812"/>
<text text-anchor="start" x="203.5" y="-821.2" font-family="Helvetica,sans-Serif" font-weight="bold" font-size="11.00">m_shippingtransaction</text>
<text text-anchor="start" x="394.5" y="-820.2" font-family="Helvetica,sans-Serif" font-size="11.00">[table]</text>
<polygon fill="none" stroke="black" points="198.5,-790 198.5,-812 429.5,-812 429.5,-790 198.5,-790"/>
<image xlink:href="../../images/foreignKeys.png" width="11px" height="12px" preserveAspectRatio="xMinYMin meet" x="203.5" y="-807"/>
<text text-anchor="start" x="218.5" y="-798.2" font-family="Helvetica,sans-Serif" font-size="11.00">c_bp_shippingacct_id</text>
<polygon fill="none" stroke="black" points="198.5,-768 198.5,-790 429.5,-790 429.5,-768 198.5,-768"/>
<image xlink:href="../../images/foreignKeys.png" width="11px" height="12px" preserveAspectRatio="xMinYMin meet" x="203.5" y="-785"/>
<text text-anchor="start" x="218.5" y="-776.2" font-family="Helvetica,sans-Serif" font-size="11.00">c_bpartner_location_id</text>
<polygon fill="none" stroke="black" points="198.5,-746 198.5,-768 429.5,-768 429.5,-746 198.5,-746"/>
<image xlink:href="../../images/foreignKeys.png" width="11px" height="12px" preserveAspectRatio="xMinYMin meet" x="203.5" y="-763"/>
<text text-anchor="start" x="218.5" y="-754.2" font-family="Helvetica,sans-Serif" font-size="11.00">c_currency_id</text>
<polygon fill="#ffffff" stroke="transparent" points="198.5,-724 198.5,-746 429.5,-746 429.5,-724 198.5,-724"/>
<polygon fill="none" stroke="black" points="198.5,-724 198.5,-746 429.5,-746 429.5,-724 198.5,-724"/>
<image xlink:href="../../images/foreignKeys.png" width="11px" height="12px" preserveAspectRatio="xMinYMin meet" x="203.5" y="-741"/>
<text text-anchor="start" x="218.5" y="-732.2" font-family="Helvetica,sans-Serif" font-size="11.00">c_order_id</text>
<polygon fill="none" stroke="black" points="198.5,-702 198.5,-724 429.5,-724 429.5,-702 198.5,-702"/>
<image xlink:href="../../images/foreignKeys.png" width="11px" height="12px" preserveAspectRatio="xMinYMin meet" x="203.5" y="-719"/>
<text text-anchor="start" x="218.5" y="-710.2" font-family="Helvetica,sans-Serif" font-size="11.00">c_uom_length_id</text>
<polygon fill="none" stroke="black" points="198.5,-680 198.5,-702 429.5,-702 429.5,-680 198.5,-680"/>
<image xlink:href="../../images/foreignKeys.png" width="11px" height="12px" preserveAspectRatio="xMinYMin meet" x="203.5" y="-697"/>
<text text-anchor="start" x="218.5" y="-688.2" font-family="Helvetica,sans-Serif" font-size="11.00">c_uom_weight_id</text>
<polygon fill="none" stroke="black" points="198.5,-658 198.5,-680 429.5,-680 429.5,-658 198.5,-658"/>
<image xlink:href="../../images/foreignKeys.png" width="11px" height="12px" preserveAspectRatio="xMinYMin meet" x="203.5" y="-675"/>
<text text-anchor="start" x="218.5" y="-666.2" font-family="Helvetica,sans-Serif" font-size="11.00">m_inout_id</text>
<polygon fill="none" stroke="black" points="198.5,-636 198.5,-658 429.5,-658 429.5,-636 198.5,-636"/>
<image xlink:href="../../images/foreignKeys.png" width="11px" height="12px" preserveAspectRatio="xMinYMin meet" x="203.5" y="-653"/>
<text text-anchor="start" x="218.5" y="-644.2" font-family="Helvetica,sans-Serif" font-size="11.00">m_package_id</text>
<polygon fill="none" stroke="black" points="198.5,-614 198.5,-636 429.5,-636 429.5,-614 198.5,-614"/>
<image xlink:href="../../images/foreignKeys.png" width="11px" height="12px" preserveAspectRatio="xMinYMin meet" x="203.5" y="-631"/>
<text text-anchor="start" x="218.5" y="-622.2" font-family="Helvetica,sans-Serif" font-size="11.00">m_shipper_id</text>
<polygon fill="none" stroke="black" points="198.5,-592 198.5,-614 429.5,-614 429.5,-592 198.5,-592"/>
<image xlink:href="../../images/foreignKeys.png" width="11px" height="12px" preserveAspectRatio="xMinYMin meet" x="203.5" y="-609"/>
<text text-anchor="start" x="218.5" y="-600.2" font-family="Helvetica,sans-Serif" font-size="11.00">m_shipperlabels_id</text>
<polygon fill="none" stroke="black" points="198.5,-570 198.5,-592 429.5,-592 429.5,-570 198.5,-570"/>
<image xlink:href="../../images/foreignKeys.png" width="11px" height="12px" preserveAspectRatio="xMinYMin meet" x="203.5" y="-587"/>
<text text-anchor="start" x="218.5" y="-578.2" font-family="Helvetica,sans-Serif" font-size="11.00">m_shipperpackaging_id</text>
<polygon fill="none" stroke="black" points="198.5,-548 198.5,-570 429.5,-570 429.5,-548 198.5,-548"/>
<image xlink:href="../../images/foreignKeys.png" width="11px" height="12px" preserveAspectRatio="xMinYMin meet" x="203.5" y="-565"/>
<text text-anchor="start" x="218.5" y="-556.2" font-family="Helvetica,sans-Serif" font-size="11.00">m_shipperpickuptypes_id</text>
<polygon fill="none" stroke="black" points="198.5,-526 198.5,-548 429.5,-548 429.5,-526 198.5,-526"/>
<image xlink:href="../../images/foreignKeys.png" width="11px" height="12px" preserveAspectRatio="xMinYMin meet" x="203.5" y="-543"/>
<text text-anchor="start" x="218.5" y="-534.2" font-family="Helvetica,sans-Serif" font-size="11.00">m_shippingprocessor_id</text>
<polygon fill="none" stroke="black" points="198.5,-504 198.5,-526 429.5,-526 429.5,-504 198.5,-504"/>
<image xlink:href="../../images/primaryKeys.png" width="11px" height="12px" preserveAspectRatio="xMinYMin meet" x="203.5" y="-521"/>
<text text-anchor="start" x="218.5" y="-512.2" font-family="Helvetica,sans-Serif" font-size="11.00">m_shippingtransaction_id</text>
<polygon fill="#ffffff" stroke="transparent" points="198.5,-482 198.5,-504 429.5,-504 429.5,-482 198.5,-482"/>
<polygon fill="none" stroke="black" points="198.5,-482 198.5,-504 429.5,-504 429.5,-482 198.5,-482"/>
<text text-anchor="start" x="218.5" y="-490.2" font-family="Helvetica,sans-Serif" font-size="11.00">m_shippingtransaction_uu</text>
<polygon fill="none" stroke="black" points="198.5,-460 198.5,-482 429.5,-482 429.5,-460 198.5,-460"/>
<image xlink:href="../../images/foreignKeys.png" width="11px" height="12px" preserveAspectRatio="xMinYMin meet" x="203.5" y="-477"/>
<text text-anchor="start" x="218.5" y="-468.2" font-family="Helvetica,sans-Serif" font-size="11.00">returnbpartner_id</text>
<polygon fill="none" stroke="black" points="198.5,-438 198.5,-460 429.5,-460 429.5,-438 198.5,-438"/>
<image xlink:href="../../images/foreignKeys.png" width="11px" height="12px" preserveAspectRatio="xMinYMin meet" x="203.5" y="-455"/>
<text text-anchor="start" x="218.5" y="-446.2" font-family="Helvetica,sans-Serif" font-size="11.00">returnlocation_id</text>
<polygon fill="none" stroke="black" points="198.5,-416 198.5,-438 429.5,-438 429.5,-416 198.5,-416"/>
<image xlink:href="../../images/foreignKeys.png" width="11px" height="12px" preserveAspectRatio="xMinYMin meet" x="203.5" y="-433"/>
<text text-anchor="start" x="218.5" y="-424.2" font-family="Helvetica,sans-Serif" font-size="11.00">returnuser_id</text>
<polygon fill="none" stroke="black" points="198.5,-394 198.5,-416 429.5,-416 429.5,-394 198.5,-394"/>
<image xlink:href="../../images/foreignKeys.png" width="11px" height="12px" preserveAspectRatio="xMinYMin meet" x="203.5" y="-411"/>
<text text-anchor="start" x="218.5" y="-402.2" font-family="Helvetica,sans-Serif" font-size="11.00">salesrep_id</text>
<polygon fill="none" stroke="black" points="198.5,-372 198.5,-394 429.5,-394 429.5,-372 198.5,-372"/>
<image xlink:href="../../images/foreignKeys.png" width="11px" height="12px" preserveAspectRatio="xMinYMin meet" x="203.5" y="-389"/>
<text text-anchor="start" x="218.5" y="-380.2" font-family="Helvetica,sans-Serif" font-size="11.00">m_warehouse_id</text>
<polygon fill="none" stroke="black" points="198.5,-350 198.5,-372 429.5,-372 429.5,-350 198.5,-350"/>
<image xlink:href="../../images/foreignKeys.png" width="11px" height="12px" preserveAspectRatio="xMinYMin meet" x="203.5" y="-367"/>
<text text-anchor="start" x="218.5" y="-358.2" font-family="Helvetica,sans-Serif" font-size="11.00">c_bpartner_id</text>
<polygon fill="none" stroke="black" points="198.5,-328 198.5,-350 429.5,-350 429.5,-328 198.5,-328"/>
<image xlink:href="../../images/foreignKeys.png" width="11px" height="12px" preserveAspectRatio="xMinYMin meet" x="203.5" y="-345"/>
<text text-anchor="start" x="218.5" y="-336.2" font-family="Helvetica,sans-Serif" font-size="11.00">ad_user_id</text>
<polygon fill="#ffffff" stroke="transparent" points="198.5,-306 198.5,-328 429.5,-328 429.5,-306 198.5,-306"/>
<polygon fill="none" stroke="black" points="198.5,-306 198.5,-328 429.5,-328 429.5,-306 198.5,-306"/>
<image xlink:href="../../images/foreignKeys.png" width="11px" height="12px" preserveAspectRatio="xMinYMin meet" x="203.5" y="-323"/>
<text text-anchor="start" x="218.5" y="-314.2" font-family="Helvetica,sans-Serif" font-size="11.00">c_invoice_id</text>
<polygon fill="none" stroke="black" points="198.5,-284 198.5,-306 429.5,-306 429.5,-284 198.5,-284"/>
<image xlink:href="../../images/foreignKeys.png" width="11px" height="12px" preserveAspectRatio="xMinYMin meet" x="203.5" y="-301"/>
<text text-anchor="start" x="218.5" y="-292.2" font-family="Helvetica,sans-Serif" font-size="11.00">bill_location_id</text>
<polygon fill="none" stroke="black" points="198.5,-262 198.5,-284 429.5,-284 429.5,-262 198.5,-262"/>
<image xlink:href="../../images/foreignKeys.png" width="11px" height="12px" preserveAspectRatio="xMinYMin meet" x="203.5" y="-279"/>
<text text-anchor="start" x="218.5" y="-270.2" font-family="Helvetica,sans-Serif" font-size="11.00">holdaddress_id</text>
<polygon fill="none" stroke="black" points="198.5,-244 198.5,-262 429.5,-262 429.5,-244 198.5,-244"/>
<text text-anchor="start" x="201.5" y="-250.2" font-family="Helvetica,sans-Serif" font-size="11.00">...</text>
<polygon fill="#ffffff" stroke="transparent" points="198.5,-226 198.5,-244 429.5,-244 429.5,-226 198.5,-226"/>
<polygon fill="none" stroke="black" points="198.5,-226 198.5,-244 429.5,-244 429.5,-226 198.5,-226"/>
<polygon fill="#ffffff" stroke="transparent" points="199.5,-227 199.5,-243 283.5,-243 283.5,-227 199.5,-227"/>
<text text-anchor="start" x="201.5" y="-232.2" font-family="Helvetica,sans-Serif" font-size="11.00">&lt; 23</text>
<polygon fill="#ffffff" stroke="transparent" points="283.5,-227 283.5,-243 351.5,-243 351.5,-227 283.5,-227"/>
<text text-anchor="start" x="314" y="-232.2" font-family="Helvetica,sans-Serif" font-size="11.00"> &#160;</text>
<polygon fill="#ffffff" stroke="transparent" points="351.5,-227 351.5,-243 428.5,-243 428.5,-227 351.5,-227"/>
<text text-anchor="start" x="410.5" y="-232.2" font-family="Helvetica,sans-Serif" font-size="11.00">1 &gt;</text>
<polygon fill="black" stroke="black" points="283.5,-227 283.5,-243 283.5,-243 283.5,-227 283.5,-227"/>
<polygon fill="black" stroke="black" points="351.5,-227 351.5,-243 351.5,-243 351.5,-227 351.5,-227"/>
</a>
</g>
</g>
<!-- m_shippingtransaction&#45;&gt;c_uom -->
<g id="edge3" class="edge">
<title>m_shippingtransaction:w&#45;&gt;c_uom:e</title>
<path fill="none" stroke="black" d="M183.09,-710.98C172.51,-707.81 166.09,-702 150.5,-702"/>
<polygon fill="black" stroke="black" points="189.58,-711.89 197,-716.57 193.54,-712.45 197.5,-713 197.5,-713 197.5,-713 193.54,-712.45 198,-709.43 189.58,-711.89 189.58,-711.89"/>
<ellipse fill="none" stroke="black" cx="186.41" cy="-711.45" rx="3.2" ry="3.2"/>
</g>
<!-- m_shippingtransaction&#45;&gt;c_uom -->
<g id="edge4" class="edge">
<title>m_shippingtransaction:w&#45;&gt;c_uom:e</title>
<path fill="none" stroke="black" d="M183.09,-693.02C172.51,-696.19 166.09,-702 150.5,-702"/>
<polygon fill="black" stroke="black" points="189.58,-692.11 198,-694.57 193.54,-691.55 197.5,-691 197.5,-691 197.5,-691 193.54,-691.55 197,-687.43 189.58,-692.11 189.58,-692.11"/>
<ellipse fill="none" stroke="black" cx="186.41" cy="-692.55" rx="3.2" ry="3.2"/>
</g>
<!-- m_shippingtransactionline -->
<g id="node4" class="node">
<title>m_shippingtransactionline</title>
<g id="a_node4"><a xlink:href="../../tables/m_shippingtransactionline.html" xlink:title="m_shippingtransactionline" target="_top">
<polygon fill="#ffffff" stroke="transparent" points="478,-314 478,-864 804,-864 804,-314 478,-314"/>
<polygon fill="#f5f5f5" stroke="transparent" points="480,-840 480,-862 802,-862 802,-840 480,-840"/>
<polygon fill="none" stroke="black" points="480,-840 480,-862 802,-862 802,-840 480,-840"/>
<text text-anchor="start" x="485" y="-849.2" font-family="Helvetica,sans-Serif" font-weight="bold" font-size="11.00">m_shippingtransactionline</text>
<text text-anchor="start" x="767" y="-848.2" font-family="Helvetica,sans-Serif" font-size="11.00">[table]</text>
<polygon fill="none" stroke="black" points="480,-818 480,-840 719,-840 719,-818 480,-818"/>
<text text-anchor="start" x="500" y="-826.2" font-family="Helvetica,sans-Serif" font-size="11.00">ad_client_id</text>
<polygon fill="none" stroke="black" points="719,-818 719,-840 802,-840 802,-818 719,-818"/>
<text text-anchor="start" x="722" y="-826.2" font-family="Helvetica,sans-Serif" font-size="11.00">numeric[10]</text>
<polygon fill="none" stroke="black" points="480,-796 480,-818 719,-818 719,-796 480,-796"/>
<text text-anchor="start" x="500" y="-804.2" font-family="Helvetica,sans-Serif" font-size="11.00">ad_org_id</text>
<polygon fill="none" stroke="black" points="719,-796 719,-818 802,-818 802,-796 719,-796"/>
<text text-anchor="start" x="722" y="-804.2" font-family="Helvetica,sans-Serif" font-size="11.00">numeric[10]</text>
<polygon fill="none" stroke="black" points="480,-774 480,-796 719,-796 719,-774 480,-774"/>
<image xlink:href="../../images/foreignKeys.png" width="11px" height="12px" preserveAspectRatio="xMinYMin meet" x="485" y="-791"/>
<text text-anchor="start" x="500" y="-782.2" font-family="Helvetica,sans-Serif" font-size="11.00">c_uom_length_id</text>
<polygon fill="none" stroke="black" points="719,-774 719,-796 802,-796 802,-774 719,-774"/>
<text text-anchor="start" x="722" y="-782.2" font-family="Helvetica,sans-Serif" font-size="11.00">numeric[10]</text>
<polygon fill="none" stroke="black" points="480,-752 480,-774 719,-774 719,-752 480,-752"/>
<image xlink:href="../../images/foreignKeys.png" width="11px" height="12px" preserveAspectRatio="xMinYMin meet" x="485" y="-769"/>
<text text-anchor="start" x="500" y="-760.2" font-family="Helvetica,sans-Serif" font-size="11.00">c_uom_weight_id</text>
<polygon fill="none" stroke="black" points="719,-752 719,-774 802,-774 802,-752 719,-752"/>
<text text-anchor="start" x="722" y="-760.2" font-family="Helvetica,sans-Serif" font-size="11.00">numeric[10]</text>
<polygon fill="none" stroke="black" points="480,-730 480,-752 719,-752 719,-730 480,-730"/>
<text text-anchor="start" x="500" y="-738.2" font-family="Helvetica,sans-Serif" font-size="11.00">created</text>
<polygon fill="none" stroke="black" points="719,-730 719,-752 802,-752 802,-730 719,-730"/>
<text text-anchor="start" x="722" y="-738.2" font-family="Helvetica,sans-Serif" font-size="11.00">timestamp[29,6]</text>
<polygon fill="none" stroke="black" points="480,-708 480,-730 719,-730 719,-708 480,-708"/>
<text text-anchor="start" x="500" y="-716.2" font-family="Helvetica,sans-Serif" font-size="11.00">createdby</text>
<polygon fill="none" stroke="black" points="719,-708 719,-730 802,-730 802,-708 719,-708"/>
<text text-anchor="start" x="722" y="-716.2" font-family="Helvetica,sans-Serif" font-size="11.00">numeric[10]</text>
<polygon fill="none" stroke="black" points="480,-686 480,-708 719,-708 719,-686 480,-686"/>
<text text-anchor="start" x="500" y="-694.2" font-family="Helvetica,sans-Serif" font-size="11.00">description</text>
<polygon fill="none" stroke="black" points="719,-686 719,-708 802,-708 802,-686 719,-686"/>
<text text-anchor="start" x="722" y="-694.2" font-family="Helvetica,sans-Serif" font-size="11.00">varchar[255]</text>
<polygon fill="none" stroke="black" points="480,-664 480,-686 719,-686 719,-664 480,-664"/>
<text text-anchor="start" x="500" y="-672.2" font-family="Helvetica,sans-Serif" font-size="11.00">height</text>
<polygon fill="none" stroke="black" points="719,-664 719,-686 802,-686 802,-664 719,-664"/>
<text text-anchor="start" x="722" y="-672.2" font-family="Helvetica,sans-Serif" font-size="11.00">numeric[0]</text>
<polygon fill="none" stroke="black" points="480,-642 480,-664 719,-664 719,-642 480,-642"/>
<text text-anchor="start" x="500" y="-650.2" font-family="Helvetica,sans-Serif" font-size="11.00">isactive</text>
<polygon fill="none" stroke="black" points="719,-642 719,-664 802,-664 802,-642 719,-642"/>
<text text-anchor="start" x="722" y="-650.2" font-family="Helvetica,sans-Serif" font-size="11.00">bpchar[1]</text>
<polygon fill="none" stroke="black" points="480,-620 480,-642 719,-642 719,-620 480,-620"/>
<text text-anchor="start" x="500" y="-628.2" font-family="Helvetica,sans-Serif" font-size="11.00">length</text>
<polygon fill="none" stroke="black" points="719,-620 719,-642 802,-642 802,-620 719,-620"/>
<text text-anchor="start" x="722" y="-628.2" font-family="Helvetica,sans-Serif" font-size="11.00">numeric[0]</text>
<polygon fill="none" stroke="black" points="480,-598 480,-620 719,-620 719,-598 480,-598"/>
<image xlink:href="../../images/foreignKeys.png" width="11px" height="12px" preserveAspectRatio="xMinYMin meet" x="485" y="-615"/>
<text text-anchor="start" x="500" y="-606.2" font-family="Helvetica,sans-Serif" font-size="11.00">m_shippingtransaction_id</text>
<polygon fill="none" stroke="black" points="719,-598 719,-620 802,-620 802,-598 719,-598"/>
<text text-anchor="start" x="722" y="-606.2" font-family="Helvetica,sans-Serif" font-size="11.00">numeric[10]</text>
<polygon fill="none" stroke="black" points="480,-576 480,-598 719,-598 719,-576 480,-576"/>
<image xlink:href="../../images/primaryKeys.png" width="11px" height="12px" preserveAspectRatio="xMinYMin meet" x="485" y="-593"/>
<text text-anchor="start" x="500" y="-584.2" font-family="Helvetica,sans-Serif" font-size="11.00">m_shippingtransactionline_id</text>
<polygon fill="none" stroke="black" points="719,-576 719,-598 802,-598 802,-576 719,-576"/>
<text text-anchor="start" x="722" y="-584.2" font-family="Helvetica,sans-Serif" font-size="11.00">numeric[10]</text>
<polygon fill="#ffffff" stroke="transparent" points="480,-554 480,-576 719,-576 719,-554 480,-554"/>
<polygon fill="none" stroke="black" points="480,-554 480,-576 719,-576 719,-554 480,-554"/>
<text text-anchor="start" x="500" y="-562.2" font-family="Helvetica,sans-Serif" font-size="11.00">m_shippingtransactionline_uu</text>
<polygon fill="none" stroke="black" points="719,-554 719,-576 802,-576 802,-554 719,-554"/>
<text text-anchor="start" x="722" y="-562.2" font-family="Helvetica,sans-Serif" font-size="11.00">varchar[36]</text>
<polygon fill="none" stroke="black" points="480,-532 480,-554 719,-554 719,-532 480,-532"/>
<text text-anchor="start" x="500" y="-540.2" font-family="Helvetica,sans-Serif" font-size="11.00">mastertrackingno</text>
<polygon fill="none" stroke="black" points="719,-532 719,-554 802,-554 802,-532 719,-532"/>
<text text-anchor="start" x="722" y="-540.2" font-family="Helvetica,sans-Serif" font-size="11.00">varchar[255]</text>
<polygon fill="none" stroke="black" points="480,-510 480,-532 719,-532 719,-510 480,-510"/>
<text text-anchor="start" x="500" y="-518.2" font-family="Helvetica,sans-Serif" font-size="11.00">price</text>
<polygon fill="none" stroke="black" points="719,-510 719,-532 802,-532 802,-510 719,-510"/>
<text text-anchor="start" x="722" y="-518.2" font-family="Helvetica,sans-Serif" font-size="11.00">numeric[0]</text>
<polygon fill="none" stroke="black" points="480,-488 480,-510 719,-510 719,-488 480,-488"/>
<text text-anchor="start" x="500" y="-496.2" font-family="Helvetica,sans-Serif" font-size="11.00">processed</text>
<polygon fill="none" stroke="black" points="719,-488 719,-510 802,-510 802,-488 719,-488"/>
<text text-anchor="start" x="722" y="-496.2" font-family="Helvetica,sans-Serif" font-size="11.00">bpchar[1]</text>
<polygon fill="none" stroke="black" points="480,-466 480,-488 719,-488 719,-466 480,-466"/>
<text text-anchor="start" x="500" y="-474.2" font-family="Helvetica,sans-Serif" font-size="11.00">seqno</text>
<polygon fill="none" stroke="black" points="719,-466 719,-488 802,-488 802,-466 719,-466"/>
<text text-anchor="start" x="722" y="-474.2" font-family="Helvetica,sans-Serif" font-size="11.00">numeric[10]</text>
<polygon fill="none" stroke="black" points="480,-444 480,-466 719,-466 719,-444 480,-444"/>
<text text-anchor="start" x="500" y="-452.2" font-family="Helvetica,sans-Serif" font-size="11.00">trackingno</text>
<polygon fill="none" stroke="black" points="719,-444 719,-466 802,-466 802,-444 719,-444"/>
<text text-anchor="start" x="722" y="-452.2" font-family="Helvetica,sans-Serif" font-size="11.00">varchar[255]</text>
<polygon fill="none" stroke="black" points="480,-422 480,-444 719,-444 719,-422 480,-422"/>
<text text-anchor="start" x="500" y="-430.2" font-family="Helvetica,sans-Serif" font-size="11.00">updated</text>
<polygon fill="none" stroke="black" points="719,-422 719,-444 802,-444 802,-422 719,-422"/>
<text text-anchor="start" x="722" y="-430.2" font-family="Helvetica,sans-Serif" font-size="11.00">timestamp[29,6]</text>
<polygon fill="none" stroke="black" points="480,-400 480,-422 719,-422 719,-400 480,-400"/>
<text text-anchor="start" x="500" y="-408.2" font-family="Helvetica,sans-Serif" font-size="11.00">updatedby</text>
<polygon fill="none" stroke="black" points="719,-400 719,-422 802,-422 802,-400 719,-400"/>
<text text-anchor="start" x="722" y="-408.2" font-family="Helvetica,sans-Serif" font-size="11.00">numeric[10]</text>
<polygon fill="none" stroke="black" points="480,-378 480,-400 719,-400 719,-378 480,-378"/>
<text text-anchor="start" x="500" y="-386.2" font-family="Helvetica,sans-Serif" font-size="11.00">weight</text>
<polygon fill="none" stroke="black" points="719,-378 719,-400 802,-400 802,-378 719,-378"/>
<text text-anchor="start" x="722" y="-386.2" font-family="Helvetica,sans-Serif" font-size="11.00">numeric[0]</text>
<polygon fill="none" stroke="black" points="480,-356 480,-378 719,-378 719,-356 480,-356"/>
<text text-anchor="start" x="500" y="-364.2" font-family="Helvetica,sans-Serif" font-size="11.00">width</text>
<polygon fill="none" stroke="black" points="719,-356 719,-378 802,-378 802,-356 719,-356"/>
<text text-anchor="start" x="722" y="-364.2" font-family="Helvetica,sans-Serif" font-size="11.00">numeric[0]</text>
<polygon fill="none" stroke="black" points="480,-334 480,-356 719,-356 719,-334 480,-334"/>
<image xlink:href="../../images/foreignKeys.png" width="11px" height="12px" preserveAspectRatio="xMinYMin meet" x="485" y="-351"/>
<text text-anchor="start" x="500" y="-342.2" font-family="Helvetica,sans-Serif" font-size="11.00">m_packagemps_id</text>
<polygon fill="none" stroke="black" points="719,-334 719,-356 802,-356 802,-334 719,-334"/>
<text text-anchor="start" x="722" y="-342.2" font-family="Helvetica,sans-Serif" font-size="11.00">numeric[10]</text>
<polygon fill="#ffffff" stroke="transparent" points="480,-316 480,-334 802,-334 802,-316 480,-316"/>
<polygon fill="none" stroke="black" points="480,-316 480,-334 802,-334 802,-316 480,-316"/>
<polygon fill="#ffffff" stroke="transparent" points="481,-317 481,-333 591,-333 591,-317 481,-317"/>
<text text-anchor="start" x="483" y="-322.2" font-family="Helvetica,sans-Serif" font-size="11.00">&lt; 4</text>
<polygon fill="#ffffff" stroke="transparent" points="591,-317 591,-333 692,-333 692,-317 591,-317"/>
<text text-anchor="start" x="638" y="-322.2" font-family="Helvetica,sans-Serif" font-size="11.00"> &#160;</text>
<polygon fill="#ffffff" stroke="transparent" points="692,-317 692,-333 801,-333 801,-317 692,-317"/>
<text text-anchor="start" x="783" y="-322.2" font-family="Helvetica,sans-Serif" font-size="11.00">0 &gt;</text>
<polygon fill="black" stroke="black" points="591,-317 591,-333 591,-333 591,-317 591,-317"/>
<polygon fill="black" stroke="black" points="692,-317 692,-333 692,-333 692,-317 692,-317"/>
<polygon fill="none" stroke="black" stroke-width="2" points="479,-315 479,-863 803,-863 803,-315 479,-315"/>
</a>
</g>
</g>
<!-- m_shippingtransactionline&#45;&gt;m_packagemps -->
<g id="edge7" class="edge">
<title>m_shippingtransactionline:w&#45;&gt;m_packagemps:e</title>
<path fill="none" stroke="black" d="M464.68,-343.23C424.99,-331.75 455.71,-266.87 437,-215 419.31,-165.93 445.66,-106 393.5,-106"/>
<polygon fill="black" stroke="black" points="471.06,-344.02 478.56,-348.57 475.03,-344.51 479,-345 479,-345 479,-345 475.03,-344.51 479.44,-341.43 471.06,-344.02 471.06,-344.02"/>
<ellipse fill="none" stroke="black" cx="467.89" cy="-343.62" rx="3.2" ry="3.2"/>
</g>
<!-- m_shippingtransactionline&#45;&gt;c_uom -->
<g id="edge5" class="edge">
<title>m_shippingtransactionline:w&#45;&gt;c_uom:e</title>
<path fill="none" stroke="black" d="M464.87,-788.91C446.57,-802.77 466.85,-849.65 437,-868 343.48,-925.49 276.14,-936.05 190,-868 130.49,-820.99 226.34,-702 150.5,-702"/>
<polygon fill="black" stroke="black" points="471.29,-787.14 479.96,-788.47 475.15,-786.07 479,-785 479,-785 479,-785 475.15,-786.07 478.04,-781.53 471.29,-787.14 471.29,-787.14"/>
<ellipse fill="none" stroke="black" cx="468.21" cy="-787.99" rx="3.2" ry="3.2"/>
</g>
<!-- m_shippingtransactionline&#45;&gt;c_uom -->
<g id="edge6" class="edge">
<title>m_shippingtransactionline:w&#45;&gt;c_uom:e</title>
<path fill="none" stroke="black" d="M465.1,-766.82C446.99,-780.36 466.37,-826.14 437,-844 390.1,-872.51 233.7,-877.21 190,-844 137.84,-804.37 216.01,-702 150.5,-702"/>
<polygon fill="black" stroke="black" points="471.29,-765.12 479.95,-766.47 475.14,-764.06 479,-763 479,-763 479,-763 475.14,-764.06 478.05,-759.53 471.29,-765.12 471.29,-765.12"/>
<ellipse fill="none" stroke="black" cx="468.2" cy="-765.97" rx="3.2" ry="3.2"/>
</g>
<!-- m_shippingtransactionline&#45;&gt;m_shippingtransaction -->
<g id="edge8" class="edge">
<title>m_shippingtransactionline:w&#45;&gt;m_shippingtransaction:e</title>
<path fill="none" stroke="black" d="M465.04,-604.72C442.19,-586.33 471.45,-515 430.5,-515"/>
<polygon fill="black" stroke="black" points="471.35,-606.65 477.94,-612.44 475.18,-607.83 479,-609 479,-609 479,-609 475.18,-607.83 480.06,-605.56 471.35,-606.65 471.35,-606.65"/>
<ellipse fill="none" stroke="black" cx="468.29" cy="-605.72" rx="3.2" ry="3.2"/>
</g>
</g>
</svg>
