<?xml version="1.0" encoding="UTF-8" standalone="no"?>
<!DOCTYPE svg PUBLIC "-//W3C//DTD SVG 1.1//EN"
 "http://www.w3.org/Graphics/SVG/1.1/DTD/svg11.dtd">
<!-- Generated by graphviz version 2.43.0 (0)
 -->
<!-- Title: oneDegreeRelationshipsDiagram Pages: 1 -->
<svg width="866pt" height="958pt"
 viewBox="0.00 0.00 866.00 958.00" xmlns="http://www.w3.org/2000/svg" xmlns:xlink="http://www.w3.org/1999/xlink">
<g id="graph0" class="graph" transform="scale(1 1) rotate(0) translate(4 954)">
<title>oneDegreeRelationshipsDiagram</title>
<polygon fill="#ffffff" stroke="transparent" points="-4,4 -4,-954 862,-954 862,4 -4,4"/>
<text text-anchor="middle" x="71.5" y="-7.2" font-family="Helvetica,sans-Serif" font-size="11.00">Generated by SchemaSpy</text>
<!-- m_product -->
<g id="node1" class="node">
<title>m_product</title>
<g id="a_node1"><a xlink:href="../../tables/m_product.html" xlink:title="m_product" target="_top">
<polygon fill="#ffffff" stroke="transparent" points="237,-37 237,-733 503,-733 503,-37 237,-37"/>
<polygon fill="#f5f5f5" stroke="transparent" points="237,-711 237,-733 503,-733 503,-711 237,-711"/>
<polygon fill="none" stroke="black" points="237,-711 237,-733 503,-733 503,-711 237,-711"/>
<text text-anchor="start" x="242" y="-720.2" font-family="Helvetica,sans-Serif" font-weight="bold" font-size="11.00">m_product</text>
<text text-anchor="start" x="468" y="-719.2" font-family="Helvetica,sans-Serif" font-size="11.00">[table]</text>
<polygon fill="none" stroke="black" points="237,-689 237,-711 503,-711 503,-689 237,-689"/>
<image xlink:href="../../images/primaryKeys.png" width="11px" height="12px" preserveAspectRatio="xMinYMin meet" x="242" y="-706"/>
<text text-anchor="start" x="257" y="-697.2" font-family="Helvetica,sans-Serif" font-size="11.00">m_product_id</text>
<polygon fill="#ffffff" stroke="transparent" points="237,-667 237,-689 503,-689 503,-667 237,-667"/>
<polygon fill="none" stroke="black" points="237,-667 237,-689 503,-689 503,-667 237,-667"/>
<image xlink:href="../../images/foreignKeys.png" width="11px" height="12px" preserveAspectRatio="xMinYMin meet" x="242" y="-684"/>
<text text-anchor="start" x="257" y="-675.2" font-family="Helvetica,sans-Serif" font-size="11.00">ad_client_id</text>
<polygon fill="none" stroke="black" points="237,-645 237,-667 503,-667 503,-645 237,-645"/>
<image xlink:href="../../images/foreignKeys.png" width="11px" height="12px" preserveAspectRatio="xMinYMin meet" x="242" y="-662"/>
<text text-anchor="start" x="257" y="-653.2" font-family="Helvetica,sans-Serif" font-size="11.00">ad_org_id</text>
<polygon fill="#ffffff" stroke="transparent" points="237,-623 237,-645 503,-645 503,-623 237,-623"/>
<polygon fill="none" stroke="black" points="237,-623 237,-645 503,-645 503,-623 237,-623"/>
<text text-anchor="start" x="257" y="-631.2" font-family="Helvetica,sans-Serif" font-size="11.00">value</text>
<polygon fill="#ffffff" stroke="transparent" points="237,-601 237,-623 503,-623 503,-601 237,-601"/>
<polygon fill="none" stroke="black" points="237,-601 237,-623 503,-623 503,-601 237,-601"/>
<text text-anchor="start" x="257" y="-609.2" font-family="Helvetica,sans-Serif" font-size="11.00">name</text>
<polygon fill="#ffffff" stroke="transparent" points="237,-579 237,-601 503,-601 503,-579 237,-579"/>
<polygon fill="none" stroke="black" points="237,-579 237,-601 503,-601 503,-579 237,-579"/>
<text text-anchor="start" x="257" y="-587.2" font-family="Helvetica,sans-Serif" font-size="11.00">upc</text>
<polygon fill="none" stroke="black" points="237,-557 237,-579 503,-579 503,-557 237,-557"/>
<image xlink:href="../../images/foreignKeys.png" width="11px" height="12px" preserveAspectRatio="xMinYMin meet" x="242" y="-574"/>
<text text-anchor="start" x="257" y="-565.2" font-family="Helvetica,sans-Serif" font-size="11.00">c_uom_id</text>
<polygon fill="none" stroke="black" points="237,-535 237,-557 503,-557 503,-535 237,-535"/>
<image xlink:href="../../images/foreignKeys.png" width="11px" height="12px" preserveAspectRatio="xMinYMin meet" x="242" y="-552"/>
<text text-anchor="start" x="257" y="-543.2" font-family="Helvetica,sans-Serif" font-size="11.00">salesrep_id</text>
<polygon fill="none" stroke="black" points="237,-513 237,-535 503,-535 503,-513 237,-513"/>
<image xlink:href="../../images/foreignKeys.png" width="11px" height="12px" preserveAspectRatio="xMinYMin meet" x="242" y="-530"/>
<text text-anchor="start" x="257" y="-521.2" font-family="Helvetica,sans-Serif" font-size="11.00">c_revenuerecognition_id</text>
<polygon fill="#ffffff" stroke="transparent" points="237,-491 237,-513 503,-513 503,-491 237,-491"/>
<polygon fill="none" stroke="black" points="237,-491 237,-513 503,-513 503,-491 237,-491"/>
<image xlink:href="../../images/foreignKeys.png" width="11px" height="12px" preserveAspectRatio="xMinYMin meet" x="242" y="-508"/>
<text text-anchor="start" x="257" y="-499.2" font-family="Helvetica,sans-Serif" font-size="11.00">m_product_category_id</text>
<polygon fill="none" stroke="black" points="237,-469 237,-491 503,-491 503,-469 237,-469"/>
<image xlink:href="../../images/foreignKeys.png" width="11px" height="12px" preserveAspectRatio="xMinYMin meet" x="242" y="-486"/>
<text text-anchor="start" x="257" y="-477.2" font-family="Helvetica,sans-Serif" font-size="11.00">c_taxcategory_id</text>
<polygon fill="#ffffff" stroke="transparent" points="237,-447 237,-469 503,-469 503,-447 237,-447"/>
<polygon fill="none" stroke="black" points="237,-447 237,-469 503,-469 503,-447 237,-447"/>
<image xlink:href="../../images/foreignKeys.png" width="11px" height="12px" preserveAspectRatio="xMinYMin meet" x="242" y="-464"/>
<text text-anchor="start" x="257" y="-455.2" font-family="Helvetica,sans-Serif" font-size="11.00">s_resource_id</text>
<polygon fill="#ffffff" stroke="transparent" points="237,-425 237,-447 503,-447 503,-425 237,-425"/>
<polygon fill="none" stroke="black" points="237,-425 237,-447 503,-447 503,-425 237,-425"/>
<image xlink:href="../../images/foreignKeys.png" width="11px" height="12px" preserveAspectRatio="xMinYMin meet" x="242" y="-442"/>
<text text-anchor="start" x="257" y="-433.2" font-family="Helvetica,sans-Serif" font-size="11.00">s_expensetype_id</text>
<polygon fill="none" stroke="black" points="237,-403 237,-425 503,-425 503,-403 237,-403"/>
<image xlink:href="../../images/foreignKeys.png" width="11px" height="12px" preserveAspectRatio="xMinYMin meet" x="242" y="-420"/>
<text text-anchor="start" x="257" y="-411.2" font-family="Helvetica,sans-Serif" font-size="11.00">r_mailtext_id</text>
<polygon fill="none" stroke="black" points="237,-381 237,-403 503,-403 503,-381 237,-381"/>
<image xlink:href="../../images/foreignKeys.png" width="11px" height="12px" preserveAspectRatio="xMinYMin meet" x="242" y="-398"/>
<text text-anchor="start" x="257" y="-389.2" font-family="Helvetica,sans-Serif" font-size="11.00">m_attributeset_id</text>
<polygon fill="none" stroke="black" points="237,-359 237,-381 503,-381 503,-359 237,-359"/>
<image xlink:href="../../images/foreignKeys.png" width="11px" height="12px" preserveAspectRatio="xMinYMin meet" x="242" y="-376"/>
<text text-anchor="start" x="257" y="-367.2" font-family="Helvetica,sans-Serif" font-size="11.00">m_freightcategory_id</text>
<polygon fill="none" stroke="black" points="237,-337 237,-359 503,-359 503,-337 237,-337"/>
<image xlink:href="../../images/foreignKeys.png" width="11px" height="12px" preserveAspectRatio="xMinYMin meet" x="242" y="-354"/>
<text text-anchor="start" x="257" y="-345.2" font-family="Helvetica,sans-Serif" font-size="11.00">m_locator_id</text>
<polygon fill="none" stroke="black" points="237,-315 237,-337 503,-337 503,-315 237,-315"/>
<image xlink:href="../../images/foreignKeys.png" width="11px" height="12px" preserveAspectRatio="xMinYMin meet" x="242" y="-332"/>
<text text-anchor="start" x="257" y="-323.2" font-family="Helvetica,sans-Serif" font-size="11.00">c_subscriptiontype_id</text>
<polygon fill="#ffffff" stroke="transparent" points="237,-293 237,-315 503,-315 503,-293 237,-293"/>
<polygon fill="none" stroke="black" points="237,-293 237,-315 503,-315 503,-293 237,-293"/>
<text text-anchor="start" x="257" y="-301.2" font-family="Helvetica,sans-Serif" font-size="11.00">m_product_uu</text>
<polygon fill="none" stroke="black" points="237,-271 237,-293 503,-293 503,-271 237,-271"/>
<image xlink:href="../../images/foreignKeys.png" width="11px" height="12px" preserveAspectRatio="xMinYMin meet" x="242" y="-288"/>
<text text-anchor="start" x="257" y="-279.2" font-family="Helvetica,sans-Serif" font-size="11.00">m_parttype_id</text>
<polygon fill="none" stroke="black" points="237,-249 237,-271 503,-271 503,-249 237,-249"/>
<image xlink:href="../../images/foreignKeys.png" width="11px" height="12px" preserveAspectRatio="xMinYMin meet" x="242" y="-266"/>
<text text-anchor="start" x="257" y="-257.2" font-family="Helvetica,sans-Serif" font-size="11.00">cof_cest_id</text>
<polygon fill="none" stroke="black" points="237,-227 237,-249 503,-249 503,-227 237,-227"/>
<image xlink:href="../../images/foreignKeys.png" width="11px" height="12px" preserveAspectRatio="xMinYMin meet" x="242" y="-244"/>
<text text-anchor="start" x="257" y="-235.2" font-family="Helvetica,sans-Serif" font-size="11.00">cof_c_generoitem_sped_id</text>
<polygon fill="none" stroke="black" points="237,-205 237,-227 503,-227 503,-205 237,-205"/>
<image xlink:href="../../images/foreignKeys.png" width="11px" height="12px" preserveAspectRatio="xMinYMin meet" x="242" y="-222"/>
<text text-anchor="start" x="257" y="-213.2" font-family="Helvetica,sans-Serif" font-size="11.00">cof_producttype_id</text>
<polygon fill="none" stroke="black" points="237,-183 237,-205 503,-205 503,-183 237,-183"/>
<image xlink:href="../../images/foreignKeys.png" width="11px" height="12px" preserveAspectRatio="xMinYMin meet" x="242" y="-200"/>
<text text-anchor="start" x="257" y="-191.2" font-family="Helvetica,sans-Serif" font-size="11.00">cof_productclass_id</text>
<polygon fill="none" stroke="black" points="237,-161 237,-183 503,-183 503,-161 237,-161"/>
<image xlink:href="../../images/foreignKeys.png" width="11px" height="12px" preserveAspectRatio="xMinYMin meet" x="242" y="-178"/>
<text text-anchor="start" x="257" y="-169.2" font-family="Helvetica,sans-Serif" font-size="11.00">cof_productgroup_id</text>
<polygon fill="none" stroke="black" points="237,-139 237,-161 503,-161 503,-139 237,-139"/>
<image xlink:href="../../images/foreignKeys.png" width="11px" height="12px" preserveAspectRatio="xMinYMin meet" x="242" y="-156"/>
<text text-anchor="start" x="257" y="-147.2" font-family="Helvetica,sans-Serif" font-size="11.00">cof_nbs_id</text>
<polygon fill="none" stroke="black" points="237,-117 237,-139 503,-139 503,-117 237,-117"/>
<image xlink:href="../../images/foreignKeys.png" width="11px" height="12px" preserveAspectRatio="xMinYMin meet" x="242" y="-134"/>
<text text-anchor="start" x="257" y="-125.2" font-family="Helvetica,sans-Serif" font-size="11.00">cof_grupofornecedor_id</text>
<polygon fill="none" stroke="black" points="237,-95 237,-117 503,-117 503,-95 237,-95"/>
<image xlink:href="../../images/foreignKeys.png" width="11px" height="12px" preserveAspectRatio="xMinYMin meet" x="242" y="-112"/>
<text text-anchor="start" x="257" y="-103.2" font-family="Helvetica,sans-Serif" font-size="11.00">cof_gruposeparacao_id</text>
<polygon fill="none" stroke="black" points="237,-73 237,-95 503,-95 503,-73 237,-73"/>
<image xlink:href="../../images/foreignKeys.png" width="11px" height="12px" preserveAspectRatio="xMinYMin meet" x="242" y="-90"/>
<text text-anchor="start" x="257" y="-81.2" font-family="Helvetica,sans-Serif" font-size="11.00">cof_servicoatrelado_id</text>
<polygon fill="none" stroke="black" points="237,-55 237,-73 503,-73 503,-55 237,-55"/>
<text text-anchor="start" x="240" y="-61.2" font-family="Helvetica,sans-Serif" font-size="11.00">...</text>
<polygon fill="#ffffff" stroke="transparent" points="237,-37 237,-55 503,-55 503,-37 237,-37"/>
<polygon fill="none" stroke="black" points="237,-37 237,-55 503,-55 503,-37 237,-37"/>
<polygon fill="#ffffff" stroke="transparent" points="238,-38 238,-54 322,-54 322,-38 238,-38"/>
<text text-anchor="start" x="240" y="-43.2" font-family="Helvetica,sans-Serif" font-size="11.00">&lt; 24</text>
<polygon fill="#ffffff" stroke="transparent" points="322,-38 322,-54 412,-54 412,-38 322,-38"/>
<text text-anchor="start" x="353" y="-43.2" font-family="Helvetica,sans-Serif" font-size="11.00">1 row</text>
<polygon fill="#ffffff" stroke="transparent" points="412,-38 412,-54 502,-54 502,-38 412,-38"/>
<text text-anchor="start" x="472" y="-43.2" font-family="Helvetica,sans-Serif" font-size="11.00">187 &gt;</text>
<polygon fill="black" stroke="black" points="322,-38 322,-54 322,-54 322,-38 322,-38"/>
<polygon fill="black" stroke="black" points="412,-38 412,-54 412,-54 412,-38 412,-38"/>
</a>
</g>
</g>
<!-- m_locator -->
<g id="node2" class="node">
<title>m_locator</title>
<g id="a_node2"><a xlink:href="../../tables/m_locator.html" xlink:title="m_locator" target="_top">
<polygon fill="#ffffff" stroke="transparent" points="8,-329 8,-585 188,-585 188,-329 8,-329"/>
<polygon fill="#f5f5f5" stroke="transparent" points="8,-563 8,-585 188,-585 188,-563 8,-563"/>
<polygon fill="none" stroke="black" points="8,-563 8,-585 188,-585 188,-563 8,-563"/>
<text text-anchor="start" x="13" y="-572.2" font-family="Helvetica,sans-Serif" font-weight="bold" font-size="11.00">m_locator</text>
<text text-anchor="start" x="153" y="-571.2" font-family="Helvetica,sans-Serif" font-size="11.00">[table]</text>
<polygon fill="none" stroke="black" points="8,-541 8,-563 188,-563 188,-541 8,-541"/>
<image xlink:href="../../images/primaryKeys.png" width="11px" height="12px" preserveAspectRatio="xMinYMin meet" x="13" y="-558"/>
<text text-anchor="start" x="28" y="-549.2" font-family="Helvetica,sans-Serif" font-size="11.00">m_locator_id</text>
<polygon fill="none" stroke="black" points="8,-519 8,-541 188,-541 188,-519 8,-519"/>
<image xlink:href="../../images/foreignKeys.png" width="11px" height="12px" preserveAspectRatio="xMinYMin meet" x="13" y="-536"/>
<text text-anchor="start" x="28" y="-527.2" font-family="Helvetica,sans-Serif" font-size="11.00">ad_client_id</text>
<polygon fill="none" stroke="black" points="8,-497 8,-519 188,-519 188,-497 8,-497"/>
<image xlink:href="../../images/foreignKeys.png" width="11px" height="12px" preserveAspectRatio="xMinYMin meet" x="13" y="-514"/>
<text text-anchor="start" x="28" y="-505.2" font-family="Helvetica,sans-Serif" font-size="11.00">ad_org_id</text>
<polygon fill="#ffffff" stroke="transparent" points="8,-475 8,-497 188,-497 188,-475 8,-475"/>
<polygon fill="none" stroke="black" points="8,-475 8,-497 188,-497 188,-475 8,-475"/>
<image xlink:href="../../images/foreignKeys.png" width="11px" height="12px" preserveAspectRatio="xMinYMin meet" x="13" y="-492"/>
<text text-anchor="start" x="28" y="-483.2" font-family="Helvetica,sans-Serif" font-size="11.00">m_warehouse_id</text>
<polygon fill="#ffffff" stroke="transparent" points="8,-453 8,-475 188,-475 188,-453 8,-453"/>
<polygon fill="none" stroke="black" points="8,-453 8,-475 188,-475 188,-453 8,-453"/>
<text text-anchor="start" x="28" y="-461.2" font-family="Helvetica,sans-Serif" font-size="11.00">x</text>
<polygon fill="#ffffff" stroke="transparent" points="8,-431 8,-453 188,-453 188,-431 8,-431"/>
<polygon fill="none" stroke="black" points="8,-431 8,-453 188,-453 188,-431 8,-431"/>
<text text-anchor="start" x="28" y="-439.2" font-family="Helvetica,sans-Serif" font-size="11.00">y</text>
<polygon fill="#ffffff" stroke="transparent" points="8,-409 8,-431 188,-431 188,-409 8,-409"/>
<polygon fill="none" stroke="black" points="8,-409 8,-431 188,-431 188,-409 8,-409"/>
<text text-anchor="start" x="28" y="-417.2" font-family="Helvetica,sans-Serif" font-size="11.00">z</text>
<polygon fill="#ffffff" stroke="transparent" points="8,-387 8,-409 188,-409 188,-387 8,-387"/>
<polygon fill="none" stroke="black" points="8,-387 8,-409 188,-409 188,-387 8,-387"/>
<text text-anchor="start" x="28" y="-395.2" font-family="Helvetica,sans-Serif" font-size="11.00">m_locator_uu</text>
<polygon fill="none" stroke="black" points="8,-365 8,-387 188,-387 188,-365 8,-365"/>
<image xlink:href="../../images/foreignKeys.png" width="11px" height="12px" preserveAspectRatio="xMinYMin meet" x="13" y="-382"/>
<text text-anchor="start" x="28" y="-373.2" font-family="Helvetica,sans-Serif" font-size="11.00">m_locatortype_id</text>
<polygon fill="none" stroke="black" points="8,-347 8,-365 188,-365 188,-347 8,-347"/>
<text text-anchor="start" x="11" y="-353.2" font-family="Helvetica,sans-Serif" font-size="11.00">...</text>
<polygon fill="#ffffff" stroke="transparent" points="8,-329 8,-347 188,-347 188,-329 8,-329"/>
<polygon fill="none" stroke="black" points="8,-329 8,-347 188,-347 188,-329 8,-329"/>
<polygon fill="#ffffff" stroke="transparent" points="9,-330 9,-346 61,-346 61,-330 9,-330"/>
<text text-anchor="start" x="11" y="-335.2" font-family="Helvetica,sans-Serif" font-size="11.00">&lt; 4</text>
<polygon fill="#ffffff" stroke="transparent" points="61,-330 61,-346 130,-346 130,-330 61,-330"/>
<text text-anchor="start" x="79" y="-335.2" font-family="Helvetica,sans-Serif" font-size="11.00">8 rows</text>
<polygon fill="#ffffff" stroke="transparent" points="130,-330 130,-346 187,-346 187,-330 130,-330"/>
<text text-anchor="start" x="163" y="-335.2" font-family="Helvetica,sans-Serif" font-size="11.00">39 &gt;</text>
<polygon fill="black" stroke="black" points="61,-330 61,-346 61,-346 61,-330 61,-330"/>
<polygon fill="black" stroke="black" points="130,-330 130,-346 130,-346 130,-330 130,-330"/>
</a>
</g>
</g>
<!-- m_product&#45;&gt;m_locator -->
<g id="edge1" class="edge">
<title>m_product:w&#45;&gt;m_locator:e</title>
<path fill="none" stroke="black" d="M221.55,-350.15C158.95,-371.96 276.41,-552 189,-552"/>
<polygon fill="black" stroke="black" points="228.09,-349.18 236.53,-351.56 232.04,-348.59 236,-348 236,-348 236,-348 232.04,-348.59 235.47,-344.44 228.09,-349.18 228.09,-349.18"/>
<ellipse fill="none" stroke="black" cx="224.92" cy="-349.65" rx="3.2" ry="3.2"/>
</g>
<!-- m_storageonhand -->
<g id="node3" class="node">
<title>m_storageonhand</title>
<g id="a_node3"><a xlink:href="../../tables/m_storageonhand.html" xlink:title="m_storageonhand" target="_top">
<polygon fill="#ffffff" stroke="transparent" points="552,-594 552,-946 850,-946 850,-594 552,-594"/>
<polygon fill="#f5f5f5" stroke="transparent" points="554,-922 554,-944 848,-944 848,-922 554,-922"/>
<polygon fill="none" stroke="black" points="554,-922 554,-944 848,-944 848,-922 554,-922"/>
<text text-anchor="start" x="559" y="-931.2" font-family="Helvetica,sans-Serif" font-weight="bold" font-size="11.00">m_storageonhand</text>
<text text-anchor="start" x="813" y="-930.2" font-family="Helvetica,sans-Serif" font-size="11.00">[table]</text>
<polygon fill="none" stroke="black" points="554,-900 554,-922 765,-922 765,-900 554,-900"/>
<text text-anchor="start" x="574" y="-908.2" font-family="Helvetica,sans-Serif" font-size="11.00">ad_client_id</text>
<polygon fill="none" stroke="black" points="765,-900 765,-922 848,-922 848,-900 765,-900"/>
<text text-anchor="start" x="768" y="-908.2" font-family="Helvetica,sans-Serif" font-size="11.00">numeric[10]</text>
<polygon fill="none" stroke="black" points="554,-878 554,-900 765,-900 765,-878 554,-878"/>
<text text-anchor="start" x="574" y="-886.2" font-family="Helvetica,sans-Serif" font-size="11.00">ad_org_id</text>
<polygon fill="none" stroke="black" points="765,-878 765,-900 848,-900 848,-878 765,-878"/>
<text text-anchor="start" x="768" y="-886.2" font-family="Helvetica,sans-Serif" font-size="11.00">numeric[10]</text>
<polygon fill="none" stroke="black" points="554,-856 554,-878 765,-878 765,-856 554,-856"/>
<text text-anchor="start" x="574" y="-864.2" font-family="Helvetica,sans-Serif" font-size="11.00">created</text>
<polygon fill="none" stroke="black" points="765,-856 765,-878 848,-878 848,-856 765,-856"/>
<text text-anchor="start" x="768" y="-864.2" font-family="Helvetica,sans-Serif" font-size="11.00">timestamp[29,6]</text>
<polygon fill="none" stroke="black" points="554,-834 554,-856 765,-856 765,-834 554,-834"/>
<text text-anchor="start" x="574" y="-842.2" font-family="Helvetica,sans-Serif" font-size="11.00">createdby</text>
<polygon fill="none" stroke="black" points="765,-834 765,-856 848,-856 848,-834 765,-834"/>
<text text-anchor="start" x="768" y="-842.2" font-family="Helvetica,sans-Serif" font-size="11.00">numeric[10]</text>
<polygon fill="none" stroke="black" points="554,-812 554,-834 765,-834 765,-812 554,-812"/>
<text text-anchor="start" x="574" y="-820.2" font-family="Helvetica,sans-Serif" font-size="11.00">datelastinventory</text>
<polygon fill="none" stroke="black" points="765,-812 765,-834 848,-834 848,-812 765,-812"/>
<text text-anchor="start" x="768" y="-820.2" font-family="Helvetica,sans-Serif" font-size="11.00">timestamp[29,6]</text>
<polygon fill="none" stroke="black" points="554,-790 554,-812 765,-812 765,-790 554,-790"/>
<text text-anchor="start" x="574" y="-798.2" font-family="Helvetica,sans-Serif" font-size="11.00">isactive</text>
<polygon fill="none" stroke="black" points="765,-790 765,-812 848,-812 848,-790 765,-790"/>
<text text-anchor="start" x="768" y="-798.2" font-family="Helvetica,sans-Serif" font-size="11.00">bpchar[1]</text>
<polygon fill="none" stroke="black" points="554,-768 554,-790 765,-790 765,-768 554,-768"/>
<image xlink:href="../../images/primaryKeys.png" width="11px" height="12px" preserveAspectRatio="xMinYMin meet" x="559" y="-785"/>
<text text-anchor="start" x="574" y="-776.2" font-family="Helvetica,sans-Serif" font-size="11.00">m_attributesetinstance_id</text>
<polygon fill="none" stroke="black" points="765,-768 765,-790 848,-790 848,-768 765,-768"/>
<text text-anchor="start" x="768" y="-776.2" font-family="Helvetica,sans-Serif" font-size="11.00">numeric[10]</text>
<polygon fill="none" stroke="black" points="554,-746 554,-768 765,-768 765,-746 554,-746"/>
<image xlink:href="../../images/primaryKeys.png" width="11px" height="12px" preserveAspectRatio="xMinYMin meet" x="559" y="-763"/>
<text text-anchor="start" x="574" y="-754.2" font-family="Helvetica,sans-Serif" font-size="11.00">m_locator_id</text>
<polygon fill="none" stroke="black" points="765,-746 765,-768 848,-768 848,-746 765,-746"/>
<text text-anchor="start" x="768" y="-754.2" font-family="Helvetica,sans-Serif" font-size="11.00">numeric[10]</text>
<polygon fill="none" stroke="black" points="554,-724 554,-746 765,-746 765,-724 554,-724"/>
<image xlink:href="../../images/primaryKeys.png" width="11px" height="12px" preserveAspectRatio="xMinYMin meet" x="559" y="-741"/>
<text text-anchor="start" x="574" y="-732.2" font-family="Helvetica,sans-Serif" font-size="11.00">m_product_id</text>
<polygon fill="none" stroke="black" points="765,-724 765,-746 848,-746 848,-724 765,-724"/>
<text text-anchor="start" x="768" y="-732.2" font-family="Helvetica,sans-Serif" font-size="11.00">numeric[10]</text>
<polygon fill="none" stroke="black" points="554,-702 554,-724 765,-724 765,-702 554,-702"/>
<text text-anchor="start" x="574" y="-710.2" font-family="Helvetica,sans-Serif" font-size="11.00">qtyonhand</text>
<polygon fill="none" stroke="black" points="765,-702 765,-724 848,-724 848,-702 765,-702"/>
<text text-anchor="start" x="768" y="-710.2" font-family="Helvetica,sans-Serif" font-size="11.00">numeric[0]</text>
<polygon fill="none" stroke="black" points="554,-680 554,-702 765,-702 765,-680 554,-680"/>
<text text-anchor="start" x="574" y="-688.2" font-family="Helvetica,sans-Serif" font-size="11.00">updated</text>
<polygon fill="none" stroke="black" points="765,-680 765,-702 848,-702 848,-680 765,-680"/>
<text text-anchor="start" x="768" y="-688.2" font-family="Helvetica,sans-Serif" font-size="11.00">timestamp[29,6]</text>
<polygon fill="none" stroke="black" points="554,-658 554,-680 765,-680 765,-658 554,-658"/>
<text text-anchor="start" x="574" y="-666.2" font-family="Helvetica,sans-Serif" font-size="11.00">updatedby</text>
<polygon fill="none" stroke="black" points="765,-658 765,-680 848,-680 848,-658 765,-658"/>
<text text-anchor="start" x="768" y="-666.2" font-family="Helvetica,sans-Serif" font-size="11.00">numeric[10]</text>
<polygon fill="#ffffff" stroke="transparent" points="554,-636 554,-658 765,-658 765,-636 554,-636"/>
<polygon fill="none" stroke="black" points="554,-636 554,-658 765,-658 765,-636 554,-636"/>
<text text-anchor="start" x="574" y="-644.2" font-family="Helvetica,sans-Serif" font-size="11.00">m_storageonhand_uu</text>
<polygon fill="none" stroke="black" points="765,-636 765,-658 848,-658 848,-636 765,-636"/>
<text text-anchor="start" x="768" y="-644.2" font-family="Helvetica,sans-Serif" font-size="11.00">varchar[36]</text>
<polygon fill="none" stroke="black" points="554,-614 554,-636 765,-636 765,-614 554,-614"/>
<image xlink:href="../../images/primaryKeys.png" width="11px" height="12px" preserveAspectRatio="xMinYMin meet" x="559" y="-631"/>
<text text-anchor="start" x="574" y="-622.2" font-family="Helvetica,sans-Serif" font-size="11.00">datematerialpolicy</text>
<polygon fill="none" stroke="black" points="765,-614 765,-636 848,-636 848,-614 765,-614"/>
<text text-anchor="start" x="768" y="-622.2" font-family="Helvetica,sans-Serif" font-size="11.00">timestamp[29,6]</text>
<polygon fill="#ffffff" stroke="transparent" points="554,-596 554,-614 848,-614 848,-596 554,-596"/>
<polygon fill="none" stroke="black" points="554,-596 554,-614 848,-614 848,-596 554,-596"/>
<polygon fill="#ffffff" stroke="transparent" points="555,-597 555,-613 656,-613 656,-597 555,-597"/>
<text text-anchor="start" x="557" y="-602.2" font-family="Helvetica,sans-Serif" font-size="11.00">&lt; 3</text>
<polygon fill="#ffffff" stroke="transparent" points="656,-597 656,-613 747,-613 747,-597 656,-597"/>
<text text-anchor="start" x="698" y="-602.2" font-family="Helvetica,sans-Serif" font-size="11.00"> &#160;</text>
<polygon fill="#ffffff" stroke="transparent" points="747,-597 747,-613 847,-613 847,-597 747,-597"/>
<text text-anchor="start" x="829" y="-602.2" font-family="Helvetica,sans-Serif" font-size="11.00">0 &gt;</text>
<polygon fill="black" stroke="black" points="656,-597 656,-613 656,-613 656,-597 656,-597"/>
<polygon fill="black" stroke="black" points="747,-597 747,-613 747,-613 747,-597 747,-597"/>
<polygon fill="none" stroke="black" stroke-width="2" points="553,-595 553,-945 849,-945 849,-595 553,-595"/>
</a>
</g>
</g>
<!-- m_storageonhand&#45;&gt;m_product -->
<g id="edge4" class="edge">
<title>m_storageonhand:w&#45;&gt;m_product:e</title>
<path fill="none" stroke="black" d="M538.9,-730.42C526.68,-720.94 524.7,-700 504,-700"/>
<polygon fill="black" stroke="black" points="545.39,-732.53 551.89,-738.42 549.2,-733.77 553,-735 553,-735 553,-735 549.2,-733.77 554.11,-731.58 545.39,-732.53 545.39,-732.53"/>
<ellipse fill="none" stroke="black" cx="542.35" cy="-731.54" rx="3.2" ry="3.2"/>
</g>
<!-- m_storageonhand&#45;&gt;m_locator -->
<g id="edge3" class="edge">
<title>m_storageonhand:w&#45;&gt;m_locator:e</title>
<path fill="none" stroke="black" d="M538.6,-757.33C457.6,-760.66 280.62,-786.81 229,-743 162.88,-686.88 275.73,-552 189,-552"/>
<polygon fill="black" stroke="black" points="545,-757.19 553.08,-760.6 549,-757.09 553,-757 553,-757 553,-757 549,-757.09 552.92,-753.4 545,-757.19 545,-757.19"/>
<ellipse fill="none" stroke="black" cx="541.8" cy="-757.26" rx="3.2" ry="3.2"/>
</g>
<!-- m_attributesetinstance -->
<g id="node4" class="node">
<title>m_attributesetinstance</title>
<g id="a_node4"><a xlink:href="../../tables/m_attributesetinstance.html" xlink:title="m_attributesetinstance" target="_top">
<polygon fill="#ffffff" stroke="transparent" points="262,-781 262,-927 478,-927 478,-781 262,-781"/>
<polygon fill="#f5f5f5" stroke="transparent" points="262,-905 262,-927 478,-927 478,-905 262,-905"/>
<polygon fill="none" stroke="black" points="262,-905 262,-927 478,-927 478,-905 262,-905"/>
<text text-anchor="start" x="267" y="-914.2" font-family="Helvetica,sans-Serif" font-weight="bold" font-size="11.00">m_attributesetinstance</text>
<text text-anchor="start" x="443" y="-913.2" font-family="Helvetica,sans-Serif" font-size="11.00">[table]</text>
<polygon fill="none" stroke="black" points="262,-883 262,-905 478,-905 478,-883 262,-883"/>
<image xlink:href="../../images/primaryKeys.png" width="11px" height="12px" preserveAspectRatio="xMinYMin meet" x="267" y="-900"/>
<text text-anchor="start" x="282" y="-891.2" font-family="Helvetica,sans-Serif" font-size="11.00">m_attributesetinstance_id</text>
<polygon fill="none" stroke="black" points="262,-861 262,-883 478,-883 478,-861 262,-861"/>
<image xlink:href="../../images/foreignKeys.png" width="11px" height="12px" preserveAspectRatio="xMinYMin meet" x="267" y="-878"/>
<text text-anchor="start" x="282" y="-869.2" font-family="Helvetica,sans-Serif" font-size="11.00">m_attributeset_id</text>
<polygon fill="none" stroke="black" points="262,-839 262,-861 478,-861 478,-839 262,-839"/>
<image xlink:href="../../images/foreignKeys.png" width="11px" height="12px" preserveAspectRatio="xMinYMin meet" x="267" y="-856"/>
<text text-anchor="start" x="282" y="-847.2" font-family="Helvetica,sans-Serif" font-size="11.00">m_lot_id</text>
<polygon fill="#ffffff" stroke="transparent" points="262,-817 262,-839 478,-839 478,-817 262,-817"/>
<polygon fill="none" stroke="black" points="262,-817 262,-839 478,-839 478,-817 262,-817"/>
<text text-anchor="start" x="282" y="-825.2" font-family="Helvetica,sans-Serif" font-size="11.00">m_attributesetinstance_uu</text>
<polygon fill="none" stroke="black" points="262,-799 262,-817 478,-817 478,-799 262,-799"/>
<text text-anchor="start" x="265" y="-805.2" font-family="Helvetica,sans-Serif" font-size="11.00">...</text>
<polygon fill="#ffffff" stroke="transparent" points="262,-781 262,-799 478,-799 478,-781 262,-781"/>
<polygon fill="none" stroke="black" points="262,-781 262,-799 478,-799 478,-781 262,-781"/>
<polygon fill="#ffffff" stroke="transparent" points="263,-782 263,-798 329,-798 329,-782 263,-782"/>
<text text-anchor="start" x="265" y="-787.2" font-family="Helvetica,sans-Serif" font-size="11.00">&lt; 2</text>
<polygon fill="#ffffff" stroke="transparent" points="329,-782 329,-798 406,-798 406,-782 329,-782"/>
<text text-anchor="start" x="353.5" y="-787.2" font-family="Helvetica,sans-Serif" font-size="11.00">1 row</text>
<polygon fill="#ffffff" stroke="transparent" points="406,-782 406,-798 477,-798 477,-782 406,-782"/>
<text text-anchor="start" x="453" y="-787.2" font-family="Helvetica,sans-Serif" font-size="11.00">50 &gt;</text>
<polygon fill="black" stroke="black" points="329,-782 329,-798 329,-798 329,-782 329,-782"/>
<polygon fill="black" stroke="black" points="406,-782 406,-798 406,-798 406,-782 406,-782"/>
</a>
</g>
</g>
<!-- m_storageonhand&#45;&gt;m_attributesetinstance -->
<g id="edge2" class="edge">
<title>m_storageonhand:w&#45;&gt;m_attributesetinstance:e</title>
<path fill="none" stroke="black" d="M538.83,-781.73C500.04,-799.14 534.2,-894 479,-894"/>
<polygon fill="black" stroke="black" points="545.14,-780.51 553.68,-782.53 549.07,-779.76 553,-779 553,-779 553,-779 549.07,-779.76 552.32,-775.47 545.14,-780.51 545.14,-780.51"/>
<ellipse fill="none" stroke="black" cx="542" cy="-781.12" rx="3.2" ry="3.2"/>
</g>
</g>
</svg>
