<?xml version="1.0" encoding="UTF-8" standalone="no"?>
<!DOCTYPE svg PUBLIC "-//W3C//DTD SVG 1.1//EN"
 "http://www.w3.org/Graphics/SVG/1.1/DTD/svg11.dtd">
<!-- Generated by graphviz version 2.43.0 (0)
 -->
<!-- Title: oneDegreeRelationshipsDiagram Pages: 1 -->
<svg width="549pt" height="821pt"
 viewBox="0.00 0.00 549.00 821.00" xmlns="http://www.w3.org/2000/svg" xmlns:xlink="http://www.w3.org/1999/xlink">
<g id="graph0" class="graph" transform="scale(1 1) rotate(0) translate(4 817)">
<title>oneDegreeRelationshipsDiagram</title>
<polygon fill="#ffffff" stroke="transparent" points="-4,4 -4,-817 545,-817 545,4 -4,4"/>
<text text-anchor="middle" x="71.5" y="-7.2" font-family="Helvetica,sans-Serif" font-size="11.00">Generated by SchemaSpy</text>
<!-- pa_ratioelement -->
<g id="node1" class="node">
<title>pa_ratioelement</title>
<g id="a_node1"><a xlink:href="../../tables/pa_ratioelement.html" xlink:title="pa_ratioelement" target="_top">
<polygon fill="#ffffff" stroke="transparent" points="281,-325 281,-809 533,-809 533,-325 281,-325"/>
<polygon fill="#f5f5f5" stroke="transparent" points="283,-785 283,-807 531,-807 531,-785 283,-785"/>
<polygon fill="none" stroke="black" points="283,-785 283,-807 531,-807 531,-785 283,-785"/>
<text text-anchor="start" x="288" y="-794.2" font-family="Helvetica,sans-Serif" font-weight="bold" font-size="11.00">pa_ratioelement</text>
<text text-anchor="start" x="496" y="-793.2" font-family="Helvetica,sans-Serif" font-size="11.00">[table]</text>
<polygon fill="none" stroke="black" points="283,-763 283,-785 448,-785 448,-763 283,-763"/>
<image xlink:href="../../images/primaryKeys.png" width="11px" height="12px" preserveAspectRatio="xMinYMin meet" x="288" y="-780"/>
<text text-anchor="start" x="303" y="-771.2" font-family="Helvetica,sans-Serif" font-size="11.00">pa_ratioelement_id</text>
<polygon fill="none" stroke="black" points="448,-763 448,-785 531,-785 531,-763 448,-763"/>
<text text-anchor="start" x="451" y="-771.2" font-family="Helvetica,sans-Serif" font-size="11.00">numeric[10]</text>
<polygon fill="none" stroke="black" points="283,-741 283,-763 448,-763 448,-741 283,-741"/>
<text text-anchor="start" x="303" y="-749.2" font-family="Helvetica,sans-Serif" font-size="11.00">ad_client_id</text>
<polygon fill="none" stroke="black" points="448,-741 448,-763 531,-763 531,-741 448,-741"/>
<text text-anchor="start" x="451" y="-749.2" font-family="Helvetica,sans-Serif" font-size="11.00">numeric[10]</text>
<polygon fill="none" stroke="black" points="283,-719 283,-741 448,-741 448,-719 283,-719"/>
<text text-anchor="start" x="303" y="-727.2" font-family="Helvetica,sans-Serif" font-size="11.00">ad_org_id</text>
<polygon fill="none" stroke="black" points="448,-719 448,-741 531,-741 531,-719 448,-719"/>
<text text-anchor="start" x="451" y="-727.2" font-family="Helvetica,sans-Serif" font-size="11.00">numeric[10]</text>
<polygon fill="none" stroke="black" points="283,-697 283,-719 448,-719 448,-697 283,-697"/>
<text text-anchor="start" x="303" y="-705.2" font-family="Helvetica,sans-Serif" font-size="11.00">isactive</text>
<polygon fill="none" stroke="black" points="448,-697 448,-719 531,-719 531,-697 448,-697"/>
<text text-anchor="start" x="451" y="-705.2" font-family="Helvetica,sans-Serif" font-size="11.00">bpchar[1]</text>
<polygon fill="none" stroke="black" points="283,-675 283,-697 448,-697 448,-675 283,-675"/>
<text text-anchor="start" x="303" y="-683.2" font-family="Helvetica,sans-Serif" font-size="11.00">created</text>
<polygon fill="none" stroke="black" points="448,-675 448,-697 531,-697 531,-675 448,-675"/>
<text text-anchor="start" x="451" y="-683.2" font-family="Helvetica,sans-Serif" font-size="11.00">timestamp[29,6]</text>
<polygon fill="none" stroke="black" points="283,-653 283,-675 448,-675 448,-653 283,-653"/>
<text text-anchor="start" x="303" y="-661.2" font-family="Helvetica,sans-Serif" font-size="11.00">createdby</text>
<polygon fill="none" stroke="black" points="448,-653 448,-675 531,-675 531,-653 448,-653"/>
<text text-anchor="start" x="451" y="-661.2" font-family="Helvetica,sans-Serif" font-size="11.00">numeric[10]</text>
<polygon fill="none" stroke="black" points="283,-631 283,-653 448,-653 448,-631 283,-631"/>
<text text-anchor="start" x="303" y="-639.2" font-family="Helvetica,sans-Serif" font-size="11.00">updated</text>
<polygon fill="none" stroke="black" points="448,-631 448,-653 531,-653 531,-631 448,-631"/>
<text text-anchor="start" x="451" y="-639.2" font-family="Helvetica,sans-Serif" font-size="11.00">timestamp[29,6]</text>
<polygon fill="none" stroke="black" points="283,-609 283,-631 448,-631 448,-609 283,-609"/>
<text text-anchor="start" x="303" y="-617.2" font-family="Helvetica,sans-Serif" font-size="11.00">updatedby</text>
<polygon fill="none" stroke="black" points="448,-609 448,-631 531,-631 531,-609 448,-609"/>
<text text-anchor="start" x="451" y="-617.2" font-family="Helvetica,sans-Serif" font-size="11.00">numeric[10]</text>
<polygon fill="none" stroke="black" points="283,-587 283,-609 448,-609 448,-587 283,-587"/>
<text text-anchor="start" x="303" y="-595.2" font-family="Helvetica,sans-Serif" font-size="11.00">name</text>
<polygon fill="none" stroke="black" points="448,-587 448,-609 531,-609 531,-587 448,-587"/>
<text text-anchor="start" x="451" y="-595.2" font-family="Helvetica,sans-Serif" font-size="11.00">varchar[60]</text>
<polygon fill="none" stroke="black" points="283,-565 283,-587 448,-587 448,-565 283,-565"/>
<text text-anchor="start" x="303" y="-573.2" font-family="Helvetica,sans-Serif" font-size="11.00">description</text>
<polygon fill="none" stroke="black" points="448,-565 448,-587 531,-587 531,-565 448,-565"/>
<text text-anchor="start" x="451" y="-573.2" font-family="Helvetica,sans-Serif" font-size="11.00">varchar[255]</text>
<polygon fill="none" stroke="black" points="283,-543 283,-565 448,-565 448,-543 283,-543"/>
<image xlink:href="../../images/foreignKeys.png" width="11px" height="12px" preserveAspectRatio="xMinYMin meet" x="288" y="-560"/>
<text text-anchor="start" x="303" y="-551.2" font-family="Helvetica,sans-Serif" font-size="11.00">pa_ratio_id</text>
<polygon fill="none" stroke="black" points="448,-543 448,-565 531,-565 531,-543 448,-543"/>
<text text-anchor="start" x="451" y="-551.2" font-family="Helvetica,sans-Serif" font-size="11.00">numeric[10]</text>
<polygon fill="none" stroke="black" points="283,-521 283,-543 448,-543 448,-521 283,-521"/>
<text text-anchor="start" x="303" y="-529.2" font-family="Helvetica,sans-Serif" font-size="11.00">ratiooperand</text>
<polygon fill="none" stroke="black" points="448,-521 448,-543 531,-543 531,-521 448,-521"/>
<text text-anchor="start" x="451" y="-529.2" font-family="Helvetica,sans-Serif" font-size="11.00">bpchar[1]</text>
<polygon fill="none" stroke="black" points="283,-499 283,-521 448,-521 448,-499 283,-499"/>
<text text-anchor="start" x="303" y="-507.2" font-family="Helvetica,sans-Serif" font-size="11.00">ratioelementtype</text>
<polygon fill="none" stroke="black" points="448,-499 448,-521 531,-521 531,-499 448,-499"/>
<text text-anchor="start" x="451" y="-507.2" font-family="Helvetica,sans-Serif" font-size="11.00">bpchar[1]</text>
<polygon fill="none" stroke="black" points="283,-477 283,-499 448,-499 448,-477 283,-477"/>
<image xlink:href="../../images/foreignKeys.png" width="11px" height="12px" preserveAspectRatio="xMinYMin meet" x="288" y="-494"/>
<text text-anchor="start" x="303" y="-485.2" font-family="Helvetica,sans-Serif" font-size="11.00">account_id</text>
<polygon fill="none" stroke="black" points="448,-477 448,-499 531,-499 531,-477 448,-477"/>
<text text-anchor="start" x="451" y="-485.2" font-family="Helvetica,sans-Serif" font-size="11.00">numeric[10]</text>
<polygon fill="none" stroke="black" points="283,-455 283,-477 448,-477 448,-455 283,-455"/>
<image xlink:href="../../images/foreignKeys.png" width="11px" height="12px" preserveAspectRatio="xMinYMin meet" x="288" y="-472"/>
<text text-anchor="start" x="303" y="-463.2" font-family="Helvetica,sans-Serif" font-size="11.00">pa_ratioused_id</text>
<polygon fill="none" stroke="black" points="448,-455 448,-477 531,-477 531,-455 448,-455"/>
<text text-anchor="start" x="451" y="-463.2" font-family="Helvetica,sans-Serif" font-size="11.00">numeric[10]</text>
<polygon fill="none" stroke="black" points="283,-433 283,-455 448,-455 448,-433 283,-433"/>
<image xlink:href="../../images/foreignKeys.png" width="11px" height="12px" preserveAspectRatio="xMinYMin meet" x="288" y="-450"/>
<text text-anchor="start" x="303" y="-441.2" font-family="Helvetica,sans-Serif" font-size="11.00">pa_measurecalc_id</text>
<polygon fill="none" stroke="black" points="448,-433 448,-455 531,-455 531,-433 448,-433"/>
<text text-anchor="start" x="451" y="-441.2" font-family="Helvetica,sans-Serif" font-size="11.00">numeric[10]</text>
<polygon fill="none" stroke="black" points="283,-411 283,-433 448,-433 448,-411 283,-411"/>
<text text-anchor="start" x="303" y="-419.2" font-family="Helvetica,sans-Serif" font-size="11.00">constantvalue</text>
<polygon fill="none" stroke="black" points="448,-411 448,-433 531,-433 531,-411 448,-411"/>
<text text-anchor="start" x="451" y="-419.2" font-family="Helvetica,sans-Serif" font-size="11.00">numeric[0]</text>
<polygon fill="none" stroke="black" points="283,-389 283,-411 448,-411 448,-389 283,-389"/>
<text text-anchor="start" x="303" y="-397.2" font-family="Helvetica,sans-Serif" font-size="11.00">seqno</text>
<polygon fill="none" stroke="black" points="448,-389 448,-411 531,-411 531,-389 448,-389"/>
<text text-anchor="start" x="451" y="-397.2" font-family="Helvetica,sans-Serif" font-size="11.00">numeric[10]</text>
<polygon fill="none" stroke="black" points="283,-367 283,-389 448,-389 448,-367 283,-367"/>
<text text-anchor="start" x="303" y="-375.2" font-family="Helvetica,sans-Serif" font-size="11.00">postingtype</text>
<polygon fill="none" stroke="black" points="448,-367 448,-389 531,-389 531,-367 448,-367"/>
<text text-anchor="start" x="451" y="-375.2" font-family="Helvetica,sans-Serif" font-size="11.00">bpchar[1]</text>
<polygon fill="#ffffff" stroke="transparent" points="283,-345 283,-367 448,-367 448,-345 283,-345"/>
<polygon fill="none" stroke="black" points="283,-345 283,-367 448,-367 448,-345 283,-345"/>
<text text-anchor="start" x="303" y="-353.2" font-family="Helvetica,sans-Serif" font-size="11.00">pa_ratioelement_uu</text>
<polygon fill="none" stroke="black" points="448,-345 448,-367 531,-367 531,-345 448,-345"/>
<text text-anchor="start" x="451" y="-353.2" font-family="Helvetica,sans-Serif" font-size="11.00">varchar[36]</text>
<polygon fill="#ffffff" stroke="transparent" points="283,-327 283,-345 531,-345 531,-327 283,-327"/>
<polygon fill="none" stroke="black" points="283,-327 283,-345 531,-345 531,-327 283,-327"/>
<polygon fill="#ffffff" stroke="transparent" points="284,-328 284,-344 369,-344 369,-328 284,-328"/>
<text text-anchor="start" x="286" y="-333.2" font-family="Helvetica,sans-Serif" font-size="11.00">&lt; 4</text>
<polygon fill="#ffffff" stroke="transparent" points="369,-328 369,-344 445,-344 445,-328 369,-328"/>
<text text-anchor="start" x="403.5" y="-333.2" font-family="Helvetica,sans-Serif" font-size="11.00"> &#160;</text>
<polygon fill="#ffffff" stroke="transparent" points="445,-328 445,-344 530,-344 530,-328 445,-328"/>
<text text-anchor="start" x="512" y="-333.2" font-family="Helvetica,sans-Serif" font-size="11.00">0 &gt;</text>
<polygon fill="black" stroke="black" points="369,-328 369,-344 369,-344 369,-328 369,-328"/>
<polygon fill="black" stroke="black" points="445,-328 445,-344 445,-344 445,-328 445,-328"/>
<polygon fill="none" stroke="black" stroke-width="2" points="282,-326 282,-808 532,-808 532,-326 282,-326"/>
</a>
</g>
</g>
<!-- c_elementvalue -->
<g id="node2" class="node">
<title>c_elementvalue</title>
<g id="a_node2"><a xlink:href="../../tables/c_elementvalue.html" xlink:title="c_elementvalue" target="_top">
<polygon fill="#ffffff" stroke="transparent" points="8,-204 8,-482 232,-482 232,-204 8,-204"/>
<polygon fill="#f5f5f5" stroke="transparent" points="8,-460 8,-482 232,-482 232,-460 8,-460"/>
<polygon fill="none" stroke="black" points="8,-460 8,-482 232,-482 232,-460 8,-460"/>
<text text-anchor="start" x="13" y="-469.2" font-family="Helvetica,sans-Serif" font-weight="bold" font-size="11.00">c_elementvalue</text>
<text text-anchor="start" x="197" y="-468.2" font-family="Helvetica,sans-Serif" font-size="11.00">[table]</text>
<polygon fill="none" stroke="black" points="8,-438 8,-460 232,-460 232,-438 8,-438"/>
<image xlink:href="../../images/primaryKeys.png" width="11px" height="12px" preserveAspectRatio="xMinYMin meet" x="13" y="-455"/>
<text text-anchor="start" x="28" y="-446.2" font-family="Helvetica,sans-Serif" font-size="11.00">c_elementvalue_id</text>
<polygon fill="none" stroke="black" points="8,-416 8,-438 232,-438 232,-416 8,-416"/>
<image xlink:href="../../images/foreignKeys.png" width="11px" height="12px" preserveAspectRatio="xMinYMin meet" x="13" y="-433"/>
<text text-anchor="start" x="28" y="-424.2" font-family="Helvetica,sans-Serif" font-size="11.00">ad_client_id</text>
<polygon fill="none" stroke="black" points="8,-394 8,-416 232,-416 232,-394 8,-394"/>
<image xlink:href="../../images/foreignKeys.png" width="11px" height="12px" preserveAspectRatio="xMinYMin meet" x="13" y="-411"/>
<text text-anchor="start" x="28" y="-402.2" font-family="Helvetica,sans-Serif" font-size="11.00">ad_org_id</text>
<polygon fill="#ffffff" stroke="transparent" points="8,-372 8,-394 232,-394 232,-372 8,-372"/>
<polygon fill="none" stroke="black" points="8,-372 8,-394 232,-394 232,-372 8,-372"/>
<text text-anchor="start" x="28" y="-380.2" font-family="Helvetica,sans-Serif" font-size="11.00">value</text>
<polygon fill="#ffffff" stroke="transparent" points="8,-350 8,-372 232,-372 232,-350 8,-350"/>
<polygon fill="none" stroke="black" points="8,-350 8,-372 232,-372 232,-350 8,-350"/>
<text text-anchor="start" x="28" y="-358.2" font-family="Helvetica,sans-Serif" font-size="11.00">name</text>
<polygon fill="#ffffff" stroke="transparent" points="8,-328 8,-350 232,-350 232,-328 8,-328"/>
<polygon fill="none" stroke="black" points="8,-328 8,-350 232,-350 232,-328 8,-328"/>
<image xlink:href="../../images/foreignKeys.png" width="11px" height="12px" preserveAspectRatio="xMinYMin meet" x="13" y="-345"/>
<text text-anchor="start" x="28" y="-336.2" font-family="Helvetica,sans-Serif" font-size="11.00">c_element_id</text>
<polygon fill="none" stroke="black" points="8,-306 8,-328 232,-328 232,-306 8,-306"/>
<image xlink:href="../../images/foreignKeys.png" width="11px" height="12px" preserveAspectRatio="xMinYMin meet" x="13" y="-323"/>
<text text-anchor="start" x="28" y="-314.2" font-family="Helvetica,sans-Serif" font-size="11.00">c_bankaccount_id</text>
<polygon fill="none" stroke="black" points="8,-284 8,-306 232,-306 232,-284 8,-284"/>
<image xlink:href="../../images/foreignKeys.png" width="11px" height="12px" preserveAspectRatio="xMinYMin meet" x="13" y="-301"/>
<text text-anchor="start" x="28" y="-292.2" font-family="Helvetica,sans-Serif" font-size="11.00">c_currency_id</text>
<polygon fill="#ffffff" stroke="transparent" points="8,-262 8,-284 232,-284 232,-262 8,-262"/>
<polygon fill="none" stroke="black" points="8,-262 8,-284 232,-284 232,-262 8,-262"/>
<text text-anchor="start" x="28" y="-270.2" font-family="Helvetica,sans-Serif" font-size="11.00">c_elementvalue_uu</text>
<polygon fill="none" stroke="black" points="8,-240 8,-262 232,-262 232,-240 8,-240"/>
<image xlink:href="../../images/foreignKeys.png" width="11px" height="12px" preserveAspectRatio="xMinYMin meet" x="13" y="-257"/>
<text text-anchor="start" x="28" y="-248.2" font-family="Helvetica,sans-Serif" font-size="11.00">cof_codagl_id</text>
<polygon fill="none" stroke="black" points="8,-222 8,-240 232,-240 232,-222 8,-222"/>
<text text-anchor="start" x="11" y="-228.2" font-family="Helvetica,sans-Serif" font-size="11.00">...</text>
<polygon fill="#ffffff" stroke="transparent" points="8,-204 8,-222 232,-222 232,-204 8,-204"/>
<polygon fill="none" stroke="black" points="8,-204 8,-222 232,-222 232,-204 8,-204"/>
<polygon fill="#ffffff" stroke="transparent" points="9,-205 9,-221 67,-221 67,-205 9,-205"/>
<text text-anchor="start" x="11" y="-210.2" font-family="Helvetica,sans-Serif" font-size="11.00">&lt; 6</text>
<polygon fill="#ffffff" stroke="transparent" points="67,-205 67,-221 162,-221 162,-205 67,-205"/>
<text text-anchor="start" x="87.5" y="-210.2" font-family="Helvetica,sans-Serif" font-size="11.00">1.835 rows</text>
<polygon fill="#ffffff" stroke="transparent" points="162,-205 162,-221 231,-221 231,-205 162,-205"/>
<text text-anchor="start" x="201" y="-210.2" font-family="Helvetica,sans-Serif" font-size="11.00">120 &gt;</text>
<polygon fill="black" stroke="black" points="67,-205 67,-221 67,-221 67,-205 67,-205"/>
<polygon fill="black" stroke="black" points="162,-205 162,-221 162,-221 162,-205 162,-205"/>
</a>
</g>
</g>
<!-- pa_ratioelement&#45;&gt;c_elementvalue -->
<g id="edge1" class="edge">
<title>pa_ratioelement:w&#45;&gt;c_elementvalue:e</title>
<path fill="none" stroke="black" d="M267.96,-483.22C255.43,-472.8 254.75,-449 233,-449"/>
<polygon fill="black" stroke="black" points="274.43,-485.42 280.84,-491.41 278.21,-486.71 282,-488 282,-488 282,-488 278.21,-486.71 283.16,-484.59 274.43,-485.42 274.43,-485.42"/>
<ellipse fill="none" stroke="black" cx="271.4" cy="-484.39" rx="3.2" ry="3.2"/>
</g>
<!-- pa_measurecalc -->
<g id="node3" class="node">
<title>pa_measurecalc</title>
<g id="a_node3"><a xlink:href="../../tables/pa_measurecalc.html" xlink:title="pa_measurecalc" target="_top">
<polygon fill="#ffffff" stroke="transparent" points="39,-37 39,-183 201,-183 201,-37 39,-37"/>
<polygon fill="#f5f5f5" stroke="transparent" points="39,-161 39,-183 201,-183 201,-161 39,-161"/>
<polygon fill="none" stroke="black" points="39,-161 39,-183 201,-183 201,-161 39,-161"/>
<text text-anchor="start" x="44" y="-170.2" font-family="Helvetica,sans-Serif" font-weight="bold" font-size="11.00">pa_measurecalc</text>
<text text-anchor="start" x="166" y="-169.2" font-family="Helvetica,sans-Serif" font-size="11.00">[table]</text>
<polygon fill="none" stroke="black" points="39,-139 39,-161 201,-161 201,-139 39,-139"/>
<image xlink:href="../../images/primaryKeys.png" width="11px" height="12px" preserveAspectRatio="xMinYMin meet" x="44" y="-156"/>
<text text-anchor="start" x="59" y="-147.2" font-family="Helvetica,sans-Serif" font-size="11.00">pa_measurecalc_id</text>
<polygon fill="none" stroke="black" points="39,-117 39,-139 201,-139 201,-117 39,-117"/>
<image xlink:href="../../images/foreignKeys.png" width="11px" height="12px" preserveAspectRatio="xMinYMin meet" x="44" y="-134"/>
<text text-anchor="start" x="59" y="-125.2" font-family="Helvetica,sans-Serif" font-size="11.00">ad_table_id</text>
<polygon fill="none" stroke="black" points="39,-95 39,-117 201,-117 201,-95 39,-95"/>
<image xlink:href="../../images/foreignKeys.png" width="11px" height="12px" preserveAspectRatio="xMinYMin meet" x="44" y="-112"/>
<text text-anchor="start" x="59" y="-103.2" font-family="Helvetica,sans-Serif" font-size="11.00">entitytype</text>
<polygon fill="#ffffff" stroke="transparent" points="39,-73 39,-95 201,-95 201,-73 39,-73"/>
<polygon fill="none" stroke="black" points="39,-73 39,-95 201,-95 201,-73 39,-73"/>
<text text-anchor="start" x="59" y="-81.2" font-family="Helvetica,sans-Serif" font-size="11.00">pa_measurecalc_uu</text>
<polygon fill="none" stroke="black" points="39,-55 39,-73 201,-73 201,-55 39,-55"/>
<text text-anchor="start" x="42" y="-61.2" font-family="Helvetica,sans-Serif" font-size="11.00">...</text>
<polygon fill="#ffffff" stroke="transparent" points="39,-37 39,-55 201,-55 201,-37 39,-37"/>
<polygon fill="none" stroke="black" points="39,-37 39,-55 201,-55 201,-37 39,-37"/>
<polygon fill="#ffffff" stroke="transparent" points="40,-38 40,-54 88,-54 88,-38 40,-38"/>
<text text-anchor="start" x="42" y="-43.2" font-family="Helvetica,sans-Serif" font-size="11.00">&lt; 2</text>
<polygon fill="#ffffff" stroke="transparent" points="88,-38 88,-54 153,-54 153,-38 88,-38"/>
<text text-anchor="start" x="104" y="-43.2" font-family="Helvetica,sans-Serif" font-size="11.00">6 rows</text>
<polygon fill="#ffffff" stroke="transparent" points="153,-38 153,-54 200,-54 200,-38 153,-38"/>
<text text-anchor="start" x="182" y="-43.2" font-family="Helvetica,sans-Serif" font-size="11.00">2 &gt;</text>
<polygon fill="black" stroke="black" points="88,-38 88,-54 88,-54 88,-38 88,-38"/>
<polygon fill="black" stroke="black" points="153,-38 153,-54 153,-54 153,-38 153,-38"/>
</a>
</g>
</g>
<!-- pa_ratioelement&#45;&gt;pa_measurecalc -->
<g id="edge2" class="edge">
<title>pa_ratioelement:w&#45;&gt;pa_measurecalc:e</title>
<path fill="none" stroke="black" d="M268.48,-439.02C232.18,-407.82 262.05,-239.27 240,-193 229.03,-169.98 227.5,-150 202,-150"/>
<polygon fill="black" stroke="black" points="274.49,-441.23 280.75,-447.38 278.25,-442.62 282,-444 282,-444 282,-444 278.25,-442.62 283.25,-440.62 274.49,-441.23 274.49,-441.23"/>
<ellipse fill="none" stroke="black" cx="271.49" cy="-440.13" rx="3.2" ry="3.2"/>
</g>
<!-- pa_ratio -->
<g id="node4" class="node">
<title>pa_ratio</title>
<g id="a_node4"><a xlink:href="../../tables/pa_ratio.html" xlink:title="pa_ratio" target="_top">
<polygon fill="#ffffff" stroke="transparent" points="49.5,-503 49.5,-627 190.5,-627 190.5,-503 49.5,-503"/>
<polygon fill="#f5f5f5" stroke="transparent" points="50,-605 50,-627 191,-627 191,-605 50,-605"/>
<polygon fill="none" stroke="black" points="50,-605 50,-627 191,-627 191,-605 50,-605"/>
<text text-anchor="start" x="55" y="-614.2" font-family="Helvetica,sans-Serif" font-weight="bold" font-size="11.00">pa_ratio</text>
<text text-anchor="start" x="156" y="-613.2" font-family="Helvetica,sans-Serif" font-size="11.00">[table]</text>
<polygon fill="none" stroke="black" points="50,-583 50,-605 191,-605 191,-583 50,-583"/>
<image xlink:href="../../images/primaryKeys.png" width="11px" height="12px" preserveAspectRatio="xMinYMin meet" x="55" y="-600"/>
<text text-anchor="start" x="70" y="-591.2" font-family="Helvetica,sans-Serif" font-size="11.00">pa_ratio_id</text>
<polygon fill="none" stroke="black" points="50,-561 50,-583 191,-583 191,-561 50,-561"/>
<image xlink:href="../../images/foreignKeys.png" width="11px" height="12px" preserveAspectRatio="xMinYMin meet" x="55" y="-578"/>
<text text-anchor="start" x="70" y="-569.2" font-family="Helvetica,sans-Serif" font-size="11.00">c_acctschema_id</text>
<polygon fill="#ffffff" stroke="transparent" points="50,-539 50,-561 191,-561 191,-539 50,-539"/>
<polygon fill="none" stroke="black" points="50,-539 50,-561 191,-561 191,-539 50,-539"/>
<text text-anchor="start" x="70" y="-547.2" font-family="Helvetica,sans-Serif" font-size="11.00">pa_ratio_uu</text>
<polygon fill="none" stroke="black" points="50,-521 50,-539 191,-539 191,-521 50,-521"/>
<text text-anchor="start" x="53" y="-527.2" font-family="Helvetica,sans-Serif" font-size="11.00">...</text>
<polygon fill="#ffffff" stroke="transparent" points="50,-503 50,-521 191,-521 191,-503 50,-503"/>
<polygon fill="none" stroke="black" points="50,-503 50,-521 191,-521 191,-503 50,-503"/>
<polygon fill="#ffffff" stroke="transparent" points="51,-504 51,-520 101,-520 101,-504 51,-504"/>
<text text-anchor="start" x="53" y="-509.2" font-family="Helvetica,sans-Serif" font-size="11.00">&lt; 1</text>
<polygon fill="#ffffff" stroke="transparent" points="101,-504 101,-520 141,-520 141,-504 101,-504"/>
<text text-anchor="start" x="117.5" y="-509.2" font-family="Helvetica,sans-Serif" font-size="11.00"> &#160;</text>
<polygon fill="#ffffff" stroke="transparent" points="141,-504 141,-520 190,-520 190,-504 141,-504"/>
<text text-anchor="start" x="172" y="-509.2" font-family="Helvetica,sans-Serif" font-size="11.00">3 &gt;</text>
<polygon fill="black" stroke="black" points="101,-504 101,-520 101,-520 101,-504 101,-504"/>
<polygon fill="black" stroke="black" points="141,-504 141,-520 141,-520 141,-504 141,-504"/>
</a>
</g>
</g>
<!-- pa_ratioelement&#45;&gt;pa_ratio -->
<g id="edge3" class="edge">
<title>pa_ratioelement:w&#45;&gt;pa_ratio:e</title>
<path fill="none" stroke="black" d="M267.36,-555.72C236.97,-563.38 230.3,-594 192,-594"/>
<polygon fill="black" stroke="black" points="274.05,-554.93 282.42,-557.58 278.03,-554.47 282,-554 282,-554 282,-554 278.03,-554.47 281.58,-550.42 274.05,-554.93 274.05,-554.93"/>
<ellipse fill="none" stroke="black" cx="270.88" cy="-555.31" rx="3.2" ry="3.2"/>
</g>
<!-- pa_ratioelement&#45;&gt;pa_ratio -->
<g id="edge4" class="edge">
<title>pa_ratioelement:w&#45;&gt;pa_ratio:e</title>
<path fill="none" stroke="black" d="M267.76,-468.22C219.4,-485.22 256.11,-594 192,-594"/>
<polygon fill="black" stroke="black" points="274.1,-467.23 282.55,-469.56 278.05,-466.62 282,-466 282,-466 282,-466 278.05,-466.62 281.45,-462.44 274.1,-467.23 274.1,-467.23"/>
<ellipse fill="none" stroke="black" cx="270.93" cy="-467.73" rx="3.2" ry="3.2"/>
</g>
</g>
</svg>
