<?xml version="1.0" encoding="UTF-8" standalone="no"?>
<!DOCTYPE svg PUBLIC "-//W3C//DTD SVG 1.1//EN"
 "http://www.w3.org/Graphics/SVG/1.1/DTD/svg11.dtd">
<!-- Generated by graphviz version 2.43.0 (0)
 -->
<!-- Title: oneDegreeRelationshipsDiagram Pages: 1 -->
<svg width="1424pt" height="1036pt"
 viewBox="0.00 0.00 1424.00 1035.53" xmlns="http://www.w3.org/2000/svg" xmlns:xlink="http://www.w3.org/1999/xlink">
<g id="graph0" class="graph" transform="scale(1 1) rotate(0) translate(4 1031.53)">
<title>oneDegreeRelationshipsDiagram</title>
<polygon fill="#ffffff" stroke="transparent" points="-4,4 -4,-1031.53 1420,-1031.53 1420,4 -4,4"/>
<text text-anchor="middle" x="71.5" y="-7.2" font-family="Helvetica,sans-Serif" font-size="11.00">Generated by SchemaSpy</text>
<!-- ad_org -->
<g id="node1" class="node">
<title>ad_org</title>
<g id="a_node1"><a xlink:href="../../tables/ad_org.html" xlink:title="ad_org" target="_top">
<polygon fill="#ffffff" stroke="transparent" points="302,-411 302,-601 508,-601 508,-411 302,-411"/>
<polygon fill="#f5f5f5" stroke="transparent" points="302,-579 302,-601 508,-601 508,-579 302,-579"/>
<polygon fill="none" stroke="black" points="302,-579 302,-601 508,-601 508,-579 302,-579"/>
<text text-anchor="start" x="307" y="-588.2" font-family="Helvetica,sans-Serif" font-weight="bold" font-size="11.00">ad_org</text>
<text text-anchor="start" x="473" y="-587.2" font-family="Helvetica,sans-Serif" font-size="11.00">[table]</text>
<polygon fill="none" stroke="black" points="302,-557 302,-579 508,-579 508,-557 302,-557"/>
<image xlink:href="../../images/primaryKeys.png" width="11px" height="12px" preserveAspectRatio="xMinYMin meet" x="307" y="-574"/>
<text text-anchor="start" x="322" y="-565.2" font-family="Helvetica,sans-Serif" font-size="11.00">ad_org_id</text>
<polygon fill="#ffffff" stroke="transparent" points="302,-535 302,-557 508,-557 508,-535 302,-535"/>
<polygon fill="none" stroke="black" points="302,-535 302,-557 508,-557 508,-535 302,-535"/>
<image xlink:href="../../images/foreignKeys.png" width="11px" height="12px" preserveAspectRatio="xMinYMin meet" x="307" y="-552"/>
<text text-anchor="start" x="322" y="-543.2" font-family="Helvetica,sans-Serif" font-size="11.00">ad_client_id</text>
<polygon fill="#ffffff" stroke="transparent" points="302,-513 302,-535 508,-535 508,-513 302,-513"/>
<polygon fill="none" stroke="black" points="302,-513 302,-535 508,-535 508,-513 302,-513"/>
<text text-anchor="start" x="322" y="-521.2" font-family="Helvetica,sans-Serif" font-size="11.00">value</text>
<polygon fill="none" stroke="black" points="302,-491 302,-513 508,-513 508,-491 302,-491"/>
<image xlink:href="../../images/foreignKeys.png" width="11px" height="12px" preserveAspectRatio="xMinYMin meet" x="307" y="-508"/>
<text text-anchor="start" x="322" y="-499.2" font-family="Helvetica,sans-Serif" font-size="11.00">ad_replicationstrategy_id</text>
<polygon fill="#ffffff" stroke="transparent" points="302,-469 302,-491 508,-491 508,-469 302,-469"/>
<polygon fill="none" stroke="black" points="302,-469 302,-491 508,-491 508,-469 302,-469"/>
<text text-anchor="start" x="322" y="-477.2" font-family="Helvetica,sans-Serif" font-size="11.00">ad_org_uu</text>
<polygon fill="none" stroke="black" points="302,-447 302,-469 508,-469 508,-447 302,-447"/>
<image xlink:href="../../images/foreignKeys.png" width="11px" height="12px" preserveAspectRatio="xMinYMin meet" x="307" y="-464"/>
<text text-anchor="start" x="322" y="-455.2" font-family="Helvetica,sans-Serif" font-size="11.00">cof_c_snrange_id</text>
<polygon fill="none" stroke="black" points="302,-429 302,-447 508,-447 508,-429 302,-429"/>
<text text-anchor="start" x="305" y="-435.2" font-family="Helvetica,sans-Serif" font-size="11.00">...</text>
<polygon fill="#ffffff" stroke="transparent" points="302,-411 302,-429 508,-429 508,-411 302,-411"/>
<polygon fill="none" stroke="black" points="302,-411 302,-429 508,-429 508,-411 302,-411"/>
<polygon fill="#ffffff" stroke="transparent" points="303,-412 303,-428 362,-428 362,-412 303,-412"/>
<text text-anchor="start" x="305" y="-417.2" font-family="Helvetica,sans-Serif" font-size="11.00">&lt; 3</text>
<polygon fill="#ffffff" stroke="transparent" points="362,-412 362,-428 437,-428 437,-412 362,-412"/>
<text text-anchor="start" x="383" y="-417.2" font-family="Helvetica,sans-Serif" font-size="11.00">3 rows</text>
<polygon fill="#ffffff" stroke="transparent" points="437,-412 437,-428 507,-428 507,-412 437,-412"/>
<text text-anchor="start" x="477" y="-417.2" font-family="Helvetica,sans-Serif" font-size="11.00">297 &gt;</text>
<polygon fill="black" stroke="black" points="362,-412 362,-428 362,-428 362,-412 362,-412"/>
<polygon fill="black" stroke="black" points="437,-412 437,-428 437,-428 437,-412 437,-412"/>
</a>
</g>
</g>
<!-- ad_client -->
<g id="node2" class="node">
<title>ad_client</title>
<g id="a_node2"><a xlink:href="../../tables/ad_client.html" xlink:title="ad_client" target="_top">
<polygon fill="#ffffff" stroke="transparent" points="8,-459 8,-671 253,-671 253,-459 8,-459"/>
<polygon fill="#f5f5f5" stroke="transparent" points="8.5,-649 8.5,-671 253.5,-671 253.5,-649 8.5,-649"/>
<polygon fill="none" stroke="black" points="8.5,-649 8.5,-671 253.5,-671 253.5,-649 8.5,-649"/>
<text text-anchor="start" x="13.5" y="-658.2" font-family="Helvetica,sans-Serif" font-weight="bold" font-size="11.00">ad_client</text>
<text text-anchor="start" x="218.5" y="-657.2" font-family="Helvetica,sans-Serif" font-size="11.00">[table]</text>
<polygon fill="none" stroke="black" points="8.5,-627 8.5,-649 253.5,-649 253.5,-627 8.5,-627"/>
<image xlink:href="../../images/primaryKeys.png" width="11px" height="12px" preserveAspectRatio="xMinYMin meet" x="13.5" y="-644"/>
<text text-anchor="start" x="28.5" y="-635.2" font-family="Helvetica,sans-Serif" font-size="11.00">ad_client_id</text>
<polygon fill="#ffffff" stroke="transparent" points="8.5,-605 8.5,-627 253.5,-627 253.5,-605 8.5,-605"/>
<polygon fill="none" stroke="black" points="8.5,-605 8.5,-627 253.5,-627 253.5,-605 8.5,-605"/>
<text text-anchor="start" x="28.5" y="-613.2" font-family="Helvetica,sans-Serif" font-size="11.00">value</text>
<polygon fill="none" stroke="black" points="8.5,-583 8.5,-605 253.5,-605 253.5,-583 8.5,-583"/>
<image xlink:href="../../images/foreignKeys.png" width="11px" height="12px" preserveAspectRatio="xMinYMin meet" x="13.5" y="-600"/>
<text text-anchor="start" x="28.5" y="-591.2" font-family="Helvetica,sans-Serif" font-size="11.00">ad_language</text>
<polygon fill="none" stroke="black" points="8.5,-561 8.5,-583 253.5,-583 253.5,-561 8.5,-561"/>
<image xlink:href="../../images/foreignKeys.png" width="11px" height="12px" preserveAspectRatio="xMinYMin meet" x="13.5" y="-578"/>
<text text-anchor="start" x="28.5" y="-569.2" font-family="Helvetica,sans-Serif" font-size="11.00">ad_replicationstrategy_id</text>
<polygon fill="#ffffff" stroke="transparent" points="8.5,-539 8.5,-561 253.5,-561 253.5,-539 8.5,-539"/>
<polygon fill="none" stroke="black" points="8.5,-539 8.5,-561 253.5,-561 253.5,-539 8.5,-539"/>
<text text-anchor="start" x="28.5" y="-547.2" font-family="Helvetica,sans-Serif" font-size="11.00">ad_client_uu</text>
<polygon fill="none" stroke="black" points="8.5,-517 8.5,-539 253.5,-539 253.5,-517 8.5,-517"/>
<image xlink:href="../../images/foreignKeys.png" width="11px" height="12px" preserveAspectRatio="xMinYMin meet" x="13.5" y="-534"/>
<text text-anchor="start" x="28.5" y="-525.2" font-family="Helvetica,sans-Serif" font-size="11.00">ad_passwordrule_id</text>
<polygon fill="#ffffff" stroke="transparent" points="8.5,-495 8.5,-517 253.5,-517 253.5,-495 8.5,-495"/>
<polygon fill="none" stroke="black" points="8.5,-495 8.5,-517 253.5,-517 253.5,-495 8.5,-495"/>
<text text-anchor="start" x="28.5" y="-503.2" font-family="Helvetica,sans-Serif" font-size="11.00">loginprefix</text>
<polygon fill="none" stroke="black" points="8.5,-477 8.5,-495 253.5,-495 253.5,-477 8.5,-477"/>
<text text-anchor="start" x="11.5" y="-483.2" font-family="Helvetica,sans-Serif" font-size="11.00">...</text>
<polygon fill="#ffffff" stroke="transparent" points="8.5,-459 8.5,-477 253.5,-477 253.5,-459 8.5,-459"/>
<polygon fill="none" stroke="black" points="8.5,-459 8.5,-477 253.5,-477 253.5,-459 8.5,-459"/>
<polygon fill="#ffffff" stroke="transparent" points="9.5,-460 9.5,-476 81.5,-476 81.5,-460 9.5,-460"/>
<text text-anchor="start" x="11.5" y="-465.2" font-family="Helvetica,sans-Serif" font-size="11.00">&lt; 3</text>
<polygon fill="#ffffff" stroke="transparent" points="81.5,-460 81.5,-476 169.5,-476 169.5,-460 81.5,-460"/>
<text text-anchor="start" x="109" y="-465.2" font-family="Helvetica,sans-Serif" font-size="11.00">2 rows</text>
<polygon fill="#ffffff" stroke="transparent" points="169.5,-460 169.5,-476 252.5,-476 252.5,-460 169.5,-460"/>
<text text-anchor="start" x="222.5" y="-465.2" font-family="Helvetica,sans-Serif" font-size="11.00">216 &gt;</text>
<polygon fill="black" stroke="black" points="81.5,-460 81.5,-476 81.5,-476 81.5,-460 81.5,-460"/>
<polygon fill="black" stroke="black" points="169.5,-460 169.5,-476 169.5,-476 169.5,-460 169.5,-460"/>
</a>
</g>
</g>
<!-- ad_org&#45;&gt;ad_client -->
<g id="edge1" class="edge">
<title>ad_org:w&#45;&gt;ad_client:e</title>
<path fill="none" stroke="black" d="M287.13,-550.44C265.57,-568.81 294.23,-638 254.5,-638"/>
<polygon fill="black" stroke="black" points="293.38,-548.44 302.1,-549.43 297.19,-547.22 301,-546 301,-546 301,-546 297.19,-547.22 299.9,-542.57 293.38,-548.44 293.38,-548.44"/>
<ellipse fill="none" stroke="black" cx="290.33" cy="-549.41" rx="3.2" ry="3.2"/>
</g>
<!-- ad_user -->
<g id="node3" class="node">
<title>ad_user</title>
<g id="a_node3"><a xlink:href="../../tables/ad_user.html" xlink:title="ad_user" target="_top">
<polygon fill="#ffffff" stroke="transparent" points="557,-37 557,-601 797,-601 797,-37 557,-37"/>
<polygon fill="#f5f5f5" stroke="transparent" points="557,-579 557,-601 797,-601 797,-579 557,-579"/>
<polygon fill="none" stroke="black" points="557,-579 557,-601 797,-601 797,-579 557,-579"/>
<text text-anchor="start" x="562" y="-588.2" font-family="Helvetica,sans-Serif" font-weight="bold" font-size="11.00">ad_user</text>
<text text-anchor="start" x="762" y="-587.2" font-family="Helvetica,sans-Serif" font-size="11.00">[table]</text>
<polygon fill="none" stroke="black" points="557,-557 557,-579 797,-579 797,-557 557,-557"/>
<image xlink:href="../../images/primaryKeys.png" width="11px" height="12px" preserveAspectRatio="xMinYMin meet" x="562" y="-574"/>
<text text-anchor="start" x="577" y="-565.2" font-family="Helvetica,sans-Serif" font-size="11.00">ad_user_id</text>
<polygon fill="none" stroke="black" points="557,-535 557,-557 797,-557 797,-535 557,-535"/>
<image xlink:href="../../images/foreignKeys.png" width="11px" height="12px" preserveAspectRatio="xMinYMin meet" x="562" y="-552"/>
<text text-anchor="start" x="577" y="-543.2" font-family="Helvetica,sans-Serif" font-size="11.00">ad_client_id</text>
<polygon fill="none" stroke="black" points="557,-513 557,-535 797,-535 797,-513 557,-513"/>
<image xlink:href="../../images/foreignKeys.png" width="11px" height="12px" preserveAspectRatio="xMinYMin meet" x="562" y="-530"/>
<text text-anchor="start" x="577" y="-521.2" font-family="Helvetica,sans-Serif" font-size="11.00">ad_org_id</text>
<polygon fill="#ffffff" stroke="transparent" points="557,-491 557,-513 797,-513 797,-491 557,-491"/>
<polygon fill="none" stroke="black" points="557,-491 557,-513 797,-513 797,-491 557,-491"/>
<text text-anchor="start" x="577" y="-499.2" font-family="Helvetica,sans-Serif" font-size="11.00">name</text>
<polygon fill="#ffffff" stroke="transparent" points="557,-469 557,-491 797,-491 797,-469 557,-469"/>
<polygon fill="none" stroke="black" points="557,-469 557,-491 797,-491 797,-469 557,-469"/>
<text text-anchor="start" x="577" y="-477.2" font-family="Helvetica,sans-Serif" font-size="11.00">email</text>
<polygon fill="none" stroke="black" points="557,-447 557,-469 797,-469 797,-447 557,-447"/>
<image xlink:href="../../images/foreignKeys.png" width="11px" height="12px" preserveAspectRatio="xMinYMin meet" x="562" y="-464"/>
<text text-anchor="start" x="577" y="-455.2" font-family="Helvetica,sans-Serif" font-size="11.00">supervisor_id</text>
<polygon fill="#ffffff" stroke="transparent" points="557,-425 557,-447 797,-447 797,-425 557,-425"/>
<polygon fill="none" stroke="black" points="557,-425 557,-447 797,-447 797,-425 557,-425"/>
<image xlink:href="../../images/foreignKeys.png" width="11px" height="12px" preserveAspectRatio="xMinYMin meet" x="562" y="-442"/>
<text text-anchor="start" x="577" y="-433.2" font-family="Helvetica,sans-Serif" font-size="11.00">c_bpartner_id</text>
<polygon fill="none" stroke="black" points="557,-403 557,-425 797,-425 797,-403 557,-403"/>
<image xlink:href="../../images/foreignKeys.png" width="11px" height="12px" preserveAspectRatio="xMinYMin meet" x="562" y="-420"/>
<text text-anchor="start" x="577" y="-411.2" font-family="Helvetica,sans-Serif" font-size="11.00">c_bpartner_location_id</text>
<polygon fill="none" stroke="black" points="557,-381 557,-403 797,-403 797,-381 557,-381"/>
<image xlink:href="../../images/foreignKeys.png" width="11px" height="12px" preserveAspectRatio="xMinYMin meet" x="562" y="-398"/>
<text text-anchor="start" x="577" y="-389.2" font-family="Helvetica,sans-Serif" font-size="11.00">c_greeting_id</text>
<polygon fill="none" stroke="black" points="557,-359 557,-381 797,-381 797,-359 557,-359"/>
<image xlink:href="../../images/foreignKeys.png" width="11px" height="12px" preserveAspectRatio="xMinYMin meet" x="562" y="-376"/>
<text text-anchor="start" x="577" y="-367.2" font-family="Helvetica,sans-Serif" font-size="11.00">ad_orgtrx_id</text>
<polygon fill="none" stroke="black" points="557,-337 557,-359 797,-359 797,-337 557,-337"/>
<image xlink:href="../../images/foreignKeys.png" width="11px" height="12px" preserveAspectRatio="xMinYMin meet" x="562" y="-354"/>
<text text-anchor="start" x="577" y="-345.2" font-family="Helvetica,sans-Serif" font-size="11.00">c_job_id</text>
<polygon fill="#ffffff" stroke="transparent" points="557,-315 557,-337 797,-337 797,-315 557,-315"/>
<polygon fill="none" stroke="black" points="557,-315 557,-337 797,-337 797,-315 557,-315"/>
<text text-anchor="start" x="577" y="-323.2" font-family="Helvetica,sans-Serif" font-size="11.00">ad_user_uu</text>
<polygon fill="none" stroke="black" points="557,-293 557,-315 797,-315 797,-293 557,-293"/>
<image xlink:href="../../images/foreignKeys.png" width="11px" height="12px" preserveAspectRatio="xMinYMin meet" x="562" y="-310"/>
<text text-anchor="start" x="577" y="-301.2" font-family="Helvetica,sans-Serif" font-size="11.00">c_location_id</text>
<polygon fill="none" stroke="black" points="557,-271 557,-293 797,-293 797,-271 557,-271"/>
<image xlink:href="../../images/foreignKeys.png" width="11px" height="12px" preserveAspectRatio="xMinYMin meet" x="562" y="-288"/>
<text text-anchor="start" x="577" y="-279.2" font-family="Helvetica,sans-Serif" font-size="11.00">c_campaign_id</text>
<polygon fill="none" stroke="black" points="557,-249 557,-271 797,-271 797,-249 557,-249"/>
<image xlink:href="../../images/foreignKeys.png" width="11px" height="12px" preserveAspectRatio="xMinYMin meet" x="562" y="-266"/>
<text text-anchor="start" x="577" y="-257.2" font-family="Helvetica,sans-Serif" font-size="11.00">salesrep_id</text>
<polygon fill="none" stroke="black" points="557,-227 557,-249 797,-249 797,-227 557,-227"/>
<image xlink:href="../../images/foreignKeys.png" width="11px" height="12px" preserveAspectRatio="xMinYMin meet" x="562" y="-244"/>
<text text-anchor="start" x="577" y="-235.2" font-family="Helvetica,sans-Serif" font-size="11.00">bp_location_id</text>
<polygon fill="none" stroke="black" points="557,-205 557,-227 797,-227 797,-205 557,-205"/>
<image xlink:href="../../images/foreignKeys.png" width="11px" height="12px" preserveAspectRatio="xMinYMin meet" x="562" y="-222"/>
<text text-anchor="start" x="577" y="-213.2" font-family="Helvetica,sans-Serif" font-size="11.00">r_defaultmailtext_id</text>
<polygon fill="none" stroke="black" points="557,-183 557,-205 797,-205 797,-183 557,-183"/>
<image xlink:href="../../images/foreignKeys.png" width="11px" height="12px" preserveAspectRatio="xMinYMin meet" x="562" y="-200"/>
<text text-anchor="start" x="577" y="-191.2" font-family="Helvetica,sans-Serif" font-size="11.00">cof_c_marketsegment_id</text>
<polygon fill="none" stroke="black" points="557,-161 557,-183 797,-183 797,-161 557,-161"/>
<image xlink:href="../../images/foreignKeys.png" width="11px" height="12px" preserveAspectRatio="xMinYMin meet" x="562" y="-178"/>
<text text-anchor="start" x="577" y="-169.2" font-family="Helvetica,sans-Serif" font-size="11.00">cof_c_leadexpirationreason_id</text>
<polygon fill="none" stroke="black" points="557,-139 557,-161 797,-161 797,-139 557,-139"/>
<image xlink:href="../../images/foreignKeys.png" width="11px" height="12px" preserveAspectRatio="xMinYMin meet" x="562" y="-156"/>
<text text-anchor="start" x="577" y="-147.2" font-family="Helvetica,sans-Serif" font-size="11.00">ad_image_id</text>
<polygon fill="none" stroke="black" points="557,-117 557,-139 797,-139 797,-117 557,-117"/>
<image xlink:href="../../images/foreignKeys.png" width="11px" height="12px" preserveAspectRatio="xMinYMin meet" x="562" y="-134"/>
<text text-anchor="start" x="577" y="-125.2" font-family="Helvetica,sans-Serif" font-size="11.00">c_subscription_id</text>
<polygon fill="none" stroke="black" points="557,-95 557,-117 797,-117 797,-95 557,-95"/>
<image xlink:href="../../images/foreignKeys.png" width="11px" height="12px" preserveAspectRatio="xMinYMin meet" x="562" y="-112"/>
<text text-anchor="start" x="577" y="-103.2" font-family="Helvetica,sans-Serif" font-size="11.00">cof_responsavelindicacao_id</text>
<polygon fill="none" stroke="black" points="557,-73 557,-95 797,-95 797,-73 557,-73"/>
<image xlink:href="../../images/foreignKeys.png" width="11px" height="12px" preserveAspectRatio="xMinYMin meet" x="562" y="-90"/>
<text text-anchor="start" x="577" y="-81.2" font-family="Helvetica,sans-Serif" font-size="11.00">cof_respatribuicao_id</text>
<polygon fill="none" stroke="black" points="557,-55 557,-73 797,-73 797,-55 557,-55"/>
<text text-anchor="start" x="560" y="-61.2" font-family="Helvetica,sans-Serif" font-size="11.00">...</text>
<polygon fill="#ffffff" stroke="transparent" points="557,-37 557,-55 797,-55 797,-37 557,-37"/>
<polygon fill="none" stroke="black" points="557,-37 557,-55 797,-55 797,-37 557,-37"/>
<polygon fill="#ffffff" stroke="transparent" points="558,-38 558,-54 632,-54 632,-38 558,-38"/>
<text text-anchor="start" x="560" y="-43.2" font-family="Helvetica,sans-Serif" font-size="11.00">&lt; 19</text>
<polygon fill="#ffffff" stroke="transparent" points="632,-38 632,-54 717,-54 717,-38 632,-38"/>
<text text-anchor="start" x="658" y="-43.2" font-family="Helvetica,sans-Serif" font-size="11.00">8 rows</text>
<polygon fill="#ffffff" stroke="transparent" points="717,-38 717,-54 796,-54 796,-38 717,-38"/>
<text text-anchor="start" x="766" y="-43.2" font-family="Helvetica,sans-Serif" font-size="11.00">466 &gt;</text>
<polygon fill="black" stroke="black" points="632,-38 632,-54 632,-54 632,-38 632,-38"/>
<polygon fill="black" stroke="black" points="717,-38 717,-54 717,-54 717,-38 717,-38"/>
</a>
</g>
</g>
<!-- ad_user&#45;&gt;ad_org -->
<g id="edge3" class="edge">
<title>ad_user:w&#45;&gt;ad_org:e</title>
<path fill="none" stroke="black" d="M542.35,-529.05C529.97,-540.6 531.58,-568 509,-568"/>
<polygon fill="black" stroke="black" points="548.5,-526.77 557.25,-527.38 552.25,-525.39 556,-524 556,-524 556,-524 552.25,-525.39 554.75,-520.62 548.5,-526.77 548.5,-526.77"/>
<ellipse fill="none" stroke="black" cx="545.5" cy="-527.88" rx="3.2" ry="3.2"/>
</g>
<!-- ad_user&#45;&gt;ad_org -->
<g id="edge4" class="edge">
<title>ad_user:w&#45;&gt;ad_org:e</title>
<path fill="none" stroke="black" d="M541.56,-372.22C481.41,-393.98 593.79,-568 509,-568"/>
<polygon fill="black" stroke="black" points="548.09,-371.22 556.55,-373.56 552.05,-370.61 556,-370 556,-370 556,-370 552.05,-370.61 555.45,-366.44 548.09,-371.22 548.09,-371.22"/>
<ellipse fill="none" stroke="black" cx="544.93" cy="-371.7" rx="3.2" ry="3.2"/>
</g>
<!-- ad_user&#45;&gt;ad_client -->
<g id="edge2" class="edge">
<title>ad_user:w&#45;&gt;ad_client:e</title>
<path fill="none" stroke="black" d="M542.06,-550.52C528.6,-562.86 539.57,-597.14 516,-612 466.6,-643.14 312.9,-638 254.5,-638"/>
<polygon fill="black" stroke="black" points="548.39,-548.47 557.11,-549.42 552.2,-547.23 556,-546 556,-546 556,-546 552.2,-547.23 554.89,-542.58 548.39,-548.47 548.39,-548.47"/>
<ellipse fill="none" stroke="black" cx="545.35" cy="-549.46" rx="3.2" ry="3.2"/>
</g>
<!-- pivot_configuration -->
<g id="node4" class="node">
<title>pivot_configuration</title>
<g id="a_node4"><a xlink:href="../../tables/pivot_configuration.html" xlink:title="pivot_configuration" target="_top">
<polygon fill="#ffffff" stroke="transparent" points="846,-448 846,-682 1088,-682 1088,-448 846,-448"/>
<polygon fill="#f5f5f5" stroke="transparent" points="846,-660 846,-682 1088,-682 1088,-660 846,-660"/>
<polygon fill="none" stroke="black" points="846,-660 846,-682 1088,-682 1088,-660 846,-660"/>
<text text-anchor="start" x="851" y="-669.2" font-family="Helvetica,sans-Serif" font-weight="bold" font-size="11.00">pivot_configuration</text>
<text text-anchor="start" x="1053" y="-668.2" font-family="Helvetica,sans-Serif" font-size="11.00">[table]</text>
<polygon fill="none" stroke="black" points="846,-638 846,-660 1088,-660 1088,-638 846,-638"/>
<image xlink:href="../../images/foreignKeys.png" width="11px" height="12px" preserveAspectRatio="xMinYMin meet" x="851" y="-655"/>
<text text-anchor="start" x="866" y="-646.2" font-family="Helvetica,sans-Serif" font-size="11.00">ad_client_id</text>
<polygon fill="none" stroke="black" points="846,-616 846,-638 1088,-638 1088,-616 846,-616"/>
<image xlink:href="../../images/foreignKeys.png" width="11px" height="12px" preserveAspectRatio="xMinYMin meet" x="851" y="-633"/>
<text text-anchor="start" x="866" y="-624.2" font-family="Helvetica,sans-Serif" font-size="11.00">ad_org_id</text>
<polygon fill="#ffffff" stroke="transparent" points="846,-594 846,-616 1088,-616 1088,-594 846,-594"/>
<polygon fill="none" stroke="black" points="846,-594 846,-616 1088,-616 1088,-594 846,-594"/>
<image xlink:href="../../images/foreignKeys.png" width="11px" height="12px" preserveAspectRatio="xMinYMin meet" x="851" y="-611"/>
<text text-anchor="start" x="866" y="-602.2" font-family="Helvetica,sans-Serif" font-size="11.00">ad_printformat_id</text>
<polygon fill="none" stroke="black" points="846,-572 846,-594 1088,-594 1088,-572 846,-572"/>
<image xlink:href="../../images/foreignKeys.png" width="11px" height="12px" preserveAspectRatio="xMinYMin meet" x="851" y="-589"/>
<text text-anchor="start" x="866" y="-580.2" font-family="Helvetica,sans-Serif" font-size="11.00">createdby</text>
<polygon fill="#ffffff" stroke="transparent" points="846,-550 846,-572 1088,-572 1088,-550 846,-550"/>
<polygon fill="none" stroke="black" points="846,-550 846,-572 1088,-572 1088,-550 846,-550"/>
<text text-anchor="start" x="866" y="-558.2" font-family="Helvetica,sans-Serif" font-size="11.00">isdefault</text>
<polygon fill="none" stroke="black" points="846,-528 846,-550 1088,-550 1088,-528 846,-528"/>
<image xlink:href="../../images/primaryKeys.png" width="11px" height="12px" preserveAspectRatio="xMinYMin meet" x="851" y="-545"/>
<text text-anchor="start" x="866" y="-536.2" font-family="Helvetica,sans-Serif" font-size="11.00">pivot_configuration_id</text>
<polygon fill="#ffffff" stroke="transparent" points="846,-506 846,-528 1088,-528 1088,-506 846,-506"/>
<polygon fill="none" stroke="black" points="846,-506 846,-528 1088,-528 1088,-506 846,-506"/>
<text text-anchor="start" x="866" y="-514.2" font-family="Helvetica,sans-Serif" font-size="11.00">pivot_configuration_uu</text>
<polygon fill="none" stroke="black" points="846,-484 846,-506 1088,-506 1088,-484 846,-484"/>
<image xlink:href="../../images/foreignKeys.png" width="11px" height="12px" preserveAspectRatio="xMinYMin meet" x="851" y="-501"/>
<text text-anchor="start" x="866" y="-492.2" font-family="Helvetica,sans-Serif" font-size="11.00">updatedby</text>
<polygon fill="none" stroke="black" points="846,-466 846,-484 1088,-484 1088,-466 846,-466"/>
<text text-anchor="start" x="849" y="-472.2" font-family="Helvetica,sans-Serif" font-size="11.00">...</text>
<polygon fill="#ffffff" stroke="transparent" points="846,-448 846,-466 1088,-466 1088,-448 846,-448"/>
<polygon fill="none" stroke="black" points="846,-448 846,-466 1088,-466 1088,-448 846,-448"/>
<polygon fill="#ffffff" stroke="transparent" points="847,-449 847,-465 930,-465 930,-449 847,-449"/>
<text text-anchor="start" x="849" y="-454.2" font-family="Helvetica,sans-Serif" font-size="11.00">&lt; 5</text>
<polygon fill="#ffffff" stroke="transparent" points="930,-449 930,-465 1004,-465 1004,-449 930,-449"/>
<text text-anchor="start" x="963.5" y="-454.2" font-family="Helvetica,sans-Serif" font-size="11.00"> &#160;</text>
<polygon fill="#ffffff" stroke="transparent" points="1004,-449 1004,-465 1087,-465 1087,-449 1004,-449"/>
<text text-anchor="start" x="1069" y="-454.2" font-family="Helvetica,sans-Serif" font-size="11.00">1 &gt;</text>
<polygon fill="black" stroke="black" points="930,-449 930,-465 930,-465 930,-449 930,-449"/>
<polygon fill="black" stroke="black" points="1004,-449 1004,-465 1004,-465 1004,-449 1004,-449"/>
</a>
</g>
</g>
<!-- pivot_configuration&#45;&gt;ad_org -->
<g id="edge6" class="edge">
<title>pivot_configuration:w&#45;&gt;ad_org:e</title>
<path fill="none" stroke="black" d="M830.32,-627.17C709.73,-630.01 663.54,-666.18 549,-612 525.11,-600.7 535.43,-568 509,-568"/>
<polygon fill="black" stroke="black" points="837,-627.09 845.04,-630.6 841,-627.05 845,-627 845,-627 845,-627 841,-627.05 844.96,-623.4 837,-627.09 837,-627.09"/>
<ellipse fill="none" stroke="black" cx="833.8" cy="-627.13" rx="3.2" ry="3.2"/>
</g>
<!-- pivot_configuration&#45;&gt;ad_client -->
<g id="edge5" class="edge">
<title>pivot_configuration:w&#45;&gt;ad_client:e</title>
<path fill="none" stroke="black" d="M830.59,-648.99C580.01,-648.6 512.12,-638 254.5,-638"/>
<polygon fill="black" stroke="black" points="837,-648.99 845,-652.6 841,-649 845,-649 845,-649 845,-649 841,-649 845,-645.4 837,-648.99 837,-648.99"/>
<ellipse fill="none" stroke="black" cx="833.8" cy="-648.99" rx="3.2" ry="3.2"/>
</g>
<!-- pivot_configuration&#45;&gt;ad_user -->
<g id="edge7" class="edge">
<title>pivot_configuration:w&#45;&gt;ad_user:e</title>
<path fill="none" stroke="black" d="M830.8,-580.39C820.08,-576.09 814.1,-568 798,-568"/>
<polygon fill="black" stroke="black" points="837.13,-581.55 844.35,-586.54 841.07,-582.28 845,-583 845,-583 845,-583 841.07,-582.28 845.65,-579.46 837.13,-581.55 837.13,-581.55"/>
<ellipse fill="none" stroke="black" cx="833.98" cy="-580.97" rx="3.2" ry="3.2"/>
</g>
<!-- pivot_configuration&#45;&gt;ad_user -->
<g id="edge8" class="edge">
<title>pivot_configuration:w&#45;&gt;ad_user:e</title>
<path fill="none" stroke="black" d="M830.95,-500.25C814.46,-516.99 830.26,-568 798,-568"/>
<polygon fill="black" stroke="black" points="837.51,-497.8 846.26,-498.37 841.25,-496.4 845,-495 845,-495 845,-495 841.25,-496.4 843.74,-491.63 837.51,-497.8 837.51,-497.8"/>
<ellipse fill="none" stroke="black" cx="834.51" cy="-498.92" rx="3.2" ry="3.2"/>
</g>
<!-- pivot_field -->
<g id="node5" class="node">
<title>pivot_field</title>
<g id="a_node5"><a xlink:href="../../tables/pivot_field.html" xlink:title="pivot_field" target="_top">
<polygon fill="#ffffff" stroke="transparent" points="1137,-470 1137,-910 1408,-910 1408,-470 1137,-470"/>
<polygon fill="#f5f5f5" stroke="transparent" points="1139.5,-886 1139.5,-908 1406.5,-908 1406.5,-886 1139.5,-886"/>
<polygon fill="none" stroke="black" points="1139.5,-886 1139.5,-908 1406.5,-908 1406.5,-886 1139.5,-886"/>
<text text-anchor="start" x="1144.5" y="-895.2" font-family="Helvetica,sans-Serif" font-weight="bold" font-size="11.00">pivot_field</text>
<text text-anchor="start" x="1371.5" y="-894.2" font-family="Helvetica,sans-Serif" font-size="11.00">[table]</text>
<polygon fill="none" stroke="black" points="1139.5,-864 1139.5,-886 1323.5,-886 1323.5,-864 1139.5,-864"/>
<image xlink:href="../../images/foreignKeys.png" width="11px" height="12px" preserveAspectRatio="xMinYMin meet" x="1144.5" y="-881"/>
<text text-anchor="start" x="1159.5" y="-872.2" font-family="Helvetica,sans-Serif" font-size="11.00">ad_client_id</text>
<polygon fill="none" stroke="black" points="1323.5,-864 1323.5,-886 1406.5,-886 1406.5,-864 1323.5,-864"/>
<text text-anchor="start" x="1326.5" y="-872.2" font-family="Helvetica,sans-Serif" font-size="11.00">numeric[10]</text>
<polygon fill="none" stroke="black" points="1139.5,-842 1139.5,-864 1323.5,-864 1323.5,-842 1139.5,-842"/>
<image xlink:href="../../images/foreignKeys.png" width="11px" height="12px" preserveAspectRatio="xMinYMin meet" x="1144.5" y="-859"/>
<text text-anchor="start" x="1159.5" y="-850.2" font-family="Helvetica,sans-Serif" font-size="11.00">ad_org_id</text>
<polygon fill="none" stroke="black" points="1323.5,-842 1323.5,-864 1406.5,-864 1406.5,-842 1323.5,-842"/>
<text text-anchor="start" x="1326.5" y="-850.2" font-family="Helvetica,sans-Serif" font-size="11.00">numeric[10]</text>
<polygon fill="none" stroke="black" points="1139.5,-820 1139.5,-842 1323.5,-842 1323.5,-820 1139.5,-820"/>
<image xlink:href="../../images/foreignKeys.png" width="11px" height="12px" preserveAspectRatio="xMinYMin meet" x="1144.5" y="-837"/>
<text text-anchor="start" x="1159.5" y="-828.2" font-family="Helvetica,sans-Serif" font-size="11.00">ad_printformatitem_id</text>
<polygon fill="none" stroke="black" points="1323.5,-820 1323.5,-842 1406.5,-842 1406.5,-820 1323.5,-820"/>
<text text-anchor="start" x="1326.5" y="-828.2" font-family="Helvetica,sans-Serif" font-size="11.00">numeric[10]</text>
<polygon fill="none" stroke="black" points="1139.5,-798 1139.5,-820 1323.5,-820 1323.5,-798 1139.5,-798"/>
<text text-anchor="start" x="1159.5" y="-806.2" font-family="Helvetica,sans-Serif" font-size="11.00">calctype</text>
<polygon fill="none" stroke="black" points="1323.5,-798 1323.5,-820 1406.5,-820 1406.5,-798 1323.5,-798"/>
<text text-anchor="start" x="1326.5" y="-806.2" font-family="Helvetica,sans-Serif" font-size="11.00">varchar[50]</text>
<polygon fill="none" stroke="black" points="1139.5,-776 1139.5,-798 1323.5,-798 1323.5,-776 1139.5,-776"/>
<text text-anchor="start" x="1159.5" y="-784.2" font-family="Helvetica,sans-Serif" font-size="11.00">created</text>
<polygon fill="none" stroke="black" points="1323.5,-776 1323.5,-798 1406.5,-798 1406.5,-776 1323.5,-776"/>
<text text-anchor="start" x="1326.5" y="-784.2" font-family="Helvetica,sans-Serif" font-size="11.00">timestamp[29,6]</text>
<polygon fill="none" stroke="black" points="1139.5,-754 1139.5,-776 1323.5,-776 1323.5,-754 1139.5,-754"/>
<image xlink:href="../../images/foreignKeys.png" width="11px" height="12px" preserveAspectRatio="xMinYMin meet" x="1144.5" y="-771"/>
<text text-anchor="start" x="1159.5" y="-762.2" font-family="Helvetica,sans-Serif" font-size="11.00">createdby</text>
<polygon fill="none" stroke="black" points="1323.5,-754 1323.5,-776 1406.5,-776 1406.5,-754 1323.5,-754"/>
<text text-anchor="start" x="1326.5" y="-762.2" font-family="Helvetica,sans-Serif" font-size="11.00">numeric[10]</text>
<polygon fill="none" stroke="black" points="1139.5,-732 1139.5,-754 1323.5,-754 1323.5,-732 1139.5,-732"/>
<text text-anchor="start" x="1159.5" y="-740.2" font-family="Helvetica,sans-Serif" font-size="11.00">description</text>
<polygon fill="none" stroke="black" points="1323.5,-732 1323.5,-754 1406.5,-754 1406.5,-732 1323.5,-732"/>
<text text-anchor="start" x="1326.5" y="-740.2" font-family="Helvetica,sans-Serif" font-size="11.00">varchar[255]</text>
<polygon fill="none" stroke="black" points="1139.5,-710 1139.5,-732 1323.5,-732 1323.5,-710 1139.5,-710"/>
<text text-anchor="start" x="1159.5" y="-718.2" font-family="Helvetica,sans-Serif" font-size="11.00">help</text>
<polygon fill="none" stroke="black" points="1323.5,-710 1323.5,-732 1406.5,-732 1406.5,-710 1323.5,-710"/>
<text text-anchor="start" x="1326.5" y="-718.2" font-family="Helvetica,sans-Serif" font-size="11.00">varchar[2000]</text>
<polygon fill="none" stroke="black" points="1139.5,-688 1139.5,-710 1323.5,-710 1323.5,-688 1139.5,-688"/>
<text text-anchor="start" x="1159.5" y="-696.2" font-family="Helvetica,sans-Serif" font-size="11.00">isactive</text>
<polygon fill="none" stroke="black" points="1323.5,-688 1323.5,-710 1406.5,-710 1406.5,-688 1323.5,-688"/>
<text text-anchor="start" x="1326.5" y="-696.2" font-family="Helvetica,sans-Serif" font-size="11.00">bpchar[1]</text>
<polygon fill="none" stroke="black" points="1139.5,-666 1139.5,-688 1323.5,-688 1323.5,-666 1139.5,-666"/>
<text text-anchor="start" x="1159.5" y="-674.2" font-family="Helvetica,sans-Serif" font-size="11.00">isusedforgrandtotal</text>
<polygon fill="none" stroke="black" points="1323.5,-666 1323.5,-688 1406.5,-688 1406.5,-666 1323.5,-666"/>
<text text-anchor="start" x="1326.5" y="-674.2" font-family="Helvetica,sans-Serif" font-size="11.00">bpchar[1]</text>
<polygon fill="none" stroke="black" points="1139.5,-644 1139.5,-666 1323.5,-666 1323.5,-644 1139.5,-644"/>
<text text-anchor="start" x="1159.5" y="-652.2" font-family="Helvetica,sans-Serif" font-size="11.00">name</text>
<polygon fill="none" stroke="black" points="1323.5,-644 1323.5,-666 1406.5,-666 1406.5,-644 1323.5,-644"/>
<text text-anchor="start" x="1326.5" y="-652.2" font-family="Helvetica,sans-Serif" font-size="11.00">varchar[60]</text>
<polygon fill="none" stroke="black" points="1139.5,-622 1139.5,-644 1323.5,-644 1323.5,-622 1139.5,-622"/>
<image xlink:href="../../images/foreignKeys.png" width="11px" height="12px" preserveAspectRatio="xMinYMin meet" x="1144.5" y="-639"/>
<text text-anchor="start" x="1159.5" y="-630.2" font-family="Helvetica,sans-Serif" font-size="11.00">pivot_configuration_id</text>
<polygon fill="none" stroke="black" points="1323.5,-622 1323.5,-644 1406.5,-644 1406.5,-622 1323.5,-622"/>
<text text-anchor="start" x="1326.5" y="-630.2" font-family="Helvetica,sans-Serif" font-size="11.00">numeric[10]</text>
<polygon fill="none" stroke="black" points="1139.5,-600 1139.5,-622 1323.5,-622 1323.5,-600 1139.5,-600"/>
<image xlink:href="../../images/primaryKeys.png" width="11px" height="12px" preserveAspectRatio="xMinYMin meet" x="1144.5" y="-617"/>
<text text-anchor="start" x="1159.5" y="-608.2" font-family="Helvetica,sans-Serif" font-size="11.00">pivot_field_id</text>
<polygon fill="none" stroke="black" points="1323.5,-600 1323.5,-622 1406.5,-622 1406.5,-600 1323.5,-600"/>
<text text-anchor="start" x="1326.5" y="-608.2" font-family="Helvetica,sans-Serif" font-size="11.00">numeric[10]</text>
<polygon fill="#ffffff" stroke="transparent" points="1139.5,-578 1139.5,-600 1323.5,-600 1323.5,-578 1139.5,-578"/>
<polygon fill="none" stroke="black" points="1139.5,-578 1139.5,-600 1323.5,-600 1323.5,-578 1139.5,-578"/>
<text text-anchor="start" x="1159.5" y="-586.2" font-family="Helvetica,sans-Serif" font-size="11.00">pivot_field_uu</text>
<polygon fill="none" stroke="black" points="1323.5,-578 1323.5,-600 1406.5,-600 1406.5,-578 1323.5,-578"/>
<text text-anchor="start" x="1326.5" y="-586.2" font-family="Helvetica,sans-Serif" font-size="11.00">varchar[36]</text>
<polygon fill="none" stroke="black" points="1139.5,-556 1139.5,-578 1323.5,-578 1323.5,-556 1139.5,-556"/>
<text text-anchor="start" x="1159.5" y="-564.2" font-family="Helvetica,sans-Serif" font-size="11.00">seqno</text>
<polygon fill="none" stroke="black" points="1323.5,-556 1323.5,-578 1406.5,-578 1406.5,-556 1323.5,-556"/>
<text text-anchor="start" x="1326.5" y="-564.2" font-family="Helvetica,sans-Serif" font-size="11.00">numeric[10]</text>
<polygon fill="none" stroke="black" points="1139.5,-534 1139.5,-556 1323.5,-556 1323.5,-534 1139.5,-534"/>
<text text-anchor="start" x="1159.5" y="-542.2" font-family="Helvetica,sans-Serif" font-size="11.00">type</text>
<polygon fill="none" stroke="black" points="1323.5,-534 1323.5,-556 1406.5,-556 1406.5,-534 1323.5,-534"/>
<text text-anchor="start" x="1326.5" y="-542.2" font-family="Helvetica,sans-Serif" font-size="11.00">varchar[10]</text>
<polygon fill="none" stroke="black" points="1139.5,-512 1139.5,-534 1323.5,-534 1323.5,-512 1139.5,-512"/>
<text text-anchor="start" x="1159.5" y="-520.2" font-family="Helvetica,sans-Serif" font-size="11.00">updated</text>
<polygon fill="none" stroke="black" points="1323.5,-512 1323.5,-534 1406.5,-534 1406.5,-512 1323.5,-512"/>
<text text-anchor="start" x="1326.5" y="-520.2" font-family="Helvetica,sans-Serif" font-size="11.00">timestamp[29,6]</text>
<polygon fill="none" stroke="black" points="1139.5,-490 1139.5,-512 1323.5,-512 1323.5,-490 1139.5,-490"/>
<image xlink:href="../../images/foreignKeys.png" width="11px" height="12px" preserveAspectRatio="xMinYMin meet" x="1144.5" y="-507"/>
<text text-anchor="start" x="1159.5" y="-498.2" font-family="Helvetica,sans-Serif" font-size="11.00">updatedby</text>
<polygon fill="none" stroke="black" points="1323.5,-490 1323.5,-512 1406.5,-512 1406.5,-490 1323.5,-490"/>
<text text-anchor="start" x="1326.5" y="-498.2" font-family="Helvetica,sans-Serif" font-size="11.00">numeric[10]</text>
<polygon fill="#ffffff" stroke="transparent" points="1139.5,-472 1139.5,-490 1406.5,-490 1406.5,-472 1139.5,-472"/>
<polygon fill="none" stroke="black" points="1139.5,-472 1139.5,-490 1406.5,-490 1406.5,-472 1139.5,-472"/>
<polygon fill="#ffffff" stroke="transparent" points="1140.5,-473 1140.5,-489 1232.5,-489 1232.5,-473 1140.5,-473"/>
<text text-anchor="start" x="1142.5" y="-478.2" font-family="Helvetica,sans-Serif" font-size="11.00">&lt; 6</text>
<polygon fill="#ffffff" stroke="transparent" points="1232.5,-473 1232.5,-489 1314.5,-489 1314.5,-473 1232.5,-473"/>
<text text-anchor="start" x="1270" y="-478.2" font-family="Helvetica,sans-Serif" font-size="11.00"> &#160;</text>
<polygon fill="#ffffff" stroke="transparent" points="1314.5,-473 1314.5,-489 1405.5,-489 1405.5,-473 1314.5,-473"/>
<text text-anchor="start" x="1387.5" y="-478.2" font-family="Helvetica,sans-Serif" font-size="11.00">0 &gt;</text>
<polygon fill="black" stroke="black" points="1232.5,-473 1232.5,-489 1232.5,-489 1232.5,-473 1232.5,-473"/>
<polygon fill="black" stroke="black" points="1314.5,-473 1314.5,-489 1314.5,-489 1314.5,-473 1314.5,-473"/>
<polygon fill="none" stroke="black" stroke-width="2" points="1138,-471 1138,-909 1407,-909 1407,-471 1138,-471"/>
</a>
</g>
</g>
<!-- pivot_field&#45;&gt;ad_org -->
<g id="edge10" class="edge">
<title>pivot_field:w&#45;&gt;ad_org:e</title>
<path fill="none" stroke="black" d="M1124.13,-855.88C1094.65,-871.01 1136.35,-941.73 1096,-970 1049.05,-1002.9 890.14,-993.84 838,-970 659.47,-888.39 663.46,-795.48 549,-636 528.56,-607.51 544.06,-568 509,-568"/>
<polygon fill="black" stroke="black" points="1130.66,-854.57 1139.21,-856.53 1134.58,-853.79 1138.5,-853 1138.5,-853 1138.5,-853 1134.58,-853.79 1137.79,-849.47 1130.66,-854.57 1130.66,-854.57"/>
<ellipse fill="none" stroke="black" cx="1127.52" cy="-855.2" rx="3.2" ry="3.2"/>
</g>
<!-- pivot_field&#45;&gt;ad_client -->
<g id="edge9" class="edge">
<title>pivot_field:w&#45;&gt;ad_client:e</title>
<path fill="none" stroke="black" d="M1124.33,-877.83C1095.2,-892.71 1135.82,-962.26 1096,-990 1001.91,-1055.54 948.47,-1020.74 838,-990 765.05,-969.7 330.22,-638 254.5,-638"/>
<polygon fill="black" stroke="black" points="1130.66,-876.57 1139.21,-878.53 1134.58,-875.78 1138.5,-875 1138.5,-875 1138.5,-875 1134.58,-875.78 1137.79,-871.47 1130.66,-876.57 1130.66,-876.57"/>
<ellipse fill="none" stroke="black" cx="1127.52" cy="-877.19" rx="3.2" ry="3.2"/>
</g>
<!-- pivot_field&#45;&gt;ad_user -->
<g id="edge12" class="edge">
<title>pivot_field:w&#45;&gt;ad_user:e</title>
<path fill="none" stroke="black" d="M1124.69,-760.6C1077.19,-724.91 1146.97,-482.77 1096,-438 1052.93,-400.16 884.12,-403.94 838,-438 789.37,-473.91 858.45,-568 798,-568"/>
<polygon fill="black" stroke="black" points="1130.88,-762.57 1137.41,-768.43 1134.69,-763.79 1138.5,-765 1138.5,-765 1138.5,-765 1134.69,-763.79 1139.59,-761.57 1130.88,-762.57 1130.88,-762.57"/>
<ellipse fill="none" stroke="black" cx="1127.83" cy="-761.6" rx="3.2" ry="3.2"/>
</g>
<!-- pivot_field&#45;&gt;ad_user -->
<g id="edge14" class="edge">
<title>pivot_field:w&#45;&gt;ad_user:e</title>
<path fill="none" stroke="black" d="M1124.29,-497.45C1102.83,-483.11 1129.01,-429.21 1096,-408 999.53,-346.02 928.38,-337.43 838,-408 780.22,-453.11 871.3,-568 798,-568"/>
<polygon fill="black" stroke="black" points="1130.74,-499.06 1137.63,-504.49 1134.62,-500.03 1138.5,-501 1138.5,-501 1138.5,-501 1134.62,-500.03 1139.37,-497.51 1130.74,-499.06 1130.74,-499.06"/>
<ellipse fill="none" stroke="black" cx="1127.63" cy="-498.28" rx="3.2" ry="3.2"/>
</g>
<!-- pivot_field&#45;&gt;pivot_configuration -->
<g id="edge13" class="edge">
<title>pivot_field:w&#45;&gt;pivot_configuration:e</title>
<path fill="none" stroke="black" d="M1124.44,-628.72C1101.34,-610.33 1130.13,-539 1089,-539"/>
<polygon fill="black" stroke="black" points="1130.85,-630.67 1137.45,-636.44 1134.67,-631.83 1138.5,-633 1138.5,-633 1138.5,-633 1134.67,-631.83 1139.55,-629.56 1130.85,-630.67 1130.85,-630.67"/>
<ellipse fill="none" stroke="black" cx="1127.79" cy="-629.74" rx="3.2" ry="3.2"/>
</g>
<!-- ad_printformatitem -->
<g id="node6" class="node">
<title>ad_printformatitem</title>
<g id="a_node6"><a xlink:href="../../tables/ad_printformatitem.html" xlink:title="ad_printformatitem" target="_top">
<polygon fill="#ffffff" stroke="transparent" points="865,-703 865,-959 1069,-959 1069,-703 865,-703"/>
<polygon fill="#f5f5f5" stroke="transparent" points="865,-937 865,-959 1069,-959 1069,-937 865,-937"/>
<polygon fill="none" stroke="black" points="865,-937 865,-959 1069,-959 1069,-937 865,-937"/>
<text text-anchor="start" x="870" y="-946.2" font-family="Helvetica,sans-Serif" font-weight="bold" font-size="11.00">ad_printformatitem</text>
<text text-anchor="start" x="1034" y="-945.2" font-family="Helvetica,sans-Serif" font-size="11.00">[table]</text>
<polygon fill="none" stroke="black" points="865,-915 865,-937 1069,-937 1069,-915 865,-915"/>
<image xlink:href="../../images/primaryKeys.png" width="11px" height="12px" preserveAspectRatio="xMinYMin meet" x="870" y="-932"/>
<text text-anchor="start" x="885" y="-923.2" font-family="Helvetica,sans-Serif" font-size="11.00">ad_printformatitem_id</text>
<polygon fill="#ffffff" stroke="transparent" points="865,-893 865,-915 1069,-915 1069,-893 865,-893"/>
<polygon fill="none" stroke="black" points="865,-893 865,-915 1069,-915 1069,-893 865,-893"/>
<image xlink:href="../../images/foreignKeys.png" width="11px" height="12px" preserveAspectRatio="xMinYMin meet" x="870" y="-910"/>
<text text-anchor="start" x="885" y="-901.2" font-family="Helvetica,sans-Serif" font-size="11.00">ad_printformat_id</text>
<polygon fill="none" stroke="black" points="865,-871 865,-893 1069,-893 1069,-871 865,-871"/>
<image xlink:href="../../images/foreignKeys.png" width="11px" height="12px" preserveAspectRatio="xMinYMin meet" x="870" y="-888"/>
<text text-anchor="start" x="885" y="-879.2" font-family="Helvetica,sans-Serif" font-size="11.00">ad_column_id</text>
<polygon fill="none" stroke="black" points="865,-849 865,-871 1069,-871 1069,-849 865,-849"/>
<image xlink:href="../../images/foreignKeys.png" width="11px" height="12px" preserveAspectRatio="xMinYMin meet" x="870" y="-866"/>
<text text-anchor="start" x="885" y="-857.2" font-family="Helvetica,sans-Serif" font-size="11.00">ad_printformatchild_id</text>
<polygon fill="none" stroke="black" points="865,-827 865,-849 1069,-849 1069,-827 865,-827"/>
<image xlink:href="../../images/foreignKeys.png" width="11px" height="12px" preserveAspectRatio="xMinYMin meet" x="870" y="-844"/>
<text text-anchor="start" x="885" y="-835.2" font-family="Helvetica,sans-Serif" font-size="11.00">ad_printcolor_id</text>
<polygon fill="none" stroke="black" points="865,-805 865,-827 1069,-827 1069,-805 865,-805"/>
<image xlink:href="../../images/foreignKeys.png" width="11px" height="12px" preserveAspectRatio="xMinYMin meet" x="870" y="-822"/>
<text text-anchor="start" x="885" y="-813.2" font-family="Helvetica,sans-Serif" font-size="11.00">ad_printfont_id</text>
<polygon fill="none" stroke="black" points="865,-783 865,-805 1069,-805 1069,-783 865,-783"/>
<image xlink:href="../../images/foreignKeys.png" width="11px" height="12px" preserveAspectRatio="xMinYMin meet" x="870" y="-800"/>
<text text-anchor="start" x="885" y="-791.2" font-family="Helvetica,sans-Serif" font-size="11.00">ad_printgraph_id</text>
<polygon fill="#ffffff" stroke="transparent" points="865,-761 865,-783 1069,-783 1069,-761 865,-761"/>
<polygon fill="none" stroke="black" points="865,-761 865,-783 1069,-783 1069,-761 865,-761"/>
<text text-anchor="start" x="885" y="-769.2" font-family="Helvetica,sans-Serif" font-size="11.00">ad_printformatitem_uu</text>
<polygon fill="none" stroke="black" points="865,-739 865,-761 1069,-761 1069,-739 865,-739"/>
<image xlink:href="../../images/foreignKeys.png" width="11px" height="12px" preserveAspectRatio="xMinYMin meet" x="870" y="-756"/>
<text text-anchor="start" x="885" y="-747.2" font-family="Helvetica,sans-Serif" font-size="11.00">ad_fieldstyle_id</text>
<polygon fill="none" stroke="black" points="865,-721 865,-739 1069,-739 1069,-721 865,-721"/>
<text text-anchor="start" x="868" y="-727.2" font-family="Helvetica,sans-Serif" font-size="11.00">...</text>
<polygon fill="#ffffff" stroke="transparent" points="865,-703 865,-721 1069,-721 1069,-703 865,-703"/>
<polygon fill="none" stroke="black" points="865,-703 865,-721 1069,-721 1069,-703 865,-703"/>
<polygon fill="#ffffff" stroke="transparent" points="866,-704 866,-720 919,-720 919,-704 866,-704"/>
<text text-anchor="start" x="868" y="-709.2" font-family="Helvetica,sans-Serif" font-size="11.00">&lt; 7</text>
<polygon fill="#ffffff" stroke="transparent" points="919,-704 919,-720 1016,-720 1016,-704 919,-704"/>
<text text-anchor="start" x="937.5" y="-709.2" font-family="Helvetica,sans-Serif" font-size="11.00">19.425 rows</text>
<polygon fill="#ffffff" stroke="transparent" points="1016,-704 1016,-720 1068,-720 1068,-704 1016,-704"/>
<text text-anchor="start" x="1050" y="-709.2" font-family="Helvetica,sans-Serif" font-size="11.00">8 &gt;</text>
<polygon fill="black" stroke="black" points="919,-704 919,-720 919,-720 919,-704 919,-704"/>
<polygon fill="black" stroke="black" points="1016,-704 1016,-720 1016,-720 1016,-704 1016,-704"/>
</a>
</g>
</g>
<!-- pivot_field&#45;&gt;ad_printformatitem -->
<g id="edge11" class="edge">
<title>pivot_field:w&#45;&gt;ad_printformatitem:e</title>
<path fill="none" stroke="black" d="M1124.34,-834.16C1093.19,-850.64 1116.36,-926 1070,-926"/>
<polygon fill="black" stroke="black" points="1130.69,-832.74 1139.28,-834.51 1134.6,-831.87 1138.5,-831 1138.5,-831 1138.5,-831 1134.6,-831.87 1137.72,-827.49 1130.69,-832.74 1130.69,-832.74"/>
<ellipse fill="none" stroke="black" cx="1127.57" cy="-833.44" rx="3.2" ry="3.2"/>
</g>
</g>
</svg>
