<?xml version="1.0" encoding="UTF-8" standalone="no"?>
<!DOCTYPE svg PUBLIC "-//W3C//DTD SVG 1.1//EN"
 "http://www.w3.org/Graphics/SVG/1.1/DTD/svg11.dtd">
<!-- Generated by graphviz version 2.43.0 (0)
 -->
<!-- Title: oneDegreeRelationshipsDiagram Pages: 1 -->
<svg width="369pt" height="1637pt"
 viewBox="0.00 0.00 369.00 1637.00" xmlns="http://www.w3.org/2000/svg" xmlns:xlink="http://www.w3.org/1999/xlink">
<g id="graph0" class="graph" transform="scale(1 1) rotate(0) translate(4 1633)">
<title>oneDegreeRelationshipsDiagram</title>
<polygon fill="#ffffff" stroke="transparent" points="-4,4 -4,-1633 365,-1633 365,4 -4,4"/>
<text text-anchor="middle" x="71.5" y="-7.2" font-family="Helvetica,sans-Serif" font-size="11.00">Generated by SchemaSpy</text>
<!-- pp_order_workflow_header_v -->
<g id="node1" class="node">
<title>pp_order_workflow_header_v</title>
<g id="a_node1"><a xlink:href="../../tables/pp_order_workflow_header_v.html" xlink:title="pp_order_workflow_header_v" target="_top">
<polygon fill="#ffffff" stroke="transparent" points="8,-37 8,-1625 353,-1625 353,-37 8,-37"/>
<polygon fill="#f5f5f5" stroke="transparent" points="10.5,-1601 10.5,-1623 351.5,-1623 351.5,-1601 10.5,-1601"/>
<polygon fill="none" stroke="black" points="10.5,-1601 10.5,-1623 351.5,-1623 351.5,-1601 10.5,-1601"/>
<text text-anchor="start" x="15.5" y="-1610.2" font-family="Helvetica,sans-Serif" font-weight="bold" font-size="11.00">pp_order_workflow_header_v</text>
<text text-anchor="start" x="318.5" y="-1609.2" font-family="Helvetica,sans-Serif" font-size="11.00">[view]</text>
<polygon fill="none" stroke="black" points="10.5,-1579 10.5,-1601 242.5,-1601 242.5,-1579 10.5,-1579"/>
<text text-anchor="start" x="30.5" y="-1587.2" font-family="Helvetica,sans-Serif" font-size="11.00">ad_client_id</text>
<polygon fill="none" stroke="black" points="242.5,-1579 242.5,-1601 351.5,-1601 351.5,-1579 242.5,-1579"/>
<text text-anchor="start" x="245.5" y="-1587.2" font-family="Helvetica,sans-Serif" font-size="11.00">numeric[10]</text>
<polygon fill="none" stroke="black" points="10.5,-1557 10.5,-1579 242.5,-1579 242.5,-1557 10.5,-1557"/>
<text text-anchor="start" x="30.5" y="-1565.2" font-family="Helvetica,sans-Serif" font-size="11.00">ad_org_id</text>
<polygon fill="none" stroke="black" points="242.5,-1557 242.5,-1579 351.5,-1579 351.5,-1557 242.5,-1557"/>
<text text-anchor="start" x="245.5" y="-1565.2" font-family="Helvetica,sans-Serif" font-size="11.00">numeric[10]</text>
<polygon fill="none" stroke="black" points="10.5,-1535 10.5,-1557 242.5,-1557 242.5,-1535 10.5,-1535"/>
<text text-anchor="start" x="30.5" y="-1543.2" font-family="Helvetica,sans-Serif" font-size="11.00">isactive</text>
<polygon fill="none" stroke="black" points="242.5,-1535 242.5,-1557 351.5,-1557 351.5,-1535 242.5,-1535"/>
<text text-anchor="start" x="245.5" y="-1543.2" font-family="Helvetica,sans-Serif" font-size="11.00">bpchar[1]</text>
<polygon fill="none" stroke="black" points="10.5,-1513 10.5,-1535 242.5,-1535 242.5,-1513 10.5,-1513"/>
<text text-anchor="start" x="30.5" y="-1521.2" font-family="Helvetica,sans-Serif" font-size="11.00">created</text>
<polygon fill="none" stroke="black" points="242.5,-1513 242.5,-1535 351.5,-1535 351.5,-1513 242.5,-1513"/>
<text text-anchor="start" x="245.5" y="-1521.2" font-family="Helvetica,sans-Serif" font-size="11.00">timestamp[29,6]</text>
<polygon fill="none" stroke="black" points="10.5,-1491 10.5,-1513 242.5,-1513 242.5,-1491 10.5,-1491"/>
<text text-anchor="start" x="30.5" y="-1499.2" font-family="Helvetica,sans-Serif" font-size="11.00">createdby</text>
<polygon fill="none" stroke="black" points="242.5,-1491 242.5,-1513 351.5,-1513 351.5,-1491 242.5,-1491"/>
<text text-anchor="start" x="245.5" y="-1499.2" font-family="Helvetica,sans-Serif" font-size="11.00">numeric[10]</text>
<polygon fill="none" stroke="black" points="10.5,-1469 10.5,-1491 242.5,-1491 242.5,-1469 10.5,-1469"/>
<text text-anchor="start" x="30.5" y="-1477.2" font-family="Helvetica,sans-Serif" font-size="11.00">updated</text>
<polygon fill="none" stroke="black" points="242.5,-1469 242.5,-1491 351.5,-1491 351.5,-1469 242.5,-1469"/>
<text text-anchor="start" x="245.5" y="-1477.2" font-family="Helvetica,sans-Serif" font-size="11.00">timestamp[29,6]</text>
<polygon fill="none" stroke="black" points="10.5,-1447 10.5,-1469 242.5,-1469 242.5,-1447 10.5,-1447"/>
<text text-anchor="start" x="30.5" y="-1455.2" font-family="Helvetica,sans-Serif" font-size="11.00">updatedby</text>
<polygon fill="none" stroke="black" points="242.5,-1447 242.5,-1469 351.5,-1469 351.5,-1447 242.5,-1447"/>
<text text-anchor="start" x="245.5" y="-1455.2" font-family="Helvetica,sans-Serif" font-size="11.00">numeric[10]</text>
<polygon fill="none" stroke="black" points="10.5,-1425 10.5,-1447 242.5,-1447 242.5,-1425 10.5,-1425"/>
<text text-anchor="start" x="30.5" y="-1433.2" font-family="Helvetica,sans-Serif" font-size="11.00">ad_language</text>
<polygon fill="none" stroke="black" points="242.5,-1425 242.5,-1447 351.5,-1447 351.5,-1425 242.5,-1425"/>
<text text-anchor="start" x="245.5" y="-1433.2" font-family="Helvetica,sans-Serif" font-size="11.00">varchar[2147483647]</text>
<polygon fill="none" stroke="black" points="10.5,-1403 10.5,-1425 242.5,-1425 242.5,-1403 10.5,-1403"/>
<text text-anchor="start" x="30.5" y="-1411.2" font-family="Helvetica,sans-Serif" font-size="11.00">pp_order_id</text>
<polygon fill="none" stroke="black" points="242.5,-1403 242.5,-1425 351.5,-1425 351.5,-1403 242.5,-1403"/>
<text text-anchor="start" x="245.5" y="-1411.2" font-family="Helvetica,sans-Serif" font-size="11.00">numeric[10]</text>
<polygon fill="none" stroke="black" points="10.5,-1381 10.5,-1403 242.5,-1403 242.5,-1381 10.5,-1381"/>
<text text-anchor="start" x="30.5" y="-1389.2" font-family="Helvetica,sans-Serif" font-size="11.00">docstatus</text>
<polygon fill="none" stroke="black" points="242.5,-1381 242.5,-1403 351.5,-1403 351.5,-1381 242.5,-1381"/>
<text text-anchor="start" x="245.5" y="-1389.2" font-family="Helvetica,sans-Serif" font-size="11.00">bpchar[2]</text>
<polygon fill="none" stroke="black" points="10.5,-1359 10.5,-1381 242.5,-1381 242.5,-1359 10.5,-1359"/>
<text text-anchor="start" x="30.5" y="-1367.2" font-family="Helvetica,sans-Serif" font-size="11.00">c_doctype_id</text>
<polygon fill="none" stroke="black" points="242.5,-1359 242.5,-1381 351.5,-1381 351.5,-1359 242.5,-1359"/>
<text text-anchor="start" x="245.5" y="-1367.2" font-family="Helvetica,sans-Serif" font-size="11.00">numeric[10]</text>
<polygon fill="none" stroke="black" points="10.5,-1337 10.5,-1359 242.5,-1359 242.5,-1337 10.5,-1337"/>
<text text-anchor="start" x="30.5" y="-1345.2" font-family="Helvetica,sans-Serif" font-size="11.00">org_location_id</text>
<polygon fill="none" stroke="black" points="242.5,-1337 242.5,-1359 351.5,-1359 351.5,-1337 242.5,-1337"/>
<text text-anchor="start" x="245.5" y="-1345.2" font-family="Helvetica,sans-Serif" font-size="11.00">numeric[10]</text>
<polygon fill="none" stroke="black" points="10.5,-1315 10.5,-1337 242.5,-1337 242.5,-1315 10.5,-1315"/>
<text text-anchor="start" x="30.5" y="-1323.2" font-family="Helvetica,sans-Serif" font-size="11.00">taxid</text>
<polygon fill="none" stroke="black" points="242.5,-1315 242.5,-1337 351.5,-1337 351.5,-1315 242.5,-1315"/>
<text text-anchor="start" x="245.5" y="-1323.2" font-family="Helvetica,sans-Serif" font-size="11.00">varchar[20]</text>
<polygon fill="none" stroke="black" points="10.5,-1293 10.5,-1315 242.5,-1315 242.5,-1293 10.5,-1293"/>
<text text-anchor="start" x="30.5" y="-1301.2" font-family="Helvetica,sans-Serif" font-size="11.00">m_warehouse_id</text>
<polygon fill="none" stroke="black" points="242.5,-1293 242.5,-1315 351.5,-1315 351.5,-1293 242.5,-1293"/>
<text text-anchor="start" x="245.5" y="-1301.2" font-family="Helvetica,sans-Serif" font-size="11.00">numeric[10]</text>
<polygon fill="none" stroke="black" points="10.5,-1271 10.5,-1293 242.5,-1293 242.5,-1271 10.5,-1271"/>
<text text-anchor="start" x="30.5" y="-1279.2" font-family="Helvetica,sans-Serif" font-size="11.00">warehouse_location_id</text>
<polygon fill="none" stroke="black" points="242.5,-1271 242.5,-1293 351.5,-1293 351.5,-1271 242.5,-1271"/>
<text text-anchor="start" x="245.5" y="-1279.2" font-family="Helvetica,sans-Serif" font-size="11.00">numeric[10]</text>
<polygon fill="none" stroke="black" points="10.5,-1249 10.5,-1271 242.5,-1271 242.5,-1249 10.5,-1249"/>
<text text-anchor="start" x="30.5" y="-1257.2" font-family="Helvetica,sans-Serif" font-size="11.00">documenttype</text>
<polygon fill="none" stroke="black" points="242.5,-1249 242.5,-1271 351.5,-1271 351.5,-1249 242.5,-1249"/>
<text text-anchor="start" x="245.5" y="-1257.2" font-family="Helvetica,sans-Serif" font-size="11.00">varchar[60]</text>
<polygon fill="none" stroke="black" points="10.5,-1227 10.5,-1249 242.5,-1249 242.5,-1227 10.5,-1227"/>
<text text-anchor="start" x="30.5" y="-1235.2" font-family="Helvetica,sans-Serif" font-size="11.00">documenttypenote</text>
<polygon fill="none" stroke="black" points="242.5,-1227 242.5,-1249 351.5,-1249 351.5,-1227 242.5,-1227"/>
<text text-anchor="start" x="245.5" y="-1235.2" font-family="Helvetica,sans-Serif" font-size="11.00">varchar[2000]</text>
<polygon fill="none" stroke="black" points="10.5,-1205 10.5,-1227 242.5,-1227 242.5,-1205 10.5,-1205"/>
<text text-anchor="start" x="30.5" y="-1213.2" font-family="Helvetica,sans-Serif" font-size="11.00">planner_id</text>
<polygon fill="none" stroke="black" points="242.5,-1205 242.5,-1227 351.5,-1227 351.5,-1205 242.5,-1205"/>
<text text-anchor="start" x="245.5" y="-1213.2" font-family="Helvetica,sans-Serif" font-size="11.00">numeric[10]</text>
<polygon fill="none" stroke="black" points="10.5,-1183 10.5,-1205 242.5,-1205 242.5,-1183 10.5,-1183"/>
<text text-anchor="start" x="30.5" y="-1191.2" font-family="Helvetica,sans-Serif" font-size="11.00">salesrep_name</text>
<polygon fill="none" stroke="black" points="242.5,-1183 242.5,-1205 351.5,-1205 351.5,-1183 242.5,-1183"/>
<text text-anchor="start" x="245.5" y="-1191.2" font-family="Helvetica,sans-Serif" font-size="11.00">varchar[60]</text>
<polygon fill="none" stroke="black" points="10.5,-1161 10.5,-1183 242.5,-1183 242.5,-1161 10.5,-1161"/>
<text text-anchor="start" x="30.5" y="-1169.2" font-family="Helvetica,sans-Serif" font-size="11.00">datestart</text>
<polygon fill="none" stroke="black" points="242.5,-1161 242.5,-1183 351.5,-1183 351.5,-1161 242.5,-1161"/>
<text text-anchor="start" x="245.5" y="-1169.2" font-family="Helvetica,sans-Serif" font-size="11.00">timestamp[29,6]</text>
<polygon fill="none" stroke="black" points="10.5,-1139 10.5,-1161 242.5,-1161 242.5,-1139 10.5,-1139"/>
<text text-anchor="start" x="30.5" y="-1147.2" font-family="Helvetica,sans-Serif" font-size="11.00">datestartschedule</text>
<polygon fill="none" stroke="black" points="242.5,-1139 242.5,-1161 351.5,-1161 351.5,-1139 242.5,-1139"/>
<text text-anchor="start" x="245.5" y="-1147.2" font-family="Helvetica,sans-Serif" font-size="11.00">timestamp[29,6]</text>
<polygon fill="none" stroke="black" points="10.5,-1117 10.5,-1139 242.5,-1139 242.5,-1117 10.5,-1117"/>
<text text-anchor="start" x="30.5" y="-1125.2" font-family="Helvetica,sans-Serif" font-size="11.00">floatafter</text>
<polygon fill="none" stroke="black" points="242.5,-1117 242.5,-1139 351.5,-1139 351.5,-1117 242.5,-1117"/>
<text text-anchor="start" x="245.5" y="-1125.2" font-family="Helvetica,sans-Serif" font-size="11.00">numeric[0]</text>
<polygon fill="none" stroke="black" points="10.5,-1095 10.5,-1117 242.5,-1117 242.5,-1095 10.5,-1095"/>
<text text-anchor="start" x="30.5" y="-1103.2" font-family="Helvetica,sans-Serif" font-size="11.00">floatbefored</text>
<polygon fill="none" stroke="black" points="242.5,-1095 242.5,-1117 351.5,-1117 351.5,-1095 242.5,-1095"/>
<text text-anchor="start" x="245.5" y="-1103.2" font-family="Helvetica,sans-Serif" font-size="11.00">numeric[0]</text>
<polygon fill="none" stroke="black" points="10.5,-1073 10.5,-1095 242.5,-1095 242.5,-1073 10.5,-1073"/>
<text text-anchor="start" x="30.5" y="-1081.2" font-family="Helvetica,sans-Serif" font-size="11.00">line</text>
<polygon fill="none" stroke="black" points="242.5,-1073 242.5,-1095 351.5,-1095 351.5,-1073 242.5,-1073"/>
<text text-anchor="start" x="245.5" y="-1081.2" font-family="Helvetica,sans-Serif" font-size="11.00">numeric[10]</text>
<polygon fill="none" stroke="black" points="10.5,-1051 10.5,-1073 242.5,-1073 242.5,-1051 10.5,-1051"/>
<text text-anchor="start" x="30.5" y="-1059.2" font-family="Helvetica,sans-Serif" font-size="11.00">lot</text>
<polygon fill="none" stroke="black" points="242.5,-1051 242.5,-1073 351.5,-1073 351.5,-1051 242.5,-1051"/>
<text text-anchor="start" x="245.5" y="-1059.2" font-family="Helvetica,sans-Serif" font-size="11.00">varchar[20]</text>
<polygon fill="none" stroke="black" points="10.5,-1029 10.5,-1051 242.5,-1051 242.5,-1029 10.5,-1029"/>
<text text-anchor="start" x="30.5" y="-1037.2" font-family="Helvetica,sans-Serif" font-size="11.00">serno</text>
<polygon fill="none" stroke="black" points="242.5,-1029 242.5,-1051 351.5,-1051 351.5,-1029 242.5,-1029"/>
<text text-anchor="start" x="245.5" y="-1037.2" font-family="Helvetica,sans-Serif" font-size="11.00">varchar[20]</text>
<polygon fill="none" stroke="black" points="10.5,-1007 10.5,-1029 242.5,-1029 242.5,-1007 10.5,-1007"/>
<text text-anchor="start" x="30.5" y="-1015.2" font-family="Helvetica,sans-Serif" font-size="11.00">c_uom_id</text>
<polygon fill="none" stroke="black" points="242.5,-1007 242.5,-1029 351.5,-1029 351.5,-1007 242.5,-1007"/>
<text text-anchor="start" x="245.5" y="-1015.2" font-family="Helvetica,sans-Serif" font-size="11.00">numeric[10]</text>
<polygon fill="none" stroke="black" points="10.5,-985 10.5,-1007 242.5,-1007 242.5,-985 10.5,-985"/>
<text text-anchor="start" x="30.5" y="-993.2" font-family="Helvetica,sans-Serif" font-size="11.00">s_resource_id</text>
<polygon fill="none" stroke="black" points="242.5,-985 242.5,-1007 351.5,-1007 351.5,-985 242.5,-985"/>
<text text-anchor="start" x="245.5" y="-993.2" font-family="Helvetica,sans-Serif" font-size="11.00">numeric[10]</text>
<polygon fill="none" stroke="black" points="10.5,-963 10.5,-985 242.5,-985 242.5,-963 10.5,-963"/>
<text text-anchor="start" x="30.5" y="-971.2" font-family="Helvetica,sans-Serif" font-size="11.00">pp_product_bom_id</text>
<polygon fill="none" stroke="black" points="242.5,-963 242.5,-985 351.5,-985 351.5,-963 242.5,-963"/>
<text text-anchor="start" x="245.5" y="-971.2" font-family="Helvetica,sans-Serif" font-size="11.00">numeric[10]</text>
<polygon fill="none" stroke="black" points="10.5,-941 10.5,-963 242.5,-963 242.5,-941 10.5,-941"/>
<text text-anchor="start" x="30.5" y="-949.2" font-family="Helvetica,sans-Serif" font-size="11.00">ad_workflow_id</text>
<polygon fill="none" stroke="black" points="242.5,-941 242.5,-963 351.5,-963 351.5,-941 242.5,-941"/>
<text text-anchor="start" x="245.5" y="-949.2" font-family="Helvetica,sans-Serif" font-size="11.00">numeric[10]</text>
<polygon fill="none" stroke="black" points="10.5,-919 10.5,-941 242.5,-941 242.5,-919 10.5,-919"/>
<text text-anchor="start" x="30.5" y="-927.2" font-family="Helvetica,sans-Serif" font-size="11.00">assay</text>
<polygon fill="none" stroke="black" points="242.5,-919 242.5,-941 351.5,-941 351.5,-919 242.5,-919"/>
<text text-anchor="start" x="245.5" y="-927.2" font-family="Helvetica,sans-Serif" font-size="11.00">numeric[0]</text>
<polygon fill="none" stroke="black" points="10.5,-897 10.5,-919 242.5,-919 242.5,-897 10.5,-897"/>
<text text-anchor="start" x="30.5" y="-905.2" font-family="Helvetica,sans-Serif" font-size="11.00">c_orderline_id</text>
<polygon fill="none" stroke="black" points="242.5,-897 242.5,-919 351.5,-919 351.5,-897 242.5,-897"/>
<text text-anchor="start" x="245.5" y="-905.2" font-family="Helvetica,sans-Serif" font-size="11.00">numeric[10]</text>
<polygon fill="none" stroke="black" points="10.5,-875 10.5,-897 242.5,-897 242.5,-875 10.5,-875"/>
<text text-anchor="start" x="30.5" y="-883.2" font-family="Helvetica,sans-Serif" font-size="11.00">priorityrule</text>
<polygon fill="none" stroke="black" points="242.5,-875 242.5,-897 351.5,-897 351.5,-875 242.5,-875"/>
<text text-anchor="start" x="245.5" y="-883.2" font-family="Helvetica,sans-Serif" font-size="11.00">bpchar[1]</text>
<polygon fill="none" stroke="black" points="10.5,-853 10.5,-875 242.5,-875 242.5,-853 10.5,-853"/>
<text text-anchor="start" x="30.5" y="-861.2" font-family="Helvetica,sans-Serif" font-size="11.00">qtybatchs</text>
<polygon fill="none" stroke="black" points="242.5,-853 242.5,-875 351.5,-875 351.5,-853 242.5,-853"/>
<text text-anchor="start" x="245.5" y="-861.2" font-family="Helvetica,sans-Serif" font-size="11.00">numeric[0]</text>
<polygon fill="none" stroke="black" points="10.5,-831 10.5,-853 242.5,-853 242.5,-831 10.5,-831"/>
<text text-anchor="start" x="30.5" y="-839.2" font-family="Helvetica,sans-Serif" font-size="11.00">qtydelivered</text>
<polygon fill="none" stroke="black" points="242.5,-831 242.5,-853 351.5,-853 351.5,-831 242.5,-831"/>
<text text-anchor="start" x="245.5" y="-839.2" font-family="Helvetica,sans-Serif" font-size="11.00">numeric[0]</text>
<polygon fill="none" stroke="black" points="10.5,-809 10.5,-831 242.5,-831 242.5,-809 10.5,-809"/>
<text text-anchor="start" x="30.5" y="-817.2" font-family="Helvetica,sans-Serif" font-size="11.00">qtyentered</text>
<polygon fill="none" stroke="black" points="242.5,-809 242.5,-831 351.5,-831 351.5,-809 242.5,-809"/>
<text text-anchor="start" x="245.5" y="-817.2" font-family="Helvetica,sans-Serif" font-size="11.00">numeric[0]</text>
<polygon fill="none" stroke="black" points="10.5,-787 10.5,-809 242.5,-809 242.5,-787 10.5,-787"/>
<text text-anchor="start" x="30.5" y="-795.2" font-family="Helvetica,sans-Serif" font-size="11.00">qtyordered</text>
<polygon fill="none" stroke="black" points="242.5,-787 242.5,-809 351.5,-809 351.5,-787 242.5,-787"/>
<text text-anchor="start" x="245.5" y="-795.2" font-family="Helvetica,sans-Serif" font-size="11.00">numeric[0]</text>
<polygon fill="none" stroke="black" points="10.5,-765 10.5,-787 242.5,-787 242.5,-765 10.5,-765"/>
<text text-anchor="start" x="30.5" y="-773.2" font-family="Helvetica,sans-Serif" font-size="11.00">dateconfirm</text>
<polygon fill="none" stroke="black" points="242.5,-765 242.5,-787 351.5,-787 351.5,-765 242.5,-765"/>
<text text-anchor="start" x="245.5" y="-773.2" font-family="Helvetica,sans-Serif" font-size="11.00">timestamp[29,6]</text>
<polygon fill="none" stroke="black" points="10.5,-743 10.5,-765 242.5,-765 242.5,-743 10.5,-743"/>
<text text-anchor="start" x="30.5" y="-751.2" font-family="Helvetica,sans-Serif" font-size="11.00">datedelivered</text>
<polygon fill="none" stroke="black" points="242.5,-743 242.5,-765 351.5,-765 351.5,-743 242.5,-743"/>
<text text-anchor="start" x="245.5" y="-751.2" font-family="Helvetica,sans-Serif" font-size="11.00">timestamp[29,6]</text>
<polygon fill="none" stroke="black" points="10.5,-721 10.5,-743 242.5,-743 242.5,-721 10.5,-721"/>
<text text-anchor="start" x="30.5" y="-729.2" font-family="Helvetica,sans-Serif" font-size="11.00">datefinish</text>
<polygon fill="none" stroke="black" points="242.5,-721 242.5,-743 351.5,-743 351.5,-721 242.5,-721"/>
<text text-anchor="start" x="245.5" y="-729.2" font-family="Helvetica,sans-Serif" font-size="11.00">timestamp[29,6]</text>
<polygon fill="none" stroke="black" points="10.5,-699 10.5,-721 242.5,-721 242.5,-699 10.5,-699"/>
<text text-anchor="start" x="30.5" y="-707.2" font-family="Helvetica,sans-Serif" font-size="11.00">datefinishschedule</text>
<polygon fill="none" stroke="black" points="242.5,-699 242.5,-721 351.5,-721 351.5,-699 242.5,-699"/>
<text text-anchor="start" x="245.5" y="-707.2" font-family="Helvetica,sans-Serif" font-size="11.00">timestamp[29,6]</text>
<polygon fill="none" stroke="black" points="10.5,-677 10.5,-699 242.5,-699 242.5,-677 10.5,-677"/>
<text text-anchor="start" x="30.5" y="-685.2" font-family="Helvetica,sans-Serif" font-size="11.00">dateordered</text>
<polygon fill="none" stroke="black" points="242.5,-677 242.5,-699 351.5,-699 351.5,-677 242.5,-677"/>
<text text-anchor="start" x="245.5" y="-685.2" font-family="Helvetica,sans-Serif" font-size="11.00">timestamp[29,6]</text>
<polygon fill="none" stroke="black" points="10.5,-655 10.5,-677 242.5,-677 242.5,-655 10.5,-655"/>
<text text-anchor="start" x="30.5" y="-663.2" font-family="Helvetica,sans-Serif" font-size="11.00">datepromised</text>
<polygon fill="none" stroke="black" points="242.5,-655 242.5,-677 351.5,-677 351.5,-655 242.5,-655"/>
<text text-anchor="start" x="245.5" y="-663.2" font-family="Helvetica,sans-Serif" font-size="11.00">timestamp[29,6]</text>
<polygon fill="none" stroke="black" points="10.5,-633 10.5,-655 242.5,-655 242.5,-633 10.5,-633"/>
<text text-anchor="start" x="30.5" y="-641.2" font-family="Helvetica,sans-Serif" font-size="11.00">qtyreject</text>
<polygon fill="none" stroke="black" points="242.5,-633 242.5,-655 351.5,-655 351.5,-633 242.5,-633"/>
<text text-anchor="start" x="245.5" y="-641.2" font-family="Helvetica,sans-Serif" font-size="11.00">numeric[0]</text>
<polygon fill="none" stroke="black" points="10.5,-611 10.5,-633 242.5,-633 242.5,-611 10.5,-611"/>
<text text-anchor="start" x="30.5" y="-619.2" font-family="Helvetica,sans-Serif" font-size="11.00">qtyreserved</text>
<polygon fill="none" stroke="black" points="242.5,-611 242.5,-633 351.5,-633 351.5,-611 242.5,-611"/>
<text text-anchor="start" x="245.5" y="-619.2" font-family="Helvetica,sans-Serif" font-size="11.00">numeric[0]</text>
<polygon fill="none" stroke="black" points="10.5,-589 10.5,-611 242.5,-611 242.5,-589 10.5,-589"/>
<text text-anchor="start" x="30.5" y="-597.2" font-family="Helvetica,sans-Serif" font-size="11.00">qtyscrap</text>
<polygon fill="none" stroke="black" points="242.5,-589 242.5,-611 351.5,-611 351.5,-589 242.5,-589"/>
<text text-anchor="start" x="245.5" y="-597.2" font-family="Helvetica,sans-Serif" font-size="11.00">numeric[0]</text>
<polygon fill="none" stroke="black" points="10.5,-567 10.5,-589 242.5,-589 242.5,-567 10.5,-567"/>
<text text-anchor="start" x="30.5" y="-575.2" font-family="Helvetica,sans-Serif" font-size="11.00">c_campaign_id</text>
<polygon fill="none" stroke="black" points="242.5,-567 242.5,-589 351.5,-589 351.5,-567 242.5,-567"/>
<text text-anchor="start" x="245.5" y="-575.2" font-family="Helvetica,sans-Serif" font-size="11.00">numeric[10]</text>
<polygon fill="none" stroke="black" points="10.5,-545 10.5,-567 242.5,-567 242.5,-545 10.5,-545"/>
<text text-anchor="start" x="30.5" y="-553.2" font-family="Helvetica,sans-Serif" font-size="11.00">c_project_id</text>
<polygon fill="none" stroke="black" points="242.5,-545 242.5,-567 351.5,-567 351.5,-545 242.5,-545"/>
<text text-anchor="start" x="245.5" y="-553.2" font-family="Helvetica,sans-Serif" font-size="11.00">numeric[10]</text>
<polygon fill="none" stroke="black" points="10.5,-523 10.5,-545 242.5,-545 242.5,-523 10.5,-523"/>
<text text-anchor="start" x="30.5" y="-531.2" font-family="Helvetica,sans-Serif" font-size="11.00">c_activity_id</text>
<polygon fill="none" stroke="black" points="242.5,-523 242.5,-545 351.5,-545 351.5,-523 242.5,-523"/>
<text text-anchor="start" x="245.5" y="-531.2" font-family="Helvetica,sans-Serif" font-size="11.00">numeric[10]</text>
<polygon fill="none" stroke="black" points="10.5,-501 10.5,-523 242.5,-523 242.5,-501 10.5,-501"/>
<text text-anchor="start" x="30.5" y="-509.2" font-family="Helvetica,sans-Serif" font-size="11.00">name</text>
<polygon fill="none" stroke="black" points="242.5,-501 242.5,-523 351.5,-523 351.5,-501 242.5,-501"/>
<text text-anchor="start" x="245.5" y="-509.2" font-family="Helvetica,sans-Serif" font-size="11.00">varchar[60]</text>
<polygon fill="none" stroke="black" points="10.5,-479 10.5,-501 242.5,-501 242.5,-479 10.5,-479"/>
<text text-anchor="start" x="30.5" y="-487.2" font-family="Helvetica,sans-Serif" font-size="11.00">description</text>
<polygon fill="none" stroke="black" points="242.5,-479 242.5,-501 351.5,-501 351.5,-479 242.5,-479"/>
<text text-anchor="start" x="245.5" y="-487.2" font-family="Helvetica,sans-Serif" font-size="11.00">varchar[255]</text>
<polygon fill="none" stroke="black" points="10.5,-457 10.5,-479 242.5,-479 242.5,-457 10.5,-457"/>
<text text-anchor="start" x="30.5" y="-465.2" font-family="Helvetica,sans-Serif" font-size="11.00">help</text>
<polygon fill="none" stroke="black" points="242.5,-457 242.5,-479 351.5,-479 351.5,-457 242.5,-457"/>
<text text-anchor="start" x="245.5" y="-465.2" font-family="Helvetica,sans-Serif" font-size="11.00">varchar[2000]</text>
<polygon fill="none" stroke="black" points="10.5,-435 10.5,-457 242.5,-457 242.5,-435 10.5,-435"/>
<text text-anchor="start" x="30.5" y="-443.2" font-family="Helvetica,sans-Serif" font-size="11.00">author</text>
<polygon fill="none" stroke="black" points="242.5,-435 242.5,-457 351.5,-457 351.5,-435 242.5,-435"/>
<text text-anchor="start" x="245.5" y="-443.2" font-family="Helvetica,sans-Serif" font-size="11.00">varchar[20]</text>
<polygon fill="none" stroke="black" points="10.5,-413 10.5,-435 242.5,-435 242.5,-413 10.5,-413"/>
<text text-anchor="start" x="30.5" y="-421.2" font-family="Helvetica,sans-Serif" font-size="11.00">cost</text>
<polygon fill="none" stroke="black" points="242.5,-413 242.5,-435 351.5,-435 351.5,-413 242.5,-413"/>
<text text-anchor="start" x="245.5" y="-421.2" font-family="Helvetica,sans-Serif" font-size="11.00">numeric[0]</text>
<polygon fill="none" stroke="black" points="10.5,-391 10.5,-413 242.5,-413 242.5,-391 10.5,-391"/>
<text text-anchor="start" x="30.5" y="-399.2" font-family="Helvetica,sans-Serif" font-size="11.00">documentno</text>
<polygon fill="none" stroke="black" points="242.5,-391 242.5,-413 351.5,-413 351.5,-391 242.5,-391"/>
<text text-anchor="start" x="245.5" y="-399.2" font-family="Helvetica,sans-Serif" font-size="11.00">varchar[32]</text>
<polygon fill="none" stroke="black" points="10.5,-369 10.5,-391 242.5,-391 242.5,-369 10.5,-369"/>
<text text-anchor="start" x="30.5" y="-377.2" font-family="Helvetica,sans-Serif" font-size="11.00">duration</text>
<polygon fill="none" stroke="black" points="242.5,-369 242.5,-391 351.5,-391 351.5,-369 242.5,-369"/>
<text text-anchor="start" x="245.5" y="-377.2" font-family="Helvetica,sans-Serif" font-size="11.00">numeric[10]</text>
<polygon fill="none" stroke="black" points="10.5,-347 10.5,-369 242.5,-369 242.5,-347 10.5,-347"/>
<text text-anchor="start" x="30.5" y="-355.2" font-family="Helvetica,sans-Serif" font-size="11.00">durationunit</text>
<polygon fill="none" stroke="black" points="242.5,-347 242.5,-369 351.5,-369 351.5,-347 242.5,-347"/>
<text text-anchor="start" x="245.5" y="-355.2" font-family="Helvetica,sans-Serif" font-size="11.00">bpchar[1]</text>
<polygon fill="none" stroke="black" points="10.5,-325 10.5,-347 242.5,-347 242.5,-325 10.5,-325"/>
<text text-anchor="start" x="30.5" y="-333.2" font-family="Helvetica,sans-Serif" font-size="11.00">version</text>
<polygon fill="none" stroke="black" points="242.5,-325 242.5,-347 351.5,-347 351.5,-325 242.5,-325"/>
<text text-anchor="start" x="245.5" y="-333.2" font-family="Helvetica,sans-Serif" font-size="11.00">numeric[10]</text>
<polygon fill="none" stroke="black" points="10.5,-303 10.5,-325 242.5,-325 242.5,-303 10.5,-303"/>
<text text-anchor="start" x="30.5" y="-311.2" font-family="Helvetica,sans-Serif" font-size="11.00">validfrom</text>
<polygon fill="none" stroke="black" points="242.5,-303 242.5,-325 351.5,-325 351.5,-303 242.5,-303"/>
<text text-anchor="start" x="245.5" y="-311.2" font-family="Helvetica,sans-Serif" font-size="11.00">timestamp[29,6]</text>
<polygon fill="none" stroke="black" points="10.5,-281 10.5,-303 242.5,-303 242.5,-281 10.5,-281"/>
<text text-anchor="start" x="30.5" y="-289.2" font-family="Helvetica,sans-Serif" font-size="11.00">validto</text>
<polygon fill="none" stroke="black" points="242.5,-281 242.5,-303 351.5,-303 351.5,-281 242.5,-281"/>
<text text-anchor="start" x="245.5" y="-289.2" font-family="Helvetica,sans-Serif" font-size="11.00">timestamp[29,6]</text>
<polygon fill="none" stroke="black" points="10.5,-259 10.5,-281 242.5,-281 242.5,-259 10.5,-259"/>
<text text-anchor="start" x="30.5" y="-267.2" font-family="Helvetica,sans-Serif" font-size="11.00">movingtime</text>
<polygon fill="none" stroke="black" points="242.5,-259 242.5,-281 351.5,-281 351.5,-259 242.5,-259"/>
<text text-anchor="start" x="245.5" y="-267.2" font-family="Helvetica,sans-Serif" font-size="11.00">numeric[10]</text>
<polygon fill="none" stroke="black" points="10.5,-237 10.5,-259 242.5,-259 242.5,-237 10.5,-237"/>
<text text-anchor="start" x="30.5" y="-245.2" font-family="Helvetica,sans-Serif" font-size="11.00">overlapunits</text>
<polygon fill="none" stroke="black" points="242.5,-237 242.5,-259 351.5,-259 351.5,-237 242.5,-237"/>
<text text-anchor="start" x="245.5" y="-245.2" font-family="Helvetica,sans-Serif" font-size="11.00">numeric[0]</text>
<polygon fill="none" stroke="black" points="10.5,-215 10.5,-237 242.5,-237 242.5,-215 10.5,-215"/>
<text text-anchor="start" x="30.5" y="-223.2" font-family="Helvetica,sans-Serif" font-size="11.00">publishstatus</text>
<polygon fill="none" stroke="black" points="242.5,-215 242.5,-237 351.5,-237 351.5,-215 242.5,-215"/>
<text text-anchor="start" x="245.5" y="-223.2" font-family="Helvetica,sans-Serif" font-size="11.00">bpchar[1]</text>
<polygon fill="none" stroke="black" points="10.5,-193 10.5,-215 242.5,-215 242.5,-193 10.5,-193"/>
<text text-anchor="start" x="30.5" y="-201.2" font-family="Helvetica,sans-Serif" font-size="11.00">queuingtime</text>
<polygon fill="none" stroke="black" points="242.5,-193 242.5,-215 351.5,-215 351.5,-193 242.5,-193"/>
<text text-anchor="start" x="245.5" y="-201.2" font-family="Helvetica,sans-Serif" font-size="11.00">numeric[10]</text>
<polygon fill="none" stroke="black" points="10.5,-171 10.5,-193 242.5,-193 242.5,-171 10.5,-171"/>
<text text-anchor="start" x="30.5" y="-179.2" font-family="Helvetica,sans-Serif" font-size="11.00">setuptime</text>
<polygon fill="none" stroke="black" points="242.5,-171 242.5,-193 351.5,-193 351.5,-171 242.5,-171"/>
<text text-anchor="start" x="245.5" y="-179.2" font-family="Helvetica,sans-Serif" font-size="11.00">numeric[10]</text>
<polygon fill="none" stroke="black" points="10.5,-149 10.5,-171 242.5,-171 242.5,-149 10.5,-149"/>
<text text-anchor="start" x="30.5" y="-157.2" font-family="Helvetica,sans-Serif" font-size="11.00">unitscycles</text>
<polygon fill="none" stroke="black" points="242.5,-149 242.5,-171 351.5,-171 351.5,-149 242.5,-149"/>
<text text-anchor="start" x="245.5" y="-157.2" font-family="Helvetica,sans-Serif" font-size="11.00">numeric[0]</text>
<polygon fill="none" stroke="black" points="10.5,-127 10.5,-149 242.5,-149 242.5,-127 10.5,-127"/>
<text text-anchor="start" x="30.5" y="-135.2" font-family="Helvetica,sans-Serif" font-size="11.00">waitingtime</text>
<polygon fill="none" stroke="black" points="242.5,-127 242.5,-149 351.5,-149 351.5,-127 242.5,-127"/>
<text text-anchor="start" x="245.5" y="-135.2" font-family="Helvetica,sans-Serif" font-size="11.00">numeric[10]</text>
<polygon fill="none" stroke="black" points="10.5,-105 10.5,-127 242.5,-127 242.5,-105 10.5,-105"/>
<text text-anchor="start" x="30.5" y="-113.2" font-family="Helvetica,sans-Serif" font-size="11.00">workflowtype</text>
<polygon fill="none" stroke="black" points="242.5,-105 242.5,-127 351.5,-127 351.5,-105 242.5,-105"/>
<text text-anchor="start" x="245.5" y="-113.2" font-family="Helvetica,sans-Serif" font-size="11.00">bpchar[1]</text>
<polygon fill="none" stroke="black" points="10.5,-83 10.5,-105 242.5,-105 242.5,-83 10.5,-83"/>
<text text-anchor="start" x="30.5" y="-91.2" font-family="Helvetica,sans-Serif" font-size="11.00">workingtime</text>
<polygon fill="none" stroke="black" points="242.5,-83 242.5,-105 351.5,-105 351.5,-83 242.5,-83"/>
<text text-anchor="start" x="245.5" y="-91.2" font-family="Helvetica,sans-Serif" font-size="11.00">numeric[10]</text>
<polygon fill="none" stroke="black" points="10.5,-61 10.5,-83 242.5,-83 242.5,-61 10.5,-61"/>
<text text-anchor="start" x="30.5" y="-69.2" font-family="Helvetica,sans-Serif" font-size="11.00">yield</text>
<polygon fill="none" stroke="black" points="242.5,-61 242.5,-83 351.5,-83 351.5,-61 242.5,-61"/>
<text text-anchor="start" x="245.5" y="-69.2" font-family="Helvetica,sans-Serif" font-size="11.00">numeric[10]</text>
<polygon fill="none" stroke="black" points="10.5,-39 10.5,-61 242.5,-61 242.5,-39 10.5,-39"/>
<text text-anchor="start" x="30.5" y="-47.2" font-family="Helvetica,sans-Serif" font-size="11.00">logo_id</text>
<polygon fill="none" stroke="black" points="242.5,-39 242.5,-61 351.5,-61 351.5,-39 242.5,-39"/>
<text text-anchor="start" x="245.5" y="-47.2" font-family="Helvetica,sans-Serif" font-size="11.00">numeric[10]</text>
<polygon fill="none" stroke="black" stroke-width="2" points="9,-38 9,-1624 352,-1624 352,-38 9,-38"/>
</a>
</g>
</g>
</g>
</svg>
