<?xml version="1.0" encoding="UTF-8" standalone="no"?>
<!DOCTYPE svg PUBLIC "-//W3C//DTD SVG 1.1//EN"
 "http://www.w3.org/Graphics/SVG/1.1/DTD/svg11.dtd">
<!-- Generated by graphviz version 2.43.0 (0)
 -->
<!-- Title: oneDegreeRelationshipsDiagram Pages: 1 -->
<svg width="818pt" height="1013pt"
 viewBox="0.00 0.00 818.00 1013.00" xmlns="http://www.w3.org/2000/svg" xmlns:xlink="http://www.w3.org/1999/xlink">
<g id="graph0" class="graph" transform="scale(1 1) rotate(0) translate(4 1009)">
<title>oneDegreeRelationshipsDiagram</title>
<polygon fill="#ffffff" stroke="transparent" points="-4,4 -4,-1009 814,-1009 814,4 -4,4"/>
<text text-anchor="middle" x="71.5" y="-7.2" font-family="Helvetica,sans-Serif" font-size="11.00">Generated by SchemaSpy</text>
<!-- ad_issue -->
<g id="node1" class="node">
<title>ad_issue</title>
<g id="a_node1"><a xlink:href="../../tables/ad_issue.html" xlink:title="ad_issue" target="_top">
<polygon fill="#ffffff" stroke="transparent" points="629,-562 629,-862 802,-862 802,-562 629,-562"/>
<polygon fill="#f5f5f5" stroke="transparent" points="629.5,-840 629.5,-862 802.5,-862 802.5,-840 629.5,-840"/>
<polygon fill="none" stroke="black" points="629.5,-840 629.5,-862 802.5,-862 802.5,-840 629.5,-840"/>
<text text-anchor="start" x="634.5" y="-849.2" font-family="Helvetica,sans-Serif" font-weight="bold" font-size="11.00">ad_issue</text>
<text text-anchor="start" x="767.5" y="-848.2" font-family="Helvetica,sans-Serif" font-size="11.00">[table]</text>
<polygon fill="none" stroke="black" points="629.5,-818 629.5,-840 802.5,-840 802.5,-818 629.5,-818"/>
<image xlink:href="../../images/primaryKeys.png" width="11px" height="12px" preserveAspectRatio="xMinYMin meet" x="634.5" y="-835"/>
<text text-anchor="start" x="649.5" y="-826.2" font-family="Helvetica,sans-Serif" font-size="11.00">ad_issue_id</text>
<polygon fill="none" stroke="black" points="629.5,-796 629.5,-818 802.5,-818 802.5,-796 629.5,-796"/>
<image xlink:href="../../images/foreignKeys.png" width="11px" height="12px" preserveAspectRatio="xMinYMin meet" x="634.5" y="-813"/>
<text text-anchor="start" x="649.5" y="-804.2" font-family="Helvetica,sans-Serif" font-size="11.00">a_asset_id</text>
<polygon fill="none" stroke="black" points="629.5,-774 629.5,-796 802.5,-796 802.5,-774 629.5,-774"/>
<image xlink:href="../../images/foreignKeys.png" width="11px" height="12px" preserveAspectRatio="xMinYMin meet" x="634.5" y="-791"/>
<text text-anchor="start" x="649.5" y="-782.2" font-family="Helvetica,sans-Serif" font-size="11.00">r_request_id</text>
<polygon fill="none" stroke="black" points="629.5,-752 629.5,-774 802.5,-774 802.5,-752 629.5,-752"/>
<image xlink:href="../../images/foreignKeys.png" width="11px" height="12px" preserveAspectRatio="xMinYMin meet" x="634.5" y="-769"/>
<text text-anchor="start" x="649.5" y="-760.2" font-family="Helvetica,sans-Serif" font-size="11.00">r_issueknown_id</text>
<polygon fill="none" stroke="black" points="629.5,-730 629.5,-752 802.5,-752 802.5,-730 629.5,-730"/>
<image xlink:href="../../images/foreignKeys.png" width="11px" height="12px" preserveAspectRatio="xMinYMin meet" x="634.5" y="-747"/>
<text text-anchor="start" x="649.5" y="-738.2" font-family="Helvetica,sans-Serif" font-size="11.00">r_issueproject_id</text>
<polygon fill="none" stroke="black" points="629.5,-708 629.5,-730 802.5,-730 802.5,-708 629.5,-708"/>
<image xlink:href="../../images/foreignKeys.png" width="11px" height="12px" preserveAspectRatio="xMinYMin meet" x="634.5" y="-725"/>
<text text-anchor="start" x="649.5" y="-716.2" font-family="Helvetica,sans-Serif" font-size="11.00">r_issueuser_id</text>
<polygon fill="none" stroke="black" points="629.5,-686 629.5,-708 802.5,-708 802.5,-686 629.5,-686"/>
<image xlink:href="../../images/foreignKeys.png" width="11px" height="12px" preserveAspectRatio="xMinYMin meet" x="634.5" y="-703"/>
<text text-anchor="start" x="649.5" y="-694.2" font-family="Helvetica,sans-Serif" font-size="11.00">r_issuesystem_id</text>
<polygon fill="none" stroke="black" points="629.5,-664 629.5,-686 802.5,-686 802.5,-664 629.5,-664"/>
<image xlink:href="../../images/foreignKeys.png" width="11px" height="12px" preserveAspectRatio="xMinYMin meet" x="634.5" y="-681"/>
<text text-anchor="start" x="649.5" y="-672.2" font-family="Helvetica,sans-Serif" font-size="11.00">ad_window_id</text>
<polygon fill="none" stroke="black" points="629.5,-642 629.5,-664 802.5,-664 802.5,-642 629.5,-642"/>
<image xlink:href="../../images/foreignKeys.png" width="11px" height="12px" preserveAspectRatio="xMinYMin meet" x="634.5" y="-659"/>
<text text-anchor="start" x="649.5" y="-650.2" font-family="Helvetica,sans-Serif" font-size="11.00">ad_process_id</text>
<polygon fill="none" stroke="black" points="629.5,-620 629.5,-642 802.5,-642 802.5,-620 629.5,-620"/>
<image xlink:href="../../images/foreignKeys.png" width="11px" height="12px" preserveAspectRatio="xMinYMin meet" x="634.5" y="-637"/>
<text text-anchor="start" x="649.5" y="-628.2" font-family="Helvetica,sans-Serif" font-size="11.00">ad_form_id</text>
<polygon fill="#ffffff" stroke="transparent" points="629.5,-598 629.5,-620 802.5,-620 802.5,-598 629.5,-598"/>
<polygon fill="none" stroke="black" points="629.5,-598 629.5,-620 802.5,-620 802.5,-598 629.5,-598"/>
<text text-anchor="start" x="649.5" y="-606.2" font-family="Helvetica,sans-Serif" font-size="11.00">ad_issue_uu</text>
<polygon fill="none" stroke="black" points="629.5,-580 629.5,-598 802.5,-598 802.5,-580 629.5,-580"/>
<text text-anchor="start" x="632.5" y="-586.2" font-family="Helvetica,sans-Serif" font-size="11.00">...</text>
<polygon fill="#ffffff" stroke="transparent" points="629.5,-562 629.5,-580 802.5,-580 802.5,-562 629.5,-562"/>
<polygon fill="none" stroke="black" points="629.5,-562 629.5,-580 802.5,-580 802.5,-562 629.5,-562"/>
<polygon fill="#ffffff" stroke="transparent" points="630.5,-563 630.5,-579 686.5,-579 686.5,-563 630.5,-563"/>
<text text-anchor="start" x="632.5" y="-568.2" font-family="Helvetica,sans-Serif" font-size="11.00">&lt; 9</text>
<polygon fill="#ffffff" stroke="transparent" points="686.5,-563 686.5,-579 754.5,-579 754.5,-563 686.5,-563"/>
<text text-anchor="start" x="706.5" y="-568.2" font-family="Helvetica,sans-Serif" font-size="11.00">1 row</text>
<polygon fill="#ffffff" stroke="transparent" points="754.5,-563 754.5,-579 801.5,-579 801.5,-563 754.5,-563"/>
<text text-anchor="start" x="792.5" y="-568.2" font-family="Helvetica,sans-Serif" font-size="11.00"> &#160;</text>
<polygon fill="black" stroke="black" points="686.5,-563 686.5,-579 686.5,-579 686.5,-563 686.5,-563"/>
<polygon fill="black" stroke="black" points="754.5,-563 754.5,-579 754.5,-579 754.5,-563 754.5,-563"/>
</a>
</g>
</g>
<!-- r_issueknown -->
<g id="node2" class="node">
<title>r_issueknown</title>
<g id="a_node2"><a xlink:href="../../tables/r_issueknown.html" xlink:title="r_issueknown" target="_top">
<polygon fill="#ffffff" stroke="transparent" points="277,-192 277,-698 580,-698 580,-192 277,-192"/>
<polygon fill="#f5f5f5" stroke="transparent" points="279.5,-674 279.5,-696 578.5,-696 578.5,-674 279.5,-674"/>
<polygon fill="none" stroke="black" points="279.5,-674 279.5,-696 578.5,-696 578.5,-674 279.5,-674"/>
<text text-anchor="start" x="284.5" y="-683.2" font-family="Helvetica,sans-Serif" font-weight="bold" font-size="11.00">r_issueknown</text>
<text text-anchor="start" x="543.5" y="-682.2" font-family="Helvetica,sans-Serif" font-size="11.00">[table]</text>
<polygon fill="none" stroke="black" points="279.5,-652 279.5,-674 495.5,-674 495.5,-652 279.5,-652"/>
<image xlink:href="../../images/primaryKeys.png" width="11px" height="12px" preserveAspectRatio="xMinYMin meet" x="284.5" y="-669"/>
<text text-anchor="start" x="299.5" y="-660.2" font-family="Helvetica,sans-Serif" font-size="11.00">r_issueknown_id</text>
<polygon fill="none" stroke="black" points="495.5,-652 495.5,-674 578.5,-674 578.5,-652 495.5,-652"/>
<text text-anchor="start" x="498.5" y="-660.2" font-family="Helvetica,sans-Serif" font-size="11.00">numeric[10]</text>
<polygon fill="none" stroke="black" points="279.5,-630 279.5,-652 495.5,-652 495.5,-630 279.5,-630"/>
<text text-anchor="start" x="299.5" y="-638.2" font-family="Helvetica,sans-Serif" font-size="11.00">ad_client_id</text>
<polygon fill="none" stroke="black" points="495.5,-630 495.5,-652 578.5,-652 578.5,-630 495.5,-630"/>
<text text-anchor="start" x="498.5" y="-638.2" font-family="Helvetica,sans-Serif" font-size="11.00">numeric[10]</text>
<polygon fill="none" stroke="black" points="279.5,-608 279.5,-630 495.5,-630 495.5,-608 279.5,-608"/>
<text text-anchor="start" x="299.5" y="-616.2" font-family="Helvetica,sans-Serif" font-size="11.00">ad_org_id</text>
<polygon fill="none" stroke="black" points="495.5,-608 495.5,-630 578.5,-630 578.5,-608 495.5,-608"/>
<text text-anchor="start" x="498.5" y="-616.2" font-family="Helvetica,sans-Serif" font-size="11.00">numeric[10]</text>
<polygon fill="none" stroke="black" points="279.5,-586 279.5,-608 495.5,-608 495.5,-586 279.5,-586"/>
<text text-anchor="start" x="299.5" y="-594.2" font-family="Helvetica,sans-Serif" font-size="11.00">isactive</text>
<polygon fill="none" stroke="black" points="495.5,-586 495.5,-608 578.5,-608 578.5,-586 495.5,-586"/>
<text text-anchor="start" x="498.5" y="-594.2" font-family="Helvetica,sans-Serif" font-size="11.00">bpchar[1]</text>
<polygon fill="none" stroke="black" points="279.5,-564 279.5,-586 495.5,-586 495.5,-564 279.5,-564"/>
<text text-anchor="start" x="299.5" y="-572.2" font-family="Helvetica,sans-Serif" font-size="11.00">created</text>
<polygon fill="none" stroke="black" points="495.5,-564 495.5,-586 578.5,-586 578.5,-564 495.5,-564"/>
<text text-anchor="start" x="498.5" y="-572.2" font-family="Helvetica,sans-Serif" font-size="11.00">timestamp[29,6]</text>
<polygon fill="none" stroke="black" points="279.5,-542 279.5,-564 495.5,-564 495.5,-542 279.5,-542"/>
<text text-anchor="start" x="299.5" y="-550.2" font-family="Helvetica,sans-Serif" font-size="11.00">createdby</text>
<polygon fill="none" stroke="black" points="495.5,-542 495.5,-564 578.5,-564 578.5,-542 495.5,-542"/>
<text text-anchor="start" x="498.5" y="-550.2" font-family="Helvetica,sans-Serif" font-size="11.00">numeric[10]</text>
<polygon fill="none" stroke="black" points="279.5,-520 279.5,-542 495.5,-542 495.5,-520 279.5,-520"/>
<text text-anchor="start" x="299.5" y="-528.2" font-family="Helvetica,sans-Serif" font-size="11.00">updated</text>
<polygon fill="none" stroke="black" points="495.5,-520 495.5,-542 578.5,-542 578.5,-520 495.5,-520"/>
<text text-anchor="start" x="498.5" y="-528.2" font-family="Helvetica,sans-Serif" font-size="11.00">timestamp[29,6]</text>
<polygon fill="none" stroke="black" points="279.5,-498 279.5,-520 495.5,-520 495.5,-498 279.5,-498"/>
<text text-anchor="start" x="299.5" y="-506.2" font-family="Helvetica,sans-Serif" font-size="11.00">updatedby</text>
<polygon fill="none" stroke="black" points="495.5,-498 495.5,-520 578.5,-520 578.5,-498 495.5,-498"/>
<text text-anchor="start" x="498.5" y="-506.2" font-family="Helvetica,sans-Serif" font-size="11.00">numeric[10]</text>
<polygon fill="#ffffff" stroke="transparent" points="279.5,-476 279.5,-498 495.5,-498 495.5,-476 279.5,-476"/>
<polygon fill="none" stroke="black" points="279.5,-476 279.5,-498 495.5,-498 495.5,-476 279.5,-476"/>
<text text-anchor="start" x="299.5" y="-484.2" font-family="Helvetica,sans-Serif" font-size="11.00">issuesummary</text>
<polygon fill="none" stroke="black" points="495.5,-476 495.5,-498 578.5,-498 578.5,-476 495.5,-476"/>
<text text-anchor="start" x="498.5" y="-484.2" font-family="Helvetica,sans-Serif" font-size="11.00">varchar[255]</text>
<polygon fill="#ffffff" stroke="transparent" points="279.5,-454 279.5,-476 495.5,-476 495.5,-454 279.5,-454"/>
<polygon fill="none" stroke="black" points="279.5,-454 279.5,-476 495.5,-476 495.5,-454 279.5,-454"/>
<text text-anchor="start" x="299.5" y="-462.2" font-family="Helvetica,sans-Serif" font-size="11.00">releaseno</text>
<polygon fill="none" stroke="black" points="495.5,-454 495.5,-476 578.5,-476 578.5,-454 495.5,-454"/>
<text text-anchor="start" x="498.5" y="-462.2" font-family="Helvetica,sans-Serif" font-size="11.00">varchar[10]</text>
<polygon fill="#ffffff" stroke="transparent" points="279.5,-432 279.5,-454 495.5,-454 495.5,-432 279.5,-432"/>
<polygon fill="none" stroke="black" points="279.5,-432 279.5,-454 495.5,-454 495.5,-432 279.5,-432"/>
<text text-anchor="start" x="299.5" y="-440.2" font-family="Helvetica,sans-Serif" font-size="11.00">sourceclassname</text>
<polygon fill="none" stroke="black" points="495.5,-432 495.5,-454 578.5,-454 578.5,-432 495.5,-432"/>
<text text-anchor="start" x="498.5" y="-440.2" font-family="Helvetica,sans-Serif" font-size="11.00">varchar[60]</text>
<polygon fill="#ffffff" stroke="transparent" points="279.5,-410 279.5,-432 495.5,-432 495.5,-410 279.5,-410"/>
<polygon fill="none" stroke="black" points="279.5,-410 279.5,-432 495.5,-432 495.5,-410 279.5,-410"/>
<text text-anchor="start" x="299.5" y="-418.2" font-family="Helvetica,sans-Serif" font-size="11.00">sourcemethodname</text>
<polygon fill="none" stroke="black" points="495.5,-410 495.5,-432 578.5,-432 578.5,-410 495.5,-410"/>
<text text-anchor="start" x="498.5" y="-418.2" font-family="Helvetica,sans-Serif" font-size="11.00">varchar[60]</text>
<polygon fill="#ffffff" stroke="transparent" points="279.5,-388 279.5,-410 495.5,-410 495.5,-388 279.5,-388"/>
<polygon fill="none" stroke="black" points="279.5,-388 279.5,-410 495.5,-410 495.5,-388 279.5,-388"/>
<text text-anchor="start" x="299.5" y="-396.2" font-family="Helvetica,sans-Serif" font-size="11.00">loggername</text>
<polygon fill="none" stroke="black" points="495.5,-388 495.5,-410 578.5,-410 578.5,-388 495.5,-388"/>
<text text-anchor="start" x="498.5" y="-396.2" font-family="Helvetica,sans-Serif" font-size="11.00">varchar[60]</text>
<polygon fill="#ffffff" stroke="transparent" points="279.5,-366 279.5,-388 495.5,-388 495.5,-366 279.5,-366"/>
<polygon fill="none" stroke="black" points="279.5,-366 279.5,-388 495.5,-388 495.5,-366 279.5,-366"/>
<text text-anchor="start" x="299.5" y="-374.2" font-family="Helvetica,sans-Serif" font-size="11.00">lineno</text>
<polygon fill="none" stroke="black" points="495.5,-366 495.5,-388 578.5,-388 578.5,-366 495.5,-366"/>
<text text-anchor="start" x="498.5" y="-374.2" font-family="Helvetica,sans-Serif" font-size="11.00">numeric[10]</text>
<polygon fill="none" stroke="black" points="279.5,-344 279.5,-366 495.5,-366 495.5,-344 279.5,-344"/>
<text text-anchor="start" x="299.5" y="-352.2" font-family="Helvetica,sans-Serif" font-size="11.00">description</text>
<polygon fill="none" stroke="black" points="495.5,-344 495.5,-366 578.5,-366 578.5,-344 495.5,-344"/>
<text text-anchor="start" x="498.5" y="-352.2" font-family="Helvetica,sans-Serif" font-size="11.00">varchar[255]</text>
<polygon fill="none" stroke="black" points="279.5,-322 279.5,-344 495.5,-344 495.5,-322 279.5,-322"/>
<text text-anchor="start" x="299.5" y="-330.2" font-family="Helvetica,sans-Serif" font-size="11.00">issuestatus</text>
<polygon fill="none" stroke="black" points="495.5,-322 495.5,-344 578.5,-344 578.5,-322 495.5,-322"/>
<text text-anchor="start" x="498.5" y="-330.2" font-family="Helvetica,sans-Serif" font-size="11.00">varchar[2000]</text>
<polygon fill="none" stroke="black" points="279.5,-300 279.5,-322 495.5,-322 495.5,-300 279.5,-300"/>
<image xlink:href="../../images/foreignKeys.png" width="11px" height="12px" preserveAspectRatio="xMinYMin meet" x="284.5" y="-317"/>
<text text-anchor="start" x="299.5" y="-308.2" font-family="Helvetica,sans-Serif" font-size="11.00">r_issuestatus_id</text>
<polygon fill="none" stroke="black" points="495.5,-300 495.5,-322 578.5,-322 578.5,-300 495.5,-300"/>
<text text-anchor="start" x="498.5" y="-308.2" font-family="Helvetica,sans-Serif" font-size="11.00">numeric[10]</text>
<polygon fill="none" stroke="black" points="279.5,-278 279.5,-300 495.5,-300 495.5,-278 279.5,-278"/>
<image xlink:href="../../images/foreignKeys.png" width="11px" height="12px" preserveAspectRatio="xMinYMin meet" x="284.5" y="-295"/>
<text text-anchor="start" x="299.5" y="-286.2" font-family="Helvetica,sans-Serif" font-size="11.00">r_request_id</text>
<polygon fill="none" stroke="black" points="495.5,-278 495.5,-300 578.5,-300 578.5,-278 495.5,-278"/>
<text text-anchor="start" x="498.5" y="-286.2" font-family="Helvetica,sans-Serif" font-size="11.00">numeric[10]</text>
<polygon fill="none" stroke="black" points="279.5,-256 279.5,-278 495.5,-278 495.5,-256 279.5,-256"/>
<text text-anchor="start" x="299.5" y="-264.2" font-family="Helvetica,sans-Serif" font-size="11.00">processing</text>
<polygon fill="none" stroke="black" points="495.5,-256 495.5,-278 578.5,-278 578.5,-256 495.5,-256"/>
<text text-anchor="start" x="498.5" y="-264.2" font-family="Helvetica,sans-Serif" font-size="11.00">bpchar[1]</text>
<polygon fill="none" stroke="black" points="279.5,-234 279.5,-256 495.5,-256 495.5,-234 279.5,-234"/>
<image xlink:href="../../images/foreignKeys.png" width="11px" height="12px" preserveAspectRatio="xMinYMin meet" x="284.5" y="-251"/>
<text text-anchor="start" x="299.5" y="-242.2" font-family="Helvetica,sans-Serif" font-size="11.00">r_issuerecommendation_id</text>
<polygon fill="none" stroke="black" points="495.5,-234 495.5,-256 578.5,-256 578.5,-234 495.5,-234"/>
<text text-anchor="start" x="498.5" y="-242.2" font-family="Helvetica,sans-Serif" font-size="11.00">numeric[10]</text>
<polygon fill="#ffffff" stroke="transparent" points="279.5,-212 279.5,-234 495.5,-234 495.5,-212 279.5,-212"/>
<polygon fill="none" stroke="black" points="279.5,-212 279.5,-234 495.5,-234 495.5,-212 279.5,-212"/>
<text text-anchor="start" x="299.5" y="-220.2" font-family="Helvetica,sans-Serif" font-size="11.00">r_issueknown_uu</text>
<polygon fill="none" stroke="black" points="495.5,-212 495.5,-234 578.5,-234 578.5,-212 495.5,-212"/>
<text text-anchor="start" x="498.5" y="-220.2" font-family="Helvetica,sans-Serif" font-size="11.00">varchar[36]</text>
<polygon fill="#ffffff" stroke="transparent" points="279.5,-194 279.5,-212 578.5,-212 578.5,-194 279.5,-194"/>
<polygon fill="none" stroke="black" points="279.5,-194 279.5,-212 578.5,-212 578.5,-194 279.5,-194"/>
<polygon fill="#ffffff" stroke="transparent" points="280.5,-195 280.5,-211 382.5,-211 382.5,-195 280.5,-195"/>
<text text-anchor="start" x="282.5" y="-200.2" font-family="Helvetica,sans-Serif" font-size="11.00">&lt; 3</text>
<polygon fill="#ffffff" stroke="transparent" points="382.5,-195 382.5,-211 475.5,-211 475.5,-195 382.5,-195"/>
<text text-anchor="start" x="425.5" y="-200.2" font-family="Helvetica,sans-Serif" font-size="11.00"> &#160;</text>
<polygon fill="#ffffff" stroke="transparent" points="475.5,-195 475.5,-211 577.5,-211 577.5,-195 475.5,-195"/>
<text text-anchor="start" x="559.5" y="-200.2" font-family="Helvetica,sans-Serif" font-size="11.00">1 &gt;</text>
<polygon fill="black" stroke="black" points="382.5,-195 382.5,-211 382.5,-211 382.5,-195 382.5,-195"/>
<polygon fill="black" stroke="black" points="475.5,-195 475.5,-211 475.5,-211 475.5,-195 475.5,-195"/>
<polygon fill="none" stroke="black" stroke-width="2" points="278,-193 278,-697 579,-697 579,-193 278,-193"/>
</a>
</g>
</g>
<!-- ad_issue&#45;&gt;r_issueknown -->
<g id="edge1" class="edge">
<title>ad_issue:w&#45;&gt;r_issueknown:e</title>
<path fill="none" stroke="black" d="M614.54,-758.96C589.65,-740.25 623,-663 579.5,-663"/>
<polygon fill="black" stroke="black" points="620.82,-760.77 627.5,-766.46 624.66,-761.89 628.5,-763 628.5,-763 628.5,-763 624.66,-761.89 629.5,-759.54 620.82,-760.77 620.82,-760.77"/>
<ellipse fill="none" stroke="black" cx="617.74" cy="-759.88" rx="3.2" ry="3.2"/>
</g>
<!-- r_request -->
<g id="node3" class="node">
<title>r_request</title>
<g id="a_node3"><a xlink:href="../../tables/r_request.html" xlink:title="r_request" target="_top">
<polygon fill="#ffffff" stroke="transparent" points="25,-283 25,-1001 211,-1001 211,-283 25,-283"/>
<polygon fill="#f5f5f5" stroke="transparent" points="25,-979 25,-1001 211,-1001 211,-979 25,-979"/>
<polygon fill="none" stroke="black" points="25,-979 25,-1001 211,-1001 211,-979 25,-979"/>
<text text-anchor="start" x="30" y="-988.2" font-family="Helvetica,sans-Serif" font-weight="bold" font-size="11.00">r_request</text>
<text text-anchor="start" x="176" y="-987.2" font-family="Helvetica,sans-Serif" font-size="11.00">[table]</text>
<polygon fill="none" stroke="black" points="25,-957 25,-979 211,-979 211,-957 25,-957"/>
<image xlink:href="../../images/primaryKeys.png" width="11px" height="12px" preserveAspectRatio="xMinYMin meet" x="30" y="-974"/>
<text text-anchor="start" x="45" y="-965.2" font-family="Helvetica,sans-Serif" font-size="11.00">r_request_id</text>
<polygon fill="none" stroke="black" points="25,-935 25,-957 211,-957 211,-935 25,-935"/>
<image xlink:href="../../images/foreignKeys.png" width="11px" height="12px" preserveAspectRatio="xMinYMin meet" x="30" y="-952"/>
<text text-anchor="start" x="45" y="-943.2" font-family="Helvetica,sans-Serif" font-size="11.00">r_requesttype_id</text>
<polygon fill="none" stroke="black" points="25,-913 25,-935 211,-935 211,-913 25,-913"/>
<image xlink:href="../../images/foreignKeys.png" width="11px" height="12px" preserveAspectRatio="xMinYMin meet" x="30" y="-930"/>
<text text-anchor="start" x="45" y="-921.2" font-family="Helvetica,sans-Serif" font-size="11.00">r_group_id</text>
<polygon fill="none" stroke="black" points="25,-891 25,-913 211,-913 211,-891 25,-891"/>
<image xlink:href="../../images/foreignKeys.png" width="11px" height="12px" preserveAspectRatio="xMinYMin meet" x="30" y="-908"/>
<text text-anchor="start" x="45" y="-899.2" font-family="Helvetica,sans-Serif" font-size="11.00">r_category_id</text>
<polygon fill="none" stroke="black" points="25,-869 25,-891 211,-891 211,-869 25,-869"/>
<image xlink:href="../../images/foreignKeys.png" width="11px" height="12px" preserveAspectRatio="xMinYMin meet" x="30" y="-886"/>
<text text-anchor="start" x="45" y="-877.2" font-family="Helvetica,sans-Serif" font-size="11.00">r_status_id</text>
<polygon fill="none" stroke="black" points="25,-847 25,-869 211,-869 211,-847 25,-847"/>
<image xlink:href="../../images/foreignKeys.png" width="11px" height="12px" preserveAspectRatio="xMinYMin meet" x="30" y="-864"/>
<text text-anchor="start" x="45" y="-855.2" font-family="Helvetica,sans-Serif" font-size="11.00">r_resolution_id</text>
<polygon fill="none" stroke="black" points="25,-825 25,-847 211,-847 211,-825 25,-825"/>
<image xlink:href="../../images/foreignKeys.png" width="11px" height="12px" preserveAspectRatio="xMinYMin meet" x="30" y="-842"/>
<text text-anchor="start" x="45" y="-833.2" font-family="Helvetica,sans-Serif" font-size="11.00">r_requestrelated_id</text>
<polygon fill="none" stroke="black" points="25,-803 25,-825 211,-825 211,-803 25,-803"/>
<image xlink:href="../../images/foreignKeys.png" width="11px" height="12px" preserveAspectRatio="xMinYMin meet" x="30" y="-820"/>
<text text-anchor="start" x="45" y="-811.2" font-family="Helvetica,sans-Serif" font-size="11.00">salesrep_id</text>
<polygon fill="none" stroke="black" points="25,-781 25,-803 211,-803 211,-781 25,-781"/>
<image xlink:href="../../images/foreignKeys.png" width="11px" height="12px" preserveAspectRatio="xMinYMin meet" x="30" y="-798"/>
<text text-anchor="start" x="45" y="-789.2" font-family="Helvetica,sans-Serif" font-size="11.00">ad_role_id</text>
<polygon fill="#ffffff" stroke="transparent" points="25,-759 25,-781 211,-781 211,-759 25,-759"/>
<polygon fill="none" stroke="black" points="25,-759 25,-781 211,-781 211,-759 25,-759"/>
<image xlink:href="../../images/foreignKeys.png" width="11px" height="12px" preserveAspectRatio="xMinYMin meet" x="30" y="-776"/>
<text text-anchor="start" x="45" y="-767.2" font-family="Helvetica,sans-Serif" font-size="11.00">c_bpartner_id</text>
<polygon fill="#ffffff" stroke="transparent" points="25,-737 25,-759 211,-759 211,-737 25,-737"/>
<polygon fill="none" stroke="black" points="25,-737 25,-759 211,-759 211,-737 25,-737"/>
<image xlink:href="../../images/foreignKeys.png" width="11px" height="12px" preserveAspectRatio="xMinYMin meet" x="30" y="-754"/>
<text text-anchor="start" x="45" y="-745.2" font-family="Helvetica,sans-Serif" font-size="11.00">ad_user_id</text>
<polygon fill="none" stroke="black" points="25,-715 25,-737 211,-737 211,-715 25,-715"/>
<image xlink:href="../../images/foreignKeys.png" width="11px" height="12px" preserveAspectRatio="xMinYMin meet" x="30" y="-732"/>
<text text-anchor="start" x="45" y="-723.2" font-family="Helvetica,sans-Serif" font-size="11.00">c_campaign_id</text>
<polygon fill="#ffffff" stroke="transparent" points="25,-693 25,-715 211,-715 211,-693 25,-693"/>
<polygon fill="none" stroke="black" points="25,-693 25,-715 211,-715 211,-693 25,-693"/>
<image xlink:href="../../images/foreignKeys.png" width="11px" height="12px" preserveAspectRatio="xMinYMin meet" x="30" y="-710"/>
<text text-anchor="start" x="45" y="-701.2" font-family="Helvetica,sans-Serif" font-size="11.00">c_order_id</text>
<polygon fill="#ffffff" stroke="transparent" points="25,-671 25,-693 211,-693 211,-671 25,-671"/>
<polygon fill="none" stroke="black" points="25,-671 25,-693 211,-693 211,-671 25,-671"/>
<image xlink:href="../../images/foreignKeys.png" width="11px" height="12px" preserveAspectRatio="xMinYMin meet" x="30" y="-688"/>
<text text-anchor="start" x="45" y="-679.2" font-family="Helvetica,sans-Serif" font-size="11.00">c_invoice_id</text>
<polygon fill="none" stroke="black" points="25,-649 25,-671 211,-671 211,-649 25,-649"/>
<image xlink:href="../../images/foreignKeys.png" width="11px" height="12px" preserveAspectRatio="xMinYMin meet" x="30" y="-666"/>
<text text-anchor="start" x="45" y="-657.2" font-family="Helvetica,sans-Serif" font-size="11.00">c_payment_id</text>
<polygon fill="none" stroke="black" points="25,-627 25,-649 211,-649 211,-627 25,-627"/>
<image xlink:href="../../images/foreignKeys.png" width="11px" height="12px" preserveAspectRatio="xMinYMin meet" x="30" y="-644"/>
<text text-anchor="start" x="45" y="-635.2" font-family="Helvetica,sans-Serif" font-size="11.00">m_product_id</text>
<polygon fill="none" stroke="black" points="25,-605 25,-627 211,-627 211,-605 25,-605"/>
<image xlink:href="../../images/foreignKeys.png" width="11px" height="12px" preserveAspectRatio="xMinYMin meet" x="30" y="-622"/>
<text text-anchor="start" x="45" y="-613.2" font-family="Helvetica,sans-Serif" font-size="11.00">c_project_id</text>
<polygon fill="none" stroke="black" points="25,-583 25,-605 211,-605 211,-583 25,-583"/>
<image xlink:href="../../images/foreignKeys.png" width="11px" height="12px" preserveAspectRatio="xMinYMin meet" x="30" y="-600"/>
<text text-anchor="start" x="45" y="-591.2" font-family="Helvetica,sans-Serif" font-size="11.00">a_asset_id</text>
<polygon fill="none" stroke="black" points="25,-561 25,-583 211,-583 211,-561 25,-561"/>
<image xlink:href="../../images/foreignKeys.png" width="11px" height="12px" preserveAspectRatio="xMinYMin meet" x="30" y="-578"/>
<text text-anchor="start" x="45" y="-569.2" font-family="Helvetica,sans-Serif" font-size="11.00">m_inout_id</text>
<polygon fill="none" stroke="black" points="25,-539 25,-561 211,-561 211,-539 25,-539"/>
<image xlink:href="../../images/foreignKeys.png" width="11px" height="12px" preserveAspectRatio="xMinYMin meet" x="30" y="-556"/>
<text text-anchor="start" x="45" y="-547.2" font-family="Helvetica,sans-Serif" font-size="11.00">m_rma_id</text>
<polygon fill="#ffffff" stroke="transparent" points="25,-517 25,-539 211,-539 211,-517 25,-517"/>
<polygon fill="none" stroke="black" points="25,-517 25,-539 211,-539 211,-517 25,-517"/>
<image xlink:href="../../images/foreignKeys.png" width="11px" height="12px" preserveAspectRatio="xMinYMin meet" x="30" y="-534"/>
<text text-anchor="start" x="45" y="-525.2" font-family="Helvetica,sans-Serif" font-size="11.00">ad_table_id</text>
<polygon fill="none" stroke="black" points="25,-495 25,-517 211,-517 211,-495 25,-495"/>
<image xlink:href="../../images/foreignKeys.png" width="11px" height="12px" preserveAspectRatio="xMinYMin meet" x="30" y="-512"/>
<text text-anchor="start" x="45" y="-503.2" font-family="Helvetica,sans-Serif" font-size="11.00">r_mailtext_id</text>
<polygon fill="none" stroke="black" points="25,-473 25,-495 211,-495 211,-473 25,-473"/>
<image xlink:href="../../images/foreignKeys.png" width="11px" height="12px" preserveAspectRatio="xMinYMin meet" x="30" y="-490"/>
<text text-anchor="start" x="45" y="-481.2" font-family="Helvetica,sans-Serif" font-size="11.00">r_standardresponse_id</text>
<polygon fill="none" stroke="black" points="25,-451 25,-473 211,-473 211,-451 25,-451"/>
<image xlink:href="../../images/foreignKeys.png" width="11px" height="12px" preserveAspectRatio="xMinYMin meet" x="30" y="-468"/>
<text text-anchor="start" x="45" y="-459.2" font-family="Helvetica,sans-Serif" font-size="11.00">m_productspent_id</text>
<polygon fill="none" stroke="black" points="25,-429 25,-451 211,-451 211,-429 25,-429"/>
<image xlink:href="../../images/foreignKeys.png" width="11px" height="12px" preserveAspectRatio="xMinYMin meet" x="30" y="-446"/>
<text text-anchor="start" x="45" y="-437.2" font-family="Helvetica,sans-Serif" font-size="11.00">c_activity_id</text>
<polygon fill="#ffffff" stroke="transparent" points="25,-407 25,-429 211,-429 211,-407 25,-407"/>
<polygon fill="none" stroke="black" points="25,-407 25,-429 211,-429 211,-407 25,-407"/>
<image xlink:href="../../images/foreignKeys.png" width="11px" height="12px" preserveAspectRatio="xMinYMin meet" x="30" y="-424"/>
<text text-anchor="start" x="45" y="-415.2" font-family="Helvetica,sans-Serif" font-size="11.00">c_invoicerequest_id</text>
<polygon fill="none" stroke="black" points="25,-385 25,-407 211,-407 211,-385 25,-385"/>
<image xlink:href="../../images/foreignKeys.png" width="11px" height="12px" preserveAspectRatio="xMinYMin meet" x="30" y="-402"/>
<text text-anchor="start" x="45" y="-393.2" font-family="Helvetica,sans-Serif" font-size="11.00">m_changerequest_id</text>
<polygon fill="none" stroke="black" points="25,-363 25,-385 211,-385 211,-363 25,-363"/>
<image xlink:href="../../images/foreignKeys.png" width="11px" height="12px" preserveAspectRatio="xMinYMin meet" x="30" y="-380"/>
<text text-anchor="start" x="45" y="-371.2" font-family="Helvetica,sans-Serif" font-size="11.00">m_fixchangenotice_id</text>
<polygon fill="#ffffff" stroke="transparent" points="25,-341 25,-363 211,-363 211,-341 25,-341"/>
<polygon fill="none" stroke="black" points="25,-341 25,-363 211,-363 211,-341 25,-341"/>
<text text-anchor="start" x="45" y="-349.2" font-family="Helvetica,sans-Serif" font-size="11.00">r_request_uu</text>
<polygon fill="#ffffff" stroke="transparent" points="25,-319 25,-341 211,-341 211,-319 25,-319"/>
<polygon fill="none" stroke="black" points="25,-319 25,-341 211,-341 211,-319 25,-319"/>
<text text-anchor="start" x="45" y="-327.2" font-family="Helvetica,sans-Serif" font-size="11.00">record_uu</text>
<polygon fill="none" stroke="black" points="25,-301 25,-319 211,-319 211,-301 25,-301"/>
<text text-anchor="start" x="28" y="-307.2" font-family="Helvetica,sans-Serif" font-size="11.00">...</text>
<polygon fill="#ffffff" stroke="transparent" points="25,-283 25,-301 211,-301 211,-283 25,-283"/>
<polygon fill="none" stroke="black" points="25,-283 25,-301 211,-301 211,-283 25,-283"/>
<polygon fill="#ffffff" stroke="transparent" points="26,-284 26,-300 95,-300 95,-284 26,-284"/>
<text text-anchor="start" x="28" y="-289.2" font-family="Helvetica,sans-Serif" font-size="11.00">&lt; 27</text>
<polygon fill="#ffffff" stroke="transparent" points="95,-284 95,-300 148,-300 148,-284 95,-284"/>
<text text-anchor="start" x="118" y="-289.2" font-family="Helvetica,sans-Serif" font-size="11.00"> &#160;</text>
<polygon fill="#ffffff" stroke="transparent" points="148,-284 148,-300 210,-300 210,-284 148,-284"/>
<text text-anchor="start" x="192" y="-289.2" font-family="Helvetica,sans-Serif" font-size="11.00">6 &gt;</text>
<polygon fill="black" stroke="black" points="95,-284 95,-300 95,-300 95,-284 95,-284"/>
<polygon fill="black" stroke="black" points="148,-284 148,-300 148,-300 148,-284 148,-284"/>
</a>
</g>
</g>
<!-- ad_issue&#45;&gt;r_request -->
<g id="edge2" class="edge">
<title>ad_issue:w&#45;&gt;r_request:e</title>
<path fill="none" stroke="black" d="M614.03,-785.32C425.6,-793.83 409.25,-968 212,-968"/>
<polygon fill="black" stroke="black" points="620.5,-785.18 628.58,-788.6 624.5,-785.09 628.5,-785 628.5,-785 628.5,-785 624.5,-785.09 628.42,-781.4 620.5,-785.18 620.5,-785.18"/>
<ellipse fill="none" stroke="black" cx="617.3" cy="-785.25" rx="3.2" ry="3.2"/>
</g>
<!-- r_issueknown&#45;&gt;r_request -->
<g id="edge5" class="edge">
<title>r_issueknown:w&#45;&gt;r_request:e</title>
<path fill="none" stroke="black" d="M264.28,-291.33C142.62,-334.62 358.43,-968 212,-968"/>
<polygon fill="black" stroke="black" points="270.6,-290.29 279.08,-292.55 274.55,-289.65 278.5,-289 278.5,-289 278.5,-289 274.55,-289.65 277.92,-285.45 270.6,-290.29 270.6,-290.29"/>
<ellipse fill="none" stroke="black" cx="267.45" cy="-290.81" rx="3.2" ry="3.2"/>
</g>
<!-- r_issuerecommendation -->
<g id="node4" class="node">
<title>r_issuerecommendation</title>
<g id="a_node4"><a xlink:href="../../tables/r_issuerecommendation.html" xlink:title="r_issuerecommendation" target="_top">
<polygon fill="#ffffff" stroke="transparent" points="8,-37 8,-139 228,-139 228,-37 8,-37"/>
<polygon fill="#f5f5f5" stroke="transparent" points="8,-117 8,-139 228,-139 228,-117 8,-117"/>
<polygon fill="none" stroke="black" points="8,-117 8,-139 228,-139 228,-117 8,-117"/>
<text text-anchor="start" x="13" y="-126.2" font-family="Helvetica,sans-Serif" font-weight="bold" font-size="11.00">r_issuerecommendation</text>
<text text-anchor="start" x="193" y="-125.2" font-family="Helvetica,sans-Serif" font-size="11.00">[table]</text>
<polygon fill="none" stroke="black" points="8,-95 8,-117 228,-117 228,-95 8,-95"/>
<image xlink:href="../../images/primaryKeys.png" width="11px" height="12px" preserveAspectRatio="xMinYMin meet" x="13" y="-112"/>
<text text-anchor="start" x="28" y="-103.2" font-family="Helvetica,sans-Serif" font-size="11.00">r_issuerecommendation_id</text>
<polygon fill="#ffffff" stroke="transparent" points="8,-73 8,-95 228,-95 228,-73 8,-73"/>
<polygon fill="none" stroke="black" points="8,-73 8,-95 228,-95 228,-73 8,-73"/>
<text text-anchor="start" x="28" y="-81.2" font-family="Helvetica,sans-Serif" font-size="11.00">r_issuerecommendation_uu</text>
<polygon fill="none" stroke="black" points="8,-55 8,-73 228,-73 228,-55 8,-55"/>
<text text-anchor="start" x="11" y="-61.2" font-family="Helvetica,sans-Serif" font-size="11.00">...</text>
<polygon fill="#ffffff" stroke="transparent" points="8,-37 8,-55 228,-55 228,-37 8,-37"/>
<polygon fill="none" stroke="black" points="8,-37 8,-55 228,-55 228,-37 8,-37"/>
<polygon fill="#ffffff" stroke="transparent" points="9,-38 9,-54 79,-54 79,-38 9,-38"/>
<text text-anchor="start" x="11" y="-43.2" font-family="Helvetica,sans-Serif" font-size="11.00"> &#160;</text>
<polygon fill="#ffffff" stroke="transparent" points="79,-38 79,-54 149,-54 149,-38 79,-38"/>
<text text-anchor="start" x="110.5" y="-43.2" font-family="Helvetica,sans-Serif" font-size="11.00"> &#160;</text>
<polygon fill="#ffffff" stroke="transparent" points="149,-38 149,-54 227,-54 227,-38 149,-38"/>
<text text-anchor="start" x="209" y="-43.2" font-family="Helvetica,sans-Serif" font-size="11.00">1 &gt;</text>
<polygon fill="black" stroke="black" points="79,-38 79,-54 79,-54 79,-38 79,-38"/>
<polygon fill="black" stroke="black" points="149,-38 149,-54 149,-54 149,-38 149,-38"/>
</a>
</g>
</g>
<!-- r_issueknown&#45;&gt;r_issuerecommendation -->
<g id="edge3" class="edge">
<title>r_issueknown:w&#45;&gt;r_issuerecommendation:e</title>
<path fill="none" stroke="black" d="M264.18,-241.84C226.41,-221.15 288.69,-106 229,-106"/>
<polygon fill="black" stroke="black" points="270.69,-243.27 277.72,-248.52 274.59,-244.14 278.5,-245 278.5,-245 278.5,-245 274.59,-244.14 279.28,-241.48 270.69,-243.27 270.69,-243.27"/>
<ellipse fill="none" stroke="black" cx="267.56" cy="-242.58" rx="3.2" ry="3.2"/>
</g>
<!-- r_issuestatus -->
<g id="node5" class="node">
<title>r_issuestatus</title>
<g id="a_node5"><a xlink:href="../../tables/r_issuestatus.html" xlink:title="r_issuestatus" target="_top">
<polygon fill="#ffffff" stroke="transparent" points="47,-160 47,-262 189,-262 189,-160 47,-160"/>
<polygon fill="#f5f5f5" stroke="transparent" points="47,-240 47,-262 189,-262 189,-240 47,-240"/>
<polygon fill="none" stroke="black" points="47,-240 47,-262 189,-262 189,-240 47,-240"/>
<text text-anchor="start" x="52" y="-249.2" font-family="Helvetica,sans-Serif" font-weight="bold" font-size="11.00">r_issuestatus</text>
<text text-anchor="start" x="154" y="-248.2" font-family="Helvetica,sans-Serif" font-size="11.00">[table]</text>
<polygon fill="none" stroke="black" points="47,-218 47,-240 189,-240 189,-218 47,-218"/>
<image xlink:href="../../images/primaryKeys.png" width="11px" height="12px" preserveAspectRatio="xMinYMin meet" x="52" y="-235"/>
<text text-anchor="start" x="67" y="-226.2" font-family="Helvetica,sans-Serif" font-size="11.00">r_issuestatus_id</text>
<polygon fill="#ffffff" stroke="transparent" points="47,-196 47,-218 189,-218 189,-196 47,-196"/>
<polygon fill="none" stroke="black" points="47,-196 47,-218 189,-218 189,-196 47,-196"/>
<text text-anchor="start" x="67" y="-204.2" font-family="Helvetica,sans-Serif" font-size="11.00">r_issuestatus_uu</text>
<polygon fill="none" stroke="black" points="47,-178 47,-196 189,-196 189,-178 47,-178"/>
<text text-anchor="start" x="50" y="-184.2" font-family="Helvetica,sans-Serif" font-size="11.00">...</text>
<polygon fill="#ffffff" stroke="transparent" points="47,-160 47,-178 189,-178 189,-160 47,-160"/>
<polygon fill="none" stroke="black" points="47,-160 47,-178 189,-178 189,-160 47,-160"/>
<polygon fill="#ffffff" stroke="transparent" points="48,-161 48,-177 92,-177 92,-161 48,-161"/>
<text text-anchor="start" x="50" y="-166.2" font-family="Helvetica,sans-Serif" font-size="11.00"> &#160;</text>
<polygon fill="#ffffff" stroke="transparent" points="92,-161 92,-177 136,-177 136,-161 92,-161"/>
<text text-anchor="start" x="110.5" y="-166.2" font-family="Helvetica,sans-Serif" font-size="11.00"> &#160;</text>
<polygon fill="#ffffff" stroke="transparent" points="136,-161 136,-177 188,-177 188,-161 136,-161"/>
<text text-anchor="start" x="170" y="-166.2" font-family="Helvetica,sans-Serif" font-size="11.00">1 &gt;</text>
<polygon fill="black" stroke="black" points="92,-161 92,-177 92,-177 92,-161 92,-161"/>
<polygon fill="black" stroke="black" points="136,-161 136,-177 136,-177 136,-161 136,-161"/>
</a>
</g>
</g>
<!-- r_issueknown&#45;&gt;r_issuestatus -->
<g id="edge4" class="edge">
<title>r_issueknown:w&#45;&gt;r_issuestatus:e</title>
<path fill="none" stroke="black" d="M265.06,-305.36C240.72,-286.84 212.52,-229 190,-229"/>
<polygon fill="black" stroke="black" points="271.12,-307.91 277.11,-314.32 274.81,-309.45 278.5,-311 278.5,-311 278.5,-311 274.81,-309.45 279.89,-307.68 271.12,-307.91 271.12,-307.91"/>
<ellipse fill="none" stroke="black" cx="268.17" cy="-306.67" rx="3.2" ry="3.2"/>
</g>
</g>
</svg>
