<?xml version="1.0" encoding="UTF-8" standalone="no"?>
<!DOCTYPE svg PUBLIC "-//W3C//DTD SVG 1.1//EN"
 "http://www.w3.org/Graphics/SVG/1.1/DTD/svg11.dtd">
<!-- Generated by graphviz version 2.43.0 (0)
 -->
<!-- Title: oneDegreeRelationshipsDiagram Pages: 1 -->
<svg width="329pt" height="273pt"
 viewBox="0.00 0.00 329.00 273.00" xmlns="http://www.w3.org/2000/svg" xmlns:xlink="http://www.w3.org/1999/xlink">
<g id="graph0" class="graph" transform="scale(1 1) rotate(0) translate(4 269)">
<title>oneDegreeRelationshipsDiagram</title>
<polygon fill="#ffffff" stroke="transparent" points="-4,4 -4,-269 325,-269 325,4 -4,4"/>
<text text-anchor="middle" x="71.5" y="-7.2" font-family="Helvetica,sans-Serif" font-size="11.00">Generated by SchemaSpy</text>
<!-- rv_requestupdates_only -->
<g id="node1" class="node">
<title>rv_requestupdates_only</title>
<g id="a_node1"><a xlink:href="../../tables/rv_requestupdates_only.html" xlink:title="rv_requestupdates_only" target="_top">
<polygon fill="#ffffff" stroke="transparent" points="8,-37 8,-261 313,-261 313,-37 8,-37"/>
<polygon fill="#f5f5f5" stroke="transparent" points="10.5,-237 10.5,-259 311.5,-259 311.5,-237 10.5,-237"/>
<polygon fill="none" stroke="black" points="10.5,-237 10.5,-259 311.5,-259 311.5,-237 10.5,-237"/>
<text text-anchor="start" x="15.5" y="-246.2" font-family="Helvetica,sans-Serif" font-weight="bold" font-size="11.00">rv_requestupdates_only</text>
<text text-anchor="start" x="278.5" y="-245.2" font-family="Helvetica,sans-Serif" font-size="11.00">[view]</text>
<polygon fill="none" stroke="black" points="10.5,-215 10.5,-237 205.5,-237 205.5,-215 10.5,-215"/>
<text text-anchor="start" x="30.5" y="-223.2" font-family="Helvetica,sans-Serif" font-size="11.00">ad_client_id</text>
<polygon fill="none" stroke="black" points="205.5,-215 205.5,-237 311.5,-237 311.5,-215 205.5,-215"/>
<text text-anchor="start" x="208.5" y="-223.2" font-family="Helvetica,sans-Serif" font-size="11.00">numeric[0]</text>
<polygon fill="none" stroke="black" points="10.5,-193 10.5,-215 205.5,-215 205.5,-193 10.5,-193"/>
<text text-anchor="start" x="30.5" y="-201.2" font-family="Helvetica,sans-Serif" font-size="11.00">ad_org_id</text>
<polygon fill="none" stroke="black" points="205.5,-193 205.5,-215 311.5,-215 311.5,-193 205.5,-193"/>
<text text-anchor="start" x="208.5" y="-201.2" font-family="Helvetica,sans-Serif" font-size="11.00">numeric[0]</text>
<polygon fill="none" stroke="black" points="10.5,-171 10.5,-193 205.5,-193 205.5,-171 10.5,-171"/>
<text text-anchor="start" x="30.5" y="-179.2" font-family="Helvetica,sans-Serif" font-size="11.00">isactive</text>
<polygon fill="none" stroke="black" points="205.5,-171 205.5,-193 311.5,-193 311.5,-171 205.5,-171"/>
<text text-anchor="start" x="208.5" y="-179.2" font-family="Helvetica,sans-Serif" font-size="11.00">bpchar[2147483647]</text>
<polygon fill="none" stroke="black" points="10.5,-149 10.5,-171 205.5,-171 205.5,-149 10.5,-149"/>
<text text-anchor="start" x="30.5" y="-157.2" font-family="Helvetica,sans-Serif" font-size="11.00">created</text>
<polygon fill="none" stroke="black" points="205.5,-149 205.5,-171 311.5,-171 311.5,-149 205.5,-149"/>
<text text-anchor="start" x="208.5" y="-157.2" font-family="Helvetica,sans-Serif" font-size="11.00">timestamptz[35,6]</text>
<polygon fill="none" stroke="black" points="10.5,-127 10.5,-149 205.5,-149 205.5,-127 10.5,-127"/>
<text text-anchor="start" x="30.5" y="-135.2" font-family="Helvetica,sans-Serif" font-size="11.00">createdby</text>
<polygon fill="none" stroke="black" points="205.5,-127 205.5,-149 311.5,-149 311.5,-127 205.5,-127"/>
<text text-anchor="start" x="208.5" y="-135.2" font-family="Helvetica,sans-Serif" font-size="11.00">int4[10]</text>
<polygon fill="none" stroke="black" points="10.5,-105 10.5,-127 205.5,-127 205.5,-105 10.5,-105"/>
<text text-anchor="start" x="30.5" y="-113.2" font-family="Helvetica,sans-Serif" font-size="11.00">updated</text>
<polygon fill="none" stroke="black" points="205.5,-105 205.5,-127 311.5,-127 311.5,-105 205.5,-105"/>
<text text-anchor="start" x="208.5" y="-113.2" font-family="Helvetica,sans-Serif" font-size="11.00">timestamptz[35,6]</text>
<polygon fill="none" stroke="black" points="10.5,-83 10.5,-105 205.5,-105 205.5,-83 10.5,-83"/>
<text text-anchor="start" x="30.5" y="-91.2" font-family="Helvetica,sans-Serif" font-size="11.00">updatedby</text>
<polygon fill="none" stroke="black" points="205.5,-83 205.5,-105 311.5,-105 311.5,-83 205.5,-83"/>
<text text-anchor="start" x="208.5" y="-91.2" font-family="Helvetica,sans-Serif" font-size="11.00">int4[10]</text>
<polygon fill="none" stroke="black" points="10.5,-61 10.5,-83 205.5,-83 205.5,-61 10.5,-61"/>
<text text-anchor="start" x="30.5" y="-69.2" font-family="Helvetica,sans-Serif" font-size="11.00">r_request_id</text>
<polygon fill="none" stroke="black" points="205.5,-61 205.5,-83 311.5,-83 311.5,-61 205.5,-61"/>
<text text-anchor="start" x="208.5" y="-69.2" font-family="Helvetica,sans-Serif" font-size="11.00">numeric[10]</text>
<polygon fill="none" stroke="black" points="10.5,-39 10.5,-61 205.5,-61 205.5,-39 10.5,-39"/>
<text text-anchor="start" x="30.5" y="-47.2" font-family="Helvetica,sans-Serif" font-size="11.00">ad_user_id</text>
<polygon fill="none" stroke="black" points="205.5,-39 205.5,-61 311.5,-61 311.5,-39 205.5,-39"/>
<text text-anchor="start" x="208.5" y="-47.2" font-family="Helvetica,sans-Serif" font-size="11.00">numeric[10]</text>
<polygon fill="none" stroke="black" stroke-width="2" points="9,-38 9,-260 312,-260 312,-38 9,-38"/>
</a>
</g>
</g>
</g>
</svg>
