<?xml version="1.0" encoding="UTF-8" standalone="no"?>
<!DOCTYPE svg PUBLIC "-//W3C//DTD SVG 1.1//EN"
 "http://www.w3.org/Graphics/SVG/1.1/DTD/svg11.dtd">
<!-- Generated by graphviz version 2.43.0 (0)
 -->
<!-- Title: oneDegreeRelationshipsDiagram Pages: 1 -->
<svg width="867pt" height="962pt"
 viewBox="0.00 0.00 867.00 962.00" xmlns="http://www.w3.org/2000/svg" xmlns:xlink="http://www.w3.org/1999/xlink">
<g id="graph0" class="graph" transform="scale(1 1) rotate(0) translate(4 958)">
<title>oneDegreeRelationshipsDiagram</title>
<polygon fill="#ffffff" stroke="transparent" points="-4,4 -4,-958 863,-958 863,4 -4,4"/>
<text text-anchor="middle" x="71.5" y="-7.2" font-family="Helvetica,sans-Serif" font-size="11.00">Generated by SchemaSpy</text>
<!-- s_resource -->
<g id="node1" class="node">
<title>s_resource</title>
<g id="a_node1"><a xlink:href="../../tables/s_resource.html" xlink:title="s_resource" target="_top">
<polygon fill="#ffffff" stroke="transparent" points="626,-782 626,-950 851,-950 851,-782 626,-782"/>
<polygon fill="#f5f5f5" stroke="transparent" points="626.5,-928 626.5,-950 851.5,-950 851.5,-928 626.5,-928"/>
<polygon fill="none" stroke="black" points="626.5,-928 626.5,-950 851.5,-950 851.5,-928 626.5,-928"/>
<text text-anchor="start" x="631.5" y="-937.2" font-family="Helvetica,sans-Serif" font-weight="bold" font-size="11.00">s_resource</text>
<text text-anchor="start" x="816.5" y="-936.2" font-family="Helvetica,sans-Serif" font-size="11.00">[table]</text>
<polygon fill="none" stroke="black" points="626.5,-906 626.5,-928 851.5,-928 851.5,-906 626.5,-906"/>
<image xlink:href="../../images/primaryKeys.png" width="11px" height="12px" preserveAspectRatio="xMinYMin meet" x="631.5" y="-923"/>
<text text-anchor="start" x="646.5" y="-914.2" font-family="Helvetica,sans-Serif" font-size="11.00">s_resource_id</text>
<polygon fill="none" stroke="black" points="626.5,-884 626.5,-906 851.5,-906 851.5,-884 626.5,-884"/>
<image xlink:href="../../images/foreignKeys.png" width="11px" height="12px" preserveAspectRatio="xMinYMin meet" x="631.5" y="-901"/>
<text text-anchor="start" x="646.5" y="-892.2" font-family="Helvetica,sans-Serif" font-size="11.00">s_resourcetype_id</text>
<polygon fill="none" stroke="black" points="626.5,-862 626.5,-884 851.5,-884 851.5,-862 626.5,-862"/>
<image xlink:href="../../images/foreignKeys.png" width="11px" height="12px" preserveAspectRatio="xMinYMin meet" x="631.5" y="-879"/>
<text text-anchor="start" x="646.5" y="-870.2" font-family="Helvetica,sans-Serif" font-size="11.00">m_warehouse_id</text>
<polygon fill="none" stroke="black" points="626.5,-840 626.5,-862 851.5,-862 851.5,-840 626.5,-840"/>
<image xlink:href="../../images/foreignKeys.png" width="11px" height="12px" preserveAspectRatio="xMinYMin meet" x="631.5" y="-857"/>
<text text-anchor="start" x="646.5" y="-848.2" font-family="Helvetica,sans-Serif" font-size="11.00">ad_user_id</text>
<polygon fill="#ffffff" stroke="transparent" points="626.5,-818 626.5,-840 851.5,-840 851.5,-818 626.5,-818"/>
<polygon fill="none" stroke="black" points="626.5,-818 626.5,-840 851.5,-840 851.5,-818 626.5,-818"/>
<text text-anchor="start" x="646.5" y="-826.2" font-family="Helvetica,sans-Serif" font-size="11.00">s_resource_uu</text>
<polygon fill="none" stroke="black" points="626.5,-800 626.5,-818 851.5,-818 851.5,-800 626.5,-800"/>
<text text-anchor="start" x="629.5" y="-806.2" font-family="Helvetica,sans-Serif" font-size="11.00">...</text>
<polygon fill="#ffffff" stroke="transparent" points="626.5,-782 626.5,-800 851.5,-800 851.5,-782 626.5,-782"/>
<polygon fill="none" stroke="black" points="626.5,-782 626.5,-800 851.5,-800 851.5,-782 626.5,-782"/>
<polygon fill="#ffffff" stroke="transparent" points="627.5,-783 627.5,-799 703.5,-799 703.5,-783 627.5,-783"/>
<text text-anchor="start" x="629.5" y="-788.2" font-family="Helvetica,sans-Serif" font-size="11.00">&lt; 3</text>
<polygon fill="#ffffff" stroke="transparent" points="703.5,-783 703.5,-799 769.5,-799 769.5,-783 703.5,-783"/>
<text text-anchor="start" x="733" y="-788.2" font-family="Helvetica,sans-Serif" font-size="11.00"> &#160;</text>
<polygon fill="#ffffff" stroke="transparent" points="769.5,-783 769.5,-799 850.5,-799 850.5,-783 769.5,-783"/>
<text text-anchor="start" x="826.5" y="-788.2" font-family="Helvetica,sans-Serif" font-size="11.00">15 &gt;</text>
<polygon fill="black" stroke="black" points="703.5,-783 703.5,-799 703.5,-799 703.5,-783 703.5,-783"/>
<polygon fill="black" stroke="black" points="769.5,-783 769.5,-799 769.5,-799 769.5,-783 769.5,-783"/>
</a>
</g>
</g>
<!-- s_resourcetype -->
<g id="node2" class="node">
<title>s_resourcetype</title>
<g id="a_node2"><a xlink:href="../../tables/s_resourcetype.html" xlink:title="s_resourcetype" target="_top">
<polygon fill="#ffffff" stroke="transparent" points="301,-248 301,-930 577,-930 577,-248 301,-248"/>
<polygon fill="#f5f5f5" stroke="transparent" points="303,-906 303,-928 575,-928 575,-906 303,-906"/>
<polygon fill="none" stroke="black" points="303,-906 303,-928 575,-928 575,-906 303,-906"/>
<text text-anchor="start" x="308" y="-915.2" font-family="Helvetica,sans-Serif" font-weight="bold" font-size="11.00">s_resourcetype</text>
<text text-anchor="start" x="540" y="-914.2" font-family="Helvetica,sans-Serif" font-size="11.00">[table]</text>
<polygon fill="none" stroke="black" points="303,-884 303,-906 492,-906 492,-884 303,-884"/>
<image xlink:href="../../images/primaryKeys.png" width="11px" height="12px" preserveAspectRatio="xMinYMin meet" x="308" y="-901"/>
<text text-anchor="start" x="323" y="-892.2" font-family="Helvetica,sans-Serif" font-size="11.00">s_resourcetype_id</text>
<polygon fill="none" stroke="black" points="492,-884 492,-906 575,-906 575,-884 492,-884"/>
<text text-anchor="start" x="495" y="-892.2" font-family="Helvetica,sans-Serif" font-size="11.00">numeric[10]</text>
<polygon fill="none" stroke="black" points="303,-862 303,-884 492,-884 492,-862 303,-862"/>
<text text-anchor="start" x="323" y="-870.2" font-family="Helvetica,sans-Serif" font-size="11.00">ad_client_id</text>
<polygon fill="none" stroke="black" points="492,-862 492,-884 575,-884 575,-862 492,-862"/>
<text text-anchor="start" x="495" y="-870.2" font-family="Helvetica,sans-Serif" font-size="11.00">numeric[10]</text>
<polygon fill="none" stroke="black" points="303,-840 303,-862 492,-862 492,-840 303,-840"/>
<text text-anchor="start" x="323" y="-848.2" font-family="Helvetica,sans-Serif" font-size="11.00">ad_org_id</text>
<polygon fill="none" stroke="black" points="492,-840 492,-862 575,-862 575,-840 492,-840"/>
<text text-anchor="start" x="495" y="-848.2" font-family="Helvetica,sans-Serif" font-size="11.00">numeric[10]</text>
<polygon fill="none" stroke="black" points="303,-818 303,-840 492,-840 492,-818 303,-818"/>
<text text-anchor="start" x="323" y="-826.2" font-family="Helvetica,sans-Serif" font-size="11.00">isactive</text>
<polygon fill="none" stroke="black" points="492,-818 492,-840 575,-840 575,-818 492,-818"/>
<text text-anchor="start" x="495" y="-826.2" font-family="Helvetica,sans-Serif" font-size="11.00">bpchar[1]</text>
<polygon fill="none" stroke="black" points="303,-796 303,-818 492,-818 492,-796 303,-796"/>
<text text-anchor="start" x="323" y="-804.2" font-family="Helvetica,sans-Serif" font-size="11.00">created</text>
<polygon fill="none" stroke="black" points="492,-796 492,-818 575,-818 575,-796 492,-796"/>
<text text-anchor="start" x="495" y="-804.2" font-family="Helvetica,sans-Serif" font-size="11.00">timestamp[29,6]</text>
<polygon fill="none" stroke="black" points="303,-774 303,-796 492,-796 492,-774 303,-774"/>
<text text-anchor="start" x="323" y="-782.2" font-family="Helvetica,sans-Serif" font-size="11.00">createdby</text>
<polygon fill="none" stroke="black" points="492,-774 492,-796 575,-796 575,-774 492,-774"/>
<text text-anchor="start" x="495" y="-782.2" font-family="Helvetica,sans-Serif" font-size="11.00">numeric[10]</text>
<polygon fill="none" stroke="black" points="303,-752 303,-774 492,-774 492,-752 303,-752"/>
<text text-anchor="start" x="323" y="-760.2" font-family="Helvetica,sans-Serif" font-size="11.00">updated</text>
<polygon fill="none" stroke="black" points="492,-752 492,-774 575,-774 575,-752 492,-752"/>
<text text-anchor="start" x="495" y="-760.2" font-family="Helvetica,sans-Serif" font-size="11.00">timestamp[29,6]</text>
<polygon fill="none" stroke="black" points="303,-730 303,-752 492,-752 492,-730 303,-730"/>
<text text-anchor="start" x="323" y="-738.2" font-family="Helvetica,sans-Serif" font-size="11.00">updatedby</text>
<polygon fill="none" stroke="black" points="492,-730 492,-752 575,-752 575,-730 492,-730"/>
<text text-anchor="start" x="495" y="-738.2" font-family="Helvetica,sans-Serif" font-size="11.00">numeric[10]</text>
<polygon fill="none" stroke="black" points="303,-708 303,-730 492,-730 492,-708 303,-708"/>
<text text-anchor="start" x="323" y="-716.2" font-family="Helvetica,sans-Serif" font-size="11.00">value</text>
<polygon fill="none" stroke="black" points="492,-708 492,-730 575,-730 575,-708 492,-708"/>
<text text-anchor="start" x="495" y="-716.2" font-family="Helvetica,sans-Serif" font-size="11.00">varchar[40]</text>
<polygon fill="none" stroke="black" points="303,-686 303,-708 492,-708 492,-686 303,-686"/>
<text text-anchor="start" x="323" y="-694.2" font-family="Helvetica,sans-Serif" font-size="11.00">name</text>
<polygon fill="none" stroke="black" points="492,-686 492,-708 575,-708 575,-686 492,-686"/>
<text text-anchor="start" x="495" y="-694.2" font-family="Helvetica,sans-Serif" font-size="11.00">varchar[60]</text>
<polygon fill="none" stroke="black" points="303,-664 303,-686 492,-686 492,-664 303,-664"/>
<text text-anchor="start" x="323" y="-672.2" font-family="Helvetica,sans-Serif" font-size="11.00">description</text>
<polygon fill="none" stroke="black" points="492,-664 492,-686 575,-686 575,-664 492,-664"/>
<text text-anchor="start" x="495" y="-672.2" font-family="Helvetica,sans-Serif" font-size="11.00">varchar[255]</text>
<polygon fill="none" stroke="black" points="303,-642 303,-664 492,-664 492,-642 303,-642"/>
<text text-anchor="start" x="323" y="-650.2" font-family="Helvetica,sans-Serif" font-size="11.00">issingleassignment</text>
<polygon fill="none" stroke="black" points="492,-642 492,-664 575,-664 575,-642 492,-642"/>
<text text-anchor="start" x="495" y="-650.2" font-family="Helvetica,sans-Serif" font-size="11.00">bpchar[1]</text>
<polygon fill="none" stroke="black" points="303,-620 303,-642 492,-642 492,-620 303,-620"/>
<image xlink:href="../../images/foreignKeys.png" width="11px" height="12px" preserveAspectRatio="xMinYMin meet" x="308" y="-637"/>
<text text-anchor="start" x="323" y="-628.2" font-family="Helvetica,sans-Serif" font-size="11.00">c_uom_id</text>
<polygon fill="none" stroke="black" points="492,-620 492,-642 575,-642 575,-620 492,-620"/>
<text text-anchor="start" x="495" y="-628.2" font-family="Helvetica,sans-Serif" font-size="11.00">numeric[10]</text>
<polygon fill="none" stroke="black" points="303,-598 303,-620 492,-620 492,-598 303,-598"/>
<text text-anchor="start" x="323" y="-606.2" font-family="Helvetica,sans-Serif" font-size="11.00">allowuomfractions</text>
<polygon fill="none" stroke="black" points="492,-598 492,-620 575,-620 575,-598 492,-598"/>
<text text-anchor="start" x="495" y="-606.2" font-family="Helvetica,sans-Serif" font-size="11.00">bpchar[1]</text>
<polygon fill="none" stroke="black" points="303,-576 303,-598 492,-598 492,-576 303,-576"/>
<text text-anchor="start" x="323" y="-584.2" font-family="Helvetica,sans-Serif" font-size="11.00">timeslotstart</text>
<polygon fill="none" stroke="black" points="492,-576 492,-598 575,-598 575,-576 492,-576"/>
<text text-anchor="start" x="495" y="-584.2" font-family="Helvetica,sans-Serif" font-size="11.00">timestamp[29,6]</text>
<polygon fill="none" stroke="black" points="303,-554 303,-576 492,-576 492,-554 303,-554"/>
<text text-anchor="start" x="323" y="-562.2" font-family="Helvetica,sans-Serif" font-size="11.00">timeslotend</text>
<polygon fill="none" stroke="black" points="492,-554 492,-576 575,-576 575,-554 492,-554"/>
<text text-anchor="start" x="495" y="-562.2" font-family="Helvetica,sans-Serif" font-size="11.00">timestamp[29,6]</text>
<polygon fill="none" stroke="black" points="303,-532 303,-554 492,-554 492,-532 303,-532"/>
<text text-anchor="start" x="323" y="-540.2" font-family="Helvetica,sans-Serif" font-size="11.00">istimeslot</text>
<polygon fill="none" stroke="black" points="492,-532 492,-554 575,-554 575,-532 492,-532"/>
<text text-anchor="start" x="495" y="-540.2" font-family="Helvetica,sans-Serif" font-size="11.00">bpchar[1]</text>
<polygon fill="none" stroke="black" points="303,-510 303,-532 492,-532 492,-510 303,-510"/>
<text text-anchor="start" x="323" y="-518.2" font-family="Helvetica,sans-Serif" font-size="11.00">isdateslot</text>
<polygon fill="none" stroke="black" points="492,-510 492,-532 575,-532 575,-510 492,-510"/>
<text text-anchor="start" x="495" y="-518.2" font-family="Helvetica,sans-Serif" font-size="11.00">bpchar[1]</text>
<polygon fill="none" stroke="black" points="303,-488 303,-510 492,-510 492,-488 303,-488"/>
<text text-anchor="start" x="323" y="-496.2" font-family="Helvetica,sans-Serif" font-size="11.00">onsunday</text>
<polygon fill="none" stroke="black" points="492,-488 492,-510 575,-510 575,-488 492,-488"/>
<text text-anchor="start" x="495" y="-496.2" font-family="Helvetica,sans-Serif" font-size="11.00">bpchar[1]</text>
<polygon fill="none" stroke="black" points="303,-466 303,-488 492,-488 492,-466 303,-466"/>
<text text-anchor="start" x="323" y="-474.2" font-family="Helvetica,sans-Serif" font-size="11.00">onmonday</text>
<polygon fill="none" stroke="black" points="492,-466 492,-488 575,-488 575,-466 492,-466"/>
<text text-anchor="start" x="495" y="-474.2" font-family="Helvetica,sans-Serif" font-size="11.00">bpchar[1]</text>
<polygon fill="none" stroke="black" points="303,-444 303,-466 492,-466 492,-444 303,-444"/>
<text text-anchor="start" x="323" y="-452.2" font-family="Helvetica,sans-Serif" font-size="11.00">ontuesday</text>
<polygon fill="none" stroke="black" points="492,-444 492,-466 575,-466 575,-444 492,-444"/>
<text text-anchor="start" x="495" y="-452.2" font-family="Helvetica,sans-Serif" font-size="11.00">bpchar[1]</text>
<polygon fill="none" stroke="black" points="303,-422 303,-444 492,-444 492,-422 303,-422"/>
<text text-anchor="start" x="323" y="-430.2" font-family="Helvetica,sans-Serif" font-size="11.00">onwednesday</text>
<polygon fill="none" stroke="black" points="492,-422 492,-444 575,-444 575,-422 492,-422"/>
<text text-anchor="start" x="495" y="-430.2" font-family="Helvetica,sans-Serif" font-size="11.00">bpchar[1]</text>
<polygon fill="none" stroke="black" points="303,-400 303,-422 492,-422 492,-400 303,-400"/>
<text text-anchor="start" x="323" y="-408.2" font-family="Helvetica,sans-Serif" font-size="11.00">onthursday</text>
<polygon fill="none" stroke="black" points="492,-400 492,-422 575,-422 575,-400 492,-400"/>
<text text-anchor="start" x="495" y="-408.2" font-family="Helvetica,sans-Serif" font-size="11.00">bpchar[1]</text>
<polygon fill="none" stroke="black" points="303,-378 303,-400 492,-400 492,-378 303,-378"/>
<text text-anchor="start" x="323" y="-386.2" font-family="Helvetica,sans-Serif" font-size="11.00">onfriday</text>
<polygon fill="none" stroke="black" points="492,-378 492,-400 575,-400 575,-378 492,-378"/>
<text text-anchor="start" x="495" y="-386.2" font-family="Helvetica,sans-Serif" font-size="11.00">bpchar[1]</text>
<polygon fill="none" stroke="black" points="303,-356 303,-378 492,-378 492,-356 303,-356"/>
<text text-anchor="start" x="323" y="-364.2" font-family="Helvetica,sans-Serif" font-size="11.00">onsaturday</text>
<polygon fill="none" stroke="black" points="492,-356 492,-378 575,-378 575,-356 492,-356"/>
<text text-anchor="start" x="495" y="-364.2" font-family="Helvetica,sans-Serif" font-size="11.00">bpchar[1]</text>
<polygon fill="none" stroke="black" points="303,-334 303,-356 492,-356 492,-334 303,-334"/>
<image xlink:href="../../images/foreignKeys.png" width="11px" height="12px" preserveAspectRatio="xMinYMin meet" x="308" y="-351"/>
<text text-anchor="start" x="323" y="-342.2" font-family="Helvetica,sans-Serif" font-size="11.00">m_product_category_id</text>
<polygon fill="none" stroke="black" points="492,-334 492,-356 575,-356 575,-334 492,-334"/>
<text text-anchor="start" x="495" y="-342.2" font-family="Helvetica,sans-Serif" font-size="11.00">numeric[10]</text>
<polygon fill="none" stroke="black" points="303,-312 303,-334 492,-334 492,-312 303,-312"/>
<image xlink:href="../../images/foreignKeys.png" width="11px" height="12px" preserveAspectRatio="xMinYMin meet" x="308" y="-329"/>
<text text-anchor="start" x="323" y="-320.2" font-family="Helvetica,sans-Serif" font-size="11.00">c_taxcategory_id</text>
<polygon fill="none" stroke="black" points="492,-312 492,-334 575,-334 575,-312 492,-312"/>
<text text-anchor="start" x="495" y="-320.2" font-family="Helvetica,sans-Serif" font-size="11.00">numeric[10]</text>
<polygon fill="none" stroke="black" points="303,-290 303,-312 492,-312 492,-290 303,-290"/>
<text text-anchor="start" x="323" y="-298.2" font-family="Helvetica,sans-Serif" font-size="11.00">chargeableqty</text>
<polygon fill="none" stroke="black" points="492,-290 492,-312 575,-312 575,-290 492,-290"/>
<text text-anchor="start" x="495" y="-298.2" font-family="Helvetica,sans-Serif" font-size="11.00">numeric[0]</text>
<polygon fill="#ffffff" stroke="transparent" points="303,-268 303,-290 492,-290 492,-268 303,-268"/>
<polygon fill="none" stroke="black" points="303,-268 303,-290 492,-290 492,-268 303,-268"/>
<text text-anchor="start" x="323" y="-276.2" font-family="Helvetica,sans-Serif" font-size="11.00">s_resourcetype_uu</text>
<polygon fill="none" stroke="black" points="492,-268 492,-290 575,-290 575,-268 492,-268"/>
<text text-anchor="start" x="495" y="-276.2" font-family="Helvetica,sans-Serif" font-size="11.00">varchar[36]</text>
<polygon fill="#ffffff" stroke="transparent" points="303,-250 303,-268 575,-268 575,-250 303,-250"/>
<polygon fill="none" stroke="black" points="303,-250 303,-268 575,-268 575,-250 303,-250"/>
<polygon fill="#ffffff" stroke="transparent" points="304,-251 304,-267 397,-267 397,-251 304,-251"/>
<text text-anchor="start" x="306" y="-256.2" font-family="Helvetica,sans-Serif" font-size="11.00">&lt; 3</text>
<polygon fill="#ffffff" stroke="transparent" points="397,-251 397,-267 481,-267 481,-251 397,-251"/>
<text text-anchor="start" x="435.5" y="-256.2" font-family="Helvetica,sans-Serif" font-size="11.00"> &#160;</text>
<polygon fill="#ffffff" stroke="transparent" points="481,-251 481,-267 574,-267 574,-251 481,-251"/>
<text text-anchor="start" x="556" y="-256.2" font-family="Helvetica,sans-Serif" font-size="11.00">1 &gt;</text>
<polygon fill="black" stroke="black" points="397,-251 397,-267 397,-267 397,-251 397,-251"/>
<polygon fill="black" stroke="black" points="481,-251 481,-267 481,-267 481,-251 481,-251"/>
<polygon fill="none" stroke="black" stroke-width="2" points="302,-249 302,-929 576,-929 576,-249 302,-249"/>
</a>
</g>
</g>
<!-- s_resource&#45;&gt;s_resourcetype -->
<g id="edge1" class="edge">
<title>s_resource:w&#45;&gt;s_resourcetype:e</title>
<path fill="none" stroke="black" d="M610.84,-895C599.41,-895 592.16,-895 576,-895"/>
<polygon fill="black" stroke="black" points="617.5,-895 625.5,-898.6 621.5,-895 625.5,-895 625.5,-895 625.5,-895 621.5,-895 625.5,-891.4 617.5,-895 617.5,-895"/>
<ellipse fill="none" stroke="black" cx="614.3" cy="-895" rx="3.2" ry="3.2"/>
</g>
<!-- c_taxcategory -->
<g id="node3" class="node">
<title>c_taxcategory</title>
<g id="a_node3"><a xlink:href="../../tables/c_taxcategory.html" xlink:title="c_taxcategory" target="_top">
<polygon fill="#ffffff" stroke="transparent" points="56,-37 56,-183 204,-183 204,-37 56,-37"/>
<polygon fill="#f5f5f5" stroke="transparent" points="56,-161 56,-183 204,-183 204,-161 56,-161"/>
<polygon fill="none" stroke="black" points="56,-161 56,-183 204,-183 204,-161 56,-161"/>
<text text-anchor="start" x="61" y="-170.2" font-family="Helvetica,sans-Serif" font-weight="bold" font-size="11.00">c_taxcategory</text>
<text text-anchor="start" x="169" y="-169.2" font-family="Helvetica,sans-Serif" font-size="11.00">[table]</text>
<polygon fill="none" stroke="black" points="56,-139 56,-161 204,-161 204,-139 56,-139"/>
<image xlink:href="../../images/primaryKeys.png" width="11px" height="12px" preserveAspectRatio="xMinYMin meet" x="61" y="-156"/>
<text text-anchor="start" x="76" y="-147.2" font-family="Helvetica,sans-Serif" font-size="11.00">c_taxcategory_id</text>
<polygon fill="#ffffff" stroke="transparent" points="56,-117 56,-139 204,-139 204,-117 56,-117"/>
<polygon fill="none" stroke="black" points="56,-117 56,-139 204,-139 204,-117 56,-117"/>
<text text-anchor="start" x="76" y="-125.2" font-family="Helvetica,sans-Serif" font-size="11.00">ad_client_id</text>
<polygon fill="#ffffff" stroke="transparent" points="56,-95 56,-117 204,-117 204,-95 56,-95"/>
<polygon fill="none" stroke="black" points="56,-95 56,-117 204,-117 204,-95 56,-95"/>
<text text-anchor="start" x="76" y="-103.2" font-family="Helvetica,sans-Serif" font-size="11.00">name</text>
<polygon fill="#ffffff" stroke="transparent" points="56,-73 56,-95 204,-95 204,-73 56,-73"/>
<polygon fill="none" stroke="black" points="56,-73 56,-95 204,-95 204,-73 56,-73"/>
<text text-anchor="start" x="76" y="-81.2" font-family="Helvetica,sans-Serif" font-size="11.00">c_taxcategory_uu</text>
<polygon fill="none" stroke="black" points="56,-55 56,-73 204,-73 204,-55 56,-55"/>
<text text-anchor="start" x="59" y="-61.2" font-family="Helvetica,sans-Serif" font-size="11.00">...</text>
<polygon fill="#ffffff" stroke="transparent" points="56,-37 56,-55 204,-55 204,-37 56,-37"/>
<polygon fill="none" stroke="black" points="56,-37 56,-55 204,-55 204,-37 56,-37"/>
<polygon fill="#ffffff" stroke="transparent" points="57,-38 57,-54 92,-54 92,-38 57,-38"/>
<text text-anchor="start" x="59" y="-43.2" font-family="Helvetica,sans-Serif" font-size="11.00"> &#160;</text>
<polygon fill="#ffffff" stroke="transparent" points="92,-38 92,-54 159,-54 159,-38 92,-38"/>
<text text-anchor="start" x="106" y="-43.2" font-family="Helvetica,sans-Serif" font-size="11.00">14 rows</text>
<polygon fill="#ffffff" stroke="transparent" points="159,-38 159,-54 203,-54 203,-38 159,-38"/>
<text text-anchor="start" x="185" y="-43.2" font-family="Helvetica,sans-Serif" font-size="11.00">8 &gt;</text>
<polygon fill="black" stroke="black" points="92,-38 92,-54 92,-54 92,-38 92,-38"/>
<polygon fill="black" stroke="black" points="159,-38 159,-54 159,-54 159,-38 159,-38"/>
</a>
</g>
</g>
<!-- s_resourcetype&#45;&gt;c_taxcategory -->
<g id="edge2" class="edge">
<title>s_resourcetype:w&#45;&gt;c_taxcategory:e</title>
<path fill="none" stroke="black" d="M287.29,-320.81C250.89,-307.62 291.38,-237.91 260,-193 242.23,-167.57 236.03,-150 205,-150"/>
<polygon fill="black" stroke="black" points="294.09,-321.82 301.47,-326.56 298.04,-322.41 302,-323 302,-323 302,-323 298.04,-322.41 302.53,-319.44 294.09,-321.82 294.09,-321.82"/>
<ellipse fill="none" stroke="black" cx="290.92" cy="-321.35" rx="3.2" ry="3.2"/>
</g>
<!-- c_uom -->
<g id="node4" class="node">
<title>c_uom</title>
<g id="a_node4"><a xlink:href="../../tables/c_uom.html" xlink:title="c_uom" target="_top">
<polygon fill="#ffffff" stroke="transparent" points="59.5,-474 59.5,-664 200.5,-664 200.5,-474 59.5,-474"/>
<polygon fill="#f5f5f5" stroke="transparent" points="60,-642 60,-664 201,-664 201,-642 60,-642"/>
<polygon fill="none" stroke="black" points="60,-642 60,-664 201,-664 201,-642 60,-642"/>
<text text-anchor="start" x="65" y="-651.2" font-family="Helvetica,sans-Serif" font-weight="bold" font-size="11.00">c_uom</text>
<text text-anchor="start" x="166" y="-650.2" font-family="Helvetica,sans-Serif" font-size="11.00">[table]</text>
<polygon fill="none" stroke="black" points="60,-620 60,-642 201,-642 201,-620 60,-620"/>
<image xlink:href="../../images/primaryKeys.png" width="11px" height="12px" preserveAspectRatio="xMinYMin meet" x="65" y="-637"/>
<text text-anchor="start" x="80" y="-628.2" font-family="Helvetica,sans-Serif" font-size="11.00">c_uom_id</text>
<polygon fill="#ffffff" stroke="transparent" points="60,-598 60,-620 201,-620 201,-598 60,-598"/>
<polygon fill="none" stroke="black" points="60,-598 60,-620 201,-620 201,-598 60,-598"/>
<image xlink:href="../../images/foreignKeys.png" width="11px" height="12px" preserveAspectRatio="xMinYMin meet" x="65" y="-615"/>
<text text-anchor="start" x="80" y="-606.2" font-family="Helvetica,sans-Serif" font-size="11.00">ad_client_id</text>
<polygon fill="none" stroke="black" points="60,-576 60,-598 201,-598 201,-576 60,-576"/>
<image xlink:href="../../images/foreignKeys.png" width="11px" height="12px" preserveAspectRatio="xMinYMin meet" x="65" y="-593"/>
<text text-anchor="start" x="80" y="-584.2" font-family="Helvetica,sans-Serif" font-size="11.00">ad_org_id</text>
<polygon fill="#ffffff" stroke="transparent" points="60,-554 60,-576 201,-576 201,-554 60,-554"/>
<polygon fill="none" stroke="black" points="60,-554 60,-576 201,-576 201,-554 60,-554"/>
<text text-anchor="start" x="80" y="-562.2" font-family="Helvetica,sans-Serif" font-size="11.00">x12de355</text>
<polygon fill="#ffffff" stroke="transparent" points="60,-532 60,-554 201,-554 201,-532 60,-532"/>
<polygon fill="none" stroke="black" points="60,-532 60,-554 201,-554 201,-532 60,-532"/>
<text text-anchor="start" x="80" y="-540.2" font-family="Helvetica,sans-Serif" font-size="11.00">name</text>
<polygon fill="#ffffff" stroke="transparent" points="60,-510 60,-532 201,-532 201,-510 60,-510"/>
<polygon fill="none" stroke="black" points="60,-510 60,-532 201,-532 201,-510 60,-510"/>
<text text-anchor="start" x="80" y="-518.2" font-family="Helvetica,sans-Serif" font-size="11.00">c_uom_uu</text>
<polygon fill="none" stroke="black" points="60,-492 60,-510 201,-510 201,-492 60,-492"/>
<text text-anchor="start" x="63" y="-498.2" font-family="Helvetica,sans-Serif" font-size="11.00">...</text>
<polygon fill="#ffffff" stroke="transparent" points="60,-474 60,-492 201,-492 201,-474 60,-474"/>
<polygon fill="none" stroke="black" points="60,-474 60,-492 201,-492 201,-474 60,-474"/>
<polygon fill="#ffffff" stroke="transparent" points="61,-475 61,-491 98,-491 98,-475 61,-475"/>
<text text-anchor="start" x="63" y="-480.2" font-family="Helvetica,sans-Serif" font-size="11.00">&lt; 2</text>
<polygon fill="#ffffff" stroke="transparent" points="98,-475 98,-491 158,-491 158,-475 98,-475"/>
<text text-anchor="start" x="108.5" y="-480.2" font-family="Helvetica,sans-Serif" font-size="11.00">72 rows</text>
<polygon fill="#ffffff" stroke="transparent" points="158,-475 158,-491 200,-491 200,-475 158,-475"/>
<text text-anchor="start" x="176" y="-480.2" font-family="Helvetica,sans-Serif" font-size="11.00">55 &gt;</text>
<polygon fill="black" stroke="black" points="98,-475 98,-491 98,-491 98,-475 98,-475"/>
<polygon fill="black" stroke="black" points="158,-475 158,-491 158,-491 158,-475 158,-475"/>
</a>
</g>
</g>
<!-- s_resourcetype&#45;&gt;c_uom -->
<g id="edge3" class="edge">
<title>s_resourcetype:w&#45;&gt;c_uom:e</title>
<path fill="none" stroke="black" d="M287.2,-631C254.38,-631 241.06,-631 202,-631"/>
<polygon fill="black" stroke="black" points="294,-631 302,-634.6 298,-631 302,-631 302,-631 302,-631 298,-631 302,-627.4 294,-631 294,-631"/>
<ellipse fill="none" stroke="black" cx="290.8" cy="-631" rx="3.2" ry="3.2"/>
</g>
<!-- m_product_category -->
<g id="node5" class="node">
<title>m_product_category</title>
<g id="a_node5"><a xlink:href="../../tables/m_product_category.html" xlink:title="m_product_category" target="_top">
<polygon fill="#ffffff" stroke="transparent" points="8,-204 8,-416 252,-416 252,-204 8,-204"/>
<polygon fill="#f5f5f5" stroke="transparent" points="8,-394 8,-416 252,-416 252,-394 8,-394"/>
<polygon fill="none" stroke="black" points="8,-394 8,-416 252,-416 252,-394 8,-394"/>
<text text-anchor="start" x="13" y="-403.2" font-family="Helvetica,sans-Serif" font-weight="bold" font-size="11.00">m_product_category</text>
<text text-anchor="start" x="217" y="-402.2" font-family="Helvetica,sans-Serif" font-size="11.00">[table]</text>
<polygon fill="none" stroke="black" points="8,-372 8,-394 252,-394 252,-372 8,-372"/>
<image xlink:href="../../images/primaryKeys.png" width="11px" height="12px" preserveAspectRatio="xMinYMin meet" x="13" y="-389"/>
<text text-anchor="start" x="28" y="-380.2" font-family="Helvetica,sans-Serif" font-size="11.00">m_product_category_id</text>
<polygon fill="#ffffff" stroke="transparent" points="8,-350 8,-372 252,-372 252,-350 8,-350"/>
<polygon fill="none" stroke="black" points="8,-350 8,-372 252,-372 252,-350 8,-350"/>
<text text-anchor="start" x="28" y="-358.2" font-family="Helvetica,sans-Serif" font-size="11.00">ad_client_id</text>
<polygon fill="#ffffff" stroke="transparent" points="8,-328 8,-350 252,-350 252,-328 8,-328"/>
<polygon fill="none" stroke="black" points="8,-328 8,-350 252,-350 252,-328 8,-328"/>
<text text-anchor="start" x="28" y="-336.2" font-family="Helvetica,sans-Serif" font-size="11.00">value</text>
<polygon fill="none" stroke="black" points="8,-306 8,-328 252,-328 252,-306 8,-306"/>
<image xlink:href="../../images/foreignKeys.png" width="11px" height="12px" preserveAspectRatio="xMinYMin meet" x="13" y="-323"/>
<text text-anchor="start" x="28" y="-314.2" font-family="Helvetica,sans-Serif" font-size="11.00">a_asset_group_id</text>
<polygon fill="none" stroke="black" points="8,-284 8,-306 252,-306 252,-284 8,-284"/>
<image xlink:href="../../images/foreignKeys.png" width="11px" height="12px" preserveAspectRatio="xMinYMin meet" x="13" y="-301"/>
<text text-anchor="start" x="28" y="-292.2" font-family="Helvetica,sans-Serif" font-size="11.00">ad_printcolor_id</text>
<polygon fill="none" stroke="black" points="8,-262 8,-284 252,-284 252,-262 8,-262"/>
<image xlink:href="../../images/foreignKeys.png" width="11px" height="12px" preserveAspectRatio="xMinYMin meet" x="13" y="-279"/>
<text text-anchor="start" x="28" y="-270.2" font-family="Helvetica,sans-Serif" font-size="11.00">m_product_category_parent_id</text>
<polygon fill="#ffffff" stroke="transparent" points="8,-240 8,-262 252,-262 252,-240 8,-240"/>
<polygon fill="none" stroke="black" points="8,-240 8,-262 252,-262 252,-240 8,-240"/>
<text text-anchor="start" x="28" y="-248.2" font-family="Helvetica,sans-Serif" font-size="11.00">m_product_category_uu</text>
<polygon fill="none" stroke="black" points="8,-222 8,-240 252,-240 252,-222 8,-222"/>
<text text-anchor="start" x="11" y="-228.2" font-family="Helvetica,sans-Serif" font-size="11.00">...</text>
<polygon fill="#ffffff" stroke="transparent" points="8,-204 8,-222 252,-222 252,-204 8,-204"/>
<polygon fill="none" stroke="black" points="8,-204 8,-222 252,-222 252,-204 8,-204"/>
<polygon fill="#ffffff" stroke="transparent" points="9,-205 9,-221 82,-221 82,-205 9,-205"/>
<text text-anchor="start" x="11" y="-210.2" font-family="Helvetica,sans-Serif" font-size="11.00">&lt; 3</text>
<polygon fill="#ffffff" stroke="transparent" points="82,-205 82,-221 172,-221 172,-205 82,-205"/>
<text text-anchor="start" x="110.5" y="-210.2" font-family="Helvetica,sans-Serif" font-size="11.00">5 rows</text>
<polygon fill="#ffffff" stroke="transparent" points="172,-205 172,-221 251,-221 251,-205 172,-205"/>
<text text-anchor="start" x="227" y="-210.2" font-family="Helvetica,sans-Serif" font-size="11.00">26 &gt;</text>
<polygon fill="black" stroke="black" points="82,-205 82,-221 82,-221 82,-205 82,-205"/>
<polygon fill="black" stroke="black" points="172,-205 172,-221 172,-221 172,-205 172,-205"/>
</a>
</g>
</g>
<!-- s_resourcetype&#45;&gt;m_product_category -->
<g id="edge4" class="edge">
<title>s_resourcetype:w&#45;&gt;m_product_category:e</title>
<path fill="none" stroke="black" d="M288.04,-349.66C275.51,-359.81 274.53,-383 253,-383"/>
<polygon fill="black" stroke="black" points="294.41,-347.53 303.14,-348.41 298.21,-346.27 302,-345 302,-345 302,-345 298.21,-346.27 300.86,-341.59 294.41,-347.53 294.41,-347.53"/>
<ellipse fill="none" stroke="black" cx="291.38" cy="-348.55" rx="3.2" ry="3.2"/>
</g>
</g>
</svg>
