<?xml version="1.0" encoding="UTF-8" standalone="no"?>
<!DOCTYPE svg PUBLIC "-//W3C//DTD SVG 1.1//EN"
 "http://www.w3.org/Graphics/SVG/1.1/DTD/svg11.dtd">
<!-- Generated by graphviz version 2.43.0 (0)
 -->
<!-- Title: oneDegreeRelationshipsDiagram Pages: 1 -->
<svg width="1221pt" height="752pt"
 viewBox="0.00 0.00 1221.00 752.00" xmlns="http://www.w3.org/2000/svg" xmlns:xlink="http://www.w3.org/1999/xlink">
<g id="graph0" class="graph" transform="scale(1 1) rotate(0) translate(4 748)">
<title>oneDegreeRelationshipsDiagram</title>
<polygon fill="#ffffff" stroke="transparent" points="-4,4 -4,-748 1217,-748 1217,4 -4,4"/>
<text text-anchor="middle" x="71.5" y="-7.2" font-family="Helvetica,sans-Serif" font-size="11.00">Generated by SchemaSpy</text>
<!-- ad_org -->
<g id="node1" class="node">
<title>ad_org</title>
<g id="a_node1"><a xlink:href="../../tables/ad_org.html" xlink:title="ad_org" target="_top">
<polygon fill="#ffffff" stroke="transparent" points="302,-411 302,-601 508,-601 508,-411 302,-411"/>
<polygon fill="#f5f5f5" stroke="transparent" points="302,-579 302,-601 508,-601 508,-579 302,-579"/>
<polygon fill="none" stroke="black" points="302,-579 302,-601 508,-601 508,-579 302,-579"/>
<text text-anchor="start" x="307" y="-588.2" font-family="Helvetica,sans-Serif" font-weight="bold" font-size="11.00">ad_org</text>
<text text-anchor="start" x="473" y="-587.2" font-family="Helvetica,sans-Serif" font-size="11.00">[table]</text>
<polygon fill="none" stroke="black" points="302,-557 302,-579 508,-579 508,-557 302,-557"/>
<image xlink:href="../../images/primaryKeys.png" width="11px" height="12px" preserveAspectRatio="xMinYMin meet" x="307" y="-574"/>
<text text-anchor="start" x="322" y="-565.2" font-family="Helvetica,sans-Serif" font-size="11.00">ad_org_id</text>
<polygon fill="#ffffff" stroke="transparent" points="302,-535 302,-557 508,-557 508,-535 302,-535"/>
<polygon fill="none" stroke="black" points="302,-535 302,-557 508,-557 508,-535 302,-535"/>
<image xlink:href="../../images/foreignKeys.png" width="11px" height="12px" preserveAspectRatio="xMinYMin meet" x="307" y="-552"/>
<text text-anchor="start" x="322" y="-543.2" font-family="Helvetica,sans-Serif" font-size="11.00">ad_client_id</text>
<polygon fill="#ffffff" stroke="transparent" points="302,-513 302,-535 508,-535 508,-513 302,-513"/>
<polygon fill="none" stroke="black" points="302,-513 302,-535 508,-535 508,-513 302,-513"/>
<text text-anchor="start" x="322" y="-521.2" font-family="Helvetica,sans-Serif" font-size="11.00">value</text>
<polygon fill="none" stroke="black" points="302,-491 302,-513 508,-513 508,-491 302,-491"/>
<image xlink:href="../../images/foreignKeys.png" width="11px" height="12px" preserveAspectRatio="xMinYMin meet" x="307" y="-508"/>
<text text-anchor="start" x="322" y="-499.2" font-family="Helvetica,sans-Serif" font-size="11.00">ad_replicationstrategy_id</text>
<polygon fill="#ffffff" stroke="transparent" points="302,-469 302,-491 508,-491 508,-469 302,-469"/>
<polygon fill="none" stroke="black" points="302,-469 302,-491 508,-491 508,-469 302,-469"/>
<text text-anchor="start" x="322" y="-477.2" font-family="Helvetica,sans-Serif" font-size="11.00">ad_org_uu</text>
<polygon fill="none" stroke="black" points="302,-447 302,-469 508,-469 508,-447 302,-447"/>
<image xlink:href="../../images/foreignKeys.png" width="11px" height="12px" preserveAspectRatio="xMinYMin meet" x="307" y="-464"/>
<text text-anchor="start" x="322" y="-455.2" font-family="Helvetica,sans-Serif" font-size="11.00">cof_c_snrange_id</text>
<polygon fill="none" stroke="black" points="302,-429 302,-447 508,-447 508,-429 302,-429"/>
<text text-anchor="start" x="305" y="-435.2" font-family="Helvetica,sans-Serif" font-size="11.00">...</text>
<polygon fill="#ffffff" stroke="transparent" points="302,-411 302,-429 508,-429 508,-411 302,-411"/>
<polygon fill="none" stroke="black" points="302,-411 302,-429 508,-429 508,-411 302,-411"/>
<polygon fill="#ffffff" stroke="transparent" points="303,-412 303,-428 362,-428 362,-412 303,-412"/>
<text text-anchor="start" x="305" y="-417.2" font-family="Helvetica,sans-Serif" font-size="11.00">&lt; 3</text>
<polygon fill="#ffffff" stroke="transparent" points="362,-412 362,-428 437,-428 437,-412 362,-412"/>
<text text-anchor="start" x="383" y="-417.2" font-family="Helvetica,sans-Serif" font-size="11.00">3 rows</text>
<polygon fill="#ffffff" stroke="transparent" points="437,-412 437,-428 507,-428 507,-412 437,-412"/>
<text text-anchor="start" x="477" y="-417.2" font-family="Helvetica,sans-Serif" font-size="11.00">284 &gt;</text>
<polygon fill="black" stroke="black" points="362,-412 362,-428 362,-428 362,-412 362,-412"/>
<polygon fill="black" stroke="black" points="437,-412 437,-428 437,-428 437,-412 437,-412"/>
</a>
</g>
</g>
<!-- ad_client -->
<g id="node2" class="node">
<title>ad_client</title>
<g id="a_node2"><a xlink:href="../../tables/ad_client.html" xlink:title="ad_client" target="_top">
<polygon fill="#ffffff" stroke="transparent" points="8,-459 8,-671 253,-671 253,-459 8,-459"/>
<polygon fill="#f5f5f5" stroke="transparent" points="8.5,-649 8.5,-671 253.5,-671 253.5,-649 8.5,-649"/>
<polygon fill="none" stroke="black" points="8.5,-649 8.5,-671 253.5,-671 253.5,-649 8.5,-649"/>
<text text-anchor="start" x="13.5" y="-658.2" font-family="Helvetica,sans-Serif" font-weight="bold" font-size="11.00">ad_client</text>
<text text-anchor="start" x="218.5" y="-657.2" font-family="Helvetica,sans-Serif" font-size="11.00">[table]</text>
<polygon fill="none" stroke="black" points="8.5,-627 8.5,-649 253.5,-649 253.5,-627 8.5,-627"/>
<image xlink:href="../../images/primaryKeys.png" width="11px" height="12px" preserveAspectRatio="xMinYMin meet" x="13.5" y="-644"/>
<text text-anchor="start" x="28.5" y="-635.2" font-family="Helvetica,sans-Serif" font-size="11.00">ad_client_id</text>
<polygon fill="#ffffff" stroke="transparent" points="8.5,-605 8.5,-627 253.5,-627 253.5,-605 8.5,-605"/>
<polygon fill="none" stroke="black" points="8.5,-605 8.5,-627 253.5,-627 253.5,-605 8.5,-605"/>
<text text-anchor="start" x="28.5" y="-613.2" font-family="Helvetica,sans-Serif" font-size="11.00">value</text>
<polygon fill="none" stroke="black" points="8.5,-583 8.5,-605 253.5,-605 253.5,-583 8.5,-583"/>
<image xlink:href="../../images/foreignKeys.png" width="11px" height="12px" preserveAspectRatio="xMinYMin meet" x="13.5" y="-600"/>
<text text-anchor="start" x="28.5" y="-591.2" font-family="Helvetica,sans-Serif" font-size="11.00">ad_language</text>
<polygon fill="none" stroke="black" points="8.5,-561 8.5,-583 253.5,-583 253.5,-561 8.5,-561"/>
<image xlink:href="../../images/foreignKeys.png" width="11px" height="12px" preserveAspectRatio="xMinYMin meet" x="13.5" y="-578"/>
<text text-anchor="start" x="28.5" y="-569.2" font-family="Helvetica,sans-Serif" font-size="11.00">ad_replicationstrategy_id</text>
<polygon fill="#ffffff" stroke="transparent" points="8.5,-539 8.5,-561 253.5,-561 253.5,-539 8.5,-539"/>
<polygon fill="none" stroke="black" points="8.5,-539 8.5,-561 253.5,-561 253.5,-539 8.5,-539"/>
<text text-anchor="start" x="28.5" y="-547.2" font-family="Helvetica,sans-Serif" font-size="11.00">ad_client_uu</text>
<polygon fill="none" stroke="black" points="8.5,-517 8.5,-539 253.5,-539 253.5,-517 8.5,-517"/>
<image xlink:href="../../images/foreignKeys.png" width="11px" height="12px" preserveAspectRatio="xMinYMin meet" x="13.5" y="-534"/>
<text text-anchor="start" x="28.5" y="-525.2" font-family="Helvetica,sans-Serif" font-size="11.00">ad_passwordrule_id</text>
<polygon fill="#ffffff" stroke="transparent" points="8.5,-495 8.5,-517 253.5,-517 253.5,-495 8.5,-495"/>
<polygon fill="none" stroke="black" points="8.5,-495 8.5,-517 253.5,-517 253.5,-495 8.5,-495"/>
<text text-anchor="start" x="28.5" y="-503.2" font-family="Helvetica,sans-Serif" font-size="11.00">loginprefix</text>
<polygon fill="none" stroke="black" points="8.5,-477 8.5,-495 253.5,-495 253.5,-477 8.5,-477"/>
<text text-anchor="start" x="11.5" y="-483.2" font-family="Helvetica,sans-Serif" font-size="11.00">...</text>
<polygon fill="#ffffff" stroke="transparent" points="8.5,-459 8.5,-477 253.5,-477 253.5,-459 8.5,-459"/>
<polygon fill="none" stroke="black" points="8.5,-459 8.5,-477 253.5,-477 253.5,-459 8.5,-459"/>
<polygon fill="#ffffff" stroke="transparent" points="9.5,-460 9.5,-476 81.5,-476 81.5,-460 9.5,-460"/>
<text text-anchor="start" x="11.5" y="-465.2" font-family="Helvetica,sans-Serif" font-size="11.00">&lt; 3</text>
<polygon fill="#ffffff" stroke="transparent" points="81.5,-460 81.5,-476 169.5,-476 169.5,-460 81.5,-460"/>
<text text-anchor="start" x="109" y="-465.2" font-family="Helvetica,sans-Serif" font-size="11.00">2 rows</text>
<polygon fill="#ffffff" stroke="transparent" points="169.5,-460 169.5,-476 252.5,-476 252.5,-460 169.5,-460"/>
<text text-anchor="start" x="222.5" y="-465.2" font-family="Helvetica,sans-Serif" font-size="11.00">204 &gt;</text>
<polygon fill="black" stroke="black" points="81.5,-460 81.5,-476 81.5,-476 81.5,-460 81.5,-460"/>
<polygon fill="black" stroke="black" points="169.5,-460 169.5,-476 169.5,-476 169.5,-460 169.5,-460"/>
</a>
</g>
</g>
<!-- ad_org&#45;&gt;ad_client -->
<g id="edge1" class="edge">
<title>ad_org:w&#45;&gt;ad_client:e</title>
<path fill="none" stroke="black" d="M287.13,-550.44C265.57,-568.81 294.23,-638 254.5,-638"/>
<polygon fill="black" stroke="black" points="293.38,-548.44 302.1,-549.43 297.19,-547.22 301,-546 301,-546 301,-546 297.19,-547.22 299.9,-542.57 293.38,-548.44 293.38,-548.44"/>
<ellipse fill="none" stroke="black" cx="290.33" cy="-549.41" rx="3.2" ry="3.2"/>
</g>
<!-- ad_user -->
<g id="node3" class="node">
<title>ad_user</title>
<g id="a_node3"><a xlink:href="../../tables/ad_user.html" xlink:title="ad_user" target="_top">
<polygon fill="#ffffff" stroke="transparent" points="557,-37 557,-601 797,-601 797,-37 557,-37"/>
<polygon fill="#f5f5f5" stroke="transparent" points="557,-579 557,-601 797,-601 797,-579 557,-579"/>
<polygon fill="none" stroke="black" points="557,-579 557,-601 797,-601 797,-579 557,-579"/>
<text text-anchor="start" x="562" y="-588.2" font-family="Helvetica,sans-Serif" font-weight="bold" font-size="11.00">ad_user</text>
<text text-anchor="start" x="762" y="-587.2" font-family="Helvetica,sans-Serif" font-size="11.00">[table]</text>
<polygon fill="none" stroke="black" points="557,-557 557,-579 797,-579 797,-557 557,-557"/>
<image xlink:href="../../images/primaryKeys.png" width="11px" height="12px" preserveAspectRatio="xMinYMin meet" x="562" y="-574"/>
<text text-anchor="start" x="577" y="-565.2" font-family="Helvetica,sans-Serif" font-size="11.00">ad_user_id</text>
<polygon fill="none" stroke="black" points="557,-535 557,-557 797,-557 797,-535 557,-535"/>
<image xlink:href="../../images/foreignKeys.png" width="11px" height="12px" preserveAspectRatio="xMinYMin meet" x="562" y="-552"/>
<text text-anchor="start" x="577" y="-543.2" font-family="Helvetica,sans-Serif" font-size="11.00">ad_client_id</text>
<polygon fill="none" stroke="black" points="557,-513 557,-535 797,-535 797,-513 557,-513"/>
<image xlink:href="../../images/foreignKeys.png" width="11px" height="12px" preserveAspectRatio="xMinYMin meet" x="562" y="-530"/>
<text text-anchor="start" x="577" y="-521.2" font-family="Helvetica,sans-Serif" font-size="11.00">ad_org_id</text>
<polygon fill="#ffffff" stroke="transparent" points="557,-491 557,-513 797,-513 797,-491 557,-491"/>
<polygon fill="none" stroke="black" points="557,-491 557,-513 797,-513 797,-491 557,-491"/>
<text text-anchor="start" x="577" y="-499.2" font-family="Helvetica,sans-Serif" font-size="11.00">name</text>
<polygon fill="#ffffff" stroke="transparent" points="557,-469 557,-491 797,-491 797,-469 557,-469"/>
<polygon fill="none" stroke="black" points="557,-469 557,-491 797,-491 797,-469 557,-469"/>
<text text-anchor="start" x="577" y="-477.2" font-family="Helvetica,sans-Serif" font-size="11.00">email</text>
<polygon fill="none" stroke="black" points="557,-447 557,-469 797,-469 797,-447 557,-447"/>
<image xlink:href="../../images/foreignKeys.png" width="11px" height="12px" preserveAspectRatio="xMinYMin meet" x="562" y="-464"/>
<text text-anchor="start" x="577" y="-455.2" font-family="Helvetica,sans-Serif" font-size="11.00">supervisor_id</text>
<polygon fill="#ffffff" stroke="transparent" points="557,-425 557,-447 797,-447 797,-425 557,-425"/>
<polygon fill="none" stroke="black" points="557,-425 557,-447 797,-447 797,-425 557,-425"/>
<image xlink:href="../../images/foreignKeys.png" width="11px" height="12px" preserveAspectRatio="xMinYMin meet" x="562" y="-442"/>
<text text-anchor="start" x="577" y="-433.2" font-family="Helvetica,sans-Serif" font-size="11.00">c_bpartner_id</text>
<polygon fill="none" stroke="black" points="557,-403 557,-425 797,-425 797,-403 557,-403"/>
<image xlink:href="../../images/foreignKeys.png" width="11px" height="12px" preserveAspectRatio="xMinYMin meet" x="562" y="-420"/>
<text text-anchor="start" x="577" y="-411.2" font-family="Helvetica,sans-Serif" font-size="11.00">c_bpartner_location_id</text>
<polygon fill="none" stroke="black" points="557,-381 557,-403 797,-403 797,-381 557,-381"/>
<image xlink:href="../../images/foreignKeys.png" width="11px" height="12px" preserveAspectRatio="xMinYMin meet" x="562" y="-398"/>
<text text-anchor="start" x="577" y="-389.2" font-family="Helvetica,sans-Serif" font-size="11.00">c_greeting_id</text>
<polygon fill="none" stroke="black" points="557,-359 557,-381 797,-381 797,-359 557,-359"/>
<image xlink:href="../../images/foreignKeys.png" width="11px" height="12px" preserveAspectRatio="xMinYMin meet" x="562" y="-376"/>
<text text-anchor="start" x="577" y="-367.2" font-family="Helvetica,sans-Serif" font-size="11.00">ad_orgtrx_id</text>
<polygon fill="none" stroke="black" points="557,-337 557,-359 797,-359 797,-337 557,-337"/>
<image xlink:href="../../images/foreignKeys.png" width="11px" height="12px" preserveAspectRatio="xMinYMin meet" x="562" y="-354"/>
<text text-anchor="start" x="577" y="-345.2" font-family="Helvetica,sans-Serif" font-size="11.00">c_job_id</text>
<polygon fill="#ffffff" stroke="transparent" points="557,-315 557,-337 797,-337 797,-315 557,-315"/>
<polygon fill="none" stroke="black" points="557,-315 557,-337 797,-337 797,-315 557,-315"/>
<text text-anchor="start" x="577" y="-323.2" font-family="Helvetica,sans-Serif" font-size="11.00">ad_user_uu</text>
<polygon fill="none" stroke="black" points="557,-293 557,-315 797,-315 797,-293 557,-293"/>
<image xlink:href="../../images/foreignKeys.png" width="11px" height="12px" preserveAspectRatio="xMinYMin meet" x="562" y="-310"/>
<text text-anchor="start" x="577" y="-301.2" font-family="Helvetica,sans-Serif" font-size="11.00">c_location_id</text>
<polygon fill="none" stroke="black" points="557,-271 557,-293 797,-293 797,-271 557,-271"/>
<image xlink:href="../../images/foreignKeys.png" width="11px" height="12px" preserveAspectRatio="xMinYMin meet" x="562" y="-288"/>
<text text-anchor="start" x="577" y="-279.2" font-family="Helvetica,sans-Serif" font-size="11.00">c_campaign_id</text>
<polygon fill="none" stroke="black" points="557,-249 557,-271 797,-271 797,-249 557,-249"/>
<image xlink:href="../../images/foreignKeys.png" width="11px" height="12px" preserveAspectRatio="xMinYMin meet" x="562" y="-266"/>
<text text-anchor="start" x="577" y="-257.2" font-family="Helvetica,sans-Serif" font-size="11.00">salesrep_id</text>
<polygon fill="none" stroke="black" points="557,-227 557,-249 797,-249 797,-227 557,-227"/>
<image xlink:href="../../images/foreignKeys.png" width="11px" height="12px" preserveAspectRatio="xMinYMin meet" x="562" y="-244"/>
<text text-anchor="start" x="577" y="-235.2" font-family="Helvetica,sans-Serif" font-size="11.00">bp_location_id</text>
<polygon fill="none" stroke="black" points="557,-205 557,-227 797,-227 797,-205 557,-205"/>
<image xlink:href="../../images/foreignKeys.png" width="11px" height="12px" preserveAspectRatio="xMinYMin meet" x="562" y="-222"/>
<text text-anchor="start" x="577" y="-213.2" font-family="Helvetica,sans-Serif" font-size="11.00">r_defaultmailtext_id</text>
<polygon fill="none" stroke="black" points="557,-183 557,-205 797,-205 797,-183 557,-183"/>
<image xlink:href="../../images/foreignKeys.png" width="11px" height="12px" preserveAspectRatio="xMinYMin meet" x="562" y="-200"/>
<text text-anchor="start" x="577" y="-191.2" font-family="Helvetica,sans-Serif" font-size="11.00">cof_c_marketsegment_id</text>
<polygon fill="none" stroke="black" points="557,-161 557,-183 797,-183 797,-161 557,-161"/>
<image xlink:href="../../images/foreignKeys.png" width="11px" height="12px" preserveAspectRatio="xMinYMin meet" x="562" y="-178"/>
<text text-anchor="start" x="577" y="-169.2" font-family="Helvetica,sans-Serif" font-size="11.00">cof_c_leadexpirationreason_id</text>
<polygon fill="none" stroke="black" points="557,-139 557,-161 797,-161 797,-139 557,-139"/>
<image xlink:href="../../images/foreignKeys.png" width="11px" height="12px" preserveAspectRatio="xMinYMin meet" x="562" y="-156"/>
<text text-anchor="start" x="577" y="-147.2" font-family="Helvetica,sans-Serif" font-size="11.00">ad_image_id</text>
<polygon fill="none" stroke="black" points="557,-117 557,-139 797,-139 797,-117 557,-117"/>
<image xlink:href="../../images/foreignKeys.png" width="11px" height="12px" preserveAspectRatio="xMinYMin meet" x="562" y="-134"/>
<text text-anchor="start" x="577" y="-125.2" font-family="Helvetica,sans-Serif" font-size="11.00">c_subscription_id</text>
<polygon fill="none" stroke="black" points="557,-95 557,-117 797,-117 797,-95 557,-95"/>
<image xlink:href="../../images/foreignKeys.png" width="11px" height="12px" preserveAspectRatio="xMinYMin meet" x="562" y="-112"/>
<text text-anchor="start" x="577" y="-103.2" font-family="Helvetica,sans-Serif" font-size="11.00">cof_responsavelindicacao_id</text>
<polygon fill="none" stroke="black" points="557,-73 557,-95 797,-95 797,-73 557,-73"/>
<image xlink:href="../../images/foreignKeys.png" width="11px" height="12px" preserveAspectRatio="xMinYMin meet" x="562" y="-90"/>
<text text-anchor="start" x="577" y="-81.2" font-family="Helvetica,sans-Serif" font-size="11.00">cof_respatribuicao_id</text>
<polygon fill="none" stroke="black" points="557,-55 557,-73 797,-73 797,-55 557,-55"/>
<text text-anchor="start" x="560" y="-61.2" font-family="Helvetica,sans-Serif" font-size="11.00">...</text>
<polygon fill="#ffffff" stroke="transparent" points="557,-37 557,-55 797,-55 797,-37 557,-37"/>
<polygon fill="none" stroke="black" points="557,-37 557,-55 797,-55 797,-37 557,-37"/>
<polygon fill="#ffffff" stroke="transparent" points="558,-38 558,-54 632,-54 632,-38 558,-38"/>
<text text-anchor="start" x="560" y="-43.2" font-family="Helvetica,sans-Serif" font-size="11.00">&lt; 19</text>
<polygon fill="#ffffff" stroke="transparent" points="632,-38 632,-54 717,-54 717,-38 632,-38"/>
<text text-anchor="start" x="658" y="-43.2" font-family="Helvetica,sans-Serif" font-size="11.00">8 rows</text>
<polygon fill="#ffffff" stroke="transparent" points="717,-38 717,-54 796,-54 796,-38 717,-38"/>
<text text-anchor="start" x="766" y="-43.2" font-family="Helvetica,sans-Serif" font-size="11.00">444 &gt;</text>
<polygon fill="black" stroke="black" points="632,-38 632,-54 632,-54 632,-38 632,-38"/>
<polygon fill="black" stroke="black" points="717,-38 717,-54 717,-54 717,-38 717,-38"/>
</a>
</g>
</g>
<!-- ad_user&#45;&gt;ad_org -->
<g id="edge3" class="edge">
<title>ad_user:w&#45;&gt;ad_org:e</title>
<path fill="none" stroke="black" d="M542.35,-529.05C529.97,-540.6 531.58,-568 509,-568"/>
<polygon fill="black" stroke="black" points="548.5,-526.77 557.25,-527.38 552.25,-525.39 556,-524 556,-524 556,-524 552.25,-525.39 554.75,-520.62 548.5,-526.77 548.5,-526.77"/>
<ellipse fill="none" stroke="black" cx="545.5" cy="-527.88" rx="3.2" ry="3.2"/>
</g>
<!-- ad_user&#45;&gt;ad_org -->
<g id="edge4" class="edge">
<title>ad_user:w&#45;&gt;ad_org:e</title>
<path fill="none" stroke="black" d="M541.56,-372.22C481.41,-393.98 593.79,-568 509,-568"/>
<polygon fill="black" stroke="black" points="548.09,-371.22 556.55,-373.56 552.05,-370.61 556,-370 556,-370 556,-370 552.05,-370.61 555.45,-366.44 548.09,-371.22 548.09,-371.22"/>
<ellipse fill="none" stroke="black" cx="544.93" cy="-371.7" rx="3.2" ry="3.2"/>
</g>
<!-- ad_user&#45;&gt;ad_client -->
<g id="edge2" class="edge">
<title>ad_user:w&#45;&gt;ad_client:e</title>
<path fill="none" stroke="black" d="M542.06,-550.52C528.6,-562.86 539.57,-597.14 516,-612 466.6,-643.14 312.9,-638 254.5,-638"/>
<polygon fill="black" stroke="black" points="548.39,-548.47 557.11,-549.42 552.2,-547.23 556,-546 556,-546 556,-546 552.2,-547.23 554.89,-542.58 548.39,-548.47 548.39,-548.47"/>
<ellipse fill="none" stroke="black" cx="545.35" cy="-549.46" rx="3.2" ry="3.2"/>
</g>
<!-- testuu -->
<g id="node4" class="node">
<title>testuu</title>
<g id="a_node4"><a xlink:href="../../tables/testuu.html" xlink:title="testuu" target="_top">
<polygon fill="#ffffff" stroke="transparent" points="846,-514 846,-682 952,-682 952,-514 846,-514"/>
<polygon fill="#f5f5f5" stroke="transparent" points="846,-660 846,-682 952,-682 952,-660 846,-660"/>
<polygon fill="none" stroke="black" points="846,-660 846,-682 952,-682 952,-660 846,-660"/>
<text text-anchor="start" x="851" y="-669.2" font-family="Helvetica,sans-Serif" font-weight="bold" font-size="11.00">testuu</text>
<text text-anchor="start" x="917" y="-668.2" font-family="Helvetica,sans-Serif" font-size="11.00">[table]</text>
<polygon fill="none" stroke="black" points="846,-638 846,-660 952,-660 952,-638 846,-638"/>
<image xlink:href="../../images/foreignKeys.png" width="11px" height="12px" preserveAspectRatio="xMinYMin meet" x="851" y="-655"/>
<text text-anchor="start" x="866" y="-646.2" font-family="Helvetica,sans-Serif" font-size="11.00">ad_client_id</text>
<polygon fill="none" stroke="black" points="846,-616 846,-638 952,-638 952,-616 846,-616"/>
<image xlink:href="../../images/foreignKeys.png" width="11px" height="12px" preserveAspectRatio="xMinYMin meet" x="851" y="-633"/>
<text text-anchor="start" x="866" y="-624.2" font-family="Helvetica,sans-Serif" font-size="11.00">ad_org_id</text>
<polygon fill="none" stroke="black" points="846,-594 846,-616 952,-616 952,-594 846,-594"/>
<image xlink:href="../../images/foreignKeys.png" width="11px" height="12px" preserveAspectRatio="xMinYMin meet" x="851" y="-611"/>
<text text-anchor="start" x="866" y="-602.2" font-family="Helvetica,sans-Serif" font-size="11.00">createdby</text>
<polygon fill="none" stroke="black" points="846,-572 846,-594 952,-594 952,-572 846,-572"/>
<image xlink:href="../../images/primaryKeys.png" width="11px" height="12px" preserveAspectRatio="xMinYMin meet" x="851" y="-589"/>
<text text-anchor="start" x="866" y="-580.2" font-family="Helvetica,sans-Serif" font-size="11.00">testuu_uu</text>
<polygon fill="none" stroke="black" points="846,-550 846,-572 952,-572 952,-550 846,-550"/>
<image xlink:href="../../images/foreignKeys.png" width="11px" height="12px" preserveAspectRatio="xMinYMin meet" x="851" y="-567"/>
<text text-anchor="start" x="866" y="-558.2" font-family="Helvetica,sans-Serif" font-size="11.00">updatedby</text>
<polygon fill="none" stroke="black" points="846,-532 846,-550 952,-550 952,-532 846,-532"/>
<text text-anchor="start" x="849" y="-538.2" font-family="Helvetica,sans-Serif" font-size="11.00">...</text>
<polygon fill="#ffffff" stroke="transparent" points="846,-514 846,-532 952,-532 952,-514 846,-514"/>
<polygon fill="none" stroke="black" points="846,-514 846,-532 952,-532 952,-514 846,-514"/>
<polygon fill="#ffffff" stroke="transparent" points="847,-515 847,-531 878,-531 878,-515 847,-515"/>
<text text-anchor="start" x="849" y="-520.2" font-family="Helvetica,sans-Serif" font-size="11.00">&lt; 4</text>
<polygon fill="#ffffff" stroke="transparent" points="878,-515 878,-531 921,-531 921,-515 878,-515"/>
<text text-anchor="start" x="885.5" y="-520.2" font-family="Helvetica,sans-Serif" font-size="11.00">1 row</text>
<polygon fill="#ffffff" stroke="transparent" points="921,-515 921,-531 951,-531 951,-515 921,-515"/>
<text text-anchor="start" x="933" y="-520.2" font-family="Helvetica,sans-Serif" font-size="11.00">3 &gt;</text>
<polygon fill="black" stroke="black" points="878,-515 878,-531 878,-531 878,-515 878,-515"/>
<polygon fill="black" stroke="black" points="921,-515 921,-531 921,-531 921,-515 921,-515"/>
</a>
</g>
</g>
<!-- testuu&#45;&gt;ad_org -->
<g id="edge6" class="edge">
<title>testuu:w&#45;&gt;ad_org:e</title>
<path fill="none" stroke="black" d="M830.32,-627.17C709.73,-630.01 663.54,-666.18 549,-612 525.11,-600.7 535.43,-568 509,-568"/>
<polygon fill="black" stroke="black" points="837,-627.09 845.04,-630.6 841,-627.05 845,-627 845,-627 845,-627 841,-627.05 844.96,-623.4 837,-627.09 837,-627.09"/>
<ellipse fill="none" stroke="black" cx="833.8" cy="-627.13" rx="3.2" ry="3.2"/>
</g>
<!-- testuu&#45;&gt;ad_client -->
<g id="edge5" class="edge">
<title>testuu:w&#45;&gt;ad_client:e</title>
<path fill="none" stroke="black" d="M830.59,-648.99C580.01,-648.6 512.12,-638 254.5,-638"/>
<polygon fill="black" stroke="black" points="837,-648.99 845,-652.6 841,-649 845,-649 845,-649 845,-649 841,-649 845,-645.4 837,-648.99 837,-648.99"/>
<ellipse fill="none" stroke="black" cx="833.8" cy="-648.99" rx="3.2" ry="3.2"/>
</g>
<!-- testuu&#45;&gt;ad_user -->
<g id="edge7" class="edge">
<title>testuu:w&#45;&gt;ad_user:e</title>
<path fill="none" stroke="black" d="M831.21,-600.16C819.53,-590.13 818.56,-568 798,-568"/>
<polygon fill="black" stroke="black" points="837.45,-602.35 843.81,-608.4 841.23,-603.68 845,-605 845,-605 845,-605 841.23,-603.68 846.19,-601.6 837.45,-602.35 837.45,-602.35"/>
<ellipse fill="none" stroke="black" cx="834.43" cy="-601.29" rx="3.2" ry="3.2"/>
</g>
<!-- testuu&#45;&gt;ad_user -->
<g id="edge8" class="edge">
<title>testuu:w&#45;&gt;ad_user:e</title>
<path fill="none" stroke="black" d="M830.33,-562.35C819.91,-564.38 813.18,-568 798,-568"/>
<polygon fill="black" stroke="black" points="837.03,-561.73 845.33,-564.58 841.02,-561.37 845,-561 845,-561 845,-561 841.02,-561.37 844.67,-557.42 837.03,-561.73 837.03,-561.73"/>
<ellipse fill="none" stroke="black" cx="833.85" cy="-562.03" rx="3.2" ry="3.2"/>
</g>
<!-- testuudet -->
<g id="node5" class="node">
<title>testuudet</title>
<g id="a_node5"><a xlink:href="../../tables/testuudet.html" xlink:title="testuudet" target="_top">
<polygon fill="#ffffff" stroke="transparent" points="1001,-432 1001,-740 1205,-740 1205,-432 1001,-432"/>
<polygon fill="#f5f5f5" stroke="transparent" points="1003,-716 1003,-738 1203,-738 1203,-716 1003,-716"/>
<polygon fill="none" stroke="black" points="1003,-716 1003,-738 1203,-738 1203,-716 1003,-716"/>
<text text-anchor="start" x="1008" y="-725.2" font-family="Helvetica,sans-Serif" font-weight="bold" font-size="11.00">testuudet</text>
<text text-anchor="start" x="1168" y="-724.2" font-family="Helvetica,sans-Serif" font-size="11.00">[table]</text>
<polygon fill="none" stroke="black" points="1003,-694 1003,-716 1120,-716 1120,-694 1003,-694"/>
<image xlink:href="../../images/foreignKeys.png" width="11px" height="12px" preserveAspectRatio="xMinYMin meet" x="1008" y="-711"/>
<text text-anchor="start" x="1023" y="-702.2" font-family="Helvetica,sans-Serif" font-size="11.00">ad_client_id</text>
<polygon fill="none" stroke="black" points="1120,-694 1120,-716 1203,-716 1203,-694 1120,-694"/>
<text text-anchor="start" x="1123" y="-702.2" font-family="Helvetica,sans-Serif" font-size="11.00">numeric[10]</text>
<polygon fill="none" stroke="black" points="1003,-672 1003,-694 1120,-694 1120,-672 1003,-672"/>
<image xlink:href="../../images/foreignKeys.png" width="11px" height="12px" preserveAspectRatio="xMinYMin meet" x="1008" y="-689"/>
<text text-anchor="start" x="1023" y="-680.2" font-family="Helvetica,sans-Serif" font-size="11.00">ad_org_id</text>
<polygon fill="none" stroke="black" points="1120,-672 1120,-694 1203,-694 1203,-672 1120,-672"/>
<text text-anchor="start" x="1123" y="-680.2" font-family="Helvetica,sans-Serif" font-size="11.00">numeric[10]</text>
<polygon fill="none" stroke="black" points="1003,-650 1003,-672 1120,-672 1120,-650 1003,-650"/>
<image xlink:href="../../images/foreignKeys.png" width="11px" height="12px" preserveAspectRatio="xMinYMin meet" x="1008" y="-667"/>
<text text-anchor="start" x="1023" y="-658.2" font-family="Helvetica,sans-Serif" font-size="11.00">alttestuu_uu</text>
<polygon fill="none" stroke="black" points="1120,-650 1120,-672 1203,-672 1203,-650 1120,-650"/>
<text text-anchor="start" x="1123" y="-658.2" font-family="Helvetica,sans-Serif" font-size="11.00">varchar[36]</text>
<polygon fill="none" stroke="black" points="1003,-628 1003,-650 1120,-650 1120,-628 1003,-628"/>
<text text-anchor="start" x="1023" y="-636.2" font-family="Helvetica,sans-Serif" font-size="11.00">created</text>
<polygon fill="none" stroke="black" points="1120,-628 1120,-650 1203,-650 1203,-628 1120,-628"/>
<text text-anchor="start" x="1123" y="-636.2" font-family="Helvetica,sans-Serif" font-size="11.00">timestamp[29,6]</text>
<polygon fill="none" stroke="black" points="1003,-606 1003,-628 1120,-628 1120,-606 1003,-606"/>
<image xlink:href="../../images/foreignKeys.png" width="11px" height="12px" preserveAspectRatio="xMinYMin meet" x="1008" y="-623"/>
<text text-anchor="start" x="1023" y="-614.2" font-family="Helvetica,sans-Serif" font-size="11.00">createdby</text>
<polygon fill="none" stroke="black" points="1120,-606 1120,-628 1203,-628 1203,-606 1120,-606"/>
<text text-anchor="start" x="1123" y="-614.2" font-family="Helvetica,sans-Serif" font-size="11.00">numeric[10]</text>
<polygon fill="none" stroke="black" points="1003,-584 1003,-606 1120,-606 1120,-584 1003,-584"/>
<text text-anchor="start" x="1023" y="-592.2" font-family="Helvetica,sans-Serif" font-size="11.00">isactive</text>
<polygon fill="none" stroke="black" points="1120,-584 1120,-606 1203,-606 1203,-584 1120,-584"/>
<text text-anchor="start" x="1123" y="-592.2" font-family="Helvetica,sans-Serif" font-size="11.00">bpchar[1]</text>
<polygon fill="none" stroke="black" points="1003,-562 1003,-584 1120,-584 1120,-562 1003,-562"/>
<text text-anchor="start" x="1023" y="-570.2" font-family="Helvetica,sans-Serif" font-size="11.00">name</text>
<polygon fill="none" stroke="black" points="1120,-562 1120,-584 1203,-584 1203,-562 1120,-562"/>
<text text-anchor="start" x="1123" y="-570.2" font-family="Helvetica,sans-Serif" font-size="11.00">varchar[60]</text>
<polygon fill="none" stroke="black" points="1003,-540 1003,-562 1120,-562 1120,-540 1003,-540"/>
<image xlink:href="../../images/primaryKeys.png" width="11px" height="12px" preserveAspectRatio="xMinYMin meet" x="1008" y="-557"/>
<text text-anchor="start" x="1023" y="-548.2" font-family="Helvetica,sans-Serif" font-size="11.00">testuudet_uu</text>
<polygon fill="none" stroke="black" points="1120,-540 1120,-562 1203,-562 1203,-540 1120,-540"/>
<text text-anchor="start" x="1123" y="-548.2" font-family="Helvetica,sans-Serif" font-size="11.00">varchar[36]</text>
<polygon fill="none" stroke="black" points="1003,-518 1003,-540 1120,-540 1120,-518 1003,-518"/>
<image xlink:href="../../images/foreignKeys.png" width="11px" height="12px" preserveAspectRatio="xMinYMin meet" x="1008" y="-535"/>
<text text-anchor="start" x="1023" y="-526.2" font-family="Helvetica,sans-Serif" font-size="11.00">testuu_uu</text>
<polygon fill="none" stroke="black" points="1120,-518 1120,-540 1203,-540 1203,-518 1120,-518"/>
<text text-anchor="start" x="1123" y="-526.2" font-family="Helvetica,sans-Serif" font-size="11.00">varchar[36]</text>
<polygon fill="none" stroke="black" points="1003,-496 1003,-518 1120,-518 1120,-496 1003,-496"/>
<text text-anchor="start" x="1023" y="-504.2" font-family="Helvetica,sans-Serif" font-size="11.00">updated</text>
<polygon fill="none" stroke="black" points="1120,-496 1120,-518 1203,-518 1203,-496 1120,-496"/>
<text text-anchor="start" x="1123" y="-504.2" font-family="Helvetica,sans-Serif" font-size="11.00">timestamp[29,6]</text>
<polygon fill="none" stroke="black" points="1003,-474 1003,-496 1120,-496 1120,-474 1003,-474"/>
<image xlink:href="../../images/foreignKeys.png" width="11px" height="12px" preserveAspectRatio="xMinYMin meet" x="1008" y="-491"/>
<text text-anchor="start" x="1023" y="-482.2" font-family="Helvetica,sans-Serif" font-size="11.00">updatedby</text>
<polygon fill="none" stroke="black" points="1120,-474 1120,-496 1203,-496 1203,-474 1120,-474"/>
<text text-anchor="start" x="1123" y="-482.2" font-family="Helvetica,sans-Serif" font-size="11.00">numeric[10]</text>
<polygon fill="none" stroke="black" points="1003,-452 1003,-474 1120,-474 1120,-452 1003,-452"/>
<text text-anchor="start" x="1023" y="-460.2" font-family="Helvetica,sans-Serif" font-size="11.00">testuu_uus</text>
<polygon fill="none" stroke="black" points="1120,-452 1120,-474 1203,-474 1203,-452 1120,-452"/>
<text text-anchor="start" x="1123" y="-460.2" font-family="Helvetica,sans-Serif" font-size="11.00">varchar[2000]</text>
<polygon fill="#ffffff" stroke="transparent" points="1003,-434 1003,-452 1203,-452 1203,-434 1003,-434"/>
<polygon fill="none" stroke="black" points="1003,-434 1003,-452 1203,-452 1203,-434 1003,-434"/>
<polygon fill="#ffffff" stroke="transparent" points="1004,-435 1004,-451 1066,-451 1066,-435 1004,-435"/>
<text text-anchor="start" x="1006" y="-440.2" font-family="Helvetica,sans-Serif" font-size="11.00">&lt; 6</text>
<polygon fill="#ffffff" stroke="transparent" points="1066,-435 1066,-451 1140,-451 1140,-435 1066,-435"/>
<text text-anchor="start" x="1089" y="-440.2" font-family="Helvetica,sans-Serif" font-size="11.00">1 row</text>
<polygon fill="#ffffff" stroke="transparent" points="1140,-435 1140,-451 1202,-451 1202,-435 1140,-435"/>
<text text-anchor="start" x="1184" y="-440.2" font-family="Helvetica,sans-Serif" font-size="11.00">0 &gt;</text>
<polygon fill="black" stroke="black" points="1066,-435 1066,-451 1066,-451 1066,-435 1066,-435"/>
<polygon fill="black" stroke="black" points="1140,-435 1140,-451 1140,-451 1140,-435 1140,-435"/>
<polygon fill="none" stroke="black" stroke-width="2" points="1002,-433 1002,-739 1204,-739 1204,-433 1002,-433"/>
</a>
</g>
</g>
<!-- testuudet&#45;&gt;ad_org -->
<g id="edge10" class="edge">
<title>testuudet:w&#45;&gt;ad_org:e</title>
<path fill="none" stroke="black" d="M987.59,-684.87C978.97,-687.31 973.1,-691.46 960,-693 906.15,-699.32 891.97,-698.27 838,-693 707.7,-680.27 655.79,-711.74 549,-636 520.4,-615.72 544.06,-568 509,-568"/>
<polygon fill="black" stroke="black" points="994.07,-684.03 1002.46,-686.57 998.03,-683.51 1002,-683 1002,-683 1002,-683 998.03,-683.51 1001.54,-679.43 994.07,-684.03 994.07,-684.03"/>
<ellipse fill="none" stroke="black" cx="990.89" cy="-684.44" rx="3.2" ry="3.2"/>
</g>
<!-- testuudet&#45;&gt;ad_client -->
<g id="edge9" class="edge">
<title>testuudet:w&#45;&gt;ad_client:e</title>
<path fill="none" stroke="black" d="M987.4,-705.05C926.27,-705.48 905.68,-708.41 838,-705 595.3,-692.76 532.27,-697.77 294,-650 276.01,-646.39 272.85,-638 254.5,-638"/>
<polygon fill="black" stroke="black" points="994,-705.03 1002.01,-708.6 998,-705.01 1002,-705 1002,-705 1002,-705 998,-705.01 1001.99,-701.4 994,-705.03 994,-705.03"/>
<ellipse fill="none" stroke="black" cx="990.8" cy="-705.04" rx="3.2" ry="3.2"/>
</g>
<!-- testuudet&#45;&gt;ad_user -->
<g id="edge12" class="edge">
<title>testuudet:w&#45;&gt;ad_user:e</title>
<path fill="none" stroke="black" d="M987.69,-614.02C959.73,-598.99 999.01,-531.12 960,-504 915.48,-473.05 885.43,-477.71 838,-504 808.66,-520.26 831.54,-568 798,-568"/>
<polygon fill="black" stroke="black" points="994.17,-615.37 1001.27,-620.52 998.08,-616.19 1002,-617 1002,-617 1002,-617 998.08,-616.19 1002.73,-613.48 994.17,-615.37 994.17,-615.37"/>
<ellipse fill="none" stroke="black" cx="991.03" cy="-614.72" rx="3.2" ry="3.2"/>
</g>
<!-- testuudet&#45;&gt;ad_user -->
<g id="edge14" class="edge">
<title>testuudet:w&#45;&gt;ad_user:e</title>
<path fill="none" stroke="black" d="M987.4,-483.83C978.88,-482.35 972.78,-479.91 960,-479 905.91,-475.16 883.53,-449.55 838,-479 801.59,-502.56 841.37,-568 798,-568"/>
<polygon fill="black" stroke="black" points="994.03,-484.36 1001.71,-488.59 998.01,-484.68 1002,-485 1002,-485 1002,-485 998.01,-484.68 1002.29,-481.41 994.03,-484.36 994.03,-484.36"/>
<ellipse fill="none" stroke="black" cx="990.84" cy="-484.1" rx="3.2" ry="3.2"/>
</g>
<!-- testuudet&#45;&gt;testuu -->
<g id="edge11" class="edge">
<title>testuudet:w&#45;&gt;testuu:e</title>
<path fill="none" stroke="black" d="M988.17,-656.35C969.19,-639.56 987.86,-583 953,-583"/>
<polygon fill="black" stroke="black" points="994.42,-658.45 1000.85,-664.41 998.21,-659.73 1002,-661 1002,-661 1002,-661 998.21,-659.73 1003.15,-657.59 994.42,-658.45 994.42,-658.45"/>
<ellipse fill="none" stroke="black" cx="991.38" cy="-657.43" rx="3.2" ry="3.2"/>
</g>
<!-- testuudet&#45;&gt;testuu -->
<g id="edge13" class="edge">
<title>testuudet:w&#45;&gt;testuu:e</title>
<path fill="none" stroke="black" d="M988.22,-533.98C973.83,-547.35 979.33,-583 953,-583"/>
<polygon fill="black" stroke="black" points="994.48,-531.72 1003.22,-532.39 998.24,-530.36 1002,-529 1002,-529 1002,-529 998.24,-530.36 1000.78,-525.61 994.48,-531.72 994.48,-531.72"/>
<ellipse fill="none" stroke="black" cx="991.47" cy="-532.81" rx="3.2" ry="3.2"/>
</g>
</g>
</svg>
