<?xml version="1.0" encoding="UTF-8" standalone="no"?>
<!DOCTYPE svg PUBLIC "-//W3C//DTD SVG 1.1//EN"
 "http://www.w3.org/Graphics/SVG/1.1/DTD/svg11.dtd">
<!-- Generated by graphviz version 2.43.0 (0)
 -->
<!-- Title: oneDegreeRelationshipsDiagram Pages: 1 -->
<svg width="1228pt" height="1140pt"
 viewBox="0.00 0.00 1228.00 1140.44" xmlns="http://www.w3.org/2000/svg" xmlns:xlink="http://www.w3.org/1999/xlink">
<g id="graph0" class="graph" transform="scale(1 1) rotate(0) translate(4 1136.44)">
<title>oneDegreeRelationshipsDiagram</title>
<polygon fill="#ffffff" stroke="transparent" points="-4,4 -4,-1136.44 1224,-1136.44 1224,4 -4,4"/>
<text text-anchor="middle" x="71.5" y="-7.2" font-family="Helvetica,sans-Serif" font-size="11.00">Generated by SchemaSpy</text>
<!-- ad_user -->
<g id="node1" class="node">
<title>ad_user</title>
<g id="a_node1"><a xlink:href="../../tables/ad_user.html" xlink:title="ad_user" target="_top">
<polygon fill="#ffffff" stroke="transparent" points="527,-67.44 527,-631.44 767,-631.44 767,-67.44 527,-67.44"/>
<polygon fill="#f5f5f5" stroke="transparent" points="527,-609.44 527,-631.44 767,-631.44 767,-609.44 527,-609.44"/>
<polygon fill="none" stroke="black" points="527,-609.44 527,-631.44 767,-631.44 767,-609.44 527,-609.44"/>
<text text-anchor="start" x="532" y="-618.64" font-family="Helvetica,sans-Serif" font-weight="bold" font-size="11.00">ad_user</text>
<text text-anchor="start" x="732" y="-617.64" font-family="Helvetica,sans-Serif" font-size="11.00">[table]</text>
<polygon fill="none" stroke="black" points="527,-587.44 527,-609.44 767,-609.44 767,-587.44 527,-587.44"/>
<image xlink:href="../../images/primaryKeys.png" width="11px" height="12px" preserveAspectRatio="xMinYMin meet" x="532" y="-604.44"/>
<text text-anchor="start" x="547" y="-595.64" font-family="Helvetica,sans-Serif" font-size="11.00">ad_user_id</text>
<polygon fill="none" stroke="black" points="527,-565.44 527,-587.44 767,-587.44 767,-565.44 527,-565.44"/>
<image xlink:href="../../images/foreignKeys.png" width="11px" height="12px" preserveAspectRatio="xMinYMin meet" x="532" y="-582.44"/>
<text text-anchor="start" x="547" y="-573.64" font-family="Helvetica,sans-Serif" font-size="11.00">ad_client_id</text>
<polygon fill="none" stroke="black" points="527,-543.44 527,-565.44 767,-565.44 767,-543.44 527,-543.44"/>
<image xlink:href="../../images/foreignKeys.png" width="11px" height="12px" preserveAspectRatio="xMinYMin meet" x="532" y="-560.44"/>
<text text-anchor="start" x="547" y="-551.64" font-family="Helvetica,sans-Serif" font-size="11.00">ad_org_id</text>
<polygon fill="#ffffff" stroke="transparent" points="527,-521.44 527,-543.44 767,-543.44 767,-521.44 527,-521.44"/>
<polygon fill="none" stroke="black" points="527,-521.44 527,-543.44 767,-543.44 767,-521.44 527,-521.44"/>
<text text-anchor="start" x="547" y="-529.64" font-family="Helvetica,sans-Serif" font-size="11.00">name</text>
<polygon fill="#ffffff" stroke="transparent" points="527,-499.44 527,-521.44 767,-521.44 767,-499.44 527,-499.44"/>
<polygon fill="none" stroke="black" points="527,-499.44 527,-521.44 767,-521.44 767,-499.44 527,-499.44"/>
<text text-anchor="start" x="547" y="-507.64" font-family="Helvetica,sans-Serif" font-size="11.00">email</text>
<polygon fill="none" stroke="black" points="527,-477.44 527,-499.44 767,-499.44 767,-477.44 527,-477.44"/>
<image xlink:href="../../images/foreignKeys.png" width="11px" height="12px" preserveAspectRatio="xMinYMin meet" x="532" y="-494.44"/>
<text text-anchor="start" x="547" y="-485.64" font-family="Helvetica,sans-Serif" font-size="11.00">supervisor_id</text>
<polygon fill="#ffffff" stroke="transparent" points="527,-455.44 527,-477.44 767,-477.44 767,-455.44 527,-455.44"/>
<polygon fill="none" stroke="black" points="527,-455.44 527,-477.44 767,-477.44 767,-455.44 527,-455.44"/>
<image xlink:href="../../images/foreignKeys.png" width="11px" height="12px" preserveAspectRatio="xMinYMin meet" x="532" y="-472.44"/>
<text text-anchor="start" x="547" y="-463.64" font-family="Helvetica,sans-Serif" font-size="11.00">c_bpartner_id</text>
<polygon fill="none" stroke="black" points="527,-433.44 527,-455.44 767,-455.44 767,-433.44 527,-433.44"/>
<image xlink:href="../../images/foreignKeys.png" width="11px" height="12px" preserveAspectRatio="xMinYMin meet" x="532" y="-450.44"/>
<text text-anchor="start" x="547" y="-441.64" font-family="Helvetica,sans-Serif" font-size="11.00">c_bpartner_location_id</text>
<polygon fill="none" stroke="black" points="527,-411.44 527,-433.44 767,-433.44 767,-411.44 527,-411.44"/>
<image xlink:href="../../images/foreignKeys.png" width="11px" height="12px" preserveAspectRatio="xMinYMin meet" x="532" y="-428.44"/>
<text text-anchor="start" x="547" y="-419.64" font-family="Helvetica,sans-Serif" font-size="11.00">c_greeting_id</text>
<polygon fill="none" stroke="black" points="527,-389.44 527,-411.44 767,-411.44 767,-389.44 527,-389.44"/>
<image xlink:href="../../images/foreignKeys.png" width="11px" height="12px" preserveAspectRatio="xMinYMin meet" x="532" y="-406.44"/>
<text text-anchor="start" x="547" y="-397.64" font-family="Helvetica,sans-Serif" font-size="11.00">ad_orgtrx_id</text>
<polygon fill="none" stroke="black" points="527,-367.44 527,-389.44 767,-389.44 767,-367.44 527,-367.44"/>
<image xlink:href="../../images/foreignKeys.png" width="11px" height="12px" preserveAspectRatio="xMinYMin meet" x="532" y="-384.44"/>
<text text-anchor="start" x="547" y="-375.64" font-family="Helvetica,sans-Serif" font-size="11.00">c_job_id</text>
<polygon fill="#ffffff" stroke="transparent" points="527,-345.44 527,-367.44 767,-367.44 767,-345.44 527,-345.44"/>
<polygon fill="none" stroke="black" points="527,-345.44 527,-367.44 767,-367.44 767,-345.44 527,-345.44"/>
<text text-anchor="start" x="547" y="-353.64" font-family="Helvetica,sans-Serif" font-size="11.00">ad_user_uu</text>
<polygon fill="none" stroke="black" points="527,-323.44 527,-345.44 767,-345.44 767,-323.44 527,-323.44"/>
<image xlink:href="../../images/foreignKeys.png" width="11px" height="12px" preserveAspectRatio="xMinYMin meet" x="532" y="-340.44"/>
<text text-anchor="start" x="547" y="-331.64" font-family="Helvetica,sans-Serif" font-size="11.00">c_location_id</text>
<polygon fill="none" stroke="black" points="527,-301.44 527,-323.44 767,-323.44 767,-301.44 527,-301.44"/>
<image xlink:href="../../images/foreignKeys.png" width="11px" height="12px" preserveAspectRatio="xMinYMin meet" x="532" y="-318.44"/>
<text text-anchor="start" x="547" y="-309.64" font-family="Helvetica,sans-Serif" font-size="11.00">c_campaign_id</text>
<polygon fill="none" stroke="black" points="527,-279.44 527,-301.44 767,-301.44 767,-279.44 527,-279.44"/>
<image xlink:href="../../images/foreignKeys.png" width="11px" height="12px" preserveAspectRatio="xMinYMin meet" x="532" y="-296.44"/>
<text text-anchor="start" x="547" y="-287.64" font-family="Helvetica,sans-Serif" font-size="11.00">salesrep_id</text>
<polygon fill="none" stroke="black" points="527,-257.44 527,-279.44 767,-279.44 767,-257.44 527,-257.44"/>
<image xlink:href="../../images/foreignKeys.png" width="11px" height="12px" preserveAspectRatio="xMinYMin meet" x="532" y="-274.44"/>
<text text-anchor="start" x="547" y="-265.64" font-family="Helvetica,sans-Serif" font-size="11.00">bp_location_id</text>
<polygon fill="none" stroke="black" points="527,-235.44 527,-257.44 767,-257.44 767,-235.44 527,-235.44"/>
<image xlink:href="../../images/foreignKeys.png" width="11px" height="12px" preserveAspectRatio="xMinYMin meet" x="532" y="-252.44"/>
<text text-anchor="start" x="547" y="-243.64" font-family="Helvetica,sans-Serif" font-size="11.00">r_defaultmailtext_id</text>
<polygon fill="none" stroke="black" points="527,-213.44 527,-235.44 767,-235.44 767,-213.44 527,-213.44"/>
<image xlink:href="../../images/foreignKeys.png" width="11px" height="12px" preserveAspectRatio="xMinYMin meet" x="532" y="-230.44"/>
<text text-anchor="start" x="547" y="-221.64" font-family="Helvetica,sans-Serif" font-size="11.00">cof_c_marketsegment_id</text>
<polygon fill="none" stroke="black" points="527,-191.44 527,-213.44 767,-213.44 767,-191.44 527,-191.44"/>
<image xlink:href="../../images/foreignKeys.png" width="11px" height="12px" preserveAspectRatio="xMinYMin meet" x="532" y="-208.44"/>
<text text-anchor="start" x="547" y="-199.64" font-family="Helvetica,sans-Serif" font-size="11.00">cof_c_leadexpirationreason_id</text>
<polygon fill="none" stroke="black" points="527,-169.44 527,-191.44 767,-191.44 767,-169.44 527,-169.44"/>
<image xlink:href="../../images/foreignKeys.png" width="11px" height="12px" preserveAspectRatio="xMinYMin meet" x="532" y="-186.44"/>
<text text-anchor="start" x="547" y="-177.64" font-family="Helvetica,sans-Serif" font-size="11.00">ad_image_id</text>
<polygon fill="none" stroke="black" points="527,-147.44 527,-169.44 767,-169.44 767,-147.44 527,-147.44"/>
<image xlink:href="../../images/foreignKeys.png" width="11px" height="12px" preserveAspectRatio="xMinYMin meet" x="532" y="-164.44"/>
<text text-anchor="start" x="547" y="-155.64" font-family="Helvetica,sans-Serif" font-size="11.00">c_subscription_id</text>
<polygon fill="none" stroke="black" points="527,-125.44 527,-147.44 767,-147.44 767,-125.44 527,-125.44"/>
<image xlink:href="../../images/foreignKeys.png" width="11px" height="12px" preserveAspectRatio="xMinYMin meet" x="532" y="-142.44"/>
<text text-anchor="start" x="547" y="-133.64" font-family="Helvetica,sans-Serif" font-size="11.00">cof_responsavelindicacao_id</text>
<polygon fill="none" stroke="black" points="527,-103.44 527,-125.44 767,-125.44 767,-103.44 527,-103.44"/>
<image xlink:href="../../images/foreignKeys.png" width="11px" height="12px" preserveAspectRatio="xMinYMin meet" x="532" y="-120.44"/>
<text text-anchor="start" x="547" y="-111.64" font-family="Helvetica,sans-Serif" font-size="11.00">cof_respatribuicao_id</text>
<polygon fill="none" stroke="black" points="527,-85.44 527,-103.44 767,-103.44 767,-85.44 527,-85.44"/>
<text text-anchor="start" x="530" y="-91.64" font-family="Helvetica,sans-Serif" font-size="11.00">...</text>
<polygon fill="#ffffff" stroke="transparent" points="527,-67.44 527,-85.44 767,-85.44 767,-67.44 527,-67.44"/>
<polygon fill="none" stroke="black" points="527,-67.44 527,-85.44 767,-85.44 767,-67.44 527,-67.44"/>
<polygon fill="#ffffff" stroke="transparent" points="528,-68.44 528,-84.44 602,-84.44 602,-68.44 528,-68.44"/>
<text text-anchor="start" x="530" y="-73.64" font-family="Helvetica,sans-Serif" font-size="11.00">&lt; 19</text>
<polygon fill="#ffffff" stroke="transparent" points="602,-68.44 602,-84.44 687,-84.44 687,-68.44 602,-68.44"/>
<text text-anchor="start" x="628" y="-73.64" font-family="Helvetica,sans-Serif" font-size="11.00">8 rows</text>
<polygon fill="#ffffff" stroke="transparent" points="687,-68.44 687,-84.44 766,-84.44 766,-68.44 687,-68.44"/>
<text text-anchor="start" x="736" y="-73.64" font-family="Helvetica,sans-Serif" font-size="11.00">446 &gt;</text>
<polygon fill="black" stroke="black" points="602,-68.44 602,-84.44 602,-84.44 602,-68.44 602,-68.44"/>
<polygon fill="black" stroke="black" points="687,-68.44 687,-84.44 687,-84.44 687,-68.44 687,-68.44"/>
</a>
</g>
</g>
<!-- c_bpartner -->
<g id="node2" class="node">
<title>c_bpartner</title>
<g id="a_node2"><a xlink:href="../../tables/c_bpartner.html" xlink:title="c_bpartner" target="_top">
<polygon fill="#ffffff" stroke="transparent" points="224,-67.44 224,-807.44 478,-807.44 478,-67.44 224,-67.44"/>
<polygon fill="#f5f5f5" stroke="transparent" points="224,-785.44 224,-807.44 478,-807.44 478,-785.44 224,-785.44"/>
<polygon fill="none" stroke="black" points="224,-785.44 224,-807.44 478,-807.44 478,-785.44 224,-785.44"/>
<text text-anchor="start" x="229" y="-794.64" font-family="Helvetica,sans-Serif" font-weight="bold" font-size="11.00">c_bpartner</text>
<text text-anchor="start" x="443" y="-793.64" font-family="Helvetica,sans-Serif" font-size="11.00">[table]</text>
<polygon fill="none" stroke="black" points="224,-763.44 224,-785.44 478,-785.44 478,-763.44 224,-763.44"/>
<image xlink:href="../../images/primaryKeys.png" width="11px" height="12px" preserveAspectRatio="xMinYMin meet" x="229" y="-780.44"/>
<text text-anchor="start" x="244" y="-771.64" font-family="Helvetica,sans-Serif" font-size="11.00">c_bpartner_id</text>
<polygon fill="#ffffff" stroke="transparent" points="224,-741.44 224,-763.44 478,-763.44 478,-741.44 224,-741.44"/>
<polygon fill="none" stroke="black" points="224,-741.44 224,-763.44 478,-763.44 478,-741.44 224,-741.44"/>
<image xlink:href="../../images/foreignKeys.png" width="11px" height="12px" preserveAspectRatio="xMinYMin meet" x="229" y="-758.44"/>
<text text-anchor="start" x="244" y="-749.64" font-family="Helvetica,sans-Serif" font-size="11.00">ad_client_id</text>
<polygon fill="none" stroke="black" points="224,-719.44 224,-741.44 478,-741.44 478,-719.44 224,-719.44"/>
<image xlink:href="../../images/foreignKeys.png" width="11px" height="12px" preserveAspectRatio="xMinYMin meet" x="229" y="-736.44"/>
<text text-anchor="start" x="244" y="-727.64" font-family="Helvetica,sans-Serif" font-size="11.00">ad_org_id</text>
<polygon fill="#ffffff" stroke="transparent" points="224,-697.44 224,-719.44 478,-719.44 478,-697.44 224,-697.44"/>
<polygon fill="none" stroke="black" points="224,-697.44 224,-719.44 478,-719.44 478,-697.44 224,-697.44"/>
<text text-anchor="start" x="244" y="-705.64" font-family="Helvetica,sans-Serif" font-size="11.00">value</text>
<polygon fill="#ffffff" stroke="transparent" points="224,-675.44 224,-697.44 478,-697.44 478,-675.44 224,-675.44"/>
<polygon fill="none" stroke="black" points="224,-675.44 224,-697.44 478,-697.44 478,-675.44 224,-675.44"/>
<text text-anchor="start" x="244" y="-683.64" font-family="Helvetica,sans-Serif" font-size="11.00">name</text>
<polygon fill="none" stroke="black" points="224,-653.44 224,-675.44 478,-675.44 478,-653.44 224,-653.44"/>
<image xlink:href="../../images/foreignKeys.png" width="11px" height="12px" preserveAspectRatio="xMinYMin meet" x="229" y="-670.44"/>
<text text-anchor="start" x="244" y="-661.64" font-family="Helvetica,sans-Serif" font-size="11.00">c_bp_group_id</text>
<polygon fill="none" stroke="black" points="224,-631.44 224,-653.44 478,-653.44 478,-631.44 224,-631.44"/>
<image xlink:href="../../images/foreignKeys.png" width="11px" height="12px" preserveAspectRatio="xMinYMin meet" x="229" y="-648.44"/>
<text text-anchor="start" x="244" y="-639.64" font-family="Helvetica,sans-Serif" font-size="11.00">ad_language</text>
<polygon fill="none" stroke="black" points="224,-609.44 224,-631.44 478,-631.44 478,-609.44 224,-609.44"/>
<image xlink:href="../../images/foreignKeys.png" width="11px" height="12px" preserveAspectRatio="xMinYMin meet" x="229" y="-626.44"/>
<text text-anchor="start" x="244" y="-617.64" font-family="Helvetica,sans-Serif" font-size="11.00">c_invoiceschedule_id</text>
<polygon fill="none" stroke="black" points="224,-587.44 224,-609.44 478,-609.44 478,-587.44 224,-587.44"/>
<image xlink:href="../../images/foreignKeys.png" width="11px" height="12px" preserveAspectRatio="xMinYMin meet" x="229" y="-604.44"/>
<text text-anchor="start" x="244" y="-595.64" font-family="Helvetica,sans-Serif" font-size="11.00">c_paymentterm_id</text>
<polygon fill="none" stroke="black" points="224,-565.44 224,-587.44 478,-587.44 478,-565.44 224,-565.44"/>
<image xlink:href="../../images/foreignKeys.png" width="11px" height="12px" preserveAspectRatio="xMinYMin meet" x="229" y="-582.44"/>
<text text-anchor="start" x="244" y="-573.64" font-family="Helvetica,sans-Serif" font-size="11.00">m_pricelist_id</text>
<polygon fill="none" stroke="black" points="224,-543.44 224,-565.44 478,-565.44 478,-543.44 224,-543.44"/>
<image xlink:href="../../images/foreignKeys.png" width="11px" height="12px" preserveAspectRatio="xMinYMin meet" x="229" y="-560.44"/>
<text text-anchor="start" x="244" y="-551.64" font-family="Helvetica,sans-Serif" font-size="11.00">m_discountschema_id</text>
<polygon fill="none" stroke="black" points="224,-521.44 224,-543.44 478,-543.44 478,-521.44 224,-521.44"/>
<image xlink:href="../../images/foreignKeys.png" width="11px" height="12px" preserveAspectRatio="xMinYMin meet" x="229" y="-538.44"/>
<text text-anchor="start" x="244" y="-529.64" font-family="Helvetica,sans-Serif" font-size="11.00">c_dunning_id</text>
<polygon fill="none" stroke="black" points="224,-499.44 224,-521.44 478,-521.44 478,-499.44 224,-499.44"/>
<image xlink:href="../../images/foreignKeys.png" width="11px" height="12px" preserveAspectRatio="xMinYMin meet" x="229" y="-516.44"/>
<text text-anchor="start" x="244" y="-507.64" font-family="Helvetica,sans-Serif" font-size="11.00">po_pricelist_id</text>
<polygon fill="none" stroke="black" points="224,-477.44 224,-499.44 478,-499.44 478,-477.44 224,-477.44"/>
<image xlink:href="../../images/foreignKeys.png" width="11px" height="12px" preserveAspectRatio="xMinYMin meet" x="229" y="-494.44"/>
<text text-anchor="start" x="244" y="-485.64" font-family="Helvetica,sans-Serif" font-size="11.00">po_discountschema_id</text>
<polygon fill="none" stroke="black" points="224,-455.44 224,-477.44 478,-477.44 478,-455.44 224,-455.44"/>
<image xlink:href="../../images/foreignKeys.png" width="11px" height="12px" preserveAspectRatio="xMinYMin meet" x="229" y="-472.44"/>
<text text-anchor="start" x="244" y="-463.64" font-family="Helvetica,sans-Serif" font-size="11.00">po_paymentterm_id</text>
<polygon fill="none" stroke="black" points="224,-433.44 224,-455.44 478,-455.44 478,-433.44 224,-433.44"/>
<image xlink:href="../../images/foreignKeys.png" width="11px" height="12px" preserveAspectRatio="xMinYMin meet" x="229" y="-450.44"/>
<text text-anchor="start" x="244" y="-441.64" font-family="Helvetica,sans-Serif" font-size="11.00">c_greeting_id</text>
<polygon fill="none" stroke="black" points="224,-411.44 224,-433.44 478,-433.44 478,-411.44 224,-411.44"/>
<image xlink:href="../../images/foreignKeys.png" width="11px" height="12px" preserveAspectRatio="xMinYMin meet" x="229" y="-428.44"/>
<text text-anchor="start" x="244" y="-419.64" font-family="Helvetica,sans-Serif" font-size="11.00">salesrep_id</text>
<polygon fill="none" stroke="black" points="224,-389.44 224,-411.44 478,-411.44 478,-389.44 224,-389.44"/>
<image xlink:href="../../images/foreignKeys.png" width="11px" height="12px" preserveAspectRatio="xMinYMin meet" x="229" y="-406.44"/>
<text text-anchor="start" x="244" y="-397.64" font-family="Helvetica,sans-Serif" font-size="11.00">bpartner_parent_id</text>
<polygon fill="none" stroke="black" points="224,-367.44 224,-389.44 478,-389.44 478,-367.44 224,-367.44"/>
<image xlink:href="../../images/foreignKeys.png" width="11px" height="12px" preserveAspectRatio="xMinYMin meet" x="229" y="-384.44"/>
<text text-anchor="start" x="244" y="-375.64" font-family="Helvetica,sans-Serif" font-size="11.00">invoice_printformat_id</text>
<polygon fill="#ffffff" stroke="transparent" points="224,-345.44 224,-367.44 478,-367.44 478,-345.44 224,-345.44"/>
<polygon fill="none" stroke="black" points="224,-345.44 224,-367.44 478,-367.44 478,-345.44 224,-345.44"/>
<image xlink:href="../../images/foreignKeys.png" width="11px" height="12px" preserveAspectRatio="xMinYMin meet" x="229" y="-362.44"/>
<text text-anchor="start" x="244" y="-353.64" font-family="Helvetica,sans-Serif" font-size="11.00">ad_orgbp_id</text>
<polygon fill="none" stroke="black" points="224,-323.44 224,-345.44 478,-345.44 478,-323.44 224,-323.44"/>
<image xlink:href="../../images/foreignKeys.png" width="11px" height="12px" preserveAspectRatio="xMinYMin meet" x="229" y="-340.44"/>
<text text-anchor="start" x="244" y="-331.64" font-family="Helvetica,sans-Serif" font-size="11.00">c_taxgroup_id</text>
<polygon fill="none" stroke="black" points="224,-301.44 224,-323.44 478,-323.44 478,-301.44 224,-301.44"/>
<image xlink:href="../../images/foreignKeys.png" width="11px" height="12px" preserveAspectRatio="xMinYMin meet" x="229" y="-318.44"/>
<text text-anchor="start" x="244" y="-309.64" font-family="Helvetica,sans-Serif" font-size="11.00">logo_id</text>
<polygon fill="#ffffff" stroke="transparent" points="224,-279.44 224,-301.44 478,-301.44 478,-279.44 224,-279.44"/>
<polygon fill="none" stroke="black" points="224,-279.44 224,-301.44 478,-301.44 478,-279.44 224,-279.44"/>
<text text-anchor="start" x="244" y="-287.64" font-family="Helvetica,sans-Serif" font-size="11.00">c_bpartner_uu</text>
<polygon fill="none" stroke="black" points="224,-257.44 224,-279.44 478,-279.44 478,-257.44 224,-257.44"/>
<image xlink:href="../../images/foreignKeys.png" width="11px" height="12px" preserveAspectRatio="xMinYMin meet" x="229" y="-274.44"/>
<text text-anchor="start" x="244" y="-265.64" font-family="Helvetica,sans-Serif" font-size="11.00">default1099box_id</text>
<polygon fill="none" stroke="black" points="224,-235.44 224,-257.44 478,-257.44 478,-235.44 224,-235.44"/>
<image xlink:href="../../images/foreignKeys.png" width="11px" height="12px" preserveAspectRatio="xMinYMin meet" x="229" y="-252.44"/>
<text text-anchor="start" x="244" y="-243.64" font-family="Helvetica,sans-Serif" font-size="11.00">cof_c_custody_id</text>
<polygon fill="none" stroke="black" points="224,-213.44 224,-235.44 478,-235.44 478,-213.44 224,-213.44"/>
<image xlink:href="../../images/foreignKeys.png" width="11px" height="12px" preserveAspectRatio="xMinYMin meet" x="229" y="-230.44"/>
<text text-anchor="start" x="244" y="-221.64" font-family="Helvetica,sans-Serif" font-size="11.00">cof_doctypepurchase_id</text>
<polygon fill="none" stroke="black" points="224,-191.44 224,-213.44 478,-213.44 478,-191.44 224,-191.44"/>
<image xlink:href="../../images/foreignKeys.png" width="11px" height="12px" preserveAspectRatio="xMinYMin meet" x="229" y="-208.44"/>
<text text-anchor="start" x="244" y="-199.64" font-family="Helvetica,sans-Serif" font-size="11.00">cof_doctypesale_id</text>
<polygon fill="none" stroke="black" points="224,-169.44 224,-191.44 478,-191.44 478,-169.44 224,-169.44"/>
<image xlink:href="../../images/foreignKeys.png" width="11px" height="12px" preserveAspectRatio="xMinYMin meet" x="229" y="-186.44"/>
<text text-anchor="start" x="244" y="-177.64" font-family="Helvetica,sans-Serif" font-size="11.00">cof_grupofornecedor_id</text>
<polygon fill="none" stroke="black" points="224,-147.44 224,-169.44 478,-169.44 478,-147.44 224,-147.44"/>
<image xlink:href="../../images/foreignKeys.png" width="11px" height="12px" preserveAspectRatio="xMinYMin meet" x="229" y="-164.44"/>
<text text-anchor="start" x="244" y="-155.64" font-family="Helvetica,sans-Serif" font-size="11.00">cof_vendedorinterno_id</text>
<polygon fill="none" stroke="black" points="224,-125.44 224,-147.44 478,-147.44 478,-125.44 224,-125.44"/>
<image xlink:href="../../images/foreignKeys.png" width="11px" height="12px" preserveAspectRatio="xMinYMin meet" x="229" y="-142.44"/>
<text text-anchor="start" x="244" y="-133.64" font-family="Helvetica,sans-Serif" font-size="11.00">cof_tipoparceiro_id</text>
<polygon fill="none" stroke="black" points="224,-103.44 224,-125.44 478,-125.44 478,-103.44 224,-103.44"/>
<image xlink:href="../../images/foreignKeys.png" width="11px" height="12px" preserveAspectRatio="xMinYMin meet" x="229" y="-120.44"/>
<text text-anchor="start" x="244" y="-111.64" font-family="Helvetica,sans-Serif" font-size="11.00">cof_classeparceiro_id</text>
<polygon fill="none" stroke="black" points="224,-85.44 224,-103.44 478,-103.44 478,-85.44 224,-85.44"/>
<text text-anchor="start" x="227" y="-91.64" font-family="Helvetica,sans-Serif" font-size="11.00">...</text>
<polygon fill="#ffffff" stroke="transparent" points="224,-67.44 224,-85.44 478,-85.44 478,-67.44 224,-67.44"/>
<polygon fill="none" stroke="black" points="224,-67.44 224,-85.44 478,-85.44 478,-67.44 224,-67.44"/>
<polygon fill="#ffffff" stroke="transparent" points="225,-68.44 225,-84.44 304,-84.44 304,-68.44 225,-68.44"/>
<text text-anchor="start" x="227" y="-73.64" font-family="Helvetica,sans-Serif" font-size="11.00">&lt; 27</text>
<polygon fill="#ffffff" stroke="transparent" points="304,-68.44 304,-84.44 393,-84.44 393,-68.44 304,-68.44"/>
<text text-anchor="start" x="332" y="-73.64" font-family="Helvetica,sans-Serif" font-size="11.00">4 rows</text>
<polygon fill="#ffffff" stroke="transparent" points="393,-68.44 393,-84.44 477,-84.44 477,-68.44 393,-68.44"/>
<text text-anchor="start" x="447" y="-73.64" font-family="Helvetica,sans-Serif" font-size="11.00">187 &gt;</text>
<polygon fill="black" stroke="black" points="304,-68.44 304,-84.44 304,-84.44 304,-68.44 304,-68.44"/>
<polygon fill="black" stroke="black" points="393,-68.44 393,-84.44 393,-84.44 393,-68.44 393,-68.44"/>
</a>
</g>
</g>
<!-- ad_user&#45;&gt;c_bpartner -->
<g id="edge1" class="edge">
<title>ad_user:w&#45;&gt;c_bpartner:e</title>
<path fill="none" stroke="black" d="M511.42,-467.81C404.93,-490.03 612.06,-774.44 479,-774.44"/>
<polygon fill="black" stroke="black" points="518.04,-467.19 526.34,-470.02 522.02,-466.82 526,-466.44 526,-466.44 526,-466.44 522.02,-466.82 525.66,-462.86 518.04,-467.19 518.04,-467.19"/>
<ellipse fill="none" stroke="black" cx="514.85" cy="-467.49" rx="3.2" ry="3.2"/>
</g>
<!-- c_bpartner&#45;&gt;ad_user -->
<g id="edge2" class="edge">
<title>c_bpartner:w&#45;&gt;ad_user:e</title>
<path fill="none" stroke="black" d="M212.87,-148.13C205.44,-125.99 212.33,-74.98 224,-63.44 265.39,-22.49 443.66,-23.47 486,-63.44 578.59,-150.84 426.41,-548.04 519,-635.44 599.15,-711.1 688.02,-712.32 767,-635.44 778.79,-623.97 784.45,-598.44 768,-598.44"/>
<polygon fill="black" stroke="black" points="217.39,-152.73 220.43,-160.96 220.2,-155.59 223,-158.44 223,-158.44 223,-158.44 220.2,-155.59 225.57,-155.92 217.39,-152.73 217.39,-152.73"/>
<ellipse fill="none" stroke="black" cx="215.15" cy="-150.45" rx="3.2" ry="3.2"/>
</g>
<!-- c_bpartner&#45;&gt;ad_user -->
<g id="edge5" class="edge">
<title>c_bpartner:w&#45;&gt;ad_user:e</title>
<path fill="none" stroke="black" d="M217.06,-409.32C204.75,-346.14 211.53,-75.87 224,-63.44 265.23,-22.33 443.66,-23.47 486,-63.44 578.59,-150.84 426.41,-548.04 519,-635.44 599.15,-711.1 688.02,-712.32 767,-635.44 778.79,-623.97 784.45,-598.44 768,-598.44"/>
<polygon fill="black" stroke="black" points="219.7,-415.15 219.72,-423.92 221.35,-418.8 223,-422.44 223,-422.44 223,-422.44 221.35,-418.8 226.28,-420.96 219.7,-415.15 219.7,-415.15"/>
<ellipse fill="none" stroke="black" cx="218.38" cy="-412.24" rx="3.2" ry="3.2"/>
</g>
<!-- m_pricelist -->
<g id="node3" class="node">
<title>m_pricelist</title>
<g id="a_node3"><a xlink:href="../../tables/m_pricelist.html" xlink:title="m_pricelist" target="_top">
<polygon fill="#ffffff" stroke="transparent" points="8,-419.44 8,-609.44 175,-609.44 175,-419.44 8,-419.44"/>
<polygon fill="#f5f5f5" stroke="transparent" points="8.5,-587.44 8.5,-609.44 175.5,-609.44 175.5,-587.44 8.5,-587.44"/>
<polygon fill="none" stroke="black" points="8.5,-587.44 8.5,-609.44 175.5,-609.44 175.5,-587.44 8.5,-587.44"/>
<text text-anchor="start" x="13.5" y="-596.64" font-family="Helvetica,sans-Serif" font-weight="bold" font-size="11.00">m_pricelist</text>
<text text-anchor="start" x="140.5" y="-595.64" font-family="Helvetica,sans-Serif" font-size="11.00">[table]</text>
<polygon fill="none" stroke="black" points="8.5,-565.44 8.5,-587.44 175.5,-587.44 175.5,-565.44 8.5,-565.44"/>
<image xlink:href="../../images/primaryKeys.png" width="11px" height="12px" preserveAspectRatio="xMinYMin meet" x="13.5" y="-582.44"/>
<text text-anchor="start" x="28.5" y="-573.64" font-family="Helvetica,sans-Serif" font-size="11.00">m_pricelist_id</text>
<polygon fill="#ffffff" stroke="transparent" points="8.5,-543.44 8.5,-565.44 175.5,-565.44 175.5,-543.44 8.5,-543.44"/>
<polygon fill="none" stroke="black" points="8.5,-543.44 8.5,-565.44 175.5,-565.44 175.5,-543.44 8.5,-543.44"/>
<text text-anchor="start" x="28.5" y="-551.64" font-family="Helvetica,sans-Serif" font-size="11.00">ad_client_id</text>
<polygon fill="#ffffff" stroke="transparent" points="8.5,-521.44 8.5,-543.44 175.5,-543.44 175.5,-521.44 8.5,-521.44"/>
<polygon fill="none" stroke="black" points="8.5,-521.44 8.5,-543.44 175.5,-543.44 175.5,-521.44 8.5,-521.44"/>
<text text-anchor="start" x="28.5" y="-529.64" font-family="Helvetica,sans-Serif" font-size="11.00">name</text>
<polygon fill="none" stroke="black" points="8.5,-499.44 8.5,-521.44 175.5,-521.44 175.5,-499.44 8.5,-499.44"/>
<image xlink:href="../../images/foreignKeys.png" width="11px" height="12px" preserveAspectRatio="xMinYMin meet" x="13.5" y="-516.44"/>
<text text-anchor="start" x="28.5" y="-507.64" font-family="Helvetica,sans-Serif" font-size="11.00">basepricelist_id</text>
<polygon fill="none" stroke="black" points="8.5,-477.44 8.5,-499.44 175.5,-499.44 175.5,-477.44 8.5,-477.44"/>
<image xlink:href="../../images/foreignKeys.png" width="11px" height="12px" preserveAspectRatio="xMinYMin meet" x="13.5" y="-494.44"/>
<text text-anchor="start" x="28.5" y="-485.64" font-family="Helvetica,sans-Serif" font-size="11.00">c_currency_id</text>
<polygon fill="#ffffff" stroke="transparent" points="8.5,-455.44 8.5,-477.44 175.5,-477.44 175.5,-455.44 8.5,-455.44"/>
<polygon fill="none" stroke="black" points="8.5,-455.44 8.5,-477.44 175.5,-477.44 175.5,-455.44 8.5,-455.44"/>
<text text-anchor="start" x="28.5" y="-463.64" font-family="Helvetica,sans-Serif" font-size="11.00">m_pricelist_uu</text>
<polygon fill="none" stroke="black" points="8.5,-437.44 8.5,-455.44 175.5,-455.44 175.5,-437.44 8.5,-437.44"/>
<text text-anchor="start" x="11.5" y="-443.64" font-family="Helvetica,sans-Serif" font-size="11.00">...</text>
<polygon fill="#ffffff" stroke="transparent" points="8.5,-419.44 8.5,-437.44 175.5,-437.44 175.5,-419.44 8.5,-419.44"/>
<polygon fill="none" stroke="black" points="8.5,-419.44 8.5,-437.44 175.5,-437.44 175.5,-419.44 8.5,-419.44"/>
<polygon fill="#ffffff" stroke="transparent" points="9.5,-420.44 9.5,-436.44 57.5,-436.44 57.5,-420.44 9.5,-420.44"/>
<text text-anchor="start" x="11.5" y="-425.64" font-family="Helvetica,sans-Serif" font-size="11.00">&lt; 2</text>
<polygon fill="#ffffff" stroke="transparent" points="57.5,-420.44 57.5,-436.44 121.5,-436.44 121.5,-420.44 57.5,-420.44"/>
<text text-anchor="start" x="73" y="-425.64" font-family="Helvetica,sans-Serif" font-size="11.00">3 rows</text>
<polygon fill="#ffffff" stroke="transparent" points="121.5,-420.44 121.5,-436.44 174.5,-436.44 174.5,-420.44 121.5,-420.44"/>
<text text-anchor="start" x="150.5" y="-425.64" font-family="Helvetica,sans-Serif" font-size="11.00">31 &gt;</text>
<polygon fill="black" stroke="black" points="57.5,-420.44 57.5,-436.44 57.5,-436.44 57.5,-420.44 57.5,-420.44"/>
<polygon fill="black" stroke="black" points="121.5,-420.44 121.5,-436.44 121.5,-436.44 121.5,-420.44 121.5,-420.44"/>
</a>
</g>
</g>
<!-- c_bpartner&#45;&gt;m_pricelist -->
<g id="edge3" class="edge">
<title>c_bpartner:w&#45;&gt;m_pricelist:e</title>
<path fill="none" stroke="black" d="M208.55,-576.44C198.2,-576.44 191.35,-576.44 176.5,-576.44"/>
<polygon fill="black" stroke="black" points="215,-576.44 223,-580.04 219,-576.44 223,-576.44 223,-576.44 223,-576.44 219,-576.44 223,-572.84 215,-576.44 215,-576.44"/>
<ellipse fill="none" stroke="black" cx="211.8" cy="-576.44" rx="3.2" ry="3.2"/>
</g>
<!-- c_bpartner&#45;&gt;m_pricelist -->
<g id="edge4" class="edge">
<title>c_bpartner:w&#45;&gt;m_pricelist:e</title>
<path fill="none" stroke="black" d="M209.3,-515.62C194,-531.18 206.22,-576.44 176.5,-576.44"/>
<polygon fill="black" stroke="black" points="215.52,-513.27 224.27,-513.81 219.26,-511.85 223,-510.44 223,-510.44 223,-510.44 219.26,-511.85 221.73,-507.07 215.52,-513.27 215.52,-513.27"/>
<ellipse fill="none" stroke="black" cx="212.52" cy="-514.4" rx="3.2" ry="3.2"/>
</g>
<!-- w_basket -->
<g id="node4" class="node">
<title>w_basket</title>
<g id="a_node4"><a xlink:href="../../tables/w_basket.html" xlink:title="w_basket" target="_top">
<polygon fill="#ffffff" stroke="transparent" points="816,-756.44 816,-1108.44 1023,-1108.44 1023,-756.44 816,-756.44"/>
<polygon fill="#f5f5f5" stroke="transparent" points="818.5,-1084.44 818.5,-1106.44 1021.5,-1106.44 1021.5,-1084.44 818.5,-1084.44"/>
<polygon fill="none" stroke="black" points="818.5,-1084.44 818.5,-1106.44 1021.5,-1106.44 1021.5,-1084.44 818.5,-1084.44"/>
<text text-anchor="start" x="823.5" y="-1093.64" font-family="Helvetica,sans-Serif" font-weight="bold" font-size="11.00">w_basket</text>
<text text-anchor="start" x="986.5" y="-1092.64" font-family="Helvetica,sans-Serif" font-size="11.00">[table]</text>
<polygon fill="none" stroke="black" points="818.5,-1062.44 818.5,-1084.44 938.5,-1084.44 938.5,-1062.44 818.5,-1062.44"/>
<image xlink:href="../../images/primaryKeys.png" width="11px" height="12px" preserveAspectRatio="xMinYMin meet" x="823.5" y="-1079.44"/>
<text text-anchor="start" x="838.5" y="-1070.64" font-family="Helvetica,sans-Serif" font-size="11.00">w_basket_id</text>
<polygon fill="none" stroke="black" points="938.5,-1062.44 938.5,-1084.44 1021.5,-1084.44 1021.5,-1062.44 938.5,-1062.44"/>
<text text-anchor="start" x="941.5" y="-1070.64" font-family="Helvetica,sans-Serif" font-size="11.00">numeric[10]</text>
<polygon fill="none" stroke="black" points="818.5,-1040.44 818.5,-1062.44 938.5,-1062.44 938.5,-1040.44 818.5,-1040.44"/>
<text text-anchor="start" x="838.5" y="-1048.64" font-family="Helvetica,sans-Serif" font-size="11.00">ad_client_id</text>
<polygon fill="none" stroke="black" points="938.5,-1040.44 938.5,-1062.44 1021.5,-1062.44 1021.5,-1040.44 938.5,-1040.44"/>
<text text-anchor="start" x="941.5" y="-1048.64" font-family="Helvetica,sans-Serif" font-size="11.00">numeric[10]</text>
<polygon fill="none" stroke="black" points="818.5,-1018.44 818.5,-1040.44 938.5,-1040.44 938.5,-1018.44 818.5,-1018.44"/>
<text text-anchor="start" x="838.5" y="-1026.64" font-family="Helvetica,sans-Serif" font-size="11.00">ad_org_id</text>
<polygon fill="none" stroke="black" points="938.5,-1018.44 938.5,-1040.44 1021.5,-1040.44 1021.5,-1018.44 938.5,-1018.44"/>
<text text-anchor="start" x="941.5" y="-1026.64" font-family="Helvetica,sans-Serif" font-size="11.00">numeric[10]</text>
<polygon fill="none" stroke="black" points="818.5,-996.44 818.5,-1018.44 938.5,-1018.44 938.5,-996.44 818.5,-996.44"/>
<text text-anchor="start" x="838.5" y="-1004.64" font-family="Helvetica,sans-Serif" font-size="11.00">isactive</text>
<polygon fill="none" stroke="black" points="938.5,-996.44 938.5,-1018.44 1021.5,-1018.44 1021.5,-996.44 938.5,-996.44"/>
<text text-anchor="start" x="941.5" y="-1004.64" font-family="Helvetica,sans-Serif" font-size="11.00">bpchar[1]</text>
<polygon fill="none" stroke="black" points="818.5,-974.44 818.5,-996.44 938.5,-996.44 938.5,-974.44 818.5,-974.44"/>
<text text-anchor="start" x="838.5" y="-982.64" font-family="Helvetica,sans-Serif" font-size="11.00">created</text>
<polygon fill="none" stroke="black" points="938.5,-974.44 938.5,-996.44 1021.5,-996.44 1021.5,-974.44 938.5,-974.44"/>
<text text-anchor="start" x="941.5" y="-982.64" font-family="Helvetica,sans-Serif" font-size="11.00">timestamp[29,6]</text>
<polygon fill="none" stroke="black" points="818.5,-952.44 818.5,-974.44 938.5,-974.44 938.5,-952.44 818.5,-952.44"/>
<text text-anchor="start" x="838.5" y="-960.64" font-family="Helvetica,sans-Serif" font-size="11.00">createdby</text>
<polygon fill="none" stroke="black" points="938.5,-952.44 938.5,-974.44 1021.5,-974.44 1021.5,-952.44 938.5,-952.44"/>
<text text-anchor="start" x="941.5" y="-960.64" font-family="Helvetica,sans-Serif" font-size="11.00">numeric[10]</text>
<polygon fill="none" stroke="black" points="818.5,-930.44 818.5,-952.44 938.5,-952.44 938.5,-930.44 818.5,-930.44"/>
<text text-anchor="start" x="838.5" y="-938.64" font-family="Helvetica,sans-Serif" font-size="11.00">updated</text>
<polygon fill="none" stroke="black" points="938.5,-930.44 938.5,-952.44 1021.5,-952.44 1021.5,-930.44 938.5,-930.44"/>
<text text-anchor="start" x="941.5" y="-938.64" font-family="Helvetica,sans-Serif" font-size="11.00">timestamp[29,6]</text>
<polygon fill="none" stroke="black" points="818.5,-908.44 818.5,-930.44 938.5,-930.44 938.5,-908.44 818.5,-908.44"/>
<text text-anchor="start" x="838.5" y="-916.64" font-family="Helvetica,sans-Serif" font-size="11.00">updatedby</text>
<polygon fill="none" stroke="black" points="938.5,-908.44 938.5,-930.44 1021.5,-930.44 1021.5,-908.44 938.5,-908.44"/>
<text text-anchor="start" x="941.5" y="-916.64" font-family="Helvetica,sans-Serif" font-size="11.00">numeric[10]</text>
<polygon fill="#ffffff" stroke="transparent" points="818.5,-886.44 818.5,-908.44 938.5,-908.44 938.5,-886.44 818.5,-886.44"/>
<polygon fill="none" stroke="black" points="818.5,-886.44 818.5,-908.44 938.5,-908.44 938.5,-886.44 818.5,-886.44"/>
<text text-anchor="start" x="838.5" y="-894.64" font-family="Helvetica,sans-Serif" font-size="11.00">session_id</text>
<polygon fill="none" stroke="black" points="938.5,-886.44 938.5,-908.44 1021.5,-908.44 1021.5,-886.44 938.5,-886.44"/>
<text text-anchor="start" x="941.5" y="-894.64" font-family="Helvetica,sans-Serif" font-size="11.00">varchar[60]</text>
<polygon fill="none" stroke="black" points="818.5,-864.44 818.5,-886.44 938.5,-886.44 938.5,-864.44 818.5,-864.44"/>
<text text-anchor="start" x="838.5" y="-872.64" font-family="Helvetica,sans-Serif" font-size="11.00">email</text>
<polygon fill="none" stroke="black" points="938.5,-864.44 938.5,-886.44 1021.5,-886.44 1021.5,-864.44 938.5,-864.44"/>
<text text-anchor="start" x="941.5" y="-872.64" font-family="Helvetica,sans-Serif" font-size="11.00">varchar[60]</text>
<polygon fill="#ffffff" stroke="transparent" points="818.5,-842.44 818.5,-864.44 938.5,-864.44 938.5,-842.44 818.5,-842.44"/>
<polygon fill="none" stroke="black" points="818.5,-842.44 818.5,-864.44 938.5,-864.44 938.5,-842.44 818.5,-842.44"/>
<image xlink:href="../../images/foreignKeys.png" width="11px" height="12px" preserveAspectRatio="xMinYMin meet" x="823.5" y="-859.44"/>
<text text-anchor="start" x="838.5" y="-850.64" font-family="Helvetica,sans-Serif" font-size="11.00">c_bpartner_id</text>
<polygon fill="none" stroke="black" points="938.5,-842.44 938.5,-864.44 1021.5,-864.44 1021.5,-842.44 938.5,-842.44"/>
<text text-anchor="start" x="941.5" y="-850.64" font-family="Helvetica,sans-Serif" font-size="11.00">numeric[10]</text>
<polygon fill="none" stroke="black" points="818.5,-820.44 818.5,-842.44 938.5,-842.44 938.5,-820.44 818.5,-820.44"/>
<image xlink:href="../../images/foreignKeys.png" width="11px" height="12px" preserveAspectRatio="xMinYMin meet" x="823.5" y="-837.44"/>
<text text-anchor="start" x="838.5" y="-828.64" font-family="Helvetica,sans-Serif" font-size="11.00">m_pricelist_id</text>
<polygon fill="none" stroke="black" points="938.5,-820.44 938.5,-842.44 1021.5,-842.44 1021.5,-820.44 938.5,-820.44"/>
<text text-anchor="start" x="941.5" y="-828.64" font-family="Helvetica,sans-Serif" font-size="11.00">numeric[10]</text>
<polygon fill="none" stroke="black" points="818.5,-798.44 818.5,-820.44 938.5,-820.44 938.5,-798.44 818.5,-798.44"/>
<image xlink:href="../../images/foreignKeys.png" width="11px" height="12px" preserveAspectRatio="xMinYMin meet" x="823.5" y="-815.44"/>
<text text-anchor="start" x="838.5" y="-806.64" font-family="Helvetica,sans-Serif" font-size="11.00">ad_user_id</text>
<polygon fill="none" stroke="black" points="938.5,-798.44 938.5,-820.44 1021.5,-820.44 1021.5,-798.44 938.5,-798.44"/>
<text text-anchor="start" x="941.5" y="-806.64" font-family="Helvetica,sans-Serif" font-size="11.00">numeric[10]</text>
<polygon fill="#ffffff" stroke="transparent" points="818.5,-776.44 818.5,-798.44 938.5,-798.44 938.5,-776.44 818.5,-776.44"/>
<polygon fill="none" stroke="black" points="818.5,-776.44 818.5,-798.44 938.5,-798.44 938.5,-776.44 818.5,-776.44"/>
<text text-anchor="start" x="838.5" y="-784.64" font-family="Helvetica,sans-Serif" font-size="11.00">w_basket_uu</text>
<polygon fill="none" stroke="black" points="938.5,-776.44 938.5,-798.44 1021.5,-798.44 1021.5,-776.44 938.5,-776.44"/>
<text text-anchor="start" x="941.5" y="-784.64" font-family="Helvetica,sans-Serif" font-size="11.00">varchar[36]</text>
<polygon fill="#ffffff" stroke="transparent" points="818.5,-758.44 818.5,-776.44 1021.5,-776.44 1021.5,-758.44 818.5,-758.44"/>
<polygon fill="none" stroke="black" points="818.5,-758.44 818.5,-776.44 1021.5,-776.44 1021.5,-758.44 818.5,-758.44"/>
<polygon fill="#ffffff" stroke="transparent" points="819.5,-759.44 819.5,-775.44 889.5,-775.44 889.5,-759.44 819.5,-759.44"/>
<text text-anchor="start" x="821.5" y="-764.64" font-family="Helvetica,sans-Serif" font-size="11.00">&lt; 3</text>
<polygon fill="#ffffff" stroke="transparent" points="889.5,-759.44 889.5,-775.44 950.5,-775.44 950.5,-759.44 889.5,-759.44"/>
<text text-anchor="start" x="916.5" y="-764.64" font-family="Helvetica,sans-Serif" font-size="11.00"> &#160;</text>
<polygon fill="#ffffff" stroke="transparent" points="950.5,-759.44 950.5,-775.44 1020.5,-775.44 1020.5,-759.44 950.5,-759.44"/>
<text text-anchor="start" x="1002.5" y="-764.64" font-family="Helvetica,sans-Serif" font-size="11.00">1 &gt;</text>
<polygon fill="black" stroke="black" points="889.5,-759.44 889.5,-775.44 889.5,-775.44 889.5,-759.44 889.5,-759.44"/>
<polygon fill="black" stroke="black" points="950.5,-759.44 950.5,-775.44 950.5,-775.44 950.5,-759.44 950.5,-759.44"/>
<polygon fill="none" stroke="black" stroke-width="2" points="817,-757.44 817,-1107.44 1022,-1107.44 1022,-757.44 817,-757.44"/>
</a>
</g>
</g>
<!-- w_basket&#45;&gt;ad_user -->
<g id="edge6" class="edge">
<title>w_basket:w&#45;&gt;ad_user:e</title>
<path fill="none" stroke="black" d="M802.94,-807.35C737.13,-785.44 858.68,-598.44 768,-598.44"/>
<polygon fill="black" stroke="black" points="809.58,-808.3 816.99,-813 813.54,-808.87 817.5,-809.44 817.5,-809.44 817.5,-809.44 813.54,-808.87 818.01,-805.88 809.58,-808.3 809.58,-808.3"/>
<ellipse fill="none" stroke="black" cx="806.41" cy="-807.85" rx="3.2" ry="3.2"/>
</g>
<!-- w_basket&#45;&gt;c_bpartner -->
<g id="edge7" class="edge">
<title>w_basket:w&#45;&gt;c_bpartner:e</title>
<path fill="none" stroke="black" d="M802.95,-853.2C660.98,-848.43 628.51,-774.44 479,-774.44"/>
<polygon fill="black" stroke="black" points="809.5,-853.31 817.44,-857.04 813.5,-853.37 817.5,-853.44 817.5,-853.44 817.5,-853.44 813.5,-853.37 817.56,-849.84 809.5,-853.31 809.5,-853.31"/>
<ellipse fill="none" stroke="black" cx="806.3" cy="-853.25" rx="3.2" ry="3.2"/>
</g>
<!-- w_basket&#45;&gt;m_pricelist -->
<g id="edge8" class="edge">
<title>w_basket:w&#45;&gt;m_pricelist:e</title>
<path fill="none" stroke="black" d="M802.75,-831.6C545.16,-837.32 414.03,-989.66 216,-817.44 175.05,-781.83 230.77,-576.44 176.5,-576.44"/>
<polygon fill="black" stroke="black" points="809.5,-831.53 817.54,-835.04 813.5,-831.48 817.5,-831.44 817.5,-831.44 817.5,-831.44 813.5,-831.48 817.46,-827.84 809.5,-831.53 809.5,-831.53"/>
<ellipse fill="none" stroke="black" cx="806.3" cy="-831.56" rx="3.2" ry="3.2"/>
</g>
<!-- w_basketline -->
<g id="node5" class="node">
<title>w_basketline</title>
<g id="a_node5"><a xlink:href="../../tables/w_basketline.html" xlink:title="w_basketline" target="_top">
<polygon fill="#ffffff" stroke="transparent" points="1072,-982.44 1072,-1128.44 1212,-1128.44 1212,-982.44 1072,-982.44"/>
<polygon fill="#f5f5f5" stroke="transparent" points="1072,-1106.44 1072,-1128.44 1212,-1128.44 1212,-1106.44 1072,-1106.44"/>
<polygon fill="none" stroke="black" points="1072,-1106.44 1072,-1128.44 1212,-1128.44 1212,-1106.44 1072,-1106.44"/>
<text text-anchor="start" x="1077" y="-1115.64" font-family="Helvetica,sans-Serif" font-weight="bold" font-size="11.00">w_basketline</text>
<text text-anchor="start" x="1177" y="-1114.64" font-family="Helvetica,sans-Serif" font-size="11.00">[table]</text>
<polygon fill="none" stroke="black" points="1072,-1084.44 1072,-1106.44 1212,-1106.44 1212,-1084.44 1072,-1084.44"/>
<image xlink:href="../../images/primaryKeys.png" width="11px" height="12px" preserveAspectRatio="xMinYMin meet" x="1077" y="-1101.44"/>
<text text-anchor="start" x="1092" y="-1092.64" font-family="Helvetica,sans-Serif" font-size="11.00">w_basketline_id</text>
<polygon fill="none" stroke="black" points="1072,-1062.44 1072,-1084.44 1212,-1084.44 1212,-1062.44 1072,-1062.44"/>
<image xlink:href="../../images/foreignKeys.png" width="11px" height="12px" preserveAspectRatio="xMinYMin meet" x="1077" y="-1079.44"/>
<text text-anchor="start" x="1092" y="-1070.64" font-family="Helvetica,sans-Serif" font-size="11.00">w_basket_id</text>
<polygon fill="none" stroke="black" points="1072,-1040.44 1072,-1062.44 1212,-1062.44 1212,-1040.44 1072,-1040.44"/>
<image xlink:href="../../images/foreignKeys.png" width="11px" height="12px" preserveAspectRatio="xMinYMin meet" x="1077" y="-1057.44"/>
<text text-anchor="start" x="1092" y="-1048.64" font-family="Helvetica,sans-Serif" font-size="11.00">m_product_id</text>
<polygon fill="#ffffff" stroke="transparent" points="1072,-1018.44 1072,-1040.44 1212,-1040.44 1212,-1018.44 1072,-1018.44"/>
<polygon fill="none" stroke="black" points="1072,-1018.44 1072,-1040.44 1212,-1040.44 1212,-1018.44 1072,-1018.44"/>
<text text-anchor="start" x="1092" y="-1026.64" font-family="Helvetica,sans-Serif" font-size="11.00">w_basketline_uu</text>
<polygon fill="none" stroke="black" points="1072,-1000.44 1072,-1018.44 1212,-1018.44 1212,-1000.44 1072,-1000.44"/>
<text text-anchor="start" x="1075" y="-1006.64" font-family="Helvetica,sans-Serif" font-size="11.00">...</text>
<polygon fill="#ffffff" stroke="transparent" points="1072,-982.44 1072,-1000.44 1212,-1000.44 1212,-982.44 1072,-982.44"/>
<polygon fill="none" stroke="black" points="1072,-982.44 1072,-1000.44 1212,-1000.44 1212,-982.44 1072,-982.44"/>
<polygon fill="#ffffff" stroke="transparent" points="1073,-983.44 1073,-999.44 1125,-999.44 1125,-983.44 1073,-983.44"/>
<text text-anchor="start" x="1075" y="-988.64" font-family="Helvetica,sans-Serif" font-size="11.00">&lt; 2</text>
<polygon fill="#ffffff" stroke="transparent" points="1125,-983.44 1125,-999.44 1168,-999.44 1168,-983.44 1125,-983.44"/>
<text text-anchor="start" x="1143" y="-988.64" font-family="Helvetica,sans-Serif" font-size="11.00"> &#160;</text>
<polygon fill="#ffffff" stroke="transparent" points="1168,-983.44 1168,-999.44 1211,-999.44 1211,-983.44 1168,-983.44"/>
<text text-anchor="start" x="1202" y="-988.64" font-family="Helvetica,sans-Serif" font-size="11.00"> &#160;</text>
<polygon fill="black" stroke="black" points="1125,-983.44 1125,-999.44 1125,-999.44 1125,-983.44 1125,-983.44"/>
<polygon fill="black" stroke="black" points="1168,-983.44 1168,-999.44 1168,-999.44 1168,-983.44 1168,-983.44"/>
</a>
</g>
</g>
<!-- w_basketline&#45;&gt;w_basket -->
<g id="edge9" class="edge">
<title>w_basketline:w&#45;&gt;w_basket:e</title>
<path fill="none" stroke="black" d="M1056.28,-1073.44C1045.29,-1073.44 1038.16,-1073.44 1022.5,-1073.44"/>
<polygon fill="black" stroke="black" points="1063,-1073.44 1071,-1077.04 1067,-1073.44 1071,-1073.44 1071,-1073.44 1071,-1073.44 1067,-1073.44 1071,-1069.84 1063,-1073.44 1063,-1073.44"/>
<ellipse fill="none" stroke="black" cx="1059.8" cy="-1073.44" rx="3.2" ry="3.2"/>
</g>
</g>
</svg>
