<?xml version="1.0" encoding="UTF-8" standalone="no"?>
<!DOCTYPE svg PUBLIC "-//W3C//DTD SVG 1.1//EN"
 "http://www.w3.org/Graphics/SVG/1.1/DTD/svg11.dtd">
<!-- Generated by graphviz version 2.43.0 (0)
 -->
<!-- Title: oneDegreeRelationshipsDiagram Pages: 1 -->
<svg width="1251pt" height="1140pt"
 viewBox="0.00 0.00 1251.00 1140.44" xmlns="http://www.w3.org/2000/svg" xmlns:xlink="http://www.w3.org/1999/xlink">
<g id="graph0" class="graph" transform="scale(1 1) rotate(0) translate(4 1136.44)">
<title>oneDegreeRelationshipsDiagram</title>
<polygon fill="#ffffff" stroke="transparent" points="-4,4 -4,-1136.44 1247,-1136.44 1247,4 -4,4"/>
<text text-anchor="middle" x="71.5" y="-7.2" font-family="Helvetica,sans-Serif" font-size="11.00">Generated by SchemaSpy</text>
<!-- ad_user -->
<g id="node1" class="node">
<title>ad_user</title>
<g id="a_node1"><a xlink:href="../../tables/ad_user.html" xlink:title="ad_user" target="_top">
<polygon fill="#ffffff" stroke="transparent" points="550,-67.44 550,-631.44 790,-631.44 790,-67.44 550,-67.44"/>
<polygon fill="#f5f5f5" stroke="transparent" points="550,-609.44 550,-631.44 790,-631.44 790,-609.44 550,-609.44"/>
<polygon fill="none" stroke="black" points="550,-609.44 550,-631.44 790,-631.44 790,-609.44 550,-609.44"/>
<text text-anchor="start" x="555" y="-618.64" font-family="Helvetica,sans-Serif" font-weight="bold" font-size="11.00">ad_user</text>
<text text-anchor="start" x="755" y="-617.64" font-family="Helvetica,sans-Serif" font-size="11.00">[table]</text>
<polygon fill="none" stroke="black" points="550,-587.44 550,-609.44 790,-609.44 790,-587.44 550,-587.44"/>
<image xlink:href="../../images/primaryKeys.png" width="11px" height="12px" preserveAspectRatio="xMinYMin meet" x="555" y="-604.44"/>
<text text-anchor="start" x="570" y="-595.64" font-family="Helvetica,sans-Serif" font-size="11.00">ad_user_id</text>
<polygon fill="none" stroke="black" points="550,-565.44 550,-587.44 790,-587.44 790,-565.44 550,-565.44"/>
<image xlink:href="../../images/foreignKeys.png" width="11px" height="12px" preserveAspectRatio="xMinYMin meet" x="555" y="-582.44"/>
<text text-anchor="start" x="570" y="-573.64" font-family="Helvetica,sans-Serif" font-size="11.00">ad_client_id</text>
<polygon fill="none" stroke="black" points="550,-543.44 550,-565.44 790,-565.44 790,-543.44 550,-543.44"/>
<image xlink:href="../../images/foreignKeys.png" width="11px" height="12px" preserveAspectRatio="xMinYMin meet" x="555" y="-560.44"/>
<text text-anchor="start" x="570" y="-551.64" font-family="Helvetica,sans-Serif" font-size="11.00">ad_org_id</text>
<polygon fill="#ffffff" stroke="transparent" points="550,-521.44 550,-543.44 790,-543.44 790,-521.44 550,-521.44"/>
<polygon fill="none" stroke="black" points="550,-521.44 550,-543.44 790,-543.44 790,-521.44 550,-521.44"/>
<text text-anchor="start" x="570" y="-529.64" font-family="Helvetica,sans-Serif" font-size="11.00">name</text>
<polygon fill="#ffffff" stroke="transparent" points="550,-499.44 550,-521.44 790,-521.44 790,-499.44 550,-499.44"/>
<polygon fill="none" stroke="black" points="550,-499.44 550,-521.44 790,-521.44 790,-499.44 550,-499.44"/>
<text text-anchor="start" x="570" y="-507.64" font-family="Helvetica,sans-Serif" font-size="11.00">email</text>
<polygon fill="none" stroke="black" points="550,-477.44 550,-499.44 790,-499.44 790,-477.44 550,-477.44"/>
<image xlink:href="../../images/foreignKeys.png" width="11px" height="12px" preserveAspectRatio="xMinYMin meet" x="555" y="-494.44"/>
<text text-anchor="start" x="570" y="-485.64" font-family="Helvetica,sans-Serif" font-size="11.00">supervisor_id</text>
<polygon fill="#ffffff" stroke="transparent" points="550,-455.44 550,-477.44 790,-477.44 790,-455.44 550,-455.44"/>
<polygon fill="none" stroke="black" points="550,-455.44 550,-477.44 790,-477.44 790,-455.44 550,-455.44"/>
<image xlink:href="../../images/foreignKeys.png" width="11px" height="12px" preserveAspectRatio="xMinYMin meet" x="555" y="-472.44"/>
<text text-anchor="start" x="570" y="-463.64" font-family="Helvetica,sans-Serif" font-size="11.00">c_bpartner_id</text>
<polygon fill="none" stroke="black" points="550,-433.44 550,-455.44 790,-455.44 790,-433.44 550,-433.44"/>
<image xlink:href="../../images/foreignKeys.png" width="11px" height="12px" preserveAspectRatio="xMinYMin meet" x="555" y="-450.44"/>
<text text-anchor="start" x="570" y="-441.64" font-family="Helvetica,sans-Serif" font-size="11.00">c_bpartner_location_id</text>
<polygon fill="none" stroke="black" points="550,-411.44 550,-433.44 790,-433.44 790,-411.44 550,-411.44"/>
<image xlink:href="../../images/foreignKeys.png" width="11px" height="12px" preserveAspectRatio="xMinYMin meet" x="555" y="-428.44"/>
<text text-anchor="start" x="570" y="-419.64" font-family="Helvetica,sans-Serif" font-size="11.00">c_greeting_id</text>
<polygon fill="none" stroke="black" points="550,-389.44 550,-411.44 790,-411.44 790,-389.44 550,-389.44"/>
<image xlink:href="../../images/foreignKeys.png" width="11px" height="12px" preserveAspectRatio="xMinYMin meet" x="555" y="-406.44"/>
<text text-anchor="start" x="570" y="-397.64" font-family="Helvetica,sans-Serif" font-size="11.00">ad_orgtrx_id</text>
<polygon fill="none" stroke="black" points="550,-367.44 550,-389.44 790,-389.44 790,-367.44 550,-367.44"/>
<image xlink:href="../../images/foreignKeys.png" width="11px" height="12px" preserveAspectRatio="xMinYMin meet" x="555" y="-384.44"/>
<text text-anchor="start" x="570" y="-375.64" font-family="Helvetica,sans-Serif" font-size="11.00">c_job_id</text>
<polygon fill="#ffffff" stroke="transparent" points="550,-345.44 550,-367.44 790,-367.44 790,-345.44 550,-345.44"/>
<polygon fill="none" stroke="black" points="550,-345.44 550,-367.44 790,-367.44 790,-345.44 550,-345.44"/>
<text text-anchor="start" x="570" y="-353.64" font-family="Helvetica,sans-Serif" font-size="11.00">ad_user_uu</text>
<polygon fill="none" stroke="black" points="550,-323.44 550,-345.44 790,-345.44 790,-323.44 550,-323.44"/>
<image xlink:href="../../images/foreignKeys.png" width="11px" height="12px" preserveAspectRatio="xMinYMin meet" x="555" y="-340.44"/>
<text text-anchor="start" x="570" y="-331.64" font-family="Helvetica,sans-Serif" font-size="11.00">c_location_id</text>
<polygon fill="none" stroke="black" points="550,-301.44 550,-323.44 790,-323.44 790,-301.44 550,-301.44"/>
<image xlink:href="../../images/foreignKeys.png" width="11px" height="12px" preserveAspectRatio="xMinYMin meet" x="555" y="-318.44"/>
<text text-anchor="start" x="570" y="-309.64" font-family="Helvetica,sans-Serif" font-size="11.00">c_campaign_id</text>
<polygon fill="none" stroke="black" points="550,-279.44 550,-301.44 790,-301.44 790,-279.44 550,-279.44"/>
<image xlink:href="../../images/foreignKeys.png" width="11px" height="12px" preserveAspectRatio="xMinYMin meet" x="555" y="-296.44"/>
<text text-anchor="start" x="570" y="-287.64" font-family="Helvetica,sans-Serif" font-size="11.00">salesrep_id</text>
<polygon fill="none" stroke="black" points="550,-257.44 550,-279.44 790,-279.44 790,-257.44 550,-257.44"/>
<image xlink:href="../../images/foreignKeys.png" width="11px" height="12px" preserveAspectRatio="xMinYMin meet" x="555" y="-274.44"/>
<text text-anchor="start" x="570" y="-265.64" font-family="Helvetica,sans-Serif" font-size="11.00">bp_location_id</text>
<polygon fill="none" stroke="black" points="550,-235.44 550,-257.44 790,-257.44 790,-235.44 550,-235.44"/>
<image xlink:href="../../images/foreignKeys.png" width="11px" height="12px" preserveAspectRatio="xMinYMin meet" x="555" y="-252.44"/>
<text text-anchor="start" x="570" y="-243.64" font-family="Helvetica,sans-Serif" font-size="11.00">r_defaultmailtext_id</text>
<polygon fill="none" stroke="black" points="550,-213.44 550,-235.44 790,-235.44 790,-213.44 550,-213.44"/>
<image xlink:href="../../images/foreignKeys.png" width="11px" height="12px" preserveAspectRatio="xMinYMin meet" x="555" y="-230.44"/>
<text text-anchor="start" x="570" y="-221.64" font-family="Helvetica,sans-Serif" font-size="11.00">cof_c_marketsegment_id</text>
<polygon fill="none" stroke="black" points="550,-191.44 550,-213.44 790,-213.44 790,-191.44 550,-191.44"/>
<image xlink:href="../../images/foreignKeys.png" width="11px" height="12px" preserveAspectRatio="xMinYMin meet" x="555" y="-208.44"/>
<text text-anchor="start" x="570" y="-199.64" font-family="Helvetica,sans-Serif" font-size="11.00">cof_c_leadexpirationreason_id</text>
<polygon fill="none" stroke="black" points="550,-169.44 550,-191.44 790,-191.44 790,-169.44 550,-169.44"/>
<image xlink:href="../../images/foreignKeys.png" width="11px" height="12px" preserveAspectRatio="xMinYMin meet" x="555" y="-186.44"/>
<text text-anchor="start" x="570" y="-177.64" font-family="Helvetica,sans-Serif" font-size="11.00">ad_image_id</text>
<polygon fill="none" stroke="black" points="550,-147.44 550,-169.44 790,-169.44 790,-147.44 550,-147.44"/>
<image xlink:href="../../images/foreignKeys.png" width="11px" height="12px" preserveAspectRatio="xMinYMin meet" x="555" y="-164.44"/>
<text text-anchor="start" x="570" y="-155.64" font-family="Helvetica,sans-Serif" font-size="11.00">c_subscription_id</text>
<polygon fill="none" stroke="black" points="550,-125.44 550,-147.44 790,-147.44 790,-125.44 550,-125.44"/>
<image xlink:href="../../images/foreignKeys.png" width="11px" height="12px" preserveAspectRatio="xMinYMin meet" x="555" y="-142.44"/>
<text text-anchor="start" x="570" y="-133.64" font-family="Helvetica,sans-Serif" font-size="11.00">cof_responsavelindicacao_id</text>
<polygon fill="none" stroke="black" points="550,-103.44 550,-125.44 790,-125.44 790,-103.44 550,-103.44"/>
<image xlink:href="../../images/foreignKeys.png" width="11px" height="12px" preserveAspectRatio="xMinYMin meet" x="555" y="-120.44"/>
<text text-anchor="start" x="570" y="-111.64" font-family="Helvetica,sans-Serif" font-size="11.00">cof_respatribuicao_id</text>
<polygon fill="none" stroke="black" points="550,-85.44 550,-103.44 790,-103.44 790,-85.44 550,-85.44"/>
<text text-anchor="start" x="553" y="-91.64" font-family="Helvetica,sans-Serif" font-size="11.00">...</text>
<polygon fill="#ffffff" stroke="transparent" points="550,-67.44 550,-85.44 790,-85.44 790,-67.44 550,-67.44"/>
<polygon fill="none" stroke="black" points="550,-67.44 550,-85.44 790,-85.44 790,-67.44 550,-67.44"/>
<polygon fill="#ffffff" stroke="transparent" points="551,-68.44 551,-84.44 625,-84.44 625,-68.44 551,-68.44"/>
<text text-anchor="start" x="553" y="-73.64" font-family="Helvetica,sans-Serif" font-size="11.00">&lt; 19</text>
<polygon fill="#ffffff" stroke="transparent" points="625,-68.44 625,-84.44 710,-84.44 710,-68.44 625,-68.44"/>
<text text-anchor="start" x="651" y="-73.64" font-family="Helvetica,sans-Serif" font-size="11.00">8 rows</text>
<polygon fill="#ffffff" stroke="transparent" points="710,-68.44 710,-84.44 789,-84.44 789,-68.44 710,-68.44"/>
<text text-anchor="start" x="759" y="-73.64" font-family="Helvetica,sans-Serif" font-size="11.00">466 &gt;</text>
<polygon fill="black" stroke="black" points="625,-68.44 625,-84.44 625,-84.44 625,-68.44 625,-68.44"/>
<polygon fill="black" stroke="black" points="710,-68.44 710,-84.44 710,-84.44 710,-68.44 710,-68.44"/>
</a>
</g>
</g>
<!-- c_bpartner -->
<g id="node2" class="node">
<title>c_bpartner</title>
<g id="a_node2"><a xlink:href="../../tables/c_bpartner.html" xlink:title="c_bpartner" target="_top">
<polygon fill="#ffffff" stroke="transparent" points="247,-67.44 247,-807.44 501,-807.44 501,-67.44 247,-67.44"/>
<polygon fill="#f5f5f5" stroke="transparent" points="247,-785.44 247,-807.44 501,-807.44 501,-785.44 247,-785.44"/>
<polygon fill="none" stroke="black" points="247,-785.44 247,-807.44 501,-807.44 501,-785.44 247,-785.44"/>
<text text-anchor="start" x="252" y="-794.64" font-family="Helvetica,sans-Serif" font-weight="bold" font-size="11.00">c_bpartner</text>
<text text-anchor="start" x="466" y="-793.64" font-family="Helvetica,sans-Serif" font-size="11.00">[table]</text>
<polygon fill="none" stroke="black" points="247,-763.44 247,-785.44 501,-785.44 501,-763.44 247,-763.44"/>
<image xlink:href="../../images/primaryKeys.png" width="11px" height="12px" preserveAspectRatio="xMinYMin meet" x="252" y="-780.44"/>
<text text-anchor="start" x="267" y="-771.64" font-family="Helvetica,sans-Serif" font-size="11.00">c_bpartner_id</text>
<polygon fill="#ffffff" stroke="transparent" points="247,-741.44 247,-763.44 501,-763.44 501,-741.44 247,-741.44"/>
<polygon fill="none" stroke="black" points="247,-741.44 247,-763.44 501,-763.44 501,-741.44 247,-741.44"/>
<image xlink:href="../../images/foreignKeys.png" width="11px" height="12px" preserveAspectRatio="xMinYMin meet" x="252" y="-758.44"/>
<text text-anchor="start" x="267" y="-749.64" font-family="Helvetica,sans-Serif" font-size="11.00">ad_client_id</text>
<polygon fill="none" stroke="black" points="247,-719.44 247,-741.44 501,-741.44 501,-719.44 247,-719.44"/>
<image xlink:href="../../images/foreignKeys.png" width="11px" height="12px" preserveAspectRatio="xMinYMin meet" x="252" y="-736.44"/>
<text text-anchor="start" x="267" y="-727.64" font-family="Helvetica,sans-Serif" font-size="11.00">ad_org_id</text>
<polygon fill="#ffffff" stroke="transparent" points="247,-697.44 247,-719.44 501,-719.44 501,-697.44 247,-697.44"/>
<polygon fill="none" stroke="black" points="247,-697.44 247,-719.44 501,-719.44 501,-697.44 247,-697.44"/>
<text text-anchor="start" x="267" y="-705.64" font-family="Helvetica,sans-Serif" font-size="11.00">value</text>
<polygon fill="#ffffff" stroke="transparent" points="247,-675.44 247,-697.44 501,-697.44 501,-675.44 247,-675.44"/>
<polygon fill="none" stroke="black" points="247,-675.44 247,-697.44 501,-697.44 501,-675.44 247,-675.44"/>
<text text-anchor="start" x="267" y="-683.64" font-family="Helvetica,sans-Serif" font-size="11.00">name</text>
<polygon fill="none" stroke="black" points="247,-653.44 247,-675.44 501,-675.44 501,-653.44 247,-653.44"/>
<image xlink:href="../../images/foreignKeys.png" width="11px" height="12px" preserveAspectRatio="xMinYMin meet" x="252" y="-670.44"/>
<text text-anchor="start" x="267" y="-661.64" font-family="Helvetica,sans-Serif" font-size="11.00">c_bp_group_id</text>
<polygon fill="none" stroke="black" points="247,-631.44 247,-653.44 501,-653.44 501,-631.44 247,-631.44"/>
<image xlink:href="../../images/foreignKeys.png" width="11px" height="12px" preserveAspectRatio="xMinYMin meet" x="252" y="-648.44"/>
<text text-anchor="start" x="267" y="-639.64" font-family="Helvetica,sans-Serif" font-size="11.00">ad_language</text>
<polygon fill="none" stroke="black" points="247,-609.44 247,-631.44 501,-631.44 501,-609.44 247,-609.44"/>
<image xlink:href="../../images/foreignKeys.png" width="11px" height="12px" preserveAspectRatio="xMinYMin meet" x="252" y="-626.44"/>
<text text-anchor="start" x="267" y="-617.64" font-family="Helvetica,sans-Serif" font-size="11.00">c_invoiceschedule_id</text>
<polygon fill="none" stroke="black" points="247,-587.44 247,-609.44 501,-609.44 501,-587.44 247,-587.44"/>
<image xlink:href="../../images/foreignKeys.png" width="11px" height="12px" preserveAspectRatio="xMinYMin meet" x="252" y="-604.44"/>
<text text-anchor="start" x="267" y="-595.64" font-family="Helvetica,sans-Serif" font-size="11.00">c_paymentterm_id</text>
<polygon fill="none" stroke="black" points="247,-565.44 247,-587.44 501,-587.44 501,-565.44 247,-565.44"/>
<image xlink:href="../../images/foreignKeys.png" width="11px" height="12px" preserveAspectRatio="xMinYMin meet" x="252" y="-582.44"/>
<text text-anchor="start" x="267" y="-573.64" font-family="Helvetica,sans-Serif" font-size="11.00">m_pricelist_id</text>
<polygon fill="none" stroke="black" points="247,-543.44 247,-565.44 501,-565.44 501,-543.44 247,-543.44"/>
<image xlink:href="../../images/foreignKeys.png" width="11px" height="12px" preserveAspectRatio="xMinYMin meet" x="252" y="-560.44"/>
<text text-anchor="start" x="267" y="-551.64" font-family="Helvetica,sans-Serif" font-size="11.00">m_discountschema_id</text>
<polygon fill="none" stroke="black" points="247,-521.44 247,-543.44 501,-543.44 501,-521.44 247,-521.44"/>
<image xlink:href="../../images/foreignKeys.png" width="11px" height="12px" preserveAspectRatio="xMinYMin meet" x="252" y="-538.44"/>
<text text-anchor="start" x="267" y="-529.64" font-family="Helvetica,sans-Serif" font-size="11.00">c_dunning_id</text>
<polygon fill="none" stroke="black" points="247,-499.44 247,-521.44 501,-521.44 501,-499.44 247,-499.44"/>
<image xlink:href="../../images/foreignKeys.png" width="11px" height="12px" preserveAspectRatio="xMinYMin meet" x="252" y="-516.44"/>
<text text-anchor="start" x="267" y="-507.64" font-family="Helvetica,sans-Serif" font-size="11.00">po_pricelist_id</text>
<polygon fill="none" stroke="black" points="247,-477.44 247,-499.44 501,-499.44 501,-477.44 247,-477.44"/>
<image xlink:href="../../images/foreignKeys.png" width="11px" height="12px" preserveAspectRatio="xMinYMin meet" x="252" y="-494.44"/>
<text text-anchor="start" x="267" y="-485.64" font-family="Helvetica,sans-Serif" font-size="11.00">po_discountschema_id</text>
<polygon fill="none" stroke="black" points="247,-455.44 247,-477.44 501,-477.44 501,-455.44 247,-455.44"/>
<image xlink:href="../../images/foreignKeys.png" width="11px" height="12px" preserveAspectRatio="xMinYMin meet" x="252" y="-472.44"/>
<text text-anchor="start" x="267" y="-463.64" font-family="Helvetica,sans-Serif" font-size="11.00">po_paymentterm_id</text>
<polygon fill="none" stroke="black" points="247,-433.44 247,-455.44 501,-455.44 501,-433.44 247,-433.44"/>
<image xlink:href="../../images/foreignKeys.png" width="11px" height="12px" preserveAspectRatio="xMinYMin meet" x="252" y="-450.44"/>
<text text-anchor="start" x="267" y="-441.64" font-family="Helvetica,sans-Serif" font-size="11.00">c_greeting_id</text>
<polygon fill="none" stroke="black" points="247,-411.44 247,-433.44 501,-433.44 501,-411.44 247,-411.44"/>
<image xlink:href="../../images/foreignKeys.png" width="11px" height="12px" preserveAspectRatio="xMinYMin meet" x="252" y="-428.44"/>
<text text-anchor="start" x="267" y="-419.64" font-family="Helvetica,sans-Serif" font-size="11.00">salesrep_id</text>
<polygon fill="none" stroke="black" points="247,-389.44 247,-411.44 501,-411.44 501,-389.44 247,-389.44"/>
<image xlink:href="../../images/foreignKeys.png" width="11px" height="12px" preserveAspectRatio="xMinYMin meet" x="252" y="-406.44"/>
<text text-anchor="start" x="267" y="-397.64" font-family="Helvetica,sans-Serif" font-size="11.00">bpartner_parent_id</text>
<polygon fill="none" stroke="black" points="247,-367.44 247,-389.44 501,-389.44 501,-367.44 247,-367.44"/>
<image xlink:href="../../images/foreignKeys.png" width="11px" height="12px" preserveAspectRatio="xMinYMin meet" x="252" y="-384.44"/>
<text text-anchor="start" x="267" y="-375.64" font-family="Helvetica,sans-Serif" font-size="11.00">invoice_printformat_id</text>
<polygon fill="#ffffff" stroke="transparent" points="247,-345.44 247,-367.44 501,-367.44 501,-345.44 247,-345.44"/>
<polygon fill="none" stroke="black" points="247,-345.44 247,-367.44 501,-367.44 501,-345.44 247,-345.44"/>
<image xlink:href="../../images/foreignKeys.png" width="11px" height="12px" preserveAspectRatio="xMinYMin meet" x="252" y="-362.44"/>
<text text-anchor="start" x="267" y="-353.64" font-family="Helvetica,sans-Serif" font-size="11.00">ad_orgbp_id</text>
<polygon fill="none" stroke="black" points="247,-323.44 247,-345.44 501,-345.44 501,-323.44 247,-323.44"/>
<image xlink:href="../../images/foreignKeys.png" width="11px" height="12px" preserveAspectRatio="xMinYMin meet" x="252" y="-340.44"/>
<text text-anchor="start" x="267" y="-331.64" font-family="Helvetica,sans-Serif" font-size="11.00">c_taxgroup_id</text>
<polygon fill="none" stroke="black" points="247,-301.44 247,-323.44 501,-323.44 501,-301.44 247,-301.44"/>
<image xlink:href="../../images/foreignKeys.png" width="11px" height="12px" preserveAspectRatio="xMinYMin meet" x="252" y="-318.44"/>
<text text-anchor="start" x="267" y="-309.64" font-family="Helvetica,sans-Serif" font-size="11.00">logo_id</text>
<polygon fill="#ffffff" stroke="transparent" points="247,-279.44 247,-301.44 501,-301.44 501,-279.44 247,-279.44"/>
<polygon fill="none" stroke="black" points="247,-279.44 247,-301.44 501,-301.44 501,-279.44 247,-279.44"/>
<text text-anchor="start" x="267" y="-287.64" font-family="Helvetica,sans-Serif" font-size="11.00">c_bpartner_uu</text>
<polygon fill="none" stroke="black" points="247,-257.44 247,-279.44 501,-279.44 501,-257.44 247,-257.44"/>
<image xlink:href="../../images/foreignKeys.png" width="11px" height="12px" preserveAspectRatio="xMinYMin meet" x="252" y="-274.44"/>
<text text-anchor="start" x="267" y="-265.64" font-family="Helvetica,sans-Serif" font-size="11.00">default1099box_id</text>
<polygon fill="none" stroke="black" points="247,-235.44 247,-257.44 501,-257.44 501,-235.44 247,-235.44"/>
<image xlink:href="../../images/foreignKeys.png" width="11px" height="12px" preserveAspectRatio="xMinYMin meet" x="252" y="-252.44"/>
<text text-anchor="start" x="267" y="-243.64" font-family="Helvetica,sans-Serif" font-size="11.00">cof_c_custody_id</text>
<polygon fill="none" stroke="black" points="247,-213.44 247,-235.44 501,-235.44 501,-213.44 247,-213.44"/>
<image xlink:href="../../images/foreignKeys.png" width="11px" height="12px" preserveAspectRatio="xMinYMin meet" x="252" y="-230.44"/>
<text text-anchor="start" x="267" y="-221.64" font-family="Helvetica,sans-Serif" font-size="11.00">cof_doctypepurchase_id</text>
<polygon fill="none" stroke="black" points="247,-191.44 247,-213.44 501,-213.44 501,-191.44 247,-191.44"/>
<image xlink:href="../../images/foreignKeys.png" width="11px" height="12px" preserveAspectRatio="xMinYMin meet" x="252" y="-208.44"/>
<text text-anchor="start" x="267" y="-199.64" font-family="Helvetica,sans-Serif" font-size="11.00">cof_doctypesale_id</text>
<polygon fill="none" stroke="black" points="247,-169.44 247,-191.44 501,-191.44 501,-169.44 247,-169.44"/>
<image xlink:href="../../images/foreignKeys.png" width="11px" height="12px" preserveAspectRatio="xMinYMin meet" x="252" y="-186.44"/>
<text text-anchor="start" x="267" y="-177.64" font-family="Helvetica,sans-Serif" font-size="11.00">cof_grupofornecedor_id</text>
<polygon fill="none" stroke="black" points="247,-147.44 247,-169.44 501,-169.44 501,-147.44 247,-147.44"/>
<image xlink:href="../../images/foreignKeys.png" width="11px" height="12px" preserveAspectRatio="xMinYMin meet" x="252" y="-164.44"/>
<text text-anchor="start" x="267" y="-155.64" font-family="Helvetica,sans-Serif" font-size="11.00">cof_vendedorinterno_id</text>
<polygon fill="none" stroke="black" points="247,-125.44 247,-147.44 501,-147.44 501,-125.44 247,-125.44"/>
<image xlink:href="../../images/foreignKeys.png" width="11px" height="12px" preserveAspectRatio="xMinYMin meet" x="252" y="-142.44"/>
<text text-anchor="start" x="267" y="-133.64" font-family="Helvetica,sans-Serif" font-size="11.00">cof_tipoparceiro_id</text>
<polygon fill="none" stroke="black" points="247,-103.44 247,-125.44 501,-125.44 501,-103.44 247,-103.44"/>
<image xlink:href="../../images/foreignKeys.png" width="11px" height="12px" preserveAspectRatio="xMinYMin meet" x="252" y="-120.44"/>
<text text-anchor="start" x="267" y="-111.64" font-family="Helvetica,sans-Serif" font-size="11.00">cof_classeparceiro_id</text>
<polygon fill="none" stroke="black" points="247,-85.44 247,-103.44 501,-103.44 501,-85.44 247,-85.44"/>
<text text-anchor="start" x="250" y="-91.64" font-family="Helvetica,sans-Serif" font-size="11.00">...</text>
<polygon fill="#ffffff" stroke="transparent" points="247,-67.44 247,-85.44 501,-85.44 501,-67.44 247,-67.44"/>
<polygon fill="none" stroke="black" points="247,-67.44 247,-85.44 501,-85.44 501,-67.44 247,-67.44"/>
<polygon fill="#ffffff" stroke="transparent" points="248,-68.44 248,-84.44 327,-84.44 327,-68.44 248,-68.44"/>
<text text-anchor="start" x="250" y="-73.64" font-family="Helvetica,sans-Serif" font-size="11.00">&lt; 27</text>
<polygon fill="#ffffff" stroke="transparent" points="327,-68.44 327,-84.44 416,-84.44 416,-68.44 327,-68.44"/>
<text text-anchor="start" x="355" y="-73.64" font-family="Helvetica,sans-Serif" font-size="11.00">4 rows</text>
<polygon fill="#ffffff" stroke="transparent" points="416,-68.44 416,-84.44 500,-84.44 500,-68.44 416,-68.44"/>
<text text-anchor="start" x="470" y="-73.64" font-family="Helvetica,sans-Serif" font-size="11.00">190 &gt;</text>
<polygon fill="black" stroke="black" points="327,-68.44 327,-84.44 327,-84.44 327,-68.44 327,-68.44"/>
<polygon fill="black" stroke="black" points="416,-68.44 416,-84.44 416,-84.44 416,-68.44 416,-68.44"/>
</a>
</g>
</g>
<!-- ad_user&#45;&gt;c_bpartner -->
<g id="edge1" class="edge">
<title>ad_user:w&#45;&gt;c_bpartner:e</title>
<path fill="none" stroke="black" d="M534.42,-467.81C427.93,-490.03 635.06,-774.44 502,-774.44"/>
<polygon fill="black" stroke="black" points="541.04,-467.19 549.34,-470.02 545.02,-466.82 549,-466.44 549,-466.44 549,-466.44 545.02,-466.82 548.66,-462.86 541.04,-467.19 541.04,-467.19"/>
<ellipse fill="none" stroke="black" cx="537.85" cy="-467.49" rx="3.2" ry="3.2"/>
</g>
<!-- c_bpartner&#45;&gt;ad_user -->
<g id="edge2" class="edge">
<title>c_bpartner:w&#45;&gt;ad_user:e</title>
<path fill="none" stroke="black" d="M235.87,-148.13C228.44,-125.99 235.33,-74.98 247,-63.44 288.39,-22.49 466.66,-23.47 509,-63.44 601.59,-150.84 449.41,-548.04 542,-635.44 622.15,-711.1 711.02,-712.32 790,-635.44 801.79,-623.97 807.45,-598.44 791,-598.44"/>
<polygon fill="black" stroke="black" points="240.39,-152.73 243.43,-160.96 243.2,-155.59 246,-158.44 246,-158.44 246,-158.44 243.2,-155.59 248.57,-155.92 240.39,-152.73 240.39,-152.73"/>
<ellipse fill="none" stroke="black" cx="238.15" cy="-150.45" rx="3.2" ry="3.2"/>
</g>
<!-- c_bpartner&#45;&gt;ad_user -->
<g id="edge5" class="edge">
<title>c_bpartner:w&#45;&gt;ad_user:e</title>
<path fill="none" stroke="black" d="M240.06,-409.32C227.75,-346.14 234.53,-75.87 247,-63.44 288.23,-22.33 466.66,-23.47 509,-63.44 601.59,-150.84 449.41,-548.04 542,-635.44 622.15,-711.1 711.02,-712.32 790,-635.44 801.79,-623.97 807.45,-598.44 791,-598.44"/>
<polygon fill="black" stroke="black" points="242.7,-415.15 242.72,-423.92 244.35,-418.8 246,-422.44 246,-422.44 246,-422.44 244.35,-418.8 249.28,-420.96 242.7,-415.15 242.7,-415.15"/>
<ellipse fill="none" stroke="black" cx="241.38" cy="-412.24" rx="3.2" ry="3.2"/>
</g>
<!-- m_pricelist -->
<g id="node3" class="node">
<title>m_pricelist</title>
<g id="a_node3"><a xlink:href="../../tables/m_pricelist.html" xlink:title="m_pricelist" target="_top">
<polygon fill="#ffffff" stroke="transparent" points="8,-419.44 8,-609.44 198,-609.44 198,-419.44 8,-419.44"/>
<polygon fill="#f5f5f5" stroke="transparent" points="8,-587.44 8,-609.44 198,-609.44 198,-587.44 8,-587.44"/>
<polygon fill="none" stroke="black" points="8,-587.44 8,-609.44 198,-609.44 198,-587.44 8,-587.44"/>
<text text-anchor="start" x="13" y="-596.64" font-family="Helvetica,sans-Serif" font-weight="bold" font-size="11.00">m_pricelist</text>
<text text-anchor="start" x="163" y="-595.64" font-family="Helvetica,sans-Serif" font-size="11.00">[table]</text>
<polygon fill="none" stroke="black" points="8,-565.44 8,-587.44 198,-587.44 198,-565.44 8,-565.44"/>
<image xlink:href="../../images/primaryKeys.png" width="11px" height="12px" preserveAspectRatio="xMinYMin meet" x="13" y="-582.44"/>
<text text-anchor="start" x="28" y="-573.64" font-family="Helvetica,sans-Serif" font-size="11.00">m_pricelist_id</text>
<polygon fill="#ffffff" stroke="transparent" points="8,-543.44 8,-565.44 198,-565.44 198,-543.44 8,-543.44"/>
<polygon fill="none" stroke="black" points="8,-543.44 8,-565.44 198,-565.44 198,-543.44 8,-543.44"/>
<text text-anchor="start" x="28" y="-551.64" font-family="Helvetica,sans-Serif" font-size="11.00">ad_client_id</text>
<polygon fill="#ffffff" stroke="transparent" points="8,-521.44 8,-543.44 198,-543.44 198,-521.44 8,-521.44"/>
<polygon fill="none" stroke="black" points="8,-521.44 8,-543.44 198,-543.44 198,-521.44 8,-521.44"/>
<text text-anchor="start" x="28" y="-529.64" font-family="Helvetica,sans-Serif" font-size="11.00">name</text>
<polygon fill="none" stroke="black" points="8,-499.44 8,-521.44 198,-521.44 198,-499.44 8,-499.44"/>
<image xlink:href="../../images/foreignKeys.png" width="11px" height="12px" preserveAspectRatio="xMinYMin meet" x="13" y="-516.44"/>
<text text-anchor="start" x="28" y="-507.64" font-family="Helvetica,sans-Serif" font-size="11.00">basepricelist_id</text>
<polygon fill="none" stroke="black" points="8,-477.44 8,-499.44 198,-499.44 198,-477.44 8,-477.44"/>
<image xlink:href="../../images/foreignKeys.png" width="11px" height="12px" preserveAspectRatio="xMinYMin meet" x="13" y="-494.44"/>
<text text-anchor="start" x="28" y="-485.64" font-family="Helvetica,sans-Serif" font-size="11.00">c_currency_id</text>
<polygon fill="#ffffff" stroke="transparent" points="8,-455.44 8,-477.44 198,-477.44 198,-455.44 8,-455.44"/>
<polygon fill="none" stroke="black" points="8,-455.44 8,-477.44 198,-477.44 198,-455.44 8,-455.44"/>
<text text-anchor="start" x="28" y="-463.64" font-family="Helvetica,sans-Serif" font-size="11.00">m_pricelist_uu</text>
<polygon fill="none" stroke="black" points="8,-437.44 8,-455.44 198,-455.44 198,-437.44 8,-437.44"/>
<text text-anchor="start" x="11" y="-443.64" font-family="Helvetica,sans-Serif" font-size="11.00">...</text>
<polygon fill="#ffffff" stroke="transparent" points="8,-419.44 8,-437.44 198,-437.44 198,-419.44 8,-419.44"/>
<polygon fill="none" stroke="black" points="8,-419.44 8,-437.44 198,-437.44 198,-419.44 8,-419.44"/>
<polygon fill="#ffffff" stroke="transparent" points="9,-420.44 9,-436.44 64,-436.44 64,-420.44 9,-420.44"/>
<text text-anchor="start" x="11" y="-425.64" font-family="Helvetica,sans-Serif" font-size="11.00">&lt; 2</text>
<polygon fill="#ffffff" stroke="transparent" points="64,-420.44 64,-436.44 136,-436.44 136,-420.44 64,-420.44"/>
<text text-anchor="start" x="83.5" y="-425.64" font-family="Helvetica,sans-Serif" font-size="11.00">3 rows</text>
<polygon fill="#ffffff" stroke="transparent" points="136,-420.44 136,-436.44 197,-436.44 197,-420.44 136,-420.44"/>
<text text-anchor="start" x="173" y="-425.64" font-family="Helvetica,sans-Serif" font-size="11.00">31 &gt;</text>
<polygon fill="black" stroke="black" points="64,-420.44 64,-436.44 64,-436.44 64,-420.44 64,-420.44"/>
<polygon fill="black" stroke="black" points="136,-420.44 136,-436.44 136,-436.44 136,-420.44 136,-420.44"/>
</a>
</g>
</g>
<!-- c_bpartner&#45;&gt;m_pricelist -->
<g id="edge3" class="edge">
<title>c_bpartner:w&#45;&gt;m_pricelist:e</title>
<path fill="none" stroke="black" d="M231.4,-576.44C220.93,-576.44 214.01,-576.44 199,-576.44"/>
<polygon fill="black" stroke="black" points="238,-576.44 246,-580.04 242,-576.44 246,-576.44 246,-576.44 246,-576.44 242,-576.44 246,-572.84 238,-576.44 238,-576.44"/>
<ellipse fill="none" stroke="black" cx="234.8" cy="-576.44" rx="3.2" ry="3.2"/>
</g>
<!-- c_bpartner&#45;&gt;m_pricelist -->
<g id="edge4" class="edge">
<title>c_bpartner:w&#45;&gt;m_pricelist:e</title>
<path fill="none" stroke="black" d="M232.22,-515.62C216.79,-531.18 228.82,-576.44 199,-576.44"/>
<polygon fill="black" stroke="black" points="238.51,-513.25 247.27,-513.81 242.26,-511.85 246,-510.44 246,-510.44 246,-510.44 242.26,-511.85 244.73,-507.07 238.51,-513.25 238.51,-513.25"/>
<ellipse fill="none" stroke="black" cx="235.52" cy="-514.38" rx="3.2" ry="3.2"/>
</g>
<!-- w_basket -->
<g id="node4" class="node">
<title>w_basket</title>
<g id="a_node4"><a xlink:href="../../tables/w_basket.html" xlink:title="w_basket" target="_top">
<polygon fill="#ffffff" stroke="transparent" points="839,-756.44 839,-1108.44 1046,-1108.44 1046,-756.44 839,-756.44"/>
<polygon fill="#f5f5f5" stroke="transparent" points="841.5,-1084.44 841.5,-1106.44 1044.5,-1106.44 1044.5,-1084.44 841.5,-1084.44"/>
<polygon fill="none" stroke="black" points="841.5,-1084.44 841.5,-1106.44 1044.5,-1106.44 1044.5,-1084.44 841.5,-1084.44"/>
<text text-anchor="start" x="846.5" y="-1093.64" font-family="Helvetica,sans-Serif" font-weight="bold" font-size="11.00">w_basket</text>
<text text-anchor="start" x="1009.5" y="-1092.64" font-family="Helvetica,sans-Serif" font-size="11.00">[table]</text>
<polygon fill="none" stroke="black" points="841.5,-1062.44 841.5,-1084.44 961.5,-1084.44 961.5,-1062.44 841.5,-1062.44"/>
<image xlink:href="../../images/primaryKeys.png" width="11px" height="12px" preserveAspectRatio="xMinYMin meet" x="846.5" y="-1079.44"/>
<text text-anchor="start" x="861.5" y="-1070.64" font-family="Helvetica,sans-Serif" font-size="11.00">w_basket_id</text>
<polygon fill="none" stroke="black" points="961.5,-1062.44 961.5,-1084.44 1044.5,-1084.44 1044.5,-1062.44 961.5,-1062.44"/>
<text text-anchor="start" x="964.5" y="-1070.64" font-family="Helvetica,sans-Serif" font-size="11.00">numeric[10]</text>
<polygon fill="none" stroke="black" points="841.5,-1040.44 841.5,-1062.44 961.5,-1062.44 961.5,-1040.44 841.5,-1040.44"/>
<text text-anchor="start" x="861.5" y="-1048.64" font-family="Helvetica,sans-Serif" font-size="11.00">ad_client_id</text>
<polygon fill="none" stroke="black" points="961.5,-1040.44 961.5,-1062.44 1044.5,-1062.44 1044.5,-1040.44 961.5,-1040.44"/>
<text text-anchor="start" x="964.5" y="-1048.64" font-family="Helvetica,sans-Serif" font-size="11.00">numeric[10]</text>
<polygon fill="none" stroke="black" points="841.5,-1018.44 841.5,-1040.44 961.5,-1040.44 961.5,-1018.44 841.5,-1018.44"/>
<text text-anchor="start" x="861.5" y="-1026.64" font-family="Helvetica,sans-Serif" font-size="11.00">ad_org_id</text>
<polygon fill="none" stroke="black" points="961.5,-1018.44 961.5,-1040.44 1044.5,-1040.44 1044.5,-1018.44 961.5,-1018.44"/>
<text text-anchor="start" x="964.5" y="-1026.64" font-family="Helvetica,sans-Serif" font-size="11.00">numeric[10]</text>
<polygon fill="none" stroke="black" points="841.5,-996.44 841.5,-1018.44 961.5,-1018.44 961.5,-996.44 841.5,-996.44"/>
<text text-anchor="start" x="861.5" y="-1004.64" font-family="Helvetica,sans-Serif" font-size="11.00">isactive</text>
<polygon fill="none" stroke="black" points="961.5,-996.44 961.5,-1018.44 1044.5,-1018.44 1044.5,-996.44 961.5,-996.44"/>
<text text-anchor="start" x="964.5" y="-1004.64" font-family="Helvetica,sans-Serif" font-size="11.00">bpchar[1]</text>
<polygon fill="none" stroke="black" points="841.5,-974.44 841.5,-996.44 961.5,-996.44 961.5,-974.44 841.5,-974.44"/>
<text text-anchor="start" x="861.5" y="-982.64" font-family="Helvetica,sans-Serif" font-size="11.00">created</text>
<polygon fill="none" stroke="black" points="961.5,-974.44 961.5,-996.44 1044.5,-996.44 1044.5,-974.44 961.5,-974.44"/>
<text text-anchor="start" x="964.5" y="-982.64" font-family="Helvetica,sans-Serif" font-size="11.00">timestamp[29,6]</text>
<polygon fill="none" stroke="black" points="841.5,-952.44 841.5,-974.44 961.5,-974.44 961.5,-952.44 841.5,-952.44"/>
<text text-anchor="start" x="861.5" y="-960.64" font-family="Helvetica,sans-Serif" font-size="11.00">createdby</text>
<polygon fill="none" stroke="black" points="961.5,-952.44 961.5,-974.44 1044.5,-974.44 1044.5,-952.44 961.5,-952.44"/>
<text text-anchor="start" x="964.5" y="-960.64" font-family="Helvetica,sans-Serif" font-size="11.00">numeric[10]</text>
<polygon fill="none" stroke="black" points="841.5,-930.44 841.5,-952.44 961.5,-952.44 961.5,-930.44 841.5,-930.44"/>
<text text-anchor="start" x="861.5" y="-938.64" font-family="Helvetica,sans-Serif" font-size="11.00">updated</text>
<polygon fill="none" stroke="black" points="961.5,-930.44 961.5,-952.44 1044.5,-952.44 1044.5,-930.44 961.5,-930.44"/>
<text text-anchor="start" x="964.5" y="-938.64" font-family="Helvetica,sans-Serif" font-size="11.00">timestamp[29,6]</text>
<polygon fill="none" stroke="black" points="841.5,-908.44 841.5,-930.44 961.5,-930.44 961.5,-908.44 841.5,-908.44"/>
<text text-anchor="start" x="861.5" y="-916.64" font-family="Helvetica,sans-Serif" font-size="11.00">updatedby</text>
<polygon fill="none" stroke="black" points="961.5,-908.44 961.5,-930.44 1044.5,-930.44 1044.5,-908.44 961.5,-908.44"/>
<text text-anchor="start" x="964.5" y="-916.64" font-family="Helvetica,sans-Serif" font-size="11.00">numeric[10]</text>
<polygon fill="#ffffff" stroke="transparent" points="841.5,-886.44 841.5,-908.44 961.5,-908.44 961.5,-886.44 841.5,-886.44"/>
<polygon fill="none" stroke="black" points="841.5,-886.44 841.5,-908.44 961.5,-908.44 961.5,-886.44 841.5,-886.44"/>
<text text-anchor="start" x="861.5" y="-894.64" font-family="Helvetica,sans-Serif" font-size="11.00">session_id</text>
<polygon fill="none" stroke="black" points="961.5,-886.44 961.5,-908.44 1044.5,-908.44 1044.5,-886.44 961.5,-886.44"/>
<text text-anchor="start" x="964.5" y="-894.64" font-family="Helvetica,sans-Serif" font-size="11.00">varchar[60]</text>
<polygon fill="none" stroke="black" points="841.5,-864.44 841.5,-886.44 961.5,-886.44 961.5,-864.44 841.5,-864.44"/>
<text text-anchor="start" x="861.5" y="-872.64" font-family="Helvetica,sans-Serif" font-size="11.00">email</text>
<polygon fill="none" stroke="black" points="961.5,-864.44 961.5,-886.44 1044.5,-886.44 1044.5,-864.44 961.5,-864.44"/>
<text text-anchor="start" x="964.5" y="-872.64" font-family="Helvetica,sans-Serif" font-size="11.00">varchar[60]</text>
<polygon fill="#ffffff" stroke="transparent" points="841.5,-842.44 841.5,-864.44 961.5,-864.44 961.5,-842.44 841.5,-842.44"/>
<polygon fill="none" stroke="black" points="841.5,-842.44 841.5,-864.44 961.5,-864.44 961.5,-842.44 841.5,-842.44"/>
<image xlink:href="../../images/foreignKeys.png" width="11px" height="12px" preserveAspectRatio="xMinYMin meet" x="846.5" y="-859.44"/>
<text text-anchor="start" x="861.5" y="-850.64" font-family="Helvetica,sans-Serif" font-size="11.00">c_bpartner_id</text>
<polygon fill="none" stroke="black" points="961.5,-842.44 961.5,-864.44 1044.5,-864.44 1044.5,-842.44 961.5,-842.44"/>
<text text-anchor="start" x="964.5" y="-850.64" font-family="Helvetica,sans-Serif" font-size="11.00">numeric[10]</text>
<polygon fill="none" stroke="black" points="841.5,-820.44 841.5,-842.44 961.5,-842.44 961.5,-820.44 841.5,-820.44"/>
<image xlink:href="../../images/foreignKeys.png" width="11px" height="12px" preserveAspectRatio="xMinYMin meet" x="846.5" y="-837.44"/>
<text text-anchor="start" x="861.5" y="-828.64" font-family="Helvetica,sans-Serif" font-size="11.00">m_pricelist_id</text>
<polygon fill="none" stroke="black" points="961.5,-820.44 961.5,-842.44 1044.5,-842.44 1044.5,-820.44 961.5,-820.44"/>
<text text-anchor="start" x="964.5" y="-828.64" font-family="Helvetica,sans-Serif" font-size="11.00">numeric[10]</text>
<polygon fill="none" stroke="black" points="841.5,-798.44 841.5,-820.44 961.5,-820.44 961.5,-798.44 841.5,-798.44"/>
<image xlink:href="../../images/foreignKeys.png" width="11px" height="12px" preserveAspectRatio="xMinYMin meet" x="846.5" y="-815.44"/>
<text text-anchor="start" x="861.5" y="-806.64" font-family="Helvetica,sans-Serif" font-size="11.00">ad_user_id</text>
<polygon fill="none" stroke="black" points="961.5,-798.44 961.5,-820.44 1044.5,-820.44 1044.5,-798.44 961.5,-798.44"/>
<text text-anchor="start" x="964.5" y="-806.64" font-family="Helvetica,sans-Serif" font-size="11.00">numeric[10]</text>
<polygon fill="#ffffff" stroke="transparent" points="841.5,-776.44 841.5,-798.44 961.5,-798.44 961.5,-776.44 841.5,-776.44"/>
<polygon fill="none" stroke="black" points="841.5,-776.44 841.5,-798.44 961.5,-798.44 961.5,-776.44 841.5,-776.44"/>
<text text-anchor="start" x="861.5" y="-784.64" font-family="Helvetica,sans-Serif" font-size="11.00">w_basket_uu</text>
<polygon fill="none" stroke="black" points="961.5,-776.44 961.5,-798.44 1044.5,-798.44 1044.5,-776.44 961.5,-776.44"/>
<text text-anchor="start" x="964.5" y="-784.64" font-family="Helvetica,sans-Serif" font-size="11.00">varchar[36]</text>
<polygon fill="#ffffff" stroke="transparent" points="841.5,-758.44 841.5,-776.44 1044.5,-776.44 1044.5,-758.44 841.5,-758.44"/>
<polygon fill="none" stroke="black" points="841.5,-758.44 841.5,-776.44 1044.5,-776.44 1044.5,-758.44 841.5,-758.44"/>
<polygon fill="#ffffff" stroke="transparent" points="842.5,-759.44 842.5,-775.44 912.5,-775.44 912.5,-759.44 842.5,-759.44"/>
<text text-anchor="start" x="844.5" y="-764.64" font-family="Helvetica,sans-Serif" font-size="11.00">&lt; 3</text>
<polygon fill="#ffffff" stroke="transparent" points="912.5,-759.44 912.5,-775.44 973.5,-775.44 973.5,-759.44 912.5,-759.44"/>
<text text-anchor="start" x="939.5" y="-764.64" font-family="Helvetica,sans-Serif" font-size="11.00"> &#160;</text>
<polygon fill="#ffffff" stroke="transparent" points="973.5,-759.44 973.5,-775.44 1043.5,-775.44 1043.5,-759.44 973.5,-759.44"/>
<text text-anchor="start" x="1025.5" y="-764.64" font-family="Helvetica,sans-Serif" font-size="11.00">1 &gt;</text>
<polygon fill="black" stroke="black" points="912.5,-759.44 912.5,-775.44 912.5,-775.44 912.5,-759.44 912.5,-759.44"/>
<polygon fill="black" stroke="black" points="973.5,-759.44 973.5,-775.44 973.5,-775.44 973.5,-759.44 973.5,-759.44"/>
<polygon fill="none" stroke="black" stroke-width="2" points="840,-757.44 840,-1107.44 1045,-1107.44 1045,-757.44 840,-757.44"/>
</a>
</g>
</g>
<!-- w_basket&#45;&gt;ad_user -->
<g id="edge6" class="edge">
<title>w_basket:w&#45;&gt;ad_user:e</title>
<path fill="none" stroke="black" d="M825.94,-807.35C760.13,-785.44 881.68,-598.44 791,-598.44"/>
<polygon fill="black" stroke="black" points="832.58,-808.3 839.99,-813 836.54,-808.87 840.5,-809.44 840.5,-809.44 840.5,-809.44 836.54,-808.87 841.01,-805.88 832.58,-808.3 832.58,-808.3"/>
<ellipse fill="none" stroke="black" cx="829.41" cy="-807.85" rx="3.2" ry="3.2"/>
</g>
<!-- w_basket&#45;&gt;c_bpartner -->
<g id="edge7" class="edge">
<title>w_basket:w&#45;&gt;c_bpartner:e</title>
<path fill="none" stroke="black" d="M825.95,-853.2C683.98,-848.43 651.51,-774.44 502,-774.44"/>
<polygon fill="black" stroke="black" points="832.5,-853.31 840.44,-857.04 836.5,-853.37 840.5,-853.44 840.5,-853.44 840.5,-853.44 836.5,-853.37 840.56,-849.84 832.5,-853.31 832.5,-853.31"/>
<ellipse fill="none" stroke="black" cx="829.3" cy="-853.25" rx="3.2" ry="3.2"/>
</g>
<!-- w_basket&#45;&gt;m_pricelist -->
<g id="edge8" class="edge">
<title>w_basket:w&#45;&gt;m_pricelist:e</title>
<path fill="none" stroke="black" d="M825.75,-831.6C568.17,-837.31 437.2,-989.46 239,-817.44 198,-781.86 253.29,-576.44 199,-576.44"/>
<polygon fill="black" stroke="black" points="832.5,-831.53 840.54,-835.04 836.5,-831.48 840.5,-831.44 840.5,-831.44 840.5,-831.44 836.5,-831.48 840.46,-827.84 832.5,-831.53 832.5,-831.53"/>
<ellipse fill="none" stroke="black" cx="829.3" cy="-831.56" rx="3.2" ry="3.2"/>
</g>
<!-- w_basketline -->
<g id="node5" class="node">
<title>w_basketline</title>
<g id="a_node5"><a xlink:href="../../tables/w_basketline.html" xlink:title="w_basketline" target="_top">
<polygon fill="#ffffff" stroke="transparent" points="1095,-982.44 1095,-1128.44 1235,-1128.44 1235,-982.44 1095,-982.44"/>
<polygon fill="#f5f5f5" stroke="transparent" points="1095,-1106.44 1095,-1128.44 1235,-1128.44 1235,-1106.44 1095,-1106.44"/>
<polygon fill="none" stroke="black" points="1095,-1106.44 1095,-1128.44 1235,-1128.44 1235,-1106.44 1095,-1106.44"/>
<text text-anchor="start" x="1100" y="-1115.64" font-family="Helvetica,sans-Serif" font-weight="bold" font-size="11.00">w_basketline</text>
<text text-anchor="start" x="1200" y="-1114.64" font-family="Helvetica,sans-Serif" font-size="11.00">[table]</text>
<polygon fill="none" stroke="black" points="1095,-1084.44 1095,-1106.44 1235,-1106.44 1235,-1084.44 1095,-1084.44"/>
<image xlink:href="../../images/primaryKeys.png" width="11px" height="12px" preserveAspectRatio="xMinYMin meet" x="1100" y="-1101.44"/>
<text text-anchor="start" x="1115" y="-1092.64" font-family="Helvetica,sans-Serif" font-size="11.00">w_basketline_id</text>
<polygon fill="none" stroke="black" points="1095,-1062.44 1095,-1084.44 1235,-1084.44 1235,-1062.44 1095,-1062.44"/>
<image xlink:href="../../images/foreignKeys.png" width="11px" height="12px" preserveAspectRatio="xMinYMin meet" x="1100" y="-1079.44"/>
<text text-anchor="start" x="1115" y="-1070.64" font-family="Helvetica,sans-Serif" font-size="11.00">w_basket_id</text>
<polygon fill="none" stroke="black" points="1095,-1040.44 1095,-1062.44 1235,-1062.44 1235,-1040.44 1095,-1040.44"/>
<image xlink:href="../../images/foreignKeys.png" width="11px" height="12px" preserveAspectRatio="xMinYMin meet" x="1100" y="-1057.44"/>
<text text-anchor="start" x="1115" y="-1048.64" font-family="Helvetica,sans-Serif" font-size="11.00">m_product_id</text>
<polygon fill="#ffffff" stroke="transparent" points="1095,-1018.44 1095,-1040.44 1235,-1040.44 1235,-1018.44 1095,-1018.44"/>
<polygon fill="none" stroke="black" points="1095,-1018.44 1095,-1040.44 1235,-1040.44 1235,-1018.44 1095,-1018.44"/>
<text text-anchor="start" x="1115" y="-1026.64" font-family="Helvetica,sans-Serif" font-size="11.00">w_basketline_uu</text>
<polygon fill="none" stroke="black" points="1095,-1000.44 1095,-1018.44 1235,-1018.44 1235,-1000.44 1095,-1000.44"/>
<text text-anchor="start" x="1098" y="-1006.64" font-family="Helvetica,sans-Serif" font-size="11.00">...</text>
<polygon fill="#ffffff" stroke="transparent" points="1095,-982.44 1095,-1000.44 1235,-1000.44 1235,-982.44 1095,-982.44"/>
<polygon fill="none" stroke="black" points="1095,-982.44 1095,-1000.44 1235,-1000.44 1235,-982.44 1095,-982.44"/>
<polygon fill="#ffffff" stroke="transparent" points="1096,-983.44 1096,-999.44 1148,-999.44 1148,-983.44 1096,-983.44"/>
<text text-anchor="start" x="1098" y="-988.64" font-family="Helvetica,sans-Serif" font-size="11.00">&lt; 2</text>
<polygon fill="#ffffff" stroke="transparent" points="1148,-983.44 1148,-999.44 1191,-999.44 1191,-983.44 1148,-983.44"/>
<text text-anchor="start" x="1166" y="-988.64" font-family="Helvetica,sans-Serif" font-size="11.00"> &#160;</text>
<polygon fill="#ffffff" stroke="transparent" points="1191,-983.44 1191,-999.44 1234,-999.44 1234,-983.44 1191,-983.44"/>
<text text-anchor="start" x="1225" y="-988.64" font-family="Helvetica,sans-Serif" font-size="11.00"> &#160;</text>
<polygon fill="black" stroke="black" points="1148,-983.44 1148,-999.44 1148,-999.44 1148,-983.44 1148,-983.44"/>
<polygon fill="black" stroke="black" points="1191,-983.44 1191,-999.44 1191,-999.44 1191,-983.44 1191,-983.44"/>
</a>
</g>
</g>
<!-- w_basketline&#45;&gt;w_basket -->
<g id="edge9" class="edge">
<title>w_basketline:w&#45;&gt;w_basket:e</title>
<path fill="none" stroke="black" d="M1079.28,-1073.44C1068.29,-1073.44 1061.16,-1073.44 1045.5,-1073.44"/>
<polygon fill="black" stroke="black" points="1086,-1073.44 1094,-1077.04 1090,-1073.44 1094,-1073.44 1094,-1073.44 1094,-1073.44 1090,-1073.44 1094,-1069.84 1086,-1073.44 1086,-1073.44"/>
<ellipse fill="none" stroke="black" cx="1082.8" cy="-1073.44" rx="3.2" ry="3.2"/>
</g>
</g>
</svg>
