<?xml version="1.0" encoding="UTF-8" standalone="no"?>
<!DOCTYPE svg PUBLIC "-//W3C//DTD SVG 1.1//EN"
 "http://www.w3.org/Graphics/SVG/1.1/DTD/svg11.dtd">
<!-- Generated by graphviz version 2.43.0 (0)
 -->
<!-- Title: oneDegreeRelationshipsDiagram Pages: 1 -->
<svg width="772pt" height="962pt"
 viewBox="0.00 0.00 772.00 962.00" xmlns="http://www.w3.org/2000/svg" xmlns:xlink="http://www.w3.org/1999/xlink">
<g id="graph0" class="graph" transform="scale(1 1) rotate(0) translate(4 958)">
<title>oneDegreeRelationshipsDiagram</title>
<polygon fill="#ffffff" stroke="transparent" points="-4,4 -4,-958 768,-958 768,4 -4,4"/>
<text text-anchor="middle" x="71.5" y="-7.2" font-family="Helvetica,sans-Serif" font-size="11.00">Generated by SchemaSpy</text>
<!-- w_advertisement -->
<g id="node1" class="node">
<title>w_advertisement</title>
<g id="a_node1"><a xlink:href="../../tables/w_advertisement.html" xlink:title="w_advertisement" target="_top">
<polygon fill="#ffffff" stroke="transparent" points="585,-760 585,-950 756,-950 756,-760 585,-760"/>
<polygon fill="#f5f5f5" stroke="transparent" points="585.5,-928 585.5,-950 756.5,-950 756.5,-928 585.5,-928"/>
<polygon fill="none" stroke="black" points="585.5,-928 585.5,-950 756.5,-950 756.5,-928 585.5,-928"/>
<text text-anchor="start" x="590.5" y="-937.2" font-family="Helvetica,sans-Serif" font-weight="bold" font-size="11.00">w_advertisement</text>
<text text-anchor="start" x="721.5" y="-936.2" font-family="Helvetica,sans-Serif" font-size="11.00">[table]</text>
<polygon fill="none" stroke="black" points="585.5,-906 585.5,-928 756.5,-928 756.5,-906 585.5,-906"/>
<image xlink:href="../../images/primaryKeys.png" width="11px" height="12px" preserveAspectRatio="xMinYMin meet" x="590.5" y="-923"/>
<text text-anchor="start" x="605.5" y="-914.2" font-family="Helvetica,sans-Serif" font-size="11.00">w_advertisement_id</text>
<polygon fill="none" stroke="black" points="585.5,-884 585.5,-906 756.5,-906 756.5,-884 585.5,-884"/>
<image xlink:href="../../images/foreignKeys.png" width="11px" height="12px" preserveAspectRatio="xMinYMin meet" x="590.5" y="-901"/>
<text text-anchor="start" x="605.5" y="-892.2" font-family="Helvetica,sans-Serif" font-size="11.00">c_bpartner_id</text>
<polygon fill="none" stroke="black" points="585.5,-862 585.5,-884 756.5,-884 756.5,-862 585.5,-862"/>
<image xlink:href="../../images/foreignKeys.png" width="11px" height="12px" preserveAspectRatio="xMinYMin meet" x="590.5" y="-879"/>
<text text-anchor="start" x="605.5" y="-870.2" font-family="Helvetica,sans-Serif" font-size="11.00">ad_user_id</text>
<polygon fill="none" stroke="black" points="585.5,-840 585.5,-862 756.5,-862 756.5,-840 585.5,-840"/>
<image xlink:href="../../images/foreignKeys.png" width="11px" height="12px" preserveAspectRatio="xMinYMin meet" x="590.5" y="-857"/>
<text text-anchor="start" x="605.5" y="-848.2" font-family="Helvetica,sans-Serif" font-size="11.00">w_clickcount_id</text>
<polygon fill="none" stroke="black" points="585.5,-818 585.5,-840 756.5,-840 756.5,-818 585.5,-818"/>
<image xlink:href="../../images/foreignKeys.png" width="11px" height="12px" preserveAspectRatio="xMinYMin meet" x="590.5" y="-835"/>
<text text-anchor="start" x="605.5" y="-826.2" font-family="Helvetica,sans-Serif" font-size="11.00">w_countercount_id</text>
<polygon fill="#ffffff" stroke="transparent" points="585.5,-796 585.5,-818 756.5,-818 756.5,-796 585.5,-796"/>
<polygon fill="none" stroke="black" points="585.5,-796 585.5,-818 756.5,-818 756.5,-796 585.5,-796"/>
<text text-anchor="start" x="605.5" y="-804.2" font-family="Helvetica,sans-Serif" font-size="11.00">w_advertisement_uu</text>
<polygon fill="none" stroke="black" points="585.5,-778 585.5,-796 756.5,-796 756.5,-778 585.5,-778"/>
<text text-anchor="start" x="588.5" y="-784.2" font-family="Helvetica,sans-Serif" font-size="11.00">...</text>
<polygon fill="#ffffff" stroke="transparent" points="585.5,-760 585.5,-778 756.5,-778 756.5,-760 585.5,-760"/>
<polygon fill="none" stroke="black" points="585.5,-760 585.5,-778 756.5,-778 756.5,-760 585.5,-760"/>
<polygon fill="#ffffff" stroke="transparent" points="586.5,-761 586.5,-777 649.5,-777 649.5,-761 586.5,-761"/>
<text text-anchor="start" x="588.5" y="-766.2" font-family="Helvetica,sans-Serif" font-size="11.00">&lt; 4</text>
<polygon fill="#ffffff" stroke="transparent" points="649.5,-761 649.5,-777 702.5,-777 702.5,-761 649.5,-761"/>
<text text-anchor="start" x="672.5" y="-766.2" font-family="Helvetica,sans-Serif" font-size="11.00"> &#160;</text>
<polygon fill="#ffffff" stroke="transparent" points="702.5,-761 702.5,-777 755.5,-777 755.5,-761 702.5,-761"/>
<text text-anchor="start" x="746.5" y="-766.2" font-family="Helvetica,sans-Serif" font-size="11.00"> &#160;</text>
<polygon fill="black" stroke="black" points="649.5,-761 649.5,-777 649.5,-777 649.5,-761 649.5,-761"/>
<polygon fill="black" stroke="black" points="702.5,-761 702.5,-777 702.5,-777 702.5,-761 702.5,-761"/>
</a>
</g>
</g>
<!-- c_bpartner -->
<g id="node2" class="node">
<title>c_bpartner</title>
<g id="a_node2"><a xlink:href="../../tables/c_bpartner.html" xlink:title="c_bpartner" target="_top">
<polygon fill="#ffffff" stroke="transparent" points="8,-37 8,-777 262,-777 262,-37 8,-37"/>
<polygon fill="#f5f5f5" stroke="transparent" points="8,-755 8,-777 262,-777 262,-755 8,-755"/>
<polygon fill="none" stroke="black" points="8,-755 8,-777 262,-777 262,-755 8,-755"/>
<text text-anchor="start" x="13" y="-764.2" font-family="Helvetica,sans-Serif" font-weight="bold" font-size="11.00">c_bpartner</text>
<text text-anchor="start" x="227" y="-763.2" font-family="Helvetica,sans-Serif" font-size="11.00">[table]</text>
<polygon fill="none" stroke="black" points="8,-733 8,-755 262,-755 262,-733 8,-733"/>
<image xlink:href="../../images/primaryKeys.png" width="11px" height="12px" preserveAspectRatio="xMinYMin meet" x="13" y="-750"/>
<text text-anchor="start" x="28" y="-741.2" font-family="Helvetica,sans-Serif" font-size="11.00">c_bpartner_id</text>
<polygon fill="#ffffff" stroke="transparent" points="8,-711 8,-733 262,-733 262,-711 8,-711"/>
<polygon fill="none" stroke="black" points="8,-711 8,-733 262,-733 262,-711 8,-711"/>
<image xlink:href="../../images/foreignKeys.png" width="11px" height="12px" preserveAspectRatio="xMinYMin meet" x="13" y="-728"/>
<text text-anchor="start" x="28" y="-719.2" font-family="Helvetica,sans-Serif" font-size="11.00">ad_client_id</text>
<polygon fill="none" stroke="black" points="8,-689 8,-711 262,-711 262,-689 8,-689"/>
<image xlink:href="../../images/foreignKeys.png" width="11px" height="12px" preserveAspectRatio="xMinYMin meet" x="13" y="-706"/>
<text text-anchor="start" x="28" y="-697.2" font-family="Helvetica,sans-Serif" font-size="11.00">ad_org_id</text>
<polygon fill="#ffffff" stroke="transparent" points="8,-667 8,-689 262,-689 262,-667 8,-667"/>
<polygon fill="none" stroke="black" points="8,-667 8,-689 262,-689 262,-667 8,-667"/>
<text text-anchor="start" x="28" y="-675.2" font-family="Helvetica,sans-Serif" font-size="11.00">value</text>
<polygon fill="#ffffff" stroke="transparent" points="8,-645 8,-667 262,-667 262,-645 8,-645"/>
<polygon fill="none" stroke="black" points="8,-645 8,-667 262,-667 262,-645 8,-645"/>
<text text-anchor="start" x="28" y="-653.2" font-family="Helvetica,sans-Serif" font-size="11.00">name</text>
<polygon fill="none" stroke="black" points="8,-623 8,-645 262,-645 262,-623 8,-623"/>
<image xlink:href="../../images/foreignKeys.png" width="11px" height="12px" preserveAspectRatio="xMinYMin meet" x="13" y="-640"/>
<text text-anchor="start" x="28" y="-631.2" font-family="Helvetica,sans-Serif" font-size="11.00">c_bp_group_id</text>
<polygon fill="none" stroke="black" points="8,-601 8,-623 262,-623 262,-601 8,-601"/>
<image xlink:href="../../images/foreignKeys.png" width="11px" height="12px" preserveAspectRatio="xMinYMin meet" x="13" y="-618"/>
<text text-anchor="start" x="28" y="-609.2" font-family="Helvetica,sans-Serif" font-size="11.00">ad_language</text>
<polygon fill="none" stroke="black" points="8,-579 8,-601 262,-601 262,-579 8,-579"/>
<image xlink:href="../../images/foreignKeys.png" width="11px" height="12px" preserveAspectRatio="xMinYMin meet" x="13" y="-596"/>
<text text-anchor="start" x="28" y="-587.2" font-family="Helvetica,sans-Serif" font-size="11.00">c_invoiceschedule_id</text>
<polygon fill="none" stroke="black" points="8,-557 8,-579 262,-579 262,-557 8,-557"/>
<image xlink:href="../../images/foreignKeys.png" width="11px" height="12px" preserveAspectRatio="xMinYMin meet" x="13" y="-574"/>
<text text-anchor="start" x="28" y="-565.2" font-family="Helvetica,sans-Serif" font-size="11.00">c_paymentterm_id</text>
<polygon fill="none" stroke="black" points="8,-535 8,-557 262,-557 262,-535 8,-535"/>
<image xlink:href="../../images/foreignKeys.png" width="11px" height="12px" preserveAspectRatio="xMinYMin meet" x="13" y="-552"/>
<text text-anchor="start" x="28" y="-543.2" font-family="Helvetica,sans-Serif" font-size="11.00">m_pricelist_id</text>
<polygon fill="none" stroke="black" points="8,-513 8,-535 262,-535 262,-513 8,-513"/>
<image xlink:href="../../images/foreignKeys.png" width="11px" height="12px" preserveAspectRatio="xMinYMin meet" x="13" y="-530"/>
<text text-anchor="start" x="28" y="-521.2" font-family="Helvetica,sans-Serif" font-size="11.00">m_discountschema_id</text>
<polygon fill="none" stroke="black" points="8,-491 8,-513 262,-513 262,-491 8,-491"/>
<image xlink:href="../../images/foreignKeys.png" width="11px" height="12px" preserveAspectRatio="xMinYMin meet" x="13" y="-508"/>
<text text-anchor="start" x="28" y="-499.2" font-family="Helvetica,sans-Serif" font-size="11.00">c_dunning_id</text>
<polygon fill="none" stroke="black" points="8,-469 8,-491 262,-491 262,-469 8,-469"/>
<image xlink:href="../../images/foreignKeys.png" width="11px" height="12px" preserveAspectRatio="xMinYMin meet" x="13" y="-486"/>
<text text-anchor="start" x="28" y="-477.2" font-family="Helvetica,sans-Serif" font-size="11.00">po_pricelist_id</text>
<polygon fill="none" stroke="black" points="8,-447 8,-469 262,-469 262,-447 8,-447"/>
<image xlink:href="../../images/foreignKeys.png" width="11px" height="12px" preserveAspectRatio="xMinYMin meet" x="13" y="-464"/>
<text text-anchor="start" x="28" y="-455.2" font-family="Helvetica,sans-Serif" font-size="11.00">po_discountschema_id</text>
<polygon fill="none" stroke="black" points="8,-425 8,-447 262,-447 262,-425 8,-425"/>
<image xlink:href="../../images/foreignKeys.png" width="11px" height="12px" preserveAspectRatio="xMinYMin meet" x="13" y="-442"/>
<text text-anchor="start" x="28" y="-433.2" font-family="Helvetica,sans-Serif" font-size="11.00">po_paymentterm_id</text>
<polygon fill="none" stroke="black" points="8,-403 8,-425 262,-425 262,-403 8,-403"/>
<image xlink:href="../../images/foreignKeys.png" width="11px" height="12px" preserveAspectRatio="xMinYMin meet" x="13" y="-420"/>
<text text-anchor="start" x="28" y="-411.2" font-family="Helvetica,sans-Serif" font-size="11.00">c_greeting_id</text>
<polygon fill="none" stroke="black" points="8,-381 8,-403 262,-403 262,-381 8,-381"/>
<image xlink:href="../../images/foreignKeys.png" width="11px" height="12px" preserveAspectRatio="xMinYMin meet" x="13" y="-398"/>
<text text-anchor="start" x="28" y="-389.2" font-family="Helvetica,sans-Serif" font-size="11.00">salesrep_id</text>
<polygon fill="none" stroke="black" points="8,-359 8,-381 262,-381 262,-359 8,-359"/>
<image xlink:href="../../images/foreignKeys.png" width="11px" height="12px" preserveAspectRatio="xMinYMin meet" x="13" y="-376"/>
<text text-anchor="start" x="28" y="-367.2" font-family="Helvetica,sans-Serif" font-size="11.00">bpartner_parent_id</text>
<polygon fill="none" stroke="black" points="8,-337 8,-359 262,-359 262,-337 8,-337"/>
<image xlink:href="../../images/foreignKeys.png" width="11px" height="12px" preserveAspectRatio="xMinYMin meet" x="13" y="-354"/>
<text text-anchor="start" x="28" y="-345.2" font-family="Helvetica,sans-Serif" font-size="11.00">invoice_printformat_id</text>
<polygon fill="#ffffff" stroke="transparent" points="8,-315 8,-337 262,-337 262,-315 8,-315"/>
<polygon fill="none" stroke="black" points="8,-315 8,-337 262,-337 262,-315 8,-315"/>
<image xlink:href="../../images/foreignKeys.png" width="11px" height="12px" preserveAspectRatio="xMinYMin meet" x="13" y="-332"/>
<text text-anchor="start" x="28" y="-323.2" font-family="Helvetica,sans-Serif" font-size="11.00">ad_orgbp_id</text>
<polygon fill="none" stroke="black" points="8,-293 8,-315 262,-315 262,-293 8,-293"/>
<image xlink:href="../../images/foreignKeys.png" width="11px" height="12px" preserveAspectRatio="xMinYMin meet" x="13" y="-310"/>
<text text-anchor="start" x="28" y="-301.2" font-family="Helvetica,sans-Serif" font-size="11.00">c_taxgroup_id</text>
<polygon fill="none" stroke="black" points="8,-271 8,-293 262,-293 262,-271 8,-271"/>
<image xlink:href="../../images/foreignKeys.png" width="11px" height="12px" preserveAspectRatio="xMinYMin meet" x="13" y="-288"/>
<text text-anchor="start" x="28" y="-279.2" font-family="Helvetica,sans-Serif" font-size="11.00">logo_id</text>
<polygon fill="#ffffff" stroke="transparent" points="8,-249 8,-271 262,-271 262,-249 8,-249"/>
<polygon fill="none" stroke="black" points="8,-249 8,-271 262,-271 262,-249 8,-249"/>
<text text-anchor="start" x="28" y="-257.2" font-family="Helvetica,sans-Serif" font-size="11.00">c_bpartner_uu</text>
<polygon fill="none" stroke="black" points="8,-227 8,-249 262,-249 262,-227 8,-227"/>
<image xlink:href="../../images/foreignKeys.png" width="11px" height="12px" preserveAspectRatio="xMinYMin meet" x="13" y="-244"/>
<text text-anchor="start" x="28" y="-235.2" font-family="Helvetica,sans-Serif" font-size="11.00">default1099box_id</text>
<polygon fill="none" stroke="black" points="8,-205 8,-227 262,-227 262,-205 8,-205"/>
<image xlink:href="../../images/foreignKeys.png" width="11px" height="12px" preserveAspectRatio="xMinYMin meet" x="13" y="-222"/>
<text text-anchor="start" x="28" y="-213.2" font-family="Helvetica,sans-Serif" font-size="11.00">cof_c_custody_id</text>
<polygon fill="none" stroke="black" points="8,-183 8,-205 262,-205 262,-183 8,-183"/>
<image xlink:href="../../images/foreignKeys.png" width="11px" height="12px" preserveAspectRatio="xMinYMin meet" x="13" y="-200"/>
<text text-anchor="start" x="28" y="-191.2" font-family="Helvetica,sans-Serif" font-size="11.00">cof_doctypepurchase_id</text>
<polygon fill="none" stroke="black" points="8,-161 8,-183 262,-183 262,-161 8,-161"/>
<image xlink:href="../../images/foreignKeys.png" width="11px" height="12px" preserveAspectRatio="xMinYMin meet" x="13" y="-178"/>
<text text-anchor="start" x="28" y="-169.2" font-family="Helvetica,sans-Serif" font-size="11.00">cof_doctypesale_id</text>
<polygon fill="none" stroke="black" points="8,-139 8,-161 262,-161 262,-139 8,-139"/>
<image xlink:href="../../images/foreignKeys.png" width="11px" height="12px" preserveAspectRatio="xMinYMin meet" x="13" y="-156"/>
<text text-anchor="start" x="28" y="-147.2" font-family="Helvetica,sans-Serif" font-size="11.00">cof_grupofornecedor_id</text>
<polygon fill="none" stroke="black" points="8,-117 8,-139 262,-139 262,-117 8,-117"/>
<image xlink:href="../../images/foreignKeys.png" width="11px" height="12px" preserveAspectRatio="xMinYMin meet" x="13" y="-134"/>
<text text-anchor="start" x="28" y="-125.2" font-family="Helvetica,sans-Serif" font-size="11.00">cof_vendedorinterno_id</text>
<polygon fill="none" stroke="black" points="8,-95 8,-117 262,-117 262,-95 8,-95"/>
<image xlink:href="../../images/foreignKeys.png" width="11px" height="12px" preserveAspectRatio="xMinYMin meet" x="13" y="-112"/>
<text text-anchor="start" x="28" y="-103.2" font-family="Helvetica,sans-Serif" font-size="11.00">cof_tipoparceiro_id</text>
<polygon fill="none" stroke="black" points="8,-73 8,-95 262,-95 262,-73 8,-73"/>
<image xlink:href="../../images/foreignKeys.png" width="11px" height="12px" preserveAspectRatio="xMinYMin meet" x="13" y="-90"/>
<text text-anchor="start" x="28" y="-81.2" font-family="Helvetica,sans-Serif" font-size="11.00">cof_classeparceiro_id</text>
<polygon fill="none" stroke="black" points="8,-55 8,-73 262,-73 262,-55 8,-55"/>
<text text-anchor="start" x="11" y="-61.2" font-family="Helvetica,sans-Serif" font-size="11.00">...</text>
<polygon fill="#ffffff" stroke="transparent" points="8,-37 8,-55 262,-55 262,-37 8,-37"/>
<polygon fill="none" stroke="black" points="8,-37 8,-55 262,-55 262,-37 8,-37"/>
<polygon fill="#ffffff" stroke="transparent" points="9,-38 9,-54 88,-54 88,-38 9,-38"/>
<text text-anchor="start" x="11" y="-43.2" font-family="Helvetica,sans-Serif" font-size="11.00">&lt; 27</text>
<polygon fill="#ffffff" stroke="transparent" points="88,-38 88,-54 177,-54 177,-38 88,-38"/>
<text text-anchor="start" x="116" y="-43.2" font-family="Helvetica,sans-Serif" font-size="11.00">4 rows</text>
<polygon fill="#ffffff" stroke="transparent" points="177,-38 177,-54 261,-54 261,-38 177,-38"/>
<text text-anchor="start" x="231" y="-43.2" font-family="Helvetica,sans-Serif" font-size="11.00">187 &gt;</text>
<polygon fill="black" stroke="black" points="88,-38 88,-54 88,-54 88,-38 88,-38"/>
<polygon fill="black" stroke="black" points="177,-38 177,-54 177,-54 177,-38 177,-38"/>
</a>
</g>
</g>
<!-- w_advertisement&#45;&gt;c_bpartner -->
<g id="edge1" class="edge">
<title>w_advertisement:w&#45;&gt;c_bpartner:e</title>
<path fill="none" stroke="black" d="M569.77,-895.3C454.56,-899.94 397.43,-956.42 303,-882 252.84,-842.47 326.86,-744 263,-744"/>
<polygon fill="black" stroke="black" points="576.5,-895.16 584.57,-898.6 580.5,-895.08 584.5,-895 584.5,-895 584.5,-895 580.5,-895.08 584.43,-891.4 576.5,-895.16 576.5,-895.16"/>
<ellipse fill="none" stroke="black" cx="573.3" cy="-895.23" rx="3.2" ry="3.2"/>
</g>
<!-- w_clickcount -->
<g id="node3" class="node">
<title>w_clickcount</title>
<g id="a_node3"><a xlink:href="../../tables/w_clickcount.html" xlink:title="w_clickcount" target="_top">
<polygon fill="#ffffff" stroke="transparent" points="311,-541 311,-871 536,-871 536,-541 311,-541"/>
<polygon fill="#f5f5f5" stroke="transparent" points="313.5,-847 313.5,-869 534.5,-869 534.5,-847 313.5,-847"/>
<polygon fill="none" stroke="black" points="313.5,-847 313.5,-869 534.5,-869 534.5,-847 313.5,-847"/>
<text text-anchor="start" x="318.5" y="-856.2" font-family="Helvetica,sans-Serif" font-weight="bold" font-size="11.00">w_clickcount</text>
<text text-anchor="start" x="499.5" y="-855.2" font-family="Helvetica,sans-Serif" font-size="11.00">[table]</text>
<polygon fill="none" stroke="black" points="313.5,-825 313.5,-847 451.5,-847 451.5,-825 313.5,-825"/>
<image xlink:href="../../images/primaryKeys.png" width="11px" height="12px" preserveAspectRatio="xMinYMin meet" x="318.5" y="-842"/>
<text text-anchor="start" x="333.5" y="-833.2" font-family="Helvetica,sans-Serif" font-size="11.00">w_clickcount_id</text>
<polygon fill="none" stroke="black" points="451.5,-825 451.5,-847 534.5,-847 534.5,-825 451.5,-825"/>
<text text-anchor="start" x="454.5" y="-833.2" font-family="Helvetica,sans-Serif" font-size="11.00">numeric[10]</text>
<polygon fill="#ffffff" stroke="transparent" points="313.5,-803 313.5,-825 451.5,-825 451.5,-803 313.5,-803"/>
<polygon fill="none" stroke="black" points="313.5,-803 313.5,-825 451.5,-825 451.5,-803 313.5,-803"/>
<text text-anchor="start" x="333.5" y="-811.2" font-family="Helvetica,sans-Serif" font-size="11.00">ad_client_id</text>
<polygon fill="none" stroke="black" points="451.5,-803 451.5,-825 534.5,-825 534.5,-803 451.5,-803"/>
<text text-anchor="start" x="454.5" y="-811.2" font-family="Helvetica,sans-Serif" font-size="11.00">numeric[10]</text>
<polygon fill="none" stroke="black" points="313.5,-781 313.5,-803 451.5,-803 451.5,-781 313.5,-781"/>
<text text-anchor="start" x="333.5" y="-789.2" font-family="Helvetica,sans-Serif" font-size="11.00">ad_org_id</text>
<polygon fill="none" stroke="black" points="451.5,-781 451.5,-803 534.5,-803 534.5,-781 451.5,-781"/>
<text text-anchor="start" x="454.5" y="-789.2" font-family="Helvetica,sans-Serif" font-size="11.00">numeric[10]</text>
<polygon fill="none" stroke="black" points="313.5,-759 313.5,-781 451.5,-781 451.5,-759 313.5,-759"/>
<text text-anchor="start" x="333.5" y="-767.2" font-family="Helvetica,sans-Serif" font-size="11.00">isactive</text>
<polygon fill="none" stroke="black" points="451.5,-759 451.5,-781 534.5,-781 534.5,-759 451.5,-759"/>
<text text-anchor="start" x="454.5" y="-767.2" font-family="Helvetica,sans-Serif" font-size="11.00">bpchar[1]</text>
<polygon fill="none" stroke="black" points="313.5,-737 313.5,-759 451.5,-759 451.5,-737 313.5,-737"/>
<text text-anchor="start" x="333.5" y="-745.2" font-family="Helvetica,sans-Serif" font-size="11.00">created</text>
<polygon fill="none" stroke="black" points="451.5,-737 451.5,-759 534.5,-759 534.5,-737 451.5,-737"/>
<text text-anchor="start" x="454.5" y="-745.2" font-family="Helvetica,sans-Serif" font-size="11.00">timestamp[29,6]</text>
<polygon fill="none" stroke="black" points="313.5,-715 313.5,-737 451.5,-737 451.5,-715 313.5,-715"/>
<text text-anchor="start" x="333.5" y="-723.2" font-family="Helvetica,sans-Serif" font-size="11.00">createdby</text>
<polygon fill="none" stroke="black" points="451.5,-715 451.5,-737 534.5,-737 534.5,-715 451.5,-715"/>
<text text-anchor="start" x="454.5" y="-723.2" font-family="Helvetica,sans-Serif" font-size="11.00">numeric[10]</text>
<polygon fill="none" stroke="black" points="313.5,-693 313.5,-715 451.5,-715 451.5,-693 313.5,-693"/>
<text text-anchor="start" x="333.5" y="-701.2" font-family="Helvetica,sans-Serif" font-size="11.00">updated</text>
<polygon fill="none" stroke="black" points="451.5,-693 451.5,-715 534.5,-715 534.5,-693 451.5,-693"/>
<text text-anchor="start" x="454.5" y="-701.2" font-family="Helvetica,sans-Serif" font-size="11.00">timestamp[29,6]</text>
<polygon fill="none" stroke="black" points="313.5,-671 313.5,-693 451.5,-693 451.5,-671 313.5,-671"/>
<text text-anchor="start" x="333.5" y="-679.2" font-family="Helvetica,sans-Serif" font-size="11.00">updatedby</text>
<polygon fill="none" stroke="black" points="451.5,-671 451.5,-693 534.5,-693 534.5,-671 451.5,-671"/>
<text text-anchor="start" x="454.5" y="-679.2" font-family="Helvetica,sans-Serif" font-size="11.00">numeric[10]</text>
<polygon fill="none" stroke="black" points="313.5,-649 313.5,-671 451.5,-671 451.5,-649 313.5,-649"/>
<text text-anchor="start" x="333.5" y="-657.2" font-family="Helvetica,sans-Serif" font-size="11.00">name</text>
<polygon fill="none" stroke="black" points="451.5,-649 451.5,-671 534.5,-671 534.5,-649 451.5,-649"/>
<text text-anchor="start" x="454.5" y="-657.2" font-family="Helvetica,sans-Serif" font-size="11.00">varchar[60]</text>
<polygon fill="none" stroke="black" points="313.5,-627 313.5,-649 451.5,-649 451.5,-627 313.5,-627"/>
<text text-anchor="start" x="333.5" y="-635.2" font-family="Helvetica,sans-Serif" font-size="11.00">description</text>
<polygon fill="none" stroke="black" points="451.5,-627 451.5,-649 534.5,-649 534.5,-627 451.5,-627"/>
<text text-anchor="start" x="454.5" y="-635.2" font-family="Helvetica,sans-Serif" font-size="11.00">varchar[255]</text>
<polygon fill="#ffffff" stroke="transparent" points="313.5,-605 313.5,-627 451.5,-627 451.5,-605 313.5,-605"/>
<polygon fill="none" stroke="black" points="313.5,-605 313.5,-627 451.5,-627 451.5,-605 313.5,-605"/>
<text text-anchor="start" x="333.5" y="-613.2" font-family="Helvetica,sans-Serif" font-size="11.00">targeturl</text>
<polygon fill="none" stroke="black" points="451.5,-605 451.5,-627 534.5,-627 534.5,-605 451.5,-605"/>
<text text-anchor="start" x="454.5" y="-613.2" font-family="Helvetica,sans-Serif" font-size="11.00">varchar[120]</text>
<polygon fill="none" stroke="black" points="313.5,-583 313.5,-605 451.5,-605 451.5,-583 313.5,-583"/>
<image xlink:href="../../images/foreignKeys.png" width="11px" height="12px" preserveAspectRatio="xMinYMin meet" x="318.5" y="-600"/>
<text text-anchor="start" x="333.5" y="-591.2" font-family="Helvetica,sans-Serif" font-size="11.00">c_bpartner_id</text>
<polygon fill="none" stroke="black" points="451.5,-583 451.5,-605 534.5,-605 534.5,-583 451.5,-583"/>
<text text-anchor="start" x="454.5" y="-591.2" font-family="Helvetica,sans-Serif" font-size="11.00">numeric[10]</text>
<polygon fill="#ffffff" stroke="transparent" points="313.5,-561 313.5,-583 451.5,-583 451.5,-561 313.5,-561"/>
<polygon fill="none" stroke="black" points="313.5,-561 313.5,-583 451.5,-583 451.5,-561 313.5,-561"/>
<text text-anchor="start" x="333.5" y="-569.2" font-family="Helvetica,sans-Serif" font-size="11.00">w_clickcount_uu</text>
<polygon fill="none" stroke="black" points="451.5,-561 451.5,-583 534.5,-583 534.5,-561 451.5,-561"/>
<text text-anchor="start" x="454.5" y="-569.2" font-family="Helvetica,sans-Serif" font-size="11.00">varchar[36]</text>
<polygon fill="#ffffff" stroke="transparent" points="313.5,-543 313.5,-561 534.5,-561 534.5,-543 313.5,-543"/>
<polygon fill="none" stroke="black" points="313.5,-543 313.5,-561 534.5,-561 534.5,-543 313.5,-543"/>
<polygon fill="#ffffff" stroke="transparent" points="314.5,-544 314.5,-560 390.5,-560 390.5,-544 314.5,-544"/>
<text text-anchor="start" x="316.5" y="-549.2" font-family="Helvetica,sans-Serif" font-size="11.00">&lt; 1</text>
<polygon fill="#ffffff" stroke="transparent" points="390.5,-544 390.5,-560 457.5,-560 457.5,-544 390.5,-544"/>
<text text-anchor="start" x="420.5" y="-549.2" font-family="Helvetica,sans-Serif" font-size="11.00"> &#160;</text>
<polygon fill="#ffffff" stroke="transparent" points="457.5,-544 457.5,-560 533.5,-560 533.5,-544 457.5,-544"/>
<text text-anchor="start" x="515.5" y="-549.2" font-family="Helvetica,sans-Serif" font-size="11.00">2 &gt;</text>
<polygon fill="black" stroke="black" points="390.5,-544 390.5,-560 390.5,-560 390.5,-544 390.5,-544"/>
<polygon fill="black" stroke="black" points="457.5,-544 457.5,-560 457.5,-560 457.5,-544 457.5,-544"/>
<polygon fill="none" stroke="black" stroke-width="2" points="312,-542 312,-870 535,-870 535,-542 312,-542"/>
</a>
</g>
</g>
<!-- w_advertisement&#45;&gt;w_clickcount -->
<g id="edge2" class="edge">
<title>w_advertisement:w&#45;&gt;w_clickcount:e</title>
<path fill="none" stroke="black" d="M570.08,-848.52C558.66,-844.26 552.4,-836 535.5,-836"/>
<polygon fill="black" stroke="black" points="576.62,-849.65 583.89,-854.55 580.56,-850.32 584.5,-851 584.5,-851 584.5,-851 580.56,-850.32 585.11,-847.45 576.62,-849.65 576.62,-849.65"/>
<ellipse fill="none" stroke="black" cx="573.46" cy="-849.1" rx="3.2" ry="3.2"/>
</g>
<!-- w_clickcount&#45;&gt;c_bpartner -->
<g id="edge4" class="edge">
<title>w_clickcount:w&#45;&gt;c_bpartner:e</title>
<path fill="none" stroke="black" d="M298.3,-596.86C256.13,-617.6 327.44,-744 263,-744"/>
<polygon fill="black" stroke="black" points="304.66,-595.58 313.21,-597.53 308.58,-594.79 312.5,-594 312.5,-594 312.5,-594 308.58,-594.79 311.79,-590.47 304.66,-595.58 304.66,-595.58"/>
<ellipse fill="none" stroke="black" cx="301.52" cy="-596.21" rx="3.2" ry="3.2"/>
</g>
<!-- w_click -->
<g id="node4" class="node">
<title>w_click</title>
<g id="a_node4"><a xlink:href="../../tables/w_click.html" xlink:title="w_click" target="_top">
<polygon fill="#ffffff" stroke="transparent" points="602,-593 602,-739 739,-739 739,-593 602,-593"/>
<polygon fill="#f5f5f5" stroke="transparent" points="602.5,-717 602.5,-739 739.5,-739 739.5,-717 602.5,-717"/>
<polygon fill="none" stroke="black" points="602.5,-717 602.5,-739 739.5,-739 739.5,-717 602.5,-717"/>
<text text-anchor="start" x="607.5" y="-726.2" font-family="Helvetica,sans-Serif" font-weight="bold" font-size="11.00">w_click</text>
<text text-anchor="start" x="704.5" y="-725.2" font-family="Helvetica,sans-Serif" font-size="11.00">[table]</text>
<polygon fill="none" stroke="black" points="602.5,-695 602.5,-717 739.5,-717 739.5,-695 602.5,-695"/>
<image xlink:href="../../images/primaryKeys.png" width="11px" height="12px" preserveAspectRatio="xMinYMin meet" x="607.5" y="-712"/>
<text text-anchor="start" x="622.5" y="-703.2" font-family="Helvetica,sans-Serif" font-size="11.00">w_click_id</text>
<polygon fill="none" stroke="black" points="602.5,-673 602.5,-695 739.5,-695 739.5,-673 602.5,-673"/>
<image xlink:href="../../images/foreignKeys.png" width="11px" height="12px" preserveAspectRatio="xMinYMin meet" x="607.5" y="-690"/>
<text text-anchor="start" x="622.5" y="-681.2" font-family="Helvetica,sans-Serif" font-size="11.00">w_clickcount_id</text>
<polygon fill="none" stroke="black" points="602.5,-651 602.5,-673 739.5,-673 739.5,-651 602.5,-651"/>
<image xlink:href="../../images/foreignKeys.png" width="11px" height="12px" preserveAspectRatio="xMinYMin meet" x="607.5" y="-668"/>
<text text-anchor="start" x="622.5" y="-659.2" font-family="Helvetica,sans-Serif" font-size="11.00">ad_user_id</text>
<polygon fill="#ffffff" stroke="transparent" points="602.5,-629 602.5,-651 739.5,-651 739.5,-629 602.5,-629"/>
<polygon fill="none" stroke="black" points="602.5,-629 602.5,-651 739.5,-651 739.5,-629 602.5,-629"/>
<text text-anchor="start" x="622.5" y="-637.2" font-family="Helvetica,sans-Serif" font-size="11.00">w_click_uu</text>
<polygon fill="none" stroke="black" points="602.5,-611 602.5,-629 739.5,-629 739.5,-611 602.5,-611"/>
<text text-anchor="start" x="605.5" y="-617.2" font-family="Helvetica,sans-Serif" font-size="11.00">...</text>
<polygon fill="#ffffff" stroke="transparent" points="602.5,-593 602.5,-611 739.5,-611 739.5,-593 602.5,-593"/>
<polygon fill="none" stroke="black" points="602.5,-593 602.5,-611 739.5,-611 739.5,-593 602.5,-593"/>
<polygon fill="#ffffff" stroke="transparent" points="603.5,-594 603.5,-610 654.5,-610 654.5,-594 603.5,-594"/>
<text text-anchor="start" x="605.5" y="-599.2" font-family="Helvetica,sans-Serif" font-size="11.00">&lt; 2</text>
<polygon fill="#ffffff" stroke="transparent" points="654.5,-594 654.5,-610 696.5,-610 696.5,-594 654.5,-594"/>
<text text-anchor="start" x="672" y="-599.2" font-family="Helvetica,sans-Serif" font-size="11.00"> &#160;</text>
<polygon fill="#ffffff" stroke="transparent" points="696.5,-594 696.5,-610 738.5,-610 738.5,-594 696.5,-594"/>
<text text-anchor="start" x="729.5" y="-599.2" font-family="Helvetica,sans-Serif" font-size="11.00"> &#160;</text>
<polygon fill="black" stroke="black" points="654.5,-594 654.5,-610 654.5,-610 654.5,-594 654.5,-594"/>
<polygon fill="black" stroke="black" points="696.5,-594 696.5,-610 696.5,-610 696.5,-594 696.5,-594"/>
</a>
</g>
</g>
<!-- w_click&#45;&gt;w_clickcount -->
<g id="edge3" class="edge">
<title>w_click:w&#45;&gt;w_clickcount:e</title>
<path fill="none" stroke="black" d="M587.23,-686.51C539.34,-706.27 603.54,-836 535.5,-836"/>
<polygon fill="black" stroke="black" points="593.62,-685.39 602.12,-687.55 597.56,-684.69 601.5,-684 601.5,-684 601.5,-684 597.56,-684.69 600.88,-680.45 593.62,-685.39 593.62,-685.39"/>
<ellipse fill="none" stroke="black" cx="590.47" cy="-685.94" rx="3.2" ry="3.2"/>
</g>
</g>
</svg>
