<?xml version="1.0" encoding="UTF-8" standalone="no"?>
<!DOCTYPE svg PUBLIC "-//W3C//DTD SVG 1.1//EN"
 "http://www.w3.org/Graphics/SVG/1.1/DTD/svg11.dtd">
<!-- Generated by graphviz version 2.43.0 (0)
 -->
<!-- Title: oneDegreeRelationshipsDiagram Pages: 1 -->
<svg width="1159pt" height="1112pt"
 viewBox="0.00 0.00 1159.00 1111.85" xmlns="http://www.w3.org/2000/svg" xmlns:xlink="http://www.w3.org/1999/xlink">
<g id="graph0" class="graph" transform="scale(1 1) rotate(0) translate(4 1107.85)">
<title>oneDegreeRelationshipsDiagram</title>
<polygon fill="#ffffff" stroke="transparent" points="-4,4 -4,-1107.85 1155,-1107.85 1155,4 -4,4"/>
<text text-anchor="middle" x="71.5" y="-7.2" font-family="Helvetica,sans-Serif" font-size="11.00">Generated by SchemaSpy</text>
<!-- a_asset_change -->
<g id="node1" class="node">
<title>a_asset_change</title>
<g id="a_node1"><a xlink:href="../../tables/a_asset_change.html" xlink:title="a_asset_change" target="_top">
<polygon fill="#ffffff" stroke="transparent" points="892,-535.85 892,-1099.85 1143,-1099.85 1143,-535.85 892,-535.85"/>
<polygon fill="#f5f5f5" stroke="transparent" points="892.5,-1077.85 892.5,-1099.85 1143.5,-1099.85 1143.5,-1077.85 892.5,-1077.85"/>
<polygon fill="none" stroke="black" points="892.5,-1077.85 892.5,-1099.85 1143.5,-1099.85 1143.5,-1077.85 892.5,-1077.85"/>
<text text-anchor="start" x="897.5" y="-1087.05" font-family="Helvetica,sans-Serif" font-weight="bold" font-size="11.00">a_asset_change</text>
<text text-anchor="start" x="1108.5" y="-1086.05" font-family="Helvetica,sans-Serif" font-size="11.00">[table]</text>
<polygon fill="none" stroke="black" points="892.5,-1055.85 892.5,-1077.85 1143.5,-1077.85 1143.5,-1055.85 892.5,-1055.85"/>
<image xlink:href="../../images/primaryKeys.png" width="11px" height="12px" preserveAspectRatio="xMinYMin meet" x="897.5" y="-1072.85"/>
<text text-anchor="start" x="912.5" y="-1064.05" font-family="Helvetica,sans-Serif" font-size="11.00">a_asset_change_id</text>
<polygon fill="none" stroke="black" points="892.5,-1033.85 892.5,-1055.85 1143.5,-1055.85 1143.5,-1033.85 892.5,-1033.85"/>
<image xlink:href="../../images/foreignKeys.png" width="11px" height="12px" preserveAspectRatio="xMinYMin meet" x="897.5" y="-1050.85"/>
<text text-anchor="start" x="912.5" y="-1042.05" font-family="Helvetica,sans-Serif" font-size="11.00">a_asset_id</text>
<polygon fill="none" stroke="black" points="892.5,-1011.85 892.5,-1033.85 1143.5,-1033.85 1143.5,-1011.85 892.5,-1011.85"/>
<image xlink:href="../../images/foreignKeys.png" width="11px" height="12px" preserveAspectRatio="xMinYMin meet" x="897.5" y="-1028.85"/>
<text text-anchor="start" x="912.5" y="-1020.05" font-family="Helvetica,sans-Serif" font-size="11.00">a_asset_retirement_id</text>
<polygon fill="none" stroke="black" points="892.5,-989.85 892.5,-1011.85 1143.5,-1011.85 1143.5,-989.85 892.5,-989.85"/>
<image xlink:href="../../images/foreignKeys.png" width="11px" height="12px" preserveAspectRatio="xMinYMin meet" x="897.5" y="-1006.85"/>
<text text-anchor="start" x="912.5" y="-998.05" font-family="Helvetica,sans-Serif" font-size="11.00">a_asset_addition_id</text>
<polygon fill="none" stroke="black" points="892.5,-967.85 892.5,-989.85 1143.5,-989.85 1143.5,-967.85 892.5,-967.85"/>
<image xlink:href="../../images/foreignKeys.png" width="11px" height="12px" preserveAspectRatio="xMinYMin meet" x="897.5" y="-984.846"/>
<text text-anchor="start" x="912.5" y="-976.05" font-family="Helvetica,sans-Serif" font-size="11.00">a_accumdepreciation_acct</text>
<polygon fill="none" stroke="black" points="892.5,-945.85 892.5,-967.85 1143.5,-967.85 1143.5,-945.85 892.5,-945.85"/>
<image xlink:href="../../images/foreignKeys.png" width="11px" height="12px" preserveAspectRatio="xMinYMin meet" x="897.5" y="-962.846"/>
<text text-anchor="start" x="912.5" y="-954.05" font-family="Helvetica,sans-Serif" font-size="11.00">a_parent_asset_id</text>
<polygon fill="none" stroke="black" points="892.5,-923.85 892.5,-945.85 1143.5,-945.85 1143.5,-923.85 892.5,-923.85"/>
<image xlink:href="../../images/foreignKeys.png" width="11px" height="12px" preserveAspectRatio="xMinYMin meet" x="897.5" y="-940.846"/>
<text text-anchor="start" x="912.5" y="-932.05" font-family="Helvetica,sans-Serif" font-size="11.00">a_depreciation_table_header_id</text>
<polygon fill="none" stroke="black" points="892.5,-901.85 892.5,-923.85 1143.5,-923.85 1143.5,-901.85 892.5,-901.85"/>
<image xlink:href="../../images/foreignKeys.png" width="11px" height="12px" preserveAspectRatio="xMinYMin meet" x="897.5" y="-918.846"/>
<text text-anchor="start" x="912.5" y="-910.05" font-family="Helvetica,sans-Serif" font-size="11.00">c_acctschema_id</text>
<polygon fill="none" stroke="black" points="892.5,-879.85 892.5,-901.85 1143.5,-901.85 1143.5,-879.85 892.5,-879.85"/>
<image xlink:href="../../images/foreignKeys.png" width="11px" height="12px" preserveAspectRatio="xMinYMin meet" x="897.5" y="-896.846"/>
<text text-anchor="start" x="912.5" y="-888.05" font-family="Helvetica,sans-Serif" font-size="11.00">ad_user_id</text>
<polygon fill="none" stroke="black" points="892.5,-857.85 892.5,-879.85 1143.5,-879.85 1143.5,-857.85 892.5,-857.85"/>
<image xlink:href="../../images/foreignKeys.png" width="11px" height="12px" preserveAspectRatio="xMinYMin meet" x="897.5" y="-874.846"/>
<text text-anchor="start" x="912.5" y="-866.05" font-family="Helvetica,sans-Serif" font-size="11.00">c_validcombination_id</text>
<polygon fill="none" stroke="black" points="892.5,-835.85 892.5,-857.85 1143.5,-857.85 1143.5,-835.85 892.5,-835.85"/>
<image xlink:href="../../images/foreignKeys.png" width="11px" height="12px" preserveAspectRatio="xMinYMin meet" x="897.5" y="-852.846"/>
<text text-anchor="start" x="912.5" y="-844.05" font-family="Helvetica,sans-Serif" font-size="11.00">c_location_id</text>
<polygon fill="none" stroke="black" points="892.5,-813.85 892.5,-835.85 1143.5,-835.85 1143.5,-813.85 892.5,-813.85"/>
<image xlink:href="../../images/foreignKeys.png" width="11px" height="12px" preserveAspectRatio="xMinYMin meet" x="897.5" y="-830.846"/>
<text text-anchor="start" x="912.5" y="-822.05" font-family="Helvetica,sans-Serif" font-size="11.00">c_bpartner_location_id</text>
<polygon fill="none" stroke="black" points="892.5,-791.85 892.5,-813.85 1143.5,-813.85 1143.5,-791.85 892.5,-791.85"/>
<image xlink:href="../../images/foreignKeys.png" width="11px" height="12px" preserveAspectRatio="xMinYMin meet" x="897.5" y="-808.846"/>
<text text-anchor="start" x="912.5" y="-800.05" font-family="Helvetica,sans-Serif" font-size="11.00">c_bpartner_id</text>
<polygon fill="none" stroke="black" points="892.5,-769.85 892.5,-791.85 1143.5,-791.85 1143.5,-769.85 892.5,-769.85"/>
<image xlink:href="../../images/foreignKeys.png" width="11px" height="12px" preserveAspectRatio="xMinYMin meet" x="897.5" y="-786.846"/>
<text text-anchor="start" x="912.5" y="-778.05" font-family="Helvetica,sans-Serif" font-size="11.00">a_depreciation_acct</text>
<polygon fill="none" stroke="black" points="892.5,-747.85 892.5,-769.85 1143.5,-769.85 1143.5,-747.85 892.5,-747.85"/>
<image xlink:href="../../images/foreignKeys.png" width="11px" height="12px" preserveAspectRatio="xMinYMin meet" x="897.5" y="-764.846"/>
<text text-anchor="start" x="912.5" y="-756.05" font-family="Helvetica,sans-Serif" font-size="11.00">a_asset_acct</text>
<polygon fill="#ffffff" stroke="transparent" points="892.5,-725.85 892.5,-747.85 1143.5,-747.85 1143.5,-725.85 892.5,-725.85"/>
<polygon fill="none" stroke="black" points="892.5,-725.85 892.5,-747.85 1143.5,-747.85 1143.5,-725.85 892.5,-725.85"/>
<text text-anchor="start" x="912.5" y="-734.05" font-family="Helvetica,sans-Serif" font-size="11.00">a_asset_change_uu</text>
<polygon fill="none" stroke="black" points="892.5,-703.85 892.5,-725.85 1143.5,-725.85 1143.5,-703.85 892.5,-703.85"/>
<image xlink:href="../../images/foreignKeys.png" width="11px" height="12px" preserveAspectRatio="xMinYMin meet" x="897.5" y="-720.846"/>
<text text-anchor="start" x="912.5" y="-712.05" font-family="Helvetica,sans-Serif" font-size="11.00">a_disposal_revenue_acct</text>
<polygon fill="none" stroke="black" points="892.5,-681.85 892.5,-703.85 1143.5,-703.85 1143.5,-681.85 892.5,-681.85"/>
<image xlink:href="../../images/foreignKeys.png" width="11px" height="12px" preserveAspectRatio="xMinYMin meet" x="897.5" y="-698.846"/>
<text text-anchor="start" x="912.5" y="-690.05" font-family="Helvetica,sans-Serif" font-size="11.00">a_disposal_loss_acct</text>
<polygon fill="#ffffff" stroke="transparent" points="892.5,-659.85 892.5,-681.85 1143.5,-681.85 1143.5,-659.85 892.5,-659.85"/>
<polygon fill="none" stroke="black" points="892.5,-659.85 892.5,-681.85 1143.5,-681.85 1143.5,-659.85 892.5,-659.85"/>
<image xlink:href="../../images/foreignKeys.png" width="11px" height="12px" preserveAspectRatio="xMinYMin meet" x="897.5" y="-676.846"/>
<text text-anchor="start" x="912.5" y="-668.05" font-family="Helvetica,sans-Serif" font-size="11.00">c_invoice_id</text>
<polygon fill="none" stroke="black" points="892.5,-637.85 892.5,-659.85 1143.5,-659.85 1143.5,-637.85 892.5,-637.85"/>
<image xlink:href="../../images/foreignKeys.png" width="11px" height="12px" preserveAspectRatio="xMinYMin meet" x="897.5" y="-654.846"/>
<text text-anchor="start" x="912.5" y="-646.05" font-family="Helvetica,sans-Serif" font-size="11.00">c_invoice_c_bpartner_id</text>
<polygon fill="none" stroke="black" points="892.5,-615.85 892.5,-637.85 1143.5,-637.85 1143.5,-615.85 892.5,-615.85"/>
<image xlink:href="../../images/foreignKeys.png" width="11px" height="12px" preserveAspectRatio="xMinYMin meet" x="897.5" y="-632.846"/>
<text text-anchor="start" x="912.5" y="-624.05" font-family="Helvetica,sans-Serif" font-size="11.00">c_invoice_ad_user_id</text>
<polygon fill="none" stroke="black" points="892.5,-593.85 892.5,-615.85 1143.5,-615.85 1143.5,-593.85 892.5,-593.85"/>
<image xlink:href="../../images/foreignKeys.png" width="11px" height="12px" preserveAspectRatio="xMinYMin meet" x="897.5" y="-610.846"/>
<text text-anchor="start" x="912.5" y="-602.05" font-family="Helvetica,sans-Serif" font-size="11.00">c_invoice_c_doctypetarget_id</text>
<polygon fill="none" stroke="black" points="892.5,-571.85 892.5,-593.85 1143.5,-593.85 1143.5,-571.85 892.5,-571.85"/>
<image xlink:href="../../images/foreignKeys.png" width="11px" height="12px" preserveAspectRatio="xMinYMin meet" x="897.5" y="-588.846"/>
<text text-anchor="start" x="912.5" y="-580.05" font-family="Helvetica,sans-Serif" font-size="11.00">c_invoice_c_bpartnerloc_id</text>
<polygon fill="none" stroke="black" points="892.5,-553.85 892.5,-571.85 1143.5,-571.85 1143.5,-553.85 892.5,-553.85"/>
<text text-anchor="start" x="895.5" y="-560.05" font-family="Helvetica,sans-Serif" font-size="11.00">...</text>
<polygon fill="#ffffff" stroke="transparent" points="892.5,-535.85 892.5,-553.85 1143.5,-553.85 1143.5,-535.85 892.5,-535.85"/>
<polygon fill="none" stroke="black" points="892.5,-535.85 892.5,-553.85 1143.5,-553.85 1143.5,-535.85 892.5,-535.85"/>
<polygon fill="#ffffff" stroke="transparent" points="893.5,-536.85 893.5,-552.85 983.5,-552.85 983.5,-536.85 893.5,-536.85"/>
<text text-anchor="start" x="895.5" y="-542.05" font-family="Helvetica,sans-Serif" font-size="11.00">&lt; 21</text>
<polygon fill="#ffffff" stroke="transparent" points="983.5,-536.85 983.5,-552.85 1058.5,-552.85 1058.5,-536.85 983.5,-536.85"/>
<text text-anchor="start" x="1017.5" y="-542.05" font-family="Helvetica,sans-Serif" font-size="11.00"> &#160;</text>
<polygon fill="#ffffff" stroke="transparent" points="1058.5,-536.85 1058.5,-552.85 1142.5,-552.85 1142.5,-536.85 1058.5,-536.85"/>
<text text-anchor="start" x="1124.5" y="-542.05" font-family="Helvetica,sans-Serif" font-size="11.00">1 &gt;</text>
<polygon fill="black" stroke="black" points="983.5,-536.85 983.5,-552.85 983.5,-552.85 983.5,-536.85 983.5,-536.85"/>
<polygon fill="black" stroke="black" points="1058.5,-536.85 1058.5,-552.85 1058.5,-552.85 1058.5,-536.85 1058.5,-536.85"/>
</a>
</g>
</g>
<!-- a_asset -->
<g id="node2" class="node">
<title>a_asset</title>
<g id="a_node2"><a xlink:href="../../tables/a_asset.html" xlink:title="a_asset" target="_top">
<polygon fill="#ffffff" stroke="transparent" points="8,-390.85 8,-844.85 219,-844.85 219,-390.85 8,-390.85"/>
<polygon fill="#f5f5f5" stroke="transparent" points="8.5,-822.85 8.5,-844.85 219.5,-844.85 219.5,-822.85 8.5,-822.85"/>
<polygon fill="none" stroke="black" points="8.5,-822.85 8.5,-844.85 219.5,-844.85 219.5,-822.85 8.5,-822.85"/>
<text text-anchor="start" x="13.5" y="-832.05" font-family="Helvetica,sans-Serif" font-weight="bold" font-size="11.00">a_asset</text>
<text text-anchor="start" x="184.5" y="-831.05" font-family="Helvetica,sans-Serif" font-size="11.00">[table]</text>
<polygon fill="none" stroke="black" points="8.5,-800.85 8.5,-822.85 219.5,-822.85 219.5,-800.85 8.5,-800.85"/>
<image xlink:href="../../images/primaryKeys.png" width="11px" height="12px" preserveAspectRatio="xMinYMin meet" x="13.5" y="-817.846"/>
<text text-anchor="start" x="28.5" y="-809.05" font-family="Helvetica,sans-Serif" font-size="11.00">a_asset_id</text>
<polygon fill="none" stroke="black" points="8.5,-778.85 8.5,-800.85 219.5,-800.85 219.5,-778.85 8.5,-778.85"/>
<image xlink:href="../../images/foreignKeys.png" width="11px" height="12px" preserveAspectRatio="xMinYMin meet" x="13.5" y="-795.846"/>
<text text-anchor="start" x="28.5" y="-787.05" font-family="Helvetica,sans-Serif" font-size="11.00">a_asset_group_id</text>
<polygon fill="none" stroke="black" points="8.5,-756.85 8.5,-778.85 219.5,-778.85 219.5,-756.85 8.5,-756.85"/>
<image xlink:href="../../images/foreignKeys.png" width="11px" height="12px" preserveAspectRatio="xMinYMin meet" x="13.5" y="-773.846"/>
<text text-anchor="start" x="28.5" y="-765.05" font-family="Helvetica,sans-Serif" font-size="11.00">m_product_id</text>
<polygon fill="none" stroke="black" points="8.5,-734.85 8.5,-756.85 219.5,-756.85 219.5,-734.85 8.5,-734.85"/>
<image xlink:href="../../images/foreignKeys.png" width="11px" height="12px" preserveAspectRatio="xMinYMin meet" x="13.5" y="-751.846"/>
<text text-anchor="start" x="28.5" y="-743.05" font-family="Helvetica,sans-Serif" font-size="11.00">m_locator_id</text>
<polygon fill="none" stroke="black" points="8.5,-712.85 8.5,-734.85 219.5,-734.85 219.5,-712.85 8.5,-712.85"/>
<image xlink:href="../../images/foreignKeys.png" width="11px" height="12px" preserveAspectRatio="xMinYMin meet" x="13.5" y="-729.846"/>
<text text-anchor="start" x="28.5" y="-721.05" font-family="Helvetica,sans-Serif" font-size="11.00">c_bpartner_id</text>
<polygon fill="none" stroke="black" points="8.5,-690.85 8.5,-712.85 219.5,-712.85 219.5,-690.85 8.5,-690.85"/>
<image xlink:href="../../images/foreignKeys.png" width="11px" height="12px" preserveAspectRatio="xMinYMin meet" x="13.5" y="-707.846"/>
<text text-anchor="start" x="28.5" y="-699.05" font-family="Helvetica,sans-Serif" font-size="11.00">c_bpartner_location_id</text>
<polygon fill="none" stroke="black" points="8.5,-668.85 8.5,-690.85 219.5,-690.85 219.5,-668.85 8.5,-668.85"/>
<image xlink:href="../../images/foreignKeys.png" width="11px" height="12px" preserveAspectRatio="xMinYMin meet" x="13.5" y="-685.846"/>
<text text-anchor="start" x="28.5" y="-677.05" font-family="Helvetica,sans-Serif" font-size="11.00">c_location_id</text>
<polygon fill="none" stroke="black" points="8.5,-646.85 8.5,-668.85 219.5,-668.85 219.5,-646.85 8.5,-646.85"/>
<image xlink:href="../../images/foreignKeys.png" width="11px" height="12px" preserveAspectRatio="xMinYMin meet" x="13.5" y="-663.846"/>
<text text-anchor="start" x="28.5" y="-655.05" font-family="Helvetica,sans-Serif" font-size="11.00">ad_user_id</text>
<polygon fill="none" stroke="black" points="8.5,-624.85 8.5,-646.85 219.5,-646.85 219.5,-624.85 8.5,-624.85"/>
<image xlink:href="../../images/foreignKeys.png" width="11px" height="12px" preserveAspectRatio="xMinYMin meet" x="13.5" y="-641.846"/>
<text text-anchor="start" x="28.5" y="-633.05" font-family="Helvetica,sans-Serif" font-size="11.00">m_attributesetinstance_id</text>
<polygon fill="none" stroke="black" points="8.5,-602.85 8.5,-624.85 219.5,-624.85 219.5,-602.85 8.5,-602.85"/>
<image xlink:href="../../images/foreignKeys.png" width="11px" height="12px" preserveAspectRatio="xMinYMin meet" x="13.5" y="-619.846"/>
<text text-anchor="start" x="28.5" y="-611.05" font-family="Helvetica,sans-Serif" font-size="11.00">c_project_id</text>
<polygon fill="none" stroke="black" points="8.5,-580.85 8.5,-602.85 219.5,-602.85 219.5,-580.85 8.5,-580.85"/>
<image xlink:href="../../images/foreignKeys.png" width="11px" height="12px" preserveAspectRatio="xMinYMin meet" x="13.5" y="-597.846"/>
<text text-anchor="start" x="28.5" y="-589.05" font-family="Helvetica,sans-Serif" font-size="11.00">c_bpartnersr_id</text>
<polygon fill="none" stroke="black" points="8.5,-558.85 8.5,-580.85 219.5,-580.85 219.5,-558.85 8.5,-558.85"/>
<image xlink:href="../../images/foreignKeys.png" width="11px" height="12px" preserveAspectRatio="xMinYMin meet" x="13.5" y="-575.846"/>
<text text-anchor="start" x="28.5" y="-567.05" font-family="Helvetica,sans-Serif" font-size="11.00">m_inoutline_id</text>
<polygon fill="none" stroke="black" points="8.5,-536.85 8.5,-558.85 219.5,-558.85 219.5,-536.85 8.5,-536.85"/>
<image xlink:href="../../images/foreignKeys.png" width="11px" height="12px" preserveAspectRatio="xMinYMin meet" x="13.5" y="-553.846"/>
<text text-anchor="start" x="28.5" y="-545.05" font-family="Helvetica,sans-Serif" font-size="11.00">lease_bpartner_id</text>
<polygon fill="none" stroke="black" points="8.5,-514.85 8.5,-536.85 219.5,-536.85 219.5,-514.85 8.5,-514.85"/>
<image xlink:href="../../images/foreignKeys.png" width="11px" height="12px" preserveAspectRatio="xMinYMin meet" x="13.5" y="-531.846"/>
<text text-anchor="start" x="28.5" y="-523.05" font-family="Helvetica,sans-Serif" font-size="11.00">a_parent_asset_id</text>
<polygon fill="#ffffff" stroke="transparent" points="8.5,-492.85 8.5,-514.85 219.5,-514.85 219.5,-492.85 8.5,-492.85"/>
<polygon fill="none" stroke="black" points="8.5,-492.85 8.5,-514.85 219.5,-514.85 219.5,-492.85 8.5,-492.85"/>
<text text-anchor="start" x="28.5" y="-501.05" font-family="Helvetica,sans-Serif" font-size="11.00">a_asset_uu</text>
<polygon fill="none" stroke="black" points="8.5,-470.85 8.5,-492.85 219.5,-492.85 219.5,-470.85 8.5,-470.85"/>
<image xlink:href="../../images/foreignKeys.png" width="11px" height="12px" preserveAspectRatio="xMinYMin meet" x="13.5" y="-487.846"/>
<text text-anchor="start" x="28.5" y="-479.05" font-family="Helvetica,sans-Serif" font-size="11.00">a_asset_class_id</text>
<polygon fill="none" stroke="black" points="8.5,-448.85 8.5,-470.85 219.5,-470.85 219.5,-448.85 8.5,-448.85"/>
<image xlink:href="../../images/foreignKeys.png" width="11px" height="12px" preserveAspectRatio="xMinYMin meet" x="13.5" y="-465.846"/>
<text text-anchor="start" x="28.5" y="-457.05" font-family="Helvetica,sans-Serif" font-size="11.00">a_asset_type_id</text>
<polygon fill="none" stroke="black" points="8.5,-426.85 8.5,-448.85 219.5,-448.85 219.5,-426.85 8.5,-426.85"/>
<image xlink:href="../../images/foreignKeys.png" width="11px" height="12px" preserveAspectRatio="xMinYMin meet" x="13.5" y="-443.846"/>
<text text-anchor="start" x="28.5" y="-435.05" font-family="Helvetica,sans-Serif" font-size="11.00">c_activity_id</text>
<polygon fill="none" stroke="black" points="8.5,-408.85 8.5,-426.85 219.5,-426.85 219.5,-408.85 8.5,-408.85"/>
<text text-anchor="start" x="11.5" y="-415.05" font-family="Helvetica,sans-Serif" font-size="11.00">...</text>
<polygon fill="#ffffff" stroke="transparent" points="8.5,-390.85 8.5,-408.85 219.5,-408.85 219.5,-390.85 8.5,-390.85"/>
<polygon fill="none" stroke="black" points="8.5,-390.85 8.5,-408.85 219.5,-408.85 219.5,-390.85 8.5,-390.85"/>
<polygon fill="#ffffff" stroke="transparent" points="9.5,-391.85 9.5,-407.85 84.5,-407.85 84.5,-391.85 9.5,-391.85"/>
<text text-anchor="start" x="11.5" y="-397.05" font-family="Helvetica,sans-Serif" font-size="11.00">&lt; 16</text>
<polygon fill="#ffffff" stroke="transparent" points="84.5,-391.85 84.5,-407.85 144.5,-407.85 144.5,-391.85 84.5,-391.85"/>
<text text-anchor="start" x="111" y="-397.05" font-family="Helvetica,sans-Serif" font-size="11.00"> &#160;</text>
<polygon fill="#ffffff" stroke="transparent" points="144.5,-391.85 144.5,-407.85 218.5,-407.85 218.5,-391.85 144.5,-391.85"/>
<text text-anchor="start" x="194.5" y="-397.05" font-family="Helvetica,sans-Serif" font-size="11.00">52 &gt;</text>
<polygon fill="black" stroke="black" points="84.5,-391.85 84.5,-407.85 84.5,-407.85 84.5,-391.85 84.5,-391.85"/>
<polygon fill="black" stroke="black" points="144.5,-391.85 144.5,-407.85 144.5,-407.85 144.5,-391.85 144.5,-391.85"/>
</a>
</g>
</g>
<!-- a_asset_change&#45;&gt;a_asset -->
<g id="edge1" class="edge">
<title>a_asset_change:w&#45;&gt;a_asset:e</title>
<path fill="none" stroke="black" d="M877.45,-1048.91C869.1,-1054.67 865.19,-1064.96 851,-1068.85 727.12,-1102.79 688.93,-1088.53 562,-1068.85 422.82,-1047.26 356.19,-1075.72 260,-972.85 209.68,-919.03 294.18,-811.85 220.5,-811.85"/>
<polygon fill="black" stroke="black" points="883.81,-1047.07 892.5,-1048.3 887.66,-1045.96 891.5,-1044.85 891.5,-1044.85 891.5,-1044.85 887.66,-1045.96 890.5,-1041.39 883.81,-1047.07 883.81,-1047.07"/>
<ellipse fill="none" stroke="black" cx="880.74" cy="-1047.96" rx="3.2" ry="3.2"/>
</g>
<!-- a_asset_change&#45;&gt;a_asset -->
<g id="edge3" class="edge">
<title>a_asset_change:w&#45;&gt;a_asset:e</title>
<path fill="none" stroke="black" d="M878,-951.77C843.1,-921.46 866.3,-763.98 851,-717.85 752.03,-419.37 797.22,-251.98 529,-87.85 427.02,-25.44 346.81,-5.64 260,-87.85 201.5,-143.24 301.06,-811.85 220.5,-811.85"/>
<polygon fill="black" stroke="black" points="884.01,-954.03 890.23,-960.22 887.76,-955.44 891.5,-956.85 891.5,-956.85 891.5,-956.85 887.76,-955.44 892.77,-953.48 884.01,-954.03 884.01,-954.03"/>
<ellipse fill="none" stroke="black" cx="881.02" cy="-952.91" rx="3.2" ry="3.2"/>
</g>
<!-- a_asset_retirement -->
<g id="node3" class="node">
<title>a_asset_retirement</title>
<g id="a_node3"><a xlink:href="../../tables/a_asset_retirement.html" xlink:title="a_asset_retirement" target="_top">
<polygon fill="#ffffff" stroke="transparent" points="570,-727.85 570,-1057.85 843,-1057.85 843,-727.85 570,-727.85"/>
<polygon fill="#f5f5f5" stroke="transparent" points="572.5,-1033.85 572.5,-1055.85 841.5,-1055.85 841.5,-1033.85 572.5,-1033.85"/>
<polygon fill="none" stroke="black" points="572.5,-1033.85 572.5,-1055.85 841.5,-1055.85 841.5,-1033.85 572.5,-1033.85"/>
<text text-anchor="start" x="577.5" y="-1043.05" font-family="Helvetica,sans-Serif" font-weight="bold" font-size="11.00">a_asset_retirement</text>
<text text-anchor="start" x="806.5" y="-1042.05" font-family="Helvetica,sans-Serif" font-size="11.00">[table]</text>
<polygon fill="none" stroke="black" points="572.5,-1011.85 572.5,-1033.85 758.5,-1033.85 758.5,-1011.85 572.5,-1011.85"/>
<image xlink:href="../../images/primaryKeys.png" width="11px" height="12px" preserveAspectRatio="xMinYMin meet" x="577.5" y="-1028.85"/>
<text text-anchor="start" x="592.5" y="-1020.05" font-family="Helvetica,sans-Serif" font-size="11.00">a_asset_retirement_id</text>
<polygon fill="none" stroke="black" points="758.5,-1011.85 758.5,-1033.85 841.5,-1033.85 841.5,-1011.85 758.5,-1011.85"/>
<text text-anchor="start" x="761.5" y="-1020.05" font-family="Helvetica,sans-Serif" font-size="11.00">numeric[10]</text>
<polygon fill="none" stroke="black" points="572.5,-989.85 572.5,-1011.85 758.5,-1011.85 758.5,-989.85 572.5,-989.85"/>
<text text-anchor="start" x="592.5" y="-998.05" font-family="Helvetica,sans-Serif" font-size="11.00">ad_client_id</text>
<polygon fill="none" stroke="black" points="758.5,-989.85 758.5,-1011.85 841.5,-1011.85 841.5,-989.85 758.5,-989.85"/>
<text text-anchor="start" x="761.5" y="-998.05" font-family="Helvetica,sans-Serif" font-size="11.00">numeric[10]</text>
<polygon fill="none" stroke="black" points="572.5,-967.85 572.5,-989.85 758.5,-989.85 758.5,-967.85 572.5,-967.85"/>
<text text-anchor="start" x="592.5" y="-976.05" font-family="Helvetica,sans-Serif" font-size="11.00">ad_org_id</text>
<polygon fill="none" stroke="black" points="758.5,-967.85 758.5,-989.85 841.5,-989.85 841.5,-967.85 758.5,-967.85"/>
<text text-anchor="start" x="761.5" y="-976.05" font-family="Helvetica,sans-Serif" font-size="11.00">numeric[10]</text>
<polygon fill="none" stroke="black" points="572.5,-945.85 572.5,-967.85 758.5,-967.85 758.5,-945.85 572.5,-945.85"/>
<text text-anchor="start" x="592.5" y="-954.05" font-family="Helvetica,sans-Serif" font-size="11.00">isactive</text>
<polygon fill="none" stroke="black" points="758.5,-945.85 758.5,-967.85 841.5,-967.85 841.5,-945.85 758.5,-945.85"/>
<text text-anchor="start" x="761.5" y="-954.05" font-family="Helvetica,sans-Serif" font-size="11.00">bpchar[1]</text>
<polygon fill="none" stroke="black" points="572.5,-923.85 572.5,-945.85 758.5,-945.85 758.5,-923.85 572.5,-923.85"/>
<text text-anchor="start" x="592.5" y="-932.05" font-family="Helvetica,sans-Serif" font-size="11.00">created</text>
<polygon fill="none" stroke="black" points="758.5,-923.85 758.5,-945.85 841.5,-945.85 841.5,-923.85 758.5,-923.85"/>
<text text-anchor="start" x="761.5" y="-932.05" font-family="Helvetica,sans-Serif" font-size="11.00">timestamp[29,6]</text>
<polygon fill="none" stroke="black" points="572.5,-901.85 572.5,-923.85 758.5,-923.85 758.5,-901.85 572.5,-901.85"/>
<text text-anchor="start" x="592.5" y="-910.05" font-family="Helvetica,sans-Serif" font-size="11.00">createdby</text>
<polygon fill="none" stroke="black" points="758.5,-901.85 758.5,-923.85 841.5,-923.85 841.5,-901.85 758.5,-901.85"/>
<text text-anchor="start" x="761.5" y="-910.05" font-family="Helvetica,sans-Serif" font-size="11.00">numeric[10]</text>
<polygon fill="none" stroke="black" points="572.5,-879.85 572.5,-901.85 758.5,-901.85 758.5,-879.85 572.5,-879.85"/>
<text text-anchor="start" x="592.5" y="-888.05" font-family="Helvetica,sans-Serif" font-size="11.00">updated</text>
<polygon fill="none" stroke="black" points="758.5,-879.85 758.5,-901.85 841.5,-901.85 841.5,-879.85 758.5,-879.85"/>
<text text-anchor="start" x="761.5" y="-888.05" font-family="Helvetica,sans-Serif" font-size="11.00">timestamp[29,6]</text>
<polygon fill="none" stroke="black" points="572.5,-857.85 572.5,-879.85 758.5,-879.85 758.5,-857.85 572.5,-857.85"/>
<text text-anchor="start" x="592.5" y="-866.05" font-family="Helvetica,sans-Serif" font-size="11.00">updatedby</text>
<polygon fill="none" stroke="black" points="758.5,-857.85 758.5,-879.85 841.5,-879.85 841.5,-857.85 758.5,-857.85"/>
<text text-anchor="start" x="761.5" y="-866.05" font-family="Helvetica,sans-Serif" font-size="11.00">numeric[10]</text>
<polygon fill="none" stroke="black" points="572.5,-835.85 572.5,-857.85 758.5,-857.85 758.5,-835.85 572.5,-835.85"/>
<image xlink:href="../../images/foreignKeys.png" width="11px" height="12px" preserveAspectRatio="xMinYMin meet" x="577.5" y="-852.846"/>
<text text-anchor="start" x="592.5" y="-844.05" font-family="Helvetica,sans-Serif" font-size="11.00">a_asset_id</text>
<polygon fill="none" stroke="black" points="758.5,-835.85 758.5,-857.85 841.5,-857.85 841.5,-835.85 758.5,-835.85"/>
<text text-anchor="start" x="761.5" y="-844.05" font-family="Helvetica,sans-Serif" font-size="11.00">numeric[10]</text>
<polygon fill="none" stroke="black" points="572.5,-813.85 572.5,-835.85 758.5,-835.85 758.5,-813.85 572.5,-813.85"/>
<text text-anchor="start" x="592.5" y="-822.05" font-family="Helvetica,sans-Serif" font-size="11.00">assetvalueamt</text>
<polygon fill="none" stroke="black" points="758.5,-813.85 758.5,-835.85 841.5,-835.85 841.5,-813.85 758.5,-813.85"/>
<text text-anchor="start" x="761.5" y="-822.05" font-family="Helvetica,sans-Serif" font-size="11.00">numeric[0]</text>
<polygon fill="none" stroke="black" points="572.5,-791.85 572.5,-813.85 758.5,-813.85 758.5,-791.85 572.5,-791.85"/>
<text text-anchor="start" x="592.5" y="-800.05" font-family="Helvetica,sans-Serif" font-size="11.00">assetmarketvalueamt</text>
<polygon fill="none" stroke="black" points="758.5,-791.85 758.5,-813.85 841.5,-813.85 841.5,-791.85 758.5,-791.85"/>
<text text-anchor="start" x="761.5" y="-800.05" font-family="Helvetica,sans-Serif" font-size="11.00">numeric[0]</text>
<polygon fill="#ffffff" stroke="transparent" points="572.5,-769.85 572.5,-791.85 758.5,-791.85 758.5,-769.85 572.5,-769.85"/>
<polygon fill="none" stroke="black" points="572.5,-769.85 572.5,-791.85 758.5,-791.85 758.5,-769.85 572.5,-769.85"/>
<image xlink:href="../../images/foreignKeys.png" width="11px" height="12px" preserveAspectRatio="xMinYMin meet" x="577.5" y="-786.846"/>
<text text-anchor="start" x="592.5" y="-778.05" font-family="Helvetica,sans-Serif" font-size="11.00">c_invoiceline_id</text>
<polygon fill="none" stroke="black" points="758.5,-769.85 758.5,-791.85 841.5,-791.85 841.5,-769.85 758.5,-769.85"/>
<text text-anchor="start" x="761.5" y="-778.05" font-family="Helvetica,sans-Serif" font-size="11.00">numeric[10]</text>
<polygon fill="#ffffff" stroke="transparent" points="572.5,-747.85 572.5,-769.85 758.5,-769.85 758.5,-747.85 572.5,-747.85"/>
<polygon fill="none" stroke="black" points="572.5,-747.85 572.5,-769.85 758.5,-769.85 758.5,-747.85 572.5,-747.85"/>
<text text-anchor="start" x="592.5" y="-756.05" font-family="Helvetica,sans-Serif" font-size="11.00">a_asset_retirement_uu</text>
<polygon fill="none" stroke="black" points="758.5,-747.85 758.5,-769.85 841.5,-769.85 841.5,-747.85 758.5,-747.85"/>
<text text-anchor="start" x="761.5" y="-756.05" font-family="Helvetica,sans-Serif" font-size="11.00">varchar[36]</text>
<polygon fill="#ffffff" stroke="transparent" points="572.5,-729.85 572.5,-747.85 841.5,-747.85 841.5,-729.85 572.5,-729.85"/>
<polygon fill="none" stroke="black" points="572.5,-729.85 572.5,-747.85 841.5,-747.85 841.5,-729.85 572.5,-729.85"/>
<polygon fill="#ffffff" stroke="transparent" points="573.5,-730.85 573.5,-746.85 665.5,-746.85 665.5,-730.85 573.5,-730.85"/>
<text text-anchor="start" x="575.5" y="-736.05" font-family="Helvetica,sans-Serif" font-size="11.00">&lt; 2</text>
<polygon fill="#ffffff" stroke="transparent" points="665.5,-730.85 665.5,-746.85 748.5,-746.85 748.5,-730.85 665.5,-730.85"/>
<text text-anchor="start" x="703.5" y="-736.05" font-family="Helvetica,sans-Serif" font-size="11.00"> &#160;</text>
<polygon fill="#ffffff" stroke="transparent" points="748.5,-730.85 748.5,-746.85 840.5,-746.85 840.5,-730.85 748.5,-730.85"/>
<text text-anchor="start" x="822.5" y="-736.05" font-family="Helvetica,sans-Serif" font-size="11.00">1 &gt;</text>
<polygon fill="black" stroke="black" points="665.5,-730.85 665.5,-746.85 665.5,-746.85 665.5,-730.85 665.5,-730.85"/>
<polygon fill="black" stroke="black" points="748.5,-730.85 748.5,-746.85 748.5,-746.85 748.5,-730.85 748.5,-730.85"/>
<polygon fill="none" stroke="black" stroke-width="2" points="571,-728.85 571,-1056.85 842,-1056.85 842,-728.85 571,-728.85"/>
</a>
</g>
</g>
<!-- a_asset_change&#45;&gt;a_asset_retirement -->
<g id="edge2" class="edge">
<title>a_asset_change:w&#45;&gt;a_asset_retirement:e</title>
<path fill="none" stroke="black" d="M876.99,-1022.85C865.68,-1022.85 858.49,-1022.85 842.5,-1022.85"/>
<polygon fill="black" stroke="black" points="883.5,-1022.85 891.5,-1026.45 887.5,-1022.85 891.5,-1022.85 891.5,-1022.85 891.5,-1022.85 887.5,-1022.85 891.5,-1019.25 883.5,-1022.85 883.5,-1022.85"/>
<ellipse fill="none" stroke="black" cx="880.3" cy="-1022.85" rx="3.2" ry="3.2"/>
</g>
<!-- a_asset_retirement&#45;&gt;a_asset -->
<g id="edge4" class="edge">
<title>a_asset_retirement:w&#45;&gt;a_asset:e</title>
<path fill="none" stroke="black" d="M557.51,-850.32C536.3,-864.37 561.51,-917.15 529,-937.85 428.15,-1002.05 356.36,-1008.62 260,-937.85 212.7,-903.11 279.19,-811.85 220.5,-811.85"/>
<polygon fill="black" stroke="black" points="563.74,-848.78 572.37,-850.34 567.62,-847.81 571.5,-846.85 571.5,-846.85 571.5,-846.85 567.62,-847.81 570.63,-843.35 563.74,-848.78 563.74,-848.78"/>
<ellipse fill="none" stroke="black" cx="560.63" cy="-849.55" rx="3.2" ry="3.2"/>
</g>
<!-- c_invoiceline -->
<g id="node4" class="node">
<title>c_invoiceline</title>
<g id="a_node4"><a xlink:href="../../tables/c_invoiceline.html" xlink:title="c_invoiceline" target="_top">
<polygon fill="#ffffff" stroke="transparent" points="268,-98.85 268,-926.85 521,-926.85 521,-98.85 268,-98.85"/>
<polygon fill="#f5f5f5" stroke="transparent" points="268.5,-904.85 268.5,-926.85 521.5,-926.85 521.5,-904.85 268.5,-904.85"/>
<polygon fill="none" stroke="black" points="268.5,-904.85 268.5,-926.85 521.5,-926.85 521.5,-904.85 268.5,-904.85"/>
<text text-anchor="start" x="273.5" y="-914.05" font-family="Helvetica,sans-Serif" font-weight="bold" font-size="11.00">c_invoiceline</text>
<text text-anchor="start" x="486.5" y="-913.05" font-family="Helvetica,sans-Serif" font-size="11.00">[table]</text>
<polygon fill="none" stroke="black" points="268.5,-882.85 268.5,-904.85 521.5,-904.85 521.5,-882.85 268.5,-882.85"/>
<image xlink:href="../../images/primaryKeys.png" width="11px" height="12px" preserveAspectRatio="xMinYMin meet" x="273.5" y="-899.846"/>
<text text-anchor="start" x="288.5" y="-891.05" font-family="Helvetica,sans-Serif" font-size="11.00">c_invoiceline_id</text>
<polygon fill="none" stroke="black" points="268.5,-860.85 268.5,-882.85 521.5,-882.85 521.5,-860.85 268.5,-860.85"/>
<image xlink:href="../../images/foreignKeys.png" width="11px" height="12px" preserveAspectRatio="xMinYMin meet" x="273.5" y="-877.846"/>
<text text-anchor="start" x="288.5" y="-869.05" font-family="Helvetica,sans-Serif" font-size="11.00">ad_org_id</text>
<polygon fill="#ffffff" stroke="transparent" points="268.5,-838.85 268.5,-860.85 521.5,-860.85 521.5,-838.85 268.5,-838.85"/>
<polygon fill="none" stroke="black" points="268.5,-838.85 268.5,-860.85 521.5,-860.85 521.5,-838.85 268.5,-838.85"/>
<image xlink:href="../../images/foreignKeys.png" width="11px" height="12px" preserveAspectRatio="xMinYMin meet" x="273.5" y="-855.846"/>
<text text-anchor="start" x="288.5" y="-847.05" font-family="Helvetica,sans-Serif" font-size="11.00">c_invoice_id</text>
<polygon fill="#ffffff" stroke="transparent" points="268.5,-816.85 268.5,-838.85 521.5,-838.85 521.5,-816.85 268.5,-816.85"/>
<polygon fill="none" stroke="black" points="268.5,-816.85 268.5,-838.85 521.5,-838.85 521.5,-816.85 268.5,-816.85"/>
<image xlink:href="../../images/foreignKeys.png" width="11px" height="12px" preserveAspectRatio="xMinYMin meet" x="273.5" y="-833.846"/>
<text text-anchor="start" x="288.5" y="-825.05" font-family="Helvetica,sans-Serif" font-size="11.00">c_orderline_id</text>
<polygon fill="none" stroke="black" points="268.5,-794.85 268.5,-816.85 521.5,-816.85 521.5,-794.85 268.5,-794.85"/>
<image xlink:href="../../images/foreignKeys.png" width="11px" height="12px" preserveAspectRatio="xMinYMin meet" x="273.5" y="-811.846"/>
<text text-anchor="start" x="288.5" y="-803.05" font-family="Helvetica,sans-Serif" font-size="11.00">m_inoutline_id</text>
<polygon fill="#ffffff" stroke="transparent" points="268.5,-772.85 268.5,-794.85 521.5,-794.85 521.5,-772.85 268.5,-772.85"/>
<polygon fill="none" stroke="black" points="268.5,-772.85 268.5,-794.85 521.5,-794.85 521.5,-772.85 268.5,-772.85"/>
<image xlink:href="../../images/foreignKeys.png" width="11px" height="12px" preserveAspectRatio="xMinYMin meet" x="273.5" y="-789.846"/>
<text text-anchor="start" x="288.5" y="-781.05" font-family="Helvetica,sans-Serif" font-size="11.00">m_product_id</text>
<polygon fill="none" stroke="black" points="268.5,-750.85 268.5,-772.85 521.5,-772.85 521.5,-750.85 268.5,-750.85"/>
<image xlink:href="../../images/foreignKeys.png" width="11px" height="12px" preserveAspectRatio="xMinYMin meet" x="273.5" y="-767.846"/>
<text text-anchor="start" x="288.5" y="-759.05" font-family="Helvetica,sans-Serif" font-size="11.00">c_charge_id</text>
<polygon fill="none" stroke="black" points="268.5,-728.85 268.5,-750.85 521.5,-750.85 521.5,-728.85 268.5,-728.85"/>
<image xlink:href="../../images/foreignKeys.png" width="11px" height="12px" preserveAspectRatio="xMinYMin meet" x="273.5" y="-745.846"/>
<text text-anchor="start" x="288.5" y="-737.05" font-family="Helvetica,sans-Serif" font-size="11.00">c_uom_id</text>
<polygon fill="none" stroke="black" points="268.5,-706.85 268.5,-728.85 521.5,-728.85 521.5,-706.85 268.5,-706.85"/>
<image xlink:href="../../images/foreignKeys.png" width="11px" height="12px" preserveAspectRatio="xMinYMin meet" x="273.5" y="-723.846"/>
<text text-anchor="start" x="288.5" y="-715.05" font-family="Helvetica,sans-Serif" font-size="11.00">c_tax_id</text>
<polygon fill="none" stroke="black" points="268.5,-684.85 268.5,-706.85 521.5,-706.85 521.5,-684.85 268.5,-684.85"/>
<image xlink:href="../../images/foreignKeys.png" width="11px" height="12px" preserveAspectRatio="xMinYMin meet" x="273.5" y="-701.846"/>
<text text-anchor="start" x="288.5" y="-693.05" font-family="Helvetica,sans-Serif" font-size="11.00">s_resourceassignment_id</text>
<polygon fill="none" stroke="black" points="268.5,-662.85 268.5,-684.85 521.5,-684.85 521.5,-662.85 268.5,-662.85"/>
<image xlink:href="../../images/foreignKeys.png" width="11px" height="12px" preserveAspectRatio="xMinYMin meet" x="273.5" y="-679.846"/>
<text text-anchor="start" x="288.5" y="-671.05" font-family="Helvetica,sans-Serif" font-size="11.00">a_asset_id</text>
<polygon fill="none" stroke="black" points="268.5,-640.85 268.5,-662.85 521.5,-662.85 521.5,-640.85 268.5,-640.85"/>
<image xlink:href="../../images/foreignKeys.png" width="11px" height="12px" preserveAspectRatio="xMinYMin meet" x="273.5" y="-657.846"/>
<text text-anchor="start" x="288.5" y="-649.05" font-family="Helvetica,sans-Serif" font-size="11.00">m_attributesetinstance_id</text>
<polygon fill="#ffffff" stroke="transparent" points="268.5,-618.85 268.5,-640.85 521.5,-640.85 521.5,-618.85 268.5,-618.85"/>
<polygon fill="none" stroke="black" points="268.5,-618.85 268.5,-640.85 521.5,-640.85 521.5,-618.85 268.5,-618.85"/>
<image xlink:href="../../images/foreignKeys.png" width="11px" height="12px" preserveAspectRatio="xMinYMin meet" x="273.5" y="-635.846"/>
<text text-anchor="start" x="288.5" y="-627.05" font-family="Helvetica,sans-Serif" font-size="11.00">ref_invoiceline_id</text>
<polygon fill="none" stroke="black" points="268.5,-596.85 268.5,-618.85 521.5,-618.85 521.5,-596.85 268.5,-596.85"/>
<image xlink:href="../../images/foreignKeys.png" width="11px" height="12px" preserveAspectRatio="xMinYMin meet" x="273.5" y="-613.846"/>
<text text-anchor="start" x="288.5" y="-605.05" font-family="Helvetica,sans-Serif" font-size="11.00">c_project_id</text>
<polygon fill="none" stroke="black" points="268.5,-574.85 268.5,-596.85 521.5,-596.85 521.5,-574.85 268.5,-574.85"/>
<image xlink:href="../../images/foreignKeys.png" width="11px" height="12px" preserveAspectRatio="xMinYMin meet" x="273.5" y="-591.846"/>
<text text-anchor="start" x="288.5" y="-583.05" font-family="Helvetica,sans-Serif" font-size="11.00">c_projectphase_id</text>
<polygon fill="none" stroke="black" points="268.5,-552.85 268.5,-574.85 521.5,-574.85 521.5,-552.85 268.5,-552.85"/>
<image xlink:href="../../images/foreignKeys.png" width="11px" height="12px" preserveAspectRatio="xMinYMin meet" x="273.5" y="-569.846"/>
<text text-anchor="start" x="288.5" y="-561.05" font-family="Helvetica,sans-Serif" font-size="11.00">c_projecttask_id</text>
<polygon fill="none" stroke="black" points="268.5,-530.85 268.5,-552.85 521.5,-552.85 521.5,-530.85 268.5,-530.85"/>
<image xlink:href="../../images/foreignKeys.png" width="11px" height="12px" preserveAspectRatio="xMinYMin meet" x="273.5" y="-547.846"/>
<text text-anchor="start" x="288.5" y="-539.05" font-family="Helvetica,sans-Serif" font-size="11.00">c_campaign_id</text>
<polygon fill="none" stroke="black" points="268.5,-508.85 268.5,-530.85 521.5,-530.85 521.5,-508.85 268.5,-508.85"/>
<image xlink:href="../../images/foreignKeys.png" width="11px" height="12px" preserveAspectRatio="xMinYMin meet" x="273.5" y="-525.846"/>
<text text-anchor="start" x="288.5" y="-517.05" font-family="Helvetica,sans-Serif" font-size="11.00">c_activity_id</text>
<polygon fill="none" stroke="black" points="268.5,-486.85 268.5,-508.85 521.5,-508.85 521.5,-486.85 268.5,-486.85"/>
<image xlink:href="../../images/foreignKeys.png" width="11px" height="12px" preserveAspectRatio="xMinYMin meet" x="273.5" y="-503.846"/>
<text text-anchor="start" x="288.5" y="-495.05" font-family="Helvetica,sans-Serif" font-size="11.00">user1_id</text>
<polygon fill="none" stroke="black" points="268.5,-464.85 268.5,-486.85 521.5,-486.85 521.5,-464.85 268.5,-464.85"/>
<image xlink:href="../../images/foreignKeys.png" width="11px" height="12px" preserveAspectRatio="xMinYMin meet" x="273.5" y="-481.846"/>
<text text-anchor="start" x="288.5" y="-473.05" font-family="Helvetica,sans-Serif" font-size="11.00">user2_id</text>
<polygon fill="none" stroke="black" points="268.5,-442.85 268.5,-464.85 521.5,-464.85 521.5,-442.85 268.5,-442.85"/>
<image xlink:href="../../images/foreignKeys.png" width="11px" height="12px" preserveAspectRatio="xMinYMin meet" x="273.5" y="-459.846"/>
<text text-anchor="start" x="288.5" y="-451.05" font-family="Helvetica,sans-Serif" font-size="11.00">ad_orgtrx_id</text>
<polygon fill="none" stroke="black" points="268.5,-420.85 268.5,-442.85 521.5,-442.85 521.5,-420.85 268.5,-420.85"/>
<image xlink:href="../../images/foreignKeys.png" width="11px" height="12px" preserveAspectRatio="xMinYMin meet" x="273.5" y="-437.846"/>
<text text-anchor="start" x="288.5" y="-429.05" font-family="Helvetica,sans-Serif" font-size="11.00">m_rmaline_id</text>
<polygon fill="none" stroke="black" points="268.5,-398.85 268.5,-420.85 521.5,-420.85 521.5,-398.85 268.5,-398.85"/>
<image xlink:href="../../images/foreignKeys.png" width="11px" height="12px" preserveAspectRatio="xMinYMin meet" x="273.5" y="-415.846"/>
<text text-anchor="start" x="288.5" y="-407.05" font-family="Helvetica,sans-Serif" font-size="11.00">a_asset_group_id</text>
<polygon fill="#ffffff" stroke="transparent" points="268.5,-376.85 268.5,-398.85 521.5,-398.85 521.5,-376.85 268.5,-376.85"/>
<polygon fill="none" stroke="black" points="268.5,-376.85 268.5,-398.85 521.5,-398.85 521.5,-376.85 268.5,-376.85"/>
<text text-anchor="start" x="288.5" y="-385.05" font-family="Helvetica,sans-Serif" font-size="11.00">c_invoiceline_uu</text>
<polygon fill="none" stroke="black" points="268.5,-354.85 268.5,-376.85 521.5,-376.85 521.5,-354.85 268.5,-354.85"/>
<image xlink:href="../../images/foreignKeys.png" width="11px" height="12px" preserveAspectRatio="xMinYMin meet" x="273.5" y="-371.846"/>
<text text-anchor="start" x="288.5" y="-363.05" font-family="Helvetica,sans-Serif" font-size="11.00">c_1099box_id</text>
<polygon fill="none" stroke="black" points="268.5,-332.85 268.5,-354.85 521.5,-354.85 521.5,-332.85 268.5,-332.85"/>
<image xlink:href="../../images/foreignKeys.png" width="11px" height="12px" preserveAspectRatio="xMinYMin meet" x="273.5" y="-349.846"/>
<text text-anchor="start" x="288.5" y="-341.05" font-family="Helvetica,sans-Serif" font-size="11.00">lbr_legalmessage_id</text>
<polygon fill="#ffffff" stroke="transparent" points="268.5,-310.85 268.5,-332.85 521.5,-332.85 521.5,-310.85 268.5,-310.85"/>
<polygon fill="none" stroke="black" points="268.5,-310.85 268.5,-332.85 521.5,-332.85 521.5,-310.85 268.5,-310.85"/>
<image xlink:href="../../images/foreignKeys.png" width="11px" height="12px" preserveAspectRatio="xMinYMin meet" x="273.5" y="-327.846"/>
<text text-anchor="start" x="288.5" y="-319.05" font-family="Helvetica,sans-Serif" font-size="11.00">cof_invoiceline_id</text>
<polygon fill="none" stroke="black" points="268.5,-288.85 268.5,-310.85 521.5,-310.85 521.5,-288.85 268.5,-288.85"/>
<image xlink:href="../../images/foreignKeys.png" width="11px" height="12px" preserveAspectRatio="xMinYMin meet" x="273.5" y="-305.846"/>
<text text-anchor="start" x="288.5" y="-297.05" font-family="Helvetica,sans-Serif" font-size="11.00">cof_products_id</text>
<polygon fill="none" stroke="black" points="268.5,-266.85 268.5,-288.85 521.5,-288.85 521.5,-266.85 268.5,-266.85"/>
<image xlink:href="../../images/foreignKeys.png" width="11px" height="12px" preserveAspectRatio="xMinYMin meet" x="273.5" y="-283.846"/>
<text text-anchor="start" x="288.5" y="-275.05" font-family="Helvetica,sans-Serif" font-size="11.00">cof_linhaopindusprestador_id</text>
<polygon fill="none" stroke="black" points="268.5,-244.85 268.5,-266.85 521.5,-266.85 521.5,-244.85 268.5,-244.85"/>
<image xlink:href="../../images/foreignKeys.png" width="11px" height="12px" preserveAspectRatio="xMinYMin meet" x="273.5" y="-261.846"/>
<text text-anchor="start" x="288.5" y="-253.05" font-family="Helvetica,sans-Serif" font-size="11.00">cof_linhaopmataplicadoprest_id</text>
<polygon fill="none" stroke="black" points="268.5,-222.85 268.5,-244.85 521.5,-244.85 521.5,-222.85 268.5,-222.85"/>
<image xlink:href="../../images/foreignKeys.png" width="11px" height="12px" preserveAspectRatio="xMinYMin meet" x="273.5" y="-239.846"/>
<text text-anchor="start" x="288.5" y="-231.05" font-family="Helvetica,sans-Serif" font-size="11.00">cof_pontoremessa_id</text>
<polygon fill="none" stroke="black" points="268.5,-200.85 268.5,-222.85 521.5,-222.85 521.5,-200.85 268.5,-200.85"/>
<image xlink:href="../../images/foreignKeys.png" width="11px" height="12px" preserveAspectRatio="xMinYMin meet" x="273.5" y="-217.846"/>
<text text-anchor="start" x="288.5" y="-209.05" font-family="Helvetica,sans-Serif" font-size="11.00">cof_kitvendas_id</text>
<polygon fill="none" stroke="black" points="268.5,-178.85 268.5,-200.85 521.5,-200.85 521.5,-178.85 268.5,-178.85"/>
<image xlink:href="../../images/foreignKeys.png" width="11px" height="12px" preserveAspectRatio="xMinYMin meet" x="273.5" y="-195.846"/>
<text text-anchor="start" x="288.5" y="-187.05" font-family="Helvetica,sans-Serif" font-size="11.00">pp_product_bom_id</text>
<polygon fill="none" stroke="black" points="268.5,-156.85 268.5,-178.85 521.5,-178.85 521.5,-156.85 268.5,-156.85"/>
<image xlink:href="../../images/foreignKeys.png" width="11px" height="12px" preserveAspectRatio="xMinYMin meet" x="273.5" y="-173.846"/>
<text text-anchor="start" x="288.5" y="-165.05" font-family="Helvetica,sans-Serif" font-size="11.00">cof_mprecebida_id</text>
<polygon fill="none" stroke="black" points="268.5,-134.85 268.5,-156.85 521.5,-156.85 521.5,-134.85 268.5,-134.85"/>
<image xlink:href="../../images/foreignKeys.png" width="11px" height="12px" preserveAspectRatio="xMinYMin meet" x="273.5" y="-151.846"/>
<text text-anchor="start" x="288.5" y="-143.05" font-family="Helvetica,sans-Serif" font-size="11.00">cof_uomcomercial_id</text>
<polygon fill="none" stroke="black" points="268.5,-116.85 268.5,-134.85 521.5,-134.85 521.5,-116.85 268.5,-116.85"/>
<text text-anchor="start" x="271.5" y="-123.05" font-family="Helvetica,sans-Serif" font-size="11.00">...</text>
<polygon fill="#ffffff" stroke="transparent" points="268.5,-98.85 268.5,-116.85 521.5,-116.85 521.5,-98.85 268.5,-98.85"/>
<polygon fill="none" stroke="black" points="268.5,-98.85 268.5,-116.85 521.5,-116.85 521.5,-98.85 268.5,-98.85"/>
<polygon fill="#ffffff" stroke="transparent" points="269.5,-99.85 269.5,-115.85 358.5,-115.85 358.5,-99.85 269.5,-99.85"/>
<text text-anchor="start" x="271.5" y="-105.05" font-family="Helvetica,sans-Serif" font-size="11.00">&lt; 33</text>
<polygon fill="#ffffff" stroke="transparent" points="358.5,-99.85 358.5,-115.85 432.5,-115.85 432.5,-99.85 358.5,-99.85"/>
<text text-anchor="start" x="392" y="-105.05" font-family="Helvetica,sans-Serif" font-size="11.00"> &#160;</text>
<polygon fill="#ffffff" stroke="transparent" points="432.5,-99.85 432.5,-115.85 520.5,-115.85 520.5,-99.85 432.5,-99.85"/>
<text text-anchor="start" x="496.5" y="-105.05" font-family="Helvetica,sans-Serif" font-size="11.00">22 &gt;</text>
<polygon fill="black" stroke="black" points="358.5,-99.85 358.5,-115.85 358.5,-115.85 358.5,-99.85 358.5,-99.85"/>
<polygon fill="black" stroke="black" points="432.5,-99.85 432.5,-115.85 432.5,-115.85 432.5,-99.85 432.5,-99.85"/>
</a>
</g>
</g>
<!-- a_asset_retirement&#45;&gt;c_invoiceline -->
<g id="edge5" class="edge">
<title>a_asset_retirement:w&#45;&gt;c_invoiceline:e</title>
<path fill="none" stroke="black" d="M557.37,-784.61C528.61,-804.21 571.25,-893.85 522.5,-893.85"/>
<polygon fill="black" stroke="black" points="563.77,-782.9 572.43,-784.33 567.63,-781.88 571.5,-780.85 571.5,-780.85 571.5,-780.85 567.63,-781.88 570.57,-777.37 563.77,-782.9 563.77,-782.9"/>
<ellipse fill="none" stroke="black" cx="560.68" cy="-783.73" rx="3.2" ry="3.2"/>
</g>
<!-- c_invoiceline&#45;&gt;a_asset -->
<g id="edge6" class="edge">
<title>c_invoiceline:w&#45;&gt;a_asset:e</title>
<path fill="none" stroke="black" d="M253.39,-676.99C216.36,-697.53 279.47,-811.85 220.5,-811.85"/>
<polygon fill="black" stroke="black" points="259.69,-675.59 268.28,-677.36 263.6,-674.72 267.5,-673.85 267.5,-673.85 267.5,-673.85 263.6,-674.72 266.72,-670.33 259.69,-675.59 259.69,-675.59"/>
<ellipse fill="none" stroke="black" cx="256.57" cy="-676.28" rx="3.2" ry="3.2"/>
</g>
</g>
</svg>
