<?xml version="1.0" encoding="UTF-8" standalone="no"?>
<!DOCTYPE svg PUBLIC "-//W3C//DTD SVG 1.1//EN"
 "http://www.w3.org/Graphics/SVG/1.1/DTD/svg11.dtd">
<!-- Generated by graphviz version 2.43.0 (0)
 -->
<!-- Title: oneDegreeRelationshipsDiagram Pages: 1 -->
<svg width="991pt" height="852pt"
 viewBox="0.00 0.00 991.00 852.00" xmlns="http://www.w3.org/2000/svg" xmlns:xlink="http://www.w3.org/1999/xlink">
<g id="graph0" class="graph" transform="scale(1 1) rotate(0) translate(4 848)">
<title>oneDegreeRelationshipsDiagram</title>
<polygon fill="#ffffff" stroke="transparent" points="-4,4 -4,-848 987,-848 987,4 -4,4"/>
<text text-anchor="middle" x="71.5" y="-7.2" font-family="Helvetica,sans-Serif" font-size="11.00">Generated by SchemaSpy</text>
<!-- a_asset -->
<g id="node1" class="node">
<title>a_asset</title>
<g id="a_node1"><a xlink:href="../../tables/a_asset.html" xlink:title="a_asset" target="_top">
<polygon fill="#ffffff" stroke="transparent" points="487,-307 487,-761 698,-761 698,-307 487,-307"/>
<polygon fill="#f5f5f5" stroke="transparent" points="487.5,-739 487.5,-761 698.5,-761 698.5,-739 487.5,-739"/>
<polygon fill="none" stroke="black" points="487.5,-739 487.5,-761 698.5,-761 698.5,-739 487.5,-739"/>
<text text-anchor="start" x="492.5" y="-748.2" font-family="Helvetica,sans-Serif" font-weight="bold" font-size="11.00">a_asset</text>
<text text-anchor="start" x="663.5" y="-747.2" font-family="Helvetica,sans-Serif" font-size="11.00">[table]</text>
<polygon fill="none" stroke="black" points="487.5,-717 487.5,-739 698.5,-739 698.5,-717 487.5,-717"/>
<image xlink:href="../../images/primaryKeys.png" width="11px" height="12px" preserveAspectRatio="xMinYMin meet" x="492.5" y="-734"/>
<text text-anchor="start" x="507.5" y="-725.2" font-family="Helvetica,sans-Serif" font-size="11.00">a_asset_id</text>
<polygon fill="none" stroke="black" points="487.5,-695 487.5,-717 698.5,-717 698.5,-695 487.5,-695"/>
<image xlink:href="../../images/foreignKeys.png" width="11px" height="12px" preserveAspectRatio="xMinYMin meet" x="492.5" y="-712"/>
<text text-anchor="start" x="507.5" y="-703.2" font-family="Helvetica,sans-Serif" font-size="11.00">a_asset_group_id</text>
<polygon fill="none" stroke="black" points="487.5,-673 487.5,-695 698.5,-695 698.5,-673 487.5,-673"/>
<image xlink:href="../../images/foreignKeys.png" width="11px" height="12px" preserveAspectRatio="xMinYMin meet" x="492.5" y="-690"/>
<text text-anchor="start" x="507.5" y="-681.2" font-family="Helvetica,sans-Serif" font-size="11.00">m_product_id</text>
<polygon fill="none" stroke="black" points="487.5,-651 487.5,-673 698.5,-673 698.5,-651 487.5,-651"/>
<image xlink:href="../../images/foreignKeys.png" width="11px" height="12px" preserveAspectRatio="xMinYMin meet" x="492.5" y="-668"/>
<text text-anchor="start" x="507.5" y="-659.2" font-family="Helvetica,sans-Serif" font-size="11.00">m_locator_id</text>
<polygon fill="none" stroke="black" points="487.5,-629 487.5,-651 698.5,-651 698.5,-629 487.5,-629"/>
<image xlink:href="../../images/foreignKeys.png" width="11px" height="12px" preserveAspectRatio="xMinYMin meet" x="492.5" y="-646"/>
<text text-anchor="start" x="507.5" y="-637.2" font-family="Helvetica,sans-Serif" font-size="11.00">c_bpartner_id</text>
<polygon fill="none" stroke="black" points="487.5,-607 487.5,-629 698.5,-629 698.5,-607 487.5,-607"/>
<image xlink:href="../../images/foreignKeys.png" width="11px" height="12px" preserveAspectRatio="xMinYMin meet" x="492.5" y="-624"/>
<text text-anchor="start" x="507.5" y="-615.2" font-family="Helvetica,sans-Serif" font-size="11.00">c_bpartner_location_id</text>
<polygon fill="none" stroke="black" points="487.5,-585 487.5,-607 698.5,-607 698.5,-585 487.5,-585"/>
<image xlink:href="../../images/foreignKeys.png" width="11px" height="12px" preserveAspectRatio="xMinYMin meet" x="492.5" y="-602"/>
<text text-anchor="start" x="507.5" y="-593.2" font-family="Helvetica,sans-Serif" font-size="11.00">c_location_id</text>
<polygon fill="none" stroke="black" points="487.5,-563 487.5,-585 698.5,-585 698.5,-563 487.5,-563"/>
<image xlink:href="../../images/foreignKeys.png" width="11px" height="12px" preserveAspectRatio="xMinYMin meet" x="492.5" y="-580"/>
<text text-anchor="start" x="507.5" y="-571.2" font-family="Helvetica,sans-Serif" font-size="11.00">ad_user_id</text>
<polygon fill="none" stroke="black" points="487.5,-541 487.5,-563 698.5,-563 698.5,-541 487.5,-541"/>
<image xlink:href="../../images/foreignKeys.png" width="11px" height="12px" preserveAspectRatio="xMinYMin meet" x="492.5" y="-558"/>
<text text-anchor="start" x="507.5" y="-549.2" font-family="Helvetica,sans-Serif" font-size="11.00">m_attributesetinstance_id</text>
<polygon fill="none" stroke="black" points="487.5,-519 487.5,-541 698.5,-541 698.5,-519 487.5,-519"/>
<image xlink:href="../../images/foreignKeys.png" width="11px" height="12px" preserveAspectRatio="xMinYMin meet" x="492.5" y="-536"/>
<text text-anchor="start" x="507.5" y="-527.2" font-family="Helvetica,sans-Serif" font-size="11.00">c_project_id</text>
<polygon fill="none" stroke="black" points="487.5,-497 487.5,-519 698.5,-519 698.5,-497 487.5,-497"/>
<image xlink:href="../../images/foreignKeys.png" width="11px" height="12px" preserveAspectRatio="xMinYMin meet" x="492.5" y="-514"/>
<text text-anchor="start" x="507.5" y="-505.2" font-family="Helvetica,sans-Serif" font-size="11.00">c_bpartnersr_id</text>
<polygon fill="none" stroke="black" points="487.5,-475 487.5,-497 698.5,-497 698.5,-475 487.5,-475"/>
<image xlink:href="../../images/foreignKeys.png" width="11px" height="12px" preserveAspectRatio="xMinYMin meet" x="492.5" y="-492"/>
<text text-anchor="start" x="507.5" y="-483.2" font-family="Helvetica,sans-Serif" font-size="11.00">m_inoutline_id</text>
<polygon fill="none" stroke="black" points="487.5,-453 487.5,-475 698.5,-475 698.5,-453 487.5,-453"/>
<image xlink:href="../../images/foreignKeys.png" width="11px" height="12px" preserveAspectRatio="xMinYMin meet" x="492.5" y="-470"/>
<text text-anchor="start" x="507.5" y="-461.2" font-family="Helvetica,sans-Serif" font-size="11.00">lease_bpartner_id</text>
<polygon fill="none" stroke="black" points="487.5,-431 487.5,-453 698.5,-453 698.5,-431 487.5,-431"/>
<image xlink:href="../../images/foreignKeys.png" width="11px" height="12px" preserveAspectRatio="xMinYMin meet" x="492.5" y="-448"/>
<text text-anchor="start" x="507.5" y="-439.2" font-family="Helvetica,sans-Serif" font-size="11.00">a_parent_asset_id</text>
<polygon fill="#ffffff" stroke="transparent" points="487.5,-409 487.5,-431 698.5,-431 698.5,-409 487.5,-409"/>
<polygon fill="none" stroke="black" points="487.5,-409 487.5,-431 698.5,-431 698.5,-409 487.5,-409"/>
<text text-anchor="start" x="507.5" y="-417.2" font-family="Helvetica,sans-Serif" font-size="11.00">a_asset_uu</text>
<polygon fill="none" stroke="black" points="487.5,-387 487.5,-409 698.5,-409 698.5,-387 487.5,-387"/>
<image xlink:href="../../images/foreignKeys.png" width="11px" height="12px" preserveAspectRatio="xMinYMin meet" x="492.5" y="-404"/>
<text text-anchor="start" x="507.5" y="-395.2" font-family="Helvetica,sans-Serif" font-size="11.00">a_asset_class_id</text>
<polygon fill="none" stroke="black" points="487.5,-365 487.5,-387 698.5,-387 698.5,-365 487.5,-365"/>
<image xlink:href="../../images/foreignKeys.png" width="11px" height="12px" preserveAspectRatio="xMinYMin meet" x="492.5" y="-382"/>
<text text-anchor="start" x="507.5" y="-373.2" font-family="Helvetica,sans-Serif" font-size="11.00">a_asset_type_id</text>
<polygon fill="none" stroke="black" points="487.5,-343 487.5,-365 698.5,-365 698.5,-343 487.5,-343"/>
<image xlink:href="../../images/foreignKeys.png" width="11px" height="12px" preserveAspectRatio="xMinYMin meet" x="492.5" y="-360"/>
<text text-anchor="start" x="507.5" y="-351.2" font-family="Helvetica,sans-Serif" font-size="11.00">c_activity_id</text>
<polygon fill="none" stroke="black" points="487.5,-325 487.5,-343 698.5,-343 698.5,-325 487.5,-325"/>
<text text-anchor="start" x="490.5" y="-331.2" font-family="Helvetica,sans-Serif" font-size="11.00">...</text>
<polygon fill="#ffffff" stroke="transparent" points="487.5,-307 487.5,-325 698.5,-325 698.5,-307 487.5,-307"/>
<polygon fill="none" stroke="black" points="487.5,-307 487.5,-325 698.5,-325 698.5,-307 487.5,-307"/>
<polygon fill="#ffffff" stroke="transparent" points="488.5,-308 488.5,-324 563.5,-324 563.5,-308 488.5,-308"/>
<text text-anchor="start" x="490.5" y="-313.2" font-family="Helvetica,sans-Serif" font-size="11.00">&lt; 16</text>
<polygon fill="#ffffff" stroke="transparent" points="563.5,-308 563.5,-324 623.5,-324 623.5,-308 563.5,-308"/>
<text text-anchor="start" x="590" y="-313.2" font-family="Helvetica,sans-Serif" font-size="11.00"> &#160;</text>
<polygon fill="#ffffff" stroke="transparent" points="623.5,-308 623.5,-324 697.5,-324 697.5,-308 623.5,-308"/>
<text text-anchor="start" x="673.5" y="-313.2" font-family="Helvetica,sans-Serif" font-size="11.00">52 &gt;</text>
<polygon fill="black" stroke="black" points="563.5,-308 563.5,-324 563.5,-324 563.5,-308 563.5,-308"/>
<polygon fill="black" stroke="black" points="623.5,-308 623.5,-324 623.5,-324 623.5,-308 623.5,-308"/>
</a>
</g>
</g>
<!-- a_asset_group -->
<g id="node2" class="node">
<title>a_asset_group</title>
<g id="a_node2"><a xlink:href="../../tables/a_asset_group.html" xlink:title="a_asset_group" target="_top">
<polygon fill="#ffffff" stroke="transparent" points="283,-593 283,-739 438,-739 438,-593 283,-593"/>
<polygon fill="#f5f5f5" stroke="transparent" points="283.5,-717 283.5,-739 438.5,-739 438.5,-717 283.5,-717"/>
<polygon fill="none" stroke="black" points="283.5,-717 283.5,-739 438.5,-739 438.5,-717 283.5,-717"/>
<text text-anchor="start" x="288.5" y="-726.2" font-family="Helvetica,sans-Serif" font-weight="bold" font-size="11.00">a_asset_group</text>
<text text-anchor="start" x="403.5" y="-725.2" font-family="Helvetica,sans-Serif" font-size="11.00">[table]</text>
<polygon fill="none" stroke="black" points="283.5,-695 283.5,-717 438.5,-717 438.5,-695 283.5,-695"/>
<image xlink:href="../../images/primaryKeys.png" width="11px" height="12px" preserveAspectRatio="xMinYMin meet" x="288.5" y="-712"/>
<text text-anchor="start" x="303.5" y="-703.2" font-family="Helvetica,sans-Serif" font-size="11.00">a_asset_group_id</text>
<polygon fill="#ffffff" stroke="transparent" points="283.5,-673 283.5,-695 438.5,-695 438.5,-673 283.5,-673"/>
<polygon fill="none" stroke="black" points="283.5,-673 283.5,-695 438.5,-695 438.5,-673 283.5,-673"/>
<text text-anchor="start" x="303.5" y="-681.2" font-family="Helvetica,sans-Serif" font-size="11.00">a_asset_group_uu</text>
<polygon fill="none" stroke="black" points="283.5,-651 283.5,-673 438.5,-673 438.5,-651 283.5,-651"/>
<image xlink:href="../../images/foreignKeys.png" width="11px" height="12px" preserveAspectRatio="xMinYMin meet" x="288.5" y="-668"/>
<text text-anchor="start" x="303.5" y="-659.2" font-family="Helvetica,sans-Serif" font-size="11.00">a_asset_class_id</text>
<polygon fill="none" stroke="black" points="283.5,-629 283.5,-651 438.5,-651 438.5,-629 283.5,-629"/>
<image xlink:href="../../images/foreignKeys.png" width="11px" height="12px" preserveAspectRatio="xMinYMin meet" x="288.5" y="-646"/>
<text text-anchor="start" x="303.5" y="-637.2" font-family="Helvetica,sans-Serif" font-size="11.00">a_asset_type_id</text>
<polygon fill="none" stroke="black" points="283.5,-611 283.5,-629 438.5,-629 438.5,-611 283.5,-611"/>
<text text-anchor="start" x="286.5" y="-617.2" font-family="Helvetica,sans-Serif" font-size="11.00">...</text>
<polygon fill="#ffffff" stroke="transparent" points="283.5,-593 283.5,-611 438.5,-611 438.5,-593 283.5,-593"/>
<polygon fill="none" stroke="black" points="283.5,-593 283.5,-611 438.5,-611 438.5,-593 283.5,-593"/>
<polygon fill="#ffffff" stroke="transparent" points="284.5,-594 284.5,-610 336.5,-610 336.5,-594 284.5,-594"/>
<text text-anchor="start" x="286.5" y="-599.2" font-family="Helvetica,sans-Serif" font-size="11.00">&lt; 2</text>
<polygon fill="#ffffff" stroke="transparent" points="336.5,-594 336.5,-610 379.5,-610 379.5,-594 336.5,-594"/>
<text text-anchor="start" x="354.5" y="-599.2" font-family="Helvetica,sans-Serif" font-size="11.00"> &#160;</text>
<polygon fill="#ffffff" stroke="transparent" points="379.5,-594 379.5,-610 437.5,-610 437.5,-594 379.5,-594"/>
<text text-anchor="start" x="413.5" y="-599.2" font-family="Helvetica,sans-Serif" font-size="11.00">10 &gt;</text>
<polygon fill="black" stroke="black" points="336.5,-594 336.5,-610 336.5,-610 336.5,-594 336.5,-594"/>
<polygon fill="black" stroke="black" points="379.5,-594 379.5,-610 379.5,-610 379.5,-594 379.5,-594"/>
</a>
</g>
</g>
<!-- a_asset&#45;&gt;a_asset_group -->
<g id="edge1" class="edge">
<title>a_asset:w&#45;&gt;a_asset_group:e</title>
<path fill="none" stroke="black" d="M471.9,-706C461.43,-706 454.51,-706 439.5,-706"/>
<polygon fill="black" stroke="black" points="478.5,-706 486.5,-709.6 482.5,-706 486.5,-706 486.5,-706 486.5,-706 482.5,-706 486.5,-702.4 478.5,-706 478.5,-706"/>
<ellipse fill="none" stroke="black" cx="475.3" cy="-706" rx="3.2" ry="3.2"/>
</g>
<!-- a_asset_type -->
<g id="node3" class="node">
<title>a_asset_type</title>
<g id="a_node3"><a xlink:href="../../tables/a_asset_type.html" xlink:title="a_asset_type" target="_top">
<polygon fill="#ffffff" stroke="transparent" points="8,-37 8,-411 234,-411 234,-37 8,-37"/>
<polygon fill="#f5f5f5" stroke="transparent" points="10,-387 10,-409 232,-409 232,-387 10,-387"/>
<polygon fill="none" stroke="black" points="10,-387 10,-409 232,-409 232,-387 10,-387"/>
<text text-anchor="start" x="15" y="-396.2" font-family="Helvetica,sans-Serif" font-weight="bold" font-size="11.00">a_asset_type</text>
<text text-anchor="start" x="197" y="-395.2" font-family="Helvetica,sans-Serif" font-size="11.00">[table]</text>
<polygon fill="none" stroke="black" points="10,-365 10,-387 149,-387 149,-365 10,-365"/>
<image xlink:href="../../images/primaryKeys.png" width="11px" height="12px" preserveAspectRatio="xMinYMin meet" x="15" y="-382"/>
<text text-anchor="start" x="30" y="-373.2" font-family="Helvetica,sans-Serif" font-size="11.00">a_asset_type_id</text>
<polygon fill="none" stroke="black" points="149,-365 149,-387 232,-387 232,-365 149,-365"/>
<text text-anchor="start" x="152" y="-373.2" font-family="Helvetica,sans-Serif" font-size="11.00">numeric[10]</text>
<polygon fill="none" stroke="black" points="10,-343 10,-365 149,-365 149,-343 10,-343"/>
<text text-anchor="start" x="30" y="-351.2" font-family="Helvetica,sans-Serif" font-size="11.00">name</text>
<polygon fill="none" stroke="black" points="149,-343 149,-365 232,-365 232,-343 149,-343"/>
<text text-anchor="start" x="152" y="-351.2" font-family="Helvetica,sans-Serif" font-size="11.00">varchar[120]</text>
<polygon fill="none" stroke="black" points="10,-321 10,-343 149,-343 149,-321 10,-321"/>
<text text-anchor="start" x="30" y="-329.2" font-family="Helvetica,sans-Serif" font-size="11.00">value</text>
<polygon fill="none" stroke="black" points="149,-321 149,-343 232,-343 232,-321 149,-321"/>
<text text-anchor="start" x="152" y="-329.2" font-family="Helvetica,sans-Serif" font-size="11.00">varchar[40]</text>
<polygon fill="none" stroke="black" points="10,-299 10,-321 149,-321 149,-299 10,-299"/>
<text text-anchor="start" x="30" y="-307.2" font-family="Helvetica,sans-Serif" font-size="11.00">ad_client_id</text>
<polygon fill="none" stroke="black" points="149,-299 149,-321 232,-321 232,-299 149,-299"/>
<text text-anchor="start" x="152" y="-307.2" font-family="Helvetica,sans-Serif" font-size="11.00">numeric[10]</text>
<polygon fill="none" stroke="black" points="10,-277 10,-299 149,-299 149,-277 10,-277"/>
<text text-anchor="start" x="30" y="-285.2" font-family="Helvetica,sans-Serif" font-size="11.00">ad_org_id</text>
<polygon fill="none" stroke="black" points="149,-277 149,-299 232,-299 232,-277 149,-277"/>
<text text-anchor="start" x="152" y="-285.2" font-family="Helvetica,sans-Serif" font-size="11.00">numeric[10]</text>
<polygon fill="none" stroke="black" points="10,-255 10,-277 149,-277 149,-255 10,-255"/>
<text text-anchor="start" x="30" y="-263.2" font-family="Helvetica,sans-Serif" font-size="11.00">isactive</text>
<polygon fill="none" stroke="black" points="149,-255 149,-277 232,-277 232,-255 149,-255"/>
<text text-anchor="start" x="152" y="-263.2" font-family="Helvetica,sans-Serif" font-size="11.00">bpchar[1]</text>
<polygon fill="none" stroke="black" points="10,-233 10,-255 149,-255 149,-233 10,-233"/>
<text text-anchor="start" x="30" y="-241.2" font-family="Helvetica,sans-Serif" font-size="11.00">created</text>
<polygon fill="none" stroke="black" points="149,-233 149,-255 232,-255 232,-233 149,-233"/>
<text text-anchor="start" x="152" y="-241.2" font-family="Helvetica,sans-Serif" font-size="11.00">timestamp[29,6]</text>
<polygon fill="none" stroke="black" points="10,-211 10,-233 149,-233 149,-211 10,-211"/>
<text text-anchor="start" x="30" y="-219.2" font-family="Helvetica,sans-Serif" font-size="11.00">createdby</text>
<polygon fill="none" stroke="black" points="149,-211 149,-233 232,-233 232,-211 149,-211"/>
<text text-anchor="start" x="152" y="-219.2" font-family="Helvetica,sans-Serif" font-size="11.00">numeric[10]</text>
<polygon fill="none" stroke="black" points="10,-189 10,-211 149,-211 149,-189 10,-189"/>
<text text-anchor="start" x="30" y="-197.2" font-family="Helvetica,sans-Serif" font-size="11.00">updated</text>
<polygon fill="none" stroke="black" points="149,-189 149,-211 232,-211 232,-189 149,-189"/>
<text text-anchor="start" x="152" y="-197.2" font-family="Helvetica,sans-Serif" font-size="11.00">timestamp[29,6]</text>
<polygon fill="none" stroke="black" points="10,-167 10,-189 149,-189 149,-167 10,-167"/>
<text text-anchor="start" x="30" y="-175.2" font-family="Helvetica,sans-Serif" font-size="11.00">updatedby</text>
<polygon fill="none" stroke="black" points="149,-167 149,-189 232,-189 232,-167 149,-167"/>
<text text-anchor="start" x="152" y="-175.2" font-family="Helvetica,sans-Serif" font-size="11.00">numeric[10]</text>
<polygon fill="none" stroke="black" points="10,-145 10,-167 149,-167 149,-145 10,-145"/>
<text text-anchor="start" x="30" y="-153.2" font-family="Helvetica,sans-Serif" font-size="11.00">description</text>
<polygon fill="none" stroke="black" points="149,-145 149,-167 232,-167 232,-145 149,-145"/>
<text text-anchor="start" x="152" y="-153.2" font-family="Helvetica,sans-Serif" font-size="11.00">varchar[255]</text>
<polygon fill="none" stroke="black" points="10,-123 10,-145 149,-145 149,-123 10,-123"/>
<text text-anchor="start" x="30" y="-131.2" font-family="Helvetica,sans-Serif" font-size="11.00">isowned</text>
<polygon fill="none" stroke="black" points="149,-123 149,-145 232,-145 232,-123 149,-123"/>
<text text-anchor="start" x="152" y="-131.2" font-family="Helvetica,sans-Serif" font-size="11.00">varchar[2]</text>
<polygon fill="none" stroke="black" points="10,-101 10,-123 149,-123 149,-101 10,-101"/>
<text text-anchor="start" x="30" y="-109.2" font-family="Helvetica,sans-Serif" font-size="11.00">isinposession</text>
<polygon fill="none" stroke="black" points="149,-101 149,-123 232,-123 232,-101 149,-101"/>
<text text-anchor="start" x="152" y="-109.2" font-family="Helvetica,sans-Serif" font-size="11.00">varchar[2]</text>
<polygon fill="none" stroke="black" points="10,-79 10,-101 149,-101 149,-79 10,-79"/>
<text text-anchor="start" x="30" y="-87.2" font-family="Helvetica,sans-Serif" font-size="11.00">isdepreciable</text>
<polygon fill="none" stroke="black" points="149,-79 149,-101 232,-101 232,-79 149,-79"/>
<text text-anchor="start" x="152" y="-87.2" font-family="Helvetica,sans-Serif" font-size="11.00">varchar[2]</text>
<polygon fill="#ffffff" stroke="transparent" points="10,-57 10,-79 149,-79 149,-57 10,-57"/>
<polygon fill="none" stroke="black" points="10,-57 10,-79 149,-79 149,-57 10,-57"/>
<text text-anchor="start" x="30" y="-65.2" font-family="Helvetica,sans-Serif" font-size="11.00">a_asset_type_uu</text>
<polygon fill="none" stroke="black" points="149,-57 149,-79 232,-79 232,-57 149,-57"/>
<text text-anchor="start" x="152" y="-65.2" font-family="Helvetica,sans-Serif" font-size="11.00">varchar[36]</text>
<polygon fill="#ffffff" stroke="transparent" points="10,-39 10,-57 232,-57 232,-39 10,-39"/>
<polygon fill="none" stroke="black" points="10,-39 10,-57 232,-57 232,-39 10,-39"/>
<polygon fill="#ffffff" stroke="transparent" points="11,-40 11,-56 88,-56 88,-40 11,-40"/>
<text text-anchor="start" x="13" y="-45.2" font-family="Helvetica,sans-Serif" font-size="11.00">&lt; 0</text>
<polygon fill="#ffffff" stroke="transparent" points="88,-40 88,-56 155,-56 155,-40 88,-40"/>
<text text-anchor="start" x="118" y="-45.2" font-family="Helvetica,sans-Serif" font-size="11.00"> &#160;</text>
<polygon fill="#ffffff" stroke="transparent" points="155,-40 155,-56 231,-56 231,-40 155,-40"/>
<text text-anchor="start" x="213" y="-45.2" font-family="Helvetica,sans-Serif" font-size="11.00">3 &gt;</text>
<polygon fill="black" stroke="black" points="88,-40 88,-56 88,-56 88,-40 88,-40"/>
<polygon fill="black" stroke="black" points="155,-40 155,-56 155,-56 155,-40 155,-40"/>
<polygon fill="none" stroke="black" stroke-width="2" points="9,-38 9,-410 233,-410 233,-38 9,-38"/>
</a>
</g>
</g>
<!-- a_asset&#45;&gt;a_asset_type -->
<g id="edge2" class="edge">
<title>a_asset:w&#45;&gt;a_asset_type:e</title>
<path fill="none" stroke="black" d="M471.81,-376C371.13,-376 340.61,-376 233,-376"/>
<polygon fill="black" stroke="black" points="478.5,-376 486.5,-379.6 482.5,-376 486.5,-376 486.5,-376 486.5,-376 482.5,-376 486.5,-372.4 478.5,-376 478.5,-376"/>
<ellipse fill="none" stroke="black" cx="475.3" cy="-376" rx="3.2" ry="3.2"/>
</g>
<!-- a_asset_group&#45;&gt;a_asset_type -->
<g id="edge3" class="edge">
<title>a_asset_group:w&#45;&gt;a_asset_type:e</title>
<path fill="none" stroke="black" d="M267.95,-638.38C179.84,-616.32 346.9,-376 233,-376"/>
<polygon fill="black" stroke="black" points="274.55,-639.12 282.1,-643.58 278.52,-639.56 282.5,-640 282.5,-640 282.5,-640 278.52,-639.56 282.9,-636.42 274.55,-639.12 274.55,-639.12"/>
<ellipse fill="none" stroke="black" cx="271.37" cy="-638.76" rx="3.2" ry="3.2"/>
</g>
<!-- i_fixedasset -->
<g id="node4" class="node">
<title>i_fixedasset</title>
<g id="a_node4"><a xlink:href="../../tables/i_fixedasset.html" xlink:title="i_fixedasset" target="_top">
<polygon fill="#ffffff" stroke="transparent" points="747,-496 747,-840 975,-840 975,-496 747,-496"/>
<polygon fill="#f5f5f5" stroke="transparent" points="747,-818 747,-840 975,-840 975,-818 747,-818"/>
<polygon fill="none" stroke="black" points="747,-818 747,-840 975,-840 975,-818 747,-818"/>
<text text-anchor="start" x="752" y="-827.2" font-family="Helvetica,sans-Serif" font-weight="bold" font-size="11.00">i_fixedasset</text>
<text text-anchor="start" x="940" y="-826.2" font-family="Helvetica,sans-Serif" font-size="11.00">[table]</text>
<polygon fill="none" stroke="black" points="747,-796 747,-818 975,-818 975,-796 747,-796"/>
<image xlink:href="../../images/primaryKeys.png" width="11px" height="12px" preserveAspectRatio="xMinYMin meet" x="752" y="-813"/>
<text text-anchor="start" x="767" y="-804.2" font-family="Helvetica,sans-Serif" font-size="11.00">i_fixedasset_id</text>
<polygon fill="none" stroke="black" points="747,-774 747,-796 975,-796 975,-774 747,-774"/>
<image xlink:href="../../images/foreignKeys.png" width="11px" height="12px" preserveAspectRatio="xMinYMin meet" x="752" y="-791"/>
<text text-anchor="start" x="767" y="-782.2" font-family="Helvetica,sans-Serif" font-size="11.00">a_asset_group_id</text>
<polygon fill="none" stroke="black" points="747,-752 747,-774 975,-774 975,-752 747,-752"/>
<image xlink:href="../../images/foreignKeys.png" width="11px" height="12px" preserveAspectRatio="xMinYMin meet" x="752" y="-769"/>
<text text-anchor="start" x="767" y="-760.2" font-family="Helvetica,sans-Serif" font-size="11.00">a_asset_class_id</text>
<polygon fill="none" stroke="black" points="747,-730 747,-752 975,-752 975,-730 747,-730"/>
<image xlink:href="../../images/foreignKeys.png" width="11px" height="12px" preserveAspectRatio="xMinYMin meet" x="752" y="-747"/>
<text text-anchor="start" x="767" y="-738.2" font-family="Helvetica,sans-Serif" font-size="11.00">m_product_id</text>
<polygon fill="none" stroke="black" points="747,-708 747,-730 975,-730 975,-708 747,-708"/>
<image xlink:href="../../images/foreignKeys.png" width="11px" height="12px" preserveAspectRatio="xMinYMin meet" x="752" y="-725"/>
<text text-anchor="start" x="767" y="-716.2" font-family="Helvetica,sans-Serif" font-size="11.00">a_asset_id</text>
<polygon fill="none" stroke="black" points="747,-686 747,-708 975,-708 975,-686 747,-686"/>
<image xlink:href="../../images/foreignKeys.png" width="11px" height="12px" preserveAspectRatio="xMinYMin meet" x="752" y="-703"/>
<text text-anchor="start" x="767" y="-694.2" font-family="Helvetica,sans-Serif" font-size="11.00">m_locator_id</text>
<polygon fill="none" stroke="black" points="747,-664 747,-686 975,-686 975,-664 747,-664"/>
<image xlink:href="../../images/foreignKeys.png" width="11px" height="12px" preserveAspectRatio="xMinYMin meet" x="752" y="-681"/>
<text text-anchor="start" x="767" y="-672.2" font-family="Helvetica,sans-Serif" font-size="11.00">c_uom_id</text>
<polygon fill="none" stroke="black" points="747,-642 747,-664 975,-664 975,-642 747,-642"/>
<image xlink:href="../../images/foreignKeys.png" width="11px" height="12px" preserveAspectRatio="xMinYMin meet" x="752" y="-659"/>
<text text-anchor="start" x="767" y="-650.2" font-family="Helvetica,sans-Serif" font-size="11.00">c_bpartnersr_id</text>
<polygon fill="none" stroke="black" points="747,-620 747,-642 975,-642 975,-620 747,-620"/>
<image xlink:href="../../images/foreignKeys.png" width="11px" height="12px" preserveAspectRatio="xMinYMin meet" x="752" y="-637"/>
<text text-anchor="start" x="767" y="-628.2" font-family="Helvetica,sans-Serif" font-size="11.00">c_city_id</text>
<polygon fill="none" stroke="black" points="747,-598 747,-620 975,-620 975,-598 747,-598"/>
<image xlink:href="../../images/foreignKeys.png" width="11px" height="12px" preserveAspectRatio="xMinYMin meet" x="752" y="-615"/>
<text text-anchor="start" x="767" y="-606.2" font-family="Helvetica,sans-Serif" font-size="11.00">a_asset_type_id</text>
<polygon fill="#ffffff" stroke="transparent" points="747,-576 747,-598 975,-598 975,-576 747,-576"/>
<polygon fill="none" stroke="black" points="747,-576 747,-598 975,-598 975,-576 747,-576"/>
<text text-anchor="start" x="767" y="-584.2" font-family="Helvetica,sans-Serif" font-size="11.00">i_fixedasset_uu</text>
<polygon fill="none" stroke="black" points="747,-554 747,-576 975,-576 975,-554 747,-554"/>
<image xlink:href="../../images/foreignKeys.png" width="11px" height="12px" preserveAspectRatio="xMinYMin meet" x="752" y="-571"/>
<text text-anchor="start" x="767" y="-562.2" font-family="Helvetica,sans-Serif" font-size="11.00">c_currency_id</text>
<polygon fill="none" stroke="black" points="747,-532 747,-554 975,-554 975,-532 747,-532"/>
<image xlink:href="../../images/foreignKeys.png" width="11px" height="12px" preserveAspectRatio="xMinYMin meet" x="752" y="-549"/>
<text text-anchor="start" x="767" y="-540.2" font-family="Helvetica,sans-Serif" font-size="11.00">c_acctschema_id</text>
<polygon fill="none" stroke="black" points="747,-514 747,-532 975,-532 975,-514 747,-514"/>
<text text-anchor="start" x="750" y="-520.2" font-family="Helvetica,sans-Serif" font-size="11.00">...</text>
<polygon fill="#ffffff" stroke="transparent" points="747,-496 747,-514 975,-514 975,-496 747,-496"/>
<polygon fill="none" stroke="black" points="747,-496 747,-514 975,-514 975,-496 747,-496"/>
<polygon fill="#ffffff" stroke="transparent" points="748,-497 748,-513 831,-513 831,-497 748,-497"/>
<text text-anchor="start" x="750" y="-502.2" font-family="Helvetica,sans-Serif" font-size="11.00">&lt; 11</text>
<polygon fill="#ffffff" stroke="transparent" points="831,-497 831,-513 898,-513 898,-497 831,-497"/>
<text text-anchor="start" x="861" y="-502.2" font-family="Helvetica,sans-Serif" font-size="11.00"> &#160;</text>
<polygon fill="#ffffff" stroke="transparent" points="898,-497 898,-513 974,-513 974,-497 898,-497"/>
<text text-anchor="start" x="956" y="-502.2" font-family="Helvetica,sans-Serif" font-size="11.00">1 &gt;</text>
<polygon fill="black" stroke="black" points="831,-497 831,-513 831,-513 831,-497 831,-497"/>
<polygon fill="black" stroke="black" points="898,-497 898,-513 898,-513 898,-497 898,-497"/>
</a>
</g>
</g>
<!-- i_fixedasset&#45;&gt;a_asset -->
<g id="edge5" class="edge">
<title>i_fixedasset:w&#45;&gt;a_asset:e</title>
<path fill="none" stroke="black" d="M731.45,-720.74C721.16,-723.35 714.63,-728 699.5,-728"/>
<polygon fill="black" stroke="black" points="738.06,-719.95 746.43,-722.57 742.03,-719.47 746,-719 746,-719 746,-719 742.03,-719.47 745.57,-715.43 738.06,-719.95 738.06,-719.95"/>
<ellipse fill="none" stroke="black" cx="734.88" cy="-720.33" rx="3.2" ry="3.2"/>
</g>
<!-- i_fixedasset&#45;&gt;a_asset_group -->
<g id="edge4" class="edge">
<title>i_fixedasset:w&#45;&gt;a_asset_group:e</title>
<path fill="none" stroke="black" d="M731.41,-785.24C623.21,-788.85 576.62,-830.53 479,-772 449.68,-754.42 473.69,-706 439.5,-706"/>
<polygon fill="black" stroke="black" points="738,-785.13 746.06,-788.6 742,-785.07 746,-785 746,-785 746,-785 742,-785.07 745.94,-781.4 738,-785.13 738,-785.13"/>
<ellipse fill="none" stroke="black" cx="734.8" cy="-785.19" rx="3.2" ry="3.2"/>
</g>
<!-- i_fixedasset&#45;&gt;a_asset_type -->
<g id="edge6" class="edge">
<title>i_fixedasset:w&#45;&gt;a_asset_type:e</title>
<path fill="none" stroke="black" d="M732.27,-604.36C688.15,-568.81 754.38,-339.57 706,-297 630.26,-230.35 578.67,-281.39 479,-297 365.55,-314.77 347.83,-376 233,-376"/>
<polygon fill="black" stroke="black" points="738.42,-606.44 744.85,-612.41 742.21,-607.72 746,-609 746,-609 746,-609 742.21,-607.72 747.15,-605.59 738.42,-606.44 738.42,-606.44"/>
<ellipse fill="none" stroke="black" cx="735.39" cy="-605.42" rx="3.2" ry="3.2"/>
</g>
</g>
</svg>
