<?xml version="1.0" encoding="UTF-8" standalone="no"?>
<!DOCTYPE svg PUBLIC "-//W3C//DTD SVG 1.1//EN"
 "http://www.w3.org/Graphics/SVG/1.1/DTD/svg11.dtd">
<!-- Generated by graphviz version 2.43.0 (0)
 -->
<!-- Title: oneDegreeRelationshipsDiagram Pages: 1 -->
<svg width="585pt" height="1033pt"
 viewBox="0.00 0.00 585.00 1033.00" xmlns="http://www.w3.org/2000/svg" xmlns:xlink="http://www.w3.org/1999/xlink">
<g id="graph0" class="graph" transform="scale(1 1) rotate(0) translate(4 1029)">
<title>oneDegreeRelationshipsDiagram</title>
<polygon fill="#ffffff" stroke="transparent" points="-4,4 -4,-1029 581,-1029 581,4 -4,4"/>
<text text-anchor="middle" x="71.5" y="-7.2" font-family="Helvetica,sans-Serif" font-size="11.00">Generated by SchemaSpy</text>
<!-- a_asset_split -->
<g id="node1" class="node">
<title>a_asset_split</title>
<g id="a_node1"><a xlink:href="../../tables/a_asset_split.html" xlink:title="a_asset_split" target="_top">
<polygon fill="#ffffff" stroke="transparent" points="268,-405 268,-1021 569,-1021 569,-405 268,-405"/>
<polygon fill="#f5f5f5" stroke="transparent" points="270.5,-997 270.5,-1019 567.5,-1019 567.5,-997 270.5,-997"/>
<polygon fill="none" stroke="black" points="270.5,-997 270.5,-1019 567.5,-1019 567.5,-997 270.5,-997"/>
<text text-anchor="start" x="275.5" y="-1006.2" font-family="Helvetica,sans-Serif" font-weight="bold" font-size="11.00">a_asset_split</text>
<text text-anchor="start" x="532.5" y="-1005.2" font-family="Helvetica,sans-Serif" font-size="11.00">[table]</text>
<polygon fill="none" stroke="black" points="270.5,-975 270.5,-997 484.5,-997 484.5,-975 270.5,-975"/>
<image xlink:href="../../images/primaryKeys.png" width="11px" height="12px" preserveAspectRatio="xMinYMin meet" x="275.5" y="-992"/>
<text text-anchor="start" x="290.5" y="-983.2" font-family="Helvetica,sans-Serif" font-size="11.00">a_asset_split_id</text>
<polygon fill="none" stroke="black" points="484.5,-975 484.5,-997 567.5,-997 567.5,-975 484.5,-975"/>
<text text-anchor="start" x="487.5" y="-983.2" font-family="Helvetica,sans-Serif" font-size="11.00">numeric[10]</text>
<polygon fill="none" stroke="black" points="270.5,-953 270.5,-975 484.5,-975 484.5,-953 270.5,-953"/>
<text text-anchor="start" x="290.5" y="-961.2" font-family="Helvetica,sans-Serif" font-size="11.00">ad_client_id</text>
<polygon fill="none" stroke="black" points="484.5,-953 484.5,-975 567.5,-975 567.5,-953 484.5,-953"/>
<text text-anchor="start" x="487.5" y="-961.2" font-family="Helvetica,sans-Serif" font-size="11.00">numeric[10]</text>
<polygon fill="none" stroke="black" points="270.5,-931 270.5,-953 484.5,-953 484.5,-931 270.5,-931"/>
<text text-anchor="start" x="290.5" y="-939.2" font-family="Helvetica,sans-Serif" font-size="11.00">ad_org_id</text>
<polygon fill="none" stroke="black" points="484.5,-931 484.5,-953 567.5,-953 567.5,-931 484.5,-931"/>
<text text-anchor="start" x="487.5" y="-939.2" font-family="Helvetica,sans-Serif" font-size="11.00">numeric[10]</text>
<polygon fill="none" stroke="black" points="270.5,-909 270.5,-931 484.5,-931 484.5,-909 270.5,-909"/>
<text text-anchor="start" x="290.5" y="-917.2" font-family="Helvetica,sans-Serif" font-size="11.00">a_amount_split</text>
<polygon fill="none" stroke="black" points="484.5,-909 484.5,-931 567.5,-931 567.5,-909 484.5,-909"/>
<text text-anchor="start" x="487.5" y="-917.2" font-family="Helvetica,sans-Serif" font-size="11.00">numeric[0]</text>
<polygon fill="none" stroke="black" points="270.5,-887 270.5,-909 484.5,-909 484.5,-887 270.5,-887"/>
<text text-anchor="start" x="290.5" y="-895.2" font-family="Helvetica,sans-Serif" font-size="11.00">a_asset_acct_id</text>
<polygon fill="none" stroke="black" points="484.5,-887 484.5,-909 567.5,-909 567.5,-887 484.5,-887"/>
<text text-anchor="start" x="487.5" y="-895.2" font-family="Helvetica,sans-Serif" font-size="11.00">numeric[10]</text>
<polygon fill="none" stroke="black" points="270.5,-865 270.5,-887 484.5,-887 484.5,-865 270.5,-865"/>
<text text-anchor="start" x="290.5" y="-873.2" font-family="Helvetica,sans-Serif" font-size="11.00">a_percent_original</text>
<polygon fill="none" stroke="black" points="484.5,-865 484.5,-887 567.5,-887 567.5,-865 484.5,-865"/>
<text text-anchor="start" x="487.5" y="-873.2" font-family="Helvetica,sans-Serif" font-size="11.00">numeric[0]</text>
<polygon fill="none" stroke="black" points="270.5,-843 270.5,-865 484.5,-865 484.5,-843 270.5,-843"/>
<text text-anchor="start" x="290.5" y="-851.2" font-family="Helvetica,sans-Serif" font-size="11.00">a_qty_current</text>
<polygon fill="none" stroke="black" points="484.5,-843 484.5,-865 567.5,-865 567.5,-843 484.5,-843"/>
<text text-anchor="start" x="487.5" y="-851.2" font-family="Helvetica,sans-Serif" font-size="11.00">numeric[0]</text>
<polygon fill="none" stroke="black" points="270.5,-821 270.5,-843 484.5,-843 484.5,-821 270.5,-821"/>
<text text-anchor="start" x="290.5" y="-829.2" font-family="Helvetica,sans-Serif" font-size="11.00">a_split_type</text>
<polygon fill="none" stroke="black" points="484.5,-821 484.5,-843 567.5,-843 567.5,-821 484.5,-821"/>
<text text-anchor="start" x="487.5" y="-829.2" font-family="Helvetica,sans-Serif" font-size="11.00">varchar[3]</text>
<polygon fill="none" stroke="black" points="270.5,-799 270.5,-821 484.5,-821 484.5,-799 270.5,-799"/>
<image xlink:href="../../images/foreignKeys.png" width="11px" height="12px" preserveAspectRatio="xMinYMin meet" x="275.5" y="-816"/>
<text text-anchor="start" x="290.5" y="-807.2" font-family="Helvetica,sans-Serif" font-size="11.00">c_period_id</text>
<polygon fill="none" stroke="black" points="484.5,-799 484.5,-821 567.5,-821 567.5,-799 484.5,-799"/>
<text text-anchor="start" x="487.5" y="-807.2" font-family="Helvetica,sans-Serif" font-size="11.00">numeric[10]</text>
<polygon fill="none" stroke="black" points="270.5,-777 270.5,-799 484.5,-799 484.5,-777 270.5,-777"/>
<text text-anchor="start" x="290.5" y="-785.2" font-family="Helvetica,sans-Serif" font-size="11.00">updatedby</text>
<polygon fill="none" stroke="black" points="484.5,-777 484.5,-799 567.5,-799 567.5,-777 484.5,-777"/>
<text text-anchor="start" x="487.5" y="-785.2" font-family="Helvetica,sans-Serif" font-size="11.00">numeric[10]</text>
<polygon fill="none" stroke="black" points="270.5,-755 270.5,-777 484.5,-777 484.5,-755 270.5,-755"/>
<text text-anchor="start" x="290.5" y="-763.2" font-family="Helvetica,sans-Serif" font-size="11.00">updated</text>
<polygon fill="none" stroke="black" points="484.5,-755 484.5,-777 567.5,-777 567.5,-755 484.5,-755"/>
<text text-anchor="start" x="487.5" y="-763.2" font-family="Helvetica,sans-Serif" font-size="11.00">timestamp[29,6]</text>
<polygon fill="none" stroke="black" points="270.5,-733 270.5,-755 484.5,-755 484.5,-733 270.5,-733"/>
<text text-anchor="start" x="290.5" y="-741.2" font-family="Helvetica,sans-Serif" font-size="11.00">processing</text>
<polygon fill="none" stroke="black" points="484.5,-733 484.5,-755 567.5,-755 567.5,-733 484.5,-733"/>
<text text-anchor="start" x="487.5" y="-741.2" font-family="Helvetica,sans-Serif" font-size="11.00">bpchar[1]</text>
<polygon fill="none" stroke="black" points="270.5,-711 270.5,-733 484.5,-733 484.5,-711 270.5,-711"/>
<text text-anchor="start" x="290.5" y="-719.2" font-family="Helvetica,sans-Serif" font-size="11.00">processed</text>
<polygon fill="none" stroke="black" points="484.5,-711 484.5,-733 567.5,-733 567.5,-711 484.5,-711"/>
<text text-anchor="start" x="487.5" y="-719.2" font-family="Helvetica,sans-Serif" font-size="11.00">bpchar[1]</text>
<polygon fill="none" stroke="black" points="270.5,-689 270.5,-711 484.5,-711 484.5,-689 270.5,-689"/>
<text text-anchor="start" x="290.5" y="-697.2" font-family="Helvetica,sans-Serif" font-size="11.00">postingtype</text>
<polygon fill="none" stroke="black" points="484.5,-689 484.5,-711 567.5,-711 567.5,-689 484.5,-689"/>
<text text-anchor="start" x="487.5" y="-697.2" font-family="Helvetica,sans-Serif" font-size="11.00">bpchar[1]</text>
<polygon fill="none" stroke="black" points="270.5,-667 270.5,-689 484.5,-689 484.5,-667 270.5,-667"/>
<text text-anchor="start" x="290.5" y="-675.2" font-family="Helvetica,sans-Serif" font-size="11.00">isactive</text>
<polygon fill="none" stroke="black" points="484.5,-667 484.5,-689 567.5,-689 567.5,-667 484.5,-667"/>
<text text-anchor="start" x="487.5" y="-675.2" font-family="Helvetica,sans-Serif" font-size="11.00">bpchar[1]</text>
<polygon fill="none" stroke="black" points="270.5,-645 270.5,-667 484.5,-667 484.5,-645 270.5,-645"/>
<text text-anchor="start" x="290.5" y="-653.2" font-family="Helvetica,sans-Serif" font-size="11.00">dateacct</text>
<polygon fill="none" stroke="black" points="484.5,-645 484.5,-667 567.5,-667 567.5,-645 484.5,-645"/>
<text text-anchor="start" x="487.5" y="-653.2" font-family="Helvetica,sans-Serif" font-size="11.00">timestamp[29,6]</text>
<polygon fill="none" stroke="black" points="270.5,-623 270.5,-645 484.5,-645 484.5,-623 270.5,-623"/>
<text text-anchor="start" x="290.5" y="-631.2" font-family="Helvetica,sans-Serif" font-size="11.00">createdby</text>
<polygon fill="none" stroke="black" points="484.5,-623 484.5,-645 567.5,-645 567.5,-623 484.5,-623"/>
<text text-anchor="start" x="487.5" y="-631.2" font-family="Helvetica,sans-Serif" font-size="11.00">numeric[10]</text>
<polygon fill="none" stroke="black" points="270.5,-601 270.5,-623 484.5,-623 484.5,-601 270.5,-601"/>
<text text-anchor="start" x="290.5" y="-609.2" font-family="Helvetica,sans-Serif" font-size="11.00">created</text>
<polygon fill="none" stroke="black" points="484.5,-601 484.5,-623 567.5,-623 567.5,-601 484.5,-601"/>
<text text-anchor="start" x="487.5" y="-609.2" font-family="Helvetica,sans-Serif" font-size="11.00">timestamp[29,6]</text>
<polygon fill="none" stroke="black" points="270.5,-579 270.5,-601 484.5,-601 484.5,-579 270.5,-579"/>
<text text-anchor="start" x="290.5" y="-587.2" font-family="Helvetica,sans-Serif" font-size="11.00">a_transfer_balance_is</text>
<polygon fill="none" stroke="black" points="484.5,-579 484.5,-601 567.5,-601 567.5,-579 484.5,-579"/>
<text text-anchor="start" x="487.5" y="-587.2" font-family="Helvetica,sans-Serif" font-size="11.00">bpchar[1]</text>
<polygon fill="none" stroke="black" points="270.5,-557 270.5,-579 484.5,-579 484.5,-557 270.5,-557"/>
<text text-anchor="start" x="290.5" y="-565.2" font-family="Helvetica,sans-Serif" font-size="11.00">a_qty_split</text>
<polygon fill="none" stroke="black" points="484.5,-557 484.5,-579 567.5,-579 567.5,-557 484.5,-557"/>
<text text-anchor="start" x="487.5" y="-565.2" font-family="Helvetica,sans-Serif" font-size="11.00">numeric[0]</text>
<polygon fill="none" stroke="black" points="270.5,-535 270.5,-557 484.5,-557 484.5,-535 270.5,-535"/>
<text text-anchor="start" x="290.5" y="-543.2" font-family="Helvetica,sans-Serif" font-size="11.00">a_percent_split</text>
<polygon fill="none" stroke="black" points="484.5,-535 484.5,-557 567.5,-557 567.5,-535 484.5,-535"/>
<text text-anchor="start" x="487.5" y="-543.2" font-family="Helvetica,sans-Serif" font-size="11.00">numeric[0]</text>
<polygon fill="none" stroke="black" points="270.5,-513 270.5,-535 484.5,-535 484.5,-513 270.5,-513"/>
<text text-anchor="start" x="290.5" y="-521.2" font-family="Helvetica,sans-Serif" font-size="11.00">a_depreciation_workfile_id</text>
<polygon fill="none" stroke="black" points="484.5,-513 484.5,-535 567.5,-535 567.5,-513 484.5,-513"/>
<text text-anchor="start" x="487.5" y="-521.2" font-family="Helvetica,sans-Serif" font-size="11.00">numeric[10]</text>
<polygon fill="none" stroke="black" points="270.5,-491 270.5,-513 484.5,-513 484.5,-491 270.5,-491"/>
<text text-anchor="start" x="290.5" y="-499.2" font-family="Helvetica,sans-Serif" font-size="11.00">a_asset_cost</text>
<polygon fill="none" stroke="black" points="484.5,-491 484.5,-513 567.5,-513 567.5,-491 484.5,-491"/>
<text text-anchor="start" x="487.5" y="-499.2" font-family="Helvetica,sans-Serif" font-size="11.00">numeric[0]</text>
<polygon fill="none" stroke="black" points="270.5,-469 270.5,-491 484.5,-491 484.5,-469 270.5,-469"/>
<text text-anchor="start" x="290.5" y="-477.2" font-family="Helvetica,sans-Serif" font-size="11.00">a_asset_id</text>
<polygon fill="none" stroke="black" points="484.5,-469 484.5,-491 567.5,-491 567.5,-469 484.5,-469"/>
<text text-anchor="start" x="487.5" y="-477.2" font-family="Helvetica,sans-Serif" font-size="11.00">numeric[10]</text>
<polygon fill="none" stroke="black" points="270.5,-447 270.5,-469 484.5,-469 484.5,-447 270.5,-447"/>
<image xlink:href="../../images/foreignKeys.png" width="11px" height="12px" preserveAspectRatio="xMinYMin meet" x="275.5" y="-464"/>
<text text-anchor="start" x="290.5" y="-455.2" font-family="Helvetica,sans-Serif" font-size="11.00">a_asset_id_to</text>
<polygon fill="none" stroke="black" points="484.5,-447 484.5,-469 567.5,-469 567.5,-447 484.5,-447"/>
<text text-anchor="start" x="487.5" y="-455.2" font-family="Helvetica,sans-Serif" font-size="11.00">numeric[10]</text>
<polygon fill="#ffffff" stroke="transparent" points="270.5,-425 270.5,-447 484.5,-447 484.5,-425 270.5,-425"/>
<polygon fill="none" stroke="black" points="270.5,-425 270.5,-447 484.5,-447 484.5,-425 270.5,-425"/>
<text text-anchor="start" x="290.5" y="-433.2" font-family="Helvetica,sans-Serif" font-size="11.00">a_asset_split_uu</text>
<polygon fill="none" stroke="black" points="484.5,-425 484.5,-447 567.5,-447 567.5,-425 484.5,-425"/>
<text text-anchor="start" x="487.5" y="-433.2" font-family="Helvetica,sans-Serif" font-size="11.00">varchar[36]</text>
<polygon fill="#ffffff" stroke="transparent" points="270.5,-407 270.5,-425 567.5,-425 567.5,-407 270.5,-407"/>
<polygon fill="none" stroke="black" points="270.5,-407 270.5,-425 567.5,-425 567.5,-407 270.5,-407"/>
<polygon fill="#ffffff" stroke="transparent" points="271.5,-408 271.5,-424 373.5,-424 373.5,-408 271.5,-408"/>
<text text-anchor="start" x="273.5" y="-413.2" font-family="Helvetica,sans-Serif" font-size="11.00">&lt; 2</text>
<polygon fill="#ffffff" stroke="transparent" points="373.5,-408 373.5,-424 465.5,-424 465.5,-408 373.5,-408"/>
<text text-anchor="start" x="416" y="-413.2" font-family="Helvetica,sans-Serif" font-size="11.00"> &#160;</text>
<polygon fill="#ffffff" stroke="transparent" points="465.5,-408 465.5,-424 566.5,-424 566.5,-408 465.5,-408"/>
<text text-anchor="start" x="548.5" y="-413.2" font-family="Helvetica,sans-Serif" font-size="11.00">0 &gt;</text>
<polygon fill="black" stroke="black" points="373.5,-408 373.5,-424 373.5,-424 373.5,-408 373.5,-408"/>
<polygon fill="black" stroke="black" points="465.5,-408 465.5,-424 465.5,-424 465.5,-408 465.5,-408"/>
<polygon fill="none" stroke="black" stroke-width="2" points="269,-406 269,-1020 568,-1020 568,-406 269,-406"/>
</a>
</g>
</g>
<!-- a_asset -->
<g id="node2" class="node">
<title>a_asset</title>
<g id="a_node2"><a xlink:href="../../tables/a_asset.html" xlink:title="a_asset" target="_top">
<polygon fill="#ffffff" stroke="transparent" points="8,-37 8,-491 219,-491 219,-37 8,-37"/>
<polygon fill="#f5f5f5" stroke="transparent" points="8.5,-469 8.5,-491 219.5,-491 219.5,-469 8.5,-469"/>
<polygon fill="none" stroke="black" points="8.5,-469 8.5,-491 219.5,-491 219.5,-469 8.5,-469"/>
<text text-anchor="start" x="13.5" y="-478.2" font-family="Helvetica,sans-Serif" font-weight="bold" font-size="11.00">a_asset</text>
<text text-anchor="start" x="184.5" y="-477.2" font-family="Helvetica,sans-Serif" font-size="11.00">[table]</text>
<polygon fill="none" stroke="black" points="8.5,-447 8.5,-469 219.5,-469 219.5,-447 8.5,-447"/>
<image xlink:href="../../images/primaryKeys.png" width="11px" height="12px" preserveAspectRatio="xMinYMin meet" x="13.5" y="-464"/>
<text text-anchor="start" x="28.5" y="-455.2" font-family="Helvetica,sans-Serif" font-size="11.00">a_asset_id</text>
<polygon fill="none" stroke="black" points="8.5,-425 8.5,-447 219.5,-447 219.5,-425 8.5,-425"/>
<image xlink:href="../../images/foreignKeys.png" width="11px" height="12px" preserveAspectRatio="xMinYMin meet" x="13.5" y="-442"/>
<text text-anchor="start" x="28.5" y="-433.2" font-family="Helvetica,sans-Serif" font-size="11.00">a_asset_group_id</text>
<polygon fill="none" stroke="black" points="8.5,-403 8.5,-425 219.5,-425 219.5,-403 8.5,-403"/>
<image xlink:href="../../images/foreignKeys.png" width="11px" height="12px" preserveAspectRatio="xMinYMin meet" x="13.5" y="-420"/>
<text text-anchor="start" x="28.5" y="-411.2" font-family="Helvetica,sans-Serif" font-size="11.00">m_product_id</text>
<polygon fill="none" stroke="black" points="8.5,-381 8.5,-403 219.5,-403 219.5,-381 8.5,-381"/>
<image xlink:href="../../images/foreignKeys.png" width="11px" height="12px" preserveAspectRatio="xMinYMin meet" x="13.5" y="-398"/>
<text text-anchor="start" x="28.5" y="-389.2" font-family="Helvetica,sans-Serif" font-size="11.00">m_locator_id</text>
<polygon fill="none" stroke="black" points="8.5,-359 8.5,-381 219.5,-381 219.5,-359 8.5,-359"/>
<image xlink:href="../../images/foreignKeys.png" width="11px" height="12px" preserveAspectRatio="xMinYMin meet" x="13.5" y="-376"/>
<text text-anchor="start" x="28.5" y="-367.2" font-family="Helvetica,sans-Serif" font-size="11.00">c_bpartner_id</text>
<polygon fill="none" stroke="black" points="8.5,-337 8.5,-359 219.5,-359 219.5,-337 8.5,-337"/>
<image xlink:href="../../images/foreignKeys.png" width="11px" height="12px" preserveAspectRatio="xMinYMin meet" x="13.5" y="-354"/>
<text text-anchor="start" x="28.5" y="-345.2" font-family="Helvetica,sans-Serif" font-size="11.00">c_bpartner_location_id</text>
<polygon fill="none" stroke="black" points="8.5,-315 8.5,-337 219.5,-337 219.5,-315 8.5,-315"/>
<image xlink:href="../../images/foreignKeys.png" width="11px" height="12px" preserveAspectRatio="xMinYMin meet" x="13.5" y="-332"/>
<text text-anchor="start" x="28.5" y="-323.2" font-family="Helvetica,sans-Serif" font-size="11.00">c_location_id</text>
<polygon fill="none" stroke="black" points="8.5,-293 8.5,-315 219.5,-315 219.5,-293 8.5,-293"/>
<image xlink:href="../../images/foreignKeys.png" width="11px" height="12px" preserveAspectRatio="xMinYMin meet" x="13.5" y="-310"/>
<text text-anchor="start" x="28.5" y="-301.2" font-family="Helvetica,sans-Serif" font-size="11.00">ad_user_id</text>
<polygon fill="none" stroke="black" points="8.5,-271 8.5,-293 219.5,-293 219.5,-271 8.5,-271"/>
<image xlink:href="../../images/foreignKeys.png" width="11px" height="12px" preserveAspectRatio="xMinYMin meet" x="13.5" y="-288"/>
<text text-anchor="start" x="28.5" y="-279.2" font-family="Helvetica,sans-Serif" font-size="11.00">m_attributesetinstance_id</text>
<polygon fill="none" stroke="black" points="8.5,-249 8.5,-271 219.5,-271 219.5,-249 8.5,-249"/>
<image xlink:href="../../images/foreignKeys.png" width="11px" height="12px" preserveAspectRatio="xMinYMin meet" x="13.5" y="-266"/>
<text text-anchor="start" x="28.5" y="-257.2" font-family="Helvetica,sans-Serif" font-size="11.00">c_project_id</text>
<polygon fill="none" stroke="black" points="8.5,-227 8.5,-249 219.5,-249 219.5,-227 8.5,-227"/>
<image xlink:href="../../images/foreignKeys.png" width="11px" height="12px" preserveAspectRatio="xMinYMin meet" x="13.5" y="-244"/>
<text text-anchor="start" x="28.5" y="-235.2" font-family="Helvetica,sans-Serif" font-size="11.00">c_bpartnersr_id</text>
<polygon fill="none" stroke="black" points="8.5,-205 8.5,-227 219.5,-227 219.5,-205 8.5,-205"/>
<image xlink:href="../../images/foreignKeys.png" width="11px" height="12px" preserveAspectRatio="xMinYMin meet" x="13.5" y="-222"/>
<text text-anchor="start" x="28.5" y="-213.2" font-family="Helvetica,sans-Serif" font-size="11.00">m_inoutline_id</text>
<polygon fill="none" stroke="black" points="8.5,-183 8.5,-205 219.5,-205 219.5,-183 8.5,-183"/>
<image xlink:href="../../images/foreignKeys.png" width="11px" height="12px" preserveAspectRatio="xMinYMin meet" x="13.5" y="-200"/>
<text text-anchor="start" x="28.5" y="-191.2" font-family="Helvetica,sans-Serif" font-size="11.00">lease_bpartner_id</text>
<polygon fill="none" stroke="black" points="8.5,-161 8.5,-183 219.5,-183 219.5,-161 8.5,-161"/>
<image xlink:href="../../images/foreignKeys.png" width="11px" height="12px" preserveAspectRatio="xMinYMin meet" x="13.5" y="-178"/>
<text text-anchor="start" x="28.5" y="-169.2" font-family="Helvetica,sans-Serif" font-size="11.00">a_parent_asset_id</text>
<polygon fill="#ffffff" stroke="transparent" points="8.5,-139 8.5,-161 219.5,-161 219.5,-139 8.5,-139"/>
<polygon fill="none" stroke="black" points="8.5,-139 8.5,-161 219.5,-161 219.5,-139 8.5,-139"/>
<text text-anchor="start" x="28.5" y="-147.2" font-family="Helvetica,sans-Serif" font-size="11.00">a_asset_uu</text>
<polygon fill="none" stroke="black" points="8.5,-117 8.5,-139 219.5,-139 219.5,-117 8.5,-117"/>
<image xlink:href="../../images/foreignKeys.png" width="11px" height="12px" preserveAspectRatio="xMinYMin meet" x="13.5" y="-134"/>
<text text-anchor="start" x="28.5" y="-125.2" font-family="Helvetica,sans-Serif" font-size="11.00">a_asset_class_id</text>
<polygon fill="none" stroke="black" points="8.5,-95 8.5,-117 219.5,-117 219.5,-95 8.5,-95"/>
<image xlink:href="../../images/foreignKeys.png" width="11px" height="12px" preserveAspectRatio="xMinYMin meet" x="13.5" y="-112"/>
<text text-anchor="start" x="28.5" y="-103.2" font-family="Helvetica,sans-Serif" font-size="11.00">a_asset_type_id</text>
<polygon fill="none" stroke="black" points="8.5,-73 8.5,-95 219.5,-95 219.5,-73 8.5,-73"/>
<image xlink:href="../../images/foreignKeys.png" width="11px" height="12px" preserveAspectRatio="xMinYMin meet" x="13.5" y="-90"/>
<text text-anchor="start" x="28.5" y="-81.2" font-family="Helvetica,sans-Serif" font-size="11.00">c_activity_id</text>
<polygon fill="none" stroke="black" points="8.5,-55 8.5,-73 219.5,-73 219.5,-55 8.5,-55"/>
<text text-anchor="start" x="11.5" y="-61.2" font-family="Helvetica,sans-Serif" font-size="11.00">...</text>
<polygon fill="#ffffff" stroke="transparent" points="8.5,-37 8.5,-55 219.5,-55 219.5,-37 8.5,-37"/>
<polygon fill="none" stroke="black" points="8.5,-37 8.5,-55 219.5,-55 219.5,-37 8.5,-37"/>
<polygon fill="#ffffff" stroke="transparent" points="9.5,-38 9.5,-54 84.5,-54 84.5,-38 9.5,-38"/>
<text text-anchor="start" x="11.5" y="-43.2" font-family="Helvetica,sans-Serif" font-size="11.00">&lt; 16</text>
<polygon fill="#ffffff" stroke="transparent" points="84.5,-38 84.5,-54 144.5,-54 144.5,-38 84.5,-38"/>
<text text-anchor="start" x="111" y="-43.2" font-family="Helvetica,sans-Serif" font-size="11.00"> &#160;</text>
<polygon fill="#ffffff" stroke="transparent" points="144.5,-38 144.5,-54 218.5,-54 218.5,-38 144.5,-38"/>
<text text-anchor="start" x="194.5" y="-43.2" font-family="Helvetica,sans-Serif" font-size="11.00">52 &gt;</text>
<polygon fill="black" stroke="black" points="84.5,-38 84.5,-54 84.5,-54 84.5,-38 84.5,-38"/>
<polygon fill="black" stroke="black" points="144.5,-38 144.5,-54 144.5,-54 144.5,-38 144.5,-38"/>
</a>
</g>
</g>
<!-- a_asset_split&#45;&gt;a_asset -->
<g id="edge1" class="edge">
<title>a_asset_split:w&#45;&gt;a_asset:e</title>
<path fill="none" stroke="black" d="M254.99,-458C243.68,-458 236.49,-458 220.5,-458"/>
<polygon fill="black" stroke="black" points="261.5,-458 269.5,-461.6 265.5,-458 269.5,-458 269.5,-458 269.5,-458 265.5,-458 269.5,-454.4 261.5,-458 261.5,-458"/>
<ellipse fill="none" stroke="black" cx="258.3" cy="-458" rx="3.2" ry="3.2"/>
</g>
<!-- c_period -->
<g id="node3" class="node">
<title>c_period</title>
<g id="a_node3"><a xlink:href="../../tables/c_period.html" xlink:title="c_period" target="_top">
<polygon fill="#ffffff" stroke="transparent" points="60,-653 60,-843 167,-843 167,-653 60,-653"/>
<polygon fill="#f5f5f5" stroke="transparent" points="60.5,-821 60.5,-843 167.5,-843 167.5,-821 60.5,-821"/>
<polygon fill="none" stroke="black" points="60.5,-821 60.5,-843 167.5,-843 167.5,-821 60.5,-821"/>
<text text-anchor="start" x="65.5" y="-830.2" font-family="Helvetica,sans-Serif" font-weight="bold" font-size="11.00">c_period</text>
<text text-anchor="start" x="132.5" y="-829.2" font-family="Helvetica,sans-Serif" font-size="11.00">[table]</text>
<polygon fill="none" stroke="black" points="60.5,-799 60.5,-821 167.5,-821 167.5,-799 60.5,-799"/>
<image xlink:href="../../images/primaryKeys.png" width="11px" height="12px" preserveAspectRatio="xMinYMin meet" x="65.5" y="-816"/>
<text text-anchor="start" x="80.5" y="-807.2" font-family="Helvetica,sans-Serif" font-size="11.00">c_period_id</text>
<polygon fill="none" stroke="black" points="60.5,-777 60.5,-799 167.5,-799 167.5,-777 60.5,-777"/>
<image xlink:href="../../images/foreignKeys.png" width="11px" height="12px" preserveAspectRatio="xMinYMin meet" x="65.5" y="-794"/>
<text text-anchor="start" x="80.5" y="-785.2" font-family="Helvetica,sans-Serif" font-size="11.00">ad_client_id</text>
<polygon fill="none" stroke="black" points="60.5,-755 60.5,-777 167.5,-777 167.5,-755 60.5,-755"/>
<image xlink:href="../../images/foreignKeys.png" width="11px" height="12px" preserveAspectRatio="xMinYMin meet" x="65.5" y="-772"/>
<text text-anchor="start" x="80.5" y="-763.2" font-family="Helvetica,sans-Serif" font-size="11.00">ad_org_id</text>
<polygon fill="#ffffff" stroke="transparent" points="60.5,-733 60.5,-755 167.5,-755 167.5,-733 60.5,-733"/>
<polygon fill="none" stroke="black" points="60.5,-733 60.5,-755 167.5,-755 167.5,-733 60.5,-733"/>
<text text-anchor="start" x="80.5" y="-741.2" font-family="Helvetica,sans-Serif" font-size="11.00">periodno</text>
<polygon fill="#ffffff" stroke="transparent" points="60.5,-711 60.5,-733 167.5,-733 167.5,-711 60.5,-711"/>
<polygon fill="none" stroke="black" points="60.5,-711 60.5,-733 167.5,-733 167.5,-711 60.5,-711"/>
<image xlink:href="../../images/foreignKeys.png" width="11px" height="12px" preserveAspectRatio="xMinYMin meet" x="65.5" y="-728"/>
<text text-anchor="start" x="80.5" y="-719.2" font-family="Helvetica,sans-Serif" font-size="11.00">c_year_id</text>
<polygon fill="#ffffff" stroke="transparent" points="60.5,-689 60.5,-711 167.5,-711 167.5,-689 60.5,-689"/>
<polygon fill="none" stroke="black" points="60.5,-689 60.5,-711 167.5,-711 167.5,-689 60.5,-689"/>
<text text-anchor="start" x="80.5" y="-697.2" font-family="Helvetica,sans-Serif" font-size="11.00">c_period_uu</text>
<polygon fill="none" stroke="black" points="60.5,-671 60.5,-689 167.5,-689 167.5,-671 60.5,-671"/>
<text text-anchor="start" x="63.5" y="-677.2" font-family="Helvetica,sans-Serif" font-size="11.00">...</text>
<polygon fill="#ffffff" stroke="transparent" points="60.5,-653 60.5,-671 167.5,-671 167.5,-653 60.5,-653"/>
<polygon fill="none" stroke="black" points="60.5,-653 60.5,-671 167.5,-671 167.5,-653 60.5,-653"/>
<polygon fill="#ffffff" stroke="transparent" points="61.5,-654 61.5,-670 85.5,-670 85.5,-654 61.5,-654"/>
<text text-anchor="start" x="63.5" y="-659.2" font-family="Helvetica,sans-Serif" font-size="11.00">&lt; 3</text>
<polygon fill="#ffffff" stroke="transparent" points="85.5,-654 85.5,-670 137.5,-670 137.5,-654 85.5,-654"/>
<text text-anchor="start" x="89" y="-659.2" font-family="Helvetica,sans-Serif" font-size="11.00">192 rows</text>
<polygon fill="#ffffff" stroke="transparent" points="137.5,-654 137.5,-670 166.5,-670 166.5,-654 137.5,-654"/>
<text text-anchor="start" x="142.5" y="-659.2" font-family="Helvetica,sans-Serif" font-size="11.00">19 &gt;</text>
<polygon fill="black" stroke="black" points="85.5,-654 85.5,-670 85.5,-670 85.5,-654 85.5,-654"/>
<polygon fill="black" stroke="black" points="137.5,-654 137.5,-670 137.5,-670 137.5,-654 137.5,-654"/>
</a>
</g>
</g>
<!-- a_asset_split&#45;&gt;c_period -->
<g id="edge2" class="edge">
<title>a_asset_split:w&#45;&gt;c_period:e</title>
<path fill="none" stroke="black" d="M255,-810C221.52,-810 208.13,-810 168.5,-810"/>
<polygon fill="black" stroke="black" points="261.5,-810 269.5,-813.6 265.5,-810 269.5,-810 269.5,-810 269.5,-810 265.5,-810 269.5,-806.4 261.5,-810 261.5,-810"/>
<ellipse fill="none" stroke="black" cx="258.3" cy="-810" rx="3.2" ry="3.2"/>
</g>
</g>
</svg>
