<?xml version="1.0" encoding="UTF-8" standalone="no"?>
<!DOCTYPE svg PUBLIC "-//W3C//DTD SVG 1.1//EN"
 "http://www.w3.org/Graphics/SVG/1.1/DTD/svg11.dtd">
<!-- Generated by graphviz version 2.43.0 (0)
 -->
<!-- Title: oneDegreeRelationshipsDiagram Pages: 1 -->
<svg width="652pt" height="1176pt"
 viewBox="0.00 0.00 652.00 1176.00" xmlns="http://www.w3.org/2000/svg" xmlns:xlink="http://www.w3.org/1999/xlink">
<g id="graph0" class="graph" transform="scale(1 1) rotate(0) translate(4 1172)">
<title>oneDegreeRelationshipsDiagram</title>
<polygon fill="#ffffff" stroke="transparent" points="-4,4 -4,-1172 648,-1172 648,4 -4,4"/>
<text text-anchor="middle" x="71.5" y="-7.2" font-family="Helvetica,sans-Serif" font-size="11.00">Generated by SchemaSpy</text>
<!-- a_asset_acct -->
<g id="node1" class="node">
<title>a_asset_acct</title>
<g id="a_node1"><a xlink:href="../../tables/a_asset_acct.html" xlink:title="a_asset_acct" target="_top">
<polygon fill="#ffffff" stroke="transparent" points="385,-600 385,-1164 636,-1164 636,-600 385,-600"/>
<polygon fill="#f5f5f5" stroke="transparent" points="385.5,-1142 385.5,-1164 636.5,-1164 636.5,-1142 385.5,-1142"/>
<polygon fill="none" stroke="black" points="385.5,-1142 385.5,-1164 636.5,-1164 636.5,-1142 385.5,-1142"/>
<text text-anchor="start" x="390.5" y="-1151.2" font-family="Helvetica,sans-Serif" font-weight="bold" font-size="11.00">a_asset_acct</text>
<text text-anchor="start" x="601.5" y="-1150.2" font-family="Helvetica,sans-Serif" font-size="11.00">[table]</text>
<polygon fill="none" stroke="black" points="385.5,-1120 385.5,-1142 636.5,-1142 636.5,-1120 385.5,-1120"/>
<image xlink:href="../../images/foreignKeys.png" width="11px" height="12px" preserveAspectRatio="xMinYMin meet" x="390.5" y="-1137"/>
<text text-anchor="start" x="405.5" y="-1128.2" font-family="Helvetica,sans-Serif" font-size="11.00">a_asset_id</text>
<polygon fill="none" stroke="black" points="385.5,-1098 385.5,-1120 636.5,-1120 636.5,-1098 385.5,-1098"/>
<image xlink:href="../../images/foreignKeys.png" width="11px" height="12px" preserveAspectRatio="xMinYMin meet" x="390.5" y="-1115"/>
<text text-anchor="start" x="405.5" y="-1106.2" font-family="Helvetica,sans-Serif" font-size="11.00">c_acctschema_id</text>
<polygon fill="none" stroke="black" points="385.5,-1076 385.5,-1098 636.5,-1098 636.5,-1076 385.5,-1076"/>
<image xlink:href="../../images/foreignKeys.png" width="11px" height="12px" preserveAspectRatio="xMinYMin meet" x="390.5" y="-1093"/>
<text text-anchor="start" x="405.5" y="-1084.2" font-family="Helvetica,sans-Serif" font-size="11.00">a_depreciation_id</text>
<polygon fill="none" stroke="black" points="385.5,-1054 385.5,-1076 636.5,-1076 636.5,-1054 385.5,-1054"/>
<image xlink:href="../../images/foreignKeys.png" width="11px" height="12px" preserveAspectRatio="xMinYMin meet" x="390.5" y="-1071"/>
<text text-anchor="start" x="405.5" y="-1062.2" font-family="Helvetica,sans-Serif" font-size="11.00">a_depreciation_acct</text>
<polygon fill="none" stroke="black" points="385.5,-1032 385.5,-1054 636.5,-1054 636.5,-1032 385.5,-1032"/>
<image xlink:href="../../images/foreignKeys.png" width="11px" height="12px" preserveAspectRatio="xMinYMin meet" x="390.5" y="-1049"/>
<text text-anchor="start" x="405.5" y="-1040.2" font-family="Helvetica,sans-Serif" font-size="11.00">a_accumdepreciation_acct</text>
<polygon fill="none" stroke="black" points="385.5,-1010 385.5,-1032 636.5,-1032 636.5,-1010 385.5,-1010"/>
<image xlink:href="../../images/foreignKeys.png" width="11px" height="12px" preserveAspectRatio="xMinYMin meet" x="390.5" y="-1027"/>
<text text-anchor="start" x="405.5" y="-1018.2" font-family="Helvetica,sans-Serif" font-size="11.00">a_asset_acct</text>
<polygon fill="none" stroke="black" points="385.5,-988 385.5,-1010 636.5,-1010 636.5,-988 385.5,-988"/>
<image xlink:href="../../images/primaryKeys.png" width="11px" height="12px" preserveAspectRatio="xMinYMin meet" x="390.5" y="-1005"/>
<text text-anchor="start" x="405.5" y="-996.2" font-family="Helvetica,sans-Serif" font-size="11.00">a_asset_acct_id</text>
<polygon fill="none" stroke="black" points="385.5,-966 385.5,-988 636.5,-988 636.5,-966 385.5,-966"/>
<image xlink:href="../../images/foreignKeys.png" width="11px" height="12px" preserveAspectRatio="xMinYMin meet" x="390.5" y="-983"/>
<text text-anchor="start" x="405.5" y="-974.2" font-family="Helvetica,sans-Serif" font-size="11.00">a_depreciation_table_header_id</text>
<polygon fill="none" stroke="black" points="385.5,-944 385.5,-966 636.5,-966 636.5,-944 385.5,-944"/>
<image xlink:href="../../images/foreignKeys.png" width="11px" height="12px" preserveAspectRatio="xMinYMin meet" x="390.5" y="-961"/>
<text text-anchor="start" x="405.5" y="-952.2" font-family="Helvetica,sans-Serif" font-size="11.00">a_depreciation_method_id</text>
<polygon fill="none" stroke="black" points="385.5,-922 385.5,-944 636.5,-944 636.5,-922 385.5,-922"/>
<image xlink:href="../../images/foreignKeys.png" width="11px" height="12px" preserveAspectRatio="xMinYMin meet" x="390.5" y="-939"/>
<text text-anchor="start" x="405.5" y="-930.2" font-family="Helvetica,sans-Serif" font-size="11.00">a_depreciation_conv_id</text>
<polygon fill="none" stroke="black" points="385.5,-900 385.5,-922 636.5,-922 636.5,-900 385.5,-900"/>
<image xlink:href="../../images/foreignKeys.png" width="11px" height="12px" preserveAspectRatio="xMinYMin meet" x="390.5" y="-917"/>
<text text-anchor="start" x="405.5" y="-908.2" font-family="Helvetica,sans-Serif" font-size="11.00">a_asset_spread_id</text>
<polygon fill="none" stroke="black" points="385.5,-878 385.5,-900 636.5,-900 636.5,-878 385.5,-878"/>
<image xlink:href="../../images/foreignKeys.png" width="11px" height="12px" preserveAspectRatio="xMinYMin meet" x="390.5" y="-895"/>
<text text-anchor="start" x="405.5" y="-886.2" font-family="Helvetica,sans-Serif" font-size="11.00">a_disposal_gain_acct</text>
<polygon fill="none" stroke="black" points="385.5,-856 385.5,-878 636.5,-878 636.5,-856 385.5,-856"/>
<image xlink:href="../../images/foreignKeys.png" width="11px" height="12px" preserveAspectRatio="xMinYMin meet" x="390.5" y="-873"/>
<text text-anchor="start" x="405.5" y="-864.2" font-family="Helvetica,sans-Serif" font-size="11.00">a_reval_cost_offset_prior_acct</text>
<polygon fill="none" stroke="black" points="385.5,-834 385.5,-856 636.5,-856 636.5,-834 385.5,-834"/>
<image xlink:href="../../images/foreignKeys.png" width="11px" height="12px" preserveAspectRatio="xMinYMin meet" x="390.5" y="-851"/>
<text text-anchor="start" x="405.5" y="-842.2" font-family="Helvetica,sans-Serif" font-size="11.00">a_reval_cost_offset_acct</text>
<polygon fill="none" stroke="black" points="385.5,-812 385.5,-834 636.5,-834 636.5,-812 385.5,-812"/>
<image xlink:href="../../images/foreignKeys.png" width="11px" height="12px" preserveAspectRatio="xMinYMin meet" x="390.5" y="-829"/>
<text text-anchor="start" x="405.5" y="-820.2" font-family="Helvetica,sans-Serif" font-size="11.00">a_reval_adep_offset_prior_acct</text>
<polygon fill="none" stroke="black" points="385.5,-790 385.5,-812 636.5,-812 636.5,-790 385.5,-790"/>
<image xlink:href="../../images/foreignKeys.png" width="11px" height="12px" preserveAspectRatio="xMinYMin meet" x="390.5" y="-807"/>
<text text-anchor="start" x="405.5" y="-798.2" font-family="Helvetica,sans-Serif" font-size="11.00">a_reval_adep_offset_cur_acct</text>
<polygon fill="none" stroke="black" points="385.5,-768 385.5,-790 636.5,-790 636.5,-768 385.5,-768"/>
<image xlink:href="../../images/foreignKeys.png" width="11px" height="12px" preserveAspectRatio="xMinYMin meet" x="390.5" y="-785"/>
<text text-anchor="start" x="405.5" y="-776.2" font-family="Helvetica,sans-Serif" font-size="11.00">a_disposal_revenue_acct</text>
<polygon fill="none" stroke="black" points="385.5,-746 385.5,-768 636.5,-768 636.5,-746 385.5,-746"/>
<image xlink:href="../../images/foreignKeys.png" width="11px" height="12px" preserveAspectRatio="xMinYMin meet" x="390.5" y="-763"/>
<text text-anchor="start" x="405.5" y="-754.2" font-family="Helvetica,sans-Serif" font-size="11.00">a_disposal_loss_acct</text>
<polygon fill="none" stroke="black" points="385.5,-724 385.5,-746 636.5,-746 636.5,-724 385.5,-724"/>
<image xlink:href="../../images/foreignKeys.png" width="11px" height="12px" preserveAspectRatio="xMinYMin meet" x="390.5" y="-741"/>
<text text-anchor="start" x="405.5" y="-732.2" font-family="Helvetica,sans-Serif" font-size="11.00">a_reval_depexp_offset_acct</text>
<polygon fill="none" stroke="black" points="385.5,-702 385.5,-724 636.5,-724 636.5,-702 385.5,-702"/>
<image xlink:href="../../images/foreignKeys.png" width="11px" height="12px" preserveAspectRatio="xMinYMin meet" x="390.5" y="-719"/>
<text text-anchor="start" x="405.5" y="-710.2" font-family="Helvetica,sans-Serif" font-size="11.00">a_depreciation_method_f_id</text>
<polygon fill="none" stroke="black" points="385.5,-680 385.5,-702 636.5,-702 636.5,-680 385.5,-680"/>
<image xlink:href="../../images/foreignKeys.png" width="11px" height="12px" preserveAspectRatio="xMinYMin meet" x="390.5" y="-697"/>
<text text-anchor="start" x="405.5" y="-688.2" font-family="Helvetica,sans-Serif" font-size="11.00">a_depreciation_f_id</text>
<polygon fill="none" stroke="black" points="385.5,-658 385.5,-680 636.5,-680 636.5,-658 385.5,-658"/>
<image xlink:href="../../images/foreignKeys.png" width="11px" height="12px" preserveAspectRatio="xMinYMin meet" x="390.5" y="-675"/>
<text text-anchor="start" x="405.5" y="-666.2" font-family="Helvetica,sans-Serif" font-size="11.00">a_depreciation_conv_f_id</text>
<polygon fill="#ffffff" stroke="transparent" points="385.5,-636 385.5,-658 636.5,-658 636.5,-636 385.5,-636"/>
<polygon fill="none" stroke="black" points="385.5,-636 385.5,-658 636.5,-658 636.5,-636 385.5,-636"/>
<text text-anchor="start" x="405.5" y="-644.2" font-family="Helvetica,sans-Serif" font-size="11.00">a_asset_acct_uu</text>
<polygon fill="none" stroke="black" points="385.5,-618 385.5,-636 636.5,-636 636.5,-618 385.5,-618"/>
<text text-anchor="start" x="388.5" y="-624.2" font-family="Helvetica,sans-Serif" font-size="11.00">...</text>
<polygon fill="#ffffff" stroke="transparent" points="385.5,-600 385.5,-618 636.5,-618 636.5,-600 385.5,-600"/>
<polygon fill="none" stroke="black" points="385.5,-600 385.5,-618 636.5,-618 636.5,-600 385.5,-600"/>
<polygon fill="#ffffff" stroke="transparent" points="386.5,-601 386.5,-617 479.5,-617 479.5,-601 386.5,-601"/>
<text text-anchor="start" x="388.5" y="-606.2" font-family="Helvetica,sans-Serif" font-size="11.00">&lt; 21</text>
<polygon fill="#ffffff" stroke="transparent" points="479.5,-601 479.5,-617 557.5,-617 557.5,-601 479.5,-601"/>
<text text-anchor="start" x="515" y="-606.2" font-family="Helvetica,sans-Serif" font-size="11.00"> &#160;</text>
<polygon fill="#ffffff" stroke="transparent" points="557.5,-601 557.5,-617 635.5,-617 635.5,-601 557.5,-601"/>
<text text-anchor="start" x="626.5" y="-606.2" font-family="Helvetica,sans-Serif" font-size="11.00"> &#160;</text>
<polygon fill="black" stroke="black" points="479.5,-601 479.5,-617 479.5,-617 479.5,-601 479.5,-601"/>
<polygon fill="black" stroke="black" points="557.5,-601 557.5,-617 557.5,-617 557.5,-601 557.5,-601"/>
</a>
</g>
</g>
<!-- a_depreciation_convention -->
<g id="node2" class="node">
<title>a_depreciation_convention</title>
<g id="a_node2"><a xlink:href="../../tables/a_depreciation_convention.html" xlink:title="a_depreciation_convention" target="_top">
<polygon fill="#ffffff" stroke="transparent" points="8,-104 8,-478 336,-478 336,-104 8,-104"/>
<polygon fill="#f5f5f5" stroke="transparent" points="10,-454 10,-476 334,-476 334,-454 10,-454"/>
<polygon fill="none" stroke="black" points="10,-454 10,-476 334,-476 334,-454 10,-454"/>
<text text-anchor="start" x="15" y="-463.2" font-family="Helvetica,sans-Serif" font-weight="bold" font-size="11.00">a_depreciation_convention</text>
<text text-anchor="start" x="299" y="-462.2" font-family="Helvetica,sans-Serif" font-size="11.00">[table]</text>
<polygon fill="none" stroke="black" points="10,-432 10,-454 251,-454 251,-432 10,-432"/>
<image xlink:href="../../images/primaryKeys.png" width="11px" height="12px" preserveAspectRatio="xMinYMin meet" x="15" y="-449"/>
<text text-anchor="start" x="30" y="-440.2" font-family="Helvetica,sans-Serif" font-size="11.00">a_depreciation_convention_id</text>
<polygon fill="none" stroke="black" points="251,-432 251,-454 334,-454 334,-432 251,-432"/>
<text text-anchor="start" x="254" y="-440.2" font-family="Helvetica,sans-Serif" font-size="11.00">numeric[10]</text>
<polygon fill="none" stroke="black" points="10,-410 10,-432 251,-432 251,-410 10,-410"/>
<text text-anchor="start" x="30" y="-418.2" font-family="Helvetica,sans-Serif" font-size="11.00">description</text>
<polygon fill="none" stroke="black" points="251,-410 251,-432 334,-432 334,-410 251,-410"/>
<text text-anchor="start" x="254" y="-418.2" font-family="Helvetica,sans-Serif" font-size="11.00">varchar[510]</text>
<polygon fill="none" stroke="black" points="10,-388 10,-410 251,-410 251,-388 10,-388"/>
<text text-anchor="start" x="30" y="-396.2" font-family="Helvetica,sans-Serif" font-size="11.00">ad_client_id</text>
<polygon fill="none" stroke="black" points="251,-388 251,-410 334,-410 334,-388 251,-388"/>
<text text-anchor="start" x="254" y="-396.2" font-family="Helvetica,sans-Serif" font-size="11.00">numeric[10]</text>
<polygon fill="none" stroke="black" points="10,-366 10,-388 251,-388 251,-366 10,-366"/>
<text text-anchor="start" x="30" y="-374.2" font-family="Helvetica,sans-Serif" font-size="11.00">conventiontype</text>
<polygon fill="none" stroke="black" points="251,-366 251,-388 334,-388 334,-366 251,-366"/>
<text text-anchor="start" x="254" y="-374.2" font-family="Helvetica,sans-Serif" font-size="11.00">varchar[10]</text>
<polygon fill="none" stroke="black" points="10,-344 10,-366 251,-366 251,-344 10,-344"/>
<text text-anchor="start" x="30" y="-352.2" font-family="Helvetica,sans-Serif" font-size="11.00">createdby</text>
<polygon fill="none" stroke="black" points="251,-344 251,-366 334,-366 334,-344 251,-344"/>
<text text-anchor="start" x="254" y="-352.2" font-family="Helvetica,sans-Serif" font-size="11.00">numeric[10]</text>
<polygon fill="none" stroke="black" points="10,-322 10,-344 251,-344 251,-322 10,-322"/>
<text text-anchor="start" x="30" y="-330.2" font-family="Helvetica,sans-Serif" font-size="11.00">isactive</text>
<polygon fill="none" stroke="black" points="251,-322 251,-344 334,-344 334,-322 251,-322"/>
<text text-anchor="start" x="254" y="-330.2" font-family="Helvetica,sans-Serif" font-size="11.00">bpchar[1]</text>
<polygon fill="none" stroke="black" points="10,-300 10,-322 251,-322 251,-300 10,-300"/>
<text text-anchor="start" x="30" y="-308.2" font-family="Helvetica,sans-Serif" font-size="11.00">processed</text>
<polygon fill="none" stroke="black" points="251,-300 251,-322 334,-322 334,-300 251,-300"/>
<text text-anchor="start" x="254" y="-308.2" font-family="Helvetica,sans-Serif" font-size="11.00">bpchar[1]</text>
<polygon fill="none" stroke="black" points="10,-278 10,-300 251,-300 251,-278 10,-278"/>
<text text-anchor="start" x="30" y="-286.2" font-family="Helvetica,sans-Serif" font-size="11.00">updated</text>
<polygon fill="none" stroke="black" points="251,-278 251,-300 334,-300 334,-278 251,-278"/>
<text text-anchor="start" x="254" y="-286.2" font-family="Helvetica,sans-Serif" font-size="11.00">timestamp[29,6]</text>
<polygon fill="none" stroke="black" points="10,-256 10,-278 251,-278 251,-256 10,-256"/>
<text text-anchor="start" x="30" y="-264.2" font-family="Helvetica,sans-Serif" font-size="11.00">updatedby</text>
<polygon fill="none" stroke="black" points="251,-256 251,-278 334,-278 334,-256 251,-256"/>
<text text-anchor="start" x="254" y="-264.2" font-family="Helvetica,sans-Serif" font-size="11.00">numeric[10]</text>
<polygon fill="none" stroke="black" points="10,-234 10,-256 251,-256 251,-234 10,-234"/>
<text text-anchor="start" x="30" y="-242.2" font-family="Helvetica,sans-Serif" font-size="11.00">textmsg</text>
<polygon fill="none" stroke="black" points="251,-234 251,-256 334,-256 334,-234 251,-234"/>
<text text-anchor="start" x="254" y="-242.2" font-family="Helvetica,sans-Serif" font-size="11.00">varchar[2000]</text>
<polygon fill="none" stroke="black" points="10,-212 10,-234 251,-234 251,-212 10,-212"/>
<text text-anchor="start" x="30" y="-220.2" font-family="Helvetica,sans-Serif" font-size="11.00">name</text>
<polygon fill="none" stroke="black" points="251,-212 251,-234 334,-234 334,-212 251,-212"/>
<text text-anchor="start" x="254" y="-220.2" font-family="Helvetica,sans-Serif" font-size="11.00">varchar[120]</text>
<polygon fill="none" stroke="black" points="10,-190 10,-212 251,-212 251,-190 10,-190"/>
<text text-anchor="start" x="30" y="-198.2" font-family="Helvetica,sans-Serif" font-size="11.00">created</text>
<polygon fill="none" stroke="black" points="251,-190 251,-212 334,-212 334,-190 251,-190"/>
<text text-anchor="start" x="254" y="-198.2" font-family="Helvetica,sans-Serif" font-size="11.00">timestamp[29,6]</text>
<polygon fill="none" stroke="black" points="10,-168 10,-190 251,-190 251,-168 10,-168"/>
<text text-anchor="start" x="30" y="-176.2" font-family="Helvetica,sans-Serif" font-size="11.00">ad_org_id</text>
<polygon fill="none" stroke="black" points="251,-168 251,-190 334,-190 334,-168 251,-168"/>
<text text-anchor="start" x="254" y="-176.2" font-family="Helvetica,sans-Serif" font-size="11.00">numeric[10]</text>
<polygon fill="none" stroke="black" points="10,-146 10,-168 251,-168 251,-146 10,-146"/>
<text text-anchor="start" x="30" y="-154.2" font-family="Helvetica,sans-Serif" font-size="11.00">processing</text>
<polygon fill="none" stroke="black" points="251,-146 251,-168 334,-168 334,-146 251,-146"/>
<text text-anchor="start" x="254" y="-154.2" font-family="Helvetica,sans-Serif" font-size="11.00">bpchar[1]</text>
<polygon fill="#ffffff" stroke="transparent" points="10,-124 10,-146 251,-146 251,-124 10,-124"/>
<polygon fill="none" stroke="black" points="10,-124 10,-146 251,-146 251,-124 10,-124"/>
<text text-anchor="start" x="30" y="-132.2" font-family="Helvetica,sans-Serif" font-size="11.00">a_depreciation_convention_uu</text>
<polygon fill="none" stroke="black" points="251,-124 251,-146 334,-146 334,-124 251,-124"/>
<text text-anchor="start" x="254" y="-132.2" font-family="Helvetica,sans-Serif" font-size="11.00">varchar[36]</text>
<polygon fill="#ffffff" stroke="transparent" points="10,-106 10,-124 334,-124 334,-106 10,-106"/>
<polygon fill="none" stroke="black" points="10,-106 10,-124 334,-124 334,-106 10,-106"/>
<polygon fill="#ffffff" stroke="transparent" points="11,-107 11,-123 122,-123 122,-107 11,-107"/>
<text text-anchor="start" x="13" y="-112.2" font-family="Helvetica,sans-Serif" font-size="11.00">&lt; 0</text>
<polygon fill="#ffffff" stroke="transparent" points="122,-107 122,-123 223,-123 223,-107 122,-107"/>
<text text-anchor="start" x="169" y="-112.2" font-family="Helvetica,sans-Serif" font-size="11.00"> &#160;</text>
<polygon fill="#ffffff" stroke="transparent" points="223,-107 223,-123 333,-123 333,-107 223,-107"/>
<text text-anchor="start" x="315" y="-112.2" font-family="Helvetica,sans-Serif" font-size="11.00">4 &gt;</text>
<polygon fill="black" stroke="black" points="122,-107 122,-123 122,-123 122,-107 122,-107"/>
<polygon fill="black" stroke="black" points="223,-107 223,-123 223,-123 223,-107 223,-107"/>
<polygon fill="none" stroke="black" stroke-width="2" points="9,-105 9,-477 335,-477 335,-105 9,-105"/>
</a>
</g>
</g>
<!-- a_asset_acct&#45;&gt;a_depreciation_convention -->
<g id="edge1" class="edge">
<title>a_asset_acct:w&#45;&gt;a_depreciation_convention:e</title>
<path fill="none" stroke="black" d="M369.87,-667.05C297.98,-644.96 432.2,-443 335,-443"/>
<polygon fill="black" stroke="black" points="376.57,-667.94 384.02,-672.57 380.54,-668.47 384.5,-669 384.5,-669 384.5,-669 380.54,-668.47 384.98,-665.43 376.57,-667.94 376.57,-667.94"/>
<ellipse fill="none" stroke="black" cx="373.4" cy="-667.52" rx="3.2" ry="3.2"/>
</g>
<!-- a_asset_acct&#45;&gt;a_depreciation_convention -->
<g id="edge2" class="edge">
<title>a_asset_acct:w&#45;&gt;a_depreciation_convention:e</title>
<path fill="none" stroke="black" d="M370.4,-929.61C290.93,-886.32 439.1,-443 335,-443"/>
<polygon fill="black" stroke="black" points="376.72,-931.13 383.66,-936.5 380.61,-932.06 384.5,-933 384.5,-933 384.5,-933 380.61,-932.06 385.34,-929.5 376.72,-931.13 376.72,-931.13"/>
<ellipse fill="none" stroke="black" cx="373.61" cy="-930.38" rx="3.2" ry="3.2"/>
</g>
<!-- a_asset_group_acct -->
<g id="node3" class="node">
<title>a_asset_group_acct</title>
<g id="a_node3"><a xlink:href="../../tables/a_asset_group_acct.html" xlink:title="a_asset_group_acct" target="_top">
<polygon fill="#ffffff" stroke="transparent" points="385,-37 385,-579 636,-579 636,-37 385,-37"/>
<polygon fill="#f5f5f5" stroke="transparent" points="385.5,-557 385.5,-579 636.5,-579 636.5,-557 385.5,-557"/>
<polygon fill="none" stroke="black" points="385.5,-557 385.5,-579 636.5,-579 636.5,-557 385.5,-557"/>
<text text-anchor="start" x="390.5" y="-566.2" font-family="Helvetica,sans-Serif" font-weight="bold" font-size="11.00">a_asset_group_acct</text>
<text text-anchor="start" x="601.5" y="-565.2" font-family="Helvetica,sans-Serif" font-size="11.00">[table]</text>
<polygon fill="none" stroke="black" points="385.5,-535 385.5,-557 636.5,-557 636.5,-535 385.5,-535"/>
<image xlink:href="../../images/foreignKeys.png" width="11px" height="12px" preserveAspectRatio="xMinYMin meet" x="390.5" y="-552"/>
<text text-anchor="start" x="405.5" y="-543.2" font-family="Helvetica,sans-Serif" font-size="11.00">a_asset_group_id</text>
<polygon fill="none" stroke="black" points="385.5,-513 385.5,-535 636.5,-535 636.5,-513 385.5,-513"/>
<image xlink:href="../../images/foreignKeys.png" width="11px" height="12px" preserveAspectRatio="xMinYMin meet" x="390.5" y="-530"/>
<text text-anchor="start" x="405.5" y="-521.2" font-family="Helvetica,sans-Serif" font-size="11.00">c_acctschema_id</text>
<polygon fill="none" stroke="black" points="385.5,-491 385.5,-513 636.5,-513 636.5,-491 385.5,-491"/>
<image xlink:href="../../images/foreignKeys.png" width="11px" height="12px" preserveAspectRatio="xMinYMin meet" x="390.5" y="-508"/>
<text text-anchor="start" x="405.5" y="-499.2" font-family="Helvetica,sans-Serif" font-size="11.00">a_asset_acct</text>
<polygon fill="none" stroke="black" points="385.5,-469 385.5,-491 636.5,-491 636.5,-469 385.5,-469"/>
<image xlink:href="../../images/foreignKeys.png" width="11px" height="12px" preserveAspectRatio="xMinYMin meet" x="390.5" y="-486"/>
<text text-anchor="start" x="405.5" y="-477.2" font-family="Helvetica,sans-Serif" font-size="11.00">a_depreciation_acct</text>
<polygon fill="none" stroke="black" points="385.5,-447 385.5,-469 636.5,-469 636.5,-447 385.5,-447"/>
<image xlink:href="../../images/foreignKeys.png" width="11px" height="12px" preserveAspectRatio="xMinYMin meet" x="390.5" y="-464"/>
<text text-anchor="start" x="405.5" y="-455.2" font-family="Helvetica,sans-Serif" font-size="11.00">a_accumdepreciation_acct</text>
<polygon fill="none" stroke="black" points="385.5,-425 385.5,-447 636.5,-447 636.5,-425 385.5,-425"/>
<image xlink:href="../../images/foreignKeys.png" width="11px" height="12px" preserveAspectRatio="xMinYMin meet" x="390.5" y="-442"/>
<text text-anchor="start" x="405.5" y="-433.2" font-family="Helvetica,sans-Serif" font-size="11.00">a_depreciation_id</text>
<polygon fill="none" stroke="black" points="385.5,-403 385.5,-425 636.5,-425 636.5,-403 385.5,-403"/>
<image xlink:href="../../images/primaryKeys.png" width="11px" height="12px" preserveAspectRatio="xMinYMin meet" x="390.5" y="-420"/>
<text text-anchor="start" x="405.5" y="-411.2" font-family="Helvetica,sans-Serif" font-size="11.00">a_asset_group_acct_id</text>
<polygon fill="none" stroke="black" points="385.5,-381 385.5,-403 636.5,-403 636.5,-381 385.5,-381"/>
<image xlink:href="../../images/foreignKeys.png" width="11px" height="12px" preserveAspectRatio="xMinYMin meet" x="390.5" y="-398"/>
<text text-anchor="start" x="405.5" y="-389.2" font-family="Helvetica,sans-Serif" font-size="11.00">a_depreciation_table_header_id</text>
<polygon fill="none" stroke="black" points="385.5,-359 385.5,-381 636.5,-381 636.5,-359 385.5,-359"/>
<image xlink:href="../../images/foreignKeys.png" width="11px" height="12px" preserveAspectRatio="xMinYMin meet" x="390.5" y="-376"/>
<text text-anchor="start" x="405.5" y="-367.2" font-family="Helvetica,sans-Serif" font-size="11.00">a_reval_depexp_offset_acct</text>
<polygon fill="none" stroke="black" points="385.5,-337 385.5,-359 636.5,-359 636.5,-337 385.5,-337"/>
<image xlink:href="../../images/foreignKeys.png" width="11px" height="12px" preserveAspectRatio="xMinYMin meet" x="390.5" y="-354"/>
<text text-anchor="start" x="405.5" y="-345.2" font-family="Helvetica,sans-Serif" font-size="11.00">a_reval_cost_offset_prior_acct</text>
<polygon fill="none" stroke="black" points="385.5,-315 385.5,-337 636.5,-337 636.5,-315 385.5,-315"/>
<image xlink:href="../../images/foreignKeys.png" width="11px" height="12px" preserveAspectRatio="xMinYMin meet" x="390.5" y="-332"/>
<text text-anchor="start" x="405.5" y="-323.2" font-family="Helvetica,sans-Serif" font-size="11.00">a_reval_cost_offset_acct</text>
<polygon fill="none" stroke="black" points="385.5,-293 385.5,-315 636.5,-315 636.5,-293 385.5,-293"/>
<image xlink:href="../../images/foreignKeys.png" width="11px" height="12px" preserveAspectRatio="xMinYMin meet" x="390.5" y="-310"/>
<text text-anchor="start" x="405.5" y="-301.2" font-family="Helvetica,sans-Serif" font-size="11.00">a_reval_adep_offset_prior_acct</text>
<polygon fill="none" stroke="black" points="385.5,-271 385.5,-293 636.5,-293 636.5,-271 385.5,-271"/>
<image xlink:href="../../images/foreignKeys.png" width="11px" height="12px" preserveAspectRatio="xMinYMin meet" x="390.5" y="-288"/>
<text text-anchor="start" x="405.5" y="-279.2" font-family="Helvetica,sans-Serif" font-size="11.00">a_reval_adep_offset_cur_acct</text>
<polygon fill="none" stroke="black" points="385.5,-249 385.5,-271 636.5,-271 636.5,-249 385.5,-249"/>
<image xlink:href="../../images/foreignKeys.png" width="11px" height="12px" preserveAspectRatio="xMinYMin meet" x="390.5" y="-266"/>
<text text-anchor="start" x="405.5" y="-257.2" font-family="Helvetica,sans-Serif" font-size="11.00">a_disposal_gain_acct</text>
<polygon fill="none" stroke="black" points="385.5,-227 385.5,-249 636.5,-249 636.5,-227 385.5,-227"/>
<image xlink:href="../../images/foreignKeys.png" width="11px" height="12px" preserveAspectRatio="xMinYMin meet" x="390.5" y="-244"/>
<text text-anchor="start" x="405.5" y="-235.2" font-family="Helvetica,sans-Serif" font-size="11.00">a_depreciation_method_id</text>
<polygon fill="none" stroke="black" points="385.5,-205 385.5,-227 636.5,-227 636.5,-205 385.5,-205"/>
<image xlink:href="../../images/foreignKeys.png" width="11px" height="12px" preserveAspectRatio="xMinYMin meet" x="390.5" y="-222"/>
<text text-anchor="start" x="405.5" y="-213.2" font-family="Helvetica,sans-Serif" font-size="11.00">a_depreciation_conv_f_id</text>
<polygon fill="none" stroke="black" points="385.5,-183 385.5,-205 636.5,-205 636.5,-183 385.5,-183"/>
<image xlink:href="../../images/foreignKeys.png" width="11px" height="12px" preserveAspectRatio="xMinYMin meet" x="390.5" y="-200"/>
<text text-anchor="start" x="405.5" y="-191.2" font-family="Helvetica,sans-Serif" font-size="11.00">a_depreciation_conv_id</text>
<polygon fill="none" stroke="black" points="385.5,-161 385.5,-183 636.5,-183 636.5,-161 385.5,-161"/>
<image xlink:href="../../images/foreignKeys.png" width="11px" height="12px" preserveAspectRatio="xMinYMin meet" x="390.5" y="-178"/>
<text text-anchor="start" x="405.5" y="-169.2" font-family="Helvetica,sans-Serif" font-size="11.00">a_depreciation_method_f_id</text>
<polygon fill="none" stroke="black" points="385.5,-139 385.5,-161 636.5,-161 636.5,-139 385.5,-139"/>
<image xlink:href="../../images/foreignKeys.png" width="11px" height="12px" preserveAspectRatio="xMinYMin meet" x="390.5" y="-156"/>
<text text-anchor="start" x="405.5" y="-147.2" font-family="Helvetica,sans-Serif" font-size="11.00">a_depreciation_f_id</text>
<polygon fill="none" stroke="black" points="385.5,-117 385.5,-139 636.5,-139 636.5,-117 385.5,-117"/>
<image xlink:href="../../images/foreignKeys.png" width="11px" height="12px" preserveAspectRatio="xMinYMin meet" x="390.5" y="-134"/>
<text text-anchor="start" x="405.5" y="-125.2" font-family="Helvetica,sans-Serif" font-size="11.00">a_disposal_revenue_acct</text>
<polygon fill="none" stroke="black" points="385.5,-95 385.5,-117 636.5,-117 636.5,-95 385.5,-95"/>
<image xlink:href="../../images/foreignKeys.png" width="11px" height="12px" preserveAspectRatio="xMinYMin meet" x="390.5" y="-112"/>
<text text-anchor="start" x="405.5" y="-103.2" font-family="Helvetica,sans-Serif" font-size="11.00">a_disposal_loss_acct</text>
<polygon fill="#ffffff" stroke="transparent" points="385.5,-73 385.5,-95 636.5,-95 636.5,-73 385.5,-73"/>
<polygon fill="none" stroke="black" points="385.5,-73 385.5,-95 636.5,-95 636.5,-73 385.5,-73"/>
<text text-anchor="start" x="405.5" y="-81.2" font-family="Helvetica,sans-Serif" font-size="11.00">a_asset_group_acct_uu</text>
<polygon fill="none" stroke="black" points="385.5,-55 385.5,-73 636.5,-73 636.5,-55 385.5,-55"/>
<text text-anchor="start" x="388.5" y="-61.2" font-family="Helvetica,sans-Serif" font-size="11.00">...</text>
<polygon fill="#ffffff" stroke="transparent" points="385.5,-37 385.5,-55 636.5,-55 636.5,-37 385.5,-37"/>
<polygon fill="none" stroke="black" points="385.5,-37 385.5,-55 636.5,-55 636.5,-37 385.5,-37"/>
<polygon fill="#ffffff" stroke="transparent" points="386.5,-38 386.5,-54 479.5,-54 479.5,-38 386.5,-38"/>
<text text-anchor="start" x="388.5" y="-43.2" font-family="Helvetica,sans-Serif" font-size="11.00">&lt; 20</text>
<polygon fill="#ffffff" stroke="transparent" points="479.5,-38 479.5,-54 557.5,-54 557.5,-38 479.5,-38"/>
<text text-anchor="start" x="515" y="-43.2" font-family="Helvetica,sans-Serif" font-size="11.00"> &#160;</text>
<polygon fill="#ffffff" stroke="transparent" points="557.5,-38 557.5,-54 635.5,-54 635.5,-38 557.5,-38"/>
<text text-anchor="start" x="626.5" y="-43.2" font-family="Helvetica,sans-Serif" font-size="11.00"> &#160;</text>
<polygon fill="black" stroke="black" points="479.5,-38 479.5,-54 479.5,-54 479.5,-38 479.5,-38"/>
<polygon fill="black" stroke="black" points="557.5,-38 557.5,-54 557.5,-54 557.5,-38 557.5,-38"/>
</a>
</g>
</g>
<!-- a_asset_group_acct&#45;&gt;a_depreciation_convention -->
<g id="edge3" class="edge">
<title>a_asset_group_acct:w&#45;&gt;a_depreciation_convention:e</title>
<path fill="none" stroke="black" d="M369.81,-217.96C297.64,-240.15 432.61,-443 335,-443"/>
<polygon fill="black" stroke="black" points="376.57,-217.06 384.98,-219.57 380.54,-216.53 384.5,-216 384.5,-216 384.5,-216 380.54,-216.53 384.02,-212.43 376.57,-217.06 376.57,-217.06"/>
<ellipse fill="none" stroke="black" cx="373.4" cy="-217.48" rx="3.2" ry="3.2"/>
</g>
<!-- a_asset_group_acct&#45;&gt;a_depreciation_convention -->
<g id="edge4" class="edge">
<title>a_asset_group_acct:w&#45;&gt;a_depreciation_convention:e</title>
<path fill="none" stroke="black" d="M369.97,-195.72C288.18,-217.72 442.32,-443 335,-443"/>
<polygon fill="black" stroke="black" points="376.56,-194.94 384.92,-197.57 380.53,-194.47 384.5,-194 384.5,-194 384.5,-194 380.53,-194.47 384.08,-190.43 376.56,-194.94 376.56,-194.94"/>
<ellipse fill="none" stroke="black" cx="373.38" cy="-195.32" rx="3.2" ry="3.2"/>
</g>
</g>
</svg>
