<?xml version="1.0" encoding="UTF-8" standalone="no"?>
<!DOCTYPE svg PUBLIC "-//W3C//DTD SVG 1.1//EN"
 "http://www.w3.org/Graphics/SVG/1.1/DTD/svg11.dtd">
<!-- Generated by graphviz version 2.43.0 (0)
 -->
<!-- Title: oneDegreeRelationshipsDiagram Pages: 1 -->
<svg width="921pt" height="547pt"
 viewBox="0.00 0.00 921.00 547.00" xmlns="http://www.w3.org/2000/svg" xmlns:xlink="http://www.w3.org/1999/xlink">
<g id="graph0" class="graph" transform="scale(1 1) rotate(0) translate(4 543)">
<title>oneDegreeRelationshipsDiagram</title>
<polygon fill="#ffffff" stroke="transparent" points="-4,4 -4,-543 917,-543 917,4 -4,4"/>
<text text-anchor="middle" x="71.5" y="-7.2" font-family="Helvetica,sans-Serif" font-size="11.00">Generated by SchemaSpy</text>
<!-- ad_authorizationaccount -->
<g id="node1" class="node">
<title>ad_authorizationaccount</title>
<g id="a_node1"><a xlink:href="../../tables/ad_authorizationaccount.html" xlink:title="ad_authorizationaccount" target="_top">
<polygon fill="#ffffff" stroke="transparent" points="667,-389 667,-535 905,-535 905,-389 667,-389"/>
<polygon fill="#f5f5f5" stroke="transparent" points="667,-513 667,-535 905,-535 905,-513 667,-513"/>
<polygon fill="none" stroke="black" points="667,-513 667,-535 905,-535 905,-513 667,-513"/>
<text text-anchor="start" x="672" y="-522.2" font-family="Helvetica,sans-Serif" font-weight="bold" font-size="11.00">ad_authorizationaccount</text>
<text text-anchor="start" x="870" y="-521.2" font-family="Helvetica,sans-Serif" font-size="11.00">[table]</text>
<polygon fill="none" stroke="black" points="667,-491 667,-513 905,-513 905,-491 667,-491"/>
<image xlink:href="../../images/primaryKeys.png" width="11px" height="12px" preserveAspectRatio="xMinYMin meet" x="672" y="-508"/>
<text text-anchor="start" x="687" y="-499.2" font-family="Helvetica,sans-Serif" font-size="11.00">ad_authorizationaccount_id</text>
<polygon fill="#ffffff" stroke="transparent" points="667,-469 667,-491 905,-491 905,-469 667,-469"/>
<polygon fill="none" stroke="black" points="667,-469 667,-491 905,-491 905,-469 667,-469"/>
<text text-anchor="start" x="687" y="-477.2" font-family="Helvetica,sans-Serif" font-size="11.00">ad_authorizationaccount_uu</text>
<polygon fill="none" stroke="black" points="667,-447 667,-469 905,-469 905,-447 667,-447"/>
<image xlink:href="../../images/foreignKeys.png" width="11px" height="12px" preserveAspectRatio="xMinYMin meet" x="672" y="-464"/>
<text text-anchor="start" x="687" y="-455.2" font-family="Helvetica,sans-Serif" font-size="11.00">ad_authorizationcredential_id</text>
<polygon fill="none" stroke="black" points="667,-425 667,-447 905,-447 905,-425 667,-425"/>
<image xlink:href="../../images/foreignKeys.png" width="11px" height="12px" preserveAspectRatio="xMinYMin meet" x="672" y="-442"/>
<text text-anchor="start" x="687" y="-433.2" font-family="Helvetica,sans-Serif" font-size="11.00">ad_user_id</text>
<polygon fill="none" stroke="black" points="667,-407 667,-425 905,-425 905,-407 667,-407"/>
<text text-anchor="start" x="670" y="-413.2" font-family="Helvetica,sans-Serif" font-size="11.00">...</text>
<polygon fill="#ffffff" stroke="transparent" points="667,-389 667,-407 905,-407 905,-389 667,-389"/>
<polygon fill="none" stroke="black" points="667,-389 667,-407 905,-407 905,-389 667,-389"/>
<polygon fill="#ffffff" stroke="transparent" points="668,-390 668,-406 750,-406 750,-390 668,-390"/>
<text text-anchor="start" x="670" y="-395.2" font-family="Helvetica,sans-Serif" font-size="11.00">&lt; 2</text>
<polygon fill="#ffffff" stroke="transparent" points="750,-390 750,-406 823,-406 823,-390 750,-390"/>
<text text-anchor="start" x="783" y="-395.2" font-family="Helvetica,sans-Serif" font-size="11.00"> &#160;</text>
<polygon fill="#ffffff" stroke="transparent" points="823,-390 823,-406 904,-406 904,-390 823,-390"/>
<text text-anchor="start" x="886" y="-395.2" font-family="Helvetica,sans-Serif" font-size="11.00">1 &gt;</text>
<polygon fill="black" stroke="black" points="750,-390 750,-406 750,-406 750,-390 750,-390"/>
<polygon fill="black" stroke="black" points="823,-390 823,-406 823,-406 823,-390 823,-390"/>
</a>
</g>
</g>
<!-- ad_authorizationcredential -->
<g id="node2" class="node">
<title>ad_authorizationcredential</title>
<g id="a_node2"><a xlink:href="../../tables/ad_authorizationcredential.html" xlink:title="ad_authorizationcredential" target="_top">
<polygon fill="#ffffff" stroke="transparent" points="288,-97 288,-493 618,-493 618,-97 288,-97"/>
<polygon fill="#f5f5f5" stroke="transparent" points="290,-469 290,-491 616,-491 616,-469 290,-469"/>
<polygon fill="none" stroke="black" points="290,-469 290,-491 616,-491 616,-469 290,-469"/>
<text text-anchor="start" x="295" y="-478.2" font-family="Helvetica,sans-Serif" font-weight="bold" font-size="11.00">ad_authorizationcredential</text>
<text text-anchor="start" x="581" y="-477.2" font-family="Helvetica,sans-Serif" font-size="11.00">[table]</text>
<polygon fill="none" stroke="black" points="290,-447 290,-469 533,-469 533,-447 290,-447"/>
<image xlink:href="../../images/primaryKeys.png" width="11px" height="12px" preserveAspectRatio="xMinYMin meet" x="295" y="-464"/>
<text text-anchor="start" x="310" y="-455.2" font-family="Helvetica,sans-Serif" font-size="11.00">ad_authorizationcredential_id</text>
<polygon fill="none" stroke="black" points="533,-447 533,-469 616,-469 616,-447 533,-447"/>
<text text-anchor="start" x="536" y="-455.2" font-family="Helvetica,sans-Serif" font-size="11.00">numeric[10]</text>
<polygon fill="#ffffff" stroke="transparent" points="290,-425 290,-447 533,-447 533,-425 290,-425"/>
<polygon fill="none" stroke="black" points="290,-425 290,-447 533,-447 533,-425 290,-425"/>
<text text-anchor="start" x="310" y="-433.2" font-family="Helvetica,sans-Serif" font-size="11.00">ad_client_id</text>
<polygon fill="none" stroke="black" points="533,-425 533,-447 616,-447 616,-425 533,-425"/>
<text text-anchor="start" x="536" y="-433.2" font-family="Helvetica,sans-Serif" font-size="11.00">numeric[10]</text>
<polygon fill="none" stroke="black" points="290,-403 290,-425 533,-425 533,-403 290,-403"/>
<text text-anchor="start" x="310" y="-411.2" font-family="Helvetica,sans-Serif" font-size="11.00">ad_org_id</text>
<polygon fill="none" stroke="black" points="533,-403 533,-425 616,-425 616,-403 533,-403"/>
<text text-anchor="start" x="536" y="-411.2" font-family="Helvetica,sans-Serif" font-size="11.00">numeric[10]</text>
<polygon fill="none" stroke="black" points="290,-381 290,-403 533,-403 533,-381 290,-381"/>
<text text-anchor="start" x="310" y="-389.2" font-family="Helvetica,sans-Serif" font-size="11.00">created</text>
<polygon fill="none" stroke="black" points="533,-381 533,-403 616,-403 616,-381 533,-381"/>
<text text-anchor="start" x="536" y="-389.2" font-family="Helvetica,sans-Serif" font-size="11.00">timestamp[29,6]</text>
<polygon fill="none" stroke="black" points="290,-359 290,-381 533,-381 533,-359 290,-359"/>
<text text-anchor="start" x="310" y="-367.2" font-family="Helvetica,sans-Serif" font-size="11.00">createdby</text>
<polygon fill="none" stroke="black" points="533,-359 533,-381 616,-381 616,-359 533,-359"/>
<text text-anchor="start" x="536" y="-367.2" font-family="Helvetica,sans-Serif" font-size="11.00">numeric[10]</text>
<polygon fill="none" stroke="black" points="290,-337 290,-359 533,-359 533,-337 290,-337"/>
<text text-anchor="start" x="310" y="-345.2" font-family="Helvetica,sans-Serif" font-size="11.00">help</text>
<polygon fill="none" stroke="black" points="533,-337 533,-359 616,-359 616,-337 533,-337"/>
<text text-anchor="start" x="536" y="-345.2" font-family="Helvetica,sans-Serif" font-size="11.00">varchar[2000]</text>
<polygon fill="none" stroke="black" points="290,-315 290,-337 533,-337 533,-315 290,-315"/>
<text text-anchor="start" x="310" y="-323.2" font-family="Helvetica,sans-Serif" font-size="11.00">isactive</text>
<polygon fill="none" stroke="black" points="533,-315 533,-337 616,-337 616,-315 533,-315"/>
<text text-anchor="start" x="536" y="-323.2" font-family="Helvetica,sans-Serif" font-size="11.00">bpchar[1]</text>
<polygon fill="#ffffff" stroke="transparent" points="290,-293 290,-315 533,-315 533,-293 290,-293"/>
<polygon fill="none" stroke="black" points="290,-293 290,-315 533,-315 533,-293 290,-293"/>
<text text-anchor="start" x="310" y="-301.2" font-family="Helvetica,sans-Serif" font-size="11.00">ad_authorizationcredential_uu</text>
<polygon fill="none" stroke="black" points="533,-293 533,-315 616,-315 616,-293 533,-293"/>
<text text-anchor="start" x="536" y="-301.2" font-family="Helvetica,sans-Serif" font-size="11.00">varchar[36]</text>
<polygon fill="#ffffff" stroke="transparent" points="290,-271 290,-293 533,-293 533,-271 290,-271"/>
<polygon fill="none" stroke="black" points="290,-271 290,-293 533,-293 533,-271 290,-271"/>
<text text-anchor="start" x="310" y="-279.2" font-family="Helvetica,sans-Serif" font-size="11.00">name</text>
<polygon fill="none" stroke="black" points="533,-271 533,-293 616,-293 616,-271 533,-271"/>
<text text-anchor="start" x="536" y="-279.2" font-family="Helvetica,sans-Serif" font-size="11.00">varchar[60]</text>
<polygon fill="none" stroke="black" points="290,-249 290,-271 533,-271 533,-249 290,-249"/>
<text text-anchor="start" x="310" y="-257.2" font-family="Helvetica,sans-Serif" font-size="11.00">updated</text>
<polygon fill="none" stroke="black" points="533,-249 533,-271 616,-271 616,-249 533,-249"/>
<text text-anchor="start" x="536" y="-257.2" font-family="Helvetica,sans-Serif" font-size="11.00">timestamp[29,6]</text>
<polygon fill="none" stroke="black" points="290,-227 290,-249 533,-249 533,-227 290,-227"/>
<text text-anchor="start" x="310" y="-235.2" font-family="Helvetica,sans-Serif" font-size="11.00">updatedby</text>
<polygon fill="none" stroke="black" points="533,-227 533,-249 616,-249 616,-227 533,-227"/>
<text text-anchor="start" x="536" y="-235.2" font-family="Helvetica,sans-Serif" font-size="11.00">numeric[10]</text>
<polygon fill="none" stroke="black" points="290,-205 290,-227 533,-227 533,-205 290,-205"/>
<text text-anchor="start" x="310" y="-213.2" font-family="Helvetica,sans-Serif" font-size="11.00">authorizationclientid</text>
<polygon fill="none" stroke="black" points="533,-205 533,-227 616,-227 616,-205 533,-205"/>
<text text-anchor="start" x="536" y="-213.2" font-family="Helvetica,sans-Serif" font-size="11.00">varchar[2000]</text>
<polygon fill="none" stroke="black" points="290,-183 290,-205 533,-205 533,-183 290,-183"/>
<text text-anchor="start" x="310" y="-191.2" font-family="Helvetica,sans-Serif" font-size="11.00">authorizationclientsecret</text>
<polygon fill="none" stroke="black" points="533,-183 533,-205 616,-205 616,-183 533,-183"/>
<text text-anchor="start" x="536" y="-191.2" font-family="Helvetica,sans-Serif" font-size="11.00">varchar[2000]</text>
<polygon fill="none" stroke="black" points="290,-161 290,-183 533,-183 533,-161 290,-161"/>
<text text-anchor="start" x="310" y="-169.2" font-family="Helvetica,sans-Serif" font-size="11.00">authorizationredirecturl</text>
<polygon fill="none" stroke="black" points="533,-161 533,-183 616,-183 616,-161 533,-161"/>
<text text-anchor="start" x="536" y="-169.2" font-family="Helvetica,sans-Serif" font-size="11.00">varchar[2000]</text>
<polygon fill="none" stroke="black" points="290,-139 290,-161 533,-161 533,-139 290,-139"/>
<image xlink:href="../../images/foreignKeys.png" width="11px" height="12px" preserveAspectRatio="xMinYMin meet" x="295" y="-156"/>
<text text-anchor="start" x="310" y="-147.2" font-family="Helvetica,sans-Serif" font-size="11.00">ad_authorizationprovider_id</text>
<polygon fill="none" stroke="black" points="533,-139 533,-161 616,-161 616,-139 533,-139"/>
<text text-anchor="start" x="536" y="-147.2" font-family="Helvetica,sans-Serif" font-size="11.00">numeric[10]</text>
<polygon fill="none" stroke="black" points="290,-117 290,-139 533,-139 533,-117 290,-117"/>
<text text-anchor="start" x="310" y="-125.2" font-family="Helvetica,sans-Serif" font-size="11.00">ad_authorizationscopelist</text>
<polygon fill="none" stroke="black" points="533,-117 533,-139 616,-139 616,-117 533,-117"/>
<text text-anchor="start" x="536" y="-125.2" font-family="Helvetica,sans-Serif" font-size="11.00">varchar[2000]</text>
<polygon fill="#ffffff" stroke="transparent" points="290,-99 290,-117 616,-117 616,-99 290,-99"/>
<polygon fill="none" stroke="black" points="290,-99 290,-117 616,-117 616,-99 290,-99"/>
<polygon fill="#ffffff" stroke="transparent" points="291,-100 291,-116 402,-116 402,-100 291,-100"/>
<text text-anchor="start" x="293" y="-105.2" font-family="Helvetica,sans-Serif" font-size="11.00">&lt; 1</text>
<polygon fill="#ffffff" stroke="transparent" points="402,-100 402,-116 504,-116 504,-100 402,-100"/>
<text text-anchor="start" x="449.5" y="-105.2" font-family="Helvetica,sans-Serif" font-size="11.00"> &#160;</text>
<polygon fill="#ffffff" stroke="transparent" points="504,-100 504,-116 615,-116 615,-100 504,-100"/>
<text text-anchor="start" x="597" y="-105.2" font-family="Helvetica,sans-Serif" font-size="11.00">1 &gt;</text>
<polygon fill="black" stroke="black" points="402,-100 402,-116 402,-116 402,-100 402,-100"/>
<polygon fill="black" stroke="black" points="504,-100 504,-116 504,-116 504,-100 504,-100"/>
<polygon fill="none" stroke="black" stroke-width="2" points="289,-98 289,-492 617,-492 617,-98 289,-98"/>
</a>
</g>
</g>
<!-- ad_authorizationaccount&#45;&gt;ad_authorizationcredential -->
<g id="edge1" class="edge">
<title>ad_authorizationaccount:w&#45;&gt;ad_authorizationcredential:e</title>
<path fill="none" stroke="black" d="M651.49,-458C640.18,-458 632.99,-458 617,-458"/>
<polygon fill="black" stroke="black" points="658,-458 666,-461.6 662,-458 666,-458 666,-458 666,-458 662,-458 666,-454.4 658,-458 658,-458"/>
<ellipse fill="none" stroke="black" cx="654.8" cy="-458" rx="3.2" ry="3.2"/>
</g>
<!-- ad_authorizationprovider -->
<g id="node3" class="node">
<title>ad_authorizationprovider</title>
<g id="a_node3"><a xlink:href="../../tables/ad_authorizationprovider.html" xlink:title="ad_authorizationprovider" target="_top">
<polygon fill="#ffffff" stroke="transparent" points="8,-37 8,-183 239,-183 239,-37 8,-37"/>
<polygon fill="#f5f5f5" stroke="transparent" points="8.5,-161 8.5,-183 239.5,-183 239.5,-161 8.5,-161"/>
<polygon fill="none" stroke="black" points="8.5,-161 8.5,-183 239.5,-183 239.5,-161 8.5,-161"/>
<text text-anchor="start" x="13.5" y="-170.2" font-family="Helvetica,sans-Serif" font-weight="bold" font-size="11.00">ad_authorizationprovider</text>
<text text-anchor="start" x="204.5" y="-169.2" font-family="Helvetica,sans-Serif" font-size="11.00">[table]</text>
<polygon fill="none" stroke="black" points="8.5,-139 8.5,-161 239.5,-161 239.5,-139 8.5,-139"/>
<image xlink:href="../../images/primaryKeys.png" width="11px" height="12px" preserveAspectRatio="xMinYMin meet" x="13.5" y="-156"/>
<text text-anchor="start" x="28.5" y="-147.2" font-family="Helvetica,sans-Serif" font-size="11.00">ad_authorizationprovider_id</text>
<polygon fill="#ffffff" stroke="transparent" points="8.5,-117 8.5,-139 239.5,-139 239.5,-117 8.5,-117"/>
<polygon fill="none" stroke="black" points="8.5,-117 8.5,-139 239.5,-139 239.5,-117 8.5,-117"/>
<text text-anchor="start" x="28.5" y="-125.2" font-family="Helvetica,sans-Serif" font-size="11.00">ad_client_id</text>
<polygon fill="#ffffff" stroke="transparent" points="8.5,-95 8.5,-117 239.5,-117 239.5,-95 8.5,-95"/>
<polygon fill="none" stroke="black" points="8.5,-95 8.5,-117 239.5,-117 239.5,-95 8.5,-95"/>
<text text-anchor="start" x="28.5" y="-103.2" font-family="Helvetica,sans-Serif" font-size="11.00">ad_authorizationprovider_uu</text>
<polygon fill="#ffffff" stroke="transparent" points="8.5,-73 8.5,-95 239.5,-95 239.5,-73 8.5,-73"/>
<polygon fill="none" stroke="black" points="8.5,-73 8.5,-95 239.5,-95 239.5,-73 8.5,-73"/>
<text text-anchor="start" x="28.5" y="-81.2" font-family="Helvetica,sans-Serif" font-size="11.00">name</text>
<polygon fill="none" stroke="black" points="8.5,-55 8.5,-73 239.5,-73 239.5,-55 8.5,-55"/>
<text text-anchor="start" x="11.5" y="-61.2" font-family="Helvetica,sans-Serif" font-size="11.00">...</text>
<polygon fill="#ffffff" stroke="transparent" points="8.5,-37 8.5,-55 239.5,-55 239.5,-37 8.5,-37"/>
<polygon fill="none" stroke="black" points="8.5,-37 8.5,-55 239.5,-55 239.5,-37 8.5,-37"/>
<polygon fill="#ffffff" stroke="transparent" points="9.5,-38 9.5,-54 74.5,-54 74.5,-38 9.5,-38"/>
<text text-anchor="start" x="11.5" y="-43.2" font-family="Helvetica,sans-Serif" font-size="11.00"> &#160;</text>
<polygon fill="#ffffff" stroke="transparent" points="74.5,-38 74.5,-54 165.5,-54 165.5,-38 74.5,-38"/>
<text text-anchor="start" x="103.5" y="-43.2" font-family="Helvetica,sans-Serif" font-size="11.00">2 rows</text>
<polygon fill="#ffffff" stroke="transparent" points="165.5,-38 165.5,-54 238.5,-54 238.5,-38 165.5,-38"/>
<text text-anchor="start" x="220.5" y="-43.2" font-family="Helvetica,sans-Serif" font-size="11.00">2 &gt;</text>
<polygon fill="black" stroke="black" points="74.5,-38 74.5,-54 74.5,-54 74.5,-38 74.5,-38"/>
<polygon fill="black" stroke="black" points="165.5,-38 165.5,-54 165.5,-54 165.5,-38 165.5,-38"/>
</a>
</g>
</g>
<!-- ad_authorizationcredential&#45;&gt;ad_authorizationprovider -->
<g id="edge2" class="edge">
<title>ad_authorizationcredential:w&#45;&gt;ad_authorizationprovider:e</title>
<path fill="none" stroke="black" d="M274.28,-150C263.29,-150 256.16,-150 240.5,-150"/>
<polygon fill="black" stroke="black" points="281,-150 289,-153.6 285,-150 289,-150 289,-150 289,-150 285,-150 289,-146.4 281,-150 281,-150"/>
<ellipse fill="none" stroke="black" cx="277.8" cy="-150" rx="3.2" ry="3.2"/>
</g>
</g>
</svg>
