<?xml version="1.0" encoding="UTF-8" standalone="no"?>
<!DOCTYPE svg PUBLIC "-//W3C//DTD SVG 1.1//EN"
 "http://www.w3.org/Graphics/SVG/1.1/DTD/svg11.dtd">
<!-- Generated by graphviz version 2.43.0 (0)
 -->
<!-- Title: oneDegreeRelationshipsDiagram Pages: 1 -->
<svg width="564pt" height="428pt"
 viewBox="0.00 0.00 564.00 428.00" xmlns="http://www.w3.org/2000/svg" xmlns:xlink="http://www.w3.org/1999/xlink">
<g id="graph0" class="graph" transform="scale(1 1) rotate(0) translate(4 424)">
<title>oneDegreeRelationshipsDiagram</title>
<polygon fill="#ffffff" stroke="transparent" points="-4,4 -4,-424 560,-424 560,4 -4,4"/>
<text text-anchor="middle" x="71.5" y="-7.2" font-family="Helvetica,sans-Serif" font-size="11.00">Generated by SchemaSpy</text>
<!-- ad_chartdatasource_trl -->
<g id="node1" class="node">
<title>ad_chartdatasource_trl</title>
<g id="a_node1"><a xlink:href="../../tables/ad_chartdatasource_trl.html" xlink:title="ad_chartdatasource_trl" target="_top">
<polygon fill="#ffffff" stroke="transparent" points="247,-59 247,-367 548,-367 548,-59 247,-59"/>
<polygon fill="#f5f5f5" stroke="transparent" points="249.5,-343 249.5,-365 546.5,-365 546.5,-343 249.5,-343"/>
<polygon fill="none" stroke="black" points="249.5,-343 249.5,-365 546.5,-365 546.5,-343 249.5,-343"/>
<text text-anchor="start" x="254.5" y="-352.2" font-family="Helvetica,sans-Serif" font-weight="bold" font-size="11.00">ad_chartdatasource_trl</text>
<text text-anchor="start" x="511.5" y="-351.2" font-family="Helvetica,sans-Serif" font-size="11.00">[table]</text>
<polygon fill="none" stroke="black" points="249.5,-321 249.5,-343 463.5,-343 463.5,-321 249.5,-321"/>
<text text-anchor="start" x="269.5" y="-329.2" font-family="Helvetica,sans-Serif" font-size="11.00">ad_client_id</text>
<polygon fill="none" stroke="black" points="463.5,-321 463.5,-343 546.5,-343 546.5,-321 463.5,-321"/>
<text text-anchor="start" x="466.5" y="-329.2" font-family="Helvetica,sans-Serif" font-size="11.00">numeric[10]</text>
<polygon fill="none" stroke="black" points="249.5,-299 249.5,-321 463.5,-321 463.5,-299 249.5,-299"/>
<image xlink:href="../../images/primaryKeys.png" width="11px" height="12px" preserveAspectRatio="xMinYMin meet" x="254.5" y="-316"/>
<text text-anchor="start" x="269.5" y="-307.2" font-family="Helvetica,sans-Serif" font-size="11.00">ad_chartdatasource_id</text>
<polygon fill="none" stroke="black" points="463.5,-299 463.5,-321 546.5,-321 546.5,-299 463.5,-299"/>
<text text-anchor="start" x="466.5" y="-307.2" font-family="Helvetica,sans-Serif" font-size="11.00">numeric[10]</text>
<polygon fill="#ffffff" stroke="transparent" points="249.5,-277 249.5,-299 463.5,-299 463.5,-277 249.5,-277"/>
<polygon fill="none" stroke="black" points="249.5,-277 249.5,-299 463.5,-299 463.5,-277 249.5,-277"/>
<text text-anchor="start" x="269.5" y="-285.2" font-family="Helvetica,sans-Serif" font-size="11.00">ad_chartdatasource_trl_uu</text>
<polygon fill="none" stroke="black" points="463.5,-277 463.5,-299 546.5,-299 546.5,-277 463.5,-277"/>
<text text-anchor="start" x="466.5" y="-285.2" font-family="Helvetica,sans-Serif" font-size="11.00">varchar[36]</text>
<polygon fill="none" stroke="black" points="249.5,-255 249.5,-277 463.5,-277 463.5,-255 249.5,-255"/>
<image xlink:href="../../images/primaryKeys.png" width="11px" height="12px" preserveAspectRatio="xMinYMin meet" x="254.5" y="-272"/>
<text text-anchor="start" x="269.5" y="-263.2" font-family="Helvetica,sans-Serif" font-size="11.00">ad_language</text>
<polygon fill="none" stroke="black" points="463.5,-255 463.5,-277 546.5,-277 546.5,-255 463.5,-255"/>
<text text-anchor="start" x="466.5" y="-263.2" font-family="Helvetica,sans-Serif" font-size="11.00">varchar[6]</text>
<polygon fill="none" stroke="black" points="249.5,-233 249.5,-255 463.5,-255 463.5,-233 249.5,-233"/>
<text text-anchor="start" x="269.5" y="-241.2" font-family="Helvetica,sans-Serif" font-size="11.00">ad_org_id</text>
<polygon fill="none" stroke="black" points="463.5,-233 463.5,-255 546.5,-255 546.5,-233 463.5,-233"/>
<text text-anchor="start" x="466.5" y="-241.2" font-family="Helvetica,sans-Serif" font-size="11.00">numeric[10]</text>
<polygon fill="none" stroke="black" points="249.5,-211 249.5,-233 463.5,-233 463.5,-211 249.5,-211"/>
<text text-anchor="start" x="269.5" y="-219.2" font-family="Helvetica,sans-Serif" font-size="11.00">created</text>
<polygon fill="none" stroke="black" points="463.5,-211 463.5,-233 546.5,-233 546.5,-211 463.5,-211"/>
<text text-anchor="start" x="466.5" y="-219.2" font-family="Helvetica,sans-Serif" font-size="11.00">timestamp[29,6]</text>
<polygon fill="none" stroke="black" points="249.5,-189 249.5,-211 463.5,-211 463.5,-189 249.5,-189"/>
<text text-anchor="start" x="269.5" y="-197.2" font-family="Helvetica,sans-Serif" font-size="11.00">createdby</text>
<polygon fill="none" stroke="black" points="463.5,-189 463.5,-211 546.5,-211 546.5,-189 463.5,-189"/>
<text text-anchor="start" x="466.5" y="-197.2" font-family="Helvetica,sans-Serif" font-size="11.00">numeric[10]</text>
<polygon fill="none" stroke="black" points="249.5,-167 249.5,-189 463.5,-189 463.5,-167 249.5,-167"/>
<text text-anchor="start" x="269.5" y="-175.2" font-family="Helvetica,sans-Serif" font-size="11.00">isactive</text>
<polygon fill="none" stroke="black" points="463.5,-167 463.5,-189 546.5,-189 546.5,-167 463.5,-167"/>
<text text-anchor="start" x="466.5" y="-175.2" font-family="Helvetica,sans-Serif" font-size="11.00">bpchar[1]</text>
<polygon fill="none" stroke="black" points="249.5,-145 249.5,-167 463.5,-167 463.5,-145 249.5,-145"/>
<text text-anchor="start" x="269.5" y="-153.2" font-family="Helvetica,sans-Serif" font-size="11.00">istranslated</text>
<polygon fill="none" stroke="black" points="463.5,-145 463.5,-167 546.5,-167 546.5,-145 463.5,-145"/>
<text text-anchor="start" x="466.5" y="-153.2" font-family="Helvetica,sans-Serif" font-size="11.00">bpchar[1]</text>
<polygon fill="none" stroke="black" points="249.5,-123 249.5,-145 463.5,-145 463.5,-123 249.5,-123"/>
<text text-anchor="start" x="269.5" y="-131.2" font-family="Helvetica,sans-Serif" font-size="11.00">name</text>
<polygon fill="none" stroke="black" points="463.5,-123 463.5,-145 546.5,-145 546.5,-123 463.5,-123"/>
<text text-anchor="start" x="466.5" y="-131.2" font-family="Helvetica,sans-Serif" font-size="11.00">varchar[60]</text>
<polygon fill="none" stroke="black" points="249.5,-101 249.5,-123 463.5,-123 463.5,-101 249.5,-101"/>
<text text-anchor="start" x="269.5" y="-109.2" font-family="Helvetica,sans-Serif" font-size="11.00">updated</text>
<polygon fill="none" stroke="black" points="463.5,-101 463.5,-123 546.5,-123 546.5,-101 463.5,-101"/>
<text text-anchor="start" x="466.5" y="-109.2" font-family="Helvetica,sans-Serif" font-size="11.00">timestamp[29,6]</text>
<polygon fill="none" stroke="black" points="249.5,-79 249.5,-101 463.5,-101 463.5,-79 249.5,-79"/>
<text text-anchor="start" x="269.5" y="-87.2" font-family="Helvetica,sans-Serif" font-size="11.00">updatedby</text>
<polygon fill="none" stroke="black" points="463.5,-79 463.5,-101 546.5,-101 546.5,-79 463.5,-79"/>
<text text-anchor="start" x="466.5" y="-87.2" font-family="Helvetica,sans-Serif" font-size="11.00">numeric[10]</text>
<polygon fill="#ffffff" stroke="transparent" points="249.5,-61 249.5,-79 546.5,-79 546.5,-61 249.5,-61"/>
<polygon fill="none" stroke="black" points="249.5,-61 249.5,-79 546.5,-79 546.5,-61 249.5,-61"/>
<polygon fill="#ffffff" stroke="transparent" points="250.5,-62 250.5,-78 341.5,-78 341.5,-62 250.5,-62"/>
<text text-anchor="start" x="252.5" y="-67.2" font-family="Helvetica,sans-Serif" font-size="11.00">&lt; 2</text>
<polygon fill="#ffffff" stroke="transparent" points="341.5,-62 341.5,-78 455.5,-78 455.5,-62 341.5,-62"/>
<text text-anchor="start" x="379" y="-67.2" font-family="Helvetica,sans-Serif" font-size="11.00">18 rows</text>
<polygon fill="#ffffff" stroke="transparent" points="455.5,-62 455.5,-78 545.5,-78 545.5,-62 455.5,-62"/>
<text text-anchor="start" x="527.5" y="-67.2" font-family="Helvetica,sans-Serif" font-size="11.00">0 &gt;</text>
<polygon fill="black" stroke="black" points="341.5,-62 341.5,-78 341.5,-78 341.5,-62 341.5,-62"/>
<polygon fill="black" stroke="black" points="455.5,-62 455.5,-78 455.5,-78 455.5,-62 455.5,-62"/>
<polygon fill="none" stroke="black" stroke-width="2" points="248,-60 248,-366 547,-366 547,-60 248,-60"/>
</a>
</g>
</g>
<!-- ad_chartdatasource -->
<g id="node2" class="node">
<title>ad_chartdatasource</title>
<g id="a_node2"><a xlink:href="../../tables/ad_chartdatasource.html" xlink:title="ad_chartdatasource" target="_top">
<polygon fill="#ffffff" stroke="transparent" points="8,-248 8,-416 198,-416 198,-248 8,-248"/>
<polygon fill="#f5f5f5" stroke="transparent" points="8,-394 8,-416 198,-416 198,-394 8,-394"/>
<polygon fill="none" stroke="black" points="8,-394 8,-416 198,-416 198,-394 8,-394"/>
<text text-anchor="start" x="13" y="-403.2" font-family="Helvetica,sans-Serif" font-weight="bold" font-size="11.00">ad_chartdatasource</text>
<text text-anchor="start" x="163" y="-402.2" font-family="Helvetica,sans-Serif" font-size="11.00">[table]</text>
<polygon fill="none" stroke="black" points="8,-372 8,-394 198,-394 198,-372 8,-372"/>
<image xlink:href="../../images/primaryKeys.png" width="11px" height="12px" preserveAspectRatio="xMinYMin meet" x="13" y="-389"/>
<text text-anchor="start" x="28" y="-380.2" font-family="Helvetica,sans-Serif" font-size="11.00">ad_chartdatasource_id</text>
<polygon fill="none" stroke="black" points="8,-350 8,-372 198,-372 198,-350 8,-350"/>
<image xlink:href="../../images/foreignKeys.png" width="11px" height="12px" preserveAspectRatio="xMinYMin meet" x="13" y="-367"/>
<text text-anchor="start" x="28" y="-358.2" font-family="Helvetica,sans-Serif" font-size="11.00">ad_chart_id</text>
<polygon fill="none" stroke="black" points="8,-328 8,-350 198,-350 198,-328 8,-328"/>
<image xlink:href="../../images/foreignKeys.png" width="11px" height="12px" preserveAspectRatio="xMinYMin meet" x="13" y="-345"/>
<text text-anchor="start" x="28" y="-336.2" font-family="Helvetica,sans-Serif" font-size="11.00">ad_table_id</text>
<polygon fill="none" stroke="black" points="8,-306 8,-328 198,-328 198,-306 8,-306"/>
<image xlink:href="../../images/foreignKeys.png" width="11px" height="12px" preserveAspectRatio="xMinYMin meet" x="13" y="-323"/>
<text text-anchor="start" x="28" y="-314.2" font-family="Helvetica,sans-Serif" font-size="11.00">entitytype</text>
<polygon fill="#ffffff" stroke="transparent" points="8,-284 8,-306 198,-306 198,-284 8,-284"/>
<polygon fill="none" stroke="black" points="8,-284 8,-306 198,-306 198,-284 8,-284"/>
<text text-anchor="start" x="28" y="-292.2" font-family="Helvetica,sans-Serif" font-size="11.00">ad_chartdatasource_uu</text>
<polygon fill="none" stroke="black" points="8,-266 8,-284 198,-284 198,-266 8,-266"/>
<text text-anchor="start" x="11" y="-272.2" font-family="Helvetica,sans-Serif" font-size="11.00">...</text>
<polygon fill="#ffffff" stroke="transparent" points="8,-248 8,-266 198,-266 198,-248 8,-248"/>
<polygon fill="none" stroke="black" points="8,-248 8,-266 198,-266 198,-248 8,-248"/>
<polygon fill="#ffffff" stroke="transparent" points="9,-249 9,-265 66,-265 66,-249 9,-249"/>
<text text-anchor="start" x="11" y="-254.2" font-family="Helvetica,sans-Serif" font-size="11.00">&lt; 3</text>
<polygon fill="#ffffff" stroke="transparent" points="66,-249 66,-265 140,-265 140,-249 66,-249"/>
<text text-anchor="start" x="86.5" y="-254.2" font-family="Helvetica,sans-Serif" font-size="11.00">9 rows</text>
<polygon fill="#ffffff" stroke="transparent" points="140,-249 140,-265 197,-265 197,-249 140,-249"/>
<text text-anchor="start" x="179" y="-254.2" font-family="Helvetica,sans-Serif" font-size="11.00">1 &gt;</text>
<polygon fill="black" stroke="black" points="66,-249 66,-265 66,-265 66,-249 66,-249"/>
<polygon fill="black" stroke="black" points="140,-249 140,-265 140,-265 140,-249 140,-249"/>
</a>
</g>
</g>
<!-- ad_chartdatasource_trl&#45;&gt;ad_chartdatasource -->
<g id="edge1" class="edge">
<title>ad_chartdatasource_trl:w&#45;&gt;ad_chartdatasource:e</title>
<path fill="none" stroke="black" d="M234.59,-314.79C216.67,-331.03 232.08,-383 199,-383"/>
<polygon fill="black" stroke="black" points="240.94,-312.61 249.67,-313.4 244.72,-311.3 248.5,-310 248.5,-310 248.5,-310 244.72,-311.3 247.33,-306.6 240.94,-312.61 240.94,-312.61"/>
<ellipse fill="none" stroke="black" cx="237.91" cy="-313.65" rx="3.2" ry="3.2"/>
</g>
<!-- ad_language -->
<g id="node3" class="node">
<title>ad_language</title>
<g id="a_node3"><a xlink:href="../../tables/ad_language.html" xlink:title="ad_language" target="_top">
<polygon fill="#ffffff" stroke="transparent" points="26.5,-37 26.5,-227 179.5,-227 179.5,-37 26.5,-37"/>
<polygon fill="#f5f5f5" stroke="transparent" points="27,-205 27,-227 180,-227 180,-205 27,-205"/>
<polygon fill="none" stroke="black" points="27,-205 27,-227 180,-227 180,-205 27,-205"/>
<text text-anchor="start" x="32" y="-214.2" font-family="Helvetica,sans-Serif" font-weight="bold" font-size="11.00">ad_language</text>
<text text-anchor="start" x="145" y="-213.2" font-family="Helvetica,sans-Serif" font-size="11.00">[table]</text>
<polygon fill="none" stroke="black" points="27,-183 27,-205 180,-205 180,-183 27,-183"/>
<image xlink:href="../../images/primaryKeys.png" width="11px" height="12px" preserveAspectRatio="xMinYMin meet" x="32" y="-200"/>
<text text-anchor="start" x="47" y="-191.2" font-family="Helvetica,sans-Serif" font-size="11.00">ad_language</text>
<polygon fill="none" stroke="black" points="27,-161 27,-183 180,-183 180,-161 27,-161"/>
<image xlink:href="../../images/foreignKeys.png" width="11px" height="12px" preserveAspectRatio="xMinYMin meet" x="32" y="-178"/>
<text text-anchor="start" x="47" y="-169.2" font-family="Helvetica,sans-Serif" font-size="11.00">ad_client_id</text>
<polygon fill="none" stroke="black" points="27,-139 27,-161 180,-161 180,-139 27,-139"/>
<image xlink:href="../../images/foreignKeys.png" width="11px" height="12px" preserveAspectRatio="xMinYMin meet" x="32" y="-156"/>
<text text-anchor="start" x="47" y="-147.2" font-family="Helvetica,sans-Serif" font-size="11.00">ad_org_id</text>
<polygon fill="#ffffff" stroke="transparent" points="27,-117 27,-139 180,-139 180,-117 27,-117"/>
<polygon fill="none" stroke="black" points="27,-117 27,-139 180,-139 180,-117 27,-117"/>
<text text-anchor="start" x="47" y="-125.2" font-family="Helvetica,sans-Serif" font-size="11.00">ad_language_id</text>
<polygon fill="#ffffff" stroke="transparent" points="27,-95 27,-117 180,-117 180,-95 27,-95"/>
<polygon fill="none" stroke="black" points="27,-95 27,-117 180,-117 180,-95 27,-95"/>
<text text-anchor="start" x="47" y="-103.2" font-family="Helvetica,sans-Serif" font-size="11.00">ad_language_uu</text>
<polygon fill="none" stroke="black" points="27,-73 27,-95 180,-95 180,-73 27,-73"/>
<image xlink:href="../../images/foreignKeys.png" width="11px" height="12px" preserveAspectRatio="xMinYMin meet" x="32" y="-90"/>
<text text-anchor="start" x="47" y="-81.2" font-family="Helvetica,sans-Serif" font-size="11.00">ad_printpaper_id</text>
<polygon fill="none" stroke="black" points="27,-55 27,-73 180,-73 180,-55 27,-55"/>
<text text-anchor="start" x="30" y="-61.2" font-family="Helvetica,sans-Serif" font-size="11.00">...</text>
<polygon fill="#ffffff" stroke="transparent" points="27,-37 27,-55 180,-55 180,-37 27,-37"/>
<polygon fill="none" stroke="black" points="27,-37 27,-55 180,-55 180,-37 27,-37"/>
<polygon fill="#ffffff" stroke="transparent" points="28,-38 28,-54 67,-54 67,-38 28,-38"/>
<text text-anchor="start" x="30" y="-43.2" font-family="Helvetica,sans-Serif" font-size="11.00">&lt; 3</text>
<polygon fill="#ffffff" stroke="transparent" points="67,-38 67,-54 135,-54 135,-38 67,-38"/>
<text text-anchor="start" x="78.5" y="-43.2" font-family="Helvetica,sans-Serif" font-size="11.00">109 rows</text>
<polygon fill="#ffffff" stroke="transparent" points="135,-38 135,-54 179,-54 179,-38 135,-38"/>
<text text-anchor="start" x="155" y="-43.2" font-family="Helvetica,sans-Serif" font-size="11.00">88 &gt;</text>
<polygon fill="black" stroke="black" points="67,-38 67,-54 67,-54 67,-38 67,-38"/>
<polygon fill="black" stroke="black" points="135,-38 135,-54 135,-54 135,-38 135,-38"/>
</a>
</g>
</g>
<!-- ad_chartdatasource_trl&#45;&gt;ad_language -->
<g id="edge2" class="edge">
<title>ad_chartdatasource_trl:w&#45;&gt;ad_language:e</title>
<path fill="none" stroke="black" d="M234.46,-262.72C208.79,-248.63 219.21,-194 181,-194"/>
<polygon fill="black" stroke="black" points="240.71,-264.18 247.68,-269.51 244.6,-265.09 248.5,-266 248.5,-266 248.5,-266 244.6,-265.09 249.32,-262.49 240.71,-264.18 240.71,-264.18"/>
<ellipse fill="none" stroke="black" cx="237.59" cy="-263.45" rx="3.2" ry="3.2"/>
</g>
</g>
</svg>
