<?xml version="1.0" encoding="UTF-8" standalone="no"?>
<!DOCTYPE svg PUBLIC "-//W3C//DTD SVG 1.1//EN"
 "http://www.w3.org/Graphics/SVG/1.1/DTD/svg11.dtd">
<!-- Generated by graphviz version 2.43.0 (0)
 -->
<!-- Title: oneDegreeRelationshipsDiagram Pages: 1 -->
<svg width="492pt" height="670pt"
 viewBox="0.00 0.00 492.00 670.00" xmlns="http://www.w3.org/2000/svg" xmlns:xlink="http://www.w3.org/1999/xlink">
<g id="graph0" class="graph" transform="scale(1 1) rotate(0) translate(4 666)">
<title>oneDegreeRelationshipsDiagram</title>
<polygon fill="#ffffff" stroke="transparent" points="-4,4 -4,-666 488,-666 488,4 -4,4"/>
<text text-anchor="middle" x="71.5" y="-7.2" font-family="Helvetica,sans-Serif" font-size="11.00">Generated by SchemaSpy</text>
<!-- ad_field_trl -->
<g id="node1" class="node">
<title>ad_field_trl</title>
<g id="a_node1"><a xlink:href="../../tables/ad_field_trl.html" xlink:title="ad_field_trl" target="_top">
<polygon fill="#ffffff" stroke="transparent" points="239,-37 239,-455 476,-455 476,-37 239,-37"/>
<polygon fill="#f5f5f5" stroke="transparent" points="241.5,-431 241.5,-453 474.5,-453 474.5,-431 241.5,-431"/>
<polygon fill="none" stroke="black" points="241.5,-431 241.5,-453 474.5,-453 474.5,-431 241.5,-431"/>
<text text-anchor="start" x="246.5" y="-440.2" font-family="Helvetica,sans-Serif" font-weight="bold" font-size="11.00">ad_field_trl</text>
<text text-anchor="start" x="439.5" y="-439.2" font-family="Helvetica,sans-Serif" font-size="11.00">[table]</text>
<polygon fill="none" stroke="black" points="241.5,-409 241.5,-431 391.5,-431 391.5,-409 241.5,-409"/>
<image xlink:href="../../images/primaryKeys.png" width="11px" height="12px" preserveAspectRatio="xMinYMin meet" x="246.5" y="-426"/>
<text text-anchor="start" x="261.5" y="-417.2" font-family="Helvetica,sans-Serif" font-size="11.00">ad_field_id</text>
<polygon fill="none" stroke="black" points="391.5,-409 391.5,-431 474.5,-431 474.5,-409 391.5,-409"/>
<text text-anchor="start" x="394.5" y="-417.2" font-family="Helvetica,sans-Serif" font-size="11.00">numeric[10]</text>
<polygon fill="none" stroke="black" points="241.5,-387 241.5,-409 391.5,-409 391.5,-387 241.5,-387"/>
<image xlink:href="../../images/primaryKeys.png" width="11px" height="12px" preserveAspectRatio="xMinYMin meet" x="246.5" y="-404"/>
<text text-anchor="start" x="261.5" y="-395.2" font-family="Helvetica,sans-Serif" font-size="11.00">ad_language</text>
<polygon fill="none" stroke="black" points="391.5,-387 391.5,-409 474.5,-409 474.5,-387 391.5,-387"/>
<text text-anchor="start" x="394.5" y="-395.2" font-family="Helvetica,sans-Serif" font-size="11.00">varchar[6]</text>
<polygon fill="none" stroke="black" points="241.5,-365 241.5,-387 391.5,-387 391.5,-365 241.5,-365"/>
<text text-anchor="start" x="261.5" y="-373.2" font-family="Helvetica,sans-Serif" font-size="11.00">ad_client_id</text>
<polygon fill="none" stroke="black" points="391.5,-365 391.5,-387 474.5,-387 474.5,-365 391.5,-365"/>
<text text-anchor="start" x="394.5" y="-373.2" font-family="Helvetica,sans-Serif" font-size="11.00">numeric[10]</text>
<polygon fill="none" stroke="black" points="241.5,-343 241.5,-365 391.5,-365 391.5,-343 241.5,-343"/>
<text text-anchor="start" x="261.5" y="-351.2" font-family="Helvetica,sans-Serif" font-size="11.00">ad_org_id</text>
<polygon fill="none" stroke="black" points="391.5,-343 391.5,-365 474.5,-365 474.5,-343 391.5,-343"/>
<text text-anchor="start" x="394.5" y="-351.2" font-family="Helvetica,sans-Serif" font-size="11.00">numeric[10]</text>
<polygon fill="none" stroke="black" points="241.5,-321 241.5,-343 391.5,-343 391.5,-321 241.5,-321"/>
<text text-anchor="start" x="261.5" y="-329.2" font-family="Helvetica,sans-Serif" font-size="11.00">isactive</text>
<polygon fill="none" stroke="black" points="391.5,-321 391.5,-343 474.5,-343 474.5,-321 391.5,-321"/>
<text text-anchor="start" x="394.5" y="-329.2" font-family="Helvetica,sans-Serif" font-size="11.00">bpchar[1]</text>
<polygon fill="none" stroke="black" points="241.5,-299 241.5,-321 391.5,-321 391.5,-299 241.5,-299"/>
<text text-anchor="start" x="261.5" y="-307.2" font-family="Helvetica,sans-Serif" font-size="11.00">created</text>
<polygon fill="none" stroke="black" points="391.5,-299 391.5,-321 474.5,-321 474.5,-299 391.5,-299"/>
<text text-anchor="start" x="394.5" y="-307.2" font-family="Helvetica,sans-Serif" font-size="11.00">timestamp[29,6]</text>
<polygon fill="none" stroke="black" points="241.5,-277 241.5,-299 391.5,-299 391.5,-277 241.5,-277"/>
<text text-anchor="start" x="261.5" y="-285.2" font-family="Helvetica,sans-Serif" font-size="11.00">createdby</text>
<polygon fill="none" stroke="black" points="391.5,-277 391.5,-299 474.5,-299 474.5,-277 391.5,-277"/>
<text text-anchor="start" x="394.5" y="-285.2" font-family="Helvetica,sans-Serif" font-size="11.00">numeric[10]</text>
<polygon fill="none" stroke="black" points="241.5,-255 241.5,-277 391.5,-277 391.5,-255 241.5,-255"/>
<text text-anchor="start" x="261.5" y="-263.2" font-family="Helvetica,sans-Serif" font-size="11.00">updated</text>
<polygon fill="none" stroke="black" points="391.5,-255 391.5,-277 474.5,-277 474.5,-255 391.5,-255"/>
<text text-anchor="start" x="394.5" y="-263.2" font-family="Helvetica,sans-Serif" font-size="11.00">timestamp[29,6]</text>
<polygon fill="none" stroke="black" points="241.5,-233 241.5,-255 391.5,-255 391.5,-233 241.5,-233"/>
<text text-anchor="start" x="261.5" y="-241.2" font-family="Helvetica,sans-Serif" font-size="11.00">updatedby</text>
<polygon fill="none" stroke="black" points="391.5,-233 391.5,-255 474.5,-255 474.5,-233 391.5,-233"/>
<text text-anchor="start" x="394.5" y="-241.2" font-family="Helvetica,sans-Serif" font-size="11.00">numeric[10]</text>
<polygon fill="none" stroke="black" points="241.5,-211 241.5,-233 391.5,-233 391.5,-211 241.5,-211"/>
<text text-anchor="start" x="261.5" y="-219.2" font-family="Helvetica,sans-Serif" font-size="11.00">name</text>
<polygon fill="none" stroke="black" points="391.5,-211 391.5,-233 474.5,-233 474.5,-211 391.5,-211"/>
<text text-anchor="start" x="394.5" y="-219.2" font-family="Helvetica,sans-Serif" font-size="11.00">varchar[60]</text>
<polygon fill="none" stroke="black" points="241.5,-189 241.5,-211 391.5,-211 391.5,-189 241.5,-189"/>
<text text-anchor="start" x="261.5" y="-197.2" font-family="Helvetica,sans-Serif" font-size="11.00">description</text>
<polygon fill="none" stroke="black" points="391.5,-189 391.5,-211 474.5,-211 474.5,-189 391.5,-189"/>
<text text-anchor="start" x="394.5" y="-197.2" font-family="Helvetica,sans-Serif" font-size="11.00">varchar[255]</text>
<polygon fill="none" stroke="black" points="241.5,-167 241.5,-189 391.5,-189 391.5,-167 241.5,-167"/>
<text text-anchor="start" x="261.5" y="-175.2" font-family="Helvetica,sans-Serif" font-size="11.00">help</text>
<polygon fill="none" stroke="black" points="391.5,-167 391.5,-189 474.5,-189 474.5,-167 391.5,-167"/>
<text text-anchor="start" x="394.5" y="-175.2" font-family="Helvetica,sans-Serif" font-size="11.00">varchar[2000]</text>
<polygon fill="none" stroke="black" points="241.5,-145 241.5,-167 391.5,-167 391.5,-145 241.5,-145"/>
<text text-anchor="start" x="261.5" y="-153.2" font-family="Helvetica,sans-Serif" font-size="11.00">istranslated</text>
<polygon fill="none" stroke="black" points="391.5,-145 391.5,-167 474.5,-167 474.5,-145 391.5,-145"/>
<text text-anchor="start" x="394.5" y="-153.2" font-family="Helvetica,sans-Serif" font-size="11.00">bpchar[1]</text>
<polygon fill="#ffffff" stroke="transparent" points="241.5,-123 241.5,-145 391.5,-145 391.5,-123 241.5,-123"/>
<polygon fill="none" stroke="black" points="241.5,-123 241.5,-145 391.5,-145 391.5,-123 241.5,-123"/>
<text text-anchor="start" x="261.5" y="-131.2" font-family="Helvetica,sans-Serif" font-size="11.00">ad_field_trl_uu</text>
<polygon fill="none" stroke="black" points="391.5,-123 391.5,-145 474.5,-145 474.5,-123 391.5,-123"/>
<text text-anchor="start" x="394.5" y="-131.2" font-family="Helvetica,sans-Serif" font-size="11.00">varchar[36]</text>
<polygon fill="none" stroke="black" points="241.5,-101 241.5,-123 391.5,-123 391.5,-101 241.5,-101"/>
<text text-anchor="start" x="261.5" y="-109.2" font-family="Helvetica,sans-Serif" font-size="11.00">cof_pretranslated</text>
<polygon fill="none" stroke="black" points="391.5,-101 391.5,-123 474.5,-123 474.5,-101 391.5,-101"/>
<text text-anchor="start" x="394.5" y="-109.2" font-family="Helvetica,sans-Serif" font-size="11.00">bpchar[1]</text>
<polygon fill="none" stroke="black" points="241.5,-79 241.5,-101 391.5,-101 391.5,-79 241.5,-79"/>
<text text-anchor="start" x="261.5" y="-87.2" font-family="Helvetica,sans-Serif" font-size="11.00">cof_checked</text>
<polygon fill="none" stroke="black" points="391.5,-79 391.5,-101 474.5,-101 474.5,-79 391.5,-79"/>
<text text-anchor="start" x="394.5" y="-87.2" font-family="Helvetica,sans-Serif" font-size="11.00">bpchar[1]</text>
<polygon fill="none" stroke="black" points="241.5,-57 241.5,-79 391.5,-79 391.5,-57 241.5,-57"/>
<text text-anchor="start" x="261.5" y="-65.2" font-family="Helvetica,sans-Serif" font-size="11.00">placeholder</text>
<polygon fill="none" stroke="black" points="391.5,-57 391.5,-79 474.5,-79 474.5,-57 391.5,-57"/>
<text text-anchor="start" x="394.5" y="-65.2" font-family="Helvetica,sans-Serif" font-size="11.00">varchar[255]</text>
<polygon fill="#ffffff" stroke="transparent" points="241.5,-39 241.5,-57 474.5,-57 474.5,-39 241.5,-39"/>
<polygon fill="none" stroke="black" points="241.5,-39 241.5,-57 474.5,-57 474.5,-39 241.5,-39"/>
<polygon fill="#ffffff" stroke="transparent" points="242.5,-40 242.5,-56 305.5,-56 305.5,-40 242.5,-40"/>
<text text-anchor="start" x="244.5" y="-45.2" font-family="Helvetica,sans-Serif" font-size="11.00">&lt; 2</text>
<polygon fill="#ffffff" stroke="transparent" points="305.5,-40 305.5,-56 411.5,-56 411.5,-40 305.5,-40"/>
<text text-anchor="start" x="328.5" y="-45.2" font-family="Helvetica,sans-Serif" font-size="11.00">71.664 rows</text>
<polygon fill="#ffffff" stroke="transparent" points="411.5,-40 411.5,-56 473.5,-56 473.5,-40 411.5,-40"/>
<text text-anchor="start" x="455.5" y="-45.2" font-family="Helvetica,sans-Serif" font-size="11.00">0 &gt;</text>
<polygon fill="black" stroke="black" points="305.5,-40 305.5,-56 305.5,-56 305.5,-40 305.5,-40"/>
<polygon fill="black" stroke="black" points="411.5,-40 411.5,-56 411.5,-56 411.5,-40 411.5,-40"/>
<polygon fill="none" stroke="black" stroke-width="2" points="240,-38 240,-454 475,-454 475,-38 240,-38"/>
</a>
</g>
</g>
<!-- ad_field -->
<g id="node2" class="node">
<title>ad_field</title>
<g id="a_node2"><a xlink:href="../../tables/ad_field.html" xlink:title="ad_field" target="_top">
<polygon fill="#ffffff" stroke="transparent" points="8,-248 8,-658 190,-658 190,-248 8,-248"/>
<polygon fill="#f5f5f5" stroke="transparent" points="8,-636 8,-658 190,-658 190,-636 8,-636"/>
<polygon fill="none" stroke="black" points="8,-636 8,-658 190,-658 190,-636 8,-636"/>
<text text-anchor="start" x="13" y="-645.2" font-family="Helvetica,sans-Serif" font-weight="bold" font-size="11.00">ad_field</text>
<text text-anchor="start" x="155" y="-644.2" font-family="Helvetica,sans-Serif" font-size="11.00">[table]</text>
<polygon fill="none" stroke="black" points="8,-614 8,-636 190,-636 190,-614 8,-614"/>
<image xlink:href="../../images/primaryKeys.png" width="11px" height="12px" preserveAspectRatio="xMinYMin meet" x="13" y="-631"/>
<text text-anchor="start" x="28" y="-622.2" font-family="Helvetica,sans-Serif" font-size="11.00">ad_field_id</text>
<polygon fill="none" stroke="black" points="8,-592 8,-614 190,-614 190,-592 8,-592"/>
<image xlink:href="../../images/foreignKeys.png" width="11px" height="12px" preserveAspectRatio="xMinYMin meet" x="13" y="-609"/>
<text text-anchor="start" x="28" y="-600.2" font-family="Helvetica,sans-Serif" font-size="11.00">ad_client_id</text>
<polygon fill="none" stroke="black" points="8,-570 8,-592 190,-592 190,-570 8,-570"/>
<image xlink:href="../../images/foreignKeys.png" width="11px" height="12px" preserveAspectRatio="xMinYMin meet" x="13" y="-587"/>
<text text-anchor="start" x="28" y="-578.2" font-family="Helvetica,sans-Serif" font-size="11.00">ad_org_id</text>
<polygon fill="#ffffff" stroke="transparent" points="8,-548 8,-570 190,-570 190,-548 8,-548"/>
<polygon fill="none" stroke="black" points="8,-548 8,-570 190,-570 190,-548 8,-548"/>
<image xlink:href="../../images/foreignKeys.png" width="11px" height="12px" preserveAspectRatio="xMinYMin meet" x="13" y="-565"/>
<text text-anchor="start" x="28" y="-556.2" font-family="Helvetica,sans-Serif" font-size="11.00">ad_tab_id</text>
<polygon fill="#ffffff" stroke="transparent" points="8,-526 8,-548 190,-548 190,-526 8,-526"/>
<polygon fill="none" stroke="black" points="8,-526 8,-548 190,-548 190,-526 8,-526"/>
<image xlink:href="../../images/foreignKeys.png" width="11px" height="12px" preserveAspectRatio="xMinYMin meet" x="13" y="-543"/>
<text text-anchor="start" x="28" y="-534.2" font-family="Helvetica,sans-Serif" font-size="11.00">ad_column_id</text>
<polygon fill="none" stroke="black" points="8,-504 8,-526 190,-526 190,-504 8,-504"/>
<image xlink:href="../../images/foreignKeys.png" width="11px" height="12px" preserveAspectRatio="xMinYMin meet" x="13" y="-521"/>
<text text-anchor="start" x="28" y="-512.2" font-family="Helvetica,sans-Serif" font-size="11.00">ad_fieldgroup_id</text>
<polygon fill="none" stroke="black" points="8,-482 8,-504 190,-504 190,-482 8,-482"/>
<image xlink:href="../../images/foreignKeys.png" width="11px" height="12px" preserveAspectRatio="xMinYMin meet" x="13" y="-499"/>
<text text-anchor="start" x="28" y="-490.2" font-family="Helvetica,sans-Serif" font-size="11.00">entitytype</text>
<polygon fill="none" stroke="black" points="8,-460 8,-482 190,-482 190,-460 8,-460"/>
<image xlink:href="../../images/foreignKeys.png" width="11px" height="12px" preserveAspectRatio="xMinYMin meet" x="13" y="-477"/>
<text text-anchor="start" x="28" y="-468.2" font-family="Helvetica,sans-Serif" font-size="11.00">ad_reference_id</text>
<polygon fill="none" stroke="black" points="8,-438 8,-460 190,-460 190,-438 8,-438"/>
<image xlink:href="../../images/foreignKeys.png" width="11px" height="12px" preserveAspectRatio="xMinYMin meet" x="13" y="-455"/>
<text text-anchor="start" x="28" y="-446.2" font-family="Helvetica,sans-Serif" font-size="11.00">included_tab_id</text>
<polygon fill="none" stroke="black" points="8,-416 8,-438 190,-438 190,-416 8,-416"/>
<image xlink:href="../../images/foreignKeys.png" width="11px" height="12px" preserveAspectRatio="xMinYMin meet" x="13" y="-433"/>
<text text-anchor="start" x="28" y="-424.2" font-family="Helvetica,sans-Serif" font-size="11.00">ad_reference_value_id</text>
<polygon fill="none" stroke="black" points="8,-394 8,-416 190,-416 190,-394 8,-394"/>
<image xlink:href="../../images/foreignKeys.png" width="11px" height="12px" preserveAspectRatio="xMinYMin meet" x="13" y="-411"/>
<text text-anchor="start" x="28" y="-402.2" font-family="Helvetica,sans-Serif" font-size="11.00">ad_val_rule_id</text>
<polygon fill="#ffffff" stroke="transparent" points="8,-372 8,-394 190,-394 190,-372 8,-372"/>
<polygon fill="none" stroke="black" points="8,-372 8,-394 190,-394 190,-372 8,-372"/>
<text text-anchor="start" x="28" y="-380.2" font-family="Helvetica,sans-Serif" font-size="11.00">ad_field_uu</text>
<polygon fill="none" stroke="black" points="8,-350 8,-372 190,-372 190,-350 8,-350"/>
<image xlink:href="../../images/foreignKeys.png" width="11px" height="12px" preserveAspectRatio="xMinYMin meet" x="13" y="-367"/>
<text text-anchor="start" x="28" y="-358.2" font-family="Helvetica,sans-Serif" font-size="11.00">ad_labelstyle_id</text>
<polygon fill="none" stroke="black" points="8,-328 8,-350 190,-350 190,-328 8,-328"/>
<image xlink:href="../../images/foreignKeys.png" width="11px" height="12px" preserveAspectRatio="xMinYMin meet" x="13" y="-345"/>
<text text-anchor="start" x="28" y="-336.2" font-family="Helvetica,sans-Serif" font-size="11.00">ad_fieldstyle_id</text>
<polygon fill="none" stroke="black" points="8,-306 8,-328 190,-328 190,-306 8,-306"/>
<image xlink:href="../../images/foreignKeys.png" width="11px" height="12px" preserveAspectRatio="xMinYMin meet" x="13" y="-323"/>
<text text-anchor="start" x="28" y="-314.2" font-family="Helvetica,sans-Serif" font-size="11.00">ad_val_rule_lookup_id</text>
<polygon fill="none" stroke="black" points="8,-284 8,-306 190,-306 190,-284 8,-284"/>
<image xlink:href="../../images/foreignKeys.png" width="11px" height="12px" preserveAspectRatio="xMinYMin meet" x="13" y="-301"/>
<text text-anchor="start" x="28" y="-292.2" font-family="Helvetica,sans-Serif" font-size="11.00">ad_chart_id</text>
<polygon fill="none" stroke="black" points="8,-266 8,-284 190,-284 190,-266 8,-266"/>
<text text-anchor="start" x="11" y="-272.2" font-family="Helvetica,sans-Serif" font-size="11.00">...</text>
<polygon fill="#ffffff" stroke="transparent" points="8,-248 8,-266 190,-266 190,-248 8,-248"/>
<polygon fill="none" stroke="black" points="8,-248 8,-266 190,-266 190,-248 8,-248"/>
<polygon fill="#ffffff" stroke="transparent" points="9,-249 9,-265 59,-265 59,-249 9,-249"/>
<text text-anchor="start" x="11" y="-254.2" font-family="Helvetica,sans-Serif" font-size="11.00">&lt; 14</text>
<polygon fill="#ffffff" stroke="transparent" points="59,-249 59,-265 146,-265 146,-249 59,-249"/>
<text text-anchor="start" x="72.5" y="-254.2" font-family="Helvetica,sans-Serif" font-size="11.00">34.945 rows</text>
<polygon fill="#ffffff" stroke="transparent" points="146,-249 146,-265 189,-265 189,-249 146,-249"/>
<text text-anchor="start" x="171" y="-254.2" font-family="Helvetica,sans-Serif" font-size="11.00">7 &gt;</text>
<polygon fill="black" stroke="black" points="59,-249 59,-265 59,-265 59,-249 59,-249"/>
<polygon fill="black" stroke="black" points="146,-249 146,-265 146,-265 146,-249 146,-249"/>
</a>
</g>
</g>
<!-- ad_field_trl&#45;&gt;ad_field -->
<g id="edge1" class="edge">
<title>ad_field_trl:w&#45;&gt;ad_field:e</title>
<path fill="none" stroke="black" d="M225.92,-422.16C162.63,-444.07 279.05,-625 191,-625"/>
<polygon fill="black" stroke="black" points="232.59,-421.17 241.03,-423.56 236.54,-420.59 240.5,-420 240.5,-420 240.5,-420 236.54,-420.59 239.97,-416.44 232.59,-421.17 232.59,-421.17"/>
<ellipse fill="none" stroke="black" cx="229.42" cy="-421.64" rx="3.2" ry="3.2"/>
</g>
<!-- ad_language -->
<g id="node3" class="node">
<title>ad_language</title>
<g id="a_node3"><a xlink:href="../../tables/ad_language.html" xlink:title="ad_language" target="_top">
<polygon fill="#ffffff" stroke="transparent" points="22.5,-37 22.5,-227 175.5,-227 175.5,-37 22.5,-37"/>
<polygon fill="#f5f5f5" stroke="transparent" points="23,-205 23,-227 176,-227 176,-205 23,-205"/>
<polygon fill="none" stroke="black" points="23,-205 23,-227 176,-227 176,-205 23,-205"/>
<text text-anchor="start" x="28" y="-214.2" font-family="Helvetica,sans-Serif" font-weight="bold" font-size="11.00">ad_language</text>
<text text-anchor="start" x="141" y="-213.2" font-family="Helvetica,sans-Serif" font-size="11.00">[table]</text>
<polygon fill="none" stroke="black" points="23,-183 23,-205 176,-205 176,-183 23,-183"/>
<image xlink:href="../../images/primaryKeys.png" width="11px" height="12px" preserveAspectRatio="xMinYMin meet" x="28" y="-200"/>
<text text-anchor="start" x="43" y="-191.2" font-family="Helvetica,sans-Serif" font-size="11.00">ad_language</text>
<polygon fill="none" stroke="black" points="23,-161 23,-183 176,-183 176,-161 23,-161"/>
<image xlink:href="../../images/foreignKeys.png" width="11px" height="12px" preserveAspectRatio="xMinYMin meet" x="28" y="-178"/>
<text text-anchor="start" x="43" y="-169.2" font-family="Helvetica,sans-Serif" font-size="11.00">ad_client_id</text>
<polygon fill="none" stroke="black" points="23,-139 23,-161 176,-161 176,-139 23,-139"/>
<image xlink:href="../../images/foreignKeys.png" width="11px" height="12px" preserveAspectRatio="xMinYMin meet" x="28" y="-156"/>
<text text-anchor="start" x="43" y="-147.2" font-family="Helvetica,sans-Serif" font-size="11.00">ad_org_id</text>
<polygon fill="#ffffff" stroke="transparent" points="23,-117 23,-139 176,-139 176,-117 23,-117"/>
<polygon fill="none" stroke="black" points="23,-117 23,-139 176,-139 176,-117 23,-117"/>
<text text-anchor="start" x="43" y="-125.2" font-family="Helvetica,sans-Serif" font-size="11.00">ad_language_id</text>
<polygon fill="#ffffff" stroke="transparent" points="23,-95 23,-117 176,-117 176,-95 23,-95"/>
<polygon fill="none" stroke="black" points="23,-95 23,-117 176,-117 176,-95 23,-95"/>
<text text-anchor="start" x="43" y="-103.2" font-family="Helvetica,sans-Serif" font-size="11.00">ad_language_uu</text>
<polygon fill="none" stroke="black" points="23,-73 23,-95 176,-95 176,-73 23,-73"/>
<image xlink:href="../../images/foreignKeys.png" width="11px" height="12px" preserveAspectRatio="xMinYMin meet" x="28" y="-90"/>
<text text-anchor="start" x="43" y="-81.2" font-family="Helvetica,sans-Serif" font-size="11.00">ad_printpaper_id</text>
<polygon fill="none" stroke="black" points="23,-55 23,-73 176,-73 176,-55 23,-55"/>
<text text-anchor="start" x="26" y="-61.2" font-family="Helvetica,sans-Serif" font-size="11.00">...</text>
<polygon fill="#ffffff" stroke="transparent" points="23,-37 23,-55 176,-55 176,-37 23,-37"/>
<polygon fill="none" stroke="black" points="23,-37 23,-55 176,-55 176,-37 23,-37"/>
<polygon fill="#ffffff" stroke="transparent" points="24,-38 24,-54 63,-54 63,-38 24,-38"/>
<text text-anchor="start" x="26" y="-43.2" font-family="Helvetica,sans-Serif" font-size="11.00">&lt; 3</text>
<polygon fill="#ffffff" stroke="transparent" points="63,-38 63,-54 131,-54 131,-38 63,-38"/>
<text text-anchor="start" x="74.5" y="-43.2" font-family="Helvetica,sans-Serif" font-size="11.00">109 rows</text>
<polygon fill="#ffffff" stroke="transparent" points="131,-38 131,-54 175,-54 175,-38 131,-38"/>
<text text-anchor="start" x="151" y="-43.2" font-family="Helvetica,sans-Serif" font-size="11.00">88 &gt;</text>
<polygon fill="black" stroke="black" points="63,-38 63,-54 63,-54 63,-38 63,-38"/>
<polygon fill="black" stroke="black" points="131,-38 131,-54 131,-54 131,-38 131,-38"/>
</a>
</g>
</g>
<!-- ad_field_trl&#45;&gt;ad_language -->
<g id="edge2" class="edge">
<title>ad_field_trl:w&#45;&gt;ad_language:e</title>
<path fill="none" stroke="black" d="M226,-395.98C159.6,-374.79 266.39,-194 177,-194"/>
<polygon fill="black" stroke="black" points="232.58,-396.9 240,-401.57 236.54,-397.45 240.5,-398 240.5,-398 240.5,-398 236.54,-397.45 241,-394.43 232.58,-396.9 232.58,-396.9"/>
<ellipse fill="none" stroke="black" cx="229.41" cy="-396.46" rx="3.2" ry="3.2"/>
</g>
</g>
</svg>
