<?xml version="1.0" encoding="UTF-8" standalone="no"?>
<!DOCTYPE svg PUBLIC "-//W3C//DTD SVG 1.1//EN"
 "http://www.w3.org/Graphics/SVG/1.1/DTD/svg11.dtd">
<!-- Generated by graphviz version 2.43.0 (0)
 -->
<!-- Title: oneDegreeRelationshipsDiagram Pages: 1 -->
<svg width="541pt" height="764pt"
 viewBox="0.00 0.00 541.00 764.00" xmlns="http://www.w3.org/2000/svg" xmlns:xlink="http://www.w3.org/1999/xlink">
<g id="graph0" class="graph" transform="scale(1 1) rotate(0) translate(4 760)">
<title>oneDegreeRelationshipsDiagram</title>
<polygon fill="#ffffff" stroke="transparent" points="-4,4 -4,-760 537,-760 537,4 -4,4"/>
<text text-anchor="middle" x="71.5" y="-7.2" font-family="Helvetica,sans-Serif" font-size="11.00">Generated by SchemaSpy</text>
<!-- ad_impformat_row -->
<g id="node1" class="node">
<title>ad_impformat_row</title>
<g id="a_node1"><a xlink:href="../../tables/ad_impformat_row.html" xlink:title="ad_impformat_row" target="_top">
<polygon fill="#ffffff" stroke="transparent" points="257,-202 257,-752 525,-752 525,-202 257,-202"/>
<polygon fill="#f5f5f5" stroke="transparent" points="259,-728 259,-750 523,-750 523,-728 259,-728"/>
<polygon fill="none" stroke="black" points="259,-728 259,-750 523,-750 523,-728 259,-728"/>
<text text-anchor="start" x="264" y="-737.2" font-family="Helvetica,sans-Serif" font-weight="bold" font-size="11.00">ad_impformat_row</text>
<text text-anchor="start" x="488" y="-736.2" font-family="Helvetica,sans-Serif" font-size="11.00">[table]</text>
<polygon fill="none" stroke="black" points="259,-706 259,-728 440,-728 440,-706 259,-706"/>
<image xlink:href="../../images/primaryKeys.png" width="11px" height="12px" preserveAspectRatio="xMinYMin meet" x="264" y="-723"/>
<text text-anchor="start" x="279" y="-714.2" font-family="Helvetica,sans-Serif" font-size="11.00">ad_impformat_row_id</text>
<polygon fill="none" stroke="black" points="440,-706 440,-728 523,-728 523,-706 440,-706"/>
<text text-anchor="start" x="443" y="-714.2" font-family="Helvetica,sans-Serif" font-size="11.00">numeric[10]</text>
<polygon fill="none" stroke="black" points="259,-684 259,-706 440,-706 440,-684 259,-684"/>
<text text-anchor="start" x="279" y="-692.2" font-family="Helvetica,sans-Serif" font-size="11.00">ad_client_id</text>
<polygon fill="none" stroke="black" points="440,-684 440,-706 523,-706 523,-684 440,-684"/>
<text text-anchor="start" x="443" y="-692.2" font-family="Helvetica,sans-Serif" font-size="11.00">numeric[10]</text>
<polygon fill="none" stroke="black" points="259,-662 259,-684 440,-684 440,-662 259,-662"/>
<text text-anchor="start" x="279" y="-670.2" font-family="Helvetica,sans-Serif" font-size="11.00">ad_org_id</text>
<polygon fill="none" stroke="black" points="440,-662 440,-684 523,-684 523,-662 440,-662"/>
<text text-anchor="start" x="443" y="-670.2" font-family="Helvetica,sans-Serif" font-size="11.00">numeric[10]</text>
<polygon fill="none" stroke="black" points="259,-640 259,-662 440,-662 440,-640 259,-640"/>
<text text-anchor="start" x="279" y="-648.2" font-family="Helvetica,sans-Serif" font-size="11.00">isactive</text>
<polygon fill="none" stroke="black" points="440,-640 440,-662 523,-662 523,-640 440,-640"/>
<text text-anchor="start" x="443" y="-648.2" font-family="Helvetica,sans-Serif" font-size="11.00">bpchar[1]</text>
<polygon fill="none" stroke="black" points="259,-618 259,-640 440,-640 440,-618 259,-618"/>
<text text-anchor="start" x="279" y="-626.2" font-family="Helvetica,sans-Serif" font-size="11.00">created</text>
<polygon fill="none" stroke="black" points="440,-618 440,-640 523,-640 523,-618 440,-618"/>
<text text-anchor="start" x="443" y="-626.2" font-family="Helvetica,sans-Serif" font-size="11.00">timestamp[29,6]</text>
<polygon fill="none" stroke="black" points="259,-596 259,-618 440,-618 440,-596 259,-596"/>
<text text-anchor="start" x="279" y="-604.2" font-family="Helvetica,sans-Serif" font-size="11.00">createdby</text>
<polygon fill="none" stroke="black" points="440,-596 440,-618 523,-618 523,-596 440,-596"/>
<text text-anchor="start" x="443" y="-604.2" font-family="Helvetica,sans-Serif" font-size="11.00">numeric[10]</text>
<polygon fill="none" stroke="black" points="259,-574 259,-596 440,-596 440,-574 259,-574"/>
<text text-anchor="start" x="279" y="-582.2" font-family="Helvetica,sans-Serif" font-size="11.00">updated</text>
<polygon fill="none" stroke="black" points="440,-574 440,-596 523,-596 523,-574 440,-574"/>
<text text-anchor="start" x="443" y="-582.2" font-family="Helvetica,sans-Serif" font-size="11.00">timestamp[29,6]</text>
<polygon fill="none" stroke="black" points="259,-552 259,-574 440,-574 440,-552 259,-552"/>
<text text-anchor="start" x="279" y="-560.2" font-family="Helvetica,sans-Serif" font-size="11.00">updatedby</text>
<polygon fill="none" stroke="black" points="440,-552 440,-574 523,-574 523,-552 440,-552"/>
<text text-anchor="start" x="443" y="-560.2" font-family="Helvetica,sans-Serif" font-size="11.00">numeric[10]</text>
<polygon fill="#ffffff" stroke="transparent" points="259,-530 259,-552 440,-552 440,-530 259,-530"/>
<polygon fill="none" stroke="black" points="259,-530 259,-552 440,-552 440,-530 259,-530"/>
<image xlink:href="../../images/foreignKeys.png" width="11px" height="12px" preserveAspectRatio="xMinYMin meet" x="264" y="-547"/>
<text text-anchor="start" x="279" y="-538.2" font-family="Helvetica,sans-Serif" font-size="11.00">ad_impformat_id</text>
<polygon fill="none" stroke="black" points="440,-530 440,-552 523,-552 523,-530 440,-530"/>
<text text-anchor="start" x="443" y="-538.2" font-family="Helvetica,sans-Serif" font-size="11.00">numeric[10]</text>
<polygon fill="none" stroke="black" points="259,-508 259,-530 440,-530 440,-508 259,-508"/>
<text text-anchor="start" x="279" y="-516.2" font-family="Helvetica,sans-Serif" font-size="11.00">seqno</text>
<polygon fill="none" stroke="black" points="440,-508 440,-530 523,-530 523,-508 440,-508"/>
<text text-anchor="start" x="443" y="-516.2" font-family="Helvetica,sans-Serif" font-size="11.00">numeric[10]</text>
<polygon fill="none" stroke="black" points="259,-486 259,-508 440,-508 440,-486 259,-486"/>
<text text-anchor="start" x="279" y="-494.2" font-family="Helvetica,sans-Serif" font-size="11.00">name</text>
<polygon fill="none" stroke="black" points="440,-486 440,-508 523,-508 523,-486 440,-486"/>
<text text-anchor="start" x="443" y="-494.2" font-family="Helvetica,sans-Serif" font-size="11.00">varchar[60]</text>
<polygon fill="#ffffff" stroke="transparent" points="259,-464 259,-486 440,-486 440,-464 259,-464"/>
<polygon fill="none" stroke="black" points="259,-464 259,-486 440,-486 440,-464 259,-464"/>
<image xlink:href="../../images/foreignKeys.png" width="11px" height="12px" preserveAspectRatio="xMinYMin meet" x="264" y="-481"/>
<text text-anchor="start" x="279" y="-472.2" font-family="Helvetica,sans-Serif" font-size="11.00">ad_column_id</text>
<polygon fill="none" stroke="black" points="440,-464 440,-486 523,-486 523,-464 440,-464"/>
<text text-anchor="start" x="443" y="-472.2" font-family="Helvetica,sans-Serif" font-size="11.00">numeric[10]</text>
<polygon fill="none" stroke="black" points="259,-442 259,-464 440,-464 440,-442 259,-442"/>
<text text-anchor="start" x="279" y="-450.2" font-family="Helvetica,sans-Serif" font-size="11.00">startno</text>
<polygon fill="none" stroke="black" points="440,-442 440,-464 523,-464 523,-442 440,-442"/>
<text text-anchor="start" x="443" y="-450.2" font-family="Helvetica,sans-Serif" font-size="11.00">numeric[10]</text>
<polygon fill="none" stroke="black" points="259,-420 259,-442 440,-442 440,-420 259,-420"/>
<text text-anchor="start" x="279" y="-428.2" font-family="Helvetica,sans-Serif" font-size="11.00">endno</text>
<polygon fill="none" stroke="black" points="440,-420 440,-442 523,-442 523,-420 440,-420"/>
<text text-anchor="start" x="443" y="-428.2" font-family="Helvetica,sans-Serif" font-size="11.00">numeric[10]</text>
<polygon fill="none" stroke="black" points="259,-398 259,-420 440,-420 440,-398 259,-398"/>
<text text-anchor="start" x="279" y="-406.2" font-family="Helvetica,sans-Serif" font-size="11.00">datatype</text>
<polygon fill="none" stroke="black" points="440,-398 440,-420 523,-420 523,-398 440,-398"/>
<text text-anchor="start" x="443" y="-406.2" font-family="Helvetica,sans-Serif" font-size="11.00">bpchar[1]</text>
<polygon fill="none" stroke="black" points="259,-376 259,-398 440,-398 440,-376 259,-376"/>
<text text-anchor="start" x="279" y="-384.2" font-family="Helvetica,sans-Serif" font-size="11.00">dataformat</text>
<polygon fill="none" stroke="black" points="440,-376 440,-398 523,-398 523,-376 440,-376"/>
<text text-anchor="start" x="443" y="-384.2" font-family="Helvetica,sans-Serif" font-size="11.00">varchar[20]</text>
<polygon fill="none" stroke="black" points="259,-354 259,-376 440,-376 440,-354 259,-354"/>
<text text-anchor="start" x="279" y="-362.2" font-family="Helvetica,sans-Serif" font-size="11.00">decimalpoint</text>
<polygon fill="none" stroke="black" points="440,-354 440,-376 523,-376 523,-354 440,-354"/>
<text text-anchor="start" x="443" y="-362.2" font-family="Helvetica,sans-Serif" font-size="11.00">bpchar[1]</text>
<polygon fill="none" stroke="black" points="259,-332 259,-354 440,-354 440,-332 259,-332"/>
<text text-anchor="start" x="279" y="-340.2" font-family="Helvetica,sans-Serif" font-size="11.00">divideby100</text>
<polygon fill="none" stroke="black" points="440,-332 440,-354 523,-354 523,-332 440,-332"/>
<text text-anchor="start" x="443" y="-340.2" font-family="Helvetica,sans-Serif" font-size="11.00">bpchar[1]</text>
<polygon fill="none" stroke="black" points="259,-310 259,-332 440,-332 440,-310 259,-310"/>
<text text-anchor="start" x="279" y="-318.2" font-family="Helvetica,sans-Serif" font-size="11.00">constantvalue</text>
<polygon fill="none" stroke="black" points="440,-310 440,-332 523,-332 523,-310 440,-310"/>
<text text-anchor="start" x="443" y="-318.2" font-family="Helvetica,sans-Serif" font-size="11.00">varchar[60]</text>
<polygon fill="none" stroke="black" points="259,-288 259,-310 440,-310 440,-288 259,-288"/>
<text text-anchor="start" x="279" y="-296.2" font-family="Helvetica,sans-Serif" font-size="11.00">callout</text>
<polygon fill="none" stroke="black" points="440,-288 440,-310 523,-310 523,-288 440,-288"/>
<text text-anchor="start" x="443" y="-296.2" font-family="Helvetica,sans-Serif" font-size="11.00">varchar[4000]</text>
<polygon fill="none" stroke="black" points="259,-266 259,-288 440,-288 440,-266 259,-266"/>
<text text-anchor="start" x="279" y="-274.2" font-family="Helvetica,sans-Serif" font-size="11.00">script</text>
<polygon fill="none" stroke="black" points="440,-266 440,-288 523,-288 523,-266 440,-266"/>
<text text-anchor="start" x="443" y="-274.2" font-family="Helvetica,sans-Serif" font-size="11.00">varchar[2000]</text>
<polygon fill="#ffffff" stroke="transparent" points="259,-244 259,-266 440,-266 440,-244 259,-244"/>
<polygon fill="none" stroke="black" points="259,-244 259,-266 440,-266 440,-244 259,-244"/>
<text text-anchor="start" x="279" y="-252.2" font-family="Helvetica,sans-Serif" font-size="11.00">ad_impformat_row_uu</text>
<polygon fill="none" stroke="black" points="440,-244 440,-266 523,-266 523,-244 440,-244"/>
<text text-anchor="start" x="443" y="-252.2" font-family="Helvetica,sans-Serif" font-size="11.00">varchar[36]</text>
<polygon fill="none" stroke="black" points="259,-222 259,-244 440,-244 440,-222 259,-222"/>
<text text-anchor="start" x="279" y="-230.2" font-family="Helvetica,sans-Serif" font-size="11.00">importprefix</text>
<polygon fill="none" stroke="black" points="440,-222 440,-244 523,-244 523,-222 440,-222"/>
<text text-anchor="start" x="443" y="-230.2" font-family="Helvetica,sans-Serif" font-size="11.00">varchar[20]</text>
<polygon fill="#ffffff" stroke="transparent" points="259,-204 259,-222 523,-222 523,-204 259,-204"/>
<polygon fill="none" stroke="black" points="259,-204 259,-222 523,-222 523,-204 259,-204"/>
<polygon fill="#ffffff" stroke="transparent" points="260,-205 260,-221 351,-221 351,-205 260,-205"/>
<text text-anchor="start" x="262" y="-210.2" font-family="Helvetica,sans-Serif" font-size="11.00">&lt; 2</text>
<polygon fill="#ffffff" stroke="transparent" points="351,-205 351,-221 432,-221 432,-205 351,-205"/>
<text text-anchor="start" x="388" y="-210.2" font-family="Helvetica,sans-Serif" font-size="11.00"> &#160;</text>
<polygon fill="#ffffff" stroke="transparent" points="432,-205 432,-221 522,-221 522,-205 432,-205"/>
<text text-anchor="start" x="504" y="-210.2" font-family="Helvetica,sans-Serif" font-size="11.00">0 &gt;</text>
<polygon fill="black" stroke="black" points="351,-205 351,-221 351,-221 351,-205 351,-205"/>
<polygon fill="black" stroke="black" points="432,-205 432,-221 432,-221 432,-205 432,-205"/>
<polygon fill="none" stroke="black" stroke-width="2" points="258,-203 258,-751 524,-751 524,-203 258,-203"/>
</a>
</g>
</g>
<!-- ad_column -->
<g id="node2" class="node">
<title>ad_column</title>
<g id="a_node2"><a xlink:href="../../tables/ad_column.html" xlink:title="ad_column" target="_top">
<polygon fill="#ffffff" stroke="transparent" points="8,-37 8,-447 208,-447 208,-37 8,-37"/>
<polygon fill="#f5f5f5" stroke="transparent" points="8,-425 8,-447 208,-447 208,-425 8,-425"/>
<polygon fill="none" stroke="black" points="8,-425 8,-447 208,-447 208,-425 8,-425"/>
<text text-anchor="start" x="13" y="-434.2" font-family="Helvetica,sans-Serif" font-weight="bold" font-size="11.00">ad_column</text>
<text text-anchor="start" x="173" y="-433.2" font-family="Helvetica,sans-Serif" font-size="11.00">[table]</text>
<polygon fill="none" stroke="black" points="8,-403 8,-425 208,-425 208,-403 8,-403"/>
<image xlink:href="../../images/primaryKeys.png" width="11px" height="12px" preserveAspectRatio="xMinYMin meet" x="13" y="-420"/>
<text text-anchor="start" x="28" y="-411.2" font-family="Helvetica,sans-Serif" font-size="11.00">ad_column_id</text>
<polygon fill="none" stroke="black" points="8,-381 8,-403 208,-403 208,-381 8,-381"/>
<image xlink:href="../../images/foreignKeys.png" width="11px" height="12px" preserveAspectRatio="xMinYMin meet" x="13" y="-398"/>
<text text-anchor="start" x="28" y="-389.2" font-family="Helvetica,sans-Serif" font-size="11.00">ad_client_id</text>
<polygon fill="none" stroke="black" points="8,-359 8,-381 208,-381 208,-359 8,-359"/>
<image xlink:href="../../images/foreignKeys.png" width="11px" height="12px" preserveAspectRatio="xMinYMin meet" x="13" y="-376"/>
<text text-anchor="start" x="28" y="-367.2" font-family="Helvetica,sans-Serif" font-size="11.00">ad_org_id</text>
<polygon fill="none" stroke="black" points="8,-337 8,-359 208,-359 208,-337 8,-337"/>
<image xlink:href="../../images/foreignKeys.png" width="11px" height="12px" preserveAspectRatio="xMinYMin meet" x="13" y="-354"/>
<text text-anchor="start" x="28" y="-345.2" font-family="Helvetica,sans-Serif" font-size="11.00">entitytype</text>
<polygon fill="#ffffff" stroke="transparent" points="8,-315 8,-337 208,-337 208,-315 8,-315"/>
<polygon fill="none" stroke="black" points="8,-315 8,-337 208,-337 208,-315 8,-315"/>
<image xlink:href="../../images/foreignKeys.png" width="11px" height="12px" preserveAspectRatio="xMinYMin meet" x="13" y="-332"/>
<text text-anchor="start" x="28" y="-323.2" font-family="Helvetica,sans-Serif" font-size="11.00">ad_table_id</text>
<polygon fill="none" stroke="black" points="8,-293 8,-315 208,-315 208,-293 8,-293"/>
<image xlink:href="../../images/foreignKeys.png" width="11px" height="12px" preserveAspectRatio="xMinYMin meet" x="13" y="-310"/>
<text text-anchor="start" x="28" y="-301.2" font-family="Helvetica,sans-Serif" font-size="11.00">ad_reference_id</text>
<polygon fill="none" stroke="black" points="8,-271 8,-293 208,-293 208,-271 8,-271"/>
<image xlink:href="../../images/foreignKeys.png" width="11px" height="12px" preserveAspectRatio="xMinYMin meet" x="13" y="-288"/>
<text text-anchor="start" x="28" y="-279.2" font-family="Helvetica,sans-Serif" font-size="11.00">ad_reference_value_id</text>
<polygon fill="none" stroke="black" points="8,-249 8,-271 208,-271 208,-249 8,-249"/>
<image xlink:href="../../images/foreignKeys.png" width="11px" height="12px" preserveAspectRatio="xMinYMin meet" x="13" y="-266"/>
<text text-anchor="start" x="28" y="-257.2" font-family="Helvetica,sans-Serif" font-size="11.00">ad_val_rule_id</text>
<polygon fill="none" stroke="black" points="8,-227 8,-249 208,-249 208,-227 8,-227"/>
<image xlink:href="../../images/foreignKeys.png" width="11px" height="12px" preserveAspectRatio="xMinYMin meet" x="13" y="-244"/>
<text text-anchor="start" x="28" y="-235.2" font-family="Helvetica,sans-Serif" font-size="11.00">ad_element_id</text>
<polygon fill="#ffffff" stroke="transparent" points="8,-205 8,-227 208,-227 208,-205 8,-205"/>
<polygon fill="none" stroke="black" points="8,-205 8,-227 208,-227 208,-205 8,-205"/>
<image xlink:href="../../images/foreignKeys.png" width="11px" height="12px" preserveAspectRatio="xMinYMin meet" x="13" y="-222"/>
<text text-anchor="start" x="28" y="-213.2" font-family="Helvetica,sans-Serif" font-size="11.00">ad_process_id</text>
<polygon fill="#ffffff" stroke="transparent" points="8,-183 8,-205 208,-205 208,-183 8,-183"/>
<polygon fill="none" stroke="black" points="8,-183 8,-205 208,-205 208,-183 8,-183"/>
<text text-anchor="start" x="28" y="-191.2" font-family="Helvetica,sans-Serif" font-size="11.00">ad_column_uu</text>
<polygon fill="none" stroke="black" points="8,-161 8,-183 208,-183 208,-161 8,-161"/>
<image xlink:href="../../images/foreignKeys.png" width="11px" height="12px" preserveAspectRatio="xMinYMin meet" x="13" y="-178"/>
<text text-anchor="start" x="28" y="-169.2" font-family="Helvetica,sans-Serif" font-size="11.00">ad_chart_id</text>
<polygon fill="none" stroke="black" points="8,-139 8,-161 208,-161 208,-139 8,-139"/>
<image xlink:href="../../images/foreignKeys.png" width="11px" height="12px" preserveAspectRatio="xMinYMin meet" x="13" y="-156"/>
<text text-anchor="start" x="28" y="-147.2" font-family="Helvetica,sans-Serif" font-size="11.00">pa_dashboardcontent_id</text>
<polygon fill="none" stroke="black" points="8,-117 8,-139 208,-139 208,-117 8,-117"/>
<image xlink:href="../../images/foreignKeys.png" width="11px" height="12px" preserveAspectRatio="xMinYMin meet" x="13" y="-134"/>
<text text-anchor="start" x="28" y="-125.2" font-family="Helvetica,sans-Serif" font-size="11.00">ad_val_rule_lookup_id</text>
<polygon fill="none" stroke="black" points="8,-95 8,-117 208,-117 208,-95 8,-95"/>
<image xlink:href="../../images/foreignKeys.png" width="11px" height="12px" preserveAspectRatio="xMinYMin meet" x="13" y="-112"/>
<text text-anchor="start" x="28" y="-103.2" font-family="Helvetica,sans-Serif" font-size="11.00">ad_infowindow_id</text>
<polygon fill="none" stroke="black" points="8,-73 8,-95 208,-95 208,-73 8,-73"/>
<image xlink:href="../../images/foreignKeys.png" width="11px" height="12px" preserveAspectRatio="xMinYMin meet" x="13" y="-90"/>
<text text-anchor="start" x="28" y="-81.2" font-family="Helvetica,sans-Serif" font-size="11.00">fkconstraintmsg_id</text>
<polygon fill="none" stroke="black" points="8,-55 8,-73 208,-73 208,-55 8,-55"/>
<text text-anchor="start" x="11" y="-61.2" font-family="Helvetica,sans-Serif" font-size="11.00">...</text>
<polygon fill="#ffffff" stroke="transparent" points="8,-37 8,-55 208,-55 208,-37 8,-37"/>
<polygon fill="none" stroke="black" points="8,-37 8,-55 208,-55 208,-37 8,-37"/>
<polygon fill="#ffffff" stroke="transparent" points="9,-38 9,-54 63,-54 63,-38 9,-38"/>
<text text-anchor="start" x="11" y="-43.2" font-family="Helvetica,sans-Serif" font-size="11.00">&lt; 14</text>
<polygon fill="#ffffff" stroke="transparent" points="63,-38 63,-54 154,-54 154,-38 63,-38"/>
<text text-anchor="start" x="78.5" y="-43.2" font-family="Helvetica,sans-Serif" font-size="11.00">39.404 rows</text>
<polygon fill="#ffffff" stroke="transparent" points="154,-38 154,-54 207,-54 207,-38 154,-38"/>
<text text-anchor="start" x="183" y="-43.2" font-family="Helvetica,sans-Serif" font-size="11.00">34 &gt;</text>
<polygon fill="black" stroke="black" points="63,-38 63,-54 63,-54 63,-38 63,-38"/>
<polygon fill="black" stroke="black" points="154,-38 154,-54 154,-54 154,-38 154,-38"/>
</a>
</g>
</g>
<!-- ad_impformat_row&#45;&gt;ad_column -->
<g id="edge1" class="edge">
<title>ad_impformat_row:w&#45;&gt;ad_column:e</title>
<path fill="none" stroke="black" d="M244.41,-470.21C228.65,-455.83 237.8,-414 209,-414"/>
<polygon fill="black" stroke="black" points="250.45,-472.34 256.8,-478.4 254.23,-473.67 258,-475 258,-475 258,-475 254.23,-473.67 259.2,-471.6 250.45,-472.34 250.45,-472.34"/>
<ellipse fill="none" stroke="black" cx="247.44" cy="-471.28" rx="3.2" ry="3.2"/>
</g>
<!-- ad_impformat -->
<g id="node3" class="node">
<title>ad_impformat</title>
<g id="a_node3"><a xlink:href="../../tables/ad_impformat.html" xlink:title="ad_impformat" target="_top">
<polygon fill="#ffffff" stroke="transparent" points="34.5,-468 34.5,-636 181.5,-636 181.5,-468 34.5,-468"/>
<polygon fill="#f5f5f5" stroke="transparent" points="35,-614 35,-636 182,-636 182,-614 35,-614"/>
<polygon fill="none" stroke="black" points="35,-614 35,-636 182,-636 182,-614 35,-614"/>
<text text-anchor="start" x="40" y="-623.2" font-family="Helvetica,sans-Serif" font-weight="bold" font-size="11.00">ad_impformat</text>
<text text-anchor="start" x="147" y="-622.2" font-family="Helvetica,sans-Serif" font-size="11.00">[table]</text>
<polygon fill="none" stroke="black" points="35,-592 35,-614 182,-614 182,-592 35,-592"/>
<image xlink:href="../../images/primaryKeys.png" width="11px" height="12px" preserveAspectRatio="xMinYMin meet" x="40" y="-609"/>
<text text-anchor="start" x="55" y="-600.2" font-family="Helvetica,sans-Serif" font-size="11.00">ad_impformat_id</text>
<polygon fill="#ffffff" stroke="transparent" points="35,-570 35,-592 182,-592 182,-570 35,-570"/>
<polygon fill="none" stroke="black" points="35,-570 35,-592 182,-592 182,-570 35,-570"/>
<text text-anchor="start" x="55" y="-578.2" font-family="Helvetica,sans-Serif" font-size="11.00">ad_client_id</text>
<polygon fill="#ffffff" stroke="transparent" points="35,-548 35,-570 182,-570 182,-548 35,-548"/>
<polygon fill="none" stroke="black" points="35,-548 35,-570 182,-570 182,-548 35,-548"/>
<text text-anchor="start" x="55" y="-556.2" font-family="Helvetica,sans-Serif" font-size="11.00">name</text>
<polygon fill="none" stroke="black" points="35,-526 35,-548 182,-548 182,-526 35,-526"/>
<image xlink:href="../../images/foreignKeys.png" width="11px" height="12px" preserveAspectRatio="xMinYMin meet" x="40" y="-543"/>
<text text-anchor="start" x="55" y="-534.2" font-family="Helvetica,sans-Serif" font-size="11.00">ad_table_id</text>
<polygon fill="#ffffff" stroke="transparent" points="35,-504 35,-526 182,-526 182,-504 35,-504"/>
<polygon fill="none" stroke="black" points="35,-504 35,-526 182,-526 182,-504 35,-504"/>
<text text-anchor="start" x="55" y="-512.2" font-family="Helvetica,sans-Serif" font-size="11.00">ad_impformat_uu</text>
<polygon fill="none" stroke="black" points="35,-486 35,-504 182,-504 182,-486 35,-486"/>
<text text-anchor="start" x="38" y="-492.2" font-family="Helvetica,sans-Serif" font-size="11.00">...</text>
<polygon fill="#ffffff" stroke="transparent" points="35,-468 35,-486 182,-486 182,-468 35,-468"/>
<polygon fill="none" stroke="black" points="35,-468 35,-486 182,-486 182,-468 35,-468"/>
<polygon fill="#ffffff" stroke="transparent" points="36,-469 36,-485 77,-485 77,-469 36,-469"/>
<text text-anchor="start" x="38" y="-474.2" font-family="Helvetica,sans-Serif" font-size="11.00">&lt; 1</text>
<polygon fill="#ffffff" stroke="transparent" points="77,-469 77,-485 141,-485 141,-469 77,-469"/>
<text text-anchor="start" x="89.5" y="-474.2" font-family="Helvetica,sans-Serif" font-size="11.00">13 rows</text>
<polygon fill="#ffffff" stroke="transparent" points="141,-469 141,-485 181,-485 181,-469 141,-469"/>
<text text-anchor="start" x="163" y="-474.2" font-family="Helvetica,sans-Serif" font-size="11.00">3 &gt;</text>
<polygon fill="black" stroke="black" points="77,-469 77,-485 77,-485 77,-469 77,-469"/>
<polygon fill="black" stroke="black" points="141,-469 141,-485 141,-485 141,-469 141,-469"/>
</a>
</g>
</g>
<!-- ad_impformat_row&#45;&gt;ad_impformat -->
<g id="edge2" class="edge">
<title>ad_impformat_row:w&#45;&gt;ad_impformat:e</title>
<path fill="none" stroke="black" d="M243.77,-543.83C216.81,-555.95 220.67,-603 183,-603"/>
<polygon fill="black" stroke="black" points="250.15,-542.56 258.7,-544.53 254.08,-541.78 258,-541 258,-541 258,-541 254.08,-541.78 257.3,-537.47 250.15,-542.56 250.15,-542.56"/>
<ellipse fill="none" stroke="black" cx="247.01" cy="-543.18" rx="3.2" ry="3.2"/>
</g>
</g>
</svg>
