<?xml version="1.0" encoding="UTF-8" standalone="no"?>
<!DOCTYPE svg PUBLIC "-//W3C//DTD SVG 1.1//EN"
 "http://www.w3.org/Graphics/SVG/1.1/DTD/svg11.dtd">
<!-- Generated by graphviz version 2.43.0 (0)
 -->
<!-- Title: oneDegreeRelationshipsDiagram Pages: 1 -->
<svg width="564pt" height="599pt"
 viewBox="0.00 0.00 564.00 599.00" xmlns="http://www.w3.org/2000/svg" xmlns:xlink="http://www.w3.org/1999/xlink">
<g id="graph0" class="graph" transform="scale(1 1) rotate(0) translate(4 595)">
<title>oneDegreeRelationshipsDiagram</title>
<polygon fill="#ffffff" stroke="transparent" points="-4,4 -4,-595 560,-595 560,4 -4,4"/>
<text text-anchor="middle" x="71.5" y="-7.2" font-family="Helvetica,sans-Serif" font-size="11.00">Generated by SchemaSpy</text>
<!-- ad_labelassignment -->
<g id="node1" class="node">
<title>ad_labelassignment</title>
<g id="a_node1"><a xlink:href="../../tables/ad_labelassignment.html" xlink:title="ad_labelassignment" target="_top">
<polygon fill="#ffffff" stroke="transparent" points="270,-235 270,-587 548,-587 548,-235 270,-235"/>
<polygon fill="#f5f5f5" stroke="transparent" points="272,-563 272,-585 546,-585 546,-563 272,-563"/>
<polygon fill="none" stroke="black" points="272,-563 272,-585 546,-585 546,-563 272,-563"/>
<text text-anchor="start" x="277" y="-572.2" font-family="Helvetica,sans-Serif" font-weight="bold" font-size="11.00">ad_labelassignment</text>
<text text-anchor="start" x="511" y="-571.2" font-family="Helvetica,sans-Serif" font-size="11.00">[table]</text>
<polygon fill="none" stroke="black" points="272,-541 272,-563 463,-563 463,-541 272,-541"/>
<image xlink:href="../../images/primaryKeys.png" width="11px" height="12px" preserveAspectRatio="xMinYMin meet" x="277" y="-558"/>
<text text-anchor="start" x="292" y="-549.2" font-family="Helvetica,sans-Serif" font-size="11.00">ad_labelassignment_id</text>
<polygon fill="none" stroke="black" points="463,-541 463,-563 546,-563 546,-541 463,-541"/>
<text text-anchor="start" x="466" y="-549.2" font-family="Helvetica,sans-Serif" font-size="11.00">numeric[10]</text>
<polygon fill="#ffffff" stroke="transparent" points="272,-519 272,-541 463,-541 463,-519 272,-519"/>
<polygon fill="none" stroke="black" points="272,-519 272,-541 463,-541 463,-519 272,-519"/>
<text text-anchor="start" x="292" y="-527.2" font-family="Helvetica,sans-Serif" font-size="11.00">ad_labelassignment_uu</text>
<polygon fill="none" stroke="black" points="463,-519 463,-541 546,-541 546,-519 463,-519"/>
<text text-anchor="start" x="466" y="-527.2" font-family="Helvetica,sans-Serif" font-size="11.00">varchar[36]</text>
<polygon fill="none" stroke="black" points="272,-497 272,-519 463,-519 463,-497 272,-497"/>
<text text-anchor="start" x="292" y="-505.2" font-family="Helvetica,sans-Serif" font-size="11.00">ad_client_id</text>
<polygon fill="none" stroke="black" points="463,-497 463,-519 546,-519 546,-497 463,-497"/>
<text text-anchor="start" x="466" y="-505.2" font-family="Helvetica,sans-Serif" font-size="11.00">numeric[10]</text>
<polygon fill="none" stroke="black" points="272,-475 272,-497 463,-497 463,-475 272,-475"/>
<text text-anchor="start" x="292" y="-483.2" font-family="Helvetica,sans-Serif" font-size="11.00">ad_org_id</text>
<polygon fill="none" stroke="black" points="463,-475 463,-497 546,-497 546,-475 463,-475"/>
<text text-anchor="start" x="466" y="-483.2" font-family="Helvetica,sans-Serif" font-size="11.00">numeric[10]</text>
<polygon fill="none" stroke="black" points="272,-453 272,-475 463,-475 463,-453 272,-453"/>
<text text-anchor="start" x="292" y="-461.2" font-family="Helvetica,sans-Serif" font-size="11.00">created</text>
<polygon fill="none" stroke="black" points="463,-453 463,-475 546,-475 546,-453 463,-453"/>
<text text-anchor="start" x="466" y="-461.2" font-family="Helvetica,sans-Serif" font-size="11.00">timestamp[29,6]</text>
<polygon fill="none" stroke="black" points="272,-431 272,-453 463,-453 463,-431 272,-431"/>
<text text-anchor="start" x="292" y="-439.2" font-family="Helvetica,sans-Serif" font-size="11.00">createdby</text>
<polygon fill="none" stroke="black" points="463,-431 463,-453 546,-453 546,-431 463,-431"/>
<text text-anchor="start" x="466" y="-439.2" font-family="Helvetica,sans-Serif" font-size="11.00">numeric[10]</text>
<polygon fill="none" stroke="black" points="272,-409 272,-431 463,-431 463,-409 272,-409"/>
<text text-anchor="start" x="292" y="-417.2" font-family="Helvetica,sans-Serif" font-size="11.00">updated</text>
<polygon fill="none" stroke="black" points="463,-409 463,-431 546,-431 546,-409 463,-409"/>
<text text-anchor="start" x="466" y="-417.2" font-family="Helvetica,sans-Serif" font-size="11.00">timestamp[29,6]</text>
<polygon fill="none" stroke="black" points="272,-387 272,-409 463,-409 463,-387 272,-387"/>
<text text-anchor="start" x="292" y="-395.2" font-family="Helvetica,sans-Serif" font-size="11.00">updatedby</text>
<polygon fill="none" stroke="black" points="463,-387 463,-409 546,-409 546,-387 463,-387"/>
<text text-anchor="start" x="466" y="-395.2" font-family="Helvetica,sans-Serif" font-size="11.00">numeric[10]</text>
<polygon fill="none" stroke="black" points="272,-365 272,-387 463,-387 463,-365 272,-365"/>
<text text-anchor="start" x="292" y="-373.2" font-family="Helvetica,sans-Serif" font-size="11.00">isactive</text>
<polygon fill="none" stroke="black" points="463,-365 463,-387 546,-387 546,-365 463,-365"/>
<text text-anchor="start" x="466" y="-373.2" font-family="Helvetica,sans-Serif" font-size="11.00">bpchar[1]</text>
<polygon fill="none" stroke="black" points="272,-343 272,-365 463,-365 463,-343 272,-343"/>
<text text-anchor="start" x="292" y="-351.2" font-family="Helvetica,sans-Serif" font-size="11.00">description</text>
<polygon fill="none" stroke="black" points="463,-343 463,-365 546,-365 546,-343 463,-343"/>
<text text-anchor="start" x="466" y="-351.2" font-family="Helvetica,sans-Serif" font-size="11.00">varchar[255]</text>
<polygon fill="none" stroke="black" points="272,-321 272,-343 463,-343 463,-321 272,-321"/>
<image xlink:href="../../images/foreignKeys.png" width="11px" height="12px" preserveAspectRatio="xMinYMin meet" x="277" y="-338"/>
<text text-anchor="start" x="292" y="-329.2" font-family="Helvetica,sans-Serif" font-size="11.00">ad_label_id</text>
<polygon fill="none" stroke="black" points="463,-321 463,-343 546,-343 546,-321 463,-321"/>
<text text-anchor="start" x="466" y="-329.2" font-family="Helvetica,sans-Serif" font-size="11.00">numeric[10]</text>
<polygon fill="#ffffff" stroke="transparent" points="272,-299 272,-321 463,-321 463,-299 272,-299"/>
<polygon fill="none" stroke="black" points="272,-299 272,-321 463,-321 463,-299 272,-299"/>
<image xlink:href="../../images/foreignKeys.png" width="11px" height="12px" preserveAspectRatio="xMinYMin meet" x="277" y="-316"/>
<text text-anchor="start" x="292" y="-307.2" font-family="Helvetica,sans-Serif" font-size="11.00">ad_table_id</text>
<polygon fill="none" stroke="black" points="463,-299 463,-321 546,-321 546,-299 463,-299"/>
<text text-anchor="start" x="466" y="-307.2" font-family="Helvetica,sans-Serif" font-size="11.00">numeric[10]</text>
<polygon fill="#ffffff" stroke="transparent" points="272,-277 272,-299 463,-299 463,-277 272,-277"/>
<polygon fill="none" stroke="black" points="272,-277 272,-299 463,-299 463,-277 272,-277"/>
<text text-anchor="start" x="292" y="-285.2" font-family="Helvetica,sans-Serif" font-size="11.00">record_id</text>
<polygon fill="none" stroke="black" points="463,-277 463,-299 546,-299 546,-277 463,-277"/>
<text text-anchor="start" x="466" y="-285.2" font-family="Helvetica,sans-Serif" font-size="11.00">numeric[10]</text>
<polygon fill="#ffffff" stroke="transparent" points="272,-255 272,-277 463,-277 463,-255 272,-255"/>
<polygon fill="none" stroke="black" points="272,-255 272,-277 463,-277 463,-255 272,-255"/>
<text text-anchor="start" x="292" y="-263.2" font-family="Helvetica,sans-Serif" font-size="11.00">record_uu</text>
<polygon fill="none" stroke="black" points="463,-255 463,-277 546,-277 546,-255 463,-255"/>
<text text-anchor="start" x="466" y="-263.2" font-family="Helvetica,sans-Serif" font-size="11.00">varchar[36]</text>
<polygon fill="#ffffff" stroke="transparent" points="272,-237 272,-255 546,-255 546,-237 272,-237"/>
<polygon fill="none" stroke="black" points="272,-237 272,-255 546,-255 546,-237 272,-237"/>
<polygon fill="#ffffff" stroke="transparent" points="273,-238 273,-254 367,-254 367,-238 273,-238"/>
<text text-anchor="start" x="275" y="-243.2" font-family="Helvetica,sans-Serif" font-size="11.00">&lt; 2</text>
<polygon fill="#ffffff" stroke="transparent" points="367,-238 367,-254 452,-254 452,-238 367,-238"/>
<text text-anchor="start" x="406" y="-243.2" font-family="Helvetica,sans-Serif" font-size="11.00"> &#160;</text>
<polygon fill="#ffffff" stroke="transparent" points="452,-238 452,-254 545,-254 545,-238 452,-238"/>
<text text-anchor="start" x="527" y="-243.2" font-family="Helvetica,sans-Serif" font-size="11.00">0 &gt;</text>
<polygon fill="black" stroke="black" points="367,-238 367,-254 367,-254 367,-238 367,-238"/>
<polygon fill="black" stroke="black" points="452,-238 452,-254 452,-254 452,-238 452,-238"/>
<polygon fill="none" stroke="black" stroke-width="2" points="271,-236 271,-586 547,-586 547,-236 271,-236"/>
</a>
</g>
</g>
<!-- ad_label -->
<g id="node2" class="node">
<title>ad_label</title>
<g id="a_node2"><a xlink:href="../../tables/ad_label.html" xlink:title="ad_label" target="_top">
<polygon fill="#ffffff" stroke="transparent" points="31.5,-292 31.5,-438 197.5,-438 197.5,-292 31.5,-292"/>
<polygon fill="#f5f5f5" stroke="transparent" points="31.5,-416 31.5,-438 197.5,-438 197.5,-416 31.5,-416"/>
<polygon fill="none" stroke="black" points="31.5,-416 31.5,-438 197.5,-438 197.5,-416 31.5,-416"/>
<text text-anchor="start" x="36.5" y="-425.2" font-family="Helvetica,sans-Serif" font-weight="bold" font-size="11.00">ad_label</text>
<text text-anchor="start" x="162.5" y="-424.2" font-family="Helvetica,sans-Serif" font-size="11.00">[table]</text>
<polygon fill="none" stroke="black" points="31.5,-394 31.5,-416 197.5,-416 197.5,-394 31.5,-394"/>
<image xlink:href="../../images/primaryKeys.png" width="11px" height="12px" preserveAspectRatio="xMinYMin meet" x="36.5" y="-411"/>
<text text-anchor="start" x="51.5" y="-402.2" font-family="Helvetica,sans-Serif" font-size="11.00">ad_label_id</text>
<polygon fill="#ffffff" stroke="transparent" points="31.5,-372 31.5,-394 197.5,-394 197.5,-372 31.5,-372"/>
<polygon fill="none" stroke="black" points="31.5,-372 31.5,-394 197.5,-394 197.5,-372 31.5,-372"/>
<text text-anchor="start" x="51.5" y="-380.2" font-family="Helvetica,sans-Serif" font-size="11.00">ad_label_uu</text>
<polygon fill="none" stroke="black" points="31.5,-350 31.5,-372 197.5,-372 197.5,-350 31.5,-350"/>
<image xlink:href="../../images/foreignKeys.png" width="11px" height="12px" preserveAspectRatio="xMinYMin meet" x="36.5" y="-367"/>
<text text-anchor="start" x="51.5" y="-358.2" font-family="Helvetica,sans-Serif" font-size="11.00">ad_labelcategory_id</text>
<polygon fill="none" stroke="black" points="31.5,-328 31.5,-350 197.5,-350 197.5,-328 31.5,-328"/>
<image xlink:href="../../images/foreignKeys.png" width="11px" height="12px" preserveAspectRatio="xMinYMin meet" x="36.5" y="-345"/>
<text text-anchor="start" x="51.5" y="-336.2" font-family="Helvetica,sans-Serif" font-size="11.00">ad_labelstyle_id</text>
<polygon fill="none" stroke="black" points="31.5,-310 31.5,-328 197.5,-328 197.5,-310 31.5,-310"/>
<text text-anchor="start" x="34.5" y="-316.2" font-family="Helvetica,sans-Serif" font-size="11.00">...</text>
<polygon fill="#ffffff" stroke="transparent" points="31.5,-292 31.5,-310 197.5,-310 197.5,-292 31.5,-292"/>
<polygon fill="none" stroke="black" points="31.5,-292 31.5,-310 197.5,-310 197.5,-292 31.5,-292"/>
<polygon fill="#ffffff" stroke="transparent" points="32.5,-293 32.5,-309 90.5,-309 90.5,-293 32.5,-293"/>
<text text-anchor="start" x="34.5" y="-298.2" font-family="Helvetica,sans-Serif" font-size="11.00">&lt; 2</text>
<polygon fill="#ffffff" stroke="transparent" points="90.5,-293 90.5,-309 139.5,-309 139.5,-293 90.5,-293"/>
<text text-anchor="start" x="111.5" y="-298.2" font-family="Helvetica,sans-Serif" font-size="11.00"> &#160;</text>
<polygon fill="#ffffff" stroke="transparent" points="139.5,-293 139.5,-309 196.5,-309 196.5,-293 139.5,-293"/>
<text text-anchor="start" x="178.5" y="-298.2" font-family="Helvetica,sans-Serif" font-size="11.00">2 &gt;</text>
<polygon fill="black" stroke="black" points="90.5,-293 90.5,-309 90.5,-309 90.5,-293 90.5,-293"/>
<polygon fill="black" stroke="black" points="139.5,-293 139.5,-309 139.5,-309 139.5,-293 139.5,-293"/>
</a>
</g>
</g>
<!-- ad_labelassignment&#45;&gt;ad_label -->
<g id="edge1" class="edge">
<title>ad_labelassignment:w&#45;&gt;ad_label:e</title>
<path fill="none" stroke="black" d="M256.63,-335.14C229,-349.11 238.51,-405 198.5,-405"/>
<polygon fill="black" stroke="black" points="263.18,-333.71 271.77,-335.52 267.09,-332.85 271,-332 271,-332 271,-332 267.09,-332.85 270.23,-328.48 263.18,-333.71 263.18,-333.71"/>
<ellipse fill="none" stroke="black" cx="260.06" cy="-334.39" rx="3.2" ry="3.2"/>
</g>
<!-- ad_table -->
<g id="node3" class="node">
<title>ad_table</title>
<g id="a_node3"><a xlink:href="../../tables/ad_table.html" xlink:title="ad_table" target="_top">
<polygon fill="#ffffff" stroke="transparent" points="8,-37 8,-271 221,-271 221,-37 8,-37"/>
<polygon fill="#f5f5f5" stroke="transparent" points="8.5,-249 8.5,-271 221.5,-271 221.5,-249 8.5,-249"/>
<polygon fill="none" stroke="black" points="8.5,-249 8.5,-271 221.5,-271 221.5,-249 8.5,-249"/>
<text text-anchor="start" x="13.5" y="-258.2" font-family="Helvetica,sans-Serif" font-weight="bold" font-size="11.00">ad_table</text>
<text text-anchor="start" x="186.5" y="-257.2" font-family="Helvetica,sans-Serif" font-size="11.00">[table]</text>
<polygon fill="none" stroke="black" points="8.5,-227 8.5,-249 221.5,-249 221.5,-227 8.5,-227"/>
<image xlink:href="../../images/primaryKeys.png" width="11px" height="12px" preserveAspectRatio="xMinYMin meet" x="13.5" y="-244"/>
<text text-anchor="start" x="28.5" y="-235.2" font-family="Helvetica,sans-Serif" font-size="11.00">ad_table_id</text>
<polygon fill="none" stroke="black" points="8.5,-205 8.5,-227 221.5,-227 221.5,-205 8.5,-205"/>
<image xlink:href="../../images/foreignKeys.png" width="11px" height="12px" preserveAspectRatio="xMinYMin meet" x="13.5" y="-222"/>
<text text-anchor="start" x="28.5" y="-213.2" font-family="Helvetica,sans-Serif" font-size="11.00">ad_client_id</text>
<polygon fill="none" stroke="black" points="8.5,-183 8.5,-205 221.5,-205 221.5,-183 8.5,-183"/>
<image xlink:href="../../images/foreignKeys.png" width="11px" height="12px" preserveAspectRatio="xMinYMin meet" x="13.5" y="-200"/>
<text text-anchor="start" x="28.5" y="-191.2" font-family="Helvetica,sans-Serif" font-size="11.00">ad_org_id</text>
<polygon fill="none" stroke="black" points="8.5,-161 8.5,-183 221.5,-183 221.5,-161 8.5,-161"/>
<image xlink:href="../../images/foreignKeys.png" width="11px" height="12px" preserveAspectRatio="xMinYMin meet" x="13.5" y="-178"/>
<text text-anchor="start" x="28.5" y="-169.2" font-family="Helvetica,sans-Serif" font-size="11.00">entitytype</text>
<polygon fill="none" stroke="black" points="8.5,-139 8.5,-161 221.5,-161 221.5,-139 8.5,-139"/>
<image xlink:href="../../images/foreignKeys.png" width="11px" height="12px" preserveAspectRatio="xMinYMin meet" x="13.5" y="-156"/>
<text text-anchor="start" x="28.5" y="-147.2" font-family="Helvetica,sans-Serif" font-size="11.00">ad_window_id</text>
<polygon fill="none" stroke="black" points="8.5,-117 8.5,-139 221.5,-139 221.5,-117 8.5,-117"/>
<image xlink:href="../../images/foreignKeys.png" width="11px" height="12px" preserveAspectRatio="xMinYMin meet" x="13.5" y="-134"/>
<text text-anchor="start" x="28.5" y="-125.2" font-family="Helvetica,sans-Serif" font-size="11.00">ad_val_rule_id</text>
<polygon fill="none" stroke="black" points="8.5,-95 8.5,-117 221.5,-117 221.5,-95 8.5,-95"/>
<image xlink:href="../../images/foreignKeys.png" width="11px" height="12px" preserveAspectRatio="xMinYMin meet" x="13.5" y="-112"/>
<text text-anchor="start" x="28.5" y="-103.2" font-family="Helvetica,sans-Serif" font-size="11.00">po_window_id</text>
<polygon fill="#ffffff" stroke="transparent" points="8.5,-73 8.5,-95 221.5,-95 221.5,-73 8.5,-73"/>
<polygon fill="none" stroke="black" points="8.5,-73 8.5,-95 221.5,-95 221.5,-73 8.5,-73"/>
<text text-anchor="start" x="28.5" y="-81.2" font-family="Helvetica,sans-Serif" font-size="11.00">ad_table_uu</text>
<polygon fill="none" stroke="black" points="8.5,-55 8.5,-73 221.5,-73 221.5,-55 8.5,-55"/>
<text text-anchor="start" x="11.5" y="-61.2" font-family="Helvetica,sans-Serif" font-size="11.00">...</text>
<polygon fill="#ffffff" stroke="transparent" points="8.5,-37 8.5,-55 221.5,-55 221.5,-37 8.5,-37"/>
<polygon fill="none" stroke="black" points="8.5,-37 8.5,-55 221.5,-55 221.5,-37 8.5,-37"/>
<polygon fill="#ffffff" stroke="transparent" points="9.5,-38 9.5,-54 65.5,-54 65.5,-38 9.5,-38"/>
<text text-anchor="start" x="11.5" y="-43.2" font-family="Helvetica,sans-Serif" font-size="11.00">&lt; 6</text>
<polygon fill="#ffffff" stroke="transparent" points="65.5,-38 65.5,-54 159.5,-54 159.5,-38 65.5,-38"/>
<text text-anchor="start" x="85.5" y="-43.2" font-family="Helvetica,sans-Serif" font-size="11.00">1.443 rows</text>
<polygon fill="#ffffff" stroke="transparent" points="159.5,-38 159.5,-54 220.5,-54 220.5,-38 159.5,-38"/>
<text text-anchor="start" x="196.5" y="-43.2" font-family="Helvetica,sans-Serif" font-size="11.00">83 &gt;</text>
<polygon fill="black" stroke="black" points="65.5,-38 65.5,-54 65.5,-54 65.5,-38 65.5,-38"/>
<polygon fill="black" stroke="black" points="159.5,-38 159.5,-54 159.5,-54 159.5,-38 159.5,-38"/>
</a>
</g>
</g>
<!-- ad_labelassignment&#45;&gt;ad_table -->
<g id="edge2" class="edge">
<title>ad_labelassignment:w&#45;&gt;ad_table:e</title>
<path fill="none" stroke="black" d="M257.33,-305.28C239.73,-289.26 255.05,-238 222.5,-238"/>
<polygon fill="black" stroke="black" points="263.44,-307.39 269.82,-313.4 267.22,-308.69 271,-310 271,-310 271,-310 267.22,-308.69 272.18,-306.6 263.44,-307.39 263.44,-307.39"/>
<ellipse fill="none" stroke="black" cx="260.41" cy="-306.34" rx="3.2" ry="3.2"/>
</g>
</g>
</svg>
