<?xml version="1.0" encoding="UTF-8" standalone="no"?>
<!DOCTYPE svg PUBLIC "-//W3C//DTD SVG 1.1//EN"
 "http://www.w3.org/Graphics/SVG/1.1/DTD/svg11.dtd">
<!-- Generated by graphviz version 2.43.0 (0)
 -->
<!-- Title: oneDegreeRelationshipsDiagram Pages: 1 -->
<svg width="310pt" height="555pt"
 viewBox="0.00 0.00 310.00 555.00" xmlns="http://www.w3.org/2000/svg" xmlns:xlink="http://www.w3.org/1999/xlink">
<g id="graph0" class="graph" transform="scale(1 1) rotate(0) translate(4 551)">
<title>oneDegreeRelationshipsDiagram</title>
<polygon fill="#ffffff" stroke="transparent" points="-4,4 -4,-551 306,-551 306,4 -4,4"/>
<text text-anchor="middle" x="71.5" y="-7.2" font-family="Helvetica,sans-Serif" font-size="11.00">Generated by SchemaSpy</text>
<!-- ad_migrationscript -->
<g id="node1" class="node">
<title>ad_migrationscript</title>
<g id="a_node1"><a xlink:href="../../tables/ad_migrationscript.html" xlink:title="ad_migrationscript" target="_top">
<polygon fill="#ffffff" stroke="transparent" points="8,-37 8,-543 294,-543 294,-37 8,-37"/>
<polygon fill="#f5f5f5" stroke="transparent" points="10,-519 10,-541 292,-541 292,-519 10,-519"/>
<polygon fill="none" stroke="black" points="10,-519 10,-541 292,-541 292,-519 10,-519"/>
<text text-anchor="start" x="15" y="-528.2" font-family="Helvetica,sans-Serif" font-weight="bold" font-size="11.00">ad_migrationscript</text>
<text text-anchor="start" x="257" y="-527.2" font-family="Helvetica,sans-Serif" font-size="11.00">[table]</text>
<polygon fill="none" stroke="black" points="10,-497 10,-519 193,-519 193,-497 10,-497"/>
<text text-anchor="start" x="30" y="-505.2" font-family="Helvetica,sans-Serif" font-size="11.00">ad_client_id</text>
<polygon fill="none" stroke="black" points="193,-497 193,-519 292,-519 292,-497 193,-497"/>
<text text-anchor="start" x="196" y="-505.2" font-family="Helvetica,sans-Serif" font-size="11.00">numeric[10]</text>
<polygon fill="none" stroke="black" points="10,-475 10,-497 193,-497 193,-475 10,-475"/>
<image xlink:href="../../images/primaryKeys.png" width="11px" height="12px" preserveAspectRatio="xMinYMin meet" x="15" y="-492"/>
<text text-anchor="start" x="30" y="-483.2" font-family="Helvetica,sans-Serif" font-size="11.00">ad_migrationscript_id</text>
<polygon fill="none" stroke="black" points="193,-475 193,-497 292,-497 292,-475 193,-475"/>
<text text-anchor="start" x="196" y="-483.2" font-family="Helvetica,sans-Serif" font-size="11.00">numeric[10]</text>
<polygon fill="none" stroke="black" points="10,-453 10,-475 193,-475 193,-453 10,-453"/>
<text text-anchor="start" x="30" y="-461.2" font-family="Helvetica,sans-Serif" font-size="11.00">ad_org_id</text>
<polygon fill="none" stroke="black" points="193,-453 193,-475 292,-475 292,-453 193,-453"/>
<text text-anchor="start" x="196" y="-461.2" font-family="Helvetica,sans-Serif" font-size="11.00">numeric[10]</text>
<polygon fill="none" stroke="black" points="10,-431 10,-453 193,-453 193,-431 10,-431"/>
<text text-anchor="start" x="30" y="-439.2" font-family="Helvetica,sans-Serif" font-size="11.00">created</text>
<polygon fill="none" stroke="black" points="193,-431 193,-453 292,-453 292,-431 193,-431"/>
<text text-anchor="start" x="196" y="-439.2" font-family="Helvetica,sans-Serif" font-size="11.00">timestamp[29,6]</text>
<polygon fill="none" stroke="black" points="10,-409 10,-431 193,-431 193,-409 10,-409"/>
<text text-anchor="start" x="30" y="-417.2" font-family="Helvetica,sans-Serif" font-size="11.00">createdby</text>
<polygon fill="none" stroke="black" points="193,-409 193,-431 292,-431 292,-409 193,-409"/>
<text text-anchor="start" x="196" y="-417.2" font-family="Helvetica,sans-Serif" font-size="11.00">numeric[10]</text>
<polygon fill="none" stroke="black" points="10,-387 10,-409 193,-409 193,-387 10,-387"/>
<text text-anchor="start" x="30" y="-395.2" font-family="Helvetica,sans-Serif" font-size="11.00">description</text>
<polygon fill="none" stroke="black" points="193,-387 193,-409 292,-409 292,-387 193,-387"/>
<text text-anchor="start" x="196" y="-395.2" font-family="Helvetica,sans-Serif" font-size="11.00">varchar[2000]</text>
<polygon fill="none" stroke="black" points="10,-365 10,-387 193,-387 193,-365 10,-365"/>
<text text-anchor="start" x="30" y="-373.2" font-family="Helvetica,sans-Serif" font-size="11.00">developername</text>
<polygon fill="none" stroke="black" points="193,-365 193,-387 292,-387 292,-365 193,-365"/>
<text text-anchor="start" x="196" y="-373.2" font-family="Helvetica,sans-Serif" font-size="11.00">varchar[60]</text>
<polygon fill="none" stroke="black" points="10,-343 10,-365 193,-365 193,-343 10,-343"/>
<text text-anchor="start" x="30" y="-351.2" font-family="Helvetica,sans-Serif" font-size="11.00">isactive</text>
<polygon fill="none" stroke="black" points="193,-343 193,-365 292,-365 292,-343 193,-343"/>
<text text-anchor="start" x="196" y="-351.2" font-family="Helvetica,sans-Serif" font-size="11.00">bpchar[1]</text>
<polygon fill="none" stroke="black" points="10,-321 10,-343 193,-343 193,-321 10,-321"/>
<text text-anchor="start" x="30" y="-329.2" font-family="Helvetica,sans-Serif" font-size="11.00">name</text>
<polygon fill="none" stroke="black" points="193,-321 193,-343 292,-343 292,-321 193,-321"/>
<text text-anchor="start" x="196" y="-329.2" font-family="Helvetica,sans-Serif" font-size="11.00">varchar[60]</text>
<polygon fill="none" stroke="black" points="10,-299 10,-321 193,-321 193,-299 10,-299"/>
<text text-anchor="start" x="30" y="-307.2" font-family="Helvetica,sans-Serif" font-size="11.00">projectname</text>
<polygon fill="none" stroke="black" points="193,-299 193,-321 292,-321 292,-299 193,-299"/>
<text text-anchor="start" x="196" y="-307.2" font-family="Helvetica,sans-Serif" font-size="11.00">varchar[60]</text>
<polygon fill="none" stroke="black" points="10,-277 10,-299 193,-299 193,-277 10,-277"/>
<text text-anchor="start" x="30" y="-285.2" font-family="Helvetica,sans-Serif" font-size="11.00">reference</text>
<polygon fill="none" stroke="black" points="193,-277 193,-299 292,-299 292,-277 193,-277"/>
<text text-anchor="start" x="196" y="-285.2" font-family="Helvetica,sans-Serif" font-size="11.00">varchar[2000]</text>
<polygon fill="none" stroke="black" points="10,-255 10,-277 193,-277 193,-255 10,-255"/>
<text text-anchor="start" x="30" y="-263.2" font-family="Helvetica,sans-Serif" font-size="11.00">releaseno</text>
<polygon fill="none" stroke="black" points="193,-255 193,-277 292,-277 292,-255 193,-255"/>
<text text-anchor="start" x="196" y="-263.2" font-family="Helvetica,sans-Serif" font-size="11.00">varchar[10]</text>
<polygon fill="none" stroke="black" points="10,-233 10,-255 193,-255 193,-233 10,-233"/>
<text text-anchor="start" x="30" y="-241.2" font-family="Helvetica,sans-Serif" font-size="11.00">scriptroll</text>
<polygon fill="none" stroke="black" points="193,-233 193,-255 292,-255 292,-233 193,-233"/>
<text text-anchor="start" x="196" y="-241.2" font-family="Helvetica,sans-Serif" font-size="11.00">bpchar[1]</text>
<polygon fill="none" stroke="black" points="10,-211 10,-233 193,-233 193,-211 10,-211"/>
<text text-anchor="start" x="30" y="-219.2" font-family="Helvetica,sans-Serif" font-size="11.00">status</text>
<polygon fill="none" stroke="black" points="193,-211 193,-233 292,-233 292,-211 193,-211"/>
<text text-anchor="start" x="196" y="-219.2" font-family="Helvetica,sans-Serif" font-size="11.00">bpchar[2]</text>
<polygon fill="none" stroke="black" points="10,-189 10,-211 193,-211 193,-189 10,-189"/>
<text text-anchor="start" x="30" y="-197.2" font-family="Helvetica,sans-Serif" font-size="11.00">url</text>
<polygon fill="none" stroke="black" points="193,-189 193,-211 292,-211 292,-189 193,-189"/>
<text text-anchor="start" x="196" y="-197.2" font-family="Helvetica,sans-Serif" font-size="11.00">varchar[2000]</text>
<polygon fill="none" stroke="black" points="10,-167 10,-189 193,-189 193,-167 10,-167"/>
<text text-anchor="start" x="30" y="-175.2" font-family="Helvetica,sans-Serif" font-size="11.00">updated</text>
<polygon fill="none" stroke="black" points="193,-167 193,-189 292,-189 292,-167 193,-167"/>
<text text-anchor="start" x="196" y="-175.2" font-family="Helvetica,sans-Serif" font-size="11.00">timestamp[29,6]</text>
<polygon fill="none" stroke="black" points="10,-145 10,-167 193,-167 193,-145 10,-145"/>
<text text-anchor="start" x="30" y="-153.2" font-family="Helvetica,sans-Serif" font-size="11.00">updatedby</text>
<polygon fill="none" stroke="black" points="193,-145 193,-167 292,-167 292,-145 193,-145"/>
<text text-anchor="start" x="196" y="-153.2" font-family="Helvetica,sans-Serif" font-size="11.00">numeric[10]</text>
<polygon fill="none" stroke="black" points="10,-123 10,-145 193,-145 193,-123 10,-123"/>
<text text-anchor="start" x="30" y="-131.2" font-family="Helvetica,sans-Serif" font-size="11.00">isapply</text>
<polygon fill="none" stroke="black" points="193,-123 193,-145 292,-145 292,-123 193,-123"/>
<text text-anchor="start" x="196" y="-131.2" font-family="Helvetica,sans-Serif" font-size="11.00">bpchar[1]</text>
<polygon fill="none" stroke="black" points="10,-101 10,-123 193,-123 193,-101 10,-101"/>
<text text-anchor="start" x="30" y="-109.2" font-family="Helvetica,sans-Serif" font-size="11.00">filename</text>
<polygon fill="none" stroke="black" points="193,-101 193,-123 292,-123 292,-101 193,-101"/>
<text text-anchor="start" x="196" y="-109.2" font-family="Helvetica,sans-Serif" font-size="11.00">varchar[500]</text>
<polygon fill="none" stroke="black" points="10,-79 10,-101 193,-101 193,-79 10,-79"/>
<text text-anchor="start" x="30" y="-87.2" font-family="Helvetica,sans-Serif" font-size="11.00">script</text>
<polygon fill="none" stroke="black" points="193,-79 193,-101 292,-101 292,-79 193,-79"/>
<text text-anchor="start" x="196" y="-87.2" font-family="Helvetica,sans-Serif" font-size="11.00">bytea[2147483647]</text>
<polygon fill="#ffffff" stroke="transparent" points="10,-57 10,-79 193,-79 193,-57 10,-57"/>
<polygon fill="none" stroke="black" points="10,-57 10,-79 193,-79 193,-57 10,-57"/>
<text text-anchor="start" x="30" y="-65.2" font-family="Helvetica,sans-Serif" font-size="11.00">ad_migrationscript_uu</text>
<polygon fill="none" stroke="black" points="193,-57 193,-79 292,-79 292,-57 193,-57"/>
<text text-anchor="start" x="196" y="-65.2" font-family="Helvetica,sans-Serif" font-size="11.00">varchar[36]</text>
<polygon fill="#ffffff" stroke="transparent" points="10,-39 10,-57 292,-57 292,-39 10,-39"/>
<polygon fill="none" stroke="black" points="10,-39 10,-57 292,-57 292,-39 10,-39"/>
<polygon fill="#ffffff" stroke="transparent" points="11,-40 11,-56 92,-56 92,-40 11,-40"/>
<text text-anchor="start" x="13" y="-45.2" font-family="Helvetica,sans-Serif" font-size="11.00">&lt; 0</text>
<polygon fill="#ffffff" stroke="transparent" points="92,-40 92,-56 211,-56 211,-40 92,-40"/>
<text text-anchor="start" x="124.5" y="-45.2" font-family="Helvetica,sans-Serif" font-size="11.00">4.653 rows</text>
<polygon fill="#ffffff" stroke="transparent" points="211,-40 211,-56 291,-56 291,-40 211,-40"/>
<text text-anchor="start" x="273" y="-45.2" font-family="Helvetica,sans-Serif" font-size="11.00">0 &gt;</text>
<polygon fill="black" stroke="black" points="92,-40 92,-56 92,-56 92,-40 92,-40"/>
<polygon fill="black" stroke="black" points="211,-40 211,-56 211,-56 211,-40 211,-40"/>
<polygon fill="none" stroke="black" stroke-width="2" points="9,-38 9,-542 293,-542 293,-38 9,-38"/>
</a>
</g>
</g>
</g>
</svg>
