<?xml version="1.0" encoding="UTF-8" standalone="no"?>
<!DOCTYPE svg PUBLIC "-//W3C//DTD SVG 1.1//EN"
 "http://www.w3.org/Graphics/SVG/1.1/DTD/svg11.dtd">
<!-- Generated by graphviz version 2.43.0 (0)
 -->
<!-- Title: oneDegreeRelationshipsDiagram Pages: 1 -->
<svg width="468pt" height="439pt"
 viewBox="0.00 0.00 468.00 439.00" xmlns="http://www.w3.org/2000/svg" xmlns:xlink="http://www.w3.org/1999/xlink">
<g id="graph0" class="graph" transform="scale(1 1) rotate(0) translate(4 435)">
<title>oneDegreeRelationshipsDiagram</title>
<polygon fill="#ffffff" stroke="transparent" points="-4,4 -4,-435 464,-435 464,4 -4,4"/>
<text text-anchor="middle" x="71.5" y="-7.2" font-family="Helvetica,sans-Serif" font-size="11.00">Generated by SchemaSpy</text>
<!-- ad_modification -->
<g id="node1" class="node">
<title>ad_modification</title>
<g id="a_node1"><a xlink:href="../../tables/ad_modification.html" xlink:title="ad_modification" target="_top">
<polygon fill="#ffffff" stroke="transparent" points="203,-53 203,-427 452,-427 452,-53 203,-53"/>
<polygon fill="#f5f5f5" stroke="transparent" points="205.5,-403 205.5,-425 450.5,-425 450.5,-403 205.5,-403"/>
<polygon fill="none" stroke="black" points="205.5,-403 205.5,-425 450.5,-425 450.5,-403 205.5,-403"/>
<text text-anchor="start" x="210.5" y="-412.2" font-family="Helvetica,sans-Serif" font-weight="bold" font-size="11.00">ad_modification</text>
<text text-anchor="start" x="415.5" y="-411.2" font-family="Helvetica,sans-Serif" font-size="11.00">[table]</text>
<polygon fill="none" stroke="black" points="205.5,-381 205.5,-403 367.5,-403 367.5,-381 205.5,-381"/>
<image xlink:href="../../images/primaryKeys.png" width="11px" height="12px" preserveAspectRatio="xMinYMin meet" x="210.5" y="-398"/>
<text text-anchor="start" x="225.5" y="-389.2" font-family="Helvetica,sans-Serif" font-size="11.00">ad_modification_id</text>
<polygon fill="none" stroke="black" points="367.5,-381 367.5,-403 450.5,-403 450.5,-381 367.5,-381"/>
<text text-anchor="start" x="370.5" y="-389.2" font-family="Helvetica,sans-Serif" font-size="11.00">numeric[10]</text>
<polygon fill="none" stroke="black" points="205.5,-359 205.5,-381 367.5,-381 367.5,-359 205.5,-359"/>
<text text-anchor="start" x="225.5" y="-367.2" font-family="Helvetica,sans-Serif" font-size="11.00">ad_client_id</text>
<polygon fill="none" stroke="black" points="367.5,-359 367.5,-381 450.5,-381 450.5,-359 367.5,-359"/>
<text text-anchor="start" x="370.5" y="-367.2" font-family="Helvetica,sans-Serif" font-size="11.00">numeric[10]</text>
<polygon fill="none" stroke="black" points="205.5,-337 205.5,-359 367.5,-359 367.5,-337 205.5,-337"/>
<text text-anchor="start" x="225.5" y="-345.2" font-family="Helvetica,sans-Serif" font-size="11.00">ad_org_id</text>
<polygon fill="none" stroke="black" points="367.5,-337 367.5,-359 450.5,-359 450.5,-337 367.5,-337"/>
<text text-anchor="start" x="370.5" y="-345.2" font-family="Helvetica,sans-Serif" font-size="11.00">numeric[10]</text>
<polygon fill="none" stroke="black" points="205.5,-315 205.5,-337 367.5,-337 367.5,-315 205.5,-315"/>
<text text-anchor="start" x="225.5" y="-323.2" font-family="Helvetica,sans-Serif" font-size="11.00">isactive</text>
<polygon fill="none" stroke="black" points="367.5,-315 367.5,-337 450.5,-337 450.5,-315 367.5,-315"/>
<text text-anchor="start" x="370.5" y="-323.2" font-family="Helvetica,sans-Serif" font-size="11.00">bpchar[1]</text>
<polygon fill="none" stroke="black" points="205.5,-293 205.5,-315 367.5,-315 367.5,-293 205.5,-293"/>
<text text-anchor="start" x="225.5" y="-301.2" font-family="Helvetica,sans-Serif" font-size="11.00">created</text>
<polygon fill="none" stroke="black" points="367.5,-293 367.5,-315 450.5,-315 450.5,-293 367.5,-293"/>
<text text-anchor="start" x="370.5" y="-301.2" font-family="Helvetica,sans-Serif" font-size="11.00">timestamp[29,6]</text>
<polygon fill="none" stroke="black" points="205.5,-271 205.5,-293 367.5,-293 367.5,-271 205.5,-271"/>
<text text-anchor="start" x="225.5" y="-279.2" font-family="Helvetica,sans-Serif" font-size="11.00">createdby</text>
<polygon fill="none" stroke="black" points="367.5,-271 367.5,-293 450.5,-293 450.5,-271 367.5,-271"/>
<text text-anchor="start" x="370.5" y="-279.2" font-family="Helvetica,sans-Serif" font-size="11.00">numeric[10]</text>
<polygon fill="none" stroke="black" points="205.5,-249 205.5,-271 367.5,-271 367.5,-249 205.5,-249"/>
<text text-anchor="start" x="225.5" y="-257.2" font-family="Helvetica,sans-Serif" font-size="11.00">updated</text>
<polygon fill="none" stroke="black" points="367.5,-249 367.5,-271 450.5,-271 450.5,-249 367.5,-249"/>
<text text-anchor="start" x="370.5" y="-257.2" font-family="Helvetica,sans-Serif" font-size="11.00">timestamp[29,6]</text>
<polygon fill="none" stroke="black" points="205.5,-227 205.5,-249 367.5,-249 367.5,-227 205.5,-227"/>
<text text-anchor="start" x="225.5" y="-235.2" font-family="Helvetica,sans-Serif" font-size="11.00">updatedby</text>
<polygon fill="none" stroke="black" points="367.5,-227 367.5,-249 450.5,-249 450.5,-227 367.5,-227"/>
<text text-anchor="start" x="370.5" y="-235.2" font-family="Helvetica,sans-Serif" font-size="11.00">numeric[10]</text>
<polygon fill="none" stroke="black" points="205.5,-205 205.5,-227 367.5,-227 367.5,-205 205.5,-205"/>
<text text-anchor="start" x="225.5" y="-213.2" font-family="Helvetica,sans-Serif" font-size="11.00">seqno</text>
<polygon fill="none" stroke="black" points="367.5,-205 367.5,-227 450.5,-227 450.5,-205 367.5,-205"/>
<text text-anchor="start" x="370.5" y="-213.2" font-family="Helvetica,sans-Serif" font-size="11.00">numeric[10]</text>
<polygon fill="none" stroke="black" points="205.5,-183 205.5,-205 367.5,-205 367.5,-183 205.5,-183"/>
<text text-anchor="start" x="225.5" y="-191.2" font-family="Helvetica,sans-Serif" font-size="11.00">name</text>
<polygon fill="none" stroke="black" points="367.5,-183 367.5,-205 450.5,-205 450.5,-183 367.5,-183"/>
<text text-anchor="start" x="370.5" y="-191.2" font-family="Helvetica,sans-Serif" font-size="11.00">varchar[60]</text>
<polygon fill="none" stroke="black" points="205.5,-161 205.5,-183 367.5,-183 367.5,-161 205.5,-161"/>
<text text-anchor="start" x="225.5" y="-169.2" font-family="Helvetica,sans-Serif" font-size="11.00">description</text>
<polygon fill="none" stroke="black" points="367.5,-161 367.5,-183 450.5,-183 450.5,-161 367.5,-161"/>
<text text-anchor="start" x="370.5" y="-169.2" font-family="Helvetica,sans-Serif" font-size="11.00">varchar[255]</text>
<polygon fill="none" stroke="black" points="205.5,-139 205.5,-161 367.5,-161 367.5,-139 205.5,-139"/>
<text text-anchor="start" x="225.5" y="-147.2" font-family="Helvetica,sans-Serif" font-size="11.00">help</text>
<polygon fill="none" stroke="black" points="367.5,-139 367.5,-161 450.5,-161 450.5,-139 367.5,-139"/>
<text text-anchor="start" x="370.5" y="-147.2" font-family="Helvetica,sans-Serif" font-size="11.00">varchar[2000]</text>
<polygon fill="none" stroke="black" points="205.5,-117 205.5,-139 367.5,-139 367.5,-117 205.5,-117"/>
<image xlink:href="../../images/foreignKeys.png" width="11px" height="12px" preserveAspectRatio="xMinYMin meet" x="210.5" y="-134"/>
<text text-anchor="start" x="225.5" y="-125.2" font-family="Helvetica,sans-Serif" font-size="11.00">entitytype</text>
<polygon fill="none" stroke="black" points="367.5,-117 367.5,-139 450.5,-139 450.5,-117 367.5,-117"/>
<text text-anchor="start" x="370.5" y="-125.2" font-family="Helvetica,sans-Serif" font-size="11.00">varchar[40]</text>
<polygon fill="none" stroke="black" points="205.5,-95 205.5,-117 367.5,-117 367.5,-95 205.5,-95"/>
<text text-anchor="start" x="225.5" y="-103.2" font-family="Helvetica,sans-Serif" font-size="11.00">version</text>
<polygon fill="none" stroke="black" points="367.5,-95 367.5,-117 450.5,-117 450.5,-95 367.5,-95"/>
<text text-anchor="start" x="370.5" y="-103.2" font-family="Helvetica,sans-Serif" font-size="11.00">varchar[20]</text>
<polygon fill="#ffffff" stroke="transparent" points="205.5,-73 205.5,-95 367.5,-95 367.5,-73 205.5,-73"/>
<polygon fill="none" stroke="black" points="205.5,-73 205.5,-95 367.5,-95 367.5,-73 205.5,-73"/>
<text text-anchor="start" x="225.5" y="-81.2" font-family="Helvetica,sans-Serif" font-size="11.00">ad_modification_uu</text>
<polygon fill="none" stroke="black" points="367.5,-73 367.5,-95 450.5,-95 450.5,-73 367.5,-73"/>
<text text-anchor="start" x="370.5" y="-81.2" font-family="Helvetica,sans-Serif" font-size="11.00">varchar[36]</text>
<polygon fill="#ffffff" stroke="transparent" points="205.5,-55 205.5,-73 450.5,-73 450.5,-55 205.5,-55"/>
<polygon fill="none" stroke="black" points="205.5,-55 205.5,-73 450.5,-73 450.5,-55 205.5,-55"/>
<polygon fill="#ffffff" stroke="transparent" points="206.5,-56 206.5,-72 290.5,-72 290.5,-56 206.5,-56"/>
<text text-anchor="start" x="208.5" y="-61.2" font-family="Helvetica,sans-Serif" font-size="11.00">&lt; 1</text>
<polygon fill="#ffffff" stroke="transparent" points="290.5,-56 290.5,-72 365.5,-72 365.5,-56 290.5,-56"/>
<text text-anchor="start" x="324.5" y="-61.2" font-family="Helvetica,sans-Serif" font-size="11.00"> &#160;</text>
<polygon fill="#ffffff" stroke="transparent" points="365.5,-56 365.5,-72 449.5,-72 449.5,-56 365.5,-56"/>
<text text-anchor="start" x="431.5" y="-61.2" font-family="Helvetica,sans-Serif" font-size="11.00">0 &gt;</text>
<polygon fill="black" stroke="black" points="290.5,-56 290.5,-72 290.5,-72 290.5,-56 290.5,-56"/>
<polygon fill="black" stroke="black" points="365.5,-56 365.5,-72 365.5,-72 365.5,-56 365.5,-56"/>
<polygon fill="none" stroke="black" stroke-width="2" points="204,-54 204,-426 451,-426 451,-54 204,-54"/>
</a>
</g>
</g>
<!-- ad_entitytype -->
<g id="node2" class="node">
<title>ad_entitytype</title>
<g id="a_node2"><a xlink:href="../../tables/ad_entitytype.html" xlink:title="ad_entitytype" target="_top">
<polygon fill="#ffffff" stroke="transparent" points="8,-37 8,-161 154,-161 154,-37 8,-37"/>
<polygon fill="#f5f5f5" stroke="transparent" points="8,-139 8,-161 154,-161 154,-139 8,-139"/>
<polygon fill="none" stroke="black" points="8,-139 8,-161 154,-161 154,-139 8,-139"/>
<text text-anchor="start" x="13" y="-148.2" font-family="Helvetica,sans-Serif" font-weight="bold" font-size="11.00">ad_entitytype</text>
<text text-anchor="start" x="119" y="-147.2" font-family="Helvetica,sans-Serif" font-size="11.00">[table]</text>
<polygon fill="none" stroke="black" points="8,-117 8,-139 154,-139 154,-117 8,-117"/>
<image xlink:href="../../images/primaryKeys.png" width="11px" height="12px" preserveAspectRatio="xMinYMin meet" x="13" y="-134"/>
<text text-anchor="start" x="28" y="-125.2" font-family="Helvetica,sans-Serif" font-size="11.00">entitytype</text>
<polygon fill="#ffffff" stroke="transparent" points="8,-95 8,-117 154,-117 154,-95 8,-95"/>
<polygon fill="none" stroke="black" points="8,-95 8,-117 154,-117 154,-95 8,-95"/>
<text text-anchor="start" x="28" y="-103.2" font-family="Helvetica,sans-Serif" font-size="11.00">ad_entitytype_id</text>
<polygon fill="#ffffff" stroke="transparent" points="8,-73 8,-95 154,-95 154,-73 8,-73"/>
<polygon fill="none" stroke="black" points="8,-73 8,-95 154,-95 154,-73 8,-73"/>
<text text-anchor="start" x="28" y="-81.2" font-family="Helvetica,sans-Serif" font-size="11.00">ad_entitytype_uu</text>
<polygon fill="none" stroke="black" points="8,-55 8,-73 154,-73 154,-55 8,-55"/>
<text text-anchor="start" x="11" y="-61.2" font-family="Helvetica,sans-Serif" font-size="11.00">...</text>
<polygon fill="#ffffff" stroke="transparent" points="8,-37 8,-55 154,-55 154,-37 8,-37"/>
<polygon fill="none" stroke="black" points="8,-37 8,-55 154,-55 154,-37 8,-37"/>
<polygon fill="#ffffff" stroke="transparent" points="9,-38 9,-54 42,-54 42,-38 9,-38"/>
<text text-anchor="start" x="11" y="-43.2" font-family="Helvetica,sans-Serif" font-size="11.00"> &#160;</text>
<polygon fill="#ffffff" stroke="transparent" points="42,-38 42,-54 106,-54 106,-38 42,-38"/>
<text text-anchor="start" x="54.5" y="-43.2" font-family="Helvetica,sans-Serif" font-size="11.00">35 rows</text>
<polygon fill="#ffffff" stroke="transparent" points="106,-38 106,-54 153,-54 153,-38 106,-38"/>
<text text-anchor="start" x="129" y="-43.2" font-family="Helvetica,sans-Serif" font-size="11.00">60 &gt;</text>
<polygon fill="black" stroke="black" points="42,-38 42,-54 42,-54 42,-38 42,-38"/>
<polygon fill="black" stroke="black" points="106,-38 106,-54 106,-54 106,-38 106,-38"/>
</a>
</g>
</g>
<!-- ad_modification&#45;&gt;ad_entitytype -->
<g id="edge1" class="edge">
<title>ad_modification:w&#45;&gt;ad_entitytype:e</title>
<path fill="none" stroke="black" d="M189.84,-128C178.41,-128 171.16,-128 155,-128"/>
<polygon fill="black" stroke="black" points="196.5,-128 204.5,-131.6 200.5,-128 204.5,-128 204.5,-128 204.5,-128 200.5,-128 204.5,-124.4 196.5,-128 196.5,-128"/>
<ellipse fill="none" stroke="black" cx="193.3" cy="-128" rx="3.2" ry="3.2"/>
</g>
</g>
</svg>
