<?xml version="1.0" encoding="UTF-8" standalone="no"?>
<!DOCTYPE svg PUBLIC "-//W3C//DTD SVG 1.1//EN"
 "http://www.w3.org/Graphics/SVG/1.1/DTD/svg11.dtd">
<!-- Generated by graphviz version 2.43.0 (0)
 -->
<!-- Title: oneDegreeRelationshipsDiagram Pages: 1 -->
<svg width="566pt" height="527pt"
 viewBox="0.00 0.00 566.00 527.00" xmlns="http://www.w3.org/2000/svg" xmlns:xlink="http://www.w3.org/1999/xlink">
<g id="graph0" class="graph" transform="scale(1 1) rotate(0) translate(4 523)">
<title>oneDegreeRelationshipsDiagram</title>
<polygon fill="#ffffff" stroke="transparent" points="-4,4 -4,-523 562,-523 562,4 -4,4"/>
<text text-anchor="middle" x="71.5" y="-7.2" font-family="Helvetica,sans-Serif" font-size="11.00">Generated by SchemaSpy</text>
<!-- ad_process_drillrule_trl -->
<g id="node1" class="node">
<title>ad_process_drillrule_trl</title>
<g id="a_node1"><a xlink:href="../../tables/ad_process_drillrule_trl.html" xlink:title="ad_process_drillrule_trl" target="_top">
<polygon fill="#ffffff" stroke="transparent" points="248,-185 248,-515 550,-515 550,-185 248,-185"/>
<polygon fill="#f5f5f5" stroke="transparent" points="250,-491 250,-513 548,-513 548,-491 250,-491"/>
<polygon fill="none" stroke="black" points="250,-491 250,-513 548,-513 548,-491 250,-491"/>
<text text-anchor="start" x="255" y="-500.2" font-family="Helvetica,sans-Serif" font-weight="bold" font-size="11.00">ad_process_drillrule_trl</text>
<text text-anchor="start" x="513" y="-499.2" font-family="Helvetica,sans-Serif" font-size="11.00">[table]</text>
<polygon fill="none" stroke="black" points="250,-469 250,-491 465,-491 465,-469 250,-469"/>
<text text-anchor="start" x="270" y="-477.2" font-family="Helvetica,sans-Serif" font-size="11.00">ad_client_id</text>
<polygon fill="none" stroke="black" points="465,-469 465,-491 548,-491 548,-469 465,-469"/>
<text text-anchor="start" x="468" y="-477.2" font-family="Helvetica,sans-Serif" font-size="11.00">numeric[10]</text>
<polygon fill="none" stroke="black" points="250,-447 250,-469 465,-469 465,-447 250,-447"/>
<image xlink:href="../../images/primaryKeys.png" width="11px" height="12px" preserveAspectRatio="xMinYMin meet" x="255" y="-464"/>
<text text-anchor="start" x="270" y="-455.2" font-family="Helvetica,sans-Serif" font-size="11.00">ad_language</text>
<polygon fill="none" stroke="black" points="465,-447 465,-469 548,-469 548,-447 465,-447"/>
<text text-anchor="start" x="468" y="-455.2" font-family="Helvetica,sans-Serif" font-size="11.00">varchar[6]</text>
<polygon fill="none" stroke="black" points="250,-425 250,-447 465,-447 465,-425 250,-425"/>
<text text-anchor="start" x="270" y="-433.2" font-family="Helvetica,sans-Serif" font-size="11.00">ad_org_id</text>
<polygon fill="none" stroke="black" points="465,-425 465,-447 548,-447 548,-425 465,-425"/>
<text text-anchor="start" x="468" y="-433.2" font-family="Helvetica,sans-Serif" font-size="11.00">numeric[10]</text>
<polygon fill="none" stroke="black" points="250,-403 250,-425 465,-425 465,-403 250,-403"/>
<text text-anchor="start" x="270" y="-411.2" font-family="Helvetica,sans-Serif" font-size="11.00">created</text>
<polygon fill="none" stroke="black" points="465,-403 465,-425 548,-425 548,-403 465,-403"/>
<text text-anchor="start" x="468" y="-411.2" font-family="Helvetica,sans-Serif" font-size="11.00">timestamp[29,6]</text>
<polygon fill="none" stroke="black" points="250,-381 250,-403 465,-403 465,-381 250,-381"/>
<text text-anchor="start" x="270" y="-389.2" font-family="Helvetica,sans-Serif" font-size="11.00">createdby</text>
<polygon fill="none" stroke="black" points="465,-381 465,-403 548,-403 548,-381 465,-381"/>
<text text-anchor="start" x="468" y="-389.2" font-family="Helvetica,sans-Serif" font-size="11.00">numeric[10]</text>
<polygon fill="none" stroke="black" points="250,-359 250,-381 465,-381 465,-359 250,-359"/>
<text text-anchor="start" x="270" y="-367.2" font-family="Helvetica,sans-Serif" font-size="11.00">description</text>
<polygon fill="none" stroke="black" points="465,-359 465,-381 548,-381 548,-359 465,-359"/>
<text text-anchor="start" x="468" y="-367.2" font-family="Helvetica,sans-Serif" font-size="11.00">varchar[255]</text>
<polygon fill="none" stroke="black" points="250,-337 250,-359 465,-359 465,-337 250,-337"/>
<text text-anchor="start" x="270" y="-345.2" font-family="Helvetica,sans-Serif" font-size="11.00">isactive</text>
<polygon fill="none" stroke="black" points="465,-337 465,-359 548,-359 548,-337 465,-337"/>
<text text-anchor="start" x="468" y="-345.2" font-family="Helvetica,sans-Serif" font-size="11.00">bpchar[1]</text>
<polygon fill="none" stroke="black" points="250,-315 250,-337 465,-337 465,-315 250,-315"/>
<text text-anchor="start" x="270" y="-323.2" font-family="Helvetica,sans-Serif" font-size="11.00">istranslated</text>
<polygon fill="none" stroke="black" points="465,-315 465,-337 548,-337 548,-315 465,-315"/>
<text text-anchor="start" x="468" y="-323.2" font-family="Helvetica,sans-Serif" font-size="11.00">bpchar[1]</text>
<polygon fill="#ffffff" stroke="transparent" points="250,-293 250,-315 465,-315 465,-293 250,-293"/>
<polygon fill="none" stroke="black" points="250,-293 250,-315 465,-315 465,-293 250,-293"/>
<text text-anchor="start" x="270" y="-301.2" font-family="Helvetica,sans-Serif" font-size="11.00">ad_process_drillrule_trl_uu</text>
<polygon fill="none" stroke="black" points="465,-293 465,-315 548,-315 548,-293 465,-293"/>
<text text-anchor="start" x="468" y="-301.2" font-family="Helvetica,sans-Serif" font-size="11.00">varchar[36]</text>
<polygon fill="none" stroke="black" points="250,-271 250,-293 465,-293 465,-271 250,-271"/>
<text text-anchor="start" x="270" y="-279.2" font-family="Helvetica,sans-Serif" font-size="11.00">name</text>
<polygon fill="none" stroke="black" points="465,-271 465,-293 548,-293 548,-271 465,-271"/>
<text text-anchor="start" x="468" y="-279.2" font-family="Helvetica,sans-Serif" font-size="11.00">varchar[255]</text>
<polygon fill="none" stroke="black" points="250,-249 250,-271 465,-271 465,-249 250,-249"/>
<text text-anchor="start" x="270" y="-257.2" font-family="Helvetica,sans-Serif" font-size="11.00">updated</text>
<polygon fill="none" stroke="black" points="465,-249 465,-271 548,-271 548,-249 465,-249"/>
<text text-anchor="start" x="468" y="-257.2" font-family="Helvetica,sans-Serif" font-size="11.00">timestamp[29,6]</text>
<polygon fill="none" stroke="black" points="250,-227 250,-249 465,-249 465,-227 250,-227"/>
<text text-anchor="start" x="270" y="-235.2" font-family="Helvetica,sans-Serif" font-size="11.00">updatedby</text>
<polygon fill="none" stroke="black" points="465,-227 465,-249 548,-249 548,-227 465,-227"/>
<text text-anchor="start" x="468" y="-235.2" font-family="Helvetica,sans-Serif" font-size="11.00">numeric[10]</text>
<polygon fill="none" stroke="black" points="250,-205 250,-227 465,-227 465,-205 250,-205"/>
<image xlink:href="../../images/primaryKeys.png" width="11px" height="12px" preserveAspectRatio="xMinYMin meet" x="255" y="-222"/>
<text text-anchor="start" x="270" y="-213.2" font-family="Helvetica,sans-Serif" font-size="11.00">ad_process_drillrule_id</text>
<polygon fill="none" stroke="black" points="465,-205 465,-227 548,-227 548,-205 465,-205"/>
<text text-anchor="start" x="468" y="-213.2" font-family="Helvetica,sans-Serif" font-size="11.00">numeric[10]</text>
<polygon fill="#ffffff" stroke="transparent" points="250,-187 250,-205 548,-205 548,-187 250,-187"/>
<polygon fill="none" stroke="black" points="250,-187 250,-205 548,-205 548,-187 250,-187"/>
<polygon fill="#ffffff" stroke="transparent" points="251,-188 251,-204 353,-204 353,-188 251,-188"/>
<text text-anchor="start" x="253" y="-193.2" font-family="Helvetica,sans-Serif" font-size="11.00">&lt; 2</text>
<polygon fill="#ffffff" stroke="transparent" points="353,-188 353,-204 446,-204 446,-188 353,-188"/>
<text text-anchor="start" x="396" y="-193.2" font-family="Helvetica,sans-Serif" font-size="11.00"> &#160;</text>
<polygon fill="#ffffff" stroke="transparent" points="446,-188 446,-204 547,-204 547,-188 446,-188"/>
<text text-anchor="start" x="529" y="-193.2" font-family="Helvetica,sans-Serif" font-size="11.00">0 &gt;</text>
<polygon fill="black" stroke="black" points="353,-188 353,-204 353,-204 353,-188 353,-188"/>
<polygon fill="black" stroke="black" points="446,-188 446,-204 446,-204 446,-188 446,-188"/>
<polygon fill="none" stroke="black" stroke-width="2" points="249,-186 249,-514 549,-514 549,-186 249,-186"/>
</a>
</g>
</g>
<!-- ad_language -->
<g id="node2" class="node">
<title>ad_language</title>
<g id="a_node2"><a xlink:href="../../tables/ad_language.html" xlink:title="ad_language" target="_top">
<polygon fill="#ffffff" stroke="transparent" points="27,-301 27,-491 180,-491 180,-301 27,-301"/>
<polygon fill="#f5f5f5" stroke="transparent" points="27.5,-469 27.5,-491 180.5,-491 180.5,-469 27.5,-469"/>
<polygon fill="none" stroke="black" points="27.5,-469 27.5,-491 180.5,-491 180.5,-469 27.5,-469"/>
<text text-anchor="start" x="32.5" y="-478.2" font-family="Helvetica,sans-Serif" font-weight="bold" font-size="11.00">ad_language</text>
<text text-anchor="start" x="145.5" y="-477.2" font-family="Helvetica,sans-Serif" font-size="11.00">[table]</text>
<polygon fill="none" stroke="black" points="27.5,-447 27.5,-469 180.5,-469 180.5,-447 27.5,-447"/>
<image xlink:href="../../images/primaryKeys.png" width="11px" height="12px" preserveAspectRatio="xMinYMin meet" x="32.5" y="-464"/>
<text text-anchor="start" x="47.5" y="-455.2" font-family="Helvetica,sans-Serif" font-size="11.00">ad_language</text>
<polygon fill="none" stroke="black" points="27.5,-425 27.5,-447 180.5,-447 180.5,-425 27.5,-425"/>
<image xlink:href="../../images/foreignKeys.png" width="11px" height="12px" preserveAspectRatio="xMinYMin meet" x="32.5" y="-442"/>
<text text-anchor="start" x="47.5" y="-433.2" font-family="Helvetica,sans-Serif" font-size="11.00">ad_client_id</text>
<polygon fill="none" stroke="black" points="27.5,-403 27.5,-425 180.5,-425 180.5,-403 27.5,-403"/>
<image xlink:href="../../images/foreignKeys.png" width="11px" height="12px" preserveAspectRatio="xMinYMin meet" x="32.5" y="-420"/>
<text text-anchor="start" x="47.5" y="-411.2" font-family="Helvetica,sans-Serif" font-size="11.00">ad_org_id</text>
<polygon fill="#ffffff" stroke="transparent" points="27.5,-381 27.5,-403 180.5,-403 180.5,-381 27.5,-381"/>
<polygon fill="none" stroke="black" points="27.5,-381 27.5,-403 180.5,-403 180.5,-381 27.5,-381"/>
<text text-anchor="start" x="47.5" y="-389.2" font-family="Helvetica,sans-Serif" font-size="11.00">ad_language_id</text>
<polygon fill="#ffffff" stroke="transparent" points="27.5,-359 27.5,-381 180.5,-381 180.5,-359 27.5,-359"/>
<polygon fill="none" stroke="black" points="27.5,-359 27.5,-381 180.5,-381 180.5,-359 27.5,-359"/>
<text text-anchor="start" x="47.5" y="-367.2" font-family="Helvetica,sans-Serif" font-size="11.00">ad_language_uu</text>
<polygon fill="none" stroke="black" points="27.5,-337 27.5,-359 180.5,-359 180.5,-337 27.5,-337"/>
<image xlink:href="../../images/foreignKeys.png" width="11px" height="12px" preserveAspectRatio="xMinYMin meet" x="32.5" y="-354"/>
<text text-anchor="start" x="47.5" y="-345.2" font-family="Helvetica,sans-Serif" font-size="11.00">ad_printpaper_id</text>
<polygon fill="none" stroke="black" points="27.5,-319 27.5,-337 180.5,-337 180.5,-319 27.5,-319"/>
<text text-anchor="start" x="30.5" y="-325.2" font-family="Helvetica,sans-Serif" font-size="11.00">...</text>
<polygon fill="#ffffff" stroke="transparent" points="27.5,-301 27.5,-319 180.5,-319 180.5,-301 27.5,-301"/>
<polygon fill="none" stroke="black" points="27.5,-301 27.5,-319 180.5,-319 180.5,-301 27.5,-301"/>
<polygon fill="#ffffff" stroke="transparent" points="28.5,-302 28.5,-318 67.5,-318 67.5,-302 28.5,-302"/>
<text text-anchor="start" x="30.5" y="-307.2" font-family="Helvetica,sans-Serif" font-size="11.00">&lt; 3</text>
<polygon fill="#ffffff" stroke="transparent" points="67.5,-302 67.5,-318 135.5,-318 135.5,-302 67.5,-302"/>
<text text-anchor="start" x="79" y="-307.2" font-family="Helvetica,sans-Serif" font-size="11.00">109 rows</text>
<polygon fill="#ffffff" stroke="transparent" points="135.5,-302 135.5,-318 179.5,-318 179.5,-302 135.5,-302"/>
<text text-anchor="start" x="155.5" y="-307.2" font-family="Helvetica,sans-Serif" font-size="11.00">88 &gt;</text>
<polygon fill="black" stroke="black" points="67.5,-302 67.5,-318 67.5,-318 67.5,-302 67.5,-302"/>
<polygon fill="black" stroke="black" points="135.5,-302 135.5,-318 135.5,-318 135.5,-302 135.5,-302"/>
</a>
</g>
</g>
<!-- ad_process_drillrule_trl&#45;&gt;ad_language -->
<g id="edge1" class="edge">
<title>ad_process_drillrule_trl:w&#45;&gt;ad_language:e</title>
<path fill="none" stroke="black" d="M234.47,-458C215.49,-458 205.99,-458 181.5,-458"/>
<polygon fill="black" stroke="black" points="241,-458 249,-461.6 245,-458 249,-458 249,-458 249,-458 245,-458 249,-454.4 241,-458 241,-458"/>
<ellipse fill="none" stroke="black" cx="237.8" cy="-458" rx="3.2" ry="3.2"/>
</g>
<!-- ad_process_drillrule -->
<g id="node3" class="node">
<title>ad_process_drillrule</title>
<g id="a_node3"><a xlink:href="../../tables/ad_process_drillrule.html" xlink:title="ad_process_drillrule" target="_top">
<polygon fill="#ffffff" stroke="transparent" points="8,-37 8,-249 199,-249 199,-37 8,-37"/>
<polygon fill="#f5f5f5" stroke="transparent" points="8.5,-227 8.5,-249 199.5,-249 199.5,-227 8.5,-227"/>
<polygon fill="none" stroke="black" points="8.5,-227 8.5,-249 199.5,-249 199.5,-227 8.5,-227"/>
<text text-anchor="start" x="13.5" y="-236.2" font-family="Helvetica,sans-Serif" font-weight="bold" font-size="11.00">ad_process_drillrule</text>
<text text-anchor="start" x="164.5" y="-235.2" font-family="Helvetica,sans-Serif" font-size="11.00">[table]</text>
<polygon fill="none" stroke="black" points="8.5,-205 8.5,-227 199.5,-227 199.5,-205 8.5,-205"/>
<image xlink:href="../../images/primaryKeys.png" width="11px" height="12px" preserveAspectRatio="xMinYMin meet" x="13.5" y="-222"/>
<text text-anchor="start" x="28.5" y="-213.2" font-family="Helvetica,sans-Serif" font-size="11.00">ad_process_drillrule_id</text>
<polygon fill="none" stroke="black" points="8.5,-183 8.5,-205 199.5,-205 199.5,-183 8.5,-183"/>
<image xlink:href="../../images/foreignKeys.png" width="11px" height="12px" preserveAspectRatio="xMinYMin meet" x="13.5" y="-200"/>
<text text-anchor="start" x="28.5" y="-191.2" font-family="Helvetica,sans-Serif" font-size="11.00">ad_process_id</text>
<polygon fill="none" stroke="black" points="8.5,-161 8.5,-183 199.5,-183 199.5,-161 8.5,-161"/>
<image xlink:href="../../images/foreignKeys.png" width="11px" height="12px" preserveAspectRatio="xMinYMin meet" x="13.5" y="-178"/>
<text text-anchor="start" x="28.5" y="-169.2" font-family="Helvetica,sans-Serif" font-size="11.00">ad_table_id</text>
<polygon fill="none" stroke="black" points="8.5,-139 8.5,-161 199.5,-161 199.5,-139 8.5,-139"/>
<image xlink:href="../../images/foreignKeys.png" width="11px" height="12px" preserveAspectRatio="xMinYMin meet" x="13.5" y="-156"/>
<text text-anchor="start" x="28.5" y="-147.2" font-family="Helvetica,sans-Serif" font-size="11.00">ad_reportview_id</text>
<polygon fill="none" stroke="black" points="8.5,-117 8.5,-139 199.5,-139 199.5,-117 8.5,-117"/>
<image xlink:href="../../images/foreignKeys.png" width="11px" height="12px" preserveAspectRatio="xMinYMin meet" x="13.5" y="-134"/>
<text text-anchor="start" x="28.5" y="-125.2" font-family="Helvetica,sans-Serif" font-size="11.00">ad_printformat_id</text>
<polygon fill="#ffffff" stroke="transparent" points="8.5,-95 8.5,-117 199.5,-117 199.5,-95 8.5,-95"/>
<polygon fill="none" stroke="black" points="8.5,-95 8.5,-117 199.5,-117 199.5,-95 8.5,-95"/>
<text text-anchor="start" x="28.5" y="-103.2" font-family="Helvetica,sans-Serif" font-size="11.00">ad_process_drillrule_uu</text>
<polygon fill="none" stroke="black" points="8.5,-73 8.5,-95 199.5,-95 199.5,-73 8.5,-73"/>
<image xlink:href="../../images/foreignKeys.png" width="11px" height="12px" preserveAspectRatio="xMinYMin meet" x="13.5" y="-90"/>
<text text-anchor="start" x="28.5" y="-81.2" font-family="Helvetica,sans-Serif" font-size="11.00">ad_process_para_id</text>
<polygon fill="none" stroke="black" points="8.5,-55 8.5,-73 199.5,-73 199.5,-55 8.5,-55"/>
<text text-anchor="start" x="11.5" y="-61.2" font-family="Helvetica,sans-Serif" font-size="11.00">...</text>
<polygon fill="#ffffff" stroke="transparent" points="8.5,-37 8.5,-55 199.5,-55 199.5,-37 8.5,-37"/>
<polygon fill="none" stroke="black" points="8.5,-37 8.5,-55 199.5,-55 199.5,-37 8.5,-37"/>
<polygon fill="#ffffff" stroke="transparent" points="9.5,-38 9.5,-54 75.5,-54 75.5,-38 9.5,-38"/>
<text text-anchor="start" x="11.5" y="-43.2" font-family="Helvetica,sans-Serif" font-size="11.00">&lt; 5</text>
<polygon fill="#ffffff" stroke="transparent" points="75.5,-38 75.5,-54 132.5,-54 132.5,-38 75.5,-38"/>
<text text-anchor="start" x="100.5" y="-43.2" font-family="Helvetica,sans-Serif" font-size="11.00"> &#160;</text>
<polygon fill="#ffffff" stroke="transparent" points="132.5,-38 132.5,-54 198.5,-54 198.5,-38 132.5,-38"/>
<text text-anchor="start" x="180.5" y="-43.2" font-family="Helvetica,sans-Serif" font-size="11.00">2 &gt;</text>
<polygon fill="black" stroke="black" points="75.5,-38 75.5,-54 75.5,-54 75.5,-38 75.5,-38"/>
<polygon fill="black" stroke="black" points="132.5,-38 132.5,-54 132.5,-54 132.5,-38 132.5,-38"/>
</a>
</g>
</g>
<!-- ad_process_drillrule_trl&#45;&gt;ad_process_drillrule -->
<g id="edge2" class="edge">
<title>ad_process_drillrule_trl:w&#45;&gt;ad_process_drillrule:e</title>
<path fill="none" stroke="black" d="M234.28,-216C223.29,-216 216.16,-216 200.5,-216"/>
<polygon fill="black" stroke="black" points="241,-216 249,-219.6 245,-216 249,-216 249,-216 249,-216 245,-216 249,-212.4 241,-216 241,-216"/>
<ellipse fill="none" stroke="black" cx="237.8" cy="-216" rx="3.2" ry="3.2"/>
</g>
</g>
</svg>
