<?xml version="1.0" encoding="UTF-8" standalone="no"?>
<!DOCTYPE svg PUBLIC "-//W3C//DTD SVG 1.1//EN"
 "http://www.w3.org/Graphics/SVG/1.1/DTD/svg11.dtd">
<!-- Generated by graphviz version 2.43.0 (0)
 -->
<!-- Title: oneDegreeRelationshipsDiagram Pages: 1 -->
<svg width="505pt" height="779pt"
 viewBox="0.00 0.00 505.00 779.00" xmlns="http://www.w3.org/2000/svg" xmlns:xlink="http://www.w3.org/1999/xlink">
<g id="graph0" class="graph" transform="scale(1 1) rotate(0) translate(4 775)">
<title>oneDegreeRelationshipsDiagram</title>
<polygon fill="#ffffff" stroke="transparent" points="-4,4 -4,-775 501,-775 501,4 -4,4"/>
<text text-anchor="middle" x="71.5" y="-7.2" font-family="Helvetica,sans-Serif" font-size="11.00">Generated by SchemaSpy</text>
<!-- ad_language -->
<g id="node1" class="node">
<title>ad_language</title>
<g id="a_node1"><a xlink:href="../../tables/ad_language.html" xlink:title="ad_language" target="_top">
<polygon fill="#ffffff" stroke="transparent" points="314,-577 314,-767 467,-767 467,-577 314,-577"/>
<polygon fill="#f5f5f5" stroke="transparent" points="314.5,-745 314.5,-767 467.5,-767 467.5,-745 314.5,-745"/>
<polygon fill="none" stroke="black" points="314.5,-745 314.5,-767 467.5,-767 467.5,-745 314.5,-745"/>
<text text-anchor="start" x="319.5" y="-754.2" font-family="Helvetica,sans-Serif" font-weight="bold" font-size="11.00">ad_language</text>
<text text-anchor="start" x="432.5" y="-753.2" font-family="Helvetica,sans-Serif" font-size="11.00">[table]</text>
<polygon fill="none" stroke="black" points="314.5,-723 314.5,-745 467.5,-745 467.5,-723 314.5,-723"/>
<image xlink:href="../../images/primaryKeys.png" width="11px" height="12px" preserveAspectRatio="xMinYMin meet" x="319.5" y="-740"/>
<text text-anchor="start" x="334.5" y="-731.2" font-family="Helvetica,sans-Serif" font-size="11.00">ad_language</text>
<polygon fill="none" stroke="black" points="314.5,-701 314.5,-723 467.5,-723 467.5,-701 314.5,-701"/>
<image xlink:href="../../images/foreignKeys.png" width="11px" height="12px" preserveAspectRatio="xMinYMin meet" x="319.5" y="-718"/>
<text text-anchor="start" x="334.5" y="-709.2" font-family="Helvetica,sans-Serif" font-size="11.00">ad_client_id</text>
<polygon fill="none" stroke="black" points="314.5,-679 314.5,-701 467.5,-701 467.5,-679 314.5,-679"/>
<image xlink:href="../../images/foreignKeys.png" width="11px" height="12px" preserveAspectRatio="xMinYMin meet" x="319.5" y="-696"/>
<text text-anchor="start" x="334.5" y="-687.2" font-family="Helvetica,sans-Serif" font-size="11.00">ad_org_id</text>
<polygon fill="#ffffff" stroke="transparent" points="314.5,-657 314.5,-679 467.5,-679 467.5,-657 314.5,-657"/>
<polygon fill="none" stroke="black" points="314.5,-657 314.5,-679 467.5,-679 467.5,-657 314.5,-657"/>
<text text-anchor="start" x="334.5" y="-665.2" font-family="Helvetica,sans-Serif" font-size="11.00">ad_language_id</text>
<polygon fill="#ffffff" stroke="transparent" points="314.5,-635 314.5,-657 467.5,-657 467.5,-635 314.5,-635"/>
<polygon fill="none" stroke="black" points="314.5,-635 314.5,-657 467.5,-657 467.5,-635 314.5,-635"/>
<text text-anchor="start" x="334.5" y="-643.2" font-family="Helvetica,sans-Serif" font-size="11.00">ad_language_uu</text>
<polygon fill="none" stroke="black" points="314.5,-613 314.5,-635 467.5,-635 467.5,-613 314.5,-613"/>
<image xlink:href="../../images/foreignKeys.png" width="11px" height="12px" preserveAspectRatio="xMinYMin meet" x="319.5" y="-630"/>
<text text-anchor="start" x="334.5" y="-621.2" font-family="Helvetica,sans-Serif" font-size="11.00">ad_printpaper_id</text>
<polygon fill="none" stroke="black" points="314.5,-595 314.5,-613 467.5,-613 467.5,-595 314.5,-595"/>
<text text-anchor="start" x="317.5" y="-601.2" font-family="Helvetica,sans-Serif" font-size="11.00">...</text>
<polygon fill="#ffffff" stroke="transparent" points="314.5,-577 314.5,-595 467.5,-595 467.5,-577 314.5,-577"/>
<polygon fill="none" stroke="black" points="314.5,-577 314.5,-595 467.5,-595 467.5,-577 314.5,-577"/>
<polygon fill="#ffffff" stroke="transparent" points="315.5,-578 315.5,-594 354.5,-594 354.5,-578 315.5,-578"/>
<text text-anchor="start" x="317.5" y="-583.2" font-family="Helvetica,sans-Serif" font-size="11.00">&lt; 3</text>
<polygon fill="#ffffff" stroke="transparent" points="354.5,-578 354.5,-594 422.5,-594 422.5,-578 354.5,-578"/>
<text text-anchor="start" x="366" y="-583.2" font-family="Helvetica,sans-Serif" font-size="11.00">109 rows</text>
<polygon fill="#ffffff" stroke="transparent" points="422.5,-578 422.5,-594 466.5,-594 466.5,-578 422.5,-578"/>
<text text-anchor="start" x="442.5" y="-583.2" font-family="Helvetica,sans-Serif" font-size="11.00">88 &gt;</text>
<polygon fill="black" stroke="black" points="354.5,-578 354.5,-594 354.5,-594 354.5,-578 354.5,-578"/>
<polygon fill="black" stroke="black" points="422.5,-578 422.5,-594 422.5,-594 422.5,-578 422.5,-578"/>
</a>
</g>
</g>
<!-- ad_printpaper -->
<g id="node2" class="node">
<title>ad_printpaper</title>
<g id="a_node2"><a xlink:href="../../tables/ad_printpaper.html" xlink:title="ad_printpaper" target="_top">
<polygon fill="#ffffff" stroke="transparent" points="8,-37 8,-565 243,-565 243,-37 8,-37"/>
<polygon fill="#f5f5f5" stroke="transparent" points="10.5,-541 10.5,-563 241.5,-563 241.5,-541 10.5,-541"/>
<polygon fill="none" stroke="black" points="10.5,-541 10.5,-563 241.5,-563 241.5,-541 10.5,-541"/>
<text text-anchor="start" x="15.5" y="-550.2" font-family="Helvetica,sans-Serif" font-weight="bold" font-size="11.00">ad_printpaper</text>
<text text-anchor="start" x="206.5" y="-549.2" font-family="Helvetica,sans-Serif" font-size="11.00">[table]</text>
<polygon fill="none" stroke="black" points="10.5,-519 10.5,-541 158.5,-541 158.5,-519 10.5,-519"/>
<image xlink:href="../../images/primaryKeys.png" width="11px" height="12px" preserveAspectRatio="xMinYMin meet" x="15.5" y="-536"/>
<text text-anchor="start" x="30.5" y="-527.2" font-family="Helvetica,sans-Serif" font-size="11.00">ad_printpaper_id</text>
<polygon fill="none" stroke="black" points="158.5,-519 158.5,-541 241.5,-541 241.5,-519 158.5,-519"/>
<text text-anchor="start" x="161.5" y="-527.2" font-family="Helvetica,sans-Serif" font-size="11.00">numeric[10]</text>
<polygon fill="#ffffff" stroke="transparent" points="10.5,-497 10.5,-519 158.5,-519 158.5,-497 10.5,-497"/>
<polygon fill="none" stroke="black" points="10.5,-497 10.5,-519 158.5,-519 158.5,-497 10.5,-497"/>
<text text-anchor="start" x="30.5" y="-505.2" font-family="Helvetica,sans-Serif" font-size="11.00">ad_client_id</text>
<polygon fill="none" stroke="black" points="158.5,-497 158.5,-519 241.5,-519 241.5,-497 158.5,-497"/>
<text text-anchor="start" x="161.5" y="-505.2" font-family="Helvetica,sans-Serif" font-size="11.00">numeric[10]</text>
<polygon fill="none" stroke="black" points="10.5,-475 10.5,-497 158.5,-497 158.5,-475 10.5,-475"/>
<text text-anchor="start" x="30.5" y="-483.2" font-family="Helvetica,sans-Serif" font-size="11.00">ad_org_id</text>
<polygon fill="none" stroke="black" points="158.5,-475 158.5,-497 241.5,-497 241.5,-475 158.5,-475"/>
<text text-anchor="start" x="161.5" y="-483.2" font-family="Helvetica,sans-Serif" font-size="11.00">numeric[10]</text>
<polygon fill="none" stroke="black" points="10.5,-453 10.5,-475 158.5,-475 158.5,-453 10.5,-453"/>
<text text-anchor="start" x="30.5" y="-461.2" font-family="Helvetica,sans-Serif" font-size="11.00">isactive</text>
<polygon fill="none" stroke="black" points="158.5,-453 158.5,-475 241.5,-475 241.5,-453 158.5,-453"/>
<text text-anchor="start" x="161.5" y="-461.2" font-family="Helvetica,sans-Serif" font-size="11.00">bpchar[1]</text>
<polygon fill="none" stroke="black" points="10.5,-431 10.5,-453 158.5,-453 158.5,-431 10.5,-431"/>
<text text-anchor="start" x="30.5" y="-439.2" font-family="Helvetica,sans-Serif" font-size="11.00">created</text>
<polygon fill="none" stroke="black" points="158.5,-431 158.5,-453 241.5,-453 241.5,-431 158.5,-431"/>
<text text-anchor="start" x="161.5" y="-439.2" font-family="Helvetica,sans-Serif" font-size="11.00">timestamp[29,6]</text>
<polygon fill="none" stroke="black" points="10.5,-409 10.5,-431 158.5,-431 158.5,-409 10.5,-409"/>
<text text-anchor="start" x="30.5" y="-417.2" font-family="Helvetica,sans-Serif" font-size="11.00">createdby</text>
<polygon fill="none" stroke="black" points="158.5,-409 158.5,-431 241.5,-431 241.5,-409 158.5,-409"/>
<text text-anchor="start" x="161.5" y="-417.2" font-family="Helvetica,sans-Serif" font-size="11.00">numeric[10]</text>
<polygon fill="none" stroke="black" points="10.5,-387 10.5,-409 158.5,-409 158.5,-387 10.5,-387"/>
<text text-anchor="start" x="30.5" y="-395.2" font-family="Helvetica,sans-Serif" font-size="11.00">updated</text>
<polygon fill="none" stroke="black" points="158.5,-387 158.5,-409 241.5,-409 241.5,-387 158.5,-387"/>
<text text-anchor="start" x="161.5" y="-395.2" font-family="Helvetica,sans-Serif" font-size="11.00">timestamp[29,6]</text>
<polygon fill="none" stroke="black" points="10.5,-365 10.5,-387 158.5,-387 158.5,-365 10.5,-365"/>
<text text-anchor="start" x="30.5" y="-373.2" font-family="Helvetica,sans-Serif" font-size="11.00">updatedby</text>
<polygon fill="none" stroke="black" points="158.5,-365 158.5,-387 241.5,-387 241.5,-365 158.5,-365"/>
<text text-anchor="start" x="161.5" y="-373.2" font-family="Helvetica,sans-Serif" font-size="11.00">numeric[10]</text>
<polygon fill="#ffffff" stroke="transparent" points="10.5,-343 10.5,-365 158.5,-365 158.5,-343 10.5,-343"/>
<polygon fill="none" stroke="black" points="10.5,-343 10.5,-365 158.5,-365 158.5,-343 10.5,-343"/>
<text text-anchor="start" x="30.5" y="-351.2" font-family="Helvetica,sans-Serif" font-size="11.00">name</text>
<polygon fill="none" stroke="black" points="158.5,-343 158.5,-365 241.5,-365 241.5,-343 158.5,-343"/>
<text text-anchor="start" x="161.5" y="-351.2" font-family="Helvetica,sans-Serif" font-size="11.00">varchar[60]</text>
<polygon fill="none" stroke="black" points="10.5,-321 10.5,-343 158.5,-343 158.5,-321 10.5,-321"/>
<text text-anchor="start" x="30.5" y="-329.2" font-family="Helvetica,sans-Serif" font-size="11.00">description</text>
<polygon fill="none" stroke="black" points="158.5,-321 158.5,-343 241.5,-343 241.5,-321 158.5,-321"/>
<text text-anchor="start" x="161.5" y="-329.2" font-family="Helvetica,sans-Serif" font-size="11.00">varchar[255]</text>
<polygon fill="none" stroke="black" points="10.5,-299 10.5,-321 158.5,-321 158.5,-299 10.5,-299"/>
<text text-anchor="start" x="30.5" y="-307.2" font-family="Helvetica,sans-Serif" font-size="11.00">isdefault</text>
<polygon fill="none" stroke="black" points="158.5,-299 158.5,-321 241.5,-321 241.5,-299 158.5,-299"/>
<text text-anchor="start" x="161.5" y="-307.2" font-family="Helvetica,sans-Serif" font-size="11.00">bpchar[1]</text>
<polygon fill="none" stroke="black" points="10.5,-277 10.5,-299 158.5,-299 158.5,-277 10.5,-277"/>
<text text-anchor="start" x="30.5" y="-285.2" font-family="Helvetica,sans-Serif" font-size="11.00">islandscape</text>
<polygon fill="none" stroke="black" points="158.5,-277 158.5,-299 241.5,-299 241.5,-277 158.5,-277"/>
<text text-anchor="start" x="161.5" y="-285.2" font-family="Helvetica,sans-Serif" font-size="11.00">bpchar[1]</text>
<polygon fill="none" stroke="black" points="10.5,-255 10.5,-277 158.5,-277 158.5,-255 10.5,-255"/>
<text text-anchor="start" x="30.5" y="-263.2" font-family="Helvetica,sans-Serif" font-size="11.00">code</text>
<polygon fill="none" stroke="black" points="158.5,-255 158.5,-277 241.5,-277 241.5,-255 158.5,-255"/>
<text text-anchor="start" x="161.5" y="-263.2" font-family="Helvetica,sans-Serif" font-size="11.00">varchar[2000]</text>
<polygon fill="none" stroke="black" points="10.5,-233 10.5,-255 158.5,-255 158.5,-233 10.5,-233"/>
<text text-anchor="start" x="30.5" y="-241.2" font-family="Helvetica,sans-Serif" font-size="11.00">margintop</text>
<polygon fill="none" stroke="black" points="158.5,-233 158.5,-255 241.5,-255 241.5,-233 158.5,-233"/>
<text text-anchor="start" x="161.5" y="-241.2" font-family="Helvetica,sans-Serif" font-size="11.00">numeric[10]</text>
<polygon fill="none" stroke="black" points="10.5,-211 10.5,-233 158.5,-233 158.5,-211 10.5,-211"/>
<text text-anchor="start" x="30.5" y="-219.2" font-family="Helvetica,sans-Serif" font-size="11.00">marginleft</text>
<polygon fill="none" stroke="black" points="158.5,-211 158.5,-233 241.5,-233 241.5,-211 158.5,-211"/>
<text text-anchor="start" x="161.5" y="-219.2" font-family="Helvetica,sans-Serif" font-size="11.00">numeric[10]</text>
<polygon fill="none" stroke="black" points="10.5,-189 10.5,-211 158.5,-211 158.5,-189 10.5,-189"/>
<text text-anchor="start" x="30.5" y="-197.2" font-family="Helvetica,sans-Serif" font-size="11.00">marginright</text>
<polygon fill="none" stroke="black" points="158.5,-189 158.5,-211 241.5,-211 241.5,-189 158.5,-189"/>
<text text-anchor="start" x="161.5" y="-197.2" font-family="Helvetica,sans-Serif" font-size="11.00">numeric[10]</text>
<polygon fill="none" stroke="black" points="10.5,-167 10.5,-189 158.5,-189 158.5,-167 10.5,-167"/>
<text text-anchor="start" x="30.5" y="-175.2" font-family="Helvetica,sans-Serif" font-size="11.00">marginbottom</text>
<polygon fill="none" stroke="black" points="158.5,-167 158.5,-189 241.5,-189 241.5,-167 158.5,-167"/>
<text text-anchor="start" x="161.5" y="-175.2" font-family="Helvetica,sans-Serif" font-size="11.00">numeric[10]</text>
<polygon fill="none" stroke="black" points="10.5,-145 10.5,-167 158.5,-167 158.5,-145 10.5,-145"/>
<text text-anchor="start" x="30.5" y="-153.2" font-family="Helvetica,sans-Serif" font-size="11.00">processing</text>
<polygon fill="none" stroke="black" points="158.5,-145 158.5,-167 241.5,-167 241.5,-145 158.5,-145"/>
<text text-anchor="start" x="161.5" y="-153.2" font-family="Helvetica,sans-Serif" font-size="11.00">bpchar[1]</text>
<polygon fill="none" stroke="black" points="10.5,-123 10.5,-145 158.5,-145 158.5,-123 10.5,-123"/>
<text text-anchor="start" x="30.5" y="-131.2" font-family="Helvetica,sans-Serif" font-size="11.00">sizex</text>
<polygon fill="none" stroke="black" points="158.5,-123 158.5,-145 241.5,-145 241.5,-123 158.5,-123"/>
<text text-anchor="start" x="161.5" y="-131.2" font-family="Helvetica,sans-Serif" font-size="11.00">numeric[0]</text>
<polygon fill="none" stroke="black" points="10.5,-101 10.5,-123 158.5,-123 158.5,-101 10.5,-101"/>
<text text-anchor="start" x="30.5" y="-109.2" font-family="Helvetica,sans-Serif" font-size="11.00">sizey</text>
<polygon fill="none" stroke="black" points="158.5,-101 158.5,-123 241.5,-123 241.5,-101 158.5,-101"/>
<text text-anchor="start" x="161.5" y="-109.2" font-family="Helvetica,sans-Serif" font-size="11.00">numeric[0]</text>
<polygon fill="none" stroke="black" points="10.5,-79 10.5,-101 158.5,-101 158.5,-79 10.5,-79"/>
<text text-anchor="start" x="30.5" y="-87.2" font-family="Helvetica,sans-Serif" font-size="11.00">dimensionunits</text>
<polygon fill="none" stroke="black" points="158.5,-79 158.5,-101 241.5,-101 241.5,-79 158.5,-79"/>
<text text-anchor="start" x="161.5" y="-87.2" font-family="Helvetica,sans-Serif" font-size="11.00">bpchar[1]</text>
<polygon fill="#ffffff" stroke="transparent" points="10.5,-57 10.5,-79 158.5,-79 158.5,-57 10.5,-57"/>
<polygon fill="none" stroke="black" points="10.5,-57 10.5,-79 158.5,-79 158.5,-57 10.5,-57"/>
<text text-anchor="start" x="30.5" y="-65.2" font-family="Helvetica,sans-Serif" font-size="11.00">ad_printpaper_uu</text>
<polygon fill="none" stroke="black" points="158.5,-57 158.5,-79 241.5,-79 241.5,-57 158.5,-57"/>
<text text-anchor="start" x="161.5" y="-65.2" font-family="Helvetica,sans-Serif" font-size="11.00">varchar[36]</text>
<polygon fill="#ffffff" stroke="transparent" points="10.5,-39 10.5,-57 241.5,-57 241.5,-39 10.5,-39"/>
<polygon fill="none" stroke="black" points="10.5,-39 10.5,-57 241.5,-57 241.5,-39 10.5,-39"/>
<polygon fill="#ffffff" stroke="transparent" points="11.5,-40 11.5,-56 82.5,-56 82.5,-40 11.5,-40"/>
<text text-anchor="start" x="13.5" y="-45.2" font-family="Helvetica,sans-Serif" font-size="11.00">&lt; 0</text>
<polygon fill="#ffffff" stroke="transparent" points="82.5,-40 82.5,-56 170.5,-56 170.5,-40 82.5,-40"/>
<text text-anchor="start" x="110" y="-45.2" font-family="Helvetica,sans-Serif" font-size="11.00">4 rows</text>
<polygon fill="#ffffff" stroke="transparent" points="170.5,-40 170.5,-56 240.5,-56 240.5,-40 170.5,-40"/>
<text text-anchor="start" x="222.5" y="-45.2" font-family="Helvetica,sans-Serif" font-size="11.00">2 &gt;</text>
<polygon fill="black" stroke="black" points="82.5,-40 82.5,-56 82.5,-56 82.5,-40 82.5,-40"/>
<polygon fill="black" stroke="black" points="170.5,-40 170.5,-56 170.5,-56 170.5,-40 170.5,-40"/>
<polygon fill="none" stroke="black" stroke-width="2" points="9,-38 9,-564 242,-564 242,-38 9,-38"/>
</a>
</g>
</g>
<!-- ad_language&#45;&gt;ad_printpaper -->
<g id="edge1" class="edge">
<title>ad_language:w&#45;&gt;ad_printpaper:e</title>
<path fill="none" stroke="black" d="M299.18,-620.87C267.49,-604.56 289.13,-530 242.5,-530"/>
<polygon fill="black" stroke="black" points="305.68,-622.29 312.73,-627.52 309.59,-623.15 313.5,-624 313.5,-624 313.5,-624 309.59,-623.15 314.27,-620.48 305.68,-622.29 305.68,-622.29"/>
<ellipse fill="none" stroke="black" cx="302.56" cy="-621.61" rx="3.2" ry="3.2"/>
</g>
<!-- ad_printformat -->
<g id="node3" class="node">
<title>ad_printformat</title>
<g id="a_node3"><a xlink:href="../../tables/ad_printformat.html" xlink:title="ad_printformat" target="_top">
<polygon fill="#ffffff" stroke="transparent" points="292,-212 292,-556 489,-556 489,-212 292,-212"/>
<polygon fill="#f5f5f5" stroke="transparent" points="292.5,-534 292.5,-556 489.5,-556 489.5,-534 292.5,-534"/>
<polygon fill="none" stroke="black" points="292.5,-534 292.5,-556 489.5,-556 489.5,-534 292.5,-534"/>
<text text-anchor="start" x="297.5" y="-543.2" font-family="Helvetica,sans-Serif" font-weight="bold" font-size="11.00">ad_printformat</text>
<text text-anchor="start" x="454.5" y="-542.2" font-family="Helvetica,sans-Serif" font-size="11.00">[table]</text>
<polygon fill="none" stroke="black" points="292.5,-512 292.5,-534 489.5,-534 489.5,-512 292.5,-512"/>
<image xlink:href="../../images/primaryKeys.png" width="11px" height="12px" preserveAspectRatio="xMinYMin meet" x="297.5" y="-529"/>
<text text-anchor="start" x="312.5" y="-520.2" font-family="Helvetica,sans-Serif" font-size="11.00">ad_printformat_id</text>
<polygon fill="#ffffff" stroke="transparent" points="292.5,-490 292.5,-512 489.5,-512 489.5,-490 292.5,-490"/>
<polygon fill="none" stroke="black" points="292.5,-490 292.5,-512 489.5,-512 489.5,-490 292.5,-490"/>
<text text-anchor="start" x="312.5" y="-498.2" font-family="Helvetica,sans-Serif" font-size="11.00">ad_client_id</text>
<polygon fill="#ffffff" stroke="transparent" points="292.5,-468 292.5,-490 489.5,-490 489.5,-468 292.5,-468"/>
<polygon fill="none" stroke="black" points="292.5,-468 292.5,-490 489.5,-490 489.5,-468 292.5,-468"/>
<text text-anchor="start" x="312.5" y="-476.2" font-family="Helvetica,sans-Serif" font-size="11.00">name</text>
<polygon fill="#ffffff" stroke="transparent" points="292.5,-446 292.5,-468 489.5,-468 489.5,-446 292.5,-446"/>
<polygon fill="none" stroke="black" points="292.5,-446 292.5,-468 489.5,-468 489.5,-446 292.5,-446"/>
<image xlink:href="../../images/foreignKeys.png" width="11px" height="12px" preserveAspectRatio="xMinYMin meet" x="297.5" y="-463"/>
<text text-anchor="start" x="312.5" y="-454.2" font-family="Helvetica,sans-Serif" font-size="11.00">ad_table_id</text>
<polygon fill="none" stroke="black" points="292.5,-424 292.5,-446 489.5,-446 489.5,-424 292.5,-424"/>
<image xlink:href="../../images/foreignKeys.png" width="11px" height="12px" preserveAspectRatio="xMinYMin meet" x="297.5" y="-441"/>
<text text-anchor="start" x="312.5" y="-432.2" font-family="Helvetica,sans-Serif" font-size="11.00">ad_printpaper_id</text>
<polygon fill="none" stroke="black" points="292.5,-402 292.5,-424 489.5,-424 489.5,-402 292.5,-402"/>
<image xlink:href="../../images/foreignKeys.png" width="11px" height="12px" preserveAspectRatio="xMinYMin meet" x="297.5" y="-419"/>
<text text-anchor="start" x="312.5" y="-410.2" font-family="Helvetica,sans-Serif" font-size="11.00">ad_printcolor_id</text>
<polygon fill="none" stroke="black" points="292.5,-380 292.5,-402 489.5,-402 489.5,-380 292.5,-380"/>
<image xlink:href="../../images/foreignKeys.png" width="11px" height="12px" preserveAspectRatio="xMinYMin meet" x="297.5" y="-397"/>
<text text-anchor="start" x="312.5" y="-388.2" font-family="Helvetica,sans-Serif" font-size="11.00">ad_printfont_id</text>
<polygon fill="none" stroke="black" points="292.5,-358 292.5,-380 489.5,-380 489.5,-358 292.5,-358"/>
<image xlink:href="../../images/foreignKeys.png" width="11px" height="12px" preserveAspectRatio="xMinYMin meet" x="297.5" y="-375"/>
<text text-anchor="start" x="312.5" y="-366.2" font-family="Helvetica,sans-Serif" font-size="11.00">ad_reportview_id</text>
<polygon fill="none" stroke="black" points="292.5,-336 292.5,-358 489.5,-358 489.5,-336 292.5,-336"/>
<image xlink:href="../../images/foreignKeys.png" width="11px" height="12px" preserveAspectRatio="xMinYMin meet" x="297.5" y="-353"/>
<text text-anchor="start" x="312.5" y="-344.2" font-family="Helvetica,sans-Serif" font-size="11.00">ad_printtableformat_id</text>
<polygon fill="none" stroke="black" points="292.5,-314 292.5,-336 489.5,-336 489.5,-314 292.5,-314"/>
<image xlink:href="../../images/foreignKeys.png" width="11px" height="12px" preserveAspectRatio="xMinYMin meet" x="297.5" y="-331"/>
<text text-anchor="start" x="312.5" y="-322.2" font-family="Helvetica,sans-Serif" font-size="11.00">jasperprocess_id</text>
<polygon fill="#ffffff" stroke="transparent" points="292.5,-292 292.5,-314 489.5,-314 489.5,-292 292.5,-292"/>
<polygon fill="none" stroke="black" points="292.5,-292 292.5,-314 489.5,-314 489.5,-292 292.5,-292"/>
<text text-anchor="start" x="312.5" y="-300.2" font-family="Helvetica,sans-Serif" font-size="11.00">ad_printformat_uu</text>
<polygon fill="none" stroke="black" points="292.5,-270 292.5,-292 489.5,-292 489.5,-270 292.5,-270"/>
<image xlink:href="../../images/foreignKeys.png" width="11px" height="12px" preserveAspectRatio="xMinYMin meet" x="297.5" y="-287"/>
<text text-anchor="start" x="312.5" y="-278.2" font-family="Helvetica,sans-Serif" font-size="11.00">ad_window_id</text>
<polygon fill="none" stroke="black" points="292.5,-248 292.5,-270 489.5,-270 489.5,-248 292.5,-248"/>
<image xlink:href="../../images/foreignKeys.png" width="11px" height="12px" preserveAspectRatio="xMinYMin meet" x="297.5" y="-265"/>
<text text-anchor="start" x="312.5" y="-256.2" font-family="Helvetica,sans-Serif" font-size="11.00">ad_printheaderfooter_id</text>
<polygon fill="none" stroke="black" points="292.5,-230 292.5,-248 489.5,-248 489.5,-230 292.5,-230"/>
<text text-anchor="start" x="295.5" y="-236.2" font-family="Helvetica,sans-Serif" font-size="11.00">...</text>
<polygon fill="#ffffff" stroke="transparent" points="292.5,-212 292.5,-230 489.5,-230 489.5,-212 292.5,-212"/>
<polygon fill="none" stroke="black" points="292.5,-212 292.5,-230 489.5,-230 489.5,-212 292.5,-212"/>
<polygon fill="#ffffff" stroke="transparent" points="293.5,-213 293.5,-229 347.5,-229 347.5,-213 293.5,-213"/>
<text text-anchor="start" x="295.5" y="-218.2" font-family="Helvetica,sans-Serif" font-size="11.00">&lt; 9</text>
<polygon fill="#ffffff" stroke="transparent" points="347.5,-213 347.5,-229 429.5,-229 429.5,-213 347.5,-213"/>
<text text-anchor="start" x="366" y="-218.2" font-family="Helvetica,sans-Serif" font-size="11.00">339 rows</text>
<polygon fill="#ffffff" stroke="transparent" points="429.5,-213 429.5,-229 488.5,-229 488.5,-213 429.5,-213"/>
<text text-anchor="start" x="464.5" y="-218.2" font-family="Helvetica,sans-Serif" font-size="11.00">25 &gt;</text>
<polygon fill="black" stroke="black" points="347.5,-213 347.5,-229 347.5,-229 347.5,-213 347.5,-213"/>
<polygon fill="black" stroke="black" points="429.5,-213 429.5,-229 429.5,-229 429.5,-213 429.5,-213"/>
</a>
</g>
</g>
<!-- ad_printformat&#45;&gt;ad_printpaper -->
<g id="edge2" class="edge">
<title>ad_printformat:w&#45;&gt;ad_printpaper:e</title>
<path fill="none" stroke="black" d="M277.39,-439.33C254.3,-457.91 283.88,-530 242.5,-530"/>
<polygon fill="black" stroke="black" points="283.85,-437.35 292.56,-438.44 287.68,-436.17 291.5,-435 291.5,-435 291.5,-435 287.68,-436.17 290.44,-431.56 283.85,-437.35 283.85,-437.35"/>
<ellipse fill="none" stroke="black" cx="280.79" cy="-438.28" rx="3.2" ry="3.2"/>
</g>
</g>
</svg>
