<?xml version="1.0" encoding="UTF-8" standalone="no"?>
<!DOCTYPE svg PUBLIC "-//W3C//DTD SVG 1.1//EN"
 "http://www.w3.org/Graphics/SVG/1.1/DTD/svg11.dtd">
<!-- Generated by graphviz version 2.43.0 (0)
 -->
<!-- Title: oneDegreeRelationshipsDiagram Pages: 1 -->
<svg width="623pt" height="751pt"
 viewBox="0.00 0.00 623.00 751.00" xmlns="http://www.w3.org/2000/svg" xmlns:xlink="http://www.w3.org/1999/xlink">
<g id="graph0" class="graph" transform="scale(1 1) rotate(0) translate(4 747)">
<title>oneDegreeRelationshipsDiagram</title>
<polygon fill="#ffffff" stroke="transparent" points="-4,4 -4,-747 619,-747 619,4 -4,4"/>
<text text-anchor="middle" x="71.5" y="-7.2" font-family="Helvetica,sans-Serif" font-size="11.00">Generated by SchemaSpy</text>
<!-- ad_client -->
<g id="node1" class="node">
<title>ad_client</title>
<g id="a_node1"><a xlink:href="../../tables/ad_client.html" xlink:title="ad_client" target="_top">
<polygon fill="#ffffff" stroke="transparent" points="362,-527 362,-739 607,-739 607,-527 362,-527"/>
<polygon fill="#f5f5f5" stroke="transparent" points="362.5,-717 362.5,-739 607.5,-739 607.5,-717 362.5,-717"/>
<polygon fill="none" stroke="black" points="362.5,-717 362.5,-739 607.5,-739 607.5,-717 362.5,-717"/>
<text text-anchor="start" x="367.5" y="-726.2" font-family="Helvetica,sans-Serif" font-weight="bold" font-size="11.00">ad_client</text>
<text text-anchor="start" x="572.5" y="-725.2" font-family="Helvetica,sans-Serif" font-size="11.00">[table]</text>
<polygon fill="none" stroke="black" points="362.5,-695 362.5,-717 607.5,-717 607.5,-695 362.5,-695"/>
<image xlink:href="../../images/primaryKeys.png" width="11px" height="12px" preserveAspectRatio="xMinYMin meet" x="367.5" y="-712"/>
<text text-anchor="start" x="382.5" y="-703.2" font-family="Helvetica,sans-Serif" font-size="11.00">ad_client_id</text>
<polygon fill="#ffffff" stroke="transparent" points="362.5,-673 362.5,-695 607.5,-695 607.5,-673 362.5,-673"/>
<polygon fill="none" stroke="black" points="362.5,-673 362.5,-695 607.5,-695 607.5,-673 362.5,-673"/>
<text text-anchor="start" x="382.5" y="-681.2" font-family="Helvetica,sans-Serif" font-size="11.00">value</text>
<polygon fill="none" stroke="black" points="362.5,-651 362.5,-673 607.5,-673 607.5,-651 362.5,-651"/>
<image xlink:href="../../images/foreignKeys.png" width="11px" height="12px" preserveAspectRatio="xMinYMin meet" x="367.5" y="-668"/>
<text text-anchor="start" x="382.5" y="-659.2" font-family="Helvetica,sans-Serif" font-size="11.00">ad_language</text>
<polygon fill="none" stroke="black" points="362.5,-629 362.5,-651 607.5,-651 607.5,-629 362.5,-629"/>
<image xlink:href="../../images/foreignKeys.png" width="11px" height="12px" preserveAspectRatio="xMinYMin meet" x="367.5" y="-646"/>
<text text-anchor="start" x="382.5" y="-637.2" font-family="Helvetica,sans-Serif" font-size="11.00">ad_replicationstrategy_id</text>
<polygon fill="#ffffff" stroke="transparent" points="362.5,-607 362.5,-629 607.5,-629 607.5,-607 362.5,-607"/>
<polygon fill="none" stroke="black" points="362.5,-607 362.5,-629 607.5,-629 607.5,-607 362.5,-607"/>
<text text-anchor="start" x="382.5" y="-615.2" font-family="Helvetica,sans-Serif" font-size="11.00">ad_client_uu</text>
<polygon fill="none" stroke="black" points="362.5,-585 362.5,-607 607.5,-607 607.5,-585 362.5,-585"/>
<image xlink:href="../../images/foreignKeys.png" width="11px" height="12px" preserveAspectRatio="xMinYMin meet" x="367.5" y="-602"/>
<text text-anchor="start" x="382.5" y="-593.2" font-family="Helvetica,sans-Serif" font-size="11.00">ad_passwordrule_id</text>
<polygon fill="#ffffff" stroke="transparent" points="362.5,-563 362.5,-585 607.5,-585 607.5,-563 362.5,-563"/>
<polygon fill="none" stroke="black" points="362.5,-563 362.5,-585 607.5,-585 607.5,-563 362.5,-563"/>
<text text-anchor="start" x="382.5" y="-571.2" font-family="Helvetica,sans-Serif" font-size="11.00">loginprefix</text>
<polygon fill="none" stroke="black" points="362.5,-545 362.5,-563 607.5,-563 607.5,-545 362.5,-545"/>
<text text-anchor="start" x="365.5" y="-551.2" font-family="Helvetica,sans-Serif" font-size="11.00">...</text>
<polygon fill="#ffffff" stroke="transparent" points="362.5,-527 362.5,-545 607.5,-545 607.5,-527 362.5,-527"/>
<polygon fill="none" stroke="black" points="362.5,-527 362.5,-545 607.5,-545 607.5,-527 362.5,-527"/>
<polygon fill="#ffffff" stroke="transparent" points="363.5,-528 363.5,-544 435.5,-544 435.5,-528 363.5,-528"/>
<text text-anchor="start" x="365.5" y="-533.2" font-family="Helvetica,sans-Serif" font-size="11.00">&lt; 3</text>
<polygon fill="#ffffff" stroke="transparent" points="435.5,-528 435.5,-544 523.5,-544 523.5,-528 435.5,-528"/>
<text text-anchor="start" x="463" y="-533.2" font-family="Helvetica,sans-Serif" font-size="11.00">2 rows</text>
<polygon fill="#ffffff" stroke="transparent" points="523.5,-528 523.5,-544 606.5,-544 606.5,-528 523.5,-528"/>
<text text-anchor="start" x="576.5" y="-533.2" font-family="Helvetica,sans-Serif" font-size="11.00">205 &gt;</text>
<polygon fill="black" stroke="black" points="435.5,-528 435.5,-544 435.5,-544 435.5,-528 435.5,-528"/>
<polygon fill="black" stroke="black" points="523.5,-528 523.5,-544 523.5,-544 523.5,-528 523.5,-528"/>
</a>
</g>
</g>
<!-- ad_passwordrule -->
<g id="node2" class="node">
<title>ad_passwordrule</title>
<g id="a_node2"><a xlink:href="../../tables/ad_passwordrule.html" xlink:title="ad_passwordrule" target="_top">
<polygon fill="#ffffff" stroke="transparent" points="8,-37 8,-675 313,-675 313,-37 8,-37"/>
<polygon fill="#f5f5f5" stroke="transparent" points="10.5,-651 10.5,-673 311.5,-673 311.5,-651 10.5,-651"/>
<polygon fill="none" stroke="black" points="10.5,-651 10.5,-673 311.5,-673 311.5,-651 10.5,-651"/>
<text text-anchor="start" x="15.5" y="-660.2" font-family="Helvetica,sans-Serif" font-weight="bold" font-size="11.00">ad_passwordrule</text>
<text text-anchor="start" x="276.5" y="-659.2" font-family="Helvetica,sans-Serif" font-size="11.00">[table]</text>
<polygon fill="none" stroke="black" points="10.5,-629 10.5,-651 228.5,-651 228.5,-629 10.5,-629"/>
<text text-anchor="start" x="30.5" y="-637.2" font-family="Helvetica,sans-Serif" font-size="11.00">ad_client_id</text>
<polygon fill="none" stroke="black" points="228.5,-629 228.5,-651 311.5,-651 311.5,-629 228.5,-629"/>
<text text-anchor="start" x="231.5" y="-637.2" font-family="Helvetica,sans-Serif" font-size="11.00">numeric[10]</text>
<polygon fill="none" stroke="black" points="10.5,-607 10.5,-629 228.5,-629 228.5,-607 10.5,-607"/>
<text text-anchor="start" x="30.5" y="-615.2" font-family="Helvetica,sans-Serif" font-size="11.00">ad_org_id</text>
<polygon fill="none" stroke="black" points="228.5,-607 228.5,-629 311.5,-629 311.5,-607 228.5,-607"/>
<text text-anchor="start" x="231.5" y="-615.2" font-family="Helvetica,sans-Serif" font-size="11.00">numeric[10]</text>
<polygon fill="none" stroke="black" points="10.5,-585 10.5,-607 228.5,-607 228.5,-585 10.5,-585"/>
<image xlink:href="../../images/primaryKeys.png" width="11px" height="12px" preserveAspectRatio="xMinYMin meet" x="15.5" y="-602"/>
<text text-anchor="start" x="30.5" y="-593.2" font-family="Helvetica,sans-Serif" font-size="11.00">ad_passwordrule_id</text>
<polygon fill="none" stroke="black" points="228.5,-585 228.5,-607 311.5,-607 311.5,-585 228.5,-585"/>
<text text-anchor="start" x="231.5" y="-593.2" font-family="Helvetica,sans-Serif" font-size="11.00">numeric[10]</text>
<polygon fill="none" stroke="black" points="10.5,-563 10.5,-585 228.5,-585 228.5,-563 10.5,-563"/>
<text text-anchor="start" x="30.5" y="-571.2" font-family="Helvetica,sans-Serif" font-size="11.00">alphabeticalcharacter</text>
<polygon fill="none" stroke="black" points="228.5,-563 228.5,-585 311.5,-585 311.5,-563 228.5,-563"/>
<text text-anchor="start" x="231.5" y="-571.2" font-family="Helvetica,sans-Serif" font-size="11.00">numeric[10]</text>
<polygon fill="none" stroke="black" points="10.5,-541 10.5,-563 228.5,-563 228.5,-541 10.5,-541"/>
<text text-anchor="start" x="30.5" y="-549.2" font-family="Helvetica,sans-Serif" font-size="11.00">created</text>
<polygon fill="none" stroke="black" points="228.5,-541 228.5,-563 311.5,-563 311.5,-541 228.5,-541"/>
<text text-anchor="start" x="231.5" y="-549.2" font-family="Helvetica,sans-Serif" font-size="11.00">timestamp[29,6]</text>
<polygon fill="none" stroke="black" points="10.5,-519 10.5,-541 228.5,-541 228.5,-519 10.5,-519"/>
<text text-anchor="start" x="30.5" y="-527.2" font-family="Helvetica,sans-Serif" font-size="11.00">createdby</text>
<polygon fill="none" stroke="black" points="228.5,-519 228.5,-541 311.5,-541 311.5,-519 228.5,-519"/>
<text text-anchor="start" x="231.5" y="-527.2" font-family="Helvetica,sans-Serif" font-size="11.00">numeric[10]</text>
<polygon fill="none" stroke="black" points="10.5,-497 10.5,-519 228.5,-519 228.5,-497 10.5,-497"/>
<text text-anchor="start" x="30.5" y="-505.2" font-family="Helvetica,sans-Serif" font-size="11.00">isdictmatchbackwards</text>
<polygon fill="none" stroke="black" points="228.5,-497 228.5,-519 311.5,-519 311.5,-497 228.5,-497"/>
<text text-anchor="start" x="231.5" y="-505.2" font-family="Helvetica,sans-Serif" font-size="11.00">bpchar[1]</text>
<polygon fill="none" stroke="black" points="10.5,-475 10.5,-497 228.5,-497 228.5,-475 10.5,-475"/>
<text text-anchor="start" x="30.5" y="-483.2" font-family="Helvetica,sans-Serif" font-size="11.00">digitcharacter</text>
<polygon fill="none" stroke="black" points="228.5,-475 228.5,-497 311.5,-497 311.5,-475 228.5,-475"/>
<text text-anchor="start" x="231.5" y="-483.2" font-family="Helvetica,sans-Serif" font-size="11.00">numeric[10]</text>
<polygon fill="none" stroke="black" points="10.5,-453 10.5,-475 228.5,-475 228.5,-453 10.5,-453"/>
<text text-anchor="start" x="30.5" y="-461.2" font-family="Helvetica,sans-Serif" font-size="11.00">isactive</text>
<polygon fill="none" stroke="black" points="228.5,-453 228.5,-475 311.5,-475 311.5,-453 228.5,-453"/>
<text text-anchor="start" x="231.5" y="-461.2" font-family="Helvetica,sans-Serif" font-size="11.00">bpchar[1]</text>
<polygon fill="none" stroke="black" points="10.5,-431 10.5,-453 228.5,-453 228.5,-431 10.5,-431"/>
<text text-anchor="start" x="30.5" y="-439.2" font-family="Helvetica,sans-Serif" font-size="11.00">lowercasecharacter</text>
<polygon fill="none" stroke="black" points="228.5,-431 228.5,-453 311.5,-453 311.5,-431 228.5,-431"/>
<text text-anchor="start" x="231.5" y="-439.2" font-family="Helvetica,sans-Serif" font-size="11.00">numeric[10]</text>
<polygon fill="none" stroke="black" points="10.5,-409 10.5,-431 228.5,-431 228.5,-409 10.5,-409"/>
<text text-anchor="start" x="30.5" y="-417.2" font-family="Helvetica,sans-Serif" font-size="11.00">maxlength</text>
<polygon fill="none" stroke="black" points="228.5,-409 228.5,-431 311.5,-431 311.5,-409 228.5,-409"/>
<text text-anchor="start" x="231.5" y="-417.2" font-family="Helvetica,sans-Serif" font-size="11.00">numeric[10]</text>
<polygon fill="none" stroke="black" points="10.5,-387 10.5,-409 228.5,-409 228.5,-387 10.5,-387"/>
<text text-anchor="start" x="30.5" y="-395.2" font-family="Helvetica,sans-Serif" font-size="11.00">minlength</text>
<polygon fill="none" stroke="black" points="228.5,-387 228.5,-409 311.5,-409 311.5,-387 228.5,-387"/>
<text text-anchor="start" x="231.5" y="-395.2" font-family="Helvetica,sans-Serif" font-size="11.00">numeric[10]</text>
<polygon fill="none" stroke="black" points="10.5,-365 10.5,-387 228.5,-387 228.5,-365 10.5,-365"/>
<text text-anchor="start" x="30.5" y="-373.2" font-family="Helvetica,sans-Serif" font-size="11.00">name</text>
<polygon fill="none" stroke="black" points="228.5,-365 228.5,-387 311.5,-387 311.5,-365 228.5,-365"/>
<text text-anchor="start" x="231.5" y="-373.2" font-family="Helvetica,sans-Serif" font-size="11.00">varchar[60]</text>
<polygon fill="none" stroke="black" points="10.5,-343 10.5,-365 228.5,-365 228.5,-343 10.5,-343"/>
<text text-anchor="start" x="30.5" y="-351.2" font-family="Helvetica,sans-Serif" font-size="11.00">nonalphanumericcharacter</text>
<polygon fill="none" stroke="black" points="228.5,-343 228.5,-365 311.5,-365 311.5,-343 228.5,-343"/>
<text text-anchor="start" x="231.5" y="-351.2" font-family="Helvetica,sans-Serif" font-size="11.00">numeric[10]</text>
<polygon fill="none" stroke="black" points="10.5,-321 10.5,-343 228.5,-343 228.5,-321 10.5,-321"/>
<text text-anchor="start" x="30.5" y="-329.2" font-family="Helvetica,sans-Serif" font-size="11.00">numericalsequence</text>
<polygon fill="none" stroke="black" points="228.5,-321 228.5,-343 311.5,-343 311.5,-321 228.5,-321"/>
<text text-anchor="start" x="231.5" y="-329.2" font-family="Helvetica,sans-Serif" font-size="11.00">numeric[10]</text>
<polygon fill="none" stroke="black" points="10.5,-299 10.5,-321 228.5,-321 228.5,-299 10.5,-299"/>
<text text-anchor="start" x="30.5" y="-307.2" font-family="Helvetica,sans-Serif" font-size="11.00">pathdictionary</text>
<polygon fill="none" stroke="black" points="228.5,-299 228.5,-321 311.5,-321 311.5,-299 228.5,-299"/>
<text text-anchor="start" x="231.5" y="-307.2" font-family="Helvetica,sans-Serif" font-size="11.00">varchar[255]</text>
<polygon fill="none" stroke="black" points="10.5,-277 10.5,-299 228.5,-299 228.5,-277 10.5,-277"/>
<text text-anchor="start" x="30.5" y="-285.2" font-family="Helvetica,sans-Serif" font-size="11.00">repeatcharacterregex</text>
<polygon fill="none" stroke="black" points="228.5,-277 228.5,-299 311.5,-299 311.5,-277 228.5,-277"/>
<text text-anchor="start" x="231.5" y="-285.2" font-family="Helvetica,sans-Serif" font-size="11.00">numeric[10]</text>
<polygon fill="none" stroke="black" points="10.5,-255 10.5,-277 228.5,-277 228.5,-255 10.5,-255"/>
<text text-anchor="start" x="30.5" y="-263.2" font-family="Helvetica,sans-Serif" font-size="11.00">updated</text>
<polygon fill="none" stroke="black" points="228.5,-255 228.5,-277 311.5,-277 311.5,-255 228.5,-255"/>
<text text-anchor="start" x="231.5" y="-263.2" font-family="Helvetica,sans-Serif" font-size="11.00">timestamp[29,6]</text>
<polygon fill="none" stroke="black" points="10.5,-233 10.5,-255 228.5,-255 228.5,-233 10.5,-233"/>
<text text-anchor="start" x="30.5" y="-241.2" font-family="Helvetica,sans-Serif" font-size="11.00">updatedby</text>
<polygon fill="none" stroke="black" points="228.5,-233 228.5,-255 311.5,-255 311.5,-233 228.5,-233"/>
<text text-anchor="start" x="231.5" y="-241.2" font-family="Helvetica,sans-Serif" font-size="11.00">numeric[10]</text>
<polygon fill="none" stroke="black" points="10.5,-211 10.5,-233 228.5,-233 228.5,-211 10.5,-211"/>
<text text-anchor="start" x="30.5" y="-219.2" font-family="Helvetica,sans-Serif" font-size="11.00">uppercasecharacter</text>
<polygon fill="none" stroke="black" points="228.5,-211 228.5,-233 311.5,-233 311.5,-211 228.5,-211"/>
<text text-anchor="start" x="231.5" y="-219.2" font-family="Helvetica,sans-Serif" font-size="11.00">numeric[10]</text>
<polygon fill="none" stroke="black" points="10.5,-189 10.5,-211 228.5,-211 228.5,-189 10.5,-189"/>
<text text-anchor="start" x="30.5" y="-197.2" font-family="Helvetica,sans-Serif" font-size="11.00">isusernamerule</text>
<polygon fill="none" stroke="black" points="228.5,-189 228.5,-211 311.5,-211 311.5,-189 228.5,-189"/>
<text text-anchor="start" x="231.5" y="-197.2" font-family="Helvetica,sans-Serif" font-size="11.00">bpchar[1]</text>
<polygon fill="none" stroke="black" points="10.5,-167 10.5,-189 228.5,-189 228.5,-167 10.5,-167"/>
<text text-anchor="start" x="30.5" y="-175.2" font-family="Helvetica,sans-Serif" font-size="11.00">isusingdictionary</text>
<polygon fill="none" stroke="black" points="228.5,-167 228.5,-189 311.5,-189 311.5,-167 228.5,-167"/>
<text text-anchor="start" x="231.5" y="-175.2" font-family="Helvetica,sans-Serif" font-size="11.00">bpchar[1]</text>
<polygon fill="none" stroke="black" points="10.5,-145 10.5,-167 228.5,-167 228.5,-145 10.5,-145"/>
<text text-anchor="start" x="30.5" y="-153.2" font-family="Helvetica,sans-Serif" font-size="11.00">iswhitespace</text>
<polygon fill="none" stroke="black" points="228.5,-145 228.5,-167 311.5,-167 311.5,-145 228.5,-145"/>
<text text-anchor="start" x="231.5" y="-153.2" font-family="Helvetica,sans-Serif" font-size="11.00">bpchar[1]</text>
<polygon fill="#ffffff" stroke="transparent" points="10.5,-123 10.5,-145 228.5,-145 228.5,-123 10.5,-123"/>
<polygon fill="none" stroke="black" points="10.5,-123 10.5,-145 228.5,-145 228.5,-123 10.5,-123"/>
<text text-anchor="start" x="30.5" y="-131.2" font-family="Helvetica,sans-Serif" font-size="11.00">ad_passwordrule_uu</text>
<polygon fill="none" stroke="black" points="228.5,-123 228.5,-145 311.5,-145 311.5,-123 228.5,-123"/>
<text text-anchor="start" x="231.5" y="-131.2" font-family="Helvetica,sans-Serif" font-size="11.00">varchar[36]</text>
<polygon fill="none" stroke="black" points="10.5,-101 10.5,-123 228.5,-123 228.5,-101 10.5,-101"/>
<text text-anchor="start" x="30.5" y="-109.2" font-family="Helvetica,sans-Serif" font-size="11.00">alphabeticalsequence</text>
<polygon fill="none" stroke="black" points="228.5,-101 228.5,-123 311.5,-123 311.5,-101 228.5,-101"/>
<text text-anchor="start" x="231.5" y="-109.2" font-family="Helvetica,sans-Serif" font-size="11.00">numeric[10]</text>
<polygon fill="none" stroke="black" points="10.5,-79 10.5,-101 228.5,-101 228.5,-79 10.5,-79"/>
<text text-anchor="start" x="30.5" y="-87.2" font-family="Helvetica,sans-Serif" font-size="11.00">qwertysequence</text>
<polygon fill="none" stroke="black" points="228.5,-79 228.5,-101 311.5,-101 311.5,-79 228.5,-79"/>
<text text-anchor="start" x="231.5" y="-87.2" font-family="Helvetica,sans-Serif" font-size="11.00">numeric[10]</text>
<polygon fill="none" stroke="black" points="10.5,-57 10.5,-79 228.5,-79 228.5,-57 10.5,-57"/>
<text text-anchor="start" x="30.5" y="-65.2" font-family="Helvetica,sans-Serif" font-size="11.00">days_reuse_password</text>
<polygon fill="none" stroke="black" points="228.5,-57 228.5,-79 311.5,-79 311.5,-57 228.5,-57"/>
<text text-anchor="start" x="231.5" y="-65.2" font-family="Helvetica,sans-Serif" font-size="11.00">numeric[10]</text>
<polygon fill="#ffffff" stroke="transparent" points="10.5,-39 10.5,-57 311.5,-57 311.5,-39 10.5,-39"/>
<polygon fill="none" stroke="black" points="10.5,-39 10.5,-57 311.5,-57 311.5,-39 10.5,-39"/>
<polygon fill="#ffffff" stroke="transparent" points="11.5,-40 11.5,-56 105.5,-56 105.5,-40 11.5,-40"/>
<text text-anchor="start" x="13.5" y="-45.2" font-family="Helvetica,sans-Serif" font-size="11.00">&lt; 0</text>
<polygon fill="#ffffff" stroke="transparent" points="105.5,-40 105.5,-56 216.5,-56 216.5,-40 105.5,-40"/>
<text text-anchor="start" x="144.5" y="-45.2" font-family="Helvetica,sans-Serif" font-size="11.00">6 rows</text>
<polygon fill="#ffffff" stroke="transparent" points="216.5,-40 216.5,-56 310.5,-56 310.5,-40 216.5,-40"/>
<text text-anchor="start" x="292.5" y="-45.2" font-family="Helvetica,sans-Serif" font-size="11.00">1 &gt;</text>
<polygon fill="black" stroke="black" points="105.5,-40 105.5,-56 105.5,-56 105.5,-40 105.5,-40"/>
<polygon fill="black" stroke="black" points="216.5,-40 216.5,-56 216.5,-56 216.5,-40 216.5,-40"/>
<polygon fill="none" stroke="black" stroke-width="2" points="9,-38 9,-674 312,-674 312,-38 9,-38"/>
</a>
</g>
</g>
<!-- ad_client&#45;&gt;ad_passwordrule -->
<g id="edge1" class="edge">
<title>ad_client:w&#45;&gt;ad_passwordrule:e</title>
<path fill="none" stroke="black" d="M346.99,-596C335.68,-596 328.49,-596 312.5,-596"/>
<polygon fill="black" stroke="black" points="353.5,-596 361.5,-599.6 357.5,-596 361.5,-596 361.5,-596 361.5,-596 357.5,-596 361.5,-592.4 353.5,-596 353.5,-596"/>
<ellipse fill="none" stroke="black" cx="350.3" cy="-596" rx="3.2" ry="3.2"/>
</g>
</g>
</svg>
