<?xml version="1.0" encoding="UTF-8" standalone="no"?>
<!DOCTYPE svg PUBLIC "-//W3C//DTD SVG 1.1//EN"
 "http://www.w3.org/Graphics/SVG/1.1/DTD/svg11.dtd">
<!-- Generated by graphviz version 2.43.0 (0)
 -->
<!-- Title: oneDegreeRelationshipsDiagram Pages: 1 -->
<svg width="556pt" height="538pt"
 viewBox="0.00 0.00 556.00 538.00" xmlns="http://www.w3.org/2000/svg" xmlns:xlink="http://www.w3.org/1999/xlink">
<g id="graph0" class="graph" transform="scale(1 1) rotate(0) translate(4 534)">
<title>oneDegreeRelationshipsDiagram</title>
<polygon fill="#ffffff" stroke="transparent" points="-4,4 -4,-534 552,-534 552,4 -4,4"/>
<text text-anchor="middle" x="71.5" y="-7.2" font-family="Helvetica,sans-Serif" font-size="11.00">Generated by SchemaSpy</text>
<!-- ad_record_access -->
<g id="node1" class="node">
<title>ad_record_access</title>
<g id="a_node1"><a xlink:href="../../tables/ad_record_access.html" xlink:title="ad_record_access" target="_top">
<polygon fill="#ffffff" stroke="transparent" points="280,-59 280,-411 540,-411 540,-59 280,-59"/>
<polygon fill="#f5f5f5" stroke="transparent" points="282,-387 282,-409 538,-409 538,-387 282,-387"/>
<polygon fill="none" stroke="black" points="282,-387 282,-409 538,-409 538,-387 282,-387"/>
<text text-anchor="start" x="287" y="-396.2" font-family="Helvetica,sans-Serif" font-weight="bold" font-size="11.00">ad_record_access</text>
<text text-anchor="start" x="503" y="-395.2" font-family="Helvetica,sans-Serif" font-size="11.00">[table]</text>
<polygon fill="none" stroke="black" points="282,-365 282,-387 455,-387 455,-365 282,-365"/>
<image xlink:href="../../images/primaryKeys.png" width="11px" height="12px" preserveAspectRatio="xMinYMin meet" x="287" y="-382"/>
<text text-anchor="start" x="302" y="-373.2" font-family="Helvetica,sans-Serif" font-size="11.00">ad_role_id</text>
<polygon fill="none" stroke="black" points="455,-365 455,-387 538,-387 538,-365 455,-365"/>
<text text-anchor="start" x="458" y="-373.2" font-family="Helvetica,sans-Serif" font-size="11.00">numeric[10]</text>
<polygon fill="none" stroke="black" points="282,-343 282,-365 455,-365 455,-343 282,-343"/>
<image xlink:href="../../images/primaryKeys.png" width="11px" height="12px" preserveAspectRatio="xMinYMin meet" x="287" y="-360"/>
<text text-anchor="start" x="302" y="-351.2" font-family="Helvetica,sans-Serif" font-size="11.00">ad_table_id</text>
<polygon fill="none" stroke="black" points="455,-343 455,-365 538,-365 538,-343 455,-343"/>
<text text-anchor="start" x="458" y="-351.2" font-family="Helvetica,sans-Serif" font-size="11.00">numeric[10]</text>
<polygon fill="none" stroke="black" points="282,-321 282,-343 455,-343 455,-321 282,-321"/>
<image xlink:href="../../images/primaryKeys.png" width="11px" height="12px" preserveAspectRatio="xMinYMin meet" x="287" y="-338"/>
<text text-anchor="start" x="302" y="-329.2" font-family="Helvetica,sans-Serif" font-size="11.00">record_id</text>
<polygon fill="none" stroke="black" points="455,-321 455,-343 538,-343 538,-321 455,-321"/>
<text text-anchor="start" x="458" y="-329.2" font-family="Helvetica,sans-Serif" font-size="11.00">numeric[10]</text>
<polygon fill="none" stroke="black" points="282,-299 282,-321 455,-321 455,-299 282,-299"/>
<text text-anchor="start" x="302" y="-307.2" font-family="Helvetica,sans-Serif" font-size="11.00">ad_client_id</text>
<polygon fill="none" stroke="black" points="455,-299 455,-321 538,-321 538,-299 455,-299"/>
<text text-anchor="start" x="458" y="-307.2" font-family="Helvetica,sans-Serif" font-size="11.00">numeric[10]</text>
<polygon fill="none" stroke="black" points="282,-277 282,-299 455,-299 455,-277 282,-277"/>
<text text-anchor="start" x="302" y="-285.2" font-family="Helvetica,sans-Serif" font-size="11.00">ad_org_id</text>
<polygon fill="none" stroke="black" points="455,-277 455,-299 538,-299 538,-277 455,-277"/>
<text text-anchor="start" x="458" y="-285.2" font-family="Helvetica,sans-Serif" font-size="11.00">numeric[10]</text>
<polygon fill="none" stroke="black" points="282,-255 282,-277 455,-277 455,-255 282,-255"/>
<text text-anchor="start" x="302" y="-263.2" font-family="Helvetica,sans-Serif" font-size="11.00">isactive</text>
<polygon fill="none" stroke="black" points="455,-255 455,-277 538,-277 538,-255 455,-255"/>
<text text-anchor="start" x="458" y="-263.2" font-family="Helvetica,sans-Serif" font-size="11.00">bpchar[1]</text>
<polygon fill="none" stroke="black" points="282,-233 282,-255 455,-255 455,-233 282,-233"/>
<text text-anchor="start" x="302" y="-241.2" font-family="Helvetica,sans-Serif" font-size="11.00">created</text>
<polygon fill="none" stroke="black" points="455,-233 455,-255 538,-255 538,-233 455,-233"/>
<text text-anchor="start" x="458" y="-241.2" font-family="Helvetica,sans-Serif" font-size="11.00">timestamp[29,6]</text>
<polygon fill="none" stroke="black" points="282,-211 282,-233 455,-233 455,-211 282,-211"/>
<text text-anchor="start" x="302" y="-219.2" font-family="Helvetica,sans-Serif" font-size="11.00">createdby</text>
<polygon fill="none" stroke="black" points="455,-211 455,-233 538,-233 538,-211 455,-211"/>
<text text-anchor="start" x="458" y="-219.2" font-family="Helvetica,sans-Serif" font-size="11.00">numeric[10]</text>
<polygon fill="none" stroke="black" points="282,-189 282,-211 455,-211 455,-189 282,-189"/>
<text text-anchor="start" x="302" y="-197.2" font-family="Helvetica,sans-Serif" font-size="11.00">updated</text>
<polygon fill="none" stroke="black" points="455,-189 455,-211 538,-211 538,-189 455,-189"/>
<text text-anchor="start" x="458" y="-197.2" font-family="Helvetica,sans-Serif" font-size="11.00">timestamp[29,6]</text>
<polygon fill="none" stroke="black" points="282,-167 282,-189 455,-189 455,-167 282,-167"/>
<text text-anchor="start" x="302" y="-175.2" font-family="Helvetica,sans-Serif" font-size="11.00">updatedby</text>
<polygon fill="none" stroke="black" points="455,-167 455,-189 538,-189 538,-167 455,-167"/>
<text text-anchor="start" x="458" y="-175.2" font-family="Helvetica,sans-Serif" font-size="11.00">numeric[10]</text>
<polygon fill="none" stroke="black" points="282,-145 282,-167 455,-167 455,-145 282,-145"/>
<text text-anchor="start" x="302" y="-153.2" font-family="Helvetica,sans-Serif" font-size="11.00">isreadonly</text>
<polygon fill="none" stroke="black" points="455,-145 455,-167 538,-167 538,-145 455,-145"/>
<text text-anchor="start" x="458" y="-153.2" font-family="Helvetica,sans-Serif" font-size="11.00">bpchar[1]</text>
<polygon fill="none" stroke="black" points="282,-123 282,-145 455,-145 455,-123 282,-123"/>
<text text-anchor="start" x="302" y="-131.2" font-family="Helvetica,sans-Serif" font-size="11.00">isexclude</text>
<polygon fill="none" stroke="black" points="455,-123 455,-145 538,-145 538,-123 455,-123"/>
<text text-anchor="start" x="458" y="-131.2" font-family="Helvetica,sans-Serif" font-size="11.00">bpchar[1]</text>
<polygon fill="none" stroke="black" points="282,-101 282,-123 455,-123 455,-101 282,-101"/>
<text text-anchor="start" x="302" y="-109.2" font-family="Helvetica,sans-Serif" font-size="11.00">isdependententities</text>
<polygon fill="none" stroke="black" points="455,-101 455,-123 538,-123 538,-101 455,-101"/>
<text text-anchor="start" x="458" y="-109.2" font-family="Helvetica,sans-Serif" font-size="11.00">bpchar[1]</text>
<polygon fill="#ffffff" stroke="transparent" points="282,-79 282,-101 455,-101 455,-79 282,-79"/>
<polygon fill="none" stroke="black" points="282,-79 282,-101 455,-101 455,-79 282,-79"/>
<text text-anchor="start" x="302" y="-87.2" font-family="Helvetica,sans-Serif" font-size="11.00">ad_record_access_uu</text>
<polygon fill="none" stroke="black" points="455,-79 455,-101 538,-101 538,-79 455,-79"/>
<text text-anchor="start" x="458" y="-87.2" font-family="Helvetica,sans-Serif" font-size="11.00">varchar[36]</text>
<polygon fill="#ffffff" stroke="transparent" points="282,-61 282,-79 538,-79 538,-61 282,-61"/>
<polygon fill="none" stroke="black" points="282,-61 282,-79 538,-79 538,-61 282,-61"/>
<polygon fill="#ffffff" stroke="transparent" points="283,-62 283,-78 371,-78 371,-62 283,-62"/>
<text text-anchor="start" x="285" y="-67.2" font-family="Helvetica,sans-Serif" font-size="11.00">&lt; 2</text>
<polygon fill="#ffffff" stroke="transparent" points="371,-62 371,-78 450,-78 450,-62 371,-62"/>
<text text-anchor="start" x="407" y="-67.2" font-family="Helvetica,sans-Serif" font-size="11.00"> &#160;</text>
<polygon fill="#ffffff" stroke="transparent" points="450,-62 450,-78 537,-78 537,-62 450,-62"/>
<text text-anchor="start" x="519" y="-67.2" font-family="Helvetica,sans-Serif" font-size="11.00">0 &gt;</text>
<polygon fill="black" stroke="black" points="371,-62 371,-78 371,-78 371,-62 371,-62"/>
<polygon fill="black" stroke="black" points="450,-62 450,-78 450,-78 450,-62 450,-62"/>
<polygon fill="none" stroke="black" stroke-width="2" points="281,-60 281,-410 539,-410 539,-60 281,-60"/>
</a>
</g>
</g>
<!-- ad_role -->
<g id="node2" class="node">
<title>ad_role</title>
<g id="a_node2"><a xlink:href="../../tables/ad_role.html" xlink:title="ad_role" target="_top">
<polygon fill="#ffffff" stroke="transparent" points="8,-292 8,-526 231,-526 231,-292 8,-292"/>
<polygon fill="#f5f5f5" stroke="transparent" points="8.5,-504 8.5,-526 231.5,-526 231.5,-504 8.5,-504"/>
<polygon fill="none" stroke="black" points="8.5,-504 8.5,-526 231.5,-526 231.5,-504 8.5,-504"/>
<text text-anchor="start" x="13.5" y="-513.2" font-family="Helvetica,sans-Serif" font-weight="bold" font-size="11.00">ad_role</text>
<text text-anchor="start" x="196.5" y="-512.2" font-family="Helvetica,sans-Serif" font-size="11.00">[table]</text>
<polygon fill="none" stroke="black" points="8.5,-482 8.5,-504 231.5,-504 231.5,-482 8.5,-482"/>
<image xlink:href="../../images/primaryKeys.png" width="11px" height="12px" preserveAspectRatio="xMinYMin meet" x="13.5" y="-499"/>
<text text-anchor="start" x="28.5" y="-490.2" font-family="Helvetica,sans-Serif" font-size="11.00">ad_role_id</text>
<polygon fill="none" stroke="black" points="8.5,-460 8.5,-482 231.5,-482 231.5,-460 8.5,-460"/>
<image xlink:href="../../images/foreignKeys.png" width="11px" height="12px" preserveAspectRatio="xMinYMin meet" x="13.5" y="-477"/>
<text text-anchor="start" x="28.5" y="-468.2" font-family="Helvetica,sans-Serif" font-size="11.00">ad_client_id</text>
<polygon fill="none" stroke="black" points="8.5,-438 8.5,-460 231.5,-460 231.5,-438 8.5,-438"/>
<image xlink:href="../../images/foreignKeys.png" width="11px" height="12px" preserveAspectRatio="xMinYMin meet" x="13.5" y="-455"/>
<text text-anchor="start" x="28.5" y="-446.2" font-family="Helvetica,sans-Serif" font-size="11.00">ad_org_id</text>
<polygon fill="none" stroke="black" points="8.5,-416 8.5,-438 231.5,-438 231.5,-416 8.5,-416"/>
<image xlink:href="../../images/foreignKeys.png" width="11px" height="12px" preserveAspectRatio="xMinYMin meet" x="13.5" y="-433"/>
<text text-anchor="start" x="28.5" y="-424.2" font-family="Helvetica,sans-Serif" font-size="11.00">c_currency_id</text>
<polygon fill="none" stroke="black" points="8.5,-394 8.5,-416 231.5,-416 231.5,-394 8.5,-394"/>
<image xlink:href="../../images/foreignKeys.png" width="11px" height="12px" preserveAspectRatio="xMinYMin meet" x="13.5" y="-411"/>
<text text-anchor="start" x="28.5" y="-402.2" font-family="Helvetica,sans-Serif" font-size="11.00">ad_tree_menu_id</text>
<polygon fill="none" stroke="black" points="8.5,-372 8.5,-394 231.5,-394 231.5,-372 8.5,-372"/>
<image xlink:href="../../images/foreignKeys.png" width="11px" height="12px" preserveAspectRatio="xMinYMin meet" x="13.5" y="-389"/>
<text text-anchor="start" x="28.5" y="-380.2" font-family="Helvetica,sans-Serif" font-size="11.00">supervisor_id</text>
<polygon fill="none" stroke="black" points="8.5,-350 8.5,-372 231.5,-372 231.5,-350 8.5,-350"/>
<image xlink:href="../../images/foreignKeys.png" width="11px" height="12px" preserveAspectRatio="xMinYMin meet" x="13.5" y="-367"/>
<text text-anchor="start" x="28.5" y="-358.2" font-family="Helvetica,sans-Serif" font-size="11.00">ad_tree_org_id</text>
<polygon fill="#ffffff" stroke="transparent" points="8.5,-328 8.5,-350 231.5,-350 231.5,-328 8.5,-328"/>
<polygon fill="none" stroke="black" points="8.5,-328 8.5,-350 231.5,-350 231.5,-328 8.5,-328"/>
<text text-anchor="start" x="28.5" y="-336.2" font-family="Helvetica,sans-Serif" font-size="11.00">ad_role_uu</text>
<polygon fill="none" stroke="black" points="8.5,-310 8.5,-328 231.5,-328 231.5,-310 8.5,-310"/>
<text text-anchor="start" x="11.5" y="-316.2" font-family="Helvetica,sans-Serif" font-size="11.00">...</text>
<polygon fill="#ffffff" stroke="transparent" points="8.5,-292 8.5,-310 231.5,-310 231.5,-292 8.5,-292"/>
<polygon fill="none" stroke="black" points="8.5,-292 8.5,-310 231.5,-310 231.5,-292 8.5,-292"/>
<polygon fill="#ffffff" stroke="transparent" points="9.5,-293 9.5,-309 73.5,-309 73.5,-293 9.5,-293"/>
<text text-anchor="start" x="11.5" y="-298.2" font-family="Helvetica,sans-Serif" font-size="11.00">&lt; 6</text>
<polygon fill="#ffffff" stroke="transparent" points="73.5,-293 73.5,-309 160.5,-309 160.5,-293 73.5,-293"/>
<text text-anchor="start" x="97.5" y="-298.2" font-family="Helvetica,sans-Serif" font-size="11.00">13 rows</text>
<polygon fill="#ffffff" stroke="transparent" points="160.5,-293 160.5,-309 230.5,-309 230.5,-293 160.5,-293"/>
<text text-anchor="start" x="206.5" y="-298.2" font-family="Helvetica,sans-Serif" font-size="11.00">45 &gt;</text>
<polygon fill="black" stroke="black" points="73.5,-293 73.5,-309 73.5,-309 73.5,-293 73.5,-293"/>
<polygon fill="black" stroke="black" points="160.5,-293 160.5,-309 160.5,-309 160.5,-293 160.5,-293"/>
</a>
</g>
</g>
<!-- ad_record_access&#45;&gt;ad_role -->
<g id="edge1" class="edge">
<title>ad_record_access:w&#45;&gt;ad_role:e</title>
<path fill="none" stroke="black" d="M266.92,-379.63C236.89,-399.38 282.85,-493 232.5,-493"/>
<polygon fill="black" stroke="black" points="273.25,-378 281.9,-379.49 277.13,-377 281,-376 281,-376 281,-376 277.13,-377 280.1,-372.51 273.25,-378 273.25,-378"/>
<ellipse fill="none" stroke="black" cx="270.15" cy="-378.8" rx="3.2" ry="3.2"/>
</g>
<!-- ad_table -->
<g id="node3" class="node">
<title>ad_table</title>
<g id="a_node3"><a xlink:href="../../tables/ad_table.html" xlink:title="ad_table" target="_top">
<polygon fill="#ffffff" stroke="transparent" points="13,-37 13,-271 226,-271 226,-37 13,-37"/>
<polygon fill="#f5f5f5" stroke="transparent" points="13.5,-249 13.5,-271 226.5,-271 226.5,-249 13.5,-249"/>
<polygon fill="none" stroke="black" points="13.5,-249 13.5,-271 226.5,-271 226.5,-249 13.5,-249"/>
<text text-anchor="start" x="18.5" y="-258.2" font-family="Helvetica,sans-Serif" font-weight="bold" font-size="11.00">ad_table</text>
<text text-anchor="start" x="191.5" y="-257.2" font-family="Helvetica,sans-Serif" font-size="11.00">[table]</text>
<polygon fill="none" stroke="black" points="13.5,-227 13.5,-249 226.5,-249 226.5,-227 13.5,-227"/>
<image xlink:href="../../images/primaryKeys.png" width="11px" height="12px" preserveAspectRatio="xMinYMin meet" x="18.5" y="-244"/>
<text text-anchor="start" x="33.5" y="-235.2" font-family="Helvetica,sans-Serif" font-size="11.00">ad_table_id</text>
<polygon fill="none" stroke="black" points="13.5,-205 13.5,-227 226.5,-227 226.5,-205 13.5,-205"/>
<image xlink:href="../../images/foreignKeys.png" width="11px" height="12px" preserveAspectRatio="xMinYMin meet" x="18.5" y="-222"/>
<text text-anchor="start" x="33.5" y="-213.2" font-family="Helvetica,sans-Serif" font-size="11.00">ad_client_id</text>
<polygon fill="none" stroke="black" points="13.5,-183 13.5,-205 226.5,-205 226.5,-183 13.5,-183"/>
<image xlink:href="../../images/foreignKeys.png" width="11px" height="12px" preserveAspectRatio="xMinYMin meet" x="18.5" y="-200"/>
<text text-anchor="start" x="33.5" y="-191.2" font-family="Helvetica,sans-Serif" font-size="11.00">ad_org_id</text>
<polygon fill="none" stroke="black" points="13.5,-161 13.5,-183 226.5,-183 226.5,-161 13.5,-161"/>
<image xlink:href="../../images/foreignKeys.png" width="11px" height="12px" preserveAspectRatio="xMinYMin meet" x="18.5" y="-178"/>
<text text-anchor="start" x="33.5" y="-169.2" font-family="Helvetica,sans-Serif" font-size="11.00">entitytype</text>
<polygon fill="none" stroke="black" points="13.5,-139 13.5,-161 226.5,-161 226.5,-139 13.5,-139"/>
<image xlink:href="../../images/foreignKeys.png" width="11px" height="12px" preserveAspectRatio="xMinYMin meet" x="18.5" y="-156"/>
<text text-anchor="start" x="33.5" y="-147.2" font-family="Helvetica,sans-Serif" font-size="11.00">ad_window_id</text>
<polygon fill="none" stroke="black" points="13.5,-117 13.5,-139 226.5,-139 226.5,-117 13.5,-117"/>
<image xlink:href="../../images/foreignKeys.png" width="11px" height="12px" preserveAspectRatio="xMinYMin meet" x="18.5" y="-134"/>
<text text-anchor="start" x="33.5" y="-125.2" font-family="Helvetica,sans-Serif" font-size="11.00">ad_val_rule_id</text>
<polygon fill="none" stroke="black" points="13.5,-95 13.5,-117 226.5,-117 226.5,-95 13.5,-95"/>
<image xlink:href="../../images/foreignKeys.png" width="11px" height="12px" preserveAspectRatio="xMinYMin meet" x="18.5" y="-112"/>
<text text-anchor="start" x="33.5" y="-103.2" font-family="Helvetica,sans-Serif" font-size="11.00">po_window_id</text>
<polygon fill="#ffffff" stroke="transparent" points="13.5,-73 13.5,-95 226.5,-95 226.5,-73 13.5,-73"/>
<polygon fill="none" stroke="black" points="13.5,-73 13.5,-95 226.5,-95 226.5,-73 13.5,-73"/>
<text text-anchor="start" x="33.5" y="-81.2" font-family="Helvetica,sans-Serif" font-size="11.00">ad_table_uu</text>
<polygon fill="none" stroke="black" points="13.5,-55 13.5,-73 226.5,-73 226.5,-55 13.5,-55"/>
<text text-anchor="start" x="16.5" y="-61.2" font-family="Helvetica,sans-Serif" font-size="11.00">...</text>
<polygon fill="#ffffff" stroke="transparent" points="13.5,-37 13.5,-55 226.5,-55 226.5,-37 13.5,-37"/>
<polygon fill="none" stroke="black" points="13.5,-37 13.5,-55 226.5,-55 226.5,-37 13.5,-37"/>
<polygon fill="#ffffff" stroke="transparent" points="14.5,-38 14.5,-54 70.5,-54 70.5,-38 14.5,-38"/>
<text text-anchor="start" x="16.5" y="-43.2" font-family="Helvetica,sans-Serif" font-size="11.00">&lt; 6</text>
<polygon fill="#ffffff" stroke="transparent" points="70.5,-38 70.5,-54 164.5,-54 164.5,-38 70.5,-38"/>
<text text-anchor="start" x="90.5" y="-43.2" font-family="Helvetica,sans-Serif" font-size="11.00">1.443 rows</text>
<polygon fill="#ffffff" stroke="transparent" points="164.5,-38 164.5,-54 225.5,-54 225.5,-38 164.5,-38"/>
<text text-anchor="start" x="201.5" y="-43.2" font-family="Helvetica,sans-Serif" font-size="11.00">83 &gt;</text>
<polygon fill="black" stroke="black" points="70.5,-38 70.5,-54 70.5,-54 70.5,-38 70.5,-38"/>
<polygon fill="black" stroke="black" points="164.5,-38 164.5,-54 164.5,-54 164.5,-38 164.5,-38"/>
</a>
</g>
</g>
<!-- ad_record_access&#45;&gt;ad_table -->
<g id="edge2" class="edge">
<title>ad_record_access:w&#45;&gt;ad_table:e</title>
<path fill="none" stroke="black" d="M266.66,-350.4C235.59,-330.82 278.29,-238 227.5,-238"/>
<polygon fill="black" stroke="black" points="273.24,-352.05 280.12,-357.49 277.12,-353.03 281,-354 281,-354 281,-354 277.12,-353.03 281.88,-350.51 273.24,-352.05 273.24,-352.05"/>
<ellipse fill="none" stroke="black" cx="270.14" cy="-351.27" rx="3.2" ry="3.2"/>
</g>
</g>
</svg>
