<?xml version="1.0" encoding="UTF-8" standalone="no"?>
<!DOCTYPE svg PUBLIC "-//W3C//DTD SVG 1.1//EN"
 "http://www.w3.org/Graphics/SVG/1.1/DTD/svg11.dtd">
<!-- Generated by graphviz version 2.43.0 (0)
 -->
<!-- Title: oneDegreeRelationshipsDiagram Pages: 1 -->
<svg width="573pt" height="665pt"
 viewBox="0.00 0.00 573.00 665.00" xmlns="http://www.w3.org/2000/svg" xmlns:xlink="http://www.w3.org/1999/xlink">
<g id="graph0" class="graph" transform="scale(1 1) rotate(0) translate(4 661)">
<title>oneDegreeRelationshipsDiagram</title>
<polygon fill="#ffffff" stroke="transparent" points="-4,4 -4,-661 569,-661 569,4 -4,4"/>
<text text-anchor="middle" x="71.5" y="-7.2" font-family="Helvetica,sans-Serif" font-size="11.00">Generated by SchemaSpy</text>
<!-- ad_registration -->
<g id="node1" class="node">
<title>ad_registration</title>
<g id="a_node1"><a xlink:href="../../tables/ad_registration.html" xlink:title="ad_registration" target="_top">
<polygon fill="#ffffff" stroke="transparent" points="301,-37 301,-653 557,-653 557,-37 301,-37"/>
<polygon fill="#f5f5f5" stroke="transparent" points="303,-629 303,-651 555,-651 555,-629 303,-629"/>
<polygon fill="none" stroke="black" points="303,-629 303,-651 555,-651 555,-629 303,-629"/>
<text text-anchor="start" x="308" y="-638.2" font-family="Helvetica,sans-Serif" font-weight="bold" font-size="11.00">ad_registration</text>
<text text-anchor="start" x="520" y="-637.2" font-family="Helvetica,sans-Serif" font-size="11.00">[table]</text>
<polygon fill="none" stroke="black" points="303,-607 303,-629 472,-629 472,-607 303,-607"/>
<image xlink:href="../../images/primaryKeys.png" width="11px" height="12px" preserveAspectRatio="xMinYMin meet" x="308" y="-624"/>
<text text-anchor="start" x="323" y="-615.2" font-family="Helvetica,sans-Serif" font-size="11.00">ad_registration_id</text>
<polygon fill="none" stroke="black" points="472,-607 472,-629 555,-629 555,-607 472,-607"/>
<text text-anchor="start" x="475" y="-615.2" font-family="Helvetica,sans-Serif" font-size="11.00">numeric[10]</text>
<polygon fill="none" stroke="black" points="303,-585 303,-607 472,-607 472,-585 303,-585"/>
<image xlink:href="../../images/primaryKeys.png" width="11px" height="12px" preserveAspectRatio="xMinYMin meet" x="308" y="-602"/>
<text text-anchor="start" x="323" y="-593.2" font-family="Helvetica,sans-Serif" font-size="11.00">ad_client_id</text>
<polygon fill="none" stroke="black" points="472,-585 472,-607 555,-607 555,-585 472,-585"/>
<text text-anchor="start" x="475" y="-593.2" font-family="Helvetica,sans-Serif" font-size="11.00">numeric[10]</text>
<polygon fill="none" stroke="black" points="303,-563 303,-585 472,-585 472,-563 303,-563"/>
<image xlink:href="../../images/primaryKeys.png" width="11px" height="12px" preserveAspectRatio="xMinYMin meet" x="308" y="-580"/>
<text text-anchor="start" x="323" y="-571.2" font-family="Helvetica,sans-Serif" font-size="11.00">ad_system_id</text>
<polygon fill="none" stroke="black" points="472,-563 472,-585 555,-585 555,-563 472,-563"/>
<text text-anchor="start" x="475" y="-571.2" font-family="Helvetica,sans-Serif" font-size="11.00">numeric[10]</text>
<polygon fill="none" stroke="black" points="303,-541 303,-563 472,-563 472,-541 303,-541"/>
<text text-anchor="start" x="323" y="-549.2" font-family="Helvetica,sans-Serif" font-size="11.00">ad_org_id</text>
<polygon fill="none" stroke="black" points="472,-541 472,-563 555,-563 555,-541 472,-541"/>
<text text-anchor="start" x="475" y="-549.2" font-family="Helvetica,sans-Serif" font-size="11.00">numeric[10]</text>
<polygon fill="none" stroke="black" points="303,-519 303,-541 472,-541 472,-519 303,-519"/>
<text text-anchor="start" x="323" y="-527.2" font-family="Helvetica,sans-Serif" font-size="11.00">isactive</text>
<polygon fill="none" stroke="black" points="472,-519 472,-541 555,-541 555,-519 472,-519"/>
<text text-anchor="start" x="475" y="-527.2" font-family="Helvetica,sans-Serif" font-size="11.00">bpchar[1]</text>
<polygon fill="none" stroke="black" points="303,-497 303,-519 472,-519 472,-497 303,-497"/>
<text text-anchor="start" x="323" y="-505.2" font-family="Helvetica,sans-Serif" font-size="11.00">created</text>
<polygon fill="none" stroke="black" points="472,-497 472,-519 555,-519 555,-497 472,-497"/>
<text text-anchor="start" x="475" y="-505.2" font-family="Helvetica,sans-Serif" font-size="11.00">timestamp[29,6]</text>
<polygon fill="none" stroke="black" points="303,-475 303,-497 472,-497 472,-475 303,-475"/>
<text text-anchor="start" x="323" y="-483.2" font-family="Helvetica,sans-Serif" font-size="11.00">createdby</text>
<polygon fill="none" stroke="black" points="472,-475 472,-497 555,-497 555,-475 472,-475"/>
<text text-anchor="start" x="475" y="-483.2" font-family="Helvetica,sans-Serif" font-size="11.00">numeric[10]</text>
<polygon fill="none" stroke="black" points="303,-453 303,-475 472,-475 472,-453 303,-453"/>
<text text-anchor="start" x="323" y="-461.2" font-family="Helvetica,sans-Serif" font-size="11.00">updated</text>
<polygon fill="none" stroke="black" points="472,-453 472,-475 555,-475 555,-453 472,-453"/>
<text text-anchor="start" x="475" y="-461.2" font-family="Helvetica,sans-Serif" font-size="11.00">timestamp[29,6]</text>
<polygon fill="none" stroke="black" points="303,-431 303,-453 472,-453 472,-431 303,-431"/>
<text text-anchor="start" x="323" y="-439.2" font-family="Helvetica,sans-Serif" font-size="11.00">updatedby</text>
<polygon fill="none" stroke="black" points="472,-431 472,-453 555,-453 555,-431 472,-431"/>
<text text-anchor="start" x="475" y="-439.2" font-family="Helvetica,sans-Serif" font-size="11.00">numeric[10]</text>
<polygon fill="none" stroke="black" points="303,-409 303,-431 472,-431 472,-409 303,-409"/>
<text text-anchor="start" x="323" y="-417.2" font-family="Helvetica,sans-Serif" font-size="11.00">isregistered</text>
<polygon fill="none" stroke="black" points="472,-409 472,-431 555,-431 555,-409 472,-409"/>
<text text-anchor="start" x="475" y="-417.2" font-family="Helvetica,sans-Serif" font-size="11.00">bpchar[1]</text>
<polygon fill="none" stroke="black" points="303,-387 303,-409 472,-409 472,-387 303,-387"/>
<text text-anchor="start" x="323" y="-395.2" font-family="Helvetica,sans-Serif" font-size="11.00">record_id</text>
<polygon fill="none" stroke="black" points="472,-387 472,-409 555,-409 555,-387 472,-387"/>
<text text-anchor="start" x="475" y="-395.2" font-family="Helvetica,sans-Serif" font-size="11.00">numeric[10]</text>
<polygon fill="none" stroke="black" points="303,-365 303,-387 472,-387 472,-365 303,-365"/>
<text text-anchor="start" x="323" y="-373.2" font-family="Helvetica,sans-Serif" font-size="11.00">description</text>
<polygon fill="none" stroke="black" points="472,-365 472,-387 555,-387 555,-365 472,-365"/>
<text text-anchor="start" x="475" y="-373.2" font-family="Helvetica,sans-Serif" font-size="11.00">varchar[255]</text>
<polygon fill="none" stroke="black" points="303,-343 303,-365 472,-365 472,-343 303,-343"/>
<image xlink:href="../../images/foreignKeys.png" width="11px" height="12px" preserveAspectRatio="xMinYMin meet" x="308" y="-360"/>
<text text-anchor="start" x="323" y="-351.2" font-family="Helvetica,sans-Serif" font-size="11.00">c_location_id</text>
<polygon fill="none" stroke="black" points="472,-343 472,-365 555,-365 555,-343 472,-343"/>
<text text-anchor="start" x="475" y="-351.2" font-family="Helvetica,sans-Serif" font-size="11.00">numeric[10]</text>
<polygon fill="none" stroke="black" points="303,-321 303,-343 472,-343 472,-321 303,-321"/>
<text text-anchor="start" x="323" y="-329.2" font-family="Helvetica,sans-Serif" font-size="11.00">isinproduction</text>
<polygon fill="none" stroke="black" points="472,-321 472,-343 555,-343 555,-321 472,-321"/>
<text text-anchor="start" x="475" y="-329.2" font-family="Helvetica,sans-Serif" font-size="11.00">bpchar[1]</text>
<polygon fill="none" stroke="black" points="303,-299 303,-321 472,-321 472,-299 303,-299"/>
<text text-anchor="start" x="323" y="-307.2" font-family="Helvetica,sans-Serif" font-size="11.00">startproductiondate</text>
<polygon fill="none" stroke="black" points="472,-299 472,-321 555,-321 555,-299 472,-299"/>
<text text-anchor="start" x="475" y="-307.2" font-family="Helvetica,sans-Serif" font-size="11.00">timestamp[29,6]</text>
<polygon fill="none" stroke="black" points="303,-277 303,-299 472,-299 472,-277 303,-277"/>
<text text-anchor="start" x="323" y="-285.2" font-family="Helvetica,sans-Serif" font-size="11.00">isallowpublish</text>
<polygon fill="none" stroke="black" points="472,-277 472,-299 555,-299 555,-277 472,-277"/>
<text text-anchor="start" x="475" y="-285.2" font-family="Helvetica,sans-Serif" font-size="11.00">bpchar[1]</text>
<polygon fill="none" stroke="black" points="303,-255 303,-277 472,-277 472,-255 303,-255"/>
<text text-anchor="start" x="323" y="-263.2" font-family="Helvetica,sans-Serif" font-size="11.00">isallowstatistics</text>
<polygon fill="none" stroke="black" points="472,-255 472,-277 555,-277 555,-255 472,-255"/>
<text text-anchor="start" x="475" y="-263.2" font-family="Helvetica,sans-Serif" font-size="11.00">bpchar[1]</text>
<polygon fill="none" stroke="black" points="303,-233 303,-255 472,-255 472,-233 303,-233"/>
<text text-anchor="start" x="323" y="-241.2" font-family="Helvetica,sans-Serif" font-size="11.00">platforminfo</text>
<polygon fill="none" stroke="black" points="472,-233 472,-255 555,-255 555,-233 472,-233"/>
<text text-anchor="start" x="475" y="-241.2" font-family="Helvetica,sans-Serif" font-size="11.00">varchar[255]</text>
<polygon fill="none" stroke="black" points="303,-211 303,-233 472,-233 472,-211 303,-211"/>
<text text-anchor="start" x="323" y="-219.2" font-family="Helvetica,sans-Serif" font-size="11.00">industryinfo</text>
<polygon fill="none" stroke="black" points="472,-211 472,-233 555,-233 555,-211 472,-211"/>
<text text-anchor="start" x="475" y="-219.2" font-family="Helvetica,sans-Serif" font-size="11.00">varchar[255]</text>
<polygon fill="none" stroke="black" points="303,-189 303,-211 472,-211 472,-189 303,-189"/>
<text text-anchor="start" x="323" y="-197.2" font-family="Helvetica,sans-Serif" font-size="11.00">salesvolume</text>
<polygon fill="none" stroke="black" points="472,-189 472,-211 555,-211 555,-189 472,-189"/>
<text text-anchor="start" x="475" y="-197.2" font-family="Helvetica,sans-Serif" font-size="11.00">numeric[10]</text>
<polygon fill="none" stroke="black" points="303,-167 303,-189 472,-189 472,-167 303,-167"/>
<image xlink:href="../../images/foreignKeys.png" width="11px" height="12px" preserveAspectRatio="xMinYMin meet" x="308" y="-184"/>
<text text-anchor="start" x="323" y="-175.2" font-family="Helvetica,sans-Serif" font-size="11.00">c_currency_id</text>
<polygon fill="none" stroke="black" points="472,-167 472,-189 555,-189 555,-167 472,-167"/>
<text text-anchor="start" x="475" y="-175.2" font-family="Helvetica,sans-Serif" font-size="11.00">numeric[10]</text>
<polygon fill="none" stroke="black" points="303,-145 303,-167 472,-167 472,-145 303,-145"/>
<text text-anchor="start" x="323" y="-153.2" font-family="Helvetica,sans-Serif" font-size="11.00">numberemployees</text>
<polygon fill="none" stroke="black" points="472,-145 472,-167 555,-167 555,-145 472,-145"/>
<text text-anchor="start" x="475" y="-153.2" font-family="Helvetica,sans-Serif" font-size="11.00">numeric[10]</text>
<polygon fill="none" stroke="black" points="303,-123 303,-145 472,-145 472,-123 303,-123"/>
<text text-anchor="start" x="323" y="-131.2" font-family="Helvetica,sans-Serif" font-size="11.00">processing</text>
<polygon fill="none" stroke="black" points="472,-123 472,-145 555,-145 555,-123 472,-123"/>
<text text-anchor="start" x="475" y="-131.2" font-family="Helvetica,sans-Serif" font-size="11.00">bpchar[1]</text>
<polygon fill="none" stroke="black" points="303,-101 303,-123 472,-123 472,-101 303,-101"/>
<text text-anchor="start" x="323" y="-109.2" font-family="Helvetica,sans-Serif" font-size="11.00">remote_host</text>
<polygon fill="none" stroke="black" points="472,-101 472,-123 555,-123 555,-101 472,-101"/>
<text text-anchor="start" x="475" y="-109.2" font-family="Helvetica,sans-Serif" font-size="11.00">varchar[120]</text>
<polygon fill="none" stroke="black" points="303,-79 303,-101 472,-101 472,-79 303,-79"/>
<text text-anchor="start" x="323" y="-87.2" font-family="Helvetica,sans-Serif" font-size="11.00">remote_addr</text>
<polygon fill="none" stroke="black" points="472,-79 472,-101 555,-101 555,-79 472,-79"/>
<text text-anchor="start" x="475" y="-87.2" font-family="Helvetica,sans-Serif" font-size="11.00">varchar[60]</text>
<polygon fill="#ffffff" stroke="transparent" points="303,-57 303,-79 472,-79 472,-57 303,-57"/>
<polygon fill="none" stroke="black" points="303,-57 303,-79 472,-79 472,-57 303,-57"/>
<text text-anchor="start" x="323" y="-65.2" font-family="Helvetica,sans-Serif" font-size="11.00">ad_registration_uu</text>
<polygon fill="none" stroke="black" points="472,-57 472,-79 555,-79 555,-57 472,-57"/>
<text text-anchor="start" x="475" y="-65.2" font-family="Helvetica,sans-Serif" font-size="11.00">varchar[36]</text>
<polygon fill="#ffffff" stroke="transparent" points="303,-39 303,-57 555,-57 555,-39 303,-39"/>
<polygon fill="none" stroke="black" points="303,-39 303,-57 555,-57 555,-39 303,-39"/>
<polygon fill="#ffffff" stroke="transparent" points="304,-40 304,-56 391,-56 391,-40 304,-40"/>
<text text-anchor="start" x="306" y="-45.2" font-family="Helvetica,sans-Serif" font-size="11.00">&lt; 4</text>
<polygon fill="#ffffff" stroke="transparent" points="391,-40 391,-56 468,-56 468,-40 391,-40"/>
<text text-anchor="start" x="426" y="-45.2" font-family="Helvetica,sans-Serif" font-size="11.00"> &#160;</text>
<polygon fill="#ffffff" stroke="transparent" points="468,-40 468,-56 554,-56 554,-40 468,-40"/>
<text text-anchor="start" x="536" y="-45.2" font-family="Helvetica,sans-Serif" font-size="11.00">0 &gt;</text>
<polygon fill="black" stroke="black" points="391,-40 391,-56 391,-56 391,-40 391,-40"/>
<polygon fill="black" stroke="black" points="468,-40 468,-56 468,-56 468,-40 468,-40"/>
<polygon fill="none" stroke="black" stroke-width="2" points="302,-38 302,-652 556,-652 556,-38 302,-38"/>
</a>
</g>
</g>
<!-- ad_system -->
<g id="node2" class="node">
<title>ad_system</title>
<g id="a_node2"><a xlink:href="../../tables/ad_system.html" xlink:title="ad_system" target="_top">
<polygon fill="#ffffff" stroke="transparent" points="8,-506 8,-630 252,-630 252,-506 8,-506"/>
<polygon fill="#f5f5f5" stroke="transparent" points="8,-608 8,-630 252,-630 252,-608 8,-608"/>
<polygon fill="none" stroke="black" points="8,-608 8,-630 252,-630 252,-608 8,-608"/>
<text text-anchor="start" x="13" y="-617.2" font-family="Helvetica,sans-Serif" font-weight="bold" font-size="11.00">ad_system</text>
<text text-anchor="start" x="217" y="-616.2" font-family="Helvetica,sans-Serif" font-size="11.00">[table]</text>
<polygon fill="none" stroke="black" points="8,-586 8,-608 252,-608 252,-586 8,-586"/>
<image xlink:href="../../images/primaryKeys.png" width="11px" height="12px" preserveAspectRatio="xMinYMin meet" x="13" y="-603"/>
<text text-anchor="start" x="28" y="-594.2" font-family="Helvetica,sans-Serif" font-size="11.00">ad_system_id</text>
<polygon fill="none" stroke="black" points="8,-564 8,-586 252,-586 252,-564 8,-564"/>
<image xlink:href="../../images/primaryKeys.png" width="11px" height="12px" preserveAspectRatio="xMinYMin meet" x="13" y="-581"/>
<text text-anchor="start" x="28" y="-572.2" font-family="Helvetica,sans-Serif" font-size="11.00">ad_client_id</text>
<polygon fill="#ffffff" stroke="transparent" points="8,-542 8,-564 252,-564 252,-542 8,-542"/>
<polygon fill="none" stroke="black" points="8,-542 8,-564 252,-564 252,-542 8,-542"/>
<text text-anchor="start" x="28" y="-550.2" font-family="Helvetica,sans-Serif" font-size="11.00">ad_system_uu</text>
<polygon fill="none" stroke="black" points="8,-524 8,-542 252,-542 252,-524 8,-524"/>
<text text-anchor="start" x="11" y="-530.2" font-family="Helvetica,sans-Serif" font-size="11.00">...</text>
<polygon fill="#ffffff" stroke="transparent" points="8,-506 8,-524 252,-524 252,-506 8,-506"/>
<polygon fill="none" stroke="black" points="8,-506 8,-524 252,-524 252,-506 8,-506"/>
<polygon fill="#ffffff" stroke="transparent" points="9,-507 9,-523 80,-523 80,-507 9,-507"/>
<text text-anchor="start" x="11" y="-512.2" font-family="Helvetica,sans-Serif" font-size="11.00"> &#160;</text>
<polygon fill="#ffffff" stroke="transparent" points="80,-507 80,-523 172,-523 172,-507 80,-507"/>
<text text-anchor="start" x="112" y="-512.2" font-family="Helvetica,sans-Serif" font-size="11.00">1 row</text>
<polygon fill="#ffffff" stroke="transparent" points="172,-507 172,-523 251,-523 251,-507 172,-507"/>
<text text-anchor="start" x="233" y="-512.2" font-family="Helvetica,sans-Serif" font-size="11.00">2 &gt;</text>
<polygon fill="black" stroke="black" points="80,-507 80,-523 80,-523 80,-507 80,-507"/>
<polygon fill="black" stroke="black" points="172,-507 172,-523 172,-523 172,-507 172,-507"/>
</a>
</g>
</g>
<!-- ad_registration&#45;&gt;ad_system -->
<g id="edge1" class="edge">
<title>ad_registration:w&#45;&gt;ad_system:e</title>
<path fill="none" stroke="black" d="M287.68,-592.72C276.12,-586.81 270.77,-575 253,-575"/>
<polygon fill="black" stroke="black" points="294.2,-594.21 301.2,-599.51 298.1,-595.11 302,-596 302,-596 302,-596 298.1,-595.11 302.8,-592.49 294.2,-594.21 294.2,-594.21"/>
<ellipse fill="none" stroke="black" cx="291.08" cy="-593.5" rx="3.2" ry="3.2"/>
</g>
<!-- ad_registration&#45;&gt;ad_system -->
<g id="edge2" class="edge">
<title>ad_registration:w&#45;&gt;ad_system:e</title>
<path fill="none" stroke="black" d="M287.94,-577.39C276.15,-583.79 271.23,-597 253,-597"/>
<polygon fill="black" stroke="black" points="294.22,-575.88 302.84,-577.5 298.11,-574.94 302,-574 302,-574 302,-574 298.11,-574.94 301.16,-570.5 294.22,-575.88 294.22,-575.88"/>
<ellipse fill="none" stroke="black" cx="291.11" cy="-576.63" rx="3.2" ry="3.2"/>
</g>
<!-- c_currency -->
<g id="node3" class="node">
<title>c_currency</title>
<g id="a_node3"><a xlink:href="../../tables/c_currency.html" xlink:title="c_currency" target="_top">
<polygon fill="#ffffff" stroke="transparent" points="54,-41 54,-209 206,-209 206,-41 54,-41"/>
<polygon fill="#f5f5f5" stroke="transparent" points="54,-187 54,-209 206,-209 206,-187 54,-187"/>
<polygon fill="none" stroke="black" points="54,-187 54,-209 206,-209 206,-187 54,-187"/>
<text text-anchor="start" x="59" y="-196.2" font-family="Helvetica,sans-Serif" font-weight="bold" font-size="11.00">c_currency</text>
<text text-anchor="start" x="171" y="-195.2" font-family="Helvetica,sans-Serif" font-size="11.00">[table]</text>
<polygon fill="none" stroke="black" points="54,-165 54,-187 206,-187 206,-165 54,-165"/>
<image xlink:href="../../images/primaryKeys.png" width="11px" height="12px" preserveAspectRatio="xMinYMin meet" x="59" y="-182"/>
<text text-anchor="start" x="74" y="-173.2" font-family="Helvetica,sans-Serif" font-size="11.00">c_currency_id</text>
<polygon fill="none" stroke="black" points="54,-143 54,-165 206,-165 206,-143 54,-143"/>
<image xlink:href="../../images/foreignKeys.png" width="11px" height="12px" preserveAspectRatio="xMinYMin meet" x="59" y="-160"/>
<text text-anchor="start" x="74" y="-151.2" font-family="Helvetica,sans-Serif" font-size="11.00">ad_client_id</text>
<polygon fill="none" stroke="black" points="54,-121 54,-143 206,-143 206,-121 54,-121"/>
<image xlink:href="../../images/foreignKeys.png" width="11px" height="12px" preserveAspectRatio="xMinYMin meet" x="59" y="-138"/>
<text text-anchor="start" x="74" y="-129.2" font-family="Helvetica,sans-Serif" font-size="11.00">ad_org_id</text>
<polygon fill="#ffffff" stroke="transparent" points="54,-99 54,-121 206,-121 206,-99 54,-99"/>
<polygon fill="none" stroke="black" points="54,-99 54,-121 206,-121 206,-99 54,-99"/>
<text text-anchor="start" x="74" y="-107.2" font-family="Helvetica,sans-Serif" font-size="11.00">iso_code</text>
<polygon fill="#ffffff" stroke="transparent" points="54,-77 54,-99 206,-99 206,-77 54,-77"/>
<polygon fill="none" stroke="black" points="54,-77 54,-99 206,-99 206,-77 54,-77"/>
<text text-anchor="start" x="74" y="-85.2" font-family="Helvetica,sans-Serif" font-size="11.00">c_currency_uu</text>
<polygon fill="none" stroke="black" points="54,-59 54,-77 206,-77 206,-59 54,-59"/>
<text text-anchor="start" x="57" y="-65.2" font-family="Helvetica,sans-Serif" font-size="11.00">...</text>
<polygon fill="#ffffff" stroke="transparent" points="54,-41 54,-59 206,-59 206,-41 54,-41"/>
<polygon fill="none" stroke="black" points="54,-41 54,-59 206,-59 206,-41 54,-41"/>
<polygon fill="#ffffff" stroke="transparent" points="55,-42 55,-58 94,-58 94,-42 55,-42"/>
<text text-anchor="start" x="57" y="-47.2" font-family="Helvetica,sans-Serif" font-size="11.00">&lt; 2</text>
<polygon fill="#ffffff" stroke="transparent" points="94,-42 94,-58 161,-58 161,-42 94,-42"/>
<text text-anchor="start" x="105" y="-47.2" font-family="Helvetica,sans-Serif" font-size="11.00">175 rows</text>
<polygon fill="#ffffff" stroke="transparent" points="161,-42 161,-58 205,-58 205,-42 161,-42"/>
<text text-anchor="start" x="181" y="-47.2" font-family="Helvetica,sans-Serif" font-size="11.00">71 &gt;</text>
<polygon fill="black" stroke="black" points="94,-42 94,-58 94,-58 94,-42 94,-42"/>
<polygon fill="black" stroke="black" points="161,-42 161,-58 161,-58 161,-42 161,-42"/>
</a>
</g>
</g>
<!-- ad_registration&#45;&gt;c_currency -->
<g id="edge3" class="edge">
<title>ad_registration:w&#45;&gt;c_currency:e</title>
<path fill="none" stroke="black" d="M287.53,-177.91C256.64,-177.53 243.95,-176 207,-176"/>
<polygon fill="black" stroke="black" points="294,-177.95 301.98,-181.6 298,-177.98 302,-178 302,-178 302,-178 298,-177.98 302.02,-174.4 294,-177.95 294,-177.95"/>
<ellipse fill="none" stroke="black" cx="290.8" cy="-177.93" rx="3.2" ry="3.2"/>
</g>
<!-- c_location -->
<g id="node4" class="node">
<title>c_location</title>
<g id="a_node4"><a xlink:href="../../tables/c_location.html" xlink:title="c_location" target="_top">
<polygon fill="#ffffff" stroke="transparent" points="37,-230 37,-464 223,-464 223,-230 37,-230"/>
<polygon fill="#f5f5f5" stroke="transparent" points="37,-442 37,-464 223,-464 223,-442 37,-442"/>
<polygon fill="none" stroke="black" points="37,-442 37,-464 223,-464 223,-442 37,-442"/>
<text text-anchor="start" x="42" y="-451.2" font-family="Helvetica,sans-Serif" font-weight="bold" font-size="11.00">c_location</text>
<text text-anchor="start" x="188" y="-450.2" font-family="Helvetica,sans-Serif" font-size="11.00">[table]</text>
<polygon fill="none" stroke="black" points="37,-420 37,-442 223,-442 223,-420 37,-420"/>
<image xlink:href="../../images/primaryKeys.png" width="11px" height="12px" preserveAspectRatio="xMinYMin meet" x="42" y="-437"/>
<text text-anchor="start" x="57" y="-428.2" font-family="Helvetica,sans-Serif" font-size="11.00">c_location_id</text>
<polygon fill="none" stroke="black" points="37,-398 37,-420 223,-420 223,-398 37,-398"/>
<image xlink:href="../../images/foreignKeys.png" width="11px" height="12px" preserveAspectRatio="xMinYMin meet" x="42" y="-415"/>
<text text-anchor="start" x="57" y="-406.2" font-family="Helvetica,sans-Serif" font-size="11.00">ad_client_id</text>
<polygon fill="none" stroke="black" points="37,-376 37,-398 223,-398 223,-376 37,-376"/>
<image xlink:href="../../images/foreignKeys.png" width="11px" height="12px" preserveAspectRatio="xMinYMin meet" x="42" y="-393"/>
<text text-anchor="start" x="57" y="-384.2" font-family="Helvetica,sans-Serif" font-size="11.00">ad_org_id</text>
<polygon fill="none" stroke="black" points="37,-354 37,-376 223,-376 223,-354 37,-354"/>
<image xlink:href="../../images/foreignKeys.png" width="11px" height="12px" preserveAspectRatio="xMinYMin meet" x="42" y="-371"/>
<text text-anchor="start" x="57" y="-362.2" font-family="Helvetica,sans-Serif" font-size="11.00">c_country_id</text>
<polygon fill="none" stroke="black" points="37,-332 37,-354 223,-354 223,-332 37,-332"/>
<image xlink:href="../../images/foreignKeys.png" width="11px" height="12px" preserveAspectRatio="xMinYMin meet" x="42" y="-349"/>
<text text-anchor="start" x="57" y="-340.2" font-family="Helvetica,sans-Serif" font-size="11.00">c_region_id</text>
<polygon fill="none" stroke="black" points="37,-310 37,-332 223,-332 223,-310 37,-310"/>
<image xlink:href="../../images/foreignKeys.png" width="11px" height="12px" preserveAspectRatio="xMinYMin meet" x="42" y="-327"/>
<text text-anchor="start" x="57" y="-318.2" font-family="Helvetica,sans-Serif" font-size="11.00">c_city_id</text>
<polygon fill="#ffffff" stroke="transparent" points="37,-288 37,-310 223,-310 223,-288 37,-288"/>
<polygon fill="none" stroke="black" points="37,-288 37,-310 223,-310 223,-288 37,-288"/>
<text text-anchor="start" x="57" y="-296.2" font-family="Helvetica,sans-Serif" font-size="11.00">c_location_uu</text>
<polygon fill="none" stroke="black" points="37,-266 37,-288 223,-288 223,-266 37,-266"/>
<image xlink:href="../../images/foreignKeys.png" width="11px" height="12px" preserveAspectRatio="xMinYMin meet" x="42" y="-283"/>
<text text-anchor="start" x="57" y="-274.2" font-family="Helvetica,sans-Serif" font-size="11.00">c_addressvalidation_id</text>
<polygon fill="none" stroke="black" points="37,-248 37,-266 223,-266 223,-248 37,-248"/>
<text text-anchor="start" x="40" y="-254.2" font-family="Helvetica,sans-Serif" font-size="11.00">...</text>
<polygon fill="#ffffff" stroke="transparent" points="37,-230 37,-248 223,-248 223,-230 37,-230"/>
<polygon fill="none" stroke="black" points="37,-230 37,-248 223,-248 223,-230 37,-230"/>
<polygon fill="#ffffff" stroke="transparent" points="38,-231 38,-247 90,-247 90,-231 38,-231"/>
<text text-anchor="start" x="40" y="-236.2" font-family="Helvetica,sans-Serif" font-size="11.00">&lt; 6</text>
<polygon fill="#ffffff" stroke="transparent" points="90,-231 90,-247 165,-247 165,-231 90,-231"/>
<text text-anchor="start" x="108" y="-236.2" font-family="Helvetica,sans-Serif" font-size="11.00">16 rows</text>
<polygon fill="#ffffff" stroke="transparent" points="165,-231 165,-247 222,-247 222,-231 165,-231"/>
<text text-anchor="start" x="198" y="-236.2" font-family="Helvetica,sans-Serif" font-size="11.00">39 &gt;</text>
<polygon fill="black" stroke="black" points="90,-231 90,-247 90,-247 90,-231 90,-231"/>
<polygon fill="black" stroke="black" points="165,-231 165,-247 165,-247 165,-231 165,-231"/>
</a>
</g>
</g>
<!-- ad_registration&#45;&gt;c_location -->
<g id="edge4" class="edge">
<title>ad_registration:w&#45;&gt;c_location:e</title>
<path fill="none" stroke="black" d="M287.46,-356.92C256.9,-370.99 267,-431 224,-431"/>
<polygon fill="black" stroke="black" points="294.16,-355.58 302.71,-357.53 298.08,-354.79 302,-354 302,-354 302,-354 298.08,-354.79 301.29,-350.47 294.16,-355.58 294.16,-355.58"/>
<ellipse fill="none" stroke="black" cx="291.02" cy="-356.21" rx="3.2" ry="3.2"/>
</g>
</g>
</svg>
