<?xml version="1.0" encoding="UTF-8" standalone="no"?>
<!DOCTYPE svg PUBLIC "-//W3C//DTD SVG 1.1//EN"
 "http://www.w3.org/Graphics/SVG/1.1/DTD/svg11.dtd">
<!-- Generated by graphviz version 2.43.0 (0)
 -->
<!-- Title: oneDegreeRelationshipsDiagram Pages: 1 -->
<svg width="548pt" height="478pt"
 viewBox="0.00 0.00 548.00 478.00" xmlns="http://www.w3.org/2000/svg" xmlns:xlink="http://www.w3.org/1999/xlink">
<g id="graph0" class="graph" transform="scale(1 1) rotate(0) translate(4 474)">
<title>oneDegreeRelationshipsDiagram</title>
<polygon fill="#ffffff" stroke="transparent" points="-4,4 -4,-474 544,-474 544,4 -4,4"/>
<text text-anchor="middle" x="71.5" y="-7.2" font-family="Helvetica,sans-Serif" font-size="11.00">Generated by SchemaSpy</text>
<!-- ad_replication_log -->
<g id="node1" class="node">
<title>ad_replication_log</title>
<g id="a_node1"><a xlink:href="../../tables/ad_replication_log.html" xlink:title="ad_replication_log" target="_top">
<polygon fill="#ffffff" stroke="transparent" points="263,-136 263,-466 532,-466 532,-136 263,-136"/>
<polygon fill="#f5f5f5" stroke="transparent" points="265.5,-442 265.5,-464 530.5,-464 530.5,-442 265.5,-442"/>
<polygon fill="none" stroke="black" points="265.5,-442 265.5,-464 530.5,-464 530.5,-442 265.5,-442"/>
<text text-anchor="start" x="270.5" y="-451.2" font-family="Helvetica,sans-Serif" font-weight="bold" font-size="11.00">ad_replication_log</text>
<text text-anchor="start" x="495.5" y="-450.2" font-family="Helvetica,sans-Serif" font-size="11.00">[table]</text>
<polygon fill="none" stroke="black" points="265.5,-420 265.5,-442 447.5,-442 447.5,-420 265.5,-420"/>
<image xlink:href="../../images/primaryKeys.png" width="11px" height="12px" preserveAspectRatio="xMinYMin meet" x="270.5" y="-437"/>
<text text-anchor="start" x="285.5" y="-428.2" font-family="Helvetica,sans-Serif" font-size="11.00">ad_replication_log_id</text>
<polygon fill="none" stroke="black" points="447.5,-420 447.5,-442 530.5,-442 530.5,-420 447.5,-420"/>
<text text-anchor="start" x="450.5" y="-428.2" font-family="Helvetica,sans-Serif" font-size="11.00">numeric[10]</text>
<polygon fill="none" stroke="black" points="265.5,-398 265.5,-420 447.5,-420 447.5,-398 265.5,-398"/>
<text text-anchor="start" x="285.5" y="-406.2" font-family="Helvetica,sans-Serif" font-size="11.00">ad_client_id</text>
<polygon fill="none" stroke="black" points="447.5,-398 447.5,-420 530.5,-420 530.5,-398 447.5,-398"/>
<text text-anchor="start" x="450.5" y="-406.2" font-family="Helvetica,sans-Serif" font-size="11.00">numeric[10]</text>
<polygon fill="none" stroke="black" points="265.5,-376 265.5,-398 447.5,-398 447.5,-376 265.5,-376"/>
<text text-anchor="start" x="285.5" y="-384.2" font-family="Helvetica,sans-Serif" font-size="11.00">ad_org_id</text>
<polygon fill="none" stroke="black" points="447.5,-376 447.5,-398 530.5,-398 530.5,-376 447.5,-376"/>
<text text-anchor="start" x="450.5" y="-384.2" font-family="Helvetica,sans-Serif" font-size="11.00">numeric[10]</text>
<polygon fill="none" stroke="black" points="265.5,-354 265.5,-376 447.5,-376 447.5,-354 265.5,-354"/>
<text text-anchor="start" x="285.5" y="-362.2" font-family="Helvetica,sans-Serif" font-size="11.00">isactive</text>
<polygon fill="none" stroke="black" points="447.5,-354 447.5,-376 530.5,-376 530.5,-354 447.5,-354"/>
<text text-anchor="start" x="450.5" y="-362.2" font-family="Helvetica,sans-Serif" font-size="11.00">bpchar[1]</text>
<polygon fill="none" stroke="black" points="265.5,-332 265.5,-354 447.5,-354 447.5,-332 265.5,-332"/>
<text text-anchor="start" x="285.5" y="-340.2" font-family="Helvetica,sans-Serif" font-size="11.00">created</text>
<polygon fill="none" stroke="black" points="447.5,-332 447.5,-354 530.5,-354 530.5,-332 447.5,-332"/>
<text text-anchor="start" x="450.5" y="-340.2" font-family="Helvetica,sans-Serif" font-size="11.00">timestamp[29,6]</text>
<polygon fill="none" stroke="black" points="265.5,-310 265.5,-332 447.5,-332 447.5,-310 265.5,-310"/>
<text text-anchor="start" x="285.5" y="-318.2" font-family="Helvetica,sans-Serif" font-size="11.00">createdby</text>
<polygon fill="none" stroke="black" points="447.5,-310 447.5,-332 530.5,-332 530.5,-310 447.5,-310"/>
<text text-anchor="start" x="450.5" y="-318.2" font-family="Helvetica,sans-Serif" font-size="11.00">numeric[10]</text>
<polygon fill="none" stroke="black" points="265.5,-288 265.5,-310 447.5,-310 447.5,-288 265.5,-288"/>
<text text-anchor="start" x="285.5" y="-296.2" font-family="Helvetica,sans-Serif" font-size="11.00">updated</text>
<polygon fill="none" stroke="black" points="447.5,-288 447.5,-310 530.5,-310 530.5,-288 447.5,-288"/>
<text text-anchor="start" x="450.5" y="-296.2" font-family="Helvetica,sans-Serif" font-size="11.00">timestamp[29,6]</text>
<polygon fill="none" stroke="black" points="265.5,-266 265.5,-288 447.5,-288 447.5,-266 265.5,-266"/>
<text text-anchor="start" x="285.5" y="-274.2" font-family="Helvetica,sans-Serif" font-size="11.00">updatedby</text>
<polygon fill="none" stroke="black" points="447.5,-266 447.5,-288 530.5,-288 530.5,-266 447.5,-266"/>
<text text-anchor="start" x="450.5" y="-274.2" font-family="Helvetica,sans-Serif" font-size="11.00">numeric[10]</text>
<polygon fill="none" stroke="black" points="265.5,-244 265.5,-266 447.5,-266 447.5,-244 265.5,-244"/>
<image xlink:href="../../images/foreignKeys.png" width="11px" height="12px" preserveAspectRatio="xMinYMin meet" x="270.5" y="-261"/>
<text text-anchor="start" x="285.5" y="-252.2" font-family="Helvetica,sans-Serif" font-size="11.00">ad_replication_run_id</text>
<polygon fill="none" stroke="black" points="447.5,-244 447.5,-266 530.5,-266 530.5,-244 447.5,-244"/>
<text text-anchor="start" x="450.5" y="-252.2" font-family="Helvetica,sans-Serif" font-size="11.00">numeric[10]</text>
<polygon fill="none" stroke="black" points="265.5,-222 265.5,-244 447.5,-244 447.5,-222 265.5,-222"/>
<image xlink:href="../../images/foreignKeys.png" width="11px" height="12px" preserveAspectRatio="xMinYMin meet" x="270.5" y="-239"/>
<text text-anchor="start" x="285.5" y="-230.2" font-family="Helvetica,sans-Serif" font-size="11.00">ad_replicationtable_id</text>
<polygon fill="none" stroke="black" points="447.5,-222 447.5,-244 530.5,-244 530.5,-222 447.5,-222"/>
<text text-anchor="start" x="450.5" y="-230.2" font-family="Helvetica,sans-Serif" font-size="11.00">numeric[10]</text>
<polygon fill="none" stroke="black" points="265.5,-200 265.5,-222 447.5,-222 447.5,-200 265.5,-200"/>
<text text-anchor="start" x="285.5" y="-208.2" font-family="Helvetica,sans-Serif" font-size="11.00">p_msg</text>
<polygon fill="none" stroke="black" points="447.5,-200 447.5,-222 530.5,-222 530.5,-200 447.5,-200"/>
<text text-anchor="start" x="450.5" y="-208.2" font-family="Helvetica,sans-Serif" font-size="11.00">varchar[2000]</text>
<polygon fill="none" stroke="black" points="265.5,-178 265.5,-200 447.5,-200 447.5,-178 265.5,-178"/>
<text text-anchor="start" x="285.5" y="-186.2" font-family="Helvetica,sans-Serif" font-size="11.00">isreplicated</text>
<polygon fill="none" stroke="black" points="447.5,-178 447.5,-200 530.5,-200 530.5,-178 447.5,-178"/>
<text text-anchor="start" x="450.5" y="-186.2" font-family="Helvetica,sans-Serif" font-size="11.00">bpchar[1]</text>
<polygon fill="#ffffff" stroke="transparent" points="265.5,-156 265.5,-178 447.5,-178 447.5,-156 265.5,-156"/>
<polygon fill="none" stroke="black" points="265.5,-156 265.5,-178 447.5,-178 447.5,-156 265.5,-156"/>
<text text-anchor="start" x="285.5" y="-164.2" font-family="Helvetica,sans-Serif" font-size="11.00">ad_replication_log_uu</text>
<polygon fill="none" stroke="black" points="447.5,-156 447.5,-178 530.5,-178 530.5,-156 447.5,-156"/>
<text text-anchor="start" x="450.5" y="-164.2" font-family="Helvetica,sans-Serif" font-size="11.00">varchar[36]</text>
<polygon fill="#ffffff" stroke="transparent" points="265.5,-138 265.5,-156 530.5,-156 530.5,-138 265.5,-138"/>
<polygon fill="none" stroke="black" points="265.5,-138 265.5,-156 530.5,-156 530.5,-138 265.5,-138"/>
<polygon fill="#ffffff" stroke="transparent" points="266.5,-139 266.5,-155 357.5,-155 357.5,-139 266.5,-139"/>
<text text-anchor="start" x="268.5" y="-144.2" font-family="Helvetica,sans-Serif" font-size="11.00">&lt; 2</text>
<polygon fill="#ffffff" stroke="transparent" points="357.5,-139 357.5,-155 439.5,-155 439.5,-139 357.5,-139"/>
<text text-anchor="start" x="395" y="-144.2" font-family="Helvetica,sans-Serif" font-size="11.00"> &#160;</text>
<polygon fill="#ffffff" stroke="transparent" points="439.5,-139 439.5,-155 529.5,-155 529.5,-139 439.5,-139"/>
<text text-anchor="start" x="511.5" y="-144.2" font-family="Helvetica,sans-Serif" font-size="11.00">0 &gt;</text>
<polygon fill="black" stroke="black" points="357.5,-139 357.5,-155 357.5,-155 357.5,-139 357.5,-139"/>
<polygon fill="black" stroke="black" points="439.5,-139 439.5,-155 439.5,-155 439.5,-139 439.5,-139"/>
<polygon fill="none" stroke="black" stroke-width="2" points="264,-137 264,-465 531,-465 531,-137 264,-137"/>
</a>
</g>
</g>
<!-- ad_replication_run -->
<g id="node2" class="node">
<title>ad_replication_run</title>
<g id="a_node2"><a xlink:href="../../tables/ad_replication_run.html" xlink:title="ad_replication_run" target="_top">
<polygon fill="#ffffff" stroke="transparent" points="21,-226 21,-350 201,-350 201,-226 21,-226"/>
<polygon fill="#f5f5f5" stroke="transparent" points="21,-328 21,-350 201,-350 201,-328 21,-328"/>
<polygon fill="none" stroke="black" points="21,-328 21,-350 201,-350 201,-328 21,-328"/>
<text text-anchor="start" x="26" y="-337.2" font-family="Helvetica,sans-Serif" font-weight="bold" font-size="11.00">ad_replication_run</text>
<text text-anchor="start" x="166" y="-336.2" font-family="Helvetica,sans-Serif" font-size="11.00">[table]</text>
<polygon fill="none" stroke="black" points="21,-306 21,-328 201,-328 201,-306 21,-306"/>
<image xlink:href="../../images/primaryKeys.png" width="11px" height="12px" preserveAspectRatio="xMinYMin meet" x="26" y="-323"/>
<text text-anchor="start" x="41" y="-314.2" font-family="Helvetica,sans-Serif" font-size="11.00">ad_replication_run_id</text>
<polygon fill="none" stroke="black" points="21,-284 21,-306 201,-306 201,-284 21,-284"/>
<image xlink:href="../../images/foreignKeys.png" width="11px" height="12px" preserveAspectRatio="xMinYMin meet" x="26" y="-301"/>
<text text-anchor="start" x="41" y="-292.2" font-family="Helvetica,sans-Serif" font-size="11.00">ad_replication_id</text>
<polygon fill="#ffffff" stroke="transparent" points="21,-262 21,-284 201,-284 201,-262 21,-262"/>
<polygon fill="none" stroke="black" points="21,-262 21,-284 201,-284 201,-262 21,-262"/>
<text text-anchor="start" x="41" y="-270.2" font-family="Helvetica,sans-Serif" font-size="11.00">ad_replication_run_uu</text>
<polygon fill="none" stroke="black" points="21,-244 21,-262 201,-262 201,-244 21,-244"/>
<text text-anchor="start" x="24" y="-250.2" font-family="Helvetica,sans-Serif" font-size="11.00">...</text>
<polygon fill="#ffffff" stroke="transparent" points="21,-226 21,-244 201,-244 201,-226 21,-226"/>
<polygon fill="none" stroke="black" points="21,-226 21,-244 201,-244 201,-226 21,-226"/>
<polygon fill="#ffffff" stroke="transparent" points="22,-227 22,-243 85,-243 85,-227 22,-227"/>
<text text-anchor="start" x="24" y="-232.2" font-family="Helvetica,sans-Serif" font-size="11.00">&lt; 1</text>
<polygon fill="#ffffff" stroke="transparent" points="85,-227 85,-243 138,-243 138,-227 85,-227"/>
<text text-anchor="start" x="108" y="-232.2" font-family="Helvetica,sans-Serif" font-size="11.00"> &#160;</text>
<polygon fill="#ffffff" stroke="transparent" points="138,-227 138,-243 200,-243 200,-227 138,-227"/>
<text text-anchor="start" x="182" y="-232.2" font-family="Helvetica,sans-Serif" font-size="11.00">1 &gt;</text>
<polygon fill="black" stroke="black" points="85,-227 85,-243 85,-243 85,-227 85,-227"/>
<polygon fill="black" stroke="black" points="138,-227 138,-243 138,-243 138,-227 138,-227"/>
</a>
</g>
</g>
<!-- ad_replication_log&#45;&gt;ad_replication_run -->
<g id="edge1" class="edge">
<title>ad_replication_log:w&#45;&gt;ad_replication_run:e</title>
<path fill="none" stroke="black" d="M250.34,-258.69C228.84,-272.04 235.32,-317 202,-317"/>
<polygon fill="black" stroke="black" points="256.76,-257.02 265.41,-258.48 260.63,-256.01 264.5,-255 264.5,-255 264.5,-255 260.63,-256.01 263.59,-251.52 256.76,-257.02 256.76,-257.02"/>
<ellipse fill="none" stroke="black" cx="253.66" cy="-257.83" rx="3.2" ry="3.2"/>
</g>
<!-- ad_replicationtable -->
<g id="node3" class="node">
<title>ad_replicationtable</title>
<g id="a_node3"><a xlink:href="../../tables/ad_replicationtable.html" xlink:title="ad_replicationtable" target="_top">
<polygon fill="#ffffff" stroke="transparent" points="8,-37 8,-205 214,-205 214,-37 8,-37"/>
<polygon fill="#f5f5f5" stroke="transparent" points="8,-183 8,-205 214,-205 214,-183 8,-183"/>
<polygon fill="none" stroke="black" points="8,-183 8,-205 214,-205 214,-183 8,-183"/>
<text text-anchor="start" x="13" y="-192.2" font-family="Helvetica,sans-Serif" font-weight="bold" font-size="11.00">ad_replicationtable</text>
<text text-anchor="start" x="179" y="-191.2" font-family="Helvetica,sans-Serif" font-size="11.00">[table]</text>
<polygon fill="none" stroke="black" points="8,-161 8,-183 214,-183 214,-161 8,-161"/>
<image xlink:href="../../images/primaryKeys.png" width="11px" height="12px" preserveAspectRatio="xMinYMin meet" x="13" y="-178"/>
<text text-anchor="start" x="28" y="-169.2" font-family="Helvetica,sans-Serif" font-size="11.00">ad_replicationtable_id</text>
<polygon fill="none" stroke="black" points="8,-139 8,-161 214,-161 214,-139 8,-139"/>
<image xlink:href="../../images/foreignKeys.png" width="11px" height="12px" preserveAspectRatio="xMinYMin meet" x="13" y="-156"/>
<text text-anchor="start" x="28" y="-147.2" font-family="Helvetica,sans-Serif" font-size="11.00">ad_replicationstrategy_id</text>
<polygon fill="none" stroke="black" points="8,-117 8,-139 214,-139 214,-117 8,-117"/>
<image xlink:href="../../images/foreignKeys.png" width="11px" height="12px" preserveAspectRatio="xMinYMin meet" x="13" y="-134"/>
<text text-anchor="start" x="28" y="-125.2" font-family="Helvetica,sans-Serif" font-size="11.00">ad_table_id</text>
<polygon fill="none" stroke="black" points="8,-95 8,-117 214,-117 214,-95 8,-95"/>
<image xlink:href="../../images/foreignKeys.png" width="11px" height="12px" preserveAspectRatio="xMinYMin meet" x="13" y="-112"/>
<text text-anchor="start" x="28" y="-103.2" font-family="Helvetica,sans-Serif" font-size="11.00">entitytype</text>
<polygon fill="#ffffff" stroke="transparent" points="8,-73 8,-95 214,-95 214,-73 8,-73"/>
<polygon fill="none" stroke="black" points="8,-73 8,-95 214,-95 214,-73 8,-73"/>
<text text-anchor="start" x="28" y="-81.2" font-family="Helvetica,sans-Serif" font-size="11.00">ad_replicationtable_uu</text>
<polygon fill="none" stroke="black" points="8,-55 8,-73 214,-73 214,-55 8,-55"/>
<text text-anchor="start" x="11" y="-61.2" font-family="Helvetica,sans-Serif" font-size="11.00">...</text>
<polygon fill="#ffffff" stroke="transparent" points="8,-37 8,-55 214,-55 214,-37 8,-37"/>
<polygon fill="none" stroke="black" points="8,-37 8,-55 214,-55 214,-37 8,-37"/>
<polygon fill="#ffffff" stroke="transparent" points="9,-38 9,-54 68,-54 68,-38 9,-38"/>
<text text-anchor="start" x="11" y="-43.2" font-family="Helvetica,sans-Serif" font-size="11.00">&lt; 3</text>
<polygon fill="#ffffff" stroke="transparent" points="68,-38 68,-54 155,-54 155,-38 68,-38"/>
<text text-anchor="start" x="89" y="-43.2" font-family="Helvetica,sans-Serif" font-size="11.00">472 rows</text>
<polygon fill="#ffffff" stroke="transparent" points="155,-38 155,-54 213,-54 213,-38 155,-38"/>
<text text-anchor="start" x="195" y="-43.2" font-family="Helvetica,sans-Serif" font-size="11.00">1 &gt;</text>
<polygon fill="black" stroke="black" points="68,-38 68,-54 68,-54 68,-38 68,-38"/>
<polygon fill="black" stroke="black" points="155,-38 155,-54 155,-54 155,-38 155,-38"/>
</a>
</g>
</g>
<!-- ad_replication_log&#45;&gt;ad_replicationtable -->
<g id="edge2" class="edge">
<title>ad_replication_log:w&#45;&gt;ad_replicationtable:e</title>
<path fill="none" stroke="black" d="M250.83,-228.21C234.94,-213.83 243.91,-172 215,-172"/>
<polygon fill="black" stroke="black" points="256.95,-230.36 263.31,-236.4 260.72,-231.68 264.5,-233 264.5,-233 264.5,-233 260.72,-231.68 265.69,-229.6 256.95,-230.36 256.95,-230.36"/>
<ellipse fill="none" stroke="black" cx="253.93" cy="-229.3" rx="3.2" ry="3.2"/>
</g>
</g>
</svg>
