<?xml version="1.0" encoding="UTF-8" standalone="no"?>
<!DOCTYPE svg PUBLIC "-//W3C//DTD SVG 1.1//EN"
 "http://www.w3.org/Graphics/SVG/1.1/DTD/svg11.dtd">
<!-- Generated by graphviz version 2.43.0 (0)
 -->
<!-- Title: oneDegreeRelationshipsDiagram Pages: 1 -->
<svg width="624pt" height="445pt"
 viewBox="0.00 0.00 624.00 445.00" xmlns="http://www.w3.org/2000/svg" xmlns:xlink="http://www.w3.org/1999/xlink">
<g id="graph0" class="graph" transform="scale(1 1) rotate(0) translate(4 441)">
<title>oneDegreeRelationshipsDiagram</title>
<polygon fill="#ffffff" stroke="transparent" points="-4,4 -4,-441 620,-441 620,4 -4,4"/>
<text text-anchor="middle" x="71.5" y="-7.2" font-family="Helvetica,sans-Serif" font-size="11.00">Generated by SchemaSpy</text>
<!-- ad_style -->
<g id="node1" class="node">
<title>ad_style</title>
<g id="a_node1"><a xlink:href="../../tables/ad_style.html" xlink:title="ad_style" target="_top">
<polygon fill="#ffffff" stroke="transparent" points="203,-226 203,-350 339,-350 339,-226 203,-226"/>
<polygon fill="#f5f5f5" stroke="transparent" points="203,-328 203,-350 339,-350 339,-328 203,-328"/>
<polygon fill="none" stroke="black" points="203,-328 203,-350 339,-350 339,-328 203,-328"/>
<text text-anchor="start" x="208" y="-337.2" font-family="Helvetica,sans-Serif" font-weight="bold" font-size="11.00">ad_style</text>
<text text-anchor="start" x="304" y="-336.2" font-family="Helvetica,sans-Serif" font-size="11.00">[table]</text>
<polygon fill="none" stroke="black" points="203,-306 203,-328 339,-328 339,-306 203,-306"/>
<image xlink:href="../../images/primaryKeys.png" width="11px" height="12px" preserveAspectRatio="xMinYMin meet" x="208" y="-323"/>
<text text-anchor="start" x="223" y="-314.2" font-family="Helvetica,sans-Serif" font-size="11.00">ad_style_id</text>
<polygon fill="#ffffff" stroke="transparent" points="203,-284 203,-306 339,-306 339,-284 203,-284"/>
<polygon fill="none" stroke="black" points="203,-284 203,-306 339,-306 339,-284 203,-284"/>
<text text-anchor="start" x="223" y="-292.2" font-family="Helvetica,sans-Serif" font-size="11.00">ad_style_uu</text>
<polygon fill="none" stroke="black" points="203,-262 203,-284 339,-284 339,-262 203,-262"/>
<image xlink:href="../../images/foreignKeys.png" width="11px" height="12px" preserveAspectRatio="xMinYMin meet" x="208" y="-279"/>
<text text-anchor="start" x="223" y="-270.2" font-family="Helvetica,sans-Serif" font-size="11.00">entitytype</text>
<polygon fill="none" stroke="black" points="203,-244 203,-262 339,-262 339,-244 203,-244"/>
<text text-anchor="start" x="206" y="-250.2" font-family="Helvetica,sans-Serif" font-size="11.00">...</text>
<polygon fill="#ffffff" stroke="transparent" points="203,-226 203,-244 339,-244 339,-226 203,-226"/>
<polygon fill="none" stroke="black" points="203,-226 203,-244 339,-244 339,-226 203,-226"/>
<polygon fill="#ffffff" stroke="transparent" points="204,-227 204,-243 239,-243 239,-227 204,-227"/>
<text text-anchor="start" x="206" y="-232.2" font-family="Helvetica,sans-Serif" font-size="11.00">&lt; 1</text>
<polygon fill="#ffffff" stroke="transparent" points="239,-227 239,-243 297,-243 297,-227 239,-227"/>
<text text-anchor="start" x="248.5" y="-232.2" font-family="Helvetica,sans-Serif" font-size="11.00">11 rows</text>
<polygon fill="#ffffff" stroke="transparent" points="297,-227 297,-243 338,-243 338,-227 297,-227"/>
<text text-anchor="start" x="314" y="-232.2" font-family="Helvetica,sans-Serif" font-size="11.00">12 &gt;</text>
<polygon fill="black" stroke="black" points="239,-227 239,-243 239,-243 239,-227 239,-227"/>
<polygon fill="black" stroke="black" points="297,-227 297,-243 297,-243 297,-227 297,-227"/>
</a>
</g>
</g>
<!-- ad_entitytype -->
<g id="node2" class="node">
<title>ad_entitytype</title>
<g id="a_node2"><a xlink:href="../../tables/ad_entitytype.html" xlink:title="ad_entitytype" target="_top">
<polygon fill="#ffffff" stroke="transparent" points="8,-109 8,-233 154,-233 154,-109 8,-109"/>
<polygon fill="#f5f5f5" stroke="transparent" points="8,-211 8,-233 154,-233 154,-211 8,-211"/>
<polygon fill="none" stroke="black" points="8,-211 8,-233 154,-233 154,-211 8,-211"/>
<text text-anchor="start" x="13" y="-220.2" font-family="Helvetica,sans-Serif" font-weight="bold" font-size="11.00">ad_entitytype</text>
<text text-anchor="start" x="119" y="-219.2" font-family="Helvetica,sans-Serif" font-size="11.00">[table]</text>
<polygon fill="none" stroke="black" points="8,-189 8,-211 154,-211 154,-189 8,-189"/>
<image xlink:href="../../images/primaryKeys.png" width="11px" height="12px" preserveAspectRatio="xMinYMin meet" x="13" y="-206"/>
<text text-anchor="start" x="28" y="-197.2" font-family="Helvetica,sans-Serif" font-size="11.00">entitytype</text>
<polygon fill="#ffffff" stroke="transparent" points="8,-167 8,-189 154,-189 154,-167 8,-167"/>
<polygon fill="none" stroke="black" points="8,-167 8,-189 154,-189 154,-167 8,-167"/>
<text text-anchor="start" x="28" y="-175.2" font-family="Helvetica,sans-Serif" font-size="11.00">ad_entitytype_id</text>
<polygon fill="#ffffff" stroke="transparent" points="8,-145 8,-167 154,-167 154,-145 8,-145"/>
<polygon fill="none" stroke="black" points="8,-145 8,-167 154,-167 154,-145 8,-145"/>
<text text-anchor="start" x="28" y="-153.2" font-family="Helvetica,sans-Serif" font-size="11.00">ad_entitytype_uu</text>
<polygon fill="none" stroke="black" points="8,-127 8,-145 154,-145 154,-127 8,-127"/>
<text text-anchor="start" x="11" y="-133.2" font-family="Helvetica,sans-Serif" font-size="11.00">...</text>
<polygon fill="#ffffff" stroke="transparent" points="8,-109 8,-127 154,-127 154,-109 8,-109"/>
<polygon fill="none" stroke="black" points="8,-109 8,-127 154,-127 154,-109 8,-109"/>
<polygon fill="#ffffff" stroke="transparent" points="9,-110 9,-126 42,-126 42,-110 9,-110"/>
<text text-anchor="start" x="11" y="-115.2" font-family="Helvetica,sans-Serif" font-size="11.00"> &#160;</text>
<polygon fill="#ffffff" stroke="transparent" points="42,-110 42,-126 106,-126 106,-110 42,-110"/>
<text text-anchor="start" x="54.5" y="-115.2" font-family="Helvetica,sans-Serif" font-size="11.00">35 rows</text>
<polygon fill="#ffffff" stroke="transparent" points="106,-110 106,-126 153,-126 153,-110 106,-110"/>
<text text-anchor="start" x="129" y="-115.2" font-family="Helvetica,sans-Serif" font-size="11.00">60 &gt;</text>
<polygon fill="black" stroke="black" points="42,-110 42,-126 42,-126 42,-110 42,-110"/>
<polygon fill="black" stroke="black" points="106,-110 106,-126 106,-126 106,-110 106,-110"/>
</a>
</g>
</g>
<!-- ad_style&#45;&gt;ad_entitytype -->
<g id="edge1" class="edge">
<title>ad_style:w&#45;&gt;ad_entitytype:e</title>
<path fill="none" stroke="black" d="M187.95,-267.75C171.46,-251.01 187.26,-200 155,-200"/>
<polygon fill="black" stroke="black" points="194.51,-270.2 200.74,-276.37 198.25,-271.6 202,-273 202,-273 202,-273 198.25,-271.6 203.26,-269.63 194.51,-270.2 194.51,-270.2"/>
<ellipse fill="none" stroke="black" cx="191.51" cy="-269.08" rx="3.2" ry="3.2"/>
</g>
<!-- ad_styleline -->
<g id="node3" class="node">
<title>ad_styleline</title>
<g id="a_node3"><a xlink:href="../../tables/ad_styleline.html" xlink:title="ad_styleline" target="_top">
<polygon fill="#ffffff" stroke="transparent" points="388,-37 388,-433 608,-433 608,-37 388,-37"/>
<polygon fill="#f5f5f5" stroke="transparent" points="390,-409 390,-431 606,-431 606,-409 390,-409"/>
<polygon fill="none" stroke="black" points="390,-409 390,-431 606,-431 606,-409 390,-409"/>
<text text-anchor="start" x="395" y="-418.2" font-family="Helvetica,sans-Serif" font-weight="bold" font-size="11.00">ad_styleline</text>
<text text-anchor="start" x="571" y="-417.2" font-family="Helvetica,sans-Serif" font-size="11.00">[table]</text>
<polygon fill="none" stroke="black" points="390,-387 390,-409 523,-409 523,-387 390,-387"/>
<text text-anchor="start" x="410" y="-395.2" font-family="Helvetica,sans-Serif" font-size="11.00">ad_client_id</text>
<polygon fill="none" stroke="black" points="523,-387 523,-409 606,-409 606,-387 523,-387"/>
<text text-anchor="start" x="526" y="-395.2" font-family="Helvetica,sans-Serif" font-size="11.00">numeric[10]</text>
<polygon fill="none" stroke="black" points="390,-365 390,-387 523,-387 523,-365 390,-365"/>
<text text-anchor="start" x="410" y="-373.2" font-family="Helvetica,sans-Serif" font-size="11.00">ad_org_id</text>
<polygon fill="none" stroke="black" points="523,-365 523,-387 606,-387 606,-365 523,-365"/>
<text text-anchor="start" x="526" y="-373.2" font-family="Helvetica,sans-Serif" font-size="11.00">numeric[10]</text>
<polygon fill="none" stroke="black" points="390,-343 390,-365 523,-365 523,-343 390,-343"/>
<image xlink:href="../../images/foreignKeys.png" width="11px" height="12px" preserveAspectRatio="xMinYMin meet" x="395" y="-360"/>
<text text-anchor="start" x="410" y="-351.2" font-family="Helvetica,sans-Serif" font-size="11.00">ad_style_id</text>
<polygon fill="none" stroke="black" points="523,-343 523,-365 606,-365 606,-343 523,-343"/>
<text text-anchor="start" x="526" y="-351.2" font-family="Helvetica,sans-Serif" font-size="11.00">numeric[10]</text>
<polygon fill="none" stroke="black" points="390,-321 390,-343 523,-343 523,-321 390,-321"/>
<image xlink:href="../../images/primaryKeys.png" width="11px" height="12px" preserveAspectRatio="xMinYMin meet" x="395" y="-338"/>
<text text-anchor="start" x="410" y="-329.2" font-family="Helvetica,sans-Serif" font-size="11.00">ad_styleline_id</text>
<polygon fill="none" stroke="black" points="523,-321 523,-343 606,-343 606,-321 523,-321"/>
<text text-anchor="start" x="526" y="-329.2" font-family="Helvetica,sans-Serif" font-size="11.00">numeric[10]</text>
<polygon fill="#ffffff" stroke="transparent" points="390,-299 390,-321 523,-321 523,-299 390,-299"/>
<polygon fill="none" stroke="black" points="390,-299 390,-321 523,-321 523,-299 390,-299"/>
<text text-anchor="start" x="410" y="-307.2" font-family="Helvetica,sans-Serif" font-size="11.00">ad_styleline_uu</text>
<polygon fill="none" stroke="black" points="523,-299 523,-321 606,-321 606,-299 523,-299"/>
<text text-anchor="start" x="526" y="-307.2" font-family="Helvetica,sans-Serif" font-size="11.00">varchar[36]</text>
<polygon fill="none" stroke="black" points="390,-277 390,-299 523,-299 523,-277 390,-277"/>
<text text-anchor="start" x="410" y="-285.2" font-family="Helvetica,sans-Serif" font-size="11.00">created</text>
<polygon fill="none" stroke="black" points="523,-277 523,-299 606,-299 606,-277 523,-277"/>
<text text-anchor="start" x="526" y="-285.2" font-family="Helvetica,sans-Serif" font-size="11.00">timestamp[29,6]</text>
<polygon fill="none" stroke="black" points="390,-255 390,-277 523,-277 523,-255 390,-255"/>
<text text-anchor="start" x="410" y="-263.2" font-family="Helvetica,sans-Serif" font-size="11.00">createdby</text>
<polygon fill="none" stroke="black" points="523,-255 523,-277 606,-277 606,-255 523,-255"/>
<text text-anchor="start" x="526" y="-263.2" font-family="Helvetica,sans-Serif" font-size="11.00">numeric[10]</text>
<polygon fill="none" stroke="black" points="390,-233 390,-255 523,-255 523,-233 390,-233"/>
<text text-anchor="start" x="410" y="-241.2" font-family="Helvetica,sans-Serif" font-size="11.00">displaylogic</text>
<polygon fill="none" stroke="black" points="523,-233 523,-255 606,-255 606,-233 523,-233"/>
<text text-anchor="start" x="526" y="-241.2" font-family="Helvetica,sans-Serif" font-size="11.00">varchar[2000]</text>
<polygon fill="none" stroke="black" points="390,-211 390,-233 523,-233 523,-211 390,-211"/>
<text text-anchor="start" x="410" y="-219.2" font-family="Helvetica,sans-Serif" font-size="11.00">inlinestyle</text>
<polygon fill="none" stroke="black" points="523,-211 523,-233 606,-233 606,-211 523,-211"/>
<text text-anchor="start" x="526" y="-219.2" font-family="Helvetica,sans-Serif" font-size="11.00">varchar[2000]</text>
<polygon fill="none" stroke="black" points="390,-189 390,-211 523,-211 523,-189 390,-189"/>
<text text-anchor="start" x="410" y="-197.2" font-family="Helvetica,sans-Serif" font-size="11.00">isactive</text>
<polygon fill="none" stroke="black" points="523,-189 523,-211 606,-211 606,-189 523,-189"/>
<text text-anchor="start" x="526" y="-197.2" font-family="Helvetica,sans-Serif" font-size="11.00">bpchar[1]</text>
<polygon fill="none" stroke="black" points="390,-167 390,-189 523,-189 523,-167 390,-167"/>
<text text-anchor="start" x="410" y="-175.2" font-family="Helvetica,sans-Serif" font-size="11.00">line</text>
<polygon fill="none" stroke="black" points="523,-167 523,-189 606,-189 606,-167 523,-167"/>
<text text-anchor="start" x="526" y="-175.2" font-family="Helvetica,sans-Serif" font-size="11.00">numeric[10]</text>
<polygon fill="none" stroke="black" points="390,-145 390,-167 523,-167 523,-145 390,-145"/>
<text text-anchor="start" x="410" y="-153.2" font-family="Helvetica,sans-Serif" font-size="11.00">theme</text>
<polygon fill="none" stroke="black" points="523,-145 523,-167 606,-167 606,-145 523,-145"/>
<text text-anchor="start" x="526" y="-153.2" font-family="Helvetica,sans-Serif" font-size="11.00">varchar[60]</text>
<polygon fill="none" stroke="black" points="390,-123 390,-145 523,-145 523,-123 390,-123"/>
<text text-anchor="start" x="410" y="-131.2" font-family="Helvetica,sans-Serif" font-size="11.00">updated</text>
<polygon fill="none" stroke="black" points="523,-123 523,-145 606,-145 606,-123 523,-123"/>
<text text-anchor="start" x="526" y="-131.2" font-family="Helvetica,sans-Serif" font-size="11.00">timestamp[29,6]</text>
<polygon fill="none" stroke="black" points="390,-101 390,-123 523,-123 523,-101 390,-101"/>
<text text-anchor="start" x="410" y="-109.2" font-family="Helvetica,sans-Serif" font-size="11.00">updatedby</text>
<polygon fill="none" stroke="black" points="523,-101 523,-123 606,-123 606,-101 523,-101"/>
<text text-anchor="start" x="526" y="-109.2" font-family="Helvetica,sans-Serif" font-size="11.00">numeric[10]</text>
<polygon fill="none" stroke="black" points="390,-79 390,-101 523,-101 523,-79 390,-79"/>
<image xlink:href="../../images/foreignKeys.png" width="11px" height="12px" preserveAspectRatio="xMinYMin meet" x="395" y="-96"/>
<text text-anchor="start" x="410" y="-87.2" font-family="Helvetica,sans-Serif" font-size="11.00">entitytype</text>
<polygon fill="none" stroke="black" points="523,-79 523,-101 606,-101 606,-79 523,-79"/>
<text text-anchor="start" x="526" y="-87.2" font-family="Helvetica,sans-Serif" font-size="11.00">varchar[40]</text>
<polygon fill="none" stroke="black" points="390,-57 390,-79 523,-79 523,-57 390,-57"/>
<text text-anchor="start" x="410" y="-65.2" font-family="Helvetica,sans-Serif" font-size="11.00">description</text>
<polygon fill="none" stroke="black" points="523,-57 523,-79 606,-79 606,-57 523,-57"/>
<text text-anchor="start" x="526" y="-65.2" font-family="Helvetica,sans-Serif" font-size="11.00">varchar[255]</text>
<polygon fill="#ffffff" stroke="transparent" points="390,-39 390,-57 606,-57 606,-39 390,-39"/>
<polygon fill="none" stroke="black" points="390,-39 390,-57 606,-57 606,-39 390,-39"/>
<polygon fill="#ffffff" stroke="transparent" points="391,-40 391,-56 455,-56 455,-40 391,-40"/>
<text text-anchor="start" x="393" y="-45.2" font-family="Helvetica,sans-Serif" font-size="11.00">&lt; 2</text>
<polygon fill="#ffffff" stroke="transparent" points="455,-40 455,-56 542,-56 542,-40 455,-40"/>
<text text-anchor="start" x="479" y="-45.2" font-family="Helvetica,sans-Serif" font-size="11.00">56 rows</text>
<polygon fill="#ffffff" stroke="transparent" points="542,-40 542,-56 605,-56 605,-40 542,-40"/>
<text text-anchor="start" x="587" y="-45.2" font-family="Helvetica,sans-Serif" font-size="11.00">0 &gt;</text>
<polygon fill="black" stroke="black" points="455,-40 455,-56 455,-56 455,-40 455,-40"/>
<polygon fill="black" stroke="black" points="542,-40 542,-56 542,-56 542,-40 542,-40"/>
<polygon fill="none" stroke="black" stroke-width="2" points="389,-38 389,-432 607,-432 607,-38 389,-38"/>
</a>
</g>
</g>
<!-- ad_styleline&#45;&gt;ad_style -->
<g id="edge2" class="edge">
<title>ad_styleline:w&#45;&gt;ad_style:e</title>
<path fill="none" stroke="black" d="M375.12,-349.46C362.58,-339.58 361.32,-317 340,-317"/>
<polygon fill="black" stroke="black" points="381.4,-351.51 387.88,-357.42 385.2,-352.76 389,-354 389,-354 389,-354 385.2,-352.76 390.12,-350.58 381.4,-351.51 381.4,-351.51"/>
<ellipse fill="none" stroke="black" cx="378.35" cy="-350.52" rx="3.2" ry="3.2"/>
</g>
<!-- ad_styleline&#45;&gt;ad_entitytype -->
<g id="edge3" class="edge">
<title>ad_styleline:w&#45;&gt;ad_entitytype:e</title>
<path fill="none" stroke="black" d="M374.47,-90.62C273.5,-99.46 264.87,-200 155,-200"/>
<polygon fill="black" stroke="black" points="381.01,-90.34 389.15,-93.6 385,-90.17 389,-90 389,-90 389,-90 385,-90.17 388.85,-86.4 381.01,-90.34 381.01,-90.34"/>
<ellipse fill="none" stroke="black" cx="377.81" cy="-90.48" rx="3.2" ry="3.2"/>
</g>
</g>
</svg>
