<?xml version="1.0" encoding="UTF-8" standalone="no"?>
<!DOCTYPE svg PUBLIC "-//W3C//DTD SVG 1.1//EN"
 "http://www.w3.org/Graphics/SVG/1.1/DTD/svg11.dtd">
<!-- Generated by graphviz version 2.43.0 (0)
 -->
<!-- Title: oneDegreeRelationshipsDiagram Pages: 1 -->
<svg width="1143pt" height="943pt"
 viewBox="0.00 0.00 1143.00 943.00" xmlns="http://www.w3.org/2000/svg" xmlns:xlink="http://www.w3.org/1999/xlink">
<g id="graph0" class="graph" transform="scale(1 1) rotate(0) translate(4 939)">
<title>oneDegreeRelationshipsDiagram</title>
<polygon fill="#ffffff" stroke="transparent" points="-4,4 -4,-939 1139,-939 1139,4 -4,4"/>
<text text-anchor="middle" x="71.5" y="-7.2" font-family="Helvetica,sans-Serif" font-size="11.00">Generated by SchemaSpy</text>
<!-- ad_workflow -->
<g id="node1" class="node">
<title>ad_workflow</title>
<g id="a_node1"><a xlink:href="../../tables/ad_workflow.html" xlink:title="ad_workflow" target="_top">
<polygon fill="#ffffff" stroke="transparent" points="656,-437 656,-759 860,-759 860,-437 656,-437"/>
<polygon fill="#f5f5f5" stroke="transparent" points="656,-737 656,-759 860,-759 860,-737 656,-737"/>
<polygon fill="none" stroke="black" points="656,-737 656,-759 860,-759 860,-737 656,-737"/>
<text text-anchor="start" x="661" y="-746.2" font-family="Helvetica,sans-Serif" font-weight="bold" font-size="11.00">ad_workflow</text>
<text text-anchor="start" x="825" y="-745.2" font-family="Helvetica,sans-Serif" font-size="11.00">[table]</text>
<polygon fill="none" stroke="black" points="656,-715 656,-737 860,-737 860,-715 656,-715"/>
<image xlink:href="../../images/primaryKeys.png" width="11px" height="12px" preserveAspectRatio="xMinYMin meet" x="661" y="-732"/>
<text text-anchor="start" x="676" y="-723.2" font-family="Helvetica,sans-Serif" font-size="11.00">ad_workflow_id</text>
<polygon fill="#ffffff" stroke="transparent" points="656,-693 656,-715 860,-715 860,-693 656,-693"/>
<polygon fill="none" stroke="black" points="656,-693 656,-715 860,-715 860,-693 656,-693"/>
<image xlink:href="../../images/foreignKeys.png" width="11px" height="12px" preserveAspectRatio="xMinYMin meet" x="661" y="-710"/>
<text text-anchor="start" x="676" y="-701.2" font-family="Helvetica,sans-Serif" font-size="11.00">ad_client_id</text>
<polygon fill="none" stroke="black" points="656,-671 656,-693 860,-693 860,-671 656,-671"/>
<image xlink:href="../../images/foreignKeys.png" width="11px" height="12px" preserveAspectRatio="xMinYMin meet" x="661" y="-688"/>
<text text-anchor="start" x="676" y="-679.2" font-family="Helvetica,sans-Serif" font-size="11.00">ad_org_id</text>
<polygon fill="#ffffff" stroke="transparent" points="656,-649 656,-671 860,-671 860,-649 656,-649"/>
<polygon fill="none" stroke="black" points="656,-649 656,-671 860,-671 860,-649 656,-649"/>
<text text-anchor="start" x="676" y="-657.2" font-family="Helvetica,sans-Serif" font-size="11.00">name</text>
<polygon fill="none" stroke="black" points="656,-627 656,-649 860,-649 860,-627 656,-627"/>
<image xlink:href="../../images/foreignKeys.png" width="11px" height="12px" preserveAspectRatio="xMinYMin meet" x="661" y="-644"/>
<text text-anchor="start" x="676" y="-635.2" font-family="Helvetica,sans-Serif" font-size="11.00">ad_wf_node_id</text>
<polygon fill="none" stroke="black" points="656,-605 656,-627 860,-627 860,-605 656,-605"/>
<image xlink:href="../../images/foreignKeys.png" width="11px" height="12px" preserveAspectRatio="xMinYMin meet" x="661" y="-622"/>
<text text-anchor="start" x="676" y="-613.2" font-family="Helvetica,sans-Serif" font-size="11.00">entitytype</text>
<polygon fill="none" stroke="black" points="656,-583 656,-605 860,-605 860,-583 656,-583"/>
<image xlink:href="../../images/foreignKeys.png" width="11px" height="12px" preserveAspectRatio="xMinYMin meet" x="661" y="-600"/>
<text text-anchor="start" x="676" y="-591.2" font-family="Helvetica,sans-Serif" font-size="11.00">ad_wf_responsible_id</text>
<polygon fill="none" stroke="black" points="656,-561 656,-583 860,-583 860,-561 656,-561"/>
<image xlink:href="../../images/foreignKeys.png" width="11px" height="12px" preserveAspectRatio="xMinYMin meet" x="661" y="-578"/>
<text text-anchor="start" x="676" y="-569.2" font-family="Helvetica,sans-Serif" font-size="11.00">ad_workflowprocessor_id</text>
<polygon fill="none" stroke="black" points="656,-539 656,-561 860,-561 860,-539 656,-539"/>
<image xlink:href="../../images/foreignKeys.png" width="11px" height="12px" preserveAspectRatio="xMinYMin meet" x="661" y="-556"/>
<text text-anchor="start" x="676" y="-547.2" font-family="Helvetica,sans-Serif" font-size="11.00">ad_table_id</text>
<polygon fill="none" stroke="black" points="656,-517 656,-539 860,-539 860,-517 656,-517"/>
<image xlink:href="../../images/foreignKeys.png" width="11px" height="12px" preserveAspectRatio="xMinYMin meet" x="661" y="-534"/>
<text text-anchor="start" x="676" y="-525.2" font-family="Helvetica,sans-Serif" font-size="11.00">s_resource_id</text>
<polygon fill="#ffffff" stroke="transparent" points="656,-495 656,-517 860,-517 860,-495 656,-495"/>
<polygon fill="none" stroke="black" points="656,-495 656,-517 860,-517 860,-495 656,-495"/>
<text text-anchor="start" x="676" y="-503.2" font-family="Helvetica,sans-Serif" font-size="11.00">ad_workflow_uu</text>
<polygon fill="none" stroke="black" points="656,-473 656,-495 860,-495 860,-473 656,-473"/>
<image xlink:href="../../images/foreignKeys.png" width="11px" height="12px" preserveAspectRatio="xMinYMin meet" x="661" y="-490"/>
<text text-anchor="start" x="676" y="-481.2" font-family="Helvetica,sans-Serif" font-size="11.00">ad_ctxhelp_id</text>
<polygon fill="none" stroke="black" points="656,-455 656,-473 860,-473 860,-455 656,-455"/>
<text text-anchor="start" x="659" y="-461.2" font-family="Helvetica,sans-Serif" font-size="11.00">...</text>
<polygon fill="#ffffff" stroke="transparent" points="656,-437 656,-455 860,-455 860,-437 656,-437"/>
<polygon fill="none" stroke="black" points="656,-437 656,-455 860,-455 860,-437 656,-437"/>
<polygon fill="#ffffff" stroke="transparent" points="657,-438 657,-454 715,-454 715,-438 657,-438"/>
<text text-anchor="start" x="659" y="-443.2" font-family="Helvetica,sans-Serif" font-size="11.00">&lt; 9</text>
<polygon fill="#ffffff" stroke="transparent" points="715,-438 715,-454 796,-454 796,-438 715,-438"/>
<text text-anchor="start" x="736" y="-443.2" font-family="Helvetica,sans-Serif" font-size="11.00">59 rows</text>
<polygon fill="#ffffff" stroke="transparent" points="796,-438 796,-454 859,-454 859,-438 796,-438"/>
<text text-anchor="start" x="835" y="-443.2" font-family="Helvetica,sans-Serif" font-size="11.00">22 &gt;</text>
<polygon fill="black" stroke="black" points="715,-438 715,-454 715,-454 715,-438 715,-438"/>
<polygon fill="black" stroke="black" points="796,-438 796,-454 796,-454 796,-438 796,-438"/>
</a>
</g>
</g>
<!-- ad_workflowprocessor -->
<g id="node2" class="node">
<title>ad_workflowprocessor</title>
<g id="a_node2"><a xlink:href="../../tables/ad_workflowprocessor.html" xlink:title="ad_workflowprocessor" target="_top">
<polygon fill="#ffffff" stroke="transparent" points="297,-290 297,-818 593,-818 593,-290 297,-290"/>
<polygon fill="#f5f5f5" stroke="transparent" points="299,-794 299,-816 591,-816 591,-794 299,-794"/>
<polygon fill="none" stroke="black" points="299,-794 299,-816 591,-816 591,-794 299,-794"/>
<text text-anchor="start" x="304" y="-803.2" font-family="Helvetica,sans-Serif" font-weight="bold" font-size="11.00">ad_workflowprocessor</text>
<text text-anchor="start" x="556" y="-802.2" font-family="Helvetica,sans-Serif" font-size="11.00">[table]</text>
<polygon fill="none" stroke="black" points="299,-772 299,-794 508,-794 508,-772 299,-772"/>
<image xlink:href="../../images/primaryKeys.png" width="11px" height="12px" preserveAspectRatio="xMinYMin meet" x="304" y="-789"/>
<text text-anchor="start" x="319" y="-780.2" font-family="Helvetica,sans-Serif" font-size="11.00">ad_workflowprocessor_id</text>
<polygon fill="none" stroke="black" points="508,-772 508,-794 591,-794 591,-772 508,-772"/>
<text text-anchor="start" x="511" y="-780.2" font-family="Helvetica,sans-Serif" font-size="11.00">numeric[10]</text>
<polygon fill="none" stroke="black" points="299,-750 299,-772 508,-772 508,-750 299,-750"/>
<text text-anchor="start" x="319" y="-758.2" font-family="Helvetica,sans-Serif" font-size="11.00">ad_client_id</text>
<polygon fill="none" stroke="black" points="508,-750 508,-772 591,-772 591,-750 508,-750"/>
<text text-anchor="start" x="511" y="-758.2" font-family="Helvetica,sans-Serif" font-size="11.00">numeric[10]</text>
<polygon fill="none" stroke="black" points="299,-728 299,-750 508,-750 508,-728 299,-728"/>
<text text-anchor="start" x="319" y="-736.2" font-family="Helvetica,sans-Serif" font-size="11.00">ad_org_id</text>
<polygon fill="none" stroke="black" points="508,-728 508,-750 591,-750 591,-728 508,-728"/>
<text text-anchor="start" x="511" y="-736.2" font-family="Helvetica,sans-Serif" font-size="11.00">numeric[10]</text>
<polygon fill="none" stroke="black" points="299,-706 299,-728 508,-728 508,-706 299,-706"/>
<text text-anchor="start" x="319" y="-714.2" font-family="Helvetica,sans-Serif" font-size="11.00">isactive</text>
<polygon fill="none" stroke="black" points="508,-706 508,-728 591,-728 591,-706 508,-706"/>
<text text-anchor="start" x="511" y="-714.2" font-family="Helvetica,sans-Serif" font-size="11.00">bpchar[1]</text>
<polygon fill="none" stroke="black" points="299,-684 299,-706 508,-706 508,-684 299,-684"/>
<text text-anchor="start" x="319" y="-692.2" font-family="Helvetica,sans-Serif" font-size="11.00">created</text>
<polygon fill="none" stroke="black" points="508,-684 508,-706 591,-706 591,-684 508,-684"/>
<text text-anchor="start" x="511" y="-692.2" font-family="Helvetica,sans-Serif" font-size="11.00">timestamp[29,6]</text>
<polygon fill="none" stroke="black" points="299,-662 299,-684 508,-684 508,-662 299,-662"/>
<text text-anchor="start" x="319" y="-670.2" font-family="Helvetica,sans-Serif" font-size="11.00">createdby</text>
<polygon fill="none" stroke="black" points="508,-662 508,-684 591,-684 591,-662 508,-662"/>
<text text-anchor="start" x="511" y="-670.2" font-family="Helvetica,sans-Serif" font-size="11.00">numeric[10]</text>
<polygon fill="none" stroke="black" points="299,-640 299,-662 508,-662 508,-640 299,-640"/>
<text text-anchor="start" x="319" y="-648.2" font-family="Helvetica,sans-Serif" font-size="11.00">updated</text>
<polygon fill="none" stroke="black" points="508,-640 508,-662 591,-662 591,-640 508,-640"/>
<text text-anchor="start" x="511" y="-648.2" font-family="Helvetica,sans-Serif" font-size="11.00">timestamp[29,6]</text>
<polygon fill="none" stroke="black" points="299,-618 299,-640 508,-640 508,-618 299,-618"/>
<text text-anchor="start" x="319" y="-626.2" font-family="Helvetica,sans-Serif" font-size="11.00">updatedby</text>
<polygon fill="none" stroke="black" points="508,-618 508,-640 591,-640 591,-618 508,-618"/>
<text text-anchor="start" x="511" y="-626.2" font-family="Helvetica,sans-Serif" font-size="11.00">numeric[10]</text>
<polygon fill="none" stroke="black" points="299,-596 299,-618 508,-618 508,-596 299,-596"/>
<text text-anchor="start" x="319" y="-604.2" font-family="Helvetica,sans-Serif" font-size="11.00">name</text>
<polygon fill="none" stroke="black" points="508,-596 508,-618 591,-618 591,-596 508,-596"/>
<text text-anchor="start" x="511" y="-604.2" font-family="Helvetica,sans-Serif" font-size="11.00">varchar[60]</text>
<polygon fill="none" stroke="black" points="299,-574 299,-596 508,-596 508,-574 299,-574"/>
<text text-anchor="start" x="319" y="-582.2" font-family="Helvetica,sans-Serif" font-size="11.00">description</text>
<polygon fill="none" stroke="black" points="508,-574 508,-596 591,-596 591,-574 508,-574"/>
<text text-anchor="start" x="511" y="-582.2" font-family="Helvetica,sans-Serif" font-size="11.00">varchar[255]</text>
<polygon fill="none" stroke="black" points="299,-552 299,-574 508,-574 508,-552 299,-552"/>
<text text-anchor="start" x="319" y="-560.2" font-family="Helvetica,sans-Serif" font-size="11.00">frequencytype</text>
<polygon fill="none" stroke="black" points="508,-552 508,-574 591,-574 591,-552 508,-552"/>
<text text-anchor="start" x="511" y="-560.2" font-family="Helvetica,sans-Serif" font-size="11.00">bpchar[1]</text>
<polygon fill="none" stroke="black" points="299,-530 299,-552 508,-552 508,-530 299,-530"/>
<text text-anchor="start" x="319" y="-538.2" font-family="Helvetica,sans-Serif" font-size="11.00">frequency</text>
<polygon fill="none" stroke="black" points="508,-530 508,-552 591,-552 591,-530 508,-530"/>
<text text-anchor="start" x="511" y="-538.2" font-family="Helvetica,sans-Serif" font-size="11.00">numeric[10]</text>
<polygon fill="none" stroke="black" points="299,-508 299,-530 508,-530 508,-508 299,-508"/>
<text text-anchor="start" x="319" y="-516.2" font-family="Helvetica,sans-Serif" font-size="11.00">datelastrun</text>
<polygon fill="none" stroke="black" points="508,-508 508,-530 591,-530 591,-508 508,-508"/>
<text text-anchor="start" x="511" y="-516.2" font-family="Helvetica,sans-Serif" font-size="11.00">timestamp[29,6]</text>
<polygon fill="none" stroke="black" points="299,-486 299,-508 508,-508 508,-486 299,-486"/>
<text text-anchor="start" x="319" y="-494.2" font-family="Helvetica,sans-Serif" font-size="11.00">datenextrun</text>
<polygon fill="none" stroke="black" points="508,-486 508,-508 591,-508 591,-486 508,-486"/>
<text text-anchor="start" x="511" y="-494.2" font-family="Helvetica,sans-Serif" font-size="11.00">timestamp[29,6]</text>
<polygon fill="none" stroke="black" points="299,-464 299,-486 508,-486 508,-464 299,-464"/>
<image xlink:href="../../images/foreignKeys.png" width="11px" height="12px" preserveAspectRatio="xMinYMin meet" x="304" y="-481"/>
<text text-anchor="start" x="319" y="-472.2" font-family="Helvetica,sans-Serif" font-size="11.00">supervisor_id</text>
<polygon fill="none" stroke="black" points="508,-464 508,-486 591,-486 591,-464 508,-464"/>
<text text-anchor="start" x="511" y="-472.2" font-family="Helvetica,sans-Serif" font-size="11.00">numeric[10]</text>
<polygon fill="none" stroke="black" points="299,-442 299,-464 508,-464 508,-442 299,-442"/>
<text text-anchor="start" x="319" y="-450.2" font-family="Helvetica,sans-Serif" font-size="11.00">keeplogdays</text>
<polygon fill="none" stroke="black" points="508,-442 508,-464 591,-464 591,-442 508,-442"/>
<text text-anchor="start" x="511" y="-450.2" font-family="Helvetica,sans-Serif" font-size="11.00">numeric[10]</text>
<polygon fill="none" stroke="black" points="299,-420 299,-442 508,-442 508,-420 299,-420"/>
<text text-anchor="start" x="319" y="-428.2" font-family="Helvetica,sans-Serif" font-size="11.00">processing</text>
<polygon fill="none" stroke="black" points="508,-420 508,-442 591,-442 591,-420 508,-420"/>
<text text-anchor="start" x="511" y="-428.2" font-family="Helvetica,sans-Serif" font-size="11.00">bpchar[1]</text>
<polygon fill="none" stroke="black" points="299,-398 299,-420 508,-420 508,-398 299,-398"/>
<text text-anchor="start" x="319" y="-406.2" font-family="Helvetica,sans-Serif" font-size="11.00">inactivityalertdays</text>
<polygon fill="none" stroke="black" points="508,-398 508,-420 591,-420 591,-398 508,-398"/>
<text text-anchor="start" x="511" y="-406.2" font-family="Helvetica,sans-Serif" font-size="11.00">numeric[10]</text>
<polygon fill="none" stroke="black" points="299,-376 299,-398 508,-398 508,-376 299,-376"/>
<text text-anchor="start" x="319" y="-384.2" font-family="Helvetica,sans-Serif" font-size="11.00">reminddays</text>
<polygon fill="none" stroke="black" points="508,-376 508,-398 591,-398 591,-376 508,-376"/>
<text text-anchor="start" x="511" y="-384.2" font-family="Helvetica,sans-Serif" font-size="11.00">numeric[10]</text>
<polygon fill="none" stroke="black" points="299,-354 299,-376 508,-376 508,-354 299,-354"/>
<text text-anchor="start" x="319" y="-362.2" font-family="Helvetica,sans-Serif" font-size="11.00">alertoverpriority</text>
<polygon fill="none" stroke="black" points="508,-354 508,-376 591,-376 591,-354 508,-354"/>
<text text-anchor="start" x="511" y="-362.2" font-family="Helvetica,sans-Serif" font-size="11.00">numeric[10]</text>
<polygon fill="#ffffff" stroke="transparent" points="299,-332 299,-354 508,-354 508,-332 299,-332"/>
<polygon fill="none" stroke="black" points="299,-332 299,-354 508,-354 508,-332 299,-332"/>
<text text-anchor="start" x="319" y="-340.2" font-family="Helvetica,sans-Serif" font-size="11.00">ad_workflowprocessor_uu</text>
<polygon fill="none" stroke="black" points="508,-332 508,-354 591,-354 591,-332 508,-332"/>
<text text-anchor="start" x="511" y="-340.2" font-family="Helvetica,sans-Serif" font-size="11.00">varchar[36]</text>
<polygon fill="none" stroke="black" points="299,-310 299,-332 508,-332 508,-310 299,-310"/>
<image xlink:href="../../images/foreignKeys.png" width="11px" height="12px" preserveAspectRatio="xMinYMin meet" x="304" y="-327"/>
<text text-anchor="start" x="319" y="-318.2" font-family="Helvetica,sans-Serif" font-size="11.00">ad_schedule_id</text>
<polygon fill="none" stroke="black" points="508,-310 508,-332 591,-332 591,-310 508,-310"/>
<text text-anchor="start" x="511" y="-318.2" font-family="Helvetica,sans-Serif" font-size="11.00">numeric[10]</text>
<polygon fill="#ffffff" stroke="transparent" points="299,-292 299,-310 591,-310 591,-292 299,-292"/>
<polygon fill="none" stroke="black" points="299,-292 299,-310 591,-310 591,-292 299,-292"/>
<polygon fill="#ffffff" stroke="transparent" points="300,-293 300,-309 393,-309 393,-293 300,-293"/>
<text text-anchor="start" x="302" y="-298.2" font-family="Helvetica,sans-Serif" font-size="11.00">&lt; 2</text>
<polygon fill="#ffffff" stroke="transparent" points="393,-293 393,-309 498,-309 498,-293 393,-293"/>
<text text-anchor="start" x="431.5" y="-298.2" font-family="Helvetica,sans-Serif" font-size="11.00">1 row</text>
<polygon fill="#ffffff" stroke="transparent" points="498,-293 498,-309 590,-309 590,-293 498,-293"/>
<text text-anchor="start" x="572" y="-298.2" font-family="Helvetica,sans-Serif" font-size="11.00">3 &gt;</text>
<polygon fill="black" stroke="black" points="393,-293 393,-309 393,-309 393,-293 393,-293"/>
<polygon fill="black" stroke="black" points="498,-293 498,-309 498,-309 498,-293 498,-293"/>
<polygon fill="none" stroke="black" stroke-width="2" points="298,-291 298,-817 592,-817 592,-291 298,-291"/>
</a>
</g>
</g>
<!-- ad_workflow&#45;&gt;ad_workflowprocessor -->
<g id="edge1" class="edge">
<title>ad_workflow:w&#45;&gt;ad_workflowprocessor:e</title>
<path fill="none" stroke="black" d="M640.51,-573.95C571.43,-595.23 684.33,-783 592,-783"/>
<polygon fill="black" stroke="black" points="647.07,-573.07 655.48,-575.57 651.04,-572.53 655,-572 655,-572 655,-572 651.04,-572.53 654.52,-568.43 647.07,-573.07 647.07,-573.07"/>
<ellipse fill="none" stroke="black" cx="643.9" cy="-573.5" rx="3.2" ry="3.2"/>
</g>
<!-- ad_schedule -->
<g id="node3" class="node">
<title>ad_schedule</title>
<g id="a_node3"><a xlink:href="../../tables/ad_schedule.html" xlink:title="ad_schedule" target="_top">
<polygon fill="#ffffff" stroke="transparent" points="31.5,-37 31.5,-139 224.5,-139 224.5,-37 31.5,-37"/>
<polygon fill="#f5f5f5" stroke="transparent" points="32,-117 32,-139 225,-139 225,-117 32,-117"/>
<polygon fill="none" stroke="black" points="32,-117 32,-139 225,-139 225,-117 32,-117"/>
<text text-anchor="start" x="37" y="-126.2" font-family="Helvetica,sans-Serif" font-weight="bold" font-size="11.00">ad_schedule</text>
<text text-anchor="start" x="190" y="-125.2" font-family="Helvetica,sans-Serif" font-size="11.00">[table]</text>
<polygon fill="none" stroke="black" points="32,-95 32,-117 225,-117 225,-95 32,-95"/>
<image xlink:href="../../images/primaryKeys.png" width="11px" height="12px" preserveAspectRatio="xMinYMin meet" x="37" y="-112"/>
<text text-anchor="start" x="52" y="-103.2" font-family="Helvetica,sans-Serif" font-size="11.00">ad_schedule_id</text>
<polygon fill="#ffffff" stroke="transparent" points="32,-73 32,-95 225,-95 225,-73 32,-73"/>
<polygon fill="none" stroke="black" points="32,-73 32,-95 225,-95 225,-73 32,-73"/>
<text text-anchor="start" x="52" y="-81.2" font-family="Helvetica,sans-Serif" font-size="11.00">ad_schedule_uu</text>
<polygon fill="none" stroke="black" points="32,-55 32,-73 225,-73 225,-55 32,-55"/>
<text text-anchor="start" x="35" y="-61.2" font-family="Helvetica,sans-Serif" font-size="11.00">...</text>
<polygon fill="#ffffff" stroke="transparent" points="32,-37 32,-55 225,-55 225,-37 32,-37"/>
<polygon fill="none" stroke="black" points="32,-37 32,-55 225,-55 225,-37 32,-37"/>
<polygon fill="#ffffff" stroke="transparent" points="33,-38 33,-54 85,-54 85,-38 33,-38"/>
<text text-anchor="start" x="35" y="-43.2" font-family="Helvetica,sans-Serif" font-size="11.00"> &#160;</text>
<polygon fill="#ffffff" stroke="transparent" points="85,-38 85,-54 163,-54 163,-38 85,-38"/>
<text text-anchor="start" x="107.5" y="-43.2" font-family="Helvetica,sans-Serif" font-size="11.00">5 rows</text>
<polygon fill="#ffffff" stroke="transparent" points="163,-38 163,-54 224,-54 224,-38 163,-38"/>
<text text-anchor="start" x="206" y="-43.2" font-family="Helvetica,sans-Serif" font-size="11.00">5 &gt;</text>
<polygon fill="black" stroke="black" points="85,-38 85,-54 85,-54 85,-38 85,-38"/>
<polygon fill="black" stroke="black" points="163,-38 163,-54 163,-54 163,-38 163,-38"/>
</a>
</g>
</g>
<!-- ad_workflowprocessor&#45;&gt;ad_schedule -->
<g id="edge2" class="edge">
<title>ad_workflowprocessor:w&#45;&gt;ad_schedule:e</title>
<path fill="none" stroke="black" d="M283.46,-319.14C210.71,-298.13 321.26,-106 226,-106"/>
<polygon fill="black" stroke="black" points="290.06,-319.99 297.54,-324.57 294.03,-320.49 298,-321 298,-321 298,-321 294.03,-320.49 298.46,-317.43 290.06,-319.99 290.06,-319.99"/>
<ellipse fill="none" stroke="black" cx="286.89" cy="-319.58" rx="3.2" ry="3.2"/>
</g>
<!-- ad_user -->
<g id="node4" class="node">
<title>ad_user</title>
<g id="a_node4"><a xlink:href="../../tables/ad_user.html" xlink:title="ad_user" target="_top">
<polygon fill="#ffffff" stroke="transparent" points="8,-160 8,-724 248,-724 248,-160 8,-160"/>
<polygon fill="#f5f5f5" stroke="transparent" points="8,-702 8,-724 248,-724 248,-702 8,-702"/>
<polygon fill="none" stroke="black" points="8,-702 8,-724 248,-724 248,-702 8,-702"/>
<text text-anchor="start" x="13" y="-711.2" font-family="Helvetica,sans-Serif" font-weight="bold" font-size="11.00">ad_user</text>
<text text-anchor="start" x="213" y="-710.2" font-family="Helvetica,sans-Serif" font-size="11.00">[table]</text>
<polygon fill="none" stroke="black" points="8,-680 8,-702 248,-702 248,-680 8,-680"/>
<image xlink:href="../../images/primaryKeys.png" width="11px" height="12px" preserveAspectRatio="xMinYMin meet" x="13" y="-697"/>
<text text-anchor="start" x="28" y="-688.2" font-family="Helvetica,sans-Serif" font-size="11.00">ad_user_id</text>
<polygon fill="none" stroke="black" points="8,-658 8,-680 248,-680 248,-658 8,-658"/>
<image xlink:href="../../images/foreignKeys.png" width="11px" height="12px" preserveAspectRatio="xMinYMin meet" x="13" y="-675"/>
<text text-anchor="start" x="28" y="-666.2" font-family="Helvetica,sans-Serif" font-size="11.00">ad_client_id</text>
<polygon fill="none" stroke="black" points="8,-636 8,-658 248,-658 248,-636 8,-636"/>
<image xlink:href="../../images/foreignKeys.png" width="11px" height="12px" preserveAspectRatio="xMinYMin meet" x="13" y="-653"/>
<text text-anchor="start" x="28" y="-644.2" font-family="Helvetica,sans-Serif" font-size="11.00">ad_org_id</text>
<polygon fill="#ffffff" stroke="transparent" points="8,-614 8,-636 248,-636 248,-614 8,-614"/>
<polygon fill="none" stroke="black" points="8,-614 8,-636 248,-636 248,-614 8,-614"/>
<text text-anchor="start" x="28" y="-622.2" font-family="Helvetica,sans-Serif" font-size="11.00">name</text>
<polygon fill="#ffffff" stroke="transparent" points="8,-592 8,-614 248,-614 248,-592 8,-592"/>
<polygon fill="none" stroke="black" points="8,-592 8,-614 248,-614 248,-592 8,-592"/>
<text text-anchor="start" x="28" y="-600.2" font-family="Helvetica,sans-Serif" font-size="11.00">email</text>
<polygon fill="none" stroke="black" points="8,-570 8,-592 248,-592 248,-570 8,-570"/>
<image xlink:href="../../images/foreignKeys.png" width="11px" height="12px" preserveAspectRatio="xMinYMin meet" x="13" y="-587"/>
<text text-anchor="start" x="28" y="-578.2" font-family="Helvetica,sans-Serif" font-size="11.00">supervisor_id</text>
<polygon fill="#ffffff" stroke="transparent" points="8,-548 8,-570 248,-570 248,-548 8,-548"/>
<polygon fill="none" stroke="black" points="8,-548 8,-570 248,-570 248,-548 8,-548"/>
<image xlink:href="../../images/foreignKeys.png" width="11px" height="12px" preserveAspectRatio="xMinYMin meet" x="13" y="-565"/>
<text text-anchor="start" x="28" y="-556.2" font-family="Helvetica,sans-Serif" font-size="11.00">c_bpartner_id</text>
<polygon fill="none" stroke="black" points="8,-526 8,-548 248,-548 248,-526 8,-526"/>
<image xlink:href="../../images/foreignKeys.png" width="11px" height="12px" preserveAspectRatio="xMinYMin meet" x="13" y="-543"/>
<text text-anchor="start" x="28" y="-534.2" font-family="Helvetica,sans-Serif" font-size="11.00">c_bpartner_location_id</text>
<polygon fill="none" stroke="black" points="8,-504 8,-526 248,-526 248,-504 8,-504"/>
<image xlink:href="../../images/foreignKeys.png" width="11px" height="12px" preserveAspectRatio="xMinYMin meet" x="13" y="-521"/>
<text text-anchor="start" x="28" y="-512.2" font-family="Helvetica,sans-Serif" font-size="11.00">c_greeting_id</text>
<polygon fill="none" stroke="black" points="8,-482 8,-504 248,-504 248,-482 8,-482"/>
<image xlink:href="../../images/foreignKeys.png" width="11px" height="12px" preserveAspectRatio="xMinYMin meet" x="13" y="-499"/>
<text text-anchor="start" x="28" y="-490.2" font-family="Helvetica,sans-Serif" font-size="11.00">ad_orgtrx_id</text>
<polygon fill="none" stroke="black" points="8,-460 8,-482 248,-482 248,-460 8,-460"/>
<image xlink:href="../../images/foreignKeys.png" width="11px" height="12px" preserveAspectRatio="xMinYMin meet" x="13" y="-477"/>
<text text-anchor="start" x="28" y="-468.2" font-family="Helvetica,sans-Serif" font-size="11.00">c_job_id</text>
<polygon fill="#ffffff" stroke="transparent" points="8,-438 8,-460 248,-460 248,-438 8,-438"/>
<polygon fill="none" stroke="black" points="8,-438 8,-460 248,-460 248,-438 8,-438"/>
<text text-anchor="start" x="28" y="-446.2" font-family="Helvetica,sans-Serif" font-size="11.00">ad_user_uu</text>
<polygon fill="none" stroke="black" points="8,-416 8,-438 248,-438 248,-416 8,-416"/>
<image xlink:href="../../images/foreignKeys.png" width="11px" height="12px" preserveAspectRatio="xMinYMin meet" x="13" y="-433"/>
<text text-anchor="start" x="28" y="-424.2" font-family="Helvetica,sans-Serif" font-size="11.00">c_location_id</text>
<polygon fill="none" stroke="black" points="8,-394 8,-416 248,-416 248,-394 8,-394"/>
<image xlink:href="../../images/foreignKeys.png" width="11px" height="12px" preserveAspectRatio="xMinYMin meet" x="13" y="-411"/>
<text text-anchor="start" x="28" y="-402.2" font-family="Helvetica,sans-Serif" font-size="11.00">c_campaign_id</text>
<polygon fill="none" stroke="black" points="8,-372 8,-394 248,-394 248,-372 8,-372"/>
<image xlink:href="../../images/foreignKeys.png" width="11px" height="12px" preserveAspectRatio="xMinYMin meet" x="13" y="-389"/>
<text text-anchor="start" x="28" y="-380.2" font-family="Helvetica,sans-Serif" font-size="11.00">salesrep_id</text>
<polygon fill="none" stroke="black" points="8,-350 8,-372 248,-372 248,-350 8,-350"/>
<image xlink:href="../../images/foreignKeys.png" width="11px" height="12px" preserveAspectRatio="xMinYMin meet" x="13" y="-367"/>
<text text-anchor="start" x="28" y="-358.2" font-family="Helvetica,sans-Serif" font-size="11.00">bp_location_id</text>
<polygon fill="none" stroke="black" points="8,-328 8,-350 248,-350 248,-328 8,-328"/>
<image xlink:href="../../images/foreignKeys.png" width="11px" height="12px" preserveAspectRatio="xMinYMin meet" x="13" y="-345"/>
<text text-anchor="start" x="28" y="-336.2" font-family="Helvetica,sans-Serif" font-size="11.00">r_defaultmailtext_id</text>
<polygon fill="none" stroke="black" points="8,-306 8,-328 248,-328 248,-306 8,-306"/>
<image xlink:href="../../images/foreignKeys.png" width="11px" height="12px" preserveAspectRatio="xMinYMin meet" x="13" y="-323"/>
<text text-anchor="start" x="28" y="-314.2" font-family="Helvetica,sans-Serif" font-size="11.00">cof_c_marketsegment_id</text>
<polygon fill="none" stroke="black" points="8,-284 8,-306 248,-306 248,-284 8,-284"/>
<image xlink:href="../../images/foreignKeys.png" width="11px" height="12px" preserveAspectRatio="xMinYMin meet" x="13" y="-301"/>
<text text-anchor="start" x="28" y="-292.2" font-family="Helvetica,sans-Serif" font-size="11.00">cof_c_leadexpirationreason_id</text>
<polygon fill="none" stroke="black" points="8,-262 8,-284 248,-284 248,-262 8,-262"/>
<image xlink:href="../../images/foreignKeys.png" width="11px" height="12px" preserveAspectRatio="xMinYMin meet" x="13" y="-279"/>
<text text-anchor="start" x="28" y="-270.2" font-family="Helvetica,sans-Serif" font-size="11.00">ad_image_id</text>
<polygon fill="none" stroke="black" points="8,-240 8,-262 248,-262 248,-240 8,-240"/>
<image xlink:href="../../images/foreignKeys.png" width="11px" height="12px" preserveAspectRatio="xMinYMin meet" x="13" y="-257"/>
<text text-anchor="start" x="28" y="-248.2" font-family="Helvetica,sans-Serif" font-size="11.00">c_subscription_id</text>
<polygon fill="none" stroke="black" points="8,-218 8,-240 248,-240 248,-218 8,-218"/>
<image xlink:href="../../images/foreignKeys.png" width="11px" height="12px" preserveAspectRatio="xMinYMin meet" x="13" y="-235"/>
<text text-anchor="start" x="28" y="-226.2" font-family="Helvetica,sans-Serif" font-size="11.00">cof_responsavelindicacao_id</text>
<polygon fill="none" stroke="black" points="8,-196 8,-218 248,-218 248,-196 8,-196"/>
<image xlink:href="../../images/foreignKeys.png" width="11px" height="12px" preserveAspectRatio="xMinYMin meet" x="13" y="-213"/>
<text text-anchor="start" x="28" y="-204.2" font-family="Helvetica,sans-Serif" font-size="11.00">cof_respatribuicao_id</text>
<polygon fill="none" stroke="black" points="8,-178 8,-196 248,-196 248,-178 8,-178"/>
<text text-anchor="start" x="11" y="-184.2" font-family="Helvetica,sans-Serif" font-size="11.00">...</text>
<polygon fill="#ffffff" stroke="transparent" points="8,-160 8,-178 248,-178 248,-160 8,-160"/>
<polygon fill="none" stroke="black" points="8,-160 8,-178 248,-178 248,-160 8,-160"/>
<polygon fill="#ffffff" stroke="transparent" points="9,-161 9,-177 83,-177 83,-161 9,-161"/>
<text text-anchor="start" x="11" y="-166.2" font-family="Helvetica,sans-Serif" font-size="11.00">&lt; 19</text>
<polygon fill="#ffffff" stroke="transparent" points="83,-161 83,-177 168,-177 168,-161 83,-161"/>
<text text-anchor="start" x="109" y="-166.2" font-family="Helvetica,sans-Serif" font-size="11.00">8 rows</text>
<polygon fill="#ffffff" stroke="transparent" points="168,-161 168,-177 247,-177 247,-161 168,-161"/>
<text text-anchor="start" x="217" y="-166.2" font-family="Helvetica,sans-Serif" font-size="11.00">446 &gt;</text>
<polygon fill="black" stroke="black" points="83,-161 83,-177 83,-177 83,-161 83,-161"/>
<polygon fill="black" stroke="black" points="168,-161 168,-177 168,-177 168,-161 168,-161"/>
</a>
</g>
</g>
<!-- ad_workflowprocessor&#45;&gt;ad_user -->
<g id="edge3" class="edge">
<title>ad_workflowprocessor:w&#45;&gt;ad_user:e</title>
<path fill="none" stroke="black" d="M283.55,-477C215.52,-498.78 341.86,-691 249,-691"/>
<polygon fill="black" stroke="black" points="290.08,-476.1 298.49,-478.57 294.04,-475.55 298,-475 298,-475 298,-475 294.04,-475.55 297.51,-471.43 290.08,-476.1 290.08,-476.1"/>
<ellipse fill="none" stroke="black" cx="286.91" cy="-476.54" rx="3.2" ry="3.2"/>
</g>
<!-- ad_workflowprocessorlog -->
<g id="node5" class="node">
<title>ad_workflowprocessorlog</title>
<g id="a_node5"><a xlink:href="../../tables/ad_workflowprocessorlog.html" xlink:title="ad_workflowprocessorlog" target="_top">
<polygon fill="#ffffff" stroke="transparent" points="642,-807 642,-931 874,-931 874,-807 642,-807"/>
<polygon fill="#f5f5f5" stroke="transparent" points="642,-909 642,-931 874,-931 874,-909 642,-909"/>
<polygon fill="none" stroke="black" points="642,-909 642,-931 874,-931 874,-909 642,-909"/>
<text text-anchor="start" x="647" y="-918.2" font-family="Helvetica,sans-Serif" font-weight="bold" font-size="11.00">ad_workflowprocessorlog</text>
<text text-anchor="start" x="839" y="-917.2" font-family="Helvetica,sans-Serif" font-size="11.00">[table]</text>
<polygon fill="none" stroke="black" points="642,-887 642,-909 874,-909 874,-887 642,-887"/>
<image xlink:href="../../images/primaryKeys.png" width="11px" height="12px" preserveAspectRatio="xMinYMin meet" x="647" y="-904"/>
<text text-anchor="start" x="662" y="-895.2" font-family="Helvetica,sans-Serif" font-size="11.00">ad_workflowprocessor_id</text>
<polygon fill="none" stroke="black" points="642,-865 642,-887 874,-887 874,-865 642,-865"/>
<image xlink:href="../../images/primaryKeys.png" width="11px" height="12px" preserveAspectRatio="xMinYMin meet" x="647" y="-882"/>
<text text-anchor="start" x="662" y="-873.2" font-family="Helvetica,sans-Serif" font-size="11.00">ad_workflowprocessorlog_id</text>
<polygon fill="#ffffff" stroke="transparent" points="642,-843 642,-865 874,-865 874,-843 642,-843"/>
<polygon fill="none" stroke="black" points="642,-843 642,-865 874,-865 874,-843 642,-843"/>
<text text-anchor="start" x="662" y="-851.2" font-family="Helvetica,sans-Serif" font-size="11.00">ad_workflowprocessorlog_uu</text>
<polygon fill="none" stroke="black" points="642,-825 642,-843 874,-843 874,-825 642,-825"/>
<text text-anchor="start" x="645" y="-831.2" font-family="Helvetica,sans-Serif" font-size="11.00">...</text>
<polygon fill="#ffffff" stroke="transparent" points="642,-807 642,-825 874,-825 874,-807 642,-807"/>
<polygon fill="none" stroke="black" points="642,-807 642,-825 874,-825 874,-807 642,-807"/>
<polygon fill="#ffffff" stroke="transparent" points="643,-808 643,-824 715,-824 715,-808 643,-808"/>
<text text-anchor="start" x="645" y="-813.2" font-family="Helvetica,sans-Serif" font-size="11.00">&lt; 1</text>
<polygon fill="#ffffff" stroke="transparent" points="715,-808 715,-824 810,-824 810,-808 715,-808"/>
<text text-anchor="start" x="743" y="-813.2" font-family="Helvetica,sans-Serif" font-size="11.00">84 rows</text>
<polygon fill="#ffffff" stroke="transparent" points="810,-808 810,-824 873,-824 873,-808 810,-808"/>
<text text-anchor="start" x="864" y="-813.2" font-family="Helvetica,sans-Serif" font-size="11.00"> &#160;</text>
<polygon fill="black" stroke="black" points="715,-808 715,-824 715,-824 715,-808 715,-808"/>
<polygon fill="black" stroke="black" points="810,-808 810,-824 810,-824 810,-808 810,-808"/>
</a>
</g>
</g>
<!-- ad_workflowprocessorlog&#45;&gt;ad_workflowprocessor -->
<g id="edge4" class="edge">
<title>ad_workflowprocessorlog:w&#45;&gt;ad_workflowprocessor:e</title>
<path fill="none" stroke="black" d="M626.69,-894.17C597.62,-874.22 641.48,-783 592,-783"/>
<polygon fill="black" stroke="black" points="633.27,-895.93 640.07,-901.48 637.14,-896.97 641,-898 641,-898 641,-898 637.14,-896.97 641.93,-894.52 633.27,-895.93 633.27,-895.93"/>
<ellipse fill="none" stroke="black" cx="630.18" cy="-895.11" rx="3.2" ry="3.2"/>
</g>
<!-- pp_order_workflow -->
<g id="node6" class="node">
<title>pp_order_workflow</title>
<g id="a_node6"><a xlink:href="../../tables/pp_order_workflow.html" xlink:title="pp_order_workflow" target="_top">
<polygon fill="#ffffff" stroke="transparent" points="923,-564 923,-864 1127,-864 1127,-564 923,-564"/>
<polygon fill="#f5f5f5" stroke="transparent" points="923,-842 923,-864 1127,-864 1127,-842 923,-842"/>
<polygon fill="none" stroke="black" points="923,-842 923,-864 1127,-864 1127,-842 923,-842"/>
<text text-anchor="start" x="928" y="-851.2" font-family="Helvetica,sans-Serif" font-weight="bold" font-size="11.00">pp_order_workflow</text>
<text text-anchor="start" x="1092" y="-850.2" font-family="Helvetica,sans-Serif" font-size="11.00">[table]</text>
<polygon fill="none" stroke="black" points="923,-820 923,-842 1127,-842 1127,-820 923,-820"/>
<image xlink:href="../../images/foreignKeys.png" width="11px" height="12px" preserveAspectRatio="xMinYMin meet" x="928" y="-837"/>
<text text-anchor="start" x="943" y="-828.2" font-family="Helvetica,sans-Serif" font-size="11.00">ad_table_id</text>
<polygon fill="none" stroke="black" points="923,-798 923,-820 1127,-820 1127,-798 923,-798"/>
<image xlink:href="../../images/foreignKeys.png" width="11px" height="12px" preserveAspectRatio="xMinYMin meet" x="928" y="-815"/>
<text text-anchor="start" x="943" y="-806.2" font-family="Helvetica,sans-Serif" font-size="11.00">ad_wf_node_id</text>
<polygon fill="none" stroke="black" points="923,-776 923,-798 1127,-798 1127,-776 923,-776"/>
<image xlink:href="../../images/foreignKeys.png" width="11px" height="12px" preserveAspectRatio="xMinYMin meet" x="928" y="-793"/>
<text text-anchor="start" x="943" y="-784.2" font-family="Helvetica,sans-Serif" font-size="11.00">ad_wf_responsible_id</text>
<polygon fill="none" stroke="black" points="923,-754 923,-776 1127,-776 1127,-754 923,-754"/>
<image xlink:href="../../images/foreignKeys.png" width="11px" height="12px" preserveAspectRatio="xMinYMin meet" x="928" y="-771"/>
<text text-anchor="start" x="943" y="-762.2" font-family="Helvetica,sans-Serif" font-size="11.00">ad_workflowprocessor_id</text>
<polygon fill="none" stroke="black" points="923,-732 923,-754 1127,-754 1127,-732 923,-732"/>
<image xlink:href="../../images/foreignKeys.png" width="11px" height="12px" preserveAspectRatio="xMinYMin meet" x="928" y="-749"/>
<text text-anchor="start" x="943" y="-740.2" font-family="Helvetica,sans-Serif" font-size="11.00">ad_workflow_id</text>
<polygon fill="none" stroke="black" points="923,-710 923,-732 1127,-732 1127,-710 923,-710"/>
<image xlink:href="../../images/foreignKeys.png" width="11px" height="12px" preserveAspectRatio="xMinYMin meet" x="928" y="-727"/>
<text text-anchor="start" x="943" y="-718.2" font-family="Helvetica,sans-Serif" font-size="11.00">entitytype</text>
<polygon fill="none" stroke="black" points="923,-688 923,-710 1127,-710 1127,-688 923,-688"/>
<image xlink:href="../../images/foreignKeys.png" width="11px" height="12px" preserveAspectRatio="xMinYMin meet" x="928" y="-705"/>
<text text-anchor="start" x="943" y="-696.2" font-family="Helvetica,sans-Serif" font-size="11.00">pp_order_id</text>
<polygon fill="none" stroke="black" points="923,-666 923,-688 1127,-688 1127,-666 923,-666"/>
<image xlink:href="../../images/foreignKeys.png" width="11px" height="12px" preserveAspectRatio="xMinYMin meet" x="928" y="-683"/>
<text text-anchor="start" x="943" y="-674.2" font-family="Helvetica,sans-Serif" font-size="11.00">pp_order_node_id</text>
<polygon fill="none" stroke="black" points="923,-644 923,-666 1127,-666 1127,-644 923,-644"/>
<image xlink:href="../../images/primaryKeys.png" width="11px" height="12px" preserveAspectRatio="xMinYMin meet" x="928" y="-661"/>
<text text-anchor="start" x="943" y="-652.2" font-family="Helvetica,sans-Serif" font-size="11.00">pp_order_workflow_id</text>
<polygon fill="none" stroke="black" points="923,-622 923,-644 1127,-644 1127,-622 923,-622"/>
<image xlink:href="../../images/foreignKeys.png" width="11px" height="12px" preserveAspectRatio="xMinYMin meet" x="928" y="-639"/>
<text text-anchor="start" x="943" y="-630.2" font-family="Helvetica,sans-Serif" font-size="11.00">s_resource_id</text>
<polygon fill="#ffffff" stroke="transparent" points="923,-600 923,-622 1127,-622 1127,-600 923,-600"/>
<polygon fill="none" stroke="black" points="923,-600 923,-622 1127,-622 1127,-600 923,-600"/>
<text text-anchor="start" x="943" y="-608.2" font-family="Helvetica,sans-Serif" font-size="11.00">pp_order_workflow_uu</text>
<polygon fill="none" stroke="black" points="923,-582 923,-600 1127,-600 1127,-582 923,-582"/>
<text text-anchor="start" x="926" y="-588.2" font-family="Helvetica,sans-Serif" font-size="11.00">...</text>
<polygon fill="#ffffff" stroke="transparent" points="923,-564 923,-582 1127,-582 1127,-564 923,-564"/>
<polygon fill="none" stroke="black" points="923,-564 923,-582 1127,-582 1127,-564 923,-564"/>
<polygon fill="#ffffff" stroke="transparent" points="924,-565 924,-581 995,-581 995,-565 924,-565"/>
<text text-anchor="start" x="926" y="-570.2" font-family="Helvetica,sans-Serif" font-size="11.00">&lt; 9</text>
<polygon fill="#ffffff" stroke="transparent" points="995,-565 995,-581 1056,-581 1056,-565 995,-565"/>
<text text-anchor="start" x="1022" y="-570.2" font-family="Helvetica,sans-Serif" font-size="11.00"> &#160;</text>
<polygon fill="#ffffff" stroke="transparent" points="1056,-565 1056,-581 1126,-581 1126,-565 1056,-565"/>
<text text-anchor="start" x="1108" y="-570.2" font-family="Helvetica,sans-Serif" font-size="11.00">5 &gt;</text>
<polygon fill="black" stroke="black" points="995,-565 995,-581 995,-581 995,-565 995,-565"/>
<polygon fill="black" stroke="black" points="1056,-565 1056,-581 1056,-581 1056,-565 1056,-565"/>
</a>
</g>
</g>
<!-- pp_order_workflow&#45;&gt;ad_workflow -->
<g id="edge5" class="edge">
<title>pp_order_workflow:w&#45;&gt;ad_workflow:e</title>
<path fill="none" stroke="black" d="M907.36,-741.18C890.97,-736.8 883.43,-726 861,-726"/>
<polygon fill="black" stroke="black" points="914.06,-742.01 921.56,-746.57 918.03,-742.51 922,-743 922,-743 922,-743 918.03,-742.51 922.44,-739.43 914.06,-742.01 914.06,-742.01"/>
<ellipse fill="none" stroke="black" cx="910.89" cy="-741.62" rx="3.2" ry="3.2"/>
</g>
<!-- pp_order_workflow&#45;&gt;ad_workflowprocessor -->
<g id="edge6" class="edge">
<title>pp_order_workflow:w&#45;&gt;ad_workflowprocessor:e</title>
<path fill="none" stroke="black" d="M907.54,-765.97C899.7,-767.12 893.85,-768.99 882,-770 753.44,-780.9 721.02,-783 592,-783"/>
<polygon fill="black" stroke="black" points="914.02,-765.54 922.24,-768.59 918.01,-765.27 922,-765 922,-765 922,-765 918.01,-765.27 921.76,-761.41 914.02,-765.54 914.02,-765.54"/>
<ellipse fill="none" stroke="black" cx="910.83" cy="-765.75" rx="3.2" ry="3.2"/>
</g>
</g>
</svg>
