<?xml version="1.0" encoding="UTF-8" standalone="no"?>
<!DOCTYPE svg PUBLIC "-//W3C//DTD SVG 1.1//EN"
 "http://www.w3.org/Graphics/SVG/1.1/DTD/svg11.dtd">
<!-- Generated by graphviz version 2.43.0 (0)
 -->
<!-- Title: oneDegreeRelationshipsDiagram Pages: 1 -->
<svg width="533pt" height="560pt"
 viewBox="0.00 0.00 533.00 560.00" xmlns="http://www.w3.org/2000/svg" xmlns:xlink="http://www.w3.org/1999/xlink">
<g id="graph0" class="graph" transform="scale(1 1) rotate(0) translate(4 556)">
<title>oneDegreeRelationshipsDiagram</title>
<polygon fill="#ffffff" stroke="transparent" points="-4,4 -4,-556 529,-556 529,4 -4,4"/>
<text text-anchor="middle" x="71.5" y="-7.2" font-family="Helvetica,sans-Serif" font-size="11.00">Generated by SchemaSpy</text>
<!-- ad_window_trl -->
<g id="node1" class="node">
<title>ad_window_trl</title>
<g id="a_node1"><a xlink:href="../../tables/ad_window_trl.html" xlink:title="ad_window_trl" target="_top">
<polygon fill="#ffffff" stroke="transparent" points="280,-37 280,-433 517,-433 517,-37 280,-37"/>
<polygon fill="#f5f5f5" stroke="transparent" points="282.5,-409 282.5,-431 515.5,-431 515.5,-409 282.5,-409"/>
<polygon fill="none" stroke="black" points="282.5,-409 282.5,-431 515.5,-431 515.5,-409 282.5,-409"/>
<text text-anchor="start" x="287.5" y="-418.2" font-family="Helvetica,sans-Serif" font-weight="bold" font-size="11.00">ad_window_trl</text>
<text text-anchor="start" x="480.5" y="-417.2" font-family="Helvetica,sans-Serif" font-size="11.00">[table]</text>
<polygon fill="none" stroke="black" points="282.5,-387 282.5,-409 432.5,-409 432.5,-387 282.5,-387"/>
<image xlink:href="../../images/primaryKeys.png" width="11px" height="12px" preserveAspectRatio="xMinYMin meet" x="287.5" y="-404"/>
<text text-anchor="start" x="302.5" y="-395.2" font-family="Helvetica,sans-Serif" font-size="11.00">ad_window_id</text>
<polygon fill="none" stroke="black" points="432.5,-387 432.5,-409 515.5,-409 515.5,-387 432.5,-387"/>
<text text-anchor="start" x="435.5" y="-395.2" font-family="Helvetica,sans-Serif" font-size="11.00">numeric[10]</text>
<polygon fill="none" stroke="black" points="282.5,-365 282.5,-387 432.5,-387 432.5,-365 282.5,-365"/>
<image xlink:href="../../images/primaryKeys.png" width="11px" height="12px" preserveAspectRatio="xMinYMin meet" x="287.5" y="-382"/>
<text text-anchor="start" x="302.5" y="-373.2" font-family="Helvetica,sans-Serif" font-size="11.00">ad_language</text>
<polygon fill="none" stroke="black" points="432.5,-365 432.5,-387 515.5,-387 515.5,-365 432.5,-365"/>
<text text-anchor="start" x="435.5" y="-373.2" font-family="Helvetica,sans-Serif" font-size="11.00">varchar[6]</text>
<polygon fill="none" stroke="black" points="282.5,-343 282.5,-365 432.5,-365 432.5,-343 282.5,-343"/>
<text text-anchor="start" x="302.5" y="-351.2" font-family="Helvetica,sans-Serif" font-size="11.00">ad_client_id</text>
<polygon fill="none" stroke="black" points="432.5,-343 432.5,-365 515.5,-365 515.5,-343 432.5,-343"/>
<text text-anchor="start" x="435.5" y="-351.2" font-family="Helvetica,sans-Serif" font-size="11.00">numeric[10]</text>
<polygon fill="none" stroke="black" points="282.5,-321 282.5,-343 432.5,-343 432.5,-321 282.5,-321"/>
<text text-anchor="start" x="302.5" y="-329.2" font-family="Helvetica,sans-Serif" font-size="11.00">ad_org_id</text>
<polygon fill="none" stroke="black" points="432.5,-321 432.5,-343 515.5,-343 515.5,-321 432.5,-321"/>
<text text-anchor="start" x="435.5" y="-329.2" font-family="Helvetica,sans-Serif" font-size="11.00">numeric[10]</text>
<polygon fill="none" stroke="black" points="282.5,-299 282.5,-321 432.5,-321 432.5,-299 282.5,-299"/>
<text text-anchor="start" x="302.5" y="-307.2" font-family="Helvetica,sans-Serif" font-size="11.00">isactive</text>
<polygon fill="none" stroke="black" points="432.5,-299 432.5,-321 515.5,-321 515.5,-299 432.5,-299"/>
<text text-anchor="start" x="435.5" y="-307.2" font-family="Helvetica,sans-Serif" font-size="11.00">bpchar[1]</text>
<polygon fill="none" stroke="black" points="282.5,-277 282.5,-299 432.5,-299 432.5,-277 282.5,-277"/>
<text text-anchor="start" x="302.5" y="-285.2" font-family="Helvetica,sans-Serif" font-size="11.00">created</text>
<polygon fill="none" stroke="black" points="432.5,-277 432.5,-299 515.5,-299 515.5,-277 432.5,-277"/>
<text text-anchor="start" x="435.5" y="-285.2" font-family="Helvetica,sans-Serif" font-size="11.00">timestamp[29,6]</text>
<polygon fill="none" stroke="black" points="282.5,-255 282.5,-277 432.5,-277 432.5,-255 282.5,-255"/>
<text text-anchor="start" x="302.5" y="-263.2" font-family="Helvetica,sans-Serif" font-size="11.00">createdby</text>
<polygon fill="none" stroke="black" points="432.5,-255 432.5,-277 515.5,-277 515.5,-255 432.5,-255"/>
<text text-anchor="start" x="435.5" y="-263.2" font-family="Helvetica,sans-Serif" font-size="11.00">numeric[10]</text>
<polygon fill="none" stroke="black" points="282.5,-233 282.5,-255 432.5,-255 432.5,-233 282.5,-233"/>
<text text-anchor="start" x="302.5" y="-241.2" font-family="Helvetica,sans-Serif" font-size="11.00">updated</text>
<polygon fill="none" stroke="black" points="432.5,-233 432.5,-255 515.5,-255 515.5,-233 432.5,-233"/>
<text text-anchor="start" x="435.5" y="-241.2" font-family="Helvetica,sans-Serif" font-size="11.00">timestamp[29,6]</text>
<polygon fill="none" stroke="black" points="282.5,-211 282.5,-233 432.5,-233 432.5,-211 282.5,-211"/>
<text text-anchor="start" x="302.5" y="-219.2" font-family="Helvetica,sans-Serif" font-size="11.00">updatedby</text>
<polygon fill="none" stroke="black" points="432.5,-211 432.5,-233 515.5,-233 515.5,-211 432.5,-211"/>
<text text-anchor="start" x="435.5" y="-219.2" font-family="Helvetica,sans-Serif" font-size="11.00">numeric[10]</text>
<polygon fill="none" stroke="black" points="282.5,-189 282.5,-211 432.5,-211 432.5,-189 282.5,-189"/>
<text text-anchor="start" x="302.5" y="-197.2" font-family="Helvetica,sans-Serif" font-size="11.00">name</text>
<polygon fill="none" stroke="black" points="432.5,-189 432.5,-211 515.5,-211 515.5,-189 432.5,-189"/>
<text text-anchor="start" x="435.5" y="-197.2" font-family="Helvetica,sans-Serif" font-size="11.00">varchar[60]</text>
<polygon fill="none" stroke="black" points="282.5,-167 282.5,-189 432.5,-189 432.5,-167 282.5,-167"/>
<text text-anchor="start" x="302.5" y="-175.2" font-family="Helvetica,sans-Serif" font-size="11.00">description</text>
<polygon fill="none" stroke="black" points="432.5,-167 432.5,-189 515.5,-189 515.5,-167 432.5,-167"/>
<text text-anchor="start" x="435.5" y="-175.2" font-family="Helvetica,sans-Serif" font-size="11.00">varchar[255]</text>
<polygon fill="none" stroke="black" points="282.5,-145 282.5,-167 432.5,-167 432.5,-145 282.5,-145"/>
<text text-anchor="start" x="302.5" y="-153.2" font-family="Helvetica,sans-Serif" font-size="11.00">help</text>
<polygon fill="none" stroke="black" points="432.5,-145 432.5,-167 515.5,-167 515.5,-145 432.5,-145"/>
<text text-anchor="start" x="435.5" y="-153.2" font-family="Helvetica,sans-Serif" font-size="11.00">varchar[2000]</text>
<polygon fill="none" stroke="black" points="282.5,-123 282.5,-145 432.5,-145 432.5,-123 282.5,-123"/>
<text text-anchor="start" x="302.5" y="-131.2" font-family="Helvetica,sans-Serif" font-size="11.00">istranslated</text>
<polygon fill="none" stroke="black" points="432.5,-123 432.5,-145 515.5,-145 515.5,-123 432.5,-123"/>
<text text-anchor="start" x="435.5" y="-131.2" font-family="Helvetica,sans-Serif" font-size="11.00">bpchar[1]</text>
<polygon fill="#ffffff" stroke="transparent" points="282.5,-101 282.5,-123 432.5,-123 432.5,-101 282.5,-101"/>
<polygon fill="none" stroke="black" points="282.5,-101 282.5,-123 432.5,-123 432.5,-101 282.5,-101"/>
<text text-anchor="start" x="302.5" y="-109.2" font-family="Helvetica,sans-Serif" font-size="11.00">ad_window_trl_uu</text>
<polygon fill="none" stroke="black" points="432.5,-101 432.5,-123 515.5,-123 515.5,-101 432.5,-101"/>
<text text-anchor="start" x="435.5" y="-109.2" font-family="Helvetica,sans-Serif" font-size="11.00">varchar[36]</text>
<polygon fill="none" stroke="black" points="282.5,-79 282.5,-101 432.5,-101 432.5,-79 282.5,-79"/>
<text text-anchor="start" x="302.5" y="-87.2" font-family="Helvetica,sans-Serif" font-size="11.00">cof_pretranslated</text>
<polygon fill="none" stroke="black" points="432.5,-79 432.5,-101 515.5,-101 515.5,-79 432.5,-79"/>
<text text-anchor="start" x="435.5" y="-87.2" font-family="Helvetica,sans-Serif" font-size="11.00">bpchar[1]</text>
<polygon fill="none" stroke="black" points="282.5,-57 282.5,-79 432.5,-79 432.5,-57 282.5,-57"/>
<text text-anchor="start" x="302.5" y="-65.2" font-family="Helvetica,sans-Serif" font-size="11.00">cof_checked</text>
<polygon fill="none" stroke="black" points="432.5,-57 432.5,-79 515.5,-79 515.5,-57 432.5,-57"/>
<text text-anchor="start" x="435.5" y="-65.2" font-family="Helvetica,sans-Serif" font-size="11.00">bpchar[1]</text>
<polygon fill="#ffffff" stroke="transparent" points="282.5,-39 282.5,-57 515.5,-57 515.5,-39 282.5,-39"/>
<polygon fill="none" stroke="black" points="282.5,-39 282.5,-57 515.5,-57 515.5,-39 282.5,-39"/>
<polygon fill="#ffffff" stroke="transparent" points="283.5,-40 283.5,-56 348.5,-56 348.5,-40 283.5,-40"/>
<text text-anchor="start" x="285.5" y="-45.2" font-family="Helvetica,sans-Serif" font-size="11.00">&lt; 2</text>
<polygon fill="#ffffff" stroke="transparent" points="348.5,-40 348.5,-56 450.5,-56 450.5,-40 348.5,-40"/>
<text text-anchor="start" x="372.5" y="-45.2" font-family="Helvetica,sans-Serif" font-size="11.00">1.223 rows</text>
<polygon fill="#ffffff" stroke="transparent" points="450.5,-40 450.5,-56 514.5,-56 514.5,-40 450.5,-40"/>
<text text-anchor="start" x="496.5" y="-45.2" font-family="Helvetica,sans-Serif" font-size="11.00">0 &gt;</text>
<polygon fill="black" stroke="black" points="348.5,-40 348.5,-56 348.5,-56 348.5,-40 348.5,-40"/>
<polygon fill="black" stroke="black" points="450.5,-40 450.5,-56 450.5,-56 450.5,-40 450.5,-40"/>
<polygon fill="none" stroke="black" stroke-width="2" points="281,-38 281,-432 516,-432 516,-38 281,-38"/>
</a>
</g>
</g>
<!-- ad_language -->
<g id="node2" class="node">
<title>ad_language</title>
<g id="a_node2"><a xlink:href="../../tables/ad_language.html" xlink:title="ad_language" target="_top">
<polygon fill="#ffffff" stroke="transparent" points="43,-103 43,-293 196,-293 196,-103 43,-103"/>
<polygon fill="#f5f5f5" stroke="transparent" points="43.5,-271 43.5,-293 196.5,-293 196.5,-271 43.5,-271"/>
<polygon fill="none" stroke="black" points="43.5,-271 43.5,-293 196.5,-293 196.5,-271 43.5,-271"/>
<text text-anchor="start" x="48.5" y="-280.2" font-family="Helvetica,sans-Serif" font-weight="bold" font-size="11.00">ad_language</text>
<text text-anchor="start" x="161.5" y="-279.2" font-family="Helvetica,sans-Serif" font-size="11.00">[table]</text>
<polygon fill="none" stroke="black" points="43.5,-249 43.5,-271 196.5,-271 196.5,-249 43.5,-249"/>
<image xlink:href="../../images/primaryKeys.png" width="11px" height="12px" preserveAspectRatio="xMinYMin meet" x="48.5" y="-266"/>
<text text-anchor="start" x="63.5" y="-257.2" font-family="Helvetica,sans-Serif" font-size="11.00">ad_language</text>
<polygon fill="none" stroke="black" points="43.5,-227 43.5,-249 196.5,-249 196.5,-227 43.5,-227"/>
<image xlink:href="../../images/foreignKeys.png" width="11px" height="12px" preserveAspectRatio="xMinYMin meet" x="48.5" y="-244"/>
<text text-anchor="start" x="63.5" y="-235.2" font-family="Helvetica,sans-Serif" font-size="11.00">ad_client_id</text>
<polygon fill="none" stroke="black" points="43.5,-205 43.5,-227 196.5,-227 196.5,-205 43.5,-205"/>
<image xlink:href="../../images/foreignKeys.png" width="11px" height="12px" preserveAspectRatio="xMinYMin meet" x="48.5" y="-222"/>
<text text-anchor="start" x="63.5" y="-213.2" font-family="Helvetica,sans-Serif" font-size="11.00">ad_org_id</text>
<polygon fill="#ffffff" stroke="transparent" points="43.5,-183 43.5,-205 196.5,-205 196.5,-183 43.5,-183"/>
<polygon fill="none" stroke="black" points="43.5,-183 43.5,-205 196.5,-205 196.5,-183 43.5,-183"/>
<text text-anchor="start" x="63.5" y="-191.2" font-family="Helvetica,sans-Serif" font-size="11.00">ad_language_id</text>
<polygon fill="#ffffff" stroke="transparent" points="43.5,-161 43.5,-183 196.5,-183 196.5,-161 43.5,-161"/>
<polygon fill="none" stroke="black" points="43.5,-161 43.5,-183 196.5,-183 196.5,-161 43.5,-161"/>
<text text-anchor="start" x="63.5" y="-169.2" font-family="Helvetica,sans-Serif" font-size="11.00">ad_language_uu</text>
<polygon fill="none" stroke="black" points="43.5,-139 43.5,-161 196.5,-161 196.5,-139 43.5,-139"/>
<image xlink:href="../../images/foreignKeys.png" width="11px" height="12px" preserveAspectRatio="xMinYMin meet" x="48.5" y="-156"/>
<text text-anchor="start" x="63.5" y="-147.2" font-family="Helvetica,sans-Serif" font-size="11.00">ad_printpaper_id</text>
<polygon fill="none" stroke="black" points="43.5,-121 43.5,-139 196.5,-139 196.5,-121 43.5,-121"/>
<text text-anchor="start" x="46.5" y="-127.2" font-family="Helvetica,sans-Serif" font-size="11.00">...</text>
<polygon fill="#ffffff" stroke="transparent" points="43.5,-103 43.5,-121 196.5,-121 196.5,-103 43.5,-103"/>
<polygon fill="none" stroke="black" points="43.5,-103 43.5,-121 196.5,-121 196.5,-103 43.5,-103"/>
<polygon fill="#ffffff" stroke="transparent" points="44.5,-104 44.5,-120 83.5,-120 83.5,-104 44.5,-104"/>
<text text-anchor="start" x="46.5" y="-109.2" font-family="Helvetica,sans-Serif" font-size="11.00">&lt; 3</text>
<polygon fill="#ffffff" stroke="transparent" points="83.5,-104 83.5,-120 151.5,-120 151.5,-104 83.5,-104"/>
<text text-anchor="start" x="95" y="-109.2" font-family="Helvetica,sans-Serif" font-size="11.00">109 rows</text>
<polygon fill="#ffffff" stroke="transparent" points="151.5,-104 151.5,-120 195.5,-120 195.5,-104 151.5,-104"/>
<text text-anchor="start" x="171.5" y="-109.2" font-family="Helvetica,sans-Serif" font-size="11.00">88 &gt;</text>
<polygon fill="black" stroke="black" points="83.5,-104 83.5,-120 83.5,-120 83.5,-104 83.5,-104"/>
<polygon fill="black" stroke="black" points="151.5,-104 151.5,-120 151.5,-120 151.5,-104 151.5,-104"/>
</a>
</g>
</g>
<!-- ad_window_trl&#45;&gt;ad_language -->
<g id="edge1" class="edge">
<title>ad_window_trl:w&#45;&gt;ad_language:e</title>
<path fill="none" stroke="black" d="M267.17,-372.83C248.86,-362.46 257.67,-328.83 239,-304 222.85,-282.51 224.38,-260 197.5,-260"/>
<polygon fill="black" stroke="black" points="273.69,-374.27 280.72,-379.51 277.59,-375.14 281.5,-376 281.5,-376 281.5,-376 277.59,-375.14 282.28,-372.49 273.69,-374.27 273.69,-374.27"/>
<ellipse fill="none" stroke="black" cx="270.56" cy="-373.58" rx="3.2" ry="3.2"/>
</g>
<!-- ad_window -->
<g id="node3" class="node">
<title>ad_window</title>
<g id="a_node3"><a xlink:href="../../tables/ad_window.html" xlink:title="ad_window" target="_top">
<polygon fill="#ffffff" stroke="transparent" points="8,-314 8,-548 231,-548 231,-314 8,-314"/>
<polygon fill="#f5f5f5" stroke="transparent" points="8.5,-526 8.5,-548 231.5,-548 231.5,-526 8.5,-526"/>
<polygon fill="none" stroke="black" points="8.5,-526 8.5,-548 231.5,-548 231.5,-526 8.5,-526"/>
<text text-anchor="start" x="13.5" y="-535.2" font-family="Helvetica,sans-Serif" font-weight="bold" font-size="11.00">ad_window</text>
<text text-anchor="start" x="196.5" y="-534.2" font-family="Helvetica,sans-Serif" font-size="11.00">[table]</text>
<polygon fill="none" stroke="black" points="8.5,-504 8.5,-526 231.5,-526 231.5,-504 8.5,-504"/>
<image xlink:href="../../images/primaryKeys.png" width="11px" height="12px" preserveAspectRatio="xMinYMin meet" x="13.5" y="-521"/>
<text text-anchor="start" x="28.5" y="-512.2" font-family="Helvetica,sans-Serif" font-size="11.00">ad_window_id</text>
<polygon fill="#ffffff" stroke="transparent" points="8.5,-482 8.5,-504 231.5,-504 231.5,-482 8.5,-482"/>
<polygon fill="none" stroke="black" points="8.5,-482 8.5,-504 231.5,-504 231.5,-482 8.5,-482"/>
<image xlink:href="../../images/foreignKeys.png" width="11px" height="12px" preserveAspectRatio="xMinYMin meet" x="13.5" y="-499"/>
<text text-anchor="start" x="28.5" y="-490.2" font-family="Helvetica,sans-Serif" font-size="11.00">ad_client_id</text>
<polygon fill="none" stroke="black" points="8.5,-460 8.5,-482 231.5,-482 231.5,-460 8.5,-460"/>
<image xlink:href="../../images/foreignKeys.png" width="11px" height="12px" preserveAspectRatio="xMinYMin meet" x="13.5" y="-477"/>
<text text-anchor="start" x="28.5" y="-468.2" font-family="Helvetica,sans-Serif" font-size="11.00">ad_org_id</text>
<polygon fill="#ffffff" stroke="transparent" points="8.5,-438 8.5,-460 231.5,-460 231.5,-438 8.5,-438"/>
<polygon fill="none" stroke="black" points="8.5,-438 8.5,-460 231.5,-460 231.5,-438 8.5,-438"/>
<text text-anchor="start" x="28.5" y="-446.2" font-family="Helvetica,sans-Serif" font-size="11.00">name</text>
<polygon fill="none" stroke="black" points="8.5,-416 8.5,-438 231.5,-438 231.5,-416 8.5,-416"/>
<image xlink:href="../../images/foreignKeys.png" width="11px" height="12px" preserveAspectRatio="xMinYMin meet" x="13.5" y="-433"/>
<text text-anchor="start" x="28.5" y="-424.2" font-family="Helvetica,sans-Serif" font-size="11.00">entitytype</text>
<polygon fill="none" stroke="black" points="8.5,-394 8.5,-416 231.5,-416 231.5,-394 8.5,-394"/>
<image xlink:href="../../images/foreignKeys.png" width="11px" height="12px" preserveAspectRatio="xMinYMin meet" x="13.5" y="-411"/>
<text text-anchor="start" x="28.5" y="-402.2" font-family="Helvetica,sans-Serif" font-size="11.00">ad_image_id</text>
<polygon fill="none" stroke="black" points="8.5,-372 8.5,-394 231.5,-394 231.5,-372 8.5,-372"/>
<image xlink:href="../../images/foreignKeys.png" width="11px" height="12px" preserveAspectRatio="xMinYMin meet" x="13.5" y="-389"/>
<text text-anchor="start" x="28.5" y="-380.2" font-family="Helvetica,sans-Serif" font-size="11.00">ad_color_id</text>
<polygon fill="#ffffff" stroke="transparent" points="8.5,-350 8.5,-372 231.5,-372 231.5,-350 8.5,-350"/>
<polygon fill="none" stroke="black" points="8.5,-350 8.5,-372 231.5,-372 231.5,-350 8.5,-350"/>
<text text-anchor="start" x="28.5" y="-358.2" font-family="Helvetica,sans-Serif" font-size="11.00">ad_window_uu</text>
<polygon fill="none" stroke="black" points="8.5,-332 8.5,-350 231.5,-350 231.5,-332 8.5,-332"/>
<text text-anchor="start" x="11.5" y="-338.2" font-family="Helvetica,sans-Serif" font-size="11.00">...</text>
<polygon fill="#ffffff" stroke="transparent" points="8.5,-314 8.5,-332 231.5,-332 231.5,-314 8.5,-314"/>
<polygon fill="none" stroke="black" points="8.5,-314 8.5,-332 231.5,-332 231.5,-314 8.5,-314"/>
<polygon fill="#ffffff" stroke="transparent" points="9.5,-315 9.5,-331 71.5,-331 71.5,-315 9.5,-315"/>
<text text-anchor="start" x="11.5" y="-320.2" font-family="Helvetica,sans-Serif" font-size="11.00">&lt; 5</text>
<polygon fill="#ffffff" stroke="transparent" points="71.5,-315 71.5,-331 162.5,-331 162.5,-315 71.5,-315"/>
<text text-anchor="start" x="94.5" y="-320.2" font-family="Helvetica,sans-Serif" font-size="11.00">606 rows</text>
<polygon fill="#ffffff" stroke="transparent" points="162.5,-315 162.5,-331 230.5,-331 230.5,-315 162.5,-315"/>
<text text-anchor="start" x="206.5" y="-320.2" font-family="Helvetica,sans-Serif" font-size="11.00">32 &gt;</text>
<polygon fill="black" stroke="black" points="71.5,-315 71.5,-331 71.5,-331 71.5,-315 71.5,-315"/>
<polygon fill="black" stroke="black" points="162.5,-315 162.5,-331 162.5,-331 162.5,-315 162.5,-315"/>
</a>
</g>
</g>
<!-- ad_window_trl&#45;&gt;ad_window -->
<g id="edge2" class="edge">
<title>ad_window_trl:w&#45;&gt;ad_window:e</title>
<path fill="none" stroke="black" d="M267.39,-401.63C237.24,-421.38 282.93,-515 232.5,-515"/>
<polygon fill="black" stroke="black" points="273.75,-399.99 282.4,-401.49 277.63,-399 281.5,-398 281.5,-398 281.5,-398 277.63,-399 280.6,-394.51 273.75,-399.99 273.75,-399.99"/>
<ellipse fill="none" stroke="black" cx="270.65" cy="-400.79" rx="3.2" ry="3.2"/>
</g>
</g>
</svg>
