<?xml version="1.0" encoding="UTF-8" standalone="no"?>
<!DOCTYPE svg PUBLIC "-//W3C//DTD SVG 1.1//EN"
 "http://www.w3.org/Graphics/SVG/1.1/DTD/svg11.dtd">
<!-- Generated by graphviz version 2.43.0 (0)
 -->
<!-- Title: oneDegreeRelationshipsDiagram Pages: 1 -->
<svg width="617pt" height="445pt"
 viewBox="0.00 0.00 617.00 445.00" xmlns="http://www.w3.org/2000/svg" xmlns:xlink="http://www.w3.org/1999/xlink">
<g id="graph0" class="graph" transform="scale(1 1) rotate(0) translate(4 441)">
<title>oneDegreeRelationshipsDiagram</title>
<polygon fill="#ffffff" stroke="transparent" points="-4,4 -4,-441 613,-441 613,4 -4,4"/>
<text text-anchor="middle" x="71.5" y="-7.2" font-family="Helvetica,sans-Serif" font-size="11.00">Generated by SchemaSpy</text>
<!-- ad_workflowprocessorlog -->
<g id="node1" class="node">
<title>ad_workflowprocessorlog</title>
<g id="a_node1"><a xlink:href="../../tables/ad_workflowprocessorlog.html" xlink:title="ad_workflowprocessorlog" target="_top">
<polygon fill="#ffffff" stroke="transparent" points="266,-37 266,-433 601,-433 601,-37 266,-37"/>
<polygon fill="#f5f5f5" stroke="transparent" points="268.5,-409 268.5,-431 599.5,-431 599.5,-409 268.5,-409"/>
<polygon fill="none" stroke="black" points="268.5,-409 268.5,-431 599.5,-431 599.5,-409 268.5,-409"/>
<text text-anchor="start" x="273.5" y="-418.2" font-family="Helvetica,sans-Serif" font-weight="bold" font-size="11.00">ad_workflowprocessorlog</text>
<text text-anchor="start" x="564.5" y="-417.2" font-family="Helvetica,sans-Serif" font-size="11.00">[table]</text>
<polygon fill="none" stroke="black" points="268.5,-387 268.5,-409 500.5,-409 500.5,-387 268.5,-387"/>
<image xlink:href="../../images/primaryKeys.png" width="11px" height="12px" preserveAspectRatio="xMinYMin meet" x="273.5" y="-404"/>
<text text-anchor="start" x="288.5" y="-395.2" font-family="Helvetica,sans-Serif" font-size="11.00">ad_workflowprocessor_id</text>
<polygon fill="none" stroke="black" points="500.5,-387 500.5,-409 599.5,-409 599.5,-387 500.5,-387"/>
<text text-anchor="start" x="503.5" y="-395.2" font-family="Helvetica,sans-Serif" font-size="11.00">numeric[10]</text>
<polygon fill="none" stroke="black" points="268.5,-365 268.5,-387 500.5,-387 500.5,-365 268.5,-365"/>
<image xlink:href="../../images/primaryKeys.png" width="11px" height="12px" preserveAspectRatio="xMinYMin meet" x="273.5" y="-382"/>
<text text-anchor="start" x="288.5" y="-373.2" font-family="Helvetica,sans-Serif" font-size="11.00">ad_workflowprocessorlog_id</text>
<polygon fill="none" stroke="black" points="500.5,-365 500.5,-387 599.5,-387 599.5,-365 500.5,-365"/>
<text text-anchor="start" x="503.5" y="-373.2" font-family="Helvetica,sans-Serif" font-size="11.00">numeric[10]</text>
<polygon fill="none" stroke="black" points="268.5,-343 268.5,-365 500.5,-365 500.5,-343 268.5,-343"/>
<text text-anchor="start" x="288.5" y="-351.2" font-family="Helvetica,sans-Serif" font-size="11.00">ad_client_id</text>
<polygon fill="none" stroke="black" points="500.5,-343 500.5,-365 599.5,-365 599.5,-343 500.5,-343"/>
<text text-anchor="start" x="503.5" y="-351.2" font-family="Helvetica,sans-Serif" font-size="11.00">numeric[10]</text>
<polygon fill="none" stroke="black" points="268.5,-321 268.5,-343 500.5,-343 500.5,-321 268.5,-321"/>
<text text-anchor="start" x="288.5" y="-329.2" font-family="Helvetica,sans-Serif" font-size="11.00">ad_org_id</text>
<polygon fill="none" stroke="black" points="500.5,-321 500.5,-343 599.5,-343 599.5,-321 500.5,-321"/>
<text text-anchor="start" x="503.5" y="-329.2" font-family="Helvetica,sans-Serif" font-size="11.00">numeric[10]</text>
<polygon fill="none" stroke="black" points="268.5,-299 268.5,-321 500.5,-321 500.5,-299 268.5,-299"/>
<text text-anchor="start" x="288.5" y="-307.2" font-family="Helvetica,sans-Serif" font-size="11.00">isactive</text>
<polygon fill="none" stroke="black" points="500.5,-299 500.5,-321 599.5,-321 599.5,-299 500.5,-299"/>
<text text-anchor="start" x="503.5" y="-307.2" font-family="Helvetica,sans-Serif" font-size="11.00">bpchar[1]</text>
<polygon fill="none" stroke="black" points="268.5,-277 268.5,-299 500.5,-299 500.5,-277 268.5,-277"/>
<text text-anchor="start" x="288.5" y="-285.2" font-family="Helvetica,sans-Serif" font-size="11.00">created</text>
<polygon fill="none" stroke="black" points="500.5,-277 500.5,-299 599.5,-299 599.5,-277 500.5,-277"/>
<text text-anchor="start" x="503.5" y="-285.2" font-family="Helvetica,sans-Serif" font-size="11.00">timestamp[29,6]</text>
<polygon fill="none" stroke="black" points="268.5,-255 268.5,-277 500.5,-277 500.5,-255 268.5,-255"/>
<text text-anchor="start" x="288.5" y="-263.2" font-family="Helvetica,sans-Serif" font-size="11.00">createdby</text>
<polygon fill="none" stroke="black" points="500.5,-255 500.5,-277 599.5,-277 599.5,-255 500.5,-255"/>
<text text-anchor="start" x="503.5" y="-263.2" font-family="Helvetica,sans-Serif" font-size="11.00">numeric[10]</text>
<polygon fill="none" stroke="black" points="268.5,-233 268.5,-255 500.5,-255 500.5,-233 268.5,-233"/>
<text text-anchor="start" x="288.5" y="-241.2" font-family="Helvetica,sans-Serif" font-size="11.00">updated</text>
<polygon fill="none" stroke="black" points="500.5,-233 500.5,-255 599.5,-255 599.5,-233 500.5,-233"/>
<text text-anchor="start" x="503.5" y="-241.2" font-family="Helvetica,sans-Serif" font-size="11.00">timestamp[29,6]</text>
<polygon fill="none" stroke="black" points="268.5,-211 268.5,-233 500.5,-233 500.5,-211 268.5,-211"/>
<text text-anchor="start" x="288.5" y="-219.2" font-family="Helvetica,sans-Serif" font-size="11.00">updatedby</text>
<polygon fill="none" stroke="black" points="500.5,-211 500.5,-233 599.5,-233 599.5,-211 500.5,-211"/>
<text text-anchor="start" x="503.5" y="-219.2" font-family="Helvetica,sans-Serif" font-size="11.00">numeric[10]</text>
<polygon fill="none" stroke="black" points="268.5,-189 268.5,-211 500.5,-211 500.5,-189 268.5,-189"/>
<text text-anchor="start" x="288.5" y="-197.2" font-family="Helvetica,sans-Serif" font-size="11.00">iserror</text>
<polygon fill="none" stroke="black" points="500.5,-189 500.5,-211 599.5,-211 599.5,-189 500.5,-189"/>
<text text-anchor="start" x="503.5" y="-197.2" font-family="Helvetica,sans-Serif" font-size="11.00">bpchar[1]</text>
<polygon fill="none" stroke="black" points="268.5,-167 268.5,-189 500.5,-189 500.5,-167 268.5,-167"/>
<text text-anchor="start" x="288.5" y="-175.2" font-family="Helvetica,sans-Serif" font-size="11.00">summary</text>
<polygon fill="none" stroke="black" points="500.5,-167 500.5,-189 599.5,-189 599.5,-167 500.5,-167"/>
<text text-anchor="start" x="503.5" y="-175.2" font-family="Helvetica,sans-Serif" font-size="11.00">varchar[2000]</text>
<polygon fill="none" stroke="black" points="268.5,-145 268.5,-167 500.5,-167 500.5,-145 268.5,-145"/>
<text text-anchor="start" x="288.5" y="-153.2" font-family="Helvetica,sans-Serif" font-size="11.00">reference</text>
<polygon fill="none" stroke="black" points="500.5,-145 500.5,-167 599.5,-167 599.5,-145 500.5,-145"/>
<text text-anchor="start" x="503.5" y="-153.2" font-family="Helvetica,sans-Serif" font-size="11.00">varchar[60]</text>
<polygon fill="none" stroke="black" points="268.5,-123 268.5,-145 500.5,-145 500.5,-123 268.5,-123"/>
<text text-anchor="start" x="288.5" y="-131.2" font-family="Helvetica,sans-Serif" font-size="11.00">description</text>
<polygon fill="none" stroke="black" points="500.5,-123 500.5,-145 599.5,-145 599.5,-123 500.5,-123"/>
<text text-anchor="start" x="503.5" y="-131.2" font-family="Helvetica,sans-Serif" font-size="11.00">varchar[255]</text>
<polygon fill="none" stroke="black" points="268.5,-101 268.5,-123 500.5,-123 500.5,-101 268.5,-101"/>
<text text-anchor="start" x="288.5" y="-109.2" font-family="Helvetica,sans-Serif" font-size="11.00">textmsg</text>
<polygon fill="none" stroke="black" points="500.5,-101 500.5,-123 599.5,-123 599.5,-101 500.5,-101"/>
<text text-anchor="start" x="503.5" y="-109.2" font-family="Helvetica,sans-Serif" font-size="11.00">varchar[2000]</text>
<polygon fill="none" stroke="black" points="268.5,-79 268.5,-101 500.5,-101 500.5,-79 268.5,-79"/>
<text text-anchor="start" x="288.5" y="-87.2" font-family="Helvetica,sans-Serif" font-size="11.00">binarydata</text>
<polygon fill="none" stroke="black" points="500.5,-79 500.5,-101 599.5,-101 599.5,-79 500.5,-79"/>
<text text-anchor="start" x="503.5" y="-87.2" font-family="Helvetica,sans-Serif" font-size="11.00">bytea[2147483647]</text>
<polygon fill="#ffffff" stroke="transparent" points="268.5,-57 268.5,-79 500.5,-79 500.5,-57 268.5,-57"/>
<polygon fill="none" stroke="black" points="268.5,-57 268.5,-79 500.5,-79 500.5,-57 268.5,-57"/>
<text text-anchor="start" x="288.5" y="-65.2" font-family="Helvetica,sans-Serif" font-size="11.00">ad_workflowprocessorlog_uu</text>
<polygon fill="none" stroke="black" points="500.5,-57 500.5,-79 599.5,-79 599.5,-57 500.5,-57"/>
<text text-anchor="start" x="503.5" y="-65.2" font-family="Helvetica,sans-Serif" font-size="11.00">varchar[36]</text>
<polygon fill="#ffffff" stroke="transparent" points="268.5,-39 268.5,-57 599.5,-57 599.5,-39 268.5,-39"/>
<polygon fill="none" stroke="black" points="268.5,-39 268.5,-57 599.5,-57 599.5,-39 268.5,-39"/>
<polygon fill="#ffffff" stroke="transparent" points="269.5,-40 269.5,-56 371.5,-56 371.5,-40 269.5,-40"/>
<text text-anchor="start" x="271.5" y="-45.2" font-family="Helvetica,sans-Serif" font-size="11.00">&lt; 1</text>
<polygon fill="#ffffff" stroke="transparent" points="371.5,-40 371.5,-56 496.5,-56 496.5,-40 371.5,-40"/>
<text text-anchor="start" x="414.5" y="-45.2" font-family="Helvetica,sans-Serif" font-size="11.00">84 rows</text>
<polygon fill="#ffffff" stroke="transparent" points="496.5,-40 496.5,-56 598.5,-56 598.5,-40 496.5,-40"/>
<text text-anchor="start" x="580.5" y="-45.2" font-family="Helvetica,sans-Serif" font-size="11.00">0 &gt;</text>
<polygon fill="black" stroke="black" points="371.5,-40 371.5,-56 371.5,-56 371.5,-40 371.5,-40"/>
<polygon fill="black" stroke="black" points="496.5,-40 496.5,-56 496.5,-56 496.5,-40 496.5,-40"/>
<polygon fill="none" stroke="black" stroke-width="2" points="267,-38 267,-432 600,-432 600,-38 267,-38"/>
</a>
</g>
</g>
<!-- ad_workflowprocessor -->
<g id="node2" class="node">
<title>ad_workflowprocessor</title>
<g id="a_node2"><a xlink:href="../../tables/ad_workflowprocessor.html" xlink:title="ad_workflowprocessor" target="_top">
<polygon fill="#ffffff" stroke="transparent" points="8,-285 8,-431 217,-431 217,-285 8,-285"/>
<polygon fill="#f5f5f5" stroke="transparent" points="8.5,-409 8.5,-431 217.5,-431 217.5,-409 8.5,-409"/>
<polygon fill="none" stroke="black" points="8.5,-409 8.5,-431 217.5,-431 217.5,-409 8.5,-409"/>
<text text-anchor="start" x="13.5" y="-418.2" font-family="Helvetica,sans-Serif" font-weight="bold" font-size="11.00">ad_workflowprocessor</text>
<text text-anchor="start" x="182.5" y="-417.2" font-family="Helvetica,sans-Serif" font-size="11.00">[table]</text>
<polygon fill="none" stroke="black" points="8.5,-387 8.5,-409 217.5,-409 217.5,-387 8.5,-387"/>
<image xlink:href="../../images/primaryKeys.png" width="11px" height="12px" preserveAspectRatio="xMinYMin meet" x="13.5" y="-404"/>
<text text-anchor="start" x="28.5" y="-395.2" font-family="Helvetica,sans-Serif" font-size="11.00">ad_workflowprocessor_id</text>
<polygon fill="none" stroke="black" points="8.5,-365 8.5,-387 217.5,-387 217.5,-365 8.5,-365"/>
<image xlink:href="../../images/foreignKeys.png" width="11px" height="12px" preserveAspectRatio="xMinYMin meet" x="13.5" y="-382"/>
<text text-anchor="start" x="28.5" y="-373.2" font-family="Helvetica,sans-Serif" font-size="11.00">supervisor_id</text>
<polygon fill="#ffffff" stroke="transparent" points="8.5,-343 8.5,-365 217.5,-365 217.5,-343 8.5,-343"/>
<polygon fill="none" stroke="black" points="8.5,-343 8.5,-365 217.5,-365 217.5,-343 8.5,-343"/>
<text text-anchor="start" x="28.5" y="-351.2" font-family="Helvetica,sans-Serif" font-size="11.00">ad_workflowprocessor_uu</text>
<polygon fill="none" stroke="black" points="8.5,-321 8.5,-343 217.5,-343 217.5,-321 8.5,-321"/>
<image xlink:href="../../images/foreignKeys.png" width="11px" height="12px" preserveAspectRatio="xMinYMin meet" x="13.5" y="-338"/>
<text text-anchor="start" x="28.5" y="-329.2" font-family="Helvetica,sans-Serif" font-size="11.00">ad_schedule_id</text>
<polygon fill="none" stroke="black" points="8.5,-303 8.5,-321 217.5,-321 217.5,-303 8.5,-303"/>
<text text-anchor="start" x="11.5" y="-309.2" font-family="Helvetica,sans-Serif" font-size="11.00">...</text>
<polygon fill="#ffffff" stroke="transparent" points="8.5,-285 8.5,-303 217.5,-303 217.5,-285 8.5,-285"/>
<polygon fill="none" stroke="black" points="8.5,-285 8.5,-303 217.5,-303 217.5,-285 8.5,-285"/>
<polygon fill="#ffffff" stroke="transparent" points="9.5,-286 9.5,-302 74.5,-302 74.5,-286 9.5,-286"/>
<text text-anchor="start" x="11.5" y="-291.2" font-family="Helvetica,sans-Serif" font-size="11.00">&lt; 2</text>
<polygon fill="#ffffff" stroke="transparent" points="74.5,-286 74.5,-302 151.5,-302 151.5,-286 74.5,-286"/>
<text text-anchor="start" x="99" y="-291.2" font-family="Helvetica,sans-Serif" font-size="11.00">1 row</text>
<polygon fill="#ffffff" stroke="transparent" points="151.5,-286 151.5,-302 216.5,-302 216.5,-286 151.5,-286"/>
<text text-anchor="start" x="198.5" y="-291.2" font-family="Helvetica,sans-Serif" font-size="11.00">3 &gt;</text>
<polygon fill="black" stroke="black" points="74.5,-286 74.5,-302 74.5,-302 74.5,-286 74.5,-286"/>
<polygon fill="black" stroke="black" points="151.5,-286 151.5,-302 151.5,-302 151.5,-286 151.5,-286"/>
</a>
</g>
</g>
<!-- ad_workflowprocessorlog&#45;&gt;ad_workflowprocessor -->
<g id="edge1" class="edge">
<title>ad_workflowprocessorlog:w&#45;&gt;ad_workflowprocessor:e</title>
<path fill="none" stroke="black" d="M252.99,-398C241.68,-398 234.49,-398 218.5,-398"/>
<polygon fill="black" stroke="black" points="259.5,-398 267.5,-401.6 263.5,-398 267.5,-398 267.5,-398 267.5,-398 263.5,-398 267.5,-394.4 259.5,-398 259.5,-398"/>
<ellipse fill="none" stroke="black" cx="256.3" cy="-398" rx="3.2" ry="3.2"/>
</g>
</g>
</svg>
