<?xml version="1.0" encoding="UTF-8" standalone="no"?>
<!DOCTYPE svg PUBLIC "-//W3C//DTD SVG 1.1//EN"
 "http://www.w3.org/Graphics/SVG/1.1/DTD/svg11.dtd">
<!-- Generated by graphviz version 2.43.0 (0)
 -->
<!-- Title: oneDegreeRelationshipsDiagram Pages: 1 -->
<svg width="695pt" height="444pt"
 viewBox="0.00 0.00 695.00 444.00" xmlns="http://www.w3.org/2000/svg" xmlns:xlink="http://www.w3.org/1999/xlink">
<g id="graph0" class="graph" transform="scale(1 1) rotate(0) translate(4 440)">
<title>oneDegreeRelationshipsDiagram</title>
<polygon fill="#ffffff" stroke="transparent" points="-4,4 -4,-440 691,-440 691,4 -4,4"/>
<text text-anchor="middle" x="71.5" y="-7.2" font-family="Helvetica,sans-Serif" font-size="11.00">Generated by SchemaSpy</text>
<!-- asp_tab -->
<g id="node1" class="node">
<title>asp_tab</title>
<g id="a_node1"><a xlink:href="../../tables/asp_tab.html" xlink:title="asp_tab" target="_top">
<polygon fill="#ffffff" stroke="transparent" points="550,-37 550,-183 679,-183 679,-37 550,-37"/>
<polygon fill="#f5f5f5" stroke="transparent" points="550.5,-161 550.5,-183 679.5,-183 679.5,-161 550.5,-161"/>
<polygon fill="none" stroke="black" points="550.5,-161 550.5,-183 679.5,-183 679.5,-161 550.5,-161"/>
<text text-anchor="start" x="555.5" y="-170.2" font-family="Helvetica,sans-Serif" font-weight="bold" font-size="11.00">asp_tab</text>
<text text-anchor="start" x="644.5" y="-169.2" font-family="Helvetica,sans-Serif" font-size="11.00">[table]</text>
<polygon fill="#ffffff" stroke="transparent" points="550.5,-139 550.5,-161 679.5,-161 679.5,-139 550.5,-139"/>
<polygon fill="none" stroke="black" points="550.5,-139 550.5,-161 679.5,-161 679.5,-139 550.5,-139"/>
<image xlink:href="../../images/foreignKeys.png" width="11px" height="12px" preserveAspectRatio="xMinYMin meet" x="555.5" y="-156"/>
<text text-anchor="start" x="570.5" y="-147.2" font-family="Helvetica,sans-Serif" font-size="11.00">ad_tab_id</text>
<polygon fill="none" stroke="black" points="550.5,-117 550.5,-139 679.5,-139 679.5,-117 550.5,-117"/>
<image xlink:href="../../images/primaryKeys.png" width="11px" height="12px" preserveAspectRatio="xMinYMin meet" x="555.5" y="-134"/>
<text text-anchor="start" x="570.5" y="-125.2" font-family="Helvetica,sans-Serif" font-size="11.00">asp_tab_id</text>
<polygon fill="#ffffff" stroke="transparent" points="550.5,-95 550.5,-117 679.5,-117 679.5,-95 550.5,-95"/>
<polygon fill="none" stroke="black" points="550.5,-95 550.5,-117 679.5,-117 679.5,-95 550.5,-95"/>
<image xlink:href="../../images/foreignKeys.png" width="11px" height="12px" preserveAspectRatio="xMinYMin meet" x="555.5" y="-112"/>
<text text-anchor="start" x="570.5" y="-103.2" font-family="Helvetica,sans-Serif" font-size="11.00">asp_window_id</text>
<polygon fill="#ffffff" stroke="transparent" points="550.5,-73 550.5,-95 679.5,-95 679.5,-73 550.5,-73"/>
<polygon fill="none" stroke="black" points="550.5,-73 550.5,-95 679.5,-95 679.5,-73 550.5,-73"/>
<text text-anchor="start" x="570.5" y="-81.2" font-family="Helvetica,sans-Serif" font-size="11.00">asp_tab_uu</text>
<polygon fill="none" stroke="black" points="550.5,-55 550.5,-73 679.5,-73 679.5,-55 550.5,-55"/>
<text text-anchor="start" x="553.5" y="-61.2" font-family="Helvetica,sans-Serif" font-size="11.00">...</text>
<polygon fill="#ffffff" stroke="transparent" points="550.5,-37 550.5,-55 679.5,-55 679.5,-37 550.5,-37"/>
<polygon fill="none" stroke="black" points="550.5,-37 550.5,-55 679.5,-55 679.5,-37 550.5,-37"/>
<polygon fill="#ffffff" stroke="transparent" points="551.5,-38 551.5,-54 597.5,-54 597.5,-38 551.5,-38"/>
<text text-anchor="start" x="553.5" y="-43.2" font-family="Helvetica,sans-Serif" font-size="11.00">&lt; 2</text>
<polygon fill="#ffffff" stroke="transparent" points="597.5,-38 597.5,-54 633.5,-54 633.5,-38 597.5,-38"/>
<text text-anchor="start" x="612" y="-43.2" font-family="Helvetica,sans-Serif" font-size="11.00"> &#160;</text>
<polygon fill="#ffffff" stroke="transparent" points="633.5,-38 633.5,-54 678.5,-54 678.5,-38 633.5,-38"/>
<text text-anchor="start" x="660.5" y="-43.2" font-family="Helvetica,sans-Serif" font-size="11.00">1 &gt;</text>
<polygon fill="black" stroke="black" points="597.5,-38 597.5,-54 597.5,-54 597.5,-38 597.5,-38"/>
<polygon fill="black" stroke="black" points="633.5,-38 633.5,-54 633.5,-54 633.5,-38 633.5,-38"/>
</a>
</g>
</g>
<!-- asp_window -->
<g id="node2" class="node">
<title>asp_window</title>
<g id="a_node2"><a xlink:href="../../tables/asp_window.html" xlink:title="asp_window" target="_top">
<polygon fill="#ffffff" stroke="transparent" points="280,-53 280,-361 501,-361 501,-53 280,-53"/>
<polygon fill="#f5f5f5" stroke="transparent" points="282.5,-337 282.5,-359 499.5,-359 499.5,-337 282.5,-337"/>
<polygon fill="none" stroke="black" points="282.5,-337 282.5,-359 499.5,-359 499.5,-337 282.5,-337"/>
<text text-anchor="start" x="287.5" y="-346.2" font-family="Helvetica,sans-Serif" font-weight="bold" font-size="11.00">asp_window</text>
<text text-anchor="start" x="464.5" y="-345.2" font-family="Helvetica,sans-Serif" font-size="11.00">[table]</text>
<polygon fill="none" stroke="black" points="282.5,-315 282.5,-337 416.5,-337 416.5,-315 282.5,-315"/>
<text text-anchor="start" x="302.5" y="-323.2" font-family="Helvetica,sans-Serif" font-size="11.00">ad_client_id</text>
<polygon fill="none" stroke="black" points="416.5,-315 416.5,-337 499.5,-337 499.5,-315 416.5,-315"/>
<text text-anchor="start" x="419.5" y="-323.2" font-family="Helvetica,sans-Serif" font-size="11.00">numeric[10]</text>
<polygon fill="none" stroke="black" points="282.5,-293 282.5,-315 416.5,-315 416.5,-293 282.5,-293"/>
<text text-anchor="start" x="302.5" y="-301.2" font-family="Helvetica,sans-Serif" font-size="11.00">ad_org_id</text>
<polygon fill="none" stroke="black" points="416.5,-293 416.5,-315 499.5,-315 499.5,-293 416.5,-293"/>
<text text-anchor="start" x="419.5" y="-301.2" font-family="Helvetica,sans-Serif" font-size="11.00">numeric[10]</text>
<polygon fill="#ffffff" stroke="transparent" points="282.5,-271 282.5,-293 416.5,-293 416.5,-271 282.5,-271"/>
<polygon fill="none" stroke="black" points="282.5,-271 282.5,-293 416.5,-293 416.5,-271 282.5,-271"/>
<image xlink:href="../../images/foreignKeys.png" width="11px" height="12px" preserveAspectRatio="xMinYMin meet" x="287.5" y="-288"/>
<text text-anchor="start" x="302.5" y="-279.2" font-family="Helvetica,sans-Serif" font-size="11.00">ad_window_id</text>
<polygon fill="none" stroke="black" points="416.5,-271 416.5,-293 499.5,-293 499.5,-271 416.5,-271"/>
<text text-anchor="start" x="419.5" y="-279.2" font-family="Helvetica,sans-Serif" font-size="11.00">numeric[10]</text>
<polygon fill="#ffffff" stroke="transparent" points="282.5,-249 282.5,-271 416.5,-271 416.5,-249 282.5,-249"/>
<polygon fill="none" stroke="black" points="282.5,-249 282.5,-271 416.5,-271 416.5,-249 282.5,-249"/>
<image xlink:href="../../images/foreignKeys.png" width="11px" height="12px" preserveAspectRatio="xMinYMin meet" x="287.5" y="-266"/>
<text text-anchor="start" x="302.5" y="-257.2" font-family="Helvetica,sans-Serif" font-size="11.00">asp_level_id</text>
<polygon fill="none" stroke="black" points="416.5,-249 416.5,-271 499.5,-271 499.5,-249 416.5,-249"/>
<text text-anchor="start" x="419.5" y="-257.2" font-family="Helvetica,sans-Serif" font-size="11.00">numeric[10]</text>
<polygon fill="none" stroke="black" points="282.5,-227 282.5,-249 416.5,-249 416.5,-227 282.5,-227"/>
<text text-anchor="start" x="302.5" y="-235.2" font-family="Helvetica,sans-Serif" font-size="11.00">asp_status</text>
<polygon fill="none" stroke="black" points="416.5,-227 416.5,-249 499.5,-249 499.5,-227 416.5,-227"/>
<text text-anchor="start" x="419.5" y="-235.2" font-family="Helvetica,sans-Serif" font-size="11.00">bpchar[1]</text>
<polygon fill="none" stroke="black" points="282.5,-205 282.5,-227 416.5,-227 416.5,-205 282.5,-205"/>
<text text-anchor="start" x="302.5" y="-213.2" font-family="Helvetica,sans-Serif" font-size="11.00">created</text>
<polygon fill="none" stroke="black" points="416.5,-205 416.5,-227 499.5,-227 499.5,-205 416.5,-205"/>
<text text-anchor="start" x="419.5" y="-213.2" font-family="Helvetica,sans-Serif" font-size="11.00">timestamp[29,6]</text>
<polygon fill="none" stroke="black" points="282.5,-183 282.5,-205 416.5,-205 416.5,-183 282.5,-183"/>
<text text-anchor="start" x="302.5" y="-191.2" font-family="Helvetica,sans-Serif" font-size="11.00">createdby</text>
<polygon fill="none" stroke="black" points="416.5,-183 416.5,-205 499.5,-205 499.5,-183 416.5,-183"/>
<text text-anchor="start" x="419.5" y="-191.2" font-family="Helvetica,sans-Serif" font-size="11.00">numeric[10]</text>
<polygon fill="none" stroke="black" points="282.5,-161 282.5,-183 416.5,-183 416.5,-161 282.5,-161"/>
<text text-anchor="start" x="302.5" y="-169.2" font-family="Helvetica,sans-Serif" font-size="11.00">isactive</text>
<polygon fill="none" stroke="black" points="416.5,-161 416.5,-183 499.5,-183 499.5,-161 416.5,-161"/>
<text text-anchor="start" x="419.5" y="-169.2" font-family="Helvetica,sans-Serif" font-size="11.00">bpchar[1]</text>
<polygon fill="none" stroke="black" points="282.5,-139 282.5,-161 416.5,-161 416.5,-139 282.5,-139"/>
<text text-anchor="start" x="302.5" y="-147.2" font-family="Helvetica,sans-Serif" font-size="11.00">updated</text>
<polygon fill="none" stroke="black" points="416.5,-139 416.5,-161 499.5,-161 499.5,-139 416.5,-139"/>
<text text-anchor="start" x="419.5" y="-147.2" font-family="Helvetica,sans-Serif" font-size="11.00">timestamp[29,6]</text>
<polygon fill="none" stroke="black" points="282.5,-117 282.5,-139 416.5,-139 416.5,-117 282.5,-117"/>
<text text-anchor="start" x="302.5" y="-125.2" font-family="Helvetica,sans-Serif" font-size="11.00">updatedby</text>
<polygon fill="none" stroke="black" points="416.5,-117 416.5,-139 499.5,-139 499.5,-117 416.5,-117"/>
<text text-anchor="start" x="419.5" y="-125.2" font-family="Helvetica,sans-Serif" font-size="11.00">numeric[10]</text>
<polygon fill="none" stroke="black" points="282.5,-95 282.5,-117 416.5,-117 416.5,-95 282.5,-95"/>
<image xlink:href="../../images/primaryKeys.png" width="11px" height="12px" preserveAspectRatio="xMinYMin meet" x="287.5" y="-112"/>
<text text-anchor="start" x="302.5" y="-103.2" font-family="Helvetica,sans-Serif" font-size="11.00">asp_window_id</text>
<polygon fill="none" stroke="black" points="416.5,-95 416.5,-117 499.5,-117 499.5,-95 416.5,-95"/>
<text text-anchor="start" x="419.5" y="-103.2" font-family="Helvetica,sans-Serif" font-size="11.00">numeric[10]</text>
<polygon fill="#ffffff" stroke="transparent" points="282.5,-73 282.5,-95 416.5,-95 416.5,-73 282.5,-73"/>
<polygon fill="none" stroke="black" points="282.5,-73 282.5,-95 416.5,-95 416.5,-73 282.5,-73"/>
<text text-anchor="start" x="302.5" y="-81.2" font-family="Helvetica,sans-Serif" font-size="11.00">asp_window_uu</text>
<polygon fill="none" stroke="black" points="416.5,-73 416.5,-95 499.5,-95 499.5,-73 416.5,-73"/>
<text text-anchor="start" x="419.5" y="-81.2" font-family="Helvetica,sans-Serif" font-size="11.00">varchar[36]</text>
<polygon fill="#ffffff" stroke="transparent" points="282.5,-55 282.5,-73 499.5,-73 499.5,-55 282.5,-55"/>
<polygon fill="none" stroke="black" points="282.5,-55 282.5,-73 499.5,-73 499.5,-55 282.5,-55"/>
<polygon fill="#ffffff" stroke="transparent" points="283.5,-56 283.5,-72 358.5,-72 358.5,-56 283.5,-56"/>
<text text-anchor="start" x="285.5" y="-61.2" font-family="Helvetica,sans-Serif" font-size="11.00">&lt; 2</text>
<polygon fill="#ffffff" stroke="transparent" points="358.5,-56 358.5,-72 424.5,-72 424.5,-56 358.5,-56"/>
<text text-anchor="start" x="388" y="-61.2" font-family="Helvetica,sans-Serif" font-size="11.00"> &#160;</text>
<polygon fill="#ffffff" stroke="transparent" points="424.5,-56 424.5,-72 498.5,-72 498.5,-56 424.5,-56"/>
<text text-anchor="start" x="480.5" y="-61.2" font-family="Helvetica,sans-Serif" font-size="11.00">1 &gt;</text>
<polygon fill="black" stroke="black" points="358.5,-56 358.5,-72 358.5,-72 358.5,-56 358.5,-56"/>
<polygon fill="black" stroke="black" points="424.5,-56 424.5,-72 424.5,-72 424.5,-56 424.5,-56"/>
<polygon fill="none" stroke="black" stroke-width="2" points="281,-54 281,-360 500,-360 500,-54 281,-54"/>
</a>
</g>
</g>
<!-- asp_tab&#45;&gt;asp_window -->
<g id="edge1" class="edge">
<title>asp_tab:w&#45;&gt;asp_window:e</title>
<path fill="none" stroke="black" d="M534.99,-106C523.68,-106 516.49,-106 500.5,-106"/>
<polygon fill="black" stroke="black" points="541.5,-106 549.5,-109.6 545.5,-106 549.5,-106 549.5,-106 549.5,-106 545.5,-106 549.5,-102.4 541.5,-106 541.5,-106"/>
<ellipse fill="none" stroke="black" cx="538.3" cy="-106" rx="3.2" ry="3.2"/>
</g>
<!-- ad_window -->
<g id="node3" class="node">
<title>ad_window</title>
<g id="a_node3"><a xlink:href="../../tables/ad_window.html" xlink:title="ad_window" target="_top">
<polygon fill="#ffffff" stroke="transparent" points="8,-198 8,-432 231,-432 231,-198 8,-198"/>
<polygon fill="#f5f5f5" stroke="transparent" points="8.5,-410 8.5,-432 231.5,-432 231.5,-410 8.5,-410"/>
<polygon fill="none" stroke="black" points="8.5,-410 8.5,-432 231.5,-432 231.5,-410 8.5,-410"/>
<text text-anchor="start" x="13.5" y="-419.2" font-family="Helvetica,sans-Serif" font-weight="bold" font-size="11.00">ad_window</text>
<text text-anchor="start" x="196.5" y="-418.2" font-family="Helvetica,sans-Serif" font-size="11.00">[table]</text>
<polygon fill="none" stroke="black" points="8.5,-388 8.5,-410 231.5,-410 231.5,-388 8.5,-388"/>
<image xlink:href="../../images/primaryKeys.png" width="11px" height="12px" preserveAspectRatio="xMinYMin meet" x="13.5" y="-405"/>
<text text-anchor="start" x="28.5" y="-396.2" font-family="Helvetica,sans-Serif" font-size="11.00">ad_window_id</text>
<polygon fill="#ffffff" stroke="transparent" points="8.5,-366 8.5,-388 231.5,-388 231.5,-366 8.5,-366"/>
<polygon fill="none" stroke="black" points="8.5,-366 8.5,-388 231.5,-388 231.5,-366 8.5,-366"/>
<image xlink:href="../../images/foreignKeys.png" width="11px" height="12px" preserveAspectRatio="xMinYMin meet" x="13.5" y="-383"/>
<text text-anchor="start" x="28.5" y="-374.2" font-family="Helvetica,sans-Serif" font-size="11.00">ad_client_id</text>
<polygon fill="none" stroke="black" points="8.5,-344 8.5,-366 231.5,-366 231.5,-344 8.5,-344"/>
<image xlink:href="../../images/foreignKeys.png" width="11px" height="12px" preserveAspectRatio="xMinYMin meet" x="13.5" y="-361"/>
<text text-anchor="start" x="28.5" y="-352.2" font-family="Helvetica,sans-Serif" font-size="11.00">ad_org_id</text>
<polygon fill="#ffffff" stroke="transparent" points="8.5,-322 8.5,-344 231.5,-344 231.5,-322 8.5,-322"/>
<polygon fill="none" stroke="black" points="8.5,-322 8.5,-344 231.5,-344 231.5,-322 8.5,-322"/>
<text text-anchor="start" x="28.5" y="-330.2" font-family="Helvetica,sans-Serif" font-size="11.00">name</text>
<polygon fill="none" stroke="black" points="8.5,-300 8.5,-322 231.5,-322 231.5,-300 8.5,-300"/>
<image xlink:href="../../images/foreignKeys.png" width="11px" height="12px" preserveAspectRatio="xMinYMin meet" x="13.5" y="-317"/>
<text text-anchor="start" x="28.5" y="-308.2" font-family="Helvetica,sans-Serif" font-size="11.00">entitytype</text>
<polygon fill="none" stroke="black" points="8.5,-278 8.5,-300 231.5,-300 231.5,-278 8.5,-278"/>
<image xlink:href="../../images/foreignKeys.png" width="11px" height="12px" preserveAspectRatio="xMinYMin meet" x="13.5" y="-295"/>
<text text-anchor="start" x="28.5" y="-286.2" font-family="Helvetica,sans-Serif" font-size="11.00">ad_image_id</text>
<polygon fill="none" stroke="black" points="8.5,-256 8.5,-278 231.5,-278 231.5,-256 8.5,-256"/>
<image xlink:href="../../images/foreignKeys.png" width="11px" height="12px" preserveAspectRatio="xMinYMin meet" x="13.5" y="-273"/>
<text text-anchor="start" x="28.5" y="-264.2" font-family="Helvetica,sans-Serif" font-size="11.00">ad_color_id</text>
<polygon fill="#ffffff" stroke="transparent" points="8.5,-234 8.5,-256 231.5,-256 231.5,-234 8.5,-234"/>
<polygon fill="none" stroke="black" points="8.5,-234 8.5,-256 231.5,-256 231.5,-234 8.5,-234"/>
<text text-anchor="start" x="28.5" y="-242.2" font-family="Helvetica,sans-Serif" font-size="11.00">ad_window_uu</text>
<polygon fill="none" stroke="black" points="8.5,-216 8.5,-234 231.5,-234 231.5,-216 8.5,-216"/>
<text text-anchor="start" x="11.5" y="-222.2" font-family="Helvetica,sans-Serif" font-size="11.00">...</text>
<polygon fill="#ffffff" stroke="transparent" points="8.5,-198 8.5,-216 231.5,-216 231.5,-198 8.5,-198"/>
<polygon fill="none" stroke="black" points="8.5,-198 8.5,-216 231.5,-216 231.5,-198 8.5,-198"/>
<polygon fill="#ffffff" stroke="transparent" points="9.5,-199 9.5,-215 71.5,-215 71.5,-199 9.5,-199"/>
<text text-anchor="start" x="11.5" y="-204.2" font-family="Helvetica,sans-Serif" font-size="11.00">&lt; 5</text>
<polygon fill="#ffffff" stroke="transparent" points="71.5,-199 71.5,-215 162.5,-215 162.5,-199 71.5,-199"/>
<text text-anchor="start" x="94.5" y="-204.2" font-family="Helvetica,sans-Serif" font-size="11.00">606 rows</text>
<polygon fill="#ffffff" stroke="transparent" points="162.5,-199 162.5,-215 230.5,-215 230.5,-199 162.5,-199"/>
<text text-anchor="start" x="206.5" y="-204.2" font-family="Helvetica,sans-Serif" font-size="11.00">32 &gt;</text>
<polygon fill="black" stroke="black" points="71.5,-199 71.5,-215 71.5,-215 71.5,-199 71.5,-199"/>
<polygon fill="black" stroke="black" points="162.5,-199 162.5,-215 162.5,-215 162.5,-199 162.5,-199"/>
</a>
</g>
</g>
<!-- asp_window&#45;&gt;ad_window -->
<g id="edge2" class="edge">
<title>asp_window:w&#45;&gt;ad_window:e</title>
<path fill="none" stroke="black" d="M267.39,-285.63C237.24,-305.38 282.93,-399 232.5,-399"/>
<polygon fill="black" stroke="black" points="273.75,-283.99 282.4,-285.49 277.63,-283 281.5,-282 281.5,-282 281.5,-282 277.63,-283 280.6,-278.51 273.75,-283.99 273.75,-283.99"/>
<ellipse fill="none" stroke="black" cx="270.65" cy="-284.79" rx="3.2" ry="3.2"/>
</g>
<!-- asp_level -->
<g id="node4" class="node">
<title>asp_level</title>
<g id="a_node4"><a xlink:href="../../tables/asp_level.html" xlink:title="asp_level" target="_top">
<polygon fill="#ffffff" stroke="transparent" points="56,-53 56,-177 183,-177 183,-53 56,-53"/>
<polygon fill="#f5f5f5" stroke="transparent" points="56.5,-155 56.5,-177 183.5,-177 183.5,-155 56.5,-155"/>
<polygon fill="none" stroke="black" points="56.5,-155 56.5,-177 183.5,-177 183.5,-155 56.5,-155"/>
<text text-anchor="start" x="61.5" y="-164.2" font-family="Helvetica,sans-Serif" font-weight="bold" font-size="11.00">asp_level</text>
<text text-anchor="start" x="148.5" y="-163.2" font-family="Helvetica,sans-Serif" font-size="11.00">[table]</text>
<polygon fill="none" stroke="black" points="56.5,-133 56.5,-155 183.5,-155 183.5,-133 56.5,-133"/>
<image xlink:href="../../images/primaryKeys.png" width="11px" height="12px" preserveAspectRatio="xMinYMin meet" x="61.5" y="-150"/>
<text text-anchor="start" x="76.5" y="-141.2" font-family="Helvetica,sans-Serif" font-size="11.00">asp_level_id</text>
<polygon fill="none" stroke="black" points="56.5,-111 56.5,-133 183.5,-133 183.5,-111 56.5,-111"/>
<image xlink:href="../../images/foreignKeys.png" width="11px" height="12px" preserveAspectRatio="xMinYMin meet" x="61.5" y="-128"/>
<text text-anchor="start" x="76.5" y="-119.2" font-family="Helvetica,sans-Serif" font-size="11.00">asp_module_id</text>
<polygon fill="#ffffff" stroke="transparent" points="56.5,-89 56.5,-111 183.5,-111 183.5,-89 56.5,-89"/>
<polygon fill="none" stroke="black" points="56.5,-89 56.5,-111 183.5,-111 183.5,-89 56.5,-89"/>
<text text-anchor="start" x="76.5" y="-97.2" font-family="Helvetica,sans-Serif" font-size="11.00">asp_level_uu</text>
<polygon fill="none" stroke="black" points="56.5,-71 56.5,-89 183.5,-89 183.5,-71 56.5,-71"/>
<text text-anchor="start" x="59.5" y="-77.2" font-family="Helvetica,sans-Serif" font-size="11.00">...</text>
<polygon fill="#ffffff" stroke="transparent" points="56.5,-53 56.5,-71 183.5,-71 183.5,-53 56.5,-53"/>
<polygon fill="none" stroke="black" points="56.5,-53 56.5,-71 183.5,-71 183.5,-53 56.5,-53"/>
<polygon fill="#ffffff" stroke="transparent" points="57.5,-54 57.5,-70 102.5,-70 102.5,-54 57.5,-54"/>
<text text-anchor="start" x="59.5" y="-59.2" font-family="Helvetica,sans-Serif" font-size="11.00">&lt; 1</text>
<polygon fill="#ffffff" stroke="transparent" points="102.5,-54 102.5,-70 138.5,-70 138.5,-54 102.5,-54"/>
<text text-anchor="start" x="117" y="-59.2" font-family="Helvetica,sans-Serif" font-size="11.00"> &#160;</text>
<polygon fill="#ffffff" stroke="transparent" points="138.5,-54 138.5,-70 182.5,-70 182.5,-54 138.5,-54"/>
<text text-anchor="start" x="164.5" y="-59.2" font-family="Helvetica,sans-Serif" font-size="11.00">7 &gt;</text>
<polygon fill="black" stroke="black" points="102.5,-54 102.5,-70 102.5,-70 102.5,-54 102.5,-54"/>
<polygon fill="black" stroke="black" points="138.5,-54 138.5,-70 138.5,-70 138.5,-54 138.5,-54"/>
</a>
</g>
</g>
<!-- asp_window&#45;&gt;asp_level -->
<g id="edge3" class="edge">
<title>asp_window:w&#45;&gt;asp_level:e</title>
<path fill="none" stroke="black" d="M267.3,-256.72C249.39,-246.03 259.3,-211.51 239,-188 218.65,-164.44 215.63,-144 184.5,-144"/>
<polygon fill="black" stroke="black" points="273.71,-258.2 280.69,-263.51 277.6,-259.1 281.5,-260 281.5,-260 281.5,-260 277.6,-259.1 282.31,-256.49 273.71,-258.2 273.71,-258.2"/>
<ellipse fill="none" stroke="black" cx="270.59" cy="-257.48" rx="3.2" ry="3.2"/>
</g>
</g>
</svg>
