<?xml version="1.0" encoding="UTF-8" standalone="no"?>
<!DOCTYPE svg PUBLIC "-//W3C//DTD SVG 1.1//EN"
 "http://www.w3.org/Graphics/SVG/1.1/DTD/svg11.dtd">
<!-- Generated by graphviz version 2.43.0 (0)
 -->
<!-- Title: oneDegreeRelationshipsDiagram Pages: 1 -->
<svg width="622pt" height="496pt"
 viewBox="0.00 0.00 622.00 496.00" xmlns="http://www.w3.org/2000/svg" xmlns:xlink="http://www.w3.org/1999/xlink">
<g id="graph0" class="graph" transform="scale(1 1) rotate(0) translate(4 492)">
<title>oneDegreeRelationshipsDiagram</title>
<polygon fill="#ffffff" stroke="transparent" points="-4,4 -4,-492 618,-492 618,4 -4,4"/>
<text text-anchor="middle" x="71.5" y="-7.2" font-family="Helvetica,sans-Serif" font-size="11.00">Generated by SchemaSpy</text>
<!-- ad_ref_list -->
<g id="node1" class="node">
<title>ad_ref_list</title>
<g id="a_node1"><a xlink:href="../../tables/ad_ref_list.html" xlink:title="ad_ref_list" target="_top">
<polygon fill="#ffffff" stroke="transparent" points="198,-182 198,-416 334,-416 334,-182 198,-182"/>
<polygon fill="#f5f5f5" stroke="transparent" points="198,-394 198,-416 334,-416 334,-394 198,-394"/>
<polygon fill="none" stroke="black" points="198,-394 198,-416 334,-416 334,-394 198,-394"/>
<text text-anchor="start" x="203" y="-403.2" font-family="Helvetica,sans-Serif" font-weight="bold" font-size="11.00">ad_ref_list</text>
<text text-anchor="start" x="299" y="-402.2" font-family="Helvetica,sans-Serif" font-size="11.00">[table]</text>
<polygon fill="none" stroke="black" points="198,-372 198,-394 334,-394 334,-372 198,-372"/>
<image xlink:href="../../images/primaryKeys.png" width="11px" height="12px" preserveAspectRatio="xMinYMin meet" x="203" y="-389"/>
<text text-anchor="start" x="218" y="-380.2" font-family="Helvetica,sans-Serif" font-size="11.00">ad_ref_list_id</text>
<polygon fill="none" stroke="black" points="198,-350 198,-372 334,-372 334,-350 198,-350"/>
<image xlink:href="../../images/foreignKeys.png" width="11px" height="12px" preserveAspectRatio="xMinYMin meet" x="203" y="-367"/>
<text text-anchor="start" x="218" y="-358.2" font-family="Helvetica,sans-Serif" font-size="11.00">ad_client_id</text>
<polygon fill="none" stroke="black" points="198,-328 198,-350 334,-350 334,-328 198,-328"/>
<image xlink:href="../../images/foreignKeys.png" width="11px" height="12px" preserveAspectRatio="xMinYMin meet" x="203" y="-345"/>
<text text-anchor="start" x="218" y="-336.2" font-family="Helvetica,sans-Serif" font-size="11.00">ad_org_id</text>
<polygon fill="#ffffff" stroke="transparent" points="198,-306 198,-328 334,-328 334,-306 198,-306"/>
<polygon fill="none" stroke="black" points="198,-306 198,-328 334,-328 334,-306 198,-306"/>
<text text-anchor="start" x="218" y="-314.2" font-family="Helvetica,sans-Serif" font-size="11.00">value</text>
<polygon fill="#ffffff" stroke="transparent" points="198,-284 198,-306 334,-306 334,-284 198,-284"/>
<polygon fill="none" stroke="black" points="198,-284 198,-306 334,-306 334,-284 198,-284"/>
<text text-anchor="start" x="218" y="-292.2" font-family="Helvetica,sans-Serif" font-size="11.00">name</text>
<polygon fill="#ffffff" stroke="transparent" points="198,-262 198,-284 334,-284 334,-262 198,-262"/>
<polygon fill="none" stroke="black" points="198,-262 198,-284 334,-284 334,-262 198,-262"/>
<image xlink:href="../../images/foreignKeys.png" width="11px" height="12px" preserveAspectRatio="xMinYMin meet" x="203" y="-279"/>
<text text-anchor="start" x="218" y="-270.2" font-family="Helvetica,sans-Serif" font-size="11.00">ad_reference_id</text>
<polygon fill="none" stroke="black" points="198,-240 198,-262 334,-262 334,-240 198,-240"/>
<image xlink:href="../../images/foreignKeys.png" width="11px" height="12px" preserveAspectRatio="xMinYMin meet" x="203" y="-257"/>
<text text-anchor="start" x="218" y="-248.2" font-family="Helvetica,sans-Serif" font-size="11.00">entitytype</text>
<polygon fill="#ffffff" stroke="transparent" points="198,-218 198,-240 334,-240 334,-218 198,-218"/>
<polygon fill="none" stroke="black" points="198,-218 198,-240 334,-240 334,-218 198,-218"/>
<text text-anchor="start" x="218" y="-226.2" font-family="Helvetica,sans-Serif" font-size="11.00">ad_ref_list_uu</text>
<polygon fill="none" stroke="black" points="198,-200 198,-218 334,-218 334,-200 198,-200"/>
<text text-anchor="start" x="201" y="-206.2" font-family="Helvetica,sans-Serif" font-size="11.00">...</text>
<polygon fill="#ffffff" stroke="transparent" points="198,-182 198,-200 334,-200 334,-182 198,-182"/>
<polygon fill="none" stroke="black" points="198,-182 198,-200 334,-200 334,-182 198,-182"/>
<polygon fill="#ffffff" stroke="transparent" points="199,-183 199,-199 231,-199 231,-183 199,-183"/>
<text text-anchor="start" x="201" y="-188.2" font-family="Helvetica,sans-Serif" font-size="11.00">&lt; 4</text>
<polygon fill="#ffffff" stroke="transparent" points="231,-183 231,-199 301,-199 301,-183 231,-183"/>
<text text-anchor="start" x="239" y="-188.2" font-family="Helvetica,sans-Serif" font-size="11.00">4.758 rows</text>
<polygon fill="#ffffff" stroke="transparent" points="301,-183 301,-199 333,-199 333,-183 301,-183"/>
<text text-anchor="start" x="315" y="-188.2" font-family="Helvetica,sans-Serif" font-size="11.00">3 &gt;</text>
<polygon fill="black" stroke="black" points="231,-183 231,-199 231,-199 231,-183 231,-183"/>
<polygon fill="black" stroke="black" points="301,-183 301,-199 301,-199 301,-183 301,-183"/>
</a>
</g>
</g>
<!-- ad_reference -->
<g id="node2" class="node">
<title>ad_reference</title>
<g id="a_node2"><a xlink:href="../../tables/ad_reference.html" xlink:title="ad_reference" target="_top">
<polygon fill="#ffffff" stroke="transparent" points="8,-177 8,-389 149,-389 149,-177 8,-177"/>
<polygon fill="#f5f5f5" stroke="transparent" points="8.5,-367 8.5,-389 149.5,-389 149.5,-367 8.5,-367"/>
<polygon fill="none" stroke="black" points="8.5,-367 8.5,-389 149.5,-389 149.5,-367 8.5,-367"/>
<text text-anchor="start" x="13.5" y="-376.2" font-family="Helvetica,sans-Serif" font-weight="bold" font-size="11.00">ad_reference</text>
<text text-anchor="start" x="114.5" y="-375.2" font-family="Helvetica,sans-Serif" font-size="11.00">[table]</text>
<polygon fill="none" stroke="black" points="8.5,-345 8.5,-367 149.5,-367 149.5,-345 8.5,-345"/>
<image xlink:href="../../images/primaryKeys.png" width="11px" height="12px" preserveAspectRatio="xMinYMin meet" x="13.5" y="-362"/>
<text text-anchor="start" x="28.5" y="-353.2" font-family="Helvetica,sans-Serif" font-size="11.00">ad_reference_id</text>
<polygon fill="none" stroke="black" points="8.5,-323 8.5,-345 149.5,-345 149.5,-323 8.5,-323"/>
<image xlink:href="../../images/foreignKeys.png" width="11px" height="12px" preserveAspectRatio="xMinYMin meet" x="13.5" y="-340"/>
<text text-anchor="start" x="28.5" y="-331.2" font-family="Helvetica,sans-Serif" font-size="11.00">ad_client_id</text>
<polygon fill="none" stroke="black" points="8.5,-301 8.5,-323 149.5,-323 149.5,-301 8.5,-301"/>
<image xlink:href="../../images/foreignKeys.png" width="11px" height="12px" preserveAspectRatio="xMinYMin meet" x="13.5" y="-318"/>
<text text-anchor="start" x="28.5" y="-309.2" font-family="Helvetica,sans-Serif" font-size="11.00">ad_org_id</text>
<polygon fill="#ffffff" stroke="transparent" points="8.5,-279 8.5,-301 149.5,-301 149.5,-279 8.5,-279"/>
<polygon fill="none" stroke="black" points="8.5,-279 8.5,-301 149.5,-301 149.5,-279 8.5,-279"/>
<text text-anchor="start" x="28.5" y="-287.2" font-family="Helvetica,sans-Serif" font-size="11.00">name</text>
<polygon fill="none" stroke="black" points="8.5,-257 8.5,-279 149.5,-279 149.5,-257 8.5,-257"/>
<image xlink:href="../../images/foreignKeys.png" width="11px" height="12px" preserveAspectRatio="xMinYMin meet" x="13.5" y="-274"/>
<text text-anchor="start" x="28.5" y="-265.2" font-family="Helvetica,sans-Serif" font-size="11.00">entitytype</text>
<polygon fill="#ffffff" stroke="transparent" points="8.5,-235 8.5,-257 149.5,-257 149.5,-235 8.5,-235"/>
<polygon fill="none" stroke="black" points="8.5,-235 8.5,-257 149.5,-257 149.5,-235 8.5,-235"/>
<text text-anchor="start" x="28.5" y="-243.2" font-family="Helvetica,sans-Serif" font-size="11.00">ad_reference_uu</text>
<polygon fill="none" stroke="black" points="8.5,-213 8.5,-235 149.5,-235 149.5,-213 8.5,-213"/>
<image xlink:href="../../images/foreignKeys.png" width="11px" height="12px" preserveAspectRatio="xMinYMin meet" x="13.5" y="-230"/>
<text text-anchor="start" x="28.5" y="-221.2" font-family="Helvetica,sans-Serif" font-size="11.00">ad_element_id</text>
<polygon fill="none" stroke="black" points="8.5,-195 8.5,-213 149.5,-213 149.5,-195 8.5,-195"/>
<text text-anchor="start" x="11.5" y="-201.2" font-family="Helvetica,sans-Serif" font-size="11.00">...</text>
<polygon fill="#ffffff" stroke="transparent" points="8.5,-177 8.5,-195 149.5,-195 149.5,-177 8.5,-177"/>
<polygon fill="none" stroke="black" points="8.5,-177 8.5,-195 149.5,-195 149.5,-177 8.5,-177"/>
<polygon fill="#ffffff" stroke="transparent" points="9.5,-178 9.5,-194 41.5,-194 41.5,-178 9.5,-178"/>
<text text-anchor="start" x="11.5" y="-183.2" font-family="Helvetica,sans-Serif" font-size="11.00">&lt; 4</text>
<polygon fill="#ffffff" stroke="transparent" points="41.5,-178 41.5,-194 111.5,-194 111.5,-178 41.5,-178"/>
<text text-anchor="start" x="49.5" y="-183.2" font-family="Helvetica,sans-Serif" font-size="11.00">1.128 rows</text>
<polygon fill="#ffffff" stroke="transparent" points="111.5,-178 111.5,-194 148.5,-194 148.5,-178 111.5,-178"/>
<text text-anchor="start" x="124.5" y="-183.2" font-family="Helvetica,sans-Serif" font-size="11.00">31 &gt;</text>
<polygon fill="black" stroke="black" points="41.5,-178 41.5,-194 41.5,-194 41.5,-178 41.5,-178"/>
<polygon fill="black" stroke="black" points="111.5,-178 111.5,-194 111.5,-194 111.5,-178 111.5,-178"/>
</a>
</g>
</g>
<!-- ad_ref_list&#45;&gt;ad_reference -->
<g id="edge1" class="edge">
<title>ad_ref_list:w&#45;&gt;ad_reference:e</title>
<path fill="none" stroke="black" d="M183.22,-277.7C164.04,-295.26 186.67,-356 150.5,-356"/>
<polygon fill="black" stroke="black" points="189.43,-275.58 198.16,-276.41 193.21,-274.29 197,-273 197,-273 197,-273 193.21,-274.29 195.84,-269.59 189.43,-275.58 189.43,-275.58"/>
<ellipse fill="none" stroke="black" cx="186.4" cy="-276.61" rx="3.2" ry="3.2"/>
</g>
<!-- asp_ref_list -->
<g id="node3" class="node">
<title>asp_ref_list</title>
<g id="a_node3"><a xlink:href="../../tables/asp_ref_list.html" xlink:title="asp_ref_list" target="_top">
<polygon fill="#ffffff" stroke="transparent" points="383,-154 383,-484 606,-484 606,-154 383,-154"/>
<polygon fill="#f5f5f5" stroke="transparent" points="385.5,-460 385.5,-482 604.5,-482 604.5,-460 385.5,-460"/>
<polygon fill="none" stroke="black" points="385.5,-460 385.5,-482 604.5,-482 604.5,-460 385.5,-460"/>
<text text-anchor="start" x="390.5" y="-469.2" font-family="Helvetica,sans-Serif" font-weight="bold" font-size="11.00">asp_ref_list</text>
<text text-anchor="start" x="569.5" y="-468.2" font-family="Helvetica,sans-Serif" font-size="11.00">[table]</text>
<polygon fill="none" stroke="black" points="385.5,-438 385.5,-460 521.5,-460 521.5,-438 385.5,-438"/>
<text text-anchor="start" x="405.5" y="-446.2" font-family="Helvetica,sans-Serif" font-size="11.00">ad_client_id</text>
<polygon fill="none" stroke="black" points="521.5,-438 521.5,-460 604.5,-460 604.5,-438 521.5,-438"/>
<text text-anchor="start" x="524.5" y="-446.2" font-family="Helvetica,sans-Serif" font-size="11.00">numeric[10]</text>
<polygon fill="none" stroke="black" points="385.5,-416 385.5,-438 521.5,-438 521.5,-416 385.5,-416"/>
<text text-anchor="start" x="405.5" y="-424.2" font-family="Helvetica,sans-Serif" font-size="11.00">ad_org_id</text>
<polygon fill="none" stroke="black" points="521.5,-416 521.5,-438 604.5,-438 604.5,-416 521.5,-416"/>
<text text-anchor="start" x="524.5" y="-424.2" font-family="Helvetica,sans-Serif" font-size="11.00">numeric[10]</text>
<polygon fill="none" stroke="black" points="385.5,-394 385.5,-416 521.5,-416 521.5,-394 385.5,-394"/>
<image xlink:href="../../images/foreignKeys.png" width="11px" height="12px" preserveAspectRatio="xMinYMin meet" x="390.5" y="-411"/>
<text text-anchor="start" x="405.5" y="-402.2" font-family="Helvetica,sans-Serif" font-size="11.00">ad_reference_id</text>
<polygon fill="none" stroke="black" points="521.5,-394 521.5,-416 604.5,-416 604.5,-394 521.5,-394"/>
<text text-anchor="start" x="524.5" y="-402.2" font-family="Helvetica,sans-Serif" font-size="11.00">numeric[10]</text>
<polygon fill="#ffffff" stroke="transparent" points="385.5,-372 385.5,-394 521.5,-394 521.5,-372 385.5,-372"/>
<polygon fill="none" stroke="black" points="385.5,-372 385.5,-394 521.5,-394 521.5,-372 385.5,-372"/>
<image xlink:href="../../images/foreignKeys.png" width="11px" height="12px" preserveAspectRatio="xMinYMin meet" x="390.5" y="-389"/>
<text text-anchor="start" x="405.5" y="-380.2" font-family="Helvetica,sans-Serif" font-size="11.00">ad_ref_list_id</text>
<polygon fill="none" stroke="black" points="521.5,-372 521.5,-394 604.5,-394 604.5,-372 521.5,-372"/>
<text text-anchor="start" x="524.5" y="-380.2" font-family="Helvetica,sans-Serif" font-size="11.00">numeric[10]</text>
<polygon fill="#ffffff" stroke="transparent" points="385.5,-350 385.5,-372 521.5,-372 521.5,-350 385.5,-350"/>
<polygon fill="none" stroke="black" points="385.5,-350 385.5,-372 521.5,-372 521.5,-350 385.5,-350"/>
<image xlink:href="../../images/foreignKeys.png" width="11px" height="12px" preserveAspectRatio="xMinYMin meet" x="390.5" y="-367"/>
<text text-anchor="start" x="405.5" y="-358.2" font-family="Helvetica,sans-Serif" font-size="11.00">asp_level_id</text>
<polygon fill="none" stroke="black" points="521.5,-350 521.5,-372 604.5,-372 604.5,-350 521.5,-350"/>
<text text-anchor="start" x="524.5" y="-358.2" font-family="Helvetica,sans-Serif" font-size="11.00">numeric[10]</text>
<polygon fill="none" stroke="black" points="385.5,-328 385.5,-350 521.5,-350 521.5,-328 385.5,-328"/>
<image xlink:href="../../images/primaryKeys.png" width="11px" height="12px" preserveAspectRatio="xMinYMin meet" x="390.5" y="-345"/>
<text text-anchor="start" x="405.5" y="-336.2" font-family="Helvetica,sans-Serif" font-size="11.00">asp_ref_list_id</text>
<polygon fill="none" stroke="black" points="521.5,-328 521.5,-350 604.5,-350 604.5,-328 521.5,-328"/>
<text text-anchor="start" x="524.5" y="-336.2" font-family="Helvetica,sans-Serif" font-size="11.00">numeric[10]</text>
<polygon fill="#ffffff" stroke="transparent" points="385.5,-306 385.5,-328 521.5,-328 521.5,-306 385.5,-306"/>
<polygon fill="none" stroke="black" points="385.5,-306 385.5,-328 521.5,-328 521.5,-306 385.5,-306"/>
<text text-anchor="start" x="405.5" y="-314.2" font-family="Helvetica,sans-Serif" font-size="11.00">asp_ref_list_uu</text>
<polygon fill="none" stroke="black" points="521.5,-306 521.5,-328 604.5,-328 604.5,-306 521.5,-306"/>
<text text-anchor="start" x="524.5" y="-314.2" font-family="Helvetica,sans-Serif" font-size="11.00">varchar[36]</text>
<polygon fill="none" stroke="black" points="385.5,-284 385.5,-306 521.5,-306 521.5,-284 385.5,-284"/>
<text text-anchor="start" x="405.5" y="-292.2" font-family="Helvetica,sans-Serif" font-size="11.00">asp_status</text>
<polygon fill="none" stroke="black" points="521.5,-284 521.5,-306 604.5,-306 604.5,-284 521.5,-284"/>
<text text-anchor="start" x="524.5" y="-292.2" font-family="Helvetica,sans-Serif" font-size="11.00">bpchar[1]</text>
<polygon fill="none" stroke="black" points="385.5,-262 385.5,-284 521.5,-284 521.5,-262 385.5,-262"/>
<text text-anchor="start" x="405.5" y="-270.2" font-family="Helvetica,sans-Serif" font-size="11.00">created</text>
<polygon fill="none" stroke="black" points="521.5,-262 521.5,-284 604.5,-284 604.5,-262 521.5,-262"/>
<text text-anchor="start" x="524.5" y="-270.2" font-family="Helvetica,sans-Serif" font-size="11.00">timestamp[29,6]</text>
<polygon fill="none" stroke="black" points="385.5,-240 385.5,-262 521.5,-262 521.5,-240 385.5,-240"/>
<text text-anchor="start" x="405.5" y="-248.2" font-family="Helvetica,sans-Serif" font-size="11.00">createdby</text>
<polygon fill="none" stroke="black" points="521.5,-240 521.5,-262 604.5,-262 604.5,-240 521.5,-240"/>
<text text-anchor="start" x="524.5" y="-248.2" font-family="Helvetica,sans-Serif" font-size="11.00">numeric[10]</text>
<polygon fill="none" stroke="black" points="385.5,-218 385.5,-240 521.5,-240 521.5,-218 385.5,-218"/>
<text text-anchor="start" x="405.5" y="-226.2" font-family="Helvetica,sans-Serif" font-size="11.00">isactive</text>
<polygon fill="none" stroke="black" points="521.5,-218 521.5,-240 604.5,-240 604.5,-218 521.5,-218"/>
<text text-anchor="start" x="524.5" y="-226.2" font-family="Helvetica,sans-Serif" font-size="11.00">bpchar[1]</text>
<polygon fill="none" stroke="black" points="385.5,-196 385.5,-218 521.5,-218 521.5,-196 385.5,-196"/>
<text text-anchor="start" x="405.5" y="-204.2" font-family="Helvetica,sans-Serif" font-size="11.00">updated</text>
<polygon fill="none" stroke="black" points="521.5,-196 521.5,-218 604.5,-218 604.5,-196 521.5,-196"/>
<text text-anchor="start" x="524.5" y="-204.2" font-family="Helvetica,sans-Serif" font-size="11.00">timestamp[29,6]</text>
<polygon fill="none" stroke="black" points="385.5,-174 385.5,-196 521.5,-196 521.5,-174 385.5,-174"/>
<text text-anchor="start" x="405.5" y="-182.2" font-family="Helvetica,sans-Serif" font-size="11.00">updatedby</text>
<polygon fill="none" stroke="black" points="521.5,-174 521.5,-196 604.5,-196 604.5,-174 521.5,-174"/>
<text text-anchor="start" x="524.5" y="-182.2" font-family="Helvetica,sans-Serif" font-size="11.00">numeric[10]</text>
<polygon fill="#ffffff" stroke="transparent" points="385.5,-156 385.5,-174 604.5,-174 604.5,-156 385.5,-156"/>
<polygon fill="none" stroke="black" points="385.5,-156 385.5,-174 604.5,-174 604.5,-156 385.5,-156"/>
<polygon fill="#ffffff" stroke="transparent" points="386.5,-157 386.5,-173 462.5,-173 462.5,-157 386.5,-157"/>
<text text-anchor="start" x="388.5" y="-162.2" font-family="Helvetica,sans-Serif" font-size="11.00">&lt; 3</text>
<polygon fill="#ffffff" stroke="transparent" points="462.5,-157 462.5,-173 528.5,-173 528.5,-157 462.5,-157"/>
<text text-anchor="start" x="492" y="-162.2" font-family="Helvetica,sans-Serif" font-size="11.00"> &#160;</text>
<polygon fill="#ffffff" stroke="transparent" points="528.5,-157 528.5,-173 603.5,-173 603.5,-157 528.5,-157"/>
<text text-anchor="start" x="585.5" y="-162.2" font-family="Helvetica,sans-Serif" font-size="11.00">0 &gt;</text>
<polygon fill="black" stroke="black" points="462.5,-157 462.5,-173 462.5,-173 462.5,-157 462.5,-157"/>
<polygon fill="black" stroke="black" points="528.5,-157 528.5,-173 528.5,-173 528.5,-157 528.5,-157"/>
<polygon fill="none" stroke="black" stroke-width="2" points="384,-155 384,-483 605,-483 605,-155 384,-155"/>
</a>
</g>
</g>
<!-- asp_ref_list&#45;&gt;ad_ref_list -->
<g id="edge2" class="edge">
<title>asp_ref_list:w&#45;&gt;ad_ref_list:e</title>
<path fill="none" stroke="black" d="M369.84,-383C358.41,-383 351.16,-383 335,-383"/>
<polygon fill="black" stroke="black" points="376.5,-383 384.5,-386.6 380.5,-383 384.5,-383 384.5,-383 384.5,-383 380.5,-383 384.5,-379.4 376.5,-383 376.5,-383"/>
<ellipse fill="none" stroke="black" cx="373.3" cy="-383" rx="3.2" ry="3.2"/>
</g>
<!-- asp_ref_list&#45;&gt;ad_reference -->
<g id="edge3" class="edge">
<title>asp_ref_list:w&#45;&gt;ad_reference:e</title>
<path fill="none" stroke="black" d="M370.26,-408.56C361.22,-413.81 356.69,-423.42 342,-427 276.36,-442.98 248.23,-461.24 190,-427 158.87,-408.7 186.61,-356 150.5,-356"/>
<polygon fill="black" stroke="black" points="376.74,-406.94 385.37,-408.49 380.62,-405.97 384.5,-405 384.5,-405 384.5,-405 380.62,-405.97 383.63,-401.51 376.74,-406.94 376.74,-406.94"/>
<ellipse fill="none" stroke="black" cx="373.63" cy="-407.71" rx="3.2" ry="3.2"/>
</g>
<!-- asp_level -->
<g id="node4" class="node">
<title>asp_level</title>
<g id="a_node4"><a xlink:href="../../tables/asp_level.html" xlink:title="asp_level" target="_top">
<polygon fill="#ffffff" stroke="transparent" points="202.5,-37 202.5,-161 329.5,-161 329.5,-37 202.5,-37"/>
<polygon fill="#f5f5f5" stroke="transparent" points="203,-139 203,-161 330,-161 330,-139 203,-139"/>
<polygon fill="none" stroke="black" points="203,-139 203,-161 330,-161 330,-139 203,-139"/>
<text text-anchor="start" x="208" y="-148.2" font-family="Helvetica,sans-Serif" font-weight="bold" font-size="11.00">asp_level</text>
<text text-anchor="start" x="295" y="-147.2" font-family="Helvetica,sans-Serif" font-size="11.00">[table]</text>
<polygon fill="none" stroke="black" points="203,-117 203,-139 330,-139 330,-117 203,-117"/>
<image xlink:href="../../images/primaryKeys.png" width="11px" height="12px" preserveAspectRatio="xMinYMin meet" x="208" y="-134"/>
<text text-anchor="start" x="223" y="-125.2" font-family="Helvetica,sans-Serif" font-size="11.00">asp_level_id</text>
<polygon fill="none" stroke="black" points="203,-95 203,-117 330,-117 330,-95 203,-95"/>
<image xlink:href="../../images/foreignKeys.png" width="11px" height="12px" preserveAspectRatio="xMinYMin meet" x="208" y="-112"/>
<text text-anchor="start" x="223" y="-103.2" font-family="Helvetica,sans-Serif" font-size="11.00">asp_module_id</text>
<polygon fill="#ffffff" stroke="transparent" points="203,-73 203,-95 330,-95 330,-73 203,-73"/>
<polygon fill="none" stroke="black" points="203,-73 203,-95 330,-95 330,-73 203,-73"/>
<text text-anchor="start" x="223" y="-81.2" font-family="Helvetica,sans-Serif" font-size="11.00">asp_level_uu</text>
<polygon fill="none" stroke="black" points="203,-55 203,-73 330,-73 330,-55 203,-55"/>
<text text-anchor="start" x="206" y="-61.2" font-family="Helvetica,sans-Serif" font-size="11.00">...</text>
<polygon fill="#ffffff" stroke="transparent" points="203,-37 203,-55 330,-55 330,-37 203,-37"/>
<polygon fill="none" stroke="black" points="203,-37 203,-55 330,-55 330,-37 203,-37"/>
<polygon fill="#ffffff" stroke="transparent" points="204,-38 204,-54 249,-54 249,-38 204,-38"/>
<text text-anchor="start" x="206" y="-43.2" font-family="Helvetica,sans-Serif" font-size="11.00">&lt; 1</text>
<polygon fill="#ffffff" stroke="transparent" points="249,-38 249,-54 285,-54 285,-38 249,-38"/>
<text text-anchor="start" x="263.5" y="-43.2" font-family="Helvetica,sans-Serif" font-size="11.00"> &#160;</text>
<polygon fill="#ffffff" stroke="transparent" points="285,-38 285,-54 329,-54 329,-38 285,-38"/>
<text text-anchor="start" x="311" y="-43.2" font-family="Helvetica,sans-Serif" font-size="11.00">7 &gt;</text>
<polygon fill="black" stroke="black" points="249,-38 249,-54 249,-54 249,-38 249,-38"/>
<polygon fill="black" stroke="black" points="285,-38 285,-54 285,-54 285,-38 285,-38"/>
</a>
</g>
</g>
<!-- asp_ref_list&#45;&gt;asp_level -->
<g id="edge4" class="edge">
<title>asp_ref_list:w&#45;&gt;asp_level:e</title>
<path fill="none" stroke="black" d="M369.83,-359.12C294.28,-337.07 431.65,-128 331,-128"/>
<polygon fill="black" stroke="black" points="376.56,-359.99 384.04,-364.57 380.53,-360.49 384.5,-361 384.5,-361 384.5,-361 380.53,-360.49 384.96,-357.43 376.56,-359.99 376.56,-359.99"/>
<ellipse fill="none" stroke="black" cx="373.39" cy="-359.58" rx="3.2" ry="3.2"/>
</g>
</g>
</svg>
