<?xml version="1.0" encoding="UTF-8" standalone="no"?>
<!DOCTYPE svg PUBLIC "-//W3C//DTD SVG 1.1//EN"
 "http://www.w3.org/Graphics/SVG/1.1/DTD/svg11.dtd">
<!-- Generated by graphviz version 2.43.0 (0)
 -->
<!-- Title: oneDegreeRelationshipsDiagram Pages: 1 -->
<svg width="644pt" height="604pt"
 viewBox="0.00 0.00 644.00 604.00" xmlns="http://www.w3.org/2000/svg" xmlns:xlink="http://www.w3.org/1999/xlink">
<g id="graph0" class="graph" transform="scale(1 1) rotate(0) translate(4 600)">
<title>oneDegreeRelationshipsDiagram</title>
<polygon fill="#ffffff" stroke="transparent" points="-4,4 -4,-600 640,-600 640,4 -4,4"/>
<text text-anchor="middle" x="71.5" y="-7.2" font-family="Helvetica,sans-Serif" font-size="11.00">Generated by SchemaSpy</text>
<!-- asp_field -->
<g id="node1" class="node">
<title>asp_field</title>
<g id="a_node1"><a xlink:href="../../tables/asp_field.html" xlink:title="asp_field" target="_top">
<polygon fill="#ffffff" stroke="transparent" points="517,-175 517,-321 628,-321 628,-175 517,-175"/>
<polygon fill="#f5f5f5" stroke="transparent" points="517.5,-299 517.5,-321 628.5,-321 628.5,-299 517.5,-299"/>
<polygon fill="none" stroke="black" points="517.5,-299 517.5,-321 628.5,-321 628.5,-299 517.5,-299"/>
<text text-anchor="start" x="522.5" y="-308.2" font-family="Helvetica,sans-Serif" font-weight="bold" font-size="11.00">asp_field</text>
<text text-anchor="start" x="593.5" y="-307.2" font-family="Helvetica,sans-Serif" font-size="11.00">[table]</text>
<polygon fill="#ffffff" stroke="transparent" points="517.5,-277 517.5,-299 628.5,-299 628.5,-277 517.5,-277"/>
<polygon fill="none" stroke="black" points="517.5,-277 517.5,-299 628.5,-299 628.5,-277 517.5,-277"/>
<image xlink:href="../../images/foreignKeys.png" width="11px" height="12px" preserveAspectRatio="xMinYMin meet" x="522.5" y="-294"/>
<text text-anchor="start" x="537.5" y="-285.2" font-family="Helvetica,sans-Serif" font-size="11.00">ad_field_id</text>
<polygon fill="none" stroke="black" points="517.5,-255 517.5,-277 628.5,-277 628.5,-255 517.5,-255"/>
<image xlink:href="../../images/primaryKeys.png" width="11px" height="12px" preserveAspectRatio="xMinYMin meet" x="522.5" y="-272"/>
<text text-anchor="start" x="537.5" y="-263.2" font-family="Helvetica,sans-Serif" font-size="11.00">asp_field_id</text>
<polygon fill="#ffffff" stroke="transparent" points="517.5,-233 517.5,-255 628.5,-255 628.5,-233 517.5,-233"/>
<polygon fill="none" stroke="black" points="517.5,-233 517.5,-255 628.5,-255 628.5,-233 517.5,-233"/>
<image xlink:href="../../images/foreignKeys.png" width="11px" height="12px" preserveAspectRatio="xMinYMin meet" x="522.5" y="-250"/>
<text text-anchor="start" x="537.5" y="-241.2" font-family="Helvetica,sans-Serif" font-size="11.00">asp_tab_id</text>
<polygon fill="#ffffff" stroke="transparent" points="517.5,-211 517.5,-233 628.5,-233 628.5,-211 517.5,-211"/>
<polygon fill="none" stroke="black" points="517.5,-211 517.5,-233 628.5,-233 628.5,-211 517.5,-211"/>
<text text-anchor="start" x="537.5" y="-219.2" font-family="Helvetica,sans-Serif" font-size="11.00">asp_field_uu</text>
<polygon fill="none" stroke="black" points="517.5,-193 517.5,-211 628.5,-211 628.5,-193 517.5,-193"/>
<text text-anchor="start" x="520.5" y="-199.2" font-family="Helvetica,sans-Serif" font-size="11.00">...</text>
<polygon fill="#ffffff" stroke="transparent" points="517.5,-175 517.5,-193 628.5,-193 628.5,-175 517.5,-175"/>
<polygon fill="none" stroke="black" points="517.5,-175 517.5,-193 628.5,-193 628.5,-175 517.5,-175"/>
<polygon fill="#ffffff" stroke="transparent" points="518.5,-176 518.5,-192 561.5,-192 561.5,-176 518.5,-176"/>
<text text-anchor="start" x="520.5" y="-181.2" font-family="Helvetica,sans-Serif" font-size="11.00">&lt; 2</text>
<polygon fill="#ffffff" stroke="transparent" points="561.5,-176 561.5,-192 594.5,-192 594.5,-176 561.5,-176"/>
<text text-anchor="start" x="574.5" y="-181.2" font-family="Helvetica,sans-Serif" font-size="11.00"> &#160;</text>
<polygon fill="#ffffff" stroke="transparent" points="594.5,-176 594.5,-192 627.5,-192 627.5,-176 594.5,-176"/>
<text text-anchor="start" x="618.5" y="-181.2" font-family="Helvetica,sans-Serif" font-size="11.00"> &#160;</text>
<polygon fill="black" stroke="black" points="561.5,-176 561.5,-192 561.5,-192 561.5,-176 561.5,-176"/>
<polygon fill="black" stroke="black" points="594.5,-176 594.5,-192 594.5,-192 594.5,-176 594.5,-176"/>
</a>
</g>
</g>
<!-- asp_tab -->
<g id="node2" class="node">
<title>asp_tab</title>
<g id="a_node2"><a xlink:href="../../tables/asp_tab.html" xlink:title="asp_tab" target="_top">
<polygon fill="#ffffff" stroke="transparent" points="252,-169 252,-521 468,-521 468,-169 252,-169"/>
<polygon fill="#f5f5f5" stroke="transparent" points="254,-497 254,-519 466,-519 466,-497 254,-497"/>
<polygon fill="none" stroke="black" points="254,-497 254,-519 466,-519 466,-497 254,-497"/>
<text text-anchor="start" x="259" y="-506.2" font-family="Helvetica,sans-Serif" font-weight="bold" font-size="11.00">asp_tab</text>
<text text-anchor="start" x="431" y="-505.2" font-family="Helvetica,sans-Serif" font-size="11.00">[table]</text>
<polygon fill="none" stroke="black" points="254,-475 254,-497 383,-497 383,-475 254,-475"/>
<text text-anchor="start" x="274" y="-483.2" font-family="Helvetica,sans-Serif" font-size="11.00">ad_client_id</text>
<polygon fill="none" stroke="black" points="383,-475 383,-497 466,-497 466,-475 383,-475"/>
<text text-anchor="start" x="386" y="-483.2" font-family="Helvetica,sans-Serif" font-size="11.00">numeric[10]</text>
<polygon fill="none" stroke="black" points="254,-453 254,-475 383,-475 383,-453 254,-453"/>
<text text-anchor="start" x="274" y="-461.2" font-family="Helvetica,sans-Serif" font-size="11.00">ad_org_id</text>
<polygon fill="none" stroke="black" points="383,-453 383,-475 466,-475 466,-453 383,-453"/>
<text text-anchor="start" x="386" y="-461.2" font-family="Helvetica,sans-Serif" font-size="11.00">numeric[10]</text>
<polygon fill="#ffffff" stroke="transparent" points="254,-431 254,-453 383,-453 383,-431 254,-431"/>
<polygon fill="none" stroke="black" points="254,-431 254,-453 383,-453 383,-431 254,-431"/>
<image xlink:href="../../images/foreignKeys.png" width="11px" height="12px" preserveAspectRatio="xMinYMin meet" x="259" y="-448"/>
<text text-anchor="start" x="274" y="-439.2" font-family="Helvetica,sans-Serif" font-size="11.00">ad_tab_id</text>
<polygon fill="none" stroke="black" points="383,-431 383,-453 466,-453 466,-431 383,-431"/>
<text text-anchor="start" x="386" y="-439.2" font-family="Helvetica,sans-Serif" font-size="11.00">numeric[10]</text>
<polygon fill="none" stroke="black" points="254,-409 254,-431 383,-431 383,-409 254,-409"/>
<text text-anchor="start" x="274" y="-417.2" font-family="Helvetica,sans-Serif" font-size="11.00">asp_status</text>
<polygon fill="none" stroke="black" points="383,-409 383,-431 466,-431 466,-409 383,-409"/>
<text text-anchor="start" x="386" y="-417.2" font-family="Helvetica,sans-Serif" font-size="11.00">bpchar[1]</text>
<polygon fill="none" stroke="black" points="254,-387 254,-409 383,-409 383,-387 254,-387"/>
<text text-anchor="start" x="274" y="-395.2" font-family="Helvetica,sans-Serif" font-size="11.00">allfields</text>
<polygon fill="none" stroke="black" points="383,-387 383,-409 466,-409 466,-387 383,-387"/>
<text text-anchor="start" x="386" y="-395.2" font-family="Helvetica,sans-Serif" font-size="11.00">bpchar[1]</text>
<polygon fill="none" stroke="black" points="254,-365 254,-387 383,-387 383,-365 254,-365"/>
<text text-anchor="start" x="274" y="-373.2" font-family="Helvetica,sans-Serif" font-size="11.00">created</text>
<polygon fill="none" stroke="black" points="383,-365 383,-387 466,-387 466,-365 383,-365"/>
<text text-anchor="start" x="386" y="-373.2" font-family="Helvetica,sans-Serif" font-size="11.00">timestamp[29,6]</text>
<polygon fill="none" stroke="black" points="254,-343 254,-365 383,-365 383,-343 254,-343"/>
<text text-anchor="start" x="274" y="-351.2" font-family="Helvetica,sans-Serif" font-size="11.00">createdby</text>
<polygon fill="none" stroke="black" points="383,-343 383,-365 466,-365 466,-343 383,-343"/>
<text text-anchor="start" x="386" y="-351.2" font-family="Helvetica,sans-Serif" font-size="11.00">numeric[10]</text>
<polygon fill="none" stroke="black" points="254,-321 254,-343 383,-343 383,-321 254,-321"/>
<text text-anchor="start" x="274" y="-329.2" font-family="Helvetica,sans-Serif" font-size="11.00">isactive</text>
<polygon fill="none" stroke="black" points="383,-321 383,-343 466,-343 466,-321 383,-321"/>
<text text-anchor="start" x="386" y="-329.2" font-family="Helvetica,sans-Serif" font-size="11.00">bpchar[1]</text>
<polygon fill="none" stroke="black" points="254,-299 254,-321 383,-321 383,-299 254,-299"/>
<text text-anchor="start" x="274" y="-307.2" font-family="Helvetica,sans-Serif" font-size="11.00">processing</text>
<polygon fill="none" stroke="black" points="383,-299 383,-321 466,-321 466,-299 383,-299"/>
<text text-anchor="start" x="386" y="-307.2" font-family="Helvetica,sans-Serif" font-size="11.00">bpchar[1]</text>
<polygon fill="none" stroke="black" points="254,-277 254,-299 383,-299 383,-277 254,-277"/>
<text text-anchor="start" x="274" y="-285.2" font-family="Helvetica,sans-Serif" font-size="11.00">updated</text>
<polygon fill="none" stroke="black" points="383,-277 383,-299 466,-299 466,-277 383,-277"/>
<text text-anchor="start" x="386" y="-285.2" font-family="Helvetica,sans-Serif" font-size="11.00">timestamp[29,6]</text>
<polygon fill="none" stroke="black" points="254,-255 254,-277 383,-277 383,-255 254,-255"/>
<text text-anchor="start" x="274" y="-263.2" font-family="Helvetica,sans-Serif" font-size="11.00">updatedby</text>
<polygon fill="none" stroke="black" points="383,-255 383,-277 466,-277 466,-255 383,-255"/>
<text text-anchor="start" x="386" y="-263.2" font-family="Helvetica,sans-Serif" font-size="11.00">numeric[10]</text>
<polygon fill="none" stroke="black" points="254,-233 254,-255 383,-255 383,-233 254,-233"/>
<image xlink:href="../../images/primaryKeys.png" width="11px" height="12px" preserveAspectRatio="xMinYMin meet" x="259" y="-250"/>
<text text-anchor="start" x="274" y="-241.2" font-family="Helvetica,sans-Serif" font-size="11.00">asp_tab_id</text>
<polygon fill="none" stroke="black" points="383,-233 383,-255 466,-255 466,-233 383,-233"/>
<text text-anchor="start" x="386" y="-241.2" font-family="Helvetica,sans-Serif" font-size="11.00">numeric[10]</text>
<polygon fill="#ffffff" stroke="transparent" points="254,-211 254,-233 383,-233 383,-211 254,-211"/>
<polygon fill="none" stroke="black" points="254,-211 254,-233 383,-233 383,-211 254,-211"/>
<image xlink:href="../../images/foreignKeys.png" width="11px" height="12px" preserveAspectRatio="xMinYMin meet" x="259" y="-228"/>
<text text-anchor="start" x="274" y="-219.2" font-family="Helvetica,sans-Serif" font-size="11.00">asp_window_id</text>
<polygon fill="none" stroke="black" points="383,-211 383,-233 466,-233 466,-211 383,-211"/>
<text text-anchor="start" x="386" y="-219.2" font-family="Helvetica,sans-Serif" font-size="11.00">numeric[10]</text>
<polygon fill="#ffffff" stroke="transparent" points="254,-189 254,-211 383,-211 383,-189 254,-189"/>
<polygon fill="none" stroke="black" points="254,-189 254,-211 383,-211 383,-189 254,-189"/>
<text text-anchor="start" x="274" y="-197.2" font-family="Helvetica,sans-Serif" font-size="11.00">asp_tab_uu</text>
<polygon fill="none" stroke="black" points="383,-189 383,-211 466,-211 466,-189 383,-189"/>
<text text-anchor="start" x="386" y="-197.2" font-family="Helvetica,sans-Serif" font-size="11.00">varchar[36]</text>
<polygon fill="#ffffff" stroke="transparent" points="254,-171 254,-189 466,-189 466,-171 254,-171"/>
<polygon fill="none" stroke="black" points="254,-171 254,-189 466,-189 466,-171 254,-171"/>
<polygon fill="#ffffff" stroke="transparent" points="255,-172 255,-188 328,-188 328,-172 255,-172"/>
<text text-anchor="start" x="257" y="-177.2" font-family="Helvetica,sans-Serif" font-size="11.00">&lt; 2</text>
<polygon fill="#ffffff" stroke="transparent" points="328,-172 328,-188 392,-188 392,-172 328,-172"/>
<text text-anchor="start" x="356.5" y="-177.2" font-family="Helvetica,sans-Serif" font-size="11.00"> &#160;</text>
<polygon fill="#ffffff" stroke="transparent" points="392,-172 392,-188 465,-188 465,-172 392,-172"/>
<text text-anchor="start" x="447" y="-177.2" font-family="Helvetica,sans-Serif" font-size="11.00">1 &gt;</text>
<polygon fill="black" stroke="black" points="328,-172 328,-188 328,-188 328,-172 328,-172"/>
<polygon fill="black" stroke="black" points="392,-172 392,-188 392,-188 392,-172 392,-172"/>
<polygon fill="none" stroke="black" stroke-width="2" points="253,-170 253,-520 467,-520 467,-170 253,-170"/>
</a>
</g>
</g>
<!-- asp_field&#45;&gt;asp_tab -->
<g id="edge1" class="edge">
<title>asp_field:w&#45;&gt;asp_tab:e</title>
<path fill="none" stroke="black" d="M501.84,-244C490.41,-244 483.16,-244 467,-244"/>
<polygon fill="black" stroke="black" points="508.5,-244 516.5,-247.6 512.5,-244 516.5,-244 516.5,-244 516.5,-244 512.5,-244 516.5,-240.4 508.5,-244 508.5,-244"/>
<ellipse fill="none" stroke="black" cx="505.3" cy="-244" rx="3.2" ry="3.2"/>
</g>
<!-- ad_tab -->
<g id="node3" class="node">
<title>ad_tab</title>
<g id="a_node3"><a xlink:href="../../tables/ad_tab.html" xlink:title="ad_tab" target="_top">
<polygon fill="#ffffff" stroke="transparent" points="8,-204 8,-592 203,-592 203,-204 8,-204"/>
<polygon fill="#f5f5f5" stroke="transparent" points="8.5,-570 8.5,-592 203.5,-592 203.5,-570 8.5,-570"/>
<polygon fill="none" stroke="black" points="8.5,-570 8.5,-592 203.5,-592 203.5,-570 8.5,-570"/>
<text text-anchor="start" x="13.5" y="-579.2" font-family="Helvetica,sans-Serif" font-weight="bold" font-size="11.00">ad_tab</text>
<text text-anchor="start" x="168.5" y="-578.2" font-family="Helvetica,sans-Serif" font-size="11.00">[table]</text>
<polygon fill="none" stroke="black" points="8.5,-548 8.5,-570 203.5,-570 203.5,-548 8.5,-548"/>
<image xlink:href="../../images/primaryKeys.png" width="11px" height="12px" preserveAspectRatio="xMinYMin meet" x="13.5" y="-565"/>
<text text-anchor="start" x="28.5" y="-556.2" font-family="Helvetica,sans-Serif" font-size="11.00">ad_tab_id</text>
<polygon fill="none" stroke="black" points="8.5,-526 8.5,-548 203.5,-548 203.5,-526 8.5,-526"/>
<image xlink:href="../../images/foreignKeys.png" width="11px" height="12px" preserveAspectRatio="xMinYMin meet" x="13.5" y="-543"/>
<text text-anchor="start" x="28.5" y="-534.2" font-family="Helvetica,sans-Serif" font-size="11.00">ad_client_id</text>
<polygon fill="none" stroke="black" points="8.5,-504 8.5,-526 203.5,-526 203.5,-504 8.5,-504"/>
<image xlink:href="../../images/foreignKeys.png" width="11px" height="12px" preserveAspectRatio="xMinYMin meet" x="13.5" y="-521"/>
<text text-anchor="start" x="28.5" y="-512.2" font-family="Helvetica,sans-Serif" font-size="11.00">ad_org_id</text>
<polygon fill="#ffffff" stroke="transparent" points="8.5,-482 8.5,-504 203.5,-504 203.5,-482 8.5,-482"/>
<polygon fill="none" stroke="black" points="8.5,-482 8.5,-504 203.5,-504 203.5,-482 8.5,-482"/>
<image xlink:href="../../images/foreignKeys.png" width="11px" height="12px" preserveAspectRatio="xMinYMin meet" x="13.5" y="-499"/>
<text text-anchor="start" x="28.5" y="-490.2" font-family="Helvetica,sans-Serif" font-size="11.00">ad_table_id</text>
<polygon fill="#ffffff" stroke="transparent" points="8.5,-460 8.5,-482 203.5,-482 203.5,-460 8.5,-460"/>
<polygon fill="none" stroke="black" points="8.5,-460 8.5,-482 203.5,-482 203.5,-460 8.5,-460"/>
<image xlink:href="../../images/foreignKeys.png" width="11px" height="12px" preserveAspectRatio="xMinYMin meet" x="13.5" y="-477"/>
<text text-anchor="start" x="28.5" y="-468.2" font-family="Helvetica,sans-Serif" font-size="11.00">ad_window_id</text>
<polygon fill="none" stroke="black" points="8.5,-438 8.5,-460 203.5,-460 203.5,-438 8.5,-438"/>
<image xlink:href="../../images/foreignKeys.png" width="11px" height="12px" preserveAspectRatio="xMinYMin meet" x="13.5" y="-455"/>
<text text-anchor="start" x="28.5" y="-446.2" font-family="Helvetica,sans-Serif" font-size="11.00">ad_column_id</text>
<polygon fill="none" stroke="black" points="8.5,-416 8.5,-438 203.5,-438 203.5,-416 8.5,-416"/>
<image xlink:href="../../images/foreignKeys.png" width="11px" height="12px" preserveAspectRatio="xMinYMin meet" x="13.5" y="-433"/>
<text text-anchor="start" x="28.5" y="-424.2" font-family="Helvetica,sans-Serif" font-size="11.00">ad_process_id</text>
<polygon fill="none" stroke="black" points="8.5,-394 8.5,-416 203.5,-416 203.5,-394 8.5,-394"/>
<image xlink:href="../../images/foreignKeys.png" width="11px" height="12px" preserveAspectRatio="xMinYMin meet" x="13.5" y="-411"/>
<text text-anchor="start" x="28.5" y="-402.2" font-family="Helvetica,sans-Serif" font-size="11.00">ad_image_id</text>
<polygon fill="none" stroke="black" points="8.5,-372 8.5,-394 203.5,-394 203.5,-372 8.5,-372"/>
<image xlink:href="../../images/foreignKeys.png" width="11px" height="12px" preserveAspectRatio="xMinYMin meet" x="13.5" y="-389"/>
<text text-anchor="start" x="28.5" y="-380.2" font-family="Helvetica,sans-Serif" font-size="11.00">ad_columnsortorder_id</text>
<polygon fill="none" stroke="black" points="8.5,-350 8.5,-372 203.5,-372 203.5,-350 8.5,-350"/>
<image xlink:href="../../images/foreignKeys.png" width="11px" height="12px" preserveAspectRatio="xMinYMin meet" x="13.5" y="-367"/>
<text text-anchor="start" x="28.5" y="-358.2" font-family="Helvetica,sans-Serif" font-size="11.00">ad_columnsortyesno_id</text>
<polygon fill="none" stroke="black" points="8.5,-328 8.5,-350 203.5,-350 203.5,-328 8.5,-328"/>
<image xlink:href="../../images/foreignKeys.png" width="11px" height="12px" preserveAspectRatio="xMinYMin meet" x="13.5" y="-345"/>
<text text-anchor="start" x="28.5" y="-336.2" font-family="Helvetica,sans-Serif" font-size="11.00">entitytype</text>
<polygon fill="none" stroke="black" points="8.5,-306 8.5,-328 203.5,-328 203.5,-306 8.5,-306"/>
<image xlink:href="../../images/foreignKeys.png" width="11px" height="12px" preserveAspectRatio="xMinYMin meet" x="13.5" y="-323"/>
<text text-anchor="start" x="28.5" y="-314.2" font-family="Helvetica,sans-Serif" font-size="11.00">included_tab_id</text>
<polygon fill="none" stroke="black" points="8.5,-284 8.5,-306 203.5,-306 203.5,-284 8.5,-284"/>
<image xlink:href="../../images/foreignKeys.png" width="11px" height="12px" preserveAspectRatio="xMinYMin meet" x="13.5" y="-301"/>
<text text-anchor="start" x="28.5" y="-292.2" font-family="Helvetica,sans-Serif" font-size="11.00">parent_column_id</text>
<polygon fill="#ffffff" stroke="transparent" points="8.5,-262 8.5,-284 203.5,-284 203.5,-262 8.5,-262"/>
<polygon fill="none" stroke="black" points="8.5,-262 8.5,-284 203.5,-284 203.5,-262 8.5,-262"/>
<text text-anchor="start" x="28.5" y="-270.2" font-family="Helvetica,sans-Serif" font-size="11.00">ad_tab_uu</text>
<polygon fill="none" stroke="black" points="8.5,-240 8.5,-262 203.5,-262 203.5,-240 8.5,-240"/>
<image xlink:href="../../images/foreignKeys.png" width="11px" height="12px" preserveAspectRatio="xMinYMin meet" x="13.5" y="-257"/>
<text text-anchor="start" x="28.5" y="-248.2" font-family="Helvetica,sans-Serif" font-size="11.00">ad_ctxhelp_id</text>
<polygon fill="none" stroke="black" points="8.5,-222 8.5,-240 203.5,-240 203.5,-222 8.5,-222"/>
<text text-anchor="start" x="11.5" y="-228.2" font-family="Helvetica,sans-Serif" font-size="11.00">...</text>
<polygon fill="#ffffff" stroke="transparent" points="8.5,-204 8.5,-222 203.5,-222 203.5,-204 8.5,-204"/>
<polygon fill="none" stroke="black" points="8.5,-204 8.5,-222 203.5,-222 203.5,-204 8.5,-204"/>
<polygon fill="#ffffff" stroke="transparent" points="9.5,-205 9.5,-221 63.5,-221 63.5,-205 9.5,-205"/>
<text text-anchor="start" x="11.5" y="-210.2" font-family="Helvetica,sans-Serif" font-size="11.00">&lt; 13</text>
<polygon fill="#ffffff" stroke="transparent" points="63.5,-205 63.5,-221 149.5,-221 149.5,-205 63.5,-205"/>
<text text-anchor="start" x="79.5" y="-210.2" font-family="Helvetica,sans-Serif" font-size="11.00">1.508 rows</text>
<polygon fill="#ffffff" stroke="transparent" points="149.5,-205 149.5,-221 202.5,-221 202.5,-205 149.5,-205"/>
<text text-anchor="start" x="178.5" y="-210.2" font-family="Helvetica,sans-Serif" font-size="11.00">14 &gt;</text>
<polygon fill="black" stroke="black" points="63.5,-205 63.5,-221 63.5,-221 63.5,-205 63.5,-205"/>
<polygon fill="black" stroke="black" points="149.5,-205 149.5,-221 149.5,-221 149.5,-205 149.5,-205"/>
</a>
</g>
</g>
<!-- asp_tab&#45;&gt;ad_tab -->
<g id="edge2" class="edge">
<title>asp_tab:w&#45;&gt;ad_tab:e</title>
<path fill="none" stroke="black" d="M238.92,-445.63C208.89,-465.38 254.85,-559 204.5,-559"/>
<polygon fill="black" stroke="black" points="245.25,-444 253.9,-445.49 249.13,-443 253,-442 253,-442 253,-442 249.13,-443 252.1,-438.51 245.25,-444 245.25,-444"/>
<ellipse fill="none" stroke="black" cx="242.15" cy="-444.8" rx="3.2" ry="3.2"/>
</g>
<!-- asp_window -->
<g id="node4" class="node">
<title>asp_window</title>
<g id="a_node4"><a xlink:href="../../tables/asp_window.html" xlink:title="asp_window" target="_top">
<polygon fill="#ffffff" stroke="transparent" points="38.5,-37 38.5,-183 172.5,-183 172.5,-37 38.5,-37"/>
<polygon fill="#f5f5f5" stroke="transparent" points="38.5,-161 38.5,-183 172.5,-183 172.5,-161 38.5,-161"/>
<polygon fill="none" stroke="black" points="38.5,-161 38.5,-183 172.5,-183 172.5,-161 38.5,-161"/>
<text text-anchor="start" x="43.5" y="-170.2" font-family="Helvetica,sans-Serif" font-weight="bold" font-size="11.00">asp_window</text>
<text text-anchor="start" x="137.5" y="-169.2" font-family="Helvetica,sans-Serif" font-size="11.00">[table]</text>
<polygon fill="#ffffff" stroke="transparent" points="38.5,-139 38.5,-161 172.5,-161 172.5,-139 38.5,-139"/>
<polygon fill="none" stroke="black" points="38.5,-139 38.5,-161 172.5,-161 172.5,-139 38.5,-139"/>
<image xlink:href="../../images/foreignKeys.png" width="11px" height="12px" preserveAspectRatio="xMinYMin meet" x="43.5" y="-156"/>
<text text-anchor="start" x="58.5" y="-147.2" font-family="Helvetica,sans-Serif" font-size="11.00">ad_window_id</text>
<polygon fill="#ffffff" stroke="transparent" points="38.5,-117 38.5,-139 172.5,-139 172.5,-117 38.5,-117"/>
<polygon fill="none" stroke="black" points="38.5,-117 38.5,-139 172.5,-139 172.5,-117 38.5,-117"/>
<image xlink:href="../../images/foreignKeys.png" width="11px" height="12px" preserveAspectRatio="xMinYMin meet" x="43.5" y="-134"/>
<text text-anchor="start" x="58.5" y="-125.2" font-family="Helvetica,sans-Serif" font-size="11.00">asp_level_id</text>
<polygon fill="none" stroke="black" points="38.5,-95 38.5,-117 172.5,-117 172.5,-95 38.5,-95"/>
<image xlink:href="../../images/primaryKeys.png" width="11px" height="12px" preserveAspectRatio="xMinYMin meet" x="43.5" y="-112"/>
<text text-anchor="start" x="58.5" y="-103.2" font-family="Helvetica,sans-Serif" font-size="11.00">asp_window_id</text>
<polygon fill="#ffffff" stroke="transparent" points="38.5,-73 38.5,-95 172.5,-95 172.5,-73 38.5,-73"/>
<polygon fill="none" stroke="black" points="38.5,-73 38.5,-95 172.5,-95 172.5,-73 38.5,-73"/>
<text text-anchor="start" x="58.5" y="-81.2" font-family="Helvetica,sans-Serif" font-size="11.00">asp_window_uu</text>
<polygon fill="none" stroke="black" points="38.5,-55 38.5,-73 172.5,-73 172.5,-55 38.5,-55"/>
<text text-anchor="start" x="41.5" y="-61.2" font-family="Helvetica,sans-Serif" font-size="11.00">...</text>
<polygon fill="#ffffff" stroke="transparent" points="38.5,-37 38.5,-55 172.5,-55 172.5,-37 38.5,-37"/>
<polygon fill="none" stroke="black" points="38.5,-37 38.5,-55 172.5,-55 172.5,-37 38.5,-37"/>
<polygon fill="#ffffff" stroke="transparent" points="39.5,-38 39.5,-54 86.5,-54 86.5,-38 39.5,-38"/>
<text text-anchor="start" x="41.5" y="-43.2" font-family="Helvetica,sans-Serif" font-size="11.00">&lt; 2</text>
<polygon fill="#ffffff" stroke="transparent" points="86.5,-38 86.5,-54 124.5,-54 124.5,-38 86.5,-38"/>
<text text-anchor="start" x="102" y="-43.2" font-family="Helvetica,sans-Serif" font-size="11.00"> &#160;</text>
<polygon fill="#ffffff" stroke="transparent" points="124.5,-38 124.5,-54 171.5,-54 171.5,-38 124.5,-38"/>
<text text-anchor="start" x="153.5" y="-43.2" font-family="Helvetica,sans-Serif" font-size="11.00">1 &gt;</text>
<polygon fill="black" stroke="black" points="86.5,-38 86.5,-54 86.5,-54 86.5,-38 86.5,-38"/>
<polygon fill="black" stroke="black" points="124.5,-38 124.5,-54 124.5,-54 124.5,-38 124.5,-38"/>
</a>
</g>
</g>
<!-- asp_tab&#45;&gt;asp_window -->
<g id="edge3" class="edge">
<title>asp_tab:w&#45;&gt;asp_window:e</title>
<path fill="none" stroke="black" d="M238.61,-219.36C197.8,-202.09 230.39,-106 173.5,-106"/>
<polygon fill="black" stroke="black" points="245.13,-220.56 252.35,-225.54 249.07,-221.28 253,-222 253,-222 253,-222 249.07,-221.28 253.65,-218.46 245.13,-220.56 245.13,-220.56"/>
<ellipse fill="none" stroke="black" cx="241.98" cy="-219.98" rx="3.2" ry="3.2"/>
</g>
</g>
</svg>
