<?xml version="1.0" encoding="UTF-8" standalone="no"?>
<!DOCTYPE svg PUBLIC "-//W3C//DTD SVG 1.1//EN"
 "http://www.w3.org/Graphics/SVG/1.1/DTD/svg11.dtd">
<!-- Generated by graphviz version 2.43.0 (0)
 -->
<!-- Title: oneDegreeRelationshipsDiagram Pages: 1 -->
<svg width="511pt" height="505pt"
 viewBox="0.00 0.00 511.00 505.00" xmlns="http://www.w3.org/2000/svg" xmlns:xlink="http://www.w3.org/1999/xlink">
<g id="graph0" class="graph" transform="scale(1 1) rotate(0) translate(4 501)">
<title>oneDegreeRelationshipsDiagram</title>
<polygon fill="#ffffff" stroke="transparent" points="-4,4 -4,-501 507,-501 507,4 -4,4"/>
<text text-anchor="middle" x="71.5" y="-7.2" font-family="Helvetica,sans-Serif" font-size="11.00">Generated by SchemaSpy</text>
<!-- c_charge -->
<g id="node1" class="node">
<title>c_charge</title>
<g id="a_node1"><a xlink:href="../../tables/c_charge.html" xlink:title="c_charge" target="_top">
<polygon fill="#ffffff" stroke="transparent" points="293,-281 293,-493 489,-493 489,-281 293,-281"/>
<polygon fill="#f5f5f5" stroke="transparent" points="293,-471 293,-493 489,-493 489,-471 293,-471"/>
<polygon fill="none" stroke="black" points="293,-471 293,-493 489,-493 489,-471 293,-471"/>
<text text-anchor="start" x="298" y="-480.2" font-family="Helvetica,sans-Serif" font-weight="bold" font-size="11.00">c_charge</text>
<text text-anchor="start" x="454" y="-479.2" font-family="Helvetica,sans-Serif" font-size="11.00">[table]</text>
<polygon fill="none" stroke="black" points="293,-449 293,-471 489,-471 489,-449 293,-449"/>
<image xlink:href="../../images/primaryKeys.png" width="11px" height="12px" preserveAspectRatio="xMinYMin meet" x="298" y="-466"/>
<text text-anchor="start" x="313" y="-457.2" font-family="Helvetica,sans-Serif" font-size="11.00">c_charge_id</text>
<polygon fill="#ffffff" stroke="transparent" points="293,-427 293,-449 489,-449 489,-427 293,-427"/>
<polygon fill="none" stroke="black" points="293,-427 293,-449 489,-449 489,-427 293,-427"/>
<text text-anchor="start" x="313" y="-435.2" font-family="Helvetica,sans-Serif" font-size="11.00">ad_client_id</text>
<polygon fill="#ffffff" stroke="transparent" points="293,-405 293,-427 489,-427 489,-405 293,-405"/>
<polygon fill="none" stroke="black" points="293,-405 293,-427 489,-427 489,-405 293,-405"/>
<text text-anchor="start" x="313" y="-413.2" font-family="Helvetica,sans-Serif" font-size="11.00">name</text>
<polygon fill="none" stroke="black" points="293,-383 293,-405 489,-405 489,-383 293,-383"/>
<image xlink:href="../../images/foreignKeys.png" width="11px" height="12px" preserveAspectRatio="xMinYMin meet" x="298" y="-400"/>
<text text-anchor="start" x="313" y="-391.2" font-family="Helvetica,sans-Serif" font-size="11.00">c_taxcategory_id</text>
<polygon fill="none" stroke="black" points="293,-361 293,-383 489,-383 489,-361 293,-361"/>
<image xlink:href="../../images/foreignKeys.png" width="11px" height="12px" preserveAspectRatio="xMinYMin meet" x="298" y="-378"/>
<text text-anchor="start" x="313" y="-369.2" font-family="Helvetica,sans-Serif" font-size="11.00">c_bpartner_id</text>
<polygon fill="none" stroke="black" points="293,-339 293,-361 489,-361 489,-339 293,-339"/>
<image xlink:href="../../images/foreignKeys.png" width="11px" height="12px" preserveAspectRatio="xMinYMin meet" x="298" y="-356"/>
<text text-anchor="start" x="313" y="-347.2" font-family="Helvetica,sans-Serif" font-size="11.00">c_chargetype_id</text>
<polygon fill="#ffffff" stroke="transparent" points="293,-317 293,-339 489,-339 489,-317 293,-317"/>
<polygon fill="none" stroke="black" points="293,-317 293,-339 489,-339 489,-317 293,-317"/>
<text text-anchor="start" x="313" y="-325.2" font-family="Helvetica,sans-Serif" font-size="11.00">c_charge_uu</text>
<polygon fill="none" stroke="black" points="293,-299 293,-317 489,-317 489,-299 293,-299"/>
<text text-anchor="start" x="296" y="-305.2" font-family="Helvetica,sans-Serif" font-size="11.00">...</text>
<polygon fill="#ffffff" stroke="transparent" points="293,-281 293,-299 489,-299 489,-281 293,-281"/>
<polygon fill="none" stroke="black" points="293,-281 293,-299 489,-299 489,-281 293,-281"/>
<polygon fill="#ffffff" stroke="transparent" points="294,-282 294,-298 347,-298 347,-282 294,-282"/>
<text text-anchor="start" x="296" y="-287.2" font-family="Helvetica,sans-Serif" font-size="11.00">&lt; 3</text>
<polygon fill="#ffffff" stroke="transparent" points="347,-282 347,-298 429,-298 429,-282 347,-282"/>
<text text-anchor="start" x="365.5" y="-287.2" font-family="Helvetica,sans-Serif" font-size="11.00">266 rows</text>
<polygon fill="#ffffff" stroke="transparent" points="429,-282 429,-298 488,-298 488,-282 429,-282"/>
<text text-anchor="start" x="464" y="-287.2" font-family="Helvetica,sans-Serif" font-size="11.00">38 &gt;</text>
<polygon fill="black" stroke="black" points="347,-282 347,-298 347,-298 347,-282 347,-282"/>
<polygon fill="black" stroke="black" points="429,-282 429,-298 429,-298 429,-282 429,-282"/>
</a>
</g>
</g>
<!-- c_chargetype -->
<g id="node2" class="node">
<title>c_chargetype</title>
<g id="a_node2"><a xlink:href="../../tables/c_chargetype.html" xlink:title="c_chargetype" target="_top">
<polygon fill="#ffffff" stroke="transparent" points="8,-37 8,-367 238,-367 238,-37 8,-37"/>
<polygon fill="#f5f5f5" stroke="transparent" points="10,-343 10,-365 236,-365 236,-343 10,-343"/>
<polygon fill="none" stroke="black" points="10,-343 10,-365 236,-365 236,-343 10,-343"/>
<text text-anchor="start" x="15" y="-352.2" font-family="Helvetica,sans-Serif" font-weight="bold" font-size="11.00">c_chargetype</text>
<text text-anchor="start" x="201" y="-351.2" font-family="Helvetica,sans-Serif" font-size="11.00">[table]</text>
<polygon fill="none" stroke="black" points="10,-321 10,-343 153,-343 153,-321 10,-321"/>
<text text-anchor="start" x="30" y="-329.2" font-family="Helvetica,sans-Serif" font-size="11.00">ad_client_id</text>
<polygon fill="none" stroke="black" points="153,-321 153,-343 236,-343 236,-321 153,-321"/>
<text text-anchor="start" x="156" y="-329.2" font-family="Helvetica,sans-Serif" font-size="11.00">numeric[10]</text>
<polygon fill="none" stroke="black" points="10,-299 10,-321 153,-321 153,-299 10,-299"/>
<text text-anchor="start" x="30" y="-307.2" font-family="Helvetica,sans-Serif" font-size="11.00">ad_org_id</text>
<polygon fill="none" stroke="black" points="153,-299 153,-321 236,-321 236,-299 153,-299"/>
<text text-anchor="start" x="156" y="-307.2" font-family="Helvetica,sans-Serif" font-size="11.00">numeric[10]</text>
<polygon fill="none" stroke="black" points="10,-277 10,-299 153,-299 153,-277 10,-277"/>
<image xlink:href="../../images/primaryKeys.png" width="11px" height="12px" preserveAspectRatio="xMinYMin meet" x="15" y="-294"/>
<text text-anchor="start" x="30" y="-285.2" font-family="Helvetica,sans-Serif" font-size="11.00">c_chargetype_id</text>
<polygon fill="none" stroke="black" points="153,-277 153,-299 236,-299 236,-277 153,-277"/>
<text text-anchor="start" x="156" y="-285.2" font-family="Helvetica,sans-Serif" font-size="11.00">numeric[10]</text>
<polygon fill="none" stroke="black" points="10,-255 10,-277 153,-277 153,-255 10,-255"/>
<text text-anchor="start" x="30" y="-263.2" font-family="Helvetica,sans-Serif" font-size="11.00">created</text>
<polygon fill="none" stroke="black" points="153,-255 153,-277 236,-277 236,-255 153,-255"/>
<text text-anchor="start" x="156" y="-263.2" font-family="Helvetica,sans-Serif" font-size="11.00">timestamp[29,6]</text>
<polygon fill="none" stroke="black" points="10,-233 10,-255 153,-255 153,-233 10,-233"/>
<text text-anchor="start" x="30" y="-241.2" font-family="Helvetica,sans-Serif" font-size="11.00">createdby</text>
<polygon fill="none" stroke="black" points="153,-233 153,-255 236,-255 236,-233 153,-233"/>
<text text-anchor="start" x="156" y="-241.2" font-family="Helvetica,sans-Serif" font-size="11.00">numeric[10]</text>
<polygon fill="none" stroke="black" points="10,-211 10,-233 153,-233 153,-211 10,-211"/>
<text text-anchor="start" x="30" y="-219.2" font-family="Helvetica,sans-Serif" font-size="11.00">description</text>
<polygon fill="none" stroke="black" points="153,-211 153,-233 236,-233 236,-211 153,-211"/>
<text text-anchor="start" x="156" y="-219.2" font-family="Helvetica,sans-Serif" font-size="11.00">varchar[255]</text>
<polygon fill="none" stroke="black" points="10,-189 10,-211 153,-211 153,-189 10,-189"/>
<text text-anchor="start" x="30" y="-197.2" font-family="Helvetica,sans-Serif" font-size="11.00">help</text>
<polygon fill="none" stroke="black" points="153,-189 153,-211 236,-211 236,-189 153,-189"/>
<text text-anchor="start" x="156" y="-197.2" font-family="Helvetica,sans-Serif" font-size="11.00">varchar[2000]</text>
<polygon fill="none" stroke="black" points="10,-167 10,-189 153,-189 153,-167 10,-167"/>
<text text-anchor="start" x="30" y="-175.2" font-family="Helvetica,sans-Serif" font-size="11.00">isactive</text>
<polygon fill="none" stroke="black" points="153,-167 153,-189 236,-189 236,-167 153,-167"/>
<text text-anchor="start" x="156" y="-175.2" font-family="Helvetica,sans-Serif" font-size="11.00">bpchar[1]</text>
<polygon fill="none" stroke="black" points="10,-145 10,-167 153,-167 153,-145 10,-145"/>
<text text-anchor="start" x="30" y="-153.2" font-family="Helvetica,sans-Serif" font-size="11.00">name</text>
<polygon fill="none" stroke="black" points="153,-145 153,-167 236,-167 236,-145 153,-145"/>
<text text-anchor="start" x="156" y="-153.2" font-family="Helvetica,sans-Serif" font-size="11.00">varchar[60]</text>
<polygon fill="none" stroke="black" points="10,-123 10,-145 153,-145 153,-123 10,-123"/>
<text text-anchor="start" x="30" y="-131.2" font-family="Helvetica,sans-Serif" font-size="11.00">updated</text>
<polygon fill="none" stroke="black" points="153,-123 153,-145 236,-145 236,-123 153,-123"/>
<text text-anchor="start" x="156" y="-131.2" font-family="Helvetica,sans-Serif" font-size="11.00">timestamp[29,6]</text>
<polygon fill="none" stroke="black" points="10,-101 10,-123 153,-123 153,-101 10,-101"/>
<text text-anchor="start" x="30" y="-109.2" font-family="Helvetica,sans-Serif" font-size="11.00">updatedby</text>
<polygon fill="none" stroke="black" points="153,-101 153,-123 236,-123 236,-101 153,-101"/>
<text text-anchor="start" x="156" y="-109.2" font-family="Helvetica,sans-Serif" font-size="11.00">numeric[10]</text>
<polygon fill="none" stroke="black" points="10,-79 10,-101 153,-101 153,-79 10,-79"/>
<text text-anchor="start" x="30" y="-87.2" font-family="Helvetica,sans-Serif" font-size="11.00">value</text>
<polygon fill="none" stroke="black" points="153,-79 153,-101 236,-101 236,-79 153,-79"/>
<text text-anchor="start" x="156" y="-87.2" font-family="Helvetica,sans-Serif" font-size="11.00">varchar[40]</text>
<polygon fill="#ffffff" stroke="transparent" points="10,-57 10,-79 153,-79 153,-57 10,-57"/>
<polygon fill="none" stroke="black" points="10,-57 10,-79 153,-79 153,-57 10,-57"/>
<text text-anchor="start" x="30" y="-65.2" font-family="Helvetica,sans-Serif" font-size="11.00">c_chargetype_uu</text>
<polygon fill="none" stroke="black" points="153,-57 153,-79 236,-79 236,-57 153,-57"/>
<text text-anchor="start" x="156" y="-65.2" font-family="Helvetica,sans-Serif" font-size="11.00">varchar[36]</text>
<polygon fill="#ffffff" stroke="transparent" points="10,-39 10,-57 236,-57 236,-39 10,-39"/>
<polygon fill="none" stroke="black" points="10,-39 10,-57 236,-57 236,-39 10,-39"/>
<polygon fill="#ffffff" stroke="transparent" points="11,-40 11,-56 89,-56 89,-40 11,-40"/>
<text text-anchor="start" x="13" y="-45.2" font-family="Helvetica,sans-Serif" font-size="11.00">&lt; 0</text>
<polygon fill="#ffffff" stroke="transparent" points="89,-40 89,-56 158,-56 158,-40 89,-40"/>
<text text-anchor="start" x="120" y="-45.2" font-family="Helvetica,sans-Serif" font-size="11.00"> &#160;</text>
<polygon fill="#ffffff" stroke="transparent" points="158,-40 158,-56 235,-56 235,-40 158,-40"/>
<text text-anchor="start" x="217" y="-45.2" font-family="Helvetica,sans-Serif" font-size="11.00">2 &gt;</text>
<polygon fill="black" stroke="black" points="89,-40 89,-56 89,-56 89,-40 89,-40"/>
<polygon fill="black" stroke="black" points="158,-40 158,-56 158,-56 158,-40 158,-40"/>
<polygon fill="none" stroke="black" stroke-width="2" points="9,-38 9,-366 237,-366 237,-38 9,-38"/>
</a>
</g>
</g>
<!-- c_charge&#45;&gt;c_chargetype -->
<g id="edge1" class="edge">
<title>c_charge:w&#45;&gt;c_chargetype:e</title>
<path fill="none" stroke="black" d="M277.86,-345.54C259.8,-331.33 267.79,-288 237,-288"/>
<polygon fill="black" stroke="black" points="284.37,-347.59 290.92,-353.43 288.19,-348.8 292,-350 292,-350 292,-350 288.19,-348.8 293.08,-346.57 284.37,-347.59 284.37,-347.59"/>
<ellipse fill="none" stroke="black" cx="281.32" cy="-346.63" rx="3.2" ry="3.2"/>
</g>
<!-- c_chargetype_doctype -->
<g id="node3" class="node">
<title>c_chargetype_doctype</title>
<g id="a_node3"><a xlink:href="../../tables/c_chargetype_doctype.html" xlink:title="c_chargetype_doctype" target="_top">
<polygon fill="#ffffff" stroke="transparent" points="287,-136 287,-260 495,-260 495,-136 287,-136"/>
<polygon fill="#f5f5f5" stroke="transparent" points="287,-238 287,-260 495,-260 495,-238 287,-238"/>
<polygon fill="none" stroke="black" points="287,-238 287,-260 495,-260 495,-238 287,-238"/>
<text text-anchor="start" x="292" y="-247.2" font-family="Helvetica,sans-Serif" font-weight="bold" font-size="11.00">c_chargetype_doctype</text>
<text text-anchor="start" x="460" y="-246.2" font-family="Helvetica,sans-Serif" font-size="11.00">[table]</text>
<polygon fill="none" stroke="black" points="287,-216 287,-238 495,-238 495,-216 287,-216"/>
<image xlink:href="../../images/primaryKeys.png" width="11px" height="12px" preserveAspectRatio="xMinYMin meet" x="292" y="-233"/>
<text text-anchor="start" x="307" y="-224.2" font-family="Helvetica,sans-Serif" font-size="11.00">c_chargetype_id</text>
<polygon fill="none" stroke="black" points="287,-194 287,-216 495,-216 495,-194 287,-194"/>
<image xlink:href="../../images/primaryKeys.png" width="11px" height="12px" preserveAspectRatio="xMinYMin meet" x="292" y="-211"/>
<text text-anchor="start" x="307" y="-202.2" font-family="Helvetica,sans-Serif" font-size="11.00">c_doctype_id</text>
<polygon fill="#ffffff" stroke="transparent" points="287,-172 287,-194 495,-194 495,-172 287,-172"/>
<polygon fill="none" stroke="black" points="287,-172 287,-194 495,-194 495,-172 287,-172"/>
<text text-anchor="start" x="307" y="-180.2" font-family="Helvetica,sans-Serif" font-size="11.00">c_chargetype_doctype_uu</text>
<polygon fill="none" stroke="black" points="287,-154 287,-172 495,-172 495,-154 287,-154"/>
<text text-anchor="start" x="290" y="-160.2" font-family="Helvetica,sans-Serif" font-size="11.00">...</text>
<polygon fill="#ffffff" stroke="transparent" points="287,-136 287,-154 495,-154 495,-136 287,-136"/>
<polygon fill="none" stroke="black" points="287,-136 287,-154 495,-154 495,-136 287,-136"/>
<polygon fill="#ffffff" stroke="transparent" points="288,-137 288,-153 363,-153 363,-137 288,-137"/>
<text text-anchor="start" x="290" y="-142.2" font-family="Helvetica,sans-Serif" font-size="11.00">&lt; 2</text>
<polygon fill="#ffffff" stroke="transparent" points="363,-137 363,-153 429,-153 429,-137 363,-137"/>
<text text-anchor="start" x="392.5" y="-142.2" font-family="Helvetica,sans-Serif" font-size="11.00"> &#160;</text>
<polygon fill="#ffffff" stroke="transparent" points="429,-137 429,-153 494,-153 494,-137 429,-137"/>
<text text-anchor="start" x="485" y="-142.2" font-family="Helvetica,sans-Serif" font-size="11.00"> &#160;</text>
<polygon fill="black" stroke="black" points="363,-137 363,-153 363,-153 363,-137 363,-137"/>
<polygon fill="black" stroke="black" points="429,-137 429,-153 429,-153 429,-137 429,-137"/>
</a>
</g>
</g>
<!-- c_chargetype_doctype&#45;&gt;c_chargetype -->
<g id="edge2" class="edge">
<title>c_chargetype_doctype:w&#45;&gt;c_chargetype:e</title>
<path fill="none" stroke="black" d="M272.41,-231.79C256.65,-246.17 265.8,-288 237,-288"/>
<polygon fill="black" stroke="black" points="278.45,-229.66 287.2,-230.4 282.23,-228.33 286,-227 286,-227 286,-227 282.23,-228.33 284.8,-223.6 278.45,-229.66 278.45,-229.66"/>
<ellipse fill="none" stroke="black" cx="275.44" cy="-230.72" rx="3.2" ry="3.2"/>
</g>
</g>
</svg>
