<?xml version="1.0" encoding="UTF-8" standalone="no"?>
<!DOCTYPE svg PUBLIC "-//W3C//DTD SVG 1.1//EN"
 "http://www.w3.org/Graphics/SVG/1.1/DTD/svg11.dtd">
<!-- Generated by graphviz version 2.43.0 (0)
 -->
<!-- Title: oneDegreeRelationshipsDiagram Pages: 1 -->
<svg width="619pt" height="481pt"
 viewBox="0.00 0.00 619.00 481.00" xmlns="http://www.w3.org/2000/svg" xmlns:xlink="http://www.w3.org/1999/xlink">
<g id="graph0" class="graph" transform="scale(1 1) rotate(0) translate(4 477)">
<title>oneDegreeRelationshipsDiagram</title>
<polygon fill="#ffffff" stroke="transparent" points="-4,4 -4,-477 615,-477 615,4 -4,4"/>
<text text-anchor="middle" x="71.5" y="-7.2" font-family="Helvetica,sans-Serif" font-size="11.00">Generated by SchemaSpy</text>
<!-- c_campaign -->
<g id="node1" class="node">
<title>c_campaign</title>
<g id="a_node1"><a xlink:href="../../tables/c_campaign.html" xlink:title="c_campaign" target="_top">
<polygon fill="#ffffff" stroke="transparent" points="472,-301 472,-469 603,-469 603,-301 472,-301"/>
<polygon fill="#f5f5f5" stroke="transparent" points="472.5,-447 472.5,-469 603.5,-469 603.5,-447 472.5,-447"/>
<polygon fill="none" stroke="black" points="472.5,-447 472.5,-469 603.5,-469 603.5,-447 472.5,-447"/>
<text text-anchor="start" x="477.5" y="-456.2" font-family="Helvetica,sans-Serif" font-weight="bold" font-size="11.00">c_campaign</text>
<text text-anchor="start" x="568.5" y="-455.2" font-family="Helvetica,sans-Serif" font-size="11.00">[table]</text>
<polygon fill="none" stroke="black" points="472.5,-425 472.5,-447 603.5,-447 603.5,-425 472.5,-425"/>
<image xlink:href="../../images/primaryKeys.png" width="11px" height="12px" preserveAspectRatio="xMinYMin meet" x="477.5" y="-442"/>
<text text-anchor="start" x="492.5" y="-433.2" font-family="Helvetica,sans-Serif" font-size="11.00">c_campaign_id</text>
<polygon fill="#ffffff" stroke="transparent" points="472.5,-403 472.5,-425 603.5,-425 603.5,-403 472.5,-403"/>
<polygon fill="none" stroke="black" points="472.5,-403 472.5,-425 603.5,-425 603.5,-403 472.5,-403"/>
<text text-anchor="start" x="492.5" y="-411.2" font-family="Helvetica,sans-Serif" font-size="11.00">ad_client_id</text>
<polygon fill="#ffffff" stroke="transparent" points="472.5,-381 472.5,-403 603.5,-403 603.5,-381 472.5,-381"/>
<polygon fill="none" stroke="black" points="472.5,-381 472.5,-403 603.5,-403 603.5,-381 472.5,-381"/>
<text text-anchor="start" x="492.5" y="-389.2" font-family="Helvetica,sans-Serif" font-size="11.00">value</text>
<polygon fill="none" stroke="black" points="472.5,-359 472.5,-381 603.5,-381 603.5,-359 472.5,-359"/>
<image xlink:href="../../images/foreignKeys.png" width="11px" height="12px" preserveAspectRatio="xMinYMin meet" x="477.5" y="-376"/>
<text text-anchor="start" x="492.5" y="-367.2" font-family="Helvetica,sans-Serif" font-size="11.00">c_channel_id</text>
<polygon fill="#ffffff" stroke="transparent" points="472.5,-337 472.5,-359 603.5,-359 603.5,-337 472.5,-337"/>
<polygon fill="none" stroke="black" points="472.5,-337 472.5,-359 603.5,-359 603.5,-337 472.5,-337"/>
<text text-anchor="start" x="492.5" y="-345.2" font-family="Helvetica,sans-Serif" font-size="11.00">c_campaign_uu</text>
<polygon fill="none" stroke="black" points="472.5,-319 472.5,-337 603.5,-337 603.5,-319 472.5,-319"/>
<text text-anchor="start" x="475.5" y="-325.2" font-family="Helvetica,sans-Serif" font-size="11.00">...</text>
<polygon fill="#ffffff" stroke="transparent" points="472.5,-301 472.5,-319 603.5,-319 603.5,-301 472.5,-301"/>
<polygon fill="none" stroke="black" points="472.5,-301 472.5,-319 603.5,-319 603.5,-301 472.5,-301"/>
<polygon fill="#ffffff" stroke="transparent" points="473.5,-302 473.5,-318 510.5,-318 510.5,-302 473.5,-302"/>
<text text-anchor="start" x="475.5" y="-307.2" font-family="Helvetica,sans-Serif" font-size="11.00">&lt; 1</text>
<polygon fill="#ffffff" stroke="transparent" points="510.5,-302 510.5,-318 559.5,-318 559.5,-302 510.5,-302"/>
<text text-anchor="start" x="521" y="-307.2" font-family="Helvetica,sans-Serif" font-size="11.00">1 row</text>
<polygon fill="#ffffff" stroke="transparent" points="559.5,-302 559.5,-318 602.5,-318 602.5,-302 559.5,-302"/>
<text text-anchor="start" x="578.5" y="-307.2" font-family="Helvetica,sans-Serif" font-size="11.00">50 &gt;</text>
<polygon fill="black" stroke="black" points="510.5,-302 510.5,-318 510.5,-318 510.5,-302 510.5,-302"/>
<polygon fill="black" stroke="black" points="559.5,-302 559.5,-318 559.5,-318 559.5,-302 559.5,-302"/>
</a>
</g>
</g>
<!-- c_channel -->
<g id="node2" class="node">
<title>c_channel</title>
<g id="a_node2"><a xlink:href="../../tables/c_channel.html" xlink:title="c_channel" target="_top">
<polygon fill="#ffffff" stroke="transparent" points="199,-97 199,-405 423,-405 423,-97 199,-97"/>
<polygon fill="#f5f5f5" stroke="transparent" points="201,-381 201,-403 421,-403 421,-381 201,-381"/>
<polygon fill="none" stroke="black" points="201,-381 201,-403 421,-403 421,-381 201,-381"/>
<text text-anchor="start" x="206" y="-390.2" font-family="Helvetica,sans-Serif" font-weight="bold" font-size="11.00">c_channel</text>
<text text-anchor="start" x="386" y="-389.2" font-family="Helvetica,sans-Serif" font-size="11.00">[table]</text>
<polygon fill="none" stroke="black" points="201,-359 201,-381 338,-381 338,-359 201,-359"/>
<image xlink:href="../../images/primaryKeys.png" width="11px" height="12px" preserveAspectRatio="xMinYMin meet" x="206" y="-376"/>
<text text-anchor="start" x="221" y="-367.2" font-family="Helvetica,sans-Serif" font-size="11.00">c_channel_id</text>
<polygon fill="none" stroke="black" points="338,-359 338,-381 421,-381 421,-359 338,-359"/>
<text text-anchor="start" x="341" y="-367.2" font-family="Helvetica,sans-Serif" font-size="11.00">numeric[10]</text>
<polygon fill="#ffffff" stroke="transparent" points="201,-337 201,-359 338,-359 338,-337 201,-337"/>
<polygon fill="none" stroke="black" points="201,-337 201,-359 338,-359 338,-337 201,-337"/>
<text text-anchor="start" x="221" y="-345.2" font-family="Helvetica,sans-Serif" font-size="11.00">ad_client_id</text>
<polygon fill="none" stroke="black" points="338,-337 338,-359 421,-359 421,-337 338,-337"/>
<text text-anchor="start" x="341" y="-345.2" font-family="Helvetica,sans-Serif" font-size="11.00">numeric[10]</text>
<polygon fill="none" stroke="black" points="201,-315 201,-337 338,-337 338,-315 201,-315"/>
<text text-anchor="start" x="221" y="-323.2" font-family="Helvetica,sans-Serif" font-size="11.00">ad_org_id</text>
<polygon fill="none" stroke="black" points="338,-315 338,-337 421,-337 421,-315 338,-315"/>
<text text-anchor="start" x="341" y="-323.2" font-family="Helvetica,sans-Serif" font-size="11.00">numeric[10]</text>
<polygon fill="none" stroke="black" points="201,-293 201,-315 338,-315 338,-293 201,-293"/>
<text text-anchor="start" x="221" y="-301.2" font-family="Helvetica,sans-Serif" font-size="11.00">isactive</text>
<polygon fill="none" stroke="black" points="338,-293 338,-315 421,-315 421,-293 338,-293"/>
<text text-anchor="start" x="341" y="-301.2" font-family="Helvetica,sans-Serif" font-size="11.00">bpchar[1]</text>
<polygon fill="none" stroke="black" points="201,-271 201,-293 338,-293 338,-271 201,-271"/>
<text text-anchor="start" x="221" y="-279.2" font-family="Helvetica,sans-Serif" font-size="11.00">created</text>
<polygon fill="none" stroke="black" points="338,-271 338,-293 421,-293 421,-271 338,-271"/>
<text text-anchor="start" x="341" y="-279.2" font-family="Helvetica,sans-Serif" font-size="11.00">timestamp[29,6]</text>
<polygon fill="none" stroke="black" points="201,-249 201,-271 338,-271 338,-249 201,-249"/>
<text text-anchor="start" x="221" y="-257.2" font-family="Helvetica,sans-Serif" font-size="11.00">createdby</text>
<polygon fill="none" stroke="black" points="338,-249 338,-271 421,-271 421,-249 338,-249"/>
<text text-anchor="start" x="341" y="-257.2" font-family="Helvetica,sans-Serif" font-size="11.00">numeric[10]</text>
<polygon fill="none" stroke="black" points="201,-227 201,-249 338,-249 338,-227 201,-227"/>
<text text-anchor="start" x="221" y="-235.2" font-family="Helvetica,sans-Serif" font-size="11.00">updated</text>
<polygon fill="none" stroke="black" points="338,-227 338,-249 421,-249 421,-227 338,-227"/>
<text text-anchor="start" x="341" y="-235.2" font-family="Helvetica,sans-Serif" font-size="11.00">timestamp[29,6]</text>
<polygon fill="none" stroke="black" points="201,-205 201,-227 338,-227 338,-205 201,-205"/>
<text text-anchor="start" x="221" y="-213.2" font-family="Helvetica,sans-Serif" font-size="11.00">updatedby</text>
<polygon fill="none" stroke="black" points="338,-205 338,-227 421,-227 421,-205 338,-205"/>
<text text-anchor="start" x="341" y="-213.2" font-family="Helvetica,sans-Serif" font-size="11.00">numeric[10]</text>
<polygon fill="#ffffff" stroke="transparent" points="201,-183 201,-205 338,-205 338,-183 201,-183"/>
<polygon fill="none" stroke="black" points="201,-183 201,-205 338,-205 338,-183 201,-183"/>
<text text-anchor="start" x="221" y="-191.2" font-family="Helvetica,sans-Serif" font-size="11.00">name</text>
<polygon fill="none" stroke="black" points="338,-183 338,-205 421,-205 421,-183 338,-183"/>
<text text-anchor="start" x="341" y="-191.2" font-family="Helvetica,sans-Serif" font-size="11.00">varchar[60]</text>
<polygon fill="none" stroke="black" points="201,-161 201,-183 338,-183 338,-161 201,-161"/>
<text text-anchor="start" x="221" y="-169.2" font-family="Helvetica,sans-Serif" font-size="11.00">description</text>
<polygon fill="none" stroke="black" points="338,-161 338,-183 421,-183 421,-161 338,-161"/>
<text text-anchor="start" x="341" y="-169.2" font-family="Helvetica,sans-Serif" font-size="11.00">varchar[255]</text>
<polygon fill="none" stroke="black" points="201,-139 201,-161 338,-161 338,-139 201,-139"/>
<image xlink:href="../../images/foreignKeys.png" width="11px" height="12px" preserveAspectRatio="xMinYMin meet" x="206" y="-156"/>
<text text-anchor="start" x="221" y="-147.2" font-family="Helvetica,sans-Serif" font-size="11.00">ad_printcolor_id</text>
<polygon fill="none" stroke="black" points="338,-139 338,-161 421,-161 421,-139 338,-139"/>
<text text-anchor="start" x="341" y="-147.2" font-family="Helvetica,sans-Serif" font-size="11.00">numeric[10]</text>
<polygon fill="#ffffff" stroke="transparent" points="201,-117 201,-139 338,-139 338,-117 201,-117"/>
<polygon fill="none" stroke="black" points="201,-117 201,-139 338,-139 338,-117 201,-117"/>
<text text-anchor="start" x="221" y="-125.2" font-family="Helvetica,sans-Serif" font-size="11.00">c_channel_uu</text>
<polygon fill="none" stroke="black" points="338,-117 338,-139 421,-139 421,-117 338,-117"/>
<text text-anchor="start" x="341" y="-125.2" font-family="Helvetica,sans-Serif" font-size="11.00">varchar[36]</text>
<polygon fill="#ffffff" stroke="transparent" points="201,-99 201,-117 421,-117 421,-99 201,-99"/>
<polygon fill="none" stroke="black" points="201,-99 201,-117 421,-117 421,-99 201,-99"/>
<polygon fill="#ffffff" stroke="transparent" points="202,-100 202,-116 271,-116 271,-100 202,-100"/>
<text text-anchor="start" x="204" y="-105.2" font-family="Helvetica,sans-Serif" font-size="11.00">&lt; 1</text>
<polygon fill="#ffffff" stroke="transparent" points="271,-100 271,-116 352,-116 352,-100 271,-100"/>
<text text-anchor="start" x="297.5" y="-105.2" font-family="Helvetica,sans-Serif" font-size="11.00">1 row</text>
<polygon fill="#ffffff" stroke="transparent" points="352,-100 352,-116 420,-116 420,-100 352,-100"/>
<text text-anchor="start" x="402" y="-105.2" font-family="Helvetica,sans-Serif" font-size="11.00">1 &gt;</text>
<polygon fill="black" stroke="black" points="271,-100 271,-116 271,-116 271,-100 271,-100"/>
<polygon fill="black" stroke="black" points="352,-100 352,-116 352,-116 352,-100 352,-100"/>
<polygon fill="none" stroke="black" stroke-width="2" points="200,-98 200,-404 422,-404 422,-98 200,-98"/>
</a>
</g>
</g>
<!-- c_campaign&#45;&gt;c_channel -->
<g id="edge1" class="edge">
<title>c_campaign:w&#45;&gt;c_channel:e</title>
<path fill="none" stroke="black" d="M456.84,-370C445.41,-370 438.16,-370 422,-370"/>
<polygon fill="black" stroke="black" points="463.5,-370 471.5,-373.6 467.5,-370 471.5,-370 471.5,-370 471.5,-370 467.5,-370 471.5,-366.4 463.5,-370 463.5,-370"/>
<ellipse fill="none" stroke="black" cx="460.3" cy="-370" rx="3.2" ry="3.2"/>
</g>
<!-- ad_printcolor -->
<g id="node3" class="node">
<title>ad_printcolor</title>
<g id="a_node3"><a xlink:href="../../tables/ad_printcolor.html" xlink:title="ad_printcolor" target="_top">
<polygon fill="#ffffff" stroke="transparent" points="8,-37 8,-183 150,-183 150,-37 8,-37"/>
<polygon fill="#f5f5f5" stroke="transparent" points="8,-161 8,-183 150,-183 150,-161 8,-161"/>
<polygon fill="none" stroke="black" points="8,-161 8,-183 150,-183 150,-161 8,-161"/>
<text text-anchor="start" x="13" y="-170.2" font-family="Helvetica,sans-Serif" font-weight="bold" font-size="11.00">ad_printcolor</text>
<text text-anchor="start" x="115" y="-169.2" font-family="Helvetica,sans-Serif" font-size="11.00">[table]</text>
<polygon fill="none" stroke="black" points="8,-139 8,-161 150,-161 150,-139 8,-139"/>
<image xlink:href="../../images/primaryKeys.png" width="11px" height="12px" preserveAspectRatio="xMinYMin meet" x="13" y="-156"/>
<text text-anchor="start" x="28" y="-147.2" font-family="Helvetica,sans-Serif" font-size="11.00">ad_printcolor_id</text>
<polygon fill="#ffffff" stroke="transparent" points="8,-117 8,-139 150,-139 150,-117 8,-117"/>
<polygon fill="none" stroke="black" points="8,-117 8,-139 150,-139 150,-117 8,-117"/>
<text text-anchor="start" x="28" y="-125.2" font-family="Helvetica,sans-Serif" font-size="11.00">ad_client_id</text>
<polygon fill="#ffffff" stroke="transparent" points="8,-95 8,-117 150,-117 150,-95 8,-95"/>
<polygon fill="none" stroke="black" points="8,-95 8,-117 150,-117 150,-95 8,-95"/>
<text text-anchor="start" x="28" y="-103.2" font-family="Helvetica,sans-Serif" font-size="11.00">name</text>
<polygon fill="#ffffff" stroke="transparent" points="8,-73 8,-95 150,-95 150,-73 8,-73"/>
<polygon fill="none" stroke="black" points="8,-73 8,-95 150,-95 150,-73 8,-73"/>
<text text-anchor="start" x="28" y="-81.2" font-family="Helvetica,sans-Serif" font-size="11.00">ad_printcolor_uu</text>
<polygon fill="none" stroke="black" points="8,-55 8,-73 150,-73 150,-55 8,-55"/>
<text text-anchor="start" x="11" y="-61.2" font-family="Helvetica,sans-Serif" font-size="11.00">...</text>
<polygon fill="#ffffff" stroke="transparent" points="8,-37 8,-55 150,-55 150,-37 8,-37"/>
<polygon fill="none" stroke="black" points="8,-37 8,-55 150,-55 150,-37 8,-37"/>
<polygon fill="#ffffff" stroke="transparent" points="9,-38 9,-54 40,-54 40,-38 9,-38"/>
<text text-anchor="start" x="11" y="-43.2" font-family="Helvetica,sans-Serif" font-size="11.00"> &#160;</text>
<polygon fill="#ffffff" stroke="transparent" points="40,-38 40,-54 103,-54 103,-38 40,-38"/>
<text text-anchor="start" x="52" y="-43.2" font-family="Helvetica,sans-Serif" font-size="11.00">23 rows</text>
<polygon fill="#ffffff" stroke="transparent" points="103,-38 103,-54 149,-54 149,-38 103,-38"/>
<text text-anchor="start" x="125" y="-43.2" font-family="Helvetica,sans-Serif" font-size="11.00">21 &gt;</text>
<polygon fill="black" stroke="black" points="40,-38 40,-54 40,-54 40,-38 40,-38"/>
<polygon fill="black" stroke="black" points="103,-38 103,-54 103,-54 103,-38 103,-38"/>
</a>
</g>
</g>
<!-- c_channel&#45;&gt;ad_printcolor -->
<g id="edge2" class="edge">
<title>c_channel:w&#45;&gt;ad_printcolor:e</title>
<path fill="none" stroke="black" d="M185.49,-150C174.18,-150 166.99,-150 151,-150"/>
<polygon fill="black" stroke="black" points="192,-150 200,-153.6 196,-150 200,-150 200,-150 200,-150 196,-150 200,-146.4 192,-150 192,-150"/>
<ellipse fill="none" stroke="black" cx="188.8" cy="-150" rx="3.2" ry="3.2"/>
</g>
</g>
</svg>
