<?xml version="1.0" encoding="UTF-8" standalone="no"?>
<!DOCTYPE svg PUBLIC "-//W3C//DTD SVG 1.1//EN"
 "http://www.w3.org/Graphics/SVG/1.1/DTD/svg11.dtd">
<!-- Generated by graphviz version 2.43.0 (0)
 -->
<!-- Title: oneDegreeRelationshipsDiagram Pages: 1 -->
<svg width="1372pt" height="968pt"
 viewBox="0.00 0.00 1372.00 968.00" xmlns="http://www.w3.org/2000/svg" xmlns:xlink="http://www.w3.org/1999/xlink">
<g id="graph0" class="graph" transform="scale(1 1) rotate(0) translate(4 964)">
<title>oneDegreeRelationshipsDiagram</title>
<polygon fill="#ffffff" stroke="transparent" points="-4,4 -4,-964 1368,-964 1368,4 -4,4"/>
<text text-anchor="middle" x="71.5" y="-7.2" font-family="Helvetica,sans-Serif" font-size="11.00">Generated by SchemaSpy</text>
<!-- ad_org -->
<g id="node1" class="node">
<title>ad_org</title>
<g id="a_node1"><a xlink:href="../../tables/ad_org.html" xlink:title="ad_org" target="_top">
<polygon fill="#ffffff" stroke="transparent" points="302,-600 302,-790 508,-790 508,-600 302,-600"/>
<polygon fill="#f5f5f5" stroke="transparent" points="302,-768 302,-790 508,-790 508,-768 302,-768"/>
<polygon fill="none" stroke="black" points="302,-768 302,-790 508,-790 508,-768 302,-768"/>
<text text-anchor="start" x="307" y="-777.2" font-family="Helvetica,sans-Serif" font-weight="bold" font-size="11.00">ad_org</text>
<text text-anchor="start" x="473" y="-776.2" font-family="Helvetica,sans-Serif" font-size="11.00">[table]</text>
<polygon fill="none" stroke="black" points="302,-746 302,-768 508,-768 508,-746 302,-746"/>
<image xlink:href="../../images/primaryKeys.png" width="11px" height="12px" preserveAspectRatio="xMinYMin meet" x="307" y="-763"/>
<text text-anchor="start" x="322" y="-754.2" font-family="Helvetica,sans-Serif" font-size="11.00">ad_org_id</text>
<polygon fill="#ffffff" stroke="transparent" points="302,-724 302,-746 508,-746 508,-724 302,-724"/>
<polygon fill="none" stroke="black" points="302,-724 302,-746 508,-746 508,-724 302,-724"/>
<image xlink:href="../../images/foreignKeys.png" width="11px" height="12px" preserveAspectRatio="xMinYMin meet" x="307" y="-741"/>
<text text-anchor="start" x="322" y="-732.2" font-family="Helvetica,sans-Serif" font-size="11.00">ad_client_id</text>
<polygon fill="#ffffff" stroke="transparent" points="302,-702 302,-724 508,-724 508,-702 302,-702"/>
<polygon fill="none" stroke="black" points="302,-702 302,-724 508,-724 508,-702 302,-702"/>
<text text-anchor="start" x="322" y="-710.2" font-family="Helvetica,sans-Serif" font-size="11.00">value</text>
<polygon fill="none" stroke="black" points="302,-680 302,-702 508,-702 508,-680 302,-680"/>
<image xlink:href="../../images/foreignKeys.png" width="11px" height="12px" preserveAspectRatio="xMinYMin meet" x="307" y="-697"/>
<text text-anchor="start" x="322" y="-688.2" font-family="Helvetica,sans-Serif" font-size="11.00">ad_replicationstrategy_id</text>
<polygon fill="#ffffff" stroke="transparent" points="302,-658 302,-680 508,-680 508,-658 302,-658"/>
<polygon fill="none" stroke="black" points="302,-658 302,-680 508,-680 508,-658 302,-658"/>
<text text-anchor="start" x="322" y="-666.2" font-family="Helvetica,sans-Serif" font-size="11.00">ad_org_uu</text>
<polygon fill="none" stroke="black" points="302,-636 302,-658 508,-658 508,-636 302,-636"/>
<image xlink:href="../../images/foreignKeys.png" width="11px" height="12px" preserveAspectRatio="xMinYMin meet" x="307" y="-653"/>
<text text-anchor="start" x="322" y="-644.2" font-family="Helvetica,sans-Serif" font-size="11.00">cof_c_snrange_id</text>
<polygon fill="none" stroke="black" points="302,-618 302,-636 508,-636 508,-618 302,-618"/>
<text text-anchor="start" x="305" y="-624.2" font-family="Helvetica,sans-Serif" font-size="11.00">...</text>
<polygon fill="#ffffff" stroke="transparent" points="302,-600 302,-618 508,-618 508,-600 302,-600"/>
<polygon fill="none" stroke="black" points="302,-600 302,-618 508,-618 508,-600 302,-600"/>
<polygon fill="#ffffff" stroke="transparent" points="303,-601 303,-617 362,-617 362,-601 303,-601"/>
<text text-anchor="start" x="305" y="-606.2" font-family="Helvetica,sans-Serif" font-size="11.00">&lt; 3</text>
<polygon fill="#ffffff" stroke="transparent" points="362,-601 362,-617 437,-617 437,-601 362,-601"/>
<text text-anchor="start" x="383" y="-606.2" font-family="Helvetica,sans-Serif" font-size="11.00">3 rows</text>
<polygon fill="#ffffff" stroke="transparent" points="437,-601 437,-617 507,-617 507,-601 437,-601"/>
<text text-anchor="start" x="477" y="-606.2" font-family="Helvetica,sans-Serif" font-size="11.00">285 &gt;</text>
<polygon fill="black" stroke="black" points="362,-601 362,-617 362,-617 362,-601 362,-601"/>
<polygon fill="black" stroke="black" points="437,-601 437,-617 437,-617 437,-601 437,-601"/>
</a>
</g>
</g>
<!-- ad_client -->
<g id="node2" class="node">
<title>ad_client</title>
<g id="a_node2"><a xlink:href="../../tables/ad_client.html" xlink:title="ad_client" target="_top">
<polygon fill="#ffffff" stroke="transparent" points="8,-635 8,-847 253,-847 253,-635 8,-635"/>
<polygon fill="#f5f5f5" stroke="transparent" points="8.5,-825 8.5,-847 253.5,-847 253.5,-825 8.5,-825"/>
<polygon fill="none" stroke="black" points="8.5,-825 8.5,-847 253.5,-847 253.5,-825 8.5,-825"/>
<text text-anchor="start" x="13.5" y="-834.2" font-family="Helvetica,sans-Serif" font-weight="bold" font-size="11.00">ad_client</text>
<text text-anchor="start" x="218.5" y="-833.2" font-family="Helvetica,sans-Serif" font-size="11.00">[table]</text>
<polygon fill="none" stroke="black" points="8.5,-803 8.5,-825 253.5,-825 253.5,-803 8.5,-803"/>
<image xlink:href="../../images/primaryKeys.png" width="11px" height="12px" preserveAspectRatio="xMinYMin meet" x="13.5" y="-820"/>
<text text-anchor="start" x="28.5" y="-811.2" font-family="Helvetica,sans-Serif" font-size="11.00">ad_client_id</text>
<polygon fill="#ffffff" stroke="transparent" points="8.5,-781 8.5,-803 253.5,-803 253.5,-781 8.5,-781"/>
<polygon fill="none" stroke="black" points="8.5,-781 8.5,-803 253.5,-803 253.5,-781 8.5,-781"/>
<text text-anchor="start" x="28.5" y="-789.2" font-family="Helvetica,sans-Serif" font-size="11.00">value</text>
<polygon fill="none" stroke="black" points="8.5,-759 8.5,-781 253.5,-781 253.5,-759 8.5,-759"/>
<image xlink:href="../../images/foreignKeys.png" width="11px" height="12px" preserveAspectRatio="xMinYMin meet" x="13.5" y="-776"/>
<text text-anchor="start" x="28.5" y="-767.2" font-family="Helvetica,sans-Serif" font-size="11.00">ad_language</text>
<polygon fill="none" stroke="black" points="8.5,-737 8.5,-759 253.5,-759 253.5,-737 8.5,-737"/>
<image xlink:href="../../images/foreignKeys.png" width="11px" height="12px" preserveAspectRatio="xMinYMin meet" x="13.5" y="-754"/>
<text text-anchor="start" x="28.5" y="-745.2" font-family="Helvetica,sans-Serif" font-size="11.00">ad_replicationstrategy_id</text>
<polygon fill="#ffffff" stroke="transparent" points="8.5,-715 8.5,-737 253.5,-737 253.5,-715 8.5,-715"/>
<polygon fill="none" stroke="black" points="8.5,-715 8.5,-737 253.5,-737 253.5,-715 8.5,-715"/>
<text text-anchor="start" x="28.5" y="-723.2" font-family="Helvetica,sans-Serif" font-size="11.00">ad_client_uu</text>
<polygon fill="none" stroke="black" points="8.5,-693 8.5,-715 253.5,-715 253.5,-693 8.5,-693"/>
<image xlink:href="../../images/foreignKeys.png" width="11px" height="12px" preserveAspectRatio="xMinYMin meet" x="13.5" y="-710"/>
<text text-anchor="start" x="28.5" y="-701.2" font-family="Helvetica,sans-Serif" font-size="11.00">ad_passwordrule_id</text>
<polygon fill="#ffffff" stroke="transparent" points="8.5,-671 8.5,-693 253.5,-693 253.5,-671 8.5,-671"/>
<polygon fill="none" stroke="black" points="8.5,-671 8.5,-693 253.5,-693 253.5,-671 8.5,-671"/>
<text text-anchor="start" x="28.5" y="-679.2" font-family="Helvetica,sans-Serif" font-size="11.00">loginprefix</text>
<polygon fill="none" stroke="black" points="8.5,-653 8.5,-671 253.5,-671 253.5,-653 8.5,-653"/>
<text text-anchor="start" x="11.5" y="-659.2" font-family="Helvetica,sans-Serif" font-size="11.00">...</text>
<polygon fill="#ffffff" stroke="transparent" points="8.5,-635 8.5,-653 253.5,-653 253.5,-635 8.5,-635"/>
<polygon fill="none" stroke="black" points="8.5,-635 8.5,-653 253.5,-653 253.5,-635 8.5,-635"/>
<polygon fill="#ffffff" stroke="transparent" points="9.5,-636 9.5,-652 81.5,-652 81.5,-636 9.5,-636"/>
<text text-anchor="start" x="11.5" y="-641.2" font-family="Helvetica,sans-Serif" font-size="11.00">&lt; 3</text>
<polygon fill="#ffffff" stroke="transparent" points="81.5,-636 81.5,-652 169.5,-652 169.5,-636 81.5,-636"/>
<text text-anchor="start" x="109" y="-641.2" font-family="Helvetica,sans-Serif" font-size="11.00">2 rows</text>
<polygon fill="#ffffff" stroke="transparent" points="169.5,-636 169.5,-652 252.5,-652 252.5,-636 169.5,-636"/>
<text text-anchor="start" x="222.5" y="-641.2" font-family="Helvetica,sans-Serif" font-size="11.00">205 &gt;</text>
<polygon fill="black" stroke="black" points="81.5,-636 81.5,-652 81.5,-652 81.5,-636 81.5,-636"/>
<polygon fill="black" stroke="black" points="169.5,-636 169.5,-652 169.5,-652 169.5,-636 169.5,-636"/>
</a>
</g>
</g>
<!-- ad_org&#45;&gt;ad_client -->
<g id="edge1" class="edge">
<title>ad_org:w&#45;&gt;ad_client:e</title>
<path fill="none" stroke="black" d="M287.37,-739.71C268.98,-756.71 289.19,-814 254.5,-814"/>
<polygon fill="black" stroke="black" points="293.44,-737.61 302.17,-738.4 297.22,-736.31 301,-735 301,-735 301,-735 297.22,-736.31 299.83,-731.6 293.44,-737.61 293.44,-737.61"/>
<ellipse fill="none" stroke="black" cx="290.41" cy="-738.65" rx="3.2" ry="3.2"/>
</g>
<!-- ad_user -->
<g id="node3" class="node">
<title>ad_user</title>
<g id="a_node3"><a xlink:href="../../tables/ad_user.html" xlink:title="ad_user" target="_top">
<polygon fill="#ffffff" stroke="transparent" points="557,-270 557,-834 797,-834 797,-270 557,-270"/>
<polygon fill="#f5f5f5" stroke="transparent" points="557,-812 557,-834 797,-834 797,-812 557,-812"/>
<polygon fill="none" stroke="black" points="557,-812 557,-834 797,-834 797,-812 557,-812"/>
<text text-anchor="start" x="562" y="-821.2" font-family="Helvetica,sans-Serif" font-weight="bold" font-size="11.00">ad_user</text>
<text text-anchor="start" x="762" y="-820.2" font-family="Helvetica,sans-Serif" font-size="11.00">[table]</text>
<polygon fill="none" stroke="black" points="557,-790 557,-812 797,-812 797,-790 557,-790"/>
<image xlink:href="../../images/primaryKeys.png" width="11px" height="12px" preserveAspectRatio="xMinYMin meet" x="562" y="-807"/>
<text text-anchor="start" x="577" y="-798.2" font-family="Helvetica,sans-Serif" font-size="11.00">ad_user_id</text>
<polygon fill="none" stroke="black" points="557,-768 557,-790 797,-790 797,-768 557,-768"/>
<image xlink:href="../../images/foreignKeys.png" width="11px" height="12px" preserveAspectRatio="xMinYMin meet" x="562" y="-785"/>
<text text-anchor="start" x="577" y="-776.2" font-family="Helvetica,sans-Serif" font-size="11.00">ad_client_id</text>
<polygon fill="none" stroke="black" points="557,-746 557,-768 797,-768 797,-746 557,-746"/>
<image xlink:href="../../images/foreignKeys.png" width="11px" height="12px" preserveAspectRatio="xMinYMin meet" x="562" y="-763"/>
<text text-anchor="start" x="577" y="-754.2" font-family="Helvetica,sans-Serif" font-size="11.00">ad_org_id</text>
<polygon fill="#ffffff" stroke="transparent" points="557,-724 557,-746 797,-746 797,-724 557,-724"/>
<polygon fill="none" stroke="black" points="557,-724 557,-746 797,-746 797,-724 557,-724"/>
<text text-anchor="start" x="577" y="-732.2" font-family="Helvetica,sans-Serif" font-size="11.00">name</text>
<polygon fill="#ffffff" stroke="transparent" points="557,-702 557,-724 797,-724 797,-702 557,-702"/>
<polygon fill="none" stroke="black" points="557,-702 557,-724 797,-724 797,-702 557,-702"/>
<text text-anchor="start" x="577" y="-710.2" font-family="Helvetica,sans-Serif" font-size="11.00">email</text>
<polygon fill="none" stroke="black" points="557,-680 557,-702 797,-702 797,-680 557,-680"/>
<image xlink:href="../../images/foreignKeys.png" width="11px" height="12px" preserveAspectRatio="xMinYMin meet" x="562" y="-697"/>
<text text-anchor="start" x="577" y="-688.2" font-family="Helvetica,sans-Serif" font-size="11.00">supervisor_id</text>
<polygon fill="#ffffff" stroke="transparent" points="557,-658 557,-680 797,-680 797,-658 557,-658"/>
<polygon fill="none" stroke="black" points="557,-658 557,-680 797,-680 797,-658 557,-658"/>
<image xlink:href="../../images/foreignKeys.png" width="11px" height="12px" preserveAspectRatio="xMinYMin meet" x="562" y="-675"/>
<text text-anchor="start" x="577" y="-666.2" font-family="Helvetica,sans-Serif" font-size="11.00">c_bpartner_id</text>
<polygon fill="none" stroke="black" points="557,-636 557,-658 797,-658 797,-636 557,-636"/>
<image xlink:href="../../images/foreignKeys.png" width="11px" height="12px" preserveAspectRatio="xMinYMin meet" x="562" y="-653"/>
<text text-anchor="start" x="577" y="-644.2" font-family="Helvetica,sans-Serif" font-size="11.00">c_bpartner_location_id</text>
<polygon fill="none" stroke="black" points="557,-614 557,-636 797,-636 797,-614 557,-614"/>
<image xlink:href="../../images/foreignKeys.png" width="11px" height="12px" preserveAspectRatio="xMinYMin meet" x="562" y="-631"/>
<text text-anchor="start" x="577" y="-622.2" font-family="Helvetica,sans-Serif" font-size="11.00">c_greeting_id</text>
<polygon fill="none" stroke="black" points="557,-592 557,-614 797,-614 797,-592 557,-592"/>
<image xlink:href="../../images/foreignKeys.png" width="11px" height="12px" preserveAspectRatio="xMinYMin meet" x="562" y="-609"/>
<text text-anchor="start" x="577" y="-600.2" font-family="Helvetica,sans-Serif" font-size="11.00">ad_orgtrx_id</text>
<polygon fill="none" stroke="black" points="557,-570 557,-592 797,-592 797,-570 557,-570"/>
<image xlink:href="../../images/foreignKeys.png" width="11px" height="12px" preserveAspectRatio="xMinYMin meet" x="562" y="-587"/>
<text text-anchor="start" x="577" y="-578.2" font-family="Helvetica,sans-Serif" font-size="11.00">c_job_id</text>
<polygon fill="#ffffff" stroke="transparent" points="557,-548 557,-570 797,-570 797,-548 557,-548"/>
<polygon fill="none" stroke="black" points="557,-548 557,-570 797,-570 797,-548 557,-548"/>
<text text-anchor="start" x="577" y="-556.2" font-family="Helvetica,sans-Serif" font-size="11.00">ad_user_uu</text>
<polygon fill="none" stroke="black" points="557,-526 557,-548 797,-548 797,-526 557,-526"/>
<image xlink:href="../../images/foreignKeys.png" width="11px" height="12px" preserveAspectRatio="xMinYMin meet" x="562" y="-543"/>
<text text-anchor="start" x="577" y="-534.2" font-family="Helvetica,sans-Serif" font-size="11.00">c_location_id</text>
<polygon fill="none" stroke="black" points="557,-504 557,-526 797,-526 797,-504 557,-504"/>
<image xlink:href="../../images/foreignKeys.png" width="11px" height="12px" preserveAspectRatio="xMinYMin meet" x="562" y="-521"/>
<text text-anchor="start" x="577" y="-512.2" font-family="Helvetica,sans-Serif" font-size="11.00">c_campaign_id</text>
<polygon fill="none" stroke="black" points="557,-482 557,-504 797,-504 797,-482 557,-482"/>
<image xlink:href="../../images/foreignKeys.png" width="11px" height="12px" preserveAspectRatio="xMinYMin meet" x="562" y="-499"/>
<text text-anchor="start" x="577" y="-490.2" font-family="Helvetica,sans-Serif" font-size="11.00">salesrep_id</text>
<polygon fill="none" stroke="black" points="557,-460 557,-482 797,-482 797,-460 557,-460"/>
<image xlink:href="../../images/foreignKeys.png" width="11px" height="12px" preserveAspectRatio="xMinYMin meet" x="562" y="-477"/>
<text text-anchor="start" x="577" y="-468.2" font-family="Helvetica,sans-Serif" font-size="11.00">bp_location_id</text>
<polygon fill="none" stroke="black" points="557,-438 557,-460 797,-460 797,-438 557,-438"/>
<image xlink:href="../../images/foreignKeys.png" width="11px" height="12px" preserveAspectRatio="xMinYMin meet" x="562" y="-455"/>
<text text-anchor="start" x="577" y="-446.2" font-family="Helvetica,sans-Serif" font-size="11.00">r_defaultmailtext_id</text>
<polygon fill="none" stroke="black" points="557,-416 557,-438 797,-438 797,-416 557,-416"/>
<image xlink:href="../../images/foreignKeys.png" width="11px" height="12px" preserveAspectRatio="xMinYMin meet" x="562" y="-433"/>
<text text-anchor="start" x="577" y="-424.2" font-family="Helvetica,sans-Serif" font-size="11.00">cof_c_marketsegment_id</text>
<polygon fill="none" stroke="black" points="557,-394 557,-416 797,-416 797,-394 557,-394"/>
<image xlink:href="../../images/foreignKeys.png" width="11px" height="12px" preserveAspectRatio="xMinYMin meet" x="562" y="-411"/>
<text text-anchor="start" x="577" y="-402.2" font-family="Helvetica,sans-Serif" font-size="11.00">cof_c_leadexpirationreason_id</text>
<polygon fill="none" stroke="black" points="557,-372 557,-394 797,-394 797,-372 557,-372"/>
<image xlink:href="../../images/foreignKeys.png" width="11px" height="12px" preserveAspectRatio="xMinYMin meet" x="562" y="-389"/>
<text text-anchor="start" x="577" y="-380.2" font-family="Helvetica,sans-Serif" font-size="11.00">ad_image_id</text>
<polygon fill="none" stroke="black" points="557,-350 557,-372 797,-372 797,-350 557,-350"/>
<image xlink:href="../../images/foreignKeys.png" width="11px" height="12px" preserveAspectRatio="xMinYMin meet" x="562" y="-367"/>
<text text-anchor="start" x="577" y="-358.2" font-family="Helvetica,sans-Serif" font-size="11.00">c_subscription_id</text>
<polygon fill="none" stroke="black" points="557,-328 557,-350 797,-350 797,-328 557,-328"/>
<image xlink:href="../../images/foreignKeys.png" width="11px" height="12px" preserveAspectRatio="xMinYMin meet" x="562" y="-345"/>
<text text-anchor="start" x="577" y="-336.2" font-family="Helvetica,sans-Serif" font-size="11.00">cof_responsavelindicacao_id</text>
<polygon fill="none" stroke="black" points="557,-306 557,-328 797,-328 797,-306 557,-306"/>
<image xlink:href="../../images/foreignKeys.png" width="11px" height="12px" preserveAspectRatio="xMinYMin meet" x="562" y="-323"/>
<text text-anchor="start" x="577" y="-314.2" font-family="Helvetica,sans-Serif" font-size="11.00">cof_respatribuicao_id</text>
<polygon fill="none" stroke="black" points="557,-288 557,-306 797,-306 797,-288 557,-288"/>
<text text-anchor="start" x="560" y="-294.2" font-family="Helvetica,sans-Serif" font-size="11.00">...</text>
<polygon fill="#ffffff" stroke="transparent" points="557,-270 557,-288 797,-288 797,-270 557,-270"/>
<polygon fill="none" stroke="black" points="557,-270 557,-288 797,-288 797,-270 557,-270"/>
<polygon fill="#ffffff" stroke="transparent" points="558,-271 558,-287 632,-287 632,-271 558,-271"/>
<text text-anchor="start" x="560" y="-276.2" font-family="Helvetica,sans-Serif" font-size="11.00">&lt; 19</text>
<polygon fill="#ffffff" stroke="transparent" points="632,-271 632,-287 717,-287 717,-271 632,-271"/>
<text text-anchor="start" x="658" y="-276.2" font-family="Helvetica,sans-Serif" font-size="11.00">8 rows</text>
<polygon fill="#ffffff" stroke="transparent" points="717,-271 717,-287 796,-287 796,-271 717,-271"/>
<text text-anchor="start" x="766" y="-276.2" font-family="Helvetica,sans-Serif" font-size="11.00">446 &gt;</text>
<polygon fill="black" stroke="black" points="632,-271 632,-287 632,-287 632,-271 632,-271"/>
<polygon fill="black" stroke="black" points="717,-271 717,-287 717,-287 717,-271 717,-271"/>
</a>
</g>
</g>
<!-- ad_user&#45;&gt;ad_org -->
<g id="edge3" class="edge">
<title>ad_user:w&#45;&gt;ad_org:e</title>
<path fill="none" stroke="black" d="M541.4,-757C530.93,-757 524.01,-757 509,-757"/>
<polygon fill="black" stroke="black" points="548,-757 556,-760.6 552,-757 556,-757 556,-757 556,-757 552,-757 556,-753.4 548,-757 548,-757"/>
<ellipse fill="none" stroke="black" cx="544.8" cy="-757" rx="3.2" ry="3.2"/>
</g>
<!-- ad_user&#45;&gt;ad_org -->
<g id="edge4" class="edge">
<title>ad_user:w&#45;&gt;ad_org:e</title>
<path fill="none" stroke="black" d="M541.86,-605.8C498.76,-626.68 574.83,-757 509,-757"/>
<polygon fill="black" stroke="black" points="548.15,-604.56 556.7,-606.53 552.08,-603.78 556,-603 556,-603 556,-603 552.08,-603.78 555.3,-599.47 548.15,-604.56 548.15,-604.56"/>
<ellipse fill="none" stroke="black" cx="545.01" cy="-605.18" rx="3.2" ry="3.2"/>
</g>
<!-- ad_user&#45;&gt;ad_client -->
<g id="edge2" class="edge">
<title>ad_user:w&#45;&gt;ad_client:e</title>
<path fill="none" stroke="black" d="M541.94,-782.81C533.8,-788.02 529.57,-797.15 516,-801 404.05,-832.74 370.87,-814 254.5,-814"/>
<polygon fill="black" stroke="black" points="548.28,-781.09 556.94,-782.47 552.14,-780.05 556,-779 556,-779 556,-779 552.14,-780.05 555.06,-775.53 548.28,-781.09 548.28,-781.09"/>
<ellipse fill="none" stroke="black" cx="545.19" cy="-781.93" rx="3.2" ry="3.2"/>
</g>
<!-- c_country -->
<g id="node4" class="node">
<title>c_country</title>
<g id="a_node4"><a xlink:href="../../tables/c_country.html" xlink:title="c_country" target="_top">
<polygon fill="#ffffff" stroke="transparent" points="569.5,-37 569.5,-249 784.5,-249 784.5,-37 569.5,-37"/>
<polygon fill="#f5f5f5" stroke="transparent" points="570,-227 570,-249 785,-249 785,-227 570,-227"/>
<polygon fill="none" stroke="black" points="570,-227 570,-249 785,-249 785,-227 570,-227"/>
<text text-anchor="start" x="575" y="-236.2" font-family="Helvetica,sans-Serif" font-weight="bold" font-size="11.00">c_country</text>
<text text-anchor="start" x="750" y="-235.2" font-family="Helvetica,sans-Serif" font-size="11.00">[table]</text>
<polygon fill="none" stroke="black" points="570,-205 570,-227 785,-227 785,-205 570,-205"/>
<image xlink:href="../../images/primaryKeys.png" width="11px" height="12px" preserveAspectRatio="xMinYMin meet" x="575" y="-222"/>
<text text-anchor="start" x="590" y="-213.2" font-family="Helvetica,sans-Serif" font-size="11.00">c_country_id</text>
<polygon fill="none" stroke="black" points="570,-183 570,-205 785,-205 785,-183 570,-183"/>
<image xlink:href="../../images/foreignKeys.png" width="11px" height="12px" preserveAspectRatio="xMinYMin meet" x="575" y="-200"/>
<text text-anchor="start" x="590" y="-191.2" font-family="Helvetica,sans-Serif" font-size="11.00">ad_client_id</text>
<polygon fill="none" stroke="black" points="570,-161 570,-183 785,-183 785,-161 570,-161"/>
<image xlink:href="../../images/foreignKeys.png" width="11px" height="12px" preserveAspectRatio="xMinYMin meet" x="575" y="-178"/>
<text text-anchor="start" x="590" y="-169.2" font-family="Helvetica,sans-Serif" font-size="11.00">ad_org_id</text>
<polygon fill="#ffffff" stroke="transparent" points="570,-139 570,-161 785,-161 785,-139 570,-139"/>
<polygon fill="none" stroke="black" points="570,-139 570,-161 785,-161 785,-139 570,-139"/>
<text text-anchor="start" x="590" y="-147.2" font-family="Helvetica,sans-Serif" font-size="11.00">countrycode</text>
<polygon fill="none" stroke="black" points="570,-117 570,-139 785,-139 785,-117 570,-117"/>
<image xlink:href="../../images/foreignKeys.png" width="11px" height="12px" preserveAspectRatio="xMinYMin meet" x="575" y="-134"/>
<text text-anchor="start" x="590" y="-125.2" font-family="Helvetica,sans-Serif" font-size="11.00">ad_language</text>
<polygon fill="none" stroke="black" points="570,-95 570,-117 785,-117 785,-95 570,-95"/>
<image xlink:href="../../images/foreignKeys.png" width="11px" height="12px" preserveAspectRatio="xMinYMin meet" x="575" y="-112"/>
<text text-anchor="start" x="590" y="-103.2" font-family="Helvetica,sans-Serif" font-size="11.00">c_currency_id</text>
<polygon fill="#ffffff" stroke="transparent" points="570,-73 570,-95 785,-95 785,-73 570,-73"/>
<polygon fill="none" stroke="black" points="570,-73 570,-95 785,-95 785,-73 570,-73"/>
<text text-anchor="start" x="590" y="-81.2" font-family="Helvetica,sans-Serif" font-size="11.00">c_country_uu</text>
<polygon fill="none" stroke="black" points="570,-55 570,-73 785,-73 785,-55 570,-55"/>
<text text-anchor="start" x="573" y="-61.2" font-family="Helvetica,sans-Serif" font-size="11.00">...</text>
<polygon fill="#ffffff" stroke="transparent" points="570,-37 570,-55 785,-55 785,-37 570,-37"/>
<polygon fill="none" stroke="black" points="570,-37 570,-55 785,-55 785,-37 570,-37"/>
<polygon fill="#ffffff" stroke="transparent" points="571,-38 571,-54 631,-54 631,-38 571,-38"/>
<text text-anchor="start" x="573" y="-43.2" font-family="Helvetica,sans-Serif" font-size="11.00">&lt; 5</text>
<polygon fill="#ffffff" stroke="transparent" points="631,-38 631,-54 719,-54 719,-38 631,-38"/>
<text text-anchor="start" x="652.5" y="-43.2" font-family="Helvetica,sans-Serif" font-size="11.00">251 rows</text>
<polygon fill="#ffffff" stroke="transparent" points="719,-38 719,-54 784,-54 784,-38 719,-38"/>
<text text-anchor="start" x="760" y="-43.2" font-family="Helvetica,sans-Serif" font-size="11.00">26 &gt;</text>
<polygon fill="black" stroke="black" points="631,-38 631,-54 631,-54 631,-38 631,-38"/>
<polygon fill="black" stroke="black" points="719,-38 719,-54 719,-54 719,-38 719,-38"/>
</a>
</g>
</g>
<!-- c_country&#45;&gt;ad_org -->
<g id="edge6" class="edge">
<title>c_country:w&#45;&gt;ad_org:e</title>
<path fill="none" stroke="black" d="M557.14,-180.27C512.93,-251.37 569.75,-757 509,-757"/>
<polygon fill="black" stroke="black" points="562.44,-176.58 571.06,-174.95 565.72,-174.29 569,-172 569,-172 569,-172 565.72,-174.29 566.94,-169.05 562.44,-176.58 562.44,-176.58"/>
<ellipse fill="none" stroke="black" cx="559.81" cy="-178.41" rx="3.2" ry="3.2"/>
</g>
<!-- c_country&#45;&gt;ad_client -->
<g id="edge5" class="edge">
<title>c_country:w&#45;&gt;ad_client:e</title>
<path fill="none" stroke="black" d="M554.32,-194.32C355.65,-203.28 373.7,-396.52 294,-590 274.75,-636.74 305.05,-814 254.5,-814"/>
<polygon fill="black" stroke="black" points="561,-194.18 569.08,-197.6 565,-194.09 569,-194 569,-194 569,-194 565,-194.09 568.92,-190.4 561,-194.18 561,-194.18"/>
<ellipse fill="none" stroke="black" cx="557.8" cy="-194.25" rx="3.2" ry="3.2"/>
</g>
<!-- c_countrygroup -->
<g id="node5" class="node">
<title>c_countrygroup</title>
<g id="a_node5"><a xlink:href="../../tables/c_countrygroup.html" xlink:title="c_countrygroup" target="_top">
<polygon fill="#ffffff" stroke="transparent" points="846,-728 846,-918 1005,-918 1005,-728 846,-728"/>
<polygon fill="#f5f5f5" stroke="transparent" points="846.5,-896 846.5,-918 1005.5,-918 1005.5,-896 846.5,-896"/>
<polygon fill="none" stroke="black" points="846.5,-896 846.5,-918 1005.5,-918 1005.5,-896 846.5,-896"/>
<text text-anchor="start" x="851.5" y="-905.2" font-family="Helvetica,sans-Serif" font-weight="bold" font-size="11.00">c_countrygroup</text>
<text text-anchor="start" x="970.5" y="-904.2" font-family="Helvetica,sans-Serif" font-size="11.00">[table]</text>
<polygon fill="none" stroke="black" points="846.5,-874 846.5,-896 1005.5,-896 1005.5,-874 846.5,-874"/>
<image xlink:href="../../images/foreignKeys.png" width="11px" height="12px" preserveAspectRatio="xMinYMin meet" x="851.5" y="-891"/>
<text text-anchor="start" x="866.5" y="-882.2" font-family="Helvetica,sans-Serif" font-size="11.00">ad_client_id</text>
<polygon fill="none" stroke="black" points="846.5,-852 846.5,-874 1005.5,-874 1005.5,-852 846.5,-852"/>
<image xlink:href="../../images/foreignKeys.png" width="11px" height="12px" preserveAspectRatio="xMinYMin meet" x="851.5" y="-869"/>
<text text-anchor="start" x="866.5" y="-860.2" font-family="Helvetica,sans-Serif" font-size="11.00">ad_org_id</text>
<polygon fill="none" stroke="black" points="846.5,-830 846.5,-852 1005.5,-852 1005.5,-830 846.5,-830"/>
<image xlink:href="../../images/primaryKeys.png" width="11px" height="12px" preserveAspectRatio="xMinYMin meet" x="851.5" y="-847"/>
<text text-anchor="start" x="866.5" y="-838.2" font-family="Helvetica,sans-Serif" font-size="11.00">c_countrygroup_id</text>
<polygon fill="#ffffff" stroke="transparent" points="846.5,-808 846.5,-830 1005.5,-830 1005.5,-808 846.5,-808"/>
<polygon fill="none" stroke="black" points="846.5,-808 846.5,-830 1005.5,-830 1005.5,-808 846.5,-808"/>
<text text-anchor="start" x="866.5" y="-816.2" font-family="Helvetica,sans-Serif" font-size="11.00">c_countrygroup_uu</text>
<polygon fill="none" stroke="black" points="846.5,-786 846.5,-808 1005.5,-808 1005.5,-786 846.5,-786"/>
<image xlink:href="../../images/foreignKeys.png" width="11px" height="12px" preserveAspectRatio="xMinYMin meet" x="851.5" y="-803"/>
<text text-anchor="start" x="866.5" y="-794.2" font-family="Helvetica,sans-Serif" font-size="11.00">createdby</text>
<polygon fill="none" stroke="black" points="846.5,-764 846.5,-786 1005.5,-786 1005.5,-764 846.5,-764"/>
<image xlink:href="../../images/foreignKeys.png" width="11px" height="12px" preserveAspectRatio="xMinYMin meet" x="851.5" y="-781"/>
<text text-anchor="start" x="866.5" y="-772.2" font-family="Helvetica,sans-Serif" font-size="11.00">updatedby</text>
<polygon fill="none" stroke="black" points="846.5,-746 846.5,-764 1005.5,-764 1005.5,-746 846.5,-746"/>
<text text-anchor="start" x="849.5" y="-752.2" font-family="Helvetica,sans-Serif" font-size="11.00">...</text>
<polygon fill="#ffffff" stroke="transparent" points="846.5,-728 846.5,-746 1005.5,-746 1005.5,-728 846.5,-728"/>
<polygon fill="none" stroke="black" points="846.5,-728 846.5,-746 1005.5,-746 1005.5,-728 846.5,-728"/>
<polygon fill="#ffffff" stroke="transparent" points="847.5,-729 847.5,-745 903.5,-745 903.5,-729 847.5,-729"/>
<text text-anchor="start" x="849.5" y="-734.2" font-family="Helvetica,sans-Serif" font-size="11.00">&lt; 4</text>
<polygon fill="#ffffff" stroke="transparent" points="903.5,-729 903.5,-745 949.5,-745 949.5,-729 903.5,-729"/>
<text text-anchor="start" x="923" y="-734.2" font-family="Helvetica,sans-Serif" font-size="11.00"> &#160;</text>
<polygon fill="#ffffff" stroke="transparent" points="949.5,-729 949.5,-745 1004.5,-745 1004.5,-729 949.5,-729"/>
<text text-anchor="start" x="986.5" y="-734.2" font-family="Helvetica,sans-Serif" font-size="11.00">4 &gt;</text>
<polygon fill="black" stroke="black" points="903.5,-729 903.5,-745 903.5,-745 903.5,-729 903.5,-729"/>
<polygon fill="black" stroke="black" points="949.5,-729 949.5,-745 949.5,-745 949.5,-729 949.5,-729"/>
</a>
</g>
</g>
<!-- c_countrygroup&#45;&gt;ad_org -->
<g id="edge8" class="edge">
<title>c_countrygroup:w&#45;&gt;ad_org:e</title>
<path fill="none" stroke="black" d="M830.96,-863.23C756.64,-865.33 599.78,-879.92 549,-845 513.6,-820.66 551.96,-757 509,-757"/>
<polygon fill="black" stroke="black" points="837.5,-863.13 845.56,-866.6 841.5,-863.06 845.5,-863 845.5,-863 845.5,-863 841.5,-863.06 845.44,-859.4 837.5,-863.13 837.5,-863.13"/>
<ellipse fill="none" stroke="black" cx="834.3" cy="-863.18" rx="3.2" ry="3.2"/>
</g>
<!-- c_countrygroup&#45;&gt;ad_client -->
<g id="edge7" class="edge">
<title>c_countrygroup:w&#45;&gt;ad_client:e</title>
<path fill="none" stroke="black" d="M830.83,-884.99C710.77,-884.73 675.11,-881.13 549,-866 540.75,-865.01 262.81,-814 254.5,-814"/>
<polygon fill="black" stroke="black" points="837.5,-884.99 845.5,-888.6 841.5,-885 845.5,-885 845.5,-885 845.5,-885 841.5,-885 845.5,-881.4 837.5,-884.99 837.5,-884.99"/>
<ellipse fill="none" stroke="black" cx="834.3" cy="-884.99" rx="3.2" ry="3.2"/>
</g>
<!-- c_countrygroup&#45;&gt;ad_user -->
<g id="edge9" class="edge">
<title>c_countrygroup:w&#45;&gt;ad_user:e</title>
<path fill="none" stroke="black" d="M831.07,-797.73C820.31,-798.89 813.39,-801 798,-801"/>
<polygon fill="black" stroke="black" points="837.51,-797.41 845.68,-800.6 841.51,-797.2 845.5,-797 845.5,-797 845.5,-797 841.51,-797.2 845.32,-793.4 837.51,-797.41 837.51,-797.41"/>
<ellipse fill="none" stroke="black" cx="834.31" cy="-797.57" rx="3.2" ry="3.2"/>
</g>
<!-- c_countrygroup&#45;&gt;ad_user -->
<g id="edge10" class="edge">
<title>c_countrygroup:w&#45;&gt;ad_user:e</title>
<path fill="none" stroke="black" d="M831.31,-779.06C820.21,-786.38 816.05,-801 798,-801"/>
<polygon fill="black" stroke="black" points="837.81,-777.2 846.49,-778.46 841.65,-776.1 845.5,-775 845.5,-775 845.5,-775 841.65,-776.1 844.51,-771.54 837.81,-777.2 837.81,-777.2"/>
<ellipse fill="none" stroke="black" cx="834.73" cy="-778.08" rx="3.2" ry="3.2"/>
</g>
<!-- c_countrygroupcountry -->
<g id="node6" class="node">
<title>c_countrygroupcountry</title>
<g id="a_node6"><a xlink:href="../../tables/c_countrygroupcountry.html" xlink:title="c_countrygroupcountry" target="_top">
<polygon fill="#ffffff" stroke="transparent" points="1054,-626 1054,-956 1356,-956 1356,-626 1054,-626"/>
<polygon fill="#f5f5f5" stroke="transparent" points="1056,-932 1056,-954 1354,-954 1354,-932 1056,-932"/>
<polygon fill="none" stroke="black" points="1056,-932 1056,-954 1354,-954 1354,-932 1056,-932"/>
<text text-anchor="start" x="1061" y="-941.2" font-family="Helvetica,sans-Serif" font-weight="bold" font-size="11.00">c_countrygroupcountry</text>
<text text-anchor="start" x="1319" y="-940.2" font-family="Helvetica,sans-Serif" font-size="11.00">[table]</text>
<polygon fill="none" stroke="black" points="1056,-910 1056,-932 1271,-932 1271,-910 1056,-910"/>
<image xlink:href="../../images/foreignKeys.png" width="11px" height="12px" preserveAspectRatio="xMinYMin meet" x="1061" y="-927"/>
<text text-anchor="start" x="1076" y="-918.2" font-family="Helvetica,sans-Serif" font-size="11.00">ad_client_id</text>
<polygon fill="none" stroke="black" points="1271,-910 1271,-932 1354,-932 1354,-910 1271,-910"/>
<text text-anchor="start" x="1274" y="-918.2" font-family="Helvetica,sans-Serif" font-size="11.00">numeric[10]</text>
<polygon fill="none" stroke="black" points="1056,-888 1056,-910 1271,-910 1271,-888 1056,-888"/>
<image xlink:href="../../images/foreignKeys.png" width="11px" height="12px" preserveAspectRatio="xMinYMin meet" x="1061" y="-905"/>
<text text-anchor="start" x="1076" y="-896.2" font-family="Helvetica,sans-Serif" font-size="11.00">ad_org_id</text>
<polygon fill="none" stroke="black" points="1271,-888 1271,-910 1354,-910 1354,-888 1271,-888"/>
<text text-anchor="start" x="1274" y="-896.2" font-family="Helvetica,sans-Serif" font-size="11.00">numeric[10]</text>
<polygon fill="none" stroke="black" points="1056,-866 1056,-888 1271,-888 1271,-866 1056,-866"/>
<image xlink:href="../../images/primaryKeys.png" width="11px" height="12px" preserveAspectRatio="xMinYMin meet" x="1061" y="-883"/>
<text text-anchor="start" x="1076" y="-874.2" font-family="Helvetica,sans-Serif" font-size="11.00">c_countrygroupcountry_id</text>
<polygon fill="none" stroke="black" points="1271,-866 1271,-888 1354,-888 1354,-866 1271,-866"/>
<text text-anchor="start" x="1274" y="-874.2" font-family="Helvetica,sans-Serif" font-size="11.00">numeric[10]</text>
<polygon fill="#ffffff" stroke="transparent" points="1056,-844 1056,-866 1271,-866 1271,-844 1056,-844"/>
<polygon fill="none" stroke="black" points="1056,-844 1056,-866 1271,-866 1271,-844 1056,-844"/>
<text text-anchor="start" x="1076" y="-852.2" font-family="Helvetica,sans-Serif" font-size="11.00">c_countrygroupcountry_uu</text>
<polygon fill="none" stroke="black" points="1271,-844 1271,-866 1354,-866 1354,-844 1271,-844"/>
<text text-anchor="start" x="1274" y="-852.2" font-family="Helvetica,sans-Serif" font-size="11.00">varchar[36]</text>
<polygon fill="none" stroke="black" points="1056,-822 1056,-844 1271,-844 1271,-822 1056,-822"/>
<image xlink:href="../../images/foreignKeys.png" width="11px" height="12px" preserveAspectRatio="xMinYMin meet" x="1061" y="-839"/>
<text text-anchor="start" x="1076" y="-830.2" font-family="Helvetica,sans-Serif" font-size="11.00">c_countrygroup_id</text>
<polygon fill="none" stroke="black" points="1271,-822 1271,-844 1354,-844 1354,-822 1271,-822"/>
<text text-anchor="start" x="1274" y="-830.2" font-family="Helvetica,sans-Serif" font-size="11.00">numeric[10]</text>
<polygon fill="none" stroke="black" points="1056,-800 1056,-822 1271,-822 1271,-800 1056,-800"/>
<image xlink:href="../../images/foreignKeys.png" width="11px" height="12px" preserveAspectRatio="xMinYMin meet" x="1061" y="-817"/>
<text text-anchor="start" x="1076" y="-808.2" font-family="Helvetica,sans-Serif" font-size="11.00">c_country_id</text>
<polygon fill="none" stroke="black" points="1271,-800 1271,-822 1354,-822 1354,-800 1271,-800"/>
<text text-anchor="start" x="1274" y="-808.2" font-family="Helvetica,sans-Serif" font-size="11.00">numeric[10]</text>
<polygon fill="none" stroke="black" points="1056,-778 1056,-800 1271,-800 1271,-778 1056,-778"/>
<text text-anchor="start" x="1076" y="-786.2" font-family="Helvetica,sans-Serif" font-size="11.00">created</text>
<polygon fill="none" stroke="black" points="1271,-778 1271,-800 1354,-800 1354,-778 1271,-778"/>
<text text-anchor="start" x="1274" y="-786.2" font-family="Helvetica,sans-Serif" font-size="11.00">timestamp[29,6]</text>
<polygon fill="none" stroke="black" points="1056,-756 1056,-778 1271,-778 1271,-756 1056,-756"/>
<image xlink:href="../../images/foreignKeys.png" width="11px" height="12px" preserveAspectRatio="xMinYMin meet" x="1061" y="-773"/>
<text text-anchor="start" x="1076" y="-764.2" font-family="Helvetica,sans-Serif" font-size="11.00">createdby</text>
<polygon fill="none" stroke="black" points="1271,-756 1271,-778 1354,-778 1354,-756 1271,-756"/>
<text text-anchor="start" x="1274" y="-764.2" font-family="Helvetica,sans-Serif" font-size="11.00">numeric[10]</text>
<polygon fill="none" stroke="black" points="1056,-734 1056,-756 1271,-756 1271,-734 1056,-734"/>
<text text-anchor="start" x="1076" y="-742.2" font-family="Helvetica,sans-Serif" font-size="11.00">datefrom</text>
<polygon fill="none" stroke="black" points="1271,-734 1271,-756 1354,-756 1354,-734 1271,-734"/>
<text text-anchor="start" x="1274" y="-742.2" font-family="Helvetica,sans-Serif" font-size="11.00">timestamp[29,6]</text>
<polygon fill="none" stroke="black" points="1056,-712 1056,-734 1271,-734 1271,-712 1056,-712"/>
<text text-anchor="start" x="1076" y="-720.2" font-family="Helvetica,sans-Serif" font-size="11.00">dateto</text>
<polygon fill="none" stroke="black" points="1271,-712 1271,-734 1354,-734 1354,-712 1271,-712"/>
<text text-anchor="start" x="1274" y="-720.2" font-family="Helvetica,sans-Serif" font-size="11.00">timestamp[29,6]</text>
<polygon fill="none" stroke="black" points="1056,-690 1056,-712 1271,-712 1271,-690 1056,-690"/>
<text text-anchor="start" x="1076" y="-698.2" font-family="Helvetica,sans-Serif" font-size="11.00">isactive</text>
<polygon fill="none" stroke="black" points="1271,-690 1271,-712 1354,-712 1354,-690 1271,-690"/>
<text text-anchor="start" x="1274" y="-698.2" font-family="Helvetica,sans-Serif" font-size="11.00">bpchar[1]</text>
<polygon fill="none" stroke="black" points="1056,-668 1056,-690 1271,-690 1271,-668 1056,-668"/>
<text text-anchor="start" x="1076" y="-676.2" font-family="Helvetica,sans-Serif" font-size="11.00">updated</text>
<polygon fill="none" stroke="black" points="1271,-668 1271,-690 1354,-690 1354,-668 1271,-668"/>
<text text-anchor="start" x="1274" y="-676.2" font-family="Helvetica,sans-Serif" font-size="11.00">timestamp[29,6]</text>
<polygon fill="none" stroke="black" points="1056,-646 1056,-668 1271,-668 1271,-646 1056,-646"/>
<image xlink:href="../../images/foreignKeys.png" width="11px" height="12px" preserveAspectRatio="xMinYMin meet" x="1061" y="-663"/>
<text text-anchor="start" x="1076" y="-654.2" font-family="Helvetica,sans-Serif" font-size="11.00">updatedby</text>
<polygon fill="none" stroke="black" points="1271,-646 1271,-668 1354,-668 1354,-646 1271,-646"/>
<text text-anchor="start" x="1274" y="-654.2" font-family="Helvetica,sans-Serif" font-size="11.00">numeric[10]</text>
<polygon fill="#ffffff" stroke="transparent" points="1056,-628 1056,-646 1354,-646 1354,-628 1056,-628"/>
<polygon fill="none" stroke="black" points="1056,-628 1056,-646 1354,-646 1354,-628 1056,-628"/>
<polygon fill="#ffffff" stroke="transparent" points="1057,-629 1057,-645 1159,-645 1159,-629 1057,-629"/>
<text text-anchor="start" x="1059" y="-634.2" font-family="Helvetica,sans-Serif" font-size="11.00">&lt; 6</text>
<polygon fill="#ffffff" stroke="transparent" points="1159,-629 1159,-645 1252,-645 1252,-629 1159,-629"/>
<text text-anchor="start" x="1202" y="-634.2" font-family="Helvetica,sans-Serif" font-size="11.00"> &#160;</text>
<polygon fill="#ffffff" stroke="transparent" points="1252,-629 1252,-645 1353,-645 1353,-629 1252,-629"/>
<text text-anchor="start" x="1335" y="-634.2" font-family="Helvetica,sans-Serif" font-size="11.00">0 &gt;</text>
<polygon fill="black" stroke="black" points="1159,-629 1159,-645 1159,-645 1159,-629 1159,-629"/>
<polygon fill="black" stroke="black" points="1252,-629 1252,-645 1252,-645 1252,-629 1252,-629"/>
<polygon fill="none" stroke="black" stroke-width="2" points="1055,-627 1055,-955 1355,-955 1355,-627 1055,-627"/>
</a>
</g>
</g>
<!-- c_countrygroupcountry&#45;&gt;ad_org -->
<g id="edge12" class="edge">
<title>c_countrygroupcountry:w&#45;&gt;ad_org:e</title>
<path fill="none" stroke="black" d="M1040.92,-903.36C1031.74,-910.38 1028.87,-923.91 1013,-929 913.91,-960.76 627.45,-934.37 549,-866 510.1,-832.1 560.6,-757 509,-757"/>
<polygon fill="black" stroke="black" points="1047.36,-901.37 1056.07,-902.44 1051.18,-900.18 1055,-899 1055,-899 1055,-899 1051.18,-900.18 1053.93,-895.56 1047.36,-901.37 1047.36,-901.37"/>
<ellipse fill="none" stroke="black" cx="1044.3" cy="-902.31" rx="3.2" ry="3.2"/>
</g>
<!-- c_countrygroupcountry&#45;&gt;ad_client -->
<g id="edge11" class="edge">
<title>c_countrygroupcountry:w&#45;&gt;ad_client:e</title>
<path fill="none" stroke="black" d="M1041.07,-924.69C1031.99,-930.37 1027.93,-941.03 1013,-945 937.83,-964.96 915.64,-949.55 838,-945 592.98,-930.64 510.91,-964.85 294,-850 273.01,-838.89 278.25,-814 254.5,-814"/>
<polygon fill="black" stroke="black" points="1047.27,-923.05 1055.92,-924.48 1051.13,-922.02 1055,-921 1055,-921 1055,-921 1051.13,-922.02 1054.08,-917.52 1047.27,-923.05 1047.27,-923.05"/>
<ellipse fill="none" stroke="black" cx="1044.17" cy="-923.87" rx="3.2" ry="3.2"/>
</g>
<!-- c_countrygroupcountry&#45;&gt;ad_user -->
<g id="edge15" class="edge">
<title>c_countrygroupcountry:w&#45;&gt;ad_user:e</title>
<path fill="none" stroke="black" d="M1041.28,-762.34C1030.03,-752 1033.36,-727.36 1013,-718 942.34,-685.5 903.86,-676.63 838,-718 803.32,-739.78 838.95,-801 798,-801"/>
<polygon fill="black" stroke="black" points="1047.43,-764.42 1053.84,-770.41 1051.21,-765.71 1055,-767 1055,-767 1055,-767 1051.21,-765.71 1056.16,-763.59 1047.43,-764.42 1047.43,-764.42"/>
<ellipse fill="none" stroke="black" cx="1044.4" cy="-763.39" rx="3.2" ry="3.2"/>
</g>
<!-- c_countrygroupcountry&#45;&gt;ad_user -->
<g id="edge16" class="edge">
<title>c_countrygroupcountry:w&#45;&gt;ad_user:e</title>
<path fill="none" stroke="black" d="M1040.57,-656.77C953.06,-654.03 909.55,-628.5 838,-687 796.43,-720.99 851.7,-801 798,-801"/>
<polygon fill="black" stroke="black" points="1047,-656.87 1054.94,-660.6 1051,-656.94 1055,-657 1055,-657 1055,-657 1051,-656.94 1055.06,-653.4 1047,-656.87 1047,-656.87"/>
<ellipse fill="none" stroke="black" cx="1043.8" cy="-656.82" rx="3.2" ry="3.2"/>
</g>
<!-- c_countrygroupcountry&#45;&gt;c_country -->
<g id="edge13" class="edge">
<title>c_countrygroupcountry:w&#45;&gt;c_country:e</title>
<path fill="none" stroke="black" d="M1040.59,-808.56C1014.65,-797.85 1029.27,-754 1013,-718 912.16,-494.86 1030.86,-216 786,-216"/>
<polygon fill="black" stroke="black" points="1047.11,-809.66 1054.4,-814.55 1051.06,-810.33 1055,-811 1055,-811 1055,-811 1051.06,-810.33 1055.6,-807.45 1047.11,-809.66 1047.11,-809.66"/>
<ellipse fill="none" stroke="black" cx="1043.96" cy="-809.13" rx="3.2" ry="3.2"/>
</g>
<!-- c_countrygroupcountry&#45;&gt;c_countrygroup -->
<g id="edge14" class="edge">
<title>c_countrygroupcountry:w&#45;&gt;c_countrygroup:e</title>
<path fill="none" stroke="black" d="M1040.56,-834.39C1029.4,-836.69 1022.54,-841 1006.5,-841"/>
<polygon fill="black" stroke="black" points="1047.04,-833.77 1055.35,-836.58 1051.02,-833.38 1055,-833 1055,-833 1055,-833 1051.02,-833.38 1054.65,-829.42 1047.04,-833.77 1047.04,-833.77"/>
<ellipse fill="none" stroke="black" cx="1043.85" cy="-834.08" rx="3.2" ry="3.2"/>
</g>
</g>
</svg>
