<?xml version="1.0" encoding="UTF-8" standalone="no"?>
<!DOCTYPE svg PUBLIC "-//W3C//DTD SVG 1.1//EN"
 "http://www.w3.org/Graphics/SVG/1.1/DTD/svg11.dtd">
<!-- Generated by graphviz version 2.43.0 (0)
 -->
<!-- Title: oneDegreeRelationshipsDiagram Pages: 1 -->
<svg width="1280pt" height="585pt"
 viewBox="0.00 0.00 1280.00 585.00" xmlns="http://www.w3.org/2000/svg" xmlns:xlink="http://www.w3.org/1999/xlink">
<g id="graph0" class="graph" transform="scale(1 1) rotate(0) translate(4 581)">
<title>oneDegreeRelationshipsDiagram</title>
<polygon fill="#ffffff" stroke="transparent" points="-4,4 -4,-581 1276,-581 1276,4 -4,4"/>
<text text-anchor="middle" x="71.5" y="-7.2" font-family="Helvetica,sans-Serif" font-size="11.00">Generated by SchemaSpy</text>
<!-- ad_org -->
<g id="node1" class="node">
<title>ad_org</title>
<g id="a_node1"><a xlink:href="../../tables/ad_org.html" xlink:title="ad_org" target="_top">
<polygon fill="#ffffff" stroke="transparent" points="302,-312 302,-502 508,-502 508,-312 302,-312"/>
<polygon fill="#f5f5f5" stroke="transparent" points="302,-480 302,-502 508,-502 508,-480 302,-480"/>
<polygon fill="none" stroke="black" points="302,-480 302,-502 508,-502 508,-480 302,-480"/>
<text text-anchor="start" x="307" y="-489.2" font-family="Helvetica,sans-Serif" font-weight="bold" font-size="11.00">ad_org</text>
<text text-anchor="start" x="473" y="-488.2" font-family="Helvetica,sans-Serif" font-size="11.00">[table]</text>
<polygon fill="none" stroke="black" points="302,-458 302,-480 508,-480 508,-458 302,-458"/>
<image xlink:href="../../images/primaryKeys.png" width="11px" height="12px" preserveAspectRatio="xMinYMin meet" x="307" y="-475"/>
<text text-anchor="start" x="322" y="-466.2" font-family="Helvetica,sans-Serif" font-size="11.00">ad_org_id</text>
<polygon fill="#ffffff" stroke="transparent" points="302,-436 302,-458 508,-458 508,-436 302,-436"/>
<polygon fill="none" stroke="black" points="302,-436 302,-458 508,-458 508,-436 302,-436"/>
<image xlink:href="../../images/foreignKeys.png" width="11px" height="12px" preserveAspectRatio="xMinYMin meet" x="307" y="-453"/>
<text text-anchor="start" x="322" y="-444.2" font-family="Helvetica,sans-Serif" font-size="11.00">ad_client_id</text>
<polygon fill="#ffffff" stroke="transparent" points="302,-414 302,-436 508,-436 508,-414 302,-414"/>
<polygon fill="none" stroke="black" points="302,-414 302,-436 508,-436 508,-414 302,-414"/>
<text text-anchor="start" x="322" y="-422.2" font-family="Helvetica,sans-Serif" font-size="11.00">value</text>
<polygon fill="none" stroke="black" points="302,-392 302,-414 508,-414 508,-392 302,-392"/>
<image xlink:href="../../images/foreignKeys.png" width="11px" height="12px" preserveAspectRatio="xMinYMin meet" x="307" y="-409"/>
<text text-anchor="start" x="322" y="-400.2" font-family="Helvetica,sans-Serif" font-size="11.00">ad_replicationstrategy_id</text>
<polygon fill="#ffffff" stroke="transparent" points="302,-370 302,-392 508,-392 508,-370 302,-370"/>
<polygon fill="none" stroke="black" points="302,-370 302,-392 508,-392 508,-370 302,-370"/>
<text text-anchor="start" x="322" y="-378.2" font-family="Helvetica,sans-Serif" font-size="11.00">ad_org_uu</text>
<polygon fill="none" stroke="black" points="302,-348 302,-370 508,-370 508,-348 302,-348"/>
<image xlink:href="../../images/foreignKeys.png" width="11px" height="12px" preserveAspectRatio="xMinYMin meet" x="307" y="-365"/>
<text text-anchor="start" x="322" y="-356.2" font-family="Helvetica,sans-Serif" font-size="11.00">cof_c_snrange_id</text>
<polygon fill="none" stroke="black" points="302,-330 302,-348 508,-348 508,-330 302,-330"/>
<text text-anchor="start" x="305" y="-336.2" font-family="Helvetica,sans-Serif" font-size="11.00">...</text>
<polygon fill="#ffffff" stroke="transparent" points="302,-312 302,-330 508,-330 508,-312 302,-312"/>
<polygon fill="none" stroke="black" points="302,-312 302,-330 508,-330 508,-312 302,-312"/>
<polygon fill="#ffffff" stroke="transparent" points="303,-313 303,-329 362,-329 362,-313 303,-313"/>
<text text-anchor="start" x="305" y="-318.2" font-family="Helvetica,sans-Serif" font-size="11.00">&lt; 3</text>
<polygon fill="#ffffff" stroke="transparent" points="362,-313 362,-329 437,-329 437,-313 362,-313"/>
<text text-anchor="start" x="383" y="-318.2" font-family="Helvetica,sans-Serif" font-size="11.00">3 rows</text>
<polygon fill="#ffffff" stroke="transparent" points="437,-313 437,-329 507,-329 507,-313 437,-313"/>
<text text-anchor="start" x="477" y="-318.2" font-family="Helvetica,sans-Serif" font-size="11.00">284 &gt;</text>
<polygon fill="black" stroke="black" points="362,-313 362,-329 362,-329 362,-313 362,-313"/>
<polygon fill="black" stroke="black" points="437,-313 437,-329 437,-329 437,-313 437,-313"/>
</a>
</g>
</g>
<!-- ad_client -->
<g id="node2" class="node">
<title>ad_client</title>
<g id="a_node2"><a xlink:href="../../tables/ad_client.html" xlink:title="ad_client" target="_top">
<polygon fill="#ffffff" stroke="transparent" points="8,-268 8,-480 253,-480 253,-268 8,-268"/>
<polygon fill="#f5f5f5" stroke="transparent" points="8.5,-458 8.5,-480 253.5,-480 253.5,-458 8.5,-458"/>
<polygon fill="none" stroke="black" points="8.5,-458 8.5,-480 253.5,-480 253.5,-458 8.5,-458"/>
<text text-anchor="start" x="13.5" y="-467.2" font-family="Helvetica,sans-Serif" font-weight="bold" font-size="11.00">ad_client</text>
<text text-anchor="start" x="218.5" y="-466.2" font-family="Helvetica,sans-Serif" font-size="11.00">[table]</text>
<polygon fill="none" stroke="black" points="8.5,-436 8.5,-458 253.5,-458 253.5,-436 8.5,-436"/>
<image xlink:href="../../images/primaryKeys.png" width="11px" height="12px" preserveAspectRatio="xMinYMin meet" x="13.5" y="-453"/>
<text text-anchor="start" x="28.5" y="-444.2" font-family="Helvetica,sans-Serif" font-size="11.00">ad_client_id</text>
<polygon fill="#ffffff" stroke="transparent" points="8.5,-414 8.5,-436 253.5,-436 253.5,-414 8.5,-414"/>
<polygon fill="none" stroke="black" points="8.5,-414 8.5,-436 253.5,-436 253.5,-414 8.5,-414"/>
<text text-anchor="start" x="28.5" y="-422.2" font-family="Helvetica,sans-Serif" font-size="11.00">value</text>
<polygon fill="none" stroke="black" points="8.5,-392 8.5,-414 253.5,-414 253.5,-392 8.5,-392"/>
<image xlink:href="../../images/foreignKeys.png" width="11px" height="12px" preserveAspectRatio="xMinYMin meet" x="13.5" y="-409"/>
<text text-anchor="start" x="28.5" y="-400.2" font-family="Helvetica,sans-Serif" font-size="11.00">ad_language</text>
<polygon fill="none" stroke="black" points="8.5,-370 8.5,-392 253.5,-392 253.5,-370 8.5,-370"/>
<image xlink:href="../../images/foreignKeys.png" width="11px" height="12px" preserveAspectRatio="xMinYMin meet" x="13.5" y="-387"/>
<text text-anchor="start" x="28.5" y="-378.2" font-family="Helvetica,sans-Serif" font-size="11.00">ad_replicationstrategy_id</text>
<polygon fill="#ffffff" stroke="transparent" points="8.5,-348 8.5,-370 253.5,-370 253.5,-348 8.5,-348"/>
<polygon fill="none" stroke="black" points="8.5,-348 8.5,-370 253.5,-370 253.5,-348 8.5,-348"/>
<text text-anchor="start" x="28.5" y="-356.2" font-family="Helvetica,sans-Serif" font-size="11.00">ad_client_uu</text>
<polygon fill="none" stroke="black" points="8.5,-326 8.5,-348 253.5,-348 253.5,-326 8.5,-326"/>
<image xlink:href="../../images/foreignKeys.png" width="11px" height="12px" preserveAspectRatio="xMinYMin meet" x="13.5" y="-343"/>
<text text-anchor="start" x="28.5" y="-334.2" font-family="Helvetica,sans-Serif" font-size="11.00">ad_passwordrule_id</text>
<polygon fill="#ffffff" stroke="transparent" points="8.5,-304 8.5,-326 253.5,-326 253.5,-304 8.5,-304"/>
<polygon fill="none" stroke="black" points="8.5,-304 8.5,-326 253.5,-326 253.5,-304 8.5,-304"/>
<text text-anchor="start" x="28.5" y="-312.2" font-family="Helvetica,sans-Serif" font-size="11.00">loginprefix</text>
<polygon fill="none" stroke="black" points="8.5,-286 8.5,-304 253.5,-304 253.5,-286 8.5,-286"/>
<text text-anchor="start" x="11.5" y="-292.2" font-family="Helvetica,sans-Serif" font-size="11.00">...</text>
<polygon fill="#ffffff" stroke="transparent" points="8.5,-268 8.5,-286 253.5,-286 253.5,-268 8.5,-268"/>
<polygon fill="none" stroke="black" points="8.5,-268 8.5,-286 253.5,-286 253.5,-268 8.5,-268"/>
<polygon fill="#ffffff" stroke="transparent" points="9.5,-269 9.5,-285 81.5,-285 81.5,-269 9.5,-269"/>
<text text-anchor="start" x="11.5" y="-274.2" font-family="Helvetica,sans-Serif" font-size="11.00">&lt; 3</text>
<polygon fill="#ffffff" stroke="transparent" points="81.5,-269 81.5,-285 169.5,-285 169.5,-269 81.5,-269"/>
<text text-anchor="start" x="109" y="-274.2" font-family="Helvetica,sans-Serif" font-size="11.00">2 rows</text>
<polygon fill="#ffffff" stroke="transparent" points="169.5,-269 169.5,-285 252.5,-285 252.5,-269 169.5,-269"/>
<text text-anchor="start" x="222.5" y="-274.2" font-family="Helvetica,sans-Serif" font-size="11.00">204 &gt;</text>
<polygon fill="black" stroke="black" points="81.5,-269 81.5,-285 81.5,-285 81.5,-269 81.5,-269"/>
<polygon fill="black" stroke="black" points="169.5,-269 169.5,-285 169.5,-285 169.5,-269 169.5,-269"/>
</a>
</g>
</g>
<!-- ad_org&#45;&gt;ad_client -->
<g id="edge1" class="edge">
<title>ad_org:w&#45;&gt;ad_client:e</title>
<path fill="none" stroke="black" d="M286.55,-447C276.2,-447 269.35,-447 254.5,-447"/>
<polygon fill="black" stroke="black" points="293,-447 301,-450.6 297,-447 301,-447 301,-447 301,-447 297,-447 301,-443.4 293,-447 293,-447"/>
<ellipse fill="none" stroke="black" cx="289.8" cy="-447" rx="3.2" ry="3.2"/>
</g>
<!-- c_conversion_rate -->
<g id="node3" class="node">
<title>c_conversion_rate</title>
<g id="a_node3"><a xlink:href="../../tables/c_conversion_rate.html" xlink:title="c_conversion_rate" target="_top">
<polygon fill="#ffffff" stroke="transparent" points="779,-177 779,-573 1042,-573 1042,-177 779,-177"/>
<polygon fill="#f5f5f5" stroke="transparent" points="781.5,-549 781.5,-571 1040.5,-571 1040.5,-549 781.5,-549"/>
<polygon fill="none" stroke="black" points="781.5,-549 781.5,-571 1040.5,-571 1040.5,-549 781.5,-549"/>
<text text-anchor="start" x="786.5" y="-558.2" font-family="Helvetica,sans-Serif" font-weight="bold" font-size="11.00">c_conversion_rate</text>
<text text-anchor="start" x="1005.5" y="-557.2" font-family="Helvetica,sans-Serif" font-size="11.00">[table]</text>
<polygon fill="none" stroke="black" points="781.5,-527 781.5,-549 957.5,-549 957.5,-527 781.5,-527"/>
<image xlink:href="../../images/primaryKeys.png" width="11px" height="12px" preserveAspectRatio="xMinYMin meet" x="786.5" y="-544"/>
<text text-anchor="start" x="801.5" y="-535.2" font-family="Helvetica,sans-Serif" font-size="11.00">c_conversion_rate_id</text>
<polygon fill="none" stroke="black" points="957.5,-527 957.5,-549 1040.5,-549 1040.5,-527 957.5,-527"/>
<text text-anchor="start" x="960.5" y="-535.2" font-family="Helvetica,sans-Serif" font-size="11.00">numeric[10]</text>
<polygon fill="#ffffff" stroke="transparent" points="781.5,-505 781.5,-527 957.5,-527 957.5,-505 781.5,-505"/>
<polygon fill="none" stroke="black" points="781.5,-505 781.5,-527 957.5,-527 957.5,-505 781.5,-505"/>
<image xlink:href="../../images/foreignKeys.png" width="11px" height="12px" preserveAspectRatio="xMinYMin meet" x="786.5" y="-522"/>
<text text-anchor="start" x="801.5" y="-513.2" font-family="Helvetica,sans-Serif" font-size="11.00">ad_client_id</text>
<polygon fill="none" stroke="black" points="957.5,-505 957.5,-527 1040.5,-527 1040.5,-505 957.5,-505"/>
<text text-anchor="start" x="960.5" y="-513.2" font-family="Helvetica,sans-Serif" font-size="11.00">numeric[10]</text>
<polygon fill="#ffffff" stroke="transparent" points="781.5,-483 781.5,-505 957.5,-505 957.5,-483 781.5,-483"/>
<polygon fill="none" stroke="black" points="781.5,-483 781.5,-505 957.5,-505 957.5,-483 781.5,-483"/>
<image xlink:href="../../images/foreignKeys.png" width="11px" height="12px" preserveAspectRatio="xMinYMin meet" x="786.5" y="-500"/>
<text text-anchor="start" x="801.5" y="-491.2" font-family="Helvetica,sans-Serif" font-size="11.00">ad_org_id</text>
<polygon fill="none" stroke="black" points="957.5,-483 957.5,-505 1040.5,-505 1040.5,-483 957.5,-483"/>
<text text-anchor="start" x="960.5" y="-491.2" font-family="Helvetica,sans-Serif" font-size="11.00">numeric[10]</text>
<polygon fill="none" stroke="black" points="781.5,-461 781.5,-483 957.5,-483 957.5,-461 781.5,-461"/>
<text text-anchor="start" x="801.5" y="-469.2" font-family="Helvetica,sans-Serif" font-size="11.00">isactive</text>
<polygon fill="none" stroke="black" points="957.5,-461 957.5,-483 1040.5,-483 1040.5,-461 957.5,-461"/>
<text text-anchor="start" x="960.5" y="-469.2" font-family="Helvetica,sans-Serif" font-size="11.00">bpchar[1]</text>
<polygon fill="none" stroke="black" points="781.5,-439 781.5,-461 957.5,-461 957.5,-439 781.5,-439"/>
<text text-anchor="start" x="801.5" y="-447.2" font-family="Helvetica,sans-Serif" font-size="11.00">created</text>
<polygon fill="none" stroke="black" points="957.5,-439 957.5,-461 1040.5,-461 1040.5,-439 957.5,-439"/>
<text text-anchor="start" x="960.5" y="-447.2" font-family="Helvetica,sans-Serif" font-size="11.00">timestamp[29,6]</text>
<polygon fill="none" stroke="black" points="781.5,-417 781.5,-439 957.5,-439 957.5,-417 781.5,-417"/>
<text text-anchor="start" x="801.5" y="-425.2" font-family="Helvetica,sans-Serif" font-size="11.00">createdby</text>
<polygon fill="none" stroke="black" points="957.5,-417 957.5,-439 1040.5,-439 1040.5,-417 957.5,-417"/>
<text text-anchor="start" x="960.5" y="-425.2" font-family="Helvetica,sans-Serif" font-size="11.00">numeric[10]</text>
<polygon fill="none" stroke="black" points="781.5,-395 781.5,-417 957.5,-417 957.5,-395 781.5,-395"/>
<text text-anchor="start" x="801.5" y="-403.2" font-family="Helvetica,sans-Serif" font-size="11.00">updated</text>
<polygon fill="none" stroke="black" points="957.5,-395 957.5,-417 1040.5,-417 1040.5,-395 957.5,-395"/>
<text text-anchor="start" x="960.5" y="-403.2" font-family="Helvetica,sans-Serif" font-size="11.00">timestamp[29,6]</text>
<polygon fill="none" stroke="black" points="781.5,-373 781.5,-395 957.5,-395 957.5,-373 781.5,-373"/>
<text text-anchor="start" x="801.5" y="-381.2" font-family="Helvetica,sans-Serif" font-size="11.00">updatedby</text>
<polygon fill="none" stroke="black" points="957.5,-373 957.5,-395 1040.5,-395 1040.5,-373 957.5,-373"/>
<text text-anchor="start" x="960.5" y="-381.2" font-family="Helvetica,sans-Serif" font-size="11.00">numeric[10]</text>
<polygon fill="#ffffff" stroke="transparent" points="781.5,-351 781.5,-373 957.5,-373 957.5,-351 781.5,-351"/>
<polygon fill="none" stroke="black" points="781.5,-351 781.5,-373 957.5,-373 957.5,-351 781.5,-351"/>
<image xlink:href="../../images/foreignKeys.png" width="11px" height="12px" preserveAspectRatio="xMinYMin meet" x="786.5" y="-368"/>
<text text-anchor="start" x="801.5" y="-359.2" font-family="Helvetica,sans-Serif" font-size="11.00">c_currency_id</text>
<polygon fill="none" stroke="black" points="957.5,-351 957.5,-373 1040.5,-373 1040.5,-351 957.5,-351"/>
<text text-anchor="start" x="960.5" y="-359.2" font-family="Helvetica,sans-Serif" font-size="11.00">numeric[10]</text>
<polygon fill="#ffffff" stroke="transparent" points="781.5,-329 781.5,-351 957.5,-351 957.5,-329 781.5,-329"/>
<polygon fill="none" stroke="black" points="781.5,-329 781.5,-351 957.5,-351 957.5,-329 781.5,-329"/>
<image xlink:href="../../images/foreignKeys.png" width="11px" height="12px" preserveAspectRatio="xMinYMin meet" x="786.5" y="-346"/>
<text text-anchor="start" x="801.5" y="-337.2" font-family="Helvetica,sans-Serif" font-size="11.00">c_currency_id_to</text>
<polygon fill="none" stroke="black" points="957.5,-329 957.5,-351 1040.5,-351 1040.5,-329 957.5,-329"/>
<text text-anchor="start" x="960.5" y="-337.2" font-family="Helvetica,sans-Serif" font-size="11.00">numeric[10]</text>
<polygon fill="#ffffff" stroke="transparent" points="781.5,-307 781.5,-329 957.5,-329 957.5,-307 781.5,-307"/>
<polygon fill="none" stroke="black" points="781.5,-307 781.5,-329 957.5,-329 957.5,-307 781.5,-307"/>
<text text-anchor="start" x="801.5" y="-315.2" font-family="Helvetica,sans-Serif" font-size="11.00">validfrom</text>
<polygon fill="none" stroke="black" points="957.5,-307 957.5,-329 1040.5,-329 1040.5,-307 957.5,-307"/>
<text text-anchor="start" x="960.5" y="-315.2" font-family="Helvetica,sans-Serif" font-size="11.00">timestamp[29,6]</text>
<polygon fill="none" stroke="black" points="781.5,-285 781.5,-307 957.5,-307 957.5,-285 781.5,-285"/>
<text text-anchor="start" x="801.5" y="-293.2" font-family="Helvetica,sans-Serif" font-size="11.00">validto</text>
<polygon fill="none" stroke="black" points="957.5,-285 957.5,-307 1040.5,-307 1040.5,-285 957.5,-285"/>
<text text-anchor="start" x="960.5" y="-293.2" font-family="Helvetica,sans-Serif" font-size="11.00">timestamp[29,6]</text>
<polygon fill="none" stroke="black" points="781.5,-263 781.5,-285 957.5,-285 957.5,-263 781.5,-263"/>
<text text-anchor="start" x="801.5" y="-271.2" font-family="Helvetica,sans-Serif" font-size="11.00">multiplyrate</text>
<polygon fill="none" stroke="black" points="957.5,-263 957.5,-285 1040.5,-285 1040.5,-263 957.5,-263"/>
<text text-anchor="start" x="960.5" y="-271.2" font-family="Helvetica,sans-Serif" font-size="11.00">numeric[0]</text>
<polygon fill="none" stroke="black" points="781.5,-241 781.5,-263 957.5,-263 957.5,-241 781.5,-241"/>
<text text-anchor="start" x="801.5" y="-249.2" font-family="Helvetica,sans-Serif" font-size="11.00">dividerate</text>
<polygon fill="none" stroke="black" points="957.5,-241 957.5,-263 1040.5,-263 1040.5,-241 957.5,-241"/>
<text text-anchor="start" x="960.5" y="-249.2" font-family="Helvetica,sans-Serif" font-size="11.00">numeric[0]</text>
<polygon fill="#ffffff" stroke="transparent" points="781.5,-219 781.5,-241 957.5,-241 957.5,-219 781.5,-219"/>
<polygon fill="none" stroke="black" points="781.5,-219 781.5,-241 957.5,-241 957.5,-219 781.5,-219"/>
<image xlink:href="../../images/foreignKeys.png" width="11px" height="12px" preserveAspectRatio="xMinYMin meet" x="786.5" y="-236"/>
<text text-anchor="start" x="801.5" y="-227.2" font-family="Helvetica,sans-Serif" font-size="11.00">c_conversiontype_id</text>
<polygon fill="none" stroke="black" points="957.5,-219 957.5,-241 1040.5,-241 1040.5,-219 957.5,-219"/>
<text text-anchor="start" x="960.5" y="-227.2" font-family="Helvetica,sans-Serif" font-size="11.00">numeric[10]</text>
<polygon fill="#ffffff" stroke="transparent" points="781.5,-197 781.5,-219 957.5,-219 957.5,-197 781.5,-197"/>
<polygon fill="none" stroke="black" points="781.5,-197 781.5,-219 957.5,-219 957.5,-197 781.5,-197"/>
<text text-anchor="start" x="801.5" y="-205.2" font-family="Helvetica,sans-Serif" font-size="11.00">c_conversion_rate_uu</text>
<polygon fill="none" stroke="black" points="957.5,-197 957.5,-219 1040.5,-219 1040.5,-197 957.5,-197"/>
<text text-anchor="start" x="960.5" y="-205.2" font-family="Helvetica,sans-Serif" font-size="11.00">varchar[36]</text>
<polygon fill="#ffffff" stroke="transparent" points="781.5,-179 781.5,-197 1040.5,-197 1040.5,-179 781.5,-179"/>
<polygon fill="none" stroke="black" points="781.5,-179 781.5,-197 1040.5,-197 1040.5,-179 781.5,-179"/>
<polygon fill="#ffffff" stroke="transparent" points="782.5,-180 782.5,-196 871.5,-196 871.5,-180 782.5,-180"/>
<text text-anchor="start" x="784.5" y="-185.2" font-family="Helvetica,sans-Serif" font-size="11.00">&lt; 5</text>
<polygon fill="#ffffff" stroke="transparent" points="871.5,-180 871.5,-196 951.5,-196 951.5,-180 871.5,-180"/>
<text text-anchor="start" x="908" y="-185.2" font-family="Helvetica,sans-Serif" font-size="11.00"> &#160;</text>
<polygon fill="#ffffff" stroke="transparent" points="951.5,-180 951.5,-196 1039.5,-196 1039.5,-180 951.5,-180"/>
<text text-anchor="start" x="1021.5" y="-185.2" font-family="Helvetica,sans-Serif" font-size="11.00">1 &gt;</text>
<polygon fill="black" stroke="black" points="871.5,-180 871.5,-196 871.5,-196 871.5,-180 871.5,-180"/>
<polygon fill="black" stroke="black" points="951.5,-180 951.5,-196 951.5,-196 951.5,-180 951.5,-180"/>
<polygon fill="none" stroke="black" stroke-width="2" points="780,-178 780,-572 1041,-572 1041,-178 780,-178"/>
</a>
</g>
</g>
<!-- c_conversion_rate&#45;&gt;ad_org -->
<g id="edge3" class="edge">
<title>c_conversion_rate:w&#45;&gt;ad_org:e</title>
<path fill="none" stroke="black" d="M766.04,-493.88C656.78,-491.99 625.21,-469 509,-469"/>
<polygon fill="black" stroke="black" points="772.5,-493.93 780.47,-497.6 776.5,-493.97 780.5,-494 780.5,-494 780.5,-494 776.5,-493.97 780.53,-490.4 772.5,-493.93 772.5,-493.93"/>
<ellipse fill="none" stroke="black" cx="769.3" cy="-493.9" rx="3.2" ry="3.2"/>
</g>
<!-- c_conversion_rate&#45;&gt;ad_client -->
<g id="edge2" class="edge">
<title>c_conversion_rate:w&#45;&gt;ad_client:e</title>
<path fill="none" stroke="black" d="M765.82,-516.16C560.43,-520.67 477.46,-617.76 294,-513 264.31,-496.05 288.69,-447 254.5,-447"/>
<polygon fill="black" stroke="black" points="772.5,-516.09 780.54,-519.6 776.5,-516.04 780.5,-516 780.5,-516 780.5,-516 776.5,-516.04 780.46,-512.4 772.5,-516.09 772.5,-516.09"/>
<ellipse fill="none" stroke="black" cx="769.3" cy="-516.12" rx="3.2" ry="3.2"/>
</g>
<!-- c_conversiontype -->
<g id="node4" class="node">
<title>c_conversiontype</title>
<g id="a_node4"><a xlink:href="../../tables/c_conversiontype.html" xlink:title="c_conversiontype" target="_top">
<polygon fill="#ffffff" stroke="transparent" points="557,-46 557,-148 730,-148 730,-46 557,-46"/>
<polygon fill="#f5f5f5" stroke="transparent" points="557.5,-126 557.5,-148 730.5,-148 730.5,-126 557.5,-126"/>
<polygon fill="none" stroke="black" points="557.5,-126 557.5,-148 730.5,-148 730.5,-126 557.5,-126"/>
<text text-anchor="start" x="562.5" y="-135.2" font-family="Helvetica,sans-Serif" font-weight="bold" font-size="11.00">c_conversiontype</text>
<text text-anchor="start" x="695.5" y="-134.2" font-family="Helvetica,sans-Serif" font-size="11.00">[table]</text>
<polygon fill="none" stroke="black" points="557.5,-104 557.5,-126 730.5,-126 730.5,-104 557.5,-104"/>
<image xlink:href="../../images/primaryKeys.png" width="11px" height="12px" preserveAspectRatio="xMinYMin meet" x="562.5" y="-121"/>
<text text-anchor="start" x="577.5" y="-112.2" font-family="Helvetica,sans-Serif" font-size="11.00">c_conversiontype_id</text>
<polygon fill="#ffffff" stroke="transparent" points="557.5,-82 557.5,-104 730.5,-104 730.5,-82 557.5,-82"/>
<polygon fill="none" stroke="black" points="557.5,-82 557.5,-104 730.5,-104 730.5,-82 557.5,-82"/>
<text text-anchor="start" x="577.5" y="-90.2" font-family="Helvetica,sans-Serif" font-size="11.00">c_conversiontype_uu</text>
<polygon fill="none" stroke="black" points="557.5,-64 557.5,-82 730.5,-82 730.5,-64 557.5,-64"/>
<text text-anchor="start" x="560.5" y="-70.2" font-family="Helvetica,sans-Serif" font-size="11.00">...</text>
<polygon fill="#ffffff" stroke="transparent" points="557.5,-46 557.5,-64 730.5,-64 730.5,-46 557.5,-46"/>
<polygon fill="none" stroke="black" points="557.5,-46 557.5,-64 730.5,-64 730.5,-46 557.5,-46"/>
<polygon fill="#ffffff" stroke="transparent" points="558.5,-47 558.5,-63 602.5,-63 602.5,-47 558.5,-47"/>
<text text-anchor="start" x="560.5" y="-52.2" font-family="Helvetica,sans-Serif" font-size="11.00"> &#160;</text>
<polygon fill="#ffffff" stroke="transparent" points="602.5,-47 602.5,-63 671.5,-63 671.5,-47 602.5,-47"/>
<text text-anchor="start" x="620.5" y="-52.2" font-family="Helvetica,sans-Serif" font-size="11.00">4 rows</text>
<polygon fill="#ffffff" stroke="transparent" points="671.5,-47 671.5,-63 729.5,-63 729.5,-47 671.5,-47"/>
<text text-anchor="start" x="705.5" y="-52.2" font-family="Helvetica,sans-Serif" font-size="11.00">15 &gt;</text>
<polygon fill="black" stroke="black" points="602.5,-47 602.5,-63 602.5,-63 602.5,-47 602.5,-47"/>
<polygon fill="black" stroke="black" points="671.5,-47 671.5,-63 671.5,-63 671.5,-47 671.5,-47"/>
</a>
</g>
</g>
<!-- c_conversion_rate&#45;&gt;c_conversiontype -->
<g id="edge4" class="edge">
<title>c_conversion_rate:w&#45;&gt;c_conversiontype:e</title>
<path fill="none" stroke="black" d="M766.19,-226.17C737.12,-206.22 780.98,-115 731.5,-115"/>
<polygon fill="black" stroke="black" points="772.77,-227.93 779.57,-233.48 776.64,-228.97 780.5,-230 780.5,-230 780.5,-230 776.64,-228.97 781.43,-226.52 772.77,-227.93 772.77,-227.93"/>
<ellipse fill="none" stroke="black" cx="769.68" cy="-227.11" rx="3.2" ry="3.2"/>
</g>
<!-- c_currency -->
<g id="node5" class="node">
<title>c_currency</title>
<g id="a_node5"><a xlink:href="../../tables/c_currency.html" xlink:title="c_currency" target="_top">
<polygon fill="#ffffff" stroke="transparent" points="567.5,-185 567.5,-353 719.5,-353 719.5,-185 567.5,-185"/>
<polygon fill="#f5f5f5" stroke="transparent" points="567.5,-331 567.5,-353 719.5,-353 719.5,-331 567.5,-331"/>
<polygon fill="none" stroke="black" points="567.5,-331 567.5,-353 719.5,-353 719.5,-331 567.5,-331"/>
<text text-anchor="start" x="572.5" y="-340.2" font-family="Helvetica,sans-Serif" font-weight="bold" font-size="11.00">c_currency</text>
<text text-anchor="start" x="684.5" y="-339.2" font-family="Helvetica,sans-Serif" font-size="11.00">[table]</text>
<polygon fill="none" stroke="black" points="567.5,-309 567.5,-331 719.5,-331 719.5,-309 567.5,-309"/>
<image xlink:href="../../images/primaryKeys.png" width="11px" height="12px" preserveAspectRatio="xMinYMin meet" x="572.5" y="-326"/>
<text text-anchor="start" x="587.5" y="-317.2" font-family="Helvetica,sans-Serif" font-size="11.00">c_currency_id</text>
<polygon fill="none" stroke="black" points="567.5,-287 567.5,-309 719.5,-309 719.5,-287 567.5,-287"/>
<image xlink:href="../../images/foreignKeys.png" width="11px" height="12px" preserveAspectRatio="xMinYMin meet" x="572.5" y="-304"/>
<text text-anchor="start" x="587.5" y="-295.2" font-family="Helvetica,sans-Serif" font-size="11.00">ad_client_id</text>
<polygon fill="none" stroke="black" points="567.5,-265 567.5,-287 719.5,-287 719.5,-265 567.5,-265"/>
<image xlink:href="../../images/foreignKeys.png" width="11px" height="12px" preserveAspectRatio="xMinYMin meet" x="572.5" y="-282"/>
<text text-anchor="start" x="587.5" y="-273.2" font-family="Helvetica,sans-Serif" font-size="11.00">ad_org_id</text>
<polygon fill="#ffffff" stroke="transparent" points="567.5,-243 567.5,-265 719.5,-265 719.5,-243 567.5,-243"/>
<polygon fill="none" stroke="black" points="567.5,-243 567.5,-265 719.5,-265 719.5,-243 567.5,-243"/>
<text text-anchor="start" x="587.5" y="-251.2" font-family="Helvetica,sans-Serif" font-size="11.00">iso_code</text>
<polygon fill="#ffffff" stroke="transparent" points="567.5,-221 567.5,-243 719.5,-243 719.5,-221 567.5,-221"/>
<polygon fill="none" stroke="black" points="567.5,-221 567.5,-243 719.5,-243 719.5,-221 567.5,-221"/>
<text text-anchor="start" x="587.5" y="-229.2" font-family="Helvetica,sans-Serif" font-size="11.00">c_currency_uu</text>
<polygon fill="none" stroke="black" points="567.5,-203 567.5,-221 719.5,-221 719.5,-203 567.5,-203"/>
<text text-anchor="start" x="570.5" y="-209.2" font-family="Helvetica,sans-Serif" font-size="11.00">...</text>
<polygon fill="#ffffff" stroke="transparent" points="567.5,-185 567.5,-203 719.5,-203 719.5,-185 567.5,-185"/>
<polygon fill="none" stroke="black" points="567.5,-185 567.5,-203 719.5,-203 719.5,-185 567.5,-185"/>
<polygon fill="#ffffff" stroke="transparent" points="568.5,-186 568.5,-202 607.5,-202 607.5,-186 568.5,-186"/>
<text text-anchor="start" x="570.5" y="-191.2" font-family="Helvetica,sans-Serif" font-size="11.00">&lt; 2</text>
<polygon fill="#ffffff" stroke="transparent" points="607.5,-186 607.5,-202 674.5,-202 674.5,-186 607.5,-186"/>
<text text-anchor="start" x="618.5" y="-191.2" font-family="Helvetica,sans-Serif" font-size="11.00">175 rows</text>
<polygon fill="#ffffff" stroke="transparent" points="674.5,-186 674.5,-202 718.5,-202 718.5,-186 674.5,-186"/>
<text text-anchor="start" x="694.5" y="-191.2" font-family="Helvetica,sans-Serif" font-size="11.00">71 &gt;</text>
<polygon fill="black" stroke="black" points="607.5,-186 607.5,-202 607.5,-202 607.5,-186 607.5,-186"/>
<polygon fill="black" stroke="black" points="674.5,-186 674.5,-202 674.5,-202 674.5,-186 674.5,-186"/>
</a>
</g>
</g>
<!-- c_conversion_rate&#45;&gt;c_currency -->
<g id="edge5" class="edge">
<title>c_conversion_rate:w&#45;&gt;c_currency:e</title>
<path fill="none" stroke="black" d="M766.42,-358.56C748.58,-348.53 747.33,-320 720.5,-320"/>
<polygon fill="black" stroke="black" points="772.73,-360.1 779.65,-365.5 776.61,-361.05 780.5,-362 780.5,-362 780.5,-362 776.61,-361.05 781.35,-358.5 772.73,-360.1 772.73,-360.1"/>
<ellipse fill="none" stroke="black" cx="769.62" cy="-359.34" rx="3.2" ry="3.2"/>
</g>
<!-- c_conversion_rate&#45;&gt;c_currency -->
<g id="edge6" class="edge">
<title>c_conversion_rate:w&#45;&gt;c_currency:e</title>
<path fill="none" stroke="black" d="M765.97,-337.86C749.85,-332.7 742.9,-320 720.5,-320"/>
<polygon fill="black" stroke="black" points="772.59,-338.83 779.98,-343.56 776.54,-339.42 780.5,-340 780.5,-340 780.5,-340 776.54,-339.42 781.02,-336.44 772.59,-338.83 772.59,-338.83"/>
<ellipse fill="none" stroke="black" cx="769.42" cy="-338.37" rx="3.2" ry="3.2"/>
</g>
<!-- c_currency&#45;&gt;ad_org -->
<g id="edge8" class="edge">
<title>c_currency:w&#45;&gt;ad_org:e</title>
<path fill="none" stroke="black" d="M552.09,-278.17C491.36,-299.37 592.91,-469 509,-469"/>
<polygon fill="black" stroke="black" points="558.59,-277.19 567.04,-279.56 562.54,-276.59 566.5,-276 566.5,-276 566.5,-276 562.54,-276.59 565.96,-272.44 558.59,-277.19 558.59,-277.19"/>
<ellipse fill="none" stroke="black" cx="555.42" cy="-277.67" rx="3.2" ry="3.2"/>
</g>
<!-- c_currency&#45;&gt;ad_client -->
<g id="edge7" class="edge">
<title>c_currency:w&#45;&gt;ad_client:e</title>
<path fill="none" stroke="black" d="M551.92,-297.66C440.74,-292.48 385.78,-230.8 294,-302 241.22,-342.94 321.29,-447 254.5,-447"/>
<polygon fill="black" stroke="black" points="558.5,-297.81 566.42,-301.6 562.5,-297.91 566.5,-298 566.5,-298 566.5,-298 562.5,-297.91 566.58,-294.4 558.5,-297.81 558.5,-297.81"/>
<ellipse fill="none" stroke="black" cx="555.3" cy="-297.74" rx="3.2" ry="3.2"/>
</g>
<!-- i_conversion_rate -->
<g id="node6" class="node">
<title>i_conversion_rate</title>
<g id="a_node6"><a xlink:href="../../tables/i_conversion_rate.html" xlink:title="i_conversion_rate" target="_top">
<polygon fill="#ffffff" stroke="transparent" points="1091,-37 1091,-227 1264,-227 1264,-37 1091,-37"/>
<polygon fill="#f5f5f5" stroke="transparent" points="1091.5,-205 1091.5,-227 1264.5,-227 1264.5,-205 1091.5,-205"/>
<polygon fill="none" stroke="black" points="1091.5,-205 1091.5,-227 1264.5,-227 1264.5,-205 1091.5,-205"/>
<text text-anchor="start" x="1096.5" y="-214.2" font-family="Helvetica,sans-Serif" font-weight="bold" font-size="11.00">i_conversion_rate</text>
<text text-anchor="start" x="1229.5" y="-213.2" font-family="Helvetica,sans-Serif" font-size="11.00">[table]</text>
<polygon fill="none" stroke="black" points="1091.5,-183 1091.5,-205 1264.5,-205 1264.5,-183 1091.5,-183"/>
<image xlink:href="../../images/primaryKeys.png" width="11px" height="12px" preserveAspectRatio="xMinYMin meet" x="1096.5" y="-200"/>
<text text-anchor="start" x="1111.5" y="-191.2" font-family="Helvetica,sans-Serif" font-size="11.00">i_conversion_rate_id</text>
<polygon fill="none" stroke="black" points="1091.5,-161 1091.5,-183 1264.5,-183 1264.5,-161 1091.5,-161"/>
<image xlink:href="../../images/foreignKeys.png" width="11px" height="12px" preserveAspectRatio="xMinYMin meet" x="1096.5" y="-178"/>
<text text-anchor="start" x="1111.5" y="-169.2" font-family="Helvetica,sans-Serif" font-size="11.00">c_conversion_rate_id</text>
<polygon fill="none" stroke="black" points="1091.5,-139 1091.5,-161 1264.5,-161 1264.5,-139 1091.5,-139"/>
<image xlink:href="../../images/foreignKeys.png" width="11px" height="12px" preserveAspectRatio="xMinYMin meet" x="1096.5" y="-156"/>
<text text-anchor="start" x="1111.5" y="-147.2" font-family="Helvetica,sans-Serif" font-size="11.00">c_currency_id</text>
<polygon fill="none" stroke="black" points="1091.5,-117 1091.5,-139 1264.5,-139 1264.5,-117 1091.5,-117"/>
<image xlink:href="../../images/foreignKeys.png" width="11px" height="12px" preserveAspectRatio="xMinYMin meet" x="1096.5" y="-134"/>
<text text-anchor="start" x="1111.5" y="-125.2" font-family="Helvetica,sans-Serif" font-size="11.00">c_currency_id_to</text>
<polygon fill="none" stroke="black" points="1091.5,-95 1091.5,-117 1264.5,-117 1264.5,-95 1091.5,-95"/>
<image xlink:href="../../images/foreignKeys.png" width="11px" height="12px" preserveAspectRatio="xMinYMin meet" x="1096.5" y="-112"/>
<text text-anchor="start" x="1111.5" y="-103.2" font-family="Helvetica,sans-Serif" font-size="11.00">c_conversiontype_id</text>
<polygon fill="#ffffff" stroke="transparent" points="1091.5,-73 1091.5,-95 1264.5,-95 1264.5,-73 1091.5,-73"/>
<polygon fill="none" stroke="black" points="1091.5,-73 1091.5,-95 1264.5,-95 1264.5,-73 1091.5,-73"/>
<text text-anchor="start" x="1111.5" y="-81.2" font-family="Helvetica,sans-Serif" font-size="11.00">i_conversion_rate_uu</text>
<polygon fill="none" stroke="black" points="1091.5,-55 1091.5,-73 1264.5,-73 1264.5,-55 1091.5,-55"/>
<text text-anchor="start" x="1094.5" y="-61.2" font-family="Helvetica,sans-Serif" font-size="11.00">...</text>
<polygon fill="#ffffff" stroke="transparent" points="1091.5,-37 1091.5,-55 1264.5,-55 1264.5,-37 1091.5,-37"/>
<polygon fill="none" stroke="black" points="1091.5,-37 1091.5,-55 1264.5,-55 1264.5,-37 1091.5,-37"/>
<polygon fill="#ffffff" stroke="transparent" points="1092.5,-38 1092.5,-54 1155.5,-54 1155.5,-38 1092.5,-38"/>
<text text-anchor="start" x="1094.5" y="-43.2" font-family="Helvetica,sans-Serif" font-size="11.00">&lt; 4</text>
<polygon fill="#ffffff" stroke="transparent" points="1155.5,-38 1155.5,-54 1209.5,-54 1209.5,-38 1155.5,-38"/>
<text text-anchor="start" x="1179" y="-43.2" font-family="Helvetica,sans-Serif" font-size="11.00"> &#160;</text>
<polygon fill="#ffffff" stroke="transparent" points="1209.5,-38 1209.5,-54 1263.5,-54 1263.5,-38 1209.5,-38"/>
<text text-anchor="start" x="1254.5" y="-43.2" font-family="Helvetica,sans-Serif" font-size="11.00"> &#160;</text>
<polygon fill="black" stroke="black" points="1155.5,-38 1155.5,-54 1155.5,-54 1155.5,-38 1155.5,-38"/>
<polygon fill="black" stroke="black" points="1209.5,-38 1209.5,-54 1209.5,-54 1209.5,-38 1209.5,-38"/>
</a>
</g>
</g>
<!-- i_conversion_rate&#45;&gt;c_conversion_rate -->
<g id="edge9" class="edge">
<title>i_conversion_rate:w&#45;&gt;c_conversion_rate:e</title>
<path fill="none" stroke="black" d="M1076.65,-176.63C1022.86,-219 1118.11,-538 1041.5,-538"/>
<polygon fill="black" stroke="black" points="1082.91,-174.53 1091.64,-175.41 1086.71,-173.27 1090.5,-172 1090.5,-172 1090.5,-172 1086.71,-173.27 1089.36,-168.59 1082.91,-174.53 1082.91,-174.53"/>
<ellipse fill="none" stroke="black" cx="1079.88" cy="-175.55" rx="3.2" ry="3.2"/>
</g>
<!-- i_conversion_rate&#45;&gt;c_conversiontype -->
<g id="edge10" class="edge">
<title>i_conversion_rate:w&#45;&gt;c_conversiontype:e</title>
<path fill="none" stroke="black" d="M1075.88,-106.03C928.29,-106.55 886.12,-115 731.5,-115"/>
<polygon fill="black" stroke="black" points="1082.5,-106.01 1090.51,-109.6 1086.5,-106.01 1090.5,-106 1090.5,-106 1090.5,-106 1086.5,-106.01 1090.49,-102.4 1082.5,-106.01 1082.5,-106.01"/>
<ellipse fill="none" stroke="black" cx="1079.3" cy="-106.02" rx="3.2" ry="3.2"/>
</g>
<!-- i_conversion_rate&#45;&gt;c_currency -->
<g id="edge11" class="edge">
<title>i_conversion_rate:w&#45;&gt;c_currency:e</title>
<path fill="none" stroke="black" d="M1075.82,-149.72C995.94,-147 823.96,-126.52 771,-167 714.11,-210.48 792.11,-320 720.5,-320"/>
<polygon fill="black" stroke="black" points="1082.5,-149.85 1090.43,-153.6 1086.5,-149.92 1090.5,-150 1090.5,-150 1090.5,-150 1086.5,-149.92 1090.57,-146.4 1082.5,-149.85 1082.5,-149.85"/>
<ellipse fill="none" stroke="black" cx="1079.3" cy="-149.78" rx="3.2" ry="3.2"/>
</g>
<!-- i_conversion_rate&#45;&gt;c_currency -->
<g id="edge12" class="edge">
<title>i_conversion_rate:w&#45;&gt;c_currency:e</title>
<path fill="none" stroke="black" d="M1075.82,-127.65C995.9,-124.3 823.32,-98.77 771,-140 705.74,-191.43 803.59,-320 720.5,-320"/>
<polygon fill="black" stroke="black" points="1082.5,-127.81 1090.41,-131.6 1086.5,-127.91 1090.5,-128 1090.5,-128 1090.5,-128 1086.5,-127.91 1090.59,-124.4 1082.5,-127.81 1082.5,-127.81"/>
<ellipse fill="none" stroke="black" cx="1079.3" cy="-127.73" rx="3.2" ry="3.2"/>
</g>
</g>
</svg>
