<?xml version="1.0" encoding="UTF-8" standalone="no"?>
<!DOCTYPE svg PUBLIC "-//W3C//DTD SVG 1.1//EN"
 "http://www.w3.org/Graphics/SVG/1.1/DTD/svg11.dtd">
<!-- Generated by graphviz version 2.43.0 (0)
 -->
<!-- Title: oneDegreeRelationshipsDiagram Pages: 1 -->
<svg width="1166pt" height="674pt"
 viewBox="0.00 0.00 1166.00 674.00" xmlns="http://www.w3.org/2000/svg" xmlns:xlink="http://www.w3.org/1999/xlink">
<g id="graph0" class="graph" transform="scale(1 1) rotate(0) translate(4 670)">
<title>oneDegreeRelationshipsDiagram</title>
<polygon fill="#ffffff" stroke="transparent" points="-4,4 -4,-670 1162,-670 1162,4 -4,4"/>
<text text-anchor="middle" x="71.5" y="-7.2" font-family="Helvetica,sans-Serif" font-size="11.00">Generated by SchemaSpy</text>
<!-- c_commissionamt -->
<g id="node1" class="node">
<title>c_commissionamt</title>
<g id="a_node1"><a xlink:href="../../tables/c_commissionamt.html" xlink:title="c_commissionamt" target="_top">
<polygon fill="#ffffff" stroke="transparent" points="624,-158 624,-642 913,-642 913,-158 624,-158"/>
<polygon fill="#f5f5f5" stroke="transparent" points="626.5,-618 626.5,-640 911.5,-640 911.5,-618 626.5,-618"/>
<polygon fill="none" stroke="black" points="626.5,-618 626.5,-640 911.5,-640 911.5,-618 626.5,-618"/>
<text text-anchor="start" x="631.5" y="-627.2" font-family="Helvetica,sans-Serif" font-weight="bold" font-size="11.00">c_commissionamt</text>
<text text-anchor="start" x="876.5" y="-626.2" font-family="Helvetica,sans-Serif" font-size="11.00">[table]</text>
<polygon fill="none" stroke="black" points="626.5,-596 626.5,-618 828.5,-618 828.5,-596 626.5,-596"/>
<image xlink:href="../../images/primaryKeys.png" width="11px" height="12px" preserveAspectRatio="xMinYMin meet" x="631.5" y="-613"/>
<text text-anchor="start" x="646.5" y="-604.2" font-family="Helvetica,sans-Serif" font-size="11.00">c_commissionamt_id</text>
<polygon fill="none" stroke="black" points="828.5,-596 828.5,-618 911.5,-618 911.5,-596 828.5,-596"/>
<text text-anchor="start" x="831.5" y="-604.2" font-family="Helvetica,sans-Serif" font-size="11.00">numeric[10]</text>
<polygon fill="none" stroke="black" points="626.5,-574 626.5,-596 828.5,-596 828.5,-574 626.5,-574"/>
<text text-anchor="start" x="646.5" y="-582.2" font-family="Helvetica,sans-Serif" font-size="11.00">ad_client_id</text>
<polygon fill="none" stroke="black" points="828.5,-574 828.5,-596 911.5,-596 911.5,-574 828.5,-574"/>
<text text-anchor="start" x="831.5" y="-582.2" font-family="Helvetica,sans-Serif" font-size="11.00">numeric[10]</text>
<polygon fill="none" stroke="black" points="626.5,-552 626.5,-574 828.5,-574 828.5,-552 626.5,-552"/>
<text text-anchor="start" x="646.5" y="-560.2" font-family="Helvetica,sans-Serif" font-size="11.00">ad_org_id</text>
<polygon fill="none" stroke="black" points="828.5,-552 828.5,-574 911.5,-574 911.5,-552 828.5,-552"/>
<text text-anchor="start" x="831.5" y="-560.2" font-family="Helvetica,sans-Serif" font-size="11.00">numeric[10]</text>
<polygon fill="none" stroke="black" points="626.5,-530 626.5,-552 828.5,-552 828.5,-530 626.5,-530"/>
<text text-anchor="start" x="646.5" y="-538.2" font-family="Helvetica,sans-Serif" font-size="11.00">isactive</text>
<polygon fill="none" stroke="black" points="828.5,-530 828.5,-552 911.5,-552 911.5,-530 828.5,-530"/>
<text text-anchor="start" x="831.5" y="-538.2" font-family="Helvetica,sans-Serif" font-size="11.00">bpchar[1]</text>
<polygon fill="none" stroke="black" points="626.5,-508 626.5,-530 828.5,-530 828.5,-508 626.5,-508"/>
<text text-anchor="start" x="646.5" y="-516.2" font-family="Helvetica,sans-Serif" font-size="11.00">created</text>
<polygon fill="none" stroke="black" points="828.5,-508 828.5,-530 911.5,-530 911.5,-508 828.5,-508"/>
<text text-anchor="start" x="831.5" y="-516.2" font-family="Helvetica,sans-Serif" font-size="11.00">timestamp[29,6]</text>
<polygon fill="none" stroke="black" points="626.5,-486 626.5,-508 828.5,-508 828.5,-486 626.5,-486"/>
<text text-anchor="start" x="646.5" y="-494.2" font-family="Helvetica,sans-Serif" font-size="11.00">createdby</text>
<polygon fill="none" stroke="black" points="828.5,-486 828.5,-508 911.5,-508 911.5,-486 828.5,-486"/>
<text text-anchor="start" x="831.5" y="-494.2" font-family="Helvetica,sans-Serif" font-size="11.00">numeric[10]</text>
<polygon fill="none" stroke="black" points="626.5,-464 626.5,-486 828.5,-486 828.5,-464 626.5,-464"/>
<text text-anchor="start" x="646.5" y="-472.2" font-family="Helvetica,sans-Serif" font-size="11.00">updated</text>
<polygon fill="none" stroke="black" points="828.5,-464 828.5,-486 911.5,-486 911.5,-464 828.5,-464"/>
<text text-anchor="start" x="831.5" y="-472.2" font-family="Helvetica,sans-Serif" font-size="11.00">timestamp[29,6]</text>
<polygon fill="none" stroke="black" points="626.5,-442 626.5,-464 828.5,-464 828.5,-442 626.5,-442"/>
<text text-anchor="start" x="646.5" y="-450.2" font-family="Helvetica,sans-Serif" font-size="11.00">updatedby</text>
<polygon fill="none" stroke="black" points="828.5,-442 828.5,-464 911.5,-464 911.5,-442 828.5,-442"/>
<text text-anchor="start" x="831.5" y="-450.2" font-family="Helvetica,sans-Serif" font-size="11.00">numeric[10]</text>
<polygon fill="#ffffff" stroke="transparent" points="626.5,-420 626.5,-442 828.5,-442 828.5,-420 626.5,-420"/>
<polygon fill="none" stroke="black" points="626.5,-420 626.5,-442 828.5,-442 828.5,-420 626.5,-420"/>
<image xlink:href="../../images/foreignKeys.png" width="11px" height="12px" preserveAspectRatio="xMinYMin meet" x="631.5" y="-437"/>
<text text-anchor="start" x="646.5" y="-428.2" font-family="Helvetica,sans-Serif" font-size="11.00">c_commissionrun_id</text>
<polygon fill="none" stroke="black" points="828.5,-420 828.5,-442 911.5,-442 911.5,-420 828.5,-420"/>
<text text-anchor="start" x="831.5" y="-428.2" font-family="Helvetica,sans-Serif" font-size="11.00">numeric[10]</text>
<polygon fill="#ffffff" stroke="transparent" points="626.5,-398 626.5,-420 828.5,-420 828.5,-398 626.5,-398"/>
<polygon fill="none" stroke="black" points="626.5,-398 626.5,-420 828.5,-420 828.5,-398 626.5,-398"/>
<image xlink:href="../../images/foreignKeys.png" width="11px" height="12px" preserveAspectRatio="xMinYMin meet" x="631.5" y="-415"/>
<text text-anchor="start" x="646.5" y="-406.2" font-family="Helvetica,sans-Serif" font-size="11.00">c_commissionline_id</text>
<polygon fill="none" stroke="black" points="828.5,-398 828.5,-420 911.5,-420 911.5,-398 828.5,-398"/>
<text text-anchor="start" x="831.5" y="-406.2" font-family="Helvetica,sans-Serif" font-size="11.00">numeric[10]</text>
<polygon fill="none" stroke="black" points="626.5,-376 626.5,-398 828.5,-398 828.5,-376 626.5,-376"/>
<text text-anchor="start" x="646.5" y="-384.2" font-family="Helvetica,sans-Serif" font-size="11.00">convertedamt</text>
<polygon fill="none" stroke="black" points="828.5,-376 828.5,-398 911.5,-398 911.5,-376 828.5,-376"/>
<text text-anchor="start" x="831.5" y="-384.2" font-family="Helvetica,sans-Serif" font-size="11.00">numeric[0]</text>
<polygon fill="none" stroke="black" points="626.5,-354 626.5,-376 828.5,-376 828.5,-354 626.5,-354"/>
<text text-anchor="start" x="646.5" y="-362.2" font-family="Helvetica,sans-Serif" font-size="11.00">actualqty</text>
<polygon fill="none" stroke="black" points="828.5,-354 828.5,-376 911.5,-376 911.5,-354 828.5,-354"/>
<text text-anchor="start" x="831.5" y="-362.2" font-family="Helvetica,sans-Serif" font-size="11.00">numeric[0]</text>
<polygon fill="none" stroke="black" points="626.5,-332 626.5,-354 828.5,-354 828.5,-332 626.5,-332"/>
<text text-anchor="start" x="646.5" y="-340.2" font-family="Helvetica,sans-Serif" font-size="11.00">commissionamt</text>
<polygon fill="none" stroke="black" points="828.5,-332 828.5,-354 911.5,-354 911.5,-332 828.5,-332"/>
<text text-anchor="start" x="831.5" y="-340.2" font-family="Helvetica,sans-Serif" font-size="11.00">numeric[0]</text>
<polygon fill="#ffffff" stroke="transparent" points="626.5,-310 626.5,-332 828.5,-332 828.5,-310 626.5,-310"/>
<polygon fill="none" stroke="black" points="626.5,-310 626.5,-332 828.5,-332 828.5,-310 626.5,-310"/>
<text text-anchor="start" x="646.5" y="-318.2" font-family="Helvetica,sans-Serif" font-size="11.00">c_commissionamt_uu</text>
<polygon fill="none" stroke="black" points="828.5,-310 828.5,-332 911.5,-332 911.5,-310 828.5,-310"/>
<text text-anchor="start" x="831.5" y="-318.2" font-family="Helvetica,sans-Serif" font-size="11.00">varchar[36]</text>
<polygon fill="none" stroke="black" points="626.5,-288 626.5,-310 828.5,-310 828.5,-288 626.5,-288"/>
<image xlink:href="../../images/foreignKeys.png" width="11px" height="12px" preserveAspectRatio="xMinYMin meet" x="631.5" y="-305"/>
<text text-anchor="start" x="646.5" y="-296.2" font-family="Helvetica,sans-Serif" font-size="11.00">cof_configuracaometa_id</text>
<polygon fill="none" stroke="black" points="828.5,-288 828.5,-310 911.5,-310 911.5,-288 828.5,-288"/>
<text text-anchor="start" x="831.5" y="-296.2" font-family="Helvetica,sans-Serif" font-size="11.00">numeric[10]</text>
<polygon fill="none" stroke="black" points="626.5,-266 626.5,-288 828.5,-288 828.5,-266 626.5,-266"/>
<text text-anchor="start" x="646.5" y="-274.2" font-family="Helvetica,sans-Serif" font-size="11.00">amtmultiplier</text>
<polygon fill="none" stroke="black" points="828.5,-266 828.5,-288 911.5,-288 911.5,-266 828.5,-266"/>
<text text-anchor="start" x="831.5" y="-274.2" font-family="Helvetica,sans-Serif" font-size="11.00">numeric[0]</text>
<polygon fill="none" stroke="black" points="626.5,-244 626.5,-266 828.5,-266 828.5,-244 626.5,-244"/>
<text text-anchor="start" x="646.5" y="-252.2" font-family="Helvetica,sans-Serif" font-size="11.00">cof_metaalcancada</text>
<polygon fill="none" stroke="black" points="828.5,-244 828.5,-266 911.5,-266 911.5,-244 828.5,-244"/>
<text text-anchor="start" x="831.5" y="-252.2" font-family="Helvetica,sans-Serif" font-size="11.00">numeric[0]</text>
<polygon fill="none" stroke="black" points="626.5,-222 626.5,-244 828.5,-244 828.5,-222 626.5,-222"/>
<text text-anchor="start" x="646.5" y="-230.2" font-family="Helvetica,sans-Serif" font-size="11.00">cof_precomedio</text>
<polygon fill="none" stroke="black" points="828.5,-222 828.5,-244 911.5,-244 911.5,-222 828.5,-222"/>
<text text-anchor="start" x="831.5" y="-230.2" font-family="Helvetica,sans-Serif" font-size="11.00">numeric[0]</text>
<polygon fill="none" stroke="black" points="626.5,-200 626.5,-222 828.5,-222 828.5,-200 626.5,-200"/>
<text text-anchor="start" x="646.5" y="-208.2" font-family="Helvetica,sans-Serif" font-size="11.00">cof_peso</text>
<polygon fill="none" stroke="black" points="828.5,-200 828.5,-222 911.5,-222 911.5,-200 828.5,-200"/>
<text text-anchor="start" x="831.5" y="-208.2" font-family="Helvetica,sans-Serif" font-size="11.00">numeric[0]</text>
<polygon fill="none" stroke="black" points="626.5,-178 626.5,-200 828.5,-200 828.5,-178 626.5,-178"/>
<text text-anchor="start" x="646.5" y="-186.2" font-family="Helvetica,sans-Serif" font-size="11.00">cof_porcmetaalcancada</text>
<polygon fill="none" stroke="black" points="828.5,-178 828.5,-200 911.5,-200 911.5,-178 828.5,-178"/>
<text text-anchor="start" x="831.5" y="-186.2" font-family="Helvetica,sans-Serif" font-size="11.00">numeric[0]</text>
<polygon fill="#ffffff" stroke="transparent" points="626.5,-160 626.5,-178 911.5,-178 911.5,-160 626.5,-160"/>
<polygon fill="none" stroke="black" points="626.5,-160 626.5,-178 911.5,-178 911.5,-160 626.5,-160"/>
<polygon fill="#ffffff" stroke="transparent" points="627.5,-161 627.5,-177 725.5,-177 725.5,-161 627.5,-161"/>
<text text-anchor="start" x="629.5" y="-166.2" font-family="Helvetica,sans-Serif" font-size="11.00">&lt; 3</text>
<polygon fill="#ffffff" stroke="transparent" points="725.5,-161 725.5,-177 813.5,-177 813.5,-161 725.5,-161"/>
<text text-anchor="start" x="766" y="-166.2" font-family="Helvetica,sans-Serif" font-size="11.00"> &#160;</text>
<polygon fill="#ffffff" stroke="transparent" points="813.5,-161 813.5,-177 910.5,-177 910.5,-161 813.5,-161"/>
<text text-anchor="start" x="892.5" y="-166.2" font-family="Helvetica,sans-Serif" font-size="11.00">1 &gt;</text>
<polygon fill="black" stroke="black" points="725.5,-161 725.5,-177 725.5,-177 725.5,-161 725.5,-161"/>
<polygon fill="black" stroke="black" points="813.5,-161 813.5,-177 813.5,-177 813.5,-161 813.5,-161"/>
<polygon fill="none" stroke="black" stroke-width="2" points="625,-159 625,-641 912,-641 912,-159 625,-159"/>
</a>
</g>
</g>
<!-- c_commissionline -->
<g id="node2" class="node">
<title>c_commissionline</title>
<g id="a_node2"><a xlink:href="../../tables/c_commissionline.html" xlink:title="c_commissionline" target="_top">
<polygon fill="#ffffff" stroke="transparent" points="8,-37 8,-381 319,-381 319,-37 8,-37"/>
<polygon fill="#f5f5f5" stroke="transparent" points="8.5,-359 8.5,-381 319.5,-381 319.5,-359 8.5,-359"/>
<polygon fill="none" stroke="black" points="8.5,-359 8.5,-381 319.5,-381 319.5,-359 8.5,-359"/>
<text text-anchor="start" x="13.5" y="-368.2" font-family="Helvetica,sans-Serif" font-weight="bold" font-size="11.00">c_commissionline</text>
<text text-anchor="start" x="284.5" y="-367.2" font-family="Helvetica,sans-Serif" font-size="11.00">[table]</text>
<polygon fill="none" stroke="black" points="8.5,-337 8.5,-359 319.5,-359 319.5,-337 8.5,-337"/>
<image xlink:href="../../images/primaryKeys.png" width="11px" height="12px" preserveAspectRatio="xMinYMin meet" x="13.5" y="-354"/>
<text text-anchor="start" x="28.5" y="-345.2" font-family="Helvetica,sans-Serif" font-size="11.00">c_commissionline_id</text>
<polygon fill="#ffffff" stroke="transparent" points="8.5,-315 8.5,-337 319.5,-337 319.5,-315 8.5,-315"/>
<polygon fill="none" stroke="black" points="8.5,-315 8.5,-337 319.5,-337 319.5,-315 8.5,-315"/>
<image xlink:href="../../images/foreignKeys.png" width="11px" height="12px" preserveAspectRatio="xMinYMin meet" x="13.5" y="-332"/>
<text text-anchor="start" x="28.5" y="-323.2" font-family="Helvetica,sans-Serif" font-size="11.00">c_commission_id</text>
<polygon fill="none" stroke="black" points="8.5,-293 8.5,-315 319.5,-315 319.5,-293 8.5,-293"/>
<image xlink:href="../../images/foreignKeys.png" width="11px" height="12px" preserveAspectRatio="xMinYMin meet" x="13.5" y="-310"/>
<text text-anchor="start" x="28.5" y="-301.2" font-family="Helvetica,sans-Serif" font-size="11.00">org_id</text>
<polygon fill="none" stroke="black" points="8.5,-271 8.5,-293 319.5,-293 319.5,-271 8.5,-271"/>
<image xlink:href="../../images/foreignKeys.png" width="11px" height="12px" preserveAspectRatio="xMinYMin meet" x="13.5" y="-288"/>
<text text-anchor="start" x="28.5" y="-279.2" font-family="Helvetica,sans-Serif" font-size="11.00">m_product_category_id</text>
<polygon fill="none" stroke="black" points="8.5,-249 8.5,-271 319.5,-271 319.5,-249 8.5,-249"/>
<image xlink:href="../../images/foreignKeys.png" width="11px" height="12px" preserveAspectRatio="xMinYMin meet" x="13.5" y="-266"/>
<text text-anchor="start" x="28.5" y="-257.2" font-family="Helvetica,sans-Serif" font-size="11.00">m_product_id</text>
<polygon fill="none" stroke="black" points="8.5,-227 8.5,-249 319.5,-249 319.5,-227 8.5,-227"/>
<image xlink:href="../../images/foreignKeys.png" width="11px" height="12px" preserveAspectRatio="xMinYMin meet" x="13.5" y="-244"/>
<text text-anchor="start" x="28.5" y="-235.2" font-family="Helvetica,sans-Serif" font-size="11.00">c_bp_group_id</text>
<polygon fill="none" stroke="black" points="8.5,-205 8.5,-227 319.5,-227 319.5,-205 8.5,-205"/>
<image xlink:href="../../images/foreignKeys.png" width="11px" height="12px" preserveAspectRatio="xMinYMin meet" x="13.5" y="-222"/>
<text text-anchor="start" x="28.5" y="-213.2" font-family="Helvetica,sans-Serif" font-size="11.00">c_bpartner_id</text>
<polygon fill="none" stroke="black" points="8.5,-183 8.5,-205 319.5,-205 319.5,-183 8.5,-183"/>
<image xlink:href="../../images/foreignKeys.png" width="11px" height="12px" preserveAspectRatio="xMinYMin meet" x="13.5" y="-200"/>
<text text-anchor="start" x="28.5" y="-191.2" font-family="Helvetica,sans-Serif" font-size="11.00">c_salesregion_id</text>
<polygon fill="#ffffff" stroke="transparent" points="8.5,-161 8.5,-183 319.5,-183 319.5,-161 8.5,-161"/>
<polygon fill="none" stroke="black" points="8.5,-161 8.5,-183 319.5,-183 319.5,-161 8.5,-161"/>
<text text-anchor="start" x="28.5" y="-169.2" font-family="Helvetica,sans-Serif" font-size="11.00">c_commissionline_uu</text>
<polygon fill="none" stroke="black" points="8.5,-139 8.5,-161 319.5,-161 319.5,-139 8.5,-139"/>
<image xlink:href="../../images/foreignKeys.png" width="11px" height="12px" preserveAspectRatio="xMinYMin meet" x="13.5" y="-156"/>
<text text-anchor="start" x="28.5" y="-147.2" font-family="Helvetica,sans-Serif" font-size="11.00">cof_grupofornecedor_id</text>
<polygon fill="none" stroke="black" points="8.5,-117 8.5,-139 319.5,-139 319.5,-117 8.5,-117"/>
<image xlink:href="../../images/foreignKeys.png" width="11px" height="12px" preserveAspectRatio="xMinYMin meet" x="13.5" y="-134"/>
<text text-anchor="start" x="28.5" y="-125.2" font-family="Helvetica,sans-Serif" font-size="11.00">cof_producttype_id</text>
<polygon fill="none" stroke="black" points="8.5,-95 8.5,-117 319.5,-117 319.5,-95 8.5,-95"/>
<image xlink:href="../../images/foreignKeys.png" width="11px" height="12px" preserveAspectRatio="xMinYMin meet" x="13.5" y="-112"/>
<text text-anchor="start" x="28.5" y="-103.2" font-family="Helvetica,sans-Serif" font-size="11.00">cof_productclass_id</text>
<polygon fill="none" stroke="black" points="8.5,-73 8.5,-95 319.5,-95 319.5,-73 8.5,-73"/>
<image xlink:href="../../images/foreignKeys.png" width="11px" height="12px" preserveAspectRatio="xMinYMin meet" x="13.5" y="-90"/>
<text text-anchor="start" x="28.5" y="-81.2" font-family="Helvetica,sans-Serif" font-size="11.00">cof_productgroup_id</text>
<polygon fill="none" stroke="black" points="8.5,-55 8.5,-73 319.5,-73 319.5,-55 8.5,-55"/>
<text text-anchor="start" x="11.5" y="-61.2" font-family="Helvetica,sans-Serif" font-size="11.00">...</text>
<polygon fill="#ffffff" stroke="transparent" points="8.5,-37 8.5,-55 319.5,-55 319.5,-37 8.5,-37"/>
<polygon fill="none" stroke="black" points="8.5,-37 8.5,-55 319.5,-55 319.5,-37 8.5,-37"/>
<polygon fill="#ffffff" stroke="transparent" points="9.5,-38 9.5,-54 119.5,-54 119.5,-38 9.5,-38"/>
<text text-anchor="start" x="11.5" y="-43.2" font-family="Helvetica,sans-Serif" font-size="11.00">&lt; 11</text>
<polygon fill="#ffffff" stroke="transparent" points="119.5,-38 119.5,-54 214.5,-54 214.5,-38 119.5,-38"/>
<text text-anchor="start" x="163.5" y="-43.2" font-family="Helvetica,sans-Serif" font-size="11.00"> &#160;</text>
<polygon fill="#ffffff" stroke="transparent" points="214.5,-38 214.5,-54 318.5,-54 318.5,-38 214.5,-38"/>
<text text-anchor="start" x="300.5" y="-43.2" font-family="Helvetica,sans-Serif" font-size="11.00">2 &gt;</text>
<polygon fill="black" stroke="black" points="119.5,-38 119.5,-54 119.5,-54 119.5,-38 119.5,-38"/>
<polygon fill="black" stroke="black" points="214.5,-38 214.5,-54 214.5,-54 214.5,-38 214.5,-38"/>
</a>
</g>
</g>
<!-- c_commissionamt&#45;&gt;c_commissionline -->
<g id="edge1" class="edge">
<title>c_commissionamt:w&#45;&gt;c_commissionline:e</title>
<path fill="none" stroke="black" d="M610.86,-409.2C544.18,-410.79 408.87,-420.55 360,-396 335.31,-383.6 348.13,-348 320.5,-348"/>
<polygon fill="black" stroke="black" points="617.5,-409.11 625.55,-412.6 621.5,-409.06 625.5,-409 625.5,-409 625.5,-409 621.5,-409.06 625.45,-405.4 617.5,-409.11 617.5,-409.11"/>
<ellipse fill="none" stroke="black" cx="614.3" cy="-409.15" rx="3.2" ry="3.2"/>
</g>
<!-- c_commissionrun -->
<g id="node3" class="node">
<title>c_commissionrun</title>
<g id="a_node3"><a xlink:href="../../tables/c_commissionrun.html" xlink:title="c_commissionrun" target="_top">
<polygon fill="#ffffff" stroke="transparent" points="386,-433 386,-579 557,-579 557,-433 386,-433"/>
<polygon fill="#f5f5f5" stroke="transparent" points="386.5,-557 386.5,-579 557.5,-579 557.5,-557 386.5,-557"/>
<polygon fill="none" stroke="black" points="386.5,-557 386.5,-579 557.5,-579 557.5,-557 386.5,-557"/>
<text text-anchor="start" x="391.5" y="-566.2" font-family="Helvetica,sans-Serif" font-weight="bold" font-size="11.00">c_commissionrun</text>
<text text-anchor="start" x="522.5" y="-565.2" font-family="Helvetica,sans-Serif" font-size="11.00">[table]</text>
<polygon fill="none" stroke="black" points="386.5,-535 386.5,-557 557.5,-557 557.5,-535 386.5,-535"/>
<image xlink:href="../../images/primaryKeys.png" width="11px" height="12px" preserveAspectRatio="xMinYMin meet" x="391.5" y="-552"/>
<text text-anchor="start" x="406.5" y="-543.2" font-family="Helvetica,sans-Serif" font-size="11.00">c_commissionrun_id</text>
<polygon fill="none" stroke="black" points="386.5,-513 386.5,-535 557.5,-535 557.5,-513 386.5,-513"/>
<image xlink:href="../../images/foreignKeys.png" width="11px" height="12px" preserveAspectRatio="xMinYMin meet" x="391.5" y="-530"/>
<text text-anchor="start" x="406.5" y="-521.2" font-family="Helvetica,sans-Serif" font-size="11.00">c_commission_id</text>
<polygon fill="#ffffff" stroke="transparent" points="386.5,-491 386.5,-513 557.5,-513 557.5,-491 386.5,-491"/>
<polygon fill="none" stroke="black" points="386.5,-491 386.5,-513 557.5,-513 557.5,-491 386.5,-491"/>
<text text-anchor="start" x="406.5" y="-499.2" font-family="Helvetica,sans-Serif" font-size="11.00">c_commissionrun_uu</text>
<polygon fill="#ffffff" stroke="transparent" points="386.5,-469 386.5,-491 557.5,-491 557.5,-469 386.5,-469"/>
<polygon fill="none" stroke="black" points="386.5,-469 386.5,-491 557.5,-491 557.5,-469 386.5,-469"/>
<image xlink:href="../../images/foreignKeys.png" width="11px" height="12px" preserveAspectRatio="xMinYMin meet" x="391.5" y="-486"/>
<text text-anchor="start" x="406.5" y="-477.2" font-family="Helvetica,sans-Serif" font-size="11.00">c_invoice_id</text>
<polygon fill="none" stroke="black" points="386.5,-451 386.5,-469 557.5,-469 557.5,-451 386.5,-451"/>
<text text-anchor="start" x="389.5" y="-457.2" font-family="Helvetica,sans-Serif" font-size="11.00">...</text>
<polygon fill="#ffffff" stroke="transparent" points="386.5,-433 386.5,-451 557.5,-451 557.5,-433 386.5,-433"/>
<polygon fill="none" stroke="black" points="386.5,-433 386.5,-451 557.5,-451 557.5,-433 386.5,-433"/>
<polygon fill="#ffffff" stroke="transparent" points="387.5,-434 387.5,-450 447.5,-450 447.5,-434 387.5,-434"/>
<text text-anchor="start" x="389.5" y="-439.2" font-family="Helvetica,sans-Serif" font-size="11.00">&lt; 2</text>
<polygon fill="#ffffff" stroke="transparent" points="447.5,-434 447.5,-450 497.5,-450 497.5,-434 447.5,-434"/>
<text text-anchor="start" x="469" y="-439.2" font-family="Helvetica,sans-Serif" font-size="11.00"> &#160;</text>
<polygon fill="#ffffff" stroke="transparent" points="497.5,-434 497.5,-450 556.5,-450 556.5,-434 497.5,-434"/>
<text text-anchor="start" x="538.5" y="-439.2" font-family="Helvetica,sans-Serif" font-size="11.00">1 &gt;</text>
<polygon fill="black" stroke="black" points="447.5,-434 447.5,-450 447.5,-450 447.5,-434 447.5,-434"/>
<polygon fill="black" stroke="black" points="497.5,-434 497.5,-450 497.5,-450 497.5,-434 497.5,-434"/>
</a>
</g>
</g>
<!-- c_commissionamt&#45;&gt;c_commissionrun -->
<g id="edge2" class="edge">
<title>c_commissionamt:w&#45;&gt;c_commissionrun:e</title>
<path fill="none" stroke="black" d="M611.12,-434.08C575.31,-452.36 611.88,-546 558.5,-546"/>
<polygon fill="black" stroke="black" points="617.68,-432.67 626.25,-434.52 621.59,-431.84 625.5,-431 625.5,-431 625.5,-431 621.59,-431.84 624.75,-427.48 617.68,-432.67 617.68,-432.67"/>
<ellipse fill="none" stroke="black" cx="614.55" cy="-433.34" rx="3.2" ry="3.2"/>
</g>
<!-- cof_configuracaometa -->
<g id="node4" class="node">
<title>cof_configuracaometa</title>
<g id="a_node4"><a xlink:href="../../tables/cof_configuracaometa.html" xlink:title="cof_configuracaometa" target="_top">
<polygon fill="#ffffff" stroke="transparent" points="368,-173 368,-385 575,-385 575,-173 368,-173"/>
<polygon fill="#f5f5f5" stroke="transparent" points="368.5,-363 368.5,-385 575.5,-385 575.5,-363 368.5,-363"/>
<polygon fill="none" stroke="black" points="368.5,-363 368.5,-385 575.5,-385 575.5,-363 368.5,-363"/>
<text text-anchor="start" x="373.5" y="-372.2" font-family="Helvetica,sans-Serif" font-weight="bold" font-size="11.00">cof_configuracaometa</text>
<text text-anchor="start" x="540.5" y="-371.2" font-family="Helvetica,sans-Serif" font-size="11.00">[table]</text>
<polygon fill="none" stroke="black" points="368.5,-341 368.5,-363 575.5,-363 575.5,-341 368.5,-341"/>
<image xlink:href="../../images/foreignKeys.png" width="11px" height="12px" preserveAspectRatio="xMinYMin meet" x="373.5" y="-358"/>
<text text-anchor="start" x="388.5" y="-349.2" font-family="Helvetica,sans-Serif" font-size="11.00">ad_client_id</text>
<polygon fill="none" stroke="black" points="368.5,-319 368.5,-341 575.5,-341 575.5,-319 368.5,-319"/>
<image xlink:href="../../images/foreignKeys.png" width="11px" height="12px" preserveAspectRatio="xMinYMin meet" x="373.5" y="-336"/>
<text text-anchor="start" x="388.5" y="-327.2" font-family="Helvetica,sans-Serif" font-size="11.00">ad_org_id</text>
<polygon fill="#ffffff" stroke="transparent" points="368.5,-297 368.5,-319 575.5,-319 575.5,-297 368.5,-297"/>
<polygon fill="none" stroke="black" points="368.5,-297 368.5,-319 575.5,-319 575.5,-297 368.5,-297"/>
<text text-anchor="start" x="388.5" y="-305.2" font-family="Helvetica,sans-Serif" font-size="11.00">cof_configuracaometa_uu</text>
<polygon fill="none" stroke="black" points="368.5,-275 368.5,-297 575.5,-297 575.5,-275 368.5,-275"/>
<image xlink:href="../../images/foreignKeys.png" width="11px" height="12px" preserveAspectRatio="xMinYMin meet" x="373.5" y="-292"/>
<text text-anchor="start" x="388.5" y="-283.2" font-family="Helvetica,sans-Serif" font-size="11.00">c_commissionline_id</text>
<polygon fill="none" stroke="black" points="368.5,-253 368.5,-275 575.5,-275 575.5,-253 368.5,-253"/>
<image xlink:href="../../images/foreignKeys.png" width="11px" height="12px" preserveAspectRatio="xMinYMin meet" x="373.5" y="-270"/>
<text text-anchor="start" x="388.5" y="-261.2" font-family="Helvetica,sans-Serif" font-size="11.00">createdby</text>
<polygon fill="none" stroke="black" points="368.5,-231 368.5,-253 575.5,-253 575.5,-231 368.5,-231"/>
<image xlink:href="../../images/foreignKeys.png" width="11px" height="12px" preserveAspectRatio="xMinYMin meet" x="373.5" y="-248"/>
<text text-anchor="start" x="388.5" y="-239.2" font-family="Helvetica,sans-Serif" font-size="11.00">updatedby</text>
<polygon fill="none" stroke="black" points="368.5,-209 368.5,-231 575.5,-231 575.5,-209 368.5,-209"/>
<image xlink:href="../../images/primaryKeys.png" width="11px" height="12px" preserveAspectRatio="xMinYMin meet" x="373.5" y="-226"/>
<text text-anchor="start" x="388.5" y="-217.2" font-family="Helvetica,sans-Serif" font-size="11.00">cof_configuracaometa_id</text>
<polygon fill="none" stroke="black" points="368.5,-191 368.5,-209 575.5,-209 575.5,-191 368.5,-191"/>
<text text-anchor="start" x="371.5" y="-197.2" font-family="Helvetica,sans-Serif" font-size="11.00">...</text>
<polygon fill="#ffffff" stroke="transparent" points="368.5,-173 368.5,-191 575.5,-191 575.5,-173 368.5,-173"/>
<polygon fill="none" stroke="black" points="368.5,-173 368.5,-191 575.5,-191 575.5,-173 368.5,-173"/>
<polygon fill="#ffffff" stroke="transparent" points="369.5,-174 369.5,-190 441.5,-190 441.5,-174 369.5,-174"/>
<text text-anchor="start" x="371.5" y="-179.2" font-family="Helvetica,sans-Serif" font-size="11.00">&lt; 5</text>
<polygon fill="#ffffff" stroke="transparent" points="441.5,-174 441.5,-190 503.5,-190 503.5,-174 441.5,-174"/>
<text text-anchor="start" x="469" y="-179.2" font-family="Helvetica,sans-Serif" font-size="11.00"> &#160;</text>
<polygon fill="#ffffff" stroke="transparent" points="503.5,-174 503.5,-190 574.5,-190 574.5,-174 503.5,-174"/>
<text text-anchor="start" x="556.5" y="-179.2" font-family="Helvetica,sans-Serif" font-size="11.00">1 &gt;</text>
<polygon fill="black" stroke="black" points="441.5,-174 441.5,-190 441.5,-190 441.5,-174 441.5,-174"/>
<polygon fill="black" stroke="black" points="503.5,-174 503.5,-190 503.5,-190 503.5,-174 503.5,-174"/>
</a>
</g>
</g>
<!-- c_commissionamt&#45;&gt;cof_configuracaometa -->
<g id="edge3" class="edge">
<title>c_commissionamt:w&#45;&gt;cof_configuracaometa:e</title>
<path fill="none" stroke="black" d="M611.57,-294.29C592.52,-277.29 611.68,-220 576.5,-220"/>
<polygon fill="black" stroke="black" points="617.92,-296.44 624.35,-302.41 621.71,-297.72 625.5,-299 625.5,-299 625.5,-299 621.71,-297.72 626.65,-295.59 617.92,-296.44 617.92,-296.44"/>
<ellipse fill="none" stroke="black" cx="614.89" cy="-295.42" rx="3.2" ry="3.2"/>
</g>
<!-- cof_configuracaometa&#45;&gt;c_commissionline -->
<g id="edge5" class="edge">
<title>cof_configuracaometa:w&#45;&gt;c_commissionline:e</title>
<path fill="none" stroke="black" d="M353.7,-291.29C339.05,-306.28 348.86,-348 320.5,-348"/>
<polygon fill="black" stroke="black" points="360.03,-288.86 368.79,-289.36 363.76,-287.43 367.5,-286 367.5,-286 367.5,-286 363.76,-287.43 366.21,-282.64 360.03,-288.86 360.03,-288.86"/>
<ellipse fill="none" stroke="black" cx="357.04" cy="-290.01" rx="3.2" ry="3.2"/>
</g>
<!-- c_commissiondetail -->
<g id="node5" class="node">
<title>c_commissiondetail</title>
<g id="a_node5"><a xlink:href="../../tables/c_commissiondetail.html" xlink:title="c_commissiondetail" target="_top">
<polygon fill="#ffffff" stroke="transparent" points="962,-472 962,-662 1150,-662 1150,-472 962,-472"/>
<polygon fill="#f5f5f5" stroke="transparent" points="962,-640 962,-662 1150,-662 1150,-640 962,-640"/>
<polygon fill="none" stroke="black" points="962,-640 962,-662 1150,-662 1150,-640 962,-640"/>
<text text-anchor="start" x="967" y="-649.2" font-family="Helvetica,sans-Serif" font-weight="bold" font-size="11.00">c_commissiondetail</text>
<text text-anchor="start" x="1115" y="-648.2" font-family="Helvetica,sans-Serif" font-size="11.00">[table]</text>
<polygon fill="none" stroke="black" points="962,-618 962,-640 1150,-640 1150,-618 962,-618"/>
<image xlink:href="../../images/primaryKeys.png" width="11px" height="12px" preserveAspectRatio="xMinYMin meet" x="967" y="-635"/>
<text text-anchor="start" x="982" y="-626.2" font-family="Helvetica,sans-Serif" font-size="11.00">c_commissiondetail_id</text>
<polygon fill="none" stroke="black" points="962,-596 962,-618 1150,-618 1150,-596 962,-596"/>
<image xlink:href="../../images/foreignKeys.png" width="11px" height="12px" preserveAspectRatio="xMinYMin meet" x="967" y="-613"/>
<text text-anchor="start" x="982" y="-604.2" font-family="Helvetica,sans-Serif" font-size="11.00">c_commissionamt_id</text>
<polygon fill="#ffffff" stroke="transparent" points="962,-574 962,-596 1150,-596 1150,-574 962,-574"/>
<polygon fill="none" stroke="black" points="962,-574 962,-596 1150,-596 1150,-574 962,-574"/>
<image xlink:href="../../images/foreignKeys.png" width="11px" height="12px" preserveAspectRatio="xMinYMin meet" x="967" y="-591"/>
<text text-anchor="start" x="982" y="-582.2" font-family="Helvetica,sans-Serif" font-size="11.00">c_orderline_id</text>
<polygon fill="#ffffff" stroke="transparent" points="962,-552 962,-574 1150,-574 1150,-552 962,-552"/>
<polygon fill="none" stroke="black" points="962,-552 962,-574 1150,-574 1150,-552 962,-552"/>
<image xlink:href="../../images/foreignKeys.png" width="11px" height="12px" preserveAspectRatio="xMinYMin meet" x="967" y="-569"/>
<text text-anchor="start" x="982" y="-560.2" font-family="Helvetica,sans-Serif" font-size="11.00">c_invoiceline_id</text>
<polygon fill="none" stroke="black" points="962,-530 962,-552 1150,-552 1150,-530 962,-530"/>
<image xlink:href="../../images/foreignKeys.png" width="11px" height="12px" preserveAspectRatio="xMinYMin meet" x="967" y="-547"/>
<text text-anchor="start" x="982" y="-538.2" font-family="Helvetica,sans-Serif" font-size="11.00">c_currency_id</text>
<polygon fill="#ffffff" stroke="transparent" points="962,-508 962,-530 1150,-530 1150,-508 962,-508"/>
<polygon fill="none" stroke="black" points="962,-508 962,-530 1150,-530 1150,-508 962,-508"/>
<text text-anchor="start" x="982" y="-516.2" font-family="Helvetica,sans-Serif" font-size="11.00">c_commissiondetail_uu</text>
<polygon fill="none" stroke="black" points="962,-490 962,-508 1150,-508 1150,-490 962,-490"/>
<text text-anchor="start" x="965" y="-496.2" font-family="Helvetica,sans-Serif" font-size="11.00">...</text>
<polygon fill="#ffffff" stroke="transparent" points="962,-472 962,-490 1150,-490 1150,-472 962,-472"/>
<polygon fill="none" stroke="black" points="962,-472 962,-490 1150,-490 1150,-472 962,-472"/>
<polygon fill="#ffffff" stroke="transparent" points="963,-473 963,-489 1031,-489 1031,-473 963,-473"/>
<text text-anchor="start" x="965" y="-478.2" font-family="Helvetica,sans-Serif" font-size="11.00">&lt; 4</text>
<polygon fill="#ffffff" stroke="transparent" points="1031,-473 1031,-489 1090,-489 1090,-473 1031,-473"/>
<text text-anchor="start" x="1057" y="-478.2" font-family="Helvetica,sans-Serif" font-size="11.00"> &#160;</text>
<polygon fill="#ffffff" stroke="transparent" points="1090,-473 1090,-489 1149,-489 1149,-473 1090,-473"/>
<text text-anchor="start" x="1140" y="-478.2" font-family="Helvetica,sans-Serif" font-size="11.00"> &#160;</text>
<polygon fill="black" stroke="black" points="1031,-473 1031,-489 1031,-489 1031,-473 1031,-473"/>
<polygon fill="black" stroke="black" points="1090,-473 1090,-489 1090,-489 1090,-473 1090,-473"/>
</a>
</g>
</g>
<!-- c_commissiondetail&#45;&gt;c_commissionamt -->
<g id="edge4" class="edge">
<title>c_commissiondetail:w&#45;&gt;c_commissionamt:e</title>
<path fill="none" stroke="black" d="M946.28,-607C935.29,-607 928.16,-607 912.5,-607"/>
<polygon fill="black" stroke="black" points="953,-607 961,-610.6 957,-607 961,-607 961,-607 961,-607 957,-607 961,-603.4 953,-607 953,-607"/>
<ellipse fill="none" stroke="black" cx="949.8" cy="-607" rx="3.2" ry="3.2"/>
</g>
</g>
</svg>
