<?xml version="1.0" encoding="UTF-8" standalone="no"?>
<!DOCTYPE svg PUBLIC "-//W3C//DTD SVG 1.1//EN"
 "http://www.w3.org/Graphics/SVG/1.1/DTD/svg11.dtd">
<!-- Generated by graphviz version 2.43.0 (0)
 -->
<!-- Title: oneDegreeRelationshipsDiagram Pages: 1 -->
<svg width="963pt" height="873pt"
 viewBox="0.00 0.00 963.00 873.00" xmlns="http://www.w3.org/2000/svg" xmlns:xlink="http://www.w3.org/1999/xlink">
<g id="graph0" class="graph" transform="scale(1 1) rotate(0) translate(4 869)">
<title>oneDegreeRelationshipsDiagram</title>
<polygon fill="#ffffff" stroke="transparent" points="-4,4 -4,-869 959,-869 959,4 -4,4"/>
<text text-anchor="middle" x="71.5" y="-7.2" font-family="Helvetica,sans-Serif" font-size="11.00">Generated by SchemaSpy</text>
<!-- c_acctschema -->
<g id="node1" class="node">
<title>c_acctschema</title>
<g id="a_node1"><a xlink:href="../../tables/c_acctschema.html" xlink:title="c_acctschema" target="_top">
<polygon fill="#ffffff" stroke="transparent" points="209,-605 209,-861 410,-861 410,-605 209,-605"/>
<polygon fill="#f5f5f5" stroke="transparent" points="209.5,-839 209.5,-861 410.5,-861 410.5,-839 209.5,-839"/>
<polygon fill="none" stroke="black" points="209.5,-839 209.5,-861 410.5,-861 410.5,-839 209.5,-839"/>
<text text-anchor="start" x="214.5" y="-848.2" font-family="Helvetica,sans-Serif" font-weight="bold" font-size="11.00">c_acctschema</text>
<text text-anchor="start" x="375.5" y="-847.2" font-family="Helvetica,sans-Serif" font-size="11.00">[table]</text>
<polygon fill="none" stroke="black" points="209.5,-817 209.5,-839 410.5,-839 410.5,-817 209.5,-817"/>
<image xlink:href="../../images/primaryKeys.png" width="11px" height="12px" preserveAspectRatio="xMinYMin meet" x="214.5" y="-834"/>
<text text-anchor="start" x="229.5" y="-825.2" font-family="Helvetica,sans-Serif" font-size="11.00">c_acctschema_id</text>
<polygon fill="#ffffff" stroke="transparent" points="209.5,-795 209.5,-817 410.5,-817 410.5,-795 209.5,-795"/>
<polygon fill="none" stroke="black" points="209.5,-795 209.5,-817 410.5,-817 410.5,-795 209.5,-795"/>
<image xlink:href="../../images/foreignKeys.png" width="11px" height="12px" preserveAspectRatio="xMinYMin meet" x="214.5" y="-812"/>
<text text-anchor="start" x="229.5" y="-803.2" font-family="Helvetica,sans-Serif" font-size="11.00">ad_client_id</text>
<polygon fill="none" stroke="black" points="209.5,-773 209.5,-795 410.5,-795 410.5,-773 209.5,-773"/>
<image xlink:href="../../images/foreignKeys.png" width="11px" height="12px" preserveAspectRatio="xMinYMin meet" x="214.5" y="-790"/>
<text text-anchor="start" x="229.5" y="-781.2" font-family="Helvetica,sans-Serif" font-size="11.00">ad_org_id</text>
<polygon fill="#ffffff" stroke="transparent" points="209.5,-751 209.5,-773 410.5,-773 410.5,-751 209.5,-751"/>
<polygon fill="none" stroke="black" points="209.5,-751 209.5,-773 410.5,-773 410.5,-751 209.5,-751"/>
<text text-anchor="start" x="229.5" y="-759.2" font-family="Helvetica,sans-Serif" font-size="11.00">name</text>
<polygon fill="none" stroke="black" points="209.5,-729 209.5,-751 410.5,-751 410.5,-729 209.5,-729"/>
<image xlink:href="../../images/foreignKeys.png" width="11px" height="12px" preserveAspectRatio="xMinYMin meet" x="214.5" y="-746"/>
<text text-anchor="start" x="229.5" y="-737.2" font-family="Helvetica,sans-Serif" font-size="11.00">c_currency_id</text>
<polygon fill="none" stroke="black" points="209.5,-707 209.5,-729 410.5,-729 410.5,-707 209.5,-707"/>
<image xlink:href="../../images/foreignKeys.png" width="11px" height="12px" preserveAspectRatio="xMinYMin meet" x="214.5" y="-724"/>
<text text-anchor="start" x="229.5" y="-715.2" font-family="Helvetica,sans-Serif" font-size="11.00">c_period_id</text>
<polygon fill="none" stroke="black" points="209.5,-685 209.5,-707 410.5,-707 410.5,-685 209.5,-685"/>
<image xlink:href="../../images/foreignKeys.png" width="11px" height="12px" preserveAspectRatio="xMinYMin meet" x="214.5" y="-702"/>
<text text-anchor="start" x="229.5" y="-693.2" font-family="Helvetica,sans-Serif" font-size="11.00">m_costtype_id</text>
<polygon fill="none" stroke="black" points="209.5,-663 209.5,-685 410.5,-685 410.5,-663 209.5,-663"/>
<image xlink:href="../../images/foreignKeys.png" width="11px" height="12px" preserveAspectRatio="xMinYMin meet" x="214.5" y="-680"/>
<text text-anchor="start" x="229.5" y="-671.2" font-family="Helvetica,sans-Serif" font-size="11.00">ad_orgonly_id</text>
<polygon fill="#ffffff" stroke="transparent" points="209.5,-641 209.5,-663 410.5,-663 410.5,-641 209.5,-641"/>
<polygon fill="none" stroke="black" points="209.5,-641 209.5,-663 410.5,-663 410.5,-641 209.5,-641"/>
<text text-anchor="start" x="229.5" y="-649.2" font-family="Helvetica,sans-Serif" font-size="11.00">c_acctschema_uu</text>
<polygon fill="none" stroke="black" points="209.5,-623 209.5,-641 410.5,-641 410.5,-623 209.5,-623"/>
<text text-anchor="start" x="212.5" y="-629.2" font-family="Helvetica,sans-Serif" font-size="11.00">...</text>
<polygon fill="#ffffff" stroke="transparent" points="209.5,-605 209.5,-623 410.5,-623 410.5,-605 209.5,-605"/>
<polygon fill="none" stroke="black" points="209.5,-605 209.5,-623 410.5,-623 410.5,-605 209.5,-605"/>
<polygon fill="#ffffff" stroke="transparent" points="210.5,-606 210.5,-622 271.5,-622 271.5,-606 210.5,-606"/>
<text text-anchor="start" x="212.5" y="-611.2" font-family="Helvetica,sans-Serif" font-size="11.00">&lt; 6</text>
<polygon fill="#ffffff" stroke="transparent" points="271.5,-606 271.5,-622 343.5,-622 343.5,-606 271.5,-606"/>
<text text-anchor="start" x="293.5" y="-611.2" font-family="Helvetica,sans-Serif" font-size="11.00">1 row</text>
<polygon fill="#ffffff" stroke="transparent" points="343.5,-606 343.5,-622 409.5,-622 409.5,-606 343.5,-606"/>
<text text-anchor="start" x="385.5" y="-611.2" font-family="Helvetica,sans-Serif" font-size="11.00">55 &gt;</text>
<polygon fill="black" stroke="black" points="271.5,-606 271.5,-622 271.5,-622 271.5,-606 271.5,-606"/>
<polygon fill="black" stroke="black" points="343.5,-606 343.5,-622 343.5,-622 343.5,-606 343.5,-606"/>
</a>
</g>
</g>
<!-- c_currency -->
<g id="node2" class="node">
<title>c_currency</title>
<g id="a_node2"><a xlink:href="../../tables/c_currency.html" xlink:title="c_currency" target="_top">
<polygon fill="#ffffff" stroke="transparent" points="8,-525 8,-693 160,-693 160,-525 8,-525"/>
<polygon fill="#f5f5f5" stroke="transparent" points="8,-671 8,-693 160,-693 160,-671 8,-671"/>
<polygon fill="none" stroke="black" points="8,-671 8,-693 160,-693 160,-671 8,-671"/>
<text text-anchor="start" x="13" y="-680.2" font-family="Helvetica,sans-Serif" font-weight="bold" font-size="11.00">c_currency</text>
<text text-anchor="start" x="125" y="-679.2" font-family="Helvetica,sans-Serif" font-size="11.00">[table]</text>
<polygon fill="none" stroke="black" points="8,-649 8,-671 160,-671 160,-649 8,-649"/>
<image xlink:href="../../images/primaryKeys.png" width="11px" height="12px" preserveAspectRatio="xMinYMin meet" x="13" y="-666"/>
<text text-anchor="start" x="28" y="-657.2" font-family="Helvetica,sans-Serif" font-size="11.00">c_currency_id</text>
<polygon fill="none" stroke="black" points="8,-627 8,-649 160,-649 160,-627 8,-627"/>
<image xlink:href="../../images/foreignKeys.png" width="11px" height="12px" preserveAspectRatio="xMinYMin meet" x="13" y="-644"/>
<text text-anchor="start" x="28" y="-635.2" font-family="Helvetica,sans-Serif" font-size="11.00">ad_client_id</text>
<polygon fill="none" stroke="black" points="8,-605 8,-627 160,-627 160,-605 8,-605"/>
<image xlink:href="../../images/foreignKeys.png" width="11px" height="12px" preserveAspectRatio="xMinYMin meet" x="13" y="-622"/>
<text text-anchor="start" x="28" y="-613.2" font-family="Helvetica,sans-Serif" font-size="11.00">ad_org_id</text>
<polygon fill="#ffffff" stroke="transparent" points="8,-583 8,-605 160,-605 160,-583 8,-583"/>
<polygon fill="none" stroke="black" points="8,-583 8,-605 160,-605 160,-583 8,-583"/>
<text text-anchor="start" x="28" y="-591.2" font-family="Helvetica,sans-Serif" font-size="11.00">iso_code</text>
<polygon fill="#ffffff" stroke="transparent" points="8,-561 8,-583 160,-583 160,-561 8,-561"/>
<polygon fill="none" stroke="black" points="8,-561 8,-583 160,-583 160,-561 8,-561"/>
<text text-anchor="start" x="28" y="-569.2" font-family="Helvetica,sans-Serif" font-size="11.00">c_currency_uu</text>
<polygon fill="none" stroke="black" points="8,-543 8,-561 160,-561 160,-543 8,-543"/>
<text text-anchor="start" x="11" y="-549.2" font-family="Helvetica,sans-Serif" font-size="11.00">...</text>
<polygon fill="#ffffff" stroke="transparent" points="8,-525 8,-543 160,-543 160,-525 8,-525"/>
<polygon fill="none" stroke="black" points="8,-525 8,-543 160,-543 160,-525 8,-525"/>
<polygon fill="#ffffff" stroke="transparent" points="9,-526 9,-542 48,-542 48,-526 9,-526"/>
<text text-anchor="start" x="11" y="-531.2" font-family="Helvetica,sans-Serif" font-size="11.00">&lt; 2</text>
<polygon fill="#ffffff" stroke="transparent" points="48,-526 48,-542 115,-542 115,-526 48,-526"/>
<text text-anchor="start" x="59" y="-531.2" font-family="Helvetica,sans-Serif" font-size="11.00">175 rows</text>
<polygon fill="#ffffff" stroke="transparent" points="115,-526 115,-542 159,-542 159,-526 115,-526"/>
<text text-anchor="start" x="135" y="-531.2" font-family="Helvetica,sans-Serif" font-size="11.00">71 &gt;</text>
<polygon fill="black" stroke="black" points="48,-526 48,-542 48,-542 48,-526 48,-526"/>
<polygon fill="black" stroke="black" points="115,-526 115,-542 115,-542 115,-526 115,-526"/>
</a>
</g>
</g>
<!-- c_acctschema&#45;&gt;c_currency -->
<g id="edge1" class="edge">
<title>c_acctschema:w&#45;&gt;c_currency:e</title>
<path fill="none" stroke="black" d="M194.65,-735.24C175.91,-718.01 196.21,-660 161,-660"/>
<polygon fill="black" stroke="black" points="200.93,-737.4 207.33,-743.4 204.72,-738.7 208.5,-740 208.5,-740 208.5,-740 204.72,-738.7 209.67,-736.6 200.93,-737.4 200.93,-737.4"/>
<ellipse fill="none" stroke="black" cx="197.91" cy="-736.36" rx="3.2" ry="3.2"/>
</g>
<!-- c_currency_acct -->
<g id="node3" class="node">
<title>c_currency_acct</title>
<g id="a_node3"><a xlink:href="../../tables/c_currency_acct.html" xlink:title="c_currency_acct" target="_top">
<polygon fill="#ffffff" stroke="transparent" points="694,-438 694,-790 947,-790 947,-438 694,-438"/>
<polygon fill="#f5f5f5" stroke="transparent" points="696.5,-766 696.5,-788 945.5,-788 945.5,-766 696.5,-766"/>
<polygon fill="none" stroke="black" points="696.5,-766 696.5,-788 945.5,-788 945.5,-766 696.5,-766"/>
<text text-anchor="start" x="701.5" y="-775.2" font-family="Helvetica,sans-Serif" font-weight="bold" font-size="11.00">c_currency_acct</text>
<text text-anchor="start" x="910.5" y="-774.2" font-family="Helvetica,sans-Serif" font-size="11.00">[table]</text>
<polygon fill="none" stroke="black" points="696.5,-744 696.5,-766 862.5,-766 862.5,-744 696.5,-744"/>
<image xlink:href="../../images/primaryKeys.png" width="11px" height="12px" preserveAspectRatio="xMinYMin meet" x="701.5" y="-761"/>
<text text-anchor="start" x="716.5" y="-752.2" font-family="Helvetica,sans-Serif" font-size="11.00">c_acctschema_id</text>
<polygon fill="none" stroke="black" points="862.5,-744 862.5,-766 945.5,-766 945.5,-744 862.5,-744"/>
<text text-anchor="start" x="865.5" y="-752.2" font-family="Helvetica,sans-Serif" font-size="11.00">numeric[10]</text>
<polygon fill="none" stroke="black" points="696.5,-722 696.5,-744 862.5,-744 862.5,-722 696.5,-722"/>
<image xlink:href="../../images/primaryKeys.png" width="11px" height="12px" preserveAspectRatio="xMinYMin meet" x="701.5" y="-739"/>
<text text-anchor="start" x="716.5" y="-730.2" font-family="Helvetica,sans-Serif" font-size="11.00">c_currency_id</text>
<polygon fill="none" stroke="black" points="862.5,-722 862.5,-744 945.5,-744 945.5,-722 862.5,-722"/>
<text text-anchor="start" x="865.5" y="-730.2" font-family="Helvetica,sans-Serif" font-size="11.00">numeric[10]</text>
<polygon fill="none" stroke="black" points="696.5,-700 696.5,-722 862.5,-722 862.5,-700 696.5,-700"/>
<text text-anchor="start" x="716.5" y="-708.2" font-family="Helvetica,sans-Serif" font-size="11.00">ad_client_id</text>
<polygon fill="none" stroke="black" points="862.5,-700 862.5,-722 945.5,-722 945.5,-700 862.5,-700"/>
<text text-anchor="start" x="865.5" y="-708.2" font-family="Helvetica,sans-Serif" font-size="11.00">numeric[10]</text>
<polygon fill="none" stroke="black" points="696.5,-678 696.5,-700 862.5,-700 862.5,-678 696.5,-678"/>
<text text-anchor="start" x="716.5" y="-686.2" font-family="Helvetica,sans-Serif" font-size="11.00">ad_org_id</text>
<polygon fill="none" stroke="black" points="862.5,-678 862.5,-700 945.5,-700 945.5,-678 862.5,-678"/>
<text text-anchor="start" x="865.5" y="-686.2" font-family="Helvetica,sans-Serif" font-size="11.00">numeric[10]</text>
<polygon fill="none" stroke="black" points="696.5,-656 696.5,-678 862.5,-678 862.5,-656 696.5,-656"/>
<text text-anchor="start" x="716.5" y="-664.2" font-family="Helvetica,sans-Serif" font-size="11.00">isactive</text>
<polygon fill="none" stroke="black" points="862.5,-656 862.5,-678 945.5,-678 945.5,-656 862.5,-656"/>
<text text-anchor="start" x="865.5" y="-664.2" font-family="Helvetica,sans-Serif" font-size="11.00">bpchar[1]</text>
<polygon fill="none" stroke="black" points="696.5,-634 696.5,-656 862.5,-656 862.5,-634 696.5,-634"/>
<text text-anchor="start" x="716.5" y="-642.2" font-family="Helvetica,sans-Serif" font-size="11.00">created</text>
<polygon fill="none" stroke="black" points="862.5,-634 862.5,-656 945.5,-656 945.5,-634 862.5,-634"/>
<text text-anchor="start" x="865.5" y="-642.2" font-family="Helvetica,sans-Serif" font-size="11.00">timestamp[29,6]</text>
<polygon fill="none" stroke="black" points="696.5,-612 696.5,-634 862.5,-634 862.5,-612 696.5,-612"/>
<text text-anchor="start" x="716.5" y="-620.2" font-family="Helvetica,sans-Serif" font-size="11.00">createdby</text>
<polygon fill="none" stroke="black" points="862.5,-612 862.5,-634 945.5,-634 945.5,-612 862.5,-612"/>
<text text-anchor="start" x="865.5" y="-620.2" font-family="Helvetica,sans-Serif" font-size="11.00">numeric[10]</text>
<polygon fill="none" stroke="black" points="696.5,-590 696.5,-612 862.5,-612 862.5,-590 696.5,-590"/>
<text text-anchor="start" x="716.5" y="-598.2" font-family="Helvetica,sans-Serif" font-size="11.00">updated</text>
<polygon fill="none" stroke="black" points="862.5,-590 862.5,-612 945.5,-612 945.5,-590 862.5,-590"/>
<text text-anchor="start" x="865.5" y="-598.2" font-family="Helvetica,sans-Serif" font-size="11.00">timestamp[29,6]</text>
<polygon fill="none" stroke="black" points="696.5,-568 696.5,-590 862.5,-590 862.5,-568 696.5,-568"/>
<text text-anchor="start" x="716.5" y="-576.2" font-family="Helvetica,sans-Serif" font-size="11.00">updatedby</text>
<polygon fill="none" stroke="black" points="862.5,-568 862.5,-590 945.5,-590 945.5,-568 862.5,-568"/>
<text text-anchor="start" x="865.5" y="-576.2" font-family="Helvetica,sans-Serif" font-size="11.00">numeric[10]</text>
<polygon fill="none" stroke="black" points="696.5,-546 696.5,-568 862.5,-568 862.5,-546 696.5,-546"/>
<image xlink:href="../../images/foreignKeys.png" width="11px" height="12px" preserveAspectRatio="xMinYMin meet" x="701.5" y="-563"/>
<text text-anchor="start" x="716.5" y="-554.2" font-family="Helvetica,sans-Serif" font-size="11.00">unrealizedgain_acct</text>
<polygon fill="none" stroke="black" points="862.5,-546 862.5,-568 945.5,-568 945.5,-546 862.5,-546"/>
<text text-anchor="start" x="865.5" y="-554.2" font-family="Helvetica,sans-Serif" font-size="11.00">numeric[10]</text>
<polygon fill="none" stroke="black" points="696.5,-524 696.5,-546 862.5,-546 862.5,-524 696.5,-524"/>
<image xlink:href="../../images/foreignKeys.png" width="11px" height="12px" preserveAspectRatio="xMinYMin meet" x="701.5" y="-541"/>
<text text-anchor="start" x="716.5" y="-532.2" font-family="Helvetica,sans-Serif" font-size="11.00">unrealizedloss_acct</text>
<polygon fill="none" stroke="black" points="862.5,-524 862.5,-546 945.5,-546 945.5,-524 862.5,-524"/>
<text text-anchor="start" x="865.5" y="-532.2" font-family="Helvetica,sans-Serif" font-size="11.00">numeric[10]</text>
<polygon fill="none" stroke="black" points="696.5,-502 696.5,-524 862.5,-524 862.5,-502 696.5,-502"/>
<image xlink:href="../../images/foreignKeys.png" width="11px" height="12px" preserveAspectRatio="xMinYMin meet" x="701.5" y="-519"/>
<text text-anchor="start" x="716.5" y="-510.2" font-family="Helvetica,sans-Serif" font-size="11.00">realizedgain_acct</text>
<polygon fill="none" stroke="black" points="862.5,-502 862.5,-524 945.5,-524 945.5,-502 862.5,-502"/>
<text text-anchor="start" x="865.5" y="-510.2" font-family="Helvetica,sans-Serif" font-size="11.00">numeric[10]</text>
<polygon fill="none" stroke="black" points="696.5,-480 696.5,-502 862.5,-502 862.5,-480 696.5,-480"/>
<image xlink:href="../../images/foreignKeys.png" width="11px" height="12px" preserveAspectRatio="xMinYMin meet" x="701.5" y="-497"/>
<text text-anchor="start" x="716.5" y="-488.2" font-family="Helvetica,sans-Serif" font-size="11.00">realizedloss_acct</text>
<polygon fill="none" stroke="black" points="862.5,-480 862.5,-502 945.5,-502 945.5,-480 862.5,-480"/>
<text text-anchor="start" x="865.5" y="-488.2" font-family="Helvetica,sans-Serif" font-size="11.00">numeric[10]</text>
<polygon fill="#ffffff" stroke="transparent" points="696.5,-458 696.5,-480 862.5,-480 862.5,-458 696.5,-458"/>
<polygon fill="none" stroke="black" points="696.5,-458 696.5,-480 862.5,-480 862.5,-458 696.5,-458"/>
<text text-anchor="start" x="716.5" y="-466.2" font-family="Helvetica,sans-Serif" font-size="11.00">c_currency_acct_uu</text>
<polygon fill="none" stroke="black" points="862.5,-458 862.5,-480 945.5,-480 945.5,-458 862.5,-458"/>
<text text-anchor="start" x="865.5" y="-466.2" font-family="Helvetica,sans-Serif" font-size="11.00">varchar[36]</text>
<polygon fill="#ffffff" stroke="transparent" points="696.5,-440 696.5,-458 945.5,-458 945.5,-440 696.5,-440"/>
<polygon fill="none" stroke="black" points="696.5,-440 696.5,-458 945.5,-458 945.5,-440 696.5,-440"/>
<polygon fill="#ffffff" stroke="transparent" points="697.5,-441 697.5,-457 783.5,-457 783.5,-441 697.5,-441"/>
<text text-anchor="start" x="699.5" y="-446.2" font-family="Helvetica,sans-Serif" font-size="11.00">&lt; 6</text>
<polygon fill="#ffffff" stroke="transparent" points="783.5,-441 783.5,-457 859.5,-457 859.5,-441 783.5,-441"/>
<text text-anchor="start" x="818" y="-446.2" font-family="Helvetica,sans-Serif" font-size="11.00"> &#160;</text>
<polygon fill="#ffffff" stroke="transparent" points="859.5,-441 859.5,-457 944.5,-457 944.5,-441 859.5,-441"/>
<text text-anchor="start" x="926.5" y="-446.2" font-family="Helvetica,sans-Serif" font-size="11.00">0 &gt;</text>
<polygon fill="black" stroke="black" points="783.5,-441 783.5,-457 783.5,-457 783.5,-441 783.5,-441"/>
<polygon fill="black" stroke="black" points="859.5,-441 859.5,-457 859.5,-457 859.5,-441 859.5,-441"/>
<polygon fill="none" stroke="black" stroke-width="2" points="695,-439 695,-789 946,-789 946,-439 695,-439"/>
</a>
</g>
</g>
<!-- c_currency_acct&#45;&gt;c_acctschema -->
<g id="edge2" class="edge">
<title>c_currency_acct:w&#45;&gt;c_acctschema:e</title>
<path fill="none" stroke="black" d="M681.06,-755.31C563.24,-760.45 536.86,-828 411.5,-828"/>
<polygon fill="black" stroke="black" points="687.5,-755.17 695.58,-758.6 691.5,-755.09 695.5,-755 695.5,-755 695.5,-755 691.5,-755.09 695.42,-751.4 687.5,-755.17 687.5,-755.17"/>
<ellipse fill="none" stroke="black" cx="684.3" cy="-755.24" rx="3.2" ry="3.2"/>
</g>
<!-- c_currency_acct&#45;&gt;c_currency -->
<g id="edge3" class="edge">
<title>c_currency_acct:w&#45;&gt;c_currency:e</title>
<path fill="none" stroke="black" d="M681.07,-732.59C557.18,-725.4 547.25,-625.36 418,-595 324.11,-572.94 285.19,-547.95 201,-595 171.39,-611.55 194.92,-660 161,-660"/>
<polygon fill="black" stroke="black" points="687.5,-732.77 695.4,-736.6 691.5,-732.89 695.5,-733 695.5,-733 695.5,-733 691.5,-732.89 695.6,-729.4 687.5,-732.77 687.5,-732.77"/>
<ellipse fill="none" stroke="black" cx="684.3" cy="-732.68" rx="3.2" ry="3.2"/>
</g>
<!-- c_validcombination -->
<g id="node4" class="node">
<title>c_validcombination</title>
<g id="a_node4"><a xlink:href="../../tables/c_validcombination.html" xlink:title="c_validcombination" target="_top">
<polygon fill="#ffffff" stroke="transparent" points="459,-37 459,-557 645,-557 645,-37 459,-37"/>
<polygon fill="#f5f5f5" stroke="transparent" points="459,-535 459,-557 645,-557 645,-535 459,-535"/>
<polygon fill="none" stroke="black" points="459,-535 459,-557 645,-557 645,-535 459,-535"/>
<text text-anchor="start" x="464" y="-544.2" font-family="Helvetica,sans-Serif" font-weight="bold" font-size="11.00">c_validcombination</text>
<text text-anchor="start" x="610" y="-543.2" font-family="Helvetica,sans-Serif" font-size="11.00">[table]</text>
<polygon fill="none" stroke="black" points="459,-513 459,-535 645,-535 645,-513 459,-513"/>
<image xlink:href="../../images/primaryKeys.png" width="11px" height="12px" preserveAspectRatio="xMinYMin meet" x="464" y="-530"/>
<text text-anchor="start" x="479" y="-521.2" font-family="Helvetica,sans-Serif" font-size="11.00">c_validcombination_id</text>
<polygon fill="#ffffff" stroke="transparent" points="459,-491 459,-513 645,-513 645,-491 459,-491"/>
<polygon fill="none" stroke="black" points="459,-491 459,-513 645,-513 645,-491 459,-491"/>
<image xlink:href="../../images/foreignKeys.png" width="11px" height="12px" preserveAspectRatio="xMinYMin meet" x="464" y="-508"/>
<text text-anchor="start" x="479" y="-499.2" font-family="Helvetica,sans-Serif" font-size="11.00">ad_client_id</text>
<polygon fill="#ffffff" stroke="transparent" points="459,-469 459,-491 645,-491 645,-469 459,-469"/>
<polygon fill="none" stroke="black" points="459,-469 459,-491 645,-491 645,-469 459,-469"/>
<image xlink:href="../../images/foreignKeys.png" width="11px" height="12px" preserveAspectRatio="xMinYMin meet" x="464" y="-486"/>
<text text-anchor="start" x="479" y="-477.2" font-family="Helvetica,sans-Serif" font-size="11.00">ad_org_id</text>
<polygon fill="#ffffff" stroke="transparent" points="459,-447 459,-469 645,-469 645,-447 459,-447"/>
<polygon fill="none" stroke="black" points="459,-447 459,-469 645,-469 645,-447 459,-447"/>
<text text-anchor="start" x="479" y="-455.2" font-family="Helvetica,sans-Serif" font-size="11.00">alias</text>
<polygon fill="#ffffff" stroke="transparent" points="459,-425 459,-447 645,-447 645,-425 459,-425"/>
<polygon fill="none" stroke="black" points="459,-425 459,-447 645,-447 645,-425 459,-425"/>
<image xlink:href="../../images/foreignKeys.png" width="11px" height="12px" preserveAspectRatio="xMinYMin meet" x="464" y="-442"/>
<text text-anchor="start" x="479" y="-433.2" font-family="Helvetica,sans-Serif" font-size="11.00">c_acctschema_id</text>
<polygon fill="#ffffff" stroke="transparent" points="459,-403 459,-425 645,-425 645,-403 459,-403"/>
<polygon fill="none" stroke="black" points="459,-403 459,-425 645,-425 645,-403 459,-403"/>
<image xlink:href="../../images/foreignKeys.png" width="11px" height="12px" preserveAspectRatio="xMinYMin meet" x="464" y="-420"/>
<text text-anchor="start" x="479" y="-411.2" font-family="Helvetica,sans-Serif" font-size="11.00">account_id</text>
<polygon fill="#ffffff" stroke="transparent" points="459,-381 459,-403 645,-403 645,-381 459,-381"/>
<polygon fill="none" stroke="black" points="459,-381 459,-403 645,-403 645,-381 459,-381"/>
<image xlink:href="../../images/foreignKeys.png" width="11px" height="12px" preserveAspectRatio="xMinYMin meet" x="464" y="-398"/>
<text text-anchor="start" x="479" y="-389.2" font-family="Helvetica,sans-Serif" font-size="11.00">m_product_id</text>
<polygon fill="#ffffff" stroke="transparent" points="459,-359 459,-381 645,-381 645,-359 459,-359"/>
<polygon fill="none" stroke="black" points="459,-359 459,-381 645,-381 645,-359 459,-359"/>
<image xlink:href="../../images/foreignKeys.png" width="11px" height="12px" preserveAspectRatio="xMinYMin meet" x="464" y="-376"/>
<text text-anchor="start" x="479" y="-367.2" font-family="Helvetica,sans-Serif" font-size="11.00">c_bpartner_id</text>
<polygon fill="#ffffff" stroke="transparent" points="459,-337 459,-359 645,-359 645,-337 459,-337"/>
<polygon fill="none" stroke="black" points="459,-337 459,-359 645,-359 645,-337 459,-337"/>
<image xlink:href="../../images/foreignKeys.png" width="11px" height="12px" preserveAspectRatio="xMinYMin meet" x="464" y="-354"/>
<text text-anchor="start" x="479" y="-345.2" font-family="Helvetica,sans-Serif" font-size="11.00">ad_orgtrx_id</text>
<polygon fill="#ffffff" stroke="transparent" points="459,-315 459,-337 645,-337 645,-315 459,-315"/>
<polygon fill="none" stroke="black" points="459,-315 459,-337 645,-337 645,-315 459,-315"/>
<image xlink:href="../../images/foreignKeys.png" width="11px" height="12px" preserveAspectRatio="xMinYMin meet" x="464" y="-332"/>
<text text-anchor="start" x="479" y="-323.2" font-family="Helvetica,sans-Serif" font-size="11.00">c_locfrom_id</text>
<polygon fill="#ffffff" stroke="transparent" points="459,-293 459,-315 645,-315 645,-293 459,-293"/>
<polygon fill="none" stroke="black" points="459,-293 459,-315 645,-315 645,-293 459,-293"/>
<image xlink:href="../../images/foreignKeys.png" width="11px" height="12px" preserveAspectRatio="xMinYMin meet" x="464" y="-310"/>
<text text-anchor="start" x="479" y="-301.2" font-family="Helvetica,sans-Serif" font-size="11.00">c_locto_id</text>
<polygon fill="#ffffff" stroke="transparent" points="459,-271 459,-293 645,-293 645,-271 459,-271"/>
<polygon fill="none" stroke="black" points="459,-271 459,-293 645,-293 645,-271 459,-271"/>
<image xlink:href="../../images/foreignKeys.png" width="11px" height="12px" preserveAspectRatio="xMinYMin meet" x="464" y="-288"/>
<text text-anchor="start" x="479" y="-279.2" font-family="Helvetica,sans-Serif" font-size="11.00">c_salesregion_id</text>
<polygon fill="#ffffff" stroke="transparent" points="459,-249 459,-271 645,-271 645,-249 459,-249"/>
<polygon fill="none" stroke="black" points="459,-249 459,-271 645,-271 645,-249 459,-249"/>
<image xlink:href="../../images/foreignKeys.png" width="11px" height="12px" preserveAspectRatio="xMinYMin meet" x="464" y="-266"/>
<text text-anchor="start" x="479" y="-257.2" font-family="Helvetica,sans-Serif" font-size="11.00">c_project_id</text>
<polygon fill="#ffffff" stroke="transparent" points="459,-227 459,-249 645,-249 645,-227 459,-227"/>
<polygon fill="none" stroke="black" points="459,-227 459,-249 645,-249 645,-227 459,-227"/>
<image xlink:href="../../images/foreignKeys.png" width="11px" height="12px" preserveAspectRatio="xMinYMin meet" x="464" y="-244"/>
<text text-anchor="start" x="479" y="-235.2" font-family="Helvetica,sans-Serif" font-size="11.00">c_campaign_id</text>
<polygon fill="#ffffff" stroke="transparent" points="459,-205 459,-227 645,-227 645,-205 459,-205"/>
<polygon fill="none" stroke="black" points="459,-205 459,-227 645,-227 645,-205 459,-205"/>
<image xlink:href="../../images/foreignKeys.png" width="11px" height="12px" preserveAspectRatio="xMinYMin meet" x="464" y="-222"/>
<text text-anchor="start" x="479" y="-213.2" font-family="Helvetica,sans-Serif" font-size="11.00">c_activity_id</text>
<polygon fill="#ffffff" stroke="transparent" points="459,-183 459,-205 645,-205 645,-183 459,-183"/>
<polygon fill="none" stroke="black" points="459,-183 459,-205 645,-205 645,-183 459,-183"/>
<image xlink:href="../../images/foreignKeys.png" width="11px" height="12px" preserveAspectRatio="xMinYMin meet" x="464" y="-200"/>
<text text-anchor="start" x="479" y="-191.2" font-family="Helvetica,sans-Serif" font-size="11.00">user1_id</text>
<polygon fill="#ffffff" stroke="transparent" points="459,-161 459,-183 645,-183 645,-161 459,-161"/>
<polygon fill="none" stroke="black" points="459,-161 459,-183 645,-183 645,-161 459,-161"/>
<image xlink:href="../../images/foreignKeys.png" width="11px" height="12px" preserveAspectRatio="xMinYMin meet" x="464" y="-178"/>
<text text-anchor="start" x="479" y="-169.2" font-family="Helvetica,sans-Serif" font-size="11.00">user2_id</text>
<polygon fill="#ffffff" stroke="transparent" points="459,-139 459,-161 645,-161 645,-139 459,-139"/>
<polygon fill="none" stroke="black" points="459,-139 459,-161 645,-161 645,-139 459,-139"/>
<image xlink:href="../../images/foreignKeys.png" width="11px" height="12px" preserveAspectRatio="xMinYMin meet" x="464" y="-156"/>
<text text-anchor="start" x="479" y="-147.2" font-family="Helvetica,sans-Serif" font-size="11.00">c_subacct_id</text>
<polygon fill="#ffffff" stroke="transparent" points="459,-117 459,-139 645,-139 645,-117 459,-117"/>
<polygon fill="none" stroke="black" points="459,-117 459,-139 645,-139 645,-117 459,-117"/>
<text text-anchor="start" x="479" y="-125.2" font-family="Helvetica,sans-Serif" font-size="11.00">userelement1_id</text>
<polygon fill="#ffffff" stroke="transparent" points="459,-95 459,-117 645,-117 645,-95 459,-95"/>
<polygon fill="none" stroke="black" points="459,-95 459,-117 645,-117 645,-95 459,-95"/>
<text text-anchor="start" x="479" y="-103.2" font-family="Helvetica,sans-Serif" font-size="11.00">userelement2_id</text>
<polygon fill="#ffffff" stroke="transparent" points="459,-73 459,-95 645,-95 645,-73 459,-73"/>
<polygon fill="none" stroke="black" points="459,-73 459,-95 645,-95 645,-73 459,-73"/>
<text text-anchor="start" x="479" y="-81.2" font-family="Helvetica,sans-Serif" font-size="11.00">c_validcombination_uu</text>
<polygon fill="none" stroke="black" points="459,-55 459,-73 645,-73 645,-55 459,-55"/>
<text text-anchor="start" x="462" y="-61.2" font-family="Helvetica,sans-Serif" font-size="11.00">...</text>
<polygon fill="#ffffff" stroke="transparent" points="459,-37 459,-55 645,-55 645,-37 459,-37"/>
<polygon fill="none" stroke="black" points="459,-37 459,-55 645,-55 645,-37 459,-37"/>
<polygon fill="#ffffff" stroke="transparent" points="460,-38 460,-54 512,-54 512,-38 460,-38"/>
<text text-anchor="start" x="462" y="-43.2" font-family="Helvetica,sans-Serif" font-size="11.00">&lt; 16</text>
<polygon fill="#ffffff" stroke="transparent" points="512,-38 512,-54 587,-54 587,-38 512,-38"/>
<text text-anchor="start" x="527" y="-43.2" font-family="Helvetica,sans-Serif" font-size="11.00">784 rows</text>
<polygon fill="#ffffff" stroke="transparent" points="587,-38 587,-54 644,-54 644,-38 587,-38"/>
<text text-anchor="start" x="614" y="-43.2" font-family="Helvetica,sans-Serif" font-size="11.00">262 &gt;</text>
<polygon fill="black" stroke="black" points="512,-38 512,-54 512,-54 512,-38 512,-38"/>
<polygon fill="black" stroke="black" points="587,-38 587,-54 587,-54 587,-38 587,-38"/>
</a>
</g>
</g>
<!-- c_currency_acct&#45;&gt;c_validcombination -->
<g id="edge4" class="edge">
<title>c_currency_acct:w&#45;&gt;c_validcombination:e</title>
<path fill="none" stroke="black" d="M681.06,-514.82C669.48,-517.94 662.73,-524 646,-524"/>
<polygon fill="black" stroke="black" points="687.56,-514 695.95,-516.57 691.53,-513.5 695.5,-513 695.5,-513 695.5,-513 691.53,-513.5 695.05,-509.43 687.56,-514 687.56,-514"/>
<ellipse fill="none" stroke="black" cx="684.39" cy="-514.4" rx="3.2" ry="3.2"/>
</g>
<!-- c_currency_acct&#45;&gt;c_validcombination -->
<g id="edge5" class="edge">
<title>c_currency_acct:w&#45;&gt;c_validcombination:e</title>
<path fill="none" stroke="black" d="M681.43,-495.31C669.06,-504.26 666.45,-524 646,-524"/>
<polygon fill="black" stroke="black" points="687.85,-493.34 696.56,-494.44 691.68,-492.17 695.5,-491 695.5,-491 695.5,-491 691.68,-492.17 694.44,-487.56 687.85,-493.34 687.85,-493.34"/>
<ellipse fill="none" stroke="black" cx="684.79" cy="-494.28" rx="3.2" ry="3.2"/>
</g>
<!-- c_currency_acct&#45;&gt;c_validcombination -->
<g id="edge6" class="edge">
<title>c_currency_acct:w&#45;&gt;c_validcombination:e</title>
<path fill="none" stroke="black" d="M681.43,-552.69C669.06,-543.74 666.45,-524 646,-524"/>
<polygon fill="black" stroke="black" points="687.85,-554.66 694.44,-560.44 691.68,-555.83 695.5,-557 695.5,-557 695.5,-557 691.68,-555.83 696.56,-553.56 687.85,-554.66 687.85,-554.66"/>
<ellipse fill="none" stroke="black" cx="684.79" cy="-553.72" rx="3.2" ry="3.2"/>
</g>
<!-- c_currency_acct&#45;&gt;c_validcombination -->
<g id="edge7" class="edge">
<title>c_currency_acct:w&#45;&gt;c_validcombination:e</title>
<path fill="none" stroke="black" d="M681.06,-533.18C669.48,-530.06 662.73,-524 646,-524"/>
<polygon fill="black" stroke="black" points="687.56,-534 695.05,-538.57 691.53,-534.5 695.5,-535 695.5,-535 695.5,-535 691.53,-534.5 695.95,-531.43 687.56,-534 687.56,-534"/>
<ellipse fill="none" stroke="black" cx="684.39" cy="-533.6" rx="3.2" ry="3.2"/>
</g>
<!-- c_validcombination&#45;&gt;c_acctschema -->
<g id="edge8" class="edge">
<title>c_validcombination:w&#45;&gt;c_acctschema:e</title>
<path fill="none" stroke="black" d="M443.99,-440.4C385.55,-483.47 493.74,-828 411.5,-828"/>
<polygon fill="black" stroke="black" points="450.37,-438.4 459.08,-439.43 454.18,-437.2 458,-436 458,-436 458,-436 454.18,-437.2 456.92,-432.57 450.37,-438.4 450.37,-438.4"/>
<ellipse fill="none" stroke="black" cx="447.31" cy="-439.36" rx="3.2" ry="3.2"/>
</g>
</g>
</svg>
