<?xml version="1.0" encoding="UTF-8" standalone="no"?>
<!DOCTYPE svg PUBLIC "-//W3C//DTD SVG 1.1//EN"
 "http://www.w3.org/Graphics/SVG/1.1/DTD/svg11.dtd">
<!-- Generated by graphviz version 2.43.0 (0)
 -->
<!-- Title: oneDegreeRelationshipsDiagram Pages: 1 -->
<svg width="773pt" height="978pt"
 viewBox="0.00 0.00 773.00 977.74" xmlns="http://www.w3.org/2000/svg" xmlns:xlink="http://www.w3.org/1999/xlink">
<g id="graph0" class="graph" transform="scale(1 1) rotate(0) translate(4 973.74)">
<title>oneDegreeRelationshipsDiagram</title>
<polygon fill="#ffffff" stroke="transparent" points="-4,4 -4,-973.74 769,-973.74 769,4 -4,4"/>
<text text-anchor="middle" x="71.5" y="-7.2" font-family="Helvetica,sans-Serif" font-size="11.00">Generated by SchemaSpy</text>
<!-- c_depositbatchline -->
<g id="node1" class="node">
<title>c_depositbatchline</title>
<g id="a_node1"><a xlink:href="../../tables/c_depositbatchline.html" xlink:title="c_depositbatchline" target="_top">
<polygon fill="#ffffff" stroke="transparent" points="487,-315.74 487,-689.74 757,-689.74 757,-315.74 487,-315.74"/>
<polygon fill="#f5f5f5" stroke="transparent" points="489,-665.74 489,-687.74 755,-687.74 755,-665.74 489,-665.74"/>
<polygon fill="none" stroke="black" points="489,-665.74 489,-687.74 755,-687.74 755,-665.74 489,-665.74"/>
<text text-anchor="start" x="494" y="-674.94" font-family="Helvetica,sans-Serif" font-weight="bold" font-size="11.00">c_depositbatchline</text>
<text text-anchor="start" x="720" y="-673.94" font-family="Helvetica,sans-Serif" font-size="11.00">[table]</text>
<polygon fill="none" stroke="black" points="489,-643.74 489,-665.74 672,-665.74 672,-643.74 489,-643.74"/>
<text text-anchor="start" x="509" y="-651.94" font-family="Helvetica,sans-Serif" font-size="11.00">ad_client_id</text>
<polygon fill="none" stroke="black" points="672,-643.74 672,-665.74 755,-665.74 755,-643.74 672,-643.74"/>
<text text-anchor="start" x="675" y="-651.94" font-family="Helvetica,sans-Serif" font-size="11.00">numeric[10]</text>
<polygon fill="none" stroke="black" points="489,-621.74 489,-643.74 672,-643.74 672,-621.74 489,-621.74"/>
<text text-anchor="start" x="509" y="-629.94" font-family="Helvetica,sans-Serif" font-size="11.00">ad_org_id</text>
<polygon fill="none" stroke="black" points="672,-621.74 672,-643.74 755,-643.74 755,-621.74 672,-621.74"/>
<text text-anchor="start" x="675" y="-629.94" font-family="Helvetica,sans-Serif" font-size="11.00">numeric[10]</text>
<polygon fill="none" stroke="black" points="489,-599.74 489,-621.74 672,-621.74 672,-599.74 489,-599.74"/>
<image xlink:href="../../images/foreignKeys.png" width="11px" height="12px" preserveAspectRatio="xMinYMin meet" x="494" y="-616.738"/>
<text text-anchor="start" x="509" y="-607.94" font-family="Helvetica,sans-Serif" font-size="11.00">c_payment_id</text>
<polygon fill="none" stroke="black" points="672,-599.74 672,-621.74 755,-621.74 755,-599.74 672,-599.74"/>
<text text-anchor="start" x="675" y="-607.94" font-family="Helvetica,sans-Serif" font-size="11.00">numeric[10]</text>
<polygon fill="none" stroke="black" points="489,-577.74 489,-599.74 672,-599.74 672,-577.74 489,-577.74"/>
<text text-anchor="start" x="509" y="-585.94" font-family="Helvetica,sans-Serif" font-size="11.00">created</text>
<polygon fill="none" stroke="black" points="672,-577.74 672,-599.74 755,-599.74 755,-577.74 672,-577.74"/>
<text text-anchor="start" x="675" y="-585.94" font-family="Helvetica,sans-Serif" font-size="11.00">timestamp[29,6]</text>
<polygon fill="none" stroke="black" points="489,-555.74 489,-577.74 672,-577.74 672,-555.74 489,-555.74"/>
<text text-anchor="start" x="509" y="-563.94" font-family="Helvetica,sans-Serif" font-size="11.00">createdby</text>
<polygon fill="none" stroke="black" points="672,-555.74 672,-577.74 755,-577.74 755,-555.74 672,-555.74"/>
<text text-anchor="start" x="675" y="-563.94" font-family="Helvetica,sans-Serif" font-size="11.00">numeric[10]</text>
<polygon fill="none" stroke="black" points="489,-533.74 489,-555.74 672,-555.74 672,-533.74 489,-533.74"/>
<text text-anchor="start" x="509" y="-541.94" font-family="Helvetica,sans-Serif" font-size="11.00">isactive</text>
<polygon fill="none" stroke="black" points="672,-533.74 672,-555.74 755,-555.74 755,-533.74 672,-533.74"/>
<text text-anchor="start" x="675" y="-541.94" font-family="Helvetica,sans-Serif" font-size="11.00">bpchar[1]</text>
<polygon fill="none" stroke="black" points="489,-511.74 489,-533.74 672,-533.74 672,-511.74 489,-511.74"/>
<text text-anchor="start" x="509" y="-519.94" font-family="Helvetica,sans-Serif" font-size="11.00">line</text>
<polygon fill="none" stroke="black" points="672,-511.74 672,-533.74 755,-533.74 755,-511.74 672,-511.74"/>
<text text-anchor="start" x="675" y="-519.94" font-family="Helvetica,sans-Serif" font-size="11.00">numeric[10]</text>
<polygon fill="none" stroke="black" points="489,-489.74 489,-511.74 672,-511.74 672,-489.74 489,-489.74"/>
<text text-anchor="start" x="509" y="-497.94" font-family="Helvetica,sans-Serif" font-size="11.00">payamt</text>
<polygon fill="none" stroke="black" points="672,-489.74 672,-511.74 755,-511.74 755,-489.74 672,-489.74"/>
<text text-anchor="start" x="675" y="-497.94" font-family="Helvetica,sans-Serif" font-size="11.00">numeric[0]</text>
<polygon fill="none" stroke="black" points="489,-467.74 489,-489.74 672,-489.74 672,-467.74 489,-467.74"/>
<text text-anchor="start" x="509" y="-475.94" font-family="Helvetica,sans-Serif" font-size="11.00">processed</text>
<polygon fill="none" stroke="black" points="672,-467.74 672,-489.74 755,-489.74 755,-467.74 672,-467.74"/>
<text text-anchor="start" x="675" y="-475.94" font-family="Helvetica,sans-Serif" font-size="11.00">bpchar[1]</text>
<polygon fill="none" stroke="black" points="489,-445.74 489,-467.74 672,-467.74 672,-445.74 489,-445.74"/>
<text text-anchor="start" x="509" y="-453.94" font-family="Helvetica,sans-Serif" font-size="11.00">processing</text>
<polygon fill="none" stroke="black" points="672,-445.74 672,-467.74 755,-467.74 755,-445.74 672,-445.74"/>
<text text-anchor="start" x="675" y="-453.94" font-family="Helvetica,sans-Serif" font-size="11.00">bpchar[1]</text>
<polygon fill="none" stroke="black" points="489,-423.74 489,-445.74 672,-445.74 672,-423.74 489,-423.74"/>
<text text-anchor="start" x="509" y="-431.94" font-family="Helvetica,sans-Serif" font-size="11.00">updated</text>
<polygon fill="none" stroke="black" points="672,-423.74 672,-445.74 755,-445.74 755,-423.74 672,-423.74"/>
<text text-anchor="start" x="675" y="-431.94" font-family="Helvetica,sans-Serif" font-size="11.00">timestamp[29,6]</text>
<polygon fill="none" stroke="black" points="489,-401.74 489,-423.74 672,-423.74 672,-401.74 489,-401.74"/>
<text text-anchor="start" x="509" y="-409.94" font-family="Helvetica,sans-Serif" font-size="11.00">updatedby</text>
<polygon fill="none" stroke="black" points="672,-401.74 672,-423.74 755,-423.74 755,-401.74 672,-401.74"/>
<text text-anchor="start" x="675" y="-409.94" font-family="Helvetica,sans-Serif" font-size="11.00">numeric[10]</text>
<polygon fill="none" stroke="black" points="489,-379.74 489,-401.74 672,-401.74 672,-379.74 489,-379.74"/>
<image xlink:href="../../images/foreignKeys.png" width="11px" height="12px" preserveAspectRatio="xMinYMin meet" x="494" y="-396.738"/>
<text text-anchor="start" x="509" y="-387.94" font-family="Helvetica,sans-Serif" font-size="11.00">c_depositbatch_id</text>
<polygon fill="none" stroke="black" points="672,-379.74 672,-401.74 755,-401.74 755,-379.74 672,-379.74"/>
<text text-anchor="start" x="675" y="-387.94" font-family="Helvetica,sans-Serif" font-size="11.00">numeric[10]</text>
<polygon fill="none" stroke="black" points="489,-357.74 489,-379.74 672,-379.74 672,-357.74 489,-357.74"/>
<image xlink:href="../../images/primaryKeys.png" width="11px" height="12px" preserveAspectRatio="xMinYMin meet" x="494" y="-374.738"/>
<text text-anchor="start" x="509" y="-365.94" font-family="Helvetica,sans-Serif" font-size="11.00">c_depositbatchline_id</text>
<polygon fill="none" stroke="black" points="672,-357.74 672,-379.74 755,-379.74 755,-357.74 672,-357.74"/>
<text text-anchor="start" x="675" y="-365.94" font-family="Helvetica,sans-Serif" font-size="11.00">numeric[10]</text>
<polygon fill="#ffffff" stroke="transparent" points="489,-335.74 489,-357.74 672,-357.74 672,-335.74 489,-335.74"/>
<polygon fill="none" stroke="black" points="489,-335.74 489,-357.74 672,-357.74 672,-335.74 489,-335.74"/>
<text text-anchor="start" x="509" y="-343.94" font-family="Helvetica,sans-Serif" font-size="11.00">c_depositbatchline_uu</text>
<polygon fill="none" stroke="black" points="672,-335.74 672,-357.74 755,-357.74 755,-335.74 672,-335.74"/>
<text text-anchor="start" x="675" y="-343.94" font-family="Helvetica,sans-Serif" font-size="11.00">varchar[36]</text>
<polygon fill="#ffffff" stroke="transparent" points="489,-317.74 489,-335.74 755,-335.74 755,-317.74 489,-317.74"/>
<polygon fill="none" stroke="black" points="489,-317.74 489,-335.74 755,-335.74 755,-317.74 489,-317.74"/>
<polygon fill="#ffffff" stroke="transparent" points="490,-318.74 490,-334.74 581,-334.74 581,-318.74 490,-318.74"/>
<text text-anchor="start" x="492" y="-323.94" font-family="Helvetica,sans-Serif" font-size="11.00">&lt; 2</text>
<polygon fill="#ffffff" stroke="transparent" points="581,-318.74 581,-334.74 663,-334.74 663,-318.74 581,-318.74"/>
<text text-anchor="start" x="618.5" y="-323.94" font-family="Helvetica,sans-Serif" font-size="11.00"> &#160;</text>
<polygon fill="#ffffff" stroke="transparent" points="663,-318.74 663,-334.74 754,-334.74 754,-318.74 663,-318.74"/>
<text text-anchor="start" x="736" y="-323.94" font-family="Helvetica,sans-Serif" font-size="11.00">0 &gt;</text>
<polygon fill="black" stroke="black" points="581,-318.74 581,-334.74 581,-334.74 581,-318.74 581,-318.74"/>
<polygon fill="black" stroke="black" points="663,-318.74 663,-334.74 663,-334.74 663,-318.74 663,-318.74"/>
<polygon fill="none" stroke="black" stroke-width="2" points="488,-316.74 488,-688.74 756,-688.74 756,-316.74 488,-316.74"/>
</a>
</g>
</g>
<!-- c_depositbatch -->
<g id="node2" class="node">
<title>c_depositbatch</title>
<g id="a_node2"><a xlink:href="../../tables/c_depositbatch.html" xlink:title="c_depositbatch" target="_top">
<polygon fill="#ffffff" stroke="transparent" points="8,-101.74 8,-269.74 164,-269.74 164,-101.74 8,-101.74"/>
<polygon fill="#f5f5f5" stroke="transparent" points="8,-247.74 8,-269.74 164,-269.74 164,-247.74 8,-247.74"/>
<polygon fill="none" stroke="black" points="8,-247.74 8,-269.74 164,-269.74 164,-247.74 8,-247.74"/>
<text text-anchor="start" x="13" y="-256.94" font-family="Helvetica,sans-Serif" font-weight="bold" font-size="11.00">c_depositbatch</text>
<text text-anchor="start" x="129" y="-255.94" font-family="Helvetica,sans-Serif" font-size="11.00">[table]</text>
<polygon fill="none" stroke="black" points="8,-225.74 8,-247.74 164,-247.74 164,-225.74 8,-225.74"/>
<image xlink:href="../../images/foreignKeys.png" width="11px" height="12px" preserveAspectRatio="xMinYMin meet" x="13" y="-242.738"/>
<text text-anchor="start" x="28" y="-233.94" font-family="Helvetica,sans-Serif" font-size="11.00">c_bankaccount_id</text>
<polygon fill="none" stroke="black" points="8,-203.74 8,-225.74 164,-225.74 164,-203.74 8,-203.74"/>
<image xlink:href="../../images/foreignKeys.png" width="11px" height="12px" preserveAspectRatio="xMinYMin meet" x="13" y="-220.738"/>
<text text-anchor="start" x="28" y="-211.94" font-family="Helvetica,sans-Serif" font-size="11.00">c_doctype_id</text>
<polygon fill="none" stroke="black" points="8,-181.74 8,-203.74 164,-203.74 164,-181.74 8,-181.74"/>
<image xlink:href="../../images/primaryKeys.png" width="11px" height="12px" preserveAspectRatio="xMinYMin meet" x="13" y="-198.738"/>
<text text-anchor="start" x="28" y="-189.94" font-family="Helvetica,sans-Serif" font-size="11.00">c_depositbatch_id</text>
<polygon fill="#ffffff" stroke="transparent" points="8,-159.74 8,-181.74 164,-181.74 164,-159.74 8,-159.74"/>
<polygon fill="none" stroke="black" points="8,-159.74 8,-181.74 164,-181.74 164,-159.74 8,-159.74"/>
<text text-anchor="start" x="28" y="-167.94" font-family="Helvetica,sans-Serif" font-size="11.00">c_depositbatch_uu</text>
<polygon fill="none" stroke="black" points="8,-137.74 8,-159.74 164,-159.74 164,-137.74 8,-137.74"/>
<image xlink:href="../../images/foreignKeys.png" width="11px" height="12px" preserveAspectRatio="xMinYMin meet" x="13" y="-154.738"/>
<text text-anchor="start" x="28" y="-145.94" font-family="Helvetica,sans-Serif" font-size="11.00">c_currency_id</text>
<polygon fill="none" stroke="black" points="8,-119.74 8,-137.74 164,-137.74 164,-119.74 8,-119.74"/>
<text text-anchor="start" x="11" y="-125.94" font-family="Helvetica,sans-Serif" font-size="11.00">...</text>
<polygon fill="#ffffff" stroke="transparent" points="8,-101.74 8,-119.74 164,-119.74 164,-101.74 8,-101.74"/>
<polygon fill="none" stroke="black" points="8,-101.74 8,-119.74 164,-119.74 164,-101.74 8,-101.74"/>
<polygon fill="#ffffff" stroke="transparent" points="9,-102.74 9,-118.74 64,-118.74 64,-102.74 9,-102.74"/>
<text text-anchor="start" x="11" y="-107.94" font-family="Helvetica,sans-Serif" font-size="11.00">&lt; 3</text>
<polygon fill="#ffffff" stroke="transparent" points="64,-102.74 64,-118.74 109,-118.74 109,-102.74 64,-102.74"/>
<text text-anchor="start" x="83" y="-107.94" font-family="Helvetica,sans-Serif" font-size="11.00"> &#160;</text>
<polygon fill="#ffffff" stroke="transparent" points="109,-102.74 109,-118.74 163,-118.74 163,-102.74 109,-102.74"/>
<text text-anchor="start" x="145" y="-107.94" font-family="Helvetica,sans-Serif" font-size="11.00">3 &gt;</text>
<polygon fill="black" stroke="black" points="64,-102.74 64,-118.74 64,-118.74 64,-102.74 64,-102.74"/>
<polygon fill="black" stroke="black" points="109,-102.74 109,-118.74 109,-118.74 109,-102.74 109,-102.74"/>
</a>
</g>
</g>
<!-- c_depositbatchline&#45;&gt;c_depositbatch -->
<g id="edge1" class="edge">
<title>c_depositbatchline:w&#45;&gt;c_depositbatch:e</title>
<path fill="none" stroke="black" d="M474.11,-385.93C430.75,-350.08 493.87,-124.53 446,-82.74 365.31,-12.3 292.73,-21.29 205,-82.74 162.39,-112.58 217.02,-192.74 165,-192.74"/>
<polygon fill="black" stroke="black" points="480.44,-388.12 486.82,-394.14 484.22,-389.43 488,-390.74 488,-390.74 488,-390.74 484.22,-389.43 489.18,-387.34 480.44,-388.12 480.44,-388.12"/>
<ellipse fill="none" stroke="black" cx="477.42" cy="-387.08" rx="3.2" ry="3.2"/>
</g>
<!-- c_payment -->
<g id="node3" class="node">
<title>c_payment</title>
<g id="a_node3"><a xlink:href="../../tables/c_payment.html" xlink:title="c_payment" target="_top">
<polygon fill="#ffffff" stroke="transparent" points="213,-93.74 213,-965.74 438,-965.74 438,-93.74 213,-93.74"/>
<polygon fill="#f5f5f5" stroke="transparent" points="213.5,-943.74 213.5,-965.74 438.5,-965.74 438.5,-943.74 213.5,-943.74"/>
<polygon fill="none" stroke="black" points="213.5,-943.74 213.5,-965.74 438.5,-965.74 438.5,-943.74 213.5,-943.74"/>
<text text-anchor="start" x="218.5" y="-952.94" font-family="Helvetica,sans-Serif" font-weight="bold" font-size="11.00">c_payment</text>
<text text-anchor="start" x="403.5" y="-951.94" font-family="Helvetica,sans-Serif" font-size="11.00">[table]</text>
<polygon fill="none" stroke="black" points="213.5,-921.74 213.5,-943.74 438.5,-943.74 438.5,-921.74 213.5,-921.74"/>
<image xlink:href="../../images/primaryKeys.png" width="11px" height="12px" preserveAspectRatio="xMinYMin meet" x="218.5" y="-938.738"/>
<text text-anchor="start" x="233.5" y="-929.94" font-family="Helvetica,sans-Serif" font-size="11.00">c_payment_id</text>
<polygon fill="#ffffff" stroke="transparent" points="213.5,-899.74 213.5,-921.74 438.5,-921.74 438.5,-899.74 213.5,-899.74"/>
<polygon fill="none" stroke="black" points="213.5,-899.74 213.5,-921.74 438.5,-921.74 438.5,-899.74 213.5,-899.74"/>
<text text-anchor="start" x="233.5" y="-907.94" font-family="Helvetica,sans-Serif" font-size="11.00">ad_client_id</text>
<polygon fill="none" stroke="black" points="213.5,-877.74 213.5,-899.74 438.5,-899.74 438.5,-877.74 213.5,-877.74"/>
<image xlink:href="../../images/foreignKeys.png" width="11px" height="12px" preserveAspectRatio="xMinYMin meet" x="218.5" y="-894.738"/>
<text text-anchor="start" x="233.5" y="-885.94" font-family="Helvetica,sans-Serif" font-size="11.00">ad_org_id</text>
<polygon fill="none" stroke="black" points="213.5,-855.74 213.5,-877.74 438.5,-877.74 438.5,-855.74 213.5,-855.74"/>
<image xlink:href="../../images/foreignKeys.png" width="11px" height="12px" preserveAspectRatio="xMinYMin meet" x="218.5" y="-872.738"/>
<text text-anchor="start" x="233.5" y="-863.94" font-family="Helvetica,sans-Serif" font-size="11.00">c_doctype_id</text>
<polygon fill="#ffffff" stroke="transparent" points="213.5,-833.74 213.5,-855.74 438.5,-855.74 438.5,-833.74 213.5,-833.74"/>
<polygon fill="none" stroke="black" points="213.5,-833.74 213.5,-855.74 438.5,-855.74 438.5,-833.74 213.5,-833.74"/>
<image xlink:href="../../images/foreignKeys.png" width="11px" height="12px" preserveAspectRatio="xMinYMin meet" x="218.5" y="-850.738"/>
<text text-anchor="start" x="233.5" y="-841.94" font-family="Helvetica,sans-Serif" font-size="11.00">c_bankaccount_id</text>
<polygon fill="#ffffff" stroke="transparent" points="213.5,-811.74 213.5,-833.74 438.5,-833.74 438.5,-811.74 213.5,-811.74"/>
<polygon fill="none" stroke="black" points="213.5,-811.74 213.5,-833.74 438.5,-833.74 438.5,-811.74 213.5,-811.74"/>
<image xlink:href="../../images/foreignKeys.png" width="11px" height="12px" preserveAspectRatio="xMinYMin meet" x="218.5" y="-828.738"/>
<text text-anchor="start" x="233.5" y="-819.94" font-family="Helvetica,sans-Serif" font-size="11.00">c_bpartner_id</text>
<polygon fill="#ffffff" stroke="transparent" points="213.5,-789.74 213.5,-811.74 438.5,-811.74 438.5,-789.74 213.5,-789.74"/>
<polygon fill="none" stroke="black" points="213.5,-789.74 213.5,-811.74 438.5,-811.74 438.5,-789.74 213.5,-789.74"/>
<image xlink:href="../../images/foreignKeys.png" width="11px" height="12px" preserveAspectRatio="xMinYMin meet" x="218.5" y="-806.738"/>
<text text-anchor="start" x="233.5" y="-797.94" font-family="Helvetica,sans-Serif" font-size="11.00">c_invoice_id</text>
<polygon fill="none" stroke="black" points="213.5,-767.74 213.5,-789.74 438.5,-789.74 438.5,-767.74 213.5,-767.74"/>
<image xlink:href="../../images/foreignKeys.png" width="11px" height="12px" preserveAspectRatio="xMinYMin meet" x="218.5" y="-784.738"/>
<text text-anchor="start" x="233.5" y="-775.94" font-family="Helvetica,sans-Serif" font-size="11.00">c_bp_bankaccount_id</text>
<polygon fill="none" stroke="black" points="213.5,-745.74 213.5,-767.74 438.5,-767.74 438.5,-745.74 213.5,-745.74"/>
<image xlink:href="../../images/foreignKeys.png" width="11px" height="12px" preserveAspectRatio="xMinYMin meet" x="218.5" y="-762.738"/>
<text text-anchor="start" x="233.5" y="-753.94" font-family="Helvetica,sans-Serif" font-size="11.00">c_paymentbatch_id</text>
<polygon fill="none" stroke="black" points="213.5,-723.74 213.5,-745.74 438.5,-745.74 438.5,-723.74 213.5,-723.74"/>
<image xlink:href="../../images/foreignKeys.png" width="11px" height="12px" preserveAspectRatio="xMinYMin meet" x="218.5" y="-740.738"/>
<text text-anchor="start" x="233.5" y="-731.94" font-family="Helvetica,sans-Serif" font-size="11.00">c_currency_id</text>
<polygon fill="#ffffff" stroke="transparent" points="213.5,-701.74 213.5,-723.74 438.5,-723.74 438.5,-701.74 213.5,-701.74"/>
<polygon fill="none" stroke="black" points="213.5,-701.74 213.5,-723.74 438.5,-723.74 438.5,-701.74 213.5,-701.74"/>
<text text-anchor="start" x="233.5" y="-709.94" font-family="Helvetica,sans-Serif" font-size="11.00">processed</text>
<polygon fill="#ffffff" stroke="transparent" points="213.5,-679.74 213.5,-701.74 438.5,-701.74 438.5,-679.74 213.5,-679.74"/>
<polygon fill="none" stroke="black" points="213.5,-679.74 213.5,-701.74 438.5,-701.74 438.5,-679.74 213.5,-679.74"/>
<text text-anchor="start" x="233.5" y="-687.94" font-family="Helvetica,sans-Serif" font-size="11.00">posted</text>
<polygon fill="none" stroke="black" points="213.5,-657.74 213.5,-679.74 438.5,-679.74 438.5,-657.74 213.5,-657.74"/>
<image xlink:href="../../images/foreignKeys.png" width="11px" height="12px" preserveAspectRatio="xMinYMin meet" x="218.5" y="-674.738"/>
<text text-anchor="start" x="233.5" y="-665.94" font-family="Helvetica,sans-Serif" font-size="11.00">c_project_id</text>
<polygon fill="none" stroke="black" points="213.5,-635.74 213.5,-657.74 438.5,-657.74 438.5,-635.74 213.5,-635.74"/>
<image xlink:href="../../images/foreignKeys.png" width="11px" height="12px" preserveAspectRatio="xMinYMin meet" x="218.5" y="-652.738"/>
<text text-anchor="start" x="233.5" y="-643.94" font-family="Helvetica,sans-Serif" font-size="11.00">c_charge_id</text>
<polygon fill="none" stroke="black" points="213.5,-613.74 213.5,-635.74 438.5,-635.74 438.5,-613.74 213.5,-613.74"/>
<image xlink:href="../../images/foreignKeys.png" width="11px" height="12px" preserveAspectRatio="xMinYMin meet" x="218.5" y="-630.738"/>
<text text-anchor="start" x="233.5" y="-621.94" font-family="Helvetica,sans-Serif" font-size="11.00">ad_orgtrx_id</text>
<polygon fill="none" stroke="black" points="213.5,-591.74 213.5,-613.74 438.5,-613.74 438.5,-591.74 213.5,-591.74"/>
<image xlink:href="../../images/foreignKeys.png" width="11px" height="12px" preserveAspectRatio="xMinYMin meet" x="218.5" y="-608.738"/>
<text text-anchor="start" x="233.5" y="-599.94" font-family="Helvetica,sans-Serif" font-size="11.00">c_campaign_id</text>
<polygon fill="none" stroke="black" points="213.5,-569.74 213.5,-591.74 438.5,-591.74 438.5,-569.74 213.5,-569.74"/>
<image xlink:href="../../images/foreignKeys.png" width="11px" height="12px" preserveAspectRatio="xMinYMin meet" x="218.5" y="-586.738"/>
<text text-anchor="start" x="233.5" y="-577.94" font-family="Helvetica,sans-Serif" font-size="11.00">c_activity_id</text>
<polygon fill="none" stroke="black" points="213.5,-547.74 213.5,-569.74 438.5,-569.74 438.5,-547.74 213.5,-547.74"/>
<image xlink:href="../../images/foreignKeys.png" width="11px" height="12px" preserveAspectRatio="xMinYMin meet" x="218.5" y="-564.738"/>
<text text-anchor="start" x="233.5" y="-555.94" font-family="Helvetica,sans-Serif" font-size="11.00">user1_id</text>
<polygon fill="none" stroke="black" points="213.5,-525.74 213.5,-547.74 438.5,-547.74 438.5,-525.74 213.5,-525.74"/>
<image xlink:href="../../images/foreignKeys.png" width="11px" height="12px" preserveAspectRatio="xMinYMin meet" x="218.5" y="-542.738"/>
<text text-anchor="start" x="233.5" y="-533.94" font-family="Helvetica,sans-Serif" font-size="11.00">user2_id</text>
<polygon fill="none" stroke="black" points="213.5,-503.74 213.5,-525.74 438.5,-525.74 438.5,-503.74 213.5,-503.74"/>
<image xlink:href="../../images/foreignKeys.png" width="11px" height="12px" preserveAspectRatio="xMinYMin meet" x="218.5" y="-520.738"/>
<text text-anchor="start" x="233.5" y="-511.94" font-family="Helvetica,sans-Serif" font-size="11.00">c_conversiontype_id</text>
<polygon fill="#ffffff" stroke="transparent" points="213.5,-481.74 213.5,-503.74 438.5,-503.74 438.5,-481.74 213.5,-481.74"/>
<polygon fill="none" stroke="black" points="213.5,-481.74 213.5,-503.74 438.5,-503.74 438.5,-481.74 213.5,-481.74"/>
<image xlink:href="../../images/foreignKeys.png" width="11px" height="12px" preserveAspectRatio="xMinYMin meet" x="218.5" y="-498.738"/>
<text text-anchor="start" x="233.5" y="-489.94" font-family="Helvetica,sans-Serif" font-size="11.00">c_order_id</text>
<polygon fill="none" stroke="black" points="213.5,-459.74 213.5,-481.74 438.5,-481.74 438.5,-459.74 213.5,-459.74"/>
<image xlink:href="../../images/foreignKeys.png" width="11px" height="12px" preserveAspectRatio="xMinYMin meet" x="218.5" y="-476.738"/>
<text text-anchor="start" x="233.5" y="-467.94" font-family="Helvetica,sans-Serif" font-size="11.00">ref_payment_id</text>
<polygon fill="none" stroke="black" points="213.5,-437.74 213.5,-459.74 438.5,-459.74 438.5,-437.74 213.5,-437.74"/>
<image xlink:href="../../images/foreignKeys.png" width="11px" height="12px" preserveAspectRatio="xMinYMin meet" x="218.5" y="-454.738"/>
<text text-anchor="start" x="233.5" y="-445.94" font-family="Helvetica,sans-Serif" font-size="11.00">reversal_id</text>
<polygon fill="none" stroke="black" points="213.5,-415.74 213.5,-437.74 438.5,-437.74 438.5,-415.74 213.5,-415.74"/>
<image xlink:href="../../images/foreignKeys.png" width="11px" height="12px" preserveAspectRatio="xMinYMin meet" x="218.5" y="-432.738"/>
<text text-anchor="start" x="233.5" y="-423.94" font-family="Helvetica,sans-Serif" font-size="11.00">c_cashbook_id</text>
<polygon fill="#ffffff" stroke="transparent" points="213.5,-393.74 213.5,-415.74 438.5,-415.74 438.5,-393.74 213.5,-393.74"/>
<polygon fill="none" stroke="black" points="213.5,-393.74 213.5,-415.74 438.5,-415.74 438.5,-393.74 213.5,-393.74"/>
<text text-anchor="start" x="233.5" y="-401.94" font-family="Helvetica,sans-Serif" font-size="11.00">processedon</text>
<polygon fill="#ffffff" stroke="transparent" points="213.5,-371.74 213.5,-393.74 438.5,-393.74 438.5,-371.74 213.5,-371.74"/>
<polygon fill="none" stroke="black" points="213.5,-371.74 213.5,-393.74 438.5,-393.74 438.5,-371.74 213.5,-371.74"/>
<text text-anchor="start" x="233.5" y="-379.94" font-family="Helvetica,sans-Serif" font-size="11.00">c_payment_uu</text>
<polygon fill="none" stroke="black" points="213.5,-349.74 213.5,-371.74 438.5,-371.74 438.5,-349.74 213.5,-349.74"/>
<image xlink:href="../../images/foreignKeys.png" width="11px" height="12px" preserveAspectRatio="xMinYMin meet" x="218.5" y="-366.738"/>
<text text-anchor="start" x="233.5" y="-357.94" font-family="Helvetica,sans-Serif" font-size="11.00">c_postendertype_id</text>
<polygon fill="none" stroke="black" points="213.5,-327.74 213.5,-349.74 438.5,-349.74 438.5,-327.74 213.5,-327.74"/>
<image xlink:href="../../images/foreignKeys.png" width="11px" height="12px" preserveAspectRatio="xMinYMin meet" x="218.5" y="-344.738"/>
<text text-anchor="start" x="233.5" y="-335.94" font-family="Helvetica,sans-Serif" font-size="11.00">c_paymentprocessor_id</text>
<polygon fill="none" stroke="black" points="213.5,-305.74 213.5,-327.74 438.5,-327.74 438.5,-305.74 213.5,-305.74"/>
<image xlink:href="../../images/foreignKeys.png" width="11px" height="12px" preserveAspectRatio="xMinYMin meet" x="218.5" y="-322.738"/>
<text text-anchor="start" x="233.5" y="-313.94" font-family="Helvetica,sans-Serif" font-size="11.00">c_depositbatch_id</text>
<polygon fill="none" stroke="black" points="213.5,-283.74 213.5,-305.74 438.5,-305.74 438.5,-283.74 213.5,-283.74"/>
<image xlink:href="../../images/foreignKeys.png" width="11px" height="12px" preserveAspectRatio="xMinYMin meet" x="218.5" y="-300.738"/>
<text text-anchor="start" x="233.5" y="-291.94" font-family="Helvetica,sans-Serif" font-size="11.00">c_invoicepayschedule_id</text>
<polygon fill="none" stroke="black" points="213.5,-261.74 213.5,-283.74 438.5,-283.74 438.5,-261.74 213.5,-261.74"/>
<image xlink:href="../../images/foreignKeys.png" width="11px" height="12px" preserveAspectRatio="xMinYMin meet" x="218.5" y="-278.738"/>
<text text-anchor="start" x="233.5" y="-269.94" font-family="Helvetica,sans-Serif" font-size="11.00">cof_c_controlcheck_id</text>
<polygon fill="none" stroke="black" points="213.5,-239.74 213.5,-261.74 438.5,-261.74 438.5,-239.74 213.5,-239.74"/>
<image xlink:href="../../images/foreignKeys.png" width="11px" height="12px" preserveAspectRatio="xMinYMin meet" x="218.5" y="-256.738"/>
<text text-anchor="start" x="233.5" y="-247.94" font-family="Helvetica,sans-Serif" font-size="11.00">cof_c_cardnetwork_id</text>
<polygon fill="none" stroke="black" points="213.5,-217.74 213.5,-239.74 438.5,-239.74 438.5,-217.74 213.5,-217.74"/>
<image xlink:href="../../images/foreignKeys.png" width="11px" height="12px" preserveAspectRatio="xMinYMin meet" x="218.5" y="-234.738"/>
<text text-anchor="start" x="233.5" y="-225.94" font-family="Helvetica,sans-Serif" font-size="11.00">cof_c_checkcustody_id</text>
<polygon fill="none" stroke="black" points="213.5,-195.74 213.5,-217.74 438.5,-217.74 438.5,-195.74 213.5,-195.74"/>
<image xlink:href="../../images/foreignKeys.png" width="11px" height="12px" preserveAspectRatio="xMinYMin meet" x="218.5" y="-212.738"/>
<text text-anchor="start" x="233.5" y="-203.94" font-family="Helvetica,sans-Serif" font-size="11.00">cof_c_planofinanceiro_id</text>
<polygon fill="none" stroke="black" points="213.5,-173.74 213.5,-195.74 438.5,-195.74 438.5,-173.74 213.5,-173.74"/>
<image xlink:href="../../images/foreignKeys.png" width="11px" height="12px" preserveAspectRatio="xMinYMin meet" x="218.5" y="-190.738"/>
<text text-anchor="start" x="233.5" y="-181.94" font-family="Helvetica,sans-Serif" font-size="11.00">cof_payment_id</text>
<polygon fill="none" stroke="black" points="213.5,-151.74 213.5,-173.74 438.5,-173.74 438.5,-151.74 213.5,-151.74"/>
<image xlink:href="../../images/foreignKeys.png" width="11px" height="12px" preserveAspectRatio="xMinYMin meet" x="218.5" y="-168.738"/>
<text text-anchor="start" x="233.5" y="-159.94" font-family="Helvetica,sans-Serif" font-size="11.00">c_banktransfer_id</text>
<polygon fill="none" stroke="black" points="213.5,-129.74 213.5,-151.74 438.5,-151.74 438.5,-129.74 213.5,-129.74"/>
<image xlink:href="../../images/foreignKeys.png" width="11px" height="12px" preserveAspectRatio="xMinYMin meet" x="218.5" y="-146.738"/>
<text text-anchor="start" x="233.5" y="-137.94" font-family="Helvetica,sans-Serif" font-size="11.00">cof_cobranca_pix_id</text>
<polygon fill="none" stroke="black" points="213.5,-111.74 213.5,-129.74 438.5,-129.74 438.5,-111.74 213.5,-111.74"/>
<text text-anchor="start" x="216.5" y="-117.94" font-family="Helvetica,sans-Serif" font-size="11.00">...</text>
<polygon fill="#ffffff" stroke="transparent" points="213.5,-93.74 213.5,-111.74 438.5,-111.74 438.5,-93.74 213.5,-93.74"/>
<polygon fill="none" stroke="black" points="213.5,-93.74 213.5,-111.74 438.5,-111.74 438.5,-93.74 213.5,-93.74"/>
<polygon fill="#ffffff" stroke="transparent" points="214.5,-94.74 214.5,-110.74 294.5,-110.74 294.5,-94.74 214.5,-94.74"/>
<text text-anchor="start" x="216.5" y="-99.94" font-family="Helvetica,sans-Serif" font-size="11.00">&lt; 31</text>
<polygon fill="#ffffff" stroke="transparent" points="294.5,-94.74 294.5,-110.74 358.5,-110.74 358.5,-94.74 294.5,-94.74"/>
<text text-anchor="start" x="323" y="-99.94" font-family="Helvetica,sans-Serif" font-size="11.00"> &#160;</text>
<polygon fill="#ffffff" stroke="transparent" points="358.5,-94.74 358.5,-110.74 437.5,-110.74 437.5,-94.74 358.5,-94.74"/>
<text text-anchor="start" x="413.5" y="-99.94" font-family="Helvetica,sans-Serif" font-size="11.00">29 &gt;</text>
<polygon fill="black" stroke="black" points="294.5,-94.74 294.5,-110.74 294.5,-110.74 294.5,-94.74 294.5,-94.74"/>
<polygon fill="black" stroke="black" points="358.5,-94.74 358.5,-110.74 358.5,-110.74 358.5,-94.74 358.5,-94.74"/>
</a>
</g>
</g>
<!-- c_depositbatchline&#45;&gt;c_payment -->
<g id="edge2" class="edge">
<title>c_depositbatchline:w&#45;&gt;c_payment:e</title>
<path fill="none" stroke="black" d="M473.44,-612.04C360.63,-634.19 578.85,-932.74 439.5,-932.74"/>
<polygon fill="black" stroke="black" points="480.03,-611.45 488.32,-614.32 484.02,-611.09 488,-610.74 488,-610.74 488,-610.74 484.02,-611.09 487.68,-607.15 480.03,-611.45 480.03,-611.45"/>
<ellipse fill="none" stroke="black" cx="476.84" cy="-611.73" rx="3.2" ry="3.2"/>
</g>
<!-- c_payment&#45;&gt;c_depositbatch -->
<g id="edge3" class="edge">
<title>c_payment:w&#45;&gt;c_depositbatch:e</title>
<path fill="none" stroke="black" d="M198.26,-313.16C166.47,-292.83 218.02,-192.74 165,-192.74"/>
<polygon fill="black" stroke="black" points="204.74,-314.79 211.62,-320.23 208.62,-315.76 212.5,-316.74 212.5,-316.74 212.5,-316.74 208.62,-315.76 213.38,-313.25 204.74,-314.79 204.74,-314.79"/>
<ellipse fill="none" stroke="black" cx="201.64" cy="-314.01" rx="3.2" ry="3.2"/>
</g>
</g>
</svg>
