<?xml version="1.0" encoding="UTF-8" standalone="no"?>
<!DOCTYPE svg PUBLIC "-//W3C//DTD SVG 1.1//EN"
 "http://www.w3.org/Graphics/SVG/1.1/DTD/svg11.dtd">
<!-- Generated by graphviz version 2.43.0 (0)
 -->
<!-- Title: oneDegreeRelationshipsDiagram Pages: 1 -->
<svg width="567pt" height="538pt"
 viewBox="0.00 0.00 567.00 538.00" xmlns="http://www.w3.org/2000/svg" xmlns:xlink="http://www.w3.org/1999/xlink">
<g id="graph0" class="graph" transform="scale(1 1) rotate(0) translate(4 534)">
<title>oneDegreeRelationshipsDiagram</title>
<polygon fill="#ffffff" stroke="transparent" points="-4,4 -4,-534 563,-534 563,4 -4,4"/>
<text text-anchor="middle" x="71.5" y="-7.2" font-family="Helvetica,sans-Serif" font-size="11.00">Generated by SchemaSpy</text>
<!-- c_elementvalue_trl -->
<g id="node1" class="node">
<title>c_elementvalue_trl</title>
<g id="a_node1"><a xlink:href="../../tables/c_elementvalue_trl.html" xlink:title="c_elementvalue_trl" target="_top">
<polygon fill="#ffffff" stroke="transparent" points="281,-59 281,-389 551,-389 551,-59 281,-59"/>
<polygon fill="#f5f5f5" stroke="transparent" points="283,-365 283,-387 549,-387 549,-365 283,-365"/>
<polygon fill="none" stroke="black" points="283,-365 283,-387 549,-387 549,-365 283,-365"/>
<text text-anchor="start" x="288" y="-374.2" font-family="Helvetica,sans-Serif" font-weight="bold" font-size="11.00">c_elementvalue_trl</text>
<text text-anchor="start" x="514" y="-373.2" font-family="Helvetica,sans-Serif" font-size="11.00">[table]</text>
<polygon fill="none" stroke="black" points="283,-343 283,-365 466,-365 466,-343 283,-343"/>
<image xlink:href="../../images/primaryKeys.png" width="11px" height="12px" preserveAspectRatio="xMinYMin meet" x="288" y="-360"/>
<text text-anchor="start" x="303" y="-351.2" font-family="Helvetica,sans-Serif" font-size="11.00">c_elementvalue_id</text>
<polygon fill="none" stroke="black" points="466,-343 466,-365 549,-365 549,-343 466,-343"/>
<text text-anchor="start" x="469" y="-351.2" font-family="Helvetica,sans-Serif" font-size="11.00">numeric[10]</text>
<polygon fill="none" stroke="black" points="283,-321 283,-343 466,-343 466,-321 283,-321"/>
<image xlink:href="../../images/primaryKeys.png" width="11px" height="12px" preserveAspectRatio="xMinYMin meet" x="288" y="-338"/>
<text text-anchor="start" x="303" y="-329.2" font-family="Helvetica,sans-Serif" font-size="11.00">ad_language</text>
<polygon fill="none" stroke="black" points="466,-321 466,-343 549,-343 549,-321 466,-321"/>
<text text-anchor="start" x="469" y="-329.2" font-family="Helvetica,sans-Serif" font-size="11.00">varchar[6]</text>
<polygon fill="none" stroke="black" points="283,-299 283,-321 466,-321 466,-299 283,-299"/>
<text text-anchor="start" x="303" y="-307.2" font-family="Helvetica,sans-Serif" font-size="11.00">ad_client_id</text>
<polygon fill="none" stroke="black" points="466,-299 466,-321 549,-321 549,-299 466,-299"/>
<text text-anchor="start" x="469" y="-307.2" font-family="Helvetica,sans-Serif" font-size="11.00">numeric[10]</text>
<polygon fill="none" stroke="black" points="283,-277 283,-299 466,-299 466,-277 283,-277"/>
<text text-anchor="start" x="303" y="-285.2" font-family="Helvetica,sans-Serif" font-size="11.00">ad_org_id</text>
<polygon fill="none" stroke="black" points="466,-277 466,-299 549,-299 549,-277 466,-277"/>
<text text-anchor="start" x="469" y="-285.2" font-family="Helvetica,sans-Serif" font-size="11.00">numeric[10]</text>
<polygon fill="none" stroke="black" points="283,-255 283,-277 466,-277 466,-255 283,-255"/>
<text text-anchor="start" x="303" y="-263.2" font-family="Helvetica,sans-Serif" font-size="11.00">isactive</text>
<polygon fill="none" stroke="black" points="466,-255 466,-277 549,-277 549,-255 466,-255"/>
<text text-anchor="start" x="469" y="-263.2" font-family="Helvetica,sans-Serif" font-size="11.00">bpchar[1]</text>
<polygon fill="none" stroke="black" points="283,-233 283,-255 466,-255 466,-233 283,-233"/>
<text text-anchor="start" x="303" y="-241.2" font-family="Helvetica,sans-Serif" font-size="11.00">created</text>
<polygon fill="none" stroke="black" points="466,-233 466,-255 549,-255 549,-233 466,-233"/>
<text text-anchor="start" x="469" y="-241.2" font-family="Helvetica,sans-Serif" font-size="11.00">timestamp[29,6]</text>
<polygon fill="none" stroke="black" points="283,-211 283,-233 466,-233 466,-211 283,-211"/>
<text text-anchor="start" x="303" y="-219.2" font-family="Helvetica,sans-Serif" font-size="11.00">createdby</text>
<polygon fill="none" stroke="black" points="466,-211 466,-233 549,-233 549,-211 466,-211"/>
<text text-anchor="start" x="469" y="-219.2" font-family="Helvetica,sans-Serif" font-size="11.00">numeric[10]</text>
<polygon fill="none" stroke="black" points="283,-189 283,-211 466,-211 466,-189 283,-189"/>
<text text-anchor="start" x="303" y="-197.2" font-family="Helvetica,sans-Serif" font-size="11.00">updated</text>
<polygon fill="none" stroke="black" points="466,-189 466,-211 549,-211 549,-189 466,-189"/>
<text text-anchor="start" x="469" y="-197.2" font-family="Helvetica,sans-Serif" font-size="11.00">timestamp[29,6]</text>
<polygon fill="none" stroke="black" points="283,-167 283,-189 466,-189 466,-167 283,-167"/>
<text text-anchor="start" x="303" y="-175.2" font-family="Helvetica,sans-Serif" font-size="11.00">updatedby</text>
<polygon fill="none" stroke="black" points="466,-167 466,-189 549,-189 549,-167 466,-167"/>
<text text-anchor="start" x="469" y="-175.2" font-family="Helvetica,sans-Serif" font-size="11.00">numeric[10]</text>
<polygon fill="none" stroke="black" points="283,-145 283,-167 466,-167 466,-145 283,-145"/>
<text text-anchor="start" x="303" y="-153.2" font-family="Helvetica,sans-Serif" font-size="11.00">name</text>
<polygon fill="none" stroke="black" points="466,-145 466,-167 549,-167 549,-145 466,-145"/>
<text text-anchor="start" x="469" y="-153.2" font-family="Helvetica,sans-Serif" font-size="11.00">varchar[120]</text>
<polygon fill="none" stroke="black" points="283,-123 283,-145 466,-145 466,-123 283,-123"/>
<text text-anchor="start" x="303" y="-131.2" font-family="Helvetica,sans-Serif" font-size="11.00">description</text>
<polygon fill="none" stroke="black" points="466,-123 466,-145 549,-145 549,-123 466,-123"/>
<text text-anchor="start" x="469" y="-131.2" font-family="Helvetica,sans-Serif" font-size="11.00">varchar[255]</text>
<polygon fill="none" stroke="black" points="283,-101 283,-123 466,-123 466,-101 283,-101"/>
<text text-anchor="start" x="303" y="-109.2" font-family="Helvetica,sans-Serif" font-size="11.00">istranslated</text>
<polygon fill="none" stroke="black" points="466,-101 466,-123 549,-123 549,-101 466,-101"/>
<text text-anchor="start" x="469" y="-109.2" font-family="Helvetica,sans-Serif" font-size="11.00">bpchar[1]</text>
<polygon fill="#ffffff" stroke="transparent" points="283,-79 283,-101 466,-101 466,-79 283,-79"/>
<polygon fill="none" stroke="black" points="283,-79 283,-101 466,-101 466,-79 283,-79"/>
<text text-anchor="start" x="303" y="-87.2" font-family="Helvetica,sans-Serif" font-size="11.00">c_elementvalue_trl_uu</text>
<polygon fill="none" stroke="black" points="466,-79 466,-101 549,-101 549,-79 466,-79"/>
<text text-anchor="start" x="469" y="-87.2" font-family="Helvetica,sans-Serif" font-size="11.00">varchar[36]</text>
<polygon fill="#ffffff" stroke="transparent" points="283,-61 283,-79 549,-79 549,-61 283,-61"/>
<polygon fill="none" stroke="black" points="283,-61 283,-79 549,-79 549,-61 283,-61"/>
<polygon fill="#ffffff" stroke="transparent" points="284,-62 284,-78 360,-78 360,-62 284,-62"/>
<text text-anchor="start" x="286" y="-67.2" font-family="Helvetica,sans-Serif" font-size="11.00">&lt; 2</text>
<polygon fill="#ffffff" stroke="transparent" points="360,-62 360,-78 473,-78 473,-62 360,-62"/>
<text text-anchor="start" x="389.5" y="-67.2" font-family="Helvetica,sans-Serif" font-size="11.00">3.670 rows</text>
<polygon fill="#ffffff" stroke="transparent" points="473,-62 473,-78 548,-78 548,-62 473,-62"/>
<text text-anchor="start" x="530" y="-67.2" font-family="Helvetica,sans-Serif" font-size="11.00">0 &gt;</text>
<polygon fill="black" stroke="black" points="360,-62 360,-78 360,-78 360,-62 360,-62"/>
<polygon fill="black" stroke="black" points="473,-62 473,-78 473,-78 473,-62 473,-62"/>
<polygon fill="none" stroke="black" stroke-width="2" points="282,-60 282,-388 550,-388 550,-60 282,-60"/>
</a>
</g>
</g>
<!-- ad_language -->
<g id="node2" class="node">
<title>ad_language</title>
<g id="a_node2"><a xlink:href="../../tables/ad_language.html" xlink:title="ad_language" target="_top">
<polygon fill="#ffffff" stroke="transparent" points="43.5,-37 43.5,-227 196.5,-227 196.5,-37 43.5,-37"/>
<polygon fill="#f5f5f5" stroke="transparent" points="44,-205 44,-227 197,-227 197,-205 44,-205"/>
<polygon fill="none" stroke="black" points="44,-205 44,-227 197,-227 197,-205 44,-205"/>
<text text-anchor="start" x="49" y="-214.2" font-family="Helvetica,sans-Serif" font-weight="bold" font-size="11.00">ad_language</text>
<text text-anchor="start" x="162" y="-213.2" font-family="Helvetica,sans-Serif" font-size="11.00">[table]</text>
<polygon fill="none" stroke="black" points="44,-183 44,-205 197,-205 197,-183 44,-183"/>
<image xlink:href="../../images/primaryKeys.png" width="11px" height="12px" preserveAspectRatio="xMinYMin meet" x="49" y="-200"/>
<text text-anchor="start" x="64" y="-191.2" font-family="Helvetica,sans-Serif" font-size="11.00">ad_language</text>
<polygon fill="none" stroke="black" points="44,-161 44,-183 197,-183 197,-161 44,-161"/>
<image xlink:href="../../images/foreignKeys.png" width="11px" height="12px" preserveAspectRatio="xMinYMin meet" x="49" y="-178"/>
<text text-anchor="start" x="64" y="-169.2" font-family="Helvetica,sans-Serif" font-size="11.00">ad_client_id</text>
<polygon fill="none" stroke="black" points="44,-139 44,-161 197,-161 197,-139 44,-139"/>
<image xlink:href="../../images/foreignKeys.png" width="11px" height="12px" preserveAspectRatio="xMinYMin meet" x="49" y="-156"/>
<text text-anchor="start" x="64" y="-147.2" font-family="Helvetica,sans-Serif" font-size="11.00">ad_org_id</text>
<polygon fill="#ffffff" stroke="transparent" points="44,-117 44,-139 197,-139 197,-117 44,-117"/>
<polygon fill="none" stroke="black" points="44,-117 44,-139 197,-139 197,-117 44,-117"/>
<text text-anchor="start" x="64" y="-125.2" font-family="Helvetica,sans-Serif" font-size="11.00">ad_language_id</text>
<polygon fill="#ffffff" stroke="transparent" points="44,-95 44,-117 197,-117 197,-95 44,-95"/>
<polygon fill="none" stroke="black" points="44,-95 44,-117 197,-117 197,-95 44,-95"/>
<text text-anchor="start" x="64" y="-103.2" font-family="Helvetica,sans-Serif" font-size="11.00">ad_language_uu</text>
<polygon fill="none" stroke="black" points="44,-73 44,-95 197,-95 197,-73 44,-73"/>
<image xlink:href="../../images/foreignKeys.png" width="11px" height="12px" preserveAspectRatio="xMinYMin meet" x="49" y="-90"/>
<text text-anchor="start" x="64" y="-81.2" font-family="Helvetica,sans-Serif" font-size="11.00">ad_printpaper_id</text>
<polygon fill="none" stroke="black" points="44,-55 44,-73 197,-73 197,-55 44,-55"/>
<text text-anchor="start" x="47" y="-61.2" font-family="Helvetica,sans-Serif" font-size="11.00">...</text>
<polygon fill="#ffffff" stroke="transparent" points="44,-37 44,-55 197,-55 197,-37 44,-37"/>
<polygon fill="none" stroke="black" points="44,-37 44,-55 197,-55 197,-37 44,-37"/>
<polygon fill="#ffffff" stroke="transparent" points="45,-38 45,-54 84,-54 84,-38 45,-38"/>
<text text-anchor="start" x="47" y="-43.2" font-family="Helvetica,sans-Serif" font-size="11.00">&lt; 3</text>
<polygon fill="#ffffff" stroke="transparent" points="84,-38 84,-54 152,-54 152,-38 84,-38"/>
<text text-anchor="start" x="95.5" y="-43.2" font-family="Helvetica,sans-Serif" font-size="11.00">109 rows</text>
<polygon fill="#ffffff" stroke="transparent" points="152,-38 152,-54 196,-54 196,-38 152,-38"/>
<text text-anchor="start" x="172" y="-43.2" font-family="Helvetica,sans-Serif" font-size="11.00">88 &gt;</text>
<polygon fill="black" stroke="black" points="84,-38 84,-54 84,-54 84,-38 84,-38"/>
<polygon fill="black" stroke="black" points="152,-38 152,-54 152,-54 152,-38 152,-38"/>
</a>
</g>
</g>
<!-- c_elementvalue_trl&#45;&gt;ad_language -->
<g id="edge1" class="edge">
<title>c_elementvalue_trl:w&#45;&gt;ad_language:e</title>
<path fill="none" stroke="black" d="M267.66,-329.33C242.65,-317.67 262.54,-270.3 240,-237 225.03,-214.88 224.71,-194 198,-194"/>
<polygon fill="black" stroke="black" points="274.14,-330.54 281.34,-335.54 278.07,-331.27 282,-332 282,-332 282,-332 278.07,-331.27 282.66,-328.46 274.14,-330.54 274.14,-330.54"/>
<ellipse fill="none" stroke="black" cx="270.99" cy="-329.95" rx="3.2" ry="3.2"/>
</g>
<!-- c_elementvalue -->
<g id="node3" class="node">
<title>c_elementvalue</title>
<g id="a_node3"><a xlink:href="../../tables/c_elementvalue.html" xlink:title="c_elementvalue" target="_top">
<polygon fill="#ffffff" stroke="transparent" points="8,-248 8,-526 232,-526 232,-248 8,-248"/>
<polygon fill="#f5f5f5" stroke="transparent" points="8,-504 8,-526 232,-526 232,-504 8,-504"/>
<polygon fill="none" stroke="black" points="8,-504 8,-526 232,-526 232,-504 8,-504"/>
<text text-anchor="start" x="13" y="-513.2" font-family="Helvetica,sans-Serif" font-weight="bold" font-size="11.00">c_elementvalue</text>
<text text-anchor="start" x="197" y="-512.2" font-family="Helvetica,sans-Serif" font-size="11.00">[table]</text>
<polygon fill="none" stroke="black" points="8,-482 8,-504 232,-504 232,-482 8,-482"/>
<image xlink:href="../../images/primaryKeys.png" width="11px" height="12px" preserveAspectRatio="xMinYMin meet" x="13" y="-499"/>
<text text-anchor="start" x="28" y="-490.2" font-family="Helvetica,sans-Serif" font-size="11.00">c_elementvalue_id</text>
<polygon fill="none" stroke="black" points="8,-460 8,-482 232,-482 232,-460 8,-460"/>
<image xlink:href="../../images/foreignKeys.png" width="11px" height="12px" preserveAspectRatio="xMinYMin meet" x="13" y="-477"/>
<text text-anchor="start" x="28" y="-468.2" font-family="Helvetica,sans-Serif" font-size="11.00">ad_client_id</text>
<polygon fill="none" stroke="black" points="8,-438 8,-460 232,-460 232,-438 8,-438"/>
<image xlink:href="../../images/foreignKeys.png" width="11px" height="12px" preserveAspectRatio="xMinYMin meet" x="13" y="-455"/>
<text text-anchor="start" x="28" y="-446.2" font-family="Helvetica,sans-Serif" font-size="11.00">ad_org_id</text>
<polygon fill="#ffffff" stroke="transparent" points="8,-416 8,-438 232,-438 232,-416 8,-416"/>
<polygon fill="none" stroke="black" points="8,-416 8,-438 232,-438 232,-416 8,-416"/>
<text text-anchor="start" x="28" y="-424.2" font-family="Helvetica,sans-Serif" font-size="11.00">value</text>
<polygon fill="#ffffff" stroke="transparent" points="8,-394 8,-416 232,-416 232,-394 8,-394"/>
<polygon fill="none" stroke="black" points="8,-394 8,-416 232,-416 232,-394 8,-394"/>
<text text-anchor="start" x="28" y="-402.2" font-family="Helvetica,sans-Serif" font-size="11.00">name</text>
<polygon fill="#ffffff" stroke="transparent" points="8,-372 8,-394 232,-394 232,-372 8,-372"/>
<polygon fill="none" stroke="black" points="8,-372 8,-394 232,-394 232,-372 8,-372"/>
<image xlink:href="../../images/foreignKeys.png" width="11px" height="12px" preserveAspectRatio="xMinYMin meet" x="13" y="-389"/>
<text text-anchor="start" x="28" y="-380.2" font-family="Helvetica,sans-Serif" font-size="11.00">c_element_id</text>
<polygon fill="none" stroke="black" points="8,-350 8,-372 232,-372 232,-350 8,-350"/>
<image xlink:href="../../images/foreignKeys.png" width="11px" height="12px" preserveAspectRatio="xMinYMin meet" x="13" y="-367"/>
<text text-anchor="start" x="28" y="-358.2" font-family="Helvetica,sans-Serif" font-size="11.00">c_bankaccount_id</text>
<polygon fill="none" stroke="black" points="8,-328 8,-350 232,-350 232,-328 8,-328"/>
<image xlink:href="../../images/foreignKeys.png" width="11px" height="12px" preserveAspectRatio="xMinYMin meet" x="13" y="-345"/>
<text text-anchor="start" x="28" y="-336.2" font-family="Helvetica,sans-Serif" font-size="11.00">c_currency_id</text>
<polygon fill="#ffffff" stroke="transparent" points="8,-306 8,-328 232,-328 232,-306 8,-306"/>
<polygon fill="none" stroke="black" points="8,-306 8,-328 232,-328 232,-306 8,-306"/>
<text text-anchor="start" x="28" y="-314.2" font-family="Helvetica,sans-Serif" font-size="11.00">c_elementvalue_uu</text>
<polygon fill="none" stroke="black" points="8,-284 8,-306 232,-306 232,-284 8,-284"/>
<image xlink:href="../../images/foreignKeys.png" width="11px" height="12px" preserveAspectRatio="xMinYMin meet" x="13" y="-301"/>
<text text-anchor="start" x="28" y="-292.2" font-family="Helvetica,sans-Serif" font-size="11.00">cof_codagl_id</text>
<polygon fill="none" stroke="black" points="8,-266 8,-284 232,-284 232,-266 8,-266"/>
<text text-anchor="start" x="11" y="-272.2" font-family="Helvetica,sans-Serif" font-size="11.00">...</text>
<polygon fill="#ffffff" stroke="transparent" points="8,-248 8,-266 232,-266 232,-248 8,-248"/>
<polygon fill="none" stroke="black" points="8,-248 8,-266 232,-266 232,-248 8,-248"/>
<polygon fill="#ffffff" stroke="transparent" points="9,-249 9,-265 67,-265 67,-249 9,-249"/>
<text text-anchor="start" x="11" y="-254.2" font-family="Helvetica,sans-Serif" font-size="11.00">&lt; 6</text>
<polygon fill="#ffffff" stroke="transparent" points="67,-249 67,-265 162,-265 162,-249 67,-249"/>
<text text-anchor="start" x="87.5" y="-254.2" font-family="Helvetica,sans-Serif" font-size="11.00">1.835 rows</text>
<polygon fill="#ffffff" stroke="transparent" points="162,-249 162,-265 231,-265 231,-249 162,-249"/>
<text text-anchor="start" x="201" y="-254.2" font-family="Helvetica,sans-Serif" font-size="11.00">120 &gt;</text>
<polygon fill="black" stroke="black" points="67,-249 67,-265 67,-265 67,-249 67,-249"/>
<polygon fill="black" stroke="black" points="162,-249 162,-265 162,-265 162,-249 162,-249"/>
</a>
</g>
</g>
<!-- c_elementvalue_trl&#45;&gt;c_elementvalue -->
<g id="edge2" class="edge">
<title>c_elementvalue_trl:w&#45;&gt;c_elementvalue:e</title>
<path fill="none" stroke="black" d="M267.7,-357.16C230.04,-377.85 292.62,-493 233,-493"/>
<polygon fill="black" stroke="black" points="274.19,-355.73 282.78,-357.51 278.09,-354.86 282,-354 282,-354 282,-354 278.09,-354.86 281.22,-350.49 274.19,-355.73 274.19,-355.73"/>
<ellipse fill="none" stroke="black" cx="271.06" cy="-356.42" rx="3.2" ry="3.2"/>
</g>
</g>
</svg>
