<?xml version="1.0" encoding="UTF-8" standalone="no"?>
<!DOCTYPE svg PUBLIC "-//W3C//DTD SVG 1.1//EN"
 "http://www.w3.org/Graphics/SVG/1.1/DTD/svg11.dtd">
<!-- Generated by graphviz version 2.43.0 (0)
 -->
<!-- Title: oneDegreeRelationshipsDiagram Pages: 1 -->
<svg width="777pt" height="636pt"
 viewBox="0.00 0.00 777.00 636.00" xmlns="http://www.w3.org/2000/svg" xmlns:xlink="http://www.w3.org/1999/xlink">
<g id="graph0" class="graph" transform="scale(1 1) rotate(0) translate(4 632)">
<title>oneDegreeRelationshipsDiagram</title>
<polygon fill="#ffffff" stroke="transparent" points="-4,4 -4,-632 773,-632 773,4 -4,4"/>
<text text-anchor="middle" x="71.5" y="-7.2" font-family="Helvetica,sans-Serif" font-size="11.00">Generated by SchemaSpy</text>
<!-- c_invoicepayschedule -->
<g id="node1" class="node">
<title>c_invoicepayschedule</title>
<g id="a_node1"><a xlink:href="../../tables/c_invoicepayschedule.html" xlink:title="c_invoicepayschedule" target="_top">
<polygon fill="#ffffff" stroke="transparent" points="546,-390 546,-624 750,-624 750,-390 546,-390"/>
<polygon fill="#f5f5f5" stroke="transparent" points="546,-602 546,-624 750,-624 750,-602 546,-602"/>
<polygon fill="none" stroke="black" points="546,-602 546,-624 750,-624 750,-602 546,-602"/>
<text text-anchor="start" x="551" y="-611.2" font-family="Helvetica,sans-Serif" font-weight="bold" font-size="11.00">c_invoicepayschedule</text>
<text text-anchor="start" x="715" y="-610.2" font-family="Helvetica,sans-Serif" font-size="11.00">[table]</text>
<polygon fill="none" stroke="black" points="546,-580 546,-602 750,-602 750,-580 546,-580"/>
<image xlink:href="../../images/primaryKeys.png" width="11px" height="12px" preserveAspectRatio="xMinYMin meet" x="551" y="-597"/>
<text text-anchor="start" x="566" y="-588.2" font-family="Helvetica,sans-Serif" font-size="11.00">c_invoicepayschedule_id</text>
<polygon fill="#ffffff" stroke="transparent" points="546,-558 546,-580 750,-580 750,-558 546,-558"/>
<polygon fill="none" stroke="black" points="546,-558 546,-580 750,-580 750,-558 546,-558"/>
<image xlink:href="../../images/foreignKeys.png" width="11px" height="12px" preserveAspectRatio="xMinYMin meet" x="551" y="-575"/>
<text text-anchor="start" x="566" y="-566.2" font-family="Helvetica,sans-Serif" font-size="11.00">c_invoice_id</text>
<polygon fill="none" stroke="black" points="546,-536 546,-558 750,-558 750,-536 546,-536"/>
<image xlink:href="../../images/foreignKeys.png" width="11px" height="12px" preserveAspectRatio="xMinYMin meet" x="551" y="-553"/>
<text text-anchor="start" x="566" y="-544.2" font-family="Helvetica,sans-Serif" font-size="11.00">c_payschedule_id</text>
<polygon fill="#ffffff" stroke="transparent" points="546,-514 546,-536 750,-536 750,-514 546,-514"/>
<polygon fill="none" stroke="black" points="546,-514 546,-536 750,-536 750,-514 546,-514"/>
<text text-anchor="start" x="566" y="-522.2" font-family="Helvetica,sans-Serif" font-size="11.00">c_invoicepayschedule_uu</text>
<polygon fill="none" stroke="black" points="546,-492 546,-514 750,-514 750,-492 546,-492"/>
<image xlink:href="../../images/foreignKeys.png" width="11px" height="12px" preserveAspectRatio="xMinYMin meet" x="551" y="-509"/>
<text text-anchor="start" x="566" y="-500.2" font-family="Helvetica,sans-Serif" font-size="11.00">cof_c_custody_id</text>
<polygon fill="none" stroke="black" points="546,-470 546,-492 750,-492 750,-470 546,-470"/>
<image xlink:href="../../images/foreignKeys.png" width="11px" height="12px" preserveAspectRatio="xMinYMin meet" x="551" y="-487"/>
<text text-anchor="start" x="566" y="-478.2" font-family="Helvetica,sans-Serif" font-size="11.00">cof_c_cardnetwork_id</text>
<polygon fill="#ffffff" stroke="transparent" points="546,-448 546,-470 750,-470 750,-448 546,-448"/>
<polygon fill="none" stroke="black" points="546,-448 546,-470 750,-470 750,-448 546,-448"/>
<image xlink:href="../../images/foreignKeys.png" width="11px" height="12px" preserveAspectRatio="xMinYMin meet" x="551" y="-465"/>
<text text-anchor="start" x="566" y="-456.2" font-family="Helvetica,sans-Serif" font-size="11.00">cof_invoice_substituta_id</text>
<polygon fill="none" stroke="black" points="546,-426 546,-448 750,-448 750,-426 546,-426"/>
<image xlink:href="../../images/foreignKeys.png" width="11px" height="12px" preserveAspectRatio="xMinYMin meet" x="551" y="-443"/>
<text text-anchor="start" x="566" y="-434.2" font-family="Helvetica,sans-Serif" font-size="11.00">pag_ufpag_id</text>
<polygon fill="none" stroke="black" points="546,-408 546,-426 750,-426 750,-408 546,-408"/>
<text text-anchor="start" x="549" y="-414.2" font-family="Helvetica,sans-Serif" font-size="11.00">...</text>
<polygon fill="#ffffff" stroke="transparent" points="546,-390 546,-408 750,-408 750,-390 546,-390"/>
<polygon fill="none" stroke="black" points="546,-390 546,-408 750,-408 750,-390 546,-390"/>
<polygon fill="#ffffff" stroke="transparent" points="547,-391 547,-407 618,-407 618,-391 547,-391"/>
<text text-anchor="start" x="549" y="-396.2" font-family="Helvetica,sans-Serif" font-size="11.00">&lt; 6</text>
<polygon fill="#ffffff" stroke="transparent" points="618,-391 618,-407 679,-407 679,-391 618,-391"/>
<text text-anchor="start" x="645" y="-396.2" font-family="Helvetica,sans-Serif" font-size="11.00"> &#160;</text>
<polygon fill="#ffffff" stroke="transparent" points="679,-391 679,-407 749,-407 749,-391 679,-391"/>
<text text-anchor="start" x="731" y="-396.2" font-family="Helvetica,sans-Serif" font-size="11.00">8 &gt;</text>
<polygon fill="black" stroke="black" points="618,-391 618,-407 618,-407 618,-391 618,-391"/>
<polygon fill="black" stroke="black" points="679,-391 679,-407 679,-407 679,-391 679,-391"/>
</a>
</g>
</g>
<!-- c_payschedule -->
<g id="node2" class="node">
<title>c_payschedule</title>
<g id="a_node2"><a xlink:href="../../tables/c_payschedule.html" xlink:title="c_payschedule" target="_top">
<polygon fill="#ffffff" stroke="transparent" points="245,-37 245,-455 486,-455 486,-37 245,-37"/>
<polygon fill="#f5f5f5" stroke="transparent" points="247.5,-431 247.5,-453 484.5,-453 484.5,-431 247.5,-431"/>
<polygon fill="none" stroke="black" points="247.5,-431 247.5,-453 484.5,-453 484.5,-431 247.5,-431"/>
<text text-anchor="start" x="252.5" y="-440.2" font-family="Helvetica,sans-Serif" font-weight="bold" font-size="11.00">c_payschedule</text>
<text text-anchor="start" x="449.5" y="-439.2" font-family="Helvetica,sans-Serif" font-size="11.00">[table]</text>
<polygon fill="none" stroke="black" points="247.5,-409 247.5,-431 401.5,-431 401.5,-409 247.5,-409"/>
<image xlink:href="../../images/primaryKeys.png" width="11px" height="12px" preserveAspectRatio="xMinYMin meet" x="252.5" y="-426"/>
<text text-anchor="start" x="267.5" y="-417.2" font-family="Helvetica,sans-Serif" font-size="11.00">c_payschedule_id</text>
<polygon fill="none" stroke="black" points="401.5,-409 401.5,-431 484.5,-431 484.5,-409 401.5,-409"/>
<text text-anchor="start" x="404.5" y="-417.2" font-family="Helvetica,sans-Serif" font-size="11.00">numeric[10]</text>
<polygon fill="none" stroke="black" points="247.5,-387 247.5,-409 401.5,-409 401.5,-387 247.5,-387"/>
<text text-anchor="start" x="267.5" y="-395.2" font-family="Helvetica,sans-Serif" font-size="11.00">ad_client_id</text>
<polygon fill="none" stroke="black" points="401.5,-387 401.5,-409 484.5,-409 484.5,-387 401.5,-387"/>
<text text-anchor="start" x="404.5" y="-395.2" font-family="Helvetica,sans-Serif" font-size="11.00">numeric[10]</text>
<polygon fill="none" stroke="black" points="247.5,-365 247.5,-387 401.5,-387 401.5,-365 247.5,-365"/>
<text text-anchor="start" x="267.5" y="-373.2" font-family="Helvetica,sans-Serif" font-size="11.00">ad_org_id</text>
<polygon fill="none" stroke="black" points="401.5,-365 401.5,-387 484.5,-387 484.5,-365 401.5,-365"/>
<text text-anchor="start" x="404.5" y="-373.2" font-family="Helvetica,sans-Serif" font-size="11.00">numeric[10]</text>
<polygon fill="none" stroke="black" points="247.5,-343 247.5,-365 401.5,-365 401.5,-343 247.5,-343"/>
<text text-anchor="start" x="267.5" y="-351.2" font-family="Helvetica,sans-Serif" font-size="11.00">isactive</text>
<polygon fill="none" stroke="black" points="401.5,-343 401.5,-365 484.5,-365 484.5,-343 401.5,-343"/>
<text text-anchor="start" x="404.5" y="-351.2" font-family="Helvetica,sans-Serif" font-size="11.00">bpchar[1]</text>
<polygon fill="none" stroke="black" points="247.5,-321 247.5,-343 401.5,-343 401.5,-321 247.5,-321"/>
<text text-anchor="start" x="267.5" y="-329.2" font-family="Helvetica,sans-Serif" font-size="11.00">created</text>
<polygon fill="none" stroke="black" points="401.5,-321 401.5,-343 484.5,-343 484.5,-321 401.5,-321"/>
<text text-anchor="start" x="404.5" y="-329.2" font-family="Helvetica,sans-Serif" font-size="11.00">timestamp[29,6]</text>
<polygon fill="none" stroke="black" points="247.5,-299 247.5,-321 401.5,-321 401.5,-299 247.5,-299"/>
<text text-anchor="start" x="267.5" y="-307.2" font-family="Helvetica,sans-Serif" font-size="11.00">createdby</text>
<polygon fill="none" stroke="black" points="401.5,-299 401.5,-321 484.5,-321 484.5,-299 401.5,-299"/>
<text text-anchor="start" x="404.5" y="-307.2" font-family="Helvetica,sans-Serif" font-size="11.00">numeric[10]</text>
<polygon fill="none" stroke="black" points="247.5,-277 247.5,-299 401.5,-299 401.5,-277 247.5,-277"/>
<text text-anchor="start" x="267.5" y="-285.2" font-family="Helvetica,sans-Serif" font-size="11.00">updated</text>
<polygon fill="none" stroke="black" points="401.5,-277 401.5,-299 484.5,-299 484.5,-277 401.5,-277"/>
<text text-anchor="start" x="404.5" y="-285.2" font-family="Helvetica,sans-Serif" font-size="11.00">timestamp[29,6]</text>
<polygon fill="none" stroke="black" points="247.5,-255 247.5,-277 401.5,-277 401.5,-255 247.5,-255"/>
<text text-anchor="start" x="267.5" y="-263.2" font-family="Helvetica,sans-Serif" font-size="11.00">updatedby</text>
<polygon fill="none" stroke="black" points="401.5,-255 401.5,-277 484.5,-277 484.5,-255 401.5,-255"/>
<text text-anchor="start" x="404.5" y="-263.2" font-family="Helvetica,sans-Serif" font-size="11.00">numeric[10]</text>
<polygon fill="none" stroke="black" points="247.5,-233 247.5,-255 401.5,-255 401.5,-233 247.5,-233"/>
<image xlink:href="../../images/foreignKeys.png" width="11px" height="12px" preserveAspectRatio="xMinYMin meet" x="252.5" y="-250"/>
<text text-anchor="start" x="267.5" y="-241.2" font-family="Helvetica,sans-Serif" font-size="11.00">c_paymentterm_id</text>
<polygon fill="none" stroke="black" points="401.5,-233 401.5,-255 484.5,-255 484.5,-233 401.5,-233"/>
<text text-anchor="start" x="404.5" y="-241.2" font-family="Helvetica,sans-Serif" font-size="11.00">numeric[10]</text>
<polygon fill="none" stroke="black" points="247.5,-211 247.5,-233 401.5,-233 401.5,-211 247.5,-211"/>
<text text-anchor="start" x="267.5" y="-219.2" font-family="Helvetica,sans-Serif" font-size="11.00">percentage</text>
<polygon fill="none" stroke="black" points="401.5,-211 401.5,-233 484.5,-233 484.5,-211 401.5,-211"/>
<text text-anchor="start" x="404.5" y="-219.2" font-family="Helvetica,sans-Serif" font-size="11.00">numeric[0]</text>
<polygon fill="none" stroke="black" points="247.5,-189 247.5,-211 401.5,-211 401.5,-189 247.5,-189"/>
<text text-anchor="start" x="267.5" y="-197.2" font-family="Helvetica,sans-Serif" font-size="11.00">netdays</text>
<polygon fill="none" stroke="black" points="401.5,-189 401.5,-211 484.5,-211 484.5,-189 401.5,-189"/>
<text text-anchor="start" x="404.5" y="-197.2" font-family="Helvetica,sans-Serif" font-size="11.00">numeric[10]</text>
<polygon fill="none" stroke="black" points="247.5,-167 247.5,-189 401.5,-189 401.5,-167 247.5,-167"/>
<text text-anchor="start" x="267.5" y="-175.2" font-family="Helvetica,sans-Serif" font-size="11.00">netday</text>
<polygon fill="none" stroke="black" points="401.5,-167 401.5,-189 484.5,-189 484.5,-167 401.5,-167"/>
<text text-anchor="start" x="404.5" y="-175.2" font-family="Helvetica,sans-Serif" font-size="11.00">bpchar[1]</text>
<polygon fill="none" stroke="black" points="247.5,-145 247.5,-167 401.5,-167 401.5,-145 247.5,-145"/>
<text text-anchor="start" x="267.5" y="-153.2" font-family="Helvetica,sans-Serif" font-size="11.00">discountdays</text>
<polygon fill="none" stroke="black" points="401.5,-145 401.5,-167 484.5,-167 484.5,-145 401.5,-145"/>
<text text-anchor="start" x="404.5" y="-153.2" font-family="Helvetica,sans-Serif" font-size="11.00">numeric[10]</text>
<polygon fill="none" stroke="black" points="247.5,-123 247.5,-145 401.5,-145 401.5,-123 247.5,-123"/>
<text text-anchor="start" x="267.5" y="-131.2" font-family="Helvetica,sans-Serif" font-size="11.00">discount</text>
<polygon fill="none" stroke="black" points="401.5,-123 401.5,-145 484.5,-145 484.5,-123 401.5,-123"/>
<text text-anchor="start" x="404.5" y="-131.2" font-family="Helvetica,sans-Serif" font-size="11.00">numeric[0]</text>
<polygon fill="none" stroke="black" points="247.5,-101 247.5,-123 401.5,-123 401.5,-101 247.5,-101"/>
<text text-anchor="start" x="267.5" y="-109.2" font-family="Helvetica,sans-Serif" font-size="11.00">isvalid</text>
<polygon fill="none" stroke="black" points="401.5,-101 401.5,-123 484.5,-123 484.5,-101 401.5,-101"/>
<text text-anchor="start" x="404.5" y="-109.2" font-family="Helvetica,sans-Serif" font-size="11.00">bpchar[1]</text>
<polygon fill="none" stroke="black" points="247.5,-79 247.5,-101 401.5,-101 401.5,-79 247.5,-79"/>
<text text-anchor="start" x="267.5" y="-87.2" font-family="Helvetica,sans-Serif" font-size="11.00">gracedays</text>
<polygon fill="none" stroke="black" points="401.5,-79 401.5,-101 484.5,-101 484.5,-79 401.5,-79"/>
<text text-anchor="start" x="404.5" y="-87.2" font-family="Helvetica,sans-Serif" font-size="11.00">numeric[10]</text>
<polygon fill="#ffffff" stroke="transparent" points="247.5,-57 247.5,-79 401.5,-79 401.5,-57 247.5,-57"/>
<polygon fill="none" stroke="black" points="247.5,-57 247.5,-79 401.5,-79 401.5,-57 247.5,-57"/>
<text text-anchor="start" x="267.5" y="-65.2" font-family="Helvetica,sans-Serif" font-size="11.00">c_payschedule_uu</text>
<polygon fill="none" stroke="black" points="401.5,-57 401.5,-79 484.5,-79 484.5,-57 401.5,-57"/>
<text text-anchor="start" x="404.5" y="-65.2" font-family="Helvetica,sans-Serif" font-size="11.00">varchar[36]</text>
<polygon fill="#ffffff" stroke="transparent" points="247.5,-39 247.5,-57 484.5,-57 484.5,-39 247.5,-39"/>
<polygon fill="none" stroke="black" points="247.5,-39 247.5,-57 484.5,-57 484.5,-39 247.5,-39"/>
<polygon fill="#ffffff" stroke="transparent" points="248.5,-40 248.5,-56 319.5,-56 319.5,-40 248.5,-40"/>
<text text-anchor="start" x="250.5" y="-45.2" font-family="Helvetica,sans-Serif" font-size="11.00">&lt; 1</text>
<polygon fill="#ffffff" stroke="transparent" points="319.5,-40 319.5,-56 413.5,-56 413.5,-40 319.5,-40"/>
<text text-anchor="start" x="347" y="-45.2" font-family="Helvetica,sans-Serif" font-size="11.00">16 rows</text>
<polygon fill="#ffffff" stroke="transparent" points="413.5,-40 413.5,-56 483.5,-56 483.5,-40 413.5,-40"/>
<text text-anchor="start" x="465.5" y="-45.2" font-family="Helvetica,sans-Serif" font-size="11.00">2 &gt;</text>
<polygon fill="black" stroke="black" points="319.5,-40 319.5,-56 319.5,-56 319.5,-40 319.5,-40"/>
<polygon fill="black" stroke="black" points="413.5,-40 413.5,-56 413.5,-56 413.5,-40 413.5,-40"/>
<polygon fill="none" stroke="black" stroke-width="2" points="246,-38 246,-454 485,-454 485,-38 246,-38"/>
</a>
</g>
</g>
<!-- c_invoicepayschedule&#45;&gt;c_payschedule -->
<g id="edge1" class="edge">
<title>c_invoicepayschedule:w&#45;&gt;c_payschedule:e</title>
<path fill="none" stroke="black" d="M530.62,-543.86C493.77,-524.3 541.99,-420 485.5,-420"/>
<polygon fill="black" stroke="black" points="537.18,-545.29 544.23,-550.52 541.09,-546.15 545,-547 545,-547 545,-547 541.09,-546.15 545.77,-543.48 537.18,-545.29 537.18,-545.29"/>
<ellipse fill="none" stroke="black" cx="534.06" cy="-544.61" rx="3.2" ry="3.2"/>
</g>
<!-- c_paymentterm -->
<g id="node4" class="node">
<title>c_paymentterm</title>
<g id="a_node4"><a xlink:href="../../tables/c_paymentterm.html" xlink:title="c_paymentterm" target="_top">
<polygon fill="#ffffff" stroke="transparent" points="8,-109 8,-277 196,-277 196,-109 8,-109"/>
<polygon fill="#f5f5f5" stroke="transparent" points="8,-255 8,-277 196,-277 196,-255 8,-255"/>
<polygon fill="none" stroke="black" points="8,-255 8,-277 196,-277 196,-255 8,-255"/>
<text text-anchor="start" x="13" y="-264.2" font-family="Helvetica,sans-Serif" font-weight="bold" font-size="11.00">c_paymentterm</text>
<text text-anchor="start" x="161" y="-263.2" font-family="Helvetica,sans-Serif" font-size="11.00">[table]</text>
<polygon fill="none" stroke="black" points="8,-233 8,-255 196,-255 196,-233 8,-233"/>
<image xlink:href="../../images/primaryKeys.png" width="11px" height="12px" preserveAspectRatio="xMinYMin meet" x="13" y="-250"/>
<text text-anchor="start" x="28" y="-241.2" font-family="Helvetica,sans-Serif" font-size="11.00">c_paymentterm_id</text>
<polygon fill="#ffffff" stroke="transparent" points="8,-211 8,-233 196,-233 196,-211 8,-211"/>
<polygon fill="none" stroke="black" points="8,-211 8,-233 196,-233 196,-211 8,-211"/>
<text text-anchor="start" x="28" y="-219.2" font-family="Helvetica,sans-Serif" font-size="11.00">ad_client_id</text>
<polygon fill="#ffffff" stroke="transparent" points="8,-189 8,-211 196,-211 196,-189 8,-189"/>
<polygon fill="none" stroke="black" points="8,-189 8,-211 196,-211 196,-189 8,-189"/>
<text text-anchor="start" x="28" y="-197.2" font-family="Helvetica,sans-Serif" font-size="11.00">name</text>
<polygon fill="#ffffff" stroke="transparent" points="8,-167 8,-189 196,-189 196,-167 8,-167"/>
<polygon fill="none" stroke="black" points="8,-167 8,-189 196,-189 196,-167 8,-167"/>
<text text-anchor="start" x="28" y="-175.2" font-family="Helvetica,sans-Serif" font-size="11.00">value</text>
<polygon fill="#ffffff" stroke="transparent" points="8,-145 8,-167 196,-167 196,-145 8,-145"/>
<polygon fill="none" stroke="black" points="8,-145 8,-167 196,-167 196,-145 8,-145"/>
<text text-anchor="start" x="28" y="-153.2" font-family="Helvetica,sans-Serif" font-size="11.00">c_paymentterm_uu</text>
<polygon fill="none" stroke="black" points="8,-127 8,-145 196,-145 196,-127 8,-127"/>
<text text-anchor="start" x="11" y="-133.2" font-family="Helvetica,sans-Serif" font-size="11.00">...</text>
<polygon fill="#ffffff" stroke="transparent" points="8,-109 8,-127 196,-127 196,-109 8,-109"/>
<polygon fill="none" stroke="black" points="8,-109 8,-127 196,-127 196,-109 8,-109"/>
<polygon fill="#ffffff" stroke="transparent" points="9,-110 9,-126 58,-126 58,-110 9,-110"/>
<text text-anchor="start" x="11" y="-115.2" font-family="Helvetica,sans-Serif" font-size="11.00"> &#160;</text>
<polygon fill="#ffffff" stroke="transparent" points="58,-110 58,-126 132,-126 132,-110 58,-110"/>
<text text-anchor="start" x="78.5" y="-115.2" font-family="Helvetica,sans-Serif" font-size="11.00">7 rows</text>
<polygon fill="#ffffff" stroke="transparent" points="132,-110 132,-126 195,-126 195,-110 132,-110"/>
<text text-anchor="start" x="171" y="-115.2" font-family="Helvetica,sans-Serif" font-size="11.00">20 &gt;</text>
<polygon fill="black" stroke="black" points="58,-110 58,-126 58,-126 58,-110 58,-110"/>
<polygon fill="black" stroke="black" points="132,-110 132,-126 132,-126 132,-110 132,-110"/>
</a>
</g>
</g>
<!-- c_payschedule&#45;&gt;c_paymentterm -->
<g id="edge3" class="edge">
<title>c_payschedule:w&#45;&gt;c_paymentterm:e</title>
<path fill="none" stroke="black" d="M231.84,-244C220.41,-244 213.16,-244 197,-244"/>
<polygon fill="black" stroke="black" points="238.5,-244 246.5,-247.6 242.5,-244 246.5,-244 246.5,-244 246.5,-244 242.5,-244 246.5,-240.4 238.5,-244 238.5,-244"/>
<ellipse fill="none" stroke="black" cx="235.3" cy="-244" rx="3.2" ry="3.2"/>
</g>
<!-- c_orderpayschedule -->
<g id="node3" class="node">
<title>c_orderpayschedule</title>
<g id="a_node3"><a xlink:href="../../tables/c_orderpayschedule.html" xlink:title="c_orderpayschedule" target="_top">
<polygon fill="#ffffff" stroke="transparent" points="535,-157 535,-369 761,-369 761,-157 535,-157"/>
<polygon fill="#f5f5f5" stroke="transparent" points="535,-347 535,-369 761,-369 761,-347 535,-347"/>
<polygon fill="none" stroke="black" points="535,-347 535,-369 761,-369 761,-347 535,-347"/>
<text text-anchor="start" x="540" y="-356.2" font-family="Helvetica,sans-Serif" font-weight="bold" font-size="11.00">c_orderpayschedule</text>
<text text-anchor="start" x="726" y="-355.2" font-family="Helvetica,sans-Serif" font-size="11.00">[table]</text>
<polygon fill="#ffffff" stroke="transparent" points="535,-325 535,-347 761,-347 761,-325 535,-325"/>
<polygon fill="none" stroke="black" points="535,-325 535,-347 761,-347 761,-325 535,-325"/>
<image xlink:href="../../images/foreignKeys.png" width="11px" height="12px" preserveAspectRatio="xMinYMin meet" x="540" y="-342"/>
<text text-anchor="start" x="555" y="-333.2" font-family="Helvetica,sans-Serif" font-size="11.00">c_order_id</text>
<polygon fill="none" stroke="black" points="535,-303 535,-325 761,-325 761,-303 535,-303"/>
<image xlink:href="../../images/primaryKeys.png" width="11px" height="12px" preserveAspectRatio="xMinYMin meet" x="540" y="-320"/>
<text text-anchor="start" x="555" y="-311.2" font-family="Helvetica,sans-Serif" font-size="11.00">c_orderpayschedule_id</text>
<polygon fill="none" stroke="black" points="535,-281 535,-303 761,-303 761,-281 535,-281"/>
<image xlink:href="../../images/foreignKeys.png" width="11px" height="12px" preserveAspectRatio="xMinYMin meet" x="540" y="-298"/>
<text text-anchor="start" x="555" y="-289.2" font-family="Helvetica,sans-Serif" font-size="11.00">c_payschedule_id</text>
<polygon fill="#ffffff" stroke="transparent" points="535,-259 535,-281 761,-281 761,-259 535,-259"/>
<polygon fill="none" stroke="black" points="535,-259 535,-281 761,-281 761,-259 535,-259"/>
<text text-anchor="start" x="555" y="-267.2" font-family="Helvetica,sans-Serif" font-size="11.00">c_orderpayschedule_uu</text>
<polygon fill="none" stroke="black" points="535,-237 535,-259 761,-259 761,-237 535,-237"/>
<image xlink:href="../../images/foreignKeys.png" width="11px" height="12px" preserveAspectRatio="xMinYMin meet" x="540" y="-254"/>
<text text-anchor="start" x="555" y="-245.2" font-family="Helvetica,sans-Serif" font-size="11.00">cof_c_custody_id</text>
<polygon fill="none" stroke="black" points="535,-215 535,-237 761,-237 761,-215 535,-215"/>
<image xlink:href="../../images/foreignKeys.png" width="11px" height="12px" preserveAspectRatio="xMinYMin meet" x="540" y="-232"/>
<text text-anchor="start" x="555" y="-223.2" font-family="Helvetica,sans-Serif" font-size="11.00">cof_c_cardnetwork_id</text>
<polygon fill="none" stroke="black" points="535,-193 535,-215 761,-215 761,-193 535,-193"/>
<image xlink:href="../../images/foreignKeys.png" width="11px" height="12px" preserveAspectRatio="xMinYMin meet" x="540" y="-210"/>
<text text-anchor="start" x="555" y="-201.2" font-family="Helvetica,sans-Serif" font-size="11.00">pag_ufpag_id</text>
<polygon fill="none" stroke="black" points="535,-175 535,-193 761,-193 761,-175 535,-175"/>
<text text-anchor="start" x="538" y="-181.2" font-family="Helvetica,sans-Serif" font-size="11.00">...</text>
<polygon fill="#ffffff" stroke="transparent" points="535,-157 535,-175 761,-175 761,-157 535,-157"/>
<polygon fill="none" stroke="black" points="535,-157 535,-175 761,-175 761,-157 535,-157"/>
<polygon fill="#ffffff" stroke="transparent" points="536,-158 536,-174 614,-174 614,-158 536,-158"/>
<text text-anchor="start" x="538" y="-163.2" font-family="Helvetica,sans-Serif" font-size="11.00">&lt; 5</text>
<polygon fill="#ffffff" stroke="transparent" points="614,-158 614,-174 683,-174 683,-158 614,-158"/>
<text text-anchor="start" x="645" y="-163.2" font-family="Helvetica,sans-Serif" font-size="11.00"> &#160;</text>
<polygon fill="#ffffff" stroke="transparent" points="683,-158 683,-174 760,-174 760,-158 683,-158"/>
<text text-anchor="start" x="742" y="-163.2" font-family="Helvetica,sans-Serif" font-size="11.00">1 &gt;</text>
<polygon fill="black" stroke="black" points="614,-158 614,-174 614,-174 614,-158 614,-158"/>
<polygon fill="black" stroke="black" points="683,-158 683,-174 683,-174 683,-158 683,-158"/>
</a>
</g>
</g>
<!-- c_orderpayschedule&#45;&gt;c_payschedule -->
<g id="edge2" class="edge">
<title>c_orderpayschedule:w&#45;&gt;c_payschedule:e</title>
<path fill="none" stroke="black" d="M519.76,-295.42C486.18,-315.78 540.39,-420 485.5,-420"/>
<polygon fill="black" stroke="black" points="526.22,-293.87 534.84,-295.5 530.11,-292.94 534,-292 534,-292 534,-292 530.11,-292.94 533.16,-288.5 526.22,-293.87 526.22,-293.87"/>
<ellipse fill="none" stroke="black" cx="523.11" cy="-294.62" rx="3.2" ry="3.2"/>
</g>
</g>
</svg>
