<?xml version="1.0" encoding="UTF-8" standalone="no"?>
<!DOCTYPE svg PUBLIC "-//W3C//DTD SVG 1.1//EN"
 "http://www.w3.org/Graphics/SVG/1.1/DTD/svg11.dtd">
<!-- Generated by graphviz version 2.43.0 (0)
 -->
<!-- Title: oneDegreeRelationshipsDiagram Pages: 1 -->
<svg width="426pt" height="417pt"
 viewBox="0.00 0.00 426.00 417.00" xmlns="http://www.w3.org/2000/svg" xmlns:xlink="http://www.w3.org/1999/xlink">
<g id="graph0" class="graph" transform="scale(1 1) rotate(0) translate(4 413)">
<title>oneDegreeRelationshipsDiagram</title>
<polygon fill="#ffffff" stroke="transparent" points="-4,4 -4,-413 422,-413 422,4 -4,4"/>
<text text-anchor="middle" x="71.5" y="-7.2" font-family="Helvetica,sans-Serif" font-size="11.00">Generated by SchemaSpy</text>
<!-- c_periodcontrol -->
<g id="node1" class="node">
<title>c_periodcontrol</title>
<g id="a_node1"><a xlink:href="../../tables/c_periodcontrol.html" xlink:title="c_periodcontrol" target="_top">
<polygon fill="#ffffff" stroke="transparent" points="164,-53 164,-405 410,-405 410,-53 164,-53"/>
<polygon fill="#f5f5f5" stroke="transparent" points="166,-381 166,-403 408,-403 408,-381 166,-381"/>
<polygon fill="none" stroke="black" points="166,-381 166,-403 408,-403 408,-381 166,-381"/>
<text text-anchor="start" x="171" y="-390.2" font-family="Helvetica,sans-Serif" font-weight="bold" font-size="11.00">c_periodcontrol</text>
<text text-anchor="start" x="373" y="-389.2" font-family="Helvetica,sans-Serif" font-size="11.00">[table]</text>
<polygon fill="none" stroke="black" points="166,-359 166,-381 325,-381 325,-359 166,-359"/>
<image xlink:href="../../images/primaryKeys.png" width="11px" height="12px" preserveAspectRatio="xMinYMin meet" x="171" y="-376"/>
<text text-anchor="start" x="186" y="-367.2" font-family="Helvetica,sans-Serif" font-size="11.00">c_periodcontrol_id</text>
<polygon fill="none" stroke="black" points="325,-359 325,-381 408,-381 408,-359 325,-359"/>
<text text-anchor="start" x="328" y="-367.2" font-family="Helvetica,sans-Serif" font-size="11.00">numeric[10]</text>
<polygon fill="none" stroke="black" points="166,-337 166,-359 325,-359 325,-337 166,-337"/>
<text text-anchor="start" x="186" y="-345.2" font-family="Helvetica,sans-Serif" font-size="11.00">ad_client_id</text>
<polygon fill="none" stroke="black" points="325,-337 325,-359 408,-359 408,-337 325,-337"/>
<text text-anchor="start" x="328" y="-345.2" font-family="Helvetica,sans-Serif" font-size="11.00">numeric[10]</text>
<polygon fill="none" stroke="black" points="166,-315 166,-337 325,-337 325,-315 166,-315"/>
<text text-anchor="start" x="186" y="-323.2" font-family="Helvetica,sans-Serif" font-size="11.00">ad_org_id</text>
<polygon fill="none" stroke="black" points="325,-315 325,-337 408,-337 408,-315 325,-315"/>
<text text-anchor="start" x="328" y="-323.2" font-family="Helvetica,sans-Serif" font-size="11.00">numeric[10]</text>
<polygon fill="none" stroke="black" points="166,-293 166,-315 325,-315 325,-293 166,-293"/>
<text text-anchor="start" x="186" y="-301.2" font-family="Helvetica,sans-Serif" font-size="11.00">isactive</text>
<polygon fill="none" stroke="black" points="325,-293 325,-315 408,-315 408,-293 325,-293"/>
<text text-anchor="start" x="328" y="-301.2" font-family="Helvetica,sans-Serif" font-size="11.00">bpchar[1]</text>
<polygon fill="none" stroke="black" points="166,-271 166,-293 325,-293 325,-271 166,-271"/>
<text text-anchor="start" x="186" y="-279.2" font-family="Helvetica,sans-Serif" font-size="11.00">created</text>
<polygon fill="none" stroke="black" points="325,-271 325,-293 408,-293 408,-271 325,-271"/>
<text text-anchor="start" x="328" y="-279.2" font-family="Helvetica,sans-Serif" font-size="11.00">timestamp[29,6]</text>
<polygon fill="none" stroke="black" points="166,-249 166,-271 325,-271 325,-249 166,-249"/>
<text text-anchor="start" x="186" y="-257.2" font-family="Helvetica,sans-Serif" font-size="11.00">createdby</text>
<polygon fill="none" stroke="black" points="325,-249 325,-271 408,-271 408,-249 325,-249"/>
<text text-anchor="start" x="328" y="-257.2" font-family="Helvetica,sans-Serif" font-size="11.00">numeric[10]</text>
<polygon fill="none" stroke="black" points="166,-227 166,-249 325,-249 325,-227 166,-227"/>
<text text-anchor="start" x="186" y="-235.2" font-family="Helvetica,sans-Serif" font-size="11.00">updated</text>
<polygon fill="none" stroke="black" points="325,-227 325,-249 408,-249 408,-227 325,-227"/>
<text text-anchor="start" x="328" y="-235.2" font-family="Helvetica,sans-Serif" font-size="11.00">timestamp[29,6]</text>
<polygon fill="none" stroke="black" points="166,-205 166,-227 325,-227 325,-205 166,-205"/>
<text text-anchor="start" x="186" y="-213.2" font-family="Helvetica,sans-Serif" font-size="11.00">updatedby</text>
<polygon fill="none" stroke="black" points="325,-205 325,-227 408,-227 408,-205 325,-205"/>
<text text-anchor="start" x="328" y="-213.2" font-family="Helvetica,sans-Serif" font-size="11.00">numeric[10]</text>
<polygon fill="none" stroke="black" points="166,-183 166,-205 325,-205 325,-183 166,-183"/>
<image xlink:href="../../images/foreignKeys.png" width="11px" height="12px" preserveAspectRatio="xMinYMin meet" x="171" y="-200"/>
<text text-anchor="start" x="186" y="-191.2" font-family="Helvetica,sans-Serif" font-size="11.00">c_period_id</text>
<polygon fill="none" stroke="black" points="325,-183 325,-205 408,-205 408,-183 325,-183"/>
<text text-anchor="start" x="328" y="-191.2" font-family="Helvetica,sans-Serif" font-size="11.00">numeric[10]</text>
<polygon fill="none" stroke="black" points="166,-161 166,-183 325,-183 325,-161 166,-161"/>
<text text-anchor="start" x="186" y="-169.2" font-family="Helvetica,sans-Serif" font-size="11.00">docbasetype</text>
<polygon fill="none" stroke="black" points="325,-161 325,-183 408,-183 408,-161 325,-161"/>
<text text-anchor="start" x="328" y="-169.2" font-family="Helvetica,sans-Serif" font-size="11.00">bpchar[3]</text>
<polygon fill="none" stroke="black" points="166,-139 166,-161 325,-161 325,-139 166,-139"/>
<text text-anchor="start" x="186" y="-147.2" font-family="Helvetica,sans-Serif" font-size="11.00">periodstatus</text>
<polygon fill="none" stroke="black" points="325,-139 325,-161 408,-161 408,-139 325,-139"/>
<text text-anchor="start" x="328" y="-147.2" font-family="Helvetica,sans-Serif" font-size="11.00">bpchar[1]</text>
<polygon fill="none" stroke="black" points="166,-117 166,-139 325,-139 325,-117 166,-117"/>
<text text-anchor="start" x="186" y="-125.2" font-family="Helvetica,sans-Serif" font-size="11.00">periodaction</text>
<polygon fill="none" stroke="black" points="325,-117 325,-139 408,-139 408,-117 325,-117"/>
<text text-anchor="start" x="328" y="-125.2" font-family="Helvetica,sans-Serif" font-size="11.00">bpchar[1]</text>
<polygon fill="none" stroke="black" points="166,-95 166,-117 325,-117 325,-95 166,-95"/>
<text text-anchor="start" x="186" y="-103.2" font-family="Helvetica,sans-Serif" font-size="11.00">processing</text>
<polygon fill="none" stroke="black" points="325,-95 325,-117 408,-117 408,-95 325,-95"/>
<text text-anchor="start" x="328" y="-103.2" font-family="Helvetica,sans-Serif" font-size="11.00">bpchar[1]</text>
<polygon fill="#ffffff" stroke="transparent" points="166,-73 166,-95 325,-95 325,-73 166,-73"/>
<polygon fill="none" stroke="black" points="166,-73 166,-95 325,-95 325,-73 166,-73"/>
<text text-anchor="start" x="186" y="-81.2" font-family="Helvetica,sans-Serif" font-size="11.00">c_periodcontrol_uu</text>
<polygon fill="none" stroke="black" points="325,-73 325,-95 408,-95 408,-73 325,-73"/>
<text text-anchor="start" x="328" y="-81.2" font-family="Helvetica,sans-Serif" font-size="11.00">varchar[36]</text>
<polygon fill="#ffffff" stroke="transparent" points="166,-55 166,-73 408,-73 408,-55 166,-55"/>
<polygon fill="none" stroke="black" points="166,-55 166,-73 408,-73 408,-55 166,-55"/>
<polygon fill="#ffffff" stroke="transparent" points="167,-56 167,-72 235,-72 235,-56 167,-56"/>
<text text-anchor="start" x="169" y="-61.2" font-family="Helvetica,sans-Serif" font-size="11.00">&lt; 1</text>
<polygon fill="#ffffff" stroke="transparent" points="235,-56 235,-72 340,-72 340,-56 235,-56"/>
<text text-anchor="start" x="260.5" y="-61.2" font-family="Helvetica,sans-Serif" font-size="11.00">7.296 rows</text>
<polygon fill="#ffffff" stroke="transparent" points="340,-56 340,-72 407,-72 407,-56 340,-56"/>
<text text-anchor="start" x="389" y="-61.2" font-family="Helvetica,sans-Serif" font-size="11.00">0 &gt;</text>
<polygon fill="black" stroke="black" points="235,-56 235,-72 235,-72 235,-56 235,-56"/>
<polygon fill="black" stroke="black" points="340,-56 340,-72 340,-72 340,-56 340,-56"/>
<polygon fill="none" stroke="black" stroke-width="2" points="165,-54 165,-404 409,-404 409,-54 165,-54"/>
</a>
</g>
</g>
<!-- c_period -->
<g id="node2" class="node">
<title>c_period</title>
<g id="a_node2"><a xlink:href="../../tables/c_period.html" xlink:title="c_period" target="_top">
<polygon fill="#ffffff" stroke="transparent" points="8,-37 8,-227 115,-227 115,-37 8,-37"/>
<polygon fill="#f5f5f5" stroke="transparent" points="8.5,-205 8.5,-227 115.5,-227 115.5,-205 8.5,-205"/>
<polygon fill="none" stroke="black" points="8.5,-205 8.5,-227 115.5,-227 115.5,-205 8.5,-205"/>
<text text-anchor="start" x="13.5" y="-214.2" font-family="Helvetica,sans-Serif" font-weight="bold" font-size="11.00">c_period</text>
<text text-anchor="start" x="80.5" y="-213.2" font-family="Helvetica,sans-Serif" font-size="11.00">[table]</text>
<polygon fill="none" stroke="black" points="8.5,-183 8.5,-205 115.5,-205 115.5,-183 8.5,-183"/>
<image xlink:href="../../images/primaryKeys.png" width="11px" height="12px" preserveAspectRatio="xMinYMin meet" x="13.5" y="-200"/>
<text text-anchor="start" x="28.5" y="-191.2" font-family="Helvetica,sans-Serif" font-size="11.00">c_period_id</text>
<polygon fill="none" stroke="black" points="8.5,-161 8.5,-183 115.5,-183 115.5,-161 8.5,-161"/>
<image xlink:href="../../images/foreignKeys.png" width="11px" height="12px" preserveAspectRatio="xMinYMin meet" x="13.5" y="-178"/>
<text text-anchor="start" x="28.5" y="-169.2" font-family="Helvetica,sans-Serif" font-size="11.00">ad_client_id</text>
<polygon fill="none" stroke="black" points="8.5,-139 8.5,-161 115.5,-161 115.5,-139 8.5,-139"/>
<image xlink:href="../../images/foreignKeys.png" width="11px" height="12px" preserveAspectRatio="xMinYMin meet" x="13.5" y="-156"/>
<text text-anchor="start" x="28.5" y="-147.2" font-family="Helvetica,sans-Serif" font-size="11.00">ad_org_id</text>
<polygon fill="#ffffff" stroke="transparent" points="8.5,-117 8.5,-139 115.5,-139 115.5,-117 8.5,-117"/>
<polygon fill="none" stroke="black" points="8.5,-117 8.5,-139 115.5,-139 115.5,-117 8.5,-117"/>
<text text-anchor="start" x="28.5" y="-125.2" font-family="Helvetica,sans-Serif" font-size="11.00">periodno</text>
<polygon fill="#ffffff" stroke="transparent" points="8.5,-95 8.5,-117 115.5,-117 115.5,-95 8.5,-95"/>
<polygon fill="none" stroke="black" points="8.5,-95 8.5,-117 115.5,-117 115.5,-95 8.5,-95"/>
<image xlink:href="../../images/foreignKeys.png" width="11px" height="12px" preserveAspectRatio="xMinYMin meet" x="13.5" y="-112"/>
<text text-anchor="start" x="28.5" y="-103.2" font-family="Helvetica,sans-Serif" font-size="11.00">c_year_id</text>
<polygon fill="#ffffff" stroke="transparent" points="8.5,-73 8.5,-95 115.5,-95 115.5,-73 8.5,-73"/>
<polygon fill="none" stroke="black" points="8.5,-73 8.5,-95 115.5,-95 115.5,-73 8.5,-73"/>
<text text-anchor="start" x="28.5" y="-81.2" font-family="Helvetica,sans-Serif" font-size="11.00">c_period_uu</text>
<polygon fill="none" stroke="black" points="8.5,-55 8.5,-73 115.5,-73 115.5,-55 8.5,-55"/>
<text text-anchor="start" x="11.5" y="-61.2" font-family="Helvetica,sans-Serif" font-size="11.00">...</text>
<polygon fill="#ffffff" stroke="transparent" points="8.5,-37 8.5,-55 115.5,-55 115.5,-37 8.5,-37"/>
<polygon fill="none" stroke="black" points="8.5,-37 8.5,-55 115.5,-55 115.5,-37 8.5,-37"/>
<polygon fill="#ffffff" stroke="transparent" points="9.5,-38 9.5,-54 33.5,-54 33.5,-38 9.5,-38"/>
<text text-anchor="start" x="11.5" y="-43.2" font-family="Helvetica,sans-Serif" font-size="11.00">&lt; 3</text>
<polygon fill="#ffffff" stroke="transparent" points="33.5,-38 33.5,-54 85.5,-54 85.5,-38 33.5,-38"/>
<text text-anchor="start" x="37" y="-43.2" font-family="Helvetica,sans-Serif" font-size="11.00">192 rows</text>
<polygon fill="#ffffff" stroke="transparent" points="85.5,-38 85.5,-54 114.5,-54 114.5,-38 85.5,-38"/>
<text text-anchor="start" x="90.5" y="-43.2" font-family="Helvetica,sans-Serif" font-size="11.00">19 &gt;</text>
<polygon fill="black" stroke="black" points="33.5,-38 33.5,-54 33.5,-54 33.5,-38 33.5,-38"/>
<polygon fill="black" stroke="black" points="85.5,-38 85.5,-54 85.5,-54 85.5,-38 85.5,-38"/>
</a>
</g>
</g>
<!-- c_periodcontrol&#45;&gt;c_period -->
<g id="edge1" class="edge">
<title>c_periodcontrol:w&#45;&gt;c_period:e</title>
<path fill="none" stroke="black" d="M150.28,-194C139.29,-194 132.16,-194 116.5,-194"/>
<polygon fill="black" stroke="black" points="157,-194 165,-197.6 161,-194 165,-194 165,-194 165,-194 161,-194 165,-190.4 157,-194 157,-194"/>
<ellipse fill="none" stroke="black" cx="153.8" cy="-194" rx="3.2" ry="3.2"/>
</g>
</g>
</svg>
