<?xml version="1.0" encoding="UTF-8" standalone="no"?>
<!DOCTYPE svg PUBLIC "-//W3C//DTD SVG 1.1//EN"
 "http://www.w3.org/Graphics/SVG/1.1/DTD/svg11.dtd">
<!-- Generated by graphviz version 2.43.0 (0)
 -->
<!-- Title: oneDegreeRelationshipsDiagram Pages: 1 -->
<svg width="683pt" height="874pt"
 viewBox="0.00 0.00 683.00 874.00" xmlns="http://www.w3.org/2000/svg" xmlns:xlink="http://www.w3.org/1999/xlink">
<g id="graph0" class="graph" transform="scale(1 1) rotate(0) translate(4 870)">
<title>oneDegreeRelationshipsDiagram</title>
<polygon fill="#ffffff" stroke="transparent" points="-4,4 -4,-870 679,-870 679,4 -4,4"/>
<text text-anchor="middle" x="71.5" y="-7.2" font-family="Helvetica,sans-Serif" font-size="11.00">Generated by SchemaSpy</text>
<!-- c_pos -->
<g id="node1" class="node">
<title>c_pos</title>
<g id="a_node1"><a xlink:href="../../tables/c_pos.html" xlink:title="c_pos" target="_top">
<polygon fill="#ffffff" stroke="transparent" points="493,-540 493,-862 667,-862 667,-540 493,-540"/>
<polygon fill="#f5f5f5" stroke="transparent" points="493,-840 493,-862 667,-862 667,-840 493,-840"/>
<polygon fill="none" stroke="black" points="493,-840 493,-862 667,-862 667,-840 493,-840"/>
<text text-anchor="start" x="498" y="-849.2" font-family="Helvetica,sans-Serif" font-weight="bold" font-size="11.00">c_pos</text>
<text text-anchor="start" x="632" y="-848.2" font-family="Helvetica,sans-Serif" font-size="11.00">[table]</text>
<polygon fill="none" stroke="black" points="493,-818 493,-840 667,-840 667,-818 493,-818"/>
<image xlink:href="../../images/primaryKeys.png" width="11px" height="12px" preserveAspectRatio="xMinYMin meet" x="498" y="-835"/>
<text text-anchor="start" x="513" y="-826.2" font-family="Helvetica,sans-Serif" font-size="11.00">c_pos_id</text>
<polygon fill="none" stroke="black" points="493,-796 493,-818 667,-818 667,-796 493,-796"/>
<image xlink:href="../../images/foreignKeys.png" width="11px" height="12px" preserveAspectRatio="xMinYMin meet" x="498" y="-813"/>
<text text-anchor="start" x="513" y="-804.2" font-family="Helvetica,sans-Serif" font-size="11.00">salesrep_id</text>
<polygon fill="none" stroke="black" points="493,-774 493,-796 667,-796 667,-774 493,-774"/>
<image xlink:href="../../images/foreignKeys.png" width="11px" height="12px" preserveAspectRatio="xMinYMin meet" x="498" y="-791"/>
<text text-anchor="start" x="513" y="-782.2" font-family="Helvetica,sans-Serif" font-size="11.00">m_pricelist_id</text>
<polygon fill="none" stroke="black" points="493,-752 493,-774 667,-774 667,-752 493,-752"/>
<image xlink:href="../../images/foreignKeys.png" width="11px" height="12px" preserveAspectRatio="xMinYMin meet" x="498" y="-769"/>
<text text-anchor="start" x="513" y="-760.2" font-family="Helvetica,sans-Serif" font-size="11.00">c_cashbook_id</text>
<polygon fill="none" stroke="black" points="493,-730 493,-752 667,-752 667,-730 493,-730"/>
<image xlink:href="../../images/foreignKeys.png" width="11px" height="12px" preserveAspectRatio="xMinYMin meet" x="498" y="-747"/>
<text text-anchor="start" x="513" y="-738.2" font-family="Helvetica,sans-Serif" font-size="11.00">m_warehouse_id</text>
<polygon fill="none" stroke="black" points="493,-708 493,-730 667,-730 667,-708 493,-708"/>
<image xlink:href="../../images/foreignKeys.png" width="11px" height="12px" preserveAspectRatio="xMinYMin meet" x="498" y="-725"/>
<text text-anchor="start" x="513" y="-716.2" font-family="Helvetica,sans-Serif" font-size="11.00">c_poskeylayout_id</text>
<polygon fill="none" stroke="black" points="493,-686 493,-708 667,-708 667,-686 493,-686"/>
<image xlink:href="../../images/foreignKeys.png" width="11px" height="12px" preserveAspectRatio="xMinYMin meet" x="498" y="-703"/>
<text text-anchor="start" x="513" y="-694.2" font-family="Helvetica,sans-Serif" font-size="11.00">c_bpartnercashtrx_id</text>
<polygon fill="none" stroke="black" points="493,-664 493,-686 667,-686 667,-664 493,-664"/>
<image xlink:href="../../images/foreignKeys.png" width="11px" height="12px" preserveAspectRatio="xMinYMin meet" x="498" y="-681"/>
<text text-anchor="start" x="513" y="-672.2" font-family="Helvetica,sans-Serif" font-size="11.00">c_doctype_id</text>
<polygon fill="none" stroke="black" points="493,-642 493,-664 667,-664 667,-642 493,-642"/>
<image xlink:href="../../images/foreignKeys.png" width="11px" height="12px" preserveAspectRatio="xMinYMin meet" x="498" y="-659"/>
<text text-anchor="start" x="513" y="-650.2" font-family="Helvetica,sans-Serif" font-size="11.00">c_bankaccount_id</text>
<polygon fill="#ffffff" stroke="transparent" points="493,-620 493,-642 667,-642 667,-620 493,-620"/>
<polygon fill="none" stroke="black" points="493,-620 493,-642 667,-642 667,-620 493,-620"/>
<text text-anchor="start" x="513" y="-628.2" font-family="Helvetica,sans-Serif" font-size="11.00">c_pos_uu</text>
<polygon fill="none" stroke="black" points="493,-598 493,-620 667,-620 667,-598 493,-598"/>
<image xlink:href="../../images/foreignKeys.png" width="11px" height="12px" preserveAspectRatio="xMinYMin meet" x="498" y="-615"/>
<text text-anchor="start" x="513" y="-606.2" font-family="Helvetica,sans-Serif" font-size="11.00">osk_keylayout_id</text>
<polygon fill="none" stroke="black" points="493,-576 493,-598 667,-598 667,-576 493,-576"/>
<image xlink:href="../../images/foreignKeys.png" width="11px" height="12px" preserveAspectRatio="xMinYMin meet" x="498" y="-593"/>
<text text-anchor="start" x="513" y="-584.2" font-family="Helvetica,sans-Serif" font-size="11.00">osnp_keylayout_id</text>
<polygon fill="none" stroke="black" points="493,-558 493,-576 667,-576 667,-558 493,-558"/>
<text text-anchor="start" x="496" y="-564.2" font-family="Helvetica,sans-Serif" font-size="11.00">...</text>
<polygon fill="#ffffff" stroke="transparent" points="493,-540 493,-558 667,-558 667,-540 493,-540"/>
<polygon fill="none" stroke="black" points="493,-540 493,-558 667,-558 667,-540 493,-540"/>
<polygon fill="#ffffff" stroke="transparent" points="494,-541 494,-557 559,-557 559,-541 494,-541"/>
<text text-anchor="start" x="496" y="-546.2" font-family="Helvetica,sans-Serif" font-size="11.00">&lt; 10</text>
<polygon fill="#ffffff" stroke="transparent" points="559,-541 559,-557 608,-557 608,-541 559,-541"/>
<text text-anchor="start" x="580" y="-546.2" font-family="Helvetica,sans-Serif" font-size="11.00"> &#160;</text>
<polygon fill="#ffffff" stroke="transparent" points="608,-541 608,-557 666,-557 666,-541 608,-541"/>
<text text-anchor="start" x="648" y="-546.2" font-family="Helvetica,sans-Serif" font-size="11.00">1 &gt;</text>
<polygon fill="black" stroke="black" points="559,-541 559,-557 559,-557 559,-541 559,-541"/>
<polygon fill="black" stroke="black" points="608,-541 608,-557 608,-557 608,-541 608,-541"/>
</a>
</g>
</g>
<!-- c_poskeylayout -->
<g id="node2" class="node">
<title>c_poskeylayout</title>
<g id="a_node2"><a xlink:href="../../tables/c_poskeylayout.html" xlink:title="c_poskeylayout" target="_top">
<polygon fill="#ffffff" stroke="transparent" points="199,-248 199,-644 444,-644 444,-248 199,-248"/>
<polygon fill="#f5f5f5" stroke="transparent" points="201.5,-620 201.5,-642 442.5,-642 442.5,-620 201.5,-620"/>
<polygon fill="none" stroke="black" points="201.5,-620 201.5,-642 442.5,-642 442.5,-620 201.5,-620"/>
<text text-anchor="start" x="206.5" y="-629.2" font-family="Helvetica,sans-Serif" font-weight="bold" font-size="11.00">c_poskeylayout</text>
<text text-anchor="start" x="407.5" y="-628.2" font-family="Helvetica,sans-Serif" font-size="11.00">[table]</text>
<polygon fill="none" stroke="black" points="201.5,-598 201.5,-620 359.5,-620 359.5,-598 201.5,-598"/>
<image xlink:href="../../images/primaryKeys.png" width="11px" height="12px" preserveAspectRatio="xMinYMin meet" x="206.5" y="-615"/>
<text text-anchor="start" x="221.5" y="-606.2" font-family="Helvetica,sans-Serif" font-size="11.00">c_poskeylayout_id</text>
<polygon fill="none" stroke="black" points="359.5,-598 359.5,-620 442.5,-620 442.5,-598 359.5,-598"/>
<text text-anchor="start" x="362.5" y="-606.2" font-family="Helvetica,sans-Serif" font-size="11.00">numeric[10]</text>
<polygon fill="none" stroke="black" points="201.5,-576 201.5,-598 359.5,-598 359.5,-576 201.5,-576"/>
<text text-anchor="start" x="221.5" y="-584.2" font-family="Helvetica,sans-Serif" font-size="11.00">ad_client_id</text>
<polygon fill="none" stroke="black" points="359.5,-576 359.5,-598 442.5,-598 442.5,-576 359.5,-576"/>
<text text-anchor="start" x="362.5" y="-584.2" font-family="Helvetica,sans-Serif" font-size="11.00">numeric[10]</text>
<polygon fill="none" stroke="black" points="201.5,-554 201.5,-576 359.5,-576 359.5,-554 201.5,-554"/>
<text text-anchor="start" x="221.5" y="-562.2" font-family="Helvetica,sans-Serif" font-size="11.00">ad_org_id</text>
<polygon fill="none" stroke="black" points="359.5,-554 359.5,-576 442.5,-576 442.5,-554 359.5,-554"/>
<text text-anchor="start" x="362.5" y="-562.2" font-family="Helvetica,sans-Serif" font-size="11.00">numeric[10]</text>
<polygon fill="none" stroke="black" points="201.5,-532 201.5,-554 359.5,-554 359.5,-532 201.5,-532"/>
<text text-anchor="start" x="221.5" y="-540.2" font-family="Helvetica,sans-Serif" font-size="11.00">isactive</text>
<polygon fill="none" stroke="black" points="359.5,-532 359.5,-554 442.5,-554 442.5,-532 359.5,-532"/>
<text text-anchor="start" x="362.5" y="-540.2" font-family="Helvetica,sans-Serif" font-size="11.00">bpchar[1]</text>
<polygon fill="none" stroke="black" points="201.5,-510 201.5,-532 359.5,-532 359.5,-510 201.5,-510"/>
<text text-anchor="start" x="221.5" y="-518.2" font-family="Helvetica,sans-Serif" font-size="11.00">created</text>
<polygon fill="none" stroke="black" points="359.5,-510 359.5,-532 442.5,-532 442.5,-510 359.5,-510"/>
<text text-anchor="start" x="362.5" y="-518.2" font-family="Helvetica,sans-Serif" font-size="11.00">timestamp[29,6]</text>
<polygon fill="none" stroke="black" points="201.5,-488 201.5,-510 359.5,-510 359.5,-488 201.5,-488"/>
<text text-anchor="start" x="221.5" y="-496.2" font-family="Helvetica,sans-Serif" font-size="11.00">createdby</text>
<polygon fill="none" stroke="black" points="359.5,-488 359.5,-510 442.5,-510 442.5,-488 359.5,-488"/>
<text text-anchor="start" x="362.5" y="-496.2" font-family="Helvetica,sans-Serif" font-size="11.00">numeric[10]</text>
<polygon fill="none" stroke="black" points="201.5,-466 201.5,-488 359.5,-488 359.5,-466 201.5,-466"/>
<text text-anchor="start" x="221.5" y="-474.2" font-family="Helvetica,sans-Serif" font-size="11.00">updated</text>
<polygon fill="none" stroke="black" points="359.5,-466 359.5,-488 442.5,-488 442.5,-466 359.5,-466"/>
<text text-anchor="start" x="362.5" y="-474.2" font-family="Helvetica,sans-Serif" font-size="11.00">timestamp[29,6]</text>
<polygon fill="none" stroke="black" points="201.5,-444 201.5,-466 359.5,-466 359.5,-444 201.5,-444"/>
<text text-anchor="start" x="221.5" y="-452.2" font-family="Helvetica,sans-Serif" font-size="11.00">updatedby</text>
<polygon fill="none" stroke="black" points="359.5,-444 359.5,-466 442.5,-466 442.5,-444 359.5,-444"/>
<text text-anchor="start" x="362.5" y="-452.2" font-family="Helvetica,sans-Serif" font-size="11.00">numeric[10]</text>
<polygon fill="none" stroke="black" points="201.5,-422 201.5,-444 359.5,-444 359.5,-422 201.5,-422"/>
<text text-anchor="start" x="221.5" y="-430.2" font-family="Helvetica,sans-Serif" font-size="11.00">name</text>
<polygon fill="none" stroke="black" points="359.5,-422 359.5,-444 442.5,-444 442.5,-422 359.5,-422"/>
<text text-anchor="start" x="362.5" y="-430.2" font-family="Helvetica,sans-Serif" font-size="11.00">varchar[60]</text>
<polygon fill="none" stroke="black" points="201.5,-400 201.5,-422 359.5,-422 359.5,-400 201.5,-400"/>
<text text-anchor="start" x="221.5" y="-408.2" font-family="Helvetica,sans-Serif" font-size="11.00">description</text>
<polygon fill="none" stroke="black" points="359.5,-400 359.5,-422 442.5,-422 442.5,-400 359.5,-400"/>
<text text-anchor="start" x="362.5" y="-408.2" font-family="Helvetica,sans-Serif" font-size="11.00">varchar[255]</text>
<polygon fill="none" stroke="black" points="201.5,-378 201.5,-400 359.5,-400 359.5,-378 201.5,-378"/>
<text text-anchor="start" x="221.5" y="-386.2" font-family="Helvetica,sans-Serif" font-size="11.00">help</text>
<polygon fill="none" stroke="black" points="359.5,-378 359.5,-400 442.5,-400 442.5,-378 359.5,-378"/>
<text text-anchor="start" x="362.5" y="-386.2" font-family="Helvetica,sans-Serif" font-size="11.00">varchar[2000]</text>
<polygon fill="#ffffff" stroke="transparent" points="201.5,-356 201.5,-378 359.5,-378 359.5,-356 201.5,-356"/>
<polygon fill="none" stroke="black" points="201.5,-356 201.5,-378 359.5,-378 359.5,-356 201.5,-356"/>
<text text-anchor="start" x="221.5" y="-364.2" font-family="Helvetica,sans-Serif" font-size="11.00">c_poskeylayout_uu</text>
<polygon fill="none" stroke="black" points="359.5,-356 359.5,-378 442.5,-378 442.5,-356 359.5,-356"/>
<text text-anchor="start" x="362.5" y="-364.2" font-family="Helvetica,sans-Serif" font-size="11.00">varchar[36]</text>
<polygon fill="none" stroke="black" points="201.5,-334 201.5,-356 359.5,-356 359.5,-334 201.5,-334"/>
<text text-anchor="start" x="221.5" y="-342.2" font-family="Helvetica,sans-Serif" font-size="11.00">columns</text>
<polygon fill="none" stroke="black" points="359.5,-334 359.5,-356 442.5,-356 442.5,-334 359.5,-334"/>
<text text-anchor="start" x="362.5" y="-342.2" font-family="Helvetica,sans-Serif" font-size="11.00">numeric[10]</text>
<polygon fill="none" stroke="black" points="201.5,-312 201.5,-334 359.5,-334 359.5,-312 201.5,-312"/>
<text text-anchor="start" x="221.5" y="-320.2" font-family="Helvetica,sans-Serif" font-size="11.00">poskeylayouttype</text>
<polygon fill="none" stroke="black" points="359.5,-312 359.5,-334 442.5,-334 442.5,-312 359.5,-312"/>
<text text-anchor="start" x="362.5" y="-320.2" font-family="Helvetica,sans-Serif" font-size="11.00">bpchar[1]</text>
<polygon fill="none" stroke="black" points="201.5,-290 201.5,-312 359.5,-312 359.5,-290 201.5,-290"/>
<image xlink:href="../../images/foreignKeys.png" width="11px" height="12px" preserveAspectRatio="xMinYMin meet" x="206.5" y="-307"/>
<text text-anchor="start" x="221.5" y="-298.2" font-family="Helvetica,sans-Serif" font-size="11.00">ad_printcolor_id</text>
<polygon fill="none" stroke="black" points="359.5,-290 359.5,-312 442.5,-312 442.5,-290 359.5,-290"/>
<text text-anchor="start" x="362.5" y="-298.2" font-family="Helvetica,sans-Serif" font-size="11.00">numeric[10]</text>
<polygon fill="none" stroke="black" points="201.5,-268 201.5,-290 359.5,-290 359.5,-268 201.5,-268"/>
<image xlink:href="../../images/foreignKeys.png" width="11px" height="12px" preserveAspectRatio="xMinYMin meet" x="206.5" y="-285"/>
<text text-anchor="start" x="221.5" y="-276.2" font-family="Helvetica,sans-Serif" font-size="11.00">ad_printfont_id</text>
<polygon fill="none" stroke="black" points="359.5,-268 359.5,-290 442.5,-290 442.5,-268 359.5,-268"/>
<text text-anchor="start" x="362.5" y="-276.2" font-family="Helvetica,sans-Serif" font-size="11.00">numeric[10]</text>
<polygon fill="#ffffff" stroke="transparent" points="201.5,-250 201.5,-268 442.5,-268 442.5,-250 201.5,-250"/>
<polygon fill="none" stroke="black" points="201.5,-250 201.5,-268 442.5,-268 442.5,-250 201.5,-250"/>
<polygon fill="#ffffff" stroke="transparent" points="202.5,-251 202.5,-267 285.5,-267 285.5,-251 202.5,-251"/>
<text text-anchor="start" x="204.5" y="-256.2" font-family="Helvetica,sans-Serif" font-size="11.00">&lt; 2</text>
<polygon fill="#ffffff" stroke="transparent" points="285.5,-251 285.5,-267 359.5,-267 359.5,-251 285.5,-251"/>
<text text-anchor="start" x="319" y="-256.2" font-family="Helvetica,sans-Serif" font-size="11.00"> &#160;</text>
<polygon fill="#ffffff" stroke="transparent" points="359.5,-251 359.5,-267 441.5,-267 441.5,-251 359.5,-251"/>
<text text-anchor="start" x="423.5" y="-256.2" font-family="Helvetica,sans-Serif" font-size="11.00">5 &gt;</text>
<polygon fill="black" stroke="black" points="285.5,-251 285.5,-267 285.5,-267 285.5,-251 285.5,-251"/>
<polygon fill="black" stroke="black" points="359.5,-251 359.5,-267 359.5,-267 359.5,-251 359.5,-251"/>
<polygon fill="none" stroke="black" stroke-width="2" points="200,-249 200,-643 443,-643 443,-249 200,-249"/>
</a>
</g>
</g>
<!-- c_pos&#45;&gt;c_poskeylayout -->
<g id="edge1" class="edge">
<title>c_pos:w&#45;&gt;c_poskeylayout:e</title>
<path fill="none" stroke="black" d="M477.82,-715.09C450.36,-695.49 490.88,-609 443.5,-609"/>
<polygon fill="black" stroke="black" points="484.29,-716.87 491.04,-722.47 488.14,-717.94 492,-719 492,-719 492,-719 488.14,-717.94 492.96,-715.53 484.29,-716.87 484.29,-716.87"/>
<ellipse fill="none" stroke="black" cx="481.2" cy="-716.02" rx="3.2" ry="3.2"/>
</g>
<!-- c_pos&#45;&gt;c_poskeylayout -->
<g id="edge2" class="edge">
<title>c_pos:w&#45;&gt;c_poskeylayout:e</title>
<path fill="none" stroke="black" d="M477.28,-609C466.29,-609 459.16,-609 443.5,-609"/>
<polygon fill="black" stroke="black" points="484,-609 492,-612.6 488,-609 492,-609 492,-609 492,-609 488,-609 492,-605.4 484,-609 484,-609"/>
<ellipse fill="none" stroke="black" cx="480.8" cy="-609" rx="3.2" ry="3.2"/>
</g>
<!-- c_pos&#45;&gt;c_poskeylayout -->
<g id="edge3" class="edge">
<title>c_pos:w&#45;&gt;c_poskeylayout:e</title>
<path fill="none" stroke="black" d="M477.76,-590.44C466.34,-596.62 461.25,-609 443.5,-609"/>
<polygon fill="black" stroke="black" points="484.22,-588.88 492.85,-590.5 488.11,-587.94 492,-587 492,-587 492,-587 488.11,-587.94 491.15,-583.5 484.22,-588.88 484.22,-588.88"/>
<ellipse fill="none" stroke="black" cx="481.11" cy="-589.63" rx="3.2" ry="3.2"/>
</g>
<!-- ad_printcolor -->
<g id="node4" class="node">
<title>ad_printcolor</title>
<g id="a_node4"><a xlink:href="../../tables/ad_printcolor.html" xlink:title="ad_printcolor" target="_top">
<polygon fill="#ffffff" stroke="transparent" points="8,-204 8,-350 150,-350 150,-204 8,-204"/>
<polygon fill="#f5f5f5" stroke="transparent" points="8,-328 8,-350 150,-350 150,-328 8,-328"/>
<polygon fill="none" stroke="black" points="8,-328 8,-350 150,-350 150,-328 8,-328"/>
<text text-anchor="start" x="13" y="-337.2" font-family="Helvetica,sans-Serif" font-weight="bold" font-size="11.00">ad_printcolor</text>
<text text-anchor="start" x="115" y="-336.2" font-family="Helvetica,sans-Serif" font-size="11.00">[table]</text>
<polygon fill="none" stroke="black" points="8,-306 8,-328 150,-328 150,-306 8,-306"/>
<image xlink:href="../../images/primaryKeys.png" width="11px" height="12px" preserveAspectRatio="xMinYMin meet" x="13" y="-323"/>
<text text-anchor="start" x="28" y="-314.2" font-family="Helvetica,sans-Serif" font-size="11.00">ad_printcolor_id</text>
<polygon fill="#ffffff" stroke="transparent" points="8,-284 8,-306 150,-306 150,-284 8,-284"/>
<polygon fill="none" stroke="black" points="8,-284 8,-306 150,-306 150,-284 8,-284"/>
<text text-anchor="start" x="28" y="-292.2" font-family="Helvetica,sans-Serif" font-size="11.00">ad_client_id</text>
<polygon fill="#ffffff" stroke="transparent" points="8,-262 8,-284 150,-284 150,-262 8,-262"/>
<polygon fill="none" stroke="black" points="8,-262 8,-284 150,-284 150,-262 8,-262"/>
<text text-anchor="start" x="28" y="-270.2" font-family="Helvetica,sans-Serif" font-size="11.00">name</text>
<polygon fill="#ffffff" stroke="transparent" points="8,-240 8,-262 150,-262 150,-240 8,-240"/>
<polygon fill="none" stroke="black" points="8,-240 8,-262 150,-262 150,-240 8,-240"/>
<text text-anchor="start" x="28" y="-248.2" font-family="Helvetica,sans-Serif" font-size="11.00">ad_printcolor_uu</text>
<polygon fill="none" stroke="black" points="8,-222 8,-240 150,-240 150,-222 8,-222"/>
<text text-anchor="start" x="11" y="-228.2" font-family="Helvetica,sans-Serif" font-size="11.00">...</text>
<polygon fill="#ffffff" stroke="transparent" points="8,-204 8,-222 150,-222 150,-204 8,-204"/>
<polygon fill="none" stroke="black" points="8,-204 8,-222 150,-222 150,-204 8,-204"/>
<polygon fill="#ffffff" stroke="transparent" points="9,-205 9,-221 40,-221 40,-205 9,-205"/>
<text text-anchor="start" x="11" y="-210.2" font-family="Helvetica,sans-Serif" font-size="11.00"> &#160;</text>
<polygon fill="#ffffff" stroke="transparent" points="40,-205 40,-221 103,-221 103,-205 40,-205"/>
<text text-anchor="start" x="52" y="-210.2" font-family="Helvetica,sans-Serif" font-size="11.00">23 rows</text>
<polygon fill="#ffffff" stroke="transparent" points="103,-205 103,-221 149,-221 149,-205 103,-205"/>
<text text-anchor="start" x="125" y="-210.2" font-family="Helvetica,sans-Serif" font-size="11.00">21 &gt;</text>
<polygon fill="black" stroke="black" points="40,-205 40,-221 40,-221 40,-205 40,-205"/>
<polygon fill="black" stroke="black" points="103,-205 103,-221 103,-221 103,-205 103,-205"/>
</a>
</g>
</g>
<!-- c_poskeylayout&#45;&gt;ad_printcolor -->
<g id="edge8" class="edge">
<title>c_poskeylayout:w&#45;&gt;ad_printcolor:e</title>
<path fill="none" stroke="black" d="M186.26,-303.5C174.51,-308 168.34,-317 151,-317"/>
<polygon fill="black" stroke="black" points="192.62,-302.38 201.12,-304.55 196.56,-301.69 200.5,-301 200.5,-301 200.5,-301 196.56,-301.69 199.88,-297.45 192.62,-302.38 192.62,-302.38"/>
<ellipse fill="none" stroke="black" cx="189.47" cy="-302.94" rx="3.2" ry="3.2"/>
</g>
<!-- ad_printfont -->
<g id="node5" class="node">
<title>ad_printfont</title>
<g id="a_node5"><a xlink:href="../../tables/ad_printfont.html" xlink:title="ad_printfont" target="_top">
<polygon fill="#ffffff" stroke="transparent" points="11,-37 11,-183 147,-183 147,-37 11,-37"/>
<polygon fill="#f5f5f5" stroke="transparent" points="11,-161 11,-183 147,-183 147,-161 11,-161"/>
<polygon fill="none" stroke="black" points="11,-161 11,-183 147,-183 147,-161 11,-161"/>
<text text-anchor="start" x="16" y="-170.2" font-family="Helvetica,sans-Serif" font-weight="bold" font-size="11.00">ad_printfont</text>
<text text-anchor="start" x="112" y="-169.2" font-family="Helvetica,sans-Serif" font-size="11.00">[table]</text>
<polygon fill="none" stroke="black" points="11,-139 11,-161 147,-161 147,-139 11,-139"/>
<image xlink:href="../../images/primaryKeys.png" width="11px" height="12px" preserveAspectRatio="xMinYMin meet" x="16" y="-156"/>
<text text-anchor="start" x="31" y="-147.2" font-family="Helvetica,sans-Serif" font-size="11.00">ad_printfont_id</text>
<polygon fill="#ffffff" stroke="transparent" points="11,-117 11,-139 147,-139 147,-117 11,-117"/>
<polygon fill="none" stroke="black" points="11,-117 11,-139 147,-139 147,-117 11,-117"/>
<text text-anchor="start" x="31" y="-125.2" font-family="Helvetica,sans-Serif" font-size="11.00">ad_client_id</text>
<polygon fill="#ffffff" stroke="transparent" points="11,-95 11,-117 147,-117 147,-95 11,-95"/>
<polygon fill="none" stroke="black" points="11,-95 11,-117 147,-117 147,-95 11,-95"/>
<text text-anchor="start" x="31" y="-103.2" font-family="Helvetica,sans-Serif" font-size="11.00">name</text>
<polygon fill="#ffffff" stroke="transparent" points="11,-73 11,-95 147,-95 147,-73 11,-73"/>
<polygon fill="none" stroke="black" points="11,-73 11,-95 147,-95 147,-73 11,-73"/>
<text text-anchor="start" x="31" y="-81.2" font-family="Helvetica,sans-Serif" font-size="11.00">ad_printfont_uu</text>
<polygon fill="none" stroke="black" points="11,-55 11,-73 147,-73 147,-55 11,-55"/>
<text text-anchor="start" x="14" y="-61.2" font-family="Helvetica,sans-Serif" font-size="11.00">...</text>
<polygon fill="#ffffff" stroke="transparent" points="11,-37 11,-55 147,-55 147,-37 11,-37"/>
<polygon fill="none" stroke="black" points="11,-37 11,-55 147,-55 147,-37 11,-37"/>
<polygon fill="#ffffff" stroke="transparent" points="12,-38 12,-54 43,-54 43,-38 12,-38"/>
<text text-anchor="start" x="14" y="-43.2" font-family="Helvetica,sans-Serif" font-size="11.00"> &#160;</text>
<polygon fill="#ffffff" stroke="transparent" points="43,-38 43,-54 106,-54 106,-38 43,-38"/>
<text text-anchor="start" x="55" y="-43.2" font-family="Helvetica,sans-Serif" font-size="11.00">66 rows</text>
<polygon fill="#ffffff" stroke="transparent" points="106,-38 106,-54 146,-54 146,-38 106,-38"/>
<text text-anchor="start" x="128" y="-43.2" font-family="Helvetica,sans-Serif" font-size="11.00">8 &gt;</text>
<polygon fill="black" stroke="black" points="43,-38 43,-54 43,-54 43,-38 43,-38"/>
<polygon fill="black" stroke="black" points="106,-38 106,-54 106,-54 106,-38 106,-38"/>
</a>
</g>
</g>
<!-- c_poskeylayout&#45;&gt;ad_printfont -->
<g id="edge9" class="edge">
<title>c_poskeylayout:w&#45;&gt;ad_printfont:e</title>
<path fill="none" stroke="black" d="M186.38,-275.81C150.8,-255.95 204.1,-150 148,-150"/>
<polygon fill="black" stroke="black" points="192.7,-277.24 199.71,-282.51 196.6,-278.12 200.5,-279 200.5,-279 200.5,-279 196.6,-278.12 201.29,-275.49 192.7,-277.24 192.7,-277.24"/>
<ellipse fill="none" stroke="black" cx="189.58" cy="-276.53" rx="3.2" ry="3.2"/>
</g>
<!-- c_poskey -->
<g id="node3" class="node">
<title>c_poskey</title>
<g id="a_node3"><a xlink:href="../../tables/c_poskey.html" xlink:title="c_poskey" target="_top">
<polygon fill="#ffffff" stroke="transparent" points="503.5,-210 503.5,-444 656.5,-444 656.5,-210 503.5,-210"/>
<polygon fill="#f5f5f5" stroke="transparent" points="504,-422 504,-444 657,-444 657,-422 504,-422"/>
<polygon fill="none" stroke="black" points="504,-422 504,-444 657,-444 657,-422 504,-422"/>
<text text-anchor="start" x="509" y="-431.2" font-family="Helvetica,sans-Serif" font-weight="bold" font-size="11.00">c_poskey</text>
<text text-anchor="start" x="622" y="-430.2" font-family="Helvetica,sans-Serif" font-size="11.00">[table]</text>
<polygon fill="none" stroke="black" points="504,-400 504,-422 657,-422 657,-400 504,-400"/>
<image xlink:href="../../images/primaryKeys.png" width="11px" height="12px" preserveAspectRatio="xMinYMin meet" x="509" y="-417"/>
<text text-anchor="start" x="524" y="-408.2" font-family="Helvetica,sans-Serif" font-size="11.00">c_poskey_id</text>
<polygon fill="none" stroke="black" points="504,-378 504,-400 657,-400 657,-378 504,-378"/>
<image xlink:href="../../images/foreignKeys.png" width="11px" height="12px" preserveAspectRatio="xMinYMin meet" x="509" y="-395"/>
<text text-anchor="start" x="524" y="-386.2" font-family="Helvetica,sans-Serif" font-size="11.00">c_poskeylayout_id</text>
<polygon fill="none" stroke="black" points="504,-356 504,-378 657,-378 657,-356 504,-356"/>
<image xlink:href="../../images/foreignKeys.png" width="11px" height="12px" preserveAspectRatio="xMinYMin meet" x="509" y="-373"/>
<text text-anchor="start" x="524" y="-364.2" font-family="Helvetica,sans-Serif" font-size="11.00">m_product_id</text>
<polygon fill="none" stroke="black" points="504,-334 504,-356 657,-356 657,-334 504,-334"/>
<image xlink:href="../../images/foreignKeys.png" width="11px" height="12px" preserveAspectRatio="xMinYMin meet" x="509" y="-351"/>
<text text-anchor="start" x="524" y="-342.2" font-family="Helvetica,sans-Serif" font-size="11.00">ad_printcolor_id</text>
<polygon fill="#ffffff" stroke="transparent" points="504,-312 504,-334 657,-334 657,-312 504,-312"/>
<polygon fill="none" stroke="black" points="504,-312 504,-334 657,-334 657,-312 504,-312"/>
<text text-anchor="start" x="524" y="-320.2" font-family="Helvetica,sans-Serif" font-size="11.00">c_poskey_uu</text>
<polygon fill="none" stroke="black" points="504,-290 504,-312 657,-312 657,-290 504,-290"/>
<image xlink:href="../../images/foreignKeys.png" width="11px" height="12px" preserveAspectRatio="xMinYMin meet" x="509" y="-307"/>
<text text-anchor="start" x="524" y="-298.2" font-family="Helvetica,sans-Serif" font-size="11.00">subkeylayout_id</text>
<polygon fill="none" stroke="black" points="504,-268 504,-290 657,-290 657,-268 504,-268"/>
<image xlink:href="../../images/foreignKeys.png" width="11px" height="12px" preserveAspectRatio="xMinYMin meet" x="509" y="-285"/>
<text text-anchor="start" x="524" y="-276.2" font-family="Helvetica,sans-Serif" font-size="11.00">ad_image_id</text>
<polygon fill="none" stroke="black" points="504,-246 504,-268 657,-268 657,-246 504,-246"/>
<image xlink:href="../../images/foreignKeys.png" width="11px" height="12px" preserveAspectRatio="xMinYMin meet" x="509" y="-263"/>
<text text-anchor="start" x="524" y="-254.2" font-family="Helvetica,sans-Serif" font-size="11.00">ad_printfont_id</text>
<polygon fill="none" stroke="black" points="504,-228 504,-246 657,-246 657,-228 504,-228"/>
<text text-anchor="start" x="507" y="-234.2" font-family="Helvetica,sans-Serif" font-size="11.00">...</text>
<polygon fill="#ffffff" stroke="transparent" points="504,-210 504,-228 657,-228 657,-210 504,-210"/>
<polygon fill="none" stroke="black" points="504,-210 504,-228 657,-228 657,-210 504,-210"/>
<polygon fill="#ffffff" stroke="transparent" points="505,-211 505,-227 562,-227 562,-211 505,-211"/>
<text text-anchor="start" x="507" y="-216.2" font-family="Helvetica,sans-Serif" font-size="11.00">&lt; 6</text>
<polygon fill="#ffffff" stroke="transparent" points="562,-211 562,-227 609,-227 609,-211 562,-211"/>
<text text-anchor="start" x="582" y="-216.2" font-family="Helvetica,sans-Serif" font-size="11.00"> &#160;</text>
<polygon fill="#ffffff" stroke="transparent" points="609,-211 609,-227 656,-227 656,-211 609,-211"/>
<text text-anchor="start" x="647" y="-216.2" font-family="Helvetica,sans-Serif" font-size="11.00"> &#160;</text>
<polygon fill="black" stroke="black" points="562,-211 562,-227 562,-227 562,-211 562,-211"/>
<polygon fill="black" stroke="black" points="609,-211 609,-227 609,-227 609,-211 609,-211"/>
</a>
</g>
</g>
<!-- c_poskey&#45;&gt;c_poskeylayout -->
<g id="edge6" class="edge">
<title>c_poskey:w&#45;&gt;c_poskeylayout:e</title>
<path fill="none" stroke="black" d="M488.49,-390.9C416.63,-412.4 539.25,-609 443.5,-609"/>
<polygon fill="black" stroke="black" points="495.07,-390.04 503.47,-392.57 499.03,-389.52 503,-389 503,-389 503,-389 499.03,-389.52 502.53,-385.43 495.07,-390.04 495.07,-390.04"/>
<ellipse fill="none" stroke="black" cx="491.9" cy="-390.46" rx="3.2" ry="3.2"/>
</g>
<!-- c_poskey&#45;&gt;c_poskeylayout -->
<g id="edge7" class="edge">
<title>c_poskey:w&#45;&gt;c_poskeylayout:e</title>
<path fill="none" stroke="black" d="M489.26,-306.35C444.86,-347.25 507.76,-609 443.5,-609"/>
<polygon fill="black" stroke="black" points="495.54,-303.9 504.31,-304.36 499.27,-302.45 503,-301 503,-301 503,-301 499.27,-302.45 501.69,-297.64 495.54,-303.9 495.54,-303.9"/>
<ellipse fill="none" stroke="black" cx="492.56" cy="-305.06" rx="3.2" ry="3.2"/>
</g>
<!-- c_poskey&#45;&gt;ad_printcolor -->
<g id="edge4" class="edge">
<title>c_poskey:w&#45;&gt;ad_printcolor:e</title>
<path fill="none" stroke="black" d="M488.63,-342.15C459.63,-327.78 491.5,-262.93 452,-238 353.9,-176.09 289.83,-177.26 191,-238 157.47,-258.61 190.36,-317 151,-317"/>
<polygon fill="black" stroke="black" points="495.15,-343.44 502.3,-348.53 499.08,-344.22 503,-345 503,-345 503,-345 499.08,-344.22 503.7,-341.47 495.15,-343.44 495.15,-343.44"/>
<ellipse fill="none" stroke="black" cx="492.01" cy="-342.82" rx="3.2" ry="3.2"/>
</g>
<!-- c_poskey&#45;&gt;ad_printfont -->
<g id="edge5" class="edge">
<title>c_poskey:w&#45;&gt;ad_printfont:e</title>
<path fill="none" stroke="black" d="M488.85,-253.56C470.71,-242.44 478.62,-207.29 452,-192 333.73,-124.06 284.39,-150 148,-150"/>
<polygon fill="black" stroke="black" points="495.23,-255.11 502.15,-260.5 499.11,-256.05 503,-257 503,-257 503,-257 499.11,-256.05 503.85,-253.5 495.23,-255.11 495.23,-255.11"/>
<ellipse fill="none" stroke="black" cx="492.12" cy="-254.35" rx="3.2" ry="3.2"/>
</g>
</g>
</svg>
