<?xml version="1.0" encoding="UTF-8" standalone="no"?>
<!DOCTYPE svg PUBLIC "-//W3C//DTD SVG 1.1//EN"
 "http://www.w3.org/Graphics/SVG/1.1/DTD/svg11.dtd">
<!-- Generated by graphviz version 2.43.0 (0)
 -->
<!-- Title: oneDegreeRelationshipsDiagram Pages: 1 -->
<svg width="951pt" height="1004pt"
 viewBox="0.00 0.00 951.00 1004.27" xmlns="http://www.w3.org/2000/svg" xmlns:xlink="http://www.w3.org/1999/xlink">
<g id="graph0" class="graph" transform="scale(1 1) rotate(0) translate(4 1000.27)">
<title>oneDegreeRelationshipsDiagram</title>
<polygon fill="#ffffff" stroke="transparent" points="-4,4 -4,-1000.27 947,-1000.27 947,4 -4,4"/>
<text text-anchor="middle" x="71.5" y="-7.2" font-family="Helvetica,sans-Serif" font-size="11.00">Generated by SchemaSpy</text>
<!-- c_rfq_topicsubscriberonly -->
<g id="node1" class="node">
<title>c_rfq_topicsubscriberonly</title>
<g id="a_node1"><a xlink:href="../../tables/c_rfq_topicsubscriberonly.html" xlink:title="c_rfq_topicsubscriberonly" target="_top">
<polygon fill="#ffffff" stroke="transparent" points="616,-662.27 616,-992.27 935,-992.27 935,-662.27 616,-662.27"/>
<polygon fill="#f5f5f5" stroke="transparent" points="618.5,-968.27 618.5,-990.27 933.5,-990.27 933.5,-968.27 618.5,-968.27"/>
<polygon fill="none" stroke="black" points="618.5,-968.27 618.5,-990.27 933.5,-990.27 933.5,-968.27 618.5,-968.27"/>
<text text-anchor="start" x="623.5" y="-977.47" font-family="Helvetica,sans-Serif" font-weight="bold" font-size="11.00">c_rfq_topicsubscriberonly</text>
<text text-anchor="start" x="898.5" y="-976.47" font-family="Helvetica,sans-Serif" font-size="11.00">[table]</text>
<polygon fill="none" stroke="black" points="618.5,-946.27 618.5,-968.27 850.5,-968.27 850.5,-946.27 618.5,-946.27"/>
<image xlink:href="../../images/primaryKeys.png" width="11px" height="12px" preserveAspectRatio="xMinYMin meet" x="623.5" y="-963.272"/>
<text text-anchor="start" x="638.5" y="-954.47" font-family="Helvetica,sans-Serif" font-size="11.00">c_rfq_topicsubscriberonly_id</text>
<polygon fill="none" stroke="black" points="850.5,-946.27 850.5,-968.27 933.5,-968.27 933.5,-946.27 850.5,-946.27"/>
<text text-anchor="start" x="853.5" y="-954.47" font-family="Helvetica,sans-Serif" font-size="11.00">numeric[10]</text>
<polygon fill="none" stroke="black" points="618.5,-924.27 618.5,-946.27 850.5,-946.27 850.5,-924.27 618.5,-924.27"/>
<text text-anchor="start" x="638.5" y="-932.47" font-family="Helvetica,sans-Serif" font-size="11.00">ad_client_id</text>
<polygon fill="none" stroke="black" points="850.5,-924.27 850.5,-946.27 933.5,-946.27 933.5,-924.27 850.5,-924.27"/>
<text text-anchor="start" x="853.5" y="-932.47" font-family="Helvetica,sans-Serif" font-size="11.00">numeric[10]</text>
<polygon fill="none" stroke="black" points="618.5,-902.27 618.5,-924.27 850.5,-924.27 850.5,-902.27 618.5,-902.27"/>
<text text-anchor="start" x="638.5" y="-910.47" font-family="Helvetica,sans-Serif" font-size="11.00">ad_org_id</text>
<polygon fill="none" stroke="black" points="850.5,-902.27 850.5,-924.27 933.5,-924.27 933.5,-902.27 850.5,-902.27"/>
<text text-anchor="start" x="853.5" y="-910.47" font-family="Helvetica,sans-Serif" font-size="11.00">numeric[10]</text>
<polygon fill="none" stroke="black" points="618.5,-880.27 618.5,-902.27 850.5,-902.27 850.5,-880.27 618.5,-880.27"/>
<text text-anchor="start" x="638.5" y="-888.47" font-family="Helvetica,sans-Serif" font-size="11.00">isactive</text>
<polygon fill="none" stroke="black" points="850.5,-880.27 850.5,-902.27 933.5,-902.27 933.5,-880.27 850.5,-880.27"/>
<text text-anchor="start" x="853.5" y="-888.47" font-family="Helvetica,sans-Serif" font-size="11.00">bpchar[1]</text>
<polygon fill="none" stroke="black" points="618.5,-858.27 618.5,-880.27 850.5,-880.27 850.5,-858.27 618.5,-858.27"/>
<text text-anchor="start" x="638.5" y="-866.47" font-family="Helvetica,sans-Serif" font-size="11.00">created</text>
<polygon fill="none" stroke="black" points="850.5,-858.27 850.5,-880.27 933.5,-880.27 933.5,-858.27 850.5,-858.27"/>
<text text-anchor="start" x="853.5" y="-866.47" font-family="Helvetica,sans-Serif" font-size="11.00">timestamp[29,6]</text>
<polygon fill="none" stroke="black" points="618.5,-836.27 618.5,-858.27 850.5,-858.27 850.5,-836.27 618.5,-836.27"/>
<text text-anchor="start" x="638.5" y="-844.47" font-family="Helvetica,sans-Serif" font-size="11.00">createdby</text>
<polygon fill="none" stroke="black" points="850.5,-836.27 850.5,-858.27 933.5,-858.27 933.5,-836.27 850.5,-836.27"/>
<text text-anchor="start" x="853.5" y="-844.47" font-family="Helvetica,sans-Serif" font-size="11.00">numeric[10]</text>
<polygon fill="none" stroke="black" points="618.5,-814.27 618.5,-836.27 850.5,-836.27 850.5,-814.27 618.5,-814.27"/>
<text text-anchor="start" x="638.5" y="-822.47" font-family="Helvetica,sans-Serif" font-size="11.00">updated</text>
<polygon fill="none" stroke="black" points="850.5,-814.27 850.5,-836.27 933.5,-836.27 933.5,-814.27 850.5,-814.27"/>
<text text-anchor="start" x="853.5" y="-822.47" font-family="Helvetica,sans-Serif" font-size="11.00">timestamp[29,6]</text>
<polygon fill="none" stroke="black" points="618.5,-792.27 618.5,-814.27 850.5,-814.27 850.5,-792.27 618.5,-792.27"/>
<text text-anchor="start" x="638.5" y="-800.47" font-family="Helvetica,sans-Serif" font-size="11.00">updatedby</text>
<polygon fill="none" stroke="black" points="850.5,-792.27 850.5,-814.27 933.5,-814.27 933.5,-792.27 850.5,-792.27"/>
<text text-anchor="start" x="853.5" y="-800.47" font-family="Helvetica,sans-Serif" font-size="11.00">numeric[10]</text>
<polygon fill="none" stroke="black" points="618.5,-770.27 618.5,-792.27 850.5,-792.27 850.5,-770.27 618.5,-770.27"/>
<image xlink:href="../../images/foreignKeys.png" width="11px" height="12px" preserveAspectRatio="xMinYMin meet" x="623.5" y="-787.272"/>
<text text-anchor="start" x="638.5" y="-778.47" font-family="Helvetica,sans-Serif" font-size="11.00">c_rfq_topicsubscriber_id</text>
<polygon fill="none" stroke="black" points="850.5,-770.27 850.5,-792.27 933.5,-792.27 933.5,-770.27 850.5,-770.27"/>
<text text-anchor="start" x="853.5" y="-778.47" font-family="Helvetica,sans-Serif" font-size="11.00">numeric[10]</text>
<polygon fill="none" stroke="black" points="618.5,-748.27 618.5,-770.27 850.5,-770.27 850.5,-748.27 618.5,-748.27"/>
<text text-anchor="start" x="638.5" y="-756.47" font-family="Helvetica,sans-Serif" font-size="11.00">description</text>
<polygon fill="none" stroke="black" points="850.5,-748.27 850.5,-770.27 933.5,-770.27 933.5,-748.27 850.5,-748.27"/>
<text text-anchor="start" x="853.5" y="-756.47" font-family="Helvetica,sans-Serif" font-size="11.00">varchar[255]</text>
<polygon fill="none" stroke="black" points="618.5,-726.27 618.5,-748.27 850.5,-748.27 850.5,-726.27 618.5,-726.27"/>
<image xlink:href="../../images/foreignKeys.png" width="11px" height="12px" preserveAspectRatio="xMinYMin meet" x="623.5" y="-743.272"/>
<text text-anchor="start" x="638.5" y="-734.47" font-family="Helvetica,sans-Serif" font-size="11.00">m_product_id</text>
<polygon fill="none" stroke="black" points="850.5,-726.27 850.5,-748.27 933.5,-748.27 933.5,-726.27 850.5,-726.27"/>
<text text-anchor="start" x="853.5" y="-734.47" font-family="Helvetica,sans-Serif" font-size="11.00">numeric[10]</text>
<polygon fill="none" stroke="black" points="618.5,-704.27 618.5,-726.27 850.5,-726.27 850.5,-704.27 618.5,-704.27"/>
<image xlink:href="../../images/foreignKeys.png" width="11px" height="12px" preserveAspectRatio="xMinYMin meet" x="623.5" y="-721.272"/>
<text text-anchor="start" x="638.5" y="-712.47" font-family="Helvetica,sans-Serif" font-size="11.00">m_product_category_id</text>
<polygon fill="none" stroke="black" points="850.5,-704.27 850.5,-726.27 933.5,-726.27 933.5,-704.27 850.5,-704.27"/>
<text text-anchor="start" x="853.5" y="-712.47" font-family="Helvetica,sans-Serif" font-size="11.00">numeric[10]</text>
<polygon fill="#ffffff" stroke="transparent" points="618.5,-682.27 618.5,-704.27 850.5,-704.27 850.5,-682.27 618.5,-682.27"/>
<polygon fill="none" stroke="black" points="618.5,-682.27 618.5,-704.27 850.5,-704.27 850.5,-682.27 618.5,-682.27"/>
<text text-anchor="start" x="638.5" y="-690.47" font-family="Helvetica,sans-Serif" font-size="11.00">c_rfq_topicsubscriberonly_uu</text>
<polygon fill="none" stroke="black" points="850.5,-682.27 850.5,-704.27 933.5,-704.27 933.5,-682.27 850.5,-682.27"/>
<text text-anchor="start" x="853.5" y="-690.47" font-family="Helvetica,sans-Serif" font-size="11.00">varchar[36]</text>
<polygon fill="#ffffff" stroke="transparent" points="618.5,-664.27 618.5,-682.27 933.5,-682.27 933.5,-664.27 618.5,-664.27"/>
<polygon fill="none" stroke="black" points="618.5,-664.27 618.5,-682.27 933.5,-682.27 933.5,-664.27 618.5,-664.27"/>
<polygon fill="#ffffff" stroke="transparent" points="619.5,-665.27 619.5,-681.27 727.5,-681.27 727.5,-665.27 619.5,-665.27"/>
<text text-anchor="start" x="621.5" y="-670.47" font-family="Helvetica,sans-Serif" font-size="11.00">&lt; 3</text>
<polygon fill="#ffffff" stroke="transparent" points="727.5,-665.27 727.5,-681.27 825.5,-681.27 825.5,-665.27 727.5,-665.27"/>
<text text-anchor="start" x="773" y="-670.47" font-family="Helvetica,sans-Serif" font-size="11.00"> &#160;</text>
<polygon fill="#ffffff" stroke="transparent" points="825.5,-665.27 825.5,-681.27 932.5,-681.27 932.5,-665.27 825.5,-665.27"/>
<text text-anchor="start" x="914.5" y="-670.47" font-family="Helvetica,sans-Serif" font-size="11.00">0 &gt;</text>
<polygon fill="black" stroke="black" points="727.5,-665.27 727.5,-681.27 727.5,-681.27 727.5,-665.27 727.5,-665.27"/>
<polygon fill="black" stroke="black" points="825.5,-665.27 825.5,-681.27 825.5,-681.27 825.5,-665.27 825.5,-665.27"/>
<polygon fill="none" stroke="black" stroke-width="2" points="617,-663.27 617,-991.27 934,-991.27 934,-663.27 617,-663.27"/>
</a>
</g>
</g>
<!-- c_rfq_topicsubscriber -->
<g id="node2" class="node">
<title>c_rfq_topicsubscriber</title>
<g id="a_node2"><a xlink:href="../../tables/c_rfq_topicsubscriber.html" xlink:title="c_rfq_topicsubscriber" target="_top">
<polygon fill="#ffffff" stroke="transparent" points="333.5,-791.27 333.5,-981.27 534.5,-981.27 534.5,-791.27 333.5,-791.27"/>
<polygon fill="#f5f5f5" stroke="transparent" points="334,-959.27 334,-981.27 535,-981.27 535,-959.27 334,-959.27"/>
<polygon fill="none" stroke="black" points="334,-959.27 334,-981.27 535,-981.27 535,-959.27 334,-959.27"/>
<text text-anchor="start" x="339" y="-968.47" font-family="Helvetica,sans-Serif" font-weight="bold" font-size="11.00">c_rfq_topicsubscriber</text>
<text text-anchor="start" x="500" y="-967.47" font-family="Helvetica,sans-Serif" font-size="11.00">[table]</text>
<polygon fill="none" stroke="black" points="334,-937.27 334,-959.27 535,-959.27 535,-937.27 334,-937.27"/>
<image xlink:href="../../images/primaryKeys.png" width="11px" height="12px" preserveAspectRatio="xMinYMin meet" x="339" y="-954.272"/>
<text text-anchor="start" x="354" y="-945.47" font-family="Helvetica,sans-Serif" font-size="11.00">c_rfq_topicsubscriber_id</text>
<polygon fill="none" stroke="black" points="334,-915.27 334,-937.27 535,-937.27 535,-915.27 334,-915.27"/>
<image xlink:href="../../images/foreignKeys.png" width="11px" height="12px" preserveAspectRatio="xMinYMin meet" x="339" y="-932.272"/>
<text text-anchor="start" x="354" y="-923.47" font-family="Helvetica,sans-Serif" font-size="11.00">c_rfq_topic_id</text>
<polygon fill="none" stroke="black" points="334,-893.27 334,-915.27 535,-915.27 535,-893.27 334,-893.27"/>
<image xlink:href="../../images/foreignKeys.png" width="11px" height="12px" preserveAspectRatio="xMinYMin meet" x="339" y="-910.272"/>
<text text-anchor="start" x="354" y="-901.47" font-family="Helvetica,sans-Serif" font-size="11.00">c_bpartner_id</text>
<polygon fill="none" stroke="black" points="334,-871.27 334,-893.27 535,-893.27 535,-871.27 334,-871.27"/>
<image xlink:href="../../images/foreignKeys.png" width="11px" height="12px" preserveAspectRatio="xMinYMin meet" x="339" y="-888.272"/>
<text text-anchor="start" x="354" y="-879.47" font-family="Helvetica,sans-Serif" font-size="11.00">c_bpartner_location_id</text>
<polygon fill="none" stroke="black" points="334,-849.27 334,-871.27 535,-871.27 535,-849.27 334,-849.27"/>
<image xlink:href="../../images/foreignKeys.png" width="11px" height="12px" preserveAspectRatio="xMinYMin meet" x="339" y="-866.272"/>
<text text-anchor="start" x="354" y="-857.47" font-family="Helvetica,sans-Serif" font-size="11.00">ad_user_id</text>
<polygon fill="#ffffff" stroke="transparent" points="334,-827.27 334,-849.27 535,-849.27 535,-827.27 334,-827.27"/>
<polygon fill="none" stroke="black" points="334,-827.27 334,-849.27 535,-849.27 535,-827.27 334,-827.27"/>
<text text-anchor="start" x="354" y="-835.47" font-family="Helvetica,sans-Serif" font-size="11.00">c_rfq_topicsubscriber_uu</text>
<polygon fill="none" stroke="black" points="334,-809.27 334,-827.27 535,-827.27 535,-809.27 334,-809.27"/>
<text text-anchor="start" x="337" y="-815.47" font-family="Helvetica,sans-Serif" font-size="11.00">...</text>
<polygon fill="#ffffff" stroke="transparent" points="334,-791.27 334,-809.27 535,-809.27 535,-791.27 334,-791.27"/>
<polygon fill="none" stroke="black" points="334,-791.27 334,-809.27 535,-809.27 535,-791.27 334,-791.27"/>
<polygon fill="#ffffff" stroke="transparent" points="335,-792.27 335,-808.27 405,-808.27 405,-792.27 335,-792.27"/>
<text text-anchor="start" x="337" y="-797.47" font-family="Helvetica,sans-Serif" font-size="11.00">&lt; 4</text>
<polygon fill="#ffffff" stroke="transparent" points="405,-792.27 405,-808.27 465,-808.27 465,-792.27 405,-792.27"/>
<text text-anchor="start" x="431.5" y="-797.47" font-family="Helvetica,sans-Serif" font-size="11.00"> &#160;</text>
<polygon fill="#ffffff" stroke="transparent" points="465,-792.27 465,-808.27 534,-808.27 534,-792.27 465,-792.27"/>
<text text-anchor="start" x="516" y="-797.47" font-family="Helvetica,sans-Serif" font-size="11.00">1 &gt;</text>
<polygon fill="black" stroke="black" points="405,-792.27 405,-808.27 405,-808.27 405,-792.27 405,-792.27"/>
<polygon fill="black" stroke="black" points="465,-792.27 465,-808.27 465,-808.27 465,-792.27 465,-792.27"/>
</a>
</g>
</g>
<!-- c_rfq_topicsubscriberonly&#45;&gt;c_rfq_topicsubscriber -->
<g id="edge1" class="edge">
<title>c_rfq_topicsubscriberonly:w&#45;&gt;c_rfq_topicsubscriber:e</title>
<path fill="none" stroke="black" d="M603.15,-783.38C545.29,-802.71 613.1,-948.27 536,-948.27"/>
<polygon fill="black" stroke="black" points="609.59,-782.44 618.02,-784.83 613.54,-781.85 617.5,-781.27 617.5,-781.27 617.5,-781.27 613.54,-781.85 616.98,-777.71 609.59,-782.44 609.59,-782.44"/>
<ellipse fill="none" stroke="black" cx="606.42" cy="-782.9" rx="3.2" ry="3.2"/>
</g>
<!-- m_product_category -->
<g id="node3" class="node">
<title>m_product_category</title>
<g id="a_node3"><a xlink:href="../../tables/m_product_category.html" xlink:title="m_product_category" target="_top">
<polygon fill="#ffffff" stroke="transparent" points="8,-115.27 8,-327.27 252,-327.27 252,-115.27 8,-115.27"/>
<polygon fill="#f5f5f5" stroke="transparent" points="8,-305.27 8,-327.27 252,-327.27 252,-305.27 8,-305.27"/>
<polygon fill="none" stroke="black" points="8,-305.27 8,-327.27 252,-327.27 252,-305.27 8,-305.27"/>
<text text-anchor="start" x="13" y="-314.47" font-family="Helvetica,sans-Serif" font-weight="bold" font-size="11.00">m_product_category</text>
<text text-anchor="start" x="217" y="-313.47" font-family="Helvetica,sans-Serif" font-size="11.00">[table]</text>
<polygon fill="none" stroke="black" points="8,-283.27 8,-305.27 252,-305.27 252,-283.27 8,-283.27"/>
<image xlink:href="../../images/primaryKeys.png" width="11px" height="12px" preserveAspectRatio="xMinYMin meet" x="13" y="-300.272"/>
<text text-anchor="start" x="28" y="-291.47" font-family="Helvetica,sans-Serif" font-size="11.00">m_product_category_id</text>
<polygon fill="#ffffff" stroke="transparent" points="8,-261.27 8,-283.27 252,-283.27 252,-261.27 8,-261.27"/>
<polygon fill="none" stroke="black" points="8,-261.27 8,-283.27 252,-283.27 252,-261.27 8,-261.27"/>
<text text-anchor="start" x="28" y="-269.47" font-family="Helvetica,sans-Serif" font-size="11.00">ad_client_id</text>
<polygon fill="#ffffff" stroke="transparent" points="8,-239.27 8,-261.27 252,-261.27 252,-239.27 8,-239.27"/>
<polygon fill="none" stroke="black" points="8,-239.27 8,-261.27 252,-261.27 252,-239.27 8,-239.27"/>
<text text-anchor="start" x="28" y="-247.47" font-family="Helvetica,sans-Serif" font-size="11.00">value</text>
<polygon fill="none" stroke="black" points="8,-217.27 8,-239.27 252,-239.27 252,-217.27 8,-217.27"/>
<image xlink:href="../../images/foreignKeys.png" width="11px" height="12px" preserveAspectRatio="xMinYMin meet" x="13" y="-234.272"/>
<text text-anchor="start" x="28" y="-225.47" font-family="Helvetica,sans-Serif" font-size="11.00">a_asset_group_id</text>
<polygon fill="none" stroke="black" points="8,-195.27 8,-217.27 252,-217.27 252,-195.27 8,-195.27"/>
<image xlink:href="../../images/foreignKeys.png" width="11px" height="12px" preserveAspectRatio="xMinYMin meet" x="13" y="-212.272"/>
<text text-anchor="start" x="28" y="-203.47" font-family="Helvetica,sans-Serif" font-size="11.00">ad_printcolor_id</text>
<polygon fill="none" stroke="black" points="8,-173.27 8,-195.27 252,-195.27 252,-173.27 8,-173.27"/>
<image xlink:href="../../images/foreignKeys.png" width="11px" height="12px" preserveAspectRatio="xMinYMin meet" x="13" y="-190.272"/>
<text text-anchor="start" x="28" y="-181.47" font-family="Helvetica,sans-Serif" font-size="11.00">m_product_category_parent_id</text>
<polygon fill="#ffffff" stroke="transparent" points="8,-151.27 8,-173.27 252,-173.27 252,-151.27 8,-151.27"/>
<polygon fill="none" stroke="black" points="8,-151.27 8,-173.27 252,-173.27 252,-151.27 8,-151.27"/>
<text text-anchor="start" x="28" y="-159.47" font-family="Helvetica,sans-Serif" font-size="11.00">m_product_category_uu</text>
<polygon fill="none" stroke="black" points="8,-133.27 8,-151.27 252,-151.27 252,-133.27 8,-133.27"/>
<text text-anchor="start" x="11" y="-139.47" font-family="Helvetica,sans-Serif" font-size="11.00">...</text>
<polygon fill="#ffffff" stroke="transparent" points="8,-115.27 8,-133.27 252,-133.27 252,-115.27 8,-115.27"/>
<polygon fill="none" stroke="black" points="8,-115.27 8,-133.27 252,-133.27 252,-115.27 8,-115.27"/>
<polygon fill="#ffffff" stroke="transparent" points="9,-116.27 9,-132.27 82,-132.27 82,-116.27 9,-116.27"/>
<text text-anchor="start" x="11" y="-121.47" font-family="Helvetica,sans-Serif" font-size="11.00">&lt; 3</text>
<polygon fill="#ffffff" stroke="transparent" points="82,-116.27 82,-132.27 172,-132.27 172,-116.27 82,-116.27"/>
<text text-anchor="start" x="110.5" y="-121.47" font-family="Helvetica,sans-Serif" font-size="11.00">5 rows</text>
<polygon fill="#ffffff" stroke="transparent" points="172,-116.27 172,-132.27 251,-132.27 251,-116.27 172,-116.27"/>
<text text-anchor="start" x="227" y="-121.47" font-family="Helvetica,sans-Serif" font-size="11.00">26 &gt;</text>
<polygon fill="black" stroke="black" points="82,-116.27 82,-132.27 82,-132.27 82,-116.27 82,-116.27"/>
<polygon fill="black" stroke="black" points="172,-116.27 172,-132.27 172,-132.27 172,-116.27 172,-116.27"/>
</a>
</g>
</g>
<!-- c_rfq_topicsubscriberonly&#45;&gt;m_product_category -->
<g id="edge2" class="edge">
<title>c_rfq_topicsubscriberonly:w&#45;&gt;m_product_category:e</title>
<path fill="none" stroke="black" d="M605.03,-707.65C555.42,-637.83 624.39,-110.54 575,-64.27 529.27,-21.43 340.96,-23.93 293,-64.27 213.6,-131.06 356.76,-294.27 253,-294.27"/>
<polygon fill="black" stroke="black" points="610.67,-711.1 615.62,-718.34 614.09,-713.19 617.5,-715.27 617.5,-715.27 617.5,-715.27 614.09,-713.19 619.38,-712.2 610.67,-711.1 610.67,-711.1"/>
<ellipse fill="none" stroke="black" cx="607.94" cy="-709.43" rx="3.2" ry="3.2"/>
</g>
<!-- m_product -->
<g id="node4" class="node">
<title>m_product</title>
<g id="a_node4"><a xlink:href="../../tables/m_product.html" xlink:title="m_product" target="_top">
<polygon fill="#ffffff" stroke="transparent" points="301,-74.27 301,-770.27 567,-770.27 567,-74.27 301,-74.27"/>
<polygon fill="#f5f5f5" stroke="transparent" points="301,-748.27 301,-770.27 567,-770.27 567,-748.27 301,-748.27"/>
<polygon fill="none" stroke="black" points="301,-748.27 301,-770.27 567,-770.27 567,-748.27 301,-748.27"/>
<text text-anchor="start" x="306" y="-757.47" font-family="Helvetica,sans-Serif" font-weight="bold" font-size="11.00">m_product</text>
<text text-anchor="start" x="532" y="-756.47" font-family="Helvetica,sans-Serif" font-size="11.00">[table]</text>
<polygon fill="none" stroke="black" points="301,-726.27 301,-748.27 567,-748.27 567,-726.27 301,-726.27"/>
<image xlink:href="../../images/primaryKeys.png" width="11px" height="12px" preserveAspectRatio="xMinYMin meet" x="306" y="-743.272"/>
<text text-anchor="start" x="321" y="-734.47" font-family="Helvetica,sans-Serif" font-size="11.00">m_product_id</text>
<polygon fill="#ffffff" stroke="transparent" points="301,-704.27 301,-726.27 567,-726.27 567,-704.27 301,-704.27"/>
<polygon fill="none" stroke="black" points="301,-704.27 301,-726.27 567,-726.27 567,-704.27 301,-704.27"/>
<image xlink:href="../../images/foreignKeys.png" width="11px" height="12px" preserveAspectRatio="xMinYMin meet" x="306" y="-721.272"/>
<text text-anchor="start" x="321" y="-712.47" font-family="Helvetica,sans-Serif" font-size="11.00">ad_client_id</text>
<polygon fill="none" stroke="black" points="301,-682.27 301,-704.27 567,-704.27 567,-682.27 301,-682.27"/>
<image xlink:href="../../images/foreignKeys.png" width="11px" height="12px" preserveAspectRatio="xMinYMin meet" x="306" y="-699.272"/>
<text text-anchor="start" x="321" y="-690.47" font-family="Helvetica,sans-Serif" font-size="11.00">ad_org_id</text>
<polygon fill="#ffffff" stroke="transparent" points="301,-660.27 301,-682.27 567,-682.27 567,-660.27 301,-660.27"/>
<polygon fill="none" stroke="black" points="301,-660.27 301,-682.27 567,-682.27 567,-660.27 301,-660.27"/>
<text text-anchor="start" x="321" y="-668.47" font-family="Helvetica,sans-Serif" font-size="11.00">value</text>
<polygon fill="#ffffff" stroke="transparent" points="301,-638.27 301,-660.27 567,-660.27 567,-638.27 301,-638.27"/>
<polygon fill="none" stroke="black" points="301,-638.27 301,-660.27 567,-660.27 567,-638.27 301,-638.27"/>
<text text-anchor="start" x="321" y="-646.47" font-family="Helvetica,sans-Serif" font-size="11.00">name</text>
<polygon fill="#ffffff" stroke="transparent" points="301,-616.27 301,-638.27 567,-638.27 567,-616.27 301,-616.27"/>
<polygon fill="none" stroke="black" points="301,-616.27 301,-638.27 567,-638.27 567,-616.27 301,-616.27"/>
<text text-anchor="start" x="321" y="-624.47" font-family="Helvetica,sans-Serif" font-size="11.00">upc</text>
<polygon fill="none" stroke="black" points="301,-594.27 301,-616.27 567,-616.27 567,-594.27 301,-594.27"/>
<image xlink:href="../../images/foreignKeys.png" width="11px" height="12px" preserveAspectRatio="xMinYMin meet" x="306" y="-611.272"/>
<text text-anchor="start" x="321" y="-602.47" font-family="Helvetica,sans-Serif" font-size="11.00">c_uom_id</text>
<polygon fill="none" stroke="black" points="301,-572.27 301,-594.27 567,-594.27 567,-572.27 301,-572.27"/>
<image xlink:href="../../images/foreignKeys.png" width="11px" height="12px" preserveAspectRatio="xMinYMin meet" x="306" y="-589.272"/>
<text text-anchor="start" x="321" y="-580.47" font-family="Helvetica,sans-Serif" font-size="11.00">salesrep_id</text>
<polygon fill="none" stroke="black" points="301,-550.27 301,-572.27 567,-572.27 567,-550.27 301,-550.27"/>
<image xlink:href="../../images/foreignKeys.png" width="11px" height="12px" preserveAspectRatio="xMinYMin meet" x="306" y="-567.272"/>
<text text-anchor="start" x="321" y="-558.47" font-family="Helvetica,sans-Serif" font-size="11.00">c_revenuerecognition_id</text>
<polygon fill="#ffffff" stroke="transparent" points="301,-528.27 301,-550.27 567,-550.27 567,-528.27 301,-528.27"/>
<polygon fill="none" stroke="black" points="301,-528.27 301,-550.27 567,-550.27 567,-528.27 301,-528.27"/>
<image xlink:href="../../images/foreignKeys.png" width="11px" height="12px" preserveAspectRatio="xMinYMin meet" x="306" y="-545.272"/>
<text text-anchor="start" x="321" y="-536.47" font-family="Helvetica,sans-Serif" font-size="11.00">m_product_category_id</text>
<polygon fill="none" stroke="black" points="301,-506.27 301,-528.27 567,-528.27 567,-506.27 301,-506.27"/>
<image xlink:href="../../images/foreignKeys.png" width="11px" height="12px" preserveAspectRatio="xMinYMin meet" x="306" y="-523.272"/>
<text text-anchor="start" x="321" y="-514.47" font-family="Helvetica,sans-Serif" font-size="11.00">c_taxcategory_id</text>
<polygon fill="#ffffff" stroke="transparent" points="301,-484.27 301,-506.27 567,-506.27 567,-484.27 301,-484.27"/>
<polygon fill="none" stroke="black" points="301,-484.27 301,-506.27 567,-506.27 567,-484.27 301,-484.27"/>
<image xlink:href="../../images/foreignKeys.png" width="11px" height="12px" preserveAspectRatio="xMinYMin meet" x="306" y="-501.272"/>
<text text-anchor="start" x="321" y="-492.47" font-family="Helvetica,sans-Serif" font-size="11.00">s_resource_id</text>
<polygon fill="#ffffff" stroke="transparent" points="301,-462.27 301,-484.27 567,-484.27 567,-462.27 301,-462.27"/>
<polygon fill="none" stroke="black" points="301,-462.27 301,-484.27 567,-484.27 567,-462.27 301,-462.27"/>
<image xlink:href="../../images/foreignKeys.png" width="11px" height="12px" preserveAspectRatio="xMinYMin meet" x="306" y="-479.272"/>
<text text-anchor="start" x="321" y="-470.47" font-family="Helvetica,sans-Serif" font-size="11.00">s_expensetype_id</text>
<polygon fill="none" stroke="black" points="301,-440.27 301,-462.27 567,-462.27 567,-440.27 301,-440.27"/>
<image xlink:href="../../images/foreignKeys.png" width="11px" height="12px" preserveAspectRatio="xMinYMin meet" x="306" y="-457.272"/>
<text text-anchor="start" x="321" y="-448.47" font-family="Helvetica,sans-Serif" font-size="11.00">r_mailtext_id</text>
<polygon fill="none" stroke="black" points="301,-418.27 301,-440.27 567,-440.27 567,-418.27 301,-418.27"/>
<image xlink:href="../../images/foreignKeys.png" width="11px" height="12px" preserveAspectRatio="xMinYMin meet" x="306" y="-435.272"/>
<text text-anchor="start" x="321" y="-426.47" font-family="Helvetica,sans-Serif" font-size="11.00">m_attributeset_id</text>
<polygon fill="none" stroke="black" points="301,-396.27 301,-418.27 567,-418.27 567,-396.27 301,-396.27"/>
<image xlink:href="../../images/foreignKeys.png" width="11px" height="12px" preserveAspectRatio="xMinYMin meet" x="306" y="-413.272"/>
<text text-anchor="start" x="321" y="-404.47" font-family="Helvetica,sans-Serif" font-size="11.00">m_freightcategory_id</text>
<polygon fill="none" stroke="black" points="301,-374.27 301,-396.27 567,-396.27 567,-374.27 301,-374.27"/>
<image xlink:href="../../images/foreignKeys.png" width="11px" height="12px" preserveAspectRatio="xMinYMin meet" x="306" y="-391.272"/>
<text text-anchor="start" x="321" y="-382.47" font-family="Helvetica,sans-Serif" font-size="11.00">m_locator_id</text>
<polygon fill="none" stroke="black" points="301,-352.27 301,-374.27 567,-374.27 567,-352.27 301,-352.27"/>
<image xlink:href="../../images/foreignKeys.png" width="11px" height="12px" preserveAspectRatio="xMinYMin meet" x="306" y="-369.272"/>
<text text-anchor="start" x="321" y="-360.47" font-family="Helvetica,sans-Serif" font-size="11.00">c_subscriptiontype_id</text>
<polygon fill="#ffffff" stroke="transparent" points="301,-330.27 301,-352.27 567,-352.27 567,-330.27 301,-330.27"/>
<polygon fill="none" stroke="black" points="301,-330.27 301,-352.27 567,-352.27 567,-330.27 301,-330.27"/>
<text text-anchor="start" x="321" y="-338.47" font-family="Helvetica,sans-Serif" font-size="11.00">m_product_uu</text>
<polygon fill="none" stroke="black" points="301,-308.27 301,-330.27 567,-330.27 567,-308.27 301,-308.27"/>
<image xlink:href="../../images/foreignKeys.png" width="11px" height="12px" preserveAspectRatio="xMinYMin meet" x="306" y="-325.272"/>
<text text-anchor="start" x="321" y="-316.47" font-family="Helvetica,sans-Serif" font-size="11.00">m_parttype_id</text>
<polygon fill="none" stroke="black" points="301,-286.27 301,-308.27 567,-308.27 567,-286.27 301,-286.27"/>
<image xlink:href="../../images/foreignKeys.png" width="11px" height="12px" preserveAspectRatio="xMinYMin meet" x="306" y="-303.272"/>
<text text-anchor="start" x="321" y="-294.47" font-family="Helvetica,sans-Serif" font-size="11.00">cof_cest_id</text>
<polygon fill="none" stroke="black" points="301,-264.27 301,-286.27 567,-286.27 567,-264.27 301,-264.27"/>
<image xlink:href="../../images/foreignKeys.png" width="11px" height="12px" preserveAspectRatio="xMinYMin meet" x="306" y="-281.272"/>
<text text-anchor="start" x="321" y="-272.47" font-family="Helvetica,sans-Serif" font-size="11.00">cof_c_generoitem_sped_id</text>
<polygon fill="none" stroke="black" points="301,-242.27 301,-264.27 567,-264.27 567,-242.27 301,-242.27"/>
<image xlink:href="../../images/foreignKeys.png" width="11px" height="12px" preserveAspectRatio="xMinYMin meet" x="306" y="-259.272"/>
<text text-anchor="start" x="321" y="-250.47" font-family="Helvetica,sans-Serif" font-size="11.00">cof_producttype_id</text>
<polygon fill="none" stroke="black" points="301,-220.27 301,-242.27 567,-242.27 567,-220.27 301,-220.27"/>
<image xlink:href="../../images/foreignKeys.png" width="11px" height="12px" preserveAspectRatio="xMinYMin meet" x="306" y="-237.272"/>
<text text-anchor="start" x="321" y="-228.47" font-family="Helvetica,sans-Serif" font-size="11.00">cof_productclass_id</text>
<polygon fill="none" stroke="black" points="301,-198.27 301,-220.27 567,-220.27 567,-198.27 301,-198.27"/>
<image xlink:href="../../images/foreignKeys.png" width="11px" height="12px" preserveAspectRatio="xMinYMin meet" x="306" y="-215.272"/>
<text text-anchor="start" x="321" y="-206.47" font-family="Helvetica,sans-Serif" font-size="11.00">cof_productgroup_id</text>
<polygon fill="none" stroke="black" points="301,-176.27 301,-198.27 567,-198.27 567,-176.27 301,-176.27"/>
<image xlink:href="../../images/foreignKeys.png" width="11px" height="12px" preserveAspectRatio="xMinYMin meet" x="306" y="-193.272"/>
<text text-anchor="start" x="321" y="-184.47" font-family="Helvetica,sans-Serif" font-size="11.00">cof_nbs_id</text>
<polygon fill="none" stroke="black" points="301,-154.27 301,-176.27 567,-176.27 567,-154.27 301,-154.27"/>
<image xlink:href="../../images/foreignKeys.png" width="11px" height="12px" preserveAspectRatio="xMinYMin meet" x="306" y="-171.272"/>
<text text-anchor="start" x="321" y="-162.47" font-family="Helvetica,sans-Serif" font-size="11.00">cof_grupofornecedor_id</text>
<polygon fill="none" stroke="black" points="301,-132.27 301,-154.27 567,-154.27 567,-132.27 301,-132.27"/>
<image xlink:href="../../images/foreignKeys.png" width="11px" height="12px" preserveAspectRatio="xMinYMin meet" x="306" y="-149.272"/>
<text text-anchor="start" x="321" y="-140.47" font-family="Helvetica,sans-Serif" font-size="11.00">cof_gruposeparacao_id</text>
<polygon fill="none" stroke="black" points="301,-110.27 301,-132.27 567,-132.27 567,-110.27 301,-110.27"/>
<image xlink:href="../../images/foreignKeys.png" width="11px" height="12px" preserveAspectRatio="xMinYMin meet" x="306" y="-127.272"/>
<text text-anchor="start" x="321" y="-118.47" font-family="Helvetica,sans-Serif" font-size="11.00">cof_servicoatrelado_id</text>
<polygon fill="none" stroke="black" points="301,-92.27 301,-110.27 567,-110.27 567,-92.27 301,-92.27"/>
<text text-anchor="start" x="304" y="-98.47" font-family="Helvetica,sans-Serif" font-size="11.00">...</text>
<polygon fill="#ffffff" stroke="transparent" points="301,-74.27 301,-92.27 567,-92.27 567,-74.27 301,-74.27"/>
<polygon fill="none" stroke="black" points="301,-74.27 301,-92.27 567,-92.27 567,-74.27 301,-74.27"/>
<polygon fill="#ffffff" stroke="transparent" points="302,-75.27 302,-91.27 386,-91.27 386,-75.27 302,-75.27"/>
<text text-anchor="start" x="304" y="-80.47" font-family="Helvetica,sans-Serif" font-size="11.00">&lt; 24</text>
<polygon fill="#ffffff" stroke="transparent" points="386,-75.27 386,-91.27 476,-91.27 476,-75.27 386,-75.27"/>
<text text-anchor="start" x="417" y="-80.47" font-family="Helvetica,sans-Serif" font-size="11.00">1 row</text>
<polygon fill="#ffffff" stroke="transparent" points="476,-75.27 476,-91.27 566,-91.27 566,-75.27 476,-75.27"/>
<text text-anchor="start" x="536" y="-80.47" font-family="Helvetica,sans-Serif" font-size="11.00">187 &gt;</text>
<polygon fill="black" stroke="black" points="386,-75.27 386,-91.27 386,-91.27 386,-75.27 386,-75.27"/>
<polygon fill="black" stroke="black" points="476,-75.27 476,-91.27 476,-91.27 476,-75.27 476,-75.27"/>
</a>
</g>
</g>
<!-- c_rfq_topicsubscriberonly&#45;&gt;m_product -->
<g id="edge3" class="edge">
<title>c_rfq_topicsubscriberonly:w&#45;&gt;m_product:e</title>
<path fill="none" stroke="black" d="M602.84,-737.27C591.41,-737.27 584.16,-737.27 568,-737.27"/>
<polygon fill="black" stroke="black" points="609.5,-737.27 617.5,-740.87 613.5,-737.27 617.5,-737.27 617.5,-737.27 617.5,-737.27 613.5,-737.27 617.5,-733.67 609.5,-737.27 609.5,-737.27"/>
<ellipse fill="none" stroke="black" cx="606.3" cy="-737.27" rx="3.2" ry="3.2"/>
</g>
<!-- m_product&#45;&gt;m_product_category -->
<g id="edge4" class="edge">
<title>m_product:w&#45;&gt;m_product_category:e</title>
<path fill="none" stroke="black" d="M285.24,-537.44C206.14,-515.02 358.24,-294.27 253,-294.27"/>
<polygon fill="black" stroke="black" points="292.06,-538.29 299.56,-542.84 296.03,-538.78 300,-539.27 300,-539.27 300,-539.27 296.03,-538.78 300.44,-535.7 292.06,-538.29 292.06,-538.29"/>
<ellipse fill="none" stroke="black" cx="288.89" cy="-537.89" rx="3.2" ry="3.2"/>
</g>
</g>
</svg>
