<?xml version="1.0" encoding="UTF-8" standalone="no"?>
<!DOCTYPE svg PUBLIC "-//W3C//DTD SVG 1.1//EN"
 "http://www.w3.org/Graphics/SVG/1.1/DTD/svg11.dtd">
<!-- Generated by graphviz version 2.43.0 (0)
 -->
<!-- Title: oneDegreeRelationshipsDiagram Pages: 1 -->
<svg width="702pt" height="531pt"
 viewBox="0.00 0.00 702.00 531.00" xmlns="http://www.w3.org/2000/svg" xmlns:xlink="http://www.w3.org/1999/xlink">
<g id="graph0" class="graph" transform="scale(1 1) rotate(0) translate(4 527)">
<title>oneDegreeRelationshipsDiagram</title>
<polygon fill="#ffffff" stroke="transparent" points="-4,4 -4,-527 698,-527 698,4 -4,4"/>
<text text-anchor="middle" x="71.5" y="-7.2" font-family="Helvetica,sans-Serif" font-size="11.00">Generated by SchemaSpy</text>
<!-- cm_media_server -->
<g id="node1" class="node">
<title>cm_media_server</title>
<g id="a_node1"><a xlink:href="../../tables/cm_media_server.html" xlink:title="cm_media_server" target="_top">
<polygon fill="#ffffff" stroke="transparent" points="212,-37 212,-499 470,-499 470,-37 212,-37"/>
<polygon fill="#f5f5f5" stroke="transparent" points="214,-475 214,-497 468,-497 468,-475 214,-475"/>
<polygon fill="none" stroke="black" points="214,-475 214,-497 468,-497 468,-475 214,-475"/>
<text text-anchor="start" x="219" y="-484.2" font-family="Helvetica,sans-Serif" font-weight="bold" font-size="11.00">cm_media_server</text>
<text text-anchor="start" x="433" y="-483.2" font-family="Helvetica,sans-Serif" font-size="11.00">[table]</text>
<polygon fill="none" stroke="black" points="214,-453 214,-475 385,-475 385,-453 214,-453"/>
<image xlink:href="../../images/primaryKeys.png" width="11px" height="12px" preserveAspectRatio="xMinYMin meet" x="219" y="-470"/>
<text text-anchor="start" x="234" y="-461.2" font-family="Helvetica,sans-Serif" font-size="11.00">cm_media_server_id</text>
<polygon fill="none" stroke="black" points="385,-453 385,-475 468,-475 468,-453 385,-453"/>
<text text-anchor="start" x="388" y="-461.2" font-family="Helvetica,sans-Serif" font-size="11.00">numeric[10]</text>
<polygon fill="none" stroke="black" points="214,-431 214,-453 385,-453 385,-431 214,-431"/>
<text text-anchor="start" x="234" y="-439.2" font-family="Helvetica,sans-Serif" font-size="11.00">ad_client_id</text>
<polygon fill="none" stroke="black" points="385,-431 385,-453 468,-453 468,-431 385,-431"/>
<text text-anchor="start" x="388" y="-439.2" font-family="Helvetica,sans-Serif" font-size="11.00">numeric[10]</text>
<polygon fill="none" stroke="black" points="214,-409 214,-431 385,-431 385,-409 214,-409"/>
<text text-anchor="start" x="234" y="-417.2" font-family="Helvetica,sans-Serif" font-size="11.00">ad_org_id</text>
<polygon fill="none" stroke="black" points="385,-409 385,-431 468,-431 468,-409 385,-409"/>
<text text-anchor="start" x="388" y="-417.2" font-family="Helvetica,sans-Serif" font-size="11.00">numeric[10]</text>
<polygon fill="none" stroke="black" points="214,-387 214,-409 385,-409 385,-387 214,-387"/>
<text text-anchor="start" x="234" y="-395.2" font-family="Helvetica,sans-Serif" font-size="11.00">created</text>
<polygon fill="none" stroke="black" points="385,-387 385,-409 468,-409 468,-387 385,-387"/>
<text text-anchor="start" x="388" y="-395.2" font-family="Helvetica,sans-Serif" font-size="11.00">timestamp[29,6]</text>
<polygon fill="none" stroke="black" points="214,-365 214,-387 385,-387 385,-365 214,-365"/>
<text text-anchor="start" x="234" y="-373.2" font-family="Helvetica,sans-Serif" font-size="11.00">createdby</text>
<polygon fill="none" stroke="black" points="385,-365 385,-387 468,-387 468,-365 385,-365"/>
<text text-anchor="start" x="388" y="-373.2" font-family="Helvetica,sans-Serif" font-size="11.00">numeric[10]</text>
<polygon fill="none" stroke="black" points="214,-343 214,-365 385,-365 385,-343 214,-343"/>
<text text-anchor="start" x="234" y="-351.2" font-family="Helvetica,sans-Serif" font-size="11.00">updated</text>
<polygon fill="none" stroke="black" points="385,-343 385,-365 468,-365 468,-343 385,-343"/>
<text text-anchor="start" x="388" y="-351.2" font-family="Helvetica,sans-Serif" font-size="11.00">timestamp[29,6]</text>
<polygon fill="none" stroke="black" points="214,-321 214,-343 385,-343 385,-321 214,-321"/>
<text text-anchor="start" x="234" y="-329.2" font-family="Helvetica,sans-Serif" font-size="11.00">updatedby</text>
<polygon fill="none" stroke="black" points="385,-321 385,-343 468,-343 468,-321 385,-321"/>
<text text-anchor="start" x="388" y="-329.2" font-family="Helvetica,sans-Serif" font-size="11.00">numeric[10]</text>
<polygon fill="none" stroke="black" points="214,-299 214,-321 385,-321 385,-299 214,-299"/>
<text text-anchor="start" x="234" y="-307.2" font-family="Helvetica,sans-Serif" font-size="11.00">isactive</text>
<polygon fill="none" stroke="black" points="385,-299 385,-321 468,-321 468,-299 385,-299"/>
<text text-anchor="start" x="388" y="-307.2" font-family="Helvetica,sans-Serif" font-size="11.00">bpchar[1]</text>
<polygon fill="none" stroke="black" points="214,-277 214,-299 385,-299 385,-277 214,-277"/>
<text text-anchor="start" x="234" y="-285.2" font-family="Helvetica,sans-Serif" font-size="11.00">name</text>
<polygon fill="none" stroke="black" points="385,-277 385,-299 468,-299 468,-277 385,-277"/>
<text text-anchor="start" x="388" y="-285.2" font-family="Helvetica,sans-Serif" font-size="11.00">varchar[60]</text>
<polygon fill="none" stroke="black" points="214,-255 214,-277 385,-277 385,-255 214,-255"/>
<text text-anchor="start" x="234" y="-263.2" font-family="Helvetica,sans-Serif" font-size="11.00">description</text>
<polygon fill="none" stroke="black" points="385,-255 385,-277 468,-277 468,-255 385,-255"/>
<text text-anchor="start" x="388" y="-263.2" font-family="Helvetica,sans-Serif" font-size="11.00">varchar[255]</text>
<polygon fill="none" stroke="black" points="214,-233 214,-255 385,-255 385,-233 214,-233"/>
<text text-anchor="start" x="234" y="-241.2" font-family="Helvetica,sans-Serif" font-size="11.00">help</text>
<polygon fill="none" stroke="black" points="385,-233 385,-255 468,-255 468,-233 385,-233"/>
<text text-anchor="start" x="388" y="-241.2" font-family="Helvetica,sans-Serif" font-size="11.00">varchar[2000]</text>
<polygon fill="none" stroke="black" points="214,-211 214,-233 385,-233 385,-211 214,-211"/>
<image xlink:href="../../images/foreignKeys.png" width="11px" height="12px" preserveAspectRatio="xMinYMin meet" x="219" y="-228"/>
<text text-anchor="start" x="234" y="-219.2" font-family="Helvetica,sans-Serif" font-size="11.00">cm_webproject_id</text>
<polygon fill="none" stroke="black" points="385,-211 385,-233 468,-233 468,-211 385,-211"/>
<text text-anchor="start" x="388" y="-219.2" font-family="Helvetica,sans-Serif" font-size="11.00">numeric[10]</text>
<polygon fill="none" stroke="black" points="214,-189 214,-211 385,-211 385,-189 214,-189"/>
<text text-anchor="start" x="234" y="-197.2" font-family="Helvetica,sans-Serif" font-size="11.00">ispassive</text>
<polygon fill="none" stroke="black" points="385,-189 385,-211 468,-211 468,-189 385,-189"/>
<text text-anchor="start" x="388" y="-197.2" font-family="Helvetica,sans-Serif" font-size="11.00">bpchar[1]</text>
<polygon fill="none" stroke="black" points="214,-167 214,-189 385,-189 385,-167 214,-167"/>
<text text-anchor="start" x="234" y="-175.2" font-family="Helvetica,sans-Serif" font-size="11.00">url</text>
<polygon fill="none" stroke="black" points="385,-167 385,-189 468,-189 468,-167 385,-167"/>
<text text-anchor="start" x="388" y="-175.2" font-family="Helvetica,sans-Serif" font-size="11.00">varchar[120]</text>
<polygon fill="none" stroke="black" points="214,-145 214,-167 385,-167 385,-145 214,-145"/>
<text text-anchor="start" x="234" y="-153.2" font-family="Helvetica,sans-Serif" font-size="11.00">ip_address</text>
<polygon fill="none" stroke="black" points="385,-145 385,-167 468,-167 468,-145 385,-145"/>
<text text-anchor="start" x="388" y="-153.2" font-family="Helvetica,sans-Serif" font-size="11.00">varchar[20]</text>
<polygon fill="none" stroke="black" points="214,-123 214,-145 385,-145 385,-123 214,-123"/>
<text text-anchor="start" x="234" y="-131.2" font-family="Helvetica,sans-Serif" font-size="11.00">username</text>
<polygon fill="none" stroke="black" points="385,-123 385,-145 468,-145 468,-123 385,-123"/>
<text text-anchor="start" x="388" y="-131.2" font-family="Helvetica,sans-Serif" font-size="11.00">varchar[40]</text>
<polygon fill="none" stroke="black" points="214,-101 214,-123 385,-123 385,-101 214,-101"/>
<text text-anchor="start" x="234" y="-109.2" font-family="Helvetica,sans-Serif" font-size="11.00">password</text>
<polygon fill="none" stroke="black" points="385,-101 385,-123 468,-123 468,-101 385,-101"/>
<text text-anchor="start" x="388" y="-109.2" font-family="Helvetica,sans-Serif" font-size="11.00">varchar[40]</text>
<polygon fill="none" stroke="black" points="214,-79 214,-101 385,-101 385,-79 214,-79"/>
<text text-anchor="start" x="234" y="-87.2" font-family="Helvetica,sans-Serif" font-size="11.00">folder</text>
<polygon fill="none" stroke="black" points="385,-79 385,-101 468,-101 468,-79 385,-79"/>
<text text-anchor="start" x="388" y="-87.2" font-family="Helvetica,sans-Serif" font-size="11.00">varchar[60]</text>
<polygon fill="#ffffff" stroke="transparent" points="214,-57 214,-79 385,-79 385,-57 214,-57"/>
<polygon fill="none" stroke="black" points="214,-57 214,-79 385,-79 385,-57 214,-57"/>
<text text-anchor="start" x="234" y="-65.2" font-family="Helvetica,sans-Serif" font-size="11.00">cm_media_server_uu</text>
<polygon fill="none" stroke="black" points="385,-57 385,-79 468,-79 468,-57 385,-57"/>
<text text-anchor="start" x="388" y="-65.2" font-family="Helvetica,sans-Serif" font-size="11.00">varchar[36]</text>
<polygon fill="#ffffff" stroke="transparent" points="214,-39 214,-57 468,-57 468,-39 214,-39"/>
<polygon fill="none" stroke="black" points="214,-39 214,-57 468,-57 468,-39 214,-39"/>
<polygon fill="#ffffff" stroke="transparent" points="215,-40 215,-56 302,-56 302,-40 215,-40"/>
<text text-anchor="start" x="217" y="-45.2" font-family="Helvetica,sans-Serif" font-size="11.00">&lt; 1</text>
<polygon fill="#ffffff" stroke="transparent" points="302,-40 302,-56 380,-56 380,-40 302,-40"/>
<text text-anchor="start" x="337.5" y="-45.2" font-family="Helvetica,sans-Serif" font-size="11.00"> &#160;</text>
<polygon fill="#ffffff" stroke="transparent" points="380,-40 380,-56 467,-56 467,-40 380,-40"/>
<text text-anchor="start" x="449" y="-45.2" font-family="Helvetica,sans-Serif" font-size="11.00">1 &gt;</text>
<polygon fill="black" stroke="black" points="302,-40 302,-56 302,-56 302,-40 302,-40"/>
<polygon fill="black" stroke="black" points="380,-40 380,-56 380,-56 380,-40 380,-40"/>
<polygon fill="none" stroke="black" stroke-width="2" points="213,-38 213,-498 469,-498 469,-38 213,-38"/>
</a>
</g>
</g>
<!-- cm_webproject -->
<g id="node2" class="node">
<title>cm_webproject</title>
<g id="a_node2"><a xlink:href="../../tables/cm_webproject.html" xlink:title="cm_webproject" target="_top">
<polygon fill="#ffffff" stroke="transparent" points="8,-65 8,-255 163,-255 163,-65 8,-65"/>
<polygon fill="#f5f5f5" stroke="transparent" points="8.5,-233 8.5,-255 163.5,-255 163.5,-233 8.5,-233"/>
<polygon fill="none" stroke="black" points="8.5,-233 8.5,-255 163.5,-255 163.5,-233 8.5,-233"/>
<text text-anchor="start" x="13.5" y="-242.2" font-family="Helvetica,sans-Serif" font-weight="bold" font-size="11.00">cm_webproject</text>
<text text-anchor="start" x="128.5" y="-241.2" font-family="Helvetica,sans-Serif" font-size="11.00">[table]</text>
<polygon fill="none" stroke="black" points="8.5,-211 8.5,-233 163.5,-233 163.5,-211 8.5,-211"/>
<image xlink:href="../../images/primaryKeys.png" width="11px" height="12px" preserveAspectRatio="xMinYMin meet" x="13.5" y="-228"/>
<text text-anchor="start" x="28.5" y="-219.2" font-family="Helvetica,sans-Serif" font-size="11.00">cm_webproject_id</text>
<polygon fill="none" stroke="black" points="8.5,-189 8.5,-211 163.5,-211 163.5,-189 8.5,-189"/>
<image xlink:href="../../images/foreignKeys.png" width="11px" height="12px" preserveAspectRatio="xMinYMin meet" x="13.5" y="-206"/>
<text text-anchor="start" x="28.5" y="-197.2" font-family="Helvetica,sans-Serif" font-size="11.00">ad_treecmc_id</text>
<polygon fill="none" stroke="black" points="8.5,-167 8.5,-189 163.5,-189 163.5,-167 8.5,-167"/>
<image xlink:href="../../images/foreignKeys.png" width="11px" height="12px" preserveAspectRatio="xMinYMin meet" x="13.5" y="-184"/>
<text text-anchor="start" x="28.5" y="-175.2" font-family="Helvetica,sans-Serif" font-size="11.00">ad_treecms_id</text>
<polygon fill="none" stroke="black" points="8.5,-145 8.5,-167 163.5,-167 163.5,-145 8.5,-145"/>
<image xlink:href="../../images/foreignKeys.png" width="11px" height="12px" preserveAspectRatio="xMinYMin meet" x="13.5" y="-162"/>
<text text-anchor="start" x="28.5" y="-153.2" font-family="Helvetica,sans-Serif" font-size="11.00">ad_treecmm_id</text>
<polygon fill="none" stroke="black" points="8.5,-123 8.5,-145 163.5,-145 163.5,-123 8.5,-123"/>
<image xlink:href="../../images/foreignKeys.png" width="11px" height="12px" preserveAspectRatio="xMinYMin meet" x="13.5" y="-140"/>
<text text-anchor="start" x="28.5" y="-131.2" font-family="Helvetica,sans-Serif" font-size="11.00">ad_treecmt_id</text>
<polygon fill="#ffffff" stroke="transparent" points="8.5,-101 8.5,-123 163.5,-123 163.5,-101 8.5,-101"/>
<polygon fill="none" stroke="black" points="8.5,-101 8.5,-123 163.5,-123 163.5,-101 8.5,-101"/>
<text text-anchor="start" x="28.5" y="-109.2" font-family="Helvetica,sans-Serif" font-size="11.00">cm_webproject_uu</text>
<polygon fill="none" stroke="black" points="8.5,-83 8.5,-101 163.5,-101 163.5,-83 8.5,-83"/>
<text text-anchor="start" x="11.5" y="-89.2" font-family="Helvetica,sans-Serif" font-size="11.00">...</text>
<polygon fill="#ffffff" stroke="transparent" points="8.5,-65 8.5,-83 163.5,-83 163.5,-65 8.5,-65"/>
<polygon fill="none" stroke="black" points="8.5,-65 8.5,-83 163.5,-83 163.5,-65 8.5,-65"/>
<polygon fill="#ffffff" stroke="transparent" points="9.5,-66 9.5,-82 61.5,-82 61.5,-66 9.5,-66"/>
<text text-anchor="start" x="11.5" y="-71.2" font-family="Helvetica,sans-Serif" font-size="11.00">&lt; 4</text>
<polygon fill="#ffffff" stroke="transparent" points="61.5,-66 61.5,-82 104.5,-82 104.5,-66 61.5,-66"/>
<text text-anchor="start" x="79.5" y="-71.2" font-family="Helvetica,sans-Serif" font-size="11.00"> &#160;</text>
<polygon fill="#ffffff" stroke="transparent" points="104.5,-66 104.5,-82 162.5,-82 162.5,-66 104.5,-66"/>
<text text-anchor="start" x="138.5" y="-71.2" font-family="Helvetica,sans-Serif" font-size="11.00">12 &gt;</text>
<polygon fill="black" stroke="black" points="61.5,-66 61.5,-82 61.5,-82 61.5,-66 61.5,-66"/>
<polygon fill="black" stroke="black" points="104.5,-66 104.5,-82 104.5,-82 104.5,-66 104.5,-66"/>
</a>
</g>
</g>
<!-- cm_media_server&#45;&gt;cm_webproject -->
<g id="edge1" class="edge">
<title>cm_media_server:w&#45;&gt;cm_webproject:e</title>
<path fill="none" stroke="black" d="M198.28,-222C187.29,-222 180.16,-222 164.5,-222"/>
<polygon fill="black" stroke="black" points="205,-222 213,-225.6 209,-222 213,-222 213,-222 213,-222 209,-222 213,-218.4 205,-222 205,-222"/>
<ellipse fill="none" stroke="black" cx="201.8" cy="-222" rx="3.2" ry="3.2"/>
</g>
<!-- cm_mediadeploy -->
<g id="node3" class="node">
<title>cm_mediadeploy</title>
<g id="a_node3"><a xlink:href="../../tables/cm_mediadeploy.html" xlink:title="cm_mediadeploy" target="_top">
<polygon fill="#ffffff" stroke="transparent" points="519,-373 519,-519 686,-519 686,-373 519,-373"/>
<polygon fill="#f5f5f5" stroke="transparent" points="519.5,-497 519.5,-519 686.5,-519 686.5,-497 519.5,-497"/>
<polygon fill="none" stroke="black" points="519.5,-497 519.5,-519 686.5,-519 686.5,-497 519.5,-497"/>
<text text-anchor="start" x="524.5" y="-506.2" font-family="Helvetica,sans-Serif" font-weight="bold" font-size="11.00">cm_mediadeploy</text>
<text text-anchor="start" x="651.5" y="-505.2" font-family="Helvetica,sans-Serif" font-size="11.00">[table]</text>
<polygon fill="none" stroke="black" points="519.5,-475 519.5,-497 686.5,-497 686.5,-475 519.5,-475"/>
<image xlink:href="../../images/primaryKeys.png" width="11px" height="12px" preserveAspectRatio="xMinYMin meet" x="524.5" y="-492"/>
<text text-anchor="start" x="539.5" y="-483.2" font-family="Helvetica,sans-Serif" font-size="11.00">cm_mediadeploy_id</text>
<polygon fill="none" stroke="black" points="519.5,-453 519.5,-475 686.5,-475 686.5,-453 519.5,-453"/>
<image xlink:href="../../images/foreignKeys.png" width="11px" height="12px" preserveAspectRatio="xMinYMin meet" x="524.5" y="-470"/>
<text text-anchor="start" x="539.5" y="-461.2" font-family="Helvetica,sans-Serif" font-size="11.00">cm_media_server_id</text>
<polygon fill="none" stroke="black" points="519.5,-431 519.5,-453 686.5,-453 686.5,-431 519.5,-431"/>
<image xlink:href="../../images/foreignKeys.png" width="11px" height="12px" preserveAspectRatio="xMinYMin meet" x="524.5" y="-448"/>
<text text-anchor="start" x="539.5" y="-439.2" font-family="Helvetica,sans-Serif" font-size="11.00">cm_media_id</text>
<polygon fill="#ffffff" stroke="transparent" points="519.5,-409 519.5,-431 686.5,-431 686.5,-409 519.5,-409"/>
<polygon fill="none" stroke="black" points="519.5,-409 519.5,-431 686.5,-431 686.5,-409 519.5,-409"/>
<text text-anchor="start" x="539.5" y="-417.2" font-family="Helvetica,sans-Serif" font-size="11.00">cm_mediadeploy_uu</text>
<polygon fill="none" stroke="black" points="519.5,-391 519.5,-409 686.5,-409 686.5,-391 519.5,-391"/>
<text text-anchor="start" x="522.5" y="-397.2" font-family="Helvetica,sans-Serif" font-size="11.00">...</text>
<polygon fill="#ffffff" stroke="transparent" points="519.5,-373 519.5,-391 686.5,-391 686.5,-373 519.5,-373"/>
<polygon fill="none" stroke="black" points="519.5,-373 519.5,-391 686.5,-391 686.5,-373 519.5,-373"/>
<polygon fill="#ffffff" stroke="transparent" points="520.5,-374 520.5,-390 581.5,-390 581.5,-374 520.5,-374"/>
<text text-anchor="start" x="522.5" y="-379.2" font-family="Helvetica,sans-Serif" font-size="11.00">&lt; 2</text>
<polygon fill="#ffffff" stroke="transparent" points="581.5,-374 581.5,-390 633.5,-390 633.5,-374 581.5,-374"/>
<text text-anchor="start" x="604" y="-379.2" font-family="Helvetica,sans-Serif" font-size="11.00"> &#160;</text>
<polygon fill="#ffffff" stroke="transparent" points="633.5,-374 633.5,-390 685.5,-390 685.5,-374 633.5,-374"/>
<text text-anchor="start" x="676.5" y="-379.2" font-family="Helvetica,sans-Serif" font-size="11.00"> &#160;</text>
<polygon fill="black" stroke="black" points="581.5,-374 581.5,-390 581.5,-390 581.5,-374 581.5,-374"/>
<polygon fill="black" stroke="black" points="633.5,-374 633.5,-390 633.5,-390 633.5,-374 633.5,-374"/>
</a>
</g>
</g>
<!-- cm_mediadeploy&#45;&gt;cm_media_server -->
<g id="edge2" class="edge">
<title>cm_mediadeploy:w&#45;&gt;cm_media_server:e</title>
<path fill="none" stroke="black" d="M503.84,-464C492.41,-464 485.16,-464 469,-464"/>
<polygon fill="black" stroke="black" points="510.5,-464 518.5,-467.6 514.5,-464 518.5,-464 518.5,-464 518.5,-464 514.5,-464 518.5,-460.4 510.5,-464 510.5,-464"/>
<ellipse fill="none" stroke="black" cx="507.3" cy="-464" rx="3.2" ry="3.2"/>
</g>
</g>
</svg>
