<?xml version="1.0" encoding="UTF-8" standalone="no"?>
<!DOCTYPE svg PUBLIC "-//W3C//DTD SVG 1.1//EN"
 "http://www.w3.org/Graphics/SVG/1.1/DTD/svg11.dtd">
<!-- Generated by graphviz version 2.43.0 (0)
 -->
<!-- Title: oneDegreeRelationshipsDiagram Pages: 1 -->
<svg width="1226pt" height="1393pt"
 viewBox="0.00 0.00 1226.00 1393.00" xmlns="http://www.w3.org/2000/svg" xmlns:xlink="http://www.w3.org/1999/xlink">
<g id="graph0" class="graph" transform="scale(1 1) rotate(0) translate(4 1389)">
<title>oneDegreeRelationshipsDiagram</title>
<polygon fill="#ffffff" stroke="transparent" points="-4,4 -4,-1389 1222,-1389 1222,4 -4,4"/>
<text text-anchor="middle" x="71.5" y="-7.2" font-family="Helvetica,sans-Serif" font-size="11.00">Generated by SchemaSpy</text>
<!-- ad_org -->
<g id="node1" class="node">
<title>ad_org</title>
<g id="a_node1"><a xlink:href="../../tables/ad_org.html" xlink:title="ad_org" target="_top">
<polygon fill="#ffffff" stroke="transparent" points="302,-1031 302,-1221 508,-1221 508,-1031 302,-1031"/>
<polygon fill="#f5f5f5" stroke="transparent" points="302,-1199 302,-1221 508,-1221 508,-1199 302,-1199"/>
<polygon fill="none" stroke="black" points="302,-1199 302,-1221 508,-1221 508,-1199 302,-1199"/>
<text text-anchor="start" x="307" y="-1208.2" font-family="Helvetica,sans-Serif" font-weight="bold" font-size="11.00">ad_org</text>
<text text-anchor="start" x="473" y="-1207.2" font-family="Helvetica,sans-Serif" font-size="11.00">[table]</text>
<polygon fill="none" stroke="black" points="302,-1177 302,-1199 508,-1199 508,-1177 302,-1177"/>
<image xlink:href="../../images/primaryKeys.png" width="11px" height="12px" preserveAspectRatio="xMinYMin meet" x="307" y="-1194"/>
<text text-anchor="start" x="322" y="-1185.2" font-family="Helvetica,sans-Serif" font-size="11.00">ad_org_id</text>
<polygon fill="#ffffff" stroke="transparent" points="302,-1155 302,-1177 508,-1177 508,-1155 302,-1155"/>
<polygon fill="none" stroke="black" points="302,-1155 302,-1177 508,-1177 508,-1155 302,-1155"/>
<image xlink:href="../../images/foreignKeys.png" width="11px" height="12px" preserveAspectRatio="xMinYMin meet" x="307" y="-1172"/>
<text text-anchor="start" x="322" y="-1163.2" font-family="Helvetica,sans-Serif" font-size="11.00">ad_client_id</text>
<polygon fill="#ffffff" stroke="transparent" points="302,-1133 302,-1155 508,-1155 508,-1133 302,-1133"/>
<polygon fill="none" stroke="black" points="302,-1133 302,-1155 508,-1155 508,-1133 302,-1133"/>
<text text-anchor="start" x="322" y="-1141.2" font-family="Helvetica,sans-Serif" font-size="11.00">value</text>
<polygon fill="none" stroke="black" points="302,-1111 302,-1133 508,-1133 508,-1111 302,-1111"/>
<image xlink:href="../../images/foreignKeys.png" width="11px" height="12px" preserveAspectRatio="xMinYMin meet" x="307" y="-1128"/>
<text text-anchor="start" x="322" y="-1119.2" font-family="Helvetica,sans-Serif" font-size="11.00">ad_replicationstrategy_id</text>
<polygon fill="#ffffff" stroke="transparent" points="302,-1089 302,-1111 508,-1111 508,-1089 302,-1089"/>
<polygon fill="none" stroke="black" points="302,-1089 302,-1111 508,-1111 508,-1089 302,-1089"/>
<text text-anchor="start" x="322" y="-1097.2" font-family="Helvetica,sans-Serif" font-size="11.00">ad_org_uu</text>
<polygon fill="none" stroke="black" points="302,-1067 302,-1089 508,-1089 508,-1067 302,-1067"/>
<image xlink:href="../../images/foreignKeys.png" width="11px" height="12px" preserveAspectRatio="xMinYMin meet" x="307" y="-1084"/>
<text text-anchor="start" x="322" y="-1075.2" font-family="Helvetica,sans-Serif" font-size="11.00">cof_c_snrange_id</text>
<polygon fill="none" stroke="black" points="302,-1049 302,-1067 508,-1067 508,-1049 302,-1049"/>
<text text-anchor="start" x="305" y="-1055.2" font-family="Helvetica,sans-Serif" font-size="11.00">...</text>
<polygon fill="#ffffff" stroke="transparent" points="302,-1031 302,-1049 508,-1049 508,-1031 302,-1031"/>
<polygon fill="none" stroke="black" points="302,-1031 302,-1049 508,-1049 508,-1031 302,-1031"/>
<polygon fill="#ffffff" stroke="transparent" points="303,-1032 303,-1048 362,-1048 362,-1032 303,-1032"/>
<text text-anchor="start" x="305" y="-1037.2" font-family="Helvetica,sans-Serif" font-size="11.00">&lt; 3</text>
<polygon fill="#ffffff" stroke="transparent" points="362,-1032 362,-1048 437,-1048 437,-1032 362,-1032"/>
<text text-anchor="start" x="383" y="-1037.2" font-family="Helvetica,sans-Serif" font-size="11.00">3 rows</text>
<polygon fill="#ffffff" stroke="transparent" points="437,-1032 437,-1048 507,-1048 507,-1032 437,-1032"/>
<text text-anchor="start" x="477" y="-1037.2" font-family="Helvetica,sans-Serif" font-size="11.00">285 &gt;</text>
<polygon fill="black" stroke="black" points="362,-1032 362,-1048 362,-1048 362,-1032 362,-1032"/>
<polygon fill="black" stroke="black" points="437,-1032 437,-1048 437,-1048 437,-1032 437,-1032"/>
</a>
</g>
</g>
<!-- ad_client -->
<g id="node2" class="node">
<title>ad_client</title>
<g id="a_node2"><a xlink:href="../../tables/ad_client.html" xlink:title="ad_client" target="_top">
<polygon fill="#ffffff" stroke="transparent" points="8,-1026 8,-1238 253,-1238 253,-1026 8,-1026"/>
<polygon fill="#f5f5f5" stroke="transparent" points="8.5,-1216 8.5,-1238 253.5,-1238 253.5,-1216 8.5,-1216"/>
<polygon fill="none" stroke="black" points="8.5,-1216 8.5,-1238 253.5,-1238 253.5,-1216 8.5,-1216"/>
<text text-anchor="start" x="13.5" y="-1225.2" font-family="Helvetica,sans-Serif" font-weight="bold" font-size="11.00">ad_client</text>
<text text-anchor="start" x="218.5" y="-1224.2" font-family="Helvetica,sans-Serif" font-size="11.00">[table]</text>
<polygon fill="none" stroke="black" points="8.5,-1194 8.5,-1216 253.5,-1216 253.5,-1194 8.5,-1194"/>
<image xlink:href="../../images/primaryKeys.png" width="11px" height="12px" preserveAspectRatio="xMinYMin meet" x="13.5" y="-1211"/>
<text text-anchor="start" x="28.5" y="-1202.2" font-family="Helvetica,sans-Serif" font-size="11.00">ad_client_id</text>
<polygon fill="#ffffff" stroke="transparent" points="8.5,-1172 8.5,-1194 253.5,-1194 253.5,-1172 8.5,-1172"/>
<polygon fill="none" stroke="black" points="8.5,-1172 8.5,-1194 253.5,-1194 253.5,-1172 8.5,-1172"/>
<text text-anchor="start" x="28.5" y="-1180.2" font-family="Helvetica,sans-Serif" font-size="11.00">value</text>
<polygon fill="none" stroke="black" points="8.5,-1150 8.5,-1172 253.5,-1172 253.5,-1150 8.5,-1150"/>
<image xlink:href="../../images/foreignKeys.png" width="11px" height="12px" preserveAspectRatio="xMinYMin meet" x="13.5" y="-1167"/>
<text text-anchor="start" x="28.5" y="-1158.2" font-family="Helvetica,sans-Serif" font-size="11.00">ad_language</text>
<polygon fill="none" stroke="black" points="8.5,-1128 8.5,-1150 253.5,-1150 253.5,-1128 8.5,-1128"/>
<image xlink:href="../../images/foreignKeys.png" width="11px" height="12px" preserveAspectRatio="xMinYMin meet" x="13.5" y="-1145"/>
<text text-anchor="start" x="28.5" y="-1136.2" font-family="Helvetica,sans-Serif" font-size="11.00">ad_replicationstrategy_id</text>
<polygon fill="#ffffff" stroke="transparent" points="8.5,-1106 8.5,-1128 253.5,-1128 253.5,-1106 8.5,-1106"/>
<polygon fill="none" stroke="black" points="8.5,-1106 8.5,-1128 253.5,-1128 253.5,-1106 8.5,-1106"/>
<text text-anchor="start" x="28.5" y="-1114.2" font-family="Helvetica,sans-Serif" font-size="11.00">ad_client_uu</text>
<polygon fill="none" stroke="black" points="8.5,-1084 8.5,-1106 253.5,-1106 253.5,-1084 8.5,-1084"/>
<image xlink:href="../../images/foreignKeys.png" width="11px" height="12px" preserveAspectRatio="xMinYMin meet" x="13.5" y="-1101"/>
<text text-anchor="start" x="28.5" y="-1092.2" font-family="Helvetica,sans-Serif" font-size="11.00">ad_passwordrule_id</text>
<polygon fill="#ffffff" stroke="transparent" points="8.5,-1062 8.5,-1084 253.5,-1084 253.5,-1062 8.5,-1062"/>
<polygon fill="none" stroke="black" points="8.5,-1062 8.5,-1084 253.5,-1084 253.5,-1062 8.5,-1062"/>
<text text-anchor="start" x="28.5" y="-1070.2" font-family="Helvetica,sans-Serif" font-size="11.00">loginprefix</text>
<polygon fill="none" stroke="black" points="8.5,-1044 8.5,-1062 253.5,-1062 253.5,-1044 8.5,-1044"/>
<text text-anchor="start" x="11.5" y="-1050.2" font-family="Helvetica,sans-Serif" font-size="11.00">...</text>
<polygon fill="#ffffff" stroke="transparent" points="8.5,-1026 8.5,-1044 253.5,-1044 253.5,-1026 8.5,-1026"/>
<polygon fill="none" stroke="black" points="8.5,-1026 8.5,-1044 253.5,-1044 253.5,-1026 8.5,-1026"/>
<polygon fill="#ffffff" stroke="transparent" points="9.5,-1027 9.5,-1043 81.5,-1043 81.5,-1027 9.5,-1027"/>
<text text-anchor="start" x="11.5" y="-1032.2" font-family="Helvetica,sans-Serif" font-size="11.00">&lt; 3</text>
<polygon fill="#ffffff" stroke="transparent" points="81.5,-1027 81.5,-1043 169.5,-1043 169.5,-1027 81.5,-1027"/>
<text text-anchor="start" x="109" y="-1032.2" font-family="Helvetica,sans-Serif" font-size="11.00">2 rows</text>
<polygon fill="#ffffff" stroke="transparent" points="169.5,-1027 169.5,-1043 252.5,-1043 252.5,-1027 169.5,-1027"/>
<text text-anchor="start" x="222.5" y="-1032.2" font-family="Helvetica,sans-Serif" font-size="11.00">205 &gt;</text>
<polygon fill="black" stroke="black" points="81.5,-1027 81.5,-1043 81.5,-1043 81.5,-1027 81.5,-1027"/>
<polygon fill="black" stroke="black" points="169.5,-1027 169.5,-1043 169.5,-1043 169.5,-1027 169.5,-1027"/>
</a>
</g>
</g>
<!-- ad_org&#45;&gt;ad_client -->
<g id="edge1" class="edge">
<title>ad_org:w&#45;&gt;ad_client:e</title>
<path fill="none" stroke="black" d="M287.17,-1171.1C275.63,-1181.67 275.36,-1205 254.5,-1205"/>
<polygon fill="black" stroke="black" points="293.49,-1168.77 302.24,-1169.38 297.25,-1167.38 301,-1166 301,-1166 301,-1166 297.25,-1167.38 299.76,-1162.62 293.49,-1168.77 293.49,-1168.77"/>
<ellipse fill="none" stroke="black" cx="290.49" cy="-1169.87" rx="3.2" ry="3.2"/>
</g>
<!-- ad_user -->
<g id="node3" class="node">
<title>ad_user</title>
<g id="a_node3"><a xlink:href="../../tables/ad_user.html" xlink:title="ad_user" target="_top">
<polygon fill="#ffffff" stroke="transparent" points="574,-736 574,-1300 814,-1300 814,-736 574,-736"/>
<polygon fill="#f5f5f5" stroke="transparent" points="574,-1278 574,-1300 814,-1300 814,-1278 574,-1278"/>
<polygon fill="none" stroke="black" points="574,-1278 574,-1300 814,-1300 814,-1278 574,-1278"/>
<text text-anchor="start" x="579" y="-1287.2" font-family="Helvetica,sans-Serif" font-weight="bold" font-size="11.00">ad_user</text>
<text text-anchor="start" x="779" y="-1286.2" font-family="Helvetica,sans-Serif" font-size="11.00">[table]</text>
<polygon fill="none" stroke="black" points="574,-1256 574,-1278 814,-1278 814,-1256 574,-1256"/>
<image xlink:href="../../images/primaryKeys.png" width="11px" height="12px" preserveAspectRatio="xMinYMin meet" x="579" y="-1273"/>
<text text-anchor="start" x="594" y="-1264.2" font-family="Helvetica,sans-Serif" font-size="11.00">ad_user_id</text>
<polygon fill="none" stroke="black" points="574,-1234 574,-1256 814,-1256 814,-1234 574,-1234"/>
<image xlink:href="../../images/foreignKeys.png" width="11px" height="12px" preserveAspectRatio="xMinYMin meet" x="579" y="-1251"/>
<text text-anchor="start" x="594" y="-1242.2" font-family="Helvetica,sans-Serif" font-size="11.00">ad_client_id</text>
<polygon fill="none" stroke="black" points="574,-1212 574,-1234 814,-1234 814,-1212 574,-1212"/>
<image xlink:href="../../images/foreignKeys.png" width="11px" height="12px" preserveAspectRatio="xMinYMin meet" x="579" y="-1229"/>
<text text-anchor="start" x="594" y="-1220.2" font-family="Helvetica,sans-Serif" font-size="11.00">ad_org_id</text>
<polygon fill="#ffffff" stroke="transparent" points="574,-1190 574,-1212 814,-1212 814,-1190 574,-1190"/>
<polygon fill="none" stroke="black" points="574,-1190 574,-1212 814,-1212 814,-1190 574,-1190"/>
<text text-anchor="start" x="594" y="-1198.2" font-family="Helvetica,sans-Serif" font-size="11.00">name</text>
<polygon fill="#ffffff" stroke="transparent" points="574,-1168 574,-1190 814,-1190 814,-1168 574,-1168"/>
<polygon fill="none" stroke="black" points="574,-1168 574,-1190 814,-1190 814,-1168 574,-1168"/>
<text text-anchor="start" x="594" y="-1176.2" font-family="Helvetica,sans-Serif" font-size="11.00">email</text>
<polygon fill="none" stroke="black" points="574,-1146 574,-1168 814,-1168 814,-1146 574,-1146"/>
<image xlink:href="../../images/foreignKeys.png" width="11px" height="12px" preserveAspectRatio="xMinYMin meet" x="579" y="-1163"/>
<text text-anchor="start" x="594" y="-1154.2" font-family="Helvetica,sans-Serif" font-size="11.00">supervisor_id</text>
<polygon fill="#ffffff" stroke="transparent" points="574,-1124 574,-1146 814,-1146 814,-1124 574,-1124"/>
<polygon fill="none" stroke="black" points="574,-1124 574,-1146 814,-1146 814,-1124 574,-1124"/>
<image xlink:href="../../images/foreignKeys.png" width="11px" height="12px" preserveAspectRatio="xMinYMin meet" x="579" y="-1141"/>
<text text-anchor="start" x="594" y="-1132.2" font-family="Helvetica,sans-Serif" font-size="11.00">c_bpartner_id</text>
<polygon fill="none" stroke="black" points="574,-1102 574,-1124 814,-1124 814,-1102 574,-1102"/>
<image xlink:href="../../images/foreignKeys.png" width="11px" height="12px" preserveAspectRatio="xMinYMin meet" x="579" y="-1119"/>
<text text-anchor="start" x="594" y="-1110.2" font-family="Helvetica,sans-Serif" font-size="11.00">c_bpartner_location_id</text>
<polygon fill="none" stroke="black" points="574,-1080 574,-1102 814,-1102 814,-1080 574,-1080"/>
<image xlink:href="../../images/foreignKeys.png" width="11px" height="12px" preserveAspectRatio="xMinYMin meet" x="579" y="-1097"/>
<text text-anchor="start" x="594" y="-1088.2" font-family="Helvetica,sans-Serif" font-size="11.00">c_greeting_id</text>
<polygon fill="none" stroke="black" points="574,-1058 574,-1080 814,-1080 814,-1058 574,-1058"/>
<image xlink:href="../../images/foreignKeys.png" width="11px" height="12px" preserveAspectRatio="xMinYMin meet" x="579" y="-1075"/>
<text text-anchor="start" x="594" y="-1066.2" font-family="Helvetica,sans-Serif" font-size="11.00">ad_orgtrx_id</text>
<polygon fill="none" stroke="black" points="574,-1036 574,-1058 814,-1058 814,-1036 574,-1036"/>
<image xlink:href="../../images/foreignKeys.png" width="11px" height="12px" preserveAspectRatio="xMinYMin meet" x="579" y="-1053"/>
<text text-anchor="start" x="594" y="-1044.2" font-family="Helvetica,sans-Serif" font-size="11.00">c_job_id</text>
<polygon fill="#ffffff" stroke="transparent" points="574,-1014 574,-1036 814,-1036 814,-1014 574,-1014"/>
<polygon fill="none" stroke="black" points="574,-1014 574,-1036 814,-1036 814,-1014 574,-1014"/>
<text text-anchor="start" x="594" y="-1022.2" font-family="Helvetica,sans-Serif" font-size="11.00">ad_user_uu</text>
<polygon fill="none" stroke="black" points="574,-992 574,-1014 814,-1014 814,-992 574,-992"/>
<image xlink:href="../../images/foreignKeys.png" width="11px" height="12px" preserveAspectRatio="xMinYMin meet" x="579" y="-1009"/>
<text text-anchor="start" x="594" y="-1000.2" font-family="Helvetica,sans-Serif" font-size="11.00">c_location_id</text>
<polygon fill="none" stroke="black" points="574,-970 574,-992 814,-992 814,-970 574,-970"/>
<image xlink:href="../../images/foreignKeys.png" width="11px" height="12px" preserveAspectRatio="xMinYMin meet" x="579" y="-987"/>
<text text-anchor="start" x="594" y="-978.2" font-family="Helvetica,sans-Serif" font-size="11.00">c_campaign_id</text>
<polygon fill="none" stroke="black" points="574,-948 574,-970 814,-970 814,-948 574,-948"/>
<image xlink:href="../../images/foreignKeys.png" width="11px" height="12px" preserveAspectRatio="xMinYMin meet" x="579" y="-965"/>
<text text-anchor="start" x="594" y="-956.2" font-family="Helvetica,sans-Serif" font-size="11.00">salesrep_id</text>
<polygon fill="none" stroke="black" points="574,-926 574,-948 814,-948 814,-926 574,-926"/>
<image xlink:href="../../images/foreignKeys.png" width="11px" height="12px" preserveAspectRatio="xMinYMin meet" x="579" y="-943"/>
<text text-anchor="start" x="594" y="-934.2" font-family="Helvetica,sans-Serif" font-size="11.00">bp_location_id</text>
<polygon fill="none" stroke="black" points="574,-904 574,-926 814,-926 814,-904 574,-904"/>
<image xlink:href="../../images/foreignKeys.png" width="11px" height="12px" preserveAspectRatio="xMinYMin meet" x="579" y="-921"/>
<text text-anchor="start" x="594" y="-912.2" font-family="Helvetica,sans-Serif" font-size="11.00">r_defaultmailtext_id</text>
<polygon fill="none" stroke="black" points="574,-882 574,-904 814,-904 814,-882 574,-882"/>
<image xlink:href="../../images/foreignKeys.png" width="11px" height="12px" preserveAspectRatio="xMinYMin meet" x="579" y="-899"/>
<text text-anchor="start" x="594" y="-890.2" font-family="Helvetica,sans-Serif" font-size="11.00">cof_c_marketsegment_id</text>
<polygon fill="none" stroke="black" points="574,-860 574,-882 814,-882 814,-860 574,-860"/>
<image xlink:href="../../images/foreignKeys.png" width="11px" height="12px" preserveAspectRatio="xMinYMin meet" x="579" y="-877"/>
<text text-anchor="start" x="594" y="-868.2" font-family="Helvetica,sans-Serif" font-size="11.00">cof_c_leadexpirationreason_id</text>
<polygon fill="none" stroke="black" points="574,-838 574,-860 814,-860 814,-838 574,-838"/>
<image xlink:href="../../images/foreignKeys.png" width="11px" height="12px" preserveAspectRatio="xMinYMin meet" x="579" y="-855"/>
<text text-anchor="start" x="594" y="-846.2" font-family="Helvetica,sans-Serif" font-size="11.00">ad_image_id</text>
<polygon fill="none" stroke="black" points="574,-816 574,-838 814,-838 814,-816 574,-816"/>
<image xlink:href="../../images/foreignKeys.png" width="11px" height="12px" preserveAspectRatio="xMinYMin meet" x="579" y="-833"/>
<text text-anchor="start" x="594" y="-824.2" font-family="Helvetica,sans-Serif" font-size="11.00">c_subscription_id</text>
<polygon fill="none" stroke="black" points="574,-794 574,-816 814,-816 814,-794 574,-794"/>
<image xlink:href="../../images/foreignKeys.png" width="11px" height="12px" preserveAspectRatio="xMinYMin meet" x="579" y="-811"/>
<text text-anchor="start" x="594" y="-802.2" font-family="Helvetica,sans-Serif" font-size="11.00">cof_responsavelindicacao_id</text>
<polygon fill="none" stroke="black" points="574,-772 574,-794 814,-794 814,-772 574,-772"/>
<image xlink:href="../../images/foreignKeys.png" width="11px" height="12px" preserveAspectRatio="xMinYMin meet" x="579" y="-789"/>
<text text-anchor="start" x="594" y="-780.2" font-family="Helvetica,sans-Serif" font-size="11.00">cof_respatribuicao_id</text>
<polygon fill="none" stroke="black" points="574,-754 574,-772 814,-772 814,-754 574,-754"/>
<text text-anchor="start" x="577" y="-760.2" font-family="Helvetica,sans-Serif" font-size="11.00">...</text>
<polygon fill="#ffffff" stroke="transparent" points="574,-736 574,-754 814,-754 814,-736 574,-736"/>
<polygon fill="none" stroke="black" points="574,-736 574,-754 814,-754 814,-736 574,-736"/>
<polygon fill="#ffffff" stroke="transparent" points="575,-737 575,-753 649,-753 649,-737 575,-737"/>
<text text-anchor="start" x="577" y="-742.2" font-family="Helvetica,sans-Serif" font-size="11.00">&lt; 19</text>
<polygon fill="#ffffff" stroke="transparent" points="649,-737 649,-753 734,-753 734,-737 649,-737"/>
<text text-anchor="start" x="675" y="-742.2" font-family="Helvetica,sans-Serif" font-size="11.00">8 rows</text>
<polygon fill="#ffffff" stroke="transparent" points="734,-737 734,-753 813,-753 813,-737 734,-737"/>
<text text-anchor="start" x="783" y="-742.2" font-family="Helvetica,sans-Serif" font-size="11.00">446 &gt;</text>
<polygon fill="black" stroke="black" points="649,-737 649,-753 649,-753 649,-737 649,-737"/>
<polygon fill="black" stroke="black" points="734,-737 734,-753 734,-753 734,-737 734,-737"/>
</a>
</g>
</g>
<!-- ad_user&#45;&gt;ad_org -->
<g id="edge3" class="edge">
<title>ad_user:w&#45;&gt;ad_org:e</title>
<path fill="none" stroke="black" d="M558.63,-1220.14C539.85,-1211.78 535.72,-1188 509,-1188"/>
<polygon fill="black" stroke="black" points="565.15,-1221.44 572.3,-1226.53 569.08,-1222.22 573,-1223 573,-1223 573,-1223 569.08,-1222.22 573.7,-1219.47 565.15,-1221.44 565.15,-1221.44"/>
<ellipse fill="none" stroke="black" cx="562.02" cy="-1220.81" rx="3.2" ry="3.2"/>
</g>
<!-- ad_user&#45;&gt;ad_org -->
<g id="edge4" class="edge">
<title>ad_user:w&#45;&gt;ad_org:e</title>
<path fill="none" stroke="black" d="M558.51,-1072.18C522.8,-1091.11 563.19,-1188 509,-1188"/>
<polygon fill="black" stroke="black" points="565.19,-1070.72 573.77,-1072.52 569.09,-1069.86 573,-1069 573,-1069 573,-1069 569.09,-1069.86 572.23,-1065.48 565.19,-1070.72 565.19,-1070.72"/>
<ellipse fill="none" stroke="black" cx="562.06" cy="-1071.4" rx="3.2" ry="3.2"/>
</g>
<!-- ad_user&#45;&gt;ad_client -->
<g id="edge2" class="edge">
<title>ad_user:w&#45;&gt;ad_client:e</title>
<path fill="none" stroke="black" d="M558.5,-1245.12C445.76,-1247.01 407,-1269.83 294,-1232 273.84,-1225.25 275.76,-1205 254.5,-1205"/>
<polygon fill="black" stroke="black" points="565,-1245.07 573.03,-1248.6 569,-1245.03 573,-1245 573,-1245 573,-1245 569,-1245.03 572.97,-1241.4 565,-1245.07 565,-1245.07"/>
<ellipse fill="none" stroke="black" cx="561.8" cy="-1245.09" rx="3.2" ry="3.2"/>
</g>
<!-- c_elementvalue -->
<g id="node4" class="node">
<title>c_elementvalue</title>
<g id="a_node4"><a xlink:href="../../tables/c_elementvalue.html" xlink:title="c_elementvalue" target="_top">
<polygon fill="#ffffff" stroke="transparent" points="582,-182 582,-460 806,-460 806,-182 582,-182"/>
<polygon fill="#f5f5f5" stroke="transparent" points="582,-438 582,-460 806,-460 806,-438 582,-438"/>
<polygon fill="none" stroke="black" points="582,-438 582,-460 806,-460 806,-438 582,-438"/>
<text text-anchor="start" x="587" y="-447.2" font-family="Helvetica,sans-Serif" font-weight="bold" font-size="11.00">c_elementvalue</text>
<text text-anchor="start" x="771" y="-446.2" font-family="Helvetica,sans-Serif" font-size="11.00">[table]</text>
<polygon fill="none" stroke="black" points="582,-416 582,-438 806,-438 806,-416 582,-416"/>
<image xlink:href="../../images/primaryKeys.png" width="11px" height="12px" preserveAspectRatio="xMinYMin meet" x="587" y="-433"/>
<text text-anchor="start" x="602" y="-424.2" font-family="Helvetica,sans-Serif" font-size="11.00">c_elementvalue_id</text>
<polygon fill="none" stroke="black" points="582,-394 582,-416 806,-416 806,-394 582,-394"/>
<image xlink:href="../../images/foreignKeys.png" width="11px" height="12px" preserveAspectRatio="xMinYMin meet" x="587" y="-411"/>
<text text-anchor="start" x="602" y="-402.2" font-family="Helvetica,sans-Serif" font-size="11.00">ad_client_id</text>
<polygon fill="none" stroke="black" points="582,-372 582,-394 806,-394 806,-372 582,-372"/>
<image xlink:href="../../images/foreignKeys.png" width="11px" height="12px" preserveAspectRatio="xMinYMin meet" x="587" y="-389"/>
<text text-anchor="start" x="602" y="-380.2" font-family="Helvetica,sans-Serif" font-size="11.00">ad_org_id</text>
<polygon fill="#ffffff" stroke="transparent" points="582,-350 582,-372 806,-372 806,-350 582,-350"/>
<polygon fill="none" stroke="black" points="582,-350 582,-372 806,-372 806,-350 582,-350"/>
<text text-anchor="start" x="602" y="-358.2" font-family="Helvetica,sans-Serif" font-size="11.00">value</text>
<polygon fill="#ffffff" stroke="transparent" points="582,-328 582,-350 806,-350 806,-328 582,-328"/>
<polygon fill="none" stroke="black" points="582,-328 582,-350 806,-350 806,-328 582,-328"/>
<text text-anchor="start" x="602" y="-336.2" font-family="Helvetica,sans-Serif" font-size="11.00">name</text>
<polygon fill="#ffffff" stroke="transparent" points="582,-306 582,-328 806,-328 806,-306 582,-306"/>
<polygon fill="none" stroke="black" points="582,-306 582,-328 806,-328 806,-306 582,-306"/>
<image xlink:href="../../images/foreignKeys.png" width="11px" height="12px" preserveAspectRatio="xMinYMin meet" x="587" y="-323"/>
<text text-anchor="start" x="602" y="-314.2" font-family="Helvetica,sans-Serif" font-size="11.00">c_element_id</text>
<polygon fill="none" stroke="black" points="582,-284 582,-306 806,-306 806,-284 582,-284"/>
<image xlink:href="../../images/foreignKeys.png" width="11px" height="12px" preserveAspectRatio="xMinYMin meet" x="587" y="-301"/>
<text text-anchor="start" x="602" y="-292.2" font-family="Helvetica,sans-Serif" font-size="11.00">c_bankaccount_id</text>
<polygon fill="none" stroke="black" points="582,-262 582,-284 806,-284 806,-262 582,-262"/>
<image xlink:href="../../images/foreignKeys.png" width="11px" height="12px" preserveAspectRatio="xMinYMin meet" x="587" y="-279"/>
<text text-anchor="start" x="602" y="-270.2" font-family="Helvetica,sans-Serif" font-size="11.00">c_currency_id</text>
<polygon fill="#ffffff" stroke="transparent" points="582,-240 582,-262 806,-262 806,-240 582,-240"/>
<polygon fill="none" stroke="black" points="582,-240 582,-262 806,-262 806,-240 582,-240"/>
<text text-anchor="start" x="602" y="-248.2" font-family="Helvetica,sans-Serif" font-size="11.00">c_elementvalue_uu</text>
<polygon fill="none" stroke="black" points="582,-218 582,-240 806,-240 806,-218 582,-218"/>
<image xlink:href="../../images/foreignKeys.png" width="11px" height="12px" preserveAspectRatio="xMinYMin meet" x="587" y="-235"/>
<text text-anchor="start" x="602" y="-226.2" font-family="Helvetica,sans-Serif" font-size="11.00">cof_codagl_id</text>
<polygon fill="none" stroke="black" points="582,-200 582,-218 806,-218 806,-200 582,-200"/>
<text text-anchor="start" x="585" y="-206.2" font-family="Helvetica,sans-Serif" font-size="11.00">...</text>
<polygon fill="#ffffff" stroke="transparent" points="582,-182 582,-200 806,-200 806,-182 582,-182"/>
<polygon fill="none" stroke="black" points="582,-182 582,-200 806,-200 806,-182 582,-182"/>
<polygon fill="#ffffff" stroke="transparent" points="583,-183 583,-199 641,-199 641,-183 583,-183"/>
<text text-anchor="start" x="585" y="-188.2" font-family="Helvetica,sans-Serif" font-size="11.00">&lt; 6</text>
<polygon fill="#ffffff" stroke="transparent" points="641,-183 641,-199 736,-199 736,-183 641,-183"/>
<text text-anchor="start" x="661.5" y="-188.2" font-family="Helvetica,sans-Serif" font-size="11.00">1.835 rows</text>
<polygon fill="#ffffff" stroke="transparent" points="736,-183 736,-199 805,-199 805,-183 736,-183"/>
<text text-anchor="start" x="775" y="-188.2" font-family="Helvetica,sans-Serif" font-size="11.00">120 &gt;</text>
<polygon fill="black" stroke="black" points="641,-183 641,-199 641,-199 641,-183 641,-183"/>
<polygon fill="black" stroke="black" points="736,-183 736,-199 736,-199 736,-183 736,-183"/>
</a>
</g>
</g>
<!-- c_elementvalue&#45;&gt;ad_org -->
<g id="edge6" class="edge">
<title>c_elementvalue:w&#45;&gt;ad_org:e</title>
<path fill="none" stroke="black" d="M567.97,-389.96C502.38,-468.64 593.89,-1188 509,-1188"/>
<polygon fill="black" stroke="black" points="573.94,-386.77 582.7,-386.18 577.47,-384.88 581,-383 581,-383 581,-383 577.47,-384.88 579.3,-379.82 573.94,-386.77 573.94,-386.77"/>
<ellipse fill="none" stroke="black" cx="571.12" cy="-388.28" rx="3.2" ry="3.2"/>
</g>
<!-- c_elementvalue&#45;&gt;ad_client -->
<g id="edge5" class="edge">
<title>c_elementvalue:w&#45;&gt;ad_client:e</title>
<path fill="none" stroke="black" d="M576.57,-391.03C571.02,-332.4 585.71,-147.91 294,-1021 280.75,-1060.67 296.32,-1205 254.5,-1205"/>
<polygon fill="black" stroke="black" points="578.58,-397.37 577.57,-406.09 579.79,-401.19 581,-405 581,-405 581,-405 579.79,-401.19 584.43,-403.91 578.58,-397.37 578.58,-397.37"/>
<ellipse fill="none" stroke="black" cx="577.61" cy="-394.32" rx="3.2" ry="3.2"/>
</g>
<!-- cof_apuracaooutra -->
<g id="node5" class="node">
<title>cof_apuracaooutra</title>
<g id="a_node5"><a xlink:href="../../tables/cof_apuracaooutra.html" xlink:title="cof_apuracaooutra" target="_top">
<polygon fill="#ffffff" stroke="transparent" points="880,-963 880,-1381 1210,-1381 1210,-963 880,-963"/>
<polygon fill="#f5f5f5" stroke="transparent" points="882,-1357 882,-1379 1208,-1379 1208,-1357 882,-1357"/>
<polygon fill="none" stroke="black" points="882,-1357 882,-1379 1208,-1379 1208,-1357 882,-1357"/>
<text text-anchor="start" x="887" y="-1366.2" font-family="Helvetica,sans-Serif" font-weight="bold" font-size="11.00">cof_apuracaooutra</text>
<text text-anchor="start" x="1173" y="-1365.2" font-family="Helvetica,sans-Serif" font-size="11.00">[table]</text>
<polygon fill="none" stroke="black" points="882,-1335 882,-1357 1125,-1357 1125,-1335 882,-1335"/>
<image xlink:href="../../images/foreignKeys.png" width="11px" height="12px" preserveAspectRatio="xMinYMin meet" x="887" y="-1352"/>
<text text-anchor="start" x="902" y="-1343.2" font-family="Helvetica,sans-Serif" font-size="11.00">ad_client_id</text>
<polygon fill="none" stroke="black" points="1125,-1335 1125,-1357 1208,-1357 1208,-1335 1125,-1335"/>
<text text-anchor="start" x="1128" y="-1343.2" font-family="Helvetica,sans-Serif" font-size="11.00">numeric[10]</text>
<polygon fill="none" stroke="black" points="882,-1313 882,-1335 1125,-1335 1125,-1313 882,-1313"/>
<image xlink:href="../../images/foreignKeys.png" width="11px" height="12px" preserveAspectRatio="xMinYMin meet" x="887" y="-1330"/>
<text text-anchor="start" x="902" y="-1321.2" font-family="Helvetica,sans-Serif" font-size="11.00">ad_org_id</text>
<polygon fill="none" stroke="black" points="1125,-1313 1125,-1335 1208,-1335 1208,-1313 1125,-1313"/>
<text text-anchor="start" x="1128" y="-1321.2" font-family="Helvetica,sans-Serif" font-size="11.00">numeric[10]</text>
<polygon fill="none" stroke="black" points="882,-1291 882,-1313 1125,-1313 1125,-1291 882,-1291"/>
<image xlink:href="../../images/primaryKeys.png" width="11px" height="12px" preserveAspectRatio="xMinYMin meet" x="887" y="-1308"/>
<text text-anchor="start" x="902" y="-1299.2" font-family="Helvetica,sans-Serif" font-size="11.00">cof_apuracaooutra_id</text>
<polygon fill="none" stroke="black" points="1125,-1291 1125,-1313 1208,-1313 1208,-1291 1125,-1291"/>
<text text-anchor="start" x="1128" y="-1299.2" font-family="Helvetica,sans-Serif" font-size="11.00">numeric[10]</text>
<polygon fill="#ffffff" stroke="transparent" points="882,-1269 882,-1291 1125,-1291 1125,-1269 882,-1269"/>
<polygon fill="none" stroke="black" points="882,-1269 882,-1291 1125,-1291 1125,-1269 882,-1269"/>
<text text-anchor="start" x="902" y="-1277.2" font-family="Helvetica,sans-Serif" font-size="11.00">cof_apuracaooutra_uu</text>
<polygon fill="none" stroke="black" points="1125,-1269 1125,-1291 1208,-1291 1208,-1269 1125,-1269"/>
<text text-anchor="start" x="1128" y="-1277.2" font-family="Helvetica,sans-Serif" font-size="11.00">varchar[36]</text>
<polygon fill="none" stroke="black" points="882,-1247 882,-1269 1125,-1269 1125,-1247 882,-1247"/>
<text text-anchor="start" x="902" y="-1255.2" font-family="Helvetica,sans-Serif" font-size="11.00">cof_outrasreceitasdespesas</text>
<polygon fill="none" stroke="black" points="1125,-1247 1125,-1269 1208,-1269 1208,-1247 1125,-1247"/>
<text text-anchor="start" x="1128" y="-1255.2" font-family="Helvetica,sans-Serif" font-size="11.00">varchar[3]</text>
<polygon fill="none" stroke="black" points="882,-1225 882,-1247 1125,-1247 1125,-1225 882,-1225"/>
<text text-anchor="start" x="902" y="-1233.2" font-family="Helvetica,sans-Serif" font-size="11.00">created</text>
<polygon fill="none" stroke="black" points="1125,-1225 1125,-1247 1208,-1247 1208,-1225 1125,-1225"/>
<text text-anchor="start" x="1128" y="-1233.2" font-family="Helvetica,sans-Serif" font-size="11.00">timestamp[29,6]</text>
<polygon fill="none" stroke="black" points="882,-1203 882,-1225 1125,-1225 1125,-1203 882,-1203"/>
<image xlink:href="../../images/foreignKeys.png" width="11px" height="12px" preserveAspectRatio="xMinYMin meet" x="887" y="-1220"/>
<text text-anchor="start" x="902" y="-1211.2" font-family="Helvetica,sans-Serif" font-size="11.00">createdby</text>
<polygon fill="none" stroke="black" points="1125,-1203 1125,-1225 1208,-1225 1208,-1203 1125,-1203"/>
<text text-anchor="start" x="1128" y="-1211.2" font-family="Helvetica,sans-Serif" font-size="11.00">numeric[10]</text>
<polygon fill="none" stroke="black" points="882,-1181 882,-1203 1125,-1203 1125,-1181 882,-1181"/>
<text text-anchor="start" x="902" y="-1189.2" font-family="Helvetica,sans-Serif" font-size="11.00">isactive</text>
<polygon fill="none" stroke="black" points="1125,-1181 1125,-1203 1208,-1203 1208,-1181 1125,-1181"/>
<text text-anchor="start" x="1128" y="-1189.2" font-family="Helvetica,sans-Serif" font-size="11.00">bpchar[1]</text>
<polygon fill="none" stroke="black" points="882,-1159 882,-1181 1125,-1181 1125,-1159 882,-1159"/>
<text text-anchor="start" x="902" y="-1167.2" font-family="Helvetica,sans-Serif" font-size="11.00">updated</text>
<polygon fill="none" stroke="black" points="1125,-1159 1125,-1181 1208,-1181 1208,-1159 1125,-1159"/>
<text text-anchor="start" x="1128" y="-1167.2" font-family="Helvetica,sans-Serif" font-size="11.00">timestamp[29,6]</text>
<polygon fill="none" stroke="black" points="882,-1137 882,-1159 1125,-1159 1125,-1137 882,-1137"/>
<image xlink:href="../../images/foreignKeys.png" width="11px" height="12px" preserveAspectRatio="xMinYMin meet" x="887" y="-1154"/>
<text text-anchor="start" x="902" y="-1145.2" font-family="Helvetica,sans-Serif" font-size="11.00">updatedby</text>
<polygon fill="none" stroke="black" points="1125,-1137 1125,-1159 1208,-1159 1208,-1137 1125,-1137"/>
<text text-anchor="start" x="1128" y="-1145.2" font-family="Helvetica,sans-Serif" font-size="11.00">numeric[10]</text>
<polygon fill="none" stroke="black" points="882,-1115 882,-1137 1125,-1137 1125,-1115 882,-1115"/>
<text text-anchor="start" x="902" y="-1123.2" font-family="Helvetica,sans-Serif" font-size="11.00">cof_valorreceita</text>
<polygon fill="none" stroke="black" points="1125,-1115 1125,-1137 1208,-1137 1208,-1115 1125,-1115"/>
<text text-anchor="start" x="1128" y="-1123.2" font-family="Helvetica,sans-Serif" font-size="11.00">numeric[0]</text>
<polygon fill="none" stroke="black" points="882,-1093 882,-1115 1125,-1115 1125,-1093 882,-1093"/>
<text text-anchor="start" x="902" y="-1101.2" font-family="Helvetica,sans-Serif" font-size="11.00">cof_taxamt_base</text>
<polygon fill="none" stroke="black" points="1125,-1093 1125,-1115 1208,-1115 1208,-1093 1125,-1093"/>
<text text-anchor="start" x="1128" y="-1101.2" font-family="Helvetica,sans-Serif" font-size="11.00">numeric[0]</text>
<polygon fill="none" stroke="black" points="882,-1071 882,-1093 1125,-1093 1125,-1071 882,-1071"/>
<text text-anchor="start" x="902" y="-1079.2" font-family="Helvetica,sans-Serif" font-size="11.00">cof_valor</text>
<polygon fill="none" stroke="black" points="1125,-1071 1125,-1093 1208,-1093 1208,-1071 1125,-1071"/>
<text text-anchor="start" x="1128" y="-1079.2" font-family="Helvetica,sans-Serif" font-size="11.00">numeric[0]</text>
<polygon fill="none" stroke="black" points="882,-1049 882,-1071 1125,-1071 1125,-1049 882,-1049"/>
<image xlink:href="../../images/foreignKeys.png" width="11px" height="12px" preserveAspectRatio="xMinYMin meet" x="887" y="-1066"/>
<text text-anchor="start" x="902" y="-1057.2" font-family="Helvetica,sans-Serif" font-size="11.00">cof_c_taxdetermination_hdr_id</text>
<polygon fill="none" stroke="black" points="1125,-1049 1125,-1071 1208,-1071 1208,-1049 1125,-1049"/>
<text text-anchor="start" x="1128" y="-1057.2" font-family="Helvetica,sans-Serif" font-size="11.00">numeric[10]</text>
<polygon fill="none" stroke="black" points="882,-1027 882,-1049 1125,-1049 1125,-1027 882,-1027"/>
<text text-anchor="start" x="902" y="-1035.2" font-family="Helvetica,sans-Serif" font-size="11.00">cof_aliquota</text>
<polygon fill="none" stroke="black" points="1125,-1027 1125,-1049 1208,-1049 1208,-1027 1125,-1027"/>
<text text-anchor="start" x="1128" y="-1035.2" font-family="Helvetica,sans-Serif" font-size="11.00">numeric[0]</text>
<polygon fill="none" stroke="black" points="882,-1005 882,-1027 1125,-1027 1125,-1005 882,-1005"/>
<image xlink:href="../../images/foreignKeys.png" width="11px" height="12px" preserveAspectRatio="xMinYMin meet" x="887" y="-1022"/>
<text text-anchor="start" x="902" y="-1013.2" font-family="Helvetica,sans-Serif" font-size="11.00">account_id</text>
<polygon fill="none" stroke="black" points="1125,-1005 1125,-1027 1208,-1027 1208,-1005 1125,-1005"/>
<text text-anchor="start" x="1128" y="-1013.2" font-family="Helvetica,sans-Serif" font-size="11.00">numeric[10]</text>
<polygon fill="none" stroke="black" points="882,-983 882,-1005 1125,-1005 1125,-983 882,-983"/>
<image xlink:href="../../images/foreignKeys.png" width="11px" height="12px" preserveAspectRatio="xMinYMin meet" x="887" y="-1000"/>
<text text-anchor="start" x="902" y="-991.2" font-family="Helvetica,sans-Serif" font-size="11.00">lbr_taxstatus_id</text>
<polygon fill="none" stroke="black" points="1125,-983 1125,-1005 1208,-1005 1208,-983 1125,-983"/>
<text text-anchor="start" x="1128" y="-991.2" font-family="Helvetica,sans-Serif" font-size="11.00">numeric[10]</text>
<polygon fill="#ffffff" stroke="transparent" points="882,-965 882,-983 1208,-983 1208,-965 882,-965"/>
<polygon fill="none" stroke="black" points="882,-965 882,-983 1208,-983 1208,-965 882,-965"/>
<polygon fill="#ffffff" stroke="transparent" points="883,-966 883,-982 994,-982 994,-966 883,-966"/>
<text text-anchor="start" x="885" y="-971.2" font-family="Helvetica,sans-Serif" font-size="11.00">&lt; 7</text>
<polygon fill="#ffffff" stroke="transparent" points="994,-966 994,-982 1096,-982 1096,-966 994,-966"/>
<text text-anchor="start" x="1041.5" y="-971.2" font-family="Helvetica,sans-Serif" font-size="11.00"> &#160;</text>
<polygon fill="#ffffff" stroke="transparent" points="1096,-966 1096,-982 1207,-982 1207,-966 1096,-966"/>
<text text-anchor="start" x="1189" y="-971.2" font-family="Helvetica,sans-Serif" font-size="11.00">0 &gt;</text>
<polygon fill="black" stroke="black" points="994,-966 994,-982 994,-982 994,-966 994,-966"/>
<polygon fill="black" stroke="black" points="1096,-966 1096,-982 1096,-982 1096,-966 1096,-966"/>
<polygon fill="none" stroke="black" stroke-width="2" points="881,-964 881,-1380 1209,-1380 1209,-964 881,-964"/>
</a>
</g>
</g>
<!-- cof_apuracaooutra&#45;&gt;ad_org -->
<g id="edge9" class="edge">
<title>cof_apuracaooutra:w&#45;&gt;ad_org:e</title>
<path fill="none" stroke="black" d="M866.53,-1324.31C783.92,-1327.49 604.37,-1352.9 549,-1311 503.16,-1276.31 566.48,-1188 509,-1188"/>
<polygon fill="black" stroke="black" points="873,-1324.17 881.08,-1327.6 877,-1324.09 881,-1324 881,-1324 881,-1324 877,-1324.09 880.92,-1320.4 873,-1324.17 873,-1324.17"/>
<ellipse fill="none" stroke="black" cx="869.8" cy="-1324.24" rx="3.2" ry="3.2"/>
</g>
<!-- cof_apuracaooutra&#45;&gt;ad_client -->
<g id="edge8" class="edge">
<title>cof_apuracaooutra:w&#45;&gt;ad_client:e</title>
<path fill="none" stroke="black" d="M866.23,-1346.04C730.53,-1346.74 689.51,-1356.56 549,-1332 431.99,-1311.54 392.83,-1317.88 294,-1252 271.3,-1236.87 281.79,-1205 254.5,-1205"/>
<polygon fill="black" stroke="black" points="873,-1346.02 881.01,-1349.6 877,-1346.01 881,-1346 881,-1346 881,-1346 877,-1346.01 880.99,-1342.4 873,-1346.02 873,-1346.02"/>
<ellipse fill="none" stroke="black" cx="869.8" cy="-1346.03" rx="3.2" ry="3.2"/>
</g>
<!-- cof_apuracaooutra&#45;&gt;ad_user -->
<g id="edge11" class="edge">
<title>cof_apuracaooutra:w&#45;&gt;ad_user:e</title>
<path fill="none" stroke="black" d="M866.74,-1217.32C845.11,-1228.92 846.89,-1267 815,-1267"/>
<polygon fill="black" stroke="black" points="873.21,-1215.81 881.82,-1217.51 877.1,-1214.91 881,-1214 881,-1214 881,-1214 877.1,-1214.91 880.18,-1210.49 873.21,-1215.81 873.21,-1215.81"/>
<ellipse fill="none" stroke="black" cx="870.09" cy="-1216.54" rx="3.2" ry="3.2"/>
</g>
<!-- cof_apuracaooutra&#45;&gt;ad_user -->
<g id="edge13" class="edge">
<title>cof_apuracaooutra:w&#45;&gt;ad_user:e</title>
<path fill="none" stroke="black" d="M866.84,-1150.94C829.81,-1169.27 869.81,-1267 815,-1267"/>
<polygon fill="black" stroke="black" points="873.17,-1149.63 881.73,-1151.52 877.08,-1148.81 881,-1148 881,-1148 881,-1148 877.08,-1148.81 880.27,-1144.48 873.17,-1149.63 873.17,-1149.63"/>
<ellipse fill="none" stroke="black" cx="870.03" cy="-1150.28" rx="3.2" ry="3.2"/>
</g>
<!-- cof_apuracaooutra&#45;&gt;c_elementvalue -->
<g id="edge7" class="edge">
<title>cof_apuracaooutra:w&#45;&gt;c_elementvalue:e</title>
<path fill="none" stroke="black" d="M868.78,-1007.9C825.92,-944.01 858.71,-522.64 839,-470 830.65,-447.69 830.82,-427 807,-427"/>
<polygon fill="black" stroke="black" points="874.33,-1011.58 879.01,-1019 877.67,-1013.79 881,-1016 881,-1016 881,-1016 877.67,-1013.79 882.99,-1013 874.33,-1011.58 874.33,-1011.58"/>
<ellipse fill="none" stroke="black" cx="871.67" cy="-1009.81" rx="3.2" ry="3.2"/>
</g>
<!-- cof_c_taxdetermination_hdr -->
<g id="node6" class="node">
<title>cof_c_taxdetermination_hdr</title>
<g id="a_node6"><a xlink:href="../../tables/cof_c_taxdetermination_hdr.html" xlink:title="cof_c_taxdetermination_hdr" target="_top">
<polygon fill="#ffffff" stroke="transparent" points="557,-481 557,-715 831,-715 831,-481 557,-481"/>
<polygon fill="#f5f5f5" stroke="transparent" points="557,-693 557,-715 831,-715 831,-693 557,-693"/>
<polygon fill="none" stroke="black" points="557,-693 557,-715 831,-715 831,-693 557,-693"/>
<text text-anchor="start" x="562" y="-702.2" font-family="Helvetica,sans-Serif" font-weight="bold" font-size="11.00">cof_c_taxdetermination_hdr</text>
<text text-anchor="start" x="796" y="-701.2" font-family="Helvetica,sans-Serif" font-size="11.00">[table]</text>
<polygon fill="none" stroke="black" points="557,-671 557,-693 831,-693 831,-671 557,-671"/>
<image xlink:href="../../images/primaryKeys.png" width="11px" height="12px" preserveAspectRatio="xMinYMin meet" x="562" y="-688"/>
<text text-anchor="start" x="577" y="-679.2" font-family="Helvetica,sans-Serif" font-size="11.00">cof_c_taxdetermination_hdr_id</text>
<polygon fill="#ffffff" stroke="transparent" points="557,-649 557,-671 831,-671 831,-649 557,-649"/>
<polygon fill="none" stroke="black" points="557,-649 557,-671 831,-671 831,-649 557,-649"/>
<text text-anchor="start" x="577" y="-657.2" font-family="Helvetica,sans-Serif" font-size="11.00">cof_c_taxdetermination_hdr_uu</text>
<polygon fill="none" stroke="black" points="557,-627 557,-649 831,-649 831,-627 557,-627"/>
<image xlink:href="../../images/foreignKeys.png" width="11px" height="12px" preserveAspectRatio="xMinYMin meet" x="562" y="-644"/>
<text text-anchor="start" x="577" y="-635.2" font-family="Helvetica,sans-Serif" font-size="11.00">lbr_taxname_id</text>
<polygon fill="none" stroke="black" points="557,-605 557,-627 831,-627 831,-605 557,-605"/>
<image xlink:href="../../images/foreignKeys.png" width="11px" height="12px" preserveAspectRatio="xMinYMin meet" x="562" y="-622"/>
<text text-anchor="start" x="577" y="-613.2" font-family="Helvetica,sans-Serif" font-size="11.00">cof_orgst_id</text>
<polygon fill="none" stroke="black" points="557,-583 557,-605 831,-605 831,-583 557,-583"/>
<image xlink:href="../../images/foreignKeys.png" width="11px" height="12px" preserveAspectRatio="xMinYMin meet" x="562" y="-600"/>
<text text-anchor="start" x="577" y="-591.2" font-family="Helvetica,sans-Serif" font-size="11.00">cof_c_snrange_id</text>
<polygon fill="none" stroke="black" points="557,-561 557,-583 831,-583 831,-561 557,-561"/>
<image xlink:href="../../images/foreignKeys.png" width="11px" height="12px" preserveAspectRatio="xMinYMin meet" x="562" y="-578"/>
<text text-anchor="start" x="577" y="-569.2" font-family="Helvetica,sans-Serif" font-size="11.00">cof_estadodestino_id</text>
<polygon fill="none" stroke="black" points="557,-539 557,-561 831,-561 831,-539 557,-539"/>
<image xlink:href="../../images/foreignKeys.png" width="11px" height="12px" preserveAspectRatio="xMinYMin meet" x="562" y="-556"/>
<text text-anchor="start" x="577" y="-547.2" font-family="Helvetica,sans-Serif" font-size="11.00">parent_id</text>
<polygon fill="none" stroke="black" points="557,-517 557,-539 831,-539 831,-517 557,-517"/>
<image xlink:href="../../images/foreignKeys.png" width="11px" height="12px" preserveAspectRatio="xMinYMin meet" x="562" y="-534"/>
<text text-anchor="start" x="577" y="-525.2" font-family="Helvetica,sans-Serif" font-size="11.00">cof_c_taxdetermination_hdr_ant_id</text>
<polygon fill="none" stroke="black" points="557,-499 557,-517 831,-517 831,-499 557,-499"/>
<text text-anchor="start" x="560" y="-505.2" font-family="Helvetica,sans-Serif" font-size="11.00">...</text>
<polygon fill="#ffffff" stroke="transparent" points="557,-481 557,-499 831,-499 831,-481 557,-481"/>
<polygon fill="none" stroke="black" points="557,-481 557,-499 831,-499 831,-481 557,-481"/>
<polygon fill="#ffffff" stroke="transparent" points="558,-482 558,-498 645,-498 645,-482 558,-482"/>
<text text-anchor="start" x="560" y="-487.2" font-family="Helvetica,sans-Serif" font-size="11.00">&lt; 6</text>
<polygon fill="#ffffff" stroke="transparent" points="645,-482 645,-498 744,-498 744,-482 645,-482"/>
<text text-anchor="start" x="680.5" y="-487.2" font-family="Helvetica,sans-Serif" font-size="11.00">1 row</text>
<polygon fill="#ffffff" stroke="transparent" points="744,-482 744,-498 830,-498 830,-482 744,-482"/>
<text text-anchor="start" x="812" y="-487.2" font-family="Helvetica,sans-Serif" font-size="11.00">6 &gt;</text>
<polygon fill="black" stroke="black" points="645,-482 645,-498 645,-498 645,-482 645,-482"/>
<polygon fill="black" stroke="black" points="744,-482 744,-498 744,-498 744,-482 744,-482"/>
</a>
</g>
</g>
<!-- cof_apuracaooutra&#45;&gt;cof_c_taxdetermination_hdr -->
<g id="edge10" class="edge">
<title>cof_apuracaooutra:w&#45;&gt;cof_c_taxdetermination_hdr:e</title>
<path fill="none" stroke="black" d="M867.07,-1055.49C810.97,-1012.84 911.24,-682 832,-682"/>
<polygon fill="black" stroke="black" points="873.39,-1057.54 879.89,-1063.43 877.19,-1058.77 881,-1060 881,-1060 881,-1060 877.19,-1058.77 882.11,-1056.57 873.39,-1057.54 873.39,-1057.54"/>
<ellipse fill="none" stroke="black" cx="870.34" cy="-1056.55" rx="3.2" ry="3.2"/>
</g>
<!-- lbr_taxstatus -->
<g id="node7" class="node">
<title>lbr_taxstatus</title>
<g id="a_node7"><a xlink:href="../../tables/lbr_taxstatus.html" xlink:title="lbr_taxstatus" target="_top">
<polygon fill="#ffffff" stroke="transparent" points="600,-37 600,-161 788,-161 788,-37 600,-37"/>
<polygon fill="#f5f5f5" stroke="transparent" points="600,-139 600,-161 788,-161 788,-139 600,-139"/>
<polygon fill="none" stroke="black" points="600,-139 600,-161 788,-161 788,-139 600,-139"/>
<text text-anchor="start" x="605" y="-148.2" font-family="Helvetica,sans-Serif" font-weight="bold" font-size="11.00">lbr_taxstatus</text>
<text text-anchor="start" x="753" y="-147.2" font-family="Helvetica,sans-Serif" font-size="11.00">[table]</text>
<polygon fill="none" stroke="black" points="600,-117 600,-139 788,-139 788,-117 600,-117"/>
<image xlink:href="../../images/foreignKeys.png" width="11px" height="12px" preserveAspectRatio="xMinYMin meet" x="605" y="-134"/>
<text text-anchor="start" x="620" y="-125.2" font-family="Helvetica,sans-Serif" font-size="11.00">lbr_taxname_id</text>
<polygon fill="none" stroke="black" points="600,-95 600,-117 788,-117 788,-95 600,-95"/>
<image xlink:href="../../images/primaryKeys.png" width="11px" height="12px" preserveAspectRatio="xMinYMin meet" x="605" y="-112"/>
<text text-anchor="start" x="620" y="-103.2" font-family="Helvetica,sans-Serif" font-size="11.00">lbr_taxstatus_id</text>
<polygon fill="#ffffff" stroke="transparent" points="600,-73 600,-95 788,-95 788,-73 600,-73"/>
<polygon fill="none" stroke="black" points="600,-73 600,-95 788,-95 788,-73 600,-73"/>
<text text-anchor="start" x="620" y="-81.2" font-family="Helvetica,sans-Serif" font-size="11.00">lbr_taxstatus_uu</text>
<polygon fill="none" stroke="black" points="600,-55 600,-73 788,-73 788,-55 600,-55"/>
<text text-anchor="start" x="603" y="-61.2" font-family="Helvetica,sans-Serif" font-size="11.00">...</text>
<polygon fill="#ffffff" stroke="transparent" points="600,-37 600,-55 788,-55 788,-37 600,-37"/>
<polygon fill="none" stroke="black" points="600,-37 600,-55 788,-55 788,-37 600,-37"/>
<polygon fill="#ffffff" stroke="transparent" points="601,-38 601,-54 652,-54 652,-38 601,-38"/>
<text text-anchor="start" x="603" y="-43.2" font-family="Helvetica,sans-Serif" font-size="11.00">&lt; 1</text>
<polygon fill="#ffffff" stroke="transparent" points="652,-38 652,-54 731,-54 731,-38 652,-38"/>
<text text-anchor="start" x="669" y="-43.2" font-family="Helvetica,sans-Serif" font-size="11.00">160 rows</text>
<polygon fill="#ffffff" stroke="transparent" points="731,-38 731,-54 787,-54 787,-38 731,-38"/>
<text text-anchor="start" x="763" y="-43.2" font-family="Helvetica,sans-Serif" font-size="11.00">15 &gt;</text>
<polygon fill="black" stroke="black" points="652,-38 652,-54 652,-54 652,-38 652,-38"/>
<polygon fill="black" stroke="black" points="731,-38 731,-54 731,-54 731,-38 731,-38"/>
</a>
</g>
</g>
<!-- cof_apuracaooutra&#45;&gt;lbr_taxstatus -->
<g id="edge12" class="edge">
<title>cof_apuracaooutra:w&#45;&gt;lbr_taxstatus:e</title>
<path fill="none" stroke="black" d="M872.06,-982.35C837.87,-885.11 853.7,-210.85 839,-171 826.39,-136.8 825.45,-106 789,-106"/>
<polygon fill="black" stroke="black" points="876.13,-987.65 878.14,-996.19 878.56,-990.83 881,-994 881,-994 881,-994 878.56,-990.83 883.86,-991.81 876.13,-987.65 876.13,-987.65"/>
<ellipse fill="none" stroke="black" cx="874.18" cy="-985.11" rx="3.2" ry="3.2"/>
</g>
</g>
</svg>
