<?xml version="1.0" encoding="UTF-8" standalone="no"?>
<!DOCTYPE svg PUBLIC "-//W3C//DTD SVG 1.1//EN"
 "http://www.w3.org/Graphics/SVG/1.1/DTD/svg11.dtd">
<!-- Generated by graphviz version 2.43.0 (0)
 -->
<!-- Title: oneDegreeRelationshipsDiagram Pages: 1 -->
<svg width="754pt" height="927pt"
 viewBox="0.00 0.00 754.42 927.00" xmlns="http://www.w3.org/2000/svg" xmlns:xlink="http://www.w3.org/1999/xlink">
<g id="graph0" class="graph" transform="scale(1 1) rotate(0) translate(4 923)">
<title>oneDegreeRelationshipsDiagram</title>
<polygon fill="#ffffff" stroke="transparent" points="-4,4 -4,-923 750.42,-923 750.42,4 -4,4"/>
<text text-anchor="middle" x="71.5" y="-7.2" font-family="Helvetica,sans-Serif" font-size="11.00">Generated by SchemaSpy</text>
<!-- cof_rps -->
<g id="node1" class="node">
<title>cof_rps</title>
<g id="a_node1"><a xlink:href="../../tables/cof_rps.html" xlink:title="cof_rps" target="_top">
<polygon fill="#ffffff" stroke="transparent" points="452.42,-395 452.42,-915 738.42,-915 738.42,-395 452.42,-395"/>
<polygon fill="#f5f5f5" stroke="transparent" points="452.42,-893 452.42,-915 738.42,-915 738.42,-893 452.42,-893"/>
<polygon fill="none" stroke="black" points="452.42,-893 452.42,-915 738.42,-915 738.42,-893 452.42,-893"/>
<text text-anchor="start" x="457.42" y="-902.2" font-family="Helvetica,sans-Serif" font-weight="bold" font-size="11.00">cof_rps</text>
<text text-anchor="start" x="703.42" y="-901.2" font-family="Helvetica,sans-Serif" font-size="11.00">[table]</text>
<polygon fill="none" stroke="black" points="452.42,-871 452.42,-893 738.42,-893 738.42,-871 452.42,-871"/>
<image xlink:href="../../images/primaryKeys.png" width="11px" height="12px" preserveAspectRatio="xMinYMin meet" x="457.416" y="-888"/>
<text text-anchor="start" x="472.42" y="-879.2" font-family="Helvetica,sans-Serif" font-size="11.00">cof_rps_id</text>
<polygon fill="none" stroke="black" points="452.42,-849 452.42,-871 738.42,-871 738.42,-849 452.42,-849"/>
<image xlink:href="../../images/foreignKeys.png" width="11px" height="12px" preserveAspectRatio="xMinYMin meet" x="457.416" y="-866"/>
<text text-anchor="start" x="472.42" y="-857.2" font-family="Helvetica,sans-Serif" font-size="11.00">ad_org_id</text>
<polygon fill="#ffffff" stroke="transparent" points="452.42,-827 452.42,-849 738.42,-849 738.42,-827 452.42,-827"/>
<polygon fill="none" stroke="black" points="452.42,-827 452.42,-849 738.42,-849 738.42,-827 452.42,-827"/>
<text text-anchor="start" x="472.42" y="-835.2" font-family="Helvetica,sans-Serif" font-size="11.00">cof_rps_uu</text>
<polygon fill="none" stroke="black" points="452.42,-805 452.42,-827 738.42,-827 738.42,-805 452.42,-805"/>
<image xlink:href="../../images/foreignKeys.png" width="11px" height="12px" preserveAspectRatio="xMinYMin meet" x="457.416" y="-822"/>
<text text-anchor="start" x="472.42" y="-813.2" font-family="Helvetica,sans-Serif" font-size="11.00">c_doctype_id</text>
<polygon fill="none" stroke="black" points="452.42,-783 452.42,-805 738.42,-805 738.42,-783 452.42,-783"/>
<image xlink:href="../../images/foreignKeys.png" width="11px" height="12px" preserveAspectRatio="xMinYMin meet" x="457.416" y="-800"/>
<text text-anchor="start" x="472.42" y="-791.2" font-family="Helvetica,sans-Serif" font-size="11.00">c_doctypetarget_id</text>
<polygon fill="none" stroke="black" points="452.42,-761 452.42,-783 738.42,-783 738.42,-761 452.42,-761"/>
<image xlink:href="../../images/foreignKeys.png" width="11px" height="12px" preserveAspectRatio="xMinYMin meet" x="457.416" y="-778"/>
<text text-anchor="start" x="472.42" y="-769.2" font-family="Helvetica,sans-Serif" font-size="11.00">cof_rps_lote_id</text>
<polygon fill="#ffffff" stroke="transparent" points="452.42,-739 452.42,-761 738.42,-761 738.42,-739 452.42,-739"/>
<polygon fill="none" stroke="black" points="452.42,-739 452.42,-761 738.42,-761 738.42,-739 452.42,-739"/>
<image xlink:href="../../images/foreignKeys.png" width="11px" height="12px" preserveAspectRatio="xMinYMin meet" x="457.416" y="-756"/>
<text text-anchor="start" x="472.42" y="-747.2" font-family="Helvetica,sans-Serif" font-size="11.00">c_invoice_id</text>
<polygon fill="#ffffff" stroke="transparent" points="452.42,-717 452.42,-739 738.42,-739 738.42,-717 452.42,-717"/>
<polygon fill="none" stroke="black" points="452.42,-717 452.42,-739 738.42,-739 738.42,-717 452.42,-717"/>
<image xlink:href="../../images/foreignKeys.png" width="11px" height="12px" preserveAspectRatio="xMinYMin meet" x="457.416" y="-734"/>
<text text-anchor="start" x="472.42" y="-725.2" font-family="Helvetica,sans-Serif" font-size="11.00">c_order_id</text>
<polygon fill="none" stroke="black" points="452.42,-695 452.42,-717 738.42,-717 738.42,-695 452.42,-695"/>
<image xlink:href="../../images/foreignKeys.png" width="11px" height="12px" preserveAspectRatio="xMinYMin meet" x="457.416" y="-712"/>
<text text-anchor="start" x="472.42" y="-703.2" font-family="Helvetica,sans-Serif" font-size="11.00">c_currency_id</text>
<polygon fill="none" stroke="black" points="452.42,-673 452.42,-695 738.42,-695 738.42,-673 452.42,-673"/>
<image xlink:href="../../images/foreignKeys.png" width="11px" height="12px" preserveAspectRatio="xMinYMin meet" x="457.416" y="-690"/>
<text text-anchor="start" x="472.42" y="-681.2" font-family="Helvetica,sans-Serif" font-size="11.00">c_paymentterm_id</text>
<polygon fill="none" stroke="black" points="452.42,-651 452.42,-673 738.42,-673 738.42,-651 452.42,-651"/>
<image xlink:href="../../images/foreignKeys.png" width="11px" height="12px" preserveAspectRatio="xMinYMin meet" x="457.416" y="-668"/>
<text text-anchor="start" x="472.42" y="-659.2" font-family="Helvetica,sans-Serif" font-size="11.00">m_pricelist_id</text>
<polygon fill="none" stroke="black" points="452.42,-629 452.42,-651 738.42,-651 738.42,-629 452.42,-629"/>
<image xlink:href="../../images/foreignKeys.png" width="11px" height="12px" preserveAspectRatio="xMinYMin meet" x="457.416" y="-646"/>
<text text-anchor="start" x="472.42" y="-637.2" font-family="Helvetica,sans-Serif" font-size="11.00">org_location_id</text>
<polygon fill="none" stroke="black" points="452.42,-607 452.42,-629 738.42,-629 738.42,-607 452.42,-607"/>
<image xlink:href="../../images/foreignKeys.png" width="11px" height="12px" preserveAspectRatio="xMinYMin meet" x="457.416" y="-624"/>
<text text-anchor="start" x="472.42" y="-615.2" font-family="Helvetica,sans-Serif" font-size="11.00">dest_bpartner_id</text>
<polygon fill="none" stroke="black" points="452.42,-585 452.42,-607 738.42,-607 738.42,-585 452.42,-585"/>
<image xlink:href="../../images/foreignKeys.png" width="11px" height="12px" preserveAspectRatio="xMinYMin meet" x="457.416" y="-602"/>
<text text-anchor="start" x="472.42" y="-593.2" font-family="Helvetica,sans-Serif" font-size="11.00">dest_city_id</text>
<polygon fill="none" stroke="black" points="452.42,-563 452.42,-585 738.42,-585 738.42,-563 452.42,-563"/>
<image xlink:href="../../images/foreignKeys.png" width="11px" height="12px" preserveAspectRatio="xMinYMin meet" x="457.416" y="-580"/>
<text text-anchor="start" x="472.42" y="-571.2" font-family="Helvetica,sans-Serif" font-size="11.00">dest_region_id</text>
<polygon fill="none" stroke="black" points="452.42,-541 452.42,-563 738.42,-563 738.42,-541 452.42,-541"/>
<image xlink:href="../../images/foreignKeys.png" width="11px" height="12px" preserveAspectRatio="xMinYMin meet" x="457.416" y="-558"/>
<text text-anchor="start" x="472.42" y="-549.2" font-family="Helvetica,sans-Serif" font-size="11.00">dest_country_id</text>
<polygon fill="none" stroke="black" points="452.42,-519 452.42,-541 738.42,-541 738.42,-519 452.42,-519"/>
<image xlink:href="../../images/foreignKeys.png" width="11px" height="12px" preserveAspectRatio="xMinYMin meet" x="457.416" y="-536"/>
<text text-anchor="start" x="472.42" y="-527.2" font-family="Helvetica,sans-Serif" font-size="11.00">cof_nfsecancelamento_id</text>
<polygon fill="none" stroke="black" points="452.42,-497 452.42,-519 738.42,-519 738.42,-497 452.42,-497"/>
<image xlink:href="../../images/foreignKeys.png" width="11px" height="12px" preserveAspectRatio="xMinYMin meet" x="457.416" y="-514"/>
<text text-anchor="start" x="472.42" y="-505.2" font-family="Helvetica,sans-Serif" font-size="11.00">cof_bpdest_id</text>
<polygon fill="none" stroke="black" points="452.42,-475 452.42,-497 738.42,-497 738.42,-475 452.42,-475"/>
<image xlink:href="../../images/foreignKeys.png" width="11px" height="12px" preserveAspectRatio="xMinYMin meet" x="457.416" y="-492"/>
<text text-anchor="start" x="472.42" y="-483.2" font-family="Helvetica,sans-Serif" font-size="11.00">cof_destinatariocity_id</text>
<polygon fill="none" stroke="black" points="452.42,-453 452.42,-475 738.42,-475 738.42,-453 452.42,-453"/>
<image xlink:href="../../images/foreignKeys.png" width="11px" height="12px" preserveAspectRatio="xMinYMin meet" x="457.416" y="-470"/>
<text text-anchor="start" x="472.42" y="-461.2" font-family="Helvetica,sans-Serif" font-size="11.00">cof_destinatariocountry_id</text>
<polygon fill="none" stroke="black" points="452.42,-431 452.42,-453 738.42,-453 738.42,-431 452.42,-431"/>
<image xlink:href="../../images/foreignKeys.png" width="11px" height="12px" preserveAspectRatio="xMinYMin meet" x="457.416" y="-448"/>
<text text-anchor="start" x="472.42" y="-439.2" font-family="Helvetica,sans-Serif" font-size="11.00">cof_destinatarioregion_id</text>
<polygon fill="none" stroke="black" points="452.42,-413 452.42,-431 738.42,-431 738.42,-413 452.42,-413"/>
<text text-anchor="start" x="455.42" y="-419.2" font-family="Helvetica,sans-Serif" font-size="11.00">...</text>
<polygon fill="#ffffff" stroke="transparent" points="452.42,-395 452.42,-413 738.42,-413 738.42,-395 452.42,-395"/>
<polygon fill="none" stroke="black" points="452.42,-395 452.42,-413 738.42,-413 738.42,-395 452.42,-395"/>
<polygon fill="#ffffff" stroke="transparent" points="453.42,-396 453.42,-412 555.42,-412 555.42,-396 453.42,-396"/>
<text text-anchor="start" x="455.42" y="-401.2" font-family="Helvetica,sans-Serif" font-size="11.00">&lt; 19</text>
<polygon fill="#ffffff" stroke="transparent" points="555.42,-396 555.42,-412 642.42,-412 642.42,-396 555.42,-396"/>
<text text-anchor="start" x="595.42" y="-401.2" font-family="Helvetica,sans-Serif" font-size="11.00"> &#160;</text>
<polygon fill="#ffffff" stroke="transparent" points="642.42,-396 642.42,-412 737.42,-412 737.42,-396 642.42,-396"/>
<text text-anchor="start" x="719.42" y="-401.2" font-family="Helvetica,sans-Serif" font-size="11.00">1 &gt;</text>
<polygon fill="black" stroke="black" points="555.42,-396 555.42,-412 555.42,-412 555.42,-396 555.42,-396"/>
<polygon fill="black" stroke="black" points="642.42,-396 642.42,-412 642.42,-412 642.42,-396 642.42,-396"/>
</a>
</g>
</g>
<!-- cof_rps_lote -->
<g id="node2" class="node">
<title>cof_rps_lote</title>
<g id="a_node2"><a xlink:href="../../tables/cof_rps_lote.html" xlink:title="cof_rps_lote" target="_top">
<polygon fill="#ffffff" stroke="transparent" points="53.42,-37 53.42,-807 403.42,-807 403.42,-37 53.42,-37"/>
<polygon fill="#f5f5f5" stroke="transparent" points="55.42,-783 55.42,-805 401.42,-805 401.42,-783 55.42,-783"/>
<polygon fill="none" stroke="black" points="55.42,-783 55.42,-805 401.42,-805 401.42,-783 55.42,-783"/>
<text text-anchor="start" x="60.42" y="-792.2" font-family="Helvetica,sans-Serif" font-weight="bold" font-size="11.00">cof_rps_lote</text>
<text text-anchor="start" x="366.42" y="-791.2" font-family="Helvetica,sans-Serif" font-size="11.00">[table]</text>
<polygon fill="none" stroke="black" points="55.42,-761 55.42,-783 318.42,-783 318.42,-761 55.42,-761"/>
<image xlink:href="../../images/primaryKeys.png" width="11px" height="12px" preserveAspectRatio="xMinYMin meet" x="60.4155" y="-778"/>
<text text-anchor="start" x="75.42" y="-769.2" font-family="Helvetica,sans-Serif" font-size="11.00">cof_rps_lote_id</text>
<polygon fill="none" stroke="black" points="318.42,-761 318.42,-783 401.42,-783 401.42,-761 318.42,-761"/>
<text text-anchor="start" x="321.42" y="-769.2" font-family="Helvetica,sans-Serif" font-size="11.00">numeric[10]</text>
<polygon fill="none" stroke="black" points="55.42,-739 55.42,-761 318.42,-761 318.42,-739 55.42,-739"/>
<text text-anchor="start" x="75.42" y="-747.2" font-family="Helvetica,sans-Serif" font-size="11.00">ad_client_id</text>
<polygon fill="none" stroke="black" points="318.42,-739 318.42,-761 401.42,-761 401.42,-739 318.42,-739"/>
<text text-anchor="start" x="321.42" y="-747.2" font-family="Helvetica,sans-Serif" font-size="11.00">numeric[10]</text>
<polygon fill="none" stroke="black" points="55.42,-717 55.42,-739 318.42,-739 318.42,-717 55.42,-717"/>
<text text-anchor="start" x="75.42" y="-725.2" font-family="Helvetica,sans-Serif" font-size="11.00">ad_org_id</text>
<polygon fill="none" stroke="black" points="318.42,-717 318.42,-739 401.42,-739 401.42,-717 318.42,-717"/>
<text text-anchor="start" x="321.42" y="-725.2" font-family="Helvetica,sans-Serif" font-size="11.00">numeric[10]</text>
<polygon fill="none" stroke="black" points="55.42,-695 55.42,-717 318.42,-717 318.42,-695 55.42,-695"/>
<text text-anchor="start" x="75.42" y="-703.2" font-family="Helvetica,sans-Serif" font-size="11.00">isactive</text>
<polygon fill="none" stroke="black" points="318.42,-695 318.42,-717 401.42,-717 401.42,-695 318.42,-695"/>
<text text-anchor="start" x="321.42" y="-703.2" font-family="Helvetica,sans-Serif" font-size="11.00">bpchar[1]</text>
<polygon fill="none" stroke="black" points="55.42,-673 55.42,-695 318.42,-695 318.42,-673 55.42,-673"/>
<text text-anchor="start" x="75.42" y="-681.2" font-family="Helvetica,sans-Serif" font-size="11.00">created</text>
<polygon fill="none" stroke="black" points="318.42,-673 318.42,-695 401.42,-695 401.42,-673 318.42,-673"/>
<text text-anchor="start" x="321.42" y="-681.2" font-family="Helvetica,sans-Serif" font-size="11.00">timestamp[29,6]</text>
<polygon fill="none" stroke="black" points="55.42,-651 55.42,-673 318.42,-673 318.42,-651 55.42,-651"/>
<text text-anchor="start" x="75.42" y="-659.2" font-family="Helvetica,sans-Serif" font-size="11.00">createdby</text>
<polygon fill="none" stroke="black" points="318.42,-651 318.42,-673 401.42,-673 401.42,-651 318.42,-651"/>
<text text-anchor="start" x="321.42" y="-659.2" font-family="Helvetica,sans-Serif" font-size="11.00">numeric[10]</text>
<polygon fill="none" stroke="black" points="55.42,-629 55.42,-651 318.42,-651 318.42,-629 55.42,-629"/>
<text text-anchor="start" x="75.42" y="-637.2" font-family="Helvetica,sans-Serif" font-size="11.00">updated</text>
<polygon fill="none" stroke="black" points="318.42,-629 318.42,-651 401.42,-651 401.42,-629 318.42,-629"/>
<text text-anchor="start" x="321.42" y="-637.2" font-family="Helvetica,sans-Serif" font-size="11.00">timestamp[29,6]</text>
<polygon fill="none" stroke="black" points="55.42,-607 55.42,-629 318.42,-629 318.42,-607 55.42,-607"/>
<text text-anchor="start" x="75.42" y="-615.2" font-family="Helvetica,sans-Serif" font-size="11.00">updatedby</text>
<polygon fill="none" stroke="black" points="318.42,-607 318.42,-629 401.42,-629 401.42,-607 318.42,-607"/>
<text text-anchor="start" x="321.42" y="-615.2" font-family="Helvetica,sans-Serif" font-size="11.00">numeric[10]</text>
<polygon fill="#ffffff" stroke="transparent" points="55.42,-585 55.42,-607 318.42,-607 318.42,-585 55.42,-585"/>
<polygon fill="none" stroke="black" points="55.42,-585 55.42,-607 318.42,-607 318.42,-585 55.42,-585"/>
<text text-anchor="start" x="75.42" y="-593.2" font-family="Helvetica,sans-Serif" font-size="11.00">cof_rps_lote_uu</text>
<polygon fill="none" stroke="black" points="318.42,-585 318.42,-607 401.42,-607 401.42,-585 318.42,-585"/>
<text text-anchor="start" x="321.42" y="-593.2" font-family="Helvetica,sans-Serif" font-size="11.00">varchar[36]</text>
<polygon fill="none" stroke="black" points="55.42,-563 55.42,-585 318.42,-585 318.42,-563 55.42,-563"/>
<text text-anchor="start" x="75.42" y="-571.2" font-family="Helvetica,sans-Serif" font-size="11.00">cof_idlote</text>
<polygon fill="none" stroke="black" points="318.42,-563 318.42,-585 401.42,-585 401.42,-563 318.42,-563"/>
<text text-anchor="start" x="321.42" y="-571.2" font-family="Helvetica,sans-Serif" font-size="11.00">numeric[10]</text>
<polygon fill="none" stroke="black" points="55.42,-541 55.42,-563 318.42,-563 318.42,-541 55.42,-541"/>
<text text-anchor="start" x="75.42" y="-549.2" font-family="Helvetica,sans-Serif" font-size="11.00">cof_numerolote</text>
<polygon fill="none" stroke="black" points="318.42,-541 318.42,-563 401.42,-563 401.42,-541 318.42,-541"/>
<text text-anchor="start" x="321.42" y="-549.2" font-family="Helvetica,sans-Serif" font-size="11.00">numeric[10]</text>
<polygon fill="none" stroke="black" points="55.42,-519 55.42,-541 318.42,-541 318.42,-519 55.42,-519"/>
<text text-anchor="start" x="75.42" y="-527.2" font-family="Helvetica,sans-Serif" font-size="11.00">cof_quantidaderps</text>
<polygon fill="none" stroke="black" points="318.42,-519 318.42,-541 401.42,-541 401.42,-519 318.42,-519"/>
<text text-anchor="start" x="321.42" y="-527.2" font-family="Helvetica,sans-Serif" font-size="11.00">numeric[10]</text>
<polygon fill="none" stroke="black" points="55.42,-497 55.42,-519 318.42,-519 318.42,-497 55.42,-497"/>
<text text-anchor="start" x="75.42" y="-505.2" font-family="Helvetica,sans-Serif" font-size="11.00">cof_transacao</text>
<polygon fill="none" stroke="black" points="318.42,-497 318.42,-519 401.42,-519 401.42,-497 318.42,-497"/>
<text text-anchor="start" x="321.42" y="-505.2" font-family="Helvetica,sans-Serif" font-size="11.00">bpchar[1]</text>
<polygon fill="none" stroke="black" points="55.42,-475 55.42,-497 318.42,-497 318.42,-475 55.42,-475"/>
<text text-anchor="start" x="75.42" y="-483.2" font-family="Helvetica,sans-Serif" font-size="11.00">cof_metodoenvio</text>
<polygon fill="none" stroke="black" points="318.42,-475 318.42,-497 401.42,-497 401.42,-475 318.42,-475"/>
<text text-anchor="start" x="321.42" y="-483.2" font-family="Helvetica,sans-Serif" font-size="11.00">varchar[5]</text>
<polygon fill="none" stroke="black" points="55.42,-453 55.42,-475 318.42,-475 318.42,-453 55.42,-453"/>
<text text-anchor="start" x="75.42" y="-461.2" font-family="Helvetica,sans-Serif" font-size="11.00">cof_cpfcnpjremetente</text>
<polygon fill="none" stroke="black" points="318.42,-453 318.42,-475 401.42,-475 401.42,-453 318.42,-453"/>
<text text-anchor="start" x="321.42" y="-461.2" font-family="Helvetica,sans-Serif" font-size="11.00">varchar[18]</text>
<polygon fill="none" stroke="black" points="55.42,-431 55.42,-453 318.42,-453 318.42,-431 55.42,-431"/>
<text text-anchor="start" x="75.42" y="-439.2" font-family="Helvetica,sans-Serif" font-size="11.00">cof_inscricaomunicipalremetente</text>
<polygon fill="none" stroke="black" points="318.42,-431 318.42,-453 401.42,-453 401.42,-431 318.42,-431"/>
<text text-anchor="start" x="321.42" y="-439.2" font-family="Helvetica,sans-Serif" font-size="11.00">varchar[15]</text>
<polygon fill="none" stroke="black" points="55.42,-409 55.42,-431 318.42,-431 318.42,-409 55.42,-409"/>
<text text-anchor="start" x="75.42" y="-417.2" font-family="Helvetica,sans-Serif" font-size="11.00">cof_razaosocialremetente</text>
<polygon fill="none" stroke="black" points="318.42,-409 318.42,-431 401.42,-431 401.42,-409 318.42,-409"/>
<text text-anchor="start" x="321.42" y="-417.2" font-family="Helvetica,sans-Serif" font-size="11.00">varchar[60]</text>
<polygon fill="none" stroke="black" points="55.42,-387 55.42,-409 318.42,-409 318.42,-387 55.42,-387"/>
<text text-anchor="start" x="75.42" y="-395.2" font-family="Helvetica,sans-Serif" font-size="11.00">cof_codigocidaderemetente</text>
<polygon fill="none" stroke="black" points="318.42,-387 318.42,-409 401.42,-409 401.42,-387 318.42,-387"/>
<text text-anchor="start" x="321.42" y="-395.2" font-family="Helvetica,sans-Serif" font-size="11.00">numeric[10]</text>
<polygon fill="none" stroke="black" points="55.42,-365 55.42,-387 318.42,-387 318.42,-365 55.42,-365"/>
<text text-anchor="start" x="75.42" y="-373.2" font-family="Helvetica,sans-Serif" font-size="11.00">cof_datainicio</text>
<polygon fill="none" stroke="black" points="318.42,-365 318.42,-387 401.42,-387 401.42,-365 318.42,-365"/>
<text text-anchor="start" x="321.42" y="-373.2" font-family="Helvetica,sans-Serif" font-size="11.00">timestamp[29,6]</text>
<polygon fill="none" stroke="black" points="55.42,-343 55.42,-365 318.42,-365 318.42,-343 55.42,-343"/>
<text text-anchor="start" x="75.42" y="-351.2" font-family="Helvetica,sans-Serif" font-size="11.00">cof_datafim</text>
<polygon fill="none" stroke="black" points="318.42,-343 318.42,-365 401.42,-365 401.42,-343 318.42,-343"/>
<text text-anchor="start" x="321.42" y="-351.2" font-family="Helvetica,sans-Serif" font-size="11.00">timestamp[29,6]</text>
<polygon fill="none" stroke="black" points="55.42,-321 55.42,-343 318.42,-343 318.42,-321 55.42,-321"/>
<text text-anchor="start" x="75.42" y="-329.2" font-family="Helvetica,sans-Serif" font-size="11.00">cof_valortotalservicos</text>
<polygon fill="none" stroke="black" points="318.42,-321 318.42,-343 401.42,-343 401.42,-321 318.42,-321"/>
<text text-anchor="start" x="321.42" y="-329.2" font-family="Helvetica,sans-Serif" font-size="11.00">numeric[0]</text>
<polygon fill="none" stroke="black" points="55.42,-299 55.42,-321 318.42,-321 318.42,-299 55.42,-299"/>
<text text-anchor="start" x="75.42" y="-307.2" font-family="Helvetica,sans-Serif" font-size="11.00">cof_valortotaldeducoes</text>
<polygon fill="none" stroke="black" points="318.42,-299 318.42,-321 401.42,-321 401.42,-299 318.42,-299"/>
<text text-anchor="start" x="321.42" y="-307.2" font-family="Helvetica,sans-Serif" font-size="11.00">numeric[0]</text>
<polygon fill="none" stroke="black" points="55.42,-277 55.42,-299 318.42,-299 318.42,-277 55.42,-277"/>
<text text-anchor="start" x="75.42" y="-285.2" font-family="Helvetica,sans-Serif" font-size="11.00">cof_valortotalbasecalculo</text>
<polygon fill="none" stroke="black" points="318.42,-277 318.42,-299 401.42,-299 401.42,-277 318.42,-277"/>
<text text-anchor="start" x="321.42" y="-285.2" font-family="Helvetica,sans-Serif" font-size="11.00">numeric[0]</text>
<polygon fill="none" stroke="black" points="55.42,-255 55.42,-277 318.42,-277 318.42,-255 55.42,-255"/>
<text text-anchor="start" x="75.42" y="-263.2" font-family="Helvetica,sans-Serif" font-size="11.00">createfrom</text>
<polygon fill="none" stroke="black" points="318.42,-255 318.42,-277 401.42,-277 401.42,-255 318.42,-255"/>
<text text-anchor="start" x="321.42" y="-263.2" font-family="Helvetica,sans-Serif" font-size="11.00">bpchar[1]</text>
<polygon fill="none" stroke="black" points="55.42,-233 55.42,-255 318.42,-255 318.42,-233 55.42,-233"/>
<text text-anchor="start" x="75.42" y="-241.2" font-family="Helvetica,sans-Serif" font-size="11.00">lbr_lotsent</text>
<polygon fill="none" stroke="black" points="318.42,-233 318.42,-255 401.42,-255 401.42,-233 318.42,-233"/>
<text text-anchor="start" x="321.42" y="-241.2" font-family="Helvetica,sans-Serif" font-size="11.00">bpchar[1]</text>
<polygon fill="none" stroke="black" points="55.42,-211 55.42,-233 318.42,-233 318.42,-211 55.42,-211"/>
<text text-anchor="start" x="75.42" y="-219.2" font-family="Helvetica,sans-Serif" font-size="11.00">lbr_lotreceived</text>
<polygon fill="none" stroke="black" points="318.42,-211 318.42,-233 401.42,-233 401.42,-211 318.42,-211"/>
<text text-anchor="start" x="321.42" y="-219.2" font-family="Helvetica,sans-Serif" font-size="11.00">bpchar[1]</text>
<polygon fill="none" stroke="black" points="55.42,-189 55.42,-211 318.42,-211 318.42,-189 55.42,-189"/>
<text text-anchor="start" x="75.42" y="-197.2" font-family="Helvetica,sans-Serif" font-size="11.00">documentno</text>
<polygon fill="none" stroke="black" points="318.42,-189 318.42,-211 401.42,-211 401.42,-189 318.42,-189"/>
<text text-anchor="start" x="321.42" y="-197.2" font-family="Helvetica,sans-Serif" font-size="11.00">varchar[30]</text>
<polygon fill="none" stroke="black" points="55.42,-167 55.42,-189 318.42,-189 318.42,-167 55.42,-167"/>
<text text-anchor="start" x="75.42" y="-175.2" font-family="Helvetica,sans-Serif" font-size="11.00">name</text>
<polygon fill="none" stroke="black" points="318.42,-167 318.42,-189 401.42,-189 401.42,-167 318.42,-167"/>
<text text-anchor="start" x="321.42" y="-175.2" font-family="Helvetica,sans-Serif" font-size="11.00">varchar[250]</text>
<polygon fill="none" stroke="black" points="55.42,-145 55.42,-167 318.42,-167 318.42,-145 55.42,-145"/>
<text text-anchor="start" x="75.42" y="-153.2" font-family="Helvetica,sans-Serif" font-size="11.00">cof_processing</text>
<polygon fill="none" stroke="black" points="318.42,-145 318.42,-167 401.42,-167 401.42,-145 318.42,-145"/>
<text text-anchor="start" x="321.42" y="-153.2" font-family="Helvetica,sans-Serif" font-size="11.00">bpchar[1]</text>
<polygon fill="none" stroke="black" points="55.42,-123 55.42,-145 318.42,-145 318.42,-123 55.42,-123"/>
<text text-anchor="start" x="75.42" y="-131.2" font-family="Helvetica,sans-Serif" font-size="11.00">cof_processing2</text>
<polygon fill="none" stroke="black" points="318.42,-123 318.42,-145 401.42,-145 401.42,-123 318.42,-123"/>
<text text-anchor="start" x="321.42" y="-131.2" font-family="Helvetica,sans-Serif" font-size="11.00">bpchar[1]</text>
<polygon fill="none" stroke="black" points="55.42,-101 55.42,-123 318.42,-123 318.42,-101 55.42,-101"/>
<text text-anchor="start" x="75.42" y="-109.2" font-family="Helvetica,sans-Serif" font-size="11.00">cof_nfselote</text>
<polygon fill="none" stroke="black" points="318.42,-101 318.42,-123 401.42,-123 401.42,-101 318.42,-101"/>
<text text-anchor="start" x="321.42" y="-109.2" font-family="Helvetica,sans-Serif" font-size="11.00">numeric[0]</text>
<polygon fill="none" stroke="black" points="55.42,-79 55.42,-101 318.42,-101 318.42,-79 55.42,-79"/>
<image xlink:href="../../images/foreignKeys.png" width="11px" height="12px" preserveAspectRatio="xMinYMin meet" x="60.4155" y="-96"/>
<text text-anchor="start" x="75.42" y="-87.2" font-family="Helvetica,sans-Serif" font-size="11.00">cof_rps_loteoriginal_id</text>
<polygon fill="none" stroke="black" points="318.42,-79 318.42,-101 401.42,-101 401.42,-79 318.42,-79"/>
<text text-anchor="start" x="321.42" y="-87.2" font-family="Helvetica,sans-Serif" font-size="11.00">numeric[10]</text>
<polygon fill="none" stroke="black" points="55.42,-57 55.42,-79 318.42,-79 318.42,-57 55.42,-57"/>
<text text-anchor="start" x="75.42" y="-65.2" font-family="Helvetica,sans-Serif" font-size="11.00">cof_processing3</text>
<polygon fill="none" stroke="black" points="318.42,-57 318.42,-79 401.42,-79 401.42,-57 318.42,-57"/>
<text text-anchor="start" x="321.42" y="-65.2" font-family="Helvetica,sans-Serif" font-size="11.00">bpchar[1]</text>
<polygon fill="#ffffff" stroke="transparent" points="55.42,-39 55.42,-57 401.42,-57 401.42,-39 55.42,-39"/>
<polygon fill="none" stroke="black" points="55.42,-39 55.42,-57 401.42,-57 401.42,-39 55.42,-39"/>
<polygon fill="#ffffff" stroke="transparent" points="56.42,-40 56.42,-56 174.42,-56 174.42,-40 56.42,-40"/>
<text text-anchor="start" x="58.42" y="-45.2" font-family="Helvetica,sans-Serif" font-size="11.00">&lt; 1</text>
<polygon fill="#ffffff" stroke="transparent" points="174.42,-40 174.42,-56 283.42,-56 283.42,-40 174.42,-40"/>
<text text-anchor="start" x="225.42" y="-45.2" font-family="Helvetica,sans-Serif" font-size="11.00"> &#160;</text>
<polygon fill="#ffffff" stroke="transparent" points="283.42,-40 283.42,-56 400.42,-56 400.42,-40 283.42,-40"/>
<text text-anchor="start" x="382.42" y="-45.2" font-family="Helvetica,sans-Serif" font-size="11.00">2 &gt;</text>
<polygon fill="black" stroke="black" points="174.42,-40 174.42,-56 174.42,-56 174.42,-40 174.42,-40"/>
<polygon fill="black" stroke="black" points="283.42,-40 283.42,-56 283.42,-56 283.42,-40 283.42,-40"/>
<polygon fill="none" stroke="black" stroke-width="2" points="54.42,-38 54.42,-806 402.42,-806 402.42,-38 54.42,-38"/>
</a>
</g>
</g>
<!-- cof_rps&#45;&gt;cof_rps_lote -->
<g id="edge1" class="edge">
<title>cof_rps:w&#45;&gt;cof_rps_lote:e</title>
<path fill="none" stroke="black" d="M436.91,-772C425.59,-772 418.41,-772 402.42,-772"/>
<polygon fill="black" stroke="black" points="443.42,-772 451.42,-775.6 447.42,-772 451.42,-772 451.42,-772 451.42,-772 447.42,-772 451.42,-768.4 443.42,-772 443.42,-772"/>
<ellipse fill="none" stroke="black" cx="440.22" cy="-772" rx="3.2" ry="3.2"/>
</g>
<!-- cof_rps_lote&#45;&gt;cof_rps_lote -->
<g id="edge2" class="edge">
<title>cof_rps_lote:w&#45;&gt;cof_rps_lote:e</title>
<path fill="none" stroke="black" d="M47.87,-102.48C-35.87,-257.5 -28.59,-824 228.42,-824 492.92,-824 492.92,-815.33 401.42,-772"/>
<polygon fill="black" stroke="black" points="51.28,-96.85 58.5,-91.86 53.35,-93.42 55.42,-90 55.42,-90 55.42,-90 53.35,-93.42 52.34,-88.14 51.28,-96.85 51.28,-96.85"/>
<ellipse fill="none" stroke="black" cx="49.62" cy="-99.58" rx="3.2" ry="3.2"/>
</g>
</g>
</svg>
