<?xml version="1.0" encoding="UTF-8" standalone="no"?>
<!DOCTYPE svg PUBLIC "-//W3C//DTD SVG 1.1//EN"
 "http://www.w3.org/Graphics/SVG/1.1/DTD/svg11.dtd">
<!-- Generated by graphviz version 2.43.0 (0)
 -->
<!-- Title: oneDegreeRelationshipsDiagram Pages: 1 -->
<svg width="292pt" height="141pt"
 viewBox="0.00 0.00 292.00 141.00" xmlns="http://www.w3.org/2000/svg" xmlns:xlink="http://www.w3.org/1999/xlink">
<g id="graph0" class="graph" transform="scale(1 1) rotate(0) translate(4 137)">
<title>oneDegreeRelationshipsDiagram</title>
<polygon fill="#ffffff" stroke="transparent" points="-4,4 -4,-137 288,-137 288,4 -4,4"/>
<text text-anchor="middle" x="71.5" y="-7.2" font-family="Helvetica,sans-Serif" font-size="11.00">Generated by SchemaSpy</text>
<!-- cof_entitytype_check -->
<g id="node1" class="node">
<title>cof_entitytype_check</title>
<g id="a_node1"><a xlink:href="../../tables/cof_entitytype_check.html" xlink:title="cof_entitytype_check" target="_top">
<polygon fill="#ffffff" stroke="transparent" points="8,-37 8,-129 276,-129 276,-37 8,-37"/>
<polygon fill="#f5f5f5" stroke="transparent" points="10,-105 10,-127 274,-127 274,-105 10,-105"/>
<polygon fill="none" stroke="black" points="10,-105 10,-127 274,-127 274,-105 10,-105"/>
<text text-anchor="start" x="15" y="-114.2" font-family="Helvetica,sans-Serif" font-weight="bold" font-size="11.00">cof_entitytype_check</text>
<text text-anchor="start" x="241" y="-113.2" font-family="Helvetica,sans-Serif" font-size="11.00">[view]</text>
<polygon fill="none" stroke="black" points="10,-83 10,-105 184,-105 184,-83 10,-83"/>
<text text-anchor="start" x="30" y="-91.2" font-family="Helvetica,sans-Serif" font-size="11.00">tablename</text>
<polygon fill="none" stroke="black" points="184,-83 184,-105 274,-105 274,-83 184,-83"/>
<text text-anchor="start" x="187" y="-91.2" font-family="Helvetica,sans-Serif" font-size="11.00">text[2147483647]</text>
<polygon fill="none" stroke="black" points="10,-61 10,-83 184,-83 184,-61 10,-61"/>
<text text-anchor="start" x="30" y="-69.2" font-family="Helvetica,sans-Serif" font-size="11.00">record_id</text>
<polygon fill="none" stroke="black" points="184,-61 184,-83 274,-83 274,-61 184,-61"/>
<text text-anchor="start" x="187" y="-69.2" font-family="Helvetica,sans-Serif" font-size="11.00">numeric[10]</text>
<polygon fill="none" stroke="black" points="10,-39 10,-61 184,-61 184,-39 10,-39"/>
<text text-anchor="start" x="30" y="-47.2" font-family="Helvetica,sans-Serif" font-size="11.00">entitytype</text>
<polygon fill="none" stroke="black" points="184,-39 184,-61 274,-61 274,-39 184,-39"/>
<text text-anchor="start" x="187" y="-47.2" font-family="Helvetica,sans-Serif" font-size="11.00">varchar[40]</text>
<polygon fill="none" stroke="black" stroke-width="2" points="9,-38 9,-128 275,-128 275,-38 9,-38"/>
</a>
</g>
</g>
</g>
</svg>
