<?xml version="1.0" encoding="UTF-8" standalone="no"?>
<!DOCTYPE svg PUBLIC "-//W3C//DTD SVG 1.1//EN"
 "http://www.w3.org/Graphics/SVG/1.1/DTD/svg11.dtd">
<!-- Generated by graphviz version 2.43.0 (0)
 -->
<!-- Title: oneDegreeRelationshipsDiagram Pages: 1 -->
<svg width="641pt" height="795pt"
 viewBox="0.00 0.00 641.00 795.00" xmlns="http://www.w3.org/2000/svg" xmlns:xlink="http://www.w3.org/1999/xlink">
<g id="graph0" class="graph" transform="scale(1 1) rotate(0) translate(4 791)">
<title>oneDegreeRelationshipsDiagram</title>
<polygon fill="#ffffff" stroke="transparent" points="-4,4 -4,-791 637,-791 637,4 -4,4"/>
<text text-anchor="middle" x="71.5" y="-7.2" font-family="Helvetica,sans-Serif" font-size="11.00">Generated by SchemaSpy</text>
<!-- m_product -->
<g id="node1" class="node">
<title>m_product</title>
<g id="a_node1"><a xlink:href="../../tables/m_product.html" xlink:title="m_product" target="_top">
<polygon fill="#ffffff" stroke="transparent" points="359,-87 359,-783 625,-783 625,-87 359,-87"/>
<polygon fill="#f5f5f5" stroke="transparent" points="359,-761 359,-783 625,-783 625,-761 359,-761"/>
<polygon fill="none" stroke="black" points="359,-761 359,-783 625,-783 625,-761 359,-761"/>
<text text-anchor="start" x="364" y="-770.2" font-family="Helvetica,sans-Serif" font-weight="bold" font-size="11.00">m_product</text>
<text text-anchor="start" x="590" y="-769.2" font-family="Helvetica,sans-Serif" font-size="11.00">[table]</text>
<polygon fill="none" stroke="black" points="359,-739 359,-761 625,-761 625,-739 359,-739"/>
<image xlink:href="../../images/primaryKeys.png" width="11px" height="12px" preserveAspectRatio="xMinYMin meet" x="364" y="-756"/>
<text text-anchor="start" x="379" y="-747.2" font-family="Helvetica,sans-Serif" font-size="11.00">m_product_id</text>
<polygon fill="#ffffff" stroke="transparent" points="359,-717 359,-739 625,-739 625,-717 359,-717"/>
<polygon fill="none" stroke="black" points="359,-717 359,-739 625,-739 625,-717 359,-717"/>
<image xlink:href="../../images/foreignKeys.png" width="11px" height="12px" preserveAspectRatio="xMinYMin meet" x="364" y="-734"/>
<text text-anchor="start" x="379" y="-725.2" font-family="Helvetica,sans-Serif" font-size="11.00">ad_client_id</text>
<polygon fill="none" stroke="black" points="359,-695 359,-717 625,-717 625,-695 359,-695"/>
<image xlink:href="../../images/foreignKeys.png" width="11px" height="12px" preserveAspectRatio="xMinYMin meet" x="364" y="-712"/>
<text text-anchor="start" x="379" y="-703.2" font-family="Helvetica,sans-Serif" font-size="11.00">ad_org_id</text>
<polygon fill="#ffffff" stroke="transparent" points="359,-673 359,-695 625,-695 625,-673 359,-673"/>
<polygon fill="none" stroke="black" points="359,-673 359,-695 625,-695 625,-673 359,-673"/>
<text text-anchor="start" x="379" y="-681.2" font-family="Helvetica,sans-Serif" font-size="11.00">value</text>
<polygon fill="#ffffff" stroke="transparent" points="359,-651 359,-673 625,-673 625,-651 359,-651"/>
<polygon fill="none" stroke="black" points="359,-651 359,-673 625,-673 625,-651 359,-651"/>
<text text-anchor="start" x="379" y="-659.2" font-family="Helvetica,sans-Serif" font-size="11.00">name</text>
<polygon fill="#ffffff" stroke="transparent" points="359,-629 359,-651 625,-651 625,-629 359,-629"/>
<polygon fill="none" stroke="black" points="359,-629 359,-651 625,-651 625,-629 359,-629"/>
<text text-anchor="start" x="379" y="-637.2" font-family="Helvetica,sans-Serif" font-size="11.00">upc</text>
<polygon fill="none" stroke="black" points="359,-607 359,-629 625,-629 625,-607 359,-607"/>
<image xlink:href="../../images/foreignKeys.png" width="11px" height="12px" preserveAspectRatio="xMinYMin meet" x="364" y="-624"/>
<text text-anchor="start" x="379" y="-615.2" font-family="Helvetica,sans-Serif" font-size="11.00">c_uom_id</text>
<polygon fill="none" stroke="black" points="359,-585 359,-607 625,-607 625,-585 359,-585"/>
<image xlink:href="../../images/foreignKeys.png" width="11px" height="12px" preserveAspectRatio="xMinYMin meet" x="364" y="-602"/>
<text text-anchor="start" x="379" y="-593.2" font-family="Helvetica,sans-Serif" font-size="11.00">salesrep_id</text>
<polygon fill="none" stroke="black" points="359,-563 359,-585 625,-585 625,-563 359,-563"/>
<image xlink:href="../../images/foreignKeys.png" width="11px" height="12px" preserveAspectRatio="xMinYMin meet" x="364" y="-580"/>
<text text-anchor="start" x="379" y="-571.2" font-family="Helvetica,sans-Serif" font-size="11.00">c_revenuerecognition_id</text>
<polygon fill="#ffffff" stroke="transparent" points="359,-541 359,-563 625,-563 625,-541 359,-541"/>
<polygon fill="none" stroke="black" points="359,-541 359,-563 625,-563 625,-541 359,-541"/>
<image xlink:href="../../images/foreignKeys.png" width="11px" height="12px" preserveAspectRatio="xMinYMin meet" x="364" y="-558"/>
<text text-anchor="start" x="379" y="-549.2" font-family="Helvetica,sans-Serif" font-size="11.00">m_product_category_id</text>
<polygon fill="none" stroke="black" points="359,-519 359,-541 625,-541 625,-519 359,-519"/>
<image xlink:href="../../images/foreignKeys.png" width="11px" height="12px" preserveAspectRatio="xMinYMin meet" x="364" y="-536"/>
<text text-anchor="start" x="379" y="-527.2" font-family="Helvetica,sans-Serif" font-size="11.00">c_taxcategory_id</text>
<polygon fill="#ffffff" stroke="transparent" points="359,-497 359,-519 625,-519 625,-497 359,-497"/>
<polygon fill="none" stroke="black" points="359,-497 359,-519 625,-519 625,-497 359,-497"/>
<image xlink:href="../../images/foreignKeys.png" width="11px" height="12px" preserveAspectRatio="xMinYMin meet" x="364" y="-514"/>
<text text-anchor="start" x="379" y="-505.2" font-family="Helvetica,sans-Serif" font-size="11.00">s_resource_id</text>
<polygon fill="#ffffff" stroke="transparent" points="359,-475 359,-497 625,-497 625,-475 359,-475"/>
<polygon fill="none" stroke="black" points="359,-475 359,-497 625,-497 625,-475 359,-475"/>
<image xlink:href="../../images/foreignKeys.png" width="11px" height="12px" preserveAspectRatio="xMinYMin meet" x="364" y="-492"/>
<text text-anchor="start" x="379" y="-483.2" font-family="Helvetica,sans-Serif" font-size="11.00">s_expensetype_id</text>
<polygon fill="none" stroke="black" points="359,-453 359,-475 625,-475 625,-453 359,-453"/>
<image xlink:href="../../images/foreignKeys.png" width="11px" height="12px" preserveAspectRatio="xMinYMin meet" x="364" y="-470"/>
<text text-anchor="start" x="379" y="-461.2" font-family="Helvetica,sans-Serif" font-size="11.00">r_mailtext_id</text>
<polygon fill="none" stroke="black" points="359,-431 359,-453 625,-453 625,-431 359,-431"/>
<image xlink:href="../../images/foreignKeys.png" width="11px" height="12px" preserveAspectRatio="xMinYMin meet" x="364" y="-448"/>
<text text-anchor="start" x="379" y="-439.2" font-family="Helvetica,sans-Serif" font-size="11.00">m_attributeset_id</text>
<polygon fill="none" stroke="black" points="359,-409 359,-431 625,-431 625,-409 359,-409"/>
<image xlink:href="../../images/foreignKeys.png" width="11px" height="12px" preserveAspectRatio="xMinYMin meet" x="364" y="-426"/>
<text text-anchor="start" x="379" y="-417.2" font-family="Helvetica,sans-Serif" font-size="11.00">m_freightcategory_id</text>
<polygon fill="none" stroke="black" points="359,-387 359,-409 625,-409 625,-387 359,-387"/>
<image xlink:href="../../images/foreignKeys.png" width="11px" height="12px" preserveAspectRatio="xMinYMin meet" x="364" y="-404"/>
<text text-anchor="start" x="379" y="-395.2" font-family="Helvetica,sans-Serif" font-size="11.00">m_locator_id</text>
<polygon fill="none" stroke="black" points="359,-365 359,-387 625,-387 625,-365 359,-365"/>
<image xlink:href="../../images/foreignKeys.png" width="11px" height="12px" preserveAspectRatio="xMinYMin meet" x="364" y="-382"/>
<text text-anchor="start" x="379" y="-373.2" font-family="Helvetica,sans-Serif" font-size="11.00">c_subscriptiontype_id</text>
<polygon fill="#ffffff" stroke="transparent" points="359,-343 359,-365 625,-365 625,-343 359,-343"/>
<polygon fill="none" stroke="black" points="359,-343 359,-365 625,-365 625,-343 359,-343"/>
<text text-anchor="start" x="379" y="-351.2" font-family="Helvetica,sans-Serif" font-size="11.00">m_product_uu</text>
<polygon fill="none" stroke="black" points="359,-321 359,-343 625,-343 625,-321 359,-321"/>
<image xlink:href="../../images/foreignKeys.png" width="11px" height="12px" preserveAspectRatio="xMinYMin meet" x="364" y="-338"/>
<text text-anchor="start" x="379" y="-329.2" font-family="Helvetica,sans-Serif" font-size="11.00">m_parttype_id</text>
<polygon fill="none" stroke="black" points="359,-299 359,-321 625,-321 625,-299 359,-299"/>
<image xlink:href="../../images/foreignKeys.png" width="11px" height="12px" preserveAspectRatio="xMinYMin meet" x="364" y="-316"/>
<text text-anchor="start" x="379" y="-307.2" font-family="Helvetica,sans-Serif" font-size="11.00">cof_cest_id</text>
<polygon fill="none" stroke="black" points="359,-277 359,-299 625,-299 625,-277 359,-277"/>
<image xlink:href="../../images/foreignKeys.png" width="11px" height="12px" preserveAspectRatio="xMinYMin meet" x="364" y="-294"/>
<text text-anchor="start" x="379" y="-285.2" font-family="Helvetica,sans-Serif" font-size="11.00">cof_c_generoitem_sped_id</text>
<polygon fill="none" stroke="black" points="359,-255 359,-277 625,-277 625,-255 359,-255"/>
<image xlink:href="../../images/foreignKeys.png" width="11px" height="12px" preserveAspectRatio="xMinYMin meet" x="364" y="-272"/>
<text text-anchor="start" x="379" y="-263.2" font-family="Helvetica,sans-Serif" font-size="11.00">cof_producttype_id</text>
<polygon fill="none" stroke="black" points="359,-233 359,-255 625,-255 625,-233 359,-233"/>
<image xlink:href="../../images/foreignKeys.png" width="11px" height="12px" preserveAspectRatio="xMinYMin meet" x="364" y="-250"/>
<text text-anchor="start" x="379" y="-241.2" font-family="Helvetica,sans-Serif" font-size="11.00">cof_productclass_id</text>
<polygon fill="none" stroke="black" points="359,-211 359,-233 625,-233 625,-211 359,-211"/>
<image xlink:href="../../images/foreignKeys.png" width="11px" height="12px" preserveAspectRatio="xMinYMin meet" x="364" y="-228"/>
<text text-anchor="start" x="379" y="-219.2" font-family="Helvetica,sans-Serif" font-size="11.00">cof_productgroup_id</text>
<polygon fill="none" stroke="black" points="359,-189 359,-211 625,-211 625,-189 359,-189"/>
<image xlink:href="../../images/foreignKeys.png" width="11px" height="12px" preserveAspectRatio="xMinYMin meet" x="364" y="-206"/>
<text text-anchor="start" x="379" y="-197.2" font-family="Helvetica,sans-Serif" font-size="11.00">cof_nbs_id</text>
<polygon fill="none" stroke="black" points="359,-167 359,-189 625,-189 625,-167 359,-167"/>
<image xlink:href="../../images/foreignKeys.png" width="11px" height="12px" preserveAspectRatio="xMinYMin meet" x="364" y="-184"/>
<text text-anchor="start" x="379" y="-175.2" font-family="Helvetica,sans-Serif" font-size="11.00">cof_grupofornecedor_id</text>
<polygon fill="none" stroke="black" points="359,-145 359,-167 625,-167 625,-145 359,-145"/>
<image xlink:href="../../images/foreignKeys.png" width="11px" height="12px" preserveAspectRatio="xMinYMin meet" x="364" y="-162"/>
<text text-anchor="start" x="379" y="-153.2" font-family="Helvetica,sans-Serif" font-size="11.00">cof_gruposeparacao_id</text>
<polygon fill="none" stroke="black" points="359,-123 359,-145 625,-145 625,-123 359,-123"/>
<image xlink:href="../../images/foreignKeys.png" width="11px" height="12px" preserveAspectRatio="xMinYMin meet" x="364" y="-140"/>
<text text-anchor="start" x="379" y="-131.2" font-family="Helvetica,sans-Serif" font-size="11.00">cof_servicoatrelado_id</text>
<polygon fill="none" stroke="black" points="359,-105 359,-123 625,-123 625,-105 359,-105"/>
<text text-anchor="start" x="362" y="-111.2" font-family="Helvetica,sans-Serif" font-size="11.00">...</text>
<polygon fill="#ffffff" stroke="transparent" points="359,-87 359,-105 625,-105 625,-87 359,-87"/>
<polygon fill="none" stroke="black" points="359,-87 359,-105 625,-105 625,-87 359,-87"/>
<polygon fill="#ffffff" stroke="transparent" points="360,-88 360,-104 444,-104 444,-88 360,-88"/>
<text text-anchor="start" x="362" y="-93.2" font-family="Helvetica,sans-Serif" font-size="11.00">&lt; 24</text>
<polygon fill="#ffffff" stroke="transparent" points="444,-88 444,-104 534,-104 534,-88 444,-88"/>
<text text-anchor="start" x="475" y="-93.2" font-family="Helvetica,sans-Serif" font-size="11.00">1 row</text>
<polygon fill="#ffffff" stroke="transparent" points="534,-88 534,-104 624,-104 624,-88 534,-88"/>
<text text-anchor="start" x="594" y="-93.2" font-family="Helvetica,sans-Serif" font-size="11.00">187 &gt;</text>
<polygon fill="black" stroke="black" points="444,-88 444,-104 444,-104 444,-88 444,-88"/>
<polygon fill="black" stroke="black" points="534,-88 534,-104 534,-104 534,-88 534,-88"/>
</a>
</g>
</g>
<!-- cof_c_generoitem_sped -->
<g id="node2" class="node">
<title>cof_c_generoitem_sped</title>
<g id="a_node2"><a xlink:href="../../tables/cof_c_generoitem_sped.html" xlink:title="cof_c_generoitem_sped" target="_top">
<polygon fill="#ffffff" stroke="transparent" points="8,-37 8,-323 310,-323 310,-37 8,-37"/>
<polygon fill="#f5f5f5" stroke="transparent" points="10,-299 10,-321 308,-321 308,-299 10,-299"/>
<polygon fill="none" stroke="black" points="10,-299 10,-321 308,-321 308,-299 10,-299"/>
<text text-anchor="start" x="15" y="-308.2" font-family="Helvetica,sans-Serif" font-weight="bold" font-size="11.00">cof_c_generoitem_sped</text>
<text text-anchor="start" x="273" y="-307.2" font-family="Helvetica,sans-Serif" font-size="11.00">[table]</text>
<polygon fill="none" stroke="black" points="10,-277 10,-299 225,-299 225,-277 10,-277"/>
<image xlink:href="../../images/primaryKeys.png" width="11px" height="12px" preserveAspectRatio="xMinYMin meet" x="15" y="-294"/>
<text text-anchor="start" x="30" y="-285.2" font-family="Helvetica,sans-Serif" font-size="11.00">cof_c_generoitem_sped_id</text>
<polygon fill="none" stroke="black" points="225,-277 225,-299 308,-299 308,-277 225,-277"/>
<text text-anchor="start" x="228" y="-285.2" font-family="Helvetica,sans-Serif" font-size="11.00">numeric[10]</text>
<polygon fill="#ffffff" stroke="transparent" points="10,-255 10,-277 225,-277 225,-255 10,-255"/>
<polygon fill="none" stroke="black" points="10,-255 10,-277 225,-277 225,-255 10,-255"/>
<text text-anchor="start" x="30" y="-263.2" font-family="Helvetica,sans-Serif" font-size="11.00">cof_c_generoitem_sped_uu</text>
<polygon fill="none" stroke="black" points="225,-255 225,-277 308,-277 308,-255 225,-255"/>
<text text-anchor="start" x="228" y="-263.2" font-family="Helvetica,sans-Serif" font-size="11.00">varchar[36]</text>
<polygon fill="none" stroke="black" points="10,-233 10,-255 225,-255 225,-233 10,-233"/>
<text text-anchor="start" x="30" y="-241.2" font-family="Helvetica,sans-Serif" font-size="11.00">ad_client_id</text>
<polygon fill="none" stroke="black" points="225,-233 225,-255 308,-255 308,-233 225,-233"/>
<text text-anchor="start" x="228" y="-241.2" font-family="Helvetica,sans-Serif" font-size="11.00">numeric[10]</text>
<polygon fill="none" stroke="black" points="10,-211 10,-233 225,-233 225,-211 10,-211"/>
<text text-anchor="start" x="30" y="-219.2" font-family="Helvetica,sans-Serif" font-size="11.00">ad_org_id</text>
<polygon fill="none" stroke="black" points="225,-211 225,-233 308,-233 308,-211 225,-211"/>
<text text-anchor="start" x="228" y="-219.2" font-family="Helvetica,sans-Serif" font-size="11.00">numeric[10]</text>
<polygon fill="none" stroke="black" points="10,-189 10,-211 225,-211 225,-189 10,-189"/>
<text text-anchor="start" x="30" y="-197.2" font-family="Helvetica,sans-Serif" font-size="11.00">isactive</text>
<polygon fill="none" stroke="black" points="225,-189 225,-211 308,-211 308,-189 225,-189"/>
<text text-anchor="start" x="228" y="-197.2" font-family="Helvetica,sans-Serif" font-size="11.00">bpchar[1]</text>
<polygon fill="none" stroke="black" points="10,-167 10,-189 225,-189 225,-167 10,-167"/>
<text text-anchor="start" x="30" y="-175.2" font-family="Helvetica,sans-Serif" font-size="11.00">created</text>
<polygon fill="none" stroke="black" points="225,-167 225,-189 308,-189 308,-167 225,-167"/>
<text text-anchor="start" x="228" y="-175.2" font-family="Helvetica,sans-Serif" font-size="11.00">timestamp[29,6]</text>
<polygon fill="none" stroke="black" points="10,-145 10,-167 225,-167 225,-145 10,-145"/>
<text text-anchor="start" x="30" y="-153.2" font-family="Helvetica,sans-Serif" font-size="11.00">createdby</text>
<polygon fill="none" stroke="black" points="225,-145 225,-167 308,-167 308,-145 225,-145"/>
<text text-anchor="start" x="228" y="-153.2" font-family="Helvetica,sans-Serif" font-size="11.00">numeric[10]</text>
<polygon fill="none" stroke="black" points="10,-123 10,-145 225,-145 225,-123 10,-123"/>
<text text-anchor="start" x="30" y="-131.2" font-family="Helvetica,sans-Serif" font-size="11.00">updated</text>
<polygon fill="none" stroke="black" points="225,-123 225,-145 308,-145 308,-123 225,-123"/>
<text text-anchor="start" x="228" y="-131.2" font-family="Helvetica,sans-Serif" font-size="11.00">timestamp[29,6]</text>
<polygon fill="none" stroke="black" points="10,-101 10,-123 225,-123 225,-101 10,-101"/>
<text text-anchor="start" x="30" y="-109.2" font-family="Helvetica,sans-Serif" font-size="11.00">updatedby</text>
<polygon fill="none" stroke="black" points="225,-101 225,-123 308,-123 308,-101 225,-101"/>
<text text-anchor="start" x="228" y="-109.2" font-family="Helvetica,sans-Serif" font-size="11.00">numeric[10]</text>
<polygon fill="none" stroke="black" points="10,-79 10,-101 225,-101 225,-79 10,-79"/>
<text text-anchor="start" x="30" y="-87.2" font-family="Helvetica,sans-Serif" font-size="11.00">value</text>
<polygon fill="none" stroke="black" points="225,-79 225,-101 308,-101 308,-79 225,-79"/>
<text text-anchor="start" x="228" y="-87.2" font-family="Helvetica,sans-Serif" font-size="11.00">varchar[40]</text>
<polygon fill="none" stroke="black" points="10,-57 10,-79 225,-79 225,-57 10,-57"/>
<text text-anchor="start" x="30" y="-65.2" font-family="Helvetica,sans-Serif" font-size="11.00">description</text>
<polygon fill="none" stroke="black" points="225,-57 225,-79 308,-79 308,-57 225,-57"/>
<text text-anchor="start" x="228" y="-65.2" font-family="Helvetica,sans-Serif" font-size="11.00">varchar[255]</text>
<polygon fill="#ffffff" stroke="transparent" points="10,-39 10,-57 308,-57 308,-39 10,-39"/>
<polygon fill="none" stroke="black" points="10,-39 10,-57 308,-57 308,-39 10,-39"/>
<polygon fill="#ffffff" stroke="transparent" points="11,-40 11,-56 100,-56 100,-40 11,-40"/>
<text text-anchor="start" x="13" y="-45.2" font-family="Helvetica,sans-Serif" font-size="11.00">&lt; 0</text>
<polygon fill="#ffffff" stroke="transparent" points="100,-40 100,-56 218,-56 218,-40 100,-40"/>
<text text-anchor="start" x="136.5" y="-45.2" font-family="Helvetica,sans-Serif" font-size="11.00">101 rows</text>
<polygon fill="#ffffff" stroke="transparent" points="218,-40 218,-56 307,-56 307,-40 218,-40"/>
<text text-anchor="start" x="289" y="-45.2" font-family="Helvetica,sans-Serif" font-size="11.00">1 &gt;</text>
<polygon fill="black" stroke="black" points="100,-40 100,-56 100,-56 100,-40 100,-40"/>
<polygon fill="black" stroke="black" points="218,-40 218,-56 218,-56 218,-40 218,-40"/>
<polygon fill="none" stroke="black" stroke-width="2" points="9,-38 9,-322 309,-322 309,-38 9,-38"/>
</a>
</g>
</g>
<!-- m_product&#45;&gt;cof_c_generoitem_sped -->
<g id="edge1" class="edge">
<title>m_product:w&#45;&gt;cof_c_generoitem_sped:e</title>
<path fill="none" stroke="black" d="M343.49,-288C332.18,-288 324.99,-288 309,-288"/>
<polygon fill="black" stroke="black" points="350,-288 358,-291.6 354,-288 358,-288 358,-288 358,-288 354,-288 358,-284.4 350,-288 350,-288"/>
<ellipse fill="none" stroke="black" cx="346.8" cy="-288" rx="3.2" ry="3.2"/>
</g>
</g>
</svg>
