<?xml version="1.0" encoding="UTF-8" standalone="no"?>
<!DOCTYPE svg PUBLIC "-//W3C//DTD SVG 1.1//EN"
 "http://www.w3.org/Graphics/SVG/1.1/DTD/svg11.dtd">
<!-- Generated by graphviz version 2.43.0 (0)
 -->
<!-- Title: oneDegreeRelationshipsDiagram Pages: 1 -->
<svg width="358pt" height="1527pt"
 viewBox="0.00 0.00 358.00 1527.00" xmlns="http://www.w3.org/2000/svg" xmlns:xlink="http://www.w3.org/1999/xlink">
<g id="graph0" class="graph" transform="scale(1 1) rotate(0) translate(4 1523)">
<title>oneDegreeRelationshipsDiagram</title>
<polygon fill="#ffffff" stroke="transparent" points="-4,4 -4,-1523 354,-1523 354,4 -4,4"/>
<text text-anchor="middle" x="71.5" y="-7.2" font-family="Helvetica,sans-Serif" font-size="11.00">Generated by SchemaSpy</text>
<!-- cof_rv_lead -->
<g id="node1" class="node">
<title>cof_rv_lead</title>
<g id="a_node1"><a xlink:href="../../tables/cof_rv_lead.html" xlink:title="cof_rv_lead" target="_top">
<polygon fill="#ffffff" stroke="transparent" points="8,-37 8,-1515 342,-1515 342,-37 8,-37"/>
<polygon fill="#f5f5f5" stroke="transparent" points="10,-1491 10,-1513 340,-1513 340,-1491 10,-1491"/>
<polygon fill="none" stroke="black" points="10,-1491 10,-1513 340,-1513 340,-1491 10,-1491"/>
<text text-anchor="start" x="15" y="-1500.2" font-family="Helvetica,sans-Serif" font-weight="bold" font-size="11.00">cof_rv_lead</text>
<text text-anchor="start" x="307" y="-1499.2" font-family="Helvetica,sans-Serif" font-size="11.00">[view]</text>
<polygon fill="none" stroke="black" points="10,-1469 10,-1491 250,-1491 250,-1469 10,-1469"/>
<text text-anchor="start" x="30" y="-1477.2" font-family="Helvetica,sans-Serif" font-size="11.00">ad_client_id</text>
<polygon fill="none" stroke="black" points="250,-1469 250,-1491 340,-1491 340,-1469 250,-1469"/>
<text text-anchor="start" x="253" y="-1477.2" font-family="Helvetica,sans-Serif" font-size="11.00">numeric[10]</text>
<polygon fill="none" stroke="black" points="10,-1447 10,-1469 250,-1469 250,-1447 10,-1447"/>
<text text-anchor="start" x="30" y="-1455.2" font-family="Helvetica,sans-Serif" font-size="11.00">address1</text>
<polygon fill="none" stroke="black" points="250,-1447 250,-1469 340,-1469 340,-1447 250,-1447"/>
<text text-anchor="start" x="253" y="-1455.2" font-family="Helvetica,sans-Serif" font-size="11.00">varchar[60]</text>
<polygon fill="none" stroke="black" points="10,-1425 10,-1447 250,-1447 250,-1425 10,-1425"/>
<text text-anchor="start" x="30" y="-1433.2" font-family="Helvetica,sans-Serif" font-size="11.00">address2</text>
<polygon fill="none" stroke="black" points="250,-1425 250,-1447 340,-1447 340,-1425 250,-1425"/>
<text text-anchor="start" x="253" y="-1433.2" font-family="Helvetica,sans-Serif" font-size="11.00">varchar[60]</text>
<polygon fill="none" stroke="black" points="10,-1403 10,-1425 250,-1425 250,-1403 10,-1403"/>
<text text-anchor="start" x="30" y="-1411.2" font-family="Helvetica,sans-Serif" font-size="11.00">address3</text>
<polygon fill="none" stroke="black" points="250,-1403 250,-1425 340,-1425 340,-1403 250,-1403"/>
<text text-anchor="start" x="253" y="-1411.2" font-family="Helvetica,sans-Serif" font-size="11.00">varchar[60]</text>
<polygon fill="none" stroke="black" points="10,-1381 10,-1403 250,-1403 250,-1381 10,-1381"/>
<text text-anchor="start" x="30" y="-1389.2" font-family="Helvetica,sans-Serif" font-size="11.00">address4</text>
<polygon fill="none" stroke="black" points="250,-1381 250,-1403 340,-1403 340,-1381 250,-1381"/>
<text text-anchor="start" x="253" y="-1389.2" font-family="Helvetica,sans-Serif" font-size="11.00">varchar[60]</text>
<polygon fill="none" stroke="black" points="10,-1359 10,-1381 250,-1381 250,-1359 10,-1359"/>
<text text-anchor="start" x="30" y="-1367.2" font-family="Helvetica,sans-Serif" font-size="11.00">address5</text>
<polygon fill="none" stroke="black" points="250,-1359 250,-1381 340,-1381 340,-1359 250,-1359"/>
<text text-anchor="start" x="253" y="-1367.2" font-family="Helvetica,sans-Serif" font-size="11.00">varchar[60]</text>
<polygon fill="none" stroke="black" points="10,-1337 10,-1359 250,-1359 250,-1337 10,-1337"/>
<text text-anchor="start" x="30" y="-1345.2" font-family="Helvetica,sans-Serif" font-size="11.00">ad_org_id</text>
<polygon fill="none" stroke="black" points="250,-1337 250,-1359 340,-1359 340,-1337 250,-1337"/>
<text text-anchor="start" x="253" y="-1345.2" font-family="Helvetica,sans-Serif" font-size="11.00">numeric[10]</text>
<polygon fill="none" stroke="black" points="10,-1315 10,-1337 250,-1337 250,-1315 10,-1315"/>
<text text-anchor="start" x="30" y="-1323.2" font-family="Helvetica,sans-Serif" font-size="11.00">ad_orgtrx_id</text>
<polygon fill="none" stroke="black" points="250,-1315 250,-1337 340,-1337 340,-1315 250,-1315"/>
<text text-anchor="start" x="253" y="-1323.2" font-family="Helvetica,sans-Serif" font-size="11.00">numeric[10]</text>
<polygon fill="none" stroke="black" points="10,-1293 10,-1315 250,-1315 250,-1293 10,-1293"/>
<text text-anchor="start" x="30" y="-1301.2" font-family="Helvetica,sans-Serif" font-size="11.00">ad_user_id</text>
<polygon fill="none" stroke="black" points="250,-1293 250,-1315 340,-1315 340,-1293 250,-1293"/>
<text text-anchor="start" x="253" y="-1301.2" font-family="Helvetica,sans-Serif" font-size="11.00">numeric[10]</text>
<polygon fill="none" stroke="black" points="10,-1271 10,-1293 250,-1293 250,-1271 10,-1271"/>
<text text-anchor="start" x="30" y="-1279.2" font-family="Helvetica,sans-Serif" font-size="11.00">birthday</text>
<polygon fill="none" stroke="black" points="250,-1271 250,-1293 340,-1293 340,-1271 250,-1271"/>
<text text-anchor="start" x="253" y="-1279.2" font-family="Helvetica,sans-Serif" font-size="11.00">timestamp[29,6]</text>
<polygon fill="none" stroke="black" points="10,-1249 10,-1271 250,-1271 250,-1249 10,-1249"/>
<text text-anchor="start" x="30" y="-1257.2" font-family="Helvetica,sans-Serif" font-size="11.00">bp_location_id</text>
<polygon fill="none" stroke="black" points="250,-1249 250,-1271 340,-1271 340,-1249 250,-1249"/>
<text text-anchor="start" x="253" y="-1257.2" font-family="Helvetica,sans-Serif" font-size="11.00">numeric[10]</text>
<polygon fill="none" stroke="black" points="10,-1227 10,-1249 250,-1249 250,-1227 10,-1227"/>
<text text-anchor="start" x="30" y="-1235.2" font-family="Helvetica,sans-Serif" font-size="11.00">bpname</text>
<polygon fill="none" stroke="black" points="250,-1227 250,-1249 340,-1249 340,-1227 250,-1227"/>
<text text-anchor="start" x="253" y="-1235.2" font-family="Helvetica,sans-Serif" font-size="11.00">varchar[60]</text>
<polygon fill="none" stroke="black" points="10,-1205 10,-1227 250,-1227 250,-1205 10,-1205"/>
<text text-anchor="start" x="30" y="-1213.2" font-family="Helvetica,sans-Serif" font-size="11.00">c_bpartner_id</text>
<polygon fill="none" stroke="black" points="250,-1205 250,-1227 340,-1227 340,-1205 250,-1205"/>
<text text-anchor="start" x="253" y="-1213.2" font-family="Helvetica,sans-Serif" font-size="11.00">numeric[10]</text>
<polygon fill="none" stroke="black" points="10,-1183 10,-1205 250,-1205 250,-1183 10,-1183"/>
<text text-anchor="start" x="30" y="-1191.2" font-family="Helvetica,sans-Serif" font-size="11.00">c_bpartner_location_id</text>
<polygon fill="none" stroke="black" points="250,-1183 250,-1205 340,-1205 340,-1183 250,-1183"/>
<text text-anchor="start" x="253" y="-1191.2" font-family="Helvetica,sans-Serif" font-size="11.00">numeric[10]</text>
<polygon fill="none" stroke="black" points="10,-1161 10,-1183 250,-1183 250,-1161 10,-1161"/>
<text text-anchor="start" x="30" y="-1169.2" font-family="Helvetica,sans-Serif" font-size="11.00">c_campaign_id</text>
<polygon fill="none" stroke="black" points="250,-1161 250,-1183 340,-1183 340,-1161 250,-1161"/>
<text text-anchor="start" x="253" y="-1169.2" font-family="Helvetica,sans-Serif" font-size="11.00">numeric[10]</text>
<polygon fill="none" stroke="black" points="10,-1139 10,-1161 250,-1161 250,-1139 10,-1139"/>
<text text-anchor="start" x="30" y="-1147.2" font-family="Helvetica,sans-Serif" font-size="11.00">c_city_id</text>
<polygon fill="none" stroke="black" points="250,-1139 250,-1161 340,-1161 340,-1139 250,-1139"/>
<text text-anchor="start" x="253" y="-1147.2" font-family="Helvetica,sans-Serif" font-size="11.00">numeric[10]</text>
<polygon fill="none" stroke="black" points="10,-1117 10,-1139 250,-1139 250,-1117 10,-1117"/>
<text text-anchor="start" x="30" y="-1125.2" font-family="Helvetica,sans-Serif" font-size="11.00">c_country_id</text>
<polygon fill="none" stroke="black" points="250,-1117 250,-1139 340,-1139 340,-1117 250,-1117"/>
<text text-anchor="start" x="253" y="-1125.2" font-family="Helvetica,sans-Serif" font-size="11.00">numeric[10]</text>
<polygon fill="none" stroke="black" points="10,-1095 10,-1117 250,-1117 250,-1095 10,-1095"/>
<text text-anchor="start" x="30" y="-1103.2" font-family="Helvetica,sans-Serif" font-size="11.00">c_greeting_id</text>
<polygon fill="none" stroke="black" points="250,-1095 250,-1117 340,-1117 340,-1095 250,-1095"/>
<text text-anchor="start" x="253" y="-1103.2" font-family="Helvetica,sans-Serif" font-size="11.00">numeric[10]</text>
<polygon fill="none" stroke="black" points="10,-1073 10,-1095 250,-1095 250,-1073 10,-1073"/>
<text text-anchor="start" x="30" y="-1081.2" font-family="Helvetica,sans-Serif" font-size="11.00">city</text>
<polygon fill="none" stroke="black" points="250,-1073 250,-1095 340,-1095 340,-1073 250,-1073"/>
<text text-anchor="start" x="253" y="-1081.2" font-family="Helvetica,sans-Serif" font-size="11.00">varchar[60]</text>
<polygon fill="none" stroke="black" points="10,-1051 10,-1073 250,-1073 250,-1051 10,-1051"/>
<text text-anchor="start" x="30" y="-1059.2" font-family="Helvetica,sans-Serif" font-size="11.00">c_job_id</text>
<polygon fill="none" stroke="black" points="250,-1051 250,-1073 340,-1073 340,-1051 250,-1051"/>
<text text-anchor="start" x="253" y="-1059.2" font-family="Helvetica,sans-Serif" font-size="11.00">numeric[10]</text>
<polygon fill="none" stroke="black" points="10,-1029 10,-1051 250,-1051 250,-1029 10,-1029"/>
<text text-anchor="start" x="30" y="-1037.2" font-family="Helvetica,sans-Serif" font-size="11.00">c_location_id</text>
<polygon fill="none" stroke="black" points="250,-1029 250,-1051 340,-1051 340,-1029 250,-1029"/>
<text text-anchor="start" x="253" y="-1037.2" font-family="Helvetica,sans-Serif" font-size="11.00">numeric[10]</text>
<polygon fill="none" stroke="black" points="10,-1007 10,-1029 250,-1029 250,-1007 10,-1007"/>
<text text-anchor="start" x="30" y="-1015.2" font-family="Helvetica,sans-Serif" font-size="11.00">cof_bptypebr</text>
<polygon fill="none" stroke="black" points="250,-1007 250,-1029 340,-1029 340,-1007 250,-1007"/>
<text text-anchor="start" x="253" y="-1015.2" font-family="Helvetica,sans-Serif" font-size="11.00">varchar[2]</text>
<polygon fill="none" stroke="black" points="10,-985 10,-1007 250,-1007 250,-985 10,-985"/>
<text text-anchor="start" x="30" y="-993.2" font-family="Helvetica,sans-Serif" font-size="11.00">cof_c_leadexpirationreason_id</text>
<polygon fill="none" stroke="black" points="250,-985 250,-1007 340,-1007 340,-985 250,-985"/>
<text text-anchor="start" x="253" y="-993.2" font-family="Helvetica,sans-Serif" font-size="11.00">numeric[10]</text>
<polygon fill="none" stroke="black" points="10,-963 10,-985 250,-985 250,-963 10,-963"/>
<text text-anchor="start" x="30" y="-971.2" font-family="Helvetica,sans-Serif" font-size="11.00">cof_c_marketsegment_id</text>
<polygon fill="none" stroke="black" points="250,-963 250,-985 340,-985 340,-963 250,-963"/>
<text text-anchor="start" x="253" y="-971.2" font-family="Helvetica,sans-Serif" font-size="11.00">numeric[10]</text>
<polygon fill="none" stroke="black" points="10,-941 10,-963 250,-963 250,-941 10,-941"/>
<text text-anchor="start" x="30" y="-949.2" font-family="Helvetica,sans-Serif" font-size="11.00">cof_cnpj</text>
<polygon fill="none" stroke="black" points="250,-941 250,-963 340,-963 340,-941 250,-941"/>
<text text-anchor="start" x="253" y="-949.2" font-family="Helvetica,sans-Serif" font-size="11.00">varchar[14]</text>
<polygon fill="none" stroke="black" points="10,-919 10,-941 250,-941 250,-919 10,-919"/>
<text text-anchor="start" x="30" y="-927.2" font-family="Helvetica,sans-Serif" font-size="11.00">lbr_cpf</text>
<polygon fill="none" stroke="black" points="250,-919 250,-941 340,-941 340,-919 250,-919"/>
<text text-anchor="start" x="253" y="-927.2" font-family="Helvetica,sans-Serif" font-size="11.00">varchar[14]</text>
<polygon fill="none" stroke="black" points="10,-897 10,-919 250,-919 250,-897 10,-897"/>
<text text-anchor="start" x="30" y="-905.2" font-family="Helvetica,sans-Serif" font-size="11.00">cof_score</text>
<polygon fill="none" stroke="black" points="250,-897 250,-919 340,-919 340,-897 250,-897"/>
<text text-anchor="start" x="253" y="-905.2" font-family="Helvetica,sans-Serif" font-size="11.00">numeric[10]</text>
<polygon fill="none" stroke="black" points="10,-875 10,-897 250,-897 250,-875 10,-875"/>
<text text-anchor="start" x="30" y="-883.2" font-family="Helvetica,sans-Serif" font-size="11.00">comments</text>
<polygon fill="none" stroke="black" points="250,-875 250,-897 340,-897 340,-875 250,-875"/>
<text text-anchor="start" x="253" y="-883.2" font-family="Helvetica,sans-Serif" font-size="11.00">varchar[2000]</text>
<polygon fill="none" stroke="black" points="10,-853 10,-875 250,-875 250,-853 10,-853"/>
<text text-anchor="start" x="30" y="-861.2" font-family="Helvetica,sans-Serif" font-size="11.00">connectionprofile</text>
<polygon fill="none" stroke="black" points="250,-853 250,-875 340,-875 340,-853 250,-853"/>
<text text-anchor="start" x="253" y="-861.2" font-family="Helvetica,sans-Serif" font-size="11.00">bpchar[1]</text>
<polygon fill="none" stroke="black" points="10,-831 10,-853 250,-853 250,-831 10,-831"/>
<text text-anchor="start" x="30" y="-839.2" font-family="Helvetica,sans-Serif" font-size="11.00">c_region_id</text>
<polygon fill="none" stroke="black" points="250,-831 250,-853 340,-853 340,-831 250,-831"/>
<text text-anchor="start" x="253" y="-839.2" font-family="Helvetica,sans-Serif" font-size="11.00">numeric[10]</text>
<polygon fill="none" stroke="black" points="10,-809 10,-831 250,-831 250,-809 10,-809"/>
<text text-anchor="start" x="30" y="-817.2" font-family="Helvetica,sans-Serif" font-size="11.00">description</text>
<polygon fill="none" stroke="black" points="250,-809 250,-831 340,-831 340,-809 250,-809"/>
<text text-anchor="start" x="253" y="-817.2" font-family="Helvetica,sans-Serif" font-size="11.00">text[2147483647]</text>
<polygon fill="none" stroke="black" points="10,-787 10,-809 250,-809 250,-787 10,-787"/>
<text text-anchor="start" x="30" y="-795.2" font-family="Helvetica,sans-Serif" font-size="11.00">email</text>
<polygon fill="none" stroke="black" points="250,-787 250,-809 340,-809 340,-787 250,-787"/>
<text text-anchor="start" x="253" y="-795.2" font-family="Helvetica,sans-Serif" font-size="11.00">varchar[60]</text>
<polygon fill="none" stroke="black" points="10,-765 10,-787 250,-787 250,-765 10,-765"/>
<text text-anchor="start" x="30" y="-773.2" font-family="Helvetica,sans-Serif" font-size="11.00">emailuser</text>
<polygon fill="none" stroke="black" points="250,-765 250,-787 340,-787 340,-765 250,-765"/>
<text text-anchor="start" x="253" y="-773.2" font-family="Helvetica,sans-Serif" font-size="11.00">varchar[60]</text>
<polygon fill="none" stroke="black" points="10,-743 10,-765 250,-765 250,-743 10,-743"/>
<text text-anchor="start" x="30" y="-751.2" font-family="Helvetica,sans-Serif" font-size="11.00">emailuserpw</text>
<polygon fill="none" stroke="black" points="250,-743 250,-765 340,-765 340,-743 250,-743"/>
<text text-anchor="start" x="253" y="-751.2" font-family="Helvetica,sans-Serif" font-size="11.00">varchar[255]</text>
<polygon fill="none" stroke="black" points="10,-721 10,-743 250,-743 250,-721 10,-721"/>
<text text-anchor="start" x="30" y="-729.2" font-family="Helvetica,sans-Serif" font-size="11.00">emailverify</text>
<polygon fill="none" stroke="black" points="250,-721 250,-743 340,-743 340,-721 250,-721"/>
<text text-anchor="start" x="253" y="-729.2" font-family="Helvetica,sans-Serif" font-size="11.00">varchar[40]</text>
<polygon fill="none" stroke="black" points="10,-699 10,-721 250,-721 250,-699 10,-699"/>
<text text-anchor="start" x="30" y="-707.2" font-family="Helvetica,sans-Serif" font-size="11.00">emailverifydate</text>
<polygon fill="none" stroke="black" points="250,-699 250,-721 340,-721 340,-699 250,-699"/>
<text text-anchor="start" x="253" y="-707.2" font-family="Helvetica,sans-Serif" font-size="11.00">timestamp[29,6]</text>
<polygon fill="none" stroke="black" points="10,-677 10,-699 250,-699 250,-677 10,-677"/>
<text text-anchor="start" x="30" y="-685.2" font-family="Helvetica,sans-Serif" font-size="11.00">fax</text>
<polygon fill="none" stroke="black" points="250,-677 250,-699 340,-699 340,-677 250,-677"/>
<text text-anchor="start" x="253" y="-685.2" font-family="Helvetica,sans-Serif" font-size="11.00">varchar[40]</text>
<polygon fill="none" stroke="black" points="10,-655 10,-677 250,-677 250,-655 10,-655"/>
<text text-anchor="start" x="30" y="-663.2" font-family="Helvetica,sans-Serif" font-size="11.00">isactive</text>
<polygon fill="none" stroke="black" points="250,-655 250,-677 340,-677 340,-655 250,-655"/>
<text text-anchor="start" x="253" y="-663.2" font-family="Helvetica,sans-Serif" font-size="11.00">bpchar[1]</text>
<polygon fill="none" stroke="black" points="10,-633 10,-655 250,-655 250,-633 10,-633"/>
<text text-anchor="start" x="30" y="-641.2" font-family="Helvetica,sans-Serif" font-size="11.00">isfullbpaccess</text>
<polygon fill="none" stroke="black" points="250,-633 250,-655 340,-655 340,-633 250,-633"/>
<text text-anchor="start" x="253" y="-641.2" font-family="Helvetica,sans-Serif" font-size="11.00">bpchar[1]</text>
<polygon fill="none" stroke="black" points="10,-611 10,-633 250,-633 250,-611 10,-611"/>
<text text-anchor="start" x="30" y="-619.2" font-family="Helvetica,sans-Serif" font-size="11.00">isinpayroll</text>
<polygon fill="none" stroke="black" points="250,-611 250,-633 340,-633 340,-611 250,-611"/>
<text text-anchor="start" x="253" y="-619.2" font-family="Helvetica,sans-Serif" font-size="11.00">bpchar[1]</text>
<polygon fill="none" stroke="black" points="10,-589 10,-611 250,-611 250,-589 10,-589"/>
<text text-anchor="start" x="30" y="-597.2" font-family="Helvetica,sans-Serif" font-size="11.00">issaleslead</text>
<polygon fill="none" stroke="black" points="250,-589 250,-611 340,-611 340,-589 250,-589"/>
<text text-anchor="start" x="253" y="-597.2" font-family="Helvetica,sans-Serif" font-size="11.00">bpchar[1]</text>
<polygon fill="none" stroke="black" points="10,-567 10,-589 250,-589 250,-567 10,-567"/>
<text text-anchor="start" x="30" y="-575.2" font-family="Helvetica,sans-Serif" font-size="11.00">lastcontact</text>
<polygon fill="none" stroke="black" points="250,-567 250,-589 340,-589 340,-567 250,-567"/>
<text text-anchor="start" x="253" y="-575.2" font-family="Helvetica,sans-Serif" font-size="11.00">timestamp[29,6]</text>
<polygon fill="none" stroke="black" points="10,-545 10,-567 250,-567 250,-545 10,-545"/>
<text text-anchor="start" x="30" y="-553.2" font-family="Helvetica,sans-Serif" font-size="11.00">lastresult</text>
<polygon fill="none" stroke="black" points="250,-545 250,-567 340,-567 340,-545 250,-545"/>
<text text-anchor="start" x="253" y="-553.2" font-family="Helvetica,sans-Serif" font-size="11.00">varchar[255]</text>
<polygon fill="none" stroke="black" points="10,-523 10,-545 250,-545 250,-523 10,-523"/>
<text text-anchor="start" x="30" y="-531.2" font-family="Helvetica,sans-Serif" font-size="11.00">ldapuser</text>
<polygon fill="none" stroke="black" points="250,-523 250,-545 340,-545 340,-523 250,-523"/>
<text text-anchor="start" x="253" y="-531.2" font-family="Helvetica,sans-Serif" font-size="11.00">varchar[60]</text>
<polygon fill="none" stroke="black" points="10,-501 10,-523 250,-523 250,-501 10,-501"/>
<text text-anchor="start" x="30" y="-509.2" font-family="Helvetica,sans-Serif" font-size="11.00">leadsource</text>
<polygon fill="none" stroke="black" points="250,-501 250,-523 340,-523 340,-501 250,-501"/>
<text text-anchor="start" x="253" y="-509.2" font-family="Helvetica,sans-Serif" font-size="11.00">varchar[10]</text>
<polygon fill="none" stroke="black" points="10,-479 10,-501 250,-501 250,-479 10,-479"/>
<text text-anchor="start" x="30" y="-487.2" font-family="Helvetica,sans-Serif" font-size="11.00">leadsourcedescription</text>
<polygon fill="none" stroke="black" points="250,-479 250,-501 340,-501 340,-479 250,-479"/>
<text text-anchor="start" x="253" y="-487.2" font-family="Helvetica,sans-Serif" font-size="11.00">varchar[255]</text>
<polygon fill="none" stroke="black" points="10,-457 10,-479 250,-479 250,-457 10,-457"/>
<text text-anchor="start" x="30" y="-465.2" font-family="Helvetica,sans-Serif" font-size="11.00">leadstatus</text>
<polygon fill="none" stroke="black" points="250,-457 250,-479 340,-479 340,-457 250,-457"/>
<text text-anchor="start" x="253" y="-465.2" font-family="Helvetica,sans-Serif" font-size="11.00">varchar[10]</text>
<polygon fill="none" stroke="black" points="10,-435 10,-457 250,-457 250,-435 10,-435"/>
<text text-anchor="start" x="30" y="-443.2" font-family="Helvetica,sans-Serif" font-size="11.00">leadstatusdescription</text>
<polygon fill="none" stroke="black" points="250,-435 250,-457 340,-457 340,-435 250,-435"/>
<text text-anchor="start" x="253" y="-443.2" font-family="Helvetica,sans-Serif" font-size="11.00">varchar[255]</text>
<polygon fill="none" stroke="black" points="10,-413 10,-435 250,-435 250,-413 10,-413"/>
<text text-anchor="start" x="30" y="-421.2" font-family="Helvetica,sans-Serif" font-size="11.00">name</text>
<polygon fill="none" stroke="black" points="250,-413 250,-435 340,-435 340,-413 250,-413"/>
<text text-anchor="start" x="253" y="-421.2" font-family="Helvetica,sans-Serif" font-size="11.00">varchar[60]</text>
<polygon fill="none" stroke="black" points="10,-391 10,-413 250,-413 250,-391 10,-391"/>
<text text-anchor="start" x="30" y="-399.2" font-family="Helvetica,sans-Serif" font-size="11.00">notificationtype</text>
<polygon fill="none" stroke="black" points="250,-391 250,-413 340,-413 340,-391 250,-391"/>
<text text-anchor="start" x="253" y="-399.2" font-family="Helvetica,sans-Serif" font-size="11.00">bpchar[1]</text>
<polygon fill="none" stroke="black" points="10,-369 10,-391 250,-391 250,-369 10,-369"/>
<text text-anchor="start" x="30" y="-377.2" font-family="Helvetica,sans-Serif" font-size="11.00">password</text>
<polygon fill="none" stroke="black" points="250,-369 250,-391 340,-391 340,-369 250,-369"/>
<text text-anchor="start" x="253" y="-377.2" font-family="Helvetica,sans-Serif" font-size="11.00">varchar[1024]</text>
<polygon fill="none" stroke="black" points="10,-347 10,-369 250,-369 250,-347 10,-347"/>
<text text-anchor="start" x="30" y="-355.2" font-family="Helvetica,sans-Serif" font-size="11.00">phone</text>
<polygon fill="none" stroke="black" points="250,-347 250,-369 340,-369 340,-347 250,-347"/>
<text text-anchor="start" x="253" y="-355.2" font-family="Helvetica,sans-Serif" font-size="11.00">varchar[40]</text>
<polygon fill="none" stroke="black" points="10,-325 10,-347 250,-347 250,-325 10,-325"/>
<text text-anchor="start" x="30" y="-333.2" font-family="Helvetica,sans-Serif" font-size="11.00">phone2</text>
<polygon fill="none" stroke="black" points="250,-325 250,-347 340,-347 340,-325 250,-325"/>
<text text-anchor="start" x="253" y="-333.2" font-family="Helvetica,sans-Serif" font-size="11.00">varchar[40]</text>
<polygon fill="none" stroke="black" points="10,-303 10,-325 250,-325 250,-303 10,-303"/>
<text text-anchor="start" x="30" y="-311.2" font-family="Helvetica,sans-Serif" font-size="11.00">postal</text>
<polygon fill="none" stroke="black" points="250,-303 250,-325 340,-325 340,-303 250,-303"/>
<text text-anchor="start" x="253" y="-311.2" font-family="Helvetica,sans-Serif" font-size="11.00">varchar[10]</text>
<polygon fill="none" stroke="black" points="10,-281 10,-303 250,-303 250,-281 10,-281"/>
<text text-anchor="start" x="30" y="-289.2" font-family="Helvetica,sans-Serif" font-size="11.00">processing</text>
<polygon fill="none" stroke="black" points="250,-281 250,-303 340,-303 340,-281 250,-281"/>
<text text-anchor="start" x="253" y="-289.2" font-family="Helvetica,sans-Serif" font-size="11.00">bpchar[1]</text>
<polygon fill="none" stroke="black" points="10,-259 10,-281 250,-281 250,-259 10,-259"/>
<text text-anchor="start" x="30" y="-267.2" font-family="Helvetica,sans-Serif" font-size="11.00">regionname</text>
<polygon fill="none" stroke="black" points="250,-259 250,-281 340,-281 340,-259 250,-259"/>
<text text-anchor="start" x="253" y="-267.2" font-family="Helvetica,sans-Serif" font-size="11.00">varchar[40]</text>
<polygon fill="none" stroke="black" points="10,-237 10,-259 250,-259 250,-237 10,-237"/>
<text text-anchor="start" x="30" y="-245.2" font-family="Helvetica,sans-Serif" font-size="11.00">salesrep_id</text>
<polygon fill="none" stroke="black" points="250,-237 250,-259 340,-259 340,-237 250,-237"/>
<text text-anchor="start" x="253" y="-245.2" font-family="Helvetica,sans-Serif" font-size="11.00">numeric[10]</text>
<polygon fill="none" stroke="black" points="10,-215 10,-237 250,-237 250,-215 10,-215"/>
<text text-anchor="start" x="30" y="-223.2" font-family="Helvetica,sans-Serif" font-size="11.00">salt</text>
<polygon fill="none" stroke="black" points="250,-215 250,-237 340,-237 340,-215 250,-215"/>
<text text-anchor="start" x="253" y="-223.2" font-family="Helvetica,sans-Serif" font-size="11.00">varchar[32]</text>
<polygon fill="none" stroke="black" points="10,-193 10,-215 250,-215 250,-193 10,-193"/>
<text text-anchor="start" x="30" y="-201.2" font-family="Helvetica,sans-Serif" font-size="11.00">supervisor_id</text>
<polygon fill="none" stroke="black" points="250,-193 250,-215 340,-215 340,-193 250,-193"/>
<text text-anchor="start" x="253" y="-201.2" font-family="Helvetica,sans-Serif" font-size="11.00">numeric[10]</text>
<polygon fill="none" stroke="black" points="10,-171 10,-193 250,-193 250,-171 10,-171"/>
<text text-anchor="start" x="30" y="-179.2" font-family="Helvetica,sans-Serif" font-size="11.00">title</text>
<polygon fill="none" stroke="black" points="250,-171 250,-193 340,-193 340,-171 250,-171"/>
<text text-anchor="start" x="253" y="-179.2" font-family="Helvetica,sans-Serif" font-size="11.00">varchar[40]</text>
<polygon fill="none" stroke="black" points="10,-149 10,-171 250,-171 250,-149 10,-149"/>
<text text-anchor="start" x="30" y="-157.2" font-family="Helvetica,sans-Serif" font-size="11.00">userpin</text>
<polygon fill="none" stroke="black" points="250,-149 250,-171 340,-171 340,-149 250,-149"/>
<text text-anchor="start" x="253" y="-157.2" font-family="Helvetica,sans-Serif" font-size="11.00">varchar[20]</text>
<polygon fill="none" stroke="black" points="10,-127 10,-149 250,-149 250,-127 10,-127"/>
<text text-anchor="start" x="30" y="-135.2" font-family="Helvetica,sans-Serif" font-size="11.00">value</text>
<polygon fill="none" stroke="black" points="250,-127 250,-149 340,-149 340,-127 250,-127"/>
<text text-anchor="start" x="253" y="-135.2" font-family="Helvetica,sans-Serif" font-size="11.00">varchar[40]</text>
<polygon fill="none" stroke="black" points="10,-105 10,-127 250,-127 250,-105 10,-105"/>
<text text-anchor="start" x="30" y="-113.2" font-family="Helvetica,sans-Serif" font-size="11.00">cof_respatribuicao_id</text>
<polygon fill="none" stroke="black" points="250,-105 250,-127 340,-127 340,-105 250,-105"/>
<text text-anchor="start" x="253" y="-113.2" font-family="Helvetica,sans-Serif" font-size="11.00">numeric[10]</text>
<polygon fill="none" stroke="black" points="10,-83 10,-105 250,-105 250,-83 10,-83"/>
<text text-anchor="start" x="30" y="-91.2" font-family="Helvetica,sans-Serif" font-size="11.00">created</text>
<polygon fill="none" stroke="black" points="250,-83 250,-105 340,-105 340,-83 250,-83"/>
<text text-anchor="start" x="253" y="-91.2" font-family="Helvetica,sans-Serif" font-size="11.00">timestamp[29,6]</text>
<polygon fill="none" stroke="black" points="10,-61 10,-83 250,-83 250,-61 10,-61"/>
<text text-anchor="start" x="30" y="-69.2" font-family="Helvetica,sans-Serif" font-size="11.00">updated</text>
<polygon fill="none" stroke="black" points="250,-61 250,-83 340,-83 340,-61 250,-61"/>
<text text-anchor="start" x="253" y="-69.2" font-family="Helvetica,sans-Serif" font-size="11.00">timestamp[29,6]</text>
<polygon fill="none" stroke="black" points="10,-39 10,-61 250,-61 250,-39 10,-39"/>
<text text-anchor="start" x="30" y="-47.2" font-family="Helvetica,sans-Serif" font-size="11.00">cof_dataatribuicao</text>
<polygon fill="none" stroke="black" points="250,-39 250,-61 340,-61 340,-39 250,-39"/>
<text text-anchor="start" x="253" y="-47.2" font-family="Helvetica,sans-Serif" font-size="11.00">timestamp[29,6]</text>
<polygon fill="none" stroke="black" stroke-width="2" points="9,-38 9,-1514 341,-1514 341,-38 9,-38"/>
</a>
</g>
</g>
</g>
</svg>
