<?xml version="1.0" encoding="UTF-8" standalone="no"?>
<!DOCTYPE svg PUBLIC "-//W3C//DTD SVG 1.1//EN"
 "http://www.w3.org/Graphics/SVG/1.1/DTD/svg11.dtd">
<!-- Generated by graphviz version 2.43.0 (0)
 -->
<!-- Title: oneDegreeRelationshipsDiagram Pages: 1 -->
<svg width="372pt" height="973pt"
 viewBox="0.00 0.00 372.00 973.00" xmlns="http://www.w3.org/2000/svg" xmlns:xlink="http://www.w3.org/1999/xlink">
<g id="graph0" class="graph" transform="scale(1 1) rotate(0) translate(4 969)">
<title>oneDegreeRelationshipsDiagram</title>
<polygon fill="#ffffff" stroke="transparent" points="-4,4 -4,-969 368,-969 368,4 -4,4"/>
<text text-anchor="middle" x="71.5" y="-7.2" font-family="Helvetica,sans-Serif" font-size="11.00">Generated by SchemaSpy</text>
<!-- cof_cte_infctecomp -->
<g id="node1" class="node">
<title>cof_cte_infctecomp</title>
<g id="a_node1"><a xlink:href="../../tables/cof_cte_infctecomp.html" xlink:title="cof_cte_infctecomp" target="_top">
<polygon fill="#ffffff" stroke="transparent" points="8,-37 8,-961 356,-961 356,-37 8,-37"/>
<polygon fill="#f5f5f5" stroke="transparent" points="10,-937 10,-959 354,-959 354,-937 10,-937"/>
<polygon fill="none" stroke="black" points="10,-937 10,-959 354,-959 354,-937 10,-937"/>
<text text-anchor="start" x="15" y="-946.2" font-family="Helvetica,sans-Serif" font-weight="bold" font-size="11.00">cof_cte_infctecomp</text>
<text text-anchor="start" x="319" y="-945.2" font-family="Helvetica,sans-Serif" font-size="11.00">[table]</text>
<polygon fill="none" stroke="black" points="10,-915 10,-937 264,-937 264,-915 10,-915"/>
<image xlink:href="../../images/primaryKeys.png" width="11px" height="12px" preserveAspectRatio="xMinYMin meet" x="15" y="-932"/>
<text text-anchor="start" x="30" y="-923.2" font-family="Helvetica,sans-Serif" font-size="11.00">cof_cte_infctecomp_id</text>
<polygon fill="none" stroke="black" points="264,-915 264,-937 354,-937 354,-915 264,-915"/>
<text text-anchor="start" x="267" y="-923.2" font-family="Helvetica,sans-Serif" font-size="11.00">numeric[10]</text>
<polygon fill="none" stroke="black" points="10,-893 10,-915 264,-915 264,-893 10,-893"/>
<text text-anchor="start" x="30" y="-901.2" font-family="Helvetica,sans-Serif" font-size="11.00">ad_client_id</text>
<polygon fill="none" stroke="black" points="264,-893 264,-915 354,-915 354,-893 264,-893"/>
<text text-anchor="start" x="267" y="-901.2" font-family="Helvetica,sans-Serif" font-size="11.00">numeric[10]</text>
<polygon fill="none" stroke="black" points="10,-871 10,-893 264,-893 264,-871 10,-871"/>
<text text-anchor="start" x="30" y="-879.2" font-family="Helvetica,sans-Serif" font-size="11.00">ad_org_id</text>
<polygon fill="none" stroke="black" points="264,-871 264,-893 354,-893 354,-871 264,-871"/>
<text text-anchor="start" x="267" y="-879.2" font-family="Helvetica,sans-Serif" font-size="11.00">numeric[10]</text>
<polygon fill="none" stroke="black" points="10,-849 10,-871 264,-871 264,-849 10,-849"/>
<text text-anchor="start" x="30" y="-857.2" font-family="Helvetica,sans-Serif" font-size="11.00">isactive</text>
<polygon fill="none" stroke="black" points="264,-849 264,-871 354,-871 354,-849 264,-849"/>
<text text-anchor="start" x="267" y="-857.2" font-family="Helvetica,sans-Serif" font-size="11.00">bpchar[1]</text>
<polygon fill="none" stroke="black" points="10,-827 10,-849 264,-849 264,-827 10,-827"/>
<text text-anchor="start" x="30" y="-835.2" font-family="Helvetica,sans-Serif" font-size="11.00">created</text>
<polygon fill="none" stroke="black" points="264,-827 264,-849 354,-849 354,-827 264,-827"/>
<text text-anchor="start" x="267" y="-835.2" font-family="Helvetica,sans-Serif" font-size="11.00">timestamp[29,6]</text>
<polygon fill="none" stroke="black" points="10,-805 10,-827 264,-827 264,-805 10,-805"/>
<text text-anchor="start" x="30" y="-813.2" font-family="Helvetica,sans-Serif" font-size="11.00">createdby</text>
<polygon fill="none" stroke="black" points="264,-805 264,-827 354,-827 354,-805 264,-805"/>
<text text-anchor="start" x="267" y="-813.2" font-family="Helvetica,sans-Serif" font-size="11.00">numeric[10]</text>
<polygon fill="none" stroke="black" points="10,-783 10,-805 264,-805 264,-783 10,-783"/>
<text text-anchor="start" x="30" y="-791.2" font-family="Helvetica,sans-Serif" font-size="11.00">updated</text>
<polygon fill="none" stroke="black" points="264,-783 264,-805 354,-805 354,-783 264,-783"/>
<text text-anchor="start" x="267" y="-791.2" font-family="Helvetica,sans-Serif" font-size="11.00">timestamp[29,6]</text>
<polygon fill="none" stroke="black" points="10,-761 10,-783 264,-783 264,-761 10,-761"/>
<text text-anchor="start" x="30" y="-769.2" font-family="Helvetica,sans-Serif" font-size="11.00">updatedby</text>
<polygon fill="none" stroke="black" points="264,-761 264,-783 354,-783 354,-761 264,-761"/>
<text text-anchor="start" x="267" y="-769.2" font-family="Helvetica,sans-Serif" font-size="11.00">numeric[10]</text>
<polygon fill="none" stroke="black" points="10,-739 10,-761 264,-761 264,-739 10,-739"/>
<text text-anchor="start" x="30" y="-747.2" font-family="Helvetica,sans-Serif" font-size="11.00">cof_cte_id</text>
<polygon fill="none" stroke="black" points="264,-739 264,-761 354,-761 354,-739 264,-739"/>
<text text-anchor="start" x="267" y="-747.2" font-family="Helvetica,sans-Serif" font-size="11.00">numeric[10]</text>
<polygon fill="none" stroke="black" points="10,-717 10,-739 264,-739 264,-717 10,-717"/>
<text text-anchor="start" x="30" y="-725.2" font-family="Helvetica,sans-Serif" font-size="11.00">infctecomp_chave</text>
<polygon fill="none" stroke="black" points="264,-717 264,-739 354,-739 354,-717 264,-717"/>
<text text-anchor="start" x="267" y="-725.2" font-family="Helvetica,sans-Serif" font-size="11.00">numeric[0]</text>
<polygon fill="none" stroke="black" points="10,-695 10,-717 264,-717 264,-695 10,-695"/>
<text text-anchor="start" x="30" y="-703.2" font-family="Helvetica,sans-Serif" font-size="11.00">infctecomp_vprescomp_vtprest</text>
<polygon fill="none" stroke="black" points="264,-695 264,-717 354,-717 354,-695 264,-695"/>
<text text-anchor="start" x="267" y="-703.2" font-family="Helvetica,sans-Serif" font-size="11.00">numeric[0]</text>
<polygon fill="none" stroke="black" points="10,-673 10,-695 264,-695 264,-673 10,-673"/>
<text text-anchor="start" x="30" y="-681.2" font-family="Helvetica,sans-Serif" font-size="11.00">icmscomp_icms00_cst</text>
<polygon fill="none" stroke="black" points="264,-673 264,-695 354,-695 354,-673 264,-673"/>
<text text-anchor="start" x="267" y="-681.2" font-family="Helvetica,sans-Serif" font-size="11.00">varchar[2]</text>
<polygon fill="none" stroke="black" points="10,-651 10,-673 264,-673 264,-651 10,-651"/>
<text text-anchor="start" x="30" y="-659.2" font-family="Helvetica,sans-Serif" font-size="11.00">icmscomp_icms00_vbc</text>
<polygon fill="none" stroke="black" points="264,-651 264,-673 354,-673 354,-651 264,-651"/>
<text text-anchor="start" x="267" y="-659.2" font-family="Helvetica,sans-Serif" font-size="11.00">numeric[0]</text>
<polygon fill="none" stroke="black" points="10,-629 10,-651 264,-651 264,-629 10,-629"/>
<text text-anchor="start" x="30" y="-637.2" font-family="Helvetica,sans-Serif" font-size="11.00">icmscomp_icms00_picms</text>
<polygon fill="none" stroke="black" points="264,-629 264,-651 354,-651 354,-629 264,-629"/>
<text text-anchor="start" x="267" y="-637.2" font-family="Helvetica,sans-Serif" font-size="11.00">numeric[0]</text>
<polygon fill="none" stroke="black" points="10,-607 10,-629 264,-629 264,-607 10,-607"/>
<text text-anchor="start" x="30" y="-615.2" font-family="Helvetica,sans-Serif" font-size="11.00">icmscomp_icms00_vicms</text>
<polygon fill="none" stroke="black" points="264,-607 264,-629 354,-629 354,-607 264,-607"/>
<text text-anchor="start" x="267" y="-615.2" font-family="Helvetica,sans-Serif" font-size="11.00">numeric[0]</text>
<polygon fill="none" stroke="black" points="10,-585 10,-607 264,-607 264,-585 10,-585"/>
<text text-anchor="start" x="30" y="-593.2" font-family="Helvetica,sans-Serif" font-size="11.00">icmscomp_icms20_cst</text>
<polygon fill="none" stroke="black" points="264,-585 264,-607 354,-607 354,-585 264,-585"/>
<text text-anchor="start" x="267" y="-593.2" font-family="Helvetica,sans-Serif" font-size="11.00">varchar[2]</text>
<polygon fill="none" stroke="black" points="10,-563 10,-585 264,-585 264,-563 10,-563"/>
<text text-anchor="start" x="30" y="-571.2" font-family="Helvetica,sans-Serif" font-size="11.00">icmscomp_icms20_predbc</text>
<polygon fill="none" stroke="black" points="264,-563 264,-585 354,-585 354,-563 264,-563"/>
<text text-anchor="start" x="267" y="-571.2" font-family="Helvetica,sans-Serif" font-size="11.00">numeric[0]</text>
<polygon fill="none" stroke="black" points="10,-541 10,-563 264,-563 264,-541 10,-541"/>
<text text-anchor="start" x="30" y="-549.2" font-family="Helvetica,sans-Serif" font-size="11.00">icmscomp_icms20_vbc</text>
<polygon fill="none" stroke="black" points="264,-541 264,-563 354,-563 354,-541 264,-541"/>
<text text-anchor="start" x="267" y="-549.2" font-family="Helvetica,sans-Serif" font-size="11.00">numeric[0]</text>
<polygon fill="none" stroke="black" points="10,-519 10,-541 264,-541 264,-519 10,-519"/>
<text text-anchor="start" x="30" y="-527.2" font-family="Helvetica,sans-Serif" font-size="11.00">icmscomp_icms20_picms</text>
<polygon fill="none" stroke="black" points="264,-519 264,-541 354,-541 354,-519 264,-519"/>
<text text-anchor="start" x="267" y="-527.2" font-family="Helvetica,sans-Serif" font-size="11.00">numeric[0]</text>
<polygon fill="none" stroke="black" points="10,-497 10,-519 264,-519 264,-497 10,-497"/>
<text text-anchor="start" x="30" y="-505.2" font-family="Helvetica,sans-Serif" font-size="11.00">icmscomp_icms20_vicms</text>
<polygon fill="none" stroke="black" points="264,-497 264,-519 354,-519 354,-497 264,-497"/>
<text text-anchor="start" x="267" y="-505.2" font-family="Helvetica,sans-Serif" font-size="11.00">numeric[0]</text>
<polygon fill="none" stroke="black" points="10,-475 10,-497 264,-497 264,-475 10,-475"/>
<text text-anchor="start" x="30" y="-483.2" font-family="Helvetica,sans-Serif" font-size="11.00">icmscomp_icms45_cst</text>
<polygon fill="none" stroke="black" points="264,-475 264,-497 354,-497 354,-475 264,-475"/>
<text text-anchor="start" x="267" y="-483.2" font-family="Helvetica,sans-Serif" font-size="11.00">varchar[2]</text>
<polygon fill="none" stroke="black" points="10,-453 10,-475 264,-475 264,-453 10,-453"/>
<text text-anchor="start" x="30" y="-461.2" font-family="Helvetica,sans-Serif" font-size="11.00">icmscomp_icms60_cst</text>
<polygon fill="none" stroke="black" points="264,-453 264,-475 354,-475 354,-453 264,-453"/>
<text text-anchor="start" x="267" y="-461.2" font-family="Helvetica,sans-Serif" font-size="11.00">varchar[2]</text>
<polygon fill="none" stroke="black" points="10,-431 10,-453 264,-453 264,-431 10,-431"/>
<text text-anchor="start" x="30" y="-439.2" font-family="Helvetica,sans-Serif" font-size="11.00">icmscomp_icms60_vbcstret</text>
<polygon fill="none" stroke="black" points="264,-431 264,-453 354,-453 354,-431 264,-431"/>
<text text-anchor="start" x="267" y="-439.2" font-family="Helvetica,sans-Serif" font-size="11.00">numeric[0]</text>
<polygon fill="none" stroke="black" points="10,-409 10,-431 264,-431 264,-409 10,-409"/>
<text text-anchor="start" x="30" y="-417.2" font-family="Helvetica,sans-Serif" font-size="11.00">icmscomp_icms60_vicmsstret</text>
<polygon fill="none" stroke="black" points="264,-409 264,-431 354,-431 354,-409 264,-409"/>
<text text-anchor="start" x="267" y="-417.2" font-family="Helvetica,sans-Serif" font-size="11.00">numeric[0]</text>
<polygon fill="none" stroke="black" points="10,-387 10,-409 264,-409 264,-387 10,-387"/>
<text text-anchor="start" x="30" y="-395.2" font-family="Helvetica,sans-Serif" font-size="11.00">icmscomp_icms60_picmsstret</text>
<polygon fill="none" stroke="black" points="264,-387 264,-409 354,-409 354,-387 264,-387"/>
<text text-anchor="start" x="267" y="-395.2" font-family="Helvetica,sans-Serif" font-size="11.00">numeric[0]</text>
<polygon fill="none" stroke="black" points="10,-365 10,-387 264,-387 264,-365 10,-365"/>
<text text-anchor="start" x="30" y="-373.2" font-family="Helvetica,sans-Serif" font-size="11.00">icmscomp_icms60_vcred</text>
<polygon fill="none" stroke="black" points="264,-365 264,-387 354,-387 354,-365 264,-365"/>
<text text-anchor="start" x="267" y="-373.2" font-family="Helvetica,sans-Serif" font-size="11.00">numeric[0]</text>
<polygon fill="none" stroke="black" points="10,-343 10,-365 264,-365 264,-343 10,-343"/>
<text text-anchor="start" x="30" y="-351.2" font-family="Helvetica,sans-Serif" font-size="11.00">icmscomp_icms90_cst</text>
<polygon fill="none" stroke="black" points="264,-343 264,-365 354,-365 354,-343 264,-343"/>
<text text-anchor="start" x="267" y="-351.2" font-family="Helvetica,sans-Serif" font-size="11.00">varchar[2]</text>
<polygon fill="none" stroke="black" points="10,-321 10,-343 264,-343 264,-321 10,-321"/>
<text text-anchor="start" x="30" y="-329.2" font-family="Helvetica,sans-Serif" font-size="11.00">icmscomp_icms90_predbc</text>
<polygon fill="none" stroke="black" points="264,-321 264,-343 354,-343 354,-321 264,-321"/>
<text text-anchor="start" x="267" y="-329.2" font-family="Helvetica,sans-Serif" font-size="11.00">numeric[0]</text>
<polygon fill="none" stroke="black" points="10,-299 10,-321 264,-321 264,-299 10,-299"/>
<text text-anchor="start" x="30" y="-307.2" font-family="Helvetica,sans-Serif" font-size="11.00">icmscomp_icms90_vbc</text>
<polygon fill="none" stroke="black" points="264,-299 264,-321 354,-321 354,-299 264,-299"/>
<text text-anchor="start" x="267" y="-307.2" font-family="Helvetica,sans-Serif" font-size="11.00">numeric[0]</text>
<polygon fill="none" stroke="black" points="10,-277 10,-299 264,-299 264,-277 10,-277"/>
<text text-anchor="start" x="30" y="-285.2" font-family="Helvetica,sans-Serif" font-size="11.00">icmscomp_icms90_picms</text>
<polygon fill="none" stroke="black" points="264,-277 264,-299 354,-299 354,-277 264,-277"/>
<text text-anchor="start" x="267" y="-285.2" font-family="Helvetica,sans-Serif" font-size="11.00">numeric[0]</text>
<polygon fill="none" stroke="black" points="10,-255 10,-277 264,-277 264,-255 10,-255"/>
<text text-anchor="start" x="30" y="-263.2" font-family="Helvetica,sans-Serif" font-size="11.00">icmscomp_icms90_vicms</text>
<polygon fill="none" stroke="black" points="264,-255 264,-277 354,-277 354,-255 264,-255"/>
<text text-anchor="start" x="267" y="-263.2" font-family="Helvetica,sans-Serif" font-size="11.00">numeric[0]</text>
<polygon fill="none" stroke="black" points="10,-233 10,-255 264,-255 264,-233 10,-233"/>
<text text-anchor="start" x="30" y="-241.2" font-family="Helvetica,sans-Serif" font-size="11.00">icmscomp_icms90_vcred</text>
<polygon fill="none" stroke="black" points="264,-233 264,-255 354,-255 354,-233 264,-233"/>
<text text-anchor="start" x="267" y="-241.2" font-family="Helvetica,sans-Serif" font-size="11.00">numeric[0]</text>
<polygon fill="none" stroke="black" points="10,-211 10,-233 264,-233 264,-211 10,-211"/>
<text text-anchor="start" x="30" y="-219.2" font-family="Helvetica,sans-Serif" font-size="11.00">icmscomp_icmsoutrauf_cst</text>
<polygon fill="none" stroke="black" points="264,-211 264,-233 354,-233 354,-211 264,-211"/>
<text text-anchor="start" x="267" y="-219.2" font-family="Helvetica,sans-Serif" font-size="11.00">varchar[2]</text>
<polygon fill="none" stroke="black" points="10,-189 10,-211 264,-211 264,-189 10,-189"/>
<text text-anchor="start" x="30" y="-197.2" font-family="Helvetica,sans-Serif" font-size="11.00">icmscomp_icmsoutrauf_predbc</text>
<polygon fill="none" stroke="black" points="264,-189 264,-211 354,-211 354,-189 264,-189"/>
<text text-anchor="start" x="267" y="-197.2" font-family="Helvetica,sans-Serif" font-size="11.00">numeric[0]</text>
<polygon fill="none" stroke="black" points="10,-167 10,-189 264,-189 264,-167 10,-167"/>
<text text-anchor="start" x="30" y="-175.2" font-family="Helvetica,sans-Serif" font-size="11.00">icmscomp_icmsoutrauf_vbc</text>
<polygon fill="none" stroke="black" points="264,-167 264,-189 354,-189 354,-167 264,-167"/>
<text text-anchor="start" x="267" y="-175.2" font-family="Helvetica,sans-Serif" font-size="11.00">numeric[0]</text>
<polygon fill="none" stroke="black" points="10,-145 10,-167 264,-167 264,-145 10,-145"/>
<text text-anchor="start" x="30" y="-153.2" font-family="Helvetica,sans-Serif" font-size="11.00">icmscomp_icmsoutrauf_picms</text>
<polygon fill="none" stroke="black" points="264,-145 264,-167 354,-167 354,-145 264,-145"/>
<text text-anchor="start" x="267" y="-153.2" font-family="Helvetica,sans-Serif" font-size="11.00">numeric[0]</text>
<polygon fill="none" stroke="black" points="10,-123 10,-145 264,-145 264,-123 10,-123"/>
<text text-anchor="start" x="30" y="-131.2" font-family="Helvetica,sans-Serif" font-size="11.00">icmscomp_icmsoutrauf_vicms</text>
<polygon fill="none" stroke="black" points="264,-123 264,-145 354,-145 354,-123 264,-123"/>
<text text-anchor="start" x="267" y="-131.2" font-family="Helvetica,sans-Serif" font-size="11.00">numeric[0]</text>
<polygon fill="none" stroke="black" points="10,-101 10,-123 264,-123 264,-101 10,-101"/>
<text text-anchor="start" x="30" y="-109.2" font-family="Helvetica,sans-Serif" font-size="11.00">icmscomp_icmssn_indsn</text>
<polygon fill="none" stroke="black" points="264,-101 264,-123 354,-123 354,-101 264,-101"/>
<text text-anchor="start" x="267" y="-109.2" font-family="Helvetica,sans-Serif" font-size="11.00">bpchar[1]</text>
<polygon fill="none" stroke="black" points="10,-79 10,-101 264,-101 264,-79 10,-79"/>
<text text-anchor="start" x="30" y="-87.2" font-family="Helvetica,sans-Serif" font-size="11.00">infctecomp_impcomp_infadfisco</text>
<polygon fill="none" stroke="black" points="264,-79 264,-101 354,-101 354,-79 264,-79"/>
<text text-anchor="start" x="267" y="-87.2" font-family="Helvetica,sans-Serif" font-size="11.00">text[2147483647]</text>
<polygon fill="#ffffff" stroke="transparent" points="10,-57 10,-79 264,-79 264,-57 10,-57"/>
<polygon fill="none" stroke="black" points="10,-57 10,-79 264,-79 264,-57 10,-57"/>
<text text-anchor="start" x="30" y="-65.2" font-family="Helvetica,sans-Serif" font-size="11.00">cof_cte_infctecomp_uu</text>
<polygon fill="none" stroke="black" points="264,-57 264,-79 354,-79 354,-57 264,-57"/>
<text text-anchor="start" x="267" y="-65.2" font-family="Helvetica,sans-Serif" font-size="11.00">varchar[36]</text>
<polygon fill="#ffffff" stroke="transparent" points="10,-39 10,-57 354,-57 354,-39 10,-39"/>
<polygon fill="none" stroke="black" points="10,-39 10,-57 354,-57 354,-39 10,-39"/>
<polygon fill="#ffffff" stroke="transparent" points="11,-40 11,-56 128,-56 128,-40 11,-40"/>
<text text-anchor="start" x="13" y="-45.2" font-family="Helvetica,sans-Serif" font-size="11.00">&lt; 0</text>
<polygon fill="#ffffff" stroke="transparent" points="128,-40 128,-56 236,-56 236,-40 128,-40"/>
<text text-anchor="start" x="178.5" y="-45.2" font-family="Helvetica,sans-Serif" font-size="11.00"> &#160;</text>
<polygon fill="#ffffff" stroke="transparent" points="236,-40 236,-56 353,-56 353,-40 236,-40"/>
<text text-anchor="start" x="335" y="-45.2" font-family="Helvetica,sans-Serif" font-size="11.00">0 &gt;</text>
<polygon fill="black" stroke="black" points="128,-40 128,-56 128,-56 128,-40 128,-40"/>
<polygon fill="black" stroke="black" points="236,-40 236,-56 236,-56 236,-40 236,-40"/>
<polygon fill="none" stroke="black" stroke-width="2" points="9,-38 9,-960 355,-960 355,-38 9,-38"/>
</a>
</g>
</g>
</g>
</svg>
