<?xml version="1.0" encoding="UTF-8" standalone="no"?>
<!DOCTYPE svg PUBLIC "-//W3C//DTD SVG 1.1//EN"
 "http://www.w3.org/Graphics/SVG/1.1/DTD/svg11.dtd">
<!-- Generated by graphviz version 2.43.0 (0)
 -->
<!-- Title: oneDegreeRelationshipsDiagram Pages: 1 -->
<svg width="312pt" height="801pt"
 viewBox="0.00 0.00 312.00 801.00" xmlns="http://www.w3.org/2000/svg" xmlns:xlink="http://www.w3.org/1999/xlink">
<g id="graph0" class="graph" transform="scale(1 1) rotate(0) translate(4 797)">
<title>oneDegreeRelationshipsDiagram</title>
<polygon fill="#ffffff" stroke="transparent" points="-4,4 -4,-797 308,-797 308,4 -4,4"/>
<text text-anchor="middle" x="71.5" y="-7.2" font-family="Helvetica,sans-Serif" font-size="11.00">Generated by SchemaSpy</text>
<!-- cof_access -->
<g id="node1" class="node">
<title>cof_access</title>
<g id="a_node1"><a xlink:href="../../tables/cof_access.html" xlink:title="cof_access" target="_top">
<polygon fill="#ffffff" stroke="transparent" points="8,-37 8,-789 296,-789 296,-37 8,-37"/>
<polygon fill="#f5f5f5" stroke="transparent" points="10,-765 10,-787 294,-787 294,-765 10,-765"/>
<polygon fill="none" stroke="black" points="10,-765 10,-787 294,-787 294,-765 10,-765"/>
<text text-anchor="start" x="15" y="-774.2" font-family="Helvetica,sans-Serif" font-weight="bold" font-size="11.00">cof_access</text>
<text text-anchor="start" x="261" y="-773.2" font-family="Helvetica,sans-Serif" font-size="11.00">[view]</text>
<polygon fill="none" stroke="black" points="10,-743 10,-765 185,-765 185,-743 10,-743"/>
<text text-anchor="start" x="30" y="-751.2" font-family="Helvetica,sans-Serif" font-size="11.00">ad_client_id</text>
<polygon fill="none" stroke="black" points="185,-743 185,-765 294,-765 294,-743 185,-743"/>
<text text-anchor="start" x="188" y="-751.2" font-family="Helvetica,sans-Serif" font-size="11.00">numeric[10]</text>
<polygon fill="none" stroke="black" points="10,-721 10,-743 185,-743 185,-721 10,-721"/>
<text text-anchor="start" x="30" y="-729.2" font-family="Helvetica,sans-Serif" font-size="11.00">ad_org_id</text>
<polygon fill="none" stroke="black" points="185,-721 185,-743 294,-743 294,-721 185,-721"/>
<text text-anchor="start" x="188" y="-729.2" font-family="Helvetica,sans-Serif" font-size="11.00">numeric[10]</text>
<polygon fill="none" stroke="black" points="10,-699 10,-721 185,-721 185,-699 10,-699"/>
<text text-anchor="start" x="30" y="-707.2" font-family="Helvetica,sans-Serif" font-size="11.00">ad_role_id</text>
<polygon fill="none" stroke="black" points="185,-699 185,-721 294,-721 294,-699 185,-699"/>
<text text-anchor="start" x="188" y="-707.2" font-family="Helvetica,sans-Serif" font-size="11.00">numeric[10]</text>
<polygon fill="none" stroke="black" points="10,-677 10,-699 185,-699 185,-677 10,-677"/>
<text text-anchor="start" x="30" y="-685.2" font-family="Helvetica,sans-Serif" font-size="11.00">cof_tipoacesso</text>
<polygon fill="none" stroke="black" points="185,-677 185,-699 294,-699 294,-677 185,-677"/>
<text text-anchor="start" x="188" y="-685.2" font-family="Helvetica,sans-Serif" font-size="11.00">text[2147483647]</text>
<polygon fill="none" stroke="black" points="10,-655 10,-677 185,-677 185,-655 10,-655"/>
<text text-anchor="start" x="30" y="-663.2" font-family="Helvetica,sans-Serif" font-size="11.00">value</text>
<polygon fill="none" stroke="black" points="185,-655 185,-677 294,-677 294,-655 185,-655"/>
<text text-anchor="start" x="188" y="-663.2" font-family="Helvetica,sans-Serif" font-size="11.00">varchar[2147483647]</text>
<polygon fill="none" stroke="black" points="10,-633 10,-655 185,-655 185,-633 10,-633"/>
<text text-anchor="start" x="30" y="-641.2" font-family="Helvetica,sans-Serif" font-size="11.00">name</text>
<polygon fill="none" stroke="black" points="185,-633 185,-655 294,-655 294,-633 185,-633"/>
<text text-anchor="start" x="188" y="-641.2" font-family="Helvetica,sans-Serif" font-size="11.00">varchar[2147483647]</text>
<polygon fill="none" stroke="black" points="10,-611 10,-633 185,-633 185,-611 10,-611"/>
<text text-anchor="start" x="30" y="-619.2" font-family="Helvetica,sans-Serif" font-size="11.00">isactive</text>
<polygon fill="none" stroke="black" points="185,-611 185,-633 294,-633 294,-611 185,-611"/>
<text text-anchor="start" x="188" y="-619.2" font-family="Helvetica,sans-Serif" font-size="11.00">bpchar[1]</text>
<polygon fill="none" stroke="black" points="10,-589 10,-611 185,-611 185,-589 10,-589"/>
<text text-anchor="start" x="30" y="-597.2" font-family="Helvetica,sans-Serif" font-size="11.00">isreadwrite</text>
<polygon fill="none" stroke="black" points="185,-589 185,-611 294,-611 294,-589 185,-589"/>
<text text-anchor="start" x="188" y="-597.2" font-family="Helvetica,sans-Serif" font-size="11.00">bpchar[2147483647]</text>
<polygon fill="none" stroke="black" points="10,-567 10,-589 185,-589 185,-567 10,-567"/>
<text text-anchor="start" x="30" y="-575.2" font-family="Helvetica,sans-Serif" font-size="11.00">ismasterrole</text>
<polygon fill="none" stroke="black" points="185,-567 185,-589 294,-589 294,-567 185,-567"/>
<text text-anchor="start" x="188" y="-575.2" font-family="Helvetica,sans-Serif" font-size="11.00">bpchar[1]</text>
<polygon fill="none" stroke="black" points="10,-545 10,-567 185,-567 185,-545 10,-545"/>
<text text-anchor="start" x="30" y="-553.2" font-family="Helvetica,sans-Serif" font-size="11.00">ismanual</text>
<polygon fill="none" stroke="black" points="185,-545 185,-567 294,-567 294,-545 185,-545"/>
<text text-anchor="start" x="188" y="-553.2" font-family="Helvetica,sans-Serif" font-size="11.00">bpchar[1]</text>
<polygon fill="none" stroke="black" points="10,-523 10,-545 185,-545 185,-523 10,-523"/>
<text text-anchor="start" x="30" y="-531.2" font-family="Helvetica,sans-Serif" font-size="11.00">iscanapproveowndoc</text>
<polygon fill="none" stroke="black" points="185,-523 185,-545 294,-545 294,-523 185,-523"/>
<text text-anchor="start" x="188" y="-531.2" font-family="Helvetica,sans-Serif" font-size="11.00">bpchar[1]</text>
<polygon fill="none" stroke="black" points="10,-501 10,-523 185,-523 185,-501 10,-501"/>
<text text-anchor="start" x="30" y="-509.2" font-family="Helvetica,sans-Serif" font-size="11.00">isshowacct</text>
<polygon fill="none" stroke="black" points="185,-501 185,-523 294,-523 294,-501 185,-501"/>
<text text-anchor="start" x="188" y="-509.2" font-family="Helvetica,sans-Serif" font-size="11.00">bpchar[1]</text>
<polygon fill="none" stroke="black" points="10,-479 10,-501 185,-501 185,-479 10,-479"/>
<text text-anchor="start" x="30" y="-487.2" font-family="Helvetica,sans-Serif" font-size="11.00">iscanreport</text>
<polygon fill="none" stroke="black" points="185,-479 185,-501 294,-501 294,-479 185,-479"/>
<text text-anchor="start" x="188" y="-487.2" font-family="Helvetica,sans-Serif" font-size="11.00">bpchar[1]</text>
<polygon fill="none" stroke="black" points="10,-457 10,-479 185,-479 185,-457 10,-457"/>
<text text-anchor="start" x="30" y="-465.2" font-family="Helvetica,sans-Serif" font-size="11.00">ispersonallock</text>
<polygon fill="none" stroke="black" points="185,-457 185,-479 294,-479 294,-457 185,-457"/>
<text text-anchor="start" x="188" y="-465.2" font-family="Helvetica,sans-Serif" font-size="11.00">bpchar[1]</text>
<polygon fill="none" stroke="black" points="10,-435 10,-457 185,-457 185,-435 10,-435"/>
<text text-anchor="start" x="30" y="-443.2" font-family="Helvetica,sans-Serif" font-size="11.00">isaccessadvanced</text>
<polygon fill="none" stroke="black" points="185,-435 185,-457 294,-457 294,-435 185,-435"/>
<text text-anchor="start" x="188" y="-443.2" font-family="Helvetica,sans-Serif" font-size="11.00">bpchar[1]</text>
<polygon fill="none" stroke="black" points="10,-413 10,-435 185,-435 185,-413 10,-413"/>
<text text-anchor="start" x="30" y="-421.2" font-family="Helvetica,sans-Serif" font-size="11.00">overwritepricelimit</text>
<polygon fill="none" stroke="black" points="185,-413 185,-435 294,-435 294,-413 185,-413"/>
<text text-anchor="start" x="188" y="-421.2" font-family="Helvetica,sans-Serif" font-size="11.00">bpchar[1]</text>
<polygon fill="none" stroke="black" points="10,-391 10,-413 185,-413 185,-391 10,-391"/>
<text text-anchor="start" x="30" y="-399.2" font-family="Helvetica,sans-Serif" font-size="11.00">ischangelog</text>
<polygon fill="none" stroke="black" points="185,-391 185,-413 294,-413 294,-391 185,-391"/>
<text text-anchor="start" x="188" y="-399.2" font-family="Helvetica,sans-Serif" font-size="11.00">bpchar[1]</text>
<polygon fill="none" stroke="black" points="10,-369 10,-391 185,-391 185,-369 10,-369"/>
<text text-anchor="start" x="30" y="-377.2" font-family="Helvetica,sans-Serif" font-size="11.00">isaccessallorgs</text>
<polygon fill="none" stroke="black" points="185,-369 185,-391 294,-391 294,-369 185,-369"/>
<text text-anchor="start" x="188" y="-377.2" font-family="Helvetica,sans-Serif" font-size="11.00">bpchar[1]</text>
<polygon fill="none" stroke="black" points="10,-347 10,-369 185,-369 185,-347 10,-347"/>
<text text-anchor="start" x="30" y="-355.2" font-family="Helvetica,sans-Serif" font-size="11.00">isuseuserorgaccess</text>
<polygon fill="none" stroke="black" points="185,-347 185,-369 294,-369 294,-347 185,-347"/>
<text text-anchor="start" x="188" y="-355.2" font-family="Helvetica,sans-Serif" font-size="11.00">bpchar[1]</text>
<polygon fill="none" stroke="black" points="10,-325 10,-347 185,-347 185,-325 10,-325"/>
<text text-anchor="start" x="30" y="-333.2" font-family="Helvetica,sans-Serif" font-size="11.00">iscanexport</text>
<polygon fill="none" stroke="black" points="185,-325 185,-347 294,-347 294,-325 185,-325"/>
<text text-anchor="start" x="188" y="-333.2" font-family="Helvetica,sans-Serif" font-size="11.00">bpchar[1]</text>
<polygon fill="none" stroke="black" points="10,-303 10,-325 185,-325 185,-303 10,-303"/>
<text text-anchor="start" x="30" y="-311.2" font-family="Helvetica,sans-Serif" font-size="11.00">ispersonalaccess</text>
<polygon fill="none" stroke="black" points="185,-303 185,-325 294,-325 294,-303 185,-303"/>
<text text-anchor="start" x="188" y="-311.2" font-family="Helvetica,sans-Serif" font-size="11.00">bpchar[1]</text>
<polygon fill="none" stroke="black" points="10,-281 10,-303 185,-303 185,-281 10,-281"/>
<text text-anchor="start" x="30" y="-289.2" font-family="Helvetica,sans-Serif" font-size="11.00">ismenuautoexpand</text>
<polygon fill="none" stroke="black" points="185,-281 185,-303 294,-303 294,-281 185,-281"/>
<text text-anchor="start" x="188" y="-289.2" font-family="Helvetica,sans-Serif" font-size="11.00">bpchar[1]</text>
<polygon fill="none" stroke="black" points="10,-259 10,-281 185,-281 185,-259 10,-259"/>
<text text-anchor="start" x="30" y="-267.2" font-family="Helvetica,sans-Serif" font-size="11.00">allow_info_account</text>
<polygon fill="none" stroke="black" points="185,-259 185,-281 294,-281 294,-259 185,-259"/>
<text text-anchor="start" x="188" y="-267.2" font-family="Helvetica,sans-Serif" font-size="11.00">bpchar[1]</text>
<polygon fill="none" stroke="black" points="10,-237 10,-259 185,-259 185,-237 10,-237"/>
<text text-anchor="start" x="30" y="-245.2" font-family="Helvetica,sans-Serif" font-size="11.00">allow_info_schedule</text>
<polygon fill="none" stroke="black" points="185,-237 185,-259 294,-259 294,-237 185,-237"/>
<text text-anchor="start" x="188" y="-245.2" font-family="Helvetica,sans-Serif" font-size="11.00">bpchar[1]</text>
<polygon fill="none" stroke="black" points="10,-215 10,-237 185,-237 185,-215 10,-215"/>
<text text-anchor="start" x="30" y="-223.2" font-family="Helvetica,sans-Serif" font-size="11.00">cof_rolelevel</text>
<polygon fill="none" stroke="black" points="185,-215 185,-237 294,-237 294,-215 185,-215"/>
<text text-anchor="start" x="188" y="-223.2" font-family="Helvetica,sans-Serif" font-size="11.00">varchar[3]</text>
<polygon fill="none" stroke="black" points="10,-193 10,-215 185,-215 185,-193 10,-193"/>
<text text-anchor="start" x="30" y="-201.2" font-family="Helvetica,sans-Serif" font-size="11.00">ad_user_id</text>
<polygon fill="none" stroke="black" points="185,-193 185,-215 294,-215 294,-193 185,-193"/>
<text text-anchor="start" x="188" y="-201.2" font-family="Helvetica,sans-Serif" font-size="11.00">numeric[0]</text>
<polygon fill="none" stroke="black" points="10,-171 10,-193 185,-193 185,-171 10,-171"/>
<text text-anchor="start" x="30" y="-179.2" font-family="Helvetica,sans-Serif" font-size="11.00">ad_window_id</text>
<polygon fill="none" stroke="black" points="185,-171 185,-193 294,-193 294,-171 185,-171"/>
<text text-anchor="start" x="188" y="-179.2" font-family="Helvetica,sans-Serif" font-size="11.00">numeric[0]</text>
<polygon fill="none" stroke="black" points="10,-149 10,-171 185,-171 185,-149 10,-149"/>
<text text-anchor="start" x="30" y="-157.2" font-family="Helvetica,sans-Serif" font-size="11.00">ad_process_id</text>
<polygon fill="none" stroke="black" points="185,-149 185,-171 294,-171 294,-149 185,-149"/>
<text text-anchor="start" x="188" y="-157.2" font-family="Helvetica,sans-Serif" font-size="11.00">numeric[0]</text>
<polygon fill="none" stroke="black" points="10,-127 10,-149 185,-149 185,-127 10,-127"/>
<text text-anchor="start" x="30" y="-135.2" font-family="Helvetica,sans-Serif" font-size="11.00">ad_form_id</text>
<polygon fill="none" stroke="black" points="185,-127 185,-149 294,-149 294,-127 185,-127"/>
<text text-anchor="start" x="188" y="-135.2" font-family="Helvetica,sans-Serif" font-size="11.00">numeric[0]</text>
<polygon fill="none" stroke="black" points="10,-105 10,-127 185,-127 185,-105 10,-105"/>
<text text-anchor="start" x="30" y="-113.2" font-family="Helvetica,sans-Serif" font-size="11.00">ad_infowindow_id</text>
<polygon fill="none" stroke="black" points="185,-105 185,-127 294,-127 294,-105 185,-105"/>
<text text-anchor="start" x="188" y="-113.2" font-family="Helvetica,sans-Serif" font-size="11.00">numeric[0]</text>
<polygon fill="none" stroke="black" points="10,-83 10,-105 185,-105 185,-83 10,-83"/>
<text text-anchor="start" x="30" y="-91.2" font-family="Helvetica,sans-Serif" font-size="11.00">ad_workflow_id</text>
<polygon fill="none" stroke="black" points="185,-83 185,-105 294,-105 294,-83 185,-83"/>
<text text-anchor="start" x="188" y="-91.2" font-family="Helvetica,sans-Serif" font-size="11.00">numeric[0]</text>
<polygon fill="none" stroke="black" points="10,-61 10,-83 185,-83 185,-61 10,-61"/>
<text text-anchor="start" x="30" y="-69.2" font-family="Helvetica,sans-Serif" font-size="11.00">ad_task_id</text>
<polygon fill="none" stroke="black" points="185,-61 185,-83 294,-83 294,-61 185,-61"/>
<text text-anchor="start" x="188" y="-69.2" font-family="Helvetica,sans-Serif" font-size="11.00">numeric[0]</text>
<polygon fill="none" stroke="black" points="10,-39 10,-61 185,-61 185,-39 10,-39"/>
<text text-anchor="start" x="30" y="-47.2" font-family="Helvetica,sans-Serif" font-size="11.00">c_doctype_id</text>
<polygon fill="none" stroke="black" points="185,-39 185,-61 294,-61 294,-39 185,-39"/>
<text text-anchor="start" x="188" y="-47.2" font-family="Helvetica,sans-Serif" font-size="11.00">numeric[0]</text>
<polygon fill="none" stroke="black" stroke-width="2" points="9,-38 9,-788 295,-788 295,-38 9,-38"/>
</a>
</g>
</g>
</g>
</svg>
