<?xml version="1.0" encoding="UTF-8" standalone="no"?>
<!DOCTYPE svg PUBLIC "-//W3C//DTD SVG 1.1//EN"
 "http://www.w3.org/Graphics/SVG/1.1/DTD/svg11.dtd">
<!-- Generated by graphviz version 2.43.0 (0)
 -->
<!-- Title: oneDegreeRelationshipsDiagram Pages: 1 -->
<svg width="651pt" height="801pt"
 viewBox="0.00 0.00 651.00 801.00" xmlns="http://www.w3.org/2000/svg" xmlns:xlink="http://www.w3.org/1999/xlink">
<g id="graph0" class="graph" transform="scale(1 1) rotate(0) translate(4 797)">
<title>oneDegreeRelationshipsDiagram</title>
<polygon fill="#ffffff" stroke="transparent" points="-4,4 -4,-797 647,-797 647,4 -4,4"/>
<text text-anchor="middle" x="71.5" y="-7.2" font-family="Helvetica,sans-Serif" font-size="11.00">Generated by SchemaSpy</text>
<!-- ad_alert -->
<g id="node1" class="node">
<title>ad_alert</title>
<g id="a_node1"><a xlink:href="../../tables/ad_alert.html" xlink:title="ad_alert" target="_top">
<polygon fill="#ffffff" stroke="transparent" points="397,-643 397,-789 635,-789 635,-643 397,-643"/>
<polygon fill="#f5f5f5" stroke="transparent" points="397,-767 397,-789 635,-789 635,-767 397,-767"/>
<polygon fill="none" stroke="black" points="397,-767 397,-789 635,-789 635,-767 397,-767"/>
<text text-anchor="start" x="402" y="-776.2" font-family="Helvetica,sans-Serif" font-weight="bold" font-size="11.00">ad_alert</text>
<text text-anchor="start" x="600" y="-775.2" font-family="Helvetica,sans-Serif" font-size="11.00">[table]</text>
<polygon fill="none" stroke="black" points="397,-745 397,-767 635,-767 635,-745 397,-745"/>
<image xlink:href="../../images/primaryKeys.png" width="11px" height="12px" preserveAspectRatio="xMinYMin meet" x="402" y="-762"/>
<text text-anchor="start" x="417" y="-753.2" font-family="Helvetica,sans-Serif" font-size="11.00">ad_alert_id</text>
<polygon fill="none" stroke="black" points="397,-723 397,-745 635,-745 635,-723 397,-723"/>
<image xlink:href="../../images/foreignKeys.png" width="11px" height="12px" preserveAspectRatio="xMinYMin meet" x="402" y="-740"/>
<text text-anchor="start" x="417" y="-731.2" font-family="Helvetica,sans-Serif" font-size="11.00">ad_alertprocessor_id</text>
<polygon fill="#ffffff" stroke="transparent" points="397,-701 397,-723 635,-723 635,-701 397,-701"/>
<polygon fill="none" stroke="black" points="397,-701 397,-723 635,-723 635,-701 397,-701"/>
<text text-anchor="start" x="417" y="-709.2" font-family="Helvetica,sans-Serif" font-size="11.00">ad_alert_uu</text>
<polygon fill="none" stroke="black" points="397,-679 397,-701 635,-701 635,-679 397,-679"/>
<image xlink:href="../../images/foreignKeys.png" width="11px" height="12px" preserveAspectRatio="xMinYMin meet" x="402" y="-696"/>
<text text-anchor="start" x="417" y="-687.2" font-family="Helvetica,sans-Serif" font-size="11.00">cof_armazenamentonuvem_id</text>
<polygon fill="none" stroke="black" points="397,-661 397,-679 635,-679 635,-661 397,-661"/>
<text text-anchor="start" x="400" y="-667.2" font-family="Helvetica,sans-Serif" font-size="11.00">...</text>
<polygon fill="#ffffff" stroke="transparent" points="397,-643 397,-661 635,-661 635,-643 397,-643"/>
<polygon fill="none" stroke="black" points="397,-643 397,-661 635,-661 635,-643 397,-643"/>
<polygon fill="#ffffff" stroke="transparent" points="398,-644 398,-660 480,-660 480,-644 398,-644"/>
<text text-anchor="start" x="400" y="-649.2" font-family="Helvetica,sans-Serif" font-size="11.00">&lt; 2</text>
<polygon fill="#ffffff" stroke="transparent" points="480,-644 480,-660 553,-660 553,-644 480,-644"/>
<text text-anchor="start" x="513" y="-649.2" font-family="Helvetica,sans-Serif" font-size="11.00"> &#160;</text>
<polygon fill="#ffffff" stroke="transparent" points="553,-644 553,-660 634,-660 634,-644 553,-644"/>
<text text-anchor="start" x="616" y="-649.2" font-family="Helvetica,sans-Serif" font-size="11.00">2 &gt;</text>
<polygon fill="black" stroke="black" points="480,-644 480,-660 480,-660 480,-644 480,-644"/>
<polygon fill="black" stroke="black" points="553,-644 553,-660 553,-660 553,-644 553,-644"/>
</a>
</g>
</g>
<!-- cof_armazenamentonuvem -->
<g id="node2" class="node">
<title>cof_armazenamentonuvem</title>
<g id="a_node2"><a xlink:href="../../tables/cof_armazenamentonuvem.html" xlink:title="cof_armazenamentonuvem" target="_top">
<polygon fill="#ffffff" stroke="transparent" points="8,-37 8,-587 348,-587 348,-37 8,-37"/>
<polygon fill="#f5f5f5" stroke="transparent" points="10,-563 10,-585 346,-585 346,-563 10,-563"/>
<polygon fill="none" stroke="black" points="10,-563 10,-585 346,-585 346,-563 10,-563"/>
<text text-anchor="start" x="15" y="-572.2" font-family="Helvetica,sans-Serif" font-weight="bold" font-size="11.00">cof_armazenamentonuvem</text>
<text text-anchor="start" x="311" y="-571.2" font-family="Helvetica,sans-Serif" font-size="11.00">[table]</text>
<polygon fill="none" stroke="black" points="10,-541 10,-563 256,-563 256,-541 10,-541"/>
<image xlink:href="../../images/primaryKeys.png" width="11px" height="12px" preserveAspectRatio="xMinYMin meet" x="15" y="-558"/>
<text text-anchor="start" x="30" y="-549.2" font-family="Helvetica,sans-Serif" font-size="11.00">cof_armazenamentonuvem_id</text>
<polygon fill="none" stroke="black" points="256,-541 256,-563 346,-563 346,-541 256,-541"/>
<text text-anchor="start" x="259" y="-549.2" font-family="Helvetica,sans-Serif" font-size="11.00">numeric[10]</text>
<polygon fill="#ffffff" stroke="transparent" points="10,-519 10,-541 256,-541 256,-519 10,-519"/>
<polygon fill="none" stroke="black" points="10,-519 10,-541 256,-541 256,-519 10,-519"/>
<text text-anchor="start" x="30" y="-527.2" font-family="Helvetica,sans-Serif" font-size="11.00">cof_armazenamentonuvem_uu</text>
<polygon fill="none" stroke="black" points="256,-519 256,-541 346,-541 346,-519 256,-519"/>
<text text-anchor="start" x="259" y="-527.2" font-family="Helvetica,sans-Serif" font-size="11.00">varchar[36]</text>
<polygon fill="none" stroke="black" points="10,-497 10,-519 256,-519 256,-497 10,-497"/>
<text text-anchor="start" x="30" y="-505.2" font-family="Helvetica,sans-Serif" font-size="11.00">ad_client_id</text>
<polygon fill="none" stroke="black" points="256,-497 256,-519 346,-519 346,-497 256,-497"/>
<text text-anchor="start" x="259" y="-505.2" font-family="Helvetica,sans-Serif" font-size="11.00">numeric[10]</text>
<polygon fill="none" stroke="black" points="10,-475 10,-497 256,-497 256,-475 10,-475"/>
<text text-anchor="start" x="30" y="-483.2" font-family="Helvetica,sans-Serif" font-size="11.00">ad_org_id</text>
<polygon fill="none" stroke="black" points="256,-475 256,-497 346,-497 346,-475 256,-475"/>
<text text-anchor="start" x="259" y="-483.2" font-family="Helvetica,sans-Serif" font-size="11.00">numeric[10]</text>
<polygon fill="none" stroke="black" points="10,-453 10,-475 256,-475 256,-453 10,-453"/>
<text text-anchor="start" x="30" y="-461.2" font-family="Helvetica,sans-Serif" font-size="11.00">isactive</text>
<polygon fill="none" stroke="black" points="256,-453 256,-475 346,-475 346,-453 256,-453"/>
<text text-anchor="start" x="259" y="-461.2" font-family="Helvetica,sans-Serif" font-size="11.00">bpchar[1]</text>
<polygon fill="none" stroke="black" points="10,-431 10,-453 256,-453 256,-431 10,-431"/>
<text text-anchor="start" x="30" y="-439.2" font-family="Helvetica,sans-Serif" font-size="11.00">created</text>
<polygon fill="none" stroke="black" points="256,-431 256,-453 346,-453 346,-431 256,-431"/>
<text text-anchor="start" x="259" y="-439.2" font-family="Helvetica,sans-Serif" font-size="11.00">timestamp[29,6]</text>
<polygon fill="none" stroke="black" points="10,-409 10,-431 256,-431 256,-409 10,-409"/>
<text text-anchor="start" x="30" y="-417.2" font-family="Helvetica,sans-Serif" font-size="11.00">createdby</text>
<polygon fill="none" stroke="black" points="256,-409 256,-431 346,-431 346,-409 256,-409"/>
<text text-anchor="start" x="259" y="-417.2" font-family="Helvetica,sans-Serif" font-size="11.00">numeric[10]</text>
<polygon fill="none" stroke="black" points="10,-387 10,-409 256,-409 256,-387 10,-387"/>
<text text-anchor="start" x="30" y="-395.2" font-family="Helvetica,sans-Serif" font-size="11.00">updated</text>
<polygon fill="none" stroke="black" points="256,-387 256,-409 346,-409 346,-387 256,-387"/>
<text text-anchor="start" x="259" y="-395.2" font-family="Helvetica,sans-Serif" font-size="11.00">timestamp[29,6]</text>
<polygon fill="none" stroke="black" points="10,-365 10,-387 256,-387 256,-365 10,-365"/>
<text text-anchor="start" x="30" y="-373.2" font-family="Helvetica,sans-Serif" font-size="11.00">updatedby</text>
<polygon fill="none" stroke="black" points="256,-365 256,-387 346,-387 346,-365 256,-365"/>
<text text-anchor="start" x="259" y="-373.2" font-family="Helvetica,sans-Serif" font-size="11.00">numeric[10]</text>
<polygon fill="none" stroke="black" points="10,-343 10,-365 256,-365 256,-343 10,-343"/>
<text text-anchor="start" x="30" y="-351.2" font-family="Helvetica,sans-Serif" font-size="11.00">name</text>
<polygon fill="none" stroke="black" points="256,-343 256,-365 346,-365 346,-343 256,-343"/>
<text text-anchor="start" x="259" y="-351.2" font-family="Helvetica,sans-Serif" font-size="11.00">varchar[60]</text>
<polygon fill="none" stroke="black" points="10,-321 10,-343 256,-343 256,-321 10,-321"/>
<text text-anchor="start" x="30" y="-329.2" font-family="Helvetica,sans-Serif" font-size="11.00">description</text>
<polygon fill="none" stroke="black" points="256,-321 256,-343 346,-343 346,-321 256,-321"/>
<text text-anchor="start" x="259" y="-329.2" font-family="Helvetica,sans-Serif" font-size="11.00">varchar[255]</text>
<polygon fill="none" stroke="black" points="10,-299 10,-321 256,-321 256,-299 10,-299"/>
<text text-anchor="start" x="30" y="-307.2" font-family="Helvetica,sans-Serif" font-size="11.00">cof_token</text>
<polygon fill="none" stroke="black" points="256,-299 256,-321 346,-321 346,-299 256,-299"/>
<text text-anchor="start" x="259" y="-307.2" font-family="Helvetica,sans-Serif" font-size="11.00">varchar[1000]</text>
<polygon fill="none" stroke="black" points="10,-277 10,-299 256,-299 256,-277 10,-277"/>
<text text-anchor="start" x="30" y="-285.2" font-family="Helvetica,sans-Serif" font-size="11.00">servicepath</text>
<polygon fill="none" stroke="black" points="256,-277 256,-299 346,-299 346,-277 256,-277"/>
<text text-anchor="start" x="259" y="-285.2" font-family="Helvetica,sans-Serif" font-size="11.00">varchar[60]</text>
<polygon fill="none" stroke="black" points="10,-255 10,-277 256,-277 256,-255 10,-255"/>
<text text-anchor="start" x="30" y="-263.2" font-family="Helvetica,sans-Serif" font-size="11.00">cof_serviconuvem</text>
<polygon fill="none" stroke="black" points="256,-255 256,-277 346,-277 346,-255 256,-255"/>
<text text-anchor="start" x="259" y="-263.2" font-family="Helvetica,sans-Serif" font-size="11.00">varchar[3]</text>
<polygon fill="none" stroke="black" points="10,-233 10,-255 256,-255 256,-233 10,-233"/>
<text text-anchor="start" x="30" y="-241.2" font-family="Helvetica,sans-Serif" font-size="11.00">value</text>
<polygon fill="none" stroke="black" points="256,-233 256,-255 346,-255 346,-233 256,-233"/>
<text text-anchor="start" x="259" y="-241.2" font-family="Helvetica,sans-Serif" font-size="11.00">varchar[40]</text>
<polygon fill="none" stroke="black" points="10,-211 10,-233 256,-233 256,-211 10,-211"/>
<text text-anchor="start" x="30" y="-219.2" font-family="Helvetica,sans-Serif" font-size="11.00">cof_sobrescrever</text>
<polygon fill="none" stroke="black" points="256,-211 256,-233 346,-233 346,-211 256,-211"/>
<text text-anchor="start" x="259" y="-219.2" font-family="Helvetica,sans-Serif" font-size="11.00">bpchar[1]</text>
<polygon fill="none" stroke="black" points="10,-189 10,-211 256,-211 256,-189 10,-189"/>
<text text-anchor="start" x="30" y="-197.2" font-family="Helvetica,sans-Serif" font-size="11.00">name2</text>
<polygon fill="none" stroke="black" points="256,-189 256,-211 346,-211 346,-189 256,-189"/>
<text text-anchor="start" x="259" y="-197.2" font-family="Helvetica,sans-Serif" font-size="11.00">varchar[60]</text>
<polygon fill="none" stroke="black" points="10,-167 10,-189 256,-189 256,-167 10,-167"/>
<text text-anchor="start" x="30" y="-175.2" font-family="Helvetica,sans-Serif" font-size="11.00">cof_gdriveserviceaccountemail</text>
<polygon fill="none" stroke="black" points="256,-167 256,-189 346,-189 346,-167 256,-167"/>
<text text-anchor="start" x="259" y="-175.2" font-family="Helvetica,sans-Serif" font-size="11.00">varchar[2000]</text>
<polygon fill="none" stroke="black" points="10,-145 10,-167 256,-167 256,-145 10,-145"/>
<text text-anchor="start" x="30" y="-153.2" font-family="Helvetica,sans-Serif" font-size="11.00">cof_gdrivemime</text>
<polygon fill="none" stroke="black" points="256,-145 256,-167 346,-167 346,-145 256,-145"/>
<text text-anchor="start" x="259" y="-153.2" font-family="Helvetica,sans-Serif" font-size="11.00">varchar[100]</text>
<polygon fill="none" stroke="black" points="10,-123 10,-145 256,-145 256,-123 10,-123"/>
<text text-anchor="start" x="30" y="-131.2" font-family="Helvetica,sans-Serif" font-size="11.00">cof_gdrivelinkpasta</text>
<polygon fill="none" stroke="black" points="256,-123 256,-145 346,-145 346,-123 256,-123"/>
<text text-anchor="start" x="259" y="-131.2" font-family="Helvetica,sans-Serif" font-size="11.00">varchar[500]</text>
<polygon fill="none" stroke="black" points="10,-101 10,-123 256,-123 256,-101 10,-101"/>
<text text-anchor="start" x="30" y="-109.2" font-family="Helvetica,sans-Serif" font-size="11.00">errormsg</text>
<polygon fill="none" stroke="black" points="256,-101 256,-123 346,-123 346,-101 256,-101"/>
<text text-anchor="start" x="259" y="-109.2" font-family="Helvetica,sans-Serif" font-size="11.00">text[2147483647]</text>
<polygon fill="none" stroke="black" points="10,-79 10,-101 256,-101 256,-79 10,-79"/>
<text text-anchor="start" x="30" y="-87.2" font-family="Helvetica,sans-Serif" font-size="11.00">cof_gdrivelinkarquivo</text>
<polygon fill="none" stroke="black" points="256,-79 256,-101 346,-101 346,-79 256,-79"/>
<text text-anchor="start" x="259" y="-87.2" font-family="Helvetica,sans-Serif" font-size="11.00">varchar[500]</text>
<polygon fill="none" stroke="black" points="10,-57 10,-79 256,-79 256,-57 10,-57"/>
<text text-anchor="start" x="30" y="-65.2" font-family="Helvetica,sans-Serif" font-size="11.00">cof_cloudaction</text>
<polygon fill="none" stroke="black" points="256,-57 256,-79 346,-79 346,-57 256,-57"/>
<text text-anchor="start" x="259" y="-65.2" font-family="Helvetica,sans-Serif" font-size="11.00">bpchar[1]</text>
<polygon fill="#ffffff" stroke="transparent" points="10,-39 10,-57 346,-57 346,-39 10,-39"/>
<polygon fill="none" stroke="black" points="10,-39 10,-57 346,-57 346,-39 10,-39"/>
<polygon fill="#ffffff" stroke="transparent" points="11,-40 11,-56 126,-56 126,-40 11,-40"/>
<text text-anchor="start" x="13" y="-45.2" font-family="Helvetica,sans-Serif" font-size="11.00">&lt; 0</text>
<polygon fill="#ffffff" stroke="transparent" points="126,-40 126,-56 231,-56 231,-40 126,-40"/>
<text text-anchor="start" x="175" y="-45.2" font-family="Helvetica,sans-Serif" font-size="11.00"> &#160;</text>
<polygon fill="#ffffff" stroke="transparent" points="231,-40 231,-56 345,-56 345,-40 231,-40"/>
<text text-anchor="start" x="327" y="-45.2" font-family="Helvetica,sans-Serif" font-size="11.00">2 &gt;</text>
<polygon fill="black" stroke="black" points="126,-40 126,-56 126,-56 126,-40 126,-40"/>
<polygon fill="black" stroke="black" points="231,-40 231,-56 231,-56 231,-40 231,-40"/>
<polygon fill="none" stroke="black" stroke-width="2" points="9,-38 9,-586 347,-586 347,-38 9,-38"/>
</a>
</g>
</g>
<!-- ad_alert&#45;&gt;cof_armazenamentonuvem -->
<g id="edge1" class="edge">
<title>ad_alert:w&#45;&gt;cof_armazenamentonuvem:e</title>
<path fill="none" stroke="black" d="M381.79,-686.86C344.32,-666.32 406.24,-552 347,-552"/>
<polygon fill="black" stroke="black" points="388.19,-688.27 395.22,-693.52 392.09,-689.14 396,-690 396,-690 396,-690 392.09,-689.14 396.78,-686.48 388.19,-688.27 388.19,-688.27"/>
<ellipse fill="none" stroke="black" cx="385.06" cy="-687.58" rx="3.2" ry="3.2"/>
</g>
<!-- ad_scheduler -->
<g id="node3" class="node">
<title>ad_scheduler</title>
<g id="a_node3"><a xlink:href="../../tables/ad_scheduler.html" xlink:title="ad_scheduler" target="_top">
<polygon fill="#ffffff" stroke="transparent" points="397,-366 397,-622 635,-622 635,-366 397,-366"/>
<polygon fill="#f5f5f5" stroke="transparent" points="397,-600 397,-622 635,-622 635,-600 397,-600"/>
<polygon fill="none" stroke="black" points="397,-600 397,-622 635,-622 635,-600 397,-600"/>
<text text-anchor="start" x="402" y="-609.2" font-family="Helvetica,sans-Serif" font-weight="bold" font-size="11.00">ad_scheduler</text>
<text text-anchor="start" x="600" y="-608.2" font-family="Helvetica,sans-Serif" font-size="11.00">[table]</text>
<polygon fill="none" stroke="black" points="397,-578 397,-600 635,-600 635,-578 397,-578"/>
<image xlink:href="../../images/primaryKeys.png" width="11px" height="12px" preserveAspectRatio="xMinYMin meet" x="402" y="-595"/>
<text text-anchor="start" x="417" y="-586.2" font-family="Helvetica,sans-Serif" font-size="11.00">ad_scheduler_id</text>
<polygon fill="none" stroke="black" points="397,-556 397,-578 635,-578 635,-556 397,-556"/>
<image xlink:href="../../images/foreignKeys.png" width="11px" height="12px" preserveAspectRatio="xMinYMin meet" x="402" y="-573"/>
<text text-anchor="start" x="417" y="-564.2" font-family="Helvetica,sans-Serif" font-size="11.00">ad_process_id</text>
<polygon fill="none" stroke="black" points="397,-534 397,-556 635,-556 635,-534 397,-534"/>
<image xlink:href="../../images/foreignKeys.png" width="11px" height="12px" preserveAspectRatio="xMinYMin meet" x="402" y="-551"/>
<text text-anchor="start" x="417" y="-542.2" font-family="Helvetica,sans-Serif" font-size="11.00">supervisor_id</text>
<polygon fill="none" stroke="black" points="397,-512 397,-534 635,-534 635,-512 397,-512"/>
<image xlink:href="../../images/foreignKeys.png" width="11px" height="12px" preserveAspectRatio="xMinYMin meet" x="402" y="-529"/>
<text text-anchor="start" x="417" y="-520.2" font-family="Helvetica,sans-Serif" font-size="11.00">ad_table_id</text>
<polygon fill="#ffffff" stroke="transparent" points="397,-490 397,-512 635,-512 635,-490 397,-490"/>
<polygon fill="none" stroke="black" points="397,-490 397,-512 635,-512 635,-490 397,-490"/>
<text text-anchor="start" x="417" y="-498.2" font-family="Helvetica,sans-Serif" font-size="11.00">ad_scheduler_uu</text>
<polygon fill="none" stroke="black" points="397,-468 397,-490 635,-490 635,-468 397,-468"/>
<image xlink:href="../../images/foreignKeys.png" width="11px" height="12px" preserveAspectRatio="xMinYMin meet" x="402" y="-485"/>
<text text-anchor="start" x="417" y="-476.2" font-family="Helvetica,sans-Serif" font-size="11.00">ad_schedule_id</text>
<polygon fill="none" stroke="black" points="397,-446 397,-468 635,-468 635,-446 397,-446"/>
<image xlink:href="../../images/foreignKeys.png" width="11px" height="12px" preserveAspectRatio="xMinYMin meet" x="402" y="-463"/>
<text text-anchor="start" x="417" y="-454.2" font-family="Helvetica,sans-Serif" font-size="11.00">r_mailtext_id</text>
<polygon fill="none" stroke="black" points="397,-424 397,-446 635,-446 635,-424 397,-424"/>
<image xlink:href="../../images/foreignKeys.png" width="11px" height="12px" preserveAspectRatio="xMinYMin meet" x="402" y="-441"/>
<text text-anchor="start" x="417" y="-432.2" font-family="Helvetica,sans-Serif" font-size="11.00">ad_printformat_id</text>
<polygon fill="none" stroke="black" points="397,-402 397,-424 635,-424 635,-402 397,-402"/>
<image xlink:href="../../images/foreignKeys.png" width="11px" height="12px" preserveAspectRatio="xMinYMin meet" x="402" y="-419"/>
<text text-anchor="start" x="417" y="-410.2" font-family="Helvetica,sans-Serif" font-size="11.00">cof_armazenamentonuvem_id</text>
<polygon fill="none" stroke="black" points="397,-384 397,-402 635,-402 635,-384 397,-384"/>
<text text-anchor="start" x="400" y="-390.2" font-family="Helvetica,sans-Serif" font-size="11.00">...</text>
<polygon fill="#ffffff" stroke="transparent" points="397,-366 397,-384 635,-384 635,-366 397,-366"/>
<polygon fill="none" stroke="black" points="397,-366 397,-384 635,-384 635,-366 397,-366"/>
<polygon fill="#ffffff" stroke="transparent" points="398,-367 398,-383 469,-383 469,-367 398,-367"/>
<text text-anchor="start" x="400" y="-372.2" font-family="Helvetica,sans-Serif" font-size="11.00">&lt; 7</text>
<polygon fill="#ffffff" stroke="transparent" points="469,-367 469,-383 563,-383 563,-367 469,-367"/>
<text text-anchor="start" x="496.5" y="-372.2" font-family="Helvetica,sans-Serif" font-size="11.00">13 rows</text>
<polygon fill="#ffffff" stroke="transparent" points="563,-367 563,-383 634,-383 634,-367 563,-367"/>
<text text-anchor="start" x="616" y="-372.2" font-family="Helvetica,sans-Serif" font-size="11.00">3 &gt;</text>
<polygon fill="black" stroke="black" points="469,-367 469,-383 469,-383 469,-367 469,-367"/>
<polygon fill="black" stroke="black" points="563,-367 563,-383 563,-383 563,-367 563,-367"/>
</a>
</g>
</g>
<!-- ad_scheduler&#45;&gt;cof_armazenamentonuvem -->
<g id="edge2" class="edge">
<title>ad_scheduler:w&#45;&gt;cof_armazenamentonuvem:e</title>
<path fill="none" stroke="black" d="M381.7,-416.16C344.04,-436.85 406.62,-552 347,-552"/>
<polygon fill="black" stroke="black" points="388.19,-414.73 396.78,-416.51 392.09,-413.86 396,-413 396,-413 396,-413 392.09,-413.86 395.22,-409.49 388.19,-414.73 388.19,-414.73"/>
<ellipse fill="none" stroke="black" cx="385.06" cy="-415.42" rx="3.2" ry="3.2"/>
</g>
</g>
</svg>
