<?xml version="1.0" encoding="UTF-8" standalone="no"?>
<!DOCTYPE svg PUBLIC "-//W3C//DTD SVG 1.1//EN"
 "http://www.w3.org/Graphics/SVG/1.1/DTD/svg11.dtd">
<!-- Generated by graphviz version 2.43.0 (0)
 -->
<!-- Title: oneDegreeRelationshipsDiagram Pages: 1 -->
<svg width="580pt" height="663pt"
 viewBox="0.00 0.00 580.00 663.00" xmlns="http://www.w3.org/2000/svg" xmlns:xlink="http://www.w3.org/1999/xlink">
<g id="graph0" class="graph" transform="scale(1 1) rotate(0) translate(4 659)">
<title>oneDegreeRelationshipsDiagram</title>
<polygon fill="#ffffff" stroke="transparent" points="-4,4 -4,-659 576,-659 576,4 -4,4"/>
<text text-anchor="middle" x="71.5" y="-7.2" font-family="Helvetica,sans-Serif" font-size="11.00">Generated by SchemaSpy</text>
<!-- cof_ordemservico -->
<g id="node1" class="node">
<title>cof_ordemservico</title>
<g id="a_node1"><a xlink:href="../../tables/cof_ordemservico.html" xlink:title="cof_ordemservico" target="_top">
<polygon fill="#ffffff" stroke="transparent" points="353,-43 353,-651 564,-651 564,-43 353,-43"/>
<polygon fill="#f5f5f5" stroke="transparent" points="353.5,-629 353.5,-651 564.5,-651 564.5,-629 353.5,-629"/>
<polygon fill="none" stroke="black" points="353.5,-629 353.5,-651 564.5,-651 564.5,-629 353.5,-629"/>
<text text-anchor="start" x="358.5" y="-638.2" font-family="Helvetica,sans-Serif" font-weight="bold" font-size="11.00">cof_ordemservico</text>
<text text-anchor="start" x="529.5" y="-637.2" font-family="Helvetica,sans-Serif" font-size="11.00">[table]</text>
<polygon fill="none" stroke="black" points="353.5,-607 353.5,-629 564.5,-629 564.5,-607 353.5,-607"/>
<image xlink:href="../../images/primaryKeys.png" width="11px" height="12px" preserveAspectRatio="xMinYMin meet" x="358.5" y="-624"/>
<text text-anchor="start" x="373.5" y="-615.2" font-family="Helvetica,sans-Serif" font-size="11.00">cof_ordemservico_id</text>
<polygon fill="#ffffff" stroke="transparent" points="353.5,-585 353.5,-607 564.5,-607 564.5,-585 353.5,-585"/>
<polygon fill="none" stroke="black" points="353.5,-585 353.5,-607 564.5,-607 564.5,-585 353.5,-585"/>
<text text-anchor="start" x="373.5" y="-593.2" font-family="Helvetica,sans-Serif" font-size="11.00">cof_ordemservico_uu</text>
<polygon fill="none" stroke="black" points="353.5,-563 353.5,-585 564.5,-585 564.5,-563 353.5,-563"/>
<image xlink:href="../../images/foreignKeys.png" width="11px" height="12px" preserveAspectRatio="xMinYMin meet" x="358.5" y="-580"/>
<text text-anchor="start" x="373.5" y="-571.2" font-family="Helvetica,sans-Serif" font-size="11.00">cof_equipments_id</text>
<polygon fill="none" stroke="black" points="353.5,-541 353.5,-563 564.5,-563 564.5,-541 353.5,-541"/>
<image xlink:href="../../images/foreignKeys.png" width="11px" height="12px" preserveAspectRatio="xMinYMin meet" x="358.5" y="-558"/>
<text text-anchor="start" x="373.5" y="-549.2" font-family="Helvetica,sans-Serif" font-size="11.00">a_asset_id</text>
<polygon fill="none" stroke="black" points="353.5,-519 353.5,-541 564.5,-541 564.5,-519 353.5,-519"/>
<image xlink:href="../../images/foreignKeys.png" width="11px" height="12px" preserveAspectRatio="xMinYMin meet" x="358.5" y="-536"/>
<text text-anchor="start" x="373.5" y="-527.2" font-family="Helvetica,sans-Serif" font-size="11.00">m_product_id</text>
<polygon fill="none" stroke="black" points="353.5,-497 353.5,-519 564.5,-519 564.5,-497 353.5,-497"/>
<image xlink:href="../../images/foreignKeys.png" width="11px" height="12px" preserveAspectRatio="xMinYMin meet" x="358.5" y="-514"/>
<text text-anchor="start" x="373.5" y="-505.2" font-family="Helvetica,sans-Serif" font-size="11.00">m_attributesetinstance_id</text>
<polygon fill="none" stroke="black" points="353.5,-475 353.5,-497 564.5,-497 564.5,-475 353.5,-475"/>
<image xlink:href="../../images/foreignKeys.png" width="11px" height="12px" preserveAspectRatio="xMinYMin meet" x="358.5" y="-492"/>
<text text-anchor="start" x="373.5" y="-483.2" font-family="Helvetica,sans-Serif" font-size="11.00">c_bpartner_id</text>
<polygon fill="none" stroke="black" points="353.5,-453 353.5,-475 564.5,-475 564.5,-453 353.5,-453"/>
<image xlink:href="../../images/foreignKeys.png" width="11px" height="12px" preserveAspectRatio="xMinYMin meet" x="358.5" y="-470"/>
<text text-anchor="start" x="373.5" y="-461.2" font-family="Helvetica,sans-Serif" font-size="11.00">cof_bpinternal_id</text>
<polygon fill="none" stroke="black" points="353.5,-431 353.5,-453 564.5,-453 564.5,-431 353.5,-431"/>
<image xlink:href="../../images/foreignKeys.png" width="11px" height="12px" preserveAspectRatio="xMinYMin meet" x="358.5" y="-448"/>
<text text-anchor="start" x="373.5" y="-439.2" font-family="Helvetica,sans-Serif" font-size="11.00">user1_id</text>
<polygon fill="none" stroke="black" points="353.5,-409 353.5,-431 564.5,-431 564.5,-409 353.5,-409"/>
<image xlink:href="../../images/foreignKeys.png" width="11px" height="12px" preserveAspectRatio="xMinYMin meet" x="358.5" y="-426"/>
<text text-anchor="start" x="373.5" y="-417.2" font-family="Helvetica,sans-Serif" font-size="11.00">user2_id</text>
<polygon fill="none" stroke="black" points="353.5,-387 353.5,-409 564.5,-409 564.5,-387 353.5,-387"/>
<image xlink:href="../../images/foreignKeys.png" width="11px" height="12px" preserveAspectRatio="xMinYMin meet" x="358.5" y="-404"/>
<text text-anchor="start" x="373.5" y="-395.2" font-family="Helvetica,sans-Serif" font-size="11.00">c_activity_id</text>
<polygon fill="none" stroke="black" points="353.5,-365 353.5,-387 564.5,-387 564.5,-365 353.5,-365"/>
<image xlink:href="../../images/foreignKeys.png" width="11px" height="12px" preserveAspectRatio="xMinYMin meet" x="358.5" y="-382"/>
<text text-anchor="start" x="373.5" y="-373.2" font-family="Helvetica,sans-Serif" font-size="11.00">c_campaign_id</text>
<polygon fill="none" stroke="black" points="353.5,-343 353.5,-365 564.5,-365 564.5,-343 353.5,-343"/>
<image xlink:href="../../images/foreignKeys.png" width="11px" height="12px" preserveAspectRatio="xMinYMin meet" x="358.5" y="-360"/>
<text text-anchor="start" x="373.5" y="-351.2" font-family="Helvetica,sans-Serif" font-size="11.00">c_salesregion_id</text>
<polygon fill="none" stroke="black" points="353.5,-321 353.5,-343 564.5,-343 564.5,-321 353.5,-321"/>
<image xlink:href="../../images/foreignKeys.png" width="11px" height="12px" preserveAspectRatio="xMinYMin meet" x="358.5" y="-338"/>
<text text-anchor="start" x="373.5" y="-329.2" font-family="Helvetica,sans-Serif" font-size="11.00">cof_precoproduto_id</text>
<polygon fill="none" stroke="black" points="353.5,-299 353.5,-321 564.5,-321 564.5,-299 353.5,-299"/>
<image xlink:href="../../images/foreignKeys.png" width="11px" height="12px" preserveAspectRatio="xMinYMin meet" x="358.5" y="-316"/>
<text text-anchor="start" x="373.5" y="-307.2" font-family="Helvetica,sans-Serif" font-size="11.00">cof_precoservico_id</text>
<polygon fill="none" stroke="black" points="353.5,-277 353.5,-299 564.5,-299 564.5,-277 353.5,-277"/>
<image xlink:href="../../images/foreignKeys.png" width="11px" height="12px" preserveAspectRatio="xMinYMin meet" x="358.5" y="-294"/>
<text text-anchor="start" x="373.5" y="-285.2" font-family="Helvetica,sans-Serif" font-size="11.00">cof_motivoparalisacao_id</text>
<polygon fill="none" stroke="black" points="353.5,-255 353.5,-277 564.5,-277 564.5,-255 353.5,-255"/>
<image xlink:href="../../images/foreignKeys.png" width="11px" height="12px" preserveAspectRatio="xMinYMin meet" x="358.5" y="-272"/>
<text text-anchor="start" x="373.5" y="-263.2" font-family="Helvetica,sans-Serif" font-size="11.00">c_project_id</text>
<polygon fill="none" stroke="black" points="353.5,-233 353.5,-255 564.5,-255 564.5,-233 353.5,-233"/>
<image xlink:href="../../images/foreignKeys.png" width="11px" height="12px" preserveAspectRatio="xMinYMin meet" x="358.5" y="-250"/>
<text text-anchor="start" x="373.5" y="-241.2" font-family="Helvetica,sans-Serif" font-size="11.00">c_doctypetarget_id</text>
<polygon fill="#ffffff" stroke="transparent" points="353.5,-211 353.5,-233 564.5,-233 564.5,-211 353.5,-211"/>
<polygon fill="none" stroke="black" points="353.5,-211 353.5,-233 564.5,-233 564.5,-211 353.5,-211"/>
<image xlink:href="../../images/foreignKeys.png" width="11px" height="12px" preserveAspectRatio="xMinYMin meet" x="358.5" y="-228"/>
<text text-anchor="start" x="373.5" y="-219.2" font-family="Helvetica,sans-Serif" font-size="11.00">cof_orderproduto_id</text>
<polygon fill="#ffffff" stroke="transparent" points="353.5,-189 353.5,-211 564.5,-211 564.5,-189 353.5,-189"/>
<polygon fill="none" stroke="black" points="353.5,-189 353.5,-211 564.5,-211 564.5,-189 353.5,-189"/>
<image xlink:href="../../images/foreignKeys.png" width="11px" height="12px" preserveAspectRatio="xMinYMin meet" x="358.5" y="-206"/>
<text text-anchor="start" x="373.5" y="-197.2" font-family="Helvetica,sans-Serif" font-size="11.00">cof_orderservico_id</text>
<polygon fill="none" stroke="black" points="353.5,-167 353.5,-189 564.5,-189 564.5,-167 353.5,-167"/>
<image xlink:href="../../images/foreignKeys.png" width="11px" height="12px" preserveAspectRatio="xMinYMin meet" x="358.5" y="-184"/>
<text text-anchor="start" x="373.5" y="-175.2" font-family="Helvetica,sans-Serif" font-size="11.00">cof_movementos_id</text>
<polygon fill="none" stroke="black" points="353.5,-145 353.5,-167 564.5,-167 564.5,-145 353.5,-145"/>
<image xlink:href="../../images/foreignKeys.png" width="11px" height="12px" preserveAspectRatio="xMinYMin meet" x="358.5" y="-162"/>
<text text-anchor="start" x="373.5" y="-153.2" font-family="Helvetica,sans-Serif" font-size="11.00">c_bpartner_location_id</text>
<polygon fill="none" stroke="black" points="353.5,-123 353.5,-145 564.5,-145 564.5,-123 353.5,-123"/>
<image xlink:href="../../images/foreignKeys.png" width="11px" height="12px" preserveAspectRatio="xMinYMin meet" x="358.5" y="-140"/>
<text text-anchor="start" x="373.5" y="-131.2" font-family="Helvetica,sans-Serif" font-size="11.00">c_location_id</text>
<polygon fill="none" stroke="black" points="353.5,-101 353.5,-123 564.5,-123 564.5,-101 353.5,-101"/>
<image xlink:href="../../images/foreignKeys.png" width="11px" height="12px" preserveAspectRatio="xMinYMin meet" x="358.5" y="-118"/>
<text text-anchor="start" x="373.5" y="-109.2" font-family="Helvetica,sans-Serif" font-size="11.00">cof_statusinternoos_id</text>
<polygon fill="none" stroke="black" points="353.5,-79 353.5,-101 564.5,-101 564.5,-79 353.5,-79"/>
<image xlink:href="../../images/foreignKeys.png" width="11px" height="12px" preserveAspectRatio="xMinYMin meet" x="358.5" y="-96"/>
<text text-anchor="start" x="373.5" y="-87.2" font-family="Helvetica,sans-Serif" font-size="11.00">m_warehouse_id</text>
<polygon fill="none" stroke="black" points="353.5,-61 353.5,-79 564.5,-79 564.5,-61 353.5,-61"/>
<text text-anchor="start" x="356.5" y="-67.2" font-family="Helvetica,sans-Serif" font-size="11.00">...</text>
<polygon fill="#ffffff" stroke="transparent" points="353.5,-43 353.5,-61 564.5,-61 564.5,-43 353.5,-43"/>
<polygon fill="none" stroke="black" points="353.5,-43 353.5,-61 564.5,-61 564.5,-43 353.5,-43"/>
<polygon fill="#ffffff" stroke="transparent" points="354.5,-44 354.5,-60 431.5,-60 431.5,-44 354.5,-44"/>
<text text-anchor="start" x="356.5" y="-49.2" font-family="Helvetica,sans-Serif" font-size="11.00">&lt; 23</text>
<polygon fill="#ffffff" stroke="transparent" points="431.5,-44 431.5,-60 493.5,-60 493.5,-44 431.5,-44"/>
<text text-anchor="start" x="459" y="-49.2" font-family="Helvetica,sans-Serif" font-size="11.00"> &#160;</text>
<polygon fill="#ffffff" stroke="transparent" points="493.5,-44 493.5,-60 563.5,-60 563.5,-44 493.5,-44"/>
<text text-anchor="start" x="545.5" y="-49.2" font-family="Helvetica,sans-Serif" font-size="11.00">3 &gt;</text>
<polygon fill="black" stroke="black" points="431.5,-44 431.5,-60 431.5,-60 431.5,-44 431.5,-44"/>
<polygon fill="black" stroke="black" points="493.5,-44 493.5,-60 493.5,-60 493.5,-44 493.5,-44"/>
</a>
</g>
</g>
<!-- cof_motivoparalisacao -->
<g id="node2" class="node">
<title>cof_motivoparalisacao</title>
<g id="a_node2"><a xlink:href="../../tables/cof_motivoparalisacao.html" xlink:title="cof_motivoparalisacao" target="_top">
<polygon fill="#ffffff" stroke="transparent" points="8,-37 8,-323 304,-323 304,-37 8,-37"/>
<polygon fill="#f5f5f5" stroke="transparent" points="10,-299 10,-321 302,-321 302,-299 10,-299"/>
<polygon fill="none" stroke="black" points="10,-299 10,-321 302,-321 302,-299 10,-299"/>
<text text-anchor="start" x="15" y="-308.2" font-family="Helvetica,sans-Serif" font-weight="bold" font-size="11.00">cof_motivoparalisacao</text>
<text text-anchor="start" x="267" y="-307.2" font-family="Helvetica,sans-Serif" font-size="11.00">[table]</text>
<polygon fill="none" stroke="black" points="10,-277 10,-299 219,-299 219,-277 10,-277"/>
<image xlink:href="../../images/primaryKeys.png" width="11px" height="12px" preserveAspectRatio="xMinYMin meet" x="15" y="-294"/>
<text text-anchor="start" x="30" y="-285.2" font-family="Helvetica,sans-Serif" font-size="11.00">cof_motivoparalisacao_id</text>
<polygon fill="none" stroke="black" points="219,-277 219,-299 302,-299 302,-277 219,-277"/>
<text text-anchor="start" x="222" y="-285.2" font-family="Helvetica,sans-Serif" font-size="11.00">numeric[10]</text>
<polygon fill="#ffffff" stroke="transparent" points="10,-255 10,-277 219,-277 219,-255 10,-255"/>
<polygon fill="none" stroke="black" points="10,-255 10,-277 219,-277 219,-255 10,-255"/>
<text text-anchor="start" x="30" y="-263.2" font-family="Helvetica,sans-Serif" font-size="11.00">cof_motivoparalisacao_uu</text>
<polygon fill="none" stroke="black" points="219,-255 219,-277 302,-277 302,-255 219,-255"/>
<text text-anchor="start" x="222" y="-263.2" font-family="Helvetica,sans-Serif" font-size="11.00">varchar[36]</text>
<polygon fill="none" stroke="black" points="10,-233 10,-255 219,-255 219,-233 10,-233"/>
<text text-anchor="start" x="30" y="-241.2" font-family="Helvetica,sans-Serif" font-size="11.00">ad_client_id</text>
<polygon fill="none" stroke="black" points="219,-233 219,-255 302,-255 302,-233 219,-233"/>
<text text-anchor="start" x="222" y="-241.2" font-family="Helvetica,sans-Serif" font-size="11.00">numeric[10]</text>
<polygon fill="none" stroke="black" points="10,-211 10,-233 219,-233 219,-211 10,-211"/>
<text text-anchor="start" x="30" y="-219.2" font-family="Helvetica,sans-Serif" font-size="11.00">ad_org_id</text>
<polygon fill="none" stroke="black" points="219,-211 219,-233 302,-233 302,-211 219,-211"/>
<text text-anchor="start" x="222" y="-219.2" font-family="Helvetica,sans-Serif" font-size="11.00">numeric[10]</text>
<polygon fill="none" stroke="black" points="10,-189 10,-211 219,-211 219,-189 10,-189"/>
<text text-anchor="start" x="30" y="-197.2" font-family="Helvetica,sans-Serif" font-size="11.00">isactive</text>
<polygon fill="none" stroke="black" points="219,-189 219,-211 302,-211 302,-189 219,-189"/>
<text text-anchor="start" x="222" y="-197.2" font-family="Helvetica,sans-Serif" font-size="11.00">bpchar[1]</text>
<polygon fill="none" stroke="black" points="10,-167 10,-189 219,-189 219,-167 10,-167"/>
<text text-anchor="start" x="30" y="-175.2" font-family="Helvetica,sans-Serif" font-size="11.00">created</text>
<polygon fill="none" stroke="black" points="219,-167 219,-189 302,-189 302,-167 219,-167"/>
<text text-anchor="start" x="222" y="-175.2" font-family="Helvetica,sans-Serif" font-size="11.00">timestamp[29,6]</text>
<polygon fill="none" stroke="black" points="10,-145 10,-167 219,-167 219,-145 10,-145"/>
<text text-anchor="start" x="30" y="-153.2" font-family="Helvetica,sans-Serif" font-size="11.00">createdby</text>
<polygon fill="none" stroke="black" points="219,-145 219,-167 302,-167 302,-145 219,-145"/>
<text text-anchor="start" x="222" y="-153.2" font-family="Helvetica,sans-Serif" font-size="11.00">numeric[10]</text>
<polygon fill="none" stroke="black" points="10,-123 10,-145 219,-145 219,-123 10,-123"/>
<text text-anchor="start" x="30" y="-131.2" font-family="Helvetica,sans-Serif" font-size="11.00">updated</text>
<polygon fill="none" stroke="black" points="219,-123 219,-145 302,-145 302,-123 219,-123"/>
<text text-anchor="start" x="222" y="-131.2" font-family="Helvetica,sans-Serif" font-size="11.00">timestamp[29,6]</text>
<polygon fill="none" stroke="black" points="10,-101 10,-123 219,-123 219,-101 10,-101"/>
<text text-anchor="start" x="30" y="-109.2" font-family="Helvetica,sans-Serif" font-size="11.00">updatedby</text>
<polygon fill="none" stroke="black" points="219,-101 219,-123 302,-123 302,-101 219,-101"/>
<text text-anchor="start" x="222" y="-109.2" font-family="Helvetica,sans-Serif" font-size="11.00">numeric[10]</text>
<polygon fill="none" stroke="black" points="10,-79 10,-101 219,-101 219,-79 10,-79"/>
<text text-anchor="start" x="30" y="-87.2" font-family="Helvetica,sans-Serif" font-size="11.00">value</text>
<polygon fill="none" stroke="black" points="219,-79 219,-101 302,-101 302,-79 219,-79"/>
<text text-anchor="start" x="222" y="-87.2" font-family="Helvetica,sans-Serif" font-size="11.00">varchar[40]</text>
<polygon fill="none" stroke="black" points="10,-57 10,-79 219,-79 219,-57 10,-57"/>
<text text-anchor="start" x="30" y="-65.2" font-family="Helvetica,sans-Serif" font-size="11.00">description</text>
<polygon fill="none" stroke="black" points="219,-57 219,-79 302,-79 302,-57 219,-57"/>
<text text-anchor="start" x="222" y="-65.2" font-family="Helvetica,sans-Serif" font-size="11.00">varchar[255]</text>
<polygon fill="#ffffff" stroke="transparent" points="10,-39 10,-57 302,-57 302,-39 10,-39"/>
<polygon fill="none" stroke="black" points="10,-39 10,-57 302,-57 302,-39 10,-39"/>
<polygon fill="#ffffff" stroke="transparent" points="11,-40 11,-56 111,-56 111,-40 11,-40"/>
<text text-anchor="start" x="13" y="-45.2" font-family="Helvetica,sans-Serif" font-size="11.00">&lt; 0</text>
<polygon fill="#ffffff" stroke="transparent" points="111,-40 111,-56 202,-56 202,-40 111,-40"/>
<text text-anchor="start" x="153" y="-45.2" font-family="Helvetica,sans-Serif" font-size="11.00"> &#160;</text>
<polygon fill="#ffffff" stroke="transparent" points="202,-40 202,-56 301,-56 301,-40 202,-40"/>
<text text-anchor="start" x="283" y="-45.2" font-family="Helvetica,sans-Serif" font-size="11.00">1 &gt;</text>
<polygon fill="black" stroke="black" points="111,-40 111,-56 111,-56 111,-40 111,-40"/>
<polygon fill="black" stroke="black" points="202,-40 202,-56 202,-56 202,-40 202,-40"/>
<polygon fill="none" stroke="black" stroke-width="2" points="9,-38 9,-322 303,-322 303,-38 9,-38"/>
</a>
</g>
</g>
<!-- cof_ordemservico&#45;&gt;cof_motivoparalisacao -->
<g id="edge1" class="edge">
<title>cof_ordemservico:w&#45;&gt;cof_motivoparalisacao:e</title>
<path fill="none" stroke="black" d="M337.84,-288C326.41,-288 319.16,-288 303,-288"/>
<polygon fill="black" stroke="black" points="344.5,-288 352.5,-291.6 348.5,-288 352.5,-288 352.5,-288 352.5,-288 348.5,-288 352.5,-284.4 344.5,-288 344.5,-288"/>
<ellipse fill="none" stroke="black" cx="341.3" cy="-288" rx="3.2" ry="3.2"/>
</g>
</g>
</svg>
