<?xml version="1.0" encoding="UTF-8" standalone="no"?>
<!DOCTYPE svg PUBLIC "-//W3C//DTD SVG 1.1//EN"
 "http://www.w3.org/Graphics/SVG/1.1/DTD/svg11.dtd">
<!-- Generated by graphviz version 2.43.0 (0)
 -->
<!-- Title: oneDegreeRelationshipsDiagram Pages: 1 -->
<svg width="1107pt" height="721pt"
 viewBox="0.00 0.00 1107.00 721.00" xmlns="http://www.w3.org/2000/svg" xmlns:xlink="http://www.w3.org/1999/xlink">
<g id="graph0" class="graph" transform="scale(1 1) rotate(0) translate(4 717)">
<title>oneDegreeRelationshipsDiagram</title>
<polygon fill="#ffffff" stroke="transparent" points="-4,4 -4,-717 1103,-717 1103,4 -4,4"/>
<text text-anchor="middle" x="71.5" y="-7.2" font-family="Helvetica,sans-Serif" font-size="11.00">Generated by SchemaSpy</text>
<!-- ad_org -->
<g id="node1" class="node">
<title>ad_org</title>
<g id="a_node1"><a xlink:href="../../tables/ad_org.html" xlink:title="ad_org" target="_top">
<polygon fill="#ffffff" stroke="transparent" points="302,-367 302,-557 508,-557 508,-367 302,-367"/>
<polygon fill="#f5f5f5" stroke="transparent" points="302,-535 302,-557 508,-557 508,-535 302,-535"/>
<polygon fill="none" stroke="black" points="302,-535 302,-557 508,-557 508,-535 302,-535"/>
<text text-anchor="start" x="307" y="-544.2" font-family="Helvetica,sans-Serif" font-weight="bold" font-size="11.00">ad_org</text>
<text text-anchor="start" x="473" y="-543.2" font-family="Helvetica,sans-Serif" font-size="11.00">[table]</text>
<polygon fill="none" stroke="black" points="302,-513 302,-535 508,-535 508,-513 302,-513"/>
<image xlink:href="../../images/primaryKeys.png" width="11px" height="12px" preserveAspectRatio="xMinYMin meet" x="307" y="-530"/>
<text text-anchor="start" x="322" y="-521.2" font-family="Helvetica,sans-Serif" font-size="11.00">ad_org_id</text>
<polygon fill="#ffffff" stroke="transparent" points="302,-491 302,-513 508,-513 508,-491 302,-491"/>
<polygon fill="none" stroke="black" points="302,-491 302,-513 508,-513 508,-491 302,-491"/>
<image xlink:href="../../images/foreignKeys.png" width="11px" height="12px" preserveAspectRatio="xMinYMin meet" x="307" y="-508"/>
<text text-anchor="start" x="322" y="-499.2" font-family="Helvetica,sans-Serif" font-size="11.00">ad_client_id</text>
<polygon fill="#ffffff" stroke="transparent" points="302,-469 302,-491 508,-491 508,-469 302,-469"/>
<polygon fill="none" stroke="black" points="302,-469 302,-491 508,-491 508,-469 302,-469"/>
<text text-anchor="start" x="322" y="-477.2" font-family="Helvetica,sans-Serif" font-size="11.00">value</text>
<polygon fill="none" stroke="black" points="302,-447 302,-469 508,-469 508,-447 302,-447"/>
<image xlink:href="../../images/foreignKeys.png" width="11px" height="12px" preserveAspectRatio="xMinYMin meet" x="307" y="-464"/>
<text text-anchor="start" x="322" y="-455.2" font-family="Helvetica,sans-Serif" font-size="11.00">ad_replicationstrategy_id</text>
<polygon fill="#ffffff" stroke="transparent" points="302,-425 302,-447 508,-447 508,-425 302,-425"/>
<polygon fill="none" stroke="black" points="302,-425 302,-447 508,-447 508,-425 302,-425"/>
<text text-anchor="start" x="322" y="-433.2" font-family="Helvetica,sans-Serif" font-size="11.00">ad_org_uu</text>
<polygon fill="none" stroke="black" points="302,-403 302,-425 508,-425 508,-403 302,-403"/>
<image xlink:href="../../images/foreignKeys.png" width="11px" height="12px" preserveAspectRatio="xMinYMin meet" x="307" y="-420"/>
<text text-anchor="start" x="322" y="-411.2" font-family="Helvetica,sans-Serif" font-size="11.00">cof_c_snrange_id</text>
<polygon fill="none" stroke="black" points="302,-385 302,-403 508,-403 508,-385 302,-385"/>
<text text-anchor="start" x="305" y="-391.2" font-family="Helvetica,sans-Serif" font-size="11.00">...</text>
<polygon fill="#ffffff" stroke="transparent" points="302,-367 302,-385 508,-385 508,-367 302,-367"/>
<polygon fill="none" stroke="black" points="302,-367 302,-385 508,-385 508,-367 302,-367"/>
<polygon fill="#ffffff" stroke="transparent" points="303,-368 303,-384 362,-384 362,-368 303,-368"/>
<text text-anchor="start" x="305" y="-373.2" font-family="Helvetica,sans-Serif" font-size="11.00">&lt; 3</text>
<polygon fill="#ffffff" stroke="transparent" points="362,-368 362,-384 437,-384 437,-368 362,-368"/>
<text text-anchor="start" x="383" y="-373.2" font-family="Helvetica,sans-Serif" font-size="11.00">3 rows</text>
<polygon fill="#ffffff" stroke="transparent" points="437,-368 437,-384 507,-384 507,-368 437,-368"/>
<text text-anchor="start" x="477" y="-373.2" font-family="Helvetica,sans-Serif" font-size="11.00">285 &gt;</text>
<polygon fill="black" stroke="black" points="362,-368 362,-384 362,-384 362,-368 362,-368"/>
<polygon fill="black" stroke="black" points="437,-368 437,-384 437,-384 437,-368 437,-368"/>
</a>
</g>
</g>
<!-- ad_client -->
<g id="node2" class="node">
<title>ad_client</title>
<g id="a_node2"><a xlink:href="../../tables/ad_client.html" xlink:title="ad_client" target="_top">
<polygon fill="#ffffff" stroke="transparent" points="8,-402 8,-614 253,-614 253,-402 8,-402"/>
<polygon fill="#f5f5f5" stroke="transparent" points="8.5,-592 8.5,-614 253.5,-614 253.5,-592 8.5,-592"/>
<polygon fill="none" stroke="black" points="8.5,-592 8.5,-614 253.5,-614 253.5,-592 8.5,-592"/>
<text text-anchor="start" x="13.5" y="-601.2" font-family="Helvetica,sans-Serif" font-weight="bold" font-size="11.00">ad_client</text>
<text text-anchor="start" x="218.5" y="-600.2" font-family="Helvetica,sans-Serif" font-size="11.00">[table]</text>
<polygon fill="none" stroke="black" points="8.5,-570 8.5,-592 253.5,-592 253.5,-570 8.5,-570"/>
<image xlink:href="../../images/primaryKeys.png" width="11px" height="12px" preserveAspectRatio="xMinYMin meet" x="13.5" y="-587"/>
<text text-anchor="start" x="28.5" y="-578.2" font-family="Helvetica,sans-Serif" font-size="11.00">ad_client_id</text>
<polygon fill="#ffffff" stroke="transparent" points="8.5,-548 8.5,-570 253.5,-570 253.5,-548 8.5,-548"/>
<polygon fill="none" stroke="black" points="8.5,-548 8.5,-570 253.5,-570 253.5,-548 8.5,-548"/>
<text text-anchor="start" x="28.5" y="-556.2" font-family="Helvetica,sans-Serif" font-size="11.00">value</text>
<polygon fill="none" stroke="black" points="8.5,-526 8.5,-548 253.5,-548 253.5,-526 8.5,-526"/>
<image xlink:href="../../images/foreignKeys.png" width="11px" height="12px" preserveAspectRatio="xMinYMin meet" x="13.5" y="-543"/>
<text text-anchor="start" x="28.5" y="-534.2" font-family="Helvetica,sans-Serif" font-size="11.00">ad_language</text>
<polygon fill="none" stroke="black" points="8.5,-504 8.5,-526 253.5,-526 253.5,-504 8.5,-504"/>
<image xlink:href="../../images/foreignKeys.png" width="11px" height="12px" preserveAspectRatio="xMinYMin meet" x="13.5" y="-521"/>
<text text-anchor="start" x="28.5" y="-512.2" font-family="Helvetica,sans-Serif" font-size="11.00">ad_replicationstrategy_id</text>
<polygon fill="#ffffff" stroke="transparent" points="8.5,-482 8.5,-504 253.5,-504 253.5,-482 8.5,-482"/>
<polygon fill="none" stroke="black" points="8.5,-482 8.5,-504 253.5,-504 253.5,-482 8.5,-482"/>
<text text-anchor="start" x="28.5" y="-490.2" font-family="Helvetica,sans-Serif" font-size="11.00">ad_client_uu</text>
<polygon fill="none" stroke="black" points="8.5,-460 8.5,-482 253.5,-482 253.5,-460 8.5,-460"/>
<image xlink:href="../../images/foreignKeys.png" width="11px" height="12px" preserveAspectRatio="xMinYMin meet" x="13.5" y="-477"/>
<text text-anchor="start" x="28.5" y="-468.2" font-family="Helvetica,sans-Serif" font-size="11.00">ad_passwordrule_id</text>
<polygon fill="#ffffff" stroke="transparent" points="8.5,-438 8.5,-460 253.5,-460 253.5,-438 8.5,-438"/>
<polygon fill="none" stroke="black" points="8.5,-438 8.5,-460 253.5,-460 253.5,-438 8.5,-438"/>
<text text-anchor="start" x="28.5" y="-446.2" font-family="Helvetica,sans-Serif" font-size="11.00">loginprefix</text>
<polygon fill="none" stroke="black" points="8.5,-420 8.5,-438 253.5,-438 253.5,-420 8.5,-420"/>
<text text-anchor="start" x="11.5" y="-426.2" font-family="Helvetica,sans-Serif" font-size="11.00">...</text>
<polygon fill="#ffffff" stroke="transparent" points="8.5,-402 8.5,-420 253.5,-420 253.5,-402 8.5,-402"/>
<polygon fill="none" stroke="black" points="8.5,-402 8.5,-420 253.5,-420 253.5,-402 8.5,-402"/>
<polygon fill="#ffffff" stroke="transparent" points="9.5,-403 9.5,-419 81.5,-419 81.5,-403 9.5,-403"/>
<text text-anchor="start" x="11.5" y="-408.2" font-family="Helvetica,sans-Serif" font-size="11.00">&lt; 3</text>
<polygon fill="#ffffff" stroke="transparent" points="81.5,-403 81.5,-419 169.5,-419 169.5,-403 81.5,-403"/>
<text text-anchor="start" x="109" y="-408.2" font-family="Helvetica,sans-Serif" font-size="11.00">2 rows</text>
<polygon fill="#ffffff" stroke="transparent" points="169.5,-403 169.5,-419 252.5,-419 252.5,-403 169.5,-403"/>
<text text-anchor="start" x="222.5" y="-408.2" font-family="Helvetica,sans-Serif" font-size="11.00">205 &gt;</text>
<polygon fill="black" stroke="black" points="81.5,-403 81.5,-419 81.5,-419 81.5,-403 81.5,-403"/>
<polygon fill="black" stroke="black" points="169.5,-403 169.5,-419 169.5,-419 169.5,-403 169.5,-403"/>
</a>
</g>
</g>
<!-- ad_org&#45;&gt;ad_client -->
<g id="edge1" class="edge">
<title>ad_org:w&#45;&gt;ad_client:e</title>
<path fill="none" stroke="black" d="M287.37,-506.71C268.98,-523.71 289.19,-581 254.5,-581"/>
<polygon fill="black" stroke="black" points="293.44,-504.61 302.17,-505.4 297.22,-503.31 301,-502 301,-502 301,-502 297.22,-503.31 299.83,-498.6 293.44,-504.61 293.44,-504.61"/>
<ellipse fill="none" stroke="black" cx="290.41" cy="-505.65" rx="3.2" ry="3.2"/>
</g>
<!-- ad_user -->
<g id="node3" class="node">
<title>ad_user</title>
<g id="a_node3"><a xlink:href="../../tables/ad_user.html" xlink:title="ad_user" target="_top">
<polygon fill="#ffffff" stroke="transparent" points="557,-37 557,-601 797,-601 797,-37 557,-37"/>
<polygon fill="#f5f5f5" stroke="transparent" points="557,-579 557,-601 797,-601 797,-579 557,-579"/>
<polygon fill="none" stroke="black" points="557,-579 557,-601 797,-601 797,-579 557,-579"/>
<text text-anchor="start" x="562" y="-588.2" font-family="Helvetica,sans-Serif" font-weight="bold" font-size="11.00">ad_user</text>
<text text-anchor="start" x="762" y="-587.2" font-family="Helvetica,sans-Serif" font-size="11.00">[table]</text>
<polygon fill="none" stroke="black" points="557,-557 557,-579 797,-579 797,-557 557,-557"/>
<image xlink:href="../../images/primaryKeys.png" width="11px" height="12px" preserveAspectRatio="xMinYMin meet" x="562" y="-574"/>
<text text-anchor="start" x="577" y="-565.2" font-family="Helvetica,sans-Serif" font-size="11.00">ad_user_id</text>
<polygon fill="none" stroke="black" points="557,-535 557,-557 797,-557 797,-535 557,-535"/>
<image xlink:href="../../images/foreignKeys.png" width="11px" height="12px" preserveAspectRatio="xMinYMin meet" x="562" y="-552"/>
<text text-anchor="start" x="577" y="-543.2" font-family="Helvetica,sans-Serif" font-size="11.00">ad_client_id</text>
<polygon fill="none" stroke="black" points="557,-513 557,-535 797,-535 797,-513 557,-513"/>
<image xlink:href="../../images/foreignKeys.png" width="11px" height="12px" preserveAspectRatio="xMinYMin meet" x="562" y="-530"/>
<text text-anchor="start" x="577" y="-521.2" font-family="Helvetica,sans-Serif" font-size="11.00">ad_org_id</text>
<polygon fill="#ffffff" stroke="transparent" points="557,-491 557,-513 797,-513 797,-491 557,-491"/>
<polygon fill="none" stroke="black" points="557,-491 557,-513 797,-513 797,-491 557,-491"/>
<text text-anchor="start" x="577" y="-499.2" font-family="Helvetica,sans-Serif" font-size="11.00">name</text>
<polygon fill="#ffffff" stroke="transparent" points="557,-469 557,-491 797,-491 797,-469 557,-469"/>
<polygon fill="none" stroke="black" points="557,-469 557,-491 797,-491 797,-469 557,-469"/>
<text text-anchor="start" x="577" y="-477.2" font-family="Helvetica,sans-Serif" font-size="11.00">email</text>
<polygon fill="none" stroke="black" points="557,-447 557,-469 797,-469 797,-447 557,-447"/>
<image xlink:href="../../images/foreignKeys.png" width="11px" height="12px" preserveAspectRatio="xMinYMin meet" x="562" y="-464"/>
<text text-anchor="start" x="577" y="-455.2" font-family="Helvetica,sans-Serif" font-size="11.00">supervisor_id</text>
<polygon fill="#ffffff" stroke="transparent" points="557,-425 557,-447 797,-447 797,-425 557,-425"/>
<polygon fill="none" stroke="black" points="557,-425 557,-447 797,-447 797,-425 557,-425"/>
<image xlink:href="../../images/foreignKeys.png" width="11px" height="12px" preserveAspectRatio="xMinYMin meet" x="562" y="-442"/>
<text text-anchor="start" x="577" y="-433.2" font-family="Helvetica,sans-Serif" font-size="11.00">c_bpartner_id</text>
<polygon fill="none" stroke="black" points="557,-403 557,-425 797,-425 797,-403 557,-403"/>
<image xlink:href="../../images/foreignKeys.png" width="11px" height="12px" preserveAspectRatio="xMinYMin meet" x="562" y="-420"/>
<text text-anchor="start" x="577" y="-411.2" font-family="Helvetica,sans-Serif" font-size="11.00">c_bpartner_location_id</text>
<polygon fill="none" stroke="black" points="557,-381 557,-403 797,-403 797,-381 557,-381"/>
<image xlink:href="../../images/foreignKeys.png" width="11px" height="12px" preserveAspectRatio="xMinYMin meet" x="562" y="-398"/>
<text text-anchor="start" x="577" y="-389.2" font-family="Helvetica,sans-Serif" font-size="11.00">c_greeting_id</text>
<polygon fill="none" stroke="black" points="557,-359 557,-381 797,-381 797,-359 557,-359"/>
<image xlink:href="../../images/foreignKeys.png" width="11px" height="12px" preserveAspectRatio="xMinYMin meet" x="562" y="-376"/>
<text text-anchor="start" x="577" y="-367.2" font-family="Helvetica,sans-Serif" font-size="11.00">ad_orgtrx_id</text>
<polygon fill="none" stroke="black" points="557,-337 557,-359 797,-359 797,-337 557,-337"/>
<image xlink:href="../../images/foreignKeys.png" width="11px" height="12px" preserveAspectRatio="xMinYMin meet" x="562" y="-354"/>
<text text-anchor="start" x="577" y="-345.2" font-family="Helvetica,sans-Serif" font-size="11.00">c_job_id</text>
<polygon fill="#ffffff" stroke="transparent" points="557,-315 557,-337 797,-337 797,-315 557,-315"/>
<polygon fill="none" stroke="black" points="557,-315 557,-337 797,-337 797,-315 557,-315"/>
<text text-anchor="start" x="577" y="-323.2" font-family="Helvetica,sans-Serif" font-size="11.00">ad_user_uu</text>
<polygon fill="none" stroke="black" points="557,-293 557,-315 797,-315 797,-293 557,-293"/>
<image xlink:href="../../images/foreignKeys.png" width="11px" height="12px" preserveAspectRatio="xMinYMin meet" x="562" y="-310"/>
<text text-anchor="start" x="577" y="-301.2" font-family="Helvetica,sans-Serif" font-size="11.00">c_location_id</text>
<polygon fill="none" stroke="black" points="557,-271 557,-293 797,-293 797,-271 557,-271"/>
<image xlink:href="../../images/foreignKeys.png" width="11px" height="12px" preserveAspectRatio="xMinYMin meet" x="562" y="-288"/>
<text text-anchor="start" x="577" y="-279.2" font-family="Helvetica,sans-Serif" font-size="11.00">c_campaign_id</text>
<polygon fill="none" stroke="black" points="557,-249 557,-271 797,-271 797,-249 557,-249"/>
<image xlink:href="../../images/foreignKeys.png" width="11px" height="12px" preserveAspectRatio="xMinYMin meet" x="562" y="-266"/>
<text text-anchor="start" x="577" y="-257.2" font-family="Helvetica,sans-Serif" font-size="11.00">salesrep_id</text>
<polygon fill="none" stroke="black" points="557,-227 557,-249 797,-249 797,-227 557,-227"/>
<image xlink:href="../../images/foreignKeys.png" width="11px" height="12px" preserveAspectRatio="xMinYMin meet" x="562" y="-244"/>
<text text-anchor="start" x="577" y="-235.2" font-family="Helvetica,sans-Serif" font-size="11.00">bp_location_id</text>
<polygon fill="none" stroke="black" points="557,-205 557,-227 797,-227 797,-205 557,-205"/>
<image xlink:href="../../images/foreignKeys.png" width="11px" height="12px" preserveAspectRatio="xMinYMin meet" x="562" y="-222"/>
<text text-anchor="start" x="577" y="-213.2" font-family="Helvetica,sans-Serif" font-size="11.00">r_defaultmailtext_id</text>
<polygon fill="none" stroke="black" points="557,-183 557,-205 797,-205 797,-183 557,-183"/>
<image xlink:href="../../images/foreignKeys.png" width="11px" height="12px" preserveAspectRatio="xMinYMin meet" x="562" y="-200"/>
<text text-anchor="start" x="577" y="-191.2" font-family="Helvetica,sans-Serif" font-size="11.00">cof_c_marketsegment_id</text>
<polygon fill="none" stroke="black" points="557,-161 557,-183 797,-183 797,-161 557,-161"/>
<image xlink:href="../../images/foreignKeys.png" width="11px" height="12px" preserveAspectRatio="xMinYMin meet" x="562" y="-178"/>
<text text-anchor="start" x="577" y="-169.2" font-family="Helvetica,sans-Serif" font-size="11.00">cof_c_leadexpirationreason_id</text>
<polygon fill="none" stroke="black" points="557,-139 557,-161 797,-161 797,-139 557,-139"/>
<image xlink:href="../../images/foreignKeys.png" width="11px" height="12px" preserveAspectRatio="xMinYMin meet" x="562" y="-156"/>
<text text-anchor="start" x="577" y="-147.2" font-family="Helvetica,sans-Serif" font-size="11.00">ad_image_id</text>
<polygon fill="none" stroke="black" points="557,-117 557,-139 797,-139 797,-117 557,-117"/>
<image xlink:href="../../images/foreignKeys.png" width="11px" height="12px" preserveAspectRatio="xMinYMin meet" x="562" y="-134"/>
<text text-anchor="start" x="577" y="-125.2" font-family="Helvetica,sans-Serif" font-size="11.00">c_subscription_id</text>
<polygon fill="none" stroke="black" points="557,-95 557,-117 797,-117 797,-95 557,-95"/>
<image xlink:href="../../images/foreignKeys.png" width="11px" height="12px" preserveAspectRatio="xMinYMin meet" x="562" y="-112"/>
<text text-anchor="start" x="577" y="-103.2" font-family="Helvetica,sans-Serif" font-size="11.00">cof_responsavelindicacao_id</text>
<polygon fill="none" stroke="black" points="557,-73 557,-95 797,-95 797,-73 557,-73"/>
<image xlink:href="../../images/foreignKeys.png" width="11px" height="12px" preserveAspectRatio="xMinYMin meet" x="562" y="-90"/>
<text text-anchor="start" x="577" y="-81.2" font-family="Helvetica,sans-Serif" font-size="11.00">cof_respatribuicao_id</text>
<polygon fill="none" stroke="black" points="557,-55 557,-73 797,-73 797,-55 557,-55"/>
<text text-anchor="start" x="560" y="-61.2" font-family="Helvetica,sans-Serif" font-size="11.00">...</text>
<polygon fill="#ffffff" stroke="transparent" points="557,-37 557,-55 797,-55 797,-37 557,-37"/>
<polygon fill="none" stroke="black" points="557,-37 557,-55 797,-55 797,-37 557,-37"/>
<polygon fill="#ffffff" stroke="transparent" points="558,-38 558,-54 632,-54 632,-38 558,-38"/>
<text text-anchor="start" x="560" y="-43.2" font-family="Helvetica,sans-Serif" font-size="11.00">&lt; 19</text>
<polygon fill="#ffffff" stroke="transparent" points="632,-38 632,-54 717,-54 717,-38 632,-38"/>
<text text-anchor="start" x="658" y="-43.2" font-family="Helvetica,sans-Serif" font-size="11.00">8 rows</text>
<polygon fill="#ffffff" stroke="transparent" points="717,-38 717,-54 796,-54 796,-38 717,-38"/>
<text text-anchor="start" x="766" y="-43.2" font-family="Helvetica,sans-Serif" font-size="11.00">446 &gt;</text>
<polygon fill="black" stroke="black" points="632,-38 632,-54 632,-54 632,-38 632,-38"/>
<polygon fill="black" stroke="black" points="717,-38 717,-54 717,-54 717,-38 717,-38"/>
</a>
</g>
</g>
<!-- ad_user&#45;&gt;ad_org -->
<g id="edge3" class="edge">
<title>ad_user:w&#45;&gt;ad_org:e</title>
<path fill="none" stroke="black" d="M541.4,-524C530.93,-524 524.01,-524 509,-524"/>
<polygon fill="black" stroke="black" points="548,-524 556,-527.6 552,-524 556,-524 556,-524 556,-524 552,-524 556,-520.4 548,-524 548,-524"/>
<ellipse fill="none" stroke="black" cx="544.8" cy="-524" rx="3.2" ry="3.2"/>
</g>
<!-- ad_user&#45;&gt;ad_org -->
<g id="edge4" class="edge">
<title>ad_user:w&#45;&gt;ad_org:e</title>
<path fill="none" stroke="black" d="M541.86,-372.8C498.76,-393.68 574.83,-524 509,-524"/>
<polygon fill="black" stroke="black" points="548.15,-371.56 556.7,-373.53 552.08,-370.78 556,-370 556,-370 556,-370 552.08,-370.78 555.3,-366.47 548.15,-371.56 548.15,-371.56"/>
<ellipse fill="none" stroke="black" cx="545.01" cy="-372.18" rx="3.2" ry="3.2"/>
</g>
<!-- ad_user&#45;&gt;ad_client -->
<g id="edge2" class="edge">
<title>ad_user:w&#45;&gt;ad_client:e</title>
<path fill="none" stroke="black" d="M541.94,-549.81C533.8,-555.02 529.57,-564.15 516,-568 404.05,-599.74 370.87,-581 254.5,-581"/>
<polygon fill="black" stroke="black" points="548.28,-548.09 556.94,-549.47 552.14,-547.05 556,-546 556,-546 556,-546 552.14,-547.05 555.06,-542.53 548.28,-548.09 548.28,-548.09"/>
<ellipse fill="none" stroke="black" cx="545.19" cy="-548.93" rx="3.2" ry="3.2"/>
</g>
<!-- cof_terminalcfe -->
<g id="node4" class="node">
<title>cof_terminalcfe</title>
<g id="a_node4"><a xlink:href="../../tables/cof_terminalcfe.html" xlink:title="cof_terminalcfe" target="_top">
<polygon fill="#ffffff" stroke="transparent" points="846,-379 846,-709 1091,-709 1091,-379 846,-379"/>
<polygon fill="#f5f5f5" stroke="transparent" points="848.5,-685 848.5,-707 1089.5,-707 1089.5,-685 848.5,-685"/>
<polygon fill="none" stroke="black" points="848.5,-685 848.5,-707 1089.5,-707 1089.5,-685 848.5,-685"/>
<text text-anchor="start" x="853.5" y="-694.2" font-family="Helvetica,sans-Serif" font-weight="bold" font-size="11.00">cof_terminalcfe</text>
<text text-anchor="start" x="1054.5" y="-693.2" font-family="Helvetica,sans-Serif" font-size="11.00">[table]</text>
<polygon fill="none" stroke="black" points="848.5,-663 848.5,-685 1006.5,-685 1006.5,-663 848.5,-663"/>
<image xlink:href="../../images/foreignKeys.png" width="11px" height="12px" preserveAspectRatio="xMinYMin meet" x="853.5" y="-680"/>
<text text-anchor="start" x="868.5" y="-671.2" font-family="Helvetica,sans-Serif" font-size="11.00">ad_client_id</text>
<polygon fill="none" stroke="black" points="1006.5,-663 1006.5,-685 1089.5,-685 1089.5,-663 1006.5,-663"/>
<text text-anchor="start" x="1009.5" y="-671.2" font-family="Helvetica,sans-Serif" font-size="11.00">numeric[10]</text>
<polygon fill="none" stroke="black" points="848.5,-641 848.5,-663 1006.5,-663 1006.5,-641 848.5,-641"/>
<image xlink:href="../../images/foreignKeys.png" width="11px" height="12px" preserveAspectRatio="xMinYMin meet" x="853.5" y="-658"/>
<text text-anchor="start" x="868.5" y="-649.2" font-family="Helvetica,sans-Serif" font-size="11.00">ad_org_id</text>
<polygon fill="none" stroke="black" points="1006.5,-641 1006.5,-663 1089.5,-663 1089.5,-641 1006.5,-641"/>
<text text-anchor="start" x="1009.5" y="-649.2" font-family="Helvetica,sans-Serif" font-size="11.00">numeric[10]</text>
<polygon fill="none" stroke="black" points="848.5,-619 848.5,-641 1006.5,-641 1006.5,-619 848.5,-619"/>
<image xlink:href="../../images/primaryKeys.png" width="11px" height="12px" preserveAspectRatio="xMinYMin meet" x="853.5" y="-636"/>
<text text-anchor="start" x="868.5" y="-627.2" font-family="Helvetica,sans-Serif" font-size="11.00">cof_terminalcfe_id</text>
<polygon fill="none" stroke="black" points="1006.5,-619 1006.5,-641 1089.5,-641 1089.5,-619 1006.5,-619"/>
<text text-anchor="start" x="1009.5" y="-627.2" font-family="Helvetica,sans-Serif" font-size="11.00">numeric[10]</text>
<polygon fill="#ffffff" stroke="transparent" points="848.5,-597 848.5,-619 1006.5,-619 1006.5,-597 848.5,-597"/>
<polygon fill="none" stroke="black" points="848.5,-597 848.5,-619 1006.5,-619 1006.5,-597 848.5,-597"/>
<text text-anchor="start" x="868.5" y="-605.2" font-family="Helvetica,sans-Serif" font-size="11.00">cof_terminalcfe_uu</text>
<polygon fill="none" stroke="black" points="1006.5,-597 1006.5,-619 1089.5,-619 1089.5,-597 1006.5,-597"/>
<text text-anchor="start" x="1009.5" y="-605.2" font-family="Helvetica,sans-Serif" font-size="11.00">varchar[36]</text>
<polygon fill="none" stroke="black" points="848.5,-575 848.5,-597 1006.5,-597 1006.5,-575 848.5,-575"/>
<text text-anchor="start" x="868.5" y="-583.2" font-family="Helvetica,sans-Serif" font-size="11.00">created</text>
<polygon fill="none" stroke="black" points="1006.5,-575 1006.5,-597 1089.5,-597 1089.5,-575 1006.5,-575"/>
<text text-anchor="start" x="1009.5" y="-583.2" font-family="Helvetica,sans-Serif" font-size="11.00">timestamp[29,6]</text>
<polygon fill="none" stroke="black" points="848.5,-553 848.5,-575 1006.5,-575 1006.5,-553 848.5,-553"/>
<image xlink:href="../../images/foreignKeys.png" width="11px" height="12px" preserveAspectRatio="xMinYMin meet" x="853.5" y="-570"/>
<text text-anchor="start" x="868.5" y="-561.2" font-family="Helvetica,sans-Serif" font-size="11.00">createdby</text>
<polygon fill="none" stroke="black" points="1006.5,-553 1006.5,-575 1089.5,-575 1089.5,-553 1006.5,-553"/>
<text text-anchor="start" x="1009.5" y="-561.2" font-family="Helvetica,sans-Serif" font-size="11.00">numeric[10]</text>
<polygon fill="none" stroke="black" points="848.5,-531 848.5,-553 1006.5,-553 1006.5,-531 848.5,-531"/>
<text text-anchor="start" x="868.5" y="-539.2" font-family="Helvetica,sans-Serif" font-size="11.00">isactive</text>
<polygon fill="none" stroke="black" points="1006.5,-531 1006.5,-553 1089.5,-553 1089.5,-531 1006.5,-531"/>
<text text-anchor="start" x="1009.5" y="-539.2" font-family="Helvetica,sans-Serif" font-size="11.00">bpchar[1]</text>
<polygon fill="none" stroke="black" points="848.5,-509 848.5,-531 1006.5,-531 1006.5,-509 848.5,-509"/>
<text text-anchor="start" x="868.5" y="-517.2" font-family="Helvetica,sans-Serif" font-size="11.00">name</text>
<polygon fill="none" stroke="black" points="1006.5,-509 1006.5,-531 1089.5,-531 1089.5,-509 1006.5,-509"/>
<text text-anchor="start" x="1009.5" y="-517.2" font-family="Helvetica,sans-Serif" font-size="11.00">varchar[60]</text>
<polygon fill="none" stroke="black" points="848.5,-487 848.5,-509 1006.5,-509 1006.5,-487 848.5,-487"/>
<text text-anchor="start" x="868.5" y="-495.2" font-family="Helvetica,sans-Serif" font-size="11.00">url</text>
<polygon fill="none" stroke="black" points="1006.5,-487 1006.5,-509 1089.5,-509 1089.5,-487 1006.5,-487"/>
<text text-anchor="start" x="1009.5" y="-495.2" font-family="Helvetica,sans-Serif" font-size="11.00">varchar[120]</text>
<polygon fill="none" stroke="black" points="848.5,-465 848.5,-487 1006.5,-487 1006.5,-465 848.5,-465"/>
<text text-anchor="start" x="868.5" y="-473.2" font-family="Helvetica,sans-Serif" font-size="11.00">updated</text>
<polygon fill="none" stroke="black" points="1006.5,-465 1006.5,-487 1089.5,-487 1089.5,-465 1006.5,-465"/>
<text text-anchor="start" x="1009.5" y="-473.2" font-family="Helvetica,sans-Serif" font-size="11.00">timestamp[29,6]</text>
<polygon fill="none" stroke="black" points="848.5,-443 848.5,-465 1006.5,-465 1006.5,-443 848.5,-443"/>
<image xlink:href="../../images/foreignKeys.png" width="11px" height="12px" preserveAspectRatio="xMinYMin meet" x="853.5" y="-460"/>
<text text-anchor="start" x="868.5" y="-451.2" font-family="Helvetica,sans-Serif" font-size="11.00">updatedby</text>
<polygon fill="none" stroke="black" points="1006.5,-443 1006.5,-465 1089.5,-465 1089.5,-443 1006.5,-443"/>
<text text-anchor="start" x="1009.5" y="-451.2" font-family="Helvetica,sans-Serif" font-size="11.00">numeric[10]</text>
<polygon fill="none" stroke="black" points="848.5,-421 848.5,-443 1006.5,-443 1006.5,-421 848.5,-421"/>
<text text-anchor="start" x="868.5" y="-429.2" font-family="Helvetica,sans-Serif" font-size="11.00">value</text>
<polygon fill="none" stroke="black" points="1006.5,-421 1006.5,-443 1089.5,-443 1089.5,-421 1006.5,-421"/>
<text text-anchor="start" x="1009.5" y="-429.2" font-family="Helvetica,sans-Serif" font-size="11.00">varchar[40]</text>
<polygon fill="none" stroke="black" points="848.5,-399 848.5,-421 1006.5,-421 1006.5,-399 848.5,-399"/>
<text text-anchor="start" x="868.5" y="-407.2" font-family="Helvetica,sans-Serif" font-size="11.00">cof_signac</text>
<polygon fill="none" stroke="black" points="1006.5,-399 1006.5,-421 1089.5,-421 1089.5,-399 1006.5,-399"/>
<text text-anchor="start" x="1009.5" y="-407.2" font-family="Helvetica,sans-Serif" font-size="11.00">varchar[344]</text>
<polygon fill="#ffffff" stroke="transparent" points="848.5,-381 848.5,-399 1089.5,-399 1089.5,-381 848.5,-381"/>
<polygon fill="none" stroke="black" points="848.5,-381 848.5,-399 1089.5,-399 1089.5,-381 848.5,-381"/>
<polygon fill="#ffffff" stroke="transparent" points="849.5,-382 849.5,-398 932.5,-398 932.5,-382 849.5,-382"/>
<text text-anchor="start" x="851.5" y="-387.2" font-family="Helvetica,sans-Serif" font-size="11.00">&lt; 4</text>
<polygon fill="#ffffff" stroke="transparent" points="932.5,-382 932.5,-398 1006.5,-398 1006.5,-382 932.5,-382"/>
<text text-anchor="start" x="966" y="-387.2" font-family="Helvetica,sans-Serif" font-size="11.00"> &#160;</text>
<polygon fill="#ffffff" stroke="transparent" points="1006.5,-382 1006.5,-398 1088.5,-398 1088.5,-382 1006.5,-382"/>
<text text-anchor="start" x="1070.5" y="-387.2" font-family="Helvetica,sans-Serif" font-size="11.00">0 &gt;</text>
<polygon fill="black" stroke="black" points="932.5,-382 932.5,-398 932.5,-398 932.5,-382 932.5,-382"/>
<polygon fill="black" stroke="black" points="1006.5,-382 1006.5,-398 1006.5,-398 1006.5,-382 1006.5,-382"/>
<polygon fill="none" stroke="black" stroke-width="2" points="847,-380 847,-708 1090,-708 1090,-380 847,-380"/>
</a>
</g>
</g>
<!-- cof_terminalcfe&#45;&gt;ad_org -->
<g id="edge6" class="edge">
<title>cof_terminalcfe:w&#45;&gt;ad_org:e</title>
<path fill="none" stroke="black" d="M833.03,-651.49C771.24,-648.24 573.35,-630.08 549,-612 514.51,-586.39 551.96,-524 509,-524"/>
<polygon fill="black" stroke="black" points="839.51,-651.72 847.37,-655.6 843.5,-651.86 847.5,-652 847.5,-652 847.5,-652 843.5,-651.86 847.63,-648.4 839.51,-651.72 839.51,-651.72"/>
<ellipse fill="none" stroke="black" cx="836.31" cy="-651.6" rx="3.2" ry="3.2"/>
</g>
<!-- cof_terminalcfe&#45;&gt;ad_client -->
<g id="edge5" class="edge">
<title>cof_terminalcfe:w&#45;&gt;ad_client:e</title>
<path fill="none" stroke="black" d="M833.04,-673.95C711.39,-673 676.02,-659.92 549,-640 532.52,-637.41 271.19,-581 254.5,-581"/>
<polygon fill="black" stroke="black" points="839.5,-673.97 847.49,-677.6 843.5,-673.98 847.5,-674 847.5,-674 847.5,-674 843.5,-673.98 847.51,-670.4 839.5,-673.97 839.5,-673.97"/>
<ellipse fill="none" stroke="black" cx="836.3" cy="-673.96" rx="3.2" ry="3.2"/>
</g>
<!-- cof_terminalcfe&#45;&gt;ad_user -->
<g id="edge7" class="edge">
<title>cof_terminalcfe:w&#45;&gt;ad_user:e</title>
<path fill="none" stroke="black" d="M832.82,-564.7C821.4,-565.84 814.21,-568 798,-568"/>
<polygon fill="black" stroke="black" points="839.51,-564.38 847.67,-567.6 843.5,-564.19 847.5,-564 847.5,-564 847.5,-564 843.5,-564.19 847.33,-560.4 839.51,-564.38 839.51,-564.38"/>
<ellipse fill="none" stroke="black" cx="836.31" cy="-564.53" rx="3.2" ry="3.2"/>
</g>
<!-- cof_terminalcfe&#45;&gt;ad_user -->
<g id="edge8" class="edge">
<title>cof_terminalcfe:w&#45;&gt;ad_user:e</title>
<path fill="none" stroke="black" d="M833.24,-457.79C804.21,-477.57 847.2,-568 798,-568"/>
<polygon fill="black" stroke="black" points="839.77,-456.06 848.43,-457.48 843.63,-455.03 847.5,-454 847.5,-454 847.5,-454 843.63,-455.03 846.57,-450.52 839.77,-456.06 839.77,-456.06"/>
<ellipse fill="none" stroke="black" cx="836.68" cy="-456.88" rx="3.2" ry="3.2"/>
</g>
</g>
</svg>
