<?xml version="1.0" encoding="UTF-8" standalone="no"?>
<!DOCTYPE svg PUBLIC "-//W3C//DTD SVG 1.1//EN"
 "http://www.w3.org/Graphics/SVG/1.1/DTD/svg11.dtd">
<!-- Generated by graphviz version 2.43.0 (0)
 -->
<!-- Title: oneDegreeRelationshipsDiagram Pages: 1 -->
<svg width="339pt" height="801pt"
 viewBox="0.00 0.00 339.00 801.00" xmlns="http://www.w3.org/2000/svg" xmlns:xlink="http://www.w3.org/1999/xlink">
<g id="graph0" class="graph" transform="scale(1 1) rotate(0) translate(4 797)">
<title>oneDegreeRelationshipsDiagram</title>
<polygon fill="#ffffff" stroke="transparent" points="-4,4 -4,-797 335,-797 335,4 -4,4"/>
<text text-anchor="middle" x="71.5" y="-7.2" font-family="Helvetica,sans-Serif" font-size="11.00">Generated by SchemaSpy</text>
<!-- cof_rv_gencnab -->
<g id="node1" class="node">
<title>cof_rv_gencnab</title>
<g id="a_node1"><a xlink:href="../../tables/cof_rv_gencnab.html" xlink:title="cof_rv_gencnab" target="_top">
<polygon fill="#ffffff" stroke="transparent" points="8,-37 8,-789 323,-789 323,-37 8,-37"/>
<polygon fill="#f5f5f5" stroke="transparent" points="10.5,-765 10.5,-787 321.5,-787 321.5,-765 10.5,-765"/>
<polygon fill="none" stroke="black" points="10.5,-765 10.5,-787 321.5,-787 321.5,-765 10.5,-765"/>
<text text-anchor="start" x="15.5" y="-774.2" font-family="Helvetica,sans-Serif" font-weight="bold" font-size="11.00">cof_rv_gencnab</text>
<text text-anchor="start" x="288.5" y="-773.2" font-family="Helvetica,sans-Serif" font-size="11.00">[view]</text>
<polygon fill="none" stroke="black" points="10.5,-743 10.5,-765 212.5,-765 212.5,-743 10.5,-743"/>
<text text-anchor="start" x="30.5" y="-751.2" font-family="Helvetica,sans-Serif" font-size="11.00">documentid</text>
<polygon fill="none" stroke="black" points="212.5,-743 212.5,-765 321.5,-765 321.5,-743 212.5,-743"/>
<text text-anchor="start" x="215.5" y="-751.2" font-family="Helvetica,sans-Serif" font-size="11.00">numeric[10]</text>
<polygon fill="none" stroke="black" points="10.5,-721 10.5,-743 212.5,-743 212.5,-721 10.5,-721"/>
<text text-anchor="start" x="30.5" y="-729.2" font-family="Helvetica,sans-Serif" font-size="11.00">c_bpartner_id</text>
<polygon fill="none" stroke="black" points="212.5,-721 212.5,-743 321.5,-743 321.5,-721 212.5,-721"/>
<text text-anchor="start" x="215.5" y="-729.2" font-family="Helvetica,sans-Serif" font-size="11.00">numeric[10]</text>
<polygon fill="none" stroke="black" points="10.5,-699 10.5,-721 212.5,-721 212.5,-699 10.5,-699"/>
<text text-anchor="start" x="30.5" y="-707.2" font-family="Helvetica,sans-Serif" font-size="11.00">documentno</text>
<polygon fill="none" stroke="black" points="212.5,-699 212.5,-721 321.5,-721 321.5,-699 212.5,-699"/>
<text text-anchor="start" x="215.5" y="-707.2" font-family="Helvetica,sans-Serif" font-size="11.00">varchar[30]</text>
<polygon fill="none" stroke="black" points="10.5,-677 10.5,-699 212.5,-699 212.5,-677 10.5,-677"/>
<text text-anchor="start" x="30.5" y="-685.2" font-family="Helvetica,sans-Serif" font-size="11.00">ide_nnf</text>
<polygon fill="none" stroke="black" points="212.5,-677 212.5,-699 321.5,-699 321.5,-677 212.5,-677"/>
<text text-anchor="start" x="215.5" y="-685.2" font-family="Helvetica,sans-Serif" font-size="11.00">numeric[0]</text>
<polygon fill="none" stroke="black" points="10.5,-655 10.5,-677 212.5,-677 212.5,-655 10.5,-655"/>
<text text-anchor="start" x="30.5" y="-663.2" font-family="Helvetica,sans-Serif" font-size="11.00">lbr_docfiscal_id</text>
<polygon fill="none" stroke="black" points="212.5,-655 212.5,-677 321.5,-677 321.5,-655 212.5,-655"/>
<text text-anchor="start" x="215.5" y="-663.2" font-family="Helvetica,sans-Serif" font-size="11.00">numeric[0]</text>
<polygon fill="none" stroke="black" points="10.5,-633 10.5,-655 212.5,-655 212.5,-633 10.5,-633"/>
<text text-anchor="start" x="30.5" y="-641.2" font-family="Helvetica,sans-Serif" font-size="11.00">cof_payscheduleno</text>
<polygon fill="none" stroke="black" points="212.5,-633 212.5,-655 321.5,-655 321.5,-633 212.5,-633"/>
<text text-anchor="start" x="215.5" y="-641.2" font-family="Helvetica,sans-Serif" font-size="11.00">varchar[2147483647]</text>
<polygon fill="none" stroke="black" points="10.5,-611 10.5,-633 212.5,-633 212.5,-611 10.5,-611"/>
<text text-anchor="start" x="30.5" y="-619.2" font-family="Helvetica,sans-Serif" font-size="11.00">c_invoicepayschedule_id</text>
<polygon fill="none" stroke="black" points="212.5,-611 212.5,-633 321.5,-633 321.5,-611 212.5,-611"/>
<text text-anchor="start" x="215.5" y="-619.2" font-family="Helvetica,sans-Serif" font-size="11.00">numeric[0]</text>
<polygon fill="none" stroke="black" points="10.5,-589 10.5,-611 212.5,-611 212.5,-589 10.5,-589"/>
<text text-anchor="start" x="30.5" y="-597.2" font-family="Helvetica,sans-Serif" font-size="11.00">cof_titulo_nossonumero</text>
<polygon fill="none" stroke="black" points="212.5,-589 212.5,-611 321.5,-611 321.5,-589 212.5,-589"/>
<text text-anchor="start" x="215.5" y="-597.2" font-family="Helvetica,sans-Serif" font-size="11.00">varchar[22]</text>
<polygon fill="none" stroke="black" points="10.5,-567 10.5,-589 212.5,-589 212.5,-567 10.5,-567"/>
<text text-anchor="start" x="30.5" y="-575.2" font-family="Helvetica,sans-Serif" font-size="11.00">date1</text>
<polygon fill="none" stroke="black" points="212.5,-567 212.5,-589 321.5,-589 321.5,-567 212.5,-567"/>
<text text-anchor="start" x="215.5" y="-575.2" font-family="Helvetica,sans-Serif" font-size="11.00">timestamp[29,6]</text>
<polygon fill="none" stroke="black" points="10.5,-545 10.5,-567 212.5,-567 212.5,-545 10.5,-545"/>
<text text-anchor="start" x="30.5" y="-553.2" font-family="Helvetica,sans-Serif" font-size="11.00">date2</text>
<polygon fill="none" stroke="black" points="212.5,-545 212.5,-567 321.5,-567 321.5,-545 212.5,-545"/>
<text text-anchor="start" x="215.5" y="-553.2" font-family="Helvetica,sans-Serif" font-size="11.00">timestamptz[35,6]</text>
<polygon fill="none" stroke="black" points="10.5,-523 10.5,-545 212.5,-545 212.5,-523 10.5,-523"/>
<text text-anchor="start" x="30.5" y="-531.2" font-family="Helvetica,sans-Serif" font-size="11.00">c_paymentterm_id</text>
<polygon fill="none" stroke="black" points="212.5,-523 212.5,-545 321.5,-545 321.5,-523 212.5,-523"/>
<text text-anchor="start" x="215.5" y="-531.2" font-family="Helvetica,sans-Serif" font-size="11.00">numeric[10]</text>
<polygon fill="none" stroke="black" points="10.5,-501 10.5,-523 212.5,-523 212.5,-501 10.5,-501"/>
<text text-anchor="start" x="30.5" y="-509.2" font-family="Helvetica,sans-Serif" font-size="11.00">cof_occurrencename</text>
<polygon fill="none" stroke="black" points="212.5,-501 212.5,-523 321.5,-523 321.5,-501 212.5,-501"/>
<text text-anchor="start" x="215.5" y="-509.2" font-family="Helvetica,sans-Serif" font-size="11.00">varchar[60]</text>
<polygon fill="none" stroke="black" points="10.5,-479 10.5,-501 212.5,-501 212.5,-479 10.5,-479"/>
<text text-anchor="start" x="30.5" y="-487.2" font-family="Helvetica,sans-Serif" font-size="11.00">cof_c_bankoccurrence_id</text>
<polygon fill="none" stroke="black" points="212.5,-479 212.5,-501 321.5,-501 321.5,-479 212.5,-479"/>
<text text-anchor="start" x="215.5" y="-487.2" font-family="Helvetica,sans-Serif" font-size="11.00">numeric[10]</text>
<polygon fill="none" stroke="black" points="10.5,-457 10.5,-479 212.5,-479 212.5,-457 10.5,-457"/>
<text text-anchor="start" x="30.5" y="-465.2" font-family="Helvetica,sans-Serif" font-size="11.00">cof_c_bankintegration_id</text>
<polygon fill="none" stroke="black" points="212.5,-457 212.5,-479 321.5,-479 321.5,-457 212.5,-457"/>
<text text-anchor="start" x="215.5" y="-465.2" font-family="Helvetica,sans-Serif" font-size="11.00">numeric[10]</text>
<polygon fill="none" stroke="black" points="10.5,-435 10.5,-457 212.5,-457 212.5,-435 10.5,-435"/>
<text text-anchor="start" x="30.5" y="-443.2" font-family="Helvetica,sans-Serif" font-size="11.00">total</text>
<polygon fill="none" stroke="black" points="212.5,-435 212.5,-457 321.5,-457 321.5,-435 212.5,-435"/>
<text text-anchor="start" x="215.5" y="-443.2" font-family="Helvetica,sans-Serif" font-size="11.00">numeric[0]</text>
<polygon fill="none" stroke="black" points="10.5,-413 10.5,-435 212.5,-435 212.5,-413 10.5,-413"/>
<text text-anchor="start" x="30.5" y="-421.2" font-family="Helvetica,sans-Serif" font-size="11.00">c_doctypetarget_id</text>
<polygon fill="none" stroke="black" points="212.5,-413 212.5,-435 321.5,-435 321.5,-413 212.5,-413"/>
<text text-anchor="start" x="215.5" y="-421.2" font-family="Helvetica,sans-Serif" font-size="11.00">numeric[10]</text>
<polygon fill="none" stroke="black" points="10.5,-391 10.5,-413 212.5,-413 212.5,-391 10.5,-391"/>
<text text-anchor="start" x="30.5" y="-399.2" font-family="Helvetica,sans-Serif" font-size="11.00">cof_c_custody_id</text>
<polygon fill="none" stroke="black" points="212.5,-391 212.5,-413 321.5,-413 321.5,-391 212.5,-391"/>
<text text-anchor="start" x="215.5" y="-399.2" font-family="Helvetica,sans-Serif" font-size="11.00">numeric[10]</text>
<polygon fill="none" stroke="black" points="10.5,-369 10.5,-391 212.5,-391 212.5,-369 10.5,-369"/>
<text text-anchor="start" x="30.5" y="-377.2" font-family="Helvetica,sans-Serif" font-size="11.00">issotrx</text>
<polygon fill="none" stroke="black" points="212.5,-369 212.5,-391 321.5,-391 321.5,-369 212.5,-369"/>
<text text-anchor="start" x="215.5" y="-377.2" font-family="Helvetica,sans-Serif" font-size="11.00">bpchar[1]</text>
<polygon fill="none" stroke="black" points="10.5,-347 10.5,-369 212.5,-369 212.5,-347 10.5,-347"/>
<text text-anchor="start" x="30.5" y="-355.2" font-family="Helvetica,sans-Serif" font-size="11.00">ad_client_id</text>
<polygon fill="none" stroke="black" points="212.5,-347 212.5,-369 321.5,-369 321.5,-347 212.5,-347"/>
<text text-anchor="start" x="215.5" y="-355.2" font-family="Helvetica,sans-Serif" font-size="11.00">numeric[10]</text>
<polygon fill="none" stroke="black" points="10.5,-325 10.5,-347 212.5,-347 212.5,-325 10.5,-325"/>
<text text-anchor="start" x="30.5" y="-333.2" font-family="Helvetica,sans-Serif" font-size="11.00">ad_org_id</text>
<polygon fill="none" stroke="black" points="212.5,-325 212.5,-347 321.5,-347 321.5,-325 212.5,-325"/>
<text text-anchor="start" x="215.5" y="-333.2" font-family="Helvetica,sans-Serif" font-size="11.00">numeric[10]</text>
<polygon fill="none" stroke="black" points="10.5,-303 10.5,-325 212.5,-325 212.5,-303 10.5,-303"/>
<text text-anchor="start" x="30.5" y="-311.2" font-family="Helvetica,sans-Serif" font-size="11.00">cof_processed2</text>
<polygon fill="none" stroke="black" points="212.5,-303 212.5,-325 321.5,-325 321.5,-303 212.5,-303"/>
<text text-anchor="start" x="215.5" y="-311.2" font-family="Helvetica,sans-Serif" font-size="11.00">bpchar[1]</text>
<polygon fill="none" stroke="black" points="10.5,-281 10.5,-303 212.5,-303 212.5,-281 10.5,-281"/>
<text text-anchor="start" x="30.5" y="-289.2" font-family="Helvetica,sans-Serif" font-size="11.00">cof_borderoname</text>
<polygon fill="none" stroke="black" points="212.5,-281 212.5,-303 321.5,-303 321.5,-281 212.5,-281"/>
<text text-anchor="start" x="215.5" y="-289.2" font-family="Helvetica,sans-Serif" font-size="11.00">varchar[60]</text>
<polygon fill="none" stroke="black" points="10.5,-259 10.5,-281 212.5,-281 212.5,-259 10.5,-259"/>
<text text-anchor="start" x="30.5" y="-267.2" font-family="Helvetica,sans-Serif" font-size="11.00">cof_titulo_id</text>
<polygon fill="none" stroke="black" points="212.5,-259 212.5,-281 321.5,-281 321.5,-259 212.5,-259"/>
<text text-anchor="start" x="215.5" y="-267.2" font-family="Helvetica,sans-Serif" font-size="11.00">numeric[10]</text>
<polygon fill="none" stroke="black" points="10.5,-237 10.5,-259 212.5,-259 212.5,-237 10.5,-237"/>
<text text-anchor="start" x="30.5" y="-245.2" font-family="Helvetica,sans-Serif" font-size="11.00">lbr_nfestatus</text>
<polygon fill="none" stroke="black" points="212.5,-237 212.5,-259 321.5,-259 321.5,-237 212.5,-237"/>
<text text-anchor="start" x="215.5" y="-245.2" font-family="Helvetica,sans-Serif" font-size="11.00">varchar[2147483647]</text>
<polygon fill="none" stroke="black" points="10.5,-215 10.5,-237 212.5,-237 212.5,-215 10.5,-215"/>
<text text-anchor="start" x="30.5" y="-223.2" font-family="Helvetica,sans-Serif" font-size="11.00">docstatus</text>
<polygon fill="none" stroke="black" points="212.5,-215 212.5,-237 321.5,-237 321.5,-215 212.5,-215"/>
<text text-anchor="start" x="215.5" y="-223.2" font-family="Helvetica,sans-Serif" font-size="11.00">bpchar[2]</text>
<polygon fill="none" stroke="black" points="10.5,-193 10.5,-215 212.5,-215 212.5,-193 10.5,-193"/>
<text text-anchor="start" x="30.5" y="-201.2" font-family="Helvetica,sans-Serif" font-size="11.00">ispaid</text>
<polygon fill="none" stroke="black" points="212.5,-193 212.5,-215 321.5,-215 321.5,-193 212.5,-193"/>
<text text-anchor="start" x="215.5" y="-201.2" font-family="Helvetica,sans-Serif" font-size="11.00">bpchar[2147483647]</text>
<polygon fill="none" stroke="black" points="10.5,-171 10.5,-193 212.5,-193 212.5,-171 10.5,-171"/>
<text text-anchor="start" x="30.5" y="-179.2" font-family="Helvetica,sans-Serif" font-size="11.00">document</text>
<polygon fill="none" stroke="black" points="212.5,-171 212.5,-193 321.5,-193 321.5,-171 212.5,-171"/>
<text text-anchor="start" x="215.5" y="-179.2" font-family="Helvetica,sans-Serif" font-size="11.00">text[2147483647]</text>
<polygon fill="none" stroke="black" points="10.5,-149 10.5,-171 212.5,-171 212.5,-149 10.5,-149"/>
<text text-anchor="start" x="30.5" y="-157.2" font-family="Helvetica,sans-Serif" font-size="11.00">user1_id</text>
<polygon fill="none" stroke="black" points="212.5,-149 212.5,-171 321.5,-171 321.5,-149 212.5,-149"/>
<text text-anchor="start" x="215.5" y="-157.2" font-family="Helvetica,sans-Serif" font-size="11.00">numeric[10]</text>
<polygon fill="none" stroke="black" points="10.5,-127 10.5,-149 212.5,-149 212.5,-127 10.5,-127"/>
<text text-anchor="start" x="30.5" y="-135.2" font-family="Helvetica,sans-Serif" font-size="11.00">user2_id</text>
<polygon fill="none" stroke="black" points="212.5,-127 212.5,-149 321.5,-149 321.5,-127 212.5,-127"/>
<text text-anchor="start" x="215.5" y="-135.2" font-family="Helvetica,sans-Serif" font-size="11.00">numeric[10]</text>
<polygon fill="none" stroke="black" points="10.5,-105 10.5,-127 212.5,-127 212.5,-105 10.5,-105"/>
<text text-anchor="start" x="30.5" y="-113.2" font-family="Helvetica,sans-Serif" font-size="11.00">orgname</text>
<polygon fill="none" stroke="black" points="212.5,-105 212.5,-127 321.5,-127 321.5,-105 212.5,-105"/>
<text text-anchor="start" x="215.5" y="-113.2" font-family="Helvetica,sans-Serif" font-size="11.00">varchar[60]</text>
<polygon fill="none" stroke="black" points="10.5,-83 10.5,-105 212.5,-105 212.5,-83 10.5,-83"/>
<text text-anchor="start" x="30.5" y="-91.2" font-family="Helvetica,sans-Serif" font-size="11.00">bpname</text>
<polygon fill="none" stroke="black" points="212.5,-83 212.5,-105 321.5,-105 321.5,-83 212.5,-83"/>
<text text-anchor="start" x="215.5" y="-91.2" font-family="Helvetica,sans-Serif" font-size="11.00">varchar[120]</text>
<polygon fill="none" stroke="black" points="10.5,-61 10.5,-83 212.5,-83 212.5,-61 10.5,-61"/>
<text text-anchor="start" x="30.5" y="-69.2" font-family="Helvetica,sans-Serif" font-size="11.00">paymenttermname</text>
<polygon fill="none" stroke="black" points="212.5,-61 212.5,-83 321.5,-83 321.5,-61 212.5,-61"/>
<text text-anchor="start" x="215.5" y="-69.2" font-family="Helvetica,sans-Serif" font-size="11.00">varchar[60]</text>
<polygon fill="none" stroke="black" points="10.5,-39 10.5,-61 212.5,-61 212.5,-39 10.5,-39"/>
<text text-anchor="start" x="30.5" y="-47.2" font-family="Helvetica,sans-Serif" font-size="11.00">cof_isgeneratecnab</text>
<polygon fill="none" stroke="black" points="212.5,-39 212.5,-61 321.5,-61 321.5,-39 212.5,-39"/>
<text text-anchor="start" x="215.5" y="-47.2" font-family="Helvetica,sans-Serif" font-size="11.00">bpchar[1]</text>
<polygon fill="none" stroke="black" stroke-width="2" points="9,-38 9,-788 322,-788 322,-38 9,-38"/>
</a>
</g>
</g>
</g>
</svg>
