<?xml version="1.0" encoding="UTF-8" standalone="no"?>
<!DOCTYPE svg PUBLIC "-//W3C//DTD SVG 1.1//EN"
 "http://www.w3.org/Graphics/SVG/1.1/DTD/svg11.dtd">
<!-- Generated by graphviz version 2.43.0 (0)
 -->
<!-- Title: oneDegreeRelationshipsDiagram Pages: 1 -->
<svg width="631pt" height="465pt"
 viewBox="0.00 0.00 631.00 465.00" xmlns="http://www.w3.org/2000/svg" xmlns:xlink="http://www.w3.org/1999/xlink">
<g id="graph0" class="graph" transform="scale(1 1) rotate(0) translate(4 461)">
<title>oneDegreeRelationshipsDiagram</title>
<polygon fill="#ffffff" stroke="transparent" points="-4,4 -4,-461 627,-461 627,4 -4,4"/>
<text text-anchor="middle" x="71.5" y="-7.2" font-family="Helvetica,sans-Serif" font-size="11.00">Generated by SchemaSpy</text>
<!-- cof_ocorrenciaembdes -->
<g id="node1" class="node">
<title>cof_ocorrenciaembdes</title>
<g id="a_node1"><a xlink:href="../../tables/cof_ocorrenciaembdes.html" xlink:title="cof_ocorrenciaembdes" target="_top">
<polygon fill="#ffffff" stroke="transparent" points="382,-285 382,-453 615,-453 615,-285 382,-285"/>
<polygon fill="#f5f5f5" stroke="transparent" points="382.5,-431 382.5,-453 615.5,-453 615.5,-431 382.5,-431"/>
<polygon fill="none" stroke="black" points="382.5,-431 382.5,-453 615.5,-453 615.5,-431 382.5,-431"/>
<text text-anchor="start" x="387.5" y="-440.2" font-family="Helvetica,sans-Serif" font-weight="bold" font-size="11.00">cof_ocorrenciaembdes</text>
<text text-anchor="start" x="580.5" y="-439.2" font-family="Helvetica,sans-Serif" font-size="11.00">[table]</text>
<polygon fill="none" stroke="black" points="382.5,-409 382.5,-431 615.5,-431 615.5,-409 382.5,-409"/>
<image xlink:href="../../images/primaryKeys.png" width="11px" height="12px" preserveAspectRatio="xMinYMin meet" x="387.5" y="-426"/>
<text text-anchor="start" x="402.5" y="-417.2" font-family="Helvetica,sans-Serif" font-size="11.00">cof_ocorrenciaembdes_id</text>
<polygon fill="#ffffff" stroke="transparent" points="382.5,-387 382.5,-409 615.5,-409 615.5,-387 382.5,-387"/>
<polygon fill="none" stroke="black" points="382.5,-387 382.5,-409 615.5,-409 615.5,-387 382.5,-387"/>
<text text-anchor="start" x="402.5" y="-395.2" font-family="Helvetica,sans-Serif" font-size="11.00">cof_ocorrenciaembdes_uu</text>
<polygon fill="none" stroke="black" points="382.5,-365 382.5,-387 615.5,-387 615.5,-365 382.5,-365"/>
<image xlink:href="../../images/foreignKeys.png" width="11px" height="12px" preserveAspectRatio="xMinYMin meet" x="387.5" y="-382"/>
<text text-anchor="start" x="402.5" y="-373.2" font-family="Helvetica,sans-Serif" font-size="11.00">cof_tipoocorrenciaembdes_id</text>
<polygon fill="none" stroke="black" points="382.5,-343 382.5,-365 615.5,-365 615.5,-343 382.5,-343"/>
<image xlink:href="../../images/foreignKeys.png" width="11px" height="12px" preserveAspectRatio="xMinYMin meet" x="387.5" y="-360"/>
<text text-anchor="start" x="402.5" y="-351.2" font-family="Helvetica,sans-Serif" font-size="11.00">cof_solucionadopor_id</text>
<polygon fill="none" stroke="black" points="382.5,-321 382.5,-343 615.5,-343 615.5,-321 382.5,-321"/>
<image xlink:href="../../images/foreignKeys.png" width="11px" height="12px" preserveAspectRatio="xMinYMin meet" x="387.5" y="-338"/>
<text text-anchor="start" x="402.5" y="-329.2" font-family="Helvetica,sans-Serif" font-size="11.00">cof_packinglist_id</text>
<polygon fill="none" stroke="black" points="382.5,-303 382.5,-321 615.5,-321 615.5,-303 382.5,-303"/>
<text text-anchor="start" x="385.5" y="-309.2" font-family="Helvetica,sans-Serif" font-size="11.00">...</text>
<polygon fill="#ffffff" stroke="transparent" points="382.5,-285 382.5,-303 615.5,-303 615.5,-285 382.5,-285"/>
<polygon fill="none" stroke="black" points="382.5,-285 382.5,-303 615.5,-303 615.5,-285 382.5,-285"/>
<polygon fill="#ffffff" stroke="transparent" points="383.5,-286 383.5,-302 466.5,-302 466.5,-286 383.5,-286"/>
<text text-anchor="start" x="385.5" y="-291.2" font-family="Helvetica,sans-Serif" font-size="11.00">&lt; 3</text>
<polygon fill="#ffffff" stroke="transparent" points="466.5,-286 466.5,-302 540.5,-302 540.5,-286 466.5,-286"/>
<text text-anchor="start" x="500" y="-291.2" font-family="Helvetica,sans-Serif" font-size="11.00"> &#160;</text>
<polygon fill="#ffffff" stroke="transparent" points="540.5,-286 540.5,-302 614.5,-302 614.5,-286 540.5,-286"/>
<text text-anchor="start" x="605.5" y="-291.2" font-family="Helvetica,sans-Serif" font-size="11.00"> &#160;</text>
<polygon fill="black" stroke="black" points="466.5,-286 466.5,-302 466.5,-302 466.5,-286 466.5,-286"/>
<polygon fill="black" stroke="black" points="540.5,-286 540.5,-302 540.5,-302 540.5,-286 540.5,-286"/>
</a>
</g>
</g>
<!-- cof_tipoocorrenciaembdes -->
<g id="node2" class="node">
<title>cof_tipoocorrenciaembdes</title>
<g id="a_node2"><a xlink:href="../../tables/cof_tipoocorrenciaembdes.html" xlink:title="cof_tipoocorrenciaembdes" target="_top">
<polygon fill="#ffffff" stroke="transparent" points="8,-37 8,-411 333,-411 333,-37 8,-37"/>
<polygon fill="#f5f5f5" stroke="transparent" points="10.5,-387 10.5,-409 331.5,-409 331.5,-387 10.5,-387"/>
<polygon fill="none" stroke="black" points="10.5,-387 10.5,-409 331.5,-409 331.5,-387 10.5,-387"/>
<text text-anchor="start" x="15.5" y="-396.2" font-family="Helvetica,sans-Serif" font-weight="bold" font-size="11.00">cof_tipoocorrenciaembdes</text>
<text text-anchor="start" x="296.5" y="-395.2" font-family="Helvetica,sans-Serif" font-size="11.00">[table]</text>
<polygon fill="none" stroke="black" points="10.5,-365 10.5,-387 248.5,-387 248.5,-365 10.5,-365"/>
<image xlink:href="../../images/primaryKeys.png" width="11px" height="12px" preserveAspectRatio="xMinYMin meet" x="15.5" y="-382"/>
<text text-anchor="start" x="30.5" y="-373.2" font-family="Helvetica,sans-Serif" font-size="11.00">cof_tipoocorrenciaembdes_id</text>
<polygon fill="none" stroke="black" points="248.5,-365 248.5,-387 331.5,-387 331.5,-365 248.5,-365"/>
<text text-anchor="start" x="251.5" y="-373.2" font-family="Helvetica,sans-Serif" font-size="11.00">numeric[10]</text>
<polygon fill="#ffffff" stroke="transparent" points="10.5,-343 10.5,-365 248.5,-365 248.5,-343 10.5,-343"/>
<polygon fill="none" stroke="black" points="10.5,-343 10.5,-365 248.5,-365 248.5,-343 10.5,-343"/>
<text text-anchor="start" x="30.5" y="-351.2" font-family="Helvetica,sans-Serif" font-size="11.00">cof_tipoocorrenciaembdes_uu</text>
<polygon fill="none" stroke="black" points="248.5,-343 248.5,-365 331.5,-365 331.5,-343 248.5,-343"/>
<text text-anchor="start" x="251.5" y="-351.2" font-family="Helvetica,sans-Serif" font-size="11.00">varchar[36]</text>
<polygon fill="none" stroke="black" points="10.5,-321 10.5,-343 248.5,-343 248.5,-321 10.5,-321"/>
<text text-anchor="start" x="30.5" y="-329.2" font-family="Helvetica,sans-Serif" font-size="11.00">ad_client_id</text>
<polygon fill="none" stroke="black" points="248.5,-321 248.5,-343 331.5,-343 331.5,-321 248.5,-321"/>
<text text-anchor="start" x="251.5" y="-329.2" font-family="Helvetica,sans-Serif" font-size="11.00">numeric[10]</text>
<polygon fill="none" stroke="black" points="10.5,-299 10.5,-321 248.5,-321 248.5,-299 10.5,-299"/>
<text text-anchor="start" x="30.5" y="-307.2" font-family="Helvetica,sans-Serif" font-size="11.00">ad_org_id</text>
<polygon fill="none" stroke="black" points="248.5,-299 248.5,-321 331.5,-321 331.5,-299 248.5,-299"/>
<text text-anchor="start" x="251.5" y="-307.2" font-family="Helvetica,sans-Serif" font-size="11.00">numeric[10]</text>
<polygon fill="none" stroke="black" points="10.5,-277 10.5,-299 248.5,-299 248.5,-277 10.5,-277"/>
<text text-anchor="start" x="30.5" y="-285.2" font-family="Helvetica,sans-Serif" font-size="11.00">isactive</text>
<polygon fill="none" stroke="black" points="248.5,-277 248.5,-299 331.5,-299 331.5,-277 248.5,-277"/>
<text text-anchor="start" x="251.5" y="-285.2" font-family="Helvetica,sans-Serif" font-size="11.00">bpchar[1]</text>
<polygon fill="none" stroke="black" points="10.5,-255 10.5,-277 248.5,-277 248.5,-255 10.5,-255"/>
<text text-anchor="start" x="30.5" y="-263.2" font-family="Helvetica,sans-Serif" font-size="11.00">created</text>
<polygon fill="none" stroke="black" points="248.5,-255 248.5,-277 331.5,-277 331.5,-255 248.5,-255"/>
<text text-anchor="start" x="251.5" y="-263.2" font-family="Helvetica,sans-Serif" font-size="11.00">timestamp[29,6]</text>
<polygon fill="none" stroke="black" points="10.5,-233 10.5,-255 248.5,-255 248.5,-233 10.5,-233"/>
<text text-anchor="start" x="30.5" y="-241.2" font-family="Helvetica,sans-Serif" font-size="11.00">createdby</text>
<polygon fill="none" stroke="black" points="248.5,-233 248.5,-255 331.5,-255 331.5,-233 248.5,-233"/>
<text text-anchor="start" x="251.5" y="-241.2" font-family="Helvetica,sans-Serif" font-size="11.00">numeric[10]</text>
<polygon fill="none" stroke="black" points="10.5,-211 10.5,-233 248.5,-233 248.5,-211 10.5,-211"/>
<text text-anchor="start" x="30.5" y="-219.2" font-family="Helvetica,sans-Serif" font-size="11.00">updated</text>
<polygon fill="none" stroke="black" points="248.5,-211 248.5,-233 331.5,-233 331.5,-211 248.5,-211"/>
<text text-anchor="start" x="251.5" y="-219.2" font-family="Helvetica,sans-Serif" font-size="11.00">timestamp[29,6]</text>
<polygon fill="none" stroke="black" points="10.5,-189 10.5,-211 248.5,-211 248.5,-189 10.5,-189"/>
<text text-anchor="start" x="30.5" y="-197.2" font-family="Helvetica,sans-Serif" font-size="11.00">updatedby</text>
<polygon fill="none" stroke="black" points="248.5,-189 248.5,-211 331.5,-211 331.5,-189 248.5,-189"/>
<text text-anchor="start" x="251.5" y="-197.2" font-family="Helvetica,sans-Serif" font-size="11.00">numeric[10]</text>
<polygon fill="none" stroke="black" points="10.5,-167 10.5,-189 248.5,-189 248.5,-167 10.5,-167"/>
<text text-anchor="start" x="30.5" y="-175.2" font-family="Helvetica,sans-Serif" font-size="11.00">value</text>
<polygon fill="none" stroke="black" points="248.5,-167 248.5,-189 331.5,-189 331.5,-167 248.5,-167"/>
<text text-anchor="start" x="251.5" y="-175.2" font-family="Helvetica,sans-Serif" font-size="11.00">varchar[40]</text>
<polygon fill="none" stroke="black" points="10.5,-145 10.5,-167 248.5,-167 248.5,-145 10.5,-145"/>
<text text-anchor="start" x="30.5" y="-153.2" font-family="Helvetica,sans-Serif" font-size="11.00">cof_situacaoembarque</text>
<polygon fill="none" stroke="black" points="248.5,-145 248.5,-167 331.5,-167 331.5,-145 248.5,-145"/>
<text text-anchor="start" x="251.5" y="-153.2" font-family="Helvetica,sans-Serif" font-size="11.00">varchar[2]</text>
<polygon fill="none" stroke="black" points="10.5,-123 10.5,-145 248.5,-145 248.5,-123 10.5,-123"/>
<text text-anchor="start" x="30.5" y="-131.2" font-family="Helvetica,sans-Serif" font-size="11.00">name</text>
<polygon fill="none" stroke="black" points="248.5,-123 248.5,-145 331.5,-145 331.5,-123 248.5,-123"/>
<text text-anchor="start" x="251.5" y="-131.2" font-family="Helvetica,sans-Serif" font-size="11.00">varchar[60]</text>
<polygon fill="none" stroke="black" points="10.5,-101 10.5,-123 248.5,-123 248.5,-101 10.5,-101"/>
<text text-anchor="start" x="30.5" y="-109.2" font-family="Helvetica,sans-Serif" font-size="11.00">description</text>
<polygon fill="none" stroke="black" points="248.5,-101 248.5,-123 331.5,-123 331.5,-101 248.5,-101"/>
<text text-anchor="start" x="251.5" y="-109.2" font-family="Helvetica,sans-Serif" font-size="11.00">varchar[255]</text>
<polygon fill="none" stroke="black" points="10.5,-79 10.5,-101 248.5,-101 248.5,-79 10.5,-79"/>
<text text-anchor="start" x="30.5" y="-87.2" font-family="Helvetica,sans-Serif" font-size="11.00">cof_nivelhierarquiaacima</text>
<polygon fill="none" stroke="black" points="248.5,-79 248.5,-101 331.5,-101 331.5,-79 248.5,-79"/>
<text text-anchor="start" x="251.5" y="-87.2" font-family="Helvetica,sans-Serif" font-size="11.00">numeric[0]</text>
<polygon fill="none" stroke="black" points="10.5,-57 10.5,-79 248.5,-79 248.5,-57 10.5,-57"/>
<text text-anchor="start" x="30.5" y="-65.2" font-family="Helvetica,sans-Serif" font-size="11.00">cof_ocorrenciasimples</text>
<polygon fill="none" stroke="black" points="248.5,-57 248.5,-79 331.5,-79 331.5,-57 248.5,-57"/>
<text text-anchor="start" x="251.5" y="-65.2" font-family="Helvetica,sans-Serif" font-size="11.00">bpchar[1]</text>
<polygon fill="#ffffff" stroke="transparent" points="10.5,-39 10.5,-57 331.5,-57 331.5,-39 10.5,-39"/>
<polygon fill="none" stroke="black" points="10.5,-39 10.5,-57 331.5,-57 331.5,-39 10.5,-39"/>
<polygon fill="#ffffff" stroke="transparent" points="11.5,-40 11.5,-56 121.5,-56 121.5,-40 11.5,-40"/>
<text text-anchor="start" x="13.5" y="-45.2" font-family="Helvetica,sans-Serif" font-size="11.00">&lt; 0</text>
<polygon fill="#ffffff" stroke="transparent" points="121.5,-40 121.5,-56 221.5,-56 221.5,-40 121.5,-40"/>
<text text-anchor="start" x="168" y="-45.2" font-family="Helvetica,sans-Serif" font-size="11.00"> &#160;</text>
<polygon fill="#ffffff" stroke="transparent" points="221.5,-40 221.5,-56 330.5,-56 330.5,-40 221.5,-40"/>
<text text-anchor="start" x="312.5" y="-45.2" font-family="Helvetica,sans-Serif" font-size="11.00">1 &gt;</text>
<polygon fill="black" stroke="black" points="121.5,-40 121.5,-56 121.5,-56 121.5,-40 121.5,-40"/>
<polygon fill="black" stroke="black" points="221.5,-40 221.5,-56 221.5,-56 221.5,-40 221.5,-40"/>
<polygon fill="none" stroke="black" stroke-width="2" points="9,-38 9,-410 332,-410 332,-38 9,-38"/>
</a>
</g>
</g>
<!-- cof_ocorrenciaembdes&#45;&gt;cof_tipoocorrenciaembdes -->
<g id="edge1" class="edge">
<title>cof_ocorrenciaembdes:w&#45;&gt;cof_tipoocorrenciaembdes:e</title>
<path fill="none" stroke="black" d="M366.99,-376C355.68,-376 348.49,-376 332.5,-376"/>
<polygon fill="black" stroke="black" points="373.5,-376 381.5,-379.6 377.5,-376 381.5,-376 381.5,-376 381.5,-376 377.5,-376 381.5,-372.4 373.5,-376 373.5,-376"/>
<ellipse fill="none" stroke="black" cx="370.3" cy="-376" rx="3.2" ry="3.2"/>
</g>
</g>
</svg>
