<?xml version="1.0" encoding="UTF-8" standalone="no"?>
<!DOCTYPE svg PUBLIC "-//W3C//DTD SVG 1.1//EN"
 "http://www.w3.org/Graphics/SVG/1.1/DTD/svg11.dtd">
<!-- Generated by graphviz version 2.43.0 (0)
 -->
<!-- Title: oneDegreeRelationshipsDiagram Pages: 1 -->
<svg width="822pt" height="560pt"
 viewBox="0.00 0.00 822.00 560.00" xmlns="http://www.w3.org/2000/svg" xmlns:xlink="http://www.w3.org/1999/xlink">
<g id="graph0" class="graph" transform="scale(1 1) rotate(0) translate(4 556)">
<title>oneDegreeRelationshipsDiagram</title>
<polygon fill="#ffffff" stroke="transparent" points="-4,4 -4,-556 818,-556 818,4 -4,4"/>
<text text-anchor="middle" x="71.5" y="-7.2" font-family="Helvetica,sans-Serif" font-size="11.00">Generated by SchemaSpy</text>
<!-- c_elementvalue -->
<g id="node1" class="node">
<title>c_elementvalue</title>
<g id="a_node1"><a xlink:href="../../tables/c_elementvalue.html" xlink:title="c_elementvalue" target="_top">
<polygon fill="#ffffff" stroke="transparent" points="201,-139 201,-417 425,-417 425,-139 201,-139"/>
<polygon fill="#f5f5f5" stroke="transparent" points="201,-395 201,-417 425,-417 425,-395 201,-395"/>
<polygon fill="none" stroke="black" points="201,-395 201,-417 425,-417 425,-395 201,-395"/>
<text text-anchor="start" x="206" y="-404.2" font-family="Helvetica,sans-Serif" font-weight="bold" font-size="11.00">c_elementvalue</text>
<text text-anchor="start" x="390" y="-403.2" font-family="Helvetica,sans-Serif" font-size="11.00">[table]</text>
<polygon fill="none" stroke="black" points="201,-373 201,-395 425,-395 425,-373 201,-373"/>
<image xlink:href="../../images/primaryKeys.png" width="11px" height="12px" preserveAspectRatio="xMinYMin meet" x="206" y="-390"/>
<text text-anchor="start" x="221" y="-381.2" font-family="Helvetica,sans-Serif" font-size="11.00">c_elementvalue_id</text>
<polygon fill="none" stroke="black" points="201,-351 201,-373 425,-373 425,-351 201,-351"/>
<image xlink:href="../../images/foreignKeys.png" width="11px" height="12px" preserveAspectRatio="xMinYMin meet" x="206" y="-368"/>
<text text-anchor="start" x="221" y="-359.2" font-family="Helvetica,sans-Serif" font-size="11.00">ad_client_id</text>
<polygon fill="none" stroke="black" points="201,-329 201,-351 425,-351 425,-329 201,-329"/>
<image xlink:href="../../images/foreignKeys.png" width="11px" height="12px" preserveAspectRatio="xMinYMin meet" x="206" y="-346"/>
<text text-anchor="start" x="221" y="-337.2" font-family="Helvetica,sans-Serif" font-size="11.00">ad_org_id</text>
<polygon fill="#ffffff" stroke="transparent" points="201,-307 201,-329 425,-329 425,-307 201,-307"/>
<polygon fill="none" stroke="black" points="201,-307 201,-329 425,-329 425,-307 201,-307"/>
<text text-anchor="start" x="221" y="-315.2" font-family="Helvetica,sans-Serif" font-size="11.00">value</text>
<polygon fill="#ffffff" stroke="transparent" points="201,-285 201,-307 425,-307 425,-285 201,-285"/>
<polygon fill="none" stroke="black" points="201,-285 201,-307 425,-307 425,-285 201,-285"/>
<text text-anchor="start" x="221" y="-293.2" font-family="Helvetica,sans-Serif" font-size="11.00">name</text>
<polygon fill="#ffffff" stroke="transparent" points="201,-263 201,-285 425,-285 425,-263 201,-263"/>
<polygon fill="none" stroke="black" points="201,-263 201,-285 425,-285 425,-263 201,-263"/>
<image xlink:href="../../images/foreignKeys.png" width="11px" height="12px" preserveAspectRatio="xMinYMin meet" x="206" y="-280"/>
<text text-anchor="start" x="221" y="-271.2" font-family="Helvetica,sans-Serif" font-size="11.00">c_element_id</text>
<polygon fill="none" stroke="black" points="201,-241 201,-263 425,-263 425,-241 201,-241"/>
<image xlink:href="../../images/foreignKeys.png" width="11px" height="12px" preserveAspectRatio="xMinYMin meet" x="206" y="-258"/>
<text text-anchor="start" x="221" y="-249.2" font-family="Helvetica,sans-Serif" font-size="11.00">c_bankaccount_id</text>
<polygon fill="none" stroke="black" points="201,-219 201,-241 425,-241 425,-219 201,-219"/>
<image xlink:href="../../images/foreignKeys.png" width="11px" height="12px" preserveAspectRatio="xMinYMin meet" x="206" y="-236"/>
<text text-anchor="start" x="221" y="-227.2" font-family="Helvetica,sans-Serif" font-size="11.00">c_currency_id</text>
<polygon fill="#ffffff" stroke="transparent" points="201,-197 201,-219 425,-219 425,-197 201,-197"/>
<polygon fill="none" stroke="black" points="201,-197 201,-219 425,-219 425,-197 201,-197"/>
<text text-anchor="start" x="221" y="-205.2" font-family="Helvetica,sans-Serif" font-size="11.00">c_elementvalue_uu</text>
<polygon fill="none" stroke="black" points="201,-175 201,-197 425,-197 425,-175 201,-175"/>
<image xlink:href="../../images/foreignKeys.png" width="11px" height="12px" preserveAspectRatio="xMinYMin meet" x="206" y="-192"/>
<text text-anchor="start" x="221" y="-183.2" font-family="Helvetica,sans-Serif" font-size="11.00">cof_codagl_id</text>
<polygon fill="none" stroke="black" points="201,-157 201,-175 425,-175 425,-157 201,-157"/>
<text text-anchor="start" x="204" y="-163.2" font-family="Helvetica,sans-Serif" font-size="11.00">...</text>
<polygon fill="#ffffff" stroke="transparent" points="201,-139 201,-157 425,-157 425,-139 201,-139"/>
<polygon fill="none" stroke="black" points="201,-139 201,-157 425,-157 425,-139 201,-139"/>
<polygon fill="#ffffff" stroke="transparent" points="202,-140 202,-156 260,-156 260,-140 202,-140"/>
<text text-anchor="start" x="204" y="-145.2" font-family="Helvetica,sans-Serif" font-size="11.00">&lt; 6</text>
<polygon fill="#ffffff" stroke="transparent" points="260,-140 260,-156 355,-156 355,-140 260,-140"/>
<text text-anchor="start" x="280.5" y="-145.2" font-family="Helvetica,sans-Serif" font-size="11.00">1.835 rows</text>
<polygon fill="#ffffff" stroke="transparent" points="355,-140 355,-156 424,-156 424,-140 355,-140"/>
<text text-anchor="start" x="394" y="-145.2" font-family="Helvetica,sans-Serif" font-size="11.00">120 &gt;</text>
<polygon fill="black" stroke="black" points="260,-140 260,-156 260,-156 260,-140 260,-140"/>
<polygon fill="black" stroke="black" points="355,-140 355,-156 355,-156 355,-140 355,-140"/>
</a>
</g>
</g>
<!-- c_element -->
<g id="node2" class="node">
<title>c_element</title>
<g id="a_node2"><a xlink:href="../../tables/c_element.html" xlink:title="c_element" target="_top">
<polygon fill="#ffffff" stroke="transparent" points="8,-37 8,-227 152,-227 152,-37 8,-37"/>
<polygon fill="#f5f5f5" stroke="transparent" points="8,-205 8,-227 152,-227 152,-205 8,-205"/>
<polygon fill="none" stroke="black" points="8,-205 8,-227 152,-227 152,-205 8,-205"/>
<text text-anchor="start" x="13" y="-214.2" font-family="Helvetica,sans-Serif" font-weight="bold" font-size="11.00">c_element</text>
<text text-anchor="start" x="117" y="-213.2" font-family="Helvetica,sans-Serif" font-size="11.00">[table]</text>
<polygon fill="none" stroke="black" points="8,-183 8,-205 152,-205 152,-183 8,-183"/>
<image xlink:href="../../images/primaryKeys.png" width="11px" height="12px" preserveAspectRatio="xMinYMin meet" x="13" y="-200"/>
<text text-anchor="start" x="28" y="-191.2" font-family="Helvetica,sans-Serif" font-size="11.00">c_element_id</text>
<polygon fill="#ffffff" stroke="transparent" points="8,-161 8,-183 152,-183 152,-161 8,-161"/>
<polygon fill="none" stroke="black" points="8,-161 8,-183 152,-183 152,-161 8,-161"/>
<image xlink:href="../../images/foreignKeys.png" width="11px" height="12px" preserveAspectRatio="xMinYMin meet" x="13" y="-178"/>
<text text-anchor="start" x="28" y="-169.2" font-family="Helvetica,sans-Serif" font-size="11.00">ad_client_id</text>
<polygon fill="none" stroke="black" points="8,-139 8,-161 152,-161 152,-139 8,-139"/>
<image xlink:href="../../images/foreignKeys.png" width="11px" height="12px" preserveAspectRatio="xMinYMin meet" x="13" y="-156"/>
<text text-anchor="start" x="28" y="-147.2" font-family="Helvetica,sans-Serif" font-size="11.00">ad_org_id</text>
<polygon fill="#ffffff" stroke="transparent" points="8,-117 8,-139 152,-139 152,-117 8,-117"/>
<polygon fill="none" stroke="black" points="8,-117 8,-139 152,-139 152,-117 8,-117"/>
<text text-anchor="start" x="28" y="-125.2" font-family="Helvetica,sans-Serif" font-size="11.00">name</text>
<polygon fill="none" stroke="black" points="8,-95 8,-117 152,-117 152,-95 8,-95"/>
<image xlink:href="../../images/foreignKeys.png" width="11px" height="12px" preserveAspectRatio="xMinYMin meet" x="13" y="-112"/>
<text text-anchor="start" x="28" y="-103.2" font-family="Helvetica,sans-Serif" font-size="11.00">ad_tree_id</text>
<polygon fill="#ffffff" stroke="transparent" points="8,-73 8,-95 152,-95 152,-73 8,-73"/>
<polygon fill="none" stroke="black" points="8,-73 8,-95 152,-95 152,-73 8,-73"/>
<text text-anchor="start" x="28" y="-81.2" font-family="Helvetica,sans-Serif" font-size="11.00">c_element_uu</text>
<polygon fill="none" stroke="black" points="8,-55 8,-73 152,-73 152,-55 8,-55"/>
<text text-anchor="start" x="11" y="-61.2" font-family="Helvetica,sans-Serif" font-size="11.00">...</text>
<polygon fill="#ffffff" stroke="transparent" points="8,-37 8,-55 152,-55 152,-37 8,-37"/>
<polygon fill="none" stroke="black" points="8,-37 8,-55 152,-55 152,-37 8,-37"/>
<polygon fill="#ffffff" stroke="transparent" points="9,-38 9,-54 49,-54 49,-38 9,-38"/>
<text text-anchor="start" x="11" y="-43.2" font-family="Helvetica,sans-Serif" font-size="11.00">&lt; 3</text>
<polygon fill="#ffffff" stroke="transparent" points="49,-38 49,-54 106,-54 106,-38 49,-38"/>
<text text-anchor="start" x="61" y="-43.2" font-family="Helvetica,sans-Serif" font-size="11.00">4 rows</text>
<polygon fill="#ffffff" stroke="transparent" points="106,-38 106,-54 151,-54 151,-38 106,-38"/>
<text text-anchor="start" x="127" y="-43.2" font-family="Helvetica,sans-Serif" font-size="11.00">13 &gt;</text>
<polygon fill="black" stroke="black" points="49,-38 49,-54 49,-54 49,-38 49,-38"/>
<polygon fill="black" stroke="black" points="106,-38 106,-54 106,-54 106,-38 106,-38"/>
</a>
</g>
</g>
<!-- c_elementvalue&#45;&gt;c_element -->
<g id="edge1" class="edge">
<title>c_elementvalue:w&#45;&gt;c_element:e</title>
<path fill="none" stroke="black" d="M186.21,-269.24C167.6,-252.01 188.12,-194 153,-194"/>
<polygon fill="black" stroke="black" points="192.44,-271.39 198.82,-277.4 196.22,-272.69 200,-274 200,-274 200,-274 196.22,-272.69 201.18,-270.6 192.44,-271.39 192.44,-271.39"/>
<ellipse fill="none" stroke="black" cx="189.41" cy="-270.34" rx="3.2" ry="3.2"/>
</g>
<!-- cof_elementvaluereference -->
<g id="node3" class="node">
<title>cof_elementvaluereference</title>
<g id="a_node3"><a xlink:href="../../tables/cof_elementvaluereference.html" xlink:title="cof_elementvaluereference" target="_top">
<polygon fill="#ffffff" stroke="transparent" points="474,-196 474,-548 806,-548 806,-196 474,-196"/>
<polygon fill="#f5f5f5" stroke="transparent" points="476,-524 476,-546 804,-546 804,-524 476,-524"/>
<polygon fill="none" stroke="black" points="476,-524 476,-546 804,-546 804,-524 476,-524"/>
<text text-anchor="start" x="481" y="-533.2" font-family="Helvetica,sans-Serif" font-weight="bold" font-size="11.00">cof_elementvaluereference</text>
<text text-anchor="start" x="769" y="-532.2" font-family="Helvetica,sans-Serif" font-size="11.00">[table]</text>
<polygon fill="none" stroke="black" points="476,-502 476,-524 721,-524 721,-502 476,-502"/>
<image xlink:href="../../images/primaryKeys.png" width="11px" height="12px" preserveAspectRatio="xMinYMin meet" x="481" y="-519"/>
<text text-anchor="start" x="496" y="-510.2" font-family="Helvetica,sans-Serif" font-size="11.00">cof_elementvaluereference_id</text>
<polygon fill="none" stroke="black" points="721,-502 721,-524 804,-524 804,-502 721,-502"/>
<text text-anchor="start" x="724" y="-510.2" font-family="Helvetica,sans-Serif" font-size="11.00">numeric[10]</text>
<polygon fill="none" stroke="black" points="476,-480 476,-502 721,-502 721,-480 476,-480"/>
<text text-anchor="start" x="496" y="-488.2" font-family="Helvetica,sans-Serif" font-size="11.00">ad_client_id</text>
<polygon fill="none" stroke="black" points="721,-480 721,-502 804,-502 804,-480 721,-480"/>
<text text-anchor="start" x="724" y="-488.2" font-family="Helvetica,sans-Serif" font-size="11.00">numeric[10]</text>
<polygon fill="none" stroke="black" points="476,-458 476,-480 721,-480 721,-458 476,-458"/>
<text text-anchor="start" x="496" y="-466.2" font-family="Helvetica,sans-Serif" font-size="11.00">ad_org_id</text>
<polygon fill="none" stroke="black" points="721,-458 721,-480 804,-480 804,-458 721,-458"/>
<text text-anchor="start" x="724" y="-466.2" font-family="Helvetica,sans-Serif" font-size="11.00">numeric[10]</text>
<polygon fill="none" stroke="black" points="476,-436 476,-458 721,-458 721,-436 476,-436"/>
<text text-anchor="start" x="496" y="-444.2" font-family="Helvetica,sans-Serif" font-size="11.00">isactive</text>
<polygon fill="none" stroke="black" points="721,-436 721,-458 804,-458 804,-436 721,-436"/>
<text text-anchor="start" x="724" y="-444.2" font-family="Helvetica,sans-Serif" font-size="11.00">bpchar[1]</text>
<polygon fill="none" stroke="black" points="476,-414 476,-436 721,-436 721,-414 476,-414"/>
<text text-anchor="start" x="496" y="-422.2" font-family="Helvetica,sans-Serif" font-size="11.00">created</text>
<polygon fill="none" stroke="black" points="721,-414 721,-436 804,-436 804,-414 721,-414"/>
<text text-anchor="start" x="724" y="-422.2" font-family="Helvetica,sans-Serif" font-size="11.00">timestamp[29,6]</text>
<polygon fill="none" stroke="black" points="476,-392 476,-414 721,-414 721,-392 476,-392"/>
<text text-anchor="start" x="496" y="-400.2" font-family="Helvetica,sans-Serif" font-size="11.00">createdby</text>
<polygon fill="none" stroke="black" points="721,-392 721,-414 804,-414 804,-392 721,-392"/>
<text text-anchor="start" x="724" y="-400.2" font-family="Helvetica,sans-Serif" font-size="11.00">numeric[10]</text>
<polygon fill="none" stroke="black" points="476,-370 476,-392 721,-392 721,-370 476,-370"/>
<text text-anchor="start" x="496" y="-378.2" font-family="Helvetica,sans-Serif" font-size="11.00">updated</text>
<polygon fill="none" stroke="black" points="721,-370 721,-392 804,-392 804,-370 721,-370"/>
<text text-anchor="start" x="724" y="-378.2" font-family="Helvetica,sans-Serif" font-size="11.00">timestamp[29,6]</text>
<polygon fill="none" stroke="black" points="476,-348 476,-370 721,-370 721,-348 476,-348"/>
<text text-anchor="start" x="496" y="-356.2" font-family="Helvetica,sans-Serif" font-size="11.00">updatedby</text>
<polygon fill="none" stroke="black" points="721,-348 721,-370 804,-370 804,-348 721,-348"/>
<text text-anchor="start" x="724" y="-356.2" font-family="Helvetica,sans-Serif" font-size="11.00">numeric[10]</text>
<polygon fill="none" stroke="black" points="476,-326 476,-348 721,-348 721,-326 476,-326"/>
<text text-anchor="start" x="496" y="-334.2" font-family="Helvetica,sans-Serif" font-size="11.00">cof_entity</text>
<polygon fill="none" stroke="black" points="721,-326 721,-348 804,-348 804,-326 721,-326"/>
<text text-anchor="start" x="724" y="-334.2" font-family="Helvetica,sans-Serif" font-size="11.00">varchar[2]</text>
<polygon fill="none" stroke="black" points="476,-304 476,-326 721,-326 721,-304 476,-304"/>
<text text-anchor="start" x="496" y="-312.2" font-family="Helvetica,sans-Serif" font-size="11.00">cof_elementvalueto_id</text>
<polygon fill="none" stroke="black" points="721,-304 721,-326 804,-326 804,-304 721,-304"/>
<text text-anchor="start" x="724" y="-312.2" font-family="Helvetica,sans-Serif" font-size="11.00">numeric[10]</text>
<polygon fill="none" stroke="black" points="476,-282 476,-304 721,-304 721,-282 476,-282"/>
<text text-anchor="start" x="496" y="-290.2" font-family="Helvetica,sans-Serif" font-size="11.00">c_element_id</text>
<polygon fill="none" stroke="black" points="721,-282 721,-304 804,-304 804,-282 721,-282"/>
<text text-anchor="start" x="724" y="-290.2" font-family="Helvetica,sans-Serif" font-size="11.00">numeric[10]</text>
<polygon fill="none" stroke="black" points="476,-260 476,-282 721,-282 721,-260 476,-260"/>
<image xlink:href="../../images/foreignKeys.png" width="11px" height="12px" preserveAspectRatio="xMinYMin meet" x="481" y="-277"/>
<text text-anchor="start" x="496" y="-268.2" font-family="Helvetica,sans-Serif" font-size="11.00">c_elementvalue_id</text>
<polygon fill="none" stroke="black" points="721,-260 721,-282 804,-282 804,-260 721,-260"/>
<text text-anchor="start" x="724" y="-268.2" font-family="Helvetica,sans-Serif" font-size="11.00">numeric[10]</text>
<polygon fill="#ffffff" stroke="transparent" points="476,-238 476,-260 721,-260 721,-238 476,-238"/>
<polygon fill="none" stroke="black" points="476,-238 476,-260 721,-260 721,-238 476,-238"/>
<text text-anchor="start" x="496" y="-246.2" font-family="Helvetica,sans-Serif" font-size="11.00">cof_elementvaluereference_uu</text>
<polygon fill="none" stroke="black" points="721,-238 721,-260 804,-260 804,-238 721,-238"/>
<text text-anchor="start" x="724" y="-246.2" font-family="Helvetica,sans-Serif" font-size="11.00">varchar[36]</text>
<polygon fill="none" stroke="black" points="476,-216 476,-238 721,-238 721,-216 476,-216"/>
<image xlink:href="../../images/foreignKeys.png" width="11px" height="12px" preserveAspectRatio="xMinYMin meet" x="481" y="-233"/>
<text text-anchor="start" x="496" y="-224.2" font-family="Helvetica,sans-Serif" font-size="11.00">cof_elementfrom_id</text>
<polygon fill="none" stroke="black" points="721,-216 721,-238 804,-238 804,-216 721,-216"/>
<text text-anchor="start" x="724" y="-224.2" font-family="Helvetica,sans-Serif" font-size="11.00">numeric[10]</text>
<polygon fill="#ffffff" stroke="transparent" points="476,-198 476,-216 804,-216 804,-198 476,-198"/>
<polygon fill="none" stroke="black" points="476,-198 476,-216 804,-216 804,-198 476,-198"/>
<polygon fill="#ffffff" stroke="transparent" points="477,-199 477,-215 589,-215 589,-199 477,-199"/>
<text text-anchor="start" x="479" y="-204.2" font-family="Helvetica,sans-Serif" font-size="11.00">&lt; 2</text>
<polygon fill="#ffffff" stroke="transparent" points="589,-199 589,-215 692,-215 692,-199 589,-199"/>
<text text-anchor="start" x="637" y="-204.2" font-family="Helvetica,sans-Serif" font-size="11.00"> &#160;</text>
<polygon fill="#ffffff" stroke="transparent" points="692,-199 692,-215 803,-215 803,-199 692,-199"/>
<text text-anchor="start" x="785" y="-204.2" font-family="Helvetica,sans-Serif" font-size="11.00">0 &gt;</text>
<polygon fill="black" stroke="black" points="589,-199 589,-215 589,-215 589,-199 589,-199"/>
<polygon fill="black" stroke="black" points="692,-199 692,-215 692,-215 692,-199 692,-199"/>
<polygon fill="none" stroke="black" stroke-width="2" points="475,-197 475,-547 805,-547 805,-197 475,-197"/>
</a>
</g>
</g>
<!-- cof_elementvaluereference&#45;&gt;c_elementvalue -->
<g id="edge2" class="edge">
<title>cof_elementvaluereference:w&#45;&gt;c_elementvalue:e</title>
<path fill="none" stroke="black" d="M460.87,-274.76C432.11,-294.37 474.75,-384 426,-384"/>
<polygon fill="black" stroke="black" points="467.27,-273.06 475.93,-274.48 471.13,-272.03 475,-271 475,-271 475,-271 471.13,-272.03 474.07,-267.52 467.27,-273.06 467.27,-273.06"/>
<ellipse fill="none" stroke="black" cx="464.18" cy="-273.88" rx="3.2" ry="3.2"/>
</g>
<!-- cof_elementvaluereference&#45;&gt;c_element -->
<g id="edge3" class="edge">
<title>cof_elementvaluereference:w&#45;&gt;c_element:e</title>
<path fill="none" stroke="black" d="M460.9,-223.67C437.8,-209.22 467.46,-151.72 433,-129 343.95,-70.28 286.12,-76.97 193,-129 163.39,-145.55 186.92,-194 153,-194"/>
<polygon fill="black" stroke="black" points="467.21,-225.16 474.17,-230.5 471.11,-226.08 475,-227 475,-227 475,-227 471.11,-226.08 475.83,-223.5 467.21,-225.16 467.21,-225.16"/>
<ellipse fill="none" stroke="black" cx="464.1" cy="-224.42" rx="3.2" ry="3.2"/>
</g>
</g>
</svg>
