<?xml version="1.0" encoding="UTF-8" standalone="no"?>
<!DOCTYPE svg PUBLIC "-//W3C//DTD SVG 1.1//EN"
 "http://www.w3.org/Graphics/SVG/1.1/DTD/svg11.dtd">
<!-- Generated by graphviz version 2.43.0 (0)
 -->
<!-- Title: oneDegreeRelationshipsDiagram Pages: 1 -->
<svg width="407pt" height="2165pt"
 viewBox="0.00 0.00 407.00 2165.00" xmlns="http://www.w3.org/2000/svg" xmlns:xlink="http://www.w3.org/1999/xlink">
<g id="graph0" class="graph" transform="scale(1 1) rotate(0) translate(4 2161)">
<title>oneDegreeRelationshipsDiagram</title>
<polygon fill="#ffffff" stroke="transparent" points="-4,4 -4,-2161 403,-2161 403,4 -4,4"/>
<text text-anchor="middle" x="71.5" y="-7.2" font-family="Helvetica,sans-Serif" font-size="11.00">Generated by SchemaSpy</text>
<!-- cof_rv_productsmanufacturedandsold -->
<g id="node1" class="node">
<title>cof_rv_productsmanufacturedandsold</title>
<g id="a_node1"><a xlink:href="../../tables/cof_rv_productsmanufacturedandsold.html" xlink:title="cof_rv_productsmanufacturedandsold" target="_top">
<polygon fill="#ffffff" stroke="transparent" points="8,-37 8,-2153 391,-2153 391,-37 8,-37"/>
<polygon fill="#f5f5f5" stroke="transparent" points="10.5,-2129 10.5,-2151 389.5,-2151 389.5,-2129 10.5,-2129"/>
<polygon fill="none" stroke="black" points="10.5,-2129 10.5,-2151 389.5,-2151 389.5,-2129 10.5,-2129"/>
<text text-anchor="start" x="15.5" y="-2138.2" font-family="Helvetica,sans-Serif" font-weight="bold" font-size="11.00">cof_rv_productsmanufacturedandsold</text>
<text text-anchor="start" x="356.5" y="-2137.2" font-family="Helvetica,sans-Serif" font-size="11.00">[view]</text>
<polygon fill="none" stroke="black" points="10.5,-2107 10.5,-2129 306.5,-2129 306.5,-2107 10.5,-2107"/>
<text text-anchor="start" x="30.5" y="-2115.2" font-family="Helvetica,sans-Serif" font-size="11.00">m_product_id</text>
<polygon fill="none" stroke="black" points="306.5,-2107 306.5,-2129 389.5,-2129 389.5,-2107 306.5,-2107"/>
<text text-anchor="start" x="309.5" y="-2115.2" font-family="Helvetica,sans-Serif" font-size="11.00">numeric[10]</text>
<polygon fill="none" stroke="black" points="10.5,-2085 10.5,-2107 306.5,-2107 306.5,-2085 10.5,-2085"/>
<text text-anchor="start" x="30.5" y="-2093.2" font-family="Helvetica,sans-Serif" font-size="11.00">ad_client_id</text>
<polygon fill="none" stroke="black" points="306.5,-2085 306.5,-2107 389.5,-2107 389.5,-2085 306.5,-2085"/>
<text text-anchor="start" x="309.5" y="-2093.2" font-family="Helvetica,sans-Serif" font-size="11.00">numeric[10]</text>
<polygon fill="none" stroke="black" points="10.5,-2063 10.5,-2085 306.5,-2085 306.5,-2063 10.5,-2063"/>
<text text-anchor="start" x="30.5" y="-2071.2" font-family="Helvetica,sans-Serif" font-size="11.00">ad_org_id</text>
<polygon fill="none" stroke="black" points="306.5,-2063 306.5,-2085 389.5,-2085 389.5,-2063 306.5,-2063"/>
<text text-anchor="start" x="309.5" y="-2071.2" font-family="Helvetica,sans-Serif" font-size="11.00">numeric[10]</text>
<polygon fill="none" stroke="black" points="10.5,-2041 10.5,-2063 306.5,-2063 306.5,-2041 10.5,-2041"/>
<text text-anchor="start" x="30.5" y="-2049.2" font-family="Helvetica,sans-Serif" font-size="11.00">isactive</text>
<polygon fill="none" stroke="black" points="306.5,-2041 306.5,-2063 389.5,-2063 389.5,-2041 306.5,-2041"/>
<text text-anchor="start" x="309.5" y="-2049.2" font-family="Helvetica,sans-Serif" font-size="11.00">bpchar[1]</text>
<polygon fill="none" stroke="black" points="10.5,-2019 10.5,-2041 306.5,-2041 306.5,-2019 10.5,-2019"/>
<text text-anchor="start" x="30.5" y="-2027.2" font-family="Helvetica,sans-Serif" font-size="11.00">created</text>
<polygon fill="none" stroke="black" points="306.5,-2019 306.5,-2041 389.5,-2041 389.5,-2019 306.5,-2019"/>
<text text-anchor="start" x="309.5" y="-2027.2" font-family="Helvetica,sans-Serif" font-size="11.00">timestamp[29,6]</text>
<polygon fill="none" stroke="black" points="10.5,-1997 10.5,-2019 306.5,-2019 306.5,-1997 10.5,-1997"/>
<text text-anchor="start" x="30.5" y="-2005.2" font-family="Helvetica,sans-Serif" font-size="11.00">createdby</text>
<polygon fill="none" stroke="black" points="306.5,-1997 306.5,-2019 389.5,-2019 389.5,-1997 306.5,-1997"/>
<text text-anchor="start" x="309.5" y="-2005.2" font-family="Helvetica,sans-Serif" font-size="11.00">numeric[10]</text>
<polygon fill="none" stroke="black" points="10.5,-1975 10.5,-1997 306.5,-1997 306.5,-1975 10.5,-1975"/>
<text text-anchor="start" x="30.5" y="-1983.2" font-family="Helvetica,sans-Serif" font-size="11.00">updated</text>
<polygon fill="none" stroke="black" points="306.5,-1975 306.5,-1997 389.5,-1997 389.5,-1975 306.5,-1975"/>
<text text-anchor="start" x="309.5" y="-1983.2" font-family="Helvetica,sans-Serif" font-size="11.00">timestamp[29,6]</text>
<polygon fill="none" stroke="black" points="10.5,-1953 10.5,-1975 306.5,-1975 306.5,-1953 10.5,-1953"/>
<text text-anchor="start" x="30.5" y="-1961.2" font-family="Helvetica,sans-Serif" font-size="11.00">updatedby</text>
<polygon fill="none" stroke="black" points="306.5,-1953 306.5,-1975 389.5,-1975 389.5,-1953 306.5,-1953"/>
<text text-anchor="start" x="309.5" y="-1961.2" font-family="Helvetica,sans-Serif" font-size="11.00">numeric[10]</text>
<polygon fill="none" stroke="black" points="10.5,-1931 10.5,-1953 306.5,-1953 306.5,-1931 10.5,-1931"/>
<text text-anchor="start" x="30.5" y="-1939.2" font-family="Helvetica,sans-Serif" font-size="11.00">value</text>
<polygon fill="none" stroke="black" points="306.5,-1931 306.5,-1953 389.5,-1953 389.5,-1931 306.5,-1931"/>
<text text-anchor="start" x="309.5" y="-1939.2" font-family="Helvetica,sans-Serif" font-size="11.00">varchar[510]</text>
<polygon fill="none" stroke="black" points="10.5,-1909 10.5,-1931 306.5,-1931 306.5,-1909 10.5,-1909"/>
<text text-anchor="start" x="30.5" y="-1917.2" font-family="Helvetica,sans-Serif" font-size="11.00">name</text>
<polygon fill="none" stroke="black" points="306.5,-1909 306.5,-1931 389.5,-1931 389.5,-1909 306.5,-1909"/>
<text text-anchor="start" x="309.5" y="-1917.2" font-family="Helvetica,sans-Serif" font-size="11.00">varchar[255]</text>
<polygon fill="none" stroke="black" points="10.5,-1887 10.5,-1909 306.5,-1909 306.5,-1887 10.5,-1887"/>
<text text-anchor="start" x="30.5" y="-1895.2" font-family="Helvetica,sans-Serif" font-size="11.00">description</text>
<polygon fill="none" stroke="black" points="306.5,-1887 306.5,-1909 389.5,-1909 389.5,-1887 306.5,-1887"/>
<text text-anchor="start" x="309.5" y="-1895.2" font-family="Helvetica,sans-Serif" font-size="11.00">varchar[255]</text>
<polygon fill="none" stroke="black" points="10.5,-1865 10.5,-1887 306.5,-1887 306.5,-1865 10.5,-1865"/>
<text text-anchor="start" x="30.5" y="-1873.2" font-family="Helvetica,sans-Serif" font-size="11.00">documentnote</text>
<polygon fill="none" stroke="black" points="306.5,-1865 306.5,-1887 389.5,-1887 389.5,-1865 306.5,-1865"/>
<text text-anchor="start" x="309.5" y="-1873.2" font-family="Helvetica,sans-Serif" font-size="11.00">varchar[2000]</text>
<polygon fill="none" stroke="black" points="10.5,-1843 10.5,-1865 306.5,-1865 306.5,-1843 10.5,-1843"/>
<text text-anchor="start" x="30.5" y="-1851.2" font-family="Helvetica,sans-Serif" font-size="11.00">help</text>
<polygon fill="none" stroke="black" points="306.5,-1843 306.5,-1865 389.5,-1865 389.5,-1843 306.5,-1843"/>
<text text-anchor="start" x="309.5" y="-1851.2" font-family="Helvetica,sans-Serif" font-size="11.00">varchar[2000]</text>
<polygon fill="none" stroke="black" points="10.5,-1821 10.5,-1843 306.5,-1843 306.5,-1821 10.5,-1821"/>
<text text-anchor="start" x="30.5" y="-1829.2" font-family="Helvetica,sans-Serif" font-size="11.00">upc</text>
<polygon fill="none" stroke="black" points="306.5,-1821 306.5,-1843 389.5,-1843 389.5,-1821 306.5,-1821"/>
<text text-anchor="start" x="309.5" y="-1829.2" font-family="Helvetica,sans-Serif" font-size="11.00">varchar[30]</text>
<polygon fill="none" stroke="black" points="10.5,-1799 10.5,-1821 306.5,-1821 306.5,-1799 10.5,-1799"/>
<text text-anchor="start" x="30.5" y="-1807.2" font-family="Helvetica,sans-Serif" font-size="11.00">sku</text>
<polygon fill="none" stroke="black" points="306.5,-1799 306.5,-1821 389.5,-1821 389.5,-1799 306.5,-1799"/>
<text text-anchor="start" x="309.5" y="-1807.2" font-family="Helvetica,sans-Serif" font-size="11.00">varchar[30]</text>
<polygon fill="none" stroke="black" points="10.5,-1777 10.5,-1799 306.5,-1799 306.5,-1777 10.5,-1777"/>
<text text-anchor="start" x="30.5" y="-1785.2" font-family="Helvetica,sans-Serif" font-size="11.00">c_uom_id</text>
<polygon fill="none" stroke="black" points="306.5,-1777 306.5,-1799 389.5,-1799 389.5,-1777 306.5,-1777"/>
<text text-anchor="start" x="309.5" y="-1785.2" font-family="Helvetica,sans-Serif" font-size="11.00">numeric[10]</text>
<polygon fill="none" stroke="black" points="10.5,-1755 10.5,-1777 306.5,-1777 306.5,-1755 10.5,-1755"/>
<text text-anchor="start" x="30.5" y="-1763.2" font-family="Helvetica,sans-Serif" font-size="11.00">salesrep_id</text>
<polygon fill="none" stroke="black" points="306.5,-1755 306.5,-1777 389.5,-1777 389.5,-1755 306.5,-1755"/>
<text text-anchor="start" x="309.5" y="-1763.2" font-family="Helvetica,sans-Serif" font-size="11.00">numeric[10]</text>
<polygon fill="none" stroke="black" points="10.5,-1733 10.5,-1755 306.5,-1755 306.5,-1733 10.5,-1733"/>
<text text-anchor="start" x="30.5" y="-1741.2" font-family="Helvetica,sans-Serif" font-size="11.00">issummary</text>
<polygon fill="none" stroke="black" points="306.5,-1733 306.5,-1755 389.5,-1755 389.5,-1733 306.5,-1733"/>
<text text-anchor="start" x="309.5" y="-1741.2" font-family="Helvetica,sans-Serif" font-size="11.00">bpchar[1]</text>
<polygon fill="none" stroke="black" points="10.5,-1711 10.5,-1733 306.5,-1733 306.5,-1711 10.5,-1711"/>
<text text-anchor="start" x="30.5" y="-1719.2" font-family="Helvetica,sans-Serif" font-size="11.00">isstocked</text>
<polygon fill="none" stroke="black" points="306.5,-1711 306.5,-1733 389.5,-1733 389.5,-1711 306.5,-1711"/>
<text text-anchor="start" x="309.5" y="-1719.2" font-family="Helvetica,sans-Serif" font-size="11.00">bpchar[1]</text>
<polygon fill="none" stroke="black" points="10.5,-1689 10.5,-1711 306.5,-1711 306.5,-1689 10.5,-1689"/>
<text text-anchor="start" x="30.5" y="-1697.2" font-family="Helvetica,sans-Serif" font-size="11.00">ispurchased</text>
<polygon fill="none" stroke="black" points="306.5,-1689 306.5,-1711 389.5,-1711 389.5,-1689 306.5,-1689"/>
<text text-anchor="start" x="309.5" y="-1697.2" font-family="Helvetica,sans-Serif" font-size="11.00">bpchar[1]</text>
<polygon fill="none" stroke="black" points="10.5,-1667 10.5,-1689 306.5,-1689 306.5,-1667 10.5,-1667"/>
<text text-anchor="start" x="30.5" y="-1675.2" font-family="Helvetica,sans-Serif" font-size="11.00">issold</text>
<polygon fill="none" stroke="black" points="306.5,-1667 306.5,-1689 389.5,-1689 389.5,-1667 306.5,-1667"/>
<text text-anchor="start" x="309.5" y="-1675.2" font-family="Helvetica,sans-Serif" font-size="11.00">bpchar[1]</text>
<polygon fill="none" stroke="black" points="10.5,-1645 10.5,-1667 306.5,-1667 306.5,-1645 10.5,-1645"/>
<text text-anchor="start" x="30.5" y="-1653.2" font-family="Helvetica,sans-Serif" font-size="11.00">isbom</text>
<polygon fill="none" stroke="black" points="306.5,-1645 306.5,-1667 389.5,-1667 389.5,-1645 306.5,-1645"/>
<text text-anchor="start" x="309.5" y="-1653.2" font-family="Helvetica,sans-Serif" font-size="11.00">bpchar[1]</text>
<polygon fill="none" stroke="black" points="10.5,-1623 10.5,-1645 306.5,-1645 306.5,-1623 10.5,-1623"/>
<text text-anchor="start" x="30.5" y="-1631.2" font-family="Helvetica,sans-Serif" font-size="11.00">isinvoiceprintdetails</text>
<polygon fill="none" stroke="black" points="306.5,-1623 306.5,-1645 389.5,-1645 389.5,-1623 306.5,-1623"/>
<text text-anchor="start" x="309.5" y="-1631.2" font-family="Helvetica,sans-Serif" font-size="11.00">bpchar[1]</text>
<polygon fill="none" stroke="black" points="10.5,-1601 10.5,-1623 306.5,-1623 306.5,-1601 10.5,-1601"/>
<text text-anchor="start" x="30.5" y="-1609.2" font-family="Helvetica,sans-Serif" font-size="11.00">ispicklistprintdetails</text>
<polygon fill="none" stroke="black" points="306.5,-1601 306.5,-1623 389.5,-1623 389.5,-1601 306.5,-1601"/>
<text text-anchor="start" x="309.5" y="-1609.2" font-family="Helvetica,sans-Serif" font-size="11.00">bpchar[1]</text>
<polygon fill="none" stroke="black" points="10.5,-1579 10.5,-1601 306.5,-1601 306.5,-1579 10.5,-1579"/>
<text text-anchor="start" x="30.5" y="-1587.2" font-family="Helvetica,sans-Serif" font-size="11.00">isverified</text>
<polygon fill="none" stroke="black" points="306.5,-1579 306.5,-1601 389.5,-1601 389.5,-1579 306.5,-1579"/>
<text text-anchor="start" x="309.5" y="-1587.2" font-family="Helvetica,sans-Serif" font-size="11.00">bpchar[1]</text>
<polygon fill="none" stroke="black" points="10.5,-1557 10.5,-1579 306.5,-1579 306.5,-1557 10.5,-1557"/>
<text text-anchor="start" x="30.5" y="-1565.2" font-family="Helvetica,sans-Serif" font-size="11.00">c_revenuerecognition_id</text>
<polygon fill="none" stroke="black" points="306.5,-1557 306.5,-1579 389.5,-1579 389.5,-1557 306.5,-1557"/>
<text text-anchor="start" x="309.5" y="-1565.2" font-family="Helvetica,sans-Serif" font-size="11.00">numeric[10]</text>
<polygon fill="none" stroke="black" points="10.5,-1535 10.5,-1557 306.5,-1557 306.5,-1535 10.5,-1535"/>
<text text-anchor="start" x="30.5" y="-1543.2" font-family="Helvetica,sans-Serif" font-size="11.00">m_product_category_id</text>
<polygon fill="none" stroke="black" points="306.5,-1535 306.5,-1557 389.5,-1557 389.5,-1535 306.5,-1535"/>
<text text-anchor="start" x="309.5" y="-1543.2" font-family="Helvetica,sans-Serif" font-size="11.00">numeric[10]</text>
<polygon fill="none" stroke="black" points="10.5,-1513 10.5,-1535 306.5,-1535 306.5,-1513 10.5,-1513"/>
<text text-anchor="start" x="30.5" y="-1521.2" font-family="Helvetica,sans-Serif" font-size="11.00">classification</text>
<polygon fill="none" stroke="black" points="306.5,-1513 306.5,-1535 389.5,-1535 389.5,-1513 306.5,-1513"/>
<text text-anchor="start" x="309.5" y="-1521.2" font-family="Helvetica,sans-Serif" font-size="11.00">varchar[40]</text>
<polygon fill="none" stroke="black" points="10.5,-1491 10.5,-1513 306.5,-1513 306.5,-1491 10.5,-1491"/>
<text text-anchor="start" x="30.5" y="-1499.2" font-family="Helvetica,sans-Serif" font-size="11.00">volume</text>
<polygon fill="none" stroke="black" points="306.5,-1491 306.5,-1513 389.5,-1513 389.5,-1491 306.5,-1491"/>
<text text-anchor="start" x="309.5" y="-1499.2" font-family="Helvetica,sans-Serif" font-size="11.00">numeric[0]</text>
<polygon fill="none" stroke="black" points="10.5,-1469 10.5,-1491 306.5,-1491 306.5,-1469 10.5,-1469"/>
<text text-anchor="start" x="30.5" y="-1477.2" font-family="Helvetica,sans-Serif" font-size="11.00">weight</text>
<polygon fill="none" stroke="black" points="306.5,-1469 306.5,-1491 389.5,-1491 389.5,-1469 306.5,-1469"/>
<text text-anchor="start" x="309.5" y="-1477.2" font-family="Helvetica,sans-Serif" font-size="11.00">numeric[0]</text>
<polygon fill="none" stroke="black" points="10.5,-1447 10.5,-1469 306.5,-1469 306.5,-1447 10.5,-1447"/>
<text text-anchor="start" x="30.5" y="-1455.2" font-family="Helvetica,sans-Serif" font-size="11.00">shelfwidth</text>
<polygon fill="none" stroke="black" points="306.5,-1447 306.5,-1469 389.5,-1469 389.5,-1447 306.5,-1447"/>
<text text-anchor="start" x="309.5" y="-1455.2" font-family="Helvetica,sans-Serif" font-size="11.00">numeric[10]</text>
<polygon fill="none" stroke="black" points="10.5,-1425 10.5,-1447 306.5,-1447 306.5,-1425 10.5,-1425"/>
<text text-anchor="start" x="30.5" y="-1433.2" font-family="Helvetica,sans-Serif" font-size="11.00">shelfheight</text>
<polygon fill="none" stroke="black" points="306.5,-1425 306.5,-1447 389.5,-1447 389.5,-1425 306.5,-1425"/>
<text text-anchor="start" x="309.5" y="-1433.2" font-family="Helvetica,sans-Serif" font-size="11.00">numeric[0]</text>
<polygon fill="none" stroke="black" points="10.5,-1403 10.5,-1425 306.5,-1425 306.5,-1403 10.5,-1403"/>
<text text-anchor="start" x="30.5" y="-1411.2" font-family="Helvetica,sans-Serif" font-size="11.00">shelfdepth</text>
<polygon fill="none" stroke="black" points="306.5,-1403 306.5,-1425 389.5,-1425 389.5,-1403 306.5,-1403"/>
<text text-anchor="start" x="309.5" y="-1411.2" font-family="Helvetica,sans-Serif" font-size="11.00">numeric[10]</text>
<polygon fill="none" stroke="black" points="10.5,-1381 10.5,-1403 306.5,-1403 306.5,-1381 10.5,-1381"/>
<text text-anchor="start" x="30.5" y="-1389.2" font-family="Helvetica,sans-Serif" font-size="11.00">unitsperpallet</text>
<polygon fill="none" stroke="black" points="306.5,-1381 306.5,-1403 389.5,-1403 389.5,-1381 306.5,-1381"/>
<text text-anchor="start" x="309.5" y="-1389.2" font-family="Helvetica,sans-Serif" font-size="11.00">numeric[0]</text>
<polygon fill="none" stroke="black" points="10.5,-1359 10.5,-1381 306.5,-1381 306.5,-1359 10.5,-1359"/>
<text text-anchor="start" x="30.5" y="-1367.2" font-family="Helvetica,sans-Serif" font-size="11.00">c_taxcategory_id</text>
<polygon fill="none" stroke="black" points="306.5,-1359 306.5,-1381 389.5,-1381 389.5,-1359 306.5,-1359"/>
<text text-anchor="start" x="309.5" y="-1367.2" font-family="Helvetica,sans-Serif" font-size="11.00">numeric[10]</text>
<polygon fill="none" stroke="black" points="10.5,-1337 10.5,-1359 306.5,-1359 306.5,-1337 10.5,-1337"/>
<text text-anchor="start" x="30.5" y="-1345.2" font-family="Helvetica,sans-Serif" font-size="11.00">s_resource_id</text>
<polygon fill="none" stroke="black" points="306.5,-1337 306.5,-1359 389.5,-1359 389.5,-1337 306.5,-1337"/>
<text text-anchor="start" x="309.5" y="-1345.2" font-family="Helvetica,sans-Serif" font-size="11.00">numeric[10]</text>
<polygon fill="none" stroke="black" points="10.5,-1315 10.5,-1337 306.5,-1337 306.5,-1315 10.5,-1315"/>
<text text-anchor="start" x="30.5" y="-1323.2" font-family="Helvetica,sans-Serif" font-size="11.00">discontinued</text>
<polygon fill="none" stroke="black" points="306.5,-1315 306.5,-1337 389.5,-1337 389.5,-1315 306.5,-1315"/>
<text text-anchor="start" x="309.5" y="-1323.2" font-family="Helvetica,sans-Serif" font-size="11.00">bpchar[1]</text>
<polygon fill="none" stroke="black" points="10.5,-1293 10.5,-1315 306.5,-1315 306.5,-1293 10.5,-1293"/>
<text text-anchor="start" x="30.5" y="-1301.2" font-family="Helvetica,sans-Serif" font-size="11.00">discontinuedby</text>
<polygon fill="none" stroke="black" points="306.5,-1293 306.5,-1315 389.5,-1315 389.5,-1293 306.5,-1293"/>
<text text-anchor="start" x="309.5" y="-1301.2" font-family="Helvetica,sans-Serif" font-size="11.00">timestamp[29,6]</text>
<polygon fill="none" stroke="black" points="10.5,-1271 10.5,-1293 306.5,-1293 306.5,-1271 10.5,-1271"/>
<text text-anchor="start" x="30.5" y="-1279.2" font-family="Helvetica,sans-Serif" font-size="11.00">processing</text>
<polygon fill="none" stroke="black" points="306.5,-1271 306.5,-1293 389.5,-1293 389.5,-1271 306.5,-1271"/>
<text text-anchor="start" x="309.5" y="-1279.2" font-family="Helvetica,sans-Serif" font-size="11.00">bpchar[1]</text>
<polygon fill="none" stroke="black" points="10.5,-1249 10.5,-1271 306.5,-1271 306.5,-1249 10.5,-1249"/>
<text text-anchor="start" x="30.5" y="-1257.2" font-family="Helvetica,sans-Serif" font-size="11.00">s_expensetype_id</text>
<polygon fill="none" stroke="black" points="306.5,-1249 306.5,-1271 389.5,-1271 389.5,-1249 306.5,-1249"/>
<text text-anchor="start" x="309.5" y="-1257.2" font-family="Helvetica,sans-Serif" font-size="11.00">numeric[10]</text>
<polygon fill="none" stroke="black" points="10.5,-1227 10.5,-1249 306.5,-1249 306.5,-1227 10.5,-1227"/>
<text text-anchor="start" x="30.5" y="-1235.2" font-family="Helvetica,sans-Serif" font-size="11.00">producttype</text>
<polygon fill="none" stroke="black" points="306.5,-1227 306.5,-1249 389.5,-1249 389.5,-1227 306.5,-1227"/>
<text text-anchor="start" x="309.5" y="-1235.2" font-family="Helvetica,sans-Serif" font-size="11.00">bpchar[1]</text>
<polygon fill="none" stroke="black" points="10.5,-1205 10.5,-1227 306.5,-1227 306.5,-1205 10.5,-1205"/>
<text text-anchor="start" x="30.5" y="-1213.2" font-family="Helvetica,sans-Serif" font-size="11.00">imageurl</text>
<polygon fill="none" stroke="black" points="306.5,-1205 306.5,-1227 389.5,-1227 389.5,-1205 306.5,-1205"/>
<text text-anchor="start" x="309.5" y="-1213.2" font-family="Helvetica,sans-Serif" font-size="11.00">varchar[120]</text>
<polygon fill="none" stroke="black" points="10.5,-1183 10.5,-1205 306.5,-1205 306.5,-1183 10.5,-1183"/>
<text text-anchor="start" x="30.5" y="-1191.2" font-family="Helvetica,sans-Serif" font-size="11.00">descriptionurl</text>
<polygon fill="none" stroke="black" points="306.5,-1183 306.5,-1205 389.5,-1205 389.5,-1183 306.5,-1183"/>
<text text-anchor="start" x="309.5" y="-1191.2" font-family="Helvetica,sans-Serif" font-size="11.00">varchar[120]</text>
<polygon fill="none" stroke="black" points="10.5,-1161 10.5,-1183 306.5,-1183 306.5,-1161 10.5,-1161"/>
<text text-anchor="start" x="30.5" y="-1169.2" font-family="Helvetica,sans-Serif" font-size="11.00">guaranteedays</text>
<polygon fill="none" stroke="black" points="306.5,-1161 306.5,-1183 389.5,-1183 389.5,-1161 306.5,-1161"/>
<text text-anchor="start" x="309.5" y="-1169.2" font-family="Helvetica,sans-Serif" font-size="11.00">numeric[10]</text>
<polygon fill="none" stroke="black" points="10.5,-1139 10.5,-1161 306.5,-1161 306.5,-1139 10.5,-1139"/>
<text text-anchor="start" x="30.5" y="-1147.2" font-family="Helvetica,sans-Serif" font-size="11.00">r_mailtext_id</text>
<polygon fill="none" stroke="black" points="306.5,-1139 306.5,-1161 389.5,-1161 389.5,-1139 306.5,-1139"/>
<text text-anchor="start" x="309.5" y="-1147.2" font-family="Helvetica,sans-Serif" font-size="11.00">numeric[10]</text>
<polygon fill="none" stroke="black" points="10.5,-1117 10.5,-1139 306.5,-1139 306.5,-1117 10.5,-1117"/>
<text text-anchor="start" x="30.5" y="-1125.2" font-family="Helvetica,sans-Serif" font-size="11.00">versionno</text>
<polygon fill="none" stroke="black" points="306.5,-1117 306.5,-1139 389.5,-1139 389.5,-1117 306.5,-1117"/>
<text text-anchor="start" x="309.5" y="-1125.2" font-family="Helvetica,sans-Serif" font-size="11.00">varchar[20]</text>
<polygon fill="none" stroke="black" points="10.5,-1095 10.5,-1117 306.5,-1117 306.5,-1095 10.5,-1095"/>
<text text-anchor="start" x="30.5" y="-1103.2" font-family="Helvetica,sans-Serif" font-size="11.00">m_attributeset_id</text>
<polygon fill="none" stroke="black" points="306.5,-1095 306.5,-1117 389.5,-1117 389.5,-1095 306.5,-1095"/>
<text text-anchor="start" x="309.5" y="-1103.2" font-family="Helvetica,sans-Serif" font-size="11.00">numeric[10]</text>
<polygon fill="none" stroke="black" points="10.5,-1073 10.5,-1095 306.5,-1095 306.5,-1073 10.5,-1073"/>
<text text-anchor="start" x="30.5" y="-1081.2" font-family="Helvetica,sans-Serif" font-size="11.00">m_attributesetinstance_id</text>
<polygon fill="none" stroke="black" points="306.5,-1073 306.5,-1095 389.5,-1095 389.5,-1073 306.5,-1073"/>
<text text-anchor="start" x="309.5" y="-1081.2" font-family="Helvetica,sans-Serif" font-size="11.00">numeric[10]</text>
<polygon fill="none" stroke="black" points="10.5,-1051 10.5,-1073 306.5,-1073 306.5,-1051 10.5,-1051"/>
<text text-anchor="start" x="30.5" y="-1059.2" font-family="Helvetica,sans-Serif" font-size="11.00">downloadurl</text>
<polygon fill="none" stroke="black" points="306.5,-1051 306.5,-1073 389.5,-1073 389.5,-1051 306.5,-1051"/>
<text text-anchor="start" x="309.5" y="-1059.2" font-family="Helvetica,sans-Serif" font-size="11.00">varchar[120]</text>
<polygon fill="none" stroke="black" points="10.5,-1029 10.5,-1051 306.5,-1051 306.5,-1029 10.5,-1029"/>
<text text-anchor="start" x="30.5" y="-1037.2" font-family="Helvetica,sans-Serif" font-size="11.00">m_freightcategory_id</text>
<polygon fill="none" stroke="black" points="306.5,-1029 306.5,-1051 389.5,-1051 389.5,-1029 306.5,-1029"/>
<text text-anchor="start" x="309.5" y="-1037.2" font-family="Helvetica,sans-Serif" font-size="11.00">numeric[10]</text>
<polygon fill="none" stroke="black" points="10.5,-1007 10.5,-1029 306.5,-1029 306.5,-1007 10.5,-1007"/>
<text text-anchor="start" x="30.5" y="-1015.2" font-family="Helvetica,sans-Serif" font-size="11.00">m_locator_id</text>
<polygon fill="none" stroke="black" points="306.5,-1007 306.5,-1029 389.5,-1029 389.5,-1007 306.5,-1007"/>
<text text-anchor="start" x="309.5" y="-1015.2" font-family="Helvetica,sans-Serif" font-size="11.00">numeric[10]</text>
<polygon fill="none" stroke="black" points="10.5,-985 10.5,-1007 306.5,-1007 306.5,-985 10.5,-985"/>
<text text-anchor="start" x="30.5" y="-993.2" font-family="Helvetica,sans-Serif" font-size="11.00">guaranteedaysmin</text>
<polygon fill="none" stroke="black" points="306.5,-985 306.5,-1007 389.5,-1007 389.5,-985 306.5,-985"/>
<text text-anchor="start" x="309.5" y="-993.2" font-family="Helvetica,sans-Serif" font-size="11.00">numeric[10]</text>
<polygon fill="none" stroke="black" points="10.5,-963 10.5,-985 306.5,-985 306.5,-963 10.5,-963"/>
<text text-anchor="start" x="30.5" y="-971.2" font-family="Helvetica,sans-Serif" font-size="11.00">iswebstorefeatured</text>
<polygon fill="none" stroke="black" points="306.5,-963 306.5,-985 389.5,-985 389.5,-963 306.5,-963"/>
<text text-anchor="start" x="309.5" y="-971.2" font-family="Helvetica,sans-Serif" font-size="11.00">bpchar[1]</text>
<polygon fill="none" stroke="black" points="10.5,-941 10.5,-963 306.5,-963 306.5,-941 10.5,-941"/>
<text text-anchor="start" x="30.5" y="-949.2" font-family="Helvetica,sans-Serif" font-size="11.00">isselfservice</text>
<polygon fill="none" stroke="black" points="306.5,-941 306.5,-963 389.5,-963 389.5,-941 306.5,-941"/>
<text text-anchor="start" x="309.5" y="-949.2" font-family="Helvetica,sans-Serif" font-size="11.00">bpchar[1]</text>
<polygon fill="none" stroke="black" points="10.5,-919 10.5,-941 306.5,-941 306.5,-919 10.5,-919"/>
<text text-anchor="start" x="30.5" y="-927.2" font-family="Helvetica,sans-Serif" font-size="11.00">c_subscriptiontype_id</text>
<polygon fill="none" stroke="black" points="306.5,-919 306.5,-941 389.5,-941 389.5,-919 306.5,-919"/>
<text text-anchor="start" x="309.5" y="-927.2" font-family="Helvetica,sans-Serif" font-size="11.00">numeric[10]</text>
<polygon fill="none" stroke="black" points="10.5,-897 10.5,-919 306.5,-919 306.5,-897 10.5,-897"/>
<text text-anchor="start" x="30.5" y="-905.2" font-family="Helvetica,sans-Serif" font-size="11.00">isdropship</text>
<polygon fill="none" stroke="black" points="306.5,-897 306.5,-919 389.5,-919 389.5,-897 306.5,-897"/>
<text text-anchor="start" x="309.5" y="-905.2" font-family="Helvetica,sans-Serif" font-size="11.00">bpchar[1]</text>
<polygon fill="none" stroke="black" points="10.5,-875 10.5,-897 306.5,-897 306.5,-875 10.5,-875"/>
<text text-anchor="start" x="30.5" y="-883.2" font-family="Helvetica,sans-Serif" font-size="11.00">isexcludeautodelivery</text>
<polygon fill="none" stroke="black" points="306.5,-875 306.5,-897 389.5,-897 389.5,-875 306.5,-875"/>
<text text-anchor="start" x="309.5" y="-883.2" font-family="Helvetica,sans-Serif" font-size="11.00">bpchar[1]</text>
<polygon fill="none" stroke="black" points="10.5,-853 10.5,-875 306.5,-875 306.5,-853 10.5,-853"/>
<text text-anchor="start" x="30.5" y="-861.2" font-family="Helvetica,sans-Serif" font-size="11.00">group1</text>
<polygon fill="none" stroke="black" points="306.5,-853 306.5,-875 389.5,-875 389.5,-853 306.5,-853"/>
<text text-anchor="start" x="309.5" y="-861.2" font-family="Helvetica,sans-Serif" font-size="11.00">varchar[255]</text>
<polygon fill="none" stroke="black" points="10.5,-831 10.5,-853 306.5,-853 306.5,-831 10.5,-831"/>
<text text-anchor="start" x="30.5" y="-839.2" font-family="Helvetica,sans-Serif" font-size="11.00">group2</text>
<polygon fill="none" stroke="black" points="306.5,-831 306.5,-853 389.5,-853 389.5,-831 306.5,-831"/>
<text text-anchor="start" x="309.5" y="-839.2" font-family="Helvetica,sans-Serif" font-size="11.00">varchar[255]</text>
<polygon fill="none" stroke="black" points="10.5,-809 10.5,-831 306.5,-831 306.5,-809 10.5,-809"/>
<text text-anchor="start" x="30.5" y="-817.2" font-family="Helvetica,sans-Serif" font-size="11.00">istoformule</text>
<polygon fill="none" stroke="black" points="306.5,-809 306.5,-831 389.5,-831 389.5,-809 306.5,-809"/>
<text text-anchor="start" x="309.5" y="-817.2" font-family="Helvetica,sans-Serif" font-size="11.00">bpchar[1]</text>
<polygon fill="none" stroke="black" points="10.5,-787 10.5,-809 306.5,-809 306.5,-787 10.5,-787"/>
<text text-anchor="start" x="30.5" y="-795.2" font-family="Helvetica,sans-Serif" font-size="11.00">lowlevel</text>
<polygon fill="none" stroke="black" points="306.5,-787 306.5,-809 389.5,-809 389.5,-787 306.5,-787"/>
<text text-anchor="start" x="309.5" y="-795.2" font-family="Helvetica,sans-Serif" font-size="11.00">numeric[10]</text>
<polygon fill="none" stroke="black" points="10.5,-765 10.5,-787 306.5,-787 306.5,-765 10.5,-765"/>
<text text-anchor="start" x="30.5" y="-773.2" font-family="Helvetica,sans-Serif" font-size="11.00">unitsperpack</text>
<polygon fill="none" stroke="black" points="306.5,-765 306.5,-787 389.5,-787 389.5,-765 306.5,-765"/>
<text text-anchor="start" x="309.5" y="-773.2" font-family="Helvetica,sans-Serif" font-size="11.00">numeric[10]</text>
<polygon fill="none" stroke="black" points="10.5,-743 10.5,-765 306.5,-765 306.5,-743 10.5,-743"/>
<text text-anchor="start" x="30.5" y="-751.2" font-family="Helvetica,sans-Serif" font-size="11.00">discontinuedat</text>
<polygon fill="none" stroke="black" points="306.5,-743 306.5,-765 389.5,-765 389.5,-743 306.5,-743"/>
<text text-anchor="start" x="309.5" y="-751.2" font-family="Helvetica,sans-Serif" font-size="11.00">timestamp[29,6]</text>
<polygon fill="none" stroke="black" points="10.5,-721 10.5,-743 306.5,-743 306.5,-721 10.5,-721"/>
<text text-anchor="start" x="30.5" y="-729.2" font-family="Helvetica,sans-Serif" font-size="11.00">copyfrom</text>
<polygon fill="none" stroke="black" points="306.5,-721 306.5,-743 389.5,-743 389.5,-721 306.5,-721"/>
<text text-anchor="start" x="309.5" y="-729.2" font-family="Helvetica,sans-Serif" font-size="11.00">bpchar[1]</text>
<polygon fill="none" stroke="black" points="10.5,-699 10.5,-721 306.5,-721 306.5,-699 10.5,-699"/>
<text text-anchor="start" x="30.5" y="-707.2" font-family="Helvetica,sans-Serif" font-size="11.00">m_product_uu</text>
<polygon fill="none" stroke="black" points="306.5,-699 306.5,-721 389.5,-721 389.5,-699 306.5,-699"/>
<text text-anchor="start" x="309.5" y="-707.2" font-family="Helvetica,sans-Serif" font-size="11.00">varchar[36]</text>
<polygon fill="none" stroke="black" points="10.5,-677 10.5,-699 306.5,-699 306.5,-677 10.5,-677"/>
<text text-anchor="start" x="30.5" y="-685.2" font-family="Helvetica,sans-Serif" font-size="11.00">m_parttype_id</text>
<polygon fill="none" stroke="black" points="306.5,-677 306.5,-699 389.5,-699 389.5,-677 306.5,-677"/>
<text text-anchor="start" x="309.5" y="-685.2" font-family="Helvetica,sans-Serif" font-size="11.00">numeric[10]</text>
<polygon fill="none" stroke="black" points="10.5,-655 10.5,-677 306.5,-677 306.5,-655 10.5,-655"/>
<text text-anchor="start" x="30.5" y="-663.2" font-family="Helvetica,sans-Serif" font-size="11.00">iskanban</text>
<polygon fill="none" stroke="black" points="306.5,-655 306.5,-677 389.5,-677 389.5,-655 306.5,-655"/>
<text text-anchor="start" x="309.5" y="-663.2" font-family="Helvetica,sans-Serif" font-size="11.00">bpchar[1]</text>
<polygon fill="none" stroke="black" points="10.5,-633 10.5,-655 306.5,-655 306.5,-633 10.5,-633"/>
<text text-anchor="start" x="30.5" y="-641.2" font-family="Helvetica,sans-Serif" font-size="11.00">ismanufactured</text>
<polygon fill="none" stroke="black" points="306.5,-633 306.5,-655 389.5,-655 389.5,-633 306.5,-633"/>
<text text-anchor="start" x="309.5" y="-641.2" font-family="Helvetica,sans-Serif" font-size="11.00">bpchar[1]</text>
<polygon fill="none" stroke="black" points="10.5,-611 10.5,-633 306.5,-633 306.5,-611 10.5,-611"/>
<text text-anchor="start" x="30.5" y="-619.2" font-family="Helvetica,sans-Serif" font-size="11.00">isphantom</text>
<polygon fill="none" stroke="black" points="306.5,-611 306.5,-633 389.5,-633 389.5,-611 306.5,-611"/>
<text text-anchor="start" x="309.5" y="-619.2" font-family="Helvetica,sans-Serif" font-size="11.00">bpchar[1]</text>
<polygon fill="none" stroke="black" points="10.5,-589 10.5,-611 306.5,-611 306.5,-589 10.5,-589"/>
<text text-anchor="start" x="30.5" y="-597.2" font-family="Helvetica,sans-Serif" font-size="11.00">isownbox</text>
<polygon fill="none" stroke="black" points="306.5,-589 306.5,-611 389.5,-611 389.5,-589 306.5,-589"/>
<text text-anchor="start" x="309.5" y="-597.2" font-family="Helvetica,sans-Serif" font-size="11.00">bpchar[1]</text>
<polygon fill="none" stroke="black" points="10.5,-567 10.5,-589 306.5,-589 306.5,-567 10.5,-567"/>
<text text-anchor="start" x="30.5" y="-575.2" font-family="Helvetica,sans-Serif" font-size="11.00">lbr_productcategory_id</text>
<polygon fill="none" stroke="black" points="306.5,-567 306.5,-589 389.5,-589 389.5,-567 306.5,-567"/>
<text text-anchor="start" x="309.5" y="-575.2" font-family="Helvetica,sans-Serif" font-size="11.00">numeric[10]</text>
<polygon fill="none" stroke="black" points="10.5,-545 10.5,-567 306.5,-567 306.5,-545 10.5,-545"/>
<text text-anchor="start" x="30.5" y="-553.2" font-family="Helvetica,sans-Serif" font-size="11.00">lbr_ismanufactured</text>
<polygon fill="none" stroke="black" points="306.5,-545 306.5,-567 389.5,-567 389.5,-545 306.5,-545"/>
<text text-anchor="start" x="309.5" y="-553.2" font-family="Helvetica,sans-Serif" font-size="11.00">bpchar[1]</text>
<polygon fill="none" stroke="black" points="10.5,-523 10.5,-545 306.5,-545 306.5,-523 10.5,-523"/>
<text text-anchor="start" x="30.5" y="-531.2" font-family="Helvetica,sans-Serif" font-size="11.00">lbr_ncm_id</text>
<polygon fill="none" stroke="black" points="306.5,-523 306.5,-545 389.5,-545 389.5,-523 306.5,-523"/>
<text text-anchor="start" x="309.5" y="-531.2" font-family="Helvetica,sans-Serif" font-size="11.00">numeric[10]</text>
<polygon fill="none" stroke="black" points="10.5,-501 10.5,-523 306.5,-523 306.5,-501 10.5,-501"/>
<text text-anchor="start" x="30.5" y="-509.2" font-family="Helvetica,sans-Serif" font-size="11.00">lbr_fiscalgroup_product_id</text>
<polygon fill="none" stroke="black" points="306.5,-501 306.5,-523 389.5,-523 389.5,-501 306.5,-501"/>
<text text-anchor="start" x="309.5" y="-509.2" font-family="Helvetica,sans-Serif" font-size="11.00">numeric[10]</text>
<polygon fill="none" stroke="black" points="10.5,-479 10.5,-501 306.5,-501 306.5,-479 10.5,-479"/>
<text text-anchor="start" x="30.5" y="-487.2" font-family="Helvetica,sans-Serif" font-size="11.00">lbr_hassubstitution</text>
<polygon fill="none" stroke="black" points="306.5,-479 306.5,-501 389.5,-501 389.5,-479 306.5,-479"/>
<text text-anchor="start" x="309.5" y="-487.2" font-family="Helvetica,sans-Serif" font-size="11.00">bpchar[1]</text>
<polygon fill="none" stroke="black" points="10.5,-457 10.5,-479 306.5,-479 306.5,-457 10.5,-457"/>
<text text-anchor="start" x="30.5" y="-465.2" font-family="Helvetica,sans-Serif" font-size="11.00">lbr_productsource</text>
<polygon fill="none" stroke="black" points="306.5,-457 306.5,-479 389.5,-479 389.5,-457 306.5,-457"/>
<text text-anchor="start" x="309.5" y="-465.2" font-family="Helvetica,sans-Serif" font-size="11.00">bpchar[1]</text>
<polygon fill="none" stroke="black" points="10.5,-435 10.5,-457 306.5,-457 306.5,-435 10.5,-435"/>
<text text-anchor="start" x="30.5" y="-443.2" font-family="Helvetica,sans-Serif" font-size="11.00">lbr_servicecode</text>
<polygon fill="none" stroke="black" points="306.5,-435 306.5,-457 389.5,-457 389.5,-435 306.5,-435"/>
<text text-anchor="start" x="309.5" y="-443.2" font-family="Helvetica,sans-Serif" font-size="11.00">varchar[20]</text>
<polygon fill="none" stroke="black" points="10.5,-413 10.5,-435 306.5,-435 306.5,-413 10.5,-413"/>
<text text-anchor="start" x="30.5" y="-421.2" font-family="Helvetica,sans-Serif" font-size="11.00">cof_specificproduct</text>
<polygon fill="none" stroke="black" points="306.5,-413 306.5,-435 389.5,-435 389.5,-413 306.5,-413"/>
<text text-anchor="start" x="309.5" y="-421.2" font-family="Helvetica,sans-Serif" font-size="11.00">varchar[2]</text>
<polygon fill="none" stroke="black" points="10.5,-391 10.5,-413 306.5,-413 306.5,-391 10.5,-391"/>
<text text-anchor="start" x="30.5" y="-399.2" font-family="Helvetica,sans-Serif" font-size="11.00">cof_cest_id</text>
<polygon fill="none" stroke="black" points="306.5,-391 306.5,-413 389.5,-413 389.5,-391 306.5,-391"/>
<text text-anchor="start" x="309.5" y="-399.2" font-family="Helvetica,sans-Serif" font-size="11.00">numeric[10]</text>
<polygon fill="none" stroke="black" points="10.5,-369 10.5,-391 306.5,-391 306.5,-369 10.5,-369"/>
<text text-anchor="start" x="30.5" y="-377.2" font-family="Helvetica,sans-Serif" font-size="11.00">cof_nfci</text>
<polygon fill="none" stroke="black" points="306.5,-369 306.5,-391 389.5,-391 389.5,-369 306.5,-369"/>
<text text-anchor="start" x="309.5" y="-377.2" font-family="Helvetica,sans-Serif" font-size="11.00">varchar[36]</text>
<polygon fill="none" stroke="black" points="10.5,-347 10.5,-369 306.5,-369 306.5,-347 10.5,-347"/>
<text text-anchor="start" x="30.5" y="-355.2" font-family="Helvetica,sans-Serif" font-size="11.00">cof_isgenericitem</text>
<polygon fill="none" stroke="black" points="306.5,-347 306.5,-369 389.5,-369 389.5,-347 306.5,-347"/>
<text text-anchor="start" x="309.5" y="-355.2" font-family="Helvetica,sans-Serif" font-size="11.00">bpchar[1]</text>
<polygon fill="none" stroke="black" points="10.5,-325 10.5,-347 306.5,-347 306.5,-325 10.5,-325"/>
<text text-anchor="start" x="30.5" y="-333.2" font-family="Helvetica,sans-Serif" font-size="11.00">cof_producttype</text>
<polygon fill="none" stroke="black" points="306.5,-325 306.5,-347 389.5,-347 389.5,-325 306.5,-325"/>
<text text-anchor="start" x="309.5" y="-333.2" font-family="Helvetica,sans-Serif" font-size="11.00">varchar[2]</text>
<polygon fill="none" stroke="black" points="10.5,-303 10.5,-325 306.5,-325 306.5,-303 10.5,-303"/>
<text text-anchor="start" x="30.5" y="-311.2" font-family="Helvetica,sans-Serif" font-size="11.00">cof_c_generoitem_sped_id</text>
<polygon fill="none" stroke="black" points="306.5,-303 306.5,-325 389.5,-325 389.5,-303 306.5,-303"/>
<text text-anchor="start" x="309.5" y="-311.2" font-family="Helvetica,sans-Serif" font-size="11.00">numeric[10]</text>
<polygon fill="none" stroke="black" points="10.5,-281 10.5,-303 306.5,-303 306.5,-281 10.5,-281"/>
<text text-anchor="start" x="30.5" y="-289.2" font-family="Helvetica,sans-Serif" font-size="11.00">cof_isnve</text>
<polygon fill="none" stroke="black" points="306.5,-281 306.5,-303 389.5,-303 389.5,-281 306.5,-281"/>
<text text-anchor="start" x="309.5" y="-289.2" font-family="Helvetica,sans-Serif" font-size="11.00">bpchar[1]</text>
<polygon fill="none" stroke="black" points="10.5,-259 10.5,-281 306.5,-281 306.5,-259 10.5,-259"/>
<text text-anchor="start" x="30.5" y="-267.2" font-family="Helvetica,sans-Serif" font-size="11.00">cof_isfci</text>
<polygon fill="none" stroke="black" points="306.5,-259 306.5,-281 389.5,-281 389.5,-259 306.5,-259"/>
<text text-anchor="start" x="309.5" y="-267.2" font-family="Helvetica,sans-Serif" font-size="11.00">bpchar[1]</text>
<polygon fill="none" stroke="black" points="10.5,-237 10.5,-259 306.5,-259 306.5,-237 10.5,-237"/>
<text text-anchor="start" x="30.5" y="-245.2" font-family="Helvetica,sans-Serif" font-size="11.00">cof_producttype_id</text>
<polygon fill="none" stroke="black" points="306.5,-237 306.5,-259 389.5,-259 389.5,-237 306.5,-237"/>
<text text-anchor="start" x="309.5" y="-245.2" font-family="Helvetica,sans-Serif" font-size="11.00">numeric[10]</text>
<polygon fill="none" stroke="black" points="10.5,-215 10.5,-237 306.5,-237 306.5,-215 10.5,-215"/>
<text text-anchor="start" x="30.5" y="-223.2" font-family="Helvetica,sans-Serif" font-size="11.00">cof_productclass_id</text>
<polygon fill="none" stroke="black" points="306.5,-215 306.5,-237 389.5,-237 389.5,-215 306.5,-215"/>
<text text-anchor="start" x="309.5" y="-223.2" font-family="Helvetica,sans-Serif" font-size="11.00">numeric[10]</text>
<polygon fill="none" stroke="black" points="10.5,-193 10.5,-215 306.5,-215 306.5,-193 10.5,-193"/>
<text text-anchor="start" x="30.5" y="-201.2" font-family="Helvetica,sans-Serif" font-size="11.00">cof_productgroup_id</text>
<polygon fill="none" stroke="black" points="306.5,-193 306.5,-215 389.5,-215 389.5,-193 306.5,-193"/>
<text text-anchor="start" x="309.5" y="-201.2" font-family="Helvetica,sans-Serif" font-size="11.00">numeric[10]</text>
<polygon fill="none" stroke="black" points="10.5,-171 10.5,-193 306.5,-193 306.5,-171 10.5,-171"/>
<text text-anchor="start" x="30.5" y="-179.2" font-family="Helvetica,sans-Serif" font-size="11.00">cof_maxtolerance</text>
<polygon fill="none" stroke="black" points="306.5,-171 306.5,-193 389.5,-193 389.5,-171 306.5,-171"/>
<text text-anchor="start" x="309.5" y="-179.2" font-family="Helvetica,sans-Serif" font-size="11.00">numeric[0]</text>
<polygon fill="none" stroke="black" points="10.5,-149 10.5,-171 306.5,-171 306.5,-149 10.5,-149"/>
<text text-anchor="start" x="30.5" y="-157.2" font-family="Helvetica,sans-Serif" font-size="11.00">cof_mintolerance</text>
<polygon fill="none" stroke="black" points="306.5,-149 306.5,-171 389.5,-171 389.5,-149 306.5,-149"/>
<text text-anchor="start" x="309.5" y="-157.2" font-family="Helvetica,sans-Serif" font-size="11.00">numeric[0]</text>
<polygon fill="none" stroke="black" points="10.5,-127 10.5,-149 306.5,-149 306.5,-127 10.5,-127"/>
<text text-anchor="start" x="30.5" y="-135.2" font-family="Helvetica,sans-Serif" font-size="11.00">cof_conversionfactor1</text>
<polygon fill="none" stroke="black" points="306.5,-127 306.5,-149 389.5,-149 389.5,-127 306.5,-127"/>
<text text-anchor="start" x="309.5" y="-135.2" font-family="Helvetica,sans-Serif" font-size="11.00">numeric[0]</text>
<polygon fill="none" stroke="black" points="10.5,-105 10.5,-127 306.5,-127 306.5,-105 10.5,-105"/>
<text text-anchor="start" x="30.5" y="-113.2" font-family="Helvetica,sans-Serif" font-size="11.00">cof_conversionfactor2</text>
<polygon fill="none" stroke="black" points="306.5,-105 306.5,-127 389.5,-127 389.5,-105 306.5,-105"/>
<text text-anchor="start" x="309.5" y="-113.2" font-family="Helvetica,sans-Serif" font-size="11.00">numeric[0]</text>
<polygon fill="none" stroke="black" points="10.5,-83 10.5,-105 306.5,-105 306.5,-83 10.5,-83"/>
<text text-anchor="start" x="30.5" y="-91.2" font-family="Helvetica,sans-Serif" font-size="11.00">cof_netweight</text>
<polygon fill="none" stroke="black" points="306.5,-83 306.5,-105 389.5,-105 389.5,-83 306.5,-83"/>
<text text-anchor="start" x="309.5" y="-91.2" font-family="Helvetica,sans-Serif" font-size="11.00">numeric[0]</text>
<polygon fill="none" stroke="black" points="10.5,-61 10.5,-83 306.5,-83 306.5,-61 10.5,-61"/>
<text text-anchor="start" x="30.5" y="-69.2" font-family="Helvetica,sans-Serif" font-size="11.00">cof_abc</text>
<polygon fill="none" stroke="black" points="306.5,-61 306.5,-83 389.5,-83 389.5,-61 306.5,-61"/>
<text text-anchor="start" x="309.5" y="-69.2" font-family="Helvetica,sans-Serif" font-size="11.00">varchar[2]</text>
<polygon fill="none" stroke="black" points="10.5,-39 10.5,-61 306.5,-61 306.5,-39 10.5,-39"/>
<text text-anchor="start" x="30.5" y="-47.2" font-family="Helvetica,sans-Serif" font-size="11.00">cof_qtymincomercial</text>
<polygon fill="none" stroke="black" points="306.5,-39 306.5,-61 389.5,-61 389.5,-39 306.5,-39"/>
<text text-anchor="start" x="309.5" y="-47.2" font-family="Helvetica,sans-Serif" font-size="11.00">numeric[0]</text>
<polygon fill="none" stroke="black" stroke-width="2" points="9,-38 9,-2152 390,-2152 390,-38 9,-38"/>
</a>
</g>
</g>
</g>
</svg>
