<?xml version="1.0" encoding="UTF-8" standalone="no"?>
<!DOCTYPE svg PUBLIC "-//W3C//DTD SVG 1.1//EN"
 "http://www.w3.org/Graphics/SVG/1.1/DTD/svg11.dtd">
<!-- Generated by graphviz version 2.43.0 (0)
 -->
<!-- Title: oneDegreeRelationshipsDiagram Pages: 1 -->
<svg width="1451pt" height="970pt"
 viewBox="0.00 0.00 1451.00 970.00" xmlns="http://www.w3.org/2000/svg" xmlns:xlink="http://www.w3.org/1999/xlink">
<g id="graph0" class="graph" transform="scale(1 1) rotate(0) translate(4 966)">
<title>oneDegreeRelationshipsDiagram</title>
<polygon fill="#ffffff" stroke="transparent" points="-4,4 -4,-966 1447,-966 1447,4 -4,4"/>
<text text-anchor="middle" x="71.5" y="-7.2" font-family="Helvetica,sans-Serif" font-size="11.00">Generated by SchemaSpy</text>
<!-- ad_org -->
<g id="node1" class="node">
<title>ad_org</title>
<g id="a_node1"><a xlink:href="../../tables/ad_org.html" xlink:title="ad_org" target="_top">
<polygon fill="#ffffff" stroke="transparent" points="302,-350 302,-540 508,-540 508,-350 302,-350"/>
<polygon fill="#f5f5f5" stroke="transparent" points="302,-518 302,-540 508,-540 508,-518 302,-518"/>
<polygon fill="none" stroke="black" points="302,-518 302,-540 508,-540 508,-518 302,-518"/>
<text text-anchor="start" x="307" y="-527.2" font-family="Helvetica,sans-Serif" font-weight="bold" font-size="11.00">ad_org</text>
<text text-anchor="start" x="473" y="-526.2" font-family="Helvetica,sans-Serif" font-size="11.00">[table]</text>
<polygon fill="none" stroke="black" points="302,-496 302,-518 508,-518 508,-496 302,-496"/>
<image xlink:href="../../images/primaryKeys.png" width="11px" height="12px" preserveAspectRatio="xMinYMin meet" x="307" y="-513"/>
<text text-anchor="start" x="322" y="-504.2" font-family="Helvetica,sans-Serif" font-size="11.00">ad_org_id</text>
<polygon fill="#ffffff" stroke="transparent" points="302,-474 302,-496 508,-496 508,-474 302,-474"/>
<polygon fill="none" stroke="black" points="302,-474 302,-496 508,-496 508,-474 302,-474"/>
<image xlink:href="../../images/foreignKeys.png" width="11px" height="12px" preserveAspectRatio="xMinYMin meet" x="307" y="-491"/>
<text text-anchor="start" x="322" y="-482.2" font-family="Helvetica,sans-Serif" font-size="11.00">ad_client_id</text>
<polygon fill="#ffffff" stroke="transparent" points="302,-452 302,-474 508,-474 508,-452 302,-452"/>
<polygon fill="none" stroke="black" points="302,-452 302,-474 508,-474 508,-452 302,-452"/>
<text text-anchor="start" x="322" y="-460.2" font-family="Helvetica,sans-Serif" font-size="11.00">value</text>
<polygon fill="none" stroke="black" points="302,-430 302,-452 508,-452 508,-430 302,-430"/>
<image xlink:href="../../images/foreignKeys.png" width="11px" height="12px" preserveAspectRatio="xMinYMin meet" x="307" y="-447"/>
<text text-anchor="start" x="322" y="-438.2" font-family="Helvetica,sans-Serif" font-size="11.00">ad_replicationstrategy_id</text>
<polygon fill="#ffffff" stroke="transparent" points="302,-408 302,-430 508,-430 508,-408 302,-408"/>
<polygon fill="none" stroke="black" points="302,-408 302,-430 508,-430 508,-408 302,-408"/>
<text text-anchor="start" x="322" y="-416.2" font-family="Helvetica,sans-Serif" font-size="11.00">ad_org_uu</text>
<polygon fill="none" stroke="black" points="302,-386 302,-408 508,-408 508,-386 302,-386"/>
<image xlink:href="../../images/foreignKeys.png" width="11px" height="12px" preserveAspectRatio="xMinYMin meet" x="307" y="-403"/>
<text text-anchor="start" x="322" y="-394.2" font-family="Helvetica,sans-Serif" font-size="11.00">cof_c_snrange_id</text>
<polygon fill="none" stroke="black" points="302,-368 302,-386 508,-386 508,-368 302,-368"/>
<text text-anchor="start" x="305" y="-374.2" font-family="Helvetica,sans-Serif" font-size="11.00">...</text>
<polygon fill="#ffffff" stroke="transparent" points="302,-350 302,-368 508,-368 508,-350 302,-350"/>
<polygon fill="none" stroke="black" points="302,-350 302,-368 508,-368 508,-350 302,-350"/>
<polygon fill="#ffffff" stroke="transparent" points="303,-351 303,-367 362,-367 362,-351 303,-351"/>
<text text-anchor="start" x="305" y="-356.2" font-family="Helvetica,sans-Serif" font-size="11.00">&lt; 3</text>
<polygon fill="#ffffff" stroke="transparent" points="362,-351 362,-367 437,-367 437,-351 362,-351"/>
<text text-anchor="start" x="383" y="-356.2" font-family="Helvetica,sans-Serif" font-size="11.00">3 rows</text>
<polygon fill="#ffffff" stroke="transparent" points="437,-351 437,-367 507,-367 507,-351 437,-351"/>
<text text-anchor="start" x="477" y="-356.2" font-family="Helvetica,sans-Serif" font-size="11.00">285 &gt;</text>
<polygon fill="black" stroke="black" points="362,-351 362,-367 362,-367 362,-351 362,-351"/>
<polygon fill="black" stroke="black" points="437,-351 437,-367 437,-367 437,-351 437,-351"/>
</a>
</g>
</g>
<!-- ad_client -->
<g id="node2" class="node">
<title>ad_client</title>
<g id="a_node2"><a xlink:href="../../tables/ad_client.html" xlink:title="ad_client" target="_top">
<polygon fill="#ffffff" stroke="transparent" points="8,-306 8,-518 253,-518 253,-306 8,-306"/>
<polygon fill="#f5f5f5" stroke="transparent" points="8.5,-496 8.5,-518 253.5,-518 253.5,-496 8.5,-496"/>
<polygon fill="none" stroke="black" points="8.5,-496 8.5,-518 253.5,-518 253.5,-496 8.5,-496"/>
<text text-anchor="start" x="13.5" y="-505.2" font-family="Helvetica,sans-Serif" font-weight="bold" font-size="11.00">ad_client</text>
<text text-anchor="start" x="218.5" y="-504.2" font-family="Helvetica,sans-Serif" font-size="11.00">[table]</text>
<polygon fill="none" stroke="black" points="8.5,-474 8.5,-496 253.5,-496 253.5,-474 8.5,-474"/>
<image xlink:href="../../images/primaryKeys.png" width="11px" height="12px" preserveAspectRatio="xMinYMin meet" x="13.5" y="-491"/>
<text text-anchor="start" x="28.5" y="-482.2" font-family="Helvetica,sans-Serif" font-size="11.00">ad_client_id</text>
<polygon fill="#ffffff" stroke="transparent" points="8.5,-452 8.5,-474 253.5,-474 253.5,-452 8.5,-452"/>
<polygon fill="none" stroke="black" points="8.5,-452 8.5,-474 253.5,-474 253.5,-452 8.5,-452"/>
<text text-anchor="start" x="28.5" y="-460.2" font-family="Helvetica,sans-Serif" font-size="11.00">value</text>
<polygon fill="none" stroke="black" points="8.5,-430 8.5,-452 253.5,-452 253.5,-430 8.5,-430"/>
<image xlink:href="../../images/foreignKeys.png" width="11px" height="12px" preserveAspectRatio="xMinYMin meet" x="13.5" y="-447"/>
<text text-anchor="start" x="28.5" y="-438.2" font-family="Helvetica,sans-Serif" font-size="11.00">ad_language</text>
<polygon fill="none" stroke="black" points="8.5,-408 8.5,-430 253.5,-430 253.5,-408 8.5,-408"/>
<image xlink:href="../../images/foreignKeys.png" width="11px" height="12px" preserveAspectRatio="xMinYMin meet" x="13.5" y="-425"/>
<text text-anchor="start" x="28.5" y="-416.2" font-family="Helvetica,sans-Serif" font-size="11.00">ad_replicationstrategy_id</text>
<polygon fill="#ffffff" stroke="transparent" points="8.5,-386 8.5,-408 253.5,-408 253.5,-386 8.5,-386"/>
<polygon fill="none" stroke="black" points="8.5,-386 8.5,-408 253.5,-408 253.5,-386 8.5,-386"/>
<text text-anchor="start" x="28.5" y="-394.2" font-family="Helvetica,sans-Serif" font-size="11.00">ad_client_uu</text>
<polygon fill="none" stroke="black" points="8.5,-364 8.5,-386 253.5,-386 253.5,-364 8.5,-364"/>
<image xlink:href="../../images/foreignKeys.png" width="11px" height="12px" preserveAspectRatio="xMinYMin meet" x="13.5" y="-381"/>
<text text-anchor="start" x="28.5" y="-372.2" font-family="Helvetica,sans-Serif" font-size="11.00">ad_passwordrule_id</text>
<polygon fill="#ffffff" stroke="transparent" points="8.5,-342 8.5,-364 253.5,-364 253.5,-342 8.5,-342"/>
<polygon fill="none" stroke="black" points="8.5,-342 8.5,-364 253.5,-364 253.5,-342 8.5,-342"/>
<text text-anchor="start" x="28.5" y="-350.2" font-family="Helvetica,sans-Serif" font-size="11.00">loginprefix</text>
<polygon fill="none" stroke="black" points="8.5,-324 8.5,-342 253.5,-342 253.5,-324 8.5,-324"/>
<text text-anchor="start" x="11.5" y="-330.2" font-family="Helvetica,sans-Serif" font-size="11.00">...</text>
<polygon fill="#ffffff" stroke="transparent" points="8.5,-306 8.5,-324 253.5,-324 253.5,-306 8.5,-306"/>
<polygon fill="none" stroke="black" points="8.5,-306 8.5,-324 253.5,-324 253.5,-306 8.5,-306"/>
<polygon fill="#ffffff" stroke="transparent" points="9.5,-307 9.5,-323 81.5,-323 81.5,-307 9.5,-307"/>
<text text-anchor="start" x="11.5" y="-312.2" font-family="Helvetica,sans-Serif" font-size="11.00">&lt; 3</text>
<polygon fill="#ffffff" stroke="transparent" points="81.5,-307 81.5,-323 169.5,-323 169.5,-307 81.5,-307"/>
<text text-anchor="start" x="109" y="-312.2" font-family="Helvetica,sans-Serif" font-size="11.00">2 rows</text>
<polygon fill="#ffffff" stroke="transparent" points="169.5,-307 169.5,-323 252.5,-323 252.5,-307 169.5,-307"/>
<text text-anchor="start" x="222.5" y="-312.2" font-family="Helvetica,sans-Serif" font-size="11.00">205 &gt;</text>
<polygon fill="black" stroke="black" points="81.5,-307 81.5,-323 81.5,-323 81.5,-307 81.5,-307"/>
<polygon fill="black" stroke="black" points="169.5,-307 169.5,-323 169.5,-323 169.5,-307 169.5,-307"/>
</a>
</g>
</g>
<!-- ad_org&#45;&gt;ad_client -->
<g id="edge1" class="edge">
<title>ad_org:w&#45;&gt;ad_client:e</title>
<path fill="none" stroke="black" d="M286.55,-485C276.2,-485 269.35,-485 254.5,-485"/>
<polygon fill="black" stroke="black" points="293,-485 301,-488.6 297,-485 301,-485 301,-485 301,-485 297,-485 301,-481.4 293,-485 293,-485"/>
<ellipse fill="none" stroke="black" cx="289.8" cy="-485" rx="3.2" ry="3.2"/>
</g>
<!-- c_bpartner -->
<g id="node3" class="node">
<title>c_bpartner</title>
<g id="a_node3"><a xlink:href="../../tables/c_bpartner.html" xlink:title="c_bpartner" target="_top">
<polygon fill="#ffffff" stroke="transparent" points="557,-218 557,-958 811,-958 811,-218 557,-218"/>
<polygon fill="#f5f5f5" stroke="transparent" points="557,-936 557,-958 811,-958 811,-936 557,-936"/>
<polygon fill="none" stroke="black" points="557,-936 557,-958 811,-958 811,-936 557,-936"/>
<text text-anchor="start" x="562" y="-945.2" font-family="Helvetica,sans-Serif" font-weight="bold" font-size="11.00">c_bpartner</text>
<text text-anchor="start" x="776" y="-944.2" font-family="Helvetica,sans-Serif" font-size="11.00">[table]</text>
<polygon fill="none" stroke="black" points="557,-914 557,-936 811,-936 811,-914 557,-914"/>
<image xlink:href="../../images/primaryKeys.png" width="11px" height="12px" preserveAspectRatio="xMinYMin meet" x="562" y="-931"/>
<text text-anchor="start" x="577" y="-922.2" font-family="Helvetica,sans-Serif" font-size="11.00">c_bpartner_id</text>
<polygon fill="#ffffff" stroke="transparent" points="557,-892 557,-914 811,-914 811,-892 557,-892"/>
<polygon fill="none" stroke="black" points="557,-892 557,-914 811,-914 811,-892 557,-892"/>
<image xlink:href="../../images/foreignKeys.png" width="11px" height="12px" preserveAspectRatio="xMinYMin meet" x="562" y="-909"/>
<text text-anchor="start" x="577" y="-900.2" font-family="Helvetica,sans-Serif" font-size="11.00">ad_client_id</text>
<polygon fill="none" stroke="black" points="557,-870 557,-892 811,-892 811,-870 557,-870"/>
<image xlink:href="../../images/foreignKeys.png" width="11px" height="12px" preserveAspectRatio="xMinYMin meet" x="562" y="-887"/>
<text text-anchor="start" x="577" y="-878.2" font-family="Helvetica,sans-Serif" font-size="11.00">ad_org_id</text>
<polygon fill="#ffffff" stroke="transparent" points="557,-848 557,-870 811,-870 811,-848 557,-848"/>
<polygon fill="none" stroke="black" points="557,-848 557,-870 811,-870 811,-848 557,-848"/>
<text text-anchor="start" x="577" y="-856.2" font-family="Helvetica,sans-Serif" font-size="11.00">value</text>
<polygon fill="#ffffff" stroke="transparent" points="557,-826 557,-848 811,-848 811,-826 557,-826"/>
<polygon fill="none" stroke="black" points="557,-826 557,-848 811,-848 811,-826 557,-826"/>
<text text-anchor="start" x="577" y="-834.2" font-family="Helvetica,sans-Serif" font-size="11.00">name</text>
<polygon fill="none" stroke="black" points="557,-804 557,-826 811,-826 811,-804 557,-804"/>
<image xlink:href="../../images/foreignKeys.png" width="11px" height="12px" preserveAspectRatio="xMinYMin meet" x="562" y="-821"/>
<text text-anchor="start" x="577" y="-812.2" font-family="Helvetica,sans-Serif" font-size="11.00">c_bp_group_id</text>
<polygon fill="none" stroke="black" points="557,-782 557,-804 811,-804 811,-782 557,-782"/>
<image xlink:href="../../images/foreignKeys.png" width="11px" height="12px" preserveAspectRatio="xMinYMin meet" x="562" y="-799"/>
<text text-anchor="start" x="577" y="-790.2" font-family="Helvetica,sans-Serif" font-size="11.00">ad_language</text>
<polygon fill="none" stroke="black" points="557,-760 557,-782 811,-782 811,-760 557,-760"/>
<image xlink:href="../../images/foreignKeys.png" width="11px" height="12px" preserveAspectRatio="xMinYMin meet" x="562" y="-777"/>
<text text-anchor="start" x="577" y="-768.2" font-family="Helvetica,sans-Serif" font-size="11.00">c_invoiceschedule_id</text>
<polygon fill="none" stroke="black" points="557,-738 557,-760 811,-760 811,-738 557,-738"/>
<image xlink:href="../../images/foreignKeys.png" width="11px" height="12px" preserveAspectRatio="xMinYMin meet" x="562" y="-755"/>
<text text-anchor="start" x="577" y="-746.2" font-family="Helvetica,sans-Serif" font-size="11.00">c_paymentterm_id</text>
<polygon fill="none" stroke="black" points="557,-716 557,-738 811,-738 811,-716 557,-716"/>
<image xlink:href="../../images/foreignKeys.png" width="11px" height="12px" preserveAspectRatio="xMinYMin meet" x="562" y="-733"/>
<text text-anchor="start" x="577" y="-724.2" font-family="Helvetica,sans-Serif" font-size="11.00">m_pricelist_id</text>
<polygon fill="none" stroke="black" points="557,-694 557,-716 811,-716 811,-694 557,-694"/>
<image xlink:href="../../images/foreignKeys.png" width="11px" height="12px" preserveAspectRatio="xMinYMin meet" x="562" y="-711"/>
<text text-anchor="start" x="577" y="-702.2" font-family="Helvetica,sans-Serif" font-size="11.00">m_discountschema_id</text>
<polygon fill="none" stroke="black" points="557,-672 557,-694 811,-694 811,-672 557,-672"/>
<image xlink:href="../../images/foreignKeys.png" width="11px" height="12px" preserveAspectRatio="xMinYMin meet" x="562" y="-689"/>
<text text-anchor="start" x="577" y="-680.2" font-family="Helvetica,sans-Serif" font-size="11.00">c_dunning_id</text>
<polygon fill="none" stroke="black" points="557,-650 557,-672 811,-672 811,-650 557,-650"/>
<image xlink:href="../../images/foreignKeys.png" width="11px" height="12px" preserveAspectRatio="xMinYMin meet" x="562" y="-667"/>
<text text-anchor="start" x="577" y="-658.2" font-family="Helvetica,sans-Serif" font-size="11.00">po_pricelist_id</text>
<polygon fill="none" stroke="black" points="557,-628 557,-650 811,-650 811,-628 557,-628"/>
<image xlink:href="../../images/foreignKeys.png" width="11px" height="12px" preserveAspectRatio="xMinYMin meet" x="562" y="-645"/>
<text text-anchor="start" x="577" y="-636.2" font-family="Helvetica,sans-Serif" font-size="11.00">po_discountschema_id</text>
<polygon fill="none" stroke="black" points="557,-606 557,-628 811,-628 811,-606 557,-606"/>
<image xlink:href="../../images/foreignKeys.png" width="11px" height="12px" preserveAspectRatio="xMinYMin meet" x="562" y="-623"/>
<text text-anchor="start" x="577" y="-614.2" font-family="Helvetica,sans-Serif" font-size="11.00">po_paymentterm_id</text>
<polygon fill="none" stroke="black" points="557,-584 557,-606 811,-606 811,-584 557,-584"/>
<image xlink:href="../../images/foreignKeys.png" width="11px" height="12px" preserveAspectRatio="xMinYMin meet" x="562" y="-601"/>
<text text-anchor="start" x="577" y="-592.2" font-family="Helvetica,sans-Serif" font-size="11.00">c_greeting_id</text>
<polygon fill="none" stroke="black" points="557,-562 557,-584 811,-584 811,-562 557,-562"/>
<image xlink:href="../../images/foreignKeys.png" width="11px" height="12px" preserveAspectRatio="xMinYMin meet" x="562" y="-579"/>
<text text-anchor="start" x="577" y="-570.2" font-family="Helvetica,sans-Serif" font-size="11.00">salesrep_id</text>
<polygon fill="none" stroke="black" points="557,-540 557,-562 811,-562 811,-540 557,-540"/>
<image xlink:href="../../images/foreignKeys.png" width="11px" height="12px" preserveAspectRatio="xMinYMin meet" x="562" y="-557"/>
<text text-anchor="start" x="577" y="-548.2" font-family="Helvetica,sans-Serif" font-size="11.00">bpartner_parent_id</text>
<polygon fill="none" stroke="black" points="557,-518 557,-540 811,-540 811,-518 557,-518"/>
<image xlink:href="../../images/foreignKeys.png" width="11px" height="12px" preserveAspectRatio="xMinYMin meet" x="562" y="-535"/>
<text text-anchor="start" x="577" y="-526.2" font-family="Helvetica,sans-Serif" font-size="11.00">invoice_printformat_id</text>
<polygon fill="#ffffff" stroke="transparent" points="557,-496 557,-518 811,-518 811,-496 557,-496"/>
<polygon fill="none" stroke="black" points="557,-496 557,-518 811,-518 811,-496 557,-496"/>
<image xlink:href="../../images/foreignKeys.png" width="11px" height="12px" preserveAspectRatio="xMinYMin meet" x="562" y="-513"/>
<text text-anchor="start" x="577" y="-504.2" font-family="Helvetica,sans-Serif" font-size="11.00">ad_orgbp_id</text>
<polygon fill="none" stroke="black" points="557,-474 557,-496 811,-496 811,-474 557,-474"/>
<image xlink:href="../../images/foreignKeys.png" width="11px" height="12px" preserveAspectRatio="xMinYMin meet" x="562" y="-491"/>
<text text-anchor="start" x="577" y="-482.2" font-family="Helvetica,sans-Serif" font-size="11.00">c_taxgroup_id</text>
<polygon fill="none" stroke="black" points="557,-452 557,-474 811,-474 811,-452 557,-452"/>
<image xlink:href="../../images/foreignKeys.png" width="11px" height="12px" preserveAspectRatio="xMinYMin meet" x="562" y="-469"/>
<text text-anchor="start" x="577" y="-460.2" font-family="Helvetica,sans-Serif" font-size="11.00">logo_id</text>
<polygon fill="#ffffff" stroke="transparent" points="557,-430 557,-452 811,-452 811,-430 557,-430"/>
<polygon fill="none" stroke="black" points="557,-430 557,-452 811,-452 811,-430 557,-430"/>
<text text-anchor="start" x="577" y="-438.2" font-family="Helvetica,sans-Serif" font-size="11.00">c_bpartner_uu</text>
<polygon fill="none" stroke="black" points="557,-408 557,-430 811,-430 811,-408 557,-408"/>
<image xlink:href="../../images/foreignKeys.png" width="11px" height="12px" preserveAspectRatio="xMinYMin meet" x="562" y="-425"/>
<text text-anchor="start" x="577" y="-416.2" font-family="Helvetica,sans-Serif" font-size="11.00">default1099box_id</text>
<polygon fill="none" stroke="black" points="557,-386 557,-408 811,-408 811,-386 557,-386"/>
<image xlink:href="../../images/foreignKeys.png" width="11px" height="12px" preserveAspectRatio="xMinYMin meet" x="562" y="-403"/>
<text text-anchor="start" x="577" y="-394.2" font-family="Helvetica,sans-Serif" font-size="11.00">cof_c_custody_id</text>
<polygon fill="none" stroke="black" points="557,-364 557,-386 811,-386 811,-364 557,-364"/>
<image xlink:href="../../images/foreignKeys.png" width="11px" height="12px" preserveAspectRatio="xMinYMin meet" x="562" y="-381"/>
<text text-anchor="start" x="577" y="-372.2" font-family="Helvetica,sans-Serif" font-size="11.00">cof_doctypepurchase_id</text>
<polygon fill="none" stroke="black" points="557,-342 557,-364 811,-364 811,-342 557,-342"/>
<image xlink:href="../../images/foreignKeys.png" width="11px" height="12px" preserveAspectRatio="xMinYMin meet" x="562" y="-359"/>
<text text-anchor="start" x="577" y="-350.2" font-family="Helvetica,sans-Serif" font-size="11.00">cof_doctypesale_id</text>
<polygon fill="none" stroke="black" points="557,-320 557,-342 811,-342 811,-320 557,-320"/>
<image xlink:href="../../images/foreignKeys.png" width="11px" height="12px" preserveAspectRatio="xMinYMin meet" x="562" y="-337"/>
<text text-anchor="start" x="577" y="-328.2" font-family="Helvetica,sans-Serif" font-size="11.00">cof_grupofornecedor_id</text>
<polygon fill="none" stroke="black" points="557,-298 557,-320 811,-320 811,-298 557,-298"/>
<image xlink:href="../../images/foreignKeys.png" width="11px" height="12px" preserveAspectRatio="xMinYMin meet" x="562" y="-315"/>
<text text-anchor="start" x="577" y="-306.2" font-family="Helvetica,sans-Serif" font-size="11.00">cof_vendedorinterno_id</text>
<polygon fill="none" stroke="black" points="557,-276 557,-298 811,-298 811,-276 557,-276"/>
<image xlink:href="../../images/foreignKeys.png" width="11px" height="12px" preserveAspectRatio="xMinYMin meet" x="562" y="-293"/>
<text text-anchor="start" x="577" y="-284.2" font-family="Helvetica,sans-Serif" font-size="11.00">cof_tipoparceiro_id</text>
<polygon fill="none" stroke="black" points="557,-254 557,-276 811,-276 811,-254 557,-254"/>
<image xlink:href="../../images/foreignKeys.png" width="11px" height="12px" preserveAspectRatio="xMinYMin meet" x="562" y="-271"/>
<text text-anchor="start" x="577" y="-262.2" font-family="Helvetica,sans-Serif" font-size="11.00">cof_classeparceiro_id</text>
<polygon fill="none" stroke="black" points="557,-236 557,-254 811,-254 811,-236 557,-236"/>
<text text-anchor="start" x="560" y="-242.2" font-family="Helvetica,sans-Serif" font-size="11.00">...</text>
<polygon fill="#ffffff" stroke="transparent" points="557,-218 557,-236 811,-236 811,-218 557,-218"/>
<polygon fill="none" stroke="black" points="557,-218 557,-236 811,-236 811,-218 557,-218"/>
<polygon fill="#ffffff" stroke="transparent" points="558,-219 558,-235 637,-235 637,-219 558,-219"/>
<text text-anchor="start" x="560" y="-224.2" font-family="Helvetica,sans-Serif" font-size="11.00">&lt; 27</text>
<polygon fill="#ffffff" stroke="transparent" points="637,-219 637,-235 726,-235 726,-219 637,-219"/>
<text text-anchor="start" x="665" y="-224.2" font-family="Helvetica,sans-Serif" font-size="11.00">4 rows</text>
<polygon fill="#ffffff" stroke="transparent" points="726,-219 726,-235 810,-235 810,-219 726,-219"/>
<text text-anchor="start" x="780" y="-224.2" font-family="Helvetica,sans-Serif" font-size="11.00">187 &gt;</text>
<polygon fill="black" stroke="black" points="637,-219 637,-235 637,-235 637,-219 637,-219"/>
<polygon fill="black" stroke="black" points="726,-219 726,-235 726,-235 726,-219 726,-219"/>
</a>
</g>
</g>
<!-- c_bpartner&#45;&gt;ad_org -->
<g id="edge3" class="edge">
<title>c_bpartner:w&#45;&gt;ad_org:e</title>
<path fill="none" stroke="black" d="M542.24,-876.54C486.92,-834.34 587.37,-507 509,-507"/>
<polygon fill="black" stroke="black" points="548.39,-878.53 554.89,-884.42 552.19,-879.77 556,-881 556,-881 556,-881 552.19,-879.77 557.11,-877.58 548.39,-878.53 548.39,-878.53"/>
<ellipse fill="none" stroke="black" cx="545.35" cy="-877.55" rx="3.2" ry="3.2"/>
</g>
<!-- c_bpartner&#45;&gt;ad_org -->
<g id="edge4" class="edge">
<title>c_bpartner:w&#45;&gt;ad_org:e</title>
<path fill="none" stroke="black" d="M541.4,-507C530.93,-507 524.01,-507 509,-507"/>
<polygon fill="black" stroke="black" points="548,-507 556,-510.6 552,-507 556,-507 556,-507 556,-507 552,-507 556,-503.4 548,-507 548,-507"/>
<ellipse fill="none" stroke="black" cx="544.8" cy="-507" rx="3.2" ry="3.2"/>
</g>
<!-- c_bpartner&#45;&gt;ad_client -->
<g id="edge2" class="edge">
<title>c_bpartner:w&#45;&gt;ad_client:e</title>
<path fill="none" stroke="black" d="M541.6,-902.64C362.99,-893.37 399.68,-708.98 294,-551 274.99,-522.59 288.69,-485 254.5,-485"/>
<polygon fill="black" stroke="black" points="548,-902.8 555.91,-906.6 552,-902.9 556,-903 556,-903 556,-903 552,-902.9 556.09,-899.4 548,-902.8 548,-902.8"/>
<ellipse fill="none" stroke="black" cx="544.8" cy="-902.72" rx="3.2" ry="3.2"/>
</g>
<!-- cof_contract -->
<g id="node4" class="node">
<title>cof_contract</title>
<g id="a_node4"><a xlink:href="../../tables/cof_contract.html" xlink:title="cof_contract" target="_top">
<polygon fill="#ffffff" stroke="transparent" points="1206,-353 1206,-829 1435,-829 1435,-353 1206,-353"/>
<polygon fill="#f5f5f5" stroke="transparent" points="1206.5,-807 1206.5,-829 1435.5,-829 1435.5,-807 1206.5,-807"/>
<polygon fill="none" stroke="black" points="1206.5,-807 1206.5,-829 1435.5,-829 1435.5,-807 1206.5,-807"/>
<text text-anchor="start" x="1211.5" y="-816.2" font-family="Helvetica,sans-Serif" font-weight="bold" font-size="11.00">cof_contract</text>
<text text-anchor="start" x="1400.5" y="-815.2" font-family="Helvetica,sans-Serif" font-size="11.00">[table]</text>
<polygon fill="none" stroke="black" points="1206.5,-785 1206.5,-807 1435.5,-807 1435.5,-785 1206.5,-785"/>
<image xlink:href="../../images/primaryKeys.png" width="11px" height="12px" preserveAspectRatio="xMinYMin meet" x="1211.5" y="-802"/>
<text text-anchor="start" x="1226.5" y="-793.2" font-family="Helvetica,sans-Serif" font-size="11.00">cof_contract_id</text>
<polygon fill="#ffffff" stroke="transparent" points="1206.5,-763 1206.5,-785 1435.5,-785 1435.5,-763 1206.5,-763"/>
<polygon fill="none" stroke="black" points="1206.5,-763 1206.5,-785 1435.5,-785 1435.5,-763 1206.5,-763"/>
<text text-anchor="start" x="1226.5" y="-771.2" font-family="Helvetica,sans-Serif" font-size="11.00">cof_contract_uu</text>
<polygon fill="none" stroke="black" points="1206.5,-741 1206.5,-763 1435.5,-763 1435.5,-741 1206.5,-741"/>
<image xlink:href="../../images/foreignKeys.png" width="11px" height="12px" preserveAspectRatio="xMinYMin meet" x="1211.5" y="-758"/>
<text text-anchor="start" x="1226.5" y="-749.2" font-family="Helvetica,sans-Serif" font-size="11.00">c_paymentterm_id</text>
<polygon fill="none" stroke="black" points="1206.5,-719 1206.5,-741 1435.5,-741 1435.5,-719 1206.5,-719"/>
<image xlink:href="../../images/foreignKeys.png" width="11px" height="12px" preserveAspectRatio="xMinYMin meet" x="1211.5" y="-736"/>
<text text-anchor="start" x="1226.5" y="-727.2" font-family="Helvetica,sans-Serif" font-size="11.00">c_location_id</text>
<polygon fill="none" stroke="black" points="1206.5,-697 1206.5,-719 1435.5,-719 1435.5,-697 1206.5,-697"/>
<image xlink:href="../../images/foreignKeys.png" width="11px" height="12px" preserveAspectRatio="xMinYMin meet" x="1211.5" y="-714"/>
<text text-anchor="start" x="1226.5" y="-705.2" font-family="Helvetica,sans-Serif" font-size="11.00">c_bpartner_id</text>
<polygon fill="none" stroke="black" points="1206.5,-675 1206.5,-697 1435.5,-697 1435.5,-675 1206.5,-675"/>
<image xlink:href="../../images/foreignKeys.png" width="11px" height="12px" preserveAspectRatio="xMinYMin meet" x="1211.5" y="-692"/>
<text text-anchor="start" x="1226.5" y="-683.2" font-family="Helvetica,sans-Serif" font-size="11.00">salesrep_id</text>
<polygon fill="none" stroke="black" points="1206.5,-653 1206.5,-675 1435.5,-675 1435.5,-653 1206.5,-653"/>
<image xlink:href="../../images/foreignKeys.png" width="11px" height="12px" preserveAspectRatio="xMinYMin meet" x="1211.5" y="-670"/>
<text text-anchor="start" x="1226.5" y="-661.2" font-family="Helvetica,sans-Serif" font-size="11.00">cof_contractcategory_id</text>
<polygon fill="none" stroke="black" points="1206.5,-631 1206.5,-653 1435.5,-653 1435.5,-631 1206.5,-631"/>
<image xlink:href="../../images/foreignKeys.png" width="11px" height="12px" preserveAspectRatio="xMinYMin meet" x="1211.5" y="-648"/>
<text text-anchor="start" x="1226.5" y="-639.2" font-family="Helvetica,sans-Serif" font-size="11.00">cof_contractgroup_id</text>
<polygon fill="none" stroke="black" points="1206.5,-609 1206.5,-631 1435.5,-631 1435.5,-609 1206.5,-609"/>
<image xlink:href="../../images/foreignKeys.png" width="11px" height="12px" preserveAspectRatio="xMinYMin meet" x="1211.5" y="-626"/>
<text text-anchor="start" x="1226.5" y="-617.2" font-family="Helvetica,sans-Serif" font-size="11.00">ad_user_id</text>
<polygon fill="none" stroke="black" points="1206.5,-587 1206.5,-609 1435.5,-609 1435.5,-587 1206.5,-587"/>
<image xlink:href="../../images/foreignKeys.png" width="11px" height="12px" preserveAspectRatio="xMinYMin meet" x="1211.5" y="-604"/>
<text text-anchor="start" x="1226.5" y="-595.2" font-family="Helvetica,sans-Serif" font-size="11.00">m_pricelist_id</text>
<polygon fill="none" stroke="black" points="1206.5,-565 1206.5,-587 1435.5,-587 1435.5,-565 1206.5,-565"/>
<image xlink:href="../../images/foreignKeys.png" width="11px" height="12px" preserveAspectRatio="xMinYMin meet" x="1211.5" y="-582"/>
<text text-anchor="start" x="1226.5" y="-573.2" font-family="Helvetica,sans-Serif" font-size="11.00">cof_contractoriginal_id</text>
<polygon fill="none" stroke="black" points="1206.5,-543 1206.5,-565 1435.5,-565 1435.5,-543 1206.5,-543"/>
<image xlink:href="../../images/foreignKeys.png" width="11px" height="12px" preserveAspectRatio="xMinYMin meet" x="1211.5" y="-560"/>
<text text-anchor="start" x="1226.5" y="-551.2" font-family="Helvetica,sans-Serif" font-size="11.00">c_doctype_id</text>
<polygon fill="none" stroke="black" points="1206.5,-521 1206.5,-543 1435.5,-543 1435.5,-521 1206.5,-521"/>
<image xlink:href="../../images/foreignKeys.png" width="11px" height="12px" preserveAspectRatio="xMinYMin meet" x="1211.5" y="-538"/>
<text text-anchor="start" x="1226.5" y="-529.2" font-family="Helvetica,sans-Serif" font-size="11.00">cof_payfrom_location_id</text>
<polygon fill="none" stroke="black" points="1206.5,-499 1206.5,-521 1435.5,-521 1435.5,-499 1206.5,-499"/>
<image xlink:href="../../images/foreignKeys.png" width="11px" height="12px" preserveAspectRatio="xMinYMin meet" x="1211.5" y="-516"/>
<text text-anchor="start" x="1226.5" y="-507.2" font-family="Helvetica,sans-Serif" font-size="11.00">cof_c_custody_id</text>
<polygon fill="none" stroke="black" points="1206.5,-477 1206.5,-499 1435.5,-499 1435.5,-477 1206.5,-477"/>
<image xlink:href="../../images/foreignKeys.png" width="11px" height="12px" preserveAspectRatio="xMinYMin meet" x="1211.5" y="-494"/>
<text text-anchor="start" x="1226.5" y="-485.2" font-family="Helvetica,sans-Serif" font-size="11.00">user1_id</text>
<polygon fill="none" stroke="black" points="1206.5,-455 1206.5,-477 1435.5,-477 1435.5,-455 1206.5,-455"/>
<image xlink:href="../../images/foreignKeys.png" width="11px" height="12px" preserveAspectRatio="xMinYMin meet" x="1211.5" y="-472"/>
<text text-anchor="start" x="1226.5" y="-463.2" font-family="Helvetica,sans-Serif" font-size="11.00">user2_id</text>
<polygon fill="none" stroke="black" points="1206.5,-433 1206.5,-455 1435.5,-455 1435.5,-433 1206.5,-433"/>
<image xlink:href="../../images/foreignKeys.png" width="11px" height="12px" preserveAspectRatio="xMinYMin meet" x="1211.5" y="-450"/>
<text text-anchor="start" x="1226.5" y="-441.2" font-family="Helvetica,sans-Serif" font-size="11.00">c_activity_id</text>
<polygon fill="none" stroke="black" points="1206.5,-411 1206.5,-433 1435.5,-433 1435.5,-411 1206.5,-411"/>
<image xlink:href="../../images/foreignKeys.png" width="11px" height="12px" preserveAspectRatio="xMinYMin meet" x="1211.5" y="-428"/>
<text text-anchor="start" x="1226.5" y="-419.2" font-family="Helvetica,sans-Serif" font-size="11.00">c_project_id</text>
<polygon fill="none" stroke="black" points="1206.5,-389 1206.5,-411 1435.5,-411 1435.5,-389 1206.5,-389"/>
<image xlink:href="../../images/foreignKeys.png" width="11px" height="12px" preserveAspectRatio="xMinYMin meet" x="1211.5" y="-406"/>
<text text-anchor="start" x="1226.5" y="-397.2" font-family="Helvetica,sans-Serif" font-size="11.00">cof_m_shipregion_id</text>
<polygon fill="none" stroke="black" points="1206.5,-371 1206.5,-389 1435.5,-389 1435.5,-371 1206.5,-371"/>
<text text-anchor="start" x="1209.5" y="-377.2" font-family="Helvetica,sans-Serif" font-size="11.00">...</text>
<polygon fill="#ffffff" stroke="transparent" points="1206.5,-353 1206.5,-371 1435.5,-371 1435.5,-353 1206.5,-353"/>
<polygon fill="none" stroke="black" points="1206.5,-353 1206.5,-371 1435.5,-371 1435.5,-353 1206.5,-353"/>
<polygon fill="#ffffff" stroke="transparent" points="1207.5,-354 1207.5,-370 1290.5,-370 1290.5,-354 1207.5,-354"/>
<text text-anchor="start" x="1209.5" y="-359.2" font-family="Helvetica,sans-Serif" font-size="11.00">&lt; 17</text>
<polygon fill="#ffffff" stroke="transparent" points="1290.5,-354 1290.5,-370 1358.5,-370 1358.5,-354 1290.5,-354"/>
<text text-anchor="start" x="1321" y="-359.2" font-family="Helvetica,sans-Serif" font-size="11.00"> &#160;</text>
<polygon fill="#ffffff" stroke="transparent" points="1358.5,-354 1358.5,-370 1434.5,-370 1434.5,-354 1358.5,-354"/>
<text text-anchor="start" x="1416.5" y="-359.2" font-family="Helvetica,sans-Serif" font-size="11.00">7 &gt;</text>
<polygon fill="black" stroke="black" points="1290.5,-354 1290.5,-370 1290.5,-370 1290.5,-354 1290.5,-354"/>
<polygon fill="black" stroke="black" points="1358.5,-354 1358.5,-370 1358.5,-370 1358.5,-354 1358.5,-354"/>
</a>
</g>
</g>
<!-- cof_contract&#45;&gt;c_bpartner -->
<g id="edge5" class="edge">
<title>cof_contract:w&#45;&gt;c_bpartner:e</title>
<path fill="none" stroke="black" d="M1190.96,-708.4C1005.95,-718.67 1006.75,-925 812,-925"/>
<polygon fill="black" stroke="black" points="1197.5,-708.22 1205.6,-711.6 1201.5,-708.11 1205.5,-708 1205.5,-708 1205.5,-708 1201.5,-708.11 1205.4,-704.4 1197.5,-708.22 1197.5,-708.22"/>
<ellipse fill="none" stroke="black" cx="1194.3" cy="-708.31" rx="3.2" ry="3.2"/>
</g>
<!-- cof_contractgroup -->
<g id="node5" class="node">
<title>cof_contractgroup</title>
<g id="a_node5"><a xlink:href="../../tables/cof_contractgroup.html" xlink:title="cof_contractgroup" target="_top">
<polygon fill="#ffffff" stroke="transparent" points="860,-37 860,-389 1157,-389 1157,-37 860,-37"/>
<polygon fill="#f5f5f5" stroke="transparent" points="862.5,-365 862.5,-387 1155.5,-387 1155.5,-365 862.5,-365"/>
<polygon fill="none" stroke="black" points="862.5,-365 862.5,-387 1155.5,-387 1155.5,-365 862.5,-365"/>
<text text-anchor="start" x="867.5" y="-374.2" font-family="Helvetica,sans-Serif" font-weight="bold" font-size="11.00">cof_contractgroup</text>
<text text-anchor="start" x="1120.5" y="-373.2" font-family="Helvetica,sans-Serif" font-size="11.00">[table]</text>
<polygon fill="none" stroke="black" points="862.5,-343 862.5,-365 1072.5,-365 1072.5,-343 862.5,-343"/>
<image xlink:href="../../images/primaryKeys.png" width="11px" height="12px" preserveAspectRatio="xMinYMin meet" x="867.5" y="-360"/>
<text text-anchor="start" x="882.5" y="-351.2" font-family="Helvetica,sans-Serif" font-size="11.00">cof_contractgroup_id</text>
<polygon fill="none" stroke="black" points="1072.5,-343 1072.5,-365 1155.5,-365 1155.5,-343 1072.5,-343"/>
<text text-anchor="start" x="1075.5" y="-351.2" font-family="Helvetica,sans-Serif" font-size="11.00">numeric[10]</text>
<polygon fill="#ffffff" stroke="transparent" points="862.5,-321 862.5,-343 1072.5,-343 1072.5,-321 862.5,-321"/>
<polygon fill="none" stroke="black" points="862.5,-321 862.5,-343 1072.5,-343 1072.5,-321 862.5,-321"/>
<text text-anchor="start" x="882.5" y="-329.2" font-family="Helvetica,sans-Serif" font-size="11.00">cof_contractgroup_uu</text>
<polygon fill="none" stroke="black" points="1072.5,-321 1072.5,-343 1155.5,-343 1155.5,-321 1072.5,-321"/>
<text text-anchor="start" x="1075.5" y="-329.2" font-family="Helvetica,sans-Serif" font-size="11.00">varchar[36]</text>
<polygon fill="none" stroke="black" points="862.5,-299 862.5,-321 1072.5,-321 1072.5,-299 862.5,-299"/>
<image xlink:href="../../images/foreignKeys.png" width="11px" height="12px" preserveAspectRatio="xMinYMin meet" x="867.5" y="-316"/>
<text text-anchor="start" x="882.5" y="-307.2" font-family="Helvetica,sans-Serif" font-size="11.00">c_bpartner_id</text>
<polygon fill="none" stroke="black" points="1072.5,-299 1072.5,-321 1155.5,-321 1155.5,-299 1072.5,-299"/>
<text text-anchor="start" x="1075.5" y="-307.2" font-family="Helvetica,sans-Serif" font-size="11.00">numeric[10]</text>
<polygon fill="none" stroke="black" points="862.5,-277 862.5,-299 1072.5,-299 1072.5,-277 862.5,-277"/>
<text text-anchor="start" x="882.5" y="-285.2" font-family="Helvetica,sans-Serif" font-size="11.00">cof_contractgroupnumber</text>
<polygon fill="none" stroke="black" points="1072.5,-277 1072.5,-299 1155.5,-299 1155.5,-277 1072.5,-277"/>
<text text-anchor="start" x="1075.5" y="-285.2" font-family="Helvetica,sans-Serif" font-size="11.00">numeric[10]</text>
<polygon fill="none" stroke="black" points="862.5,-255 862.5,-277 1072.5,-277 1072.5,-255 862.5,-255"/>
<image xlink:href="../../images/foreignKeys.png" width="11px" height="12px" preserveAspectRatio="xMinYMin meet" x="867.5" y="-272"/>
<text text-anchor="start" x="882.5" y="-263.2" font-family="Helvetica,sans-Serif" font-size="11.00">ad_client_id</text>
<polygon fill="none" stroke="black" points="1072.5,-255 1072.5,-277 1155.5,-277 1155.5,-255 1072.5,-255"/>
<text text-anchor="start" x="1075.5" y="-263.2" font-family="Helvetica,sans-Serif" font-size="11.00">numeric[10]</text>
<polygon fill="none" stroke="black" points="862.5,-233 862.5,-255 1072.5,-255 1072.5,-233 862.5,-233"/>
<image xlink:href="../../images/foreignKeys.png" width="11px" height="12px" preserveAspectRatio="xMinYMin meet" x="867.5" y="-250"/>
<text text-anchor="start" x="882.5" y="-241.2" font-family="Helvetica,sans-Serif" font-size="11.00">ad_org_id</text>
<polygon fill="none" stroke="black" points="1072.5,-233 1072.5,-255 1155.5,-255 1155.5,-233 1072.5,-233"/>
<text text-anchor="start" x="1075.5" y="-241.2" font-family="Helvetica,sans-Serif" font-size="11.00">numeric[10]</text>
<polygon fill="none" stroke="black" points="862.5,-211 862.5,-233 1072.5,-233 1072.5,-211 862.5,-211"/>
<text text-anchor="start" x="882.5" y="-219.2" font-family="Helvetica,sans-Serif" font-size="11.00">isactive</text>
<polygon fill="none" stroke="black" points="1072.5,-211 1072.5,-233 1155.5,-233 1155.5,-211 1072.5,-211"/>
<text text-anchor="start" x="1075.5" y="-219.2" font-family="Helvetica,sans-Serif" font-size="11.00">bpchar[1]</text>
<polygon fill="none" stroke="black" points="862.5,-189 862.5,-211 1072.5,-211 1072.5,-189 862.5,-189"/>
<text text-anchor="start" x="882.5" y="-197.2" font-family="Helvetica,sans-Serif" font-size="11.00">description</text>
<polygon fill="none" stroke="black" points="1072.5,-189 1072.5,-211 1155.5,-211 1155.5,-189 1072.5,-189"/>
<text text-anchor="start" x="1075.5" y="-197.2" font-family="Helvetica,sans-Serif" font-size="11.00">varchar[255]</text>
<polygon fill="none" stroke="black" points="862.5,-167 862.5,-189 1072.5,-189 1072.5,-167 862.5,-167"/>
<text text-anchor="start" x="882.5" y="-175.2" font-family="Helvetica,sans-Serif" font-size="11.00">value</text>
<polygon fill="none" stroke="black" points="1072.5,-167 1072.5,-189 1155.5,-189 1155.5,-167 1072.5,-167"/>
<text text-anchor="start" x="1075.5" y="-175.2" font-family="Helvetica,sans-Serif" font-size="11.00">varchar[40]</text>
<polygon fill="none" stroke="black" points="862.5,-145 862.5,-167 1072.5,-167 1072.5,-145 862.5,-145"/>
<text text-anchor="start" x="882.5" y="-153.2" font-family="Helvetica,sans-Serif" font-size="11.00">name</text>
<polygon fill="none" stroke="black" points="1072.5,-145 1072.5,-167 1155.5,-167 1155.5,-145 1072.5,-145"/>
<text text-anchor="start" x="1075.5" y="-153.2" font-family="Helvetica,sans-Serif" font-size="11.00">varchar[60]</text>
<polygon fill="none" stroke="black" points="862.5,-123 862.5,-145 1072.5,-145 1072.5,-123 862.5,-123"/>
<text text-anchor="start" x="882.5" y="-131.2" font-family="Helvetica,sans-Serif" font-size="11.00">created</text>
<polygon fill="none" stroke="black" points="1072.5,-123 1072.5,-145 1155.5,-145 1155.5,-123 1072.5,-123"/>
<text text-anchor="start" x="1075.5" y="-131.2" font-family="Helvetica,sans-Serif" font-size="11.00">timestamp[29,6]</text>
<polygon fill="none" stroke="black" points="862.5,-101 862.5,-123 1072.5,-123 1072.5,-101 862.5,-101"/>
<text text-anchor="start" x="882.5" y="-109.2" font-family="Helvetica,sans-Serif" font-size="11.00">createdby</text>
<polygon fill="none" stroke="black" points="1072.5,-101 1072.5,-123 1155.5,-123 1155.5,-101 1072.5,-101"/>
<text text-anchor="start" x="1075.5" y="-109.2" font-family="Helvetica,sans-Serif" font-size="11.00">numeric[10]</text>
<polygon fill="none" stroke="black" points="862.5,-79 862.5,-101 1072.5,-101 1072.5,-79 862.5,-79"/>
<text text-anchor="start" x="882.5" y="-87.2" font-family="Helvetica,sans-Serif" font-size="11.00">updated</text>
<polygon fill="none" stroke="black" points="1072.5,-79 1072.5,-101 1155.5,-101 1155.5,-79 1072.5,-79"/>
<text text-anchor="start" x="1075.5" y="-87.2" font-family="Helvetica,sans-Serif" font-size="11.00">timestamp[29,6]</text>
<polygon fill="none" stroke="black" points="862.5,-57 862.5,-79 1072.5,-79 1072.5,-57 862.5,-57"/>
<text text-anchor="start" x="882.5" y="-65.2" font-family="Helvetica,sans-Serif" font-size="11.00">updatedby</text>
<polygon fill="none" stroke="black" points="1072.5,-57 1072.5,-79 1155.5,-79 1155.5,-57 1072.5,-57"/>
<text text-anchor="start" x="1075.5" y="-65.2" font-family="Helvetica,sans-Serif" font-size="11.00">numeric[10]</text>
<polygon fill="#ffffff" stroke="transparent" points="862.5,-39 862.5,-57 1155.5,-57 1155.5,-39 862.5,-39"/>
<polygon fill="none" stroke="black" points="862.5,-39 862.5,-57 1155.5,-57 1155.5,-39 862.5,-39"/>
<polygon fill="#ffffff" stroke="transparent" points="863.5,-40 863.5,-56 963.5,-56 963.5,-40 863.5,-40"/>
<text text-anchor="start" x="865.5" y="-45.2" font-family="Helvetica,sans-Serif" font-size="11.00">&lt; 3</text>
<polygon fill="#ffffff" stroke="transparent" points="963.5,-40 963.5,-56 1054.5,-56 1054.5,-40 963.5,-40"/>
<text text-anchor="start" x="1005.5" y="-45.2" font-family="Helvetica,sans-Serif" font-size="11.00"> &#160;</text>
<polygon fill="#ffffff" stroke="transparent" points="1054.5,-40 1054.5,-56 1154.5,-56 1154.5,-40 1054.5,-40"/>
<text text-anchor="start" x="1136.5" y="-45.2" font-family="Helvetica,sans-Serif" font-size="11.00">1 &gt;</text>
<polygon fill="black" stroke="black" points="963.5,-40 963.5,-56 963.5,-56 963.5,-40 963.5,-40"/>
<polygon fill="black" stroke="black" points="1054.5,-40 1054.5,-56 1054.5,-56 1054.5,-40 1054.5,-40"/>
<polygon fill="none" stroke="black" stroke-width="2" points="861,-38 861,-388 1156,-388 1156,-38 861,-38"/>
</a>
</g>
</g>
<!-- cof_contract&#45;&gt;cof_contractgroup -->
<g id="edge6" class="edge">
<title>cof_contract:w&#45;&gt;cof_contractgroup:e</title>
<path fill="none" stroke="black" d="M1190.89,-640.52C1092.75,-618.32 1280.89,-354 1156.5,-354"/>
<polygon fill="black" stroke="black" points="1197.54,-641.19 1205.14,-645.58 1201.52,-641.6 1205.5,-642 1205.5,-642 1205.5,-642 1201.52,-641.6 1205.86,-638.42 1197.54,-641.19 1197.54,-641.19"/>
<ellipse fill="none" stroke="black" cx="1194.36" cy="-640.87" rx="3.2" ry="3.2"/>
</g>
<!-- cof_contractgroup&#45;&gt;ad_org -->
<g id="edge8" class="edge">
<title>cof_contractgroup:w&#45;&gt;ad_org:e</title>
<path fill="none" stroke="black" d="M847.68,-239.57C837.7,-231.45 836.43,-214.39 819,-208 706.33,-166.7 639.3,-128.97 549,-208 498.55,-252.15 576.04,-507 509,-507"/>
<polygon fill="black" stroke="black" points="853.88,-241.56 860.4,-247.43 857.69,-242.78 861.5,-244 861.5,-244 861.5,-244 857.69,-242.78 862.6,-240.57 853.88,-241.56 853.88,-241.56"/>
<ellipse fill="none" stroke="black" cx="850.83" cy="-240.58" rx="3.2" ry="3.2"/>
</g>
<!-- cof_contractgroup&#45;&gt;ad_client -->
<g id="edge7" class="edge">
<title>cof_contractgroup:w&#45;&gt;ad_client:e</title>
<path fill="none" stroke="black" d="M847.77,-261.56C834.79,-250.1 841.94,-219.63 819,-208 711.97,-153.74 665.59,-179.61 549,-208 425,-238.19 374.2,-240.73 294,-340 252.02,-391.96 321.29,-485 254.5,-485"/>
<polygon fill="black" stroke="black" points="853.89,-263.54 860.39,-269.43 857.69,-264.77 861.5,-266 861.5,-266 861.5,-266 857.69,-264.77 862.61,-262.57 853.89,-263.54 853.89,-263.54"/>
<ellipse fill="none" stroke="black" cx="850.84" cy="-262.55" rx="3.2" ry="3.2"/>
</g>
<!-- cof_contractgroup&#45;&gt;c_bpartner -->
<g id="edge9" class="edge">
<title>cof_contractgroup:w&#45;&gt;c_bpartner:e</title>
<path fill="none" stroke="black" d="M849.53,-318.23C804.19,-391.21 875.87,-925 812,-925"/>
<polygon fill="black" stroke="black" points="854.91,-314.53 863.54,-312.97 858.2,-312.27 861.5,-310 861.5,-310 861.5,-310 858.2,-312.27 859.46,-307.03 854.91,-314.53 854.91,-314.53"/>
<ellipse fill="none" stroke="black" cx="852.27" cy="-316.35" rx="3.2" ry="3.2"/>
</g>
</g>
</svg>
