<?xml version="1.0" encoding="UTF-8" standalone="no"?>
<!DOCTYPE svg PUBLIC "-//W3C//DTD SVG 1.1//EN"
 "http://www.w3.org/Graphics/SVG/1.1/DTD/svg11.dtd">
<!-- Generated by graphviz version 2.43.0 (0)
 -->
<!-- Title: oneDegreeRelationshipsDiagram Pages: 1 -->
<svg width="331pt" height="1593pt"
 viewBox="0.00 0.00 331.00 1593.00" xmlns="http://www.w3.org/2000/svg" xmlns:xlink="http://www.w3.org/1999/xlink">
<g id="graph0" class="graph" transform="scale(1 1) rotate(0) translate(4 1589)">
<title>oneDegreeRelationshipsDiagram</title>
<polygon fill="#ffffff" stroke="transparent" points="-4,4 -4,-1589 327,-1589 327,4 -4,4"/>
<text text-anchor="middle" x="71.5" y="-7.2" font-family="Helvetica,sans-Serif" font-size="11.00">Generated by SchemaSpy</text>
<!-- cof_rv_confimpostos -->
<g id="node1" class="node">
<title>cof_rv_confimpostos</title>
<g id="a_node1"><a xlink:href="../../tables/cof_rv_confimpostos.html" xlink:title="cof_rv_confimpostos" target="_top">
<polygon fill="#ffffff" stroke="transparent" points="8,-37 8,-1581 315,-1581 315,-37 8,-37"/>
<polygon fill="#f5f5f5" stroke="transparent" points="10.5,-1557 10.5,-1579 313.5,-1579 313.5,-1557 10.5,-1557"/>
<polygon fill="none" stroke="black" points="10.5,-1557 10.5,-1579 313.5,-1579 313.5,-1557 10.5,-1557"/>
<text text-anchor="start" x="15.5" y="-1566.2" font-family="Helvetica,sans-Serif" font-weight="bold" font-size="11.00">cof_rv_confimpostos</text>
<text text-anchor="start" x="280.5" y="-1565.2" font-family="Helvetica,sans-Serif" font-size="11.00">[view]</text>
<polygon fill="none" stroke="black" points="10.5,-1535 10.5,-1557 230.5,-1557 230.5,-1535 10.5,-1535"/>
<text text-anchor="start" x="30.5" y="-1543.2" font-family="Helvetica,sans-Serif" font-size="11.00">ad_org_id</text>
<polygon fill="none" stroke="black" points="230.5,-1535 230.5,-1557 313.5,-1557 313.5,-1535 230.5,-1535"/>
<text text-anchor="start" x="233.5" y="-1543.2" font-family="Helvetica,sans-Serif" font-size="11.00">numeric[10]</text>
<polygon fill="none" stroke="black" points="10.5,-1513 10.5,-1535 230.5,-1535 230.5,-1513 10.5,-1513"/>
<text text-anchor="start" x="30.5" y="-1521.2" font-family="Helvetica,sans-Serif" font-size="11.00">ad_client_id</text>
<polygon fill="none" stroke="black" points="230.5,-1513 230.5,-1535 313.5,-1535 313.5,-1513 230.5,-1513"/>
<text text-anchor="start" x="233.5" y="-1521.2" font-family="Helvetica,sans-Serif" font-size="11.00">numeric[10]</text>
<polygon fill="none" stroke="black" points="10.5,-1491 10.5,-1513 230.5,-1513 230.5,-1491 10.5,-1491"/>
<text text-anchor="start" x="30.5" y="-1499.2" font-family="Helvetica,sans-Serif" font-size="11.00">c_bpartner_id</text>
<polygon fill="none" stroke="black" points="230.5,-1491 230.5,-1513 313.5,-1513 313.5,-1491 230.5,-1491"/>
<text text-anchor="start" x="233.5" y="-1499.2" font-family="Helvetica,sans-Serif" font-size="11.00">numeric[10]</text>
<polygon fill="none" stroke="black" points="10.5,-1469 10.5,-1491 230.5,-1491 230.5,-1469 10.5,-1469"/>
<text text-anchor="start" x="30.5" y="-1477.2" font-family="Helvetica,sans-Serif" font-size="11.00">c_doctype_id</text>
<polygon fill="none" stroke="black" points="230.5,-1469 230.5,-1491 313.5,-1491 313.5,-1469 230.5,-1469"/>
<text text-anchor="start" x="233.5" y="-1477.2" font-family="Helvetica,sans-Serif" font-size="11.00">numeric[10]</text>
<polygon fill="none" stroke="black" points="10.5,-1447 10.5,-1469 230.5,-1469 230.5,-1447 10.5,-1447"/>
<text text-anchor="start" x="30.5" y="-1455.2" font-family="Helvetica,sans-Serif" font-size="11.00">c_region_id</text>
<polygon fill="none" stroke="black" points="230.5,-1447 230.5,-1469 313.5,-1469 313.5,-1447 230.5,-1447"/>
<text text-anchor="start" x="233.5" y="-1455.2" font-family="Helvetica,sans-Serif" font-size="11.00">numeric[10]</text>
<polygon fill="none" stroke="black" points="10.5,-1425 10.5,-1447 230.5,-1447 230.5,-1425 10.5,-1425"/>
<text text-anchor="start" x="30.5" y="-1433.2" font-family="Helvetica,sans-Serif" font-size="11.00">taxdef_desc</text>
<polygon fill="none" stroke="black" points="230.5,-1425 230.5,-1447 313.5,-1447 313.5,-1425 230.5,-1425"/>
<text text-anchor="start" x="233.5" y="-1433.2" font-family="Helvetica,sans-Serif" font-size="11.00">varchar[255]</text>
<polygon fill="none" stroke="black" points="10.5,-1403 10.5,-1425 230.5,-1425 230.5,-1403 10.5,-1403"/>
<text text-anchor="start" x="30.5" y="-1411.2" font-family="Helvetica,sans-Serif" font-size="11.00">lbr_bpartnercategory_id</text>
<polygon fill="none" stroke="black" points="230.5,-1403 230.5,-1425 313.5,-1425 313.5,-1403 230.5,-1403"/>
<text text-anchor="start" x="233.5" y="-1411.2" font-family="Helvetica,sans-Serif" font-size="11.00">numeric[10]</text>
<polygon fill="none" stroke="black" points="10.5,-1381 10.5,-1403 230.5,-1403 230.5,-1381 10.5,-1381"/>
<text text-anchor="start" x="30.5" y="-1389.2" font-family="Helvetica,sans-Serif" font-size="11.00">lbr_fiscalgroup_bpartner_id</text>
<polygon fill="none" stroke="black" points="230.5,-1381 230.5,-1403 313.5,-1403 313.5,-1381 230.5,-1381"/>
<text text-anchor="start" x="233.5" y="-1389.2" font-family="Helvetica,sans-Serif" font-size="11.00">numeric[10]</text>
<polygon fill="none" stroke="black" points="10.5,-1359 10.5,-1381 230.5,-1381 230.5,-1359 10.5,-1359"/>
<text text-anchor="start" x="30.5" y="-1367.2" font-family="Helvetica,sans-Serif" font-size="11.00">lbr_fiscalgroup_product_id</text>
<polygon fill="none" stroke="black" points="230.5,-1359 230.5,-1381 313.5,-1381 313.5,-1359 230.5,-1359"/>
<text text-anchor="start" x="233.5" y="-1367.2" font-family="Helvetica,sans-Serif" font-size="11.00">numeric[10]</text>
<polygon fill="none" stroke="black" points="10.5,-1337 10.5,-1359 230.5,-1359 230.5,-1337 10.5,-1337"/>
<text text-anchor="start" x="30.5" y="-1345.2" font-family="Helvetica,sans-Serif" font-size="11.00">taxdef_message</text>
<polygon fill="none" stroke="black" points="230.5,-1337 230.5,-1359 313.5,-1359 313.5,-1337 230.5,-1337"/>
<text text-anchor="start" x="233.5" y="-1345.2" font-family="Helvetica,sans-Serif" font-size="11.00">numeric[10]</text>
<polygon fill="none" stroke="black" points="10.5,-1315 10.5,-1337 230.5,-1337 230.5,-1315 10.5,-1315"/>
<text text-anchor="start" x="30.5" y="-1323.2" font-family="Helvetica,sans-Serif" font-size="11.00">lbr_ncm_id</text>
<polygon fill="none" stroke="black" points="230.5,-1315 230.5,-1337 313.5,-1337 313.5,-1315 230.5,-1315"/>
<text text-anchor="start" x="233.5" y="-1323.2" font-family="Helvetica,sans-Serif" font-size="11.00">numeric[10]</text>
<polygon fill="none" stroke="black" points="10.5,-1293 10.5,-1315 230.5,-1315 230.5,-1293 10.5,-1293"/>
<text text-anchor="start" x="30.5" y="-1301.2" font-family="Helvetica,sans-Serif" font-size="11.00">lbr_productcategory_id</text>
<polygon fill="none" stroke="black" points="230.5,-1293 230.5,-1315 313.5,-1315 313.5,-1293 230.5,-1293"/>
<text text-anchor="start" x="233.5" y="-1301.2" font-family="Helvetica,sans-Serif" font-size="11.00">numeric[10]</text>
<polygon fill="none" stroke="black" points="10.5,-1271 10.5,-1293 230.5,-1293 230.5,-1271 10.5,-1271"/>
<text text-anchor="start" x="30.5" y="-1279.2" font-family="Helvetica,sans-Serif" font-size="11.00">lbr_taxdefinition_id</text>
<polygon fill="none" stroke="black" points="230.5,-1271 230.5,-1293 313.5,-1293 313.5,-1271 230.5,-1271"/>
<text text-anchor="start" x="233.5" y="-1279.2" font-family="Helvetica,sans-Serif" font-size="11.00">numeric[10]</text>
<polygon fill="none" stroke="black" points="10.5,-1249 10.5,-1271 230.5,-1271 230.5,-1249 10.5,-1249"/>
<text text-anchor="start" x="30.5" y="-1257.2" font-family="Helvetica,sans-Serif" font-size="11.00">lbr_tax_id</text>
<polygon fill="none" stroke="black" points="230.5,-1249 230.5,-1271 313.5,-1271 313.5,-1249 230.5,-1249"/>
<text text-anchor="start" x="233.5" y="-1257.2" font-family="Helvetica,sans-Serif" font-size="11.00">numeric[10]</text>
<polygon fill="none" stroke="black" points="10.5,-1227 10.5,-1249 230.5,-1249 230.5,-1227 10.5,-1227"/>
<text text-anchor="start" x="30.5" y="-1235.2" font-family="Helvetica,sans-Serif" font-size="11.00">m_product_id</text>
<polygon fill="none" stroke="black" points="230.5,-1227 230.5,-1249 313.5,-1249 313.5,-1227 230.5,-1227"/>
<text text-anchor="start" x="233.5" y="-1235.2" font-family="Helvetica,sans-Serif" font-size="11.00">numeric[10]</text>
<polygon fill="none" stroke="black" points="10.5,-1205 10.5,-1227 230.5,-1227 230.5,-1205 10.5,-1205"/>
<text text-anchor="start" x="30.5" y="-1213.2" font-family="Helvetica,sans-Serif" font-size="11.00">to_region_id</text>
<polygon fill="none" stroke="black" points="230.5,-1205 230.5,-1227 313.5,-1227 313.5,-1205 230.5,-1205"/>
<text text-anchor="start" x="233.5" y="-1213.2" font-family="Helvetica,sans-Serif" font-size="11.00">numeric[10]</text>
<polygon fill="none" stroke="black" points="10.5,-1183 10.5,-1205 230.5,-1205 230.5,-1183 10.5,-1183"/>
<text text-anchor="start" x="30.5" y="-1191.2" font-family="Helvetica,sans-Serif" font-size="11.00">lbr_issubtributaria</text>
<polygon fill="none" stroke="black" points="230.5,-1183 230.5,-1205 313.5,-1205 313.5,-1183 230.5,-1183"/>
<text text-anchor="start" x="233.5" y="-1191.2" font-family="Helvetica,sans-Serif" font-size="11.00">bpchar[1]</text>
<polygon fill="none" stroke="black" points="10.5,-1161 10.5,-1183 230.5,-1183 230.5,-1161 10.5,-1161"/>
<text text-anchor="start" x="30.5" y="-1169.2" font-family="Helvetica,sans-Serif" font-size="11.00">lbr_transactiontype</text>
<polygon fill="none" stroke="black" points="230.5,-1161 230.5,-1183 313.5,-1183 313.5,-1161 230.5,-1161"/>
<text text-anchor="start" x="233.5" y="-1169.2" font-family="Helvetica,sans-Serif" font-size="11.00">varchar[3]</text>
<polygon fill="none" stroke="black" points="10.5,-1139 10.5,-1161 230.5,-1161 230.5,-1139 10.5,-1139"/>
<text text-anchor="start" x="30.5" y="-1147.2" font-family="Helvetica,sans-Serif" font-size="11.00">validfrom</text>
<polygon fill="none" stroke="black" points="230.5,-1139 230.5,-1161 313.5,-1161 313.5,-1139 230.5,-1139"/>
<text text-anchor="start" x="233.5" y="-1147.2" font-family="Helvetica,sans-Serif" font-size="11.00">timestamp[29,6]</text>
<polygon fill="none" stroke="black" points="10.5,-1117 10.5,-1139 230.5,-1139 230.5,-1117 10.5,-1117"/>
<text text-anchor="start" x="30.5" y="-1125.2" font-family="Helvetica,sans-Serif" font-size="11.00">priorityno</text>
<polygon fill="none" stroke="black" points="230.5,-1117 230.5,-1139 313.5,-1139 313.5,-1117 230.5,-1117"/>
<text text-anchor="start" x="233.5" y="-1125.2" font-family="Helvetica,sans-Serif" font-size="11.00">numeric[10]</text>
<polygon fill="none" stroke="black" points="10.5,-1095 10.5,-1117 230.5,-1117 230.5,-1095 10.5,-1095"/>
<text text-anchor="start" x="30.5" y="-1103.2" font-family="Helvetica,sans-Serif" font-size="11.00">issotrx</text>
<polygon fill="none" stroke="black" points="230.5,-1095 230.5,-1117 313.5,-1117 313.5,-1095 230.5,-1095"/>
<text text-anchor="start" x="233.5" y="-1103.2" font-family="Helvetica,sans-Serif" font-size="11.00">bpchar[1]</text>
<polygon fill="none" stroke="black" points="10.5,-1073 10.5,-1095 230.5,-1095 230.5,-1073 10.5,-1073"/>
<text text-anchor="start" x="30.5" y="-1081.2" font-family="Helvetica,sans-Serif" font-size="11.00">lbr_cfop_id</text>
<polygon fill="none" stroke="black" points="230.5,-1073 230.5,-1095 313.5,-1095 313.5,-1073 230.5,-1073"/>
<text text-anchor="start" x="233.5" y="-1081.2" font-family="Helvetica,sans-Serif" font-size="11.00">numeric[10]</text>
<polygon fill="none" stroke="black" points="10.5,-1051 10.5,-1073 230.5,-1073 230.5,-1051 10.5,-1051"/>
<text text-anchor="start" x="30.5" y="-1059.2" font-family="Helvetica,sans-Serif" font-size="11.00">cof_taxregimecode</text>
<polygon fill="none" stroke="black" points="230.5,-1051 230.5,-1073 313.5,-1073 313.5,-1051 230.5,-1051"/>
<text text-anchor="start" x="233.5" y="-1059.2" font-family="Helvetica,sans-Serif" font-size="11.00">bpchar[1]</text>
<polygon fill="none" stroke="black" points="10.5,-1029 10.5,-1051 230.5,-1051 230.5,-1029 10.5,-1029"/>
<text text-anchor="start" x="30.5" y="-1037.2" font-family="Helvetica,sans-Serif" font-size="11.00">cof_taxregimecodebp</text>
<polygon fill="none" stroke="black" points="230.5,-1029 230.5,-1051 313.5,-1051 313.5,-1029 230.5,-1029"/>
<text text-anchor="start" x="233.5" y="-1037.2" font-family="Helvetica,sans-Serif" font-size="11.00">bpchar[1]</text>
<polygon fill="none" stroke="black" points="10.5,-1007 10.5,-1029 230.5,-1029 230.5,-1007 10.5,-1007"/>
<text text-anchor="start" x="30.5" y="-1015.2" font-family="Helvetica,sans-Serif" font-size="11.00">cof_taxincentive</text>
<polygon fill="none" stroke="black" points="230.5,-1007 230.5,-1029 313.5,-1029 313.5,-1007 230.5,-1007"/>
<text text-anchor="start" x="233.5" y="-1015.2" font-family="Helvetica,sans-Serif" font-size="11.00">varchar[3]</text>
<polygon fill="none" stroke="black" points="10.5,-985 10.5,-1007 230.5,-1007 230.5,-985 10.5,-985"/>
<text text-anchor="start" x="30.5" y="-993.2" font-family="Helvetica,sans-Serif" font-size="11.00">lbr_productsource</text>
<polygon fill="none" stroke="black" points="230.5,-985 230.5,-1007 313.5,-1007 313.5,-985 230.5,-985"/>
<text text-anchor="start" x="233.5" y="-993.2" font-family="Helvetica,sans-Serif" font-size="11.00">bpchar[1]</text>
<polygon fill="none" stroke="black" points="10.5,-963 10.5,-985 230.5,-985 230.5,-963 10.5,-963"/>
<text text-anchor="start" x="30.5" y="-971.2" font-family="Helvetica,sans-Serif" font-size="11.00">cof_indie</text>
<polygon fill="none" stroke="black" points="230.5,-963 230.5,-985 313.5,-985 313.5,-963 230.5,-963"/>
<text text-anchor="start" x="233.5" y="-971.2" font-family="Helvetica,sans-Serif" font-size="11.00">bpchar[1]</text>
<polygon fill="none" stroke="black" points="10.5,-941 10.5,-963 230.5,-963 230.5,-941 10.5,-941"/>
<text text-anchor="start" x="30.5" y="-949.2" font-family="Helvetica,sans-Serif" font-size="11.00">taxdef_manual</text>
<polygon fill="none" stroke="black" points="230.5,-941 230.5,-963 313.5,-963 313.5,-941 230.5,-941"/>
<text text-anchor="start" x="233.5" y="-949.2" font-family="Helvetica,sans-Serif" font-size="11.00">bpchar[1]</text>
<polygon fill="none" stroke="black" points="10.5,-919 10.5,-941 230.5,-941 230.5,-919 10.5,-919"/>
<text text-anchor="start" x="30.5" y="-927.2" font-family="Helvetica,sans-Serif" font-size="11.00">value</text>
<polygon fill="none" stroke="black" points="230.5,-919 230.5,-941 313.5,-941 313.5,-919 230.5,-919"/>
<text text-anchor="start" x="233.5" y="-927.2" font-family="Helvetica,sans-Serif" font-size="11.00">varchar[40]</text>
<polygon fill="none" stroke="black" points="10.5,-897 10.5,-919 230.5,-919 230.5,-897 10.5,-897"/>
<text text-anchor="start" x="30.5" y="-905.2" font-family="Helvetica,sans-Serif" font-size="11.00">cof_taxdefinition_group_id</text>
<polygon fill="none" stroke="black" points="230.5,-897 230.5,-919 313.5,-919 313.5,-897 230.5,-897"/>
<text text-anchor="start" x="233.5" y="-905.2" font-family="Helvetica,sans-Serif" font-size="11.00">numeric[10]</text>
<polygon fill="none" stroke="black" points="10.5,-875 10.5,-897 230.5,-897 230.5,-875 10.5,-875"/>
<text text-anchor="start" x="30.5" y="-883.2" font-family="Helvetica,sans-Serif" font-size="11.00">c_city_id</text>
<polygon fill="none" stroke="black" points="230.5,-875 230.5,-897 313.5,-897 313.5,-875 230.5,-875"/>
<text text-anchor="start" x="233.5" y="-883.2" font-family="Helvetica,sans-Serif" font-size="11.00">numeric[10]</text>
<polygon fill="none" stroke="black" points="10.5,-853 10.5,-875 230.5,-875 230.5,-853 10.5,-853"/>
<text text-anchor="start" x="30.5" y="-861.2" font-family="Helvetica,sans-Serif" font-size="11.00">cof_cityto_id</text>
<polygon fill="none" stroke="black" points="230.5,-853 230.5,-875 313.5,-875 313.5,-853 230.5,-853"/>
<text text-anchor="start" x="233.5" y="-861.2" font-family="Helvetica,sans-Serif" font-size="11.00">numeric[10]</text>
<polygon fill="none" stroke="black" points="10.5,-831 10.5,-853 230.5,-853 230.5,-831 10.5,-831"/>
<text text-anchor="start" x="30.5" y="-839.2" font-family="Helvetica,sans-Serif" font-size="11.00">tax_desc</text>
<polygon fill="none" stroke="black" points="230.5,-831 230.5,-853 313.5,-853 313.5,-831 230.5,-831"/>
<text text-anchor="start" x="233.5" y="-839.2" font-family="Helvetica,sans-Serif" font-size="11.00">varchar[255]</text>
<polygon fill="none" stroke="black" points="10.5,-809 10.5,-831 230.5,-831 230.5,-809 10.5,-809"/>
<text text-anchor="start" x="30.5" y="-817.2" font-family="Helvetica,sans-Serif" font-size="11.00">lbr_taxrate</text>
<polygon fill="none" stroke="black" points="230.5,-809 230.5,-831 313.5,-831 313.5,-809 230.5,-809"/>
<text text-anchor="start" x="233.5" y="-817.2" font-family="Helvetica,sans-Serif" font-size="11.00">numeric[0]</text>
<polygon fill="none" stroke="black" points="10.5,-787 10.5,-809 230.5,-809 230.5,-787 10.5,-787"/>
<text text-anchor="start" x="30.5" y="-795.2" font-family="Helvetica,sans-Serif" font-size="11.00">lbr_taxbase</text>
<polygon fill="none" stroke="black" points="230.5,-787 230.5,-809 313.5,-809 313.5,-787 230.5,-787"/>
<text text-anchor="start" x="233.5" y="-795.2" font-family="Helvetica,sans-Serif" font-size="11.00">numeric[0]</text>
<polygon fill="none" stroke="black" points="10.5,-765 10.5,-787 230.5,-787 230.5,-765 10.5,-765"/>
<text text-anchor="start" x="30.5" y="-773.2" font-family="Helvetica,sans-Serif" font-size="11.00">lbr_taxamt</text>
<polygon fill="none" stroke="black" points="230.5,-765 230.5,-787 313.5,-787 313.5,-765 230.5,-765"/>
<text text-anchor="start" x="233.5" y="-773.2" font-family="Helvetica,sans-Serif" font-size="11.00">numeric[0]</text>
<polygon fill="none" stroke="black" points="10.5,-743 10.5,-765 230.5,-765 230.5,-743 10.5,-743"/>
<text text-anchor="start" x="30.5" y="-751.2" font-family="Helvetica,sans-Serif" font-size="11.00">lbr_taxname_id</text>
<polygon fill="none" stroke="black" points="230.5,-743 230.5,-765 313.5,-765 313.5,-743 230.5,-743"/>
<text text-anchor="start" x="233.5" y="-751.2" font-family="Helvetica,sans-Serif" font-size="11.00">numeric[10]</text>
<polygon fill="none" stroke="black" points="10.5,-721 10.5,-743 230.5,-743 230.5,-721 10.5,-721"/>
<text text-anchor="start" x="30.5" y="-729.2" font-family="Helvetica,sans-Serif" font-size="11.00">lbr_taxbaseamt</text>
<polygon fill="none" stroke="black" points="230.5,-721 230.5,-743 313.5,-743 313.5,-721 230.5,-721"/>
<text text-anchor="start" x="233.5" y="-729.2" font-family="Helvetica,sans-Serif" font-size="11.00">numeric[0]</text>
<polygon fill="none" stroke="black" points="10.5,-699 10.5,-721 230.5,-721 230.5,-699 10.5,-699"/>
<text text-anchor="start" x="30.5" y="-707.2" font-family="Helvetica,sans-Serif" font-size="11.00">istaxincluded</text>
<polygon fill="none" stroke="black" points="230.5,-699 230.5,-721 313.5,-721 313.5,-699 230.5,-699"/>
<text text-anchor="start" x="233.5" y="-707.2" font-family="Helvetica,sans-Serif" font-size="11.00">bpchar[1]</text>
<polygon fill="none" stroke="black" points="10.5,-677 10.5,-699 230.5,-699 230.5,-677 10.5,-677"/>
<text text-anchor="start" x="30.5" y="-685.2" font-family="Helvetica,sans-Serif" font-size="11.00">taxline_message</text>
<polygon fill="none" stroke="black" points="230.5,-677 230.5,-699 313.5,-699 313.5,-677 230.5,-677"/>
<text text-anchor="start" x="233.5" y="-685.2" font-family="Helvetica,sans-Serif" font-size="11.00">numeric[10]</text>
<polygon fill="none" stroke="black" points="10.5,-655 10.5,-677 230.5,-677 230.5,-655 10.5,-655"/>
<text text-anchor="start" x="30.5" y="-663.2" font-family="Helvetica,sans-Serif" font-size="11.00">lbr_taxstatus_id</text>
<polygon fill="none" stroke="black" points="230.5,-655 230.5,-677 313.5,-677 313.5,-655 230.5,-655"/>
<text text-anchor="start" x="233.5" y="-663.2" font-family="Helvetica,sans-Serif" font-size="11.00">numeric[10]</text>
<polygon fill="none" stroke="black" points="10.5,-633 10.5,-655 230.5,-655 230.5,-633 10.5,-633"/>
<text text-anchor="start" x="30.5" y="-641.2" font-family="Helvetica,sans-Serif" font-size="11.00">taxline_manual</text>
<polygon fill="none" stroke="black" points="230.5,-633 230.5,-655 313.5,-655 313.5,-633 230.5,-633"/>
<text text-anchor="start" x="233.5" y="-641.2" font-family="Helvetica,sans-Serif" font-size="11.00">bpchar[1]</text>
<polygon fill="none" stroke="black" points="10.5,-611 10.5,-633 230.5,-633 230.5,-611 10.5,-611"/>
<text text-anchor="start" x="30.5" y="-619.2" font-family="Helvetica,sans-Serif" font-size="11.00">cof_overridetaxrate</text>
<polygon fill="none" stroke="black" points="230.5,-611 230.5,-633 313.5,-633 313.5,-611 230.5,-611"/>
<text text-anchor="start" x="233.5" y="-619.2" font-family="Helvetica,sans-Serif" font-size="11.00">bpchar[1]</text>
<polygon fill="none" stroke="black" points="10.5,-589 10.5,-611 230.5,-611 230.5,-589 10.5,-589"/>
<text text-anchor="start" x="30.5" y="-597.2" font-family="Helvetica,sans-Serif" font-size="11.00">cof_overridetaxstatus</text>
<polygon fill="none" stroke="black" points="230.5,-589 230.5,-611 313.5,-611 313.5,-589 230.5,-589"/>
<text text-anchor="start" x="233.5" y="-597.2" font-family="Helvetica,sans-Serif" font-size="11.00">bpchar[1]</text>
<polygon fill="none" stroke="black" points="10.5,-567 10.5,-589 230.5,-589 230.5,-567 10.5,-567"/>
<text text-anchor="start" x="30.5" y="-575.2" font-family="Helvetica,sans-Serif" font-size="11.00">cof_overridetaxlm</text>
<polygon fill="none" stroke="black" points="230.5,-567 230.5,-589 313.5,-589 313.5,-567 230.5,-567"/>
<text text-anchor="start" x="233.5" y="-575.2" font-family="Helvetica,sans-Serif" font-size="11.00">bpchar[1]</text>
<polygon fill="none" stroke="black" points="10.5,-545 10.5,-567 230.5,-567 230.5,-545 10.5,-545"/>
<text text-anchor="start" x="30.5" y="-553.2" font-family="Helvetica,sans-Serif" font-size="11.00">cof_modbc_id</text>
<polygon fill="none" stroke="black" points="230.5,-545 230.5,-567 313.5,-567 313.5,-545 230.5,-545"/>
<text text-anchor="start" x="233.5" y="-553.2" font-family="Helvetica,sans-Serif" font-size="11.00">numeric[10]</text>
<polygon fill="none" stroke="black" points="10.5,-523 10.5,-545 230.5,-545 230.5,-523 10.5,-523"/>
<text text-anchor="start" x="30.5" y="-531.2" font-family="Helvetica,sans-Serif" font-size="11.00">cof_overridemodbc</text>
<polygon fill="none" stroke="black" points="230.5,-523 230.5,-545 313.5,-545 313.5,-523 230.5,-523"/>
<text text-anchor="start" x="233.5" y="-531.2" font-family="Helvetica,sans-Serif" font-size="11.00">bpchar[1]</text>
<polygon fill="none" stroke="black" points="10.5,-501 10.5,-523 230.5,-523 230.5,-501 10.5,-501"/>
<text text-anchor="start" x="30.5" y="-509.2" font-family="Helvetica,sans-Serif" font-size="11.00">cof_overridelistamt</text>
<polygon fill="none" stroke="black" points="230.5,-501 230.5,-523 313.5,-523 313.5,-501 230.5,-501"/>
<text text-anchor="start" x="233.5" y="-509.2" font-family="Helvetica,sans-Serif" font-size="11.00">bpchar[1]</text>
<polygon fill="none" stroke="black" points="10.5,-479 10.5,-501 230.5,-501 230.5,-479 10.5,-479"/>
<text text-anchor="start" x="30.5" y="-487.2" font-family="Helvetica,sans-Serif" font-size="11.00">cof_overridemvarate</text>
<polygon fill="none" stroke="black" points="230.5,-479 230.5,-501 313.5,-501 313.5,-479 230.5,-479"/>
<text text-anchor="start" x="233.5" y="-487.2" font-family="Helvetica,sans-Serif" font-size="11.00">bpchar[1]</text>
<polygon fill="none" stroke="black" points="10.5,-457 10.5,-479 230.5,-479 230.5,-457 10.5,-457"/>
<text text-anchor="start" x="30.5" y="-465.2" font-family="Helvetica,sans-Serif" font-size="11.00">cof_mvarate</text>
<polygon fill="none" stroke="black" points="230.5,-457 230.5,-479 313.5,-479 313.5,-457 230.5,-457"/>
<text text-anchor="start" x="233.5" y="-465.2" font-family="Helvetica,sans-Serif" font-size="11.00">numeric[0]</text>
<polygon fill="none" stroke="black" points="10.5,-435 10.5,-457 230.5,-457 230.5,-435 10.5,-435"/>
<text text-anchor="start" x="30.5" y="-443.2" font-family="Helvetica,sans-Serif" font-size="11.00">cof_listamt</text>
<polygon fill="none" stroke="black" points="230.5,-435 230.5,-457 313.5,-457 313.5,-435 230.5,-435"/>
<text text-anchor="start" x="233.5" y="-443.2" font-family="Helvetica,sans-Serif" font-size="11.00">numeric[0]</text>
<polygon fill="none" stroke="black" points="10.5,-413 10.5,-435 230.5,-435 230.5,-413 10.5,-413"/>
<text text-anchor="start" x="30.5" y="-421.2" font-family="Helvetica,sans-Serif" font-size="11.00">cof_printondelivery</text>
<polygon fill="none" stroke="black" points="230.5,-413 230.5,-435 313.5,-435 313.5,-413 230.5,-413"/>
<text text-anchor="start" x="233.5" y="-421.2" font-family="Helvetica,sans-Serif" font-size="11.00">bpchar[1]</text>
<polygon fill="none" stroke="black" points="10.5,-391 10.5,-413 230.5,-413 230.5,-391 10.5,-391"/>
<text text-anchor="start" x="30.5" y="-399.2" font-family="Helvetica,sans-Serif" font-size="11.00">cof_taxstatusdelivery_id</text>
<polygon fill="none" stroke="black" points="230.5,-391 230.5,-413 313.5,-413 313.5,-391 230.5,-391"/>
<text text-anchor="start" x="233.5" y="-399.2" font-family="Helvetica,sans-Serif" font-size="11.00">numeric[10]</text>
<polygon fill="none" stroke="black" points="10.5,-369 10.5,-391 230.5,-391 230.5,-369 10.5,-369"/>
<text text-anchor="start" x="30.5" y="-377.2" font-family="Helvetica,sans-Serif" font-size="11.00">cof_cenq_id</text>
<polygon fill="none" stroke="black" points="230.5,-369 230.5,-391 313.5,-391 313.5,-369 230.5,-369"/>
<text text-anchor="start" x="233.5" y="-377.2" font-family="Helvetica,sans-Serif" font-size="11.00">numeric[10]</text>
<polygon fill="none" stroke="black" points="10.5,-347 10.5,-369 230.5,-369 230.5,-347 10.5,-347"/>
<text text-anchor="start" x="30.5" y="-355.2" font-family="Helvetica,sans-Serif" font-size="11.00">cof_overridecenq</text>
<polygon fill="none" stroke="black" points="230.5,-347 230.5,-369 313.5,-369 313.5,-347 230.5,-347"/>
<text text-anchor="start" x="233.5" y="-355.2" font-family="Helvetica,sans-Serif" font-size="11.00">bpchar[1]</text>
<polygon fill="none" stroke="black" points="10.5,-325 10.5,-347 230.5,-347 230.5,-325 10.5,-325"/>
<text text-anchor="start" x="30.5" y="-333.2" font-family="Helvetica,sans-Serif" font-size="11.00">lbr_formula_id</text>
<polygon fill="none" stroke="black" points="230.5,-325 230.5,-347 313.5,-347 313.5,-325 230.5,-325"/>
<text text-anchor="start" x="233.5" y="-333.2" font-family="Helvetica,sans-Serif" font-size="11.00">numeric[10]</text>
<polygon fill="none" stroke="black" points="10.5,-303 10.5,-325 230.5,-325 230.5,-303 10.5,-303"/>
<text text-anchor="start" x="30.5" y="-311.2" font-family="Helvetica,sans-Serif" font-size="11.00">cof_overrideformula</text>
<polygon fill="none" stroke="black" points="230.5,-303 230.5,-325 313.5,-325 313.5,-303 230.5,-303"/>
<text text-anchor="start" x="233.5" y="-311.2" font-family="Helvetica,sans-Serif" font-size="11.00">bpchar[1]</text>
<polygon fill="none" stroke="black" points="10.5,-281 10.5,-303 230.5,-303 230.5,-281 10.5,-281"/>
<text text-anchor="start" x="30.5" y="-289.2" font-family="Helvetica,sans-Serif" font-size="11.00">cof_cnpjprod</text>
<polygon fill="none" stroke="black" points="230.5,-281 230.5,-303 313.5,-303 313.5,-281 230.5,-281"/>
<text text-anchor="start" x="233.5" y="-289.2" font-family="Helvetica,sans-Serif" font-size="11.00">varchar[14]</text>
<polygon fill="none" stroke="black" points="10.5,-259 10.5,-281 230.5,-281 230.5,-259 10.5,-259"/>
<text text-anchor="start" x="30.5" y="-267.2" font-family="Helvetica,sans-Serif" font-size="11.00">cof_vdespadu</text>
<polygon fill="none" stroke="black" points="230.5,-259 230.5,-281 313.5,-281 313.5,-259 230.5,-259"/>
<text text-anchor="start" x="233.5" y="-267.2" font-family="Helvetica,sans-Serif" font-size="11.00">numeric[0]</text>
<polygon fill="none" stroke="black" points="10.5,-237 10.5,-259 230.5,-259 230.5,-237 10.5,-237"/>
<text text-anchor="start" x="30.5" y="-245.2" font-family="Helvetica,sans-Serif" font-size="11.00">cof_viof</text>
<polygon fill="none" stroke="black" points="230.5,-237 230.5,-259 313.5,-259 313.5,-237 230.5,-237"/>
<text text-anchor="start" x="233.5" y="-245.2" font-family="Helvetica,sans-Serif" font-size="11.00">numeric[0]</text>
<polygon fill="none" stroke="black" points="10.5,-215 10.5,-237 230.5,-237 230.5,-215 10.5,-215"/>
<text text-anchor="start" x="30.5" y="-223.2" font-family="Helvetica,sans-Serif" font-size="11.00">cof_siscomexamt</text>
<polygon fill="none" stroke="black" points="230.5,-215 230.5,-237 313.5,-237 313.5,-215 230.5,-215"/>
<text text-anchor="start" x="233.5" y="-223.2" font-family="Helvetica,sans-Serif" font-size="11.00">numeric[0]</text>
<polygon fill="none" stroke="black" points="10.5,-193 10.5,-215 230.5,-215 230.5,-193 10.5,-193"/>
<text text-anchor="start" x="30.5" y="-201.2" font-family="Helvetica,sans-Serif" font-size="11.00">cof_overridemotdeson</text>
<polygon fill="none" stroke="black" points="230.5,-193 230.5,-215 313.5,-215 313.5,-193 230.5,-193"/>
<text text-anchor="start" x="233.5" y="-201.2" font-family="Helvetica,sans-Serif" font-size="11.00">bpchar[1]</text>
<polygon fill="none" stroke="black" points="10.5,-171 10.5,-193 230.5,-193 230.5,-171 10.5,-171"/>
<text text-anchor="start" x="30.5" y="-179.2" font-family="Helvetica,sans-Serif" font-size="11.00">cof_overridedesonrate</text>
<polygon fill="none" stroke="black" points="230.5,-171 230.5,-193 313.5,-193 313.5,-171 230.5,-171"/>
<text text-anchor="start" x="233.5" y="-179.2" font-family="Helvetica,sans-Serif" font-size="11.00">bpchar[1]</text>
<polygon fill="none" stroke="black" points="10.5,-149 10.5,-171 230.5,-171 230.5,-149 10.5,-149"/>
<text text-anchor="start" x="30.5" y="-157.2" font-family="Helvetica,sans-Serif" font-size="11.00">cof_desonrate</text>
<polygon fill="none" stroke="black" points="230.5,-149 230.5,-171 313.5,-171 313.5,-149 230.5,-149"/>
<text text-anchor="start" x="233.5" y="-157.2" font-family="Helvetica,sans-Serif" font-size="11.00">numeric[0]</text>
<polygon fill="none" stroke="black" points="10.5,-127 10.5,-149 230.5,-149 230.5,-127 10.5,-127"/>
<text text-anchor="start" x="30.5" y="-135.2" font-family="Helvetica,sans-Serif" font-size="11.00">cof_desonamt</text>
<polygon fill="none" stroke="black" points="230.5,-127 230.5,-149 313.5,-149 313.5,-127 230.5,-127"/>
<text text-anchor="start" x="233.5" y="-135.2" font-family="Helvetica,sans-Serif" font-size="11.00">numeric[0]</text>
<polygon fill="none" stroke="black" points="10.5,-105 10.5,-127 230.5,-127 230.5,-105 10.5,-105"/>
<text text-anchor="start" x="30.5" y="-113.2" font-family="Helvetica,sans-Serif" font-size="11.00">cof_motdeson_id</text>
<polygon fill="none" stroke="black" points="230.5,-105 230.5,-127 313.5,-127 313.5,-105 230.5,-105"/>
<text text-anchor="start" x="233.5" y="-113.2" font-family="Helvetica,sans-Serif" font-size="11.00">numeric[10]</text>
<polygon fill="none" stroke="black" points="10.5,-83 10.5,-105 230.5,-105 230.5,-83 10.5,-83"/>
<text text-anchor="start" x="30.5" y="-91.2" font-family="Helvetica,sans-Serif" font-size="11.00">cof_overridedifrate</text>
<polygon fill="none" stroke="black" points="230.5,-83 230.5,-105 313.5,-105 313.5,-83 230.5,-83"/>
<text text-anchor="start" x="233.5" y="-91.2" font-family="Helvetica,sans-Serif" font-size="11.00">bpchar[1]</text>
<polygon fill="none" stroke="black" points="10.5,-61 10.5,-83 230.5,-83 230.5,-61 10.5,-61"/>
<text text-anchor="start" x="30.5" y="-69.2" font-family="Helvetica,sans-Serif" font-size="11.00">cof_difrate</text>
<polygon fill="none" stroke="black" points="230.5,-61 230.5,-83 313.5,-83 313.5,-61 230.5,-61"/>
<text text-anchor="start" x="233.5" y="-69.2" font-family="Helvetica,sans-Serif" font-size="11.00">numeric[0]</text>
<polygon fill="none" stroke="black" points="10.5,-39 10.5,-61 230.5,-61 230.5,-39 10.5,-39"/>
<text text-anchor="start" x="30.5" y="-47.2" font-family="Helvetica,sans-Serif" font-size="11.00">cof_difamt</text>
<polygon fill="none" stroke="black" points="230.5,-39 230.5,-61 313.5,-61 313.5,-39 230.5,-39"/>
<text text-anchor="start" x="233.5" y="-47.2" font-family="Helvetica,sans-Serif" font-size="11.00">numeric[0]</text>
<polygon fill="none" stroke="black" stroke-width="2" points="9,-38 9,-1580 314,-1580 314,-38 9,-38"/>
</a>
</g>
</g>
</g>
</svg>
