<?xml version="1.0" encoding="UTF-8" standalone="no"?>
<!DOCTYPE svg PUBLIC "-//W3C//DTD SVG 1.1//EN"
 "http://www.w3.org/Graphics/SVG/1.1/DTD/svg11.dtd">
<!-- Generated by graphviz version 2.43.0 (0)
 -->
<!-- Title: oneDegreeRelationshipsDiagram Pages: 1 -->
<svg width="620pt" height="945pt"
 viewBox="0.00 0.00 620.00 945.00" xmlns="http://www.w3.org/2000/svg" xmlns:xlink="http://www.w3.org/1999/xlink">
<g id="graph0" class="graph" transform="scale(1 1) rotate(0) translate(4 941)">
<title>oneDegreeRelationshipsDiagram</title>
<polygon fill="#ffffff" stroke="transparent" points="-4,4 -4,-941 616,-941 616,4 -4,4"/>
<text text-anchor="middle" x="71.5" y="-7.2" font-family="Helvetica,sans-Serif" font-size="11.00">Generated by SchemaSpy</text>
<!-- cof_estoqueprevisto -->
<g id="node1" class="node">
<title>cof_estoqueprevisto</title>
<g id="a_node1"><a xlink:href="../../tables/cof_estoqueprevisto.html" xlink:title="cof_estoqueprevisto" target="_top">
<polygon fill="#ffffff" stroke="transparent" points="323,-581 323,-933 604,-933 604,-581 323,-581"/>
<polygon fill="#f5f5f5" stroke="transparent" points="325.5,-909 325.5,-931 602.5,-931 602.5,-909 325.5,-909"/>
<polygon fill="none" stroke="black" points="325.5,-909 325.5,-931 602.5,-931 602.5,-909 325.5,-909"/>
<text text-anchor="start" x="330.5" y="-918.2" font-family="Helvetica,sans-Serif" font-weight="bold" font-size="11.00">cof_estoqueprevisto</text>
<text text-anchor="start" x="567.5" y="-917.2" font-family="Helvetica,sans-Serif" font-size="11.00">[table]</text>
<polygon fill="none" stroke="black" points="325.5,-887 325.5,-909 519.5,-909 519.5,-887 325.5,-887"/>
<image xlink:href="../../images/primaryKeys.png" width="11px" height="12px" preserveAspectRatio="xMinYMin meet" x="330.5" y="-904"/>
<text text-anchor="start" x="345.5" y="-895.2" font-family="Helvetica,sans-Serif" font-size="11.00">cof_estoqueprevisto_id</text>
<polygon fill="none" stroke="black" points="519.5,-887 519.5,-909 602.5,-909 602.5,-887 519.5,-887"/>
<text text-anchor="start" x="522.5" y="-895.2" font-family="Helvetica,sans-Serif" font-size="11.00">numeric[10]</text>
<polygon fill="#ffffff" stroke="transparent" points="325.5,-865 325.5,-887 519.5,-887 519.5,-865 325.5,-865"/>
<polygon fill="none" stroke="black" points="325.5,-865 325.5,-887 519.5,-887 519.5,-865 325.5,-865"/>
<text text-anchor="start" x="345.5" y="-873.2" font-family="Helvetica,sans-Serif" font-size="11.00">cof_estoqueprevisto_uu</text>
<polygon fill="none" stroke="black" points="519.5,-865 519.5,-887 602.5,-887 602.5,-865 519.5,-865"/>
<text text-anchor="start" x="522.5" y="-873.2" font-family="Helvetica,sans-Serif" font-size="11.00">varchar[36]</text>
<polygon fill="none" stroke="black" points="325.5,-843 325.5,-865 519.5,-865 519.5,-843 325.5,-843"/>
<text text-anchor="start" x="345.5" y="-851.2" font-family="Helvetica,sans-Serif" font-size="11.00">ad_client_id</text>
<polygon fill="none" stroke="black" points="519.5,-843 519.5,-865 602.5,-865 602.5,-843 519.5,-843"/>
<text text-anchor="start" x="522.5" y="-851.2" font-family="Helvetica,sans-Serif" font-size="11.00">numeric[10]</text>
<polygon fill="#ffffff" stroke="transparent" points="325.5,-821 325.5,-843 519.5,-843 519.5,-821 325.5,-821"/>
<polygon fill="none" stroke="black" points="325.5,-821 325.5,-843 519.5,-843 519.5,-821 325.5,-821"/>
<text text-anchor="start" x="345.5" y="-829.2" font-family="Helvetica,sans-Serif" font-size="11.00">ad_org_id</text>
<polygon fill="none" stroke="black" points="519.5,-821 519.5,-843 602.5,-843 602.5,-821 519.5,-821"/>
<text text-anchor="start" x="522.5" y="-829.2" font-family="Helvetica,sans-Serif" font-size="11.00">numeric[10]</text>
<polygon fill="none" stroke="black" points="325.5,-799 325.5,-821 519.5,-821 519.5,-799 325.5,-799"/>
<text text-anchor="start" x="345.5" y="-807.2" font-family="Helvetica,sans-Serif" font-size="11.00">isactive</text>
<polygon fill="none" stroke="black" points="519.5,-799 519.5,-821 602.5,-821 602.5,-799 519.5,-799"/>
<text text-anchor="start" x="522.5" y="-807.2" font-family="Helvetica,sans-Serif" font-size="11.00">bpchar[1]</text>
<polygon fill="none" stroke="black" points="325.5,-777 325.5,-799 519.5,-799 519.5,-777 325.5,-777"/>
<text text-anchor="start" x="345.5" y="-785.2" font-family="Helvetica,sans-Serif" font-size="11.00">created</text>
<polygon fill="none" stroke="black" points="519.5,-777 519.5,-799 602.5,-799 602.5,-777 519.5,-777"/>
<text text-anchor="start" x="522.5" y="-785.2" font-family="Helvetica,sans-Serif" font-size="11.00">timestamp[29,6]</text>
<polygon fill="none" stroke="black" points="325.5,-755 325.5,-777 519.5,-777 519.5,-755 325.5,-755"/>
<text text-anchor="start" x="345.5" y="-763.2" font-family="Helvetica,sans-Serif" font-size="11.00">createdby</text>
<polygon fill="none" stroke="black" points="519.5,-755 519.5,-777 602.5,-777 602.5,-755 519.5,-755"/>
<text text-anchor="start" x="522.5" y="-763.2" font-family="Helvetica,sans-Serif" font-size="11.00">numeric[10]</text>
<polygon fill="none" stroke="black" points="325.5,-733 325.5,-755 519.5,-755 519.5,-733 325.5,-733"/>
<text text-anchor="start" x="345.5" y="-741.2" font-family="Helvetica,sans-Serif" font-size="11.00">updated</text>
<polygon fill="none" stroke="black" points="519.5,-733 519.5,-755 602.5,-755 602.5,-733 519.5,-733"/>
<text text-anchor="start" x="522.5" y="-741.2" font-family="Helvetica,sans-Serif" font-size="11.00">timestamp[29,6]</text>
<polygon fill="none" stroke="black" points="325.5,-711 325.5,-733 519.5,-733 519.5,-711 325.5,-711"/>
<text text-anchor="start" x="345.5" y="-719.2" font-family="Helvetica,sans-Serif" font-size="11.00">updatedby</text>
<polygon fill="none" stroke="black" points="519.5,-711 519.5,-733 602.5,-733 602.5,-711 519.5,-711"/>
<text text-anchor="start" x="522.5" y="-719.2" font-family="Helvetica,sans-Serif" font-size="11.00">numeric[10]</text>
<polygon fill="#ffffff" stroke="transparent" points="325.5,-689 325.5,-711 519.5,-711 519.5,-689 325.5,-689"/>
<polygon fill="none" stroke="black" points="325.5,-689 325.5,-711 519.5,-711 519.5,-689 325.5,-689"/>
<image xlink:href="../../images/foreignKeys.png" width="11px" height="12px" preserveAspectRatio="xMinYMin meet" x="330.5" y="-706"/>
<text text-anchor="start" x="345.5" y="-697.2" font-family="Helvetica,sans-Serif" font-size="11.00">m_product_id</text>
<polygon fill="none" stroke="black" points="519.5,-689 519.5,-711 602.5,-711 602.5,-689 519.5,-689"/>
<text text-anchor="start" x="522.5" y="-697.2" font-family="Helvetica,sans-Serif" font-size="11.00">numeric[10]</text>
<polygon fill="none" stroke="black" points="325.5,-667 325.5,-689 519.5,-689 519.5,-667 325.5,-667"/>
<text text-anchor="start" x="345.5" y="-675.2" font-family="Helvetica,sans-Serif" font-size="11.00">qty</text>
<polygon fill="none" stroke="black" points="519.5,-667 519.5,-689 602.5,-689 602.5,-667 519.5,-667"/>
<text text-anchor="start" x="522.5" y="-675.2" font-family="Helvetica,sans-Serif" font-size="11.00">numeric[0]</text>
<polygon fill="none" stroke="black" points="325.5,-645 325.5,-667 519.5,-667 519.5,-645 325.5,-645"/>
<text text-anchor="start" x="345.5" y="-653.2" font-family="Helvetica,sans-Serif" font-size="11.00">currentcostprice</text>
<polygon fill="none" stroke="black" points="519.5,-645 519.5,-667 602.5,-667 602.5,-645 519.5,-645"/>
<text text-anchor="start" x="522.5" y="-653.2" font-family="Helvetica,sans-Serif" font-size="11.00">numeric[0]</text>
<polygon fill="none" stroke="black" points="325.5,-623 325.5,-645 519.5,-645 519.5,-623 325.5,-623"/>
<text text-anchor="start" x="345.5" y="-631.2" font-family="Helvetica,sans-Serif" font-size="11.00">cumulatedamt</text>
<polygon fill="none" stroke="black" points="519.5,-623 519.5,-645 602.5,-645 602.5,-623 519.5,-623"/>
<text text-anchor="start" x="522.5" y="-631.2" font-family="Helvetica,sans-Serif" font-size="11.00">numeric[0]</text>
<polygon fill="none" stroke="black" points="325.5,-601 325.5,-623 519.5,-623 519.5,-601 325.5,-601"/>
<text text-anchor="start" x="345.5" y="-609.2" font-family="Helvetica,sans-Serif" font-size="11.00">qtyreserved</text>
<polygon fill="none" stroke="black" points="519.5,-601 519.5,-623 602.5,-623 602.5,-601 519.5,-601"/>
<text text-anchor="start" x="522.5" y="-609.2" font-family="Helvetica,sans-Serif" font-size="11.00">numeric[0]</text>
<polygon fill="#ffffff" stroke="transparent" points="325.5,-583 325.5,-601 602.5,-601 602.5,-583 325.5,-583"/>
<polygon fill="none" stroke="black" points="325.5,-583 325.5,-601 602.5,-601 602.5,-583 325.5,-583"/>
<polygon fill="#ffffff" stroke="transparent" points="326.5,-584 326.5,-600 421.5,-600 421.5,-584 326.5,-584"/>
<text text-anchor="start" x="328.5" y="-589.2" font-family="Helvetica,sans-Serif" font-size="11.00">&lt; 1</text>
<polygon fill="#ffffff" stroke="transparent" points="421.5,-584 421.5,-600 507.5,-600 507.5,-584 421.5,-584"/>
<text text-anchor="start" x="461" y="-589.2" font-family="Helvetica,sans-Serif" font-size="11.00"> &#160;</text>
<polygon fill="#ffffff" stroke="transparent" points="507.5,-584 507.5,-600 601.5,-600 601.5,-584 507.5,-584"/>
<text text-anchor="start" x="583.5" y="-589.2" font-family="Helvetica,sans-Serif" font-size="11.00">0 &gt;</text>
<polygon fill="black" stroke="black" points="421.5,-584 421.5,-600 421.5,-600 421.5,-584 421.5,-584"/>
<polygon fill="black" stroke="black" points="507.5,-584 507.5,-600 507.5,-600 507.5,-584 507.5,-584"/>
<polygon fill="none" stroke="black" stroke-width="2" points="324,-582 324,-932 603,-932 603,-582 324,-582"/>
</a>
</g>
</g>
<!-- m_product -->
<g id="node2" class="node">
<title>m_product</title>
<g id="a_node2"><a xlink:href="../../tables/m_product.html" xlink:title="m_product" target="_top">
<polygon fill="#ffffff" stroke="transparent" points="8,-37 8,-733 274,-733 274,-37 8,-37"/>
<polygon fill="#f5f5f5" stroke="transparent" points="8,-711 8,-733 274,-733 274,-711 8,-711"/>
<polygon fill="none" stroke="black" points="8,-711 8,-733 274,-733 274,-711 8,-711"/>
<text text-anchor="start" x="13" y="-720.2" font-family="Helvetica,sans-Serif" font-weight="bold" font-size="11.00">m_product</text>
<text text-anchor="start" x="239" y="-719.2" font-family="Helvetica,sans-Serif" font-size="11.00">[table]</text>
<polygon fill="none" stroke="black" points="8,-689 8,-711 274,-711 274,-689 8,-689"/>
<image xlink:href="../../images/primaryKeys.png" width="11px" height="12px" preserveAspectRatio="xMinYMin meet" x="13" y="-706"/>
<text text-anchor="start" x="28" y="-697.2" font-family="Helvetica,sans-Serif" font-size="11.00">m_product_id</text>
<polygon fill="#ffffff" stroke="transparent" points="8,-667 8,-689 274,-689 274,-667 8,-667"/>
<polygon fill="none" stroke="black" points="8,-667 8,-689 274,-689 274,-667 8,-667"/>
<image xlink:href="../../images/foreignKeys.png" width="11px" height="12px" preserveAspectRatio="xMinYMin meet" x="13" y="-684"/>
<text text-anchor="start" x="28" y="-675.2" font-family="Helvetica,sans-Serif" font-size="11.00">ad_client_id</text>
<polygon fill="none" stroke="black" points="8,-645 8,-667 274,-667 274,-645 8,-645"/>
<image xlink:href="../../images/foreignKeys.png" width="11px" height="12px" preserveAspectRatio="xMinYMin meet" x="13" y="-662"/>
<text text-anchor="start" x="28" y="-653.2" font-family="Helvetica,sans-Serif" font-size="11.00">ad_org_id</text>
<polygon fill="#ffffff" stroke="transparent" points="8,-623 8,-645 274,-645 274,-623 8,-623"/>
<polygon fill="none" stroke="black" points="8,-623 8,-645 274,-645 274,-623 8,-623"/>
<text text-anchor="start" x="28" y="-631.2" font-family="Helvetica,sans-Serif" font-size="11.00">value</text>
<polygon fill="#ffffff" stroke="transparent" points="8,-601 8,-623 274,-623 274,-601 8,-601"/>
<polygon fill="none" stroke="black" points="8,-601 8,-623 274,-623 274,-601 8,-601"/>
<text text-anchor="start" x="28" y="-609.2" font-family="Helvetica,sans-Serif" font-size="11.00">name</text>
<polygon fill="#ffffff" stroke="transparent" points="8,-579 8,-601 274,-601 274,-579 8,-579"/>
<polygon fill="none" stroke="black" points="8,-579 8,-601 274,-601 274,-579 8,-579"/>
<text text-anchor="start" x="28" y="-587.2" font-family="Helvetica,sans-Serif" font-size="11.00">upc</text>
<polygon fill="none" stroke="black" points="8,-557 8,-579 274,-579 274,-557 8,-557"/>
<image xlink:href="../../images/foreignKeys.png" width="11px" height="12px" preserveAspectRatio="xMinYMin meet" x="13" y="-574"/>
<text text-anchor="start" x="28" y="-565.2" font-family="Helvetica,sans-Serif" font-size="11.00">c_uom_id</text>
<polygon fill="none" stroke="black" points="8,-535 8,-557 274,-557 274,-535 8,-535"/>
<image xlink:href="../../images/foreignKeys.png" width="11px" height="12px" preserveAspectRatio="xMinYMin meet" x="13" y="-552"/>
<text text-anchor="start" x="28" y="-543.2" font-family="Helvetica,sans-Serif" font-size="11.00">salesrep_id</text>
<polygon fill="none" stroke="black" points="8,-513 8,-535 274,-535 274,-513 8,-513"/>
<image xlink:href="../../images/foreignKeys.png" width="11px" height="12px" preserveAspectRatio="xMinYMin meet" x="13" y="-530"/>
<text text-anchor="start" x="28" y="-521.2" font-family="Helvetica,sans-Serif" font-size="11.00">c_revenuerecognition_id</text>
<polygon fill="#ffffff" stroke="transparent" points="8,-491 8,-513 274,-513 274,-491 8,-491"/>
<polygon fill="none" stroke="black" points="8,-491 8,-513 274,-513 274,-491 8,-491"/>
<image xlink:href="../../images/foreignKeys.png" width="11px" height="12px" preserveAspectRatio="xMinYMin meet" x="13" y="-508"/>
<text text-anchor="start" x="28" y="-499.2" font-family="Helvetica,sans-Serif" font-size="11.00">m_product_category_id</text>
<polygon fill="none" stroke="black" points="8,-469 8,-491 274,-491 274,-469 8,-469"/>
<image xlink:href="../../images/foreignKeys.png" width="11px" height="12px" preserveAspectRatio="xMinYMin meet" x="13" y="-486"/>
<text text-anchor="start" x="28" y="-477.2" font-family="Helvetica,sans-Serif" font-size="11.00">c_taxcategory_id</text>
<polygon fill="#ffffff" stroke="transparent" points="8,-447 8,-469 274,-469 274,-447 8,-447"/>
<polygon fill="none" stroke="black" points="8,-447 8,-469 274,-469 274,-447 8,-447"/>
<image xlink:href="../../images/foreignKeys.png" width="11px" height="12px" preserveAspectRatio="xMinYMin meet" x="13" y="-464"/>
<text text-anchor="start" x="28" y="-455.2" font-family="Helvetica,sans-Serif" font-size="11.00">s_resource_id</text>
<polygon fill="#ffffff" stroke="transparent" points="8,-425 8,-447 274,-447 274,-425 8,-425"/>
<polygon fill="none" stroke="black" points="8,-425 8,-447 274,-447 274,-425 8,-425"/>
<image xlink:href="../../images/foreignKeys.png" width="11px" height="12px" preserveAspectRatio="xMinYMin meet" x="13" y="-442"/>
<text text-anchor="start" x="28" y="-433.2" font-family="Helvetica,sans-Serif" font-size="11.00">s_expensetype_id</text>
<polygon fill="none" stroke="black" points="8,-403 8,-425 274,-425 274,-403 8,-403"/>
<image xlink:href="../../images/foreignKeys.png" width="11px" height="12px" preserveAspectRatio="xMinYMin meet" x="13" y="-420"/>
<text text-anchor="start" x="28" y="-411.2" font-family="Helvetica,sans-Serif" font-size="11.00">r_mailtext_id</text>
<polygon fill="none" stroke="black" points="8,-381 8,-403 274,-403 274,-381 8,-381"/>
<image xlink:href="../../images/foreignKeys.png" width="11px" height="12px" preserveAspectRatio="xMinYMin meet" x="13" y="-398"/>
<text text-anchor="start" x="28" y="-389.2" font-family="Helvetica,sans-Serif" font-size="11.00">m_attributeset_id</text>
<polygon fill="none" stroke="black" points="8,-359 8,-381 274,-381 274,-359 8,-359"/>
<image xlink:href="../../images/foreignKeys.png" width="11px" height="12px" preserveAspectRatio="xMinYMin meet" x="13" y="-376"/>
<text text-anchor="start" x="28" y="-367.2" font-family="Helvetica,sans-Serif" font-size="11.00">m_freightcategory_id</text>
<polygon fill="none" stroke="black" points="8,-337 8,-359 274,-359 274,-337 8,-337"/>
<image xlink:href="../../images/foreignKeys.png" width="11px" height="12px" preserveAspectRatio="xMinYMin meet" x="13" y="-354"/>
<text text-anchor="start" x="28" y="-345.2" font-family="Helvetica,sans-Serif" font-size="11.00">m_locator_id</text>
<polygon fill="none" stroke="black" points="8,-315 8,-337 274,-337 274,-315 8,-315"/>
<image xlink:href="../../images/foreignKeys.png" width="11px" height="12px" preserveAspectRatio="xMinYMin meet" x="13" y="-332"/>
<text text-anchor="start" x="28" y="-323.2" font-family="Helvetica,sans-Serif" font-size="11.00">c_subscriptiontype_id</text>
<polygon fill="#ffffff" stroke="transparent" points="8,-293 8,-315 274,-315 274,-293 8,-293"/>
<polygon fill="none" stroke="black" points="8,-293 8,-315 274,-315 274,-293 8,-293"/>
<text text-anchor="start" x="28" y="-301.2" font-family="Helvetica,sans-Serif" font-size="11.00">m_product_uu</text>
<polygon fill="none" stroke="black" points="8,-271 8,-293 274,-293 274,-271 8,-271"/>
<image xlink:href="../../images/foreignKeys.png" width="11px" height="12px" preserveAspectRatio="xMinYMin meet" x="13" y="-288"/>
<text text-anchor="start" x="28" y="-279.2" font-family="Helvetica,sans-Serif" font-size="11.00">m_parttype_id</text>
<polygon fill="none" stroke="black" points="8,-249 8,-271 274,-271 274,-249 8,-249"/>
<image xlink:href="../../images/foreignKeys.png" width="11px" height="12px" preserveAspectRatio="xMinYMin meet" x="13" y="-266"/>
<text text-anchor="start" x="28" y="-257.2" font-family="Helvetica,sans-Serif" font-size="11.00">cof_cest_id</text>
<polygon fill="none" stroke="black" points="8,-227 8,-249 274,-249 274,-227 8,-227"/>
<image xlink:href="../../images/foreignKeys.png" width="11px" height="12px" preserveAspectRatio="xMinYMin meet" x="13" y="-244"/>
<text text-anchor="start" x="28" y="-235.2" font-family="Helvetica,sans-Serif" font-size="11.00">cof_c_generoitem_sped_id</text>
<polygon fill="none" stroke="black" points="8,-205 8,-227 274,-227 274,-205 8,-205"/>
<image xlink:href="../../images/foreignKeys.png" width="11px" height="12px" preserveAspectRatio="xMinYMin meet" x="13" y="-222"/>
<text text-anchor="start" x="28" y="-213.2" font-family="Helvetica,sans-Serif" font-size="11.00">cof_producttype_id</text>
<polygon fill="none" stroke="black" points="8,-183 8,-205 274,-205 274,-183 8,-183"/>
<image xlink:href="../../images/foreignKeys.png" width="11px" height="12px" preserveAspectRatio="xMinYMin meet" x="13" y="-200"/>
<text text-anchor="start" x="28" y="-191.2" font-family="Helvetica,sans-Serif" font-size="11.00">cof_productclass_id</text>
<polygon fill="none" stroke="black" points="8,-161 8,-183 274,-183 274,-161 8,-161"/>
<image xlink:href="../../images/foreignKeys.png" width="11px" height="12px" preserveAspectRatio="xMinYMin meet" x="13" y="-178"/>
<text text-anchor="start" x="28" y="-169.2" font-family="Helvetica,sans-Serif" font-size="11.00">cof_productgroup_id</text>
<polygon fill="none" stroke="black" points="8,-139 8,-161 274,-161 274,-139 8,-139"/>
<image xlink:href="../../images/foreignKeys.png" width="11px" height="12px" preserveAspectRatio="xMinYMin meet" x="13" y="-156"/>
<text text-anchor="start" x="28" y="-147.2" font-family="Helvetica,sans-Serif" font-size="11.00">cof_nbs_id</text>
<polygon fill="none" stroke="black" points="8,-117 8,-139 274,-139 274,-117 8,-117"/>
<image xlink:href="../../images/foreignKeys.png" width="11px" height="12px" preserveAspectRatio="xMinYMin meet" x="13" y="-134"/>
<text text-anchor="start" x="28" y="-125.2" font-family="Helvetica,sans-Serif" font-size="11.00">cof_grupofornecedor_id</text>
<polygon fill="none" stroke="black" points="8,-95 8,-117 274,-117 274,-95 8,-95"/>
<image xlink:href="../../images/foreignKeys.png" width="11px" height="12px" preserveAspectRatio="xMinYMin meet" x="13" y="-112"/>
<text text-anchor="start" x="28" y="-103.2" font-family="Helvetica,sans-Serif" font-size="11.00">cof_gruposeparacao_id</text>
<polygon fill="none" stroke="black" points="8,-73 8,-95 274,-95 274,-73 8,-73"/>
<image xlink:href="../../images/foreignKeys.png" width="11px" height="12px" preserveAspectRatio="xMinYMin meet" x="13" y="-90"/>
<text text-anchor="start" x="28" y="-81.2" font-family="Helvetica,sans-Serif" font-size="11.00">cof_servicoatrelado_id</text>
<polygon fill="none" stroke="black" points="8,-55 8,-73 274,-73 274,-55 8,-55"/>
<text text-anchor="start" x="11" y="-61.2" font-family="Helvetica,sans-Serif" font-size="11.00">...</text>
<polygon fill="#ffffff" stroke="transparent" points="8,-37 8,-55 274,-55 274,-37 8,-37"/>
<polygon fill="none" stroke="black" points="8,-37 8,-55 274,-55 274,-37 8,-37"/>
<polygon fill="#ffffff" stroke="transparent" points="9,-38 9,-54 93,-54 93,-38 9,-38"/>
<text text-anchor="start" x="11" y="-43.2" font-family="Helvetica,sans-Serif" font-size="11.00">&lt; 24</text>
<polygon fill="#ffffff" stroke="transparent" points="93,-38 93,-54 183,-54 183,-38 93,-38"/>
<text text-anchor="start" x="124" y="-43.2" font-family="Helvetica,sans-Serif" font-size="11.00">1 row</text>
<polygon fill="#ffffff" stroke="transparent" points="183,-38 183,-54 273,-54 273,-38 183,-38"/>
<text text-anchor="start" x="243" y="-43.2" font-family="Helvetica,sans-Serif" font-size="11.00">187 &gt;</text>
<polygon fill="black" stroke="black" points="93,-38 93,-54 93,-54 93,-38 93,-38"/>
<polygon fill="black" stroke="black" points="183,-38 183,-54 183,-54 183,-38 183,-38"/>
</a>
</g>
</g>
<!-- cof_estoqueprevisto&#45;&gt;m_product -->
<g id="edge1" class="edge">
<title>cof_estoqueprevisto:w&#45;&gt;m_product:e</title>
<path fill="none" stroke="black" d="M309.84,-700C298.41,-700 291.16,-700 275,-700"/>
<polygon fill="black" stroke="black" points="316.5,-700 324.5,-703.6 320.5,-700 324.5,-700 324.5,-700 324.5,-700 320.5,-700 324.5,-696.4 316.5,-700 316.5,-700"/>
<ellipse fill="none" stroke="black" cx="313.3" cy="-700" rx="3.2" ry="3.2"/>
</g>
</g>
</svg>
