<?xml version="1.0" encoding="UTF-8" standalone="no"?>
<!DOCTYPE svg PUBLIC "-//W3C//DTD SVG 1.1//EN"
 "http://www.w3.org/Graphics/SVG/1.1/DTD/svg11.dtd">
<!-- Generated by graphviz version 2.43.0 (0)
 -->
<!-- Title: oneDegreeRelationshipsDiagram Pages: 1 -->
<svg width="933pt" height="1296pt"
 viewBox="0.00 0.00 933.00 1296.00" xmlns="http://www.w3.org/2000/svg" xmlns:xlink="http://www.w3.org/1999/xlink">
<g id="graph0" class="graph" transform="scale(1 1) rotate(0) translate(4 1292)">
<title>oneDegreeRelationshipsDiagram</title>
<polygon fill="#ffffff" stroke="transparent" points="-4,4 -4,-1292 929,-1292 929,4 -4,4"/>
<text text-anchor="middle" x="71.5" y="-7.2" font-family="Helvetica,sans-Serif" font-size="11.00">Generated by SchemaSpy</text>
<!-- cof_packinglist_line -->
<g id="node1" class="node">
<title>cof_packinglist_line</title>
<g id="a_node1"><a xlink:href="../../tables/cof_packinglist_line.html" xlink:title="cof_packinglist_line" target="_top">
<polygon fill="#ffffff" stroke="transparent" points="690,-874 690,-1284 917,-1284 917,-874 690,-874"/>
<polygon fill="#f5f5f5" stroke="transparent" points="690.5,-1262 690.5,-1284 917.5,-1284 917.5,-1262 690.5,-1262"/>
<polygon fill="none" stroke="black" points="690.5,-1262 690.5,-1284 917.5,-1284 917.5,-1262 690.5,-1262"/>
<text text-anchor="start" x="695.5" y="-1271.2" font-family="Helvetica,sans-Serif" font-weight="bold" font-size="11.00">cof_packinglist_line</text>
<text text-anchor="start" x="882.5" y="-1270.2" font-family="Helvetica,sans-Serif" font-size="11.00">[table]</text>
<polygon fill="none" stroke="black" points="690.5,-1240 690.5,-1262 917.5,-1262 917.5,-1240 690.5,-1240"/>
<image xlink:href="../../images/primaryKeys.png" width="11px" height="12px" preserveAspectRatio="xMinYMin meet" x="695.5" y="-1257"/>
<text text-anchor="start" x="710.5" y="-1248.2" font-family="Helvetica,sans-Serif" font-size="11.00">cof_packinglist_line_id</text>
<polygon fill="#ffffff" stroke="transparent" points="690.5,-1218 690.5,-1240 917.5,-1240 917.5,-1218 690.5,-1218"/>
<polygon fill="none" stroke="black" points="690.5,-1218 690.5,-1240 917.5,-1240 917.5,-1218 690.5,-1218"/>
<text text-anchor="start" x="710.5" y="-1226.2" font-family="Helvetica,sans-Serif" font-size="11.00">cof_packinglist_line_uu</text>
<polygon fill="none" stroke="black" points="690.5,-1196 690.5,-1218 917.5,-1218 917.5,-1196 690.5,-1196"/>
<image xlink:href="../../images/foreignKeys.png" width="11px" height="12px" preserveAspectRatio="xMinYMin meet" x="695.5" y="-1213"/>
<text text-anchor="start" x="710.5" y="-1204.2" font-family="Helvetica,sans-Serif" font-size="11.00">cof_packinglist_id</text>
<polygon fill="none" stroke="black" points="690.5,-1174 690.5,-1196 917.5,-1196 917.5,-1174 690.5,-1174"/>
<image xlink:href="../../images/foreignKeys.png" width="11px" height="12px" preserveAspectRatio="xMinYMin meet" x="695.5" y="-1191"/>
<text text-anchor="start" x="710.5" y="-1182.2" font-family="Helvetica,sans-Serif" font-size="11.00">m_inout_id</text>
<polygon fill="none" stroke="black" points="690.5,-1152 690.5,-1174 917.5,-1174 917.5,-1152 690.5,-1152"/>
<image xlink:href="../../images/foreignKeys.png" width="11px" height="12px" preserveAspectRatio="xMinYMin meet" x="695.5" y="-1169"/>
<text text-anchor="start" x="710.5" y="-1160.2" font-family="Helvetica,sans-Serif" font-size="11.00">cof_deliveryrestriction_id</text>
<polygon fill="none" stroke="black" points="690.5,-1130 690.5,-1152 917.5,-1152 917.5,-1130 690.5,-1130"/>
<image xlink:href="../../images/foreignKeys.png" width="11px" height="12px" preserveAspectRatio="xMinYMin meet" x="695.5" y="-1147"/>
<text text-anchor="start" x="710.5" y="-1138.2" font-family="Helvetica,sans-Serif" font-size="11.00">cof_deliveryoccurrence_id</text>
<polygon fill="none" stroke="black" points="690.5,-1108 690.5,-1130 917.5,-1130 917.5,-1108 690.5,-1108"/>
<image xlink:href="../../images/foreignKeys.png" width="11px" height="12px" preserveAspectRatio="xMinYMin meet" x="695.5" y="-1125"/>
<text text-anchor="start" x="710.5" y="-1116.2" font-family="Helvetica,sans-Serif" font-size="11.00">c_bpartner_id</text>
<polygon fill="none" stroke="black" points="690.5,-1086 690.5,-1108 917.5,-1108 917.5,-1086 690.5,-1086"/>
<image xlink:href="../../images/foreignKeys.png" width="11px" height="12px" preserveAspectRatio="xMinYMin meet" x="695.5" y="-1103"/>
<text text-anchor="start" x="710.5" y="-1094.2" font-family="Helvetica,sans-Serif" font-size="11.00">c_bpartner_location_id</text>
<polygon fill="#ffffff" stroke="transparent" points="690.5,-1064 690.5,-1086 917.5,-1086 917.5,-1064 690.5,-1064"/>
<polygon fill="none" stroke="black" points="690.5,-1064 690.5,-1086 917.5,-1086 917.5,-1064 690.5,-1064"/>
<image xlink:href="../../images/foreignKeys.png" width="11px" height="12px" preserveAspectRatio="xMinYMin meet" x="695.5" y="-1081"/>
<text text-anchor="start" x="710.5" y="-1072.2" font-family="Helvetica,sans-Serif" font-size="11.00">c_order_id</text>
<polygon fill="none" stroke="black" points="690.5,-1042 690.5,-1064 917.5,-1064 917.5,-1042 690.5,-1042"/>
<image xlink:href="../../images/foreignKeys.png" width="11px" height="12px" preserveAspectRatio="xMinYMin meet" x="695.5" y="-1059"/>
<text text-anchor="start" x="710.5" y="-1050.2" font-family="Helvetica,sans-Serif" font-size="11.00">lbr_docfiscal_id</text>
<polygon fill="none" stroke="black" points="690.5,-1020 690.5,-1042 917.5,-1042 917.5,-1020 690.5,-1020"/>
<image xlink:href="../../images/foreignKeys.png" width="11px" height="12px" preserveAspectRatio="xMinYMin meet" x="695.5" y="-1037"/>
<text text-anchor="start" x="710.5" y="-1028.2" font-family="Helvetica,sans-Serif" font-size="11.00">m_rma_id</text>
<polygon fill="none" stroke="black" points="690.5,-998 690.5,-1020 917.5,-1020 917.5,-998 690.5,-998"/>
<image xlink:href="../../images/foreignKeys.png" width="11px" height="12px" preserveAspectRatio="xMinYMin meet" x="695.5" y="-1015"/>
<text text-anchor="start" x="710.5" y="-1006.2" font-family="Helvetica,sans-Serif" font-size="11.00">cof_m_shipregion_id</text>
<polygon fill="none" stroke="black" points="690.5,-976 690.5,-998 917.5,-998 917.5,-976 690.5,-976"/>
<image xlink:href="../../images/foreignKeys.png" width="11px" height="12px" preserveAspectRatio="xMinYMin meet" x="695.5" y="-993"/>
<text text-anchor="start" x="710.5" y="-984.2" font-family="Helvetica,sans-Serif" font-size="11.00">cof_dfe_id</text>
<polygon fill="none" stroke="black" points="690.5,-954 690.5,-976 917.5,-976 917.5,-954 690.5,-954"/>
<image xlink:href="../../images/foreignKeys.png" width="11px" height="12px" preserveAspectRatio="xMinYMin meet" x="695.5" y="-971"/>
<text text-anchor="start" x="710.5" y="-962.2" font-family="Helvetica,sans-Serif" font-size="11.00">cte_bpremetente_id</text>
<polygon fill="none" stroke="black" points="690.5,-932 690.5,-954 917.5,-954 917.5,-932 690.5,-932"/>
<image xlink:href="../../images/foreignKeys.png" width="11px" height="12px" preserveAspectRatio="xMinYMin meet" x="695.5" y="-949"/>
<text text-anchor="start" x="710.5" y="-940.2" font-family="Helvetica,sans-Serif" font-size="11.00">cte_bptomador_id</text>
<polygon fill="none" stroke="black" points="690.5,-910 690.5,-932 917.5,-932 917.5,-910 690.5,-910"/>
<image xlink:href="../../images/foreignKeys.png" width="11px" height="12px" preserveAspectRatio="xMinYMin meet" x="695.5" y="-927"/>
<text text-anchor="start" x="710.5" y="-918.2" font-family="Helvetica,sans-Serif" font-size="11.00">cte_cte_id</text>
<polygon fill="none" stroke="black" points="690.5,-892 690.5,-910 917.5,-910 917.5,-892 690.5,-892"/>
<text text-anchor="start" x="693.5" y="-898.2" font-family="Helvetica,sans-Serif" font-size="11.00">...</text>
<polygon fill="#ffffff" stroke="transparent" points="690.5,-874 690.5,-892 917.5,-892 917.5,-874 690.5,-874"/>
<polygon fill="none" stroke="black" points="690.5,-874 690.5,-892 917.5,-892 917.5,-874 690.5,-874"/>
<polygon fill="#ffffff" stroke="transparent" points="691.5,-875 691.5,-891 773.5,-891 773.5,-875 691.5,-875"/>
<text text-anchor="start" x="693.5" y="-880.2" font-family="Helvetica,sans-Serif" font-size="11.00">&lt; 14</text>
<polygon fill="#ffffff" stroke="transparent" points="773.5,-875 773.5,-891 840.5,-891 840.5,-875 773.5,-875"/>
<text text-anchor="start" x="803.5" y="-880.2" font-family="Helvetica,sans-Serif" font-size="11.00"> &#160;</text>
<polygon fill="#ffffff" stroke="transparent" points="840.5,-875 840.5,-891 916.5,-891 916.5,-875 840.5,-875"/>
<text text-anchor="start" x="898.5" y="-880.2" font-family="Helvetica,sans-Serif" font-size="11.00">2 &gt;</text>
<polygon fill="black" stroke="black" points="773.5,-875 773.5,-891 773.5,-891 773.5,-875 773.5,-875"/>
<polygon fill="black" stroke="black" points="840.5,-875 840.5,-891 840.5,-891 840.5,-875 840.5,-875"/>
</a>
</g>
</g>
<!-- cof_dfe -->
<g id="node2" class="node">
<title>cof_dfe</title>
<g id="a_node2"><a xlink:href="../../tables/cof_dfe.html" xlink:title="cof_dfe" target="_top">
<polygon fill="#ffffff" stroke="transparent" points="8,-37 8,-895 280,-895 280,-37 8,-37"/>
<polygon fill="#f5f5f5" stroke="transparent" points="10,-871 10,-893 278,-893 278,-871 10,-871"/>
<polygon fill="none" stroke="black" points="10,-871 10,-893 278,-893 278,-871 10,-871"/>
<text text-anchor="start" x="15" y="-880.2" font-family="Helvetica,sans-Serif" font-weight="bold" font-size="11.00">cof_dfe</text>
<text text-anchor="start" x="243" y="-879.2" font-family="Helvetica,sans-Serif" font-size="11.00">[table]</text>
<polygon fill="none" stroke="black" points="10,-849 10,-871 195,-871 195,-849 10,-849"/>
<image xlink:href="../../images/primaryKeys.png" width="11px" height="12px" preserveAspectRatio="xMinYMin meet" x="15" y="-866"/>
<text text-anchor="start" x="30" y="-857.2" font-family="Helvetica,sans-Serif" font-size="11.00">cof_dfe_id</text>
<polygon fill="none" stroke="black" points="195,-849 195,-871 278,-871 278,-849 195,-849"/>
<text text-anchor="start" x="198" y="-857.2" font-family="Helvetica,sans-Serif" font-size="11.00">numeric[10]</text>
<polygon fill="none" stroke="black" points="10,-827 10,-849 195,-849 195,-827 10,-827"/>
<text text-anchor="start" x="30" y="-835.2" font-family="Helvetica,sans-Serif" font-size="11.00">ad_client_id</text>
<polygon fill="none" stroke="black" points="195,-827 195,-849 278,-849 278,-827 195,-827"/>
<text text-anchor="start" x="198" y="-835.2" font-family="Helvetica,sans-Serif" font-size="11.00">numeric[10]</text>
<polygon fill="none" stroke="black" points="10,-805 10,-827 195,-827 195,-805 10,-805"/>
<text text-anchor="start" x="30" y="-813.2" font-family="Helvetica,sans-Serif" font-size="11.00">ad_org_id</text>
<polygon fill="none" stroke="black" points="195,-805 195,-827 278,-827 278,-805 195,-805"/>
<text text-anchor="start" x="198" y="-813.2" font-family="Helvetica,sans-Serif" font-size="11.00">numeric[10]</text>
<polygon fill="none" stroke="black" points="10,-783 10,-805 195,-805 195,-783 10,-783"/>
<text text-anchor="start" x="30" y="-791.2" font-family="Helvetica,sans-Serif" font-size="11.00">isactive</text>
<polygon fill="none" stroke="black" points="195,-783 195,-805 278,-805 278,-783 195,-783"/>
<text text-anchor="start" x="198" y="-791.2" font-family="Helvetica,sans-Serif" font-size="11.00">bpchar[1]</text>
<polygon fill="none" stroke="black" points="10,-761 10,-783 195,-783 195,-761 10,-761"/>
<text text-anchor="start" x="30" y="-769.2" font-family="Helvetica,sans-Serif" font-size="11.00">created</text>
<polygon fill="none" stroke="black" points="195,-761 195,-783 278,-783 278,-761 195,-761"/>
<text text-anchor="start" x="198" y="-769.2" font-family="Helvetica,sans-Serif" font-size="11.00">timestamp[29,6]</text>
<polygon fill="none" stroke="black" points="10,-739 10,-761 195,-761 195,-739 10,-739"/>
<text text-anchor="start" x="30" y="-747.2" font-family="Helvetica,sans-Serif" font-size="11.00">createdby</text>
<polygon fill="none" stroke="black" points="195,-739 195,-761 278,-761 278,-739 195,-739"/>
<text text-anchor="start" x="198" y="-747.2" font-family="Helvetica,sans-Serif" font-size="11.00">numeric[10]</text>
<polygon fill="none" stroke="black" points="10,-717 10,-739 195,-739 195,-717 10,-717"/>
<text text-anchor="start" x="30" y="-725.2" font-family="Helvetica,sans-Serif" font-size="11.00">updated</text>
<polygon fill="none" stroke="black" points="195,-717 195,-739 278,-739 278,-717 195,-717"/>
<text text-anchor="start" x="198" y="-725.2" font-family="Helvetica,sans-Serif" font-size="11.00">timestamp[29,6]</text>
<polygon fill="none" stroke="black" points="10,-695 10,-717 195,-717 195,-695 10,-695"/>
<text text-anchor="start" x="30" y="-703.2" font-family="Helvetica,sans-Serif" font-size="11.00">updatedby</text>
<polygon fill="none" stroke="black" points="195,-695 195,-717 278,-717 278,-695 195,-695"/>
<text text-anchor="start" x="198" y="-703.2" font-family="Helvetica,sans-Serif" font-size="11.00">numeric[10]</text>
<polygon fill="none" stroke="black" points="10,-673 10,-695 195,-695 195,-673 10,-673"/>
<text text-anchor="start" x="30" y="-681.2" font-family="Helvetica,sans-Serif" font-size="11.00">bpname</text>
<polygon fill="none" stroke="black" points="195,-673 195,-695 278,-695 278,-673 195,-673"/>
<text text-anchor="start" x="198" y="-681.2" font-family="Helvetica,sans-Serif" font-size="11.00">varchar[255]</text>
<polygon fill="none" stroke="black" points="10,-651 10,-673 195,-673 195,-651 10,-651"/>
<text text-anchor="start" x="30" y="-659.2" font-family="Helvetica,sans-Serif" font-size="11.00">datedoc</text>
<polygon fill="none" stroke="black" points="195,-651 195,-673 278,-673 278,-651 195,-651"/>
<text text-anchor="start" x="198" y="-659.2" font-family="Helvetica,sans-Serif" font-size="11.00">timestamp[29,6]</text>
<polygon fill="none" stroke="black" points="10,-629 10,-651 195,-651 195,-629 10,-629"/>
<text text-anchor="start" x="30" y="-637.2" font-family="Helvetica,sans-Serif" font-size="11.00">datetrx</text>
<polygon fill="none" stroke="black" points="195,-629 195,-651 278,-651 278,-629 195,-629"/>
<text text-anchor="start" x="198" y="-637.2" font-family="Helvetica,sans-Serif" font-size="11.00">timestamp[29,6]</text>
<polygon fill="none" stroke="black" points="10,-607 10,-629 195,-629 195,-607 10,-607"/>
<text text-anchor="start" x="30" y="-615.2" font-family="Helvetica,sans-Serif" font-size="11.00">description</text>
<polygon fill="none" stroke="black" points="195,-607 195,-629 278,-629 278,-607 195,-607"/>
<text text-anchor="start" x="198" y="-615.2" font-family="Helvetica,sans-Serif" font-size="11.00">varchar[255]</text>
<polygon fill="none" stroke="black" points="10,-585 10,-607 195,-607 195,-585 10,-585"/>
<text text-anchor="start" x="30" y="-593.2" font-family="Helvetica,sans-Serif" font-size="11.00">documentnote</text>
<polygon fill="none" stroke="black" points="195,-585 195,-607 278,-607 278,-585 195,-585"/>
<text text-anchor="start" x="198" y="-593.2" font-family="Helvetica,sans-Serif" font-size="11.00">varchar[1024]</text>
<polygon fill="none" stroke="black" points="10,-563 10,-585 195,-585 195,-563 10,-563"/>
<text text-anchor="start" x="30" y="-571.2" font-family="Helvetica,sans-Serif" font-size="11.00">grandtotal</text>
<polygon fill="none" stroke="black" points="195,-563 195,-585 278,-585 278,-563 195,-563"/>
<text text-anchor="start" x="198" y="-571.2" font-family="Helvetica,sans-Serif" font-size="11.00">numeric[0]</text>
<polygon fill="none" stroke="black" points="10,-541 10,-563 195,-563 195,-541 10,-541"/>
<text text-anchor="start" x="30" y="-549.2" font-family="Helvetica,sans-Serif" font-size="11.00">lbr_cnpj</text>
<polygon fill="none" stroke="black" points="195,-541 195,-563 278,-563 278,-541 195,-541"/>
<text text-anchor="start" x="198" y="-549.2" font-family="Helvetica,sans-Serif" font-size="11.00">varchar[18]</text>
<polygon fill="none" stroke="black" points="10,-519 10,-541 195,-541 195,-519 10,-519"/>
<text text-anchor="start" x="30" y="-527.2" font-family="Helvetica,sans-Serif" font-size="11.00">lbr_cpf</text>
<polygon fill="none" stroke="black" points="195,-519 195,-541 278,-541 278,-519 195,-519"/>
<text text-anchor="start" x="198" y="-527.2" font-family="Helvetica,sans-Serif" font-size="11.00">varchar[13]</text>
<polygon fill="none" stroke="black" points="10,-497 10,-519 195,-519 195,-497 10,-497"/>
<text text-anchor="start" x="30" y="-505.2" font-family="Helvetica,sans-Serif" font-size="11.00">lbr_nfeprot</text>
<polygon fill="none" stroke="black" points="195,-497 195,-519 278,-519 278,-497 195,-497"/>
<text text-anchor="start" x="198" y="-505.2" font-family="Helvetica,sans-Serif" font-size="11.00">varchar[60]</text>
<polygon fill="none" stroke="black" points="10,-475 10,-497 195,-497 195,-475 10,-475"/>
<text text-anchor="start" x="30" y="-483.2" font-family="Helvetica,sans-Serif" font-size="11.00">lbr_digestvalue</text>
<polygon fill="none" stroke="black" points="195,-475 195,-497 278,-497 278,-475 195,-475"/>
<text text-anchor="start" x="198" y="-483.2" font-family="Helvetica,sans-Serif" font-size="11.00">varchar[255]</text>
<polygon fill="none" stroke="black" points="10,-453 10,-475 195,-475 195,-453 10,-453"/>
<text text-anchor="start" x="30" y="-461.2" font-family="Helvetica,sans-Serif" font-size="11.00">lbr_ie</text>
<polygon fill="none" stroke="black" points="195,-453 195,-475 278,-475 278,-453 195,-453"/>
<text text-anchor="start" x="198" y="-461.2" font-family="Helvetica,sans-Serif" font-size="11.00">varchar[30]</text>
<polygon fill="none" stroke="black" points="10,-431 10,-453 195,-453 195,-431 10,-431"/>
<text text-anchor="start" x="30" y="-439.2" font-family="Helvetica,sans-Serif" font-size="11.00">documenttype</text>
<polygon fill="none" stroke="black" points="195,-431 195,-453 278,-453 278,-431 195,-431"/>
<text text-anchor="start" x="198" y="-439.2" font-family="Helvetica,sans-Serif" font-size="11.00">bpchar[1]</text>
<polygon fill="none" stroke="black" points="10,-409 10,-431 195,-431 195,-409 10,-409"/>
<text text-anchor="start" x="30" y="-417.2" font-family="Helvetica,sans-Serif" font-size="11.00">infnfe_id</text>
<polygon fill="none" stroke="black" points="195,-409 195,-431 278,-431 278,-409 195,-409"/>
<text text-anchor="start" x="198" y="-417.2" font-family="Helvetica,sans-Serif" font-size="11.00">varchar[44]</text>
<polygon fill="none" stroke="black" points="10,-387 10,-409 195,-409 195,-387 10,-387"/>
<text text-anchor="start" x="30" y="-395.2" font-family="Helvetica,sans-Serif" font-size="11.00">lbr_sitnf</text>
<polygon fill="none" stroke="black" points="195,-387 195,-409 278,-409 278,-387 195,-387"/>
<text text-anchor="start" x="198" y="-395.2" font-family="Helvetica,sans-Serif" font-size="11.00">bpchar[1]</text>
<polygon fill="none" stroke="black" points="10,-365 10,-387 195,-387 195,-365 10,-365"/>
<text text-anchor="start" x="30" y="-373.2" font-family="Helvetica,sans-Serif" font-size="11.00">eventtype</text>
<polygon fill="none" stroke="black" points="195,-365 195,-387 278,-387 278,-365 195,-365"/>
<text text-anchor="start" x="198" y="-373.2" font-family="Helvetica,sans-Serif" font-size="11.00">varchar[6]</text>
<polygon fill="none" stroke="black" points="10,-343 10,-365 195,-365 195,-343 10,-343"/>
<text text-anchor="start" x="30" y="-351.2" font-family="Helvetica,sans-Serif" font-size="11.00">processed</text>
<polygon fill="none" stroke="black" points="195,-343 195,-365 278,-365 278,-343 195,-343"/>
<text text-anchor="start" x="198" y="-351.2" font-family="Helvetica,sans-Serif" font-size="11.00">bpchar[1]</text>
<polygon fill="none" stroke="black" points="10,-321 10,-343 195,-343 195,-321 10,-321"/>
<text text-anchor="start" x="30" y="-329.2" font-family="Helvetica,sans-Serif" font-size="11.00">seqno</text>
<polygon fill="none" stroke="black" points="195,-321 195,-343 278,-343 278,-321 195,-321"/>
<text text-anchor="start" x="198" y="-329.2" font-family="Helvetica,sans-Serif" font-size="11.00">numeric[10]</text>
<polygon fill="none" stroke="black" points="10,-299 10,-321 195,-321 195,-299 10,-299"/>
<text text-anchor="start" x="30" y="-307.2" font-family="Helvetica,sans-Serif" font-size="11.00">cof_xmlvalido</text>
<polygon fill="none" stroke="black" points="195,-299 195,-321 278,-321 278,-299 195,-299"/>
<text text-anchor="start" x="198" y="-307.2" font-family="Helvetica,sans-Serif" font-size="11.00">bpchar[1]</text>
<polygon fill="none" stroke="black" points="10,-277 10,-299 195,-299 195,-277 10,-277"/>
<text text-anchor="start" x="30" y="-285.2" font-family="Helvetica,sans-Serif" font-size="11.00">issotrx</text>
<polygon fill="none" stroke="black" points="195,-277 195,-299 278,-299 278,-277 195,-277"/>
<text text-anchor="start" x="198" y="-285.2" font-family="Helvetica,sans-Serif" font-size="11.00">bpchar[1]</text>
<polygon fill="none" stroke="black" points="10,-255 10,-277 195,-277 195,-255 10,-255"/>
<text text-anchor="start" x="30" y="-263.2" font-family="Helvetica,sans-Serif" font-size="11.00">cof_manifestado</text>
<polygon fill="none" stroke="black" points="195,-255 195,-277 278,-277 278,-255 195,-255"/>
<text text-anchor="start" x="198" y="-263.2" font-family="Helvetica,sans-Serif" font-size="11.00">bpchar[1]</text>
<polygon fill="none" stroke="black" points="10,-233 10,-255 195,-255 195,-233 10,-233"/>
<text text-anchor="start" x="30" y="-241.2" font-family="Helvetica,sans-Serif" font-size="11.00">processing</text>
<polygon fill="none" stroke="black" points="195,-233 195,-255 278,-255 278,-233 195,-233"/>
<text text-anchor="start" x="198" y="-241.2" font-family="Helvetica,sans-Serif" font-size="11.00">bpchar[1]</text>
<polygon fill="none" stroke="black" points="10,-211 10,-233 195,-233 195,-211 10,-211"/>
<text text-anchor="start" x="30" y="-219.2" font-family="Helvetica,sans-Serif" font-size="11.00">iscancelled</text>
<polygon fill="none" stroke="black" points="195,-211 195,-233 278,-233 278,-211 195,-211"/>
<text text-anchor="start" x="198" y="-219.2" font-family="Helvetica,sans-Serif" font-size="11.00">bpchar[1]</text>
<polygon fill="none" stroke="black" points="10,-189 10,-211 195,-211 195,-189 10,-189"/>
<text text-anchor="start" x="30" y="-197.2" font-family="Helvetica,sans-Serif" font-size="11.00">cof_sitdfe</text>
<polygon fill="none" stroke="black" points="195,-189 195,-211 278,-211 278,-189 195,-189"/>
<text text-anchor="start" x="198" y="-197.2" font-family="Helvetica,sans-Serif" font-size="11.00">bpchar[1]</text>
<polygon fill="none" stroke="black" points="10,-167 10,-189 195,-189 195,-167 10,-167"/>
<text text-anchor="start" x="30" y="-175.2" font-family="Helvetica,sans-Serif" font-size="11.00">cof_datadownload</text>
<polygon fill="none" stroke="black" points="195,-167 195,-189 278,-189 278,-167 195,-167"/>
<text text-anchor="start" x="198" y="-175.2" font-family="Helvetica,sans-Serif" font-size="11.00">timestamp[29,6]</text>
<polygon fill="none" stroke="black" points="10,-145 10,-167 195,-167 195,-145 10,-145"/>
<text text-anchor="start" x="30" y="-153.2" font-family="Helvetica,sans-Serif" font-size="11.00">cof_datadfe</text>
<polygon fill="none" stroke="black" points="195,-145 195,-167 278,-167 278,-145 195,-145"/>
<text text-anchor="start" x="198" y="-153.2" font-family="Helvetica,sans-Serif" font-size="11.00">timestamp[29,6]</text>
<polygon fill="none" stroke="black" points="10,-123 10,-145 195,-145 195,-123 10,-123"/>
<text text-anchor="start" x="30" y="-131.2" font-family="Helvetica,sans-Serif" font-size="11.00">cof_lancado</text>
<polygon fill="none" stroke="black" points="195,-123 195,-145 278,-145 278,-123 195,-123"/>
<text text-anchor="start" x="198" y="-131.2" font-family="Helvetica,sans-Serif" font-size="11.00">bpchar[1]</text>
<polygon fill="#ffffff" stroke="transparent" points="10,-101 10,-123 195,-123 195,-101 10,-101"/>
<polygon fill="none" stroke="black" points="10,-101 10,-123 195,-123 195,-101 10,-101"/>
<text text-anchor="start" x="30" y="-109.2" font-family="Helvetica,sans-Serif" font-size="11.00">cof_dfe_uu</text>
<polygon fill="none" stroke="black" points="195,-101 195,-123 278,-123 278,-101 195,-101"/>
<text text-anchor="start" x="198" y="-109.2" font-family="Helvetica,sans-Serif" font-size="11.00">varchar[36]</text>
<polygon fill="none" stroke="black" points="10,-79 10,-101 195,-101 195,-79 10,-79"/>
<text text-anchor="start" x="30" y="-87.2" font-family="Helvetica,sans-Serif" font-size="11.00">cof_numdfe</text>
<polygon fill="none" stroke="black" points="195,-79 195,-101 278,-101 278,-79 195,-79"/>
<text text-anchor="start" x="198" y="-87.2" font-family="Helvetica,sans-Serif" font-size="11.00">varchar[100]</text>
<polygon fill="none" stroke="black" points="10,-57 10,-79 195,-79 195,-57 10,-57"/>
<text text-anchor="start" x="30" y="-65.2" font-family="Helvetica,sans-Serif" font-size="11.00">cof_exibiremrelatorios</text>
<polygon fill="none" stroke="black" points="195,-57 195,-79 278,-79 278,-57 195,-57"/>
<text text-anchor="start" x="198" y="-65.2" font-family="Helvetica,sans-Serif" font-size="11.00">bpchar[1]</text>
<polygon fill="#ffffff" stroke="transparent" points="10,-39 10,-57 278,-57 278,-39 10,-39"/>
<polygon fill="none" stroke="black" points="10,-39 10,-57 278,-57 278,-39 10,-39"/>
<polygon fill="#ffffff" stroke="transparent" points="11,-40 11,-56 103,-56 103,-40 11,-40"/>
<text text-anchor="start" x="13" y="-45.2" font-family="Helvetica,sans-Serif" font-size="11.00">&lt; 0</text>
<polygon fill="#ffffff" stroke="transparent" points="103,-40 103,-56 186,-56 186,-40 103,-40"/>
<text text-anchor="start" x="141" y="-45.2" font-family="Helvetica,sans-Serif" font-size="11.00"> &#160;</text>
<polygon fill="#ffffff" stroke="transparent" points="186,-40 186,-56 277,-56 277,-40 186,-40"/>
<text text-anchor="start" x="259" y="-45.2" font-family="Helvetica,sans-Serif" font-size="11.00">3 &gt;</text>
<polygon fill="black" stroke="black" points="103,-40 103,-56 103,-56 103,-40 103,-40"/>
<polygon fill="black" stroke="black" points="186,-40 186,-56 186,-56 186,-40 186,-40"/>
<polygon fill="none" stroke="black" stroke-width="2" points="9,-38 9,-894 279,-894 279,-38 9,-38"/>
</a>
</g>
</g>
<!-- cof_packinglist_line&#45;&gt;cof_dfe -->
<g id="edge1" class="edge">
<title>cof_packinglist_line:w&#45;&gt;cof_dfe:e</title>
<path fill="none" stroke="black" d="M675.76,-991.97C665.28,-1002.47 668.77,-1026.69 649,-1036 517.11,-1098.1 435.42,-1126.33 321,-1036 257.88,-986.17 359.42,-860 279,-860"/>
<polygon fill="black" stroke="black" points="681.98,-989.72 690.73,-990.39 685.74,-988.36 689.5,-987 689.5,-987 689.5,-987 685.74,-988.36 688.27,-983.61 681.98,-989.72 681.98,-989.72"/>
<ellipse fill="none" stroke="black" cx="678.97" cy="-990.81" rx="3.2" ry="3.2"/>
</g>
<!-- lbr_docfiscal -->
<g id="node3" class="node">
<title>lbr_docfiscal</title>
<g id="a_node3"><a xlink:href="../../tables/lbr_docfiscal.html" xlink:title="lbr_docfiscal" target="_top">
<polygon fill="#ffffff" stroke="transparent" points="329,-659 329,-1025 641,-1025 641,-659 329,-659"/>
<polygon fill="#f5f5f5" stroke="transparent" points="329,-1003 329,-1025 641,-1025 641,-1003 329,-1003"/>
<polygon fill="none" stroke="black" points="329,-1003 329,-1025 641,-1025 641,-1003 329,-1003"/>
<text text-anchor="start" x="334" y="-1012.2" font-family="Helvetica,sans-Serif" font-weight="bold" font-size="11.00">lbr_docfiscal</text>
<text text-anchor="start" x="606" y="-1011.2" font-family="Helvetica,sans-Serif" font-size="11.00">[table]</text>
<polygon fill="none" stroke="black" points="329,-981 329,-1003 641,-1003 641,-981 329,-981"/>
<image xlink:href="../../images/primaryKeys.png" width="11px" height="12px" preserveAspectRatio="xMinYMin meet" x="334" y="-998"/>
<text text-anchor="start" x="349" y="-989.2" font-family="Helvetica,sans-Serif" font-size="11.00">lbr_docfiscal_id</text>
<polygon fill="#ffffff" stroke="transparent" points="329,-959 329,-981 641,-981 641,-959 329,-959"/>
<polygon fill="none" stroke="black" points="329,-959 329,-981 641,-981 641,-959 329,-959"/>
<text text-anchor="start" x="349" y="-967.2" font-family="Helvetica,sans-Serif" font-size="11.00">c_invoice_id</text>
<polygon fill="#ffffff" stroke="transparent" points="329,-937 329,-959 641,-959 641,-937 329,-937"/>
<polygon fill="none" stroke="black" points="329,-937 329,-959 641,-959 641,-937 329,-937"/>
<text text-anchor="start" x="349" y="-945.2" font-family="Helvetica,sans-Serif" font-size="11.00">lbr_nfestatus</text>
<polygon fill="#ffffff" stroke="transparent" points="329,-915 329,-937 641,-937 641,-915 329,-915"/>
<polygon fill="none" stroke="black" points="329,-915 329,-937 641,-937 641,-915 329,-915"/>
<text text-anchor="start" x="349" y="-923.2" font-family="Helvetica,sans-Serif" font-size="11.00">lbr_docfiscal_uu</text>
<polygon fill="none" stroke="black" points="329,-893 329,-915 641,-915 641,-893 329,-893"/>
<image xlink:href="../../images/foreignKeys.png" width="11px" height="12px" preserveAspectRatio="xMinYMin meet" x="334" y="-910"/>
<text text-anchor="start" x="349" y="-901.2" font-family="Helvetica,sans-Serif" font-size="11.00">c_currency_id</text>
<polygon fill="none" stroke="black" points="329,-871 329,-893 641,-893 641,-871 329,-871"/>
<image xlink:href="../../images/foreignKeys.png" width="11px" height="12px" preserveAspectRatio="xMinYMin meet" x="334" y="-888"/>
<text text-anchor="start" x="349" y="-879.2" font-family="Helvetica,sans-Serif" font-size="11.00">m_movement_id</text>
<polygon fill="none" stroke="black" points="329,-849 329,-871 641,-871 641,-849 329,-849"/>
<image xlink:href="../../images/foreignKeys.png" width="11px" height="12px" preserveAspectRatio="xMinYMin meet" x="334" y="-866"/>
<text text-anchor="start" x="349" y="-857.2" font-family="Helvetica,sans-Serif" font-size="11.00">cof_dfe_id</text>
<polygon fill="none" stroke="black" points="329,-827 329,-849 641,-849 641,-827 329,-827"/>
<image xlink:href="../../images/foreignKeys.png" width="11px" height="12px" preserveAspectRatio="xMinYMin meet" x="334" y="-844"/>
<text text-anchor="start" x="349" y="-835.2" font-family="Helvetica,sans-Serif" font-size="11.00">cof_pnretira_id</text>
<polygon fill="none" stroke="black" points="329,-805 329,-827 641,-827 641,-805 329,-805"/>
<image xlink:href="../../images/foreignKeys.png" width="11px" height="12px" preserveAspectRatio="xMinYMin meet" x="334" y="-822"/>
<text text-anchor="start" x="349" y="-813.2" font-family="Helvetica,sans-Serif" font-size="11.00">cof_pnlocationretira_id</text>
<polygon fill="none" stroke="black" points="329,-783 329,-805 641,-805 641,-783 329,-783"/>
<image xlink:href="../../images/foreignKeys.png" width="11px" height="12px" preserveAspectRatio="xMinYMin meet" x="334" y="-800"/>
<text text-anchor="start" x="349" y="-791.2" font-family="Helvetica,sans-Serif" font-size="11.00">retira_city_id</text>
<polygon fill="none" stroke="black" points="329,-761 329,-783 641,-783 641,-761 329,-761"/>
<image xlink:href="../../images/foreignKeys.png" width="11px" height="12px" preserveAspectRatio="xMinYMin meet" x="334" y="-778"/>
<text text-anchor="start" x="349" y="-769.2" font-family="Helvetica,sans-Serif" font-size="11.00">retira_region_id</text>
<polygon fill="none" stroke="black" points="329,-739 329,-761 641,-761 641,-739 329,-739"/>
<image xlink:href="../../images/foreignKeys.png" width="11px" height="12px" preserveAspectRatio="xMinYMin meet" x="334" y="-756"/>
<text text-anchor="start" x="349" y="-747.2" font-family="Helvetica,sans-Serif" font-size="11.00">retira_country_id</text>
<polygon fill="none" stroke="black" points="329,-717 329,-739 641,-739 641,-717 329,-717"/>
<image xlink:href="../../images/foreignKeys.png" width="11px" height="12px" preserveAspectRatio="xMinYMin meet" x="334" y="-734"/>
<text text-anchor="start" x="349" y="-725.2" font-family="Helvetica,sans-Serif" font-size="11.00">entrega_country_id</text>
<polygon fill="none" stroke="black" points="329,-695 329,-717 641,-717 641,-695 329,-695"/>
<image xlink:href="../../images/foreignKeys.png" width="11px" height="12px" preserveAspectRatio="xMinYMin meet" x="334" y="-712"/>
<text text-anchor="start" x="349" y="-703.2" font-family="Helvetica,sans-Serif" font-size="11.00">gl_journal_id</text>
<polygon fill="none" stroke="black" points="329,-677 329,-695 641,-695 641,-677 329,-677"/>
<text text-anchor="start" x="332" y="-683.2" font-family="Helvetica,sans-Serif" font-size="11.00">...</text>
<polygon fill="#ffffff" stroke="transparent" points="329,-659 329,-677 641,-677 641,-659 329,-659"/>
<polygon fill="none" stroke="black" points="329,-659 329,-677 641,-677 641,-659 329,-659"/>
<polygon fill="#ffffff" stroke="transparent" points="330,-660 330,-676 439,-676 439,-660 330,-660"/>
<text text-anchor="start" x="332" y="-665.2" font-family="Helvetica,sans-Serif" font-size="11.00">&lt; 10</text>
<polygon fill="#ffffff" stroke="transparent" points="439,-660 439,-676 532,-676 532,-660 439,-660"/>
<text text-anchor="start" x="482" y="-665.2" font-family="Helvetica,sans-Serif" font-size="11.00"> &#160;</text>
<polygon fill="#ffffff" stroke="transparent" points="532,-660 532,-676 640,-676 640,-660 532,-660"/>
<text text-anchor="start" x="616" y="-665.2" font-family="Helvetica,sans-Serif" font-size="11.00">34 &gt;</text>
<polygon fill="black" stroke="black" points="439,-660 439,-676 439,-676 439,-660 439,-660"/>
<polygon fill="black" stroke="black" points="532,-660 532,-676 532,-676 532,-660 532,-660"/>
</a>
</g>
</g>
<!-- cof_packinglist_line&#45;&gt;lbr_docfiscal -->
<g id="edge2" class="edge">
<title>cof_packinglist_line:w&#45;&gt;lbr_docfiscal:e</title>
<path fill="none" stroke="black" d="M675.72,-1047.8C660.97,-1033.05 670.19,-992 642,-992"/>
<polygon fill="black" stroke="black" points="682.02,-1050.18 688.23,-1056.37 685.76,-1051.59 689.5,-1053 689.5,-1053 689.5,-1053 685.76,-1051.59 690.77,-1049.63 682.02,-1050.18 682.02,-1050.18"/>
<ellipse fill="none" stroke="black" cx="679.02" cy="-1049.05" rx="3.2" ry="3.2"/>
</g>
<!-- lbr_docfiscal&#45;&gt;cof_dfe -->
<g id="edge3" class="edge">
<title>lbr_docfiscal:w&#45;&gt;cof_dfe:e</title>
<path fill="none" stroke="black" d="M313.49,-860C302.18,-860 294.99,-860 279,-860"/>
<polygon fill="black" stroke="black" points="320,-860 328,-863.6 324,-860 328,-860 328,-860 328,-860 324,-860 328,-856.4 320,-860 320,-860"/>
<ellipse fill="none" stroke="black" cx="316.8" cy="-860" rx="3.2" ry="3.2"/>
</g>
<!-- lbr_eventonfe -->
<g id="node4" class="node">
<title>lbr_eventonfe</title>
<g id="a_node4"><a xlink:href="../../tables/lbr_eventonfe.html" xlink:title="lbr_eventonfe" target="_top">
<polygon fill="#ffffff" stroke="transparent" points="725,-617 725,-763 882,-763 882,-617 725,-617"/>
<polygon fill="#f5f5f5" stroke="transparent" points="725.5,-741 725.5,-763 882.5,-763 882.5,-741 725.5,-741"/>
<polygon fill="none" stroke="black" points="725.5,-741 725.5,-763 882.5,-763 882.5,-741 725.5,-741"/>
<text text-anchor="start" x="730.5" y="-750.2" font-family="Helvetica,sans-Serif" font-weight="bold" font-size="11.00">lbr_eventonfe</text>
<text text-anchor="start" x="847.5" y="-749.2" font-family="Helvetica,sans-Serif" font-size="11.00">[table]</text>
<polygon fill="none" stroke="black" points="725.5,-719 725.5,-741 882.5,-741 882.5,-719 725.5,-719"/>
<image xlink:href="../../images/primaryKeys.png" width="11px" height="12px" preserveAspectRatio="xMinYMin meet" x="730.5" y="-736"/>
<text text-anchor="start" x="745.5" y="-727.2" font-family="Helvetica,sans-Serif" font-size="11.00">lbr_eventonfe_id</text>
<polygon fill="none" stroke="black" points="725.5,-697 725.5,-719 882.5,-719 882.5,-697 725.5,-697"/>
<image xlink:href="../../images/foreignKeys.png" width="11px" height="12px" preserveAspectRatio="xMinYMin meet" x="730.5" y="-714"/>
<text text-anchor="start" x="745.5" y="-705.2" font-family="Helvetica,sans-Serif" font-size="11.00">lbr_docfiscal_id</text>
<polygon fill="#ffffff" stroke="transparent" points="725.5,-675 725.5,-697 882.5,-697 882.5,-675 725.5,-675"/>
<polygon fill="none" stroke="black" points="725.5,-675 725.5,-697 882.5,-697 882.5,-675 725.5,-675"/>
<text text-anchor="start" x="745.5" y="-683.2" font-family="Helvetica,sans-Serif" font-size="11.00">lbr_eventonfe_uu</text>
<polygon fill="none" stroke="black" points="725.5,-653 725.5,-675 882.5,-675 882.5,-653 725.5,-653"/>
<image xlink:href="../../images/foreignKeys.png" width="11px" height="12px" preserveAspectRatio="xMinYMin meet" x="730.5" y="-670"/>
<text text-anchor="start" x="745.5" y="-661.2" font-family="Helvetica,sans-Serif" font-size="11.00">cof_dfe_id</text>
<polygon fill="none" stroke="black" points="725.5,-635 725.5,-653 882.5,-653 882.5,-635 725.5,-635"/>
<text text-anchor="start" x="728.5" y="-641.2" font-family="Helvetica,sans-Serif" font-size="11.00">...</text>
<polygon fill="#ffffff" stroke="transparent" points="725.5,-617 725.5,-635 882.5,-635 882.5,-617 725.5,-617"/>
<polygon fill="none" stroke="black" points="725.5,-617 725.5,-635 882.5,-635 882.5,-617 725.5,-617"/>
<polygon fill="#ffffff" stroke="transparent" points="726.5,-618 726.5,-634 784.5,-634 784.5,-618 726.5,-618"/>
<text text-anchor="start" x="728.5" y="-623.2" font-family="Helvetica,sans-Serif" font-size="11.00">&lt; 2</text>
<polygon fill="#ffffff" stroke="transparent" points="784.5,-618 784.5,-634 833.5,-634 833.5,-618 784.5,-618"/>
<text text-anchor="start" x="805.5" y="-623.2" font-family="Helvetica,sans-Serif" font-size="11.00"> &#160;</text>
<polygon fill="#ffffff" stroke="transparent" points="833.5,-618 833.5,-634 881.5,-634 881.5,-618 833.5,-618"/>
<text text-anchor="start" x="872.5" y="-623.2" font-family="Helvetica,sans-Serif" font-size="11.00"> &#160;</text>
<polygon fill="black" stroke="black" points="784.5,-618 784.5,-634 784.5,-634 784.5,-618 784.5,-618"/>
<polygon fill="black" stroke="black" points="833.5,-618 833.5,-634 833.5,-634 833.5,-618 833.5,-618"/>
</a>
</g>
</g>
<!-- lbr_eventonfe&#45;&gt;cof_dfe -->
<g id="edge4" class="edge">
<title>lbr_eventonfe:w&#45;&gt;cof_dfe:e</title>
<path fill="none" stroke="black" d="M709.92,-663.19C687.28,-660.48 677.59,-651.81 649,-649 503.92,-634.73 433.69,-556.53 321,-649 247.08,-709.65 374.62,-860 279,-860"/>
<polygon fill="black" stroke="black" points="716.51,-663.55 724.3,-667.59 720.51,-663.78 724.5,-664 724.5,-664 724.5,-664 720.51,-663.78 724.7,-660.41 716.51,-663.55 716.51,-663.55"/>
<ellipse fill="none" stroke="black" cx="713.32" cy="-663.38" rx="3.2" ry="3.2"/>
</g>
<!-- lbr_eventonfe&#45;&gt;lbr_docfiscal -->
<g id="edge5" class="edge">
<title>lbr_eventonfe:w&#45;&gt;lbr_docfiscal:e</title>
<path fill="none" stroke="black" d="M713.91,-718.11C687.63,-768.7 671.14,-992 642,-992"/>
<polygon fill="black" stroke="black" points="718.71,-713.52 726.98,-710.6 721.61,-710.76 724.5,-708 724.5,-708 724.5,-708 721.61,-710.76 722.02,-705.4 718.71,-713.52 718.71,-713.52"/>
<ellipse fill="none" stroke="black" cx="716.4" cy="-715.73" rx="3.2" ry="3.2"/>
</g>
</g>
</svg>
