<?xml version="1.0" encoding="UTF-8" standalone="no"?>
<!DOCTYPE svg PUBLIC "-//W3C//DTD SVG 1.1//EN"
 "http://www.w3.org/Graphics/SVG/1.1/DTD/svg11.dtd">
<!-- Generated by graphviz version 2.43.0 (0)
 -->
<!-- Title: oneDegreeRelationshipsDiagram Pages: 1 -->
<svg width="322pt" height="361pt"
 viewBox="0.00 0.00 322.00 361.00" xmlns="http://www.w3.org/2000/svg" xmlns:xlink="http://www.w3.org/1999/xlink">
<g id="graph0" class="graph" transform="scale(1 1) rotate(0) translate(4 357)">
<title>oneDegreeRelationshipsDiagram</title>
<polygon fill="#ffffff" stroke="transparent" points="-4,4 -4,-357 318,-357 318,4 -4,4"/>
<text text-anchor="middle" x="71.5" y="-7.2" font-family="Helvetica,sans-Serif" font-size="11.00">Generated by SchemaSpy</text>
<!-- cof_rv_infoembdes -->
<g id="node1" class="node">
<title>cof_rv_infoembdes</title>
<g id="a_node1"><a xlink:href="../../tables/cof_rv_infoembdes.html" xlink:title="cof_rv_infoembdes" target="_top">
<polygon fill="#ffffff" stroke="transparent" points="8,-37 8,-349 306,-349 306,-37 8,-37"/>
<polygon fill="#f5f5f5" stroke="transparent" points="10,-325 10,-347 304,-347 304,-325 10,-325"/>
<polygon fill="none" stroke="black" points="10,-325 10,-347 304,-347 304,-325 10,-325"/>
<text text-anchor="start" x="15" y="-334.2" font-family="Helvetica,sans-Serif" font-weight="bold" font-size="11.00">cof_rv_infoembdes</text>
<text text-anchor="start" x="271" y="-333.2" font-family="Helvetica,sans-Serif" font-size="11.00">[view]</text>
<polygon fill="none" stroke="black" points="10,-303 10,-325 195,-325 195,-303 10,-303"/>
<text text-anchor="start" x="30" y="-311.2" font-family="Helvetica,sans-Serif" font-size="11.00">ad_client_id</text>
<polygon fill="none" stroke="black" points="195,-303 195,-325 304,-325 304,-303 195,-303"/>
<text text-anchor="start" x="198" y="-311.2" font-family="Helvetica,sans-Serif" font-size="11.00">numeric[10]</text>
<polygon fill="none" stroke="black" points="10,-281 10,-303 195,-303 195,-281 10,-281"/>
<text text-anchor="start" x="30" y="-289.2" font-family="Helvetica,sans-Serif" font-size="11.00">ad_org_id</text>
<polygon fill="none" stroke="black" points="195,-281 195,-303 304,-303 304,-281 195,-281"/>
<text text-anchor="start" x="198" y="-289.2" font-family="Helvetica,sans-Serif" font-size="11.00">numeric[10]</text>
<polygon fill="none" stroke="black" points="10,-259 10,-281 195,-281 195,-259 10,-259"/>
<text text-anchor="start" x="30" y="-267.2" font-family="Helvetica,sans-Serif" font-size="11.00">cof_rv_infoembdes_id</text>
<polygon fill="none" stroke="black" points="195,-259 195,-281 304,-281 304,-259 195,-259"/>
<text text-anchor="start" x="198" y="-267.2" font-family="Helvetica,sans-Serif" font-size="11.00">numeric[0]</text>
<polygon fill="none" stroke="black" points="10,-237 10,-259 195,-259 195,-237 10,-237"/>
<text text-anchor="start" x="30" y="-245.2" font-family="Helvetica,sans-Serif" font-size="11.00">documentno</text>
<polygon fill="none" stroke="black" points="195,-237 195,-259 304,-259 304,-237 195,-237"/>
<text text-anchor="start" x="198" y="-245.2" font-family="Helvetica,sans-Serif" font-size="11.00">varchar[2147483647]</text>
<polygon fill="none" stroke="black" points="10,-215 10,-237 195,-237 195,-215 10,-215"/>
<text text-anchor="start" x="30" y="-223.2" font-family="Helvetica,sans-Serif" font-size="11.00">cof_identificador</text>
<polygon fill="none" stroke="black" points="195,-215 195,-237 304,-237 304,-215 195,-215"/>
<text text-anchor="start" x="198" y="-223.2" font-family="Helvetica,sans-Serif" font-size="11.00">varchar[2147483647]</text>
<polygon fill="none" stroke="black" points="10,-193 10,-215 195,-215 195,-193 10,-193"/>
<text text-anchor="start" x="30" y="-201.2" font-family="Helvetica,sans-Serif" font-size="11.00">cof_fase</text>
<polygon fill="none" stroke="black" points="195,-193 195,-215 304,-215 304,-193 195,-193"/>
<text text-anchor="start" x="198" y="-201.2" font-family="Helvetica,sans-Serif" font-size="11.00">varchar[2147483647]</text>
<polygon fill="none" stroke="black" points="10,-171 10,-193 195,-193 195,-171 10,-171"/>
<text text-anchor="start" x="30" y="-179.2" font-family="Helvetica,sans-Serif" font-size="11.00">cof_situacaoembarque</text>
<polygon fill="none" stroke="black" points="195,-171 195,-193 304,-193 304,-171 195,-171"/>
<text text-anchor="start" x="198" y="-179.2" font-family="Helvetica,sans-Serif" font-size="11.00">varchar[2147483647]</text>
<polygon fill="none" stroke="black" points="10,-149 10,-171 195,-171 195,-149 10,-149"/>
<text text-anchor="start" x="30" y="-157.2" font-family="Helvetica,sans-Serif" font-size="11.00">cof_documentobase</text>
<polygon fill="none" stroke="black" points="195,-149 195,-171 304,-171 304,-149 195,-149"/>
<text text-anchor="start" x="198" y="-157.2" font-family="Helvetica,sans-Serif" font-size="11.00">text[2147483647]</text>
<polygon fill="none" stroke="black" points="10,-127 10,-149 195,-149 195,-127 10,-127"/>
<text text-anchor="start" x="30" y="-135.2" font-family="Helvetica,sans-Serif" font-size="11.00">issotrx</text>
<polygon fill="none" stroke="black" points="195,-127 195,-149 304,-149 304,-127 195,-127"/>
<text text-anchor="start" x="198" y="-135.2" font-family="Helvetica,sans-Serif" font-size="11.00">bpchar[1]</text>
<polygon fill="none" stroke="black" points="10,-105 10,-127 195,-127 195,-105 10,-105"/>
<text text-anchor="start" x="30" y="-113.2" font-family="Helvetica,sans-Serif" font-size="11.00">isactive</text>
<polygon fill="none" stroke="black" points="195,-105 195,-127 304,-127 304,-105 195,-105"/>
<text text-anchor="start" x="198" y="-113.2" font-family="Helvetica,sans-Serif" font-size="11.00">bpchar[1]</text>
<polygon fill="none" stroke="black" points="10,-83 10,-105 195,-105 195,-83 10,-83"/>
<text text-anchor="start" x="30" y="-91.2" font-family="Helvetica,sans-Serif" font-size="11.00">cof_data</text>
<polygon fill="none" stroke="black" points="195,-83 195,-105 304,-105 304,-83 195,-83"/>
<text text-anchor="start" x="198" y="-91.2" font-family="Helvetica,sans-Serif" font-size="11.00">timestamp[29,6]</text>
<polygon fill="none" stroke="black" points="10,-61 10,-83 195,-83 195,-61 10,-61"/>
<text text-anchor="start" x="30" y="-69.2" font-family="Helvetica,sans-Serif" font-size="11.00">lbr_rg</text>
<polygon fill="none" stroke="black" points="195,-61 195,-83 304,-83 304,-61 195,-61"/>
<text text-anchor="start" x="198" y="-69.2" font-family="Helvetica,sans-Serif" font-size="11.00">varchar[2147483647]</text>
<polygon fill="none" stroke="black" points="10,-39 10,-61 195,-61 195,-39 10,-39"/>
<text text-anchor="start" x="30" y="-47.2" font-family="Helvetica,sans-Serif" font-size="11.00">phone</text>
<polygon fill="none" stroke="black" points="195,-39 195,-61 304,-61 304,-39 195,-39"/>
<text text-anchor="start" x="198" y="-47.2" font-family="Helvetica,sans-Serif" font-size="11.00">varchar[2147483647]</text>
<polygon fill="none" stroke="black" stroke-width="2" points="9,-38 9,-348 305,-348 305,-38 9,-38"/>
</a>
</g>
</g>
</g>
</svg>
