<?xml version="1.0" encoding="UTF-8" standalone="no"?>
<!DOCTYPE svg PUBLIC "-//W3C//DTD SVG 1.1//EN"
 "http://www.w3.org/Graphics/SVG/1.1/DTD/svg11.dtd">
<!-- Generated by graphviz version 2.43.0 (0)
 -->
<!-- Title: oneDegreeRelationshipsDiagram Pages: 1 -->
<svg width="665pt" height="769pt"
 viewBox="0.00 0.00 665.00 769.00" xmlns="http://www.w3.org/2000/svg" xmlns:xlink="http://www.w3.org/1999/xlink">
<g id="graph0" class="graph" transform="scale(1 1) rotate(0) translate(4 765)">
<title>oneDegreeRelationshipsDiagram</title>
<polygon fill="#ffffff" stroke="transparent" points="-4,4 -4,-765 661,-765 661,4 -4,4"/>
<text text-anchor="middle" x="71.5" y="-7.2" font-family="Helvetica,sans-Serif" font-size="11.00">Generated by SchemaSpy</text>
<!-- cof_rps_line -->
<g id="node1" class="node">
<title>cof_rps_line</title>
<g id="a_node1"><a xlink:href="../../tables/cof_rps_line.html" xlink:title="cof_rps_line" target="_top">
<polygon fill="#ffffff" stroke="transparent" points="343,-185 343,-757 649,-757 649,-185 343,-185"/>
<polygon fill="#f5f5f5" stroke="transparent" points="345,-733 345,-755 647,-755 647,-733 345,-733"/>
<polygon fill="none" stroke="black" points="345,-733 345,-755 647,-755 647,-733 345,-733"/>
<text text-anchor="start" x="350" y="-742.2" font-family="Helvetica,sans-Serif" font-weight="bold" font-size="11.00">cof_rps_line</text>
<text text-anchor="start" x="612" y="-741.2" font-family="Helvetica,sans-Serif" font-size="11.00">[table]</text>
<polygon fill="none" stroke="black" points="345,-711 345,-733 564,-733 564,-711 345,-711"/>
<image xlink:href="../../images/primaryKeys.png" width="11px" height="12px" preserveAspectRatio="xMinYMin meet" x="350" y="-728"/>
<text text-anchor="start" x="365" y="-719.2" font-family="Helvetica,sans-Serif" font-size="11.00">cof_rps_line_id</text>
<polygon fill="none" stroke="black" points="564,-711 564,-733 647,-733 647,-711 564,-711"/>
<text text-anchor="start" x="567" y="-719.2" font-family="Helvetica,sans-Serif" font-size="11.00">numeric[10]</text>
<polygon fill="#ffffff" stroke="transparent" points="345,-689 345,-711 564,-711 564,-689 345,-689"/>
<polygon fill="none" stroke="black" points="345,-689 345,-711 564,-711 564,-689 345,-689"/>
<text text-anchor="start" x="365" y="-697.2" font-family="Helvetica,sans-Serif" font-size="11.00">cof_rps_line_uu</text>
<polygon fill="none" stroke="black" points="564,-689 564,-711 647,-711 647,-689 564,-689"/>
<text text-anchor="start" x="567" y="-697.2" font-family="Helvetica,sans-Serif" font-size="11.00">varchar[36]</text>
<polygon fill="none" stroke="black" points="345,-667 345,-689 564,-689 564,-667 345,-667"/>
<text text-anchor="start" x="365" y="-675.2" font-family="Helvetica,sans-Serif" font-size="11.00">ad_client_id</text>
<polygon fill="none" stroke="black" points="564,-667 564,-689 647,-689 647,-667 564,-667"/>
<text text-anchor="start" x="567" y="-675.2" font-family="Helvetica,sans-Serif" font-size="11.00">numeric[10]</text>
<polygon fill="none" stroke="black" points="345,-645 345,-667 564,-667 564,-645 345,-645"/>
<text text-anchor="start" x="365" y="-653.2" font-family="Helvetica,sans-Serif" font-size="11.00">ad_org_id</text>
<polygon fill="none" stroke="black" points="564,-645 564,-667 647,-667 647,-645 564,-645"/>
<text text-anchor="start" x="567" y="-653.2" font-family="Helvetica,sans-Serif" font-size="11.00">numeric[10]</text>
<polygon fill="none" stroke="black" points="345,-623 345,-645 564,-645 564,-623 345,-623"/>
<text text-anchor="start" x="365" y="-631.2" font-family="Helvetica,sans-Serif" font-size="11.00">isactive</text>
<polygon fill="none" stroke="black" points="564,-623 564,-645 647,-645 647,-623 564,-623"/>
<text text-anchor="start" x="567" y="-631.2" font-family="Helvetica,sans-Serif" font-size="11.00">bpchar[1]</text>
<polygon fill="none" stroke="black" points="345,-601 345,-623 564,-623 564,-601 345,-601"/>
<text text-anchor="start" x="365" y="-609.2" font-family="Helvetica,sans-Serif" font-size="11.00">created</text>
<polygon fill="none" stroke="black" points="564,-601 564,-623 647,-623 647,-601 564,-601"/>
<text text-anchor="start" x="567" y="-609.2" font-family="Helvetica,sans-Serif" font-size="11.00">timestamp[29,6]</text>
<polygon fill="none" stroke="black" points="345,-579 345,-601 564,-601 564,-579 345,-579"/>
<text text-anchor="start" x="365" y="-587.2" font-family="Helvetica,sans-Serif" font-size="11.00">createdby</text>
<polygon fill="none" stroke="black" points="564,-579 564,-601 647,-601 647,-579 564,-579"/>
<text text-anchor="start" x="567" y="-587.2" font-family="Helvetica,sans-Serif" font-size="11.00">numeric[10]</text>
<polygon fill="none" stroke="black" points="345,-557 345,-579 564,-579 564,-557 345,-557"/>
<text text-anchor="start" x="365" y="-565.2" font-family="Helvetica,sans-Serif" font-size="11.00">updated</text>
<polygon fill="none" stroke="black" points="564,-557 564,-579 647,-579 647,-557 564,-557"/>
<text text-anchor="start" x="567" y="-565.2" font-family="Helvetica,sans-Serif" font-size="11.00">timestamp[29,6]</text>
<polygon fill="none" stroke="black" points="345,-535 345,-557 564,-557 564,-535 345,-535"/>
<text text-anchor="start" x="365" y="-543.2" font-family="Helvetica,sans-Serif" font-size="11.00">updatedby</text>
<polygon fill="none" stroke="black" points="564,-535 564,-557 647,-557 647,-535 564,-535"/>
<text text-anchor="start" x="567" y="-543.2" font-family="Helvetica,sans-Serif" font-size="11.00">numeric[10]</text>
<polygon fill="none" stroke="black" points="345,-513 345,-535 564,-535 564,-513 345,-513"/>
<image xlink:href="../../images/foreignKeys.png" width="11px" height="12px" preserveAspectRatio="xMinYMin meet" x="350" y="-530"/>
<text text-anchor="start" x="365" y="-521.2" font-family="Helvetica,sans-Serif" font-size="11.00">cof_rps_id</text>
<polygon fill="none" stroke="black" points="564,-513 564,-535 647,-535 647,-513 564,-513"/>
<text text-anchor="start" x="567" y="-521.2" font-family="Helvetica,sans-Serif" font-size="11.00">numeric[10]</text>
<polygon fill="none" stroke="black" points="345,-491 345,-513 564,-513 564,-491 345,-491"/>
<text text-anchor="start" x="365" y="-499.2" font-family="Helvetica,sans-Serif" font-size="11.00">cof_valorunitarioservico</text>
<polygon fill="none" stroke="black" points="564,-491 564,-513 647,-513 647,-491 564,-491"/>
<text text-anchor="start" x="567" y="-499.2" font-family="Helvetica,sans-Serif" font-size="11.00">numeric[0]</text>
<polygon fill="none" stroke="black" points="345,-469 345,-491 564,-491 564,-469 345,-469"/>
<text text-anchor="start" x="365" y="-477.2" font-family="Helvetica,sans-Serif" font-size="11.00">cof_discriminacaoservico</text>
<polygon fill="none" stroke="black" points="564,-469 564,-491 647,-491 647,-469 564,-469"/>
<text text-anchor="start" x="567" y="-477.2" font-family="Helvetica,sans-Serif" font-size="11.00">varchar[60]</text>
<polygon fill="none" stroke="black" points="345,-447 345,-469 564,-469 564,-447 345,-447"/>
<text text-anchor="start" x="365" y="-455.2" font-family="Helvetica,sans-Serif" font-size="11.00">cof_unidadeservico</text>
<polygon fill="none" stroke="black" points="564,-447 564,-469 647,-469 647,-447 564,-447"/>
<text text-anchor="start" x="567" y="-455.2" font-family="Helvetica,sans-Serif" font-size="11.00">varchar[10]</text>
<polygon fill="none" stroke="black" points="345,-425 345,-447 564,-447 564,-425 345,-425"/>
<text text-anchor="start" x="365" y="-433.2" font-family="Helvetica,sans-Serif" font-size="11.00">cof_valorservicos</text>
<polygon fill="none" stroke="black" points="564,-425 564,-447 647,-447 647,-425 564,-425"/>
<text text-anchor="start" x="567" y="-433.2" font-family="Helvetica,sans-Serif" font-size="11.00">numeric[0]</text>
<polygon fill="none" stroke="black" points="345,-403 345,-425 564,-425 564,-403 345,-403"/>
<text text-anchor="start" x="365" y="-411.2" font-family="Helvetica,sans-Serif" font-size="11.00">cof_valorliquidoservico</text>
<polygon fill="none" stroke="black" points="564,-403 564,-425 647,-425 647,-403 564,-403"/>
<text text-anchor="start" x="567" y="-411.2" font-family="Helvetica,sans-Serif" font-size="11.00">numeric[0]</text>
<polygon fill="none" stroke="black" points="345,-381 345,-403 564,-403 564,-381 345,-381"/>
<text text-anchor="start" x="365" y="-389.2" font-family="Helvetica,sans-Serif" font-size="11.00">cof_tributavel</text>
<polygon fill="none" stroke="black" points="564,-381 564,-403 647,-403 647,-381 564,-381"/>
<text text-anchor="start" x="567" y="-389.2" font-family="Helvetica,sans-Serif" font-size="11.00">bpchar[1]</text>
<polygon fill="none" stroke="black" points="345,-359 345,-381 564,-381 564,-359 345,-359"/>
<text text-anchor="start" x="365" y="-367.2" font-family="Helvetica,sans-Serif" font-size="11.00">cof_codigoitemlistaservico</text>
<polygon fill="none" stroke="black" points="564,-359 564,-381 647,-381 647,-359 564,-359"/>
<text text-anchor="start" x="567" y="-367.2" font-family="Helvetica,sans-Serif" font-size="11.00">varchar[60]</text>
<polygon fill="none" stroke="black" points="345,-337 345,-359 564,-359 564,-337 345,-337"/>
<text text-anchor="start" x="365" y="-345.2" font-family="Helvetica,sans-Serif" font-size="11.00">cof_tipodeducao</text>
<polygon fill="none" stroke="black" points="564,-337 564,-359 647,-359 647,-337 564,-337"/>
<text text-anchor="start" x="567" y="-345.2" font-family="Helvetica,sans-Serif" font-size="11.00">varchar[60]</text>
<polygon fill="none" stroke="black" points="345,-315 345,-337 564,-337 564,-315 345,-315"/>
<text text-anchor="start" x="365" y="-323.2" font-family="Helvetica,sans-Serif" font-size="11.00">cof_codigocnae</text>
<polygon fill="none" stroke="black" points="564,-315 564,-337 647,-337 647,-315 564,-315"/>
<text text-anchor="start" x="567" y="-323.2" font-family="Helvetica,sans-Serif" font-size="11.00">varchar[7]</text>
<polygon fill="none" stroke="black" points="345,-293 345,-315 564,-315 564,-293 345,-293"/>
<text text-anchor="start" x="365" y="-301.2" font-family="Helvetica,sans-Serif" font-size="11.00">cof_valoriss</text>
<polygon fill="none" stroke="black" points="564,-293 564,-315 647,-315 647,-293 564,-293"/>
<text text-anchor="start" x="567" y="-301.2" font-family="Helvetica,sans-Serif" font-size="11.00">numeric[0]</text>
<polygon fill="none" stroke="black" points="345,-271 345,-293 564,-293 564,-271 345,-271"/>
<text text-anchor="start" x="365" y="-279.2" font-family="Helvetica,sans-Serif" font-size="11.00">cof_codigocidadeprestacao</text>
<polygon fill="none" stroke="black" points="564,-271 564,-293 647,-293 647,-271 564,-271"/>
<text text-anchor="start" x="567" y="-279.2" font-family="Helvetica,sans-Serif" font-size="11.00">varchar[60]</text>
<polygon fill="none" stroke="black" points="345,-249 345,-271 564,-271 564,-249 345,-249"/>
<text text-anchor="start" x="365" y="-257.2" font-family="Helvetica,sans-Serif" font-size="11.00">cof_aliquotaiss</text>
<polygon fill="none" stroke="black" points="564,-249 564,-271 647,-271 647,-249 564,-249"/>
<text text-anchor="start" x="567" y="-257.2" font-family="Helvetica,sans-Serif" font-size="11.00">numeric[0]</text>
<polygon fill="none" stroke="black" points="345,-227 345,-249 564,-249 564,-227 345,-227"/>
<text text-anchor="start" x="365" y="-235.2" font-family="Helvetica,sans-Serif" font-size="11.00">cof_basecalculo</text>
<polygon fill="none" stroke="black" points="564,-227 564,-249 647,-249 647,-227 564,-227"/>
<text text-anchor="start" x="567" y="-235.2" font-family="Helvetica,sans-Serif" font-size="11.00">numeric[0]</text>
<polygon fill="none" stroke="black" points="345,-205 345,-227 564,-227 564,-205 345,-205"/>
<text text-anchor="start" x="365" y="-213.2" font-family="Helvetica,sans-Serif" font-size="11.00">cof_quantidadeservicos</text>
<polygon fill="none" stroke="black" points="564,-205 564,-227 647,-227 647,-205 564,-205"/>
<text text-anchor="start" x="567" y="-213.2" font-family="Helvetica,sans-Serif" font-size="11.00">numeric[0]</text>
<polygon fill="#ffffff" stroke="transparent" points="345,-187 345,-205 647,-205 647,-187 345,-187"/>
<polygon fill="none" stroke="black" points="345,-187 345,-205 647,-205 647,-187 345,-187"/>
<polygon fill="#ffffff" stroke="transparent" points="346,-188 346,-204 449,-204 449,-188 346,-188"/>
<text text-anchor="start" x="348" y="-193.2" font-family="Helvetica,sans-Serif" font-size="11.00">&lt; 1</text>
<polygon fill="#ffffff" stroke="transparent" points="449,-188 449,-204 543,-204 543,-188 449,-188"/>
<text text-anchor="start" x="492.5" y="-193.2" font-family="Helvetica,sans-Serif" font-size="11.00"> &#160;</text>
<polygon fill="#ffffff" stroke="transparent" points="543,-188 543,-204 646,-204 646,-188 543,-188"/>
<text text-anchor="start" x="628" y="-193.2" font-family="Helvetica,sans-Serif" font-size="11.00">0 &gt;</text>
<polygon fill="black" stroke="black" points="449,-188 449,-204 449,-204 449,-188 449,-188"/>
<polygon fill="black" stroke="black" points="543,-188 543,-204 543,-204 543,-188 543,-188"/>
<polygon fill="none" stroke="black" stroke-width="2" points="344,-186 344,-756 648,-756 648,-186 344,-186"/>
</a>
</g>
</g>
<!-- cof_rps -->
<g id="node2" class="node">
<title>cof_rps</title>
<g id="a_node2"><a xlink:href="../../tables/cof_rps.html" xlink:title="cof_rps" target="_top">
<polygon fill="#ffffff" stroke="transparent" points="8,-37 8,-557 294,-557 294,-37 8,-37"/>
<polygon fill="#f5f5f5" stroke="transparent" points="8,-535 8,-557 294,-557 294,-535 8,-535"/>
<polygon fill="none" stroke="black" points="8,-535 8,-557 294,-557 294,-535 8,-535"/>
<text text-anchor="start" x="13" y="-544.2" font-family="Helvetica,sans-Serif" font-weight="bold" font-size="11.00">cof_rps</text>
<text text-anchor="start" x="259" y="-543.2" font-family="Helvetica,sans-Serif" font-size="11.00">[table]</text>
<polygon fill="none" stroke="black" points="8,-513 8,-535 294,-535 294,-513 8,-513"/>
<image xlink:href="../../images/primaryKeys.png" width="11px" height="12px" preserveAspectRatio="xMinYMin meet" x="13" y="-530"/>
<text text-anchor="start" x="28" y="-521.2" font-family="Helvetica,sans-Serif" font-size="11.00">cof_rps_id</text>
<polygon fill="none" stroke="black" points="8,-491 8,-513 294,-513 294,-491 8,-491"/>
<image xlink:href="../../images/foreignKeys.png" width="11px" height="12px" preserveAspectRatio="xMinYMin meet" x="13" y="-508"/>
<text text-anchor="start" x="28" y="-499.2" font-family="Helvetica,sans-Serif" font-size="11.00">ad_org_id</text>
<polygon fill="#ffffff" stroke="transparent" points="8,-469 8,-491 294,-491 294,-469 8,-469"/>
<polygon fill="none" stroke="black" points="8,-469 8,-491 294,-491 294,-469 8,-469"/>
<text text-anchor="start" x="28" y="-477.2" font-family="Helvetica,sans-Serif" font-size="11.00">cof_rps_uu</text>
<polygon fill="none" stroke="black" points="8,-447 8,-469 294,-469 294,-447 8,-447"/>
<image xlink:href="../../images/foreignKeys.png" width="11px" height="12px" preserveAspectRatio="xMinYMin meet" x="13" y="-464"/>
<text text-anchor="start" x="28" y="-455.2" font-family="Helvetica,sans-Serif" font-size="11.00">c_doctype_id</text>
<polygon fill="none" stroke="black" points="8,-425 8,-447 294,-447 294,-425 8,-425"/>
<image xlink:href="../../images/foreignKeys.png" width="11px" height="12px" preserveAspectRatio="xMinYMin meet" x="13" y="-442"/>
<text text-anchor="start" x="28" y="-433.2" font-family="Helvetica,sans-Serif" font-size="11.00">c_doctypetarget_id</text>
<polygon fill="none" stroke="black" points="8,-403 8,-425 294,-425 294,-403 8,-403"/>
<image xlink:href="../../images/foreignKeys.png" width="11px" height="12px" preserveAspectRatio="xMinYMin meet" x="13" y="-420"/>
<text text-anchor="start" x="28" y="-411.2" font-family="Helvetica,sans-Serif" font-size="11.00">cof_rps_lote_id</text>
<polygon fill="#ffffff" stroke="transparent" points="8,-381 8,-403 294,-403 294,-381 8,-381"/>
<polygon fill="none" stroke="black" points="8,-381 8,-403 294,-403 294,-381 8,-381"/>
<image xlink:href="../../images/foreignKeys.png" width="11px" height="12px" preserveAspectRatio="xMinYMin meet" x="13" y="-398"/>
<text text-anchor="start" x="28" y="-389.2" font-family="Helvetica,sans-Serif" font-size="11.00">c_invoice_id</text>
<polygon fill="#ffffff" stroke="transparent" points="8,-359 8,-381 294,-381 294,-359 8,-359"/>
<polygon fill="none" stroke="black" points="8,-359 8,-381 294,-381 294,-359 8,-359"/>
<image xlink:href="../../images/foreignKeys.png" width="11px" height="12px" preserveAspectRatio="xMinYMin meet" x="13" y="-376"/>
<text text-anchor="start" x="28" y="-367.2" font-family="Helvetica,sans-Serif" font-size="11.00">c_order_id</text>
<polygon fill="none" stroke="black" points="8,-337 8,-359 294,-359 294,-337 8,-337"/>
<image xlink:href="../../images/foreignKeys.png" width="11px" height="12px" preserveAspectRatio="xMinYMin meet" x="13" y="-354"/>
<text text-anchor="start" x="28" y="-345.2" font-family="Helvetica,sans-Serif" font-size="11.00">c_currency_id</text>
<polygon fill="none" stroke="black" points="8,-315 8,-337 294,-337 294,-315 8,-315"/>
<image xlink:href="../../images/foreignKeys.png" width="11px" height="12px" preserveAspectRatio="xMinYMin meet" x="13" y="-332"/>
<text text-anchor="start" x="28" y="-323.2" font-family="Helvetica,sans-Serif" font-size="11.00">c_paymentterm_id</text>
<polygon fill="none" stroke="black" points="8,-293 8,-315 294,-315 294,-293 8,-293"/>
<image xlink:href="../../images/foreignKeys.png" width="11px" height="12px" preserveAspectRatio="xMinYMin meet" x="13" y="-310"/>
<text text-anchor="start" x="28" y="-301.2" font-family="Helvetica,sans-Serif" font-size="11.00">m_pricelist_id</text>
<polygon fill="none" stroke="black" points="8,-271 8,-293 294,-293 294,-271 8,-271"/>
<image xlink:href="../../images/foreignKeys.png" width="11px" height="12px" preserveAspectRatio="xMinYMin meet" x="13" y="-288"/>
<text text-anchor="start" x="28" y="-279.2" font-family="Helvetica,sans-Serif" font-size="11.00">org_location_id</text>
<polygon fill="none" stroke="black" points="8,-249 8,-271 294,-271 294,-249 8,-249"/>
<image xlink:href="../../images/foreignKeys.png" width="11px" height="12px" preserveAspectRatio="xMinYMin meet" x="13" y="-266"/>
<text text-anchor="start" x="28" y="-257.2" font-family="Helvetica,sans-Serif" font-size="11.00">dest_bpartner_id</text>
<polygon fill="none" stroke="black" points="8,-227 8,-249 294,-249 294,-227 8,-227"/>
<image xlink:href="../../images/foreignKeys.png" width="11px" height="12px" preserveAspectRatio="xMinYMin meet" x="13" y="-244"/>
<text text-anchor="start" x="28" y="-235.2" font-family="Helvetica,sans-Serif" font-size="11.00">dest_city_id</text>
<polygon fill="none" stroke="black" points="8,-205 8,-227 294,-227 294,-205 8,-205"/>
<image xlink:href="../../images/foreignKeys.png" width="11px" height="12px" preserveAspectRatio="xMinYMin meet" x="13" y="-222"/>
<text text-anchor="start" x="28" y="-213.2" font-family="Helvetica,sans-Serif" font-size="11.00">dest_region_id</text>
<polygon fill="none" stroke="black" points="8,-183 8,-205 294,-205 294,-183 8,-183"/>
<image xlink:href="../../images/foreignKeys.png" width="11px" height="12px" preserveAspectRatio="xMinYMin meet" x="13" y="-200"/>
<text text-anchor="start" x="28" y="-191.2" font-family="Helvetica,sans-Serif" font-size="11.00">dest_country_id</text>
<polygon fill="none" stroke="black" points="8,-161 8,-183 294,-183 294,-161 8,-161"/>
<image xlink:href="../../images/foreignKeys.png" width="11px" height="12px" preserveAspectRatio="xMinYMin meet" x="13" y="-178"/>
<text text-anchor="start" x="28" y="-169.2" font-family="Helvetica,sans-Serif" font-size="11.00">cof_nfsecancelamento_id</text>
<polygon fill="none" stroke="black" points="8,-139 8,-161 294,-161 294,-139 8,-139"/>
<image xlink:href="../../images/foreignKeys.png" width="11px" height="12px" preserveAspectRatio="xMinYMin meet" x="13" y="-156"/>
<text text-anchor="start" x="28" y="-147.2" font-family="Helvetica,sans-Serif" font-size="11.00">cof_bpdest_id</text>
<polygon fill="none" stroke="black" points="8,-117 8,-139 294,-139 294,-117 8,-117"/>
<image xlink:href="../../images/foreignKeys.png" width="11px" height="12px" preserveAspectRatio="xMinYMin meet" x="13" y="-134"/>
<text text-anchor="start" x="28" y="-125.2" font-family="Helvetica,sans-Serif" font-size="11.00">cof_destinatariocity_id</text>
<polygon fill="none" stroke="black" points="8,-95 8,-117 294,-117 294,-95 8,-95"/>
<image xlink:href="../../images/foreignKeys.png" width="11px" height="12px" preserveAspectRatio="xMinYMin meet" x="13" y="-112"/>
<text text-anchor="start" x="28" y="-103.2" font-family="Helvetica,sans-Serif" font-size="11.00">cof_destinatariocountry_id</text>
<polygon fill="none" stroke="black" points="8,-73 8,-95 294,-95 294,-73 8,-73"/>
<image xlink:href="../../images/foreignKeys.png" width="11px" height="12px" preserveAspectRatio="xMinYMin meet" x="13" y="-90"/>
<text text-anchor="start" x="28" y="-81.2" font-family="Helvetica,sans-Serif" font-size="11.00">cof_destinatarioregion_id</text>
<polygon fill="none" stroke="black" points="8,-55 8,-73 294,-73 294,-55 8,-55"/>
<text text-anchor="start" x="11" y="-61.2" font-family="Helvetica,sans-Serif" font-size="11.00">...</text>
<polygon fill="#ffffff" stroke="transparent" points="8,-37 8,-55 294,-55 294,-37 8,-37"/>
<polygon fill="none" stroke="black" points="8,-37 8,-55 294,-55 294,-37 8,-37"/>
<polygon fill="#ffffff" stroke="transparent" points="9,-38 9,-54 111,-54 111,-38 9,-38"/>
<text text-anchor="start" x="11" y="-43.2" font-family="Helvetica,sans-Serif" font-size="11.00">&lt; 19</text>
<polygon fill="#ffffff" stroke="transparent" points="111,-38 111,-54 198,-54 198,-38 111,-38"/>
<text text-anchor="start" x="151" y="-43.2" font-family="Helvetica,sans-Serif" font-size="11.00"> &#160;</text>
<polygon fill="#ffffff" stroke="transparent" points="198,-38 198,-54 293,-54 293,-38 198,-38"/>
<text text-anchor="start" x="275" y="-43.2" font-family="Helvetica,sans-Serif" font-size="11.00">1 &gt;</text>
<polygon fill="black" stroke="black" points="111,-38 111,-54 111,-54 111,-38 111,-38"/>
<polygon fill="black" stroke="black" points="198,-38 198,-54 198,-54 198,-38 198,-38"/>
</a>
</g>
</g>
<!-- cof_rps_line&#45;&gt;cof_rps -->
<g id="edge1" class="edge">
<title>cof_rps_line:w&#45;&gt;cof_rps:e</title>
<path fill="none" stroke="black" d="M329.49,-524C318.18,-524 310.99,-524 295,-524"/>
<polygon fill="black" stroke="black" points="336,-524 344,-527.6 340,-524 344,-524 344,-524 344,-524 340,-524 344,-520.4 336,-524 336,-524"/>
<ellipse fill="none" stroke="black" cx="332.8" cy="-524" rx="3.2" ry="3.2"/>
</g>
</g>
</svg>
