<?xml version="1.0" encoding="UTF-8" standalone="no"?>
<!DOCTYPE svg PUBLIC "-//W3C//DTD SVG 1.1//EN"
 "http://www.w3.org/Graphics/SVG/1.1/DTD/svg11.dtd">
<!-- Generated by graphviz version 2.43.0 (0)
 -->
<!-- Title: oneDegreeRelationshipsDiagram Pages: 1 -->
<svg width="1170pt" height="1046pt"
 viewBox="0.00 0.00 1170.00 1046.00" xmlns="http://www.w3.org/2000/svg" xmlns:xlink="http://www.w3.org/1999/xlink">
<g id="graph0" class="graph" transform="scale(1 1) rotate(0) translate(4 1042)">
<title>oneDegreeRelationshipsDiagram</title>
<polygon fill="#ffffff" stroke="transparent" points="-4,4 -4,-1042 1166,-1042 1166,4 -4,4"/>
<text text-anchor="middle" x="71.5" y="-7.2" font-family="Helvetica,sans-Serif" font-size="11.00">Generated by SchemaSpy</text>
<!-- cof_fci -->
<g id="node1" class="node">
<title>cof_fci</title>
<g id="a_node1"><a xlink:href="../../tables/cof_fci.html" xlink:title="cof_fci" target="_top">
<polygon fill="#ffffff" stroke="transparent" points="616,-550 616,-1034 892,-1034 892,-550 616,-550"/>
<polygon fill="#f5f5f5" stroke="transparent" points="618,-1010 618,-1032 890,-1032 890,-1010 618,-1010"/>
<polygon fill="none" stroke="black" points="618,-1010 618,-1032 890,-1032 890,-1010 618,-1010"/>
<text text-anchor="start" x="623" y="-1019.2" font-family="Helvetica,sans-Serif" font-weight="bold" font-size="11.00">cof_fci</text>
<text text-anchor="start" x="855" y="-1018.2" font-family="Helvetica,sans-Serif" font-size="11.00">[table]</text>
<polygon fill="none" stroke="black" points="618,-988 618,-1010 807,-1010 807,-988 618,-988"/>
<image xlink:href="../../images/primaryKeys.png" width="11px" height="12px" preserveAspectRatio="xMinYMin meet" x="623" y="-1005"/>
<text text-anchor="start" x="638" y="-996.2" font-family="Helvetica,sans-Serif" font-size="11.00">cof_fci_id</text>
<polygon fill="none" stroke="black" points="807,-988 807,-1010 890,-1010 890,-988 807,-988"/>
<text text-anchor="start" x="810" y="-996.2" font-family="Helvetica,sans-Serif" font-size="11.00">numeric[10]</text>
<polygon fill="#ffffff" stroke="transparent" points="618,-966 618,-988 807,-988 807,-966 618,-966"/>
<polygon fill="none" stroke="black" points="618,-966 618,-988 807,-988 807,-966 618,-966"/>
<text text-anchor="start" x="638" y="-974.2" font-family="Helvetica,sans-Serif" font-size="11.00">cof_fci_uu</text>
<polygon fill="none" stroke="black" points="807,-966 807,-988 890,-988 890,-966 807,-966"/>
<text text-anchor="start" x="810" y="-974.2" font-family="Helvetica,sans-Serif" font-size="11.00">varchar[36]</text>
<polygon fill="none" stroke="black" points="618,-944 618,-966 807,-966 807,-944 618,-944"/>
<text text-anchor="start" x="638" y="-952.2" font-family="Helvetica,sans-Serif" font-size="11.00">ad_client_id</text>
<polygon fill="none" stroke="black" points="807,-944 807,-966 890,-966 890,-944 807,-944"/>
<text text-anchor="start" x="810" y="-952.2" font-family="Helvetica,sans-Serif" font-size="11.00">numeric[10]</text>
<polygon fill="none" stroke="black" points="618,-922 618,-944 807,-944 807,-922 618,-922"/>
<text text-anchor="start" x="638" y="-930.2" font-family="Helvetica,sans-Serif" font-size="11.00">ad_org_id</text>
<polygon fill="none" stroke="black" points="807,-922 807,-944 890,-944 890,-922 807,-922"/>
<text text-anchor="start" x="810" y="-930.2" font-family="Helvetica,sans-Serif" font-size="11.00">numeric[10]</text>
<polygon fill="none" stroke="black" points="618,-900 618,-922 807,-922 807,-900 618,-900"/>
<text text-anchor="start" x="638" y="-908.2" font-family="Helvetica,sans-Serif" font-size="11.00">isactive</text>
<polygon fill="none" stroke="black" points="807,-900 807,-922 890,-922 890,-900 807,-900"/>
<text text-anchor="start" x="810" y="-908.2" font-family="Helvetica,sans-Serif" font-size="11.00">bpchar[1]</text>
<polygon fill="none" stroke="black" points="618,-878 618,-900 807,-900 807,-878 618,-878"/>
<text text-anchor="start" x="638" y="-886.2" font-family="Helvetica,sans-Serif" font-size="11.00">created</text>
<polygon fill="none" stroke="black" points="807,-878 807,-900 890,-900 890,-878 807,-878"/>
<text text-anchor="start" x="810" y="-886.2" font-family="Helvetica,sans-Serif" font-size="11.00">timestamp[29,6]</text>
<polygon fill="none" stroke="black" points="618,-856 618,-878 807,-878 807,-856 618,-856"/>
<text text-anchor="start" x="638" y="-864.2" font-family="Helvetica,sans-Serif" font-size="11.00">createdby</text>
<polygon fill="none" stroke="black" points="807,-856 807,-878 890,-878 890,-856 807,-856"/>
<text text-anchor="start" x="810" y="-864.2" font-family="Helvetica,sans-Serif" font-size="11.00">numeric[10]</text>
<polygon fill="none" stroke="black" points="618,-834 618,-856 807,-856 807,-834 618,-834"/>
<text text-anchor="start" x="638" y="-842.2" font-family="Helvetica,sans-Serif" font-size="11.00">updated</text>
<polygon fill="none" stroke="black" points="807,-834 807,-856 890,-856 890,-834 807,-834"/>
<text text-anchor="start" x="810" y="-842.2" font-family="Helvetica,sans-Serif" font-size="11.00">timestamp[29,6]</text>
<polygon fill="none" stroke="black" points="618,-812 618,-834 807,-834 807,-812 618,-812"/>
<text text-anchor="start" x="638" y="-820.2" font-family="Helvetica,sans-Serif" font-size="11.00">updatedby</text>
<polygon fill="none" stroke="black" points="807,-812 807,-834 890,-834 890,-812 807,-812"/>
<text text-anchor="start" x="810" y="-820.2" font-family="Helvetica,sans-Serif" font-size="11.00">numeric[10]</text>
<polygon fill="none" stroke="black" points="618,-790 618,-812 807,-812 807,-790 618,-790"/>
<text text-anchor="start" x="638" y="-798.2" font-family="Helvetica,sans-Serif" font-size="11.00">cof_numerorecibo</text>
<polygon fill="none" stroke="black" points="807,-790 807,-812 890,-812 890,-790 807,-790"/>
<text text-anchor="start" x="810" y="-798.2" font-family="Helvetica,sans-Serif" font-size="11.00">varchar[36]</text>
<polygon fill="none" stroke="black" points="618,-768 618,-790 807,-790 807,-768 618,-768"/>
<image xlink:href="../../images/foreignKeys.png" width="11px" height="12px" preserveAspectRatio="xMinYMin meet" x="623" y="-785"/>
<text text-anchor="start" x="638" y="-776.2" font-family="Helvetica,sans-Serif" font-size="11.00">m_product_id</text>
<polygon fill="none" stroke="black" points="807,-768 807,-790 890,-790 890,-768 807,-768"/>
<text text-anchor="start" x="810" y="-776.2" font-family="Helvetica,sans-Serif" font-size="11.00">numeric[10]</text>
<polygon fill="none" stroke="black" points="618,-746 618,-768 807,-768 807,-746 618,-746"/>
<image xlink:href="../../images/foreignKeys.png" width="11px" height="12px" preserveAspectRatio="xMinYMin meet" x="623" y="-763"/>
<text text-anchor="start" x="638" y="-754.2" font-family="Helvetica,sans-Serif" font-size="11.00">m_product_category_id</text>
<polygon fill="none" stroke="black" points="807,-746 807,-768 890,-768 890,-746 807,-746"/>
<text text-anchor="start" x="810" y="-754.2" font-family="Helvetica,sans-Serif" font-size="11.00">numeric[10]</text>
<polygon fill="none" stroke="black" points="618,-724 618,-746 807,-746 807,-724 618,-724"/>
<text text-anchor="start" x="638" y="-732.2" font-family="Helvetica,sans-Serif" font-size="11.00">cof_dataentradade</text>
<polygon fill="none" stroke="black" points="807,-724 807,-746 890,-746 890,-724 807,-724"/>
<text text-anchor="start" x="810" y="-732.2" font-family="Helvetica,sans-Serif" font-size="11.00">timestamp[29,6]</text>
<polygon fill="none" stroke="black" points="618,-702 618,-724 807,-724 807,-702 618,-702"/>
<text text-anchor="start" x="638" y="-710.2" font-family="Helvetica,sans-Serif" font-size="11.00">cof_dataentradaate</text>
<polygon fill="none" stroke="black" points="807,-702 807,-724 890,-724 890,-702 807,-702"/>
<text text-anchor="start" x="810" y="-710.2" font-family="Helvetica,sans-Serif" font-size="11.00">timestamp[29,6]</text>
<polygon fill="none" stroke="black" points="618,-680 618,-702 807,-702 807,-680 618,-680"/>
<text text-anchor="start" x="638" y="-688.2" font-family="Helvetica,sans-Serif" font-size="11.00">cof_datasaidade</text>
<polygon fill="none" stroke="black" points="807,-680 807,-702 890,-702 890,-680 807,-680"/>
<text text-anchor="start" x="810" y="-688.2" font-family="Helvetica,sans-Serif" font-size="11.00">timestamp[29,6]</text>
<polygon fill="none" stroke="black" points="618,-658 618,-680 807,-680 807,-658 618,-658"/>
<text text-anchor="start" x="638" y="-666.2" font-family="Helvetica,sans-Serif" font-size="11.00">cof_datasaidaate</text>
<polygon fill="none" stroke="black" points="807,-658 807,-680 890,-680 890,-658 807,-658"/>
<text text-anchor="start" x="810" y="-666.2" font-family="Helvetica,sans-Serif" font-size="11.00">timestamp[29,6]</text>
<polygon fill="none" stroke="black" points="618,-636 618,-658 807,-658 807,-636 618,-636"/>
<text text-anchor="start" x="638" y="-644.2" font-family="Helvetica,sans-Serif" font-size="11.00">cof_processed</text>
<polygon fill="none" stroke="black" points="807,-636 807,-658 890,-658 890,-636 807,-636"/>
<text text-anchor="start" x="810" y="-644.2" font-family="Helvetica,sans-Serif" font-size="11.00">bpchar[1]</text>
<polygon fill="none" stroke="black" points="618,-614 618,-636 807,-636 807,-614 618,-614"/>
<text text-anchor="start" x="638" y="-622.2" font-family="Helvetica,sans-Serif" font-size="11.00">cof_processing</text>
<polygon fill="none" stroke="black" points="807,-614 807,-636 890,-636 890,-614 807,-614"/>
<text text-anchor="start" x="810" y="-622.2" font-family="Helvetica,sans-Serif" font-size="11.00">bpchar[1]</text>
<polygon fill="none" stroke="black" points="618,-592 618,-614 807,-614 807,-592 618,-592"/>
<text text-anchor="start" x="638" y="-600.2" font-family="Helvetica,sans-Serif" font-size="11.00">cof_processed2</text>
<polygon fill="none" stroke="black" points="807,-592 807,-614 890,-614 890,-592 807,-592"/>
<text text-anchor="start" x="810" y="-600.2" font-family="Helvetica,sans-Serif" font-size="11.00">bpchar[1]</text>
<polygon fill="none" stroke="black" points="618,-570 618,-592 807,-592 807,-570 618,-570"/>
<text text-anchor="start" x="638" y="-578.2" font-family="Helvetica,sans-Serif" font-size="11.00">cof_codversao</text>
<polygon fill="none" stroke="black" points="807,-570 807,-592 890,-592 890,-570 807,-570"/>
<text text-anchor="start" x="810" y="-578.2" font-family="Helvetica,sans-Serif" font-size="11.00">varchar[3]</text>
<polygon fill="#ffffff" stroke="transparent" points="618,-552 618,-570 890,-570 890,-552 618,-552"/>
<polygon fill="none" stroke="black" points="618,-552 618,-570 890,-570 890,-552 618,-552"/>
<polygon fill="#ffffff" stroke="transparent" points="619,-553 619,-569 712,-569 712,-553 619,-553"/>
<text text-anchor="start" x="621" y="-558.2" font-family="Helvetica,sans-Serif" font-size="11.00">&lt; 2</text>
<polygon fill="#ffffff" stroke="transparent" points="712,-553 712,-569 796,-569 796,-553 712,-553"/>
<text text-anchor="start" x="750.5" y="-558.2" font-family="Helvetica,sans-Serif" font-size="11.00"> &#160;</text>
<polygon fill="#ffffff" stroke="transparent" points="796,-553 796,-569 889,-569 889,-553 796,-553"/>
<text text-anchor="start" x="871" y="-558.2" font-family="Helvetica,sans-Serif" font-size="11.00">1 &gt;</text>
<polygon fill="black" stroke="black" points="712,-553 712,-569 712,-569 712,-553 712,-553"/>
<polygon fill="black" stroke="black" points="796,-553 796,-569 796,-569 796,-553 796,-553"/>
<polygon fill="none" stroke="black" stroke-width="2" points="617,-551 617,-1033 891,-1033 891,-551 617,-551"/>
</a>
</g>
</g>
<!-- m_product_category -->
<g id="node2" class="node">
<title>m_product_category</title>
<g id="a_node2"><a xlink:href="../../tables/m_product_category.html" xlink:title="m_product_category" target="_top">
<polygon fill="#ffffff" stroke="transparent" points="8,-450 8,-662 252,-662 252,-450 8,-450"/>
<polygon fill="#f5f5f5" stroke="transparent" points="8,-640 8,-662 252,-662 252,-640 8,-640"/>
<polygon fill="none" stroke="black" points="8,-640 8,-662 252,-662 252,-640 8,-640"/>
<text text-anchor="start" x="13" y="-649.2" font-family="Helvetica,sans-Serif" font-weight="bold" font-size="11.00">m_product_category</text>
<text text-anchor="start" x="217" y="-648.2" font-family="Helvetica,sans-Serif" font-size="11.00">[table]</text>
<polygon fill="none" stroke="black" points="8,-618 8,-640 252,-640 252,-618 8,-618"/>
<image xlink:href="../../images/primaryKeys.png" width="11px" height="12px" preserveAspectRatio="xMinYMin meet" x="13" y="-635"/>
<text text-anchor="start" x="28" y="-626.2" font-family="Helvetica,sans-Serif" font-size="11.00">m_product_category_id</text>
<polygon fill="#ffffff" stroke="transparent" points="8,-596 8,-618 252,-618 252,-596 8,-596"/>
<polygon fill="none" stroke="black" points="8,-596 8,-618 252,-618 252,-596 8,-596"/>
<text text-anchor="start" x="28" y="-604.2" font-family="Helvetica,sans-Serif" font-size="11.00">ad_client_id</text>
<polygon fill="#ffffff" stroke="transparent" points="8,-574 8,-596 252,-596 252,-574 8,-574"/>
<polygon fill="none" stroke="black" points="8,-574 8,-596 252,-596 252,-574 8,-574"/>
<text text-anchor="start" x="28" y="-582.2" font-family="Helvetica,sans-Serif" font-size="11.00">value</text>
<polygon fill="none" stroke="black" points="8,-552 8,-574 252,-574 252,-552 8,-552"/>
<image xlink:href="../../images/foreignKeys.png" width="11px" height="12px" preserveAspectRatio="xMinYMin meet" x="13" y="-569"/>
<text text-anchor="start" x="28" y="-560.2" font-family="Helvetica,sans-Serif" font-size="11.00">a_asset_group_id</text>
<polygon fill="none" stroke="black" points="8,-530 8,-552 252,-552 252,-530 8,-530"/>
<image xlink:href="../../images/foreignKeys.png" width="11px" height="12px" preserveAspectRatio="xMinYMin meet" x="13" y="-547"/>
<text text-anchor="start" x="28" y="-538.2" font-family="Helvetica,sans-Serif" font-size="11.00">ad_printcolor_id</text>
<polygon fill="none" stroke="black" points="8,-508 8,-530 252,-530 252,-508 8,-508"/>
<image xlink:href="../../images/foreignKeys.png" width="11px" height="12px" preserveAspectRatio="xMinYMin meet" x="13" y="-525"/>
<text text-anchor="start" x="28" y="-516.2" font-family="Helvetica,sans-Serif" font-size="11.00">m_product_category_parent_id</text>
<polygon fill="#ffffff" stroke="transparent" points="8,-486 8,-508 252,-508 252,-486 8,-486"/>
<polygon fill="none" stroke="black" points="8,-486 8,-508 252,-508 252,-486 8,-486"/>
<text text-anchor="start" x="28" y="-494.2" font-family="Helvetica,sans-Serif" font-size="11.00">m_product_category_uu</text>
<polygon fill="none" stroke="black" points="8,-468 8,-486 252,-486 252,-468 8,-468"/>
<text text-anchor="start" x="11" y="-474.2" font-family="Helvetica,sans-Serif" font-size="11.00">...</text>
<polygon fill="#ffffff" stroke="transparent" points="8,-450 8,-468 252,-468 252,-450 8,-450"/>
<polygon fill="none" stroke="black" points="8,-450 8,-468 252,-468 252,-450 8,-450"/>
<polygon fill="#ffffff" stroke="transparent" points="9,-451 9,-467 82,-467 82,-451 9,-451"/>
<text text-anchor="start" x="11" y="-456.2" font-family="Helvetica,sans-Serif" font-size="11.00">&lt; 3</text>
<polygon fill="#ffffff" stroke="transparent" points="82,-451 82,-467 172,-467 172,-451 82,-451"/>
<text text-anchor="start" x="110.5" y="-456.2" font-family="Helvetica,sans-Serif" font-size="11.00">5 rows</text>
<polygon fill="#ffffff" stroke="transparent" points="172,-451 172,-467 251,-467 251,-451 172,-451"/>
<text text-anchor="start" x="227" y="-456.2" font-family="Helvetica,sans-Serif" font-size="11.00">26 &gt;</text>
<polygon fill="black" stroke="black" points="82,-451 82,-467 82,-467 82,-451 82,-451"/>
<polygon fill="black" stroke="black" points="172,-451 172,-467 172,-467 172,-451 172,-451"/>
</a>
</g>
</g>
<!-- cof_fci&#45;&gt;m_product_category -->
<g id="edge1" class="edge">
<title>cof_fci:w&#45;&gt;m_product_category:e</title>
<path fill="none" stroke="black" d="M602.5,-757.24C468.42,-761.73 404.8,-825.94 293,-743 249.88,-711.01 306.7,-629 253,-629"/>
<polygon fill="black" stroke="black" points="609,-757.13 617.06,-760.6 613,-757.07 617,-757 617,-757 617,-757 613,-757.07 616.94,-753.4 609,-757.13 609,-757.13"/>
<ellipse fill="none" stroke="black" cx="605.8" cy="-757.19" rx="3.2" ry="3.2"/>
</g>
<!-- m_product -->
<g id="node3" class="node">
<title>m_product</title>
<g id="a_node3"><a xlink:href="../../tables/m_product.html" xlink:title="m_product" target="_top">
<polygon fill="#ffffff" stroke="transparent" points="301,-37 301,-733 567,-733 567,-37 301,-37"/>
<polygon fill="#f5f5f5" stroke="transparent" points="301,-711 301,-733 567,-733 567,-711 301,-711"/>
<polygon fill="none" stroke="black" points="301,-711 301,-733 567,-733 567,-711 301,-711"/>
<text text-anchor="start" x="306" y="-720.2" font-family="Helvetica,sans-Serif" font-weight="bold" font-size="11.00">m_product</text>
<text text-anchor="start" x="532" y="-719.2" font-family="Helvetica,sans-Serif" font-size="11.00">[table]</text>
<polygon fill="none" stroke="black" points="301,-689 301,-711 567,-711 567,-689 301,-689"/>
<image xlink:href="../../images/primaryKeys.png" width="11px" height="12px" preserveAspectRatio="xMinYMin meet" x="306" y="-706"/>
<text text-anchor="start" x="321" y="-697.2" font-family="Helvetica,sans-Serif" font-size="11.00">m_product_id</text>
<polygon fill="#ffffff" stroke="transparent" points="301,-667 301,-689 567,-689 567,-667 301,-667"/>
<polygon fill="none" stroke="black" points="301,-667 301,-689 567,-689 567,-667 301,-667"/>
<image xlink:href="../../images/foreignKeys.png" width="11px" height="12px" preserveAspectRatio="xMinYMin meet" x="306" y="-684"/>
<text text-anchor="start" x="321" y="-675.2" font-family="Helvetica,sans-Serif" font-size="11.00">ad_client_id</text>
<polygon fill="none" stroke="black" points="301,-645 301,-667 567,-667 567,-645 301,-645"/>
<image xlink:href="../../images/foreignKeys.png" width="11px" height="12px" preserveAspectRatio="xMinYMin meet" x="306" y="-662"/>
<text text-anchor="start" x="321" y="-653.2" font-family="Helvetica,sans-Serif" font-size="11.00">ad_org_id</text>
<polygon fill="#ffffff" stroke="transparent" points="301,-623 301,-645 567,-645 567,-623 301,-623"/>
<polygon fill="none" stroke="black" points="301,-623 301,-645 567,-645 567,-623 301,-623"/>
<text text-anchor="start" x="321" y="-631.2" font-family="Helvetica,sans-Serif" font-size="11.00">value</text>
<polygon fill="#ffffff" stroke="transparent" points="301,-601 301,-623 567,-623 567,-601 301,-601"/>
<polygon fill="none" stroke="black" points="301,-601 301,-623 567,-623 567,-601 301,-601"/>
<text text-anchor="start" x="321" y="-609.2" font-family="Helvetica,sans-Serif" font-size="11.00">name</text>
<polygon fill="#ffffff" stroke="transparent" points="301,-579 301,-601 567,-601 567,-579 301,-579"/>
<polygon fill="none" stroke="black" points="301,-579 301,-601 567,-601 567,-579 301,-579"/>
<text text-anchor="start" x="321" y="-587.2" font-family="Helvetica,sans-Serif" font-size="11.00">upc</text>
<polygon fill="none" stroke="black" points="301,-557 301,-579 567,-579 567,-557 301,-557"/>
<image xlink:href="../../images/foreignKeys.png" width="11px" height="12px" preserveAspectRatio="xMinYMin meet" x="306" y="-574"/>
<text text-anchor="start" x="321" y="-565.2" font-family="Helvetica,sans-Serif" font-size="11.00">c_uom_id</text>
<polygon fill="none" stroke="black" points="301,-535 301,-557 567,-557 567,-535 301,-535"/>
<image xlink:href="../../images/foreignKeys.png" width="11px" height="12px" preserveAspectRatio="xMinYMin meet" x="306" y="-552"/>
<text text-anchor="start" x="321" y="-543.2" font-family="Helvetica,sans-Serif" font-size="11.00">salesrep_id</text>
<polygon fill="none" stroke="black" points="301,-513 301,-535 567,-535 567,-513 301,-513"/>
<image xlink:href="../../images/foreignKeys.png" width="11px" height="12px" preserveAspectRatio="xMinYMin meet" x="306" y="-530"/>
<text text-anchor="start" x="321" y="-521.2" font-family="Helvetica,sans-Serif" font-size="11.00">c_revenuerecognition_id</text>
<polygon fill="#ffffff" stroke="transparent" points="301,-491 301,-513 567,-513 567,-491 301,-491"/>
<polygon fill="none" stroke="black" points="301,-491 301,-513 567,-513 567,-491 301,-491"/>
<image xlink:href="../../images/foreignKeys.png" width="11px" height="12px" preserveAspectRatio="xMinYMin meet" x="306" y="-508"/>
<text text-anchor="start" x="321" y="-499.2" font-family="Helvetica,sans-Serif" font-size="11.00">m_product_category_id</text>
<polygon fill="none" stroke="black" points="301,-469 301,-491 567,-491 567,-469 301,-469"/>
<image xlink:href="../../images/foreignKeys.png" width="11px" height="12px" preserveAspectRatio="xMinYMin meet" x="306" y="-486"/>
<text text-anchor="start" x="321" y="-477.2" font-family="Helvetica,sans-Serif" font-size="11.00">c_taxcategory_id</text>
<polygon fill="#ffffff" stroke="transparent" points="301,-447 301,-469 567,-469 567,-447 301,-447"/>
<polygon fill="none" stroke="black" points="301,-447 301,-469 567,-469 567,-447 301,-447"/>
<image xlink:href="../../images/foreignKeys.png" width="11px" height="12px" preserveAspectRatio="xMinYMin meet" x="306" y="-464"/>
<text text-anchor="start" x="321" y="-455.2" font-family="Helvetica,sans-Serif" font-size="11.00">s_resource_id</text>
<polygon fill="#ffffff" stroke="transparent" points="301,-425 301,-447 567,-447 567,-425 301,-425"/>
<polygon fill="none" stroke="black" points="301,-425 301,-447 567,-447 567,-425 301,-425"/>
<image xlink:href="../../images/foreignKeys.png" width="11px" height="12px" preserveAspectRatio="xMinYMin meet" x="306" y="-442"/>
<text text-anchor="start" x="321" y="-433.2" font-family="Helvetica,sans-Serif" font-size="11.00">s_expensetype_id</text>
<polygon fill="none" stroke="black" points="301,-403 301,-425 567,-425 567,-403 301,-403"/>
<image xlink:href="../../images/foreignKeys.png" width="11px" height="12px" preserveAspectRatio="xMinYMin meet" x="306" y="-420"/>
<text text-anchor="start" x="321" y="-411.2" font-family="Helvetica,sans-Serif" font-size="11.00">r_mailtext_id</text>
<polygon fill="none" stroke="black" points="301,-381 301,-403 567,-403 567,-381 301,-381"/>
<image xlink:href="../../images/foreignKeys.png" width="11px" height="12px" preserveAspectRatio="xMinYMin meet" x="306" y="-398"/>
<text text-anchor="start" x="321" y="-389.2" font-family="Helvetica,sans-Serif" font-size="11.00">m_attributeset_id</text>
<polygon fill="none" stroke="black" points="301,-359 301,-381 567,-381 567,-359 301,-359"/>
<image xlink:href="../../images/foreignKeys.png" width="11px" height="12px" preserveAspectRatio="xMinYMin meet" x="306" y="-376"/>
<text text-anchor="start" x="321" y="-367.2" font-family="Helvetica,sans-Serif" font-size="11.00">m_freightcategory_id</text>
<polygon fill="none" stroke="black" points="301,-337 301,-359 567,-359 567,-337 301,-337"/>
<image xlink:href="../../images/foreignKeys.png" width="11px" height="12px" preserveAspectRatio="xMinYMin meet" x="306" y="-354"/>
<text text-anchor="start" x="321" y="-345.2" font-family="Helvetica,sans-Serif" font-size="11.00">m_locator_id</text>
<polygon fill="none" stroke="black" points="301,-315 301,-337 567,-337 567,-315 301,-315"/>
<image xlink:href="../../images/foreignKeys.png" width="11px" height="12px" preserveAspectRatio="xMinYMin meet" x="306" y="-332"/>
<text text-anchor="start" x="321" y="-323.2" font-family="Helvetica,sans-Serif" font-size="11.00">c_subscriptiontype_id</text>
<polygon fill="#ffffff" stroke="transparent" points="301,-293 301,-315 567,-315 567,-293 301,-293"/>
<polygon fill="none" stroke="black" points="301,-293 301,-315 567,-315 567,-293 301,-293"/>
<text text-anchor="start" x="321" y="-301.2" font-family="Helvetica,sans-Serif" font-size="11.00">m_product_uu</text>
<polygon fill="none" stroke="black" points="301,-271 301,-293 567,-293 567,-271 301,-271"/>
<image xlink:href="../../images/foreignKeys.png" width="11px" height="12px" preserveAspectRatio="xMinYMin meet" x="306" y="-288"/>
<text text-anchor="start" x="321" y="-279.2" font-family="Helvetica,sans-Serif" font-size="11.00">m_parttype_id</text>
<polygon fill="none" stroke="black" points="301,-249 301,-271 567,-271 567,-249 301,-249"/>
<image xlink:href="../../images/foreignKeys.png" width="11px" height="12px" preserveAspectRatio="xMinYMin meet" x="306" y="-266"/>
<text text-anchor="start" x="321" y="-257.2" font-family="Helvetica,sans-Serif" font-size="11.00">cof_cest_id</text>
<polygon fill="none" stroke="black" points="301,-227 301,-249 567,-249 567,-227 301,-227"/>
<image xlink:href="../../images/foreignKeys.png" width="11px" height="12px" preserveAspectRatio="xMinYMin meet" x="306" y="-244"/>
<text text-anchor="start" x="321" y="-235.2" font-family="Helvetica,sans-Serif" font-size="11.00">cof_c_generoitem_sped_id</text>
<polygon fill="none" stroke="black" points="301,-205 301,-227 567,-227 567,-205 301,-205"/>
<image xlink:href="../../images/foreignKeys.png" width="11px" height="12px" preserveAspectRatio="xMinYMin meet" x="306" y="-222"/>
<text text-anchor="start" x="321" y="-213.2" font-family="Helvetica,sans-Serif" font-size="11.00">cof_producttype_id</text>
<polygon fill="none" stroke="black" points="301,-183 301,-205 567,-205 567,-183 301,-183"/>
<image xlink:href="../../images/foreignKeys.png" width="11px" height="12px" preserveAspectRatio="xMinYMin meet" x="306" y="-200"/>
<text text-anchor="start" x="321" y="-191.2" font-family="Helvetica,sans-Serif" font-size="11.00">cof_productclass_id</text>
<polygon fill="none" stroke="black" points="301,-161 301,-183 567,-183 567,-161 301,-161"/>
<image xlink:href="../../images/foreignKeys.png" width="11px" height="12px" preserveAspectRatio="xMinYMin meet" x="306" y="-178"/>
<text text-anchor="start" x="321" y="-169.2" font-family="Helvetica,sans-Serif" font-size="11.00">cof_productgroup_id</text>
<polygon fill="none" stroke="black" points="301,-139 301,-161 567,-161 567,-139 301,-139"/>
<image xlink:href="../../images/foreignKeys.png" width="11px" height="12px" preserveAspectRatio="xMinYMin meet" x="306" y="-156"/>
<text text-anchor="start" x="321" y="-147.2" font-family="Helvetica,sans-Serif" font-size="11.00">cof_nbs_id</text>
<polygon fill="none" stroke="black" points="301,-117 301,-139 567,-139 567,-117 301,-117"/>
<image xlink:href="../../images/foreignKeys.png" width="11px" height="12px" preserveAspectRatio="xMinYMin meet" x="306" y="-134"/>
<text text-anchor="start" x="321" y="-125.2" font-family="Helvetica,sans-Serif" font-size="11.00">cof_grupofornecedor_id</text>
<polygon fill="none" stroke="black" points="301,-95 301,-117 567,-117 567,-95 301,-95"/>
<image xlink:href="../../images/foreignKeys.png" width="11px" height="12px" preserveAspectRatio="xMinYMin meet" x="306" y="-112"/>
<text text-anchor="start" x="321" y="-103.2" font-family="Helvetica,sans-Serif" font-size="11.00">cof_gruposeparacao_id</text>
<polygon fill="none" stroke="black" points="301,-73 301,-95 567,-95 567,-73 301,-73"/>
<image xlink:href="../../images/foreignKeys.png" width="11px" height="12px" preserveAspectRatio="xMinYMin meet" x="306" y="-90"/>
<text text-anchor="start" x="321" y="-81.2" font-family="Helvetica,sans-Serif" font-size="11.00">cof_servicoatrelado_id</text>
<polygon fill="none" stroke="black" points="301,-55 301,-73 567,-73 567,-55 301,-55"/>
<text text-anchor="start" x="304" y="-61.2" font-family="Helvetica,sans-Serif" font-size="11.00">...</text>
<polygon fill="#ffffff" stroke="transparent" points="301,-37 301,-55 567,-55 567,-37 301,-37"/>
<polygon fill="none" stroke="black" points="301,-37 301,-55 567,-55 567,-37 301,-37"/>
<polygon fill="#ffffff" stroke="transparent" points="302,-38 302,-54 386,-54 386,-38 302,-38"/>
<text text-anchor="start" x="304" y="-43.2" font-family="Helvetica,sans-Serif" font-size="11.00">&lt; 24</text>
<polygon fill="#ffffff" stroke="transparent" points="386,-38 386,-54 476,-54 476,-38 386,-38"/>
<text text-anchor="start" x="417" y="-43.2" font-family="Helvetica,sans-Serif" font-size="11.00">1 row</text>
<polygon fill="#ffffff" stroke="transparent" points="476,-38 476,-54 566,-54 566,-38 476,-38"/>
<text text-anchor="start" x="536" y="-43.2" font-family="Helvetica,sans-Serif" font-size="11.00">187 &gt;</text>
<polygon fill="black" stroke="black" points="386,-38 386,-54 386,-54 386,-38 386,-38"/>
<polygon fill="black" stroke="black" points="476,-38 476,-54 476,-54 476,-38 476,-38"/>
</a>
</g>
</g>
<!-- cof_fci&#45;&gt;m_product -->
<g id="edge2" class="edge">
<title>cof_fci:w&#45;&gt;m_product:e</title>
<path fill="none" stroke="black" d="M603.07,-774.29C584.02,-757.29 603.18,-700 568,-700"/>
<polygon fill="black" stroke="black" points="609.42,-776.44 615.85,-782.41 613.21,-777.72 617,-779 617,-779 617,-779 613.21,-777.72 618.15,-775.59 609.42,-776.44 609.42,-776.44"/>
<ellipse fill="none" stroke="black" cx="606.39" cy="-775.42" rx="3.2" ry="3.2"/>
</g>
<!-- m_product&#45;&gt;m_product_category -->
<g id="edge5" class="edge">
<title>m_product:w&#45;&gt;m_product_category:e</title>
<path fill="none" stroke="black" d="M285.94,-505.4C252.87,-525.59 307.31,-629 253,-629"/>
<polygon fill="black" stroke="black" points="292.22,-503.88 300.85,-505.5 296.11,-502.94 300,-502 300,-502 300,-502 296.11,-502.94 299.15,-498.5 292.22,-503.88 292.22,-503.88"/>
<ellipse fill="none" stroke="black" cx="289.11" cy="-504.63" rx="3.2" ry="3.2"/>
</g>
<!-- cof_fciline -->
<g id="node4" class="node">
<title>cof_fciline</title>
<g id="a_node4"><a xlink:href="../../tables/cof_fciline.html" xlink:title="cof_fciline" target="_top">
<polygon fill="#ffffff" stroke="transparent" points="941,-649 941,-883 1154,-883 1154,-649 941,-649"/>
<polygon fill="#f5f5f5" stroke="transparent" points="941.5,-861 941.5,-883 1154.5,-883 1154.5,-861 941.5,-861"/>
<polygon fill="none" stroke="black" points="941.5,-861 941.5,-883 1154.5,-883 1154.5,-861 941.5,-861"/>
<text text-anchor="start" x="946.5" y="-870.2" font-family="Helvetica,sans-Serif" font-weight="bold" font-size="11.00">cof_fciline</text>
<text text-anchor="start" x="1119.5" y="-869.2" font-family="Helvetica,sans-Serif" font-size="11.00">[table]</text>
<polygon fill="none" stroke="black" points="941.5,-839 941.5,-861 1154.5,-861 1154.5,-839 941.5,-839"/>
<image xlink:href="../../images/primaryKeys.png" width="11px" height="12px" preserveAspectRatio="xMinYMin meet" x="946.5" y="-856"/>
<text text-anchor="start" x="961.5" y="-847.2" font-family="Helvetica,sans-Serif" font-size="11.00">cof_fciline_id</text>
<polygon fill="#ffffff" stroke="transparent" points="941.5,-817 941.5,-839 1154.5,-839 1154.5,-817 941.5,-817"/>
<polygon fill="none" stroke="black" points="941.5,-817 941.5,-839 1154.5,-839 1154.5,-817 941.5,-817"/>
<text text-anchor="start" x="961.5" y="-825.2" font-family="Helvetica,sans-Serif" font-size="11.00">cof_fciline_uu</text>
<polygon fill="none" stroke="black" points="941.5,-795 941.5,-817 1154.5,-817 1154.5,-795 941.5,-795"/>
<image xlink:href="../../images/foreignKeys.png" width="11px" height="12px" preserveAspectRatio="xMinYMin meet" x="946.5" y="-812"/>
<text text-anchor="start" x="961.5" y="-803.2" font-family="Helvetica,sans-Serif" font-size="11.00">lbr_ncm_id</text>
<polygon fill="none" stroke="black" points="941.5,-773 941.5,-795 1154.5,-795 1154.5,-773 941.5,-773"/>
<image xlink:href="../../images/foreignKeys.png" width="11px" height="12px" preserveAspectRatio="xMinYMin meet" x="946.5" y="-790"/>
<text text-anchor="start" x="961.5" y="-781.2" font-family="Helvetica,sans-Serif" font-size="11.00">cof_fci_id</text>
<polygon fill="none" stroke="black" points="941.5,-751 941.5,-773 1154.5,-773 1154.5,-751 941.5,-751"/>
<image xlink:href="../../images/foreignKeys.png" width="11px" height="12px" preserveAspectRatio="xMinYMin meet" x="946.5" y="-768"/>
<text text-anchor="start" x="961.5" y="-759.2" font-family="Helvetica,sans-Serif" font-size="11.00">c_uom_id</text>
<polygon fill="none" stroke="black" points="941.5,-729 941.5,-751 1154.5,-751 1154.5,-729 941.5,-729"/>
<image xlink:href="../../images/foreignKeys.png" width="11px" height="12px" preserveAspectRatio="xMinYMin meet" x="946.5" y="-746"/>
<text text-anchor="start" x="961.5" y="-737.2" font-family="Helvetica,sans-Serif" font-size="11.00">m_product_id</text>
<polygon fill="none" stroke="black" points="941.5,-707 941.5,-729 1154.5,-729 1154.5,-707 941.5,-707"/>
<image xlink:href="../../images/foreignKeys.png" width="11px" height="12px" preserveAspectRatio="xMinYMin meet" x="946.5" y="-724"/>
<text text-anchor="start" x="961.5" y="-715.2" font-family="Helvetica,sans-Serif" font-size="11.00">lbr_productcategory_id</text>
<polygon fill="none" stroke="black" points="941.5,-685 941.5,-707 1154.5,-707 1154.5,-685 941.5,-685"/>
<image xlink:href="../../images/foreignKeys.png" width="11px" height="12px" preserveAspectRatio="xMinYMin meet" x="946.5" y="-702"/>
<text text-anchor="start" x="961.5" y="-693.2" font-family="Helvetica,sans-Serif" font-size="11.00">lbr_fiscalgroup_product_id</text>
<polygon fill="none" stroke="black" points="941.5,-667 941.5,-685 1154.5,-685 1154.5,-667 941.5,-667"/>
<text text-anchor="start" x="944.5" y="-673.2" font-family="Helvetica,sans-Serif" font-size="11.00">...</text>
<polygon fill="#ffffff" stroke="transparent" points="941.5,-649 941.5,-667 1154.5,-667 1154.5,-649 941.5,-649"/>
<polygon fill="none" stroke="black" points="941.5,-649 941.5,-667 1154.5,-667 1154.5,-649 941.5,-649"/>
<polygon fill="#ffffff" stroke="transparent" points="942.5,-650 942.5,-666 1016.5,-666 1016.5,-650 942.5,-650"/>
<text text-anchor="start" x="944.5" y="-655.2" font-family="Helvetica,sans-Serif" font-size="11.00">&lt; 6</text>
<polygon fill="#ffffff" stroke="transparent" points="1016.5,-650 1016.5,-666 1080.5,-666 1080.5,-650 1016.5,-650"/>
<text text-anchor="start" x="1045" y="-655.2" font-family="Helvetica,sans-Serif" font-size="11.00"> &#160;</text>
<polygon fill="#ffffff" stroke="transparent" points="1080.5,-650 1080.5,-666 1153.5,-666 1153.5,-650 1080.5,-650"/>
<text text-anchor="start" x="1135.5" y="-655.2" font-family="Helvetica,sans-Serif" font-size="11.00">1 &gt;</text>
<polygon fill="black" stroke="black" points="1016.5,-650 1016.5,-666 1016.5,-666 1016.5,-650 1016.5,-650"/>
<polygon fill="black" stroke="black" points="1080.5,-650 1080.5,-666 1080.5,-666 1080.5,-650 1080.5,-650"/>
</a>
</g>
</g>
<!-- cof_fciline&#45;&gt;cof_fci -->
<g id="edge3" class="edge">
<title>cof_fciline:w&#45;&gt;cof_fci:e</title>
<path fill="none" stroke="black" d="M926.1,-785.99C858.27,-807.67 983.5,-999 891,-999"/>
<polygon fill="black" stroke="black" points="932.58,-785.1 940.99,-787.57 936.54,-784.55 940.5,-784 940.5,-784 940.5,-784 936.54,-784.55 940.01,-780.43 932.58,-785.1 932.58,-785.1"/>
<ellipse fill="none" stroke="black" cx="929.41" cy="-785.53" rx="3.2" ry="3.2"/>
</g>
<!-- cof_fciline&#45;&gt;m_product -->
<g id="edge4" class="edge">
<title>cof_fciline:w&#45;&gt;m_product:e</title>
<path fill="none" stroke="black" d="M925.87,-738.38C864.11,-722.51 965.82,-593.83 900,-540 799.54,-457.84 710.29,-460.13 608,-540 550.22,-585.11 641.3,-700 568,-700"/>
<polygon fill="black" stroke="black" points="932.55,-739.12 940.1,-743.58 936.52,-739.56 940.5,-740 940.5,-740 940.5,-740 936.52,-739.56 940.9,-736.42 932.55,-739.12 932.55,-739.12"/>
<ellipse fill="none" stroke="black" cx="929.37" cy="-738.77" rx="3.2" ry="3.2"/>
</g>
</g>
</svg>
