<?xml version="1.0" encoding="UTF-8" standalone="no"?>
<!DOCTYPE svg PUBLIC "-//W3C//DTD SVG 1.1//EN"
 "http://www.w3.org/Graphics/SVG/1.1/DTD/svg11.dtd">
<!-- Generated by graphviz version 2.43.0 (0)
 -->
<!-- Title: oneDegreeRelationshipsDiagram Pages: 1 -->
<svg width="610pt" height="1330pt"
 viewBox="0.00 0.00 610.00 1330.00" xmlns="http://www.w3.org/2000/svg" xmlns:xlink="http://www.w3.org/1999/xlink">
<g id="graph0" class="graph" transform="scale(1 1) rotate(0) translate(4 1326)">
<title>oneDegreeRelationshipsDiagram</title>
<polygon fill="#ffffff" stroke="transparent" points="-4,4 -4,-1326 606,-1326 606,4 -4,4"/>
<text text-anchor="middle" x="71.5" y="-7.2" font-family="Helvetica,sans-Serif" font-size="11.00">Generated by SchemaSpy</text>
<!-- cte_infcarga_infq -->
<g id="node1" class="node">
<title>cte_infcarga_infq</title>
<g id="a_node1"><a xlink:href="../../tables/cte_infcarga_infq.html" xlink:title="cte_infcarga_infq" target="_top">
<polygon fill="#ffffff" stroke="transparent" points="337,-686 337,-1038 594,-1038 594,-686 337,-686"/>
<polygon fill="#f5f5f5" stroke="transparent" points="339.5,-1014 339.5,-1036 592.5,-1036 592.5,-1014 339.5,-1014"/>
<polygon fill="none" stroke="black" points="339.5,-1014 339.5,-1036 592.5,-1036 592.5,-1014 339.5,-1014"/>
<text text-anchor="start" x="344.5" y="-1023.2" font-family="Helvetica,sans-Serif" font-weight="bold" font-size="11.00">cte_infcarga_infq</text>
<text text-anchor="start" x="557.5" y="-1022.2" font-family="Helvetica,sans-Serif" font-size="11.00">[table]</text>
<polygon fill="none" stroke="black" points="339.5,-992 339.5,-1014 509.5,-1014 509.5,-992 339.5,-992"/>
<image xlink:href="../../images/primaryKeys.png" width="11px" height="12px" preserveAspectRatio="xMinYMin meet" x="344.5" y="-1009"/>
<text text-anchor="start" x="359.5" y="-1000.2" font-family="Helvetica,sans-Serif" font-size="11.00">cte_infcarga_infq_id</text>
<polygon fill="none" stroke="black" points="509.5,-992 509.5,-1014 592.5,-1014 592.5,-992 509.5,-992"/>
<text text-anchor="start" x="512.5" y="-1000.2" font-family="Helvetica,sans-Serif" font-size="11.00">numeric[10]</text>
<polygon fill="#ffffff" stroke="transparent" points="339.5,-970 339.5,-992 509.5,-992 509.5,-970 339.5,-970"/>
<polygon fill="none" stroke="black" points="339.5,-970 339.5,-992 509.5,-992 509.5,-970 339.5,-970"/>
<text text-anchor="start" x="359.5" y="-978.2" font-family="Helvetica,sans-Serif" font-size="11.00">cte_infcarga_infq_uu</text>
<polygon fill="none" stroke="black" points="509.5,-970 509.5,-992 592.5,-992 592.5,-970 509.5,-970"/>
<text text-anchor="start" x="512.5" y="-978.2" font-family="Helvetica,sans-Serif" font-size="11.00">varchar[36]</text>
<polygon fill="none" stroke="black" points="339.5,-948 339.5,-970 509.5,-970 509.5,-948 339.5,-948"/>
<text text-anchor="start" x="359.5" y="-956.2" font-family="Helvetica,sans-Serif" font-size="11.00">ad_client_id</text>
<polygon fill="none" stroke="black" points="509.5,-948 509.5,-970 592.5,-970 592.5,-948 509.5,-948"/>
<text text-anchor="start" x="512.5" y="-956.2" font-family="Helvetica,sans-Serif" font-size="11.00">numeric[10]</text>
<polygon fill="none" stroke="black" points="339.5,-926 339.5,-948 509.5,-948 509.5,-926 339.5,-926"/>
<text text-anchor="start" x="359.5" y="-934.2" font-family="Helvetica,sans-Serif" font-size="11.00">ad_org_id</text>
<polygon fill="none" stroke="black" points="509.5,-926 509.5,-948 592.5,-948 592.5,-926 509.5,-926"/>
<text text-anchor="start" x="512.5" y="-934.2" font-family="Helvetica,sans-Serif" font-size="11.00">numeric[10]</text>
<polygon fill="none" stroke="black" points="339.5,-904 339.5,-926 509.5,-926 509.5,-904 339.5,-904"/>
<text text-anchor="start" x="359.5" y="-912.2" font-family="Helvetica,sans-Serif" font-size="11.00">isactive</text>
<polygon fill="none" stroke="black" points="509.5,-904 509.5,-926 592.5,-926 592.5,-904 509.5,-904"/>
<text text-anchor="start" x="512.5" y="-912.2" font-family="Helvetica,sans-Serif" font-size="11.00">bpchar[1]</text>
<polygon fill="none" stroke="black" points="339.5,-882 339.5,-904 509.5,-904 509.5,-882 339.5,-882"/>
<text text-anchor="start" x="359.5" y="-890.2" font-family="Helvetica,sans-Serif" font-size="11.00">created</text>
<polygon fill="none" stroke="black" points="509.5,-882 509.5,-904 592.5,-904 592.5,-882 509.5,-882"/>
<text text-anchor="start" x="512.5" y="-890.2" font-family="Helvetica,sans-Serif" font-size="11.00">timestamp[29,6]</text>
<polygon fill="none" stroke="black" points="339.5,-860 339.5,-882 509.5,-882 509.5,-860 339.5,-860"/>
<text text-anchor="start" x="359.5" y="-868.2" font-family="Helvetica,sans-Serif" font-size="11.00">createdby</text>
<polygon fill="none" stroke="black" points="509.5,-860 509.5,-882 592.5,-882 592.5,-860 509.5,-860"/>
<text text-anchor="start" x="512.5" y="-868.2" font-family="Helvetica,sans-Serif" font-size="11.00">numeric[10]</text>
<polygon fill="none" stroke="black" points="339.5,-838 339.5,-860 509.5,-860 509.5,-838 339.5,-838"/>
<text text-anchor="start" x="359.5" y="-846.2" font-family="Helvetica,sans-Serif" font-size="11.00">updated</text>
<polygon fill="none" stroke="black" points="509.5,-838 509.5,-860 592.5,-860 592.5,-838 509.5,-838"/>
<text text-anchor="start" x="512.5" y="-846.2" font-family="Helvetica,sans-Serif" font-size="11.00">timestamp[29,6]</text>
<polygon fill="none" stroke="black" points="339.5,-816 339.5,-838 509.5,-838 509.5,-816 339.5,-816"/>
<text text-anchor="start" x="359.5" y="-824.2" font-family="Helvetica,sans-Serif" font-size="11.00">updatedby</text>
<polygon fill="none" stroke="black" points="509.5,-816 509.5,-838 592.5,-838 592.5,-816 509.5,-816"/>
<text text-anchor="start" x="512.5" y="-824.2" font-family="Helvetica,sans-Serif" font-size="11.00">numeric[10]</text>
<polygon fill="none" stroke="black" points="339.5,-794 339.5,-816 509.5,-816 509.5,-794 339.5,-794"/>
<image xlink:href="../../images/foreignKeys.png" width="11px" height="12px" preserveAspectRatio="xMinYMin meet" x="344.5" y="-811"/>
<text text-anchor="start" x="359.5" y="-802.2" font-family="Helvetica,sans-Serif" font-size="11.00">cte_cte_id</text>
<polygon fill="none" stroke="black" points="509.5,-794 509.5,-816 592.5,-816 592.5,-794 509.5,-794"/>
<text text-anchor="start" x="512.5" y="-802.2" font-family="Helvetica,sans-Serif" font-size="11.00">numeric[10]</text>
<polygon fill="none" stroke="black" points="339.5,-772 339.5,-794 509.5,-794 509.5,-772 339.5,-772"/>
<text text-anchor="start" x="359.5" y="-780.2" font-family="Helvetica,sans-Serif" font-size="11.00">cte_infq_cunid</text>
<polygon fill="none" stroke="black" points="509.5,-772 509.5,-794 592.5,-794 592.5,-772 509.5,-772"/>
<text text-anchor="start" x="512.5" y="-780.2" font-family="Helvetica,sans-Serif" font-size="11.00">varchar[2]</text>
<polygon fill="none" stroke="black" points="339.5,-750 339.5,-772 509.5,-772 509.5,-750 339.5,-750"/>
<text text-anchor="start" x="359.5" y="-758.2" font-family="Helvetica,sans-Serif" font-size="11.00">cte_infq_tpmed</text>
<polygon fill="none" stroke="black" points="509.5,-750 509.5,-772 592.5,-772 592.5,-750 509.5,-750"/>
<text text-anchor="start" x="512.5" y="-758.2" font-family="Helvetica,sans-Serif" font-size="11.00">varchar[20]</text>
<polygon fill="none" stroke="black" points="339.5,-728 339.5,-750 509.5,-750 509.5,-728 339.5,-728"/>
<text text-anchor="start" x="359.5" y="-736.2" font-family="Helvetica,sans-Serif" font-size="11.00">cte_infq_qcarga</text>
<polygon fill="none" stroke="black" points="509.5,-728 509.5,-750 592.5,-750 592.5,-728 509.5,-728"/>
<text text-anchor="start" x="512.5" y="-736.2" font-family="Helvetica,sans-Serif" font-size="11.00">numeric[0]</text>
<polygon fill="none" stroke="black" points="339.5,-706 339.5,-728 509.5,-728 509.5,-706 339.5,-706"/>
<image xlink:href="../../images/foreignKeys.png" width="11px" height="12px" preserveAspectRatio="xMinYMin meet" x="344.5" y="-723"/>
<text text-anchor="start" x="359.5" y="-714.2" font-family="Helvetica,sans-Serif" font-size="11.00">cte_info_id</text>
<polygon fill="none" stroke="black" points="509.5,-706 509.5,-728 592.5,-728 592.5,-706 509.5,-706"/>
<text text-anchor="start" x="512.5" y="-714.2" font-family="Helvetica,sans-Serif" font-size="11.00">numeric[10]</text>
<polygon fill="#ffffff" stroke="transparent" points="339.5,-688 339.5,-706 592.5,-706 592.5,-688 339.5,-688"/>
<polygon fill="none" stroke="black" points="339.5,-688 339.5,-706 592.5,-706 592.5,-688 339.5,-688"/>
<polygon fill="#ffffff" stroke="transparent" points="340.5,-689 340.5,-705 427.5,-705 427.5,-689 340.5,-689"/>
<text text-anchor="start" x="342.5" y="-694.2" font-family="Helvetica,sans-Serif" font-size="11.00">&lt; 2</text>
<polygon fill="#ffffff" stroke="transparent" points="427.5,-689 427.5,-705 505.5,-705 505.5,-689 427.5,-689"/>
<text text-anchor="start" x="463" y="-694.2" font-family="Helvetica,sans-Serif" font-size="11.00"> &#160;</text>
<polygon fill="#ffffff" stroke="transparent" points="505.5,-689 505.5,-705 591.5,-705 591.5,-689 505.5,-689"/>
<text text-anchor="start" x="573.5" y="-694.2" font-family="Helvetica,sans-Serif" font-size="11.00">0 &gt;</text>
<polygon fill="black" stroke="black" points="427.5,-689 427.5,-705 427.5,-705 427.5,-689 427.5,-689"/>
<polygon fill="black" stroke="black" points="505.5,-689 505.5,-705 505.5,-705 505.5,-689 505.5,-689"/>
<polygon fill="none" stroke="black" stroke-width="2" points="338,-687 338,-1037 593,-1037 593,-687 338,-687"/>
</a>
</g>
</g>
<!-- cte_cte -->
<g id="node2" class="node">
<title>cte_cte</title>
<g id="a_node2"><a xlink:href="../../tables/cte_cte.html" xlink:title="cte_cte" target="_top">
<polygon fill="#ffffff" stroke="transparent" points="8,-292 8,-1318 288,-1318 288,-292 8,-292"/>
<polygon fill="#f5f5f5" stroke="transparent" points="8,-1296 8,-1318 288,-1318 288,-1296 8,-1296"/>
<polygon fill="none" stroke="black" points="8,-1296 8,-1318 288,-1318 288,-1296 8,-1296"/>
<text text-anchor="start" x="13" y="-1305.2" font-family="Helvetica,sans-Serif" font-weight="bold" font-size="11.00">cte_cte</text>
<text text-anchor="start" x="253" y="-1304.2" font-family="Helvetica,sans-Serif" font-size="11.00">[table]</text>
<polygon fill="none" stroke="black" points="8,-1274 8,-1296 288,-1296 288,-1274 8,-1274"/>
<image xlink:href="../../images/primaryKeys.png" width="11px" height="12px" preserveAspectRatio="xMinYMin meet" x="13" y="-1291"/>
<text text-anchor="start" x="28" y="-1282.2" font-family="Helvetica,sans-Serif" font-size="11.00">cte_cte_id</text>
<polygon fill="#ffffff" stroke="transparent" points="8,-1252 8,-1274 288,-1274 288,-1252 8,-1252"/>
<polygon fill="none" stroke="black" points="8,-1252 8,-1274 288,-1274 288,-1252 8,-1252"/>
<text text-anchor="start" x="28" y="-1260.2" font-family="Helvetica,sans-Serif" font-size="11.00">cte_cte_uu</text>
<polygon fill="none" stroke="black" points="8,-1230 8,-1252 288,-1252 288,-1230 8,-1230"/>
<image xlink:href="../../images/foreignKeys.png" width="11px" height="12px" preserveAspectRatio="xMinYMin meet" x="13" y="-1247"/>
<text text-anchor="start" x="28" y="-1238.2" font-family="Helvetica,sans-Serif" font-size="11.00">cte_lote_id</text>
<polygon fill="#ffffff" stroke="transparent" points="8,-1208 8,-1230 288,-1230 288,-1208 8,-1208"/>
<polygon fill="none" stroke="black" points="8,-1208 8,-1230 288,-1230 288,-1208 8,-1208"/>
<image xlink:href="../../images/foreignKeys.png" width="11px" height="12px" preserveAspectRatio="xMinYMin meet" x="13" y="-1225"/>
<text text-anchor="start" x="28" y="-1216.2" font-family="Helvetica,sans-Serif" font-size="11.00">c_order_id</text>
<polygon fill="#ffffff" stroke="transparent" points="8,-1186 8,-1208 288,-1208 288,-1186 8,-1186"/>
<polygon fill="none" stroke="black" points="8,-1186 8,-1208 288,-1208 288,-1186 8,-1186"/>
<image xlink:href="../../images/foreignKeys.png" width="11px" height="12px" preserveAspectRatio="xMinYMin meet" x="13" y="-1203"/>
<text text-anchor="start" x="28" y="-1194.2" font-family="Helvetica,sans-Serif" font-size="11.00">c_invoice_id</text>
<polygon fill="none" stroke="black" points="8,-1164 8,-1186 288,-1186 288,-1164 8,-1164"/>
<image xlink:href="../../images/foreignKeys.png" width="11px" height="12px" preserveAspectRatio="xMinYMin meet" x="13" y="-1181"/>
<text text-anchor="start" x="28" y="-1172.2" font-family="Helvetica,sans-Serif" font-size="11.00">c_doctype_id</text>
<polygon fill="none" stroke="black" points="8,-1142 8,-1164 288,-1164 288,-1142 8,-1142"/>
<image xlink:href="../../images/foreignKeys.png" width="11px" height="12px" preserveAspectRatio="xMinYMin meet" x="13" y="-1159"/>
<text text-anchor="start" x="28" y="-1150.2" font-family="Helvetica,sans-Serif" font-size="11.00">c_doctypetarget_id</text>
<polygon fill="none" stroke="black" points="8,-1120 8,-1142 288,-1142 288,-1120 8,-1120"/>
<image xlink:href="../../images/foreignKeys.png" width="11px" height="12px" preserveAspectRatio="xMinYMin meet" x="13" y="-1137"/>
<text text-anchor="start" x="28" y="-1128.2" font-family="Helvetica,sans-Serif" font-size="11.00">cte_bptomador_id</text>
<polygon fill="none" stroke="black" points="8,-1098 8,-1120 288,-1120 288,-1098 8,-1098"/>
<image xlink:href="../../images/foreignKeys.png" width="11px" height="12px" preserveAspectRatio="xMinYMin meet" x="13" y="-1115"/>
<text text-anchor="start" x="28" y="-1106.2" font-family="Helvetica,sans-Serif" font-size="11.00">cte_bpdestinatario_id</text>
<polygon fill="none" stroke="black" points="8,-1076 8,-1098 288,-1098 288,-1076 8,-1076"/>
<image xlink:href="../../images/foreignKeys.png" width="11px" height="12px" preserveAspectRatio="xMinYMin meet" x="13" y="-1093"/>
<text text-anchor="start" x="28" y="-1084.2" font-family="Helvetica,sans-Serif" font-size="11.00">cte_bpremetente_id</text>
<polygon fill="none" stroke="black" points="8,-1054 8,-1076 288,-1076 288,-1054 8,-1054"/>
<image xlink:href="../../images/foreignKeys.png" width="11px" height="12px" preserveAspectRatio="xMinYMin meet" x="13" y="-1071"/>
<text text-anchor="start" x="28" y="-1062.2" font-family="Helvetica,sans-Serif" font-size="11.00">cte_bpdestinatarioloc_id</text>
<polygon fill="none" stroke="black" points="8,-1032 8,-1054 288,-1054 288,-1032 8,-1032"/>
<image xlink:href="../../images/foreignKeys.png" width="11px" height="12px" preserveAspectRatio="xMinYMin meet" x="13" y="-1049"/>
<text text-anchor="start" x="28" y="-1040.2" font-family="Helvetica,sans-Serif" font-size="11.00">cte_bpremetenteloc_id</text>
<polygon fill="none" stroke="black" points="8,-1010 8,-1032 288,-1032 288,-1010 8,-1010"/>
<image xlink:href="../../images/foreignKeys.png" width="11px" height="12px" preserveAspectRatio="xMinYMin meet" x="13" y="-1027"/>
<text text-anchor="start" x="28" y="-1018.2" font-family="Helvetica,sans-Serif" font-size="11.00">cte_bptomadorloc_id</text>
<polygon fill="none" stroke="black" points="8,-988 8,-1010 288,-1010 288,-988 8,-988"/>
<image xlink:href="../../images/foreignKeys.png" width="11px" height="12px" preserveAspectRatio="xMinYMin meet" x="13" y="-1005"/>
<text text-anchor="start" x="28" y="-996.2" font-family="Helvetica,sans-Serif" font-size="11.00">cte_cfop_id</text>
<polygon fill="none" stroke="black" points="8,-966 8,-988 288,-988 288,-966 8,-966"/>
<image xlink:href="../../images/foreignKeys.png" width="11px" height="12px" preserveAspectRatio="xMinYMin meet" x="13" y="-983"/>
<text text-anchor="start" x="28" y="-974.2" font-family="Helvetica,sans-Serif" font-size="11.00">cte_dest_city_id</text>
<polygon fill="none" stroke="black" points="8,-944 8,-966 288,-966 288,-944 8,-944"/>
<image xlink:href="../../images/foreignKeys.png" width="11px" height="12px" preserveAspectRatio="xMinYMin meet" x="13" y="-961"/>
<text text-anchor="start" x="28" y="-952.2" font-family="Helvetica,sans-Serif" font-size="11.00">cte_dest_country_id</text>
<polygon fill="none" stroke="black" points="8,-922 8,-944 288,-944 288,-922 8,-922"/>
<image xlink:href="../../images/foreignKeys.png" width="11px" height="12px" preserveAspectRatio="xMinYMin meet" x="13" y="-939"/>
<text text-anchor="start" x="28" y="-930.2" font-family="Helvetica,sans-Serif" font-size="11.00">cte_dest_region_id</text>
<polygon fill="none" stroke="black" points="8,-900 8,-922 288,-922 288,-900 8,-900"/>
<image xlink:href="../../images/foreignKeys.png" width="11px" height="12px" preserveAspectRatio="xMinYMin meet" x="13" y="-917"/>
<text text-anchor="start" x="28" y="-908.2" font-family="Helvetica,sans-Serif" font-size="11.00">cte_emit_city_id</text>
<polygon fill="none" stroke="black" points="8,-878 8,-900 288,-900 288,-878 8,-878"/>
<image xlink:href="../../images/foreignKeys.png" width="11px" height="12px" preserveAspectRatio="xMinYMin meet" x="13" y="-895"/>
<text text-anchor="start" x="28" y="-886.2" font-family="Helvetica,sans-Serif" font-size="11.00">cte_emit_country_id</text>
<polygon fill="none" stroke="black" points="8,-856 8,-878 288,-878 288,-856 8,-856"/>
<image xlink:href="../../images/foreignKeys.png" width="11px" height="12px" preserveAspectRatio="xMinYMin meet" x="13" y="-873"/>
<text text-anchor="start" x="28" y="-864.2" font-family="Helvetica,sans-Serif" font-size="11.00">cte_emit_region_id</text>
<polygon fill="none" stroke="black" points="8,-834 8,-856 288,-856 288,-834 8,-834"/>
<image xlink:href="../../images/foreignKeys.png" width="11px" height="12px" preserveAspectRatio="xMinYMin meet" x="13" y="-851"/>
<text text-anchor="start" x="28" y="-842.2" font-family="Helvetica,sans-Serif" font-size="11.00">cte_rem_city_id</text>
<polygon fill="none" stroke="black" points="8,-812 8,-834 288,-834 288,-812 8,-812"/>
<image xlink:href="../../images/foreignKeys.png" width="11px" height="12px" preserveAspectRatio="xMinYMin meet" x="13" y="-829"/>
<text text-anchor="start" x="28" y="-820.2" font-family="Helvetica,sans-Serif" font-size="11.00">cte_rem_country_id</text>
<polygon fill="none" stroke="black" points="8,-790 8,-812 288,-812 288,-790 8,-790"/>
<image xlink:href="../../images/foreignKeys.png" width="11px" height="12px" preserveAspectRatio="xMinYMin meet" x="13" y="-807"/>
<text text-anchor="start" x="28" y="-798.2" font-family="Helvetica,sans-Serif" font-size="11.00">cte_rem_region_id</text>
<polygon fill="none" stroke="black" points="8,-768 8,-790 288,-790 288,-768 8,-768"/>
<image xlink:href="../../images/foreignKeys.png" width="11px" height="12px" preserveAspectRatio="xMinYMin meet" x="13" y="-785"/>
<text text-anchor="start" x="28" y="-776.2" font-family="Helvetica,sans-Serif" font-size="11.00">cte_toma_city_id</text>
<polygon fill="none" stroke="black" points="8,-746 8,-768 288,-768 288,-746 8,-746"/>
<image xlink:href="../../images/foreignKeys.png" width="11px" height="12px" preserveAspectRatio="xMinYMin meet" x="13" y="-763"/>
<text text-anchor="start" x="28" y="-754.2" font-family="Helvetica,sans-Serif" font-size="11.00">cte_toma_country_id</text>
<polygon fill="none" stroke="black" points="8,-724 8,-746 288,-746 288,-724 8,-724"/>
<image xlink:href="../../images/foreignKeys.png" width="11px" height="12px" preserveAspectRatio="xMinYMin meet" x="13" y="-741"/>
<text text-anchor="start" x="28" y="-732.2" font-family="Helvetica,sans-Serif" font-size="11.00">cte_toma_region_id</text>
<polygon fill="none" stroke="black" points="8,-702 8,-724 288,-724 288,-702 8,-702"/>
<image xlink:href="../../images/foreignKeys.png" width="11px" height="12px" preserveAspectRatio="xMinYMin meet" x="13" y="-719"/>
<text text-anchor="start" x="28" y="-710.2" font-family="Helvetica,sans-Serif" font-size="11.00">c_currency_id</text>
<polygon fill="none" stroke="black" points="8,-680 8,-702 288,-702 288,-680 8,-680"/>
<image xlink:href="../../images/foreignKeys.png" width="11px" height="12px" preserveAspectRatio="xMinYMin meet" x="13" y="-697"/>
<text text-anchor="start" x="28" y="-688.2" font-family="Helvetica,sans-Serif" font-size="11.00">m_pricelist_id</text>
<polygon fill="none" stroke="black" points="8,-658 8,-680 288,-680 288,-658 8,-658"/>
<image xlink:href="../../images/foreignKeys.png" width="11px" height="12px" preserveAspectRatio="xMinYMin meet" x="13" y="-675"/>
<text text-anchor="start" x="28" y="-666.2" font-family="Helvetica,sans-Serif" font-size="11.00">cte_bprecebedor_id</text>
<polygon fill="none" stroke="black" points="8,-636 8,-658 288,-658 288,-636 8,-636"/>
<image xlink:href="../../images/foreignKeys.png" width="11px" height="12px" preserveAspectRatio="xMinYMin meet" x="13" y="-653"/>
<text text-anchor="start" x="28" y="-644.2" font-family="Helvetica,sans-Serif" font-size="11.00">cte_bpexpedidor_id</text>
<polygon fill="none" stroke="black" points="8,-614 8,-636 288,-636 288,-614 8,-614"/>
<image xlink:href="../../images/foreignKeys.png" width="11px" height="12px" preserveAspectRatio="xMinYMin meet" x="13" y="-631"/>
<text text-anchor="start" x="28" y="-622.2" font-family="Helvetica,sans-Serif" font-size="11.00">cte_bpexpedidorloc_id</text>
<polygon fill="none" stroke="black" points="8,-592 8,-614 288,-614 288,-592 8,-592"/>
<image xlink:href="../../images/foreignKeys.png" width="11px" height="12px" preserveAspectRatio="xMinYMin meet" x="13" y="-609"/>
<text text-anchor="start" x="28" y="-600.2" font-family="Helvetica,sans-Serif" font-size="11.00">cte_bprecebedorloc_id</text>
<polygon fill="none" stroke="black" points="8,-570 8,-592 288,-592 288,-570 8,-570"/>
<image xlink:href="../../images/foreignKeys.png" width="11px" height="12px" preserveAspectRatio="xMinYMin meet" x="13" y="-587"/>
<text text-anchor="start" x="28" y="-578.2" font-family="Helvetica,sans-Serif" font-size="11.00">cte_exped_city_id</text>
<polygon fill="none" stroke="black" points="8,-548 8,-570 288,-570 288,-548 8,-548"/>
<image xlink:href="../../images/foreignKeys.png" width="11px" height="12px" preserveAspectRatio="xMinYMin meet" x="13" y="-565"/>
<text text-anchor="start" x="28" y="-556.2" font-family="Helvetica,sans-Serif" font-size="11.00">cte_receb_city_id</text>
<polygon fill="none" stroke="black" points="8,-526 8,-548 288,-548 288,-526 8,-526"/>
<image xlink:href="../../images/foreignKeys.png" width="11px" height="12px" preserveAspectRatio="xMinYMin meet" x="13" y="-543"/>
<text text-anchor="start" x="28" y="-534.2" font-family="Helvetica,sans-Serif" font-size="11.00">cte_exped_region_id</text>
<polygon fill="none" stroke="black" points="8,-504 8,-526 288,-526 288,-504 8,-504"/>
<image xlink:href="../../images/foreignKeys.png" width="11px" height="12px" preserveAspectRatio="xMinYMin meet" x="13" y="-521"/>
<text text-anchor="start" x="28" y="-512.2" font-family="Helvetica,sans-Serif" font-size="11.00">cte_receb_region_id</text>
<polygon fill="none" stroke="black" points="8,-482 8,-504 288,-504 288,-482 8,-482"/>
<image xlink:href="../../images/foreignKeys.png" width="11px" height="12px" preserveAspectRatio="xMinYMin meet" x="13" y="-499"/>
<text text-anchor="start" x="28" y="-490.2" font-family="Helvetica,sans-Serif" font-size="11.00">cte_receb_country_id</text>
<polygon fill="none" stroke="black" points="8,-460 8,-482 288,-482 288,-460 8,-460"/>
<image xlink:href="../../images/foreignKeys.png" width="11px" height="12px" preserveAspectRatio="xMinYMin meet" x="13" y="-477"/>
<text text-anchor="start" x="28" y="-468.2" font-family="Helvetica,sans-Serif" font-size="11.00">cte_exped_country_id</text>
<polygon fill="none" stroke="black" points="8,-438 8,-460 288,-460 288,-438 8,-438"/>
<image xlink:href="../../images/foreignKeys.png" width="11px" height="12px" preserveAspectRatio="xMinYMin meet" x="13" y="-455"/>
<text text-anchor="start" x="28" y="-446.2" font-family="Helvetica,sans-Serif" font-size="11.00">cof_ufinicio_id</text>
<polygon fill="none" stroke="black" points="8,-416 8,-438 288,-438 288,-416 8,-416"/>
<image xlink:href="../../images/foreignKeys.png" width="11px" height="12px" preserveAspectRatio="xMinYMin meet" x="13" y="-433"/>
<text text-anchor="start" x="28" y="-424.2" font-family="Helvetica,sans-Serif" font-size="11.00">cof_uftermino_id</text>
<polygon fill="none" stroke="black" points="8,-394 8,-416 288,-416 288,-394 8,-394"/>
<image xlink:href="../../images/foreignKeys.png" width="11px" height="12px" preserveAspectRatio="xMinYMin meet" x="13" y="-411"/>
<text text-anchor="start" x="28" y="-402.2" font-family="Helvetica,sans-Serif" font-size="11.00">cof_municipioinicio_id</text>
<polygon fill="none" stroke="black" points="8,-372 8,-394 288,-394 288,-372 8,-372"/>
<image xlink:href="../../images/foreignKeys.png" width="11px" height="12px" preserveAspectRatio="xMinYMin meet" x="13" y="-389"/>
<text text-anchor="start" x="28" y="-380.2" font-family="Helvetica,sans-Serif" font-size="11.00">cof_municipiotermino_id</text>
<polygon fill="none" stroke="black" points="8,-350 8,-372 288,-372 288,-350 8,-350"/>
<image xlink:href="../../images/foreignKeys.png" width="11px" height="12px" preserveAspectRatio="xMinYMin meet" x="13" y="-367"/>
<text text-anchor="start" x="28" y="-358.2" font-family="Helvetica,sans-Serif" font-size="11.00">cte_emit_bpartner_id</text>
<polygon fill="none" stroke="black" points="8,-328 8,-350 288,-350 288,-328 8,-328"/>
<image xlink:href="../../images/foreignKeys.png" width="11px" height="12px" preserveAspectRatio="xMinYMin meet" x="13" y="-345"/>
<text text-anchor="start" x="28" y="-336.2" font-family="Helvetica,sans-Serif" font-size="11.00">cte_emit_location_id</text>
<polygon fill="none" stroke="black" points="8,-310 8,-328 288,-328 288,-310 8,-310"/>
<text text-anchor="start" x="11" y="-316.2" font-family="Helvetica,sans-Serif" font-size="11.00">...</text>
<polygon fill="#ffffff" stroke="transparent" points="8,-292 8,-310 288,-310 288,-292 8,-292"/>
<polygon fill="none" stroke="black" points="8,-292 8,-310 288,-310 288,-292 8,-292"/>
<polygon fill="#ffffff" stroke="transparent" points="9,-293 9,-309 107,-309 107,-293 9,-293"/>
<text text-anchor="start" x="11" y="-298.2" font-family="Helvetica,sans-Serif" font-size="11.00">&lt; 42</text>
<polygon fill="#ffffff" stroke="transparent" points="107,-293 107,-309 190,-309 190,-293 107,-293"/>
<text text-anchor="start" x="145" y="-298.2" font-family="Helvetica,sans-Serif" font-size="11.00"> &#160;</text>
<polygon fill="#ffffff" stroke="transparent" points="190,-293 190,-309 287,-309 287,-293 190,-293"/>
<text text-anchor="start" x="263" y="-298.2" font-family="Helvetica,sans-Serif" font-size="11.00">14 &gt;</text>
<polygon fill="black" stroke="black" points="107,-293 107,-309 107,-309 107,-293 107,-293"/>
<polygon fill="black" stroke="black" points="190,-293 190,-309 190,-309 190,-293 190,-293"/>
</a>
</g>
</g>
<!-- cte_infcarga_infq&#45;&gt;cte_cte -->
<g id="edge1" class="edge">
<title>cte_infcarga_infq:w&#45;&gt;cte_cte:e</title>
<path fill="none" stroke="black" d="M324.11,-805.81C141.85,-827.69 498.33,-1285 289,-1285"/>
<polygon fill="black" stroke="black" points="330.51,-805.45 338.7,-808.59 334.51,-805.23 338.5,-805 338.5,-805 338.5,-805 334.51,-805.23 338.3,-801.41 330.51,-805.45 330.51,-805.45"/>
<ellipse fill="none" stroke="black" cx="327.32" cy="-805.63" rx="3.2" ry="3.2"/>
</g>
<!-- cte_info -->
<g id="node3" class="node">
<title>cte_info</title>
<g id="a_node3"><a xlink:href="../../tables/cte_info.html" xlink:title="cte_info" target="_top">
<polygon fill="#ffffff" stroke="transparent" points="48.5,-37 48.5,-271 247.5,-271 247.5,-37 48.5,-37"/>
<polygon fill="#f5f5f5" stroke="transparent" points="49,-249 49,-271 248,-271 248,-249 49,-249"/>
<polygon fill="none" stroke="black" points="49,-249 49,-271 248,-271 248,-249 49,-249"/>
<text text-anchor="start" x="54" y="-258.2" font-family="Helvetica,sans-Serif" font-weight="bold" font-size="11.00">cte_info</text>
<text text-anchor="start" x="213" y="-257.2" font-family="Helvetica,sans-Serif" font-size="11.00">[table]</text>
<polygon fill="none" stroke="black" points="49,-227 49,-249 248,-249 248,-227 49,-227"/>
<image xlink:href="../../images/primaryKeys.png" width="11px" height="12px" preserveAspectRatio="xMinYMin meet" x="54" y="-244"/>
<text text-anchor="start" x="69" y="-235.2" font-family="Helvetica,sans-Serif" font-size="11.00">cte_info_id</text>
<polygon fill="#ffffff" stroke="transparent" points="49,-205 49,-227 248,-227 248,-205 49,-205"/>
<polygon fill="none" stroke="black" points="49,-205 49,-227 248,-227 248,-205 49,-205"/>
<text text-anchor="start" x="69" y="-213.2" font-family="Helvetica,sans-Serif" font-size="11.00">cte_info_uu</text>
<polygon fill="#ffffff" stroke="transparent" points="49,-183 49,-205 248,-205 248,-183 49,-183"/>
<polygon fill="none" stroke="black" points="49,-183 49,-205 248,-205 248,-183 49,-183"/>
<image xlink:href="../../images/foreignKeys.png" width="11px" height="12px" preserveAspectRatio="xMinYMin meet" x="54" y="-200"/>
<text text-anchor="start" x="69" y="-191.2" font-family="Helvetica,sans-Serif" font-size="11.00">c_order_id</text>
<polygon fill="#ffffff" stroke="transparent" points="49,-161 49,-183 248,-183 248,-161 49,-161"/>
<polygon fill="none" stroke="black" points="49,-161 49,-183 248,-183 248,-161 49,-161"/>
<image xlink:href="../../images/foreignKeys.png" width="11px" height="12px" preserveAspectRatio="xMinYMin meet" x="54" y="-178"/>
<text text-anchor="start" x="69" y="-169.2" font-family="Helvetica,sans-Serif" font-size="11.00">c_invoice_id</text>
<polygon fill="none" stroke="black" points="49,-139 49,-161 248,-161 248,-139 49,-139"/>
<image xlink:href="../../images/foreignKeys.png" width="11px" height="12px" preserveAspectRatio="xMinYMin meet" x="54" y="-156"/>
<text text-anchor="start" x="69" y="-147.2" font-family="Helvetica,sans-Serif" font-size="11.00">cof_ufinicio_id</text>
<polygon fill="none" stroke="black" points="49,-117 49,-139 248,-139 248,-117 49,-117"/>
<image xlink:href="../../images/foreignKeys.png" width="11px" height="12px" preserveAspectRatio="xMinYMin meet" x="54" y="-134"/>
<text text-anchor="start" x="69" y="-125.2" font-family="Helvetica,sans-Serif" font-size="11.00">cof_uftermino_id</text>
<polygon fill="none" stroke="black" points="49,-95 49,-117 248,-117 248,-95 49,-95"/>
<image xlink:href="../../images/foreignKeys.png" width="11px" height="12px" preserveAspectRatio="xMinYMin meet" x="54" y="-112"/>
<text text-anchor="start" x="69" y="-103.2" font-family="Helvetica,sans-Serif" font-size="11.00">cof_municipioinicio_id</text>
<polygon fill="none" stroke="black" points="49,-73 49,-95 248,-95 248,-73 49,-73"/>
<image xlink:href="../../images/foreignKeys.png" width="11px" height="12px" preserveAspectRatio="xMinYMin meet" x="54" y="-90"/>
<text text-anchor="start" x="69" y="-81.2" font-family="Helvetica,sans-Serif" font-size="11.00">cof_municipiotermino_id</text>
<polygon fill="none" stroke="black" points="49,-55 49,-73 248,-73 248,-55 49,-55"/>
<text text-anchor="start" x="52" y="-61.2" font-family="Helvetica,sans-Serif" font-size="11.00">...</text>
<polygon fill="#ffffff" stroke="transparent" points="49,-37 49,-55 248,-55 248,-37 49,-37"/>
<polygon fill="none" stroke="black" points="49,-37 49,-55 248,-55 248,-37 49,-37"/>
<polygon fill="#ffffff" stroke="transparent" points="50,-38 50,-54 119,-54 119,-38 50,-38"/>
<text text-anchor="start" x="52" y="-43.2" font-family="Helvetica,sans-Serif" font-size="11.00">&lt; 6</text>
<polygon fill="#ffffff" stroke="transparent" points="119,-38 119,-54 179,-54 179,-38 119,-38"/>
<text text-anchor="start" x="145.5" y="-43.2" font-family="Helvetica,sans-Serif" font-size="11.00"> &#160;</text>
<polygon fill="#ffffff" stroke="transparent" points="179,-38 179,-54 247,-54 247,-38 179,-38"/>
<text text-anchor="start" x="229" y="-43.2" font-family="Helvetica,sans-Serif" font-size="11.00">4 &gt;</text>
<polygon fill="black" stroke="black" points="119,-38 119,-54 119,-54 119,-38 119,-38"/>
<polygon fill="black" stroke="black" points="179,-38 179,-54 179,-54 179,-38 179,-38"/>
</a>
</g>
</g>
<!-- cte_infcarga_infq&#45;&gt;cte_info -->
<g id="edge2" class="edge">
<title>cte_infcarga_infq:w&#45;&gt;cte_info:e</title>
<path fill="none" stroke="black" d="M327.16,-708.06C294.49,-649.47 315.54,-321.65 296,-282 283.35,-256.33 277.61,-238 249,-238"/>
<polygon fill="black" stroke="black" points="332.22,-712.05 336.27,-719.83 335.36,-714.52 338.5,-717 338.5,-717 338.5,-717 335.36,-714.52 340.73,-714.17 332.22,-712.05 332.22,-712.05"/>
<ellipse fill="none" stroke="black" cx="329.71" cy="-710.06" rx="3.2" ry="3.2"/>
</g>
</g>
</svg>
