<?xml version="1.0" encoding="UTF-8" standalone="no"?>
<!DOCTYPE svg PUBLIC "-//W3C//DTD SVG 1.1//EN"
 "http://www.w3.org/Graphics/SVG/1.1/DTD/svg11.dtd">
<!-- Generated by graphviz version 2.43.0 (0)
 -->
<!-- Title: oneDegreeRelationshipsDiagram Pages: 1 -->
<svg width="812pt" height="636pt"
 viewBox="0.00 0.00 812.00 636.00" xmlns="http://www.w3.org/2000/svg" xmlns:xlink="http://www.w3.org/1999/xlink">
<g id="graph0" class="graph" transform="scale(1 1) rotate(0) translate(4 632)">
<title>oneDegreeRelationshipsDiagram</title>
<polygon fill="#ffffff" stroke="transparent" points="-4,4 -4,-632 808,-632 808,4 -4,4"/>
<text text-anchor="middle" x="71.5" y="-7.2" font-family="Helvetica,sans-Serif" font-size="11.00">Generated by SchemaSpy</text>
<!-- ad_replicationstrategy -->
<g id="node1" class="node">
<title>ad_replicationstrategy</title>
<g id="a_node1"><a xlink:href="../../tables/ad_replicationstrategy.html" xlink:title="ad_replicationstrategy" target="_top">
<polygon fill="#ffffff" stroke="transparent" points="576.5,-434 576.5,-624 787.5,-624 787.5,-434 576.5,-434"/>
<polygon fill="#f5f5f5" stroke="transparent" points="577,-602 577,-624 788,-624 788,-602 577,-602"/>
<polygon fill="none" stroke="black" points="577,-602 577,-624 788,-624 788,-602 577,-602"/>
<text text-anchor="start" x="582" y="-611.2" font-family="Helvetica,sans-Serif" font-weight="bold" font-size="11.00">ad_replicationstrategy</text>
<text text-anchor="start" x="753" y="-610.2" font-family="Helvetica,sans-Serif" font-size="11.00">[table]</text>
<polygon fill="none" stroke="black" points="577,-580 577,-602 788,-602 788,-580 577,-580"/>
<image xlink:href="../../images/primaryKeys.png" width="11px" height="12px" preserveAspectRatio="xMinYMin meet" x="582" y="-597"/>
<text text-anchor="start" x="597" y="-588.2" font-family="Helvetica,sans-Serif" font-size="11.00">ad_replicationstrategy_id</text>
<polygon fill="#ffffff" stroke="transparent" points="577,-558 577,-580 788,-580 788,-558 577,-558"/>
<polygon fill="none" stroke="black" points="577,-558 577,-580 788,-580 788,-558 577,-558"/>
<text text-anchor="start" x="597" y="-566.2" font-family="Helvetica,sans-Serif" font-size="11.00">ad_client_id</text>
<polygon fill="none" stroke="black" points="577,-536 577,-558 788,-558 788,-536 577,-536"/>
<image xlink:href="../../images/foreignKeys.png" width="11px" height="12px" preserveAspectRatio="xMinYMin meet" x="582" y="-553"/>
<text text-anchor="start" x="597" y="-544.2" font-family="Helvetica,sans-Serif" font-size="11.00">entitytype</text>
<polygon fill="none" stroke="black" points="577,-514 577,-536 788,-536 788,-514 577,-514"/>
<image xlink:href="../../images/foreignKeys.png" width="11px" height="12px" preserveAspectRatio="xMinYMin meet" x="582" y="-531"/>
<text text-anchor="start" x="597" y="-522.2" font-family="Helvetica,sans-Serif" font-size="11.00">exp_processor_id</text>
<polygon fill="#ffffff" stroke="transparent" points="577,-492 577,-514 788,-514 788,-492 577,-492"/>
<polygon fill="none" stroke="black" points="577,-492 577,-514 788,-514 788,-492 577,-492"/>
<text text-anchor="start" x="597" y="-500.2" font-family="Helvetica,sans-Serif" font-size="11.00">value</text>
<polygon fill="#ffffff" stroke="transparent" points="577,-470 577,-492 788,-492 788,-470 577,-470"/>
<polygon fill="none" stroke="black" points="577,-470 577,-492 788,-492 788,-470 577,-470"/>
<text text-anchor="start" x="597" y="-478.2" font-family="Helvetica,sans-Serif" font-size="11.00">ad_replicationstrategy_uu</text>
<polygon fill="none" stroke="black" points="577,-452 577,-470 788,-470 788,-452 577,-452"/>
<text text-anchor="start" x="580" y="-458.2" font-family="Helvetica,sans-Serif" font-size="11.00">...</text>
<polygon fill="#ffffff" stroke="transparent" points="577,-434 577,-452 788,-452 788,-434 577,-434"/>
<polygon fill="none" stroke="black" points="577,-434 577,-452 788,-452 788,-434 577,-434"/>
<polygon fill="#ffffff" stroke="transparent" points="578,-435 578,-451 644,-451 644,-435 578,-435"/>
<text text-anchor="start" x="580" y="-440.2" font-family="Helvetica,sans-Serif" font-size="11.00">&lt; 2</text>
<polygon fill="#ffffff" stroke="transparent" points="644,-435 644,-451 722,-451 722,-435 644,-435"/>
<text text-anchor="start" x="669" y="-440.2" font-family="Helvetica,sans-Serif" font-size="11.00">1 row</text>
<polygon fill="#ffffff" stroke="transparent" points="722,-435 722,-451 787,-451 787,-435 722,-435"/>
<text text-anchor="start" x="769" y="-440.2" font-family="Helvetica,sans-Serif" font-size="11.00">4 &gt;</text>
<polygon fill="black" stroke="black" points="644,-435 644,-451 644,-451 644,-435 644,-435"/>
<polygon fill="black" stroke="black" points="722,-435 722,-451 722,-451 722,-435 722,-435"/>
</a>
</g>
</g>
<!-- exp_processor -->
<g id="node2" class="node">
<title>exp_processor</title>
<g id="a_node2"><a xlink:href="../../tables/exp_processor.html" xlink:title="exp_processor" target="_top">
<polygon fill="#ffffff" stroke="transparent" points="247,-37 247,-477 519,-477 519,-37 247,-37"/>
<polygon fill="#f5f5f5" stroke="transparent" points="249,-453 249,-475 517,-475 517,-453 249,-453"/>
<polygon fill="none" stroke="black" points="249,-453 249,-475 517,-475 517,-453 249,-453"/>
<text text-anchor="start" x="254" y="-462.2" font-family="Helvetica,sans-Serif" font-weight="bold" font-size="11.00">exp_processor</text>
<text text-anchor="start" x="482" y="-461.2" font-family="Helvetica,sans-Serif" font-size="11.00">[table]</text>
<polygon fill="none" stroke="black" points="249,-431 249,-453 434,-453 434,-431 249,-431"/>
<image xlink:href="../../images/primaryKeys.png" width="11px" height="12px" preserveAspectRatio="xMinYMin meet" x="254" y="-448"/>
<text text-anchor="start" x="269" y="-439.2" font-family="Helvetica,sans-Serif" font-size="11.00">exp_processor_id</text>
<polygon fill="none" stroke="black" points="434,-431 434,-453 517,-453 517,-431 434,-431"/>
<text text-anchor="start" x="437" y="-439.2" font-family="Helvetica,sans-Serif" font-size="11.00">numeric[10]</text>
<polygon fill="none" stroke="black" points="249,-409 249,-431 434,-431 434,-409 249,-409"/>
<image xlink:href="../../images/foreignKeys.png" width="11px" height="12px" preserveAspectRatio="xMinYMin meet" x="254" y="-426"/>
<text text-anchor="start" x="269" y="-417.2" font-family="Helvetica,sans-Serif" font-size="11.00">exp_processor_type_id</text>
<polygon fill="none" stroke="black" points="434,-409 434,-431 517,-431 517,-409 434,-409"/>
<text text-anchor="start" x="437" y="-417.2" font-family="Helvetica,sans-Serif" font-size="11.00">numeric[10]</text>
<polygon fill="none" stroke="black" points="249,-387 249,-409 434,-409 434,-387 249,-387"/>
<text text-anchor="start" x="269" y="-395.2" font-family="Helvetica,sans-Serif" font-size="11.00">ad_client_id</text>
<polygon fill="none" stroke="black" points="434,-387 434,-409 517,-409 517,-387 434,-387"/>
<text text-anchor="start" x="437" y="-395.2" font-family="Helvetica,sans-Serif" font-size="11.00">numeric[10]</text>
<polygon fill="none" stroke="black" points="249,-365 249,-387 434,-387 434,-365 249,-365"/>
<text text-anchor="start" x="269" y="-373.2" font-family="Helvetica,sans-Serif" font-size="11.00">ad_org_id</text>
<polygon fill="none" stroke="black" points="434,-365 434,-387 517,-387 517,-365 434,-365"/>
<text text-anchor="start" x="437" y="-373.2" font-family="Helvetica,sans-Serif" font-size="11.00">numeric[10]</text>
<polygon fill="none" stroke="black" points="249,-343 249,-365 434,-365 434,-343 249,-343"/>
<text text-anchor="start" x="269" y="-351.2" font-family="Helvetica,sans-Serif" font-size="11.00">isactive</text>
<polygon fill="none" stroke="black" points="434,-343 434,-365 517,-365 517,-343 434,-343"/>
<text text-anchor="start" x="437" y="-351.2" font-family="Helvetica,sans-Serif" font-size="11.00">bpchar[1]</text>
<polygon fill="none" stroke="black" points="249,-321 249,-343 434,-343 434,-321 249,-321"/>
<text text-anchor="start" x="269" y="-329.2" font-family="Helvetica,sans-Serif" font-size="11.00">created</text>
<polygon fill="none" stroke="black" points="434,-321 434,-343 517,-343 517,-321 434,-321"/>
<text text-anchor="start" x="437" y="-329.2" font-family="Helvetica,sans-Serif" font-size="11.00">timestamp[29,6]</text>
<polygon fill="none" stroke="black" points="249,-299 249,-321 434,-321 434,-299 249,-299"/>
<text text-anchor="start" x="269" y="-307.2" font-family="Helvetica,sans-Serif" font-size="11.00">createdby</text>
<polygon fill="none" stroke="black" points="434,-299 434,-321 517,-321 517,-299 434,-299"/>
<text text-anchor="start" x="437" y="-307.2" font-family="Helvetica,sans-Serif" font-size="11.00">numeric[10]</text>
<polygon fill="none" stroke="black" points="249,-277 249,-299 434,-299 434,-277 249,-277"/>
<text text-anchor="start" x="269" y="-285.2" font-family="Helvetica,sans-Serif" font-size="11.00">updated</text>
<polygon fill="none" stroke="black" points="434,-277 434,-299 517,-299 517,-277 434,-277"/>
<text text-anchor="start" x="437" y="-285.2" font-family="Helvetica,sans-Serif" font-size="11.00">timestamp[29,6]</text>
<polygon fill="none" stroke="black" points="249,-255 249,-277 434,-277 434,-255 249,-255"/>
<text text-anchor="start" x="269" y="-263.2" font-family="Helvetica,sans-Serif" font-size="11.00">updatedby</text>
<polygon fill="none" stroke="black" points="434,-255 434,-277 517,-277 517,-255 434,-255"/>
<text text-anchor="start" x="437" y="-263.2" font-family="Helvetica,sans-Serif" font-size="11.00">numeric[10]</text>
<polygon fill="none" stroke="black" points="249,-233 249,-255 434,-255 434,-233 249,-233"/>
<text text-anchor="start" x="269" y="-241.2" font-family="Helvetica,sans-Serif" font-size="11.00">value</text>
<polygon fill="none" stroke="black" points="434,-233 434,-255 517,-255 517,-233 434,-233"/>
<text text-anchor="start" x="437" y="-241.2" font-family="Helvetica,sans-Serif" font-size="11.00">varchar[40]</text>
<polygon fill="none" stroke="black" points="249,-211 249,-233 434,-233 434,-211 249,-211"/>
<text text-anchor="start" x="269" y="-219.2" font-family="Helvetica,sans-Serif" font-size="11.00">name</text>
<polygon fill="none" stroke="black" points="434,-211 434,-233 517,-233 517,-211 434,-211"/>
<text text-anchor="start" x="437" y="-219.2" font-family="Helvetica,sans-Serif" font-size="11.00">varchar[60]</text>
<polygon fill="none" stroke="black" points="249,-189 249,-211 434,-211 434,-189 249,-189"/>
<text text-anchor="start" x="269" y="-197.2" font-family="Helvetica,sans-Serif" font-size="11.00">description</text>
<polygon fill="none" stroke="black" points="434,-189 434,-211 517,-211 517,-189 434,-189"/>
<text text-anchor="start" x="437" y="-197.2" font-family="Helvetica,sans-Serif" font-size="11.00">varchar[255]</text>
<polygon fill="none" stroke="black" points="249,-167 249,-189 434,-189 434,-167 249,-167"/>
<text text-anchor="start" x="269" y="-175.2" font-family="Helvetica,sans-Serif" font-size="11.00">help</text>
<polygon fill="none" stroke="black" points="434,-167 434,-189 517,-189 517,-167 434,-167"/>
<text text-anchor="start" x="437" y="-175.2" font-family="Helvetica,sans-Serif" font-size="11.00">varchar[2000]</text>
<polygon fill="none" stroke="black" points="249,-145 249,-167 434,-167 434,-145 249,-145"/>
<text text-anchor="start" x="269" y="-153.2" font-family="Helvetica,sans-Serif" font-size="11.00">host</text>
<polygon fill="none" stroke="black" points="434,-145 434,-167 517,-167 517,-145 434,-145"/>
<text text-anchor="start" x="437" y="-153.2" font-family="Helvetica,sans-Serif" font-size="11.00">varchar[255]</text>
<polygon fill="none" stroke="black" points="249,-123 249,-145 434,-145 434,-123 249,-123"/>
<text text-anchor="start" x="269" y="-131.2" font-family="Helvetica,sans-Serif" font-size="11.00">port</text>
<polygon fill="none" stroke="black" points="434,-123 434,-145 517,-145 517,-123 434,-123"/>
<text text-anchor="start" x="437" y="-131.2" font-family="Helvetica,sans-Serif" font-size="11.00">numeric[10]</text>
<polygon fill="none" stroke="black" points="249,-101 249,-123 434,-123 434,-101 249,-101"/>
<text text-anchor="start" x="269" y="-109.2" font-family="Helvetica,sans-Serif" font-size="11.00">account</text>
<polygon fill="none" stroke="black" points="434,-101 434,-123 517,-123 517,-101 434,-101"/>
<text text-anchor="start" x="437" y="-109.2" font-family="Helvetica,sans-Serif" font-size="11.00">varchar[255]</text>
<polygon fill="none" stroke="black" points="249,-79 249,-101 434,-101 434,-79 249,-79"/>
<text text-anchor="start" x="269" y="-87.2" font-family="Helvetica,sans-Serif" font-size="11.00">passwordinfo</text>
<polygon fill="none" stroke="black" points="434,-79 434,-101 517,-101 517,-79 434,-79"/>
<text text-anchor="start" x="437" y="-87.2" font-family="Helvetica,sans-Serif" font-size="11.00">varchar[255]</text>
<polygon fill="#ffffff" stroke="transparent" points="249,-57 249,-79 434,-79 434,-57 249,-57"/>
<polygon fill="none" stroke="black" points="249,-57 249,-79 434,-79 434,-57 249,-57"/>
<text text-anchor="start" x="269" y="-65.2" font-family="Helvetica,sans-Serif" font-size="11.00">exp_processor_uu</text>
<polygon fill="none" stroke="black" points="434,-57 434,-79 517,-79 517,-57 434,-57"/>
<text text-anchor="start" x="437" y="-65.2" font-family="Helvetica,sans-Serif" font-size="11.00">varchar[36]</text>
<polygon fill="#ffffff" stroke="transparent" points="249,-39 249,-57 517,-57 517,-39 249,-39"/>
<polygon fill="none" stroke="black" points="249,-39 249,-57 517,-57 517,-39 249,-39"/>
<polygon fill="#ffffff" stroke="transparent" points="250,-40 250,-56 342,-56 342,-40 250,-40"/>
<text text-anchor="start" x="252" y="-45.2" font-family="Helvetica,sans-Serif" font-size="11.00">&lt; 1</text>
<polygon fill="#ffffff" stroke="transparent" points="342,-40 342,-56 425,-56 425,-40 342,-40"/>
<text text-anchor="start" x="380" y="-45.2" font-family="Helvetica,sans-Serif" font-size="11.00"> &#160;</text>
<polygon fill="#ffffff" stroke="transparent" points="425,-40 425,-56 516,-56 516,-40 425,-40"/>
<text text-anchor="start" x="498" y="-45.2" font-family="Helvetica,sans-Serif" font-size="11.00">2 &gt;</text>
<polygon fill="black" stroke="black" points="342,-40 342,-56 342,-56 342,-40 342,-40"/>
<polygon fill="black" stroke="black" points="425,-40 425,-56 425,-56 425,-40 425,-40"/>
<polygon fill="none" stroke="black" stroke-width="2" points="248,-38 248,-476 518,-476 518,-38 248,-38"/>
</a>
</g>
</g>
<!-- ad_replicationstrategy&#45;&gt;exp_processor -->
<g id="edge1" class="edge">
<title>ad_replicationstrategy:w&#45;&gt;exp_processor:e</title>
<path fill="none" stroke="black" d="M562.11,-521.22C537.97,-504.98 557.2,-442 518,-442"/>
<polygon fill="black" stroke="black" points="568.28,-522.9 575.05,-528.47 572.14,-523.95 576,-525 576,-525 576,-525 572.14,-523.95 576.95,-521.53 568.28,-522.9 568.28,-522.9"/>
<ellipse fill="none" stroke="black" cx="565.19" cy="-522.06" rx="3.2" ry="3.2"/>
</g>
<!-- exp_processor_type -->
<g id="node3" class="node">
<title>exp_processor_type</title>
<g id="a_node3"><a xlink:href="../../tables/exp_processor_type.html" xlink:title="exp_processor_type" target="_top">
<polygon fill="#ffffff" stroke="transparent" points="8,-351 8,-453 198,-453 198,-351 8,-351"/>
<polygon fill="#f5f5f5" stroke="transparent" points="8,-431 8,-453 198,-453 198,-431 8,-431"/>
<polygon fill="none" stroke="black" points="8,-431 8,-453 198,-453 198,-431 8,-431"/>
<text text-anchor="start" x="13" y="-440.2" font-family="Helvetica,sans-Serif" font-weight="bold" font-size="11.00">exp_processor_type</text>
<text text-anchor="start" x="163" y="-439.2" font-family="Helvetica,sans-Serif" font-size="11.00">[table]</text>
<polygon fill="none" stroke="black" points="8,-409 8,-431 198,-431 198,-409 8,-409"/>
<image xlink:href="../../images/primaryKeys.png" width="11px" height="12px" preserveAspectRatio="xMinYMin meet" x="13" y="-426"/>
<text text-anchor="start" x="28" y="-417.2" font-family="Helvetica,sans-Serif" font-size="11.00">exp_processor_type_id</text>
<polygon fill="#ffffff" stroke="transparent" points="8,-387 8,-409 198,-409 198,-387 8,-387"/>
<polygon fill="none" stroke="black" points="8,-387 8,-409 198,-409 198,-387 8,-387"/>
<text text-anchor="start" x="28" y="-395.2" font-family="Helvetica,sans-Serif" font-size="11.00">exp_processor_type_uu</text>
<polygon fill="none" stroke="black" points="8,-369 8,-387 198,-387 198,-369 8,-369"/>
<text text-anchor="start" x="11" y="-375.2" font-family="Helvetica,sans-Serif" font-size="11.00">...</text>
<polygon fill="#ffffff" stroke="transparent" points="8,-351 8,-369 198,-369 198,-351 8,-351"/>
<polygon fill="none" stroke="black" points="8,-351 8,-369 198,-369 198,-351 8,-351"/>
<polygon fill="#ffffff" stroke="transparent" points="9,-352 9,-368 69,-368 69,-352 9,-352"/>
<text text-anchor="start" x="11" y="-357.2" font-family="Helvetica,sans-Serif" font-size="11.00"> &#160;</text>
<polygon fill="#ffffff" stroke="transparent" points="69,-352 69,-368 129,-368 129,-352 69,-352"/>
<text text-anchor="start" x="95.5" y="-357.2" font-family="Helvetica,sans-Serif" font-size="11.00"> &#160;</text>
<polygon fill="#ffffff" stroke="transparent" points="129,-352 129,-368 197,-368 197,-352 129,-352"/>
<text text-anchor="start" x="179" y="-357.2" font-family="Helvetica,sans-Serif" font-size="11.00">1 &gt;</text>
<polygon fill="black" stroke="black" points="69,-352 69,-368 69,-368 69,-352 69,-352"/>
<polygon fill="black" stroke="black" points="129,-352 129,-368 129,-368 129,-352 129,-352"/>
</a>
</g>
</g>
<!-- exp_processor&#45;&gt;exp_processor_type -->
<g id="edge2" class="edge">
<title>exp_processor:w&#45;&gt;exp_processor_type:e</title>
<path fill="none" stroke="black" d="M233.49,-420C222.18,-420 214.99,-420 199,-420"/>
<polygon fill="black" stroke="black" points="240,-420 248,-423.6 244,-420 248,-420 248,-420 248,-420 244,-420 248,-416.4 240,-420 240,-420"/>
<ellipse fill="none" stroke="black" cx="236.8" cy="-420" rx="3.2" ry="3.2"/>
</g>
<!-- exp_processorparameter -->
<g id="node4" class="node">
<title>exp_processorparameter</title>
<g id="a_node4"><a xlink:href="../../tables/exp_processorparameter.html" xlink:title="exp_processorparameter" target="_top">
<polygon fill="#ffffff" stroke="transparent" points="568,-289 568,-413 796,-413 796,-289 568,-289"/>
<polygon fill="#f5f5f5" stroke="transparent" points="568,-391 568,-413 796,-413 796,-391 568,-391"/>
<polygon fill="none" stroke="black" points="568,-391 568,-413 796,-413 796,-391 568,-391"/>
<text text-anchor="start" x="573" y="-400.2" font-family="Helvetica,sans-Serif" font-weight="bold" font-size="11.00">exp_processorparameter</text>
<text text-anchor="start" x="761" y="-399.2" font-family="Helvetica,sans-Serif" font-size="11.00">[table]</text>
<polygon fill="none" stroke="black" points="568,-369 568,-391 796,-391 796,-369 568,-369"/>
<image xlink:href="../../images/primaryKeys.png" width="11px" height="12px" preserveAspectRatio="xMinYMin meet" x="573" y="-386"/>
<text text-anchor="start" x="588" y="-377.2" font-family="Helvetica,sans-Serif" font-size="11.00">exp_processorparameter_id</text>
<polygon fill="none" stroke="black" points="568,-347 568,-369 796,-369 796,-347 568,-347"/>
<image xlink:href="../../images/foreignKeys.png" width="11px" height="12px" preserveAspectRatio="xMinYMin meet" x="573" y="-364"/>
<text text-anchor="start" x="588" y="-355.2" font-family="Helvetica,sans-Serif" font-size="11.00">exp_processor_id</text>
<polygon fill="#ffffff" stroke="transparent" points="568,-325 568,-347 796,-347 796,-325 568,-325"/>
<polygon fill="none" stroke="black" points="568,-325 568,-347 796,-347 796,-325 568,-325"/>
<text text-anchor="start" x="588" y="-333.2" font-family="Helvetica,sans-Serif" font-size="11.00">exp_processorparameter_uu</text>
<polygon fill="none" stroke="black" points="568,-307 568,-325 796,-325 796,-307 568,-307"/>
<text text-anchor="start" x="571" y="-313.2" font-family="Helvetica,sans-Serif" font-size="11.00">...</text>
<polygon fill="#ffffff" stroke="transparent" points="568,-289 568,-307 796,-307 796,-289 568,-289"/>
<polygon fill="none" stroke="black" points="568,-289 568,-307 796,-307 796,-289 568,-289"/>
<polygon fill="#ffffff" stroke="transparent" points="569,-290 569,-306 651,-306 651,-290 569,-290"/>
<text text-anchor="start" x="571" y="-295.2" font-family="Helvetica,sans-Serif" font-size="11.00">&lt; 1</text>
<polygon fill="#ffffff" stroke="transparent" points="651,-290 651,-306 723,-306 723,-290 651,-290"/>
<text text-anchor="start" x="683.5" y="-295.2" font-family="Helvetica,sans-Serif" font-size="11.00"> &#160;</text>
<polygon fill="#ffffff" stroke="transparent" points="723,-290 723,-306 795,-306 795,-290 723,-290"/>
<text text-anchor="start" x="786" y="-295.2" font-family="Helvetica,sans-Serif" font-size="11.00"> &#160;</text>
<polygon fill="black" stroke="black" points="651,-290 651,-306 651,-306 651,-290 651,-290"/>
<polygon fill="black" stroke="black" points="723,-290 723,-306 723,-306 723,-290 723,-290"/>
</a>
</g>
</g>
<!-- exp_processorparameter&#45;&gt;exp_processor -->
<g id="edge3" class="edge">
<title>exp_processorparameter:w&#45;&gt;exp_processor:e</title>
<path fill="none" stroke="black" d="M553.1,-362.52C532.71,-379.96 555.14,-442 518,-442"/>
<polygon fill="black" stroke="black" points="559.39,-360.47 568.11,-361.42 563.2,-359.24 567,-358 567,-358 567,-358 563.2,-359.24 565.89,-354.58 559.39,-360.47 559.39,-360.47"/>
<ellipse fill="none" stroke="black" cx="556.35" cy="-361.46" rx="3.2" ry="3.2"/>
</g>
</g>
</svg>
