<?xml version="1.0" encoding="UTF-8" standalone="no"?>
<!DOCTYPE svg PUBLIC "-//W3C//DTD SVG 1.1//EN"
 "http://www.w3.org/Graphics/SVG/1.1/DTD/svg11.dtd">
<!-- Generated by graphviz version 2.43.0 (0)
 -->
<!-- Title: oneDegreeRelationshipsDiagram Pages: 1 -->
<svg width="1302pt" height="1028pt"
 viewBox="0.00 0.00 1302.00 1028.00" xmlns="http://www.w3.org/2000/svg" xmlns:xlink="http://www.w3.org/1999/xlink">
<g id="graph0" class="graph" transform="scale(1 1) rotate(0) translate(4 1024)">
<title>oneDegreeRelationshipsDiagram</title>
<polygon fill="#ffffff" stroke="transparent" points="-4,4 -4,-1024 1298,-1024 1298,4 -4,4"/>
<text text-anchor="middle" x="71.5" y="-7.2" font-family="Helvetica,sans-Serif" font-size="11.00">Generated by SchemaSpy</text>
<!-- c_doctype -->
<g id="node1" class="node">
<title>c_doctype</title>
<g id="a_node1"><a xlink:href="../../tables/c_doctype.html" xlink:title="c_doctype" target="_top">
<polygon fill="#ffffff" stroke="transparent" points="281,-341 281,-839 668,-839 668,-341 281,-341"/>
<polygon fill="#f5f5f5" stroke="transparent" points="281.5,-817 281.5,-839 668.5,-839 668.5,-817 281.5,-817"/>
<polygon fill="none" stroke="black" points="281.5,-817 281.5,-839 668.5,-839 668.5,-817 281.5,-817"/>
<text text-anchor="start" x="286.5" y="-826.2" font-family="Helvetica,sans-Serif" font-weight="bold" font-size="11.00">c_doctype</text>
<text text-anchor="start" x="633.5" y="-825.2" font-family="Helvetica,sans-Serif" font-size="11.00">[table]</text>
<polygon fill="none" stroke="black" points="281.5,-795 281.5,-817 668.5,-817 668.5,-795 281.5,-795"/>
<image xlink:href="../../images/primaryKeys.png" width="11px" height="12px" preserveAspectRatio="xMinYMin meet" x="286.5" y="-812"/>
<text text-anchor="start" x="301.5" y="-803.2" font-family="Helvetica,sans-Serif" font-size="11.00">c_doctype_id</text>
<polygon fill="#ffffff" stroke="transparent" points="281.5,-773 281.5,-795 668.5,-795 668.5,-773 281.5,-773"/>
<polygon fill="none" stroke="black" points="281.5,-773 281.5,-795 668.5,-795 668.5,-773 281.5,-773"/>
<text text-anchor="start" x="301.5" y="-781.2" font-family="Helvetica,sans-Serif" font-size="11.00">ad_client_id</text>
<polygon fill="#ffffff" stroke="transparent" points="281.5,-751 281.5,-773 668.5,-773 668.5,-751 281.5,-751"/>
<polygon fill="none" stroke="black" points="281.5,-751 281.5,-773 668.5,-773 668.5,-751 281.5,-751"/>
<text text-anchor="start" x="301.5" y="-759.2" font-family="Helvetica,sans-Serif" font-size="11.00">name</text>
<polygon fill="none" stroke="black" points="281.5,-729 281.5,-751 668.5,-751 668.5,-729 281.5,-729"/>
<image xlink:href="../../images/foreignKeys.png" width="11px" height="12px" preserveAspectRatio="xMinYMin meet" x="286.5" y="-746"/>
<text text-anchor="start" x="301.5" y="-737.2" font-family="Helvetica,sans-Serif" font-size="11.00">c_doctypeproforma_id</text>
<polygon fill="none" stroke="black" points="281.5,-707 281.5,-729 668.5,-729 668.5,-707 281.5,-707"/>
<image xlink:href="../../images/foreignKeys.png" width="11px" height="12px" preserveAspectRatio="xMinYMin meet" x="286.5" y="-724"/>
<text text-anchor="start" x="301.5" y="-715.2" font-family="Helvetica,sans-Serif" font-size="11.00">c_doctypeshipment_id</text>
<polygon fill="none" stroke="black" points="281.5,-685 281.5,-707 668.5,-707 668.5,-685 281.5,-685"/>
<image xlink:href="../../images/foreignKeys.png" width="11px" height="12px" preserveAspectRatio="xMinYMin meet" x="286.5" y="-702"/>
<text text-anchor="start" x="301.5" y="-693.2" font-family="Helvetica,sans-Serif" font-size="11.00">c_doctypeinvoice_id</text>
<polygon fill="none" stroke="black" points="281.5,-663 281.5,-685 668.5,-685 668.5,-663 281.5,-663"/>
<image xlink:href="../../images/foreignKeys.png" width="11px" height="12px" preserveAspectRatio="xMinYMin meet" x="286.5" y="-680"/>
<text text-anchor="start" x="301.5" y="-671.2" font-family="Helvetica,sans-Serif" font-size="11.00">docnosequence_id</text>
<polygon fill="none" stroke="black" points="281.5,-641 281.5,-663 668.5,-663 668.5,-641 281.5,-641"/>
<image xlink:href="../../images/foreignKeys.png" width="11px" height="12px" preserveAspectRatio="xMinYMin meet" x="286.5" y="-658"/>
<text text-anchor="start" x="301.5" y="-649.2" font-family="Helvetica,sans-Serif" font-size="11.00">gl_category_id</text>
<polygon fill="none" stroke="black" points="281.5,-619 281.5,-641 668.5,-641 668.5,-619 281.5,-619"/>
<image xlink:href="../../images/foreignKeys.png" width="11px" height="12px" preserveAspectRatio="xMinYMin meet" x="286.5" y="-636"/>
<text text-anchor="start" x="301.5" y="-627.2" font-family="Helvetica,sans-Serif" font-size="11.00">ad_printformat_id</text>
<polygon fill="none" stroke="black" points="281.5,-597 281.5,-619 668.5,-619 668.5,-597 281.5,-597"/>
<image xlink:href="../../images/foreignKeys.png" width="11px" height="12px" preserveAspectRatio="xMinYMin meet" x="286.5" y="-614"/>
<text text-anchor="start" x="301.5" y="-605.2" font-family="Helvetica,sans-Serif" font-size="11.00">c_doctypedifference_id</text>
<polygon fill="none" stroke="black" points="281.5,-575 281.5,-597 668.5,-597 668.5,-575 281.5,-575"/>
<image xlink:href="../../images/foreignKeys.png" width="11px" height="12px" preserveAspectRatio="xMinYMin meet" x="286.5" y="-592"/>
<text text-anchor="start" x="301.5" y="-583.2" font-family="Helvetica,sans-Serif" font-size="11.00">definitesequence_id</text>
<polygon fill="#ffffff" stroke="transparent" points="281.5,-553 281.5,-575 668.5,-575 668.5,-553 281.5,-553"/>
<polygon fill="none" stroke="black" points="281.5,-553 281.5,-575 668.5,-575 668.5,-553 281.5,-553"/>
<text text-anchor="start" x="301.5" y="-561.2" font-family="Helvetica,sans-Serif" font-size="11.00">c_doctype_uu</text>
<polygon fill="none" stroke="black" points="281.5,-531 281.5,-553 668.5,-553 668.5,-531 281.5,-531"/>
<image xlink:href="../../images/foreignKeys.png" width="11px" height="12px" preserveAspectRatio="xMinYMin meet" x="286.5" y="-548"/>
<text text-anchor="start" x="301.5" y="-539.2" font-family="Helvetica,sans-Serif" font-size="11.00">m_warehouse_id</text>
<polygon fill="none" stroke="black" points="281.5,-509 281.5,-531 668.5,-531 668.5,-509 281.5,-509"/>
<image xlink:href="../../images/foreignKeys.png" width="11px" height="12px" preserveAspectRatio="xMinYMin meet" x="286.5" y="-526"/>
<text text-anchor="start" x="301.5" y="-517.2" font-family="Helvetica,sans-Serif" font-size="11.00">user1_id</text>
<polygon fill="none" stroke="black" points="281.5,-487 281.5,-509 668.5,-509 668.5,-487 281.5,-487"/>
<image xlink:href="../../images/foreignKeys.png" width="11px" height="12px" preserveAspectRatio="xMinYMin meet" x="286.5" y="-504"/>
<text text-anchor="start" x="301.5" y="-495.2" font-family="Helvetica,sans-Serif" font-size="11.00">c_activity_id</text>
<polygon fill="none" stroke="black" points="281.5,-465 281.5,-487 668.5,-487 668.5,-465 281.5,-465"/>
<image xlink:href="../../images/foreignKeys.png" width="11px" height="12px" preserveAspectRatio="xMinYMin meet" x="286.5" y="-482"/>
<text text-anchor="start" x="301.5" y="-473.2" font-family="Helvetica,sans-Serif" font-size="11.00">user2_id</text>
<polygon fill="none" stroke="black" points="281.5,-443 281.5,-465 668.5,-465 668.5,-443 281.5,-443"/>
<image xlink:href="../../images/foreignKeys.png" width="11px" height="12px" preserveAspectRatio="xMinYMin meet" x="286.5" y="-460"/>
<text text-anchor="start" x="301.5" y="-451.2" font-family="Helvetica,sans-Serif" font-size="11.00">cof_charge_id</text>
<polygon fill="none" stroke="black" points="281.5,-421 281.5,-443 668.5,-443 668.5,-421 281.5,-421"/>
<image xlink:href="../../images/foreignKeys.png" width="11px" height="12px" preserveAspectRatio="xMinYMin meet" x="286.5" y="-438"/>
<text text-anchor="start" x="301.5" y="-429.2" font-family="Helvetica,sans-Serif" font-size="11.00">cof_cabecalhov_id</text>
<polygon fill="none" stroke="black" points="281.5,-399 281.5,-421 668.5,-421 668.5,-399 281.5,-399"/>
<image xlink:href="../../images/foreignKeys.png" width="11px" height="12px" preserveAspectRatio="xMinYMin meet" x="286.5" y="-416"/>
<text text-anchor="start" x="301.5" y="-407.2" font-family="Helvetica,sans-Serif" font-size="11.00">cof_pontoremessa_id</text>
<polygon fill="none" stroke="black" points="281.5,-377 281.5,-399 668.5,-399 668.5,-377 281.5,-377"/>
<image xlink:href="../../images/foreignKeys.png" width="11px" height="12px" preserveAspectRatio="xMinYMin meet" x="286.5" y="-394"/>
<text text-anchor="start" x="301.5" y="-385.2" font-family="Helvetica,sans-Serif" font-size="11.00">cte_doctype_id</text>
<polygon fill="none" stroke="black" points="281.5,-359 281.5,-377 668.5,-377 668.5,-359 281.5,-359"/>
<text text-anchor="start" x="284.5" y="-365.2" font-family="Helvetica,sans-Serif" font-size="11.00">...</text>
<polygon fill="#ffffff" stroke="transparent" points="281.5,-341 281.5,-359 668.5,-359 668.5,-341 281.5,-341"/>
<polygon fill="none" stroke="black" points="281.5,-341 281.5,-359 668.5,-359 668.5,-341 281.5,-341"/>
<polygon fill="#ffffff" stroke="transparent" points="282.5,-342 282.5,-358 403.5,-358 403.5,-342 282.5,-342"/>
<text text-anchor="start" x="284.5" y="-347.2" font-family="Helvetica,sans-Serif" font-size="11.00">&lt; 16</text>
<polygon fill="#ffffff" stroke="transparent" points="403.5,-342 403.5,-358 547.5,-358 547.5,-342 403.5,-342"/>
<text text-anchor="start" x="453" y="-347.2" font-family="Helvetica,sans-Serif" font-size="11.00">134 rows</text>
<polygon fill="#ffffff" stroke="transparent" points="547.5,-342 547.5,-358 667.5,-358 667.5,-342 547.5,-342"/>
<text text-anchor="start" x="643.5" y="-347.2" font-family="Helvetica,sans-Serif" font-size="11.00">82 &gt;</text>
<polygon fill="black" stroke="black" points="403.5,-342 403.5,-358 403.5,-358 403.5,-342 403.5,-342"/>
<polygon fill="black" stroke="black" points="547.5,-342 547.5,-358 547.5,-358 547.5,-342 547.5,-342"/>
</a>
</g>
</g>
<!-- gl_category -->
<g id="node2" class="node">
<title>gl_category</title>
<g id="a_node2"><a xlink:href="../../tables/gl_category.html" xlink:title="gl_category" target="_top">
<polygon fill="#ffffff" stroke="transparent" points="55,-305 55,-473 185,-473 185,-305 55,-305"/>
<polygon fill="#f5f5f5" stroke="transparent" points="55,-451 55,-473 185,-473 185,-451 55,-451"/>
<polygon fill="none" stroke="black" points="55,-451 55,-473 185,-473 185,-451 55,-451"/>
<text text-anchor="start" x="60" y="-460.2" font-family="Helvetica,sans-Serif" font-weight="bold" font-size="11.00">gl_category</text>
<text text-anchor="start" x="150" y="-459.2" font-family="Helvetica,sans-Serif" font-size="11.00">[table]</text>
<polygon fill="none" stroke="black" points="55,-429 55,-451 185,-451 185,-429 55,-429"/>
<image xlink:href="../../images/primaryKeys.png" width="11px" height="12px" preserveAspectRatio="xMinYMin meet" x="60" y="-446"/>
<text text-anchor="start" x="75" y="-437.2" font-family="Helvetica,sans-Serif" font-size="11.00">gl_category_id</text>
<polygon fill="#ffffff" stroke="transparent" points="55,-407 55,-429 185,-429 185,-407 55,-407"/>
<polygon fill="none" stroke="black" points="55,-407 55,-429 185,-429 185,-407 55,-407"/>
<text text-anchor="start" x="75" y="-415.2" font-family="Helvetica,sans-Serif" font-size="11.00">ad_client_id</text>
<polygon fill="#ffffff" stroke="transparent" points="55,-385 55,-407 185,-407 185,-385 55,-385"/>
<polygon fill="none" stroke="black" points="55,-385 55,-407 185,-407 185,-385 55,-385"/>
<text text-anchor="start" x="75" y="-393.2" font-family="Helvetica,sans-Serif" font-size="11.00">name</text>
<polygon fill="#ffffff" stroke="transparent" points="55,-363 55,-385 185,-385 185,-363 55,-363"/>
<polygon fill="none" stroke="black" points="55,-363 55,-385 185,-385 185,-363 55,-363"/>
<text text-anchor="start" x="75" y="-371.2" font-family="Helvetica,sans-Serif" font-size="11.00">gl_category_uu</text>
<polygon fill="#ffffff" stroke="transparent" points="55,-341 55,-363 185,-363 185,-341 55,-341"/>
<polygon fill="none" stroke="black" points="55,-341 55,-363 185,-363 185,-341 55,-341"/>
<text text-anchor="start" x="75" y="-349.2" font-family="Helvetica,sans-Serif" font-size="11.00">value</text>
<polygon fill="none" stroke="black" points="55,-323 55,-341 185,-341 185,-323 55,-323"/>
<text text-anchor="start" x="58" y="-329.2" font-family="Helvetica,sans-Serif" font-size="11.00">...</text>
<polygon fill="#ffffff" stroke="transparent" points="55,-305 55,-323 185,-323 185,-305 55,-305"/>
<polygon fill="none" stroke="black" points="55,-305 55,-323 185,-323 185,-305 55,-305"/>
<polygon fill="#ffffff" stroke="transparent" points="56,-306 56,-322 83,-322 83,-306 56,-306"/>
<text text-anchor="start" x="58" y="-311.2" font-family="Helvetica,sans-Serif" font-size="11.00"> &#160;</text>
<polygon fill="#ffffff" stroke="transparent" points="83,-306 83,-322 142,-322 142,-306 83,-306"/>
<text text-anchor="start" x="93" y="-311.2" font-family="Helvetica,sans-Serif" font-size="11.00">47 rows</text>
<polygon fill="#ffffff" stroke="transparent" points="142,-306 142,-322 184,-322 184,-306 142,-306"/>
<text text-anchor="start" x="160" y="-311.2" font-family="Helvetica,sans-Serif" font-size="11.00">12 &gt;</text>
<polygon fill="black" stroke="black" points="83,-306 83,-322 83,-322 83,-306 83,-306"/>
<polygon fill="black" stroke="black" points="142,-306 142,-322 142,-322 142,-306 142,-306"/>
</a>
</g>
</g>
<!-- c_doctype&#45;&gt;gl_category -->
<g id="edge1" class="edge">
<title>c_doctype:w&#45;&gt;gl_category:e</title>
<path fill="none" stroke="black" d="M267,-646.33C230.04,-612.62 232.54,-440 186,-440"/>
<polygon fill="black" stroke="black" points="273.12,-648.9 279.11,-655.32 276.81,-650.45 280.5,-652 280.5,-652 280.5,-652 276.81,-650.45 281.89,-648.68 273.12,-648.9 273.12,-648.9"/>
<ellipse fill="none" stroke="black" cx="270.17" cy="-647.66" rx="3.2" ry="3.2"/>
</g>
<!-- c_elementvalue -->
<g id="node3" class="node">
<title>c_elementvalue</title>
<g id="a_node3"><a xlink:href="../../tables/c_elementvalue.html" xlink:title="c_elementvalue" target="_top">
<polygon fill="#ffffff" stroke="transparent" points="8,-631 8,-909 232,-909 232,-631 8,-631"/>
<polygon fill="#f5f5f5" stroke="transparent" points="8,-887 8,-909 232,-909 232,-887 8,-887"/>
<polygon fill="none" stroke="black" points="8,-887 8,-909 232,-909 232,-887 8,-887"/>
<text text-anchor="start" x="13" y="-896.2" font-family="Helvetica,sans-Serif" font-weight="bold" font-size="11.00">c_elementvalue</text>
<text text-anchor="start" x="197" y="-895.2" font-family="Helvetica,sans-Serif" font-size="11.00">[table]</text>
<polygon fill="none" stroke="black" points="8,-865 8,-887 232,-887 232,-865 8,-865"/>
<image xlink:href="../../images/primaryKeys.png" width="11px" height="12px" preserveAspectRatio="xMinYMin meet" x="13" y="-882"/>
<text text-anchor="start" x="28" y="-873.2" font-family="Helvetica,sans-Serif" font-size="11.00">c_elementvalue_id</text>
<polygon fill="none" stroke="black" points="8,-843 8,-865 232,-865 232,-843 8,-843"/>
<image xlink:href="../../images/foreignKeys.png" width="11px" height="12px" preserveAspectRatio="xMinYMin meet" x="13" y="-860"/>
<text text-anchor="start" x="28" y="-851.2" font-family="Helvetica,sans-Serif" font-size="11.00">ad_client_id</text>
<polygon fill="none" stroke="black" points="8,-821 8,-843 232,-843 232,-821 8,-821"/>
<image xlink:href="../../images/foreignKeys.png" width="11px" height="12px" preserveAspectRatio="xMinYMin meet" x="13" y="-838"/>
<text text-anchor="start" x="28" y="-829.2" font-family="Helvetica,sans-Serif" font-size="11.00">ad_org_id</text>
<polygon fill="#ffffff" stroke="transparent" points="8,-799 8,-821 232,-821 232,-799 8,-799"/>
<polygon fill="none" stroke="black" points="8,-799 8,-821 232,-821 232,-799 8,-799"/>
<text text-anchor="start" x="28" y="-807.2" font-family="Helvetica,sans-Serif" font-size="11.00">value</text>
<polygon fill="#ffffff" stroke="transparent" points="8,-777 8,-799 232,-799 232,-777 8,-777"/>
<polygon fill="none" stroke="black" points="8,-777 8,-799 232,-799 232,-777 8,-777"/>
<text text-anchor="start" x="28" y="-785.2" font-family="Helvetica,sans-Serif" font-size="11.00">name</text>
<polygon fill="#ffffff" stroke="transparent" points="8,-755 8,-777 232,-777 232,-755 8,-755"/>
<polygon fill="none" stroke="black" points="8,-755 8,-777 232,-777 232,-755 8,-755"/>
<image xlink:href="../../images/foreignKeys.png" width="11px" height="12px" preserveAspectRatio="xMinYMin meet" x="13" y="-772"/>
<text text-anchor="start" x="28" y="-763.2" font-family="Helvetica,sans-Serif" font-size="11.00">c_element_id</text>
<polygon fill="none" stroke="black" points="8,-733 8,-755 232,-755 232,-733 8,-733"/>
<image xlink:href="../../images/foreignKeys.png" width="11px" height="12px" preserveAspectRatio="xMinYMin meet" x="13" y="-750"/>
<text text-anchor="start" x="28" y="-741.2" font-family="Helvetica,sans-Serif" font-size="11.00">c_bankaccount_id</text>
<polygon fill="none" stroke="black" points="8,-711 8,-733 232,-733 232,-711 8,-711"/>
<image xlink:href="../../images/foreignKeys.png" width="11px" height="12px" preserveAspectRatio="xMinYMin meet" x="13" y="-728"/>
<text text-anchor="start" x="28" y="-719.2" font-family="Helvetica,sans-Serif" font-size="11.00">c_currency_id</text>
<polygon fill="#ffffff" stroke="transparent" points="8,-689 8,-711 232,-711 232,-689 8,-689"/>
<polygon fill="none" stroke="black" points="8,-689 8,-711 232,-711 232,-689 8,-689"/>
<text text-anchor="start" x="28" y="-697.2" font-family="Helvetica,sans-Serif" font-size="11.00">c_elementvalue_uu</text>
<polygon fill="none" stroke="black" points="8,-667 8,-689 232,-689 232,-667 8,-667"/>
<image xlink:href="../../images/foreignKeys.png" width="11px" height="12px" preserveAspectRatio="xMinYMin meet" x="13" y="-684"/>
<text text-anchor="start" x="28" y="-675.2" font-family="Helvetica,sans-Serif" font-size="11.00">cof_codagl_id</text>
<polygon fill="none" stroke="black" points="8,-649 8,-667 232,-667 232,-649 8,-649"/>
<text text-anchor="start" x="11" y="-655.2" font-family="Helvetica,sans-Serif" font-size="11.00">...</text>
<polygon fill="#ffffff" stroke="transparent" points="8,-631 8,-649 232,-649 232,-631 8,-631"/>
<polygon fill="none" stroke="black" points="8,-631 8,-649 232,-649 232,-631 8,-631"/>
<polygon fill="#ffffff" stroke="transparent" points="9,-632 9,-648 67,-648 67,-632 9,-632"/>
<text text-anchor="start" x="11" y="-637.2" font-family="Helvetica,sans-Serif" font-size="11.00">&lt; 6</text>
<polygon fill="#ffffff" stroke="transparent" points="67,-632 67,-648 162,-648 162,-632 67,-632"/>
<text text-anchor="start" x="87.5" y="-637.2" font-family="Helvetica,sans-Serif" font-size="11.00">1.835 rows</text>
<polygon fill="#ffffff" stroke="transparent" points="162,-632 162,-648 231,-648 231,-632 162,-632"/>
<text text-anchor="start" x="201" y="-637.2" font-family="Helvetica,sans-Serif" font-size="11.00">120 &gt;</text>
<polygon fill="black" stroke="black" points="67,-632 67,-648 67,-648 67,-632 67,-632"/>
<polygon fill="black" stroke="black" points="162,-632 162,-648 162,-648 162,-632 162,-632"/>
</a>
</g>
</g>
<!-- c_doctype&#45;&gt;c_elementvalue -->
<g id="edge2" class="edge">
<title>c_doctype:w&#45;&gt;c_elementvalue:e</title>
<path fill="none" stroke="black" d="M266.7,-524.76C215.12,-567.01 307.36,-876 233,-876"/>
<polygon fill="black" stroke="black" points="272.94,-522.61 281.67,-523.4 276.72,-521.31 280.5,-520 280.5,-520 280.5,-520 276.72,-521.31 279.33,-516.6 272.94,-522.61 272.94,-522.61"/>
<ellipse fill="none" stroke="black" cx="269.91" cy="-523.65" rx="3.2" ry="3.2"/>
</g>
<!-- c_doctype&#45;&gt;c_elementvalue -->
<g id="edge3" class="edge">
<title>c_doctype:w&#45;&gt;c_elementvalue:e</title>
<path fill="none" stroke="black" d="M266.57,-480.22C206.1,-522.97 317.09,-876 233,-876"/>
<polygon fill="black" stroke="black" points="272.84,-478.32 281.54,-479.45 276.67,-477.16 280.5,-476 280.5,-476 280.5,-476 276.67,-477.16 279.46,-472.55 272.84,-478.32 272.84,-478.32"/>
<ellipse fill="none" stroke="black" cx="269.78" cy="-479.25" rx="3.2" ry="3.2"/>
</g>
<!-- gl_journalgenerator -->
<g id="node4" class="node">
<title>gl_journalgenerator</title>
<g id="a_node4"><a xlink:href="../../tables/gl_journalgenerator.html" xlink:title="gl_journalgenerator" target="_top">
<polygon fill="#ffffff" stroke="transparent" points="717,-431 717,-893 1020,-893 1020,-431 717,-431"/>
<polygon fill="#f5f5f5" stroke="transparent" points="719.5,-869 719.5,-891 1018.5,-891 1018.5,-869 719.5,-869"/>
<polygon fill="none" stroke="black" points="719.5,-869 719.5,-891 1018.5,-891 1018.5,-869 719.5,-869"/>
<text text-anchor="start" x="724.5" y="-878.2" font-family="Helvetica,sans-Serif" font-weight="bold" font-size="11.00">gl_journalgenerator</text>
<text text-anchor="start" x="983.5" y="-877.2" font-family="Helvetica,sans-Serif" font-size="11.00">[table]</text>
<polygon fill="none" stroke="black" points="719.5,-847 719.5,-869 935.5,-869 935.5,-847 719.5,-847"/>
<image xlink:href="../../images/primaryKeys.png" width="11px" height="12px" preserveAspectRatio="xMinYMin meet" x="724.5" y="-864"/>
<text text-anchor="start" x="739.5" y="-855.2" font-family="Helvetica,sans-Serif" font-size="11.00">gl_journalgenerator_id</text>
<polygon fill="none" stroke="black" points="935.5,-847 935.5,-869 1018.5,-869 1018.5,-847 935.5,-847"/>
<text text-anchor="start" x="938.5" y="-855.2" font-family="Helvetica,sans-Serif" font-size="11.00">numeric[10]</text>
<polygon fill="none" stroke="black" points="719.5,-825 719.5,-847 935.5,-847 935.5,-825 719.5,-825"/>
<text text-anchor="start" x="739.5" y="-833.2" font-family="Helvetica,sans-Serif" font-size="11.00">ad_client_id</text>
<polygon fill="none" stroke="black" points="935.5,-825 935.5,-847 1018.5,-847 1018.5,-825 935.5,-825"/>
<text text-anchor="start" x="938.5" y="-833.2" font-family="Helvetica,sans-Serif" font-size="11.00">numeric[10]</text>
<polygon fill="none" stroke="black" points="719.5,-803 719.5,-825 935.5,-825 935.5,-803 719.5,-803"/>
<text text-anchor="start" x="739.5" y="-811.2" font-family="Helvetica,sans-Serif" font-size="11.00">ad_org_id</text>
<polygon fill="none" stroke="black" points="935.5,-803 935.5,-825 1018.5,-825 1018.5,-803 935.5,-803"/>
<text text-anchor="start" x="938.5" y="-811.2" font-family="Helvetica,sans-Serif" font-size="11.00">numeric[10]</text>
<polygon fill="none" stroke="black" points="719.5,-781 719.5,-803 935.5,-803 935.5,-781 719.5,-781"/>
<text text-anchor="start" x="739.5" y="-789.2" font-family="Helvetica,sans-Serif" font-size="11.00">created</text>
<polygon fill="none" stroke="black" points="935.5,-781 935.5,-803 1018.5,-803 1018.5,-781 935.5,-781"/>
<text text-anchor="start" x="938.5" y="-789.2" font-family="Helvetica,sans-Serif" font-size="11.00">timestamp[29,6]</text>
<polygon fill="none" stroke="black" points="719.5,-759 719.5,-781 935.5,-781 935.5,-759 719.5,-759"/>
<text text-anchor="start" x="739.5" y="-767.2" font-family="Helvetica,sans-Serif" font-size="11.00">createdby</text>
<polygon fill="none" stroke="black" points="935.5,-759 935.5,-781 1018.5,-781 1018.5,-759 935.5,-759"/>
<text text-anchor="start" x="938.5" y="-767.2" font-family="Helvetica,sans-Serif" font-size="11.00">numeric[10]</text>
<polygon fill="none" stroke="black" points="719.5,-737 719.5,-759 935.5,-759 935.5,-737 719.5,-737"/>
<text text-anchor="start" x="739.5" y="-745.2" font-family="Helvetica,sans-Serif" font-size="11.00">description</text>
<polygon fill="none" stroke="black" points="935.5,-737 935.5,-759 1018.5,-759 1018.5,-737 935.5,-737"/>
<text text-anchor="start" x="938.5" y="-745.2" font-family="Helvetica,sans-Serif" font-size="11.00">varchar[255]</text>
<polygon fill="none" stroke="black" points="719.5,-715 719.5,-737 935.5,-737 935.5,-715 719.5,-715"/>
<text text-anchor="start" x="739.5" y="-723.2" font-family="Helvetica,sans-Serif" font-size="11.00">help</text>
<polygon fill="none" stroke="black" points="935.5,-715 935.5,-737 1018.5,-737 1018.5,-715 935.5,-715"/>
<text text-anchor="start" x="938.5" y="-723.2" font-family="Helvetica,sans-Serif" font-size="11.00">varchar[2000]</text>
<polygon fill="none" stroke="black" points="719.5,-693 719.5,-715 935.5,-715 935.5,-693 719.5,-693"/>
<text text-anchor="start" x="739.5" y="-701.2" font-family="Helvetica,sans-Serif" font-size="11.00">isactive</text>
<polygon fill="none" stroke="black" points="935.5,-693 935.5,-715 1018.5,-715 1018.5,-693 935.5,-693"/>
<text text-anchor="start" x="938.5" y="-701.2" font-family="Helvetica,sans-Serif" font-size="11.00">bpchar[1]</text>
<polygon fill="none" stroke="black" points="719.5,-671 719.5,-693 935.5,-693 935.5,-671 719.5,-671"/>
<text text-anchor="start" x="739.5" y="-679.2" font-family="Helvetica,sans-Serif" font-size="11.00">name</text>
<polygon fill="none" stroke="black" points="935.5,-671 935.5,-693 1018.5,-693 1018.5,-671 935.5,-671"/>
<text text-anchor="start" x="938.5" y="-679.2" font-family="Helvetica,sans-Serif" font-size="11.00">varchar[60]</text>
<polygon fill="none" stroke="black" points="719.5,-649 719.5,-671 935.5,-671 935.5,-649 719.5,-649"/>
<text text-anchor="start" x="739.5" y="-657.2" font-family="Helvetica,sans-Serif" font-size="11.00">updated</text>
<polygon fill="none" stroke="black" points="935.5,-649 935.5,-671 1018.5,-671 1018.5,-649 935.5,-649"/>
<text text-anchor="start" x="938.5" y="-657.2" font-family="Helvetica,sans-Serif" font-size="11.00">timestamp[29,6]</text>
<polygon fill="none" stroke="black" points="719.5,-627 719.5,-649 935.5,-649 935.5,-627 719.5,-627"/>
<text text-anchor="start" x="739.5" y="-635.2" font-family="Helvetica,sans-Serif" font-size="11.00">updatedby</text>
<polygon fill="none" stroke="black" points="935.5,-627 935.5,-649 1018.5,-649 1018.5,-627 935.5,-627"/>
<text text-anchor="start" x="938.5" y="-635.2" font-family="Helvetica,sans-Serif" font-size="11.00">numeric[10]</text>
<polygon fill="none" stroke="black" points="719.5,-605 719.5,-627 935.5,-627 935.5,-605 719.5,-605"/>
<image xlink:href="../../images/foreignKeys.png" width="11px" height="12px" preserveAspectRatio="xMinYMin meet" x="724.5" y="-622"/>
<text text-anchor="start" x="739.5" y="-613.2" font-family="Helvetica,sans-Serif" font-size="11.00">c_elementvalueadjustdr_id</text>
<polygon fill="none" stroke="black" points="935.5,-605 935.5,-627 1018.5,-627 1018.5,-605 935.5,-605"/>
<text text-anchor="start" x="938.5" y="-613.2" font-family="Helvetica,sans-Serif" font-size="11.00">numeric[10]</text>
<polygon fill="none" stroke="black" points="719.5,-583 719.5,-605 935.5,-605 935.5,-583 719.5,-583"/>
<image xlink:href="../../images/foreignKeys.png" width="11px" height="12px" preserveAspectRatio="xMinYMin meet" x="724.5" y="-600"/>
<text text-anchor="start" x="739.5" y="-591.2" font-family="Helvetica,sans-Serif" font-size="11.00">c_elementvalueadjustcr_id</text>
<polygon fill="none" stroke="black" points="935.5,-583 935.5,-605 1018.5,-605 1018.5,-583 935.5,-583"/>
<text text-anchor="start" x="938.5" y="-591.2" font-family="Helvetica,sans-Serif" font-size="11.00">numeric[10]</text>
<polygon fill="none" stroke="black" points="719.5,-561 719.5,-583 935.5,-583 935.5,-561 719.5,-561"/>
<image xlink:href="../../images/foreignKeys.png" width="11px" height="12px" preserveAspectRatio="xMinYMin meet" x="724.5" y="-578"/>
<text text-anchor="start" x="739.5" y="-569.2" font-family="Helvetica,sans-Serif" font-size="11.00">c_doctype_id</text>
<polygon fill="none" stroke="black" points="935.5,-561 935.5,-583 1018.5,-583 1018.5,-561 935.5,-561"/>
<text text-anchor="start" x="938.5" y="-569.2" font-family="Helvetica,sans-Serif" font-size="11.00">numeric[10]</text>
<polygon fill="none" stroke="black" points="719.5,-539 719.5,-561 935.5,-561 935.5,-539 719.5,-539"/>
<image xlink:href="../../images/foreignKeys.png" width="11px" height="12px" preserveAspectRatio="xMinYMin meet" x="724.5" y="-556"/>
<text text-anchor="start" x="739.5" y="-547.2" font-family="Helvetica,sans-Serif" font-size="11.00">gl_category_id</text>
<polygon fill="none" stroke="black" points="935.5,-539 935.5,-561 1018.5,-561 1018.5,-539 935.5,-539"/>
<text text-anchor="start" x="938.5" y="-547.2" font-family="Helvetica,sans-Serif" font-size="11.00">numeric[10]</text>
<polygon fill="none" stroke="black" points="719.5,-517 719.5,-539 935.5,-539 935.5,-517 719.5,-517"/>
<text text-anchor="start" x="739.5" y="-525.2" font-family="Helvetica,sans-Serif" font-size="11.00">generategljournal</text>
<polygon fill="none" stroke="black" points="935.5,-517 935.5,-539 1018.5,-539 1018.5,-517 935.5,-517"/>
<text text-anchor="start" x="938.5" y="-525.2" font-family="Helvetica,sans-Serif" font-size="11.00">bpchar[1]</text>
<polygon fill="none" stroke="black" points="719.5,-495 719.5,-517 935.5,-517 935.5,-495 719.5,-495"/>
<image xlink:href="../../images/foreignKeys.png" width="11px" height="12px" preserveAspectRatio="xMinYMin meet" x="724.5" y="-512"/>
<text text-anchor="start" x="739.5" y="-503.2" font-family="Helvetica,sans-Serif" font-size="11.00">c_acctschema_id</text>
<polygon fill="none" stroke="black" points="935.5,-495 935.5,-517 1018.5,-517 1018.5,-495 935.5,-495"/>
<text text-anchor="start" x="938.5" y="-503.2" font-family="Helvetica,sans-Serif" font-size="11.00">numeric[10]</text>
<polygon fill="none" stroke="black" points="719.5,-473 719.5,-495 935.5,-495 935.5,-473 719.5,-473"/>
<text text-anchor="start" x="739.5" y="-481.2" font-family="Helvetica,sans-Serif" font-size="11.00">postingtype</text>
<polygon fill="none" stroke="black" points="935.5,-473 935.5,-495 1018.5,-495 1018.5,-473 935.5,-473"/>
<text text-anchor="start" x="938.5" y="-481.2" font-family="Helvetica,sans-Serif" font-size="11.00">bpchar[1]</text>
<polygon fill="#ffffff" stroke="transparent" points="719.5,-451 719.5,-473 935.5,-473 935.5,-451 719.5,-451"/>
<polygon fill="none" stroke="black" points="719.5,-451 719.5,-473 935.5,-473 935.5,-451 719.5,-451"/>
<text text-anchor="start" x="739.5" y="-459.2" font-family="Helvetica,sans-Serif" font-size="11.00">gl_journalgenerator_uu</text>
<polygon fill="none" stroke="black" points="935.5,-451 935.5,-473 1018.5,-473 1018.5,-451 935.5,-451"/>
<text text-anchor="start" x="938.5" y="-459.2" font-family="Helvetica,sans-Serif" font-size="11.00">varchar[36]</text>
<polygon fill="#ffffff" stroke="transparent" points="719.5,-433 719.5,-451 1018.5,-451 1018.5,-433 719.5,-433"/>
<polygon fill="none" stroke="black" points="719.5,-433 719.5,-451 1018.5,-451 1018.5,-433 719.5,-433"/>
<polygon fill="#ffffff" stroke="transparent" points="720.5,-434 720.5,-450 822.5,-450 822.5,-434 720.5,-434"/>
<text text-anchor="start" x="722.5" y="-439.2" font-family="Helvetica,sans-Serif" font-size="11.00">&lt; 5</text>
<polygon fill="#ffffff" stroke="transparent" points="822.5,-434 822.5,-450 915.5,-450 915.5,-434 822.5,-434"/>
<text text-anchor="start" x="865.5" y="-439.2" font-family="Helvetica,sans-Serif" font-size="11.00"> &#160;</text>
<polygon fill="#ffffff" stroke="transparent" points="915.5,-434 915.5,-450 1017.5,-450 1017.5,-434 915.5,-434"/>
<text text-anchor="start" x="999.5" y="-439.2" font-family="Helvetica,sans-Serif" font-size="11.00">1 &gt;</text>
<polygon fill="black" stroke="black" points="822.5,-434 822.5,-450 822.5,-450 822.5,-434 822.5,-434"/>
<polygon fill="black" stroke="black" points="915.5,-434 915.5,-450 915.5,-450 915.5,-434 915.5,-434"/>
<polygon fill="none" stroke="black" stroke-width="2" points="718,-432 718,-892 1019,-892 1019,-432 718,-432"/>
</a>
</g>
</g>
<!-- gl_journalgenerator&#45;&gt;c_doctype -->
<g id="edge5" class="edge">
<title>gl_journalgenerator:w&#45;&gt;c_doctype:e</title>
<path fill="none" stroke="black" d="M703.86,-573.88C628.74,-596.03 770.15,-806 669.5,-806"/>
<polygon fill="black" stroke="black" points="710.57,-573.02 718.96,-575.57 714.53,-572.51 718.5,-572 718.5,-572 718.5,-572 714.53,-572.51 718.04,-568.43 710.57,-573.02 710.57,-573.02"/>
<ellipse fill="none" stroke="black" cx="707.39" cy="-573.43" rx="3.2" ry="3.2"/>
</g>
<!-- gl_journalgenerator&#45;&gt;gl_category -->
<g id="edge8" class="edge">
<title>gl_journalgenerator:w&#45;&gt;gl_category:e</title>
<path fill="none" stroke="black" d="M703.74,-548.54C633.41,-532.56 748.46,-389.8 676,-330 641.46,-301.5 313.3,-310.49 273,-330 216.9,-357.16 248.33,-440 186,-440"/>
<polygon fill="black" stroke="black" points="710.54,-549.21 718.15,-553.58 714.52,-549.61 718.5,-550 718.5,-550 718.5,-550 714.52,-549.61 718.85,-546.42 710.54,-549.21 710.54,-549.21"/>
<ellipse fill="none" stroke="black" cx="707.35" cy="-548.9" rx="3.2" ry="3.2"/>
</g>
<!-- gl_journalgenerator&#45;&gt;c_elementvalue -->
<g id="edge6" class="edge">
<title>gl_journalgenerator:w&#45;&gt;c_elementvalue:e</title>
<path fill="none" stroke="black" d="M705.15,-599.41C670.83,-633.2 714.86,-815.05 676,-850 639.34,-882.97 282.31,-876 233,-876"/>
<polygon fill="black" stroke="black" points="711.09,-597 719.85,-597.34 714.79,-595.5 718.5,-594 718.5,-594 718.5,-594 714.79,-595.5 717.15,-590.66 711.09,-597 711.09,-597"/>
<ellipse fill="none" stroke="black" cx="708.12" cy="-598.21" rx="3.2" ry="3.2"/>
</g>
<!-- gl_journalgenerator&#45;&gt;c_elementvalue -->
<g id="edge7" class="edge">
<title>gl_journalgenerator:w&#45;&gt;c_elementvalue:e</title>
<path fill="none" stroke="black" d="M705.13,-621.45C670.84,-655.54 715.89,-838.93 676,-873 601.14,-936.93 331.45,-876 233,-876"/>
<polygon fill="black" stroke="black" points="711.09,-619.02 719.86,-619.33 714.8,-617.51 718.5,-616 718.5,-616 718.5,-616 714.8,-617.51 717.14,-612.67 711.09,-619.02 711.09,-619.02"/>
<ellipse fill="none" stroke="black" cx="708.13" cy="-620.23" rx="3.2" ry="3.2"/>
</g>
<!-- c_acctschema -->
<g id="node5" class="node">
<title>c_acctschema</title>
<g id="a_node5"><a xlink:href="../../tables/c_acctschema.html" xlink:title="c_acctschema" target="_top">
<polygon fill="#ffffff" stroke="transparent" points="374,-37 374,-293 575,-293 575,-37 374,-37"/>
<polygon fill="#f5f5f5" stroke="transparent" points="374.5,-271 374.5,-293 575.5,-293 575.5,-271 374.5,-271"/>
<polygon fill="none" stroke="black" points="374.5,-271 374.5,-293 575.5,-293 575.5,-271 374.5,-271"/>
<text text-anchor="start" x="379.5" y="-280.2" font-family="Helvetica,sans-Serif" font-weight="bold" font-size="11.00">c_acctschema</text>
<text text-anchor="start" x="540.5" y="-279.2" font-family="Helvetica,sans-Serif" font-size="11.00">[table]</text>
<polygon fill="none" stroke="black" points="374.5,-249 374.5,-271 575.5,-271 575.5,-249 374.5,-249"/>
<image xlink:href="../../images/primaryKeys.png" width="11px" height="12px" preserveAspectRatio="xMinYMin meet" x="379.5" y="-266"/>
<text text-anchor="start" x="394.5" y="-257.2" font-family="Helvetica,sans-Serif" font-size="11.00">c_acctschema_id</text>
<polygon fill="#ffffff" stroke="transparent" points="374.5,-227 374.5,-249 575.5,-249 575.5,-227 374.5,-227"/>
<polygon fill="none" stroke="black" points="374.5,-227 374.5,-249 575.5,-249 575.5,-227 374.5,-227"/>
<image xlink:href="../../images/foreignKeys.png" width="11px" height="12px" preserveAspectRatio="xMinYMin meet" x="379.5" y="-244"/>
<text text-anchor="start" x="394.5" y="-235.2" font-family="Helvetica,sans-Serif" font-size="11.00">ad_client_id</text>
<polygon fill="none" stroke="black" points="374.5,-205 374.5,-227 575.5,-227 575.5,-205 374.5,-205"/>
<image xlink:href="../../images/foreignKeys.png" width="11px" height="12px" preserveAspectRatio="xMinYMin meet" x="379.5" y="-222"/>
<text text-anchor="start" x="394.5" y="-213.2" font-family="Helvetica,sans-Serif" font-size="11.00">ad_org_id</text>
<polygon fill="#ffffff" stroke="transparent" points="374.5,-183 374.5,-205 575.5,-205 575.5,-183 374.5,-183"/>
<polygon fill="none" stroke="black" points="374.5,-183 374.5,-205 575.5,-205 575.5,-183 374.5,-183"/>
<text text-anchor="start" x="394.5" y="-191.2" font-family="Helvetica,sans-Serif" font-size="11.00">name</text>
<polygon fill="none" stroke="black" points="374.5,-161 374.5,-183 575.5,-183 575.5,-161 374.5,-161"/>
<image xlink:href="../../images/foreignKeys.png" width="11px" height="12px" preserveAspectRatio="xMinYMin meet" x="379.5" y="-178"/>
<text text-anchor="start" x="394.5" y="-169.2" font-family="Helvetica,sans-Serif" font-size="11.00">c_currency_id</text>
<polygon fill="none" stroke="black" points="374.5,-139 374.5,-161 575.5,-161 575.5,-139 374.5,-139"/>
<image xlink:href="../../images/foreignKeys.png" width="11px" height="12px" preserveAspectRatio="xMinYMin meet" x="379.5" y="-156"/>
<text text-anchor="start" x="394.5" y="-147.2" font-family="Helvetica,sans-Serif" font-size="11.00">c_period_id</text>
<polygon fill="none" stroke="black" points="374.5,-117 374.5,-139 575.5,-139 575.5,-117 374.5,-117"/>
<image xlink:href="../../images/foreignKeys.png" width="11px" height="12px" preserveAspectRatio="xMinYMin meet" x="379.5" y="-134"/>
<text text-anchor="start" x="394.5" y="-125.2" font-family="Helvetica,sans-Serif" font-size="11.00">m_costtype_id</text>
<polygon fill="none" stroke="black" points="374.5,-95 374.5,-117 575.5,-117 575.5,-95 374.5,-95"/>
<image xlink:href="../../images/foreignKeys.png" width="11px" height="12px" preserveAspectRatio="xMinYMin meet" x="379.5" y="-112"/>
<text text-anchor="start" x="394.5" y="-103.2" font-family="Helvetica,sans-Serif" font-size="11.00">ad_orgonly_id</text>
<polygon fill="#ffffff" stroke="transparent" points="374.5,-73 374.5,-95 575.5,-95 575.5,-73 374.5,-73"/>
<polygon fill="none" stroke="black" points="374.5,-73 374.5,-95 575.5,-95 575.5,-73 374.5,-73"/>
<text text-anchor="start" x="394.5" y="-81.2" font-family="Helvetica,sans-Serif" font-size="11.00">c_acctschema_uu</text>
<polygon fill="none" stroke="black" points="374.5,-55 374.5,-73 575.5,-73 575.5,-55 374.5,-55"/>
<text text-anchor="start" x="377.5" y="-61.2" font-family="Helvetica,sans-Serif" font-size="11.00">...</text>
<polygon fill="#ffffff" stroke="transparent" points="374.5,-37 374.5,-55 575.5,-55 575.5,-37 374.5,-37"/>
<polygon fill="none" stroke="black" points="374.5,-37 374.5,-55 575.5,-55 575.5,-37 374.5,-37"/>
<polygon fill="#ffffff" stroke="transparent" points="375.5,-38 375.5,-54 436.5,-54 436.5,-38 375.5,-38"/>
<text text-anchor="start" x="377.5" y="-43.2" font-family="Helvetica,sans-Serif" font-size="11.00">&lt; 6</text>
<polygon fill="#ffffff" stroke="transparent" points="436.5,-38 436.5,-54 508.5,-54 508.5,-38 436.5,-38"/>
<text text-anchor="start" x="458.5" y="-43.2" font-family="Helvetica,sans-Serif" font-size="11.00">1 row</text>
<polygon fill="#ffffff" stroke="transparent" points="508.5,-38 508.5,-54 574.5,-54 574.5,-38 508.5,-38"/>
<text text-anchor="start" x="550.5" y="-43.2" font-family="Helvetica,sans-Serif" font-size="11.00">55 &gt;</text>
<polygon fill="black" stroke="black" points="436.5,-38 436.5,-54 436.5,-54 436.5,-38 436.5,-38"/>
<polygon fill="black" stroke="black" points="508.5,-38 508.5,-54 508.5,-54 508.5,-38 508.5,-38"/>
</a>
</g>
</g>
<!-- gl_journalgenerator&#45;&gt;c_acctschema -->
<g id="edge4" class="edge">
<title>gl_journalgenerator:w&#45;&gt;c_acctschema:e</title>
<path fill="none" stroke="black" d="M704.13,-504.63C640.08,-490.7 728.76,-373.6 676,-307 645.63,-268.66 625.41,-260 576.5,-260"/>
<polygon fill="black" stroke="black" points="710.54,-505.24 718.16,-509.58 714.52,-505.62 718.5,-506 718.5,-506 718.5,-506 714.52,-505.62 718.84,-502.42 710.54,-505.24 710.54,-505.24"/>
<ellipse fill="none" stroke="black" cx="707.35" cy="-504.94" rx="3.2" ry="3.2"/>
</g>
<!-- gl_journalgeneratorline -->
<g id="node6" class="node">
<title>gl_journalgeneratorline</title>
<g id="a_node6"><a xlink:href="../../tables/gl_journalgeneratorline.html" xlink:title="gl_journalgeneratorline" target="_top">
<polygon fill="#ffffff" stroke="transparent" points="1069,-826 1069,-1016 1286,-1016 1286,-826 1069,-826"/>
<polygon fill="#f5f5f5" stroke="transparent" points="1069.5,-994 1069.5,-1016 1286.5,-1016 1286.5,-994 1069.5,-994"/>
<polygon fill="none" stroke="black" points="1069.5,-994 1069.5,-1016 1286.5,-1016 1286.5,-994 1069.5,-994"/>
<text text-anchor="start" x="1074.5" y="-1003.2" font-family="Helvetica,sans-Serif" font-weight="bold" font-size="11.00">gl_journalgeneratorline</text>
<text text-anchor="start" x="1251.5" y="-1002.2" font-family="Helvetica,sans-Serif" font-size="11.00">[table]</text>
<polygon fill="none" stroke="black" points="1069.5,-972 1069.5,-994 1286.5,-994 1286.5,-972 1069.5,-972"/>
<image xlink:href="../../images/primaryKeys.png" width="11px" height="12px" preserveAspectRatio="xMinYMin meet" x="1074.5" y="-989"/>
<text text-anchor="start" x="1089.5" y="-980.2" font-family="Helvetica,sans-Serif" font-size="11.00">gl_journalgeneratorline_id</text>
<polygon fill="none" stroke="black" points="1069.5,-950 1069.5,-972 1286.5,-972 1286.5,-950 1069.5,-950"/>
<image xlink:href="../../images/foreignKeys.png" width="11px" height="12px" preserveAspectRatio="xMinYMin meet" x="1074.5" y="-967"/>
<text text-anchor="start" x="1089.5" y="-958.2" font-family="Helvetica,sans-Serif" font-size="11.00">gl_journalgenerator_id</text>
<polygon fill="none" stroke="black" points="1069.5,-928 1069.5,-950 1286.5,-950 1286.5,-928 1069.5,-928"/>
<image xlink:href="../../images/foreignKeys.png" width="11px" height="12px" preserveAspectRatio="xMinYMin meet" x="1074.5" y="-945"/>
<text text-anchor="start" x="1089.5" y="-936.2" font-family="Helvetica,sans-Serif" font-size="11.00">c_elementvaluedr_id</text>
<polygon fill="none" stroke="black" points="1069.5,-906 1069.5,-928 1286.5,-928 1286.5,-906 1069.5,-906"/>
<image xlink:href="../../images/foreignKeys.png" width="11px" height="12px" preserveAspectRatio="xMinYMin meet" x="1074.5" y="-923"/>
<text text-anchor="start" x="1089.5" y="-914.2" font-family="Helvetica,sans-Serif" font-size="11.00">c_elementvaluecr_id</text>
<polygon fill="none" stroke="black" points="1069.5,-884 1069.5,-906 1286.5,-906 1286.5,-884 1069.5,-884"/>
<image xlink:href="../../images/foreignKeys.png" width="11px" height="12px" preserveAspectRatio="xMinYMin meet" x="1074.5" y="-901"/>
<text text-anchor="start" x="1089.5" y="-892.2" font-family="Helvetica,sans-Serif" font-size="11.00">c_bpartner_id</text>
<polygon fill="#ffffff" stroke="transparent" points="1069.5,-862 1069.5,-884 1286.5,-884 1286.5,-862 1069.5,-862"/>
<polygon fill="none" stroke="black" points="1069.5,-862 1069.5,-884 1286.5,-884 1286.5,-862 1069.5,-862"/>
<text text-anchor="start" x="1089.5" y="-870.2" font-family="Helvetica,sans-Serif" font-size="11.00">gl_journalgeneratorline_uu</text>
<polygon fill="none" stroke="black" points="1069.5,-844 1069.5,-862 1286.5,-862 1286.5,-844 1069.5,-844"/>
<text text-anchor="start" x="1072.5" y="-850.2" font-family="Helvetica,sans-Serif" font-size="11.00">...</text>
<polygon fill="#ffffff" stroke="transparent" points="1069.5,-826 1069.5,-844 1286.5,-844 1286.5,-826 1069.5,-826"/>
<polygon fill="none" stroke="black" points="1069.5,-826 1069.5,-844 1286.5,-844 1286.5,-826 1069.5,-826"/>
<polygon fill="#ffffff" stroke="transparent" points="1070.5,-827 1070.5,-843 1145.5,-843 1145.5,-827 1070.5,-827"/>
<text text-anchor="start" x="1072.5" y="-832.2" font-family="Helvetica,sans-Serif" font-size="11.00">&lt; 4</text>
<polygon fill="#ffffff" stroke="transparent" points="1145.5,-827 1145.5,-843 1211.5,-843 1211.5,-827 1145.5,-827"/>
<text text-anchor="start" x="1175" y="-832.2" font-family="Helvetica,sans-Serif" font-size="11.00"> &#160;</text>
<polygon fill="#ffffff" stroke="transparent" points="1211.5,-827 1211.5,-843 1285.5,-843 1285.5,-827 1211.5,-827"/>
<text text-anchor="start" x="1267.5" y="-832.2" font-family="Helvetica,sans-Serif" font-size="11.00">1 &gt;</text>
<polygon fill="black" stroke="black" points="1145.5,-827 1145.5,-843 1145.5,-843 1145.5,-827 1145.5,-827"/>
<polygon fill="black" stroke="black" points="1211.5,-827 1211.5,-843 1211.5,-843 1211.5,-827 1211.5,-827"/>
</a>
</g>
</g>
<!-- gl_journalgeneratorline&#45;&gt;c_elementvalue -->
<g id="edge9" class="edge">
<title>gl_journalgeneratorline:w&#45;&gt;c_elementvalue:e</title>
<path fill="none" stroke="black" d="M1053.96,-917.05C868.26,-918.24 439.63,-940.31 273,-897 253.57,-891.95 253.08,-876 233,-876"/>
<polygon fill="black" stroke="black" points="1060.5,-917.03 1068.51,-920.6 1064.5,-917.01 1068.5,-917 1068.5,-917 1068.5,-917 1064.5,-917.01 1068.49,-913.4 1060.5,-917.03 1060.5,-917.03"/>
<ellipse fill="none" stroke="black" cx="1057.3" cy="-917.04" rx="3.2" ry="3.2"/>
</g>
<!-- gl_journalgeneratorline&#45;&gt;c_elementvalue -->
<g id="edge10" class="edge">
<title>gl_journalgeneratorline:w&#45;&gt;c_elementvalue:e</title>
<path fill="none" stroke="black" d="M1053.87,-939.07C711.46,-942.51 590.22,-1064.88 273,-920 248.96,-909.02 259.43,-876 233,-876"/>
<polygon fill="black" stroke="black" points="1060.5,-939.04 1068.52,-942.6 1064.5,-939.02 1068.5,-939 1068.5,-939 1068.5,-939 1064.5,-939.02 1068.48,-935.4 1060.5,-939.04 1060.5,-939.04"/>
<ellipse fill="none" stroke="black" cx="1057.3" cy="-939.06" rx="3.2" ry="3.2"/>
</g>
<!-- gl_journalgeneratorline&#45;&gt;gl_journalgenerator -->
<g id="edge11" class="edge">
<title>gl_journalgeneratorline:w&#45;&gt;gl_journalgenerator:e</title>
<path fill="none" stroke="black" d="M1054.59,-957.09C1028.67,-938.27 1064.25,-858 1019.5,-858"/>
<polygon fill="black" stroke="black" points="1060.8,-958.83 1067.53,-964.47 1064.65,-959.92 1068.5,-961 1068.5,-961 1068.5,-961 1064.65,-959.92 1069.47,-957.53 1060.8,-958.83 1060.8,-958.83"/>
<ellipse fill="none" stroke="black" cx="1057.72" cy="-957.97" rx="3.2" ry="3.2"/>
</g>
</g>
</svg>
