<?xml version="1.0" encoding="UTF-8" standalone="no"?>
<!DOCTYPE svg PUBLIC "-//W3C//DTD SVG 1.1//EN"
 "http://www.w3.org/Graphics/SVG/1.1/DTD/svg11.dtd">
<!-- Generated by graphviz version 2.43.0 (0)
 -->
<!-- Title: oneDegreeRelationshipsDiagram Pages: 1 -->
<svg width="663pt" height="406pt"
 viewBox="0.00 0.00 663.00 406.00" xmlns="http://www.w3.org/2000/svg" xmlns:xlink="http://www.w3.org/1999/xlink">
<g id="graph0" class="graph" transform="scale(1 1) rotate(0) translate(4 402)">
<title>oneDegreeRelationshipsDiagram</title>
<polygon fill="#ffffff" stroke="transparent" points="-4,4 -4,-402 659,-402 659,4 -4,4"/>
<text text-anchor="middle" x="71.5" y="-7.2" font-family="Helvetica,sans-Serif" font-size="11.00">Generated by SchemaSpy</text>
<!-- k_categoryvalue -->
<g id="node1" class="node">
<title>k_categoryvalue</title>
<g id="a_node1"><a xlink:href="../../tables/k_categoryvalue.html" xlink:title="k_categoryvalue" target="_top">
<polygon fill="#ffffff" stroke="transparent" points="182,-37 182,-345 434,-345 434,-37 182,-37"/>
<polygon fill="#f5f5f5" stroke="transparent" points="184,-321 184,-343 432,-343 432,-321 184,-321"/>
<polygon fill="none" stroke="black" points="184,-321 184,-343 432,-343 432,-321 184,-321"/>
<text text-anchor="start" x="189" y="-330.2" font-family="Helvetica,sans-Serif" font-weight="bold" font-size="11.00">k_categoryvalue</text>
<text text-anchor="start" x="397" y="-329.2" font-family="Helvetica,sans-Serif" font-size="11.00">[table]</text>
<polygon fill="none" stroke="black" points="184,-299 184,-321 349,-321 349,-299 184,-299"/>
<image xlink:href="../../images/primaryKeys.png" width="11px" height="12px" preserveAspectRatio="xMinYMin meet" x="189" y="-316"/>
<text text-anchor="start" x="204" y="-307.2" font-family="Helvetica,sans-Serif" font-size="11.00">k_categoryvalue_id</text>
<polygon fill="none" stroke="black" points="349,-299 349,-321 432,-321 432,-299 349,-299"/>
<text text-anchor="start" x="352" y="-307.2" font-family="Helvetica,sans-Serif" font-size="11.00">numeric[10]</text>
<polygon fill="none" stroke="black" points="184,-277 184,-299 349,-299 349,-277 184,-277"/>
<text text-anchor="start" x="204" y="-285.2" font-family="Helvetica,sans-Serif" font-size="11.00">ad_client_id</text>
<polygon fill="none" stroke="black" points="349,-277 349,-299 432,-299 432,-277 349,-277"/>
<text text-anchor="start" x="352" y="-285.2" font-family="Helvetica,sans-Serif" font-size="11.00">numeric[10]</text>
<polygon fill="none" stroke="black" points="184,-255 184,-277 349,-277 349,-255 184,-255"/>
<text text-anchor="start" x="204" y="-263.2" font-family="Helvetica,sans-Serif" font-size="11.00">ad_org_id</text>
<polygon fill="none" stroke="black" points="349,-255 349,-277 432,-277 432,-255 349,-255"/>
<text text-anchor="start" x="352" y="-263.2" font-family="Helvetica,sans-Serif" font-size="11.00">numeric[10]</text>
<polygon fill="none" stroke="black" points="184,-233 184,-255 349,-255 349,-233 184,-233"/>
<text text-anchor="start" x="204" y="-241.2" font-family="Helvetica,sans-Serif" font-size="11.00">isactive</text>
<polygon fill="none" stroke="black" points="349,-233 349,-255 432,-255 432,-233 349,-233"/>
<text text-anchor="start" x="352" y="-241.2" font-family="Helvetica,sans-Serif" font-size="11.00">bpchar[1]</text>
<polygon fill="none" stroke="black" points="184,-211 184,-233 349,-233 349,-211 184,-211"/>
<text text-anchor="start" x="204" y="-219.2" font-family="Helvetica,sans-Serif" font-size="11.00">created</text>
<polygon fill="none" stroke="black" points="349,-211 349,-233 432,-233 432,-211 349,-211"/>
<text text-anchor="start" x="352" y="-219.2" font-family="Helvetica,sans-Serif" font-size="11.00">timestamp[29,6]</text>
<polygon fill="none" stroke="black" points="184,-189 184,-211 349,-211 349,-189 184,-189"/>
<text text-anchor="start" x="204" y="-197.2" font-family="Helvetica,sans-Serif" font-size="11.00">createdby</text>
<polygon fill="none" stroke="black" points="349,-189 349,-211 432,-211 432,-189 349,-189"/>
<text text-anchor="start" x="352" y="-197.2" font-family="Helvetica,sans-Serif" font-size="11.00">numeric[10]</text>
<polygon fill="none" stroke="black" points="184,-167 184,-189 349,-189 349,-167 184,-167"/>
<text text-anchor="start" x="204" y="-175.2" font-family="Helvetica,sans-Serif" font-size="11.00">updated</text>
<polygon fill="none" stroke="black" points="349,-167 349,-189 432,-189 432,-167 349,-167"/>
<text text-anchor="start" x="352" y="-175.2" font-family="Helvetica,sans-Serif" font-size="11.00">timestamp[29,6]</text>
<polygon fill="none" stroke="black" points="184,-145 184,-167 349,-167 349,-145 184,-145"/>
<text text-anchor="start" x="204" y="-153.2" font-family="Helvetica,sans-Serif" font-size="11.00">updatedby</text>
<polygon fill="none" stroke="black" points="349,-145 349,-167 432,-167 432,-145 349,-145"/>
<text text-anchor="start" x="352" y="-153.2" font-family="Helvetica,sans-Serif" font-size="11.00">numeric[10]</text>
<polygon fill="none" stroke="black" points="184,-123 184,-145 349,-145 349,-123 184,-123"/>
<text text-anchor="start" x="204" y="-131.2" font-family="Helvetica,sans-Serif" font-size="11.00">name</text>
<polygon fill="none" stroke="black" points="349,-123 349,-145 432,-145 432,-123 349,-123"/>
<text text-anchor="start" x="352" y="-131.2" font-family="Helvetica,sans-Serif" font-size="11.00">varchar[60]</text>
<polygon fill="none" stroke="black" points="184,-101 184,-123 349,-123 349,-101 184,-101"/>
<text text-anchor="start" x="204" y="-109.2" font-family="Helvetica,sans-Serif" font-size="11.00">description</text>
<polygon fill="none" stroke="black" points="349,-101 349,-123 432,-123 432,-101 349,-101"/>
<text text-anchor="start" x="352" y="-109.2" font-family="Helvetica,sans-Serif" font-size="11.00">varchar[255]</text>
<polygon fill="none" stroke="black" points="184,-79 184,-101 349,-101 349,-79 184,-79"/>
<image xlink:href="../../images/foreignKeys.png" width="11px" height="12px" preserveAspectRatio="xMinYMin meet" x="189" y="-96"/>
<text text-anchor="start" x="204" y="-87.2" font-family="Helvetica,sans-Serif" font-size="11.00">k_category_id</text>
<polygon fill="none" stroke="black" points="349,-79 349,-101 432,-101 432,-79 349,-79"/>
<text text-anchor="start" x="352" y="-87.2" font-family="Helvetica,sans-Serif" font-size="11.00">numeric[10]</text>
<polygon fill="#ffffff" stroke="transparent" points="184,-57 184,-79 349,-79 349,-57 184,-57"/>
<polygon fill="none" stroke="black" points="184,-57 184,-79 349,-79 349,-57 184,-57"/>
<text text-anchor="start" x="204" y="-65.2" font-family="Helvetica,sans-Serif" font-size="11.00">k_categoryvalue_uu</text>
<polygon fill="none" stroke="black" points="349,-57 349,-79 432,-79 432,-57 349,-57"/>
<text text-anchor="start" x="352" y="-65.2" font-family="Helvetica,sans-Serif" font-size="11.00">varchar[36]</text>
<polygon fill="#ffffff" stroke="transparent" points="184,-39 184,-57 432,-57 432,-39 184,-39"/>
<polygon fill="none" stroke="black" points="184,-39 184,-57 432,-57 432,-39 184,-39"/>
<polygon fill="#ffffff" stroke="transparent" points="185,-40 185,-56 270,-56 270,-40 185,-40"/>
<text text-anchor="start" x="187" y="-45.2" font-family="Helvetica,sans-Serif" font-size="11.00">&lt; 1</text>
<polygon fill="#ffffff" stroke="transparent" points="270,-40 270,-56 346,-56 346,-40 270,-40"/>
<text text-anchor="start" x="304.5" y="-45.2" font-family="Helvetica,sans-Serif" font-size="11.00"> &#160;</text>
<polygon fill="#ffffff" stroke="transparent" points="346,-40 346,-56 431,-56 431,-40 346,-40"/>
<text text-anchor="start" x="413" y="-45.2" font-family="Helvetica,sans-Serif" font-size="11.00">1 &gt;</text>
<polygon fill="black" stroke="black" points="270,-40 270,-56 270,-56 270,-40 270,-40"/>
<polygon fill="black" stroke="black" points="346,-40 346,-56 346,-56 346,-40 346,-40"/>
<polygon fill="none" stroke="black" stroke-width="2" points="183,-38 183,-344 433,-344 433,-38 183,-38"/>
</a>
</g>
</g>
<!-- k_category -->
<g id="node2" class="node">
<title>k_category</title>
<g id="a_node2"><a xlink:href="../../tables/k_category.html" xlink:title="k_category" target="_top">
<polygon fill="#ffffff" stroke="transparent" points="8,-160 8,-262 133,-262 133,-160 8,-160"/>
<polygon fill="#f5f5f5" stroke="transparent" points="8.5,-240 8.5,-262 133.5,-262 133.5,-240 8.5,-240"/>
<polygon fill="none" stroke="black" points="8.5,-240 8.5,-262 133.5,-262 133.5,-240 8.5,-240"/>
<text text-anchor="start" x="13.5" y="-249.2" font-family="Helvetica,sans-Serif" font-weight="bold" font-size="11.00">k_category</text>
<text text-anchor="start" x="98.5" y="-248.2" font-family="Helvetica,sans-Serif" font-size="11.00">[table]</text>
<polygon fill="none" stroke="black" points="8.5,-218 8.5,-240 133.5,-240 133.5,-218 8.5,-218"/>
<image xlink:href="../../images/primaryKeys.png" width="11px" height="12px" preserveAspectRatio="xMinYMin meet" x="13.5" y="-235"/>
<text text-anchor="start" x="28.5" y="-226.2" font-family="Helvetica,sans-Serif" font-size="11.00">k_category_id</text>
<polygon fill="#ffffff" stroke="transparent" points="8.5,-196 8.5,-218 133.5,-218 133.5,-196 8.5,-196"/>
<polygon fill="none" stroke="black" points="8.5,-196 8.5,-218 133.5,-218 133.5,-196 8.5,-196"/>
<text text-anchor="start" x="28.5" y="-204.2" font-family="Helvetica,sans-Serif" font-size="11.00">k_category_uu</text>
<polygon fill="none" stroke="black" points="8.5,-178 8.5,-196 133.5,-196 133.5,-178 8.5,-178"/>
<text text-anchor="start" x="11.5" y="-184.2" font-family="Helvetica,sans-Serif" font-size="11.00">...</text>
<polygon fill="#ffffff" stroke="transparent" points="8.5,-160 8.5,-178 133.5,-178 133.5,-160 8.5,-160"/>
<polygon fill="none" stroke="black" points="8.5,-160 8.5,-178 133.5,-178 133.5,-160 8.5,-160"/>
<polygon fill="#ffffff" stroke="transparent" points="9.5,-161 9.5,-177 47.5,-177 47.5,-161 9.5,-161"/>
<text text-anchor="start" x="11.5" y="-166.2" font-family="Helvetica,sans-Serif" font-size="11.00"> &#160;</text>
<polygon fill="#ffffff" stroke="transparent" points="47.5,-161 47.5,-177 85.5,-177 85.5,-161 47.5,-161"/>
<text text-anchor="start" x="63" y="-166.2" font-family="Helvetica,sans-Serif" font-size="11.00"> &#160;</text>
<polygon fill="#ffffff" stroke="transparent" points="85.5,-161 85.5,-177 132.5,-177 132.5,-161 85.5,-161"/>
<text text-anchor="start" x="114.5" y="-166.2" font-family="Helvetica,sans-Serif" font-size="11.00">2 &gt;</text>
<polygon fill="black" stroke="black" points="47.5,-161 47.5,-177 47.5,-177 47.5,-161 47.5,-161"/>
<polygon fill="black" stroke="black" points="85.5,-161 85.5,-177 85.5,-177 85.5,-161 85.5,-161"/>
</a>
</g>
</g>
<!-- k_categoryvalue&#45;&gt;k_category -->
<g id="edge1" class="edge">
<title>k_categoryvalue:w&#45;&gt;k_category:e</title>
<path fill="none" stroke="black" d="M168.73,-93.16C131.18,-113.85 194.05,-229 134.5,-229"/>
<polygon fill="black" stroke="black" points="175.19,-91.73 183.78,-93.51 179.09,-90.87 183,-90 183,-90 183,-90 179.09,-90.87 182.22,-86.49 175.19,-91.73 175.19,-91.73"/>
<ellipse fill="none" stroke="black" cx="172.07" cy="-92.42" rx="3.2" ry="3.2"/>
</g>
<!-- k_entrycategory -->
<g id="node3" class="node">
<title>k_entrycategory</title>
<g id="a_node3"><a xlink:href="../../tables/k_entrycategory.html" xlink:title="k_entrycategory" target="_top">
<polygon fill="#ffffff" stroke="transparent" points="483,-248 483,-394 647,-394 647,-248 483,-248"/>
<polygon fill="#f5f5f5" stroke="transparent" points="483,-372 483,-394 647,-394 647,-372 483,-372"/>
<polygon fill="none" stroke="black" points="483,-372 483,-394 647,-394 647,-372 483,-372"/>
<text text-anchor="start" x="488" y="-381.2" font-family="Helvetica,sans-Serif" font-weight="bold" font-size="11.00">k_entrycategory</text>
<text text-anchor="start" x="612" y="-380.2" font-family="Helvetica,sans-Serif" font-size="11.00">[table]</text>
<polygon fill="none" stroke="black" points="483,-350 483,-372 647,-372 647,-350 483,-350"/>
<image xlink:href="../../images/primaryKeys.png" width="11px" height="12px" preserveAspectRatio="xMinYMin meet" x="488" y="-367"/>
<text text-anchor="start" x="503" y="-358.2" font-family="Helvetica,sans-Serif" font-size="11.00">k_category_id</text>
<polygon fill="none" stroke="black" points="483,-328 483,-350 647,-350 647,-328 483,-328"/>
<image xlink:href="../../images/primaryKeys.png" width="11px" height="12px" preserveAspectRatio="xMinYMin meet" x="488" y="-345"/>
<text text-anchor="start" x="503" y="-336.2" font-family="Helvetica,sans-Serif" font-size="11.00">k_entry_id</text>
<polygon fill="none" stroke="black" points="483,-306 483,-328 647,-328 647,-306 483,-306"/>
<image xlink:href="../../images/foreignKeys.png" width="11px" height="12px" preserveAspectRatio="xMinYMin meet" x="488" y="-323"/>
<text text-anchor="start" x="503" y="-314.2" font-family="Helvetica,sans-Serif" font-size="11.00">k_categoryvalue_id</text>
<polygon fill="#ffffff" stroke="transparent" points="483,-284 483,-306 647,-306 647,-284 483,-284"/>
<polygon fill="none" stroke="black" points="483,-284 483,-306 647,-306 647,-284 483,-284"/>
<text text-anchor="start" x="503" y="-292.2" font-family="Helvetica,sans-Serif" font-size="11.00">k_entrycategory_uu</text>
<polygon fill="none" stroke="black" points="483,-266 483,-284 647,-284 647,-266 483,-266"/>
<text text-anchor="start" x="486" y="-272.2" font-family="Helvetica,sans-Serif" font-size="11.00">...</text>
<polygon fill="#ffffff" stroke="transparent" points="483,-248 483,-266 647,-266 647,-248 483,-248"/>
<polygon fill="none" stroke="black" points="483,-248 483,-266 647,-266 647,-248 483,-248"/>
<polygon fill="#ffffff" stroke="transparent" points="484,-249 484,-265 544,-265 544,-249 484,-249"/>
<text text-anchor="start" x="486" y="-254.2" font-family="Helvetica,sans-Serif" font-size="11.00">&lt; 3</text>
<polygon fill="#ffffff" stroke="transparent" points="544,-249 544,-265 595,-265 595,-249 544,-249"/>
<text text-anchor="start" x="566" y="-254.2" font-family="Helvetica,sans-Serif" font-size="11.00"> &#160;</text>
<polygon fill="#ffffff" stroke="transparent" points="595,-249 595,-265 646,-265 646,-249 595,-249"/>
<text text-anchor="start" x="637" y="-254.2" font-family="Helvetica,sans-Serif" font-size="11.00"> &#160;</text>
<polygon fill="black" stroke="black" points="544,-249 544,-265 544,-265 544,-249 544,-249"/>
<polygon fill="black" stroke="black" points="595,-249 595,-265 595,-265 595,-249 595,-249"/>
</a>
</g>
</g>
<!-- k_entrycategory&#45;&gt;k_categoryvalue -->
<g id="edge3" class="edge">
<title>k_entrycategory:w&#45;&gt;k_categoryvalue:e</title>
<path fill="none" stroke="black" d="M467.43,-315.78C456.14,-313.78 449.16,-310 433,-310"/>
<polygon fill="black" stroke="black" points="474.03,-316.33 481.7,-320.59 478.01,-316.67 482,-317 482,-317 482,-317 478.01,-316.67 482.3,-313.41 474.03,-316.33 474.03,-316.33"/>
<ellipse fill="none" stroke="black" cx="470.84" cy="-316.07" rx="3.2" ry="3.2"/>
</g>
<!-- k_entrycategory&#45;&gt;k_category -->
<g id="edge2" class="edge">
<title>k_entrycategory:w&#45;&gt;k_category:e</title>
<path fill="none" stroke="black" d="M467.45,-361.29C340.58,-366.29 279.59,-434.15 174,-355 127.04,-319.8 193.19,-229 134.5,-229"/>
<polygon fill="black" stroke="black" points="474,-361.16 482.07,-364.6 478,-361.08 482,-361 482,-361 482,-361 478,-361.08 481.93,-357.4 474,-361.16 474,-361.16"/>
<ellipse fill="none" stroke="black" cx="470.8" cy="-361.22" rx="3.2" ry="3.2"/>
</g>
</g>
</svg>
