<?xml version="1.0" encoding="UTF-8" standalone="no"?>
<!DOCTYPE svg PUBLIC "-//W3C//DTD SVG 1.1//EN"
 "http://www.w3.org/Graphics/SVG/1.1/DTD/svg11.dtd">
<!-- Generated by graphviz version 2.43.0 (0)
 -->
<!-- Title: oneDegreeRelationshipsDiagram Pages: 1 -->
<svg width="562pt" height="443pt"
 viewBox="0.00 0.00 562.00 443.00" xmlns="http://www.w3.org/2000/svg" xmlns:xlink="http://www.w3.org/1999/xlink">
<g id="graph0" class="graph" transform="scale(1 1) rotate(0) translate(4 439)">
<title>oneDegreeRelationshipsDiagram</title>
<polygon fill="#ffffff" stroke="transparent" points="-4,4 -4,-439 558,-439 558,4 -4,4"/>
<text text-anchor="middle" x="71.5" y="-7.2" font-family="Helvetica,sans-Serif" font-size="11.00">Generated by SchemaSpy</text>
<!-- k_entry -->
<g id="node1" class="node">
<title>k_entry</title>
<g id="a_node1"><a xlink:href="../../tables/k_entry.html" xlink:title="k_entry" target="_top">
<polygon fill="#ffffff" stroke="transparent" points="423,-263 423,-431 546,-431 546,-263 423,-263"/>
<polygon fill="#f5f5f5" stroke="transparent" points="423.5,-409 423.5,-431 546.5,-431 546.5,-409 423.5,-409"/>
<polygon fill="none" stroke="black" points="423.5,-409 423.5,-431 546.5,-431 546.5,-409 423.5,-409"/>
<text text-anchor="start" x="428.5" y="-418.2" font-family="Helvetica,sans-Serif" font-weight="bold" font-size="11.00">k_entry</text>
<text text-anchor="start" x="511.5" y="-417.2" font-family="Helvetica,sans-Serif" font-size="11.00">[table]</text>
<polygon fill="none" stroke="black" points="423.5,-387 423.5,-409 546.5,-409 546.5,-387 423.5,-387"/>
<image xlink:href="../../images/primaryKeys.png" width="11px" height="12px" preserveAspectRatio="xMinYMin meet" x="428.5" y="-404"/>
<text text-anchor="start" x="443.5" y="-395.2" font-family="Helvetica,sans-Serif" font-size="11.00">k_entry_id</text>
<polygon fill="none" stroke="black" points="423.5,-365 423.5,-387 546.5,-387 546.5,-365 423.5,-365"/>
<image xlink:href="../../images/foreignKeys.png" width="11px" height="12px" preserveAspectRatio="xMinYMin meet" x="428.5" y="-382"/>
<text text-anchor="start" x="443.5" y="-373.2" font-family="Helvetica,sans-Serif" font-size="11.00">k_topic_id</text>
<polygon fill="none" stroke="black" points="423.5,-343 423.5,-365 546.5,-365 546.5,-343 423.5,-343"/>
<image xlink:href="../../images/foreignKeys.png" width="11px" height="12px" preserveAspectRatio="xMinYMin meet" x="428.5" y="-360"/>
<text text-anchor="start" x="443.5" y="-351.2" font-family="Helvetica,sans-Serif" font-size="11.00">k_source_id</text>
<polygon fill="none" stroke="black" points="423.5,-321 423.5,-343 546.5,-343 546.5,-321 423.5,-321"/>
<image xlink:href="../../images/foreignKeys.png" width="11px" height="12px" preserveAspectRatio="xMinYMin meet" x="428.5" y="-338"/>
<text text-anchor="start" x="443.5" y="-329.2" font-family="Helvetica,sans-Serif" font-size="11.00">ad_session_id</text>
<polygon fill="#ffffff" stroke="transparent" points="423.5,-299 423.5,-321 546.5,-321 546.5,-299 423.5,-299"/>
<polygon fill="none" stroke="black" points="423.5,-299 423.5,-321 546.5,-321 546.5,-299 423.5,-299"/>
<text text-anchor="start" x="443.5" y="-307.2" font-family="Helvetica,sans-Serif" font-size="11.00">k_entry_uu</text>
<polygon fill="none" stroke="black" points="423.5,-281 423.5,-299 546.5,-299 546.5,-281 423.5,-281"/>
<text text-anchor="start" x="426.5" y="-287.2" font-family="Helvetica,sans-Serif" font-size="11.00">...</text>
<polygon fill="#ffffff" stroke="transparent" points="423.5,-263 423.5,-281 546.5,-281 546.5,-263 423.5,-263"/>
<polygon fill="none" stroke="black" points="423.5,-263 423.5,-281 546.5,-281 546.5,-263 423.5,-263"/>
<polygon fill="#ffffff" stroke="transparent" points="424.5,-264 424.5,-280 468.5,-280 468.5,-264 424.5,-264"/>
<text text-anchor="start" x="426.5" y="-269.2" font-family="Helvetica,sans-Serif" font-size="11.00">&lt; 3</text>
<polygon fill="#ffffff" stroke="transparent" points="468.5,-264 468.5,-280 502.5,-280 502.5,-264 468.5,-264"/>
<text text-anchor="start" x="482" y="-269.2" font-family="Helvetica,sans-Serif" font-size="11.00"> &#160;</text>
<polygon fill="#ffffff" stroke="transparent" points="502.5,-264 502.5,-280 545.5,-280 545.5,-264 502.5,-264"/>
<text text-anchor="start" x="527.5" y="-269.2" font-family="Helvetica,sans-Serif" font-size="11.00">4 &gt;</text>
<polygon fill="black" stroke="black" points="468.5,-264 468.5,-280 468.5,-280 468.5,-264 468.5,-264"/>
<polygon fill="black" stroke="black" points="502.5,-264 502.5,-280 502.5,-280 502.5,-264 502.5,-264"/>
</a>
</g>
</g>
<!-- k_topic -->
<g id="node2" class="node">
<title>k_topic</title>
<g id="a_node2"><a xlink:href="../../tables/k_topic.html" xlink:title="k_topic" target="_top">
<polygon fill="#ffffff" stroke="transparent" points="172,-37 172,-411 374,-411 374,-37 172,-37"/>
<polygon fill="#f5f5f5" stroke="transparent" points="174,-387 174,-409 372,-409 372,-387 174,-387"/>
<polygon fill="none" stroke="black" points="174,-387 174,-409 372,-409 372,-387 174,-387"/>
<text text-anchor="start" x="179" y="-396.2" font-family="Helvetica,sans-Serif" font-weight="bold" font-size="11.00">k_topic</text>
<text text-anchor="start" x="337" y="-395.2" font-family="Helvetica,sans-Serif" font-size="11.00">[table]</text>
<polygon fill="none" stroke="black" points="174,-365 174,-387 289,-387 289,-365 174,-365"/>
<image xlink:href="../../images/primaryKeys.png" width="11px" height="12px" preserveAspectRatio="xMinYMin meet" x="179" y="-382"/>
<text text-anchor="start" x="194" y="-373.2" font-family="Helvetica,sans-Serif" font-size="11.00">k_topic_id</text>
<polygon fill="none" stroke="black" points="289,-365 289,-387 372,-387 372,-365 289,-365"/>
<text text-anchor="start" x="292" y="-373.2" font-family="Helvetica,sans-Serif" font-size="11.00">numeric[10]</text>
<polygon fill="none" stroke="black" points="174,-343 174,-365 289,-365 289,-343 174,-343"/>
<text text-anchor="start" x="194" y="-351.2" font-family="Helvetica,sans-Serif" font-size="11.00">ad_client_id</text>
<polygon fill="none" stroke="black" points="289,-343 289,-365 372,-365 372,-343 289,-343"/>
<text text-anchor="start" x="292" y="-351.2" font-family="Helvetica,sans-Serif" font-size="11.00">numeric[10]</text>
<polygon fill="none" stroke="black" points="174,-321 174,-343 289,-343 289,-321 174,-321"/>
<text text-anchor="start" x="194" y="-329.2" font-family="Helvetica,sans-Serif" font-size="11.00">ad_org_id</text>
<polygon fill="none" stroke="black" points="289,-321 289,-343 372,-343 372,-321 289,-321"/>
<text text-anchor="start" x="292" y="-329.2" font-family="Helvetica,sans-Serif" font-size="11.00">numeric[10]</text>
<polygon fill="none" stroke="black" points="174,-299 174,-321 289,-321 289,-299 174,-299"/>
<text text-anchor="start" x="194" y="-307.2" font-family="Helvetica,sans-Serif" font-size="11.00">isactive</text>
<polygon fill="none" stroke="black" points="289,-299 289,-321 372,-321 372,-299 289,-299"/>
<text text-anchor="start" x="292" y="-307.2" font-family="Helvetica,sans-Serif" font-size="11.00">bpchar[1]</text>
<polygon fill="none" stroke="black" points="174,-277 174,-299 289,-299 289,-277 174,-277"/>
<text text-anchor="start" x="194" y="-285.2" font-family="Helvetica,sans-Serif" font-size="11.00">created</text>
<polygon fill="none" stroke="black" points="289,-277 289,-299 372,-299 372,-277 289,-277"/>
<text text-anchor="start" x="292" y="-285.2" font-family="Helvetica,sans-Serif" font-size="11.00">timestamp[29,6]</text>
<polygon fill="none" stroke="black" points="174,-255 174,-277 289,-277 289,-255 174,-255"/>
<text text-anchor="start" x="194" y="-263.2" font-family="Helvetica,sans-Serif" font-size="11.00">createdby</text>
<polygon fill="none" stroke="black" points="289,-255 289,-277 372,-277 372,-255 289,-255"/>
<text text-anchor="start" x="292" y="-263.2" font-family="Helvetica,sans-Serif" font-size="11.00">numeric[10]</text>
<polygon fill="none" stroke="black" points="174,-233 174,-255 289,-255 289,-233 174,-233"/>
<text text-anchor="start" x="194" y="-241.2" font-family="Helvetica,sans-Serif" font-size="11.00">updated</text>
<polygon fill="none" stroke="black" points="289,-233 289,-255 372,-255 372,-233 289,-233"/>
<text text-anchor="start" x="292" y="-241.2" font-family="Helvetica,sans-Serif" font-size="11.00">timestamp[29,6]</text>
<polygon fill="none" stroke="black" points="174,-211 174,-233 289,-233 289,-211 174,-211"/>
<text text-anchor="start" x="194" y="-219.2" font-family="Helvetica,sans-Serif" font-size="11.00">updatedby</text>
<polygon fill="none" stroke="black" points="289,-211 289,-233 372,-233 372,-211 289,-211"/>
<text text-anchor="start" x="292" y="-219.2" font-family="Helvetica,sans-Serif" font-size="11.00">numeric[10]</text>
<polygon fill="none" stroke="black" points="174,-189 174,-211 289,-211 289,-189 174,-189"/>
<text text-anchor="start" x="194" y="-197.2" font-family="Helvetica,sans-Serif" font-size="11.00">name</text>
<polygon fill="none" stroke="black" points="289,-189 289,-211 372,-211 372,-189 289,-189"/>
<text text-anchor="start" x="292" y="-197.2" font-family="Helvetica,sans-Serif" font-size="11.00">varchar[60]</text>
<polygon fill="none" stroke="black" points="174,-167 174,-189 289,-189 289,-167 174,-167"/>
<text text-anchor="start" x="194" y="-175.2" font-family="Helvetica,sans-Serif" font-size="11.00">description</text>
<polygon fill="none" stroke="black" points="289,-167 289,-189 372,-189 372,-167 289,-167"/>
<text text-anchor="start" x="292" y="-175.2" font-family="Helvetica,sans-Serif" font-size="11.00">varchar[255]</text>
<polygon fill="none" stroke="black" points="174,-145 174,-167 289,-167 289,-145 174,-145"/>
<text text-anchor="start" x="194" y="-153.2" font-family="Helvetica,sans-Serif" font-size="11.00">help</text>
<polygon fill="none" stroke="black" points="289,-145 289,-167 372,-167 372,-145 289,-145"/>
<text text-anchor="start" x="292" y="-153.2" font-family="Helvetica,sans-Serif" font-size="11.00">varchar[2000]</text>
<polygon fill="none" stroke="black" points="174,-123 174,-145 289,-145 289,-123 174,-123"/>
<image xlink:href="../../images/foreignKeys.png" width="11px" height="12px" preserveAspectRatio="xMinYMin meet" x="179" y="-140"/>
<text text-anchor="start" x="194" y="-131.2" font-family="Helvetica,sans-Serif" font-size="11.00">k_type_id</text>
<polygon fill="none" stroke="black" points="289,-123 289,-145 372,-145 372,-123 289,-123"/>
<text text-anchor="start" x="292" y="-131.2" font-family="Helvetica,sans-Serif" font-size="11.00">numeric[10]</text>
<polygon fill="none" stroke="black" points="174,-101 174,-123 289,-123 289,-101 174,-101"/>
<text text-anchor="start" x="194" y="-109.2" font-family="Helvetica,sans-Serif" font-size="11.00">ispublic</text>
<polygon fill="none" stroke="black" points="289,-101 289,-123 372,-123 372,-101 289,-101"/>
<text text-anchor="start" x="292" y="-109.2" font-family="Helvetica,sans-Serif" font-size="11.00">bpchar[1]</text>
<polygon fill="none" stroke="black" points="174,-79 174,-101 289,-101 289,-79 174,-79"/>
<text text-anchor="start" x="194" y="-87.2" font-family="Helvetica,sans-Serif" font-size="11.00">ispublicwrite</text>
<polygon fill="none" stroke="black" points="289,-79 289,-101 372,-101 372,-79 289,-79"/>
<text text-anchor="start" x="292" y="-87.2" font-family="Helvetica,sans-Serif" font-size="11.00">bpchar[1]</text>
<polygon fill="#ffffff" stroke="transparent" points="174,-57 174,-79 289,-79 289,-57 174,-57"/>
<polygon fill="none" stroke="black" points="174,-57 174,-79 289,-79 289,-57 174,-57"/>
<text text-anchor="start" x="194" y="-65.2" font-family="Helvetica,sans-Serif" font-size="11.00">k_topic_uu</text>
<polygon fill="none" stroke="black" points="289,-57 289,-79 372,-79 372,-57 289,-57"/>
<text text-anchor="start" x="292" y="-65.2" font-family="Helvetica,sans-Serif" font-size="11.00">varchar[36]</text>
<polygon fill="#ffffff" stroke="transparent" points="174,-39 174,-57 372,-57 372,-39 174,-39"/>
<polygon fill="none" stroke="black" points="174,-39 174,-57 372,-57 372,-39 174,-39"/>
<polygon fill="#ffffff" stroke="transparent" points="175,-40 175,-56 244,-56 244,-40 175,-40"/>
<text text-anchor="start" x="177" y="-45.2" font-family="Helvetica,sans-Serif" font-size="11.00">&lt; 1</text>
<polygon fill="#ffffff" stroke="transparent" points="244,-40 244,-56 303,-56 303,-40 244,-40"/>
<text text-anchor="start" x="270" y="-45.2" font-family="Helvetica,sans-Serif" font-size="11.00"> &#160;</text>
<polygon fill="#ffffff" stroke="transparent" points="303,-40 303,-56 371,-56 371,-40 303,-40"/>
<text text-anchor="start" x="353" y="-45.2" font-family="Helvetica,sans-Serif" font-size="11.00">1 &gt;</text>
<polygon fill="black" stroke="black" points="244,-40 244,-56 244,-56 244,-40 244,-40"/>
<polygon fill="black" stroke="black" points="303,-40 303,-56 303,-56 303,-40 303,-40"/>
<polygon fill="none" stroke="black" stroke-width="2" points="173,-38 173,-410 373,-410 373,-38 173,-38"/>
</a>
</g>
</g>
<!-- k_entry&#45;&gt;k_topic -->
<g id="edge1" class="edge">
<title>k_entry:w&#45;&gt;k_topic:e</title>
<path fill="none" stroke="black" d="M407.84,-376C396.41,-376 389.16,-376 373,-376"/>
<polygon fill="black" stroke="black" points="414.5,-376 422.5,-379.6 418.5,-376 422.5,-376 422.5,-376 422.5,-376 418.5,-376 422.5,-372.4 414.5,-376 414.5,-376"/>
<ellipse fill="none" stroke="black" cx="411.3" cy="-376" rx="3.2" ry="3.2"/>
</g>
<!-- k_type -->
<g id="node3" class="node">
<title>k_type</title>
<g id="a_node3"><a xlink:href="../../tables/k_type.html" xlink:title="k_type" target="_top">
<polygon fill="#ffffff" stroke="transparent" points="8,-65 8,-167 123,-167 123,-65 8,-65"/>
<polygon fill="#f5f5f5" stroke="transparent" points="8.5,-145 8.5,-167 123.5,-167 123.5,-145 8.5,-145"/>
<polygon fill="none" stroke="black" points="8.5,-145 8.5,-167 123.5,-167 123.5,-145 8.5,-145"/>
<text text-anchor="start" x="13.5" y="-154.2" font-family="Helvetica,sans-Serif" font-weight="bold" font-size="11.00">k_type</text>
<text text-anchor="start" x="88.5" y="-153.2" font-family="Helvetica,sans-Serif" font-size="11.00">[table]</text>
<polygon fill="none" stroke="black" points="8.5,-123 8.5,-145 123.5,-145 123.5,-123 8.5,-123"/>
<image xlink:href="../../images/primaryKeys.png" width="11px" height="12px" preserveAspectRatio="xMinYMin meet" x="13.5" y="-140"/>
<text text-anchor="start" x="28.5" y="-131.2" font-family="Helvetica,sans-Serif" font-size="11.00">k_type_id</text>
<polygon fill="#ffffff" stroke="transparent" points="8.5,-101 8.5,-123 123.5,-123 123.5,-101 8.5,-101"/>
<polygon fill="none" stroke="black" points="8.5,-101 8.5,-123 123.5,-123 123.5,-101 8.5,-101"/>
<text text-anchor="start" x="28.5" y="-109.2" font-family="Helvetica,sans-Serif" font-size="11.00">k_type_uu</text>
<polygon fill="none" stroke="black" points="8.5,-83 8.5,-101 123.5,-101 123.5,-83 8.5,-83"/>
<text text-anchor="start" x="11.5" y="-89.2" font-family="Helvetica,sans-Serif" font-size="11.00">...</text>
<polygon fill="#ffffff" stroke="transparent" points="8.5,-65 8.5,-83 123.5,-83 123.5,-65 8.5,-65"/>
<polygon fill="none" stroke="black" points="8.5,-65 8.5,-83 123.5,-83 123.5,-65 8.5,-65"/>
<polygon fill="#ffffff" stroke="transparent" points="9.5,-66 9.5,-82 44.5,-82 44.5,-66 9.5,-66"/>
<text text-anchor="start" x="11.5" y="-71.2" font-family="Helvetica,sans-Serif" font-size="11.00"> &#160;</text>
<polygon fill="#ffffff" stroke="transparent" points="44.5,-66 44.5,-82 79.5,-82 79.5,-66 44.5,-66"/>
<text text-anchor="start" x="58.5" y="-71.2" font-family="Helvetica,sans-Serif" font-size="11.00"> &#160;</text>
<polygon fill="#ffffff" stroke="transparent" points="79.5,-66 79.5,-82 122.5,-82 122.5,-66 79.5,-66"/>
<text text-anchor="start" x="104.5" y="-71.2" font-family="Helvetica,sans-Serif" font-size="11.00">1 &gt;</text>
<polygon fill="black" stroke="black" points="44.5,-66 44.5,-82 44.5,-82 44.5,-66 44.5,-66"/>
<polygon fill="black" stroke="black" points="79.5,-66 79.5,-82 79.5,-82 79.5,-66 79.5,-66"/>
</a>
</g>
</g>
<!-- k_topic&#45;&gt;k_type -->
<g id="edge2" class="edge">
<title>k_topic:w&#45;&gt;k_type:e</title>
<path fill="none" stroke="black" d="M158.28,-134C147.29,-134 140.16,-134 124.5,-134"/>
<polygon fill="black" stroke="black" points="165,-134 173,-137.6 169,-134 173,-134 173,-134 173,-134 169,-134 173,-130.4 165,-134 165,-134"/>
<ellipse fill="none" stroke="black" cx="161.8" cy="-134" rx="3.2" ry="3.2"/>
</g>
</g>
</svg>
