<?xml version="1.0" encoding="UTF-8" standalone="no"?>
<!DOCTYPE svg PUBLIC "-//W3C//DTD SVG 1.1//EN"
 "http://www.w3.org/Graphics/SVG/1.1/DTD/svg11.dtd">
<!-- Generated by graphviz version 2.43.0 (0)
 -->
<!-- Title: oneDegreeRelationshipsDiagram Pages: 1 -->
<svg width="621pt" height="357pt"
 viewBox="0.00 0.00 621.00 357.00" xmlns="http://www.w3.org/2000/svg" xmlns:xlink="http://www.w3.org/1999/xlink">
<g id="graph0" class="graph" transform="scale(1 1) rotate(0) translate(4 353)">
<title>oneDegreeRelationshipsDiagram</title>
<polygon fill="#ffffff" stroke="transparent" points="-4,4 -4,-353 617,-353 617,4 -4,4"/>
<text text-anchor="middle" x="71.5" y="-7.2" font-family="Helvetica,sans-Serif" font-size="11.00">Generated by SchemaSpy</text>
<!-- lbr_docfiscal_transp_lacres -->
<g id="node1" class="node">
<title>lbr_docfiscal_transp_lacres</title>
<g id="a_node1"><a xlink:href="../../tables/lbr_docfiscal_transp_lacres.html" xlink:title="lbr_docfiscal_transp_lacres" target="_top">
<polygon fill="#ffffff" stroke="transparent" points="276,-37 276,-345 605,-345 605,-37 276,-37"/>
<polygon fill="#f5f5f5" stroke="transparent" points="278.5,-321 278.5,-343 603.5,-343 603.5,-321 278.5,-321"/>
<polygon fill="none" stroke="black" points="278.5,-321 278.5,-343 603.5,-343 603.5,-321 278.5,-321"/>
<text text-anchor="start" x="283.5" y="-330.2" font-family="Helvetica,sans-Serif" font-weight="bold" font-size="11.00">lbr_docfiscal_transp_lacres</text>
<text text-anchor="start" x="568.5" y="-329.2" font-family="Helvetica,sans-Serif" font-size="11.00">[table]</text>
<polygon fill="none" stroke="black" points="278.5,-299 278.5,-321 520.5,-321 520.5,-299 278.5,-299"/>
<image xlink:href="../../images/primaryKeys.png" width="11px" height="12px" preserveAspectRatio="xMinYMin meet" x="283.5" y="-316"/>
<text text-anchor="start" x="298.5" y="-307.2" font-family="Helvetica,sans-Serif" font-size="11.00">lbr_docfiscal_transp_lacres_id</text>
<polygon fill="none" stroke="black" points="520.5,-299 520.5,-321 603.5,-321 603.5,-299 520.5,-299"/>
<text text-anchor="start" x="523.5" y="-307.2" font-family="Helvetica,sans-Serif" font-size="11.00">numeric[10]</text>
<polygon fill="none" stroke="black" points="278.5,-277 278.5,-299 520.5,-299 520.5,-277 278.5,-277"/>
<image xlink:href="../../images/foreignKeys.png" width="11px" height="12px" preserveAspectRatio="xMinYMin meet" x="283.5" y="-294"/>
<text text-anchor="start" x="298.5" y="-285.2" font-family="Helvetica,sans-Serif" font-size="11.00">lbr_docfiscal_transp_vol_id</text>
<polygon fill="none" stroke="black" points="520.5,-277 520.5,-299 603.5,-299 603.5,-277 520.5,-277"/>
<text text-anchor="start" x="523.5" y="-285.2" font-family="Helvetica,sans-Serif" font-size="11.00">numeric[10]</text>
<polygon fill="none" stroke="black" points="278.5,-255 278.5,-277 520.5,-277 520.5,-255 278.5,-255"/>
<text text-anchor="start" x="298.5" y="-263.2" font-family="Helvetica,sans-Serif" font-size="11.00">ad_client_id</text>
<polygon fill="none" stroke="black" points="520.5,-255 520.5,-277 603.5,-277 603.5,-255 520.5,-255"/>
<text text-anchor="start" x="523.5" y="-263.2" font-family="Helvetica,sans-Serif" font-size="11.00">numeric[10]</text>
<polygon fill="none" stroke="black" points="278.5,-233 278.5,-255 520.5,-255 520.5,-233 278.5,-233"/>
<text text-anchor="start" x="298.5" y="-241.2" font-family="Helvetica,sans-Serif" font-size="11.00">ad_org_id</text>
<polygon fill="none" stroke="black" points="520.5,-233 520.5,-255 603.5,-255 603.5,-233 520.5,-233"/>
<text text-anchor="start" x="523.5" y="-241.2" font-family="Helvetica,sans-Serif" font-size="11.00">numeric[10]</text>
<polygon fill="none" stroke="black" points="278.5,-211 278.5,-233 520.5,-233 520.5,-211 278.5,-211"/>
<text text-anchor="start" x="298.5" y="-219.2" font-family="Helvetica,sans-Serif" font-size="11.00">isactive</text>
<polygon fill="none" stroke="black" points="520.5,-211 520.5,-233 603.5,-233 603.5,-211 520.5,-211"/>
<text text-anchor="start" x="523.5" y="-219.2" font-family="Helvetica,sans-Serif" font-size="11.00">bpchar[1]</text>
<polygon fill="none" stroke="black" points="278.5,-189 278.5,-211 520.5,-211 520.5,-189 278.5,-189"/>
<text text-anchor="start" x="298.5" y="-197.2" font-family="Helvetica,sans-Serif" font-size="11.00">created</text>
<polygon fill="none" stroke="black" points="520.5,-189 520.5,-211 603.5,-211 603.5,-189 520.5,-189"/>
<text text-anchor="start" x="523.5" y="-197.2" font-family="Helvetica,sans-Serif" font-size="11.00">timestamp[29,6]</text>
<polygon fill="none" stroke="black" points="278.5,-167 278.5,-189 520.5,-189 520.5,-167 278.5,-167"/>
<text text-anchor="start" x="298.5" y="-175.2" font-family="Helvetica,sans-Serif" font-size="11.00">updated</text>
<polygon fill="none" stroke="black" points="520.5,-167 520.5,-189 603.5,-189 603.5,-167 520.5,-167"/>
<text text-anchor="start" x="523.5" y="-175.2" font-family="Helvetica,sans-Serif" font-size="11.00">timestamp[29,6]</text>
<polygon fill="none" stroke="black" points="278.5,-145 278.5,-167 520.5,-167 520.5,-145 278.5,-145"/>
<text text-anchor="start" x="298.5" y="-153.2" font-family="Helvetica,sans-Serif" font-size="11.00">createdby</text>
<polygon fill="none" stroke="black" points="520.5,-145 520.5,-167 603.5,-167 603.5,-145 520.5,-145"/>
<text text-anchor="start" x="523.5" y="-153.2" font-family="Helvetica,sans-Serif" font-size="11.00">numeric[10]</text>
<polygon fill="none" stroke="black" points="278.5,-123 278.5,-145 520.5,-145 520.5,-123 278.5,-123"/>
<text text-anchor="start" x="298.5" y="-131.2" font-family="Helvetica,sans-Serif" font-size="11.00">updatedby</text>
<polygon fill="none" stroke="black" points="520.5,-123 520.5,-145 603.5,-145 603.5,-123 520.5,-123"/>
<text text-anchor="start" x="523.5" y="-131.2" font-family="Helvetica,sans-Serif" font-size="11.00">numeric[10]</text>
<polygon fill="none" stroke="black" points="278.5,-101 278.5,-123 520.5,-123 520.5,-101 278.5,-101"/>
<text text-anchor="start" x="298.5" y="-109.2" font-family="Helvetica,sans-Serif" font-size="11.00">transp_lacres_nlacre</text>
<polygon fill="none" stroke="black" points="520.5,-101 520.5,-123 603.5,-123 603.5,-101 520.5,-101"/>
<text text-anchor="start" x="523.5" y="-109.2" font-family="Helvetica,sans-Serif" font-size="11.00">varchar[60]</text>
<polygon fill="none" stroke="black" points="278.5,-79 278.5,-101 520.5,-101 520.5,-79 278.5,-79"/>
<text text-anchor="start" x="298.5" y="-87.2" font-family="Helvetica,sans-Serif" font-size="11.00">lbr_docfiscal_id</text>
<polygon fill="none" stroke="black" points="520.5,-79 520.5,-101 603.5,-101 603.5,-79 520.5,-79"/>
<text text-anchor="start" x="523.5" y="-87.2" font-family="Helvetica,sans-Serif" font-size="11.00">numeric[0]</text>
<polygon fill="#ffffff" stroke="transparent" points="278.5,-57 278.5,-79 520.5,-79 520.5,-57 278.5,-57"/>
<polygon fill="none" stroke="black" points="278.5,-57 278.5,-79 520.5,-79 520.5,-57 278.5,-57"/>
<text text-anchor="start" x="298.5" y="-65.2" font-family="Helvetica,sans-Serif" font-size="11.00">lbr_docfiscal_transp_lacres_uu</text>
<polygon fill="none" stroke="black" points="520.5,-57 520.5,-79 603.5,-79 603.5,-57 520.5,-57"/>
<text text-anchor="start" x="523.5" y="-65.2" font-family="Helvetica,sans-Serif" font-size="11.00">varchar[36]</text>
<polygon fill="#ffffff" stroke="transparent" points="278.5,-39 278.5,-57 603.5,-57 603.5,-39 278.5,-39"/>
<polygon fill="none" stroke="black" points="278.5,-39 278.5,-57 603.5,-57 603.5,-39 278.5,-39"/>
<polygon fill="#ffffff" stroke="transparent" points="279.5,-40 279.5,-56 390.5,-56 390.5,-40 279.5,-40"/>
<text text-anchor="start" x="281.5" y="-45.2" font-family="Helvetica,sans-Serif" font-size="11.00">&lt; 1</text>
<polygon fill="#ffffff" stroke="transparent" points="390.5,-40 390.5,-56 492.5,-56 492.5,-40 390.5,-40"/>
<text text-anchor="start" x="438" y="-45.2" font-family="Helvetica,sans-Serif" font-size="11.00"> &#160;</text>
<polygon fill="#ffffff" stroke="transparent" points="492.5,-40 492.5,-56 602.5,-56 602.5,-40 492.5,-40"/>
<text text-anchor="start" x="584.5" y="-45.2" font-family="Helvetica,sans-Serif" font-size="11.00">0 &gt;</text>
<polygon fill="black" stroke="black" points="390.5,-40 390.5,-56 390.5,-56 390.5,-40 390.5,-40"/>
<polygon fill="black" stroke="black" points="492.5,-40 492.5,-56 492.5,-56 492.5,-40 492.5,-40"/>
<polygon fill="none" stroke="black" stroke-width="2" points="277,-38 277,-344 604,-344 604,-38 277,-38"/>
</a>
</g>
</g>
<!-- lbr_docfiscal_transp_vol -->
<g id="node2" class="node">
<title>lbr_docfiscal_transp_vol</title>
<g id="a_node2"><a xlink:href="../../tables/lbr_docfiscal_transp_vol.html" xlink:title="lbr_docfiscal_transp_vol" target="_top">
<polygon fill="#ffffff" stroke="transparent" points="8,-197 8,-321 227,-321 227,-197 8,-197"/>
<polygon fill="#f5f5f5" stroke="transparent" points="8.5,-299 8.5,-321 227.5,-321 227.5,-299 8.5,-299"/>
<polygon fill="none" stroke="black" points="8.5,-299 8.5,-321 227.5,-321 227.5,-299 8.5,-299"/>
<text text-anchor="start" x="13.5" y="-308.2" font-family="Helvetica,sans-Serif" font-weight="bold" font-size="11.00">lbr_docfiscal_transp_vol</text>
<text text-anchor="start" x="192.5" y="-307.2" font-family="Helvetica,sans-Serif" font-size="11.00">[table]</text>
<polygon fill="none" stroke="black" points="8.5,-277 8.5,-299 227.5,-299 227.5,-277 8.5,-277"/>
<image xlink:href="../../images/primaryKeys.png" width="11px" height="12px" preserveAspectRatio="xMinYMin meet" x="13.5" y="-294"/>
<text text-anchor="start" x="28.5" y="-285.2" font-family="Helvetica,sans-Serif" font-size="11.00">lbr_docfiscal_transp_vol_id</text>
<polygon fill="none" stroke="black" points="8.5,-255 8.5,-277 227.5,-277 227.5,-255 8.5,-255"/>
<image xlink:href="../../images/foreignKeys.png" width="11px" height="12px" preserveAspectRatio="xMinYMin meet" x="13.5" y="-272"/>
<text text-anchor="start" x="28.5" y="-263.2" font-family="Helvetica,sans-Serif" font-size="11.00">lbr_docfiscal_id</text>
<polygon fill="#ffffff" stroke="transparent" points="8.5,-233 8.5,-255 227.5,-255 227.5,-233 8.5,-233"/>
<polygon fill="none" stroke="black" points="8.5,-233 8.5,-255 227.5,-255 227.5,-233 8.5,-233"/>
<text text-anchor="start" x="28.5" y="-241.2" font-family="Helvetica,sans-Serif" font-size="11.00">lbr_docfiscal_transp_vol_uu</text>
<polygon fill="none" stroke="black" points="8.5,-215 8.5,-233 227.5,-233 227.5,-215 8.5,-215"/>
<text text-anchor="start" x="11.5" y="-221.2" font-family="Helvetica,sans-Serif" font-size="11.00">...</text>
<polygon fill="#ffffff" stroke="transparent" points="8.5,-197 8.5,-215 227.5,-215 227.5,-197 8.5,-197"/>
<polygon fill="none" stroke="black" points="8.5,-197 8.5,-215 227.5,-215 227.5,-197 8.5,-197"/>
<polygon fill="#ffffff" stroke="transparent" points="9.5,-198 9.5,-214 85.5,-214 85.5,-198 9.5,-198"/>
<text text-anchor="start" x="11.5" y="-203.2" font-family="Helvetica,sans-Serif" font-size="11.00">&lt; 1</text>
<polygon fill="#ffffff" stroke="transparent" points="85.5,-198 85.5,-214 151.5,-214 151.5,-198 85.5,-198"/>
<text text-anchor="start" x="115" y="-203.2" font-family="Helvetica,sans-Serif" font-size="11.00"> &#160;</text>
<polygon fill="#ffffff" stroke="transparent" points="151.5,-198 151.5,-214 226.5,-214 226.5,-198 151.5,-198"/>
<text text-anchor="start" x="208.5" y="-203.2" font-family="Helvetica,sans-Serif" font-size="11.00">1 &gt;</text>
<polygon fill="black" stroke="black" points="85.5,-198 85.5,-214 85.5,-214 85.5,-198 85.5,-198"/>
<polygon fill="black" stroke="black" points="151.5,-198 151.5,-214 151.5,-214 151.5,-198 151.5,-198"/>
</a>
</g>
</g>
<!-- lbr_docfiscal_transp_lacres&#45;&gt;lbr_docfiscal_transp_vol -->
<g id="edge1" class="edge">
<title>lbr_docfiscal_transp_lacres:w&#45;&gt;lbr_docfiscal_transp_vol:e</title>
<path fill="none" stroke="black" d="M262.99,-288C251.68,-288 244.49,-288 228.5,-288"/>
<polygon fill="black" stroke="black" points="269.5,-288 277.5,-291.6 273.5,-288 277.5,-288 277.5,-288 277.5,-288 273.5,-288 277.5,-284.4 269.5,-288 269.5,-288"/>
<ellipse fill="none" stroke="black" cx="266.3" cy="-288" rx="3.2" ry="3.2"/>
</g>
</g>
</svg>
