<?xml version="1.0" encoding="UTF-8" standalone="no"?>
<!DOCTYPE svg PUBLIC "-//W3C//DTD SVG 1.1//EN"
 "http://www.w3.org/Graphics/SVG/1.1/DTD/svg11.dtd">
<!-- Generated by graphviz version 2.43.0 (0)
 -->
<!-- Title: oneDegreeRelationshipsDiagram Pages: 1 -->
<svg width="840pt" height="1554pt"
 viewBox="0.00 0.00 840.00 1554.00" xmlns="http://www.w3.org/2000/svg" xmlns:xlink="http://www.w3.org/1999/xlink">
<g id="graph0" class="graph" transform="scale(1 1) rotate(0) translate(4 1550)">
<title>oneDegreeRelationshipsDiagram</title>
<polygon fill="#ffffff" stroke="transparent" points="-4,4 -4,-1550 836,-1550 836,4 -4,4"/>
<text text-anchor="middle" x="71.5" y="-7.2" font-family="Helvetica,sans-Serif" font-size="11.00">Generated by SchemaSpy</text>
<!-- m_demanddetail -->
<g id="node1" class="node">
<title>m_demanddetail</title>
<g id="a_node1"><a xlink:href="../../tables/m_demanddetail.html" xlink:title="m_demanddetail" target="_top">
<polygon fill="#ffffff" stroke="transparent" points="570,-1117 570,-1447 824,-1447 824,-1117 570,-1117"/>
<polygon fill="#f5f5f5" stroke="transparent" points="572,-1423 572,-1445 822,-1445 822,-1423 572,-1423"/>
<polygon fill="none" stroke="black" points="572,-1423 572,-1445 822,-1445 822,-1423 572,-1423"/>
<text text-anchor="start" x="577" y="-1432.2" font-family="Helvetica,sans-Serif" font-weight="bold" font-size="11.00">m_demanddetail</text>
<text text-anchor="start" x="787" y="-1431.2" font-family="Helvetica,sans-Serif" font-size="11.00">[table]</text>
<polygon fill="none" stroke="black" points="572,-1401 572,-1423 739,-1423 739,-1401 572,-1401"/>
<image xlink:href="../../images/primaryKeys.png" width="11px" height="12px" preserveAspectRatio="xMinYMin meet" x="577" y="-1418"/>
<text text-anchor="start" x="592" y="-1409.2" font-family="Helvetica,sans-Serif" font-size="11.00">m_demanddetail_id</text>
<polygon fill="none" stroke="black" points="739,-1401 739,-1423 822,-1423 822,-1401 739,-1401"/>
<text text-anchor="start" x="742" y="-1409.2" font-family="Helvetica,sans-Serif" font-size="11.00">numeric[10]</text>
<polygon fill="none" stroke="black" points="572,-1379 572,-1401 739,-1401 739,-1379 572,-1379"/>
<text text-anchor="start" x="592" y="-1387.2" font-family="Helvetica,sans-Serif" font-size="11.00">ad_client_id</text>
<polygon fill="none" stroke="black" points="739,-1379 739,-1401 822,-1401 822,-1379 739,-1379"/>
<text text-anchor="start" x="742" y="-1387.2" font-family="Helvetica,sans-Serif" font-size="11.00">numeric[10]</text>
<polygon fill="none" stroke="black" points="572,-1357 572,-1379 739,-1379 739,-1357 572,-1357"/>
<text text-anchor="start" x="592" y="-1365.2" font-family="Helvetica,sans-Serif" font-size="11.00">ad_org_id</text>
<polygon fill="none" stroke="black" points="739,-1357 739,-1379 822,-1379 822,-1357 739,-1357"/>
<text text-anchor="start" x="742" y="-1365.2" font-family="Helvetica,sans-Serif" font-size="11.00">numeric[10]</text>
<polygon fill="none" stroke="black" points="572,-1335 572,-1357 739,-1357 739,-1335 572,-1335"/>
<text text-anchor="start" x="592" y="-1343.2" font-family="Helvetica,sans-Serif" font-size="11.00">isactive</text>
<polygon fill="none" stroke="black" points="739,-1335 739,-1357 822,-1357 822,-1335 739,-1335"/>
<text text-anchor="start" x="742" y="-1343.2" font-family="Helvetica,sans-Serif" font-size="11.00">bpchar[1]</text>
<polygon fill="none" stroke="black" points="572,-1313 572,-1335 739,-1335 739,-1313 572,-1313"/>
<text text-anchor="start" x="592" y="-1321.2" font-family="Helvetica,sans-Serif" font-size="11.00">created</text>
<polygon fill="none" stroke="black" points="739,-1313 739,-1335 822,-1335 822,-1313 739,-1313"/>
<text text-anchor="start" x="742" y="-1321.2" font-family="Helvetica,sans-Serif" font-size="11.00">timestamp[29,6]</text>
<polygon fill="none" stroke="black" points="572,-1291 572,-1313 739,-1313 739,-1291 572,-1291"/>
<text text-anchor="start" x="592" y="-1299.2" font-family="Helvetica,sans-Serif" font-size="11.00">createdby</text>
<polygon fill="none" stroke="black" points="739,-1291 739,-1313 822,-1313 822,-1291 739,-1291"/>
<text text-anchor="start" x="742" y="-1299.2" font-family="Helvetica,sans-Serif" font-size="11.00">numeric[10]</text>
<polygon fill="none" stroke="black" points="572,-1269 572,-1291 739,-1291 739,-1269 572,-1269"/>
<text text-anchor="start" x="592" y="-1277.2" font-family="Helvetica,sans-Serif" font-size="11.00">updated</text>
<polygon fill="none" stroke="black" points="739,-1269 739,-1291 822,-1291 822,-1269 739,-1269"/>
<text text-anchor="start" x="742" y="-1277.2" font-family="Helvetica,sans-Serif" font-size="11.00">timestamp[29,6]</text>
<polygon fill="none" stroke="black" points="572,-1247 572,-1269 739,-1269 739,-1247 572,-1247"/>
<text text-anchor="start" x="592" y="-1255.2" font-family="Helvetica,sans-Serif" font-size="11.00">updatedby</text>
<polygon fill="none" stroke="black" points="739,-1247 739,-1269 822,-1269 822,-1247 739,-1247"/>
<text text-anchor="start" x="742" y="-1255.2" font-family="Helvetica,sans-Serif" font-size="11.00">numeric[10]</text>
<polygon fill="none" stroke="black" points="572,-1225 572,-1247 739,-1247 739,-1225 572,-1225"/>
<image xlink:href="../../images/foreignKeys.png" width="11px" height="12px" preserveAspectRatio="xMinYMin meet" x="577" y="-1242"/>
<text text-anchor="start" x="592" y="-1233.2" font-family="Helvetica,sans-Serif" font-size="11.00">m_demandline_id</text>
<polygon fill="none" stroke="black" points="739,-1225 739,-1247 822,-1247 822,-1225 739,-1225"/>
<text text-anchor="start" x="742" y="-1233.2" font-family="Helvetica,sans-Serif" font-size="11.00">numeric[10]</text>
<polygon fill="none" stroke="black" points="572,-1203 572,-1225 739,-1225 739,-1203 572,-1203"/>
<image xlink:href="../../images/foreignKeys.png" width="11px" height="12px" preserveAspectRatio="xMinYMin meet" x="577" y="-1220"/>
<text text-anchor="start" x="592" y="-1211.2" font-family="Helvetica,sans-Serif" font-size="11.00">m_forecastline_id</text>
<polygon fill="none" stroke="black" points="739,-1203 739,-1225 822,-1225 822,-1203 739,-1203"/>
<text text-anchor="start" x="742" y="-1211.2" font-family="Helvetica,sans-Serif" font-size="11.00">numeric[10]</text>
<polygon fill="none" stroke="black" points="572,-1181 572,-1203 739,-1203 739,-1181 572,-1181"/>
<image xlink:href="../../images/foreignKeys.png" width="11px" height="12px" preserveAspectRatio="xMinYMin meet" x="577" y="-1198"/>
<text text-anchor="start" x="592" y="-1189.2" font-family="Helvetica,sans-Serif" font-size="11.00">m_requisitionline_id</text>
<polygon fill="none" stroke="black" points="739,-1181 739,-1203 822,-1203 822,-1181 739,-1181"/>
<text text-anchor="start" x="742" y="-1189.2" font-family="Helvetica,sans-Serif" font-size="11.00">numeric[10]</text>
<polygon fill="#ffffff" stroke="transparent" points="572,-1159 572,-1181 739,-1181 739,-1159 572,-1159"/>
<polygon fill="none" stroke="black" points="572,-1159 572,-1181 739,-1181 739,-1159 572,-1159"/>
<image xlink:href="../../images/foreignKeys.png" width="11px" height="12px" preserveAspectRatio="xMinYMin meet" x="577" y="-1176"/>
<text text-anchor="start" x="592" y="-1167.2" font-family="Helvetica,sans-Serif" font-size="11.00">c_orderline_id</text>
<polygon fill="none" stroke="black" points="739,-1159 739,-1181 822,-1181 822,-1159 739,-1159"/>
<text text-anchor="start" x="742" y="-1167.2" font-family="Helvetica,sans-Serif" font-size="11.00">numeric[10]</text>
<polygon fill="#ffffff" stroke="transparent" points="572,-1137 572,-1159 739,-1159 739,-1137 572,-1137"/>
<polygon fill="none" stroke="black" points="572,-1137 572,-1159 739,-1159 739,-1137 572,-1137"/>
<text text-anchor="start" x="592" y="-1145.2" font-family="Helvetica,sans-Serif" font-size="11.00">m_demanddetail_uu</text>
<polygon fill="none" stroke="black" points="739,-1137 739,-1159 822,-1159 822,-1137 739,-1137"/>
<text text-anchor="start" x="742" y="-1145.2" font-family="Helvetica,sans-Serif" font-size="11.00">varchar[36]</text>
<polygon fill="#ffffff" stroke="transparent" points="572,-1119 572,-1137 822,-1137 822,-1119 572,-1119"/>
<polygon fill="none" stroke="black" points="572,-1119 572,-1137 822,-1137 822,-1119 572,-1119"/>
<polygon fill="#ffffff" stroke="transparent" points="573,-1120 573,-1136 659,-1136 659,-1120 573,-1120"/>
<text text-anchor="start" x="575" y="-1125.2" font-family="Helvetica,sans-Serif" font-size="11.00">&lt; 4</text>
<polygon fill="#ffffff" stroke="transparent" points="659,-1120 659,-1136 736,-1136 736,-1120 659,-1120"/>
<text text-anchor="start" x="694" y="-1125.2" font-family="Helvetica,sans-Serif" font-size="11.00"> &#160;</text>
<polygon fill="#ffffff" stroke="transparent" points="736,-1120 736,-1136 821,-1136 821,-1120 736,-1120"/>
<text text-anchor="start" x="803" y="-1125.2" font-family="Helvetica,sans-Serif" font-size="11.00">0 &gt;</text>
<polygon fill="black" stroke="black" points="659,-1120 659,-1136 659,-1136 659,-1120 659,-1120"/>
<polygon fill="black" stroke="black" points="736,-1120 736,-1136 736,-1136 736,-1120 736,-1120"/>
<polygon fill="none" stroke="black" stroke-width="2" points="571,-1118 571,-1446 823,-1446 823,-1118 571,-1118"/>
</a>
</g>
</g>
<!-- c_orderline -->
<g id="node2" class="node">
<title>c_orderline</title>
<g id="a_node2"><a xlink:href="../../tables/c_orderline.html" xlink:title="c_orderline" target="_top">
<polygon fill="#ffffff" stroke="transparent" points="8,-37 8,-953 261,-953 261,-37 8,-37"/>
<polygon fill="#f5f5f5" stroke="transparent" points="8.5,-931 8.5,-953 261.5,-953 261.5,-931 8.5,-931"/>
<polygon fill="none" stroke="black" points="8.5,-931 8.5,-953 261.5,-953 261.5,-931 8.5,-931"/>
<text text-anchor="start" x="13.5" y="-940.2" font-family="Helvetica,sans-Serif" font-weight="bold" font-size="11.00">c_orderline</text>
<text text-anchor="start" x="226.5" y="-939.2" font-family="Helvetica,sans-Serif" font-size="11.00">[table]</text>
<polygon fill="none" stroke="black" points="8.5,-909 8.5,-931 261.5,-931 261.5,-909 8.5,-909"/>
<image xlink:href="../../images/primaryKeys.png" width="11px" height="12px" preserveAspectRatio="xMinYMin meet" x="13.5" y="-926"/>
<text text-anchor="start" x="28.5" y="-917.2" font-family="Helvetica,sans-Serif" font-size="11.00">c_orderline_id</text>
<polygon fill="none" stroke="black" points="8.5,-887 8.5,-909 261.5,-909 261.5,-887 8.5,-887"/>
<image xlink:href="../../images/foreignKeys.png" width="11px" height="12px" preserveAspectRatio="xMinYMin meet" x="13.5" y="-904"/>
<text text-anchor="start" x="28.5" y="-895.2" font-family="Helvetica,sans-Serif" font-size="11.00">ad_org_id</text>
<polygon fill="#ffffff" stroke="transparent" points="8.5,-865 8.5,-887 261.5,-887 261.5,-865 8.5,-865"/>
<polygon fill="none" stroke="black" points="8.5,-865 8.5,-887 261.5,-887 261.5,-865 8.5,-865"/>
<image xlink:href="../../images/foreignKeys.png" width="11px" height="12px" preserveAspectRatio="xMinYMin meet" x="13.5" y="-882"/>
<text text-anchor="start" x="28.5" y="-873.2" font-family="Helvetica,sans-Serif" font-size="11.00">c_order_id</text>
<polygon fill="none" stroke="black" points="8.5,-843 8.5,-865 261.5,-865 261.5,-843 8.5,-843"/>
<image xlink:href="../../images/foreignKeys.png" width="11px" height="12px" preserveAspectRatio="xMinYMin meet" x="13.5" y="-860"/>
<text text-anchor="start" x="28.5" y="-851.2" font-family="Helvetica,sans-Serif" font-size="11.00">c_bpartner_id</text>
<polygon fill="none" stroke="black" points="8.5,-821 8.5,-843 261.5,-843 261.5,-821 8.5,-821"/>
<image xlink:href="../../images/foreignKeys.png" width="11px" height="12px" preserveAspectRatio="xMinYMin meet" x="13.5" y="-838"/>
<text text-anchor="start" x="28.5" y="-829.2" font-family="Helvetica,sans-Serif" font-size="11.00">c_bpartner_location_id</text>
<polygon fill="#ffffff" stroke="transparent" points="8.5,-799 8.5,-821 261.5,-821 261.5,-799 8.5,-799"/>
<polygon fill="none" stroke="black" points="8.5,-799 8.5,-821 261.5,-821 261.5,-799 8.5,-799"/>
<image xlink:href="../../images/foreignKeys.png" width="11px" height="12px" preserveAspectRatio="xMinYMin meet" x="13.5" y="-816"/>
<text text-anchor="start" x="28.5" y="-807.2" font-family="Helvetica,sans-Serif" font-size="11.00">m_product_id</text>
<polygon fill="none" stroke="black" points="8.5,-777 8.5,-799 261.5,-799 261.5,-777 8.5,-777"/>
<image xlink:href="../../images/foreignKeys.png" width="11px" height="12px" preserveAspectRatio="xMinYMin meet" x="13.5" y="-794"/>
<text text-anchor="start" x="28.5" y="-785.2" font-family="Helvetica,sans-Serif" font-size="11.00">m_warehouse_id</text>
<polygon fill="none" stroke="black" points="8.5,-755 8.5,-777 261.5,-777 261.5,-755 8.5,-755"/>
<image xlink:href="../../images/foreignKeys.png" width="11px" height="12px" preserveAspectRatio="xMinYMin meet" x="13.5" y="-772"/>
<text text-anchor="start" x="28.5" y="-763.2" font-family="Helvetica,sans-Serif" font-size="11.00">c_uom_id</text>
<polygon fill="none" stroke="black" points="8.5,-733 8.5,-755 261.5,-755 261.5,-733 8.5,-733"/>
<image xlink:href="../../images/foreignKeys.png" width="11px" height="12px" preserveAspectRatio="xMinYMin meet" x="13.5" y="-750"/>
<text text-anchor="start" x="28.5" y="-741.2" font-family="Helvetica,sans-Serif" font-size="11.00">m_shipper_id</text>
<polygon fill="none" stroke="black" points="8.5,-711 8.5,-733 261.5,-733 261.5,-711 8.5,-711"/>
<image xlink:href="../../images/foreignKeys.png" width="11px" height="12px" preserveAspectRatio="xMinYMin meet" x="13.5" y="-728"/>
<text text-anchor="start" x="28.5" y="-719.2" font-family="Helvetica,sans-Serif" font-size="11.00">c_currency_id</text>
<polygon fill="none" stroke="black" points="8.5,-689 8.5,-711 261.5,-711 261.5,-689 8.5,-689"/>
<image xlink:href="../../images/foreignKeys.png" width="11px" height="12px" preserveAspectRatio="xMinYMin meet" x="13.5" y="-706"/>
<text text-anchor="start" x="28.5" y="-697.2" font-family="Helvetica,sans-Serif" font-size="11.00">c_charge_id</text>
<polygon fill="none" stroke="black" points="8.5,-667 8.5,-689 261.5,-689 261.5,-667 8.5,-667"/>
<image xlink:href="../../images/foreignKeys.png" width="11px" height="12px" preserveAspectRatio="xMinYMin meet" x="13.5" y="-684"/>
<text text-anchor="start" x="28.5" y="-675.2" font-family="Helvetica,sans-Serif" font-size="11.00">c_tax_id</text>
<polygon fill="none" stroke="black" points="8.5,-645 8.5,-667 261.5,-667 261.5,-645 8.5,-645"/>
<image xlink:href="../../images/foreignKeys.png" width="11px" height="12px" preserveAspectRatio="xMinYMin meet" x="13.5" y="-662"/>
<text text-anchor="start" x="28.5" y="-653.2" font-family="Helvetica,sans-Serif" font-size="11.00">s_resourceassignment_id</text>
<polygon fill="#ffffff" stroke="transparent" points="8.5,-623 8.5,-645 261.5,-645 261.5,-623 8.5,-623"/>
<polygon fill="none" stroke="black" points="8.5,-623 8.5,-645 261.5,-645 261.5,-623 8.5,-623"/>
<image xlink:href="../../images/foreignKeys.png" width="11px" height="12px" preserveAspectRatio="xMinYMin meet" x="13.5" y="-640"/>
<text text-anchor="start" x="28.5" y="-631.2" font-family="Helvetica,sans-Serif" font-size="11.00">ref_orderline_id</text>
<polygon fill="none" stroke="black" points="8.5,-601 8.5,-623 261.5,-623 261.5,-601 8.5,-601"/>
<image xlink:href="../../images/foreignKeys.png" width="11px" height="12px" preserveAspectRatio="xMinYMin meet" x="13.5" y="-618"/>
<text text-anchor="start" x="28.5" y="-609.2" font-family="Helvetica,sans-Serif" font-size="11.00">m_attributesetinstance_id</text>
<polygon fill="none" stroke="black" points="8.5,-579 8.5,-601 261.5,-601 261.5,-579 8.5,-579"/>
<image xlink:href="../../images/foreignKeys.png" width="11px" height="12px" preserveAspectRatio="xMinYMin meet" x="13.5" y="-596"/>
<text text-anchor="start" x="28.5" y="-587.2" font-family="Helvetica,sans-Serif" font-size="11.00">c_project_id</text>
<polygon fill="none" stroke="black" points="8.5,-557 8.5,-579 261.5,-579 261.5,-557 8.5,-557"/>
<image xlink:href="../../images/foreignKeys.png" width="11px" height="12px" preserveAspectRatio="xMinYMin meet" x="13.5" y="-574"/>
<text text-anchor="start" x="28.5" y="-565.2" font-family="Helvetica,sans-Serif" font-size="11.00">c_projectphase_id</text>
<polygon fill="none" stroke="black" points="8.5,-535 8.5,-557 261.5,-557 261.5,-535 8.5,-535"/>
<image xlink:href="../../images/foreignKeys.png" width="11px" height="12px" preserveAspectRatio="xMinYMin meet" x="13.5" y="-552"/>
<text text-anchor="start" x="28.5" y="-543.2" font-family="Helvetica,sans-Serif" font-size="11.00">c_projecttask_id</text>
<polygon fill="none" stroke="black" points="8.5,-513 8.5,-535 261.5,-535 261.5,-513 8.5,-513"/>
<image xlink:href="../../images/foreignKeys.png" width="11px" height="12px" preserveAspectRatio="xMinYMin meet" x="13.5" y="-530"/>
<text text-anchor="start" x="28.5" y="-521.2" font-family="Helvetica,sans-Serif" font-size="11.00">c_campaign_id</text>
<polygon fill="none" stroke="black" points="8.5,-491 8.5,-513 261.5,-513 261.5,-491 8.5,-491"/>
<image xlink:href="../../images/foreignKeys.png" width="11px" height="12px" preserveAspectRatio="xMinYMin meet" x="13.5" y="-508"/>
<text text-anchor="start" x="28.5" y="-499.2" font-family="Helvetica,sans-Serif" font-size="11.00">c_activity_id</text>
<polygon fill="none" stroke="black" points="8.5,-469 8.5,-491 261.5,-491 261.5,-469 8.5,-469"/>
<image xlink:href="../../images/foreignKeys.png" width="11px" height="12px" preserveAspectRatio="xMinYMin meet" x="13.5" y="-486"/>
<text text-anchor="start" x="28.5" y="-477.2" font-family="Helvetica,sans-Serif" font-size="11.00">user1_id</text>
<polygon fill="none" stroke="black" points="8.5,-447 8.5,-469 261.5,-469 261.5,-447 8.5,-447"/>
<image xlink:href="../../images/foreignKeys.png" width="11px" height="12px" preserveAspectRatio="xMinYMin meet" x="13.5" y="-464"/>
<text text-anchor="start" x="28.5" y="-455.2" font-family="Helvetica,sans-Serif" font-size="11.00">user2_id</text>
<polygon fill="none" stroke="black" points="8.5,-425 8.5,-447 261.5,-447 261.5,-425 8.5,-425"/>
<image xlink:href="../../images/foreignKeys.png" width="11px" height="12px" preserveAspectRatio="xMinYMin meet" x="13.5" y="-442"/>
<text text-anchor="start" x="28.5" y="-433.2" font-family="Helvetica,sans-Serif" font-size="11.00">ad_orgtrx_id</text>
<polygon fill="#ffffff" stroke="transparent" points="8.5,-403 8.5,-425 261.5,-425 261.5,-403 8.5,-403"/>
<polygon fill="none" stroke="black" points="8.5,-403 8.5,-425 261.5,-425 261.5,-403 8.5,-403"/>
<image xlink:href="../../images/foreignKeys.png" width="11px" height="12px" preserveAspectRatio="xMinYMin meet" x="13.5" y="-420"/>
<text text-anchor="start" x="28.5" y="-411.2" font-family="Helvetica,sans-Serif" font-size="11.00">link_orderline_id</text>
<polygon fill="none" stroke="black" points="8.5,-381 8.5,-403 261.5,-403 261.5,-381 8.5,-381"/>
<image xlink:href="../../images/foreignKeys.png" width="11px" height="12px" preserveAspectRatio="xMinYMin meet" x="13.5" y="-398"/>
<text text-anchor="start" x="28.5" y="-389.2" font-family="Helvetica,sans-Serif" font-size="11.00">pp_cost_collector_id</text>
<polygon fill="none" stroke="black" points="8.5,-359 8.5,-381 261.5,-381 261.5,-359 8.5,-359"/>
<image xlink:href="../../images/foreignKeys.png" width="11px" height="12px" preserveAspectRatio="xMinYMin meet" x="13.5" y="-376"/>
<text text-anchor="start" x="28.5" y="-367.2" font-family="Helvetica,sans-Serif" font-size="11.00">m_promotion_id</text>
<polygon fill="#ffffff" stroke="transparent" points="8.5,-337 8.5,-359 261.5,-359 261.5,-337 8.5,-337"/>
<polygon fill="none" stroke="black" points="8.5,-337 8.5,-359 261.5,-359 261.5,-337 8.5,-337"/>
<text text-anchor="start" x="28.5" y="-345.2" font-family="Helvetica,sans-Serif" font-size="11.00">c_orderline_uu</text>
<polygon fill="none" stroke="black" points="8.5,-315 8.5,-337 261.5,-337 261.5,-315 8.5,-315"/>
<image xlink:href="../../images/foreignKeys.png" width="11px" height="12px" preserveAspectRatio="xMinYMin meet" x="13.5" y="-332"/>
<text text-anchor="start" x="28.5" y="-323.2" font-family="Helvetica,sans-Serif" font-size="11.00">lbr_legalmessage_id</text>
<polygon fill="none" stroke="black" points="8.5,-293 8.5,-315 261.5,-315 261.5,-293 8.5,-293"/>
<image xlink:href="../../images/foreignKeys.png" width="11px" height="12px" preserveAspectRatio="xMinYMin meet" x="13.5" y="-310"/>
<text text-anchor="start" x="28.5" y="-301.2" font-family="Helvetica,sans-Serif" font-size="11.00">cof_cfop_delivery_id</text>
<polygon fill="none" stroke="black" points="8.5,-271 8.5,-293 261.5,-293 261.5,-271 8.5,-271"/>
<image xlink:href="../../images/foreignKeys.png" width="11px" height="12px" preserveAspectRatio="xMinYMin meet" x="13.5" y="-288"/>
<text text-anchor="start" x="28.5" y="-279.2" font-family="Helvetica,sans-Serif" font-size="11.00">cof_legalmessagedelivery_id</text>
<polygon fill="none" stroke="black" points="8.5,-249 8.5,-271 261.5,-271 261.5,-249 8.5,-249"/>
<image xlink:href="../../images/foreignKeys.png" width="11px" height="12px" preserveAspectRatio="xMinYMin meet" x="13.5" y="-266"/>
<text text-anchor="start" x="28.5" y="-257.2" font-family="Helvetica,sans-Serif" font-size="11.00">cof_products_id</text>
<polygon fill="none" stroke="black" points="8.5,-227 8.5,-249 261.5,-249 261.5,-227 8.5,-227"/>
<image xlink:href="../../images/foreignKeys.png" width="11px" height="12px" preserveAspectRatio="xMinYMin meet" x="13.5" y="-244"/>
<text text-anchor="start" x="28.5" y="-235.2" font-family="Helvetica,sans-Serif" font-size="11.00">a_asset_id</text>
<polygon fill="none" stroke="black" points="8.5,-205 8.5,-227 261.5,-227 261.5,-205 8.5,-205"/>
<image xlink:href="../../images/foreignKeys.png" width="11px" height="12px" preserveAspectRatio="xMinYMin meet" x="13.5" y="-222"/>
<text text-anchor="start" x="28.5" y="-213.2" font-family="Helvetica,sans-Serif" font-size="11.00">cof_linhaopindusprestador_id</text>
<polygon fill="none" stroke="black" points="8.5,-183 8.5,-205 261.5,-205 261.5,-183 8.5,-183"/>
<image xlink:href="../../images/foreignKeys.png" width="11px" height="12px" preserveAspectRatio="xMinYMin meet" x="13.5" y="-200"/>
<text text-anchor="start" x="28.5" y="-191.2" font-family="Helvetica,sans-Serif" font-size="11.00">cof_linhaopmataplicadoprest_id</text>
<polygon fill="none" stroke="black" points="8.5,-161 8.5,-183 261.5,-183 261.5,-161 8.5,-161"/>
<image xlink:href="../../images/foreignKeys.png" width="11px" height="12px" preserveAspectRatio="xMinYMin meet" x="13.5" y="-178"/>
<text text-anchor="start" x="28.5" y="-169.2" font-family="Helvetica,sans-Serif" font-size="11.00">cof_pontoremessa_id</text>
<polygon fill="none" stroke="black" points="8.5,-139 8.5,-161 261.5,-161 261.5,-139 8.5,-139"/>
<image xlink:href="../../images/foreignKeys.png" width="11px" height="12px" preserveAspectRatio="xMinYMin meet" x="13.5" y="-156"/>
<text text-anchor="start" x="28.5" y="-147.2" font-family="Helvetica,sans-Serif" font-size="11.00">cof_kitvendas_id</text>
<polygon fill="none" stroke="black" points="8.5,-117 8.5,-139 261.5,-139 261.5,-117 8.5,-117"/>
<image xlink:href="../../images/foreignKeys.png" width="11px" height="12px" preserveAspectRatio="xMinYMin meet" x="13.5" y="-134"/>
<text text-anchor="start" x="28.5" y="-125.2" font-family="Helvetica,sans-Serif" font-size="11.00">pp_product_bom_id</text>
<polygon fill="none" stroke="black" points="8.5,-95 8.5,-117 261.5,-117 261.5,-95 8.5,-95"/>
<image xlink:href="../../images/foreignKeys.png" width="11px" height="12px" preserveAspectRatio="xMinYMin meet" x="13.5" y="-112"/>
<text text-anchor="start" x="28.5" y="-103.2" font-family="Helvetica,sans-Serif" font-size="11.00">cof_uomcomercial_id</text>
<polygon fill="none" stroke="black" points="8.5,-73 8.5,-95 261.5,-95 261.5,-73 8.5,-73"/>
<image xlink:href="../../images/foreignKeys.png" width="11px" height="12px" preserveAspectRatio="xMinYMin meet" x="13.5" y="-90"/>
<text text-anchor="start" x="28.5" y="-81.2" font-family="Helvetica,sans-Serif" font-size="11.00">cof_linhareposicao_id</text>
<polygon fill="none" stroke="black" points="8.5,-55 8.5,-73 261.5,-73 261.5,-55 8.5,-55"/>
<text text-anchor="start" x="11.5" y="-61.2" font-family="Helvetica,sans-Serif" font-size="11.00">...</text>
<polygon fill="#ffffff" stroke="transparent" points="8.5,-37 8.5,-55 261.5,-55 261.5,-37 8.5,-37"/>
<polygon fill="none" stroke="black" points="8.5,-37 8.5,-55 261.5,-55 261.5,-37 8.5,-37"/>
<polygon fill="#ffffff" stroke="transparent" points="9.5,-38 9.5,-54 98.5,-54 98.5,-38 9.5,-38"/>
<text text-anchor="start" x="11.5" y="-43.2" font-family="Helvetica,sans-Serif" font-size="11.00">&lt; 37</text>
<polygon fill="#ffffff" stroke="transparent" points="98.5,-38 98.5,-54 172.5,-54 172.5,-38 98.5,-38"/>
<text text-anchor="start" x="132" y="-43.2" font-family="Helvetica,sans-Serif" font-size="11.00"> &#160;</text>
<polygon fill="#ffffff" stroke="transparent" points="172.5,-38 172.5,-54 260.5,-54 260.5,-38 172.5,-38"/>
<text text-anchor="start" x="236.5" y="-43.2" font-family="Helvetica,sans-Serif" font-size="11.00">22 &gt;</text>
<polygon fill="black" stroke="black" points="98.5,-38 98.5,-54 98.5,-54 98.5,-38 98.5,-38"/>
<polygon fill="black" stroke="black" points="172.5,-38 172.5,-54 172.5,-54 172.5,-38 172.5,-38"/>
</a>
</g>
</g>
<!-- m_demanddetail&#45;&gt;c_orderline -->
<g id="edge1" class="edge">
<title>m_demanddetail:w&#45;&gt;c_orderline:e</title>
<path fill="none" stroke="black" d="M557.08,-1165.69C507.61,-1129.63 581.62,-878.49 529,-832 453.39,-765.2 386.7,-777.18 302,-832 266.01,-855.29 305.37,-920 262.5,-920"/>
<polygon fill="black" stroke="black" points="563.36,-1167.63 569.94,-1173.44 567.18,-1168.82 571,-1170 571,-1170 571,-1170 567.18,-1168.82 572.06,-1166.56 563.36,-1167.63 563.36,-1167.63"/>
<ellipse fill="none" stroke="black" cx="560.3" cy="-1166.69" rx="3.2" ry="3.2"/>
</g>
<!-- m_demandline -->
<g id="node3" class="node">
<title>m_demandline</title>
<g id="a_node3"><a xlink:href="../../tables/m_demandline.html" xlink:title="m_demandline" target="_top">
<polygon fill="#ffffff" stroke="transparent" points="339.5,-1374 339.5,-1542 491.5,-1542 491.5,-1374 339.5,-1374"/>
<polygon fill="#f5f5f5" stroke="transparent" points="339.5,-1520 339.5,-1542 491.5,-1542 491.5,-1520 339.5,-1520"/>
<polygon fill="none" stroke="black" points="339.5,-1520 339.5,-1542 491.5,-1542 491.5,-1520 339.5,-1520"/>
<text text-anchor="start" x="344.5" y="-1529.2" font-family="Helvetica,sans-Serif" font-weight="bold" font-size="11.00">m_demandline</text>
<text text-anchor="start" x="456.5" y="-1528.2" font-family="Helvetica,sans-Serif" font-size="11.00">[table]</text>
<polygon fill="none" stroke="black" points="339.5,-1498 339.5,-1520 491.5,-1520 491.5,-1498 339.5,-1498"/>
<image xlink:href="../../images/primaryKeys.png" width="11px" height="12px" preserveAspectRatio="xMinYMin meet" x="344.5" y="-1515"/>
<text text-anchor="start" x="359.5" y="-1506.2" font-family="Helvetica,sans-Serif" font-size="11.00">m_demandline_id</text>
<polygon fill="none" stroke="black" points="339.5,-1476 339.5,-1498 491.5,-1498 491.5,-1476 339.5,-1476"/>
<image xlink:href="../../images/foreignKeys.png" width="11px" height="12px" preserveAspectRatio="xMinYMin meet" x="344.5" y="-1493"/>
<text text-anchor="start" x="359.5" y="-1484.2" font-family="Helvetica,sans-Serif" font-size="11.00">m_demand_id</text>
<polygon fill="none" stroke="black" points="339.5,-1454 339.5,-1476 491.5,-1476 491.5,-1454 339.5,-1454"/>
<image xlink:href="../../images/foreignKeys.png" width="11px" height="12px" preserveAspectRatio="xMinYMin meet" x="344.5" y="-1471"/>
<text text-anchor="start" x="359.5" y="-1462.2" font-family="Helvetica,sans-Serif" font-size="11.00">c_period_id</text>
<polygon fill="none" stroke="black" points="339.5,-1432 339.5,-1454 491.5,-1454 491.5,-1432 339.5,-1432"/>
<image xlink:href="../../images/foreignKeys.png" width="11px" height="12px" preserveAspectRatio="xMinYMin meet" x="344.5" y="-1449"/>
<text text-anchor="start" x="359.5" y="-1440.2" font-family="Helvetica,sans-Serif" font-size="11.00">m_product_id</text>
<polygon fill="#ffffff" stroke="transparent" points="339.5,-1410 339.5,-1432 491.5,-1432 491.5,-1410 339.5,-1410"/>
<polygon fill="none" stroke="black" points="339.5,-1410 339.5,-1432 491.5,-1432 491.5,-1410 339.5,-1410"/>
<text text-anchor="start" x="359.5" y="-1418.2" font-family="Helvetica,sans-Serif" font-size="11.00">m_demandline_uu</text>
<polygon fill="none" stroke="black" points="339.5,-1392 339.5,-1410 491.5,-1410 491.5,-1392 339.5,-1392"/>
<text text-anchor="start" x="342.5" y="-1398.2" font-family="Helvetica,sans-Serif" font-size="11.00">...</text>
<polygon fill="#ffffff" stroke="transparent" points="339.5,-1374 339.5,-1392 491.5,-1392 491.5,-1374 339.5,-1374"/>
<polygon fill="none" stroke="black" points="339.5,-1374 339.5,-1392 491.5,-1392 491.5,-1374 339.5,-1374"/>
<polygon fill="#ffffff" stroke="transparent" points="340.5,-1375 340.5,-1391 393.5,-1391 393.5,-1375 340.5,-1375"/>
<text text-anchor="start" x="342.5" y="-1380.2" font-family="Helvetica,sans-Serif" font-size="11.00">&lt; 3</text>
<polygon fill="#ffffff" stroke="transparent" points="393.5,-1375 393.5,-1391 437.5,-1391 437.5,-1375 393.5,-1375"/>
<text text-anchor="start" x="412" y="-1380.2" font-family="Helvetica,sans-Serif" font-size="11.00"> &#160;</text>
<polygon fill="#ffffff" stroke="transparent" points="437.5,-1375 437.5,-1391 490.5,-1391 490.5,-1375 437.5,-1375"/>
<text text-anchor="start" x="472.5" y="-1380.2" font-family="Helvetica,sans-Serif" font-size="11.00">1 &gt;</text>
<polygon fill="black" stroke="black" points="393.5,-1375 393.5,-1391 393.5,-1391 393.5,-1375 393.5,-1375"/>
<polygon fill="black" stroke="black" points="437.5,-1375 437.5,-1391 437.5,-1391 437.5,-1375 437.5,-1375"/>
</a>
</g>
</g>
<!-- m_demanddetail&#45;&gt;m_demandline -->
<g id="edge2" class="edge">
<title>m_demanddetail:w&#45;&gt;m_demandline:e</title>
<path fill="none" stroke="black" d="M557.31,-1241.45C515.11,-1279.93 550.32,-1509 492.5,-1509"/>
<polygon fill="black" stroke="black" points="563.57,-1238.96 572.33,-1239.34 567.28,-1237.48 571,-1236 571,-1236 571,-1236 567.28,-1237.48 569.67,-1232.66 563.57,-1238.96 563.57,-1238.96"/>
<ellipse fill="none" stroke="black" cx="560.6" cy="-1240.14" rx="3.2" ry="3.2"/>
</g>
<!-- m_forecastline -->
<g id="node4" class="node">
<title>m_forecastline</title>
<g id="a_node4"><a xlink:href="../../tables/m_forecastline.html" xlink:title="m_forecastline" target="_top">
<polygon fill="#ffffff" stroke="transparent" points="339,-1141 339,-1353 492,-1353 492,-1141 339,-1141"/>
<polygon fill="#f5f5f5" stroke="transparent" points="339.5,-1331 339.5,-1353 492.5,-1353 492.5,-1331 339.5,-1331"/>
<polygon fill="none" stroke="black" points="339.5,-1331 339.5,-1353 492.5,-1353 492.5,-1331 339.5,-1331"/>
<text text-anchor="start" x="344.5" y="-1340.2" font-family="Helvetica,sans-Serif" font-weight="bold" font-size="11.00">m_forecastline</text>
<text text-anchor="start" x="457.5" y="-1339.2" font-family="Helvetica,sans-Serif" font-size="11.00">[table]</text>
<polygon fill="none" stroke="black" points="339.5,-1309 339.5,-1331 492.5,-1331 492.5,-1309 339.5,-1309"/>
<image xlink:href="../../images/primaryKeys.png" width="11px" height="12px" preserveAspectRatio="xMinYMin meet" x="344.5" y="-1326"/>
<text text-anchor="start" x="359.5" y="-1317.2" font-family="Helvetica,sans-Serif" font-size="11.00">m_forecastline_id</text>
<polygon fill="none" stroke="black" points="339.5,-1287 339.5,-1309 492.5,-1309 492.5,-1287 339.5,-1287"/>
<image xlink:href="../../images/foreignKeys.png" width="11px" height="12px" preserveAspectRatio="xMinYMin meet" x="344.5" y="-1304"/>
<text text-anchor="start" x="359.5" y="-1295.2" font-family="Helvetica,sans-Serif" font-size="11.00">m_forecast_id</text>
<polygon fill="none" stroke="black" points="339.5,-1265 339.5,-1287 492.5,-1287 492.5,-1265 339.5,-1265"/>
<image xlink:href="../../images/foreignKeys.png" width="11px" height="12px" preserveAspectRatio="xMinYMin meet" x="344.5" y="-1282"/>
<text text-anchor="start" x="359.5" y="-1273.2" font-family="Helvetica,sans-Serif" font-size="11.00">c_period_id</text>
<polygon fill="none" stroke="black" points="339.5,-1243 339.5,-1265 492.5,-1265 492.5,-1243 339.5,-1243"/>
<image xlink:href="../../images/foreignKeys.png" width="11px" height="12px" preserveAspectRatio="xMinYMin meet" x="344.5" y="-1260"/>
<text text-anchor="start" x="359.5" y="-1251.2" font-family="Helvetica,sans-Serif" font-size="11.00">m_product_id</text>
<polygon fill="none" stroke="black" points="339.5,-1221 339.5,-1243 492.5,-1243 492.5,-1221 339.5,-1221"/>
<image xlink:href="../../images/foreignKeys.png" width="11px" height="12px" preserveAspectRatio="xMinYMin meet" x="344.5" y="-1238"/>
<text text-anchor="start" x="359.5" y="-1229.2" font-family="Helvetica,sans-Serif" font-size="11.00">m_warehouse_id</text>
<polygon fill="none" stroke="black" points="339.5,-1199 339.5,-1221 492.5,-1221 492.5,-1199 339.5,-1199"/>
<image xlink:href="../../images/foreignKeys.png" width="11px" height="12px" preserveAspectRatio="xMinYMin meet" x="344.5" y="-1216"/>
<text text-anchor="start" x="359.5" y="-1207.2" font-family="Helvetica,sans-Serif" font-size="11.00">salesrep_id</text>
<polygon fill="#ffffff" stroke="transparent" points="339.5,-1177 339.5,-1199 492.5,-1199 492.5,-1177 339.5,-1177"/>
<polygon fill="none" stroke="black" points="339.5,-1177 339.5,-1199 492.5,-1199 492.5,-1177 339.5,-1177"/>
<text text-anchor="start" x="359.5" y="-1185.2" font-family="Helvetica,sans-Serif" font-size="11.00">m_forecastline_uu</text>
<polygon fill="none" stroke="black" points="339.5,-1159 339.5,-1177 492.5,-1177 492.5,-1159 339.5,-1159"/>
<text text-anchor="start" x="342.5" y="-1165.2" font-family="Helvetica,sans-Serif" font-size="11.00">...</text>
<polygon fill="#ffffff" stroke="transparent" points="339.5,-1141 339.5,-1159 492.5,-1159 492.5,-1141 339.5,-1141"/>
<polygon fill="none" stroke="black" points="339.5,-1141 339.5,-1159 492.5,-1159 492.5,-1141 339.5,-1141"/>
<polygon fill="#ffffff" stroke="transparent" points="340.5,-1142 340.5,-1158 394.5,-1158 394.5,-1142 340.5,-1142"/>
<text text-anchor="start" x="342.5" y="-1147.2" font-family="Helvetica,sans-Serif" font-size="11.00">&lt; 5</text>
<polygon fill="#ffffff" stroke="transparent" points="394.5,-1142 394.5,-1158 438.5,-1158 438.5,-1142 394.5,-1142"/>
<text text-anchor="start" x="413" y="-1147.2" font-family="Helvetica,sans-Serif" font-size="11.00"> &#160;</text>
<polygon fill="#ffffff" stroke="transparent" points="438.5,-1142 438.5,-1158 491.5,-1158 491.5,-1142 438.5,-1142"/>
<text text-anchor="start" x="473.5" y="-1147.2" font-family="Helvetica,sans-Serif" font-size="11.00">3 &gt;</text>
<polygon fill="black" stroke="black" points="394.5,-1142 394.5,-1158 394.5,-1158 394.5,-1142 394.5,-1142"/>
<polygon fill="black" stroke="black" points="438.5,-1142 438.5,-1158 438.5,-1158 438.5,-1142 438.5,-1142"/>
</a>
</g>
</g>
<!-- m_demanddetail&#45;&gt;m_forecastline -->
<g id="edge3" class="edge">
<title>m_demanddetail:w&#45;&gt;m_forecastline:e</title>
<path fill="none" stroke="black" d="M556.51,-1216.84C519.37,-1233.69 546.16,-1320 493.5,-1320"/>
<polygon fill="black" stroke="black" points="563.15,-1215.54 571.69,-1217.53 567.07,-1214.77 571,-1214 571,-1214 571,-1214 567.07,-1214.77 570.31,-1210.47 563.15,-1215.54 563.15,-1215.54"/>
<ellipse fill="none" stroke="black" cx="560.01" cy="-1216.15" rx="3.2" ry="3.2"/>
</g>
<!-- m_requisitionline -->
<g id="node5" class="node">
<title>m_requisitionline</title>
<g id="a_node5"><a xlink:href="../../tables/m_requisitionline.html" xlink:title="m_requisitionline" target="_top">
<polygon fill="#ffffff" stroke="transparent" points="310,-842 310,-1120 521,-1120 521,-842 310,-842"/>
<polygon fill="#f5f5f5" stroke="transparent" points="310.5,-1098 310.5,-1120 521.5,-1120 521.5,-1098 310.5,-1098"/>
<polygon fill="none" stroke="black" points="310.5,-1098 310.5,-1120 521.5,-1120 521.5,-1098 310.5,-1098"/>
<text text-anchor="start" x="315.5" y="-1107.2" font-family="Helvetica,sans-Serif" font-weight="bold" font-size="11.00">m_requisitionline</text>
<text text-anchor="start" x="486.5" y="-1106.2" font-family="Helvetica,sans-Serif" font-size="11.00">[table]</text>
<polygon fill="none" stroke="black" points="310.5,-1076 310.5,-1098 521.5,-1098 521.5,-1076 310.5,-1076"/>
<image xlink:href="../../images/primaryKeys.png" width="11px" height="12px" preserveAspectRatio="xMinYMin meet" x="315.5" y="-1093"/>
<text text-anchor="start" x="330.5" y="-1084.2" font-family="Helvetica,sans-Serif" font-size="11.00">m_requisitionline_id</text>
<polygon fill="none" stroke="black" points="310.5,-1054 310.5,-1076 521.5,-1076 521.5,-1054 310.5,-1054"/>
<image xlink:href="../../images/foreignKeys.png" width="11px" height="12px" preserveAspectRatio="xMinYMin meet" x="315.5" y="-1071"/>
<text text-anchor="start" x="330.5" y="-1062.2" font-family="Helvetica,sans-Serif" font-size="11.00">m_requisition_id</text>
<polygon fill="none" stroke="black" points="310.5,-1032 310.5,-1054 521.5,-1054 521.5,-1032 310.5,-1032"/>
<image xlink:href="../../images/foreignKeys.png" width="11px" height="12px" preserveAspectRatio="xMinYMin meet" x="315.5" y="-1049"/>
<text text-anchor="start" x="330.5" y="-1040.2" font-family="Helvetica,sans-Serif" font-size="11.00">m_product_id</text>
<polygon fill="#ffffff" stroke="transparent" points="310.5,-1010 310.5,-1032 521.5,-1032 521.5,-1010 310.5,-1010"/>
<polygon fill="none" stroke="black" points="310.5,-1010 310.5,-1032 521.5,-1032 521.5,-1010 310.5,-1010"/>
<image xlink:href="../../images/foreignKeys.png" width="11px" height="12px" preserveAspectRatio="xMinYMin meet" x="315.5" y="-1027"/>
<text text-anchor="start" x="330.5" y="-1018.2" font-family="Helvetica,sans-Serif" font-size="11.00">c_orderline_id</text>
<polygon fill="none" stroke="black" points="310.5,-988 310.5,-1010 521.5,-1010 521.5,-988 310.5,-988"/>
<image xlink:href="../../images/foreignKeys.png" width="11px" height="12px" preserveAspectRatio="xMinYMin meet" x="315.5" y="-1005"/>
<text text-anchor="start" x="330.5" y="-996.2" font-family="Helvetica,sans-Serif" font-size="11.00">m_attributesetinstance_id</text>
<polygon fill="none" stroke="black" points="310.5,-966 310.5,-988 521.5,-988 521.5,-966 310.5,-966"/>
<image xlink:href="../../images/foreignKeys.png" width="11px" height="12px" preserveAspectRatio="xMinYMin meet" x="315.5" y="-983"/>
<text text-anchor="start" x="330.5" y="-974.2" font-family="Helvetica,sans-Serif" font-size="11.00">c_charge_id</text>
<polygon fill="none" stroke="black" points="310.5,-944 310.5,-966 521.5,-966 521.5,-944 310.5,-944"/>
<image xlink:href="../../images/foreignKeys.png" width="11px" height="12px" preserveAspectRatio="xMinYMin meet" x="315.5" y="-961"/>
<text text-anchor="start" x="330.5" y="-952.2" font-family="Helvetica,sans-Serif" font-size="11.00">c_bpartner_id</text>
<polygon fill="none" stroke="black" points="310.5,-922 310.5,-944 521.5,-944 521.5,-922 310.5,-922"/>
<image xlink:href="../../images/foreignKeys.png" width="11px" height="12px" preserveAspectRatio="xMinYMin meet" x="315.5" y="-939"/>
<text text-anchor="start" x="330.5" y="-930.2" font-family="Helvetica,sans-Serif" font-size="11.00">c_uom_id</text>
<polygon fill="#ffffff" stroke="transparent" points="310.5,-900 310.5,-922 521.5,-922 521.5,-900 310.5,-900"/>
<polygon fill="none" stroke="black" points="310.5,-900 310.5,-922 521.5,-922 521.5,-900 310.5,-900"/>
<text text-anchor="start" x="330.5" y="-908.2" font-family="Helvetica,sans-Serif" font-size="11.00">m_requisitionline_uu</text>
<polygon fill="none" stroke="black" points="310.5,-878 310.5,-900 521.5,-900 521.5,-878 310.5,-878"/>
<image xlink:href="../../images/foreignKeys.png" width="11px" height="12px" preserveAspectRatio="xMinYMin meet" x="315.5" y="-895"/>
<text text-anchor="start" x="330.5" y="-886.2" font-family="Helvetica,sans-Serif" font-size="11.00">m_inventoryline_id</text>
<polygon fill="none" stroke="black" points="310.5,-860 310.5,-878 521.5,-878 521.5,-860 310.5,-860"/>
<text text-anchor="start" x="313.5" y="-866.2" font-family="Helvetica,sans-Serif" font-size="11.00">...</text>
<polygon fill="#ffffff" stroke="transparent" points="310.5,-842 310.5,-860 521.5,-860 521.5,-842 310.5,-842"/>
<polygon fill="none" stroke="black" points="310.5,-842 310.5,-860 521.5,-860 521.5,-842 310.5,-842"/>
<polygon fill="#ffffff" stroke="transparent" points="311.5,-843 311.5,-859 384.5,-859 384.5,-843 311.5,-843"/>
<text text-anchor="start" x="313.5" y="-848.2" font-family="Helvetica,sans-Serif" font-size="11.00">&lt; 8</text>
<polygon fill="#ffffff" stroke="transparent" points="384.5,-843 384.5,-859 448.5,-859 448.5,-843 384.5,-843"/>
<text text-anchor="start" x="413" y="-848.2" font-family="Helvetica,sans-Serif" font-size="11.00"> &#160;</text>
<polygon fill="#ffffff" stroke="transparent" points="448.5,-843 448.5,-859 520.5,-859 520.5,-843 448.5,-843"/>
<text text-anchor="start" x="502.5" y="-848.2" font-family="Helvetica,sans-Serif" font-size="11.00">2 &gt;</text>
<polygon fill="black" stroke="black" points="384.5,-843 384.5,-859 384.5,-859 384.5,-843 384.5,-843"/>
<polygon fill="black" stroke="black" points="448.5,-843 448.5,-859 448.5,-859 448.5,-843 448.5,-843"/>
</a>
</g>
</g>
<!-- m_demanddetail&#45;&gt;m_requisitionline -->
<g id="edge4" class="edge">
<title>m_demanddetail:w&#45;&gt;m_requisitionline:e</title>
<path fill="none" stroke="black" d="M556.94,-1188.01C530.87,-1168.83 567.88,-1087 522.5,-1087"/>
<polygon fill="black" stroke="black" points="563.3,-1189.82 570.02,-1195.46 567.15,-1190.91 571,-1192 571,-1192 571,-1192 567.15,-1190.91 571.98,-1188.54 563.3,-1189.82 563.3,-1189.82"/>
<ellipse fill="none" stroke="black" cx="560.23" cy="-1188.94" rx="3.2" ry="3.2"/>
</g>
<!-- m_requisitionline&#45;&gt;c_orderline -->
<g id="edge5" class="edge">
<title>m_requisitionline:w&#45;&gt;c_orderline:e</title>
<path fill="none" stroke="black" d="M295.62,-1016.92C271.1,-998.02 306.02,-920 262.5,-920"/>
<polygon fill="black" stroke="black" points="301.83,-1018.74 308.48,-1024.45 305.66,-1019.87 309.5,-1021 309.5,-1021 309.5,-1021 305.66,-1019.87 310.52,-1017.55 301.83,-1018.74 301.83,-1018.74"/>
<ellipse fill="none" stroke="black" cx="298.76" cy="-1017.84" rx="3.2" ry="3.2"/>
</g>
</g>
</svg>
