<?xml version="1.0" encoding="UTF-8" standalone="no"?>
<!DOCTYPE svg PUBLIC "-//W3C//DTD SVG 1.1//EN"
 "http://www.w3.org/Graphics/SVG/1.1/DTD/svg11.dtd">
<!-- Generated by graphviz version 2.43.0 (0)
 -->
<!-- Title: oneDegreeRelationshipsDiagram Pages: 1 -->
<svg width="794pt" height="1176pt"
 viewBox="0.00 0.00 794.00 1176.00" xmlns="http://www.w3.org/2000/svg" xmlns:xlink="http://www.w3.org/1999/xlink">
<g id="graph0" class="graph" transform="scale(1 1) rotate(0) translate(4 1172)">
<title>oneDegreeRelationshipsDiagram</title>
<polygon fill="#ffffff" stroke="transparent" points="-4,4 -4,-1172 790,-1172 790,4 -4,4"/>
<text text-anchor="middle" x="71.5" y="-7.2" font-family="Helvetica,sans-Serif" font-size="11.00">Generated by SchemaSpy</text>
<!-- m_demanddetail -->
<g id="node1" class="node">
<title>m_demanddetail</title>
<g id="a_node1"><a xlink:href="../../tables/m_demanddetail.html" xlink:title="m_demanddetail" target="_top">
<polygon fill="#ffffff" stroke="transparent" points="611,-974 611,-1164 778,-1164 778,-974 611,-974"/>
<polygon fill="#f5f5f5" stroke="transparent" points="611.5,-1142 611.5,-1164 778.5,-1164 778.5,-1142 611.5,-1142"/>
<polygon fill="none" stroke="black" points="611.5,-1142 611.5,-1164 778.5,-1164 778.5,-1142 611.5,-1142"/>
<text text-anchor="start" x="616.5" y="-1151.2" font-family="Helvetica,sans-Serif" font-weight="bold" font-size="11.00">m_demanddetail</text>
<text text-anchor="start" x="743.5" y="-1150.2" font-family="Helvetica,sans-Serif" font-size="11.00">[table]</text>
<polygon fill="none" stroke="black" points="611.5,-1120 611.5,-1142 778.5,-1142 778.5,-1120 611.5,-1120"/>
<image xlink:href="../../images/primaryKeys.png" width="11px" height="12px" preserveAspectRatio="xMinYMin meet" x="616.5" y="-1137"/>
<text text-anchor="start" x="631.5" y="-1128.2" font-family="Helvetica,sans-Serif" font-size="11.00">m_demanddetail_id</text>
<polygon fill="none" stroke="black" points="611.5,-1098 611.5,-1120 778.5,-1120 778.5,-1098 611.5,-1098"/>
<image xlink:href="../../images/foreignKeys.png" width="11px" height="12px" preserveAspectRatio="xMinYMin meet" x="616.5" y="-1115"/>
<text text-anchor="start" x="631.5" y="-1106.2" font-family="Helvetica,sans-Serif" font-size="11.00">m_demandline_id</text>
<polygon fill="none" stroke="black" points="611.5,-1076 611.5,-1098 778.5,-1098 778.5,-1076 611.5,-1076"/>
<image xlink:href="../../images/foreignKeys.png" width="11px" height="12px" preserveAspectRatio="xMinYMin meet" x="616.5" y="-1093"/>
<text text-anchor="start" x="631.5" y="-1084.2" font-family="Helvetica,sans-Serif" font-size="11.00">m_forecastline_id</text>
<polygon fill="none" stroke="black" points="611.5,-1054 611.5,-1076 778.5,-1076 778.5,-1054 611.5,-1054"/>
<image xlink:href="../../images/foreignKeys.png" width="11px" height="12px" preserveAspectRatio="xMinYMin meet" x="616.5" y="-1071"/>
<text text-anchor="start" x="631.5" y="-1062.2" font-family="Helvetica,sans-Serif" font-size="11.00">m_requisitionline_id</text>
<polygon fill="#ffffff" stroke="transparent" points="611.5,-1032 611.5,-1054 778.5,-1054 778.5,-1032 611.5,-1032"/>
<polygon fill="none" stroke="black" points="611.5,-1032 611.5,-1054 778.5,-1054 778.5,-1032 611.5,-1032"/>
<image xlink:href="../../images/foreignKeys.png" width="11px" height="12px" preserveAspectRatio="xMinYMin meet" x="616.5" y="-1049"/>
<text text-anchor="start" x="631.5" y="-1040.2" font-family="Helvetica,sans-Serif" font-size="11.00">c_orderline_id</text>
<polygon fill="#ffffff" stroke="transparent" points="611.5,-1010 611.5,-1032 778.5,-1032 778.5,-1010 611.5,-1010"/>
<polygon fill="none" stroke="black" points="611.5,-1010 611.5,-1032 778.5,-1032 778.5,-1010 611.5,-1010"/>
<text text-anchor="start" x="631.5" y="-1018.2" font-family="Helvetica,sans-Serif" font-size="11.00">m_demanddetail_uu</text>
<polygon fill="none" stroke="black" points="611.5,-992 611.5,-1010 778.5,-1010 778.5,-992 611.5,-992"/>
<text text-anchor="start" x="614.5" y="-998.2" font-family="Helvetica,sans-Serif" font-size="11.00">...</text>
<polygon fill="#ffffff" stroke="transparent" points="611.5,-974 611.5,-992 778.5,-992 778.5,-974 611.5,-974"/>
<polygon fill="none" stroke="black" points="611.5,-974 611.5,-992 778.5,-992 778.5,-974 611.5,-974"/>
<polygon fill="#ffffff" stroke="transparent" points="612.5,-975 612.5,-991 673.5,-991 673.5,-975 612.5,-975"/>
<text text-anchor="start" x="614.5" y="-980.2" font-family="Helvetica,sans-Serif" font-size="11.00">&lt; 4</text>
<polygon fill="#ffffff" stroke="transparent" points="673.5,-975 673.5,-991 725.5,-991 725.5,-975 673.5,-975"/>
<text text-anchor="start" x="696" y="-980.2" font-family="Helvetica,sans-Serif" font-size="11.00"> &#160;</text>
<polygon fill="#ffffff" stroke="transparent" points="725.5,-975 725.5,-991 777.5,-991 777.5,-975 725.5,-975"/>
<text text-anchor="start" x="768.5" y="-980.2" font-family="Helvetica,sans-Serif" font-size="11.00"> &#160;</text>
<polygon fill="black" stroke="black" points="673.5,-975 673.5,-991 673.5,-991 673.5,-975 673.5,-975"/>
<polygon fill="black" stroke="black" points="725.5,-975 725.5,-991 725.5,-991 725.5,-975 725.5,-975"/>
</a>
</g>
</g>
<!-- m_demandline -->
<g id="node2" class="node">
<title>m_demandline</title>
<g id="a_node2"><a xlink:href="../../tables/m_demandline.html" xlink:title="m_demandline" target="_top">
<polygon fill="#ffffff" stroke="transparent" points="323,-792 323,-1144 562,-1144 562,-792 323,-792"/>
<polygon fill="#f5f5f5" stroke="transparent" points="325.5,-1120 325.5,-1142 560.5,-1142 560.5,-1120 325.5,-1120"/>
<polygon fill="none" stroke="black" points="325.5,-1120 325.5,-1142 560.5,-1142 560.5,-1120 325.5,-1120"/>
<text text-anchor="start" x="330.5" y="-1129.2" font-family="Helvetica,sans-Serif" font-weight="bold" font-size="11.00">m_demandline</text>
<text text-anchor="start" x="525.5" y="-1128.2" font-family="Helvetica,sans-Serif" font-size="11.00">[table]</text>
<polygon fill="none" stroke="black" points="325.5,-1098 325.5,-1120 477.5,-1120 477.5,-1098 325.5,-1098"/>
<image xlink:href="../../images/primaryKeys.png" width="11px" height="12px" preserveAspectRatio="xMinYMin meet" x="330.5" y="-1115"/>
<text text-anchor="start" x="345.5" y="-1106.2" font-family="Helvetica,sans-Serif" font-size="11.00">m_demandline_id</text>
<polygon fill="none" stroke="black" points="477.5,-1098 477.5,-1120 560.5,-1120 560.5,-1098 477.5,-1098"/>
<text text-anchor="start" x="480.5" y="-1106.2" font-family="Helvetica,sans-Serif" font-size="11.00">numeric[10]</text>
<polygon fill="none" stroke="black" points="325.5,-1076 325.5,-1098 477.5,-1098 477.5,-1076 325.5,-1076"/>
<text text-anchor="start" x="345.5" y="-1084.2" font-family="Helvetica,sans-Serif" font-size="11.00">ad_client_id</text>
<polygon fill="none" stroke="black" points="477.5,-1076 477.5,-1098 560.5,-1098 560.5,-1076 477.5,-1076"/>
<text text-anchor="start" x="480.5" y="-1084.2" font-family="Helvetica,sans-Serif" font-size="11.00">numeric[10]</text>
<polygon fill="none" stroke="black" points="325.5,-1054 325.5,-1076 477.5,-1076 477.5,-1054 325.5,-1054"/>
<text text-anchor="start" x="345.5" y="-1062.2" font-family="Helvetica,sans-Serif" font-size="11.00">ad_org_id</text>
<polygon fill="none" stroke="black" points="477.5,-1054 477.5,-1076 560.5,-1076 560.5,-1054 477.5,-1054"/>
<text text-anchor="start" x="480.5" y="-1062.2" font-family="Helvetica,sans-Serif" font-size="11.00">numeric[10]</text>
<polygon fill="none" stroke="black" points="325.5,-1032 325.5,-1054 477.5,-1054 477.5,-1032 325.5,-1032"/>
<text text-anchor="start" x="345.5" y="-1040.2" font-family="Helvetica,sans-Serif" font-size="11.00">isactive</text>
<polygon fill="none" stroke="black" points="477.5,-1032 477.5,-1054 560.5,-1054 560.5,-1032 477.5,-1032"/>
<text text-anchor="start" x="480.5" y="-1040.2" font-family="Helvetica,sans-Serif" font-size="11.00">bpchar[1]</text>
<polygon fill="none" stroke="black" points="325.5,-1010 325.5,-1032 477.5,-1032 477.5,-1010 325.5,-1010"/>
<text text-anchor="start" x="345.5" y="-1018.2" font-family="Helvetica,sans-Serif" font-size="11.00">created</text>
<polygon fill="none" stroke="black" points="477.5,-1010 477.5,-1032 560.5,-1032 560.5,-1010 477.5,-1010"/>
<text text-anchor="start" x="480.5" y="-1018.2" font-family="Helvetica,sans-Serif" font-size="11.00">timestamp[29,6]</text>
<polygon fill="none" stroke="black" points="325.5,-988 325.5,-1010 477.5,-1010 477.5,-988 325.5,-988"/>
<text text-anchor="start" x="345.5" y="-996.2" font-family="Helvetica,sans-Serif" font-size="11.00">createdby</text>
<polygon fill="none" stroke="black" points="477.5,-988 477.5,-1010 560.5,-1010 560.5,-988 477.5,-988"/>
<text text-anchor="start" x="480.5" y="-996.2" font-family="Helvetica,sans-Serif" font-size="11.00">numeric[10]</text>
<polygon fill="none" stroke="black" points="325.5,-966 325.5,-988 477.5,-988 477.5,-966 325.5,-966"/>
<text text-anchor="start" x="345.5" y="-974.2" font-family="Helvetica,sans-Serif" font-size="11.00">updated</text>
<polygon fill="none" stroke="black" points="477.5,-966 477.5,-988 560.5,-988 560.5,-966 477.5,-966"/>
<text text-anchor="start" x="480.5" y="-974.2" font-family="Helvetica,sans-Serif" font-size="11.00">timestamp[29,6]</text>
<polygon fill="none" stroke="black" points="325.5,-944 325.5,-966 477.5,-966 477.5,-944 325.5,-944"/>
<text text-anchor="start" x="345.5" y="-952.2" font-family="Helvetica,sans-Serif" font-size="11.00">updatedby</text>
<polygon fill="none" stroke="black" points="477.5,-944 477.5,-966 560.5,-966 560.5,-944 477.5,-944"/>
<text text-anchor="start" x="480.5" y="-952.2" font-family="Helvetica,sans-Serif" font-size="11.00">numeric[10]</text>
<polygon fill="none" stroke="black" points="325.5,-922 325.5,-944 477.5,-944 477.5,-922 325.5,-922"/>
<image xlink:href="../../images/foreignKeys.png" width="11px" height="12px" preserveAspectRatio="xMinYMin meet" x="330.5" y="-939"/>
<text text-anchor="start" x="345.5" y="-930.2" font-family="Helvetica,sans-Serif" font-size="11.00">m_demand_id</text>
<polygon fill="none" stroke="black" points="477.5,-922 477.5,-944 560.5,-944 560.5,-922 477.5,-922"/>
<text text-anchor="start" x="480.5" y="-930.2" font-family="Helvetica,sans-Serif" font-size="11.00">numeric[10]</text>
<polygon fill="none" stroke="black" points="325.5,-900 325.5,-922 477.5,-922 477.5,-900 325.5,-900"/>
<image xlink:href="../../images/foreignKeys.png" width="11px" height="12px" preserveAspectRatio="xMinYMin meet" x="330.5" y="-917"/>
<text text-anchor="start" x="345.5" y="-908.2" font-family="Helvetica,sans-Serif" font-size="11.00">c_period_id</text>
<polygon fill="none" stroke="black" points="477.5,-900 477.5,-922 560.5,-922 560.5,-900 477.5,-900"/>
<text text-anchor="start" x="480.5" y="-908.2" font-family="Helvetica,sans-Serif" font-size="11.00">numeric[10]</text>
<polygon fill="none" stroke="black" points="325.5,-878 325.5,-900 477.5,-900 477.5,-878 325.5,-878"/>
<text text-anchor="start" x="345.5" y="-886.2" font-family="Helvetica,sans-Serif" font-size="11.00">qty</text>
<polygon fill="none" stroke="black" points="477.5,-878 477.5,-900 560.5,-900 560.5,-878 477.5,-878"/>
<text text-anchor="start" x="480.5" y="-886.2" font-family="Helvetica,sans-Serif" font-size="11.00">numeric[0]</text>
<polygon fill="none" stroke="black" points="325.5,-856 325.5,-878 477.5,-878 477.5,-856 325.5,-856"/>
<image xlink:href="../../images/foreignKeys.png" width="11px" height="12px" preserveAspectRatio="xMinYMin meet" x="330.5" y="-873"/>
<text text-anchor="start" x="345.5" y="-864.2" font-family="Helvetica,sans-Serif" font-size="11.00">m_product_id</text>
<polygon fill="none" stroke="black" points="477.5,-856 477.5,-878 560.5,-878 560.5,-856 477.5,-856"/>
<text text-anchor="start" x="480.5" y="-864.2" font-family="Helvetica,sans-Serif" font-size="11.00">numeric[10]</text>
<polygon fill="none" stroke="black" points="325.5,-834 325.5,-856 477.5,-856 477.5,-834 325.5,-834"/>
<text text-anchor="start" x="345.5" y="-842.2" font-family="Helvetica,sans-Serif" font-size="11.00">qtycalculated</text>
<polygon fill="none" stroke="black" points="477.5,-834 477.5,-856 560.5,-856 560.5,-834 477.5,-834"/>
<text text-anchor="start" x="480.5" y="-842.2" font-family="Helvetica,sans-Serif" font-size="11.00">numeric[0]</text>
<polygon fill="#ffffff" stroke="transparent" points="325.5,-812 325.5,-834 477.5,-834 477.5,-812 325.5,-812"/>
<polygon fill="none" stroke="black" points="325.5,-812 325.5,-834 477.5,-834 477.5,-812 325.5,-812"/>
<text text-anchor="start" x="345.5" y="-820.2" font-family="Helvetica,sans-Serif" font-size="11.00">m_demandline_uu</text>
<polygon fill="none" stroke="black" points="477.5,-812 477.5,-834 560.5,-834 560.5,-812 477.5,-812"/>
<text text-anchor="start" x="480.5" y="-820.2" font-family="Helvetica,sans-Serif" font-size="11.00">varchar[36]</text>
<polygon fill="#ffffff" stroke="transparent" points="325.5,-794 325.5,-812 560.5,-812 560.5,-794 325.5,-794"/>
<polygon fill="none" stroke="black" points="325.5,-794 325.5,-812 560.5,-812 560.5,-794 325.5,-794"/>
<polygon fill="#ffffff" stroke="transparent" points="326.5,-795 326.5,-811 407.5,-811 407.5,-795 326.5,-795"/>
<text text-anchor="start" x="328.5" y="-800.2" font-family="Helvetica,sans-Serif" font-size="11.00">&lt; 3</text>
<polygon fill="#ffffff" stroke="transparent" points="407.5,-795 407.5,-811 479.5,-811 479.5,-795 407.5,-795"/>
<text text-anchor="start" x="440" y="-800.2" font-family="Helvetica,sans-Serif" font-size="11.00"> &#160;</text>
<polygon fill="#ffffff" stroke="transparent" points="479.5,-795 479.5,-811 559.5,-811 559.5,-795 479.5,-795"/>
<text text-anchor="start" x="541.5" y="-800.2" font-family="Helvetica,sans-Serif" font-size="11.00">1 &gt;</text>
<polygon fill="black" stroke="black" points="407.5,-795 407.5,-811 407.5,-811 407.5,-795 407.5,-795"/>
<polygon fill="black" stroke="black" points="479.5,-795 479.5,-811 479.5,-811 479.5,-795 479.5,-795"/>
<polygon fill="none" stroke="black" stroke-width="2" points="324,-793 324,-1143 561,-1143 561,-793 324,-793"/>
</a>
</g>
</g>
<!-- m_demanddetail&#45;&gt;m_demandline -->
<g id="edge1" class="edge">
<title>m_demanddetail:w&#45;&gt;m_demandline:e</title>
<path fill="none" stroke="black" d="M595.99,-1109C584.68,-1109 577.49,-1109 561.5,-1109"/>
<polygon fill="black" stroke="black" points="602.5,-1109 610.5,-1112.6 606.5,-1109 610.5,-1109 610.5,-1109 610.5,-1109 606.5,-1109 610.5,-1105.4 602.5,-1109 602.5,-1109"/>
<ellipse fill="none" stroke="black" cx="599.3" cy="-1109" rx="3.2" ry="3.2"/>
</g>
<!-- c_period -->
<g id="node3" class="node">
<title>c_period</title>
<g id="a_node3"><a xlink:href="../../tables/c_period.html" xlink:title="c_period" target="_top">
<polygon fill="#ffffff" stroke="transparent" points="87.5,-754 87.5,-944 194.5,-944 194.5,-754 87.5,-754"/>
<polygon fill="#f5f5f5" stroke="transparent" points="88,-922 88,-944 195,-944 195,-922 88,-922"/>
<polygon fill="none" stroke="black" points="88,-922 88,-944 195,-944 195,-922 88,-922"/>
<text text-anchor="start" x="93" y="-931.2" font-family="Helvetica,sans-Serif" font-weight="bold" font-size="11.00">c_period</text>
<text text-anchor="start" x="160" y="-930.2" font-family="Helvetica,sans-Serif" font-size="11.00">[table]</text>
<polygon fill="none" stroke="black" points="88,-900 88,-922 195,-922 195,-900 88,-900"/>
<image xlink:href="../../images/primaryKeys.png" width="11px" height="12px" preserveAspectRatio="xMinYMin meet" x="93" y="-917"/>
<text text-anchor="start" x="108" y="-908.2" font-family="Helvetica,sans-Serif" font-size="11.00">c_period_id</text>
<polygon fill="none" stroke="black" points="88,-878 88,-900 195,-900 195,-878 88,-878"/>
<image xlink:href="../../images/foreignKeys.png" width="11px" height="12px" preserveAspectRatio="xMinYMin meet" x="93" y="-895"/>
<text text-anchor="start" x="108" y="-886.2" font-family="Helvetica,sans-Serif" font-size="11.00">ad_client_id</text>
<polygon fill="none" stroke="black" points="88,-856 88,-878 195,-878 195,-856 88,-856"/>
<image xlink:href="../../images/foreignKeys.png" width="11px" height="12px" preserveAspectRatio="xMinYMin meet" x="93" y="-873"/>
<text text-anchor="start" x="108" y="-864.2" font-family="Helvetica,sans-Serif" font-size="11.00">ad_org_id</text>
<polygon fill="#ffffff" stroke="transparent" points="88,-834 88,-856 195,-856 195,-834 88,-834"/>
<polygon fill="none" stroke="black" points="88,-834 88,-856 195,-856 195,-834 88,-834"/>
<text text-anchor="start" x="108" y="-842.2" font-family="Helvetica,sans-Serif" font-size="11.00">periodno</text>
<polygon fill="#ffffff" stroke="transparent" points="88,-812 88,-834 195,-834 195,-812 88,-812"/>
<polygon fill="none" stroke="black" points="88,-812 88,-834 195,-834 195,-812 88,-812"/>
<image xlink:href="../../images/foreignKeys.png" width="11px" height="12px" preserveAspectRatio="xMinYMin meet" x="93" y="-829"/>
<text text-anchor="start" x="108" y="-820.2" font-family="Helvetica,sans-Serif" font-size="11.00">c_year_id</text>
<polygon fill="#ffffff" stroke="transparent" points="88,-790 88,-812 195,-812 195,-790 88,-790"/>
<polygon fill="none" stroke="black" points="88,-790 88,-812 195,-812 195,-790 88,-790"/>
<text text-anchor="start" x="108" y="-798.2" font-family="Helvetica,sans-Serif" font-size="11.00">c_period_uu</text>
<polygon fill="none" stroke="black" points="88,-772 88,-790 195,-790 195,-772 88,-772"/>
<text text-anchor="start" x="91" y="-778.2" font-family="Helvetica,sans-Serif" font-size="11.00">...</text>
<polygon fill="#ffffff" stroke="transparent" points="88,-754 88,-772 195,-772 195,-754 88,-754"/>
<polygon fill="none" stroke="black" points="88,-754 88,-772 195,-772 195,-754 88,-754"/>
<polygon fill="#ffffff" stroke="transparent" points="89,-755 89,-771 113,-771 113,-755 89,-755"/>
<text text-anchor="start" x="91" y="-760.2" font-family="Helvetica,sans-Serif" font-size="11.00">&lt; 3</text>
<polygon fill="#ffffff" stroke="transparent" points="113,-755 113,-771 165,-771 165,-755 113,-755"/>
<text text-anchor="start" x="116.5" y="-760.2" font-family="Helvetica,sans-Serif" font-size="11.00">192 rows</text>
<polygon fill="#ffffff" stroke="transparent" points="165,-755 165,-771 194,-771 194,-755 165,-755"/>
<text text-anchor="start" x="170" y="-760.2" font-family="Helvetica,sans-Serif" font-size="11.00">19 &gt;</text>
<polygon fill="black" stroke="black" points="113,-755 113,-771 113,-771 113,-755 113,-755"/>
<polygon fill="black" stroke="black" points="165,-755 165,-771 165,-771 165,-755 165,-755"/>
</a>
</g>
</g>
<!-- m_demandline&#45;&gt;c_period -->
<g id="edge2" class="edge">
<title>m_demandline:w&#45;&gt;c_period:e</title>
<path fill="none" stroke="black" d="M310.08,-911C264.48,-911 247.98,-911 196,-911"/>
<polygon fill="black" stroke="black" points="316.5,-911 324.5,-914.6 320.5,-911 324.5,-911 324.5,-911 324.5,-911 320.5,-911 324.5,-907.4 316.5,-911 316.5,-911"/>
<ellipse fill="none" stroke="black" cx="313.3" cy="-911" rx="3.2" ry="3.2"/>
</g>
<!-- m_demand -->
<g id="node4" class="node">
<title>m_demand</title>
<g id="a_node4"><a xlink:href="../../tables/m_demand.html" xlink:title="m_demand" target="_top">
<polygon fill="#ffffff" stroke="transparent" points="78.5,-965 78.5,-1111 203.5,-1111 203.5,-965 78.5,-965"/>
<polygon fill="#f5f5f5" stroke="transparent" points="79,-1089 79,-1111 204,-1111 204,-1089 79,-1089"/>
<polygon fill="none" stroke="black" points="79,-1089 79,-1111 204,-1111 204,-1089 79,-1089"/>
<text text-anchor="start" x="84" y="-1098.2" font-family="Helvetica,sans-Serif" font-weight="bold" font-size="11.00">m_demand</text>
<text text-anchor="start" x="169" y="-1097.2" font-family="Helvetica,sans-Serif" font-size="11.00">[table]</text>
<polygon fill="none" stroke="black" points="79,-1067 79,-1089 204,-1089 204,-1067 79,-1067"/>
<image xlink:href="../../images/primaryKeys.png" width="11px" height="12px" preserveAspectRatio="xMinYMin meet" x="84" y="-1084"/>
<text text-anchor="start" x="99" y="-1075.2" font-family="Helvetica,sans-Serif" font-size="11.00">m_demand_id</text>
<polygon fill="none" stroke="black" points="79,-1045 79,-1067 204,-1067 204,-1045 79,-1045"/>
<image xlink:href="../../images/foreignKeys.png" width="11px" height="12px" preserveAspectRatio="xMinYMin meet" x="84" y="-1062"/>
<text text-anchor="start" x="99" y="-1053.2" font-family="Helvetica,sans-Serif" font-size="11.00">c_calendar_id</text>
<polygon fill="none" stroke="black" points="79,-1023 79,-1045 204,-1045 204,-1023 79,-1023"/>
<image xlink:href="../../images/foreignKeys.png" width="11px" height="12px" preserveAspectRatio="xMinYMin meet" x="84" y="-1040"/>
<text text-anchor="start" x="99" y="-1031.2" font-family="Helvetica,sans-Serif" font-size="11.00">c_year_id</text>
<polygon fill="#ffffff" stroke="transparent" points="79,-1001 79,-1023 204,-1023 204,-1001 79,-1001"/>
<polygon fill="none" stroke="black" points="79,-1001 79,-1023 204,-1023 204,-1001 79,-1001"/>
<text text-anchor="start" x="99" y="-1009.2" font-family="Helvetica,sans-Serif" font-size="11.00">m_demand_uu</text>
<polygon fill="none" stroke="black" points="79,-983 79,-1001 204,-1001 204,-983 79,-983"/>
<text text-anchor="start" x="82" y="-989.2" font-family="Helvetica,sans-Serif" font-size="11.00">...</text>
<polygon fill="#ffffff" stroke="transparent" points="79,-965 79,-983 204,-983 204,-965 79,-965"/>
<polygon fill="none" stroke="black" points="79,-965 79,-983 204,-983 204,-965 79,-965"/>
<polygon fill="#ffffff" stroke="transparent" points="80,-966 80,-982 124,-982 124,-966 80,-966"/>
<text text-anchor="start" x="82" y="-971.2" font-family="Helvetica,sans-Serif" font-size="11.00">&lt; 2</text>
<polygon fill="#ffffff" stroke="transparent" points="124,-966 124,-982 159,-982 159,-966 124,-966"/>
<text text-anchor="start" x="138" y="-971.2" font-family="Helvetica,sans-Serif" font-size="11.00"> &#160;</text>
<polygon fill="#ffffff" stroke="transparent" points="159,-966 159,-982 203,-982 203,-966 159,-966"/>
<text text-anchor="start" x="185" y="-971.2" font-family="Helvetica,sans-Serif" font-size="11.00">1 &gt;</text>
<polygon fill="black" stroke="black" points="124,-966 124,-982 124,-982 124,-966 124,-966"/>
<polygon fill="black" stroke="black" points="159,-966 159,-982 159,-982 159,-966 159,-966"/>
</a>
</g>
</g>
<!-- m_demandline&#45;&gt;m_demand -->
<g id="edge3" class="edge">
<title>m_demandline:w&#45;&gt;m_demand:e</title>
<path fill="none" stroke="black" d="M309.92,-934.73C246.57,-951.09 283.13,-1078 205,-1078"/>
<polygon fill="black" stroke="black" points="316.56,-933.94 324.92,-936.57 320.53,-933.47 324.5,-933 324.5,-933 324.5,-933 320.53,-933.47 324.08,-929.43 316.56,-933.94 316.56,-933.94"/>
<ellipse fill="none" stroke="black" cx="313.38" cy="-934.32" rx="3.2" ry="3.2"/>
</g>
<!-- m_product -->
<g id="node5" class="node">
<title>m_product</title>
<g id="a_node5"><a xlink:href="../../tables/m_product.html" xlink:title="m_product" target="_top">
<polygon fill="#ffffff" stroke="transparent" points="8,-37 8,-733 274,-733 274,-37 8,-37"/>
<polygon fill="#f5f5f5" stroke="transparent" points="8,-711 8,-733 274,-733 274,-711 8,-711"/>
<polygon fill="none" stroke="black" points="8,-711 8,-733 274,-733 274,-711 8,-711"/>
<text text-anchor="start" x="13" y="-720.2" font-family="Helvetica,sans-Serif" font-weight="bold" font-size="11.00">m_product</text>
<text text-anchor="start" x="239" y="-719.2" font-family="Helvetica,sans-Serif" font-size="11.00">[table]</text>
<polygon fill="none" stroke="black" points="8,-689 8,-711 274,-711 274,-689 8,-689"/>
<image xlink:href="../../images/primaryKeys.png" width="11px" height="12px" preserveAspectRatio="xMinYMin meet" x="13" y="-706"/>
<text text-anchor="start" x="28" y="-697.2" font-family="Helvetica,sans-Serif" font-size="11.00">m_product_id</text>
<polygon fill="#ffffff" stroke="transparent" points="8,-667 8,-689 274,-689 274,-667 8,-667"/>
<polygon fill="none" stroke="black" points="8,-667 8,-689 274,-689 274,-667 8,-667"/>
<image xlink:href="../../images/foreignKeys.png" width="11px" height="12px" preserveAspectRatio="xMinYMin meet" x="13" y="-684"/>
<text text-anchor="start" x="28" y="-675.2" font-family="Helvetica,sans-Serif" font-size="11.00">ad_client_id</text>
<polygon fill="none" stroke="black" points="8,-645 8,-667 274,-667 274,-645 8,-645"/>
<image xlink:href="../../images/foreignKeys.png" width="11px" height="12px" preserveAspectRatio="xMinYMin meet" x="13" y="-662"/>
<text text-anchor="start" x="28" y="-653.2" font-family="Helvetica,sans-Serif" font-size="11.00">ad_org_id</text>
<polygon fill="#ffffff" stroke="transparent" points="8,-623 8,-645 274,-645 274,-623 8,-623"/>
<polygon fill="none" stroke="black" points="8,-623 8,-645 274,-645 274,-623 8,-623"/>
<text text-anchor="start" x="28" y="-631.2" font-family="Helvetica,sans-Serif" font-size="11.00">value</text>
<polygon fill="#ffffff" stroke="transparent" points="8,-601 8,-623 274,-623 274,-601 8,-601"/>
<polygon fill="none" stroke="black" points="8,-601 8,-623 274,-623 274,-601 8,-601"/>
<text text-anchor="start" x="28" y="-609.2" font-family="Helvetica,sans-Serif" font-size="11.00">name</text>
<polygon fill="#ffffff" stroke="transparent" points="8,-579 8,-601 274,-601 274,-579 8,-579"/>
<polygon fill="none" stroke="black" points="8,-579 8,-601 274,-601 274,-579 8,-579"/>
<text text-anchor="start" x="28" y="-587.2" font-family="Helvetica,sans-Serif" font-size="11.00">upc</text>
<polygon fill="none" stroke="black" points="8,-557 8,-579 274,-579 274,-557 8,-557"/>
<image xlink:href="../../images/foreignKeys.png" width="11px" height="12px" preserveAspectRatio="xMinYMin meet" x="13" y="-574"/>
<text text-anchor="start" x="28" y="-565.2" font-family="Helvetica,sans-Serif" font-size="11.00">c_uom_id</text>
<polygon fill="none" stroke="black" points="8,-535 8,-557 274,-557 274,-535 8,-535"/>
<image xlink:href="../../images/foreignKeys.png" width="11px" height="12px" preserveAspectRatio="xMinYMin meet" x="13" y="-552"/>
<text text-anchor="start" x="28" y="-543.2" font-family="Helvetica,sans-Serif" font-size="11.00">salesrep_id</text>
<polygon fill="none" stroke="black" points="8,-513 8,-535 274,-535 274,-513 8,-513"/>
<image xlink:href="../../images/foreignKeys.png" width="11px" height="12px" preserveAspectRatio="xMinYMin meet" x="13" y="-530"/>
<text text-anchor="start" x="28" y="-521.2" font-family="Helvetica,sans-Serif" font-size="11.00">c_revenuerecognition_id</text>
<polygon fill="#ffffff" stroke="transparent" points="8,-491 8,-513 274,-513 274,-491 8,-491"/>
<polygon fill="none" stroke="black" points="8,-491 8,-513 274,-513 274,-491 8,-491"/>
<image xlink:href="../../images/foreignKeys.png" width="11px" height="12px" preserveAspectRatio="xMinYMin meet" x="13" y="-508"/>
<text text-anchor="start" x="28" y="-499.2" font-family="Helvetica,sans-Serif" font-size="11.00">m_product_category_id</text>
<polygon fill="none" stroke="black" points="8,-469 8,-491 274,-491 274,-469 8,-469"/>
<image xlink:href="../../images/foreignKeys.png" width="11px" height="12px" preserveAspectRatio="xMinYMin meet" x="13" y="-486"/>
<text text-anchor="start" x="28" y="-477.2" font-family="Helvetica,sans-Serif" font-size="11.00">c_taxcategory_id</text>
<polygon fill="#ffffff" stroke="transparent" points="8,-447 8,-469 274,-469 274,-447 8,-447"/>
<polygon fill="none" stroke="black" points="8,-447 8,-469 274,-469 274,-447 8,-447"/>
<image xlink:href="../../images/foreignKeys.png" width="11px" height="12px" preserveAspectRatio="xMinYMin meet" x="13" y="-464"/>
<text text-anchor="start" x="28" y="-455.2" font-family="Helvetica,sans-Serif" font-size="11.00">s_resource_id</text>
<polygon fill="#ffffff" stroke="transparent" points="8,-425 8,-447 274,-447 274,-425 8,-425"/>
<polygon fill="none" stroke="black" points="8,-425 8,-447 274,-447 274,-425 8,-425"/>
<image xlink:href="../../images/foreignKeys.png" width="11px" height="12px" preserveAspectRatio="xMinYMin meet" x="13" y="-442"/>
<text text-anchor="start" x="28" y="-433.2" font-family="Helvetica,sans-Serif" font-size="11.00">s_expensetype_id</text>
<polygon fill="none" stroke="black" points="8,-403 8,-425 274,-425 274,-403 8,-403"/>
<image xlink:href="../../images/foreignKeys.png" width="11px" height="12px" preserveAspectRatio="xMinYMin meet" x="13" y="-420"/>
<text text-anchor="start" x="28" y="-411.2" font-family="Helvetica,sans-Serif" font-size="11.00">r_mailtext_id</text>
<polygon fill="none" stroke="black" points="8,-381 8,-403 274,-403 274,-381 8,-381"/>
<image xlink:href="../../images/foreignKeys.png" width="11px" height="12px" preserveAspectRatio="xMinYMin meet" x="13" y="-398"/>
<text text-anchor="start" x="28" y="-389.2" font-family="Helvetica,sans-Serif" font-size="11.00">m_attributeset_id</text>
<polygon fill="none" stroke="black" points="8,-359 8,-381 274,-381 274,-359 8,-359"/>
<image xlink:href="../../images/foreignKeys.png" width="11px" height="12px" preserveAspectRatio="xMinYMin meet" x="13" y="-376"/>
<text text-anchor="start" x="28" y="-367.2" font-family="Helvetica,sans-Serif" font-size="11.00">m_freightcategory_id</text>
<polygon fill="none" stroke="black" points="8,-337 8,-359 274,-359 274,-337 8,-337"/>
<image xlink:href="../../images/foreignKeys.png" width="11px" height="12px" preserveAspectRatio="xMinYMin meet" x="13" y="-354"/>
<text text-anchor="start" x="28" y="-345.2" font-family="Helvetica,sans-Serif" font-size="11.00">m_locator_id</text>
<polygon fill="none" stroke="black" points="8,-315 8,-337 274,-337 274,-315 8,-315"/>
<image xlink:href="../../images/foreignKeys.png" width="11px" height="12px" preserveAspectRatio="xMinYMin meet" x="13" y="-332"/>
<text text-anchor="start" x="28" y="-323.2" font-family="Helvetica,sans-Serif" font-size="11.00">c_subscriptiontype_id</text>
<polygon fill="#ffffff" stroke="transparent" points="8,-293 8,-315 274,-315 274,-293 8,-293"/>
<polygon fill="none" stroke="black" points="8,-293 8,-315 274,-315 274,-293 8,-293"/>
<text text-anchor="start" x="28" y="-301.2" font-family="Helvetica,sans-Serif" font-size="11.00">m_product_uu</text>
<polygon fill="none" stroke="black" points="8,-271 8,-293 274,-293 274,-271 8,-271"/>
<image xlink:href="../../images/foreignKeys.png" width="11px" height="12px" preserveAspectRatio="xMinYMin meet" x="13" y="-288"/>
<text text-anchor="start" x="28" y="-279.2" font-family="Helvetica,sans-Serif" font-size="11.00">m_parttype_id</text>
<polygon fill="none" stroke="black" points="8,-249 8,-271 274,-271 274,-249 8,-249"/>
<image xlink:href="../../images/foreignKeys.png" width="11px" height="12px" preserveAspectRatio="xMinYMin meet" x="13" y="-266"/>
<text text-anchor="start" x="28" y="-257.2" font-family="Helvetica,sans-Serif" font-size="11.00">cof_cest_id</text>
<polygon fill="none" stroke="black" points="8,-227 8,-249 274,-249 274,-227 8,-227"/>
<image xlink:href="../../images/foreignKeys.png" width="11px" height="12px" preserveAspectRatio="xMinYMin meet" x="13" y="-244"/>
<text text-anchor="start" x="28" y="-235.2" font-family="Helvetica,sans-Serif" font-size="11.00">cof_c_generoitem_sped_id</text>
<polygon fill="none" stroke="black" points="8,-205 8,-227 274,-227 274,-205 8,-205"/>
<image xlink:href="../../images/foreignKeys.png" width="11px" height="12px" preserveAspectRatio="xMinYMin meet" x="13" y="-222"/>
<text text-anchor="start" x="28" y="-213.2" font-family="Helvetica,sans-Serif" font-size="11.00">cof_producttype_id</text>
<polygon fill="none" stroke="black" points="8,-183 8,-205 274,-205 274,-183 8,-183"/>
<image xlink:href="../../images/foreignKeys.png" width="11px" height="12px" preserveAspectRatio="xMinYMin meet" x="13" y="-200"/>
<text text-anchor="start" x="28" y="-191.2" font-family="Helvetica,sans-Serif" font-size="11.00">cof_productclass_id</text>
<polygon fill="none" stroke="black" points="8,-161 8,-183 274,-183 274,-161 8,-161"/>
<image xlink:href="../../images/foreignKeys.png" width="11px" height="12px" preserveAspectRatio="xMinYMin meet" x="13" y="-178"/>
<text text-anchor="start" x="28" y="-169.2" font-family="Helvetica,sans-Serif" font-size="11.00">cof_productgroup_id</text>
<polygon fill="none" stroke="black" points="8,-139 8,-161 274,-161 274,-139 8,-139"/>
<image xlink:href="../../images/foreignKeys.png" width="11px" height="12px" preserveAspectRatio="xMinYMin meet" x="13" y="-156"/>
<text text-anchor="start" x="28" y="-147.2" font-family="Helvetica,sans-Serif" font-size="11.00">cof_nbs_id</text>
<polygon fill="none" stroke="black" points="8,-117 8,-139 274,-139 274,-117 8,-117"/>
<image xlink:href="../../images/foreignKeys.png" width="11px" height="12px" preserveAspectRatio="xMinYMin meet" x="13" y="-134"/>
<text text-anchor="start" x="28" y="-125.2" font-family="Helvetica,sans-Serif" font-size="11.00">cof_grupofornecedor_id</text>
<polygon fill="none" stroke="black" points="8,-95 8,-117 274,-117 274,-95 8,-95"/>
<image xlink:href="../../images/foreignKeys.png" width="11px" height="12px" preserveAspectRatio="xMinYMin meet" x="13" y="-112"/>
<text text-anchor="start" x="28" y="-103.2" font-family="Helvetica,sans-Serif" font-size="11.00">cof_gruposeparacao_id</text>
<polygon fill="none" stroke="black" points="8,-73 8,-95 274,-95 274,-73 8,-73"/>
<image xlink:href="../../images/foreignKeys.png" width="11px" height="12px" preserveAspectRatio="xMinYMin meet" x="13" y="-90"/>
<text text-anchor="start" x="28" y="-81.2" font-family="Helvetica,sans-Serif" font-size="11.00">cof_servicoatrelado_id</text>
<polygon fill="none" stroke="black" points="8,-55 8,-73 274,-73 274,-55 8,-55"/>
<text text-anchor="start" x="11" y="-61.2" font-family="Helvetica,sans-Serif" font-size="11.00">...</text>
<polygon fill="#ffffff" stroke="transparent" points="8,-37 8,-55 274,-55 274,-37 8,-37"/>
<polygon fill="none" stroke="black" points="8,-37 8,-55 274,-55 274,-37 8,-37"/>
<polygon fill="#ffffff" stroke="transparent" points="9,-38 9,-54 93,-54 93,-38 9,-38"/>
<text text-anchor="start" x="11" y="-43.2" font-family="Helvetica,sans-Serif" font-size="11.00">&lt; 24</text>
<polygon fill="#ffffff" stroke="transparent" points="93,-38 93,-54 183,-54 183,-38 93,-38"/>
<text text-anchor="start" x="124" y="-43.2" font-family="Helvetica,sans-Serif" font-size="11.00">1 row</text>
<polygon fill="#ffffff" stroke="transparent" points="183,-38 183,-54 273,-54 273,-38 183,-38"/>
<text text-anchor="start" x="243" y="-43.2" font-family="Helvetica,sans-Serif" font-size="11.00">187 &gt;</text>
<polygon fill="black" stroke="black" points="93,-38 93,-54 93,-54 93,-38 93,-38"/>
<polygon fill="black" stroke="black" points="183,-38 183,-54 183,-54 183,-38 183,-38"/>
</a>
</g>
</g>
<!-- m_demandline&#45;&gt;m_product -->
<g id="edge4" class="edge">
<title>m_demandline:w&#45;&gt;m_product:e</title>
<path fill="none" stroke="black" d="M310.13,-864.38C261.71,-843.13 346.67,-700 275,-700"/>
<polygon fill="black" stroke="black" points="316.63,-865.56 323.85,-870.54 320.57,-866.28 324.5,-867 324.5,-867 324.5,-867 320.57,-866.28 325.15,-863.46 316.63,-865.56 316.63,-865.56"/>
<ellipse fill="none" stroke="black" cx="313.48" cy="-864.99" rx="3.2" ry="3.2"/>
</g>
</g>
</svg>
