<?xml version="1.0" encoding="UTF-8" standalone="no"?>
<!DOCTYPE svg PUBLIC "-//W3C//DTD SVG 1.1//EN"
 "http://www.w3.org/Graphics/SVG/1.1/DTD/svg11.dtd">
<!-- Generated by graphviz version 2.43.0 (0)
 -->
<!-- Title: oneDegreeRelationshipsDiagram Pages: 1 -->
<svg width="1036pt" height="1110pt"
 viewBox="0.00 0.00 1036.00 1110.00" xmlns="http://www.w3.org/2000/svg" xmlns:xlink="http://www.w3.org/1999/xlink">
<g id="graph0" class="graph" transform="scale(1 1) rotate(0) translate(4 1106)">
<title>oneDegreeRelationshipsDiagram</title>
<polygon fill="#ffffff" stroke="transparent" points="-4,4 -4,-1106 1032,-1106 1032,4 -4,4"/>
<text text-anchor="middle" x="71.5" y="-7.2" font-family="Helvetica,sans-Serif" font-size="11.00">Generated by SchemaSpy</text>
<!-- c_bp_edi -->
<g id="node1" class="node">
<title>c_bp_edi</title>
<g id="a_node1"><a xlink:href="../../tables/c_bp_edi.html" xlink:title="c_bp_edi" target="_top">
<polygon fill="#ffffff" stroke="transparent" points="339.5,-781 339.5,-949 502.5,-949 502.5,-781 339.5,-781"/>
<polygon fill="#f5f5f5" stroke="transparent" points="340,-927 340,-949 503,-949 503,-927 340,-927"/>
<polygon fill="none" stroke="black" points="340,-927 340,-949 503,-949 503,-927 340,-927"/>
<text text-anchor="start" x="345" y="-936.2" font-family="Helvetica,sans-Serif" font-weight="bold" font-size="11.00">c_bp_edi</text>
<text text-anchor="start" x="468" y="-935.2" font-family="Helvetica,sans-Serif" font-size="11.00">[table]</text>
<polygon fill="none" stroke="black" points="340,-905 340,-927 503,-927 503,-905 340,-905"/>
<image xlink:href="../../images/primaryKeys.png" width="11px" height="12px" preserveAspectRatio="xMinYMin meet" x="345" y="-922"/>
<text text-anchor="start" x="360" y="-913.2" font-family="Helvetica,sans-Serif" font-size="11.00">c_bp_edi_id</text>
<polygon fill="none" stroke="black" points="340,-883 340,-905 503,-905 503,-883 340,-883"/>
<image xlink:href="../../images/foreignKeys.png" width="11px" height="12px" preserveAspectRatio="xMinYMin meet" x="345" y="-900"/>
<text text-anchor="start" x="360" y="-891.2" font-family="Helvetica,sans-Serif" font-size="11.00">c_bpartner_id</text>
<polygon fill="none" stroke="black" points="340,-861 340,-883 503,-883 503,-861 340,-861"/>
<image xlink:href="../../images/foreignKeys.png" width="11px" height="12px" preserveAspectRatio="xMinYMin meet" x="345" y="-878"/>
<text text-anchor="start" x="360" y="-869.2" font-family="Helvetica,sans-Serif" font-size="11.00">m_warehouse_id</text>
<polygon fill="none" stroke="black" points="340,-839 340,-861 503,-861 503,-839 340,-839"/>
<image xlink:href="../../images/foreignKeys.png" width="11px" height="12px" preserveAspectRatio="xMinYMin meet" x="345" y="-856"/>
<text text-anchor="start" x="360" y="-847.2" font-family="Helvetica,sans-Serif" font-size="11.00">ad_sequence_id</text>
<polygon fill="#ffffff" stroke="transparent" points="340,-817 340,-839 503,-839 503,-817 340,-817"/>
<polygon fill="none" stroke="black" points="340,-817 340,-839 503,-839 503,-817 340,-817"/>
<text text-anchor="start" x="360" y="-825.2" font-family="Helvetica,sans-Serif" font-size="11.00">c_bp_edi_uu</text>
<polygon fill="none" stroke="black" points="340,-799 340,-817 503,-817 503,-799 340,-799"/>
<text text-anchor="start" x="343" y="-805.2" font-family="Helvetica,sans-Serif" font-size="11.00">...</text>
<polygon fill="#ffffff" stroke="transparent" points="340,-781 340,-799 503,-799 503,-781 340,-781"/>
<polygon fill="none" stroke="black" points="340,-781 340,-799 503,-799 503,-781 340,-781"/>
<polygon fill="#ffffff" stroke="transparent" points="341,-782 341,-798 398,-798 398,-782 341,-782"/>
<text text-anchor="start" x="343" y="-787.2" font-family="Helvetica,sans-Serif" font-size="11.00">&lt; 3</text>
<polygon fill="#ffffff" stroke="transparent" points="398,-782 398,-798 446,-798 446,-782 398,-782"/>
<text text-anchor="start" x="418.5" y="-787.2" font-family="Helvetica,sans-Serif" font-size="11.00"> &#160;</text>
<polygon fill="#ffffff" stroke="transparent" points="446,-782 446,-798 502,-798 502,-782 446,-782"/>
<text text-anchor="start" x="484" y="-787.2" font-family="Helvetica,sans-Serif" font-size="11.00">1 &gt;</text>
<polygon fill="black" stroke="black" points="398,-782 398,-798 398,-798 398,-782 398,-782"/>
<polygon fill="black" stroke="black" points="446,-782 446,-798 446,-798 446,-782 446,-782"/>
</a>
</g>
</g>
<!-- m_warehouse -->
<g id="node2" class="node">
<title>m_warehouse</title>
<g id="a_node2"><a xlink:href="../../tables/m_warehouse.html" xlink:title="m_warehouse" target="_top">
<polygon fill="#ffffff" stroke="transparent" points="8,-613 8,-847 239,-847 239,-613 8,-613"/>
<polygon fill="#f5f5f5" stroke="transparent" points="8.5,-825 8.5,-847 239.5,-847 239.5,-825 8.5,-825"/>
<polygon fill="none" stroke="black" points="8.5,-825 8.5,-847 239.5,-847 239.5,-825 8.5,-825"/>
<text text-anchor="start" x="13.5" y="-834.2" font-family="Helvetica,sans-Serif" font-weight="bold" font-size="11.00">m_warehouse</text>
<text text-anchor="start" x="204.5" y="-833.2" font-family="Helvetica,sans-Serif" font-size="11.00">[table]</text>
<polygon fill="none" stroke="black" points="8.5,-803 8.5,-825 239.5,-825 239.5,-803 8.5,-803"/>
<image xlink:href="../../images/primaryKeys.png" width="11px" height="12px" preserveAspectRatio="xMinYMin meet" x="13.5" y="-820"/>
<text text-anchor="start" x="28.5" y="-811.2" font-family="Helvetica,sans-Serif" font-size="11.00">m_warehouse_id</text>
<polygon fill="#ffffff" stroke="transparent" points="8.5,-781 8.5,-803 239.5,-803 239.5,-781 8.5,-781"/>
<polygon fill="none" stroke="black" points="8.5,-781 8.5,-803 239.5,-803 239.5,-781 8.5,-781"/>
<image xlink:href="../../images/foreignKeys.png" width="11px" height="12px" preserveAspectRatio="xMinYMin meet" x="13.5" y="-798"/>
<text text-anchor="start" x="28.5" y="-789.2" font-family="Helvetica,sans-Serif" font-size="11.00">ad_client_id</text>
<polygon fill="none" stroke="black" points="8.5,-759 8.5,-781 239.5,-781 239.5,-759 8.5,-759"/>
<image xlink:href="../../images/foreignKeys.png" width="11px" height="12px" preserveAspectRatio="xMinYMin meet" x="13.5" y="-776"/>
<text text-anchor="start" x="28.5" y="-767.2" font-family="Helvetica,sans-Serif" font-size="11.00">ad_org_id</text>
<polygon fill="#ffffff" stroke="transparent" points="8.5,-737 8.5,-759 239.5,-759 239.5,-737 8.5,-737"/>
<polygon fill="none" stroke="black" points="8.5,-737 8.5,-759 239.5,-759 239.5,-737 8.5,-737"/>
<text text-anchor="start" x="28.5" y="-745.2" font-family="Helvetica,sans-Serif" font-size="11.00">name</text>
<polygon fill="none" stroke="black" points="8.5,-715 8.5,-737 239.5,-737 239.5,-715 8.5,-715"/>
<image xlink:href="../../images/foreignKeys.png" width="11px" height="12px" preserveAspectRatio="xMinYMin meet" x="13.5" y="-732"/>
<text text-anchor="start" x="28.5" y="-723.2" font-family="Helvetica,sans-Serif" font-size="11.00">c_location_id</text>
<polygon fill="none" stroke="black" points="8.5,-693 8.5,-715 239.5,-715 239.5,-693 8.5,-693"/>
<image xlink:href="../../images/foreignKeys.png" width="11px" height="12px" preserveAspectRatio="xMinYMin meet" x="13.5" y="-710"/>
<text text-anchor="start" x="28.5" y="-701.2" font-family="Helvetica,sans-Serif" font-size="11.00">m_warehousesource_id</text>
<polygon fill="#ffffff" stroke="transparent" points="8.5,-671 8.5,-693 239.5,-693 239.5,-671 8.5,-671"/>
<polygon fill="none" stroke="black" points="8.5,-671 8.5,-693 239.5,-693 239.5,-671 8.5,-671"/>
<text text-anchor="start" x="28.5" y="-679.2" font-family="Helvetica,sans-Serif" font-size="11.00">m_warehouse_uu</text>
<polygon fill="none" stroke="black" points="8.5,-649 8.5,-671 239.5,-671 239.5,-649 8.5,-649"/>
<image xlink:href="../../images/foreignKeys.png" width="11px" height="12px" preserveAspectRatio="xMinYMin meet" x="13.5" y="-666"/>
<text text-anchor="start" x="28.5" y="-657.2" font-family="Helvetica,sans-Serif" font-size="11.00">m_reservelocator_id</text>
<polygon fill="none" stroke="black" points="8.5,-631 8.5,-649 239.5,-649 239.5,-631 8.5,-631"/>
<text text-anchor="start" x="11.5" y="-637.2" font-family="Helvetica,sans-Serif" font-size="11.00">...</text>
<polygon fill="#ffffff" stroke="transparent" points="8.5,-613 8.5,-631 239.5,-631 239.5,-613 8.5,-613"/>
<polygon fill="none" stroke="black" points="8.5,-613 8.5,-631 239.5,-631 239.5,-613 8.5,-613"/>
<polygon fill="#ffffff" stroke="transparent" points="9.5,-614 9.5,-630 78.5,-630 78.5,-614 9.5,-614"/>
<text text-anchor="start" x="11.5" y="-619.2" font-family="Helvetica,sans-Serif" font-size="11.00">&lt; 5</text>
<polygon fill="#ffffff" stroke="transparent" points="78.5,-614 78.5,-630 164.5,-630 164.5,-614 78.5,-614"/>
<text text-anchor="start" x="105" y="-619.2" font-family="Helvetica,sans-Serif" font-size="11.00">8 rows</text>
<polygon fill="#ffffff" stroke="transparent" points="164.5,-614 164.5,-630 238.5,-630 238.5,-614 164.5,-614"/>
<text text-anchor="start" x="214.5" y="-619.2" font-family="Helvetica,sans-Serif" font-size="11.00">57 &gt;</text>
<polygon fill="black" stroke="black" points="78.5,-614 78.5,-630 78.5,-630 78.5,-614 78.5,-614"/>
<polygon fill="black" stroke="black" points="164.5,-614 164.5,-630 164.5,-630 164.5,-614 164.5,-614"/>
</a>
</g>
</g>
<!-- c_bp_edi&#45;&gt;m_warehouse -->
<g id="edge1" class="edge">
<title>c_bp_edi:w&#45;&gt;m_warehouse:e</title>
<path fill="none" stroke="black" d="M324.6,-870.2C288.25,-860.41 285.95,-814 240.5,-814"/>
<polygon fill="black" stroke="black" points="331.06,-871.01 338.55,-875.57 335.03,-871.5 339,-872 339,-872 339,-872 335.03,-871.5 339.45,-868.43 331.06,-871.01 331.06,-871.01"/>
<ellipse fill="none" stroke="black" cx="327.89" cy="-870.61" rx="3.2" ry="3.2"/>
</g>
<!-- m_edi -->
<g id="node3" class="node">
<title>m_edi</title>
<g id="a_node3"><a xlink:href="../../tables/m_edi.html" xlink:title="m_edi" target="_top">
<polygon fill="#ffffff" stroke="transparent" points="603,-440 603,-1078 853,-1078 853,-440 603,-440"/>
<polygon fill="#f5f5f5" stroke="transparent" points="605,-1054 605,-1076 851,-1076 851,-1054 605,-1054"/>
<polygon fill="none" stroke="black" points="605,-1054 605,-1076 851,-1076 851,-1054 605,-1054"/>
<text text-anchor="start" x="610" y="-1063.2" font-family="Helvetica,sans-Serif" font-weight="bold" font-size="11.00">m_edi</text>
<text text-anchor="start" x="816" y="-1062.2" font-family="Helvetica,sans-Serif" font-size="11.00">[table]</text>
<polygon fill="none" stroke="black" points="605,-1032 605,-1054 768,-1054 768,-1032 605,-1032"/>
<image xlink:href="../../images/primaryKeys.png" width="11px" height="12px" preserveAspectRatio="xMinYMin meet" x="610" y="-1049"/>
<text text-anchor="start" x="625" y="-1040.2" font-family="Helvetica,sans-Serif" font-size="11.00">m_edi_id</text>
<polygon fill="none" stroke="black" points="768,-1032 768,-1054 851,-1054 851,-1032 768,-1032"/>
<text text-anchor="start" x="771" y="-1040.2" font-family="Helvetica,sans-Serif" font-size="11.00">numeric[10]</text>
<polygon fill="none" stroke="black" points="605,-1010 605,-1032 768,-1032 768,-1010 605,-1010"/>
<text text-anchor="start" x="625" y="-1018.2" font-family="Helvetica,sans-Serif" font-size="11.00">ad_client_id</text>
<polygon fill="none" stroke="black" points="768,-1010 768,-1032 851,-1032 851,-1010 768,-1010"/>
<text text-anchor="start" x="771" y="-1018.2" font-family="Helvetica,sans-Serif" font-size="11.00">numeric[10]</text>
<polygon fill="none" stroke="black" points="605,-988 605,-1010 768,-1010 768,-988 605,-988"/>
<text text-anchor="start" x="625" y="-996.2" font-family="Helvetica,sans-Serif" font-size="11.00">ad_org_id</text>
<polygon fill="none" stroke="black" points="768,-988 768,-1010 851,-1010 851,-988 768,-988"/>
<text text-anchor="start" x="771" y="-996.2" font-family="Helvetica,sans-Serif" font-size="11.00">numeric[10]</text>
<polygon fill="none" stroke="black" points="605,-966 605,-988 768,-988 768,-966 605,-966"/>
<text text-anchor="start" x="625" y="-974.2" font-family="Helvetica,sans-Serif" font-size="11.00">isactive</text>
<polygon fill="none" stroke="black" points="768,-966 768,-988 851,-988 851,-966 768,-966"/>
<text text-anchor="start" x="771" y="-974.2" font-family="Helvetica,sans-Serif" font-size="11.00">bpchar[1]</text>
<polygon fill="none" stroke="black" points="605,-944 605,-966 768,-966 768,-944 605,-944"/>
<text text-anchor="start" x="625" y="-952.2" font-family="Helvetica,sans-Serif" font-size="11.00">created</text>
<polygon fill="none" stroke="black" points="768,-944 768,-966 851,-966 851,-944 768,-944"/>
<text text-anchor="start" x="771" y="-952.2" font-family="Helvetica,sans-Serif" font-size="11.00">timestamp[29,6]</text>
<polygon fill="none" stroke="black" points="605,-922 605,-944 768,-944 768,-922 605,-922"/>
<text text-anchor="start" x="625" y="-930.2" font-family="Helvetica,sans-Serif" font-size="11.00">createdby</text>
<polygon fill="none" stroke="black" points="768,-922 768,-944 851,-944 851,-922 768,-922"/>
<text text-anchor="start" x="771" y="-930.2" font-family="Helvetica,sans-Serif" font-size="11.00">numeric[10]</text>
<polygon fill="none" stroke="black" points="605,-900 605,-922 768,-922 768,-900 605,-900"/>
<text text-anchor="start" x="625" y="-908.2" font-family="Helvetica,sans-Serif" font-size="11.00">updated</text>
<polygon fill="none" stroke="black" points="768,-900 768,-922 851,-922 851,-900 768,-900"/>
<text text-anchor="start" x="771" y="-908.2" font-family="Helvetica,sans-Serif" font-size="11.00">timestamp[29,6]</text>
<polygon fill="none" stroke="black" points="605,-878 605,-900 768,-900 768,-878 605,-878"/>
<text text-anchor="start" x="625" y="-886.2" font-family="Helvetica,sans-Serif" font-size="11.00">updatedby</text>
<polygon fill="none" stroke="black" points="768,-878 768,-900 851,-900 851,-878 768,-878"/>
<text text-anchor="start" x="771" y="-886.2" font-family="Helvetica,sans-Serif" font-size="11.00">numeric[10]</text>
<polygon fill="#ffffff" stroke="transparent" points="605,-856 605,-878 768,-878 768,-856 605,-856"/>
<polygon fill="none" stroke="black" points="605,-856 605,-878 768,-878 768,-856 605,-856"/>
<image xlink:href="../../images/foreignKeys.png" width="11px" height="12px" preserveAspectRatio="xMinYMin meet" x="610" y="-873"/>
<text text-anchor="start" x="625" y="-864.2" font-family="Helvetica,sans-Serif" font-size="11.00">c_bp_edi_id</text>
<polygon fill="none" stroke="black" points="768,-856 768,-878 851,-878 851,-856 768,-856"/>
<text text-anchor="start" x="771" y="-864.2" font-family="Helvetica,sans-Serif" font-size="11.00">numeric[10]</text>
<polygon fill="#ffffff" stroke="transparent" points="605,-834 605,-856 768,-856 768,-834 605,-834"/>
<polygon fill="none" stroke="black" points="605,-834 605,-856 768,-856 768,-834 605,-834"/>
<text text-anchor="start" x="625" y="-842.2" font-family="Helvetica,sans-Serif" font-size="11.00">documentno</text>
<polygon fill="none" stroke="black" points="768,-834 768,-856 851,-856 851,-834 768,-834"/>
<text text-anchor="start" x="771" y="-842.2" font-family="Helvetica,sans-Serif" font-size="11.00">varchar[30]</text>
<polygon fill="#ffffff" stroke="transparent" points="605,-812 605,-834 768,-834 768,-812 605,-812"/>
<polygon fill="none" stroke="black" points="605,-812 605,-834 768,-834 768,-812 605,-812"/>
<text text-anchor="start" x="625" y="-820.2" font-family="Helvetica,sans-Serif" font-size="11.00">line</text>
<polygon fill="none" stroke="black" points="768,-812 768,-834 851,-834 851,-812 768,-812"/>
<text text-anchor="start" x="771" y="-820.2" font-family="Helvetica,sans-Serif" font-size="11.00">numeric[10]</text>
<polygon fill="none" stroke="black" points="605,-790 605,-812 768,-812 768,-790 605,-790"/>
<text text-anchor="start" x="625" y="-798.2" font-family="Helvetica,sans-Serif" font-size="11.00">trxtype</text>
<polygon fill="none" stroke="black" points="768,-790 768,-812 851,-812 851,-790 768,-790"/>
<text text-anchor="start" x="771" y="-798.2" font-family="Helvetica,sans-Serif" font-size="11.00">bpchar[1]</text>
<polygon fill="none" stroke="black" points="605,-768 605,-790 768,-790 768,-768 605,-768"/>
<text text-anchor="start" x="625" y="-776.2" font-family="Helvetica,sans-Serif" font-size="11.00">edistatus</text>
<polygon fill="none" stroke="black" points="768,-768 768,-790 851,-790 851,-768 768,-768"/>
<text text-anchor="start" x="771" y="-776.2" font-family="Helvetica,sans-Serif" font-size="11.00">bpchar[1]</text>
<polygon fill="none" stroke="black" points="605,-746 605,-768 768,-768 768,-746 605,-746"/>
<image xlink:href="../../images/foreignKeys.png" width="11px" height="12px" preserveAspectRatio="xMinYMin meet" x="610" y="-763"/>
<text text-anchor="start" x="625" y="-754.2" font-family="Helvetica,sans-Serif" font-size="11.00">m_warehouse_id</text>
<polygon fill="none" stroke="black" points="768,-746 768,-768 851,-768 851,-746 768,-746"/>
<text text-anchor="start" x="771" y="-754.2" font-family="Helvetica,sans-Serif" font-size="11.00">numeric[10]</text>
<polygon fill="none" stroke="black" points="605,-724 605,-746 768,-746 768,-724 605,-724"/>
<image xlink:href="../../images/foreignKeys.png" width="11px" height="12px" preserveAspectRatio="xMinYMin meet" x="610" y="-741"/>
<text text-anchor="start" x="625" y="-732.2" font-family="Helvetica,sans-Serif" font-size="11.00">m_product_id</text>
<polygon fill="none" stroke="black" points="768,-724 768,-746 851,-746 851,-724 768,-724"/>
<text text-anchor="start" x="771" y="-732.2" font-family="Helvetica,sans-Serif" font-size="11.00">numeric[10]</text>
<polygon fill="none" stroke="black" points="605,-702 605,-724 768,-724 768,-702 605,-702"/>
<text text-anchor="start" x="625" y="-710.2" font-family="Helvetica,sans-Serif" font-size="11.00">request_qty</text>
<polygon fill="none" stroke="black" points="768,-702 768,-724 851,-724 851,-702 768,-702"/>
<text text-anchor="start" x="771" y="-710.2" font-family="Helvetica,sans-Serif" font-size="11.00">numeric[0]</text>
<polygon fill="none" stroke="black" points="605,-680 605,-702 768,-702 768,-680 605,-680"/>
<text text-anchor="start" x="625" y="-688.2" font-family="Helvetica,sans-Serif" font-size="11.00">request_shipdate</text>
<polygon fill="none" stroke="black" points="768,-680 768,-702 851,-702 851,-680 768,-680"/>
<text text-anchor="start" x="771" y="-688.2" font-family="Helvetica,sans-Serif" font-size="11.00">timestamp[29,6]</text>
<polygon fill="none" stroke="black" points="605,-658 605,-680 768,-680 768,-658 605,-658"/>
<text text-anchor="start" x="625" y="-666.2" font-family="Helvetica,sans-Serif" font-size="11.00">request_price</text>
<polygon fill="none" stroke="black" points="768,-658 768,-680 851,-680 851,-658 768,-658"/>
<text text-anchor="start" x="771" y="-666.2" font-family="Helvetica,sans-Serif" font-size="11.00">numeric[0]</text>
<polygon fill="none" stroke="black" points="605,-636 605,-658 768,-658 768,-636 605,-636"/>
<text text-anchor="start" x="625" y="-644.2" font-family="Helvetica,sans-Serif" font-size="11.00">trxsent</text>
<polygon fill="none" stroke="black" points="768,-636 768,-658 851,-658 851,-636 768,-636"/>
<text text-anchor="start" x="771" y="-644.2" font-family="Helvetica,sans-Serif" font-size="11.00">timestamp[29,6]</text>
<polygon fill="none" stroke="black" points="605,-614 605,-636 768,-636 768,-614 605,-614"/>
<text text-anchor="start" x="625" y="-622.2" font-family="Helvetica,sans-Serif" font-size="11.00">trxreceived</text>
<polygon fill="none" stroke="black" points="768,-614 768,-636 851,-636 851,-614 768,-614"/>
<text text-anchor="start" x="771" y="-622.2" font-family="Helvetica,sans-Serif" font-size="11.00">timestamp[29,6]</text>
<polygon fill="none" stroke="black" points="605,-592 605,-614 768,-614 768,-592 605,-592"/>
<text text-anchor="start" x="625" y="-600.2" font-family="Helvetica,sans-Serif" font-size="11.00">reply_received</text>
<polygon fill="none" stroke="black" points="768,-592 768,-614 851,-614 851,-592 768,-592"/>
<text text-anchor="start" x="771" y="-600.2" font-family="Helvetica,sans-Serif" font-size="11.00">timestamp[29,6]</text>
<polygon fill="none" stroke="black" points="605,-570 605,-592 768,-592 768,-570 605,-570"/>
<text text-anchor="start" x="625" y="-578.2" font-family="Helvetica,sans-Serif" font-size="11.00">reply_qtyconfirmed</text>
<polygon fill="none" stroke="black" points="768,-570 768,-592 851,-592 851,-570 768,-570"/>
<text text-anchor="start" x="771" y="-578.2" font-family="Helvetica,sans-Serif" font-size="11.00">numeric[0]</text>
<polygon fill="none" stroke="black" points="605,-548 605,-570 768,-570 768,-548 605,-548"/>
<text text-anchor="start" x="625" y="-556.2" font-family="Helvetica,sans-Serif" font-size="11.00">reply_qtyavailable</text>
<polygon fill="none" stroke="black" points="768,-548 768,-570 851,-570 851,-548 768,-548"/>
<text text-anchor="start" x="771" y="-556.2" font-family="Helvetica,sans-Serif" font-size="11.00">numeric[0]</text>
<polygon fill="none" stroke="black" points="605,-526 605,-548 768,-548 768,-526 605,-526"/>
<text text-anchor="start" x="625" y="-534.2" font-family="Helvetica,sans-Serif" font-size="11.00">reply_shipdate</text>
<polygon fill="none" stroke="black" points="768,-526 768,-548 851,-548 851,-526 768,-526"/>
<text text-anchor="start" x="771" y="-534.2" font-family="Helvetica,sans-Serif" font-size="11.00">timestamp[29,6]</text>
<polygon fill="none" stroke="black" points="605,-504 605,-526 768,-526 768,-504 605,-504"/>
<text text-anchor="start" x="625" y="-512.2" font-family="Helvetica,sans-Serif" font-size="11.00">reply_price</text>
<polygon fill="none" stroke="black" points="768,-504 768,-526 851,-526 851,-504 768,-504"/>
<text text-anchor="start" x="771" y="-512.2" font-family="Helvetica,sans-Serif" font-size="11.00">numeric[0]</text>
<polygon fill="none" stroke="black" points="605,-482 605,-504 768,-504 768,-482 605,-482"/>
<text text-anchor="start" x="625" y="-490.2" font-family="Helvetica,sans-Serif" font-size="11.00">reply_remarks</text>
<polygon fill="none" stroke="black" points="768,-482 768,-504 851,-504 851,-482 768,-482"/>
<text text-anchor="start" x="771" y="-490.2" font-family="Helvetica,sans-Serif" font-size="11.00">varchar[2000]</text>
<polygon fill="none" stroke="black" points="605,-460 605,-482 768,-482 768,-460 605,-460"/>
<text text-anchor="start" x="625" y="-468.2" font-family="Helvetica,sans-Serif" font-size="11.00">processed</text>
<polygon fill="none" stroke="black" points="768,-460 768,-482 851,-482 851,-460 768,-460"/>
<text text-anchor="start" x="771" y="-468.2" font-family="Helvetica,sans-Serif" font-size="11.00">bpchar[1]</text>
<polygon fill="#ffffff" stroke="transparent" points="605,-442 605,-460 851,-460 851,-442 605,-442"/>
<polygon fill="none" stroke="black" points="605,-442 605,-460 851,-460 851,-442 605,-442"/>
<polygon fill="#ffffff" stroke="transparent" points="606,-443 606,-459 691,-459 691,-443 606,-443"/>
<text text-anchor="start" x="608" y="-448.2" font-family="Helvetica,sans-Serif" font-size="11.00">&lt; 3</text>
<polygon fill="#ffffff" stroke="transparent" points="691,-443 691,-459 766,-459 766,-443 691,-443"/>
<text text-anchor="start" x="725" y="-448.2" font-family="Helvetica,sans-Serif" font-size="11.00"> &#160;</text>
<polygon fill="#ffffff" stroke="transparent" points="766,-443 766,-459 850,-459 850,-443 766,-443"/>
<text text-anchor="start" x="832" y="-448.2" font-family="Helvetica,sans-Serif" font-size="11.00">1 &gt;</text>
<polygon fill="black" stroke="black" points="691,-443 691,-459 691,-459 691,-443 691,-443"/>
<polygon fill="black" stroke="black" points="766,-443 766,-459 766,-459 766,-443 766,-443"/>
<polygon fill="none" stroke="black" stroke-width="2" points="604,-441 604,-1077 852,-1077 852,-441 604,-441"/>
</a>
</g>
</g>
<!-- m_edi&#45;&gt;c_bp_edi -->
<g id="edge2" class="edge">
<title>m_edi:w&#45;&gt;c_bp_edi:e</title>
<path fill="none" stroke="black" d="M589.37,-868.63C553.71,-877.13 548.08,-916 504,-916"/>
<polygon fill="black" stroke="black" points="596.05,-867.89 604.4,-870.58 600.02,-867.44 604,-867 604,-867 604,-867 600.02,-867.44 603.6,-863.42 596.05,-867.89 596.05,-867.89"/>
<ellipse fill="none" stroke="black" cx="592.87" cy="-868.24" rx="3.2" ry="3.2"/>
</g>
<!-- m_edi&#45;&gt;m_warehouse -->
<g id="edge4" class="edge">
<title>m_edi:w&#45;&gt;m_warehouse:e</title>
<path fill="none" stroke="black" d="M589.2,-756.82C509.08,-755.13 341.26,-742.5 280,-771 256.47,-781.95 266.45,-814 240.5,-814"/>
<polygon fill="black" stroke="black" points="596,-756.9 603.96,-760.6 600,-756.95 604,-757 604,-757 604,-757 600,-756.95 604.04,-753.4 596,-756.9 596,-756.9"/>
<ellipse fill="none" stroke="black" cx="592.8" cy="-756.87" rx="3.2" ry="3.2"/>
</g>
<!-- m_product -->
<g id="node4" class="node">
<title>m_product</title>
<g id="a_node4"><a xlink:href="../../tables/m_product.html" xlink:title="m_product" target="_top">
<polygon fill="#ffffff" stroke="transparent" points="288,-37 288,-733 554,-733 554,-37 288,-37"/>
<polygon fill="#f5f5f5" stroke="transparent" points="288,-711 288,-733 554,-733 554,-711 288,-711"/>
<polygon fill="none" stroke="black" points="288,-711 288,-733 554,-733 554,-711 288,-711"/>
<text text-anchor="start" x="293" y="-720.2" font-family="Helvetica,sans-Serif" font-weight="bold" font-size="11.00">m_product</text>
<text text-anchor="start" x="519" y="-719.2" font-family="Helvetica,sans-Serif" font-size="11.00">[table]</text>
<polygon fill="none" stroke="black" points="288,-689 288,-711 554,-711 554,-689 288,-689"/>
<image xlink:href="../../images/primaryKeys.png" width="11px" height="12px" preserveAspectRatio="xMinYMin meet" x="293" y="-706"/>
<text text-anchor="start" x="308" y="-697.2" font-family="Helvetica,sans-Serif" font-size="11.00">m_product_id</text>
<polygon fill="#ffffff" stroke="transparent" points="288,-667 288,-689 554,-689 554,-667 288,-667"/>
<polygon fill="none" stroke="black" points="288,-667 288,-689 554,-689 554,-667 288,-667"/>
<image xlink:href="../../images/foreignKeys.png" width="11px" height="12px" preserveAspectRatio="xMinYMin meet" x="293" y="-684"/>
<text text-anchor="start" x="308" y="-675.2" font-family="Helvetica,sans-Serif" font-size="11.00">ad_client_id</text>
<polygon fill="none" stroke="black" points="288,-645 288,-667 554,-667 554,-645 288,-645"/>
<image xlink:href="../../images/foreignKeys.png" width="11px" height="12px" preserveAspectRatio="xMinYMin meet" x="293" y="-662"/>
<text text-anchor="start" x="308" y="-653.2" font-family="Helvetica,sans-Serif" font-size="11.00">ad_org_id</text>
<polygon fill="#ffffff" stroke="transparent" points="288,-623 288,-645 554,-645 554,-623 288,-623"/>
<polygon fill="none" stroke="black" points="288,-623 288,-645 554,-645 554,-623 288,-623"/>
<text text-anchor="start" x="308" y="-631.2" font-family="Helvetica,sans-Serif" font-size="11.00">value</text>
<polygon fill="#ffffff" stroke="transparent" points="288,-601 288,-623 554,-623 554,-601 288,-601"/>
<polygon fill="none" stroke="black" points="288,-601 288,-623 554,-623 554,-601 288,-601"/>
<text text-anchor="start" x="308" y="-609.2" font-family="Helvetica,sans-Serif" font-size="11.00">name</text>
<polygon fill="#ffffff" stroke="transparent" points="288,-579 288,-601 554,-601 554,-579 288,-579"/>
<polygon fill="none" stroke="black" points="288,-579 288,-601 554,-601 554,-579 288,-579"/>
<text text-anchor="start" x="308" y="-587.2" font-family="Helvetica,sans-Serif" font-size="11.00">upc</text>
<polygon fill="none" stroke="black" points="288,-557 288,-579 554,-579 554,-557 288,-557"/>
<image xlink:href="../../images/foreignKeys.png" width="11px" height="12px" preserveAspectRatio="xMinYMin meet" x="293" y="-574"/>
<text text-anchor="start" x="308" y="-565.2" font-family="Helvetica,sans-Serif" font-size="11.00">c_uom_id</text>
<polygon fill="none" stroke="black" points="288,-535 288,-557 554,-557 554,-535 288,-535"/>
<image xlink:href="../../images/foreignKeys.png" width="11px" height="12px" preserveAspectRatio="xMinYMin meet" x="293" y="-552"/>
<text text-anchor="start" x="308" y="-543.2" font-family="Helvetica,sans-Serif" font-size="11.00">salesrep_id</text>
<polygon fill="none" stroke="black" points="288,-513 288,-535 554,-535 554,-513 288,-513"/>
<image xlink:href="../../images/foreignKeys.png" width="11px" height="12px" preserveAspectRatio="xMinYMin meet" x="293" y="-530"/>
<text text-anchor="start" x="308" y="-521.2" font-family="Helvetica,sans-Serif" font-size="11.00">c_revenuerecognition_id</text>
<polygon fill="#ffffff" stroke="transparent" points="288,-491 288,-513 554,-513 554,-491 288,-491"/>
<polygon fill="none" stroke="black" points="288,-491 288,-513 554,-513 554,-491 288,-491"/>
<image xlink:href="../../images/foreignKeys.png" width="11px" height="12px" preserveAspectRatio="xMinYMin meet" x="293" y="-508"/>
<text text-anchor="start" x="308" y="-499.2" font-family="Helvetica,sans-Serif" font-size="11.00">m_product_category_id</text>
<polygon fill="none" stroke="black" points="288,-469 288,-491 554,-491 554,-469 288,-469"/>
<image xlink:href="../../images/foreignKeys.png" width="11px" height="12px" preserveAspectRatio="xMinYMin meet" x="293" y="-486"/>
<text text-anchor="start" x="308" y="-477.2" font-family="Helvetica,sans-Serif" font-size="11.00">c_taxcategory_id</text>
<polygon fill="#ffffff" stroke="transparent" points="288,-447 288,-469 554,-469 554,-447 288,-447"/>
<polygon fill="none" stroke="black" points="288,-447 288,-469 554,-469 554,-447 288,-447"/>
<image xlink:href="../../images/foreignKeys.png" width="11px" height="12px" preserveAspectRatio="xMinYMin meet" x="293" y="-464"/>
<text text-anchor="start" x="308" y="-455.2" font-family="Helvetica,sans-Serif" font-size="11.00">s_resource_id</text>
<polygon fill="#ffffff" stroke="transparent" points="288,-425 288,-447 554,-447 554,-425 288,-425"/>
<polygon fill="none" stroke="black" points="288,-425 288,-447 554,-447 554,-425 288,-425"/>
<image xlink:href="../../images/foreignKeys.png" width="11px" height="12px" preserveAspectRatio="xMinYMin meet" x="293" y="-442"/>
<text text-anchor="start" x="308" y="-433.2" font-family="Helvetica,sans-Serif" font-size="11.00">s_expensetype_id</text>
<polygon fill="none" stroke="black" points="288,-403 288,-425 554,-425 554,-403 288,-403"/>
<image xlink:href="../../images/foreignKeys.png" width="11px" height="12px" preserveAspectRatio="xMinYMin meet" x="293" y="-420"/>
<text text-anchor="start" x="308" y="-411.2" font-family="Helvetica,sans-Serif" font-size="11.00">r_mailtext_id</text>
<polygon fill="none" stroke="black" points="288,-381 288,-403 554,-403 554,-381 288,-381"/>
<image xlink:href="../../images/foreignKeys.png" width="11px" height="12px" preserveAspectRatio="xMinYMin meet" x="293" y="-398"/>
<text text-anchor="start" x="308" y="-389.2" font-family="Helvetica,sans-Serif" font-size="11.00">m_attributeset_id</text>
<polygon fill="none" stroke="black" points="288,-359 288,-381 554,-381 554,-359 288,-359"/>
<image xlink:href="../../images/foreignKeys.png" width="11px" height="12px" preserveAspectRatio="xMinYMin meet" x="293" y="-376"/>
<text text-anchor="start" x="308" y="-367.2" font-family="Helvetica,sans-Serif" font-size="11.00">m_freightcategory_id</text>
<polygon fill="none" stroke="black" points="288,-337 288,-359 554,-359 554,-337 288,-337"/>
<image xlink:href="../../images/foreignKeys.png" width="11px" height="12px" preserveAspectRatio="xMinYMin meet" x="293" y="-354"/>
<text text-anchor="start" x="308" y="-345.2" font-family="Helvetica,sans-Serif" font-size="11.00">m_locator_id</text>
<polygon fill="none" stroke="black" points="288,-315 288,-337 554,-337 554,-315 288,-315"/>
<image xlink:href="../../images/foreignKeys.png" width="11px" height="12px" preserveAspectRatio="xMinYMin meet" x="293" y="-332"/>
<text text-anchor="start" x="308" y="-323.2" font-family="Helvetica,sans-Serif" font-size="11.00">c_subscriptiontype_id</text>
<polygon fill="#ffffff" stroke="transparent" points="288,-293 288,-315 554,-315 554,-293 288,-293"/>
<polygon fill="none" stroke="black" points="288,-293 288,-315 554,-315 554,-293 288,-293"/>
<text text-anchor="start" x="308" y="-301.2" font-family="Helvetica,sans-Serif" font-size="11.00">m_product_uu</text>
<polygon fill="none" stroke="black" points="288,-271 288,-293 554,-293 554,-271 288,-271"/>
<image xlink:href="../../images/foreignKeys.png" width="11px" height="12px" preserveAspectRatio="xMinYMin meet" x="293" y="-288"/>
<text text-anchor="start" x="308" y="-279.2" font-family="Helvetica,sans-Serif" font-size="11.00">m_parttype_id</text>
<polygon fill="none" stroke="black" points="288,-249 288,-271 554,-271 554,-249 288,-249"/>
<image xlink:href="../../images/foreignKeys.png" width="11px" height="12px" preserveAspectRatio="xMinYMin meet" x="293" y="-266"/>
<text text-anchor="start" x="308" y="-257.2" font-family="Helvetica,sans-Serif" font-size="11.00">cof_cest_id</text>
<polygon fill="none" stroke="black" points="288,-227 288,-249 554,-249 554,-227 288,-227"/>
<image xlink:href="../../images/foreignKeys.png" width="11px" height="12px" preserveAspectRatio="xMinYMin meet" x="293" y="-244"/>
<text text-anchor="start" x="308" y="-235.2" font-family="Helvetica,sans-Serif" font-size="11.00">cof_c_generoitem_sped_id</text>
<polygon fill="none" stroke="black" points="288,-205 288,-227 554,-227 554,-205 288,-205"/>
<image xlink:href="../../images/foreignKeys.png" width="11px" height="12px" preserveAspectRatio="xMinYMin meet" x="293" y="-222"/>
<text text-anchor="start" x="308" y="-213.2" font-family="Helvetica,sans-Serif" font-size="11.00">cof_producttype_id</text>
<polygon fill="none" stroke="black" points="288,-183 288,-205 554,-205 554,-183 288,-183"/>
<image xlink:href="../../images/foreignKeys.png" width="11px" height="12px" preserveAspectRatio="xMinYMin meet" x="293" y="-200"/>
<text text-anchor="start" x="308" y="-191.2" font-family="Helvetica,sans-Serif" font-size="11.00">cof_productclass_id</text>
<polygon fill="none" stroke="black" points="288,-161 288,-183 554,-183 554,-161 288,-161"/>
<image xlink:href="../../images/foreignKeys.png" width="11px" height="12px" preserveAspectRatio="xMinYMin meet" x="293" y="-178"/>
<text text-anchor="start" x="308" y="-169.2" font-family="Helvetica,sans-Serif" font-size="11.00">cof_productgroup_id</text>
<polygon fill="none" stroke="black" points="288,-139 288,-161 554,-161 554,-139 288,-139"/>
<image xlink:href="../../images/foreignKeys.png" width="11px" height="12px" preserveAspectRatio="xMinYMin meet" x="293" y="-156"/>
<text text-anchor="start" x="308" y="-147.2" font-family="Helvetica,sans-Serif" font-size="11.00">cof_nbs_id</text>
<polygon fill="none" stroke="black" points="288,-117 288,-139 554,-139 554,-117 288,-117"/>
<image xlink:href="../../images/foreignKeys.png" width="11px" height="12px" preserveAspectRatio="xMinYMin meet" x="293" y="-134"/>
<text text-anchor="start" x="308" y="-125.2" font-family="Helvetica,sans-Serif" font-size="11.00">cof_grupofornecedor_id</text>
<polygon fill="none" stroke="black" points="288,-95 288,-117 554,-117 554,-95 288,-95"/>
<image xlink:href="../../images/foreignKeys.png" width="11px" height="12px" preserveAspectRatio="xMinYMin meet" x="293" y="-112"/>
<text text-anchor="start" x="308" y="-103.2" font-family="Helvetica,sans-Serif" font-size="11.00">cof_gruposeparacao_id</text>
<polygon fill="none" stroke="black" points="288,-73 288,-95 554,-95 554,-73 288,-73"/>
<image xlink:href="../../images/foreignKeys.png" width="11px" height="12px" preserveAspectRatio="xMinYMin meet" x="293" y="-90"/>
<text text-anchor="start" x="308" y="-81.2" font-family="Helvetica,sans-Serif" font-size="11.00">cof_servicoatrelado_id</text>
<polygon fill="none" stroke="black" points="288,-55 288,-73 554,-73 554,-55 288,-55"/>
<text text-anchor="start" x="291" y="-61.2" font-family="Helvetica,sans-Serif" font-size="11.00">...</text>
<polygon fill="#ffffff" stroke="transparent" points="288,-37 288,-55 554,-55 554,-37 288,-37"/>
<polygon fill="none" stroke="black" points="288,-37 288,-55 554,-55 554,-37 288,-37"/>
<polygon fill="#ffffff" stroke="transparent" points="289,-38 289,-54 373,-54 373,-38 289,-38"/>
<text text-anchor="start" x="291" y="-43.2" font-family="Helvetica,sans-Serif" font-size="11.00">&lt; 24</text>
<polygon fill="#ffffff" stroke="transparent" points="373,-38 373,-54 463,-54 463,-38 373,-38"/>
<text text-anchor="start" x="404" y="-43.2" font-family="Helvetica,sans-Serif" font-size="11.00">1 row</text>
<polygon fill="#ffffff" stroke="transparent" points="463,-38 463,-54 553,-54 553,-38 463,-38"/>
<text text-anchor="start" x="523" y="-43.2" font-family="Helvetica,sans-Serif" font-size="11.00">187 &gt;</text>
<polygon fill="black" stroke="black" points="373,-38 373,-54 373,-54 373,-38 373,-38"/>
<polygon fill="black" stroke="black" points="463,-38 463,-54 463,-54 463,-38 463,-38"/>
</a>
</g>
</g>
<!-- m_edi&#45;&gt;m_product -->
<g id="edge3" class="edge">
<title>m_edi:w&#45;&gt;m_product:e</title>
<path fill="none" stroke="black" d="M589.9,-730.42C577.68,-720.94 575.7,-700 555,-700"/>
<polygon fill="black" stroke="black" points="596.39,-732.53 602.89,-738.42 600.2,-733.77 604,-735 604,-735 604,-735 600.2,-733.77 605.11,-731.58 596.39,-732.53 596.39,-732.53"/>
<ellipse fill="none" stroke="black" cx="593.35" cy="-731.54" rx="3.2" ry="3.2"/>
</g>
<!-- m_edi_info -->
<g id="node5" class="node">
<title>m_edi_info</title>
<g id="a_node5"><a xlink:href="../../tables/m_edi_info.html" xlink:title="m_edi_info" target="_top">
<polygon fill="#ffffff" stroke="transparent" points="902,-996 902,-1098 1020,-1098 1020,-996 902,-996"/>
<polygon fill="#f5f5f5" stroke="transparent" points="902,-1076 902,-1098 1020,-1098 1020,-1076 902,-1076"/>
<polygon fill="none" stroke="black" points="902,-1076 902,-1098 1020,-1098 1020,-1076 902,-1076"/>
<text text-anchor="start" x="907" y="-1085.2" font-family="Helvetica,sans-Serif" font-weight="bold" font-size="11.00">m_edi_info</text>
<text text-anchor="start" x="985" y="-1084.2" font-family="Helvetica,sans-Serif" font-size="11.00">[table]</text>
<polygon fill="none" stroke="black" points="902,-1054 902,-1076 1020,-1076 1020,-1054 902,-1054"/>
<image xlink:href="../../images/primaryKeys.png" width="11px" height="12px" preserveAspectRatio="xMinYMin meet" x="907" y="-1071"/>
<text text-anchor="start" x="922" y="-1062.2" font-family="Helvetica,sans-Serif" font-size="11.00">m_edi_info_id</text>
<polygon fill="none" stroke="black" points="902,-1032 902,-1054 1020,-1054 1020,-1032 902,-1032"/>
<image xlink:href="../../images/foreignKeys.png" width="11px" height="12px" preserveAspectRatio="xMinYMin meet" x="907" y="-1049"/>
<text text-anchor="start" x="922" y="-1040.2" font-family="Helvetica,sans-Serif" font-size="11.00">m_edi_id</text>
<polygon fill="none" stroke="black" points="902,-1014 902,-1032 1020,-1032 1020,-1014 902,-1014"/>
<text text-anchor="start" x="905" y="-1020.2" font-family="Helvetica,sans-Serif" font-size="11.00">...</text>
<polygon fill="#ffffff" stroke="transparent" points="902,-996 902,-1014 1020,-1014 1020,-996 902,-996"/>
<polygon fill="none" stroke="black" points="902,-996 902,-1014 1020,-1014 1020,-996 902,-996"/>
<polygon fill="#ffffff" stroke="transparent" points="903,-997 903,-1013 948,-1013 948,-997 903,-997"/>
<text text-anchor="start" x="905" y="-1002.2" font-family="Helvetica,sans-Serif" font-size="11.00">&lt; 1</text>
<polygon fill="#ffffff" stroke="transparent" points="948,-997 948,-1013 984,-1013 984,-997 948,-997"/>
<text text-anchor="start" x="962.5" y="-1002.2" font-family="Helvetica,sans-Serif" font-size="11.00"> &#160;</text>
<polygon fill="#ffffff" stroke="transparent" points="984,-997 984,-1013 1019,-1013 1019,-997 984,-997"/>
<text text-anchor="start" x="1010" y="-1002.2" font-family="Helvetica,sans-Serif" font-size="11.00"> &#160;</text>
<polygon fill="black" stroke="black" points="948,-997 948,-1013 948,-1013 948,-997 948,-997"/>
<polygon fill="black" stroke="black" points="984,-997 984,-1013 984,-1013 984,-997 984,-997"/>
</a>
</g>
</g>
<!-- m_edi_info&#45;&gt;m_edi -->
<g id="edge5" class="edge">
<title>m_edi_info:w&#45;&gt;m_edi:e</title>
<path fill="none" stroke="black" d="M886.49,-1043C875.18,-1043 867.99,-1043 852,-1043"/>
<polygon fill="black" stroke="black" points="893,-1043 901,-1046.6 897,-1043 901,-1043 901,-1043 901,-1043 897,-1043 901,-1039.4 893,-1043 893,-1043"/>
<ellipse fill="none" stroke="black" cx="889.8" cy="-1043" rx="3.2" ry="3.2"/>
</g>
</g>
</svg>
