<?xml version="1.0" encoding="UTF-8" standalone="no"?>
<!DOCTYPE svg PUBLIC "-//W3C//DTD SVG 1.1//EN"
 "http://www.w3.org/Graphics/SVG/1.1/DTD/svg11.dtd">
<!-- Generated by graphviz version 2.43.0 (0)
 -->
<!-- Title: oneDegreeRelationshipsDiagram Pages: 1 -->
<svg width="997pt" height="797pt"
 viewBox="0.00 0.00 997.00 797.00" xmlns="http://www.w3.org/2000/svg" xmlns:xlink="http://www.w3.org/1999/xlink">
<g id="graph0" class="graph" transform="scale(1 1) rotate(0) translate(4 793)">
<title>oneDegreeRelationshipsDiagram</title>
<polygon fill="#ffffff" stroke="transparent" points="-4,4 -4,-793 993,-793 993,4 -4,4"/>
<text text-anchor="middle" x="71.5" y="-7.2" font-family="Helvetica,sans-Serif" font-size="11.00">Generated by SchemaSpy</text>
<!-- c_country -->
<g id="node1" class="node">
<title>c_country</title>
<g id="a_node1"><a xlink:href="../../tables/c_country.html" xlink:title="c_country" target="_top">
<polygon fill="#ffffff" stroke="transparent" points="209,-158 209,-370 424,-370 424,-158 209,-158"/>
<polygon fill="#f5f5f5" stroke="transparent" points="209.5,-348 209.5,-370 424.5,-370 424.5,-348 209.5,-348"/>
<polygon fill="none" stroke="black" points="209.5,-348 209.5,-370 424.5,-370 424.5,-348 209.5,-348"/>
<text text-anchor="start" x="214.5" y="-357.2" font-family="Helvetica,sans-Serif" font-weight="bold" font-size="11.00">c_country</text>
<text text-anchor="start" x="389.5" y="-356.2" font-family="Helvetica,sans-Serif" font-size="11.00">[table]</text>
<polygon fill="none" stroke="black" points="209.5,-326 209.5,-348 424.5,-348 424.5,-326 209.5,-326"/>
<image xlink:href="../../images/primaryKeys.png" width="11px" height="12px" preserveAspectRatio="xMinYMin meet" x="214.5" y="-343"/>
<text text-anchor="start" x="229.5" y="-334.2" font-family="Helvetica,sans-Serif" font-size="11.00">c_country_id</text>
<polygon fill="none" stroke="black" points="209.5,-304 209.5,-326 424.5,-326 424.5,-304 209.5,-304"/>
<image xlink:href="../../images/foreignKeys.png" width="11px" height="12px" preserveAspectRatio="xMinYMin meet" x="214.5" y="-321"/>
<text text-anchor="start" x="229.5" y="-312.2" font-family="Helvetica,sans-Serif" font-size="11.00">ad_client_id</text>
<polygon fill="none" stroke="black" points="209.5,-282 209.5,-304 424.5,-304 424.5,-282 209.5,-282"/>
<image xlink:href="../../images/foreignKeys.png" width="11px" height="12px" preserveAspectRatio="xMinYMin meet" x="214.5" y="-299"/>
<text text-anchor="start" x="229.5" y="-290.2" font-family="Helvetica,sans-Serif" font-size="11.00">ad_org_id</text>
<polygon fill="#ffffff" stroke="transparent" points="209.5,-260 209.5,-282 424.5,-282 424.5,-260 209.5,-260"/>
<polygon fill="none" stroke="black" points="209.5,-260 209.5,-282 424.5,-282 424.5,-260 209.5,-260"/>
<text text-anchor="start" x="229.5" y="-268.2" font-family="Helvetica,sans-Serif" font-size="11.00">countrycode</text>
<polygon fill="none" stroke="black" points="209.5,-238 209.5,-260 424.5,-260 424.5,-238 209.5,-238"/>
<image xlink:href="../../images/foreignKeys.png" width="11px" height="12px" preserveAspectRatio="xMinYMin meet" x="214.5" y="-255"/>
<text text-anchor="start" x="229.5" y="-246.2" font-family="Helvetica,sans-Serif" font-size="11.00">ad_language</text>
<polygon fill="none" stroke="black" points="209.5,-216 209.5,-238 424.5,-238 424.5,-216 209.5,-216"/>
<image xlink:href="../../images/foreignKeys.png" width="11px" height="12px" preserveAspectRatio="xMinYMin meet" x="214.5" y="-233"/>
<text text-anchor="start" x="229.5" y="-224.2" font-family="Helvetica,sans-Serif" font-size="11.00">c_currency_id</text>
<polygon fill="#ffffff" stroke="transparent" points="209.5,-194 209.5,-216 424.5,-216 424.5,-194 209.5,-194"/>
<polygon fill="none" stroke="black" points="209.5,-194 209.5,-216 424.5,-216 424.5,-194 209.5,-194"/>
<text text-anchor="start" x="229.5" y="-202.2" font-family="Helvetica,sans-Serif" font-size="11.00">c_country_uu</text>
<polygon fill="none" stroke="black" points="209.5,-176 209.5,-194 424.5,-194 424.5,-176 209.5,-176"/>
<text text-anchor="start" x="212.5" y="-182.2" font-family="Helvetica,sans-Serif" font-size="11.00">...</text>
<polygon fill="#ffffff" stroke="transparent" points="209.5,-158 209.5,-176 424.5,-176 424.5,-158 209.5,-158"/>
<polygon fill="none" stroke="black" points="209.5,-158 209.5,-176 424.5,-176 424.5,-158 209.5,-158"/>
<polygon fill="#ffffff" stroke="transparent" points="210.5,-159 210.5,-175 270.5,-175 270.5,-159 210.5,-159"/>
<text text-anchor="start" x="212.5" y="-164.2" font-family="Helvetica,sans-Serif" font-size="11.00">&lt; 5</text>
<polygon fill="#ffffff" stroke="transparent" points="270.5,-159 270.5,-175 358.5,-175 358.5,-159 270.5,-159"/>
<text text-anchor="start" x="292" y="-164.2" font-family="Helvetica,sans-Serif" font-size="11.00">251 rows</text>
<polygon fill="#ffffff" stroke="transparent" points="358.5,-159 358.5,-175 423.5,-175 423.5,-159 358.5,-159"/>
<text text-anchor="start" x="399.5" y="-164.2" font-family="Helvetica,sans-Serif" font-size="11.00">26 &gt;</text>
<polygon fill="black" stroke="black" points="270.5,-159 270.5,-175 270.5,-175 270.5,-159 270.5,-159"/>
<polygon fill="black" stroke="black" points="358.5,-159 358.5,-175 358.5,-175 358.5,-159 358.5,-159"/>
</a>
</g>
</g>
<!-- c_currency -->
<g id="node2" class="node">
<title>c_currency</title>
<g id="a_node2"><a xlink:href="../../tables/c_currency.html" xlink:title="c_currency" target="_top">
<polygon fill="#ffffff" stroke="transparent" points="8,-37 8,-205 160,-205 160,-37 8,-37"/>
<polygon fill="#f5f5f5" stroke="transparent" points="8,-183 8,-205 160,-205 160,-183 8,-183"/>
<polygon fill="none" stroke="black" points="8,-183 8,-205 160,-205 160,-183 8,-183"/>
<text text-anchor="start" x="13" y="-192.2" font-family="Helvetica,sans-Serif" font-weight="bold" font-size="11.00">c_currency</text>
<text text-anchor="start" x="125" y="-191.2" font-family="Helvetica,sans-Serif" font-size="11.00">[table]</text>
<polygon fill="none" stroke="black" points="8,-161 8,-183 160,-183 160,-161 8,-161"/>
<image xlink:href="../../images/primaryKeys.png" width="11px" height="12px" preserveAspectRatio="xMinYMin meet" x="13" y="-178"/>
<text text-anchor="start" x="28" y="-169.2" font-family="Helvetica,sans-Serif" font-size="11.00">c_currency_id</text>
<polygon fill="none" stroke="black" points="8,-139 8,-161 160,-161 160,-139 8,-139"/>
<image xlink:href="../../images/foreignKeys.png" width="11px" height="12px" preserveAspectRatio="xMinYMin meet" x="13" y="-156"/>
<text text-anchor="start" x="28" y="-147.2" font-family="Helvetica,sans-Serif" font-size="11.00">ad_client_id</text>
<polygon fill="none" stroke="black" points="8,-117 8,-139 160,-139 160,-117 8,-117"/>
<image xlink:href="../../images/foreignKeys.png" width="11px" height="12px" preserveAspectRatio="xMinYMin meet" x="13" y="-134"/>
<text text-anchor="start" x="28" y="-125.2" font-family="Helvetica,sans-Serif" font-size="11.00">ad_org_id</text>
<polygon fill="#ffffff" stroke="transparent" points="8,-95 8,-117 160,-117 160,-95 8,-95"/>
<polygon fill="none" stroke="black" points="8,-95 8,-117 160,-117 160,-95 8,-95"/>
<text text-anchor="start" x="28" y="-103.2" font-family="Helvetica,sans-Serif" font-size="11.00">iso_code</text>
<polygon fill="#ffffff" stroke="transparent" points="8,-73 8,-95 160,-95 160,-73 8,-73"/>
<polygon fill="none" stroke="black" points="8,-73 8,-95 160,-95 160,-73 8,-73"/>
<text text-anchor="start" x="28" y="-81.2" font-family="Helvetica,sans-Serif" font-size="11.00">c_currency_uu</text>
<polygon fill="none" stroke="black" points="8,-55 8,-73 160,-73 160,-55 8,-55"/>
<text text-anchor="start" x="11" y="-61.2" font-family="Helvetica,sans-Serif" font-size="11.00">...</text>
<polygon fill="#ffffff" stroke="transparent" points="8,-37 8,-55 160,-55 160,-37 8,-37"/>
<polygon fill="none" stroke="black" points="8,-37 8,-55 160,-55 160,-37 8,-37"/>
<polygon fill="#ffffff" stroke="transparent" points="9,-38 9,-54 48,-54 48,-38 9,-38"/>
<text text-anchor="start" x="11" y="-43.2" font-family="Helvetica,sans-Serif" font-size="11.00">&lt; 2</text>
<polygon fill="#ffffff" stroke="transparent" points="48,-38 48,-54 115,-54 115,-38 48,-38"/>
<text text-anchor="start" x="59" y="-43.2" font-family="Helvetica,sans-Serif" font-size="11.00">175 rows</text>
<polygon fill="#ffffff" stroke="transparent" points="115,-38 115,-54 159,-54 159,-38 115,-38"/>
<text text-anchor="start" x="135" y="-43.2" font-family="Helvetica,sans-Serif" font-size="11.00">71 &gt;</text>
<polygon fill="black" stroke="black" points="48,-38 48,-54 48,-54 48,-38 48,-38"/>
<polygon fill="black" stroke="black" points="115,-38 115,-54 115,-54 115,-38 115,-38"/>
</a>
</g>
</g>
<!-- c_country&#45;&gt;c_currency -->
<g id="edge1" class="edge">
<title>c_country:w&#45;&gt;c_currency:e</title>
<path fill="none" stroke="black" d="M194.89,-221.92C180.88,-208.31 187.24,-172 161,-172"/>
<polygon fill="black" stroke="black" points="201,-224.2 207.24,-230.37 204.75,-225.6 208.5,-227 208.5,-227 208.5,-227 204.75,-225.6 209.76,-223.63 201,-224.2 201,-224.2"/>
<ellipse fill="none" stroke="black" cx="198.01" cy="-223.09" rx="3.2" ry="3.2"/>
</g>
<!-- c_region -->
<g id="node3" class="node">
<title>c_region</title>
<g id="a_node3"><a xlink:href="../../tables/c_region.html" xlink:title="c_region" target="_top">
<polygon fill="#ffffff" stroke="transparent" points="506.5,-141 506.5,-331 635.5,-331 635.5,-141 506.5,-141"/>
<polygon fill="#f5f5f5" stroke="transparent" points="507,-309 507,-331 636,-331 636,-309 507,-309"/>
<polygon fill="none" stroke="black" points="507,-309 507,-331 636,-331 636,-309 507,-309"/>
<text text-anchor="start" x="512" y="-318.2" font-family="Helvetica,sans-Serif" font-weight="bold" font-size="11.00">c_region</text>
<text text-anchor="start" x="601" y="-317.2" font-family="Helvetica,sans-Serif" font-size="11.00">[table]</text>
<polygon fill="none" stroke="black" points="507,-287 507,-309 636,-309 636,-287 507,-287"/>
<image xlink:href="../../images/primaryKeys.png" width="11px" height="12px" preserveAspectRatio="xMinYMin meet" x="512" y="-304"/>
<text text-anchor="start" x="527" y="-295.2" font-family="Helvetica,sans-Serif" font-size="11.00">c_region_id</text>
<polygon fill="none" stroke="black" points="507,-265 507,-287 636,-287 636,-265 507,-265"/>
<image xlink:href="../../images/foreignKeys.png" width="11px" height="12px" preserveAspectRatio="xMinYMin meet" x="512" y="-282"/>
<text text-anchor="start" x="527" y="-273.2" font-family="Helvetica,sans-Serif" font-size="11.00">ad_client_id</text>
<polygon fill="none" stroke="black" points="507,-243 507,-265 636,-265 636,-243 507,-243"/>
<image xlink:href="../../images/foreignKeys.png" width="11px" height="12px" preserveAspectRatio="xMinYMin meet" x="512" y="-260"/>
<text text-anchor="start" x="527" y="-251.2" font-family="Helvetica,sans-Serif" font-size="11.00">ad_org_id</text>
<polygon fill="#ffffff" stroke="transparent" points="507,-221 507,-243 636,-243 636,-221 507,-221"/>
<polygon fill="none" stroke="black" points="507,-221 507,-243 636,-243 636,-221 507,-221"/>
<text text-anchor="start" x="527" y="-229.2" font-family="Helvetica,sans-Serif" font-size="11.00">name</text>
<polygon fill="#ffffff" stroke="transparent" points="507,-199 507,-221 636,-221 636,-199 507,-199"/>
<polygon fill="none" stroke="black" points="507,-199 507,-221 636,-221 636,-199 507,-199"/>
<image xlink:href="../../images/foreignKeys.png" width="11px" height="12px" preserveAspectRatio="xMinYMin meet" x="512" y="-216"/>
<text text-anchor="start" x="527" y="-207.2" font-family="Helvetica,sans-Serif" font-size="11.00">c_country_id</text>
<polygon fill="#ffffff" stroke="transparent" points="507,-177 507,-199 636,-199 636,-177 507,-177"/>
<polygon fill="none" stroke="black" points="507,-177 507,-199 636,-199 636,-177 507,-177"/>
<text text-anchor="start" x="527" y="-185.2" font-family="Helvetica,sans-Serif" font-size="11.00">c_region_uu</text>
<polygon fill="none" stroke="black" points="507,-159 507,-177 636,-177 636,-159 507,-159"/>
<text text-anchor="start" x="510" y="-165.2" font-family="Helvetica,sans-Serif" font-size="11.00">...</text>
<polygon fill="#ffffff" stroke="transparent" points="507,-141 507,-159 636,-159 636,-141 507,-141"/>
<polygon fill="none" stroke="black" points="507,-141 507,-159 636,-159 636,-141 507,-141"/>
<polygon fill="#ffffff" stroke="transparent" points="508,-142 508,-158 539,-158 539,-142 508,-142"/>
<text text-anchor="start" x="510" y="-147.2" font-family="Helvetica,sans-Serif" font-size="11.00">&lt; 3</text>
<polygon fill="#ffffff" stroke="transparent" points="539,-142 539,-158 599,-158 599,-142 539,-142"/>
<text text-anchor="start" x="546.5" y="-147.2" font-family="Helvetica,sans-Serif" font-size="11.00">399 rows</text>
<polygon fill="#ffffff" stroke="transparent" points="599,-142 599,-158 635,-158 635,-142 599,-142"/>
<text text-anchor="start" x="611" y="-147.2" font-family="Helvetica,sans-Serif" font-size="11.00">45 &gt;</text>
<polygon fill="black" stroke="black" points="539,-142 539,-158 539,-158 539,-142 539,-142"/>
<polygon fill="black" stroke="black" points="599,-142 599,-158 599,-158 599,-142 599,-142"/>
</a>
</g>
</g>
<!-- c_region&#45;&gt;c_country -->
<g id="edge2" class="edge">
<title>c_region:w&#45;&gt;c_country:e</title>
<path fill="none" stroke="black" d="M491.56,-212.54C447.25,-230.44 486.72,-337 425.5,-337"/>
<polygon fill="black" stroke="black" points="498.12,-211.38 506.62,-213.55 502.06,-210.69 506,-210 506,-210 506,-210 502.06,-210.69 505.38,-206.45 498.12,-211.38 498.12,-211.38"/>
<ellipse fill="none" stroke="black" cx="494.97" cy="-211.94" rx="3.2" ry="3.2"/>
</g>
<!-- m_freight -->
<g id="node4" class="node">
<title>m_freight</title>
<g id="a_node4"><a xlink:href="../../tables/m_freight.html" xlink:title="m_freight" target="_top">
<polygon fill="#ffffff" stroke="transparent" points="718,-170 718,-654 981,-654 981,-170 718,-170"/>
<polygon fill="#f5f5f5" stroke="transparent" points="720.5,-630 720.5,-652 979.5,-652 979.5,-630 720.5,-630"/>
<polygon fill="none" stroke="black" points="720.5,-630 720.5,-652 979.5,-652 979.5,-630 720.5,-630"/>
<text text-anchor="start" x="725.5" y="-639.2" font-family="Helvetica,sans-Serif" font-weight="bold" font-size="11.00">m_freight</text>
<text text-anchor="start" x="944.5" y="-638.2" font-family="Helvetica,sans-Serif" font-size="11.00">[table]</text>
<polygon fill="none" stroke="black" points="720.5,-608 720.5,-630 896.5,-630 896.5,-608 720.5,-608"/>
<image xlink:href="../../images/primaryKeys.png" width="11px" height="12px" preserveAspectRatio="xMinYMin meet" x="725.5" y="-625"/>
<text text-anchor="start" x="740.5" y="-616.2" font-family="Helvetica,sans-Serif" font-size="11.00">m_freight_id</text>
<polygon fill="none" stroke="black" points="896.5,-608 896.5,-630 979.5,-630 979.5,-608 896.5,-608"/>
<text text-anchor="start" x="899.5" y="-616.2" font-family="Helvetica,sans-Serif" font-size="11.00">numeric[10]</text>
<polygon fill="none" stroke="black" points="720.5,-586 720.5,-608 896.5,-608 896.5,-586 720.5,-586"/>
<text text-anchor="start" x="740.5" y="-594.2" font-family="Helvetica,sans-Serif" font-size="11.00">ad_client_id</text>
<polygon fill="none" stroke="black" points="896.5,-586 896.5,-608 979.5,-608 979.5,-586 896.5,-586"/>
<text text-anchor="start" x="899.5" y="-594.2" font-family="Helvetica,sans-Serif" font-size="11.00">numeric[10]</text>
<polygon fill="none" stroke="black" points="720.5,-564 720.5,-586 896.5,-586 896.5,-564 720.5,-564"/>
<text text-anchor="start" x="740.5" y="-572.2" font-family="Helvetica,sans-Serif" font-size="11.00">ad_org_id</text>
<polygon fill="none" stroke="black" points="896.5,-564 896.5,-586 979.5,-586 979.5,-564 896.5,-564"/>
<text text-anchor="start" x="899.5" y="-572.2" font-family="Helvetica,sans-Serif" font-size="11.00">numeric[10]</text>
<polygon fill="none" stroke="black" points="720.5,-542 720.5,-564 896.5,-564 896.5,-542 720.5,-542"/>
<text text-anchor="start" x="740.5" y="-550.2" font-family="Helvetica,sans-Serif" font-size="11.00">isactive</text>
<polygon fill="none" stroke="black" points="896.5,-542 896.5,-564 979.5,-564 979.5,-542 896.5,-542"/>
<text text-anchor="start" x="899.5" y="-550.2" font-family="Helvetica,sans-Serif" font-size="11.00">bpchar[1]</text>
<polygon fill="none" stroke="black" points="720.5,-520 720.5,-542 896.5,-542 896.5,-520 720.5,-520"/>
<text text-anchor="start" x="740.5" y="-528.2" font-family="Helvetica,sans-Serif" font-size="11.00">created</text>
<polygon fill="none" stroke="black" points="896.5,-520 896.5,-542 979.5,-542 979.5,-520 896.5,-520"/>
<text text-anchor="start" x="899.5" y="-528.2" font-family="Helvetica,sans-Serif" font-size="11.00">timestamp[29,6]</text>
<polygon fill="none" stroke="black" points="720.5,-498 720.5,-520 896.5,-520 896.5,-498 720.5,-498"/>
<text text-anchor="start" x="740.5" y="-506.2" font-family="Helvetica,sans-Serif" font-size="11.00">createdby</text>
<polygon fill="none" stroke="black" points="896.5,-498 896.5,-520 979.5,-520 979.5,-498 896.5,-498"/>
<text text-anchor="start" x="899.5" y="-506.2" font-family="Helvetica,sans-Serif" font-size="11.00">numeric[10]</text>
<polygon fill="none" stroke="black" points="720.5,-476 720.5,-498 896.5,-498 896.5,-476 720.5,-476"/>
<text text-anchor="start" x="740.5" y="-484.2" font-family="Helvetica,sans-Serif" font-size="11.00">updated</text>
<polygon fill="none" stroke="black" points="896.5,-476 896.5,-498 979.5,-498 979.5,-476 896.5,-476"/>
<text text-anchor="start" x="899.5" y="-484.2" font-family="Helvetica,sans-Serif" font-size="11.00">timestamp[29,6]</text>
<polygon fill="none" stroke="black" points="720.5,-454 720.5,-476 896.5,-476 896.5,-454 720.5,-454"/>
<text text-anchor="start" x="740.5" y="-462.2" font-family="Helvetica,sans-Serif" font-size="11.00">updatedby</text>
<polygon fill="none" stroke="black" points="896.5,-454 896.5,-476 979.5,-476 979.5,-454 896.5,-454"/>
<text text-anchor="start" x="899.5" y="-462.2" font-family="Helvetica,sans-Serif" font-size="11.00">numeric[10]</text>
<polygon fill="none" stroke="black" points="720.5,-432 720.5,-454 896.5,-454 896.5,-432 720.5,-432"/>
<image xlink:href="../../images/foreignKeys.png" width="11px" height="12px" preserveAspectRatio="xMinYMin meet" x="725.5" y="-449"/>
<text text-anchor="start" x="740.5" y="-440.2" font-family="Helvetica,sans-Serif" font-size="11.00">m_shipper_id</text>
<polygon fill="none" stroke="black" points="896.5,-432 896.5,-454 979.5,-454 979.5,-432 896.5,-432"/>
<text text-anchor="start" x="899.5" y="-440.2" font-family="Helvetica,sans-Serif" font-size="11.00">numeric[10]</text>
<polygon fill="none" stroke="black" points="720.5,-410 720.5,-432 896.5,-432 896.5,-410 720.5,-410"/>
<image xlink:href="../../images/foreignKeys.png" width="11px" height="12px" preserveAspectRatio="xMinYMin meet" x="725.5" y="-427"/>
<text text-anchor="start" x="740.5" y="-418.2" font-family="Helvetica,sans-Serif" font-size="11.00">m_freightcategory_id</text>
<polygon fill="none" stroke="black" points="896.5,-410 896.5,-432 979.5,-432 979.5,-410 896.5,-410"/>
<text text-anchor="start" x="899.5" y="-418.2" font-family="Helvetica,sans-Serif" font-size="11.00">numeric[10]</text>
<polygon fill="none" stroke="black" points="720.5,-388 720.5,-410 896.5,-410 896.5,-388 720.5,-388"/>
<text text-anchor="start" x="740.5" y="-396.2" font-family="Helvetica,sans-Serif" font-size="11.00">validfrom</text>
<polygon fill="none" stroke="black" points="896.5,-388 896.5,-410 979.5,-410 979.5,-388 896.5,-388"/>
<text text-anchor="start" x="899.5" y="-396.2" font-family="Helvetica,sans-Serif" font-size="11.00">timestamp[29,6]</text>
<polygon fill="none" stroke="black" points="720.5,-366 720.5,-388 896.5,-388 896.5,-366 720.5,-366"/>
<image xlink:href="../../images/foreignKeys.png" width="11px" height="12px" preserveAspectRatio="xMinYMin meet" x="725.5" y="-383"/>
<text text-anchor="start" x="740.5" y="-374.2" font-family="Helvetica,sans-Serif" font-size="11.00">c_country_id</text>
<polygon fill="none" stroke="black" points="896.5,-366 896.5,-388 979.5,-388 979.5,-366 896.5,-366"/>
<text text-anchor="start" x="899.5" y="-374.2" font-family="Helvetica,sans-Serif" font-size="11.00">numeric[10]</text>
<polygon fill="none" stroke="black" points="720.5,-344 720.5,-366 896.5,-366 896.5,-344 720.5,-344"/>
<image xlink:href="../../images/foreignKeys.png" width="11px" height="12px" preserveAspectRatio="xMinYMin meet" x="725.5" y="-361"/>
<text text-anchor="start" x="740.5" y="-352.2" font-family="Helvetica,sans-Serif" font-size="11.00">to_country_id</text>
<polygon fill="none" stroke="black" points="896.5,-344 896.5,-366 979.5,-366 979.5,-344 896.5,-344"/>
<text text-anchor="start" x="899.5" y="-352.2" font-family="Helvetica,sans-Serif" font-size="11.00">numeric[10]</text>
<polygon fill="none" stroke="black" points="720.5,-322 720.5,-344 896.5,-344 896.5,-322 720.5,-322"/>
<image xlink:href="../../images/foreignKeys.png" width="11px" height="12px" preserveAspectRatio="xMinYMin meet" x="725.5" y="-339"/>
<text text-anchor="start" x="740.5" y="-330.2" font-family="Helvetica,sans-Serif" font-size="11.00">c_region_id</text>
<polygon fill="none" stroke="black" points="896.5,-322 896.5,-344 979.5,-344 979.5,-322 896.5,-322"/>
<text text-anchor="start" x="899.5" y="-330.2" font-family="Helvetica,sans-Serif" font-size="11.00">numeric[10]</text>
<polygon fill="none" stroke="black" points="720.5,-300 720.5,-322 896.5,-322 896.5,-300 720.5,-300"/>
<image xlink:href="../../images/foreignKeys.png" width="11px" height="12px" preserveAspectRatio="xMinYMin meet" x="725.5" y="-317"/>
<text text-anchor="start" x="740.5" y="-308.2" font-family="Helvetica,sans-Serif" font-size="11.00">to_region_id</text>
<polygon fill="none" stroke="black" points="896.5,-300 896.5,-322 979.5,-322 979.5,-300 896.5,-300"/>
<text text-anchor="start" x="899.5" y="-308.2" font-family="Helvetica,sans-Serif" font-size="11.00">numeric[10]</text>
<polygon fill="none" stroke="black" points="720.5,-278 720.5,-300 896.5,-300 896.5,-278 720.5,-278"/>
<image xlink:href="../../images/foreignKeys.png" width="11px" height="12px" preserveAspectRatio="xMinYMin meet" x="725.5" y="-295"/>
<text text-anchor="start" x="740.5" y="-286.2" font-family="Helvetica,sans-Serif" font-size="11.00">c_currency_id</text>
<polygon fill="none" stroke="black" points="896.5,-278 896.5,-300 979.5,-300 979.5,-278 896.5,-278"/>
<text text-anchor="start" x="899.5" y="-286.2" font-family="Helvetica,sans-Serif" font-size="11.00">numeric[10]</text>
<polygon fill="none" stroke="black" points="720.5,-256 720.5,-278 896.5,-278 896.5,-256 720.5,-256"/>
<text text-anchor="start" x="740.5" y="-264.2" font-family="Helvetica,sans-Serif" font-size="11.00">freightamt</text>
<polygon fill="none" stroke="black" points="896.5,-256 896.5,-278 979.5,-278 979.5,-256 896.5,-256"/>
<text text-anchor="start" x="899.5" y="-264.2" font-family="Helvetica,sans-Serif" font-size="11.00">numeric[0]</text>
<polygon fill="#ffffff" stroke="transparent" points="720.5,-234 720.5,-256 896.5,-256 896.5,-234 720.5,-234"/>
<polygon fill="none" stroke="black" points="720.5,-234 720.5,-256 896.5,-256 896.5,-234 720.5,-234"/>
<text text-anchor="start" x="740.5" y="-242.2" font-family="Helvetica,sans-Serif" font-size="11.00">m_freight_uu</text>
<polygon fill="none" stroke="black" points="896.5,-234 896.5,-256 979.5,-256 979.5,-234 896.5,-234"/>
<text text-anchor="start" x="899.5" y="-242.2" font-family="Helvetica,sans-Serif" font-size="11.00">varchar[36]</text>
<polygon fill="none" stroke="black" points="720.5,-212 720.5,-234 896.5,-234 896.5,-212 720.5,-212"/>
<text text-anchor="start" x="740.5" y="-220.2" font-family="Helvetica,sans-Serif" font-size="11.00">maxweight</text>
<polygon fill="none" stroke="black" points="896.5,-212 896.5,-234 979.5,-234 979.5,-212 896.5,-212"/>
<text text-anchor="start" x="899.5" y="-220.2" font-family="Helvetica,sans-Serif" font-size="11.00">numeric[0]</text>
<polygon fill="none" stroke="black" points="720.5,-190 720.5,-212 896.5,-212 896.5,-190 720.5,-190"/>
<text text-anchor="start" x="740.5" y="-198.2" font-family="Helvetica,sans-Serif" font-size="11.00">maxdimension</text>
<polygon fill="none" stroke="black" points="896.5,-190 896.5,-212 979.5,-212 979.5,-190 896.5,-190"/>
<text text-anchor="start" x="899.5" y="-198.2" font-family="Helvetica,sans-Serif" font-size="11.00">numeric[0]</text>
<polygon fill="#ffffff" stroke="transparent" points="720.5,-172 720.5,-190 979.5,-190 979.5,-172 720.5,-172"/>
<polygon fill="none" stroke="black" points="720.5,-172 720.5,-190 979.5,-190 979.5,-172 720.5,-172"/>
<polygon fill="#ffffff" stroke="transparent" points="721.5,-173 721.5,-189 810.5,-189 810.5,-173 721.5,-173"/>
<text text-anchor="start" x="723.5" y="-178.2" font-family="Helvetica,sans-Serif" font-size="11.00">&lt; 7</text>
<polygon fill="#ffffff" stroke="transparent" points="810.5,-173 810.5,-189 890.5,-189 890.5,-173 810.5,-173"/>
<text text-anchor="start" x="847" y="-178.2" font-family="Helvetica,sans-Serif" font-size="11.00"> &#160;</text>
<polygon fill="#ffffff" stroke="transparent" points="890.5,-173 890.5,-189 978.5,-189 978.5,-173 890.5,-173"/>
<text text-anchor="start" x="960.5" y="-178.2" font-family="Helvetica,sans-Serif" font-size="11.00">0 &gt;</text>
<polygon fill="black" stroke="black" points="810.5,-173 810.5,-189 810.5,-189 810.5,-173 810.5,-173"/>
<polygon fill="black" stroke="black" points="890.5,-173 890.5,-189 890.5,-189 890.5,-173 890.5,-173"/>
<polygon fill="none" stroke="black" stroke-width="2" points="719,-171 719,-653 980,-653 980,-171 719,-171"/>
</a>
</g>
</g>
<!-- m_freight&#45;&gt;c_country -->
<g id="edge3" class="edge">
<title>m_freight:w&#45;&gt;c_country:e</title>
<path fill="none" stroke="black" d="M705.02,-377.14C603.12,-379.07 567.35,-400.27 465,-365 444.66,-357.99 447.02,-337 425.5,-337"/>
<polygon fill="black" stroke="black" points="711.5,-377.08 719.53,-380.6 715.5,-377.04 719.5,-377 719.5,-377 719.5,-377 715.5,-377.04 719.47,-373.4 711.5,-377.08 711.5,-377.08"/>
<ellipse fill="none" stroke="black" cx="708.3" cy="-377.11" rx="3.2" ry="3.2"/>
</g>
<!-- m_freight&#45;&gt;c_country -->
<g id="edge8" class="edge">
<title>m_freight:w&#45;&gt;c_country:e</title>
<path fill="none" stroke="black" d="M705.05,-354.98C603.58,-354.72 572.86,-351.57 465,-342 447.37,-340.44 443.2,-337 425.5,-337"/>
<polygon fill="black" stroke="black" points="711.5,-354.99 719.5,-358.6 715.5,-355 719.5,-355 719.5,-355 719.5,-355 715.5,-355 719.5,-351.4 711.5,-354.99 711.5,-354.99"/>
<ellipse fill="none" stroke="black" cx="708.3" cy="-354.99" rx="3.2" ry="3.2"/>
</g>
<!-- m_freight&#45;&gt;c_currency -->
<g id="edge4" class="edge">
<title>m_freight:w&#45;&gt;c_currency:e</title>
<path fill="none" stroke="black" d="M705.17,-286.99C659.31,-271.54 730.49,-171.07 677,-130 643.23,-104.07 212.28,-143.37 201,-147 181.04,-153.42 181.96,-172 161,-172"/>
<polygon fill="black" stroke="black" points="711.58,-287.89 719,-292.57 715.54,-288.44 719.5,-289 719.5,-289 719.5,-289 715.54,-288.44 720,-285.43 711.58,-287.89 711.58,-287.89"/>
<ellipse fill="none" stroke="black" cx="708.41" cy="-287.45" rx="3.2" ry="3.2"/>
</g>
<!-- m_freight&#45;&gt;c_region -->
<g id="edge5" class="edge">
<title>m_freight:w&#45;&gt;c_region:e</title>
<path fill="none" stroke="black" d="M705.05,-331.22C678.2,-324.08 671.38,-298 637,-298"/>
<polygon fill="black" stroke="black" points="711.56,-332.02 719.06,-336.57 715.53,-332.51 719.5,-333 719.5,-333 719.5,-333 715.53,-332.51 719.94,-329.43 711.56,-332.02 711.56,-332.02"/>
<ellipse fill="none" stroke="black" cx="708.38" cy="-331.63" rx="3.2" ry="3.2"/>
</g>
<!-- m_freight&#45;&gt;c_region -->
<g id="edge9" class="edge">
<title>m_freight:w&#45;&gt;c_region:e</title>
<path fill="none" stroke="black" d="M705.04,-310.26C679.39,-307.51 668.75,-298 637,-298"/>
<polygon fill="black" stroke="black" points="711.51,-310.59 719.32,-314.6 715.51,-310.8 719.5,-311 719.5,-311 719.5,-311 715.51,-310.8 719.68,-307.4 711.51,-310.59 711.51,-310.59"/>
<ellipse fill="none" stroke="black" cx="708.31" cy="-310.43" rx="3.2" ry="3.2"/>
</g>
<!-- m_freightcategory -->
<g id="node5" class="node">
<title>m_freightcategory</title>
<g id="a_node5"><a xlink:href="../../tables/m_freightcategory.html" xlink:title="m_freightcategory" target="_top">
<polygon fill="#ffffff" stroke="transparent" points="481,-406 481,-552 661,-552 661,-406 481,-406"/>
<polygon fill="#f5f5f5" stroke="transparent" points="481,-530 481,-552 661,-552 661,-530 481,-530"/>
<polygon fill="none" stroke="black" points="481,-530 481,-552 661,-552 661,-530 481,-530"/>
<text text-anchor="start" x="486" y="-539.2" font-family="Helvetica,sans-Serif" font-weight="bold" font-size="11.00">m_freightcategory</text>
<text text-anchor="start" x="626" y="-538.2" font-family="Helvetica,sans-Serif" font-size="11.00">[table]</text>
<polygon fill="none" stroke="black" points="481,-508 481,-530 661,-530 661,-508 481,-508"/>
<image xlink:href="../../images/primaryKeys.png" width="11px" height="12px" preserveAspectRatio="xMinYMin meet" x="486" y="-525"/>
<text text-anchor="start" x="501" y="-516.2" font-family="Helvetica,sans-Serif" font-size="11.00">m_freightcategory_id</text>
<polygon fill="#ffffff" stroke="transparent" points="481,-486 481,-508 661,-508 661,-486 481,-486"/>
<polygon fill="none" stroke="black" points="481,-486 481,-508 661,-508 661,-486 481,-486"/>
<text text-anchor="start" x="501" y="-494.2" font-family="Helvetica,sans-Serif" font-size="11.00">ad_client_id</text>
<polygon fill="#ffffff" stroke="transparent" points="481,-464 481,-486 661,-486 661,-464 481,-464"/>
<polygon fill="none" stroke="black" points="481,-464 481,-486 661,-486 661,-464 481,-464"/>
<text text-anchor="start" x="501" y="-472.2" font-family="Helvetica,sans-Serif" font-size="11.00">value</text>
<polygon fill="#ffffff" stroke="transparent" points="481,-442 481,-464 661,-464 661,-442 481,-442"/>
<polygon fill="none" stroke="black" points="481,-442 481,-464 661,-464 661,-442 481,-442"/>
<text text-anchor="start" x="501" y="-450.2" font-family="Helvetica,sans-Serif" font-size="11.00">m_freightcategory_uu</text>
<polygon fill="none" stroke="black" points="481,-424 481,-442 661,-442 661,-424 481,-424"/>
<text text-anchor="start" x="484" y="-430.2" font-family="Helvetica,sans-Serif" font-size="11.00">...</text>
<polygon fill="#ffffff" stroke="transparent" points="481,-406 481,-424 661,-424 661,-406 481,-406"/>
<polygon fill="none" stroke="black" points="481,-406 481,-424 661,-424 661,-406 481,-406"/>
<polygon fill="#ffffff" stroke="transparent" points="482,-407 482,-423 539,-423 539,-407 482,-407"/>
<text text-anchor="start" x="484" y="-412.2" font-family="Helvetica,sans-Serif" font-size="11.00"> &#160;</text>
<polygon fill="#ffffff" stroke="transparent" points="539,-407 539,-423 595,-423 595,-407 539,-407"/>
<text text-anchor="start" x="563.5" y="-412.2" font-family="Helvetica,sans-Serif" font-size="11.00"> &#160;</text>
<polygon fill="#ffffff" stroke="transparent" points="595,-407 595,-423 660,-423 660,-407 595,-407"/>
<text text-anchor="start" x="642" y="-412.2" font-family="Helvetica,sans-Serif" font-size="11.00">3 &gt;</text>
<polygon fill="black" stroke="black" points="539,-407 539,-423 539,-423 539,-407 539,-407"/>
<polygon fill="black" stroke="black" points="595,-407 595,-423 595,-423 595,-407 595,-407"/>
</a>
</g>
</g>
<!-- m_freight&#45;&gt;m_freightcategory -->
<g id="edge6" class="edge">
<title>m_freight:w&#45;&gt;m_freightcategory:e</title>
<path fill="none" stroke="black" d="M705.32,-424.72C677.9,-442.62 706.58,-519 662,-519"/>
<polygon fill="black" stroke="black" points="711.76,-423.03 720.41,-424.48 715.63,-422.02 719.5,-421 719.5,-421 719.5,-421 715.63,-422.02 718.59,-417.52 711.76,-423.03 711.76,-423.03"/>
<ellipse fill="none" stroke="black" cx="708.67" cy="-423.84" rx="3.2" ry="3.2"/>
</g>
<!-- m_shipper -->
<g id="node6" class="node">
<title>m_shipper</title>
<g id="a_node6"><a xlink:href="../../tables/m_shipper.html" xlink:title="m_shipper" target="_top">
<polygon fill="#ffffff" stroke="transparent" points="473,-573 473,-785 669,-785 669,-573 473,-573"/>
<polygon fill="#f5f5f5" stroke="transparent" points="473,-763 473,-785 669,-785 669,-763 473,-763"/>
<polygon fill="none" stroke="black" points="473,-763 473,-785 669,-785 669,-763 473,-763"/>
<text text-anchor="start" x="478" y="-772.2" font-family="Helvetica,sans-Serif" font-weight="bold" font-size="11.00">m_shipper</text>
<text text-anchor="start" x="634" y="-771.2" font-family="Helvetica,sans-Serif" font-size="11.00">[table]</text>
<polygon fill="none" stroke="black" points="473,-741 473,-763 669,-763 669,-741 473,-741"/>
<image xlink:href="../../images/primaryKeys.png" width="11px" height="12px" preserveAspectRatio="xMinYMin meet" x="478" y="-758"/>
<text text-anchor="start" x="493" y="-749.2" font-family="Helvetica,sans-Serif" font-size="11.00">m_shipper_id</text>
<polygon fill="#ffffff" stroke="transparent" points="473,-719 473,-741 669,-741 669,-719 473,-719"/>
<polygon fill="none" stroke="black" points="473,-719 473,-741 669,-741 669,-719 473,-719"/>
<text text-anchor="start" x="493" y="-727.2" font-family="Helvetica,sans-Serif" font-size="11.00">ad_client_id</text>
<polygon fill="none" stroke="black" points="473,-697 473,-719 669,-719 669,-697 473,-697"/>
<image xlink:href="../../images/foreignKeys.png" width="11px" height="12px" preserveAspectRatio="xMinYMin meet" x="478" y="-714"/>
<text text-anchor="start" x="493" y="-705.2" font-family="Helvetica,sans-Serif" font-size="11.00">c_bpartner_id</text>
<polygon fill="#ffffff" stroke="transparent" points="473,-675 473,-697 669,-697 669,-675 473,-675"/>
<polygon fill="none" stroke="black" points="473,-675 473,-697 669,-697 669,-675 473,-675"/>
<text text-anchor="start" x="493" y="-683.2" font-family="Helvetica,sans-Serif" font-size="11.00">m_shipper_uu</text>
<polygon fill="none" stroke="black" points="473,-653 473,-675 669,-675 669,-653 473,-653"/>
<image xlink:href="../../images/foreignKeys.png" width="11px" height="12px" preserveAspectRatio="xMinYMin meet" x="478" y="-670"/>
<text text-anchor="start" x="493" y="-661.2" font-family="Helvetica,sans-Serif" font-size="11.00">m_shippingprocessor_id</text>
<polygon fill="none" stroke="black" points="473,-631 473,-653 669,-653 669,-631 473,-631"/>
<image xlink:href="../../images/foreignKeys.png" width="11px" height="12px" preserveAspectRatio="xMinYMin meet" x="478" y="-648"/>
<text text-anchor="start" x="493" y="-639.2" font-family="Helvetica,sans-Serif" font-size="11.00">m_shippercfg_id</text>
<polygon fill="#ffffff" stroke="transparent" points="473,-609 473,-631 669,-631 669,-609 473,-609"/>
<polygon fill="none" stroke="black" points="473,-609 473,-631 669,-631 669,-609 473,-609"/>
<text text-anchor="start" x="493" y="-617.2" font-family="Helvetica,sans-Serif" font-size="11.00">name</text>
<polygon fill="none" stroke="black" points="473,-591 473,-609 669,-609 669,-591 473,-591"/>
<text text-anchor="start" x="476" y="-597.2" font-family="Helvetica,sans-Serif" font-size="11.00">...</text>
<polygon fill="#ffffff" stroke="transparent" points="473,-573 473,-591 669,-591 669,-573 473,-573"/>
<polygon fill="none" stroke="black" points="473,-573 473,-591 669,-591 669,-573 473,-573"/>
<polygon fill="#ffffff" stroke="transparent" points="474,-574 474,-590 540,-590 540,-574 474,-574"/>
<text text-anchor="start" x="476" y="-579.2" font-family="Helvetica,sans-Serif" font-size="11.00">&lt; 3</text>
<polygon fill="#ffffff" stroke="transparent" points="540,-574 540,-590 597,-590 597,-574 540,-574"/>
<text text-anchor="start" x="565" y="-579.2" font-family="Helvetica,sans-Serif" font-size="11.00"> &#160;</text>
<polygon fill="#ffffff" stroke="transparent" points="597,-574 597,-590 668,-590 668,-574 597,-574"/>
<text text-anchor="start" x="644" y="-579.2" font-family="Helvetica,sans-Serif" font-size="11.00">16 &gt;</text>
<polygon fill="black" stroke="black" points="540,-574 540,-590 540,-590 540,-574 540,-574"/>
<polygon fill="black" stroke="black" points="597,-574 597,-590 597,-590 597,-574 597,-574"/>
</a>
</g>
</g>
<!-- m_freight&#45;&gt;m_shipper -->
<g id="edge7" class="edge">
<title>m_freight:w&#45;&gt;m_shipper:e</title>
<path fill="none" stroke="black" d="M705.96,-448.36C662.98,-489.4 734.11,-752 670,-752"/>
<polygon fill="black" stroke="black" points="712.06,-445.95 720.83,-446.35 715.78,-444.47 719.5,-443 719.5,-443 719.5,-443 715.78,-444.47 718.17,-439.65 712.06,-445.95 712.06,-445.95"/>
<ellipse fill="none" stroke="black" cx="709.09" cy="-447.13" rx="3.2" ry="3.2"/>
</g>
</g>
</svg>
