<?xml version="1.0" encoding="UTF-8" standalone="no"?>
<!DOCTYPE svg PUBLIC "-//W3C//DTD SVG 1.1//EN"
 "http://www.w3.org/Graphics/SVG/1.1/DTD/svg11.dtd">
<!-- Generated by graphviz version 2.43.0 (0)
 -->
<!-- Title: oneDegreeRelationshipsDiagram Pages: 1 -->
<svg width="1026pt" height="834pt"
 viewBox="0.00 0.00 1026.00 834.37" xmlns="http://www.w3.org/2000/svg" xmlns:xlink="http://www.w3.org/1999/xlink">
<g id="graph0" class="graph" transform="scale(1 1) rotate(0) translate(4 830.37)">
<title>oneDegreeRelationshipsDiagram</title>
<polygon fill="#ffffff" stroke="transparent" points="-4,4 -4,-830.37 1022,-830.37 1022,4 -4,4"/>
<text text-anchor="middle" x="71.5" y="-7.2" font-family="Helvetica,sans-Serif" font-size="11.00">Generated by SchemaSpy</text>
<!-- m_package -->
<g id="node1" class="node">
<title>m_package</title>
<g id="a_node1"><a xlink:href="../../tables/m_package.html" xlink:title="m_package" target="_top">
<polygon fill="#ffffff" stroke="transparent" points="198,-256 198,-600 429,-600 429,-256 198,-256"/>
<polygon fill="#f5f5f5" stroke="transparent" points="198.5,-578 198.5,-600 429.5,-600 429.5,-578 198.5,-578"/>
<polygon fill="none" stroke="black" points="198.5,-578 198.5,-600 429.5,-600 429.5,-578 198.5,-578"/>
<text text-anchor="start" x="203.5" y="-587.2" font-family="Helvetica,sans-Serif" font-weight="bold" font-size="11.00">m_package</text>
<text text-anchor="start" x="394.5" y="-586.2" font-family="Helvetica,sans-Serif" font-size="11.00">[table]</text>
<polygon fill="none" stroke="black" points="198.5,-556 198.5,-578 429.5,-578 429.5,-556 198.5,-556"/>
<image xlink:href="../../images/primaryKeys.png" width="11px" height="12px" preserveAspectRatio="xMinYMin meet" x="203.5" y="-573"/>
<text text-anchor="start" x="218.5" y="-564.2" font-family="Helvetica,sans-Serif" font-size="11.00">m_package_id</text>
<polygon fill="none" stroke="black" points="198.5,-534 198.5,-556 429.5,-556 429.5,-534 198.5,-534"/>
<image xlink:href="../../images/foreignKeys.png" width="11px" height="12px" preserveAspectRatio="xMinYMin meet" x="203.5" y="-551"/>
<text text-anchor="start" x="218.5" y="-542.2" font-family="Helvetica,sans-Serif" font-size="11.00">m_inout_id</text>
<polygon fill="none" stroke="black" points="198.5,-512 198.5,-534 429.5,-534 429.5,-512 198.5,-512"/>
<image xlink:href="../../images/foreignKeys.png" width="11px" height="12px" preserveAspectRatio="xMinYMin meet" x="203.5" y="-529"/>
<text text-anchor="start" x="218.5" y="-520.2" font-family="Helvetica,sans-Serif" font-size="11.00">m_shipper_id</text>
<polygon fill="#ffffff" stroke="transparent" points="198.5,-490 198.5,-512 429.5,-512 429.5,-490 198.5,-490"/>
<polygon fill="none" stroke="black" points="198.5,-490 198.5,-512 429.5,-512 429.5,-490 198.5,-490"/>
<text text-anchor="start" x="218.5" y="-498.2" font-family="Helvetica,sans-Serif" font-size="11.00">m_package_uu</text>
<polygon fill="none" stroke="black" points="198.5,-468 198.5,-490 429.5,-490 429.5,-468 198.5,-468"/>
<image xlink:href="../../images/foreignKeys.png" width="11px" height="12px" preserveAspectRatio="xMinYMin meet" x="203.5" y="-485"/>
<text text-anchor="start" x="218.5" y="-476.2" font-family="Helvetica,sans-Serif" font-size="11.00">c_bpartner_location_id</text>
<polygon fill="none" stroke="black" points="198.5,-446 198.5,-468 429.5,-468 429.5,-446 198.5,-446"/>
<image xlink:href="../../images/foreignKeys.png" width="11px" height="12px" preserveAspectRatio="xMinYMin meet" x="203.5" y="-463"/>
<text text-anchor="start" x="218.5" y="-454.2" font-family="Helvetica,sans-Serif" font-size="11.00">c_currency_id</text>
<polygon fill="none" stroke="black" points="198.5,-424 198.5,-446 429.5,-446 429.5,-424 198.5,-424"/>
<image xlink:href="../../images/foreignKeys.png" width="11px" height="12px" preserveAspectRatio="xMinYMin meet" x="203.5" y="-441"/>
<text text-anchor="start" x="218.5" y="-432.2" font-family="Helvetica,sans-Serif" font-size="11.00">c_uom_length_id</text>
<polygon fill="none" stroke="black" points="198.5,-402 198.5,-424 429.5,-424 429.5,-402 198.5,-402"/>
<image xlink:href="../../images/foreignKeys.png" width="11px" height="12px" preserveAspectRatio="xMinYMin meet" x="203.5" y="-419"/>
<text text-anchor="start" x="218.5" y="-410.2" font-family="Helvetica,sans-Serif" font-size="11.00">c_uom_weight_id</text>
<polygon fill="none" stroke="black" points="198.5,-380 198.5,-402 429.5,-402 429.5,-380 198.5,-380"/>
<image xlink:href="../../images/foreignKeys.png" width="11px" height="12px" preserveAspectRatio="xMinYMin meet" x="203.5" y="-397"/>
<text text-anchor="start" x="218.5" y="-388.2" font-family="Helvetica,sans-Serif" font-size="11.00">c_bp_shippingacct_id</text>
<polygon fill="none" stroke="black" points="198.5,-358 198.5,-380 429.5,-380 429.5,-358 198.5,-358"/>
<image xlink:href="../../images/foreignKeys.png" width="11px" height="12px" preserveAspectRatio="xMinYMin meet" x="203.5" y="-375"/>
<text text-anchor="start" x="218.5" y="-366.2" font-family="Helvetica,sans-Serif" font-size="11.00">m_shipperlabels_id</text>
<polygon fill="none" stroke="black" points="198.5,-336 198.5,-358 429.5,-358 429.5,-336 198.5,-336"/>
<image xlink:href="../../images/foreignKeys.png" width="11px" height="12px" preserveAspectRatio="xMinYMin meet" x="203.5" y="-353"/>
<text text-anchor="start" x="218.5" y="-344.2" font-family="Helvetica,sans-Serif" font-size="11.00">m_shipperpackaging_id</text>
<polygon fill="none" stroke="black" points="198.5,-314 198.5,-336 429.5,-336 429.5,-314 198.5,-314"/>
<image xlink:href="../../images/foreignKeys.png" width="11px" height="12px" preserveAspectRatio="xMinYMin meet" x="203.5" y="-331"/>
<text text-anchor="start" x="218.5" y="-322.2" font-family="Helvetica,sans-Serif" font-size="11.00">m_shipperpickuptypes_id</text>
<polygon fill="none" stroke="black" points="198.5,-292 198.5,-314 429.5,-314 429.5,-292 198.5,-292"/>
<image xlink:href="../../images/foreignKeys.png" width="11px" height="12px" preserveAspectRatio="xMinYMin meet" x="203.5" y="-309"/>
<text text-anchor="start" x="218.5" y="-300.2" font-family="Helvetica,sans-Serif" font-size="11.00">holdaddress_id</text>
<polygon fill="none" stroke="black" points="198.5,-274 198.5,-292 429.5,-292 429.5,-274 198.5,-274"/>
<text text-anchor="start" x="201.5" y="-280.2" font-family="Helvetica,sans-Serif" font-size="11.00">...</text>
<polygon fill="#ffffff" stroke="transparent" points="198.5,-256 198.5,-274 429.5,-274 429.5,-256 198.5,-256"/>
<polygon fill="none" stroke="black" points="198.5,-256 198.5,-274 429.5,-274 429.5,-256 198.5,-256"/>
<polygon fill="#ffffff" stroke="transparent" points="199.5,-257 199.5,-273 283.5,-273 283.5,-257 199.5,-257"/>
<text text-anchor="start" x="201.5" y="-262.2" font-family="Helvetica,sans-Serif" font-size="11.00">&lt; 11</text>
<polygon fill="#ffffff" stroke="transparent" points="283.5,-257 283.5,-273 351.5,-273 351.5,-257 283.5,-257"/>
<text text-anchor="start" x="314" y="-262.2" font-family="Helvetica,sans-Serif" font-size="11.00"> &#160;</text>
<polygon fill="#ffffff" stroke="transparent" points="351.5,-257 351.5,-273 428.5,-273 428.5,-257 351.5,-257"/>
<text text-anchor="start" x="410.5" y="-262.2" font-family="Helvetica,sans-Serif" font-size="11.00">3 &gt;</text>
<polygon fill="black" stroke="black" points="283.5,-257 283.5,-273 283.5,-273 283.5,-257 283.5,-257"/>
<polygon fill="black" stroke="black" points="351.5,-257 351.5,-273 351.5,-273 351.5,-257 351.5,-257"/>
</a>
</g>
</g>
<!-- c_uom -->
<g id="node2" class="node">
<title>c_uom</title>
<g id="a_node2"><a xlink:href="../../tables/c_uom.html" xlink:title="c_uom" target="_top">
<polygon fill="#ffffff" stroke="transparent" points="8,-267 8,-457 149,-457 149,-267 8,-267"/>
<polygon fill="#f5f5f5" stroke="transparent" points="8.5,-435 8.5,-457 149.5,-457 149.5,-435 8.5,-435"/>
<polygon fill="none" stroke="black" points="8.5,-435 8.5,-457 149.5,-457 149.5,-435 8.5,-435"/>
<text text-anchor="start" x="13.5" y="-444.2" font-family="Helvetica,sans-Serif" font-weight="bold" font-size="11.00">c_uom</text>
<text text-anchor="start" x="114.5" y="-443.2" font-family="Helvetica,sans-Serif" font-size="11.00">[table]</text>
<polygon fill="none" stroke="black" points="8.5,-413 8.5,-435 149.5,-435 149.5,-413 8.5,-413"/>
<image xlink:href="../../images/primaryKeys.png" width="11px" height="12px" preserveAspectRatio="xMinYMin meet" x="13.5" y="-430"/>
<text text-anchor="start" x="28.5" y="-421.2" font-family="Helvetica,sans-Serif" font-size="11.00">c_uom_id</text>
<polygon fill="#ffffff" stroke="transparent" points="8.5,-391 8.5,-413 149.5,-413 149.5,-391 8.5,-391"/>
<polygon fill="none" stroke="black" points="8.5,-391 8.5,-413 149.5,-413 149.5,-391 8.5,-391"/>
<image xlink:href="../../images/foreignKeys.png" width="11px" height="12px" preserveAspectRatio="xMinYMin meet" x="13.5" y="-408"/>
<text text-anchor="start" x="28.5" y="-399.2" font-family="Helvetica,sans-Serif" font-size="11.00">ad_client_id</text>
<polygon fill="none" stroke="black" points="8.5,-369 8.5,-391 149.5,-391 149.5,-369 8.5,-369"/>
<image xlink:href="../../images/foreignKeys.png" width="11px" height="12px" preserveAspectRatio="xMinYMin meet" x="13.5" y="-386"/>
<text text-anchor="start" x="28.5" y="-377.2" font-family="Helvetica,sans-Serif" font-size="11.00">ad_org_id</text>
<polygon fill="#ffffff" stroke="transparent" points="8.5,-347 8.5,-369 149.5,-369 149.5,-347 8.5,-347"/>
<polygon fill="none" stroke="black" points="8.5,-347 8.5,-369 149.5,-369 149.5,-347 8.5,-347"/>
<text text-anchor="start" x="28.5" y="-355.2" font-family="Helvetica,sans-Serif" font-size="11.00">x12de355</text>
<polygon fill="#ffffff" stroke="transparent" points="8.5,-325 8.5,-347 149.5,-347 149.5,-325 8.5,-325"/>
<polygon fill="none" stroke="black" points="8.5,-325 8.5,-347 149.5,-347 149.5,-325 8.5,-325"/>
<text text-anchor="start" x="28.5" y="-333.2" font-family="Helvetica,sans-Serif" font-size="11.00">name</text>
<polygon fill="#ffffff" stroke="transparent" points="8.5,-303 8.5,-325 149.5,-325 149.5,-303 8.5,-303"/>
<polygon fill="none" stroke="black" points="8.5,-303 8.5,-325 149.5,-325 149.5,-303 8.5,-303"/>
<text text-anchor="start" x="28.5" y="-311.2" font-family="Helvetica,sans-Serif" font-size="11.00">c_uom_uu</text>
<polygon fill="none" stroke="black" points="8.5,-285 8.5,-303 149.5,-303 149.5,-285 8.5,-285"/>
<text text-anchor="start" x="11.5" y="-291.2" font-family="Helvetica,sans-Serif" font-size="11.00">...</text>
<polygon fill="#ffffff" stroke="transparent" points="8.5,-267 8.5,-285 149.5,-285 149.5,-267 8.5,-267"/>
<polygon fill="none" stroke="black" points="8.5,-267 8.5,-285 149.5,-285 149.5,-267 8.5,-267"/>
<polygon fill="#ffffff" stroke="transparent" points="9.5,-268 9.5,-284 46.5,-284 46.5,-268 9.5,-268"/>
<text text-anchor="start" x="11.5" y="-273.2" font-family="Helvetica,sans-Serif" font-size="11.00">&lt; 2</text>
<polygon fill="#ffffff" stroke="transparent" points="46.5,-268 46.5,-284 106.5,-284 106.5,-268 46.5,-268"/>
<text text-anchor="start" x="57" y="-273.2" font-family="Helvetica,sans-Serif" font-size="11.00">72 rows</text>
<polygon fill="#ffffff" stroke="transparent" points="106.5,-268 106.5,-284 148.5,-284 148.5,-268 106.5,-268"/>
<text text-anchor="start" x="124.5" y="-273.2" font-family="Helvetica,sans-Serif" font-size="11.00">55 &gt;</text>
<polygon fill="black" stroke="black" points="46.5,-268 46.5,-284 46.5,-284 46.5,-268 46.5,-268"/>
<polygon fill="black" stroke="black" points="106.5,-268 106.5,-284 106.5,-284 106.5,-268 106.5,-268"/>
</a>
</g>
</g>
<!-- m_package&#45;&gt;c_uom -->
<g id="edge1" class="edge">
<title>m_package:w&#45;&gt;c_uom:e</title>
<path fill="none" stroke="black" d="M183.09,-432.98C172.51,-429.81 166.09,-424 150.5,-424"/>
<polygon fill="black" stroke="black" points="189.58,-433.89 197,-438.57 193.54,-434.45 197.5,-435 197.5,-435 197.5,-435 193.54,-434.45 198,-431.43 189.58,-433.89 189.58,-433.89"/>
<ellipse fill="none" stroke="black" cx="186.41" cy="-433.45" rx="3.2" ry="3.2"/>
</g>
<!-- m_package&#45;&gt;c_uom -->
<g id="edge2" class="edge">
<title>m_package:w&#45;&gt;c_uom:e</title>
<path fill="none" stroke="black" d="M183.09,-415.02C172.51,-418.19 166.09,-424 150.5,-424"/>
<polygon fill="black" stroke="black" points="189.58,-414.11 198,-416.57 193.54,-413.55 197.5,-413 197.5,-413 197.5,-413 193.54,-413.55 197,-409.43 189.58,-414.11 189.58,-414.11"/>
<ellipse fill="none" stroke="black" cx="186.41" cy="-414.55" rx="3.2" ry="3.2"/>
</g>
<!-- m_packageline -->
<g id="node3" class="node">
<title>m_packageline</title>
<g id="a_node3"><a xlink:href="../../tables/m_packageline.html" xlink:title="m_packageline" target="_top">
<polygon fill="#ffffff" stroke="transparent" points="813.5,-539 813.5,-729 967.5,-729 967.5,-539 813.5,-539"/>
<polygon fill="#f5f5f5" stroke="transparent" points="813.5,-707 813.5,-729 967.5,-729 967.5,-707 813.5,-707"/>
<polygon fill="none" stroke="black" points="813.5,-707 813.5,-729 967.5,-729 967.5,-707 813.5,-707"/>
<text text-anchor="start" x="818.5" y="-716.2" font-family="Helvetica,sans-Serif" font-weight="bold" font-size="11.00">m_packageline</text>
<text text-anchor="start" x="932.5" y="-715.2" font-family="Helvetica,sans-Serif" font-size="11.00">[table]</text>
<polygon fill="none" stroke="black" points="813.5,-685 813.5,-707 967.5,-707 967.5,-685 813.5,-685"/>
<image xlink:href="../../images/primaryKeys.png" width="11px" height="12px" preserveAspectRatio="xMinYMin meet" x="818.5" y="-702"/>
<text text-anchor="start" x="833.5" y="-693.2" font-family="Helvetica,sans-Serif" font-size="11.00">m_packageline_id</text>
<polygon fill="none" stroke="black" points="813.5,-663 813.5,-685 967.5,-685 967.5,-663 813.5,-663"/>
<image xlink:href="../../images/foreignKeys.png" width="11px" height="12px" preserveAspectRatio="xMinYMin meet" x="818.5" y="-680"/>
<text text-anchor="start" x="833.5" y="-671.2" font-family="Helvetica,sans-Serif" font-size="11.00">m_package_id</text>
<polygon fill="none" stroke="black" points="813.5,-641 813.5,-663 967.5,-663 967.5,-641 813.5,-641"/>
<image xlink:href="../../images/foreignKeys.png" width="11px" height="12px" preserveAspectRatio="xMinYMin meet" x="818.5" y="-658"/>
<text text-anchor="start" x="833.5" y="-649.2" font-family="Helvetica,sans-Serif" font-size="11.00">m_inoutline_id</text>
<polygon fill="#ffffff" stroke="transparent" points="813.5,-619 813.5,-641 967.5,-641 967.5,-619 813.5,-619"/>
<polygon fill="none" stroke="black" points="813.5,-619 813.5,-641 967.5,-641 967.5,-619 813.5,-619"/>
<text text-anchor="start" x="833.5" y="-627.2" font-family="Helvetica,sans-Serif" font-size="11.00">m_packageline_uu</text>
<polygon fill="none" stroke="black" points="813.5,-597 813.5,-619 967.5,-619 967.5,-597 813.5,-597"/>
<image xlink:href="../../images/foreignKeys.png" width="11px" height="12px" preserveAspectRatio="xMinYMin meet" x="818.5" y="-614"/>
<text text-anchor="start" x="833.5" y="-605.2" font-family="Helvetica,sans-Serif" font-size="11.00">m_product_id</text>
<polygon fill="none" stroke="black" points="813.5,-575 813.5,-597 967.5,-597 967.5,-575 813.5,-575"/>
<image xlink:href="../../images/foreignKeys.png" width="11px" height="12px" preserveAspectRatio="xMinYMin meet" x="818.5" y="-592"/>
<text text-anchor="start" x="833.5" y="-583.2" font-family="Helvetica,sans-Serif" font-size="11.00">m_packagemps_id</text>
<polygon fill="none" stroke="black" points="813.5,-557 813.5,-575 967.5,-575 967.5,-557 813.5,-557"/>
<text text-anchor="start" x="816.5" y="-563.2" font-family="Helvetica,sans-Serif" font-size="11.00">...</text>
<polygon fill="#ffffff" stroke="transparent" points="813.5,-539 813.5,-557 967.5,-557 967.5,-539 813.5,-539"/>
<polygon fill="none" stroke="black" points="813.5,-539 813.5,-557 967.5,-557 967.5,-539 813.5,-539"/>
<polygon fill="#ffffff" stroke="transparent" points="814.5,-540 814.5,-556 871.5,-556 871.5,-540 814.5,-540"/>
<text text-anchor="start" x="816.5" y="-545.2" font-family="Helvetica,sans-Serif" font-size="11.00">&lt; 4</text>
<polygon fill="#ffffff" stroke="transparent" points="871.5,-540 871.5,-556 919.5,-556 919.5,-540 871.5,-540"/>
<text text-anchor="start" x="892" y="-545.2" font-family="Helvetica,sans-Serif" font-size="11.00"> &#160;</text>
<polygon fill="#ffffff" stroke="transparent" points="919.5,-540 919.5,-556 966.5,-556 966.5,-540 919.5,-540"/>
<text text-anchor="start" x="957.5" y="-545.2" font-family="Helvetica,sans-Serif" font-size="11.00"> &#160;</text>
<polygon fill="black" stroke="black" points="871.5,-540 871.5,-556 871.5,-556 871.5,-540 871.5,-540"/>
<polygon fill="black" stroke="black" points="919.5,-540 919.5,-556 919.5,-556 919.5,-540 919.5,-540"/>
</a>
</g>
</g>
<!-- m_packageline&#45;&gt;m_package -->
<g id="edge3" class="edge">
<title>m_packageline:w&#45;&gt;m_package:e</title>
<path fill="none" stroke="black" d="M798.03,-675.98C758.08,-688.36 778.37,-755.49 730,-779 626.07,-829.51 558.88,-852.85 470,-779 396.28,-717.75 526.34,-567 430.5,-567"/>
<polygon fill="black" stroke="black" points="804.57,-675.08 812.99,-677.57 808.54,-674.54 812.5,-674 812.5,-674 812.5,-674 808.54,-674.54 812.01,-670.43 804.57,-675.08 804.57,-675.08"/>
<ellipse fill="none" stroke="black" cx="801.4" cy="-675.51" rx="3.2" ry="3.2"/>
</g>
<!-- m_packagemps -->
<g id="node4" class="node">
<title>m_packagemps</title>
<g id="a_node4"><a xlink:href="../../tables/m_packagemps.html" xlink:title="m_packagemps" target="_top">
<polygon fill="#ffffff" stroke="transparent" points="478,-218 478,-768 722,-768 722,-218 478,-218"/>
<polygon fill="#f5f5f5" stroke="transparent" points="480,-744 480,-766 720,-766 720,-744 480,-744"/>
<polygon fill="none" stroke="black" points="480,-744 480,-766 720,-766 720,-744 480,-744"/>
<text text-anchor="start" x="485" y="-753.2" font-family="Helvetica,sans-Serif" font-weight="bold" font-size="11.00">m_packagemps</text>
<text text-anchor="start" x="685" y="-752.2" font-family="Helvetica,sans-Serif" font-size="11.00">[table]</text>
<polygon fill="none" stroke="black" points="480,-722 480,-744 637,-744 637,-722 480,-722"/>
<text text-anchor="start" x="500" y="-730.2" font-family="Helvetica,sans-Serif" font-size="11.00">ad_client_id</text>
<polygon fill="none" stroke="black" points="637,-722 637,-744 720,-744 720,-722 637,-722"/>
<text text-anchor="start" x="640" y="-730.2" font-family="Helvetica,sans-Serif" font-size="11.00">numeric[10]</text>
<polygon fill="none" stroke="black" points="480,-700 480,-722 637,-722 637,-700 480,-700"/>
<text text-anchor="start" x="500" y="-708.2" font-family="Helvetica,sans-Serif" font-size="11.00">ad_org_id</text>
<polygon fill="none" stroke="black" points="637,-700 637,-722 720,-722 720,-700 637,-700"/>
<text text-anchor="start" x="640" y="-708.2" font-family="Helvetica,sans-Serif" font-size="11.00">numeric[10]</text>
<polygon fill="none" stroke="black" points="480,-678 480,-700 637,-700 637,-678 480,-678"/>
<image xlink:href="../../images/foreignKeys.png" width="11px" height="12px" preserveAspectRatio="xMinYMin meet" x="485" y="-695"/>
<text text-anchor="start" x="500" y="-686.2" font-family="Helvetica,sans-Serif" font-size="11.00">c_uom_length_id</text>
<polygon fill="none" stroke="black" points="637,-678 637,-700 720,-700 720,-678 637,-678"/>
<text text-anchor="start" x="640" y="-686.2" font-family="Helvetica,sans-Serif" font-size="11.00">numeric[10]</text>
<polygon fill="none" stroke="black" points="480,-656 480,-678 637,-678 637,-656 480,-656"/>
<image xlink:href="../../images/foreignKeys.png" width="11px" height="12px" preserveAspectRatio="xMinYMin meet" x="485" y="-673"/>
<text text-anchor="start" x="500" y="-664.2" font-family="Helvetica,sans-Serif" font-size="11.00">c_uom_weight_id</text>
<polygon fill="none" stroke="black" points="637,-656 637,-678 720,-678 720,-656 637,-656"/>
<text text-anchor="start" x="640" y="-664.2" font-family="Helvetica,sans-Serif" font-size="11.00">numeric[10]</text>
<polygon fill="none" stroke="black" points="480,-634 480,-656 637,-656 637,-634 480,-634"/>
<text text-anchor="start" x="500" y="-642.2" font-family="Helvetica,sans-Serif" font-size="11.00">created</text>
<polygon fill="none" stroke="black" points="637,-634 637,-656 720,-656 720,-634 637,-634"/>
<text text-anchor="start" x="640" y="-642.2" font-family="Helvetica,sans-Serif" font-size="11.00">timestamp[29,6]</text>
<polygon fill="none" stroke="black" points="480,-612 480,-634 637,-634 637,-612 480,-612"/>
<text text-anchor="start" x="500" y="-620.2" font-family="Helvetica,sans-Serif" font-size="11.00">createdby</text>
<polygon fill="none" stroke="black" points="637,-612 637,-634 720,-634 720,-612 637,-612"/>
<text text-anchor="start" x="640" y="-620.2" font-family="Helvetica,sans-Serif" font-size="11.00">numeric[10]</text>
<polygon fill="none" stroke="black" points="480,-590 480,-612 637,-612 637,-590 480,-590"/>
<text text-anchor="start" x="500" y="-598.2" font-family="Helvetica,sans-Serif" font-size="11.00">createfrom</text>
<polygon fill="none" stroke="black" points="637,-590 637,-612 720,-612 720,-590 637,-590"/>
<text text-anchor="start" x="640" y="-598.2" font-family="Helvetica,sans-Serif" font-size="11.00">bpchar[1]</text>
<polygon fill="none" stroke="black" points="480,-568 480,-590 637,-590 637,-568 480,-568"/>
<text text-anchor="start" x="500" y="-576.2" font-family="Helvetica,sans-Serif" font-size="11.00">description</text>
<polygon fill="none" stroke="black" points="637,-568 637,-590 720,-590 720,-568 637,-568"/>
<text text-anchor="start" x="640" y="-576.2" font-family="Helvetica,sans-Serif" font-size="11.00">varchar[255]</text>
<polygon fill="none" stroke="black" points="480,-546 480,-568 637,-568 637,-546 480,-546"/>
<text text-anchor="start" x="500" y="-554.2" font-family="Helvetica,sans-Serif" font-size="11.00">height</text>
<polygon fill="none" stroke="black" points="637,-546 637,-568 720,-568 720,-546 637,-546"/>
<text text-anchor="start" x="640" y="-554.2" font-family="Helvetica,sans-Serif" font-size="11.00">numeric[0]</text>
<polygon fill="none" stroke="black" points="480,-524 480,-546 637,-546 637,-524 480,-524"/>
<text text-anchor="start" x="500" y="-532.2" font-family="Helvetica,sans-Serif" font-size="11.00">isactive</text>
<polygon fill="none" stroke="black" points="637,-524 637,-546 720,-546 720,-524 637,-524"/>
<text text-anchor="start" x="640" y="-532.2" font-family="Helvetica,sans-Serif" font-size="11.00">bpchar[1]</text>
<polygon fill="none" stroke="black" points="480,-502 480,-524 637,-524 637,-502 480,-502"/>
<text text-anchor="start" x="500" y="-510.2" font-family="Helvetica,sans-Serif" font-size="11.00">length</text>
<polygon fill="none" stroke="black" points="637,-502 637,-524 720,-524 720,-502 637,-502"/>
<text text-anchor="start" x="640" y="-510.2" font-family="Helvetica,sans-Serif" font-size="11.00">numeric[0]</text>
<polygon fill="none" stroke="black" points="480,-480 480,-502 637,-502 637,-480 480,-480"/>
<image xlink:href="../../images/foreignKeys.png" width="11px" height="12px" preserveAspectRatio="xMinYMin meet" x="485" y="-497"/>
<text text-anchor="start" x="500" y="-488.2" font-family="Helvetica,sans-Serif" font-size="11.00">m_package_id</text>
<polygon fill="none" stroke="black" points="637,-480 637,-502 720,-502 720,-480 637,-480"/>
<text text-anchor="start" x="640" y="-488.2" font-family="Helvetica,sans-Serif" font-size="11.00">numeric[10]</text>
<polygon fill="none" stroke="black" points="480,-458 480,-480 637,-480 637,-458 480,-458"/>
<image xlink:href="../../images/primaryKeys.png" width="11px" height="12px" preserveAspectRatio="xMinYMin meet" x="485" y="-475"/>
<text text-anchor="start" x="500" y="-466.2" font-family="Helvetica,sans-Serif" font-size="11.00">m_packagemps_id</text>
<polygon fill="none" stroke="black" points="637,-458 637,-480 720,-480 720,-458 637,-458"/>
<text text-anchor="start" x="640" y="-466.2" font-family="Helvetica,sans-Serif" font-size="11.00">numeric[10]</text>
<polygon fill="#ffffff" stroke="transparent" points="480,-436 480,-458 637,-458 637,-436 480,-436"/>
<polygon fill="none" stroke="black" points="480,-436 480,-458 637,-458 637,-436 480,-436"/>
<text text-anchor="start" x="500" y="-444.2" font-family="Helvetica,sans-Serif" font-size="11.00">m_packagemps_uu</text>
<polygon fill="none" stroke="black" points="637,-436 637,-458 720,-458 720,-436 637,-436"/>
<text text-anchor="start" x="640" y="-444.2" font-family="Helvetica,sans-Serif" font-size="11.00">varchar[36]</text>
<polygon fill="none" stroke="black" points="480,-414 480,-436 637,-436 637,-414 480,-414"/>
<text text-anchor="start" x="500" y="-422.2" font-family="Helvetica,sans-Serif" font-size="11.00">mastertrackingno</text>
<polygon fill="none" stroke="black" points="637,-414 637,-436 720,-436 720,-414 637,-414"/>
<text text-anchor="start" x="640" y="-422.2" font-family="Helvetica,sans-Serif" font-size="11.00">varchar[255]</text>
<polygon fill="none" stroke="black" points="480,-392 480,-414 637,-414 637,-392 480,-392"/>
<text text-anchor="start" x="500" y="-400.2" font-family="Helvetica,sans-Serif" font-size="11.00">price</text>
<polygon fill="none" stroke="black" points="637,-392 637,-414 720,-414 720,-392 637,-392"/>
<text text-anchor="start" x="640" y="-400.2" font-family="Helvetica,sans-Serif" font-size="11.00">numeric[0]</text>
<polygon fill="none" stroke="black" points="480,-370 480,-392 637,-392 637,-370 480,-370"/>
<text text-anchor="start" x="500" y="-378.2" font-family="Helvetica,sans-Serif" font-size="11.00">processed</text>
<polygon fill="none" stroke="black" points="637,-370 637,-392 720,-392 720,-370 637,-370"/>
<text text-anchor="start" x="640" y="-378.2" font-family="Helvetica,sans-Serif" font-size="11.00">bpchar[1]</text>
<polygon fill="none" stroke="black" points="480,-348 480,-370 637,-370 637,-348 480,-348"/>
<text text-anchor="start" x="500" y="-356.2" font-family="Helvetica,sans-Serif" font-size="11.00">seqno</text>
<polygon fill="none" stroke="black" points="637,-348 637,-370 720,-370 720,-348 637,-348"/>
<text text-anchor="start" x="640" y="-356.2" font-family="Helvetica,sans-Serif" font-size="11.00">numeric[10]</text>
<polygon fill="none" stroke="black" points="480,-326 480,-348 637,-348 637,-326 480,-326"/>
<text text-anchor="start" x="500" y="-334.2" font-family="Helvetica,sans-Serif" font-size="11.00">trackingno</text>
<polygon fill="none" stroke="black" points="637,-326 637,-348 720,-348 720,-326 637,-326"/>
<text text-anchor="start" x="640" y="-334.2" font-family="Helvetica,sans-Serif" font-size="11.00">varchar[255]</text>
<polygon fill="none" stroke="black" points="480,-304 480,-326 637,-326 637,-304 480,-304"/>
<text text-anchor="start" x="500" y="-312.2" font-family="Helvetica,sans-Serif" font-size="11.00">updated</text>
<polygon fill="none" stroke="black" points="637,-304 637,-326 720,-326 720,-304 637,-304"/>
<text text-anchor="start" x="640" y="-312.2" font-family="Helvetica,sans-Serif" font-size="11.00">timestamp[29,6]</text>
<polygon fill="none" stroke="black" points="480,-282 480,-304 637,-304 637,-282 480,-282"/>
<text text-anchor="start" x="500" y="-290.2" font-family="Helvetica,sans-Serif" font-size="11.00">updatedby</text>
<polygon fill="none" stroke="black" points="637,-282 637,-304 720,-304 720,-282 637,-282"/>
<text text-anchor="start" x="640" y="-290.2" font-family="Helvetica,sans-Serif" font-size="11.00">numeric[10]</text>
<polygon fill="none" stroke="black" points="480,-260 480,-282 637,-282 637,-260 480,-260"/>
<text text-anchor="start" x="500" y="-268.2" font-family="Helvetica,sans-Serif" font-size="11.00">weight</text>
<polygon fill="none" stroke="black" points="637,-260 637,-282 720,-282 720,-260 637,-260"/>
<text text-anchor="start" x="640" y="-268.2" font-family="Helvetica,sans-Serif" font-size="11.00">numeric[0]</text>
<polygon fill="none" stroke="black" points="480,-238 480,-260 637,-260 637,-238 480,-238"/>
<text text-anchor="start" x="500" y="-246.2" font-family="Helvetica,sans-Serif" font-size="11.00">width</text>
<polygon fill="none" stroke="black" points="637,-238 637,-260 720,-260 720,-238 637,-238"/>
<text text-anchor="start" x="640" y="-246.2" font-family="Helvetica,sans-Serif" font-size="11.00">numeric[0]</text>
<polygon fill="#ffffff" stroke="transparent" points="480,-220 480,-238 720,-238 720,-220 480,-220"/>
<polygon fill="none" stroke="black" points="480,-220 480,-238 720,-238 720,-220 480,-220"/>
<polygon fill="#ffffff" stroke="transparent" points="481,-221 481,-237 564,-237 564,-221 481,-221"/>
<text text-anchor="start" x="483" y="-226.2" font-family="Helvetica,sans-Serif" font-size="11.00">&lt; 3</text>
<polygon fill="#ffffff" stroke="transparent" points="564,-221 564,-237 637,-237 637,-221 564,-221"/>
<text text-anchor="start" x="597" y="-226.2" font-family="Helvetica,sans-Serif" font-size="11.00"> &#160;</text>
<polygon fill="#ffffff" stroke="transparent" points="637,-221 637,-237 719,-237 719,-221 637,-221"/>
<text text-anchor="start" x="701" y="-226.2" font-family="Helvetica,sans-Serif" font-size="11.00">2 &gt;</text>
<polygon fill="black" stroke="black" points="564,-221 564,-237 564,-237 564,-221 564,-221"/>
<polygon fill="black" stroke="black" points="637,-221 637,-237 637,-237 637,-221 637,-221"/>
<polygon fill="none" stroke="black" stroke-width="2" points="479,-219 479,-767 721,-767 721,-219 479,-219"/>
</a>
</g>
</g>
<!-- m_packageline&#45;&gt;m_packagemps -->
<g id="edge4" class="edge">
<title>m_packageline:w&#45;&gt;m_packagemps:e</title>
<path fill="none" stroke="black" d="M798,-583.66C752.54,-567.17 781.47,-469 721,-469"/>
<polygon fill="black" stroke="black" points="804.6,-584.73 811.93,-589.55 808.55,-585.36 812.5,-586 812.5,-586 812.5,-586 808.55,-585.36 813.07,-582.45 804.6,-584.73 804.6,-584.73"/>
<ellipse fill="none" stroke="black" cx="801.44" cy="-584.22" rx="3.2" ry="3.2"/>
</g>
<!-- m_packagemps&#45;&gt;m_package -->
<g id="edge7" class="edge">
<title>m_packagemps:w&#45;&gt;m_package:e</title>
<path fill="none" stroke="black" d="M465.17,-495.75C446.91,-512.39 464.47,-567 430.5,-567"/>
<polygon fill="black" stroke="black" points="471.43,-493.6 480.17,-494.4 475.22,-492.3 479,-491 479,-491 479,-491 475.22,-492.3 477.83,-487.6 471.43,-493.6 471.43,-493.6"/>
<ellipse fill="none" stroke="black" cx="468.41" cy="-494.64" rx="3.2" ry="3.2"/>
</g>
<!-- m_packagemps&#45;&gt;c_uom -->
<g id="edge5" class="edge">
<title>m_packagemps:w&#45;&gt;c_uom:e</title>
<path fill="none" stroke="black" d="M464.48,-689.22C344.5,-692.86 280.08,-738.95 190,-653 152.64,-617.35 202.14,-424 150.5,-424"/>
<polygon fill="black" stroke="black" points="471,-689.12 479.05,-692.6 475,-689.06 479,-689 479,-689 479,-689 475,-689.06 478.95,-685.4 471,-689.12 471,-689.12"/>
<ellipse fill="none" stroke="black" cx="467.8" cy="-689.17" rx="3.2" ry="3.2"/>
</g>
<!-- m_packagemps&#45;&gt;c_uom -->
<g id="edge6" class="edge">
<title>m_packagemps:w&#45;&gt;c_uom:e</title>
<path fill="none" stroke="black" d="M464.72,-665C455.91,-662.22 450.21,-657.18 437,-654 328.67,-627.92 270.19,-688.37 190,-611 128.87,-552.02 235.45,-424 150.5,-424"/>
<polygon fill="black" stroke="black" points="471.08,-665.89 478.5,-670.57 475.04,-666.45 479,-667 479,-667 479,-667 475.04,-666.45 479.5,-663.43 471.08,-665.89 471.08,-665.89"/>
<ellipse fill="none" stroke="black" cx="467.91" cy="-665.45" rx="3.2" ry="3.2"/>
</g>
<!-- m_shippingtransactionline -->
<g id="node5" class="node">
<title>m_shippingtransactionline</title>
<g id="a_node5"><a xlink:href="../../tables/m_shippingtransactionline.html" xlink:title="m_shippingtransactionline" target="_top">
<polygon fill="#ffffff" stroke="transparent" points="771,-37 771,-227 1010,-227 1010,-37 771,-37"/>
<polygon fill="#f5f5f5" stroke="transparent" points="771.5,-205 771.5,-227 1010.5,-227 1010.5,-205 771.5,-205"/>
<polygon fill="none" stroke="black" points="771.5,-205 771.5,-227 1010.5,-227 1010.5,-205 771.5,-205"/>
<text text-anchor="start" x="776.5" y="-214.2" font-family="Helvetica,sans-Serif" font-weight="bold" font-size="11.00">m_shippingtransactionline</text>
<text text-anchor="start" x="975.5" y="-213.2" font-family="Helvetica,sans-Serif" font-size="11.00">[table]</text>
<polygon fill="none" stroke="black" points="771.5,-183 771.5,-205 1010.5,-205 1010.5,-183 771.5,-183"/>
<image xlink:href="../../images/foreignKeys.png" width="11px" height="12px" preserveAspectRatio="xMinYMin meet" x="776.5" y="-200"/>
<text text-anchor="start" x="791.5" y="-191.2" font-family="Helvetica,sans-Serif" font-size="11.00">c_uom_length_id</text>
<polygon fill="none" stroke="black" points="771.5,-161 771.5,-183 1010.5,-183 1010.5,-161 771.5,-161"/>
<image xlink:href="../../images/foreignKeys.png" width="11px" height="12px" preserveAspectRatio="xMinYMin meet" x="776.5" y="-178"/>
<text text-anchor="start" x="791.5" y="-169.2" font-family="Helvetica,sans-Serif" font-size="11.00">c_uom_weight_id</text>
<polygon fill="none" stroke="black" points="771.5,-139 771.5,-161 1010.5,-161 1010.5,-139 771.5,-139"/>
<image xlink:href="../../images/foreignKeys.png" width="11px" height="12px" preserveAspectRatio="xMinYMin meet" x="776.5" y="-156"/>
<text text-anchor="start" x="791.5" y="-147.2" font-family="Helvetica,sans-Serif" font-size="11.00">m_shippingtransaction_id</text>
<polygon fill="none" stroke="black" points="771.5,-117 771.5,-139 1010.5,-139 1010.5,-117 771.5,-117"/>
<image xlink:href="../../images/primaryKeys.png" width="11px" height="12px" preserveAspectRatio="xMinYMin meet" x="776.5" y="-134"/>
<text text-anchor="start" x="791.5" y="-125.2" font-family="Helvetica,sans-Serif" font-size="11.00">m_shippingtransactionline_id</text>
<polygon fill="#ffffff" stroke="transparent" points="771.5,-95 771.5,-117 1010.5,-117 1010.5,-95 771.5,-95"/>
<polygon fill="none" stroke="black" points="771.5,-95 771.5,-117 1010.5,-117 1010.5,-95 771.5,-95"/>
<text text-anchor="start" x="791.5" y="-103.2" font-family="Helvetica,sans-Serif" font-size="11.00">m_shippingtransactionline_uu</text>
<polygon fill="none" stroke="black" points="771.5,-73 771.5,-95 1010.5,-95 1010.5,-73 771.5,-73"/>
<image xlink:href="../../images/foreignKeys.png" width="11px" height="12px" preserveAspectRatio="xMinYMin meet" x="776.5" y="-90"/>
<text text-anchor="start" x="791.5" y="-81.2" font-family="Helvetica,sans-Serif" font-size="11.00">m_packagemps_id</text>
<polygon fill="none" stroke="black" points="771.5,-55 771.5,-73 1010.5,-73 1010.5,-55 771.5,-55"/>
<text text-anchor="start" x="774.5" y="-61.2" font-family="Helvetica,sans-Serif" font-size="11.00">...</text>
<polygon fill="#ffffff" stroke="transparent" points="771.5,-37 771.5,-55 1010.5,-55 1010.5,-37 771.5,-37"/>
<polygon fill="none" stroke="black" points="771.5,-37 771.5,-55 1010.5,-55 1010.5,-37 771.5,-37"/>
<polygon fill="#ffffff" stroke="transparent" points="772.5,-38 772.5,-54 857.5,-54 857.5,-38 772.5,-38"/>
<text text-anchor="start" x="774.5" y="-43.2" font-family="Helvetica,sans-Serif" font-size="11.00">&lt; 4</text>
<polygon fill="#ffffff" stroke="transparent" points="857.5,-38 857.5,-54 933.5,-54 933.5,-38 857.5,-38"/>
<text text-anchor="start" x="892" y="-43.2" font-family="Helvetica,sans-Serif" font-size="11.00"> &#160;</text>
<polygon fill="#ffffff" stroke="transparent" points="933.5,-38 933.5,-54 1009.5,-54 1009.5,-38 933.5,-38"/>
<text text-anchor="start" x="1000.5" y="-43.2" font-family="Helvetica,sans-Serif" font-size="11.00"> &#160;</text>
<polygon fill="black" stroke="black" points="857.5,-38 857.5,-54 857.5,-54 857.5,-38 857.5,-38"/>
<polygon fill="black" stroke="black" points="933.5,-38 933.5,-54 933.5,-54 933.5,-38 933.5,-38"/>
</a>
</g>
</g>
<!-- m_shippingtransactionline&#45;&gt;c_uom -->
<g id="edge8" class="edge">
<title>m_shippingtransactionline:w&#45;&gt;c_uom:e</title>
<path fill="none" stroke="black" d="M756.02,-193.87C616.3,-191.64 281.97,-161.4 190,-246 130.36,-300.86 231.54,-424 150.5,-424"/>
<polygon fill="black" stroke="black" points="762.5,-193.93 770.47,-197.6 766.5,-193.97 770.5,-194 770.5,-194 770.5,-194 766.5,-193.97 770.53,-190.4 762.5,-193.93 762.5,-193.93"/>
<ellipse fill="none" stroke="black" cx="759.3" cy="-193.9" rx="3.2" ry="3.2"/>
</g>
<!-- m_shippingtransactionline&#45;&gt;c_uom -->
<g id="edge9" class="edge">
<title>m_shippingtransactionline:w&#45;&gt;c_uom:e</title>
<path fill="none" stroke="black" d="M755.9,-171.83C507.55,-166.17 381.2,-19.09 190,-185 149.34,-220.28 204.33,-424 150.5,-424"/>
<polygon fill="black" stroke="black" points="762.5,-171.91 770.46,-175.6 766.5,-171.95 770.5,-172 770.5,-172 770.5,-172 766.5,-171.95 770.54,-168.4 762.5,-171.91 762.5,-171.91"/>
<ellipse fill="none" stroke="black" cx="759.3" cy="-171.87" rx="3.2" ry="3.2"/>
</g>
<!-- m_shippingtransactionline&#45;&gt;m_packagemps -->
<g id="edge10" class="edge">
<title>m_shippingtransactionline:w&#45;&gt;m_packagemps:e</title>
<path fill="none" stroke="black" d="M756.68,-88.32C698.8,-130.62 801.87,-469 721,-469"/>
<polygon fill="black" stroke="black" points="762.86,-86.39 771.57,-87.44 766.68,-85.19 770.5,-84 770.5,-84 770.5,-84 766.68,-85.19 769.43,-80.56 762.86,-86.39 762.86,-86.39"/>
<ellipse fill="none" stroke="black" cx="759.81" cy="-87.34" rx="3.2" ry="3.2"/>
</g>
</g>
</svg>
