<?xml version="1.0" encoding="UTF-8" standalone="no"?>
<!DOCTYPE svg PUBLIC "-//W3C//DTD SVG 1.1//EN"
 "http://www.w3.org/Graphics/SVG/1.1/DTD/svg11.dtd">
<!-- Generated by graphviz version 2.43.0 (0)
 -->
<!-- Title: oneDegreeRelationshipsDiagram Pages: 1 -->
<svg width="837pt" height="956pt"
 viewBox="0.00 0.00 837.00 956.00" xmlns="http://www.w3.org/2000/svg" xmlns:xlink="http://www.w3.org/1999/xlink">
<g id="graph0" class="graph" transform="scale(1 1) rotate(0) translate(4 952)">
<title>oneDegreeRelationshipsDiagram</title>
<polygon fill="#ffffff" stroke="transparent" points="-4,4 -4,-952 833,-952 833,4 -4,4"/>
<text text-anchor="middle" x="71.5" y="-7.2" font-family="Helvetica,sans-Serif" font-size="11.00">Generated by SchemaSpy</text>
<!-- cof_products -->
<g id="node1" class="node">
<title>cof_products</title>
<g id="a_node1"><a xlink:href="../../tables/cof_products.html" xlink:title="cof_products" target="_top">
<polygon fill="#ffffff" stroke="transparent" points="640,-384 640,-596 821,-596 821,-384 640,-384"/>
<polygon fill="#f5f5f5" stroke="transparent" points="640.5,-574 640.5,-596 821.5,-596 821.5,-574 640.5,-574"/>
<polygon fill="none" stroke="black" points="640.5,-574 640.5,-596 821.5,-596 821.5,-574 640.5,-574"/>
<text text-anchor="start" x="645.5" y="-583.2" font-family="Helvetica,sans-Serif" font-weight="bold" font-size="11.00">cof_products</text>
<text text-anchor="start" x="786.5" y="-582.2" font-family="Helvetica,sans-Serif" font-size="11.00">[table]</text>
<polygon fill="none" stroke="black" points="640.5,-552 640.5,-574 821.5,-574 821.5,-552 640.5,-552"/>
<image xlink:href="../../images/primaryKeys.png" width="11px" height="12px" preserveAspectRatio="xMinYMin meet" x="645.5" y="-569"/>
<text text-anchor="start" x="660.5" y="-560.2" font-family="Helvetica,sans-Serif" font-size="11.00">cof_products_id</text>
<polygon fill="#ffffff" stroke="transparent" points="640.5,-530 640.5,-552 821.5,-552 821.5,-530 640.5,-530"/>
<polygon fill="none" stroke="black" points="640.5,-530 640.5,-552 821.5,-552 821.5,-530 640.5,-530"/>
<text text-anchor="start" x="660.5" y="-538.2" font-family="Helvetica,sans-Serif" font-size="11.00">cof_products_uu</text>
<polygon fill="none" stroke="black" points="640.5,-508 640.5,-530 821.5,-530 821.5,-508 640.5,-508"/>
<image xlink:href="../../images/foreignKeys.png" width="11px" height="12px" preserveAspectRatio="xMinYMin meet" x="645.5" y="-525"/>
<text text-anchor="start" x="660.5" y="-516.2" font-family="Helvetica,sans-Serif" font-size="11.00">m_product_id</text>
<polygon fill="none" stroke="black" points="640.5,-486 640.5,-508 821.5,-508 821.5,-486 640.5,-486"/>
<image xlink:href="../../images/foreignKeys.png" width="11px" height="12px" preserveAspectRatio="xMinYMin meet" x="645.5" y="-503"/>
<text text-anchor="start" x="660.5" y="-494.2" font-family="Helvetica,sans-Serif" font-size="11.00">m_productprice_id</text>
<polygon fill="none" stroke="black" points="640.5,-464 640.5,-486 821.5,-486 821.5,-464 640.5,-464"/>
<image xlink:href="../../images/foreignKeys.png" width="11px" height="12px" preserveAspectRatio="xMinYMin meet" x="645.5" y="-481"/>
<text text-anchor="start" x="660.5" y="-472.2" font-family="Helvetica,sans-Serif" font-size="11.00">cof_contract_id</text>
<polygon fill="none" stroke="black" points="640.5,-442 640.5,-464 821.5,-464 821.5,-442 640.5,-442"/>
<image xlink:href="../../images/foreignKeys.png" width="11px" height="12px" preserveAspectRatio="xMinYMin meet" x="645.5" y="-459"/>
<text text-anchor="start" x="660.5" y="-450.2" font-family="Helvetica,sans-Serif" font-size="11.00">m_pricelist_version_id</text>
<polygon fill="none" stroke="black" points="640.5,-420 640.5,-442 821.5,-442 821.5,-420 640.5,-420"/>
<image xlink:href="../../images/foreignKeys.png" width="11px" height="12px" preserveAspectRatio="xMinYMin meet" x="645.5" y="-437"/>
<text text-anchor="start" x="660.5" y="-428.2" font-family="Helvetica,sans-Serif" font-size="11.00">a_asset_id</text>
<polygon fill="none" stroke="black" points="640.5,-402 640.5,-420 821.5,-420 821.5,-402 640.5,-402"/>
<text text-anchor="start" x="643.5" y="-408.2" font-family="Helvetica,sans-Serif" font-size="11.00">...</text>
<polygon fill="#ffffff" stroke="transparent" points="640.5,-384 640.5,-402 821.5,-402 821.5,-384 640.5,-384"/>
<polygon fill="none" stroke="black" points="640.5,-384 640.5,-402 821.5,-402 821.5,-384 640.5,-384"/>
<polygon fill="#ffffff" stroke="transparent" points="641.5,-385 641.5,-401 704.5,-401 704.5,-385 641.5,-385"/>
<text text-anchor="start" x="643.5" y="-390.2" font-family="Helvetica,sans-Serif" font-size="11.00">&lt; 5</text>
<polygon fill="#ffffff" stroke="transparent" points="704.5,-385 704.5,-401 758.5,-401 758.5,-385 704.5,-385"/>
<text text-anchor="start" x="728" y="-390.2" font-family="Helvetica,sans-Serif" font-size="11.00"> &#160;</text>
<polygon fill="#ffffff" stroke="transparent" points="758.5,-385 758.5,-401 820.5,-401 820.5,-385 758.5,-385"/>
<text text-anchor="start" x="802.5" y="-390.2" font-family="Helvetica,sans-Serif" font-size="11.00">2 &gt;</text>
<polygon fill="black" stroke="black" points="704.5,-385 704.5,-401 704.5,-401 704.5,-385 704.5,-385"/>
<polygon fill="black" stroke="black" points="758.5,-385 758.5,-401 758.5,-401 758.5,-385 758.5,-385"/>
</a>
</g>
</g>
<!-- m_pricelist_version -->
<g id="node2" class="node">
<title>m_pricelist_version</title>
<g id="a_node2"><a xlink:href="../../tables/m_pricelist_version.html" xlink:title="m_pricelist_version" target="_top">
<polygon fill="#ffffff" stroke="transparent" points="30,-37 30,-227 252,-227 252,-37 30,-37"/>
<polygon fill="#f5f5f5" stroke="transparent" points="30,-205 30,-227 252,-227 252,-205 30,-205"/>
<polygon fill="none" stroke="black" points="30,-205 30,-227 252,-227 252,-205 30,-205"/>
<text text-anchor="start" x="35" y="-214.2" font-family="Helvetica,sans-Serif" font-weight="bold" font-size="11.00">m_pricelist_version</text>
<text text-anchor="start" x="217" y="-213.2" font-family="Helvetica,sans-Serif" font-size="11.00">[table]</text>
<polygon fill="none" stroke="black" points="30,-183 30,-205 252,-205 252,-183 30,-183"/>
<image xlink:href="../../images/primaryKeys.png" width="11px" height="12px" preserveAspectRatio="xMinYMin meet" x="35" y="-200"/>
<text text-anchor="start" x="50" y="-191.2" font-family="Helvetica,sans-Serif" font-size="11.00">m_pricelist_version_id</text>
<polygon fill="#ffffff" stroke="transparent" points="30,-161 30,-183 252,-183 252,-161 30,-161"/>
<polygon fill="none" stroke="black" points="30,-161 30,-183 252,-183 252,-161 30,-161"/>
<image xlink:href="../../images/foreignKeys.png" width="11px" height="12px" preserveAspectRatio="xMinYMin meet" x="35" y="-178"/>
<text text-anchor="start" x="50" y="-169.2" font-family="Helvetica,sans-Serif" font-size="11.00">m_pricelist_id</text>
<polygon fill="none" stroke="black" points="30,-139 30,-161 252,-161 252,-139 30,-139"/>
<image xlink:href="../../images/foreignKeys.png" width="11px" height="12px" preserveAspectRatio="xMinYMin meet" x="35" y="-156"/>
<text text-anchor="start" x="50" y="-147.2" font-family="Helvetica,sans-Serif" font-size="11.00">m_discountschema_id</text>
<polygon fill="#ffffff" stroke="transparent" points="30,-117 30,-139 252,-139 252,-117 30,-117"/>
<polygon fill="none" stroke="black" points="30,-117 30,-139 252,-139 252,-117 30,-117"/>
<text text-anchor="start" x="50" y="-125.2" font-family="Helvetica,sans-Serif" font-size="11.00">validfrom</text>
<polygon fill="none" stroke="black" points="30,-95 30,-117 252,-117 252,-95 30,-95"/>
<image xlink:href="../../images/foreignKeys.png" width="11px" height="12px" preserveAspectRatio="xMinYMin meet" x="35" y="-112"/>
<text text-anchor="start" x="50" y="-103.2" font-family="Helvetica,sans-Serif" font-size="11.00">m_pricelist_version_base_id</text>
<polygon fill="#ffffff" stroke="transparent" points="30,-73 30,-95 252,-95 252,-73 30,-73"/>
<polygon fill="none" stroke="black" points="30,-73 30,-95 252,-95 252,-73 30,-73"/>
<text text-anchor="start" x="50" y="-81.2" font-family="Helvetica,sans-Serif" font-size="11.00">m_pricelist_version_uu</text>
<polygon fill="none" stroke="black" points="30,-55 30,-73 252,-73 252,-55 30,-55"/>
<text text-anchor="start" x="33" y="-61.2" font-family="Helvetica,sans-Serif" font-size="11.00">...</text>
<polygon fill="#ffffff" stroke="transparent" points="30,-37 30,-55 252,-55 252,-37 30,-37"/>
<polygon fill="none" stroke="black" points="30,-37 30,-55 252,-55 252,-37 30,-37"/>
<polygon fill="#ffffff" stroke="transparent" points="31,-38 31,-54 97,-54 97,-38 31,-38"/>
<text text-anchor="start" x="33" y="-43.2" font-family="Helvetica,sans-Serif" font-size="11.00">&lt; 3</text>
<polygon fill="#ffffff" stroke="transparent" points="97,-38 97,-54 180,-54 180,-38 97,-38"/>
<text text-anchor="start" x="122" y="-43.2" font-family="Helvetica,sans-Serif" font-size="11.00">3 rows</text>
<polygon fill="#ffffff" stroke="transparent" points="180,-38 180,-54 251,-54 251,-38 180,-38"/>
<text text-anchor="start" x="227" y="-43.2" font-family="Helvetica,sans-Serif" font-size="11.00">10 &gt;</text>
<polygon fill="black" stroke="black" points="97,-38 97,-54 97,-54 97,-38 97,-38"/>
<polygon fill="black" stroke="black" points="180,-38 180,-54 180,-54 180,-38 180,-38"/>
</a>
</g>
</g>
<!-- cof_products&#45;&gt;m_pricelist_version -->
<g id="edge1" class="edge">
<title>cof_products:w&#45;&gt;m_pricelist_version:e</title>
<path fill="none" stroke="black" d="M625.39,-448.98C614.76,-441.12 614.26,-423.39 599,-411 458.07,-296.6 434.52,-194 253,-194"/>
<polygon fill="black" stroke="black" points="631.81,-450.81 638.51,-456.46 635.65,-451.9 639.5,-453 639.5,-453 639.5,-453 635.65,-451.9 640.49,-449.54 631.81,-450.81 631.81,-450.81"/>
<ellipse fill="none" stroke="black" cx="628.73" cy="-449.93" rx="3.2" ry="3.2"/>
</g>
<!-- m_product -->
<g id="node3" class="node">
<title>m_product</title>
<g id="a_node3"><a xlink:href="../../tables/m_product.html" xlink:title="m_product" target="_top">
<polygon fill="#ffffff" stroke="transparent" points="8,-248 8,-944 274,-944 274,-248 8,-248"/>
<polygon fill="#f5f5f5" stroke="transparent" points="8,-922 8,-944 274,-944 274,-922 8,-922"/>
<polygon fill="none" stroke="black" points="8,-922 8,-944 274,-944 274,-922 8,-922"/>
<text text-anchor="start" x="13" y="-931.2" font-family="Helvetica,sans-Serif" font-weight="bold" font-size="11.00">m_product</text>
<text text-anchor="start" x="239" y="-930.2" font-family="Helvetica,sans-Serif" font-size="11.00">[table]</text>
<polygon fill="none" stroke="black" points="8,-900 8,-922 274,-922 274,-900 8,-900"/>
<image xlink:href="../../images/primaryKeys.png" width="11px" height="12px" preserveAspectRatio="xMinYMin meet" x="13" y="-917"/>
<text text-anchor="start" x="28" y="-908.2" font-family="Helvetica,sans-Serif" font-size="11.00">m_product_id</text>
<polygon fill="#ffffff" stroke="transparent" points="8,-878 8,-900 274,-900 274,-878 8,-878"/>
<polygon fill="none" stroke="black" points="8,-878 8,-900 274,-900 274,-878 8,-878"/>
<image xlink:href="../../images/foreignKeys.png" width="11px" height="12px" preserveAspectRatio="xMinYMin meet" x="13" y="-895"/>
<text text-anchor="start" x="28" y="-886.2" font-family="Helvetica,sans-Serif" font-size="11.00">ad_client_id</text>
<polygon fill="none" stroke="black" points="8,-856 8,-878 274,-878 274,-856 8,-856"/>
<image xlink:href="../../images/foreignKeys.png" width="11px" height="12px" preserveAspectRatio="xMinYMin meet" x="13" y="-873"/>
<text text-anchor="start" x="28" y="-864.2" font-family="Helvetica,sans-Serif" font-size="11.00">ad_org_id</text>
<polygon fill="#ffffff" stroke="transparent" points="8,-834 8,-856 274,-856 274,-834 8,-834"/>
<polygon fill="none" stroke="black" points="8,-834 8,-856 274,-856 274,-834 8,-834"/>
<text text-anchor="start" x="28" y="-842.2" font-family="Helvetica,sans-Serif" font-size="11.00">value</text>
<polygon fill="#ffffff" stroke="transparent" points="8,-812 8,-834 274,-834 274,-812 8,-812"/>
<polygon fill="none" stroke="black" points="8,-812 8,-834 274,-834 274,-812 8,-812"/>
<text text-anchor="start" x="28" y="-820.2" font-family="Helvetica,sans-Serif" font-size="11.00">name</text>
<polygon fill="#ffffff" stroke="transparent" points="8,-790 8,-812 274,-812 274,-790 8,-790"/>
<polygon fill="none" stroke="black" points="8,-790 8,-812 274,-812 274,-790 8,-790"/>
<text text-anchor="start" x="28" y="-798.2" font-family="Helvetica,sans-Serif" font-size="11.00">upc</text>
<polygon fill="none" stroke="black" points="8,-768 8,-790 274,-790 274,-768 8,-768"/>
<image xlink:href="../../images/foreignKeys.png" width="11px" height="12px" preserveAspectRatio="xMinYMin meet" x="13" y="-785"/>
<text text-anchor="start" x="28" y="-776.2" font-family="Helvetica,sans-Serif" font-size="11.00">c_uom_id</text>
<polygon fill="none" stroke="black" points="8,-746 8,-768 274,-768 274,-746 8,-746"/>
<image xlink:href="../../images/foreignKeys.png" width="11px" height="12px" preserveAspectRatio="xMinYMin meet" x="13" y="-763"/>
<text text-anchor="start" x="28" y="-754.2" font-family="Helvetica,sans-Serif" font-size="11.00">salesrep_id</text>
<polygon fill="none" stroke="black" points="8,-724 8,-746 274,-746 274,-724 8,-724"/>
<image xlink:href="../../images/foreignKeys.png" width="11px" height="12px" preserveAspectRatio="xMinYMin meet" x="13" y="-741"/>
<text text-anchor="start" x="28" y="-732.2" font-family="Helvetica,sans-Serif" font-size="11.00">c_revenuerecognition_id</text>
<polygon fill="#ffffff" stroke="transparent" points="8,-702 8,-724 274,-724 274,-702 8,-702"/>
<polygon fill="none" stroke="black" points="8,-702 8,-724 274,-724 274,-702 8,-702"/>
<image xlink:href="../../images/foreignKeys.png" width="11px" height="12px" preserveAspectRatio="xMinYMin meet" x="13" y="-719"/>
<text text-anchor="start" x="28" y="-710.2" font-family="Helvetica,sans-Serif" font-size="11.00">m_product_category_id</text>
<polygon fill="none" stroke="black" points="8,-680 8,-702 274,-702 274,-680 8,-680"/>
<image xlink:href="../../images/foreignKeys.png" width="11px" height="12px" preserveAspectRatio="xMinYMin meet" x="13" y="-697"/>
<text text-anchor="start" x="28" y="-688.2" font-family="Helvetica,sans-Serif" font-size="11.00">c_taxcategory_id</text>
<polygon fill="#ffffff" stroke="transparent" points="8,-658 8,-680 274,-680 274,-658 8,-658"/>
<polygon fill="none" stroke="black" points="8,-658 8,-680 274,-680 274,-658 8,-658"/>
<image xlink:href="../../images/foreignKeys.png" width="11px" height="12px" preserveAspectRatio="xMinYMin meet" x="13" y="-675"/>
<text text-anchor="start" x="28" y="-666.2" font-family="Helvetica,sans-Serif" font-size="11.00">s_resource_id</text>
<polygon fill="#ffffff" stroke="transparent" points="8,-636 8,-658 274,-658 274,-636 8,-636"/>
<polygon fill="none" stroke="black" points="8,-636 8,-658 274,-658 274,-636 8,-636"/>
<image xlink:href="../../images/foreignKeys.png" width="11px" height="12px" preserveAspectRatio="xMinYMin meet" x="13" y="-653"/>
<text text-anchor="start" x="28" y="-644.2" font-family="Helvetica,sans-Serif" font-size="11.00">s_expensetype_id</text>
<polygon fill="none" stroke="black" points="8,-614 8,-636 274,-636 274,-614 8,-614"/>
<image xlink:href="../../images/foreignKeys.png" width="11px" height="12px" preserveAspectRatio="xMinYMin meet" x="13" y="-631"/>
<text text-anchor="start" x="28" y="-622.2" font-family="Helvetica,sans-Serif" font-size="11.00">r_mailtext_id</text>
<polygon fill="none" stroke="black" points="8,-592 8,-614 274,-614 274,-592 8,-592"/>
<image xlink:href="../../images/foreignKeys.png" width="11px" height="12px" preserveAspectRatio="xMinYMin meet" x="13" y="-609"/>
<text text-anchor="start" x="28" y="-600.2" font-family="Helvetica,sans-Serif" font-size="11.00">m_attributeset_id</text>
<polygon fill="none" stroke="black" points="8,-570 8,-592 274,-592 274,-570 8,-570"/>
<image xlink:href="../../images/foreignKeys.png" width="11px" height="12px" preserveAspectRatio="xMinYMin meet" x="13" y="-587"/>
<text text-anchor="start" x="28" y="-578.2" font-family="Helvetica,sans-Serif" font-size="11.00">m_freightcategory_id</text>
<polygon fill="none" stroke="black" points="8,-548 8,-570 274,-570 274,-548 8,-548"/>
<image xlink:href="../../images/foreignKeys.png" width="11px" height="12px" preserveAspectRatio="xMinYMin meet" x="13" y="-565"/>
<text text-anchor="start" x="28" y="-556.2" font-family="Helvetica,sans-Serif" font-size="11.00">m_locator_id</text>
<polygon fill="none" stroke="black" points="8,-526 8,-548 274,-548 274,-526 8,-526"/>
<image xlink:href="../../images/foreignKeys.png" width="11px" height="12px" preserveAspectRatio="xMinYMin meet" x="13" y="-543"/>
<text text-anchor="start" x="28" y="-534.2" font-family="Helvetica,sans-Serif" font-size="11.00">c_subscriptiontype_id</text>
<polygon fill="#ffffff" stroke="transparent" points="8,-504 8,-526 274,-526 274,-504 8,-504"/>
<polygon fill="none" stroke="black" points="8,-504 8,-526 274,-526 274,-504 8,-504"/>
<text text-anchor="start" x="28" y="-512.2" font-family="Helvetica,sans-Serif" font-size="11.00">m_product_uu</text>
<polygon fill="none" stroke="black" points="8,-482 8,-504 274,-504 274,-482 8,-482"/>
<image xlink:href="../../images/foreignKeys.png" width="11px" height="12px" preserveAspectRatio="xMinYMin meet" x="13" y="-499"/>
<text text-anchor="start" x="28" y="-490.2" font-family="Helvetica,sans-Serif" font-size="11.00">m_parttype_id</text>
<polygon fill="none" stroke="black" points="8,-460 8,-482 274,-482 274,-460 8,-460"/>
<image xlink:href="../../images/foreignKeys.png" width="11px" height="12px" preserveAspectRatio="xMinYMin meet" x="13" y="-477"/>
<text text-anchor="start" x="28" y="-468.2" font-family="Helvetica,sans-Serif" font-size="11.00">cof_cest_id</text>
<polygon fill="none" stroke="black" points="8,-438 8,-460 274,-460 274,-438 8,-438"/>
<image xlink:href="../../images/foreignKeys.png" width="11px" height="12px" preserveAspectRatio="xMinYMin meet" x="13" y="-455"/>
<text text-anchor="start" x="28" y="-446.2" font-family="Helvetica,sans-Serif" font-size="11.00">cof_c_generoitem_sped_id</text>
<polygon fill="none" stroke="black" points="8,-416 8,-438 274,-438 274,-416 8,-416"/>
<image xlink:href="../../images/foreignKeys.png" width="11px" height="12px" preserveAspectRatio="xMinYMin meet" x="13" y="-433"/>
<text text-anchor="start" x="28" y="-424.2" font-family="Helvetica,sans-Serif" font-size="11.00">cof_producttype_id</text>
<polygon fill="none" stroke="black" points="8,-394 8,-416 274,-416 274,-394 8,-394"/>
<image xlink:href="../../images/foreignKeys.png" width="11px" height="12px" preserveAspectRatio="xMinYMin meet" x="13" y="-411"/>
<text text-anchor="start" x="28" y="-402.2" font-family="Helvetica,sans-Serif" font-size="11.00">cof_productclass_id</text>
<polygon fill="none" stroke="black" points="8,-372 8,-394 274,-394 274,-372 8,-372"/>
<image xlink:href="../../images/foreignKeys.png" width="11px" height="12px" preserveAspectRatio="xMinYMin meet" x="13" y="-389"/>
<text text-anchor="start" x="28" y="-380.2" font-family="Helvetica,sans-Serif" font-size="11.00">cof_productgroup_id</text>
<polygon fill="none" stroke="black" points="8,-350 8,-372 274,-372 274,-350 8,-350"/>
<image xlink:href="../../images/foreignKeys.png" width="11px" height="12px" preserveAspectRatio="xMinYMin meet" x="13" y="-367"/>
<text text-anchor="start" x="28" y="-358.2" font-family="Helvetica,sans-Serif" font-size="11.00">cof_nbs_id</text>
<polygon fill="none" stroke="black" points="8,-328 8,-350 274,-350 274,-328 8,-328"/>
<image xlink:href="../../images/foreignKeys.png" width="11px" height="12px" preserveAspectRatio="xMinYMin meet" x="13" y="-345"/>
<text text-anchor="start" x="28" y="-336.2" font-family="Helvetica,sans-Serif" font-size="11.00">cof_grupofornecedor_id</text>
<polygon fill="none" stroke="black" points="8,-306 8,-328 274,-328 274,-306 8,-306"/>
<image xlink:href="../../images/foreignKeys.png" width="11px" height="12px" preserveAspectRatio="xMinYMin meet" x="13" y="-323"/>
<text text-anchor="start" x="28" y="-314.2" font-family="Helvetica,sans-Serif" font-size="11.00">cof_gruposeparacao_id</text>
<polygon fill="none" stroke="black" points="8,-284 8,-306 274,-306 274,-284 8,-284"/>
<image xlink:href="../../images/foreignKeys.png" width="11px" height="12px" preserveAspectRatio="xMinYMin meet" x="13" y="-301"/>
<text text-anchor="start" x="28" y="-292.2" font-family="Helvetica,sans-Serif" font-size="11.00">cof_servicoatrelado_id</text>
<polygon fill="none" stroke="black" points="8,-266 8,-284 274,-284 274,-266 8,-266"/>
<text text-anchor="start" x="11" y="-272.2" font-family="Helvetica,sans-Serif" font-size="11.00">...</text>
<polygon fill="#ffffff" stroke="transparent" points="8,-248 8,-266 274,-266 274,-248 8,-248"/>
<polygon fill="none" stroke="black" points="8,-248 8,-266 274,-266 274,-248 8,-248"/>
<polygon fill="#ffffff" stroke="transparent" points="9,-249 9,-265 93,-265 93,-249 9,-249"/>
<text text-anchor="start" x="11" y="-254.2" font-family="Helvetica,sans-Serif" font-size="11.00">&lt; 24</text>
<polygon fill="#ffffff" stroke="transparent" points="93,-249 93,-265 183,-265 183,-249 93,-249"/>
<text text-anchor="start" x="124" y="-254.2" font-family="Helvetica,sans-Serif" font-size="11.00">1 row</text>
<polygon fill="#ffffff" stroke="transparent" points="183,-249 183,-265 273,-265 273,-249 183,-249"/>
<text text-anchor="start" x="243" y="-254.2" font-family="Helvetica,sans-Serif" font-size="11.00">187 &gt;</text>
<polygon fill="black" stroke="black" points="93,-249 93,-265 93,-265 93,-249 93,-249"/>
<polygon fill="black" stroke="black" points="183,-249 183,-265 183,-265 183,-249 183,-249"/>
</a>
</g>
</g>
<!-- cof_products&#45;&gt;m_product -->
<g id="edge2" class="edge">
<title>cof_products:w&#45;&gt;m_product:e</title>
<path fill="none" stroke="black" d="M625.74,-523.5C581.02,-558.06 641.54,-781.12 599,-829 500.34,-940.04 423.54,-911 275,-911"/>
<polygon fill="black" stroke="black" points="631.9,-521.49 640.62,-522.42 635.7,-520.24 639.5,-519 639.5,-519 639.5,-519 635.7,-520.24 638.38,-515.58 631.9,-521.49 631.9,-521.49"/>
<ellipse fill="none" stroke="black" cx="628.86" cy="-522.48" rx="3.2" ry="3.2"/>
</g>
<!-- m_productprice -->
<g id="node4" class="node">
<title>m_productprice</title>
<g id="a_node4"><a xlink:href="../../tables/m_productprice.html" xlink:title="m_productprice" target="_top">
<polygon fill="#ffffff" stroke="transparent" points="323,-422 323,-818 591,-818 591,-422 323,-422"/>
<polygon fill="#f5f5f5" stroke="transparent" points="325,-794 325,-816 589,-816 589,-794 325,-794"/>
<polygon fill="none" stroke="black" points="325,-794 325,-816 589,-816 589,-794 325,-794"/>
<text text-anchor="start" x="330" y="-803.2" font-family="Helvetica,sans-Serif" font-weight="bold" font-size="11.00">m_productprice</text>
<text text-anchor="start" x="554" y="-802.2" font-family="Helvetica,sans-Serif" font-size="11.00">[table]</text>
<polygon fill="#ffffff" stroke="transparent" points="325,-772 325,-794 506,-794 506,-772 325,-772"/>
<polygon fill="none" stroke="black" points="325,-772 325,-794 506,-794 506,-772 325,-772"/>
<image xlink:href="../../images/foreignKeys.png" width="11px" height="12px" preserveAspectRatio="xMinYMin meet" x="330" y="-789"/>
<text text-anchor="start" x="345" y="-780.2" font-family="Helvetica,sans-Serif" font-size="11.00">m_pricelist_version_id</text>
<polygon fill="none" stroke="black" points="506,-772 506,-794 589,-794 589,-772 506,-772"/>
<text text-anchor="start" x="509" y="-780.2" font-family="Helvetica,sans-Serif" font-size="11.00">numeric[10]</text>
<polygon fill="#ffffff" stroke="transparent" points="325,-750 325,-772 506,-772 506,-750 325,-750"/>
<polygon fill="none" stroke="black" points="325,-750 325,-772 506,-772 506,-750 325,-750"/>
<image xlink:href="../../images/foreignKeys.png" width="11px" height="12px" preserveAspectRatio="xMinYMin meet" x="330" y="-767"/>
<text text-anchor="start" x="345" y="-758.2" font-family="Helvetica,sans-Serif" font-size="11.00">m_product_id</text>
<polygon fill="none" stroke="black" points="506,-750 506,-772 589,-772 589,-750 506,-750"/>
<text text-anchor="start" x="509" y="-758.2" font-family="Helvetica,sans-Serif" font-size="11.00">numeric[10]</text>
<polygon fill="none" stroke="black" points="325,-728 325,-750 506,-750 506,-728 325,-728"/>
<text text-anchor="start" x="345" y="-736.2" font-family="Helvetica,sans-Serif" font-size="11.00">ad_client_id</text>
<polygon fill="none" stroke="black" points="506,-728 506,-750 589,-750 589,-728 506,-728"/>
<text text-anchor="start" x="509" y="-736.2" font-family="Helvetica,sans-Serif" font-size="11.00">numeric[10]</text>
<polygon fill="none" stroke="black" points="325,-706 325,-728 506,-728 506,-706 325,-706"/>
<text text-anchor="start" x="345" y="-714.2" font-family="Helvetica,sans-Serif" font-size="11.00">ad_org_id</text>
<polygon fill="none" stroke="black" points="506,-706 506,-728 589,-728 589,-706 506,-706"/>
<text text-anchor="start" x="509" y="-714.2" font-family="Helvetica,sans-Serif" font-size="11.00">numeric[10]</text>
<polygon fill="none" stroke="black" points="325,-684 325,-706 506,-706 506,-684 325,-684"/>
<text text-anchor="start" x="345" y="-692.2" font-family="Helvetica,sans-Serif" font-size="11.00">isactive</text>
<polygon fill="none" stroke="black" points="506,-684 506,-706 589,-706 589,-684 506,-684"/>
<text text-anchor="start" x="509" y="-692.2" font-family="Helvetica,sans-Serif" font-size="11.00">bpchar[1]</text>
<polygon fill="none" stroke="black" points="325,-662 325,-684 506,-684 506,-662 325,-662"/>
<text text-anchor="start" x="345" y="-670.2" font-family="Helvetica,sans-Serif" font-size="11.00">created</text>
<polygon fill="none" stroke="black" points="506,-662 506,-684 589,-684 589,-662 506,-662"/>
<text text-anchor="start" x="509" y="-670.2" font-family="Helvetica,sans-Serif" font-size="11.00">timestamp[29,6]</text>
<polygon fill="none" stroke="black" points="325,-640 325,-662 506,-662 506,-640 325,-640"/>
<text text-anchor="start" x="345" y="-648.2" font-family="Helvetica,sans-Serif" font-size="11.00">createdby</text>
<polygon fill="none" stroke="black" points="506,-640 506,-662 589,-662 589,-640 506,-640"/>
<text text-anchor="start" x="509" y="-648.2" font-family="Helvetica,sans-Serif" font-size="11.00">numeric[10]</text>
<polygon fill="none" stroke="black" points="325,-618 325,-640 506,-640 506,-618 325,-618"/>
<text text-anchor="start" x="345" y="-626.2" font-family="Helvetica,sans-Serif" font-size="11.00">updated</text>
<polygon fill="none" stroke="black" points="506,-618 506,-640 589,-640 589,-618 506,-618"/>
<text text-anchor="start" x="509" y="-626.2" font-family="Helvetica,sans-Serif" font-size="11.00">timestamp[29,6]</text>
<polygon fill="none" stroke="black" points="325,-596 325,-618 506,-618 506,-596 325,-596"/>
<text text-anchor="start" x="345" y="-604.2" font-family="Helvetica,sans-Serif" font-size="11.00">updatedby</text>
<polygon fill="none" stroke="black" points="506,-596 506,-618 589,-618 589,-596 506,-596"/>
<text text-anchor="start" x="509" y="-604.2" font-family="Helvetica,sans-Serif" font-size="11.00">numeric[10]</text>
<polygon fill="none" stroke="black" points="325,-574 325,-596 506,-596 506,-574 325,-574"/>
<text text-anchor="start" x="345" y="-582.2" font-family="Helvetica,sans-Serif" font-size="11.00">pricelist</text>
<polygon fill="none" stroke="black" points="506,-574 506,-596 589,-596 589,-574 506,-574"/>
<text text-anchor="start" x="509" y="-582.2" font-family="Helvetica,sans-Serif" font-size="11.00">numeric[0]</text>
<polygon fill="none" stroke="black" points="325,-552 325,-574 506,-574 506,-552 325,-552"/>
<text text-anchor="start" x="345" y="-560.2" font-family="Helvetica,sans-Serif" font-size="11.00">pricestd</text>
<polygon fill="none" stroke="black" points="506,-552 506,-574 589,-574 589,-552 506,-552"/>
<text text-anchor="start" x="509" y="-560.2" font-family="Helvetica,sans-Serif" font-size="11.00">numeric[0]</text>
<polygon fill="none" stroke="black" points="325,-530 325,-552 506,-552 506,-530 325,-530"/>
<text text-anchor="start" x="345" y="-538.2" font-family="Helvetica,sans-Serif" font-size="11.00">pricelimit</text>
<polygon fill="none" stroke="black" points="506,-530 506,-552 589,-552 589,-530 506,-530"/>
<text text-anchor="start" x="509" y="-538.2" font-family="Helvetica,sans-Serif" font-size="11.00">numeric[0]</text>
<polygon fill="#ffffff" stroke="transparent" points="325,-508 325,-530 506,-530 506,-508 325,-508"/>
<polygon fill="none" stroke="black" points="325,-508 325,-530 506,-530 506,-508 325,-508"/>
<text text-anchor="start" x="345" y="-516.2" font-family="Helvetica,sans-Serif" font-size="11.00">m_productprice_uu</text>
<polygon fill="none" stroke="black" points="506,-508 506,-530 589,-530 589,-508 506,-508"/>
<text text-anchor="start" x="509" y="-516.2" font-family="Helvetica,sans-Serif" font-size="11.00">varchar[36]</text>
<polygon fill="none" stroke="black" points="325,-486 325,-508 506,-508 506,-486 325,-486"/>
<image xlink:href="../../images/primaryKeys.png" width="11px" height="12px" preserveAspectRatio="xMinYMin meet" x="330" y="-503"/>
<text text-anchor="start" x="345" y="-494.2" font-family="Helvetica,sans-Serif" font-size="11.00">m_productprice_id</text>
<polygon fill="none" stroke="black" points="506,-486 506,-508 589,-508 589,-486 506,-486"/>
<text text-anchor="start" x="509" y="-494.2" font-family="Helvetica,sans-Serif" font-size="11.00">numeric[10]</text>
<polygon fill="none" stroke="black" points="325,-464 325,-486 506,-486 506,-464 325,-464"/>
<text text-anchor="start" x="345" y="-472.2" font-family="Helvetica,sans-Serif" font-size="11.00">cof_factormarkup</text>
<polygon fill="none" stroke="black" points="506,-464 506,-486 589,-486 589,-464 506,-464"/>
<text text-anchor="start" x="509" y="-472.2" font-family="Helvetica,sans-Serif" font-size="11.00">numeric[0]</text>
<polygon fill="none" stroke="black" points="325,-442 325,-464 506,-464 506,-442 325,-442"/>
<text text-anchor="start" x="345" y="-450.2" font-family="Helvetica,sans-Serif" font-size="11.00">cof_replicatechanges</text>
<polygon fill="none" stroke="black" points="506,-442 506,-464 589,-464 589,-442 506,-442"/>
<text text-anchor="start" x="509" y="-450.2" font-family="Helvetica,sans-Serif" font-size="11.00">bpchar[1]</text>
<polygon fill="#ffffff" stroke="transparent" points="325,-424 325,-442 589,-442 589,-424 325,-424"/>
<polygon fill="none" stroke="black" points="325,-424 325,-442 589,-442 589,-424 325,-424"/>
<polygon fill="#ffffff" stroke="transparent" points="326,-425 326,-441 410,-441 410,-425 326,-425"/>
<text text-anchor="start" x="328" y="-430.2" font-family="Helvetica,sans-Serif" font-size="11.00">&lt; 2</text>
<polygon fill="#ffffff" stroke="transparent" points="410,-425 410,-441 505,-441 505,-425 410,-425"/>
<text text-anchor="start" x="443.5" y="-430.2" font-family="Helvetica,sans-Serif" font-size="11.00">1 row</text>
<polygon fill="#ffffff" stroke="transparent" points="505,-425 505,-441 588,-441 588,-425 505,-425"/>
<text text-anchor="start" x="570" y="-430.2" font-family="Helvetica,sans-Serif" font-size="11.00">1 &gt;</text>
<polygon fill="black" stroke="black" points="410,-425 410,-441 410,-441 410,-425 410,-425"/>
<polygon fill="black" stroke="black" points="505,-425 505,-441 505,-441 505,-425 505,-425"/>
<polygon fill="none" stroke="black" stroke-width="2" points="324,-423 324,-817 590,-817 590,-423 324,-423"/>
</a>
</g>
</g>
<!-- cof_products&#45;&gt;m_productprice -->
<g id="edge3" class="edge">
<title>cof_products:w&#45;&gt;m_productprice:e</title>
<path fill="none" stroke="black" d="M624.84,-497C613.41,-497 606.16,-497 590,-497"/>
<polygon fill="black" stroke="black" points="631.5,-497 639.5,-500.6 635.5,-497 639.5,-497 639.5,-497 639.5,-497 635.5,-497 639.5,-493.4 631.5,-497 631.5,-497"/>
<ellipse fill="none" stroke="black" cx="628.3" cy="-497" rx="3.2" ry="3.2"/>
</g>
<!-- m_productprice&#45;&gt;m_pricelist_version -->
<g id="edge4" class="edge">
<title>m_productprice:w&#45;&gt;m_pricelist_version:e</title>
<path fill="none" stroke="black" d="M311.78,-774.92C268.78,-711.22 300.17,-291.08 282,-238 274.41,-215.84 276.42,-194 253,-194"/>
<polygon fill="black" stroke="black" points="317.33,-778.59 322.01,-786 320.66,-780.79 324,-783 324,-783 324,-783 320.66,-780.79 325.99,-780 317.33,-778.59 317.33,-778.59"/>
<ellipse fill="none" stroke="black" cx="314.66" cy="-776.82" rx="3.2" ry="3.2"/>
</g>
<!-- m_productprice&#45;&gt;m_product -->
<g id="edge5" class="edge">
<title>m_productprice:w&#45;&gt;m_product:e</title>
<path fill="none" stroke="black" d="M309.82,-763.86C267.75,-784.6 339.38,-911 275,-911"/>
<polygon fill="black" stroke="black" points="316.16,-762.58 324.71,-764.53 320.08,-761.79 324,-761 324,-761 324,-761 320.08,-761.79 323.29,-757.47 316.16,-762.58 316.16,-762.58"/>
<ellipse fill="none" stroke="black" cx="313.02" cy="-763.22" rx="3.2" ry="3.2"/>
</g>
</g>
</svg>
