<?xml version="1.0" encoding="UTF-8" standalone="no"?>
<!DOCTYPE svg PUBLIC "-//W3C//DTD SVG 1.1//EN"
 "http://www.w3.org/Graphics/SVG/1.1/DTD/svg11.dtd">
<!-- Generated by graphviz version 2.43.0 (0)
 -->
<!-- Title: oneDegreeRelationshipsDiagram Pages: 1 -->
<svg width="1098pt" height="816pt"
 viewBox="0.00 0.00 1098.00 816.00" xmlns="http://www.w3.org/2000/svg" xmlns:xlink="http://www.w3.org/1999/xlink">
<g id="graph0" class="graph" transform="scale(1 1) rotate(0) translate(4 812)">
<title>oneDegreeRelationshipsDiagram</title>
<polygon fill="#ffffff" stroke="transparent" points="-4,4 -4,-812 1094,-812 1094,4 -4,4"/>
<text text-anchor="middle" x="71.5" y="-7.2" font-family="Helvetica,sans-Serif" font-size="11.00">Generated by SchemaSpy</text>
<!-- m_package -->
<g id="node1" class="node">
<title>m_package</title>
<g id="a_node1"><a xlink:href="../../tables/m_package.html" xlink:title="m_package" target="_top">
<polygon fill="#ffffff" stroke="transparent" points="571,-460 571,-804 802,-804 802,-460 571,-460"/>
<polygon fill="#f5f5f5" stroke="transparent" points="571.5,-782 571.5,-804 802.5,-804 802.5,-782 571.5,-782"/>
<polygon fill="none" stroke="black" points="571.5,-782 571.5,-804 802.5,-804 802.5,-782 571.5,-782"/>
<text text-anchor="start" x="576.5" y="-791.2" font-family="Helvetica,sans-Serif" font-weight="bold" font-size="11.00">m_package</text>
<text text-anchor="start" x="767.5" y="-790.2" font-family="Helvetica,sans-Serif" font-size="11.00">[table]</text>
<polygon fill="none" stroke="black" points="571.5,-760 571.5,-782 802.5,-782 802.5,-760 571.5,-760"/>
<image xlink:href="../../images/primaryKeys.png" width="11px" height="12px" preserveAspectRatio="xMinYMin meet" x="576.5" y="-777"/>
<text text-anchor="start" x="591.5" y="-768.2" font-family="Helvetica,sans-Serif" font-size="11.00">m_package_id</text>
<polygon fill="none" stroke="black" points="571.5,-738 571.5,-760 802.5,-760 802.5,-738 571.5,-738"/>
<image xlink:href="../../images/foreignKeys.png" width="11px" height="12px" preserveAspectRatio="xMinYMin meet" x="576.5" y="-755"/>
<text text-anchor="start" x="591.5" y="-746.2" font-family="Helvetica,sans-Serif" font-size="11.00">m_inout_id</text>
<polygon fill="none" stroke="black" points="571.5,-716 571.5,-738 802.5,-738 802.5,-716 571.5,-716"/>
<image xlink:href="../../images/foreignKeys.png" width="11px" height="12px" preserveAspectRatio="xMinYMin meet" x="576.5" y="-733"/>
<text text-anchor="start" x="591.5" y="-724.2" font-family="Helvetica,sans-Serif" font-size="11.00">m_shipper_id</text>
<polygon fill="#ffffff" stroke="transparent" points="571.5,-694 571.5,-716 802.5,-716 802.5,-694 571.5,-694"/>
<polygon fill="none" stroke="black" points="571.5,-694 571.5,-716 802.5,-716 802.5,-694 571.5,-694"/>
<text text-anchor="start" x="591.5" y="-702.2" font-family="Helvetica,sans-Serif" font-size="11.00">m_package_uu</text>
<polygon fill="none" stroke="black" points="571.5,-672 571.5,-694 802.5,-694 802.5,-672 571.5,-672"/>
<image xlink:href="../../images/foreignKeys.png" width="11px" height="12px" preserveAspectRatio="xMinYMin meet" x="576.5" y="-689"/>
<text text-anchor="start" x="591.5" y="-680.2" font-family="Helvetica,sans-Serif" font-size="11.00">c_bpartner_location_id</text>
<polygon fill="none" stroke="black" points="571.5,-650 571.5,-672 802.5,-672 802.5,-650 571.5,-650"/>
<image xlink:href="../../images/foreignKeys.png" width="11px" height="12px" preserveAspectRatio="xMinYMin meet" x="576.5" y="-667"/>
<text text-anchor="start" x="591.5" y="-658.2" font-family="Helvetica,sans-Serif" font-size="11.00">c_currency_id</text>
<polygon fill="none" stroke="black" points="571.5,-628 571.5,-650 802.5,-650 802.5,-628 571.5,-628"/>
<image xlink:href="../../images/foreignKeys.png" width="11px" height="12px" preserveAspectRatio="xMinYMin meet" x="576.5" y="-645"/>
<text text-anchor="start" x="591.5" y="-636.2" font-family="Helvetica,sans-Serif" font-size="11.00">c_uom_length_id</text>
<polygon fill="none" stroke="black" points="571.5,-606 571.5,-628 802.5,-628 802.5,-606 571.5,-606"/>
<image xlink:href="../../images/foreignKeys.png" width="11px" height="12px" preserveAspectRatio="xMinYMin meet" x="576.5" y="-623"/>
<text text-anchor="start" x="591.5" y="-614.2" font-family="Helvetica,sans-Serif" font-size="11.00">c_uom_weight_id</text>
<polygon fill="none" stroke="black" points="571.5,-584 571.5,-606 802.5,-606 802.5,-584 571.5,-584"/>
<image xlink:href="../../images/foreignKeys.png" width="11px" height="12px" preserveAspectRatio="xMinYMin meet" x="576.5" y="-601"/>
<text text-anchor="start" x="591.5" y="-592.2" font-family="Helvetica,sans-Serif" font-size="11.00">c_bp_shippingacct_id</text>
<polygon fill="none" stroke="black" points="571.5,-562 571.5,-584 802.5,-584 802.5,-562 571.5,-562"/>
<image xlink:href="../../images/foreignKeys.png" width="11px" height="12px" preserveAspectRatio="xMinYMin meet" x="576.5" y="-579"/>
<text text-anchor="start" x="591.5" y="-570.2" font-family="Helvetica,sans-Serif" font-size="11.00">m_shipperlabels_id</text>
<polygon fill="none" stroke="black" points="571.5,-540 571.5,-562 802.5,-562 802.5,-540 571.5,-540"/>
<image xlink:href="../../images/foreignKeys.png" width="11px" height="12px" preserveAspectRatio="xMinYMin meet" x="576.5" y="-557"/>
<text text-anchor="start" x="591.5" y="-548.2" font-family="Helvetica,sans-Serif" font-size="11.00">m_shipperpackaging_id</text>
<polygon fill="none" stroke="black" points="571.5,-518 571.5,-540 802.5,-540 802.5,-518 571.5,-518"/>
<image xlink:href="../../images/foreignKeys.png" width="11px" height="12px" preserveAspectRatio="xMinYMin meet" x="576.5" y="-535"/>
<text text-anchor="start" x="591.5" y="-526.2" font-family="Helvetica,sans-Serif" font-size="11.00">m_shipperpickuptypes_id</text>
<polygon fill="none" stroke="black" points="571.5,-496 571.5,-518 802.5,-518 802.5,-496 571.5,-496"/>
<image xlink:href="../../images/foreignKeys.png" width="11px" height="12px" preserveAspectRatio="xMinYMin meet" x="576.5" y="-513"/>
<text text-anchor="start" x="591.5" y="-504.2" font-family="Helvetica,sans-Serif" font-size="11.00">holdaddress_id</text>
<polygon fill="none" stroke="black" points="571.5,-478 571.5,-496 802.5,-496 802.5,-478 571.5,-478"/>
<text text-anchor="start" x="574.5" y="-484.2" font-family="Helvetica,sans-Serif" font-size="11.00">...</text>
<polygon fill="#ffffff" stroke="transparent" points="571.5,-460 571.5,-478 802.5,-478 802.5,-460 571.5,-460"/>
<polygon fill="none" stroke="black" points="571.5,-460 571.5,-478 802.5,-478 802.5,-460 571.5,-460"/>
<polygon fill="#ffffff" stroke="transparent" points="572.5,-461 572.5,-477 656.5,-477 656.5,-461 572.5,-461"/>
<text text-anchor="start" x="574.5" y="-466.2" font-family="Helvetica,sans-Serif" font-size="11.00">&lt; 11</text>
<polygon fill="#ffffff" stroke="transparent" points="656.5,-461 656.5,-477 724.5,-477 724.5,-461 656.5,-461"/>
<text text-anchor="start" x="687" y="-466.2" font-family="Helvetica,sans-Serif" font-size="11.00"> &#160;</text>
<polygon fill="#ffffff" stroke="transparent" points="724.5,-461 724.5,-477 801.5,-477 801.5,-461 724.5,-461"/>
<text text-anchor="start" x="783.5" y="-466.2" font-family="Helvetica,sans-Serif" font-size="11.00">3 &gt;</text>
<polygon fill="black" stroke="black" points="656.5,-461 656.5,-477 656.5,-477 656.5,-461 656.5,-461"/>
<polygon fill="black" stroke="black" points="724.5,-461 724.5,-477 724.5,-477 724.5,-461 724.5,-461"/>
</a>
</g>
</g>
<!-- m_shipper -->
<g id="node2" class="node">
<title>m_shipper</title>
<g id="a_node2"><a xlink:href="../../tables/m_shipper.html" xlink:title="m_shipper" target="_top">
<polygon fill="#ffffff" stroke="transparent" points="8,-257 8,-469 204,-469 204,-257 8,-257"/>
<polygon fill="#f5f5f5" stroke="transparent" points="8,-447 8,-469 204,-469 204,-447 8,-447"/>
<polygon fill="none" stroke="black" points="8,-447 8,-469 204,-469 204,-447 8,-447"/>
<text text-anchor="start" x="13" y="-456.2" font-family="Helvetica,sans-Serif" font-weight="bold" font-size="11.00">m_shipper</text>
<text text-anchor="start" x="169" y="-455.2" font-family="Helvetica,sans-Serif" font-size="11.00">[table]</text>
<polygon fill="none" stroke="black" points="8,-425 8,-447 204,-447 204,-425 8,-425"/>
<image xlink:href="../../images/primaryKeys.png" width="11px" height="12px" preserveAspectRatio="xMinYMin meet" x="13" y="-442"/>
<text text-anchor="start" x="28" y="-433.2" font-family="Helvetica,sans-Serif" font-size="11.00">m_shipper_id</text>
<polygon fill="#ffffff" stroke="transparent" points="8,-403 8,-425 204,-425 204,-403 8,-403"/>
<polygon fill="none" stroke="black" points="8,-403 8,-425 204,-425 204,-403 8,-403"/>
<text text-anchor="start" x="28" y="-411.2" font-family="Helvetica,sans-Serif" font-size="11.00">ad_client_id</text>
<polygon fill="none" stroke="black" points="8,-381 8,-403 204,-403 204,-381 8,-381"/>
<image xlink:href="../../images/foreignKeys.png" width="11px" height="12px" preserveAspectRatio="xMinYMin meet" x="13" y="-398"/>
<text text-anchor="start" x="28" y="-389.2" font-family="Helvetica,sans-Serif" font-size="11.00">c_bpartner_id</text>
<polygon fill="#ffffff" stroke="transparent" points="8,-359 8,-381 204,-381 204,-359 8,-359"/>
<polygon fill="none" stroke="black" points="8,-359 8,-381 204,-381 204,-359 8,-359"/>
<text text-anchor="start" x="28" y="-367.2" font-family="Helvetica,sans-Serif" font-size="11.00">m_shipper_uu</text>
<polygon fill="none" stroke="black" points="8,-337 8,-359 204,-359 204,-337 8,-337"/>
<image xlink:href="../../images/foreignKeys.png" width="11px" height="12px" preserveAspectRatio="xMinYMin meet" x="13" y="-354"/>
<text text-anchor="start" x="28" y="-345.2" font-family="Helvetica,sans-Serif" font-size="11.00">m_shippingprocessor_id</text>
<polygon fill="none" stroke="black" points="8,-315 8,-337 204,-337 204,-315 8,-315"/>
<image xlink:href="../../images/foreignKeys.png" width="11px" height="12px" preserveAspectRatio="xMinYMin meet" x="13" y="-332"/>
<text text-anchor="start" x="28" y="-323.2" font-family="Helvetica,sans-Serif" font-size="11.00">m_shippercfg_id</text>
<polygon fill="#ffffff" stroke="transparent" points="8,-293 8,-315 204,-315 204,-293 8,-293"/>
<polygon fill="none" stroke="black" points="8,-293 8,-315 204,-315 204,-293 8,-293"/>
<text text-anchor="start" x="28" y="-301.2" font-family="Helvetica,sans-Serif" font-size="11.00">name</text>
<polygon fill="none" stroke="black" points="8,-275 8,-293 204,-293 204,-275 8,-275"/>
<text text-anchor="start" x="11" y="-281.2" font-family="Helvetica,sans-Serif" font-size="11.00">...</text>
<polygon fill="#ffffff" stroke="transparent" points="8,-257 8,-275 204,-275 204,-257 8,-257"/>
<polygon fill="none" stroke="black" points="8,-257 8,-275 204,-275 204,-257 8,-257"/>
<polygon fill="#ffffff" stroke="transparent" points="9,-258 9,-274 75,-274 75,-258 9,-258"/>
<text text-anchor="start" x="11" y="-263.2" font-family="Helvetica,sans-Serif" font-size="11.00">&lt; 3</text>
<polygon fill="#ffffff" stroke="transparent" points="75,-258 75,-274 132,-274 132,-258 75,-258"/>
<text text-anchor="start" x="100" y="-263.2" font-family="Helvetica,sans-Serif" font-size="11.00"> &#160;</text>
<polygon fill="#ffffff" stroke="transparent" points="132,-258 132,-274 203,-274 203,-258 132,-258"/>
<text text-anchor="start" x="179" y="-263.2" font-family="Helvetica,sans-Serif" font-size="11.00">16 &gt;</text>
<polygon fill="black" stroke="black" points="75,-258 75,-274 75,-274 75,-258 75,-258"/>
<polygon fill="black" stroke="black" points="132,-258 132,-274 132,-274 132,-258 132,-258"/>
</a>
</g>
</g>
<!-- m_package&#45;&gt;m_shipper -->
<g id="edge1" class="edge">
<title>m_package:w&#45;&gt;m_shipper:e</title>
<path fill="none" stroke="black" d="M556.19,-725.29C452.61,-701.44 304.16,-436 205,-436"/>
<polygon fill="black" stroke="black" points="562.56,-726.05 570.07,-730.57 566.53,-726.53 570.5,-727 570.5,-727 570.5,-727 566.53,-726.53 570.93,-723.43 562.56,-726.05 562.56,-726.05"/>
<ellipse fill="none" stroke="black" cx="559.38" cy="-725.67" rx="3.2" ry="3.2"/>
</g>
<!-- m_shipperlabels -->
<g id="node3" class="node">
<title>m_shipperlabels</title>
<g id="a_node3"><a xlink:href="../../tables/m_shipperlabels.html" xlink:title="m_shipperlabels" target="_top">
<polygon fill="#ffffff" stroke="transparent" points="253,-60 253,-412 522,-412 522,-60 253,-60"/>
<polygon fill="#f5f5f5" stroke="transparent" points="255.5,-388 255.5,-410 520.5,-410 520.5,-388 255.5,-388"/>
<polygon fill="none" stroke="black" points="255.5,-388 255.5,-410 520.5,-410 520.5,-388 255.5,-388"/>
<text text-anchor="start" x="260.5" y="-397.2" font-family="Helvetica,sans-Serif" font-weight="bold" font-size="11.00">m_shipperlabels</text>
<text text-anchor="start" x="485.5" y="-396.2" font-family="Helvetica,sans-Serif" font-size="11.00">[table]</text>
<polygon fill="none" stroke="black" points="255.5,-366 255.5,-388 437.5,-388 437.5,-366 255.5,-366"/>
<text text-anchor="start" x="275.5" y="-374.2" font-family="Helvetica,sans-Serif" font-size="11.00">ad_client_id</text>
<polygon fill="none" stroke="black" points="437.5,-366 437.5,-388 520.5,-388 520.5,-366 437.5,-366"/>
<text text-anchor="start" x="440.5" y="-374.2" font-family="Helvetica,sans-Serif" font-size="11.00">numeric[10]</text>
<polygon fill="none" stroke="black" points="255.5,-344 255.5,-366 437.5,-366 437.5,-344 255.5,-344"/>
<text text-anchor="start" x="275.5" y="-352.2" font-family="Helvetica,sans-Serif" font-size="11.00">ad_org_id</text>
<polygon fill="none" stroke="black" points="437.5,-344 437.5,-366 520.5,-366 520.5,-344 437.5,-344"/>
<text text-anchor="start" x="440.5" y="-352.2" font-family="Helvetica,sans-Serif" font-size="11.00">numeric[10]</text>
<polygon fill="none" stroke="black" points="255.5,-322 255.5,-344 437.5,-344 437.5,-322 255.5,-322"/>
<text text-anchor="start" x="275.5" y="-330.2" font-family="Helvetica,sans-Serif" font-size="11.00">created</text>
<polygon fill="none" stroke="black" points="437.5,-322 437.5,-344 520.5,-344 520.5,-322 437.5,-322"/>
<text text-anchor="start" x="440.5" y="-330.2" font-family="Helvetica,sans-Serif" font-size="11.00">timestamp[29,6]</text>
<polygon fill="none" stroke="black" points="255.5,-300 255.5,-322 437.5,-322 437.5,-300 255.5,-300"/>
<text text-anchor="start" x="275.5" y="-308.2" font-family="Helvetica,sans-Serif" font-size="11.00">createdby</text>
<polygon fill="none" stroke="black" points="437.5,-300 437.5,-322 520.5,-322 520.5,-300 437.5,-300"/>
<text text-anchor="start" x="440.5" y="-308.2" font-family="Helvetica,sans-Serif" font-size="11.00">numeric[10]</text>
<polygon fill="none" stroke="black" points="255.5,-278 255.5,-300 437.5,-300 437.5,-278 255.5,-278"/>
<text text-anchor="start" x="275.5" y="-286.2" font-family="Helvetica,sans-Serif" font-size="11.00">isactive</text>
<polygon fill="none" stroke="black" points="437.5,-278 437.5,-300 520.5,-300 520.5,-278 437.5,-278"/>
<text text-anchor="start" x="440.5" y="-286.2" font-family="Helvetica,sans-Serif" font-size="11.00">bpchar[1]</text>
<polygon fill="none" stroke="black" points="255.5,-256 255.5,-278 437.5,-278 437.5,-256 255.5,-256"/>
<text text-anchor="start" x="275.5" y="-264.2" font-family="Helvetica,sans-Serif" font-size="11.00">isdefault</text>
<polygon fill="none" stroke="black" points="437.5,-256 437.5,-278 520.5,-278 520.5,-256 437.5,-256"/>
<text text-anchor="start" x="440.5" y="-264.2" font-family="Helvetica,sans-Serif" font-size="11.00">bpchar[1]</text>
<polygon fill="none" stroke="black" points="255.5,-234 255.5,-256 437.5,-256 437.5,-234 255.5,-234"/>
<text text-anchor="start" x="275.5" y="-242.2" font-family="Helvetica,sans-Serif" font-size="11.00">labelprintmethod</text>
<polygon fill="none" stroke="black" points="437.5,-234 437.5,-256 520.5,-256 520.5,-234 437.5,-234"/>
<text text-anchor="start" x="440.5" y="-242.2" font-family="Helvetica,sans-Serif" font-size="11.00">bpchar[1]</text>
<polygon fill="#ffffff" stroke="transparent" points="255.5,-212 255.5,-234 437.5,-234 437.5,-212 255.5,-212"/>
<polygon fill="none" stroke="black" points="255.5,-212 255.5,-234 437.5,-234 437.5,-212 255.5,-212"/>
<image xlink:href="../../images/foreignKeys.png" width="11px" height="12px" preserveAspectRatio="xMinYMin meet" x="260.5" y="-229"/>
<text text-anchor="start" x="275.5" y="-220.2" font-family="Helvetica,sans-Serif" font-size="11.00">m_shipper_id</text>
<polygon fill="none" stroke="black" points="437.5,-212 437.5,-234 520.5,-234 520.5,-212 437.5,-212"/>
<text text-anchor="start" x="440.5" y="-220.2" font-family="Helvetica,sans-Serif" font-size="11.00">numeric[10]</text>
<polygon fill="none" stroke="black" points="255.5,-190 255.5,-212 437.5,-212 437.5,-190 255.5,-190"/>
<image xlink:href="../../images/primaryKeys.png" width="11px" height="12px" preserveAspectRatio="xMinYMin meet" x="260.5" y="-207"/>
<text text-anchor="start" x="275.5" y="-198.2" font-family="Helvetica,sans-Serif" font-size="11.00">m_shipperlabels_id</text>
<polygon fill="none" stroke="black" points="437.5,-190 437.5,-212 520.5,-212 520.5,-190 437.5,-190"/>
<text text-anchor="start" x="440.5" y="-198.2" font-family="Helvetica,sans-Serif" font-size="11.00">numeric[10]</text>
<polygon fill="#ffffff" stroke="transparent" points="255.5,-168 255.5,-190 437.5,-190 437.5,-168 255.5,-168"/>
<polygon fill="none" stroke="black" points="255.5,-168 255.5,-190 437.5,-190 437.5,-168 255.5,-168"/>
<text text-anchor="start" x="275.5" y="-176.2" font-family="Helvetica,sans-Serif" font-size="11.00">m_shipperlabels_uu</text>
<polygon fill="none" stroke="black" points="437.5,-168 437.5,-190 520.5,-190 520.5,-168 437.5,-168"/>
<text text-anchor="start" x="440.5" y="-176.2" font-family="Helvetica,sans-Serif" font-size="11.00">varchar[36]</text>
<polygon fill="none" stroke="black" points="255.5,-146 255.5,-168 437.5,-168 437.5,-146 255.5,-146"/>
<text text-anchor="start" x="275.5" y="-154.2" font-family="Helvetica,sans-Serif" font-size="11.00">updated</text>
<polygon fill="none" stroke="black" points="437.5,-146 437.5,-168 520.5,-168 520.5,-146 437.5,-146"/>
<text text-anchor="start" x="440.5" y="-154.2" font-family="Helvetica,sans-Serif" font-size="11.00">timestamp[29,6]</text>
<polygon fill="none" stroke="black" points="255.5,-124 255.5,-146 437.5,-146 437.5,-124 255.5,-124"/>
<text text-anchor="start" x="275.5" y="-132.2" font-family="Helvetica,sans-Serif" font-size="11.00">updatedby</text>
<polygon fill="none" stroke="black" points="437.5,-124 437.5,-146 520.5,-146 520.5,-124 437.5,-124"/>
<text text-anchor="start" x="440.5" y="-132.2" font-family="Helvetica,sans-Serif" font-size="11.00">numeric[10]</text>
<polygon fill="#ffffff" stroke="transparent" points="255.5,-102 255.5,-124 437.5,-124 437.5,-102 255.5,-102"/>
<polygon fill="none" stroke="black" points="255.5,-102 255.5,-124 437.5,-124 437.5,-102 255.5,-102"/>
<image xlink:href="../../images/foreignKeys.png" width="11px" height="12px" preserveAspectRatio="xMinYMin meet" x="260.5" y="-119"/>
<text text-anchor="start" x="275.5" y="-110.2" font-family="Helvetica,sans-Serif" font-size="11.00">m_shipperlabelscfg_id</text>
<polygon fill="none" stroke="black" points="437.5,-102 437.5,-124 520.5,-124 520.5,-102 437.5,-102"/>
<text text-anchor="start" x="440.5" y="-110.2" font-family="Helvetica,sans-Serif" font-size="11.00">numeric[10]</text>
<polygon fill="none" stroke="black" points="255.5,-80 255.5,-102 437.5,-102 437.5,-80 255.5,-80"/>
<text text-anchor="start" x="275.5" y="-88.2" font-family="Helvetica,sans-Serif" font-size="11.00">name</text>
<polygon fill="none" stroke="black" points="437.5,-80 437.5,-102 520.5,-102 520.5,-80 437.5,-80"/>
<text text-anchor="start" x="440.5" y="-88.2" font-family="Helvetica,sans-Serif" font-size="11.00">varchar[60]</text>
<polygon fill="#ffffff" stroke="transparent" points="255.5,-62 255.5,-80 520.5,-80 520.5,-62 255.5,-62"/>
<polygon fill="none" stroke="black" points="255.5,-62 255.5,-80 520.5,-80 520.5,-62 255.5,-62"/>
<polygon fill="#ffffff" stroke="transparent" points="256.5,-63 256.5,-79 347.5,-79 347.5,-63 256.5,-63"/>
<text text-anchor="start" x="258.5" y="-68.2" font-family="Helvetica,sans-Serif" font-size="11.00">&lt; 2</text>
<polygon fill="#ffffff" stroke="transparent" points="347.5,-63 347.5,-79 429.5,-79 429.5,-63 347.5,-63"/>
<text text-anchor="start" x="385" y="-68.2" font-family="Helvetica,sans-Serif" font-size="11.00"> &#160;</text>
<polygon fill="#ffffff" stroke="transparent" points="429.5,-63 429.5,-79 519.5,-79 519.5,-63 429.5,-63"/>
<text text-anchor="start" x="501.5" y="-68.2" font-family="Helvetica,sans-Serif" font-size="11.00">2 &gt;</text>
<polygon fill="black" stroke="black" points="347.5,-63 347.5,-79 347.5,-79 347.5,-63 347.5,-63"/>
<polygon fill="black" stroke="black" points="429.5,-63 429.5,-79 429.5,-79 429.5,-63 429.5,-63"/>
<polygon fill="none" stroke="black" stroke-width="2" points="254,-61 254,-411 521,-411 521,-61 254,-61"/>
</a>
</g>
</g>
<!-- m_package&#45;&gt;m_shipperlabels -->
<g id="edge2" class="edge">
<title>m_package:w&#45;&gt;m_shipperlabels:e</title>
<path fill="none" stroke="black" d="M556.78,-568.56C501.46,-526.59 599.51,-201 521.5,-201"/>
<polygon fill="black" stroke="black" points="562.89,-570.54 569.39,-576.43 566.69,-571.77 570.5,-573 570.5,-573 570.5,-573 566.69,-571.77 571.61,-569.57 562.89,-570.54 562.89,-570.54"/>
<ellipse fill="none" stroke="black" cx="559.84" cy="-569.55" rx="3.2" ry="3.2"/>
</g>
<!-- m_shipperlabels&#45;&gt;m_shipper -->
<g id="edge3" class="edge">
<title>m_shipperlabels:w&#45;&gt;m_shipper:e</title>
<path fill="none" stroke="black" d="M240.23,-224.97C172.95,-246.45 296.68,-436 205,-436"/>
<polygon fill="black" stroke="black" points="246.58,-224.1 254.99,-226.57 250.54,-223.55 254.5,-223 254.5,-223 254.5,-223 250.54,-223.55 254.01,-219.43 246.58,-224.1 246.58,-224.1"/>
<ellipse fill="none" stroke="black" cx="243.41" cy="-224.53" rx="3.2" ry="3.2"/>
</g>
<!-- m_shipperlabelscfg -->
<g id="node4" class="node">
<title>m_shipperlabelscfg</title>
<g id="a_node4"><a xlink:href="../../tables/m_shipperlabelscfg.html" xlink:title="m_shipperlabelscfg" target="_top">
<polygon fill="#ffffff" stroke="transparent" points="12.5,-44 12.5,-190 199.5,-190 199.5,-44 12.5,-44"/>
<polygon fill="#f5f5f5" stroke="transparent" points="13,-168 13,-190 200,-190 200,-168 13,-168"/>
<polygon fill="none" stroke="black" points="13,-168 13,-190 200,-190 200,-168 13,-168"/>
<text text-anchor="start" x="18" y="-177.2" font-family="Helvetica,sans-Serif" font-weight="bold" font-size="11.00">m_shipperlabelscfg</text>
<text text-anchor="start" x="165" y="-176.2" font-family="Helvetica,sans-Serif" font-size="11.00">[table]</text>
<polygon fill="#ffffff" stroke="transparent" points="13,-146 13,-168 200,-168 200,-146 13,-146"/>
<polygon fill="none" stroke="black" points="13,-146 13,-168 200,-168 200,-146 13,-146"/>
<text text-anchor="start" x="33" y="-154.2" font-family="Helvetica,sans-Serif" font-size="11.00">value</text>
<polygon fill="#ffffff" stroke="transparent" points="13,-124 13,-146 200,-146 200,-124 13,-124"/>
<polygon fill="none" stroke="black" points="13,-124 13,-146 200,-146 200,-124 13,-124"/>
<image xlink:href="../../images/foreignKeys.png" width="11px" height="12px" preserveAspectRatio="xMinYMin meet" x="18" y="-141"/>
<text text-anchor="start" x="33" y="-132.2" font-family="Helvetica,sans-Serif" font-size="11.00">m_shippercfg_id</text>
<polygon fill="none" stroke="black" points="13,-102 13,-124 200,-124 200,-102 13,-102"/>
<image xlink:href="../../images/primaryKeys.png" width="11px" height="12px" preserveAspectRatio="xMinYMin meet" x="18" y="-119"/>
<text text-anchor="start" x="33" y="-110.2" font-family="Helvetica,sans-Serif" font-size="11.00">m_shipperlabelscfg_id</text>
<polygon fill="#ffffff" stroke="transparent" points="13,-80 13,-102 200,-102 200,-80 13,-80"/>
<polygon fill="none" stroke="black" points="13,-80 13,-102 200,-102 200,-80 13,-80"/>
<text text-anchor="start" x="33" y="-88.2" font-family="Helvetica,sans-Serif" font-size="11.00">m_shipperlabelscfg_uu</text>
<polygon fill="none" stroke="black" points="13,-62 13,-80 200,-80 200,-62 13,-62"/>
<text text-anchor="start" x="16" y="-68.2" font-family="Helvetica,sans-Serif" font-size="11.00">...</text>
<polygon fill="#ffffff" stroke="transparent" points="13,-44 13,-62 200,-62 200,-44 13,-44"/>
<polygon fill="none" stroke="black" points="13,-44 13,-62 200,-62 200,-44 13,-44"/>
<polygon fill="#ffffff" stroke="transparent" points="14,-45 14,-61 79,-61 79,-45 14,-45"/>
<text text-anchor="start" x="16" y="-50.2" font-family="Helvetica,sans-Serif" font-size="11.00">&lt; 1</text>
<polygon fill="#ffffff" stroke="transparent" points="79,-45 79,-61 135,-61 135,-45 79,-45"/>
<text text-anchor="start" x="103.5" y="-50.2" font-family="Helvetica,sans-Serif" font-size="11.00"> &#160;</text>
<polygon fill="#ffffff" stroke="transparent" points="135,-45 135,-61 199,-61 199,-45 135,-45"/>
<text text-anchor="start" x="181" y="-50.2" font-family="Helvetica,sans-Serif" font-size="11.00">1 &gt;</text>
<polygon fill="black" stroke="black" points="79,-45 79,-61 79,-61 79,-45 79,-45"/>
<polygon fill="black" stroke="black" points="135,-45 135,-61 135,-61 135,-45 135,-45"/>
</a>
</g>
</g>
<!-- m_shipperlabels&#45;&gt;m_shipperlabelscfg -->
<g id="edge4" class="edge">
<title>m_shipperlabels:w&#45;&gt;m_shipperlabelscfg:e</title>
<path fill="none" stroke="black" d="M239.86,-113C226.8,-113 219.02,-113 201,-113"/>
<polygon fill="black" stroke="black" points="246.5,-113 254.5,-116.6 250.5,-113 254.5,-113 254.5,-113 254.5,-113 250.5,-113 254.5,-109.4 246.5,-113 246.5,-113"/>
<ellipse fill="none" stroke="black" cx="243.3" cy="-113" rx="3.2" ry="3.2"/>
</g>
<!-- m_shippingtransaction -->
<g id="node5" class="node">
<title>m_shippingtransaction</title>
<g id="a_node5"><a xlink:href="../../tables/m_shippingtransaction.html" xlink:title="m_shippingtransaction" target="_top">
<polygon fill="#ffffff" stroke="transparent" points="851,-37 851,-645 1082,-645 1082,-37 851,-37"/>
<polygon fill="#f5f5f5" stroke="transparent" points="851.5,-623 851.5,-645 1082.5,-645 1082.5,-623 851.5,-623"/>
<polygon fill="none" stroke="black" points="851.5,-623 851.5,-645 1082.5,-645 1082.5,-623 851.5,-623"/>
<text text-anchor="start" x="856.5" y="-632.2" font-family="Helvetica,sans-Serif" font-weight="bold" font-size="11.00">m_shippingtransaction</text>
<text text-anchor="start" x="1047.5" y="-631.2" font-family="Helvetica,sans-Serif" font-size="11.00">[table]</text>
<polygon fill="none" stroke="black" points="851.5,-601 851.5,-623 1082.5,-623 1082.5,-601 851.5,-601"/>
<image xlink:href="../../images/foreignKeys.png" width="11px" height="12px" preserveAspectRatio="xMinYMin meet" x="856.5" y="-618"/>
<text text-anchor="start" x="871.5" y="-609.2" font-family="Helvetica,sans-Serif" font-size="11.00">c_bp_shippingacct_id</text>
<polygon fill="none" stroke="black" points="851.5,-579 851.5,-601 1082.5,-601 1082.5,-579 851.5,-579"/>
<image xlink:href="../../images/foreignKeys.png" width="11px" height="12px" preserveAspectRatio="xMinYMin meet" x="856.5" y="-596"/>
<text text-anchor="start" x="871.5" y="-587.2" font-family="Helvetica,sans-Serif" font-size="11.00">c_bpartner_location_id</text>
<polygon fill="none" stroke="black" points="851.5,-557 851.5,-579 1082.5,-579 1082.5,-557 851.5,-557"/>
<image xlink:href="../../images/foreignKeys.png" width="11px" height="12px" preserveAspectRatio="xMinYMin meet" x="856.5" y="-574"/>
<text text-anchor="start" x="871.5" y="-565.2" font-family="Helvetica,sans-Serif" font-size="11.00">c_currency_id</text>
<polygon fill="#ffffff" stroke="transparent" points="851.5,-535 851.5,-557 1082.5,-557 1082.5,-535 851.5,-535"/>
<polygon fill="none" stroke="black" points="851.5,-535 851.5,-557 1082.5,-557 1082.5,-535 851.5,-535"/>
<image xlink:href="../../images/foreignKeys.png" width="11px" height="12px" preserveAspectRatio="xMinYMin meet" x="856.5" y="-552"/>
<text text-anchor="start" x="871.5" y="-543.2" font-family="Helvetica,sans-Serif" font-size="11.00">c_order_id</text>
<polygon fill="none" stroke="black" points="851.5,-513 851.5,-535 1082.5,-535 1082.5,-513 851.5,-513"/>
<image xlink:href="../../images/foreignKeys.png" width="11px" height="12px" preserveAspectRatio="xMinYMin meet" x="856.5" y="-530"/>
<text text-anchor="start" x="871.5" y="-521.2" font-family="Helvetica,sans-Serif" font-size="11.00">c_uom_length_id</text>
<polygon fill="none" stroke="black" points="851.5,-491 851.5,-513 1082.5,-513 1082.5,-491 851.5,-491"/>
<image xlink:href="../../images/foreignKeys.png" width="11px" height="12px" preserveAspectRatio="xMinYMin meet" x="856.5" y="-508"/>
<text text-anchor="start" x="871.5" y="-499.2" font-family="Helvetica,sans-Serif" font-size="11.00">c_uom_weight_id</text>
<polygon fill="none" stroke="black" points="851.5,-469 851.5,-491 1082.5,-491 1082.5,-469 851.5,-469"/>
<image xlink:href="../../images/foreignKeys.png" width="11px" height="12px" preserveAspectRatio="xMinYMin meet" x="856.5" y="-486"/>
<text text-anchor="start" x="871.5" y="-477.2" font-family="Helvetica,sans-Serif" font-size="11.00">m_inout_id</text>
<polygon fill="none" stroke="black" points="851.5,-447 851.5,-469 1082.5,-469 1082.5,-447 851.5,-447"/>
<image xlink:href="../../images/foreignKeys.png" width="11px" height="12px" preserveAspectRatio="xMinYMin meet" x="856.5" y="-464"/>
<text text-anchor="start" x="871.5" y="-455.2" font-family="Helvetica,sans-Serif" font-size="11.00">m_package_id</text>
<polygon fill="none" stroke="black" points="851.5,-425 851.5,-447 1082.5,-447 1082.5,-425 851.5,-425"/>
<image xlink:href="../../images/foreignKeys.png" width="11px" height="12px" preserveAspectRatio="xMinYMin meet" x="856.5" y="-442"/>
<text text-anchor="start" x="871.5" y="-433.2" font-family="Helvetica,sans-Serif" font-size="11.00">m_shipper_id</text>
<polygon fill="none" stroke="black" points="851.5,-403 851.5,-425 1082.5,-425 1082.5,-403 851.5,-403"/>
<image xlink:href="../../images/foreignKeys.png" width="11px" height="12px" preserveAspectRatio="xMinYMin meet" x="856.5" y="-420"/>
<text text-anchor="start" x="871.5" y="-411.2" font-family="Helvetica,sans-Serif" font-size="11.00">m_shipperlabels_id</text>
<polygon fill="none" stroke="black" points="851.5,-381 851.5,-403 1082.5,-403 1082.5,-381 851.5,-381"/>
<image xlink:href="../../images/foreignKeys.png" width="11px" height="12px" preserveAspectRatio="xMinYMin meet" x="856.5" y="-398"/>
<text text-anchor="start" x="871.5" y="-389.2" font-family="Helvetica,sans-Serif" font-size="11.00">m_shipperpackaging_id</text>
<polygon fill="none" stroke="black" points="851.5,-359 851.5,-381 1082.5,-381 1082.5,-359 851.5,-359"/>
<image xlink:href="../../images/foreignKeys.png" width="11px" height="12px" preserveAspectRatio="xMinYMin meet" x="856.5" y="-376"/>
<text text-anchor="start" x="871.5" y="-367.2" font-family="Helvetica,sans-Serif" font-size="11.00">m_shipperpickuptypes_id</text>
<polygon fill="none" stroke="black" points="851.5,-337 851.5,-359 1082.5,-359 1082.5,-337 851.5,-337"/>
<image xlink:href="../../images/foreignKeys.png" width="11px" height="12px" preserveAspectRatio="xMinYMin meet" x="856.5" y="-354"/>
<text text-anchor="start" x="871.5" y="-345.2" font-family="Helvetica,sans-Serif" font-size="11.00">m_shippingprocessor_id</text>
<polygon fill="none" stroke="black" points="851.5,-315 851.5,-337 1082.5,-337 1082.5,-315 851.5,-315"/>
<image xlink:href="../../images/primaryKeys.png" width="11px" height="12px" preserveAspectRatio="xMinYMin meet" x="856.5" y="-332"/>
<text text-anchor="start" x="871.5" y="-323.2" font-family="Helvetica,sans-Serif" font-size="11.00">m_shippingtransaction_id</text>
<polygon fill="#ffffff" stroke="transparent" points="851.5,-293 851.5,-315 1082.5,-315 1082.5,-293 851.5,-293"/>
<polygon fill="none" stroke="black" points="851.5,-293 851.5,-315 1082.5,-315 1082.5,-293 851.5,-293"/>
<text text-anchor="start" x="871.5" y="-301.2" font-family="Helvetica,sans-Serif" font-size="11.00">m_shippingtransaction_uu</text>
<polygon fill="none" stroke="black" points="851.5,-271 851.5,-293 1082.5,-293 1082.5,-271 851.5,-271"/>
<image xlink:href="../../images/foreignKeys.png" width="11px" height="12px" preserveAspectRatio="xMinYMin meet" x="856.5" y="-288"/>
<text text-anchor="start" x="871.5" y="-279.2" font-family="Helvetica,sans-Serif" font-size="11.00">returnbpartner_id</text>
<polygon fill="none" stroke="black" points="851.5,-249 851.5,-271 1082.5,-271 1082.5,-249 851.5,-249"/>
<image xlink:href="../../images/foreignKeys.png" width="11px" height="12px" preserveAspectRatio="xMinYMin meet" x="856.5" y="-266"/>
<text text-anchor="start" x="871.5" y="-257.2" font-family="Helvetica,sans-Serif" font-size="11.00">returnlocation_id</text>
<polygon fill="none" stroke="black" points="851.5,-227 851.5,-249 1082.5,-249 1082.5,-227 851.5,-227"/>
<image xlink:href="../../images/foreignKeys.png" width="11px" height="12px" preserveAspectRatio="xMinYMin meet" x="856.5" y="-244"/>
<text text-anchor="start" x="871.5" y="-235.2" font-family="Helvetica,sans-Serif" font-size="11.00">returnuser_id</text>
<polygon fill="none" stroke="black" points="851.5,-205 851.5,-227 1082.5,-227 1082.5,-205 851.5,-205"/>
<image xlink:href="../../images/foreignKeys.png" width="11px" height="12px" preserveAspectRatio="xMinYMin meet" x="856.5" y="-222"/>
<text text-anchor="start" x="871.5" y="-213.2" font-family="Helvetica,sans-Serif" font-size="11.00">salesrep_id</text>
<polygon fill="none" stroke="black" points="851.5,-183 851.5,-205 1082.5,-205 1082.5,-183 851.5,-183"/>
<image xlink:href="../../images/foreignKeys.png" width="11px" height="12px" preserveAspectRatio="xMinYMin meet" x="856.5" y="-200"/>
<text text-anchor="start" x="871.5" y="-191.2" font-family="Helvetica,sans-Serif" font-size="11.00">m_warehouse_id</text>
<polygon fill="none" stroke="black" points="851.5,-161 851.5,-183 1082.5,-183 1082.5,-161 851.5,-161"/>
<image xlink:href="../../images/foreignKeys.png" width="11px" height="12px" preserveAspectRatio="xMinYMin meet" x="856.5" y="-178"/>
<text text-anchor="start" x="871.5" y="-169.2" font-family="Helvetica,sans-Serif" font-size="11.00">c_bpartner_id</text>
<polygon fill="none" stroke="black" points="851.5,-139 851.5,-161 1082.5,-161 1082.5,-139 851.5,-139"/>
<image xlink:href="../../images/foreignKeys.png" width="11px" height="12px" preserveAspectRatio="xMinYMin meet" x="856.5" y="-156"/>
<text text-anchor="start" x="871.5" y="-147.2" font-family="Helvetica,sans-Serif" font-size="11.00">ad_user_id</text>
<polygon fill="#ffffff" stroke="transparent" points="851.5,-117 851.5,-139 1082.5,-139 1082.5,-117 851.5,-117"/>
<polygon fill="none" stroke="black" points="851.5,-117 851.5,-139 1082.5,-139 1082.5,-117 851.5,-117"/>
<image xlink:href="../../images/foreignKeys.png" width="11px" height="12px" preserveAspectRatio="xMinYMin meet" x="856.5" y="-134"/>
<text text-anchor="start" x="871.5" y="-125.2" font-family="Helvetica,sans-Serif" font-size="11.00">c_invoice_id</text>
<polygon fill="none" stroke="black" points="851.5,-95 851.5,-117 1082.5,-117 1082.5,-95 851.5,-95"/>
<image xlink:href="../../images/foreignKeys.png" width="11px" height="12px" preserveAspectRatio="xMinYMin meet" x="856.5" y="-112"/>
<text text-anchor="start" x="871.5" y="-103.2" font-family="Helvetica,sans-Serif" font-size="11.00">bill_location_id</text>
<polygon fill="none" stroke="black" points="851.5,-73 851.5,-95 1082.5,-95 1082.5,-73 851.5,-73"/>
<image xlink:href="../../images/foreignKeys.png" width="11px" height="12px" preserveAspectRatio="xMinYMin meet" x="856.5" y="-90"/>
<text text-anchor="start" x="871.5" y="-81.2" font-family="Helvetica,sans-Serif" font-size="11.00">holdaddress_id</text>
<polygon fill="none" stroke="black" points="851.5,-55 851.5,-73 1082.5,-73 1082.5,-55 851.5,-55"/>
<text text-anchor="start" x="854.5" y="-61.2" font-family="Helvetica,sans-Serif" font-size="11.00">...</text>
<polygon fill="#ffffff" stroke="transparent" points="851.5,-37 851.5,-55 1082.5,-55 1082.5,-37 851.5,-37"/>
<polygon fill="none" stroke="black" points="851.5,-37 851.5,-55 1082.5,-55 1082.5,-37 851.5,-37"/>
<polygon fill="#ffffff" stroke="transparent" points="852.5,-38 852.5,-54 936.5,-54 936.5,-38 852.5,-38"/>
<text text-anchor="start" x="854.5" y="-43.2" font-family="Helvetica,sans-Serif" font-size="11.00">&lt; 23</text>
<polygon fill="#ffffff" stroke="transparent" points="936.5,-38 936.5,-54 1004.5,-54 1004.5,-38 936.5,-38"/>
<text text-anchor="start" x="967" y="-43.2" font-family="Helvetica,sans-Serif" font-size="11.00"> &#160;</text>
<polygon fill="#ffffff" stroke="transparent" points="1004.5,-38 1004.5,-54 1081.5,-54 1081.5,-38 1004.5,-38"/>
<text text-anchor="start" x="1063.5" y="-43.2" font-family="Helvetica,sans-Serif" font-size="11.00">1 &gt;</text>
<polygon fill="black" stroke="black" points="936.5,-38 936.5,-54 936.5,-54 936.5,-38 936.5,-38"/>
<polygon fill="black" stroke="black" points="1004.5,-38 1004.5,-54 1004.5,-54 1004.5,-38 1004.5,-38"/>
</a>
</g>
</g>
<!-- m_shippingtransaction&#45;&gt;m_package -->
<g id="edge5" class="edge">
<title>m_shippingtransaction:w&#45;&gt;m_package:e</title>
<path fill="none" stroke="black" d="M836.02,-459.33C727.14,-481.39 938.81,-771 803.5,-771"/>
<polygon fill="black" stroke="black" points="842.53,-458.73 850.83,-461.58 846.52,-458.37 850.5,-458 850.5,-458 850.5,-458 846.52,-458.37 850.17,-454.42 842.53,-458.73 842.53,-458.73"/>
<ellipse fill="none" stroke="black" cx="839.35" cy="-459.02" rx="3.2" ry="3.2"/>
</g>
<!-- m_shippingtransaction&#45;&gt;m_shipper -->
<g id="edge6" class="edge">
<title>m_shippingtransaction:w&#45;&gt;m_shipper:e</title>
<path fill="none" stroke="black" d="M835.98,-436C561.1,-436 486.99,-436 205,-436"/>
<polygon fill="black" stroke="black" points="842.5,-436 850.5,-439.6 846.5,-436 850.5,-436 850.5,-436 850.5,-436 846.5,-436 850.5,-432.4 842.5,-436 842.5,-436"/>
<ellipse fill="none" stroke="black" cx="839.3" cy="-436" rx="3.2" ry="3.2"/>
</g>
<!-- m_shippingtransaction&#45;&gt;m_shipperlabels -->
<g id="edge7" class="edge">
<title>m_shippingtransaction:w&#45;&gt;m_shipperlabels:e</title>
<path fill="none" stroke="black" d="M835.68,-413.46C677.28,-401.7 690.59,-201 521.5,-201"/>
<polygon fill="black" stroke="black" points="842.51,-413.71 850.37,-417.6 846.5,-413.85 850.5,-414 850.5,-414 850.5,-414 846.5,-413.85 850.63,-410.4 842.51,-413.71 842.51,-413.71"/>
<ellipse fill="none" stroke="black" cx="839.31" cy="-413.59" rx="3.2" ry="3.2"/>
</g>
</g>
</svg>
