<?xml version="1.0" encoding="UTF-8" standalone="no"?>
<!DOCTYPE svg PUBLIC "-//W3C//DTD SVG 1.1//EN"
 "http://www.w3.org/Graphics/SVG/1.1/DTD/svg11.dtd">
<!-- Generated by graphviz version 2.43.0 (0)
 -->
<!-- Title: oneDegreeRelationshipsDiagram Pages: 1 -->
<svg width="567pt" height="951pt"
 viewBox="0.00 0.00 567.00 951.00" xmlns="http://www.w3.org/2000/svg" xmlns:xlink="http://www.w3.org/1999/xlink">
<g id="graph0" class="graph" transform="scale(1 1) rotate(0) translate(4 947)">
<title>oneDegreeRelationshipsDiagram</title>
<polygon fill="#ffffff" stroke="transparent" points="-4,4 -4,-947 563,-947 563,4 -4,4"/>
<text text-anchor="middle" x="71.5" y="-7.2" font-family="Helvetica,sans-Serif" font-size="11.00">Generated by SchemaSpy</text>
<!-- mfa_registration -->
<g id="node1" class="node">
<title>mfa_registration</title>
<g id="a_node1"><a xlink:href="../../tables/mfa_registration.html" xlink:title="mfa_registration" target="_top">
<polygon fill="#ffffff" stroke="transparent" points="297,-367 297,-939 551,-939 551,-367 297,-367"/>
<polygon fill="#f5f5f5" stroke="transparent" points="299,-915 299,-937 549,-937 549,-915 299,-915"/>
<polygon fill="none" stroke="black" points="299,-915 299,-937 549,-937 549,-915 299,-915"/>
<text text-anchor="start" x="304" y="-924.2" font-family="Helvetica,sans-Serif" font-weight="bold" font-size="11.00">mfa_registration</text>
<text text-anchor="start" x="514" y="-923.2" font-family="Helvetica,sans-Serif" font-size="11.00">[table]</text>
<polygon fill="none" stroke="black" points="299,-893 299,-915 466,-915 466,-893 299,-893"/>
<image xlink:href="../../images/primaryKeys.png" width="11px" height="12px" preserveAspectRatio="xMinYMin meet" x="304" y="-910"/>
<text text-anchor="start" x="319" y="-901.2" font-family="Helvetica,sans-Serif" font-size="11.00">mfa_registration_id</text>
<polygon fill="none" stroke="black" points="466,-893 466,-915 549,-915 549,-893 466,-893"/>
<text text-anchor="start" x="469" y="-901.2" font-family="Helvetica,sans-Serif" font-size="11.00">numeric[10]</text>
<polygon fill="none" stroke="black" points="299,-871 299,-893 466,-893 466,-871 299,-871"/>
<text text-anchor="start" x="319" y="-879.2" font-family="Helvetica,sans-Serif" font-size="11.00">ad_client_id</text>
<polygon fill="none" stroke="black" points="466,-871 466,-893 549,-893 549,-871 466,-871"/>
<text text-anchor="start" x="469" y="-879.2" font-family="Helvetica,sans-Serif" font-size="11.00">numeric[10]</text>
<polygon fill="none" stroke="black" points="299,-849 299,-871 466,-871 466,-849 299,-849"/>
<text text-anchor="start" x="319" y="-857.2" font-family="Helvetica,sans-Serif" font-size="11.00">ad_org_id</text>
<polygon fill="none" stroke="black" points="466,-849 466,-871 549,-871 549,-849 466,-849"/>
<text text-anchor="start" x="469" y="-857.2" font-family="Helvetica,sans-Serif" font-size="11.00">numeric[10]</text>
<polygon fill="none" stroke="black" points="299,-827 299,-849 466,-849 466,-827 299,-827"/>
<text text-anchor="start" x="319" y="-835.2" font-family="Helvetica,sans-Serif" font-size="11.00">created</text>
<polygon fill="none" stroke="black" points="466,-827 466,-849 549,-849 549,-827 466,-827"/>
<text text-anchor="start" x="469" y="-835.2" font-family="Helvetica,sans-Serif" font-size="11.00">timestamp[29,6]</text>
<polygon fill="none" stroke="black" points="299,-805 299,-827 466,-827 466,-805 299,-805"/>
<text text-anchor="start" x="319" y="-813.2" font-family="Helvetica,sans-Serif" font-size="11.00">createdby</text>
<polygon fill="none" stroke="black" points="466,-805 466,-827 549,-827 549,-805 466,-805"/>
<text text-anchor="start" x="469" y="-813.2" font-family="Helvetica,sans-Serif" font-size="11.00">numeric[10]</text>
<polygon fill="none" stroke="black" points="299,-783 299,-805 466,-805 466,-783 299,-783"/>
<text text-anchor="start" x="319" y="-791.2" font-family="Helvetica,sans-Serif" font-size="11.00">name</text>
<polygon fill="none" stroke="black" points="466,-783 466,-805 549,-805 549,-783 466,-783"/>
<text text-anchor="start" x="469" y="-791.2" font-family="Helvetica,sans-Serif" font-size="11.00">varchar[1000]</text>
<polygon fill="none" stroke="black" points="299,-761 299,-783 466,-783 466,-761 299,-761"/>
<text text-anchor="start" x="319" y="-769.2" font-family="Helvetica,sans-Serif" font-size="11.00">help</text>
<polygon fill="none" stroke="black" points="466,-761 466,-783 549,-783 549,-761 466,-761"/>
<text text-anchor="start" x="469" y="-769.2" font-family="Helvetica,sans-Serif" font-size="11.00">varchar[2000]</text>
<polygon fill="none" stroke="black" points="299,-739 299,-761 466,-761 466,-739 299,-739"/>
<text text-anchor="start" x="319" y="-747.2" font-family="Helvetica,sans-Serif" font-size="11.00">isactive</text>
<polygon fill="none" stroke="black" points="466,-739 466,-761 549,-761 549,-739 466,-739"/>
<text text-anchor="start" x="469" y="-747.2" font-family="Helvetica,sans-Serif" font-size="11.00">bpchar[1]</text>
<polygon fill="#ffffff" stroke="transparent" points="299,-717 299,-739 466,-739 466,-717 299,-717"/>
<polygon fill="none" stroke="black" points="299,-717 299,-739 466,-739 466,-717 299,-717"/>
<text text-anchor="start" x="319" y="-725.2" font-family="Helvetica,sans-Serif" font-size="11.00">mfa_registration_uu</text>
<polygon fill="none" stroke="black" points="466,-717 466,-739 549,-739 549,-717 466,-717"/>
<text text-anchor="start" x="469" y="-725.2" font-family="Helvetica,sans-Serif" font-size="11.00">varchar[36]</text>
<polygon fill="none" stroke="black" points="299,-695 299,-717 466,-717 466,-695 299,-695"/>
<text text-anchor="start" x="319" y="-703.2" font-family="Helvetica,sans-Serif" font-size="11.00">updated</text>
<polygon fill="none" stroke="black" points="466,-695 466,-717 549,-717 549,-695 466,-695"/>
<text text-anchor="start" x="469" y="-703.2" font-family="Helvetica,sans-Serif" font-size="11.00">timestamp[29,6]</text>
<polygon fill="none" stroke="black" points="299,-673 299,-695 466,-695 466,-673 299,-673"/>
<text text-anchor="start" x="319" y="-681.2" font-family="Helvetica,sans-Serif" font-size="11.00">updatedby</text>
<polygon fill="none" stroke="black" points="466,-673 466,-695 549,-695 549,-673 466,-673"/>
<text text-anchor="start" x="469" y="-681.2" font-family="Helvetica,sans-Serif" font-size="11.00">numeric[10]</text>
<polygon fill="none" stroke="black" points="299,-651 299,-673 466,-673 466,-651 299,-651"/>
<image xlink:href="../../images/foreignKeys.png" width="11px" height="12px" preserveAspectRatio="xMinYMin meet" x="304" y="-668"/>
<text text-anchor="start" x="319" y="-659.2" font-family="Helvetica,sans-Serif" font-size="11.00">mfa_method_id</text>
<polygon fill="none" stroke="black" points="466,-651 466,-673 549,-673 549,-651 466,-651"/>
<text text-anchor="start" x="469" y="-659.2" font-family="Helvetica,sans-Serif" font-size="11.00">numeric[10]</text>
<polygon fill="none" stroke="black" points="299,-629 299,-651 466,-651 466,-629 299,-629"/>
<image xlink:href="../../images/foreignKeys.png" width="11px" height="12px" preserveAspectRatio="xMinYMin meet" x="304" y="-646"/>
<text text-anchor="start" x="319" y="-637.2" font-family="Helvetica,sans-Serif" font-size="11.00">ad_user_id</text>
<polygon fill="none" stroke="black" points="466,-629 466,-651 549,-651 549,-629 466,-629"/>
<text text-anchor="start" x="469" y="-637.2" font-family="Helvetica,sans-Serif" font-size="11.00">numeric[10]</text>
<polygon fill="none" stroke="black" points="299,-607 299,-629 466,-629 466,-607 299,-607"/>
<text text-anchor="start" x="319" y="-615.2" font-family="Helvetica,sans-Serif" font-size="11.00">mfasecret</text>
<polygon fill="none" stroke="black" points="466,-607 466,-629 549,-629 549,-607 466,-607"/>
<text text-anchor="start" x="469" y="-615.2" font-family="Helvetica,sans-Serif" font-size="11.00">varchar[2000]</text>
<polygon fill="none" stroke="black" points="299,-585 299,-607 466,-607 466,-585 299,-585"/>
<text text-anchor="start" x="319" y="-593.2" font-family="Helvetica,sans-Serif" font-size="11.00">isvalid</text>
<polygon fill="none" stroke="black" points="466,-585 466,-607 549,-607 549,-585 466,-585"/>
<text text-anchor="start" x="469" y="-593.2" font-family="Helvetica,sans-Serif" font-size="11.00">bpchar[1]</text>
<polygon fill="none" stroke="black" points="299,-563 299,-585 466,-585 466,-563 299,-563"/>
<text text-anchor="start" x="319" y="-571.2" font-family="Helvetica,sans-Serif" font-size="11.00">mfavalidatedat</text>
<polygon fill="none" stroke="black" points="466,-563 466,-585 549,-585 549,-563 466,-563"/>
<text text-anchor="start" x="469" y="-571.2" font-family="Helvetica,sans-Serif" font-size="11.00">timestamp[29,6]</text>
<polygon fill="none" stroke="black" points="299,-541 299,-563 466,-563 466,-541 299,-541"/>
<text text-anchor="start" x="319" y="-549.2" font-family="Helvetica,sans-Serif" font-size="11.00">mfaunregisteredat</text>
<polygon fill="none" stroke="black" points="466,-541 466,-563 549,-563 549,-541 466,-541"/>
<text text-anchor="start" x="469" y="-549.2" font-family="Helvetica,sans-Serif" font-size="11.00">timestamp[29,6]</text>
<polygon fill="none" stroke="black" points="299,-519 299,-541 466,-541 466,-519 299,-519"/>
<text text-anchor="start" x="319" y="-527.2" font-family="Helvetica,sans-Serif" font-size="11.00">isusermfapreferred</text>
<polygon fill="none" stroke="black" points="466,-519 466,-541 549,-541 549,-519 466,-519"/>
<text text-anchor="start" x="469" y="-527.2" font-family="Helvetica,sans-Serif" font-size="11.00">bpchar[1]</text>
<polygon fill="none" stroke="black" points="299,-497 299,-519 466,-519 466,-497 299,-497"/>
<text text-anchor="start" x="319" y="-505.2" font-family="Helvetica,sans-Serif" font-size="11.00">expiration</text>
<polygon fill="none" stroke="black" points="466,-497 466,-519 549,-519 549,-497 466,-497"/>
<text text-anchor="start" x="469" y="-505.2" font-family="Helvetica,sans-Serif" font-size="11.00">timestamp[29,6]</text>
<polygon fill="none" stroke="black" points="299,-475 299,-497 466,-497 466,-475 299,-475"/>
<text text-anchor="start" x="319" y="-483.2" font-family="Helvetica,sans-Serif" font-size="11.00">parametervalue</text>
<polygon fill="none" stroke="black" points="466,-475 466,-497 549,-497 549,-475 466,-475"/>
<text text-anchor="start" x="469" y="-483.2" font-family="Helvetica,sans-Serif" font-size="11.00">varchar[2000]</text>
<polygon fill="none" stroke="black" points="299,-453 299,-475 466,-475 466,-453 299,-453"/>
<text text-anchor="start" x="319" y="-461.2" font-family="Helvetica,sans-Serif" font-size="11.00">mfalastsecret</text>
<polygon fill="none" stroke="black" points="466,-453 466,-475 549,-475 549,-453 466,-453"/>
<text text-anchor="start" x="469" y="-461.2" font-family="Helvetica,sans-Serif" font-size="11.00">varchar[2000]</text>
<polygon fill="none" stroke="black" points="299,-431 299,-453 466,-453 466,-431 299,-431"/>
<text text-anchor="start" x="319" y="-439.2" font-family="Helvetica,sans-Serif" font-size="11.00">lastsuccess</text>
<polygon fill="none" stroke="black" points="466,-431 466,-453 549,-453 549,-431 466,-431"/>
<text text-anchor="start" x="469" y="-439.2" font-family="Helvetica,sans-Serif" font-size="11.00">timestamp[29,6]</text>
<polygon fill="none" stroke="black" points="299,-409 299,-431 466,-431 466,-409 299,-409"/>
<text text-anchor="start" x="319" y="-417.2" font-family="Helvetica,sans-Serif" font-size="11.00">lastfailure</text>
<polygon fill="none" stroke="black" points="466,-409 466,-431 549,-431 549,-409 466,-409"/>
<text text-anchor="start" x="469" y="-417.2" font-family="Helvetica,sans-Serif" font-size="11.00">timestamp[29,6]</text>
<polygon fill="none" stroke="black" points="299,-387 299,-409 466,-409 466,-387 299,-387"/>
<text text-anchor="start" x="319" y="-395.2" font-family="Helvetica,sans-Serif" font-size="11.00">failedlogincount</text>
<polygon fill="none" stroke="black" points="466,-387 466,-409 549,-409 549,-387 466,-387"/>
<text text-anchor="start" x="469" y="-395.2" font-family="Helvetica,sans-Serif" font-size="11.00">numeric[10]</text>
<polygon fill="#ffffff" stroke="transparent" points="299,-369 299,-387 549,-387 549,-369 299,-369"/>
<polygon fill="none" stroke="black" points="299,-369 299,-387 549,-387 549,-369 299,-369"/>
<polygon fill="#ffffff" stroke="transparent" points="300,-370 300,-386 386,-386 386,-370 300,-370"/>
<text text-anchor="start" x="302" y="-375.2" font-family="Helvetica,sans-Serif" font-size="11.00">&lt; 2</text>
<polygon fill="#ffffff" stroke="transparent" points="386,-370 386,-386 463,-386 463,-370 386,-370"/>
<text text-anchor="start" x="421" y="-375.2" font-family="Helvetica,sans-Serif" font-size="11.00"> &#160;</text>
<polygon fill="#ffffff" stroke="transparent" points="463,-370 463,-386 548,-386 548,-370 463,-370"/>
<text text-anchor="start" x="530" y="-375.2" font-family="Helvetica,sans-Serif" font-size="11.00">0 &gt;</text>
<polygon fill="black" stroke="black" points="386,-370 386,-386 386,-386 386,-370 386,-370"/>
<polygon fill="black" stroke="black" points="463,-370 463,-386 463,-386 463,-370 463,-370"/>
<polygon fill="none" stroke="black" stroke-width="2" points="298,-368 298,-938 550,-938 550,-368 298,-368"/>
</a>
</g>
</g>
<!-- ad_user -->
<g id="node2" class="node">
<title>ad_user</title>
<g id="a_node2"><a xlink:href="../../tables/ad_user.html" xlink:title="ad_user" target="_top">
<polygon fill="#ffffff" stroke="transparent" points="8,-37 8,-601 248,-601 248,-37 8,-37"/>
<polygon fill="#f5f5f5" stroke="transparent" points="8,-579 8,-601 248,-601 248,-579 8,-579"/>
<polygon fill="none" stroke="black" points="8,-579 8,-601 248,-601 248,-579 8,-579"/>
<text text-anchor="start" x="13" y="-588.2" font-family="Helvetica,sans-Serif" font-weight="bold" font-size="11.00">ad_user</text>
<text text-anchor="start" x="213" y="-587.2" font-family="Helvetica,sans-Serif" font-size="11.00">[table]</text>
<polygon fill="none" stroke="black" points="8,-557 8,-579 248,-579 248,-557 8,-557"/>
<image xlink:href="../../images/primaryKeys.png" width="11px" height="12px" preserveAspectRatio="xMinYMin meet" x="13" y="-574"/>
<text text-anchor="start" x="28" y="-565.2" font-family="Helvetica,sans-Serif" font-size="11.00">ad_user_id</text>
<polygon fill="none" stroke="black" points="8,-535 8,-557 248,-557 248,-535 8,-535"/>
<image xlink:href="../../images/foreignKeys.png" width="11px" height="12px" preserveAspectRatio="xMinYMin meet" x="13" y="-552"/>
<text text-anchor="start" x="28" y="-543.2" font-family="Helvetica,sans-Serif" font-size="11.00">ad_client_id</text>
<polygon fill="none" stroke="black" points="8,-513 8,-535 248,-535 248,-513 8,-513"/>
<image xlink:href="../../images/foreignKeys.png" width="11px" height="12px" preserveAspectRatio="xMinYMin meet" x="13" y="-530"/>
<text text-anchor="start" x="28" y="-521.2" font-family="Helvetica,sans-Serif" font-size="11.00">ad_org_id</text>
<polygon fill="#ffffff" stroke="transparent" points="8,-491 8,-513 248,-513 248,-491 8,-491"/>
<polygon fill="none" stroke="black" points="8,-491 8,-513 248,-513 248,-491 8,-491"/>
<text text-anchor="start" x="28" y="-499.2" font-family="Helvetica,sans-Serif" font-size="11.00">name</text>
<polygon fill="#ffffff" stroke="transparent" points="8,-469 8,-491 248,-491 248,-469 8,-469"/>
<polygon fill="none" stroke="black" points="8,-469 8,-491 248,-491 248,-469 8,-469"/>
<text text-anchor="start" x="28" y="-477.2" font-family="Helvetica,sans-Serif" font-size="11.00">email</text>
<polygon fill="none" stroke="black" points="8,-447 8,-469 248,-469 248,-447 8,-447"/>
<image xlink:href="../../images/foreignKeys.png" width="11px" height="12px" preserveAspectRatio="xMinYMin meet" x="13" y="-464"/>
<text text-anchor="start" x="28" y="-455.2" font-family="Helvetica,sans-Serif" font-size="11.00">supervisor_id</text>
<polygon fill="#ffffff" stroke="transparent" points="8,-425 8,-447 248,-447 248,-425 8,-425"/>
<polygon fill="none" stroke="black" points="8,-425 8,-447 248,-447 248,-425 8,-425"/>
<image xlink:href="../../images/foreignKeys.png" width="11px" height="12px" preserveAspectRatio="xMinYMin meet" x="13" y="-442"/>
<text text-anchor="start" x="28" y="-433.2" font-family="Helvetica,sans-Serif" font-size="11.00">c_bpartner_id</text>
<polygon fill="none" stroke="black" points="8,-403 8,-425 248,-425 248,-403 8,-403"/>
<image xlink:href="../../images/foreignKeys.png" width="11px" height="12px" preserveAspectRatio="xMinYMin meet" x="13" y="-420"/>
<text text-anchor="start" x="28" y="-411.2" font-family="Helvetica,sans-Serif" font-size="11.00">c_bpartner_location_id</text>
<polygon fill="none" stroke="black" points="8,-381 8,-403 248,-403 248,-381 8,-381"/>
<image xlink:href="../../images/foreignKeys.png" width="11px" height="12px" preserveAspectRatio="xMinYMin meet" x="13" y="-398"/>
<text text-anchor="start" x="28" y="-389.2" font-family="Helvetica,sans-Serif" font-size="11.00">c_greeting_id</text>
<polygon fill="none" stroke="black" points="8,-359 8,-381 248,-381 248,-359 8,-359"/>
<image xlink:href="../../images/foreignKeys.png" width="11px" height="12px" preserveAspectRatio="xMinYMin meet" x="13" y="-376"/>
<text text-anchor="start" x="28" y="-367.2" font-family="Helvetica,sans-Serif" font-size="11.00">ad_orgtrx_id</text>
<polygon fill="none" stroke="black" points="8,-337 8,-359 248,-359 248,-337 8,-337"/>
<image xlink:href="../../images/foreignKeys.png" width="11px" height="12px" preserveAspectRatio="xMinYMin meet" x="13" y="-354"/>
<text text-anchor="start" x="28" y="-345.2" font-family="Helvetica,sans-Serif" font-size="11.00">c_job_id</text>
<polygon fill="#ffffff" stroke="transparent" points="8,-315 8,-337 248,-337 248,-315 8,-315"/>
<polygon fill="none" stroke="black" points="8,-315 8,-337 248,-337 248,-315 8,-315"/>
<text text-anchor="start" x="28" y="-323.2" font-family="Helvetica,sans-Serif" font-size="11.00">ad_user_uu</text>
<polygon fill="none" stroke="black" points="8,-293 8,-315 248,-315 248,-293 8,-293"/>
<image xlink:href="../../images/foreignKeys.png" width="11px" height="12px" preserveAspectRatio="xMinYMin meet" x="13" y="-310"/>
<text text-anchor="start" x="28" y="-301.2" font-family="Helvetica,sans-Serif" font-size="11.00">c_location_id</text>
<polygon fill="none" stroke="black" points="8,-271 8,-293 248,-293 248,-271 8,-271"/>
<image xlink:href="../../images/foreignKeys.png" width="11px" height="12px" preserveAspectRatio="xMinYMin meet" x="13" y="-288"/>
<text text-anchor="start" x="28" y="-279.2" font-family="Helvetica,sans-Serif" font-size="11.00">c_campaign_id</text>
<polygon fill="none" stroke="black" points="8,-249 8,-271 248,-271 248,-249 8,-249"/>
<image xlink:href="../../images/foreignKeys.png" width="11px" height="12px" preserveAspectRatio="xMinYMin meet" x="13" y="-266"/>
<text text-anchor="start" x="28" y="-257.2" font-family="Helvetica,sans-Serif" font-size="11.00">salesrep_id</text>
<polygon fill="none" stroke="black" points="8,-227 8,-249 248,-249 248,-227 8,-227"/>
<image xlink:href="../../images/foreignKeys.png" width="11px" height="12px" preserveAspectRatio="xMinYMin meet" x="13" y="-244"/>
<text text-anchor="start" x="28" y="-235.2" font-family="Helvetica,sans-Serif" font-size="11.00">bp_location_id</text>
<polygon fill="none" stroke="black" points="8,-205 8,-227 248,-227 248,-205 8,-205"/>
<image xlink:href="../../images/foreignKeys.png" width="11px" height="12px" preserveAspectRatio="xMinYMin meet" x="13" y="-222"/>
<text text-anchor="start" x="28" y="-213.2" font-family="Helvetica,sans-Serif" font-size="11.00">r_defaultmailtext_id</text>
<polygon fill="none" stroke="black" points="8,-183 8,-205 248,-205 248,-183 8,-183"/>
<image xlink:href="../../images/foreignKeys.png" width="11px" height="12px" preserveAspectRatio="xMinYMin meet" x="13" y="-200"/>
<text text-anchor="start" x="28" y="-191.2" font-family="Helvetica,sans-Serif" font-size="11.00">cof_c_marketsegment_id</text>
<polygon fill="none" stroke="black" points="8,-161 8,-183 248,-183 248,-161 8,-161"/>
<image xlink:href="../../images/foreignKeys.png" width="11px" height="12px" preserveAspectRatio="xMinYMin meet" x="13" y="-178"/>
<text text-anchor="start" x="28" y="-169.2" font-family="Helvetica,sans-Serif" font-size="11.00">cof_c_leadexpirationreason_id</text>
<polygon fill="none" stroke="black" points="8,-139 8,-161 248,-161 248,-139 8,-139"/>
<image xlink:href="../../images/foreignKeys.png" width="11px" height="12px" preserveAspectRatio="xMinYMin meet" x="13" y="-156"/>
<text text-anchor="start" x="28" y="-147.2" font-family="Helvetica,sans-Serif" font-size="11.00">ad_image_id</text>
<polygon fill="none" stroke="black" points="8,-117 8,-139 248,-139 248,-117 8,-117"/>
<image xlink:href="../../images/foreignKeys.png" width="11px" height="12px" preserveAspectRatio="xMinYMin meet" x="13" y="-134"/>
<text text-anchor="start" x="28" y="-125.2" font-family="Helvetica,sans-Serif" font-size="11.00">c_subscription_id</text>
<polygon fill="none" stroke="black" points="8,-95 8,-117 248,-117 248,-95 8,-95"/>
<image xlink:href="../../images/foreignKeys.png" width="11px" height="12px" preserveAspectRatio="xMinYMin meet" x="13" y="-112"/>
<text text-anchor="start" x="28" y="-103.2" font-family="Helvetica,sans-Serif" font-size="11.00">cof_responsavelindicacao_id</text>
<polygon fill="none" stroke="black" points="8,-73 8,-95 248,-95 248,-73 8,-73"/>
<image xlink:href="../../images/foreignKeys.png" width="11px" height="12px" preserveAspectRatio="xMinYMin meet" x="13" y="-90"/>
<text text-anchor="start" x="28" y="-81.2" font-family="Helvetica,sans-Serif" font-size="11.00">cof_respatribuicao_id</text>
<polygon fill="none" stroke="black" points="8,-55 8,-73 248,-73 248,-55 8,-55"/>
<text text-anchor="start" x="11" y="-61.2" font-family="Helvetica,sans-Serif" font-size="11.00">...</text>
<polygon fill="#ffffff" stroke="transparent" points="8,-37 8,-55 248,-55 248,-37 8,-37"/>
<polygon fill="none" stroke="black" points="8,-37 8,-55 248,-55 248,-37 8,-37"/>
<polygon fill="#ffffff" stroke="transparent" points="9,-38 9,-54 83,-54 83,-38 9,-38"/>
<text text-anchor="start" x="11" y="-43.2" font-family="Helvetica,sans-Serif" font-size="11.00">&lt; 19</text>
<polygon fill="#ffffff" stroke="transparent" points="83,-38 83,-54 168,-54 168,-38 83,-38"/>
<text text-anchor="start" x="109" y="-43.2" font-family="Helvetica,sans-Serif" font-size="11.00">8 rows</text>
<polygon fill="#ffffff" stroke="transparent" points="168,-38 168,-54 247,-54 247,-38 168,-38"/>
<text text-anchor="start" x="217" y="-43.2" font-family="Helvetica,sans-Serif" font-size="11.00">444 &gt;</text>
<polygon fill="black" stroke="black" points="83,-38 83,-54 83,-54 83,-38 83,-38"/>
<polygon fill="black" stroke="black" points="168,-38 168,-54 168,-54 168,-38 168,-38"/>
</a>
</g>
</g>
<!-- mfa_registration&#45;&gt;ad_user -->
<g id="edge1" class="edge">
<title>mfa_registration:w&#45;&gt;ad_user:e</title>
<path fill="none" stroke="black" d="M284.26,-635.28C266.53,-619.26 281.66,-568 249,-568"/>
<polygon fill="black" stroke="black" points="290.43,-637.4 296.83,-643.4 294.22,-638.7 298,-640 298,-640 298,-640 294.22,-638.7 299.17,-636.6 290.43,-637.4 290.43,-637.4"/>
<ellipse fill="none" stroke="black" cx="287.41" cy="-636.36" rx="3.2" ry="3.2"/>
</g>
<!-- mfa_method -->
<g id="node3" class="node">
<title>mfa_method</title>
<g id="a_node3"><a xlink:href="../../tables/mfa_method.html" xlink:title="mfa_method" target="_top">
<polygon fill="#ffffff" stroke="transparent" points="15,-622 15,-768 241,-768 241,-622 15,-622"/>
<polygon fill="#f5f5f5" stroke="transparent" points="15,-746 15,-768 241,-768 241,-746 15,-746"/>
<polygon fill="none" stroke="black" points="15,-746 15,-768 241,-768 241,-746 15,-746"/>
<text text-anchor="start" x="20" y="-755.2" font-family="Helvetica,sans-Serif" font-weight="bold" font-size="11.00">mfa_method</text>
<text text-anchor="start" x="206" y="-754.2" font-family="Helvetica,sans-Serif" font-size="11.00">[table]</text>
<polygon fill="none" stroke="black" points="15,-724 15,-746 241,-746 241,-724 15,-724"/>
<image xlink:href="../../images/primaryKeys.png" width="11px" height="12px" preserveAspectRatio="xMinYMin meet" x="20" y="-741"/>
<text text-anchor="start" x="35" y="-732.2" font-family="Helvetica,sans-Serif" font-size="11.00">mfa_method_id</text>
<polygon fill="#ffffff" stroke="transparent" points="15,-702 15,-724 241,-724 241,-702 15,-702"/>
<polygon fill="none" stroke="black" points="15,-702 15,-724 241,-724 241,-702 15,-702"/>
<text text-anchor="start" x="35" y="-710.2" font-family="Helvetica,sans-Serif" font-size="11.00">mfa_method_uu</text>
<polygon fill="none" stroke="black" points="15,-680 15,-702 241,-702 241,-680 15,-680"/>
<image xlink:href="../../images/foreignKeys.png" width="11px" height="12px" preserveAspectRatio="xMinYMin meet" x="20" y="-697"/>
<text text-anchor="start" x="35" y="-688.2" font-family="Helvetica,sans-Serif" font-size="11.00">r_mailtext_id</text>
<polygon fill="none" stroke="black" points="15,-658 15,-680 241,-680 241,-658 15,-658"/>
<image xlink:href="../../images/foreignKeys.png" width="11px" height="12px" preserveAspectRatio="xMinYMin meet" x="20" y="-675"/>
<text text-anchor="start" x="35" y="-666.2" font-family="Helvetica,sans-Serif" font-size="11.00">mfa_elementprm_id</text>
<polygon fill="none" stroke="black" points="15,-640 15,-658 241,-658 241,-640 15,-640"/>
<text text-anchor="start" x="18" y="-646.2" font-family="Helvetica,sans-Serif" font-size="11.00">...</text>
<polygon fill="#ffffff" stroke="transparent" points="15,-622 15,-640 241,-640 241,-622 15,-622"/>
<polygon fill="none" stroke="black" points="15,-622 15,-640 241,-640 241,-622 15,-622"/>
<polygon fill="#ffffff" stroke="transparent" points="16,-623 16,-639 85,-639 85,-623 16,-623"/>
<text text-anchor="start" x="18" y="-628.2" font-family="Helvetica,sans-Serif" font-size="11.00">&lt; 2</text>
<polygon fill="#ffffff" stroke="transparent" points="85,-623 85,-639 171,-639 171,-623 85,-623"/>
<text text-anchor="start" x="111.5" y="-628.2" font-family="Helvetica,sans-Serif" font-size="11.00">2 rows</text>
<polygon fill="#ffffff" stroke="transparent" points="171,-623 171,-639 240,-639 240,-623 171,-623"/>
<text text-anchor="start" x="222" y="-628.2" font-family="Helvetica,sans-Serif" font-size="11.00">2 &gt;</text>
<polygon fill="black" stroke="black" points="85,-623 85,-639 85,-639 85,-623 85,-623"/>
<polygon fill="black" stroke="black" points="171,-623 171,-639 171,-639 171,-623 171,-623"/>
</a>
</g>
</g>
<!-- mfa_registration&#45;&gt;mfa_method -->
<g id="edge2" class="edge">
<title>mfa_registration:w&#45;&gt;mfa_method:e</title>
<path fill="none" stroke="black" d="M284.05,-666.13C263.17,-681.58 276.98,-735 242,-735"/>
<polygon fill="black" stroke="black" points="290.33,-664.27 299.02,-665.45 294.16,-663.14 298,-662 298,-662 298,-662 294.16,-663.14 296.98,-658.55 290.33,-664.27 290.33,-664.27"/>
<ellipse fill="none" stroke="black" cx="287.26" cy="-665.18" rx="3.2" ry="3.2"/>
</g>
</g>
</svg>
