<?xml version="1.0" encoding="UTF-8" standalone="no"?>
<!DOCTYPE svg PUBLIC "-//W3C//DTD SVG 1.1//EN"
 "http://www.w3.org/Graphics/SVG/1.1/DTD/svg11.dtd">
<!-- Generated by graphviz version 2.43.0 (0)
 -->
<!-- Title: oneDegreeRelationshipsDiagram Pages: 1 -->
<svg width="481pt" height="549pt"
 viewBox="0.00 0.00 481.00 549.00" xmlns="http://www.w3.org/2000/svg" xmlns:xlink="http://www.w3.org/1999/xlink">
<g id="graph0" class="graph" transform="scale(1 1) rotate(0) translate(4 545)">
<title>oneDegreeRelationshipsDiagram</title>
<polygon fill="#ffffff" stroke="transparent" points="-4,4 -4,-545 477,-545 477,4 -4,4"/>
<text text-anchor="middle" x="71.5" y="-7.2" font-family="Helvetica,sans-Serif" font-size="11.00">Generated by SchemaSpy</text>
<!-- pa_achievement -->
<g id="node1" class="node">
<title>pa_achievement</title>
<g id="a_node1"><a xlink:href="../../tables/pa_achievement.html" xlink:title="pa_achievement" target="_top">
<polygon fill="#ffffff" stroke="transparent" points="214,-119 214,-537 465,-537 465,-119 214,-119"/>
<polygon fill="#f5f5f5" stroke="transparent" points="216.5,-513 216.5,-535 463.5,-535 463.5,-513 216.5,-513"/>
<polygon fill="none" stroke="black" points="216.5,-513 216.5,-535 463.5,-535 463.5,-513 216.5,-513"/>
<text text-anchor="start" x="221.5" y="-522.2" font-family="Helvetica,sans-Serif" font-weight="bold" font-size="11.00">pa_achievement</text>
<text text-anchor="start" x="428.5" y="-521.2" font-family="Helvetica,sans-Serif" font-size="11.00">[table]</text>
<polygon fill="none" stroke="black" points="216.5,-491 216.5,-513 380.5,-513 380.5,-491 216.5,-491"/>
<image xlink:href="../../images/primaryKeys.png" width="11px" height="12px" preserveAspectRatio="xMinYMin meet" x="221.5" y="-508"/>
<text text-anchor="start" x="236.5" y="-499.2" font-family="Helvetica,sans-Serif" font-size="11.00">pa_achievement_id</text>
<polygon fill="none" stroke="black" points="380.5,-491 380.5,-513 463.5,-513 463.5,-491 380.5,-491"/>
<text text-anchor="start" x="383.5" y="-499.2" font-family="Helvetica,sans-Serif" font-size="11.00">numeric[10]</text>
<polygon fill="none" stroke="black" points="216.5,-469 216.5,-491 380.5,-491 380.5,-469 216.5,-469"/>
<text text-anchor="start" x="236.5" y="-477.2" font-family="Helvetica,sans-Serif" font-size="11.00">ad_client_id</text>
<polygon fill="none" stroke="black" points="380.5,-469 380.5,-491 463.5,-491 463.5,-469 380.5,-469"/>
<text text-anchor="start" x="383.5" y="-477.2" font-family="Helvetica,sans-Serif" font-size="11.00">numeric[10]</text>
<polygon fill="none" stroke="black" points="216.5,-447 216.5,-469 380.5,-469 380.5,-447 216.5,-447"/>
<text text-anchor="start" x="236.5" y="-455.2" font-family="Helvetica,sans-Serif" font-size="11.00">ad_org_id</text>
<polygon fill="none" stroke="black" points="380.5,-447 380.5,-469 463.5,-469 463.5,-447 380.5,-447"/>
<text text-anchor="start" x="383.5" y="-455.2" font-family="Helvetica,sans-Serif" font-size="11.00">numeric[10]</text>
<polygon fill="none" stroke="black" points="216.5,-425 216.5,-447 380.5,-447 380.5,-425 216.5,-425"/>
<text text-anchor="start" x="236.5" y="-433.2" font-family="Helvetica,sans-Serif" font-size="11.00">isactive</text>
<polygon fill="none" stroke="black" points="380.5,-425 380.5,-447 463.5,-447 463.5,-425 380.5,-425"/>
<text text-anchor="start" x="383.5" y="-433.2" font-family="Helvetica,sans-Serif" font-size="11.00">bpchar[1]</text>
<polygon fill="none" stroke="black" points="216.5,-403 216.5,-425 380.5,-425 380.5,-403 216.5,-403"/>
<text text-anchor="start" x="236.5" y="-411.2" font-family="Helvetica,sans-Serif" font-size="11.00">created</text>
<polygon fill="none" stroke="black" points="380.5,-403 380.5,-425 463.5,-425 463.5,-403 380.5,-403"/>
<text text-anchor="start" x="383.5" y="-411.2" font-family="Helvetica,sans-Serif" font-size="11.00">timestamp[29,6]</text>
<polygon fill="none" stroke="black" points="216.5,-381 216.5,-403 380.5,-403 380.5,-381 216.5,-381"/>
<text text-anchor="start" x="236.5" y="-389.2" font-family="Helvetica,sans-Serif" font-size="11.00">createdby</text>
<polygon fill="none" stroke="black" points="380.5,-381 380.5,-403 463.5,-403 463.5,-381 380.5,-381"/>
<text text-anchor="start" x="383.5" y="-389.2" font-family="Helvetica,sans-Serif" font-size="11.00">numeric[10]</text>
<polygon fill="none" stroke="black" points="216.5,-359 216.5,-381 380.5,-381 380.5,-359 216.5,-359"/>
<text text-anchor="start" x="236.5" y="-367.2" font-family="Helvetica,sans-Serif" font-size="11.00">updated</text>
<polygon fill="none" stroke="black" points="380.5,-359 380.5,-381 463.5,-381 463.5,-359 380.5,-359"/>
<text text-anchor="start" x="383.5" y="-367.2" font-family="Helvetica,sans-Serif" font-size="11.00">timestamp[29,6]</text>
<polygon fill="none" stroke="black" points="216.5,-337 216.5,-359 380.5,-359 380.5,-337 216.5,-337"/>
<text text-anchor="start" x="236.5" y="-345.2" font-family="Helvetica,sans-Serif" font-size="11.00">updatedby</text>
<polygon fill="none" stroke="black" points="380.5,-337 380.5,-359 463.5,-359 463.5,-337 380.5,-337"/>
<text text-anchor="start" x="383.5" y="-345.2" font-family="Helvetica,sans-Serif" font-size="11.00">numeric[10]</text>
<polygon fill="none" stroke="black" points="216.5,-315 216.5,-337 380.5,-337 380.5,-315 216.5,-315"/>
<text text-anchor="start" x="236.5" y="-323.2" font-family="Helvetica,sans-Serif" font-size="11.00">name</text>
<polygon fill="none" stroke="black" points="380.5,-315 380.5,-337 463.5,-337 463.5,-315 380.5,-315"/>
<text text-anchor="start" x="383.5" y="-323.2" font-family="Helvetica,sans-Serif" font-size="11.00">varchar[60]</text>
<polygon fill="none" stroke="black" points="216.5,-293 216.5,-315 380.5,-315 380.5,-293 216.5,-293"/>
<text text-anchor="start" x="236.5" y="-301.2" font-family="Helvetica,sans-Serif" font-size="11.00">description</text>
<polygon fill="none" stroke="black" points="380.5,-293 380.5,-315 463.5,-315 463.5,-293 380.5,-293"/>
<text text-anchor="start" x="383.5" y="-301.2" font-family="Helvetica,sans-Serif" font-size="11.00">varchar[255]</text>
<polygon fill="none" stroke="black" points="216.5,-271 216.5,-293 380.5,-293 380.5,-271 216.5,-271"/>
<text text-anchor="start" x="236.5" y="-279.2" font-family="Helvetica,sans-Serif" font-size="11.00">note</text>
<polygon fill="none" stroke="black" points="380.5,-271 380.5,-293 463.5,-293 463.5,-271 380.5,-271"/>
<text text-anchor="start" x="383.5" y="-279.2" font-family="Helvetica,sans-Serif" font-size="11.00">varchar[2000]</text>
<polygon fill="none" stroke="black" points="216.5,-249 216.5,-271 380.5,-271 380.5,-249 216.5,-249"/>
<text text-anchor="start" x="236.5" y="-257.2" font-family="Helvetica,sans-Serif" font-size="11.00">seqno</text>
<polygon fill="none" stroke="black" points="380.5,-249 380.5,-271 463.5,-271 463.5,-249 380.5,-249"/>
<text text-anchor="start" x="383.5" y="-257.2" font-family="Helvetica,sans-Serif" font-size="11.00">numeric[10]</text>
<polygon fill="none" stroke="black" points="216.5,-227 216.5,-249 380.5,-249 380.5,-227 216.5,-227"/>
<image xlink:href="../../images/foreignKeys.png" width="11px" height="12px" preserveAspectRatio="xMinYMin meet" x="221.5" y="-244"/>
<text text-anchor="start" x="236.5" y="-235.2" font-family="Helvetica,sans-Serif" font-size="11.00">pa_measure_id</text>
<polygon fill="none" stroke="black" points="380.5,-227 380.5,-249 463.5,-249 463.5,-227 380.5,-227"/>
<text text-anchor="start" x="383.5" y="-235.2" font-family="Helvetica,sans-Serif" font-size="11.00">numeric[10]</text>
<polygon fill="none" stroke="black" points="216.5,-205 216.5,-227 380.5,-227 380.5,-205 216.5,-205"/>
<text text-anchor="start" x="236.5" y="-213.2" font-family="Helvetica,sans-Serif" font-size="11.00">manualactual</text>
<polygon fill="none" stroke="black" points="380.5,-205 380.5,-227 463.5,-227 463.5,-205 380.5,-205"/>
<text text-anchor="start" x="383.5" y="-213.2" font-family="Helvetica,sans-Serif" font-size="11.00">numeric[0]</text>
<polygon fill="none" stroke="black" points="216.5,-183 216.5,-205 380.5,-205 380.5,-183 216.5,-183"/>
<text text-anchor="start" x="236.5" y="-191.2" font-family="Helvetica,sans-Serif" font-size="11.00">isachieved</text>
<polygon fill="none" stroke="black" points="380.5,-183 380.5,-205 463.5,-205 463.5,-183 380.5,-183"/>
<text text-anchor="start" x="383.5" y="-191.2" font-family="Helvetica,sans-Serif" font-size="11.00">bpchar[1]</text>
<polygon fill="none" stroke="black" points="216.5,-161 216.5,-183 380.5,-183 380.5,-161 216.5,-161"/>
<text text-anchor="start" x="236.5" y="-169.2" font-family="Helvetica,sans-Serif" font-size="11.00">datedoc</text>
<polygon fill="none" stroke="black" points="380.5,-161 380.5,-183 463.5,-183 463.5,-161 380.5,-161"/>
<text text-anchor="start" x="383.5" y="-169.2" font-family="Helvetica,sans-Serif" font-size="11.00">timestamp[29,6]</text>
<polygon fill="#ffffff" stroke="transparent" points="216.5,-139 216.5,-161 380.5,-161 380.5,-139 216.5,-139"/>
<polygon fill="none" stroke="black" points="216.5,-139 216.5,-161 380.5,-161 380.5,-139 216.5,-139"/>
<text text-anchor="start" x="236.5" y="-147.2" font-family="Helvetica,sans-Serif" font-size="11.00">pa_achievement_uu</text>
<polygon fill="none" stroke="black" points="380.5,-139 380.5,-161 463.5,-161 463.5,-139 380.5,-139"/>
<text text-anchor="start" x="383.5" y="-147.2" font-family="Helvetica,sans-Serif" font-size="11.00">varchar[36]</text>
<polygon fill="#ffffff" stroke="transparent" points="216.5,-121 216.5,-139 463.5,-139 463.5,-121 216.5,-121"/>
<polygon fill="none" stroke="black" points="216.5,-121 216.5,-139 463.5,-139 463.5,-121 216.5,-121"/>
<polygon fill="#ffffff" stroke="transparent" points="217.5,-122 217.5,-138 302.5,-138 302.5,-122 217.5,-122"/>
<text text-anchor="start" x="219.5" y="-127.2" font-family="Helvetica,sans-Serif" font-size="11.00">&lt; 1</text>
<polygon fill="#ffffff" stroke="transparent" points="302.5,-122 302.5,-138 378.5,-138 378.5,-122 302.5,-122"/>
<text text-anchor="start" x="337" y="-127.2" font-family="Helvetica,sans-Serif" font-size="11.00"> &#160;</text>
<polygon fill="#ffffff" stroke="transparent" points="378.5,-122 378.5,-138 462.5,-138 462.5,-122 378.5,-122"/>
<text text-anchor="start" x="444.5" y="-127.2" font-family="Helvetica,sans-Serif" font-size="11.00">0 &gt;</text>
<polygon fill="black" stroke="black" points="302.5,-122 302.5,-138 302.5,-138 302.5,-122 302.5,-122"/>
<polygon fill="black" stroke="black" points="378.5,-122 378.5,-138 378.5,-138 378.5,-122 378.5,-122"/>
<polygon fill="none" stroke="black" stroke-width="2" points="215,-120 215,-536 464,-536 464,-120 215,-120"/>
</a>
</g>
</g>
<!-- pa_measure -->
<g id="node2" class="node">
<title>pa_measure</title>
<g id="a_node2"><a xlink:href="../../tables/pa_measure.html" xlink:title="pa_measure" target="_top">
<polygon fill="#ffffff" stroke="transparent" points="8,-37 8,-271 165,-271 165,-37 8,-37"/>
<polygon fill="#f5f5f5" stroke="transparent" points="8.5,-249 8.5,-271 165.5,-271 165.5,-249 8.5,-249"/>
<polygon fill="none" stroke="black" points="8.5,-249 8.5,-271 165.5,-271 165.5,-249 8.5,-249"/>
<text text-anchor="start" x="13.5" y="-258.2" font-family="Helvetica,sans-Serif" font-weight="bold" font-size="11.00">pa_measure</text>
<text text-anchor="start" x="130.5" y="-257.2" font-family="Helvetica,sans-Serif" font-size="11.00">[table]</text>
<polygon fill="none" stroke="black" points="8.5,-227 8.5,-249 165.5,-249 165.5,-227 8.5,-227"/>
<image xlink:href="../../images/primaryKeys.png" width="11px" height="12px" preserveAspectRatio="xMinYMin meet" x="13.5" y="-244"/>
<text text-anchor="start" x="28.5" y="-235.2" font-family="Helvetica,sans-Serif" font-size="11.00">pa_measure_id</text>
<polygon fill="none" stroke="black" points="8.5,-205 8.5,-227 165.5,-227 165.5,-205 8.5,-205"/>
<image xlink:href="../../images/foreignKeys.png" width="11px" height="12px" preserveAspectRatio="xMinYMin meet" x="13.5" y="-222"/>
<text text-anchor="start" x="28.5" y="-213.2" font-family="Helvetica,sans-Serif" font-size="11.00">pa_measurecalc_id</text>
<polygon fill="none" stroke="black" points="8.5,-183 8.5,-205 165.5,-205 165.5,-183 8.5,-183"/>
<image xlink:href="../../images/foreignKeys.png" width="11px" height="12px" preserveAspectRatio="xMinYMin meet" x="13.5" y="-200"/>
<text text-anchor="start" x="28.5" y="-191.2" font-family="Helvetica,sans-Serif" font-size="11.00">pa_benchmark_id</text>
<polygon fill="none" stroke="black" points="8.5,-161 8.5,-183 165.5,-183 165.5,-161 8.5,-161"/>
<image xlink:href="../../images/foreignKeys.png" width="11px" height="12px" preserveAspectRatio="xMinYMin meet" x="13.5" y="-178"/>
<text text-anchor="start" x="28.5" y="-169.2" font-family="Helvetica,sans-Serif" font-size="11.00">pa_ratio_id</text>
<polygon fill="none" stroke="black" points="8.5,-139 8.5,-161 165.5,-161 165.5,-139 8.5,-139"/>
<image xlink:href="../../images/foreignKeys.png" width="11px" height="12px" preserveAspectRatio="xMinYMin meet" x="13.5" y="-156"/>
<text text-anchor="start" x="28.5" y="-147.2" font-family="Helvetica,sans-Serif" font-size="11.00">pa_hierarchy_id</text>
<polygon fill="none" stroke="black" points="8.5,-117 8.5,-139 165.5,-139 165.5,-117 8.5,-117"/>
<image xlink:href="../../images/foreignKeys.png" width="11px" height="12px" preserveAspectRatio="xMinYMin meet" x="13.5" y="-134"/>
<text text-anchor="start" x="28.5" y="-125.2" font-family="Helvetica,sans-Serif" font-size="11.00">r_requesttype_id</text>
<polygon fill="none" stroke="black" points="8.5,-95 8.5,-117 165.5,-117 165.5,-95 8.5,-95"/>
<image xlink:href="../../images/foreignKeys.png" width="11px" height="12px" preserveAspectRatio="xMinYMin meet" x="13.5" y="-112"/>
<text text-anchor="start" x="28.5" y="-103.2" font-family="Helvetica,sans-Serif" font-size="11.00">c_projecttype_id</text>
<polygon fill="#ffffff" stroke="transparent" points="8.5,-73 8.5,-95 165.5,-95 165.5,-73 8.5,-73"/>
<polygon fill="none" stroke="black" points="8.5,-73 8.5,-95 165.5,-95 165.5,-73 8.5,-73"/>
<text text-anchor="start" x="28.5" y="-81.2" font-family="Helvetica,sans-Serif" font-size="11.00">pa_measure_uu</text>
<polygon fill="none" stroke="black" points="8.5,-55 8.5,-73 165.5,-73 165.5,-55 8.5,-55"/>
<text text-anchor="start" x="11.5" y="-61.2" font-family="Helvetica,sans-Serif" font-size="11.00">...</text>
<polygon fill="#ffffff" stroke="transparent" points="8.5,-37 8.5,-55 165.5,-55 165.5,-37 8.5,-37"/>
<polygon fill="none" stroke="black" points="8.5,-37 8.5,-55 165.5,-55 165.5,-37 8.5,-37"/>
<polygon fill="#ffffff" stroke="transparent" points="9.5,-38 9.5,-54 64.5,-54 64.5,-38 9.5,-38"/>
<text text-anchor="start" x="11.5" y="-43.2" font-family="Helvetica,sans-Serif" font-size="11.00">&lt; 6</text>
<polygon fill="#ffffff" stroke="transparent" points="64.5,-38 64.5,-54 110.5,-54 110.5,-38 64.5,-38"/>
<text text-anchor="start" x="84" y="-43.2" font-family="Helvetica,sans-Serif" font-size="11.00"> &#160;</text>
<polygon fill="#ffffff" stroke="transparent" points="110.5,-38 110.5,-54 164.5,-54 164.5,-38 110.5,-38"/>
<text text-anchor="start" x="146.5" y="-43.2" font-family="Helvetica,sans-Serif" font-size="11.00">2 &gt;</text>
<polygon fill="black" stroke="black" points="64.5,-38 64.5,-54 64.5,-54 64.5,-38 64.5,-38"/>
<polygon fill="black" stroke="black" points="110.5,-38 110.5,-54 110.5,-54 110.5,-38 110.5,-38"/>
</a>
</g>
</g>
<!-- pa_achievement&#45;&gt;pa_measure -->
<g id="edge1" class="edge">
<title>pa_achievement:w&#45;&gt;pa_measure:e</title>
<path fill="none" stroke="black" d="M200.99,-238C189.68,-238 182.49,-238 166.5,-238"/>
<polygon fill="black" stroke="black" points="207.5,-238 215.5,-241.6 211.5,-238 215.5,-238 215.5,-238 215.5,-238 211.5,-238 215.5,-234.4 207.5,-238 207.5,-238"/>
<ellipse fill="none" stroke="black" cx="204.3" cy="-238" rx="3.2" ry="3.2"/>
</g>
</g>
</svg>
