<?xml version="1.0" encoding="UTF-8" standalone="no"?>
<!DOCTYPE svg PUBLIC "-//W3C//DTD SVG 1.1//EN"
 "http://www.w3.org/Graphics/SVG/1.1/DTD/svg11.dtd">
<!-- Generated by graphviz version 2.43.0 (0)
 -->
<!-- Title: oneDegreeRelationshipsDiagram Pages: 1 -->
<svg width="770pt" height="1125pt"
 viewBox="0.00 0.00 770.00 1125.00" xmlns="http://www.w3.org/2000/svg" xmlns:xlink="http://www.w3.org/1999/xlink">
<g id="graph0" class="graph" transform="scale(1 1) rotate(0) translate(4 1121)">
<title>oneDegreeRelationshipsDiagram</title>
<polygon fill="#ffffff" stroke="transparent" points="-4,4 -4,-1121 766,-1121 766,4 -4,4"/>
<text text-anchor="middle" x="71.5" y="-7.2" font-family="Helvetica,sans-Serif" font-size="11.00">Generated by SchemaSpy</text>
<!-- pa_sla_goal -->
<g id="node1" class="node">
<title>pa_sla_goal</title>
<g id="a_node1"><a xlink:href="../../tables/pa_sla_goal.html" xlink:title="pa_sla_goal" target="_top">
<polygon fill="#ffffff" stroke="transparent" points="311,-587 311,-1093 544,-1093 544,-587 311,-587"/>
<polygon fill="#f5f5f5" stroke="transparent" points="313.5,-1069 313.5,-1091 542.5,-1091 542.5,-1069 313.5,-1069"/>
<polygon fill="none" stroke="black" points="313.5,-1069 313.5,-1091 542.5,-1091 542.5,-1069 313.5,-1069"/>
<text text-anchor="start" x="318.5" y="-1078.2" font-family="Helvetica,sans-Serif" font-weight="bold" font-size="11.00">pa_sla_goal</text>
<text text-anchor="start" x="507.5" y="-1077.2" font-family="Helvetica,sans-Serif" font-size="11.00">[table]</text>
<polygon fill="none" stroke="black" points="313.5,-1047 313.5,-1069 459.5,-1069 459.5,-1047 313.5,-1047"/>
<image xlink:href="../../images/primaryKeys.png" width="11px" height="12px" preserveAspectRatio="xMinYMin meet" x="318.5" y="-1064"/>
<text text-anchor="start" x="333.5" y="-1055.2" font-family="Helvetica,sans-Serif" font-size="11.00">pa_sla_goal_id</text>
<polygon fill="none" stroke="black" points="459.5,-1047 459.5,-1069 542.5,-1069 542.5,-1047 459.5,-1047"/>
<text text-anchor="start" x="462.5" y="-1055.2" font-family="Helvetica,sans-Serif" font-size="11.00">numeric[10]</text>
<polygon fill="none" stroke="black" points="313.5,-1025 313.5,-1047 459.5,-1047 459.5,-1025 313.5,-1025"/>
<text text-anchor="start" x="333.5" y="-1033.2" font-family="Helvetica,sans-Serif" font-size="11.00">ad_client_id</text>
<polygon fill="none" stroke="black" points="459.5,-1025 459.5,-1047 542.5,-1047 542.5,-1025 459.5,-1025"/>
<text text-anchor="start" x="462.5" y="-1033.2" font-family="Helvetica,sans-Serif" font-size="11.00">numeric[10]</text>
<polygon fill="none" stroke="black" points="313.5,-1003 313.5,-1025 459.5,-1025 459.5,-1003 313.5,-1003"/>
<text text-anchor="start" x="333.5" y="-1011.2" font-family="Helvetica,sans-Serif" font-size="11.00">ad_org_id</text>
<polygon fill="none" stroke="black" points="459.5,-1003 459.5,-1025 542.5,-1025 542.5,-1003 459.5,-1003"/>
<text text-anchor="start" x="462.5" y="-1011.2" font-family="Helvetica,sans-Serif" font-size="11.00">numeric[10]</text>
<polygon fill="none" stroke="black" points="313.5,-981 313.5,-1003 459.5,-1003 459.5,-981 313.5,-981"/>
<text text-anchor="start" x="333.5" y="-989.2" font-family="Helvetica,sans-Serif" font-size="11.00">isactive</text>
<polygon fill="none" stroke="black" points="459.5,-981 459.5,-1003 542.5,-1003 542.5,-981 459.5,-981"/>
<text text-anchor="start" x="462.5" y="-989.2" font-family="Helvetica,sans-Serif" font-size="11.00">bpchar[1]</text>
<polygon fill="none" stroke="black" points="313.5,-959 313.5,-981 459.5,-981 459.5,-959 313.5,-959"/>
<text text-anchor="start" x="333.5" y="-967.2" font-family="Helvetica,sans-Serif" font-size="11.00">created</text>
<polygon fill="none" stroke="black" points="459.5,-959 459.5,-981 542.5,-981 542.5,-959 459.5,-959"/>
<text text-anchor="start" x="462.5" y="-967.2" font-family="Helvetica,sans-Serif" font-size="11.00">timestamp[29,6]</text>
<polygon fill="none" stroke="black" points="313.5,-937 313.5,-959 459.5,-959 459.5,-937 313.5,-937"/>
<text text-anchor="start" x="333.5" y="-945.2" font-family="Helvetica,sans-Serif" font-size="11.00">createdby</text>
<polygon fill="none" stroke="black" points="459.5,-937 459.5,-959 542.5,-959 542.5,-937 459.5,-937"/>
<text text-anchor="start" x="462.5" y="-945.2" font-family="Helvetica,sans-Serif" font-size="11.00">numeric[10]</text>
<polygon fill="none" stroke="black" points="313.5,-915 313.5,-937 459.5,-937 459.5,-915 313.5,-915"/>
<text text-anchor="start" x="333.5" y="-923.2" font-family="Helvetica,sans-Serif" font-size="11.00">updated</text>
<polygon fill="none" stroke="black" points="459.5,-915 459.5,-937 542.5,-937 542.5,-915 459.5,-915"/>
<text text-anchor="start" x="462.5" y="-923.2" font-family="Helvetica,sans-Serif" font-size="11.00">timestamp[29,6]</text>
<polygon fill="none" stroke="black" points="313.5,-893 313.5,-915 459.5,-915 459.5,-893 313.5,-893"/>
<text text-anchor="start" x="333.5" y="-901.2" font-family="Helvetica,sans-Serif" font-size="11.00">updatedby</text>
<polygon fill="none" stroke="black" points="459.5,-893 459.5,-915 542.5,-915 542.5,-893 459.5,-893"/>
<text text-anchor="start" x="462.5" y="-901.2" font-family="Helvetica,sans-Serif" font-size="11.00">numeric[10]</text>
<polygon fill="none" stroke="black" points="313.5,-871 313.5,-893 459.5,-893 459.5,-871 313.5,-871"/>
<text text-anchor="start" x="333.5" y="-879.2" font-family="Helvetica,sans-Serif" font-size="11.00">name</text>
<polygon fill="none" stroke="black" points="459.5,-871 459.5,-893 542.5,-893 542.5,-871 459.5,-871"/>
<text text-anchor="start" x="462.5" y="-879.2" font-family="Helvetica,sans-Serif" font-size="11.00">varchar[60]</text>
<polygon fill="none" stroke="black" points="313.5,-849 313.5,-871 459.5,-871 459.5,-849 313.5,-849"/>
<text text-anchor="start" x="333.5" y="-857.2" font-family="Helvetica,sans-Serif" font-size="11.00">description</text>
<polygon fill="none" stroke="black" points="459.5,-849 459.5,-871 542.5,-871 542.5,-849 459.5,-849"/>
<text text-anchor="start" x="462.5" y="-857.2" font-family="Helvetica,sans-Serif" font-size="11.00">varchar[255]</text>
<polygon fill="none" stroke="black" points="313.5,-827 313.5,-849 459.5,-849 459.5,-827 313.5,-827"/>
<text text-anchor="start" x="333.5" y="-835.2" font-family="Helvetica,sans-Serif" font-size="11.00">help</text>
<polygon fill="none" stroke="black" points="459.5,-827 459.5,-849 542.5,-849 542.5,-827 459.5,-827"/>
<text text-anchor="start" x="462.5" y="-835.2" font-family="Helvetica,sans-Serif" font-size="11.00">varchar[2000]</text>
<polygon fill="none" stroke="black" points="313.5,-805 313.5,-827 459.5,-827 459.5,-805 313.5,-805"/>
<image xlink:href="../../images/foreignKeys.png" width="11px" height="12px" preserveAspectRatio="xMinYMin meet" x="318.5" y="-822"/>
<text text-anchor="start" x="333.5" y="-813.2" font-family="Helvetica,sans-Serif" font-size="11.00">pa_sla_criteria_id</text>
<polygon fill="none" stroke="black" points="459.5,-805 459.5,-827 542.5,-827 542.5,-805 459.5,-805"/>
<text text-anchor="start" x="462.5" y="-813.2" font-family="Helvetica,sans-Serif" font-size="11.00">numeric[10]</text>
<polygon fill="none" stroke="black" points="313.5,-783 313.5,-805 459.5,-805 459.5,-783 313.5,-783"/>
<image xlink:href="../../images/foreignKeys.png" width="11px" height="12px" preserveAspectRatio="xMinYMin meet" x="318.5" y="-800"/>
<text text-anchor="start" x="333.5" y="-791.2" font-family="Helvetica,sans-Serif" font-size="11.00">c_bpartner_id</text>
<polygon fill="none" stroke="black" points="459.5,-783 459.5,-805 542.5,-805 542.5,-783 459.5,-783"/>
<text text-anchor="start" x="462.5" y="-791.2" font-family="Helvetica,sans-Serif" font-size="11.00">numeric[10]</text>
<polygon fill="none" stroke="black" points="313.5,-761 313.5,-783 459.5,-783 459.5,-761 313.5,-761"/>
<text text-anchor="start" x="333.5" y="-769.2" font-family="Helvetica,sans-Serif" font-size="11.00">validfrom</text>
<polygon fill="none" stroke="black" points="459.5,-761 459.5,-783 542.5,-783 542.5,-761 459.5,-761"/>
<text text-anchor="start" x="462.5" y="-769.2" font-family="Helvetica,sans-Serif" font-size="11.00">timestamp[29,6]</text>
<polygon fill="none" stroke="black" points="313.5,-739 313.5,-761 459.5,-761 459.5,-739 313.5,-739"/>
<text text-anchor="start" x="333.5" y="-747.2" font-family="Helvetica,sans-Serif" font-size="11.00">validto</text>
<polygon fill="none" stroke="black" points="459.5,-739 459.5,-761 542.5,-761 542.5,-739 459.5,-739"/>
<text text-anchor="start" x="462.5" y="-747.2" font-family="Helvetica,sans-Serif" font-size="11.00">timestamp[29,6]</text>
<polygon fill="none" stroke="black" points="313.5,-717 313.5,-739 459.5,-739 459.5,-717 313.5,-717"/>
<text text-anchor="start" x="333.5" y="-725.2" font-family="Helvetica,sans-Serif" font-size="11.00">measuretarget</text>
<polygon fill="none" stroke="black" points="459.5,-717 459.5,-739 542.5,-739 542.5,-717 459.5,-717"/>
<text text-anchor="start" x="462.5" y="-725.2" font-family="Helvetica,sans-Serif" font-size="11.00">numeric[0]</text>
<polygon fill="none" stroke="black" points="313.5,-695 313.5,-717 459.5,-717 459.5,-695 313.5,-695"/>
<text text-anchor="start" x="333.5" y="-703.2" font-family="Helvetica,sans-Serif" font-size="11.00">measureactual</text>
<polygon fill="none" stroke="black" points="459.5,-695 459.5,-717 542.5,-717 542.5,-695 459.5,-695"/>
<text text-anchor="start" x="462.5" y="-703.2" font-family="Helvetica,sans-Serif" font-size="11.00">numeric[0]</text>
<polygon fill="none" stroke="black" points="313.5,-673 313.5,-695 459.5,-695 459.5,-673 313.5,-673"/>
<text text-anchor="start" x="333.5" y="-681.2" font-family="Helvetica,sans-Serif" font-size="11.00">datelastrun</text>
<polygon fill="none" stroke="black" points="459.5,-673 459.5,-695 542.5,-695 542.5,-673 459.5,-673"/>
<text text-anchor="start" x="462.5" y="-681.2" font-family="Helvetica,sans-Serif" font-size="11.00">timestamp[29,6]</text>
<polygon fill="none" stroke="black" points="313.5,-651 313.5,-673 459.5,-673 459.5,-651 313.5,-651"/>
<text text-anchor="start" x="333.5" y="-659.2" font-family="Helvetica,sans-Serif" font-size="11.00">processing</text>
<polygon fill="none" stroke="black" points="459.5,-651 459.5,-673 542.5,-673 542.5,-651 459.5,-651"/>
<text text-anchor="start" x="462.5" y="-659.2" font-family="Helvetica,sans-Serif" font-size="11.00">bpchar[1]</text>
<polygon fill="none" stroke="black" points="313.5,-629 313.5,-651 459.5,-651 459.5,-629 313.5,-629"/>
<text text-anchor="start" x="333.5" y="-637.2" font-family="Helvetica,sans-Serif" font-size="11.00">processed</text>
<polygon fill="none" stroke="black" points="459.5,-629 459.5,-651 542.5,-651 542.5,-629 459.5,-629"/>
<text text-anchor="start" x="462.5" y="-637.2" font-family="Helvetica,sans-Serif" font-size="11.00">bpchar[1]</text>
<polygon fill="#ffffff" stroke="transparent" points="313.5,-607 313.5,-629 459.5,-629 459.5,-607 313.5,-607"/>
<polygon fill="none" stroke="black" points="313.5,-607 313.5,-629 459.5,-629 459.5,-607 313.5,-607"/>
<text text-anchor="start" x="333.5" y="-615.2" font-family="Helvetica,sans-Serif" font-size="11.00">pa_sla_goal_uu</text>
<polygon fill="none" stroke="black" points="459.5,-607 459.5,-629 542.5,-629 542.5,-607 459.5,-607"/>
<text text-anchor="start" x="462.5" y="-615.2" font-family="Helvetica,sans-Serif" font-size="11.00">varchar[36]</text>
<polygon fill="#ffffff" stroke="transparent" points="313.5,-589 313.5,-607 542.5,-607 542.5,-589 313.5,-589"/>
<polygon fill="none" stroke="black" points="313.5,-589 313.5,-607 542.5,-607 542.5,-589 313.5,-589"/>
<polygon fill="#ffffff" stroke="transparent" points="314.5,-590 314.5,-606 393.5,-606 393.5,-590 314.5,-590"/>
<text text-anchor="start" x="316.5" y="-595.2" font-family="Helvetica,sans-Serif" font-size="11.00">&lt; 2</text>
<polygon fill="#ffffff" stroke="transparent" points="393.5,-590 393.5,-606 463.5,-606 463.5,-590 393.5,-590"/>
<text text-anchor="start" x="425" y="-595.2" font-family="Helvetica,sans-Serif" font-size="11.00"> &#160;</text>
<polygon fill="#ffffff" stroke="transparent" points="463.5,-590 463.5,-606 541.5,-606 541.5,-590 463.5,-590"/>
<text text-anchor="start" x="523.5" y="-595.2" font-family="Helvetica,sans-Serif" font-size="11.00">1 &gt;</text>
<polygon fill="black" stroke="black" points="393.5,-590 393.5,-606 393.5,-606 393.5,-590 393.5,-590"/>
<polygon fill="black" stroke="black" points="463.5,-590 463.5,-606 463.5,-606 463.5,-590 463.5,-590"/>
<polygon fill="none" stroke="black" stroke-width="2" points="312,-588 312,-1092 543,-1092 543,-588 312,-588"/>
</a>
</g>
</g>
<!-- c_bpartner -->
<g id="node2" class="node">
<title>c_bpartner</title>
<g id="a_node2"><a xlink:href="../../tables/c_bpartner.html" xlink:title="c_bpartner" target="_top">
<polygon fill="#ffffff" stroke="transparent" points="8,-37 8,-777 262,-777 262,-37 8,-37"/>
<polygon fill="#f5f5f5" stroke="transparent" points="8,-755 8,-777 262,-777 262,-755 8,-755"/>
<polygon fill="none" stroke="black" points="8,-755 8,-777 262,-777 262,-755 8,-755"/>
<text text-anchor="start" x="13" y="-764.2" font-family="Helvetica,sans-Serif" font-weight="bold" font-size="11.00">c_bpartner</text>
<text text-anchor="start" x="227" y="-763.2" font-family="Helvetica,sans-Serif" font-size="11.00">[table]</text>
<polygon fill="none" stroke="black" points="8,-733 8,-755 262,-755 262,-733 8,-733"/>
<image xlink:href="../../images/primaryKeys.png" width="11px" height="12px" preserveAspectRatio="xMinYMin meet" x="13" y="-750"/>
<text text-anchor="start" x="28" y="-741.2" font-family="Helvetica,sans-Serif" font-size="11.00">c_bpartner_id</text>
<polygon fill="#ffffff" stroke="transparent" points="8,-711 8,-733 262,-733 262,-711 8,-711"/>
<polygon fill="none" stroke="black" points="8,-711 8,-733 262,-733 262,-711 8,-711"/>
<image xlink:href="../../images/foreignKeys.png" width="11px" height="12px" preserveAspectRatio="xMinYMin meet" x="13" y="-728"/>
<text text-anchor="start" x="28" y="-719.2" font-family="Helvetica,sans-Serif" font-size="11.00">ad_client_id</text>
<polygon fill="none" stroke="black" points="8,-689 8,-711 262,-711 262,-689 8,-689"/>
<image xlink:href="../../images/foreignKeys.png" width="11px" height="12px" preserveAspectRatio="xMinYMin meet" x="13" y="-706"/>
<text text-anchor="start" x="28" y="-697.2" font-family="Helvetica,sans-Serif" font-size="11.00">ad_org_id</text>
<polygon fill="#ffffff" stroke="transparent" points="8,-667 8,-689 262,-689 262,-667 8,-667"/>
<polygon fill="none" stroke="black" points="8,-667 8,-689 262,-689 262,-667 8,-667"/>
<text text-anchor="start" x="28" y="-675.2" font-family="Helvetica,sans-Serif" font-size="11.00">value</text>
<polygon fill="#ffffff" stroke="transparent" points="8,-645 8,-667 262,-667 262,-645 8,-645"/>
<polygon fill="none" stroke="black" points="8,-645 8,-667 262,-667 262,-645 8,-645"/>
<text text-anchor="start" x="28" y="-653.2" font-family="Helvetica,sans-Serif" font-size="11.00">name</text>
<polygon fill="none" stroke="black" points="8,-623 8,-645 262,-645 262,-623 8,-623"/>
<image xlink:href="../../images/foreignKeys.png" width="11px" height="12px" preserveAspectRatio="xMinYMin meet" x="13" y="-640"/>
<text text-anchor="start" x="28" y="-631.2" font-family="Helvetica,sans-Serif" font-size="11.00">c_bp_group_id</text>
<polygon fill="none" stroke="black" points="8,-601 8,-623 262,-623 262,-601 8,-601"/>
<image xlink:href="../../images/foreignKeys.png" width="11px" height="12px" preserveAspectRatio="xMinYMin meet" x="13" y="-618"/>
<text text-anchor="start" x="28" y="-609.2" font-family="Helvetica,sans-Serif" font-size="11.00">ad_language</text>
<polygon fill="none" stroke="black" points="8,-579 8,-601 262,-601 262,-579 8,-579"/>
<image xlink:href="../../images/foreignKeys.png" width="11px" height="12px" preserveAspectRatio="xMinYMin meet" x="13" y="-596"/>
<text text-anchor="start" x="28" y="-587.2" font-family="Helvetica,sans-Serif" font-size="11.00">c_invoiceschedule_id</text>
<polygon fill="none" stroke="black" points="8,-557 8,-579 262,-579 262,-557 8,-557"/>
<image xlink:href="../../images/foreignKeys.png" width="11px" height="12px" preserveAspectRatio="xMinYMin meet" x="13" y="-574"/>
<text text-anchor="start" x="28" y="-565.2" font-family="Helvetica,sans-Serif" font-size="11.00">c_paymentterm_id</text>
<polygon fill="none" stroke="black" points="8,-535 8,-557 262,-557 262,-535 8,-535"/>
<image xlink:href="../../images/foreignKeys.png" width="11px" height="12px" preserveAspectRatio="xMinYMin meet" x="13" y="-552"/>
<text text-anchor="start" x="28" y="-543.2" font-family="Helvetica,sans-Serif" font-size="11.00">m_pricelist_id</text>
<polygon fill="none" stroke="black" points="8,-513 8,-535 262,-535 262,-513 8,-513"/>
<image xlink:href="../../images/foreignKeys.png" width="11px" height="12px" preserveAspectRatio="xMinYMin meet" x="13" y="-530"/>
<text text-anchor="start" x="28" y="-521.2" font-family="Helvetica,sans-Serif" font-size="11.00">m_discountschema_id</text>
<polygon fill="none" stroke="black" points="8,-491 8,-513 262,-513 262,-491 8,-491"/>
<image xlink:href="../../images/foreignKeys.png" width="11px" height="12px" preserveAspectRatio="xMinYMin meet" x="13" y="-508"/>
<text text-anchor="start" x="28" y="-499.2" font-family="Helvetica,sans-Serif" font-size="11.00">c_dunning_id</text>
<polygon fill="none" stroke="black" points="8,-469 8,-491 262,-491 262,-469 8,-469"/>
<image xlink:href="../../images/foreignKeys.png" width="11px" height="12px" preserveAspectRatio="xMinYMin meet" x="13" y="-486"/>
<text text-anchor="start" x="28" y="-477.2" font-family="Helvetica,sans-Serif" font-size="11.00">po_pricelist_id</text>
<polygon fill="none" stroke="black" points="8,-447 8,-469 262,-469 262,-447 8,-447"/>
<image xlink:href="../../images/foreignKeys.png" width="11px" height="12px" preserveAspectRatio="xMinYMin meet" x="13" y="-464"/>
<text text-anchor="start" x="28" y="-455.2" font-family="Helvetica,sans-Serif" font-size="11.00">po_discountschema_id</text>
<polygon fill="none" stroke="black" points="8,-425 8,-447 262,-447 262,-425 8,-425"/>
<image xlink:href="../../images/foreignKeys.png" width="11px" height="12px" preserveAspectRatio="xMinYMin meet" x="13" y="-442"/>
<text text-anchor="start" x="28" y="-433.2" font-family="Helvetica,sans-Serif" font-size="11.00">po_paymentterm_id</text>
<polygon fill="none" stroke="black" points="8,-403 8,-425 262,-425 262,-403 8,-403"/>
<image xlink:href="../../images/foreignKeys.png" width="11px" height="12px" preserveAspectRatio="xMinYMin meet" x="13" y="-420"/>
<text text-anchor="start" x="28" y="-411.2" font-family="Helvetica,sans-Serif" font-size="11.00">c_greeting_id</text>
<polygon fill="none" stroke="black" points="8,-381 8,-403 262,-403 262,-381 8,-381"/>
<image xlink:href="../../images/foreignKeys.png" width="11px" height="12px" preserveAspectRatio="xMinYMin meet" x="13" y="-398"/>
<text text-anchor="start" x="28" y="-389.2" font-family="Helvetica,sans-Serif" font-size="11.00">salesrep_id</text>
<polygon fill="none" stroke="black" points="8,-359 8,-381 262,-381 262,-359 8,-359"/>
<image xlink:href="../../images/foreignKeys.png" width="11px" height="12px" preserveAspectRatio="xMinYMin meet" x="13" y="-376"/>
<text text-anchor="start" x="28" y="-367.2" font-family="Helvetica,sans-Serif" font-size="11.00">bpartner_parent_id</text>
<polygon fill="none" stroke="black" points="8,-337 8,-359 262,-359 262,-337 8,-337"/>
<image xlink:href="../../images/foreignKeys.png" width="11px" height="12px" preserveAspectRatio="xMinYMin meet" x="13" y="-354"/>
<text text-anchor="start" x="28" y="-345.2" font-family="Helvetica,sans-Serif" font-size="11.00">invoice_printformat_id</text>
<polygon fill="#ffffff" stroke="transparent" points="8,-315 8,-337 262,-337 262,-315 8,-315"/>
<polygon fill="none" stroke="black" points="8,-315 8,-337 262,-337 262,-315 8,-315"/>
<image xlink:href="../../images/foreignKeys.png" width="11px" height="12px" preserveAspectRatio="xMinYMin meet" x="13" y="-332"/>
<text text-anchor="start" x="28" y="-323.2" font-family="Helvetica,sans-Serif" font-size="11.00">ad_orgbp_id</text>
<polygon fill="none" stroke="black" points="8,-293 8,-315 262,-315 262,-293 8,-293"/>
<image xlink:href="../../images/foreignKeys.png" width="11px" height="12px" preserveAspectRatio="xMinYMin meet" x="13" y="-310"/>
<text text-anchor="start" x="28" y="-301.2" font-family="Helvetica,sans-Serif" font-size="11.00">c_taxgroup_id</text>
<polygon fill="none" stroke="black" points="8,-271 8,-293 262,-293 262,-271 8,-271"/>
<image xlink:href="../../images/foreignKeys.png" width="11px" height="12px" preserveAspectRatio="xMinYMin meet" x="13" y="-288"/>
<text text-anchor="start" x="28" y="-279.2" font-family="Helvetica,sans-Serif" font-size="11.00">logo_id</text>
<polygon fill="#ffffff" stroke="transparent" points="8,-249 8,-271 262,-271 262,-249 8,-249"/>
<polygon fill="none" stroke="black" points="8,-249 8,-271 262,-271 262,-249 8,-249"/>
<text text-anchor="start" x="28" y="-257.2" font-family="Helvetica,sans-Serif" font-size="11.00">c_bpartner_uu</text>
<polygon fill="none" stroke="black" points="8,-227 8,-249 262,-249 262,-227 8,-227"/>
<image xlink:href="../../images/foreignKeys.png" width="11px" height="12px" preserveAspectRatio="xMinYMin meet" x="13" y="-244"/>
<text text-anchor="start" x="28" y="-235.2" font-family="Helvetica,sans-Serif" font-size="11.00">default1099box_id</text>
<polygon fill="none" stroke="black" points="8,-205 8,-227 262,-227 262,-205 8,-205"/>
<image xlink:href="../../images/foreignKeys.png" width="11px" height="12px" preserveAspectRatio="xMinYMin meet" x="13" y="-222"/>
<text text-anchor="start" x="28" y="-213.2" font-family="Helvetica,sans-Serif" font-size="11.00">cof_c_custody_id</text>
<polygon fill="none" stroke="black" points="8,-183 8,-205 262,-205 262,-183 8,-183"/>
<image xlink:href="../../images/foreignKeys.png" width="11px" height="12px" preserveAspectRatio="xMinYMin meet" x="13" y="-200"/>
<text text-anchor="start" x="28" y="-191.2" font-family="Helvetica,sans-Serif" font-size="11.00">cof_doctypepurchase_id</text>
<polygon fill="none" stroke="black" points="8,-161 8,-183 262,-183 262,-161 8,-161"/>
<image xlink:href="../../images/foreignKeys.png" width="11px" height="12px" preserveAspectRatio="xMinYMin meet" x="13" y="-178"/>
<text text-anchor="start" x="28" y="-169.2" font-family="Helvetica,sans-Serif" font-size="11.00">cof_doctypesale_id</text>
<polygon fill="none" stroke="black" points="8,-139 8,-161 262,-161 262,-139 8,-139"/>
<image xlink:href="../../images/foreignKeys.png" width="11px" height="12px" preserveAspectRatio="xMinYMin meet" x="13" y="-156"/>
<text text-anchor="start" x="28" y="-147.2" font-family="Helvetica,sans-Serif" font-size="11.00">cof_grupofornecedor_id</text>
<polygon fill="none" stroke="black" points="8,-117 8,-139 262,-139 262,-117 8,-117"/>
<image xlink:href="../../images/foreignKeys.png" width="11px" height="12px" preserveAspectRatio="xMinYMin meet" x="13" y="-134"/>
<text text-anchor="start" x="28" y="-125.2" font-family="Helvetica,sans-Serif" font-size="11.00">cof_vendedorinterno_id</text>
<polygon fill="none" stroke="black" points="8,-95 8,-117 262,-117 262,-95 8,-95"/>
<image xlink:href="../../images/foreignKeys.png" width="11px" height="12px" preserveAspectRatio="xMinYMin meet" x="13" y="-112"/>
<text text-anchor="start" x="28" y="-103.2" font-family="Helvetica,sans-Serif" font-size="11.00">cof_tipoparceiro_id</text>
<polygon fill="none" stroke="black" points="8,-73 8,-95 262,-95 262,-73 8,-73"/>
<image xlink:href="../../images/foreignKeys.png" width="11px" height="12px" preserveAspectRatio="xMinYMin meet" x="13" y="-90"/>
<text text-anchor="start" x="28" y="-81.2" font-family="Helvetica,sans-Serif" font-size="11.00">cof_classeparceiro_id</text>
<polygon fill="none" stroke="black" points="8,-55 8,-73 262,-73 262,-55 8,-55"/>
<text text-anchor="start" x="11" y="-61.2" font-family="Helvetica,sans-Serif" font-size="11.00">...</text>
<polygon fill="#ffffff" stroke="transparent" points="8,-37 8,-55 262,-55 262,-37 8,-37"/>
<polygon fill="none" stroke="black" points="8,-37 8,-55 262,-55 262,-37 8,-37"/>
<polygon fill="#ffffff" stroke="transparent" points="9,-38 9,-54 88,-54 88,-38 9,-38"/>
<text text-anchor="start" x="11" y="-43.2" font-family="Helvetica,sans-Serif" font-size="11.00">&lt; 27</text>
<polygon fill="#ffffff" stroke="transparent" points="88,-38 88,-54 177,-54 177,-38 88,-38"/>
<text text-anchor="start" x="116" y="-43.2" font-family="Helvetica,sans-Serif" font-size="11.00">4 rows</text>
<polygon fill="#ffffff" stroke="transparent" points="177,-38 177,-54 261,-54 261,-38 177,-38"/>
<text text-anchor="start" x="231" y="-43.2" font-family="Helvetica,sans-Serif" font-size="11.00">187 &gt;</text>
<polygon fill="black" stroke="black" points="88,-38 88,-54 88,-54 88,-38 88,-38"/>
<polygon fill="black" stroke="black" points="177,-38 177,-54 177,-54 177,-38 177,-38"/>
</a>
</g>
</g>
<!-- pa_sla_goal&#45;&gt;c_bpartner -->
<g id="edge1" class="edge">
<title>pa_sla_goal:w&#45;&gt;c_bpartner:e</title>
<path fill="none" stroke="black" d="M298.59,-789.02C284.63,-776.38 288.16,-744 263,-744"/>
<polygon fill="black" stroke="black" points="304.97,-791.31 311.29,-797.39 308.73,-792.65 312.5,-794 312.5,-794 312.5,-794 308.73,-792.65 313.71,-790.61 304.97,-791.31 304.97,-791.31"/>
<ellipse fill="none" stroke="black" cx="301.95" cy="-790.23" rx="3.2" ry="3.2"/>
</g>
<!-- pa_sla_criteria -->
<g id="node3" class="node">
<title>pa_sla_criteria</title>
<g id="a_node3"><a xlink:href="../../tables/pa_sla_criteria.html" xlink:title="pa_sla_criteria" target="_top">
<polygon fill="#ffffff" stroke="transparent" points="59.5,-798 59.5,-900 210.5,-900 210.5,-798 59.5,-798"/>
<polygon fill="#f5f5f5" stroke="transparent" points="60,-878 60,-900 211,-900 211,-878 60,-878"/>
<polygon fill="none" stroke="black" points="60,-878 60,-900 211,-900 211,-878 60,-878"/>
<text text-anchor="start" x="65" y="-887.2" font-family="Helvetica,sans-Serif" font-weight="bold" font-size="11.00">pa_sla_criteria</text>
<text text-anchor="start" x="176" y="-886.2" font-family="Helvetica,sans-Serif" font-size="11.00">[table]</text>
<polygon fill="none" stroke="black" points="60,-856 60,-878 211,-878 211,-856 60,-856"/>
<image xlink:href="../../images/primaryKeys.png" width="11px" height="12px" preserveAspectRatio="xMinYMin meet" x="65" y="-873"/>
<text text-anchor="start" x="80" y="-864.2" font-family="Helvetica,sans-Serif" font-size="11.00">pa_sla_criteria_id</text>
<polygon fill="#ffffff" stroke="transparent" points="60,-834 60,-856 211,-856 211,-834 60,-834"/>
<polygon fill="none" stroke="black" points="60,-834 60,-856 211,-856 211,-834 60,-834"/>
<text text-anchor="start" x="80" y="-842.2" font-family="Helvetica,sans-Serif" font-size="11.00">pa_sla_criteria_uu</text>
<polygon fill="none" stroke="black" points="60,-816 60,-834 211,-834 211,-816 60,-816"/>
<text text-anchor="start" x="63" y="-822.2" font-family="Helvetica,sans-Serif" font-size="11.00">...</text>
<polygon fill="#ffffff" stroke="transparent" points="60,-798 60,-816 211,-816 211,-798 60,-798"/>
<polygon fill="none" stroke="black" points="60,-798 60,-816 211,-816 211,-798 60,-798"/>
<polygon fill="#ffffff" stroke="transparent" points="61,-799 61,-815 101,-815 101,-799 61,-799"/>
<text text-anchor="start" x="63" y="-804.2" font-family="Helvetica,sans-Serif" font-size="11.00"> &#160;</text>
<polygon fill="#ffffff" stroke="transparent" points="101,-799 101,-815 162,-815 162,-799 101,-799"/>
<text text-anchor="start" x="117.5" y="-804.2" font-family="Helvetica,sans-Serif" font-size="11.00">1 row</text>
<polygon fill="#ffffff" stroke="transparent" points="162,-799 162,-815 210,-815 210,-799 162,-799"/>
<text text-anchor="start" x="192" y="-804.2" font-family="Helvetica,sans-Serif" font-size="11.00">1 &gt;</text>
<polygon fill="black" stroke="black" points="101,-799 101,-815 101,-815 101,-799 101,-799"/>
<polygon fill="black" stroke="black" points="162,-799 162,-815 162,-815 162,-799 162,-799"/>
</a>
</g>
</g>
<!-- pa_sla_goal&#45;&gt;pa_sla_criteria -->
<g id="edge2" class="edge">
<title>pa_sla_goal:w&#45;&gt;pa_sla_criteria:e</title>
<path fill="none" stroke="black" d="M297.72,-817.7C261.75,-826.55 256.61,-867 212,-867"/>
<polygon fill="black" stroke="black" points="304.55,-816.91 312.91,-819.58 308.53,-816.46 312.5,-816 312.5,-816 312.5,-816 308.53,-816.46 312.09,-812.42 304.55,-816.91 304.55,-816.91"/>
<ellipse fill="none" stroke="black" cx="301.37" cy="-817.28" rx="3.2" ry="3.2"/>
</g>
<!-- pa_sla_measure -->
<g id="node4" class="node">
<title>pa_sla_measure</title>
<g id="a_node4"><a xlink:href="../../tables/pa_sla_measure.html" xlink:title="pa_sla_measure" target="_top">
<polygon fill="#ffffff" stroke="transparent" points="593,-967 593,-1113 754,-1113 754,-967 593,-967"/>
<polygon fill="#f5f5f5" stroke="transparent" points="593.5,-1091 593.5,-1113 754.5,-1113 754.5,-1091 593.5,-1091"/>
<polygon fill="none" stroke="black" points="593.5,-1091 593.5,-1113 754.5,-1113 754.5,-1091 593.5,-1091"/>
<text text-anchor="start" x="598.5" y="-1100.2" font-family="Helvetica,sans-Serif" font-weight="bold" font-size="11.00">pa_sla_measure</text>
<text text-anchor="start" x="719.5" y="-1099.2" font-family="Helvetica,sans-Serif" font-size="11.00">[table]</text>
<polygon fill="none" stroke="black" points="593.5,-1069 593.5,-1091 754.5,-1091 754.5,-1069 593.5,-1069"/>
<image xlink:href="../../images/primaryKeys.png" width="11px" height="12px" preserveAspectRatio="xMinYMin meet" x="598.5" y="-1086"/>
<text text-anchor="start" x="613.5" y="-1077.2" font-family="Helvetica,sans-Serif" font-size="11.00">pa_sla_measure_id</text>
<polygon fill="none" stroke="black" points="593.5,-1047 593.5,-1069 754.5,-1069 754.5,-1047 593.5,-1047"/>
<image xlink:href="../../images/foreignKeys.png" width="11px" height="12px" preserveAspectRatio="xMinYMin meet" x="598.5" y="-1064"/>
<text text-anchor="start" x="613.5" y="-1055.2" font-family="Helvetica,sans-Serif" font-size="11.00">pa_sla_goal_id</text>
<polygon fill="none" stroke="black" points="593.5,-1025 593.5,-1047 754.5,-1047 754.5,-1025 593.5,-1025"/>
<image xlink:href="../../images/foreignKeys.png" width="11px" height="12px" preserveAspectRatio="xMinYMin meet" x="598.5" y="-1042"/>
<text text-anchor="start" x="613.5" y="-1033.2" font-family="Helvetica,sans-Serif" font-size="11.00">ad_table_id</text>
<polygon fill="#ffffff" stroke="transparent" points="593.5,-1003 593.5,-1025 754.5,-1025 754.5,-1003 593.5,-1003"/>
<polygon fill="none" stroke="black" points="593.5,-1003 593.5,-1025 754.5,-1025 754.5,-1003 593.5,-1003"/>
<text text-anchor="start" x="613.5" y="-1011.2" font-family="Helvetica,sans-Serif" font-size="11.00">pa_sla_measure_uu</text>
<polygon fill="none" stroke="black" points="593.5,-985 593.5,-1003 754.5,-1003 754.5,-985 593.5,-985"/>
<text text-anchor="start" x="596.5" y="-991.2" font-family="Helvetica,sans-Serif" font-size="11.00">...</text>
<polygon fill="#ffffff" stroke="transparent" points="593.5,-967 593.5,-985 754.5,-985 754.5,-967 593.5,-967"/>
<polygon fill="none" stroke="black" points="593.5,-967 593.5,-985 754.5,-985 754.5,-967 593.5,-967"/>
<polygon fill="#ffffff" stroke="transparent" points="594.5,-968 594.5,-984 653.5,-984 653.5,-968 594.5,-968"/>
<text text-anchor="start" x="596.5" y="-973.2" font-family="Helvetica,sans-Serif" font-size="11.00">&lt; 2</text>
<polygon fill="#ffffff" stroke="transparent" points="653.5,-968 653.5,-984 703.5,-984 703.5,-968 653.5,-968"/>
<text text-anchor="start" x="675" y="-973.2" font-family="Helvetica,sans-Serif" font-size="11.00"> &#160;</text>
<polygon fill="#ffffff" stroke="transparent" points="703.5,-968 703.5,-984 753.5,-984 753.5,-968 703.5,-968"/>
<text text-anchor="start" x="744.5" y="-973.2" font-family="Helvetica,sans-Serif" font-size="11.00"> &#160;</text>
<polygon fill="black" stroke="black" points="653.5,-968 653.5,-984 653.5,-984 653.5,-968 653.5,-968"/>
<polygon fill="black" stroke="black" points="703.5,-968 703.5,-984 703.5,-984 703.5,-968 703.5,-968"/>
</a>
</g>
</g>
<!-- pa_sla_measure&#45;&gt;pa_sla_goal -->
<g id="edge3" class="edge">
<title>pa_sla_measure:w&#45;&gt;pa_sla_goal:e</title>
<path fill="none" stroke="black" d="M577.99,-1058C566.68,-1058 559.49,-1058 543.5,-1058"/>
<polygon fill="black" stroke="black" points="584.5,-1058 592.5,-1061.6 588.5,-1058 592.5,-1058 592.5,-1058 592.5,-1058 588.5,-1058 592.5,-1054.4 584.5,-1058 584.5,-1058"/>
<ellipse fill="none" stroke="black" cx="581.3" cy="-1058" rx="3.2" ry="3.2"/>
</g>
</g>
</svg>
