<?xml version="1.0" encoding="UTF-8" standalone="no"?>
<!DOCTYPE svg PUBLIC "-//W3C//DTD SVG 1.1//EN"
 "http://www.w3.org/Graphics/SVG/1.1/DTD/svg11.dtd">
<!-- Generated by graphviz version 2.43.0 (0)
 -->
<!-- Title: oneDegreeRelationshipsDiagram Pages: 1 -->
<svg width="348pt" height="1527pt"
 viewBox="0.00 0.00 348.00 1527.00" xmlns="http://www.w3.org/2000/svg" xmlns:xlink="http://www.w3.org/1999/xlink">
<g id="graph0" class="graph" transform="scale(1 1) rotate(0) translate(4 1523)">
<title>oneDegreeRelationshipsDiagram</title>
<polygon fill="#ffffff" stroke="transparent" points="-4,4 -4,-1523 344,-1523 344,4 -4,4"/>
<text text-anchor="middle" x="71.5" y="-7.2" font-family="Helvetica,sans-Serif" font-size="11.00">Generated by SchemaSpy</text>
<!-- pp_order_header_v -->
<g id="node1" class="node">
<title>pp_order_header_v</title>
<g id="a_node1"><a xlink:href="../../tables/pp_order_header_v.html" xlink:title="pp_order_header_v" target="_top">
<polygon fill="#ffffff" stroke="transparent" points="8,-37 8,-1515 332,-1515 332,-37 8,-37"/>
<polygon fill="#f5f5f5" stroke="transparent" points="10,-1491 10,-1513 330,-1513 330,-1491 10,-1491"/>
<polygon fill="none" stroke="black" points="10,-1491 10,-1513 330,-1513 330,-1491 10,-1491"/>
<text text-anchor="start" x="15" y="-1500.2" font-family="Helvetica,sans-Serif" font-weight="bold" font-size="11.00">pp_order_header_v</text>
<text text-anchor="start" x="297" y="-1499.2" font-family="Helvetica,sans-Serif" font-size="11.00">[view]</text>
<polygon fill="none" stroke="black" points="10,-1469 10,-1491 221,-1491 221,-1469 10,-1469"/>
<text text-anchor="start" x="30" y="-1477.2" font-family="Helvetica,sans-Serif" font-size="11.00">ad_client_id</text>
<polygon fill="none" stroke="black" points="221,-1469 221,-1491 330,-1491 330,-1469 221,-1469"/>
<text text-anchor="start" x="224" y="-1477.2" font-family="Helvetica,sans-Serif" font-size="11.00">numeric[10]</text>
<polygon fill="none" stroke="black" points="10,-1447 10,-1469 221,-1469 221,-1447 10,-1447"/>
<text text-anchor="start" x="30" y="-1455.2" font-family="Helvetica,sans-Serif" font-size="11.00">ad_org_id</text>
<polygon fill="none" stroke="black" points="221,-1447 221,-1469 330,-1469 330,-1447 221,-1447"/>
<text text-anchor="start" x="224" y="-1455.2" font-family="Helvetica,sans-Serif" font-size="11.00">numeric[10]</text>
<polygon fill="none" stroke="black" points="10,-1425 10,-1447 221,-1447 221,-1425 10,-1425"/>
<text text-anchor="start" x="30" y="-1433.2" font-family="Helvetica,sans-Serif" font-size="11.00">isactive</text>
<polygon fill="none" stroke="black" points="221,-1425 221,-1447 330,-1447 330,-1425 221,-1425"/>
<text text-anchor="start" x="224" y="-1433.2" font-family="Helvetica,sans-Serif" font-size="11.00">bpchar[1]</text>
<polygon fill="none" stroke="black" points="10,-1403 10,-1425 221,-1425 221,-1403 10,-1403"/>
<text text-anchor="start" x="30" y="-1411.2" font-family="Helvetica,sans-Serif" font-size="11.00">created</text>
<polygon fill="none" stroke="black" points="221,-1403 221,-1425 330,-1425 330,-1403 221,-1403"/>
<text text-anchor="start" x="224" y="-1411.2" font-family="Helvetica,sans-Serif" font-size="11.00">timestamp[29,6]</text>
<polygon fill="none" stroke="black" points="10,-1381 10,-1403 221,-1403 221,-1381 10,-1381"/>
<text text-anchor="start" x="30" y="-1389.2" font-family="Helvetica,sans-Serif" font-size="11.00">createdby</text>
<polygon fill="none" stroke="black" points="221,-1381 221,-1403 330,-1403 330,-1381 221,-1381"/>
<text text-anchor="start" x="224" y="-1389.2" font-family="Helvetica,sans-Serif" font-size="11.00">numeric[10]</text>
<polygon fill="none" stroke="black" points="10,-1359 10,-1381 221,-1381 221,-1359 10,-1359"/>
<text text-anchor="start" x="30" y="-1367.2" font-family="Helvetica,sans-Serif" font-size="11.00">updated</text>
<polygon fill="none" stroke="black" points="221,-1359 221,-1381 330,-1381 330,-1359 221,-1359"/>
<text text-anchor="start" x="224" y="-1367.2" font-family="Helvetica,sans-Serif" font-size="11.00">timestamp[29,6]</text>
<polygon fill="none" stroke="black" points="10,-1337 10,-1359 221,-1359 221,-1337 10,-1337"/>
<text text-anchor="start" x="30" y="-1345.2" font-family="Helvetica,sans-Serif" font-size="11.00">updatedby</text>
<polygon fill="none" stroke="black" points="221,-1337 221,-1359 330,-1359 330,-1337 221,-1337"/>
<text text-anchor="start" x="224" y="-1345.2" font-family="Helvetica,sans-Serif" font-size="11.00">numeric[10]</text>
<polygon fill="none" stroke="black" points="10,-1315 10,-1337 221,-1337 221,-1315 10,-1315"/>
<text text-anchor="start" x="30" y="-1323.2" font-family="Helvetica,sans-Serif" font-size="11.00">ad_language</text>
<polygon fill="none" stroke="black" points="221,-1315 221,-1337 330,-1337 330,-1315 221,-1315"/>
<text text-anchor="start" x="224" y="-1323.2" font-family="Helvetica,sans-Serif" font-size="11.00">varchar[2147483647]</text>
<polygon fill="none" stroke="black" points="10,-1293 10,-1315 221,-1315 221,-1293 10,-1293"/>
<text text-anchor="start" x="30" y="-1301.2" font-family="Helvetica,sans-Serif" font-size="11.00">pp_order_id</text>
<polygon fill="none" stroke="black" points="221,-1293 221,-1315 330,-1315 330,-1293 221,-1293"/>
<text text-anchor="start" x="224" y="-1301.2" font-family="Helvetica,sans-Serif" font-size="11.00">numeric[10]</text>
<polygon fill="none" stroke="black" points="10,-1271 10,-1293 221,-1293 221,-1271 10,-1271"/>
<text text-anchor="start" x="30" y="-1279.2" font-family="Helvetica,sans-Serif" font-size="11.00">documentno</text>
<polygon fill="none" stroke="black" points="221,-1271 221,-1293 330,-1293 330,-1271 221,-1271"/>
<text text-anchor="start" x="224" y="-1279.2" font-family="Helvetica,sans-Serif" font-size="11.00">varchar[60]</text>
<polygon fill="none" stroke="black" points="10,-1249 10,-1271 221,-1271 221,-1249 10,-1249"/>
<text text-anchor="start" x="30" y="-1257.2" font-family="Helvetica,sans-Serif" font-size="11.00">docstatus</text>
<polygon fill="none" stroke="black" points="221,-1249 221,-1271 330,-1271 330,-1249 221,-1249"/>
<text text-anchor="start" x="224" y="-1257.2" font-family="Helvetica,sans-Serif" font-size="11.00">bpchar[2]</text>
<polygon fill="none" stroke="black" points="10,-1227 10,-1249 221,-1249 221,-1227 10,-1227"/>
<text text-anchor="start" x="30" y="-1235.2" font-family="Helvetica,sans-Serif" font-size="11.00">c_doctype_id</text>
<polygon fill="none" stroke="black" points="221,-1227 221,-1249 330,-1249 330,-1227 221,-1227"/>
<text text-anchor="start" x="224" y="-1235.2" font-family="Helvetica,sans-Serif" font-size="11.00">numeric[10]</text>
<polygon fill="none" stroke="black" points="10,-1205 10,-1227 221,-1227 221,-1205 10,-1205"/>
<text text-anchor="start" x="30" y="-1213.2" font-family="Helvetica,sans-Serif" font-size="11.00">org_location_id</text>
<polygon fill="none" stroke="black" points="221,-1205 221,-1227 330,-1227 330,-1205 221,-1205"/>
<text text-anchor="start" x="224" y="-1213.2" font-family="Helvetica,sans-Serif" font-size="11.00">numeric[10]</text>
<polygon fill="none" stroke="black" points="10,-1183 10,-1205 221,-1205 221,-1183 10,-1183"/>
<text text-anchor="start" x="30" y="-1191.2" font-family="Helvetica,sans-Serif" font-size="11.00">taxid</text>
<polygon fill="none" stroke="black" points="221,-1183 221,-1205 330,-1205 330,-1183 221,-1183"/>
<text text-anchor="start" x="224" y="-1191.2" font-family="Helvetica,sans-Serif" font-size="11.00">varchar[20]</text>
<polygon fill="none" stroke="black" points="10,-1161 10,-1183 221,-1183 221,-1161 10,-1161"/>
<text text-anchor="start" x="30" y="-1169.2" font-family="Helvetica,sans-Serif" font-size="11.00">m_warehouse_id</text>
<polygon fill="none" stroke="black" points="221,-1161 221,-1183 330,-1183 330,-1161 221,-1161"/>
<text text-anchor="start" x="224" y="-1169.2" font-family="Helvetica,sans-Serif" font-size="11.00">numeric[10]</text>
<polygon fill="none" stroke="black" points="10,-1139 10,-1161 221,-1161 221,-1139 10,-1139"/>
<text text-anchor="start" x="30" y="-1147.2" font-family="Helvetica,sans-Serif" font-size="11.00">warehouse_location_id</text>
<polygon fill="none" stroke="black" points="221,-1139 221,-1161 330,-1161 330,-1139 221,-1139"/>
<text text-anchor="start" x="224" y="-1147.2" font-family="Helvetica,sans-Serif" font-size="11.00">numeric[10]</text>
<polygon fill="none" stroke="black" points="10,-1117 10,-1139 221,-1139 221,-1117 10,-1117"/>
<text text-anchor="start" x="30" y="-1125.2" font-family="Helvetica,sans-Serif" font-size="11.00">documenttype</text>
<polygon fill="none" stroke="black" points="221,-1117 221,-1139 330,-1139 330,-1117 221,-1117"/>
<text text-anchor="start" x="224" y="-1125.2" font-family="Helvetica,sans-Serif" font-size="11.00">varchar[60]</text>
<polygon fill="none" stroke="black" points="10,-1095 10,-1117 221,-1117 221,-1095 10,-1095"/>
<text text-anchor="start" x="30" y="-1103.2" font-family="Helvetica,sans-Serif" font-size="11.00">documenttypenote</text>
<polygon fill="none" stroke="black" points="221,-1095 221,-1117 330,-1117 330,-1095 221,-1095"/>
<text text-anchor="start" x="224" y="-1103.2" font-family="Helvetica,sans-Serif" font-size="11.00">varchar[2000]</text>
<polygon fill="none" stroke="black" points="10,-1073 10,-1095 221,-1095 221,-1073 10,-1073"/>
<text text-anchor="start" x="30" y="-1081.2" font-family="Helvetica,sans-Serif" font-size="11.00">planner_id</text>
<polygon fill="none" stroke="black" points="221,-1073 221,-1095 330,-1095 330,-1073 221,-1073"/>
<text text-anchor="start" x="224" y="-1081.2" font-family="Helvetica,sans-Serif" font-size="11.00">numeric[10]</text>
<polygon fill="none" stroke="black" points="10,-1051 10,-1073 221,-1073 221,-1051 10,-1051"/>
<text text-anchor="start" x="30" y="-1059.2" font-family="Helvetica,sans-Serif" font-size="11.00">salesrep_name</text>
<polygon fill="none" stroke="black" points="221,-1051 221,-1073 330,-1073 330,-1051 221,-1051"/>
<text text-anchor="start" x="224" y="-1059.2" font-family="Helvetica,sans-Serif" font-size="11.00">varchar[60]</text>
<polygon fill="none" stroke="black" points="10,-1029 10,-1051 221,-1051 221,-1029 10,-1029"/>
<text text-anchor="start" x="30" y="-1037.2" font-family="Helvetica,sans-Serif" font-size="11.00">datestart</text>
<polygon fill="none" stroke="black" points="221,-1029 221,-1051 330,-1051 330,-1029 221,-1029"/>
<text text-anchor="start" x="224" y="-1037.2" font-family="Helvetica,sans-Serif" font-size="11.00">timestamp[29,6]</text>
<polygon fill="none" stroke="black" points="10,-1007 10,-1029 221,-1029 221,-1007 10,-1007"/>
<text text-anchor="start" x="30" y="-1015.2" font-family="Helvetica,sans-Serif" font-size="11.00">datestartschedule</text>
<polygon fill="none" stroke="black" points="221,-1007 221,-1029 330,-1029 330,-1007 221,-1007"/>
<text text-anchor="start" x="224" y="-1015.2" font-family="Helvetica,sans-Serif" font-size="11.00">timestamp[29,6]</text>
<polygon fill="none" stroke="black" points="10,-985 10,-1007 221,-1007 221,-985 10,-985"/>
<text text-anchor="start" x="30" y="-993.2" font-family="Helvetica,sans-Serif" font-size="11.00">floatafter</text>
<polygon fill="none" stroke="black" points="221,-985 221,-1007 330,-1007 330,-985 221,-985"/>
<text text-anchor="start" x="224" y="-993.2" font-family="Helvetica,sans-Serif" font-size="11.00">numeric[0]</text>
<polygon fill="none" stroke="black" points="10,-963 10,-985 221,-985 221,-963 10,-963"/>
<text text-anchor="start" x="30" y="-971.2" font-family="Helvetica,sans-Serif" font-size="11.00">floatbefored</text>
<polygon fill="none" stroke="black" points="221,-963 221,-985 330,-985 330,-963 221,-963"/>
<text text-anchor="start" x="224" y="-971.2" font-family="Helvetica,sans-Serif" font-size="11.00">numeric[0]</text>
<polygon fill="none" stroke="black" points="10,-941 10,-963 221,-963 221,-941 10,-941"/>
<text text-anchor="start" x="30" y="-949.2" font-family="Helvetica,sans-Serif" font-size="11.00">line</text>
<polygon fill="none" stroke="black" points="221,-941 221,-963 330,-963 330,-941 221,-941"/>
<text text-anchor="start" x="224" y="-949.2" font-family="Helvetica,sans-Serif" font-size="11.00">numeric[10]</text>
<polygon fill="none" stroke="black" points="10,-919 10,-941 221,-941 221,-919 10,-919"/>
<text text-anchor="start" x="30" y="-927.2" font-family="Helvetica,sans-Serif" font-size="11.00">lot</text>
<polygon fill="none" stroke="black" points="221,-919 221,-941 330,-941 330,-919 221,-919"/>
<text text-anchor="start" x="224" y="-927.2" font-family="Helvetica,sans-Serif" font-size="11.00">varchar[20]</text>
<polygon fill="none" stroke="black" points="10,-897 10,-919 221,-919 221,-897 10,-897"/>
<text text-anchor="start" x="30" y="-905.2" font-family="Helvetica,sans-Serif" font-size="11.00">serno</text>
<polygon fill="none" stroke="black" points="221,-897 221,-919 330,-919 330,-897 221,-897"/>
<text text-anchor="start" x="224" y="-905.2" font-family="Helvetica,sans-Serif" font-size="11.00">varchar[20]</text>
<polygon fill="none" stroke="black" points="10,-875 10,-897 221,-897 221,-875 10,-875"/>
<text text-anchor="start" x="30" y="-883.2" font-family="Helvetica,sans-Serif" font-size="11.00">description</text>
<polygon fill="none" stroke="black" points="221,-875 221,-897 330,-897 330,-875 221,-875"/>
<text text-anchor="start" x="224" y="-883.2" font-family="Helvetica,sans-Serif" font-size="11.00">varchar[510]</text>
<polygon fill="none" stroke="black" points="10,-853 10,-875 221,-875 221,-853 10,-853"/>
<text text-anchor="start" x="30" y="-861.2" font-family="Helvetica,sans-Serif" font-size="11.00">m_product_id</text>
<polygon fill="none" stroke="black" points="221,-853 221,-875 330,-875 330,-853 221,-853"/>
<text text-anchor="start" x="224" y="-861.2" font-family="Helvetica,sans-Serif" font-size="11.00">numeric[10]</text>
<polygon fill="none" stroke="black" points="10,-831 10,-853 221,-853 221,-831 10,-831"/>
<text text-anchor="start" x="30" y="-839.2" font-family="Helvetica,sans-Serif" font-size="11.00">m_attributesetinstance_id</text>
<polygon fill="none" stroke="black" points="221,-831 221,-853 330,-853 330,-831 221,-831"/>
<text text-anchor="start" x="224" y="-839.2" font-family="Helvetica,sans-Serif" font-size="11.00">numeric[10]</text>
<polygon fill="none" stroke="black" points="10,-809 10,-831 221,-831 221,-809 10,-809"/>
<text text-anchor="start" x="30" y="-817.2" font-family="Helvetica,sans-Serif" font-size="11.00">c_uom_id</text>
<polygon fill="none" stroke="black" points="221,-809 221,-831 330,-831 330,-809 221,-809"/>
<text text-anchor="start" x="224" y="-817.2" font-family="Helvetica,sans-Serif" font-size="11.00">numeric[10]</text>
<polygon fill="none" stroke="black" points="10,-787 10,-809 221,-809 221,-787 10,-787"/>
<text text-anchor="start" x="30" y="-795.2" font-family="Helvetica,sans-Serif" font-size="11.00">s_resource_id</text>
<polygon fill="none" stroke="black" points="221,-787 221,-809 330,-809 330,-787 221,-787"/>
<text text-anchor="start" x="224" y="-795.2" font-family="Helvetica,sans-Serif" font-size="11.00">numeric[10]</text>
<polygon fill="none" stroke="black" points="10,-765 10,-787 221,-787 221,-765 10,-765"/>
<text text-anchor="start" x="30" y="-773.2" font-family="Helvetica,sans-Serif" font-size="11.00">pp_product_bom_id</text>
<polygon fill="none" stroke="black" points="221,-765 221,-787 330,-787 330,-765 221,-765"/>
<text text-anchor="start" x="224" y="-773.2" font-family="Helvetica,sans-Serif" font-size="11.00">numeric[10]</text>
<polygon fill="none" stroke="black" points="10,-743 10,-765 221,-765 221,-743 10,-743"/>
<text text-anchor="start" x="30" y="-751.2" font-family="Helvetica,sans-Serif" font-size="11.00">ad_workflow_id</text>
<polygon fill="none" stroke="black" points="221,-743 221,-765 330,-765 330,-743 221,-743"/>
<text text-anchor="start" x="224" y="-751.2" font-family="Helvetica,sans-Serif" font-size="11.00">numeric[10]</text>
<polygon fill="none" stroke="black" points="10,-721 10,-743 221,-743 221,-721 10,-721"/>
<text text-anchor="start" x="30" y="-729.2" font-family="Helvetica,sans-Serif" font-size="11.00">assay</text>
<polygon fill="none" stroke="black" points="221,-721 221,-743 330,-743 330,-721 221,-721"/>
<text text-anchor="start" x="224" y="-729.2" font-family="Helvetica,sans-Serif" font-size="11.00">numeric[0]</text>
<polygon fill="none" stroke="black" points="10,-699 10,-721 221,-721 221,-699 10,-699"/>
<text text-anchor="start" x="30" y="-707.2" font-family="Helvetica,sans-Serif" font-size="11.00">c_orderline_id</text>
<polygon fill="none" stroke="black" points="221,-699 221,-721 330,-721 330,-699 221,-699"/>
<text text-anchor="start" x="224" y="-707.2" font-family="Helvetica,sans-Serif" font-size="11.00">numeric[10]</text>
<polygon fill="none" stroke="black" points="10,-677 10,-699 221,-699 221,-677 10,-677"/>
<text text-anchor="start" x="30" y="-685.2" font-family="Helvetica,sans-Serif" font-size="11.00">priorityrule</text>
<polygon fill="none" stroke="black" points="221,-677 221,-699 330,-699 330,-677 221,-677"/>
<text text-anchor="start" x="224" y="-685.2" font-family="Helvetica,sans-Serif" font-size="11.00">bpchar[1]</text>
<polygon fill="none" stroke="black" points="10,-655 10,-677 221,-677 221,-655 10,-655"/>
<text text-anchor="start" x="30" y="-663.2" font-family="Helvetica,sans-Serif" font-size="11.00">qtybatchsize</text>
<polygon fill="none" stroke="black" points="221,-655 221,-677 330,-677 330,-655 221,-655"/>
<text text-anchor="start" x="224" y="-663.2" font-family="Helvetica,sans-Serif" font-size="11.00">numeric[0]</text>
<polygon fill="none" stroke="black" points="10,-633 10,-655 221,-655 221,-633 10,-633"/>
<text text-anchor="start" x="30" y="-641.2" font-family="Helvetica,sans-Serif" font-size="11.00">qtybatchs</text>
<polygon fill="none" stroke="black" points="221,-633 221,-655 330,-655 330,-633 221,-633"/>
<text text-anchor="start" x="224" y="-641.2" font-family="Helvetica,sans-Serif" font-size="11.00">numeric[0]</text>
<polygon fill="none" stroke="black" points="10,-611 10,-633 221,-633 221,-611 10,-611"/>
<text text-anchor="start" x="30" y="-619.2" font-family="Helvetica,sans-Serif" font-size="11.00">qtydelivered</text>
<polygon fill="none" stroke="black" points="221,-611 221,-633 330,-633 330,-611 221,-611"/>
<text text-anchor="start" x="224" y="-619.2" font-family="Helvetica,sans-Serif" font-size="11.00">numeric[0]</text>
<polygon fill="none" stroke="black" points="10,-589 10,-611 221,-611 221,-589 10,-589"/>
<text text-anchor="start" x="30" y="-597.2" font-family="Helvetica,sans-Serif" font-size="11.00">qtyentered</text>
<polygon fill="none" stroke="black" points="221,-589 221,-611 330,-611 330,-589 221,-589"/>
<text text-anchor="start" x="224" y="-597.2" font-family="Helvetica,sans-Serif" font-size="11.00">numeric[0]</text>
<polygon fill="none" stroke="black" points="10,-567 10,-589 221,-589 221,-567 10,-567"/>
<text text-anchor="start" x="30" y="-575.2" font-family="Helvetica,sans-Serif" font-size="11.00">qtyordered</text>
<polygon fill="none" stroke="black" points="221,-567 221,-589 330,-589 330,-567 221,-567"/>
<text text-anchor="start" x="224" y="-575.2" font-family="Helvetica,sans-Serif" font-size="11.00">numeric[0]</text>
<polygon fill="none" stroke="black" points="10,-545 10,-567 221,-567 221,-545 10,-545"/>
<text text-anchor="start" x="30" y="-553.2" font-family="Helvetica,sans-Serif" font-size="11.00">dateconfirm</text>
<polygon fill="none" stroke="black" points="221,-545 221,-567 330,-567 330,-545 221,-545"/>
<text text-anchor="start" x="224" y="-553.2" font-family="Helvetica,sans-Serif" font-size="11.00">timestamp[29,6]</text>
<polygon fill="none" stroke="black" points="10,-523 10,-545 221,-545 221,-523 10,-523"/>
<text text-anchor="start" x="30" y="-531.2" font-family="Helvetica,sans-Serif" font-size="11.00">datedelivered</text>
<polygon fill="none" stroke="black" points="221,-523 221,-545 330,-545 330,-523 221,-523"/>
<text text-anchor="start" x="224" y="-531.2" font-family="Helvetica,sans-Serif" font-size="11.00">timestamp[29,6]</text>
<polygon fill="none" stroke="black" points="10,-501 10,-523 221,-523 221,-501 10,-501"/>
<text text-anchor="start" x="30" y="-509.2" font-family="Helvetica,sans-Serif" font-size="11.00">datefinish</text>
<polygon fill="none" stroke="black" points="221,-501 221,-523 330,-523 330,-501 221,-501"/>
<text text-anchor="start" x="224" y="-509.2" font-family="Helvetica,sans-Serif" font-size="11.00">timestamp[29,6]</text>
<polygon fill="none" stroke="black" points="10,-479 10,-501 221,-501 221,-479 10,-479"/>
<text text-anchor="start" x="30" y="-487.2" font-family="Helvetica,sans-Serif" font-size="11.00">datefinishschedule</text>
<polygon fill="none" stroke="black" points="221,-479 221,-501 330,-501 330,-479 221,-479"/>
<text text-anchor="start" x="224" y="-487.2" font-family="Helvetica,sans-Serif" font-size="11.00">timestamp[29,6]</text>
<polygon fill="none" stroke="black" points="10,-457 10,-479 221,-479 221,-457 10,-457"/>
<text text-anchor="start" x="30" y="-465.2" font-family="Helvetica,sans-Serif" font-size="11.00">dateordered</text>
<polygon fill="none" stroke="black" points="221,-457 221,-479 330,-479 330,-457 221,-457"/>
<text text-anchor="start" x="224" y="-465.2" font-family="Helvetica,sans-Serif" font-size="11.00">timestamp[29,6]</text>
<polygon fill="none" stroke="black" points="10,-435 10,-457 221,-457 221,-435 10,-435"/>
<text text-anchor="start" x="30" y="-443.2" font-family="Helvetica,sans-Serif" font-size="11.00">datepromised</text>
<polygon fill="none" stroke="black" points="221,-435 221,-457 330,-457 330,-435 221,-435"/>
<text text-anchor="start" x="224" y="-443.2" font-family="Helvetica,sans-Serif" font-size="11.00">timestamp[29,6]</text>
<polygon fill="none" stroke="black" points="10,-413 10,-435 221,-435 221,-413 10,-413"/>
<text text-anchor="start" x="30" y="-421.2" font-family="Helvetica,sans-Serif" font-size="11.00">qtyreject</text>
<polygon fill="none" stroke="black" points="221,-413 221,-435 330,-435 330,-413 221,-413"/>
<text text-anchor="start" x="224" y="-421.2" font-family="Helvetica,sans-Serif" font-size="11.00">numeric[0]</text>
<polygon fill="none" stroke="black" points="10,-391 10,-413 221,-413 221,-391 10,-391"/>
<text text-anchor="start" x="30" y="-399.2" font-family="Helvetica,sans-Serif" font-size="11.00">qtyreserved</text>
<polygon fill="none" stroke="black" points="221,-391 221,-413 330,-413 330,-391 221,-391"/>
<text text-anchor="start" x="224" y="-399.2" font-family="Helvetica,sans-Serif" font-size="11.00">numeric[0]</text>
<polygon fill="none" stroke="black" points="10,-369 10,-391 221,-391 221,-369 10,-369"/>
<text text-anchor="start" x="30" y="-377.2" font-family="Helvetica,sans-Serif" font-size="11.00">qtyscrap</text>
<polygon fill="none" stroke="black" points="221,-369 221,-391 330,-391 330,-369 221,-369"/>
<text text-anchor="start" x="224" y="-377.2" font-family="Helvetica,sans-Serif" font-size="11.00">numeric[0]</text>
<polygon fill="none" stroke="black" points="10,-347 10,-369 221,-369 221,-347 10,-347"/>
<text text-anchor="start" x="30" y="-355.2" font-family="Helvetica,sans-Serif" font-size="11.00">yield</text>
<polygon fill="none" stroke="black" points="221,-347 221,-369 330,-369 330,-347 221,-347"/>
<text text-anchor="start" x="224" y="-355.2" font-family="Helvetica,sans-Serif" font-size="11.00">numeric[0]</text>
<polygon fill="none" stroke="black" points="10,-325 10,-347 221,-347 221,-325 10,-325"/>
<text text-anchor="start" x="30" y="-333.2" font-family="Helvetica,sans-Serif" font-size="11.00">c_campaign_id</text>
<polygon fill="none" stroke="black" points="221,-325 221,-347 330,-347 330,-325 221,-325"/>
<text text-anchor="start" x="224" y="-333.2" font-family="Helvetica,sans-Serif" font-size="11.00">numeric[10]</text>
<polygon fill="none" stroke="black" points="10,-303 10,-325 221,-325 221,-303 10,-303"/>
<text text-anchor="start" x="30" y="-311.2" font-family="Helvetica,sans-Serif" font-size="11.00">c_project_id</text>
<polygon fill="none" stroke="black" points="221,-303 221,-325 330,-325 330,-303 221,-303"/>
<text text-anchor="start" x="224" y="-311.2" font-family="Helvetica,sans-Serif" font-size="11.00">numeric[10]</text>
<polygon fill="none" stroke="black" points="10,-281 10,-303 221,-303 221,-281 10,-281"/>
<text text-anchor="start" x="30" y="-289.2" font-family="Helvetica,sans-Serif" font-size="11.00">c_activity_id</text>
<polygon fill="none" stroke="black" points="221,-281 221,-303 330,-303 330,-281 221,-281"/>
<text text-anchor="start" x="224" y="-289.2" font-family="Helvetica,sans-Serif" font-size="11.00">numeric[10]</text>
<polygon fill="none" stroke="black" points="10,-259 10,-281 221,-281 221,-259 10,-259"/>
<text text-anchor="start" x="30" y="-267.2" font-family="Helvetica,sans-Serif" font-size="11.00">user1_id</text>
<polygon fill="none" stroke="black" points="221,-259 221,-281 330,-281 330,-259 221,-259"/>
<text text-anchor="start" x="224" y="-267.2" font-family="Helvetica,sans-Serif" font-size="11.00">numeric[10]</text>
<polygon fill="none" stroke="black" points="10,-237 10,-259 221,-259 221,-237 10,-237"/>
<text text-anchor="start" x="30" y="-245.2" font-family="Helvetica,sans-Serif" font-size="11.00">user2_id</text>
<polygon fill="none" stroke="black" points="221,-237 221,-259 330,-259 330,-237 221,-237"/>
<text text-anchor="start" x="224" y="-245.2" font-family="Helvetica,sans-Serif" font-size="11.00">numeric[10]</text>
<polygon fill="none" stroke="black" points="10,-215 10,-237 221,-237 221,-215 10,-215"/>
<text text-anchor="start" x="30" y="-223.2" font-family="Helvetica,sans-Serif" font-size="11.00">ad_orgtrx_id</text>
<polygon fill="none" stroke="black" points="221,-215 221,-237 330,-237 330,-215 221,-215"/>
<text text-anchor="start" x="224" y="-223.2" font-family="Helvetica,sans-Serif" font-size="11.00">numeric[10]</text>
<polygon fill="none" stroke="black" points="10,-193 10,-215 221,-215 221,-193 10,-193"/>
<text text-anchor="start" x="30" y="-201.2" font-family="Helvetica,sans-Serif" font-size="11.00">c_doctypetarget_id</text>
<polygon fill="none" stroke="black" points="221,-193 221,-215 330,-215 330,-193 221,-193"/>
<text text-anchor="start" x="224" y="-201.2" font-family="Helvetica,sans-Serif" font-size="11.00">numeric[10]</text>
<polygon fill="none" stroke="black" points="10,-171 10,-193 221,-193 221,-171 10,-171"/>
<text text-anchor="start" x="30" y="-179.2" font-family="Helvetica,sans-Serif" font-size="11.00">scheduletype</text>
<polygon fill="none" stroke="black" points="221,-171 221,-193 330,-193 330,-171 221,-171"/>
<text text-anchor="start" x="224" y="-179.2" font-family="Helvetica,sans-Serif" font-size="11.00">varchar[1]</text>
<polygon fill="none" stroke="black" points="10,-149 10,-171 221,-171 221,-149 10,-149"/>
<text text-anchor="start" x="30" y="-157.2" font-family="Helvetica,sans-Serif" font-size="11.00">isapproved</text>
<polygon fill="none" stroke="black" points="221,-149 221,-171 330,-171 330,-149 221,-149"/>
<text text-anchor="start" x="224" y="-157.2" font-family="Helvetica,sans-Serif" font-size="11.00">bpchar[1]</text>
<polygon fill="none" stroke="black" points="10,-127 10,-149 221,-149 221,-127 10,-127"/>
<text text-anchor="start" x="30" y="-135.2" font-family="Helvetica,sans-Serif" font-size="11.00">docaction</text>
<polygon fill="none" stroke="black" points="221,-127 221,-149 330,-149 330,-127 221,-127"/>
<text text-anchor="start" x="224" y="-135.2" font-family="Helvetica,sans-Serif" font-size="11.00">bpchar[2]</text>
<polygon fill="none" stroke="black" points="10,-105 10,-127 221,-127 221,-105 10,-105"/>
<text text-anchor="start" x="30" y="-113.2" font-family="Helvetica,sans-Serif" font-size="11.00">posted</text>
<polygon fill="none" stroke="black" points="221,-105 221,-127 330,-127 330,-105 221,-105"/>
<text text-anchor="start" x="224" y="-113.2" font-family="Helvetica,sans-Serif" font-size="11.00">bpchar[1]</text>
<polygon fill="none" stroke="black" points="10,-83 10,-105 221,-105 221,-83 10,-83"/>
<text text-anchor="start" x="30" y="-91.2" font-family="Helvetica,sans-Serif" font-size="11.00">isprinted</text>
<polygon fill="none" stroke="black" points="221,-83 221,-105 330,-105 330,-83 221,-83"/>
<text text-anchor="start" x="224" y="-91.2" font-family="Helvetica,sans-Serif" font-size="11.00">bpchar[1]</text>
<polygon fill="none" stroke="black" points="10,-61 10,-83 221,-83 221,-61 10,-61"/>
<text text-anchor="start" x="30" y="-69.2" font-family="Helvetica,sans-Serif" font-size="11.00">ordertype</text>
<polygon fill="none" stroke="black" points="221,-61 221,-83 330,-83 330,-61 221,-61"/>
<text text-anchor="start" x="224" y="-69.2" font-family="Helvetica,sans-Serif" font-size="11.00">varchar[1]</text>
<polygon fill="none" stroke="black" points="10,-39 10,-61 221,-61 221,-39 10,-39"/>
<text text-anchor="start" x="30" y="-47.2" font-family="Helvetica,sans-Serif" font-size="11.00">logo_id</text>
<polygon fill="none" stroke="black" points="221,-39 221,-61 330,-61 330,-39 221,-39"/>
<text text-anchor="start" x="224" y="-47.2" font-family="Helvetica,sans-Serif" font-size="11.00">numeric[10]</text>
<polygon fill="none" stroke="black" stroke-width="2" points="9,-38 9,-1514 331,-1514 331,-38 9,-38"/>
</a>
</g>
</g>
</g>
</svg>
