<?xml version="1.0" encoding="UTF-8" standalone="no"?>
<!DOCTYPE svg PUBLIC "-//W3C//DTD SVG 1.1//EN"
 "http://www.w3.org/Graphics/SVG/1.1/DTD/svg11.dtd">
<!-- Generated by graphviz version 2.43.0 (0)
 -->
<!-- Title: oneDegreeRelationshipsDiagram Pages: 1 -->
<svg width="517pt" height="714pt"
 viewBox="0.00 0.00 517.00 714.00" xmlns="http://www.w3.org/2000/svg" xmlns:xlink="http://www.w3.org/1999/xlink">
<g id="graph0" class="graph" transform="scale(1 1) rotate(0) translate(4 710)">
<title>oneDegreeRelationshipsDiagram</title>
<polygon fill="#ffffff" stroke="transparent" points="-4,4 -4,-710 513,-710 513,4 -4,4"/>
<text text-anchor="middle" x="71.5" y="-7.2" font-family="Helvetica,sans-Serif" font-size="11.00">Generated by SchemaSpy</text>
<!-- pp_order_node_trl -->
<g id="node1" class="node">
<title>pp_order_node_trl</title>
<g id="a_node1"><a xlink:href="../../tables/pp_order_node_trl.html" xlink:title="pp_order_node_trl" target="_top">
<polygon fill="#ffffff" stroke="transparent" points="237,-224 237,-576 501,-576 501,-224 237,-224"/>
<polygon fill="#f5f5f5" stroke="transparent" points="239,-552 239,-574 499,-574 499,-552 239,-552"/>
<polygon fill="none" stroke="black" points="239,-552 239,-574 499,-574 499,-552 239,-552"/>
<text text-anchor="start" x="244" y="-561.2" font-family="Helvetica,sans-Serif" font-weight="bold" font-size="11.00">pp_order_node_trl</text>
<text text-anchor="start" x="464" y="-560.2" font-family="Helvetica,sans-Serif" font-size="11.00">[table]</text>
<polygon fill="none" stroke="black" points="239,-530 239,-552 416,-552 416,-530 239,-530"/>
<text text-anchor="start" x="259" y="-538.2" font-family="Helvetica,sans-Serif" font-size="11.00">ad_client_id</text>
<polygon fill="none" stroke="black" points="416,-530 416,-552 499,-552 499,-530 416,-530"/>
<text text-anchor="start" x="419" y="-538.2" font-family="Helvetica,sans-Serif" font-size="11.00">numeric[10]</text>
<polygon fill="none" stroke="black" points="239,-508 239,-530 416,-530 416,-508 239,-508"/>
<image xlink:href="../../images/primaryKeys.png" width="11px" height="12px" preserveAspectRatio="xMinYMin meet" x="244" y="-525"/>
<text text-anchor="start" x="259" y="-516.2" font-family="Helvetica,sans-Serif" font-size="11.00">ad_language</text>
<polygon fill="none" stroke="black" points="416,-508 416,-530 499,-530 499,-508 416,-508"/>
<text text-anchor="start" x="419" y="-516.2" font-family="Helvetica,sans-Serif" font-size="11.00">varchar[6]</text>
<polygon fill="none" stroke="black" points="239,-486 239,-508 416,-508 416,-486 239,-486"/>
<text text-anchor="start" x="259" y="-494.2" font-family="Helvetica,sans-Serif" font-size="11.00">ad_org_id</text>
<polygon fill="none" stroke="black" points="416,-486 416,-508 499,-508 499,-486 416,-486"/>
<text text-anchor="start" x="419" y="-494.2" font-family="Helvetica,sans-Serif" font-size="11.00">numeric[10]</text>
<polygon fill="none" stroke="black" points="239,-464 239,-486 416,-486 416,-464 239,-464"/>
<text text-anchor="start" x="259" y="-472.2" font-family="Helvetica,sans-Serif" font-size="11.00">created</text>
<polygon fill="none" stroke="black" points="416,-464 416,-486 499,-486 499,-464 416,-464"/>
<text text-anchor="start" x="419" y="-472.2" font-family="Helvetica,sans-Serif" font-size="11.00">timestamp[29,6]</text>
<polygon fill="none" stroke="black" points="239,-442 239,-464 416,-464 416,-442 239,-442"/>
<text text-anchor="start" x="259" y="-450.2" font-family="Helvetica,sans-Serif" font-size="11.00">createdby</text>
<polygon fill="none" stroke="black" points="416,-442 416,-464 499,-464 499,-442 416,-442"/>
<text text-anchor="start" x="419" y="-450.2" font-family="Helvetica,sans-Serif" font-size="11.00">numeric[10]</text>
<polygon fill="none" stroke="black" points="239,-420 239,-442 416,-442 416,-420 239,-420"/>
<text text-anchor="start" x="259" y="-428.2" font-family="Helvetica,sans-Serif" font-size="11.00">description</text>
<polygon fill="none" stroke="black" points="416,-420 416,-442 499,-442 499,-420 416,-420"/>
<text text-anchor="start" x="419" y="-428.2" font-family="Helvetica,sans-Serif" font-size="11.00">varchar[255]</text>
<polygon fill="none" stroke="black" points="239,-398 239,-420 416,-420 416,-398 239,-398"/>
<text text-anchor="start" x="259" y="-406.2" font-family="Helvetica,sans-Serif" font-size="11.00">help</text>
<polygon fill="none" stroke="black" points="416,-398 416,-420 499,-420 499,-398 416,-398"/>
<text text-anchor="start" x="419" y="-406.2" font-family="Helvetica,sans-Serif" font-size="11.00">varchar[2000]</text>
<polygon fill="none" stroke="black" points="239,-376 239,-398 416,-398 416,-376 239,-376"/>
<text text-anchor="start" x="259" y="-384.2" font-family="Helvetica,sans-Serif" font-size="11.00">isactive</text>
<polygon fill="none" stroke="black" points="416,-376 416,-398 499,-398 499,-376 416,-376"/>
<text text-anchor="start" x="419" y="-384.2" font-family="Helvetica,sans-Serif" font-size="11.00">bpchar[1]</text>
<polygon fill="none" stroke="black" points="239,-354 239,-376 416,-376 416,-354 239,-354"/>
<text text-anchor="start" x="259" y="-362.2" font-family="Helvetica,sans-Serif" font-size="11.00">istranslated</text>
<polygon fill="none" stroke="black" points="416,-354 416,-376 499,-376 499,-354 416,-354"/>
<text text-anchor="start" x="419" y="-362.2" font-family="Helvetica,sans-Serif" font-size="11.00">bpchar[1]</text>
<polygon fill="none" stroke="black" points="239,-332 239,-354 416,-354 416,-332 239,-332"/>
<text text-anchor="start" x="259" y="-340.2" font-family="Helvetica,sans-Serif" font-size="11.00">name</text>
<polygon fill="none" stroke="black" points="416,-332 416,-354 499,-354 499,-332 416,-332"/>
<text text-anchor="start" x="419" y="-340.2" font-family="Helvetica,sans-Serif" font-size="11.00">varchar[60]</text>
<polygon fill="none" stroke="black" points="239,-310 239,-332 416,-332 416,-310 239,-310"/>
<image xlink:href="../../images/primaryKeys.png" width="11px" height="12px" preserveAspectRatio="xMinYMin meet" x="244" y="-327"/>
<text text-anchor="start" x="259" y="-318.2" font-family="Helvetica,sans-Serif" font-size="11.00">pp_order_node_id</text>
<polygon fill="none" stroke="black" points="416,-310 416,-332 499,-332 499,-310 416,-310"/>
<text text-anchor="start" x="419" y="-318.2" font-family="Helvetica,sans-Serif" font-size="11.00">numeric[10]</text>
<polygon fill="none" stroke="black" points="239,-288 239,-310 416,-310 416,-288 239,-288"/>
<text text-anchor="start" x="259" y="-296.2" font-family="Helvetica,sans-Serif" font-size="11.00">updated</text>
<polygon fill="none" stroke="black" points="416,-288 416,-310 499,-310 499,-288 416,-288"/>
<text text-anchor="start" x="419" y="-296.2" font-family="Helvetica,sans-Serif" font-size="11.00">timestamp[29,6]</text>
<polygon fill="none" stroke="black" points="239,-266 239,-288 416,-288 416,-266 239,-266"/>
<text text-anchor="start" x="259" y="-274.2" font-family="Helvetica,sans-Serif" font-size="11.00">updatedby</text>
<polygon fill="none" stroke="black" points="416,-266 416,-288 499,-288 499,-266 416,-266"/>
<text text-anchor="start" x="419" y="-274.2" font-family="Helvetica,sans-Serif" font-size="11.00">numeric[10]</text>
<polygon fill="#ffffff" stroke="transparent" points="239,-244 239,-266 416,-266 416,-244 239,-244"/>
<polygon fill="none" stroke="black" points="239,-244 239,-266 416,-266 416,-244 239,-244"/>
<text text-anchor="start" x="259" y="-252.2" font-family="Helvetica,sans-Serif" font-size="11.00">pp_order_node_trl_uu</text>
<polygon fill="none" stroke="black" points="416,-244 416,-266 499,-266 499,-244 416,-244"/>
<text text-anchor="start" x="419" y="-252.2" font-family="Helvetica,sans-Serif" font-size="11.00">varchar[36]</text>
<polygon fill="#ffffff" stroke="transparent" points="239,-226 239,-244 499,-244 499,-226 239,-226"/>
<polygon fill="none" stroke="black" points="239,-226 239,-244 499,-244 499,-226 239,-226"/>
<polygon fill="#ffffff" stroke="transparent" points="240,-227 240,-243 329,-243 329,-227 240,-227"/>
<text text-anchor="start" x="242" y="-232.2" font-family="Helvetica,sans-Serif" font-size="11.00">&lt; 2</text>
<polygon fill="#ffffff" stroke="transparent" points="329,-227 329,-243 409,-243 409,-227 329,-227"/>
<text text-anchor="start" x="365.5" y="-232.2" font-family="Helvetica,sans-Serif" font-size="11.00"> &#160;</text>
<polygon fill="#ffffff" stroke="transparent" points="409,-227 409,-243 498,-243 498,-227 409,-227"/>
<text text-anchor="start" x="480" y="-232.2" font-family="Helvetica,sans-Serif" font-size="11.00">0 &gt;</text>
<polygon fill="black" stroke="black" points="329,-227 329,-243 329,-243 329,-227 329,-227"/>
<polygon fill="black" stroke="black" points="409,-227 409,-243 409,-243 409,-227 409,-227"/>
<polygon fill="none" stroke="black" stroke-width="2" points="238,-225 238,-575 500,-575 500,-225 238,-225"/>
</a>
</g>
</g>
<!-- ad_language -->
<g id="node2" class="node">
<title>ad_language</title>
<g id="a_node2"><a xlink:href="../../tables/ad_language.html" xlink:title="ad_language" target="_top">
<polygon fill="#ffffff" stroke="transparent" points="21.5,-512 21.5,-702 174.5,-702 174.5,-512 21.5,-512"/>
<polygon fill="#f5f5f5" stroke="transparent" points="22,-680 22,-702 175,-702 175,-680 22,-680"/>
<polygon fill="none" stroke="black" points="22,-680 22,-702 175,-702 175,-680 22,-680"/>
<text text-anchor="start" x="27" y="-689.2" font-family="Helvetica,sans-Serif" font-weight="bold" font-size="11.00">ad_language</text>
<text text-anchor="start" x="140" y="-688.2" font-family="Helvetica,sans-Serif" font-size="11.00">[table]</text>
<polygon fill="none" stroke="black" points="22,-658 22,-680 175,-680 175,-658 22,-658"/>
<image xlink:href="../../images/primaryKeys.png" width="11px" height="12px" preserveAspectRatio="xMinYMin meet" x="27" y="-675"/>
<text text-anchor="start" x="42" y="-666.2" font-family="Helvetica,sans-Serif" font-size="11.00">ad_language</text>
<polygon fill="none" stroke="black" points="22,-636 22,-658 175,-658 175,-636 22,-636"/>
<image xlink:href="../../images/foreignKeys.png" width="11px" height="12px" preserveAspectRatio="xMinYMin meet" x="27" y="-653"/>
<text text-anchor="start" x="42" y="-644.2" font-family="Helvetica,sans-Serif" font-size="11.00">ad_client_id</text>
<polygon fill="none" stroke="black" points="22,-614 22,-636 175,-636 175,-614 22,-614"/>
<image xlink:href="../../images/foreignKeys.png" width="11px" height="12px" preserveAspectRatio="xMinYMin meet" x="27" y="-631"/>
<text text-anchor="start" x="42" y="-622.2" font-family="Helvetica,sans-Serif" font-size="11.00">ad_org_id</text>
<polygon fill="#ffffff" stroke="transparent" points="22,-592 22,-614 175,-614 175,-592 22,-592"/>
<polygon fill="none" stroke="black" points="22,-592 22,-614 175,-614 175,-592 22,-592"/>
<text text-anchor="start" x="42" y="-600.2" font-family="Helvetica,sans-Serif" font-size="11.00">ad_language_id</text>
<polygon fill="#ffffff" stroke="transparent" points="22,-570 22,-592 175,-592 175,-570 22,-570"/>
<polygon fill="none" stroke="black" points="22,-570 22,-592 175,-592 175,-570 22,-570"/>
<text text-anchor="start" x="42" y="-578.2" font-family="Helvetica,sans-Serif" font-size="11.00">ad_language_uu</text>
<polygon fill="none" stroke="black" points="22,-548 22,-570 175,-570 175,-548 22,-548"/>
<image xlink:href="../../images/foreignKeys.png" width="11px" height="12px" preserveAspectRatio="xMinYMin meet" x="27" y="-565"/>
<text text-anchor="start" x="42" y="-556.2" font-family="Helvetica,sans-Serif" font-size="11.00">ad_printpaper_id</text>
<polygon fill="none" stroke="black" points="22,-530 22,-548 175,-548 175,-530 22,-530"/>
<text text-anchor="start" x="25" y="-536.2" font-family="Helvetica,sans-Serif" font-size="11.00">...</text>
<polygon fill="#ffffff" stroke="transparent" points="22,-512 22,-530 175,-530 175,-512 22,-512"/>
<polygon fill="none" stroke="black" points="22,-512 22,-530 175,-530 175,-512 22,-512"/>
<polygon fill="#ffffff" stroke="transparent" points="23,-513 23,-529 62,-529 62,-513 23,-513"/>
<text text-anchor="start" x="25" y="-518.2" font-family="Helvetica,sans-Serif" font-size="11.00">&lt; 3</text>
<polygon fill="#ffffff" stroke="transparent" points="62,-513 62,-529 130,-529 130,-513 62,-513"/>
<text text-anchor="start" x="73.5" y="-518.2" font-family="Helvetica,sans-Serif" font-size="11.00">109 rows</text>
<polygon fill="#ffffff" stroke="transparent" points="130,-513 130,-529 174,-529 174,-513 130,-513"/>
<text text-anchor="start" x="150" y="-518.2" font-family="Helvetica,sans-Serif" font-size="11.00">88 &gt;</text>
<polygon fill="black" stroke="black" points="62,-513 62,-529 62,-529 62,-513 62,-513"/>
<polygon fill="black" stroke="black" points="130,-513 130,-529 130,-529 130,-513 130,-513"/>
</a>
</g>
</g>
<!-- pp_order_node_trl&#45;&gt;ad_language -->
<g id="edge1" class="edge">
<title>pp_order_node_trl:w&#45;&gt;ad_language:e</title>
<path fill="none" stroke="black" d="M223.77,-521.6C177.78,-541.52 242.5,-669 176,-669"/>
<polygon fill="black" stroke="black" points="230.13,-520.44 238.65,-522.54 234.07,-519.72 238,-519 238,-519 238,-519 234.07,-519.72 237.35,-515.46 230.13,-520.44 230.13,-520.44"/>
<ellipse fill="none" stroke="black" cx="226.98" cy="-521.02" rx="3.2" ry="3.2"/>
</g>
<!-- pp_order_node -->
<g id="node3" class="node">
<title>pp_order_node</title>
<g id="a_node3"><a xlink:href="../../tables/pp_order_node.html" xlink:title="pp_order_node" target="_top">
<polygon fill="#ffffff" stroke="transparent" points="8,-37 8,-491 188,-491 188,-37 8,-37"/>
<polygon fill="#f5f5f5" stroke="transparent" points="8,-469 8,-491 188,-491 188,-469 8,-469"/>
<polygon fill="none" stroke="black" points="8,-469 8,-491 188,-491 188,-469 8,-469"/>
<text text-anchor="start" x="13" y="-478.2" font-family="Helvetica,sans-Serif" font-weight="bold" font-size="11.00">pp_order_node</text>
<text text-anchor="start" x="153" y="-477.2" font-family="Helvetica,sans-Serif" font-size="11.00">[table]</text>
<polygon fill="none" stroke="black" points="8,-447 8,-469 188,-469 188,-447 8,-447"/>
<image xlink:href="../../images/foreignKeys.png" width="11px" height="12px" preserveAspectRatio="xMinYMin meet" x="13" y="-464"/>
<text text-anchor="start" x="28" y="-455.2" font-family="Helvetica,sans-Serif" font-size="11.00">ad_column_id</text>
<polygon fill="none" stroke="black" points="8,-425 8,-447 188,-447 188,-425 8,-425"/>
<image xlink:href="../../images/foreignKeys.png" width="11px" height="12px" preserveAspectRatio="xMinYMin meet" x="13" y="-442"/>
<text text-anchor="start" x="28" y="-433.2" font-family="Helvetica,sans-Serif" font-size="11.00">ad_form_id</text>
<polygon fill="none" stroke="black" points="8,-403 8,-425 188,-425 188,-403 8,-403"/>
<image xlink:href="../../images/foreignKeys.png" width="11px" height="12px" preserveAspectRatio="xMinYMin meet" x="13" y="-420"/>
<text text-anchor="start" x="28" y="-411.2" font-family="Helvetica,sans-Serif" font-size="11.00">ad_image_id</text>
<polygon fill="none" stroke="black" points="8,-381 8,-403 188,-403 188,-381 8,-381"/>
<image xlink:href="../../images/foreignKeys.png" width="11px" height="12px" preserveAspectRatio="xMinYMin meet" x="13" y="-398"/>
<text text-anchor="start" x="28" y="-389.2" font-family="Helvetica,sans-Serif" font-size="11.00">ad_process_id</text>
<polygon fill="none" stroke="black" points="8,-359 8,-381 188,-381 188,-359 8,-359"/>
<image xlink:href="../../images/foreignKeys.png" width="11px" height="12px" preserveAspectRatio="xMinYMin meet" x="13" y="-376"/>
<text text-anchor="start" x="28" y="-367.2" font-family="Helvetica,sans-Serif" font-size="11.00">ad_task_id</text>
<polygon fill="none" stroke="black" points="8,-337 8,-359 188,-359 188,-337 8,-337"/>
<image xlink:href="../../images/foreignKeys.png" width="11px" height="12px" preserveAspectRatio="xMinYMin meet" x="13" y="-354"/>
<text text-anchor="start" x="28" y="-345.2" font-family="Helvetica,sans-Serif" font-size="11.00">ad_wf_block_id</text>
<polygon fill="none" stroke="black" points="8,-315 8,-337 188,-337 188,-315 8,-315"/>
<image xlink:href="../../images/foreignKeys.png" width="11px" height="12px" preserveAspectRatio="xMinYMin meet" x="13" y="-332"/>
<text text-anchor="start" x="28" y="-323.2" font-family="Helvetica,sans-Serif" font-size="11.00">ad_wf_node_id</text>
<polygon fill="none" stroke="black" points="8,-293 8,-315 188,-315 188,-293 8,-293"/>
<image xlink:href="../../images/foreignKeys.png" width="11px" height="12px" preserveAspectRatio="xMinYMin meet" x="13" y="-310"/>
<text text-anchor="start" x="28" y="-301.2" font-family="Helvetica,sans-Serif" font-size="11.00">ad_wf_responsible_id</text>
<polygon fill="none" stroke="black" points="8,-271 8,-293 188,-293 188,-271 8,-271"/>
<image xlink:href="../../images/foreignKeys.png" width="11px" height="12px" preserveAspectRatio="xMinYMin meet" x="13" y="-288"/>
<text text-anchor="start" x="28" y="-279.2" font-family="Helvetica,sans-Serif" font-size="11.00">ad_window_id</text>
<polygon fill="none" stroke="black" points="8,-249 8,-271 188,-271 188,-249 8,-249"/>
<image xlink:href="../../images/foreignKeys.png" width="11px" height="12px" preserveAspectRatio="xMinYMin meet" x="13" y="-266"/>
<text text-anchor="start" x="28" y="-257.2" font-family="Helvetica,sans-Serif" font-size="11.00">ad_workflow_id</text>
<polygon fill="none" stroke="black" points="8,-227 8,-249 188,-249 188,-227 8,-227"/>
<image xlink:href="../../images/foreignKeys.png" width="11px" height="12px" preserveAspectRatio="xMinYMin meet" x="13" y="-244"/>
<text text-anchor="start" x="28" y="-235.2" font-family="Helvetica,sans-Serif" font-size="11.00">c_bpartner_id</text>
<polygon fill="none" stroke="black" points="8,-205 8,-227 188,-227 188,-205 8,-205"/>
<image xlink:href="../../images/foreignKeys.png" width="11px" height="12px" preserveAspectRatio="xMinYMin meet" x="13" y="-222"/>
<text text-anchor="start" x="28" y="-213.2" font-family="Helvetica,sans-Serif" font-size="11.00">entitytype</text>
<polygon fill="none" stroke="black" points="8,-183 8,-205 188,-205 188,-183 8,-183"/>
<image xlink:href="../../images/foreignKeys.png" width="11px" height="12px" preserveAspectRatio="xMinYMin meet" x="13" y="-200"/>
<text text-anchor="start" x="28" y="-191.2" font-family="Helvetica,sans-Serif" font-size="11.00">pp_order_id</text>
<polygon fill="none" stroke="black" points="8,-161 8,-183 188,-183 188,-161 8,-161"/>
<image xlink:href="../../images/primaryKeys.png" width="11px" height="12px" preserveAspectRatio="xMinYMin meet" x="13" y="-178"/>
<text text-anchor="start" x="28" y="-169.2" font-family="Helvetica,sans-Serif" font-size="11.00">pp_order_node_id</text>
<polygon fill="none" stroke="black" points="8,-139 8,-161 188,-161 188,-139 8,-139"/>
<image xlink:href="../../images/foreignKeys.png" width="11px" height="12px" preserveAspectRatio="xMinYMin meet" x="13" y="-156"/>
<text text-anchor="start" x="28" y="-147.2" font-family="Helvetica,sans-Serif" font-size="11.00">pp_order_workflow_id</text>
<polygon fill="none" stroke="black" points="8,-117 8,-139 188,-139 188,-117 8,-117"/>
<image xlink:href="../../images/foreignKeys.png" width="11px" height="12px" preserveAspectRatio="xMinYMin meet" x="13" y="-134"/>
<text text-anchor="start" x="28" y="-125.2" font-family="Helvetica,sans-Serif" font-size="11.00">s_resource_id</text>
<polygon fill="none" stroke="black" points="8,-95 8,-117 188,-117 188,-95 8,-95"/>
<image xlink:href="../../images/foreignKeys.png" width="11px" height="12px" preserveAspectRatio="xMinYMin meet" x="13" y="-112"/>
<text text-anchor="start" x="28" y="-103.2" font-family="Helvetica,sans-Serif" font-size="11.00">workflow_id</text>
<polygon fill="#ffffff" stroke="transparent" points="8,-73 8,-95 188,-95 188,-73 8,-73"/>
<polygon fill="none" stroke="black" points="8,-73 8,-95 188,-95 188,-73 8,-73"/>
<text text-anchor="start" x="28" y="-81.2" font-family="Helvetica,sans-Serif" font-size="11.00">pp_order_node_uu</text>
<polygon fill="none" stroke="black" points="8,-55 8,-73 188,-73 188,-55 8,-55"/>
<text text-anchor="start" x="11" y="-61.2" font-family="Helvetica,sans-Serif" font-size="11.00">...</text>
<polygon fill="#ffffff" stroke="transparent" points="8,-37 8,-55 188,-55 188,-37 8,-37"/>
<polygon fill="none" stroke="black" points="8,-37 8,-55 188,-55 188,-37 8,-37"/>
<polygon fill="#ffffff" stroke="transparent" points="9,-38 9,-54 76,-54 76,-38 9,-38"/>
<text text-anchor="start" x="11" y="-43.2" font-family="Helvetica,sans-Serif" font-size="11.00">&lt; 16</text>
<polygon fill="#ffffff" stroke="transparent" points="76,-38 76,-54 127,-54 127,-38 76,-38"/>
<text text-anchor="start" x="98" y="-43.2" font-family="Helvetica,sans-Serif" font-size="11.00"> &#160;</text>
<polygon fill="#ffffff" stroke="transparent" points="127,-38 127,-54 187,-54 187,-38 127,-38"/>
<text text-anchor="start" x="169" y="-43.2" font-family="Helvetica,sans-Serif" font-size="11.00">7 &gt;</text>
<polygon fill="black" stroke="black" points="76,-38 76,-54 76,-54 76,-38 76,-38"/>
<polygon fill="black" stroke="black" points="127,-38 127,-54 127,-54 127,-38 127,-38"/>
</a>
</g>
</g>
<!-- pp_order_node_trl&#45;&gt;pp_order_node -->
<g id="edge2" class="edge">
<title>pp_order_node_trl:w&#45;&gt;pp_order_node:e</title>
<path fill="none" stroke="black" d="M223.63,-318.02C182.35,-297.02 252.86,-172 189,-172"/>
<polygon fill="black" stroke="black" points="230.17,-319.38 237.27,-324.53 234.08,-320.19 238,-321 238,-321 238,-321 234.08,-320.19 238.73,-317.47 230.17,-319.38 230.17,-319.38"/>
<ellipse fill="none" stroke="black" cx="227.03" cy="-318.73" rx="3.2" ry="3.2"/>
</g>
</g>
</svg>
