<?xml version="1.0" encoding="UTF-8" standalone="no"?>
<!DOCTYPE svg PUBLIC "-//W3C//DTD SVG 1.1//EN"
 "http://www.w3.org/Graphics/SVG/1.1/DTD/svg11.dtd">
<!-- Generated by graphviz version 2.43.0 (0)
 -->
<!-- Title: oneDegreeRelationshipsDiagram Pages: 1 -->
<svg width="596pt" height="373pt"
 viewBox="0.00 0.00 596.00 373.00" xmlns="http://www.w3.org/2000/svg" xmlns:xlink="http://www.w3.org/1999/xlink">
<g id="graph0" class="graph" transform="scale(1 1) rotate(0) translate(4 369)">
<title>oneDegreeRelationshipsDiagram</title>
<polygon fill="#ffffff" stroke="transparent" points="-4,4 -4,-369 592,-369 592,4 -4,4"/>
<text text-anchor="middle" x="71.5" y="-7.2" font-family="Helvetica,sans-Serif" font-size="11.00">Generated by SchemaSpy</text>
<!-- r_issueknown -->
<g id="node1" class="node">
<title>r_issueknown</title>
<g id="a_node1"><a xlink:href="../../tables/r_issueknown.html" xlink:title="r_issueknown" target="_top">
<polygon fill="#ffffff" stroke="transparent" points="364,-37 364,-337 580,-337 580,-37 364,-37"/>
<polygon fill="#f5f5f5" stroke="transparent" points="364,-315 364,-337 580,-337 580,-315 364,-315"/>
<polygon fill="none" stroke="black" points="364,-315 364,-337 580,-337 580,-315 364,-315"/>
<text text-anchor="start" x="369" y="-324.2" font-family="Helvetica,sans-Serif" font-weight="bold" font-size="11.00">r_issueknown</text>
<text text-anchor="start" x="545" y="-323.2" font-family="Helvetica,sans-Serif" font-size="11.00">[table]</text>
<polygon fill="none" stroke="black" points="364,-293 364,-315 580,-315 580,-293 364,-293"/>
<image xlink:href="../../images/primaryKeys.png" width="11px" height="12px" preserveAspectRatio="xMinYMin meet" x="369" y="-310"/>
<text text-anchor="start" x="384" y="-301.2" font-family="Helvetica,sans-Serif" font-size="11.00">r_issueknown_id</text>
<polygon fill="#ffffff" stroke="transparent" points="364,-271 364,-293 580,-293 580,-271 364,-271"/>
<polygon fill="none" stroke="black" points="364,-271 364,-293 580,-293 580,-271 364,-271"/>
<text text-anchor="start" x="384" y="-279.2" font-family="Helvetica,sans-Serif" font-size="11.00">issuesummary</text>
<polygon fill="#ffffff" stroke="transparent" points="364,-249 364,-271 580,-271 580,-249 364,-249"/>
<polygon fill="none" stroke="black" points="364,-249 364,-271 580,-271 580,-249 364,-249"/>
<text text-anchor="start" x="384" y="-257.2" font-family="Helvetica,sans-Serif" font-size="11.00">releaseno</text>
<polygon fill="#ffffff" stroke="transparent" points="364,-227 364,-249 580,-249 580,-227 364,-227"/>
<polygon fill="none" stroke="black" points="364,-227 364,-249 580,-249 580,-227 364,-227"/>
<text text-anchor="start" x="384" y="-235.2" font-family="Helvetica,sans-Serif" font-size="11.00">sourceclassname</text>
<polygon fill="#ffffff" stroke="transparent" points="364,-205 364,-227 580,-227 580,-205 364,-205"/>
<polygon fill="none" stroke="black" points="364,-205 364,-227 580,-227 580,-205 364,-205"/>
<text text-anchor="start" x="384" y="-213.2" font-family="Helvetica,sans-Serif" font-size="11.00">sourcemethodname</text>
<polygon fill="#ffffff" stroke="transparent" points="364,-183 364,-205 580,-205 580,-183 364,-183"/>
<polygon fill="none" stroke="black" points="364,-183 364,-205 580,-205 580,-183 364,-183"/>
<text text-anchor="start" x="384" y="-191.2" font-family="Helvetica,sans-Serif" font-size="11.00">loggername</text>
<polygon fill="#ffffff" stroke="transparent" points="364,-161 364,-183 580,-183 580,-161 364,-161"/>
<polygon fill="none" stroke="black" points="364,-161 364,-183 580,-183 580,-161 364,-161"/>
<text text-anchor="start" x="384" y="-169.2" font-family="Helvetica,sans-Serif" font-size="11.00">lineno</text>
<polygon fill="none" stroke="black" points="364,-139 364,-161 580,-161 580,-139 364,-139"/>
<image xlink:href="../../images/foreignKeys.png" width="11px" height="12px" preserveAspectRatio="xMinYMin meet" x="369" y="-156"/>
<text text-anchor="start" x="384" y="-147.2" font-family="Helvetica,sans-Serif" font-size="11.00">r_issuestatus_id</text>
<polygon fill="none" stroke="black" points="364,-117 364,-139 580,-139 580,-117 364,-117"/>
<image xlink:href="../../images/foreignKeys.png" width="11px" height="12px" preserveAspectRatio="xMinYMin meet" x="369" y="-134"/>
<text text-anchor="start" x="384" y="-125.2" font-family="Helvetica,sans-Serif" font-size="11.00">r_request_id</text>
<polygon fill="none" stroke="black" points="364,-95 364,-117 580,-117 580,-95 364,-95"/>
<image xlink:href="../../images/foreignKeys.png" width="11px" height="12px" preserveAspectRatio="xMinYMin meet" x="369" y="-112"/>
<text text-anchor="start" x="384" y="-103.2" font-family="Helvetica,sans-Serif" font-size="11.00">r_issuerecommendation_id</text>
<polygon fill="#ffffff" stroke="transparent" points="364,-73 364,-95 580,-95 580,-73 364,-73"/>
<polygon fill="none" stroke="black" points="364,-73 364,-95 580,-95 580,-73 364,-73"/>
<text text-anchor="start" x="384" y="-81.2" font-family="Helvetica,sans-Serif" font-size="11.00">r_issueknown_uu</text>
<polygon fill="none" stroke="black" points="364,-55 364,-73 580,-73 580,-55 364,-55"/>
<text text-anchor="start" x="367" y="-61.2" font-family="Helvetica,sans-Serif" font-size="11.00">...</text>
<polygon fill="#ffffff" stroke="transparent" points="364,-37 364,-55 580,-55 580,-37 364,-37"/>
<polygon fill="none" stroke="black" points="364,-37 364,-55 580,-55 580,-37 364,-37"/>
<polygon fill="#ffffff" stroke="transparent" points="365,-38 365,-54 440,-54 440,-38 365,-38"/>
<text text-anchor="start" x="367" y="-43.2" font-family="Helvetica,sans-Serif" font-size="11.00">&lt; 3</text>
<polygon fill="#ffffff" stroke="transparent" points="440,-38 440,-54 505,-54 505,-38 440,-38"/>
<text text-anchor="start" x="469" y="-43.2" font-family="Helvetica,sans-Serif" font-size="11.00"> &#160;</text>
<polygon fill="#ffffff" stroke="transparent" points="505,-38 505,-54 579,-54 579,-38 505,-38"/>
<text text-anchor="start" x="561" y="-43.2" font-family="Helvetica,sans-Serif" font-size="11.00">1 &gt;</text>
<polygon fill="black" stroke="black" points="440,-38 440,-54 440,-54 440,-38 440,-38"/>
<polygon fill="black" stroke="black" points="505,-38 505,-54 505,-54 505,-38 505,-38"/>
</a>
</g>
</g>
<!-- r_issuerecommendation -->
<g id="node2" class="node">
<title>r_issuerecommendation</title>
<g id="a_node2"><a xlink:href="../../tables/r_issuerecommendation.html" xlink:title="r_issuerecommendation" target="_top">
<polygon fill="#ffffff" stroke="transparent" points="8,-53 8,-361 315,-361 315,-53 8,-53"/>
<polygon fill="#f5f5f5" stroke="transparent" points="10.5,-337 10.5,-359 313.5,-359 313.5,-337 10.5,-337"/>
<polygon fill="none" stroke="black" points="10.5,-337 10.5,-359 313.5,-359 313.5,-337 10.5,-337"/>
<text text-anchor="start" x="15.5" y="-346.2" font-family="Helvetica,sans-Serif" font-weight="bold" font-size="11.00">r_issuerecommendation</text>
<text text-anchor="start" x="278.5" y="-345.2" font-family="Helvetica,sans-Serif" font-size="11.00">[table]</text>
<polygon fill="none" stroke="black" points="10.5,-315 10.5,-337 230.5,-337 230.5,-315 10.5,-315"/>
<text text-anchor="start" x="30.5" y="-323.2" font-family="Helvetica,sans-Serif" font-size="11.00">ad_client_id</text>
<polygon fill="none" stroke="black" points="230.5,-315 230.5,-337 313.5,-337 313.5,-315 230.5,-315"/>
<text text-anchor="start" x="233.5" y="-323.2" font-family="Helvetica,sans-Serif" font-size="11.00">numeric[10]</text>
<polygon fill="none" stroke="black" points="10.5,-293 10.5,-315 230.5,-315 230.5,-293 10.5,-293"/>
<text text-anchor="start" x="30.5" y="-301.2" font-family="Helvetica,sans-Serif" font-size="11.00">ad_org_id</text>
<polygon fill="none" stroke="black" points="230.5,-293 230.5,-315 313.5,-315 313.5,-293 230.5,-293"/>
<text text-anchor="start" x="233.5" y="-301.2" font-family="Helvetica,sans-Serif" font-size="11.00">numeric[10]</text>
<polygon fill="none" stroke="black" points="10.5,-271 10.5,-293 230.5,-293 230.5,-271 10.5,-271"/>
<text text-anchor="start" x="30.5" y="-279.2" font-family="Helvetica,sans-Serif" font-size="11.00">isactive</text>
<polygon fill="none" stroke="black" points="230.5,-271 230.5,-293 313.5,-293 313.5,-271 230.5,-271"/>
<text text-anchor="start" x="233.5" y="-279.2" font-family="Helvetica,sans-Serif" font-size="11.00">bpchar[1]</text>
<polygon fill="none" stroke="black" points="10.5,-249 10.5,-271 230.5,-271 230.5,-249 10.5,-249"/>
<text text-anchor="start" x="30.5" y="-257.2" font-family="Helvetica,sans-Serif" font-size="11.00">created</text>
<polygon fill="none" stroke="black" points="230.5,-249 230.5,-271 313.5,-271 313.5,-249 230.5,-249"/>
<text text-anchor="start" x="233.5" y="-257.2" font-family="Helvetica,sans-Serif" font-size="11.00">timestamp[29,6]</text>
<polygon fill="none" stroke="black" points="10.5,-227 10.5,-249 230.5,-249 230.5,-227 10.5,-227"/>
<text text-anchor="start" x="30.5" y="-235.2" font-family="Helvetica,sans-Serif" font-size="11.00">createdby</text>
<polygon fill="none" stroke="black" points="230.5,-227 230.5,-249 313.5,-249 313.5,-227 230.5,-227"/>
<text text-anchor="start" x="233.5" y="-235.2" font-family="Helvetica,sans-Serif" font-size="11.00">numeric[10]</text>
<polygon fill="none" stroke="black" points="10.5,-205 10.5,-227 230.5,-227 230.5,-205 10.5,-205"/>
<text text-anchor="start" x="30.5" y="-213.2" font-family="Helvetica,sans-Serif" font-size="11.00">updated</text>
<polygon fill="none" stroke="black" points="230.5,-205 230.5,-227 313.5,-227 313.5,-205 230.5,-205"/>
<text text-anchor="start" x="233.5" y="-213.2" font-family="Helvetica,sans-Serif" font-size="11.00">timestamp[29,6]</text>
<polygon fill="none" stroke="black" points="10.5,-183 10.5,-205 230.5,-205 230.5,-183 10.5,-183"/>
<text text-anchor="start" x="30.5" y="-191.2" font-family="Helvetica,sans-Serif" font-size="11.00">updatedby</text>
<polygon fill="none" stroke="black" points="230.5,-183 230.5,-205 313.5,-205 313.5,-183 230.5,-183"/>
<text text-anchor="start" x="233.5" y="-191.2" font-family="Helvetica,sans-Serif" font-size="11.00">numeric[10]</text>
<polygon fill="none" stroke="black" points="10.5,-161 10.5,-183 230.5,-183 230.5,-161 10.5,-161"/>
<text text-anchor="start" x="30.5" y="-169.2" font-family="Helvetica,sans-Serif" font-size="11.00">name</text>
<polygon fill="none" stroke="black" points="230.5,-161 230.5,-183 313.5,-183 313.5,-161 230.5,-161"/>
<text text-anchor="start" x="233.5" y="-169.2" font-family="Helvetica,sans-Serif" font-size="11.00">varchar[60]</text>
<polygon fill="none" stroke="black" points="10.5,-139 10.5,-161 230.5,-161 230.5,-139 10.5,-139"/>
<text text-anchor="start" x="30.5" y="-147.2" font-family="Helvetica,sans-Serif" font-size="11.00">description</text>
<polygon fill="none" stroke="black" points="230.5,-139 230.5,-161 313.5,-161 313.5,-139 230.5,-139"/>
<text text-anchor="start" x="233.5" y="-147.2" font-family="Helvetica,sans-Serif" font-size="11.00">varchar[255]</text>
<polygon fill="none" stroke="black" points="10.5,-117 10.5,-139 230.5,-139 230.5,-117 10.5,-117"/>
<text text-anchor="start" x="30.5" y="-125.2" font-family="Helvetica,sans-Serif" font-size="11.00">help</text>
<polygon fill="none" stroke="black" points="230.5,-117 230.5,-139 313.5,-139 313.5,-117 230.5,-117"/>
<text text-anchor="start" x="233.5" y="-125.2" font-family="Helvetica,sans-Serif" font-size="11.00">varchar[2000]</text>
<polygon fill="none" stroke="black" points="10.5,-95 10.5,-117 230.5,-117 230.5,-95 10.5,-95"/>
<image xlink:href="../../images/primaryKeys.png" width="11px" height="12px" preserveAspectRatio="xMinYMin meet" x="15.5" y="-112"/>
<text text-anchor="start" x="30.5" y="-103.2" font-family="Helvetica,sans-Serif" font-size="11.00">r_issuerecommendation_id</text>
<polygon fill="none" stroke="black" points="230.5,-95 230.5,-117 313.5,-117 313.5,-95 230.5,-95"/>
<text text-anchor="start" x="233.5" y="-103.2" font-family="Helvetica,sans-Serif" font-size="11.00">numeric[10]</text>
<polygon fill="#ffffff" stroke="transparent" points="10.5,-73 10.5,-95 230.5,-95 230.5,-73 10.5,-73"/>
<polygon fill="none" stroke="black" points="10.5,-73 10.5,-95 230.5,-95 230.5,-73 10.5,-73"/>
<text text-anchor="start" x="30.5" y="-81.2" font-family="Helvetica,sans-Serif" font-size="11.00">r_issuerecommendation_uu</text>
<polygon fill="none" stroke="black" points="230.5,-73 230.5,-95 313.5,-95 313.5,-73 230.5,-73"/>
<text text-anchor="start" x="233.5" y="-81.2" font-family="Helvetica,sans-Serif" font-size="11.00">varchar[36]</text>
<polygon fill="#ffffff" stroke="transparent" points="10.5,-55 10.5,-73 313.5,-73 313.5,-55 10.5,-55"/>
<polygon fill="none" stroke="black" points="10.5,-55 10.5,-73 313.5,-73 313.5,-55 10.5,-55"/>
<polygon fill="#ffffff" stroke="transparent" points="11.5,-56 11.5,-72 115.5,-72 115.5,-56 11.5,-56"/>
<text text-anchor="start" x="13.5" y="-61.2" font-family="Helvetica,sans-Serif" font-size="11.00">&lt; 0</text>
<polygon fill="#ffffff" stroke="transparent" points="115.5,-56 115.5,-72 209.5,-72 209.5,-56 115.5,-56"/>
<text text-anchor="start" x="159" y="-61.2" font-family="Helvetica,sans-Serif" font-size="11.00"> &#160;</text>
<polygon fill="#ffffff" stroke="transparent" points="209.5,-56 209.5,-72 312.5,-72 312.5,-56 209.5,-56"/>
<text text-anchor="start" x="294.5" y="-61.2" font-family="Helvetica,sans-Serif" font-size="11.00">1 &gt;</text>
<polygon fill="black" stroke="black" points="115.5,-56 115.5,-72 115.5,-72 115.5,-56 115.5,-56"/>
<polygon fill="black" stroke="black" points="209.5,-56 209.5,-72 209.5,-72 209.5,-56 209.5,-56"/>
<polygon fill="none" stroke="black" stroke-width="2" points="9,-54 9,-360 314,-360 314,-54 9,-54"/>
</a>
</g>
</g>
<!-- r_issueknown&#45;&gt;r_issuerecommendation -->
<g id="edge1" class="edge">
<title>r_issueknown:w&#45;&gt;r_issuerecommendation:e</title>
<path fill="none" stroke="black" d="M348.28,-106C337.29,-106 330.16,-106 314.5,-106"/>
<polygon fill="black" stroke="black" points="355,-106 363,-109.6 359,-106 363,-106 363,-106 363,-106 359,-106 363,-102.4 355,-106 355,-106"/>
<ellipse fill="none" stroke="black" cx="351.8" cy="-106" rx="3.2" ry="3.2"/>
</g>
</g>
</svg>
