<?xml version="1.0" encoding="UTF-8" standalone="no"?>
<!DOCTYPE svg PUBLIC "-//W3C//DTD SVG 1.1//EN"
 "http://www.w3.org/Graphics/SVG/1.1/DTD/svg11.dtd">
<!-- Generated by graphviz version 2.43.0 (0)
 -->
<!-- Title: oneDegreeRelationshipsDiagram Pages: 1 -->
<svg width="975pt" height="869pt"
 viewBox="0.00 0.00 975.00 869.00" xmlns="http://www.w3.org/2000/svg" xmlns:xlink="http://www.w3.org/1999/xlink">
<g id="graph0" class="graph" transform="scale(1 1) rotate(0) translate(4 865)">
<title>oneDegreeRelationshipsDiagram</title>
<polygon fill="#ffffff" stroke="transparent" points="-4,4 -4,-865 971,-865 971,4 -4,4"/>
<text text-anchor="middle" x="71.5" y="-7.2" font-family="Helvetica,sans-Serif" font-size="11.00">Generated by SchemaSpy</text>
<!-- a_asset -->
<g id="node1" class="node">
<title>a_asset</title>
<g id="a_node1"><a xlink:href="../../tables/a_asset.html" xlink:title="a_asset" target="_top">
<polygon fill="#ffffff" stroke="transparent" points="242,-381 242,-835 453,-835 453,-381 242,-381"/>
<polygon fill="#f5f5f5" stroke="transparent" points="242.5,-813 242.5,-835 453.5,-835 453.5,-813 242.5,-813"/>
<polygon fill="none" stroke="black" points="242.5,-813 242.5,-835 453.5,-835 453.5,-813 242.5,-813"/>
<text text-anchor="start" x="247.5" y="-822.2" font-family="Helvetica,sans-Serif" font-weight="bold" font-size="11.00">a_asset</text>
<text text-anchor="start" x="418.5" y="-821.2" font-family="Helvetica,sans-Serif" font-size="11.00">[table]</text>
<polygon fill="none" stroke="black" points="242.5,-791 242.5,-813 453.5,-813 453.5,-791 242.5,-791"/>
<image xlink:href="../../images/primaryKeys.png" width="11px" height="12px" preserveAspectRatio="xMinYMin meet" x="247.5" y="-808"/>
<text text-anchor="start" x="262.5" y="-799.2" font-family="Helvetica,sans-Serif" font-size="11.00">a_asset_id</text>
<polygon fill="none" stroke="black" points="242.5,-769 242.5,-791 453.5,-791 453.5,-769 242.5,-769"/>
<image xlink:href="../../images/foreignKeys.png" width="11px" height="12px" preserveAspectRatio="xMinYMin meet" x="247.5" y="-786"/>
<text text-anchor="start" x="262.5" y="-777.2" font-family="Helvetica,sans-Serif" font-size="11.00">a_asset_group_id</text>
<polygon fill="none" stroke="black" points="242.5,-747 242.5,-769 453.5,-769 453.5,-747 242.5,-747"/>
<image xlink:href="../../images/foreignKeys.png" width="11px" height="12px" preserveAspectRatio="xMinYMin meet" x="247.5" y="-764"/>
<text text-anchor="start" x="262.5" y="-755.2" font-family="Helvetica,sans-Serif" font-size="11.00">m_product_id</text>
<polygon fill="none" stroke="black" points="242.5,-725 242.5,-747 453.5,-747 453.5,-725 242.5,-725"/>
<image xlink:href="../../images/foreignKeys.png" width="11px" height="12px" preserveAspectRatio="xMinYMin meet" x="247.5" y="-742"/>
<text text-anchor="start" x="262.5" y="-733.2" font-family="Helvetica,sans-Serif" font-size="11.00">m_locator_id</text>
<polygon fill="none" stroke="black" points="242.5,-703 242.5,-725 453.5,-725 453.5,-703 242.5,-703"/>
<image xlink:href="../../images/foreignKeys.png" width="11px" height="12px" preserveAspectRatio="xMinYMin meet" x="247.5" y="-720"/>
<text text-anchor="start" x="262.5" y="-711.2" font-family="Helvetica,sans-Serif" font-size="11.00">c_bpartner_id</text>
<polygon fill="none" stroke="black" points="242.5,-681 242.5,-703 453.5,-703 453.5,-681 242.5,-681"/>
<image xlink:href="../../images/foreignKeys.png" width="11px" height="12px" preserveAspectRatio="xMinYMin meet" x="247.5" y="-698"/>
<text text-anchor="start" x="262.5" y="-689.2" font-family="Helvetica,sans-Serif" font-size="11.00">c_bpartner_location_id</text>
<polygon fill="none" stroke="black" points="242.5,-659 242.5,-681 453.5,-681 453.5,-659 242.5,-659"/>
<image xlink:href="../../images/foreignKeys.png" width="11px" height="12px" preserveAspectRatio="xMinYMin meet" x="247.5" y="-676"/>
<text text-anchor="start" x="262.5" y="-667.2" font-family="Helvetica,sans-Serif" font-size="11.00">c_location_id</text>
<polygon fill="none" stroke="black" points="242.5,-637 242.5,-659 453.5,-659 453.5,-637 242.5,-637"/>
<image xlink:href="../../images/foreignKeys.png" width="11px" height="12px" preserveAspectRatio="xMinYMin meet" x="247.5" y="-654"/>
<text text-anchor="start" x="262.5" y="-645.2" font-family="Helvetica,sans-Serif" font-size="11.00">ad_user_id</text>
<polygon fill="none" stroke="black" points="242.5,-615 242.5,-637 453.5,-637 453.5,-615 242.5,-615"/>
<image xlink:href="../../images/foreignKeys.png" width="11px" height="12px" preserveAspectRatio="xMinYMin meet" x="247.5" y="-632"/>
<text text-anchor="start" x="262.5" y="-623.2" font-family="Helvetica,sans-Serif" font-size="11.00">m_attributesetinstance_id</text>
<polygon fill="none" stroke="black" points="242.5,-593 242.5,-615 453.5,-615 453.5,-593 242.5,-593"/>
<image xlink:href="../../images/foreignKeys.png" width="11px" height="12px" preserveAspectRatio="xMinYMin meet" x="247.5" y="-610"/>
<text text-anchor="start" x="262.5" y="-601.2" font-family="Helvetica,sans-Serif" font-size="11.00">c_project_id</text>
<polygon fill="none" stroke="black" points="242.5,-571 242.5,-593 453.5,-593 453.5,-571 242.5,-571"/>
<image xlink:href="../../images/foreignKeys.png" width="11px" height="12px" preserveAspectRatio="xMinYMin meet" x="247.5" y="-588"/>
<text text-anchor="start" x="262.5" y="-579.2" font-family="Helvetica,sans-Serif" font-size="11.00">c_bpartnersr_id</text>
<polygon fill="none" stroke="black" points="242.5,-549 242.5,-571 453.5,-571 453.5,-549 242.5,-549"/>
<image xlink:href="../../images/foreignKeys.png" width="11px" height="12px" preserveAspectRatio="xMinYMin meet" x="247.5" y="-566"/>
<text text-anchor="start" x="262.5" y="-557.2" font-family="Helvetica,sans-Serif" font-size="11.00">m_inoutline_id</text>
<polygon fill="none" stroke="black" points="242.5,-527 242.5,-549 453.5,-549 453.5,-527 242.5,-527"/>
<image xlink:href="../../images/foreignKeys.png" width="11px" height="12px" preserveAspectRatio="xMinYMin meet" x="247.5" y="-544"/>
<text text-anchor="start" x="262.5" y="-535.2" font-family="Helvetica,sans-Serif" font-size="11.00">lease_bpartner_id</text>
<polygon fill="none" stroke="black" points="242.5,-505 242.5,-527 453.5,-527 453.5,-505 242.5,-505"/>
<image xlink:href="../../images/foreignKeys.png" width="11px" height="12px" preserveAspectRatio="xMinYMin meet" x="247.5" y="-522"/>
<text text-anchor="start" x="262.5" y="-513.2" font-family="Helvetica,sans-Serif" font-size="11.00">a_parent_asset_id</text>
<polygon fill="#ffffff" stroke="transparent" points="242.5,-483 242.5,-505 453.5,-505 453.5,-483 242.5,-483"/>
<polygon fill="none" stroke="black" points="242.5,-483 242.5,-505 453.5,-505 453.5,-483 242.5,-483"/>
<text text-anchor="start" x="262.5" y="-491.2" font-family="Helvetica,sans-Serif" font-size="11.00">a_asset_uu</text>
<polygon fill="none" stroke="black" points="242.5,-461 242.5,-483 453.5,-483 453.5,-461 242.5,-461"/>
<image xlink:href="../../images/foreignKeys.png" width="11px" height="12px" preserveAspectRatio="xMinYMin meet" x="247.5" y="-478"/>
<text text-anchor="start" x="262.5" y="-469.2" font-family="Helvetica,sans-Serif" font-size="11.00">a_asset_class_id</text>
<polygon fill="none" stroke="black" points="242.5,-439 242.5,-461 453.5,-461 453.5,-439 242.5,-439"/>
<image xlink:href="../../images/foreignKeys.png" width="11px" height="12px" preserveAspectRatio="xMinYMin meet" x="247.5" y="-456"/>
<text text-anchor="start" x="262.5" y="-447.2" font-family="Helvetica,sans-Serif" font-size="11.00">a_asset_type_id</text>
<polygon fill="none" stroke="black" points="242.5,-417 242.5,-439 453.5,-439 453.5,-417 242.5,-417"/>
<image xlink:href="../../images/foreignKeys.png" width="11px" height="12px" preserveAspectRatio="xMinYMin meet" x="247.5" y="-434"/>
<text text-anchor="start" x="262.5" y="-425.2" font-family="Helvetica,sans-Serif" font-size="11.00">c_activity_id</text>
<polygon fill="none" stroke="black" points="242.5,-399 242.5,-417 453.5,-417 453.5,-399 242.5,-399"/>
<text text-anchor="start" x="245.5" y="-405.2" font-family="Helvetica,sans-Serif" font-size="11.00">...</text>
<polygon fill="#ffffff" stroke="transparent" points="242.5,-381 242.5,-399 453.5,-399 453.5,-381 242.5,-381"/>
<polygon fill="none" stroke="black" points="242.5,-381 242.5,-399 453.5,-399 453.5,-381 242.5,-381"/>
<polygon fill="#ffffff" stroke="transparent" points="243.5,-382 243.5,-398 318.5,-398 318.5,-382 243.5,-382"/>
<text text-anchor="start" x="245.5" y="-387.2" font-family="Helvetica,sans-Serif" font-size="11.00">&lt; 16</text>
<polygon fill="#ffffff" stroke="transparent" points="318.5,-382 318.5,-398 378.5,-398 378.5,-382 318.5,-382"/>
<text text-anchor="start" x="345" y="-387.2" font-family="Helvetica,sans-Serif" font-size="11.00"> &#160;</text>
<polygon fill="#ffffff" stroke="transparent" points="378.5,-382 378.5,-398 452.5,-398 452.5,-382 378.5,-382"/>
<text text-anchor="start" x="428.5" y="-387.2" font-family="Helvetica,sans-Serif" font-size="11.00">52 &gt;</text>
<polygon fill="black" stroke="black" points="318.5,-382 318.5,-398 318.5,-398 318.5,-382 318.5,-382"/>
<polygon fill="black" stroke="black" points="378.5,-382 378.5,-398 378.5,-398 378.5,-382 378.5,-382"/>
</a>
</g>
</g>
<!-- c_project -->
<g id="node2" class="node">
<title>c_project</title>
<g id="a_node2"><a xlink:href="../../tables/c_project.html" xlink:title="c_project" target="_top">
<polygon fill="#ffffff" stroke="transparent" points="8,-37 8,-513 193,-513 193,-37 8,-37"/>
<polygon fill="#f5f5f5" stroke="transparent" points="8.5,-491 8.5,-513 193.5,-513 193.5,-491 8.5,-491"/>
<polygon fill="none" stroke="black" points="8.5,-491 8.5,-513 193.5,-513 193.5,-491 8.5,-491"/>
<text text-anchor="start" x="13.5" y="-500.2" font-family="Helvetica,sans-Serif" font-weight="bold" font-size="11.00">c_project</text>
<text text-anchor="start" x="158.5" y="-499.2" font-family="Helvetica,sans-Serif" font-size="11.00">[table]</text>
<polygon fill="none" stroke="black" points="8.5,-469 8.5,-491 193.5,-491 193.5,-469 8.5,-469"/>
<image xlink:href="../../images/primaryKeys.png" width="11px" height="12px" preserveAspectRatio="xMinYMin meet" x="13.5" y="-486"/>
<text text-anchor="start" x="28.5" y="-477.2" font-family="Helvetica,sans-Serif" font-size="11.00">c_project_id</text>
<polygon fill="#ffffff" stroke="transparent" points="8.5,-447 8.5,-469 193.5,-469 193.5,-447 8.5,-447"/>
<polygon fill="none" stroke="black" points="8.5,-447 8.5,-469 193.5,-469 193.5,-447 8.5,-447"/>
<image xlink:href="../../images/foreignKeys.png" width="11px" height="12px" preserveAspectRatio="xMinYMin meet" x="13.5" y="-464"/>
<text text-anchor="start" x="28.5" y="-455.2" font-family="Helvetica,sans-Serif" font-size="11.00">ad_client_id</text>
<polygon fill="none" stroke="black" points="8.5,-425 8.5,-447 193.5,-447 193.5,-425 8.5,-425"/>
<image xlink:href="../../images/foreignKeys.png" width="11px" height="12px" preserveAspectRatio="xMinYMin meet" x="13.5" y="-442"/>
<text text-anchor="start" x="28.5" y="-433.2" font-family="Helvetica,sans-Serif" font-size="11.00">ad_org_id</text>
<polygon fill="#ffffff" stroke="transparent" points="8.5,-403 8.5,-425 193.5,-425 193.5,-403 8.5,-403"/>
<polygon fill="none" stroke="black" points="8.5,-403 8.5,-425 193.5,-425 193.5,-403 8.5,-403"/>
<text text-anchor="start" x="28.5" y="-411.2" font-family="Helvetica,sans-Serif" font-size="11.00">value</text>
<polygon fill="none" stroke="black" points="8.5,-381 8.5,-403 193.5,-403 193.5,-381 8.5,-381"/>
<image xlink:href="../../images/foreignKeys.png" width="11px" height="12px" preserveAspectRatio="xMinYMin meet" x="13.5" y="-398"/>
<text text-anchor="start" x="28.5" y="-389.2" font-family="Helvetica,sans-Serif" font-size="11.00">ad_user_id</text>
<polygon fill="none" stroke="black" points="8.5,-359 8.5,-381 193.5,-381 193.5,-359 8.5,-359"/>
<image xlink:href="../../images/foreignKeys.png" width="11px" height="12px" preserveAspectRatio="xMinYMin meet" x="13.5" y="-376"/>
<text text-anchor="start" x="28.5" y="-367.2" font-family="Helvetica,sans-Serif" font-size="11.00">c_bpartner_id</text>
<polygon fill="none" stroke="black" points="8.5,-337 8.5,-359 193.5,-359 193.5,-337 8.5,-337"/>
<image xlink:href="../../images/foreignKeys.png" width="11px" height="12px" preserveAspectRatio="xMinYMin meet" x="13.5" y="-354"/>
<text text-anchor="start" x="28.5" y="-345.2" font-family="Helvetica,sans-Serif" font-size="11.00">c_bpartner_location_id</text>
<polygon fill="none" stroke="black" points="8.5,-315 8.5,-337 193.5,-337 193.5,-315 8.5,-315"/>
<image xlink:href="../../images/foreignKeys.png" width="11px" height="12px" preserveAspectRatio="xMinYMin meet" x="13.5" y="-332"/>
<text text-anchor="start" x="28.5" y="-323.2" font-family="Helvetica,sans-Serif" font-size="11.00">c_paymentterm_id</text>
<polygon fill="none" stroke="black" points="8.5,-293 8.5,-315 193.5,-315 193.5,-293 8.5,-293"/>
<image xlink:href="../../images/foreignKeys.png" width="11px" height="12px" preserveAspectRatio="xMinYMin meet" x="13.5" y="-310"/>
<text text-anchor="start" x="28.5" y="-301.2" font-family="Helvetica,sans-Serif" font-size="11.00">c_currency_id</text>
<polygon fill="none" stroke="black" points="8.5,-271 8.5,-293 193.5,-293 193.5,-271 8.5,-271"/>
<image xlink:href="../../images/foreignKeys.png" width="11px" height="12px" preserveAspectRatio="xMinYMin meet" x="13.5" y="-288"/>
<text text-anchor="start" x="28.5" y="-279.2" font-family="Helvetica,sans-Serif" font-size="11.00">m_pricelist_version_id</text>
<polygon fill="none" stroke="black" points="8.5,-249 8.5,-271 193.5,-271 193.5,-249 8.5,-249"/>
<image xlink:href="../../images/foreignKeys.png" width="11px" height="12px" preserveAspectRatio="xMinYMin meet" x="13.5" y="-266"/>
<text text-anchor="start" x="28.5" y="-257.2" font-family="Helvetica,sans-Serif" font-size="11.00">c_campaign_id</text>
<polygon fill="none" stroke="black" points="8.5,-227 8.5,-249 193.5,-249 193.5,-227 8.5,-227"/>
<image xlink:href="../../images/foreignKeys.png" width="11px" height="12px" preserveAspectRatio="xMinYMin meet" x="13.5" y="-244"/>
<text text-anchor="start" x="28.5" y="-235.2" font-family="Helvetica,sans-Serif" font-size="11.00">salesrep_id</text>
<polygon fill="none" stroke="black" points="8.5,-205 8.5,-227 193.5,-227 193.5,-205 8.5,-205"/>
<image xlink:href="../../images/foreignKeys.png" width="11px" height="12px" preserveAspectRatio="xMinYMin meet" x="13.5" y="-222"/>
<text text-anchor="start" x="28.5" y="-213.2" font-family="Helvetica,sans-Serif" font-size="11.00">c_projecttype_id</text>
<polygon fill="none" stroke="black" points="8.5,-183 8.5,-205 193.5,-205 193.5,-183 8.5,-183"/>
<image xlink:href="../../images/foreignKeys.png" width="11px" height="12px" preserveAspectRatio="xMinYMin meet" x="13.5" y="-200"/>
<text text-anchor="start" x="28.5" y="-191.2" font-family="Helvetica,sans-Serif" font-size="11.00">c_phase_id</text>
<polygon fill="none" stroke="black" points="8.5,-161 8.5,-183 193.5,-183 193.5,-161 8.5,-161"/>
<image xlink:href="../../images/foreignKeys.png" width="11px" height="12px" preserveAspectRatio="xMinYMin meet" x="13.5" y="-178"/>
<text text-anchor="start" x="28.5" y="-169.2" font-family="Helvetica,sans-Serif" font-size="11.00">m_warehouse_id</text>
<polygon fill="none" stroke="black" points="8.5,-139 8.5,-161 193.5,-161 193.5,-139 8.5,-139"/>
<image xlink:href="../../images/foreignKeys.png" width="11px" height="12px" preserveAspectRatio="xMinYMin meet" x="13.5" y="-156"/>
<text text-anchor="start" x="28.5" y="-147.2" font-family="Helvetica,sans-Serif" font-size="11.00">c_bpartnersr_id</text>
<polygon fill="#ffffff" stroke="transparent" points="8.5,-117 8.5,-139 193.5,-139 193.5,-117 8.5,-117"/>
<polygon fill="none" stroke="black" points="8.5,-117 8.5,-139 193.5,-139 193.5,-117 8.5,-117"/>
<text text-anchor="start" x="28.5" y="-125.2" font-family="Helvetica,sans-Serif" font-size="11.00">c_project_uu</text>
<polygon fill="none" stroke="black" points="8.5,-95 8.5,-117 193.5,-117 193.5,-95 8.5,-95"/>
<image xlink:href="../../images/foreignKeys.png" width="11px" height="12px" preserveAspectRatio="xMinYMin meet" x="13.5" y="-112"/>
<text text-anchor="start" x="28.5" y="-103.2" font-family="Helvetica,sans-Serif" font-size="11.00">ad_orgtrx_id</text>
<polygon fill="none" stroke="black" points="8.5,-73 8.5,-95 193.5,-95 193.5,-73 8.5,-73"/>
<image xlink:href="../../images/foreignKeys.png" width="11px" height="12px" preserveAspectRatio="xMinYMin meet" x="13.5" y="-90"/>
<text text-anchor="start" x="28.5" y="-81.2" font-family="Helvetica,sans-Serif" font-size="11.00">c_activity_id</text>
<polygon fill="none" stroke="black" points="8.5,-55 8.5,-73 193.5,-73 193.5,-55 8.5,-55"/>
<text text-anchor="start" x="11.5" y="-61.2" font-family="Helvetica,sans-Serif" font-size="11.00">...</text>
<polygon fill="#ffffff" stroke="transparent" points="8.5,-37 8.5,-55 193.5,-55 193.5,-37 8.5,-37"/>
<polygon fill="none" stroke="black" points="8.5,-37 8.5,-55 193.5,-55 193.5,-37 8.5,-37"/>
<polygon fill="#ffffff" stroke="transparent" points="9.5,-38 9.5,-54 75.5,-54 75.5,-38 9.5,-38"/>
<text text-anchor="start" x="11.5" y="-43.2" font-family="Helvetica,sans-Serif" font-size="11.00">&lt; 16</text>
<polygon fill="#ffffff" stroke="transparent" points="75.5,-38 75.5,-54 126.5,-54 126.5,-38 75.5,-38"/>
<text text-anchor="start" x="97.5" y="-43.2" font-family="Helvetica,sans-Serif" font-size="11.00"> &#160;</text>
<polygon fill="#ffffff" stroke="transparent" points="126.5,-38 126.5,-54 192.5,-54 192.5,-38 126.5,-38"/>
<text text-anchor="start" x="168.5" y="-43.2" font-family="Helvetica,sans-Serif" font-size="11.00">57 &gt;</text>
<polygon fill="black" stroke="black" points="75.5,-38 75.5,-54 75.5,-54 75.5,-38 75.5,-38"/>
<polygon fill="black" stroke="black" points="126.5,-38 126.5,-54 126.5,-54 126.5,-38 126.5,-38"/>
</a>
</g>
</g>
<!-- a_asset&#45;&gt;c_project -->
<g id="edge1" class="edge">
<title>a_asset:w&#45;&gt;c_project:e</title>
<path fill="none" stroke="black" d="M227.29,-600.42C195.62,-580.09 247.45,-480 194.5,-480"/>
<polygon fill="black" stroke="black" points="233.74,-602.05 240.62,-607.49 237.62,-603.02 241.5,-604 241.5,-604 241.5,-604 237.62,-603.02 242.38,-600.51 233.74,-602.05 233.74,-602.05"/>
<ellipse fill="none" stroke="black" cx="230.64" cy="-601.27" rx="3.2" ry="3.2"/>
</g>
<!-- ad_issue -->
<g id="node3" class="node">
<title>ad_issue</title>
<g id="a_node3"><a xlink:href="../../tables/ad_issue.html" xlink:title="ad_issue" target="_top">
<polygon fill="#ffffff" stroke="transparent" points="786,-557 786,-857 959,-857 959,-557 786,-557"/>
<polygon fill="#f5f5f5" stroke="transparent" points="786.5,-835 786.5,-857 959.5,-857 959.5,-835 786.5,-835"/>
<polygon fill="none" stroke="black" points="786.5,-835 786.5,-857 959.5,-857 959.5,-835 786.5,-835"/>
<text text-anchor="start" x="791.5" y="-844.2" font-family="Helvetica,sans-Serif" font-weight="bold" font-size="11.00">ad_issue</text>
<text text-anchor="start" x="924.5" y="-843.2" font-family="Helvetica,sans-Serif" font-size="11.00">[table]</text>
<polygon fill="none" stroke="black" points="786.5,-813 786.5,-835 959.5,-835 959.5,-813 786.5,-813"/>
<image xlink:href="../../images/primaryKeys.png" width="11px" height="12px" preserveAspectRatio="xMinYMin meet" x="791.5" y="-830"/>
<text text-anchor="start" x="806.5" y="-821.2" font-family="Helvetica,sans-Serif" font-size="11.00">ad_issue_id</text>
<polygon fill="none" stroke="black" points="786.5,-791 786.5,-813 959.5,-813 959.5,-791 786.5,-791"/>
<image xlink:href="../../images/foreignKeys.png" width="11px" height="12px" preserveAspectRatio="xMinYMin meet" x="791.5" y="-808"/>
<text text-anchor="start" x="806.5" y="-799.2" font-family="Helvetica,sans-Serif" font-size="11.00">a_asset_id</text>
<polygon fill="none" stroke="black" points="786.5,-769 786.5,-791 959.5,-791 959.5,-769 786.5,-769"/>
<image xlink:href="../../images/foreignKeys.png" width="11px" height="12px" preserveAspectRatio="xMinYMin meet" x="791.5" y="-786"/>
<text text-anchor="start" x="806.5" y="-777.2" font-family="Helvetica,sans-Serif" font-size="11.00">r_request_id</text>
<polygon fill="none" stroke="black" points="786.5,-747 786.5,-769 959.5,-769 959.5,-747 786.5,-747"/>
<image xlink:href="../../images/foreignKeys.png" width="11px" height="12px" preserveAspectRatio="xMinYMin meet" x="791.5" y="-764"/>
<text text-anchor="start" x="806.5" y="-755.2" font-family="Helvetica,sans-Serif" font-size="11.00">r_issueknown_id</text>
<polygon fill="none" stroke="black" points="786.5,-725 786.5,-747 959.5,-747 959.5,-725 786.5,-725"/>
<image xlink:href="../../images/foreignKeys.png" width="11px" height="12px" preserveAspectRatio="xMinYMin meet" x="791.5" y="-742"/>
<text text-anchor="start" x="806.5" y="-733.2" font-family="Helvetica,sans-Serif" font-size="11.00">r_issueproject_id</text>
<polygon fill="none" stroke="black" points="786.5,-703 786.5,-725 959.5,-725 959.5,-703 786.5,-703"/>
<image xlink:href="../../images/foreignKeys.png" width="11px" height="12px" preserveAspectRatio="xMinYMin meet" x="791.5" y="-720"/>
<text text-anchor="start" x="806.5" y="-711.2" font-family="Helvetica,sans-Serif" font-size="11.00">r_issueuser_id</text>
<polygon fill="none" stroke="black" points="786.5,-681 786.5,-703 959.5,-703 959.5,-681 786.5,-681"/>
<image xlink:href="../../images/foreignKeys.png" width="11px" height="12px" preserveAspectRatio="xMinYMin meet" x="791.5" y="-698"/>
<text text-anchor="start" x="806.5" y="-689.2" font-family="Helvetica,sans-Serif" font-size="11.00">r_issuesystem_id</text>
<polygon fill="none" stroke="black" points="786.5,-659 786.5,-681 959.5,-681 959.5,-659 786.5,-659"/>
<image xlink:href="../../images/foreignKeys.png" width="11px" height="12px" preserveAspectRatio="xMinYMin meet" x="791.5" y="-676"/>
<text text-anchor="start" x="806.5" y="-667.2" font-family="Helvetica,sans-Serif" font-size="11.00">ad_window_id</text>
<polygon fill="none" stroke="black" points="786.5,-637 786.5,-659 959.5,-659 959.5,-637 786.5,-637"/>
<image xlink:href="../../images/foreignKeys.png" width="11px" height="12px" preserveAspectRatio="xMinYMin meet" x="791.5" y="-654"/>
<text text-anchor="start" x="806.5" y="-645.2" font-family="Helvetica,sans-Serif" font-size="11.00">ad_process_id</text>
<polygon fill="none" stroke="black" points="786.5,-615 786.5,-637 959.5,-637 959.5,-615 786.5,-615"/>
<image xlink:href="../../images/foreignKeys.png" width="11px" height="12px" preserveAspectRatio="xMinYMin meet" x="791.5" y="-632"/>
<text text-anchor="start" x="806.5" y="-623.2" font-family="Helvetica,sans-Serif" font-size="11.00">ad_form_id</text>
<polygon fill="#ffffff" stroke="transparent" points="786.5,-593 786.5,-615 959.5,-615 959.5,-593 786.5,-593"/>
<polygon fill="none" stroke="black" points="786.5,-593 786.5,-615 959.5,-615 959.5,-593 786.5,-593"/>
<text text-anchor="start" x="806.5" y="-601.2" font-family="Helvetica,sans-Serif" font-size="11.00">ad_issue_uu</text>
<polygon fill="none" stroke="black" points="786.5,-575 786.5,-593 959.5,-593 959.5,-575 786.5,-575"/>
<text text-anchor="start" x="789.5" y="-581.2" font-family="Helvetica,sans-Serif" font-size="11.00">...</text>
<polygon fill="#ffffff" stroke="transparent" points="786.5,-557 786.5,-575 959.5,-575 959.5,-557 786.5,-557"/>
<polygon fill="none" stroke="black" points="786.5,-557 786.5,-575 959.5,-575 959.5,-557 786.5,-557"/>
<polygon fill="#ffffff" stroke="transparent" points="787.5,-558 787.5,-574 843.5,-574 843.5,-558 787.5,-558"/>
<text text-anchor="start" x="789.5" y="-563.2" font-family="Helvetica,sans-Serif" font-size="11.00">&lt; 9</text>
<polygon fill="#ffffff" stroke="transparent" points="843.5,-558 843.5,-574 911.5,-574 911.5,-558 843.5,-558"/>
<text text-anchor="start" x="863.5" y="-563.2" font-family="Helvetica,sans-Serif" font-size="11.00">1 row</text>
<polygon fill="#ffffff" stroke="transparent" points="911.5,-558 911.5,-574 958.5,-574 958.5,-558 911.5,-558"/>
<text text-anchor="start" x="949.5" y="-563.2" font-family="Helvetica,sans-Serif" font-size="11.00"> &#160;</text>
<polygon fill="black" stroke="black" points="843.5,-558 843.5,-574 843.5,-574 843.5,-558 843.5,-558"/>
<polygon fill="black" stroke="black" points="911.5,-558 911.5,-574 911.5,-574 911.5,-558 911.5,-558"/>
</a>
</g>
</g>
<!-- ad_issue&#45;&gt;a_asset -->
<g id="edge2" class="edge">
<title>ad_issue:w&#45;&gt;a_asset:e</title>
<path fill="none" stroke="black" d="M770.79,-802C635.75,-802 596.58,-802 454.5,-802"/>
<polygon fill="black" stroke="black" points="777.5,-802 785.5,-805.6 781.5,-802 785.5,-802 785.5,-802 785.5,-802 781.5,-802 785.5,-798.4 777.5,-802 777.5,-802"/>
<ellipse fill="none" stroke="black" cx="774.3" cy="-802" rx="3.2" ry="3.2"/>
</g>
<!-- r_issueproject -->
<g id="node4" class="node">
<title>r_issueproject</title>
<g id="a_node4"><a xlink:href="../../tables/r_issueproject.html" xlink:title="r_issueproject" target="_top">
<polygon fill="#ffffff" stroke="transparent" points="502,-306 502,-702 737,-702 737,-306 502,-306"/>
<polygon fill="#f5f5f5" stroke="transparent" points="504.5,-678 504.5,-700 735.5,-700 735.5,-678 504.5,-678"/>
<polygon fill="none" stroke="black" points="504.5,-678 504.5,-700 735.5,-700 735.5,-678 504.5,-678"/>
<text text-anchor="start" x="509.5" y="-687.2" font-family="Helvetica,sans-Serif" font-weight="bold" font-size="11.00">r_issueproject</text>
<text text-anchor="start" x="700.5" y="-686.2" font-family="Helvetica,sans-Serif" font-size="11.00">[table]</text>
<polygon fill="none" stroke="black" points="504.5,-656 504.5,-678 652.5,-678 652.5,-656 504.5,-656"/>
<image xlink:href="../../images/primaryKeys.png" width="11px" height="12px" preserveAspectRatio="xMinYMin meet" x="509.5" y="-673"/>
<text text-anchor="start" x="524.5" y="-664.2" font-family="Helvetica,sans-Serif" font-size="11.00">r_issueproject_id</text>
<polygon fill="none" stroke="black" points="652.5,-656 652.5,-678 735.5,-678 735.5,-656 652.5,-656"/>
<text text-anchor="start" x="655.5" y="-664.2" font-family="Helvetica,sans-Serif" font-size="11.00">numeric[10]</text>
<polygon fill="none" stroke="black" points="504.5,-634 504.5,-656 652.5,-656 652.5,-634 504.5,-634"/>
<text text-anchor="start" x="524.5" y="-642.2" font-family="Helvetica,sans-Serif" font-size="11.00">ad_client_id</text>
<polygon fill="none" stroke="black" points="652.5,-634 652.5,-656 735.5,-656 735.5,-634 652.5,-634"/>
<text text-anchor="start" x="655.5" y="-642.2" font-family="Helvetica,sans-Serif" font-size="11.00">numeric[10]</text>
<polygon fill="none" stroke="black" points="504.5,-612 504.5,-634 652.5,-634 652.5,-612 504.5,-612"/>
<text text-anchor="start" x="524.5" y="-620.2" font-family="Helvetica,sans-Serif" font-size="11.00">ad_org_id</text>
<polygon fill="none" stroke="black" points="652.5,-612 652.5,-634 735.5,-634 735.5,-612 652.5,-612"/>
<text text-anchor="start" x="655.5" y="-620.2" font-family="Helvetica,sans-Serif" font-size="11.00">numeric[10]</text>
<polygon fill="none" stroke="black" points="504.5,-590 504.5,-612 652.5,-612 652.5,-590 504.5,-590"/>
<text text-anchor="start" x="524.5" y="-598.2" font-family="Helvetica,sans-Serif" font-size="11.00">isactive</text>
<polygon fill="none" stroke="black" points="652.5,-590 652.5,-612 735.5,-612 735.5,-590 652.5,-590"/>
<text text-anchor="start" x="655.5" y="-598.2" font-family="Helvetica,sans-Serif" font-size="11.00">bpchar[1]</text>
<polygon fill="none" stroke="black" points="504.5,-568 504.5,-590 652.5,-590 652.5,-568 504.5,-568"/>
<text text-anchor="start" x="524.5" y="-576.2" font-family="Helvetica,sans-Serif" font-size="11.00">created</text>
<polygon fill="none" stroke="black" points="652.5,-568 652.5,-590 735.5,-590 735.5,-568 652.5,-568"/>
<text text-anchor="start" x="655.5" y="-576.2" font-family="Helvetica,sans-Serif" font-size="11.00">timestamp[29,6]</text>
<polygon fill="none" stroke="black" points="504.5,-546 504.5,-568 652.5,-568 652.5,-546 504.5,-546"/>
<text text-anchor="start" x="524.5" y="-554.2" font-family="Helvetica,sans-Serif" font-size="11.00">createdby</text>
<polygon fill="none" stroke="black" points="652.5,-546 652.5,-568 735.5,-568 735.5,-546 652.5,-546"/>
<text text-anchor="start" x="655.5" y="-554.2" font-family="Helvetica,sans-Serif" font-size="11.00">numeric[10]</text>
<polygon fill="none" stroke="black" points="504.5,-524 504.5,-546 652.5,-546 652.5,-524 504.5,-524"/>
<text text-anchor="start" x="524.5" y="-532.2" font-family="Helvetica,sans-Serif" font-size="11.00">updated</text>
<polygon fill="none" stroke="black" points="652.5,-524 652.5,-546 735.5,-546 735.5,-524 652.5,-524"/>
<text text-anchor="start" x="655.5" y="-532.2" font-family="Helvetica,sans-Serif" font-size="11.00">timestamp[29,6]</text>
<polygon fill="none" stroke="black" points="504.5,-502 504.5,-524 652.5,-524 652.5,-502 504.5,-502"/>
<text text-anchor="start" x="524.5" y="-510.2" font-family="Helvetica,sans-Serif" font-size="11.00">updatedby</text>
<polygon fill="none" stroke="black" points="652.5,-502 652.5,-524 735.5,-524 735.5,-502 652.5,-502"/>
<text text-anchor="start" x="655.5" y="-510.2" font-family="Helvetica,sans-Serif" font-size="11.00">numeric[10]</text>
<polygon fill="#ffffff" stroke="transparent" points="504.5,-480 504.5,-502 652.5,-502 652.5,-480 504.5,-480"/>
<polygon fill="none" stroke="black" points="504.5,-480 504.5,-502 652.5,-502 652.5,-480 504.5,-480"/>
<text text-anchor="start" x="524.5" y="-488.2" font-family="Helvetica,sans-Serif" font-size="11.00">name</text>
<polygon fill="none" stroke="black" points="652.5,-480 652.5,-502 735.5,-502 735.5,-480 652.5,-480"/>
<text text-anchor="start" x="655.5" y="-488.2" font-family="Helvetica,sans-Serif" font-size="11.00">varchar[120]</text>
<polygon fill="none" stroke="black" points="504.5,-458 504.5,-480 652.5,-480 652.5,-458 504.5,-458"/>
<text text-anchor="start" x="524.5" y="-466.2" font-family="Helvetica,sans-Serif" font-size="11.00">description</text>
<polygon fill="none" stroke="black" points="652.5,-458 652.5,-480 735.5,-480 735.5,-458 652.5,-458"/>
<text text-anchor="start" x="655.5" y="-466.2" font-family="Helvetica,sans-Serif" font-size="11.00">varchar[255]</text>
<polygon fill="none" stroke="black" points="504.5,-436 504.5,-458 652.5,-458 652.5,-436 504.5,-436"/>
<image xlink:href="../../images/foreignKeys.png" width="11px" height="12px" preserveAspectRatio="xMinYMin meet" x="509.5" y="-453"/>
<text text-anchor="start" x="524.5" y="-444.2" font-family="Helvetica,sans-Serif" font-size="11.00">a_asset_id</text>
<polygon fill="none" stroke="black" points="652.5,-436 652.5,-458 735.5,-458 735.5,-436 652.5,-436"/>
<text text-anchor="start" x="655.5" y="-444.2" font-family="Helvetica,sans-Serif" font-size="11.00">numeric[10]</text>
<polygon fill="none" stroke="black" points="504.5,-414 504.5,-436 652.5,-436 652.5,-414 504.5,-414"/>
<image xlink:href="../../images/foreignKeys.png" width="11px" height="12px" preserveAspectRatio="xMinYMin meet" x="509.5" y="-431"/>
<text text-anchor="start" x="524.5" y="-422.2" font-family="Helvetica,sans-Serif" font-size="11.00">c_project_id</text>
<polygon fill="none" stroke="black" points="652.5,-414 652.5,-436 735.5,-436 735.5,-414 652.5,-414"/>
<text text-anchor="start" x="655.5" y="-422.2" font-family="Helvetica,sans-Serif" font-size="11.00">numeric[10]</text>
<polygon fill="none" stroke="black" points="504.5,-392 504.5,-414 652.5,-414 652.5,-392 504.5,-392"/>
<text text-anchor="start" x="524.5" y="-400.2" font-family="Helvetica,sans-Serif" font-size="11.00">statisticsinfo</text>
<polygon fill="none" stroke="black" points="652.5,-392 652.5,-414 735.5,-414 735.5,-392 652.5,-392"/>
<text text-anchor="start" x="655.5" y="-400.2" font-family="Helvetica,sans-Serif" font-size="11.00">varchar[60]</text>
<polygon fill="none" stroke="black" points="504.5,-370 504.5,-392 652.5,-392 652.5,-370 504.5,-370"/>
<text text-anchor="start" x="524.5" y="-378.2" font-family="Helvetica,sans-Serif" font-size="11.00">profileinfo</text>
<polygon fill="none" stroke="black" points="652.5,-370 652.5,-392 735.5,-392 735.5,-370 652.5,-370"/>
<text text-anchor="start" x="655.5" y="-378.2" font-family="Helvetica,sans-Serif" font-size="11.00">varchar[4000]</text>
<polygon fill="none" stroke="black" points="504.5,-348 504.5,-370 652.5,-370 652.5,-348 504.5,-348"/>
<text text-anchor="start" x="524.5" y="-356.2" font-family="Helvetica,sans-Serif" font-size="11.00">systemstatus</text>
<polygon fill="none" stroke="black" points="652.5,-348 652.5,-370 735.5,-370 735.5,-348 652.5,-348"/>
<text text-anchor="start" x="655.5" y="-356.2" font-family="Helvetica,sans-Serif" font-size="11.00">bpchar[1]</text>
<polygon fill="#ffffff" stroke="transparent" points="504.5,-326 504.5,-348 652.5,-348 652.5,-326 504.5,-326"/>
<polygon fill="none" stroke="black" points="504.5,-326 504.5,-348 652.5,-348 652.5,-326 504.5,-326"/>
<text text-anchor="start" x="524.5" y="-334.2" font-family="Helvetica,sans-Serif" font-size="11.00">r_issueproject_uu</text>
<polygon fill="none" stroke="black" points="652.5,-326 652.5,-348 735.5,-348 735.5,-326 652.5,-326"/>
<text text-anchor="start" x="655.5" y="-334.2" font-family="Helvetica,sans-Serif" font-size="11.00">varchar[36]</text>
<polygon fill="#ffffff" stroke="transparent" points="504.5,-308 504.5,-326 735.5,-326 735.5,-308 504.5,-308"/>
<polygon fill="none" stroke="black" points="504.5,-308 504.5,-326 735.5,-326 735.5,-308 504.5,-308"/>
<polygon fill="#ffffff" stroke="transparent" points="505.5,-309 505.5,-325 585.5,-325 585.5,-309 505.5,-309"/>
<text text-anchor="start" x="507.5" y="-314.2" font-family="Helvetica,sans-Serif" font-size="11.00">&lt; 2</text>
<polygon fill="#ffffff" stroke="transparent" points="585.5,-309 585.5,-325 655.5,-325 655.5,-309 585.5,-309"/>
<text text-anchor="start" x="617" y="-314.2" font-family="Helvetica,sans-Serif" font-size="11.00"> &#160;</text>
<polygon fill="#ffffff" stroke="transparent" points="655.5,-309 655.5,-325 734.5,-325 734.5,-309 655.5,-309"/>
<text text-anchor="start" x="716.5" y="-314.2" font-family="Helvetica,sans-Serif" font-size="11.00">2 &gt;</text>
<polygon fill="black" stroke="black" points="585.5,-309 585.5,-325 585.5,-325 585.5,-309 585.5,-309"/>
<polygon fill="black" stroke="black" points="655.5,-309 655.5,-325 655.5,-325 655.5,-309 655.5,-309"/>
<polygon fill="none" stroke="black" stroke-width="2" points="503,-307 503,-701 736,-701 736,-307 503,-307"/>
</a>
</g>
</g>
<!-- ad_issue&#45;&gt;r_issueproject -->
<g id="edge3" class="edge">
<title>ad_issue:w&#45;&gt;r_issueproject:e</title>
<path fill="none" stroke="black" d="M771.58,-731.04C754.77,-715.22 767.94,-667 736.5,-667"/>
<polygon fill="black" stroke="black" points="777.96,-733.31 784.29,-739.39 781.73,-734.66 785.5,-736 785.5,-736 785.5,-736 781.73,-734.66 786.71,-732.61 777.96,-733.31 777.96,-733.31"/>
<ellipse fill="none" stroke="black" cx="774.95" cy="-732.24" rx="3.2" ry="3.2"/>
</g>
<!-- r_issueproject&#45;&gt;a_asset -->
<g id="edge4" class="edge">
<title>r_issueproject:w&#45;&gt;a_asset:e</title>
<path fill="none" stroke="black" d="M489.02,-448.15C361.65,-470.18 608.49,-802 454.5,-802"/>
<polygon fill="black" stroke="black" points="495.53,-447.63 503.78,-450.59 499.51,-447.32 503.5,-447 503.5,-447 503.5,-447 499.51,-447.32 503.22,-443.41 495.53,-447.63 495.53,-447.63"/>
<ellipse fill="none" stroke="black" cx="492.34" cy="-447.89" rx="3.2" ry="3.2"/>
</g>
<!-- r_issueproject&#45;&gt;c_project -->
<g id="edge5" class="edge">
<title>r_issueproject:w&#45;&gt;c_project:e</title>
<path fill="none" stroke="black" d="M489.49,-420.21C477.59,-409.06 482.68,-381.53 461,-371 370.24,-326.93 316.6,-313.07 234,-371 191.81,-400.58 246.03,-480 194.5,-480"/>
<polygon fill="black" stroke="black" points="495.93,-422.41 502.34,-428.41 499.71,-423.71 503.5,-425 503.5,-425 503.5,-425 499.71,-423.71 504.66,-421.59 495.93,-422.41 495.93,-422.41"/>
<ellipse fill="none" stroke="black" cx="492.9" cy="-421.38" rx="3.2" ry="3.2"/>
</g>
<!-- r_issuesource -->
<g id="node5" class="node">
<title>r_issuesource</title>
<g id="a_node5"><a xlink:href="../../tables/r_issuesource.html" xlink:title="r_issuesource" target="_top">
<polygon fill="#ffffff" stroke="transparent" points="800.5,-390 800.5,-536 944.5,-536 944.5,-390 800.5,-390"/>
<polygon fill="#f5f5f5" stroke="transparent" points="800.5,-514 800.5,-536 944.5,-536 944.5,-514 800.5,-514"/>
<polygon fill="none" stroke="black" points="800.5,-514 800.5,-536 944.5,-536 944.5,-514 800.5,-514"/>
<text text-anchor="start" x="805.5" y="-523.2" font-family="Helvetica,sans-Serif" font-weight="bold" font-size="11.00">r_issuesource</text>
<text text-anchor="start" x="909.5" y="-522.2" font-family="Helvetica,sans-Serif" font-size="11.00">[table]</text>
<polygon fill="none" stroke="black" points="800.5,-492 800.5,-514 944.5,-514 944.5,-492 800.5,-492"/>
<image xlink:href="../../images/primaryKeys.png" width="11px" height="12px" preserveAspectRatio="xMinYMin meet" x="805.5" y="-509"/>
<text text-anchor="start" x="820.5" y="-500.2" font-family="Helvetica,sans-Serif" font-size="11.00">r_issuesource_id</text>
<polygon fill="#ffffff" stroke="transparent" points="800.5,-470 800.5,-492 944.5,-492 944.5,-470 800.5,-470"/>
<polygon fill="none" stroke="black" points="800.5,-470 800.5,-492 944.5,-492 944.5,-470 800.5,-470"/>
<image xlink:href="../../images/foreignKeys.png" width="11px" height="12px" preserveAspectRatio="xMinYMin meet" x="805.5" y="-487"/>
<text text-anchor="start" x="820.5" y="-478.2" font-family="Helvetica,sans-Serif" font-size="11.00">r_issuesystem_id</text>
<polygon fill="#ffffff" stroke="transparent" points="800.5,-448 800.5,-470 944.5,-470 944.5,-448 800.5,-448"/>
<polygon fill="none" stroke="black" points="800.5,-448 800.5,-470 944.5,-470 944.5,-448 800.5,-448"/>
<image xlink:href="../../images/foreignKeys.png" width="11px" height="12px" preserveAspectRatio="xMinYMin meet" x="805.5" y="-465"/>
<text text-anchor="start" x="820.5" y="-456.2" font-family="Helvetica,sans-Serif" font-size="11.00">r_issueproject_id</text>
<polygon fill="#ffffff" stroke="transparent" points="800.5,-426 800.5,-448 944.5,-448 944.5,-426 800.5,-426"/>
<polygon fill="none" stroke="black" points="800.5,-426 800.5,-448 944.5,-448 944.5,-426 800.5,-426"/>
<image xlink:href="../../images/foreignKeys.png" width="11px" height="12px" preserveAspectRatio="xMinYMin meet" x="805.5" y="-443"/>
<text text-anchor="start" x="820.5" y="-434.2" font-family="Helvetica,sans-Serif" font-size="11.00">r_issueuser_id</text>
<polygon fill="none" stroke="black" points="800.5,-408 800.5,-426 944.5,-426 944.5,-408 800.5,-408"/>
<text text-anchor="start" x="803.5" y="-414.2" font-family="Helvetica,sans-Serif" font-size="11.00">...</text>
<polygon fill="#ffffff" stroke="transparent" points="800.5,-390 800.5,-408 944.5,-408 944.5,-390 800.5,-390"/>
<polygon fill="none" stroke="black" points="800.5,-390 800.5,-408 944.5,-408 944.5,-390 800.5,-390"/>
<polygon fill="#ffffff" stroke="transparent" points="801.5,-391 801.5,-407 855.5,-407 855.5,-391 801.5,-391"/>
<text text-anchor="start" x="803.5" y="-396.2" font-family="Helvetica,sans-Serif" font-size="11.00">&lt; 3</text>
<polygon fill="#ffffff" stroke="transparent" points="855.5,-391 855.5,-407 899.5,-407 899.5,-391 855.5,-391"/>
<text text-anchor="start" x="874" y="-396.2" font-family="Helvetica,sans-Serif" font-size="11.00"> &#160;</text>
<polygon fill="#ffffff" stroke="transparent" points="899.5,-391 899.5,-407 943.5,-407 943.5,-391 899.5,-391"/>
<text text-anchor="start" x="934.5" y="-396.2" font-family="Helvetica,sans-Serif" font-size="11.00"> &#160;</text>
<polygon fill="black" stroke="black" points="855.5,-391 855.5,-407 855.5,-407 855.5,-391 855.5,-391"/>
<polygon fill="black" stroke="black" points="899.5,-391 899.5,-407 899.5,-407 899.5,-391 899.5,-391"/>
</a>
</g>
</g>
<!-- r_issuesource&#45;&gt;r_issueproject -->
<g id="edge6" class="edge">
<title>r_issuesource:w&#45;&gt;r_issueproject:e</title>
<path fill="none" stroke="black" d="M785.19,-460.93C716.93,-481.9 827.62,-667 736.5,-667"/>
<polygon fill="black" stroke="black" points="791.57,-460.07 799.98,-462.57 795.54,-459.53 799.5,-459 799.5,-459 799.5,-459 795.54,-459.53 799.02,-455.43 791.57,-460.07 791.57,-460.07"/>
<ellipse fill="none" stroke="black" cx="788.4" cy="-460.49" rx="3.2" ry="3.2"/>
</g>
</g>
</svg>
