<?xml version="1.0" encoding="UTF-8" standalone="no"?>
<!DOCTYPE svg PUBLIC "-//W3C//DTD SVG 1.1//EN"
 "http://www.w3.org/Graphics/SVG/1.1/DTD/svg11.dtd">
<!-- Generated by graphviz version 2.43.0 (0)
 -->
<!-- Title: oneDegreeRelationshipsDiagram Pages: 1 -->
<svg width="505pt" height="516pt"
 viewBox="0.00 0.00 505.00 516.00" xmlns="http://www.w3.org/2000/svg" xmlns:xlink="http://www.w3.org/1999/xlink">
<g id="graph0" class="graph" transform="scale(1 1) rotate(0) translate(4 512)">
<title>oneDegreeRelationshipsDiagram</title>
<polygon fill="#ffffff" stroke="transparent" points="-4,4 -4,-512 501,-512 501,4 -4,4"/>
<text text-anchor="middle" x="71.5" y="-7.2" font-family="Helvetica,sans-Serif" font-size="11.00">Generated by SchemaSpy</text>
<!-- r_requesttype -->
<g id="node1" class="node">
<title>r_requesttype</title>
<g id="a_node1"><a xlink:href="../../tables/r_requesttype.html" xlink:title="r_requesttype" target="_top">
<polygon fill="#ffffff" stroke="transparent" points="313,-336 313,-504 489,-504 489,-336 313,-336"/>
<polygon fill="#f5f5f5" stroke="transparent" points="313,-482 313,-504 489,-504 489,-482 313,-482"/>
<polygon fill="none" stroke="black" points="313,-482 313,-504 489,-504 489,-482 313,-482"/>
<text text-anchor="start" x="318" y="-491.2" font-family="Helvetica,sans-Serif" font-weight="bold" font-size="11.00">r_requesttype</text>
<text text-anchor="start" x="454" y="-490.2" font-family="Helvetica,sans-Serif" font-size="11.00">[table]</text>
<polygon fill="none" stroke="black" points="313,-460 313,-482 489,-482 489,-460 313,-460"/>
<image xlink:href="../../images/primaryKeys.png" width="11px" height="12px" preserveAspectRatio="xMinYMin meet" x="318" y="-477"/>
<text text-anchor="start" x="333" y="-468.2" font-family="Helvetica,sans-Serif" font-size="11.00">r_requesttype_id</text>
<polygon fill="none" stroke="black" points="313,-438 313,-460 489,-460 489,-438 313,-438"/>
<image xlink:href="../../images/foreignKeys.png" width="11px" height="12px" preserveAspectRatio="xMinYMin meet" x="318" y="-455"/>
<text text-anchor="start" x="333" y="-446.2" font-family="Helvetica,sans-Serif" font-size="11.00">r_statuscategory_id</text>
<polygon fill="#ffffff" stroke="transparent" points="313,-416 313,-438 489,-438 489,-416 313,-416"/>
<polygon fill="none" stroke="black" points="313,-416 313,-438 489,-438 489,-416 313,-416"/>
<text text-anchor="start" x="333" y="-424.2" font-family="Helvetica,sans-Serif" font-size="11.00">r_requesttype_uu</text>
<polygon fill="none" stroke="black" points="313,-394 313,-416 489,-416 489,-394 313,-394"/>
<image xlink:href="../../images/foreignKeys.png" width="11px" height="12px" preserveAspectRatio="xMinYMin meet" x="318" y="-411"/>
<text text-anchor="start" x="333" y="-402.2" font-family="Helvetica,sans-Serif" font-size="11.00">ad_user_id</text>
<polygon fill="none" stroke="black" points="313,-372 313,-394 489,-394 489,-372 313,-372"/>
<image xlink:href="../../images/foreignKeys.png" width="11px" height="12px" preserveAspectRatio="xMinYMin meet" x="318" y="-389"/>
<text text-anchor="start" x="333" y="-380.2" font-family="Helvetica,sans-Serif" font-size="11.00">r_mailtext_id</text>
<polygon fill="none" stroke="black" points="313,-354 313,-372 489,-372 489,-354 313,-354"/>
<text text-anchor="start" x="316" y="-360.2" font-family="Helvetica,sans-Serif" font-size="11.00">...</text>
<polygon fill="#ffffff" stroke="transparent" points="313,-336 313,-354 489,-354 489,-336 313,-336"/>
<polygon fill="none" stroke="black" points="313,-336 313,-354 489,-354 489,-336 313,-336"/>
<polygon fill="#ffffff" stroke="transparent" points="314,-337 314,-353 365,-353 365,-337 314,-337"/>
<text text-anchor="start" x="316" y="-342.2" font-family="Helvetica,sans-Serif" font-size="11.00">&lt; 3</text>
<polygon fill="#ffffff" stroke="transparent" points="365,-337 365,-353 432,-353 432,-337 365,-337"/>
<text text-anchor="start" x="382" y="-342.2" font-family="Helvetica,sans-Serif" font-size="11.00">2 rows</text>
<polygon fill="#ffffff" stroke="transparent" points="432,-337 432,-353 488,-353 488,-337 432,-337"/>
<text text-anchor="start" x="464" y="-342.2" font-family="Helvetica,sans-Serif" font-size="11.00">12 &gt;</text>
<polygon fill="black" stroke="black" points="365,-337 365,-353 365,-353 365,-337 365,-337"/>
<polygon fill="black" stroke="black" points="432,-337 432,-353 432,-353 432,-337 432,-337"/>
</a>
</g>
</g>
<!-- r_statuscategory -->
<g id="node2" class="node">
<title>r_statuscategory</title>
<g id="a_node2"><a xlink:href="../../tables/r_statuscategory.html" xlink:title="r_statuscategory" target="_top">
<polygon fill="#ffffff" stroke="transparent" points="8,-37 8,-367 264,-367 264,-37 8,-37"/>
<polygon fill="#f5f5f5" stroke="transparent" points="10,-343 10,-365 262,-365 262,-343 10,-343"/>
<polygon fill="none" stroke="black" points="10,-343 10,-365 262,-365 262,-343 10,-343"/>
<text text-anchor="start" x="15" y="-352.2" font-family="Helvetica,sans-Serif" font-weight="bold" font-size="11.00">r_statuscategory</text>
<text text-anchor="start" x="227" y="-351.2" font-family="Helvetica,sans-Serif" font-size="11.00">[table]</text>
<polygon fill="none" stroke="black" points="10,-321 10,-343 179,-343 179,-321 10,-321"/>
<image xlink:href="../../images/primaryKeys.png" width="11px" height="12px" preserveAspectRatio="xMinYMin meet" x="15" y="-338"/>
<text text-anchor="start" x="30" y="-329.2" font-family="Helvetica,sans-Serif" font-size="11.00">r_statuscategory_id</text>
<polygon fill="none" stroke="black" points="179,-321 179,-343 262,-343 262,-321 179,-321"/>
<text text-anchor="start" x="182" y="-329.2" font-family="Helvetica,sans-Serif" font-size="11.00">numeric[10]</text>
<polygon fill="none" stroke="black" points="10,-299 10,-321 179,-321 179,-299 10,-299"/>
<text text-anchor="start" x="30" y="-307.2" font-family="Helvetica,sans-Serif" font-size="11.00">ad_client_id</text>
<polygon fill="none" stroke="black" points="179,-299 179,-321 262,-321 262,-299 179,-299"/>
<text text-anchor="start" x="182" y="-307.2" font-family="Helvetica,sans-Serif" font-size="11.00">numeric[10]</text>
<polygon fill="none" stroke="black" points="10,-277 10,-299 179,-299 179,-277 10,-277"/>
<text text-anchor="start" x="30" y="-285.2" font-family="Helvetica,sans-Serif" font-size="11.00">ad_org_id</text>
<polygon fill="none" stroke="black" points="179,-277 179,-299 262,-299 262,-277 179,-277"/>
<text text-anchor="start" x="182" y="-285.2" font-family="Helvetica,sans-Serif" font-size="11.00">numeric[10]</text>
<polygon fill="none" stroke="black" points="10,-255 10,-277 179,-277 179,-255 10,-255"/>
<text text-anchor="start" x="30" y="-263.2" font-family="Helvetica,sans-Serif" font-size="11.00">isactive</text>
<polygon fill="none" stroke="black" points="179,-255 179,-277 262,-277 262,-255 179,-255"/>
<text text-anchor="start" x="182" y="-263.2" font-family="Helvetica,sans-Serif" font-size="11.00">bpchar[1]</text>
<polygon fill="none" stroke="black" points="10,-233 10,-255 179,-255 179,-233 10,-233"/>
<text text-anchor="start" x="30" y="-241.2" font-family="Helvetica,sans-Serif" font-size="11.00">created</text>
<polygon fill="none" stroke="black" points="179,-233 179,-255 262,-255 262,-233 179,-233"/>
<text text-anchor="start" x="182" y="-241.2" font-family="Helvetica,sans-Serif" font-size="11.00">timestamp[29,6]</text>
<polygon fill="none" stroke="black" points="10,-211 10,-233 179,-233 179,-211 10,-211"/>
<text text-anchor="start" x="30" y="-219.2" font-family="Helvetica,sans-Serif" font-size="11.00">createdby</text>
<polygon fill="none" stroke="black" points="179,-211 179,-233 262,-233 262,-211 179,-211"/>
<text text-anchor="start" x="182" y="-219.2" font-family="Helvetica,sans-Serif" font-size="11.00">numeric[10]</text>
<polygon fill="none" stroke="black" points="10,-189 10,-211 179,-211 179,-189 10,-189"/>
<text text-anchor="start" x="30" y="-197.2" font-family="Helvetica,sans-Serif" font-size="11.00">updated</text>
<polygon fill="none" stroke="black" points="179,-189 179,-211 262,-211 262,-189 179,-189"/>
<text text-anchor="start" x="182" y="-197.2" font-family="Helvetica,sans-Serif" font-size="11.00">timestamp[29,6]</text>
<polygon fill="none" stroke="black" points="10,-167 10,-189 179,-189 179,-167 10,-167"/>
<text text-anchor="start" x="30" y="-175.2" font-family="Helvetica,sans-Serif" font-size="11.00">updatedby</text>
<polygon fill="none" stroke="black" points="179,-167 179,-189 262,-189 262,-167 179,-167"/>
<text text-anchor="start" x="182" y="-175.2" font-family="Helvetica,sans-Serif" font-size="11.00">numeric[10]</text>
<polygon fill="none" stroke="black" points="10,-145 10,-167 179,-167 179,-145 10,-145"/>
<text text-anchor="start" x="30" y="-153.2" font-family="Helvetica,sans-Serif" font-size="11.00">name</text>
<polygon fill="none" stroke="black" points="179,-145 179,-167 262,-167 262,-145 179,-145"/>
<text text-anchor="start" x="182" y="-153.2" font-family="Helvetica,sans-Serif" font-size="11.00">varchar[60]</text>
<polygon fill="none" stroke="black" points="10,-123 10,-145 179,-145 179,-123 10,-123"/>
<text text-anchor="start" x="30" y="-131.2" font-family="Helvetica,sans-Serif" font-size="11.00">description</text>
<polygon fill="none" stroke="black" points="179,-123 179,-145 262,-145 262,-123 179,-123"/>
<text text-anchor="start" x="182" y="-131.2" font-family="Helvetica,sans-Serif" font-size="11.00">varchar[255]</text>
<polygon fill="none" stroke="black" points="10,-101 10,-123 179,-123 179,-101 10,-101"/>
<text text-anchor="start" x="30" y="-109.2" font-family="Helvetica,sans-Serif" font-size="11.00">help</text>
<polygon fill="none" stroke="black" points="179,-101 179,-123 262,-123 262,-101 179,-101"/>
<text text-anchor="start" x="182" y="-109.2" font-family="Helvetica,sans-Serif" font-size="11.00">varchar[2000]</text>
<polygon fill="none" stroke="black" points="10,-79 10,-101 179,-101 179,-79 10,-79"/>
<text text-anchor="start" x="30" y="-87.2" font-family="Helvetica,sans-Serif" font-size="11.00">isdefault</text>
<polygon fill="none" stroke="black" points="179,-79 179,-101 262,-101 262,-79 179,-79"/>
<text text-anchor="start" x="182" y="-87.2" font-family="Helvetica,sans-Serif" font-size="11.00">bpchar[1]</text>
<polygon fill="#ffffff" stroke="transparent" points="10,-57 10,-79 179,-79 179,-57 10,-57"/>
<polygon fill="none" stroke="black" points="10,-57 10,-79 179,-79 179,-57 10,-57"/>
<text text-anchor="start" x="30" y="-65.2" font-family="Helvetica,sans-Serif" font-size="11.00">r_statuscategory_uu</text>
<polygon fill="none" stroke="black" points="179,-57 179,-79 262,-79 262,-57 179,-57"/>
<text text-anchor="start" x="182" y="-65.2" font-family="Helvetica,sans-Serif" font-size="11.00">varchar[36]</text>
<polygon fill="#ffffff" stroke="transparent" points="10,-39 10,-57 262,-57 262,-39 10,-39"/>
<polygon fill="none" stroke="black" points="10,-39 10,-57 262,-57 262,-39 10,-39"/>
<polygon fill="#ffffff" stroke="transparent" points="11,-40 11,-56 91,-56 91,-40 11,-40"/>
<text text-anchor="start" x="13" y="-45.2" font-family="Helvetica,sans-Serif" font-size="11.00">&lt; 0</text>
<polygon fill="#ffffff" stroke="transparent" points="91,-40 91,-56 182,-56 182,-40 91,-40"/>
<text text-anchor="start" x="122.5" y="-45.2" font-family="Helvetica,sans-Serif" font-size="11.00">1 row</text>
<polygon fill="#ffffff" stroke="transparent" points="182,-40 182,-56 261,-56 261,-40 182,-40"/>
<text text-anchor="start" x="243" y="-45.2" font-family="Helvetica,sans-Serif" font-size="11.00">2 &gt;</text>
<polygon fill="black" stroke="black" points="91,-40 91,-56 91,-56 91,-40 91,-40"/>
<polygon fill="black" stroke="black" points="182,-40 182,-56 182,-56 182,-40 182,-40"/>
<polygon fill="none" stroke="black" stroke-width="2" points="9,-38 9,-366 263,-366 263,-38 9,-38"/>
</a>
</g>
</g>
<!-- r_requesttype&#45;&gt;r_statuscategory -->
<g id="edge1" class="edge">
<title>r_requesttype:w&#45;&gt;r_statuscategory:e</title>
<path fill="none" stroke="black" d="M297.89,-445.37C267.74,-425.62 313.43,-332 263,-332"/>
<polygon fill="black" stroke="black" points="304.25,-447.01 311.1,-452.49 308.13,-448 312,-449 312,-449 312,-449 308.13,-448 312.9,-445.51 304.25,-447.01 304.25,-447.01"/>
<ellipse fill="none" stroke="black" cx="301.15" cy="-446.21" rx="3.2" ry="3.2"/>
</g>
<!-- r_status -->
<g id="node3" class="node">
<title>r_status</title>
<g id="a_node3"><a xlink:href="../../tables/r_status.html" xlink:title="r_status" target="_top">
<polygon fill="#ffffff" stroke="transparent" points="319,-147 319,-315 483,-315 483,-147 319,-147"/>
<polygon fill="#f5f5f5" stroke="transparent" points="319,-293 319,-315 483,-315 483,-293 319,-293"/>
<polygon fill="none" stroke="black" points="319,-293 319,-315 483,-315 483,-293 319,-293"/>
<text text-anchor="start" x="324" y="-302.2" font-family="Helvetica,sans-Serif" font-weight="bold" font-size="11.00">r_status</text>
<text text-anchor="start" x="448" y="-301.2" font-family="Helvetica,sans-Serif" font-size="11.00">[table]</text>
<polygon fill="none" stroke="black" points="319,-271 319,-293 483,-293 483,-271 319,-271"/>
<image xlink:href="../../images/primaryKeys.png" width="11px" height="12px" preserveAspectRatio="xMinYMin meet" x="324" y="-288"/>
<text text-anchor="start" x="339" y="-279.2" font-family="Helvetica,sans-Serif" font-size="11.00">r_status_id</text>
<polygon fill="none" stroke="black" points="319,-249 319,-271 483,-271 483,-249 319,-249"/>
<image xlink:href="../../images/foreignKeys.png" width="11px" height="12px" preserveAspectRatio="xMinYMin meet" x="324" y="-266"/>
<text text-anchor="start" x="339" y="-257.2" font-family="Helvetica,sans-Serif" font-size="11.00">next_status_id</text>
<polygon fill="none" stroke="black" points="319,-227 319,-249 483,-249 483,-227 319,-227"/>
<image xlink:href="../../images/foreignKeys.png" width="11px" height="12px" preserveAspectRatio="xMinYMin meet" x="324" y="-244"/>
<text text-anchor="start" x="339" y="-235.2" font-family="Helvetica,sans-Serif" font-size="11.00">update_status_id</text>
<polygon fill="none" stroke="black" points="319,-205 319,-227 483,-227 483,-205 319,-205"/>
<image xlink:href="../../images/foreignKeys.png" width="11px" height="12px" preserveAspectRatio="xMinYMin meet" x="324" y="-222"/>
<text text-anchor="start" x="339" y="-213.2" font-family="Helvetica,sans-Serif" font-size="11.00">r_statuscategory_id</text>
<polygon fill="#ffffff" stroke="transparent" points="319,-183 319,-205 483,-205 483,-183 319,-183"/>
<polygon fill="none" stroke="black" points="319,-183 319,-205 483,-205 483,-183 319,-183"/>
<text text-anchor="start" x="339" y="-191.2" font-family="Helvetica,sans-Serif" font-size="11.00">r_status_uu</text>
<polygon fill="none" stroke="black" points="319,-165 319,-183 483,-183 483,-165 319,-165"/>
<text text-anchor="start" x="322" y="-171.2" font-family="Helvetica,sans-Serif" font-size="11.00">...</text>
<polygon fill="#ffffff" stroke="transparent" points="319,-147 319,-165 483,-165 483,-147 319,-147"/>
<polygon fill="none" stroke="black" points="319,-147 319,-165 483,-165 483,-147 319,-147"/>
<polygon fill="#ffffff" stroke="transparent" points="320,-148 320,-164 369,-164 369,-148 320,-148"/>
<text text-anchor="start" x="322" y="-153.2" font-family="Helvetica,sans-Serif" font-size="11.00">&lt; 3</text>
<polygon fill="#ffffff" stroke="transparent" points="369,-148 369,-164 434,-164 434,-148 369,-148"/>
<text text-anchor="start" x="385" y="-153.2" font-family="Helvetica,sans-Serif" font-size="11.00">5 rows</text>
<polygon fill="#ffffff" stroke="transparent" points="434,-148 434,-164 482,-164 482,-148 434,-148"/>
<text text-anchor="start" x="464" y="-153.2" font-family="Helvetica,sans-Serif" font-size="11.00">5 &gt;</text>
<polygon fill="black" stroke="black" points="369,-148 369,-164 369,-164 369,-148 369,-148"/>
<polygon fill="black" stroke="black" points="434,-148 434,-164 434,-164 434,-148 434,-148"/>
</a>
</g>
</g>
<!-- r_status&#45;&gt;r_statuscategory -->
<g id="edge2" class="edge">
<title>r_status:w&#45;&gt;r_statuscategory:e</title>
<path fill="none" stroke="black" d="M303.97,-219.35C271.75,-238.37 314.26,-332 263,-332"/>
<polygon fill="black" stroke="black" points="310.22,-217.86 318.84,-219.5 314.11,-216.93 318,-216 318,-216 318,-216 314.11,-216.93 317.16,-212.5 310.22,-217.86 310.22,-217.86"/>
<ellipse fill="none" stroke="black" cx="307.11" cy="-218.6" rx="3.2" ry="3.2"/>
</g>
</g>
</svg>
