<?xml version="1.0" encoding="UTF-8" standalone="no"?>
<!DOCTYPE svg PUBLIC "-//W3C//DTD SVG 1.1//EN"
 "http://www.w3.org/Graphics/SVG/1.1/DTD/svg11.dtd">
<!-- Generated by graphviz version 2.43.0 (0)
 -->
<!-- Title: oneDegreeRelationshipsDiagram Pages: 1 -->
<svg width="233pt" height="515pt"
 viewBox="0.00 0.00 233.00 515.00" xmlns="http://www.w3.org/2000/svg" xmlns:xlink="http://www.w3.org/1999/xlink">
<g id="graph0" class="graph" transform="scale(1 1) rotate(0) translate(4 511)">
<title>oneDegreeRelationshipsDiagram</title>
<polygon fill="#ffffff" stroke="transparent" points="-4,4 -4,-511 229,-511 229,4 -4,4"/>
<text text-anchor="middle" x="71.5" y="-7.2" font-family="Helvetica,sans-Serif" font-size="11.00">Generated by SchemaSpy</text>
<!-- rv_c_invoice_day -->
<g id="node1" class="node">
<title>rv_c_invoice_day</title>
<g id="a_node1"><a xlink:href="../../tables/rv_c_invoice_day.html" xlink:title="rv_c_invoice_day" target="_top">
<polygon fill="#ffffff" stroke="transparent" points="8,-37 8,-503 217,-503 217,-37 8,-37"/>
<polygon fill="#f5f5f5" stroke="transparent" points="10.5,-479 10.5,-501 215.5,-501 215.5,-479 10.5,-479"/>
<polygon fill="none" stroke="black" points="10.5,-479 10.5,-501 215.5,-501 215.5,-479 10.5,-479"/>
<text text-anchor="start" x="15.5" y="-488.2" font-family="Helvetica,sans-Serif" font-weight="bold" font-size="11.00">rv_c_invoice_day</text>
<text text-anchor="start" x="182.5" y="-487.2" font-family="Helvetica,sans-Serif" font-size="11.00">[view]</text>
<polygon fill="none" stroke="black" points="10.5,-457 10.5,-479 152.5,-479 152.5,-457 10.5,-457"/>
<text text-anchor="start" x="30.5" y="-465.2" font-family="Helvetica,sans-Serif" font-size="11.00">ad_client_id</text>
<polygon fill="none" stroke="black" points="152.5,-457 152.5,-479 215.5,-479 215.5,-457 152.5,-457"/>
<text text-anchor="start" x="155.5" y="-465.2" font-family="Helvetica,sans-Serif" font-size="11.00">numeric[10]</text>
<polygon fill="none" stroke="black" points="10.5,-435 10.5,-457 152.5,-457 152.5,-435 10.5,-435"/>
<text text-anchor="start" x="30.5" y="-443.2" font-family="Helvetica,sans-Serif" font-size="11.00">ad_org_id</text>
<polygon fill="none" stroke="black" points="152.5,-435 152.5,-457 215.5,-457 215.5,-435 152.5,-435"/>
<text text-anchor="start" x="155.5" y="-443.2" font-family="Helvetica,sans-Serif" font-size="11.00">numeric[10]</text>
<polygon fill="none" stroke="black" points="10.5,-413 10.5,-435 152.5,-435 152.5,-413 10.5,-413"/>
<text text-anchor="start" x="30.5" y="-421.2" font-family="Helvetica,sans-Serif" font-size="11.00">salesrep_id</text>
<polygon fill="none" stroke="black" points="152.5,-413 152.5,-435 215.5,-435 215.5,-413 152.5,-413"/>
<text text-anchor="start" x="155.5" y="-421.2" font-family="Helvetica,sans-Serif" font-size="11.00">numeric[10]</text>
<polygon fill="none" stroke="black" points="10.5,-391 10.5,-413 152.5,-413 152.5,-391 10.5,-391"/>
<text text-anchor="start" x="30.5" y="-399.2" font-family="Helvetica,sans-Serif" font-size="11.00">dateinvoiced</text>
<polygon fill="none" stroke="black" points="152.5,-391 152.5,-413 215.5,-413 215.5,-391 152.5,-391"/>
<text text-anchor="start" x="155.5" y="-399.2" font-family="Helvetica,sans-Serif" font-size="11.00">date[13]</text>
<polygon fill="none" stroke="black" points="10.5,-369 10.5,-391 152.5,-391 152.5,-369 10.5,-369"/>
<text text-anchor="start" x="30.5" y="-377.2" font-family="Helvetica,sans-Serif" font-size="11.00">linenetamt</text>
<polygon fill="none" stroke="black" points="152.5,-369 152.5,-391 215.5,-391 215.5,-369 152.5,-369"/>
<text text-anchor="start" x="155.5" y="-377.2" font-family="Helvetica,sans-Serif" font-size="11.00">numeric[0]</text>
<polygon fill="none" stroke="black" points="10.5,-347 10.5,-369 152.5,-369 152.5,-347 10.5,-347"/>
<text text-anchor="start" x="30.5" y="-355.2" font-family="Helvetica,sans-Serif" font-size="11.00">linelistamt</text>
<polygon fill="none" stroke="black" points="152.5,-347 152.5,-369 215.5,-369 215.5,-347 152.5,-347"/>
<text text-anchor="start" x="155.5" y="-355.2" font-family="Helvetica,sans-Serif" font-size="11.00">numeric[0]</text>
<polygon fill="none" stroke="black" points="10.5,-325 10.5,-347 152.5,-347 152.5,-325 10.5,-325"/>
<text text-anchor="start" x="30.5" y="-333.2" font-family="Helvetica,sans-Serif" font-size="11.00">linelimitamt</text>
<polygon fill="none" stroke="black" points="152.5,-325 152.5,-347 215.5,-347 215.5,-325 152.5,-325"/>
<text text-anchor="start" x="155.5" y="-333.2" font-family="Helvetica,sans-Serif" font-size="11.00">numeric[0]</text>
<polygon fill="none" stroke="black" points="10.5,-303 10.5,-325 152.5,-325 152.5,-303 10.5,-303"/>
<text text-anchor="start" x="30.5" y="-311.2" font-family="Helvetica,sans-Serif" font-size="11.00">linediscountamt</text>
<polygon fill="none" stroke="black" points="152.5,-303 152.5,-325 215.5,-325 215.5,-303 152.5,-303"/>
<text text-anchor="start" x="155.5" y="-311.2" font-family="Helvetica,sans-Serif" font-size="11.00">numeric[0]</text>
<polygon fill="none" stroke="black" points="10.5,-281 10.5,-303 152.5,-303 152.5,-281 10.5,-281"/>
<text text-anchor="start" x="30.5" y="-289.2" font-family="Helvetica,sans-Serif" font-size="11.00">linediscount</text>
<polygon fill="none" stroke="black" points="152.5,-281 152.5,-303 215.5,-303 215.5,-281 152.5,-281"/>
<text text-anchor="start" x="155.5" y="-289.2" font-family="Helvetica,sans-Serif" font-size="11.00">numeric[0]</text>
<polygon fill="none" stroke="black" points="10.5,-259 10.5,-281 152.5,-281 152.5,-259 10.5,-259"/>
<text text-anchor="start" x="30.5" y="-267.2" font-family="Helvetica,sans-Serif" font-size="11.00">lineoverlimitamt</text>
<polygon fill="none" stroke="black" points="152.5,-259 152.5,-281 215.5,-281 215.5,-259 152.5,-259"/>
<text text-anchor="start" x="155.5" y="-267.2" font-family="Helvetica,sans-Serif" font-size="11.00">numeric[0]</text>
<polygon fill="none" stroke="black" points="10.5,-237 10.5,-259 152.5,-259 152.5,-237 10.5,-237"/>
<text text-anchor="start" x="30.5" y="-245.2" font-family="Helvetica,sans-Serif" font-size="11.00">lineoverlimit</text>
<polygon fill="none" stroke="black" points="152.5,-237 152.5,-259 215.5,-259 215.5,-237 152.5,-237"/>
<text text-anchor="start" x="155.5" y="-245.2" font-family="Helvetica,sans-Serif" font-size="11.00">numeric[0]</text>
<polygon fill="none" stroke="black" points="10.5,-215 10.5,-237 152.5,-237 152.5,-215 10.5,-215"/>
<text text-anchor="start" x="30.5" y="-223.2" font-family="Helvetica,sans-Serif" font-size="11.00">issotrx</text>
<polygon fill="none" stroke="black" points="152.5,-215 152.5,-237 215.5,-237 215.5,-215 152.5,-215"/>
<text text-anchor="start" x="155.5" y="-223.2" font-family="Helvetica,sans-Serif" font-size="11.00">bpchar[1]</text>
<polygon fill="none" stroke="black" points="10.5,-193 10.5,-215 152.5,-215 152.5,-193 10.5,-193"/>
<text text-anchor="start" x="30.5" y="-201.2" font-family="Helvetica,sans-Serif" font-size="11.00">m_product_id</text>
<polygon fill="none" stroke="black" points="152.5,-193 152.5,-215 215.5,-215 215.5,-193 152.5,-193"/>
<text text-anchor="start" x="155.5" y="-201.2" font-family="Helvetica,sans-Serif" font-size="11.00">numeric[10]</text>
<polygon fill="none" stroke="black" points="10.5,-171 10.5,-193 152.5,-193 152.5,-171 10.5,-171"/>
<text text-anchor="start" x="30.5" y="-179.2" font-family="Helvetica,sans-Serif" font-size="11.00">c_doctype_id</text>
<polygon fill="none" stroke="black" points="152.5,-171 152.5,-193 215.5,-193 215.5,-171 152.5,-171"/>
<text text-anchor="start" x="155.5" y="-179.2" font-family="Helvetica,sans-Serif" font-size="11.00">numeric[10]</text>
<polygon fill="none" stroke="black" points="10.5,-149 10.5,-171 152.5,-171 152.5,-149 10.5,-149"/>
<text text-anchor="start" x="30.5" y="-157.2" font-family="Helvetica,sans-Serif" font-size="11.00">docstatus</text>
<polygon fill="none" stroke="black" points="152.5,-149 152.5,-171 215.5,-171 215.5,-149 152.5,-149"/>
<text text-anchor="start" x="155.5" y="-157.2" font-family="Helvetica,sans-Serif" font-size="11.00">bpchar[2]</text>
<polygon fill="none" stroke="black" points="10.5,-127 10.5,-149 152.5,-149 152.5,-127 10.5,-127"/>
<text text-anchor="start" x="30.5" y="-135.2" font-family="Helvetica,sans-Serif" font-size="11.00">user1_id</text>
<polygon fill="none" stroke="black" points="152.5,-127 152.5,-149 215.5,-149 215.5,-127 152.5,-127"/>
<text text-anchor="start" x="155.5" y="-135.2" font-family="Helvetica,sans-Serif" font-size="11.00">numeric[10]</text>
<polygon fill="none" stroke="black" points="10.5,-105 10.5,-127 152.5,-127 152.5,-105 10.5,-105"/>
<text text-anchor="start" x="30.5" y="-113.2" font-family="Helvetica,sans-Serif" font-size="11.00">user2_id</text>
<polygon fill="none" stroke="black" points="152.5,-105 152.5,-127 215.5,-127 215.5,-105 152.5,-105"/>
<text text-anchor="start" x="155.5" y="-113.2" font-family="Helvetica,sans-Serif" font-size="11.00">numeric[10]</text>
<polygon fill="none" stroke="black" points="10.5,-83 10.5,-105 152.5,-105 152.5,-83 10.5,-83"/>
<text text-anchor="start" x="30.5" y="-91.2" font-family="Helvetica,sans-Serif" font-size="11.00">c_activity_id</text>
<polygon fill="none" stroke="black" points="152.5,-83 152.5,-105 215.5,-105 215.5,-83 152.5,-83"/>
<text text-anchor="start" x="155.5" y="-91.2" font-family="Helvetica,sans-Serif" font-size="11.00">numeric[10]</text>
<polygon fill="none" stroke="black" points="10.5,-61 10.5,-83 152.5,-83 152.5,-61 10.5,-61"/>
<text text-anchor="start" x="30.5" y="-69.2" font-family="Helvetica,sans-Serif" font-size="11.00">c_bpartner_id</text>
<polygon fill="none" stroke="black" points="152.5,-61 152.5,-83 215.5,-83 215.5,-61 152.5,-61"/>
<text text-anchor="start" x="155.5" y="-69.2" font-family="Helvetica,sans-Serif" font-size="11.00">numeric[10]</text>
<polygon fill="none" stroke="black" points="10.5,-39 10.5,-61 152.5,-61 152.5,-39 10.5,-39"/>
<text text-anchor="start" x="30.5" y="-47.2" font-family="Helvetica,sans-Serif" font-size="11.00">producttype</text>
<polygon fill="none" stroke="black" points="152.5,-39 152.5,-61 215.5,-61 215.5,-39 152.5,-39"/>
<text text-anchor="start" x="155.5" y="-47.2" font-family="Helvetica,sans-Serif" font-size="11.00">bpchar[1]</text>
<polygon fill="none" stroke="black" stroke-width="2" points="9,-38 9,-502 216,-502 216,-38 9,-38"/>
</a>
</g>
</g>
</g>
</svg>
