<?xml version="1.0" encoding="UTF-8" standalone="no"?>
<!DOCTYPE svg PUBLIC "-//W3C//DTD SVG 1.1//EN"
 "http://www.w3.org/Graphics/SVG/1.1/DTD/svg11.dtd">
<!-- Generated by graphviz version 2.43.0 (0)
 -->
<!-- Title: oneDegreeRelationshipsDiagram Pages: 1 -->
<svg width="304pt" height="361pt"
 viewBox="0.00 0.00 304.00 361.00" xmlns="http://www.w3.org/2000/svg" xmlns:xlink="http://www.w3.org/1999/xlink">
<g id="graph0" class="graph" transform="scale(1 1) rotate(0) translate(4 357)">
<title>oneDegreeRelationshipsDiagram</title>
<polygon fill="#ffffff" stroke="transparent" points="-4,4 -4,-357 300,-357 300,4 -4,4"/>
<text text-anchor="middle" x="71.5" y="-7.2" font-family="Helvetica,sans-Serif" font-size="11.00">Generated by SchemaSpy</text>
<!-- rv_c_invoice_vendormonth -->
<g id="node1" class="node">
<title>rv_c_invoice_vendormonth</title>
<g id="a_node1"><a xlink:href="../../tables/rv_c_invoice_vendormonth.html" xlink:title="rv_c_invoice_vendormonth" target="_top">
<polygon fill="#ffffff" stroke="transparent" points="8,-37 8,-349 288,-349 288,-37 8,-37"/>
<polygon fill="#f5f5f5" stroke="transparent" points="10,-325 10,-347 286,-347 286,-325 10,-325"/>
<polygon fill="none" stroke="black" points="10,-325 10,-347 286,-347 286,-325 10,-325"/>
<text text-anchor="start" x="15" y="-334.2" font-family="Helvetica,sans-Serif" font-weight="bold" font-size="11.00">rv_c_invoice_vendormonth</text>
<text text-anchor="start" x="253" y="-333.2" font-family="Helvetica,sans-Serif" font-size="11.00">[view]</text>
<polygon fill="none" stroke="black" points="10,-303 10,-325 223,-325 223,-303 10,-303"/>
<text text-anchor="start" x="30" y="-311.2" font-family="Helvetica,sans-Serif" font-size="11.00">ad_client_id</text>
<polygon fill="none" stroke="black" points="223,-303 223,-325 286,-325 286,-303 223,-303"/>
<text text-anchor="start" x="226" y="-311.2" font-family="Helvetica,sans-Serif" font-size="11.00">numeric[10]</text>
<polygon fill="none" stroke="black" points="10,-281 10,-303 223,-303 223,-281 10,-281"/>
<text text-anchor="start" x="30" y="-289.2" font-family="Helvetica,sans-Serif" font-size="11.00">ad_org_id</text>
<polygon fill="none" stroke="black" points="223,-281 223,-303 286,-303 286,-281 223,-281"/>
<text text-anchor="start" x="226" y="-289.2" font-family="Helvetica,sans-Serif" font-size="11.00">numeric[10]</text>
<polygon fill="none" stroke="black" points="10,-259 10,-281 223,-281 223,-259 10,-259"/>
<text text-anchor="start" x="30" y="-267.2" font-family="Helvetica,sans-Serif" font-size="11.00">c_bpartner_id</text>
<polygon fill="none" stroke="black" points="223,-259 223,-281 286,-281 286,-259 223,-259"/>
<text text-anchor="start" x="226" y="-267.2" font-family="Helvetica,sans-Serif" font-size="11.00">numeric[10]</text>
<polygon fill="none" stroke="black" points="10,-237 10,-259 223,-259 223,-237 10,-237"/>
<text text-anchor="start" x="30" y="-245.2" font-family="Helvetica,sans-Serif" font-size="11.00">m_product_category_id</text>
<polygon fill="none" stroke="black" points="223,-237 223,-259 286,-259 286,-237 223,-237"/>
<text text-anchor="start" x="226" y="-245.2" font-family="Helvetica,sans-Serif" font-size="11.00">numeric[10]</text>
<polygon fill="none" stroke="black" points="10,-215 10,-237 223,-237 223,-215 10,-215"/>
<text text-anchor="start" x="30" y="-223.2" font-family="Helvetica,sans-Serif" font-size="11.00">dateinvoiced</text>
<polygon fill="none" stroke="black" points="223,-215 223,-237 286,-237 286,-215 223,-215"/>
<text text-anchor="start" x="226" y="-223.2" font-family="Helvetica,sans-Serif" font-size="11.00">date[13]</text>
<polygon fill="none" stroke="black" points="10,-193 10,-215 223,-215 223,-193 10,-193"/>
<text text-anchor="start" x="30" y="-201.2" font-family="Helvetica,sans-Serif" font-size="11.00">linenetamt</text>
<polygon fill="none" stroke="black" points="223,-193 223,-215 286,-215 286,-193 223,-193"/>
<text text-anchor="start" x="226" y="-201.2" font-family="Helvetica,sans-Serif" font-size="11.00">numeric[0]</text>
<polygon fill="none" stroke="black" points="10,-171 10,-193 223,-193 223,-171 10,-171"/>
<text text-anchor="start" x="30" y="-179.2" font-family="Helvetica,sans-Serif" font-size="11.00">linelistamt</text>
<polygon fill="none" stroke="black" points="223,-171 223,-193 286,-193 286,-171 223,-171"/>
<text text-anchor="start" x="226" y="-179.2" font-family="Helvetica,sans-Serif" font-size="11.00">numeric[0]</text>
<polygon fill="none" stroke="black" points="10,-149 10,-171 223,-171 223,-149 10,-149"/>
<text text-anchor="start" x="30" y="-157.2" font-family="Helvetica,sans-Serif" font-size="11.00">linelimitamt</text>
<polygon fill="none" stroke="black" points="223,-149 223,-171 286,-171 286,-149 223,-149"/>
<text text-anchor="start" x="226" y="-157.2" font-family="Helvetica,sans-Serif" font-size="11.00">numeric[0]</text>
<polygon fill="none" stroke="black" points="10,-127 10,-149 223,-149 223,-127 10,-127"/>
<text text-anchor="start" x="30" y="-135.2" font-family="Helvetica,sans-Serif" font-size="11.00">linediscountamt</text>
<polygon fill="none" stroke="black" points="223,-127 223,-149 286,-149 286,-127 223,-127"/>
<text text-anchor="start" x="226" y="-135.2" font-family="Helvetica,sans-Serif" font-size="11.00">numeric[0]</text>
<polygon fill="none" stroke="black" points="10,-105 10,-127 223,-127 223,-105 10,-105"/>
<text text-anchor="start" x="30" y="-113.2" font-family="Helvetica,sans-Serif" font-size="11.00">linediscount</text>
<polygon fill="none" stroke="black" points="223,-105 223,-127 286,-127 286,-105 223,-105"/>
<text text-anchor="start" x="226" y="-113.2" font-family="Helvetica,sans-Serif" font-size="11.00">numeric[0]</text>
<polygon fill="none" stroke="black" points="10,-83 10,-105 223,-105 223,-83 10,-83"/>
<text text-anchor="start" x="30" y="-91.2" font-family="Helvetica,sans-Serif" font-size="11.00">lineoverlimitamt</text>
<polygon fill="none" stroke="black" points="223,-83 223,-105 286,-105 286,-83 223,-83"/>
<text text-anchor="start" x="226" y="-91.2" font-family="Helvetica,sans-Serif" font-size="11.00">numeric[0]</text>
<polygon fill="none" stroke="black" points="10,-61 10,-83 223,-83 223,-61 10,-61"/>
<text text-anchor="start" x="30" y="-69.2" font-family="Helvetica,sans-Serif" font-size="11.00">lineoverlimit</text>
<polygon fill="none" stroke="black" points="223,-61 223,-83 286,-83 286,-61 223,-61"/>
<text text-anchor="start" x="226" y="-69.2" font-family="Helvetica,sans-Serif" font-size="11.00">numeric[0]</text>
<polygon fill="none" stroke="black" points="10,-39 10,-61 223,-61 223,-39 10,-39"/>
<text text-anchor="start" x="30" y="-47.2" font-family="Helvetica,sans-Serif" font-size="11.00">qtyinvoiced</text>
<polygon fill="none" stroke="black" points="223,-39 223,-61 286,-61 286,-39 223,-39"/>
<text text-anchor="start" x="226" y="-47.2" font-family="Helvetica,sans-Serif" font-size="11.00">numeric[0]</text>
<polygon fill="none" stroke="black" stroke-width="2" points="9,-38 9,-348 287,-348 287,-38 9,-38"/>
</a>
</g>
</g>
</g>
</svg>
