<?xml version="1.0" encoding="UTF-8" standalone="no"?>
<!DOCTYPE svg PUBLIC "-//W3C//DTD SVG 1.1//EN"
 "http://www.w3.org/Graphics/SVG/1.1/DTD/svg11.dtd">
<!-- Generated by graphviz version 2.43.0 (0)
 -->
<!-- Title: oneDegreeRelationshipsDiagram Pages: 1 -->
<svg width="264pt" height="911pt"
 viewBox="0.00 0.00 264.00 911.00" xmlns="http://www.w3.org/2000/svg" xmlns:xlink="http://www.w3.org/1999/xlink">
<g id="graph0" class="graph" transform="scale(1 1) rotate(0) translate(4 907)">
<title>oneDegreeRelationshipsDiagram</title>
<polygon fill="#ffffff" stroke="transparent" points="-4,4 -4,-907 260,-907 260,4 -4,4"/>
<text text-anchor="middle" x="71.5" y="-7.2" font-family="Helvetica,sans-Serif" font-size="11.00">Generated by SchemaSpy</text>
<!-- rv_fact_acct_day -->
<g id="node1" class="node">
<title>rv_fact_acct_day</title>
<g id="a_node1"><a xlink:href="../../tables/rv_fact_acct_day.html" xlink:title="rv_fact_acct_day" target="_top">
<polygon fill="#ffffff" stroke="transparent" points="8,-37 8,-899 248,-899 248,-37 8,-37"/>
<polygon fill="#f5f5f5" stroke="transparent" points="10,-875 10,-897 246,-897 246,-875 10,-875"/>
<polygon fill="none" stroke="black" points="10,-875 10,-897 246,-897 246,-875 10,-875"/>
<text text-anchor="start" x="15" y="-884.2" font-family="Helvetica,sans-Serif" font-weight="bold" font-size="11.00">rv_fact_acct_day</text>
<text text-anchor="start" x="213" y="-883.2" font-family="Helvetica,sans-Serif" font-size="11.00">[view]</text>
<polygon fill="none" stroke="black" points="10,-853 10,-875 179,-875 179,-853 10,-853"/>
<text text-anchor="start" x="30" y="-861.2" font-family="Helvetica,sans-Serif" font-size="11.00">ad_client_id</text>
<polygon fill="none" stroke="black" points="179,-853 179,-875 246,-875 246,-853 179,-853"/>
<text text-anchor="start" x="182" y="-861.2" font-family="Helvetica,sans-Serif" font-size="11.00">numeric[10]</text>
<polygon fill="none" stroke="black" points="10,-831 10,-853 179,-853 179,-831 10,-831"/>
<text text-anchor="start" x="30" y="-839.2" font-family="Helvetica,sans-Serif" font-size="11.00">ad_org_id</text>
<polygon fill="none" stroke="black" points="179,-831 179,-853 246,-853 246,-831 179,-831"/>
<text text-anchor="start" x="182" y="-839.2" font-family="Helvetica,sans-Serif" font-size="11.00">numeric[10]</text>
<polygon fill="none" stroke="black" points="10,-809 10,-831 179,-831 179,-809 10,-809"/>
<text text-anchor="start" x="30" y="-817.2" font-family="Helvetica,sans-Serif" font-size="11.00">c_acctschema_id</text>
<polygon fill="none" stroke="black" points="179,-809 179,-831 246,-831 246,-809 179,-809"/>
<text text-anchor="start" x="182" y="-817.2" font-family="Helvetica,sans-Serif" font-size="11.00">numeric[10]</text>
<polygon fill="none" stroke="black" points="10,-787 10,-809 179,-809 179,-787 10,-787"/>
<text text-anchor="start" x="30" y="-795.2" font-family="Helvetica,sans-Serif" font-size="11.00">account_id</text>
<polygon fill="none" stroke="black" points="179,-787 179,-809 246,-809 246,-787 179,-787"/>
<text text-anchor="start" x="182" y="-795.2" font-family="Helvetica,sans-Serif" font-size="11.00">numeric[10]</text>
<polygon fill="none" stroke="black" points="10,-765 10,-787 179,-787 179,-765 10,-765"/>
<text text-anchor="start" x="30" y="-773.2" font-family="Helvetica,sans-Serif" font-size="11.00">dateacct</text>
<polygon fill="none" stroke="black" points="179,-765 179,-787 246,-787 246,-765 179,-765"/>
<text text-anchor="start" x="182" y="-773.2" font-family="Helvetica,sans-Serif" font-size="11.00">date[13]</text>
<polygon fill="none" stroke="black" points="10,-743 10,-765 179,-765 179,-743 10,-743"/>
<text text-anchor="start" x="30" y="-751.2" font-family="Helvetica,sans-Serif" font-size="11.00">c_period_id</text>
<polygon fill="none" stroke="black" points="179,-743 179,-765 246,-765 246,-743 179,-743"/>
<text text-anchor="start" x="182" y="-751.2" font-family="Helvetica,sans-Serif" font-size="11.00">numeric[10]</text>
<polygon fill="none" stroke="black" points="10,-721 10,-743 179,-743 179,-721 10,-721"/>
<text text-anchor="start" x="30" y="-729.2" font-family="Helvetica,sans-Serif" font-size="11.00">gl_category_id</text>
<polygon fill="none" stroke="black" points="179,-721 179,-743 246,-743 246,-721 179,-721"/>
<text text-anchor="start" x="182" y="-729.2" font-family="Helvetica,sans-Serif" font-size="11.00">numeric[10]</text>
<polygon fill="none" stroke="black" points="10,-699 10,-721 179,-721 179,-699 10,-699"/>
<text text-anchor="start" x="30" y="-707.2" font-family="Helvetica,sans-Serif" font-size="11.00">gl_budget_id</text>
<polygon fill="none" stroke="black" points="179,-699 179,-721 246,-721 246,-699 179,-699"/>
<text text-anchor="start" x="182" y="-707.2" font-family="Helvetica,sans-Serif" font-size="11.00">numeric[10]</text>
<polygon fill="none" stroke="black" points="10,-677 10,-699 179,-699 179,-677 10,-677"/>
<text text-anchor="start" x="30" y="-685.2" font-family="Helvetica,sans-Serif" font-size="11.00">c_tax_id</text>
<polygon fill="none" stroke="black" points="179,-677 179,-699 246,-699 246,-677 179,-677"/>
<text text-anchor="start" x="182" y="-685.2" font-family="Helvetica,sans-Serif" font-size="11.00">numeric[10]</text>
<polygon fill="none" stroke="black" points="10,-655 10,-677 179,-677 179,-655 10,-655"/>
<text text-anchor="start" x="30" y="-663.2" font-family="Helvetica,sans-Serif" font-size="11.00">m_locator_id</text>
<polygon fill="none" stroke="black" points="179,-655 179,-677 246,-677 246,-655 179,-655"/>
<text text-anchor="start" x="182" y="-663.2" font-family="Helvetica,sans-Serif" font-size="11.00">numeric[10]</text>
<polygon fill="none" stroke="black" points="10,-633 10,-655 179,-655 179,-633 10,-633"/>
<text text-anchor="start" x="30" y="-641.2" font-family="Helvetica,sans-Serif" font-size="11.00">postingtype</text>
<polygon fill="none" stroke="black" points="179,-633 179,-655 246,-655 246,-633 179,-633"/>
<text text-anchor="start" x="182" y="-641.2" font-family="Helvetica,sans-Serif" font-size="11.00">bpchar[1]</text>
<polygon fill="none" stroke="black" points="10,-611 10,-633 179,-633 179,-611 10,-611"/>
<text text-anchor="start" x="30" y="-619.2" font-family="Helvetica,sans-Serif" font-size="11.00">c_currency_id</text>
<polygon fill="none" stroke="black" points="179,-611 179,-633 246,-633 246,-611 179,-611"/>
<text text-anchor="start" x="182" y="-619.2" font-family="Helvetica,sans-Serif" font-size="11.00">numeric[10]</text>
<polygon fill="none" stroke="black" points="10,-589 10,-611 179,-611 179,-589 10,-589"/>
<text text-anchor="start" x="30" y="-597.2" font-family="Helvetica,sans-Serif" font-size="11.00">amtsourcedr</text>
<polygon fill="none" stroke="black" points="179,-589 179,-611 246,-611 246,-589 179,-589"/>
<text text-anchor="start" x="182" y="-597.2" font-family="Helvetica,sans-Serif" font-size="11.00">numeric[0]</text>
<polygon fill="none" stroke="black" points="10,-567 10,-589 179,-589 179,-567 10,-567"/>
<text text-anchor="start" x="30" y="-575.2" font-family="Helvetica,sans-Serif" font-size="11.00">amtsourcecr</text>
<polygon fill="none" stroke="black" points="179,-567 179,-589 246,-589 246,-567 179,-567"/>
<text text-anchor="start" x="182" y="-575.2" font-family="Helvetica,sans-Serif" font-size="11.00">numeric[0]</text>
<polygon fill="none" stroke="black" points="10,-545 10,-567 179,-567 179,-545 10,-545"/>
<text text-anchor="start" x="30" y="-553.2" font-family="Helvetica,sans-Serif" font-size="11.00">amtsource</text>
<polygon fill="none" stroke="black" points="179,-545 179,-567 246,-567 246,-545 179,-545"/>
<text text-anchor="start" x="182" y="-553.2" font-family="Helvetica,sans-Serif" font-size="11.00">numeric[0]</text>
<polygon fill="none" stroke="black" points="10,-523 10,-545 179,-545 179,-523 10,-523"/>
<text text-anchor="start" x="30" y="-531.2" font-family="Helvetica,sans-Serif" font-size="11.00">amtacctdr</text>
<polygon fill="none" stroke="black" points="179,-523 179,-545 246,-545 246,-523 179,-523"/>
<text text-anchor="start" x="182" y="-531.2" font-family="Helvetica,sans-Serif" font-size="11.00">numeric[0]</text>
<polygon fill="none" stroke="black" points="10,-501 10,-523 179,-523 179,-501 10,-501"/>
<text text-anchor="start" x="30" y="-509.2" font-family="Helvetica,sans-Serif" font-size="11.00">amtacctcr</text>
<polygon fill="none" stroke="black" points="179,-501 179,-523 246,-523 246,-501 179,-501"/>
<text text-anchor="start" x="182" y="-509.2" font-family="Helvetica,sans-Serif" font-size="11.00">numeric[0]</text>
<polygon fill="none" stroke="black" points="10,-479 10,-501 179,-501 179,-479 10,-479"/>
<text text-anchor="start" x="30" y="-487.2" font-family="Helvetica,sans-Serif" font-size="11.00">amtacct</text>
<polygon fill="none" stroke="black" points="179,-479 179,-501 246,-501 246,-479 179,-479"/>
<text text-anchor="start" x="182" y="-487.2" font-family="Helvetica,sans-Serif" font-size="11.00">numeric[0]</text>
<polygon fill="none" stroke="black" points="10,-457 10,-479 179,-479 179,-457 10,-457"/>
<text text-anchor="start" x="30" y="-465.2" font-family="Helvetica,sans-Serif" font-size="11.00">rate</text>
<polygon fill="none" stroke="black" points="179,-457 179,-479 246,-479 246,-457 179,-457"/>
<text text-anchor="start" x="182" y="-465.2" font-family="Helvetica,sans-Serif" font-size="11.00">numeric[0]</text>
<polygon fill="none" stroke="black" points="10,-435 10,-457 179,-457 179,-435 10,-435"/>
<text text-anchor="start" x="30" y="-443.2" font-family="Helvetica,sans-Serif" font-size="11.00">m_product_id</text>
<polygon fill="none" stroke="black" points="179,-435 179,-457 246,-457 246,-435 179,-435"/>
<text text-anchor="start" x="182" y="-443.2" font-family="Helvetica,sans-Serif" font-size="11.00">numeric[10]</text>
<polygon fill="none" stroke="black" points="10,-413 10,-435 179,-435 179,-413 10,-413"/>
<text text-anchor="start" x="30" y="-421.2" font-family="Helvetica,sans-Serif" font-size="11.00">c_bpartner_id</text>
<polygon fill="none" stroke="black" points="179,-413 179,-435 246,-435 246,-413 179,-413"/>
<text text-anchor="start" x="182" y="-421.2" font-family="Helvetica,sans-Serif" font-size="11.00">numeric[10]</text>
<polygon fill="none" stroke="black" points="10,-391 10,-413 179,-413 179,-391 10,-391"/>
<text text-anchor="start" x="30" y="-399.2" font-family="Helvetica,sans-Serif" font-size="11.00">ad_orgtrx_id</text>
<polygon fill="none" stroke="black" points="179,-391 179,-413 246,-413 246,-391 179,-391"/>
<text text-anchor="start" x="182" y="-399.2" font-family="Helvetica,sans-Serif" font-size="11.00">numeric[10]</text>
<polygon fill="none" stroke="black" points="10,-369 10,-391 179,-391 179,-369 10,-369"/>
<text text-anchor="start" x="30" y="-377.2" font-family="Helvetica,sans-Serif" font-size="11.00">c_locfrom_id</text>
<polygon fill="none" stroke="black" points="179,-369 179,-391 246,-391 246,-369 179,-369"/>
<text text-anchor="start" x="182" y="-377.2" font-family="Helvetica,sans-Serif" font-size="11.00">numeric[10]</text>
<polygon fill="none" stroke="black" points="10,-347 10,-369 179,-369 179,-347 10,-347"/>
<text text-anchor="start" x="30" y="-355.2" font-family="Helvetica,sans-Serif" font-size="11.00">c_locto_id</text>
<polygon fill="none" stroke="black" points="179,-347 179,-369 246,-369 246,-347 179,-347"/>
<text text-anchor="start" x="182" y="-355.2" font-family="Helvetica,sans-Serif" font-size="11.00">numeric[10]</text>
<polygon fill="none" stroke="black" points="10,-325 10,-347 179,-347 179,-325 10,-325"/>
<text text-anchor="start" x="30" y="-333.2" font-family="Helvetica,sans-Serif" font-size="11.00">c_salesregion_id</text>
<polygon fill="none" stroke="black" points="179,-325 179,-347 246,-347 246,-325 179,-325"/>
<text text-anchor="start" x="182" y="-333.2" font-family="Helvetica,sans-Serif" font-size="11.00">numeric[10]</text>
<polygon fill="none" stroke="black" points="10,-303 10,-325 179,-325 179,-303 10,-303"/>
<text text-anchor="start" x="30" y="-311.2" font-family="Helvetica,sans-Serif" font-size="11.00">c_project_id</text>
<polygon fill="none" stroke="black" points="179,-303 179,-325 246,-325 246,-303 179,-303"/>
<text text-anchor="start" x="182" y="-311.2" font-family="Helvetica,sans-Serif" font-size="11.00">numeric[10]</text>
<polygon fill="none" stroke="black" points="10,-281 10,-303 179,-303 179,-281 10,-281"/>
<text text-anchor="start" x="30" y="-289.2" font-family="Helvetica,sans-Serif" font-size="11.00">c_campaign_id</text>
<polygon fill="none" stroke="black" points="179,-281 179,-303 246,-303 246,-281 179,-281"/>
<text text-anchor="start" x="182" y="-289.2" font-family="Helvetica,sans-Serif" font-size="11.00">numeric[10]</text>
<polygon fill="none" stroke="black" points="10,-259 10,-281 179,-281 179,-259 10,-259"/>
<text text-anchor="start" x="30" y="-267.2" font-family="Helvetica,sans-Serif" font-size="11.00">c_activity_id</text>
<polygon fill="none" stroke="black" points="179,-259 179,-281 246,-281 246,-259 179,-259"/>
<text text-anchor="start" x="182" y="-267.2" font-family="Helvetica,sans-Serif" font-size="11.00">numeric[10]</text>
<polygon fill="none" stroke="black" points="10,-237 10,-259 179,-259 179,-237 10,-237"/>
<text text-anchor="start" x="30" y="-245.2" font-family="Helvetica,sans-Serif" font-size="11.00">user1_id</text>
<polygon fill="none" stroke="black" points="179,-237 179,-259 246,-259 246,-237 179,-237"/>
<text text-anchor="start" x="182" y="-245.2" font-family="Helvetica,sans-Serif" font-size="11.00">numeric[10]</text>
<polygon fill="none" stroke="black" points="10,-215 10,-237 179,-237 179,-215 10,-215"/>
<text text-anchor="start" x="30" y="-223.2" font-family="Helvetica,sans-Serif" font-size="11.00">user2_id</text>
<polygon fill="none" stroke="black" points="179,-215 179,-237 246,-237 246,-215 179,-215"/>
<text text-anchor="start" x="182" y="-223.2" font-family="Helvetica,sans-Serif" font-size="11.00">numeric[10]</text>
<polygon fill="none" stroke="black" points="10,-193 10,-215 179,-215 179,-193 10,-193"/>
<text text-anchor="start" x="30" y="-201.2" font-family="Helvetica,sans-Serif" font-size="11.00">a_asset_id</text>
<polygon fill="none" stroke="black" points="179,-193 179,-215 246,-215 246,-193 179,-193"/>
<text text-anchor="start" x="182" y="-201.2" font-family="Helvetica,sans-Serif" font-size="11.00">numeric[10]</text>
<polygon fill="none" stroke="black" points="10,-171 10,-193 179,-193 179,-171 10,-171"/>
<text text-anchor="start" x="30" y="-179.2" font-family="Helvetica,sans-Serif" font-size="11.00">accountvalue</text>
<polygon fill="none" stroke="black" points="179,-171 179,-193 246,-193 246,-171 179,-171"/>
<text text-anchor="start" x="182" y="-179.2" font-family="Helvetica,sans-Serif" font-size="11.00">varchar[40]</text>
<polygon fill="none" stroke="black" points="10,-149 10,-171 179,-171 179,-149 10,-149"/>
<text text-anchor="start" x="30" y="-157.2" font-family="Helvetica,sans-Serif" font-size="11.00">cof_user1value</text>
<polygon fill="none" stroke="black" points="179,-149 179,-171 246,-171 246,-149 179,-149"/>
<text text-anchor="start" x="182" y="-157.2" font-family="Helvetica,sans-Serif" font-size="11.00">varchar[40]</text>
<polygon fill="none" stroke="black" points="10,-127 10,-149 179,-149 179,-127 10,-127"/>
<text text-anchor="start" x="30" y="-135.2" font-family="Helvetica,sans-Serif" font-size="11.00">cof_user1name</text>
<polygon fill="none" stroke="black" points="179,-127 179,-149 246,-149 246,-127 179,-127"/>
<text text-anchor="start" x="182" y="-135.2" font-family="Helvetica,sans-Serif" font-size="11.00">varchar[120]</text>
<polygon fill="none" stroke="black" points="10,-105 10,-127 179,-127 179,-105 10,-105"/>
<text text-anchor="start" x="30" y="-113.2" font-family="Helvetica,sans-Serif" font-size="11.00">cof_user2value</text>
<polygon fill="none" stroke="black" points="179,-105 179,-127 246,-127 246,-105 179,-105"/>
<text text-anchor="start" x="182" y="-113.2" font-family="Helvetica,sans-Serif" font-size="11.00">varchar[40]</text>
<polygon fill="none" stroke="black" points="10,-83 10,-105 179,-105 179,-83 10,-83"/>
<text text-anchor="start" x="30" y="-91.2" font-family="Helvetica,sans-Serif" font-size="11.00">cof_user2name</text>
<polygon fill="none" stroke="black" points="179,-83 179,-105 246,-105 246,-83 179,-83"/>
<text text-anchor="start" x="182" y="-91.2" font-family="Helvetica,sans-Serif" font-size="11.00">varchar[120]</text>
<polygon fill="none" stroke="black" points="10,-61 10,-83 179,-83 179,-61 10,-61"/>
<text text-anchor="start" x="30" y="-69.2" font-family="Helvetica,sans-Serif" font-size="11.00">cof_parentacctvalue</text>
<polygon fill="none" stroke="black" points="179,-61 179,-83 246,-83 246,-61 179,-61"/>
<text text-anchor="start" x="182" y="-69.2" font-family="Helvetica,sans-Serif" font-size="11.00">varchar[40]</text>
<polygon fill="none" stroke="black" points="10,-39 10,-61 179,-61 179,-39 10,-39"/>
<text text-anchor="start" x="30" y="-47.2" font-family="Helvetica,sans-Serif" font-size="11.00">cof_parentacctname</text>
<polygon fill="none" stroke="black" points="179,-39 179,-61 246,-61 246,-39 179,-39"/>
<text text-anchor="start" x="182" y="-47.2" font-family="Helvetica,sans-Serif" font-size="11.00">varchar[120]</text>
<polygon fill="none" stroke="black" stroke-width="2" points="9,-38 9,-898 247,-898 247,-38 9,-38"/>
</a>
</g>
</g>
</g>
</svg>
