<?xml version="1.0" encoding="UTF-8" standalone="no"?>
<!DOCTYPE svg PUBLIC "-//W3C//DTD SVG 1.1//EN"
 "http://www.w3.org/Graphics/SVG/1.1/DTD/svg11.dtd">
<!-- Generated by graphviz version 2.43.0 (0)
 -->
<!-- Title: oneDegreeRelationshipsDiagram Pages: 1 -->
<svg width="294pt" height="339pt"
 viewBox="0.00 0.00 294.00 339.00" xmlns="http://www.w3.org/2000/svg" xmlns:xlink="http://www.w3.org/1999/xlink">
<g id="graph0" class="graph" transform="scale(1 1) rotate(0) translate(4 335)">
<title>oneDegreeRelationshipsDiagram</title>
<polygon fill="#ffffff" stroke="transparent" points="-4,4 -4,-335 290,-335 290,4 -4,4"/>
<text text-anchor="middle" x="71.5" y="-7.2" font-family="Helvetica,sans-Serif" font-size="11.00">Generated by SchemaSpy</text>
<!-- rv_m_forecast_period -->
<g id="node1" class="node">
<title>rv_m_forecast_period</title>
<g id="a_node1"><a xlink:href="../../tables/rv_m_forecast_period.html" xlink:title="rv_m_forecast_period" target="_top">
<polygon fill="#ffffff" stroke="transparent" points="8,-37 8,-327 278,-327 278,-37 8,-37"/>
<polygon fill="#f5f5f5" stroke="transparent" points="10,-303 10,-325 276,-325 276,-303 10,-303"/>
<polygon fill="none" stroke="black" points="10,-303 10,-325 276,-325 276,-303 10,-303"/>
<text text-anchor="start" x="15" y="-312.2" font-family="Helvetica,sans-Serif" font-weight="bold" font-size="11.00">rv_m_forecast_period</text>
<text text-anchor="start" x="243" y="-311.2" font-family="Helvetica,sans-Serif" font-size="11.00">[view]</text>
<polygon fill="none" stroke="black" points="10,-281 10,-303 186,-303 186,-281 10,-281"/>
<text text-anchor="start" x="30" y="-289.2" font-family="Helvetica,sans-Serif" font-size="11.00">ad_client_id</text>
<polygon fill="none" stroke="black" points="186,-281 186,-303 276,-303 276,-281 186,-281"/>
<text text-anchor="start" x="189" y="-289.2" font-family="Helvetica,sans-Serif" font-size="11.00">numeric[10]</text>
<polygon fill="none" stroke="black" points="10,-259 10,-281 186,-281 186,-259 10,-259"/>
<text text-anchor="start" x="30" y="-267.2" font-family="Helvetica,sans-Serif" font-size="11.00">ad_org_id</text>
<polygon fill="none" stroke="black" points="186,-259 186,-281 276,-281 276,-259 186,-259"/>
<text text-anchor="start" x="189" y="-267.2" font-family="Helvetica,sans-Serif" font-size="11.00">numeric[10]</text>
<polygon fill="none" stroke="black" points="10,-237 10,-259 186,-259 186,-237 10,-237"/>
<text text-anchor="start" x="30" y="-245.2" font-family="Helvetica,sans-Serif" font-size="11.00">m_forecast_id</text>
<polygon fill="none" stroke="black" points="186,-237 186,-259 276,-259 276,-237 186,-237"/>
<text text-anchor="start" x="189" y="-245.2" font-family="Helvetica,sans-Serif" font-size="11.00">numeric[10]</text>
<polygon fill="none" stroke="black" points="10,-215 10,-237 186,-237 186,-215 10,-215"/>
<text text-anchor="start" x="30" y="-223.2" font-family="Helvetica,sans-Serif" font-size="11.00">name</text>
<polygon fill="none" stroke="black" points="186,-215 186,-237 276,-237 276,-215 186,-215"/>
<text text-anchor="start" x="189" y="-223.2" font-family="Helvetica,sans-Serif" font-size="11.00">text[2147483647]</text>
<polygon fill="none" stroke="black" points="10,-193 10,-215 186,-215 186,-193 10,-193"/>
<text text-anchor="start" x="30" y="-201.2" font-family="Helvetica,sans-Serif" font-size="11.00">c_calendar_id</text>
<polygon fill="none" stroke="black" points="186,-193 186,-215 276,-215 276,-193 186,-193"/>
<text text-anchor="start" x="189" y="-201.2" font-family="Helvetica,sans-Serif" font-size="11.00">numeric[10]</text>
<polygon fill="none" stroke="black" points="10,-171 10,-193 186,-193 186,-171 10,-171"/>
<text text-anchor="start" x="30" y="-179.2" font-family="Helvetica,sans-Serif" font-size="11.00">c_year_id</text>
<polygon fill="none" stroke="black" points="186,-171 186,-193 276,-193 276,-171 186,-171"/>
<text text-anchor="start" x="189" y="-179.2" font-family="Helvetica,sans-Serif" font-size="11.00">numeric[10]</text>
<polygon fill="none" stroke="black" points="10,-149 10,-171 186,-171 186,-149 10,-149"/>
<text text-anchor="start" x="30" y="-157.2" font-family="Helvetica,sans-Serif" font-size="11.00">c_period_id</text>
<polygon fill="none" stroke="black" points="186,-149 186,-171 276,-171 276,-149 186,-149"/>
<text text-anchor="start" x="189" y="-157.2" font-family="Helvetica,sans-Serif" font-size="11.00">numeric[10]</text>
<polygon fill="none" stroke="black" points="10,-127 10,-149 186,-149 186,-127 10,-127"/>
<text text-anchor="start" x="30" y="-135.2" font-family="Helvetica,sans-Serif" font-size="11.00">m_product_id</text>
<polygon fill="none" stroke="black" points="186,-127 186,-149 276,-149 276,-127 186,-127"/>
<text text-anchor="start" x="189" y="-135.2" font-family="Helvetica,sans-Serif" font-size="11.00">numeric[10]</text>
<polygon fill="none" stroke="black" points="10,-105 10,-127 186,-127 186,-105 10,-105"/>
<text text-anchor="start" x="30" y="-113.2" font-family="Helvetica,sans-Serif" font-size="11.00">c_uom_id</text>
<polygon fill="none" stroke="black" points="186,-105 186,-127 276,-127 276,-105 186,-105"/>
<text text-anchor="start" x="189" y="-113.2" font-family="Helvetica,sans-Serif" font-size="11.00">numeric[10]</text>
<polygon fill="none" stroke="black" points="10,-83 10,-105 186,-105 186,-83 10,-83"/>
<text text-anchor="start" x="30" y="-91.2" font-family="Helvetica,sans-Serif" font-size="11.00">qty</text>
<polygon fill="none" stroke="black" points="186,-83 186,-105 276,-105 276,-83 186,-83"/>
<text text-anchor="start" x="189" y="-91.2" font-family="Helvetica,sans-Serif" font-size="11.00">numeric[0]</text>
<polygon fill="none" stroke="black" points="10,-61 10,-83 186,-83 186,-61 10,-61"/>
<text text-anchor="start" x="30" y="-69.2" font-family="Helvetica,sans-Serif" font-size="11.00">qtycalculated</text>
<polygon fill="none" stroke="black" points="186,-61 186,-83 276,-83 276,-61 186,-61"/>
<text text-anchor="start" x="189" y="-69.2" font-family="Helvetica,sans-Serif" font-size="11.00">numeric[0]</text>
<polygon fill="none" stroke="black" points="10,-39 10,-61 186,-61 186,-39 10,-39"/>
<text text-anchor="start" x="30" y="-47.2" font-family="Helvetica,sans-Serif" font-size="11.00">totalamt</text>
<polygon fill="none" stroke="black" points="186,-39 186,-61 276,-61 276,-39 186,-39"/>
<text text-anchor="start" x="189" y="-47.2" font-family="Helvetica,sans-Serif" font-size="11.00">numeric[0]</text>
<polygon fill="none" stroke="black" stroke-width="2" points="9,-38 9,-326 277,-326 277,-38 9,-38"/>
</a>
</g>
</g>
</g>
</svg>
