<?xml version="1.0" encoding="UTF-8" standalone="no"?>
<!DOCTYPE svg PUBLIC "-//W3C//DTD SVG 1.1//EN"
 "http://www.w3.org/Graphics/SVG/1.1/DTD/svg11.dtd">
<!-- Generated by graphviz version 2.43.0 (0)
 -->
<!-- Title: oneDegreeRelationshipsDiagram Pages: 1 -->
<svg width="316pt" height="603pt"
 viewBox="0.00 0.00 316.00 603.00" xmlns="http://www.w3.org/2000/svg" xmlns:xlink="http://www.w3.org/1999/xlink">
<g id="graph0" class="graph" transform="scale(1 1) rotate(0) translate(4 599)">
<title>oneDegreeRelationshipsDiagram</title>
<polygon fill="#ffffff" stroke="transparent" points="-4,4 -4,-599 312,-599 312,4 -4,4"/>
<text text-anchor="middle" x="71.5" y="-7.2" font-family="Helvetica,sans-Serif" font-size="11.00">Generated by SchemaSpy</text>
<!-- rv_pp_order_transactions -->
<g id="node1" class="node">
<title>rv_pp_order_transactions</title>
<g id="a_node1"><a xlink:href="../../tables/rv_pp_order_transactions.html" xlink:title="rv_pp_order_transactions" target="_top">
<polygon fill="#ffffff" stroke="transparent" points="8,-37 8,-591 300,-591 300,-37 8,-37"/>
<polygon fill="#f5f5f5" stroke="transparent" points="10,-567 10,-589 298,-589 298,-567 10,-567"/>
<polygon fill="none" stroke="black" points="10,-567 10,-589 298,-589 298,-567 10,-567"/>
<text text-anchor="start" x="15" y="-576.2" font-family="Helvetica,sans-Serif" font-weight="bold" font-size="11.00">rv_pp_order_transactions</text>
<text text-anchor="start" x="265" y="-575.2" font-family="Helvetica,sans-Serif" font-size="11.00">[view]</text>
<polygon fill="none" stroke="black" points="10,-545 10,-567 215,-567 215,-545 10,-545"/>
<text text-anchor="start" x="30" y="-553.2" font-family="Helvetica,sans-Serif" font-size="11.00">ad_client_id</text>
<polygon fill="none" stroke="black" points="215,-545 215,-567 298,-567 298,-545 215,-545"/>
<text text-anchor="start" x="218" y="-553.2" font-family="Helvetica,sans-Serif" font-size="11.00">numeric[10]</text>
<polygon fill="none" stroke="black" points="10,-523 10,-545 215,-545 215,-523 10,-523"/>
<text text-anchor="start" x="30" y="-531.2" font-family="Helvetica,sans-Serif" font-size="11.00">ad_org_id</text>
<polygon fill="none" stroke="black" points="215,-523 215,-545 298,-545 298,-523 215,-523"/>
<text text-anchor="start" x="218" y="-531.2" font-family="Helvetica,sans-Serif" font-size="11.00">numeric[10]</text>
<polygon fill="none" stroke="black" points="10,-501 10,-523 215,-523 215,-501 10,-501"/>
<text text-anchor="start" x="30" y="-509.2" font-family="Helvetica,sans-Serif" font-size="11.00">isactive</text>
<polygon fill="none" stroke="black" points="215,-501 215,-523 298,-523 298,-501 215,-501"/>
<text text-anchor="start" x="218" y="-509.2" font-family="Helvetica,sans-Serif" font-size="11.00">bpchar[1]</text>
<polygon fill="none" stroke="black" points="10,-479 10,-501 215,-501 215,-479 10,-479"/>
<text text-anchor="start" x="30" y="-487.2" font-family="Helvetica,sans-Serif" font-size="11.00">created</text>
<polygon fill="none" stroke="black" points="215,-479 215,-501 298,-501 298,-479 215,-479"/>
<text text-anchor="start" x="218" y="-487.2" font-family="Helvetica,sans-Serif" font-size="11.00">timestamp[29,6]</text>
<polygon fill="none" stroke="black" points="10,-457 10,-479 215,-479 215,-457 10,-457"/>
<text text-anchor="start" x="30" y="-465.2" font-family="Helvetica,sans-Serif" font-size="11.00">createdby</text>
<polygon fill="none" stroke="black" points="215,-457 215,-479 298,-479 298,-457 215,-457"/>
<text text-anchor="start" x="218" y="-465.2" font-family="Helvetica,sans-Serif" font-size="11.00">numeric[10]</text>
<polygon fill="none" stroke="black" points="10,-435 10,-457 215,-457 215,-435 10,-435"/>
<text text-anchor="start" x="30" y="-443.2" font-family="Helvetica,sans-Serif" font-size="11.00">updatedby</text>
<polygon fill="none" stroke="black" points="215,-435 215,-457 298,-457 298,-435 215,-435"/>
<text text-anchor="start" x="218" y="-443.2" font-family="Helvetica,sans-Serif" font-size="11.00">numeric[10]</text>
<polygon fill="none" stroke="black" points="10,-413 10,-435 215,-435 215,-413 10,-413"/>
<text text-anchor="start" x="30" y="-421.2" font-family="Helvetica,sans-Serif" font-size="11.00">updated</text>
<polygon fill="none" stroke="black" points="215,-413 215,-435 298,-435 298,-413 215,-413"/>
<text text-anchor="start" x="218" y="-421.2" font-family="Helvetica,sans-Serif" font-size="11.00">timestamp[29,6]</text>
<polygon fill="none" stroke="black" points="10,-391 10,-413 215,-413 215,-391 10,-391"/>
<text text-anchor="start" x="30" y="-399.2" font-family="Helvetica,sans-Serif" font-size="11.00">documentno</text>
<polygon fill="none" stroke="black" points="215,-391 215,-413 298,-413 298,-391 215,-391"/>
<text text-anchor="start" x="218" y="-399.2" font-family="Helvetica,sans-Serif" font-size="11.00">varchar[60]</text>
<polygon fill="none" stroke="black" points="10,-369 10,-391 215,-391 215,-369 10,-369"/>
<text text-anchor="start" x="30" y="-377.2" font-family="Helvetica,sans-Serif" font-size="11.00">m_product_id</text>
<polygon fill="none" stroke="black" points="215,-369 215,-391 298,-391 298,-369 215,-369"/>
<text text-anchor="start" x="218" y="-377.2" font-family="Helvetica,sans-Serif" font-size="11.00">numeric[10]</text>
<polygon fill="none" stroke="black" points="10,-347 10,-369 215,-369 215,-347 10,-347"/>
<text text-anchor="start" x="30" y="-355.2" font-family="Helvetica,sans-Serif" font-size="11.00">m_locator_id</text>
<polygon fill="none" stroke="black" points="215,-347 215,-369 298,-369 298,-347 215,-347"/>
<text text-anchor="start" x="218" y="-355.2" font-family="Helvetica,sans-Serif" font-size="11.00">numeric[10]</text>
<polygon fill="none" stroke="black" points="10,-325 10,-347 215,-347 215,-325 10,-325"/>
<text text-anchor="start" x="30" y="-333.2" font-family="Helvetica,sans-Serif" font-size="11.00">movementdate</text>
<polygon fill="none" stroke="black" points="215,-325 215,-347 298,-347 298,-325 215,-325"/>
<text text-anchor="start" x="218" y="-333.2" font-family="Helvetica,sans-Serif" font-size="11.00">timestamp[29,6]</text>
<polygon fill="none" stroke="black" points="10,-303 10,-325 215,-325 215,-303 10,-303"/>
<text text-anchor="start" x="30" y="-311.2" font-family="Helvetica,sans-Serif" font-size="11.00">pp_order_id</text>
<polygon fill="none" stroke="black" points="215,-303 215,-325 298,-325 298,-303 215,-303"/>
<text text-anchor="start" x="218" y="-311.2" font-family="Helvetica,sans-Serif" font-size="11.00">numeric[10]</text>
<polygon fill="none" stroke="black" points="10,-281 10,-303 215,-303 215,-281 10,-281"/>
<text text-anchor="start" x="30" y="-289.2" font-family="Helvetica,sans-Serif" font-size="11.00">qtydelivered</text>
<polygon fill="none" stroke="black" points="215,-281 215,-303 298,-303 298,-281 215,-281"/>
<text text-anchor="start" x="218" y="-289.2" font-family="Helvetica,sans-Serif" font-size="11.00">numeric[0]</text>
<polygon fill="none" stroke="black" points="10,-259 10,-281 215,-281 215,-259 10,-259"/>
<text text-anchor="start" x="30" y="-267.2" font-family="Helvetica,sans-Serif" font-size="11.00">qtyscrap</text>
<polygon fill="none" stroke="black" points="215,-259 215,-281 298,-281 298,-259 215,-259"/>
<text text-anchor="start" x="218" y="-267.2" font-family="Helvetica,sans-Serif" font-size="11.00">numeric[0]</text>
<polygon fill="none" stroke="black" points="10,-237 10,-259 215,-259 215,-237 10,-237"/>
<text text-anchor="start" x="30" y="-245.2" font-family="Helvetica,sans-Serif" font-size="11.00">qtydeliveredline</text>
<polygon fill="none" stroke="black" points="215,-237 215,-259 298,-259 298,-237 215,-237"/>
<text text-anchor="start" x="218" y="-245.2" font-family="Helvetica,sans-Serif" font-size="11.00">numeric[0]</text>
<polygon fill="none" stroke="black" points="10,-215 10,-237 215,-237 215,-215 10,-215"/>
<text text-anchor="start" x="30" y="-223.2" font-family="Helvetica,sans-Serif" font-size="11.00">qtyissueshouldbe</text>
<polygon fill="none" stroke="black" points="215,-215 215,-237 298,-237 298,-215 215,-215"/>
<text text-anchor="start" x="218" y="-223.2" font-family="Helvetica,sans-Serif" font-size="11.00">numeric[0]</text>
<polygon fill="none" stroke="black" points="10,-193 10,-215 215,-215 215,-193 10,-193"/>
<text text-anchor="start" x="30" y="-201.2" font-family="Helvetica,sans-Serif" font-size="11.00">qtyscrapline</text>
<polygon fill="none" stroke="black" points="215,-193 215,-215 298,-215 298,-193 215,-193"/>
<text text-anchor="start" x="218" y="-201.2" font-family="Helvetica,sans-Serif" font-size="11.00">numeric[0]</text>
<polygon fill="none" stroke="black" points="10,-171 10,-193 215,-193 215,-171 10,-171"/>
<text text-anchor="start" x="30" y="-179.2" font-family="Helvetica,sans-Serif" font-size="11.00">qtyissuescrapshouldbe</text>
<polygon fill="none" stroke="black" points="215,-171 215,-193 298,-193 298,-171 215,-171"/>
<text text-anchor="start" x="218" y="-179.2" font-family="Helvetica,sans-Serif" font-size="11.00">numeric[0]</text>
<polygon fill="none" stroke="black" points="10,-149 10,-171 215,-171 215,-149 10,-149"/>
<text text-anchor="start" x="30" y="-157.2" font-family="Helvetica,sans-Serif" font-size="11.00">createdbyissue</text>
<polygon fill="none" stroke="black" points="215,-149 215,-171 298,-171 298,-149 215,-149"/>
<text text-anchor="start" x="218" y="-157.2" font-family="Helvetica,sans-Serif" font-size="11.00">numeric[10]</text>
<polygon fill="none" stroke="black" points="10,-127 10,-149 215,-149 215,-127 10,-127"/>
<text text-anchor="start" x="30" y="-135.2" font-family="Helvetica,sans-Serif" font-size="11.00">updatedbyissue</text>
<polygon fill="none" stroke="black" points="215,-127 215,-149 298,-149 298,-127 215,-127"/>
<text text-anchor="start" x="218" y="-135.2" font-family="Helvetica,sans-Serif" font-size="11.00">numeric[10]</text>
<polygon fill="none" stroke="black" points="10,-105 10,-127 215,-127 215,-105 10,-105"/>
<text text-anchor="start" x="30" y="-113.2" font-family="Helvetica,sans-Serif" font-size="11.00">qtytodeliver</text>
<polygon fill="none" stroke="black" points="215,-105 215,-127 298,-127 298,-105 215,-105"/>
<text text-anchor="start" x="218" y="-113.2" font-family="Helvetica,sans-Serif" font-size="11.00">numeric[0]</text>
<polygon fill="none" stroke="black" points="10,-83 10,-105 215,-105 215,-83 10,-83"/>
<text text-anchor="start" x="30" y="-91.2" font-family="Helvetica,sans-Serif" font-size="11.00">differenceqty</text>
<polygon fill="none" stroke="black" points="215,-83 215,-105 298,-105 298,-83 215,-83"/>
<text text-anchor="start" x="218" y="-91.2" font-family="Helvetica,sans-Serif" font-size="11.00">numeric[0]</text>
<polygon fill="none" stroke="black" points="10,-61 10,-83 215,-83 215,-61 10,-61"/>
<text text-anchor="start" x="30" y="-69.2" font-family="Helvetica,sans-Serif" font-size="11.00">issotrx</text>
<polygon fill="none" stroke="black" points="215,-61 215,-83 298,-83 298,-61 215,-61"/>
<text text-anchor="start" x="218" y="-69.2" font-family="Helvetica,sans-Serif" font-size="11.00">bpchar[1]</text>
<polygon fill="none" stroke="black" points="10,-39 10,-61 215,-61 215,-39 10,-39"/>
<text text-anchor="start" x="30" y="-47.2" font-family="Helvetica,sans-Serif" font-size="11.00">dateordered</text>
<polygon fill="none" stroke="black" points="215,-39 215,-61 298,-61 298,-39 215,-39"/>
<text text-anchor="start" x="218" y="-47.2" font-family="Helvetica,sans-Serif" font-size="11.00">timestamp[29,6]</text>
<polygon fill="none" stroke="black" stroke-width="2" points="9,-38 9,-590 299,-590 299,-38 9,-38"/>
</a>
</g>
</g>
</g>
</svg>
