<?xml version="1.0" encoding="UTF-8" standalone="no"?>
<!DOCTYPE svg PUBLIC "-//W3C//DTD SVG 1.1//EN"
 "http://www.w3.org/Graphics/SVG/1.1/DTD/svg11.dtd">
<!-- Generated by graphviz version 2.43.0 (0)
 -->
<!-- Title: oneDegreeRelationshipsDiagram Pages: 1 -->
<svg width="594pt" height="395pt"
 viewBox="0.00 0.00 594.00 395.00" xmlns="http://www.w3.org/2000/svg" xmlns:xlink="http://www.w3.org/1999/xlink">
<g id="graph0" class="graph" transform="scale(1 1) rotate(0) translate(4 391)">
<title>oneDegreeRelationshipsDiagram</title>
<polygon fill="#ffffff" stroke="transparent" points="-4,4 -4,-391 590,-391 590,4 -4,4"/>
<text text-anchor="middle" x="71.5" y="-7.2" font-family="Helvetica,sans-Serif" font-size="11.00">Generated by SchemaSpy</text>
<!-- s_resourceunavailable -->
<g id="node1" class="node">
<title>s_resourceunavailable</title>
<g id="a_node1"><a xlink:href="../../tables/s_resourceunavailable.html" xlink:title="s_resourceunavailable" target="_top">
<polygon fill="#ffffff" stroke="transparent" points="282,-53 282,-383 578,-383 578,-53 282,-53"/>
<polygon fill="#f5f5f5" stroke="transparent" points="284,-359 284,-381 576,-381 576,-359 284,-359"/>
<polygon fill="none" stroke="black" points="284,-359 284,-381 576,-381 576,-359 284,-359"/>
<text text-anchor="start" x="289" y="-368.2" font-family="Helvetica,sans-Serif" font-weight="bold" font-size="11.00">s_resourceunavailable</text>
<text text-anchor="start" x="541" y="-367.2" font-family="Helvetica,sans-Serif" font-size="11.00">[table]</text>
<polygon fill="none" stroke="black" points="284,-337 284,-359 493,-359 493,-337 284,-337"/>
<image xlink:href="../../images/primaryKeys.png" width="11px" height="12px" preserveAspectRatio="xMinYMin meet" x="289" y="-354"/>
<text text-anchor="start" x="304" y="-345.2" font-family="Helvetica,sans-Serif" font-size="11.00">s_resourceunavailable_id</text>
<polygon fill="none" stroke="black" points="493,-337 493,-359 576,-359 576,-337 493,-337"/>
<text text-anchor="start" x="496" y="-345.2" font-family="Helvetica,sans-Serif" font-size="11.00">numeric[10]</text>
<polygon fill="none" stroke="black" points="284,-315 284,-337 493,-337 493,-315 284,-315"/>
<text text-anchor="start" x="304" y="-323.2" font-family="Helvetica,sans-Serif" font-size="11.00">ad_client_id</text>
<polygon fill="none" stroke="black" points="493,-315 493,-337 576,-337 576,-315 493,-315"/>
<text text-anchor="start" x="496" y="-323.2" font-family="Helvetica,sans-Serif" font-size="11.00">numeric[10]</text>
<polygon fill="none" stroke="black" points="284,-293 284,-315 493,-315 493,-293 284,-293"/>
<text text-anchor="start" x="304" y="-301.2" font-family="Helvetica,sans-Serif" font-size="11.00">ad_org_id</text>
<polygon fill="none" stroke="black" points="493,-293 493,-315 576,-315 576,-293 493,-293"/>
<text text-anchor="start" x="496" y="-301.2" font-family="Helvetica,sans-Serif" font-size="11.00">numeric[10]</text>
<polygon fill="none" stroke="black" points="284,-271 284,-293 493,-293 493,-271 284,-271"/>
<text text-anchor="start" x="304" y="-279.2" font-family="Helvetica,sans-Serif" font-size="11.00">isactive</text>
<polygon fill="none" stroke="black" points="493,-271 493,-293 576,-293 576,-271 493,-271"/>
<text text-anchor="start" x="496" y="-279.2" font-family="Helvetica,sans-Serif" font-size="11.00">bpchar[1]</text>
<polygon fill="none" stroke="black" points="284,-249 284,-271 493,-271 493,-249 284,-249"/>
<text text-anchor="start" x="304" y="-257.2" font-family="Helvetica,sans-Serif" font-size="11.00">created</text>
<polygon fill="none" stroke="black" points="493,-249 493,-271 576,-271 576,-249 493,-249"/>
<text text-anchor="start" x="496" y="-257.2" font-family="Helvetica,sans-Serif" font-size="11.00">timestamp[29,6]</text>
<polygon fill="none" stroke="black" points="284,-227 284,-249 493,-249 493,-227 284,-227"/>
<text text-anchor="start" x="304" y="-235.2" font-family="Helvetica,sans-Serif" font-size="11.00">createdby</text>
<polygon fill="none" stroke="black" points="493,-227 493,-249 576,-249 576,-227 493,-227"/>
<text text-anchor="start" x="496" y="-235.2" font-family="Helvetica,sans-Serif" font-size="11.00">numeric[10]</text>
<polygon fill="none" stroke="black" points="284,-205 284,-227 493,-227 493,-205 284,-205"/>
<text text-anchor="start" x="304" y="-213.2" font-family="Helvetica,sans-Serif" font-size="11.00">updated</text>
<polygon fill="none" stroke="black" points="493,-205 493,-227 576,-227 576,-205 493,-205"/>
<text text-anchor="start" x="496" y="-213.2" font-family="Helvetica,sans-Serif" font-size="11.00">timestamp[29,6]</text>
<polygon fill="none" stroke="black" points="284,-183 284,-205 493,-205 493,-183 284,-183"/>
<text text-anchor="start" x="304" y="-191.2" font-family="Helvetica,sans-Serif" font-size="11.00">updatedby</text>
<polygon fill="none" stroke="black" points="493,-183 493,-205 576,-205 576,-183 493,-183"/>
<text text-anchor="start" x="496" y="-191.2" font-family="Helvetica,sans-Serif" font-size="11.00">numeric[10]</text>
<polygon fill="none" stroke="black" points="284,-161 284,-183 493,-183 493,-161 284,-161"/>
<image xlink:href="../../images/foreignKeys.png" width="11px" height="12px" preserveAspectRatio="xMinYMin meet" x="289" y="-178"/>
<text text-anchor="start" x="304" y="-169.2" font-family="Helvetica,sans-Serif" font-size="11.00">s_resource_id</text>
<polygon fill="none" stroke="black" points="493,-161 493,-183 576,-183 576,-161 493,-161"/>
<text text-anchor="start" x="496" y="-169.2" font-family="Helvetica,sans-Serif" font-size="11.00">numeric[10]</text>
<polygon fill="none" stroke="black" points="284,-139 284,-161 493,-161 493,-139 284,-139"/>
<text text-anchor="start" x="304" y="-147.2" font-family="Helvetica,sans-Serif" font-size="11.00">datefrom</text>
<polygon fill="none" stroke="black" points="493,-139 493,-161 576,-161 576,-139 493,-139"/>
<text text-anchor="start" x="496" y="-147.2" font-family="Helvetica,sans-Serif" font-size="11.00">timestamp[29,6]</text>
<polygon fill="none" stroke="black" points="284,-117 284,-139 493,-139 493,-117 284,-117"/>
<text text-anchor="start" x="304" y="-125.2" font-family="Helvetica,sans-Serif" font-size="11.00">dateto</text>
<polygon fill="none" stroke="black" points="493,-117 493,-139 576,-139 576,-117 493,-117"/>
<text text-anchor="start" x="496" y="-125.2" font-family="Helvetica,sans-Serif" font-size="11.00">timestamp[29,6]</text>
<polygon fill="none" stroke="black" points="284,-95 284,-117 493,-117 493,-95 284,-95"/>
<text text-anchor="start" x="304" y="-103.2" font-family="Helvetica,sans-Serif" font-size="11.00">description</text>
<polygon fill="none" stroke="black" points="493,-95 493,-117 576,-117 576,-95 493,-95"/>
<text text-anchor="start" x="496" y="-103.2" font-family="Helvetica,sans-Serif" font-size="11.00">varchar[255]</text>
<polygon fill="#ffffff" stroke="transparent" points="284,-73 284,-95 493,-95 493,-73 284,-73"/>
<polygon fill="none" stroke="black" points="284,-73 284,-95 493,-95 493,-73 284,-73"/>
<text text-anchor="start" x="304" y="-81.2" font-family="Helvetica,sans-Serif" font-size="11.00">s_resourceunavailable_uu</text>
<polygon fill="none" stroke="black" points="493,-73 493,-95 576,-95 576,-73 493,-73"/>
<text text-anchor="start" x="496" y="-81.2" font-family="Helvetica,sans-Serif" font-size="11.00">varchar[36]</text>
<polygon fill="#ffffff" stroke="transparent" points="284,-55 284,-73 576,-73 576,-55 284,-55"/>
<polygon fill="none" stroke="black" points="284,-55 284,-73 576,-73 576,-55 284,-55"/>
<polygon fill="#ffffff" stroke="transparent" points="285,-56 285,-72 385,-72 385,-56 285,-56"/>
<text text-anchor="start" x="287" y="-61.2" font-family="Helvetica,sans-Serif" font-size="11.00">&lt; 1</text>
<polygon fill="#ffffff" stroke="transparent" points="385,-56 385,-72 476,-72 476,-56 385,-56"/>
<text text-anchor="start" x="427" y="-61.2" font-family="Helvetica,sans-Serif" font-size="11.00"> &#160;</text>
<polygon fill="#ffffff" stroke="transparent" points="476,-56 476,-72 575,-72 575,-56 476,-56"/>
<text text-anchor="start" x="557" y="-61.2" font-family="Helvetica,sans-Serif" font-size="11.00">0 &gt;</text>
<polygon fill="black" stroke="black" points="385,-56 385,-72 385,-72 385,-56 385,-56"/>
<polygon fill="black" stroke="black" points="476,-56 476,-72 476,-72 476,-56 476,-56"/>
<polygon fill="none" stroke="black" stroke-width="2" points="283,-54 283,-382 577,-382 577,-54 283,-54"/>
</a>
</g>
</g>
<!-- s_resource -->
<g id="node2" class="node">
<title>s_resource</title>
<g id="a_node2"><a xlink:href="../../tables/s_resource.html" xlink:title="s_resource" target="_top">
<polygon fill="#ffffff" stroke="transparent" points="8,-37 8,-205 233,-205 233,-37 8,-37"/>
<polygon fill="#f5f5f5" stroke="transparent" points="8.5,-183 8.5,-205 233.5,-205 233.5,-183 8.5,-183"/>
<polygon fill="none" stroke="black" points="8.5,-183 8.5,-205 233.5,-205 233.5,-183 8.5,-183"/>
<text text-anchor="start" x="13.5" y="-192.2" font-family="Helvetica,sans-Serif" font-weight="bold" font-size="11.00">s_resource</text>
<text text-anchor="start" x="198.5" y="-191.2" font-family="Helvetica,sans-Serif" font-size="11.00">[table]</text>
<polygon fill="none" stroke="black" points="8.5,-161 8.5,-183 233.5,-183 233.5,-161 8.5,-161"/>
<image xlink:href="../../images/primaryKeys.png" width="11px" height="12px" preserveAspectRatio="xMinYMin meet" x="13.5" y="-178"/>
<text text-anchor="start" x="28.5" y="-169.2" font-family="Helvetica,sans-Serif" font-size="11.00">s_resource_id</text>
<polygon fill="none" stroke="black" points="8.5,-139 8.5,-161 233.5,-161 233.5,-139 8.5,-139"/>
<image xlink:href="../../images/foreignKeys.png" width="11px" height="12px" preserveAspectRatio="xMinYMin meet" x="13.5" y="-156"/>
<text text-anchor="start" x="28.5" y="-147.2" font-family="Helvetica,sans-Serif" font-size="11.00">s_resourcetype_id</text>
<polygon fill="none" stroke="black" points="8.5,-117 8.5,-139 233.5,-139 233.5,-117 8.5,-117"/>
<image xlink:href="../../images/foreignKeys.png" width="11px" height="12px" preserveAspectRatio="xMinYMin meet" x="13.5" y="-134"/>
<text text-anchor="start" x="28.5" y="-125.2" font-family="Helvetica,sans-Serif" font-size="11.00">m_warehouse_id</text>
<polygon fill="none" stroke="black" points="8.5,-95 8.5,-117 233.5,-117 233.5,-95 8.5,-95"/>
<image xlink:href="../../images/foreignKeys.png" width="11px" height="12px" preserveAspectRatio="xMinYMin meet" x="13.5" y="-112"/>
<text text-anchor="start" x="28.5" y="-103.2" font-family="Helvetica,sans-Serif" font-size="11.00">ad_user_id</text>
<polygon fill="#ffffff" stroke="transparent" points="8.5,-73 8.5,-95 233.5,-95 233.5,-73 8.5,-73"/>
<polygon fill="none" stroke="black" points="8.5,-73 8.5,-95 233.5,-95 233.5,-73 8.5,-73"/>
<text text-anchor="start" x="28.5" y="-81.2" font-family="Helvetica,sans-Serif" font-size="11.00">s_resource_uu</text>
<polygon fill="none" stroke="black" points="8.5,-55 8.5,-73 233.5,-73 233.5,-55 8.5,-55"/>
<text text-anchor="start" x="11.5" y="-61.2" font-family="Helvetica,sans-Serif" font-size="11.00">...</text>
<polygon fill="#ffffff" stroke="transparent" points="8.5,-37 8.5,-55 233.5,-55 233.5,-37 8.5,-37"/>
<polygon fill="none" stroke="black" points="8.5,-37 8.5,-55 233.5,-55 233.5,-37 8.5,-37"/>
<polygon fill="#ffffff" stroke="transparent" points="9.5,-38 9.5,-54 85.5,-54 85.5,-38 9.5,-38"/>
<text text-anchor="start" x="11.5" y="-43.2" font-family="Helvetica,sans-Serif" font-size="11.00">&lt; 3</text>
<polygon fill="#ffffff" stroke="transparent" points="85.5,-38 85.5,-54 151.5,-54 151.5,-38 85.5,-38"/>
<text text-anchor="start" x="115" y="-43.2" font-family="Helvetica,sans-Serif" font-size="11.00"> &#160;</text>
<polygon fill="#ffffff" stroke="transparent" points="151.5,-38 151.5,-54 232.5,-54 232.5,-38 151.5,-38"/>
<text text-anchor="start" x="208.5" y="-43.2" font-family="Helvetica,sans-Serif" font-size="11.00">15 &gt;</text>
<polygon fill="black" stroke="black" points="85.5,-38 85.5,-54 85.5,-54 85.5,-38 85.5,-38"/>
<polygon fill="black" stroke="black" points="151.5,-38 151.5,-54 151.5,-54 151.5,-38 151.5,-38"/>
</a>
</g>
</g>
<!-- s_resourceunavailable&#45;&gt;s_resource -->
<g id="edge1" class="edge">
<title>s_resourceunavailable:w&#45;&gt;s_resource:e</title>
<path fill="none" stroke="black" d="M268.28,-172C257.29,-172 250.16,-172 234.5,-172"/>
<polygon fill="black" stroke="black" points="275,-172 283,-175.6 279,-172 283,-172 283,-172 283,-172 279,-172 283,-168.4 275,-172 275,-172"/>
<ellipse fill="none" stroke="black" cx="271.8" cy="-172" rx="3.2" ry="3.2"/>
</g>
</g>
</svg>
