<?xml version="1.0" encoding="UTF-8" standalone="no"?>
<!DOCTYPE svg PUBLIC "-//W3C//DTD SVG 1.1//EN"
 "http://www.w3.org/Graphics/SVG/1.1/DTD/svg11.dtd">
<!-- Generated by graphviz version 2.43.0 (0)
 -->
<!-- Title: oneDegreeRelationshipsDiagram Pages: 1 -->
<svg width="1037pt" height="1071pt"
 viewBox="0.00 0.00 1037.00 1071.00" xmlns="http://www.w3.org/2000/svg" xmlns:xlink="http://www.w3.org/1999/xlink">
<g id="graph0" class="graph" transform="scale(1 1) rotate(0) translate(4 1067)">
<title>oneDegreeRelationshipsDiagram</title>
<polygon fill="#ffffff" stroke="transparent" points="-4,4 -4,-1067 1033,-1067 1033,4 -4,4"/>
<text text-anchor="middle" x="71.5" y="-7.2" font-family="Helvetica,sans-Serif" font-size="11.00">Generated by SchemaSpy</text>
<!-- c_bpartner -->
<g id="node1" class="node">
<title>c_bpartner</title>
<g id="a_node1"><a xlink:href="../../tables/c_bpartner.html" xlink:title="c_bpartner" target="_top">
<polygon fill="#ffffff" stroke="transparent" points="224,-319 224,-1059 478,-1059 478,-319 224,-319"/>
<polygon fill="#f5f5f5" stroke="transparent" points="224,-1037 224,-1059 478,-1059 478,-1037 224,-1037"/>
<polygon fill="none" stroke="black" points="224,-1037 224,-1059 478,-1059 478,-1037 224,-1037"/>
<text text-anchor="start" x="229" y="-1046.2" font-family="Helvetica,sans-Serif" font-weight="bold" font-size="11.00">c_bpartner</text>
<text text-anchor="start" x="443" y="-1045.2" font-family="Helvetica,sans-Serif" font-size="11.00">[table]</text>
<polygon fill="none" stroke="black" points="224,-1015 224,-1037 478,-1037 478,-1015 224,-1015"/>
<image xlink:href="../../images/primaryKeys.png" width="11px" height="12px" preserveAspectRatio="xMinYMin meet" x="229" y="-1032"/>
<text text-anchor="start" x="244" y="-1023.2" font-family="Helvetica,sans-Serif" font-size="11.00">c_bpartner_id</text>
<polygon fill="#ffffff" stroke="transparent" points="224,-993 224,-1015 478,-1015 478,-993 224,-993"/>
<polygon fill="none" stroke="black" points="224,-993 224,-1015 478,-1015 478,-993 224,-993"/>
<image xlink:href="../../images/foreignKeys.png" width="11px" height="12px" preserveAspectRatio="xMinYMin meet" x="229" y="-1010"/>
<text text-anchor="start" x="244" y="-1001.2" font-family="Helvetica,sans-Serif" font-size="11.00">ad_client_id</text>
<polygon fill="none" stroke="black" points="224,-971 224,-993 478,-993 478,-971 224,-971"/>
<image xlink:href="../../images/foreignKeys.png" width="11px" height="12px" preserveAspectRatio="xMinYMin meet" x="229" y="-988"/>
<text text-anchor="start" x="244" y="-979.2" font-family="Helvetica,sans-Serif" font-size="11.00">ad_org_id</text>
<polygon fill="#ffffff" stroke="transparent" points="224,-949 224,-971 478,-971 478,-949 224,-949"/>
<polygon fill="none" stroke="black" points="224,-949 224,-971 478,-971 478,-949 224,-949"/>
<text text-anchor="start" x="244" y="-957.2" font-family="Helvetica,sans-Serif" font-size="11.00">value</text>
<polygon fill="#ffffff" stroke="transparent" points="224,-927 224,-949 478,-949 478,-927 224,-927"/>
<polygon fill="none" stroke="black" points="224,-927 224,-949 478,-949 478,-927 224,-927"/>
<text text-anchor="start" x="244" y="-935.2" font-family="Helvetica,sans-Serif" font-size="11.00">name</text>
<polygon fill="none" stroke="black" points="224,-905 224,-927 478,-927 478,-905 224,-905"/>
<image xlink:href="../../images/foreignKeys.png" width="11px" height="12px" preserveAspectRatio="xMinYMin meet" x="229" y="-922"/>
<text text-anchor="start" x="244" y="-913.2" font-family="Helvetica,sans-Serif" font-size="11.00">c_bp_group_id</text>
<polygon fill="none" stroke="black" points="224,-883 224,-905 478,-905 478,-883 224,-883"/>
<image xlink:href="../../images/foreignKeys.png" width="11px" height="12px" preserveAspectRatio="xMinYMin meet" x="229" y="-900"/>
<text text-anchor="start" x="244" y="-891.2" font-family="Helvetica,sans-Serif" font-size="11.00">ad_language</text>
<polygon fill="none" stroke="black" points="224,-861 224,-883 478,-883 478,-861 224,-861"/>
<image xlink:href="../../images/foreignKeys.png" width="11px" height="12px" preserveAspectRatio="xMinYMin meet" x="229" y="-878"/>
<text text-anchor="start" x="244" y="-869.2" font-family="Helvetica,sans-Serif" font-size="11.00">c_invoiceschedule_id</text>
<polygon fill="none" stroke="black" points="224,-839 224,-861 478,-861 478,-839 224,-839"/>
<image xlink:href="../../images/foreignKeys.png" width="11px" height="12px" preserveAspectRatio="xMinYMin meet" x="229" y="-856"/>
<text text-anchor="start" x="244" y="-847.2" font-family="Helvetica,sans-Serif" font-size="11.00">c_paymentterm_id</text>
<polygon fill="none" stroke="black" points="224,-817 224,-839 478,-839 478,-817 224,-817"/>
<image xlink:href="../../images/foreignKeys.png" width="11px" height="12px" preserveAspectRatio="xMinYMin meet" x="229" y="-834"/>
<text text-anchor="start" x="244" y="-825.2" font-family="Helvetica,sans-Serif" font-size="11.00">m_pricelist_id</text>
<polygon fill="none" stroke="black" points="224,-795 224,-817 478,-817 478,-795 224,-795"/>
<image xlink:href="../../images/foreignKeys.png" width="11px" height="12px" preserveAspectRatio="xMinYMin meet" x="229" y="-812"/>
<text text-anchor="start" x="244" y="-803.2" font-family="Helvetica,sans-Serif" font-size="11.00">m_discountschema_id</text>
<polygon fill="none" stroke="black" points="224,-773 224,-795 478,-795 478,-773 224,-773"/>
<image xlink:href="../../images/foreignKeys.png" width="11px" height="12px" preserveAspectRatio="xMinYMin meet" x="229" y="-790"/>
<text text-anchor="start" x="244" y="-781.2" font-family="Helvetica,sans-Serif" font-size="11.00">c_dunning_id</text>
<polygon fill="none" stroke="black" points="224,-751 224,-773 478,-773 478,-751 224,-751"/>
<image xlink:href="../../images/foreignKeys.png" width="11px" height="12px" preserveAspectRatio="xMinYMin meet" x="229" y="-768"/>
<text text-anchor="start" x="244" y="-759.2" font-family="Helvetica,sans-Serif" font-size="11.00">po_pricelist_id</text>
<polygon fill="none" stroke="black" points="224,-729 224,-751 478,-751 478,-729 224,-729"/>
<image xlink:href="../../images/foreignKeys.png" width="11px" height="12px" preserveAspectRatio="xMinYMin meet" x="229" y="-746"/>
<text text-anchor="start" x="244" y="-737.2" font-family="Helvetica,sans-Serif" font-size="11.00">po_discountschema_id</text>
<polygon fill="none" stroke="black" points="224,-707 224,-729 478,-729 478,-707 224,-707"/>
<image xlink:href="../../images/foreignKeys.png" width="11px" height="12px" preserveAspectRatio="xMinYMin meet" x="229" y="-724"/>
<text text-anchor="start" x="244" y="-715.2" font-family="Helvetica,sans-Serif" font-size="11.00">po_paymentterm_id</text>
<polygon fill="none" stroke="black" points="224,-685 224,-707 478,-707 478,-685 224,-685"/>
<image xlink:href="../../images/foreignKeys.png" width="11px" height="12px" preserveAspectRatio="xMinYMin meet" x="229" y="-702"/>
<text text-anchor="start" x="244" y="-693.2" font-family="Helvetica,sans-Serif" font-size="11.00">c_greeting_id</text>
<polygon fill="none" stroke="black" points="224,-663 224,-685 478,-685 478,-663 224,-663"/>
<image xlink:href="../../images/foreignKeys.png" width="11px" height="12px" preserveAspectRatio="xMinYMin meet" x="229" y="-680"/>
<text text-anchor="start" x="244" y="-671.2" font-family="Helvetica,sans-Serif" font-size="11.00">salesrep_id</text>
<polygon fill="none" stroke="black" points="224,-641 224,-663 478,-663 478,-641 224,-641"/>
<image xlink:href="../../images/foreignKeys.png" width="11px" height="12px" preserveAspectRatio="xMinYMin meet" x="229" y="-658"/>
<text text-anchor="start" x="244" y="-649.2" font-family="Helvetica,sans-Serif" font-size="11.00">bpartner_parent_id</text>
<polygon fill="none" stroke="black" points="224,-619 224,-641 478,-641 478,-619 224,-619"/>
<image xlink:href="../../images/foreignKeys.png" width="11px" height="12px" preserveAspectRatio="xMinYMin meet" x="229" y="-636"/>
<text text-anchor="start" x="244" y="-627.2" font-family="Helvetica,sans-Serif" font-size="11.00">invoice_printformat_id</text>
<polygon fill="#ffffff" stroke="transparent" points="224,-597 224,-619 478,-619 478,-597 224,-597"/>
<polygon fill="none" stroke="black" points="224,-597 224,-619 478,-619 478,-597 224,-597"/>
<image xlink:href="../../images/foreignKeys.png" width="11px" height="12px" preserveAspectRatio="xMinYMin meet" x="229" y="-614"/>
<text text-anchor="start" x="244" y="-605.2" font-family="Helvetica,sans-Serif" font-size="11.00">ad_orgbp_id</text>
<polygon fill="none" stroke="black" points="224,-575 224,-597 478,-597 478,-575 224,-575"/>
<image xlink:href="../../images/foreignKeys.png" width="11px" height="12px" preserveAspectRatio="xMinYMin meet" x="229" y="-592"/>
<text text-anchor="start" x="244" y="-583.2" font-family="Helvetica,sans-Serif" font-size="11.00">c_taxgroup_id</text>
<polygon fill="none" stroke="black" points="224,-553 224,-575 478,-575 478,-553 224,-553"/>
<image xlink:href="../../images/foreignKeys.png" width="11px" height="12px" preserveAspectRatio="xMinYMin meet" x="229" y="-570"/>
<text text-anchor="start" x="244" y="-561.2" font-family="Helvetica,sans-Serif" font-size="11.00">logo_id</text>
<polygon fill="#ffffff" stroke="transparent" points="224,-531 224,-553 478,-553 478,-531 224,-531"/>
<polygon fill="none" stroke="black" points="224,-531 224,-553 478,-553 478,-531 224,-531"/>
<text text-anchor="start" x="244" y="-539.2" font-family="Helvetica,sans-Serif" font-size="11.00">c_bpartner_uu</text>
<polygon fill="none" stroke="black" points="224,-509 224,-531 478,-531 478,-509 224,-509"/>
<image xlink:href="../../images/foreignKeys.png" width="11px" height="12px" preserveAspectRatio="xMinYMin meet" x="229" y="-526"/>
<text text-anchor="start" x="244" y="-517.2" font-family="Helvetica,sans-Serif" font-size="11.00">default1099box_id</text>
<polygon fill="none" stroke="black" points="224,-487 224,-509 478,-509 478,-487 224,-487"/>
<image xlink:href="../../images/foreignKeys.png" width="11px" height="12px" preserveAspectRatio="xMinYMin meet" x="229" y="-504"/>
<text text-anchor="start" x="244" y="-495.2" font-family="Helvetica,sans-Serif" font-size="11.00">cof_c_custody_id</text>
<polygon fill="none" stroke="black" points="224,-465 224,-487 478,-487 478,-465 224,-465"/>
<image xlink:href="../../images/foreignKeys.png" width="11px" height="12px" preserveAspectRatio="xMinYMin meet" x="229" y="-482"/>
<text text-anchor="start" x="244" y="-473.2" font-family="Helvetica,sans-Serif" font-size="11.00">cof_doctypepurchase_id</text>
<polygon fill="none" stroke="black" points="224,-443 224,-465 478,-465 478,-443 224,-443"/>
<image xlink:href="../../images/foreignKeys.png" width="11px" height="12px" preserveAspectRatio="xMinYMin meet" x="229" y="-460"/>
<text text-anchor="start" x="244" y="-451.2" font-family="Helvetica,sans-Serif" font-size="11.00">cof_doctypesale_id</text>
<polygon fill="none" stroke="black" points="224,-421 224,-443 478,-443 478,-421 224,-421"/>
<image xlink:href="../../images/foreignKeys.png" width="11px" height="12px" preserveAspectRatio="xMinYMin meet" x="229" y="-438"/>
<text text-anchor="start" x="244" y="-429.2" font-family="Helvetica,sans-Serif" font-size="11.00">cof_grupofornecedor_id</text>
<polygon fill="none" stroke="black" points="224,-399 224,-421 478,-421 478,-399 224,-399"/>
<image xlink:href="../../images/foreignKeys.png" width="11px" height="12px" preserveAspectRatio="xMinYMin meet" x="229" y="-416"/>
<text text-anchor="start" x="244" y="-407.2" font-family="Helvetica,sans-Serif" font-size="11.00">cof_vendedorinterno_id</text>
<polygon fill="none" stroke="black" points="224,-377 224,-399 478,-399 478,-377 224,-377"/>
<image xlink:href="../../images/foreignKeys.png" width="11px" height="12px" preserveAspectRatio="xMinYMin meet" x="229" y="-394"/>
<text text-anchor="start" x="244" y="-385.2" font-family="Helvetica,sans-Serif" font-size="11.00">cof_tipoparceiro_id</text>
<polygon fill="none" stroke="black" points="224,-355 224,-377 478,-377 478,-355 224,-355"/>
<image xlink:href="../../images/foreignKeys.png" width="11px" height="12px" preserveAspectRatio="xMinYMin meet" x="229" y="-372"/>
<text text-anchor="start" x="244" y="-363.2" font-family="Helvetica,sans-Serif" font-size="11.00">cof_classeparceiro_id</text>
<polygon fill="none" stroke="black" points="224,-337 224,-355 478,-355 478,-337 224,-337"/>
<text text-anchor="start" x="227" y="-343.2" font-family="Helvetica,sans-Serif" font-size="11.00">...</text>
<polygon fill="#ffffff" stroke="transparent" points="224,-319 224,-337 478,-337 478,-319 224,-319"/>
<polygon fill="none" stroke="black" points="224,-319 224,-337 478,-337 478,-319 224,-319"/>
<polygon fill="#ffffff" stroke="transparent" points="225,-320 225,-336 304,-336 304,-320 225,-320"/>
<text text-anchor="start" x="227" y="-325.2" font-family="Helvetica,sans-Serif" font-size="11.00">&lt; 27</text>
<polygon fill="#ffffff" stroke="transparent" points="304,-320 304,-336 393,-336 393,-320 304,-320"/>
<text text-anchor="start" x="332" y="-325.2" font-family="Helvetica,sans-Serif" font-size="11.00">4 rows</text>
<polygon fill="#ffffff" stroke="transparent" points="393,-320 393,-336 477,-336 477,-320 393,-320"/>
<text text-anchor="start" x="447" y="-325.2" font-family="Helvetica,sans-Serif" font-size="11.00">186 &gt;</text>
<polygon fill="black" stroke="black" points="304,-320 304,-336 304,-336 304,-320 304,-320"/>
<polygon fill="black" stroke="black" points="393,-320 393,-336 393,-336 393,-320 393,-320"/>
</a>
</g>
</g>
<!-- m_pricelist -->
<g id="node2" class="node">
<title>m_pricelist</title>
<g id="a_node2"><a xlink:href="../../tables/m_pricelist.html" xlink:title="m_pricelist" target="_top">
<polygon fill="#ffffff" stroke="transparent" points="8,-605 8,-795 175,-795 175,-605 8,-605"/>
<polygon fill="#f5f5f5" stroke="transparent" points="8.5,-773 8.5,-795 175.5,-795 175.5,-773 8.5,-773"/>
<polygon fill="none" stroke="black" points="8.5,-773 8.5,-795 175.5,-795 175.5,-773 8.5,-773"/>
<text text-anchor="start" x="13.5" y="-782.2" font-family="Helvetica,sans-Serif" font-weight="bold" font-size="11.00">m_pricelist</text>
<text text-anchor="start" x="140.5" y="-781.2" font-family="Helvetica,sans-Serif" font-size="11.00">[table]</text>
<polygon fill="none" stroke="black" points="8.5,-751 8.5,-773 175.5,-773 175.5,-751 8.5,-751"/>
<image xlink:href="../../images/primaryKeys.png" width="11px" height="12px" preserveAspectRatio="xMinYMin meet" x="13.5" y="-768"/>
<text text-anchor="start" x="28.5" y="-759.2" font-family="Helvetica,sans-Serif" font-size="11.00">m_pricelist_id</text>
<polygon fill="#ffffff" stroke="transparent" points="8.5,-729 8.5,-751 175.5,-751 175.5,-729 8.5,-729"/>
<polygon fill="none" stroke="black" points="8.5,-729 8.5,-751 175.5,-751 175.5,-729 8.5,-729"/>
<text text-anchor="start" x="28.5" y="-737.2" font-family="Helvetica,sans-Serif" font-size="11.00">ad_client_id</text>
<polygon fill="#ffffff" stroke="transparent" points="8.5,-707 8.5,-729 175.5,-729 175.5,-707 8.5,-707"/>
<polygon fill="none" stroke="black" points="8.5,-707 8.5,-729 175.5,-729 175.5,-707 8.5,-707"/>
<text text-anchor="start" x="28.5" y="-715.2" font-family="Helvetica,sans-Serif" font-size="11.00">name</text>
<polygon fill="none" stroke="black" points="8.5,-685 8.5,-707 175.5,-707 175.5,-685 8.5,-685"/>
<image xlink:href="../../images/foreignKeys.png" width="11px" height="12px" preserveAspectRatio="xMinYMin meet" x="13.5" y="-702"/>
<text text-anchor="start" x="28.5" y="-693.2" font-family="Helvetica,sans-Serif" font-size="11.00">basepricelist_id</text>
<polygon fill="none" stroke="black" points="8.5,-663 8.5,-685 175.5,-685 175.5,-663 8.5,-663"/>
<image xlink:href="../../images/foreignKeys.png" width="11px" height="12px" preserveAspectRatio="xMinYMin meet" x="13.5" y="-680"/>
<text text-anchor="start" x="28.5" y="-671.2" font-family="Helvetica,sans-Serif" font-size="11.00">c_currency_id</text>
<polygon fill="#ffffff" stroke="transparent" points="8.5,-641 8.5,-663 175.5,-663 175.5,-641 8.5,-641"/>
<polygon fill="none" stroke="black" points="8.5,-641 8.5,-663 175.5,-663 175.5,-641 8.5,-641"/>
<text text-anchor="start" x="28.5" y="-649.2" font-family="Helvetica,sans-Serif" font-size="11.00">m_pricelist_uu</text>
<polygon fill="none" stroke="black" points="8.5,-623 8.5,-641 175.5,-641 175.5,-623 8.5,-623"/>
<text text-anchor="start" x="11.5" y="-629.2" font-family="Helvetica,sans-Serif" font-size="11.00">...</text>
<polygon fill="#ffffff" stroke="transparent" points="8.5,-605 8.5,-623 175.5,-623 175.5,-605 8.5,-605"/>
<polygon fill="none" stroke="black" points="8.5,-605 8.5,-623 175.5,-623 175.5,-605 8.5,-605"/>
<polygon fill="#ffffff" stroke="transparent" points="9.5,-606 9.5,-622 57.5,-622 57.5,-606 9.5,-606"/>
<text text-anchor="start" x="11.5" y="-611.2" font-family="Helvetica,sans-Serif" font-size="11.00">&lt; 2</text>
<polygon fill="#ffffff" stroke="transparent" points="57.5,-606 57.5,-622 121.5,-622 121.5,-606 57.5,-606"/>
<text text-anchor="start" x="73" y="-611.2" font-family="Helvetica,sans-Serif" font-size="11.00">3 rows</text>
<polygon fill="#ffffff" stroke="transparent" points="121.5,-606 121.5,-622 174.5,-622 174.5,-606 121.5,-606"/>
<text text-anchor="start" x="150.5" y="-611.2" font-family="Helvetica,sans-Serif" font-size="11.00">31 &gt;</text>
<polygon fill="black" stroke="black" points="57.5,-606 57.5,-622 57.5,-622 57.5,-606 57.5,-606"/>
<polygon fill="black" stroke="black" points="121.5,-606 121.5,-622 121.5,-622 121.5,-606 121.5,-606"/>
</a>
</g>
</g>
<!-- c_bpartner&#45;&gt;m_pricelist -->
<g id="edge1" class="edge">
<title>c_bpartner:w&#45;&gt;m_pricelist:e</title>
<path fill="none" stroke="black" d="M209.3,-822.82C194,-807.26 206.22,-762 176.5,-762"/>
<polygon fill="black" stroke="black" points="215.52,-825.17 221.73,-831.37 219.26,-826.59 223,-828 223,-828 223,-828 219.26,-826.59 224.27,-824.63 215.52,-825.17 215.52,-825.17"/>
<ellipse fill="none" stroke="black" cx="212.52" cy="-824.04" rx="3.2" ry="3.2"/>
</g>
<!-- c_bpartner&#45;&gt;m_pricelist -->
<g id="edge2" class="edge">
<title>c_bpartner:w&#45;&gt;m_pricelist:e</title>
<path fill="none" stroke="black" d="M208.55,-762C198.2,-762 191.35,-762 176.5,-762"/>
<polygon fill="black" stroke="black" points="215,-762 223,-765.6 219,-762 223,-762 223,-762 223,-762 219,-762 223,-758.4 215,-762 215,-762"/>
<ellipse fill="none" stroke="black" cx="211.8" cy="-762" rx="3.2" ry="3.2"/>
</g>
<!-- s_timeexpense -->
<g id="node3" class="node">
<title>s_timeexpense</title>
<g id="a_node3"><a xlink:href="../../tables/s_timeexpense.html" xlink:title="s_timeexpense" target="_top">
<polygon fill="#ffffff" stroke="transparent" points="527,-223 527,-729 768,-729 768,-223 527,-223"/>
<polygon fill="#f5f5f5" stroke="transparent" points="529.5,-705 529.5,-727 766.5,-727 766.5,-705 529.5,-705"/>
<polygon fill="none" stroke="black" points="529.5,-705 529.5,-727 766.5,-727 766.5,-705 529.5,-705"/>
<text text-anchor="start" x="534.5" y="-714.2" font-family="Helvetica,sans-Serif" font-weight="bold" font-size="11.00">s_timeexpense</text>
<text text-anchor="start" x="731.5" y="-713.2" font-family="Helvetica,sans-Serif" font-size="11.00">[table]</text>
<polygon fill="none" stroke="black" points="529.5,-683 529.5,-705 683.5,-705 683.5,-683 529.5,-683"/>
<image xlink:href="../../images/primaryKeys.png" width="11px" height="12px" preserveAspectRatio="xMinYMin meet" x="534.5" y="-700"/>
<text text-anchor="start" x="549.5" y="-691.2" font-family="Helvetica,sans-Serif" font-size="11.00">s_timeexpense_id</text>
<polygon fill="none" stroke="black" points="683.5,-683 683.5,-705 766.5,-705 766.5,-683 683.5,-683"/>
<text text-anchor="start" x="686.5" y="-691.2" font-family="Helvetica,sans-Serif" font-size="11.00">numeric[10]</text>
<polygon fill="none" stroke="black" points="529.5,-661 529.5,-683 683.5,-683 683.5,-661 529.5,-661"/>
<text text-anchor="start" x="549.5" y="-669.2" font-family="Helvetica,sans-Serif" font-size="11.00">ad_client_id</text>
<polygon fill="none" stroke="black" points="683.5,-661 683.5,-683 766.5,-683 766.5,-661 683.5,-661"/>
<text text-anchor="start" x="686.5" y="-669.2" font-family="Helvetica,sans-Serif" font-size="11.00">numeric[10]</text>
<polygon fill="none" stroke="black" points="529.5,-639 529.5,-661 683.5,-661 683.5,-639 529.5,-639"/>
<text text-anchor="start" x="549.5" y="-647.2" font-family="Helvetica,sans-Serif" font-size="11.00">ad_org_id</text>
<polygon fill="none" stroke="black" points="683.5,-639 683.5,-661 766.5,-661 766.5,-639 683.5,-639"/>
<text text-anchor="start" x="686.5" y="-647.2" font-family="Helvetica,sans-Serif" font-size="11.00">numeric[10]</text>
<polygon fill="none" stroke="black" points="529.5,-617 529.5,-639 683.5,-639 683.5,-617 529.5,-617"/>
<text text-anchor="start" x="549.5" y="-625.2" font-family="Helvetica,sans-Serif" font-size="11.00">isactive</text>
<polygon fill="none" stroke="black" points="683.5,-617 683.5,-639 766.5,-639 766.5,-617 683.5,-617"/>
<text text-anchor="start" x="686.5" y="-625.2" font-family="Helvetica,sans-Serif" font-size="11.00">bpchar[1]</text>
<polygon fill="none" stroke="black" points="529.5,-595 529.5,-617 683.5,-617 683.5,-595 529.5,-595"/>
<text text-anchor="start" x="549.5" y="-603.2" font-family="Helvetica,sans-Serif" font-size="11.00">created</text>
<polygon fill="none" stroke="black" points="683.5,-595 683.5,-617 766.5,-617 766.5,-595 683.5,-595"/>
<text text-anchor="start" x="686.5" y="-603.2" font-family="Helvetica,sans-Serif" font-size="11.00">timestamp[29,6]</text>
<polygon fill="none" stroke="black" points="529.5,-573 529.5,-595 683.5,-595 683.5,-573 529.5,-573"/>
<text text-anchor="start" x="549.5" y="-581.2" font-family="Helvetica,sans-Serif" font-size="11.00">createdby</text>
<polygon fill="none" stroke="black" points="683.5,-573 683.5,-595 766.5,-595 766.5,-573 683.5,-573"/>
<text text-anchor="start" x="686.5" y="-581.2" font-family="Helvetica,sans-Serif" font-size="11.00">numeric[10]</text>
<polygon fill="none" stroke="black" points="529.5,-551 529.5,-573 683.5,-573 683.5,-551 529.5,-551"/>
<text text-anchor="start" x="549.5" y="-559.2" font-family="Helvetica,sans-Serif" font-size="11.00">updated</text>
<polygon fill="none" stroke="black" points="683.5,-551 683.5,-573 766.5,-573 766.5,-551 683.5,-551"/>
<text text-anchor="start" x="686.5" y="-559.2" font-family="Helvetica,sans-Serif" font-size="11.00">timestamp[29,6]</text>
<polygon fill="none" stroke="black" points="529.5,-529 529.5,-551 683.5,-551 683.5,-529 529.5,-529"/>
<text text-anchor="start" x="549.5" y="-537.2" font-family="Helvetica,sans-Serif" font-size="11.00">updatedby</text>
<polygon fill="none" stroke="black" points="683.5,-529 683.5,-551 766.5,-551 766.5,-529 683.5,-529"/>
<text text-anchor="start" x="686.5" y="-537.2" font-family="Helvetica,sans-Serif" font-size="11.00">numeric[10]</text>
<polygon fill="none" stroke="black" points="529.5,-507 529.5,-529 683.5,-529 683.5,-507 529.5,-507"/>
<text text-anchor="start" x="549.5" y="-515.2" font-family="Helvetica,sans-Serif" font-size="11.00">documentno</text>
<polygon fill="none" stroke="black" points="683.5,-507 683.5,-529 766.5,-529 766.5,-507 683.5,-507"/>
<text text-anchor="start" x="686.5" y="-515.2" font-family="Helvetica,sans-Serif" font-size="11.00">varchar[30]</text>
<polygon fill="none" stroke="black" points="529.5,-485 529.5,-507 683.5,-507 683.5,-485 529.5,-485"/>
<image xlink:href="../../images/foreignKeys.png" width="11px" height="12px" preserveAspectRatio="xMinYMin meet" x="534.5" y="-502"/>
<text text-anchor="start" x="549.5" y="-493.2" font-family="Helvetica,sans-Serif" font-size="11.00">c_bpartner_id</text>
<polygon fill="none" stroke="black" points="683.5,-485 683.5,-507 766.5,-507 766.5,-485 683.5,-485"/>
<text text-anchor="start" x="686.5" y="-493.2" font-family="Helvetica,sans-Serif" font-size="11.00">numeric[10]</text>
<polygon fill="none" stroke="black" points="529.5,-463 529.5,-485 683.5,-485 683.5,-463 529.5,-463"/>
<text text-anchor="start" x="549.5" y="-471.2" font-family="Helvetica,sans-Serif" font-size="11.00">datereport</text>
<polygon fill="none" stroke="black" points="683.5,-463 683.5,-485 766.5,-485 766.5,-463 683.5,-463"/>
<text text-anchor="start" x="686.5" y="-471.2" font-family="Helvetica,sans-Serif" font-size="11.00">timestamp[29,6]</text>
<polygon fill="none" stroke="black" points="529.5,-441 529.5,-463 683.5,-463 683.5,-441 529.5,-441"/>
<text text-anchor="start" x="549.5" y="-449.2" font-family="Helvetica,sans-Serif" font-size="11.00">description</text>
<polygon fill="none" stroke="black" points="683.5,-441 683.5,-463 766.5,-463 766.5,-441 683.5,-441"/>
<text text-anchor="start" x="686.5" y="-449.2" font-family="Helvetica,sans-Serif" font-size="11.00">varchar[255]</text>
<polygon fill="none" stroke="black" points="529.5,-419 529.5,-441 683.5,-441 683.5,-419 529.5,-419"/>
<text text-anchor="start" x="549.5" y="-427.2" font-family="Helvetica,sans-Serif" font-size="11.00">processing</text>
<polygon fill="none" stroke="black" points="683.5,-419 683.5,-441 766.5,-441 766.5,-419 683.5,-419"/>
<text text-anchor="start" x="686.5" y="-427.2" font-family="Helvetica,sans-Serif" font-size="11.00">bpchar[1]</text>
<polygon fill="none" stroke="black" points="529.5,-397 529.5,-419 683.5,-419 683.5,-397 529.5,-397"/>
<text text-anchor="start" x="549.5" y="-405.2" font-family="Helvetica,sans-Serif" font-size="11.00">processed</text>
<polygon fill="none" stroke="black" points="683.5,-397 683.5,-419 766.5,-419 766.5,-397 683.5,-397"/>
<text text-anchor="start" x="686.5" y="-405.2" font-family="Helvetica,sans-Serif" font-size="11.00">bpchar[1]</text>
<polygon fill="none" stroke="black" points="529.5,-375 529.5,-397 683.5,-397 683.5,-375 529.5,-375"/>
<image xlink:href="../../images/foreignKeys.png" width="11px" height="12px" preserveAspectRatio="xMinYMin meet" x="534.5" y="-392"/>
<text text-anchor="start" x="549.5" y="-383.2" font-family="Helvetica,sans-Serif" font-size="11.00">m_pricelist_id</text>
<polygon fill="none" stroke="black" points="683.5,-375 683.5,-397 766.5,-397 766.5,-375 683.5,-375"/>
<text text-anchor="start" x="686.5" y="-383.2" font-family="Helvetica,sans-Serif" font-size="11.00">numeric[10]</text>
<polygon fill="none" stroke="black" points="529.5,-353 529.5,-375 683.5,-375 683.5,-353 529.5,-353"/>
<image xlink:href="../../images/foreignKeys.png" width="11px" height="12px" preserveAspectRatio="xMinYMin meet" x="534.5" y="-370"/>
<text text-anchor="start" x="549.5" y="-361.2" font-family="Helvetica,sans-Serif" font-size="11.00">m_warehouse_id</text>
<polygon fill="none" stroke="black" points="683.5,-353 683.5,-375 766.5,-375 766.5,-353 683.5,-353"/>
<text text-anchor="start" x="686.5" y="-361.2" font-family="Helvetica,sans-Serif" font-size="11.00">numeric[10]</text>
<polygon fill="none" stroke="black" points="529.5,-331 529.5,-353 683.5,-353 683.5,-331 529.5,-331"/>
<text text-anchor="start" x="549.5" y="-339.2" font-family="Helvetica,sans-Serif" font-size="11.00">isapproved</text>
<polygon fill="none" stroke="black" points="683.5,-331 683.5,-353 766.5,-353 766.5,-331 683.5,-331"/>
<text text-anchor="start" x="686.5" y="-339.2" font-family="Helvetica,sans-Serif" font-size="11.00">bpchar[1]</text>
<polygon fill="none" stroke="black" points="529.5,-309 529.5,-331 683.5,-331 683.5,-309 529.5,-309"/>
<text text-anchor="start" x="549.5" y="-317.2" font-family="Helvetica,sans-Serif" font-size="11.00">docstatus</text>
<polygon fill="none" stroke="black" points="683.5,-309 683.5,-331 766.5,-331 766.5,-309 683.5,-309"/>
<text text-anchor="start" x="686.5" y="-317.2" font-family="Helvetica,sans-Serif" font-size="11.00">bpchar[2]</text>
<polygon fill="none" stroke="black" points="529.5,-287 529.5,-309 683.5,-309 683.5,-287 529.5,-287"/>
<text text-anchor="start" x="549.5" y="-295.2" font-family="Helvetica,sans-Serif" font-size="11.00">docaction</text>
<polygon fill="none" stroke="black" points="683.5,-287 683.5,-309 766.5,-309 766.5,-287 683.5,-287"/>
<text text-anchor="start" x="686.5" y="-295.2" font-family="Helvetica,sans-Serif" font-size="11.00">bpchar[2]</text>
<polygon fill="none" stroke="black" points="529.5,-265 529.5,-287 683.5,-287 683.5,-265 529.5,-265"/>
<text text-anchor="start" x="549.5" y="-273.2" font-family="Helvetica,sans-Serif" font-size="11.00">approvalamt</text>
<polygon fill="none" stroke="black" points="683.5,-265 683.5,-287 766.5,-287 766.5,-265 683.5,-265"/>
<text text-anchor="start" x="686.5" y="-273.2" font-family="Helvetica,sans-Serif" font-size="11.00">numeric[0]</text>
<polygon fill="#ffffff" stroke="transparent" points="529.5,-243 529.5,-265 683.5,-265 683.5,-243 529.5,-243"/>
<polygon fill="none" stroke="black" points="529.5,-243 529.5,-265 683.5,-265 683.5,-243 529.5,-243"/>
<text text-anchor="start" x="549.5" y="-251.2" font-family="Helvetica,sans-Serif" font-size="11.00">s_timeexpense_uu</text>
<polygon fill="none" stroke="black" points="683.5,-243 683.5,-265 766.5,-265 766.5,-243 683.5,-243"/>
<text text-anchor="start" x="686.5" y="-251.2" font-family="Helvetica,sans-Serif" font-size="11.00">varchar[36]</text>
<polygon fill="#ffffff" stroke="transparent" points="529.5,-225 529.5,-243 766.5,-243 766.5,-225 529.5,-225"/>
<polygon fill="none" stroke="black" points="529.5,-225 529.5,-243 766.5,-243 766.5,-225 529.5,-225"/>
<polygon fill="#ffffff" stroke="transparent" points="530.5,-226 530.5,-242 612.5,-242 612.5,-226 530.5,-226"/>
<text text-anchor="start" x="532.5" y="-231.2" font-family="Helvetica,sans-Serif" font-size="11.00">&lt; 3</text>
<polygon fill="#ffffff" stroke="transparent" points="612.5,-226 612.5,-242 684.5,-242 684.5,-226 612.5,-226"/>
<text text-anchor="start" x="645" y="-231.2" font-family="Helvetica,sans-Serif" font-size="11.00"> &#160;</text>
<polygon fill="#ffffff" stroke="transparent" points="684.5,-226 684.5,-242 765.5,-242 765.5,-226 684.5,-226"/>
<text text-anchor="start" x="747.5" y="-231.2" font-family="Helvetica,sans-Serif" font-size="11.00">1 &gt;</text>
<polygon fill="black" stroke="black" points="612.5,-226 612.5,-242 612.5,-242 612.5,-226 612.5,-226"/>
<polygon fill="black" stroke="black" points="684.5,-226 684.5,-242 684.5,-242 684.5,-226 684.5,-226"/>
<polygon fill="none" stroke="black" stroke-width="2" points="528,-224 528,-728 767,-728 767,-224 528,-224"/>
</a>
</g>
</g>
<!-- s_timeexpense&#45;&gt;c_bpartner -->
<g id="edge3" class="edge">
<title>s_timeexpense:w&#45;&gt;c_bpartner:e</title>
<path fill="none" stroke="black" d="M516.86,-505.2C479.32,-575.58 533.52,-1026 479,-1026"/>
<polygon fill="black" stroke="black" points="522.22,-500.96 530.73,-498.82 525.36,-498.48 528.5,-496 528.5,-496 528.5,-496 525.36,-498.48 526.27,-493.18 522.22,-500.96 522.22,-500.96"/>
<ellipse fill="none" stroke="black" cx="519.71" cy="-502.94" rx="3.2" ry="3.2"/>
</g>
<!-- s_timeexpense&#45;&gt;m_pricelist -->
<g id="edge4" class="edge">
<title>s_timeexpense:w&#45;&gt;m_pricelist:e</title>
<path fill="none" stroke="black" d="M514.27,-381.8C497.62,-368.26 514.14,-325.61 486,-309 434.33,-278.5 260.23,-268.46 216,-309 141.51,-377.28 277.55,-762 176.5,-762"/>
<polygon fill="black" stroke="black" points="520.83,-383.74 527.48,-389.45 524.66,-384.87 528.5,-386 528.5,-386 528.5,-386 524.66,-384.87 529.52,-382.55 520.83,-383.74 520.83,-383.74"/>
<ellipse fill="none" stroke="black" cx="517.76" cy="-382.83" rx="3.2" ry="3.2"/>
</g>
<!-- m_warehouse -->
<g id="node4" class="node">
<title>m_warehouse</title>
<g id="a_node4"><a xlink:href="../../tables/m_warehouse.html" xlink:title="m_warehouse" target="_top">
<polygon fill="#ffffff" stroke="transparent" points="235.5,-37 235.5,-271 466.5,-271 466.5,-37 235.5,-37"/>
<polygon fill="#f5f5f5" stroke="transparent" points="236,-249 236,-271 467,-271 467,-249 236,-249"/>
<polygon fill="none" stroke="black" points="236,-249 236,-271 467,-271 467,-249 236,-249"/>
<text text-anchor="start" x="241" y="-258.2" font-family="Helvetica,sans-Serif" font-weight="bold" font-size="11.00">m_warehouse</text>
<text text-anchor="start" x="432" y="-257.2" font-family="Helvetica,sans-Serif" font-size="11.00">[table]</text>
<polygon fill="none" stroke="black" points="236,-227 236,-249 467,-249 467,-227 236,-227"/>
<image xlink:href="../../images/primaryKeys.png" width="11px" height="12px" preserveAspectRatio="xMinYMin meet" x="241" y="-244"/>
<text text-anchor="start" x="256" y="-235.2" font-family="Helvetica,sans-Serif" font-size="11.00">m_warehouse_id</text>
<polygon fill="#ffffff" stroke="transparent" points="236,-205 236,-227 467,-227 467,-205 236,-205"/>
<polygon fill="none" stroke="black" points="236,-205 236,-227 467,-227 467,-205 236,-205"/>
<image xlink:href="../../images/foreignKeys.png" width="11px" height="12px" preserveAspectRatio="xMinYMin meet" x="241" y="-222"/>
<text text-anchor="start" x="256" y="-213.2" font-family="Helvetica,sans-Serif" font-size="11.00">ad_client_id</text>
<polygon fill="none" stroke="black" points="236,-183 236,-205 467,-205 467,-183 236,-183"/>
<image xlink:href="../../images/foreignKeys.png" width="11px" height="12px" preserveAspectRatio="xMinYMin meet" x="241" y="-200"/>
<text text-anchor="start" x="256" y="-191.2" font-family="Helvetica,sans-Serif" font-size="11.00">ad_org_id</text>
<polygon fill="#ffffff" stroke="transparent" points="236,-161 236,-183 467,-183 467,-161 236,-161"/>
<polygon fill="none" stroke="black" points="236,-161 236,-183 467,-183 467,-161 236,-161"/>
<text text-anchor="start" x="256" y="-169.2" font-family="Helvetica,sans-Serif" font-size="11.00">name</text>
<polygon fill="none" stroke="black" points="236,-139 236,-161 467,-161 467,-139 236,-139"/>
<image xlink:href="../../images/foreignKeys.png" width="11px" height="12px" preserveAspectRatio="xMinYMin meet" x="241" y="-156"/>
<text text-anchor="start" x="256" y="-147.2" font-family="Helvetica,sans-Serif" font-size="11.00">c_location_id</text>
<polygon fill="none" stroke="black" points="236,-117 236,-139 467,-139 467,-117 236,-117"/>
<image xlink:href="../../images/foreignKeys.png" width="11px" height="12px" preserveAspectRatio="xMinYMin meet" x="241" y="-134"/>
<text text-anchor="start" x="256" y="-125.2" font-family="Helvetica,sans-Serif" font-size="11.00">m_warehousesource_id</text>
<polygon fill="#ffffff" stroke="transparent" points="236,-95 236,-117 467,-117 467,-95 236,-95"/>
<polygon fill="none" stroke="black" points="236,-95 236,-117 467,-117 467,-95 236,-95"/>
<text text-anchor="start" x="256" y="-103.2" font-family="Helvetica,sans-Serif" font-size="11.00">m_warehouse_uu</text>
<polygon fill="none" stroke="black" points="236,-73 236,-95 467,-95 467,-73 236,-73"/>
<image xlink:href="../../images/foreignKeys.png" width="11px" height="12px" preserveAspectRatio="xMinYMin meet" x="241" y="-90"/>
<text text-anchor="start" x="256" y="-81.2" font-family="Helvetica,sans-Serif" font-size="11.00">m_reservelocator_id</text>
<polygon fill="none" stroke="black" points="236,-55 236,-73 467,-73 467,-55 236,-55"/>
<text text-anchor="start" x="239" y="-61.2" font-family="Helvetica,sans-Serif" font-size="11.00">...</text>
<polygon fill="#ffffff" stroke="transparent" points="236,-37 236,-55 467,-55 467,-37 236,-37"/>
<polygon fill="none" stroke="black" points="236,-37 236,-55 467,-55 467,-37 236,-37"/>
<polygon fill="#ffffff" stroke="transparent" points="237,-38 237,-54 306,-54 306,-38 237,-38"/>
<text text-anchor="start" x="239" y="-43.2" font-family="Helvetica,sans-Serif" font-size="11.00">&lt; 5</text>
<polygon fill="#ffffff" stroke="transparent" points="306,-38 306,-54 392,-54 392,-38 306,-38"/>
<text text-anchor="start" x="332.5" y="-43.2" font-family="Helvetica,sans-Serif" font-size="11.00">8 rows</text>
<polygon fill="#ffffff" stroke="transparent" points="392,-38 392,-54 466,-54 466,-38 392,-38"/>
<text text-anchor="start" x="442" y="-43.2" font-family="Helvetica,sans-Serif" font-size="11.00">57 &gt;</text>
<polygon fill="black" stroke="black" points="306,-38 306,-54 306,-54 306,-38 306,-38"/>
<polygon fill="black" stroke="black" points="392,-38 392,-54 392,-54 392,-38 392,-38"/>
</a>
</g>
</g>
<!-- s_timeexpense&#45;&gt;m_warehouse -->
<g id="edge5" class="edge">
<title>s_timeexpense:w&#45;&gt;m_warehouse:e</title>
<path fill="none" stroke="black" d="M514.14,-360.89C477.22,-341.48 524.3,-238 468,-238"/>
<polygon fill="black" stroke="black" points="520.68,-362.3 527.74,-367.52 524.59,-363.15 528.5,-364 528.5,-364 528.5,-364 524.59,-363.15 529.26,-360.48 520.68,-362.3 520.68,-362.3"/>
<ellipse fill="none" stroke="black" cx="517.55" cy="-361.63" rx="3.2" ry="3.2"/>
</g>
<!-- s_timeexpenseline -->
<g id="node5" class="node">
<title>s_timeexpenseline</title>
<g id="a_node5"><a xlink:href="../../tables/s_timeexpenseline.html" xlink:title="s_timeexpenseline" target="_top">
<polygon fill="#ffffff" stroke="transparent" points="817,-503 817,-913 1021,-913 1021,-503 817,-503"/>
<polygon fill="#f5f5f5" stroke="transparent" points="817,-891 817,-913 1021,-913 1021,-891 817,-891"/>
<polygon fill="none" stroke="black" points="817,-891 817,-913 1021,-913 1021,-891 817,-891"/>
<text text-anchor="start" x="822" y="-900.2" font-family="Helvetica,sans-Serif" font-weight="bold" font-size="11.00">s_timeexpenseline</text>
<text text-anchor="start" x="986" y="-899.2" font-family="Helvetica,sans-Serif" font-size="11.00">[table]</text>
<polygon fill="none" stroke="black" points="817,-869 817,-891 1021,-891 1021,-869 817,-869"/>
<image xlink:href="../../images/primaryKeys.png" width="11px" height="12px" preserveAspectRatio="xMinYMin meet" x="822" y="-886"/>
<text text-anchor="start" x="837" y="-877.2" font-family="Helvetica,sans-Serif" font-size="11.00">s_timeexpenseline_id</text>
<polygon fill="none" stroke="black" points="817,-847 817,-869 1021,-869 1021,-847 817,-847"/>
<image xlink:href="../../images/foreignKeys.png" width="11px" height="12px" preserveAspectRatio="xMinYMin meet" x="822" y="-864"/>
<text text-anchor="start" x="837" y="-855.2" font-family="Helvetica,sans-Serif" font-size="11.00">s_timeexpense_id</text>
<polygon fill="none" stroke="black" points="817,-825 817,-847 1021,-847 1021,-825 817,-825"/>
<image xlink:href="../../images/foreignKeys.png" width="11px" height="12px" preserveAspectRatio="xMinYMin meet" x="822" y="-842"/>
<text text-anchor="start" x="837" y="-833.2" font-family="Helvetica,sans-Serif" font-size="11.00">m_product_id</text>
<polygon fill="none" stroke="black" points="817,-803 817,-825 1021,-825 1021,-803 817,-803"/>
<image xlink:href="../../images/foreignKeys.png" width="11px" height="12px" preserveAspectRatio="xMinYMin meet" x="822" y="-820"/>
<text text-anchor="start" x="837" y="-811.2" font-family="Helvetica,sans-Serif" font-size="11.00">c_currency_id</text>
<polygon fill="none" stroke="black" points="817,-781 817,-803 1021,-803 1021,-781 817,-781"/>
<image xlink:href="../../images/foreignKeys.png" width="11px" height="12px" preserveAspectRatio="xMinYMin meet" x="822" y="-798"/>
<text text-anchor="start" x="837" y="-789.2" font-family="Helvetica,sans-Serif" font-size="11.00">s_resourceassignment_id</text>
<polygon fill="none" stroke="black" points="817,-759 817,-781 1021,-781 1021,-759 817,-759"/>
<image xlink:href="../../images/foreignKeys.png" width="11px" height="12px" preserveAspectRatio="xMinYMin meet" x="822" y="-776"/>
<text text-anchor="start" x="837" y="-767.2" font-family="Helvetica,sans-Serif" font-size="11.00">c_bpartner_id</text>
<polygon fill="none" stroke="black" points="817,-737 817,-759 1021,-759 1021,-737 817,-737"/>
<image xlink:href="../../images/foreignKeys.png" width="11px" height="12px" preserveAspectRatio="xMinYMin meet" x="822" y="-754"/>
<text text-anchor="start" x="837" y="-745.2" font-family="Helvetica,sans-Serif" font-size="11.00">c_project_id</text>
<polygon fill="none" stroke="black" points="817,-715 817,-737 1021,-737 1021,-715 817,-715"/>
<image xlink:href="../../images/foreignKeys.png" width="11px" height="12px" preserveAspectRatio="xMinYMin meet" x="822" y="-732"/>
<text text-anchor="start" x="837" y="-723.2" font-family="Helvetica,sans-Serif" font-size="11.00">c_activity_id</text>
<polygon fill="none" stroke="black" points="817,-693 817,-715 1021,-715 1021,-693 817,-693"/>
<image xlink:href="../../images/foreignKeys.png" width="11px" height="12px" preserveAspectRatio="xMinYMin meet" x="822" y="-710"/>
<text text-anchor="start" x="837" y="-701.2" font-family="Helvetica,sans-Serif" font-size="11.00">c_campaign_id</text>
<polygon fill="#ffffff" stroke="transparent" points="817,-671 817,-693 1021,-693 1021,-671 817,-671"/>
<polygon fill="none" stroke="black" points="817,-671 817,-693 1021,-693 1021,-671 817,-671"/>
<image xlink:href="../../images/foreignKeys.png" width="11px" height="12px" preserveAspectRatio="xMinYMin meet" x="822" y="-688"/>
<text text-anchor="start" x="837" y="-679.2" font-family="Helvetica,sans-Serif" font-size="11.00">c_invoiceline_id</text>
<polygon fill="none" stroke="black" points="817,-649 817,-671 1021,-671 1021,-649 817,-649"/>
<image xlink:href="../../images/foreignKeys.png" width="11px" height="12px" preserveAspectRatio="xMinYMin meet" x="822" y="-666"/>
<text text-anchor="start" x="837" y="-657.2" font-family="Helvetica,sans-Serif" font-size="11.00">c_uom_id</text>
<polygon fill="#ffffff" stroke="transparent" points="817,-627 817,-649 1021,-649 1021,-627 817,-627"/>
<polygon fill="none" stroke="black" points="817,-627 817,-649 1021,-649 1021,-627 817,-627"/>
<image xlink:href="../../images/foreignKeys.png" width="11px" height="12px" preserveAspectRatio="xMinYMin meet" x="822" y="-644"/>
<text text-anchor="start" x="837" y="-635.2" font-family="Helvetica,sans-Serif" font-size="11.00">c_orderline_id</text>
<polygon fill="none" stroke="black" points="817,-605 817,-627 1021,-627 1021,-605 817,-605"/>
<image xlink:href="../../images/foreignKeys.png" width="11px" height="12px" preserveAspectRatio="xMinYMin meet" x="822" y="-622"/>
<text text-anchor="start" x="837" y="-613.2" font-family="Helvetica,sans-Serif" font-size="11.00">c_projectphase_id</text>
<polygon fill="none" stroke="black" points="817,-583 817,-605 1021,-605 1021,-583 817,-583"/>
<image xlink:href="../../images/foreignKeys.png" width="11px" height="12px" preserveAspectRatio="xMinYMin meet" x="822" y="-600"/>
<text text-anchor="start" x="837" y="-591.2" font-family="Helvetica,sans-Serif" font-size="11.00">c_projecttask_id</text>
<polygon fill="none" stroke="black" points="817,-561 817,-583 1021,-583 1021,-561 817,-561"/>
<image xlink:href="../../images/foreignKeys.png" width="11px" height="12px" preserveAspectRatio="xMinYMin meet" x="822" y="-578"/>
<text text-anchor="start" x="837" y="-569.2" font-family="Helvetica,sans-Serif" font-size="11.00">s_timetype_id</text>
<polygon fill="#ffffff" stroke="transparent" points="817,-539 817,-561 1021,-561 1021,-539 817,-539"/>
<polygon fill="none" stroke="black" points="817,-539 817,-561 1021,-561 1021,-539 817,-539"/>
<text text-anchor="start" x="837" y="-547.2" font-family="Helvetica,sans-Serif" font-size="11.00">s_timeexpenseline_uu</text>
<polygon fill="none" stroke="black" points="817,-521 817,-539 1021,-539 1021,-521 817,-521"/>
<text text-anchor="start" x="820" y="-527.2" font-family="Helvetica,sans-Serif" font-size="11.00">...</text>
<polygon fill="#ffffff" stroke="transparent" points="817,-503 817,-521 1021,-521 1021,-503 817,-503"/>
<polygon fill="none" stroke="black" points="817,-503 817,-521 1021,-521 1021,-503 817,-503"/>
<polygon fill="#ffffff" stroke="transparent" points="818,-504 818,-520 893,-520 893,-504 818,-504"/>
<text text-anchor="start" x="820" y="-509.2" font-family="Helvetica,sans-Serif" font-size="11.00">&lt; 14</text>
<polygon fill="#ffffff" stroke="transparent" points="893,-504 893,-520 952,-520 952,-504 893,-504"/>
<text text-anchor="start" x="919" y="-509.2" font-family="Helvetica,sans-Serif" font-size="11.00"> &#160;</text>
<polygon fill="#ffffff" stroke="transparent" points="952,-504 952,-520 1020,-520 1020,-504 952,-504"/>
<text text-anchor="start" x="1002" y="-509.2" font-family="Helvetica,sans-Serif" font-size="11.00">1 &gt;</text>
<polygon fill="black" stroke="black" points="893,-504 893,-520 893,-520 893,-504 893,-504"/>
<polygon fill="black" stroke="black" points="952,-504 952,-520 952,-520 952,-504 952,-504"/>
</a>
</g>
</g>
<!-- s_timeexpenseline&#45;&gt;c_bpartner -->
<g id="edge6" class="edge">
<title>s_timeexpenseline:w&#45;&gt;c_bpartner:e</title>
<path fill="none" stroke="black" d="M801.59,-770.52C629.82,-783.32 662.13,-1026 479,-1026"/>
<polygon fill="black" stroke="black" points="808.01,-770.29 816.13,-773.6 812,-770.15 816,-770 816,-770 816,-770 812,-770.15 815.87,-766.4 808.01,-770.29 808.01,-770.29"/>
<ellipse fill="none" stroke="black" cx="804.81" cy="-770.41" rx="3.2" ry="3.2"/>
</g>
<!-- s_timeexpenseline&#45;&gt;s_timeexpense -->
<g id="edge7" class="edge">
<title>s_timeexpenseline:w&#45;&gt;s_timeexpense:e</title>
<path fill="none" stroke="black" d="M801.6,-855.29C754.72,-833.97 837.72,-694 767.5,-694"/>
<polygon fill="black" stroke="black" points="808.14,-856.52 815.33,-861.54 812.07,-857.26 816,-858 816,-858 816,-858 812.07,-857.26 816.67,-854.46 808.14,-856.52 808.14,-856.52"/>
<ellipse fill="none" stroke="black" cx="804.99" cy="-855.93" rx="3.2" ry="3.2"/>
</g>
</g>
</svg>
