<?xml version="1.0" encoding="UTF-8" standalone="no"?>
<!DOCTYPE svg PUBLIC "-//W3C//DTD SVG 1.1//EN"
 "http://www.w3.org/Graphics/SVG/1.1/DTD/svg11.dtd">
<!-- Generated by graphviz version 2.43.0 (0)
 -->
<!-- Title: oneDegreeRelationshipsDiagram Pages: 1 -->
<svg width="803pt" height="758pt"
 viewBox="0.00 0.00 803.00 758.00" xmlns="http://www.w3.org/2000/svg" xmlns:xlink="http://www.w3.org/1999/xlink">
<g id="graph0" class="graph" transform="scale(1 1) rotate(0) translate(4 754)">
<title>oneDegreeRelationshipsDiagram</title>
<polygon fill="#ffffff" stroke="transparent" points="-4,4 -4,-754 799,-754 799,4 -4,4"/>
<text text-anchor="middle" x="71.5" y="-7.2" font-family="Helvetica,sans-Serif" font-size="11.00">Generated by SchemaSpy</text>
<!-- s_training -->
<g id="node1" class="node">
<title>s_training</title>
<g id="a_node1"><a xlink:href="../../tables/s_training.html" xlink:title="s_training" target="_top">
<polygon fill="#ffffff" stroke="transparent" points="301,-264 301,-726 577,-726 577,-264 301,-264"/>
<polygon fill="#f5f5f5" stroke="transparent" points="303,-702 303,-724 575,-724 575,-702 303,-702"/>
<polygon fill="none" stroke="black" points="303,-702 303,-724 575,-724 575,-702 303,-702"/>
<text text-anchor="start" x="308" y="-711.2" font-family="Helvetica,sans-Serif" font-weight="bold" font-size="11.00">s_training</text>
<text text-anchor="start" x="540" y="-710.2" font-family="Helvetica,sans-Serif" font-size="11.00">[table]</text>
<polygon fill="none" stroke="black" points="303,-680 303,-702 492,-702 492,-680 303,-680"/>
<image xlink:href="../../images/primaryKeys.png" width="11px" height="12px" preserveAspectRatio="xMinYMin meet" x="308" y="-697"/>
<text text-anchor="start" x="323" y="-688.2" font-family="Helvetica,sans-Serif" font-size="11.00">s_training_id</text>
<polygon fill="none" stroke="black" points="492,-680 492,-702 575,-702 575,-680 492,-680"/>
<text text-anchor="start" x="495" y="-688.2" font-family="Helvetica,sans-Serif" font-size="11.00">numeric[10]</text>
<polygon fill="none" stroke="black" points="303,-658 303,-680 492,-680 492,-658 303,-658"/>
<text text-anchor="start" x="323" y="-666.2" font-family="Helvetica,sans-Serif" font-size="11.00">ad_client_id</text>
<polygon fill="none" stroke="black" points="492,-658 492,-680 575,-680 575,-658 492,-658"/>
<text text-anchor="start" x="495" y="-666.2" font-family="Helvetica,sans-Serif" font-size="11.00">numeric[10]</text>
<polygon fill="none" stroke="black" points="303,-636 303,-658 492,-658 492,-636 303,-636"/>
<text text-anchor="start" x="323" y="-644.2" font-family="Helvetica,sans-Serif" font-size="11.00">ad_org_id</text>
<polygon fill="none" stroke="black" points="492,-636 492,-658 575,-658 575,-636 492,-636"/>
<text text-anchor="start" x="495" y="-644.2" font-family="Helvetica,sans-Serif" font-size="11.00">numeric[10]</text>
<polygon fill="none" stroke="black" points="303,-614 303,-636 492,-636 492,-614 303,-614"/>
<text text-anchor="start" x="323" y="-622.2" font-family="Helvetica,sans-Serif" font-size="11.00">isactive</text>
<polygon fill="none" stroke="black" points="492,-614 492,-636 575,-636 575,-614 492,-614"/>
<text text-anchor="start" x="495" y="-622.2" font-family="Helvetica,sans-Serif" font-size="11.00">bpchar[1]</text>
<polygon fill="none" stroke="black" points="303,-592 303,-614 492,-614 492,-592 303,-592"/>
<text text-anchor="start" x="323" y="-600.2" font-family="Helvetica,sans-Serif" font-size="11.00">created</text>
<polygon fill="none" stroke="black" points="492,-592 492,-614 575,-614 575,-592 492,-592"/>
<text text-anchor="start" x="495" y="-600.2" font-family="Helvetica,sans-Serif" font-size="11.00">timestamp[29,6]</text>
<polygon fill="none" stroke="black" points="303,-570 303,-592 492,-592 492,-570 303,-570"/>
<text text-anchor="start" x="323" y="-578.2" font-family="Helvetica,sans-Serif" font-size="11.00">createdby</text>
<polygon fill="none" stroke="black" points="492,-570 492,-592 575,-592 575,-570 492,-570"/>
<text text-anchor="start" x="495" y="-578.2" font-family="Helvetica,sans-Serif" font-size="11.00">numeric[10]</text>
<polygon fill="none" stroke="black" points="303,-548 303,-570 492,-570 492,-548 303,-548"/>
<text text-anchor="start" x="323" y="-556.2" font-family="Helvetica,sans-Serif" font-size="11.00">updatedby</text>
<polygon fill="none" stroke="black" points="492,-548 492,-570 575,-570 575,-548 492,-548"/>
<text text-anchor="start" x="495" y="-556.2" font-family="Helvetica,sans-Serif" font-size="11.00">numeric[10]</text>
<polygon fill="none" stroke="black" points="303,-526 303,-548 492,-548 492,-526 303,-526"/>
<text text-anchor="start" x="323" y="-534.2" font-family="Helvetica,sans-Serif" font-size="11.00">updated</text>
<polygon fill="none" stroke="black" points="492,-526 492,-548 575,-548 575,-526 492,-526"/>
<text text-anchor="start" x="495" y="-534.2" font-family="Helvetica,sans-Serif" font-size="11.00">timestamp[29,6]</text>
<polygon fill="none" stroke="black" points="303,-504 303,-526 492,-526 492,-504 303,-504"/>
<text text-anchor="start" x="323" y="-512.2" font-family="Helvetica,sans-Serif" font-size="11.00">name</text>
<polygon fill="none" stroke="black" points="492,-504 492,-526 575,-526 575,-504 492,-504"/>
<text text-anchor="start" x="495" y="-512.2" font-family="Helvetica,sans-Serif" font-size="11.00">varchar[60]</text>
<polygon fill="none" stroke="black" points="303,-482 303,-504 492,-504 492,-482 303,-482"/>
<text text-anchor="start" x="323" y="-490.2" font-family="Helvetica,sans-Serif" font-size="11.00">description</text>
<polygon fill="none" stroke="black" points="492,-482 492,-504 575,-504 575,-482 492,-482"/>
<text text-anchor="start" x="495" y="-490.2" font-family="Helvetica,sans-Serif" font-size="11.00">varchar[255]</text>
<polygon fill="none" stroke="black" points="303,-460 303,-482 492,-482 492,-460 303,-460"/>
<text text-anchor="start" x="323" y="-468.2" font-family="Helvetica,sans-Serif" font-size="11.00">help</text>
<polygon fill="none" stroke="black" points="492,-460 492,-482 575,-482 575,-460 492,-460"/>
<text text-anchor="start" x="495" y="-468.2" font-family="Helvetica,sans-Serif" font-size="11.00">varchar[2000]</text>
<polygon fill="none" stroke="black" points="303,-438 303,-460 492,-460 492,-438 303,-438"/>
<text text-anchor="start" x="323" y="-446.2" font-family="Helvetica,sans-Serif" font-size="11.00">documentnote</text>
<polygon fill="none" stroke="black" points="492,-438 492,-460 575,-460 575,-438 492,-438"/>
<text text-anchor="start" x="495" y="-446.2" font-family="Helvetica,sans-Serif" font-size="11.00">varchar[2000]</text>
<polygon fill="none" stroke="black" points="303,-416 303,-438 492,-438 492,-416 303,-416"/>
<text text-anchor="start" x="323" y="-424.2" font-family="Helvetica,sans-Serif" font-size="11.00">imageurl</text>
<polygon fill="none" stroke="black" points="492,-416 492,-438 575,-438 575,-416 492,-416"/>
<text text-anchor="start" x="495" y="-424.2" font-family="Helvetica,sans-Serif" font-size="11.00">varchar[120]</text>
<polygon fill="none" stroke="black" points="303,-394 303,-416 492,-416 492,-394 303,-394"/>
<text text-anchor="start" x="323" y="-402.2" font-family="Helvetica,sans-Serif" font-size="11.00">descriptionurl</text>
<polygon fill="none" stroke="black" points="492,-394 492,-416 575,-416 575,-394 492,-394"/>
<text text-anchor="start" x="495" y="-402.2" font-family="Helvetica,sans-Serif" font-size="11.00">varchar[120]</text>
<polygon fill="none" stroke="black" points="303,-372 303,-394 492,-394 492,-372 303,-372"/>
<image xlink:href="../../images/foreignKeys.png" width="11px" height="12px" preserveAspectRatio="xMinYMin meet" x="308" y="-389"/>
<text text-anchor="start" x="323" y="-380.2" font-family="Helvetica,sans-Serif" font-size="11.00">m_product_category_id</text>
<polygon fill="none" stroke="black" points="492,-372 492,-394 575,-394 575,-372 492,-372"/>
<text text-anchor="start" x="495" y="-380.2" font-family="Helvetica,sans-Serif" font-size="11.00">numeric[10]</text>
<polygon fill="none" stroke="black" points="303,-350 303,-372 492,-372 492,-350 303,-350"/>
<image xlink:href="../../images/foreignKeys.png" width="11px" height="12px" preserveAspectRatio="xMinYMin meet" x="308" y="-367"/>
<text text-anchor="start" x="323" y="-358.2" font-family="Helvetica,sans-Serif" font-size="11.00">c_taxcategory_id</text>
<polygon fill="none" stroke="black" points="492,-350 492,-372 575,-372 575,-350 492,-350"/>
<text text-anchor="start" x="495" y="-358.2" font-family="Helvetica,sans-Serif" font-size="11.00">numeric[10]</text>
<polygon fill="none" stroke="black" points="303,-328 303,-350 492,-350 492,-328 303,-328"/>
<image xlink:href="../../images/foreignKeys.png" width="11px" height="12px" preserveAspectRatio="xMinYMin meet" x="308" y="-345"/>
<text text-anchor="start" x="323" y="-336.2" font-family="Helvetica,sans-Serif" font-size="11.00">c_uom_id</text>
<polygon fill="none" stroke="black" points="492,-328 492,-350 575,-350 575,-328 492,-328"/>
<text text-anchor="start" x="495" y="-336.2" font-family="Helvetica,sans-Serif" font-size="11.00">numeric[10]</text>
<polygon fill="none" stroke="black" points="303,-306 303,-328 492,-328 492,-306 303,-306"/>
<text text-anchor="start" x="323" y="-314.2" font-family="Helvetica,sans-Serif" font-size="11.00">processing</text>
<polygon fill="none" stroke="black" points="492,-306 492,-328 575,-328 575,-306 492,-306"/>
<text text-anchor="start" x="495" y="-314.2" font-family="Helvetica,sans-Serif" font-size="11.00">bpchar[1]</text>
<polygon fill="#ffffff" stroke="transparent" points="303,-284 303,-306 492,-306 492,-284 303,-284"/>
<polygon fill="none" stroke="black" points="303,-284 303,-306 492,-306 492,-284 303,-284"/>
<text text-anchor="start" x="323" y="-292.2" font-family="Helvetica,sans-Serif" font-size="11.00">s_training_uu</text>
<polygon fill="none" stroke="black" points="492,-284 492,-306 575,-306 575,-284 492,-284"/>
<text text-anchor="start" x="495" y="-292.2" font-family="Helvetica,sans-Serif" font-size="11.00">varchar[36]</text>
<polygon fill="#ffffff" stroke="transparent" points="303,-266 303,-284 575,-284 575,-266 303,-266"/>
<polygon fill="none" stroke="black" points="303,-266 303,-284 575,-284 575,-266 303,-266"/>
<polygon fill="#ffffff" stroke="transparent" points="304,-267 304,-283 397,-283 397,-267 304,-267"/>
<text text-anchor="start" x="306" y="-272.2" font-family="Helvetica,sans-Serif" font-size="11.00">&lt; 3</text>
<polygon fill="#ffffff" stroke="transparent" points="397,-267 397,-283 481,-283 481,-267 397,-267"/>
<text text-anchor="start" x="435.5" y="-272.2" font-family="Helvetica,sans-Serif" font-size="11.00"> &#160;</text>
<polygon fill="#ffffff" stroke="transparent" points="481,-267 481,-283 574,-283 574,-267 481,-267"/>
<text text-anchor="start" x="556" y="-272.2" font-family="Helvetica,sans-Serif" font-size="11.00">1 &gt;</text>
<polygon fill="black" stroke="black" points="397,-267 397,-283 397,-283 397,-267 397,-267"/>
<polygon fill="black" stroke="black" points="481,-267 481,-283 481,-283 481,-267 481,-267"/>
<polygon fill="none" stroke="black" stroke-width="2" points="302,-265 302,-725 576,-725 576,-265 302,-265"/>
</a>
</g>
</g>
<!-- c_taxcategory -->
<g id="node2" class="node">
<title>c_taxcategory</title>
<g id="a_node2"><a xlink:href="../../tables/c_taxcategory.html" xlink:title="c_taxcategory" target="_top">
<polygon fill="#ffffff" stroke="transparent" points="56,-248 56,-394 204,-394 204,-248 56,-248"/>
<polygon fill="#f5f5f5" stroke="transparent" points="56,-372 56,-394 204,-394 204,-372 56,-372"/>
<polygon fill="none" stroke="black" points="56,-372 56,-394 204,-394 204,-372 56,-372"/>
<text text-anchor="start" x="61" y="-381.2" font-family="Helvetica,sans-Serif" font-weight="bold" font-size="11.00">c_taxcategory</text>
<text text-anchor="start" x="169" y="-380.2" font-family="Helvetica,sans-Serif" font-size="11.00">[table]</text>
<polygon fill="none" stroke="black" points="56,-350 56,-372 204,-372 204,-350 56,-350"/>
<image xlink:href="../../images/primaryKeys.png" width="11px" height="12px" preserveAspectRatio="xMinYMin meet" x="61" y="-367"/>
<text text-anchor="start" x="76" y="-358.2" font-family="Helvetica,sans-Serif" font-size="11.00">c_taxcategory_id</text>
<polygon fill="#ffffff" stroke="transparent" points="56,-328 56,-350 204,-350 204,-328 56,-328"/>
<polygon fill="none" stroke="black" points="56,-328 56,-350 204,-350 204,-328 56,-328"/>
<text text-anchor="start" x="76" y="-336.2" font-family="Helvetica,sans-Serif" font-size="11.00">ad_client_id</text>
<polygon fill="#ffffff" stroke="transparent" points="56,-306 56,-328 204,-328 204,-306 56,-306"/>
<polygon fill="none" stroke="black" points="56,-306 56,-328 204,-328 204,-306 56,-306"/>
<text text-anchor="start" x="76" y="-314.2" font-family="Helvetica,sans-Serif" font-size="11.00">name</text>
<polygon fill="#ffffff" stroke="transparent" points="56,-284 56,-306 204,-306 204,-284 56,-284"/>
<polygon fill="none" stroke="black" points="56,-284 56,-306 204,-306 204,-284 56,-284"/>
<text text-anchor="start" x="76" y="-292.2" font-family="Helvetica,sans-Serif" font-size="11.00">c_taxcategory_uu</text>
<polygon fill="none" stroke="black" points="56,-266 56,-284 204,-284 204,-266 56,-266"/>
<text text-anchor="start" x="59" y="-272.2" font-family="Helvetica,sans-Serif" font-size="11.00">...</text>
<polygon fill="#ffffff" stroke="transparent" points="56,-248 56,-266 204,-266 204,-248 56,-248"/>
<polygon fill="none" stroke="black" points="56,-248 56,-266 204,-266 204,-248 56,-248"/>
<polygon fill="#ffffff" stroke="transparent" points="57,-249 57,-265 92,-265 92,-249 57,-249"/>
<text text-anchor="start" x="59" y="-254.2" font-family="Helvetica,sans-Serif" font-size="11.00"> &#160;</text>
<polygon fill="#ffffff" stroke="transparent" points="92,-249 92,-265 159,-265 159,-249 92,-249"/>
<text text-anchor="start" x="106" y="-254.2" font-family="Helvetica,sans-Serif" font-size="11.00">14 rows</text>
<polygon fill="#ffffff" stroke="transparent" points="159,-249 159,-265 203,-265 203,-249 159,-249"/>
<text text-anchor="start" x="185" y="-254.2" font-family="Helvetica,sans-Serif" font-size="11.00">8 &gt;</text>
<polygon fill="black" stroke="black" points="92,-249 92,-265 92,-265 92,-249 92,-249"/>
<polygon fill="black" stroke="black" points="159,-249 159,-265 159,-265 159,-249 159,-249"/>
</a>
</g>
</g>
<!-- s_training&#45;&gt;c_taxcategory -->
<g id="edge1" class="edge">
<title>s_training:w&#45;&gt;c_taxcategory:e</title>
<path fill="none" stroke="black" d="M287.22,-361C255.69,-361 242.72,-361 205,-361"/>
<polygon fill="black" stroke="black" points="294,-361 302,-364.6 298,-361 302,-361 302,-361 302,-361 298,-361 302,-357.4 294,-361 294,-361"/>
<ellipse fill="none" stroke="black" cx="290.8" cy="-361" rx="3.2" ry="3.2"/>
</g>
<!-- c_uom -->
<g id="node3" class="node">
<title>c_uom</title>
<g id="a_node3"><a xlink:href="../../tables/c_uom.html" xlink:title="c_uom" target="_top">
<polygon fill="#ffffff" stroke="transparent" points="59.5,-37 59.5,-227 200.5,-227 200.5,-37 59.5,-37"/>
<polygon fill="#f5f5f5" stroke="transparent" points="60,-205 60,-227 201,-227 201,-205 60,-205"/>
<polygon fill="none" stroke="black" points="60,-205 60,-227 201,-227 201,-205 60,-205"/>
<text text-anchor="start" x="65" y="-214.2" font-family="Helvetica,sans-Serif" font-weight="bold" font-size="11.00">c_uom</text>
<text text-anchor="start" x="166" y="-213.2" font-family="Helvetica,sans-Serif" font-size="11.00">[table]</text>
<polygon fill="none" stroke="black" points="60,-183 60,-205 201,-205 201,-183 60,-183"/>
<image xlink:href="../../images/primaryKeys.png" width="11px" height="12px" preserveAspectRatio="xMinYMin meet" x="65" y="-200"/>
<text text-anchor="start" x="80" y="-191.2" font-family="Helvetica,sans-Serif" font-size="11.00">c_uom_id</text>
<polygon fill="#ffffff" stroke="transparent" points="60,-161 60,-183 201,-183 201,-161 60,-161"/>
<polygon fill="none" stroke="black" points="60,-161 60,-183 201,-183 201,-161 60,-161"/>
<image xlink:href="../../images/foreignKeys.png" width="11px" height="12px" preserveAspectRatio="xMinYMin meet" x="65" y="-178"/>
<text text-anchor="start" x="80" y="-169.2" font-family="Helvetica,sans-Serif" font-size="11.00">ad_client_id</text>
<polygon fill="none" stroke="black" points="60,-139 60,-161 201,-161 201,-139 60,-139"/>
<image xlink:href="../../images/foreignKeys.png" width="11px" height="12px" preserveAspectRatio="xMinYMin meet" x="65" y="-156"/>
<text text-anchor="start" x="80" y="-147.2" font-family="Helvetica,sans-Serif" font-size="11.00">ad_org_id</text>
<polygon fill="#ffffff" stroke="transparent" points="60,-117 60,-139 201,-139 201,-117 60,-117"/>
<polygon fill="none" stroke="black" points="60,-117 60,-139 201,-139 201,-117 60,-117"/>
<text text-anchor="start" x="80" y="-125.2" font-family="Helvetica,sans-Serif" font-size="11.00">x12de355</text>
<polygon fill="#ffffff" stroke="transparent" points="60,-95 60,-117 201,-117 201,-95 60,-95"/>
<polygon fill="none" stroke="black" points="60,-95 60,-117 201,-117 201,-95 60,-95"/>
<text text-anchor="start" x="80" y="-103.2" font-family="Helvetica,sans-Serif" font-size="11.00">name</text>
<polygon fill="#ffffff" stroke="transparent" points="60,-73 60,-95 201,-95 201,-73 60,-73"/>
<polygon fill="none" stroke="black" points="60,-73 60,-95 201,-95 201,-73 60,-73"/>
<text text-anchor="start" x="80" y="-81.2" font-family="Helvetica,sans-Serif" font-size="11.00">c_uom_uu</text>
<polygon fill="none" stroke="black" points="60,-55 60,-73 201,-73 201,-55 60,-55"/>
<text text-anchor="start" x="63" y="-61.2" font-family="Helvetica,sans-Serif" font-size="11.00">...</text>
<polygon fill="#ffffff" stroke="transparent" points="60,-37 60,-55 201,-55 201,-37 60,-37"/>
<polygon fill="none" stroke="black" points="60,-37 60,-55 201,-55 201,-37 60,-37"/>
<polygon fill="#ffffff" stroke="transparent" points="61,-38 61,-54 98,-54 98,-38 61,-38"/>
<text text-anchor="start" x="63" y="-43.2" font-family="Helvetica,sans-Serif" font-size="11.00">&lt; 2</text>
<polygon fill="#ffffff" stroke="transparent" points="98,-38 98,-54 158,-54 158,-38 98,-38"/>
<text text-anchor="start" x="108.5" y="-43.2" font-family="Helvetica,sans-Serif" font-size="11.00">72 rows</text>
<polygon fill="#ffffff" stroke="transparent" points="158,-38 158,-54 200,-54 200,-38 158,-38"/>
<text text-anchor="start" x="176" y="-43.2" font-family="Helvetica,sans-Serif" font-size="11.00">55 &gt;</text>
<polygon fill="black" stroke="black" points="98,-38 98,-54 98,-54 98,-38 98,-38"/>
<polygon fill="black" stroke="black" points="158,-38 158,-54 158,-54 158,-38 158,-38"/>
</a>
</g>
</g>
<!-- s_training&#45;&gt;c_uom -->
<g id="edge2" class="edge">
<title>s_training:w&#45;&gt;c_uom:e</title>
<path fill="none" stroke="black" d="M287.71,-336.37C260.99,-324.03 286.48,-270.99 260,-237 240.28,-211.68 234.09,-194 202,-194"/>
<polygon fill="black" stroke="black" points="294.13,-337.55 301.35,-342.54 298.07,-338.28 302,-339 302,-339 302,-339 298.07,-338.28 302.65,-335.46 294.13,-337.55 294.13,-337.55"/>
<ellipse fill="none" stroke="black" cx="290.98" cy="-336.97" rx="3.2" ry="3.2"/>
</g>
<!-- m_product_category -->
<g id="node4" class="node">
<title>m_product_category</title>
<g id="a_node4"><a xlink:href="../../tables/m_product_category.html" xlink:title="m_product_category" target="_top">
<polygon fill="#ffffff" stroke="transparent" points="8,-415 8,-627 252,-627 252,-415 8,-415"/>
<polygon fill="#f5f5f5" stroke="transparent" points="8,-605 8,-627 252,-627 252,-605 8,-605"/>
<polygon fill="none" stroke="black" points="8,-605 8,-627 252,-627 252,-605 8,-605"/>
<text text-anchor="start" x="13" y="-614.2" font-family="Helvetica,sans-Serif" font-weight="bold" font-size="11.00">m_product_category</text>
<text text-anchor="start" x="217" y="-613.2" font-family="Helvetica,sans-Serif" font-size="11.00">[table]</text>
<polygon fill="none" stroke="black" points="8,-583 8,-605 252,-605 252,-583 8,-583"/>
<image xlink:href="../../images/primaryKeys.png" width="11px" height="12px" preserveAspectRatio="xMinYMin meet" x="13" y="-600"/>
<text text-anchor="start" x="28" y="-591.2" font-family="Helvetica,sans-Serif" font-size="11.00">m_product_category_id</text>
<polygon fill="#ffffff" stroke="transparent" points="8,-561 8,-583 252,-583 252,-561 8,-561"/>
<polygon fill="none" stroke="black" points="8,-561 8,-583 252,-583 252,-561 8,-561"/>
<text text-anchor="start" x="28" y="-569.2" font-family="Helvetica,sans-Serif" font-size="11.00">ad_client_id</text>
<polygon fill="#ffffff" stroke="transparent" points="8,-539 8,-561 252,-561 252,-539 8,-539"/>
<polygon fill="none" stroke="black" points="8,-539 8,-561 252,-561 252,-539 8,-539"/>
<text text-anchor="start" x="28" y="-547.2" font-family="Helvetica,sans-Serif" font-size="11.00">value</text>
<polygon fill="none" stroke="black" points="8,-517 8,-539 252,-539 252,-517 8,-517"/>
<image xlink:href="../../images/foreignKeys.png" width="11px" height="12px" preserveAspectRatio="xMinYMin meet" x="13" y="-534"/>
<text text-anchor="start" x="28" y="-525.2" font-family="Helvetica,sans-Serif" font-size="11.00">a_asset_group_id</text>
<polygon fill="none" stroke="black" points="8,-495 8,-517 252,-517 252,-495 8,-495"/>
<image xlink:href="../../images/foreignKeys.png" width="11px" height="12px" preserveAspectRatio="xMinYMin meet" x="13" y="-512"/>
<text text-anchor="start" x="28" y="-503.2" font-family="Helvetica,sans-Serif" font-size="11.00">ad_printcolor_id</text>
<polygon fill="none" stroke="black" points="8,-473 8,-495 252,-495 252,-473 8,-473"/>
<image xlink:href="../../images/foreignKeys.png" width="11px" height="12px" preserveAspectRatio="xMinYMin meet" x="13" y="-490"/>
<text text-anchor="start" x="28" y="-481.2" font-family="Helvetica,sans-Serif" font-size="11.00">m_product_category_parent_id</text>
<polygon fill="#ffffff" stroke="transparent" points="8,-451 8,-473 252,-473 252,-451 8,-451"/>
<polygon fill="none" stroke="black" points="8,-451 8,-473 252,-473 252,-451 8,-451"/>
<text text-anchor="start" x="28" y="-459.2" font-family="Helvetica,sans-Serif" font-size="11.00">m_product_category_uu</text>
<polygon fill="none" stroke="black" points="8,-433 8,-451 252,-451 252,-433 8,-433"/>
<text text-anchor="start" x="11" y="-439.2" font-family="Helvetica,sans-Serif" font-size="11.00">...</text>
<polygon fill="#ffffff" stroke="transparent" points="8,-415 8,-433 252,-433 252,-415 8,-415"/>
<polygon fill="none" stroke="black" points="8,-415 8,-433 252,-433 252,-415 8,-415"/>
<polygon fill="#ffffff" stroke="transparent" points="9,-416 9,-432 82,-432 82,-416 9,-416"/>
<text text-anchor="start" x="11" y="-421.2" font-family="Helvetica,sans-Serif" font-size="11.00">&lt; 3</text>
<polygon fill="#ffffff" stroke="transparent" points="82,-416 82,-432 172,-432 172,-416 82,-416"/>
<text text-anchor="start" x="110.5" y="-421.2" font-family="Helvetica,sans-Serif" font-size="11.00">5 rows</text>
<polygon fill="#ffffff" stroke="transparent" points="172,-416 172,-432 251,-432 251,-416 172,-416"/>
<text text-anchor="start" x="227" y="-421.2" font-family="Helvetica,sans-Serif" font-size="11.00">26 &gt;</text>
<polygon fill="black" stroke="black" points="82,-416 82,-432 82,-432 82,-416 82,-416"/>
<polygon fill="black" stroke="black" points="172,-416 172,-432 172,-432 172,-416 172,-416"/>
</a>
</g>
</g>
<!-- s_training&#45;&gt;m_product_category -->
<g id="edge3" class="edge">
<title>s_training:w&#45;&gt;m_product_category:e</title>
<path fill="none" stroke="black" d="M287.45,-385.09C221.73,-407 343.63,-594 253,-594"/>
<polygon fill="black" stroke="black" points="294.08,-384.14 302.51,-386.56 298.04,-383.57 302,-383 302,-383 302,-383 298.04,-383.57 301.49,-379.44 294.08,-384.14 294.08,-384.14"/>
<ellipse fill="none" stroke="black" cx="290.91" cy="-384.59" rx="3.2" ry="3.2"/>
</g>
<!-- s_training_class -->
<g id="node5" class="node">
<title>s_training_class</title>
<g id="a_node5"><a xlink:href="../../tables/s_training_class.html" xlink:title="s_training_class" target="_top">
<polygon fill="#ffffff" stroke="transparent" points="626,-600 626,-746 787,-746 787,-600 626,-600"/>
<polygon fill="#f5f5f5" stroke="transparent" points="626.5,-724 626.5,-746 787.5,-746 787.5,-724 626.5,-724"/>
<polygon fill="none" stroke="black" points="626.5,-724 626.5,-746 787.5,-746 787.5,-724 626.5,-724"/>
<text text-anchor="start" x="631.5" y="-733.2" font-family="Helvetica,sans-Serif" font-weight="bold" font-size="11.00">s_training_class</text>
<text text-anchor="start" x="752.5" y="-732.2" font-family="Helvetica,sans-Serif" font-size="11.00">[table]</text>
<polygon fill="none" stroke="black" points="626.5,-702 626.5,-724 787.5,-724 787.5,-702 626.5,-702"/>
<image xlink:href="../../images/primaryKeys.png" width="11px" height="12px" preserveAspectRatio="xMinYMin meet" x="631.5" y="-719"/>
<text text-anchor="start" x="646.5" y="-710.2" font-family="Helvetica,sans-Serif" font-size="11.00">s_training_class_id</text>
<polygon fill="none" stroke="black" points="626.5,-680 626.5,-702 787.5,-702 787.5,-680 626.5,-680"/>
<image xlink:href="../../images/foreignKeys.png" width="11px" height="12px" preserveAspectRatio="xMinYMin meet" x="631.5" y="-697"/>
<text text-anchor="start" x="646.5" y="-688.2" font-family="Helvetica,sans-Serif" font-size="11.00">s_training_id</text>
<polygon fill="none" stroke="black" points="626.5,-658 626.5,-680 787.5,-680 787.5,-658 626.5,-658"/>
<image xlink:href="../../images/foreignKeys.png" width="11px" height="12px" preserveAspectRatio="xMinYMin meet" x="631.5" y="-675"/>
<text text-anchor="start" x="646.5" y="-666.2" font-family="Helvetica,sans-Serif" font-size="11.00">m_product_id</text>
<polygon fill="#ffffff" stroke="transparent" points="626.5,-636 626.5,-658 787.5,-658 787.5,-636 626.5,-636"/>
<polygon fill="none" stroke="black" points="626.5,-636 626.5,-658 787.5,-658 787.5,-636 626.5,-636"/>
<text text-anchor="start" x="646.5" y="-644.2" font-family="Helvetica,sans-Serif" font-size="11.00">s_training_class_uu</text>
<polygon fill="none" stroke="black" points="626.5,-618 626.5,-636 787.5,-636 787.5,-618 626.5,-618"/>
<text text-anchor="start" x="629.5" y="-624.2" font-family="Helvetica,sans-Serif" font-size="11.00">...</text>
<polygon fill="#ffffff" stroke="transparent" points="626.5,-600 626.5,-618 787.5,-618 787.5,-600 626.5,-600"/>
<polygon fill="none" stroke="black" points="626.5,-600 626.5,-618 787.5,-618 787.5,-600 626.5,-600"/>
<polygon fill="#ffffff" stroke="transparent" points="627.5,-601 627.5,-617 686.5,-617 686.5,-601 627.5,-601"/>
<text text-anchor="start" x="629.5" y="-606.2" font-family="Helvetica,sans-Serif" font-size="11.00">&lt; 2</text>
<polygon fill="#ffffff" stroke="transparent" points="686.5,-601 686.5,-617 736.5,-617 736.5,-601 686.5,-601"/>
<text text-anchor="start" x="708" y="-606.2" font-family="Helvetica,sans-Serif" font-size="11.00"> &#160;</text>
<polygon fill="#ffffff" stroke="transparent" points="736.5,-601 736.5,-617 786.5,-617 786.5,-601 736.5,-601"/>
<text text-anchor="start" x="777.5" y="-606.2" font-family="Helvetica,sans-Serif" font-size="11.00"> &#160;</text>
<polygon fill="black" stroke="black" points="686.5,-601 686.5,-617 686.5,-617 686.5,-601 686.5,-601"/>
<polygon fill="black" stroke="black" points="736.5,-601 736.5,-617 736.5,-617 736.5,-601 736.5,-601"/>
</a>
</g>
</g>
<!-- s_training_class&#45;&gt;s_training -->
<g id="edge4" class="edge">
<title>s_training_class:w&#45;&gt;s_training:e</title>
<path fill="none" stroke="black" d="M610.84,-691C599.41,-691 592.16,-691 576,-691"/>
<polygon fill="black" stroke="black" points="617.5,-691 625.5,-694.6 621.5,-691 625.5,-691 625.5,-691 625.5,-691 621.5,-691 625.5,-687.4 617.5,-691 617.5,-691"/>
<ellipse fill="none" stroke="black" cx="614.3" cy="-691" rx="3.2" ry="3.2"/>
</g>
</g>
</svg>
