<?xml version="1.0" encoding="UTF-8" standalone="no"?>
<!DOCTYPE svg PUBLIC "-//W3C//DTD SVG 1.1//EN"
 "http://www.w3.org/Graphics/SVG/1.1/DTD/svg11.dtd">
<!-- Generated by graphviz version 2.43.0 (0)
 -->
<!-- Title: oneDegreeRelationshipsDiagram Pages: 1 -->
<svg width="258pt" height="797pt"
 viewBox="0.00 0.00 258.00 797.00" xmlns="http://www.w3.org/2000/svg" xmlns:xlink="http://www.w3.org/1999/xlink">
<g id="graph0" class="graph" transform="scale(1 1) rotate(0) translate(4 793)">
<title>oneDegreeRelationshipsDiagram</title>
<polygon fill="#ffffff" stroke="transparent" points="-4,4 -4,-793 254,-793 254,4 -4,4"/>
<text text-anchor="middle" x="71.5" y="-7.2" font-family="Helvetica,sans-Serif" font-size="11.00">Generated by SchemaSpy</text>
<!-- t_1099extract -->
<g id="node1" class="node">
<title>t_1099extract</title>
<g id="a_node1"><a xlink:href="../../tables/t_1099extract.html" xlink:title="t_1099extract" target="_top">
<polygon fill="#ffffff" stroke="transparent" points="8,-37 8,-785 242,-785 242,-37 8,-37"/>
<polygon fill="#f5f5f5" stroke="transparent" points="10,-761 10,-783 240,-783 240,-761 10,-761"/>
<polygon fill="none" stroke="black" points="10,-761 10,-783 240,-783 240,-761 10,-761"/>
<text text-anchor="start" x="15" y="-770.2" font-family="Helvetica,sans-Serif" font-weight="bold" font-size="11.00">t_1099extract</text>
<text text-anchor="start" x="205" y="-769.2" font-family="Helvetica,sans-Serif" font-size="11.00">[table]</text>
<polygon fill="none" stroke="black" points="10,-739 10,-761 157,-761 157,-739 10,-739"/>
<text text-anchor="start" x="30" y="-747.2" font-family="Helvetica,sans-Serif" font-size="11.00">ad_client_id</text>
<polygon fill="none" stroke="black" points="157,-739 157,-761 240,-761 240,-739 157,-739"/>
<text text-anchor="start" x="160" y="-747.2" font-family="Helvetica,sans-Serif" font-size="11.00">numeric[10]</text>
<polygon fill="none" stroke="black" points="10,-717 10,-739 157,-739 157,-717 10,-717"/>
<text text-anchor="start" x="30" y="-725.2" font-family="Helvetica,sans-Serif" font-size="11.00">ad_org_id</text>
<polygon fill="none" stroke="black" points="157,-717 157,-739 240,-739 240,-717 157,-717"/>
<text text-anchor="start" x="160" y="-725.2" font-family="Helvetica,sans-Serif" font-size="11.00">numeric[10]</text>
<polygon fill="none" stroke="black" points="10,-695 10,-717 157,-717 157,-695 10,-695"/>
<text text-anchor="start" x="30" y="-703.2" font-family="Helvetica,sans-Serif" font-size="11.00">ad_pinstance_id</text>
<polygon fill="none" stroke="black" points="157,-695 157,-717 240,-717 240,-695 157,-695"/>
<text text-anchor="start" x="160" y="-703.2" font-family="Helvetica,sans-Serif" font-size="11.00">numeric[10]</text>
<polygon fill="none" stroke="black" points="10,-673 10,-695 157,-695 157,-673 10,-673"/>
<text text-anchor="start" x="30" y="-681.2" font-family="Helvetica,sans-Serif" font-size="11.00">amtbucket01</text>
<polygon fill="none" stroke="black" points="157,-673 157,-695 240,-695 240,-673 157,-673"/>
<text text-anchor="start" x="160" y="-681.2" font-family="Helvetica,sans-Serif" font-size="11.00">numeric[0]</text>
<polygon fill="none" stroke="black" points="10,-651 10,-673 157,-673 157,-651 10,-651"/>
<text text-anchor="start" x="30" y="-659.2" font-family="Helvetica,sans-Serif" font-size="11.00">amtbucket02</text>
<polygon fill="none" stroke="black" points="157,-651 157,-673 240,-673 240,-651 157,-651"/>
<text text-anchor="start" x="160" y="-659.2" font-family="Helvetica,sans-Serif" font-size="11.00">numeric[0]</text>
<polygon fill="none" stroke="black" points="10,-629 10,-651 157,-651 157,-629 10,-629"/>
<text text-anchor="start" x="30" y="-637.2" font-family="Helvetica,sans-Serif" font-size="11.00">amtbucket03</text>
<polygon fill="none" stroke="black" points="157,-629 157,-651 240,-651 240,-629 157,-629"/>
<text text-anchor="start" x="160" y="-637.2" font-family="Helvetica,sans-Serif" font-size="11.00">numeric[0]</text>
<polygon fill="none" stroke="black" points="10,-607 10,-629 157,-629 157,-607 10,-607"/>
<text text-anchor="start" x="30" y="-615.2" font-family="Helvetica,sans-Serif" font-size="11.00">amtbucket04</text>
<polygon fill="none" stroke="black" points="157,-607 157,-629 240,-629 240,-607 157,-607"/>
<text text-anchor="start" x="160" y="-615.2" font-family="Helvetica,sans-Serif" font-size="11.00">numeric[0]</text>
<polygon fill="none" stroke="black" points="10,-585 10,-607 157,-607 157,-585 10,-585"/>
<text text-anchor="start" x="30" y="-593.2" font-family="Helvetica,sans-Serif" font-size="11.00">amtbucket05</text>
<polygon fill="none" stroke="black" points="157,-585 157,-607 240,-607 240,-585 157,-585"/>
<text text-anchor="start" x="160" y="-593.2" font-family="Helvetica,sans-Serif" font-size="11.00">numeric[0]</text>
<polygon fill="none" stroke="black" points="10,-563 10,-585 157,-585 157,-563 10,-563"/>
<text text-anchor="start" x="30" y="-571.2" font-family="Helvetica,sans-Serif" font-size="11.00">amtbucket06</text>
<polygon fill="none" stroke="black" points="157,-563 157,-585 240,-585 240,-563 157,-563"/>
<text text-anchor="start" x="160" y="-571.2" font-family="Helvetica,sans-Serif" font-size="11.00">numeric[0]</text>
<polygon fill="none" stroke="black" points="10,-541 10,-563 157,-563 157,-541 10,-541"/>
<text text-anchor="start" x="30" y="-549.2" font-family="Helvetica,sans-Serif" font-size="11.00">amtbucket07</text>
<polygon fill="none" stroke="black" points="157,-541 157,-563 240,-563 240,-541 157,-541"/>
<text text-anchor="start" x="160" y="-549.2" font-family="Helvetica,sans-Serif" font-size="11.00">numeric[0]</text>
<polygon fill="none" stroke="black" points="10,-519 10,-541 157,-541 157,-519 10,-519"/>
<text text-anchor="start" x="30" y="-527.2" font-family="Helvetica,sans-Serif" font-size="11.00">amtbucket08</text>
<polygon fill="none" stroke="black" points="157,-519 157,-541 240,-541 240,-519 157,-519"/>
<text text-anchor="start" x="160" y="-527.2" font-family="Helvetica,sans-Serif" font-size="11.00">numeric[0]</text>
<polygon fill="none" stroke="black" points="10,-497 10,-519 157,-519 157,-497 10,-497"/>
<text text-anchor="start" x="30" y="-505.2" font-family="Helvetica,sans-Serif" font-size="11.00">amtbucket09</text>
<polygon fill="none" stroke="black" points="157,-497 157,-519 240,-519 240,-497 157,-497"/>
<text text-anchor="start" x="160" y="-505.2" font-family="Helvetica,sans-Serif" font-size="11.00">numeric[0]</text>
<polygon fill="none" stroke="black" points="10,-475 10,-497 157,-497 157,-475 10,-475"/>
<text text-anchor="start" x="30" y="-483.2" font-family="Helvetica,sans-Serif" font-size="11.00">amtbucket10</text>
<polygon fill="none" stroke="black" points="157,-475 157,-497 240,-497 240,-475 157,-475"/>
<text text-anchor="start" x="160" y="-483.2" font-family="Helvetica,sans-Serif" font-size="11.00">numeric[0]</text>
<polygon fill="none" stroke="black" points="10,-453 10,-475 157,-475 157,-453 10,-453"/>
<text text-anchor="start" x="30" y="-461.2" font-family="Helvetica,sans-Serif" font-size="11.00">amtbucket11</text>
<polygon fill="none" stroke="black" points="157,-453 157,-475 240,-475 240,-453 157,-453"/>
<text text-anchor="start" x="160" y="-461.2" font-family="Helvetica,sans-Serif" font-size="11.00">numeric[0]</text>
<polygon fill="none" stroke="black" points="10,-431 10,-453 157,-453 157,-431 10,-431"/>
<text text-anchor="start" x="30" y="-439.2" font-family="Helvetica,sans-Serif" font-size="11.00">amtbucket12</text>
<polygon fill="none" stroke="black" points="157,-431 157,-453 240,-453 240,-431 157,-431"/>
<text text-anchor="start" x="160" y="-439.2" font-family="Helvetica,sans-Serif" font-size="11.00">numeric[0]</text>
<polygon fill="none" stroke="black" points="10,-409 10,-431 157,-431 157,-409 10,-409"/>
<text text-anchor="start" x="30" y="-417.2" font-family="Helvetica,sans-Serif" font-size="11.00">amtbucket13</text>
<polygon fill="none" stroke="black" points="157,-409 157,-431 240,-431 240,-409 157,-409"/>
<text text-anchor="start" x="160" y="-417.2" font-family="Helvetica,sans-Serif" font-size="11.00">numeric[0]</text>
<polygon fill="none" stroke="black" points="10,-387 10,-409 157,-409 157,-387 10,-387"/>
<text text-anchor="start" x="30" y="-395.2" font-family="Helvetica,sans-Serif" font-size="11.00">amtbucket14</text>
<polygon fill="none" stroke="black" points="157,-387 157,-409 240,-409 240,-387 157,-387"/>
<text text-anchor="start" x="160" y="-395.2" font-family="Helvetica,sans-Serif" font-size="11.00">numeric[0]</text>
<polygon fill="none" stroke="black" points="10,-365 10,-387 157,-387 157,-365 10,-365"/>
<text text-anchor="start" x="30" y="-373.2" font-family="Helvetica,sans-Serif" font-size="11.00">amtbucket15</text>
<polygon fill="none" stroke="black" points="157,-365 157,-387 240,-387 240,-365 157,-365"/>
<text text-anchor="start" x="160" y="-373.2" font-family="Helvetica,sans-Serif" font-size="11.00">numeric[0]</text>
<polygon fill="none" stroke="black" points="10,-343 10,-365 157,-365 157,-343 10,-343"/>
<text text-anchor="start" x="30" y="-351.2" font-family="Helvetica,sans-Serif" font-size="11.00">amtbucket16</text>
<polygon fill="none" stroke="black" points="157,-343 157,-365 240,-365 240,-343 157,-343"/>
<text text-anchor="start" x="160" y="-351.2" font-family="Helvetica,sans-Serif" font-size="11.00">numeric[0]</text>
<polygon fill="none" stroke="black" points="10,-321 10,-343 157,-343 157,-321 10,-321"/>
<text text-anchor="start" x="30" y="-329.2" font-family="Helvetica,sans-Serif" font-size="11.00">c_bpartner_id</text>
<polygon fill="none" stroke="black" points="157,-321 157,-343 240,-343 240,-321 157,-321"/>
<text text-anchor="start" x="160" y="-329.2" font-family="Helvetica,sans-Serif" font-size="11.00">numeric[10]</text>
<polygon fill="none" stroke="black" points="10,-299 10,-321 157,-321 157,-299 10,-299"/>
<text text-anchor="start" x="30" y="-307.2" font-family="Helvetica,sans-Serif" font-size="11.00">c_location_id</text>
<polygon fill="none" stroke="black" points="157,-299 157,-321 240,-321 240,-299 157,-299"/>
<text text-anchor="start" x="160" y="-307.2" font-family="Helvetica,sans-Serif" font-size="11.00">numeric[10]</text>
<polygon fill="none" stroke="black" points="10,-277 10,-299 157,-299 157,-277 10,-277"/>
<text text-anchor="start" x="30" y="-285.2" font-family="Helvetica,sans-Serif" font-size="11.00">created</text>
<polygon fill="none" stroke="black" points="157,-277 157,-299 240,-299 240,-277 157,-277"/>
<text text-anchor="start" x="160" y="-285.2" font-family="Helvetica,sans-Serif" font-size="11.00">timestamp[29,6]</text>
<polygon fill="none" stroke="black" points="10,-255 10,-277 157,-277 157,-255 10,-255"/>
<text text-anchor="start" x="30" y="-263.2" font-family="Helvetica,sans-Serif" font-size="11.00">createdby</text>
<polygon fill="none" stroke="black" points="157,-255 157,-277 240,-277 240,-255 157,-255"/>
<text text-anchor="start" x="160" y="-263.2" font-family="Helvetica,sans-Serif" font-size="11.00">numeric[10]</text>
<polygon fill="none" stroke="black" points="10,-233 10,-255 157,-255 157,-233 10,-233"/>
<text text-anchor="start" x="30" y="-241.2" font-family="Helvetica,sans-Serif" font-size="11.00">cut_date</text>
<polygon fill="none" stroke="black" points="157,-233 157,-255 240,-255 240,-233 157,-233"/>
<text text-anchor="start" x="160" y="-241.2" font-family="Helvetica,sans-Serif" font-size="11.00">timestamp[29,6]</text>
<polygon fill="none" stroke="black" points="10,-211 10,-233 157,-233 157,-211 10,-211"/>
<text text-anchor="start" x="30" y="-219.2" font-family="Helvetica,sans-Serif" font-size="11.00">cut_year</text>
<polygon fill="none" stroke="black" points="157,-211 157,-233 240,-233 240,-211 157,-211"/>
<text text-anchor="start" x="160" y="-219.2" font-family="Helvetica,sans-Serif" font-size="11.00">numeric[10]</text>
<polygon fill="none" stroke="black" points="10,-189 10,-211 157,-211 157,-189 10,-189"/>
<text text-anchor="start" x="30" y="-197.2" font-family="Helvetica,sans-Serif" font-size="11.00">isactive</text>
<polygon fill="none" stroke="black" points="157,-189 157,-211 240,-211 240,-189 157,-189"/>
<text text-anchor="start" x="160" y="-197.2" font-family="Helvetica,sans-Serif" font-size="11.00">bpchar[1]</text>
<polygon fill="none" stroke="black" points="10,-167 10,-189 157,-189 157,-167 10,-167"/>
<text text-anchor="start" x="30" y="-175.2" font-family="Helvetica,sans-Serif" font-size="11.00">name</text>
<polygon fill="none" stroke="black" points="157,-167 157,-189 240,-189 240,-167 157,-167"/>
<text text-anchor="start" x="160" y="-175.2" font-family="Helvetica,sans-Serif" font-size="11.00">varchar[120]</text>
<polygon fill="#ffffff" stroke="transparent" points="10,-145 10,-167 157,-167 157,-145 10,-145"/>
<polygon fill="none" stroke="black" points="10,-145 10,-167 157,-167 157,-145 10,-145"/>
<text text-anchor="start" x="30" y="-153.2" font-family="Helvetica,sans-Serif" font-size="11.00">t_1099extract_uu</text>
<polygon fill="none" stroke="black" points="157,-145 157,-167 240,-167 240,-145 157,-145"/>
<text text-anchor="start" x="160" y="-153.2" font-family="Helvetica,sans-Serif" font-size="11.00">varchar[36]</text>
<polygon fill="none" stroke="black" points="10,-123 10,-145 157,-145 157,-123 10,-123"/>
<text text-anchor="start" x="30" y="-131.2" font-family="Helvetica,sans-Serif" font-size="11.00">taxid</text>
<polygon fill="none" stroke="black" points="157,-123 157,-145 240,-145 240,-123 157,-123"/>
<text text-anchor="start" x="160" y="-131.2" font-family="Helvetica,sans-Serif" font-size="11.00">varchar[20]</text>
<polygon fill="none" stroke="black" points="10,-101 10,-123 157,-123 157,-101 10,-101"/>
<text text-anchor="start" x="30" y="-109.2" font-family="Helvetica,sans-Serif" font-size="11.00">updated</text>
<polygon fill="none" stroke="black" points="157,-101 157,-123 240,-123 240,-101 157,-101"/>
<text text-anchor="start" x="160" y="-109.2" font-family="Helvetica,sans-Serif" font-size="11.00">timestamp[29,6]</text>
<polygon fill="none" stroke="black" points="10,-79 10,-101 157,-101 157,-79 10,-79"/>
<text text-anchor="start" x="30" y="-87.2" font-family="Helvetica,sans-Serif" font-size="11.00">updatedby</text>
<polygon fill="none" stroke="black" points="157,-79 157,-101 240,-101 240,-79 157,-79"/>
<text text-anchor="start" x="160" y="-87.2" font-family="Helvetica,sans-Serif" font-size="11.00">numeric[10]</text>
<polygon fill="none" stroke="black" points="10,-57 10,-79 157,-79 157,-57 10,-57"/>
<text text-anchor="start" x="30" y="-65.2" font-family="Helvetica,sans-Serif" font-size="11.00">value</text>
<polygon fill="none" stroke="black" points="157,-57 157,-79 240,-79 240,-57 157,-57"/>
<text text-anchor="start" x="160" y="-65.2" font-family="Helvetica,sans-Serif" font-size="11.00">varchar[40]</text>
<polygon fill="#ffffff" stroke="transparent" points="10,-39 10,-57 240,-57 240,-39 10,-39"/>
<polygon fill="none" stroke="black" points="10,-39 10,-57 240,-57 240,-39 10,-39"/>
<polygon fill="#ffffff" stroke="transparent" points="11,-40 11,-56 90,-56 90,-40 11,-40"/>
<text text-anchor="start" x="13" y="-45.2" font-family="Helvetica,sans-Serif" font-size="11.00">&lt; 0</text>
<polygon fill="#ffffff" stroke="transparent" points="90,-40 90,-56 160,-56 160,-40 90,-40"/>
<text text-anchor="start" x="121.5" y="-45.2" font-family="Helvetica,sans-Serif" font-size="11.00"> &#160;</text>
<polygon fill="#ffffff" stroke="transparent" points="160,-40 160,-56 239,-56 239,-40 160,-40"/>
<text text-anchor="start" x="221" y="-45.2" font-family="Helvetica,sans-Serif" font-size="11.00">0 &gt;</text>
<polygon fill="black" stroke="black" points="90,-40 90,-56 90,-56 90,-40 90,-40"/>
<polygon fill="black" stroke="black" points="160,-40 160,-56 160,-56 160,-40 160,-40"/>
<polygon fill="none" stroke="black" stroke-width="2" points="9,-38 9,-784 241,-784 241,-38 9,-38"/>
</a>
</g>
</g>
</g>
</svg>
