<?xml version="1.0" encoding="UTF-8" standalone="no"?>
<!DOCTYPE svg PUBLIC "-//W3C//DTD SVG 1.1//EN"
 "http://www.w3.org/Graphics/SVG/1.1/DTD/svg11.dtd">
<!-- Generated by graphviz version 2.43.0 (0)
 -->
<!-- Title: oneDegreeRelationshipsDiagram Pages: 1 -->
<svg width="263pt" height="401pt"
 viewBox="0.00 0.00 263.00 401.00" xmlns="http://www.w3.org/2000/svg" xmlns:xlink="http://www.w3.org/1999/xlink">
<g id="graph0" class="graph" transform="scale(1 1) rotate(0) translate(4 397)">
<title>oneDegreeRelationshipsDiagram</title>
<polygon fill="#ffffff" stroke="transparent" points="-4,4 -4,-397 259,-397 259,4 -4,4"/>
<text text-anchor="middle" x="71.5" y="-7.2" font-family="Helvetica,sans-Serif" font-size="11.00">Generated by SchemaSpy</text>
<!-- t_bankregister -->
<g id="node1" class="node">
<title>t_bankregister</title>
<g id="a_node1"><a xlink:href="../../tables/t_bankregister.html" xlink:title="t_bankregister" target="_top">
<polygon fill="#ffffff" stroke="transparent" points="8,-37 8,-389 247,-389 247,-37 8,-37"/>
<polygon fill="#f5f5f5" stroke="transparent" points="10.5,-365 10.5,-387 245.5,-387 245.5,-365 10.5,-365"/>
<polygon fill="none" stroke="black" points="10.5,-365 10.5,-387 245.5,-387 245.5,-365 10.5,-365"/>
<text text-anchor="start" x="15.5" y="-374.2" font-family="Helvetica,sans-Serif" font-weight="bold" font-size="11.00">t_bankregister</text>
<text text-anchor="start" x="210.5" y="-373.2" font-family="Helvetica,sans-Serif" font-size="11.00">[table]</text>
<polygon fill="none" stroke="black" points="10.5,-343 10.5,-365 162.5,-365 162.5,-343 10.5,-343"/>
<text text-anchor="start" x="30.5" y="-351.2" font-family="Helvetica,sans-Serif" font-size="11.00">account</text>
<polygon fill="none" stroke="black" points="162.5,-343 162.5,-365 245.5,-365 245.5,-343 162.5,-343"/>
<text text-anchor="start" x="165.5" y="-351.2" font-family="Helvetica,sans-Serif" font-size="11.00">varchar[255]</text>
<polygon fill="none" stroke="black" points="10.5,-321 10.5,-343 162.5,-343 162.5,-321 10.5,-321"/>
<text text-anchor="start" x="30.5" y="-329.2" font-family="Helvetica,sans-Serif" font-size="11.00">ad_client_id</text>
<polygon fill="none" stroke="black" points="162.5,-321 162.5,-343 245.5,-343 245.5,-321 162.5,-321"/>
<text text-anchor="start" x="165.5" y="-329.2" font-family="Helvetica,sans-Serif" font-size="11.00">numeric[10]</text>
<polygon fill="none" stroke="black" points="10.5,-299 10.5,-321 162.5,-321 162.5,-299 10.5,-299"/>
<text text-anchor="start" x="30.5" y="-307.2" font-family="Helvetica,sans-Serif" font-size="11.00">ad_org_id</text>
<polygon fill="none" stroke="black" points="162.5,-299 162.5,-321 245.5,-321 245.5,-299 162.5,-299"/>
<text text-anchor="start" x="165.5" y="-307.2" font-family="Helvetica,sans-Serif" font-size="11.00">numeric[10]</text>
<polygon fill="none" stroke="black" points="10.5,-277 10.5,-299 162.5,-299 162.5,-277 10.5,-277"/>
<text text-anchor="start" x="30.5" y="-285.2" font-family="Helvetica,sans-Serif" font-size="11.00">ad_pinstance_id</text>
<polygon fill="none" stroke="black" points="162.5,-277 162.5,-299 245.5,-299 245.5,-277 162.5,-277"/>
<text text-anchor="start" x="165.5" y="-285.2" font-family="Helvetica,sans-Serif" font-size="11.00">numeric[10]</text>
<polygon fill="none" stroke="black" points="10.5,-255 10.5,-277 162.5,-277 162.5,-255 10.5,-255"/>
<text text-anchor="start" x="30.5" y="-263.2" font-family="Helvetica,sans-Serif" font-size="11.00">amtacctcr</text>
<polygon fill="none" stroke="black" points="162.5,-255 162.5,-277 245.5,-277 245.5,-255 162.5,-255"/>
<text text-anchor="start" x="165.5" y="-263.2" font-family="Helvetica,sans-Serif" font-size="11.00">numeric[0]</text>
<polygon fill="none" stroke="black" points="10.5,-233 10.5,-255 162.5,-255 162.5,-233 10.5,-233"/>
<text text-anchor="start" x="30.5" y="-241.2" font-family="Helvetica,sans-Serif" font-size="11.00">amtacctdr</text>
<polygon fill="none" stroke="black" points="162.5,-233 162.5,-255 245.5,-255 245.5,-233 162.5,-233"/>
<text text-anchor="start" x="165.5" y="-241.2" font-family="Helvetica,sans-Serif" font-size="11.00">numeric[0]</text>
<polygon fill="none" stroke="black" points="10.5,-211 10.5,-233 162.5,-233 162.5,-211 10.5,-211"/>
<text text-anchor="start" x="30.5" y="-219.2" font-family="Helvetica,sans-Serif" font-size="11.00">balance</text>
<polygon fill="none" stroke="black" points="162.5,-211 162.5,-233 245.5,-233 245.5,-211 162.5,-211"/>
<text text-anchor="start" x="165.5" y="-219.2" font-family="Helvetica,sans-Serif" font-size="11.00">numeric[0]</text>
<polygon fill="none" stroke="black" points="10.5,-189 10.5,-211 162.5,-211 162.5,-189 10.5,-189"/>
<text text-anchor="start" x="30.5" y="-197.2" font-family="Helvetica,sans-Serif" font-size="11.00">bankname</text>
<polygon fill="none" stroke="black" points="162.5,-189 162.5,-211 245.5,-211 245.5,-189 162.5,-189"/>
<text text-anchor="start" x="165.5" y="-197.2" font-family="Helvetica,sans-Serif" font-size="11.00">varchar[255]</text>
<polygon fill="none" stroke="black" points="10.5,-167 10.5,-189 162.5,-189 162.5,-167 10.5,-167"/>
<text text-anchor="start" x="30.5" y="-175.2" font-family="Helvetica,sans-Serif" font-size="11.00">bpartner</text>
<polygon fill="none" stroke="black" points="162.5,-167 162.5,-189 245.5,-189 245.5,-167 162.5,-167"/>
<text text-anchor="start" x="165.5" y="-175.2" font-family="Helvetica,sans-Serif" font-size="11.00">varchar[255]</text>
<polygon fill="none" stroke="black" points="10.5,-145 10.5,-167 162.5,-167 162.5,-145 10.5,-145"/>
<text text-anchor="start" x="30.5" y="-153.2" font-family="Helvetica,sans-Serif" font-size="11.00">c_bank_id</text>
<polygon fill="none" stroke="black" points="162.5,-145 162.5,-167 245.5,-167 245.5,-145 162.5,-145"/>
<text text-anchor="start" x="165.5" y="-153.2" font-family="Helvetica,sans-Serif" font-size="11.00">numeric[10]</text>
<polygon fill="none" stroke="black" points="10.5,-123 10.5,-145 162.5,-145 162.5,-123 10.5,-123"/>
<text text-anchor="start" x="30.5" y="-131.2" font-family="Helvetica,sans-Serif" font-size="11.00">c_bpartner_id</text>
<polygon fill="none" stroke="black" points="162.5,-123 162.5,-145 245.5,-145 245.5,-123 162.5,-123"/>
<text text-anchor="start" x="165.5" y="-131.2" font-family="Helvetica,sans-Serif" font-size="11.00">numeric[10]</text>
<polygon fill="none" stroke="black" points="10.5,-101 10.5,-123 162.5,-123 162.5,-101 10.5,-101"/>
<text text-anchor="start" x="30.5" y="-109.2" font-family="Helvetica,sans-Serif" font-size="11.00">dateacct</text>
<polygon fill="none" stroke="black" points="162.5,-101 162.5,-123 245.5,-123 245.5,-101 162.5,-101"/>
<text text-anchor="start" x="165.5" y="-109.2" font-family="Helvetica,sans-Serif" font-size="11.00">timestamp[29,6]</text>
<polygon fill="none" stroke="black" points="10.5,-79 10.5,-101 162.5,-101 162.5,-79 10.5,-79"/>
<text text-anchor="start" x="30.5" y="-87.2" font-family="Helvetica,sans-Serif" font-size="11.00">documentno</text>
<polygon fill="none" stroke="black" points="162.5,-79 162.5,-101 245.5,-101 245.5,-79 162.5,-79"/>
<text text-anchor="start" x="165.5" y="-87.2" font-family="Helvetica,sans-Serif" font-size="11.00">varchar[255]</text>
<polygon fill="#ffffff" stroke="transparent" points="10.5,-57 10.5,-79 162.5,-79 162.5,-57 10.5,-57"/>
<polygon fill="none" stroke="black" points="10.5,-57 10.5,-79 162.5,-79 162.5,-57 10.5,-57"/>
<text text-anchor="start" x="30.5" y="-65.2" font-family="Helvetica,sans-Serif" font-size="11.00">t_bankregister_uu</text>
<polygon fill="none" stroke="black" points="162.5,-57 162.5,-79 245.5,-79 245.5,-57 162.5,-57"/>
<text text-anchor="start" x="165.5" y="-65.2" font-family="Helvetica,sans-Serif" font-size="11.00">varchar[36]</text>
<polygon fill="#ffffff" stroke="transparent" points="10.5,-39 10.5,-57 245.5,-57 245.5,-39 10.5,-39"/>
<polygon fill="none" stroke="black" points="10.5,-39 10.5,-57 245.5,-57 245.5,-39 10.5,-39"/>
<polygon fill="#ffffff" stroke="transparent" points="11.5,-40 11.5,-56 83.5,-56 83.5,-40 11.5,-40"/>
<text text-anchor="start" x="13.5" y="-45.2" font-family="Helvetica,sans-Serif" font-size="11.00">&lt; 0</text>
<polygon fill="#ffffff" stroke="transparent" points="83.5,-40 83.5,-56 172.5,-56 172.5,-40 83.5,-40"/>
<text text-anchor="start" x="111.5" y="-45.2" font-family="Helvetica,sans-Serif" font-size="11.00">8 rows</text>
<polygon fill="#ffffff" stroke="transparent" points="172.5,-40 172.5,-56 244.5,-56 244.5,-40 172.5,-40"/>
<text text-anchor="start" x="226.5" y="-45.2" font-family="Helvetica,sans-Serif" font-size="11.00">0 &gt;</text>
<polygon fill="black" stroke="black" points="83.5,-40 83.5,-56 83.5,-56 83.5,-40 83.5,-40"/>
<polygon fill="black" stroke="black" points="172.5,-40 172.5,-56 172.5,-56 172.5,-40 172.5,-40"/>
<polygon fill="none" stroke="black" stroke-width="2" points="9,-38 9,-388 246,-388 246,-38 9,-38"/>
</a>
</g>
</g>
</g>
</svg>
