<?xml version="1.0" encoding="UTF-8" standalone="no"?>
<!DOCTYPE svg PUBLIC "-//W3C//DTD SVG 1.1//EN"
 "http://www.w3.org/Graphics/SVG/1.1/DTD/svg11.dtd">
<!-- Generated by graphviz version 2.43.0 (0)
 -->
<!-- Title: oneDegreeRelationshipsDiagram Pages: 1 -->
<svg width="455pt" height="373pt"
 viewBox="0.00 0.00 455.00 373.00" xmlns="http://www.w3.org/2000/svg" xmlns:xlink="http://www.w3.org/1999/xlink">
<g id="graph0" class="graph" transform="scale(1 1) rotate(0) translate(4 369)">
<title>oneDegreeRelationshipsDiagram</title>
<polygon fill="#ffffff" stroke="transparent" points="-4,4 -4,-369 451,-369 451,4 -4,4"/>
<text text-anchor="middle" x="71.5" y="-7.2" font-family="Helvetica,sans-Serif" font-size="11.00">Generated by SchemaSpy</text>
<!-- t_cof_entregas -->
<g id="node1" class="node">
<title>t_cof_entregas</title>
<g id="a_node1"><a xlink:href="../../tables/t_cof_entregas.html" xlink:title="t_cof_entregas" target="_top">
<polygon fill="#ffffff" stroke="transparent" points="208,-273 208,-361 439,-361 439,-273 208,-273"/>
<polygon fill="#f5f5f5" stroke="transparent" points="210.5,-337 210.5,-359 437.5,-359 437.5,-337 210.5,-337"/>
<polygon fill="none" stroke="black" points="210.5,-337 210.5,-359 437.5,-359 437.5,-337 210.5,-337"/>
<text text-anchor="start" x="215.5" y="-346.2" font-family="Helvetica,sans-Serif" font-weight="bold" font-size="11.00">t_cof_entregas</text>
<text text-anchor="start" x="402.5" y="-345.2" font-family="Helvetica,sans-Serif" font-size="11.00">[table]</text>
<polygon fill="none" stroke="black" points="210.5,-315 210.5,-337 347.5,-337 347.5,-315 210.5,-315"/>
<image xlink:href="../../images/foreignKeys.png" width="11px" height="12px" preserveAspectRatio="xMinYMin meet" x="215.5" y="-332"/>
<text text-anchor="start" x="230.5" y="-323.2" font-family="Helvetica,sans-Serif" font-size="11.00">ad_pinstance_id</text>
<polygon fill="none" stroke="black" points="347.5,-315 347.5,-337 437.5,-337 437.5,-315 347.5,-315"/>
<text text-anchor="start" x="350.5" y="-323.2" font-family="Helvetica,sans-Serif" font-size="11.00">numeric[10]</text>
<polygon fill="none" stroke="black" points="210.5,-293 210.5,-315 347.5,-315 347.5,-293 210.5,-293"/>
<text text-anchor="start" x="230.5" y="-301.2" font-family="Helvetica,sans-Serif" font-size="11.00">jsondata</text>
<polygon fill="none" stroke="black" points="347.5,-293 347.5,-315 437.5,-315 437.5,-293 347.5,-293"/>
<text text-anchor="start" x="350.5" y="-301.2" font-family="Helvetica,sans-Serif" font-size="11.00">text[2147483647]</text>
<polygon fill="#ffffff" stroke="transparent" points="210.5,-275 210.5,-293 437.5,-293 437.5,-275 210.5,-275"/>
<polygon fill="none" stroke="black" points="210.5,-275 210.5,-293 437.5,-293 437.5,-275 210.5,-275"/>
<polygon fill="#ffffff" stroke="transparent" points="211.5,-276 211.5,-292 289.5,-292 289.5,-276 211.5,-276"/>
<text text-anchor="start" x="213.5" y="-281.2" font-family="Helvetica,sans-Serif" font-size="11.00">&lt; 1</text>
<polygon fill="#ffffff" stroke="transparent" points="289.5,-276 289.5,-292 358.5,-292 358.5,-276 289.5,-276"/>
<text text-anchor="start" x="320.5" y="-281.2" font-family="Helvetica,sans-Serif" font-size="11.00"> &#160;</text>
<polygon fill="#ffffff" stroke="transparent" points="358.5,-276 358.5,-292 436.5,-292 436.5,-276 358.5,-276"/>
<text text-anchor="start" x="418.5" y="-281.2" font-family="Helvetica,sans-Serif" font-size="11.00">0 &gt;</text>
<polygon fill="black" stroke="black" points="289.5,-276 289.5,-292 289.5,-292 289.5,-276 289.5,-276"/>
<polygon fill="black" stroke="black" points="358.5,-276 358.5,-292 358.5,-292 358.5,-276 358.5,-276"/>
<polygon fill="none" stroke="black" stroke-width="2" points="209,-274 209,-360 438,-360 438,-274 209,-274"/>
</a>
</g>
</g>
<!-- ad_pinstance -->
<g id="node2" class="node">
<title>ad_pinstance</title>
<g id="a_node2"><a xlink:href="../../tables/ad_pinstance.html" xlink:title="ad_pinstance" target="_top">
<polygon fill="#ffffff" stroke="transparent" points="8,-37 8,-359 159,-359 159,-37 8,-37"/>
<polygon fill="#f5f5f5" stroke="transparent" points="8.5,-337 8.5,-359 159.5,-359 159.5,-337 8.5,-337"/>
<polygon fill="none" stroke="black" points="8.5,-337 8.5,-359 159.5,-359 159.5,-337 8.5,-337"/>
<text text-anchor="start" x="13.5" y="-346.2" font-family="Helvetica,sans-Serif" font-weight="bold" font-size="11.00">ad_pinstance</text>
<text text-anchor="start" x="124.5" y="-345.2" font-family="Helvetica,sans-Serif" font-size="11.00">[table]</text>
<polygon fill="none" stroke="black" points="8.5,-315 8.5,-337 159.5,-337 159.5,-315 8.5,-315"/>
<image xlink:href="../../images/primaryKeys.png" width="11px" height="12px" preserveAspectRatio="xMinYMin meet" x="13.5" y="-332"/>
<text text-anchor="start" x="28.5" y="-323.2" font-family="Helvetica,sans-Serif" font-size="11.00">ad_pinstance_id</text>
<polygon fill="#ffffff" stroke="transparent" points="8.5,-293 8.5,-315 159.5,-315 159.5,-293 8.5,-293"/>
<polygon fill="none" stroke="black" points="8.5,-293 8.5,-315 159.5,-315 159.5,-293 8.5,-293"/>
<image xlink:href="../../images/foreignKeys.png" width="11px" height="12px" preserveAspectRatio="xMinYMin meet" x="13.5" y="-310"/>
<text text-anchor="start" x="28.5" y="-301.2" font-family="Helvetica,sans-Serif" font-size="11.00">ad_process_id</text>
<polygon fill="#ffffff" stroke="transparent" points="8.5,-271 8.5,-293 159.5,-293 159.5,-271 8.5,-271"/>
<polygon fill="none" stroke="black" points="8.5,-271 8.5,-293 159.5,-293 159.5,-271 8.5,-271"/>
<text text-anchor="start" x="28.5" y="-279.2" font-family="Helvetica,sans-Serif" font-size="11.00">record_id</text>
<polygon fill="#ffffff" stroke="transparent" points="8.5,-249 8.5,-271 159.5,-271 159.5,-249 8.5,-249"/>
<polygon fill="none" stroke="black" points="8.5,-249 8.5,-271 159.5,-271 159.5,-249 8.5,-249"/>
<image xlink:href="../../images/foreignKeys.png" width="11px" height="12px" preserveAspectRatio="xMinYMin meet" x="13.5" y="-266"/>
<text text-anchor="start" x="28.5" y="-257.2" font-family="Helvetica,sans-Serif" font-size="11.00">ad_user_id</text>
<polygon fill="#ffffff" stroke="transparent" points="8.5,-227 8.5,-249 159.5,-249 159.5,-227 8.5,-227"/>
<polygon fill="none" stroke="black" points="8.5,-227 8.5,-249 159.5,-249 159.5,-227 8.5,-227"/>
<text text-anchor="start" x="28.5" y="-235.2" font-family="Helvetica,sans-Serif" font-size="11.00">ad_client_id</text>
<polygon fill="#ffffff" stroke="transparent" points="8.5,-205 8.5,-227 159.5,-227 159.5,-205 8.5,-205"/>
<polygon fill="none" stroke="black" points="8.5,-205 8.5,-227 159.5,-227 159.5,-205 8.5,-205"/>
<text text-anchor="start" x="28.5" y="-213.2" font-family="Helvetica,sans-Serif" font-size="11.00">isactive</text>
<polygon fill="#ffffff" stroke="transparent" points="8.5,-183 8.5,-205 159.5,-205 159.5,-183 8.5,-183"/>
<polygon fill="none" stroke="black" points="8.5,-183 8.5,-205 159.5,-205 159.5,-183 8.5,-183"/>
<text text-anchor="start" x="28.5" y="-191.2" font-family="Helvetica,sans-Serif" font-size="11.00">ad_pinstance_uu</text>
<polygon fill="#ffffff" stroke="transparent" points="8.5,-161 8.5,-183 159.5,-183 159.5,-161 8.5,-161"/>
<polygon fill="none" stroke="black" points="8.5,-161 8.5,-183 159.5,-183 159.5,-161 8.5,-161"/>
<text text-anchor="start" x="28.5" y="-169.2" font-family="Helvetica,sans-Serif" font-size="11.00">name</text>
<polygon fill="none" stroke="black" points="8.5,-139 8.5,-161 159.5,-161 159.5,-139 8.5,-139"/>
<image xlink:href="../../images/foreignKeys.png" width="11px" height="12px" preserveAspectRatio="xMinYMin meet" x="13.5" y="-156"/>
<text text-anchor="start" x="28.5" y="-147.2" font-family="Helvetica,sans-Serif" font-size="11.00">ad_printformat_id</text>
<polygon fill="none" stroke="black" points="8.5,-117 8.5,-139 159.5,-139 159.5,-117 8.5,-117"/>
<image xlink:href="../../images/foreignKeys.png" width="11px" height="12px" preserveAspectRatio="xMinYMin meet" x="13.5" y="-134"/>
<text text-anchor="start" x="28.5" y="-125.2" font-family="Helvetica,sans-Serif" font-size="11.00">ad_language_id</text>
<polygon fill="none" stroke="black" points="8.5,-95 8.5,-117 159.5,-117 159.5,-95 8.5,-95"/>
<image xlink:href="../../images/foreignKeys.png" width="11px" height="12px" preserveAspectRatio="xMinYMin meet" x="13.5" y="-112"/>
<text text-anchor="start" x="28.5" y="-103.2" font-family="Helvetica,sans-Serif" font-size="11.00">ad_session_id</text>
<polygon fill="none" stroke="black" points="8.5,-73 8.5,-95 159.5,-95 159.5,-73 8.5,-73"/>
<image xlink:href="../../images/foreignKeys.png" width="11px" height="12px" preserveAspectRatio="xMinYMin meet" x="13.5" y="-90"/>
<text text-anchor="start" x="28.5" y="-81.2" font-family="Helvetica,sans-Serif" font-size="11.00">ad_table_id</text>
<polygon fill="none" stroke="black" points="8.5,-55 8.5,-73 159.5,-73 159.5,-55 8.5,-55"/>
<text text-anchor="start" x="11.5" y="-61.2" font-family="Helvetica,sans-Serif" font-size="11.00">...</text>
<polygon fill="#ffffff" stroke="transparent" points="8.5,-37 8.5,-55 159.5,-55 159.5,-37 8.5,-37"/>
<polygon fill="none" stroke="black" points="8.5,-37 8.5,-55 159.5,-55 159.5,-37 8.5,-37"/>
<polygon fill="#ffffff" stroke="transparent" points="9.5,-38 9.5,-54 44.5,-54 44.5,-38 9.5,-38"/>
<text text-anchor="start" x="11.5" y="-43.2" font-family="Helvetica,sans-Serif" font-size="11.00">&lt; 6</text>
<polygon fill="#ffffff" stroke="transparent" points="44.5,-38 44.5,-54 117.5,-54 117.5,-38 44.5,-38"/>
<text text-anchor="start" x="54" y="-43.2" font-family="Helvetica,sans-Serif" font-size="11.00">1.652 rows</text>
<polygon fill="#ffffff" stroke="transparent" points="117.5,-38 117.5,-54 158.5,-54 158.5,-38 117.5,-38"/>
<text text-anchor="start" x="134.5" y="-43.2" font-family="Helvetica,sans-Serif" font-size="11.00">22 &gt;</text>
<polygon fill="black" stroke="black" points="44.5,-38 44.5,-54 44.5,-54 44.5,-38 44.5,-38"/>
<polygon fill="black" stroke="black" points="117.5,-38 117.5,-54 117.5,-54 117.5,-38 117.5,-38"/>
</a>
</g>
</g>
<!-- t_cof_entregas&#45;&gt;ad_pinstance -->
<g id="edge1" class="edge">
<title>t_cof_entregas:w&#45;&gt;ad_pinstance:e</title>
<path fill="none" stroke="black" d="M194.99,-326C183.68,-326 176.49,-326 160.5,-326"/>
<polygon fill="black" stroke="black" points="201.5,-326 209.5,-329.6 205.5,-326 209.5,-326 209.5,-326 209.5,-326 205.5,-326 209.5,-322.4 201.5,-326 201.5,-326"/>
<ellipse fill="none" stroke="black" cx="198.3" cy="-326" rx="3.2" ry="3.2"/>
</g>
</g>
</svg>
