<?xml version="1.0" encoding="UTF-8" standalone="no"?>
<!DOCTYPE svg PUBLIC "-//W3C//DTD SVG 1.1//EN"
 "http://www.w3.org/Graphics/SVG/1.1/DTD/svg11.dtd">
<!-- Generated by graphviz version 2.43.0 (0)
 -->
<!-- Title: oneDegreeRelationshipsDiagram Pages: 1 -->
<svg width="447pt" height="575pt"
 viewBox="0.00 0.00 446.67 575.00" xmlns="http://www.w3.org/2000/svg" xmlns:xlink="http://www.w3.org/1999/xlink">
<g id="graph0" class="graph" transform="scale(1 1) rotate(0) translate(4 571)">
<title>oneDegreeRelationshipsDiagram</title>
<polygon fill="#ffffff" stroke="transparent" points="-4,4 -4,-571 442.67,-571 442.67,4 -4,4"/>
<text text-anchor="middle" x="71.5" y="-7.2" font-family="Helvetica,sans-Serif" font-size="11.00">Generated by SchemaSpy</text>
<!-- u_rolemenu -->
<g id="node1" class="node">
<title>u_rolemenu</title>
<g id="a_node1"><a xlink:href="../../tables/u_rolemenu.html" xlink:title="u_rolemenu" target="_top">
<polygon fill="#ffffff" stroke="transparent" points="299.67,-417 299.67,-563 430.67,-563 430.67,-417 299.67,-417"/>
<polygon fill="#f5f5f5" stroke="transparent" points="300.17,-541 300.17,-563 431.17,-563 431.17,-541 300.17,-541"/>
<polygon fill="none" stroke="black" points="300.17,-541 300.17,-563 431.17,-563 431.17,-541 300.17,-541"/>
<text text-anchor="start" x="305.17" y="-550.2" font-family="Helvetica,sans-Serif" font-weight="bold" font-size="11.00">u_rolemenu</text>
<text text-anchor="start" x="396.17" y="-549.2" font-family="Helvetica,sans-Serif" font-size="11.00">[table]</text>
<polygon fill="none" stroke="black" points="300.17,-519 300.17,-541 431.17,-541 431.17,-519 300.17,-519"/>
<image xlink:href="../../images/primaryKeys.png" width="11px" height="12px" preserveAspectRatio="xMinYMin meet" x="305.172" y="-536"/>
<text text-anchor="start" x="320.17" y="-527.2" font-family="Helvetica,sans-Serif" font-size="11.00">u_rolemenu_id</text>
<polygon fill="none" stroke="black" points="300.17,-497 300.17,-519 431.17,-519 431.17,-497 300.17,-497"/>
<image xlink:href="../../images/foreignKeys.png" width="11px" height="12px" preserveAspectRatio="xMinYMin meet" x="305.172" y="-514"/>
<text text-anchor="start" x="320.17" y="-505.2" font-family="Helvetica,sans-Serif" font-size="11.00">ad_role_id</text>
<polygon fill="none" stroke="black" points="300.17,-475 300.17,-497 431.17,-497 431.17,-475 300.17,-475"/>
<image xlink:href="../../images/foreignKeys.png" width="11px" height="12px" preserveAspectRatio="xMinYMin meet" x="305.172" y="-492"/>
<text text-anchor="start" x="320.17" y="-483.2" font-family="Helvetica,sans-Serif" font-size="11.00">u_webmenu_id</text>
<polygon fill="#ffffff" stroke="transparent" points="300.17,-453 300.17,-475 431.17,-475 431.17,-453 300.17,-453"/>
<polygon fill="none" stroke="black" points="300.17,-453 300.17,-475 431.17,-475 431.17,-453 300.17,-453"/>
<text text-anchor="start" x="320.17" y="-461.2" font-family="Helvetica,sans-Serif" font-size="11.00">u_rolemenu_uu</text>
<polygon fill="none" stroke="black" points="300.17,-435 300.17,-453 431.17,-453 431.17,-435 300.17,-435"/>
<text text-anchor="start" x="303.17" y="-441.2" font-family="Helvetica,sans-Serif" font-size="11.00">...</text>
<polygon fill="#ffffff" stroke="transparent" points="300.17,-417 300.17,-435 431.17,-435 431.17,-417 300.17,-417"/>
<polygon fill="none" stroke="black" points="300.17,-417 300.17,-435 431.17,-435 431.17,-417 300.17,-417"/>
<polygon fill="#ffffff" stroke="transparent" points="301.17,-418 301.17,-434 350.17,-434 350.17,-418 301.17,-418"/>
<text text-anchor="start" x="303.17" y="-423.2" font-family="Helvetica,sans-Serif" font-size="11.00">&lt; 2</text>
<polygon fill="#ffffff" stroke="transparent" points="350.17,-418 350.17,-434 390.17,-434 390.17,-418 350.17,-418"/>
<text text-anchor="start" x="366.67" y="-423.2" font-family="Helvetica,sans-Serif" font-size="11.00"> &#160;</text>
<polygon fill="#ffffff" stroke="transparent" points="390.17,-418 390.17,-434 430.17,-434 430.17,-418 390.17,-418"/>
<text text-anchor="start" x="421.17" y="-423.2" font-family="Helvetica,sans-Serif" font-size="11.00"> &#160;</text>
<polygon fill="black" stroke="black" points="350.17,-418 350.17,-434 350.17,-434 350.17,-418 350.17,-418"/>
<polygon fill="black" stroke="black" points="390.17,-418 390.17,-434 390.17,-434 390.17,-418 390.17,-418"/>
</a>
</g>
</g>
<!-- u_webmenu -->
<g id="node2" class="node">
<title>u_webmenu</title>
<g id="a_node2"><a xlink:href="../../tables/u_webmenu.html" xlink:title="u_webmenu" target="_top">
<polygon fill="#ffffff" stroke="transparent" points="31.67,-37 31.67,-521 250.67,-521 250.67,-37 31.67,-37"/>
<polygon fill="#f5f5f5" stroke="transparent" points="34.17,-497 34.17,-519 249.17,-519 249.17,-497 34.17,-497"/>
<polygon fill="none" stroke="black" points="34.17,-497 34.17,-519 249.17,-519 249.17,-497 34.17,-497"/>
<text text-anchor="start" x="39.17" y="-506.2" font-family="Helvetica,sans-Serif" font-weight="bold" font-size="11.00">u_webmenu</text>
<text text-anchor="start" x="214.17" y="-505.2" font-family="Helvetica,sans-Serif" font-size="11.00">[table]</text>
<polygon fill="none" stroke="black" points="34.17,-475 34.17,-497 166.17,-497 166.17,-475 34.17,-475"/>
<image xlink:href="../../images/primaryKeys.png" width="11px" height="12px" preserveAspectRatio="xMinYMin meet" x="39.1724" y="-492"/>
<text text-anchor="start" x="54.17" y="-483.2" font-family="Helvetica,sans-Serif" font-size="11.00">u_webmenu_id</text>
<polygon fill="none" stroke="black" points="166.17,-475 166.17,-497 249.17,-497 249.17,-475 166.17,-475"/>
<text text-anchor="start" x="169.17" y="-483.2" font-family="Helvetica,sans-Serif" font-size="11.00">numeric[10]</text>
<polygon fill="none" stroke="black" points="34.17,-453 34.17,-475 166.17,-475 166.17,-453 34.17,-453"/>
<text text-anchor="start" x="54.17" y="-461.2" font-family="Helvetica,sans-Serif" font-size="11.00">ad_client_id</text>
<polygon fill="none" stroke="black" points="166.17,-453 166.17,-475 249.17,-475 249.17,-453 166.17,-453"/>
<text text-anchor="start" x="169.17" y="-461.2" font-family="Helvetica,sans-Serif" font-size="11.00">numeric[10]</text>
<polygon fill="none" stroke="black" points="34.17,-431 34.17,-453 166.17,-453 166.17,-431 34.17,-431"/>
<text text-anchor="start" x="54.17" y="-439.2" font-family="Helvetica,sans-Serif" font-size="11.00">ad_org_id</text>
<polygon fill="none" stroke="black" points="166.17,-431 166.17,-453 249.17,-453 249.17,-431 166.17,-431"/>
<text text-anchor="start" x="169.17" y="-439.2" font-family="Helvetica,sans-Serif" font-size="11.00">numeric[10]</text>
<polygon fill="none" stroke="black" points="34.17,-409 34.17,-431 166.17,-431 166.17,-409 34.17,-409"/>
<text text-anchor="start" x="54.17" y="-417.2" font-family="Helvetica,sans-Serif" font-size="11.00">isactive</text>
<polygon fill="none" stroke="black" points="166.17,-409 166.17,-431 249.17,-431 249.17,-409 166.17,-409"/>
<text text-anchor="start" x="169.17" y="-417.2" font-family="Helvetica,sans-Serif" font-size="11.00">bpchar[1]</text>
<polygon fill="none" stroke="black" points="34.17,-387 34.17,-409 166.17,-409 166.17,-387 34.17,-387"/>
<text text-anchor="start" x="54.17" y="-395.2" font-family="Helvetica,sans-Serif" font-size="11.00">created</text>
<polygon fill="none" stroke="black" points="166.17,-387 166.17,-409 249.17,-409 249.17,-387 166.17,-387"/>
<text text-anchor="start" x="169.17" y="-395.2" font-family="Helvetica,sans-Serif" font-size="11.00">timestamp[29,6]</text>
<polygon fill="none" stroke="black" points="34.17,-365 34.17,-387 166.17,-387 166.17,-365 34.17,-365"/>
<text text-anchor="start" x="54.17" y="-373.2" font-family="Helvetica,sans-Serif" font-size="11.00">createdby</text>
<polygon fill="none" stroke="black" points="166.17,-365 166.17,-387 249.17,-387 249.17,-365 166.17,-365"/>
<text text-anchor="start" x="169.17" y="-373.2" font-family="Helvetica,sans-Serif" font-size="11.00">numeric[10]</text>
<polygon fill="none" stroke="black" points="34.17,-343 34.17,-365 166.17,-365 166.17,-343 34.17,-343"/>
<text text-anchor="start" x="54.17" y="-351.2" font-family="Helvetica,sans-Serif" font-size="11.00">updated</text>
<polygon fill="none" stroke="black" points="166.17,-343 166.17,-365 249.17,-365 249.17,-343 166.17,-343"/>
<text text-anchor="start" x="169.17" y="-351.2" font-family="Helvetica,sans-Serif" font-size="11.00">timestamp[29,6]</text>
<polygon fill="none" stroke="black" points="34.17,-321 34.17,-343 166.17,-343 166.17,-321 34.17,-321"/>
<text text-anchor="start" x="54.17" y="-329.2" font-family="Helvetica,sans-Serif" font-size="11.00">updatedby</text>
<polygon fill="none" stroke="black" points="166.17,-321 166.17,-343 249.17,-343 249.17,-321 166.17,-321"/>
<text text-anchor="start" x="169.17" y="-329.2" font-family="Helvetica,sans-Serif" font-size="11.00">numeric[10]</text>
<polygon fill="none" stroke="black" points="34.17,-299 34.17,-321 166.17,-321 166.17,-299 34.17,-299"/>
<text text-anchor="start" x="54.17" y="-307.2" font-family="Helvetica,sans-Serif" font-size="11.00">name</text>
<polygon fill="none" stroke="black" points="166.17,-299 166.17,-321 249.17,-321 249.17,-299 166.17,-299"/>
<text text-anchor="start" x="169.17" y="-307.2" font-family="Helvetica,sans-Serif" font-size="11.00">varchar[120]</text>
<polygon fill="none" stroke="black" points="34.17,-277 34.17,-299 166.17,-299 166.17,-277 34.17,-277"/>
<text text-anchor="start" x="54.17" y="-285.2" font-family="Helvetica,sans-Serif" font-size="11.00">menulink</text>
<polygon fill="none" stroke="black" points="166.17,-277 166.17,-299 249.17,-299 249.17,-277 166.17,-277"/>
<text text-anchor="start" x="169.17" y="-285.2" font-family="Helvetica,sans-Serif" font-size="11.00">varchar[510]</text>
<polygon fill="none" stroke="black" points="34.17,-255 34.17,-277 166.17,-277 166.17,-255 34.17,-255"/>
<text text-anchor="start" x="54.17" y="-263.2" font-family="Helvetica,sans-Serif" font-size="11.00">module</text>
<polygon fill="none" stroke="black" points="166.17,-255 166.17,-277 249.17,-277 249.17,-255 166.17,-255"/>
<text text-anchor="start" x="169.17" y="-263.2" font-family="Helvetica,sans-Serif" font-size="11.00">varchar[120]</text>
<polygon fill="none" stroke="black" points="34.17,-233 34.17,-255 166.17,-255 166.17,-233 34.17,-233"/>
<image xlink:href="../../images/foreignKeys.png" width="11px" height="12px" preserveAspectRatio="xMinYMin meet" x="39.1724" y="-250"/>
<text text-anchor="start" x="54.17" y="-241.2" font-family="Helvetica,sans-Serif" font-size="11.00">parentmenu_id</text>
<polygon fill="none" stroke="black" points="166.17,-233 166.17,-255 249.17,-255 249.17,-233 166.17,-233"/>
<text text-anchor="start" x="169.17" y="-241.2" font-family="Helvetica,sans-Serif" font-size="11.00">numeric[10]</text>
<polygon fill="none" stroke="black" points="34.17,-211 34.17,-233 166.17,-233 166.17,-211 34.17,-211"/>
<text text-anchor="start" x="54.17" y="-219.2" font-family="Helvetica,sans-Serif" font-size="11.00">hassubmenu</text>
<polygon fill="none" stroke="black" points="166.17,-211 166.17,-233 249.17,-233 249.17,-211 166.17,-211"/>
<text text-anchor="start" x="169.17" y="-219.2" font-family="Helvetica,sans-Serif" font-size="11.00">bpchar[1]</text>
<polygon fill="none" stroke="black" points="34.17,-189 34.17,-211 166.17,-211 166.17,-189 34.17,-189"/>
<text text-anchor="start" x="54.17" y="-197.2" font-family="Helvetica,sans-Serif" font-size="11.00">description</text>
<polygon fill="none" stroke="black" points="166.17,-189 166.17,-211 249.17,-211 249.17,-189 166.17,-189"/>
<text text-anchor="start" x="169.17" y="-197.2" font-family="Helvetica,sans-Serif" font-size="11.00">varchar[200]</text>
<polygon fill="none" stroke="black" points="34.17,-167 34.17,-189 166.17,-189 166.17,-167 34.17,-167"/>
<text text-anchor="start" x="54.17" y="-175.2" font-family="Helvetica,sans-Serif" font-size="11.00">imagelink</text>
<polygon fill="none" stroke="black" points="166.17,-167 166.17,-189 249.17,-189 249.17,-167 166.17,-167"/>
<text text-anchor="start" x="169.17" y="-175.2" font-family="Helvetica,sans-Serif" font-size="11.00">varchar[510]</text>
<polygon fill="none" stroke="black" points="34.17,-145 34.17,-167 166.17,-167 166.17,-145 34.17,-145"/>
<text text-anchor="start" x="54.17" y="-153.2" font-family="Helvetica,sans-Serif" font-size="11.00">position</text>
<polygon fill="none" stroke="black" points="166.17,-145 166.17,-167 249.17,-167 249.17,-145 166.17,-145"/>
<text text-anchor="start" x="169.17" y="-153.2" font-family="Helvetica,sans-Serif" font-size="11.00">varchar[10]</text>
<polygon fill="none" stroke="black" points="34.17,-123 34.17,-145 166.17,-145 166.17,-123 34.17,-123"/>
<text text-anchor="start" x="54.17" y="-131.2" font-family="Helvetica,sans-Serif" font-size="11.00">help</text>
<polygon fill="none" stroke="black" points="166.17,-123 166.17,-145 249.17,-145 249.17,-123 166.17,-123"/>
<text text-anchor="start" x="169.17" y="-131.2" font-family="Helvetica,sans-Serif" font-size="11.00">varchar[2000]</text>
<polygon fill="none" stroke="black" points="34.17,-101 34.17,-123 166.17,-123 166.17,-101 34.17,-101"/>
<text text-anchor="start" x="54.17" y="-109.2" font-family="Helvetica,sans-Serif" font-size="11.00">category</text>
<polygon fill="none" stroke="black" points="166.17,-101 166.17,-123 249.17,-123 249.17,-101 166.17,-101"/>
<text text-anchor="start" x="169.17" y="-109.2" font-family="Helvetica,sans-Serif" font-size="11.00">varchar[120]</text>
<polygon fill="none" stroke="black" points="34.17,-79 34.17,-101 166.17,-101 166.17,-79 34.17,-79"/>
<text text-anchor="start" x="54.17" y="-87.2" font-family="Helvetica,sans-Serif" font-size="11.00">sequence</text>
<polygon fill="none" stroke="black" points="166.17,-79 166.17,-101 249.17,-101 249.17,-79 166.17,-79"/>
<text text-anchor="start" x="169.17" y="-87.2" font-family="Helvetica,sans-Serif" font-size="11.00">numeric[10]</text>
<polygon fill="#ffffff" stroke="transparent" points="34.17,-57 34.17,-79 166.17,-79 166.17,-57 34.17,-57"/>
<polygon fill="none" stroke="black" points="34.17,-57 34.17,-79 166.17,-79 166.17,-57 34.17,-57"/>
<text text-anchor="start" x="54.17" y="-65.2" font-family="Helvetica,sans-Serif" font-size="11.00">u_webmenu_uu</text>
<polygon fill="none" stroke="black" points="166.17,-57 166.17,-79 249.17,-79 249.17,-57 166.17,-57"/>
<text text-anchor="start" x="169.17" y="-65.2" font-family="Helvetica,sans-Serif" font-size="11.00">varchar[36]</text>
<polygon fill="#ffffff" stroke="transparent" points="34.17,-39 34.17,-57 249.17,-57 249.17,-39 34.17,-39"/>
<polygon fill="none" stroke="black" points="34.17,-39 34.17,-57 249.17,-57 249.17,-39 34.17,-39"/>
<polygon fill="#ffffff" stroke="transparent" points="35.17,-40 35.17,-56 97.17,-56 97.17,-40 35.17,-40"/>
<text text-anchor="start" x="37.17" y="-45.2" font-family="Helvetica,sans-Serif" font-size="11.00">&lt; 1</text>
<polygon fill="#ffffff" stroke="transparent" points="97.17,-40 97.17,-56 187.17,-56 187.17,-40 97.17,-40"/>
<text text-anchor="start" x="119.67" y="-45.2" font-family="Helvetica,sans-Serif" font-size="11.00">143 rows</text>
<polygon fill="#ffffff" stroke="transparent" points="187.17,-40 187.17,-56 248.17,-56 248.17,-40 187.17,-40"/>
<text text-anchor="start" x="230.17" y="-45.2" font-family="Helvetica,sans-Serif" font-size="11.00">2 &gt;</text>
<polygon fill="black" stroke="black" points="97.17,-40 97.17,-56 97.17,-56 97.17,-40 97.17,-40"/>
<polygon fill="black" stroke="black" points="187.17,-40 187.17,-56 187.17,-56 187.17,-40 187.17,-40"/>
<polygon fill="none" stroke="black" stroke-width="2" points="32.67,-38 32.67,-520 249.67,-520 249.67,-38 32.67,-38"/>
</a>
</g>
</g>
<!-- u_rolemenu&#45;&gt;u_webmenu -->
<g id="edge1" class="edge">
<title>u_rolemenu:w&#45;&gt;u_webmenu:e</title>
<path fill="none" stroke="black" d="M284.66,-486C273.35,-486 266.17,-486 250.17,-486"/>
<polygon fill="black" stroke="black" points="291.17,-486 299.17,-489.6 295.17,-486 299.17,-486 299.17,-486 299.17,-486 295.17,-486 299.17,-482.4 291.17,-486 291.17,-486"/>
<ellipse fill="none" stroke="black" cx="287.97" cy="-486" rx="3.2" ry="3.2"/>
</g>
<!-- u_webmenu&#45;&gt;u_webmenu -->
<g id="edge2" class="edge">
<title>u_webmenu:w&#45;&gt;u_webmenu:e</title>
<path fill="none" stroke="black" d="M26.83,-256.62C-21.48,-348.96 -14.32,-538 141.67,-538 305.17,-538 305.17,-529.33 249.17,-486"/>
<polygon fill="black" stroke="black" points="30.15,-250.91 37.28,-245.81 32.16,-247.46 34.17,-244 34.17,-244 34.17,-244 32.16,-247.46 31.06,-242.19 30.15,-250.91 30.15,-250.91"/>
<ellipse fill="none" stroke="black" cx="28.54" cy="-253.68" rx="3.2" ry="3.2"/>
</g>
</g>
</svg>
