<?xml version="1.0" encoding="UTF-8" standalone="no"?>
<!DOCTYPE svg PUBLIC "-//W3C//DTD SVG 1.1//EN"
 "http://www.w3.org/Graphics/SVG/1.1/DTD/svg11.dtd">
<!-- Generated by graphviz version 2.43.0 (0)
 -->
<!-- Title: oneDegreeRelationshipsDiagram Pages: 1 -->
<svg width="602pt" height="692pt"
 viewBox="0.00 0.00 602.00 692.00" xmlns="http://www.w3.org/2000/svg" xmlns:xlink="http://www.w3.org/1999/xlink">
<g id="graph0" class="graph" transform="scale(1 1) rotate(0) translate(4 688)">
<title>oneDegreeRelationshipsDiagram</title>
<polygon fill="#ffffff" stroke="transparent" points="-4,4 -4,-688 598,-688 598,4 -4,4"/>
<text text-anchor="middle" x="71.5" y="-7.2" font-family="Helvetica,sans-Serif" font-size="11.00">Generated by SchemaSpy</text>
<!-- ws_webservicefieldoutput -->
<g id="node1" class="node">
<title>ws_webservicefieldoutput</title>
<g id="a_node1"><a xlink:href="../../tables/ws_webservicefieldoutput.html" xlink:title="ws_webservicefieldoutput" target="_top">
<polygon fill="#ffffff" stroke="transparent" points="263,-235 263,-521 586,-521 586,-235 263,-235"/>
<polygon fill="#f5f5f5" stroke="transparent" points="265.5,-497 265.5,-519 584.5,-519 584.5,-497 265.5,-497"/>
<polygon fill="none" stroke="black" points="265.5,-497 265.5,-519 584.5,-519 584.5,-497 265.5,-497"/>
<text text-anchor="start" x="270.5" y="-506.2" font-family="Helvetica,sans-Serif" font-weight="bold" font-size="11.00">ws_webservicefieldoutput</text>
<text text-anchor="start" x="549.5" y="-505.2" font-family="Helvetica,sans-Serif" font-size="11.00">[table]</text>
<polygon fill="none" stroke="black" points="265.5,-475 265.5,-497 501.5,-497 501.5,-475 265.5,-475"/>
<text text-anchor="start" x="285.5" y="-483.2" font-family="Helvetica,sans-Serif" font-size="11.00">ad_client_id</text>
<polygon fill="none" stroke="black" points="501.5,-475 501.5,-497 584.5,-497 584.5,-475 501.5,-475"/>
<text text-anchor="start" x="504.5" y="-483.2" font-family="Helvetica,sans-Serif" font-size="11.00">numeric[10]</text>
<polygon fill="none" stroke="black" points="265.5,-453 265.5,-475 501.5,-475 501.5,-453 265.5,-453"/>
<image xlink:href="../../images/foreignKeys.png" width="11px" height="12px" preserveAspectRatio="xMinYMin meet" x="270.5" y="-470"/>
<text text-anchor="start" x="285.5" y="-461.2" font-family="Helvetica,sans-Serif" font-size="11.00">ad_column_id</text>
<polygon fill="none" stroke="black" points="501.5,-453 501.5,-475 584.5,-475 584.5,-453 501.5,-453"/>
<text text-anchor="start" x="504.5" y="-461.2" font-family="Helvetica,sans-Serif" font-size="11.00">numeric[10]</text>
<polygon fill="none" stroke="black" points="265.5,-431 265.5,-453 501.5,-453 501.5,-431 265.5,-431"/>
<text text-anchor="start" x="285.5" y="-439.2" font-family="Helvetica,sans-Serif" font-size="11.00">ad_org_id</text>
<polygon fill="none" stroke="black" points="501.5,-431 501.5,-453 584.5,-453 584.5,-431 501.5,-431"/>
<text text-anchor="start" x="504.5" y="-439.2" font-family="Helvetica,sans-Serif" font-size="11.00">numeric[10]</text>
<polygon fill="none" stroke="black" points="265.5,-409 265.5,-431 501.5,-431 501.5,-409 265.5,-409"/>
<text text-anchor="start" x="285.5" y="-417.2" font-family="Helvetica,sans-Serif" font-size="11.00">created</text>
<polygon fill="none" stroke="black" points="501.5,-409 501.5,-431 584.5,-431 584.5,-409 501.5,-409"/>
<text text-anchor="start" x="504.5" y="-417.2" font-family="Helvetica,sans-Serif" font-size="11.00">timestamp[29,6]</text>
<polygon fill="none" stroke="black" points="265.5,-387 265.5,-409 501.5,-409 501.5,-387 265.5,-387"/>
<text text-anchor="start" x="285.5" y="-395.2" font-family="Helvetica,sans-Serif" font-size="11.00">createdby</text>
<polygon fill="none" stroke="black" points="501.5,-387 501.5,-409 584.5,-409 584.5,-387 501.5,-387"/>
<text text-anchor="start" x="504.5" y="-395.2" font-family="Helvetica,sans-Serif" font-size="11.00">numeric[10]</text>
<polygon fill="none" stroke="black" points="265.5,-365 265.5,-387 501.5,-387 501.5,-365 265.5,-365"/>
<text text-anchor="start" x="285.5" y="-373.2" font-family="Helvetica,sans-Serif" font-size="11.00">isactive</text>
<polygon fill="none" stroke="black" points="501.5,-365 501.5,-387 584.5,-387 584.5,-365 501.5,-365"/>
<text text-anchor="start" x="504.5" y="-373.2" font-family="Helvetica,sans-Serif" font-size="11.00">bpchar[1]</text>
<polygon fill="none" stroke="black" points="265.5,-343 265.5,-365 501.5,-365 501.5,-343 265.5,-343"/>
<text text-anchor="start" x="285.5" y="-351.2" font-family="Helvetica,sans-Serif" font-size="11.00">updated</text>
<polygon fill="none" stroke="black" points="501.5,-343 501.5,-365 584.5,-365 584.5,-343 501.5,-343"/>
<text text-anchor="start" x="504.5" y="-351.2" font-family="Helvetica,sans-Serif" font-size="11.00">timestamp[29,6]</text>
<polygon fill="none" stroke="black" points="265.5,-321 265.5,-343 501.5,-343 501.5,-321 265.5,-321"/>
<text text-anchor="start" x="285.5" y="-329.2" font-family="Helvetica,sans-Serif" font-size="11.00">updatedby</text>
<polygon fill="none" stroke="black" points="501.5,-321 501.5,-343 584.5,-343 584.5,-321 501.5,-321"/>
<text text-anchor="start" x="504.5" y="-329.2" font-family="Helvetica,sans-Serif" font-size="11.00">numeric[10]</text>
<polygon fill="none" stroke="black" points="265.5,-299 265.5,-321 501.5,-321 501.5,-299 265.5,-299"/>
<image xlink:href="../../images/primaryKeys.png" width="11px" height="12px" preserveAspectRatio="xMinYMin meet" x="270.5" y="-316"/>
<text text-anchor="start" x="285.5" y="-307.2" font-family="Helvetica,sans-Serif" font-size="11.00">ws_webservicefieldoutput_id</text>
<polygon fill="none" stroke="black" points="501.5,-299 501.5,-321 584.5,-321 584.5,-299 501.5,-299"/>
<text text-anchor="start" x="504.5" y="-307.2" font-family="Helvetica,sans-Serif" font-size="11.00">numeric[10]</text>
<polygon fill="none" stroke="black" points="265.5,-277 265.5,-299 501.5,-299 501.5,-277 265.5,-277"/>
<image xlink:href="../../images/foreignKeys.png" width="11px" height="12px" preserveAspectRatio="xMinYMin meet" x="270.5" y="-294"/>
<text text-anchor="start" x="285.5" y="-285.2" font-family="Helvetica,sans-Serif" font-size="11.00">ws_webservicetype_id</text>
<polygon fill="none" stroke="black" points="501.5,-277 501.5,-299 584.5,-299 584.5,-277 501.5,-277"/>
<text text-anchor="start" x="504.5" y="-285.2" font-family="Helvetica,sans-Serif" font-size="11.00">numeric[10]</text>
<polygon fill="#ffffff" stroke="transparent" points="265.5,-255 265.5,-277 501.5,-277 501.5,-255 265.5,-255"/>
<polygon fill="none" stroke="black" points="265.5,-255 265.5,-277 501.5,-277 501.5,-255 265.5,-255"/>
<text text-anchor="start" x="285.5" y="-263.2" font-family="Helvetica,sans-Serif" font-size="11.00">ws_webservicefieldoutput_uu</text>
<polygon fill="none" stroke="black" points="501.5,-255 501.5,-277 584.5,-277 584.5,-255 501.5,-255"/>
<text text-anchor="start" x="504.5" y="-263.2" font-family="Helvetica,sans-Serif" font-size="11.00">varchar[36]</text>
<polygon fill="#ffffff" stroke="transparent" points="265.5,-237 265.5,-255 584.5,-255 584.5,-237 265.5,-237"/>
<polygon fill="none" stroke="black" points="265.5,-237 265.5,-255 584.5,-255 584.5,-237 265.5,-237"/>
<polygon fill="#ffffff" stroke="transparent" points="266.5,-238 266.5,-254 366.5,-254 366.5,-238 266.5,-238"/>
<text text-anchor="start" x="268.5" y="-243.2" font-family="Helvetica,sans-Serif" font-size="11.00">&lt; 2</text>
<polygon fill="#ffffff" stroke="transparent" points="366.5,-238 366.5,-254 483.5,-254 483.5,-238 366.5,-238"/>
<text text-anchor="start" x="408.5" y="-243.2" font-family="Helvetica,sans-Serif" font-size="11.00">7 rows</text>
<polygon fill="#ffffff" stroke="transparent" points="483.5,-238 483.5,-254 583.5,-254 583.5,-238 483.5,-238"/>
<text text-anchor="start" x="565.5" y="-243.2" font-family="Helvetica,sans-Serif" font-size="11.00">0 &gt;</text>
<polygon fill="black" stroke="black" points="366.5,-238 366.5,-254 366.5,-254 366.5,-238 366.5,-238"/>
<polygon fill="black" stroke="black" points="483.5,-238 483.5,-254 483.5,-254 483.5,-238 483.5,-238"/>
<polygon fill="none" stroke="black" stroke-width="2" points="264,-236 264,-520 585,-520 585,-236 264,-236"/>
</a>
</g>
</g>
<!-- ad_column -->
<g id="node2" class="node">
<title>ad_column</title>
<g id="a_node2"><a xlink:href="../../tables/ad_column.html" xlink:title="ad_column" target="_top">
<polygon fill="#ffffff" stroke="transparent" points="11,-270 11,-680 211,-680 211,-270 11,-270"/>
<polygon fill="#f5f5f5" stroke="transparent" points="11,-658 11,-680 211,-680 211,-658 11,-658"/>
<polygon fill="none" stroke="black" points="11,-658 11,-680 211,-680 211,-658 11,-658"/>
<text text-anchor="start" x="16" y="-667.2" font-family="Helvetica,sans-Serif" font-weight="bold" font-size="11.00">ad_column</text>
<text text-anchor="start" x="176" y="-666.2" font-family="Helvetica,sans-Serif" font-size="11.00">[table]</text>
<polygon fill="none" stroke="black" points="11,-636 11,-658 211,-658 211,-636 11,-636"/>
<image xlink:href="../../images/primaryKeys.png" width="11px" height="12px" preserveAspectRatio="xMinYMin meet" x="16" y="-653"/>
<text text-anchor="start" x="31" y="-644.2" font-family="Helvetica,sans-Serif" font-size="11.00">ad_column_id</text>
<polygon fill="none" stroke="black" points="11,-614 11,-636 211,-636 211,-614 11,-614"/>
<image xlink:href="../../images/foreignKeys.png" width="11px" height="12px" preserveAspectRatio="xMinYMin meet" x="16" y="-631"/>
<text text-anchor="start" x="31" y="-622.2" font-family="Helvetica,sans-Serif" font-size="11.00">ad_client_id</text>
<polygon fill="none" stroke="black" points="11,-592 11,-614 211,-614 211,-592 11,-592"/>
<image xlink:href="../../images/foreignKeys.png" width="11px" height="12px" preserveAspectRatio="xMinYMin meet" x="16" y="-609"/>
<text text-anchor="start" x="31" y="-600.2" font-family="Helvetica,sans-Serif" font-size="11.00">ad_org_id</text>
<polygon fill="none" stroke="black" points="11,-570 11,-592 211,-592 211,-570 11,-570"/>
<image xlink:href="../../images/foreignKeys.png" width="11px" height="12px" preserveAspectRatio="xMinYMin meet" x="16" y="-587"/>
<text text-anchor="start" x="31" y="-578.2" font-family="Helvetica,sans-Serif" font-size="11.00">entitytype</text>
<polygon fill="#ffffff" stroke="transparent" points="11,-548 11,-570 211,-570 211,-548 11,-548"/>
<polygon fill="none" stroke="black" points="11,-548 11,-570 211,-570 211,-548 11,-548"/>
<image xlink:href="../../images/foreignKeys.png" width="11px" height="12px" preserveAspectRatio="xMinYMin meet" x="16" y="-565"/>
<text text-anchor="start" x="31" y="-556.2" font-family="Helvetica,sans-Serif" font-size="11.00">ad_table_id</text>
<polygon fill="none" stroke="black" points="11,-526 11,-548 211,-548 211,-526 11,-526"/>
<image xlink:href="../../images/foreignKeys.png" width="11px" height="12px" preserveAspectRatio="xMinYMin meet" x="16" y="-543"/>
<text text-anchor="start" x="31" y="-534.2" font-family="Helvetica,sans-Serif" font-size="11.00">ad_reference_id</text>
<polygon fill="none" stroke="black" points="11,-504 11,-526 211,-526 211,-504 11,-504"/>
<image xlink:href="../../images/foreignKeys.png" width="11px" height="12px" preserveAspectRatio="xMinYMin meet" x="16" y="-521"/>
<text text-anchor="start" x="31" y="-512.2" font-family="Helvetica,sans-Serif" font-size="11.00">ad_reference_value_id</text>
<polygon fill="none" stroke="black" points="11,-482 11,-504 211,-504 211,-482 11,-482"/>
<image xlink:href="../../images/foreignKeys.png" width="11px" height="12px" preserveAspectRatio="xMinYMin meet" x="16" y="-499"/>
<text text-anchor="start" x="31" y="-490.2" font-family="Helvetica,sans-Serif" font-size="11.00">ad_val_rule_id</text>
<polygon fill="none" stroke="black" points="11,-460 11,-482 211,-482 211,-460 11,-460"/>
<image xlink:href="../../images/foreignKeys.png" width="11px" height="12px" preserveAspectRatio="xMinYMin meet" x="16" y="-477"/>
<text text-anchor="start" x="31" y="-468.2" font-family="Helvetica,sans-Serif" font-size="11.00">ad_element_id</text>
<polygon fill="#ffffff" stroke="transparent" points="11,-438 11,-460 211,-460 211,-438 11,-438"/>
<polygon fill="none" stroke="black" points="11,-438 11,-460 211,-460 211,-438 11,-438"/>
<image xlink:href="../../images/foreignKeys.png" width="11px" height="12px" preserveAspectRatio="xMinYMin meet" x="16" y="-455"/>
<text text-anchor="start" x="31" y="-446.2" font-family="Helvetica,sans-Serif" font-size="11.00">ad_process_id</text>
<polygon fill="#ffffff" stroke="transparent" points="11,-416 11,-438 211,-438 211,-416 11,-416"/>
<polygon fill="none" stroke="black" points="11,-416 11,-438 211,-438 211,-416 11,-416"/>
<text text-anchor="start" x="31" y="-424.2" font-family="Helvetica,sans-Serif" font-size="11.00">ad_column_uu</text>
<polygon fill="none" stroke="black" points="11,-394 11,-416 211,-416 211,-394 11,-394"/>
<image xlink:href="../../images/foreignKeys.png" width="11px" height="12px" preserveAspectRatio="xMinYMin meet" x="16" y="-411"/>
<text text-anchor="start" x="31" y="-402.2" font-family="Helvetica,sans-Serif" font-size="11.00">ad_chart_id</text>
<polygon fill="none" stroke="black" points="11,-372 11,-394 211,-394 211,-372 11,-372"/>
<image xlink:href="../../images/foreignKeys.png" width="11px" height="12px" preserveAspectRatio="xMinYMin meet" x="16" y="-389"/>
<text text-anchor="start" x="31" y="-380.2" font-family="Helvetica,sans-Serif" font-size="11.00">pa_dashboardcontent_id</text>
<polygon fill="none" stroke="black" points="11,-350 11,-372 211,-372 211,-350 11,-350"/>
<image xlink:href="../../images/foreignKeys.png" width="11px" height="12px" preserveAspectRatio="xMinYMin meet" x="16" y="-367"/>
<text text-anchor="start" x="31" y="-358.2" font-family="Helvetica,sans-Serif" font-size="11.00">ad_val_rule_lookup_id</text>
<polygon fill="none" stroke="black" points="11,-328 11,-350 211,-350 211,-328 11,-328"/>
<image xlink:href="../../images/foreignKeys.png" width="11px" height="12px" preserveAspectRatio="xMinYMin meet" x="16" y="-345"/>
<text text-anchor="start" x="31" y="-336.2" font-family="Helvetica,sans-Serif" font-size="11.00">ad_infowindow_id</text>
<polygon fill="none" stroke="black" points="11,-306 11,-328 211,-328 211,-306 11,-306"/>
<image xlink:href="../../images/foreignKeys.png" width="11px" height="12px" preserveAspectRatio="xMinYMin meet" x="16" y="-323"/>
<text text-anchor="start" x="31" y="-314.2" font-family="Helvetica,sans-Serif" font-size="11.00">fkconstraintmsg_id</text>
<polygon fill="none" stroke="black" points="11,-288 11,-306 211,-306 211,-288 11,-288"/>
<text text-anchor="start" x="14" y="-294.2" font-family="Helvetica,sans-Serif" font-size="11.00">...</text>
<polygon fill="#ffffff" stroke="transparent" points="11,-270 11,-288 211,-288 211,-270 11,-270"/>
<polygon fill="none" stroke="black" points="11,-270 11,-288 211,-288 211,-270 11,-270"/>
<polygon fill="#ffffff" stroke="transparent" points="12,-271 12,-287 66,-287 66,-271 12,-271"/>
<text text-anchor="start" x="14" y="-276.2" font-family="Helvetica,sans-Serif" font-size="11.00">&lt; 14</text>
<polygon fill="#ffffff" stroke="transparent" points="66,-271 66,-287 157,-287 157,-271 66,-271"/>
<text text-anchor="start" x="81.5" y="-276.2" font-family="Helvetica,sans-Serif" font-size="11.00">39.404 rows</text>
<polygon fill="#ffffff" stroke="transparent" points="157,-271 157,-287 210,-287 210,-271 157,-271"/>
<text text-anchor="start" x="186" y="-276.2" font-family="Helvetica,sans-Serif" font-size="11.00">34 &gt;</text>
<polygon fill="black" stroke="black" points="66,-271 66,-287 66,-287 66,-271 66,-271"/>
<polygon fill="black" stroke="black" points="157,-271 157,-287 157,-287 157,-271 157,-271"/>
</a>
</g>
</g>
<!-- ws_webservicefieldoutput&#45;&gt;ad_column -->
<g id="edge1" class="edge">
<title>ws_webservicefieldoutput:w&#45;&gt;ad_column:e</title>
<path fill="none" stroke="black" d="M250.19,-466.31C194.5,-487.5 291,-647 212,-647"/>
<polygon fill="black" stroke="black" points="256.6,-465.28 265.07,-467.55 260.55,-464.64 264.5,-464 264.5,-464 264.5,-464 260.55,-464.64 263.93,-460.45 256.6,-465.28 256.6,-465.28"/>
<ellipse fill="none" stroke="black" cx="253.44" cy="-465.79" rx="3.2" ry="3.2"/>
</g>
<!-- ws_webservicetype -->
<g id="node3" class="node">
<title>ws_webservicetype</title>
<g id="a_node3"><a xlink:href="../../tables/ws_webservicetype.html" xlink:title="ws_webservicetype" target="_top">
<polygon fill="#ffffff" stroke="transparent" points="8,-37 8,-249 214,-249 214,-37 8,-37"/>
<polygon fill="#f5f5f5" stroke="transparent" points="8,-227 8,-249 214,-249 214,-227 8,-227"/>
<polygon fill="none" stroke="black" points="8,-227 8,-249 214,-249 214,-227 8,-227"/>
<text text-anchor="start" x="13" y="-236.2" font-family="Helvetica,sans-Serif" font-weight="bold" font-size="11.00">ws_webservicetype</text>
<text text-anchor="start" x="179" y="-235.2" font-family="Helvetica,sans-Serif" font-size="11.00">[table]</text>
<polygon fill="#ffffff" stroke="transparent" points="8,-205 8,-227 214,-227 214,-205 8,-205"/>
<polygon fill="none" stroke="black" points="8,-205 8,-227 214,-227 214,-205 8,-205"/>
<text text-anchor="start" x="28" y="-213.2" font-family="Helvetica,sans-Serif" font-size="11.00">ad_client_id</text>
<polygon fill="none" stroke="black" points="8,-183 8,-205 214,-205 214,-183 8,-183"/>
<image xlink:href="../../images/foreignKeys.png" width="11px" height="12px" preserveAspectRatio="xMinYMin meet" x="13" y="-200"/>
<text text-anchor="start" x="28" y="-191.2" font-family="Helvetica,sans-Serif" font-size="11.00">ad_table_id</text>
<polygon fill="#ffffff" stroke="transparent" points="8,-161 8,-183 214,-183 214,-161 8,-161"/>
<polygon fill="none" stroke="black" points="8,-161 8,-183 214,-183 214,-161 8,-161"/>
<text text-anchor="start" x="28" y="-169.2" font-family="Helvetica,sans-Serif" font-size="11.00">value</text>
<polygon fill="none" stroke="black" points="8,-139 8,-161 214,-161 214,-139 8,-139"/>
<image xlink:href="../../images/foreignKeys.png" width="11px" height="12px" preserveAspectRatio="xMinYMin meet" x="13" y="-156"/>
<text text-anchor="start" x="28" y="-147.2" font-family="Helvetica,sans-Serif" font-size="11.00">ws_webservice_id</text>
<polygon fill="none" stroke="black" points="8,-117 8,-139 214,-139 214,-117 8,-117"/>
<image xlink:href="../../images/foreignKeys.png" width="11px" height="12px" preserveAspectRatio="xMinYMin meet" x="13" y="-134"/>
<text text-anchor="start" x="28" y="-125.2" font-family="Helvetica,sans-Serif" font-size="11.00">ws_webservicemethod_id</text>
<polygon fill="none" stroke="black" points="8,-95 8,-117 214,-117 214,-95 8,-95"/>
<image xlink:href="../../images/primaryKeys.png" width="11px" height="12px" preserveAspectRatio="xMinYMin meet" x="13" y="-112"/>
<text text-anchor="start" x="28" y="-103.2" font-family="Helvetica,sans-Serif" font-size="11.00">ws_webservicetype_id</text>
<polygon fill="#ffffff" stroke="transparent" points="8,-73 8,-95 214,-95 214,-73 8,-73"/>
<polygon fill="none" stroke="black" points="8,-73 8,-95 214,-95 214,-73 8,-73"/>
<text text-anchor="start" x="28" y="-81.2" font-family="Helvetica,sans-Serif" font-size="11.00">ws_webservicetype_uu</text>
<polygon fill="none" stroke="black" points="8,-55 8,-73 214,-73 214,-55 8,-55"/>
<text text-anchor="start" x="11" y="-61.2" font-family="Helvetica,sans-Serif" font-size="11.00">...</text>
<polygon fill="#ffffff" stroke="transparent" points="8,-37 8,-55 214,-55 214,-37 8,-37"/>
<polygon fill="none" stroke="black" points="8,-37 8,-55 214,-55 214,-37 8,-37"/>
<polygon fill="#ffffff" stroke="transparent" points="9,-38 9,-54 72,-54 72,-38 9,-38"/>
<text text-anchor="start" x="11" y="-43.2" font-family="Helvetica,sans-Serif" font-size="11.00">&lt; 3</text>
<polygon fill="#ffffff" stroke="transparent" points="72,-38 72,-54 151,-54 151,-38 72,-38"/>
<text text-anchor="start" x="95" y="-43.2" font-family="Helvetica,sans-Serif" font-size="11.00">6 rows</text>
<polygon fill="#ffffff" stroke="transparent" points="151,-38 151,-54 213,-54 213,-38 151,-38"/>
<text text-anchor="start" x="195" y="-43.2" font-family="Helvetica,sans-Serif" font-size="11.00">4 &gt;</text>
<polygon fill="black" stroke="black" points="72,-38 72,-54 72,-54 72,-38 72,-38"/>
<polygon fill="black" stroke="black" points="151,-38 151,-54 151,-54 151,-38 151,-38"/>
</a>
</g>
</g>
<!-- ws_webservicefieldoutput&#45;&gt;ws_webservicetype -->
<g id="edge2" class="edge">
<title>ws_webservicefieldoutput:w&#45;&gt;ws_webservicetype:e</title>
<path fill="none" stroke="black" d="M250.01,-285.56C195.88,-263.97 293.1,-106 215,-106"/>
<polygon fill="black" stroke="black" points="256.61,-286.67 263.9,-291.55 260.56,-287.34 264.5,-288 264.5,-288 264.5,-288 260.56,-287.34 265.1,-284.45 256.61,-286.67 256.61,-286.67"/>
<ellipse fill="none" stroke="black" cx="253.45" cy="-286.14" rx="3.2" ry="3.2"/>
</g>
</g>
</svg>
